<?xml version="1.0" encoding="UTF-8" standalone="no"?>
<!DOCTYPE svg PUBLIC "-//W3C//DTD SVG 1.1//EN"
 "http://www.w3.org/Graphics/SVG/1.1/DTD/svg11.dtd">
<!-- Generated by graphviz version 2.40.1 (20161225.0304)
 -->
<!-- Title: G Pages: 1 -->
<svg width="153pt" height="91pt"
 viewBox="0.00 0.00 153.00 91.00" xmlns="http://www.w3.org/2000/svg" xmlns:xlink="http://www.w3.org/1999/xlink">
<g id="graph0" class="graph" transform="scale(1 1) rotate(0) translate(4 87)">
<title>G</title>
<polygon fill="#ffffff" stroke="transparent" points="-4,4 -4,-87 149,-87 149,4 -4,4"/>
<!-- _st0 -->
<!-- st0 -->
<g id="node2" class="node">
<title>st0</title>
<polygon fill="none" stroke="#000000" points="145,-50 91,-50 91,0 145,0 145,-50"/>
<text text-anchor="start" x="107" y="-35.8" font-family="arial" font-weight="bold" font-size="14.00" fill="#000000">st0</text>
<text text-anchor="start" x="110" y="-21.8" font-family="arial" font-size="14.00" fill="#984ea3">!Q</text>
<text text-anchor="start" x="105.5" y="-7.8" font-family="arial" font-size="14.00" fill="#ff7f00">true</text>
</g>
<!-- _st0&#45;&gt;st0 -->
<g id="edge1" class="edge">
<title>_st0&#45;&gt;st0</title>
<path fill="none" stroke="#000000" d="M54.303,-25C62.5813,-25 71.8217,-25 80.6405,-25"/>
<polygon fill="#000000" stroke="#000000" points="80.7163,-28.5001 90.7163,-25 80.7162,-21.5001 80.7163,-28.5001"/>
</g>
<!-- st0&#45;&gt;st0 -->
<g id="edge2" class="edge">
<title>st0&#45;&gt;st0</title>
<path fill="none" stroke="#000000" d="M109.7822,-50.1756C109.417,-59.9095 112.1563,-68 118,-68 121.561,-68 123.9693,-64.9957 125.2247,-60.446"/>
<polygon fill="#000000" stroke="#000000" points="128.739,-60.4661 126.2178,-50.1756 121.7714,-59.7923 128.739,-60.4661"/>
<text text-anchor="start" x="105.5" y="-71.8" font-family="arial" font-size="14.00" fill="#377eb8">true</text>
</g>
</g>
</svg>
