<?xml version="1.0" encoding="UTF-8" standalone="no"?>
<!DOCTYPE svg PUBLIC "-//W3C//DTD SVG 1.1//EN"
 "http://www.w3.org/Graphics/SVG/1.1/DTD/svg11.dtd">
<!-- Generated by graphviz version 2.40.1 (20161225.0304)
 -->
<!-- Title: G Pages: 1 -->
<svg width="546pt" height="155pt"
 viewBox="0.00 0.00 546.00 155.00" xmlns="http://www.w3.org/2000/svg" xmlns:xlink="http://www.w3.org/1999/xlink">
<g id="graph0" class="graph" transform="scale(1 1) rotate(0) translate(4 151)">
<title>G</title>
<polygon fill="#ffffff" stroke="transparent" points="-4,4 -4,-151 542,-151 542,4 -4,4"/>
<!-- _st0 -->
<!-- st0 -->
<g id="node2" class="node">
<title>st0</title>
<polygon fill="none" stroke="#000000" points="157,-114 91,-114 91,-64 157,-64 157,-114"/>
<text text-anchor="start" x="113" y="-99.8" font-family="arial" font-weight="bold" font-size="14.00" fill="#000000">st0</text>
<text text-anchor="start" x="99" y="-85.8" font-family="arial" font-size="14.00" fill="#984ea3">(R || !Q)</text>
<text text-anchor="start" x="111.5" y="-71.8" font-family="arial" font-size="14.00" fill="#ff7f00">true</text>
</g>
<!-- _st0&#45;&gt;st0 -->
<g id="edge1" class="edge">
<title>_st0&#45;&gt;st0</title>
<path fill="none" stroke="#000000" d="M54.0199,-89C62.3287,-89 71.6915,-89 80.8018,-89"/>
<polygon fill="#000000" stroke="#000000" points="80.9106,-92.5001 90.9106,-89 80.9105,-85.5001 80.9106,-92.5001"/>
</g>
<!-- st0&#45;&gt;st0 -->
<g id="edge3" class="edge">
<title>st0&#45;&gt;st0</title>
<path fill="none" stroke="#000000" d="M114.6616,-114.1756C114.2466,-123.9095 117.3594,-132 124,-132 128.0466,-132 130.7832,-128.9957 132.2098,-124.446"/>
<polygon fill="#000000" stroke="#000000" points="135.7251,-124.4981 133.3384,-114.1756 128.767,-123.7335 135.7251,-124.4981"/>
<text text-anchor="start" x="111.5" y="-135.8" font-family="arial" font-size="14.00" fill="#377eb8">true</text>
</g>
<!-- st012 -->
<g id="node4" class="node">
<title>st012</title>
<polygon fill="none" stroke="#000000" points="346,-63 218,-63 218,-13 346,-13 346,-63"/>
<text text-anchor="start" x="263" y="-48.8" font-family="arial" font-weight="bold" font-size="14.00" fill="#000000">st012</text>
<text text-anchor="start" x="226" y="-34.8" font-family="arial" font-size="14.00" fill="#984ea3">(Q &amp;&amp; (!R &amp;&amp; !S))</text>
<text text-anchor="start" x="269.5" y="-20.8" font-family="arial" font-size="14.00" fill="#ff7f00">true</text>
</g>
<!-- st0&#45;&gt;st012 -->
<g id="edge4" class="edge">
<title>st0&#45;&gt;st012</title>
<path fill="none" stroke="#000000" d="M157.0466,-79.886C170.4339,-76.0765 186.0067,-71.4956 200,-67 202.6057,-66.1629 205.2535,-65.2989 207.9244,-64.4161"/>
<polygon fill="#000000" stroke="#000000" points="209.2932,-67.6487 217.662,-61.1515 207.0681,-61.0118 209.2932,-67.6487"/>
<text text-anchor="start" x="175" y="-78.8" font-family="arial" font-size="14.00" fill="#377eb8">true</text>
</g>
<!-- _st012 -->
<!-- _st012&#45;&gt;st012 -->
<g id="edge2" class="edge">
<title>_st012&#45;&gt;st012</title>
<path fill="none" stroke="#000000" d="M154.8391,-21.9037C170.0641,-23.8309 189.1482,-26.2466 207.8666,-28.616"/>
<polygon fill="#000000" stroke="#000000" points="207.5387,-32.1024 217.8991,-29.886 208.4178,-25.1578 207.5387,-32.1024"/>
</g>
<!-- st012&#45;&gt;st0 -->
<g id="edge8" class="edge">
<title>st012&#45;&gt;st0</title>
<path fill="none" stroke="#000000" d="M217.7449,-37.9136C203.2986,-39.5473 188.3137,-42.6026 175,-48 168.989,-50.4369 163.1225,-53.8261 157.635,-57.6217"/>
<polygon fill="#000000" stroke="#000000" points="155.2491,-55.0365 149.3575,-63.8422 159.4544,-60.6325 155.2491,-55.0365"/>
<text text-anchor="start" x="180.5" y="-51.8" font-family="arial" font-size="14.00" fill="#377eb8">R&#39;</text>
</g>
<!-- st012&#45;&gt;st012 -->
<g id="edge10" class="edge">
<title>st012&#45;&gt;st012</title>
<path fill="none" stroke="#000000" d="M264.4438,-63.1756C263.6636,-72.9095 269.5156,-81 282,-81 289.8027,-81 295.0147,-77.8397 297.6359,-73.093"/>
<polygon fill="#000000" stroke="#000000" points="301.0913,-73.6586 299.5562,-63.1756 294.219,-72.3279 301.0913,-73.6586"/>
<text text-anchor="start" x="269.5" y="-84.8" font-family="arial" font-size="14.00" fill="#377eb8">true</text>
</g>
<!-- st02 -->
<g id="node5" class="node">
<title>st02</title>
<polygon fill="none" stroke="#000000" points="538,-101 407,-101 407,-51 538,-51 538,-101"/>
<text text-anchor="start" x="457.5" y="-86.8" font-family="arial" font-weight="bold" font-size="14.00" fill="#000000">st02</text>
<text text-anchor="start" x="415" y="-72.8" font-family="arial" font-size="14.00" fill="#984ea3">(!Q &amp;&amp; (!R &amp;&amp; !S))</text>
<text text-anchor="start" x="460" y="-58.8" font-family="arial" font-size="14.00" fill="#ff7f00">true</text>
</g>
<!-- st012&#45;&gt;st02 -->
<g id="edge9" class="edge">
<title>st012&#45;&gt;st02</title>
<path fill="none" stroke="#000000" d="M346.229,-50.8121C362.4196,-54.0417 379.9526,-57.5391 396.6543,-60.8707"/>
<polygon fill="#000000" stroke="#000000" points="396.4351,-64.3958 406.9266,-62.9198 397.8045,-57.5311 396.4351,-64.3958"/>
<text text-anchor="start" x="364" y="-63.8" font-family="arial" font-size="14.00" fill="#377eb8">true</text>
</g>
<!-- st02&#45;&gt;st0 -->
<g id="edge5" class="edge">
<title>st02&#45;&gt;st0</title>
<path fill="none" stroke="#000000" d="M406.6758,-94.0433C387.2865,-98.5532 365.9259,-102.7453 346,-105 289.4719,-111.3965 274.6869,-109.79 218,-105 201.3564,-103.5936 183.2303,-100.8104 167.3757,-97.9541"/>
<polygon fill="#000000" stroke="#000000" points="167.7955,-94.4721 157.3235,-96.0803 166.5127,-101.3536 167.7955,-94.4721"/>
<text text-anchor="start" x="275" y="-112.8" font-family="arial" font-size="14.00" fill="#377eb8">R&#39;</text>
</g>
<!-- st02&#45;&gt;st012 -->
<g id="edge7" class="edge">
<title>st02&#45;&gt;st012</title>
<path fill="none" stroke="#000000" d="M424.62,-50.8179C413.2412,-45.9604 400.9326,-41.5837 389,-39 378.5047,-36.7276 367.2936,-35.4304 356.2251,-34.7838"/>
<polygon fill="#000000" stroke="#000000" points="356.2617,-31.2824 346.1249,-34.3637 355.9708,-38.2764 356.2617,-31.2824"/>
<text text-anchor="start" x="364" y="-42.8" font-family="arial" font-size="14.00" fill="#377eb8">true</text>
</g>
<!-- st02&#45;&gt;st02 -->
<g id="edge6" class="edge">
<title>st02&#45;&gt;st02</title>
<path fill="none" stroke="#000000" d="M454.5703,-101.1756C453.7734,-110.9095 459.75,-119 472.5,-119 480.4688,-119 485.7916,-115.8397 488.4686,-111.093"/>
<polygon fill="#000000" stroke="#000000" points="491.9233,-111.6647 490.4297,-101.1756 485.0562,-110.3067 491.9233,-111.6647"/>
<text text-anchor="start" x="460" y="-122.8" font-family="arial" font-size="14.00" fill="#377eb8">true</text>
</g>
</g>
</svg>
