<?xml version="1.0" encoding="UTF-8" standalone="no"?>
<!DOCTYPE svg PUBLIC "-//W3C//DTD SVG 1.1//EN"
 "http://www.w3.org/Graphics/SVG/1.1/DTD/svg11.dtd">
<!-- Generated by graphviz version 2.40.1 (20161225.0304)
 -->
<!-- Title: G Pages: 1 -->
<svg width="302pt" height="150pt"
 viewBox="0.00 0.00 302.00 150.00" xmlns="http://www.w3.org/2000/svg" xmlns:xlink="http://www.w3.org/1999/xlink">
<g id="graph0" class="graph" transform="scale(1 1) rotate(0) translate(4 146)">
<title>G</title>
<polygon fill="#ffffff" stroke="transparent" points="-4,4 -4,-146 298,-146 298,4 -4,4"/>
<!-- _st0 -->
<!-- st0 -->
<g id="node2" class="node">
<title>st0</title>
<polygon fill="none" stroke="#000000" points="149,-109 95,-109 95,-59 149,-59 149,-109"/>
<text text-anchor="start" x="111" y="-94.8" font-family="arial" font-weight="bold" font-size="14.00" fill="#000000">st0</text>
<text text-anchor="start" x="114" y="-80.8" font-family="arial" font-size="14.00" fill="#984ea3">!Q</text>
<text text-anchor="start" x="109.5" y="-66.8" font-family="arial" font-size="14.00" fill="#ff7f00">true</text>
</g>
<!-- _st0&#45;&gt;st0 -->
<g id="edge1" class="edge">
<title>_st0&#45;&gt;st0</title>
<path fill="none" stroke="#000000" d="M54.2232,-84C63.664,-84 74.4204,-84 84.5398,-84"/>
<polygon fill="#000000" stroke="#000000" points="84.7729,-87.5001 94.7728,-84 84.7728,-80.5001 84.7729,-87.5001"/>
</g>
<!-- st0&#45;&gt;st0 -->
<g id="edge3" class="edge">
<title>st0&#45;&gt;st0</title>
<path fill="none" stroke="#000000" d="M113.0352,-109.1756C112.6367,-118.9095 115.625,-127 122,-127 125.8848,-127 128.5119,-123.9957 129.8814,-119.446"/>
<polygon fill="#000000" stroke="#000000" points="133.3964,-119.4877 130.9648,-109.1756 126.435,-118.7532 133.3964,-119.4877"/>
<text text-anchor="start" x="109.5" y="-130.8" font-family="arial" font-size="14.00" fill="#377eb8">true</text>
</g>
<!-- st01X -->
<g id="node4" class="node">
<title>st01X</title>
<polygon fill="none" stroke="#000000" points="294,-76 229,-76 229,-26 294,-26 294,-76"/>
<text text-anchor="start" x="241.5" y="-61.8" font-family="arial" font-weight="bold" font-size="14.00" fill="#000000">st01X</text>
<text text-anchor="start" x="255.5" y="-47.8" font-family="arial" font-size="14.00" fill="#984ea3">Q</text>
<text text-anchor="start" x="237" y="-33.8" font-family="arial" font-size="14.00" fill="#ff7f00">c0 &lt; 50</text>
</g>
<!-- st0&#45;&gt;st01X -->
<g id="edge4" class="edge">
<title>st0&#45;&gt;st01X</title>
<path fill="none" stroke="#000000" d="M149.055,-79.6873C166.7879,-76.6511 190.4121,-72.2083 211,-67 213.626,-66.3357 216.3163,-65.6124 219.0212,-64.8526"/>
<polygon fill="#000000" stroke="#000000" points="220.1846,-68.1588 228.7918,-61.9809 218.2107,-61.4428 220.1846,-68.1588"/>
<text text-anchor="start" x="178.5" y="-94.8" font-family="arial" font-size="14.00" fill="#377eb8">true</text>
<text text-anchor="start" x="171" y="-79.8" font-family="arial" font-size="14.00" fill="#000000">c0 :=0</text>
</g>
<!-- _st01X -->
<!-- _st01X&#45;&gt;st01X -->
<g id="edge2" class="edge">
<title>_st01X&#45;&gt;st01X</title>
<path fill="none" stroke="#000000" d="M153.2131,-21.3281C170.4327,-23.5578 192.0951,-27.0126 211,-32 213.7597,-32.7281 216.5778,-33.5519 219.4014,-34.4386"/>
<polygon fill="#000000" stroke="#000000" points="218.3514,-37.778 228.9454,-37.6464 220.5816,-31.1428 218.3514,-37.778"/>
</g>
<!-- st01X&#45;&gt;st0 -->
<g id="edge5" class="edge">
<title>st01X&#45;&gt;st0</title>
<path fill="none" stroke="#000000" d="M228.9038,-44.5858C211.3351,-42.4411 189.5232,-41.927 171,-48 166.4141,-49.5035 161.9033,-51.6182 157.5872,-54.0778"/>
<polygon fill="#000000" stroke="#000000" points="155.5912,-51.1995 149.0393,-59.5256 159.3534,-57.1026 155.5912,-51.1995"/>
<text text-anchor="start" x="178.5" y="-51.8" font-family="arial" font-size="14.00" fill="#377eb8">true</text>
</g>
<!-- st01X&#45;&gt;st01X -->
<g id="edge6" class="edge">
<title>st01X&#45;&gt;st01X</title>
<path fill="none" stroke="#000000" d="M248.4263,-76.1756C247.8452,-85.9095 252.2031,-94 261.5,-94 267.3105,-94 271.1918,-90.8397 273.1438,-86.093"/>
<polygon fill="#000000" stroke="#000000" points="276.6107,-86.5728 274.5737,-76.1756 269.6824,-85.5738 276.6107,-86.5728"/>
<text text-anchor="start" x="249" y="-97.8" font-family="arial" font-size="14.00" fill="#377eb8">true</text>
</g>
</g>
</svg>
