<?xml version="1.0" encoding="UTF-8" standalone="no"?>
<!DOCTYPE svg PUBLIC "-//W3C//DTD SVG 1.1//EN"
 "http://www.w3.org/Graphics/SVG/1.1/DTD/svg11.dtd">
<!-- Generated by graphviz version 2.40.1 (20161225.0304)
 -->
<!-- Title: G Pages: 1 -->
<svg width="623pt" height="256pt"
 viewBox="0.00 0.00 623.00 256.00" xmlns="http://www.w3.org/2000/svg" xmlns:xlink="http://www.w3.org/1999/xlink">
<g id="graph0" class="graph" transform="scale(1 1) rotate(0) translate(4 252)">
<title>G</title>
<polygon fill="#ffffff" stroke="transparent" points="-4,4 -4,-252 619,-252 619,4 -4,4"/>
<!-- _stinit -->
<!-- stinit -->
<g id="node2" class="node">
<title>stinit</title>
<polygon fill="none" stroke="#000000" points="176,-215 122,-215 122,-165 176,-165 176,-215"/>
<text text-anchor="start" x="132" y="-200.8" font-family="arial" font-weight="bold" font-size="14.00" fill="#000000">stinit</text>
<text text-anchor="start" x="143" y="-186.8" font-family="arial" font-size="14.00" fill="#984ea3">Q</text>
<text text-anchor="start" x="136.5" y="-172.8" font-family="arial" font-size="14.00" fill="#ff7f00">true</text>
</g>
<!-- _stinit&#45;&gt;stinit -->
<g id="edge1" class="edge">
<title>_stinit&#45;&gt;stinit</title>
<path fill="none" stroke="#000000" d="M54.0758,-190C71.0553,-190 93.1767,-190 111.7924,-190"/>
<polygon fill="#000000" stroke="#000000" points="112,-193.5001 121.9999,-190 111.9999,-186.5001 112,-193.5001"/>
</g>
<!-- stinit&#45;&gt;stinit -->
<g id="edge5" class="edge">
<title>stinit&#45;&gt;stinit</title>
<path fill="none" stroke="#000000" d="M134.8057,-215.1756C134.1748,-224.9095 138.9063,-233 149,-233 155.3086,-233 159.5225,-229.8397 161.6418,-225.093"/>
<polygon fill="#000000" stroke="#000000" points="165.1055,-225.5966 163.1943,-215.1756 158.1898,-224.514 165.1055,-225.5966"/>
<text text-anchor="start" x="136.5" y="-236.8" font-family="arial" font-size="14.00" fill="#377eb8">true</text>
</g>
<!-- st -->
<g id="node7" class="node">
<title>st</title>
<polygon fill="none" stroke="#000000" points="386,-208 332,-208 332,-158 386,-158 386,-208"/>
<text text-anchor="start" x="352.5" y="-193.8" font-family="arial" font-weight="bold" font-size="14.00" fill="#000000">st</text>
<text text-anchor="start" x="346.5" y="-179.8" font-family="arial" font-size="14.00" fill="#984ea3">true</text>
<text text-anchor="start" x="346.5" y="-165.8" font-family="arial" font-size="14.00" fill="#ff7f00">true</text>
</g>
<!-- stinit&#45;&gt;st -->
<g id="edge4" class="edge">
<title>stinit&#45;&gt;st</title>
<path fill="none" stroke="#000000" d="M176.0239,-189.0992C213.0943,-187.8635 279.8715,-185.6376 321.6872,-184.2438"/>
<polygon fill="#000000" stroke="#000000" points="321.8694,-187.7397 331.7472,-183.9084 321.6361,-180.7436 321.8694,-187.7397"/>
<text text-anchor="start" x="238.5" y="-190.8" font-family="arial" font-size="14.00" fill="#377eb8">true</text>
</g>
<!-- _st0 -->
<!-- st0 -->
<g id="node4" class="node">
<title>st0</title>
<polygon fill="none" stroke="#000000" points="207,-114 91,-114 91,-64 207,-64 207,-114"/>
<text text-anchor="start" x="138" y="-99.8" font-family="arial" font-weight="bold" font-size="14.00" fill="#000000">st0</text>
<text text-anchor="start" x="99" y="-85.8" font-family="arial" font-size="14.00" fill="#984ea3">(!Q &amp;&amp; (R || !S))</text>
<text text-anchor="start" x="136.5" y="-71.8" font-family="arial" font-size="14.00" fill="#ff7f00">true</text>
</g>
<!-- _st0&#45;&gt;st0 -->
<g id="edge2" class="edge">
<title>_st0&#45;&gt;st0</title>
<path fill="none" stroke="#000000" d="M54.0758,-89C62.0149,-89 71.0782,-89 80.3816,-89"/>
<polygon fill="#000000" stroke="#000000" points="80.5293,-92.5001 90.5292,-89 80.5292,-85.5001 80.5293,-92.5001"/>
</g>
<!-- st0&#45;&gt;st0 -->
<g id="edge8" class="edge">
<title>st0&#45;&gt;st0</title>
<path fill="none" stroke="#000000" d="M134.8057,-114.1756C134.1748,-123.9095 138.9063,-132 149,-132 155.3086,-132 159.5225,-128.8397 161.6418,-124.093"/>
<polygon fill="#000000" stroke="#000000" points="165.1055,-124.5966 163.1943,-114.1756 158.1898,-123.514 165.1055,-124.5966"/>
<text text-anchor="start" x="136.5" y="-135.8" font-family="arial" font-size="14.00" fill="#377eb8">true</text>
</g>
<!-- st012 -->
<g id="node6" class="node">
<title>st012</title>
<polygon fill="none" stroke="#000000" points="423,-50 295,-50 295,0 423,0 423,-50"/>
<text text-anchor="start" x="340" y="-35.8" font-family="arial" font-weight="bold" font-size="14.00" fill="#000000">st012</text>
<text text-anchor="start" x="303" y="-21.8" font-family="arial" font-size="14.00" fill="#984ea3">(!Q &amp;&amp; (!R &amp;&amp; S))</text>
<text text-anchor="start" x="346.5" y="-7.8" font-family="arial" font-size="14.00" fill="#ff7f00">true</text>
</g>
<!-- st0&#45;&gt;st012 -->
<g id="edge9" class="edge">
<title>st0&#45;&gt;st012</title>
<path fill="none" stroke="#000000" d="M195.6486,-63.9956C205.1763,-59.5462 215.2684,-55.2893 225,-52 244.0403,-45.5643 265.1482,-40.4318 284.8719,-36.4445"/>
<polygon fill="#000000" stroke="#000000" points="285.5888,-39.8707 294.7337,-34.5209 284.2485,-33.0002 285.5888,-39.8707"/>
<text text-anchor="start" x="238.5" y="-55.8" font-family="arial" font-size="14.00" fill="#377eb8">true</text>
</g>
<!-- st0&#45;&gt;st -->
<g id="edge7" class="edge">
<title>st0&#45;&gt;st</title>
<path fill="none" stroke="#000000" d="M193.5621,-114.1731C203.7759,-119.6244 214.6705,-125.1914 225,-130 257.3196,-145.0453 295.1781,-159.763 322.395,-169.8559"/>
<polygon fill="#000000" stroke="#000000" points="321.3173,-173.1888 331.9108,-173.3572 323.7345,-166.6193 321.3173,-173.1888"/>
<text text-anchor="start" x="243.5" y="-154.8" font-family="arial" font-size="14.00" fill="#377eb8">Q&#39;</text>
</g>
<!-- _st012 -->
<!-- _st012&#45;&gt;st012 -->
<g id="edge3" class="edge">
<title>_st012&#45;&gt;st012</title>
<path fill="none" stroke="#000000" d="M179.5358,-19.0179C206.9865,-19.9329 248.427,-21.3142 284.5723,-22.5191"/>
<polygon fill="#000000" stroke="#000000" points="284.4996,-26.0185 294.6107,-22.8537 284.7328,-19.0224 284.4996,-26.0185"/>
</g>
<!-- st012&#45;&gt;st0 -->
<g id="edge13" class="edge">
<title>st012&#45;&gt;st0</title>
<path fill="none" stroke="#000000" d="M315.8082,-50.2098C303.5854,-56.4823 290.0495,-62.6497 277,-67 258.0558,-73.3154 236.9,-77.8942 217.3301,-81.1821"/>
<polygon fill="#000000" stroke="#000000" points="216.5858,-77.7564 207.2609,-82.7861 217.687,-84.6692 216.5858,-77.7564"/>
<text text-anchor="start" x="225" y="-82.8" font-family="arial" font-size="14.00" fill="#377eb8">(Q&#39; || R&#39;)</text>
</g>
<!-- st012&#45;&gt;st012 -->
<g id="edge15" class="edge">
<title>st012&#45;&gt;st012</title>
<path fill="none" stroke="#000000" d="M341.4438,-50.1756C340.6636,-59.9095 346.5156,-68 359,-68 366.8027,-68 372.0147,-64.8397 374.6359,-60.093"/>
<polygon fill="#000000" stroke="#000000" points="378.0913,-60.6586 376.5562,-50.1756 371.219,-59.3279 378.0913,-60.6586"/>
<text text-anchor="start" x="346.5" y="-71.8" font-family="arial" font-size="14.00" fill="#377eb8">true</text>
</g>
<!-- st02 -->
<g id="node8" class="node">
<title>st02</title>
<polygon fill="none" stroke="#000000" points="615,-88 484,-88 484,-38 615,-38 615,-88"/>
<text text-anchor="start" x="534.5" y="-73.8" font-family="arial" font-weight="bold" font-size="14.00" fill="#000000">st02</text>
<text text-anchor="start" x="492" y="-59.8" font-family="arial" font-size="14.00" fill="#984ea3">(!Q &amp;&amp; (!R &amp;&amp; !S))</text>
<text text-anchor="start" x="537" y="-45.8" font-family="arial" font-size="14.00" fill="#ff7f00">true</text>
</g>
<!-- st012&#45;&gt;st02 -->
<g id="edge14" class="edge">
<title>st012&#45;&gt;st02</title>
<path fill="none" stroke="#000000" d="M423.229,-37.8121C439.4196,-41.0417 456.9526,-44.5391 473.6543,-47.8707"/>
<polygon fill="#000000" stroke="#000000" points="473.4351,-51.3958 483.9266,-49.9198 474.8045,-44.5311 473.4351,-51.3958"/>
<text text-anchor="start" x="441" y="-49.8" font-family="arial" font-size="14.00" fill="#377eb8">true</text>
</g>
<!-- st&#45;&gt;st -->
<g id="edge6" class="edge">
<title>st&#45;&gt;st</title>
<path fill="none" stroke="#000000" d="M341.4438,-208.1756C340.6636,-217.9095 346.5156,-226 359,-226 366.8027,-226 372.0147,-222.8397 374.6359,-218.093"/>
<polygon fill="#000000" stroke="#000000" points="378.0913,-218.6586 376.5562,-208.1756 371.219,-217.3279 378.0913,-218.6586"/>
<text text-anchor="start" x="346.5" y="-229.8" font-family="arial" font-size="14.00" fill="#377eb8">true</text>
</g>
<!-- st02&#45;&gt;st0 -->
<g id="edge10" class="edge">
<title>st02&#45;&gt;st0</title>
<path fill="none" stroke="#000000" d="M483.938,-80.4457C464.4605,-84.9714 442.987,-89.3216 423,-92 420.5843,-92.3237 280.925,-101.2998 225,-98 222.4468,-97.8493 219.8478,-97.6705 217.2244,-97.4684"/>
<polygon fill="#000000" stroke="#000000" points="217.2944,-93.9615 207.0296,-96.5853 216.6902,-100.9354 217.2944,-93.9615"/>
<text text-anchor="start" x="333" y="-101.8" font-family="arial" font-size="14.00" fill="#377eb8">(Q&#39; || R&#39;)</text>
</g>
<!-- st02&#45;&gt;st012 -->
<g id="edge12" class="edge">
<title>st02&#45;&gt;st012</title>
<path fill="none" stroke="#000000" d="M501.62,-37.8179C490.2412,-32.9604 477.9326,-28.5837 466,-26 455.5047,-23.7276 444.2936,-22.4304 433.2251,-21.7838"/>
<polygon fill="#000000" stroke="#000000" points="433.2617,-18.2824 423.1249,-21.3637 432.9708,-25.2764 433.2617,-18.2824"/>
<text text-anchor="start" x="441" y="-29.8" font-family="arial" font-size="14.00" fill="#377eb8">true</text>
</g>
<!-- st02&#45;&gt;st02 -->
<g id="edge11" class="edge">
<title>st02&#45;&gt;st02</title>
<path fill="none" stroke="#000000" d="M531.5703,-88.1756C530.7734,-97.9095 536.75,-106 549.5,-106 557.4688,-106 562.7916,-102.8397 565.4686,-98.093"/>
<polygon fill="#000000" stroke="#000000" points="568.9233,-98.6647 567.4297,-88.1756 562.0562,-97.3067 568.9233,-98.6647"/>
<text text-anchor="start" x="537" y="-109.8" font-family="arial" font-size="14.00" fill="#377eb8">true</text>
</g>
</g>
</svg>
