<?xml version="1.0" encoding="UTF-8" standalone="no"?>
<!DOCTYPE svg PUBLIC "-//W3C//DTD SVG 1.1//EN"
 "http://www.w3.org/Graphics/SVG/1.1/DTD/svg11.dtd">
<!-- Generated by graphviz version 2.43.0 (0)
 -->
<!-- Title: G Pages: 1 -->
<svg width="638pt" height="145pt"
 viewBox="0.00 0.00 638.00 145.00" xmlns="http://www.w3.org/2000/svg" xmlns:xlink="http://www.w3.org/1999/xlink">
<g id="graph0" class="graph" transform="scale(1 1) rotate(0) translate(4 141)">
<title>G</title>
<polygon fill="white" stroke="transparent" points="-4,4 -4,-141 634,-141 634,4 -4,4"/>
<!-- _ID_60_ct0_st0 -->
<!-- ID_60_ct0_st0 -->
<g id="node2" class="node">
<title>ID_60_ct0_st0</title>
<polygon fill="none" stroke="black" points="264.5,-104 157.5,-104 157.5,-54 264.5,-54 264.5,-104"/>
<text text-anchor="start" x="165.5" y="-89.8" font-family="arial" font-weight="bold" font-size="14.00">ID_60_ct0_st0</text>
<text text-anchor="start" x="204.5" y="-75.8" font-family="arial" font-size="14.00" fill="#984ea3">!P</text>
<text text-anchor="start" x="199" y="-61.8" font-family="arial" font-size="14.00" fill="#ff7f00">true</text>
</g>
<!-- _ID_60_ct0_st0&#45;&gt;ID_60_ct0_st0 -->
<g id="edge1" class="edge">
<title>_ID_60_ct0_st0&#45;&gt;ID_60_ct0_st0</title>
<path fill="none" stroke="black" d="M111.05,-79C122.71,-79 135.13,-79 147.08,-79"/>
<polygon fill="black" stroke="black" points="147.43,-82.5 157.43,-79 147.43,-75.5 147.43,-82.5"/>
</g>
<!-- ID_60_ct0_st0&#45;&gt;ID_60_ct0_st0 -->
<g id="edge3" class="edge">
<title>ID_60_ct0_st0&#45;&gt;ID_60_ct0_st0</title>
<path fill="none" stroke="black" d="M196.06,-104.18C195.39,-113.91 200.38,-122 211,-122 217.64,-122 222.08,-118.84 224.31,-114.09"/>
<polygon fill="black" stroke="black" points="227.77,-114.61 225.94,-104.18 220.86,-113.47 227.77,-114.61"/>
<text text-anchor="start" x="199" y="-125.8" font-family="arial" font-size="14.00" fill="#377eb8">true</text>
</g>
<!-- ID_60_ct0_st012 -->
<g id="node4" class="node">
<title>ID_60_ct0_st012</title>
<polygon fill="none" stroke="black" points="456,-59 334,-59 334,-9 456,-9 456,-59"/>
<text text-anchor="start" x="342" y="-44.8" font-family="arial" font-weight="bold" font-size="14.00">ID_60_ct0_st012</text>
<text text-anchor="start" x="366" y="-30.8" font-family="arial" font-size="14.00" fill="#984ea3">(P &amp;&amp; !R)</text>
<text text-anchor="start" x="383" y="-16.8" font-family="arial" font-size="14.00" fill="#ff7f00">true</text>
</g>
<!-- ID_60_ct0_st0&#45;&gt;ID_60_ct0_st012 -->
<g id="edge4" class="edge">
<title>ID_60_ct0_st0&#45;&gt;ID_60_ct0_st012</title>
<path fill="none" stroke="black" d="M264.64,-65.98C283.14,-61.41 304.23,-56.2 323.94,-51.32"/>
<polygon fill="black" stroke="black" points="324.92,-54.69 333.79,-48.89 323.24,-47.89 324.92,-54.69"/>
<text text-anchor="start" x="292" y="-63.8" font-family="arial" font-size="14.00" fill="#377eb8">true</text>
</g>
<!-- _ID_60_ct0_st012 -->
<!-- _ID_60_ct0_st012&#45;&gt;ID_60_ct0_st012 -->
<g id="edge2" class="edge">
<title>_ID_60_ct0_st012&#45;&gt;ID_60_ct0_st012</title>
<path fill="none" stroke="black" d="M274.13,-23.46C290.07,-24.86 307.34,-26.38 323.67,-27.82"/>
<polygon fill="black" stroke="black" points="323.43,-31.31 333.69,-28.7 324.04,-24.34 323.43,-31.31"/>
</g>
<!-- ID_60_ct0_st012&#45;&gt;ID_60_ct0_st012 -->
<g id="edge8" class="edge">
<title>ID_60_ct0_st012&#45;&gt;ID_60_ct0_st012</title>
<path fill="none" stroke="black" d="M378.19,-59.18C377.44,-68.91 383.05,-77 395,-77 402.47,-77 407.46,-73.84 409.97,-69.09"/>
<polygon fill="black" stroke="black" points="413.43,-69.65 411.81,-59.18 406.54,-68.37 413.43,-69.65"/>
<text text-anchor="start" x="383" y="-80.8" font-family="arial" font-size="14.00" fill="#377eb8">true</text>
</g>
<!-- ID_60_ct0_st02 -->
<g id="node5" class="node">
<title>ID_60_ct0_st02</title>
<polygon fill="none" stroke="black" points="630,-59 516,-59 516,-9 630,-9 630,-59"/>
<text text-anchor="start" x="524" y="-44.8" font-family="arial" font-weight="bold" font-size="14.00">ID_60_ct0_st02</text>
<text text-anchor="start" x="542.5" y="-30.8" font-family="arial" font-size="14.00" fill="#984ea3">(!P &amp;&amp; !R)</text>
<text text-anchor="start" x="561" y="-16.8" font-family="arial" font-size="14.00" fill="#ff7f00">true</text>
</g>
<!-- ID_60_ct0_st012&#45;&gt;ID_60_ct0_st02 -->
<g id="edge7" class="edge">
<title>ID_60_ct0_st012&#45;&gt;ID_60_ct0_st02</title>
<path fill="none" stroke="black" d="M456.08,-34C471.92,-34 489.12,-34 505.29,-34"/>
<polygon fill="black" stroke="black" points="505.75,-37.5 515.75,-34 505.75,-30.5 505.75,-37.5"/>
<text text-anchor="start" x="474" y="-37.8" font-family="arial" font-size="14.00" fill="#377eb8">true</text>
</g>
<!-- ID_60_ct0_st02&#45;&gt;ID_60_ct0_st012 -->
<g id="edge6" class="edge">
<title>ID_60_ct0_st02&#45;&gt;ID_60_ct0_st012</title>
<path fill="none" stroke="black" d="M515.69,-18.84C509.75,-17.68 503.78,-16.69 498,-16 487.72,-14.77 476.9,-15 466.31,-16.1"/>
<polygon fill="black" stroke="black" points="465.71,-12.65 456.24,-17.4 466.61,-19.59 465.71,-12.65"/>
<text text-anchor="start" x="474" y="-19.8" font-family="arial" font-size="14.00" fill="#377eb8">true</text>
</g>
<!-- ID_60_ct0_st02&#45;&gt;ID_60_ct0_st02 -->
<g id="edge5" class="edge">
<title>ID_60_ct0_st02&#45;&gt;ID_60_ct0_st02</title>
<path fill="none" stroke="black" d="M556.94,-59.18C556.22,-68.91 561.58,-77 573,-77 580.14,-77 584.91,-73.84 587.31,-69.09"/>
<polygon fill="black" stroke="black" points="590.76,-69.63 589.06,-59.18 583.87,-68.41 590.76,-69.63"/>
<text text-anchor="start" x="561" y="-80.8" font-family="arial" font-size="14.00" fill="#377eb8">true</text>
</g>
</g>
</svg>
