<?xml version="1.0" encoding="UTF-8" standalone="no"?>
<!DOCTYPE svg PUBLIC "-//W3C//DTD SVG 1.1//EN"
 "http://www.w3.org/Graphics/SVG/1.1/DTD/svg11.dtd">
<!-- Generated by graphviz version 2.43.0 (0)
 -->
<!-- Title: G Pages: 1 -->
<svg width="1098pt" height="478pt"
 viewBox="0.00 0.00 1098.00 478.00" xmlns="http://www.w3.org/2000/svg" xmlns:xlink="http://www.w3.org/1999/xlink">
<g id="graph0" class="graph" transform="scale(1 1) rotate(0) translate(4 474)">
<title>G</title>
<polygon fill="white" stroke="transparent" points="-4,4 -4,-474 1094,-474 1094,4 -4,4"/>
<!-- _st0 -->
<!-- st0 -->
<g id="node2" class="node">
<title>st0</title>
<polygon fill="none" stroke="black" points="145,-288 91,-288 91,-238 145,-238 145,-288"/>
<text text-anchor="start" x="108" y="-273.8" font-family="arial" font-weight="bold" font-size="14.00">st0</text>
<text text-anchor="start" x="111" y="-259.8" font-family="arial" font-size="14.00" fill="#984ea3">!R</text>
<text text-anchor="start" x="106" y="-245.8" font-family="arial" font-size="14.00" fill="#ff7f00">true</text>
</g>
<!-- _st0&#45;&gt;st0 -->
<g id="edge1" class="edge">
<title>_st0&#45;&gt;st0</title>
<path fill="none" stroke="black" d="M54.22,-263C62.55,-263 71.91,-263 80.82,-263"/>
<polygon fill="black" stroke="black" points="80.97,-266.5 90.97,-263 80.97,-259.5 80.97,-266.5"/>
</g>
<!-- st0&#45;&gt;st0 -->
<g id="edge4" class="edge">
<title>st0&#45;&gt;st0</title>
<path fill="none" stroke="black" d="M109.78,-288.18C109.42,-297.91 112.16,-306 118,-306 121.56,-306 123.97,-303 125.22,-298.45"/>
<polygon fill="black" stroke="black" points="128.74,-298.47 126.22,-288.18 121.77,-297.79 128.74,-298.47"/>
<text text-anchor="start" x="106" y="-309.8" font-family="arial" font-size="14.00" fill="#377eb8">true</text>
</g>
<!-- st01 -->
<g id="node4" class="node">
<title>st01</title>
<polygon fill="none" stroke="black" points="277,-148 205,-148 205,-98 277,-98 277,-148"/>
<text text-anchor="start" x="227" y="-133.8" font-family="arial" font-weight="bold" font-size="14.00">st01</text>
<text text-anchor="start" x="213" y="-119.8" font-family="arial" font-size="14.00" fill="#984ea3">(Q &amp;&amp; R)</text>
<text text-anchor="start" x="229" y="-105.8" font-family="arial" font-size="14.00" fill="#ff7f00">true</text>
</g>
<!-- st0&#45;&gt;st01 -->
<g id="edge5" class="edge">
<title>st0&#45;&gt;st01</title>
<path fill="none" stroke="black" d="M129.83,-237.92C137.62,-221.55 149.17,-200.27 163,-184 172.78,-172.49 185.01,-161.65 196.82,-152.38"/>
<polygon fill="black" stroke="black" points="199.06,-155.07 204.9,-146.23 194.82,-149.5 199.06,-155.07"/>
<text text-anchor="start" x="163" y="-187.8" font-family="arial" font-size="14.00" fill="#377eb8">true</text>
</g>
<!-- st012 -->
<g id="node6" class="node">
<title>st012</title>
<polygon fill="none" stroke="black" points="443,-321 367,-321 367,-271 443,-271 443,-321"/>
<text text-anchor="start" x="387.5" y="-306.8" font-family="arial" font-weight="bold" font-size="14.00">st012</text>
<text text-anchor="start" x="375" y="-292.8" font-family="arial" font-size="14.00" fill="#984ea3">(!Q &amp;&amp; R)</text>
<text text-anchor="start" x="393" y="-278.8" font-family="arial" font-size="14.00" fill="#ff7f00">true</text>
</g>
<!-- st0&#45;&gt;st012 -->
<g id="edge6" class="edge">
<title>st0&#45;&gt;st012</title>
<path fill="none" stroke="black" d="M145.04,-271.47C161.94,-276.58 184.55,-282.73 205,-286 256.38,-294.21 316.08,-296.22 356.58,-296.49"/>
<polygon fill="black" stroke="black" points="356.7,-299.99 366.71,-296.52 356.72,-292.99 356.7,-299.99"/>
<text text-anchor="start" x="229" y="-296.8" font-family="arial" font-size="14.00" fill="#377eb8">true</text>
</g>
<!-- _st01 -->
<!-- _st01&#45;&gt;st01 -->
<g id="edge2" class="edge">
<title>_st01&#45;&gt;st01</title>
<path fill="none" stroke="black" d="M145.26,-123C159.65,-123 177.89,-123 194.52,-123"/>
<polygon fill="black" stroke="black" points="194.61,-126.5 204.61,-123 194.61,-119.5 194.61,-126.5"/>
</g>
<!-- st01&#45;&gt;st012 -->
<g id="edge10" class="edge">
<title>st01&#45;&gt;st012</title>
<path fill="none" stroke="black" d="M277.05,-143.57C282.98,-146.84 289.12,-150.1 295,-153 318.39,-164.55 330.31,-157.81 349,-176 372.88,-199.24 387.38,-234.8 395.45,-261.18"/>
<polygon fill="black" stroke="black" points="392.09,-262.17 398.23,-270.8 398.81,-260.22 392.09,-262.17"/>
<text text-anchor="start" x="310" y="-179.8" font-family="arial" font-size="14.00" fill="#377eb8">true</text>
</g>
<!-- st03 -->
<g id="node7" class="node">
<title>st03</title>
<polygon fill="none" stroke="black" points="728,-201 578,-201 578,-151 728,-151 728,-201"/>
<text text-anchor="start" x="639" y="-186.8" font-family="arial" font-weight="bold" font-size="14.00">st03</text>
<text text-anchor="start" x="623" y="-172.8" font-family="arial" font-size="14.00" fill="#984ea3">(Q &amp;&amp; !R)</text>
<text text-anchor="start" x="586" y="-158.8" font-family="arial" font-size="14.00" fill="#ff7f00">(c0 &lt;= 5 &amp;&amp; c1 &lt;= 10)</text>
</g>
<!-- st01&#45;&gt;st03 -->
<g id="edge7" class="edge">
<title>st01&#45;&gt;st03</title>
<path fill="none" stroke="black" d="M277.31,-127.56C341.37,-135.85 478.36,-153.55 567.75,-165.11"/>
<polygon fill="black" stroke="black" points="567.5,-168.61 577.87,-166.42 568.4,-161.66 567.5,-168.61"/>
<text text-anchor="start" x="393" y="-167.8" font-family="arial" font-size="14.00" fill="#377eb8">true</text>
<text text-anchor="start" x="386" y="-152.8" font-family="arial" font-size="14.00">c1 :=0</text>
</g>
<!-- st02X -->
<g id="node8" class="node">
<title>st02X</title>
<polygon fill="none" stroke="black" points="1090,-329 1010,-329 1010,-279 1090,-279 1090,-329"/>
<text text-anchor="start" x="1031.5" y="-314.8" font-family="arial" font-weight="bold" font-size="14.00">st02X</text>
<text text-anchor="start" x="1018" y="-300.8" font-family="arial" font-size="14.00" fill="#984ea3">(!Q &amp;&amp; !R)</text>
<text text-anchor="start" x="1027" y="-286.8" font-family="arial" font-size="14.00" fill="#ff7f00">c0 &lt;= 5</text>
</g>
<!-- st01&#45;&gt;st02X -->
<g id="edge8" class="edge">
<title>st01&#45;&gt;st02X</title>
<path fill="none" stroke="black" d="M258.89,-97.81C285.26,-61.83 339.91,0 404,0 404,0 404,0 847,0 974.81,0 1026.61,-188.7 1042.84,-268.76"/>
<polygon fill="black" stroke="black" points="1039.46,-269.72 1044.81,-278.86 1046.33,-268.38 1039.46,-269.72"/>
<text text-anchor="start" x="641" y="-18.8" font-family="arial" font-size="14.00" fill="#377eb8">true</text>
<text text-anchor="start" x="634" y="-3.8" font-family="arial" font-size="14.00">c0 :=0</text>
</g>
<!-- st013 -->
<g id="node9" class="node">
<title>st013</title>
<polygon fill="none" stroke="black" points="882,-276 810,-276 810,-226 882,-226 882,-276"/>
<text text-anchor="start" x="828.5" y="-261.8" font-family="arial" font-weight="bold" font-size="14.00">st013</text>
<text text-anchor="start" x="818" y="-247.8" font-family="arial" font-size="14.00" fill="#984ea3">(Q &amp;&amp; R)</text>
<text text-anchor="start" x="819" y="-233.8" font-family="arial" font-size="14.00" fill="#ff7f00">c1 &lt;= 10</text>
</g>
<!-- st01&#45;&gt;st013 -->
<g id="edge9" class="edge">
<title>st01&#45;&gt;st013</title>
<path fill="none" stroke="black" d="M277.43,-113.48C336.31,-98.98 457.92,-74.56 560,-90 667.56,-106.27 717.36,-88.86 792,-168 807,-183.91 798.77,-196.88 808.41,-216.94"/>
<polygon fill="black" stroke="black" points="805.44,-218.8 813.52,-225.66 811.48,-215.26 805.44,-218.8"/>
<text text-anchor="start" x="498.5" y="-108.8" font-family="arial" font-size="14.00" fill="#377eb8">true</text>
<text text-anchor="start" x="491.5" y="-93.8" font-family="arial" font-size="14.00">c1 :=0</text>
</g>
<!-- _st012 -->
<!-- _st012&#45;&gt;st012 -->
<g id="edge3" class="edge">
<title>_st012&#45;&gt;st012</title>
<path fill="none" stroke="black" d="M269.85,-265.36C293.7,-270.81 328.55,-278.77 356.76,-285.21"/>
<polygon fill="black" stroke="black" points="356.29,-288.69 366.81,-287.51 357.85,-281.87 356.29,-288.69"/>
</g>
<!-- st012&#45;&gt;st012 -->
<g id="edge19" class="edge">
<title>st012&#45;&gt;st012</title>
<path fill="none" stroke="black" d="M389.69,-321.18C389,-330.91 394.11,-339 405,-339 411.81,-339 416.35,-335.84 418.64,-331.09"/>
<polygon fill="black" stroke="black" points="422.1,-331.62 420.31,-321.18 415.2,-330.45 422.1,-331.62"/>
<text text-anchor="start" x="393" y="-342.8" font-family="arial" font-size="14.00" fill="#377eb8">true</text>
</g>
<!-- st012&#45;&gt;st03 -->
<g id="edge16" class="edge">
<title>st012&#45;&gt;st03</title>
<path fill="none" stroke="black" d="M416.39,-270.9C425.42,-252.27 440.32,-227.79 461,-214 470.31,-207.79 521.03,-197.85 567.87,-189.69"/>
<polygon fill="black" stroke="black" points="568.53,-193.13 577.78,-187.98 567.34,-186.23 568.53,-193.13"/>
<text text-anchor="start" x="498.5" y="-232.8" font-family="arial" font-size="14.00" fill="#377eb8">true</text>
<text text-anchor="start" x="491.5" y="-217.8" font-family="arial" font-size="14.00">c1 :=0</text>
</g>
<!-- st012&#45;&gt;st02X -->
<g id="edge17" class="edge">
<title>st012&#45;&gt;st02X</title>
<path fill="none" stroke="black" d="M443.29,-317.25C449.11,-320.1 455.14,-322.79 461,-325 511.04,-343.84 524.9,-346.73 578,-353 669.46,-363.79 903.44,-359.29 992,-334 994.77,-333.21 997.56,-332.27 1000.34,-331.23"/>
<polygon fill="black" stroke="black" points="1001.82,-334.4 1009.7,-327.32 999.12,-327.94 1001.82,-334.4"/>
<text text-anchor="start" x="757" y="-376.8" font-family="arial" font-size="14.00" fill="#377eb8">true</text>
<text text-anchor="start" x="750" y="-361.8" font-family="arial" font-size="14.00">c0 :=0</text>
</g>
<!-- st012&#45;&gt;st013 -->
<g id="edge18" class="edge">
<title>st012&#45;&gt;st013</title>
<path fill="none" stroke="black" d="M443.13,-304.46C449.08,-305.51 455.19,-306.42 461,-307 607.75,-321.53 652.39,-331.49 792,-284 794.93,-283 797.87,-281.82 800.78,-280.5"/>
<polygon fill="black" stroke="black" points="802.55,-283.52 809.9,-275.89 799.4,-277.27 802.55,-283.52"/>
<text text-anchor="start" x="641" y="-337.8" font-family="arial" font-size="14.00" fill="#377eb8">true</text>
<text text-anchor="start" x="634" y="-322.8" font-family="arial" font-size="14.00">c1 :=0</text>
</g>
<!-- st03&#45;&gt;st0 -->
<g id="edge20" class="edge">
<title>st03&#45;&gt;st0</title>
<path fill="none" stroke="black" d="M577.81,-179.75C488.29,-185.53 333.74,-199.58 205,-232 188.21,-236.23 170.11,-242.48 154.87,-248.27"/>
<polygon fill="black" stroke="black" points="153.36,-245.1 145.31,-251.98 155.89,-251.62 153.36,-245.1"/>
<text text-anchor="start" x="295" y="-215.8" font-family="arial" font-size="14.00" fill="#377eb8">c1 &gt;= 10</text>
</g>
<!-- st03&#45;&gt;st01 -->
<g id="edge22" class="edge">
<title>st03&#45;&gt;st01</title>
<path fill="none" stroke="black" d="M577.78,-153.87C571.77,-152.18 565.79,-150.54 560,-149 508.33,-135.24 496.1,-127.27 443,-121 409.45,-117.04 400.78,-120.73 367,-121 340.53,-121.21 310.91,-121.68 287.15,-122.1"/>
<polygon fill="black" stroke="black" points="286.95,-118.61 277.02,-122.29 287.08,-125.61 286.95,-118.61"/>
<text text-anchor="start" x="378" y="-124.8" font-family="arial" font-size="14.00" fill="#377eb8">c1 &gt;= 10</text>
</g>
<!-- st03&#45;&gt;st012 -->
<g id="edge24" class="edge">
<title>st03&#45;&gt;st012</title>
<path fill="none" stroke="black" d="M624.51,-201.01C607.16,-215.55 583.62,-233.1 560,-244 518.99,-262.93 503.33,-251.22 461,-267 458.16,-268.06 455.28,-269.23 452.4,-270.49"/>
<polygon fill="black" stroke="black" points="450.88,-267.34 443.28,-274.72 453.83,-273.69 450.88,-267.34"/>
<text text-anchor="start" x="464.5" y="-270.8" font-family="arial" font-size="14.00" fill="#377eb8">(Q&#39; || c1 &gt;= 10)</text>
</g>
<!-- st03&#45;&gt;st03 -->
<g id="edge21" class="edge">
<title>st03&#45;&gt;st03</title>
<path fill="none" stroke="black" d="M631.33,-201.18C630.37,-210.91 637.59,-219 653,-219 662.63,-219 669.06,-215.84 672.3,-211.09"/>
<polygon fill="black" stroke="black" points="675.75,-211.72 674.67,-201.18 668.94,-210.09 675.75,-211.72"/>
<text text-anchor="start" x="630" y="-222.8" font-family="arial" font-size="14.00" fill="#377eb8">c1 &lt; 10</text>
</g>
<!-- st03&#45;&gt;st013 -->
<g id="edge23" class="edge">
<title>st03&#45;&gt;st013</title>
<path fill="none" stroke="black" d="M706.61,-201.18C719.39,-206.97 733.09,-212.92 746,-218 763.47,-224.88 783.03,-231.6 800.11,-237.16"/>
<polygon fill="black" stroke="black" points="799.26,-240.56 809.85,-240.29 801.41,-233.9 799.26,-240.56"/>
<text text-anchor="start" x="746" y="-237.8" font-family="arial" font-size="14.00" fill="#377eb8">c1 &lt; 10</text>
</g>
<!-- st02X&#45;&gt;st0 -->
<g id="edge11" class="edge">
<title>st02X&#45;&gt;st0</title>
<path fill="none" stroke="black" d="M1040.22,-329.3C1031.3,-351.56 1015.43,-383.41 992,-403 939.48,-446.91 915.46,-455 847,-455 240,-455 240,-455 240,-455 166.71,-455 136.04,-353.63 124.75,-298.21"/>
<polygon fill="black" stroke="black" points="128.13,-297.26 122.81,-288.1 121.26,-298.58 128.13,-297.26"/>
<text text-anchor="start" x="461" y="-458.8" font-family="arial" font-size="14.00" fill="#377eb8">(!Q&#39; &amp;&amp; c0 &gt;= 5)</text>
</g>
<!-- st02X&#45;&gt;st012 -->
<g id="edge15" class="edge">
<title>st02X&#45;&gt;st012</title>
<path fill="none" stroke="black" d="M1036.77,-329.11C1027.11,-346.01 1011.93,-367.12 992,-378 913.7,-420.74 881.13,-391.22 792,-395 645.02,-401.24 587.86,-467.5 461,-393 438.27,-379.65 424.16,-353.07 415.93,-331.1"/>
<polygon fill="black" stroke="black" points="419.15,-329.69 412.56,-321.39 412.54,-331.99 419.15,-329.69"/>
<text text-anchor="start" x="757" y="-401.8" font-family="arial" font-size="14.00" fill="#377eb8">true</text>
</g>
<!-- st02X&#45;&gt;st03 -->
<g id="edge12" class="edge">
<title>st02X&#45;&gt;st03</title>
<path fill="none" stroke="black" d="M1033.57,-279C1023.3,-264.03 1008.67,-245.55 992,-233 949.66,-201.13 932.59,-202.76 882,-187 823.73,-168.84 806.97,-165.35 746,-168 743.48,-168.11 740.92,-168.24 738.33,-168.38"/>
<polygon fill="black" stroke="black" points="738.05,-164.89 728.28,-168.98 738.47,-171.87 738.05,-164.89"/>
<text text-anchor="start" x="834" y="-205.8" font-family="arial" font-size="14.00" fill="#377eb8">true</text>
<text text-anchor="start" x="827" y="-190.8" font-family="arial" font-size="14.00">c1 :=0</text>
</g>
<!-- st02X&#45;&gt;st02X -->
<g id="edge13" class="edge">
<title>st02X&#45;&gt;st02X</title>
<path fill="none" stroke="black" d="M1030.58,-329.18C1029.71,-338.91 1036.19,-347 1050,-347 1058.63,-347 1064.4,-343.84 1067.3,-339.09"/>
<polygon fill="black" stroke="black" points="1070.75,-339.69 1069.42,-329.18 1063.91,-338.22 1070.75,-339.69"/>
<text text-anchor="start" x="1031" y="-350.8" font-family="arial" font-size="14.00" fill="#377eb8">c0 &lt; 5</text>
</g>
<!-- st02X&#45;&gt;st013 -->
<g id="edge14" class="edge">
<title>st02X&#45;&gt;st013</title>
<path fill="none" stroke="black" d="M1009.75,-302.29C979.12,-300 935.89,-294.61 900,-282 897.08,-280.97 894.13,-279.78 891.22,-278.47"/>
<polygon fill="black" stroke="black" points="892.54,-275.22 882.02,-273.96 889.46,-281.51 892.54,-275.22"/>
<text text-anchor="start" x="934" y="-318.8" font-family="arial" font-size="14.00" fill="#377eb8">true</text>
<text text-anchor="start" x="927" y="-303.8" font-family="arial" font-size="14.00">c1 :=0</text>
</g>
<!-- st013&#45;&gt;st012 -->
<g id="edge28" class="edge">
<title>st013&#45;&gt;st012</title>
<path fill="none" stroke="black" d="M809.92,-255.02C756.16,-261.13 650.14,-273 560,-282 524.28,-285.57 483.85,-289.23 453.38,-291.91"/>
<polygon fill="black" stroke="black" points="452.7,-288.46 443.05,-292.82 453.31,-295.43 452.7,-288.46"/>
<text text-anchor="start" x="607" y="-282.8" font-family="arial" font-size="14.00" fill="#377eb8">(Q&#39; || c1 &gt;= 10)</text>
</g>
<!-- st013&#45;&gt;st03 -->
<g id="edge25" class="edge">
<title>st013&#45;&gt;st03</title>
<path fill="none" stroke="black" d="M832.17,-225.77C823.12,-210.83 809.5,-193.1 792,-184 775.74,-175.54 756.91,-171.42 738.48,-169.8"/>
<polygon fill="black" stroke="black" points="738.5,-166.29 728.3,-169.14 738.05,-173.28 738.5,-166.29"/>
<text text-anchor="start" x="757" y="-202.8" font-family="arial" font-size="14.00" fill="#377eb8">true</text>
<text text-anchor="start" x="750" y="-187.8" font-family="arial" font-size="14.00">c1 :=0</text>
</g>
<!-- st013&#45;&gt;st02X -->
<g id="edge26" class="edge">
<title>st013&#45;&gt;st02X</title>
<path fill="none" stroke="black" d="M882.11,-242.69C912.39,-237.26 956.69,-233.56 992,-248 1004.16,-252.97 1015.12,-261.93 1024.11,-271.24"/>
<polygon fill="black" stroke="black" points="1021.57,-273.65 1030.88,-278.71 1026.76,-268.95 1021.57,-273.65"/>
<text text-anchor="start" x="900" y="-266.8" font-family="arial" font-size="14.00" fill="#377eb8">(Q&#39; || c1 &gt;= 10)</text>
<text text-anchor="start" x="927" y="-251.8" font-family="arial" font-size="14.00">c0 :=0</text>
</g>
<!-- st013&#45;&gt;st013 -->
<g id="edge27" class="edge">
<title>st013&#45;&gt;st013</title>
<path fill="none" stroke="black" d="M831.81,-276.18C831.17,-285.91 835.91,-294 846,-294 852.31,-294 856.52,-290.84 858.64,-286.09"/>
<polygon fill="black" stroke="black" points="862.11,-286.6 860.19,-276.18 855.19,-285.51 862.11,-286.6"/>
<text text-anchor="start" x="834" y="-312.8" font-family="arial" font-size="14.00" fill="#377eb8">true</text>
<text text-anchor="start" x="827" y="-297.8" font-family="arial" font-size="14.00">c1 :=0</text>
</g>
</g>
</svg>
