<?xml version="1.0" encoding="UTF-8" standalone="no"?>
<!DOCTYPE svg PUBLIC "-//W3C//DTD SVG 1.1//EN"
 "http://www.w3.org/Graphics/SVG/1.1/DTD/svg11.dtd">
<!-- Generated by graphviz version 2.43.0 (0)
 -->
<!-- Title: G Pages: 1 -->
<svg width="1133pt" height="452pt"
 viewBox="0.00 0.00 1133.00 452.00" xmlns="http://www.w3.org/2000/svg" xmlns:xlink="http://www.w3.org/1999/xlink">
<g id="graph0" class="graph" transform="scale(1 1) rotate(0) translate(4 448)">
<title>G</title>
<polygon fill="white" stroke="transparent" points="-4,4 -4,-448 1129,-448 1129,4 -4,4"/>
<!-- _st0 -->
<!-- st0 -->
<g id="node2" class="node">
<title>st0</title>
<polygon fill="none" stroke="black" points="147.5,-296 93.5,-296 93.5,-246 147.5,-246 147.5,-296"/>
<text text-anchor="start" x="110.5" y="-281.8" font-family="arial" font-weight="bold" font-size="14.00">st0</text>
<text text-anchor="start" x="113.5" y="-267.8" font-family="arial" font-size="14.00" fill="#984ea3">!R</text>
<text text-anchor="start" x="108.5" y="-253.8" font-family="arial" font-size="14.00" fill="#ff7f00">true</text>
</g>
<!-- _st0&#45;&gt;st0 -->
<g id="edge1" class="edge">
<title>_st0&#45;&gt;st0</title>
<path fill="none" stroke="black" d="M54.47,-271C63.46,-271 73.67,-271 83.29,-271"/>
<polygon fill="black" stroke="black" points="83.41,-274.5 93.41,-271 83.41,-267.5 83.41,-274.5"/>
</g>
<!-- st0&#45;&gt;st0 -->
<g id="edge3" class="edge">
<title>st0&#45;&gt;st0</title>
<path fill="none" stroke="black" d="M111.54,-296.18C111.14,-305.91 114.12,-314 120.5,-314 124.38,-314 127.01,-311 128.38,-306.45"/>
<polygon fill="black" stroke="black" points="131.9,-306.49 129.46,-296.18 124.94,-305.75 131.9,-306.49"/>
<text text-anchor="start" x="108.5" y="-317.8" font-family="arial" font-size="14.00" fill="#377eb8">true</text>
</g>
<!-- st01X -->
<g id="node4" class="node">
<title>st01X</title>
<polygon fill="none" stroke="black" points="324,-217 262,-217 262,-167 324,-167 324,-217"/>
<text text-anchor="start" x="274.5" y="-202.8" font-family="arial" font-weight="bold" font-size="14.00">st01X</text>
<text text-anchor="start" x="288" y="-188.8" font-family="arial" font-size="14.00" fill="#984ea3">R</text>
<text text-anchor="start" x="270" y="-174.8" font-family="arial" font-size="14.00" fill="#ff7f00">c0 &lt;= 5</text>
</g>
<!-- st0&#45;&gt;st01X -->
<g id="edge4" class="edge">
<title>st0&#45;&gt;st01X</title>
<path fill="none" stroke="black" d="M132.31,-245.72C140.02,-230.97 151.88,-213.45 168,-204 193.09,-189.29 226.04,-186.72 251.66,-187.6"/>
<polygon fill="black" stroke="black" points="251.63,-191.1 261.8,-188.14 252,-184.11 251.63,-191.1"/>
<text text-anchor="start" x="194" y="-222.8" font-family="arial" font-size="14.00" fill="#377eb8">true</text>
<text text-anchor="start" x="187" y="-207.8" font-family="arial" font-size="14.00">c0 :=0</text>
</g>
<!-- _st01X -->
<!-- _st01X&#45;&gt;st01X -->
<g id="edge2" class="edge">
<title>_st01X&#45;&gt;st01X</title>
<path fill="none" stroke="black" d="M139.42,-36.29C168.08,-65.54 224.6,-123.22 260.22,-159.57"/>
<polygon fill="black" stroke="black" points="257.99,-162.3 267.49,-166.99 262.99,-157.4 257.99,-162.3"/>
</g>
<!-- st01X&#45;&gt;st0 -->
<g id="edge5" class="edge">
<title>st01X&#45;&gt;st0</title>
<path fill="none" stroke="black" d="M267.38,-217.08C260.29,-223.27 252.23,-229.44 244,-234 229.07,-242.27 187.94,-253.94 157.44,-261.95"/>
<polygon fill="black" stroke="black" points="156.35,-258.62 147.55,-264.52 158.11,-265.39 156.35,-258.62"/>
<text text-anchor="start" x="168" y="-261.8" font-family="arial" font-size="14.00" fill="#377eb8">(Q&#39; || c0 &lt; 5)</text>
</g>
<!-- st01X&#45;&gt;st01X -->
<g id="edge7" class="edge">
<title>st01X&#45;&gt;st01X</title>
<path fill="none" stroke="black" d="M279.55,-217.18C278.96,-226.91 283.44,-235 293,-235 298.98,-235 302.97,-231.84 304.98,-227.09"/>
<polygon fill="black" stroke="black" points="308.44,-227.58 306.45,-217.18 301.52,-226.55 308.44,-227.58"/>
<text text-anchor="start" x="274" y="-238.8" font-family="arial" font-size="14.00" fill="#377eb8">c0 &lt; 5</text>
</g>
<!-- st02W -->
<g id="node5" class="node">
<title>st02W</title>
<polygon fill="none" stroke="black" points="893,-256 813,-256 813,-206 893,-206 893,-256"/>
<text text-anchor="start" x="832.5" y="-241.8" font-family="arial" font-weight="bold" font-size="14.00">st02W</text>
<text text-anchor="start" x="821" y="-227.8" font-family="arial" font-size="14.00" fill="#984ea3">(!Q &amp;&amp; !R)</text>
<text text-anchor="start" x="826" y="-213.8" font-family="arial" font-size="14.00" fill="#ff7f00">c1 &lt;= 10</text>
</g>
<!-- st01X&#45;&gt;st02W -->
<g id="edge6" class="edge">
<title>st01X&#45;&gt;st02W</title>
<path fill="none" stroke="black" d="M324.1,-173.38C329.9,-170.28 336.03,-167.32 342,-165 409.21,-138.84 428.35,-136.28 500,-128 604.78,-115.9 772.12,-153.47 795,-166 808.8,-173.56 820.85,-185.82 830.28,-197.67"/>
<polygon fill="black" stroke="black" points="827.55,-199.88 836.37,-205.75 833.14,-195.66 827.55,-199.88"/>
<text text-anchor="start" x="500" y="-146.8" font-family="arial" font-size="14.00" fill="#377eb8">c0 &gt;= 5</text>
<text text-anchor="start" x="504" y="-131.8" font-family="arial" font-size="14.00">c1 :=0</text>
</g>
<!-- st01 -->
<g id="node6" class="node">
<title>st01</title>
<polygon fill="none" stroke="black" points="643.5,-330 571.5,-330 571.5,-280 643.5,-280 643.5,-330"/>
<text text-anchor="start" x="593.5" y="-315.8" font-family="arial" font-weight="bold" font-size="14.00">st01</text>
<text text-anchor="start" x="579.5" y="-301.8" font-family="arial" font-size="14.00" fill="#984ea3">(Q &amp;&amp; R)</text>
<text text-anchor="start" x="595.5" y="-287.8" font-family="arial" font-size="14.00" fill="#ff7f00">true</text>
</g>
<!-- st01X&#45;&gt;st01 -->
<g id="edge8" class="edge">
<title>st01X&#45;&gt;st01</title>
<path fill="none" stroke="black" d="M324.2,-194.29C383.27,-199.29 511.35,-212.89 546,-239 560.29,-249.77 552.34,-261.43 564,-275 564.14,-275.16 564.28,-275.32 564.42,-275.49"/>
<polygon fill="black" stroke="black" points="561.85,-277.86 571.4,-282.45 566.79,-272.91 561.85,-277.86"/>
<text text-anchor="start" x="421" y="-218.8" font-family="arial" font-size="14.00" fill="#377eb8">c0 &gt;= 5</text>
</g>
<!-- st012W -->
<g id="node7" class="node">
<title>st012W</title>
<polygon fill="none" stroke="black" points="482,-357 406,-357 406,-307 482,-307 482,-357"/>
<text text-anchor="start" x="419.5" y="-342.8" font-family="arial" font-weight="bold" font-size="14.00">st012W</text>
<text text-anchor="start" x="414" y="-328.8" font-family="arial" font-size="14.00" fill="#984ea3">(!Q &amp;&amp; R)</text>
<text text-anchor="start" x="417" y="-314.8" font-family="arial" font-size="14.00" fill="#ff7f00">c1 &lt;= 10</text>
</g>
<!-- st01X&#45;&gt;st012W -->
<g id="edge9" class="edge">
<title>st01X&#45;&gt;st012W</title>
<path fill="none" stroke="black" d="M324.2,-206.53C351.19,-219.54 386.69,-236.78 388,-238 405.86,-254.58 419.68,-278.3 429,-297.76"/>
<polygon fill="black" stroke="black" points="425.85,-299.3 433.21,-306.92 432.21,-296.37 425.85,-299.3"/>
<text text-anchor="start" x="342" y="-256.8" font-family="arial" font-size="14.00" fill="#377eb8">c0 &gt;= 5</text>
<text text-anchor="start" x="346" y="-241.8" font-family="arial" font-size="14.00">c1 :=0</text>
</g>
<!-- st02W&#45;&gt;st0 -->
<g id="edge14" class="edge">
<title>st02W&#45;&gt;st0</title>
<path fill="none" stroke="black" d="M842.29,-205.68C832.93,-184.06 816.96,-153.32 795,-133 727.46,-70.48 700.54,-43 608.5,-43 292,-43 292,-43 292,-43 196.76,-43 148.3,-172.18 130.15,-236.07"/>
<polygon fill="black" stroke="black" points="126.77,-235.16 127.5,-245.73 133.52,-237.01 126.77,-235.16"/>
<text text-anchor="start" x="436.5" y="-46.8" font-family="arial" font-size="14.00" fill="#377eb8">Q&#39;</text>
</g>
<!-- st02W&#45;&gt;st01X -->
<g id="edge16" class="edge">
<title>st02W&#45;&gt;st01X</title>
<path fill="none" stroke="black" d="M812.59,-223.32C754.52,-212.43 642.4,-193.05 546,-186 525.61,-184.51 520.44,-185.7 500,-186 442.41,-186.84 375.78,-189 334.27,-190.48"/>
<polygon fill="black" stroke="black" points="333.88,-186.99 324.02,-190.85 334.14,-193.99 333.88,-186.99"/>
<text text-anchor="start" x="515.5" y="-204.8" font-family="arial" font-size="14.00" fill="#377eb8">Q&#39;</text>
<text text-anchor="start" x="504" y="-189.8" font-family="arial" font-size="14.00">c0 :=0</text>
</g>
<!-- st02W&#45;&gt;st02W -->
<g id="edge15" class="edge">
<title>st02W&#45;&gt;st02W</title>
<path fill="none" stroke="black" d="M838.06,-256.18C837.39,-265.91 842.38,-274 853,-274 859.64,-274 864.08,-270.84 866.31,-266.09"/>
<polygon fill="black" stroke="black" points="869.77,-266.61 867.94,-256.18 862.86,-265.47 869.77,-266.61"/>
<text text-anchor="start" x="830" y="-277.8" font-family="arial" font-size="14.00" fill="#377eb8">c1 &lt; 10</text>
</g>
<!-- st01X2W -->
<g id="node8" class="node">
<title>st01X2W</title>
<polygon fill="none" stroke="black" points="1125,-330 975,-330 975,-280 1125,-280 1125,-330"/>
<text text-anchor="start" x="1021" y="-315.8" font-family="arial" font-weight="bold" font-size="14.00">st01X2W</text>
<text text-anchor="start" x="1020" y="-301.8" font-family="arial" font-size="14.00" fill="#984ea3">(!Q &amp;&amp; R)</text>
<text text-anchor="start" x="983" y="-287.8" font-family="arial" font-size="14.00" fill="#ff7f00">(c0 &lt;= 5 &amp;&amp; c1 &lt;= 10)</text>
</g>
<!-- st02W&#45;&gt;st01X2W -->
<g id="edge17" class="edge">
<title>st02W&#45;&gt;st01X2W</title>
<path fill="none" stroke="black" d="M893.14,-247.79C899.1,-250.26 905.2,-252.73 911,-255 929.47,-262.23 949.47,-269.69 968.36,-276.56"/>
<polygon fill="black" stroke="black" points="967.23,-279.88 977.83,-280 969.62,-273.3 967.23,-279.88"/>
<text text-anchor="start" x="911" y="-290.8" font-family="arial" font-size="14.00" fill="#377eb8">c1 &lt; 10</text>
<text text-anchor="start" x="915" y="-275.8" font-family="arial" font-size="14.00">c0 :=0</text>
</g>
<!-- st01&#45;&gt;st0 -->
<g id="edge10" class="edge">
<title>st01&#45;&gt;st0</title>
<path fill="none" stroke="black" d="M571.38,-299.2C563.08,-297.99 554.24,-296.83 546,-296 378.61,-279.16 335.7,-289.44 168,-276 164.68,-275.73 161.23,-275.42 157.78,-275.09"/>
<polygon fill="black" stroke="black" points="157.85,-271.58 147.55,-274.05 157.14,-278.55 157.85,-271.58"/>
<text text-anchor="start" x="357.5" y="-288.8" font-family="arial" font-size="14.00" fill="#377eb8">Q&#39;</text>
</g>
<!-- st01&#45;&gt;st02W -->
<g id="edge11" class="edge">
<title>st01&#45;&gt;st02W</title>
<path fill="none" stroke="black" d="M643.6,-289.72C651.83,-286.52 660.64,-283.4 669,-281 723.72,-265.32 740.81,-275.44 795,-258 797.88,-257.07 800.8,-256.03 803.72,-254.91"/>
<polygon fill="black" stroke="black" points="805.06,-258.14 812.99,-251.11 802.41,-251.67 805.06,-258.14"/>
<text text-anchor="start" x="720" y="-299.8" font-family="arial" font-size="14.00" fill="#377eb8">true</text>
<text text-anchor="start" x="713" y="-284.8" font-family="arial" font-size="14.00">c1 :=0</text>
</g>
<!-- st01&#45;&gt;st01 -->
<g id="edge12" class="edge">
<title>st01&#45;&gt;st01</title>
<path fill="none" stroke="black" d="M591.81,-330.18C591.11,-339.91 596.34,-348 607.5,-348 614.47,-348 619.13,-344.84 621.47,-340.09"/>
<polygon fill="black" stroke="black" points="624.93,-340.63 623.19,-330.18 618.03,-339.43 624.93,-340.63"/>
<text text-anchor="start" x="595.5" y="-351.8" font-family="arial" font-size="14.00" fill="#377eb8">true</text>
</g>
<!-- st01&#45;&gt;st012W -->
<g id="edge13" class="edge">
<title>st01&#45;&gt;st012W</title>
<path fill="none" stroke="black" d="M571.33,-317.51C563.11,-320.02 554.32,-322.39 546,-324 528.7,-327.36 509.47,-329.31 492.47,-330.45"/>
<polygon fill="black" stroke="black" points="491.98,-326.97 482.21,-331.05 492.4,-333.96 491.98,-326.97"/>
<text text-anchor="start" x="511" y="-347.8" font-family="arial" font-size="14.00" fill="#377eb8">true</text>
<text text-anchor="start" x="504" y="-332.8" font-family="arial" font-size="14.00">c1 :=0</text>
</g>
<!-- st012W&#45;&gt;st0 -->
<g id="edge24" class="edge">
<title>st012W&#45;&gt;st0</title>
<path fill="none" stroke="black" d="M405.61,-334.11C351.4,-335.87 248.64,-334.29 168,-304 164.04,-302.51 160.1,-300.6 156.3,-298.45"/>
<polygon fill="black" stroke="black" points="158.03,-295.4 147.69,-293.08 154.32,-301.34 158.03,-295.4"/>
<text text-anchor="start" x="285.5" y="-336.8" font-family="arial" font-size="14.00" fill="#377eb8">Q&#39;</text>
</g>
<!-- st012W&#45;&gt;st02W -->
<g id="edge25" class="edge">
<title>st012W&#45;&gt;st02W</title>
<path fill="none" stroke="black" d="M475.14,-306.77C497.98,-289.21 530.99,-267.04 564,-256 644.38,-229.13 744.02,-226.83 802.55,-228.38"/>
<polygon fill="black" stroke="black" points="802.53,-231.88 812.63,-228.69 802.75,-224.88 802.53,-231.88"/>
<text text-anchor="start" x="584.5" y="-259.8" font-family="arial" font-size="14.00" fill="#377eb8">c1 &lt; 10</text>
</g>
<!-- st012W&#45;&gt;st01 -->
<g id="edge26" class="edge">
<title>st012W&#45;&gt;st01</title>
<path fill="none" stroke="black" d="M482.02,-311.03C487.88,-308.54 493.99,-306.4 500,-305 519.6,-300.45 541.79,-299.77 560.82,-300.49"/>
<polygon fill="black" stroke="black" points="560.86,-303.99 571.03,-301.02 561.22,-297 560.86,-303.99"/>
<text text-anchor="start" x="511" y="-308.8" font-family="arial" font-size="14.00" fill="#377eb8">true</text>
</g>
<!-- st012W&#45;&gt;st012W -->
<g id="edge27" class="edge">
<title>st012W&#45;&gt;st012W</title>
<path fill="none" stroke="black" d="M429.43,-357.18C428.78,-366.91 433.64,-375 444,-375 450.47,-375 454.8,-371.84 456.97,-367.09"/>
<polygon fill="black" stroke="black" points="460.44,-367.6 458.57,-357.18 453.53,-366.49 460.44,-367.6"/>
<text text-anchor="start" x="421" y="-378.8" font-family="arial" font-size="14.00" fill="#377eb8">c1 &lt; 10</text>
</g>
<!-- st01X2W&#45;&gt;st0 -->
<g id="edge18" class="edge">
<title>st01X2W&#45;&gt;st0</title>
<path fill="none" stroke="black" d="M1027.84,-330.09C994.77,-366.33 927.02,-429 854,-429 292,-429 292,-429 292,-429 219.55,-429 164.86,-351.29 138.66,-304.87"/>
<polygon fill="black" stroke="black" points="141.68,-303.11 133.8,-296.04 135.55,-306.48 141.68,-303.11"/>
<text text-anchor="start" x="515.5" y="-432.8" font-family="arial" font-size="14.00" fill="#377eb8">Q&#39;</text>
</g>
<!-- st01X2W&#45;&gt;st01X -->
<g id="edge20" class="edge">
<title>st01X2W&#45;&gt;st01X</title>
<path fill="none" stroke="black" d="M1040.09,-279.8C1018.15,-222.82 955.8,-89 854,-89 443,-89 443,-89 443,-89 392.91,-89 347.48,-128.87 320.29,-159"/>
<polygon fill="black" stroke="black" points="317.41,-156.98 313.45,-166.8 322.67,-161.59 317.41,-156.98"/>
<text text-anchor="start" x="564" y="-92.8" font-family="arial" font-size="14.00" fill="#377eb8">(Q&#39; &amp;&amp; c0 &lt; 5)</text>
</g>
<!-- st01X2W&#45;&gt;st02W -->
<g id="edge19" class="edge">
<title>st01X2W&#45;&gt;st02W</title>
<path fill="none" stroke="black" d="M1024.14,-279.8C1006.91,-264.11 982.54,-245.21 957,-236 940.26,-229.97 921,-227.86 903.69,-227.55"/>
<polygon fill="black" stroke="black" points="903.2,-224.05 893.21,-227.57 903.22,-231.05 903.2,-224.05"/>
<text text-anchor="start" x="911" y="-239.8" font-family="arial" font-size="14.00" fill="#377eb8">c1 &lt; 10</text>
</g>
<!-- st01X2W&#45;&gt;st01 -->
<g id="edge22" class="edge">
<title>st01X2W&#45;&gt;st01</title>
<path fill="none" stroke="black" d="M974.68,-309.03C898.04,-312.52 775.1,-316.25 669,-311 664.12,-310.76 659.02,-310.41 653.95,-310"/>
<polygon fill="black" stroke="black" points="653.92,-306.48 643.65,-309.08 653.3,-313.45 653.92,-306.48"/>
<text text-anchor="start" x="830" y="-316.8" font-family="arial" font-size="14.00" fill="#377eb8">c0 &gt;= 5</text>
</g>
<!-- st01X2W&#45;&gt;st012W -->
<g id="edge23" class="edge">
<title>st01X2W&#45;&gt;st012W</title>
<path fill="none" stroke="black" d="M974.96,-324.9C880.12,-348.16 710.48,-382.25 564,-372 535.35,-370 527.21,-372.21 500,-363 497.08,-362.01 494.14,-360.87 491.22,-359.61"/>
<polygon fill="black" stroke="black" points="492.54,-356.37 482,-355.29 489.57,-362.7 492.54,-356.37"/>
<text text-anchor="start" x="669" y="-375.8" font-family="arial" font-size="14.00" fill="#377eb8">(c0 &gt;= 5 &amp;&amp; c1 &lt; 10)</text>
</g>
<!-- st01X2W&#45;&gt;st01X2W -->
<g id="edge21" class="edge">
<title>st01X2W&#45;&gt;st01X2W</title>
<path fill="none" stroke="black" d="M1028.71,-330.18C1027.76,-339.91 1034.86,-348 1050,-348 1059.46,-348 1065.78,-344.84 1068.96,-340.09"/>
<polygon fill="black" stroke="black" points="1072.41,-340.71 1071.29,-330.18 1065.6,-339.11 1072.41,-340.71"/>
<text text-anchor="start" x="991" y="-351.8" font-family="arial" font-size="14.00" fill="#377eb8">(c0 &lt; 5 &amp;&amp; c1 &lt; 10)</text>
</g>
</g>
</svg>
