<?xml version="1.0" encoding="UTF-8" standalone="no"?>
<!DOCTYPE svg PUBLIC "-//W3C//DTD SVG 1.1//EN"
 "http://www.w3.org/Graphics/SVG/1.1/DTD/svg11.dtd">
<!-- Generated by graphviz version 2.43.0 (0)
 -->
<!-- Title: G Pages: 1 -->
<svg width="1209pt" height="435pt"
 viewBox="0.00 0.00 1209.00 435.00" xmlns="http://www.w3.org/2000/svg" xmlns:xlink="http://www.w3.org/1999/xlink">
<g id="graph0" class="graph" transform="scale(1 1) rotate(0) translate(4 431)">
<title>G</title>
<polygon fill="white" stroke="transparent" points="-4,4 -4,-431 1205,-431 1205,4 -4,4"/>
<!-- _st0 -->
<!-- st0 -->
<g id="node2" class="node">
<title>st0</title>
<polygon fill="none" stroke="black" points="145,-333 91,-333 91,-283 145,-283 145,-333"/>
<text text-anchor="start" x="108" y="-318.8" font-family="arial" font-weight="bold" font-size="14.00">st0</text>
<text text-anchor="start" x="111" y="-304.8" font-family="arial" font-size="14.00" fill="#984ea3">!R</text>
<text text-anchor="start" x="106" y="-290.8" font-family="arial" font-size="14.00" fill="#ff7f00">true</text>
</g>
<!-- _st0&#45;&gt;st0 -->
<g id="edge1" class="edge">
<title>_st0&#45;&gt;st0</title>
<path fill="none" stroke="black" d="M54.22,-308C62.55,-308 71.91,-308 80.82,-308"/>
<polygon fill="black" stroke="black" points="80.97,-311.5 90.97,-308 80.97,-304.5 80.97,-311.5"/>
</g>
<!-- st0&#45;&gt;st0 -->
<g id="edge4" class="edge">
<title>st0&#45;&gt;st0</title>
<path fill="none" stroke="black" d="M109.78,-333.18C109.42,-342.91 112.16,-351 118,-351 121.56,-351 123.97,-348 125.22,-343.45"/>
<polygon fill="black" stroke="black" points="128.74,-343.47 126.22,-333.18 121.77,-342.79 128.74,-343.47"/>
<text text-anchor="start" x="106" y="-354.8" font-family="arial" font-size="14.00" fill="#377eb8">true</text>
</g>
<!-- st01 -->
<g id="node4" class="node">
<title>st01</title>
<polygon fill="none" stroke="black" points="290.5,-260 218.5,-260 218.5,-210 290.5,-210 290.5,-260"/>
<text text-anchor="start" x="240.5" y="-245.8" font-family="arial" font-weight="bold" font-size="14.00">st01</text>
<text text-anchor="start" x="226.5" y="-231.8" font-family="arial" font-size="14.00" fill="#984ea3">(Q &amp;&amp; R)</text>
<text text-anchor="start" x="242.5" y="-217.8" font-family="arial" font-size="14.00" fill="#ff7f00">true</text>
</g>
<!-- st0&#45;&gt;st01 -->
<g id="edge5" class="edge">
<title>st0&#45;&gt;st01</title>
<path fill="none" stroke="black" d="M132.57,-282.82C140.05,-271.34 150.38,-258.64 163,-251 176.42,-242.88 192.88,-238.64 208.07,-236.49"/>
<polygon fill="black" stroke="black" points="208.78,-239.93 218.32,-235.32 207.99,-232.98 208.78,-239.93"/>
<text text-anchor="start" x="163" y="-254.8" font-family="arial" font-size="14.00" fill="#377eb8">true</text>
</g>
<!-- st012 -->
<g id="node6" class="node">
<title>st012</title>
<polygon fill="none" stroke="black" points="1201,-226 1125,-226 1125,-176 1201,-176 1201,-226"/>
<text text-anchor="start" x="1145.5" y="-211.8" font-family="arial" font-weight="bold" font-size="14.00">st012</text>
<text text-anchor="start" x="1133" y="-197.8" font-family="arial" font-size="14.00" fill="#984ea3">(!Q &amp;&amp; R)</text>
<text text-anchor="start" x="1151" y="-183.8" font-family="arial" font-size="14.00" fill="#ff7f00">true</text>
</g>
<!-- st0&#45;&gt;st012 -->
<g id="edge6" class="edge">
<title>st0&#45;&gt;st012</title>
<path fill="none" stroke="black" d="M135.75,-333.18C158.46,-363.95 202.14,-412 253.5,-412 253.5,-412 253.5,-412 923,-412 1009.15,-412 1045.13,-410.96 1107,-351 1138.68,-320.3 1152.22,-269.85 1157.94,-236.04"/>
<polygon fill="black" stroke="black" points="1161.4,-236.54 1159.47,-226.12 1154.49,-235.47 1161.4,-236.54"/>
<text text-anchor="start" x="575" y="-415.8" font-family="arial" font-size="14.00" fill="#377eb8">true</text>
</g>
<!-- _st01 -->
<!-- _st01&#45;&gt;st01 -->
<g id="edge2" class="edge">
<title>_st01&#45;&gt;st01</title>
<path fill="none" stroke="black" d="M130.24,-36.13C152.78,-72.49 203.81,-154.83 232.64,-201.35"/>
<polygon fill="black" stroke="black" points="229.69,-203.22 237.93,-209.88 235.64,-199.54 229.69,-203.22"/>
</g>
<!-- st01&#45;&gt;st0 -->
<g id="edge7" class="edge">
<title>st01&#45;&gt;st0</title>
<path fill="none" stroke="black" d="M218.4,-254.05C198.64,-264.77 174.04,-278.13 154.25,-288.87"/>
<polygon fill="black" stroke="black" points="152.37,-285.91 145.25,-293.75 155.71,-292.06 152.37,-285.91"/>
<text text-anchor="start" x="167.5" y="-285.8" font-family="arial" font-size="14.00" fill="#377eb8">Q&#39;</text>
</g>
<!-- st01&#45;&gt;st01 -->
<g id="edge9" class="edge">
<title>st01&#45;&gt;st01</title>
<path fill="none" stroke="black" d="M239.93,-260.18C239.28,-269.91 244.14,-278 254.5,-278 260.97,-278 265.3,-274.84 267.47,-270.09"/>
<polygon fill="black" stroke="black" points="270.94,-270.6 269.07,-260.18 264.03,-269.49 270.94,-270.6"/>
<text text-anchor="start" x="242.5" y="-281.8" font-family="arial" font-size="14.00" fill="#377eb8">true</text>
</g>
<!-- st01&#45;&gt;st012 -->
<g id="edge10" class="edge">
<title>st01&#45;&gt;st012</title>
<path fill="none" stroke="black" d="M290.82,-217.4C295.73,-213.81 300.34,-209.68 304,-205 320.11,-184.41 304,-167.96 322,-149 426.12,-39.29 500.89,-80.53 651,-62 852.14,-37.17 945.91,57.99 1107,-65 1138.46,-89.02 1152,-134.01 1157.77,-165.65"/>
<polygon fill="black" stroke="black" points="1154.37,-166.52 1159.45,-175.81 1161.28,-165.38 1154.37,-166.52"/>
<text text-anchor="start" x="675" y="-65.8" font-family="arial" font-size="14.00" fill="#377eb8">true</text>
</g>
<!-- st02X -->
<g id="node7" class="node">
<title>st02X</title>
<polygon fill="none" stroke="black" points="523,-162 443,-162 443,-112 523,-112 523,-162"/>
<text text-anchor="start" x="464.5" y="-147.8" font-family="arial" font-weight="bold" font-size="14.00">st02X</text>
<text text-anchor="start" x="451" y="-133.8" font-family="arial" font-size="14.00" fill="#984ea3">(!Q &amp;&amp; !R)</text>
<text text-anchor="start" x="460" y="-119.8" font-family="arial" font-size="14.00" fill="#ff7f00">c0 &lt;= 5</text>
</g>
<!-- st01&#45;&gt;st02X -->
<g id="edge8" class="edge">
<title>st01&#45;&gt;st02X</title>
<path fill="none" stroke="black" d="M289.69,-209.94C299.78,-203.23 311.06,-196.35 322,-191 357.8,-173.49 400.69,-159.35 433.05,-149.93"/>
<polygon fill="black" stroke="black" points="434.09,-153.28 442.74,-147.17 432.16,-146.55 434.09,-153.28"/>
<text text-anchor="start" x="361.5" y="-209.8" font-family="arial" font-size="14.00" fill="#377eb8">true</text>
<text text-anchor="start" x="354.5" y="-194.8" font-family="arial" font-size="14.00">c0 :=0</text>
</g>
<!-- _st012 -->
<!-- _st012&#45;&gt;st012 -->
<g id="edge3" class="edge">
<title>_st012&#45;&gt;st012</title>
<path fill="none" stroke="black" d="M950.53,-246.92C986.58,-240.16 1051.72,-227.59 1107,-215 1109.61,-214.41 1112.29,-213.78 1114.99,-213.13"/>
<polygon fill="black" stroke="black" points="1115.9,-216.52 1124.78,-210.75 1114.24,-209.71 1115.9,-216.52"/>
</g>
<!-- st012&#45;&gt;st012 -->
<g id="edge19" class="edge">
<title>st012&#45;&gt;st012</title>
<path fill="none" stroke="black" d="M1143.95,-226.18C1143.1,-235.91 1149.45,-244 1163,-244 1171.47,-244 1177.12,-240.84 1179.97,-236.09"/>
<polygon fill="black" stroke="black" points="1183.42,-236.68 1182.05,-226.18 1176.57,-235.24 1183.42,-236.68"/>
<text text-anchor="start" x="1151" y="-247.8" font-family="arial" font-size="14.00" fill="#377eb8">true</text>
</g>
<!-- st012&#45;&gt;st02X -->
<g id="edge17" class="edge">
<title>st012&#45;&gt;st02X</title>
<path fill="none" stroke="black" d="M1153.23,-175.72C1144.74,-155.27 1129.77,-127.55 1107,-113 969.31,-25 903.45,-60.34 741,-78 667.4,-86 584.23,-107.44 532.95,-122.14"/>
<polygon fill="black" stroke="black" points="531.76,-118.84 523.13,-124.99 533.71,-125.57 531.76,-118.84"/>
<text text-anchor="start" x="773" y="-96.8" font-family="arial" font-size="14.00" fill="#377eb8">true</text>
<text text-anchor="start" x="766" y="-81.8" font-family="arial" font-size="14.00">c0 :=0</text>
</g>
<!-- st03 -->
<g id="node8" class="node">
<title>st03</title>
<polygon fill="none" stroke="black" points="997,-338 847,-338 847,-288 997,-288 997,-338"/>
<text text-anchor="start" x="908" y="-323.8" font-family="arial" font-weight="bold" font-size="14.00">st03</text>
<text text-anchor="start" x="892" y="-309.8" font-family="arial" font-size="14.00" fill="#984ea3">(Q &amp;&amp; !R)</text>
<text text-anchor="start" x="855" y="-295.8" font-family="arial" font-size="14.00" fill="#ff7f00">(c0 &lt;= 5 &amp;&amp; c1 &lt;= 10)</text>
</g>
<!-- st012&#45;&gt;st03 -->
<g id="edge16" class="edge">
<title>st012&#45;&gt;st03</title>
<path fill="none" stroke="black" d="M1153.74,-226.05C1145.42,-247.06 1130.42,-275.97 1107,-291 1077.8,-309.74 1040.55,-316.6 1007.21,-318.25"/>
<polygon fill="black" stroke="black" points="1006.88,-314.76 997.01,-318.61 1007.12,-321.76 1006.88,-314.76"/>
<text text-anchor="start" x="1049" y="-335.8" font-family="arial" font-size="14.00" fill="#377eb8">true</text>
<text text-anchor="start" x="1042" y="-320.8" font-family="arial" font-size="14.00">c1 :=0</text>
</g>
<!-- st013 -->
<g id="node9" class="node">
<title>st013</title>
<polygon fill="none" stroke="black" points="723,-191 651,-191 651,-141 723,-141 723,-191"/>
<text text-anchor="start" x="669.5" y="-176.8" font-family="arial" font-weight="bold" font-size="14.00">st013</text>
<text text-anchor="start" x="659" y="-162.8" font-family="arial" font-size="14.00" fill="#984ea3">(Q &amp;&amp; R)</text>
<text text-anchor="start" x="660" y="-148.8" font-family="arial" font-size="14.00" fill="#ff7f00">c1 &lt;= 10</text>
</g>
<!-- st012&#45;&gt;st013 -->
<g id="edge18" class="edge">
<title>st012&#45;&gt;st013</title>
<path fill="none" stroke="black" d="M1124.77,-185.66C1091.83,-172.97 1042.12,-155.94 997,-149 904.13,-134.71 793.95,-147.88 733.44,-157.66"/>
<polygon fill="black" stroke="black" points="732.74,-154.23 723.45,-159.31 733.89,-161.13 732.74,-154.23"/>
<text text-anchor="start" x="910" y="-167.8" font-family="arial" font-size="14.00" fill="#377eb8">true</text>
<text text-anchor="start" x="903" y="-152.8" font-family="arial" font-size="14.00">c1 :=0</text>
</g>
<!-- st02X&#45;&gt;st0 -->
<g id="edge11" class="edge">
<title>st02X&#45;&gt;st0</title>
<path fill="none" stroke="black" d="M442.99,-134.4C385.79,-132.54 278.05,-136.66 205,-186 172.78,-207.76 148.79,-245.92 134.44,-273.78"/>
<polygon fill="black" stroke="black" points="131.28,-272.29 129.95,-282.8 137.55,-275.41 131.28,-272.29"/>
<text text-anchor="start" x="205" y="-189.8" font-family="arial" font-size="14.00" fill="#377eb8">(!Q&#39; &amp;&amp; c0 &gt;= 5)</text>
</g>
<!-- st02X&#45;&gt;st012 -->
<g id="edge15" class="edge">
<title>st02X&#45;&gt;st012</title>
<path fill="none" stroke="black" d="M523.13,-129.21C529.09,-128.3 535.19,-127.51 541,-127 581.73,-123.45 592.11,-126.9 633,-127 843.89,-127.54 914.78,-62.23 1107,-149 1117.27,-153.64 1126.83,-161 1135.01,-168.75"/>
<polygon fill="black" stroke="black" points="1132.58,-171.27 1142.1,-175.9 1137.54,-166.33 1132.58,-171.27"/>
<text text-anchor="start" x="773" y="-125.8" font-family="arial" font-size="14.00" fill="#377eb8">true</text>
</g>
<!-- st02X&#45;&gt;st02X -->
<g id="edge13" class="edge">
<title>st02X&#45;&gt;st02X</title>
<path fill="none" stroke="black" d="M463.58,-162.18C462.71,-171.91 469.19,-180 483,-180 491.63,-180 497.4,-176.84 500.3,-172.09"/>
<polygon fill="black" stroke="black" points="503.75,-172.69 502.42,-162.18 496.91,-171.22 503.75,-172.69"/>
<text text-anchor="start" x="464" y="-183.8" font-family="arial" font-size="14.00" fill="#377eb8">c0 &lt; 5</text>
</g>
<!-- st02X&#45;&gt;st03 -->
<g id="edge12" class="edge">
<title>st02X&#45;&gt;st03</title>
<path fill="none" stroke="black" d="M498.17,-162.03C508.24,-177.67 523.11,-197.04 541,-209 589.19,-241.22 740.15,-276.37 836.67,-296.44"/>
<polygon fill="black" stroke="black" points="836.21,-299.92 846.71,-298.51 837.62,-293.06 836.21,-299.92"/>
<text text-anchor="start" x="675" y="-287.8" font-family="arial" font-size="14.00" fill="#377eb8">true</text>
<text text-anchor="start" x="668" y="-272.8" font-family="arial" font-size="14.00">c1 :=0</text>
</g>
<!-- st02X&#45;&gt;st013 -->
<g id="edge14" class="edge">
<title>st02X&#45;&gt;st013</title>
<path fill="none" stroke="black" d="M523.23,-132.24C553.65,-129.75 596.62,-128.85 633,-138 635.79,-138.7 638.6,-139.58 641.38,-140.59"/>
<polygon fill="black" stroke="black" points="640.15,-143.86 650.73,-144.44 642.81,-137.39 640.15,-143.86"/>
<text text-anchor="start" x="575" y="-156.8" font-family="arial" font-size="14.00" fill="#377eb8">true</text>
<text text-anchor="start" x="568" y="-141.8" font-family="arial" font-size="14.00">c1 :=0</text>
</g>
<!-- st03&#45;&gt;st0 -->
<g id="edge20" class="edge">
<title>st03&#45;&gt;st0</title>
<path fill="none" stroke="black" d="M853.71,-338.05C807.72,-352.96 745,-369 688,-369 253.5,-369 253.5,-369 253.5,-369 217.1,-369 179.72,-350.24 153.63,-333.53"/>
<polygon fill="black" stroke="black" points="155.5,-330.58 145.23,-327.97 151.64,-336.41 155.5,-330.58"/>
<text text-anchor="start" x="456" y="-372.8" font-family="arial" font-size="14.00" fill="#377eb8">c1 &gt;= 10</text>
</g>
<!-- st03&#45;&gt;st01 -->
<g id="edge22" class="edge">
<title>st03&#45;&gt;st01</title>
<path fill="none" stroke="black" d="M846.66,-312.5C732.39,-310.3 507.38,-300.25 322,-257 314.92,-255.35 307.51,-253.27 300.33,-251.05"/>
<polygon fill="black" stroke="black" points="301.3,-247.68 290.71,-247.96 299.16,-254.35 301.3,-247.68"/>
<text text-anchor="start" x="560" y="-304.8" font-family="arial" font-size="14.00" fill="#377eb8">c1 &gt;= 10</text>
</g>
<!-- st03&#45;&gt;st012 -->
<g id="edge24" class="edge">
<title>st03&#45;&gt;st012</title>
<path fill="none" stroke="black" d="M977.72,-287.91C989.93,-282.51 1002.85,-276.95 1015,-272 1055.37,-255.56 1068.2,-257.86 1107,-238 1110.8,-236.05 1114.66,-233.89 1118.47,-231.62"/>
<polygon fill="black" stroke="black" points="1120.61,-234.42 1127.26,-226.17 1116.91,-228.47 1120.61,-234.42"/>
<text text-anchor="start" x="1015" y="-275.8" font-family="arial" font-size="14.00" fill="#377eb8">(Q&#39; || c1 &gt;= 10)</text>
</g>
<!-- st03&#45;&gt;st03 -->
<g id="edge21" class="edge">
<title>st03&#45;&gt;st03</title>
<path fill="none" stroke="black" d="M896.6,-338.18C895.47,-347.91 903.94,-356 922,-356 933.29,-356 940.83,-352.84 944.62,-348.09"/>
<polygon fill="black" stroke="black" points="948.07,-348.75 947.4,-338.18 941.33,-346.86 948.07,-348.75"/>
<text text-anchor="start" x="899" y="-359.8" font-family="arial" font-size="14.00" fill="#377eb8">c1 &lt; 10</text>
</g>
<!-- st03&#45;&gt;st013 -->
<g id="edge23" class="edge">
<title>st03&#45;&gt;st013</title>
<path fill="none" stroke="black" d="M856.22,-287.86C852.86,-285.18 849.74,-282.24 847,-279 827.34,-255.81 850.61,-234.39 829,-213 800.26,-184.57 779.11,-203.5 741,-190 738.14,-188.99 735.22,-187.88 732.3,-186.72"/>
<polygon fill="black" stroke="black" points="733.59,-183.46 723.01,-182.86 730.9,-189.93 733.59,-183.46"/>
<text text-anchor="start" x="762" y="-216.8" font-family="arial" font-size="14.00" fill="#377eb8">c1 &lt; 10</text>
</g>
<!-- st013&#45;&gt;st0 -->
<g id="edge25" class="edge">
<title>st013&#45;&gt;st0</title>
<path fill="none" stroke="black" d="M674.35,-191.18C667.14,-207.25 657.97,-228.63 651,-248 641.44,-274.6 655.64,-292.08 633,-309 557.85,-365.18 259.36,-328.39 155.14,-313.46"/>
<polygon fill="black" stroke="black" points="155.5,-309.98 145.11,-312 154.5,-316.9 155.5,-309.98"/>
<text text-anchor="start" x="322" y="-341.8" font-family="arial" font-size="14.00" fill="#377eb8">(Q&#39; &amp;&amp; c1 &gt;= 10)</text>
</g>
<!-- st013&#45;&gt;st01 -->
<g id="edge28" class="edge">
<title>st013&#45;&gt;st01</title>
<path fill="none" stroke="black" d="M661.37,-191.19C653.05,-198.18 643.25,-204.96 633,-209 520.12,-253.46 373.66,-247.3 300.8,-240.42"/>
<polygon fill="black" stroke="black" points="300.9,-236.92 290.6,-239.41 300.21,-243.88 300.9,-236.92"/>
<text text-anchor="start" x="456" y="-247.8" font-family="arial" font-size="14.00" fill="#377eb8">c1 &gt;= 10</text>
</g>
<!-- st013&#45;&gt;st012 -->
<g id="edge30" class="edge">
<title>st013&#45;&gt;st012</title>
<path fill="none" stroke="black" d="M723.04,-168.99C755.25,-171.7 804.33,-175.77 847,-179 941.82,-186.19 1052.77,-193.74 1114.45,-197.86"/>
<polygon fill="black" stroke="black" points="1114.44,-201.36 1124.65,-198.54 1114.91,-194.38 1114.44,-201.36"/>
<text text-anchor="start" x="876" y="-192.8" font-family="arial" font-size="14.00" fill="#377eb8">(Q&#39; || c1 &gt;= 10)</text>
</g>
<!-- st013&#45;&gt;st02X -->
<g id="edge27" class="edge">
<title>st013&#45;&gt;st02X</title>
<path fill="none" stroke="black" d="M650.83,-171.53C621.09,-175.02 577.6,-177.31 541,-168 538.19,-167.28 535.36,-166.4 532.55,-165.38"/>
<polygon fill="black" stroke="black" points="533.71,-162.08 523.13,-161.5 531.04,-168.55 533.71,-162.08"/>
<text text-anchor="start" x="541" y="-193.8" font-family="arial" font-size="14.00" fill="#377eb8">(Q&#39; || c1 &gt;= 10)</text>
<text text-anchor="start" x="568" y="-178.8" font-family="arial" font-size="14.00">c0 :=0</text>
</g>
<!-- st013&#45;&gt;st03 -->
<g id="edge26" class="edge">
<title>st013&#45;&gt;st03</title>
<path fill="none" stroke="black" d="M703.87,-191.02C713.22,-203.84 726.12,-218.68 741,-228 775.26,-249.46 796.28,-227.26 829,-251 840.98,-259.69 835.83,-269.3 847,-279 848.17,-280.01 849.37,-281 850.6,-281.97"/>
<polygon fill="black" stroke="black" points="848.94,-285.08 859.12,-287.99 852.98,-279.36 848.94,-285.08"/>
<text text-anchor="start" x="741" y="-254.8" font-family="arial" font-size="14.00" fill="#377eb8">(c1 &lt; 10 || !Q&#39;)</text>
</g>
<!-- st013&#45;&gt;st013 -->
<g id="edge29" class="edge">
<title>st013&#45;&gt;st013</title>
<path fill="none" stroke="black" d="M668.7,-191.18C667.88,-200.91 673.98,-209 687,-209 695.13,-209 700.57,-205.84 703.3,-201.09"/>
<polygon fill="black" stroke="black" points="706.76,-201.67 705.3,-191.18 699.89,-200.29 706.76,-201.67"/>
<text text-anchor="start" x="664" y="-212.8" font-family="arial" font-size="14.00" fill="#377eb8">c1 &lt; 10</text>
</g>
</g>
</svg>
