<?xml version="1.0" encoding="UTF-8" standalone="no"?>
<!DOCTYPE svg PUBLIC "-//W3C//DTD SVG 1.1//EN"
 "http://www.w3.org/Graphics/SVG/1.1/DTD/svg11.dtd">
<!-- Generated by graphviz version 2.43.0 (0)
 -->
<!-- Title: G Pages: 1 -->
<svg width="298pt" height="150pt"
 viewBox="0.00 0.00 298.00 150.00" xmlns="http://www.w3.org/2000/svg" xmlns:xlink="http://www.w3.org/1999/xlink">
<g id="graph0" class="graph" transform="scale(1 1) rotate(0) translate(4 146)">
<title>G</title>
<polygon fill="white" stroke="transparent" points="-4,4 -4,-146 294,-146 294,4 -4,4"/>
<!-- _st0 -->
<!-- st0 -->
<g id="node2" class="node">
<title>st0</title>
<polygon fill="none" stroke="black" points="145,-109 91,-109 91,-59 145,-59 145,-109"/>
<text text-anchor="start" x="108" y="-94.8" font-family="arial" font-weight="bold" font-size="14.00">st0</text>
<text text-anchor="start" x="113" y="-80.8" font-family="arial" font-size="14.00" fill="#984ea3">R</text>
<text text-anchor="start" x="106" y="-66.8" font-family="arial" font-size="14.00" fill="#ff7f00">true</text>
</g>
<!-- _st0&#45;&gt;st0 -->
<g id="edge1" class="edge">
<title>_st0&#45;&gt;st0</title>
<path fill="none" stroke="black" d="M54.22,-84C62.55,-84 71.91,-84 80.82,-84"/>
<polygon fill="black" stroke="black" points="80.97,-87.5 90.97,-84 80.97,-80.5 80.97,-87.5"/>
</g>
<!-- st0&#45;&gt;st0 -->
<g id="edge3" class="edge">
<title>st0&#45;&gt;st0</title>
<path fill="none" stroke="black" d="M109.78,-109.18C109.42,-118.91 112.16,-127 118,-127 121.56,-127 123.97,-124 125.22,-119.45"/>
<polygon fill="black" stroke="black" points="128.74,-119.47 126.22,-109.18 121.77,-118.79 128.74,-119.47"/>
<text text-anchor="start" x="106" y="-130.8" font-family="arial" font-size="14.00" fill="#377eb8">true</text>
</g>
<!-- st01 -->
<g id="node4" class="node">
<title>st01</title>
<polygon fill="none" stroke="black" points="290,-76 236,-76 236,-26 290,-26 290,-76"/>
<text text-anchor="start" x="249" y="-61.8" font-family="arial" font-weight="bold" font-size="14.00">st01</text>
<text text-anchor="start" x="256" y="-47.8" font-family="arial" font-size="14.00" fill="#984ea3">!R</text>
<text text-anchor="start" x="251" y="-33.8" font-family="arial" font-size="14.00" fill="#ff7f00">true</text>
</g>
<!-- st0&#45;&gt;st01 -->
<g id="edge4" class="edge">
<title>st0&#45;&gt;st01</title>
<path fill="none" stroke="black" d="M145.33,-80.78C165.44,-78.02 193.73,-73.44 218,-67 220.63,-66.3 223.33,-65.51 226.04,-64.66"/>
<polygon fill="black" stroke="black" points="227.35,-67.92 235.72,-61.42 225.13,-61.28 227.35,-67.92"/>
<text text-anchor="start" x="178.5" y="-81.8" font-family="arial" font-size="14.00" fill="#377eb8">true</text>
</g>
<!-- _st01 -->
<!-- _st01&#45;&gt;st01 -->
<g id="edge2" class="edge">
<title>_st01&#45;&gt;st01</title>
<path fill="none" stroke="black" d="M145.03,-19.77C165.23,-21.6 193.77,-25.19 218,-32 220.78,-32.78 223.61,-33.7 226.43,-34.7"/>
<polygon fill="black" stroke="black" points="225.3,-38.02 235.89,-38.37 227.83,-31.49 225.3,-38.02"/>
</g>
<!-- st01&#45;&gt;st0 -->
<g id="edge5" class="edge">
<title>st01&#45;&gt;st0</title>
<path fill="none" stroke="black" d="M235.97,-45.14C215.52,-41.72 186.64,-39.56 163,-48 159.44,-49.27 155.97,-50.96 152.63,-52.93"/>
<polygon fill="black" stroke="black" points="150.48,-50.15 144.14,-58.64 154.39,-55.96 150.48,-50.15"/>
<text text-anchor="start" x="163" y="-51.8" font-family="arial" font-size="14.00" fill="#377eb8">(Q&#39; || !R&#39;)</text>
</g>
<!-- st01&#45;&gt;st01 -->
<g id="edge6" class="edge">
<title>st01&#45;&gt;st01</title>
<path fill="none" stroke="black" d="M249.55,-76.18C248.96,-85.91 253.44,-94 263,-94 268.98,-94 272.97,-90.84 274.98,-86.09"/>
<polygon fill="black" stroke="black" points="278.44,-86.58 276.45,-76.18 271.52,-85.55 278.44,-86.58"/>
<text text-anchor="start" x="251" y="-97.8" font-family="arial" font-size="14.00" fill="#377eb8">true</text>
</g>
</g>
</svg>
