<?xml version="1.0" encoding="UTF-8" standalone="no"?>
<!DOCTYPE svg PUBLIC "-//W3C//DTD SVG 1.1//EN"
 "http://www.w3.org/Graphics/SVG/1.1/DTD/svg11.dtd">
<!-- Generated by graphviz version 2.40.1 (20161225.0304)
 -->
<!-- Title: G Pages: 1 -->
<svg width="2056pt" height="567pt"
 viewBox="0.00 0.00 2056.00 567.00" xmlns="http://www.w3.org/2000/svg" xmlns:xlink="http://www.w3.org/1999/xlink">
<g id="graph0" class="graph" transform="scale(1 1) rotate(0) translate(4 563)">
<title>G</title>
<polygon fill="#ffffff" stroke="transparent" points="-4,4 -4,-563 2052,-563 2052,4 -4,4"/>
<!-- _st0 -->
<!-- st0 -->
<g id="node2" class="node">
<title>st0</title>
<polygon fill="none" stroke="#000000" points="157,-325 91,-325 91,-275 157,-275 157,-325"/>
<text text-anchor="start" x="113" y="-310.8" font-family="arial" font-weight="bold" font-size="14.00" fill="#000000">st0</text>
<text text-anchor="start" x="99" y="-296.8" font-family="arial" font-size="14.00" fill="#984ea3">(R || !Q)</text>
<text text-anchor="start" x="111.5" y="-282.8" font-family="arial" font-size="14.00" fill="#ff7f00">true</text>
</g>
<!-- _st0&#45;&gt;st0 -->
<g id="edge1" class="edge">
<title>_st0&#45;&gt;st0</title>
<path fill="none" stroke="#000000" d="M54.0199,-300C62.3287,-300 71.6915,-300 80.8018,-300"/>
<polygon fill="#000000" stroke="#000000" points="80.9106,-303.5001 90.9106,-300 80.9105,-296.5001 80.9106,-303.5001"/>
</g>
<!-- st0&#45;&gt;st0 -->
<g id="edge4" class="edge">
<title>st0&#45;&gt;st0</title>
<path fill="none" stroke="#000000" d="M114.6616,-325.1756C114.2466,-334.9095 117.3594,-343 124,-343 128.0466,-343 130.7832,-339.9957 132.2098,-335.446"/>
<polygon fill="#000000" stroke="#000000" points="135.7251,-335.4981 133.3384,-325.1756 128.767,-334.7335 135.7251,-335.4981"/>
<text text-anchor="start" x="111.5" y="-346.8" font-family="arial" font-size="14.00" fill="#377eb8">true</text>
</g>
<!-- st012 -->
<g id="node4" class="node">
<title>st012</title>
<polygon fill="none" stroke="#000000" points="346,-210 218,-210 218,-160 346,-160 346,-210"/>
<text text-anchor="start" x="263" y="-195.8" font-family="arial" font-weight="bold" font-size="14.00" fill="#000000">st012</text>
<text text-anchor="start" x="226" y="-181.8" font-family="arial" font-size="14.00" fill="#984ea3">(Q &amp;&amp; (!R &amp;&amp; !S))</text>
<text text-anchor="start" x="269.5" y="-167.8" font-family="arial" font-size="14.00" fill="#ff7f00">true</text>
</g>
<!-- st0&#45;&gt;st012 -->
<g id="edge5" class="edge">
<title>st0&#45;&gt;st012</title>
<path fill="none" stroke="#000000" d="M147.3366,-274.8935C155.6831,-266.532 165.4056,-257.457 175,-250 191.0024,-237.5625 209.5433,-225.5619 226.6503,-215.3299"/>
<polygon fill="#000000" stroke="#000000" points="228.606,-218.2399 235.4444,-210.1475 225.0521,-212.2092 228.606,-218.2399"/>
<text text-anchor="start" x="175" y="-253.8" font-family="arial" font-size="14.00" fill="#377eb8">true</text>
</g>
<!-- st0123 -->
<g id="node6" class="node">
<title>st0123</title>
<polygon fill="none" stroke="#000000" points="912,-269 788,-269 788,-219 912,-219 912,-269"/>
<text text-anchor="start" x="827" y="-254.8" font-family="arial" font-weight="bold" font-size="14.00" fill="#000000">st0123</text>
<text text-anchor="start" x="796" y="-240.8" font-family="arial" font-size="14.00" fill="#984ea3">(Q &amp;&amp; (!R &amp;&amp; S))</text>
<text text-anchor="start" x="837.5" y="-226.8" font-family="arial" font-size="14.00" fill="#ff7f00">true</text>
</g>
<!-- st0&#45;&gt;st0123 -->
<g id="edge6" class="edge">
<title>st0&#45;&gt;st0123</title>
<path fill="none" stroke="#000000" d="M153.404,-325.0941C160.1093,-329.5349 167.4853,-333.5255 175,-336 300.595,-377.357 650.5402,-398.6909 770,-342 797.8518,-328.7827 819.2122,-300.5967 832.8264,-277.8306"/>
<polygon fill="#000000" stroke="#000000" points="835.8955,-279.5144 837.8356,-269.0987 829.8236,-276.0312 835.8955,-279.5144"/>
<text text-anchor="start" x="460" y="-379.8" font-family="arial" font-size="14.00" fill="#377eb8">true</text>
</g>
<!-- _st012 -->
<!-- _st012&#45;&gt;st012 -->
<g id="edge2" class="edge">
<title>_st012&#45;&gt;st012</title>
<path fill="none" stroke="#000000" d="M149.0356,-89.0636C173.1116,-106.4349 209.9966,-133.0482 238.8155,-153.8415"/>
<polygon fill="#000000" stroke="#000000" points="236.9365,-156.8017 247.0939,-159.8146 241.0323,-151.1251 236.9365,-156.8017"/>
</g>
<!-- st012&#45;&gt;st0 -->
<g id="edge12" class="edge">
<title>st012&#45;&gt;st0</title>
<path fill="none" stroke="#000000" d="M217.7548,-193.8992C202.6786,-198.1961 187.4098,-204.5641 175,-214 157.8616,-227.0313 145.3586,-247.6228 137.0223,-265.3897"/>
<polygon fill="#000000" stroke="#000000" points="133.6587,-264.3423 132.8168,-274.9037 140.061,-267.1725 133.6587,-264.3423"/>
<text text-anchor="start" x="180.5" y="-217.8" font-family="arial" font-size="14.00" fill="#377eb8">R&#39;</text>
</g>
<!-- st012&#45;&gt;st012 -->
<g id="edge15" class="edge">
<title>st012&#45;&gt;st012</title>
<path fill="none" stroke="#000000" d="M264.4438,-210.1756C263.6636,-219.9095 269.5156,-228 282,-228 289.8027,-228 295.0147,-224.8397 297.6359,-220.093"/>
<polygon fill="#000000" stroke="#000000" points="301.0913,-220.6586 299.5562,-210.1756 294.219,-219.3279 301.0913,-220.6586"/>
<text text-anchor="start" x="269.5" y="-231.8" font-family="arial" font-size="14.00" fill="#377eb8">true</text>
</g>
<!-- st012&#45;&gt;st0123 -->
<g id="edge16" class="edge">
<title>st012&#45;&gt;st0123</title>
<path fill="none" stroke="#000000" d="M315.8695,-210.1505C339.9726,-226.5866 373.8397,-246.8263 407,-257 543.097,-298.755 585.4718,-286.3508 727,-271 743.5594,-269.2039 761.1566,-266.0854 777.7071,-262.5908"/>
<polygon fill="#000000" stroke="#000000" points="778.8349,-265.9272 787.8583,-260.3748 777.3418,-259.0882 778.8349,-265.9272"/>
<text text-anchor="start" x="556" y="-288.8" font-family="arial" font-size="14.00" fill="#377eb8">true</text>
</g>
<!-- st02 -->
<g id="node7" class="node">
<title>st02</title>
<polygon fill="none" stroke="#000000" points="538,-215 407,-215 407,-165 538,-165 538,-215"/>
<text text-anchor="start" x="457.5" y="-200.8" font-family="arial" font-weight="bold" font-size="14.00" fill="#000000">st02</text>
<text text-anchor="start" x="415" y="-186.8" font-family="arial" font-size="14.00" fill="#984ea3">(!Q &amp;&amp; (!R &amp;&amp; !S))</text>
<text text-anchor="start" x="460" y="-172.8" font-family="arial" font-size="14.00" fill="#ff7f00">true</text>
</g>
<!-- st012&#45;&gt;st02 -->
<g id="edge13" class="edge">
<title>st012&#45;&gt;st02</title>
<path fill="none" stroke="#000000" d="M346.4335,-190.1611C352.3694,-190.5017 358.2941,-190.7915 364,-191 374.5935,-191.387 385.7724,-191.5556 396.7675,-191.5831"/>
<polygon fill="#000000" stroke="#000000" points="396.7957,-195.0831 406.7914,-191.5708 396.787,-188.0831 396.7957,-195.0831"/>
<text text-anchor="start" x="364" y="-194.8" font-family="arial" font-size="14.00" fill="#377eb8">true</text>
</g>
<!-- st023 -->
<g id="node8" class="node">
<title>st023</title>
<polygon fill="none" stroke="#000000" points="727,-124 599,-124 599,-74 727,-74 727,-124"/>
<text text-anchor="start" x="644" y="-109.8" font-family="arial" font-weight="bold" font-size="14.00" fill="#000000">st023</text>
<text text-anchor="start" x="607" y="-95.8" font-family="arial" font-size="14.00" fill="#984ea3">(!Q &amp;&amp; (!R &amp;&amp; S))</text>
<text text-anchor="start" x="650.5" y="-81.8" font-family="arial" font-size="14.00" fill="#ff7f00">true</text>
</g>
<!-- st012&#45;&gt;st023 -->
<g id="edge14" class="edge">
<title>st012&#45;&gt;st023</title>
<path fill="none" stroke="#000000" d="M346.2111,-159.9663C365.5358,-153.0957 386.9405,-146.1335 407,-141 467.4378,-125.5333 537.4202,-114.5078 588.9245,-107.6456"/>
<polygon fill="#000000" stroke="#000000" points="589.5105,-111.0988 598.9707,-106.3286 588.6005,-104.1582 589.5105,-111.0988"/>
<text text-anchor="start" x="460" y="-144.8" font-family="arial" font-size="14.00" fill="#377eb8">true</text>
</g>
<!-- _st0123 -->
<!-- _st0123&#45;&gt;st0123 -->
<g id="edge3" class="edge">
<title>_st0123&#45;&gt;st0123</title>
<path fill="none" stroke="#000000" d="M697.735,-244C720.1193,-244 750.0603,-244 777.4672,-244"/>
<polygon fill="#000000" stroke="#000000" points="777.8261,-247.5001 787.8261,-244 777.8261,-240.5001 777.8261,-247.5001"/>
</g>
<!-- st0123&#45;&gt;st0 -->
<g id="edge22" class="edge">
<title>st0123&#45;&gt;st0</title>
<path fill="none" stroke="#000000" d="M797.5928,-269.128C788.5005,-273.0407 779.0565,-276.8305 770,-280 751.3808,-286.5162 746.4434,-287.6699 727,-291 519.6878,-326.5065 266.4162,-311.8292 166.9794,-303.8646"/>
<polygon fill="#000000" stroke="#000000" points="167.2619,-300.3761 157.0092,-303.0468 166.6896,-307.3527 167.2619,-300.3761"/>
<text text-anchor="start" x="465.5" y="-316.8" font-family="arial" font-size="14.00" fill="#377eb8">R&#39;</text>
</g>
<!-- st0123&#45;&gt;st0123 -->
<g id="edge26" class="edge">
<title>st0123&#45;&gt;st0123</title>
<path fill="none" stroke="#000000" d="M832.8174,-269.1756C832.0537,-278.9095 837.7813,-287 850,-287 857.6367,-287 862.7378,-283.8397 865.3033,-279.093"/>
<polygon fill="#000000" stroke="#000000" points="868.7595,-279.6525 867.1826,-269.1756 861.8819,-278.3491 868.7595,-279.6525"/>
<text text-anchor="start" x="837.5" y="-290.8" font-family="arial" font-size="14.00" fill="#377eb8">true</text>
</g>
<!-- st0123&#45;&gt;st023 -->
<g id="edge24" class="edge">
<title>st0123&#45;&gt;st023</title>
<path fill="none" stroke="#000000" d="M815.7387,-218.6632C795.1144,-203.3022 768.4034,-183.2147 745,-165 730.7746,-153.9284 715.3374,-141.5901 701.7342,-130.6049"/>
<polygon fill="#000000" stroke="#000000" points="703.935,-127.8834 693.9598,-124.3132 699.5314,-133.3248 703.935,-127.8834"/>
<text text-anchor="start" x="745" y="-185.8" font-family="arial" font-size="14.00" fill="#377eb8">true</text>
</g>
<!-- st024 -->
<g id="node9" class="node">
<title>st024</title>
<polygon fill="none" stroke="#000000" points="1293,-215 1162,-215 1162,-165 1293,-165 1293,-215"/>
<text text-anchor="start" x="1208.5" y="-200.8" font-family="arial" font-weight="bold" font-size="14.00" fill="#000000">st024</text>
<text text-anchor="start" x="1170" y="-186.8" font-family="arial" font-size="14.00" fill="#984ea3">(!Q &amp;&amp; (!R &amp;&amp; !S))</text>
<text text-anchor="start" x="1215" y="-172.8" font-family="arial" font-size="14.00" fill="#ff7f00">true</text>
</g>
<!-- st0123&#45;&gt;st024 -->
<g id="edge23" class="edge">
<title>st0123&#45;&gt;st024</title>
<path fill="none" stroke="#000000" d="M912.175,-245.7066C963.3018,-245.9946 1037.418,-243.844 1101,-232 1118.3055,-228.7764 1136.496,-223.76 1153.5176,-218.301"/>
<polygon fill="#000000" stroke="#000000" points="1154.9881,-221.5015 1163.389,-215.0459 1152.7959,-214.8536 1154.9881,-221.5015"/>
<text text-anchor="start" x="1024.5" y="-247.8" font-family="arial" font-size="14.00" fill="#377eb8">true</text>
</g>
<!-- st0124 -->
<g id="node10" class="node">
<title>st0124</title>
<polygon fill="none" stroke="#000000" points="1101,-190 973,-190 973,-140 1101,-140 1101,-190"/>
<text text-anchor="start" x="1014" y="-175.8" font-family="arial" font-weight="bold" font-size="14.00" fill="#000000">st0124</text>
<text text-anchor="start" x="981" y="-161.8" font-family="arial" font-size="14.00" fill="#984ea3">(Q &amp;&amp; (!R &amp;&amp; !S))</text>
<text text-anchor="start" x="1024.5" y="-147.8" font-family="arial" font-size="14.00" fill="#ff7f00">true</text>
</g>
<!-- st0123&#45;&gt;st0124 -->
<g id="edge25" class="edge">
<title>st0123&#45;&gt;st0124</title>
<path fill="none" stroke="#000000" d="M909.4249,-218.8954C928.1739,-210.9747 949.0405,-202.1594 968.3765,-193.9907"/>
<polygon fill="#000000" stroke="#000000" points="969.88,-197.1551 977.7297,-190.0393 967.1559,-190.7069 969.88,-197.1551"/>
<text text-anchor="start" x="930" y="-212.8" font-family="arial" font-size="14.00" fill="#377eb8">true</text>
</g>
<!-- st02&#45;&gt;st0 -->
<g id="edge7" class="edge">
<title>st02&#45;&gt;st0</title>
<path fill="none" stroke="#000000" d="M427.9741,-215.1303C404.2373,-227.6692 374.1864,-242.2091 346,-252 285.5249,-273.0069 212.467,-286.6746 167.1092,-293.863"/>
<polygon fill="#000000" stroke="#000000" points="166.3787,-290.4344 157.0331,-295.4253 167.4513,-297.3517 166.3787,-290.4344"/>
<text text-anchor="start" x="275" y="-287.8" font-family="arial" font-size="14.00" fill="#377eb8">R&#39;</text>
</g>
<!-- st02&#45;&gt;st012 -->
<g id="edge10" class="edge">
<title>st02&#45;&gt;st012</title>
<path fill="none" stroke="#000000" d="M406.9926,-177.9604C400.9261,-177.1649 394.8593,-176.4878 389,-176 378.4034,-175.1178 367.217,-175.0756 356.2296,-175.5427"/>
<polygon fill="#000000" stroke="#000000" points="356.0055,-172.0497 346.2178,-176.1055 356.3984,-179.0387 356.0055,-172.0497"/>
<text text-anchor="start" x="364" y="-179.8" font-family="arial" font-size="14.00" fill="#377eb8">true</text>
</g>
<!-- st02&#45;&gt;st0123 -->
<g id="edge11" class="edge">
<title>st02&#45;&gt;st0123</title>
<path fill="none" stroke="#000000" d="M538.2114,-188.0528C589.9552,-187.7276 663.6672,-189.9457 727,-202 743.8624,-205.2095 761.5641,-210.2201 778.1174,-215.678"/>
<polygon fill="#000000" stroke="#000000" points="777.1217,-219.036 787.7161,-218.933 779.3698,-212.4068 777.1217,-219.036"/>
<text text-anchor="start" x="650.5" y="-205.8" font-family="arial" font-size="14.00" fill="#377eb8">true</text>
</g>
<!-- st02&#45;&gt;st02 -->
<g id="edge8" class="edge">
<title>st02&#45;&gt;st02</title>
<path fill="none" stroke="#000000" d="M454.5703,-215.1756C453.7734,-224.9095 459.75,-233 472.5,-233 480.4688,-233 485.7916,-229.8397 488.4686,-225.093"/>
<polygon fill="#000000" stroke="#000000" points="491.9233,-225.6647 490.4297,-215.1756 485.0562,-224.3067 491.9233,-225.6647"/>
<text text-anchor="start" x="460" y="-236.8" font-family="arial" font-size="14.00" fill="#377eb8">true</text>
</g>
<!-- st02&#45;&gt;st023 -->
<g id="edge9" class="edge">
<title>st02&#45;&gt;st023</title>
<path fill="none" stroke="#000000" d="M529.3375,-164.9645C546.0587,-157.4289 564.3333,-149.0258 581,-141 589.149,-137.0759 597.6988,-132.8361 606.0748,-128.6116"/>
<polygon fill="#000000" stroke="#000000" points="607.7336,-131.6948 615.0682,-124.0493 604.5667,-125.4521 607.7336,-131.6948"/>
<text text-anchor="start" x="556" y="-155.8" font-family="arial" font-size="14.00" fill="#377eb8">true</text>
</g>
<!-- st023&#45;&gt;st0 -->
<g id="edge17" class="edge">
<title>st023&#45;&gt;st0</title>
<path fill="none" stroke="#000000" d="M598.6897,-91.8313C507.7846,-84.802 339.2858,-83.4215 218,-151 174.2845,-175.3576 148.051,-229.4444 134.8102,-265.309"/>
<polygon fill="#000000" stroke="#000000" points="131.4522,-264.3068 131.4164,-274.9016 138.0514,-266.6416 131.4522,-264.3068"/>
<text text-anchor="start" x="369.5" y="-103.8" font-family="arial" font-size="14.00" fill="#377eb8">R&#39;</text>
</g>
<!-- st023&#45;&gt;st0123 -->
<g id="edge21" class="edge">
<title>st023&#45;&gt;st0123</title>
<path fill="none" stroke="#000000" d="M726.9536,-124.0836C741.7939,-131.3355 757.0281,-140.0311 770,-150 792.0539,-166.9483 812.3092,-190.8739 826.9207,-210.3451"/>
<polygon fill="#000000" stroke="#000000" points="824.2852,-212.6695 833.0242,-218.6596 829.928,-208.5272 824.2852,-212.6695"/>
<text text-anchor="start" x="745" y="-153.8" font-family="arial" font-size="14.00" fill="#377eb8">true</text>
</g>
<!-- st023&#45;&gt;st023 -->
<g id="edge19" class="edge">
<title>st023&#45;&gt;st023</title>
<path fill="none" stroke="#000000" d="M645.4438,-124.1756C644.6636,-133.9095 650.5156,-142 663,-142 670.8027,-142 676.0147,-138.8397 678.6359,-134.093"/>
<polygon fill="#000000" stroke="#000000" points="682.0913,-134.6586 680.5562,-124.1756 675.219,-133.3279 682.0913,-134.6586"/>
<text text-anchor="start" x="650.5" y="-145.8" font-family="arial" font-size="14.00" fill="#377eb8">true</text>
</g>
<!-- st023&#45;&gt;st024 -->
<g id="edge18" class="edge">
<title>st023&#45;&gt;st024</title>
<path fill="none" stroke="#000000" d="M727.2835,-96.4834C813.7229,-94.7193 971.524,-97.2247 1101,-131 1126.2363,-137.5832 1152.6116,-149.059 1174.7079,-160.1501"/>
<polygon fill="#000000" stroke="#000000" points="1173.4046,-163.4152 1183.8999,-164.8645 1176.5992,-157.1866 1173.4046,-163.4152"/>
<text text-anchor="start" x="930" y="-107.8" font-family="arial" font-size="14.00" fill="#377eb8">true</text>
</g>
<!-- st023&#45;&gt;st0124 -->
<g id="edge20" class="edge">
<title>st023&#45;&gt;st0124</title>
<path fill="none" stroke="#000000" d="M727.2929,-110.3458C792.7842,-121.9031 894.2266,-139.8047 963.0171,-151.9442"/>
<polygon fill="#000000" stroke="#000000" points="962.4653,-155.4008 972.9214,-153.692 963.6818,-148.5073 962.4653,-155.4008"/>
<text text-anchor="start" x="837.5" y="-145.8" font-family="arial" font-size="14.00" fill="#377eb8">true</text>
</g>
<!-- st024&#45;&gt;st0 -->
<g id="edge27" class="edge">
<title>st024&#45;&gt;st0</title>
<path fill="none" stroke="#000000" d="M1198.2018,-215.2288C1186.2858,-226.2149 1172.8071,-239.6219 1162,-253 1095.6556,-335.1273 1142.5768,-455 1037,-455 282,-455 282,-455 282,-455 213.5163,-455 163.8094,-379.877 139.9269,-334.2291"/>
<polygon fill="#000000" stroke="#000000" points="143.0129,-332.5761 135.3608,-325.2484 136.7731,-335.7487 143.0129,-332.5761"/>
<text text-anchor="start" x="656" y="-458.8" font-family="arial" font-size="14.00" fill="#377eb8">R&#39;</text>
</g>
<!-- st024&#45;&gt;st024 -->
<g id="edge28" class="edge">
<title>st024&#45;&gt;st024</title>
<path fill="none" stroke="#000000" d="M1209.5703,-215.1756C1208.7734,-224.9095 1214.75,-233 1227.5,-233 1235.4688,-233 1240.7916,-229.8397 1243.4686,-225.093"/>
<polygon fill="#000000" stroke="#000000" points="1246.9233,-225.6647 1245.4297,-215.1756 1240.0562,-224.3067 1246.9233,-225.6647"/>
<text text-anchor="start" x="1215" y="-236.8" font-family="arial" font-size="14.00" fill="#377eb8">true</text>
</g>
<!-- st024&#45;&gt;st0124 -->
<g id="edge30" class="edge">
<title>st024&#45;&gt;st0124</title>
<path fill="none" stroke="#000000" d="M1161.9455,-186.5555C1147.7479,-185.4222 1132.8422,-183.9367 1119,-182 1116.4802,-181.6475 1113.9218,-181.2637 1111.3417,-180.8546"/>
<polygon fill="#000000" stroke="#000000" points="1111.762,-177.3761 1101.3191,-179.1636 1110.5974,-184.2785 1111.762,-177.3761"/>
<text text-anchor="start" x="1119" y="-187.8" font-family="arial" font-size="14.00" fill="#377eb8">true</text>
</g>
<!-- st0235 -->
<g id="node11" class="node">
<title>st0235</title>
<polygon fill="none" stroke="#000000" points="1667,-206 1539,-206 1539,-156 1667,-156 1667,-206"/>
<text text-anchor="start" x="1580" y="-191.8" font-family="arial" font-weight="bold" font-size="14.00" fill="#000000">st0235</text>
<text text-anchor="start" x="1547" y="-177.8" font-family="arial" font-size="14.00" fill="#984ea3">(!Q &amp;&amp; (!R &amp;&amp; S))</text>
<text text-anchor="start" x="1590.5" y="-163.8" font-family="arial" font-size="14.00" fill="#ff7f00">true</text>
</g>
<!-- st024&#45;&gt;st0235 -->
<g id="edge29" class="edge">
<title>st024&#45;&gt;st0235</title>
<path fill="none" stroke="#000000" d="M1293.3368,-188.422C1359.0582,-186.8468 1459.8926,-184.43 1528.506,-182.7855"/>
<polygon fill="#000000" stroke="#000000" points="1528.8957,-186.2772 1538.8089,-182.5385 1528.7279,-179.2792 1528.8957,-186.2772"/>
<text text-anchor="start" x="1403.5" y="-189.8" font-family="arial" font-size="14.00" fill="#377eb8">true</text>
</g>
<!-- st01235 -->
<g id="node12" class="node">
<title>st01235</title>
<polygon fill="none" stroke="#000000" points="1478,-307 1354,-307 1354,-257 1478,-257 1478,-307"/>
<text text-anchor="start" x="1388.5" y="-292.8" font-family="arial" font-weight="bold" font-size="14.00" fill="#000000">st01235</text>
<text text-anchor="start" x="1362" y="-278.8" font-family="arial" font-size="14.00" fill="#984ea3">(Q &amp;&amp; (!R &amp;&amp; S))</text>
<text text-anchor="start" x="1403.5" y="-264.8" font-family="arial" font-size="14.00" fill="#ff7f00">true</text>
</g>
<!-- st024&#45;&gt;st01235 -->
<g id="edge31" class="edge">
<title>st024&#45;&gt;st01235</title>
<path fill="none" stroke="#000000" d="M1279.0085,-215.1394C1302.593,-226.6502 1330.7078,-240.372 1355.3125,-252.3806"/>
<polygon fill="#000000" stroke="#000000" points="1354.0319,-255.6502 1364.5538,-256.891 1357.1022,-249.3595 1354.0319,-255.6502"/>
<text text-anchor="start" x="1311" y="-244.8" font-family="arial" font-size="14.00" fill="#377eb8">true</text>
</g>
<!-- st0124&#45;&gt;st0 -->
<g id="edge32" class="edge">
<title>st0124&#45;&gt;st0</title>
<path fill="none" stroke="#000000" d="M1009.5642,-190.1454C997.8637,-201.3335 984.3271,-214.9155 973,-228 943.0366,-262.6121 948.5932,-283.491 912,-311 841.9784,-363.6389 812.5208,-360.0243 727,-379 506.1217,-428.0094 436.5657,-429.465 218,-371 197.9857,-365.6463 192.093,-364.7074 175,-353 166.5454,-347.2093 158.3798,-339.8409 151.1528,-332.453"/>
<polygon fill="#000000" stroke="#000000" points="153.6598,-330.0098 144.2628,-325.1163 148.5572,-334.8018 153.6598,-330.0098"/>
<text text-anchor="start" x="561.5" y="-413.8" font-family="arial" font-size="14.00" fill="#377eb8">R&#39;</text>
</g>
<!-- st0124&#45;&gt;st024 -->
<g id="edge33" class="edge">
<title>st0124&#45;&gt;st024</title>
<path fill="none" stroke="#000000" d="M1101.1869,-160.1599C1115.352,-160.103 1130.2353,-160.8299 1144,-163 1146.6596,-163.4193 1149.3498,-163.9094 1152.0539,-164.4584"/>
<polygon fill="#000000" stroke="#000000" points="1151.3489,-167.8873 1161.8751,-166.6836 1152.8957,-161.0604 1151.3489,-167.8873"/>
<text text-anchor="start" x="1119" y="-166.8" font-family="arial" font-size="14.00" fill="#377eb8">true</text>
</g>
<!-- st0124&#45;&gt;st0124 -->
<g id="edge35" class="edge">
<title>st0124&#45;&gt;st0124</title>
<path fill="none" stroke="#000000" d="M1019.4438,-190.1756C1018.6636,-199.9095 1024.5156,-208 1037,-208 1044.8027,-208 1050.0147,-204.8397 1052.6359,-200.093"/>
<polygon fill="#000000" stroke="#000000" points="1056.0913,-200.6586 1054.5562,-190.1756 1049.219,-199.3279 1056.0913,-200.6586"/>
<text text-anchor="start" x="1024.5" y="-211.8" font-family="arial" font-size="14.00" fill="#377eb8">true</text>
</g>
<!-- st0124&#45;&gt;st0235 -->
<g id="edge34" class="edge">
<title>st0124&#45;&gt;st0235</title>
<path fill="none" stroke="#000000" d="M1101.4031,-157.2589C1107.3454,-156.7479 1113.2799,-156.313 1119,-156 1264.0983,-148.0611 1433.7046,-162.2123 1528.7115,-172.2613"/>
<polygon fill="#000000" stroke="#000000" points="1528.4789,-175.7563 1538.795,-173.3422 1529.225,-168.7962 1528.4789,-175.7563"/>
<text text-anchor="start" x="1311" y="-159.8" font-family="arial" font-size="14.00" fill="#377eb8">true</text>
</g>
<!-- st0124&#45;&gt;st01235 -->
<g id="edge36" class="edge">
<title>st0124&#45;&gt;st01235</title>
<path fill="none" stroke="#000000" d="M1062.2671,-190.0989C1085.8917,-211.864 1123.2567,-242.1378 1162,-257 1220.3716,-279.3917 1291.5564,-284.6953 1343.6993,-284.945"/>
<polygon fill="#000000" stroke="#000000" points="1343.8694,-288.4449 1353.8646,-284.9312 1343.8598,-281.4449 1343.8694,-288.4449"/>
<text text-anchor="start" x="1215" y="-285.8" font-family="arial" font-size="14.00" fill="#377eb8">true</text>
</g>
<!-- st0235&#45;&gt;st0 -->
<g id="edge37" class="edge">
<title>st0235&#45;&gt;st0</title>
<path fill="none" stroke="#000000" d="M1585.1644,-155.9239C1555.0962,-116.8829 1490.2767,-46 1416,-46 282,-46 282,-46 282,-46 180.2424,-46 141.6932,-194.8011 129.2063,-264.6198"/>
<polygon fill="#000000" stroke="#000000" points="125.7153,-264.2708 127.4842,-274.7169 132.6157,-265.4477 125.7153,-264.2708"/>
<text text-anchor="start" x="843" y="-49.8" font-family="arial" font-size="14.00" fill="#377eb8">R&#39;</text>
</g>
<!-- st0235&#45;&gt;st0235 -->
<g id="edge39" class="edge">
<title>st0235&#45;&gt;st0235</title>
<path fill="none" stroke="#000000" d="M1585.4438,-206.1756C1584.6636,-215.9095 1590.5156,-224 1603,-224 1610.8027,-224 1616.0147,-220.8397 1618.6359,-216.093"/>
<polygon fill="#000000" stroke="#000000" points="1622.0913,-216.6586 1620.5562,-206.1756 1615.219,-215.3279 1622.0913,-216.6586"/>
<text text-anchor="start" x="1590.5" y="-227.8" font-family="arial" font-size="14.00" fill="#377eb8">true</text>
</g>
<!-- st0235&#45;&gt;st01235 -->
<g id="edge41" class="edge">
<title>st0235&#45;&gt;st01235</title>
<path fill="none" stroke="#000000" d="M1562.4906,-206.0661C1549.3778,-213.9478 1534.6865,-222.5367 1521,-230 1507.2287,-237.5095 1492.2272,-245.2129 1477.9859,-252.3121"/>
<polygon fill="#000000" stroke="#000000" points="1476.166,-249.3077 1468.7578,-256.882 1479.2724,-255.5807 1476.166,-249.3077"/>
<text text-anchor="start" x="1496" y="-245.8" font-family="arial" font-size="14.00" fill="#377eb8">true</text>
</g>
<!-- st0246 -->
<g id="node13" class="node">
<title>st0246</title>
<polygon fill="none" stroke="#000000" points="2048,-302 1917,-302 1917,-252 2048,-252 2048,-302"/>
<text text-anchor="start" x="1959.5" y="-287.8" font-family="arial" font-weight="bold" font-size="14.00" fill="#000000">st0246</text>
<text text-anchor="start" x="1925" y="-273.8" font-family="arial" font-size="14.00" fill="#984ea3">(!Q &amp;&amp; (!R &amp;&amp; !S))</text>
<text text-anchor="start" x="1970" y="-259.8" font-family="arial" font-size="14.00" fill="#ff7f00">true</text>
</g>
<!-- st0235&#45;&gt;st0246 -->
<g id="edge38" class="edge">
<title>st0235&#45;&gt;st0246</title>
<path fill="none" stroke="#000000" d="M1667.1137,-173.5613C1719.3249,-169.7789 1794.2338,-169.5994 1856,-190 1890.5634,-201.4159 1924.2489,-225.4094 1948.1576,-245.3131"/>
<polygon fill="#000000" stroke="#000000" points="1945.9938,-248.0675 1955.8781,-251.8821 1950.53,-242.7361 1945.9938,-248.0675"/>
<text text-anchor="start" x="1779.5" y="-193.8" font-family="arial" font-size="14.00" fill="#377eb8">true</text>
</g>
<!-- st01246 -->
<g id="node14" class="node">
<title>st01246</title>
<polygon fill="none" stroke="#000000" points="1856,-264 1728,-264 1728,-214 1856,-214 1856,-264"/>
<text text-anchor="start" x="1764.5" y="-249.8" font-family="arial" font-weight="bold" font-size="14.00" fill="#000000">st01246</text>
<text text-anchor="start" x="1736" y="-235.8" font-family="arial" font-size="14.00" fill="#984ea3">(Q &amp;&amp; (!R &amp;&amp; !S))</text>
<text text-anchor="start" x="1779.5" y="-221.8" font-family="arial" font-size="14.00" fill="#ff7f00">true</text>
</g>
<!-- st0235&#45;&gt;st01246 -->
<g id="edge40" class="edge">
<title>st0235&#45;&gt;st01246</title>
<path fill="none" stroke="#000000" d="M1667.2505,-200.7171C1683.6212,-205.7409 1701.3459,-211.1802 1718.1539,-216.3382"/>
<polygon fill="#000000" stroke="#000000" points="1717.3404,-219.7496 1727.9272,-219.3375 1719.3941,-213.0576 1717.3404,-219.7496"/>
<text text-anchor="start" x="1685" y="-216.8" font-family="arial" font-size="14.00" fill="#377eb8">true</text>
</g>
<!-- st01235&#45;&gt;st0 -->
<g id="edge42" class="edge">
<title>st01235&#45;&gt;st0</title>
<path fill="none" stroke="#000000" d="M1407.6439,-307.2007C1386.9851,-364.1791 1327.79,-498 1227.5,-498 282,-498 282,-498 282,-498 199.4405,-498 153.0006,-391.5255 134.1027,-334.735"/>
<polygon fill="#000000" stroke="#000000" points="137.3898,-333.5239 130.9947,-325.0768 130.7263,-335.6683 137.3898,-333.5239"/>
<text text-anchor="start" x="750.5" y="-501.8" font-family="arial" font-size="14.00" fill="#377eb8">R&#39;</text>
</g>
<!-- st01235&#45;&gt;st0235 -->
<g id="edge44" class="edge">
<title>st01235&#45;&gt;st0235</title>
<path fill="none" stroke="#000000" d="M1438.6436,-256.7736C1453.5747,-241.534 1474.3209,-222.8324 1496,-211 1506.3195,-205.3677 1517.7889,-200.7169 1529.2762,-196.8995"/>
<polygon fill="#000000" stroke="#000000" points="1530.4069,-200.2131 1538.9047,-193.8857 1528.3158,-193.5327 1530.4069,-200.2131"/>
<text text-anchor="start" x="1496" y="-214.8" font-family="arial" font-size="14.00" fill="#377eb8">true</text>
</g>
<!-- st01235&#45;&gt;st01235 -->
<g id="edge46" class="edge">
<title>st01235&#45;&gt;st01235</title>
<path fill="none" stroke="#000000" d="M1398.8174,-307.1756C1398.0537,-316.9095 1403.7813,-325 1416,-325 1423.6367,-325 1428.7378,-321.8397 1431.3033,-317.093"/>
<polygon fill="#000000" stroke="#000000" points="1434.7595,-317.6525 1433.1826,-307.1756 1427.8819,-316.3491 1434.7595,-317.6525"/>
<text text-anchor="start" x="1403.5" y="-328.8" font-family="arial" font-size="14.00" fill="#377eb8">true</text>
</g>
<!-- st01235&#45;&gt;st0246 -->
<g id="edge43" class="edge">
<title>st01235&#45;&gt;st0246</title>
<path fill="none" stroke="#000000" d="M1478.1269,-291.8986C1563.5154,-304.0213 1721.8295,-321.1823 1856,-306 1872.5011,-304.1328 1889.9861,-300.937 1906.5208,-297.3323"/>
<polygon fill="#000000" stroke="#000000" points="1907.6902,-300.6566 1916.6758,-295.0433 1906.1509,-293.828 1907.6902,-300.6566"/>
<text text-anchor="start" x="1685" y="-314.8" font-family="arial" font-size="14.00" fill="#377eb8">true</text>
</g>
<!-- st01235&#45;&gt;st01246 -->
<g id="edge45" class="edge">
<title>st01235&#45;&gt;st01246</title>
<path fill="none" stroke="#000000" d="M1478.0888,-274.8994C1543.8935,-267.3739 1647.7883,-255.4923 1717.8479,-247.4802"/>
<polygon fill="#000000" stroke="#000000" points="1718.3929,-250.9407 1727.9305,-246.3271 1717.5975,-243.9861 1718.3929,-250.9407"/>
<text text-anchor="start" x="1590.5" y="-270.8" font-family="arial" font-size="14.00" fill="#377eb8">true</text>
</g>
<!-- st0246&#45;&gt;st0 -->
<g id="edge47" class="edge">
<title>st0246&#45;&gt;st0</title>
<path fill="none" stroke="#000000" d="M1977.3011,-302.1187C1961.9263,-368.5847 1910.1571,-544 1792,-544 282,-544 282,-544 282,-544 183.7967,-544 143.5965,-403.0224 129.9608,-335.386"/>
<polygon fill="#000000" stroke="#000000" points="133.3256,-334.3498 127.9956,-325.1933 126.4522,-335.6751 133.3256,-334.3498"/>
<text text-anchor="start" x="1030" y="-547.8" font-family="arial" font-size="14.00" fill="#377eb8">R&#39;</text>
</g>
<!-- st0246&#45;&gt;st0246 -->
<g id="edge48" class="edge">
<title>st0246&#45;&gt;st0246</title>
<path fill="none" stroke="#000000" d="M1964.5703,-302.1756C1963.7734,-311.9095 1969.75,-320 1982.5,-320 1990.4688,-320 1995.7916,-316.8397 1998.4686,-312.093"/>
<polygon fill="#000000" stroke="#000000" points="2001.9233,-312.6647 2000.4297,-302.1756 1995.0562,-311.3067 2001.9233,-312.6647"/>
<text text-anchor="start" x="1970" y="-323.8" font-family="arial" font-size="14.00" fill="#377eb8">true</text>
</g>
<!-- st0246&#45;&gt;st01246 -->
<g id="edge49" class="edge">
<title>st0246&#45;&gt;st01246</title>
<path fill="none" stroke="#000000" d="M1916.9266,-263.9198C1900.6636,-260.6757 1883.1182,-257.1758 1866.464,-253.8537"/>
<polygon fill="#000000" stroke="#000000" points="1866.7205,-250.336 1856.229,-251.8121 1865.3511,-257.2008 1866.7205,-250.336"/>
<text text-anchor="start" x="1874" y="-263.8" font-family="arial" font-size="14.00" fill="#377eb8">true</text>
</g>
<!-- st01246&#45;&gt;st0 -->
<g id="edge50" class="edge">
<title>st01246&#45;&gt;st0</title>
<path fill="none" stroke="#000000" d="M1734.0538,-213.9414C1731.9402,-212.3747 1729.9116,-210.7282 1728,-209 1647.7125,-136.4143 1711.2348,0 1603,0 282,0 282,0 282,0 163.4131,0 133.6224,-185.7795 126.3112,-264.9461"/>
<polygon fill="#000000" stroke="#000000" points="122.8216,-264.6762 125.4564,-274.9382 129.7961,-265.2729 122.8216,-264.6762"/>
<text text-anchor="start" x="935.5" y="-3.8" font-family="arial" font-size="14.00" fill="#377eb8">R&#39;</text>
</g>
<!-- st01246&#45;&gt;st0246 -->
<g id="edge51" class="edge">
<title>st01246&#45;&gt;st0246</title>
<path fill="none" stroke="#000000" d="M1856.1864,-231.8947C1870.4208,-231.7846 1885.3331,-232.8257 1899,-236 1909.8397,-238.5177 1920.8936,-242.6504 1931.2611,-247.3465"/>
<polygon fill="#000000" stroke="#000000" points="1930.0311,-250.6376 1940.5634,-251.7873 1933.0469,-244.3206 1930.0311,-250.6376"/>
<text text-anchor="start" x="1874" y="-239.8" font-family="arial" font-size="14.00" fill="#377eb8">true</text>
</g>
<!-- st01246&#45;&gt;st01246 -->
<g id="edge52" class="edge">
<title>st01246&#45;&gt;st01246</title>
<path fill="none" stroke="#000000" d="M1774.4438,-264.1756C1773.6636,-273.9095 1779.5156,-282 1792,-282 1799.8027,-282 1805.0147,-278.8397 1807.6359,-274.093"/>
<polygon fill="#000000" stroke="#000000" points="1811.0913,-274.6586 1809.5562,-264.1756 1804.219,-273.3279 1811.0913,-274.6586"/>
<text text-anchor="start" x="1779.5" y="-285.8" font-family="arial" font-size="14.00" fill="#377eb8">true</text>
</g>
</g>
</svg>
