<?xml version="1.0" encoding="UTF-8" standalone="no"?>
<!DOCTYPE svg PUBLIC "-//W3C//DTD SVG 1.1//EN"
 "http://www.w3.org/Graphics/SVG/1.1/DTD/svg11.dtd">
<!-- Generated by graphviz version 2.43.0 (0)
 -->
<!-- Title: G Pages: 1 -->
<svg width="2730pt" height="591pt"
 viewBox="0.00 0.00 2730.00 591.00" xmlns="http://www.w3.org/2000/svg" xmlns:xlink="http://www.w3.org/1999/xlink">
<g id="graph0" class="graph" transform="scale(1 1) rotate(0) translate(4 587)">
<title>G</title>
<polygon fill="white" stroke="transparent" points="-4,4 -4,-587 2726,-587 2726,4 -4,4"/>
<!-- _st0 -->
<!-- st0 -->
<g id="node2" class="node">
<title>st0</title>
<polygon fill="none" stroke="black" points="156,-264 91,-264 91,-214 156,-214 156,-264"/>
<text text-anchor="start" x="113.5" y="-249.8" font-family="arial" font-weight="bold" font-size="14.00">st0</text>
<text text-anchor="start" x="99" y="-235.8" font-family="arial" font-size="14.00" fill="#984ea3">(R || !Q)</text>
<text text-anchor="start" x="111.5" y="-221.8" font-family="arial" font-size="14.00" fill="#ff7f00">true</text>
</g>
<!-- _st0&#45;&gt;st0 -->
<g id="edge1" class="edge">
<title>_st0&#45;&gt;st0</title>
<path fill="none" stroke="black" d="M54.07,-239C62.33,-239 71.67,-239 80.74,-239"/>
<polygon fill="black" stroke="black" points="80.79,-242.5 90.79,-239 80.79,-235.5 80.79,-242.5"/>
</g>
<!-- st0&#45;&gt;st0 -->
<g id="edge4" class="edge">
<title>st0&#45;&gt;st0</title>
<path fill="none" stroke="black" d="M114.16,-264.18C113.75,-273.91 116.86,-282 123.5,-282 127.55,-282 130.28,-279 131.71,-274.45"/>
<polygon fill="black" stroke="black" points="135.23,-274.5 132.84,-264.18 128.27,-273.73 135.23,-274.5"/>
<text text-anchor="start" x="111.5" y="-285.8" font-family="arial" font-size="14.00" fill="#377eb8">true</text>
</g>
<!-- st012 -->
<g id="node4" class="node">
<title>st012</title>
<polygon fill="none" stroke="black" points="339,-318 216,-318 216,-268 339,-268 339,-318"/>
<text text-anchor="start" x="260" y="-303.8" font-family="arial" font-weight="bold" font-size="14.00">st012</text>
<text text-anchor="start" x="224" y="-289.8" font-family="arial" font-size="14.00" fill="#984ea3">(Q &amp;&amp; (!R &amp;&amp; !S))</text>
<text text-anchor="start" x="265.5" y="-275.8" font-family="arial" font-size="14.00" fill="#ff7f00">true</text>
</g>
<!-- st0&#45;&gt;st012 -->
<g id="edge5" class="edge">
<title>st0&#45;&gt;st012</title>
<path fill="none" stroke="black" d="M156.03,-244.75C169.19,-247.55 184.51,-251.32 198,-256 204.5,-258.26 211.19,-260.88 217.78,-263.68"/>
<polygon fill="black" stroke="black" points="216.77,-267.06 227.33,-267.88 219.58,-260.65 216.77,-267.06"/>
<text text-anchor="start" x="174" y="-259.8" font-family="arial" font-size="14.00" fill="#377eb8">true</text>
</g>
<!-- st0123 -->
<g id="node6" class="node">
<title>st0123</title>
<polygon fill="none" stroke="black" points="888,-318 769,-318 769,-268 888,-268 888,-318"/>
<text text-anchor="start" x="807" y="-303.8" font-family="arial" font-weight="bold" font-size="14.00">st0123</text>
<text text-anchor="start" x="777" y="-289.8" font-family="arial" font-size="14.00" fill="#984ea3">(Q &amp;&amp; (!R &amp;&amp; S))</text>
<text text-anchor="start" x="816.5" y="-275.8" font-family="arial" font-size="14.00" fill="#ff7f00">true</text>
</g>
<!-- st0&#45;&gt;st0123 -->
<g id="edge6" class="edge">
<title>st0&#45;&gt;st0123</title>
<path fill="none" stroke="black" d="M134.97,-264.04C148.72,-293.24 175.91,-340.06 216,-360 412.28,-457.65 491.95,-374.8 709,-344 727.9,-341.32 733.11,-341.66 751,-335 759.96,-331.66 769.15,-327.42 777.91,-322.92"/>
<polygon fill="black" stroke="black" points="779.67,-325.95 786.85,-318.17 776.38,-319.77 779.67,-325.95"/>
<text text-anchor="start" x="450.5" y="-409.8" font-family="arial" font-size="14.00" fill="#377eb8">true</text>
</g>
<!-- _st012 -->
<!-- _st012&#45;&gt;st012 -->
<g id="edge2" class="edge">
<title>_st012&#45;&gt;st012</title>
<path fill="none" stroke="black" d="M134.71,-546.73C159.86,-501.73 225.09,-385 257.56,-326.89"/>
<polygon fill="black" stroke="black" points="260.66,-328.52 262.48,-318.08 254.55,-325.11 260.66,-328.52"/>
</g>
<!-- st012&#45;&gt;st0 -->
<g id="edge12" class="edge">
<title>st012&#45;&gt;st0</title>
<path fill="none" stroke="black" d="M215.77,-283.76C201.75,-280.6 187.12,-276.43 174,-271 170.97,-269.75 167.93,-268.31 164.92,-266.75"/>
<polygon fill="black" stroke="black" points="166.49,-263.61 156.05,-261.77 163.06,-269.72 166.49,-263.61"/>
<text text-anchor="start" x="179.5" y="-281.8" font-family="arial" font-size="14.00" fill="#377eb8">R&#39;</text>
</g>
<!-- st012&#45;&gt;st012 -->
<g id="edge15" class="edge">
<title>st012&#45;&gt;st012</title>
<path fill="none" stroke="black" d="M260.69,-318.18C259.94,-327.91 265.55,-336 277.5,-336 284.97,-336 289.96,-332.84 292.47,-328.09"/>
<polygon fill="black" stroke="black" points="295.93,-328.65 294.31,-318.18 289.04,-327.37 295.93,-328.65"/>
<text text-anchor="start" x="265.5" y="-339.8" font-family="arial" font-size="14.00" fill="#377eb8">true</text>
</g>
<!-- st012&#45;&gt;st0123 -->
<g id="edge16" class="edge">
<title>st012&#45;&gt;st0123</title>
<path fill="none" stroke="black" d="M339.08,-314.09C345.1,-315.88 351.15,-317.55 357,-319 375.37,-323.54 380.14,-324.44 399,-326 536.31,-337.36 571.83,-338.95 709,-326 725.46,-324.45 742.81,-320.81 758.99,-316.5"/>
<polygon fill="black" stroke="black" points="760.21,-319.8 768.91,-313.74 758.33,-313.05 760.21,-319.8"/>
<text text-anchor="start" x="544" y="-338.8" font-family="arial" font-size="14.00" fill="#377eb8">true</text>
</g>
<!-- st02 -->
<g id="node7" class="node">
<title>st02</title>
<polygon fill="none" stroke="black" points="526,-254 399,-254 399,-204 526,-204 526,-254"/>
<text text-anchor="start" x="448.5" y="-239.8" font-family="arial" font-weight="bold" font-size="14.00">st02</text>
<text text-anchor="start" x="407" y="-225.8" font-family="arial" font-size="14.00" fill="#984ea3">(!Q &amp;&amp; (!R &amp;&amp; !S))</text>
<text text-anchor="start" x="450.5" y="-211.8" font-family="arial" font-size="14.00" fill="#ff7f00">true</text>
</g>
<!-- st012&#45;&gt;st02 -->
<g id="edge13" class="edge">
<title>st012&#45;&gt;st02</title>
<path fill="none" stroke="black" d="M339.15,-282.81C353.1,-279.69 367.73,-275.79 381,-271 390.45,-267.59 400.19,-263.27 409.48,-258.71"/>
<polygon fill="black" stroke="black" points="411.26,-261.74 418.6,-254.1 408.1,-255.49 411.26,-261.74"/>
<text text-anchor="start" x="357" y="-280.8" font-family="arial" font-size="14.00" fill="#377eb8">true</text>
</g>
<!-- st023 -->
<g id="node8" class="node">
<title>st023</title>
<polygon fill="none" stroke="black" points="709,-254 586,-254 586,-204 709,-204 709,-254"/>
<text text-anchor="start" x="630" y="-239.8" font-family="arial" font-weight="bold" font-size="14.00">st023</text>
<text text-anchor="start" x="594" y="-225.8" font-family="arial" font-size="14.00" fill="#984ea3">(!Q &amp;&amp; (!R &amp;&amp; S))</text>
<text text-anchor="start" x="635.5" y="-211.8" font-family="arial" font-size="14.00" fill="#ff7f00">true</text>
</g>
<!-- st012&#45;&gt;st023 -->
<g id="edge14" class="edge">
<title>st012&#45;&gt;st023</title>
<path fill="none" stroke="black" d="M339.08,-302.5C389.85,-308.39 463.81,-312.13 526,-296 553.72,-288.81 581.84,-273.71 603.94,-259.67"/>
<polygon fill="black" stroke="black" points="605.94,-262.54 612.41,-254.15 602.12,-256.68 605.94,-262.54"/>
<text text-anchor="start" x="450.5" y="-310.8" font-family="arial" font-size="14.00" fill="#377eb8">true</text>
</g>
<!-- _st0123 -->
<!-- _st0123&#45;&gt;st0123 -->
<g id="edge3" class="edge">
<title>_st0123&#45;&gt;st0123</title>
<path fill="none" stroke="black" d="M680.21,-131.76C703.04,-134.73 732.9,-142.42 751,-162 775.44,-188.44 750.67,-210 769,-241 773.18,-248.07 778.65,-254.71 784.57,-260.71"/>
<polygon fill="black" stroke="black" points="782.57,-263.64 792.24,-267.97 787.38,-258.55 782.57,-263.64"/>
</g>
<!-- st0123&#45;&gt;st0 -->
<g id="edge22" class="edge">
<title>st0123&#45;&gt;st0</title>
<path fill="none" stroke="black" d="M793.08,-267.9C785.07,-261.85 776.65,-255.3 769,-249 741.3,-226.2 741.55,-210.1 709,-195 609.61,-148.9 320.76,-159.93 216,-192 198.58,-197.33 180.52,-205.87 165.1,-214.22"/>
<polygon fill="black" stroke="black" points="163.38,-211.17 156.34,-219.09 166.78,-217.29 163.38,-211.17"/>
<text text-anchor="start" x="456" y="-169.8" font-family="arial" font-size="14.00" fill="#377eb8">R&#39;</text>
</g>
<!-- st0123&#45;&gt;st0123 -->
<g id="edge26" class="edge">
<title>st0123&#45;&gt;st0123</title>
<path fill="none" stroke="black" d="M812.06,-318.18C811.33,-327.91 816.81,-336 828.5,-336 835.8,-336 840.68,-332.84 843.14,-328.09"/>
<polygon fill="black" stroke="black" points="846.6,-328.64 844.94,-318.18 839.71,-327.39 846.6,-328.64"/>
<text text-anchor="start" x="816.5" y="-339.8" font-family="arial" font-size="14.00" fill="#377eb8">true</text>
</g>
<!-- st0123&#45;&gt;st023 -->
<g id="edge24" class="edge">
<title>st0123&#45;&gt;st023</title>
<path fill="none" stroke="black" d="M785.57,-267.9C774.59,-262.07 762.58,-256.31 751,-252 740.86,-248.22 729.91,-244.96 719.08,-242.18"/>
<polygon fill="black" stroke="black" points="719.73,-238.74 709.19,-239.76 718.07,-245.54 719.73,-238.74"/>
<text text-anchor="start" x="727" y="-255.8" font-family="arial" font-size="14.00" fill="#377eb8">true</text>
</g>
<!-- st024 -->
<g id="node9" class="node">
<title>st024</title>
<polygon fill="none" stroke="black" points="1258,-354 1131,-354 1131,-304 1258,-304 1258,-354"/>
<text text-anchor="start" x="1177" y="-339.8" font-family="arial" font-weight="bold" font-size="14.00">st024</text>
<text text-anchor="start" x="1139" y="-325.8" font-family="arial" font-size="14.00" fill="#984ea3">(!Q &amp;&amp; (!R &amp;&amp; !S))</text>
<text text-anchor="start" x="1182.5" y="-311.8" font-family="arial" font-size="14.00" fill="#ff7f00">true</text>
</g>
<!-- st0123&#45;&gt;st024 -->
<g id="edge23" class="edge">
<title>st0123&#45;&gt;st024</title>
<path fill="none" stroke="black" d="M888.39,-298.82C951.64,-305.08 1052.24,-315.03 1120.48,-321.78"/>
<polygon fill="black" stroke="black" points="1120.43,-325.29 1130.73,-322.79 1121.12,-318.32 1120.43,-325.29"/>
<text text-anchor="start" x="997.5" y="-319.8" font-family="arial" font-size="14.00" fill="#377eb8">true</text>
</g>
<!-- st0124 -->
<g id="node10" class="node">
<title>st0124</title>
<polygon fill="none" stroke="black" points="1071,-256 948,-256 948,-206 1071,-206 1071,-256"/>
<text text-anchor="start" x="988" y="-241.8" font-family="arial" font-weight="bold" font-size="14.00">st0124</text>
<text text-anchor="start" x="956" y="-227.8" font-family="arial" font-size="14.00" fill="#984ea3">(Q &amp;&amp; (!R &amp;&amp; !S))</text>
<text text-anchor="start" x="997.5" y="-213.8" font-family="arial" font-size="14.00" fill="#ff7f00">true</text>
</g>
<!-- st0123&#45;&gt;st0124 -->
<g id="edge25" class="edge">
<title>st0123&#45;&gt;st0124</title>
<path fill="none" stroke="black" d="M888.11,-272.7C904.14,-267.15 921.66,-261.08 938.27,-255.33"/>
<polygon fill="black" stroke="black" points="939.61,-258.57 947.91,-251.98 937.32,-251.95 939.61,-258.57"/>
<text text-anchor="start" x="906" y="-268.8" font-family="arial" font-size="14.00" fill="#377eb8">true</text>
</g>
<!-- st02&#45;&gt;st0 -->
<g id="edge7" class="edge">
<title>st02&#45;&gt;st0</title>
<path fill="none" stroke="black" d="M398.87,-230.86C331.11,-232.87 224.95,-236.02 166.54,-237.75"/>
<polygon fill="black" stroke="black" points="166.1,-234.26 156.2,-238.06 166.3,-241.26 166.1,-234.26"/>
<text text-anchor="start" x="271" y="-239.8" font-family="arial" font-size="14.00" fill="#377eb8">R&#39;</text>
</g>
<!-- st02&#45;&gt;st012 -->
<g id="edge10" class="edge">
<title>st02&#45;&gt;st012</title>
<path fill="none" stroke="black" d="M398.75,-243.17C384.85,-246.87 370.31,-251.19 357,-256 350.62,-258.3 344.06,-260.94 337.57,-263.73"/>
<polygon fill="black" stroke="black" points="335.89,-260.64 328.16,-267.88 338.72,-267.04 335.89,-260.64"/>
<text text-anchor="start" x="357" y="-259.8" font-family="arial" font-size="14.00" fill="#377eb8">true</text>
</g>
<!-- st02&#45;&gt;st0123 -->
<g id="edge11" class="edge">
<title>st02&#45;&gt;st0123</title>
<path fill="none" stroke="black" d="M498.22,-254.15C521.72,-269.57 554.18,-287.87 586,-296 642.89,-310.54 709.81,-308.28 758.75,-303.24"/>
<polygon fill="black" stroke="black" points="759.36,-306.69 768.92,-302.13 758.6,-299.74 759.36,-306.69"/>
<text text-anchor="start" x="635.5" y="-310.8" font-family="arial" font-size="14.00" fill="#377eb8">true</text>
</g>
<!-- st02&#45;&gt;st02 -->
<g id="edge8" class="edge">
<title>st02&#45;&gt;st02</title>
<path fill="none" stroke="black" d="M445.32,-254.18C444.55,-263.91 450.28,-272 462.5,-272 470.14,-272 475.24,-268.84 477.8,-264.09"/>
<polygon fill="black" stroke="black" points="481.26,-264.65 479.68,-254.18 474.38,-263.35 481.26,-264.65"/>
<text text-anchor="start" x="450.5" y="-275.8" font-family="arial" font-size="14.00" fill="#377eb8">true</text>
</g>
<!-- st02&#45;&gt;st023 -->
<g id="edge9" class="edge">
<title>st02&#45;&gt;st023</title>
<path fill="none" stroke="black" d="M526.22,-229C542.16,-229 559.39,-229 575.7,-229"/>
<polygon fill="black" stroke="black" points="575.72,-232.5 585.72,-229 575.72,-225.5 575.72,-232.5"/>
<text text-anchor="start" x="544" y="-232.8" font-family="arial" font-size="14.00" fill="#377eb8">true</text>
</g>
<!-- st023&#45;&gt;st0 -->
<g id="edge17" class="edge">
<title>st023&#45;&gt;st0</title>
<path fill="none" stroke="black" d="M585.89,-208.39C566.94,-202.9 545.81,-197.74 526,-195 394.81,-176.85 238.66,-209.43 165.79,-227.76"/>
<polygon fill="black" stroke="black" points="164.89,-224.38 156.07,-230.25 166.62,-231.16 164.89,-224.38"/>
<text text-anchor="start" x="362.5" y="-196.8" font-family="arial" font-size="14.00" fill="#377eb8">R&#39;</text>
</g>
<!-- st023&#45;&gt;st0123 -->
<g id="edge21" class="edge">
<title>st023&#45;&gt;st0123</title>
<path fill="none" stroke="black" d="M690.29,-254.1C701.88,-260.3 714.67,-266.45 727,-271 737.14,-274.74 748.09,-277.94 758.92,-280.65"/>
<polygon fill="black" stroke="black" points="758.25,-284.09 768.79,-283 759.87,-277.28 758.25,-284.09"/>
<text text-anchor="start" x="727" y="-280.8" font-family="arial" font-size="14.00" fill="#377eb8">true</text>
</g>
<!-- st023&#45;&gt;st023 -->
<g id="edge19" class="edge">
<title>st023&#45;&gt;st023</title>
<path fill="none" stroke="black" d="M630.69,-254.18C629.94,-263.91 635.55,-272 647.5,-272 654.97,-272 659.96,-268.84 662.47,-264.09"/>
<polygon fill="black" stroke="black" points="665.93,-264.65 664.31,-254.18 659.04,-263.37 665.93,-264.65"/>
<text text-anchor="start" x="635.5" y="-275.8" font-family="arial" font-size="14.00" fill="#377eb8">true</text>
</g>
<!-- st023&#45;&gt;st024 -->
<g id="edge18" class="edge">
<title>st023&#45;&gt;st024</title>
<path fill="none" stroke="black" d="M673.18,-254.21C684.25,-265.64 697.39,-279.39 709,-292 736.3,-321.65 732.26,-343.42 769,-360 883.75,-411.78 1033.77,-380.91 1121.29,-354.47"/>
<polygon fill="black" stroke="black" points="1122.34,-357.81 1130.87,-351.52 1120.28,-351.12 1122.34,-357.81"/>
<text text-anchor="start" x="906" y="-391.8" font-family="arial" font-size="14.00" fill="#377eb8">true</text>
</g>
<!-- st023&#45;&gt;st0124 -->
<g id="edge20" class="edge">
<title>st023&#45;&gt;st0124</title>
<path fill="none" stroke="black" d="M709.16,-229.34C772.35,-229.69 871.24,-230.24 937.89,-230.61"/>
<polygon fill="black" stroke="black" points="937.87,-234.11 947.89,-230.66 937.91,-227.11 937.87,-234.11"/>
<text text-anchor="start" x="816.5" y="-233.8" font-family="arial" font-size="14.00" fill="#377eb8">true</text>
</g>
<!-- st024&#45;&gt;st0 -->
<g id="edge27" class="edge">
<title>st024&#45;&gt;st0</title>
<path fill="none" stroke="black" d="M1174.32,-354.2C1143.93,-390.97 1080.9,-455 1010.5,-455 276.5,-455 276.5,-455 276.5,-455 189.16,-455 147.64,-335.42 132.11,-274.2"/>
<polygon fill="black" stroke="black" points="135.44,-273.09 129.67,-264.2 128.64,-274.75 135.44,-273.09"/>
<text text-anchor="start" x="641" y="-458.8" font-family="arial" font-size="14.00" fill="#377eb8">R&#39;</text>
</g>
<!-- st024&#45;&gt;st024 -->
<g id="edge28" class="edge">
<title>st024&#45;&gt;st024</title>
<path fill="none" stroke="black" d="M1177.32,-354.18C1176.55,-363.91 1182.28,-372 1194.5,-372 1202.14,-372 1207.24,-368.84 1209.8,-364.09"/>
<polygon fill="black" stroke="black" points="1213.26,-364.65 1211.68,-354.18 1206.38,-363.35 1213.26,-364.65"/>
<text text-anchor="start" x="1182.5" y="-375.8" font-family="arial" font-size="14.00" fill="#377eb8">true</text>
</g>
<!-- st024&#45;&gt;st0124 -->
<g id="edge30" class="edge">
<title>st024&#45;&gt;st0124</title>
<path fill="none" stroke="black" d="M1136.75,-303.9C1121.09,-296.56 1104.23,-288.28 1089,-280 1078.53,-274.3 1067.53,-267.79 1057.19,-261.41"/>
<polygon fill="black" stroke="black" points="1059.02,-258.43 1048.68,-256.11 1055.32,-264.37 1059.02,-258.43"/>
<text text-anchor="start" x="1089" y="-294.8" font-family="arial" font-size="14.00" fill="#377eb8">true</text>
</g>
<!-- st0235 -->
<g id="node11" class="node">
<title>st0235</title>
<polygon fill="none" stroke="black" points="1620,-281 1497,-281 1497,-231 1620,-231 1620,-281"/>
<text text-anchor="start" x="1537" y="-266.8" font-family="arial" font-weight="bold" font-size="14.00">st0235</text>
<text text-anchor="start" x="1505" y="-252.8" font-family="arial" font-size="14.00" fill="#984ea3">(!Q &amp;&amp; (!R &amp;&amp; S))</text>
<text text-anchor="start" x="1546.5" y="-238.8" font-family="arial" font-size="14.00" fill="#ff7f00">true</text>
</g>
<!-- st024&#45;&gt;st0235 -->
<g id="edge29" class="edge">
<title>st024&#45;&gt;st0235</title>
<path fill="none" stroke="black" d="M1248.7,-303.94C1269.83,-294.99 1294.64,-285.72 1318,-280 1373.7,-266.36 1438.51,-260.44 1486.66,-257.89"/>
<polygon fill="black" stroke="black" points="1486.85,-261.39 1496.67,-257.4 1486.51,-254.4 1486.85,-261.39"/>
<text text-anchor="start" x="1365.5" y="-283.8" font-family="arial" font-size="14.00" fill="#377eb8">true</text>
</g>
<!-- st01235 -->
<g id="node12" class="node">
<title>st01235</title>
<polygon fill="none" stroke="black" points="1437,-354 1318,-354 1318,-304 1437,-304 1437,-354"/>
<text text-anchor="start" x="1352.5" y="-339.8" font-family="arial" font-weight="bold" font-size="14.00">st01235</text>
<text text-anchor="start" x="1326" y="-325.8" font-family="arial" font-size="14.00" fill="#984ea3">(Q &amp;&amp; (!R &amp;&amp; S))</text>
<text text-anchor="start" x="1365.5" y="-311.8" font-family="arial" font-size="14.00" fill="#ff7f00">true</text>
</g>
<!-- st024&#45;&gt;st01235 -->
<g id="edge31" class="edge">
<title>st024&#45;&gt;st01235</title>
<path fill="none" stroke="black" d="M1258.04,-329C1274.12,-329 1291.5,-329 1307.87,-329"/>
<polygon fill="black" stroke="black" points="1307.91,-332.5 1317.91,-329 1307.91,-325.5 1307.91,-332.5"/>
<text text-anchor="start" x="1276" y="-332.8" font-family="arial" font-size="14.00" fill="#377eb8">true</text>
</g>
<!-- st0124&#45;&gt;st0 -->
<g id="edge32" class="edge">
<title>st0124&#45;&gt;st0</title>
<path fill="none" stroke="black" d="M961.48,-206C903.72,-176.45 801.93,-128.13 709,-103 643.28,-85.23 625.08,-84 557,-84 276.5,-84 276.5,-84 276.5,-84 209.47,-84 162.21,-158.81 139.61,-204.48"/>
<polygon fill="black" stroke="black" points="136.33,-203.22 135.16,-213.75 142.64,-206.25 136.33,-203.22"/>
<text text-anchor="start" x="549.5" y="-87.8" font-family="arial" font-size="14.00" fill="#377eb8">R&#39;</text>
</g>
<!-- st0124&#45;&gt;st024 -->
<g id="edge33" class="edge">
<title>st0124&#45;&gt;st024</title>
<path fill="none" stroke="black" d="M1071.24,-244.25C1085.4,-248.56 1100.1,-254.07 1113,-261 1130.68,-270.5 1147.98,-284.34 1161.99,-297.06"/>
<polygon fill="black" stroke="black" points="1159.72,-299.72 1169.42,-303.98 1164.49,-294.6 1159.72,-299.72"/>
<text text-anchor="start" x="1089" y="-264.8" font-family="arial" font-size="14.00" fill="#377eb8">true</text>
</g>
<!-- st0124&#45;&gt;st0124 -->
<g id="edge35" class="edge">
<title>st0124&#45;&gt;st0124</title>
<path fill="none" stroke="black" d="M992.69,-256.18C991.94,-265.91 997.55,-274 1009.5,-274 1016.97,-274 1021.96,-270.84 1024.47,-266.09"/>
<polygon fill="black" stroke="black" points="1027.93,-266.65 1026.31,-256.18 1021.04,-265.37 1027.93,-266.65"/>
<text text-anchor="start" x="997.5" y="-277.8" font-family="arial" font-size="14.00" fill="#377eb8">true</text>
</g>
<!-- st0124&#45;&gt;st0235 -->
<g id="edge34" class="edge">
<title>st0124&#45;&gt;st0235</title>
<path fill="none" stroke="black" d="M1071.13,-233.77C1172.99,-238.43 1377.94,-247.79 1486.41,-252.75"/>
<polygon fill="black" stroke="black" points="1486.45,-256.26 1496.6,-253.22 1486.77,-249.26 1486.45,-256.26"/>
<text text-anchor="start" x="1276" y="-247.8" font-family="arial" font-size="14.00" fill="#377eb8">true</text>
</g>
<!-- st0124&#45;&gt;st01235 -->
<g id="edge36" class="edge">
<title>st0124&#45;&gt;st01235</title>
<path fill="none" stroke="black" d="M1071.08,-238.99C1084.89,-241.06 1099.48,-243.43 1113,-246 1178.03,-258.36 1194.99,-259.73 1258,-280 1275.7,-285.69 1294.47,-292.89 1311.72,-300"/>
<polygon fill="black" stroke="black" points="1310.56,-303.31 1321.13,-303.93 1313.25,-296.85 1310.56,-303.31"/>
<text text-anchor="start" x="1182.5" y="-283.8" font-family="arial" font-size="14.00" fill="#377eb8">true</text>
</g>
<!-- st0235&#45;&gt;st0 -->
<g id="edge37" class="edge">
<title>st0235&#45;&gt;st0</title>
<path fill="none" stroke="black" d="M1549.45,-230.67C1529.95,-174.82 1474.55,-46 1378.5,-46 276.5,-46 276.5,-46 276.5,-46 197,-46 152.69,-148.32 134.47,-203.96"/>
<polygon fill="black" stroke="black" points="131.04,-203.18 131.37,-213.77 137.72,-205.29 131.04,-203.18"/>
<text text-anchor="start" x="822" y="-49.8" font-family="arial" font-size="14.00" fill="#377eb8">R&#39;</text>
</g>
<!-- st0235&#45;&gt;st0235 -->
<g id="edge39" class="edge">
<title>st0235&#45;&gt;st0235</title>
<path fill="none" stroke="black" d="M1541.69,-281.18C1540.94,-290.91 1546.55,-299 1558.5,-299 1565.97,-299 1570.96,-295.84 1573.47,-291.09"/>
<polygon fill="black" stroke="black" points="1576.93,-291.65 1575.31,-281.18 1570.04,-290.37 1576.93,-291.65"/>
<text text-anchor="start" x="1546.5" y="-302.8" font-family="arial" font-size="14.00" fill="#377eb8">true</text>
</g>
<!-- st0235&#45;&gt;st01235 -->
<g id="edge41" class="edge">
<title>st0235&#45;&gt;st01235</title>
<path fill="none" stroke="black" d="M1522.48,-281.25C1509.35,-289.79 1493.97,-298.74 1479,-305 1468.93,-309.21 1457.96,-312.78 1447.1,-315.77"/>
<polygon fill="black" stroke="black" points="1445.98,-312.45 1437.18,-318.35 1447.74,-319.22 1445.98,-312.45"/>
<text text-anchor="start" x="1455" y="-316.8" font-family="arial" font-size="14.00" fill="#377eb8">true</text>
</g>
<!-- st0246 -->
<g id="node13" class="node">
<title>st0246</title>
<polygon fill="none" stroke="black" points="1990,-357 1863,-357 1863,-307 1990,-307 1990,-357"/>
<text text-anchor="start" x="1905" y="-342.8" font-family="arial" font-weight="bold" font-size="14.00">st0246</text>
<text text-anchor="start" x="1871" y="-328.8" font-family="arial" font-size="14.00" fill="#984ea3">(!Q &amp;&amp; (!R &amp;&amp; !S))</text>
<text text-anchor="start" x="1914.5" y="-314.8" font-family="arial" font-size="14.00" fill="#ff7f00">true</text>
</g>
<!-- st0235&#45;&gt;st0246 -->
<g id="edge38" class="edge">
<title>st0235&#45;&gt;st0246</title>
<path fill="none" stroke="black" d="M1612.12,-281.09C1632.84,-289.98 1657.12,-299.21 1680,-305 1736.95,-319.41 1803.26,-326.13 1852.6,-329.26"/>
<polygon fill="black" stroke="black" points="1852.67,-332.77 1862.86,-329.88 1853.08,-325.79 1852.67,-332.77"/>
<text text-anchor="start" x="1729.5" y="-328.8" font-family="arial" font-size="14.00" fill="#377eb8">true</text>
</g>
<!-- st01246 -->
<g id="node14" class="node">
<title>st01246</title>
<polygon fill="none" stroke="black" points="1803,-263 1680,-263 1680,-213 1803,-213 1803,-263"/>
<text text-anchor="start" x="1716.5" y="-248.8" font-family="arial" font-weight="bold" font-size="14.00">st01246</text>
<text text-anchor="start" x="1688" y="-234.8" font-family="arial" font-size="14.00" fill="#984ea3">(Q &amp;&amp; (!R &amp;&amp; !S))</text>
<text text-anchor="start" x="1729.5" y="-220.8" font-family="arial" font-size="14.00" fill="#ff7f00">true</text>
</g>
<!-- st0235&#45;&gt;st01246 -->
<g id="edge40" class="edge">
<title>st0235&#45;&gt;st01246</title>
<path fill="none" stroke="black" d="M1620.02,-249.98C1635.94,-248.4 1653.25,-246.68 1669.65,-245.05"/>
<polygon fill="black" stroke="black" points="1670.12,-248.52 1679.73,-244.04 1669.43,-241.55 1670.12,-248.52"/>
<text text-anchor="start" x="1638" y="-251.8" font-family="arial" font-size="14.00" fill="#377eb8">true</text>
</g>
<!-- st01235&#45;&gt;st0 -->
<g id="edge42" class="edge">
<title>st01235&#45;&gt;st0</title>
<path fill="none" stroke="black" d="M1336.48,-354.21C1279.93,-388.19 1172.19,-446.98 1071,-469 847.42,-517.65 785.81,-498 557,-498 276.5,-498 276.5,-498 276.5,-498 174.09,-498 139.35,-345.53 128.73,-274.56"/>
<polygon fill="black" stroke="black" points="132.14,-273.72 127.28,-264.31 125.21,-274.7 132.14,-273.72"/>
<text text-anchor="start" x="732.5" y="-504.8" font-family="arial" font-size="14.00" fill="#377eb8">R&#39;</text>
</g>
<!-- st01235&#45;&gt;st0235 -->
<g id="edge44" class="edge">
<title>st01235&#45;&gt;st0235</title>
<path fill="none" stroke="black" d="M1419.32,-303.8C1430.62,-297.45 1443.06,-291.02 1455,-286 1465.24,-281.69 1476.31,-277.75 1487.25,-274.25"/>
<polygon fill="black" stroke="black" points="1488.3,-277.59 1496.81,-271.29 1486.22,-270.9 1488.3,-277.59"/>
<text text-anchor="start" x="1455" y="-289.8" font-family="arial" font-size="14.00" fill="#377eb8">true</text>
</g>
<!-- st01235&#45;&gt;st01235 -->
<g id="edge46" class="edge">
<title>st01235&#45;&gt;st01235</title>
<path fill="none" stroke="black" d="M1361.06,-354.18C1360.33,-363.91 1365.81,-372 1377.5,-372 1384.8,-372 1389.68,-368.84 1392.14,-364.09"/>
<polygon fill="black" stroke="black" points="1395.6,-364.64 1393.94,-354.18 1388.71,-363.39 1395.6,-364.64"/>
<text text-anchor="start" x="1365.5" y="-375.8" font-family="arial" font-size="14.00" fill="#377eb8">true</text>
</g>
<!-- st01235&#45;&gt;st0246 -->
<g id="edge43" class="edge">
<title>st01235&#45;&gt;st0246</title>
<path fill="none" stroke="black" d="M1437.13,-348.45C1443.13,-350.12 1449.16,-351.68 1455,-353 1473.39,-357.17 1478.19,-357.66 1497,-359 1621.86,-367.87 1767.28,-353.49 1852.57,-342.54"/>
<polygon fill="black" stroke="black" points="1853.21,-345.99 1862.67,-341.22 1852.3,-339.05 1853.21,-345.99"/>
<text text-anchor="start" x="1638" y="-363.8" font-family="arial" font-size="14.00" fill="#377eb8">true</text>
</g>
<!-- st01235&#45;&gt;st01246 -->
<g id="edge45" class="edge">
<title>st01235&#45;&gt;st01246</title>
<path fill="none" stroke="black" d="M1437.41,-337.48C1487.47,-342.38 1560.47,-343.99 1620,-323 1652.4,-311.58 1683.94,-288.78 1706.62,-269.66"/>
<polygon fill="black" stroke="black" points="1708.97,-272.26 1714.26,-263.08 1704.4,-266.96 1708.97,-272.26"/>
<text text-anchor="start" x="1546.5" y="-343.8" font-family="arial" font-size="14.00" fill="#377eb8">true</text>
</g>
<!-- st0246&#45;&gt;st0 -->
<g id="edge47" class="edge">
<title>st0246&#45;&gt;st0</title>
<path fill="none" stroke="black" d="M1917.02,-357.09C1896.57,-412.41 1838.94,-540 1742.5,-540 276.5,-540 276.5,-540 276.5,-540 158.56,-540 132.12,-353.6 126.2,-274.17"/>
<polygon fill="black" stroke="black" points="129.69,-273.89 125.52,-264.15 122.7,-274.36 129.69,-273.89"/>
<text text-anchor="start" x="1003" y="-543.8" font-family="arial" font-size="14.00" fill="#377eb8">R&#39;</text>
</g>
<!-- st0246&#45;&gt;st0246 -->
<g id="edge48" class="edge">
<title>st0246&#45;&gt;st0246</title>
<path fill="none" stroke="black" d="M1909.32,-357.18C1908.55,-366.91 1914.28,-375 1926.5,-375 1934.14,-375 1939.24,-371.84 1941.8,-367.09"/>
<polygon fill="black" stroke="black" points="1945.26,-367.65 1943.68,-357.18 1938.38,-366.35 1945.26,-367.65"/>
<text text-anchor="start" x="1914.5" y="-378.8" font-family="arial" font-size="14.00" fill="#377eb8">true</text>
</g>
<!-- st0246&#45;&gt;st01246 -->
<g id="edge50" class="edge">
<title>st0246&#45;&gt;st01246</title>
<path fill="none" stroke="black" d="M1874.32,-306.91C1857.3,-298.47 1838.29,-288.92 1821,-280 1813.5,-276.13 1805.62,-272 1797.88,-267.89"/>
<polygon fill="black" stroke="black" points="1799.34,-264.71 1788.87,-263.1 1796.06,-270.89 1799.34,-264.71"/>
<text text-anchor="start" x="1821" y="-294.8" font-family="arial" font-size="14.00" fill="#377eb8">true</text>
</g>
<!-- st023578 -->
<g id="node15" class="node">
<title>st023578</title>
<polygon fill="none" stroke="black" points="2352,-284 2229,-284 2229,-234 2352,-234 2352,-284"/>
<text text-anchor="start" x="2261.5" y="-269.8" font-family="arial" font-weight="bold" font-size="14.00">st023578</text>
<text text-anchor="start" x="2237" y="-255.8" font-family="arial" font-size="14.00" fill="#984ea3">(!Q &amp;&amp; (!R &amp;&amp; S))</text>
<text text-anchor="start" x="2278.5" y="-241.8" font-family="arial" font-size="14.00" fill="#ff7f00">true</text>
</g>
<!-- st0246&#45;&gt;st023578 -->
<g id="edge49" class="edge">
<title>st0246&#45;&gt;st023578</title>
<path fill="none" stroke="black" d="M1990.23,-314.84C2042.5,-301.13 2119.11,-282.38 2187,-271 2197.24,-269.28 2208.1,-267.73 2218.78,-266.35"/>
<polygon fill="black" stroke="black" points="2219.44,-269.8 2228.93,-265.08 2218.57,-262.85 2219.44,-269.8"/>
<text text-anchor="start" x="2097.5" y="-302.8" font-family="arial" font-size="14.00" fill="#377eb8">true</text>
</g>
<!-- st0123578 -->
<g id="node16" class="node">
<title>st0123578</title>
<polygon fill="none" stroke="black" points="2169,-375 2050,-375 2050,-325 2169,-325 2169,-375"/>
<text text-anchor="start" x="2077" y="-360.8" font-family="arial" font-weight="bold" font-size="14.00">st0123578</text>
<text text-anchor="start" x="2058" y="-346.8" font-family="arial" font-size="14.00" fill="#984ea3">(Q &amp;&amp; (!R &amp;&amp; S))</text>
<text text-anchor="start" x="2097.5" y="-332.8" font-family="arial" font-size="14.00" fill="#ff7f00">true</text>
</g>
<!-- st0246&#45;&gt;st0123578 -->
<g id="edge51" class="edge">
<title>st0246&#45;&gt;st0123578</title>
<path fill="none" stroke="black" d="M1990.04,-338.22C2006.12,-339.82 2023.5,-341.55 2039.87,-343.18"/>
<polygon fill="black" stroke="black" points="2039.61,-346.67 2049.91,-344.17 2040.31,-339.7 2039.61,-346.67"/>
<text text-anchor="start" x="2008" y="-345.8" font-family="arial" font-size="14.00" fill="#377eb8">true</text>
</g>
<!-- st01246&#45;&gt;st0 -->
<g id="edge52" class="edge">
<title>st01246&#45;&gt;st0</title>
<path fill="none" stroke="black" d="M1734.36,-212.98C1717.71,-151.87 1665.66,0 1559.5,0 276.5,0 276.5,0 276.5,0 181.05,0 142.96,-137.42 130.12,-203.85"/>
<polygon fill="black" stroke="black" points="126.64,-203.41 128.27,-213.87 133.53,-204.68 126.64,-203.41"/>
<text text-anchor="start" x="911.5" y="-3.8" font-family="arial" font-size="14.00" fill="#377eb8">R&#39;</text>
</g>
<!-- st01246&#45;&gt;st0246 -->
<g id="edge53" class="edge">
<title>st01246&#45;&gt;st0246</title>
<path fill="none" stroke="black" d="M1803.07,-246.33C1817.31,-249.7 1832.08,-254.41 1845,-261 1863.77,-270.57 1881.66,-285.54 1895.79,-299.27"/>
<polygon fill="black" stroke="black" points="1893.69,-302.12 1903.23,-306.73 1898.65,-297.18 1893.69,-302.12"/>
<text text-anchor="start" x="1821" y="-264.8" font-family="arial" font-size="14.00" fill="#377eb8">true</text>
</g>
<!-- st01246&#45;&gt;st01246 -->
<g id="edge55" class="edge">
<title>st01246&#45;&gt;st01246</title>
<path fill="none" stroke="black" d="M1724.69,-263.18C1723.94,-272.91 1729.55,-281 1741.5,-281 1748.97,-281 1753.96,-277.84 1756.47,-273.09"/>
<polygon fill="black" stroke="black" points="1759.93,-273.65 1758.31,-263.18 1753.04,-272.37 1759.93,-273.65"/>
<text text-anchor="start" x="1729.5" y="-284.8" font-family="arial" font-size="14.00" fill="#377eb8">true</text>
</g>
<!-- st01246&#45;&gt;st023578 -->
<g id="edge54" class="edge">
<title>st01246&#45;&gt;st023578</title>
<path fill="none" stroke="black" d="M1803.21,-238.28C1816.95,-238.43 1831.48,-238.65 1845,-239 1977.04,-242.38 2130.98,-250.16 2218.67,-254.96"/>
<polygon fill="black" stroke="black" points="2218.6,-258.47 2228.77,-255.52 2218.98,-251.48 2218.6,-258.47"/>
<text text-anchor="start" x="2008" y="-248.8" font-family="arial" font-size="14.00" fill="#377eb8">true</text>
</g>
<!-- st01246&#45;&gt;st0123578 -->
<g id="edge56" class="edge">
<title>st01246&#45;&gt;st0123578</title>
<path fill="none" stroke="black" d="M1803.13,-241.75C1816.94,-243.04 1831.52,-244.75 1845,-247 1910.49,-257.94 1928.48,-258.02 1990,-283 2018.6,-294.61 2023.12,-302.81 2050,-318 2051.13,-318.64 2052.28,-319.29 2053.44,-319.94"/>
<polygon fill="black" stroke="black" points="2052.01,-323.15 2062.45,-324.96 2055.42,-317.04 2052.01,-323.15"/>
<text text-anchor="start" x="1914.5" y="-286.8" font-family="arial" font-size="14.00" fill="#377eb8">true</text>
</g>
<!-- st023578&#45;&gt;st023578 -->
<g id="edge66" class="edge">
<title>st023578&#45;&gt;st023578</title>
<path fill="none" stroke="black" d="M2273.69,-284.18C2272.94,-293.91 2278.55,-302 2290.5,-302 2297.97,-302 2302.96,-298.84 2305.47,-294.09"/>
<polygon fill="black" stroke="black" points="2308.93,-294.65 2307.31,-284.18 2302.04,-293.37 2308.93,-294.65"/>
<text text-anchor="start" x="2278.5" y="-305.8" font-family="arial" font-size="14.00" fill="#377eb8">true</text>
</g>
<!-- st023578&#45;&gt;st0123578 -->
<g id="edge68" class="edge">
<title>st023578&#45;&gt;st0123578</title>
<path fill="none" stroke="black" d="M2248.42,-284.21C2236.5,-291.21 2223.36,-298.64 2211,-305 2200.58,-310.37 2189.38,-315.75 2178.38,-320.82"/>
<polygon fill="black" stroke="black" points="2176.85,-317.67 2169.2,-325.01 2179.75,-324.04 2176.85,-317.67"/>
<text text-anchor="start" x="2187" y="-318.8" font-family="arial" font-size="14.00" fill="#377eb8">true</text>
</g>
<!-- st02468 -->
<g id="node17" class="node">
<title>st02468</title>
<polygon fill="none" stroke="black" points="2722,-367 2595,-367 2595,-317 2722,-317 2722,-367"/>
<text text-anchor="start" x="2633.5" y="-352.8" font-family="arial" font-weight="bold" font-size="14.00">st02468</text>
<text text-anchor="start" x="2603" y="-338.8" font-family="arial" font-size="14.00" fill="#984ea3">(!Q &amp;&amp; (!R &amp;&amp; !S))</text>
<text text-anchor="start" x="2646.5" y="-324.8" font-family="arial" font-size="14.00" fill="#ff7f00">true</text>
</g>
<!-- st023578&#45;&gt;st02468 -->
<g id="edge65" class="edge">
<title>st023578&#45;&gt;st02468</title>
<path fill="none" stroke="black" d="M2352.2,-245.6C2402.49,-237.16 2475.17,-231.21 2535,-251 2570.03,-262.59 2603.2,-288.5 2626.16,-309.72"/>
<polygon fill="black" stroke="black" points="2623.88,-312.37 2633.55,-316.71 2628.69,-307.29 2623.88,-312.37"/>
<text text-anchor="start" x="2461.5" y="-254.8" font-family="arial" font-size="14.00" fill="#377eb8">true</text>
</g>
<!-- st012468 -->
<g id="node18" class="node">
<title>st012468</title>
<polygon fill="none" stroke="black" points="2535,-367 2412,-367 2412,-317 2535,-317 2535,-367"/>
<text text-anchor="start" x="2444.5" y="-352.8" font-family="arial" font-weight="bold" font-size="14.00">st012468</text>
<text text-anchor="start" x="2420" y="-338.8" font-family="arial" font-size="14.00" fill="#984ea3">(Q &amp;&amp; (!R &amp;&amp; !S))</text>
<text text-anchor="start" x="2461.5" y="-324.8" font-family="arial" font-size="14.00" fill="#ff7f00">true</text>
</g>
<!-- st023578&#45;&gt;st012468 -->
<g id="edge67" class="edge">
<title>st023578&#45;&gt;st012468</title>
<path fill="none" stroke="black" d="M2331.07,-284.09C2343.3,-291.32 2356.98,-298.9 2370,-305 2380.27,-309.81 2391.35,-314.4 2402.3,-318.6"/>
<polygon fill="black" stroke="black" points="2401.27,-321.96 2411.86,-322.19 2403.73,-315.4 2401.27,-321.96"/>
<text text-anchor="start" x="2370" y="-317.8" font-family="arial" font-size="14.00" fill="#377eb8">true</text>
</g>
<!-- st0123578&#45;&gt;st023578 -->
<g id="edge70" class="edge">
<title>st0123578&#45;&gt;st023578</title>
<path fill="none" stroke="black" d="M2134.99,-324.68C2149.08,-311.43 2167.77,-295.94 2187,-286 2196.99,-280.84 2208.05,-276.6 2219.1,-273.14"/>
<polygon fill="black" stroke="black" points="2220.17,-276.47 2228.78,-270.3 2218.2,-269.76 2220.17,-276.47"/>
<text text-anchor="start" x="2187" y="-289.8" font-family="arial" font-size="14.00" fill="#377eb8">true</text>
</g>
<!-- st0123578&#45;&gt;st0123578 -->
<g id="edge72" class="edge">
<title>st0123578&#45;&gt;st0123578</title>
<path fill="none" stroke="black" d="M2093.06,-375.18C2092.33,-384.91 2097.81,-393 2109.5,-393 2116.8,-393 2121.68,-389.84 2124.14,-385.09"/>
<polygon fill="black" stroke="black" points="2127.6,-385.64 2125.94,-375.18 2120.71,-384.39 2127.6,-385.64"/>
<text text-anchor="start" x="2097.5" y="-396.8" font-family="arial" font-size="14.00" fill="#377eb8">true</text>
</g>
<!-- st0123578&#45;&gt;st02468 -->
<g id="edge69" class="edge">
<title>st0123578&#45;&gt;st02468</title>
<path fill="none" stroke="black" d="M2169.32,-372.35C2252.01,-400.58 2406.86,-441.75 2535,-409 2563.09,-401.82 2591.68,-386.72 2614.16,-372.67"/>
<polygon fill="black" stroke="black" points="2616.25,-375.49 2622.78,-367.15 2612.47,-369.6 2616.25,-375.49"/>
<text text-anchor="start" x="2370" y="-422.8" font-family="arial" font-size="14.00" fill="#377eb8">true</text>
</g>
<!-- st0123578&#45;&gt;st012468 -->
<g id="edge71" class="edge">
<title>st0123578&#45;&gt;st012468</title>
<path fill="none" stroke="black" d="M2169.34,-359.6C2175.3,-360.46 2181.26,-361.28 2187,-362 2259.78,-371.17 2278.97,-372.89 2352,-366 2370.92,-364.21 2375.36,-361.68 2394,-358 2396.51,-357.51 2399.06,-357 2401.64,-356.49"/>
<polygon fill="black" stroke="black" points="2402.54,-359.88 2411.66,-354.48 2401.17,-353.01 2402.54,-359.88"/>
<text text-anchor="start" x="2278.5" y="-373.8" font-family="arial" font-size="14.00" fill="#377eb8">true</text>
</g>
<!-- st02468&#45;&gt;st023578 -->
<g id="edge58" class="edge">
<title>st02468&#45;&gt;st023578</title>
<path fill="none" stroke="black" d="M2602.97,-316.9C2582.09,-308.17 2557.8,-299.06 2535,-293 2477.9,-277.83 2411.37,-269.13 2362.29,-264.33"/>
<polygon fill="black" stroke="black" points="2362.38,-260.82 2352.1,-263.37 2361.72,-267.79 2362.38,-260.82"/>
<text text-anchor="start" x="2461.5" y="-296.8" font-family="arial" font-size="14.00" fill="#377eb8">true</text>
</g>
<!-- st02468&#45;&gt;st0123578 -->
<g id="edge60" class="edge">
<title>st02468&#45;&gt;st0123578</title>
<path fill="none" stroke="black" d="M2649.33,-367C2638.2,-396.48 2615.16,-444.1 2577,-465 2424.98,-548.27 2339.33,-547.7 2187,-465 2155.66,-447.98 2134.91,-411.92 2123.03,-384.69"/>
<polygon fill="black" stroke="black" points="2126.12,-383 2119.05,-375.11 2119.65,-385.68 2126.12,-383"/>
<text text-anchor="start" x="2370" y="-530.8" font-family="arial" font-size="14.00" fill="#377eb8">true</text>
</g>
<!-- st02468&#45;&gt;st02468 -->
<g id="edge57" class="edge">
<title>st02468&#45;&gt;st02468</title>
<path fill="none" stroke="black" d="M2641.32,-367.18C2640.55,-376.91 2646.28,-385 2658.5,-385 2666.14,-385 2671.24,-381.84 2673.8,-377.09"/>
<polygon fill="black" stroke="black" points="2677.26,-377.65 2675.68,-367.18 2670.38,-376.35 2677.26,-377.65"/>
<text text-anchor="start" x="2646.5" y="-388.8" font-family="arial" font-size="14.00" fill="#377eb8">true</text>
</g>
<!-- st02468&#45;&gt;st012468 -->
<g id="edge59" class="edge">
<title>st02468&#45;&gt;st012468</title>
<path fill="none" stroke="black" d="M2594.79,-342C2578.82,-342 2561.55,-342 2545.21,-342"/>
<polygon fill="black" stroke="black" points="2545.18,-338.5 2535.18,-342 2545.18,-345.5 2545.18,-338.5"/>
<text text-anchor="start" x="2553" y="-345.8" font-family="arial" font-size="14.00" fill="#377eb8">true</text>
</g>
<!-- st012468&#45;&gt;st023578 -->
<g id="edge62" class="edge">
<title>st012468&#45;&gt;st023578</title>
<path fill="none" stroke="black" d="M2439.38,-316.95C2425.84,-307.55 2409.68,-297.37 2394,-290 2383.85,-285.23 2372.79,-280.99 2361.82,-277.28"/>
<polygon fill="black" stroke="black" points="2362.81,-273.93 2352.22,-274.17 2360.65,-280.59 2362.81,-273.93"/>
<text text-anchor="start" x="2370" y="-293.8" font-family="arial" font-size="14.00" fill="#377eb8">true</text>
</g>
<!-- st012468&#45;&gt;st0123578 -->
<g id="edge64" class="edge">
<title>st012468&#45;&gt;st0123578</title>
<path fill="none" stroke="black" d="M2411.91,-343.34C2347.64,-344.76 2246.3,-347 2179.13,-348.48"/>
<polygon fill="black" stroke="black" points="2178.98,-344.99 2169.06,-348.71 2179.14,-351.98 2178.98,-344.99"/>
<text text-anchor="start" x="2278.5" y="-350.8" font-family="arial" font-size="14.00" fill="#377eb8">true</text>
</g>
<!-- st012468&#45;&gt;st02468 -->
<g id="edge61" class="edge">
<title>st012468&#45;&gt;st02468</title>
<path fill="none" stroke="black" d="M2535.1,-325.83C2541.11,-324.68 2547.15,-323.7 2553,-323 2563.34,-321.77 2574.2,-322 2584.85,-323.12"/>
<polygon fill="black" stroke="black" points="2584.6,-326.61 2594.97,-324.44 2585.51,-319.67 2584.6,-326.61"/>
<text text-anchor="start" x="2553" y="-326.8" font-family="arial" font-size="14.00" fill="#377eb8">true</text>
</g>
<!-- st012468&#45;&gt;st012468 -->
<g id="edge63" class="edge">
<title>st012468&#45;&gt;st012468</title>
<path fill="none" stroke="black" d="M2456.69,-367.18C2455.94,-376.91 2461.55,-385 2473.5,-385 2480.97,-385 2485.96,-381.84 2488.47,-377.09"/>
<polygon fill="black" stroke="black" points="2491.93,-377.65 2490.31,-367.18 2485.04,-376.37 2491.93,-377.65"/>
<text text-anchor="start" x="2461.5" y="-388.8" font-family="arial" font-size="14.00" fill="#377eb8">true</text>
</g>
</g>
</svg>
