<?xml version="1.0" encoding="UTF-8" standalone="no"?>
<!DOCTYPE svg PUBLIC "-//W3C//DTD SVG 1.1//EN"
 "http://www.w3.org/Graphics/SVG/1.1/DTD/svg11.dtd">
<!-- Generated by graphviz version 2.43.0 (0)
 -->
<!-- Title: G Pages: 1 -->
<svg width="1062pt" height="174pt"
 viewBox="0.00 0.00 1062.00 173.92" xmlns="http://www.w3.org/2000/svg" xmlns:xlink="http://www.w3.org/1999/xlink">
<g id="graph0" class="graph" transform="scale(1 1) rotate(0) translate(4 169.92)">
<title>G</title>
<polygon fill="white" stroke="transparent" points="-4,4 -4,-169.92 1058,-169.92 1058,4 -4,4"/>
<!-- _ID_79_ct0_st0 -->
<!-- ID_79_ct0_st0 -->
<g id="node2" class="node">
<title>ID_79_ct0_st0</title>
<polygon fill="none" stroke="black" points="261,-114.92 154,-114.92 154,-64.92 261,-64.92 261,-114.92"/>
<text text-anchor="start" x="162" y="-100.72" font-family="arial" font-weight="bold" font-size="14.00">ID_79_ct0_st0</text>
<text text-anchor="start" x="202.5" y="-86.72" font-family="arial" font-size="14.00" fill="#984ea3">R</text>
<text text-anchor="start" x="195.5" y="-72.72" font-family="arial" font-size="14.00" fill="#ff7f00">true</text>
</g>
<!-- _ID_79_ct0_st0&#45;&gt;ID_79_ct0_st0 -->
<g id="edge1" class="edge">
<title>_ID_79_ct0_st0&#45;&gt;ID_79_ct0_st0</title>
<path fill="none" stroke="black" d="M111.08,-89.92C121.62,-89.92 132.74,-89.92 143.52,-89.92"/>
<polygon fill="black" stroke="black" points="143.72,-93.42 153.72,-89.92 143.72,-86.42 143.72,-93.42"/>
</g>
<!-- ID_79_ct0_st0&#45;&gt;ID_79_ct0_st0 -->
<g id="edge3" class="edge">
<title>ID_79_ct0_st0&#45;&gt;ID_79_ct0_st0</title>
<path fill="none" stroke="black" d="M192.93,-115.09C192.28,-124.83 197.14,-132.92 207.5,-132.92 213.97,-132.92 218.3,-129.76 220.47,-125.01"/>
<polygon fill="black" stroke="black" points="223.94,-125.52 222.07,-115.09 217.03,-124.41 223.94,-125.52"/>
<text text-anchor="start" x="195.5" y="-136.72" font-family="arial" font-size="14.00" fill="#377eb8">true</text>
</g>
<!-- ID_79_ct0_st01 -->
<g id="node4" class="node">
<title>ID_79_ct0_st01</title>
<polygon fill="none" stroke="black" points="441,-69.92 327,-69.92 327,-19.92 441,-19.92 441,-69.92"/>
<text text-anchor="start" x="335" y="-55.72" font-family="arial" font-weight="bold" font-size="14.00">ID_79_ct0_st01</text>
<text text-anchor="start" x="377" y="-41.72" font-family="arial" font-size="14.00" fill="#984ea3">!R</text>
<text text-anchor="start" x="372" y="-27.72" font-family="arial" font-size="14.00" fill="#ff7f00">true</text>
</g>
<!-- ID_79_ct0_st0&#45;&gt;ID_79_ct0_st01 -->
<g id="edge4" class="edge">
<title>ID_79_ct0_st0&#45;&gt;ID_79_ct0_st01</title>
<path fill="none" stroke="black" d="M261.33,-76.29C278.85,-71.78 298.57,-66.69 316.95,-61.95"/>
<polygon fill="black" stroke="black" points="317.9,-65.32 326.71,-59.43 316.15,-58.54 317.9,-65.32"/>
<text text-anchor="start" x="285" y="-74.72" font-family="arial" font-size="14.00" fill="#377eb8">true</text>
</g>
<!-- _ID_79_ct0_st01 -->
<!-- _ID_79_ct0_st01&#45;&gt;ID_79_ct0_st01 -->
<g id="edge2" class="edge">
<title>_ID_79_ct0_st01&#45;&gt;ID_79_ct0_st01</title>
<path fill="none" stroke="black" d="M267.09,-34.29C283.08,-35.76 300.51,-37.35 316.89,-38.86"/>
<polygon fill="black" stroke="black" points="316.65,-42.35 326.93,-39.78 317.29,-35.38 316.65,-42.35"/>
</g>
<!-- ID_79_ct0_st01&#45;&gt;ID_79_ct0_st01 -->
<g id="edge7" class="edge">
<title>ID_79_ct0_st01&#45;&gt;ID_79_ct0_st01</title>
<path fill="none" stroke="black" d="M367.94,-70.09C367.22,-79.83 372.58,-87.92 384,-87.92 391.14,-87.92 395.91,-84.76 398.31,-80.01"/>
<polygon fill="black" stroke="black" points="401.76,-80.55 400.06,-70.09 394.87,-79.33 401.76,-80.55"/>
<text text-anchor="start" x="372" y="-91.72" font-family="arial" font-size="14.00" fill="#377eb8">true</text>
</g>
<!-- ID_79_ct0_st02 -->
<g id="node5" class="node">
<title>ID_79_ct0_st02</title>
<polygon fill="none" stroke="black" points="615,-68.92 501,-68.92 501,-18.92 615,-18.92 615,-68.92"/>
<text text-anchor="start" x="509" y="-54.72" font-family="arial" font-weight="bold" font-size="14.00">ID_79_ct0_st02</text>
<text text-anchor="start" x="528" y="-40.72" font-family="arial" font-size="14.00" fill="#984ea3">(!Q &amp;&amp; R)</text>
<text text-anchor="start" x="546" y="-26.72" font-family="arial" font-size="14.00" fill="#ff7f00">true</text>
</g>
<!-- ID_79_ct0_st01&#45;&gt;ID_79_ct0_st02 -->
<g id="edge5" class="edge">
<title>ID_79_ct0_st01&#45;&gt;ID_79_ct0_st02</title>
<path fill="none" stroke="black" d="M441.31,-29.75C447.25,-28.6 453.22,-27.61 459,-26.92 469.33,-25.68 480.22,-25.96 490.85,-27.13"/>
<polygon fill="black" stroke="black" points="490.54,-30.62 500.92,-28.49 491.48,-23.68 490.54,-30.62"/>
<text text-anchor="start" x="459" y="-30.72" font-family="arial" font-size="14.00" fill="#377eb8">true</text>
</g>
<!-- ID_79_ct0_st023 -->
<g id="node6" class="node">
<title>ID_79_ct0_st023</title>
<polygon fill="none" stroke="black" points="1054,-62.92 932,-62.92 932,-12.92 1054,-12.92 1054,-62.92"/>
<text text-anchor="start" x="940" y="-48.72" font-family="arial" font-weight="bold" font-size="14.00">ID_79_ct0_st023</text>
<text text-anchor="start" x="965" y="-34.72" font-family="arial" font-size="14.00" fill="#984ea3">(Q &amp;&amp; R)</text>
<text text-anchor="start" x="981" y="-20.72" font-family="arial" font-size="14.00" fill="#ff7f00">true</text>
</g>
<!-- ID_79_ct0_st01&#45;&gt;ID_79_ct0_st023 -->
<g id="edge6" class="edge">
<title>ID_79_ct0_st01&#45;&gt;ID_79_ct0_st023</title>
<path fill="none" stroke="black" d="M441.18,-24.35C459.94,-18.47 481.13,-12.85 501,-9.92 649.73,12.03 826.16,-9.46 921.81,-25.02"/>
<polygon fill="black" stroke="black" points="921.5,-28.51 931.94,-26.69 922.64,-21.61 921.5,-28.51"/>
<text text-anchor="start" x="663.5" y="-6.72" font-family="arial" font-size="14.00" fill="#377eb8">true</text>
</g>
<!-- ID_79_ct0_st02&#45;&gt;ID_79_ct0_st01 -->
<g id="edge10" class="edge">
<title>ID_79_ct0_st02&#45;&gt;ID_79_ct0_st01</title>
<path fill="none" stroke="black" d="M500.85,-44.24C485.04,-44.34 467.69,-44.44 451.34,-44.53"/>
<polygon fill="black" stroke="black" points="451.3,-41.03 441.32,-44.59 451.34,-48.03 451.3,-41.03"/>
<text text-anchor="start" x="461.5" y="-48.72" font-family="arial" font-size="14.00" fill="#377eb8">!Q&#39;</text>
</g>
<!-- ID_79_ct0_st02&#45;&gt;ID_79_ct0_st02 -->
<g id="edge8" class="edge">
<title>ID_79_ct0_st02&#45;&gt;ID_79_ct0_st02</title>
<path fill="none" stroke="black" d="M541.94,-69.09C541.22,-78.83 546.58,-86.92 558,-86.92 565.14,-86.92 569.91,-83.76 572.31,-79.01"/>
<polygon fill="black" stroke="black" points="575.76,-79.55 574.06,-69.09 568.87,-78.33 575.76,-79.55"/>
<text text-anchor="start" x="546" y="-90.72" font-family="arial" font-size="14.00" fill="#377eb8">true</text>
</g>
<!-- ID_79_ct0_st02&#45;&gt;ID_79_ct0_st023 -->
<g id="edge9" class="edge">
<title>ID_79_ct0_st02&#45;&gt;ID_79_ct0_st023</title>
<path fill="none" stroke="black" d="M615.13,-38.89C621.16,-38.49 627.2,-38.15 633,-37.92 733.16,-33.86 849.18,-34.9 921.58,-36.24"/>
<polygon fill="black" stroke="black" points="921.88,-39.74 931.94,-36.43 922.01,-32.74 921.88,-39.74"/>
<text text-anchor="start" x="785" y="-39.72" font-family="arial" font-size="14.00" fill="#377eb8">true</text>
</g>
<!-- ID_79_ct0_st013 -->
<g id="node7" class="node">
<title>ID_79_ct0_st013</title>
<polygon fill="none" stroke="black" points="858,-132.92 736,-132.92 736,-82.92 858,-82.92 858,-132.92"/>
<text text-anchor="start" x="744" y="-118.72" font-family="arial" font-weight="bold" font-size="14.00">ID_79_ct0_st013</text>
<text text-anchor="start" x="767" y="-104.72" font-family="arial" font-size="14.00" fill="#984ea3">(Q &amp;&amp; !R)</text>
<text text-anchor="start" x="774" y="-90.72" font-family="arial" font-size="14.00" fill="#ff7f00">c0 &lt;= 5</text>
</g>
<!-- ID_79_ct0_st02&#45;&gt;ID_79_ct0_st013 -->
<g id="edge11" class="edge">
<title>ID_79_ct0_st02&#45;&gt;ID_79_ct0_st013</title>
<path fill="none" stroke="black" d="M615.22,-41.27C646.3,-41.5 685.15,-44.6 718,-55.92 731.87,-60.69 745.64,-68.55 757.66,-76.73"/>
<polygon fill="black" stroke="black" points="755.9,-79.77 766.09,-82.7 759.95,-74.06 755.9,-79.77"/>
<text text-anchor="start" x="663.5" y="-74.72" font-family="arial" font-size="14.00" fill="#377eb8">true</text>
<text text-anchor="start" x="656.5" y="-59.72" font-family="arial" font-size="14.00">c0 :=0</text>
</g>
<!-- ID_79_ct0_st023&#45;&gt;ID_79_ct0_st023 -->
<g id="edge16" class="edge">
<title>ID_79_ct0_st023&#45;&gt;ID_79_ct0_st023</title>
<path fill="none" stroke="black" d="M974.7,-63.09C973.88,-72.83 979.98,-80.92 993,-80.92 1001.13,-80.92 1006.57,-77.76 1009.3,-73.01"/>
<polygon fill="black" stroke="black" points="1012.76,-73.59 1011.3,-63.09 1005.89,-72.2 1012.76,-73.59"/>
<text text-anchor="start" x="981" y="-84.72" font-family="arial" font-size="14.00" fill="#377eb8">true</text>
</g>
<!-- ID_79_ct0_st023&#45;&gt;ID_79_ct0_st013 -->
<g id="edge17" class="edge">
<title>ID_79_ct0_st023&#45;&gt;ID_79_ct0_st013</title>
<path fill="none" stroke="black" d="M931.89,-39.42C913.48,-41.39 893.48,-45.11 876,-51.92 860.96,-57.77 846.15,-67.21 833.53,-76.68"/>
<polygon fill="black" stroke="black" points="831.32,-73.96 825.58,-82.87 835.62,-79.48 831.32,-73.96"/>
<text text-anchor="start" x="883" y="-70.72" font-family="arial" font-size="14.00" fill="#377eb8">true</text>
<text text-anchor="start" x="876" y="-55.72" font-family="arial" font-size="14.00">c0 :=0</text>
</g>
<!-- ID_79_ct0_st013&#45;&gt;ID_79_ct0_st01 -->
<g id="edge14" class="edge">
<title>ID_79_ct0_st013&#45;&gt;ID_79_ct0_st01</title>
<path fill="none" stroke="black" d="M735.68,-119.84C729.72,-120.68 723.76,-121.4 718,-121.92 621.81,-130.48 593.25,-139.47 501,-110.92 475.44,-103 449.33,-88.8 428.37,-75.58"/>
<polygon fill="black" stroke="black" points="430.02,-72.48 419.72,-70 426.22,-78.37 430.02,-72.48"/>
<text text-anchor="start" x="535" y="-133.72" font-family="arial" font-size="14.00" fill="#377eb8">c0 &gt;= 5</text>
</g>
<!-- ID_79_ct0_st013&#45;&gt;ID_79_ct0_st02 -->
<g id="edge12" class="edge">
<title>ID_79_ct0_st013&#45;&gt;ID_79_ct0_st02</title>
<path fill="none" stroke="black" d="M735.91,-105.29C704.58,-102.57 666.01,-97.05 633,-85.92 623.86,-82.83 614.56,-78.59 605.79,-73.98"/>
<polygon fill="black" stroke="black" points="607.31,-70.82 596.86,-69.07 603.94,-76.96 607.31,-70.82"/>
<text text-anchor="start" x="633" y="-106.72" font-family="arial" font-size="14.00" fill="#377eb8">(Q&#39; || c0 &gt;= 5)</text>
</g>
<!-- ID_79_ct0_st013&#45;&gt;ID_79_ct0_st023 -->
<g id="edge13" class="edge">
<title>ID_79_ct0_st013&#45;&gt;ID_79_ct0_st023</title>
<path fill="none" stroke="black" d="M858.17,-100.78C876.49,-97.49 896.42,-92.73 914,-85.92 925.82,-81.34 937.83,-74.96 948.78,-68.35"/>
<polygon fill="black" stroke="black" points="950.69,-71.28 957.31,-63.02 946.98,-65.35 950.69,-71.28"/>
<text text-anchor="start" x="883" y="-100.72" font-family="arial" font-size="14.00" fill="#377eb8">true</text>
</g>
<!-- ID_79_ct0_st013&#45;&gt;ID_79_ct0_st013 -->
<g id="edge15" class="edge">
<title>ID_79_ct0_st013&#45;&gt;ID_79_ct0_st013</title>
<path fill="none" stroke="black" d="M778.7,-133.09C777.88,-142.83 783.98,-150.92 797,-150.92 805.13,-150.92 810.57,-147.76 813.3,-143.01"/>
<polygon fill="black" stroke="black" points="816.76,-143.59 815.3,-133.09 809.89,-142.2 816.76,-143.59"/>
<text text-anchor="start" x="778" y="-154.72" font-family="arial" font-size="14.00" fill="#377eb8">c0 &lt; 5</text>
</g>
</g>
</svg>
