<?xml version="1.0" encoding="UTF-8" standalone="no"?>
<!DOCTYPE svg PUBLIC "-//W3C//DTD SVG 1.1//EN"
 "http://www.w3.org/Graphics/SVG/1.1/DTD/svg11.dtd">
<!-- Generated by graphviz version 2.40.1 (20161225.0304)
 -->
<!-- Title: G Pages: 1 -->
<svg width="1502pt" height="621pt"
 viewBox="0.00 0.00 1502.00 621.00" xmlns="http://www.w3.org/2000/svg" xmlns:xlink="http://www.w3.org/1999/xlink">
<g id="graph0" class="graph" transform="scale(1 1) rotate(0) translate(4 617)">
<title>G</title>
<polygon fill="#ffffff" stroke="transparent" points="-4,4 -4,-617 1498,-617 1498,4 -4,4"/>
<!-- _st0 -->
<!-- st0 -->
<g id="node2" class="node">
<title>st0</title>
<polygon fill="none" stroke="#000000" points="159.5,-265 105.5,-265 105.5,-215 159.5,-215 159.5,-265"/>
<text text-anchor="start" x="121.5" y="-250.8" font-family="arial" font-weight="bold" font-size="14.00" fill="#000000">st0</text>
<text text-anchor="start" x="124.5" y="-236.8" font-family="arial" font-size="14.00" fill="#984ea3">!Q</text>
<text text-anchor="start" x="120" y="-222.8" font-family="arial" font-size="14.00" fill="#ff7f00">true</text>
</g>
<!-- _st0&#45;&gt;st0 -->
<g id="edge1" class="edge">
<title>_st0&#45;&gt;st0</title>
<path fill="none" stroke="#000000" d="M54.1689,-240C66.7209,-240 81.8227,-240 95.4026,-240"/>
<polygon fill="#000000" stroke="#000000" points="95.4232,-243.5001 105.4232,-240 95.4232,-236.5001 95.4232,-243.5001"/>
</g>
<!-- st0&#45;&gt;st0 -->
<g id="edge4" class="edge">
<title>st0&#45;&gt;st0</title>
<path fill="none" stroke="#000000" d="M121.2939,-265.1756C120.7959,-274.9095 124.5313,-283 132.5,-283 137.356,-283 140.6399,-279.9957 142.3518,-275.446"/>
<polygon fill="#000000" stroke="#000000" points="145.8686,-275.5474 143.7061,-265.1756 138.9287,-274.6322 145.8686,-275.5474"/>
<text text-anchor="start" x="120" y="-286.8" font-family="arial" font-size="14.00" fill="#377eb8">true</text>
</g>
<!-- st012 -->
<g id="node4" class="node">
<title>st012</title>
<polygon fill="none" stroke="#000000" points="617,-237 540,-237 540,-187 617,-187 617,-237"/>
<text text-anchor="start" x="559.5" y="-222.8" font-family="arial" font-weight="bold" font-size="14.00" fill="#000000">st012</text>
<text text-anchor="start" x="548" y="-208.8" font-family="arial" font-size="14.00" fill="#984ea3">(Q &amp;&amp; !S)</text>
<text text-anchor="start" x="566" y="-194.8" font-family="arial" font-size="14.00" fill="#ff7f00">true</text>
</g>
<!-- st0&#45;&gt;st012 -->
<g id="edge5" class="edge">
<title>st0&#45;&gt;st012</title>
<path fill="none" stroke="#000000" d="M159.7279,-238.2906C233.1011,-233.6842 435.719,-220.9638 529.5897,-215.0706"/>
<polygon fill="#000000" stroke="#000000" points="529.9146,-218.5572 539.6756,-214.4374 529.4759,-211.5709 529.9146,-218.5572"/>
<text text-anchor="start" x="351.5" y="-229.8" font-family="arial" font-size="14.00" fill="#377eb8">true</text>
</g>
<!-- st0123W -->
<g id="node6" class="node">
<title>st0123W</title>
<polygon fill="none" stroke="#000000" points="326,-373 250,-373 250,-323 326,-323 326,-373"/>
<text text-anchor="start" x="258" y="-358.8" font-family="arial" font-weight="bold" font-size="14.00" fill="#000000">st0123W</text>
<text text-anchor="start" x="259" y="-344.8" font-family="arial" font-size="14.00" fill="#984ea3">(Q &amp;&amp; S)</text>
<text text-anchor="start" x="263.5" y="-330.8" font-family="arial" font-size="14.00" fill="#ff7f00">c0 &lt;= 5</text>
</g>
<!-- st0&#45;&gt;st0123W -->
<g id="edge6" class="edge">
<title>st0&#45;&gt;st0123W</title>
<path fill="none" stroke="#000000" d="M159.586,-258.8122C182.6702,-274.8449 216.3081,-298.2076 243.3657,-316.9999"/>
<polygon fill="#000000" stroke="#000000" points="241.6877,-320.0959 251.8976,-322.9257 245.6808,-314.3465 241.6877,-320.0959"/>
<text text-anchor="start" x="199.5" y="-324.8" font-family="arial" font-size="14.00" fill="#377eb8">true</text>
<text text-anchor="start" x="192" y="-309.8" font-family="arial" font-size="14.00" fill="#000000">c0 :=0</text>
</g>
<!-- _st012 -->
<!-- _st012&#45;&gt;st012 -->
<g id="edge2" class="edge">
<title>_st012&#45;&gt;st012</title>
<path fill="none" stroke="#000000" d="M471.1267,-187.1018C488.3696,-191.1002 510.3003,-196.1856 529.8409,-200.7167"/>
<polygon fill="#000000" stroke="#000000" points="529.2719,-204.1776 539.8041,-203.027 530.8532,-197.3585 529.2719,-204.1776"/>
</g>
<!-- st012&#45;&gt;st012 -->
<g id="edge13" class="edge">
<title>st012&#45;&gt;st012</title>
<path fill="none" stroke="#000000" d="M565.7998,-237.1756C565.2354,-246.9095 569.4688,-255 578.5,-255 584.1445,-255 587.9149,-251.8397 589.8111,-247.093"/>
<polygon fill="#000000" stroke="#000000" points="593.2792,-247.5645 591.2002,-237.1756 586.3468,-246.5934 593.2792,-247.5645"/>
<text text-anchor="start" x="566" y="-258.8" font-family="arial" font-size="14.00" fill="#377eb8">true</text>
</g>
<!-- st02 -->
<g id="node7" class="node">
<title>st02</title>
<polygon fill="none" stroke="#000000" points="759,-303 678,-303 678,-253 759,-253 759,-303"/>
<text text-anchor="start" x="703.5" y="-288.8" font-family="arial" font-weight="bold" font-size="14.00" fill="#000000">st02</text>
<text text-anchor="start" x="686" y="-274.8" font-family="arial" font-size="14.00" fill="#984ea3">(!Q &amp;&amp; !S)</text>
<text text-anchor="start" x="706" y="-260.8" font-family="arial" font-size="14.00" fill="#ff7f00">true</text>
</g>
<!-- st012&#45;&gt;st02 -->
<g id="edge11" class="edge">
<title>st012&#45;&gt;st02</title>
<path fill="none" stroke="#000000" d="M607.001,-237.0324C615.5642,-243.6026 625.2785,-250.1875 635,-255 645.3184,-260.1079 656.9343,-264.2179 668.1486,-267.4699"/>
<polygon fill="#000000" stroke="#000000" points="667.2893,-270.8633 677.8574,-270.1104 669.1265,-264.1086 667.2893,-270.8633"/>
<text text-anchor="start" x="635" y="-267.8" font-family="arial" font-size="14.00" fill="#377eb8">true</text>
</g>
<!-- st023X -->
<g id="node8" class="node">
<title>st023X</title>
<polygon fill="none" stroke="#000000" points="1104,-237 1027,-237 1027,-187 1104,-187 1104,-237"/>
<text text-anchor="start" x="1041.5" y="-222.8" font-family="arial" font-weight="bold" font-size="14.00" fill="#000000">st023X</text>
<text text-anchor="start" x="1035" y="-208.8" font-family="arial" font-size="14.00" fill="#984ea3">(!Q &amp;&amp; S)</text>
<text text-anchor="start" x="1041" y="-194.8" font-family="arial" font-size="14.00" fill="#ff7f00">c0 &lt;= 5</text>
</g>
<!-- st012&#45;&gt;st023X -->
<g id="edge12" class="edge">
<title>st012&#45;&gt;st023X</title>
<path fill="none" stroke="#000000" d="M589.6344,-186.5999C599.5498,-165.8378 615.4886,-136.5064 635,-115 681.3917,-63.8647 708.7983,-62.7487 777,-52 880.8367,-35.6351 947.4242,-12.8044 1009,-98 1029.5308,-126.4061 1010.4468,-146.1846 1025.6603,-178.1196"/>
<polygon fill="#000000" stroke="#000000" points="1022.6811,-179.9633 1030.6132,-186.987 1028.7924,-176.5498 1022.6811,-179.9633"/>
<text text-anchor="start" x="803.5" y="-70.8" font-family="arial" font-size="14.00" fill="#377eb8">true</text>
<text text-anchor="start" x="796" y="-55.8" font-family="arial" font-size="14.00" fill="#000000">c0 :=0</text>
</g>
<!-- st0123X -->
<g id="node9" class="node">
<title>st0123X</title>
<polygon fill="none" stroke="#000000" points="949,-123 875,-123 875,-73 949,-73 949,-123"/>
<text text-anchor="start" x="884" y="-108.8" font-family="arial" font-weight="bold" font-size="14.00" fill="#000000">st0123X</text>
<text text-anchor="start" x="883" y="-94.8" font-family="arial" font-size="14.00" fill="#984ea3">(Q &amp;&amp; S)</text>
<text text-anchor="start" x="887.5" y="-80.8" font-family="arial" font-size="14.00" fill="#ff7f00">c0 &lt;= 5</text>
</g>
<!-- st012&#45;&gt;st0123X -->
<g id="edge14" class="edge">
<title>st012&#45;&gt;st0123X</title>
<path fill="none" stroke="#000000" d="M615.474,-186.7233C633.6754,-175.1668 656.3217,-162.0641 678,-153 739.8758,-127.1285 816.2816,-112.0645 864.5899,-104.4346"/>
<polygon fill="#000000" stroke="#000000" points="865.4003,-107.8513 874.7532,-102.8738 864.3377,-100.9324 865.4003,-107.8513"/>
<text text-anchor="start" x="706" y="-171.8" font-family="arial" font-size="14.00" fill="#377eb8">true</text>
<text text-anchor="start" x="698.5" y="-156.8" font-family="arial" font-size="14.00" fill="#000000">c0 :=0</text>
</g>
<!-- _st0123W -->
<!-- _st0123W&#45;&gt;st0123W -->
<g id="edge3" class="edge">
<title>_st0123W&#45;&gt;st0123W</title>
<path fill="none" stroke="#000000" d="M174.1711,-348C194.4268,-348 218.8804,-348 239.9225,-348"/>
<polygon fill="#000000" stroke="#000000" points="239.9449,-351.5001 249.9449,-348 239.9448,-344.5001 239.9449,-351.5001"/>
</g>
<!-- st0123W&#45;&gt;st012 -->
<g id="edge34" class="edge">
<title>st0123W&#45;&gt;st012</title>
<path fill="none" stroke="#000000" d="M313.8485,-322.8941C322.8634,-315.1006 333.3907,-306.993 344,-301 416.8136,-259.8689 444.8161,-272.1904 522,-240 524.8386,-238.8161 527.7346,-237.5549 530.6412,-236.2475"/>
<polygon fill="#000000" stroke="#000000" points="532.3032,-239.3349 539.9034,-231.9533 529.3588,-232.9843 532.3032,-239.3349"/>
<text text-anchor="start" x="428" y="-277.8" font-family="arial" font-size="14.00" fill="#377eb8">true</text>
</g>
<!-- st0123W&#45;&gt;st0123W -->
<g id="edge35" class="edge">
<title>st0123W&#45;&gt;st0123W</title>
<path fill="none" stroke="#000000" d="M273.8057,-373.1756C273.1748,-382.9095 277.9063,-391 288,-391 294.3086,-391 298.5225,-387.8397 300.6418,-383.093"/>
<polygon fill="#000000" stroke="#000000" points="304.1055,-383.5966 302.1943,-373.1756 297.1898,-382.514 304.1055,-383.5966"/>
<text text-anchor="start" x="268" y="-394.8" font-family="arial" font-size="14.00" fill="#377eb8">c0 &lt; 5</text>
</g>
<!-- st0123W&#45;&gt;st02 -->
<g id="edge31" class="edge">
<title>st0123W&#45;&gt;st02</title>
<path fill="none" stroke="#000000" d="M326.1203,-341.508C368.0022,-334.4006 437.2663,-322.7208 497,-313 555.4653,-303.4856 622.6752,-292.9176 667.5839,-285.9092"/>
<polygon fill="#000000" stroke="#000000" points="668.3163,-289.3373 677.6577,-284.3384 667.2378,-282.4209 668.3163,-289.3373"/>
<text text-anchor="start" x="497" y="-316.8" font-family="arial" font-size="14.00" fill="#377eb8">true</text>
</g>
<!-- st023W -->
<g id="node10" class="node">
<title>st023W</title>
<polygon fill="none" stroke="#000000" points="479,-411 402,-411 402,-361 479,-361 479,-411"/>
<text text-anchor="start" x="414.5" y="-396.8" font-family="arial" font-weight="bold" font-size="14.00" fill="#000000">st023W</text>
<text text-anchor="start" x="410" y="-382.8" font-family="arial" font-size="14.00" fill="#984ea3">(!Q &amp;&amp; S)</text>
<text text-anchor="start" x="416" y="-368.8" font-family="arial" font-size="14.00" fill="#ff7f00">c0 &lt;= 5</text>
</g>
<!-- st0123W&#45;&gt;st023W -->
<g id="edge32" class="edge">
<title>st0123W&#45;&gt;st023W</title>
<path fill="none" stroke="#000000" d="M326.1821,-359.2076C332.1322,-360.8677 338.2216,-362.517 344,-364 359.5647,-367.9946 376.635,-372.0065 392.0339,-375.49"/>
<polygon fill="#000000" stroke="#000000" points="391.3558,-378.9248 401.8793,-377.6973 392.8873,-372.0943 391.3558,-378.9248"/>
<text text-anchor="start" x="344" y="-376.8" font-family="arial" font-size="14.00" fill="#377eb8">c0 &lt; 5</text>
</g>
<!-- st023 -->
<g id="node11" class="node">
<title>st023</title>
<polygon fill="none" stroke="#000000" points="1494,-386 1370,-386 1370,-336 1494,-336 1494,-386"/>
<text text-anchor="start" x="1413" y="-371.8" font-family="arial" font-weight="bold" font-size="14.00" fill="#000000">st023</text>
<text text-anchor="start" x="1378" y="-357.8" font-family="arial" font-size="14.00" fill="#984ea3">(!Q &amp;&amp; (R &amp;&amp; S))</text>
<text text-anchor="start" x="1419.5" y="-343.8" font-family="arial" font-size="14.00" fill="#ff7f00">true</text>
</g>
<!-- st0123W&#45;&gt;st023 -->
<g id="edge33" class="edge">
<title>st0123W&#45;&gt;st023</title>
<path fill="none" stroke="#000000" d="M291.2649,-373.3471C301.0121,-436.9044 336.0226,-598 440.5,-598 440.5,-598 440.5,-598 1249,-598 1349.6627,-598 1402.7453,-462.3995 1422.6333,-396.3373"/>
<polygon fill="#000000" stroke="#000000" points="1426.1023,-396.9432 1425.5423,-386.3632 1419.3823,-394.9831 1426.1023,-396.9432"/>
<text text-anchor="start" x="791.5" y="-601.8" font-family="arial" font-size="14.00" fill="#377eb8">c0 &gt;= 5</text>
</g>
<!-- st0123 -->
<g id="node12" class="node">
<title>st0123</title>
<polygon fill="none" stroke="#000000" points="1309,-386 1189,-386 1189,-336 1309,-336 1309,-386"/>
<text text-anchor="start" x="1226" y="-371.8" font-family="arial" font-weight="bold" font-size="14.00" fill="#000000">st0123</text>
<text text-anchor="start" x="1197" y="-357.8" font-family="arial" font-size="14.00" fill="#984ea3">(Q &amp;&amp; (R &amp;&amp; S))</text>
<text text-anchor="start" x="1236.5" y="-343.8" font-family="arial" font-size="14.00" fill="#ff7f00">true</text>
</g>
<!-- st0123W&#45;&gt;st0123 -->
<g id="edge36" class="edge">
<title>st0123W&#45;&gt;st0123</title>
<path fill="none" stroke="#000000" d="M293.8838,-373.3823C308.364,-428.6572 351.2259,-555 440.5,-555 440.5,-555 440.5,-555 1065.5,-555 1152.0944,-555 1210.0131,-451.7223 1235.002,-395.8758"/>
<polygon fill="#000000" stroke="#000000" points="1238.3613,-396.9279 1239.146,-386.3621 1231.9437,-394.1324 1238.3613,-396.9279"/>
<text text-anchor="start" x="694" y="-558.8" font-family="arial" font-size="14.00" fill="#377eb8">c0 &gt;= 5</text>
</g>
<!-- st02&#45;&gt;st012 -->
<g id="edge9" class="edge">
<title>st02&#45;&gt;st012</title>
<path fill="none" stroke="#000000" d="M682.7985,-252.8518C675.4477,-248.2383 667.6207,-243.7142 660,-240 649.4942,-234.8797 637.8112,-230.2771 626.6477,-226.353"/>
<polygon fill="#000000" stroke="#000000" points="627.6081,-222.9829 617.0138,-223.0832 625.3583,-229.6115 627.6081,-222.9829"/>
<text text-anchor="start" x="635" y="-243.8" font-family="arial" font-size="14.00" fill="#377eb8">true</text>
</g>
<!-- st02&#45;&gt;st02 -->
<g id="edge7" class="edge">
<title>st02&#45;&gt;st02</title>
<path fill="none" stroke="#000000" d="M705.4263,-303.1756C704.8452,-312.9095 709.2031,-321 718.5,-321 724.3105,-321 728.1918,-317.8397 730.1438,-313.093"/>
<polygon fill="#000000" stroke="#000000" points="733.6107,-313.5728 731.5737,-303.1756 726.6824,-312.5738 733.6107,-313.5728"/>
<text text-anchor="start" x="706" y="-324.8" font-family="arial" font-size="14.00" fill="#377eb8">true</text>
</g>
<!-- st02&#45;&gt;st023X -->
<g id="edge8" class="edge">
<title>st02&#45;&gt;st023X</title>
<path fill="none" stroke="#000000" d="M759.2403,-280.3036C786.4394,-281.2763 822.9609,-281.4947 855,-278 924.6794,-270.3996 943.5576,-269.1053 1009,-244 1011.8549,-242.9048 1014.7392,-241.6824 1017.6145,-240.3721"/>
<polygon fill="#000000" stroke="#000000" points="1019.2633,-243.4621 1026.7204,-235.936 1016.1975,-237.1692 1019.2633,-243.4621"/>
<text text-anchor="start" x="899.5" y="-293.8" font-family="arial" font-size="14.00" fill="#377eb8">true</text>
<text text-anchor="start" x="892" y="-278.8" font-family="arial" font-size="14.00" fill="#000000">c0 :=0</text>
</g>
<!-- st02&#45;&gt;st0123X -->
<g id="edge10" class="edge">
<title>st02&#45;&gt;st0123X</title>
<path fill="none" stroke="#000000" d="M740.3496,-252.7428C750.5657,-242.2648 763.456,-230.7666 777,-223 808.3532,-205.0209 826.7603,-222.5563 855,-200 876.6771,-182.6856 891.4609,-154.7603 900.5299,-132.5028"/>
<polygon fill="#000000" stroke="#000000" points="903.8442,-133.6362 904.1845,-123.0468 897.3148,-131.1127 903.8442,-133.6362"/>
<text text-anchor="start" x="803.5" y="-241.8" font-family="arial" font-size="14.00" fill="#377eb8">true</text>
<text text-anchor="start" x="796" y="-226.8" font-family="arial" font-size="14.00" fill="#000000">c0 :=0</text>
</g>
<!-- st023X&#45;&gt;st012 -->
<g id="edge24" class="edge">
<title>st023X&#45;&gt;st012</title>
<path fill="none" stroke="#000000" d="M1026.8362,-203.2838C971.543,-191.8586 866.65,-174.0418 777,-181 762.3804,-182.1347 681.3157,-195.155 627.4075,-203.9564"/>
<polygon fill="#000000" stroke="#000000" points="626.6521,-200.5334 617.3479,-205.6013 627.7817,-207.4416 626.6521,-200.5334"/>
<text text-anchor="start" x="777" y="-184.8" font-family="arial" font-size="14.00" fill="#377eb8">(R&#39; || c0 &lt; 5)</text>
</g>
<!-- st023X&#45;&gt;st02 -->
<g id="edge21" class="edge">
<title>st023X&#45;&gt;st02</title>
<path fill="none" stroke="#000000" d="M1026.71,-215.0215C987.2492,-218.8841 924.7136,-227.1956 873,-244 864.4936,-246.7642 863.4835,-250.1661 855,-253 827.363,-262.2321 795.3727,-268.321 769.3111,-272.176"/>
<polygon fill="#000000" stroke="#000000" points="768.6818,-268.7301 759.2701,-273.5952 769.6615,-275.6612 768.6818,-268.7301"/>
<text text-anchor="start" x="873" y="-247.8" font-family="arial" font-size="14.00" fill="#377eb8">(R&#39; || c0 &lt; 5)</text>
</g>
<!-- st023X&#45;&gt;st023X -->
<g id="edge22" class="edge">
<title>st023X&#45;&gt;st023X</title>
<path fill="none" stroke="#000000" d="M1051.3057,-237.1756C1050.6748,-246.9095 1055.4063,-255 1065.5,-255 1071.8086,-255 1076.0225,-251.8397 1078.1418,-247.093"/>
<polygon fill="#000000" stroke="#000000" points="1081.6055,-247.5966 1079.6943,-237.1756 1074.6898,-246.514 1081.6055,-247.5966"/>
<text text-anchor="start" x="1045.5" y="-258.8" font-family="arial" font-size="14.00" fill="#377eb8">c0 &lt; 5</text>
</g>
<!-- st023X&#45;&gt;st0123X -->
<g id="edge25" class="edge">
<title>st023X&#45;&gt;st0123X</title>
<path fill="none" stroke="#000000" d="M1040.664,-186.9185C1031.1607,-177.9316 1019.9641,-168.0427 1009,-160 992.4647,-147.8705 986.3645,-147.9095 969,-137 964.9007,-134.4246 960.6767,-131.6914 956.4692,-128.9144"/>
<polygon fill="#000000" stroke="#000000" points="958.1603,-125.835 947.9012,-123.1889 954.271,-131.6551 958.1603,-125.835"/>
<text text-anchor="start" x="969" y="-163.8" font-family="arial" font-size="14.00" fill="#377eb8">c0 &lt; 5</text>
</g>
<!-- st023X&#45;&gt;st023 -->
<g id="edge23" class="edge">
<title>st023X&#45;&gt;st023</title>
<path fill="none" stroke="#000000" d="M1104.0292,-227.664C1164.8341,-252.3841 1284.0042,-300.8325 1360.7195,-332.021"/>
<polygon fill="#000000" stroke="#000000" points="1359.74,-335.401 1370.3219,-335.9249 1362.3764,-328.9164 1359.74,-335.401"/>
<text text-anchor="start" x="1224.5" y="-313.8" font-family="arial" font-size="14.00" fill="#377eb8">c0 &gt;= 5</text>
</g>
<!-- st023X&#45;&gt;st0123 -->
<g id="edge26" class="edge">
<title>st023X&#45;&gt;st0123</title>
<path fill="none" stroke="#000000" d="M1096.6283,-237.2758C1127.9619,-262.7184 1176.3695,-302.0248 1210.1894,-329.4862"/>
<polygon fill="#000000" stroke="#000000" points="1208.0564,-332.2628 1218.0258,-335.8493 1212.4689,-326.8286 1208.0564,-332.2628"/>
<text text-anchor="start" x="1122" y="-298.8" font-family="arial" font-size="14.00" fill="#377eb8">c0 &gt;= 5</text>
</g>
<!-- st0123X&#45;&gt;st012 -->
<g id="edge40" class="edge">
<title>st0123X&#45;&gt;st012</title>
<path fill="none" stroke="#000000" d="M874.746,-91.3035C826.8325,-84.4933 742.1562,-78.6554 678,-108 645.2732,-122.969 617.8781,-154.0108 600.1734,-178.3034"/>
<polygon fill="#000000" stroke="#000000" points="597.2387,-176.3916 594.3224,-186.5772 602.954,-180.4334 597.2387,-176.3916"/>
<text text-anchor="start" x="679.5" y="-111.8" font-family="arial" font-size="14.00" fill="#377eb8">(R&#39; || c0 &lt; 5)</text>
</g>
<!-- st0123X&#45;&gt;st02 -->
<g id="edge37" class="edge">
<title>st0123X&#45;&gt;st02</title>
<path fill="none" stroke="#000000" d="M874.911,-115.8286C868.3445,-118.7226 861.5213,-121.5651 855,-124 821.1408,-136.6422 804.2012,-123.2016 777,-147 761.8151,-160.2853 742.4208,-209.2198 730.2263,-243.3622"/>
<polygon fill="#000000" stroke="#000000" points="726.8555,-242.3973 726.8365,-252.9921 733.4584,-244.7216 726.8555,-242.3973"/>
<text text-anchor="start" x="777" y="-150.8" font-family="arial" font-size="14.00" fill="#377eb8">(R&#39; || c0 &lt; 5)</text>
</g>
<!-- st0123X&#45;&gt;st023X -->
<g id="edge38" class="edge">
<title>st0123X&#45;&gt;st023X</title>
<path fill="none" stroke="#000000" d="M949.3673,-98.6845C968.6772,-100.6778 991.7438,-105.7725 1009,-118 1029.5198,-132.5401 1043.9057,-157.0992 1053.0249,-177.4681"/>
<polygon fill="#000000" stroke="#000000" points="1049.8429,-178.9298 1056.9646,-186.774 1056.289,-176.2007 1049.8429,-178.9298"/>
<text text-anchor="start" x="969" y="-121.8" font-family="arial" font-size="14.00" fill="#377eb8">c0 &lt; 5</text>
</g>
<!-- st0123X&#45;&gt;st0123X -->
<g id="edge41" class="edge">
<title>st0123X&#45;&gt;st0123X</title>
<path fill="none" stroke="#000000" d="M897.8057,-123.1756C897.1748,-132.9095 901.9063,-141 912,-141 918.3086,-141 922.5225,-137.8397 924.6418,-133.093"/>
<polygon fill="#000000" stroke="#000000" points="928.1055,-133.5966 926.1943,-123.1756 921.1898,-132.514 928.1055,-133.5966"/>
<text text-anchor="start" x="892" y="-144.8" font-family="arial" font-size="14.00" fill="#377eb8">c0 &lt; 5</text>
</g>
<!-- st0123X&#45;&gt;st023 -->
<g id="edge39" class="edge">
<title>st0123X&#45;&gt;st023</title>
<path fill="none" stroke="#000000" d="M949.3438,-91.9268C989.2568,-87.0994 1053.5942,-84.1805 1104,-105 1230.2557,-157.1483 1348.9619,-271.9444 1402.3785,-328.3776"/>
<polygon fill="#000000" stroke="#000000" points="1400.0811,-331.044 1409.4765,-335.9406 1405.1853,-326.2537 1400.0811,-331.044"/>
<text text-anchor="start" x="1122" y="-141.8" font-family="arial" font-size="14.00" fill="#377eb8">c0 &gt;= 5</text>
</g>
<!-- st0123X&#45;&gt;st0123 -->
<g id="edge42" class="edge">
<title>st0123X&#45;&gt;st0123</title>
<path fill="none" stroke="#000000" d="M949.1749,-95.0192C967.5703,-94.6686 989.8748,-95.9577 1009,-102 1056.8459,-117.1161 1067.5832,-128.4812 1104,-163 1140.9725,-198.0456 1149.6233,-209.7594 1171,-256 1183.8172,-283.7252 1171.0956,-299.7235 1189.2956,-327.5939"/>
<polygon fill="#000000" stroke="#000000" points="1186.5643,-329.7882 1195.2958,-335.7892 1192.2123,-325.653 1186.5643,-329.7882"/>
<text text-anchor="start" x="1041" y="-166.8" font-family="arial" font-size="14.00" fill="#377eb8">c0 &gt;= 5</text>
</g>
<!-- st023W&#45;&gt;st012 -->
<g id="edge18" class="edge">
<title>st023W&#45;&gt;st012</title>
<path fill="none" stroke="#000000" d="M479.1177,-366.3781C493.9362,-357.4271 510.1227,-345.7393 522,-332 543.5371,-307.0864 558.644,-272.5576 567.7836,-246.9321"/>
<polygon fill="#000000" stroke="#000000" points="571.1737,-247.8359 571.1088,-237.2413 564.5526,-245.564 571.1737,-247.8359"/>
<text text-anchor="start" x="497" y="-356.8" font-family="arial" font-size="14.00" fill="#377eb8">true</text>
</g>
<!-- st023W&#45;&gt;st0123W -->
<g id="edge19" class="edge">
<title>st023W&#45;&gt;st0123W</title>
<path fill="none" stroke="#000000" d="M408.9294,-360.8798C401.1914,-356.0194 392.6381,-351.6258 384,-349 368.9699,-344.4312 351.9946,-343.091 336.5436,-343.2213"/>
<polygon fill="#000000" stroke="#000000" points="336.0267,-339.7348 326.133,-343.5249 336.2308,-346.7318 336.0267,-339.7348"/>
<text text-anchor="start" x="344" y="-352.8" font-family="arial" font-size="14.00" fill="#377eb8">c0 &lt; 5</text>
</g>
<!-- st023W&#45;&gt;st02 -->
<g id="edge15" class="edge">
<title>st023W&#45;&gt;st02</title>
<path fill="none" stroke="#000000" d="M479.1593,-381.9036C524.7876,-375.7697 601.8072,-361.2629 660,-329 669.3766,-323.8015 678.5759,-316.9075 686.8024,-309.8742"/>
<polygon fill="#000000" stroke="#000000" points="689.2251,-312.4034 694.3656,-303.1391 684.5698,-307.1757 689.2251,-312.4034"/>
<text text-anchor="start" x="566" y="-373.8" font-family="arial" font-size="14.00" fill="#377eb8">true</text>
</g>
<!-- st023W&#45;&gt;st023W -->
<g id="edge16" class="edge">
<title>st023W&#45;&gt;st023W</title>
<path fill="none" stroke="#000000" d="M427.7998,-411.1756C427.2354,-420.9095 431.4688,-429 440.5,-429 446.1445,-429 449.9149,-425.8397 451.8111,-421.093"/>
<polygon fill="#000000" stroke="#000000" points="455.2792,-421.5645 453.2002,-411.1756 448.3468,-420.5934 455.2792,-421.5645"/>
<text text-anchor="start" x="420.5" y="-432.8" font-family="arial" font-size="14.00" fill="#377eb8">c0 &lt; 5</text>
</g>
<!-- st023W&#45;&gt;st023 -->
<g id="edge17" class="edge">
<title>st023W&#45;&gt;st023</title>
<path fill="none" stroke="#000000" d="M468.9445,-411.1479C477.5068,-417.7199 487.2347,-424.2769 497,-429 514.7585,-437.5891 520.6854,-435.9897 540,-440 737.8845,-481.0871 786.895,-512 989,-512 989,-512 989,-512 1249,-512 1322.1768,-512 1381.9204,-439.2793 1411.6337,-394.7698"/>
<polygon fill="#000000" stroke="#000000" points="1414.6428,-396.5628 1417.171,-386.274 1408.7785,-392.7405 1414.6428,-396.5628"/>
<text text-anchor="start" x="887.5" y="-514.8" font-family="arial" font-size="14.00" fill="#377eb8">c0 &gt;= 5</text>
</g>
<!-- st023W&#45;&gt;st0123 -->
<g id="edge20" class="edge">
<title>st023W&#45;&gt;st0123</title>
<path fill="none" stroke="#000000" d="M479.1079,-404.4218C506.2679,-415.7067 543.8149,-428 578.5,-428 578.5,-428 578.5,-428 816,-428 975.0968,-428 1014.9471,-412.9723 1171,-382 1173.6179,-381.4804 1176.2776,-380.922 1178.9584,-380.3335"/>
<polygon fill="#000000" stroke="#000000" points="1179.7612,-383.7403 1188.721,-378.0859 1178.1907,-376.9188 1179.7612,-383.7403"/>
<text text-anchor="start" x="791.5" y="-431.8" font-family="arial" font-size="14.00" fill="#377eb8">c0 &gt;= 5</text>
</g>
<!-- st023&#45;&gt;st012 -->
<g id="edge29" class="edge">
<title>st023&#45;&gt;st012</title>
<path fill="none" stroke="#000000" d="M1431.0307,-335.9018C1426.4057,-254.035 1399.8971,0 1249,0 718.5,0 718.5,0 718.5,0 634.6937,0 598.1682,-116.7882 584.9061,-176.9999"/>
<polygon fill="#000000" stroke="#000000" points="581.468,-176.3418 582.8333,-186.8483 588.3179,-177.7836 581.468,-176.3418"/>
<text text-anchor="start" x="982" y="-3.8" font-family="arial" font-size="14.00" fill="#377eb8">R&#39;</text>
</g>
<!-- st023&#45;&gt;st02 -->
<g id="edge27" class="edge">
<title>st023&#45;&gt;st02</title>
<path fill="none" stroke="#000000" d="M1395.8806,-386.1377C1372.2905,-401.1356 1340.181,-418.9679 1309,-428 1195.3735,-460.914 873.3639,-515.6172 777,-447 754.8266,-431.2111 735.5836,-357.7682 725.659,-313.0561"/>
<polygon fill="#000000" stroke="#000000" points="729.0549,-312.2008 723.5124,-303.1714 722.2144,-313.6864 729.0549,-312.2008"/>
<text text-anchor="start" x="1058.5" y="-479.8" font-family="arial" font-size="14.00" fill="#377eb8">R&#39;</text>
</g>
<!-- st023&#45;&gt;st023 -->
<g id="edge28" class="edge">
<title>st023&#45;&gt;st023</title>
<path fill="none" stroke="#000000" d="M1414.8174,-386.1756C1414.0537,-395.9095 1419.7813,-404 1432,-404 1439.6367,-404 1444.7378,-400.8397 1447.3033,-396.093"/>
<polygon fill="#000000" stroke="#000000" points="1450.7595,-396.6525 1449.1826,-386.1756 1443.8819,-395.3491 1450.7595,-396.6525"/>
<text text-anchor="start" x="1419.5" y="-407.8" font-family="arial" font-size="14.00" fill="#377eb8">true</text>
</g>
<!-- st023&#45;&gt;st0123 -->
<g id="edge30" class="edge">
<title>st023&#45;&gt;st0123</title>
<path fill="none" stroke="#000000" d="M1369.9074,-361C1353.662,-361 1336.0326,-361 1319.389,-361"/>
<polygon fill="#000000" stroke="#000000" points="1319.1745,-357.5001 1309.1745,-361 1319.1745,-364.5001 1319.1745,-357.5001"/>
<text text-anchor="start" x="1327" y="-364.8" font-family="arial" font-size="14.00" fill="#377eb8">true</text>
</g>
<!-- st0123&#45;&gt;st012 -->
<g id="edge45" class="edge">
<title>st0123&#45;&gt;st012</title>
<path fill="none" stroke="#000000" d="M1188.7185,-365.8499C1060.4752,-375.126 765.2014,-390.6488 678,-345 637.7141,-323.9108 609.3059,-278.3399 593.428,-246.4487"/>
<polygon fill="#000000" stroke="#000000" points="596.3893,-244.5303 588.9034,-237.0328 590.08,-247.5621 596.3893,-244.5303"/>
<text text-anchor="start" x="905" y="-379.8" font-family="arial" font-size="14.00" fill="#377eb8">R&#39;</text>
</g>
<!-- st0123&#45;&gt;st02 -->
<g id="edge43" class="edge">
<title>st0123&#45;&gt;st02</title>
<path fill="none" stroke="#000000" d="M1188.6884,-353.1828C1114.3602,-343.4282 984.2374,-325.9584 873,-309 830.2389,-302.481 819.3222,-301.9355 777,-293 774.3969,-292.4504 771.735,-291.8624 769.0517,-291.2489"/>
<polygon fill="#000000" stroke="#000000" points="769.8452,-287.8401 759.3076,-288.9398 768.231,-294.6515 769.8452,-287.8401"/>
<text text-anchor="start" x="982" y="-331.8" font-family="arial" font-size="14.00" fill="#377eb8">R&#39;</text>
</g>
<!-- st0123&#45;&gt;st023 -->
<g id="edge44" class="edge">
<title>st0123&#45;&gt;st023</title>
<path fill="none" stroke="#000000" d="M1309.2061,-344.829C1315.1834,-343.6778 1321.1879,-342.6977 1327,-342 1337.6321,-340.7237 1348.8162,-340.9925 1359.761,-342.1737"/>
<polygon fill="#000000" stroke="#000000" points="1359.3485,-345.6496 1369.7223,-343.4969 1360.2703,-338.7106 1359.3485,-345.6496"/>
<text text-anchor="start" x="1327" y="-345.8" font-family="arial" font-size="14.00" fill="#377eb8">true</text>
</g>
<!-- st0123&#45;&gt;st0123 -->
<g id="edge46" class="edge">
<title>st0123&#45;&gt;st0123</title>
<path fill="none" stroke="#000000" d="M1232.1909,-386.1756C1231.4438,-395.9095 1237.0469,-404 1249,-404 1256.4707,-404 1261.4609,-400.8397 1263.9706,-396.093"/>
<polygon fill="#000000" stroke="#000000" points="1267.4276,-396.6461 1265.8091,-386.1756 1260.5449,-395.3701 1267.4276,-396.6461"/>
<text text-anchor="start" x="1236.5" y="-407.8" font-family="arial" font-size="14.00" fill="#377eb8">true</text>
</g>
</g>
</svg>
