<?xml version="1.0" encoding="UTF-8" standalone="no"?>
<!DOCTYPE svg PUBLIC "-//W3C//DTD SVG 1.1//EN"
 "http://www.w3.org/Graphics/SVG/1.1/DTD/svg11.dtd">
<!-- Generated by graphviz version 2.40.1 (20161225.0304)
 -->
<!-- Title: G Pages: 1 -->
<svg width="1554pt" height="255pt"
 viewBox="0.00 0.00 1554.00 255.00" xmlns="http://www.w3.org/2000/svg" xmlns:xlink="http://www.w3.org/1999/xlink">
<g id="graph0" class="graph" transform="scale(1 1) rotate(0) translate(4 251)">
<title>G</title>
<polygon fill="#ffffff" stroke="transparent" points="-4,4 -4,-251 1550,-251 1550,4 -4,4"/>
<!-- _st0 -->
<!-- st0 -->
<g id="node2" class="node">
<title>st0</title>
<polygon fill="none" stroke="#000000" points="148.5,-214 94.5,-214 94.5,-164 148.5,-164 148.5,-214"/>
<text text-anchor="start" x="110.5" y="-199.8" font-family="arial" font-weight="bold" font-size="14.00" fill="#000000">st0</text>
<text text-anchor="start" x="113.5" y="-185.8" font-family="arial" font-size="14.00" fill="#984ea3">!Q</text>
<text text-anchor="start" x="109" y="-171.8" font-family="arial" font-size="14.00" fill="#ff7f00">true</text>
</g>
<!-- _st0&#45;&gt;st0 -->
<g id="edge1" class="edge">
<title>_st0&#45;&gt;st0</title>
<path fill="none" stroke="#000000" d="M54.0799,-189C63.471,-189 74.1709,-189 84.237,-189"/>
<polygon fill="#000000" stroke="#000000" points="84.4162,-192.5001 94.4161,-189 84.4161,-185.5001 84.4162,-192.5001"/>
</g>
<!-- st0&#45;&gt;st0 -->
<g id="edge4" class="edge">
<title>st0&#45;&gt;st0</title>
<path fill="none" stroke="#000000" d="M112.5352,-214.1756C112.1367,-223.9095 115.125,-232 121.5,-232 125.3848,-232 128.0119,-228.9957 129.3814,-224.446"/>
<polygon fill="#000000" stroke="#000000" points="132.8964,-224.4877 130.4648,-214.1756 125.935,-223.7532 132.8964,-224.4877"/>
<text text-anchor="start" x="109" y="-235.8" font-family="arial" font-size="14.00" fill="#377eb8">true</text>
</g>
<!-- st012 -->
<g id="node4" class="node">
<title>st012</title>
<polygon fill="none" stroke="#000000" points="291,-122 213,-122 213,-72 291,-72 291,-122"/>
<text text-anchor="start" x="233" y="-107.8" font-family="arial" font-weight="bold" font-size="14.00" fill="#000000">st012</text>
<text text-anchor="start" x="221" y="-93.8" font-family="arial" font-size="14.00" fill="#984ea3">(Q &amp;&amp; !R)</text>
<text text-anchor="start" x="239.5" y="-79.8" font-family="arial" font-size="14.00" fill="#ff7f00">true</text>
</g>
<!-- st0&#45;&gt;st012 -->
<g id="edge5" class="edge">
<title>st0&#45;&gt;st012</title>
<path fill="none" stroke="#000000" d="M148.5397,-169.9375C165.6547,-157.8718 188.1852,-141.9882 207.8503,-128.1247"/>
<polygon fill="#000000" stroke="#000000" points="209.9221,-130.9465 216.0786,-122.3239 205.8887,-125.2252 209.9221,-130.9465"/>
<text text-anchor="start" x="170" y="-157.8" font-family="arial" font-size="14.00" fill="#377eb8">true</text>
</g>
<!-- st0123 -->
<g id="node6" class="node">
<title>st0123</title>
<polygon fill="none" stroke="#000000" points="569,-181 495,-181 495,-131 569,-131 569,-181"/>
<text text-anchor="start" x="509" y="-166.8" font-family="arial" font-weight="bold" font-size="14.00" fill="#000000">st0123</text>
<text text-anchor="start" x="503" y="-152.8" font-family="arial" font-size="14.00" fill="#984ea3">(Q &amp;&amp; R)</text>
<text text-anchor="start" x="519.5" y="-138.8" font-family="arial" font-size="14.00" fill="#ff7f00">true</text>
</g>
<!-- st0&#45;&gt;st0123 -->
<g id="edge6" class="edge">
<title>st0&#45;&gt;st0123</title>
<path fill="none" stroke="#000000" d="M148.8661,-194.4856C203.4544,-204.5691 329.6084,-223.566 434,-207 453.8501,-203.85 458.9328,-201.805 477,-193 481.0669,-191.018 485.1818,-188.7722 489.2339,-186.3904"/>
<polygon fill="#000000" stroke="#000000" points="491.2871,-189.2363 497.9618,-181.0084 487.6129,-183.2781 491.2871,-189.2363"/>
<text text-anchor="start" x="309" y="-216.8" font-family="arial" font-size="14.00" fill="#377eb8">true</text>
</g>
<!-- _st012 -->
<!-- _st012&#45;&gt;st012 -->
<g id="edge2" class="edge">
<title>_st012&#45;&gt;st012</title>
<path fill="none" stroke="#000000" d="M152.0965,-97C167.0694,-97 185.472,-97 202.3853,-97"/>
<polygon fill="#000000" stroke="#000000" points="202.6798,-100.5001 212.6798,-97 202.6798,-93.5001 202.6798,-100.5001"/>
</g>
<!-- st012&#45;&gt;st012 -->
<g id="edge13" class="edge">
<title>st012&#45;&gt;st012</title>
<path fill="none" stroke="#000000" d="M239.2998,-122.1756C238.7354,-131.9095 242.9688,-140 252,-140 257.6445,-140 261.4149,-136.8397 263.3111,-132.093"/>
<polygon fill="#000000" stroke="#000000" points="266.7792,-132.5645 264.7002,-122.1756 259.8468,-131.5934 266.7792,-132.5645"/>
<text text-anchor="start" x="239.5" y="-143.8" font-family="arial" font-size="14.00" fill="#377eb8">true</text>
</g>
<!-- st012&#45;&gt;st0123 -->
<g id="edge14" class="edge">
<title>st012&#45;&gt;st0123</title>
<path fill="none" stroke="#000000" d="M273.2334,-122.3972C291.6909,-142.3422 320.3791,-168.5869 352,-180 395.4183,-195.6712 448.0518,-185.5658 485.1567,-174.0428"/>
<polygon fill="#000000" stroke="#000000" points="486.2855,-177.3562 494.7143,-170.9371 484.1222,-170.6989 486.2855,-177.3562"/>
<text text-anchor="start" x="380.5" y="-191.8" font-family="arial" font-size="14.00" fill="#377eb8">true</text>
</g>
<!-- st02 -->
<g id="node7" class="node">
<title>st02</title>
<polygon fill="none" stroke="#000000" points="434,-84 352,-84 352,-34 434,-34 434,-84"/>
<text text-anchor="start" x="378" y="-69.8" font-family="arial" font-weight="bold" font-size="14.00" fill="#000000">st02</text>
<text text-anchor="start" x="360" y="-55.8" font-family="arial" font-size="14.00" fill="#984ea3">(!Q &amp;&amp; !R)</text>
<text text-anchor="start" x="380.5" y="-41.8" font-family="arial" font-size="14.00" fill="#ff7f00">true</text>
</g>
<!-- st012&#45;&gt;st02 -->
<g id="edge11" class="edge">
<title>st012&#45;&gt;st02</title>
<path fill="none" stroke="#000000" d="M279.6469,-71.8844C288.413,-65.4319 298.558,-59.3654 309,-56 319.2096,-52.7095 330.4817,-51.5561 341.3645,-51.5837"/>
<polygon fill="#000000" stroke="#000000" points="341.5161,-55.091 351.6318,-51.9408 341.7595,-48.0952 341.5161,-55.091"/>
<text text-anchor="start" x="309" y="-59.8" font-family="arial" font-size="14.00" fill="#377eb8">true</text>
</g>
<!-- st023 -->
<g id="node8" class="node">
<title>st023</title>
<polygon fill="none" stroke="#000000" points="708,-85 630,-85 630,-35 708,-35 708,-85"/>
<text text-anchor="start" x="650" y="-70.8" font-family="arial" font-weight="bold" font-size="14.00" fill="#000000">st023</text>
<text text-anchor="start" x="638" y="-56.8" font-family="arial" font-size="14.00" fill="#984ea3">(!Q &amp;&amp; R)</text>
<text text-anchor="start" x="656.5" y="-42.8" font-family="arial" font-size="14.00" fill="#ff7f00">true</text>
</g>
<!-- st012&#45;&gt;st023 -->
<g id="edge12" class="edge">
<title>st012&#45;&gt;st023</title>
<path fill="none" stroke="#000000" d="M275.9061,-71.6465C294.6007,-54.0319 322.326,-32.4375 352,-25 445.0394,-1.6805 557.3182,-25.9479 620.1947,-44.0773"/>
<polygon fill="#000000" stroke="#000000" points="619.2696,-47.4535 629.8513,-46.926 621.2503,-40.7395 619.2696,-47.4535"/>
<text text-anchor="start" x="452" y="-20.8" font-family="arial" font-size="14.00" fill="#377eb8">true</text>
</g>
<!-- _st0123 -->
<!-- _st0123&#45;&gt;st0123 -->
<g id="edge3" class="edge">
<title>_st0123&#45;&gt;st0123</title>
<path fill="none" stroke="#000000" d="M427.717,-153.7493C444.9503,-154.1212 466.0278,-154.5761 484.712,-154.9794"/>
<polygon fill="#000000" stroke="#000000" points="484.733,-158.4806 494.8062,-155.1973 484.8841,-151.4822 484.733,-158.4806"/>
</g>
<!-- st0123&#45;&gt;st0123 -->
<g id="edge22" class="edge">
<title>st0123&#45;&gt;st0123</title>
<path fill="none" stroke="#000000" d="M519.6733,-181.1756C519.1255,-190.9095 523.2344,-199 532,-199 537.4785,-199 541.138,-195.8397 542.9784,-191.093"/>
<polygon fill="#000000" stroke="#000000" points="546.4476,-191.556 544.3267,-181.1756 539.5114,-190.613 546.4476,-191.556"/>
<text text-anchor="start" x="519.5" y="-202.8" font-family="arial" font-size="14.00" fill="#377eb8">true</text>
</g>
<!-- st0123&#45;&gt;st023 -->
<g id="edge20" class="edge">
<title>st0123&#45;&gt;st023</title>
<path fill="none" stroke="#000000" d="M546.7515,-130.9114C556.5118,-116.2621 570.5278,-98.4627 587,-87 596.8996,-80.1111 608.6776,-74.8852 620.175,-70.9576"/>
<polygon fill="#000000" stroke="#000000" points="621.2303,-74.2949 629.7195,-67.9558 619.1301,-67.6173 621.2303,-74.2949"/>
<text text-anchor="start" x="587" y="-90.8" font-family="arial" font-size="14.00" fill="#377eb8">true</text>
</g>
<!-- st024 -->
<g id="node9" class="node">
<title>st024</title>
<polygon fill="none" stroke="#000000" points="990,-78 908,-78 908,-28 990,-28 990,-78"/>
<text text-anchor="start" x="930" y="-63.8" font-family="arial" font-weight="bold" font-size="14.00" fill="#000000">st024</text>
<text text-anchor="start" x="916" y="-49.8" font-family="arial" font-size="14.00" fill="#984ea3">(!Q &amp;&amp; !R)</text>
<text text-anchor="start" x="936.5" y="-35.8" font-family="arial" font-size="14.00" fill="#ff7f00">true</text>
</g>
<!-- st0123&#45;&gt;st024 -->
<g id="edge19" class="edge">
<title>st0123&#45;&gt;st024</title>
<path fill="none" stroke="#000000" d="M569.2682,-172.535C630.714,-197.1613 755.5721,-235.9149 847,-190 858.3017,-184.3243 899.8372,-125.3735 926.2922,-86.6728"/>
<polygon fill="#000000" stroke="#000000" points="929.2782,-88.5062 932.0162,-78.2713 923.4932,-84.5649 929.2782,-88.5062"/>
<text text-anchor="start" x="726" y="-214.8" font-family="arial" font-size="14.00" fill="#377eb8">true</text>
</g>
<!-- st0124 -->
<g id="node10" class="node">
<title>st0124</title>
<polygon fill="none" stroke="#000000" points="847,-148 769,-148 769,-98 847,-98 847,-148"/>
<text text-anchor="start" x="785" y="-133.8" font-family="arial" font-weight="bold" font-size="14.00" fill="#000000">st0124</text>
<text text-anchor="start" x="777" y="-119.8" font-family="arial" font-size="14.00" fill="#984ea3">(Q &amp;&amp; !R)</text>
<text text-anchor="start" x="795.5" y="-105.8" font-family="arial" font-size="14.00" fill="#ff7f00">true</text>
</g>
<!-- st0123&#45;&gt;st0124 -->
<g id="edge21" class="edge">
<title>st0123&#45;&gt;st0124</title>
<path fill="none" stroke="#000000" d="M569.2226,-151.5495C618.1567,-145.6987 704.263,-135.4033 758.6059,-128.9058"/>
<polygon fill="#000000" stroke="#000000" points="759.185,-132.3616 768.6987,-127.6991 758.3539,-125.4111 759.185,-132.3616"/>
<text text-anchor="start" x="656.5" y="-147.8" font-family="arial" font-size="14.00" fill="#377eb8">true</text>
</g>
<!-- st02&#45;&gt;st012 -->
<g id="edge9" class="edge">
<title>st02&#45;&gt;st012</title>
<path fill="none" stroke="#000000" d="M351.7415,-70.2039C345.7892,-71.8159 339.7382,-73.4522 334,-75 323.3223,-77.8802 311.8597,-80.9619 300.9896,-83.8796"/>
<polygon fill="#000000" stroke="#000000" points="299.9643,-80.5308 291.2128,-86.5025 301.7782,-87.2917 299.9643,-80.5308"/>
<text text-anchor="start" x="309" y="-85.8" font-family="arial" font-size="14.00" fill="#377eb8">true</text>
</g>
<!-- st02&#45;&gt;st0123 -->
<g id="edge10" class="edge">
<title>st02&#45;&gt;st0123</title>
<path fill="none" stroke="#000000" d="M429.1578,-84.2324C447.0153,-96.6942 468.7218,-111.8418 487.5821,-125.0033"/>
<polygon fill="#000000" stroke="#000000" points="485.8197,-128.0414 496.0233,-130.8939 489.8256,-122.3009 485.8197,-128.0414"/>
<text text-anchor="start" x="452" y="-120.8" font-family="arial" font-size="14.00" fill="#377eb8">true</text>
</g>
<!-- st02&#45;&gt;st02 -->
<g id="edge7" class="edge">
<title>st02&#45;&gt;st02</title>
<path fill="none" stroke="#000000" d="M379.9263,-84.1756C379.3452,-93.9095 383.7031,-102 393,-102 398.8105,-102 402.6918,-98.8397 404.6438,-94.093"/>
<polygon fill="#000000" stroke="#000000" points="408.1107,-94.5728 406.0737,-84.1756 401.1824,-93.5738 408.1107,-94.5728"/>
<text text-anchor="start" x="380.5" y="-105.8" font-family="arial" font-size="14.00" fill="#377eb8">true</text>
</g>
<!-- st02&#45;&gt;st023 -->
<g id="edge8" class="edge">
<title>st02&#45;&gt;st023</title>
<path fill="none" stroke="#000000" d="M434.022,-59.1486C483.5768,-59.3282 566.867,-59.63 619.8196,-59.8218"/>
<polygon fill="#000000" stroke="#000000" points="619.9739,-63.3223 629.9866,-59.8586 619.9994,-56.3223 619.9739,-63.3223"/>
<text text-anchor="start" x="519.5" y="-63.8" font-family="arial" font-size="14.00" fill="#377eb8">true</text>
</g>
<!-- st023&#45;&gt;st0123 -->
<g id="edge18" class="edge">
<title>st023&#45;&gt;st0123</title>
<path fill="none" stroke="#000000" d="M639.3525,-85.0439C630.6993,-92.0449 621.1154,-99.5089 612,-106 601.1559,-113.7221 589.1332,-121.5811 577.7734,-128.7115"/>
<polygon fill="#000000" stroke="#000000" points="575.8944,-125.7584 569.2463,-134.0079 579.5878,-131.7047 575.8944,-125.7584"/>
<text text-anchor="start" x="587" y="-125.8" font-family="arial" font-size="14.00" fill="#377eb8">true</text>
</g>
<!-- st023&#45;&gt;st023 -->
<g id="edge16" class="edge">
<title>st023&#45;&gt;st023</title>
<path fill="none" stroke="#000000" d="M656.2998,-85.1756C655.7354,-94.9095 659.9688,-103 669,-103 674.6445,-103 678.4149,-99.8397 680.3111,-95.093"/>
<polygon fill="#000000" stroke="#000000" points="683.7792,-95.5645 681.7002,-85.1756 676.8468,-94.5934 683.7792,-95.5645"/>
<text text-anchor="start" x="656.5" y="-106.8" font-family="arial" font-size="14.00" fill="#377eb8">true</text>
</g>
<!-- st023&#45;&gt;st024 -->
<g id="edge15" class="edge">
<title>st023&#45;&gt;st024</title>
<path fill="none" stroke="#000000" d="M708.2276,-59.0193C757.7159,-57.7821 842.9418,-55.6515 897.5935,-54.2852"/>
<polygon fill="#000000" stroke="#000000" points="897.8521,-57.7799 907.7615,-54.031 897.6771,-50.7821 897.8521,-57.7799"/>
<text text-anchor="start" x="795.5" y="-61.8" font-family="arial" font-size="14.00" fill="#377eb8">true</text>
</g>
<!-- st023&#45;&gt;st0124 -->
<g id="edge17" class="edge">
<title>st023&#45;&gt;st0124</title>
<path fill="none" stroke="#000000" d="M708.0892,-77.7167C724.0786,-84.9637 742.743,-93.4231 759.5832,-101.0557"/>
<polygon fill="#000000" stroke="#000000" points="758.1696,-104.2577 768.7226,-105.198 761.0594,-97.882 758.1696,-104.2577"/>
<text text-anchor="start" x="726" y="-101.8" font-family="arial" font-size="14.00" fill="#377eb8">true</text>
</g>
<!-- st024&#45;&gt;st024 -->
<g id="edge23" class="edge">
<title>st024&#45;&gt;st024</title>
<path fill="none" stroke="#000000" d="M935.9263,-78.1756C935.3452,-87.9095 939.7031,-96 949,-96 954.8105,-96 958.6918,-92.8397 960.6438,-88.093"/>
<polygon fill="#000000" stroke="#000000" points="964.1107,-88.5728 962.0737,-78.1756 957.1824,-87.5738 964.1107,-88.5728"/>
<text text-anchor="start" x="936.5" y="-99.8" font-family="arial" font-size="14.00" fill="#377eb8">true</text>
</g>
<!-- st024&#45;&gt;st0124 -->
<g id="edge25" class="edge">
<title>st024&#45;&gt;st0124</title>
<path fill="none" stroke="#000000" d="M907.7317,-63.258C893.7575,-67.5086 878.3247,-73.0858 865,-80 858.4946,-83.3756 851.9537,-87.4857 845.7407,-91.8109"/>
<polygon fill="#000000" stroke="#000000" points="843.539,-89.0842 837.5058,-97.7934 847.6533,-94.7474 843.539,-89.0842"/>
<text text-anchor="start" x="865" y="-83.8" font-family="arial" font-size="14.00" fill="#377eb8">true</text>
</g>
<!-- st0235 -->
<g id="node11" class="node">
<title>st0235</title>
<polygon fill="none" stroke="#000000" points="1264,-104 1186,-104 1186,-54 1264,-54 1264,-104"/>
<text text-anchor="start" x="1202" y="-89.8" font-family="arial" font-weight="bold" font-size="14.00" fill="#000000">st0235</text>
<text text-anchor="start" x="1194" y="-75.8" font-family="arial" font-size="14.00" fill="#984ea3">(!Q &amp;&amp; R)</text>
<text text-anchor="start" x="1212.5" y="-61.8" font-family="arial" font-size="14.00" fill="#ff7f00">true</text>
</g>
<!-- st024&#45;&gt;st0235 -->
<g id="edge24" class="edge">
<title>st024&#45;&gt;st0235</title>
<path fill="none" stroke="#000000" d="M990.205,-45.3767C1026.0705,-39.9944 1079.324,-35.0287 1125,-43 1142.1603,-45.9948 1160.2635,-51.6766 1176.2805,-57.6563"/>
<polygon fill="#000000" stroke="#000000" points="1175.3673,-61.0556 1185.9566,-61.3967 1177.8912,-54.5265 1175.3673,-61.0556"/>
<text text-anchor="start" x="1075.5" y="-46.8" font-family="arial" font-size="14.00" fill="#377eb8">true</text>
</g>
<!-- st01235 -->
<g id="node12" class="node">
<title>st01235</title>
<polygon fill="none" stroke="#000000" points="1125,-117 1051,-117 1051,-67 1125,-67 1125,-117"/>
<text text-anchor="start" x="1060.5" y="-102.8" font-family="arial" font-weight="bold" font-size="14.00" fill="#000000">st01235</text>
<text text-anchor="start" x="1059" y="-88.8" font-family="arial" font-size="14.00" fill="#984ea3">(Q &amp;&amp; R)</text>
<text text-anchor="start" x="1075.5" y="-74.8" font-family="arial" font-size="14.00" fill="#ff7f00">true</text>
</g>
<!-- st024&#45;&gt;st01235 -->
<g id="edge26" class="edge">
<title>st024&#45;&gt;st01235</title>
<path fill="none" stroke="#000000" d="M990.3282,-64.5957C1006.2334,-69.0583 1024.5082,-74.1858 1040.9161,-78.7894"/>
<polygon fill="#000000" stroke="#000000" points="1040.2796,-82.2459 1050.8533,-81.5775 1042.1706,-75.5062 1040.2796,-82.2459"/>
<text text-anchor="start" x="1008" y="-79.8" font-family="arial" font-size="14.00" fill="#377eb8">true</text>
</g>
<!-- st0124&#45;&gt;st024 -->
<g id="edge27" class="edge">
<title>st0124&#45;&gt;st024</title>
<path fill="none" stroke="#000000" d="M847.3267,-112.1266C861.174,-107.6384 876.6143,-101.8644 890,-95 896.2391,-91.8005 902.5596,-88.002 908.6301,-84.0172"/>
<polygon fill="#000000" stroke="#000000" points="911.021,-86.6228 917.3065,-78.0938 907.0742,-80.8416 911.021,-86.6228"/>
<text text-anchor="start" x="865" y="-109.8" font-family="arial" font-size="14.00" fill="#377eb8">true</text>
</g>
<!-- st0124&#45;&gt;st0124 -->
<g id="edge29" class="edge">
<title>st0124&#45;&gt;st0124</title>
<path fill="none" stroke="#000000" d="M795.2998,-148.1756C794.7354,-157.9095 798.9688,-166 808,-166 813.6445,-166 817.4149,-162.8397 819.3111,-158.093"/>
<polygon fill="#000000" stroke="#000000" points="822.7792,-158.5645 820.7002,-148.1756 815.8468,-157.5934 822.7792,-158.5645"/>
<text text-anchor="start" x="795.5" y="-169.8" font-family="arial" font-size="14.00" fill="#377eb8">true</text>
</g>
<!-- st0124&#45;&gt;st0235 -->
<g id="edge28" class="edge">
<title>st0124&#45;&gt;st0235</title>
<path fill="none" stroke="#000000" d="M847.0463,-138.2092C908.1335,-159.6488 1029.2223,-192.597 1125,-159 1151.9852,-149.5341 1177.0982,-129.3845 1195.408,-111.6768"/>
<polygon fill="#000000" stroke="#000000" points="1198.2183,-113.8169 1202.8241,-104.2755 1193.2735,-108.8621 1198.2183,-113.8169"/>
<text text-anchor="start" x="1008" y="-176.8" font-family="arial" font-size="14.00" fill="#377eb8">true</text>
</g>
<!-- st0124&#45;&gt;st01235 -->
<g id="edge30" class="edge">
<title>st0124&#45;&gt;st01235</title>
<path fill="none" stroke="#000000" d="M847.2431,-124.5578C853.1916,-124.7416 859.2578,-124.8993 865,-125 920.5914,-125.975 935.1472,-129.0847 990,-120 1006.9141,-117.1987 1025.0631,-112.507 1041.0893,-107.7571"/>
<polygon fill="#000000" stroke="#000000" points="1042.2185,-111.0719 1050.7636,-104.8084 1040.1776,-104.3761 1042.2185,-111.0719"/>
<text text-anchor="start" x="936.5" y="-130.8" font-family="arial" font-size="14.00" fill="#377eb8">true</text>
</g>
<!-- st0235&#45;&gt;st0235 -->
<g id="edge32" class="edge">
<title>st0235&#45;&gt;st0235</title>
<path fill="none" stroke="#000000" d="M1212.2998,-104.1756C1211.7354,-113.9095 1215.9688,-122 1225,-122 1230.6445,-122 1234.4149,-118.8397 1236.3111,-114.093"/>
<polygon fill="#000000" stroke="#000000" points="1239.7792,-114.5645 1237.7002,-104.1756 1232.8468,-113.5934 1239.7792,-114.5645"/>
<text text-anchor="start" x="1212.5" y="-125.8" font-family="arial" font-size="14.00" fill="#377eb8">true</text>
</g>
<!-- st0235&#45;&gt;st01235 -->
<g id="edge34" class="edge">
<title>st0235&#45;&gt;st01235</title>
<path fill="none" stroke="#000000" d="M1185.5966,-68.3158C1172.0258,-66.0625 1156.7795,-65.1245 1143,-68 1140.3197,-68.5593 1137.6101,-69.2567 1134.9054,-70.058"/>
<polygon fill="#000000" stroke="#000000" points="1133.5397,-66.8254 1125.1944,-73.3528 1135.7888,-73.4542 1133.5397,-66.8254"/>
<text text-anchor="start" x="1143" y="-71.8" font-family="arial" font-size="14.00" fill="#377eb8">true</text>
</g>
<!-- st0246 -->
<g id="node13" class="node">
<title>st0246</title>
<polygon fill="none" stroke="#000000" points="1546,-123 1464,-123 1464,-73 1546,-73 1546,-123"/>
<text text-anchor="start" x="1482" y="-108.8" font-family="arial" font-weight="bold" font-size="14.00" fill="#000000">st0246</text>
<text text-anchor="start" x="1472" y="-94.8" font-family="arial" font-size="14.00" fill="#984ea3">(!Q &amp;&amp; !R)</text>
<text text-anchor="start" x="1492.5" y="-80.8" font-family="arial" font-size="14.00" fill="#ff7f00">true</text>
</g>
<!-- st0235&#45;&gt;st0246 -->
<g id="edge31" class="edge">
<title>st0235&#45;&gt;st0246</title>
<path fill="none" stroke="#000000" d="M1264.3286,-84.9989C1282.7154,-87.5756 1304.9332,-90.365 1325,-92 1368.2554,-95.5243 1417.5193,-96.9908 1453.5609,-97.5948"/>
<polygon fill="#000000" stroke="#000000" points="1453.7775,-101.0984 1463.8291,-97.7496 1453.8831,-94.0992 1453.7775,-101.0984"/>
<text text-anchor="start" x="1351.5" y="-100.8" font-family="arial" font-size="14.00" fill="#377eb8">true</text>
</g>
<!-- st01246 -->
<g id="node14" class="node">
<title>st01246</title>
<polygon fill="none" stroke="#000000" points="1403,-50 1325,-50 1325,0 1403,0 1403,-50"/>
<text text-anchor="start" x="1336.5" y="-35.8" font-family="arial" font-weight="bold" font-size="14.00" fill="#000000">st01246</text>
<text text-anchor="start" x="1333" y="-21.8" font-family="arial" font-size="14.00" fill="#984ea3">(Q &amp;&amp; !R)</text>
<text text-anchor="start" x="1351.5" y="-7.8" font-family="arial" font-size="14.00" fill="#ff7f00">true</text>
</g>
<!-- st0235&#45;&gt;st01246 -->
<g id="edge33" class="edge">
<title>st0235&#45;&gt;st01246</title>
<path fill="none" stroke="#000000" d="M1264.0892,-63.8143C1279.9305,-57.6601 1298.3976,-50.4858 1315.115,-43.9913"/>
<polygon fill="#000000" stroke="#000000" points="1316.6688,-47.1426 1324.7226,-40.2588 1314.1339,-40.6177 1316.6688,-47.1426"/>
<text text-anchor="start" x="1282" y="-60.8" font-family="arial" font-size="14.00" fill="#377eb8">true</text>
</g>
<!-- st01235&#45;&gt;st0235 -->
<g id="edge36" class="edge">
<title>st01235&#45;&gt;st0235</title>
<path fill="none" stroke="#000000" d="M1125.0742,-88.482C1140.6927,-87 1159.0942,-85.2538 1175.8215,-83.6666"/>
<polygon fill="#000000" stroke="#000000" points="1176.3558,-87.1317 1185.9805,-82.7026 1175.6945,-80.163 1176.3558,-87.1317"/>
<text text-anchor="start" x="1143" y="-90.8" font-family="arial" font-size="14.00" fill="#377eb8">true</text>
</g>
<!-- st01235&#45;&gt;st01235 -->
<g id="edge38" class="edge">
<title>st01235&#45;&gt;st01235</title>
<path fill="none" stroke="#000000" d="M1075.6733,-117.1756C1075.1255,-126.9095 1079.2344,-135 1088,-135 1093.4785,-135 1097.138,-131.8397 1098.9784,-127.093"/>
<polygon fill="#000000" stroke="#000000" points="1102.4476,-127.556 1100.3267,-117.1756 1095.5114,-126.613 1102.4476,-127.556"/>
<text text-anchor="start" x="1075.5" y="-138.8" font-family="arial" font-size="14.00" fill="#377eb8">true</text>
</g>
<!-- st01235&#45;&gt;st0246 -->
<g id="edge35" class="edge">
<title>st01235&#45;&gt;st0246</title>
<path fill="none" stroke="#000000" d="M1123.3777,-117.1786C1141.2447,-128.3694 1163.8004,-140.2886 1186,-146 1279.0587,-169.9416 1390.6662,-140.2318 1454.1607,-118.0311"/>
<polygon fill="#000000" stroke="#000000" points="1455.6882,-121.2021 1463.9278,-114.5419 1453.3332,-114.6101 1455.6882,-121.2021"/>
<text text-anchor="start" x="1282" y="-158.8" font-family="arial" font-size="14.00" fill="#377eb8">true</text>
</g>
<!-- st01235&#45;&gt;st01246 -->
<g id="edge37" class="edge">
<title>st01235&#45;&gt;st01246</title>
<path fill="none" stroke="#000000" d="M1123.2897,-66.8726C1145.6701,-51.4973 1172.8091,-34.0239 1186,-30 1227.9844,-17.1927 1278.1522,-17.0538 1314.511,-19.4706"/>
<polygon fill="#000000" stroke="#000000" points="1314.6183,-22.9886 1324.8534,-20.2513 1315.1453,-16.0085 1314.6183,-22.9886"/>
<text text-anchor="start" x="1212.5" y="-33.8" font-family="arial" font-size="14.00" fill="#377eb8">true</text>
</g>
<!-- st0246&#45;&gt;st0246 -->
<g id="edge39" class="edge">
<title>st0246&#45;&gt;st0246</title>
<path fill="none" stroke="#000000" d="M1491.9263,-123.1756C1491.3452,-132.9095 1495.7031,-141 1505,-141 1510.8105,-141 1514.6918,-137.8397 1516.6438,-133.093"/>
<polygon fill="#000000" stroke="#000000" points="1520.1107,-133.5728 1518.0737,-123.1756 1513.1824,-132.5738 1520.1107,-133.5728"/>
<text text-anchor="start" x="1492.5" y="-144.8" font-family="arial" font-size="14.00" fill="#377eb8">true</text>
</g>
<!-- st0246&#45;&gt;st01246 -->
<g id="edge40" class="edge">
<title>st0246&#45;&gt;st01246</title>
<path fill="none" stroke="#000000" d="M1481.7118,-72.8694C1471.5719,-63.2273 1459.0346,-52.8951 1446,-46 1435.955,-40.6864 1424.4967,-36.6668 1413.3952,-33.6443"/>
<polygon fill="#000000" stroke="#000000" points="1413.9009,-30.1633 1403.3512,-31.1403 1412.2076,-36.9554 1413.9009,-30.1633"/>
<text text-anchor="start" x="1421" y="-49.8" font-family="arial" font-size="14.00" fill="#377eb8">true</text>
</g>
<!-- st01246&#45;&gt;st0246 -->
<g id="edge41" class="edge">
<title>st01246&#45;&gt;st0246</title>
<path fill="none" stroke="#000000" d="M1401.8629,-50.0031C1408.1622,-53.8456 1414.6975,-57.6455 1421,-61 1431.6601,-66.6738 1443.3698,-72.2307 1454.5735,-77.2428"/>
<polygon fill="#000000" stroke="#000000" points="1453.2686,-80.4924 1463.8314,-81.3154 1456.0873,-74.085 1453.2686,-80.4924"/>
<text text-anchor="start" x="1421" y="-77.8" font-family="arial" font-size="14.00" fill="#377eb8">true</text>
</g>
<!-- st01246&#45;&gt;st01246 -->
<g id="edge42" class="edge">
<title>st01246&#45;&gt;st01246</title>
<path fill="none" stroke="#000000" d="M1351.2998,-50.1756C1350.7354,-59.9095 1354.9688,-68 1364,-68 1369.6445,-68 1373.4149,-64.8397 1375.3111,-60.093"/>
<polygon fill="#000000" stroke="#000000" points="1378.7792,-60.5645 1376.7002,-50.1756 1371.8468,-59.5934 1378.7792,-60.5645"/>
<text text-anchor="start" x="1351.5" y="-71.8" font-family="arial" font-size="14.00" fill="#377eb8">true</text>
</g>
</g>
</svg>
