<?xml version="1.0" encoding="UTF-8" standalone="no"?>
<!DOCTYPE svg PUBLIC "-//W3C//DTD SVG 1.1//EN"
 "http://www.w3.org/Graphics/SVG/1.1/DTD/svg11.dtd">
<!-- Generated by graphviz version 2.40.1 (20161225.0304)
 -->
<!-- Title: G Pages: 1 -->
<svg width="1490pt" height="704pt"
 viewBox="0.00 0.00 1490.00 704.00" xmlns="http://www.w3.org/2000/svg" xmlns:xlink="http://www.w3.org/1999/xlink">
<g id="graph0" class="graph" transform="scale(1 1) rotate(0) translate(4 700)">
<title>G</title>
<polygon fill="#ffffff" stroke="transparent" points="-4,4 -4,-700 1486,-700 1486,4 -4,4"/>
<!-- _st0 -->
<!-- st0 -->
<g id="node2" class="node">
<title>st0</title>
<polygon fill="none" stroke="#000000" points="157,-529 91,-529 91,-479 157,-479 157,-529"/>
<text text-anchor="start" x="113" y="-514.8" font-family="arial" font-weight="bold" font-size="14.00" fill="#000000">st0</text>
<text text-anchor="start" x="99" y="-500.8" font-family="arial" font-size="14.00" fill="#984ea3">(R || !Q)</text>
<text text-anchor="start" x="111.5" y="-486.8" font-family="arial" font-size="14.00" fill="#ff7f00">true</text>
</g>
<!-- _st0&#45;&gt;st0 -->
<g id="edge1" class="edge">
<title>_st0&#45;&gt;st0</title>
<path fill="none" stroke="#000000" d="M54.0199,-504C62.3287,-504 71.6915,-504 80.8018,-504"/>
<polygon fill="#000000" stroke="#000000" points="80.9106,-507.5001 90.9106,-504 80.9105,-500.5001 80.9106,-507.5001"/>
</g>
<!-- st0&#45;&gt;st0 -->
<g id="edge4" class="edge">
<title>st0&#45;&gt;st0</title>
<path fill="none" stroke="#000000" d="M114.6616,-529.1756C114.2466,-538.9095 117.3594,-547 124,-547 128.0466,-547 130.7832,-543.9957 132.2098,-539.446"/>
<polygon fill="#000000" stroke="#000000" points="135.7251,-539.4981 133.3384,-529.1756 128.767,-538.7335 135.7251,-539.4981"/>
<text text-anchor="start" x="111.5" y="-550.8" font-family="arial" font-size="14.00" fill="#377eb8">true</text>
</g>
<!-- st012 -->
<g id="node4" class="node">
<title>st012</title>
<polygon fill="none" stroke="#000000" points="345,-346 218,-346 218,-296 345,-296 345,-346"/>
<text text-anchor="start" x="262.5" y="-331.8" font-family="arial" font-weight="bold" font-size="14.00" fill="#000000">st012</text>
<text text-anchor="start" x="226" y="-317.8" font-family="arial" font-size="14.00" fill="#984ea3">(Q &amp;&amp; (!R &amp;&amp; !T))</text>
<text text-anchor="start" x="269" y="-303.8" font-family="arial" font-size="14.00" fill="#ff7f00">true</text>
</g>
<!-- st0&#45;&gt;st012 -->
<g id="edge5" class="edge">
<title>st0&#45;&gt;st012</title>
<path fill="none" stroke="#000000" d="M133.8491,-478.8082C142.6794,-458.1702 157.0037,-428.9041 175,-407 192.105,-386.1808 214.9487,-366.9339 235.0927,-351.9503"/>
<polygon fill="#000000" stroke="#000000" points="237.2254,-354.7269 243.2431,-346.0069 233.101,-349.071 237.2254,-354.7269"/>
<text text-anchor="start" x="175" y="-410.8" font-family="arial" font-size="14.00" fill="#377eb8">true</text>
</g>
<!-- st0123W -->
<g id="node6" class="node">
<title>st0123W</title>
<polygon fill="none" stroke="#000000" points="1482,-403 1359,-403 1359,-353 1482,-353 1482,-403"/>
<text text-anchor="start" x="1390.5" y="-388.8" font-family="arial" font-weight="bold" font-size="14.00" fill="#000000">st0123W</text>
<text text-anchor="start" x="1367" y="-374.8" font-family="arial" font-size="14.00" fill="#984ea3">(Q &amp;&amp; (!R &amp;&amp; T))</text>
<text text-anchor="start" x="1392" y="-360.8" font-family="arial" font-size="14.00" fill="#ff7f00">c0 &lt;= 50</text>
</g>
<!-- st0&#45;&gt;st0123W -->
<g id="edge6" class="edge">
<title>st0&#45;&gt;st0123W</title>
<path fill="none" stroke="#000000" d="M127.9082,-529.0533C133.5491,-557.0783 146.5988,-602.0659 175,-629 211.3587,-663.4806 231.3915,-666 281.5,-666 281.5,-666 281.5,-666 1217.5,-666 1274.7993,-666 1300.1674,-669.1984 1341,-629 1371.9463,-598.5343 1400.7504,-475.0202 1413.5443,-413.3653"/>
<polygon fill="#000000" stroke="#000000" points="1417.0248,-413.8147 1415.6013,-403.3159 1410.167,-412.4109 1417.0248,-413.8147"/>
<text text-anchor="start" x="713" y="-684.8" font-family="arial" font-size="14.00" fill="#377eb8">true</text>
<text text-anchor="start" x="705.5" y="-669.8" font-family="arial" font-size="14.00" fill="#000000">c0 :=0</text>
</g>
<!-- _st012 -->
<!-- _st012&#45;&gt;st012 -->
<g id="edge2" class="edge">
<title>_st012&#45;&gt;st012</title>
<path fill="none" stroke="#000000" d="M154.7415,-321C169.9942,-321 189.1324,-321 207.8811,-321"/>
<polygon fill="#000000" stroke="#000000" points="207.9273,-324.5001 217.9273,-321 207.9272,-317.5001 207.9273,-324.5001"/>
</g>
<!-- st012&#45;&gt;st0 -->
<g id="edge12" class="edge">
<title>st012&#45;&gt;st0</title>
<path fill="none" stroke="#000000" d="M261.872,-346.295C245.6479,-366.9642 221.8172,-396.7808 200,-422 185.6171,-438.6257 169.0851,-456.5904 155.1208,-471.4551"/>
<polygon fill="#000000" stroke="#000000" points="152.3929,-469.2462 148.0773,-478.9223 157.4851,-474.0494 152.3929,-469.2462"/>
<text text-anchor="start" x="180.5" y="-452.8" font-family="arial" font-size="14.00" fill="#377eb8">R&#39;</text>
</g>
<!-- st012&#45;&gt;st012 -->
<g id="edge15" class="edge">
<title>st012&#45;&gt;st012</title>
<path fill="none" stroke="#000000" d="M263.9438,-346.1756C263.1636,-355.9095 269.0156,-364 281.5,-364 289.3027,-364 294.5147,-360.8397 297.1359,-356.093"/>
<polygon fill="#000000" stroke="#000000" points="300.5913,-356.6586 299.0562,-346.1756 293.719,-355.3279 300.5913,-356.6586"/>
<text text-anchor="start" x="269" y="-367.8" font-family="arial" font-size="14.00" fill="#377eb8">true</text>
</g>
<!-- st012&#45;&gt;st0123W -->
<g id="edge16" class="edge">
<title>st012&#45;&gt;st0123W</title>
<path fill="none" stroke="#000000" d="M340.6414,-295.9414C342.2042,-294.3876 343.6652,-292.7421 345,-291 372.4646,-255.153 344.3958,-232.1484 363,-191 398.7729,-111.878 397.6668,-38 484.5,-38 484.5,-38 484.5,-38 1217.5,-38 1277.056,-38 1301.6937,-45.2571 1341,-90 1374.2947,-127.8999 1402.8911,-274.4766 1414.7068,-342.6991"/>
<polygon fill="#000000" stroke="#000000" points="1411.2576,-343.2935 1416.3922,-352.5609 1418.1575,-342.1142 1411.2576,-343.2935"/>
<text text-anchor="start" x="835.5" y="-56.8" font-family="arial" font-size="14.00" fill="#377eb8">true</text>
<text text-anchor="start" x="828" y="-41.8" font-family="arial" font-size="14.00" fill="#000000">c0 :=0</text>
</g>
<!-- st02 -->
<g id="node7" class="node">
<title>st02</title>
<polygon fill="none" stroke="#000000" points="1283,-350 1152,-350 1152,-300 1283,-300 1283,-350"/>
<text text-anchor="start" x="1202.5" y="-335.8" font-family="arial" font-weight="bold" font-size="14.00" fill="#000000">st02</text>
<text text-anchor="start" x="1160" y="-321.8" font-family="arial" font-size="14.00" fill="#984ea3">(!Q &amp;&amp; (!R &amp;&amp; !T))</text>
<text text-anchor="start" x="1205" y="-307.8" font-family="arial" font-size="14.00" fill="#ff7f00">true</text>
</g>
<!-- st012&#45;&gt;st02 -->
<g id="edge13" class="edge">
<title>st012&#45;&gt;st02</title>
<path fill="none" stroke="#000000" d="M345.0786,-327.794C477.8657,-340.9736 794.2879,-367.1062 1059,-348 1086.0542,-346.0473 1115.5049,-342.2431 1141.5974,-338.2819"/>
<polygon fill="#000000" stroke="#000000" points="1142.4517,-341.6914 1151.7972,-336.7002 1141.3789,-334.7741 1142.4517,-341.6914"/>
<text text-anchor="start" x="713" y="-357.8" font-family="arial" font-size="14.00" fill="#377eb8">true</text>
</g>
<!-- st023W -->
<g id="node8" class="node">
<title>st023W</title>
<polygon fill="none" stroke="#000000" points="548,-226 421,-226 421,-176 548,-176 548,-226"/>
<text text-anchor="start" x="458.5" y="-211.8" font-family="arial" font-weight="bold" font-size="14.00" fill="#000000">st023W</text>
<text text-anchor="start" x="429" y="-197.8" font-family="arial" font-size="14.00" fill="#984ea3">(!Q &amp;&amp; (!R &amp;&amp; T))</text>
<text text-anchor="start" x="456" y="-183.8" font-family="arial" font-size="14.00" fill="#ff7f00">c0 &lt;= 50</text>
</g>
<!-- st012&#45;&gt;st023W -->
<g id="edge14" class="edge">
<title>st012&#45;&gt;st023W</title>
<path fill="none" stroke="#000000" d="M291.4019,-295.5438C303.6347,-267.9896 327.3066,-225.3926 363,-206 377.3636,-198.1961 394.1534,-194.6555 410.5878,-193.5132"/>
<polygon fill="#000000" stroke="#000000" points="410.902,-197.0034 420.7497,-193.0952 410.6142,-190.0093 410.902,-197.0034"/>
<text text-anchor="start" x="370.5" y="-224.8" font-family="arial" font-size="14.00" fill="#377eb8">true</text>
<text text-anchor="start" x="363" y="-209.8" font-family="arial" font-size="14.00" fill="#000000">c0 :=0</text>
</g>
<!-- _st0123W -->
<!-- _st0123W&#45;&gt;st0123W -->
<g id="edge3" class="edge">
<title>_st0123W&#45;&gt;st0123W</title>
<path fill="none" stroke="#000000" d="M1259.1887,-549.4355C1285.0068,-545.9848 1317.586,-538.0585 1341,-520 1376.2783,-492.7909 1398.2596,-445.2247 1409.9398,-412.7035"/>
<polygon fill="#000000" stroke="#000000" points="1413.2888,-413.7276 1413.2373,-403.1329 1406.6706,-411.4473 1413.2888,-413.7276"/>
</g>
<!-- st0123W&#45;&gt;st0 -->
<g id="edge29" class="edge">
<title>st0123W&#45;&gt;st0</title>
<path fill="none" stroke="#000000" d="M1413.5053,-403.1135C1402.7352,-438.086 1379.2362,-501.8917 1341,-544 1298.4379,-590.8723 1280.8131,-615 1217.5,-615 281.5,-615 281.5,-615 281.5,-615 226.9155,-615 177.9273,-569.9045 149.5772,-537.2003"/>
<polygon fill="#000000" stroke="#000000" points="151.9445,-534.578 142.8234,-529.1876 146.5922,-539.0895 151.9445,-534.578"/>
<text text-anchor="start" x="718.5" y="-618.8" font-family="arial" font-size="14.00" fill="#377eb8">R&#39;</text>
</g>
<!-- st0123W&#45;&gt;st012 -->
<g id="edge33" class="edge">
<title>st0123W&#45;&gt;st012</title>
<path fill="none" stroke="#000000" d="M1417.2267,-352.7783C1407.93,-284.4907 1379.5269,-97.9855 1341,-51 1303.3459,-5.079 1276.8849,0 1217.5,0 484.5,0 484.5,0 484.5,0 418.5973,0 392.7491,-26.1939 363,-85 343.5532,-123.4412 367.8292,-237.7168 346.0882,-286.9"/>
<polygon fill="#000000" stroke="#000000" points="342.9226,-285.3901 341.0998,-295.8269 349.0333,-288.8047 342.9226,-285.3901"/>
<text text-anchor="start" x="835.5" y="-3.8" font-family="arial" font-size="14.00" fill="#377eb8">true</text>
</g>
<!-- st0123W&#45;&gt;st0123W -->
<g id="edge34" class="edge">
<title>st0123W&#45;&gt;st0123W</title>
<path fill="none" stroke="#000000" d="M1402.1968,-403.1756C1401.3833,-412.9095 1407.4844,-421 1420.5,-421 1428.6348,-421 1434.0685,-417.8397 1436.8013,-413.093"/>
<polygon fill="#000000" stroke="#000000" points="1440.2553,-413.6705 1438.8032,-403.1756 1433.3937,-412.2853 1440.2553,-413.6705"/>
<text text-anchor="start" x="1396" y="-424.8" font-family="arial" font-size="14.00" fill="#377eb8">c0 &lt; 50</text>
</g>
<!-- st0123W&#45;&gt;st02 -->
<g id="edge30" class="edge">
<title>st0123W&#45;&gt;st02</title>
<path fill="none" stroke="#000000" d="M1358.937,-368.7717C1340.1818,-365.3978 1319.6091,-361.1257 1301,-356 1297.6946,-355.0896 1294.3354,-354.1043 1290.9565,-353.064"/>
<polygon fill="#000000" stroke="#000000" points="1292.0016,-349.7236 1281.4104,-350.0029 1289.8641,-356.3893 1292.0016,-349.7236"/>
<text text-anchor="start" x="1308.5" y="-368.8" font-family="arial" font-size="14.00" fill="#377eb8">true</text>
</g>
<!-- st0123W&#45;&gt;st023W -->
<g id="edge31" class="edge">
<title>st0123W&#45;&gt;st023W</title>
<path fill="none" stroke="#000000" d="M1397.3181,-352.9972C1344.0843,-298.0686 1206.2965,-169.7059 1059,-144 875.8856,-112.0433 824.8959,-130.9 641,-158 613.4392,-162.0615 583.8239,-169.3996 557.8518,-176.8775"/>
<polygon fill="#000000" stroke="#000000" points="556.6972,-173.5687 548.088,-179.7438 558.6689,-180.2853 556.6972,-173.5687"/>
<text text-anchor="start" x="948" y="-147.8" font-family="arial" font-size="14.00" fill="#377eb8">c0 &lt; 50</text>
</g>
<!-- st023 -->
<g id="node9" class="node">
<title>st023</title>
<polygon fill="none" stroke="#000000" points="1059,-445 886,-445 886,-395 1059,-395 1059,-445"/>
<text text-anchor="start" x="953.5" y="-430.8" font-family="arial" font-weight="bold" font-size="14.00" fill="#000000">st023</text>
<text text-anchor="start" x="894" y="-416.8" font-family="arial" font-size="14.00" fill="#984ea3">(!Q &amp;&amp; (!R &amp;&amp; (S &amp;&amp; T)))</text>
<text text-anchor="start" x="960" y="-402.8" font-family="arial" font-size="14.00" fill="#ff7f00">true</text>
</g>
<!-- st0123W&#45;&gt;st023 -->
<g id="edge32" class="edge">
<title>st0123W&#45;&gt;st023</title>
<path fill="none" stroke="#000000" d="M1358.8502,-386.1663C1300.9016,-393.5893 1211.6989,-404.366 1134,-411 1113.1063,-412.7839 1090.6605,-414.2929 1069.3457,-415.5355"/>
<polygon fill="#000000" stroke="#000000" points="1069.0997,-412.0438 1059.3145,-416.1059 1069.4971,-419.0325 1069.0997,-412.0438"/>
<text text-anchor="start" x="1189" y="-412.8" font-family="arial" font-size="14.00" fill="#377eb8">c0 &gt;= 50</text>
</g>
<!-- st0123 -->
<g id="node10" class="node">
<title>st0123</title>
<polygon fill="none" stroke="#000000" points="810,-470 641,-470 641,-420 810,-420 810,-470"/>
<text text-anchor="start" x="702.5" y="-455.8" font-family="arial" font-weight="bold" font-size="14.00" fill="#000000">st0123</text>
<text text-anchor="start" x="649" y="-441.8" font-family="arial" font-size="14.00" fill="#984ea3">(Q &amp;&amp; (!R &amp;&amp; (S &amp;&amp; T)))</text>
<text text-anchor="start" x="713" y="-427.8" font-family="arial" font-size="14.00" fill="#ff7f00">true</text>
</g>
<!-- st0123W&#45;&gt;st0123 -->
<g id="edge35" class="edge">
<title>st0123W&#45;&gt;st0123</title>
<path fill="none" stroke="#000000" d="M1358.9638,-401.7347C1335.3688,-410.4765 1308.091,-420.1516 1283,-428 1112.7522,-481.2534 1062.9236,-509.7656 886,-487 862.5034,-483.9766 837.5373,-478.5604 814.4715,-472.6011"/>
<polygon fill="#000000" stroke="#000000" points="815.2749,-469.1933 804.7123,-470.0193 813.4845,-475.9605 815.2749,-469.1933"/>
<text text-anchor="start" x="1077" y="-490.8" font-family="arial" font-size="14.00" fill="#377eb8">c0 &gt;= 50</text>
</g>
<!-- st02&#45;&gt;st0 -->
<g id="edge7" class="edge">
<title>st02&#45;&gt;st0</title>
<path fill="none" stroke="#000000" d="M1191.5503,-350.2778C1179.3363,-362.3944 1164.6974,-377.236 1152,-391 1111.7206,-434.663 1111.5802,-459.3557 1059,-487 806.9836,-619.4989 705.535,-555.3959 421,-545 311.4475,-540.9973 281.2621,-553.947 175,-527 172.2197,-526.2949 169.4021,-525.4465 166.593,-524.4971"/>
<polygon fill="#000000" stroke="#000000" points="167.7325,-521.1863 157.1404,-520.942 165.2683,-527.7383 167.7325,-521.1863"/>
<text text-anchor="start" x="587.5" y="-563.8" font-family="arial" font-size="14.00" fill="#377eb8">R&#39;</text>
</g>
<!-- st02&#45;&gt;st012 -->
<g id="edge10" class="edge">
<title>st02&#45;&gt;st012</title>
<path fill="none" stroke="#000000" d="M1151.8462,-319.9464C1034.3511,-311.5354 780.3541,-296.2258 566,-303 494.2532,-305.2674 412.4809,-310.7435 355.0741,-315.0646"/>
<polygon fill="#000000" stroke="#000000" points="354.7108,-311.582 345.0047,-315.8295 355.2411,-318.5619 354.7108,-311.582"/>
<text text-anchor="start" x="713" y="-306.8" font-family="arial" font-size="14.00" fill="#377eb8">true</text>
</g>
<!-- st02&#45;&gt;st0123W -->
<g id="edge11" class="edge">
<title>st02&#45;&gt;st0123W</title>
<path fill="none" stroke="#000000" d="M1283.2788,-318.6693C1302.2416,-318.6721 1322.7339,-320.4761 1341,-326 1355.6221,-330.4219 1370.0705,-338.4514 1382.5569,-346.8989"/>
<polygon fill="#000000" stroke="#000000" points="1380.6802,-349.8586 1390.8658,-352.7749 1384.722,-344.1433 1380.6802,-349.8586"/>
<text text-anchor="start" x="1308.5" y="-344.8" font-family="arial" font-size="14.00" fill="#377eb8">true</text>
<text text-anchor="start" x="1301" y="-329.8" font-family="arial" font-size="14.00" fill="#000000">c0 :=0</text>
</g>
<!-- st02&#45;&gt;st02 -->
<g id="edge8" class="edge">
<title>st02&#45;&gt;st02</title>
<path fill="none" stroke="#000000" d="M1198.4497,-350.1756C1197.603,-359.9095 1203.9531,-368 1217.5,-368 1225.9668,-368 1231.6224,-364.8397 1234.4667,-360.093"/>
<polygon fill="#000000" stroke="#000000" points="1237.9193,-360.6816 1236.5503,-350.1756 1231.0689,-359.2423 1237.9193,-360.6816"/>
<text text-anchor="start" x="1205" y="-371.8" font-family="arial" font-size="14.00" fill="#377eb8">true</text>
</g>
<!-- st02&#45;&gt;st023W -->
<g id="edge9" class="edge">
<title>st02&#45;&gt;st023W</title>
<path fill="none" stroke="#000000" d="M1207.8326,-299.7869C1195.3923,-271.0325 1170.8895,-225.0328 1134,-202 1032.7014,-138.752 987.122,-172.4657 868,-164 733.7277,-154.4576 699.4952,-169.7046 566,-187 563.3549,-187.3427 560.6645,-187.7094 557.9494,-188.0948"/>
<polygon fill="#000000" stroke="#000000" points="557.4249,-184.6342 548.0462,-189.5626 558.4513,-191.5585 557.4249,-184.6342"/>
<text text-anchor="start" x="835.5" y="-182.8" font-family="arial" font-size="14.00" fill="#377eb8">true</text>
<text text-anchor="start" x="828" y="-167.8" font-family="arial" font-size="14.00" fill="#000000">c0 :=0</text>
</g>
<!-- st023W&#45;&gt;st0 -->
<g id="edge17" class="edge">
<title>st023W&#45;&gt;st0</title>
<path fill="none" stroke="#000000" d="M420.7449,-187.7844C401.9235,-186.0113 381.4339,-186.2003 363,-191 291.5639,-209.6001 266.861,-216.6675 218,-272 166.7062,-330.0875 141.2627,-419.8152 130.5443,-468.9223"/>
<polygon fill="#000000" stroke="#000000" points="127.1087,-468.2526 128.4766,-478.7587 133.959,-469.6926 127.1087,-468.2526"/>
<text text-anchor="start" x="274.5" y="-275.8" font-family="arial" font-size="14.00" fill="#377eb8">R&#39;</text>
</g>
<!-- st023W&#45;&gt;st012 -->
<g id="edge21" class="edge">
<title>st023W&#45;&gt;st012</title>
<path fill="none" stroke="#000000" d="M427.0558,-226.1415C406.4026,-235.8923 383.2244,-247.6756 363,-260 348.5021,-268.8348 333.4088,-279.6284 320.2084,-289.6669"/>
<polygon fill="#000000" stroke="#000000" points="318.0405,-286.9188 312.2562,-295.7954 322.3134,-292.4634 318.0405,-286.9188"/>
<text text-anchor="start" x="370.5" y="-263.8" font-family="arial" font-size="14.00" fill="#377eb8">true</text>
</g>
<!-- st023W&#45;&gt;st0123W -->
<g id="edge22" class="edge">
<title>st023W&#45;&gt;st0123W</title>
<path fill="none" stroke="#000000" d="M500.2973,-175.7183C514.7471,-154.8604 538.0865,-126.2965 566,-111 629.0509,-76.4483 653.6026,-84 725.5,-84 725.5,-84 725.5,-84 1217.5,-84 1274.7993,-84 1300.303,-80.6643 1341,-121 1372.7366,-152.4549 1401.4454,-280.4696 1413.922,-343.1231"/>
<polygon fill="#000000" stroke="#000000" points="1410.4906,-343.8134 1415.8525,-352.9513 1417.3594,-342.4642 1410.4906,-343.8134"/>
<text text-anchor="start" x="948" y="-87.8" font-family="arial" font-size="14.00" fill="#377eb8">c0 &lt; 50</text>
</g>
<!-- st023W&#45;&gt;st02 -->
<g id="edge18" class="edge">
<title>st023W&#45;&gt;st02</title>
<path fill="none" stroke="#000000" d="M548.2153,-194.7494C667.9387,-185.5401 932.5649,-177.3303 1134,-259 1153.0721,-266.7326 1171.3538,-280.2291 1185.9229,-293.0107"/>
<polygon fill="#000000" stroke="#000000" points="1183.8603,-295.8654 1193.6164,-299.9969 1188.5661,-290.6832 1183.8603,-295.8654"/>
<text text-anchor="start" x="835.5" y="-201.8" font-family="arial" font-size="14.00" fill="#377eb8">true</text>
</g>
<!-- st023W&#45;&gt;st023W -->
<g id="edge19" class="edge">
<title>st023W&#45;&gt;st023W</title>
<path fill="none" stroke="#000000" d="M465.8232,-226.1756C464.9932,-235.9095 471.2188,-244 484.5,-244 492.8008,-244 498.3454,-240.8397 501.134,-236.093"/>
<polygon fill="#000000" stroke="#000000" points="504.5873,-236.6761 503.1768,-226.1756 497.7312,-235.2639 504.5873,-236.6761"/>
<text text-anchor="start" x="460" y="-247.8" font-family="arial" font-size="14.00" fill="#377eb8">c0 &lt; 50</text>
</g>
<!-- st023W&#45;&gt;st023 -->
<g id="edge20" class="edge">
<title>st023W&#45;&gt;st023</title>
<path fill="none" stroke="#000000" d="M548.2593,-212.0687C641.4926,-228.3501 804.629,-257.2434 810,-261 861.9733,-297.3514 837.1426,-343.2994 884.9603,-388.2344"/>
<polygon fill="#000000" stroke="#000000" points="882.7213,-390.9257 892.5604,-394.8556 887.3195,-385.6477 882.7213,-390.9257"/>
<text text-anchor="start" x="697" y="-264.8" font-family="arial" font-size="14.00" fill="#377eb8">c0 &gt;= 50</text>
</g>
<!-- st023W&#45;&gt;st0123 -->
<g id="edge23" class="edge">
<title>st023W&#45;&gt;st0123</title>
<path fill="none" stroke="#000000" d="M506.9745,-226.1977C536.8505,-259.4076 591.6308,-319.3152 641,-368 656.4037,-383.1901 674.0091,-399.4042 689.1489,-413.0165"/>
<polygon fill="#000000" stroke="#000000" points="687.0307,-415.8178 696.8166,-419.8785 691.6989,-410.6016 687.0307,-415.8178"/>
<text text-anchor="start" x="566" y="-348.8" font-family="arial" font-size="14.00" fill="#377eb8">c0 &gt;= 50</text>
</g>
<!-- st023&#45;&gt;st0 -->
<g id="edge24" class="edge">
<title>st023&#45;&gt;st0</title>
<path fill="none" stroke="#000000" d="M940.168,-445.015C908.86,-467.5394 859.0519,-499.0351 810,-512 678.9447,-546.6391 335.5557,-512.8889 200,-513 188.8889,-513.0091 186.0688,-513.9692 175,-513 172.4529,-512.777 169.8424,-512.4925 167.214,-512.1628"/>
<polygon fill="#000000" stroke="#000000" points="167.4807,-508.6652 157.0836,-510.7027 166.482,-515.5936 167.4807,-508.6652"/>
<text text-anchor="start" x="477.5" y="-529.8" font-family="arial" font-size="14.00" fill="#377eb8">R&#39;</text>
</g>
<!-- st023&#45;&gt;st012 -->
<g id="edge27" class="edge">
<title>st023&#45;&gt;st012</title>
<path fill="none" stroke="#000000" d="M885.7985,-414.314C729.3982,-403.7626 411.7032,-380.8753 363,-366 351.2858,-362.4222 339.3652,-357.0193 328.3869,-351.1854"/>
<polygon fill="#000000" stroke="#000000" points="329.8555,-347.9979 319.4119,-346.2141 326.4637,-354.1213 329.8555,-347.9979"/>
<text text-anchor="start" x="569" y="-397.8" font-family="arial" font-size="14.00" fill="#377eb8">(R&#39; || S&#39;)</text>
</g>
<!-- st023&#45;&gt;st02 -->
<g id="edge25" class="edge">
<title>st023&#45;&gt;st02</title>
<path fill="none" stroke="#000000" d="M1059.3215,-398.8471C1083.8837,-391.7643 1110.356,-383.0652 1134,-373 1145.7756,-367.9872 1157.9738,-361.6811 1169.2894,-355.3033"/>
<polygon fill="#000000" stroke="#000000" points="1171.2339,-358.2223 1178.1501,-350.1963 1167.7384,-352.1575 1171.2339,-358.2223"/>
<text text-anchor="start" x="1080" y="-396.8" font-family="arial" font-size="14.00" fill="#377eb8">(R&#39; || S&#39;)</text>
</g>
<!-- st023&#45;&gt;st023 -->
<g id="edge26" class="edge">
<title>st023&#45;&gt;st023</title>
<path fill="none" stroke="#000000" d="M949.3408,-445.1756C948.3115,-454.9095 956.0313,-463 972.5,-463 982.793,-463 989.6684,-459.8397 993.1261,-455.093"/>
<polygon fill="#000000" stroke="#000000" points="996.5755,-455.7308 995.6592,-445.1756 989.7933,-453.9984 996.5755,-455.7308"/>
<text text-anchor="start" x="960" y="-466.8" font-family="arial" font-size="14.00" fill="#377eb8">true</text>
</g>
<!-- st023&#45;&gt;st0123 -->
<g id="edge28" class="edge">
<title>st023&#45;&gt;st0123</title>
<path fill="none" stroke="#000000" d="M885.6625,-424.0984C866.6342,-425.3618 846.6157,-426.9717 828,-429 825.4542,-429.2774 822.875,-429.5733 820.2739,-429.8849"/>
<polygon fill="#000000" stroke="#000000" points="819.6422,-426.4366 810.1575,-431.1579 820.5163,-433.3819 819.6422,-426.4366"/>
<text text-anchor="start" x="835.5" y="-432.8" font-family="arial" font-size="14.00" fill="#377eb8">true</text>
</g>
<!-- st0123&#45;&gt;st0 -->
<g id="edge36" class="edge">
<title>st0123&#45;&gt;st0</title>
<path fill="none" stroke="#000000" d="M640.8873,-462.2967C634.8467,-463.2893 628.8386,-464.2049 623,-465 455.2486,-487.8447 253.8101,-498.5062 167.1224,-502.297"/>
<polygon fill="#000000" stroke="#000000" points="166.9704,-498.8002 157.1296,-502.7255 167.2704,-505.7937 166.9704,-498.8002"/>
<text text-anchor="start" x="376" y="-493.8" font-family="arial" font-size="14.00" fill="#377eb8">R&#39;</text>
</g>
<!-- st0123&#45;&gt;st012 -->
<g id="edge39" class="edge">
<title>st0123&#45;&gt;st012</title>
<path fill="none" stroke="#000000" d="M640.7519,-451.8239C564.2622,-454.3921 450.6254,-449.0647 363,-406 339.1854,-394.296 318.5691,-372.6104 304.0297,-354.0733"/>
<polygon fill="#000000" stroke="#000000" points="306.8123,-351.9501 297.9836,-346.0931 301.2328,-356.1774 306.8123,-351.9501"/>
<text text-anchor="start" x="459" y="-452.8" font-family="arial" font-size="14.00" fill="#377eb8">(R&#39; || S&#39;)</text>
</g>
<!-- st0123&#45;&gt;st02 -->
<g id="edge37" class="edge">
<title>st0123&#45;&gt;st02</title>
<path fill="none" stroke="#000000" d="M770.4639,-419.914C801.8993,-403.4767 845.364,-382.903 886,-371 971.5236,-345.9485 1073.5611,-334.4032 1141.6258,-329.1726"/>
<polygon fill="#000000" stroke="#000000" points="1142.1187,-332.6458 1151.8326,-328.416 1141.6012,-325.6649 1142.1187,-332.6458"/>
<text text-anchor="start" x="947" y="-374.8" font-family="arial" font-size="14.00" fill="#377eb8">(R&#39; || S&#39;)</text>
</g>
<!-- st0123&#45;&gt;st023 -->
<g id="edge38" class="edge">
<title>st0123&#45;&gt;st023</title>
<path fill="none" stroke="#000000" d="M810.081,-447.4504C829.1786,-447.1585 849.3247,-446.1834 868,-444 870.548,-443.7021 873.1245,-443.3667 875.719,-442.9988"/>
<polygon fill="#000000" stroke="#000000" points="876.4523,-446.4268 885.7939,-441.4284 875.3741,-439.5104 876.4523,-446.4268"/>
<text text-anchor="start" x="835.5" y="-449.8" font-family="arial" font-size="14.00" fill="#377eb8">true</text>
</g>
<!-- st0123&#45;&gt;st0123 -->
<g id="edge40" class="edge">
<title>st0123&#45;&gt;st0123</title>
<path fill="none" stroke="#000000" d="M702.7144,-470.1756C701.7017,-479.9095 709.2969,-488 725.5,-488 735.627,-488 742.3914,-484.8397 745.7935,-480.093"/>
<polygon fill="#000000" stroke="#000000" points="749.2429,-480.7271 748.2856,-470.1756 742.4539,-479.0211 749.2429,-480.7271"/>
<text text-anchor="start" x="713" y="-491.8" font-family="arial" font-size="14.00" fill="#377eb8">true</text>
</g>
</g>
</svg>
