<?xml version="1.0" encoding="UTF-8" standalone="no"?>
<!DOCTYPE svg PUBLIC "-//W3C//DTD SVG 1.1//EN"
 "http://www.w3.org/Graphics/SVG/1.1/DTD/svg11.dtd">
<!-- Generated by graphviz version 2.43.0 (0)
 -->
<!-- Title: G Pages: 1 -->
<svg width="1827pt" height="963pt"
 viewBox="0.00 0.00 1827.00 963.00" xmlns="http://www.w3.org/2000/svg" xmlns:xlink="http://www.w3.org/1999/xlink">
<g id="graph0" class="graph" transform="scale(1 1) rotate(0) translate(4 959)">
<title>G</title>
<polygon fill="white" stroke="transparent" points="-4,4 -4,-959 1823,-959 1823,4 -4,4"/>
<!-- _ID_36_ct0_st0 -->
<!-- ID_36_ct0_st0 -->
<g id="node2" class="node">
<title>ID_36_ct0_st0</title>
<polygon fill="none" stroke="black" points="261,-749 154,-749 154,-699 261,-699 261,-749"/>
<text text-anchor="start" x="162" y="-734.8" font-family="arial" font-weight="bold" font-size="14.00">ID_36_ct0_st0</text>
<text text-anchor="start" x="199.5" y="-720.8" font-family="arial" font-size="14.00" fill="#984ea3">!Q</text>
<text text-anchor="start" x="195.5" y="-706.8" font-family="arial" font-size="14.00" fill="#ff7f00">true</text>
</g>
<!-- _ID_36_ct0_st0&#45;&gt;ID_36_ct0_st0 -->
<g id="edge1" class="edge">
<title>_ID_36_ct0_st0&#45;&gt;ID_36_ct0_st0</title>
<path fill="none" stroke="black" d="M111.08,-724C121.62,-724 132.74,-724 143.52,-724"/>
<polygon fill="black" stroke="black" points="143.72,-727.5 153.72,-724 143.72,-720.5 143.72,-727.5"/>
</g>
<!-- ID_36_ct0_st0&#45;&gt;ID_36_ct0_st0 -->
<g id="edge5" class="edge">
<title>ID_36_ct0_st0&#45;&gt;ID_36_ct0_st0</title>
<path fill="none" stroke="black" d="M192.93,-749.18C192.28,-758.91 197.14,-767 207.5,-767 213.97,-767 218.3,-763.84 220.47,-759.09"/>
<polygon fill="black" stroke="black" points="223.94,-759.6 222.07,-749.18 217.03,-758.49 223.94,-759.6"/>
<text text-anchor="start" x="195.5" y="-770.8" font-family="arial" font-size="14.00" fill="#377eb8">true</text>
</g>
<!-- ID_36_ct0_st01 -->
<g id="node4" class="node">
<title>ID_36_ct0_st01</title>
<polygon fill="none" stroke="black" points="441,-466 327,-466 327,-416 441,-416 441,-466"/>
<text text-anchor="start" x="335" y="-451.8" font-family="arial" font-weight="bold" font-size="14.00">ID_36_ct0_st01</text>
<text text-anchor="start" x="356" y="-437.8" font-family="arial" font-size="14.00" fill="#984ea3">(Q &amp;&amp; R)</text>
<text text-anchor="start" x="372" y="-423.8" font-family="arial" font-size="14.00" fill="#ff7f00">true</text>
</g>
<!-- ID_36_ct0_st0&#45;&gt;ID_36_ct0_st01 -->
<g id="edge6" class="edge">
<title>ID_36_ct0_st0&#45;&gt;ID_36_ct0_st01</title>
<path fill="none" stroke="black" d="M223.99,-698.89C255.42,-647.91 326.72,-532.27 362.18,-474.77"/>
<polygon fill="black" stroke="black" points="365.28,-476.41 367.55,-466.06 359.32,-472.73 365.28,-476.41"/>
<text text-anchor="start" x="285" y="-602.8" font-family="arial" font-size="14.00" fill="#377eb8">true</text>
</g>
<!-- ID_36_ct0_st012 -->
<g id="node6" class="node">
<title>ID_36_ct0_st012</title>
<polygon fill="none" stroke="black" points="1624,-642 1502,-642 1502,-592 1624,-592 1624,-642"/>
<text text-anchor="start" x="1510" y="-627.8" font-family="arial" font-weight="bold" font-size="14.00">ID_36_ct0_st012</text>
<text text-anchor="start" x="1511.5" y="-613.8" font-family="arial" font-size="14.00" fill="#984ea3">(Q &amp;&amp; (!R &amp;&amp; T))</text>
<text text-anchor="start" x="1551" y="-599.8" font-family="arial" font-size="14.00" fill="#ff7f00">true</text>
</g>
<!-- ID_36_ct0_st0&#45;&gt;ID_36_ct0_st012 -->
<g id="edge7" class="edge">
<title>ID_36_ct0_st0&#45;&gt;ID_36_ct0_st012</title>
<path fill="none" stroke="black" d="M239.16,-749.2C272.44,-773.95 328.2,-808 383,-808 383,-808 383,-808 1313,-808 1415.14,-808 1501.22,-705.57 1539.98,-650.73"/>
<polygon fill="black" stroke="black" points="1542.96,-652.57 1545.79,-642.36 1537.21,-648.58 1542.96,-652.57"/>
<text text-anchor="start" x="805" y="-811.8" font-family="arial" font-size="14.00" fill="#377eb8">true</text>
</g>
<!-- ID_36_ct0_st0123 -->
<g id="node8" class="node">
<title>ID_36_ct0_st0123</title>
<polygon fill="none" stroke="black" points="1819,-323 1690,-323 1690,-273 1819,-273 1819,-323"/>
<text text-anchor="start" x="1698" y="-308.8" font-family="arial" font-weight="bold" font-size="14.00">ID_36_ct0_st0123</text>
<text text-anchor="start" x="1701.5" y="-294.8" font-family="arial" font-size="14.00" fill="#984ea3">(Q &amp;&amp; (!R &amp;&amp; !T))</text>
<text text-anchor="start" x="1742.5" y="-280.8" font-family="arial" font-size="14.00" fill="#ff7f00">true</text>
</g>
<!-- ID_36_ct0_st0&#45;&gt;ID_36_ct0_st0123 -->
<g id="edge8" class="edge">
<title>ID_36_ct0_st0&#45;&gt;ID_36_ct0_st0123</title>
<path fill="none" stroke="black" d="M211.19,-749.06C216.98,-790.25 234.51,-872.08 285,-916 318.83,-945.43 338.16,-940 383,-940 383,-940 383,-940 1564,-940 1613.17,-940 1638.79,-952.26 1672,-916 1750.69,-830.1 1754.67,-451.64 1753.94,-333.42"/>
<polygon fill="black" stroke="black" points="1757.44,-333.09 1753.86,-323.12 1750.44,-333.15 1757.44,-333.09"/>
<text text-anchor="start" x="911" y="-943.8" font-family="arial" font-size="14.00" fill="#377eb8">true</text>
</g>
<!-- _ID_36_ct0_st01 -->
<!-- _ID_36_ct0_st01&#45;&gt;ID_36_ct0_st01 -->
<g id="edge2" class="edge">
<title>_ID_36_ct0_st01&#45;&gt;ID_36_ct0_st01</title>
<path fill="none" stroke="black" d="M222.19,-225.36C251.51,-264.68 320.72,-357.48 358.06,-407.56"/>
<polygon fill="black" stroke="black" points="355.43,-409.88 364.21,-415.81 361.04,-405.7 355.43,-409.88"/>
</g>
<!-- ID_36_ct0_st01&#45;&gt;ID_36_ct0_st0 -->
<g id="edge9" class="edge">
<title>ID_36_ct0_st01&#45;&gt;ID_36_ct0_st0</title>
<path fill="none" stroke="black" d="M354.85,-466.03C333.58,-486.06 304.77,-515.73 285,-546 255,-591.95 232.16,-651.64 219.55,-688.88"/>
<polygon fill="black" stroke="black" points="216.1,-688.17 216.26,-698.76 222.74,-690.37 216.1,-688.17"/>
<text text-anchor="start" x="290.5" y="-549.8" font-family="arial" font-size="14.00" fill="#377eb8">R&#39;</text>
</g>
<!-- ID_36_ct0_st01&#45;&gt;ID_36_ct0_st01 -->
<g id="edge12" class="edge">
<title>ID_36_ct0_st01&#45;&gt;ID_36_ct0_st01</title>
<path fill="none" stroke="black" d="M367.94,-466.18C367.22,-475.91 372.58,-484 384,-484 391.14,-484 395.91,-480.84 398.31,-476.09"/>
<polygon fill="black" stroke="black" points="401.76,-476.63 400.06,-466.18 394.87,-475.41 401.76,-476.63"/>
<text text-anchor="start" x="372" y="-487.8" font-family="arial" font-size="14.00" fill="#377eb8">true</text>
</g>
<!-- ID_36_ct0_st01&#45;&gt;ID_36_ct0_st012 -->
<g id="edge13" class="edge">
<title>ID_36_ct0_st01&#45;&gt;ID_36_ct0_st012</title>
<path fill="none" stroke="black" d="M441.22,-455.34C543.57,-480.64 767.54,-532.29 960,-551 1143.58,-568.85 1192.96,-523.28 1375,-553 1416.17,-559.72 1460.41,-574.49 1495.52,-588.15"/>
<polygon fill="black" stroke="black" points="1494.58,-591.54 1505.17,-591.97 1497.16,-585.03 1494.58,-591.54"/>
<text text-anchor="start" x="911" y="-552.8" font-family="arial" font-size="14.00" fill="#377eb8">true</text>
</g>
<!-- ID_36_ct0_st01&#45;&gt;ID_36_ct0_st0123 -->
<g id="edge14" class="edge">
<title>ID_36_ct0_st01&#45;&gt;ID_36_ct0_st0123</title>
<path fill="none" stroke="black" d="M437.18,-415.59C438.55,-414.13 439.83,-412.6 441,-411 467.33,-374.85 449.51,-355.7 459,-312 475.15,-237.63 446.58,-199.2 501,-146 512.09,-135.15 857.43,-51 922,-51 922,-51 922,-51 1564,-51 1669.65,-51 1724.44,-195 1744.45,-263.1"/>
<polygon fill="black" stroke="black" points="1741.15,-264.3 1747.25,-272.96 1747.88,-262.38 1741.15,-264.3"/>
<text text-anchor="start" x="1013.5" y="-54.8" font-family="arial" font-size="14.00" fill="#377eb8">true</text>
</g>
<!-- ID_36_ct0_st02 -->
<g id="node9" class="node">
<title>ID_36_ct0_st02</title>
<polygon fill="none" stroke="black" points="1373,-666 1251,-666 1251,-616 1373,-616 1373,-666"/>
<text text-anchor="start" x="1263" y="-651.8" font-family="arial" font-weight="bold" font-size="14.00">ID_36_ct0_st02</text>
<text text-anchor="start" x="1259" y="-637.8" font-family="arial" font-size="14.00" fill="#984ea3">(!Q &amp;&amp; (!R &amp;&amp; T))</text>
<text text-anchor="start" x="1300" y="-623.8" font-family="arial" font-size="14.00" fill="#ff7f00">true</text>
</g>
<!-- ID_36_ct0_st01&#45;&gt;ID_36_ct0_st02 -->
<g id="edge10" class="edge">
<title>ID_36_ct0_st01&#45;&gt;ID_36_ct0_st02</title>
<path fill="none" stroke="black" d="M393.04,-466.07C403.45,-494.09 424.47,-538.36 459,-560 588.59,-641.24 1060.78,-644.2 1240.71,-642.24"/>
<polygon fill="black" stroke="black" points="1240.9,-645.74 1250.86,-642.12 1240.82,-638.74 1240.9,-645.74"/>
<text text-anchor="start" x="805" y="-638.8" font-family="arial" font-size="14.00" fill="#377eb8">true</text>
</g>
<!-- ID_36_ct0_st023 -->
<g id="node10" class="node">
<title>ID_36_ct0_st023</title>
<polygon fill="none" stroke="black" points="627,-372 501,-372 501,-322 627,-322 627,-372"/>
<text text-anchor="start" x="511" y="-357.8" font-family="arial" font-weight="bold" font-size="14.00">ID_36_ct0_st023</text>
<text text-anchor="start" x="509" y="-343.8" font-family="arial" font-size="14.00" fill="#984ea3">(!Q &amp;&amp; (!R &amp;&amp; !T))</text>
<text text-anchor="start" x="552" y="-329.8" font-family="arial" font-size="14.00" fill="#ff7f00">true</text>
</g>
<!-- ID_36_ct0_st01&#45;&gt;ID_36_ct0_st023 -->
<g id="edge11" class="edge">
<title>ID_36_ct0_st01&#45;&gt;ID_36_ct0_st023</title>
<path fill="none" stroke="black" d="M403.55,-415.82C417.08,-399.33 436.85,-378.75 459,-367 468.76,-361.82 479.67,-357.97 490.65,-355.11"/>
<polygon fill="black" stroke="black" points="491.79,-358.44 500.73,-352.76 490.19,-351.63 491.79,-358.44"/>
<text text-anchor="start" x="459" y="-370.8" font-family="arial" font-size="14.00" fill="#377eb8">true</text>
</g>
<!-- _ID_36_ct0_st012 -->
<!-- _ID_36_ct0_st012&#45;&gt;ID_36_ct0_st012 -->
<g id="edge3" class="edge">
<title>_ID_36_ct0_st012&#45;&gt;ID_36_ct0_st012</title>
<path fill="none" stroke="black" d="M1375.19,-589.24C1410.61,-594.5 1455.09,-601.11 1491.77,-606.56"/>
<polygon fill="black" stroke="black" points="1491.48,-610.06 1501.89,-608.07 1492.51,-603.14 1491.48,-610.06"/>
</g>
<!-- ID_36_ct0_st012&#45;&gt;ID_36_ct0_st0 -->
<g id="edge21" class="edge">
<title>ID_36_ct0_st012&#45;&gt;ID_36_ct0_st0</title>
<path fill="none" stroke="black" d="M1553.4,-642.04C1541.07,-674.86 1515.64,-732.64 1478,-770 1418.86,-828.7 1396.32,-859 1313,-859 383,-859 383,-859 383,-859 316.67,-859 260.22,-797.22 230.65,-757.24"/>
<polygon fill="black" stroke="black" points="233.44,-755.14 224.75,-749.08 227.76,-759.23 233.44,-755.14"/>
<text text-anchor="start" x="810.5" y="-862.8" font-family="arial" font-size="14.00" fill="#377eb8">R&#39;</text>
</g>
<!-- ID_36_ct0_st012&#45;&gt;ID_36_ct0_st01 -->
<g id="edge24" class="edge">
<title>ID_36_ct0_st012&#45;&gt;ID_36_ct0_st01</title>
<path fill="none" stroke="black" d="M1523.01,-642.01C1486.41,-663.99 1429.31,-694.5 1375,-708 1180.36,-756.4 1124.57,-724 924,-724 563,-724 563,-724 563,-724 514.51,-724 492.95,-725.62 459,-691 401.06,-631.92 388.13,-529.73 385.48,-476.13"/>
<polygon fill="black" stroke="black" points="388.97,-475.94 385.08,-466.08 381.98,-476.22 388.97,-475.94"/>
<text text-anchor="start" x="911" y="-727.8" font-family="arial" font-size="14.00" fill="#377eb8">true</text>
</g>
<!-- ID_36_ct0_st012&#45;&gt;ID_36_ct0_st012 -->
<g id="edge25" class="edge">
<title>ID_36_ct0_st012&#45;&gt;ID_36_ct0_st012</title>
<path fill="none" stroke="black" d="M1545.07,-642.18C1544.27,-651.91 1550.25,-660 1563,-660 1570.97,-660 1576.29,-656.84 1578.97,-652.09"/>
<polygon fill="black" stroke="black" points="1582.42,-652.66 1580.93,-642.18 1575.56,-651.31 1582.42,-652.66"/>
<text text-anchor="start" x="1551" y="-663.8" font-family="arial" font-size="14.00" fill="#377eb8">true</text>
</g>
<!-- ID_36_ct0_st012&#45;&gt;ID_36_ct0_st0123 -->
<g id="edge26" class="edge">
<title>ID_36_ct0_st012&#45;&gt;ID_36_ct0_st0123</title>
<path fill="none" stroke="black" d="M1616.36,-591.96C1636.91,-579.49 1658.72,-562.44 1672,-541 1713.78,-473.54 1736.9,-382.16 1747.08,-332.91"/>
<polygon fill="black" stroke="black" points="1750.52,-333.56 1749.06,-323.07 1743.66,-332.18 1750.52,-333.56"/>
<text text-anchor="start" x="1648" y="-571.8" font-family="arial" font-size="14.00" fill="#377eb8">true</text>
</g>
<!-- ID_36_ct0_st012&#45;&gt;ID_36_ct0_st02 -->
<g id="edge22" class="edge">
<title>ID_36_ct0_st012&#45;&gt;ID_36_ct0_st02</title>
<path fill="none" stroke="black" d="M1501.59,-629.55C1493.68,-630.89 1485.67,-632.09 1478,-633 1447.05,-636.68 1412.64,-638.68 1383.28,-639.76"/>
<polygon fill="black" stroke="black" points="1383,-636.26 1373.12,-640.1 1383.24,-643.26 1383,-636.26"/>
<text text-anchor="start" x="1423.5" y="-642.8" font-family="arial" font-size="14.00" fill="#377eb8">true</text>
</g>
<!-- ID_36_ct0_st012&#45;&gt;ID_36_ct0_st023 -->
<g id="edge23" class="edge">
<title>ID_36_ct0_st012&#45;&gt;ID_36_ct0_st023</title>
<path fill="none" stroke="black" d="M1504.84,-591.79C1501.61,-589.11 1498.61,-586.19 1496,-583 1477.54,-560.48 1499.96,-539.13 1478,-520 1416.58,-466.49 827.7,-468.87 748,-452 700.11,-441.86 687.34,-437.57 645,-413 628.73,-403.56 612.41,-390.83 598.8,-379.06"/>
<polygon fill="black" stroke="black" points="600.93,-376.28 591.11,-372.28 596.3,-381.53 600.93,-376.28"/>
<text text-anchor="start" x="1013.5" y="-473.8" font-family="arial" font-size="14.00" fill="#377eb8">true</text>
</g>
<!-- _ID_36_ct0_st0123 -->
<!-- _ID_36_ct0_st0123&#45;&gt;ID_36_ct0_st0123 -->
<g id="edge4" class="edge">
<title>_ID_36_ct0_st0123&#45;&gt;ID_36_ct0_st0123</title>
<path fill="none" stroke="black" d="M1630.03,-543.6C1645.3,-538.14 1660.45,-530.29 1672,-519 1723.91,-468.28 1743.02,-381.67 1749.85,-333.31"/>
<polygon fill="black" stroke="black" points="1753.33,-333.68 1751.17,-323.31 1746.39,-332.77 1753.33,-333.68"/>
</g>
<!-- ID_36_ct0_st0123&#45;&gt;ID_36_ct0_st0 -->
<g id="edge33" class="edge">
<title>ID_36_ct0_st0123&#45;&gt;ID_36_ct0_st0</title>
<path fill="none" stroke="black" d="M1751.2,-323.18C1740.09,-437.5 1687.36,-902 1564,-902 383,-902 383,-902 383,-902 303.35,-902 248.04,-810 223.23,-758.28"/>
<polygon fill="black" stroke="black" points="226.36,-756.71 218.96,-749.13 220.02,-759.67 226.36,-756.71"/>
<text text-anchor="start" x="916.5" y="-905.8" font-family="arial" font-size="14.00" fill="#377eb8">R&#39;</text>
</g>
<!-- ID_36_ct0_st0123&#45;&gt;ID_36_ct0_st01 -->
<g id="edge36" class="edge">
<title>ID_36_ct0_st0123&#45;&gt;ID_36_ct0_st01</title>
<path fill="none" stroke="black" d="M1749.86,-272.85C1737.89,-201.01 1692.91,0 1564,0 563,0 563,0 563,0 476.32,0 479.52,-80.78 459,-165 446.71,-215.45 468.34,-349.81 442.22,-406.95"/>
<polygon fill="black" stroke="black" points="439.14,-405.29 437.4,-415.74 445.28,-408.65 439.14,-405.29"/>
<text text-anchor="start" x="1013.5" y="-3.8" font-family="arial" font-size="14.00" fill="#377eb8">true</text>
</g>
<!-- ID_36_ct0_st0123&#45;&gt;ID_36_ct0_st0123 -->
<g id="edge38" class="edge">
<title>ID_36_ct0_st0123&#45;&gt;ID_36_ct0_st0123</title>
<path fill="none" stroke="black" d="M1736.94,-323.18C1736.16,-332.91 1742.02,-341 1754.5,-341 1762.3,-341 1767.51,-337.84 1770.14,-333.09"/>
<polygon fill="black" stroke="black" points="1773.59,-333.66 1772.06,-323.18 1766.72,-332.33 1773.59,-333.66"/>
<text text-anchor="start" x="1742.5" y="-344.8" font-family="arial" font-size="14.00" fill="#377eb8">true</text>
</g>
<!-- ID_36_ct0_st0123&#45;&gt;ID_36_ct0_st023 -->
<g id="edge35" class="edge">
<title>ID_36_ct0_st0123&#45;&gt;ID_36_ct0_st023</title>
<path fill="none" stroke="black" d="M1689.9,-293.01C1683.85,-292.63 1677.81,-292.28 1672,-292 1593.87,-288.2 1574.22,-290.9 1496,-291 1324,-291.22 1280.77,-283.12 1109,-292 939.5,-300.77 741.41,-324.12 637.34,-337.4"/>
<polygon fill="black" stroke="black" points="636.73,-333.95 627.26,-338.7 637.63,-340.89 636.73,-333.95"/>
<text text-anchor="start" x="1158" y="-295.8" font-family="arial" font-size="14.00" fill="#377eb8">true</text>
</g>
<!-- ID_36_ct0_st024X -->
<g id="node11" class="node">
<title>ID_36_ct0_st024X</title>
<polygon fill="none" stroke="black" points="1091,-238 960,-238 960,-188 1091,-188 1091,-238"/>
<text text-anchor="start" x="968" y="-223.8" font-family="arial" font-weight="bold" font-size="14.00">ID_36_ct0_st024X</text>
<text text-anchor="start" x="972.5" y="-209.8" font-family="arial" font-size="14.00" fill="#984ea3">(!Q &amp;&amp; (!R &amp;&amp; T))</text>
<text text-anchor="start" x="1002.5" y="-195.8" font-family="arial" font-size="14.00" fill="#ff7f00">c0 &lt;= 5</text>
</g>
<!-- ID_36_ct0_st0123&#45;&gt;ID_36_ct0_st024X -->
<g id="edge34" class="edge">
<title>ID_36_ct0_st0123&#45;&gt;ID_36_ct0_st024X</title>
<path fill="none" stroke="black" d="M1721.91,-272.96C1707.46,-262.74 1689.66,-251.75 1672,-245 1590.5,-213.86 1564.98,-221.88 1478,-215 1345.76,-204.54 1191.06,-207.04 1101.37,-209.93"/>
<polygon fill="black" stroke="black" points="1101.18,-206.43 1091.3,-210.26 1101.41,-213.43 1101.18,-206.43"/>
<text text-anchor="start" x="1423.5" y="-233.8" font-family="arial" font-size="14.00" fill="#377eb8">true</text>
<text text-anchor="start" x="1416.5" y="-218.8" font-family="arial" font-size="14.00">c0 :=0</text>
</g>
<!-- ID_36_ct0_st0124X -->
<g id="node12" class="node">
<title>ID_36_ct0_st0124X</title>
<polygon fill="none" stroke="black" points="886,-410 748,-410 748,-360 886,-360 886,-410"/>
<text text-anchor="start" x="756" y="-395.8" font-family="arial" font-weight="bold" font-size="14.00">ID_36_ct0_st0124X</text>
<text text-anchor="start" x="765.5" y="-381.8" font-family="arial" font-size="14.00" fill="#984ea3">(Q &amp;&amp; (!R &amp;&amp; T))</text>
<text text-anchor="start" x="794" y="-367.8" font-family="arial" font-size="14.00" fill="#ff7f00">c0 &lt;= 5</text>
</g>
<!-- ID_36_ct0_st0123&#45;&gt;ID_36_ct0_st0124X -->
<g id="edge37" class="edge">
<title>ID_36_ct0_st0123&#45;&gt;ID_36_ct0_st0124X</title>
<path fill="none" stroke="black" d="M1690,-296.07C1594.17,-293.89 1407.02,-292.42 1249,-308 1124.57,-320.27 982.11,-348.56 896.15,-367.22"/>
<polygon fill="black" stroke="black" points="895.24,-363.84 886.21,-369.39 896.73,-370.68 895.24,-363.84"/>
<text text-anchor="start" x="1300" y="-326.8" font-family="arial" font-size="14.00" fill="#377eb8">true</text>
<text text-anchor="start" x="1293" y="-311.8" font-family="arial" font-size="14.00">c0 :=0</text>
</g>
<!-- ID_36_ct0_st02&#45;&gt;ID_36_ct0_st0 -->
<g id="edge15" class="edge">
<title>ID_36_ct0_st02&#45;&gt;ID_36_ct0_st0</title>
<path fill="none" stroke="black" d="M1277.07,-666.07C1225.64,-701.51 1123.65,-762 1026.5,-762 383,-762 383,-762 383,-762 345.35,-762 304.15,-753.45 271.25,-744.46"/>
<polygon fill="black" stroke="black" points="271.89,-741 261.31,-741.67 269.99,-747.74 271.89,-741"/>
<text text-anchor="start" x="681" y="-765.8" font-family="arial" font-size="14.00" fill="#377eb8">R&#39;</text>
</g>
<!-- ID_36_ct0_st02&#45;&gt;ID_36_ct0_st01 -->
<g id="edge18" class="edge">
<title>ID_36_ct0_st02&#45;&gt;ID_36_ct0_st01</title>
<path fill="none" stroke="black" d="M1250.89,-653.51C1244.2,-654.53 1237.47,-655.4 1231,-656 1177.01,-661.02 1163.22,-656.15 1109,-656 837.97,-655.25 750.61,-714.6 501,-609 444.79,-585.22 411.72,-517.42 396.08,-475.58"/>
<polygon fill="black" stroke="black" points="399.34,-474.28 392.66,-466.05 392.75,-476.65 399.34,-474.28"/>
<text text-anchor="start" x="805" y="-674.8" font-family="arial" font-size="14.00" fill="#377eb8">true</text>
</g>
<!-- ID_36_ct0_st02&#45;&gt;ID_36_ct0_st012 -->
<g id="edge19" class="edge">
<title>ID_36_ct0_st02&#45;&gt;ID_36_ct0_st012</title>
<path fill="none" stroke="black" d="M1373.33,-621.77C1379.92,-620.24 1386.56,-618.93 1393,-618 1425.22,-613.36 1461.26,-612.56 1491.76,-613.13"/>
<polygon fill="black" stroke="black" points="1491.79,-616.64 1501.87,-613.38 1491.96,-609.64 1491.79,-616.64"/>
<text text-anchor="start" x="1423.5" y="-621.8" font-family="arial" font-size="14.00" fill="#377eb8">true</text>
</g>
<!-- ID_36_ct0_st02&#45;&gt;ID_36_ct0_st0123 -->
<g id="edge20" class="edge">
<title>ID_36_ct0_st02&#45;&gt;ID_36_ct0_st0123</title>
<path fill="none" stroke="black" d="M1360.5,-615.94C1365.46,-613.03 1370.37,-610.02 1375,-607 1431.79,-569.92 1441.53,-554.41 1496,-514 1573.26,-456.68 1600.19,-452.02 1672,-388 1691.65,-370.48 1711.52,-348.64 1726.72,-330.86"/>
<polygon fill="black" stroke="black" points="1729.58,-332.9 1733.36,-323.01 1724.23,-328.38 1729.58,-332.9"/>
<text text-anchor="start" x="1551" y="-517.8" font-family="arial" font-size="14.00" fill="#377eb8">true</text>
</g>
<!-- ID_36_ct0_st02&#45;&gt;ID_36_ct0_st02 -->
<g id="edge16" class="edge">
<title>ID_36_ct0_st02&#45;&gt;ID_36_ct0_st02</title>
<path fill="none" stroke="black" d="M1289.21,-666.18C1288.2,-675.91 1295.8,-684 1312,-684 1322.13,-684 1328.89,-680.84 1332.29,-676.09"/>
<polygon fill="black" stroke="black" points="1335.74,-676.73 1334.79,-666.18 1328.95,-675.02 1335.74,-676.73"/>
<text text-anchor="start" x="1300" y="-687.8" font-family="arial" font-size="14.00" fill="#377eb8">true</text>
</g>
<!-- ID_36_ct0_st02&#45;&gt;ID_36_ct0_st023 -->
<g id="edge17" class="edge">
<title>ID_36_ct0_st02&#45;&gt;ID_36_ct0_st023</title>
<path fill="none" stroke="black" d="M1250.75,-630.27C1244.09,-629.14 1237.4,-628.03 1231,-627 1098.71,-605.72 736.8,-582.6 645,-485 625.63,-464.41 640.11,-449.04 627,-424 618.82,-408.39 607.23,-392.91 596.28,-379.97"/>
<polygon fill="black" stroke="black" points="598.78,-377.52 589.58,-372.27 593.5,-382.11 598.78,-377.52"/>
<text text-anchor="start" x="911" y="-590.8" font-family="arial" font-size="14.00" fill="#377eb8">true</text>
</g>
<!-- ID_36_ct0_st023&#45;&gt;ID_36_ct0_st0 -->
<g id="edge27" class="edge">
<title>ID_36_ct0_st023&#45;&gt;ID_36_ct0_st0</title>
<path fill="none" stroke="black" d="M500.86,-341.68C447.87,-340.71 373.13,-348.36 327,-392 241.12,-473.24 217.37,-620.9 210.89,-688.5"/>
<polygon fill="black" stroke="black" points="207.39,-688.37 209.99,-698.64 214.36,-688.98 207.39,-688.37"/>
<text text-anchor="start" x="377.5" y="-395.8" font-family="arial" font-size="14.00" fill="#377eb8">R&#39;</text>
</g>
<!-- ID_36_ct0_st023&#45;&gt;ID_36_ct0_st01 -->
<g id="edge30" class="edge">
<title>ID_36_ct0_st023&#45;&gt;ID_36_ct0_st01</title>
<path fill="none" stroke="black" d="M515.48,-372.1C492.76,-384.09 465.41,-398.54 441.62,-411.1"/>
<polygon fill="black" stroke="black" points="439.91,-408.04 432.7,-415.81 443.18,-414.23 439.91,-408.04"/>
<text text-anchor="start" x="459" y="-402.8" font-family="arial" font-size="14.00" fill="#377eb8">true</text>
</g>
<!-- ID_36_ct0_st023&#45;&gt;ID_36_ct0_st0123 -->
<g id="edge32" class="edge">
<title>ID_36_ct0_st023&#45;&gt;ID_36_ct0_st0123</title>
<path fill="none" stroke="black" d="M573.94,-321.84C585.62,-292.79 608.93,-245.84 645,-221 686.17,-192.64 906.26,-184.01 960,-179 1256.5,-151.38 1351.65,-77.19 1630,-183 1671.87,-198.92 1707.79,-236.85 1729.92,-264.82"/>
<polygon fill="black" stroke="black" points="1727.18,-267 1736.06,-272.78 1732.72,-262.72 1727.18,-267"/>
<text text-anchor="start" x="1158" y="-163.8" font-family="arial" font-size="14.00" fill="#377eb8">true</text>
</g>
<!-- ID_36_ct0_st023&#45;&gt;ID_36_ct0_st023 -->
<g id="edge29" class="edge">
<title>ID_36_ct0_st023&#45;&gt;ID_36_ct0_st023</title>
<path fill="none" stroke="black" d="M546.82,-372.18C546.05,-381.91 551.78,-390 564,-390 571.64,-390 576.74,-386.84 579.3,-382.09"/>
<polygon fill="black" stroke="black" points="582.76,-382.65 581.18,-372.18 575.88,-381.35 582.76,-382.65"/>
<text text-anchor="start" x="552" y="-393.8" font-family="arial" font-size="14.00" fill="#377eb8">true</text>
</g>
<!-- ID_36_ct0_st023&#45;&gt;ID_36_ct0_st024X -->
<g id="edge28" class="edge">
<title>ID_36_ct0_st023&#45;&gt;ID_36_ct0_st024X</title>
<path fill="none" stroke="black" d="M610.42,-321.84C621.54,-316.2 633.54,-310.56 645,-306 746.95,-265.46 871.56,-239.02 949.5,-225.05"/>
<polygon fill="black" stroke="black" points="950.47,-228.43 959.71,-223.24 949.25,-221.54 950.47,-228.43"/>
<text text-anchor="start" x="805" y="-289.8" font-family="arial" font-size="14.00" fill="#377eb8">true</text>
<text text-anchor="start" x="798" y="-274.8" font-family="arial" font-size="14.00">c0 :=0</text>
</g>
<!-- ID_36_ct0_st023&#45;&gt;ID_36_ct0_st0124X -->
<g id="edge31" class="edge">
<title>ID_36_ct0_st023&#45;&gt;ID_36_ct0_st0124X</title>
<path fill="none" stroke="black" d="M627.21,-365.24C633.19,-366.65 639.19,-367.94 645,-369 675.04,-374.49 708.42,-378.15 737.65,-380.56"/>
<polygon fill="black" stroke="black" points="737.56,-384.07 747.81,-381.37 738.11,-377.09 737.56,-384.07"/>
<text text-anchor="start" x="675.5" y="-397.8" font-family="arial" font-size="14.00" fill="#377eb8">true</text>
<text text-anchor="start" x="668.5" y="-382.8" font-family="arial" font-size="14.00">c0 :=0</text>
</g>
<!-- ID_36_ct0_st024X&#45;&gt;ID_36_ct0_st0 -->
<g id="edge39" class="edge">
<title>ID_36_ct0_st024X&#45;&gt;ID_36_ct0_st0</title>
<path fill="none" stroke="black" d="M1001.79,-187.91C966.37,-151.67 894.11,-89 818,-89 383,-89 383,-89 383,-89 257.63,-89 219,-555.03 210.5,-688.61"/>
<polygon fill="black" stroke="black" points="207,-688.52 209.87,-698.72 213.99,-688.95 207,-688.52"/>
<text text-anchor="start" x="557.5" y="-92.8" font-family="arial" font-size="14.00" fill="#377eb8">R&#39;</text>
</g>
<!-- ID_36_ct0_st024X&#45;&gt;ID_36_ct0_st01 -->
<g id="edge43" class="edge">
<title>ID_36_ct0_st024X&#45;&gt;ID_36_ct0_st01</title>
<path fill="none" stroke="black" d="M981.84,-187.94C909.46,-148.94 759.37,-83.4 645,-136 587.3,-162.54 489.72,-297.41 459,-353 447.37,-374.04 455.81,-387.1 442.44,-407.84"/>
<polygon fill="black" stroke="black" points="439.63,-405.75 436.45,-415.86 445.24,-409.94 439.63,-405.75"/>
<text text-anchor="start" x="675.5" y="-139.8" font-family="arial" font-size="14.00" fill="#377eb8">true</text>
</g>
<!-- ID_36_ct0_st024X&#45;&gt;ID_36_ct0_st012 -->
<g id="edge44" class="edge">
<title>ID_36_ct0_st024X&#45;&gt;ID_36_ct0_st012</title>
<path fill="none" stroke="black" d="M1046.08,-238.11C1061.42,-256.25 1084.27,-280.09 1109,-295 1260.48,-386.3 1383.32,-294.61 1478,-444 1511.35,-496.62 1460.22,-532.01 1496,-583 1496.36,-583.51 1496.73,-584.01 1497.11,-584.51"/>
<polygon fill="black" stroke="black" points="1494.63,-586.99 1503.99,-591.95 1499.77,-582.24 1494.63,-586.99"/>
<text text-anchor="start" x="1251" y="-362.8" font-family="arial" font-size="14.00" fill="#377eb8">(R&#39; || (c0 &gt;= 5 || !T&#39;))</text>
</g>
<!-- ID_36_ct0_st024X&#45;&gt;ID_36_ct0_st0123 -->
<g id="edge46" class="edge">
<title>ID_36_ct0_st024X&#45;&gt;ID_36_ct0_st0123</title>
<path fill="none" stroke="black" d="M1091.23,-201.12C1203.65,-183.06 1441.05,-156.44 1630,-213 1663.9,-223.15 1696.63,-246.5 1719.87,-266.16"/>
<polygon fill="black" stroke="black" points="1717.83,-269.02 1727.68,-272.93 1722.42,-263.73 1717.83,-269.02"/>
<text text-anchor="start" x="1393" y="-188.8" font-family="arial" font-size="14.00" fill="#377eb8">(R&#39; || (S&#39; || T&#39;))</text>
</g>
<!-- ID_36_ct0_st024X&#45;&gt;ID_36_ct0_st02 -->
<g id="edge40" class="edge">
<title>ID_36_ct0_st024X&#45;&gt;ID_36_ct0_st02</title>
<path fill="none" stroke="black" d="M1028.32,-238.05C1033.12,-286.2 1050.13,-392.46 1109,-455 1149.17,-497.67 1194.23,-459.37 1231,-505 1259.88,-540.85 1222.18,-569.59 1249,-607 1249.36,-607.5 1249.72,-607.99 1250.1,-608.48"/>
<polygon fill="black" stroke="black" points="1247.54,-610.87 1256.92,-615.79 1252.66,-606.09 1247.54,-610.87"/>
<text text-anchor="start" x="1109" y="-508.8" font-family="arial" font-size="14.00" fill="#377eb8">(R&#39; || (c0 &gt;= 5 || !T&#39;))</text>
</g>
<!-- ID_36_ct0_st024X&#45;&gt;ID_36_ct0_st023 -->
<g id="edge42" class="edge">
<title>ID_36_ct0_st024X&#45;&gt;ID_36_ct0_st023</title>
<path fill="none" stroke="black" d="M959.95,-206.17C903.18,-202.09 818.79,-200.75 748,-219 686.92,-234.75 629.56,-282.18 595.87,-314.66"/>
<polygon fill="black" stroke="black" points="593.32,-312.25 588.64,-321.75 598.23,-317.25 593.32,-312.25"/>
<text text-anchor="start" x="774.5" y="-222.8" font-family="arial" font-size="14.00" fill="#377eb8">(R&#39; || (S&#39; || T&#39;))</text>
</g>
<!-- ID_36_ct0_st024X&#45;&gt;ID_36_ct0_st024X -->
<g id="edge41" class="edge">
<title>ID_36_ct0_st024X&#45;&gt;ID_36_ct0_st024X</title>
<path fill="none" stroke="black" d="M1006.45,-238.18C1005.6,-247.91 1011.95,-256 1025.5,-256 1033.97,-256 1039.62,-252.84 1042.47,-248.09"/>
<polygon fill="black" stroke="black" points="1045.92,-248.68 1044.55,-238.18 1039.07,-247.24 1045.92,-248.68"/>
<text text-anchor="start" x="1006.5" y="-259.8" font-family="arial" font-size="14.00" fill="#377eb8">c0 &lt; 5</text>
</g>
<!-- ID_36_ct0_st024X&#45;&gt;ID_36_ct0_st0124X -->
<g id="edge45" class="edge">
<title>ID_36_ct0_st024X&#45;&gt;ID_36_ct0_st0124X</title>
<path fill="none" stroke="black" d="M997.82,-238.17C981.88,-252.98 961.09,-271.9 942,-288 915.07,-310.72 883.81,-335.16 859.42,-353.82"/>
<polygon fill="black" stroke="black" points="857.25,-351.07 851.43,-359.92 861.5,-356.64 857.25,-351.07"/>
<text text-anchor="start" x="904" y="-322.8" font-family="arial" font-size="14.00" fill="#377eb8">c0 &lt; 5</text>
</g>
<!-- ID_36_ct0_st0124X&#45;&gt;ID_36_ct0_st0 -->
<g id="edge47" class="edge">
<title>ID_36_ct0_st0124X&#45;&gt;ID_36_ct0_st0</title>
<path fill="none" stroke="black" d="M793.79,-410.24C743.99,-465.15 617.22,-595.83 483,-662 415,-695.52 328.57,-711.19 271.05,-718.32"/>
<polygon fill="black" stroke="black" points="270.52,-714.86 261.01,-719.52 271.35,-721.81 270.52,-714.86"/>
<text text-anchor="start" x="464.5" y="-675.8" font-family="arial" font-size="14.00" fill="#377eb8">R&#39;</text>
</g>
<!-- ID_36_ct0_st0124X&#45;&gt;ID_36_ct0_st01 -->
<g id="edge51" class="edge">
<title>ID_36_ct0_st0124X&#45;&gt;ID_36_ct0_st01</title>
<path fill="none" stroke="black" d="M747.85,-408.78C741.86,-410.39 735.85,-411.83 730,-413 634.45,-432.16 521.5,-438.28 451.55,-440.19"/>
<polygon fill="black" stroke="black" points="451.04,-436.71 441.13,-440.46 451.21,-443.7 451.04,-436.71"/>
<text text-anchor="start" x="552" y="-441.8" font-family="arial" font-size="14.00" fill="#377eb8">true</text>
</g>
<!-- ID_36_ct0_st0124X&#45;&gt;ID_36_ct0_st012 -->
<g id="edge52" class="edge">
<title>ID_36_ct0_st0124X&#45;&gt;ID_36_ct0_st012</title>
<path fill="none" stroke="black" d="M886.01,-398.04C892.08,-399.09 898.15,-400.09 904,-401 935.82,-405.95 1455.05,-459.41 1478,-482 1510.5,-513.99 1468.93,-546.31 1496,-583 1496.37,-583.5 1496.75,-584 1497.14,-584.49"/>
<polygon fill="black" stroke="black" points="1494.72,-587.02 1504.17,-591.83 1499.78,-582.18 1494.72,-587.02"/>
<text text-anchor="start" x="1109" y="-441.8" font-family="arial" font-size="14.00" fill="#377eb8">(R&#39; || (c0 &gt;= 5 || !T&#39;))</text>
</g>
<!-- ID_36_ct0_st0124X&#45;&gt;ID_36_ct0_st0123 -->
<g id="edge54" class="edge">
<title>ID_36_ct0_st0124X&#45;&gt;ID_36_ct0_st0123</title>
<path fill="none" stroke="black" d="M886.43,-388.43C991.77,-392.74 1199.82,-397.42 1375,-378 1482.33,-366.1 1604.14,-337.59 1679.91,-318.03"/>
<polygon fill="black" stroke="black" points="1681.03,-321.35 1689.83,-315.45 1679.27,-314.58 1681.03,-321.35"/>
<text text-anchor="start" x="1269.5" y="-390.8" font-family="arial" font-size="14.00" fill="#377eb8">(R&#39; || (S&#39; || T&#39;))</text>
</g>
<!-- ID_36_ct0_st0124X&#45;&gt;ID_36_ct0_st02 -->
<g id="edge48" class="edge">
<title>ID_36_ct0_st0124X&#45;&gt;ID_36_ct0_st02</title>
<path fill="none" stroke="black" d="M846.79,-410.18C874.36,-433.31 917.88,-467.34 960,-490 1072.93,-550.74 1122.89,-520.04 1231,-589 1240.54,-595.08 1239.95,-600.21 1249,-607 1250.42,-608.06 1251.87,-609.12 1253.36,-610.15"/>
<polygon fill="black" stroke="black" points="1251.83,-613.34 1262.11,-615.93 1255.69,-607.5 1251.83,-613.34"/>
<text text-anchor="start" x="964.5" y="-537.8" font-family="arial" font-size="14.00" fill="#377eb8">(R&#39; || (c0 &gt;= 5 || !T&#39;))</text>
</g>
<!-- ID_36_ct0_st0124X&#45;&gt;ID_36_ct0_st023 -->
<g id="edge50" class="edge">
<title>ID_36_ct0_st0124X&#45;&gt;ID_36_ct0_st023</title>
<path fill="none" stroke="black" d="M762.82,-359.84C752.17,-355.81 740.9,-352.24 730,-350 700,-343.85 666.28,-342.31 637.19,-342.6"/>
<polygon fill="black" stroke="black" points="637.04,-339.11 627.1,-342.78 637.16,-346.1 637.04,-339.11"/>
<text text-anchor="start" x="645" y="-353.8" font-family="arial" font-size="14.00" fill="#377eb8">(R&#39; || (S&#39; || T&#39;))</text>
</g>
<!-- ID_36_ct0_st0124X&#45;&gt;ID_36_ct0_st024X -->
<g id="edge49" class="edge">
<title>ID_36_ct0_st0124X&#45;&gt;ID_36_ct0_st024X</title>
<path fill="none" stroke="black" d="M838.08,-359.62C851.86,-341.99 870.4,-317.84 886,-296 894.38,-284.26 893.05,-278.39 904,-269 912.58,-261.64 932.25,-251.71 953.26,-242.25"/>
<polygon fill="black" stroke="black" points="954.92,-245.35 962.64,-238.1 952.08,-238.95 954.92,-245.35"/>
<text text-anchor="start" x="904" y="-272.8" font-family="arial" font-size="14.00" fill="#377eb8">c0 &lt; 5</text>
</g>
<!-- ID_36_ct0_st0124X&#45;&gt;ID_36_ct0_st0124X -->
<g id="edge53" class="edge">
<title>ID_36_ct0_st0124X&#45;&gt;ID_36_ct0_st0124X</title>
<path fill="none" stroke="black" d="M797.2,-410.18C796.32,-419.91 802.92,-428 817,-428 825.8,-428 831.68,-424.84 834.63,-420.09"/>
<polygon fill="black" stroke="black" points="838.08,-420.69 836.8,-410.18 831.24,-419.2 838.08,-420.69"/>
<text text-anchor="start" x="798" y="-431.8" font-family="arial" font-size="14.00" fill="#377eb8">c0 &lt; 5</text>
</g>
</g>
</svg>
