<?xml version="1.0" encoding="UTF-8" standalone="no"?>
<!DOCTYPE svg PUBLIC "-//W3C//DTD SVG 1.1//EN"
 "http://www.w3.org/Graphics/SVG/1.1/DTD/svg11.dtd">
<!-- Generated by graphviz version 2.43.0 (0)
 -->
<!-- Title: G Pages: 1 -->
<svg width="1542pt" height="324pt"
 viewBox="0.00 0.00 1542.00 324.00" xmlns="http://www.w3.org/2000/svg" xmlns:xlink="http://www.w3.org/1999/xlink">
<g id="graph0" class="graph" transform="scale(1 1) rotate(0) translate(4 320)">
<title>G</title>
<polygon fill="white" stroke="transparent" points="-4,4 -4,-320 1538,-320 1538,4 -4,4"/>
<!-- _ID_134_ct1_st0 -->
<!-- ID_134_ct1_st0 -->
<g id="node2" class="node">
<title>ID_134_ct1_st0</title>
<polygon fill="none" stroke="black" points="276,-283 162,-283 162,-233 276,-233 276,-283"/>
<text text-anchor="start" x="170" y="-268.8" font-family="arial" font-weight="bold" font-size="14.00">ID_134_ct1_st0</text>
<text text-anchor="start" x="214" y="-254.8" font-family="arial" font-size="14.00" fill="#984ea3">R</text>
<text text-anchor="start" x="207" y="-240.8" font-family="arial" font-size="14.00" fill="#ff7f00">true</text>
</g>
<!-- _ID_134_ct1_st0&#45;&gt;ID_134_ct1_st0 -->
<g id="edge1" class="edge">
<title>_ID_134_ct1_st0&#45;&gt;ID_134_ct1_st0</title>
<path fill="none" stroke="black" d="M119.15,-258C129.75,-258 140.88,-258 151.68,-258"/>
<polygon fill="black" stroke="black" points="151.92,-261.5 161.92,-258 151.92,-254.5 151.92,-261.5"/>
</g>
<!-- ID_134_ct1_st0&#45;&gt;ID_134_ct1_st0 -->
<g id="edge3" class="edge">
<title>ID_134_ct1_st0&#45;&gt;ID_134_ct1_st0</title>
<path fill="none" stroke="black" d="M204.06,-283.18C203.39,-292.91 208.38,-301 219,-301 225.64,-301 230.08,-297.84 232.31,-293.09"/>
<polygon fill="black" stroke="black" points="235.77,-293.61 233.94,-283.18 228.86,-292.47 235.77,-293.61"/>
<text text-anchor="start" x="207" y="-304.8" font-family="arial" font-size="14.00" fill="#377eb8">true</text>
</g>
<!-- ID_134_ct1_st01 -->
<g id="node4" class="node">
<title>ID_134_ct1_st01</title>
<polygon fill="none" stroke="black" points="464,-238 342,-238 342,-188 464,-188 464,-238"/>
<text text-anchor="start" x="350" y="-223.8" font-family="arial" font-weight="bold" font-size="14.00">ID_134_ct1_st01</text>
<text text-anchor="start" x="396" y="-209.8" font-family="arial" font-size="14.00" fill="#984ea3">!R</text>
<text text-anchor="start" x="391" y="-195.8" font-family="arial" font-size="14.00" fill="#ff7f00">true</text>
</g>
<!-- ID_134_ct1_st0&#45;&gt;ID_134_ct1_st01 -->
<g id="edge4" class="edge">
<title>ID_134_ct1_st0&#45;&gt;ID_134_ct1_st01</title>
<path fill="none" stroke="black" d="M276.09,-244.13C293.8,-239.75 313.58,-234.86 332.13,-230.28"/>
<polygon fill="black" stroke="black" points="333.12,-233.64 341.99,-227.84 331.44,-226.84 333.12,-233.64"/>
<text text-anchor="start" x="300" y="-242.8" font-family="arial" font-size="14.00" fill="#377eb8">true</text>
</g>
<!-- _ID_134_ct1_st01 -->
<!-- _ID_134_ct1_st01&#45;&gt;ID_134_ct1_st01 -->
<g id="edge2" class="edge">
<title>_ID_134_ct1_st01&#45;&gt;ID_134_ct1_st01</title>
<path fill="none" stroke="black" d="M282.13,-202.46C298.07,-203.86 315.34,-205.38 331.67,-206.82"/>
<polygon fill="black" stroke="black" points="331.43,-210.31 341.69,-207.7 332.04,-203.34 331.43,-210.31"/>
</g>
<!-- ID_134_ct1_st01&#45;&gt;ID_134_ct1_st01 -->
<g id="edge7" class="edge">
<title>ID_134_ct1_st01&#45;&gt;ID_134_ct1_st01</title>
<path fill="none" stroke="black" d="M386.19,-238.18C385.44,-247.91 391.05,-256 403,-256 410.47,-256 415.46,-252.84 417.97,-248.09"/>
<polygon fill="black" stroke="black" points="421.43,-248.65 419.81,-238.18 414.54,-247.37 421.43,-248.65"/>
<text text-anchor="start" x="391" y="-259.8" font-family="arial" font-size="14.00" fill="#377eb8">true</text>
</g>
<!-- ID_134_ct1_st023 -->
<g id="node5" class="node">
<title>ID_134_ct1_st023</title>
<polygon fill="none" stroke="black" points="653,-158 524,-158 524,-108 653,-108 653,-158"/>
<text text-anchor="start" x="532" y="-143.8" font-family="arial" font-weight="bold" font-size="14.00">ID_134_ct1_st023</text>
<text text-anchor="start" x="558.5" y="-129.8" font-family="arial" font-size="14.00" fill="#984ea3">(!Q &amp;&amp; R)</text>
<text text-anchor="start" x="576.5" y="-115.8" font-family="arial" font-size="14.00" fill="#ff7f00">true</text>
</g>
<!-- ID_134_ct1_st01&#45;&gt;ID_134_ct1_st023 -->
<g id="edge5" class="edge">
<title>ID_134_ct1_st01&#45;&gt;ID_134_ct1_st023</title>
<path fill="none" stroke="black" d="M461.56,-187.91C480.34,-179.72 501.36,-170.55 520.77,-162.09"/>
<polygon fill="black" stroke="black" points="522.38,-165.21 530.15,-158 519.58,-158.79 522.38,-165.21"/>
<text text-anchor="start" x="482" y="-181.8" font-family="arial" font-size="14.00" fill="#377eb8">true</text>
</g>
<!-- ID_134_ct1_st0234 -->
<g id="node6" class="node">
<title>ID_134_ct1_st0234</title>
<polygon fill="none" stroke="black" points="1083,-272 946,-272 946,-222 1083,-222 1083,-272"/>
<text text-anchor="start" x="954" y="-257.8" font-family="arial" font-weight="bold" font-size="14.00">ID_134_ct1_st0234</text>
<text text-anchor="start" x="986.5" y="-243.8" font-family="arial" font-size="14.00" fill="#984ea3">(Q &amp;&amp; R)</text>
<text text-anchor="start" x="1002.5" y="-229.8" font-family="arial" font-size="14.00" fill="#ff7f00">true</text>
</g>
<!-- ID_134_ct1_st01&#45;&gt;ID_134_ct1_st0234 -->
<g id="edge6" class="edge">
<title>ID_134_ct1_st01&#45;&gt;ID_134_ct1_st0234</title>
<path fill="none" stroke="black" d="M464.34,-226.83C470.29,-227.99 476.25,-229.07 482,-230 678.02,-261.67 729.71,-266.41 928,-256 930.54,-255.87 933.13,-255.71 935.74,-255.54"/>
<polygon fill="black" stroke="black" points="936.17,-259.01 945.88,-254.78 935.65,-252.03 936.17,-259.01"/>
<text text-anchor="start" x="678" y="-261.8" font-family="arial" font-size="14.00" fill="#377eb8">true</text>
</g>
<!-- ID_134_ct1_st023&#45;&gt;ID_134_ct1_st023 -->
<g id="edge14" class="edge">
<title>ID_134_ct1_st023&#45;&gt;ID_134_ct1_st023</title>
<path fill="none" stroke="black" d="M570.94,-158.18C570.16,-167.91 576.02,-176 588.5,-176 596.3,-176 601.51,-172.84 604.14,-168.09"/>
<polygon fill="black" stroke="black" points="607.59,-168.66 606.06,-158.18 600.72,-167.33 607.59,-168.66"/>
<text text-anchor="start" x="576.5" y="-179.8" font-family="arial" font-size="14.00" fill="#377eb8">true</text>
</g>
<!-- ID_134_ct1_st023&#45;&gt;ID_134_ct1_st0234 -->
<g id="edge15" class="edge">
<title>ID_134_ct1_st023&#45;&gt;ID_134_ct1_st0234</title>
<path fill="none" stroke="black" d="M625.99,-158.13C652.74,-175.28 690.6,-197 727,-209 795.33,-231.52 877,-240.74 935.63,-244.48"/>
<polygon fill="black" stroke="black" points="935.74,-248 945.93,-245.1 936.16,-241.01 935.74,-248"/>
<text text-anchor="start" x="779.5" y="-240.8" font-family="arial" font-size="14.00" fill="#377eb8">true</text>
</g>
<!-- ID_134_ct1_st013 -->
<g id="node7" class="node">
<title>ID_134_ct1_st013</title>
<polygon fill="none" stroke="black" points="856,-167 727,-167 727,-117 856,-117 856,-167"/>
<text text-anchor="start" x="735" y="-152.8" font-family="arial" font-weight="bold" font-size="14.00">ID_134_ct1_st013</text>
<text text-anchor="start" x="759.5" y="-138.8" font-family="arial" font-size="14.00" fill="#984ea3">(!Q &amp;&amp; !R)</text>
<text text-anchor="start" x="768.5" y="-124.8" font-family="arial" font-size="14.00" fill="#ff7f00">c0 &lt;= 5</text>
</g>
<!-- ID_134_ct1_st023&#45;&gt;ID_134_ct1_st013 -->
<g id="edge16" class="edge">
<title>ID_134_ct1_st023&#45;&gt;ID_134_ct1_st013</title>
<path fill="none" stroke="black" d="M653.14,-122.13C671.21,-120.4 690.9,-119.81 709,-122 711.53,-122.31 714.1,-122.66 716.68,-123.06"/>
<polygon fill="black" stroke="black" points="716.25,-126.54 726.7,-124.81 717.45,-119.65 716.25,-126.54"/>
<text text-anchor="start" x="678" y="-140.8" font-family="arial" font-size="14.00" fill="#377eb8">true</text>
<text text-anchor="start" x="671" y="-125.8" font-family="arial" font-size="14.00">c0 :=0</text>
</g>
<!-- ID_134_ct1_st0134 -->
<g id="node9" class="node">
<title>ID_134_ct1_st0134</title>
<polygon fill="none" stroke="black" points="1302,-205 1165,-205 1165,-155 1302,-155 1302,-205"/>
<text text-anchor="start" x="1173" y="-190.8" font-family="arial" font-weight="bold" font-size="14.00">ID_134_ct1_st0134</text>
<text text-anchor="start" x="1203.5" y="-176.8" font-family="arial" font-size="14.00" fill="#984ea3">(Q &amp;&amp; !R)</text>
<text text-anchor="start" x="1210.5" y="-162.8" font-family="arial" font-size="14.00" fill="#ff7f00">c0 &lt;= 5</text>
</g>
<!-- ID_134_ct1_st023&#45;&gt;ID_134_ct1_st0134 -->
<g id="edge17" class="edge">
<title>ID_134_ct1_st023&#45;&gt;ID_134_ct1_st0134</title>
<path fill="none" stroke="black" d="M653.18,-118.86C676.3,-114.41 702.71,-110.11 727,-108 913.25,-91.85 969.37,-72.72 1147,-131 1160.74,-135.51 1174.72,-142.38 1187.29,-149.56"/>
<polygon fill="black" stroke="black" points="1185.78,-152.73 1196.17,-154.81 1189.34,-146.71 1185.78,-152.73"/>
<text text-anchor="start" x="889" y="-113.8" font-family="arial" font-size="14.00" fill="#377eb8">true</text>
<text text-anchor="start" x="882" y="-98.8" font-family="arial" font-size="14.00">c0 :=0</text>
</g>
<!-- ID_134_ct1_st0234&#45;&gt;ID_134_ct1_st0234 -->
<g id="edge25" class="edge">
<title>ID_134_ct1_st0234&#45;&gt;ID_134_ct1_st0234</title>
<path fill="none" stroke="black" d="M994.33,-272.18C993.43,-281.91 1000.16,-290 1014.5,-290 1023.46,-290 1029.45,-286.84 1032.46,-282.09"/>
<polygon fill="black" stroke="black" points="1035.92,-282.7 1034.67,-272.18 1029.08,-281.18 1035.92,-282.7"/>
<text text-anchor="start" x="1002.5" y="-293.8" font-family="arial" font-size="14.00" fill="#377eb8">true</text>
</g>
<!-- ID_134_ct1_st0234&#45;&gt;ID_134_ct1_st0134 -->
<g id="edge26" class="edge">
<title>ID_134_ct1_st0234&#45;&gt;ID_134_ct1_st0134</title>
<path fill="none" stroke="black" d="M1057.89,-221.99C1071.3,-214.95 1086.44,-207.89 1101,-203 1118.15,-197.24 1137.06,-192.85 1155.07,-189.54"/>
<polygon fill="black" stroke="black" points="1155.72,-192.98 1164.97,-187.8 1154.51,-186.08 1155.72,-192.98"/>
<text text-anchor="start" x="1112" y="-221.8" font-family="arial" font-size="14.00" fill="#377eb8">true</text>
<text text-anchor="start" x="1105" y="-206.8" font-family="arial" font-size="14.00">c0 :=0</text>
</g>
<!-- ID_134_ct1_st013&#45;&gt;ID_134_ct1_st01 -->
<g id="edge10" class="edge">
<title>ID_134_ct1_st013&#45;&gt;ID_134_ct1_st01</title>
<path fill="none" stroke="black" d="M732.23,-167.16C724.43,-170.49 716.52,-173.84 709,-177 684.19,-187.42 679.25,-194.1 653,-200 593.73,-213.31 524.62,-215.94 474.26,-215.59"/>
<polygon fill="black" stroke="black" points="474.17,-212.09 464.13,-215.48 474.09,-219.09 474.17,-212.09"/>
<text text-anchor="start" x="565.5" y="-218.8" font-family="arial" font-size="14.00" fill="#377eb8">c0 &gt;= 5</text>
</g>
<!-- ID_134_ct1_st013&#45;&gt;ID_134_ct1_st023 -->
<g id="edge8" class="edge">
<title>ID_134_ct1_st013&#45;&gt;ID_134_ct1_st023</title>
<path fill="none" stroke="black" d="M726.87,-155.47C708.79,-157.66 689.1,-158.51 671,-156 668.45,-155.65 665.87,-155.24 663.27,-154.77"/>
<polygon fill="black" stroke="black" points="663.7,-151.29 653.21,-152.77 662.33,-158.16 663.7,-151.29"/>
<text text-anchor="start" x="678" y="-161.8" font-family="arial" font-size="14.00" fill="#377eb8">true</text>
</g>
<!-- ID_134_ct1_st013&#45;&gt;ID_134_ct1_st0234 -->
<g id="edge9" class="edge">
<title>ID_134_ct1_st013&#45;&gt;ID_134_ct1_st0234</title>
<path fill="none" stroke="black" d="M839.61,-167.02C850.81,-172.76 862.76,-178.72 874,-184 897.61,-195.09 904.18,-196.36 928,-207 935.64,-210.41 943.62,-214.05 951.52,-217.69"/>
<polygon fill="black" stroke="black" points="950.18,-220.93 960.73,-221.96 953.12,-214.58 950.18,-220.93"/>
<text text-anchor="start" x="889" y="-210.8" font-family="arial" font-size="14.00" fill="#377eb8">true</text>
</g>
<!-- ID_134_ct1_st013&#45;&gt;ID_134_ct1_st013 -->
<g id="edge12" class="edge">
<title>ID_134_ct1_st013&#45;&gt;ID_134_ct1_st013</title>
<path fill="none" stroke="black" d="M772.82,-167.18C771.99,-176.91 778.22,-185 791.5,-185 799.8,-185 805.35,-181.84 808.13,-177.09"/>
<polygon fill="black" stroke="black" points="811.59,-177.68 810.18,-167.18 804.73,-176.26 811.59,-177.68"/>
<text text-anchor="start" x="772.5" y="-188.8" font-family="arial" font-size="14.00" fill="#377eb8">c0 &lt; 5</text>
</g>
<!-- ID_134_ct1_st014 -->
<g id="node8" class="node">
<title>ID_134_ct1_st014</title>
<polygon fill="none" stroke="black" points="1534,-152 1384,-152 1384,-102 1534,-102 1534,-152"/>
<text text-anchor="start" x="1402.5" y="-137.8" font-family="arial" font-weight="bold" font-size="14.00">ID_134_ct1_st014</text>
<text text-anchor="start" x="1429" y="-123.8" font-family="arial" font-size="14.00" fill="#984ea3">(Q &amp;&amp; !R)</text>
<text text-anchor="start" x="1392" y="-109.8" font-family="arial" font-size="14.00" fill="#ff7f00">(c0 &lt;= 5 &amp;&amp; c1 &lt;= 10)</text>
</g>
<!-- ID_134_ct1_st013&#45;&gt;ID_134_ct1_st014 -->
<g id="edge11" class="edge">
<title>ID_134_ct1_st013&#45;&gt;ID_134_ct1_st014</title>
<path fill="none" stroke="black" d="M856.01,-140.57C976.57,-137.85 1238.59,-131.95 1373.7,-128.9"/>
<polygon fill="black" stroke="black" points="1374.07,-132.39 1383.99,-128.67 1373.91,-125.39 1374.07,-132.39"/>
<text text-anchor="start" x="1101" y="-154.8" font-family="arial" font-size="14.00" fill="#377eb8">c0 &gt;= 5</text>
<text text-anchor="start" x="1105" y="-139.8" font-family="arial" font-size="14.00">c1 :=0</text>
</g>
<!-- ID_134_ct1_st013&#45;&gt;ID_134_ct1_st0134 -->
<g id="edge13" class="edge">
<title>ID_134_ct1_st013&#45;&gt;ID_134_ct1_st0134</title>
<path fill="none" stroke="black" d="M856.01,-147.48C934.91,-154.3 1069.48,-165.92 1154.55,-173.27"/>
<polygon fill="black" stroke="black" points="1154.41,-176.77 1164.67,-174.14 1155.01,-169.79 1154.41,-176.77"/>
<text text-anchor="start" x="995.5" y="-170.8" font-family="arial" font-size="14.00" fill="#377eb8">c0 &lt; 5</text>
</g>
<!-- ID_134_ct1_st014&#45;&gt;ID_134_ct1_st01 -->
<g id="edge20" class="edge">
<title>ID_134_ct1_st014&#45;&gt;ID_134_ct1_st01</title>
<path fill="none" stroke="black" d="M1433.77,-101.91C1395.29,-64.9 1316.17,0 1234.5,0 587.5,0 587.5,0 587.5,0 494.57,0 438.37,-117.82 415.67,-178.21"/>
<polygon fill="black" stroke="black" points="412.33,-177.14 412.19,-187.73 418.91,-179.54 412.33,-177.14"/>
<text text-anchor="start" x="874" y="-3.8" font-family="arial" font-size="14.00" fill="#377eb8">c1 &gt;= 10</text>
</g>
<!-- ID_134_ct1_st014&#45;&gt;ID_134_ct1_st023 -->
<g id="edge18" class="edge">
<title>ID_134_ct1_st014&#45;&gt;ID_134_ct1_st023</title>
<path fill="none" stroke="black" d="M1415.96,-101.82C1372.22,-78.04 1300.95,-46 1234.5,-46 790.5,-46 790.5,-46 790.5,-46 732.17,-46 671.57,-77.24 632.37,-102.28"/>
<polygon fill="black" stroke="black" points="630.32,-99.44 623.85,-107.84 634.14,-105.3 630.32,-99.44"/>
<text text-anchor="start" x="968.5" y="-49.8" font-family="arial" font-size="14.00" fill="#377eb8">(Q&#39; || c1 &gt;= 10)</text>
</g>
<!-- ID_134_ct1_st014&#45;&gt;ID_134_ct1_st0234 -->
<g id="edge19" class="edge">
<title>ID_134_ct1_st014&#45;&gt;ID_134_ct1_st0234</title>
<path fill="none" stroke="black" d="M1434.2,-152.08C1405.7,-180.36 1355.12,-225.24 1302,-247 1218.97,-281.02 1190.2,-275.79 1101,-266 1098.49,-265.72 1095.94,-265.4 1093.37,-265.05"/>
<polygon fill="black" stroke="black" points="1093.83,-261.58 1083.41,-263.5 1092.76,-268.49 1093.83,-261.58"/>
<text text-anchor="start" x="1221.5" y="-276.8" font-family="arial" font-size="14.00" fill="#377eb8">true</text>
</g>
<!-- ID_134_ct1_st014&#45;&gt;ID_134_ct1_st014 -->
<g id="edge21" class="edge">
<title>ID_134_ct1_st014&#45;&gt;ID_134_ct1_st014</title>
<path fill="none" stroke="black" d="M1437.71,-152.18C1436.76,-161.91 1443.86,-170 1459,-170 1468.46,-170 1474.78,-166.84 1477.96,-162.09"/>
<polygon fill="black" stroke="black" points="1481.41,-162.71 1480.29,-152.18 1474.6,-161.11 1481.41,-162.71"/>
<text text-anchor="start" x="1436" y="-173.8" font-family="arial" font-size="14.00" fill="#377eb8">c1 &lt; 10</text>
</g>
<!-- ID_134_ct1_st0134&#45;&gt;ID_134_ct1_st0234 -->
<g id="edge22" class="edge">
<title>ID_134_ct1_st0134&#45;&gt;ID_134_ct1_st0234</title>
<path fill="none" stroke="black" d="M1202.88,-205.26C1187.29,-217.06 1167.24,-230.02 1147,-237 1130.09,-242.83 1111.26,-246.03 1093.26,-247.67"/>
<polygon fill="black" stroke="black" points="1092.77,-244.19 1083.06,-248.44 1093.3,-251.17 1092.77,-244.19"/>
<text text-anchor="start" x="1112" y="-250.8" font-family="arial" font-size="14.00" fill="#377eb8">true</text>
</g>
<!-- ID_134_ct1_st0134&#45;&gt;ID_134_ct1_st014 -->
<g id="edge23" class="edge">
<title>ID_134_ct1_st0134&#45;&gt;ID_134_ct1_st014</title>
<path fill="none" stroke="black" d="M1302.16,-163.95C1324.76,-158.6 1350.22,-152.56 1373.91,-146.94"/>
<polygon fill="black" stroke="black" points="1375.02,-150.27 1383.94,-144.56 1373.4,-143.46 1375.02,-150.27"/>
<text text-anchor="start" x="1320" y="-177.8" font-family="arial" font-size="14.00" fill="#377eb8">c0 &gt;= 5</text>
<text text-anchor="start" x="1324" y="-162.8" font-family="arial" font-size="14.00">c1 :=0</text>
</g>
<!-- ID_134_ct1_st0134&#45;&gt;ID_134_ct1_st0134 -->
<g id="edge24" class="edge">
<title>ID_134_ct1_st0134&#45;&gt;ID_134_ct1_st0134</title>
<path fill="none" stroke="black" d="M1213.33,-205.18C1212.43,-214.91 1219.16,-223 1233.5,-223 1242.46,-223 1248.45,-219.84 1251.46,-215.09"/>
<polygon fill="black" stroke="black" points="1254.92,-215.7 1253.67,-205.18 1248.08,-214.18 1254.92,-215.7"/>
<text text-anchor="start" x="1214.5" y="-226.8" font-family="arial" font-size="14.00" fill="#377eb8">c0 &lt; 5</text>
</g>
</g>
</svg>
