<?xml version="1.0" encoding="UTF-8" standalone="no"?>
<!DOCTYPE svg PUBLIC "-//W3C//DTD SVG 1.1//EN"
 "http://www.w3.org/Graphics/SVG/1.1/DTD/svg11.dtd">
<!-- Generated by graphviz version 2.43.0 (0)
 -->
<!-- Title: G Pages: 1 -->
<svg width="666pt" height="189pt"
 viewBox="0.00 0.00 666.00 189.00" xmlns="http://www.w3.org/2000/svg" xmlns:xlink="http://www.w3.org/1999/xlink">
<g id="graph0" class="graph" transform="scale(1 1) rotate(0) translate(4 185)">
<title>G</title>
<polygon fill="white" stroke="transparent" points="-4,4 -4,-185 662,-185 662,4 -4,4"/>
<!-- _ID_77_ct1_st -->
<!-- ID_77_ct1_st -->
<g id="node2" class="node">
<title>ID_77_ct1_st</title>
<polygon fill="none" stroke="black" points="658,-94 559,-94 559,-44 658,-44 658,-94"/>
<text text-anchor="start" x="567" y="-79.8" font-family="arial" font-weight="bold" font-size="14.00">ID_77_ct1_st</text>
<text text-anchor="start" x="596.5" y="-65.8" font-family="arial" font-size="14.00" fill="#984ea3">true</text>
<text text-anchor="start" x="596.5" y="-51.8" font-family="arial" font-size="14.00" fill="#ff7f00">true</text>
</g>
<!-- _ID_77_ct1_st&#45;&gt;ID_77_ct1_st -->
<g id="edge1" class="edge">
<title>_ID_77_ct1_st&#45;&gt;ID_77_ct1_st</title>
<path fill="none" stroke="black" d="M491.23,-144.97C496.93,-142.1 502.66,-139.06 508,-136 526.92,-125.14 547.01,-111.96 564.15,-100.16"/>
<polygon fill="black" stroke="black" points="566.61,-102.72 572.83,-94.14 562.62,-96.97 566.61,-102.72"/>
</g>
<!-- ID_77_ct1_st&#45;&gt;ID_77_ct1_st -->
<g id="edge4" class="edge">
<title>ID_77_ct1_st&#45;&gt;ID_77_ct1_st</title>
<path fill="none" stroke="black" d="M594.68,-94.18C594.06,-103.91 598.67,-112 608.5,-112 614.64,-112 618.75,-108.84 620.81,-104.09"/>
<polygon fill="black" stroke="black" points="624.27,-104.59 622.32,-94.18 617.35,-103.53 624.27,-104.59"/>
<text text-anchor="start" x="596.5" y="-115.8" font-family="arial" font-size="14.00" fill="#377eb8">true</text>
</g>
<!-- _ID_77_ct1_st0 -->
<!-- ID_77_ct1_st0 -->
<g id="node4" class="node">
<title>ID_77_ct1_st0</title>
<polygon fill="none" stroke="black" points="261,-50 154,-50 154,0 261,0 261,-50"/>
<text text-anchor="start" x="162" y="-35.8" font-family="arial" font-weight="bold" font-size="14.00">ID_77_ct1_st0</text>
<text text-anchor="start" x="178" y="-21.8" font-family="arial" font-size="14.00" fill="#984ea3">(!Q &amp;&amp; S)</text>
<text text-anchor="start" x="195.5" y="-7.8" font-family="arial" font-size="14.00" fill="#ff7f00">true</text>
</g>
<!-- _ID_77_ct1_st0&#45;&gt;ID_77_ct1_st0 -->
<g id="edge2" class="edge">
<title>_ID_77_ct1_st0&#45;&gt;ID_77_ct1_st0</title>
<path fill="none" stroke="black" d="M111.08,-25C121.62,-25 132.74,-25 143.52,-25"/>
<polygon fill="black" stroke="black" points="143.72,-28.5 153.72,-25 143.72,-21.5 143.72,-28.5"/>
</g>
<!-- ID_77_ct1_st0&#45;&gt;ID_77_ct1_st -->
<g id="edge5" class="edge">
<title>ID_77_ct1_st0&#45;&gt;ID_77_ct1_st</title>
<path fill="none" stroke="black" d="M261.26,-16.47C321.74,-8.43 423.42,-0.3 508,-20 525.09,-23.98 542.62,-31.33 558.11,-39.16"/>
<polygon fill="black" stroke="black" points="556.49,-42.26 566.97,-43.79 559.74,-36.06 556.49,-42.26"/>
<text text-anchor="start" x="443.5" y="-23.8" font-family="arial" font-size="14.00" fill="#377eb8">Q&#39;</text>
</g>
<!-- ID_77_ct1_st0&#45;&gt;ID_77_ct1_st0 -->
<g id="edge6" class="edge">
<title>ID_77_ct1_st0&#45;&gt;ID_77_ct1_st0</title>
<path fill="none" stroke="black" d="M192.93,-50.18C192.28,-59.91 197.14,-68 207.5,-68 213.97,-68 218.3,-64.84 220.47,-60.09"/>
<polygon fill="black" stroke="black" points="223.94,-60.6 222.07,-50.18 217.03,-59.49 223.94,-60.6"/>
<text text-anchor="start" x="195.5" y="-71.8" font-family="arial" font-size="14.00" fill="#377eb8">true</text>
</g>
<!-- ID_77_ct1_st01 -->
<g id="node6" class="node">
<title>ID_77_ct1_st01</title>
<polygon fill="none" stroke="black" points="508,-94 394,-94 394,-44 508,-44 508,-94"/>
<text text-anchor="start" x="402" y="-79.8" font-family="arial" font-weight="bold" font-size="14.00">ID_77_ct1_st01</text>
<text text-anchor="start" x="419.5" y="-65.8" font-family="arial" font-size="14.00" fill="#984ea3">(!Q &amp;&amp; !S)</text>
<text text-anchor="start" x="439" y="-51.8" font-family="arial" font-size="14.00" fill="#ff7f00">true</text>
</g>
<!-- ID_77_ct1_st0&#45;&gt;ID_77_ct1_st01 -->
<g id="edge7" class="edge">
<title>ID_77_ct1_st0&#45;&gt;ID_77_ct1_st01</title>
<path fill="none" stroke="black" d="M261.01,-47.03C268.94,-49.74 277.11,-52.18 285,-54 316.98,-61.37 353.23,-65.15 383.59,-67.08"/>
<polygon fill="black" stroke="black" points="383.46,-70.57 393.65,-67.66 383.87,-63.59 383.46,-70.57"/>
<text text-anchor="start" x="318.5" y="-69.8" font-family="arial" font-size="14.00" fill="#377eb8">true</text>
</g>
<!-- _ID_77_ct1_st01 -->
<!-- _ID_77_ct1_st01&#45;&gt;ID_77_ct1_st01 -->
<g id="edge3" class="edge">
<title>_ID_77_ct1_st01&#45;&gt;ID_77_ct1_st01</title>
<path fill="none" stroke="black" d="M267.06,-107.3C299.24,-100.83 339.84,-92.58 376,-85 378.62,-84.45 381.3,-83.89 384,-83.31"/>
<polygon fill="black" stroke="black" points="384.8,-86.72 393.85,-81.22 383.34,-79.88 384.8,-86.72"/>
</g>
<!-- ID_77_ct1_st01&#45;&gt;ID_77_ct1_st -->
<g id="edge8" class="edge">
<title>ID_77_ct1_st01&#45;&gt;ID_77_ct1_st</title>
<path fill="none" stroke="black" d="M508.14,-69C521.38,-69 535.53,-69 548.88,-69"/>
<polygon fill="black" stroke="black" points="548.9,-72.5 558.9,-69 548.9,-65.5 548.9,-72.5"/>
<text text-anchor="start" x="526" y="-72.8" font-family="arial" font-size="14.00" fill="#377eb8">Q&#39;</text>
</g>
<!-- ID_77_ct1_st01&#45;&gt;ID_77_ct1_st0 -->
<g id="edge9" class="edge">
<title>ID_77_ct1_st01&#45;&gt;ID_77_ct1_st0</title>
<path fill="none" stroke="black" d="M401.97,-43.85C393.51,-40.32 384.64,-37.16 376,-35 342.08,-26.51 303.16,-23.79 271.37,-23.28"/>
<polygon fill="black" stroke="black" points="271.35,-19.78 261.31,-23.19 271.28,-26.78 271.35,-19.78"/>
<text text-anchor="start" x="285" y="-38.8" font-family="arial" font-size="14.00" fill="#377eb8">(Q&#39; || (R&#39; || !S&#39;))</text>
</g>
<!-- ID_77_ct1_st01&#45;&gt;ID_77_ct1_st01 -->
<g id="edge10" class="edge">
<title>ID_77_ct1_st01&#45;&gt;ID_77_ct1_st01</title>
<path fill="none" stroke="black" d="M435.69,-94.18C435,-103.91 440.11,-112 451,-112 457.81,-112 462.35,-108.84 464.64,-104.09"/>
<polygon fill="black" stroke="black" points="468.1,-104.62 466.31,-94.18 461.2,-103.45 468.1,-104.62"/>
<text text-anchor="start" x="439" y="-115.8" font-family="arial" font-size="14.00" fill="#377eb8">true</text>
</g>
</g>
</svg>
