<?xml version="1.0" encoding="UTF-8" standalone="no"?>
<!DOCTYPE svg PUBLIC "-//W3C//DTD SVG 1.1//EN"
 "http://www.w3.org/Graphics/SVG/1.1/DTD/svg11.dtd">
<!-- Generated by graphviz version 2.43.0 (0)
 -->
<!-- Title: G Pages: 1 -->
<svg width="602pt" height="180pt"
 viewBox="0.00 0.00 602.00 180.00" xmlns="http://www.w3.org/2000/svg" xmlns:xlink="http://www.w3.org/1999/xlink">
<g id="graph0" class="graph" transform="scale(1 1) rotate(0) translate(4 176)">
<title>G</title>
<polygon fill="white" stroke="transparent" points="-4,4 -4,-176 598,-176 598,4 -4,4"/>
<!-- _st0 -->
<!-- st0 -->
<g id="node2" class="node">
<title>st0</title>
<polygon fill="none" stroke="black" points="145,-129 91,-129 91,-79 145,-79 145,-129"/>
<text text-anchor="start" x="108" y="-114.8" font-family="arial" font-weight="bold" font-size="14.00">st0</text>
<text text-anchor="start" x="113" y="-100.8" font-family="arial" font-size="14.00" fill="#984ea3">R</text>
<text text-anchor="start" x="106" y="-86.8" font-family="arial" font-size="14.00" fill="#ff7f00">true</text>
</g>
<!-- _st0&#45;&gt;st0 -->
<g id="edge1" class="edge">
<title>_st0&#45;&gt;st0</title>
<path fill="none" stroke="black" d="M54.22,-104C62.55,-104 71.91,-104 80.82,-104"/>
<polygon fill="black" stroke="black" points="80.97,-107.5 90.97,-104 80.97,-100.5 80.97,-107.5"/>
</g>
<!-- st0&#45;&gt;st0 -->
<g id="edge3" class="edge">
<title>st0&#45;&gt;st0</title>
<path fill="none" stroke="black" d="M109.78,-129.18C109.42,-138.91 112.16,-147 118,-147 121.56,-147 123.97,-144 125.22,-139.45"/>
<polygon fill="black" stroke="black" points="128.74,-139.47 126.22,-129.18 121.77,-138.79 128.74,-139.47"/>
<text text-anchor="start" x="106" y="-150.8" font-family="arial" font-size="14.00" fill="#377eb8">true</text>
</g>
<!-- st01 -->
<g id="node4" class="node">
<title>st01</title>
<polygon fill="none" stroke="black" points="290,-50 236,-50 236,0 290,0 290,-50"/>
<text text-anchor="start" x="249" y="-35.8" font-family="arial" font-weight="bold" font-size="14.00">st01</text>
<text text-anchor="start" x="256" y="-21.8" font-family="arial" font-size="14.00" fill="#984ea3">!R</text>
<text text-anchor="start" x="251" y="-7.8" font-family="arial" font-size="14.00" fill="#ff7f00">true</text>
</g>
<!-- st0&#45;&gt;st01 -->
<g id="edge4" class="edge">
<title>st0&#45;&gt;st01</title>
<path fill="none" stroke="black" d="M145.08,-95.58C170,-87.3 205.56,-74.8 218,-67 222.7,-64.06 227.32,-60.55 231.7,-56.84"/>
<polygon fill="black" stroke="black" points="234.19,-59.31 239.28,-50.02 229.51,-54.11 234.19,-59.31"/>
<text text-anchor="start" x="178.5" y="-92.8" font-family="arial" font-size="14.00" fill="#377eb8">true</text>
</g>
<!-- _st01 -->
<!-- _st01&#45;&gt;st01 -->
<g id="edge2" class="edge">
<title>_st01&#45;&gt;st01</title>
<path fill="none" stroke="black" d="M145.23,-19.28C167.8,-20.39 200.61,-21.99 225.71,-23.22"/>
<polygon fill="black" stroke="black" points="225.78,-26.73 235.94,-23.72 226.12,-19.74 225.78,-26.73"/>
</g>
<!-- st01&#45;&gt;st0 -->
<g id="edge5" class="edge">
<title>st01&#45;&gt;st0</title>
<path fill="none" stroke="black" d="M235.7,-29.08C210.6,-33.33 174.91,-40.42 163,-48 153.83,-53.83 145.77,-62.26 139.14,-70.82"/>
<polygon fill="black" stroke="black" points="136.26,-68.83 133.23,-78.98 141.93,-72.93 136.26,-68.83"/>
<text text-anchor="start" x="163" y="-51.8" font-family="arial" font-size="14.00" fill="#377eb8">(Q&#39; || !R&#39;)</text>
</g>
<!-- st01&#45;&gt;st01 -->
<g id="edge7" class="edge">
<title>st01&#45;&gt;st01</title>
<path fill="none" stroke="black" d="M251.05,-50.18C250.52,-59.91 254.5,-68 263,-68 268.31,-68 271.86,-64.84 273.65,-60.09"/>
<polygon fill="black" stroke="black" points="277.12,-60.55 274.95,-50.18 270.18,-59.63 277.12,-60.55"/>
<text text-anchor="start" x="251" y="-71.8" font-family="arial" font-size="14.00" fill="#377eb8">true</text>
</g>
<!-- st023W -->
<g id="node5" class="node">
<title>st023W</title>
<polygon fill="none" stroke="black" points="440,-99 364,-99 364,-49 440,-49 440,-99"/>
<text text-anchor="start" x="377.5" y="-84.8" font-family="arial" font-weight="bold" font-size="14.00">st023W</text>
<text text-anchor="start" x="372" y="-70.8" font-family="arial" font-size="14.00" fill="#984ea3">(!Q &amp;&amp; R)</text>
<text text-anchor="start" x="379" y="-56.8" font-family="arial" font-size="14.00" fill="#ff7f00">c0 &lt;= 5</text>
</g>
<!-- st01&#45;&gt;st023W -->
<g id="edge6" class="edge">
<title>st01&#45;&gt;st023W</title>
<path fill="none" stroke="black" d="M290.27,-42.98C295.94,-46.33 302.03,-49.54 308,-52 322.46,-57.96 338.87,-62.52 353.85,-65.89"/>
<polygon fill="black" stroke="black" points="353.43,-69.38 363.94,-68.04 354.89,-62.54 353.43,-69.38"/>
<text text-anchor="start" x="315" y="-82.8" font-family="arial" font-size="14.00" fill="#377eb8">true</text>
<text text-anchor="start" x="308" y="-67.8" font-family="arial" font-size="14.00">c0 :=0</text>
</g>
<!-- st023W&#45;&gt;st0 -->
<g id="edge12" class="edge">
<title>st023W&#45;&gt;st0</title>
<path fill="none" stroke="black" d="M363.74,-92.36C357.92,-94.61 351.88,-96.6 346,-98 280.3,-113.59 200.91,-111.01 155.55,-107.59"/>
<polygon fill="black" stroke="black" points="155.57,-104.08 145.32,-106.76 155.01,-111.06 155.57,-104.08"/>
<text text-anchor="start" x="255.5" y="-113.8" font-family="arial" font-size="14.00" fill="#377eb8">Q&#39;</text>
</g>
<!-- st023W&#45;&gt;st01 -->
<g id="edge14" class="edge">
<title>st023W&#45;&gt;st01</title>
<path fill="none" stroke="black" d="M373.37,-48.87C365.11,-42.67 355.66,-36.74 346,-33 331.72,-27.48 315.05,-25.18 300.48,-24.37"/>
<polygon fill="black" stroke="black" points="300.43,-20.86 290.31,-24.01 300.18,-27.86 300.43,-20.86"/>
<text text-anchor="start" x="319.5" y="-36.8" font-family="arial" font-size="14.00" fill="#377eb8">Q&#39;</text>
</g>
<!-- st023W&#45;&gt;st023W -->
<g id="edge13" class="edge">
<title>st023W&#45;&gt;st023W</title>
<path fill="none" stroke="black" d="M388.18,-99.18C387.56,-108.91 392.17,-117 402,-117 408.14,-117 412.25,-113.84 414.31,-109.09"/>
<polygon fill="black" stroke="black" points="417.77,-109.59 415.82,-99.18 410.85,-108.53 417.77,-109.59"/>
<text text-anchor="start" x="383" y="-120.8" font-family="arial" font-size="14.00" fill="#377eb8">c0 &lt; 5</text>
</g>
<!-- st013W -->
<g id="node6" class="node">
<title>st013W</title>
<polygon fill="none" stroke="black" points="594,-99 514,-99 514,-49 594,-49 594,-99"/>
<text text-anchor="start" x="529.5" y="-84.8" font-family="arial" font-weight="bold" font-size="14.00">st013W</text>
<text text-anchor="start" x="522" y="-70.8" font-family="arial" font-size="14.00" fill="#984ea3">(!Q &amp;&amp; !R)</text>
<text text-anchor="start" x="531" y="-56.8" font-family="arial" font-size="14.00" fill="#ff7f00">c0 &lt;= 5</text>
</g>
<!-- st023W&#45;&gt;st013W -->
<g id="edge15" class="edge">
<title>st023W&#45;&gt;st013W</title>
<path fill="none" stroke="black" d="M440.08,-74C459.3,-74 483.03,-74 503.77,-74"/>
<polygon fill="black" stroke="black" points="503.99,-77.5 513.99,-74 503.99,-70.5 503.99,-77.5"/>
<text text-anchor="start" x="458" y="-77.8" font-family="arial" font-size="14.00" fill="#377eb8">c0 &lt; 5</text>
</g>
<!-- st013W&#45;&gt;st0 -->
<g id="edge8" class="edge">
<title>st013W&#45;&gt;st0</title>
<path fill="none" stroke="black" d="M521.03,-99.3C499.49,-114.67 469.69,-132.86 440,-141 321.02,-173.62 282.58,-153.34 163,-123 160.2,-122.29 157.36,-121.42 154.52,-120.46"/>
<polygon fill="black" stroke="black" points="155.64,-117.14 145.05,-116.86 153.15,-123.68 155.64,-117.14"/>
<text text-anchor="start" x="319.5" y="-160.8" font-family="arial" font-size="14.00" fill="#377eb8">Q&#39;</text>
</g>
<!-- st013W&#45;&gt;st01 -->
<g id="edge10" class="edge">
<title>st013W&#45;&gt;st01</title>
<path fill="none" stroke="black" d="M513.95,-52.83C492.72,-42.43 465.63,-30.89 440,-25 392.57,-14.1 336.03,-16.76 300.07,-20.33"/>
<polygon fill="black" stroke="black" points="299.63,-16.86 290.06,-21.4 300.37,-23.82 299.63,-16.86"/>
<text text-anchor="start" x="394.5" y="-28.8" font-family="arial" font-size="14.00" fill="#377eb8">Q&#39;</text>
</g>
<!-- st013W&#45;&gt;st023W -->
<g id="edge9" class="edge">
<title>st013W&#45;&gt;st023W</title>
<path fill="none" stroke="black" d="M513.82,-59.91C507.91,-58.29 501.85,-56.9 496,-56 479.31,-53.43 474.68,-53.34 458,-56 455.35,-56.42 452.65,-56.95 449.94,-57.57"/>
<polygon fill="black" stroke="black" points="448.99,-54.2 440.18,-60.09 450.74,-60.97 448.99,-54.2"/>
<text text-anchor="start" x="458" y="-59.8" font-family="arial" font-size="14.00" fill="#377eb8">c0 &lt; 5</text>
</g>
<!-- st013W&#45;&gt;st013W -->
<g id="edge11" class="edge">
<title>st013W&#45;&gt;st013W</title>
<path fill="none" stroke="black" d="M539.81,-99.18C539.17,-108.91 543.91,-117 554,-117 560.31,-117 564.52,-113.84 566.64,-109.09"/>
<polygon fill="black" stroke="black" points="570.11,-109.6 568.19,-99.18 563.19,-108.51 570.11,-109.6"/>
<text text-anchor="start" x="535" y="-120.8" font-family="arial" font-size="14.00" fill="#377eb8">c0 &lt; 5</text>
</g>
</g>
</svg>
