<?xml version="1.0" encoding="UTF-8" standalone="no"?>
<!DOCTYPE svg PUBLIC "-//W3C//DTD SVG 1.1//EN"
 "http://www.w3.org/Graphics/SVG/1.1/DTD/svg11.dtd">
<!-- Generated by graphviz version 2.40.1 (20161225.0304)
 -->
<!-- Title: G Pages: 1 -->
<svg width="613pt" height="145pt"
 viewBox="0.00 0.00 613.00 145.00" xmlns="http://www.w3.org/2000/svg" xmlns:xlink="http://www.w3.org/1999/xlink">
<g id="graph0" class="graph" transform="scale(1 1) rotate(0) translate(4 141)">
<title>G</title>
<polygon fill="#ffffff" stroke="transparent" points="-4,4 -4,-141 609,-141 609,4 -4,4"/>
<!-- _st0 -->
<!-- st0 -->
<g id="node2" class="node">
<title>st0</title>
<polygon fill="none" stroke="#000000" points="145,-104 91,-104 91,-54 145,-54 145,-104"/>
<text text-anchor="start" x="107" y="-89.8" font-family="arial" font-weight="bold" font-size="14.00" fill="#000000">st0</text>
<text text-anchor="start" x="110" y="-75.8" font-family="arial" font-size="14.00" fill="#984ea3">!Q</text>
<text text-anchor="start" x="105.5" y="-61.8" font-family="arial" font-size="14.00" fill="#ff7f00">true</text>
</g>
<!-- _st0&#45;&gt;st0 -->
<g id="edge1" class="edge">
<title>_st0&#45;&gt;st0</title>
<path fill="none" stroke="#000000" d="M54.303,-79C62.5813,-79 71.8217,-79 80.6405,-79"/>
<polygon fill="#000000" stroke="#000000" points="80.7163,-82.5001 90.7163,-79 80.7162,-75.5001 80.7163,-82.5001"/>
</g>
<!-- st0&#45;&gt;st0 -->
<g id="edge3" class="edge">
<title>st0&#45;&gt;st0</title>
<path fill="none" stroke="#000000" d="M109.7822,-104.1756C109.417,-113.9095 112.1563,-122 118,-122 121.561,-122 123.9693,-118.9957 125.2247,-114.446"/>
<polygon fill="#000000" stroke="#000000" points="128.739,-114.4661 126.2178,-104.1756 121.7714,-113.7923 128.739,-114.4661"/>
<text text-anchor="start" x="105.5" y="-125.8" font-family="arial" font-size="14.00" fill="#377eb8">true</text>
</g>
<!-- st01 -->
<g id="node4" class="node">
<title>st01</title>
<polygon fill="none" stroke="#000000" points="260,-59 206,-59 206,-9 260,-9 260,-59"/>
<text text-anchor="start" x="218" y="-44.8" font-family="arial" font-weight="bold" font-size="14.00" fill="#000000">st01</text>
<text text-anchor="start" x="227" y="-30.8" font-family="arial" font-size="14.00" fill="#984ea3">Q</text>
<text text-anchor="start" x="220.5" y="-16.8" font-family="arial" font-size="14.00" fill="#ff7f00">true</text>
</g>
<!-- st0&#45;&gt;st01 -->
<g id="edge4" class="edge">
<title>st0&#45;&gt;st01</title>
<path fill="none" stroke="#000000" d="M145.2534,-68.3356C160.5777,-62.3391 179.909,-54.7747 196.5242,-48.2732"/>
<polygon fill="#000000" stroke="#000000" points="197.9052,-51.4912 205.9422,-44.5878 195.3544,-44.9725 197.9052,-51.4912"/>
<text text-anchor="start" x="163" y="-64.8" font-family="arial" font-size="14.00" fill="#377eb8">true</text>
</g>
<!-- _st01 -->
<!-- _st01&#45;&gt;st01 -->
<g id="edge2" class="edge">
<title>_st01&#45;&gt;st01</title>
<path fill="none" stroke="#000000" d="M145.2534,-21.7918C160.2913,-23.884 179.1877,-26.5131 195.5897,-28.7951"/>
<polygon fill="#000000" stroke="#000000" points="195.5553,-32.3239 205.9422,-30.2354 196.52,-25.3907 195.5553,-32.3239"/>
</g>
<!-- st01&#45;&gt;st01 -->
<g id="edge6" class="edge">
<title>st01&#45;&gt;st01</title>
<path fill="none" stroke="#000000" d="M222.541,-59.1756C222.0762,-68.9095 225.5625,-77 233,-77 237.5322,-77 240.5972,-73.9957 242.195,-69.446"/>
<polygon fill="#000000" stroke="#000000" points="245.7112,-69.5283 243.459,-59.1756 238.7636,-68.6732 245.7112,-69.5283"/>
<text text-anchor="start" x="220.5" y="-80.8" font-family="arial" font-size="14.00" fill="#377eb8">true</text>
</g>
<!-- st02 -->
<g id="node5" class="node">
<title>st02</title>
<polygon fill="none" stroke="#000000" points="375,-59 321,-59 321,-9 375,-9 375,-59"/>
<text text-anchor="start" x="333" y="-44.8" font-family="arial" font-weight="bold" font-size="14.00" fill="#000000">st02</text>
<text text-anchor="start" x="340" y="-30.8" font-family="arial" font-size="14.00" fill="#984ea3">!Q</text>
<text text-anchor="start" x="335.5" y="-16.8" font-family="arial" font-size="14.00" fill="#ff7f00">true</text>
</g>
<!-- st01&#45;&gt;st02 -->
<g id="edge5" class="edge">
<title>st01&#45;&gt;st02</title>
<path fill="none" stroke="#000000" d="M260.2534,-34C275.2913,-34 294.1877,-34 310.5897,-34"/>
<polygon fill="#000000" stroke="#000000" points="310.9423,-37.5001 320.9422,-34 310.9422,-30.5001 310.9423,-37.5001"/>
<text text-anchor="start" x="278" y="-37.8" font-family="arial" font-size="14.00" fill="#377eb8">true</text>
</g>
<!-- st02&#45;&gt;st02 -->
<g id="edge7" class="edge">
<title>st02&#45;&gt;st02</title>
<path fill="none" stroke="#000000" d="M337.541,-59.1756C337.0762,-68.9095 340.5625,-77 348,-77 352.5322,-77 355.5972,-73.9957 357.195,-69.446"/>
<polygon fill="#000000" stroke="#000000" points="360.7112,-69.5283 358.459,-59.1756 353.7636,-68.6732 360.7112,-69.5283"/>
<text text-anchor="start" x="335.5" y="-80.8" font-family="arial" font-size="14.00" fill="#377eb8">true</text>
</g>
<!-- st013 -->
<g id="node6" class="node">
<title>st013</title>
<polygon fill="none" stroke="#000000" points="490,-59 436,-59 436,-9 490,-9 490,-59"/>
<text text-anchor="start" x="444" y="-44.8" font-family="arial" font-weight="bold" font-size="14.00" fill="#000000">st013</text>
<text text-anchor="start" x="457" y="-30.8" font-family="arial" font-size="14.00" fill="#984ea3">Q</text>
<text text-anchor="start" x="450.5" y="-16.8" font-family="arial" font-size="14.00" fill="#ff7f00">true</text>
</g>
<!-- st02&#45;&gt;st013 -->
<g id="edge8" class="edge">
<title>st02&#45;&gt;st013</title>
<path fill="none" stroke="#000000" d="M375.2534,-34C390.2913,-34 409.1877,-34 425.5897,-34"/>
<polygon fill="#000000" stroke="#000000" points="425.9423,-37.5001 435.9422,-34 425.9422,-30.5001 425.9423,-37.5001"/>
<text text-anchor="start" x="393" y="-37.8" font-family="arial" font-size="14.00" fill="#377eb8">true</text>
</g>
<!-- st013&#45;&gt;st013 -->
<g id="edge10" class="edge">
<title>st013&#45;&gt;st013</title>
<path fill="none" stroke="#000000" d="M452.541,-59.1756C452.0762,-68.9095 455.5625,-77 463,-77 467.5322,-77 470.5972,-73.9957 472.195,-69.446"/>
<polygon fill="#000000" stroke="#000000" points="475.7112,-69.5283 473.459,-59.1756 468.7636,-68.6732 475.7112,-69.5283"/>
<text text-anchor="start" x="450.5" y="-80.8" font-family="arial" font-size="14.00" fill="#377eb8">true</text>
</g>
<!-- st024 -->
<g id="node7" class="node">
<title>st024</title>
<polygon fill="none" stroke="#000000" points="605,-59 551,-59 551,-9 605,-9 605,-59"/>
<text text-anchor="start" x="559" y="-44.8" font-family="arial" font-weight="bold" font-size="14.00" fill="#000000">st024</text>
<text text-anchor="start" x="570" y="-30.8" font-family="arial" font-size="14.00" fill="#984ea3">!Q</text>
<text text-anchor="start" x="565.5" y="-16.8" font-family="arial" font-size="14.00" fill="#ff7f00">true</text>
</g>
<!-- st013&#45;&gt;st024 -->
<g id="edge9" class="edge">
<title>st013&#45;&gt;st024</title>
<path fill="none" stroke="#000000" d="M490.2534,-34C505.2913,-34 524.1877,-34 540.5897,-34"/>
<polygon fill="#000000" stroke="#000000" points="540.9423,-37.5001 550.9422,-34 540.9422,-30.5001 540.9423,-37.5001"/>
<text text-anchor="start" x="508" y="-37.8" font-family="arial" font-size="14.00" fill="#377eb8">true</text>
</g>
<!-- st024&#45;&gt;st024 -->
<g id="edge11" class="edge">
<title>st024&#45;&gt;st024</title>
<path fill="none" stroke="#000000" d="M567.541,-59.1756C567.0762,-68.9095 570.5625,-77 578,-77 582.5322,-77 585.5972,-73.9957 587.195,-69.446"/>
<polygon fill="#000000" stroke="#000000" points="590.7112,-69.5283 588.459,-59.1756 583.7636,-68.6732 590.7112,-69.5283"/>
<text text-anchor="start" x="565.5" y="-80.8" font-family="arial" font-size="14.00" fill="#377eb8">true</text>
</g>
</g>
</svg>
