<?xml version="1.0" encoding="UTF-8" standalone="no"?>
<!DOCTYPE svg PUBLIC "-//W3C//DTD SVG 1.1//EN"
 "http://www.w3.org/Graphics/SVG/1.1/DTD/svg11.dtd">
<!-- Generated by graphviz version 2.43.0 (0)
 -->
<!-- Title: G Pages: 1 -->
<svg width="746pt" height="170pt"
 viewBox="0.00 0.00 746.00 170.30" xmlns="http://www.w3.org/2000/svg" xmlns:xlink="http://www.w3.org/1999/xlink">
<g id="graph0" class="graph" transform="scale(1 1) rotate(0) translate(4 166.3)">
<title>G</title>
<polygon fill="white" stroke="transparent" points="-4,4 -4,-166.3 742,-166.3 742,4 -4,4"/>
<!-- _st0 -->
<!-- st0 -->
<g id="node2" class="node">
<title>st0</title>
<polygon fill="none" stroke="black" points="145,-111.3 91,-111.3 91,-61.3 145,-61.3 145,-111.3"/>
<text text-anchor="start" x="108" y="-97.1" font-family="arial" font-weight="bold" font-size="14.00">st0</text>
<text text-anchor="start" x="113" y="-83.1" font-family="arial" font-size="14.00" fill="#984ea3">R</text>
<text text-anchor="start" x="106" y="-69.1" font-family="arial" font-size="14.00" fill="#ff7f00">true</text>
</g>
<!-- _st0&#45;&gt;st0 -->
<g id="edge1" class="edge">
<title>_st0&#45;&gt;st0</title>
<path fill="none" stroke="black" d="M54.22,-86.3C62.55,-86.3 71.91,-86.3 80.82,-86.3"/>
<polygon fill="black" stroke="black" points="80.97,-89.8 90.97,-86.3 80.97,-82.8 80.97,-89.8"/>
</g>
<!-- st0&#45;&gt;st0 -->
<g id="edge3" class="edge">
<title>st0&#45;&gt;st0</title>
<path fill="none" stroke="black" d="M109.78,-111.48C109.42,-121.21 112.16,-129.3 118,-129.3 121.56,-129.3 123.97,-126.3 125.22,-121.75"/>
<polygon fill="black" stroke="black" points="128.74,-121.77 126.22,-111.48 121.77,-121.1 128.74,-121.77"/>
<text text-anchor="start" x="106" y="-133.1" font-family="arial" font-size="14.00" fill="#377eb8">true</text>
</g>
<!-- st01 -->
<g id="node4" class="node">
<title>st01</title>
<polygon fill="none" stroke="black" points="259,-66.3 205,-66.3 205,-16.3 259,-16.3 259,-66.3"/>
<text text-anchor="start" x="218" y="-52.1" font-family="arial" font-weight="bold" font-size="14.00">st01</text>
<text text-anchor="start" x="225" y="-38.1" font-family="arial" font-size="14.00" fill="#984ea3">!R</text>
<text text-anchor="start" x="220" y="-24.1" font-family="arial" font-size="14.00" fill="#ff7f00">true</text>
</g>
<!-- st0&#45;&gt;st01 -->
<g id="edge4" class="edge">
<title>st0&#45;&gt;st01</title>
<path fill="none" stroke="black" d="M145.26,-75.75C160.14,-69.77 178.98,-62.2 195.2,-55.69"/>
<polygon fill="black" stroke="black" points="196.93,-58.76 204.91,-51.79 194.32,-52.27 196.93,-58.76"/>
<text text-anchor="start" x="163" y="-72.1" font-family="arial" font-size="14.00" fill="#377eb8">true</text>
</g>
<!-- _st01 -->
<!-- _st01&#45;&gt;st01 -->
<g id="edge2" class="edge">
<title>_st01&#45;&gt;st01</title>
<path fill="none" stroke="black" d="M145.26,-29.05C160,-31.16 178.62,-33.82 194.74,-36.12"/>
<polygon fill="black" stroke="black" points="194.51,-39.63 204.91,-37.58 195.5,-32.7 194.51,-39.63"/>
</g>
<!-- st01&#45;&gt;st01 -->
<g id="edge7" class="edge">
<title>st01&#45;&gt;st01</title>
<path fill="none" stroke="black" d="M221.54,-66.48C221.08,-76.21 224.56,-84.3 232,-84.3 236.53,-84.3 239.6,-81.3 241.2,-76.75"/>
<polygon fill="black" stroke="black" points="244.71,-76.83 242.46,-66.48 237.76,-75.98 244.71,-76.83"/>
<text text-anchor="start" x="220" y="-88.1" font-family="arial" font-size="14.00" fill="#377eb8">true</text>
</g>
<!-- st02 -->
<g id="node5" class="node">
<title>st02</title>
<polygon fill="none" stroke="black" points="395,-65.3 319,-65.3 319,-15.3 395,-15.3 395,-65.3"/>
<text text-anchor="start" x="343" y="-51.1" font-family="arial" font-weight="bold" font-size="14.00">st02</text>
<text text-anchor="start" x="327" y="-37.1" font-family="arial" font-size="14.00" fill="#984ea3">(!Q &amp;&amp; R)</text>
<text text-anchor="start" x="345" y="-23.1" font-family="arial" font-size="14.00" fill="#ff7f00">true</text>
</g>
<!-- st01&#45;&gt;st02 -->
<g id="edge5" class="edge">
<title>st01&#45;&gt;st02</title>
<path fill="none" stroke="black" d="M259.01,-28.73C264.8,-26.48 271.01,-24.48 277,-23.3 287.33,-21.27 298.39,-21.89 308.86,-23.78"/>
<polygon fill="black" stroke="black" points="308.16,-27.21 318.68,-25.94 309.67,-20.38 308.16,-27.21"/>
<text text-anchor="start" x="277" y="-27.1" font-family="arial" font-size="14.00" fill="#377eb8">true</text>
</g>
<!-- st023 -->
<g id="node6" class="node">
<title>st023</title>
<polygon fill="none" stroke="black" points="738,-59.3 666,-59.3 666,-9.3 738,-9.3 738,-59.3"/>
<text text-anchor="start" x="684.5" y="-45.1" font-family="arial" font-weight="bold" font-size="14.00">st023</text>
<text text-anchor="start" x="674" y="-31.1" font-family="arial" font-size="14.00" fill="#984ea3">(Q &amp;&amp; R)</text>
<text text-anchor="start" x="690" y="-17.1" font-family="arial" font-size="14.00" fill="#ff7f00">true</text>
</g>
<!-- st01&#45;&gt;st023 -->
<g id="edge6" class="edge">
<title>st01&#45;&gt;st023</title>
<path fill="none" stroke="black" d="M259.11,-26.54C264.9,-23.59 271.08,-20.67 277,-18.3 295.03,-11.1 299.77,-9 319,-6.3 439.98,10.64 584.05,-11.15 655.77,-24.81"/>
<polygon fill="black" stroke="black" points="655.33,-28.29 665.81,-26.76 656.66,-21.42 655.33,-28.29"/>
<text text-anchor="start" x="443.5" y="-7.1" font-family="arial" font-size="14.00" fill="#377eb8">true</text>
</g>
<!-- st02&#45;&gt;st01 -->
<g id="edge10" class="edge">
<title>st02&#45;&gt;st01</title>
<path fill="none" stroke="black" d="M318.75,-40.61C303.1,-40.73 284.94,-40.88 269.38,-41.01"/>
<polygon fill="black" stroke="black" points="269.06,-37.51 259.09,-41.09 269.11,-44.51 269.06,-37.51"/>
<text text-anchor="start" x="279.5" y="-45.1" font-family="arial" font-size="14.00" fill="#377eb8">!Q&#39;</text>
</g>
<!-- st02&#45;&gt;st02 -->
<g id="edge8" class="edge">
<title>st02&#45;&gt;st02</title>
<path fill="none" stroke="black" d="M344.3,-65.48C343.74,-75.21 347.97,-83.3 357,-83.3 362.64,-83.3 366.41,-80.14 368.31,-75.4"/>
<polygon fill="black" stroke="black" points="371.78,-75.87 369.7,-65.48 364.85,-74.9 371.78,-75.87"/>
<text text-anchor="start" x="345" y="-87.1" font-family="arial" font-size="14.00" fill="#377eb8">true</text>
</g>
<!-- st02&#45;&gt;st023 -->
<g id="edge9" class="edge">
<title>st02&#45;&gt;st023</title>
<path fill="none" stroke="black" d="M395.22,-34.92C401.15,-34.25 407.24,-33.67 413,-33.3 498.73,-27.87 599.11,-30.18 655.86,-32.29"/>
<polygon fill="black" stroke="black" points="655.8,-35.79 665.93,-32.68 656.07,-28.79 655.8,-35.79"/>
<text text-anchor="start" x="542" y="-35.1" font-family="arial" font-size="14.00" fill="#377eb8">true</text>
</g>
<!-- st013 -->
<g id="node7" class="node">
<title>st013</title>
<polygon fill="none" stroke="black" points="592,-129.3 516,-129.3 516,-79.3 592,-79.3 592,-129.3"/>
<text text-anchor="start" x="536.5" y="-115.1" font-family="arial" font-weight="bold" font-size="14.00">st013</text>
<text text-anchor="start" x="524" y="-101.1" font-family="arial" font-size="14.00" fill="#984ea3">(Q &amp;&amp; !R)</text>
<text text-anchor="start" x="531" y="-87.1" font-family="arial" font-size="14.00" fill="#ff7f00">c0 &lt;= 5</text>
</g>
<!-- st02&#45;&gt;st013 -->
<g id="edge11" class="edge">
<title>st02&#45;&gt;st013</title>
<path fill="none" stroke="black" d="M395.03,-36.99C424.25,-35.87 465.39,-37.68 498,-52.3 508.28,-56.91 517.85,-64.27 526.02,-72.01"/>
<polygon fill="black" stroke="black" points="523.59,-74.53 533.12,-79.17 528.56,-69.6 523.59,-74.53"/>
<text text-anchor="start" x="443.5" y="-71.1" font-family="arial" font-size="14.00" fill="#377eb8">true</text>
<text text-anchor="start" x="436.5" y="-56.1" font-family="arial" font-size="14.00">c0 :=0</text>
</g>
<!-- st023&#45;&gt;st023 -->
<g id="edge16" class="edge">
<title>st023&#45;&gt;st023</title>
<path fill="none" stroke="black" d="M688.55,-59.48C687.96,-69.21 692.44,-77.3 702,-77.3 707.98,-77.3 711.97,-74.14 713.98,-69.4"/>
<polygon fill="black" stroke="black" points="717.44,-69.88 715.45,-59.48 710.52,-68.86 717.44,-69.88"/>
<text text-anchor="start" x="690" y="-81.1" font-family="arial" font-size="14.00" fill="#377eb8">true</text>
</g>
<!-- st023&#45;&gt;st013 -->
<g id="edge17" class="edge">
<title>st023&#45;&gt;st013</title>
<path fill="none" stroke="black" d="M665.69,-34.55C648.13,-35.93 627.07,-39.56 610,-48.3 598.91,-53.98 588.73,-62.75 580.22,-71.67"/>
<polygon fill="black" stroke="black" points="577.59,-69.36 573.49,-79.13 582.78,-74.05 577.59,-69.36"/>
<text text-anchor="start" x="617" y="-67.1" font-family="arial" font-size="14.00" fill="#377eb8">true</text>
<text text-anchor="start" x="610" y="-52.1" font-family="arial" font-size="14.00">c0 :=0</text>
</g>
<!-- st013&#45;&gt;st01 -->
<g id="edge14" class="edge">
<title>st013&#45;&gt;st01</title>
<path fill="none" stroke="black" d="M515.74,-116.67C509.86,-118.18 503.81,-119.48 498,-120.3 419.03,-131.56 392.59,-138.07 319,-107.3 299.81,-99.28 281.16,-85.88 266.16,-73.24"/>
<polygon fill="black" stroke="black" points="268.06,-70.26 258.22,-66.34 263.47,-75.54 268.06,-70.26"/>
<text text-anchor="start" x="334" y="-132.1" font-family="arial" font-size="14.00" fill="#377eb8">c0 &gt;= 5</text>
</g>
<!-- st013&#45;&gt;st02 -->
<g id="edge12" class="edge">
<title>st013&#45;&gt;st02</title>
<path fill="none" stroke="black" d="M515.96,-103.43C486.92,-101.59 446.03,-96.42 413,-82.3 406.32,-79.45 399.72,-75.59 393.54,-71.38"/>
<polygon fill="black" stroke="black" points="395.56,-68.51 385.41,-65.46 391.44,-74.17 395.56,-68.51"/>
<text text-anchor="start" x="413" y="-105.1" font-family="arial" font-size="14.00" fill="#377eb8">(Q&#39; || c0 &gt;= 5)</text>
</g>
<!-- st013&#45;&gt;st023 -->
<g id="edge13" class="edge">
<title>st013&#45;&gt;st023</title>
<path fill="none" stroke="black" d="M592.28,-99.88C609.92,-96.71 630.82,-91.34 648,-82.3 655.98,-78.11 663.69,-72.43 670.65,-66.45"/>
<polygon fill="black" stroke="black" points="673.4,-68.68 678.44,-59.37 668.69,-63.51 673.4,-68.68"/>
<text text-anchor="start" x="617" y="-99.1" font-family="arial" font-size="14.00" fill="#377eb8">true</text>
</g>
<!-- st013&#45;&gt;st013 -->
<g id="edge15" class="edge">
<title>st013&#45;&gt;st013</title>
<path fill="none" stroke="black" d="M540.18,-129.48C539.56,-139.21 544.17,-147.3 554,-147.3 560.14,-147.3 564.25,-144.14 566.31,-139.4"/>
<polygon fill="black" stroke="black" points="569.77,-139.89 567.82,-129.48 562.85,-138.84 569.77,-139.89"/>
<text text-anchor="start" x="535" y="-151.1" font-family="arial" font-size="14.00" fill="#377eb8">c0 &lt; 5</text>
</g>
</g>
</svg>
