<?xml version="1.0" encoding="UTF-8" standalone="no"?>
<!DOCTYPE svg PUBLIC "-//W3C//DTD SVG 1.1//EN"
 "http://www.w3.org/Graphics/SVG/1.1/DTD/svg11.dtd">
<!-- Generated by graphviz version 2.40.1 (20161225.0304)
 -->
<!-- Title: G Pages: 1 -->
<svg width="1478pt" height="704pt"
 viewBox="0.00 0.00 1478.00 704.00" xmlns="http://www.w3.org/2000/svg" xmlns:xlink="http://www.w3.org/1999/xlink">
<g id="graph0" class="graph" transform="scale(1 1) rotate(0) translate(4 700)">
<title>G</title>
<polygon fill="#ffffff" stroke="transparent" points="-4,4 -4,-700 1474,-700 1474,4 -4,4"/>
<!-- _st0 -->
<!-- st0 -->
<g id="node2" class="node">
<title>st0</title>
<polygon fill="none" stroke="#000000" points="157,-529 91,-529 91,-479 157,-479 157,-529"/>
<text text-anchor="start" x="113" y="-514.8" font-family="arial" font-weight="bold" font-size="14.00" fill="#000000">st0</text>
<text text-anchor="start" x="99" y="-500.8" font-family="arial" font-size="14.00" fill="#984ea3">(R || !Q)</text>
<text text-anchor="start" x="111.5" y="-486.8" font-family="arial" font-size="14.00" fill="#ff7f00">true</text>
</g>
<!-- _st0&#45;&gt;st0 -->
<g id="edge1" class="edge">
<title>_st0&#45;&gt;st0</title>
<path fill="none" stroke="#000000" d="M54.0199,-504C62.3287,-504 71.6915,-504 80.8018,-504"/>
<polygon fill="#000000" stroke="#000000" points="80.9106,-507.5001 90.9106,-504 80.9105,-500.5001 80.9106,-507.5001"/>
</g>
<!-- st0&#45;&gt;st0 -->
<g id="edge4" class="edge">
<title>st0&#45;&gt;st0</title>
<path fill="none" stroke="#000000" d="M114.6616,-529.1756C114.2466,-538.9095 117.3594,-547 124,-547 128.0466,-547 130.7832,-543.9957 132.2098,-539.446"/>
<polygon fill="#000000" stroke="#000000" points="135.7251,-539.4981 133.3384,-529.1756 128.767,-538.7335 135.7251,-539.4981"/>
<text text-anchor="start" x="111.5" y="-550.8" font-family="arial" font-size="14.00" fill="#377eb8">true</text>
</g>
<!-- st012 -->
<g id="node4" class="node">
<title>st012</title>
<polygon fill="none" stroke="#000000" points="345,-346 218,-346 218,-296 345,-296 345,-346"/>
<text text-anchor="start" x="262.5" y="-331.8" font-family="arial" font-weight="bold" font-size="14.00" fill="#000000">st012</text>
<text text-anchor="start" x="226" y="-317.8" font-family="arial" font-size="14.00" fill="#984ea3">(Q &amp;&amp; (!R &amp;&amp; !T))</text>
<text text-anchor="start" x="269" y="-303.8" font-family="arial" font-size="14.00" fill="#ff7f00">true</text>
</g>
<!-- st0&#45;&gt;st012 -->
<g id="edge5" class="edge">
<title>st0&#45;&gt;st012</title>
<path fill="none" stroke="#000000" d="M133.8491,-478.8082C142.6794,-458.1702 157.0037,-428.9041 175,-407 192.105,-386.1808 214.9487,-366.9339 235.0927,-351.9503"/>
<polygon fill="#000000" stroke="#000000" points="237.2254,-354.7269 243.2431,-346.0069 233.101,-349.071 237.2254,-354.7269"/>
<text text-anchor="start" x="175" y="-410.8" font-family="arial" font-size="14.00" fill="#377eb8">true</text>
</g>
<!-- st0123W -->
<g id="node6" class="node">
<title>st0123W</title>
<polygon fill="none" stroke="#000000" points="1470,-403 1347,-403 1347,-353 1470,-353 1470,-403"/>
<text text-anchor="start" x="1378.5" y="-388.8" font-family="arial" font-weight="bold" font-size="14.00" fill="#000000">st0123W</text>
<text text-anchor="start" x="1355" y="-374.8" font-family="arial" font-size="14.00" fill="#984ea3">(Q &amp;&amp; (!R &amp;&amp; T))</text>
<text text-anchor="start" x="1384" y="-360.8" font-family="arial" font-size="14.00" fill="#ff7f00">c0 &lt;= 5</text>
</g>
<!-- st0&#45;&gt;st0123W -->
<g id="edge6" class="edge">
<title>st0&#45;&gt;st0123W</title>
<path fill="none" stroke="#000000" d="M127.9082,-529.0533C133.5491,-557.0783 146.5988,-602.0659 175,-629 211.3587,-663.4806 231.3915,-666 281.5,-666 281.5,-666 281.5,-666 1205.5,-666 1262.7993,-666 1288.1674,-669.1984 1329,-629 1359.9463,-598.5343 1388.7504,-475.0202 1401.5443,-413.3653"/>
<polygon fill="#000000" stroke="#000000" points="1405.0248,-413.8147 1403.6013,-403.3159 1398.167,-412.4109 1405.0248,-413.8147"/>
<text text-anchor="start" x="707" y="-684.8" font-family="arial" font-size="14.00" fill="#377eb8">true</text>
<text text-anchor="start" x="699.5" y="-669.8" font-family="arial" font-size="14.00" fill="#000000">c0 :=0</text>
</g>
<!-- _st012 -->
<!-- _st012&#45;&gt;st012 -->
<g id="edge2" class="edge">
<title>_st012&#45;&gt;st012</title>
<path fill="none" stroke="#000000" d="M154.7415,-321C169.9942,-321 189.1324,-321 207.8811,-321"/>
<polygon fill="#000000" stroke="#000000" points="207.9273,-324.5001 217.9273,-321 207.9272,-317.5001 207.9273,-324.5001"/>
</g>
<!-- st012&#45;&gt;st0 -->
<g id="edge12" class="edge">
<title>st012&#45;&gt;st0</title>
<path fill="none" stroke="#000000" d="M261.872,-346.295C245.6479,-366.9642 221.8172,-396.7808 200,-422 185.6171,-438.6257 169.0851,-456.5904 155.1208,-471.4551"/>
<polygon fill="#000000" stroke="#000000" points="152.3929,-469.2462 148.0773,-478.9223 157.4851,-474.0494 152.3929,-469.2462"/>
<text text-anchor="start" x="180.5" y="-452.8" font-family="arial" font-size="14.00" fill="#377eb8">R&#39;</text>
</g>
<!-- st012&#45;&gt;st012 -->
<g id="edge15" class="edge">
<title>st012&#45;&gt;st012</title>
<path fill="none" stroke="#000000" d="M263.9438,-346.1756C263.1636,-355.9095 269.0156,-364 281.5,-364 289.3027,-364 294.5147,-360.8397 297.1359,-356.093"/>
<polygon fill="#000000" stroke="#000000" points="300.5913,-356.6586 299.0562,-346.1756 293.719,-355.3279 300.5913,-356.6586"/>
<text text-anchor="start" x="269" y="-367.8" font-family="arial" font-size="14.00" fill="#377eb8">true</text>
</g>
<!-- st012&#45;&gt;st0123W -->
<g id="edge16" class="edge">
<title>st012&#45;&gt;st0123W</title>
<path fill="none" stroke="#000000" d="M340.6414,-295.9414C342.2042,-294.3876 343.6652,-292.7421 345,-291 372.4646,-255.153 344.3958,-232.1484 363,-191 398.7729,-111.878 397.6668,-38 484.5,-38 484.5,-38 484.5,-38 1205.5,-38 1265.056,-38 1289.6937,-45.2571 1329,-90 1362.2947,-127.8999 1390.8911,-274.4766 1402.7068,-342.6991"/>
<polygon fill="#000000" stroke="#000000" points="1399.2576,-343.2935 1404.3922,-352.5609 1406.1575,-342.1142 1399.2576,-343.2935"/>
<text text-anchor="start" x="829.5" y="-56.8" font-family="arial" font-size="14.00" fill="#377eb8">true</text>
<text text-anchor="start" x="822" y="-41.8" font-family="arial" font-size="14.00" fill="#000000">c0 :=0</text>
</g>
<!-- st02 -->
<g id="node7" class="node">
<title>st02</title>
<polygon fill="none" stroke="#000000" points="1271,-350 1140,-350 1140,-300 1271,-300 1271,-350"/>
<text text-anchor="start" x="1190.5" y="-335.8" font-family="arial" font-weight="bold" font-size="14.00" fill="#000000">st02</text>
<text text-anchor="start" x="1148" y="-321.8" font-family="arial" font-size="14.00" fill="#984ea3">(!Q &amp;&amp; (!R &amp;&amp; !T))</text>
<text text-anchor="start" x="1193" y="-307.8" font-family="arial" font-size="14.00" fill="#ff7f00">true</text>
</g>
<!-- st012&#45;&gt;st02 -->
<g id="edge13" class="edge">
<title>st012&#45;&gt;st02</title>
<path fill="none" stroke="#000000" d="M345.1002,-327.94C477.1732,-341.3135 790.7163,-367.6676 1053,-348 1078.1096,-346.1171 1105.3508,-342.5138 1129.7689,-338.7081"/>
<polygon fill="#000000" stroke="#000000" points="1130.3634,-342.1576 1139.688,-337.1275 1129.2618,-335.2448 1130.3634,-342.1576"/>
<text text-anchor="start" x="707" y="-357.8" font-family="arial" font-size="14.00" fill="#377eb8">true</text>
</g>
<!-- st023W -->
<g id="node8" class="node">
<title>st023W</title>
<polygon fill="none" stroke="#000000" points="548,-226 421,-226 421,-176 548,-176 548,-226"/>
<text text-anchor="start" x="458.5" y="-211.8" font-family="arial" font-weight="bold" font-size="14.00" fill="#000000">st023W</text>
<text text-anchor="start" x="429" y="-197.8" font-family="arial" font-size="14.00" fill="#984ea3">(!Q &amp;&amp; (!R &amp;&amp; T))</text>
<text text-anchor="start" x="460" y="-183.8" font-family="arial" font-size="14.00" fill="#ff7f00">c0 &lt;= 5</text>
</g>
<!-- st012&#45;&gt;st023W -->
<g id="edge14" class="edge">
<title>st012&#45;&gt;st023W</title>
<path fill="none" stroke="#000000" d="M291.4019,-295.5438C303.6347,-267.9896 327.3066,-225.3926 363,-206 377.3636,-198.1961 394.1534,-194.6555 410.5878,-193.5132"/>
<polygon fill="#000000" stroke="#000000" points="410.902,-197.0034 420.7497,-193.0952 410.6142,-190.0093 410.902,-197.0034"/>
<text text-anchor="start" x="370.5" y="-224.8" font-family="arial" font-size="14.00" fill="#377eb8">true</text>
<text text-anchor="start" x="363" y="-209.8" font-family="arial" font-size="14.00" fill="#000000">c0 :=0</text>
</g>
<!-- _st0123W -->
<!-- _st0123W&#45;&gt;st0123W -->
<g id="edge3" class="edge">
<title>_st0123W&#45;&gt;st0123W</title>
<path fill="none" stroke="#000000" d="M1247.1887,-549.4355C1273.0068,-545.9848 1305.586,-538.0585 1329,-520 1364.2783,-492.7909 1386.2596,-445.2247 1397.9398,-412.7035"/>
<polygon fill="#000000" stroke="#000000" points="1401.2888,-413.7276 1401.2373,-403.1329 1394.6706,-411.4473 1401.2888,-413.7276"/>
</g>
<!-- st0123W&#45;&gt;st0 -->
<g id="edge29" class="edge">
<title>st0123W&#45;&gt;st0</title>
<path fill="none" stroke="#000000" d="M1401.5053,-403.1135C1390.7352,-438.086 1367.2362,-501.8917 1329,-544 1286.4379,-590.8723 1268.8131,-615 1205.5,-615 281.5,-615 281.5,-615 281.5,-615 226.9155,-615 177.9273,-569.9045 149.5772,-537.2003"/>
<polygon fill="#000000" stroke="#000000" points="151.9445,-534.578 142.8234,-529.1876 146.5922,-539.0895 151.9445,-534.578"/>
<text text-anchor="start" x="712.5" y="-618.8" font-family="arial" font-size="14.00" fill="#377eb8">R&#39;</text>
</g>
<!-- st0123W&#45;&gt;st012 -->
<g id="edge33" class="edge">
<title>st0123W&#45;&gt;st012</title>
<path fill="none" stroke="#000000" d="M1405.2267,-352.7783C1395.93,-284.4907 1367.5269,-97.9855 1329,-51 1291.3459,-5.079 1264.8849,0 1205.5,0 484.5,0 484.5,0 484.5,0 418.5973,0 392.7491,-26.1939 363,-85 343.5532,-123.4412 367.8292,-237.7168 346.0882,-286.9"/>
<polygon fill="#000000" stroke="#000000" points="342.9226,-285.3901 341.0998,-295.8269 349.0333,-288.8047 342.9226,-285.3901"/>
<text text-anchor="start" x="829.5" y="-3.8" font-family="arial" font-size="14.00" fill="#377eb8">true</text>
</g>
<!-- st0123W&#45;&gt;st0123W -->
<g id="edge34" class="edge">
<title>st0123W&#45;&gt;st0123W</title>
<path fill="none" stroke="#000000" d="M1390.1968,-403.1756C1389.3833,-412.9095 1395.4844,-421 1408.5,-421 1416.6348,-421 1422.0685,-417.8397 1424.8013,-413.093"/>
<polygon fill="#000000" stroke="#000000" points="1428.2553,-413.6705 1426.8032,-403.1756 1421.3937,-412.2853 1428.2553,-413.6705"/>
<text text-anchor="start" x="1388.5" y="-424.8" font-family="arial" font-size="14.00" fill="#377eb8">c0 &lt; 5</text>
</g>
<!-- st0123W&#45;&gt;st02 -->
<g id="edge30" class="edge">
<title>st0123W&#45;&gt;st02</title>
<path fill="none" stroke="#000000" d="M1346.937,-368.7717C1328.1818,-365.3978 1307.6091,-361.1257 1289,-356 1285.6946,-355.0896 1282.3354,-354.1043 1278.9565,-353.064"/>
<polygon fill="#000000" stroke="#000000" points="1280.0016,-349.7236 1269.4104,-350.0029 1277.8641,-356.3893 1280.0016,-349.7236"/>
<text text-anchor="start" x="1296.5" y="-368.8" font-family="arial" font-size="14.00" fill="#377eb8">true</text>
</g>
<!-- st0123W&#45;&gt;st023W -->
<g id="edge31" class="edge">
<title>st0123W&#45;&gt;st023W</title>
<path fill="none" stroke="#000000" d="M1384.9131,-352.6856C1332.0026,-298.338 1197.1392,-173.059 1053,-144 870.7842,-107.2646 818.4213,-127.8551 635,-158 609.5474,-162.1831 582.2785,-169.1759 558.0395,-176.3197"/>
<polygon fill="#000000" stroke="#000000" points="556.776,-173.0447 548.206,-179.2742 558.7902,-179.7487 556.776,-173.0447"/>
<text text-anchor="start" x="946.5" y="-147.8" font-family="arial" font-size="14.00" fill="#377eb8">c0 &lt; 5</text>
</g>
<!-- st023 -->
<g id="node9" class="node">
<title>st023</title>
<polygon fill="none" stroke="#000000" points="1053,-445 880,-445 880,-395 1053,-395 1053,-445"/>
<text text-anchor="start" x="947.5" y="-430.8" font-family="arial" font-weight="bold" font-size="14.00" fill="#000000">st023</text>
<text text-anchor="start" x="888" y="-416.8" font-family="arial" font-size="14.00" fill="#984ea3">(!Q &amp;&amp; (!R &amp;&amp; (S &amp;&amp; T)))</text>
<text text-anchor="start" x="954" y="-402.8" font-family="arial" font-size="14.00" fill="#ff7f00">true</text>
</g>
<!-- st0123W&#45;&gt;st023 -->
<g id="edge32" class="edge">
<title>st0123W&#45;&gt;st023</title>
<path fill="none" stroke="#000000" d="M1346.8283,-385.7364C1288.8644,-392.8063 1199.6514,-403.1704 1122,-410 1103.0678,-411.6651 1082.8158,-413.1694 1063.3941,-414.4758"/>
<polygon fill="#000000" stroke="#000000" points="1063.0725,-410.9893 1053.3249,-415.1407 1063.5338,-417.9741 1063.0725,-410.9893"/>
<text text-anchor="start" x="1181" y="-411.8" font-family="arial" font-size="14.00" fill="#377eb8">c0 &gt;= 5</text>
</g>
<!-- st0123 -->
<g id="node10" class="node">
<title>st0123</title>
<polygon fill="none" stroke="#000000" points="804,-470 635,-470 635,-420 804,-420 804,-470"/>
<text text-anchor="start" x="696.5" y="-455.8" font-family="arial" font-weight="bold" font-size="14.00" fill="#000000">st0123</text>
<text text-anchor="start" x="643" y="-441.8" font-family="arial" font-size="14.00" fill="#984ea3">(Q &amp;&amp; (!R &amp;&amp; (S &amp;&amp; T)))</text>
<text text-anchor="start" x="707" y="-427.8" font-family="arial" font-size="14.00" fill="#ff7f00">true</text>
</g>
<!-- st0123W&#45;&gt;st0123 -->
<g id="edge35" class="edge">
<title>st0123W&#45;&gt;st0123</title>
<path fill="none" stroke="#000000" d="M1346.8828,-401.051C1323.278,-409.5931 1296.0148,-419.1122 1271,-427 1103.3264,-479.8716 1054.3743,-509.4376 880,-487 856.5034,-483.9766 831.5373,-478.5604 808.4715,-472.6011"/>
<polygon fill="#000000" stroke="#000000" points="809.2749,-469.1933 798.7123,-470.0193 807.4845,-475.9605 809.2749,-469.1933"/>
<text text-anchor="start" x="1072" y="-489.8" font-family="arial" font-size="14.00" fill="#377eb8">c0 &gt;= 5</text>
</g>
<!-- st02&#45;&gt;st0 -->
<g id="edge7" class="edge">
<title>st02&#45;&gt;st0</title>
<path fill="none" stroke="#000000" d="M1179.331,-350.2828C1167.2017,-362.1751 1152.6946,-376.648 1140,-390 1100.0969,-431.9693 1103.5079,-458.6693 1053,-487 806.9891,-624.9916 702.8812,-555.299 421,-545 311.4475,-540.9973 281.2621,-553.947 175,-527 172.2197,-526.2949 169.4021,-525.4465 166.593,-524.4971"/>
<polygon fill="#000000" stroke="#000000" points="167.7325,-521.1863 157.1404,-520.942 165.2683,-527.7383 167.7325,-521.1863"/>
<text text-anchor="start" x="584.5" y="-563.8" font-family="arial" font-size="14.00" fill="#377eb8">R&#39;</text>
</g>
<!-- st02&#45;&gt;st012 -->
<g id="edge10" class="edge">
<title>st02&#45;&gt;st012</title>
<path fill="none" stroke="#000000" d="M1139.6808,-319.8719C1023.754,-311.4798 775.5777,-296.3767 566,-303 494.2532,-305.2674 412.4809,-310.7435 355.0741,-315.0646"/>
<polygon fill="#000000" stroke="#000000" points="354.7108,-311.582 345.0047,-315.8295 355.2411,-318.5619 354.7108,-311.582"/>
<text text-anchor="start" x="707" y="-306.8" font-family="arial" font-size="14.00" fill="#377eb8">true</text>
</g>
<!-- st02&#45;&gt;st0123W -->
<g id="edge11" class="edge">
<title>st02&#45;&gt;st0123W</title>
<path fill="none" stroke="#000000" d="M1271.2788,-318.6693C1290.2416,-318.6721 1310.7339,-320.4761 1329,-326 1343.6221,-330.4219 1358.0705,-338.4514 1370.5569,-346.8989"/>
<polygon fill="#000000" stroke="#000000" points="1368.6802,-349.8586 1378.8658,-352.7749 1372.722,-344.1433 1368.6802,-349.8586"/>
<text text-anchor="start" x="1296.5" y="-344.8" font-family="arial" font-size="14.00" fill="#377eb8">true</text>
<text text-anchor="start" x="1289" y="-329.8" font-family="arial" font-size="14.00" fill="#000000">c0 :=0</text>
</g>
<!-- st02&#45;&gt;st02 -->
<g id="edge8" class="edge">
<title>st02&#45;&gt;st02</title>
<path fill="none" stroke="#000000" d="M1186.4497,-350.1756C1185.603,-359.9095 1191.9531,-368 1205.5,-368 1213.9668,-368 1219.6224,-364.8397 1222.4667,-360.093"/>
<polygon fill="#000000" stroke="#000000" points="1225.9193,-360.6816 1224.5503,-350.1756 1219.0689,-359.2423 1225.9193,-360.6816"/>
<text text-anchor="start" x="1193" y="-371.8" font-family="arial" font-size="14.00" fill="#377eb8">true</text>
</g>
<!-- st02&#45;&gt;st023W -->
<g id="edge9" class="edge">
<title>st02&#45;&gt;st023W</title>
<path fill="none" stroke="#000000" d="M1195.8195,-299.8077C1183.3668,-271.0732 1158.8523,-225.0923 1122,-202 1023.0401,-139.9899 978.4759,-172.4667 862,-164 730.3951,-154.4335 696.8411,-169.9127 566,-187 563.3553,-187.3454 560.6652,-187.7144 557.9503,-188.1017"/>
<polygon fill="#000000" stroke="#000000" points="557.4238,-184.6414 548.0478,-189.5752 558.4541,-191.5652 557.4238,-184.6414"/>
<text text-anchor="start" x="829.5" y="-182.8" font-family="arial" font-size="14.00" fill="#377eb8">true</text>
<text text-anchor="start" x="822" y="-167.8" font-family="arial" font-size="14.00" fill="#000000">c0 :=0</text>
</g>
<!-- st023W&#45;&gt;st0 -->
<g id="edge17" class="edge">
<title>st023W&#45;&gt;st0</title>
<path fill="none" stroke="#000000" d="M420.7449,-187.7844C401.9235,-186.0113 381.4339,-186.2003 363,-191 291.5639,-209.6001 266.861,-216.6675 218,-272 166.7062,-330.0875 141.2627,-419.8152 130.5443,-468.9223"/>
<polygon fill="#000000" stroke="#000000" points="127.1087,-468.2526 128.4766,-478.7587 133.959,-469.6926 127.1087,-468.2526"/>
<text text-anchor="start" x="274.5" y="-275.8" font-family="arial" font-size="14.00" fill="#377eb8">R&#39;</text>
</g>
<!-- st023W&#45;&gt;st012 -->
<g id="edge21" class="edge">
<title>st023W&#45;&gt;st012</title>
<path fill="none" stroke="#000000" d="M427.0558,-226.1415C406.4026,-235.8923 383.2244,-247.6756 363,-260 348.5021,-268.8348 333.4088,-279.6284 320.2084,-289.6669"/>
<polygon fill="#000000" stroke="#000000" points="318.0405,-286.9188 312.2562,-295.7954 322.3134,-292.4634 318.0405,-286.9188"/>
<text text-anchor="start" x="370.5" y="-263.8" font-family="arial" font-size="14.00" fill="#377eb8">true</text>
</g>
<!-- st023W&#45;&gt;st0123W -->
<g id="edge22" class="edge">
<title>st023W&#45;&gt;st0123W</title>
<path fill="none" stroke="#000000" d="M500.3222,-175.7635C514.7875,-154.9338 538.1358,-126.3861 566,-111 626.6391,-77.5161 650.2304,-84 719.5,-84 719.5,-84 719.5,-84 1205.5,-84 1262.7993,-84 1288.303,-80.6643 1329,-121 1360.7366,-152.4549 1389.4454,-280.4696 1401.922,-343.1231"/>
<polygon fill="#000000" stroke="#000000" points="1398.4906,-343.8134 1403.8525,-352.9513 1405.3594,-342.4642 1398.4906,-343.8134"/>
<text text-anchor="start" x="946.5" y="-87.8" font-family="arial" font-size="14.00" fill="#377eb8">c0 &lt; 5</text>
</g>
<!-- st023W&#45;&gt;st02 -->
<g id="edge18" class="edge">
<title>st023W&#45;&gt;st02</title>
<path fill="none" stroke="#000000" d="M548.4545,-194.833C666.6644,-185.9821 925.2301,-178.647 1122,-259 1140.9083,-266.7214 1159.0548,-280.0789 1173.5725,-292.766"/>
<polygon fill="#000000" stroke="#000000" points="1171.4817,-295.5942 1181.2463,-299.7055 1176.1768,-290.4022 1171.4817,-295.5942"/>
<text text-anchor="start" x="829.5" y="-202.8" font-family="arial" font-size="14.00" fill="#377eb8">true</text>
</g>
<!-- st023W&#45;&gt;st023W -->
<g id="edge19" class="edge">
<title>st023W&#45;&gt;st023W</title>
<path fill="none" stroke="#000000" d="M465.8232,-226.1756C464.9932,-235.9095 471.2188,-244 484.5,-244 492.8008,-244 498.3454,-240.8397 501.134,-236.093"/>
<polygon fill="#000000" stroke="#000000" points="504.5873,-236.6761 503.1768,-226.1756 497.7312,-235.2639 504.5873,-236.6761"/>
<text text-anchor="start" x="464.5" y="-247.8" font-family="arial" font-size="14.00" fill="#377eb8">c0 &lt; 5</text>
</g>
<!-- st023W&#45;&gt;st023 -->
<g id="edge20" class="edge">
<title>st023W&#45;&gt;st023</title>
<path fill="none" stroke="#000000" d="M548.2164,-212.2847C639.9139,-228.6208 798.7526,-257.3167 804,-261 855.9124,-297.4383 831.1369,-343.3076 878.9599,-388.235"/>
<polygon fill="#000000" stroke="#000000" points="876.721,-390.9264 886.5604,-394.8556 881.3189,-385.6481 876.721,-390.9264"/>
<text text-anchor="start" x="695" y="-264.8" font-family="arial" font-size="14.00" fill="#377eb8">c0 &gt;= 5</text>
</g>
<!-- st023W&#45;&gt;st0123 -->
<g id="edge23" class="edge">
<title>st023W&#45;&gt;st0123</title>
<path fill="none" stroke="#000000" d="M505.7012,-226.0314C534.1931,-259.3141 586.837,-319.5706 635,-368 650.1359,-383.2196 667.5638,-399.322 682.646,-412.8452"/>
<polygon fill="#000000" stroke="#000000" points="680.501,-415.6218 690.2947,-419.6635 685.159,-410.3966 680.501,-415.6218"/>
<text text-anchor="start" x="567" y="-349.8" font-family="arial" font-size="14.00" fill="#377eb8">c0 &gt;= 5</text>
</g>
<!-- st023&#45;&gt;st0 -->
<g id="edge24" class="edge">
<title>st023&#45;&gt;st0</title>
<path fill="none" stroke="#000000" d="M934.168,-445.0148C902.86,-467.5391 853.0518,-499.0347 804,-512 674.234,-546.2995 334.2224,-512.8889 200,-513 188.8889,-513.0092 186.0688,-513.9692 175,-513 172.4529,-512.777 169.8424,-512.4925 167.214,-512.1628"/>
<polygon fill="#000000" stroke="#000000" points="167.4807,-508.6652 157.0836,-510.7027 166.482,-515.5936 167.4807,-508.6652"/>
<text text-anchor="start" x="477.5" y="-529.8" font-family="arial" font-size="14.00" fill="#377eb8">R&#39;</text>
</g>
<!-- st023&#45;&gt;st012 -->
<g id="edge27" class="edge">
<title>st023&#45;&gt;st012</title>
<path fill="none" stroke="#000000" d="M879.7411,-414.2283C724.5606,-403.6106 411.1268,-380.7222 363,-366 351.2874,-362.417 339.3674,-357.0121 328.3892,-351.1778"/>
<polygon fill="#000000" stroke="#000000" points="329.8578,-347.9903 319.4142,-346.2066 326.4661,-354.1137 329.8578,-347.9903"/>
<text text-anchor="start" x="566" y="-397.8" font-family="arial" font-size="14.00" fill="#377eb8">(R&#39; || S&#39;)</text>
</g>
<!-- st023&#45;&gt;st02 -->
<g id="edge25" class="edge">
<title>st023&#45;&gt;st02</title>
<path fill="none" stroke="#000000" d="M1053.3069,-397.5784C1076.0324,-390.6801 1100.2507,-382.3915 1122,-373 1133.7495,-367.9265 1145.9373,-361.596 1157.251,-355.2138"/>
<polygon fill="#000000" stroke="#000000" points="1159.1953,-358.1329 1166.1119,-350.1072 1155.7001,-352.068 1159.1953,-358.1329"/>
<text text-anchor="start" x="1071" y="-394.8" font-family="arial" font-size="14.00" fill="#377eb8">(R&#39; || S&#39;)</text>
</g>
<!-- st023&#45;&gt;st023 -->
<g id="edge26" class="edge">
<title>st023&#45;&gt;st023</title>
<path fill="none" stroke="#000000" d="M943.3408,-445.1756C942.3115,-454.9095 950.0313,-463 966.5,-463 976.793,-463 983.6684,-459.8397 987.1261,-455.093"/>
<polygon fill="#000000" stroke="#000000" points="990.5755,-455.7308 989.6592,-445.1756 983.7933,-453.9984 990.5755,-455.7308"/>
<text text-anchor="start" x="954" y="-466.8" font-family="arial" font-size="14.00" fill="#377eb8">true</text>
</g>
<!-- st023&#45;&gt;st0123 -->
<g id="edge28" class="edge">
<title>st023&#45;&gt;st0123</title>
<path fill="none" stroke="#000000" d="M879.6625,-424.0984C860.6342,-425.3618 840.6157,-426.9717 822,-429 819.4542,-429.2774 816.875,-429.5733 814.2739,-429.8849"/>
<polygon fill="#000000" stroke="#000000" points="813.6422,-426.4366 804.1575,-431.1579 814.5163,-433.3819 813.6422,-426.4366"/>
<text text-anchor="start" x="829.5" y="-432.8" font-family="arial" font-size="14.00" fill="#377eb8">true</text>
</g>
<!-- st0123&#45;&gt;st0 -->
<g id="edge36" class="edge">
<title>st0123&#45;&gt;st0</title>
<path fill="none" stroke="#000000" d="M634.8864,-462.2904C628.8461,-463.2845 622.8382,-464.2021 617,-465 451.6366,-487.5991 253.1431,-498.3648 167.183,-502.2376"/>
<polygon fill="#000000" stroke="#000000" points="166.8605,-498.7483 157.0249,-502.6865 167.1697,-505.7415 166.8605,-498.7483"/>
<text text-anchor="start" x="376" y="-493.8" font-family="arial" font-size="14.00" fill="#377eb8">R&#39;</text>
</g>
<!-- st0123&#45;&gt;st012 -->
<g id="edge39" class="edge">
<title>st0123&#45;&gt;st012</title>
<path fill="none" stroke="#000000" d="M634.6768,-451.5716C559.4661,-453.8211 448.5953,-448.1621 363,-406 339.1958,-394.2747 318.5795,-372.5894 304.0374,-354.0577"/>
<polygon fill="#000000" stroke="#000000" points="306.8202,-351.9349 297.9899,-346.0803 301.2419,-356.1637 306.8202,-351.9349"/>
<text text-anchor="start" x="459" y="-452.8" font-family="arial" font-size="14.00" fill="#377eb8">(R&#39; || S&#39;)</text>
</g>
<!-- st0123&#45;&gt;st02 -->
<g id="edge37" class="edge">
<title>st0123&#45;&gt;st02</title>
<path fill="none" stroke="#000000" d="M764.4734,-419.9465C795.9131,-403.5236 839.379,-382.954 880,-371 963.4535,-346.4412 1062.9232,-334.8199 1129.7511,-329.4363"/>
<polygon fill="#000000" stroke="#000000" points="1130.0802,-332.9214 1139.7783,-328.6556 1129.5367,-325.9425 1130.0802,-332.9214"/>
<text text-anchor="start" x="941" y="-374.8" font-family="arial" font-size="14.00" fill="#377eb8">(R&#39; || S&#39;)</text>
</g>
<!-- st0123&#45;&gt;st023 -->
<g id="edge38" class="edge">
<title>st0123&#45;&gt;st023</title>
<path fill="none" stroke="#000000" d="M804.081,-447.4504C823.1786,-447.1585 843.3247,-446.1834 862,-444 864.548,-443.7021 867.1245,-443.3667 869.719,-442.9988"/>
<polygon fill="#000000" stroke="#000000" points="870.4523,-446.4268 879.7939,-441.4284 869.3741,-439.5104 870.4523,-446.4268"/>
<text text-anchor="start" x="829.5" y="-449.8" font-family="arial" font-size="14.00" fill="#377eb8">true</text>
</g>
<!-- st0123&#45;&gt;st0123 -->
<g id="edge40" class="edge">
<title>st0123&#45;&gt;st0123</title>
<path fill="none" stroke="#000000" d="M696.7144,-470.1756C695.7017,-479.9095 703.2969,-488 719.5,-488 729.627,-488 736.3914,-484.8397 739.7935,-480.093"/>
<polygon fill="#000000" stroke="#000000" points="743.2429,-480.7271 742.2856,-470.1756 736.4539,-479.0211 743.2429,-480.7271"/>
<text text-anchor="start" x="707" y="-491.8" font-family="arial" font-size="14.00" fill="#377eb8">true</text>
</g>
</g>
</svg>
