<?xml version="1.0" encoding="UTF-8" standalone="no"?>
<!DOCTYPE svg PUBLIC "-//W3C//DTD SVG 1.1//EN"
 "http://www.w3.org/Graphics/SVG/1.1/DTD/svg11.dtd">
<!-- Generated by graphviz version 2.43.0 (0)
 -->
<!-- Title: G Pages: 1 -->
<svg width="2086pt" height="985pt"
 viewBox="0.00 0.00 2086.00 985.00" xmlns="http://www.w3.org/2000/svg" xmlns:xlink="http://www.w3.org/1999/xlink">
<g id="graph0" class="graph" transform="scale(1 1) rotate(0) translate(4 981)">
<title>G</title>
<polygon fill="white" stroke="transparent" points="-4,4 -4,-981 2082,-981 2082,4 -4,4"/>
<!-- _st0 -->
<!-- st0 -->
<g id="node2" class="node">
<title>st0</title>
<polygon fill="none" stroke="black" points="145,-669 91,-669 91,-619 145,-619 145,-669"/>
<text text-anchor="start" x="108" y="-654.8" font-family="arial" font-weight="bold" font-size="14.00">st0</text>
<text text-anchor="start" x="110" y="-640.8" font-family="arial" font-size="14.00" fill="#984ea3">!Q</text>
<text text-anchor="start" x="106" y="-626.8" font-family="arial" font-size="14.00" fill="#ff7f00">true</text>
</g>
<!-- _st0&#45;&gt;st0 -->
<g id="edge1" class="edge">
<title>_st0&#45;&gt;st0</title>
<path fill="none" stroke="black" d="M54.22,-644C62.55,-644 71.91,-644 80.82,-644"/>
<polygon fill="black" stroke="black" points="80.97,-647.5 90.97,-644 80.97,-640.5 80.97,-647.5"/>
</g>
<!-- st0&#45;&gt;st0 -->
<g id="edge5" class="edge">
<title>st0&#45;&gt;st0</title>
<path fill="none" stroke="black" d="M109.78,-669.18C109.42,-678.91 112.16,-687 118,-687 121.56,-687 123.97,-684 125.22,-679.45"/>
<polygon fill="black" stroke="black" points="128.74,-679.47 126.22,-669.18 121.77,-678.79 128.74,-679.47"/>
<text text-anchor="start" x="106" y="-690.8" font-family="arial" font-size="14.00" fill="#377eb8">true</text>
</g>
<!-- st01 -->
<g id="node4" class="node">
<title>st01</title>
<polygon fill="none" stroke="black" points="277,-436 205,-436 205,-386 277,-386 277,-436"/>
<text text-anchor="start" x="227" y="-421.8" font-family="arial" font-weight="bold" font-size="14.00">st01</text>
<text text-anchor="start" x="213" y="-407.8" font-family="arial" font-size="14.00" fill="#984ea3">(Q &amp;&amp; R)</text>
<text text-anchor="start" x="229" y="-393.8" font-family="arial" font-size="14.00" fill="#ff7f00">true</text>
</g>
<!-- st0&#45;&gt;st01 -->
<g id="edge6" class="edge">
<title>st0&#45;&gt;st01</title>
<path fill="none" stroke="black" d="M118.21,-618.81C118.25,-578.83 123.81,-500.24 163,-450 171.37,-439.27 183.5,-431.24 195.66,-425.35"/>
<polygon fill="black" stroke="black" points="197.18,-428.51 204.91,-421.25 194.35,-422.11 197.18,-428.51"/>
<text text-anchor="start" x="163" y="-453.8" font-family="arial" font-size="14.00" fill="#377eb8">true</text>
</g>
<!-- st012 -->
<g id="node6" class="node">
<title>st012</title>
<polygon fill="none" stroke="black" points="2078,-672 1956,-672 1956,-622 2078,-622 2078,-672"/>
<text text-anchor="start" x="1999.5" y="-657.8" font-family="arial" font-weight="bold" font-size="14.00">st012</text>
<text text-anchor="start" x="1964" y="-643.8" font-family="arial" font-size="14.00" fill="#984ea3">(Q &amp;&amp; (!R &amp;&amp; !T))</text>
<text text-anchor="start" x="2005" y="-629.8" font-family="arial" font-size="14.00" fill="#ff7f00">true</text>
</g>
<!-- st0&#45;&gt;st012 -->
<g id="edge7" class="edge">
<title>st0&#45;&gt;st012</title>
<path fill="none" stroke="black" d="M119.43,-669.11C121.03,-732.67 128.49,-897.74 163,-938 186.33,-965.22 204.15,-962 240,-962 240,-962 240,-962 1749,-962 1833.67,-962 1874.21,-993.68 1938,-938 1976.51,-904.39 2001.69,-752.45 2011.44,-682.48"/>
<polygon fill="black" stroke="black" points="2014.93,-682.76 2012.82,-672.38 2008,-681.81 2014.93,-682.76"/>
<text text-anchor="start" x="928" y="-965.8" font-family="arial" font-size="14.00" fill="#377eb8">true</text>
</g>
<!-- st0123W -->
<g id="node8" class="node">
<title>st0123W</title>
<polygon fill="none" stroke="black" points="666,-649 547,-649 547,-599 666,-599 666,-649"/>
<text text-anchor="start" x="578.5" y="-634.8" font-family="arial" font-weight="bold" font-size="14.00">st0123W</text>
<text text-anchor="start" x="555" y="-620.8" font-family="arial" font-size="14.00" fill="#984ea3">(Q &amp;&amp; (!R &amp;&amp; T))</text>
<text text-anchor="start" x="583.5" y="-606.8" font-family="arial" font-size="14.00" fill="#ff7f00">c0 &lt;= 5</text>
</g>
<!-- st0&#45;&gt;st0123W -->
<g id="edge8" class="edge">
<title>st0&#45;&gt;st0123W</title>
<path fill="none" stroke="black" d="M119.49,-669.09C121.58,-699.35 130.18,-749.14 163,-773 193.5,-795.18 507.48,-789.47 529,-773 552.46,-755.04 534.46,-735.75 547,-709 555.53,-690.8 567.83,-672.22 578.94,-657.1"/>
<polygon fill="black" stroke="black" points="581.76,-659.17 584.97,-649.07 576.17,-654.97 581.76,-659.17"/>
<text text-anchor="start" x="302" y="-805.8" font-family="arial" font-size="14.00" fill="#377eb8">true</text>
<text text-anchor="start" x="295" y="-790.8" font-family="arial" font-size="14.00">c0 :=0</text>
</g>
<!-- _st01 -->
<!-- _st01&#45;&gt;st01 -->
<g id="edge2" class="edge">
<title>_st01&#45;&gt;st01</title>
<path fill="none" stroke="black" d="M124.59,-36.17C143.38,-97.19 204.43,-295.48 229.31,-376.27"/>
<polygon fill="black" stroke="black" points="226.01,-377.44 232.29,-385.97 232.7,-375.38 226.01,-377.44"/>
</g>
<!-- st01&#45;&gt;st0 -->
<g id="edge9" class="edge">
<title>st01&#45;&gt;st0</title>
<path fill="none" stroke="black" d="M213.63,-436.01C197.07,-452.98 176.38,-476.68 163,-501 144.12,-535.3 132.22,-578.78 125.63,-608.74"/>
<polygon fill="black" stroke="black" points="122.16,-608.23 123.51,-618.74 129,-609.68 122.16,-608.23"/>
<text text-anchor="start" x="168.5" y="-504.8" font-family="arial" font-size="14.00" fill="#377eb8">R&#39;</text>
</g>
<!-- st01&#45;&gt;st01 -->
<g id="edge12" class="edge">
<title>st01&#45;&gt;st01</title>
<path fill="none" stroke="black" d="M228.67,-436.18C228.13,-445.91 232.23,-454 241,-454 246.48,-454 250.14,-450.84 251.98,-446.09"/>
<polygon fill="black" stroke="black" points="255.45,-446.56 253.33,-436.18 248.51,-445.61 255.45,-446.56"/>
<text text-anchor="start" x="229" y="-457.8" font-family="arial" font-size="14.00" fill="#377eb8">true</text>
</g>
<!-- st01&#45;&gt;st012 -->
<g id="edge13" class="edge">
<title>st01&#45;&gt;st012</title>
<path fill="none" stroke="black" d="M245.24,-385.98C250.42,-356.8 263.41,-309.34 295,-284 314.72,-268.18 325.99,-277.68 351,-274 716.86,-220.14 807.7,-178 1177.5,-178 1177.5,-178 1177.5,-178 1749,-178 1948.48,-178 2000.84,-502.4 2012.81,-611.61"/>
<polygon fill="black" stroke="black" points="2009.35,-612.2 2013.87,-621.78 2016.31,-611.47 2009.35,-612.2"/>
<text text-anchor="start" x="1041" y="-187.8" font-family="arial" font-size="14.00" fill="#377eb8">true</text>
</g>
<!-- st01&#45;&gt;st0123W -->
<g id="edge14" class="edge">
<title>st01&#45;&gt;st0123W</title>
<path fill="none" stroke="black" d="M252.05,-436.37C260.95,-456.22 275.53,-483.47 295,-502 315.3,-521.32 325.2,-520.06 351,-531 403.66,-553.33 422.13,-545.85 473,-572 481.78,-576.51 482.23,-580.47 491,-585 505.45,-592.46 521.63,-598.98 537.17,-604.44"/>
<polygon fill="black" stroke="black" points="536.16,-607.79 546.75,-607.7 538.41,-601.16 536.16,-607.79"/>
<text text-anchor="start" x="400" y="-590.8" font-family="arial" font-size="14.00" fill="#377eb8">true</text>
<text text-anchor="start" x="393" y="-575.8" font-family="arial" font-size="14.00">c0 :=0</text>
</g>
<!-- st02 -->
<g id="node9" class="node">
<title>st02</title>
<polygon fill="none" stroke="black" points="1347,-468 1221,-468 1221,-418 1347,-418 1347,-468"/>
<text text-anchor="start" x="1270" y="-453.8" font-family="arial" font-weight="bold" font-size="14.00">st02</text>
<text text-anchor="start" x="1229" y="-439.8" font-family="arial" font-size="14.00" fill="#984ea3">(!Q &amp;&amp; (!R &amp;&amp; !T))</text>
<text text-anchor="start" x="1272" y="-425.8" font-family="arial" font-size="14.00" fill="#ff7f00">true</text>
</g>
<!-- st01&#45;&gt;st02 -->
<g id="edge10" class="edge">
<title>st01&#45;&gt;st02</title>
<path fill="none" stroke="black" d="M262.09,-385.79C271.15,-376.02 282.6,-365.61 295,-359 341.45,-334.23 358.35,-335 411,-335 411,-335 411,-335 1054,-335 1122.13,-335 1150.96,-327.03 1203,-371 1216.33,-382.26 1209.68,-394.34 1219.81,-409.96"/>
<polygon fill="black" stroke="black" points="1217.26,-412.38 1226.29,-417.93 1222.69,-407.96 1217.26,-412.38"/>
<text text-anchor="start" x="695" y="-338.8" font-family="arial" font-size="14.00" fill="#377eb8">true</text>
</g>
<!-- st023W -->
<g id="node10" class="node">
<title>st023W</title>
<polygon fill="none" stroke="black" points="473,-489 351,-489 351,-439 473,-439 473,-489"/>
<text text-anchor="start" x="387.5" y="-474.8" font-family="arial" font-weight="bold" font-size="14.00">st023W</text>
<text text-anchor="start" x="359" y="-460.8" font-family="arial" font-size="14.00" fill="#984ea3">(!Q &amp;&amp; (!R &amp;&amp; T))</text>
<text text-anchor="start" x="389" y="-446.8" font-family="arial" font-size="14.00" fill="#ff7f00">c0 &lt;= 5</text>
</g>
<!-- st01&#45;&gt;st023W -->
<g id="edge11" class="edge">
<title>st01&#45;&gt;st023W</title>
<path fill="none" stroke="black" d="M262.11,-436.03C271.1,-445.32 282.48,-454.85 295,-460 309.22,-465.85 325.26,-468.57 340.78,-469.5"/>
<polygon fill="black" stroke="black" points="340.76,-473 350.88,-469.87 341.02,-466.01 340.76,-473"/>
<text text-anchor="start" x="302" y="-486.8" font-family="arial" font-size="14.00" fill="#377eb8">true</text>
<text text-anchor="start" x="295" y="-471.8" font-family="arial" font-size="14.00">c0 :=0</text>
</g>
<!-- _st012 -->
<!-- _st012&#45;&gt;st012 -->
<g id="edge3" class="edge">
<title>_st012&#45;&gt;st012</title>
<path fill="none" stroke="black" d="M1776.79,-881.2C1816.96,-884.25 1891.51,-883.78 1938,-846 1988.36,-805.07 2006.31,-727.2 2012.64,-681.95"/>
<polygon fill="black" stroke="black" points="2016.11,-682.37 2013.91,-672.01 2009.17,-681.48 2016.11,-682.37"/>
</g>
<!-- st012&#45;&gt;st0 -->
<g id="edge21" class="edge">
<title>st012&#45;&gt;st0</title>
<path fill="none" stroke="black" d="M2015.01,-672.29C2011.74,-719.69 1997.73,-822.04 1938,-877 1874.3,-935.61 1835.56,-924 1749,-924 240,-924 240,-924 240,-924 134.76,-924 120,-755.27 118.66,-679.77"/>
<polygon fill="black" stroke="black" points="122.15,-679.3 118.55,-669.34 115.15,-679.38 122.15,-679.3"/>
<text text-anchor="start" x="933.5" y="-927.8" font-family="arial" font-size="14.00" fill="#377eb8">R&#39;</text>
</g>
<!-- st012&#45;&gt;st01 -->
<g id="edge24" class="edge">
<title>st012&#45;&gt;st01</title>
<path fill="none" stroke="black" d="M2014.37,-621.92C2008.52,-538.2 1986.31,-269.67 1938,-200 1882.49,-119.95 1846.42,-89 1749,-89 1177.5,-89 1177.5,-89 1177.5,-89 968.25,-89 917.25,-124 708,-124 411,-124 411,-124 411,-124 295.44,-124 257.31,-298.91 246.15,-375.64"/>
<polygon fill="black" stroke="black" points="242.65,-375.4 244.74,-385.78 249.58,-376.36 242.65,-375.4"/>
<text text-anchor="start" x="1041" y="-106.8" font-family="arial" font-size="14.00" fill="#377eb8">true</text>
</g>
<!-- st012&#45;&gt;st012 -->
<g id="edge25" class="edge">
<title>st012&#45;&gt;st012</title>
<path fill="none" stroke="black" d="M1991.97,-672.18C1990.86,-681.91 1999.2,-690 2017,-690 2028.12,-690 2035.55,-686.84 2039.29,-682.09"/>
<polygon fill="black" stroke="black" points="2042.74,-682.75 2042.03,-672.18 2035.99,-680.88 2042.74,-682.75"/>
<text text-anchor="start" x="2005" y="-693.8" font-family="arial" font-size="14.00" fill="#377eb8">true</text>
</g>
<!-- st012&#45;&gt;st02 -->
<g id="edge22" class="edge">
<title>st012&#45;&gt;st02</title>
<path fill="none" stroke="black" d="M1955.95,-651.25C1834.47,-656.93 1555.02,-654.88 1365,-536 1340.99,-520.98 1320.33,-496.46 1306.03,-476.37"/>
<polygon fill="black" stroke="black" points="1308.86,-474.31 1300.29,-468.07 1303.1,-478.29 1308.86,-474.31"/>
<text text-anchor="start" x="1638" y="-640.8" font-family="arial" font-size="14.00" fill="#377eb8">true</text>
</g>
<!-- st023X -->
<g id="node11" class="node">
<title>st023X</title>
<polygon fill="none" stroke="black" points="1809,-430 1687,-430 1687,-380 1809,-380 1809,-430"/>
<text text-anchor="start" x="1726" y="-415.8" font-family="arial" font-weight="bold" font-size="14.00">st023X</text>
<text text-anchor="start" x="1695" y="-401.8" font-family="arial" font-size="14.00" fill="#984ea3">(!Q &amp;&amp; (!R &amp;&amp; T))</text>
<text text-anchor="start" x="1725" y="-387.8" font-family="arial" font-size="14.00" fill="#ff7f00">c0 &lt;= 5</text>
</g>
<!-- st012&#45;&gt;st023X -->
<g id="edge23" class="edge">
<title>st012&#45;&gt;st023X</title>
<path fill="none" stroke="black" d="M2016.05,-621.92C2014.65,-572.94 2003.81,-465 1938,-415 1904.85,-389.82 1858.23,-387.11 1819.59,-390.8"/>
<polygon fill="black" stroke="black" points="1818.98,-387.35 1809.43,-391.93 1819.76,-394.3 1818.98,-387.35"/>
<text text-anchor="start" x="1870.5" y="-433.8" font-family="arial" font-size="14.00" fill="#377eb8">true</text>
<text text-anchor="start" x="1863.5" y="-418.8" font-family="arial" font-size="14.00">c0 :=0</text>
</g>
<!-- st0123X -->
<g id="node12" class="node">
<title>st0123X</title>
<polygon fill="none" stroke="black" points="1613,-502 1494,-502 1494,-452 1613,-452 1613,-502"/>
<text text-anchor="start" x="1527.5" y="-487.8" font-family="arial" font-weight="bold" font-size="14.00">st0123X</text>
<text text-anchor="start" x="1502" y="-473.8" font-family="arial" font-size="14.00" fill="#984ea3">(Q &amp;&amp; (!R &amp;&amp; T))</text>
<text text-anchor="start" x="1530.5" y="-459.8" font-family="arial" font-size="14.00" fill="#ff7f00">c0 &lt;= 5</text>
</g>
<!-- st012&#45;&gt;st0123X -->
<g id="edge26" class="edge">
<title>st012&#45;&gt;st0123X</title>
<path fill="none" stroke="black" d="M2001.5,-621.99C1987.77,-600.44 1965.22,-570.03 1938,-552 1887.25,-518.39 1719.19,-495.05 1623.23,-484.09"/>
<polygon fill="black" stroke="black" points="1623.37,-480.58 1613.04,-482.94 1622.59,-487.54 1623.37,-480.58"/>
<text text-anchor="start" x="1736" y="-529.8" font-family="arial" font-size="14.00" fill="#377eb8">true</text>
<text text-anchor="start" x="1729" y="-514.8" font-family="arial" font-size="14.00">c0 :=0</text>
</g>
<!-- _st0123W -->
<!-- _st0123W&#45;&gt;st0123W -->
<g id="edge4" class="edge">
<title>_st0123W&#45;&gt;st0123W</title>
<path fill="none" stroke="black" d="M451.03,-664.92C475.44,-658.46 507.84,-649.87 536.67,-642.24"/>
<polygon fill="black" stroke="black" points="537.93,-645.52 546.7,-639.58 536.13,-638.76 537.93,-645.52"/>
</g>
<!-- st0123W&#45;&gt;st0 -->
<g id="edge49" class="edge">
<title>st0123W&#45;&gt;st0</title>
<path fill="none" stroke="black" d="M573.11,-649.04C517.38,-689.03 399.3,-760.37 295,-735 242.38,-722.2 187.92,-690.73 153.78,-668.39"/>
<polygon fill="black" stroke="black" points="155.4,-665.26 145.13,-662.64 151.52,-671.09 155.4,-665.26"/>
<text text-anchor="start" x="307.5" y="-743.8" font-family="arial" font-size="14.00" fill="#377eb8">R&#39;</text>
</g>
<!-- st0123W&#45;&gt;st01 -->
<g id="edge53" class="edge">
<title>st0123W&#45;&gt;st01</title>
<path fill="none" stroke="black" d="M546.92,-624.41C482.39,-623.91 383.45,-620.06 351,-602 292.38,-569.38 262.88,-491.56 250.14,-445.95"/>
<polygon fill="black" stroke="black" points="253.5,-444.95 247.53,-436.19 246.73,-446.75 253.5,-444.95"/>
<text text-anchor="start" x="400" y="-625.8" font-family="arial" font-size="14.00" fill="#377eb8">true</text>
</g>
<!-- st0123W&#45;&gt;st012 -->
<g id="edge54" class="edge">
<title>st0123W&#45;&gt;st012</title>
<path fill="none" stroke="black" d="M666.13,-648.58C672.13,-650.85 678.16,-653.03 684,-655 997.41,-760.82 1088.71,-769 1419.5,-769 1419.5,-769 1419.5,-769 1749,-769 1837.4,-769 1859.85,-748.32 1938,-707 1952.62,-699.27 1967.34,-688.81 1979.98,-678.78"/>
<polygon fill="black" stroke="black" points="1982.42,-681.32 1987.98,-672.29 1978.01,-675.88 1982.42,-681.32"/>
<text text-anchor="start" x="1272" y="-771.8" font-family="arial" font-size="14.00" fill="#377eb8">true</text>
</g>
<!-- st0123W&#45;&gt;st0123W -->
<g id="edge55" class="edge">
<title>st0123W&#45;&gt;st0123W</title>
<path fill="none" stroke="black" d="M588.57,-649.18C587.77,-658.91 593.75,-667 606.5,-667 614.47,-667 619.79,-663.84 622.47,-659.09"/>
<polygon fill="black" stroke="black" points="625.92,-659.66 624.43,-649.18 619.06,-658.31 625.92,-659.66"/>
<text text-anchor="start" x="587.5" y="-670.8" font-family="arial" font-size="14.00" fill="#377eb8">c0 &lt; 5</text>
</g>
<!-- st0123W&#45;&gt;st02 -->
<g id="edge50" class="edge">
<title>st0123W&#45;&gt;st02</title>
<path fill="none" stroke="black" d="M644.36,-598.88C671.81,-581.29 710.81,-558.59 748,-545 907.22,-486.82 1105.82,-460.11 1210.55,-449.32"/>
<polygon fill="black" stroke="black" points="1211.1,-452.78 1220.7,-448.29 1210.4,-445.81 1211.1,-452.78"/>
<text text-anchor="start" x="928" y="-496.8" font-family="arial" font-size="14.00" fill="#377eb8">true</text>
</g>
<!-- st0123W&#45;&gt;st023W -->
<g id="edge51" class="edge">
<title>st0123W&#45;&gt;st023W</title>
<path fill="none" stroke="black" d="M570.82,-598.74C557.84,-589.5 542.87,-579.08 529,-570 512.48,-559.19 506.35,-559.42 491,-547 472.64,-532.14 454.43,-513.08 440.23,-496.97"/>
<polygon fill="black" stroke="black" points="442.8,-494.59 433.6,-489.33 437.51,-499.17 442.8,-494.59"/>
<text text-anchor="start" x="491" y="-573.8" font-family="arial" font-size="14.00" fill="#377eb8">c0 &lt; 5</text>
</g>
<!-- st023 -->
<g id="node13" class="node">
<title>st023</title>
<polygon fill="none" stroke="black" points="1136,-662 970,-662 970,-612 1136,-612 1136,-662"/>
<text text-anchor="start" x="1035.5" y="-647.8" font-family="arial" font-weight="bold" font-size="14.00">st023</text>
<text text-anchor="start" x="978" y="-633.8" font-family="arial" font-size="14.00" fill="#984ea3">(!Q &amp;&amp; (!R &amp;&amp; (S &amp;&amp; T)))</text>
<text text-anchor="start" x="1041" y="-619.8" font-family="arial" font-size="14.00" fill="#ff7f00">true</text>
</g>
<!-- st0123W&#45;&gt;st023 -->
<g id="edge52" class="edge">
<title>st0123W&#45;&gt;st023</title>
<path fill="none" stroke="black" d="M666.07,-635.03C691.2,-639.28 720.94,-643.67 748,-646 838.34,-653.79 861.49,-654.41 952,-649 954.56,-648.85 957.15,-648.67 959.77,-648.48"/>
<polygon fill="black" stroke="black" points="960.26,-651.95 969.94,-647.65 959.69,-644.97 960.26,-651.95"/>
<text text-anchor="start" x="806" y="-655.8" font-family="arial" font-size="14.00" fill="#377eb8">c0 &gt;= 5</text>
</g>
<!-- st0123 -->
<g id="node14" class="node">
<title>st0123</title>
<polygon fill="none" stroke="black" points="910,-604 748,-604 748,-554 910,-554 910,-604"/>
<text text-anchor="start" x="807.5" y="-589.8" font-family="arial" font-weight="bold" font-size="14.00">st0123</text>
<text text-anchor="start" x="756" y="-575.8" font-family="arial" font-size="14.00" fill="#984ea3">(Q &amp;&amp; (!R &amp;&amp; (S &amp;&amp; T)))</text>
<text text-anchor="start" x="817" y="-561.8" font-family="arial" font-size="14.00" fill="#ff7f00">true</text>
</g>
<!-- st0123W&#45;&gt;st0123 -->
<g id="edge56" class="edge">
<title>st0123W&#45;&gt;st0123</title>
<path fill="none" stroke="black" d="M666.01,-612.06C687.99,-607.57 713.52,-602.36 737.72,-597.43"/>
<polygon fill="black" stroke="black" points="738.53,-600.83 747.63,-595.4 737.13,-593.97 738.53,-600.83"/>
<text text-anchor="start" x="684" y="-611.8" font-family="arial" font-size="14.00" fill="#377eb8">c0 &gt;= 5</text>
</g>
<!-- st02&#45;&gt;st0 -->
<g id="edge15" class="edge">
<title>st02&#45;&gt;st0</title>
<path fill="none" stroke="black" d="M1225.37,-417.78C1223.81,-416.27 1222.35,-414.68 1221,-413 1199.27,-385.93 1225.5,-363.43 1203,-337 1127.74,-248.6 824.09,-170 708,-170 240,-170 240,-170 240,-170 149.48,-170 125.81,-498.61 120.43,-608.61"/>
<polygon fill="black" stroke="black" points="116.92,-608.7 119.95,-618.85 123.91,-609.02 116.92,-608.7"/>
<text text-anchor="start" x="600" y="-173.8" font-family="arial" font-size="14.00" fill="#377eb8">R&#39;</text>
</g>
<!-- st02&#45;&gt;st01 -->
<g id="edge18" class="edge">
<title>st02&#45;&gt;st01</title>
<path fill="none" stroke="black" d="M1220.75,-422.38C1152.8,-401.73 1040.39,-373 941,-373 411,-373 411,-373 411,-373 368.03,-373 320.37,-384.84 286.65,-395.3"/>
<polygon fill="black" stroke="black" points="285.56,-391.98 277.09,-398.35 287.68,-398.65 285.56,-391.98"/>
<text text-anchor="start" x="695" y="-376.8" font-family="arial" font-size="14.00" fill="#377eb8">true</text>
</g>
<!-- st02&#45;&gt;st012 -->
<g id="edge19" class="edge">
<title>st02&#45;&gt;st012</title>
<path fill="none" stroke="black" d="M1312.15,-468.1C1326.89,-480.63 1345.95,-495.17 1365,-505 1418.23,-532.47 1435.99,-529.1 1494,-544 1578.74,-565.77 1823.87,-611.72 1945.64,-634.14"/>
<polygon fill="black" stroke="black" points="1945.15,-637.61 1955.62,-635.98 1946.41,-630.72 1945.15,-637.61"/>
<text text-anchor="start" x="1638" y="-584.8" font-family="arial" font-size="14.00" fill="#377eb8">true</text>
</g>
<!-- st02&#45;&gt;st02 -->
<g id="edge16" class="edge">
<title>st02&#45;&gt;st02</title>
<path fill="none" stroke="black" d="M1264.58,-468.18C1263.71,-477.91 1270.19,-486 1284,-486 1292.63,-486 1298.4,-482.84 1301.3,-478.09"/>
<polygon fill="black" stroke="black" points="1304.75,-478.69 1303.42,-468.18 1297.91,-477.22 1304.75,-478.69"/>
<text text-anchor="start" x="1272" y="-489.8" font-family="arial" font-size="14.00" fill="#377eb8">true</text>
</g>
<!-- st02&#45;&gt;st023X -->
<g id="edge17" class="edge">
<title>st02&#45;&gt;st023X</title>
<path fill="none" stroke="black" d="M1347.38,-430.87C1353.33,-429.84 1359.27,-428.87 1365,-428 1422.07,-419.34 1436.44,-417.25 1494,-413 1555.6,-408.45 1625.84,-406.49 1676.65,-405.64"/>
<polygon fill="black" stroke="black" points="1676.92,-409.14 1686.86,-405.48 1676.81,-402.14 1676.92,-409.14"/>
<text text-anchor="start" x="1541.5" y="-431.8" font-family="arial" font-size="14.00" fill="#377eb8">true</text>
<text text-anchor="start" x="1534.5" y="-416.8" font-family="arial" font-size="14.00">c0 :=0</text>
</g>
<!-- st02&#45;&gt;st0123X -->
<g id="edge20" class="edge">
<title>st02&#45;&gt;st0123X</title>
<path fill="none" stroke="black" d="M1347.34,-456.11C1353.3,-457.17 1359.26,-458.15 1365,-459 1404.01,-464.76 1447.88,-469.09 1483.37,-472.05"/>
<polygon fill="black" stroke="black" points="1483.37,-475.56 1493.62,-472.89 1483.94,-468.59 1483.37,-475.56"/>
<text text-anchor="start" x="1408.5" y="-489.8" font-family="arial" font-size="14.00" fill="#377eb8">true</text>
<text text-anchor="start" x="1401.5" y="-474.8" font-family="arial" font-size="14.00">c0 :=0</text>
</g>
<!-- st023W&#45;&gt;st0 -->
<g id="edge27" class="edge">
<title>st023W&#45;&gt;st0</title>
<path fill="none" stroke="black" d="M369.98,-489.29C312.2,-524.9 207.88,-589.21 153.73,-622.59"/>
<polygon fill="black" stroke="black" points="151.85,-619.64 145.17,-627.87 155.52,-625.6 151.85,-619.64"/>
<text text-anchor="start" x="234.5" y="-592.8" font-family="arial" font-size="14.00" fill="#377eb8">R&#39;</text>
</g>
<!-- st023W&#45;&gt;st01 -->
<g id="edge31" class="edge">
<title>st023W&#45;&gt;st01</title>
<path fill="none" stroke="black" d="M350.73,-445.1C329.59,-438.47 306.24,-431.15 286.62,-424.99"/>
<polygon fill="black" stroke="black" points="287.61,-421.63 277.02,-421.98 285.51,-428.31 287.61,-421.63"/>
<text text-anchor="start" x="302" y="-442.8" font-family="arial" font-size="14.00" fill="#377eb8">true</text>
</g>
<!-- st023W&#45;&gt;st012 -->
<g id="edge32" class="edge">
<title>st023W&#45;&gt;st012</title>
<path fill="none" stroke="black" d="M442.48,-489.22C453.4,-499.91 465.06,-513.1 473,-527 487.9,-553.08 523.03,-768.9 547,-787 770.81,-956 1531.31,-822.25 1809,-783 1867.94,-774.67 1888.55,-780.13 1938,-747 1963.08,-730.2 1983.67,-702.71 1997.38,-680.8"/>
<polygon fill="black" stroke="black" points="2000.46,-682.47 2002.66,-672.1 1994.48,-678.84 2000.46,-682.47"/>
<text text-anchor="start" x="1166.5" y="-866.8" font-family="arial" font-size="14.00" fill="#377eb8">true</text>
</g>
<!-- st023W&#45;&gt;st0123W -->
<g id="edge33" class="edge">
<title>st023W&#45;&gt;st0123W</title>
<path fill="none" stroke="black" d="M456.36,-489.1C488.66,-507.85 527.45,-530.49 529,-532 539.86,-542.59 537.8,-548.94 547,-561 554.93,-571.39 564.28,-582.05 573.16,-591.57"/>
<polygon fill="black" stroke="black" points="570.71,-594.08 580.13,-598.94 575.8,-589.27 570.71,-594.08"/>
<text text-anchor="start" x="491" y="-535.8" font-family="arial" font-size="14.00" fill="#377eb8">c0 &lt; 5</text>
</g>
<!-- st023W&#45;&gt;st02 -->
<g id="edge28" class="edge">
<title>st023W&#45;&gt;st02</title>
<path fill="none" stroke="black" d="M473.04,-462.45C479.11,-462.3 485.18,-462.14 491,-462 785.66,-454.67 859.33,-452.98 1154,-446 1172.42,-445.56 1192.33,-445.1 1210.86,-444.67"/>
<polygon fill="black" stroke="black" points="1211.08,-448.16 1220.99,-444.43 1210.92,-441.16 1211.08,-448.16"/>
<text text-anchor="start" x="817" y="-458.8" font-family="arial" font-size="14.00" fill="#377eb8">true</text>
</g>
<!-- st023W&#45;&gt;st023W -->
<g id="edge29" class="edge">
<title>st023W&#45;&gt;st023W</title>
<path fill="none" stroke="black" d="M393.7,-489.18C392.88,-498.91 398.98,-507 412,-507 420.13,-507 425.57,-503.84 428.3,-499.09"/>
<polygon fill="black" stroke="black" points="431.76,-499.67 430.3,-489.18 424.89,-498.29 431.76,-499.67"/>
<text text-anchor="start" x="393" y="-510.8" font-family="arial" font-size="14.00" fill="#377eb8">c0 &lt; 5</text>
</g>
<!-- st023W&#45;&gt;st023 -->
<g id="edge30" class="edge">
<title>st023W&#45;&gt;st023</title>
<path fill="none" stroke="black" d="M473.27,-465.72C568.98,-470.21 760.18,-486.43 910,-545 947.69,-559.73 985.93,-585.25 1013.22,-605.68"/>
<polygon fill="black" stroke="black" points="1011.24,-608.57 1021.32,-611.84 1015.48,-603 1011.24,-608.57"/>
<text text-anchor="start" x="684" y="-497.8" font-family="arial" font-size="14.00" fill="#377eb8">c0 &gt;= 5</text>
</g>
<!-- st023W&#45;&gt;st0123 -->
<g id="edge34" class="edge">
<title>st023W&#45;&gt;st0123</title>
<path fill="none" stroke="black" d="M473.3,-481.81C496.33,-488.55 522.86,-496.22 547,-503 610.8,-520.91 682.97,-540.41 738.19,-555.18"/>
<polygon fill="black" stroke="black" points="737.38,-558.58 747.95,-557.78 739.19,-551.82 737.38,-558.58"/>
<text text-anchor="start" x="583.5" y="-537.8" font-family="arial" font-size="14.00" fill="#377eb8">c0 &gt;= 5</text>
</g>
<!-- st023X&#45;&gt;st0 -->
<g id="edge35" class="edge">
<title>st023X&#45;&gt;st0</title>
<path fill="none" stroke="black" d="M1726.47,-379.64C1672.42,-315.01 1518.52,-144.35 1347,-75 1179.19,-7.15 1122,-43 941,-43 240,-43 240,-43 240,-43 188.36,-43 183.21,-82.48 163,-130 126.18,-216.57 120.16,-507.16 119.19,-608.65"/>
<polygon fill="black" stroke="black" points="115.69,-608.67 119.1,-618.7 122.69,-608.73 115.69,-608.67"/>
<text text-anchor="start" x="822.5" y="-46.8" font-family="arial" font-size="14.00" fill="#377eb8">R&#39;</text>
</g>
<!-- st023X&#45;&gt;st01 -->
<g id="edge39" class="edge">
<title>st023X&#45;&gt;st01</title>
<path fill="none" stroke="black" d="M1686.64,-389.03C1680.7,-387.6 1674.74,-386.23 1669,-385 1433.91,-334.43 1374.36,-323.75 1136,-292 851.78,-254.14 777.52,-266.8 491,-278 486.17,-278.19 337.87,-269.36 295,-306 273.64,-324.26 259.92,-353.23 251.81,-376.13"/>
<polygon fill="black" stroke="black" points="248.42,-375.24 248.57,-385.83 255.06,-377.46 248.42,-375.24"/>
<text text-anchor="start" x="928" y="-275.8" font-family="arial" font-size="14.00" fill="#377eb8">true</text>
</g>
<!-- st023X&#45;&gt;st012 -->
<g id="edge40" class="edge">
<title>st023X&#45;&gt;st012</title>
<path fill="none" stroke="black" d="M1793.53,-430.19C1804.26,-435.6 1815.86,-440.91 1827,-445 1874.56,-462.47 1898.98,-438.68 1938,-471 1981.33,-506.89 2001.4,-571.69 2010.07,-611.85"/>
<polygon fill="black" stroke="black" points="2006.66,-612.64 2012.08,-621.75 2013.52,-611.25 2006.66,-612.64"/>
<text text-anchor="start" x="1827" y="-474.8" font-family="arial" font-size="14.00" fill="#377eb8">(R&#39; || (S&#39; || c0 &lt; 5))</text>
</g>
<!-- st023X&#45;&gt;st02 -->
<g id="edge36" class="edge">
<title>st023X&#45;&gt;st02</title>
<path fill="none" stroke="black" d="M1686.79,-395.72C1663.76,-392.6 1637.22,-389.53 1613,-388 1502.57,-381.02 1471.34,-379.41 1365,-410 1360.37,-411.33 1355.65,-412.85 1350.92,-414.48"/>
<polygon fill="black" stroke="black" points="1349.47,-411.28 1341.26,-417.97 1351.85,-417.87 1349.47,-411.28"/>
<text text-anchor="start" x="1498" y="-391.8" font-family="arial" font-size="14.00" fill="#377eb8">(R&#39; || (S&#39; || c0 &lt; 5))</text>
</g>
<!-- st023X&#45;&gt;st023X -->
<g id="edge37" class="edge">
<title>st023X&#45;&gt;st023X</title>
<path fill="none" stroke="black" d="M1729.7,-430.18C1728.88,-439.91 1734.98,-448 1748,-448 1756.13,-448 1761.57,-444.84 1764.3,-440.09"/>
<polygon fill="black" stroke="black" points="1767.76,-440.67 1766.3,-430.18 1760.89,-439.29 1767.76,-440.67"/>
<text text-anchor="start" x="1729" y="-451.8" font-family="arial" font-size="14.00" fill="#377eb8">c0 &lt; 5</text>
</g>
<!-- st023X&#45;&gt;st0123X -->
<g id="edge41" class="edge">
<title>st023X&#45;&gt;st0123X</title>
<path fill="none" stroke="black" d="M1710.99,-430.07C1698.2,-438.04 1683.4,-446.27 1669,-452 1654.58,-457.74 1638.58,-462.28 1623.23,-465.82"/>
<polygon fill="black" stroke="black" points="1622.28,-462.45 1613.26,-468.01 1623.78,-469.28 1622.28,-462.45"/>
<text text-anchor="start" x="1631" y="-466.8" font-family="arial" font-size="14.00" fill="#377eb8">c0 &lt; 5</text>
</g>
<!-- st023X&#45;&gt;st023 -->
<g id="edge38" class="edge">
<title>st023X&#45;&gt;st023</title>
<path fill="none" stroke="black" d="M1727.29,-430.03C1702.84,-459.9 1658.77,-510.06 1613,-544 1558.08,-584.73 1541.13,-593.19 1476,-614 1366.75,-648.91 1233.59,-649.76 1146.44,-645.13"/>
<polygon fill="black" stroke="black" points="1146.49,-641.63 1136.31,-644.56 1146.09,-648.62 1146.49,-641.63"/>
<text text-anchor="start" x="1397.5" y="-640.8" font-family="arial" font-size="14.00" fill="#377eb8">c0 &gt;= 5</text>
</g>
<!-- st023X&#45;&gt;st0123 -->
<g id="edge42" class="edge">
<title>st023X&#45;&gt;st0123</title>
<path fill="none" stroke="black" d="M1686.98,-407.72C1663.86,-408.64 1637.21,-409.55 1613,-410 1560.12,-410.99 1546.81,-412.87 1494,-410 1372.64,-403.41 1339.59,-367.36 1221,-394 1088.37,-423.79 947.82,-503.94 876.86,-548.34"/>
<polygon fill="black" stroke="black" points="874.73,-545.55 868.14,-553.84 878.47,-551.47 874.73,-545.55"/>
<text text-anchor="start" x="1261" y="-397.8" font-family="arial" font-size="14.00" fill="#377eb8">c0 &gt;= 5</text>
</g>
<!-- st0123X&#45;&gt;st0 -->
<g id="edge57" class="edge">
<title>st0123X&#45;&gt;st0</title>
<path fill="none" stroke="black" d="M1498.18,-451.56C1496.7,-450.11 1495.29,-448.6 1494,-447 1474.84,-423.39 1493.82,-405.64 1476,-381 1369.8,-234.18 1304.72,-222.09 1136,-156 1046.26,-120.85 804.37,-86 708,-86 240,-86 240,-86 240,-86 132.59,-86 120.32,-485.86 119.09,-608.6"/>
<polygon fill="black" stroke="black" points="115.58,-608.91 119,-618.94 122.58,-608.97 115.58,-608.91"/>
<text text-anchor="start" x="700.5" y="-89.8" font-family="arial" font-size="14.00" fill="#377eb8">R&#39;</text>
</g>
<!-- st0123X&#45;&gt;st01 -->
<g id="edge61" class="edge">
<title>st0123X&#45;&gt;st01</title>
<path fill="none" stroke="black" d="M1501.14,-451.98C1498.68,-450.37 1496.28,-448.71 1494,-447 1484.69,-440.02 1485.7,-434.42 1476,-428 1424.98,-394.25 1405.01,-399.43 1347,-380 1075.16,-288.95 994.68,-292 708,-292 411,-292 411,-292 411,-292 355.54,-292 338.81,-303.99 295,-338 281.4,-348.56 269.71,-363.51 260.79,-377.13"/>
<polygon fill="black" stroke="black" points="257.69,-375.5 255.34,-385.83 263.62,-379.22 257.69,-375.5"/>
<text text-anchor="start" x="817" y="-296.8" font-family="arial" font-size="14.00" fill="#377eb8">true</text>
</g>
<!-- st0123X&#45;&gt;st012 -->
<g id="edge62" class="edge">
<title>st0123X&#45;&gt;st012</title>
<path fill="none" stroke="black" d="M1596.78,-502.05C1622.19,-516.16 1655.59,-533.09 1687,-544 1794.53,-581.35 1832.9,-551.28 1938,-595 1951.18,-600.48 1964.48,-608.31 1976.28,-616.24"/>
<polygon fill="black" stroke="black" points="1974.37,-619.17 1984.58,-621.99 1978.36,-613.42 1974.37,-619.17"/>
<text text-anchor="start" x="1692.5" y="-569.8" font-family="arial" font-size="14.00" fill="#377eb8">(R&#39; || (S&#39; || c0 &lt; 5))</text>
</g>
<!-- st0123X&#45;&gt;st02 -->
<g id="edge58" class="edge">
<title>st0123X&#45;&gt;st02</title>
<path fill="none" stroke="black" d="M1509.25,-451.94C1498.7,-447.01 1487.22,-442.57 1476,-440 1437.6,-431.2 1393.72,-431.21 1357.71,-433.75"/>
<polygon fill="black" stroke="black" points="1356.98,-430.3 1347.29,-434.57 1357.53,-437.28 1356.98,-430.3"/>
<text text-anchor="start" x="1365" y="-443.8" font-family="arial" font-size="14.00" fill="#377eb8">(R&#39; || (S&#39; || c0 &lt; 5))</text>
</g>
<!-- st0123X&#45;&gt;st023X -->
<g id="edge59" class="edge">
<title>st0123X&#45;&gt;st023X</title>
<path fill="none" stroke="black" d="M1593.13,-451.93C1604.93,-445.06 1618.19,-438.11 1631,-433 1645.52,-427.21 1661.56,-422.4 1676.97,-418.5"/>
<polygon fill="black" stroke="black" points="1678.09,-421.83 1686.97,-416.06 1676.43,-415.02 1678.09,-421.83"/>
<text text-anchor="start" x="1631" y="-436.8" font-family="arial" font-size="14.00" fill="#377eb8">c0 &lt; 5</text>
</g>
<!-- st0123X&#45;&gt;st0123X -->
<g id="edge63" class="edge">
<title>st0123X&#45;&gt;st0123X</title>
<path fill="none" stroke="black" d="M1535.57,-502.18C1534.77,-511.91 1540.75,-520 1553.5,-520 1561.47,-520 1566.79,-516.84 1569.47,-512.09"/>
<polygon fill="black" stroke="black" points="1572.92,-512.66 1571.43,-502.18 1566.06,-511.31 1572.92,-512.66"/>
<text text-anchor="start" x="1534.5" y="-523.8" font-family="arial" font-size="14.00" fill="#377eb8">c0 &lt; 5</text>
</g>
<!-- st0123X&#45;&gt;st023 -->
<g id="edge60" class="edge">
<title>st0123X&#45;&gt;st023</title>
<path fill="none" stroke="black" d="M1543.06,-502.03C1531.58,-528.71 1509.48,-569.82 1476,-590 1427.18,-619.43 1277.65,-611.67 1221,-618 1196.89,-620.69 1170.84,-623.64 1146.63,-626.4"/>
<polygon fill="black" stroke="black" points="1145.93,-622.95 1136.39,-627.56 1146.72,-629.91 1145.93,-622.95"/>
<text text-anchor="start" x="1261" y="-621.8" font-family="arial" font-size="14.00" fill="#377eb8">c0 &gt;= 5</text>
</g>
<!-- st0123X&#45;&gt;st0123 -->
<g id="edge64" class="edge">
<title>st0123X&#45;&gt;st0123</title>
<path fill="none" stroke="black" d="M1493.98,-499.74C1487.96,-501.68 1481.89,-503.48 1476,-505 1335.76,-541.18 1293.87,-517.42 1154,-555 1145.71,-557.23 1144.39,-560.18 1136,-562 1064.57,-577.46 981.7,-581.23 920.23,-581.39"/>
<polygon fill="black" stroke="black" points="920.17,-577.89 910.17,-581.39 920.17,-584.89 920.17,-577.89"/>
<text text-anchor="start" x="1155.5" y="-558.8" font-family="arial" font-size="14.00" fill="#377eb8">c0 &gt;= 5</text>
</g>
<!-- st023&#45;&gt;st0 -->
<g id="edge43" class="edge">
<title>st023&#45;&gt;st0</title>
<path fill="none" stroke="black" d="M1023.89,-662.11C996.63,-685.16 953.18,-718.58 910,-738 577.44,-887.56 590.86,-825.51 473,-838 335.54,-852.56 247,-922.77 163,-813 133.07,-773.88 123.41,-716.35 120.34,-679.53"/>
<polygon fill="black" stroke="black" points="123.81,-679 119.61,-669.27 116.83,-679.49 123.81,-679"/>
<text text-anchor="start" x="503.5" y="-839.8" font-family="arial" font-size="14.00" fill="#377eb8">R&#39;</text>
</g>
<!-- st023&#45;&gt;st01 -->
<g id="edge46" class="edge">
<title>st023&#45;&gt;st01</title>
<path fill="none" stroke="black" d="M1001.28,-662.19C877.29,-719.78 554.15,-845.5 351,-702 302.93,-668.04 316.21,-636.9 295,-582 277.16,-535.82 261.01,-480.91 251.34,-446.01"/>
<polygon fill="black" stroke="black" points="254.7,-445 248.67,-436.29 247.94,-446.86 254.7,-445"/>
<text text-anchor="start" x="594.5" y="-771.8" font-family="arial" font-size="14.00" fill="#377eb8">true</text>
</g>
<!-- st023&#45;&gt;st012 -->
<g id="edge47" class="edge">
<title>st023&#45;&gt;st012</title>
<path fill="none" stroke="black" d="M1133.43,-662.05C1177.11,-673.69 1232.53,-685 1283,-685 1283,-685 1283,-685 1749,-685 1833.42,-685 1854.79,-680.25 1938,-666 1940.52,-665.57 1943.09,-665.1 1945.67,-664.6"/>
<polygon fill="black" stroke="black" points="1946.6,-667.99 1955.71,-662.56 1945.21,-661.13 1946.6,-667.99"/>
<text text-anchor="start" x="1529" y="-688.8" font-family="arial" font-size="14.00" fill="#377eb8">(R&#39; || S&#39;)</text>
</g>
<!-- st023&#45;&gt;st02 -->
<g id="edge44" class="edge">
<title>st023&#45;&gt;st02</title>
<path fill="none" stroke="black" d="M1115.76,-611.89C1155.06,-595.75 1199.28,-577.21 1203,-574 1233.56,-547.66 1255.95,-506.67 1269.15,-477.55"/>
<polygon fill="black" stroke="black" points="1272.45,-478.74 1273.27,-468.18 1266.04,-475.92 1272.45,-478.74"/>
<text text-anchor="start" x="1154" y="-598.8" font-family="arial" font-size="14.00" fill="#377eb8">(R&#39; || S&#39;)</text>
</g>
<!-- st023&#45;&gt;st023 -->
<g id="edge45" class="edge">
<title>st023&#45;&gt;st023</title>
<path fill="none" stroke="black" d="M1032.08,-662.18C1031.15,-671.91 1038.12,-680 1053,-680 1062.3,-680 1068.51,-676.84 1071.63,-672.09"/>
<polygon fill="black" stroke="black" points="1075.08,-672.71 1073.92,-662.18 1068.26,-671.13 1075.08,-672.71"/>
<text text-anchor="start" x="1041" y="-683.8" font-family="arial" font-size="14.00" fill="#377eb8">true</text>
</g>
<!-- st023&#45;&gt;st0123 -->
<g id="edge48" class="edge">
<title>st023&#45;&gt;st0123</title>
<path fill="none" stroke="black" d="M969.9,-633.05C955.77,-631.24 941.35,-628.66 928,-625 913.42,-621 898.33,-614.97 884.48,-608.59"/>
<polygon fill="black" stroke="black" points="885.65,-605.27 875.12,-604.13 882.64,-611.59 885.65,-605.27"/>
<text text-anchor="start" x="928" y="-633.8" font-family="arial" font-size="14.00" fill="#377eb8">true</text>
</g>
<!-- st0123&#45;&gt;st0 -->
<g id="edge65" class="edge">
<title>st0123&#45;&gt;st0</title>
<path fill="none" stroke="black" d="M792.12,-604.17C777.71,-615.04 761.38,-628.38 748,-642 705.76,-684.99 715.65,-715.83 666,-750 541.34,-835.79 483.87,-809.22 333,-821 256.43,-826.98 218.97,-842.6 163,-790 132.54,-761.37 122.91,-712.51 120.01,-679.27"/>
<polygon fill="black" stroke="black" points="123.49,-678.8 119.29,-669.07 116.51,-679.29 123.49,-678.8"/>
<text text-anchor="start" x="405.5" y="-822.8" font-family="arial" font-size="14.00" fill="#377eb8">R&#39;</text>
</g>
<!-- st0123&#45;&gt;st01 -->
<g id="edge68" class="edge">
<title>st0123&#45;&gt;st01</title>
<path fill="none" stroke="black" d="M780.82,-553.9C748.86,-537.35 705.42,-515.71 666,-499 582.13,-463.44 562.04,-449.23 473,-430 409.56,-416.3 334.35,-412.32 287.4,-411.25"/>
<polygon fill="black" stroke="black" points="287.31,-407.75 277.25,-411.06 287.18,-414.75 287.31,-407.75"/>
<text text-anchor="start" x="498" y="-446.8" font-family="arial" font-size="14.00" fill="#377eb8">true</text>
</g>
<!-- st0123&#45;&gt;st012 -->
<g id="edge69" class="edge">
<title>st0123&#45;&gt;st012</title>
<path fill="none" stroke="black" d="M863.9,-604.08C878.46,-615.26 895.44,-628.85 910,-642 938.46,-667.7 934.69,-689.04 970,-704 1141.66,-776.76 1622.84,-709.3 1809,-699 1866.45,-695.82 1882.77,-704.15 1938,-688 1947.58,-685.2 1957.35,-681.16 1966.58,-676.7"/>
<polygon fill="black" stroke="black" points="1968.26,-679.77 1975.6,-672.13 1965.1,-673.52 1968.26,-679.77"/>
<text text-anchor="start" x="1396" y="-736.8" font-family="arial" font-size="14.00" fill="#377eb8">(R&#39; || S&#39;)</text>
</g>
<!-- st0123&#45;&gt;st02 -->
<g id="edge66" class="edge">
<title>st0123&#45;&gt;st02</title>
<path fill="none" stroke="black" d="M910.24,-560.23C929.77,-555.78 950.61,-551.13 970,-547 1073.24,-525.02 1106.24,-543.18 1203,-501 1218.35,-494.31 1233.63,-484.29 1246.65,-474.45"/>
<polygon fill="black" stroke="black" points="1249.13,-476.95 1254.87,-468.04 1244.83,-471.43 1249.13,-476.95"/>
<text text-anchor="start" x="1028.5" y="-550.8" font-family="arial" font-size="14.00" fill="#377eb8">(R&#39; || S&#39;)</text>
</g>
<!-- st0123&#45;&gt;st023 -->
<g id="edge67" class="edge">
<title>st0123&#45;&gt;st023</title>
<path fill="none" stroke="black" d="M910.29,-595.78C924.25,-598.97 938.58,-602.44 952,-606 955.8,-607.01 959.66,-608.06 963.56,-609.16"/>
<polygon fill="black" stroke="black" points="962.72,-612.56 973.3,-611.93 964.64,-605.82 962.72,-612.56"/>
<text text-anchor="start" x="928" y="-609.8" font-family="arial" font-size="14.00" fill="#377eb8">true</text>
</g>
<!-- st0123&#45;&gt;st0123 -->
<g id="edge70" class="edge">
<title>st0123&#45;&gt;st0123</title>
<path fill="none" stroke="black" d="M808.46,-604.18C807.54,-613.91 814.39,-622 829,-622 838.13,-622 844.23,-618.84 847.3,-614.09"/>
<polygon fill="black" stroke="black" points="850.75,-614.7 849.54,-604.18 843.92,-613.15 850.75,-614.7"/>
<text text-anchor="start" x="817" y="-625.8" font-family="arial" font-size="14.00" fill="#377eb8">true</text>
</g>
</g>
</svg>
