<?xml version="1.0" encoding="UTF-8" standalone="no"?>
<!DOCTYPE svg PUBLIC "-//W3C//DTD SVG 1.1//EN"
 "http://www.w3.org/Graphics/SVG/1.1/DTD/svg11.dtd">
<!-- Generated by graphviz version 2.43.0 (0)
 -->
<!-- Title: G Pages: 1 -->
<svg width="845pt" height="357pt"
 viewBox="0.00 0.00 845.00 357.00" xmlns="http://www.w3.org/2000/svg" xmlns:xlink="http://www.w3.org/1999/xlink">
<g id="graph0" class="graph" transform="scale(1 1) rotate(0) translate(4 353)">
<title>G</title>
<polygon fill="white" stroke="transparent" points="-4,4 -4,-353 841,-353 841,4 -4,4"/>
<!-- _stinit -->
<!-- stinit -->
<g id="node2" class="node">
<title>stinit</title>
<polygon fill="none" stroke="black" points="710,-316 656,-316 656,-266 710,-266 710,-316"/>
<text text-anchor="start" x="666.5" y="-301.8" font-family="arial" font-weight="bold" font-size="14.00">stinit</text>
<text text-anchor="start" x="677" y="-287.8" font-family="arial" font-size="14.00" fill="#984ea3">Q</text>
<text text-anchor="start" x="671" y="-273.8" font-family="arial" font-size="14.00" fill="#ff7f00">true</text>
</g>
<!-- _stinit&#45;&gt;stinit -->
<g id="edge1" class="edge">
<title>_stinit&#45;&gt;stinit</title>
<path fill="none" stroke="black" d="M572.22,-291C593.11,-291 622.57,-291 645.72,-291"/>
<polygon fill="black" stroke="black" points="645.86,-294.5 655.86,-291 645.86,-287.5 645.86,-294.5"/>
</g>
<!-- stinit&#45;&gt;stinit -->
<g id="edge5" class="edge">
<title>stinit&#45;&gt;stinit</title>
<path fill="none" stroke="black" d="M669.93,-316.18C669.35,-325.91 673.7,-334 683,-334 688.81,-334 692.69,-330.84 694.64,-326.09"/>
<polygon fill="black" stroke="black" points="698.11,-326.57 696.07,-316.18 691.18,-325.57 698.11,-326.57"/>
<text text-anchor="start" x="671" y="-337.8" font-family="arial" font-size="14.00" fill="#377eb8">true</text>
</g>
<!-- st -->
<g id="node7" class="node">
<title>st</title>
<polygon fill="none" stroke="black" points="837,-195 783,-195 783,-145 837,-145 837,-195"/>
<text text-anchor="start" x="803.5" y="-180.8" font-family="arial" font-weight="bold" font-size="14.00">st</text>
<text text-anchor="start" x="798" y="-166.8" font-family="arial" font-size="14.00" fill="#984ea3">true</text>
<text text-anchor="start" x="798" y="-152.8" font-family="arial" font-size="14.00" fill="#ff7f00">true</text>
</g>
<!-- stinit&#45;&gt;st -->
<g id="edge4" class="edge">
<title>stinit&#45;&gt;st</title>
<path fill="none" stroke="black" d="M710.22,-283.14C727.44,-276.91 749.55,-266.79 765,-252 778.63,-238.96 788.98,-220.75 796.21,-204.81"/>
<polygon fill="black" stroke="black" points="799.58,-205.81 800.3,-195.24 793.15,-203.05 799.58,-205.81"/>
<text text-anchor="start" x="741" y="-272.8" font-family="arial" font-size="14.00" fill="#377eb8">true</text>
</g>
<!-- _st0 -->
<!-- st0 -->
<g id="node4" class="node">
<title>st0</title>
<polygon fill="none" stroke="black" points="171,-50 91,-50 91,0 171,0 171,-50"/>
<text text-anchor="start" x="121" y="-35.8" font-family="arial" font-weight="bold" font-size="14.00">st0</text>
<text text-anchor="start" x="99" y="-21.8" font-family="arial" font-size="14.00" fill="#984ea3">(!Q &amp;&amp; !R)</text>
<text text-anchor="start" x="119" y="-7.8" font-family="arial" font-size="14.00" fill="#ff7f00">true</text>
</g>
<!-- _st0&#45;&gt;st0 -->
<g id="edge2" class="edge">
<title>_st0&#45;&gt;st0</title>
<path fill="none" stroke="black" d="M54,-25C62.24,-25 71.63,-25 80.93,-25"/>
<polygon fill="black" stroke="black" points="80.94,-28.5 90.94,-25 80.94,-21.5 80.94,-28.5"/>
</g>
<!-- st0&#45;&gt;st0 -->
<g id="edge8" class="edge">
<title>st0&#45;&gt;st0</title>
<path fill="none" stroke="black" d="M120.17,-50.18C119.69,-59.91 123.3,-68 131,-68 135.69,-68 138.87,-65 140.52,-60.45"/>
<polygon fill="black" stroke="black" points="144.04,-60.54 141.83,-50.18 137.1,-59.65 144.04,-60.54"/>
<text text-anchor="start" x="119" y="-71.8" font-family="arial" font-size="14.00" fill="#377eb8">true</text>
</g>
<!-- st01 -->
<g id="node6" class="node">
<title>st01</title>
<polygon fill="none" stroke="black" points="307,-166 231,-166 231,-116 307,-116 307,-166"/>
<text text-anchor="start" x="255" y="-151.8" font-family="arial" font-weight="bold" font-size="14.00">st01</text>
<text text-anchor="start" x="239" y="-137.8" font-family="arial" font-size="14.00" fill="#984ea3">(!Q &amp;&amp; R)</text>
<text text-anchor="start" x="257" y="-123.8" font-family="arial" font-size="14.00" fill="#ff7f00">true</text>
</g>
<!-- st0&#45;&gt;st01 -->
<g id="edge9" class="edge">
<title>st0&#45;&gt;st01</title>
<path fill="none" stroke="black" d="M161.51,-50.17C181.83,-67.5 208.98,-90.66 230.78,-109.25"/>
<polygon fill="black" stroke="black" points="228.67,-112.05 238.55,-115.88 233.21,-106.73 228.67,-112.05"/>
<text text-anchor="start" x="189" y="-96.8" font-family="arial" font-size="14.00" fill="#377eb8">true</text>
</g>
<!-- st0&#45;&gt;st -->
<g id="edge7" class="edge">
<title>st0&#45;&gt;st</title>
<path fill="none" stroke="black" d="M171.28,-14.78C198.28,-8.64 235.07,-2 268,-2 268,-2 268,-2 684,-2 749.81,-2 785.05,-86.01 800.05,-135.21"/>
<polygon fill="black" stroke="black" points="796.7,-136.23 802.87,-144.85 803.42,-134.27 796.7,-136.23"/>
<text text-anchor="start" x="469.5" y="-5.8" font-family="arial" font-size="14.00" fill="#377eb8">Q&#39;</text>
</g>
<!-- _st01 -->
<!-- _st01&#45;&gt;st01 -->
<g id="edge3" class="edge">
<title>_st01&#45;&gt;st01</title>
<path fill="none" stroke="black" d="M158.22,-141C175.93,-141 199.82,-141 220.78,-141"/>
<polygon fill="black" stroke="black" points="220.8,-144.5 230.8,-141 220.8,-137.5 220.8,-144.5"/>
</g>
<!-- st01&#45;&gt;st01 -->
<g id="edge12" class="edge">
<title>st01&#45;&gt;st01</title>
<path fill="none" stroke="black" d="M256.3,-166.18C255.74,-175.91 259.97,-184 269,-184 274.64,-184 278.41,-180.84 280.31,-176.09"/>
<polygon fill="black" stroke="black" points="283.78,-176.56 281.7,-166.18 276.85,-175.59 283.78,-176.56"/>
<text text-anchor="start" x="257" y="-187.8" font-family="arial" font-size="14.00" fill="#377eb8">true</text>
</g>
<!-- st01&#45;&gt;st -->
<g id="edge10" class="edge">
<title>st01&#45;&gt;st</title>
<path fill="none" stroke="black" d="M288.83,-166.23C312.64,-194.97 356.55,-238 406,-238 406,-238 406,-238 684,-238 717.81,-238 751.2,-218.56 774.95,-200.47"/>
<polygon fill="black" stroke="black" points="777.26,-203.11 782.93,-194.17 772.92,-197.62 777.26,-203.11"/>
<text text-anchor="start" x="537.5" y="-241.8" font-family="arial" font-size="14.00" fill="#377eb8">Q&#39;</text>
</g>
<!-- st02 -->
<g id="node8" class="node">
<title>st02</title>
<polygon fill="none" stroke="black" points="447,-166 367,-166 367,-116 447,-116 447,-166"/>
<text text-anchor="start" x="393" y="-151.8" font-family="arial" font-weight="bold" font-size="14.00">st02</text>
<text text-anchor="start" x="375" y="-137.8" font-family="arial" font-size="14.00" fill="#984ea3">(!Q &amp;&amp; !R)</text>
<text text-anchor="start" x="395" y="-123.8" font-family="arial" font-size="14.00" fill="#ff7f00">true</text>
</g>
<!-- st01&#45;&gt;st02 -->
<g id="edge11" class="edge">
<title>st01&#45;&gt;st02</title>
<path fill="none" stroke="black" d="M307.16,-141C322.39,-141 340.23,-141 356.53,-141"/>
<polygon fill="black" stroke="black" points="356.98,-144.5 366.98,-141 356.98,-137.5 356.98,-144.5"/>
<text text-anchor="start" x="325" y="-144.8" font-family="arial" font-size="14.00" fill="#377eb8">true</text>
</g>
<!-- st&#45;&gt;st -->
<g id="edge6" class="edge">
<title>st&#45;&gt;st</title>
<path fill="none" stroke="black" d="M799.54,-195.18C799.08,-204.91 802.56,-213 810,-213 814.53,-213 817.6,-210 819.2,-205.45"/>
<polygon fill="black" stroke="black" points="822.71,-205.53 820.46,-195.18 815.76,-204.67 822.71,-205.53"/>
<text text-anchor="start" x="798" y="-216.8" font-family="arial" font-size="14.00" fill="#377eb8">true</text>
</g>
<!-- st02&#45;&gt;st -->
<g id="edge13" class="edge">
<title>st02&#45;&gt;st</title>
<path fill="none" stroke="black" d="M447.29,-156.83C465.19,-163.22 486.84,-169.82 507,-173 601.88,-187.95 715.62,-179.97 772.64,-174.22"/>
<polygon fill="black" stroke="black" points="773.35,-177.66 782.93,-173.14 772.62,-170.7 773.35,-177.66"/>
<text text-anchor="start" x="605.5" y="-184.8" font-family="arial" font-size="14.00" fill="#377eb8">Q&#39;</text>
</g>
<!-- st02&#45;&gt;st02 -->
<g id="edge14" class="edge">
<title>st02&#45;&gt;st02</title>
<path fill="none" stroke="black" d="M393.93,-166.18C393.35,-175.91 397.7,-184 407,-184 412.81,-184 416.69,-180.84 418.64,-176.09"/>
<polygon fill="black" stroke="black" points="422.11,-176.57 420.07,-166.18 415.18,-175.57 422.11,-176.57"/>
<text text-anchor="start" x="395" y="-187.8" font-family="arial" font-size="14.00" fill="#377eb8">true</text>
</g>
<!-- st013 -->
<g id="node9" class="node">
<title>st013</title>
<polygon fill="none" stroke="black" points="583,-131 507,-131 507,-81 583,-81 583,-131"/>
<text text-anchor="start" x="527.5" y="-116.8" font-family="arial" font-weight="bold" font-size="14.00">st013</text>
<text text-anchor="start" x="515" y="-102.8" font-family="arial" font-size="14.00" fill="#984ea3">(!Q &amp;&amp; R)</text>
<text text-anchor="start" x="533" y="-88.8" font-family="arial" font-size="14.00" fill="#ff7f00">true</text>
</g>
<!-- st02&#45;&gt;st013 -->
<g id="edge15" class="edge">
<title>st02&#45;&gt;st013</title>
<path fill="none" stroke="black" d="M447.34,-130.88C462.8,-126.9 480.68,-122.3 496.83,-118.14"/>
<polygon fill="black" stroke="black" points="497.81,-121.5 506.62,-115.62 496.06,-114.72 497.81,-121.5"/>
<text text-anchor="start" x="465" y="-128.8" font-family="arial" font-size="14.00" fill="#377eb8">true</text>
</g>
<!-- st013&#45;&gt;st -->
<g id="edge16" class="edge">
<title>st013&#45;&gt;st</title>
<path fill="none" stroke="black" d="M583.12,-115.03C633.49,-127.29 722.89,-149.05 772.78,-161.19"/>
<polygon fill="black" stroke="black" points="772.26,-164.66 782.8,-163.62 773.91,-157.86 772.26,-164.66"/>
<text text-anchor="start" x="675.5" y="-151.8" font-family="arial" font-size="14.00" fill="#377eb8">Q&#39;</text>
</g>
<!-- st013&#45;&gt;st013 -->
<g id="edge18" class="edge">
<title>st013&#45;&gt;st013</title>
<path fill="none" stroke="black" d="M532.3,-131.18C531.74,-140.91 535.97,-149 545,-149 550.64,-149 554.41,-145.84 556.31,-141.09"/>
<polygon fill="black" stroke="black" points="559.78,-141.56 557.7,-131.18 552.85,-140.59 559.78,-141.56"/>
<text text-anchor="start" x="533" y="-152.8" font-family="arial" font-size="14.00" fill="#377eb8">true</text>
</g>
<!-- st024 -->
<g id="node10" class="node">
<title>st024</title>
<polygon fill="none" stroke="black" points="723,-80 643,-80 643,-30 723,-30 723,-80"/>
<text text-anchor="start" x="665.5" y="-65.8" font-family="arial" font-weight="bold" font-size="14.00">st024</text>
<text text-anchor="start" x="651" y="-51.8" font-family="arial" font-size="14.00" fill="#984ea3">(!Q &amp;&amp; !R)</text>
<text text-anchor="start" x="671" y="-37.8" font-family="arial" font-size="14.00" fill="#ff7f00">true</text>
</g>
<!-- st013&#45;&gt;st024 -->
<g id="edge17" class="edge">
<title>st013&#45;&gt;st024</title>
<path fill="none" stroke="black" d="M583.16,-92.06C598.68,-86.25 616.91,-79.41 633.46,-73.2"/>
<polygon fill="black" stroke="black" points="634.85,-76.42 642.98,-69.63 632.39,-69.87 634.85,-76.42"/>
<text text-anchor="start" x="601" y="-88.8" font-family="arial" font-size="14.00" fill="#377eb8">true</text>
</g>
<!-- st024&#45;&gt;st -->
<g id="edge19" class="edge">
<title>st024&#45;&gt;st</title>
<path fill="none" stroke="black" d="M717.8,-80.01C732.76,-91.61 750.27,-105.92 765,-120 770.52,-125.27 776.11,-131.15 781.38,-136.97"/>
<polygon fill="black" stroke="black" points="779.08,-139.64 788.33,-144.81 784.32,-135 779.08,-139.64"/>
<text text-anchor="start" x="745.5" y="-123.8" font-family="arial" font-size="14.00" fill="#377eb8">Q&#39;</text>
</g>
<!-- st024&#45;&gt;st024 -->
<g id="edge20" class="edge">
<title>st024&#45;&gt;st024</title>
<path fill="none" stroke="black" d="M669.93,-80.18C669.35,-89.91 673.7,-98 683,-98 688.81,-98 692.69,-94.84 694.64,-90.09"/>
<polygon fill="black" stroke="black" points="698.11,-90.57 696.07,-80.18 691.18,-89.57 698.11,-90.57"/>
<text text-anchor="start" x="671" y="-101.8" font-family="arial" font-size="14.00" fill="#377eb8">true</text>
</g>
</g>
</svg>
