<?xml version="1.0" encoding="UTF-8" standalone="no"?>
<!DOCTYPE svg PUBLIC "-//W3C//DTD SVG 1.1//EN"
 "http://www.w3.org/Graphics/SVG/1.1/DTD/svg11.dtd">
<!-- Generated by graphviz version 2.43.0 (0)
 -->
<!-- Title: G Pages: 1 -->
<svg width="2380pt" height="655pt"
 viewBox="0.00 0.00 2380.00 654.99" xmlns="http://www.w3.org/2000/svg" xmlns:xlink="http://www.w3.org/1999/xlink">
<g id="graph0" class="graph" transform="scale(1 1) rotate(0) translate(4 650.99)">
<title>G</title>
<polygon fill="white" stroke="transparent" points="-4,4 -4,-650.99 2376,-650.99 2376,4 -4,4"/>
<!-- _ID_78_ct1_st0 -->
<!-- ID_78_ct1_st0 -->
<g id="node2" class="node">
<title>ID_78_ct1_st0</title>
<polygon fill="none" stroke="black" points="264.5,-364.99 157.5,-364.99 157.5,-314.99 264.5,-314.99 264.5,-364.99"/>
<text text-anchor="start" x="165.5" y="-350.79" font-family="arial" font-weight="bold" font-size="14.00">ID_78_ct1_st0</text>
<text text-anchor="start" x="186.5" y="-336.79" font-family="arial" font-size="14.00" fill="#984ea3">(R || !Q)</text>
<text text-anchor="start" x="199" y="-322.79" font-family="arial" font-size="14.00" fill="#ff7f00">true</text>
</g>
<!-- _ID_78_ct1_st0&#45;&gt;ID_78_ct1_st0 -->
<g id="edge1" class="edge">
<title>_ID_78_ct1_st0&#45;&gt;ID_78_ct1_st0</title>
<path fill="none" stroke="black" d="M111.05,-339.99C122.71,-339.99 135.13,-339.99 147.08,-339.99"/>
<polygon fill="black" stroke="black" points="147.43,-343.49 157.43,-339.99 147.43,-336.49 147.43,-343.49"/>
</g>
<!-- ID_78_ct1_st0&#45;&gt;ID_78_ct1_st0 -->
<g id="edge4" class="edge">
<title>ID_78_ct1_st0&#45;&gt;ID_78_ct1_st0</title>
<path fill="none" stroke="black" d="M196.06,-365.17C195.39,-374.9 200.38,-382.99 211,-382.99 217.64,-382.99 222.08,-379.83 224.31,-375.09"/>
<polygon fill="black" stroke="black" points="227.77,-375.6 225.94,-365.17 220.86,-374.47 227.77,-375.6"/>
<text text-anchor="start" x="199" y="-386.79" font-family="arial" font-size="14.00" fill="#377eb8">true</text>
</g>
<!-- ID_78_ct1_st012 -->
<g id="node4" class="node">
<title>ID_78_ct1_st012</title>
<polygon fill="none" stroke="black" points="456,-191.99 334,-191.99 334,-141.99 456,-141.99 456,-191.99"/>
<text text-anchor="start" x="342" y="-177.79" font-family="arial" font-weight="bold" font-size="14.00">ID_78_ct1_st012</text>
<text text-anchor="start" x="343.5" y="-163.79" font-family="arial" font-size="14.00" fill="#984ea3">(Q &amp;&amp; (!R &amp;&amp; T))</text>
<text text-anchor="start" x="383" y="-149.79" font-family="arial" font-size="14.00" fill="#ff7f00">true</text>
</g>
<!-- ID_78_ct1_st0&#45;&gt;ID_78_ct1_st012 -->
<g id="edge5" class="edge">
<title>ID_78_ct1_st0&#45;&gt;ID_78_ct1_st012</title>
<path fill="none" stroke="black" d="M238.46,-314.84C270.54,-284.34 324.67,-232.9 359.86,-199.44"/>
<polygon fill="black" stroke="black" points="362.67,-201.61 367.5,-192.18 357.84,-196.53 362.67,-201.61"/>
<text text-anchor="start" x="292" y="-266.79" font-family="arial" font-size="14.00" fill="#377eb8">true</text>
</g>
<!-- ID_78_ct1_st0123 -->
<g id="node6" class="node">
<title>ID_78_ct1_st0123</title>
<polygon fill="none" stroke="black" points="903,-261.99 774,-261.99 774,-211.99 903,-211.99 903,-261.99"/>
<text text-anchor="start" x="782" y="-247.79" font-family="arial" font-weight="bold" font-size="14.00">ID_78_ct1_st0123</text>
<text text-anchor="start" x="785.5" y="-233.79" font-family="arial" font-size="14.00" fill="#984ea3">(Q &amp;&amp; (!R &amp;&amp; !T))</text>
<text text-anchor="start" x="826.5" y="-219.79" font-family="arial" font-size="14.00" fill="#ff7f00">true</text>
</g>
<!-- ID_78_ct1_st0&#45;&gt;ID_78_ct1_st0123 -->
<g id="edge6" class="edge">
<title>ID_78_ct1_st0&#45;&gt;ID_78_ct1_st0123</title>
<path fill="none" stroke="black" d="M264.64,-342.85C376.07,-348.26 632.28,-357.08 714,-328.99 749.21,-316.89 782.66,-290.73 805.84,-269.39"/>
<polygon fill="black" stroke="black" points="808.42,-271.77 813.3,-262.36 803.62,-266.67 808.42,-271.77"/>
<text text-anchor="start" x="506" y="-351.79" font-family="arial" font-size="14.00" fill="#377eb8">true</text>
</g>
<!-- _ID_78_ct1_st012 -->
<!-- _ID_78_ct1_st012&#45;&gt;ID_78_ct1_st012 -->
<g id="edge2" class="edge">
<title>_ID_78_ct1_st012&#45;&gt;ID_78_ct1_st012</title>
<path fill="none" stroke="black" d="M274.13,-166.99C290.07,-166.99 307.34,-166.99 323.67,-166.99"/>
<polygon fill="black" stroke="black" points="323.69,-170.49 333.69,-166.99 323.69,-163.49 323.69,-170.49"/>
</g>
<!-- ID_78_ct1_st012&#45;&gt;ID_78_ct1_st0 -->
<g id="edge12" class="edge">
<title>ID_78_ct1_st012&#45;&gt;ID_78_ct1_st0</title>
<path fill="none" stroke="black" d="M338.52,-192.02C322.49,-200.77 305.65,-211.57 292,-223.99 266.06,-247.6 244.08,-281.16 229.76,-306.11"/>
<polygon fill="black" stroke="black" points="226.68,-304.44 224.84,-314.88 232.79,-307.87 226.68,-304.44"/>
<text text-anchor="start" x="297.5" y="-227.79" font-family="arial" font-size="14.00" fill="#377eb8">R&#39;</text>
</g>
<!-- ID_78_ct1_st012&#45;&gt;ID_78_ct1_st012 -->
<g id="edge15" class="edge">
<title>ID_78_ct1_st012&#45;&gt;ID_78_ct1_st012</title>
<path fill="none" stroke="black" d="M378.19,-192.17C377.44,-201.9 383.05,-209.99 395,-209.99 402.47,-209.99 407.46,-206.83 409.97,-202.09"/>
<polygon fill="black" stroke="black" points="413.43,-202.64 411.81,-192.17 406.54,-201.36 413.43,-202.64"/>
<text text-anchor="start" x="383" y="-213.79" font-family="arial" font-size="14.00" fill="#377eb8">true</text>
</g>
<!-- ID_78_ct1_st012&#45;&gt;ID_78_ct1_st0123 -->
<g id="edge16" class="edge">
<title>ID_78_ct1_st012&#45;&gt;ID_78_ct1_st0123</title>
<path fill="none" stroke="black" d="M456.28,-153.08C521.74,-140.76 628.41,-128.97 714,-158.99 743.58,-169.37 745,-185.91 773.9,-206.35"/>
<polygon fill="black" stroke="black" points="772.07,-209.34 782.34,-211.92 775.93,-203.49 772.07,-209.34"/>
<text text-anchor="start" x="635" y="-162.79" font-family="arial" font-size="14.00" fill="#377eb8">true</text>
</g>
<!-- ID_78_ct1_st02 -->
<g id="node7" class="node">
<title>ID_78_ct1_st02</title>
<polygon fill="none" stroke="black" points="1171,-189.99 1049,-189.99 1049,-139.99 1171,-139.99 1171,-189.99"/>
<text text-anchor="start" x="1061" y="-175.79" font-family="arial" font-weight="bold" font-size="14.00">ID_78_ct1_st02</text>
<text text-anchor="start" x="1057" y="-161.79" font-family="arial" font-size="14.00" fill="#984ea3">(!Q &amp;&amp; (!R &amp;&amp; T))</text>
<text text-anchor="start" x="1098" y="-147.79" font-family="arial" font-size="14.00" fill="#ff7f00">true</text>
</g>
<!-- ID_78_ct1_st012&#45;&gt;ID_78_ct1_st02 -->
<g id="edge13" class="edge">
<title>ID_78_ct1_st012&#45;&gt;ID_78_ct1_st02</title>
<path fill="none" stroke="black" d="M421.06,-141.9C435.32,-129.32 454.24,-115.25 474,-107.99 518.29,-91.72 532.83,-103.33 580,-101.99 770.76,-96.6 823.72,-74.28 1009,-119.99 1023.93,-123.68 1039.4,-129.52 1053.58,-135.79"/>
<polygon fill="black" stroke="black" points="1052.14,-138.98 1062.69,-139.95 1055.05,-132.61 1052.14,-138.98"/>
<text text-anchor="start" x="732" y="-98.79" font-family="arial" font-size="14.00" fill="#377eb8">true</text>
</g>
<!-- ID_78_ct1_st023 -->
<g id="node8" class="node">
<title>ID_78_ct1_st023</title>
<polygon fill="none" stroke="black" points="710,-232.99 584,-232.99 584,-182.99 710,-182.99 710,-232.99"/>
<text text-anchor="start" x="594" y="-218.79" font-family="arial" font-weight="bold" font-size="14.00">ID_78_ct1_st023</text>
<text text-anchor="start" x="592" y="-204.79" font-family="arial" font-size="14.00" fill="#984ea3">(!Q &amp;&amp; (!R &amp;&amp; !T))</text>
<text text-anchor="start" x="635" y="-190.79" font-family="arial" font-size="14.00" fill="#ff7f00">true</text>
</g>
<!-- ID_78_ct1_st012&#45;&gt;ID_78_ct1_st023 -->
<g id="edge14" class="edge">
<title>ID_78_ct1_st012&#45;&gt;ID_78_ct1_st023</title>
<path fill="none" stroke="black" d="M450.65,-192.09C458.36,-194.84 466.29,-197.26 474,-198.99 506.11,-206.2 542.4,-208.87 573.34,-209.58"/>
<polygon fill="black" stroke="black" points="573.56,-213.08 583.62,-209.75 573.68,-206.09 573.56,-213.08"/>
<text text-anchor="start" x="506" y="-212.79" font-family="arial" font-size="14.00" fill="#377eb8">true</text>
</g>
<!-- _ID_78_ct1_st0123 -->
<!-- _ID_78_ct1_st0123&#45;&gt;ID_78_ct1_st0123 -->
<g id="edge3" class="edge">
<title>_ID_78_ct1_st0123&#45;&gt;ID_78_ct1_st0123</title>
<path fill="none" stroke="black" d="M700.53,-283.97C720.2,-277.23 742.91,-269.44 764.11,-262.17"/>
<polygon fill="black" stroke="black" points="765.41,-265.42 773.73,-258.87 763.14,-258.8 765.41,-265.42"/>
</g>
<!-- ID_78_ct1_st0123&#45;&gt;ID_78_ct1_st0 -->
<g id="edge24" class="edge">
<title>ID_78_ct1_st0123&#45;&gt;ID_78_ct1_st0</title>
<path fill="none" stroke="black" d="M821.13,-262.09C800.37,-291.09 761.49,-336.66 714,-350.99 552.26,-399.82 502.77,-368.82 334,-360.99 315.31,-360.13 310.51,-360.72 292,-357.99 286.32,-357.16 280.44,-356.13 274.56,-355.01"/>
<polygon fill="black" stroke="black" points="275.21,-351.57 264.72,-353.03 273.83,-358.43 275.21,-351.57"/>
<text text-anchor="start" x="511.5" y="-380.79" font-family="arial" font-size="14.00" fill="#377eb8">R&#39;</text>
</g>
<!-- ID_78_ct1_st0123&#45;&gt;ID_78_ct1_st012 -->
<g id="edge28" class="edge">
<title>ID_78_ct1_st0123&#45;&gt;ID_78_ct1_st012</title>
<path fill="none" stroke="black" d="M779.11,-211.77C777.31,-210.26 775.6,-208.67 774,-206.99 759.68,-192.02 767.54,-181.2 756,-163.99 741.29,-142.07 738.39,-132.1 714,-121.99 631.51,-87.83 527.8,-114.01 461.69,-138.41"/>
<polygon fill="black" stroke="black" points="460.33,-135.18 452.22,-141.99 462.81,-141.73 460.33,-135.18"/>
<text text-anchor="start" x="603" y="-125.79" font-family="arial" font-size="14.00" fill="#377eb8">(R&#39; || (S&#39; || !T&#39;))</text>
</g>
<!-- ID_78_ct1_st0123&#45;&gt;ID_78_ct1_st0123 -->
<g id="edge30" class="edge">
<title>ID_78_ct1_st0123&#45;&gt;ID_78_ct1_st0123</title>
<path fill="none" stroke="black" d="M820.94,-262.17C820.16,-271.9 826.02,-279.99 838.5,-279.99 846.3,-279.99 851.51,-276.83 854.14,-272.09"/>
<polygon fill="black" stroke="black" points="857.59,-272.65 856.06,-262.17 850.72,-271.32 857.59,-272.65"/>
<text text-anchor="start" x="826.5" y="-283.79" font-family="arial" font-size="14.00" fill="#377eb8">true</text>
</g>
<!-- ID_78_ct1_st0123&#45;&gt;ID_78_ct1_st02 -->
<g id="edge25" class="edge">
<title>ID_78_ct1_st0123&#45;&gt;ID_78_ct1_st02</title>
<path fill="none" stroke="black" d="M903.32,-233.2C935.53,-230.06 974.91,-224.36 1009,-213.99 1024.93,-209.15 1041.46,-202.02 1056.38,-194.69"/>
<polygon fill="black" stroke="black" points="1058.09,-197.74 1065.45,-190.12 1054.94,-191.49 1058.09,-197.74"/>
<text text-anchor="start" x="921" y="-234.79" font-family="arial" font-size="14.00" fill="#377eb8">(R&#39; || (S&#39; || !T&#39;))</text>
</g>
<!-- ID_78_ct1_st0123&#45;&gt;ID_78_ct1_st023 -->
<g id="edge27" class="edge">
<title>ID_78_ct1_st0123&#45;&gt;ID_78_ct1_st023</title>
<path fill="none" stroke="black" d="M781.75,-211.97C773.28,-209.08 764.51,-206.6 756,-204.99 744.48,-202.81 732.15,-201.88 720.09,-201.71"/>
<polygon fill="black" stroke="black" points="720.04,-198.21 710.04,-201.73 720.05,-205.21 720.04,-198.21"/>
<text text-anchor="start" x="732" y="-208.79" font-family="arial" font-size="14.00" fill="#377eb8">true</text>
</g>
<!-- ID_78_ct1_st0245 -->
<g id="node9" class="node">
<title>ID_78_ct1_st0245</title>
<polygon fill="none" stroke="black" points="1423,-351.99 1253,-351.99 1253,-301.99 1423,-301.99 1423,-351.99"/>
<text text-anchor="start" x="1281.5" y="-337.79" font-family="arial" font-weight="bold" font-size="14.00">ID_78_ct1_st0245</text>
<text text-anchor="start" x="1261" y="-323.79" font-family="arial" font-size="14.00" fill="#984ea3">(!Q &amp;&amp; (!R &amp;&amp; (!S &amp;&amp; T)))</text>
<text text-anchor="start" x="1326" y="-309.79" font-family="arial" font-size="14.00" fill="#ff7f00">true</text>
</g>
<!-- ID_78_ct1_st0123&#45;&gt;ID_78_ct1_st0245 -->
<g id="edge26" class="edge">
<title>ID_78_ct1_st0123&#45;&gt;ID_78_ct1_st0245</title>
<path fill="none" stroke="black" d="M903.3,-247.26C997.35,-262.43 1165.14,-289.62 1193,-294.99 1209.03,-298.09 1226.02,-301.63 1242.48,-305.19"/>
<polygon fill="black" stroke="black" points="1242.13,-308.7 1252.64,-307.42 1243.62,-301.86 1242.13,-308.7"/>
<text text-anchor="start" x="1098" y="-298.79" font-family="arial" font-size="14.00" fill="#377eb8">true</text>
</g>
<!-- ID_78_ct1_st01245 -->
<g id="node10" class="node">
<title>ID_78_ct1_st01245</title>
<polygon fill="none" stroke="black" points="1193,-440.99 1027,-440.99 1027,-390.99 1193,-390.99 1193,-440.99"/>
<text text-anchor="start" x="1049.5" y="-426.79" font-family="arial" font-weight="bold" font-size="14.00">ID_78_ct1_st01245</text>
<text text-anchor="start" x="1035" y="-412.79" font-family="arial" font-size="14.00" fill="#984ea3">(Q &amp;&amp; (!R &amp;&amp; (!S &amp;&amp; T)))</text>
<text text-anchor="start" x="1098" y="-398.79" font-family="arial" font-size="14.00" fill="#ff7f00">true</text>
</g>
<!-- ID_78_ct1_st0123&#45;&gt;ID_78_ct1_st01245 -->
<g id="edge29" class="edge">
<title>ID_78_ct1_st0123&#45;&gt;ID_78_ct1_st01245</title>
<path fill="none" stroke="black" d="M853.28,-262.04C867.48,-285.78 891.64,-321.01 921,-342.99 923.52,-344.88 982.53,-367.68 1033.77,-387.3"/>
<polygon fill="black" stroke="black" points="1032.64,-390.62 1043.23,-390.93 1035.14,-384.08 1032.64,-390.62"/>
<text text-anchor="start" x="953" y="-379.79" font-family="arial" font-size="14.00" fill="#377eb8">true</text>
</g>
<!-- ID_78_ct1_st02&#45;&gt;ID_78_ct1_st0 -->
<g id="edge7" class="edge">
<title>ID_78_ct1_st02&#45;&gt;ID_78_ct1_st0</title>
<path fill="none" stroke="black" d="M1082.78,-190.25C1063.36,-208.2 1035.73,-232.18 1009,-249.99 890.22,-329.15 852.43,-342.17 714,-376.99 550.21,-418.2 501.44,-401.12 334,-378.99 315.31,-376.52 310.19,-377.96 292,-372.99 286.24,-371.42 280.35,-369.54 274.49,-367.49"/>
<polygon fill="black" stroke="black" points="275.31,-364.06 264.71,-363.9 272.89,-370.63 275.31,-364.06"/>
<text text-anchor="start" x="640.5" y="-403.79" font-family="arial" font-size="14.00" fill="#377eb8">R&#39;</text>
</g>
<!-- ID_78_ct1_st02&#45;&gt;ID_78_ct1_st012 -->
<g id="edge10" class="edge">
<title>ID_78_ct1_st02&#45;&gt;ID_78_ct1_st012</title>
<path fill="none" stroke="black" d="M1097.01,-139.79C1081.34,-110 1050.89,-61.62 1009,-38.99 909.66,14.67 868.79,-21.11 756,-15.99 630.38,-10.29 580.79,27.4 474,-38.99 440.05,-60.1 418.75,-101.97 407.15,-132.09"/>
<polygon fill="black" stroke="black" points="403.75,-131.21 403.59,-141.8 410.32,-133.62 403.75,-131.21"/>
<text text-anchor="start" x="732" y="-19.79" font-family="arial" font-size="14.00" fill="#377eb8">true</text>
</g>
<!-- ID_78_ct1_st02&#45;&gt;ID_78_ct1_st0123 -->
<g id="edge11" class="edge">
<title>ID_78_ct1_st02&#45;&gt;ID_78_ct1_st0123</title>
<path fill="none" stroke="black" d="M1048.77,-171.87C1011.41,-177.11 962.73,-185.74 921,-198.99 913.09,-201.51 904.94,-204.62 897.01,-207.97"/>
<polygon fill="black" stroke="black" points="895.57,-204.77 887.81,-211.99 898.38,-211.19 895.57,-204.77"/>
<text text-anchor="start" x="953" y="-202.79" font-family="arial" font-size="14.00" fill="#377eb8">true</text>
</g>
<!-- ID_78_ct1_st02&#45;&gt;ID_78_ct1_st02 -->
<g id="edge8" class="edge">
<title>ID_78_ct1_st02&#45;&gt;ID_78_ct1_st02</title>
<path fill="none" stroke="black" d="M1089.08,-190.17C1088.15,-199.9 1095.12,-207.99 1110,-207.99 1119.3,-207.99 1125.51,-204.83 1128.63,-200.09"/>
<polygon fill="black" stroke="black" points="1132.08,-200.7 1130.92,-190.17 1125.26,-199.13 1132.08,-200.7"/>
<text text-anchor="start" x="1098" y="-211.79" font-family="arial" font-size="14.00" fill="#377eb8">true</text>
</g>
<!-- ID_78_ct1_st02&#45;&gt;ID_78_ct1_st023 -->
<g id="edge9" class="edge">
<title>ID_78_ct1_st02&#45;&gt;ID_78_ct1_st023</title>
<path fill="none" stroke="black" d="M1048.86,-146.39C980.92,-128.31 867.61,-107.07 774,-132.99 744.03,-141.29 740.72,-153.08 714,-168.99 709.28,-171.8 704.37,-174.72 699.45,-177.63"/>
<polygon fill="black" stroke="black" points="697.45,-174.75 690.63,-182.86 701.02,-180.78 697.45,-174.75"/>
<text text-anchor="start" x="826.5" y="-136.79" font-family="arial" font-size="14.00" fill="#377eb8">true</text>
</g>
<!-- ID_78_ct1_st023&#45;&gt;ID_78_ct1_st0 -->
<g id="edge17" class="edge">
<title>ID_78_ct1_st023&#45;&gt;ID_78_ct1_st0</title>
<path fill="none" stroke="black" d="M583.79,-226.91C501.44,-251.96 357.05,-295.88 274.53,-320.97"/>
<polygon fill="black" stroke="black" points="273.33,-317.68 264.78,-323.94 275.37,-324.38 273.33,-317.68"/>
<text text-anchor="start" x="388.5" y="-304.79" font-family="arial" font-size="14.00" fill="#377eb8">R&#39;</text>
</g>
<!-- ID_78_ct1_st023&#45;&gt;ID_78_ct1_st012 -->
<g id="edge21" class="edge">
<title>ID_78_ct1_st023&#45;&gt;ID_78_ct1_st012</title>
<path fill="none" stroke="black" d="M583.61,-185.35C576.39,-183.28 569.08,-181.43 562,-179.99 530.95,-173.7 496.07,-170.41 466.32,-168.71"/>
<polygon fill="black" stroke="black" points="466.2,-165.2 456.03,-168.17 465.84,-172.19 466.2,-165.2"/>
<text text-anchor="start" x="474" y="-183.79" font-family="arial" font-size="14.00" fill="#377eb8">(R&#39; || (S&#39; || !T&#39;))</text>
</g>
<!-- ID_78_ct1_st023&#45;&gt;ID_78_ct1_st0123 -->
<g id="edge23" class="edge">
<title>ID_78_ct1_st023&#45;&gt;ID_78_ct1_st0123</title>
<path fill="none" stroke="black" d="M710.31,-220.33C717.61,-221.64 724.96,-222.89 732,-223.99 742.22,-225.6 753.03,-227.12 763.68,-228.52"/>
<polygon fill="black" stroke="black" points="763.44,-232.02 773.81,-229.83 764.34,-225.08 763.44,-232.02"/>
<text text-anchor="start" x="732" y="-230.79" font-family="arial" font-size="14.00" fill="#377eb8">true</text>
</g>
<!-- ID_78_ct1_st023&#45;&gt;ID_78_ct1_st02 -->
<g id="edge18" class="edge">
<title>ID_78_ct1_st023&#45;&gt;ID_78_ct1_st02</title>
<path fill="none" stroke="black" d="M710.02,-197.03C730.35,-193.73 753.09,-190.37 774,-187.99 865.18,-177.65 970.9,-171.33 1038.79,-168"/>
<polygon fill="black" stroke="black" points="1039.12,-171.48 1048.94,-167.51 1038.79,-164.49 1039.12,-171.48"/>
<text text-anchor="start" x="794.5" y="-191.79" font-family="arial" font-size="14.00" fill="#377eb8">(R&#39; || (S&#39; || !T&#39;))</text>
</g>
<!-- ID_78_ct1_st023&#45;&gt;ID_78_ct1_st023 -->
<g id="edge20" class="edge">
<title>ID_78_ct1_st023&#45;&gt;ID_78_ct1_st023</title>
<path fill="none" stroke="black" d="M629.07,-233.17C628.27,-242.9 634.25,-250.99 647,-250.99 654.97,-250.99 660.29,-247.83 662.97,-243.09"/>
<polygon fill="black" stroke="black" points="666.42,-243.66 664.93,-233.17 659.56,-242.3 666.42,-243.66"/>
<text text-anchor="start" x="635" y="-254.79" font-family="arial" font-size="14.00" fill="#377eb8">true</text>
</g>
<!-- ID_78_ct1_st023&#45;&gt;ID_78_ct1_st0245 -->
<g id="edge19" class="edge">
<title>ID_78_ct1_st023&#45;&gt;ID_78_ct1_st0245</title>
<path fill="none" stroke="black" d="M671.73,-233.39C695.19,-256.56 733.38,-289.35 774,-303.99 816.73,-319.4 1093.81,-324.56 1242.69,-326.23"/>
<polygon fill="black" stroke="black" points="1242.71,-329.73 1252.75,-326.34 1242.79,-322.73 1242.71,-329.73"/>
<text text-anchor="start" x="953" y="-324.79" font-family="arial" font-size="14.00" fill="#377eb8">true</text>
</g>
<!-- ID_78_ct1_st023&#45;&gt;ID_78_ct1_st01245 -->
<g id="edge22" class="edge">
<title>ID_78_ct1_st023&#45;&gt;ID_78_ct1_st01245</title>
<path fill="none" stroke="black" d="M674.9,-233.01C687.38,-245.17 702.05,-260.3 714,-274.99 723.1,-286.18 722.36,-291.27 732,-301.99 748.24,-320.07 753.03,-324.72 774,-336.99 834.34,-372.3 853.14,-376.18 921,-392.99 951.68,-400.59 985.83,-405.73 1016.52,-409.18"/>
<polygon fill="black" stroke="black" points="1016.46,-412.7 1026.78,-410.29 1017.22,-405.74 1016.46,-412.7"/>
<text text-anchor="start" x="826.5" y="-391.79" font-family="arial" font-size="14.00" fill="#377eb8">true</text>
</g>
<!-- ID_78_ct1_st0245&#45;&gt;ID_78_ct1_st0245 -->
<g id="edge52" class="edge">
<title>ID_78_ct1_st0245&#45;&gt;ID_78_ct1_st0245</title>
<path fill="none" stroke="black" d="M1316.71,-352.17C1315.76,-361.9 1322.86,-369.99 1338,-369.99 1347.46,-369.99 1353.78,-366.83 1356.96,-362.09"/>
<polygon fill="black" stroke="black" points="1360.41,-362.7 1359.29,-352.17 1353.6,-361.1 1360.41,-362.7"/>
<text text-anchor="start" x="1326" y="-373.79" font-family="arial" font-size="14.00" fill="#377eb8">true</text>
</g>
<!-- ID_78_ct1_st0245&#45;&gt;ID_78_ct1_st01245 -->
<g id="edge55" class="edge">
<title>ID_78_ct1_st0245&#45;&gt;ID_78_ct1_st01245</title>
<path fill="none" stroke="black" d="M1252.91,-344.14C1238.7,-348.04 1224.27,-352.64 1211,-357.99 1192.78,-365.34 1173.88,-375.55 1157.47,-385.36"/>
<polygon fill="black" stroke="black" points="1155.36,-382.55 1148.64,-390.74 1159,-388.52 1155.36,-382.55"/>
<text text-anchor="start" x="1211" y="-361.79" font-family="arial" font-size="14.00" fill="#377eb8">true</text>
</g>
<!-- ID_78_ct1_st025 -->
<g id="node11" class="node">
<title>ID_78_ct1_st025</title>
<polygon fill="none" stroke="black" points="2119,-387.99 1997,-387.99 1997,-337.99 2119,-337.99 2119,-387.99"/>
<text text-anchor="start" x="2005" y="-373.79" font-family="arial" font-weight="bold" font-size="14.00">ID_78_ct1_st025</text>
<text text-anchor="start" x="2005" y="-359.79" font-family="arial" font-size="14.00" fill="#984ea3">(!Q &amp;&amp; (!R &amp;&amp; T))</text>
<text text-anchor="start" x="2046" y="-345.79" font-family="arial" font-size="14.00" fill="#ff7f00">true</text>
</g>
<!-- ID_78_ct1_st0245&#45;&gt;ID_78_ct1_st025 -->
<g id="edge51" class="edge">
<title>ID_78_ct1_st0245&#45;&gt;ID_78_ct1_st025</title>
<path fill="none" stroke="black" d="M1423.25,-315.41C1429.25,-314.84 1435.21,-314.36 1441,-313.99 1480.03,-311.52 1489.93,-312.18 1529,-313.99 1693.48,-321.61 1885.86,-342.5 1986.87,-354.4"/>
<polygon fill="black" stroke="black" points="1986.6,-357.89 1996.95,-355.59 1987.43,-350.94 1986.6,-357.89"/>
<text text-anchor="start" x="1702" y="-335.79" font-family="arial" font-size="14.00" fill="#377eb8">(R&#39; || (S&#39; || !T&#39;))</text>
</g>
<!-- ID_78_ct1_st0235 -->
<g id="node12" class="node">
<title>ID_78_ct1_st0235</title>
<polygon fill="none" stroke="black" points="2372,-387.99 2243,-387.99 2243,-337.99 2372,-337.99 2372,-387.99"/>
<text text-anchor="start" x="2251" y="-373.79" font-family="arial" font-weight="bold" font-size="14.00">ID_78_ct1_st0235</text>
<text text-anchor="start" x="2252.5" y="-359.79" font-family="arial" font-size="14.00" fill="#984ea3">(!Q &amp;&amp; (!R &amp;&amp; !T))</text>
<text text-anchor="start" x="2295.5" y="-345.79" font-family="arial" font-size="14.00" fill="#ff7f00">true</text>
</g>
<!-- ID_78_ct1_st0245&#45;&gt;ID_78_ct1_st0235 -->
<g id="edge53" class="edge">
<title>ID_78_ct1_st0245&#45;&gt;ID_78_ct1_st0235</title>
<path fill="none" stroke="black" d="M1362,-301.81C1381.4,-281.86 1410.76,-254.52 1441,-236.99 1511.46,-196.14 1533.05,-177.99 1614.5,-177.99 1614.5,-177.99 1614.5,-177.99 2059,-177.99 2137.91,-177.99 2163.26,-191.85 2225,-240.99 2254.42,-264.41 2277,-301.38 2290.86,-328.49"/>
<polygon fill="black" stroke="black" points="2287.81,-330.22 2295.39,-337.63 2294.08,-327.11 2287.81,-330.22"/>
<text text-anchor="start" x="1860.5" y="-181.79" font-family="arial" font-size="14.00" fill="#377eb8">true</text>
</g>
<!-- ID_78_ct1_st0125 -->
<g id="node13" class="node">
<title>ID_78_ct1_st0125</title>
<polygon fill="none" stroke="black" points="1937,-489.99 1808,-489.99 1808,-439.99 1937,-439.99 1937,-489.99"/>
<text text-anchor="start" x="1816" y="-475.79" font-family="arial" font-weight="bold" font-size="14.00">ID_78_ct1_st0125</text>
<text text-anchor="start" x="1821" y="-461.79" font-family="arial" font-size="14.00" fill="#984ea3">(Q &amp;&amp; (!R &amp;&amp; T))</text>
<text text-anchor="start" x="1860.5" y="-447.79" font-family="arial" font-size="14.00" fill="#ff7f00">true</text>
</g>
<!-- ID_78_ct1_st0245&#45;&gt;ID_78_ct1_st0125 -->
<g id="edge54" class="edge">
<title>ID_78_ct1_st0245&#45;&gt;ID_78_ct1_st0125</title>
<path fill="none" stroke="black" d="M1372.28,-352.05C1411.74,-380.36 1480.55,-425.41 1547,-447.99 1629.56,-476.05 1730.72,-476.42 1797.92,-472.32"/>
<polygon fill="black" stroke="black" points="1798.25,-475.8 1807.99,-471.65 1797.79,-468.82 1798.25,-475.8"/>
<text text-anchor="start" x="1571.5" y="-475.79" font-family="arial" font-size="14.00" fill="#377eb8">(R&#39; || (S&#39; || !T&#39;))</text>
</g>
<!-- ID_78_ct1_st01235 -->
<g id="node14" class="node">
<title>ID_78_ct1_st01235</title>
<polygon fill="none" stroke="black" points="1684,-405.99 1547,-405.99 1547,-355.99 1684,-355.99 1684,-405.99"/>
<text text-anchor="start" x="1555" y="-391.79" font-family="arial" font-weight="bold" font-size="14.00">ID_78_ct1_st01235</text>
<text text-anchor="start" x="1562.5" y="-377.79" font-family="arial" font-size="14.00" fill="#984ea3">(Q &amp;&amp; (!R &amp;&amp; !T))</text>
<text text-anchor="start" x="1603.5" y="-363.79" font-family="arial" font-size="14.00" fill="#ff7f00">true</text>
</g>
<!-- ID_78_ct1_st0245&#45;&gt;ID_78_ct1_st01235 -->
<g id="edge56" class="edge">
<title>ID_78_ct1_st0245&#45;&gt;ID_78_ct1_st01235</title>
<path fill="none" stroke="black" d="M1423.13,-319.04C1456.64,-318.26 1495.2,-320.39 1529,-329.99 1544.28,-334.33 1559.6,-342.13 1572.97,-350.34"/>
<polygon fill="black" stroke="black" points="1571.14,-353.32 1581.45,-355.76 1574.91,-347.42 1571.14,-353.32"/>
<text text-anchor="start" x="1473" y="-333.79" font-family="arial" font-size="14.00" fill="#377eb8">true</text>
</g>
<!-- ID_78_ct1_st01245&#45;&gt;ID_78_ct1_st0245 -->
<g id="edge58" class="edge">
<title>ID_78_ct1_st01245&#45;&gt;ID_78_ct1_st0245</title>
<path fill="none" stroke="black" d="M1186.81,-390.92C1202.82,-385.28 1219.55,-379.14 1235,-372.99 1247.93,-367.85 1261.6,-361.98 1274.6,-356.2"/>
<polygon fill="black" stroke="black" points="1276.23,-359.31 1283.92,-352.02 1273.36,-352.92 1276.23,-359.31"/>
<text text-anchor="start" x="1211" y="-384.79" font-family="arial" font-size="14.00" fill="#377eb8">true</text>
</g>
<!-- ID_78_ct1_st01245&#45;&gt;ID_78_ct1_st01245 -->
<g id="edge61" class="edge">
<title>ID_78_ct1_st01245&#45;&gt;ID_78_ct1_st01245</title>
<path fill="none" stroke="black" d="M1089.08,-441.17C1088.15,-450.9 1095.12,-458.99 1110,-458.99 1119.3,-458.99 1125.51,-455.83 1128.63,-451.09"/>
<polygon fill="black" stroke="black" points="1132.08,-451.7 1130.92,-441.17 1125.26,-450.13 1132.08,-451.7"/>
<text text-anchor="start" x="1098" y="-462.79" font-family="arial" font-size="14.00" fill="#377eb8">true</text>
</g>
<!-- ID_78_ct1_st01245&#45;&gt;ID_78_ct1_st025 -->
<g id="edge57" class="edge">
<title>ID_78_ct1_st01245&#45;&gt;ID_78_ct1_st025</title>
<path fill="none" stroke="black" d="M1127.22,-441.15C1160.37,-489.13 1240.89,-588.99 1337,-588.99 1337,-588.99 1337,-588.99 1873.5,-588.99 1923.65,-588.99 1947.59,-588.08 1979,-548.99 2013.6,-505.92 1972.81,-475.67 1997,-425.99 2002.42,-414.85 2010.53,-404.38 2019.05,-395.3"/>
<polygon fill="black" stroke="black" points="2021.71,-397.58 2026.25,-388.01 2016.73,-392.67 2021.71,-397.58"/>
<text text-anchor="start" x="1571.5" y="-592.79" font-family="arial" font-size="14.00" fill="#377eb8">(R&#39; || (S&#39; || !T&#39;))</text>
</g>
<!-- ID_78_ct1_st01245&#45;&gt;ID_78_ct1_st0235 -->
<g id="edge59" class="edge">
<title>ID_78_ct1_st01245&#45;&gt;ID_78_ct1_st0235</title>
<path fill="none" stroke="black" d="M1136.65,-390.97C1164.13,-364.85 1209.67,-323.51 1253,-292.99 1331.42,-237.76 1350.22,-217.98 1441,-186.99 1551.94,-149.12 1585.08,-157.46 1702,-148.99 1934.33,-132.17 2041.2,-39.9 2225,-182.99 2271.04,-218.84 2291.88,-286.51 2300.68,-327.89"/>
<polygon fill="black" stroke="black" points="2297.27,-328.69 2302.67,-337.81 2304.13,-327.32 2297.27,-328.69"/>
<text text-anchor="start" x="1734" y="-152.79" font-family="arial" font-size="14.00" fill="#377eb8">true</text>
</g>
<!-- ID_78_ct1_st01245&#45;&gt;ID_78_ct1_st0125 -->
<g id="edge60" class="edge">
<title>ID_78_ct1_st01245&#45;&gt;ID_78_ct1_st0125</title>
<path fill="none" stroke="black" d="M1193.03,-434.87C1212.63,-439.11 1233.52,-443.41 1253,-446.99 1382.95,-470.87 1415.24,-481.19 1547,-490.99 1607.72,-495.51 1623.12,-492.14 1684,-490.99 1731.14,-490.1 1743.39,-494.07 1790,-486.99 1792.54,-486.61 1795.11,-486.17 1797.69,-485.7"/>
<polygon fill="black" stroke="black" points="1798.62,-489.08 1807.73,-483.67 1797.23,-482.22 1798.62,-489.08"/>
<text text-anchor="start" x="1441" y="-492.79" font-family="arial" font-size="14.00" fill="#377eb8">(R&#39; || (S&#39; || !T&#39;))</text>
</g>
<!-- ID_78_ct1_st01245&#45;&gt;ID_78_ct1_st01235 -->
<g id="edge62" class="edge">
<title>ID_78_ct1_st01245&#45;&gt;ID_78_ct1_st01235</title>
<path fill="none" stroke="black" d="M1193.13,-421C1199.17,-421.35 1205.18,-421.68 1211,-421.99 1305.09,-427.06 1329.22,-433.19 1423,-423.99 1470.8,-419.3 1482.17,-413.65 1529,-402.99 1531.64,-402.39 1534.33,-401.77 1537.03,-401.13"/>
<polygon fill="black" stroke="black" points="1538.01,-404.5 1546.91,-398.76 1536.37,-397.69 1538.01,-404.5"/>
<text text-anchor="start" x="1326" y="-431.79" font-family="arial" font-size="14.00" fill="#377eb8">true</text>
</g>
<!-- ID_78_ct1_st025&#45;&gt;ID_78_ct1_st025 -->
<g id="edge31" class="edge">
<title>ID_78_ct1_st025&#45;&gt;ID_78_ct1_st025</title>
<path fill="none" stroke="black" d="M2041.19,-388.17C2040.44,-397.9 2046.05,-405.99 2058,-405.99 2065.47,-405.99 2070.46,-402.83 2072.97,-398.09"/>
<polygon fill="black" stroke="black" points="2076.43,-398.64 2074.81,-388.17 2069.54,-397.36 2076.43,-398.64"/>
<text text-anchor="start" x="2046" y="-409.79" font-family="arial" font-size="14.00" fill="#377eb8">true</text>
</g>
<!-- ID_78_ct1_st025&#45;&gt;ID_78_ct1_st0235 -->
<g id="edge32" class="edge">
<title>ID_78_ct1_st025&#45;&gt;ID_78_ct1_st0235</title>
<path fill="none" stroke="black" d="M2119.23,-362.99C2153.5,-362.99 2196.68,-362.99 2232.94,-362.99"/>
<polygon fill="black" stroke="black" points="2232.97,-366.49 2242.97,-362.99 2232.97,-359.49 2232.97,-366.49"/>
<text text-anchor="start" x="2169" y="-366.79" font-family="arial" font-size="14.00" fill="#377eb8">true</text>
</g>
<!-- ID_78_ct1_st025&#45;&gt;ID_78_ct1_st0125 -->
<g id="edge33" class="edge">
<title>ID_78_ct1_st025&#45;&gt;ID_78_ct1_st0125</title>
<path fill="none" stroke="black" d="M2006,-388C1989.57,-396.32 1971.39,-405.81 1955,-414.99 1954.03,-415.54 1939.55,-424.41 1923.07,-434.53"/>
<polygon fill="black" stroke="black" points="1921.01,-431.69 1914.32,-439.9 1924.68,-437.65 1921.01,-431.69"/>
<text text-anchor="start" x="1955" y="-418.79" font-family="arial" font-size="14.00" fill="#377eb8">true</text>
</g>
<!-- ID_78_ct1_st025&#45;&gt;ID_78_ct1_st01235 -->
<g id="edge34" class="edge">
<title>ID_78_ct1_st025&#45;&gt;ID_78_ct1_st01235</title>
<path fill="none" stroke="black" d="M1996.92,-362.2C1926.25,-361.72 1805.43,-362.34 1702,-369.99 1699.45,-370.18 1696.87,-370.39 1694.26,-370.63"/>
<polygon fill="black" stroke="black" points="1693.72,-367.16 1684.1,-371.61 1694.4,-374.13 1693.72,-367.16"/>
<text text-anchor="start" x="1860.5" y="-367.79" font-family="arial" font-size="14.00" fill="#377eb8">true</text>
</g>
<!-- ID_78_ct1_st0235&#45;&gt;ID_78_ct1_st0245 -->
<g id="edge40" class="edge">
<title>ID_78_ct1_st0235&#45;&gt;ID_78_ct1_st0245</title>
<path fill="none" stroke="black" d="M2280.81,-337.79C2238.39,-298.97 2149.4,-228.99 2059,-228.99 1614.5,-228.99 1614.5,-228.99 1614.5,-228.99 1532.44,-228.99 1444.16,-268.07 1390.24,-296.87"/>
<polygon fill="black" stroke="black" points="1388.36,-293.91 1381.24,-301.76 1391.7,-300.06 1388.36,-293.91"/>
<text text-anchor="start" x="1860.5" y="-232.79" font-family="arial" font-size="14.00" fill="#377eb8">true</text>
</g>
<!-- ID_78_ct1_st0235&#45;&gt;ID_78_ct1_st01245 -->
<g id="edge43" class="edge">
<title>ID_78_ct1_st0235&#45;&gt;ID_78_ct1_st01245</title>
<path fill="none" stroke="black" d="M2297.39,-388.3C2271.5,-455.26 2190.68,-631.99 2059,-631.99 1337,-631.99 1337,-631.99 1337,-631.99 1233.19,-631.99 1158.34,-511.42 1127.13,-450.44"/>
<polygon fill="black" stroke="black" points="1130.11,-448.57 1122.5,-441.19 1123.85,-451.7 1130.11,-448.57"/>
<text text-anchor="start" x="1734" y="-635.79" font-family="arial" font-size="14.00" fill="#377eb8">true</text>
</g>
<!-- ID_78_ct1_st0235&#45;&gt;ID_78_ct1_st025 -->
<g id="edge39" class="edge">
<title>ID_78_ct1_st0235&#45;&gt;ID_78_ct1_st025</title>
<path fill="none" stroke="black" d="M2242.68,-346.66C2236.73,-345.58 2230.77,-344.66 2225,-343.99 2186.15,-339.52 2175.83,-339.33 2137,-343.99 2134.46,-344.3 2131.88,-344.66 2129.28,-345.06"/>
<polygon fill="black" stroke="black" points="2128.45,-341.65 2119.21,-346.82 2129.66,-348.55 2128.45,-341.65"/>
<text text-anchor="start" x="2137" y="-347.79" font-family="arial" font-size="14.00" fill="#377eb8">(R&#39; || (S&#39; || !T&#39;))</text>
</g>
<!-- ID_78_ct1_st0235&#45;&gt;ID_78_ct1_st0235 -->
<g id="edge41" class="edge">
<title>ID_78_ct1_st0235&#45;&gt;ID_78_ct1_st0235</title>
<path fill="none" stroke="black" d="M2283.97,-388.17C2282.92,-397.9 2290.77,-405.99 2307.5,-405.99 2317.96,-405.99 2324.95,-402.83 2328.46,-398.09"/>
<polygon fill="black" stroke="black" points="2331.91,-398.73 2331.03,-388.17 2325.13,-396.97 2331.91,-398.73"/>
<text text-anchor="start" x="2295.5" y="-409.79" font-family="arial" font-size="14.00" fill="#377eb8">true</text>
</g>
<!-- ID_78_ct1_st0235&#45;&gt;ID_78_ct1_st0125 -->
<g id="edge42" class="edge">
<title>ID_78_ct1_st0235&#45;&gt;ID_78_ct1_st0125</title>
<path fill="none" stroke="black" d="M2277.57,-388.24C2242.78,-416.6 2181.24,-460.55 2119,-474.99 2062.34,-488.14 1996.39,-484.45 1947.12,-478.12"/>
<polygon fill="black" stroke="black" points="1947.56,-474.65 1937.18,-476.78 1946.63,-481.59 1947.56,-474.65"/>
<text text-anchor="start" x="2014" y="-486.79" font-family="arial" font-size="14.00" fill="#377eb8">(R&#39; || (S&#39; || !T&#39;))</text>
</g>
<!-- ID_78_ct1_st0235&#45;&gt;ID_78_ct1_st01235 -->
<g id="edge44" class="edge">
<title>ID_78_ct1_st0235&#45;&gt;ID_78_ct1_st01235</title>
<path fill="none" stroke="black" d="M2242.84,-340.21C2236.86,-338.58 2230.85,-337.14 2225,-335.99 2178.66,-326.94 2166.19,-330.55 2119,-328.99 1933.22,-322.87 1885.23,-329.74 1702,-360.99 1699.34,-361.45 1696.65,-361.93 1693.93,-362.44"/>
<polygon fill="black" stroke="black" points="1693.15,-359.03 1684.02,-364.4 1694.51,-365.9 1693.15,-359.03"/>
<text text-anchor="start" x="1955" y="-331.79" font-family="arial" font-size="14.00" fill="#377eb8">true</text>
</g>
<!-- ID_78_ct1_st0125&#45;&gt;ID_78_ct1_st025 -->
<g id="edge35" class="edge">
<title>ID_78_ct1_st0125&#45;&gt;ID_78_ct1_st025</title>
<path fill="none" stroke="black" d="M1937.14,-448.32C1951.37,-443.39 1966.07,-437.31 1979,-429.99 1995.62,-420.59 2011.98,-407.34 2025.38,-395.1"/>
<polygon fill="black" stroke="black" points="2028.01,-397.44 2032.91,-388.05 2023.22,-392.33 2028.01,-397.44"/>
<text text-anchor="start" x="1955" y="-443.79" font-family="arial" font-size="14.00" fill="#377eb8">true</text>
</g>
<!-- ID_78_ct1_st0125&#45;&gt;ID_78_ct1_st0235 -->
<g id="edge36" class="edge">
<title>ID_78_ct1_st0125&#45;&gt;ID_78_ct1_st0235</title>
<path fill="none" stroke="black" d="M1937.24,-462.89C1951.05,-462.01 1965.54,-460.76 1979,-458.99 2042,-450.72 2057.82,-447.17 2119,-429.99 2157.48,-419.19 2199.45,-404.48 2233.91,-391.59"/>
<polygon fill="black" stroke="black" points="2235.3,-394.81 2243.42,-388.01 2232.83,-388.26 2235.3,-394.81"/>
<text text-anchor="start" x="2046" y="-459.79" font-family="arial" font-size="14.00" fill="#377eb8">true</text>
</g>
<!-- ID_78_ct1_st0125&#45;&gt;ID_78_ct1_st0125 -->
<g id="edge37" class="edge">
<title>ID_78_ct1_st0125&#45;&gt;ID_78_ct1_st0125</title>
<path fill="none" stroke="black" d="M1854.94,-490.17C1854.16,-499.9 1860.02,-507.99 1872.5,-507.99 1880.3,-507.99 1885.51,-504.83 1888.14,-500.09"/>
<polygon fill="black" stroke="black" points="1891.59,-500.65 1890.06,-490.17 1884.72,-499.32 1891.59,-500.65"/>
<text text-anchor="start" x="1860.5" y="-511.79" font-family="arial" font-size="14.00" fill="#377eb8">true</text>
</g>
<!-- ID_78_ct1_st0125&#45;&gt;ID_78_ct1_st01235 -->
<g id="edge38" class="edge">
<title>ID_78_ct1_st0125&#45;&gt;ID_78_ct1_st01235</title>
<path fill="none" stroke="black" d="M1830.51,-439.79C1810.37,-427.42 1790.31,-415.11 1790,-414.99 1772.41,-408.13 1731.67,-400.02 1694.08,-393.43"/>
<polygon fill="black" stroke="black" points="1694.55,-389.96 1684.1,-391.71 1693.36,-396.86 1694.55,-389.96"/>
<text text-anchor="start" x="1734" y="-418.79" font-family="arial" font-size="14.00" fill="#377eb8">true</text>
</g>
<!-- ID_78_ct1_st01235&#45;&gt;ID_78_ct1_st0245 -->
<g id="edge46" class="edge">
<title>ID_78_ct1_st01235&#45;&gt;ID_78_ct1_st0245</title>
<path fill="none" stroke="black" d="M1546.85,-369C1514.73,-363.19 1475.84,-355.96 1441,-348.99 1438.34,-348.46 1435.65,-347.92 1432.93,-347.36"/>
<polygon fill="black" stroke="black" points="1433.51,-343.91 1423.01,-345.32 1432.1,-350.77 1433.51,-343.91"/>
<text text-anchor="start" x="1473" y="-368.79" font-family="arial" font-size="14.00" fill="#377eb8">true</text>
</g>
<!-- ID_78_ct1_st01235&#45;&gt;ID_78_ct1_st01245 -->
<g id="edge49" class="edge">
<title>ID_78_ct1_st01235&#45;&gt;ID_78_ct1_st01245</title>
<path fill="none" stroke="black" d="M1546.65,-385.71C1457.97,-391.87 1302.29,-402.7 1203.04,-409.6"/>
<polygon fill="black" stroke="black" points="1202.75,-406.11 1193.02,-410.29 1203.24,-413.09 1202.75,-406.11"/>
<text text-anchor="start" x="1326" y="-408.79" font-family="arial" font-size="14.00" fill="#377eb8">true</text>
</g>
<!-- ID_78_ct1_st01235&#45;&gt;ID_78_ct1_st025 -->
<g id="edge45" class="edge">
<title>ID_78_ct1_st01235&#45;&gt;ID_78_ct1_st025</title>
<path fill="none" stroke="black" d="M1684.16,-384.89C1749.12,-387.81 1849.94,-390.2 1937,-382.99 1953.21,-381.65 1970.53,-379.31 1986.82,-376.68"/>
<polygon fill="black" stroke="black" points="1987.52,-380.12 1996.81,-375.02 1986.37,-373.21 1987.52,-380.12"/>
<text text-anchor="start" x="1828.5" y="-390.79" font-family="arial" font-size="14.00" fill="#377eb8">(R&#39; || (S&#39; || !T&#39;))</text>
</g>
<!-- ID_78_ct1_st01235&#45;&gt;ID_78_ct1_st0235 -->
<g id="edge47" class="edge">
<title>ID_78_ct1_st01235&#45;&gt;ID_78_ct1_st0235</title>
<path fill="none" stroke="black" d="M1645.95,-406.18C1658.25,-417.27 1672.35,-430.76 1684,-443.99 1693.05,-454.27 1691.9,-459.75 1702,-468.99 1742.42,-506.01 1755.15,-517.47 1808,-531.99 1863.28,-547.18 1879.86,-536.67 1937,-531.99 2068.29,-521.25 2117.9,-538.69 2225,-461.99 2249.5,-444.45 2270.87,-417.78 2285.58,-396.54"/>
<polygon fill="black" stroke="black" points="2288.58,-398.36 2291.27,-388.11 2282.78,-394.44 2288.58,-398.36"/>
<text text-anchor="start" x="1955" y="-533.79" font-family="arial" font-size="14.00" fill="#377eb8">true</text>
</g>
<!-- ID_78_ct1_st01235&#45;&gt;ID_78_ct1_st0125 -->
<g id="edge48" class="edge">
<title>ID_78_ct1_st01235&#45;&gt;ID_78_ct1_st0125</title>
<path fill="none" stroke="black" d="M1654.38,-406.15C1668.79,-414.78 1685.68,-423.81 1702,-429.99 1719.61,-436.66 1760.58,-445.19 1797.84,-452.15"/>
<polygon fill="black" stroke="black" points="1797.25,-455.6 1807.72,-453.98 1798.52,-448.72 1797.25,-455.6"/>
<text text-anchor="start" x="1702" y="-453.79" font-family="arial" font-size="14.00" fill="#377eb8">(R&#39; || (S&#39; || !T&#39;))</text>
</g>
<!-- ID_78_ct1_st01235&#45;&gt;ID_78_ct1_st01235 -->
<g id="edge50" class="edge">
<title>ID_78_ct1_st01235&#45;&gt;ID_78_ct1_st01235</title>
<path fill="none" stroke="black" d="M1591.22,-406.17C1590.14,-415.9 1598.23,-423.99 1615.5,-423.99 1626.29,-423.99 1633.5,-420.83 1637.12,-416.09"/>
<polygon fill="black" stroke="black" points="1640.57,-416.73 1639.78,-406.17 1633.81,-414.92 1640.57,-416.73"/>
<text text-anchor="start" x="1603.5" y="-427.79" font-family="arial" font-size="14.00" fill="#377eb8">true</text>
</g>
</g>
</svg>
