<?xml version="1.0" encoding="UTF-8" standalone="no"?>
<!DOCTYPE svg PUBLIC "-//W3C//DTD SVG 1.1//EN"
 "http://www.w3.org/Graphics/SVG/1.1/DTD/svg11.dtd">
<!-- Generated by graphviz version 2.40.1 (20161225.0304)
 -->
<!-- Title: G Pages: 1 -->
<svg width="860pt" height="357pt"
 viewBox="0.00 0.00 860.00 357.00" xmlns="http://www.w3.org/2000/svg" xmlns:xlink="http://www.w3.org/1999/xlink">
<g id="graph0" class="graph" transform="scale(1 1) rotate(0) translate(4 353)">
<title>G</title>
<polygon fill="#ffffff" stroke="transparent" points="-4,4 -4,-353 856,-353 856,4 -4,4"/>
<!-- _stinit -->
<!-- stinit -->
<g id="node2" class="node">
<title>stinit</title>
<polygon fill="none" stroke="#000000" points="723,-316 669,-316 669,-266 723,-266 723,-316"/>
<text text-anchor="start" x="679" y="-301.8" font-family="arial" font-weight="bold" font-size="14.00" fill="#000000">stinit</text>
<text text-anchor="start" x="690" y="-287.8" font-family="arial" font-size="14.00" fill="#984ea3">Q</text>
<text text-anchor="start" x="683.5" y="-273.8" font-family="arial" font-size="14.00" fill="#ff7f00">true</text>
</g>
<!-- _stinit&#45;&gt;stinit -->
<g id="edge1" class="edge">
<title>_stinit&#45;&gt;stinit</title>
<path fill="none" stroke="#000000" d="M582.1862,-291C603.9356,-291 634.6645,-291 658.7114,-291"/>
<polygon fill="#000000" stroke="#000000" points="658.8973,-294.5001 668.8972,-291 658.8972,-287.5001 658.8973,-294.5001"/>
</g>
<!-- stinit&#45;&gt;stinit -->
<g id="edge5" class="edge">
<title>stinit&#45;&gt;stinit</title>
<path fill="none" stroke="#000000" d="M682.9263,-316.1756C682.3452,-325.9095 686.7031,-334 696,-334 701.8105,-334 705.6918,-330.8397 707.6438,-326.093"/>
<polygon fill="#000000" stroke="#000000" points="711.1107,-326.5728 709.0737,-316.1756 704.1824,-325.5738 711.1107,-326.5728"/>
<text text-anchor="start" x="683.5" y="-337.8" font-family="arial" font-size="14.00" fill="#377eb8">true</text>
</g>
<!-- st -->
<g id="node7" class="node">
<title>st</title>
<polygon fill="none" stroke="#000000" points="852,-195 798,-195 798,-145 852,-145 852,-195"/>
<text text-anchor="start" x="818.5" y="-180.8" font-family="arial" font-weight="bold" font-size="14.00" fill="#000000">st</text>
<text text-anchor="start" x="812.5" y="-166.8" font-family="arial" font-size="14.00" fill="#984ea3">true</text>
<text text-anchor="start" x="812.5" y="-152.8" font-family="arial" font-size="14.00" fill="#ff7f00">true</text>
</g>
<!-- stinit&#45;&gt;st -->
<g id="edge4" class="edge">
<title>stinit&#45;&gt;st</title>
<path fill="none" stroke="#000000" d="M723.1471,-283.305C740.9839,-277.155 763.9095,-267.0435 780,-252 793.8509,-239.0505 804.4284,-220.8545 811.8371,-204.8921"/>
<polygon fill="#000000" stroke="#000000" points="815.229,-205.8724 816.0415,-195.3088 808.8188,-203.0601 815.229,-205.8724"/>
<text text-anchor="start" x="755" y="-272.8" font-family="arial" font-size="14.00" fill="#377eb8">true</text>
</g>
<!-- _st0 -->
<!-- st0 -->
<g id="node4" class="node">
<title>st0</title>
<polygon fill="none" stroke="#000000" points="173,-50 91,-50 91,0 173,0 173,-50"/>
<text text-anchor="start" x="121" y="-35.8" font-family="arial" font-weight="bold" font-size="14.00" fill="#000000">st0</text>
<text text-anchor="start" x="99" y="-21.8" font-family="arial" font-size="14.00" fill="#984ea3">(!Q &amp;&amp; !R)</text>
<text text-anchor="start" x="119.5" y="-7.8" font-family="arial" font-size="14.00" fill="#ff7f00">true</text>
</g>
<!-- _st0&#45;&gt;st0 -->
<g id="edge2" class="edge">
<title>_st0&#45;&gt;st0</title>
<path fill="none" stroke="#000000" d="M54.0401,-25C62.1634,-25 71.3597,-25 80.5148,-25"/>
<polygon fill="#000000" stroke="#000000" points="80.7744,-28.5001 90.7743,-25 80.7743,-21.5001 80.7744,-28.5001"/>
</g>
<!-- st0&#45;&gt;st0 -->
<g id="edge8" class="edge">
<title>st0&#45;&gt;st0</title>
<path fill="none" stroke="#000000" d="M121.1675,-50.1756C120.686,-59.9095 124.2969,-68 132,-68 136.6941,-68 139.8686,-64.9957 141.5234,-60.446"/>
<polygon fill="#000000" stroke="#000000" points="145.0399,-60.5379 142.8325,-50.1756 138.0961,-59.6528 145.0399,-60.5379"/>
<text text-anchor="start" x="119.5" y="-71.8" font-family="arial" font-size="14.00" fill="#377eb8">true</text>
</g>
<!-- st01 -->
<g id="node6" class="node">
<title>st01</title>
<polygon fill="none" stroke="#000000" points="312,-166 234,-166 234,-116 312,-116 312,-166"/>
<text text-anchor="start" x="258" y="-151.8" font-family="arial" font-weight="bold" font-size="14.00" fill="#000000">st01</text>
<text text-anchor="start" x="242" y="-137.8" font-family="arial" font-size="14.00" fill="#984ea3">(!Q &amp;&amp; R)</text>
<text text-anchor="start" x="260.5" y="-123.8" font-family="arial" font-size="14.00" fill="#ff7f00">true</text>
</g>
<!-- st0&#45;&gt;st01 -->
<g id="edge9" class="edge">
<title>st0&#45;&gt;st01</title>
<path fill="none" stroke="#000000" d="M162.5949,-50.1703C183.7509,-67.5752 212.0556,-90.8613 234.7088,-109.498"/>
<polygon fill="#000000" stroke="#000000" points="232.5187,-112.2285 242.4648,-115.8788 236.966,-106.8227 232.5187,-112.2285"/>
<text text-anchor="start" x="191" y="-96.8" font-family="arial" font-size="14.00" fill="#377eb8">true</text>
</g>
<!-- st0&#45;&gt;st -->
<g id="edge7" class="edge">
<title>st0&#45;&gt;st</title>
<path fill="none" stroke="#000000" d="M173.0497,-14.7109C201.0282,-8.587 239.0203,-2 273,-2 273,-2 273,-2 696,-2 762.5699,-2 799.4975,-86.0083 815.4171,-135.2134"/>
<polygon fill="#000000" stroke="#000000" points="812.1013,-136.3377 818.4111,-144.8487 818.7861,-134.2605 812.1013,-136.3377"/>
<text text-anchor="start" x="478" y="-5.8" font-family="arial" font-size="14.00" fill="#377eb8">Q&#39;</text>
</g>
<!-- _st01 -->
<!-- _st01&#45;&gt;st01 -->
<g id="edge3" class="edge">
<title>_st01&#45;&gt;st01</title>
<path fill="none" stroke="#000000" d="M159.1862,-141C177.4936,-141 202.1632,-141 223.8545,-141"/>
<polygon fill="#000000" stroke="#000000" points="223.8992,-144.5001 233.8992,-141 223.8992,-137.5001 223.8992,-144.5001"/>
</g>
<!-- st01&#45;&gt;st01 -->
<g id="edge12" class="edge">
<title>st01&#45;&gt;st01</title>
<path fill="none" stroke="#000000" d="M260.2998,-166.1756C259.7354,-175.9095 263.9688,-184 273,-184 278.6445,-184 282.4149,-180.8397 284.3111,-176.093"/>
<polygon fill="#000000" stroke="#000000" points="287.7792,-176.5645 285.7002,-166.1756 280.8468,-175.5934 287.7792,-176.5645"/>
<text text-anchor="start" x="260.5" y="-187.8" font-family="arial" font-size="14.00" fill="#377eb8">true</text>
</g>
<!-- st01&#45;&gt;st -->
<g id="edge10" class="edge">
<title>st01&#45;&gt;st</title>
<path fill="none" stroke="#000000" d="M292.7255,-166.2324C317.6167,-194.973 363.3404,-238 414,-238 414,-238 414,-238 696,-238 730.6495,-238 765.1211,-218.5642 789.7015,-200.4742"/>
<polygon fill="#000000" stroke="#000000" points="792.1414,-203.0149 797.9674,-194.1657 787.8946,-197.4503 792.1414,-203.0149"/>
<text text-anchor="start" x="547.5" y="-241.8" font-family="arial" font-size="14.00" fill="#377eb8">Q&#39;</text>
</g>
<!-- st02 -->
<g id="node8" class="node">
<title>st02</title>
<polygon fill="none" stroke="#000000" points="455,-166 373,-166 373,-116 455,-116 455,-166"/>
<text text-anchor="start" x="399" y="-151.8" font-family="arial" font-weight="bold" font-size="14.00" fill="#000000">st02</text>
<text text-anchor="start" x="381" y="-137.8" font-family="arial" font-size="14.00" fill="#984ea3">(!Q &amp;&amp; !R)</text>
<text text-anchor="start" x="401.5" y="-123.8" font-family="arial" font-size="14.00" fill="#ff7f00">true</text>
</g>
<!-- st01&#45;&gt;st02 -->
<g id="edge11" class="edge">
<title>st01&#45;&gt;st02</title>
<path fill="none" stroke="#000000" d="M312.2764,-141C327.9318,-141 346.1616,-141 362.8292,-141"/>
<polygon fill="#000000" stroke="#000000" points="362.9684,-144.5001 372.9683,-141 362.9683,-137.5001 362.9684,-144.5001"/>
<text text-anchor="start" x="330" y="-144.8" font-family="arial" font-size="14.00" fill="#377eb8">true</text>
</g>
<!-- st&#45;&gt;st -->
<g id="edge6" class="edge">
<title>st&#45;&gt;st</title>
<path fill="none" stroke="#000000" d="M814.541,-195.1756C814.0762,-204.9095 817.5625,-213 825,-213 829.5322,-213 832.5972,-209.9957 834.195,-205.446"/>
<polygon fill="#000000" stroke="#000000" points="837.7112,-205.5283 835.459,-195.1756 830.7636,-204.6732 837.7112,-205.5283"/>
<text text-anchor="start" x="812.5" y="-216.8" font-family="arial" font-size="14.00" fill="#377eb8">true</text>
</g>
<!-- st02&#45;&gt;st -->
<g id="edge13" class="edge">
<title>st02&#45;&gt;st</title>
<path fill="none" stroke="#000000" d="M455.0093,-156.9968C473.3614,-163.3342 495.4532,-169.8526 516,-173 613.0994,-187.8739 729.3767,-179.936 787.7238,-174.2093"/>
<polygon fill="#000000" stroke="#000000" points="788.3321,-177.6656 797.9267,-173.1717 787.6239,-170.7015 788.3321,-177.6656"/>
<text text-anchor="start" x="617" y="-184.8" font-family="arial" font-size="14.00" fill="#377eb8">Q&#39;</text>
</g>
<!-- st02&#45;&gt;st02 -->
<g id="edge14" class="edge">
<title>st02&#45;&gt;st02</title>
<path fill="none" stroke="#000000" d="M400.9263,-166.1756C400.3452,-175.9095 404.7031,-184 414,-184 419.8105,-184 423.6918,-180.8397 425.6438,-176.093"/>
<polygon fill="#000000" stroke="#000000" points="429.1107,-176.5728 427.0737,-166.1756 422.1824,-175.5738 429.1107,-176.5728"/>
<text text-anchor="start" x="401.5" y="-187.8" font-family="arial" font-size="14.00" fill="#377eb8">true</text>
</g>
<!-- st013 -->
<g id="node9" class="node">
<title>st013</title>
<polygon fill="none" stroke="#000000" points="594,-131 516,-131 516,-81 594,-81 594,-131"/>
<text text-anchor="start" x="536" y="-116.8" font-family="arial" font-weight="bold" font-size="14.00" fill="#000000">st013</text>
<text text-anchor="start" x="524" y="-102.8" font-family="arial" font-size="14.00" fill="#984ea3">(!Q &amp;&amp; R)</text>
<text text-anchor="start" x="542.5" y="-88.8" font-family="arial" font-size="14.00" fill="#ff7f00">true</text>
</g>
<!-- st02&#45;&gt;st013 -->
<g id="edge15" class="edge">
<title>st02&#45;&gt;st013</title>
<path fill="none" stroke="#000000" d="M455.1621,-130.7825C471.0483,-126.8391 489.3534,-122.2952 505.9162,-118.1839"/>
<polygon fill="#000000" stroke="#000000" points="507.1042,-121.4953 515.9664,-115.6892 505.4177,-114.7015 507.1042,-121.4953"/>
<text text-anchor="start" x="473" y="-128.8" font-family="arial" font-size="14.00" fill="#377eb8">true</text>
</g>
<!-- st013&#45;&gt;st -->
<g id="edge16" class="edge">
<title>st013&#45;&gt;st</title>
<path fill="none" stroke="#000000" d="M594.2603,-115.3061C646.256,-127.6311 737.2902,-149.2095 788.0817,-161.249"/>
<polygon fill="#000000" stroke="#000000" points="787.4427,-164.6944 797.9804,-163.5953 789.0573,-157.8832 787.4427,-164.6944"/>
<text text-anchor="start" x="688.5" y="-151.8" font-family="arial" font-size="14.00" fill="#377eb8">Q&#39;</text>
</g>
<!-- st013&#45;&gt;st013 -->
<g id="edge18" class="edge">
<title>st013&#45;&gt;st013</title>
<path fill="none" stroke="#000000" d="M542.2998,-131.1756C541.7354,-140.9095 545.9688,-149 555,-149 560.6445,-149 564.4149,-145.8397 566.3111,-141.093"/>
<polygon fill="#000000" stroke="#000000" points="569.7792,-141.5645 567.7002,-131.1756 562.8468,-140.5934 569.7792,-141.5645"/>
<text text-anchor="start" x="542.5" y="-152.8" font-family="arial" font-size="14.00" fill="#377eb8">true</text>
</g>
<!-- st024 -->
<g id="node10" class="node">
<title>st024</title>
<polygon fill="none" stroke="#000000" points="737,-80 655,-80 655,-30 737,-30 737,-80"/>
<text text-anchor="start" x="677" y="-65.8" font-family="arial" font-weight="bold" font-size="14.00" fill="#000000">st024</text>
<text text-anchor="start" x="663" y="-51.8" font-family="arial" font-size="14.00" fill="#984ea3">(!Q &amp;&amp; !R)</text>
<text text-anchor="start" x="683.5" y="-37.8" font-family="arial" font-size="14.00" fill="#ff7f00">true</text>
</g>
<!-- st013&#45;&gt;st024 -->
<g id="edge17" class="edge">
<title>st013&#45;&gt;st024</title>
<path fill="none" stroke="#000000" d="M594.2764,-91.7937C610.0795,-86.0776 628.5058,-79.4128 645.3005,-73.3381"/>
<polygon fill="#000000" stroke="#000000" points="646.7551,-76.534 654.9683,-69.8412 644.3741,-69.9514 646.7551,-76.534"/>
<text text-anchor="start" x="612" y="-88.8" font-family="arial" font-size="14.00" fill="#377eb8">true</text>
</g>
<!-- st024&#45;&gt;st -->
<g id="edge19" class="edge">
<title>st024&#45;&gt;st</title>
<path fill="none" stroke="#000000" d="M731.4672,-80.2242C746.8946,-91.7508 764.8646,-105.9487 780,-120 785.7772,-125.3634 791.6363,-131.3746 797.1325,-137.319"/>
<polygon fill="#000000" stroke="#000000" points="794.5613,-139.694 803.8669,-144.7593 799.7512,-134.9965 794.5613,-139.694"/>
<text text-anchor="start" x="760" y="-123.8" font-family="arial" font-size="14.00" fill="#377eb8">Q&#39;</text>
</g>
<!-- st024&#45;&gt;st024 -->
<g id="edge20" class="edge">
<title>st024&#45;&gt;st024</title>
<path fill="none" stroke="#000000" d="M682.9263,-80.1756C682.3452,-89.9095 686.7031,-98 696,-98 701.8105,-98 705.6918,-94.8397 707.6438,-90.093"/>
<polygon fill="#000000" stroke="#000000" points="711.1107,-90.5728 709.0737,-80.1756 704.1824,-89.5738 711.1107,-90.5728"/>
<text text-anchor="start" x="683.5" y="-101.8" font-family="arial" font-size="14.00" fill="#377eb8">true</text>
</g>
</g>
</svg>
