<?xml version="1.0" encoding="UTF-8" standalone="no"?>
<!DOCTYPE svg PUBLIC "-//W3C//DTD SVG 1.1//EN"
 "http://www.w3.org/Graphics/SVG/1.1/DTD/svg11.dtd">
<!-- Generated by graphviz version 2.40.1 (20161225.0304)
 -->
<!-- Title: G Pages: 1 -->
<svg width="657pt" height="299pt"
 viewBox="0.00 0.00 657.00 299.00" xmlns="http://www.w3.org/2000/svg" xmlns:xlink="http://www.w3.org/1999/xlink">
<g id="graph0" class="graph" transform="scale(1 1) rotate(0) translate(4 295)">
<title>G</title>
<polygon fill="#ffffff" stroke="transparent" points="-4,4 -4,-295 653,-295 653,4 -4,4"/>
<!-- _stinit -->
<!-- stinit -->
<g id="node2" class="node">
<title>stinit</title>
<polygon fill="none" stroke="#000000" points="499,-258 445,-258 445,-208 499,-208 499,-258"/>
<text text-anchor="start" x="455" y="-243.8" font-family="arial" font-weight="bold" font-size="14.00" fill="#000000">stinit</text>
<text text-anchor="start" x="466" y="-229.8" font-family="arial" font-size="14.00" fill="#984ea3">Q</text>
<text text-anchor="start" x="459.5" y="-215.8" font-family="arial" font-size="14.00" fill="#ff7f00">true</text>
</g>
<!-- _stinit&#45;&gt;stinit -->
<g id="edge1" class="edge">
<title>_stinit&#45;&gt;stinit</title>
<path fill="none" stroke="#000000" d="M313.8712,-233C345.8837,-233 399.0382,-233 434.7803,-233"/>
<polygon fill="#000000" stroke="#000000" points="434.8188,-236.5001 444.8187,-233 434.8187,-229.5001 434.8188,-236.5001"/>
</g>
<!-- stinit&#45;&gt;stinit -->
<g id="edge5" class="edge">
<title>stinit&#45;&gt;stinit</title>
<path fill="none" stroke="#000000" d="M454.8174,-258.1756C454.0537,-267.9095 459.7813,-276 472,-276 479.6367,-276 484.7378,-272.8397 487.3033,-268.093"/>
<polygon fill="#000000" stroke="#000000" points="490.7595,-268.6525 489.1826,-258.1756 483.8819,-267.3491 490.7595,-268.6525"/>
<text text-anchor="start" x="459.5" y="-279.8" font-family="arial" font-size="14.00" fill="#377eb8">true</text>
</g>
<!-- st -->
<g id="node7" class="node">
<title>st</title>
<polygon fill="none" stroke="#000000" points="649,-183 595,-183 595,-133 649,-133 649,-183"/>
<text text-anchor="start" x="615.5" y="-168.8" font-family="arial" font-weight="bold" font-size="14.00" fill="#000000">st</text>
<text text-anchor="start" x="609.5" y="-154.8" font-family="arial" font-size="14.00" fill="#984ea3">true</text>
<text text-anchor="start" x="609.5" y="-140.8" font-family="arial" font-size="14.00" fill="#ff7f00">true</text>
</g>
<!-- stinit&#45;&gt;st -->
<g id="edge4" class="edge">
<title>stinit&#45;&gt;st</title>
<path fill="none" stroke="#000000" d="M499.3676,-225.4698C521.1959,-218.8528 552.1248,-208.0841 577,-194 580.2376,-192.1669 583.4842,-190.1067 586.6688,-187.924"/>
<polygon fill="#000000" stroke="#000000" points="588.8775,-190.6455 594.9052,-181.9324 584.7596,-184.9848 588.8775,-190.6455"/>
<text text-anchor="start" x="552" y="-209.8" font-family="arial" font-size="14.00" fill="#377eb8">true</text>
</g>
<!-- _st0 -->
<!-- st0 -->
<g id="node4" class="node">
<title>st0</title>
<polygon fill="none" stroke="#000000" points="172,-144 91,-144 91,-94 172,-94 172,-144"/>
<text text-anchor="start" x="120.5" y="-129.8" font-family="arial" font-weight="bold" font-size="14.00" fill="#000000">st0</text>
<text text-anchor="start" x="99" y="-115.8" font-family="arial" font-size="14.00" fill="#984ea3">(!Q &amp;&amp; !S)</text>
<text text-anchor="start" x="119" y="-101.8" font-family="arial" font-size="14.00" fill="#ff7f00">true</text>
</g>
<!-- _st0&#45;&gt;st0 -->
<g id="edge2" class="edge">
<title>_st0&#45;&gt;st0</title>
<path fill="none" stroke="#000000" d="M54.1833,-119C62.268,-119 71.402,-119 80.4861,-119"/>
<polygon fill="#000000" stroke="#000000" points="80.6627,-122.5001 90.6626,-119 80.6626,-115.5001 80.6627,-122.5001"/>
</g>
<!-- st0&#45;&gt;st0 -->
<g id="edge8" class="edge">
<title>st0&#45;&gt;st0</title>
<path fill="none" stroke="#000000" d="M120.6675,-144.1756C120.186,-153.9095 123.7969,-162 131.5,-162 136.1941,-162 139.3686,-158.9957 141.0234,-154.446"/>
<polygon fill="#000000" stroke="#000000" points="144.5399,-154.5379 142.3325,-144.1756 137.5961,-153.6528 144.5399,-154.5379"/>
<text text-anchor="start" x="119" y="-165.8" font-family="arial" font-size="14.00" fill="#377eb8">true</text>
</g>
<!-- st01W -->
<g id="node6" class="node">
<title>st01W</title>
<polygon fill="none" stroke="#000000" points="325,-65 248,-65 248,-15 325,-15 325,-65"/>
<text text-anchor="start" x="265" y="-50.8" font-family="arial" font-weight="bold" font-size="14.00" fill="#000000">st01W</text>
<text text-anchor="start" x="256" y="-36.8" font-family="arial" font-size="14.00" fill="#984ea3">(!Q &amp;&amp; S)</text>
<text text-anchor="start" x="262" y="-22.8" font-family="arial" font-size="14.00" fill="#ff7f00">c0 &lt;= 5</text>
</g>
<!-- st0&#45;&gt;st01W -->
<g id="edge9" class="edge">
<title>st0&#45;&gt;st01W</title>
<path fill="none" stroke="#000000" d="M146.7096,-93.8012C157.0087,-79.078 171.9996,-61.5636 190,-52 204.4314,-44.3327 221.7459,-40.7479 237.7,-39.2546"/>
<polygon fill="#000000" stroke="#000000" points="238.2062,-42.7283 247.9438,-38.5534 237.7281,-35.7446 238.2062,-42.7283"/>
<text text-anchor="start" x="197.5" y="-70.8" font-family="arial" font-size="14.00" fill="#377eb8">true</text>
<text text-anchor="start" x="190" y="-55.8" font-family="arial" font-size="14.00" fill="#000000">c0 :=0</text>
</g>
<!-- st0&#45;&gt;st -->
<g id="edge7" class="edge">
<title>st0&#45;&gt;st</title>
<path fill="none" stroke="#000000" d="M172.0045,-128.4832C178.0207,-129.7515 184.1602,-130.9683 190,-132 287.1196,-149.1581 311.5881,-154.5417 410,-161 464.9928,-164.6089 478.8969,-161.939 534,-161 550.5167,-160.7185 568.7697,-160.1402 584.35,-159.5657"/>
<polygon fill="#000000" stroke="#000000" points="584.796,-163.0513 594.6552,-159.1723 584.5289,-156.0564 584.796,-163.0513"/>
<text text-anchor="start" x="360" y="-162.8" font-family="arial" font-size="14.00" fill="#377eb8">Q&#39;</text>
</g>
<!-- _st01W -->
<!-- _st01W&#45;&gt;st01W -->
<g id="edge3" class="edge">
<title>_st01W&#45;&gt;st01W</title>
<path fill="none" stroke="#000000" d="M164.7514,-22.7196C186.0779,-25.7465 214.1274,-29.7278 237.9273,-33.1058"/>
<polygon fill="#000000" stroke="#000000" points="237.4425,-36.572 247.8351,-34.5121 238.4262,-29.6415 237.4425,-36.572"/>
</g>
<!-- st01W&#45;&gt;st0 -->
<g id="edge11" class="edge">
<title>st01W&#45;&gt;st0</title>
<path fill="none" stroke="#000000" d="M255.8716,-65.1824C247.7578,-71.1676 238.7988,-77.2014 230,-82 214.9925,-90.1847 197.7952,-97.3296 182.0143,-103.1013"/>
<polygon fill="#000000" stroke="#000000" points="180.6557,-99.8696 172.4037,-106.5146 182.9984,-106.4659 180.6557,-99.8696"/>
<text text-anchor="start" x="197.5" y="-102.8" font-family="arial" font-size="14.00" fill="#377eb8">true</text>
</g>
<!-- st01W&#45;&gt;st01W -->
<g id="edge12" class="edge">
<title>st01W&#45;&gt;st01W</title>
<path fill="none" stroke="#000000" d="M272.3057,-65.1756C271.6748,-74.9095 276.4063,-83 286.5,-83 292.8086,-83 297.0225,-79.8397 299.1418,-75.093"/>
<polygon fill="#000000" stroke="#000000" points="302.6055,-75.5966 300.6943,-65.1756 295.6898,-74.514 302.6055,-75.5966"/>
<text text-anchor="start" x="266.5" y="-86.8" font-family="arial" font-size="14.00" fill="#377eb8">c0 &lt; 5</text>
</g>
<!-- st01W&#45;&gt;st -->
<g id="edge10" class="edge">
<title>st01W&#45;&gt;st</title>
<path fill="none" stroke="#000000" d="M325.3972,-30.9789C376.315,-21.2782 466.9561,-11.3923 534,-45 567.0079,-61.5462 591.3316,-96.9167 605.9399,-123.7064"/>
<polygon fill="#000000" stroke="#000000" points="602.9548,-125.5503 610.7001,-132.7795 609.1534,-122.2981 602.9548,-125.5503"/>
<text text-anchor="start" x="464.5" y="-48.8" font-family="arial" font-size="14.00" fill="#377eb8">Q&#39;</text>
</g>
<!-- st01 -->
<g id="node8" class="node">
<title>st01</title>
<polygon fill="none" stroke="#000000" points="534,-119 410,-119 410,-69 534,-69 534,-119"/>
<text text-anchor="start" x="457" y="-104.8" font-family="arial" font-weight="bold" font-size="14.00" fill="#000000">st01</text>
<text text-anchor="start" x="418" y="-90.8" font-family="arial" font-size="14.00" fill="#984ea3">(!Q &amp;&amp; (R &amp;&amp; S))</text>
<text text-anchor="start" x="459.5" y="-76.8" font-family="arial" font-size="14.00" fill="#ff7f00">true</text>
</g>
<!-- st01W&#45;&gt;st01 -->
<g id="edge13" class="edge">
<title>st01W&#45;&gt;st01</title>
<path fill="none" stroke="#000000" d="M325.3869,-51.3202C347.0539,-57.6275 374.7224,-65.682 400.1733,-73.0909"/>
<polygon fill="#000000" stroke="#000000" points="399.2222,-76.4592 409.8019,-75.8938 401.1787,-69.7382 399.2222,-76.4592"/>
<text text-anchor="start" x="343" y="-73.8" font-family="arial" font-size="14.00" fill="#377eb8">c0 &gt;= 5</text>
</g>
<!-- st&#45;&gt;st -->
<g id="edge6" class="edge">
<title>st&#45;&gt;st</title>
<path fill="none" stroke="#000000" d="M611.541,-183.1756C611.0762,-192.9095 614.5625,-201 622,-201 626.5322,-201 629.5972,-197.9957 631.195,-193.446"/>
<polygon fill="#000000" stroke="#000000" points="634.7112,-193.5283 632.459,-183.1756 627.7636,-192.6732 634.7112,-193.5283"/>
<text text-anchor="start" x="609.5" y="-204.8" font-family="arial" font-size="14.00" fill="#377eb8">true</text>
</g>
<!-- st01&#45;&gt;st0 -->
<g id="edge15" class="edge">
<title>st01&#45;&gt;st0</title>
<path fill="none" stroke="#000000" d="M409.9447,-101.684C361.1265,-107.3584 291.3389,-114.6536 230,-118 214.5994,-118.8402 197.8249,-119.2125 182.556,-119.3423"/>
<polygon fill="#000000" stroke="#000000" points="182.2426,-115.8438 172.2611,-119.3962 182.2793,-122.8437 182.2426,-115.8438"/>
<text text-anchor="start" x="260.5" y="-119.8" font-family="arial" font-size="14.00" fill="#377eb8">(Q&#39; || R&#39;)</text>
</g>
<!-- st01&#45;&gt;st -->
<g id="edge14" class="edge">
<title>st01&#45;&gt;st</title>
<path fill="none" stroke="#000000" d="M530.8535,-119.1108C549.2412,-126.9563 568.9884,-135.3817 585.3847,-142.3775"/>
<polygon fill="#000000" stroke="#000000" points="584.0445,-145.6109 594.6158,-146.3161 586.7916,-139.1724 584.0445,-145.6109"/>
<text text-anchor="start" x="557" y="-140.8" font-family="arial" font-size="14.00" fill="#377eb8">Q&#39;</text>
</g>
<!-- st01&#45;&gt;st01 -->
<g id="edge16" class="edge">
<title>st01&#45;&gt;st01</title>
<path fill="none" stroke="#000000" d="M454.8174,-119.1756C454.0537,-128.9095 459.7813,-137 472,-137 479.6367,-137 484.7378,-133.8397 487.3033,-129.093"/>
<polygon fill="#000000" stroke="#000000" points="490.7595,-129.6525 489.1826,-119.1756 483.8819,-128.3491 490.7595,-129.6525"/>
<text text-anchor="start" x="459.5" y="-140.8" font-family="arial" font-size="14.00" fill="#377eb8">true</text>
</g>
</g>
</svg>
