<?xml version="1.0" encoding="UTF-8" standalone="no"?>
<!DOCTYPE svg PUBLIC "-//W3C//DTD SVG 1.1//EN"
 "http://www.w3.org/Graphics/SVG/1.1/DTD/svg11.dtd">
<!-- Generated by graphviz version 2.40.1 (20161225.0304)
 -->
<!-- Title: G Pages: 1 -->
<svg width="1642pt" height="674pt"
 viewBox="0.00 0.00 1642.00 674.00" xmlns="http://www.w3.org/2000/svg" xmlns:xlink="http://www.w3.org/1999/xlink">
<g id="graph0" class="graph" transform="scale(1 1) rotate(0) translate(4 670)">
<title>G</title>
<polygon fill="#ffffff" stroke="transparent" points="-4,4 -4,-670 1638,-670 1638,4 -4,4"/>
<!-- _st0 -->
<!-- st0 -->
<g id="node2" class="node">
<title>st0</title>
<polygon fill="none" stroke="#000000" points="157,-347 91,-347 91,-297 157,-297 157,-347"/>
<text text-anchor="start" x="113" y="-332.8" font-family="arial" font-weight="bold" font-size="14.00" fill="#000000">st0</text>
<text text-anchor="start" x="99" y="-318.8" font-family="arial" font-size="14.00" fill="#984ea3">(R || !Q)</text>
<text text-anchor="start" x="111.5" y="-304.8" font-family="arial" font-size="14.00" fill="#ff7f00">true</text>
</g>
<!-- _st0&#45;&gt;st0 -->
<g id="edge1" class="edge">
<title>_st0&#45;&gt;st0</title>
<path fill="none" stroke="#000000" d="M54.0199,-322C62.3287,-322 71.6915,-322 80.8018,-322"/>
<polygon fill="#000000" stroke="#000000" points="80.9106,-325.5001 90.9106,-322 80.9105,-318.5001 80.9106,-325.5001"/>
</g>
<!-- st0&#45;&gt;st0 -->
<g id="edge4" class="edge">
<title>st0&#45;&gt;st0</title>
<path fill="none" stroke="#000000" d="M114.6616,-347.1756C114.2466,-356.9095 117.3594,-365 124,-365 128.0466,-365 130.7832,-361.9957 132.2098,-357.446"/>
<polygon fill="#000000" stroke="#000000" points="135.7251,-357.4981 133.3384,-347.1756 128.767,-356.7335 135.7251,-357.4981"/>
<text text-anchor="start" x="111.5" y="-368.8" font-family="arial" font-size="14.00" fill="#377eb8">true</text>
</g>
<!-- st012 -->
<g id="node4" class="node">
<title>st012</title>
<polygon fill="none" stroke="#000000" points="345,-206 218,-206 218,-156 345,-156 345,-206"/>
<text text-anchor="start" x="262.5" y="-191.8" font-family="arial" font-weight="bold" font-size="14.00" fill="#000000">st012</text>
<text text-anchor="start" x="226" y="-177.8" font-family="arial" font-size="14.00" fill="#984ea3">(Q &amp;&amp; (!R &amp;&amp; !T))</text>
<text text-anchor="start" x="269" y="-163.8" font-family="arial" font-size="14.00" fill="#ff7f00">true</text>
</g>
<!-- st0&#45;&gt;st012 -->
<g id="edge5" class="edge">
<title>st0&#45;&gt;st012</title>
<path fill="none" stroke="#000000" d="M130.1375,-296.9257C137.1797,-273.204 150.9761,-238.1688 175,-217 184.5904,-208.5494 196.244,-202.0664 208.2776,-197.0975"/>
<polygon fill="#000000" stroke="#000000" points="209.8626,-200.24 217.9775,-193.4284 207.386,-193.6928 209.8626,-200.24"/>
<text text-anchor="start" x="175" y="-220.8" font-family="arial" font-size="14.00" fill="#377eb8">true</text>
</g>
<!-- st01234 -->
<g id="node6" class="node">
<title>st01234</title>
<polygon fill="none" stroke="#000000" points="1634,-437 1465,-437 1465,-387 1634,-387 1634,-437"/>
<text text-anchor="start" x="1522" y="-422.8" font-family="arial" font-weight="bold" font-size="14.00" fill="#000000">st01234</text>
<text text-anchor="start" x="1473" y="-408.8" font-family="arial" font-size="14.00" fill="#984ea3">(Q &amp;&amp; (!R &amp;&amp; (S &amp;&amp; T)))</text>
<text text-anchor="start" x="1537" y="-394.8" font-family="arial" font-size="14.00" fill="#ff7f00">true</text>
</g>
<!-- st0&#45;&gt;st01234 -->
<g id="edge6" class="edge">
<title>st0&#45;&gt;st01234</title>
<path fill="none" stroke="#000000" d="M125.1974,-347.3647C128.6818,-410.7436 140.8306,-573.8149 175,-614 207.4594,-652.174 231.3915,-651 281.5,-651 281.5,-651 281.5,-651 1338.5,-651 1389.449,-651 1408.5266,-647.4006 1447,-614 1498.657,-569.1541 1527.4382,-491.9876 1540.5809,-447.1295"/>
<polygon fill="#000000" stroke="#000000" points="1544.017,-447.8407 1543.3709,-437.2656 1537.2813,-445.9355 1544.017,-447.8407"/>
<text text-anchor="start" x="783" y="-654.8" font-family="arial" font-size="14.00" fill="#377eb8">true</text>
</g>
<!-- _st012 -->
<!-- _st012&#45;&gt;st012 -->
<g id="edge2" class="edge">
<title>_st012&#45;&gt;st012</title>
<path fill="none" stroke="#000000" d="M154.7415,-181C169.9942,-181 189.1324,-181 207.8811,-181"/>
<polygon fill="#000000" stroke="#000000" points="207.9273,-184.5001 217.9273,-181 207.9272,-177.5001 207.9273,-184.5001"/>
</g>
<!-- st012&#45;&gt;st0 -->
<g id="edge12" class="edge">
<title>st012&#45;&gt;st0</title>
<path fill="none" stroke="#000000" d="M239.8673,-206.1283C219.2359,-219.5892 194.6095,-237.2411 175,-256 164.8272,-265.7315 155.0257,-277.5901 146.7807,-288.5568"/>
<polygon fill="#000000" stroke="#000000" points="143.8869,-286.5845 140.7986,-296.7192 149.5329,-290.7224 143.8869,-286.5845"/>
<text text-anchor="start" x="180.5" y="-259.8" font-family="arial" font-size="14.00" fill="#377eb8">R&#39;</text>
</g>
<!-- st012&#45;&gt;st012 -->
<g id="edge15" class="edge">
<title>st012&#45;&gt;st012</title>
<path fill="none" stroke="#000000" d="M263.9438,-206.1756C263.1636,-215.9095 269.0156,-224 281.5,-224 289.3027,-224 294.5147,-220.8397 297.1359,-216.093"/>
<polygon fill="#000000" stroke="#000000" points="300.5913,-216.6586 299.0562,-206.1756 293.719,-215.3279 300.5913,-216.6586"/>
<text text-anchor="start" x="269" y="-227.8" font-family="arial" font-size="14.00" fill="#377eb8">true</text>
</g>
<!-- st012&#45;&gt;st01234 -->
<g id="edge16" class="edge">
<title>st012&#45;&gt;st01234</title>
<path fill="none" stroke="#000000" d="M300.9148,-155.7636C334.9074,-114.7112 409.5273,-38 492.5,-38 492.5,-38 492.5,-38 924.5,-38 1140.6304,-38 1225.1639,2.3672 1404,-119 1493.923,-180.0263 1530.7084,-313.5186 1543.5531,-377.0528"/>
<polygon fill="#000000" stroke="#000000" points="1540.1402,-377.8384 1545.4808,-386.9887 1547.0121,-376.5051 1540.1402,-377.8384"/>
<text text-anchor="start" x="912" y="-41.8" font-family="arial" font-size="14.00" fill="#377eb8">true</text>
</g>
<!-- st02 -->
<g id="node7" class="node">
<title>st02</title>
<polygon fill="none" stroke="#000000" points="1404,-178 1273,-178 1273,-128 1404,-128 1404,-178"/>
<text text-anchor="start" x="1323.5" y="-163.8" font-family="arial" font-weight="bold" font-size="14.00" fill="#000000">st02</text>
<text text-anchor="start" x="1281" y="-149.8" font-family="arial" font-size="14.00" fill="#984ea3">(!Q &amp;&amp; (!R &amp;&amp; !T))</text>
<text text-anchor="start" x="1326" y="-135.8" font-family="arial" font-size="14.00" fill="#ff7f00">true</text>
</g>
<!-- st012&#45;&gt;st02 -->
<g id="edge13" class="edge">
<title>st012&#45;&gt;st02</title>
<path fill="none" stroke="#000000" d="M313.3836,-155.7676C352.9883,-127.027 423.7588,-84 492.5,-84 492.5,-84 492.5,-84 1055,-84 1127.666,-84 1207.913,-105.6659 1264.4279,-124.7165"/>
<polygon fill="#000000" stroke="#000000" points="1263.3973,-128.0631 1273.9919,-127.9919 1265.6653,-121.4407 1263.3973,-128.0631"/>
<text text-anchor="start" x="783" y="-87.8" font-family="arial" font-size="14.00" fill="#377eb8">true</text>
</g>
<!-- st0234 -->
<g id="node8" class="node">
<title>st0234</title>
<polygon fill="none" stroke="#000000" points="579,-385 406,-385 406,-335 579,-335 579,-385"/>
<text text-anchor="start" x="469.5" y="-370.8" font-family="arial" font-weight="bold" font-size="14.00" fill="#000000">st0234</text>
<text text-anchor="start" x="414" y="-356.8" font-family="arial" font-size="14.00" fill="#984ea3">(!Q &amp;&amp; (!R &amp;&amp; (S &amp;&amp; T)))</text>
<text text-anchor="start" x="480" y="-342.8" font-family="arial" font-size="14.00" fill="#ff7f00">true</text>
</g>
<!-- st012&#45;&gt;st0234 -->
<g id="edge14" class="edge">
<title>st012&#45;&gt;st0234</title>
<path fill="none" stroke="#000000" d="M292.7864,-206.2931C306.1,-233.6167 330.5875,-276.8717 363,-304 375.522,-314.4805 390.3039,-323.3001 405.3197,-330.6131"/>
<polygon fill="#000000" stroke="#000000" points="404.1385,-333.9239 414.6813,-334.9731 407.0939,-327.5784 404.1385,-333.9239"/>
<text text-anchor="start" x="363" y="-322.8" font-family="arial" font-size="14.00" fill="#377eb8">true</text>
</g>
<!-- _st01234 -->
<!-- _st01234&#45;&gt;st01234 -->
<g id="edge3" class="edge">
<title>_st01234&#45;&gt;st01234</title>
<path fill="none" stroke="#000000" d="M1377.2254,-547.8038C1398.9171,-543.094 1425.7856,-535.116 1447,-522 1478.9757,-502.2307 1507.4143,-469.8907 1526.1755,-445.3808"/>
<polygon fill="#000000" stroke="#000000" points="1529.2054,-447.1738 1532.3979,-437.0714 1523.6023,-442.978 1529.2054,-447.1738"/>
</g>
<!-- st01234&#45;&gt;st0 -->
<g id="edge36" class="edge">
<title>st01234&#45;&gt;st0</title>
<path fill="none" stroke="#000000" d="M1536.4453,-437.3545C1508.0013,-488.6705 1435.1545,-600 1338.5,-600 281.5,-600 281.5,-600 281.5,-600 171.2635,-600 137.2647,-432.4761 127.5696,-357.5178"/>
<polygon fill="#000000" stroke="#000000" points="130.9917,-356.6649 126.3094,-347.161 124.043,-357.5105 130.9917,-356.6649"/>
<text text-anchor="start" x="788.5" y="-603.8" font-family="arial" font-size="14.00" fill="#377eb8">R&#39;</text>
</g>
<!-- st01234&#45;&gt;st01234 -->
<g id="edge40" class="edge">
<title>st01234&#45;&gt;st01234</title>
<path fill="none" stroke="#000000" d="M1528.2085,-437.1756C1527.2622,-446.9095 1534.3594,-455 1549.5,-455 1558.9629,-455 1565.2838,-451.8397 1568.4627,-447.093"/>
<polygon fill="#000000" stroke="#000000" points="1571.9128,-447.711 1570.7915,-437.1756 1565.0981,-446.1107 1571.9128,-447.711"/>
<text text-anchor="start" x="1537" y="-458.8" font-family="arial" font-size="14.00" fill="#377eb8">true</text>
</g>
<!-- st01234&#45;&gt;st0234 -->
<g id="edge38" class="edge">
<title>st01234&#45;&gt;st0234</title>
<path fill="none" stroke="#000000" d="M1464.7387,-427.5508C1444.8787,-430.5957 1423.7514,-433.3533 1404,-435 1046.4587,-464.8085 797.0512,-452.332 709,-440 653.1742,-432.1813 593.3259,-408.7977 550.734,-389.3168"/>
<polygon fill="#000000" stroke="#000000" points="552.1897,-386.1339 541.6455,-385.0993 549.2431,-392.4835 552.1897,-386.1339"/>
<text text-anchor="start" x="1042.5" y="-456.8" font-family="arial" font-size="14.00" fill="#377eb8">true</text>
</g>
<!-- st024 -->
<g id="node9" class="node">
<title>st024</title>
<polygon fill="none" stroke="#000000" points="1143,-386 967,-386 967,-336 1143,-336 1143,-386"/>
<text text-anchor="start" x="1036" y="-371.8" font-family="arial" font-weight="bold" font-size="14.00" fill="#000000">st024</text>
<text text-anchor="start" x="975" y="-357.8" font-family="arial" font-size="14.00" fill="#984ea3">(!Q &amp;&amp; (!R &amp;&amp; (S &amp;&amp; !T)))</text>
<text text-anchor="start" x="1026.5" y="-343.8" font-family="arial" font-size="14.00" fill="#ff7f00">c0 &lt;= 50</text>
</g>
<!-- st01234&#45;&gt;st024 -->
<g id="edge37" class="edge">
<title>st01234&#45;&gt;st024</title>
<path fill="none" stroke="#000000" d="M1464.9891,-406.4386C1410.188,-402.5454 1337.2867,-396.8286 1273,-390 1233.871,-385.8436 1190.9156,-380.3338 1153.5565,-375.2338"/>
<polygon fill="#000000" stroke="#000000" points="1153.5588,-371.7013 1143.1755,-373.8077 1152.6061,-378.6362 1153.5588,-371.7013"/>
<text text-anchor="start" x="1326" y="-419.8" font-family="arial" font-size="14.00" fill="#377eb8">true</text>
<text text-anchor="start" x="1318.5" y="-404.8" font-family="arial" font-size="14.00" fill="#000000">c0 :=0</text>
</g>
<!-- st0124 -->
<g id="node10" class="node">
<title>st0124</title>
<polygon fill="none" stroke="#000000" points="882,-259 709,-259 709,-209 882,-209 882,-259"/>
<text text-anchor="start" x="772.5" y="-244.8" font-family="arial" font-weight="bold" font-size="14.00" fill="#000000">st0124</text>
<text text-anchor="start" x="717" y="-230.8" font-family="arial" font-size="14.00" fill="#984ea3">(Q &amp;&amp; (!R &amp;&amp; (S &amp;&amp; !T)))</text>
<text text-anchor="start" x="767" y="-216.8" font-family="arial" font-size="14.00" fill="#ff7f00">c0 &lt;= 50</text>
</g>
<!-- st01234&#45;&gt;st0124 -->
<g id="edge39" class="edge">
<title>st01234&#45;&gt;st0124</title>
<path fill="none" stroke="#000000" d="M1487.825,-386.9736C1462.1691,-377.1246 1431.912,-366.2281 1404,-358 1226.3398,-305.628 1013.093,-267.7047 892.0301,-248.4231"/>
<polygon fill="#000000" stroke="#000000" points="892.4658,-244.9485 882.0414,-246.8412 891.3709,-251.8624 892.4658,-244.9485"/>
<text text-anchor="start" x="1195.5" y="-336.8" font-family="arial" font-size="14.00" fill="#377eb8">true</text>
<text text-anchor="start" x="1188" y="-321.8" font-family="arial" font-size="14.00" fill="#000000">c0 :=0</text>
</g>
<!-- st02&#45;&gt;st0 -->
<g id="edge7" class="edge">
<title>st02&#45;&gt;st0</title>
<path fill="none" stroke="#000000" d="M1308.3396,-127.9283C1293.1122,-116.2785 1273.8953,-103.0371 1255,-94 1117.2317,-28.1089 1077.2145,0 924.5,0 281.5,0 281.5,0 281.5,0 249.8055,0 168.816,-203.9097 137.058,-287.1961"/>
<polygon fill="#000000" stroke="#000000" points="133.7144,-286.142 133.4357,-296.7332 140.2583,-288.6275 133.7144,-286.142"/>
<text text-anchor="start" x="637" y="-3.8" font-family="arial" font-size="14.00" fill="#377eb8">R&#39;</text>
</g>
<!-- st02&#45;&gt;st012 -->
<g id="edge10" class="edge">
<title>st02&#45;&gt;st012</title>
<path fill="none" stroke="#000000" d="M1272.8851,-147.8888C1266.8412,-147.5377 1260.8089,-147.2318 1255,-147 1164.7379,-143.3977 797.2685,-140.1873 709,-144 584.556,-149.3752 440.3036,-163.5127 355.2043,-172.6735"/>
<polygon fill="#000000" stroke="#000000" points="354.6899,-169.2087 345.1249,-173.7651 355.4436,-176.168 354.6899,-169.2087"/>
<text text-anchor="start" x="783" y="-147.8" font-family="arial" font-size="14.00" fill="#377eb8">true</text>
</g>
<!-- st02&#45;&gt;st01234 -->
<g id="edge11" class="edge">
<title>st02&#45;&gt;st01234</title>
<path fill="none" stroke="#000000" d="M1402.0615,-178.0818C1418.0745,-186.5104 1434.3018,-197.1209 1447,-210 1494.772,-258.4526 1524.7906,-333.6834 1539.2316,-377.3621"/>
<polygon fill="#000000" stroke="#000000" points="1535.9277,-378.5209 1542.3237,-386.9673 1542.5909,-376.3758 1535.9277,-378.5209"/>
<text text-anchor="start" x="1422" y="-213.8" font-family="arial" font-size="14.00" fill="#377eb8">true</text>
</g>
<!-- st02&#45;&gt;st02 -->
<g id="edge8" class="edge">
<title>st02&#45;&gt;st02</title>
<path fill="none" stroke="#000000" d="M1320.5703,-178.1756C1319.7734,-187.9095 1325.75,-196 1338.5,-196 1346.4688,-196 1351.7916,-192.8397 1354.4686,-188.093"/>
<polygon fill="#000000" stroke="#000000" points="1357.9233,-188.6647 1356.4297,-178.1756 1351.0562,-187.3067 1357.9233,-188.6647"/>
<text text-anchor="start" x="1326" y="-199.8" font-family="arial" font-size="14.00" fill="#377eb8">true</text>
</g>
<!-- st02&#45;&gt;st0234 -->
<g id="edge9" class="edge">
<title>st02&#45;&gt;st0234</title>
<path fill="none" stroke="#000000" d="M1272.9709,-151.8076C1113.2319,-150.0491 708.6854,-152.8457 597,-223 557.114,-248.0541 526.76,-294.1163 509.3016,-325.8658"/>
<polygon fill="#000000" stroke="#000000" points="506.1445,-324.3474 504.5117,-334.8156 512.3162,-327.6505 506.1445,-324.3474"/>
<text text-anchor="start" x="912" y="-164.8" font-family="arial" font-size="14.00" fill="#377eb8">true</text>
</g>
<!-- st0234&#45;&gt;st0 -->
<g id="edge31" class="edge">
<title>st0234&#45;&gt;st0</title>
<path fill="none" stroke="#000000" d="M405.6792,-351.047C330.6126,-343.3061 225.2573,-332.4417 166.9947,-326.4336"/>
<polygon fill="#000000" stroke="#000000" points="167.3325,-322.95 157.0262,-325.4057 166.6144,-329.9131 167.3325,-322.95"/>
<text text-anchor="start" x="274.5" y="-347.8" font-family="arial" font-size="14.00" fill="#377eb8">R&#39;</text>
</g>
<!-- st0234&#45;&gt;st01234 -->
<g id="edge35" class="edge">
<title>st0234&#45;&gt;st01234</title>
<path fill="none" stroke="#000000" d="M504.1384,-385.1194C520.0927,-416.1713 551.993,-467.5377 597,-489 767.4985,-570.3051 1267.3671,-542.4148 1447,-484 1472.3338,-475.7617 1496.8925,-458.9214 1515.6171,-443.5978"/>
<polygon fill="#000000" stroke="#000000" points="1517.8756,-446.2716 1523.27,-437.1529 1513.3664,-440.9174 1517.8756,-446.2716"/>
<text text-anchor="start" x="1042.5" y="-542.8" font-family="arial" font-size="14.00" fill="#377eb8">true</text>
</g>
<!-- st0234&#45;&gt;st0234 -->
<g id="edge33" class="edge">
<title>st0234&#45;&gt;st0234</title>
<path fill="none" stroke="#000000" d="M470.835,-385.1756C469.8721,-394.9095 477.0938,-403 492.5,-403 502.1289,-403 508.5607,-399.8397 511.7954,-395.093"/>
<polygon fill="#000000" stroke="#000000" points="515.2452,-395.7153 514.165,-385.1756 508.4368,-394.0884 515.2452,-395.7153"/>
<text text-anchor="start" x="480" y="-406.8" font-family="arial" font-size="14.00" fill="#377eb8">true</text>
</g>
<!-- st0234&#45;&gt;st024 -->
<g id="edge32" class="edge">
<title>st0234&#45;&gt;st024</title>
<path fill="none" stroke="#000000" d="M579.1717,-384.6294C585.177,-385.9013 591.1611,-387.0451 597,-388 751.4034,-413.2513 795.308,-413.271 949,-384 951.6404,-383.4971 954.3158,-382.9788 957.0143,-382.4484"/>
<polygon fill="#000000" stroke="#000000" points="957.7431,-385.8721 966.8635,-380.4806 956.3716,-379.0077 957.7431,-385.8721"/>
<text text-anchor="start" x="783" y="-424.8" font-family="arial" font-size="14.00" fill="#377eb8">true</text>
<text text-anchor="start" x="775.5" y="-409.8" font-family="arial" font-size="14.00" fill="#000000">c0 :=0</text>
</g>
<!-- st0234&#45;&gt;st0124 -->
<g id="edge34" class="edge">
<title>st0234&#45;&gt;st0124</title>
<path fill="none" stroke="#000000" d="M532.9106,-334.7636C551.786,-323.9256 574.9233,-311.951 597,-304 637.1012,-289.5574 650.6323,-298.6799 691,-285 707.8619,-279.2858 725.5079,-271.4561 741.3967,-263.6465"/>
<polygon fill="#000000" stroke="#000000" points="743.1593,-266.6781 750.5295,-259.0668 740.0215,-260.4207 743.1593,-266.6781"/>
<text text-anchor="start" x="631.5" y="-322.8" font-family="arial" font-size="14.00" fill="#377eb8">true</text>
<text text-anchor="start" x="624" y="-307.8" font-family="arial" font-size="14.00" fill="#000000">c0 :=0</text>
</g>
<!-- st024&#45;&gt;st0 -->
<g id="edge17" class="edge">
<title>st024&#45;&gt;st0</title>
<path fill="none" stroke="#000000" d="M1024.7442,-386.2305C959.5784,-437.9143 799.2544,-551 644,-551 281.5,-551 281.5,-551 281.5,-551 188.7131,-551 146.4542,-421.7915 131.168,-357.4849"/>
<polygon fill="#000000" stroke="#000000" points="134.4995,-356.3522 128.8617,-347.382 127.6751,-357.9101 134.4995,-356.3522"/>
<text text-anchor="start" x="485.5" y="-554.8" font-family="arial" font-size="14.00" fill="#377eb8">R&#39;</text>
</g>
<!-- st024&#45;&gt;st012 -->
<g id="edge21" class="edge">
<title>st024&#45;&gt;st012</title>
<path fill="none" stroke="#000000" d="M966.6653,-352.3018C944.816,-349.7215 921.508,-346.6042 900,-343 814.2782,-328.6353 777.8701,-354.0233 709,-301 695.1398,-290.329 705.1733,-276.2515 691,-266 587.0951,-190.8454 530.7489,-250.7011 406,-221 389.2919,-217.022 371.5862,-211.9019 354.9317,-206.6622"/>
<polygon fill="#000000" stroke="#000000" points="355.8536,-203.2825 345.2627,-203.571 353.7219,-209.95 355.8536,-203.2825"/>
<text text-anchor="start" x="597" y="-269.8" font-family="arial" font-size="14.00" fill="#377eb8">(R&#39; || c0 &gt;= 50)</text>
</g>
<!-- st024&#45;&gt;st01234 -->
<g id="edge23" class="edge">
<title>st024&#45;&gt;st01234</title>
<path fill="none" stroke="#000000" d="M1143.3191,-359.4691C1214.156,-359.4584 1315.9404,-362.1811 1404,-375 1420.6019,-377.4168 1438.0537,-380.9573 1454.8783,-384.9038"/>
<polygon fill="#000000" stroke="#000000" points="1454.1593,-388.3306 1464.7008,-387.2688 1455.798,-381.5251 1454.1593,-388.3306"/>
<text text-anchor="start" x="1326" y="-378.8" font-family="arial" font-size="14.00" fill="#377eb8">true</text>
</g>
<!-- st024&#45;&gt;st02 -->
<g id="edge18" class="edge">
<title>st024&#45;&gt;st02</title>
<path fill="none" stroke="#000000" d="M1080.7296,-335.6843C1100.9701,-317.128 1130.7247,-292.7044 1161,-278 1199.6884,-259.2095 1218.6139,-277.9332 1255,-255 1281.8341,-238.0871 1304.0877,-209.589 1318.8549,-187.0079"/>
<polygon fill="#000000" stroke="#000000" points="1321.9334,-188.6888 1324.3331,-178.3692 1316.0218,-184.9399 1321.9334,-188.6888"/>
<text text-anchor="start" x="1161" y="-281.8" font-family="arial" font-size="14.00" fill="#377eb8">(R&#39; || c0 &gt;= 50)</text>
</g>
<!-- st024&#45;&gt;st0234 -->
<g id="edge20" class="edge">
<title>st024&#45;&gt;st0234</title>
<path fill="none" stroke="#000000" d="M966.6889,-367.9174C874.3943,-374.0681 725.4116,-380.9567 597,-373 594.4454,-372.8417 591.8577,-372.6619 589.2481,-372.4633"/>
<polygon fill="#000000" stroke="#000000" points="589.356,-368.9601 579.0981,-371.6104 588.7699,-375.9355 589.356,-368.9601"/>
<text text-anchor="start" x="783" y="-379.8" font-family="arial" font-size="14.00" fill="#377eb8">true</text>
</g>
<!-- st024&#45;&gt;st024 -->
<g id="edge19" class="edge">
<title>st024&#45;&gt;st024</title>
<path fill="none" stroke="#000000" d="M1030.7202,-386.1756C1029.6411,-395.9095 1037.7344,-404 1055,-404 1065.791,-404 1072.9991,-400.8397 1076.6242,-396.093"/>
<polygon fill="#000000" stroke="#000000" points="1080.074,-396.7407 1079.2798,-386.1756 1073.3122,-394.93 1080.074,-396.7407"/>
<text text-anchor="start" x="1030.5" y="-407.8" font-family="arial" font-size="14.00" fill="#377eb8">c0 &lt; 50</text>
</g>
<!-- st024&#45;&gt;st0124 -->
<g id="edge22" class="edge">
<title>st024&#45;&gt;st0124</title>
<path fill="none" stroke="#000000" d="M1002.165,-335.8297C990.033,-328.9223 977.5963,-320.8631 967,-312 957.3095,-303.8945 959.3009,-297.3142 949,-290 937.6204,-281.9199 912.3107,-271.7778 885.4607,-262.3527"/>
<polygon fill="#000000" stroke="#000000" points="886.5144,-259.0138 875.9197,-259.0534 884.2267,-265.6294 886.5144,-259.0138"/>
<text text-anchor="start" x="900" y="-293.8" font-family="arial" font-size="14.00" fill="#377eb8">c0 &lt; 50</text>
</g>
<!-- st0124&#45;&gt;st0 -->
<g id="edge24" class="edge">
<title>st0124&#45;&gt;st0</title>
<path fill="none" stroke="#000000" d="M708.8764,-237.9417C674.0467,-239.9776 633.5528,-242.9139 597,-247 437.7272,-264.8047 250.1427,-298.3175 167.1789,-313.7894"/>
<polygon fill="#000000" stroke="#000000" points="166.3035,-310.3924 157.1184,-315.6729 167.5917,-317.2728 166.3035,-310.3924"/>
<text text-anchor="start" x="368.5" y="-282.8" font-family="arial" font-size="14.00" fill="#377eb8">R&#39;</text>
</g>
<!-- st0124&#45;&gt;st012 -->
<g id="edge28" class="edge">
<title>st0124&#45;&gt;st012</title>
<path fill="none" stroke="#000000" d="M708.8541,-219.712C702.8148,-218.7753 696.8183,-217.8627 691,-217 641.3209,-209.6339 628.9622,-207.104 579,-202 502.9175,-194.2276 415.593,-188.4333 355.3268,-184.9219"/>
<polygon fill="#000000" stroke="#000000" points="355.3313,-181.4164 345.1465,-184.3354 354.9287,-188.4048 355.3313,-181.4164"/>
<text text-anchor="start" x="445.5" y="-205.8" font-family="arial" font-size="14.00" fill="#377eb8">(R&#39; || c0 &gt;= 50)</text>
</g>
<!-- st0124&#45;&gt;st01234 -->
<g id="edge30" class="edge">
<title>st0124&#45;&gt;st01234</title>
<path fill="none" stroke="#000000" d="M882.0503,-232.8784C1005.0299,-231.5139 1219.4436,-230.065 1255,-236 1343.8614,-250.8324 1371.4362,-251.9443 1447,-301 1478.8237,-321.6599 1507.4089,-354.4108 1526.2552,-378.9932"/>
<polygon fill="#000000" stroke="#000000" points="1523.4577,-381.0966 1532.2639,-386.9875 1529.0534,-376.8907 1523.4577,-381.0966"/>
<text text-anchor="start" x="1195.5" y="-239.8" font-family="arial" font-size="14.00" fill="#377eb8">true</text>
</g>
<!-- st0124&#45;&gt;st02 -->
<g id="edge25" class="edge">
<title>st0124&#45;&gt;st02</title>
<path fill="none" stroke="#000000" d="M882.1713,-222.3592C888.2045,-221.5579 894.1928,-220.7652 900,-220 1057.7333,-199.2149 1098.6953,-203.6754 1255,-174 1257.5057,-173.5243 1260.0484,-173.0187 1262.6119,-172.4893"/>
<polygon fill="#000000" stroke="#000000" points="1263.5314,-175.8715 1272.5691,-170.3424 1262.056,-169.0288 1263.5314,-175.8715"/>
<text text-anchor="start" x="1008" y="-214.8" font-family="arial" font-size="14.00" fill="#377eb8">(R&#39; || c0 &gt;= 50)</text>
</g>
<!-- st0124&#45;&gt;st0234 -->
<g id="edge27" class="edge">
<title>st0124&#45;&gt;st0234</title>
<path fill="none" stroke="#000000" d="M778.0175,-259.4428C759.5216,-284.1066 727.9351,-320.3088 691,-338 672.8362,-346.7001 630.2806,-352.0345 589.2115,-355.2663"/>
<polygon fill="#000000" stroke="#000000" points="588.8083,-351.7866 579.0976,-356.0236 589.331,-358.7671 588.8083,-351.7866"/>
<text text-anchor="start" x="631.5" y="-357.8" font-family="arial" font-size="14.00" fill="#377eb8">true</text>
</g>
<!-- st0124&#45;&gt;st024 -->
<g id="edge26" class="edge">
<title>st0124&#45;&gt;st024</title>
<path fill="none" stroke="#000000" d="M828.0666,-259.2511C848.0496,-273.9357 874.6006,-292.0423 900,-305 920.2035,-315.307 942.7567,-324.6002 964.2672,-332.5193"/>
<polygon fill="#000000" stroke="#000000" points="963.143,-335.8346 973.7373,-335.9436 965.5233,-329.2517 963.143,-335.8346"/>
<text text-anchor="start" x="900" y="-328.8" font-family="arial" font-size="14.00" fill="#377eb8">c0 &lt; 50</text>
</g>
<!-- st0124&#45;&gt;st0124 -->
<g id="edge29" class="edge">
<title>st0124&#45;&gt;st0124</title>
<path fill="none" stroke="#000000" d="M771.5938,-259.1756C770.5313,-268.9095 778.5,-277 795.5,-277 806.125,-277 813.2222,-273.8397 816.7915,-269.093"/>
<polygon fill="#000000" stroke="#000000" points="820.2411,-269.7375 819.4063,-259.1756 813.4724,-267.9529 820.2411,-269.7375"/>
<text text-anchor="start" x="771" y="-280.8" font-family="arial" font-size="14.00" fill="#377eb8">c0 &lt; 50</text>
</g>
</g>
</svg>
