<?xml version="1.0" encoding="UTF-8" standalone="no"?>
<!DOCTYPE svg PUBLIC "-//W3C//DTD SVG 1.1//EN"
 "http://www.w3.org/Graphics/SVG/1.1/DTD/svg11.dtd">
<!-- Generated by graphviz version 2.43.0 (0)
 -->
<!-- Title: G Pages: 1 -->
<svg width="1219pt" height="501pt"
 viewBox="0.00 0.00 1219.00 501.09" xmlns="http://www.w3.org/2000/svg" xmlns:xlink="http://www.w3.org/1999/xlink">
<g id="graph0" class="graph" transform="scale(1 1) rotate(0) translate(4 497.09)">
<title>G</title>
<polygon fill="white" stroke="transparent" points="-4,4 -4,-497.09 1215,-497.09 1215,4 -4,4"/>
<!-- _st0 -->
<!-- st0 -->
<g id="node2" class="node">
<title>st0</title>
<polygon fill="none" stroke="black" points="146.5,-359.2 92.5,-359.2 92.5,-309.2 146.5,-309.2 146.5,-359.2"/>
<text text-anchor="start" x="109.5" y="-345" font-family="arial" font-weight="bold" font-size="14.00">st0</text>
<text text-anchor="start" x="111.5" y="-331" font-family="arial" font-size="14.00" fill="#984ea3">!Q</text>
<text text-anchor="start" x="107.5" y="-317" font-family="arial" font-size="14.00" fill="#ff7f00">true</text>
</g>
<!-- _st0&#45;&gt;st0 -->
<g id="edge1" class="edge">
<title>_st0&#45;&gt;st0</title>
<path fill="none" stroke="black" d="M54.18,-334.2C62.9,-334.2 72.78,-334.2 82.14,-334.2"/>
<polygon fill="black" stroke="black" points="82.38,-337.7 92.38,-334.2 82.38,-330.7 82.38,-337.7"/>
</g>
<!-- st0&#45;&gt;st0 -->
<g id="edge4" class="edge">
<title>st0&#45;&gt;st0</title>
<path fill="none" stroke="black" d="M110.91,-359.38C110.53,-369.11 113.39,-377.2 119.5,-377.2 123.22,-377.2 125.74,-374.2 127.05,-369.65"/>
<polygon fill="black" stroke="black" points="130.57,-369.68 128.09,-359.38 123.6,-368.98 130.57,-369.68"/>
<text text-anchor="start" x="107.5" y="-381" font-family="arial" font-size="14.00" fill="#377eb8">true</text>
</g>
<!-- st012 -->
<g id="node4" class="node">
<title>st012</title>
<polygon fill="none" stroke="black" points="283,-226.2 208,-226.2 208,-176.2 283,-176.2 283,-226.2"/>
<text text-anchor="start" x="228" y="-212" font-family="arial" font-weight="bold" font-size="14.00">st012</text>
<text text-anchor="start" x="216" y="-198" font-family="arial" font-size="14.00" fill="#984ea3">(Q &amp;&amp; !S)</text>
<text text-anchor="start" x="233.5" y="-184" font-family="arial" font-size="14.00" fill="#ff7f00">true</text>
</g>
<!-- st0&#45;&gt;st012 -->
<g id="edge5" class="edge">
<title>st0&#45;&gt;st012</title>
<path fill="none" stroke="black" d="M143.82,-309.19C163.62,-287.96 192.16,-257.34 213.81,-234.12"/>
<polygon fill="black" stroke="black" points="216.6,-236.26 220.86,-226.56 211.48,-231.49 216.6,-236.26"/>
<text text-anchor="start" x="166" y="-287" font-family="arial" font-size="14.00" fill="#377eb8">true</text>
</g>
<!-- st01234 -->
<g id="node6" class="node">
<title>st01234</title>
<polygon fill="none" stroke="black" points="459,-318.2 343,-318.2 343,-268.2 459,-268.2 459,-318.2"/>
<text text-anchor="start" x="376" y="-304" font-family="arial" font-weight="bold" font-size="14.00">st01234</text>
<text text-anchor="start" x="351" y="-290" font-family="arial" font-size="14.00" fill="#984ea3">(Q &amp;&amp; (R &amp;&amp; S))</text>
<text text-anchor="start" x="389" y="-276" font-family="arial" font-size="14.00" fill="#ff7f00">true</text>
</g>
<!-- st0&#45;&gt;st01234 -->
<g id="edge6" class="edge">
<title>st0&#45;&gt;st01234</title>
<path fill="none" stroke="black" d="M146.55,-333.64C178.77,-332.62 235.23,-329.83 283,-322.2 299.34,-319.59 316.76,-315.83 333.02,-311.87"/>
<polygon fill="black" stroke="black" points="334.11,-315.2 342.97,-309.39 332.42,-308.41 334.11,-315.2"/>
<text text-anchor="start" x="233.5" y="-334" font-family="arial" font-size="14.00" fill="#377eb8">true</text>
</g>
<!-- _st012 -->
<!-- _st012&#45;&gt;st012 -->
<g id="edge2" class="edge">
<title>_st012&#45;&gt;st012</title>
<path fill="none" stroke="black" d="M148.02,-201.2C162.56,-201.2 180.8,-201.2 197.5,-201.2"/>
<polygon fill="black" stroke="black" points="197.65,-204.7 207.65,-201.2 197.65,-197.7 197.65,-204.7"/>
</g>
<!-- st012&#45;&gt;st012 -->
<g id="edge13" class="edge">
<title>st012&#45;&gt;st012</title>
<path fill="none" stroke="black" d="M233.17,-226.38C232.63,-236.11 236.73,-244.2 245.5,-244.2 250.98,-244.2 254.64,-241.04 256.48,-236.3"/>
<polygon fill="black" stroke="black" points="259.95,-236.76 257.83,-226.38 253.01,-235.82 259.95,-236.76"/>
<text text-anchor="start" x="233.5" y="-248" font-family="arial" font-size="14.00" fill="#377eb8">true</text>
</g>
<!-- st012&#45;&gt;st01234 -->
<g id="edge14" class="edge">
<title>st012&#45;&gt;st01234</title>
<path fill="none" stroke="black" d="M283.27,-223.24C303.07,-235.11 327.79,-249.93 349.39,-262.87"/>
<polygon fill="black" stroke="black" points="347.73,-265.96 358.11,-268.1 351.33,-259.95 347.73,-265.96"/>
<text text-anchor="start" x="301" y="-251" font-family="arial" font-size="14.00" fill="#377eb8">true</text>
</g>
<!-- st02 -->
<g id="node7" class="node">
<title>st02</title>
<polygon fill="none" stroke="black" points="1211,-213.2 1132,-213.2 1132,-163.2 1211,-163.2 1211,-213.2"/>
<text text-anchor="start" x="1157.5" y="-199" font-family="arial" font-weight="bold" font-size="14.00">st02</text>
<text text-anchor="start" x="1140" y="-185" font-family="arial" font-size="14.00" fill="#984ea3">(!Q &amp;&amp; !S)</text>
<text text-anchor="start" x="1159.5" y="-171" font-family="arial" font-size="14.00" fill="#ff7f00">true</text>
</g>
<!-- st012&#45;&gt;st02 -->
<g id="edge11" class="edge">
<title>st012&#45;&gt;st02</title>
<path fill="none" stroke="black" d="M256.78,-175.85C276.96,-130.73 326.28,-41.2 400,-41.2 400,-41.2 400,-41.2 989.5,-41.2 1060.89,-41.2 1119.81,-110.96 1149.57,-154.37"/>
<polygon fill="black" stroke="black" points="1146.83,-156.57 1155.3,-162.93 1152.65,-152.67 1146.83,-156.57"/>
<text text-anchor="start" x="685" y="-45" font-family="arial" font-size="14.00" fill="#377eb8">true</text>
</g>
<!-- st0234 -->
<g id="node8" class="node">
<title>st0234</title>
<polygon fill="none" stroke="black" points="660,-440.2 541,-440.2 541,-390.2 660,-390.2 660,-440.2"/>
<text text-anchor="start" x="579" y="-426" font-family="arial" font-weight="bold" font-size="14.00">st0234</text>
<text text-anchor="start" x="549" y="-412" font-family="arial" font-size="14.00" fill="#984ea3">(!Q &amp;&amp; (R &amp;&amp; S))</text>
<text text-anchor="start" x="588.5" y="-398" font-family="arial" font-size="14.00" fill="#ff7f00">true</text>
</g>
<!-- st012&#45;&gt;st0234 -->
<g id="edge12" class="edge">
<title>st012&#45;&gt;st0234</title>
<path fill="none" stroke="black" d="M260.4,-226.24C284.11,-268.61 330.99,-350.79 343,-360.2 396.5,-402.11 474.77,-413.85 530.77,-416.35"/>
<polygon fill="black" stroke="black" points="530.83,-419.86 540.95,-416.72 531.08,-412.86 530.83,-419.86"/>
<text text-anchor="start" x="389" y="-411" font-family="arial" font-size="14.00" fill="#377eb8">true</text>
</g>
<!-- _st01234 -->
<!-- _st01234&#45;&gt;st01234 -->
<g id="edge3" class="edge">
<title>_st01234&#45;&gt;st01234</title>
<path fill="none" stroke="black" d="M281.72,-294.74C296.88,-294.55 315.15,-294.31 332.74,-294.08"/>
<polygon fill="black" stroke="black" points="333.04,-297.58 342.99,-293.95 332.94,-290.58 333.04,-297.58"/>
</g>
<!-- st01234&#45;&gt;st01234 -->
<g id="edge34" class="edge">
<title>st01234&#45;&gt;st01234</title>
<path fill="none" stroke="black" d="M384.56,-318.38C383.83,-328.11 389.31,-336.2 401,-336.2 408.3,-336.2 413.18,-333.04 415.64,-328.3"/>
<polygon fill="black" stroke="black" points="419.1,-328.84 417.44,-318.38 412.21,-327.59 419.1,-328.84"/>
<text text-anchor="start" x="389" y="-340" font-family="arial" font-size="14.00" fill="#377eb8">true</text>
</g>
<!-- st01234&#45;&gt;st0234 -->
<g id="edge32" class="edge">
<title>st01234&#45;&gt;st0234</title>
<path fill="none" stroke="black" d="M458.45,-318.21C464.7,-320.93 470.98,-323.64 477,-326.2 497.35,-334.88 506.24,-330.77 523,-345.2 534.78,-355.35 530.34,-363.89 541,-375.2 543.72,-378.09 546.69,-380.89 549.79,-383.57"/>
<polygon fill="black" stroke="black" points="547.76,-386.42 557.73,-389.98 552.15,-380.98 547.76,-386.42"/>
<text text-anchor="start" x="488" y="-349" font-family="arial" font-size="14.00" fill="#377eb8">true</text>
</g>
<!-- st024 -->
<g id="node9" class="node">
<title>st024</title>
<polygon fill="none" stroke="black" points="1050,-286.2 927,-286.2 927,-236.2 1050,-236.2 1050,-286.2"/>
<text text-anchor="start" x="971" y="-272" font-family="arial" font-weight="bold" font-size="14.00">st024</text>
<text text-anchor="start" x="935" y="-258" font-family="arial" font-size="14.00" fill="#984ea3">(!Q &amp;&amp; (R &amp;&amp; !S))</text>
<text text-anchor="start" x="965.5" y="-244" font-family="arial" font-size="14.00" fill="#ff7f00">c0 &lt;= 5</text>
</g>
<!-- st01234&#45;&gt;st024 -->
<g id="edge31" class="edge">
<title>st01234&#45;&gt;st024</title>
<path fill="none" stroke="black" d="M411.67,-267.91C423.04,-242 444.58,-202.93 477,-184.2 569.19,-130.96 610.99,-150.72 716,-168.2 788.91,-180.34 868.48,-209.64 922.52,-232.14"/>
<polygon fill="black" stroke="black" points="921.4,-235.46 931.97,-236.11 924.11,-229.01 921.4,-235.46"/>
<text text-anchor="start" x="685" y="-187" font-family="arial" font-size="14.00" fill="#377eb8">true</text>
<text text-anchor="start" x="678" y="-172" font-family="arial" font-size="14.00">c0 :=0</text>
</g>
<!-- st0124 -->
<g id="node10" class="node">
<title>st0124</title>
<polygon fill="none" stroke="black" points="853,-336.2 734,-336.2 734,-286.2 853,-286.2 853,-336.2"/>
<text text-anchor="start" x="772" y="-322" font-family="arial" font-weight="bold" font-size="14.00">st0124</text>
<text text-anchor="start" x="742" y="-308" font-family="arial" font-size="14.00" fill="#984ea3">(Q &amp;&amp; (R &amp;&amp; !S))</text>
<text text-anchor="start" x="770.5" y="-294" font-family="arial" font-size="14.00" fill="#ff7f00">c0 &lt;= 5</text>
</g>
<!-- st01234&#45;&gt;st0124 -->
<g id="edge33" class="edge">
<title>st01234&#45;&gt;st0124</title>
<path fill="none" stroke="black" d="M459.23,-289.59C511.58,-286.98 591.12,-284.78 660,-290.2 680.76,-291.84 703.17,-294.89 723.56,-298.17"/>
<polygon fill="black" stroke="black" points="723.27,-301.67 733.7,-299.85 724.41,-294.77 723.27,-301.67"/>
<text text-anchor="start" x="588.5" y="-309" font-family="arial" font-size="14.00" fill="#377eb8">true</text>
<text text-anchor="start" x="581.5" y="-294" font-family="arial" font-size="14.00">c0 :=0</text>
</g>
<!-- st02&#45;&gt;st012 -->
<g id="edge9" class="edge">
<title>st02&#45;&gt;st012</title>
<path fill="none" stroke="black" d="M1169.16,-162.97C1165.84,-127.12 1154.26,-61.94 1114,-27.2 1071.33,9.61 1045.85,-3.2 989.5,-3.2 400,-3.2 400,-3.2 400,-3.2 354.73,-3.2 334.05,3.74 301,-27.2 262.37,-63.37 250.95,-126.5 247.68,-165.96"/>
<polygon fill="black" stroke="black" points="244.17,-165.96 246.97,-176.17 251.15,-166.44 244.17,-165.96"/>
<text text-anchor="start" x="685" y="-7" font-family="arial" font-size="14.00" fill="#377eb8">true</text>
</g>
<!-- st02&#45;&gt;st01234 -->
<g id="edge10" class="edge">
<title>st02&#45;&gt;st01234</title>
<path fill="none" stroke="black" d="M1131.75,-168.08C1095.85,-151.33 1040.48,-130.2 989.5,-130.2 599.5,-130.2 599.5,-130.2 599.5,-130.2 543.55,-130.2 521.66,-125.5 477,-159.2 444.07,-184.06 423.54,-227.83 412.46,-258.56"/>
<polygon fill="black" stroke="black" points="409.14,-257.45 409.19,-268.04 415.76,-259.73 409.14,-257.45"/>
<text text-anchor="start" x="781.5" y="-134" font-family="arial" font-size="14.00" fill="#377eb8">true</text>
</g>
<!-- st02&#45;&gt;st02 -->
<g id="edge7" class="edge">
<title>st02&#45;&gt;st02</title>
<path fill="none" stroke="black" d="M1156.56,-213.38C1155.89,-223.11 1160.88,-231.2 1171.5,-231.2 1178.14,-231.2 1182.58,-228.04 1184.81,-223.3"/>
<polygon fill="black" stroke="black" points="1188.27,-223.81 1186.44,-213.38 1181.36,-222.68 1188.27,-223.81"/>
<text text-anchor="start" x="1159.5" y="-235" font-family="arial" font-size="14.00" fill="#377eb8">true</text>
</g>
<!-- st02&#45;&gt;st0234 -->
<g id="edge8" class="edge">
<title>st02&#45;&gt;st0234</title>
<path fill="none" stroke="black" d="M1162.62,-213.56C1153.65,-239.77 1137.19,-281.01 1114,-311.2 1029.39,-421.39 986.83,-445.92 853,-483.2 802.05,-497.4 785.56,-494.98 734,-483.2 707.06,-477.05 702.63,-468.73 678,-456.2 671.01,-452.65 663.7,-448.84 656.5,-445.04"/>
<polygon fill="black" stroke="black" points="657.92,-441.84 647.45,-440.24 654.64,-448.02 657.92,-441.84"/>
<text text-anchor="start" x="878" y="-481" font-family="arial" font-size="14.00" fill="#377eb8">true</text>
</g>
<!-- st0234&#45;&gt;st01234 -->
<g id="edge30" class="edge">
<title>st0234&#45;&gt;st01234</title>
<path fill="none" stroke="black" d="M540.7,-393.05C515.09,-382.93 488.35,-371.58 477,-364.2 460.54,-353.5 444.43,-338.97 431.4,-325.83"/>
<polygon fill="black" stroke="black" points="433.57,-323.04 424.09,-318.3 428.54,-327.92 433.57,-323.04"/>
<text text-anchor="start" x="488" y="-388" font-family="arial" font-size="14.00" fill="#377eb8">true</text>
</g>
<!-- st0234&#45;&gt;st0234 -->
<g id="edge28" class="edge">
<title>st0234&#45;&gt;st0234</title>
<path fill="none" stroke="black" d="M582.57,-440.38C581.77,-450.11 587.75,-458.2 600.5,-458.2 608.47,-458.2 613.79,-455.04 616.47,-450.3"/>
<polygon fill="black" stroke="black" points="619.92,-450.87 618.43,-440.38 613.06,-449.51 619.92,-450.87"/>
<text text-anchor="start" x="588.5" y="-462" font-family="arial" font-size="14.00" fill="#377eb8">true</text>
</g>
<!-- st0234&#45;&gt;st024 -->
<g id="edge27" class="edge">
<title>st0234&#45;&gt;st024</title>
<path fill="none" stroke="black" d="M660.03,-434.46C712.91,-448.39 791.64,-460.33 853,-432.2 887.66,-416.31 888.95,-399.64 909,-367.2 919.9,-349.58 915.63,-341.52 927,-324.2 934.09,-313.4 943.16,-302.81 952.12,-293.48"/>
<polygon fill="black" stroke="black" points="954.68,-295.87 959.23,-286.3 949.71,-290.94 954.68,-295.87"/>
<text text-anchor="start" x="781.5" y="-468" font-family="arial" font-size="14.00" fill="#377eb8">true</text>
<text text-anchor="start" x="774.5" y="-453" font-family="arial" font-size="14.00">c0 :=0</text>
</g>
<!-- st0234&#45;&gt;st0124 -->
<g id="edge29" class="edge">
<title>st0234&#45;&gt;st0124</title>
<path fill="none" stroke="black" d="M660.19,-391.57C678.43,-383.57 698.36,-374.13 716,-364.2 727.67,-357.64 739.8,-349.77 750.87,-342.13"/>
<polygon fill="black" stroke="black" points="752.93,-344.96 759.11,-336.35 748.91,-339.23 752.93,-344.96"/>
<text text-anchor="start" x="685" y="-401" font-family="arial" font-size="14.00" fill="#377eb8">true</text>
<text text-anchor="start" x="678" y="-386" font-family="arial" font-size="14.00">c0 :=0</text>
</g>
<!-- st024&#45;&gt;st012 -->
<g id="edge18" class="edge">
<title>st024&#45;&gt;st012</title>
<path fill="none" stroke="black" d="M974.18,-235.97C953.65,-200.04 910.52,-135.49 853,-108.2 659.84,-16.57 396.79,-125.77 292.15,-177.23"/>
<polygon fill="black" stroke="black" points="290.51,-174.13 283.11,-181.72 293.62,-180.4 290.51,-174.13"/>
<text text-anchor="start" x="577.5" y="-93" font-family="arial" font-size="14.00" fill="#377eb8">c0 &gt;= 5</text>
</g>
<!-- st024&#45;&gt;st01234 -->
<g id="edge20" class="edge">
<title>st024&#45;&gt;st01234</title>
<path fill="none" stroke="black" d="M926.72,-261.23C908.78,-261.37 889.09,-261.66 871,-262.2 695.72,-267.49 651.59,-266.81 477,-283.2 474.48,-283.44 471.92,-283.7 469.33,-283.97"/>
<polygon fill="black" stroke="black" points="468.82,-280.51 459.28,-285.1 469.6,-287.46 468.82,-280.51"/>
<text text-anchor="start" x="685" y="-272" font-family="arial" font-size="14.00" fill="#377eb8">true</text>
</g>
<!-- st024&#45;&gt;st02 -->
<g id="edge15" class="edge">
<title>st024&#45;&gt;st02</title>
<path fill="none" stroke="black" d="M1050.02,-236.79C1073.57,-227.3 1100.16,-216.57 1122.36,-207.62"/>
<polygon fill="black" stroke="black" points="1123.94,-210.75 1131.91,-203.77 1121.33,-204.26 1123.94,-210.75"/>
<text text-anchor="start" x="1068" y="-233" font-family="arial" font-size="14.00" fill="#377eb8">c0 &gt;= 5</text>
</g>
<!-- st024&#45;&gt;st0234 -->
<g id="edge17" class="edge">
<title>st024&#45;&gt;st0234</title>
<path fill="none" stroke="black" d="M965.19,-286.36C940.33,-312.91 897.71,-354.17 853,-378.2 797.34,-408.12 778.61,-407.68 716,-416.2 699.27,-418.48 694.89,-416.31 678,-416.2 675.59,-416.19 673.14,-416.17 670.66,-416.15"/>
<polygon fill="black" stroke="black" points="670.42,-412.65 660.39,-416.05 670.35,-419.65 670.42,-412.65"/>
<text text-anchor="start" x="781.5" y="-417" font-family="arial" font-size="14.00" fill="#377eb8">true</text>
</g>
<!-- st024&#45;&gt;st024 -->
<g id="edge16" class="edge">
<title>st024&#45;&gt;st024</title>
<path fill="none" stroke="black" d="M970.2,-286.38C969.38,-296.11 975.48,-304.2 988.5,-304.2 996.63,-304.2 1002.07,-301.04 1004.8,-296.3"/>
<polygon fill="black" stroke="black" points="1008.26,-296.87 1006.8,-286.38 1001.39,-295.49 1008.26,-296.87"/>
<text text-anchor="start" x="969.5" y="-308" font-family="arial" font-size="14.00" fill="#377eb8">c0 &lt; 5</text>
</g>
<!-- st024&#45;&gt;st0124 -->
<g id="edge19" class="edge">
<title>st024&#45;&gt;st0124</title>
<path fill="none" stroke="black" d="M932.8,-286.24C924.92,-289.24 916.83,-292.01 909,-294.2 894.31,-298.31 878.28,-301.48 862.98,-303.9"/>
<polygon fill="black" stroke="black" points="862.42,-300.44 853.05,-305.38 863.46,-307.36 862.42,-300.44"/>
<text text-anchor="start" x="871" y="-306" font-family="arial" font-size="14.00" fill="#377eb8">c0 &lt; 5</text>
</g>
<!-- st0124&#45;&gt;st012 -->
<g id="edge24" class="edge">
<title>st0124&#45;&gt;st012</title>
<path fill="none" stroke="black" d="M760.29,-286.09C747.23,-277.13 731.56,-267.87 716,-262.2 568.47,-208.44 379.68,-200.95 293.36,-200.61"/>
<polygon fill="black" stroke="black" points="293.11,-197.11 283.11,-200.6 293.1,-204.11 293.11,-197.11"/>
<text text-anchor="start" x="477" y="-221" font-family="arial" font-size="14.00" fill="#377eb8">c0 &gt;= 5</text>
</g>
<!-- st0124&#45;&gt;st01234 -->
<g id="edge26" class="edge">
<title>st0124&#45;&gt;st01234</title>
<path fill="none" stroke="black" d="M733.9,-319.56C682.83,-325.57 606.84,-331.46 541,-324.2 517.24,-321.59 491.6,-316.52 468.88,-311.24"/>
<polygon fill="black" stroke="black" points="469.55,-307.8 459.01,-308.88 467.92,-314.6 469.55,-307.8"/>
<text text-anchor="start" x="588.5" y="-331" font-family="arial" font-size="14.00" fill="#377eb8">true</text>
</g>
<!-- st0124&#45;&gt;st02 -->
<g id="edge21" class="edge">
<title>st0124&#45;&gt;st02</title>
<path fill="none" stroke="black" d="M853.18,-330.47C906.92,-344.64 987.37,-356.93 1050,-328.2 1097.16,-306.57 1132.84,-256.36 1152.71,-222.34"/>
<polygon fill="black" stroke="black" points="1156,-223.63 1157.9,-213.21 1149.92,-220.18 1156,-223.63"/>
<text text-anchor="start" x="965.5" y="-349" font-family="arial" font-size="14.00" fill="#377eb8">c0 &gt;= 5</text>
</g>
<!-- st0124&#45;&gt;st0234 -->
<g id="edge23" class="edge">
<title>st0124&#45;&gt;st0234</title>
<path fill="none" stroke="black" d="M733.97,-322.79C714.85,-328.53 694.34,-336.96 678,-349.2 666.75,-357.63 669.97,-365.29 660,-375.2 657.01,-378.18 653.76,-381.08 650.39,-383.86"/>
<polygon fill="black" stroke="black" points="648.08,-381.23 642.35,-390.14 652.39,-386.75 648.08,-381.23"/>
<text text-anchor="start" x="685" y="-353" font-family="arial" font-size="14.00" fill="#377eb8">true</text>
</g>
<!-- st0124&#45;&gt;st024 -->
<g id="edge22" class="edge">
<title>st0124&#45;&gt;st024</title>
<path fill="none" stroke="black" d="M841.74,-286.12C851.22,-281.9 861.27,-278 871,-275.2 885.62,-271 901.61,-268.06 916.94,-266.01"/>
<polygon fill="black" stroke="black" points="917.41,-269.47 926.9,-264.78 916.55,-262.53 917.41,-269.47"/>
<text text-anchor="start" x="871" y="-279" font-family="arial" font-size="14.00" fill="#377eb8">c0 &lt; 5</text>
</g>
<!-- st0124&#45;&gt;st0124 -->
<g id="edge25" class="edge">
<title>st0124&#45;&gt;st0124</title>
<path fill="none" stroke="black" d="M775.57,-336.38C774.77,-346.11 780.75,-354.2 793.5,-354.2 801.47,-354.2 806.79,-351.04 809.47,-346.3"/>
<polygon fill="black" stroke="black" points="812.92,-346.87 811.43,-336.38 806.06,-345.51 812.92,-346.87"/>
<text text-anchor="start" x="774.5" y="-358" font-family="arial" font-size="14.00" fill="#377eb8">c0 &lt; 5</text>
</g>
</g>
</svg>
