<?xml version="1.0" encoding="UTF-8" standalone="no"?>
<!DOCTYPE svg PUBLIC "-//W3C//DTD SVG 1.1//EN"
 "http://www.w3.org/Graphics/SVG/1.1/DTD/svg11.dtd">
<!-- Generated by graphviz version 2.40.1 (20161225.0304)
 -->
<!-- Title: G Pages: 1 -->
<svg width="449pt" height="161pt"
 viewBox="0.00 0.00 449.00 161.00" xmlns="http://www.w3.org/2000/svg" xmlns:xlink="http://www.w3.org/1999/xlink">
<g id="graph0" class="graph" transform="scale(1 1) rotate(0) translate(4 157)">
<title>G</title>
<polygon fill="#ffffff" stroke="transparent" points="-4,4 -4,-157 445,-157 445,4 -4,4"/>
<!-- _st0 -->
<!-- st0 -->
<g id="node2" class="node">
<title>st0</title>
<polygon fill="none" stroke="#000000" points="148.5,-120 94.5,-120 94.5,-70 148.5,-70 148.5,-120"/>
<text text-anchor="start" x="110.5" y="-105.8" font-family="arial" font-weight="bold" font-size="14.00" fill="#000000">st0</text>
<text text-anchor="start" x="114" y="-91.8" font-family="arial" font-size="14.00" fill="#984ea3">!R</text>
<text text-anchor="start" x="109" y="-77.8" font-family="arial" font-size="14.00" fill="#ff7f00">true</text>
</g>
<!-- _st0&#45;&gt;st0 -->
<g id="edge1" class="edge">
<title>_st0&#45;&gt;st0</title>
<path fill="none" stroke="#000000" d="M54.0799,-95C63.471,-95 74.1709,-95 84.237,-95"/>
<polygon fill="#000000" stroke="#000000" points="84.4162,-98.5001 94.4161,-95 84.4161,-91.5001 84.4162,-98.5001"/>
</g>
<!-- st0&#45;&gt;st0 -->
<g id="edge3" class="edge">
<title>st0&#45;&gt;st0</title>
<path fill="none" stroke="#000000" d="M112.5352,-120.1756C112.1367,-129.9095 115.125,-138 121.5,-138 125.3848,-138 128.0119,-134.9957 129.3814,-130.446"/>
<polygon fill="#000000" stroke="#000000" points="132.8964,-130.4877 130.4648,-120.1756 125.935,-129.7532 132.8964,-130.4877"/>
<text text-anchor="start" x="109" y="-141.8" font-family="arial" font-size="14.00" fill="#377eb8">true</text>
</g>
<!-- st012 -->
<g id="node4" class="node">
<title>st012</title>
<polygon fill="none" stroke="#000000" points="287,-50 213,-50 213,0 287,0 287,-50"/>
<text text-anchor="start" x="231" y="-35.8" font-family="arial" font-weight="bold" font-size="14.00" fill="#000000">st012</text>
<text text-anchor="start" x="221" y="-21.8" font-family="arial" font-size="14.00" fill="#984ea3">(Q &amp;&amp; R)</text>
<text text-anchor="start" x="237.5" y="-7.8" font-family="arial" font-size="14.00" fill="#ff7f00">true</text>
</g>
<!-- st0&#45;&gt;st012 -->
<g id="edge4" class="edge">
<title>st0&#45;&gt;st012</title>
<path fill="none" stroke="#000000" d="M148.7515,-80.1548C164.7061,-71.4636 185.278,-60.2571 203.7068,-50.2181"/>
<polygon fill="#000000" stroke="#000000" points="205.4446,-53.2571 212.5519,-45.3998 202.096,-47.11 205.4446,-53.2571"/>
<text text-anchor="start" x="170" y="-72.8" font-family="arial" font-size="14.00" fill="#377eb8">true</text>
</g>
<!-- _st012 -->
<!-- _st012&#45;&gt;st012 -->
<g id="edge2" class="edge">
<title>_st012&#45;&gt;st012</title>
<path fill="none" stroke="#000000" d="M152.279,-25C167.2819,-25 185.6631,-25 202.4194,-25"/>
<polygon fill="#000000" stroke="#000000" points="202.5978,-28.5001 212.5978,-25 202.5977,-21.5001 202.5978,-28.5001"/>
</g>
<!-- st012&#45;&gt;st012 -->
<g id="edge9" class="edge">
<title>st012&#45;&gt;st012</title>
<path fill="none" stroke="#000000" d="M237.6733,-50.1756C237.1255,-59.9095 241.2344,-68 250,-68 255.4785,-68 259.138,-64.8397 260.9784,-60.093"/>
<polygon fill="#000000" stroke="#000000" points="264.4476,-60.556 262.3267,-50.1756 257.5114,-59.613 264.4476,-60.556"/>
<text text-anchor="start" x="237.5" y="-71.8" font-family="arial" font-size="14.00" fill="#377eb8">true</text>
</g>
<!-- st02 -->
<g id="node5" class="node">
<title>st02</title>
<polygon fill="none" stroke="#000000" points="441,-88 363,-88 363,-38 441,-38 441,-88"/>
<text text-anchor="start" x="387" y="-73.8" font-family="arial" font-weight="bold" font-size="14.00" fill="#000000">st02</text>
<text text-anchor="start" x="371" y="-59.8" font-family="arial" font-size="14.00" fill="#984ea3">(Q &amp;&amp; !R)</text>
<text text-anchor="start" x="377.5" y="-45.8" font-family="arial" font-size="14.00" fill="#ff7f00">c0 &lt;= 5</text>
</g>
<!-- st012&#45;&gt;st02 -->
<g id="edge8" class="edge">
<title>st012&#45;&gt;st02</title>
<path fill="none" stroke="#000000" d="M287.194,-36.1482C293.1333,-37.8336 299.2234,-39.5061 305,-41 320.4968,-45.0076 337.4888,-48.9974 352.8613,-52.4568"/>
<polygon fill="#000000" stroke="#000000" points="352.1756,-55.8898 362.6975,-54.6484 353.698,-49.0573 352.1756,-55.8898"/>
<text text-anchor="start" x="312.5" y="-69.8" font-family="arial" font-size="14.00" fill="#377eb8">true</text>
<text text-anchor="start" x="305" y="-54.8" font-family="arial" font-size="14.00" fill="#000000">c0 :=0</text>
</g>
<!-- st02&#45;&gt;st0 -->
<g id="edge5" class="edge">
<title>st02&#45;&gt;st0</title>
<path fill="none" stroke="#000000" d="M362.8543,-79.5634C356.9468,-81.6364 350.8668,-83.538 345,-85 281.1493,-100.9118 203.9249,-100.1427 158.9923,-97.8024"/>
<polygon fill="#000000" stroke="#000000" points="159.0166,-94.2981 148.8318,-97.2171 158.6139,-101.2865 159.0166,-94.2981"/>
<text text-anchor="start" x="225.5" y="-102.8" font-family="arial" font-size="14.00" fill="#377eb8">c0 &gt;= 5</text>
</g>
<!-- st02&#45;&gt;st012 -->
<g id="edge7" class="edge">
<title>st02&#45;&gt;st012</title>
<path fill="none" stroke="#000000" d="M370.124,-37.8786C362.3187,-33.0183 353.6968,-28.625 345,-26 329.9893,-21.4692 313.027,-20.1654 297.6323,-20.3168"/>
<polygon fill="#000000" stroke="#000000" points="297.1569,-16.8296 287.2681,-20.6323 297.37,-23.8263 297.1569,-16.8296"/>
<text text-anchor="start" x="312.5" y="-29.8" font-family="arial" font-size="14.00" fill="#377eb8">true</text>
</g>
<!-- st02&#45;&gt;st02 -->
<g id="edge6" class="edge">
<title>st02&#45;&gt;st02</title>
<path fill="none" stroke="#000000" d="M387.8057,-88.1756C387.1748,-97.9095 391.9063,-106 402,-106 408.3086,-106 412.5225,-102.8397 414.6418,-98.093"/>
<polygon fill="#000000" stroke="#000000" points="418.1055,-98.5966 416.1943,-88.1756 411.1898,-97.514 418.1055,-98.5966"/>
<text text-anchor="start" x="382" y="-109.8" font-family="arial" font-size="14.00" fill="#377eb8">c0 &lt; 5</text>
</g>
</g>
</svg>
