<?xml version="1.0" encoding="UTF-8" standalone="no"?>
<!DOCTYPE svg PUBLIC "-//W3C//DTD SVG 1.1//EN"
 "http://www.w3.org/Graphics/SVG/1.1/DTD/svg11.dtd">
<!-- Generated by graphviz version 2.43.0 (0)
 -->
<!-- Title: G Pages: 1 -->
<svg width="1658pt" height="963pt"
 viewBox="0.00 0.00 1658.00 963.00" xmlns="http://www.w3.org/2000/svg" xmlns:xlink="http://www.w3.org/1999/xlink">
<g id="graph0" class="graph" transform="scale(1 1) rotate(0) translate(4 959)">
<title>G</title>
<polygon fill="white" stroke="transparent" points="-4,4 -4,-959 1654,-959 1654,4 -4,4"/>
<!-- _st0 -->
<!-- st0 -->
<g id="node2" class="node">
<title>st0</title>
<polygon fill="none" stroke="black" points="145,-749 91,-749 91,-699 145,-699 145,-749"/>
<text text-anchor="start" x="108" y="-734.8" font-family="arial" font-weight="bold" font-size="14.00">st0</text>
<text text-anchor="start" x="110" y="-720.8" font-family="arial" font-size="14.00" fill="#984ea3">!Q</text>
<text text-anchor="start" x="106" y="-706.8" font-family="arial" font-size="14.00" fill="#ff7f00">true</text>
</g>
<!-- _st0&#45;&gt;st0 -->
<g id="edge1" class="edge">
<title>_st0&#45;&gt;st0</title>
<path fill="none" stroke="black" d="M54.22,-724C62.55,-724 71.91,-724 80.82,-724"/>
<polygon fill="black" stroke="black" points="80.97,-727.5 90.97,-724 80.97,-720.5 80.97,-727.5"/>
</g>
<!-- st0&#45;&gt;st0 -->
<g id="edge5" class="edge">
<title>st0&#45;&gt;st0</title>
<path fill="none" stroke="black" d="M109.78,-749.18C109.42,-758.91 112.16,-767 118,-767 121.56,-767 123.97,-764 125.22,-759.45"/>
<polygon fill="black" stroke="black" points="128.74,-759.47 126.22,-749.18 121.77,-758.79 128.74,-759.47"/>
<text text-anchor="start" x="106" y="-770.8" font-family="arial" font-size="14.00" fill="#377eb8">true</text>
</g>
<!-- st01 -->
<g id="node4" class="node">
<title>st01</title>
<polygon fill="none" stroke="black" points="277,-466 205,-466 205,-416 277,-416 277,-466"/>
<text text-anchor="start" x="227" y="-451.8" font-family="arial" font-weight="bold" font-size="14.00">st01</text>
<text text-anchor="start" x="213" y="-437.8" font-family="arial" font-size="14.00" fill="#984ea3">(Q &amp;&amp; R)</text>
<text text-anchor="start" x="229" y="-423.8" font-family="arial" font-size="14.00" fill="#ff7f00">true</text>
</g>
<!-- st0&#45;&gt;st01 -->
<g id="edge6" class="edge">
<title>st0&#45;&gt;st01</title>
<path fill="none" stroke="black" d="M129.74,-698.89C151.44,-648.12 200.57,-533.22 225.26,-475.48"/>
<polygon fill="black" stroke="black" points="228.57,-476.63 229.29,-466.06 222.14,-473.88 228.57,-476.63"/>
<text text-anchor="start" x="163" y="-619.8" font-family="arial" font-size="14.00" fill="#377eb8">true</text>
</g>
<!-- st012 -->
<g id="node6" class="node">
<title>st012</title>
<polygon fill="none" stroke="black" points="1428,-642 1306,-642 1306,-592 1428,-592 1428,-642"/>
<text text-anchor="start" x="1349.5" y="-627.8" font-family="arial" font-weight="bold" font-size="14.00">st012</text>
<text text-anchor="start" x="1314" y="-613.8" font-family="arial" font-size="14.00" fill="#984ea3">(Q &amp;&amp; (!R &amp;&amp; !T))</text>
<text text-anchor="start" x="1355" y="-599.8" font-family="arial" font-size="14.00" fill="#ff7f00">true</text>
</g>
<!-- st0&#45;&gt;st012 -->
<g id="edge7" class="edge">
<title>st0&#45;&gt;st012</title>
<path fill="none" stroke="black" d="M138.8,-749.2C160.66,-773.95 198.32,-808 240,-808 240,-808 240,-808 1170,-808 1258.71,-808 1322.27,-706.41 1350.19,-651.41"/>
<polygon fill="black" stroke="black" points="1353.37,-652.88 1354.67,-642.36 1347.1,-649.77 1353.37,-652.88"/>
<text text-anchor="start" x="648" y="-811.8" font-family="arial" font-size="14.00" fill="#377eb8">true</text>
</g>
<!-- st01234 -->
<g id="node8" class="node">
<title>st01234</title>
<polygon fill="none" stroke="black" points="1650,-323 1488,-323 1488,-273 1650,-273 1650,-323"/>
<text text-anchor="start" x="1544" y="-308.8" font-family="arial" font-weight="bold" font-size="14.00">st01234</text>
<text text-anchor="start" x="1496" y="-294.8" font-family="arial" font-size="14.00" fill="#984ea3">(Q &amp;&amp; (!R &amp;&amp; (S &amp;&amp; T)))</text>
<text text-anchor="start" x="1557" y="-280.8" font-family="arial" font-size="14.00" fill="#ff7f00">true</text>
</g>
<!-- st0&#45;&gt;st01234 -->
<g id="edge8" class="edge">
<title>st0&#45;&gt;st01234</title>
<path fill="none" stroke="black" d="M121.65,-749.12C127.03,-795.46 140.64,-891.85 163,-916 187.35,-942.3 204.15,-940 240,-940 240,-940 240,-940 1368,-940 1414.57,-940 1438.31,-950.12 1470,-916 1549.58,-830.32 1564.62,-451.71 1567.39,-333.43"/>
<polygon fill="black" stroke="black" points="1570.9,-333.21 1567.62,-323.13 1563.9,-333.05 1570.9,-333.21"/>
<text text-anchor="start" x="768" y="-943.8" font-family="arial" font-size="14.00" fill="#377eb8">true</text>
</g>
<!-- _st01 -->
<!-- _st01&#45;&gt;st01 -->
<g id="edge2" class="edge">
<title>_st01&#45;&gt;st01</title>
<path fill="none" stroke="black" d="M128.49,-225.36C148.7,-264.43 196.22,-356.33 222.22,-406.62"/>
<polygon fill="black" stroke="black" points="219.27,-408.53 226.97,-415.81 225.49,-405.31 219.27,-408.53"/>
</g>
<!-- st01&#45;&gt;st0 -->
<g id="edge9" class="edge">
<title>st01&#45;&gt;st0</title>
<path fill="none" stroke="black" d="M216.96,-466.36C199.75,-486.57 176.89,-516.31 163,-546 141.15,-592.71 129.33,-651.59 123.6,-688.53"/>
<polygon fill="black" stroke="black" points="120.08,-688.38 122.08,-698.79 127.01,-689.41 120.08,-688.38"/>
<text text-anchor="start" x="168.5" y="-549.8" font-family="arial" font-size="14.00" fill="#377eb8">R&#39;</text>
</g>
<!-- st01&#45;&gt;st01 -->
<g id="edge12" class="edge">
<title>st01&#45;&gt;st01</title>
<path fill="none" stroke="black" d="M228.67,-466.18C228.13,-475.91 232.23,-484 241,-484 246.48,-484 250.14,-480.84 251.98,-476.09"/>
<polygon fill="black" stroke="black" points="255.45,-476.56 253.33,-466.18 248.51,-475.61 255.45,-476.56"/>
<text text-anchor="start" x="229" y="-487.8" font-family="arial" font-size="14.00" fill="#377eb8">true</text>
</g>
<!-- st01&#45;&gt;st012 -->
<g id="edge13" class="edge">
<title>st01&#45;&gt;st012</title>
<path fill="none" stroke="black" d="M277,-450.04C366.25,-472.57 609.88,-530.86 817,-551 839.95,-553.23 1209.53,-547.85 1232,-553 1247.94,-556.65 1281,-572.4 1310.28,-587.37"/>
<polygon fill="black" stroke="black" points="1308.74,-590.51 1319.23,-591.97 1311.94,-584.28 1308.74,-590.51"/>
<text text-anchor="start" x="768" y="-552.8" font-family="arial" font-size="14.00" fill="#377eb8">true</text>
</g>
<!-- st01&#45;&gt;st01234 -->
<g id="edge14" class="edge">
<title>st01&#45;&gt;st01234</title>
<path fill="none" stroke="black" d="M273.74,-415.83C274.93,-414.27 276.03,-412.66 277,-411 297.61,-375.8 286.24,-360.84 295,-321 312.18,-242.88 279.77,-201.88 337,-146 341.49,-141.61 772.72,-51 779,-51 779,-51 779,-51 1368,-51 1475.85,-51 1535.6,-195 1557.83,-263.1"/>
<polygon fill="black" stroke="black" points="1554.6,-264.48 1560.96,-272.96 1561.27,-262.37 1554.6,-264.48"/>
<text text-anchor="start" x="890" y="-54.8" font-family="arial" font-size="14.00" fill="#377eb8">true</text>
</g>
<!-- st02 -->
<g id="node9" class="node">
<title>st02</title>
<polygon fill="none" stroke="black" points="1232,-666 1106,-666 1106,-616 1232,-616 1232,-666"/>
<text text-anchor="start" x="1155" y="-651.8" font-family="arial" font-weight="bold" font-size="14.00">st02</text>
<text text-anchor="start" x="1114" y="-637.8" font-family="arial" font-size="14.00" fill="#984ea3">(!Q &amp;&amp; (!R &amp;&amp; !T))</text>
<text text-anchor="start" x="1157" y="-623.8" font-family="arial" font-size="14.00" fill="#ff7f00">true</text>
</g>
<!-- st01&#45;&gt;st02 -->
<g id="edge10" class="edge">
<title>st01&#45;&gt;st02</title>
<path fill="none" stroke="black" d="M245.68,-466.1C251.2,-493.92 264.45,-537.8 295,-560 421.82,-652.15 909.74,-648.45 1095.56,-643.49"/>
<polygon fill="black" stroke="black" points="1095.88,-646.98 1105.78,-643.2 1095.68,-639.98 1095.88,-646.98"/>
<text text-anchor="start" x="648" y="-644.8" font-family="arial" font-size="14.00" fill="#377eb8">true</text>
</g>
<!-- st0234 -->
<g id="node10" class="node">
<title>st0234</title>
<polygon fill="none" stroke="black" points="503,-372 337,-372 337,-322 503,-322 503,-372"/>
<text text-anchor="start" x="398.5" y="-357.8" font-family="arial" font-weight="bold" font-size="14.00">st0234</text>
<text text-anchor="start" x="345" y="-343.8" font-family="arial" font-size="14.00" fill="#984ea3">(!Q &amp;&amp; (!R &amp;&amp; (S &amp;&amp; T)))</text>
<text text-anchor="start" x="408" y="-329.8" font-family="arial" font-size="14.00" fill="#ff7f00">true</text>
</g>
<!-- st01&#45;&gt;st0234 -->
<g id="edge11" class="edge">
<title>st01&#45;&gt;st0234</title>
<path fill="none" stroke="black" d="M253.58,-415.65C262.51,-399.09 276.46,-378.48 295,-367 304.75,-360.96 315.73,-356.56 327.02,-353.38"/>
<polygon fill="black" stroke="black" points="328.14,-356.7 336.99,-350.88 326.44,-349.91 328.14,-356.7"/>
<text text-anchor="start" x="295" y="-370.8" font-family="arial" font-size="14.00" fill="#377eb8">true</text>
</g>
<!-- _st012 -->
<!-- _st012&#45;&gt;st012 -->
<g id="edge3" class="edge">
<title>_st012&#45;&gt;st012</title>
<path fill="none" stroke="black" d="M1197.67,-585.22C1223.12,-590.03 1261.95,-597.36 1295.9,-603.77"/>
<polygon fill="black" stroke="black" points="1295.32,-607.22 1305.79,-605.63 1296.62,-600.34 1295.32,-607.22"/>
</g>
<!-- st012&#45;&gt;st0 -->
<g id="edge21" class="edge">
<title>st012&#45;&gt;st0</title>
<path fill="none" stroke="black" d="M1358.82,-642.44C1339.56,-704.57 1280.56,-859 1170,-859 240,-859 240,-859 240,-859 186.06,-859 150.12,-798.5 132.24,-758.51"/>
<polygon fill="black" stroke="black" points="135.36,-756.88 128.19,-749.08 128.92,-759.65 135.36,-756.88"/>
<text text-anchor="start" x="653.5" y="-862.8" font-family="arial" font-size="14.00" fill="#377eb8">R&#39;</text>
</g>
<!-- st012&#45;&gt;st01 -->
<g id="edge24" class="edge">
<title>st012&#45;&gt;st01</title>
<path fill="none" stroke="black" d="M1338.74,-642.42C1313.29,-664.34 1273.16,-694.54 1232,-708 1041.36,-770.33 981.57,-724 781,-724 419,-724 419,-724 419,-724 362.08,-724 334.34,-733.13 295,-692 265.75,-661.42 250.72,-537.96 244.92,-476.34"/>
<polygon fill="black" stroke="black" points="248.4,-475.94 244,-466.3 241.43,-476.58 248.4,-475.94"/>
<text text-anchor="start" x="768" y="-727.8" font-family="arial" font-size="14.00" fill="#377eb8">true</text>
</g>
<!-- st012&#45;&gt;st012 -->
<g id="edge25" class="edge">
<title>st012&#45;&gt;st012</title>
<path fill="none" stroke="black" d="M1350.19,-642.18C1349.44,-651.91 1355.05,-660 1367,-660 1374.47,-660 1379.46,-656.84 1381.97,-652.09"/>
<polygon fill="black" stroke="black" points="1385.43,-652.65 1383.81,-642.18 1378.54,-651.37 1385.43,-652.65"/>
<text text-anchor="start" x="1355" y="-663.8" font-family="arial" font-size="14.00" fill="#377eb8">true</text>
</g>
<!-- st012&#45;&gt;st01234 -->
<g id="edge26" class="edge">
<title>st012&#45;&gt;st01234</title>
<path fill="none" stroke="black" d="M1415.33,-591.88C1419.72,-589.05 1424.02,-586.07 1428,-583 1449.16,-566.7 1455.38,-562.36 1470,-540 1514.13,-472.53 1544.24,-382.01 1558.51,-333.03"/>
<polygon fill="black" stroke="black" points="1561.93,-333.8 1561.32,-323.23 1555.2,-331.88 1561.93,-333.8"/>
<text text-anchor="start" x="1446" y="-571.8" font-family="arial" font-size="14.00" fill="#377eb8">true</text>
</g>
<!-- st012&#45;&gt;st02 -->
<g id="edge22" class="edge">
<title>st012&#45;&gt;st02</title>
<path fill="none" stroke="black" d="M1305.67,-630.21C1299.72,-631.26 1293.75,-632.22 1288,-633 1273.29,-635 1257.47,-636.51 1242.35,-637.64"/>
<polygon fill="black" stroke="black" points="1241.74,-634.18 1232.01,-638.37 1242.23,-641.16 1241.74,-634.18"/>
<text text-anchor="start" x="1257" y="-639.8" font-family="arial" font-size="14.00" fill="#377eb8">true</text>
</g>
<!-- st012&#45;&gt;st0234 -->
<g id="edge23" class="edge">
<title>st012&#45;&gt;st0234</title>
<path fill="none" stroke="black" d="M1314.57,-591.86C1311.42,-589.15 1308.52,-586.2 1306,-583 1287.99,-560.12 1309.64,-539.48 1288,-520 1170.03,-413.81 727.7,-501.83 577,-452 552.65,-443.95 499.43,-406.23 461.95,-378.29"/>
<polygon fill="black" stroke="black" points="463.83,-375.33 453.73,-372.14 459.64,-380.93 463.83,-375.33"/>
<text text-anchor="start" x="890" y="-470.8" font-family="arial" font-size="14.00" fill="#377eb8">true</text>
</g>
<!-- _st01234 -->
<!-- _st01234&#45;&gt;st01234 -->
<g id="edge4" class="edge">
<title>_st01234&#45;&gt;st01234</title>
<path fill="none" stroke="black" d="M1403.33,-550.42C1424.86,-545.41 1451.68,-536.09 1470,-519 1524.47,-468.19 1550.51,-381.61 1561.37,-333.28"/>
<polygon fill="black" stroke="black" points="1564.84,-333.8 1563.52,-323.29 1557.99,-332.33 1564.84,-333.8"/>
</g>
<!-- st01234&#45;&gt;st0 -->
<g id="edge49" class="edge">
<title>st01234&#45;&gt;st0</title>
<path fill="none" stroke="black" d="M1565.29,-323.18C1552.32,-437.5 1491.99,-902 1368,-902 240,-902 240,-902 240,-902 171.51,-902 139.07,-810.76 126.17,-758.93"/>
<polygon fill="black" stroke="black" points="129.55,-758.05 123.84,-749.13 122.74,-759.66 129.55,-758.05"/>
<text text-anchor="start" x="773.5" y="-905.8" font-family="arial" font-size="14.00" fill="#377eb8">R&#39;</text>
</g>
<!-- st01234&#45;&gt;st01 -->
<g id="edge52" class="edge">
<title>st01234&#45;&gt;st01</title>
<path fill="none" stroke="black" d="M1563.67,-272.85C1549.73,-201.01 1499,0 1368,0 419,0 419,0 419,0 371.94,0 365.31,-29.4 337,-67 308.5,-104.86 306.22,-118.96 295,-165 282.71,-215.45 299.72,-347.16 278,-406.72"/>
<polygon fill="black" stroke="black" points="274.76,-405.4 274,-415.97 281.18,-408.18 274.76,-405.4"/>
<text text-anchor="start" x="890" y="-3.8" font-family="arial" font-size="14.00" fill="#377eb8">true</text>
</g>
<!-- st01234&#45;&gt;st01234 -->
<g id="edge54" class="edge">
<title>st01234&#45;&gt;st01234</title>
<path fill="none" stroke="black" d="M1548.46,-323.18C1547.54,-332.91 1554.39,-341 1569,-341 1578.13,-341 1584.23,-337.84 1587.3,-333.09"/>
<polygon fill="black" stroke="black" points="1590.75,-333.7 1589.54,-323.18 1583.92,-332.15 1590.75,-333.7"/>
<text text-anchor="start" x="1557" y="-344.8" font-family="arial" font-size="14.00" fill="#377eb8">true</text>
</g>
<!-- st01234&#45;&gt;st0234 -->
<g id="edge51" class="edge">
<title>st01234&#45;&gt;st0234</title>
<path fill="none" stroke="black" d="M1487.81,-289.46C1481.79,-288.93 1475.8,-288.43 1470,-288 1451.36,-286.61 1446.68,-286.55 1428,-286 1276.94,-281.52 1239.12,-282.89 1088,-282 1051.11,-281.78 1041.83,-279.96 1005,-282 911.71,-287.18 652.95,-318.22 513.26,-335.47"/>
<polygon fill="black" stroke="black" points="512.5,-332.03 503,-336.73 513.36,-338.98 512.5,-332.03"/>
<text text-anchor="start" x="1034.5" y="-285.8" font-family="arial" font-size="14.00" fill="#377eb8">true</text>
</g>
<!-- st024 -->
<g id="node11" class="node">
<title>st024</title>
<polygon fill="none" stroke="black" points="987,-238 817,-238 817,-188 987,-188 987,-238"/>
<text text-anchor="start" x="884.5" y="-223.8" font-family="arial" font-weight="bold" font-size="14.00">st024</text>
<text text-anchor="start" x="825" y="-209.8" font-family="arial" font-size="14.00" fill="#984ea3">(!Q &amp;&amp; (!R &amp;&amp; (S &amp;&amp; !T)))</text>
<text text-anchor="start" x="879" y="-195.8" font-family="arial" font-size="14.00" fill="#ff7f00">c0 &lt;= 5</text>
</g>
<!-- st01234&#45;&gt;st024 -->
<g id="edge50" class="edge">
<title>st01234&#45;&gt;st024</title>
<path fill="none" stroke="black" d="M1528.85,-272.94C1511.44,-262.84 1490.31,-251.95 1470,-245 1311.08,-190.64 1112.58,-194.46 997.55,-203.1"/>
<polygon fill="black" stroke="black" points="997.07,-199.62 987.37,-203.89 997.61,-206.6 997.07,-199.62"/>
<text text-anchor="start" x="1257" y="-224.8" font-family="arial" font-size="14.00" fill="#377eb8">true</text>
<text text-anchor="start" x="1250" y="-209.8" font-family="arial" font-size="14.00">c0 :=0</text>
</g>
<!-- st0124 -->
<g id="node12" class="node">
<title>st0124</title>
<polygon fill="none" stroke="black" points="743,-410 577,-410 577,-360 743,-360 743,-410"/>
<text text-anchor="start" x="638.5" y="-395.8" font-family="arial" font-weight="bold" font-size="14.00">st0124</text>
<text text-anchor="start" x="585" y="-381.8" font-family="arial" font-size="14.00" fill="#984ea3">(Q &amp;&amp; (!R &amp;&amp; (S &amp;&amp; !T)))</text>
<text text-anchor="start" x="637" y="-367.8" font-family="arial" font-size="14.00" fill="#ff7f00">c0 &lt;= 5</text>
</g>
<!-- st01234&#45;&gt;st0124 -->
<g id="edge53" class="edge">
<title>st01234&#45;&gt;st0124</title>
<path fill="none" stroke="black" d="M1487.65,-293.32C1395.31,-289.02 1239.32,-285.09 1106,-298 982.52,-309.96 842.43,-340.16 752.98,-361.62"/>
<polygon fill="black" stroke="black" points="752.03,-358.24 743.13,-363.99 753.68,-365.05 752.03,-358.24"/>
<text text-anchor="start" x="1157" y="-316.8" font-family="arial" font-size="14.00" fill="#377eb8">true</text>
<text text-anchor="start" x="1150" y="-301.8" font-family="arial" font-size="14.00">c0 :=0</text>
</g>
<!-- st02&#45;&gt;st0 -->
<g id="edge15" class="edge">
<title>st02&#45;&gt;st0</title>
<path fill="none" stroke="black" d="M1136.66,-666.07C1089.11,-701.51 994.54,-762 903,-762 240,-762 240,-762 240,-762 210.2,-762 178.08,-751.38 154.44,-741.36"/>
<polygon fill="black" stroke="black" points="155.73,-738.11 145.17,-737.29 152.92,-744.52 155.73,-738.11"/>
<text text-anchor="start" x="533.5" y="-765.8" font-family="arial" font-size="14.00" fill="#377eb8">R&#39;</text>
</g>
<!-- st02&#45;&gt;st01 -->
<g id="edge18" class="edge">
<title>st02&#45;&gt;st01</title>
<path fill="none" stroke="black" d="M1105.97,-655.2C962.37,-684.77 599.28,-740.42 337,-616 282.93,-590.35 258.54,-519.36 248.42,-476.08"/>
<polygon fill="black" stroke="black" points="251.82,-475.26 246.25,-466.25 244.99,-476.77 251.82,-475.26"/>
<text text-anchor="start" x="648" y="-696.8" font-family="arial" font-size="14.00" fill="#377eb8">true</text>
</g>
<!-- st02&#45;&gt;st012 -->
<g id="edge19" class="edge">
<title>st02&#45;&gt;st012</title>
<path fill="none" stroke="black" d="M1232.09,-621.38C1238.1,-620.02 1244.14,-618.85 1250,-618 1264.66,-615.87 1280.46,-614.88 1295.55,-614.55"/>
<polygon fill="black" stroke="black" points="1295.9,-618.05 1305.86,-614.43 1295.81,-611.05 1295.9,-618.05"/>
<text text-anchor="start" x="1257" y="-621.8" font-family="arial" font-size="14.00" fill="#377eb8">true</text>
</g>
<!-- st02&#45;&gt;st01234 -->
<g id="edge20" class="edge">
<title>st02&#45;&gt;st01234</title>
<path fill="none" stroke="black" d="M1219.91,-615.99C1224.15,-613.17 1228.24,-610.16 1232,-607 1272.4,-572.97 1268.33,-551.03 1306,-514 1371.55,-449.56 1399.64,-447.14 1470,-388 1491.97,-369.53 1515.7,-347.79 1534.31,-330.3"/>
<polygon fill="black" stroke="black" points="1537.08,-332.5 1541.95,-323.09 1532.27,-327.41 1537.08,-332.5"/>
<text text-anchor="start" x="1355" y="-517.8" font-family="arial" font-size="14.00" fill="#377eb8">true</text>
</g>
<!-- st02&#45;&gt;st02 -->
<g id="edge16" class="edge">
<title>st02&#45;&gt;st02</title>
<path fill="none" stroke="black" d="M1150.32,-666.18C1149.49,-675.91 1155.72,-684 1169,-684 1177.3,-684 1182.85,-680.84 1185.63,-676.09"/>
<polygon fill="black" stroke="black" points="1189.09,-676.68 1187.68,-666.18 1182.23,-675.26 1189.09,-676.68"/>
<text text-anchor="start" x="1157" y="-687.8" font-family="arial" font-size="14.00" fill="#377eb8">true</text>
</g>
<!-- st02&#45;&gt;st0234 -->
<g id="edge17" class="edge">
<title>st02&#45;&gt;st0234</title>
<path fill="none" stroke="black" d="M1105.58,-629.91C1099.64,-628.9 1093.71,-627.92 1088,-627 959.76,-606.37 606.61,-582.69 521,-485 498.98,-459.87 521.06,-440.11 503,-412 494.78,-399.21 483.17,-387.84 471.27,-378.32"/>
<polygon fill="black" stroke="black" points="473.1,-375.31 463.02,-372.03 468.85,-380.88 473.1,-375.31"/>
<text text-anchor="start" x="768" y="-588.8" font-family="arial" font-size="14.00" fill="#377eb8">true</text>
</g>
<!-- st0234&#45;&gt;st0 -->
<g id="edge43" class="edge">
<title>st0234&#45;&gt;st0</title>
<path fill="none" stroke="black" d="M336.81,-343.06C291.72,-345.53 238.37,-356.8 205,-392 164.22,-435.03 134.84,-612 123.81,-688.5"/>
<polygon fill="black" stroke="black" points="120.31,-688.21 122.37,-698.6 127.24,-689.2 120.31,-688.21"/>
<text text-anchor="start" x="234.5" y="-395.8" font-family="arial" font-size="14.00" fill="#377eb8">R&#39;</text>
</g>
<!-- st0234&#45;&gt;st01 -->
<g id="edge46" class="edge">
<title>st0234&#45;&gt;st01</title>
<path fill="none" stroke="black" d="M370.61,-372.11C347.64,-384.09 319.85,-398.69 295,-412 292.09,-413.56 289.09,-415.18 286.07,-416.81"/>
<polygon fill="black" stroke="black" points="284.14,-413.88 277.02,-421.72 287.48,-420.03 284.14,-413.88"/>
<text text-anchor="start" x="295" y="-415.8" font-family="arial" font-size="14.00" fill="#377eb8">true</text>
</g>
<!-- st0234&#45;&gt;st01234 -->
<g id="edge48" class="edge">
<title>st0234&#45;&gt;st01234</title>
<path fill="none" stroke="black" d="M436.44,-321.51C453.95,-294.51 484.81,-252.23 521,-226 638.85,-140.57 631.66,-172.89 1005,-149 1129.02,-141.06 1353.85,-126.26 1428,-153 1482.62,-172.7 1525.25,-227.78 1548.49,-264.1"/>
<polygon fill="black" stroke="black" points="1545.71,-266.27 1553.98,-272.9 1551.65,-262.56 1545.71,-266.27"/>
<text text-anchor="start" x="1034.5" y="-152.8" font-family="arial" font-size="14.00" fill="#377eb8">true</text>
</g>
<!-- st0234&#45;&gt;st0234 -->
<g id="edge45" class="edge">
<title>st0234&#45;&gt;st0234</title>
<path fill="none" stroke="black" d="M399.08,-372.18C398.15,-381.91 405.12,-390 420,-390 429.3,-390 435.51,-386.84 438.63,-382.09"/>
<polygon fill="black" stroke="black" points="442.08,-382.71 440.92,-372.18 435.26,-381.13 442.08,-382.71"/>
<text text-anchor="start" x="408" y="-393.8" font-family="arial" font-size="14.00" fill="#377eb8">true</text>
</g>
<!-- st0234&#45;&gt;st024 -->
<g id="edge44" class="edge">
<title>st0234&#45;&gt;st024</title>
<path fill="none" stroke="black" d="M468.33,-321.93C498.67,-306.75 539.31,-288.06 577,-276 618.87,-262.61 726.94,-242.64 806.82,-228.78"/>
<polygon fill="black" stroke="black" points="807.65,-232.19 816.9,-227.04 806.45,-225.3 807.65,-232.19"/>
<text text-anchor="start" x="648" y="-294.8" font-family="arial" font-size="14.00" fill="#377eb8">true</text>
<text text-anchor="start" x="641" y="-279.8" font-family="arial" font-size="14.00">c0 :=0</text>
</g>
<!-- st0234&#45;&gt;st0124 -->
<g id="edge47" class="edge">
<title>st0234&#45;&gt;st0124</title>
<path fill="none" stroke="black" d="M503,-365.74C509.08,-366.91 515.13,-368.02 521,-369 535.73,-371.47 551.41,-373.68 566.72,-375.61"/>
<polygon fill="black" stroke="black" points="566.36,-379.09 576.71,-376.84 567.22,-372.15 566.36,-379.09"/>
<text text-anchor="start" x="528" y="-392.8" font-family="arial" font-size="14.00" fill="#377eb8">true</text>
<text text-anchor="start" x="521" y="-377.8" font-family="arial" font-size="14.00">c0 :=0</text>
</g>
<!-- st024&#45;&gt;st0 -->
<g id="edge27" class="edge">
<title>st024&#45;&gt;st0</title>
<path fill="none" stroke="black" d="M873.83,-187.91C831.65,-151.67 746.36,-89 661,-89 240,-89 240,-89 240,-89 178.47,-89 133.56,-555.03 121.95,-688.61"/>
<polygon fill="black" stroke="black" points="118.45,-688.45 121.08,-698.72 125.43,-689.05 118.45,-688.45"/>
<text text-anchor="start" x="413.5" y="-92.8" font-family="arial" font-size="14.00" fill="#377eb8">R&#39;</text>
</g>
<!-- st024&#45;&gt;st01 -->
<g id="edge31" class="edge">
<title>st024&#45;&gt;st01</title>
<path fill="none" stroke="black" d="M856.49,-187.97C783.96,-150.67 636.74,-89.59 521,-136 488.76,-148.93 313.22,-322.42 295,-352 282.25,-372.7 289.76,-385.04 278.75,-406.84"/>
<polygon fill="black" stroke="black" points="275.59,-405.31 273.54,-415.7 281.63,-408.85 275.59,-405.31"/>
<text text-anchor="start" x="528" y="-139.8" font-family="arial" font-size="14.00" fill="#377eb8">true</text>
</g>
<!-- st024&#45;&gt;st012 -->
<g id="edge32" class="edge">
<title>st024&#45;&gt;st012</title>
<path fill="none" stroke="black" d="M929.37,-238.24C949,-255.97 977.11,-279.24 1005,-295 1046.63,-318.51 1061.1,-315.58 1106,-332 1161.99,-352.48 1183.09,-343.92 1232,-378 1263.56,-399.99 1272.45,-408.81 1288,-444 1313.18,-500.98 1271.24,-531.31 1306,-583 1306.27,-583.4 1306.54,-583.79 1306.82,-584.18"/>
<polygon fill="black" stroke="black" points="1304.26,-586.57 1313.49,-591.76 1309.51,-581.94 1304.26,-586.57"/>
<text text-anchor="start" x="1127.5" y="-381.8" font-family="arial" font-size="14.00" fill="#377eb8">(R&#39; || c0 &gt;= 5)</text>
</g>
<!-- st024&#45;&gt;st01234 -->
<g id="edge34" class="edge">
<title>st024&#45;&gt;st01234</title>
<path fill="none" stroke="black" d="M987.44,-188.02C1102.95,-158.79 1313.71,-123.43 1470,-200 1500.21,-214.8 1526.66,-242.67 1544.44,-264.92"/>
<polygon fill="black" stroke="black" points="1541.69,-267.08 1550.59,-272.82 1547.21,-262.78 1541.69,-267.08"/>
<text text-anchor="start" x="1257" y="-159.8" font-family="arial" font-size="14.00" fill="#377eb8">true</text>
</g>
<!-- st024&#45;&gt;st02 -->
<g id="edge28" class="edge">
<title>st024&#45;&gt;st02</title>
<path fill="none" stroke="black" d="M908.11,-238.04C918.82,-285.25 947.54,-388.66 1005,-455 1033.19,-487.55 1063.63,-469.5 1088,-505 1114.05,-542.95 1079.18,-569.59 1106,-607 1106.36,-607.5 1106.72,-607.99 1107.1,-608.48"/>
<polygon fill="black" stroke="black" points="1104.54,-610.87 1113.92,-615.79 1109.66,-606.09 1104.54,-610.87"/>
<text text-anchor="start" x="1005" y="-508.8" font-family="arial" font-size="14.00" fill="#377eb8">(R&#39; || c0 &gt;= 5)</text>
</g>
<!-- st024&#45;&gt;st0234 -->
<g id="edge30" class="edge">
<title>st024&#45;&gt;st0234</title>
<path fill="none" stroke="black" d="M816.75,-208.08C750.76,-206.15 657.04,-207.66 577,-225 550.7,-230.7 543.43,-233.14 521,-248 493.37,-266.3 466.94,-293.01 448.2,-314.07"/>
<polygon fill="black" stroke="black" points="445.35,-312.01 441.4,-321.84 450.62,-316.62 445.35,-312.01"/>
<text text-anchor="start" x="648" y="-228.8" font-family="arial" font-size="14.00" fill="#377eb8">true</text>
</g>
<!-- st024&#45;&gt;st024 -->
<g id="edge29" class="edge">
<title>st024&#45;&gt;st024</title>
<path fill="none" stroke="black" d="M879.21,-238.18C878.2,-247.91 885.8,-256 902,-256 912.13,-256 918.89,-252.84 922.29,-248.09"/>
<polygon fill="black" stroke="black" points="925.74,-248.73 924.79,-238.18 918.95,-247.02 925.74,-248.73"/>
<text text-anchor="start" x="883" y="-259.8" font-family="arial" font-size="14.00" fill="#377eb8">c0 &lt; 5</text>
</g>
<!-- st024&#45;&gt;st0124 -->
<g id="edge33" class="edge">
<title>st024&#45;&gt;st0124</title>
<path fill="none" stroke="black" d="M867.13,-238.18C847.34,-252.83 821.84,-271.58 799,-288 768,-310.29 732.78,-335.04 705.68,-353.96"/>
<polygon fill="black" stroke="black" points="703.38,-351.29 697.18,-359.88 707.38,-357.03 703.38,-351.29"/>
<text text-anchor="start" x="761" y="-318.8" font-family="arial" font-size="14.00" fill="#377eb8">c0 &lt; 5</text>
</g>
<!-- st0124&#45;&gt;st0 -->
<g id="edge35" class="edge">
<title>st0124&#45;&gt;st0</title>
<path fill="none" stroke="black" d="M635.01,-410.24C582.59,-464.02 451.86,-590.77 319,-662 265.39,-690.74 196.42,-708.4 155.07,-717.18"/>
<polygon fill="black" stroke="black" points="154.27,-713.77 145.18,-719.22 155.68,-720.63 154.27,-713.77"/>
<text text-anchor="start" x="300.5" y="-676.8" font-family="arial" font-size="14.00" fill="#377eb8">R&#39;</text>
</g>
<!-- st0124&#45;&gt;st01 -->
<g id="edge39" class="edge">
<title>st0124&#45;&gt;st01</title>
<path fill="none" stroke="black" d="M576.75,-404.74C570.76,-405.92 564.8,-407.03 559,-408 463.05,-424.11 349.37,-433.66 287.57,-438.06"/>
<polygon fill="black" stroke="black" points="287.11,-434.58 277.38,-438.77 287.6,-441.57 287.11,-434.58"/>
<text text-anchor="start" x="408" y="-436.8" font-family="arial" font-size="14.00" fill="#377eb8">true</text>
</g>
<!-- st0124&#45;&gt;st012 -->
<g id="edge40" class="edge">
<title>st0124&#45;&gt;st012</title>
<path fill="none" stroke="black" d="M743.1,-398.36C749.15,-399.28 755.17,-400.17 761,-401 819.65,-409.37 1246.55,-439.67 1288,-482 1319.9,-514.58 1279.66,-545.78 1306,-583 1306.36,-583.5 1306.72,-584 1307.1,-584.49"/>
<polygon fill="black" stroke="black" points="1304.57,-586.92 1313.93,-591.89 1309.72,-582.17 1304.57,-586.92"/>
<text text-anchor="start" x="1005" y="-438.8" font-family="arial" font-size="14.00" fill="#377eb8">(R&#39; || c0 &gt;= 5)</text>
</g>
<!-- st0124&#45;&gt;st01234 -->
<g id="edge42" class="edge">
<title>st0124&#45;&gt;st01234</title>
<path fill="none" stroke="black" d="M743.07,-389.2C877.83,-395.59 1140.18,-405.73 1232,-393 1322.71,-380.42 1423.37,-349.61 1490.65,-326.46"/>
<polygon fill="black" stroke="black" points="1492.02,-329.68 1500.33,-323.1 1489.73,-323.07 1492.02,-329.68"/>
<text text-anchor="start" x="1157" y="-402.8" font-family="arial" font-size="14.00" fill="#377eb8">true</text>
</g>
<!-- st0124&#45;&gt;st02 -->
<g id="edge36" class="edge">
<title>st0124&#45;&gt;st02</title>
<path fill="none" stroke="black" d="M693.34,-410.18C723.93,-433.16 771.77,-466.95 817,-490 931.25,-548.23 979.89,-520.04 1088,-589 1097.54,-595.08 1096.95,-600.21 1106,-607 1107.42,-608.06 1108.87,-609.12 1110.36,-610.15"/>
<polygon fill="black" stroke="black" points="1108.83,-613.34 1119.11,-615.93 1112.69,-607.5 1108.83,-613.34"/>
<text text-anchor="start" x="860.5" y="-546.8" font-family="arial" font-size="14.00" fill="#377eb8">(R&#39; || c0 &gt;= 5)</text>
</g>
<!-- st0124&#45;&gt;st0234 -->
<g id="edge38" class="edge">
<title>st0124&#45;&gt;st0234</title>
<path fill="none" stroke="black" d="M585.52,-359.95C576.66,-357.61 567.68,-355.54 559,-354 544.27,-351.39 528.54,-349.63 513.15,-348.47"/>
<polygon fill="black" stroke="black" points="513.32,-344.97 503.11,-347.79 512.85,-351.96 513.32,-344.97"/>
<text text-anchor="start" x="528" y="-357.8" font-family="arial" font-size="14.00" fill="#377eb8">true</text>
</g>
<!-- st0124&#45;&gt;st024 -->
<g id="edge37" class="edge">
<title>st0124&#45;&gt;st024</title>
<path fill="none" stroke="black" d="M686.15,-359.85C702.98,-342.53 725.21,-318.63 743,-296 751.91,-284.66 749.8,-278.09 761,-269 770.91,-260.96 793.6,-250.91 817.88,-241.56"/>
<polygon fill="black" stroke="black" points="819.13,-244.83 827.24,-238.02 816.65,-238.28 819.13,-244.83"/>
<text text-anchor="start" x="761" y="-272.8" font-family="arial" font-size="14.00" fill="#377eb8">c0 &lt; 5</text>
</g>
<!-- st0124&#45;&gt;st0124 -->
<g id="edge41" class="edge">
<title>st0124&#45;&gt;st0124</title>
<path fill="none" stroke="black" d="M637.59,-410.18C636.59,-419.91 644.06,-428 660,-428 669.96,-428 676.61,-424.84 679.96,-420.09"/>
<polygon fill="black" stroke="black" points="683.41,-420.72 682.41,-410.18 676.61,-419.04 683.41,-420.72"/>
<text text-anchor="start" x="641" y="-431.8" font-family="arial" font-size="14.00" fill="#377eb8">c0 &lt; 5</text>
</g>
</g>
</svg>
