<?xml version="1.0" encoding="UTF-8" standalone="no"?>
<!DOCTYPE svg PUBLIC "-//W3C//DTD SVG 1.1//EN"
 "http://www.w3.org/Graphics/SVG/1.1/DTD/svg11.dtd">
<!-- Generated by graphviz version 2.40.1 (20161225.0304)
 -->
<!-- Title: G Pages: 1 -->
<svg width="1340pt" height="586pt"
 viewBox="0.00 0.00 1340.00 586.00" xmlns="http://www.w3.org/2000/svg" xmlns:xlink="http://www.w3.org/1999/xlink">
<g id="graph0" class="graph" transform="scale(1 1) rotate(0) translate(4 582)">
<title>G</title>
<polygon fill="#ffffff" stroke="transparent" points="-4,4 -4,-582 1336,-582 1336,4 -4,4"/>
<!-- _st0 -->
<!-- st0 -->
<g id="node2" class="node">
<title>st0</title>
<polygon fill="none" stroke="#000000" points="148.5,-300 94.5,-300 94.5,-250 148.5,-250 148.5,-300"/>
<text text-anchor="start" x="110.5" y="-285.8" font-family="arial" font-weight="bold" font-size="14.00" fill="#000000">st0</text>
<text text-anchor="start" x="113.5" y="-271.8" font-family="arial" font-size="14.00" fill="#984ea3">!Q</text>
<text text-anchor="start" x="109" y="-257.8" font-family="arial" font-size="14.00" fill="#ff7f00">true</text>
</g>
<!-- _st0&#45;&gt;st0 -->
<g id="edge1" class="edge">
<title>_st0&#45;&gt;st0</title>
<path fill="none" stroke="#000000" d="M54.0799,-275C63.471,-275 74.1709,-275 84.237,-275"/>
<polygon fill="#000000" stroke="#000000" points="84.4162,-278.5001 94.4161,-275 84.4161,-271.5001 84.4162,-278.5001"/>
</g>
<!-- st0&#45;&gt;st0 -->
<g id="edge4" class="edge">
<title>st0&#45;&gt;st0</title>
<path fill="none" stroke="#000000" d="M112.5352,-300.1756C112.1367,-309.9095 115.125,-318 121.5,-318 125.3848,-318 128.0119,-314.9957 129.3814,-310.446"/>
<polygon fill="#000000" stroke="#000000" points="132.8964,-310.4877 130.4648,-300.1756 125.935,-309.7532 132.8964,-310.4877"/>
<text text-anchor="start" x="109" y="-321.8" font-family="arial" font-size="14.00" fill="#377eb8">true</text>
</g>
<!-- st012 -->
<g id="node4" class="node">
<title>st012</title>
<polygon fill="none" stroke="#000000" points="325,-418 213,-418 213,-368 325,-368 325,-418"/>
<text text-anchor="start" x="250" y="-403.8" font-family="arial" font-weight="bold" font-size="14.00" fill="#000000">st012</text>
<text text-anchor="start" x="221" y="-389.8" font-family="arial" font-size="14.00" fill="#984ea3">(Q &amp;&amp; (R || !S))</text>
<text text-anchor="start" x="256.5" y="-375.8" font-family="arial" font-size="14.00" fill="#ff7f00">true</text>
</g>
<!-- st0&#45;&gt;st012 -->
<g id="edge5" class="edge">
<title>st0&#45;&gt;st012</title>
<path fill="none" stroke="#000000" d="M148.5538,-296.643C171.2177,-314.7742 203.8764,-340.9011 229.4704,-361.3763"/>
<polygon fill="#000000" stroke="#000000" points="227.5151,-364.2942 237.5102,-367.8082 231.888,-358.8281 227.5151,-364.2942"/>
<text text-anchor="start" x="170" y="-333.8" font-family="arial" font-size="14.00" fill="#377eb8">true</text>
</g>
<!-- st01234W -->
<g id="node6" class="node">
<title>st01234W</title>
<polygon fill="none" stroke="#000000" points="525,-227 401,-227 401,-177 525,-177 525,-227"/>
<text text-anchor="start" x="429" y="-212.8" font-family="arial" font-weight="bold" font-size="14.00" fill="#000000">st01234W</text>
<text text-anchor="start" x="409" y="-198.8" font-family="arial" font-size="14.00" fill="#984ea3">(Q &amp;&amp; (!R &amp;&amp; S))</text>
<text text-anchor="start" x="438.5" y="-184.8" font-family="arial" font-size="14.00" fill="#ff7f00">c0 &lt;= 5</text>
</g>
<!-- st0&#45;&gt;st01234W -->
<g id="edge6" class="edge">
<title>st0&#45;&gt;st01234W</title>
<path fill="none" stroke="#000000" d="M148.6191,-267.6258C190.2143,-256.4888 272.3709,-235.176 343,-221 358.3528,-217.9185 374.8927,-215.0264 390.6401,-212.473"/>
<polygon fill="#000000" stroke="#000000" points="391.529,-215.8756 400.8535,-210.8454 390.4273,-208.9629 391.529,-215.8756"/>
<text text-anchor="start" x="256.5" y="-269.8" font-family="arial" font-size="14.00" fill="#377eb8">true</text>
<text text-anchor="start" x="249" y="-254.8" font-family="arial" font-size="14.00" fill="#000000">c0 :=0</text>
</g>
<!-- _st012 -->
<!-- _st012&#45;&gt;st012 -->
<g id="edge2" class="edge">
<title>_st012&#45;&gt;st012</title>
<path fill="none" stroke="#000000" d="M152.0621,-393C166.734,-393 184.927,-393 202.5575,-393"/>
<polygon fill="#000000" stroke="#000000" points="202.8422,-396.5001 212.8421,-393 202.8421,-389.5001 202.8422,-396.5001"/>
</g>
<!-- st012&#45;&gt;st012 -->
<g id="edge13" class="edge">
<title>st012&#45;&gt;st012</title>
<path fill="none" stroke="#000000" d="M252.938,-418.1756C252.2241,-427.9095 257.5781,-436 269,-436 276.1387,-436 280.9071,-432.8397 283.3052,-428.093"/>
<polygon fill="#000000" stroke="#000000" points="286.764,-428.6329 285.062,-418.1756 279.8713,-427.4118 286.764,-428.6329"/>
<text text-anchor="start" x="256.5" y="-439.8" font-family="arial" font-size="14.00" fill="#377eb8">true</text>
</g>
<!-- st012&#45;&gt;st01234W -->
<g id="edge14" class="edge">
<title>st012&#45;&gt;st01234W</title>
<path fill="none" stroke="#000000" d="M275.8279,-367.9593C285.6866,-336.2135 306.8133,-281.6918 343,-249 356.7281,-236.5977 374.1073,-227.3039 391.3467,-220.4043"/>
<polygon fill="#000000" stroke="#000000" points="392.7602,-223.6121 400.8856,-216.813 390.2937,-217.061 392.7602,-223.6121"/>
<text text-anchor="start" x="350.5" y="-267.8" font-family="arial" font-size="14.00" fill="#377eb8">true</text>
<text text-anchor="start" x="343" y="-252.8" font-family="arial" font-size="14.00" fill="#000000">c0 :=0</text>
</g>
<!-- st02 -->
<g id="node7" class="node">
<title>st02</title>
<polygon fill="none" stroke="#000000" points="1332,-317 1216,-317 1216,-267 1332,-267 1332,-317"/>
<text text-anchor="start" x="1259" y="-302.8" font-family="arial" font-weight="bold" font-size="14.00" fill="#000000">st02</text>
<text text-anchor="start" x="1224" y="-288.8" font-family="arial" font-size="14.00" fill="#984ea3">(!Q &amp;&amp; (R || !S))</text>
<text text-anchor="start" x="1261.5" y="-274.8" font-family="arial" font-size="14.00" fill="#ff7f00">true</text>
</g>
<!-- st012&#45;&gt;st02 -->
<g id="edge11" class="edge">
<title>st012&#45;&gt;st02</title>
<path fill="none" stroke="#000000" d="M281.7156,-418.2802C294.6094,-441.9645 316.4198,-477.1905 343,-501 387.7151,-541.0539 402.9687,-563 463,-563 463,-563 463,-563 1076,-563 1139.8826,-563 1161.626,-539.5159 1198,-487 1232.9021,-436.6093 1254.8085,-367.9493 1265.6902,-326.9823"/>
<polygon fill="#000000" stroke="#000000" points="1269.107,-327.7492 1268.2205,-317.1916 1262.3296,-325.9977 1269.107,-327.7492"/>
<text text-anchor="start" x="754.5" y="-566.8" font-family="arial" font-size="14.00" fill="#377eb8">true</text>
</g>
<!-- st0234W -->
<g id="node8" class="node">
<title>st0234W</title>
<polygon fill="none" stroke="#000000" points="1140,-316 1012,-316 1012,-266 1140,-266 1140,-316"/>
<text text-anchor="start" x="1046" y="-301.8" font-family="arial" font-weight="bold" font-size="14.00" fill="#000000">st0234W</text>
<text text-anchor="start" x="1020" y="-287.8" font-family="arial" font-size="14.00" fill="#984ea3">(!Q &amp;&amp; (!R &amp;&amp; S))</text>
<text text-anchor="start" x="1051.5" y="-273.8" font-family="arial" font-size="14.00" fill="#ff7f00">c0 &lt;= 5</text>
</g>
<!-- st012&#45;&gt;st0234W -->
<g id="edge12" class="edge">
<title>st012&#45;&gt;st0234W</title>
<path fill="none" stroke="#000000" d="M283.8648,-367.9398C296.1337,-346.4794 313.359,-314.4648 325,-285 335.8573,-257.519 327.498,-246.155 343,-221 408.307,-115.0269 477.6778,-128.9394 601,-112 687.9679,-100.0542 923.4488,-99.7635 994,-152 1029.3037,-178.1391 1052.121,-224.3958 1064.5047,-256.3252"/>
<polygon fill="#000000" stroke="#000000" points="1061.2409,-257.5901 1068.0152,-265.7362 1067.7994,-255.1436 1061.2409,-257.5901"/>
<text text-anchor="start" x="652.5" y="-130.8" font-family="arial" font-size="14.00" fill="#377eb8">true</text>
<text text-anchor="start" x="645" y="-115.8" font-family="arial" font-size="14.00" fill="#000000">c0 :=0</text>
</g>
<!-- _st01234W -->
<!-- _st01234W&#45;&gt;st01234W -->
<g id="edge3" class="edge">
<title>_st01234W&#45;&gt;st01234W</title>
<path fill="none" stroke="#000000" d="M314.635,-124.3493C335.8793,-131.2316 361.2124,-140.4082 383,-151 395.0405,-156.8534 407.5,-164.1311 418.8985,-171.3386"/>
<polygon fill="#000000" stroke="#000000" points="417.083,-174.3325 427.3837,-176.8117 420.8774,-168.45 417.083,-174.3325"/>
</g>
<!-- st01234W&#45;&gt;st012 -->
<g id="edge36" class="edge">
<title>st01234W&#45;&gt;st012</title>
<path fill="none" stroke="#000000" d="M437.4407,-227.164C402.6643,-261.4026 340.3947,-322.7093 302.0882,-360.4234"/>
<polygon fill="#000000" stroke="#000000" points="299.4322,-358.1268 294.7617,-367.6367 304.3432,-363.115 299.4322,-358.1268"/>
<text text-anchor="start" x="356" y="-317.8" font-family="arial" font-size="14.00" fill="#377eb8">R&#39;</text>
</g>
<!-- st01234W&#45;&gt;st01234W -->
<g id="edge38" class="edge">
<title>st01234W&#45;&gt;st01234W</title>
<path fill="none" stroke="#000000" d="M444.3232,-227.1756C443.4932,-236.9095 449.7188,-245 463,-245 471.3008,-245 476.8454,-241.8397 479.634,-237.093"/>
<polygon fill="#000000" stroke="#000000" points="483.0873,-237.6761 481.6768,-227.1756 476.2312,-236.2639 483.0873,-237.6761"/>
<text text-anchor="start" x="443" y="-248.8" font-family="arial" font-size="14.00" fill="#377eb8">c0 &lt; 5</text>
</g>
<!-- st01234W&#45;&gt;st02 -->
<g id="edge33" class="edge">
<title>st01234W&#45;&gt;st02</title>
<path fill="none" stroke="#000000" d="M473.7165,-176.825C498.6504,-122.6753 566.0566,0 665,0 665,0 665,0 1076,0 1198.9517,0 1250.8254,-179.5391 1267.4918,-257.0533"/>
<polygon fill="#000000" stroke="#000000" points="1264.0664,-257.7723 1269.527,-266.8515 1270.9201,-256.3487 1264.0664,-257.7723"/>
<text text-anchor="start" x="863.5" y="-3.8" font-family="arial" font-size="14.00" fill="#377eb8">R&#39;</text>
</g>
<!-- st01234W&#45;&gt;st0234W -->
<g id="edge35" class="edge">
<title>st01234W&#45;&gt;st0234W</title>
<path fill="none" stroke="#000000" d="M525.2417,-198.4837C626.2286,-194.7014 830.906,-195.0821 994,-247 1005.1926,-250.5629 1016.6415,-255.6509 1027.2984,-261.1104"/>
<polygon fill="#000000" stroke="#000000" points="1025.9617,-264.3638 1036.4333,-265.9747 1029.2518,-258.1852 1025.9617,-264.3638"/>
<text text-anchor="start" x="747" y="-210.8" font-family="arial" font-size="14.00" fill="#377eb8">c0 &lt; 5</text>
</g>
<!-- st024W -->
<g id="node9" class="node">
<title>st024W</title>
<polygon fill="none" stroke="#000000" points="936,-403 805,-403 805,-353 936,-353 936,-403"/>
<text text-anchor="start" x="844.5" y="-388.8" font-family="arial" font-weight="bold" font-size="14.00" fill="#000000">st024W</text>
<text text-anchor="start" x="813" y="-374.8" font-family="arial" font-size="14.00" fill="#984ea3">(!Q &amp;&amp; (!R &amp;&amp; !S))</text>
<text text-anchor="start" x="846" y="-360.8" font-family="arial" font-size="14.00" fill="#ff7f00">c0 &lt;= 5</text>
</g>
<!-- st01234W&#45;&gt;st024W -->
<g id="edge34" class="edge">
<title>st01234W&#45;&gt;st024W</title>
<path fill="none" stroke="#000000" d="M479.5533,-227.132C508.5865,-270.3003 568.6693,-355.4155 601,-371 661.3302,-400.0813 738.4176,-398.8391 794.6797,-392.0866"/>
<polygon fill="#000000" stroke="#000000" points="795.4622,-395.5149 804.934,-390.7677 794.5692,-388.5721 795.4622,-395.5149"/>
<text text-anchor="start" x="645" y="-399.8" font-family="arial" font-size="14.00" fill="#377eb8">c0 &lt; 5</text>
</g>
<!-- st0124W -->
<g id="node10" class="node">
<title>st0124W</title>
<polygon fill="none" stroke="#000000" points="729,-273 601,-273 601,-223 729,-223 729,-273"/>
<text text-anchor="start" x="635" y="-258.8" font-family="arial" font-weight="bold" font-size="14.00" fill="#000000">st0124W</text>
<text text-anchor="start" x="609" y="-244.8" font-family="arial" font-size="14.00" fill="#984ea3">(Q &amp;&amp; (!R &amp;&amp; !S))</text>
<text text-anchor="start" x="640.5" y="-230.8" font-family="arial" font-size="14.00" fill="#ff7f00">c0 &lt;= 5</text>
</g>
<!-- st01234W&#45;&gt;st0124W -->
<g id="edge37" class="edge">
<title>st01234W&#45;&gt;st0124W</title>
<path fill="none" stroke="#000000" d="M520.5104,-227.1023C527.9786,-229.7381 535.6033,-232.1319 543,-234 558.1759,-237.8327 574.6815,-240.6185 590.5059,-242.6427"/>
<polygon fill="#000000" stroke="#000000" points="590.442,-246.1597 600.7856,-243.8663 591.2694,-239.2088 590.442,-246.1597"/>
<text text-anchor="start" x="543" y="-245.8" font-family="arial" font-size="14.00" fill="#377eb8">c0 &lt; 5</text>
</g>
<!-- st02&#45;&gt;st012 -->
<g id="edge9" class="edge">
<title>st02&#45;&gt;st012</title>
<path fill="none" stroke="#000000" d="M1266.0635,-317.3786C1245.4242,-377.7671 1184.0268,-525 1076,-525 463,-525 463,-525 463,-525 392.8303,-525 329.2596,-465.2411 295.1749,-426.1401"/>
<polygon fill="#000000" stroke="#000000" points="297.5071,-423.4806 288.3574,-418.1389 292.1789,-428.0205 297.5071,-423.4806"/>
<text text-anchor="start" x="754.5" y="-528.8" font-family="arial" font-size="14.00" fill="#377eb8">true</text>
</g>
<!-- st02&#45;&gt;st01234W -->
<g id="edge10" class="edge">
<title>st02&#45;&gt;st01234W</title>
<path fill="none" stroke="#000000" d="M1249.9458,-266.9745C1204.8253,-222.0587 1102.2321,-129.2596 994,-95 826.2901,-41.9134 772.4721,-102.7302 601,-142 574.8156,-147.9966 567.8537,-148.8082 543,-159 533.6995,-162.8139 524.07,-167.3948 514.8522,-172.1242"/>
<polygon fill="#000000" stroke="#000000" points="513.024,-169.131 505.7991,-176.8803 516.2796,-175.3279 513.024,-169.131"/>
<text text-anchor="start" x="858" y="-101.8" font-family="arial" font-size="14.00" fill="#377eb8">true</text>
<text text-anchor="start" x="850.5" y="-86.8" font-family="arial" font-size="14.00" fill="#000000">c0 :=0</text>
</g>
<!-- st02&#45;&gt;st02 -->
<g id="edge7" class="edge">
<title>st02&#45;&gt;st02</title>
<path fill="none" stroke="#000000" d="M1256.0703,-317.1756C1255.2734,-326.9095 1261.25,-335 1274,-335 1281.9688,-335 1287.2916,-331.8397 1289.9686,-327.093"/>
<polygon fill="#000000" stroke="#000000" points="1293.4233,-327.6647 1291.9297,-317.1756 1286.5562,-326.3067 1293.4233,-327.6647"/>
<text text-anchor="start" x="1261.5" y="-338.8" font-family="arial" font-size="14.00" fill="#377eb8">true</text>
</g>
<!-- st02&#45;&gt;st0234W -->
<g id="edge8" class="edge">
<title>st02&#45;&gt;st0234W</title>
<path fill="none" stroke="#000000" d="M1215.9603,-270.8418C1209.9579,-269.278 1203.8974,-267.9451 1198,-267 1182.5261,-264.5203 1166.0173,-265.3771 1150.3049,-267.8775"/>
<polygon fill="#000000" stroke="#000000" points="1149.3217,-264.4991 1140.1135,-269.7393 1150.5797,-271.3851 1149.3217,-264.4991"/>
<text text-anchor="start" x="1165.5" y="-285.8" font-family="arial" font-size="14.00" fill="#377eb8">true</text>
<text text-anchor="start" x="1158" y="-270.8" font-family="arial" font-size="14.00" fill="#000000">c0 :=0</text>
</g>
<!-- st0234W&#45;&gt;st012 -->
<g id="edge30" class="edge">
<title>st0234W&#45;&gt;st012</title>
<path fill="none" stroke="#000000" d="M1047.0514,-316.0421C1035.3566,-326.9981 1022.2348,-340.4332 1012,-354 1001.9385,-367.3371 1004.0089,-373.6234 994,-387 952.5128,-442.4465 939.7496,-482 870.5,-482 463,-482 463,-482 463,-482 405.8814,-482 347.2129,-449.7332 309.5693,-424.0566"/>
<polygon fill="#000000" stroke="#000000" points="311.1361,-420.882 300.9327,-418.0283 307.1295,-426.622 311.1361,-420.882"/>
<text text-anchor="start" x="658" y="-485.8" font-family="arial" font-size="14.00" fill="#377eb8">R&#39;</text>
</g>
<!-- st0234W&#45;&gt;st01234W -->
<g id="edge32" class="edge">
<title>st0234W&#45;&gt;st01234W</title>
<path fill="none" stroke="#000000" d="M1066.4745,-265.9485C1054.2964,-237.6886 1030.3374,-192.8312 994,-171 908.0901,-119.3862 640.3263,-147.0818 543,-171 539.5691,-171.8431 536.0873,-172.7962 532.5933,-173.8315"/>
<polygon fill="#000000" stroke="#000000" points="531.2269,-170.5926 522.747,-176.9441 533.3369,-177.2671 531.2269,-170.5926"/>
<text text-anchor="start" x="747" y="-147.8" font-family="arial" font-size="14.00" fill="#377eb8">c0 &lt; 5</text>
</g>
<!-- st0234W&#45;&gt;st02 -->
<g id="edge27" class="edge">
<title>st0234W&#45;&gt;st02</title>
<path fill="none" stroke="#000000" d="M1140.4335,-296.1611C1146.3694,-296.5017 1152.2941,-296.7915 1158,-297 1175.7659,-297.6491 1180.2318,-297.5838 1198,-297 1200.544,-296.9164 1203.1352,-296.8171 1205.7521,-296.7049"/>
<polygon fill="#000000" stroke="#000000" points="1206.1073,-300.192 1215.9271,-296.2145 1205.7702,-293.2001 1206.1073,-300.192"/>
<text text-anchor="start" x="1171" y="-300.8" font-family="arial" font-size="14.00" fill="#377eb8">R&#39;</text>
</g>
<!-- st0234W&#45;&gt;st0234W -->
<g id="edge29" class="edge">
<title>st0234W&#45;&gt;st0234W</title>
<path fill="none" stroke="#000000" d="M1056.9497,-316.1756C1056.103,-325.9095 1062.4531,-334 1076,-334 1084.4668,-334 1090.1224,-330.8397 1092.9667,-326.093"/>
<polygon fill="#000000" stroke="#000000" points="1096.4193,-326.6816 1095.0503,-316.1756 1089.5689,-325.2423 1096.4193,-326.6816"/>
<text text-anchor="start" x="1056" y="-337.8" font-family="arial" font-size="14.00" fill="#377eb8">c0 &lt; 5</text>
</g>
<!-- st0234W&#45;&gt;st024W -->
<g id="edge28" class="edge">
<title>st0234W&#45;&gt;st024W</title>
<path fill="none" stroke="#000000" d="M1011.9026,-313.8513C993.0962,-320.9093 972.5923,-328.9523 954,-337 945.7281,-340.5805 937.0941,-344.5486 928.6491,-348.5651"/>
<polygon fill="#000000" stroke="#000000" points="927.0791,-345.4364 919.5857,-352.9263 930.1143,-351.7441 927.0791,-345.4364"/>
<text text-anchor="start" x="954" y="-340.8" font-family="arial" font-size="14.00" fill="#377eb8">c0 &lt; 5</text>
</g>
<!-- st0234W&#45;&gt;st0124W -->
<g id="edge31" class="edge">
<title>st0234W&#45;&gt;st0124W</title>
<path fill="none" stroke="#000000" d="M1011.8881,-293.2165C988.0619,-293.9388 960.7993,-294.6458 936,-295 877.7837,-295.8315 861.9539,-307.0864 805,-295 796.4362,-293.1826 795.1815,-290.1152 787,-287 771.5977,-281.1354 754.8877,-275.3975 738.9182,-270.2047"/>
<polygon fill="#000000" stroke="#000000" points="739.6803,-266.7733 729.089,-267.0455 737.5384,-273.4376 739.6803,-266.7733"/>
<text text-anchor="start" x="850.5" y="-303.8" font-family="arial" font-size="14.00" fill="#377eb8">c0 &lt; 5</text>
</g>
<!-- st024W&#45;&gt;st012 -->
<g id="edge18" class="edge">
<title>st024W&#45;&gt;st012</title>
<path fill="none" stroke="#000000" d="M804.8243,-403.1395C798.8484,-404.957 792.8458,-406.6157 787,-408 761.7339,-413.9829 754.918,-413.4416 729,-415 588.947,-423.4209 424.7496,-409.9589 335.321,-400.6583"/>
<polygon fill="#000000" stroke="#000000" points="335.6323,-397.1718 325.3202,-399.603 334.8976,-404.1332 335.6323,-397.1718"/>
<text text-anchor="start" x="556" y="-419.8" font-family="arial" font-size="14.00" fill="#377eb8">R&#39;</text>
</g>
<!-- st024W&#45;&gt;st01234W -->
<g id="edge20" class="edge">
<title>st024W&#45;&gt;st01234W</title>
<path fill="none" stroke="#000000" d="M804.7781,-370.3392C786.0059,-367.6337 765.6001,-364.1956 747,-360 713.8815,-352.5295 630.9148,-331.0544 601,-315 561.0183,-293.543 521.5929,-259.6262 495.1867,-234.5439"/>
<polygon fill="#000000" stroke="#000000" points="497.3914,-231.8081 487.7594,-227.3949 492.5369,-236.8514 497.3914,-231.8081"/>
<text text-anchor="start" x="645" y="-358.8" font-family="arial" font-size="14.00" fill="#377eb8">c0 &lt; 5</text>
</g>
<!-- st024W&#45;&gt;st02 -->
<g id="edge15" class="edge">
<title>st024W&#45;&gt;st02</title>
<path fill="none" stroke="#000000" d="M936.2485,-386.9575C954.9286,-388.3724 975.2797,-388.8412 994,-387 1059.8389,-380.5245 1077.3463,-379.2415 1140,-358 1167.8751,-348.5495 1197.3729,-334.5055 1221.5751,-321.7988"/>
<polygon fill="#000000" stroke="#000000" points="1223.3947,-324.7952 1230.5772,-317.0066 1220.1053,-318.6162 1223.3947,-324.7952"/>
<text text-anchor="start" x="1069" y="-388.8" font-family="arial" font-size="14.00" fill="#377eb8">R&#39;</text>
</g>
<!-- st024W&#45;&gt;st0234W -->
<g id="edge17" class="edge">
<title>st024W&#45;&gt;st0234W</title>
<path fill="none" stroke="#000000" d="M936.0784,-372.4549C955.331,-369.2169 976.0299,-364.0957 994,-356 1012.0278,-347.8783 1029.549,-334.9128 1043.7355,-322.6905"/>
<polygon fill="#000000" stroke="#000000" points="1046.1025,-325.2694 1051.2558,-316.0122 1041.4544,-320.0352 1046.1025,-325.2694"/>
<text text-anchor="start" x="954" y="-371.8" font-family="arial" font-size="14.00" fill="#377eb8">c0 &lt; 5</text>
</g>
<!-- st024W&#45;&gt;st024W -->
<g id="edge16" class="edge">
<title>st024W&#45;&gt;st024W</title>
<path fill="none" stroke="#000000" d="M851.4497,-403.1756C850.603,-412.9095 856.9531,-421 870.5,-421 878.9668,-421 884.6224,-417.8397 887.4667,-413.093"/>
<polygon fill="#000000" stroke="#000000" points="890.9193,-413.6816 889.5503,-403.1756 884.0689,-412.2423 890.9193,-413.6816"/>
<text text-anchor="start" x="850.5" y="-424.8" font-family="arial" font-size="14.00" fill="#377eb8">c0 &lt; 5</text>
</g>
<!-- st024W&#45;&gt;st0124W -->
<g id="edge19" class="edge">
<title>st024W&#45;&gt;st0124W</title>
<path fill="none" stroke="#000000" d="M805.3739,-352.9698C785.9346,-344.3239 765.0191,-333.8039 747,-322 728.8327,-310.099 710.6905,-294.2443 696.107,-280.2637"/>
<polygon fill="#000000" stroke="#000000" points="698.4247,-277.635 688.824,-273.1544 693.5351,-282.6442 698.4247,-277.635"/>
<text text-anchor="start" x="747" y="-346.8" font-family="arial" font-size="14.00" fill="#377eb8">c0 &lt; 5</text>
</g>
<!-- st0124W&#45;&gt;st012 -->
<g id="edge24" class="edge">
<title>st0124W&#45;&gt;st012</title>
<path fill="none" stroke="#000000" d="M600.6691,-271.5555C527.5425,-298.3317 408.7807,-341.8177 334.9774,-368.8416"/>
<polygon fill="#000000" stroke="#000000" points="333.5034,-365.654 325.3166,-372.379 335.9103,-372.2272 333.5034,-365.654"/>
<text text-anchor="start" x="456" y="-347.8" font-family="arial" font-size="14.00" fill="#377eb8">R&#39;</text>
</g>
<!-- st0124W&#45;&gt;st01234W -->
<g id="edge26" class="edge">
<title>st0124W&#45;&gt;st01234W</title>
<path fill="none" stroke="#000000" d="M600.9095,-223.9733C594.9016,-222.1341 588.8665,-220.4377 583,-219 567.7444,-215.2614 551.1824,-212.2576 535.373,-209.878"/>
<polygon fill="#000000" stroke="#000000" points="535.5103,-206.3618 525.1139,-208.403 534.514,-213.2906 535.5103,-206.3618"/>
<text text-anchor="start" x="543" y="-222.8" font-family="arial" font-size="14.00" fill="#377eb8">c0 &lt; 5</text>
</g>
<!-- st0124W&#45;&gt;st02 -->
<g id="edge21" class="edge">
<title>st0124W&#45;&gt;st02</title>
<path fill="none" stroke="#000000" d="M729.2011,-247.8525C820.5305,-247.9531 993.1816,-249.2894 1140,-257 1165.8378,-258.3569 1172.8137,-256.0768 1198,-262 1200.6279,-262.618 1203.2852,-263.31 1205.9528,-264.0614"/>
<polygon fill="#000000" stroke="#000000" points="1205.0375,-267.4414 1215.6238,-267.0168 1207.0833,-260.747 1205.0375,-267.4414"/>
<text text-anchor="start" x="967" y="-255.8" font-family="arial" font-size="14.00" fill="#377eb8">R&#39;</text>
</g>
<!-- st0124W&#45;&gt;st0234W -->
<g id="edge23" class="edge">
<title>st0124W&#45;&gt;st0234W</title>
<path fill="none" stroke="#000000" d="M729.2188,-254.7188C803.006,-262.4386 923.894,-275.0862 1001.6849,-283.2249"/>
<polygon fill="#000000" stroke="#000000" points="1001.5842,-286.7334 1011.8941,-284.2931 1002.3126,-279.7714 1001.5842,-286.7334"/>
<text text-anchor="start" x="850.5" y="-279.8" font-family="arial" font-size="14.00" fill="#377eb8">c0 &lt; 5</text>
</g>
<!-- st0124W&#45;&gt;st024W -->
<g id="edge22" class="edge">
<title>st0124W&#45;&gt;st024W</title>
<path fill="none" stroke="#000000" d="M721.8158,-273.1198C752.9791,-286.9801 785.6125,-301.6671 787,-303 799.9002,-315.3929 792.8235,-325.8953 805,-339 807.4154,-341.5996 810.0434,-344.0824 812.8129,-346.4445"/>
<polygon fill="#000000" stroke="#000000" points="810.8959,-349.388 820.9337,-352.7781 815.2009,-343.8682 810.8959,-349.388"/>
<text text-anchor="start" x="747" y="-306.8" font-family="arial" font-size="14.00" fill="#377eb8">c0 &lt; 5</text>
</g>
<!-- st0124W&#45;&gt;st0124W -->
<g id="edge25" class="edge">
<title>st0124W&#45;&gt;st0124W</title>
<path fill="none" stroke="#000000" d="M645.9497,-273.1756C645.103,-282.9095 651.4531,-291 665,-291 673.4668,-291 679.1224,-287.8397 681.9667,-283.093"/>
<polygon fill="#000000" stroke="#000000" points="685.4193,-283.6816 684.0503,-273.1756 678.5689,-282.2423 685.4193,-283.6816"/>
<text text-anchor="start" x="645" y="-294.8" font-family="arial" font-size="14.00" fill="#377eb8">c0 &lt; 5</text>
</g>
</g>
</svg>
