<?xml version="1.0" encoding="UTF-8" standalone="no"?>
<!DOCTYPE svg PUBLIC "-//W3C//DTD SVG 1.1//EN"
 "http://www.w3.org/Graphics/SVG/1.1/DTD/svg11.dtd">
<!-- Generated by graphviz version 2.43.0 (0)
 -->
<!-- Title: G Pages: 1 -->
<svg width="871pt" height="249pt"
 viewBox="0.00 0.00 871.00 249.00" xmlns="http://www.w3.org/2000/svg" xmlns:xlink="http://www.w3.org/1999/xlink">
<g id="graph0" class="graph" transform="scale(1 1) rotate(0) translate(4 245)">
<title>G</title>
<polygon fill="white" stroke="transparent" points="-4,4 -4,-245 867,-245 867,4 -4,4"/>
<!-- _ID_27_ct0_st -->
<!-- ID_27_ct0_st -->
<g id="node2" class="node">
<title>ID_27_ct0_st</title>
<polygon fill="none" stroke="black" points="863,-180 764,-180 764,-130 863,-130 863,-180"/>
<text text-anchor="start" x="772" y="-165.8" font-family="arial" font-weight="bold" font-size="14.00">ID_27_ct0_st</text>
<text text-anchor="start" x="801.5" y="-151.8" font-family="arial" font-size="14.00" fill="#984ea3">true</text>
<text text-anchor="start" x="801.5" y="-137.8" font-family="arial" font-size="14.00" fill="#ff7f00">true</text>
</g>
<!-- _ID_27_ct0_st&#45;&gt;ID_27_ct0_st -->
<g id="edge1" class="edge">
<title>_ID_27_ct0_st&#45;&gt;ID_27_ct0_st</title>
<path fill="none" stroke="black" d="M701.44,-207.69C716.04,-202.85 731.81,-197.15 746,-191 750.43,-189.08 754.97,-186.96 759.48,-184.75"/>
<polygon fill="black" stroke="black" points="761.33,-187.74 768.68,-180.11 758.17,-181.49 761.33,-187.74"/>
</g>
<!-- ID_27_ct0_st&#45;&gt;ID_27_ct0_st -->
<g id="edge4" class="edge">
<title>ID_27_ct0_st&#45;&gt;ID_27_ct0_st</title>
<path fill="none" stroke="black" d="M799.68,-180.18C799.06,-189.91 803.67,-198 813.5,-198 819.64,-198 823.75,-194.84 825.81,-190.09"/>
<polygon fill="black" stroke="black" points="829.27,-190.59 827.32,-180.18 822.35,-189.53 829.27,-190.59"/>
<text text-anchor="start" x="801.5" y="-201.8" font-family="arial" font-size="14.00" fill="#377eb8">true</text>
</g>
<!-- _ID_27_ct0_st0 -->
<!-- ID_27_ct0_st0 -->
<g id="node4" class="node">
<title>ID_27_ct0_st0</title>
<polygon fill="none" stroke="black" points="274.5,-144 161.5,-144 161.5,-94 274.5,-94 274.5,-144"/>
<text text-anchor="start" x="172.5" y="-129.8" font-family="arial" font-weight="bold" font-size="14.00">ID_27_ct0_st0</text>
<text text-anchor="start" x="169.5" y="-115.8" font-family="arial" font-size="14.00" fill="#984ea3">(!Q &amp;&amp; (R || !S))</text>
<text text-anchor="start" x="206" y="-101.8" font-family="arial" font-size="14.00" fill="#ff7f00">true</text>
</g>
<!-- _ID_27_ct0_st0&#45;&gt;ID_27_ct0_st0 -->
<g id="edge2" class="edge">
<title>_ID_27_ct0_st0&#45;&gt;ID_27_ct0_st0</title>
<path fill="none" stroke="black" d="M111.29,-119C124.17,-119 138.02,-119 151.33,-119"/>
<polygon fill="black" stroke="black" points="151.37,-122.5 161.37,-119 151.37,-115.5 151.37,-122.5"/>
</g>
<!-- ID_27_ct0_st0&#45;&gt;ID_27_ct0_st -->
<g id="edge5" class="edge">
<title>ID_27_ct0_st0&#45;&gt;ID_27_ct0_st</title>
<path fill="none" stroke="black" d="M274.65,-127.02C285.06,-128.42 295.85,-129.81 306,-131 429.73,-145.51 460.57,-151.99 585,-158 641.82,-160.74 656.12,-158.86 713,-158 726.22,-157.8 740.42,-157.45 753.84,-157.06"/>
<polygon fill="black" stroke="black" points="754.03,-160.56 763.92,-156.76 753.82,-153.56 754.03,-160.56"/>
<text text-anchor="start" x="540.5" y="-160.8" font-family="arial" font-size="14.00" fill="#377eb8">Q&#39;</text>
</g>
<!-- ID_27_ct0_st0&#45;&gt;ID_27_ct0_st0 -->
<g id="edge6" class="edge">
<title>ID_27_ct0_st0&#45;&gt;ID_27_ct0_st0</title>
<path fill="none" stroke="black" d="M201.56,-144.18C200.83,-153.91 206.31,-162 218,-162 225.3,-162 230.18,-158.84 232.64,-154.09"/>
<polygon fill="black" stroke="black" points="236.1,-154.64 234.44,-144.18 229.21,-153.39 236.1,-154.64"/>
<text text-anchor="start" x="206" y="-165.8" font-family="arial" font-size="14.00" fill="#377eb8">true</text>
</g>
<!-- ID_27_ct0_st012W -->
<g id="node6" class="node">
<title>ID_27_ct0_st012W</title>
<polygon fill="none" stroke="black" points="511,-65 376,-65 376,-15 511,-15 511,-65"/>
<text text-anchor="start" x="384" y="-50.8" font-family="arial" font-weight="bold" font-size="14.00">ID_27_ct0_st012W</text>
<text text-anchor="start" x="390" y="-36.8" font-family="arial" font-size="14.00" fill="#984ea3">(!Q &amp;&amp; (!R &amp;&amp; S))</text>
<text text-anchor="start" x="420.5" y="-22.8" font-family="arial" font-size="14.00" fill="#ff7f00">c0 &lt;= 5</text>
</g>
<!-- ID_27_ct0_st0&#45;&gt;ID_27_ct0_st012W -->
<g id="edge7" class="edge">
<title>ID_27_ct0_st0&#45;&gt;ID_27_ct0_st012W</title>
<path fill="none" stroke="black" d="M243.59,-93.84C259.82,-78.94 282.38,-61.22 306,-52 324.67,-44.71 345.84,-40.92 365.84,-39.12"/>
<polygon fill="black" stroke="black" points="366.15,-42.61 375.86,-38.37 365.63,-35.63 366.15,-42.61"/>
<text text-anchor="start" x="320" y="-70.8" font-family="arial" font-size="14.00" fill="#377eb8">true</text>
<text text-anchor="start" x="313" y="-55.8" font-family="arial" font-size="14.00">c0 :=0</text>
</g>
<!-- _ID_27_ct0_st012W -->
<!-- _ID_27_ct0_st012W&#45;&gt;ID_27_ct0_st012W -->
<g id="edge3" class="edge">
<title>_ID_27_ct0_st012W&#45;&gt;ID_27_ct0_st012W</title>
<path fill="none" stroke="black" d="M288.19,-24.81C312.75,-27.23 340.54,-29.96 365.7,-32.44"/>
<polygon fill="black" stroke="black" points="365.64,-35.95 375.94,-33.45 366.33,-28.98 365.64,-35.95"/>
</g>
<!-- ID_27_ct0_st012W&#45;&gt;ID_27_ct0_st -->
<g id="edge12" class="edge">
<title>ID_27_ct0_st012W&#45;&gt;ID_27_ct0_st</title>
<path fill="none" stroke="black" d="M511.2,-25.9C567.6,-17.3 649.18,-12.87 713,-42 748.47,-58.19 776.38,-93.86 793.5,-120.83"/>
<polygon fill="black" stroke="black" points="790.67,-122.91 798.89,-129.6 796.64,-119.25 790.67,-122.91"/>
<text text-anchor="start" x="641.5" y="-45.8" font-family="arial" font-size="14.00" fill="#377eb8">Q&#39;</text>
</g>
<!-- ID_27_ct0_st012W&#45;&gt;ID_27_ct0_st0 -->
<g id="edge13" class="edge">
<title>ID_27_ct0_st012W&#45;&gt;ID_27_ct0_st0</title>
<path fill="none" stroke="black" d="M396.32,-65.04C384.08,-71.1 370.72,-77.2 358,-82 334.49,-90.87 307.98,-98.48 284.47,-104.46"/>
<polygon fill="black" stroke="black" points="283.46,-101.1 274.6,-106.92 285.15,-107.9 283.46,-101.1"/>
<text text-anchor="start" x="306" y="-100.8" font-family="arial" font-size="14.00" fill="#377eb8">(Q&#39; || R&#39;)</text>
</g>
<!-- ID_27_ct0_st012W&#45;&gt;ID_27_ct0_st012W -->
<g id="edge15" class="edge">
<title>ID_27_ct0_st012W&#45;&gt;ID_27_ct0_st012W</title>
<path fill="none" stroke="black" d="M424.08,-65.18C423.21,-74.91 429.69,-83 443.5,-83 452.13,-83 457.9,-79.84 460.8,-75.09"/>
<polygon fill="black" stroke="black" points="464.25,-75.69 462.92,-65.18 457.41,-74.22 464.25,-75.69"/>
<text text-anchor="start" x="424.5" y="-86.8" font-family="arial" font-size="14.00" fill="#377eb8">c0 &lt; 5</text>
</g>
<!-- ID_27_ct0_st02W -->
<g id="node7" class="node">
<title>ID_27_ct0_st02W</title>
<polygon fill="none" stroke="black" points="713,-116 585,-116 585,-66 713,-66 713,-116"/>
<text text-anchor="start" x="593" y="-101.8" font-family="arial" font-weight="bold" font-size="14.00">ID_27_ct0_st02W</text>
<text text-anchor="start" x="593.5" y="-87.8" font-family="arial" font-size="14.00" fill="#984ea3">(!Q &amp;&amp; (!R &amp;&amp; !S))</text>
<text text-anchor="start" x="626" y="-73.8" font-family="arial" font-size="14.00" fill="#ff7f00">c0 &lt;= 5</text>
</g>
<!-- ID_27_ct0_st012W&#45;&gt;ID_27_ct0_st02W -->
<g id="edge14" class="edge">
<title>ID_27_ct0_st012W&#45;&gt;ID_27_ct0_st02W</title>
<path fill="none" stroke="black" d="M511.26,-46.07C529.52,-48.6 549.19,-52.12 567,-57 572.65,-58.55 578.44,-60.4 584.18,-62.43"/>
<polygon fill="black" stroke="black" points="583.19,-65.79 593.78,-65.98 585.62,-59.23 583.19,-65.79"/>
<text text-anchor="start" x="529" y="-60.8" font-family="arial" font-size="14.00" fill="#377eb8">c0 &lt; 5</text>
</g>
<!-- ID_27_ct0_st02W&#45;&gt;ID_27_ct0_st -->
<g id="edge8" class="edge">
<title>ID_27_ct0_st02W&#45;&gt;ID_27_ct0_st</title>
<path fill="none" stroke="black" d="M713.29,-115.93C726.85,-121.27 741.1,-126.88 754.44,-132.14"/>
<polygon fill="black" stroke="black" points="753.39,-135.48 763.98,-135.89 755.95,-128.97 753.39,-135.48"/>
<text text-anchor="start" x="731" y="-131.8" font-family="arial" font-size="14.00" fill="#377eb8">Q&#39;</text>
</g>
<!-- ID_27_ct0_st02W&#45;&gt;ID_27_ct0_st0 -->
<g id="edge9" class="edge">
<title>ID_27_ct0_st02W&#45;&gt;ID_27_ct0_st0</title>
<path fill="none" stroke="black" d="M584.8,-99.87C578.79,-100.63 572.78,-101.35 567,-102 469.03,-113.02 354.75,-116.9 284.64,-118.26"/>
<polygon fill="black" stroke="black" points="284.56,-114.76 274.62,-118.45 284.69,-121.76 284.56,-114.76"/>
<text text-anchor="start" x="417.5" y="-118.8" font-family="arial" font-size="14.00" fill="#377eb8">(Q&#39; || R&#39;)</text>
</g>
<!-- ID_27_ct0_st02W&#45;&gt;ID_27_ct0_st012W -->
<g id="edge11" class="edge">
<title>ID_27_ct0_st02W&#45;&gt;ID_27_ct0_st012W</title>
<path fill="none" stroke="black" d="M584.99,-86.35C566.72,-84.12 546.89,-80.84 529,-76 521.8,-74.05 514.42,-71.62 507.15,-68.94"/>
<polygon fill="black" stroke="black" points="507.94,-65.49 497.35,-65.15 505.41,-72.02 507.94,-65.49"/>
<text text-anchor="start" x="529" y="-86.8" font-family="arial" font-size="14.00" fill="#377eb8">c0 &lt; 5</text>
</g>
<!-- ID_27_ct0_st02W&#45;&gt;ID_27_ct0_st02W -->
<g id="edge10" class="edge">
<title>ID_27_ct0_st02W&#45;&gt;ID_27_ct0_st02W</title>
<path fill="none" stroke="black" d="M632.56,-116.18C631.83,-125.91 637.31,-134 649,-134 656.3,-134 661.18,-130.84 663.64,-126.09"/>
<polygon fill="black" stroke="black" points="667.1,-126.64 665.44,-116.18 660.21,-125.39 667.1,-126.64"/>
<text text-anchor="start" x="630" y="-137.8" font-family="arial" font-size="14.00" fill="#377eb8">c0 &lt; 5</text>
</g>
</g>
</svg>
