<?xml version="1.0" encoding="UTF-8" standalone="no"?>
<!DOCTYPE svg PUBLIC "-//W3C//DTD SVG 1.1//EN"
 "http://www.w3.org/Graphics/SVG/1.1/DTD/svg11.dtd">
<!-- Generated by graphviz version 2.43.0 (0)
 -->
<!-- Title: G Pages: 1 -->
<svg width="737pt" height="155pt"
 viewBox="0.00 0.00 737.00 155.00" xmlns="http://www.w3.org/2000/svg" xmlns:xlink="http://www.w3.org/1999/xlink">
<g id="graph0" class="graph" transform="scale(1 1) rotate(0) translate(4 151)">
<title>G</title>
<polygon fill="white" stroke="transparent" points="-4,4 -4,-151 733,-151 733,4 -4,4"/>
<!-- _ID_104_ct0_st0 -->
<!-- ID_104_ct0_st0 -->
<g id="node2" class="node">
<title>ID_104_ct0_st0</title>
<polygon fill="none" stroke="black" points="286.5,-114 172.5,-114 172.5,-64 286.5,-64 286.5,-114"/>
<text text-anchor="start" x="180.5" y="-99.8" font-family="arial" font-weight="bold" font-size="14.00">ID_104_ct0_st0</text>
<text text-anchor="start" x="205" y="-85.8" font-family="arial" font-size="14.00" fill="#984ea3">(Q || !R)</text>
<text text-anchor="start" x="217.5" y="-71.8" font-family="arial" font-size="14.00" fill="#ff7f00">true</text>
</g>
<!-- _ID_104_ct0_st0&#45;&gt;ID_104_ct0_st0 -->
<g id="edge1" class="edge">
<title>_ID_104_ct0_st0&#45;&gt;ID_104_ct0_st0</title>
<path fill="none" stroke="black" d="M119.26,-89C133.12,-89 147.98,-89 162.15,-89"/>
<polygon fill="black" stroke="black" points="162.32,-92.5 172.32,-89 162.32,-85.5 162.32,-92.5"/>
</g>
<!-- ID_104_ct0_st0&#45;&gt;ID_104_ct0_st0 -->
<g id="edge3" class="edge">
<title>ID_104_ct0_st0&#45;&gt;ID_104_ct0_st0</title>
<path fill="none" stroke="black" d="M212.32,-114.18C211.55,-123.91 217.28,-132 229.5,-132 237.14,-132 242.24,-128.84 244.8,-124.09"/>
<polygon fill="black" stroke="black" points="248.26,-124.65 246.68,-114.18 241.38,-123.35 248.26,-124.65"/>
<text text-anchor="start" x="217.5" y="-135.8" font-family="arial" font-size="14.00" fill="#377eb8">true</text>
</g>
<!-- ID_104_ct0_st012W -->
<g id="node4" class="node">
<title>ID_104_ct0_st012W</title>
<polygon fill="none" stroke="black" points="520,-70 377,-70 377,-20 520,-20 520,-70"/>
<text text-anchor="start" x="385" y="-55.8" font-family="arial" font-weight="bold" font-size="14.00">ID_104_ct0_st012W</text>
<text text-anchor="start" x="418.5" y="-41.8" font-family="arial" font-size="14.00" fill="#984ea3">(!Q &amp;&amp; R)</text>
<text text-anchor="start" x="425.5" y="-27.8" font-family="arial" font-size="14.00" fill="#ff7f00">c0 &lt;= 5</text>
</g>
<!-- ID_104_ct0_st0&#45;&gt;ID_104_ct0_st012W -->
<g id="edge4" class="edge">
<title>ID_104_ct0_st0&#45;&gt;ID_104_ct0_st012W</title>
<path fill="none" stroke="black" d="M286.65,-80.31C309.21,-76.58 335.41,-71.94 359,-67 361.51,-66.47 364.05,-65.93 366.62,-65.36"/>
<polygon fill="black" stroke="black" points="367.61,-68.73 376.6,-63.12 366.07,-61.9 367.61,-68.73"/>
<text text-anchor="start" x="328" y="-92.8" font-family="arial" font-size="14.00" fill="#377eb8">true</text>
<text text-anchor="start" x="321" y="-77.8" font-family="arial" font-size="14.00">c0 :=0</text>
</g>
<!-- _ID_104_ct0_st012W -->
<!-- _ID_104_ct0_st012W&#45;&gt;ID_104_ct0_st012W -->
<g id="edge2" class="edge">
<title>_ID_104_ct0_st012W&#45;&gt;ID_104_ct0_st012W</title>
<path fill="none" stroke="black" d="M303.27,-25.45C321.48,-27.45 340.97,-29.69 359,-32 361.49,-32.32 364.03,-32.65 366.58,-32.99"/>
<polygon fill="black" stroke="black" points="366.15,-36.46 376.52,-34.34 367.09,-29.53 366.15,-36.46"/>
</g>
<!-- ID_104_ct0_st012W&#45;&gt;ID_104_ct0_st0 -->
<g id="edge8" class="edge">
<title>ID_104_ct0_st012W&#45;&gt;ID_104_ct0_st0</title>
<path fill="none" stroke="black" d="M376.95,-41.69C358.56,-42.18 338.88,-43.92 321,-48 309.18,-50.7 297.02,-55.01 285.61,-59.84"/>
<polygon fill="black" stroke="black" points="283.94,-56.75 276.22,-64 286.78,-63.15 283.94,-56.75"/>
<text text-anchor="start" x="332.5" y="-51.8" font-family="arial" font-size="14.00" fill="#377eb8">Q&#39;</text>
</g>
<!-- ID_104_ct0_st012W&#45;&gt;ID_104_ct0_st012W -->
<g id="edge10" class="edge">
<title>ID_104_ct0_st012W&#45;&gt;ID_104_ct0_st012W</title>
<path fill="none" stroke="black" d="M428.33,-70.18C427.43,-79.91 434.16,-88 448.5,-88 457.46,-88 463.45,-84.84 466.46,-80.09"/>
<polygon fill="black" stroke="black" points="469.92,-80.7 468.67,-70.18 463.08,-79.18 469.92,-80.7"/>
<text text-anchor="start" x="429.5" y="-91.8" font-family="arial" font-size="14.00" fill="#377eb8">c0 &lt; 5</text>
</g>
<!-- ID_104_ct0_st02W -->
<g id="node5" class="node">
<title>ID_104_ct0_st02W</title>
<polygon fill="none" stroke="black" points="729,-108 594,-108 594,-58 729,-58 729,-108"/>
<text text-anchor="start" x="602" y="-93.8" font-family="arial" font-weight="bold" font-size="14.00">ID_104_ct0_st02W</text>
<text text-anchor="start" x="629.5" y="-79.8" font-family="arial" font-size="14.00" fill="#984ea3">(!Q &amp;&amp; !R)</text>
<text text-anchor="start" x="638.5" y="-65.8" font-family="arial" font-size="14.00" fill="#ff7f00">c0 &lt;= 5</text>
</g>
<!-- ID_104_ct0_st012W&#45;&gt;ID_104_ct0_st02W -->
<g id="edge9" class="edge">
<title>ID_104_ct0_st012W&#45;&gt;ID_104_ct0_st02W</title>
<path fill="none" stroke="black" d="M520.03,-57.76C526.11,-58.86 532.16,-59.95 538,-61 552.83,-63.67 568.67,-66.52 583.86,-69.25"/>
<polygon fill="black" stroke="black" points="583.28,-72.7 593.74,-71.03 584.52,-65.81 583.28,-72.7"/>
<text text-anchor="start" x="538" y="-71.8" font-family="arial" font-size="14.00" fill="#377eb8">c0 &lt; 5</text>
</g>
<!-- ID_104_ct0_st02W&#45;&gt;ID_104_ct0_st0 -->
<g id="edge5" class="edge">
<title>ID_104_ct0_st02W&#45;&gt;ID_104_ct0_st0</title>
<path fill="none" stroke="black" d="M593.75,-99.67C570.56,-104.69 544.28,-109.52 520,-112 432,-120.99 408.61,-120.27 321,-108 313.09,-106.89 304.83,-105.5 296.66,-103.97"/>
<polygon fill="black" stroke="black" points="297.26,-100.52 286.78,-102.05 295.92,-107.39 297.26,-100.52"/>
<text text-anchor="start" x="441" y="-121.8" font-family="arial" font-size="14.00" fill="#377eb8">Q&#39;</text>
</g>
<!-- ID_104_ct0_st02W&#45;&gt;ID_104_ct0_st012W -->
<g id="edge7" class="edge">
<title>ID_104_ct0_st02W&#45;&gt;ID_104_ct0_st012W</title>
<path fill="none" stroke="black" d="M612.47,-57.99C600.83,-53.06 588.22,-48.61 576,-46 561.52,-42.91 545.88,-41.38 530.71,-40.8"/>
<polygon fill="black" stroke="black" points="530.39,-37.29 520.31,-40.54 530.22,-44.28 530.39,-37.29"/>
<text text-anchor="start" x="538" y="-49.8" font-family="arial" font-size="14.00" fill="#377eb8">c0 &lt; 5</text>
</g>
<!-- ID_104_ct0_st02W&#45;&gt;ID_104_ct0_st02W -->
<g id="edge6" class="edge">
<title>ID_104_ct0_st02W&#45;&gt;ID_104_ct0_st02W</title>
<path fill="none" stroke="black" d="M642.08,-108.18C641.21,-117.91 647.69,-126 661.5,-126 670.13,-126 675.9,-122.84 678.8,-118.09"/>
<polygon fill="black" stroke="black" points="682.25,-118.69 680.92,-108.18 675.41,-117.22 682.25,-118.69"/>
<text text-anchor="start" x="642.5" y="-129.8" font-family="arial" font-size="14.00" fill="#377eb8">c0 &lt; 5</text>
</g>
</g>
</svg>
