<?xml version="1.0" encoding="UTF-8" standalone="no"?>
<!DOCTYPE svg PUBLIC "-//W3C//DTD SVG 1.1//EN"
 "http://www.w3.org/Graphics/SVG/1.1/DTD/svg11.dtd">
<!-- Generated by graphviz version 2.40.1 (20161225.0304)
 -->
<!-- Title: G Pages: 1 -->
<svg width="450pt" height="239pt"
 viewBox="0.00 0.00 450.00 239.00" xmlns="http://www.w3.org/2000/svg" xmlns:xlink="http://www.w3.org/1999/xlink">
<g id="graph0" class="graph" transform="scale(1 1) rotate(0) translate(4 235)">
<title>G</title>
<polygon fill="#ffffff" stroke="transparent" points="-4,4 -4,-235 446,-235 446,4 -4,4"/>
<!-- _stinit -->
<!-- stinit -->
<g id="node2" class="node">
<title>stinit</title>
<polygon fill="none" stroke="#000000" points="313,-198 259,-198 259,-148 313,-148 313,-198"/>
<text text-anchor="start" x="269" y="-183.8" font-family="arial" font-weight="bold" font-size="14.00" fill="#000000">stinit</text>
<text text-anchor="start" x="280" y="-169.8" font-family="arial" font-size="14.00" fill="#984ea3">Q</text>
<text text-anchor="start" x="273.5" y="-155.8" font-family="arial" font-size="14.00" fill="#ff7f00">true</text>
</g>
<!-- _stinit&#45;&gt;stinit -->
<g id="edge1" class="edge">
<title>_stinit&#45;&gt;stinit</title>
<path fill="none" stroke="#000000" d="M157.1731,-173C182.4849,-173 220.4449,-173 248.6092,-173"/>
<polygon fill="#000000" stroke="#000000" points="248.877,-176.5001 258.877,-173 248.877,-169.5001 248.877,-176.5001"/>
</g>
<!-- stinit&#45;&gt;stinit -->
<g id="edge5" class="edge">
<title>stinit&#45;&gt;stinit</title>
<path fill="none" stroke="#000000" d="M272.9263,-198.1756C272.3452,-207.9095 276.7031,-216 286,-216 291.8105,-216 295.6918,-212.8397 297.6438,-208.093"/>
<polygon fill="#000000" stroke="#000000" points="301.1107,-208.5728 299.0737,-198.1756 294.1824,-207.5738 301.1107,-208.5728"/>
<text text-anchor="start" x="273.5" y="-219.8" font-family="arial" font-size="14.00" fill="#377eb8">true</text>
</g>
<!-- st -->
<g id="node7" class="node">
<title>st</title>
<polygon fill="none" stroke="#000000" points="442,-97 388,-97 388,-47 442,-47 442,-97"/>
<text text-anchor="start" x="408.5" y="-82.8" font-family="arial" font-weight="bold" font-size="14.00" fill="#000000">st</text>
<text text-anchor="start" x="402.5" y="-68.8" font-family="arial" font-size="14.00" fill="#984ea3">true</text>
<text text-anchor="start" x="402.5" y="-54.8" font-family="arial" font-size="14.00" fill="#ff7f00">true</text>
</g>
<!-- stinit&#45;&gt;st -->
<g id="edge4" class="edge">
<title>stinit&#45;&gt;st</title>
<path fill="none" stroke="#000000" d="M313.0426,-151.8271C332.479,-136.6094 358.86,-115.9546 379.9174,-99.4678"/>
<polygon fill="#000000" stroke="#000000" points="382.2769,-102.0656 387.993,-93.145 377.9615,-96.554 382.2769,-102.0656"/>
<text text-anchor="start" x="345" y="-128.8" font-family="arial" font-size="14.00" fill="#377eb8">true</text>
</g>
<!-- _st0 -->
<!-- st0 -->
<g id="node4" class="node">
<title>st0</title>
<polygon fill="none" stroke="#000000" points="169,-50 91,-50 91,0 169,0 169,-50"/>
<text text-anchor="start" x="119" y="-35.8" font-family="arial" font-weight="bold" font-size="14.00" fill="#000000">st0</text>
<text text-anchor="start" x="99" y="-21.8" font-family="arial" font-size="14.00" fill="#984ea3">(!Q &amp;&amp; R)</text>
<text text-anchor="start" x="117.5" y="-7.8" font-family="arial" font-size="14.00" fill="#ff7f00">true</text>
</g>
<!-- _st0&#45;&gt;st0 -->
<g id="edge2" class="edge">
<title>_st0&#45;&gt;st0</title>
<path fill="none" stroke="#000000" d="M54.062,-25C62.2035,-25 71.4058,-25 80.5234,-25"/>
<polygon fill="#000000" stroke="#000000" points="80.7204,-28.5001 90.7203,-25 80.7203,-21.5001 80.7204,-28.5001"/>
</g>
<!-- st0&#45;&gt;st0 -->
<g id="edge8" class="edge">
<title>st0&#45;&gt;st0</title>
<path fill="none" stroke="#000000" d="M119.541,-50.1756C119.0762,-59.9095 122.5625,-68 130,-68 134.5322,-68 137.5972,-64.9957 139.195,-60.446"/>
<polygon fill="#000000" stroke="#000000" points="142.7112,-60.5283 140.459,-50.1756 135.7636,-59.6732 142.7112,-60.5283"/>
<text text-anchor="start" x="117.5" y="-71.8" font-family="arial" font-size="14.00" fill="#377eb8">true</text>
</g>
<!-- st01W -->
<g id="node6" class="node">
<title>st01W</title>
<polygon fill="none" stroke="#000000" points="327,-97 245,-97 245,-47 327,-47 327,-97"/>
<text text-anchor="start" x="264.5" y="-82.8" font-family="arial" font-weight="bold" font-size="14.00" fill="#000000">st01W</text>
<text text-anchor="start" x="253" y="-68.8" font-family="arial" font-size="14.00" fill="#984ea3">(!Q &amp;&amp; !R)</text>
<text text-anchor="start" x="257.5" y="-54.8" font-family="arial" font-size="14.00" fill="#ff7f00">c0 &lt;= 50</text>
</g>
<!-- st0&#45;&gt;st01W -->
<g id="edge9" class="edge">
<title>st0&#45;&gt;st01W</title>
<path fill="none" stroke="#000000" d="M169.1073,-44.1879C175.0203,-46.6929 181.1121,-49.0587 187,-51 202.1937,-56.0095 219.1036,-60.1121 234.5868,-63.3193"/>
<polygon fill="#000000" stroke="#000000" points="234.0319,-66.7774 244.523,-65.298 235.3992,-59.9122 234.0319,-66.7774"/>
<text text-anchor="start" x="194.5" y="-79.8" font-family="arial" font-size="14.00" fill="#377eb8">true</text>
<text text-anchor="start" x="187" y="-64.8" font-family="arial" font-size="14.00" fill="#000000">c0 :=0</text>
</g>
<!-- st0&#45;&gt;st -->
<g id="edge7" class="edge">
<title>st0&#45;&gt;st</title>
<path fill="none" stroke="#000000" d="M169.2906,-18.441C209.6282,-13.1251 273.8412,-8.629 327,-23 345.3444,-27.9593 363.972,-37.5379 379.3367,-46.9204"/>
<polygon fill="#000000" stroke="#000000" points="377.6568,-49.9992 387.9794,-52.3856 381.3981,-44.0828 377.6568,-49.9992"/>
<text text-anchor="start" x="278.5" y="-26.8" font-family="arial" font-size="14.00" fill="#377eb8">Q&#39;</text>
</g>
<!-- _st01W -->
<!-- _st01W&#45;&gt;st01W -->
<g id="edge3" class="edge">
<title>_st01W&#45;&gt;st01W</title>
<path fill="none" stroke="#000000" d="M163.0296,-117.2413C182.1227,-115.4884 206.3727,-111.9884 227,-105 230.1124,-103.9455 233.2498,-102.727 236.3695,-101.3928"/>
<polygon fill="#000000" stroke="#000000" points="238.0365,-104.4777 245.6326,-97.092 235.0886,-98.1287 238.0365,-104.4777"/>
</g>
<!-- st01W&#45;&gt;st0 -->
<g id="edge11" class="edge">
<title>st01W&#45;&gt;st0</title>
<path fill="none" stroke="#000000" d="M255.4963,-46.9156C246.7809,-41.0154 236.9379,-35.4475 227,-32 211.952,-26.7798 194.8225,-24.4564 179.189,-23.6036"/>
<polygon fill="#000000" stroke="#000000" points="179.2889,-20.105 169.1685,-23.2399 179.035,-27.1004 179.2889,-20.105"/>
<text text-anchor="start" x="194.5" y="-35.8" font-family="arial" font-size="14.00" fill="#377eb8">true</text>
</g>
<!-- st01W&#45;&gt;st01W -->
<g id="edge12" class="edge">
<title>st01W&#45;&gt;st01W</title>
<path fill="none" stroke="#000000" d="M272.9263,-97.1756C272.3452,-106.9095 276.7031,-115 286,-115 291.8105,-115 295.6918,-111.8397 297.6438,-107.093"/>
<polygon fill="#000000" stroke="#000000" points="301.1107,-107.5728 299.0737,-97.1756 294.1824,-106.5738 301.1107,-107.5728"/>
<text text-anchor="start" x="261.5" y="-118.8" font-family="arial" font-size="14.00" fill="#377eb8">c0 &lt; 50</text>
</g>
<!-- st01W&#45;&gt;st -->
<g id="edge10" class="edge">
<title>st01W&#45;&gt;st</title>
<path fill="none" stroke="#000000" d="M327.1711,-72C343.2271,-72 361.512,-72 377.2259,-72"/>
<polygon fill="#000000" stroke="#000000" points="377.6351,-75.5001 387.635,-72 377.635,-68.5001 377.6351,-75.5001"/>
<text text-anchor="start" x="350" y="-75.8" font-family="arial" font-size="14.00" fill="#377eb8">Q&#39;</text>
</g>
<!-- st&#45;&gt;st -->
<g id="edge6" class="edge">
<title>st&#45;&gt;st</title>
<path fill="none" stroke="#000000" d="M404.541,-97.1756C404.0762,-106.9095 407.5625,-115 415,-115 419.5322,-115 422.5972,-111.9957 424.195,-107.446"/>
<polygon fill="#000000" stroke="#000000" points="427.7112,-107.5283 425.459,-97.1756 420.7636,-106.6732 427.7112,-107.5283"/>
<text text-anchor="start" x="402.5" y="-118.8" font-family="arial" font-size="14.00" fill="#377eb8">true</text>
</g>
</g>
</svg>
