<?xml version="1.0" encoding="UTF-8" standalone="no"?>
<!DOCTYPE svg PUBLIC "-//W3C//DTD SVG 1.1//EN"
 "http://www.w3.org/Graphics/SVG/1.1/DTD/svg11.dtd">
<!-- Generated by graphviz version 2.40.1 (20161225.0304)
 -->
<!-- Title: G Pages: 1 -->
<svg width="965pt" height="500pt"
 viewBox="0.00 0.00 965.00 500.00" xmlns="http://www.w3.org/2000/svg" xmlns:xlink="http://www.w3.org/1999/xlink">
<g id="graph0" class="graph" transform="scale(1 1) rotate(0) translate(4 496)">
<title>G</title>
<polygon fill="#ffffff" stroke="transparent" points="-4,4 -4,-496 961,-496 961,4 -4,4"/>
<!-- _st0 -->
<!-- st0 -->
<g id="node2" class="node">
<title>st0</title>
<polygon fill="none" stroke="#000000" points="157,-370 91,-370 91,-320 157,-320 157,-370"/>
<text text-anchor="start" x="113" y="-355.8" font-family="arial" font-weight="bold" font-size="14.00" fill="#000000">st0</text>
<text text-anchor="start" x="99" y="-341.8" font-family="arial" font-size="14.00" fill="#984ea3">(R || !Q)</text>
<text text-anchor="start" x="111.5" y="-327.8" font-family="arial" font-size="14.00" fill="#ff7f00">true</text>
</g>
<!-- _st0&#45;&gt;st0 -->
<g id="edge1" class="edge">
<title>_st0&#45;&gt;st0</title>
<path fill="none" stroke="#000000" d="M54.0199,-345C62.3287,-345 71.6915,-345 80.8018,-345"/>
<polygon fill="#000000" stroke="#000000" points="80.9106,-348.5001 90.9106,-345 80.9105,-341.5001 80.9106,-348.5001"/>
</g>
<!-- st0&#45;&gt;st0 -->
<g id="edge4" class="edge">
<title>st0&#45;&gt;st0</title>
<path fill="none" stroke="#000000" d="M114.6616,-370.1756C114.2466,-379.9095 117.3594,-388 124,-388 128.0466,-388 130.7832,-384.9957 132.2098,-380.446"/>
<polygon fill="#000000" stroke="#000000" points="135.7251,-380.4981 133.3384,-370.1756 128.767,-379.7335 135.7251,-380.4981"/>
<text text-anchor="start" x="111.5" y="-391.8" font-family="arial" font-size="14.00" fill="#377eb8">true</text>
</g>
<!-- st012 -->
<g id="node4" class="node">
<title>st012</title>
<polygon fill="none" stroke="#000000" points="342,-256 218,-256 218,-206 342,-206 342,-256"/>
<text text-anchor="start" x="261" y="-241.8" font-family="arial" font-weight="bold" font-size="14.00" fill="#000000">st012</text>
<text text-anchor="start" x="226" y="-227.8" font-family="arial" font-size="14.00" fill="#984ea3">(Q &amp;&amp; (!R &amp;&amp; S))</text>
<text text-anchor="start" x="267.5" y="-213.8" font-family="arial" font-size="14.00" fill="#ff7f00">true</text>
</g>
<!-- st0&#45;&gt;st012 -->
<g id="edge5" class="edge">
<title>st0&#45;&gt;st012</title>
<path fill="none" stroke="#000000" d="M143.7662,-319.8796C152.635,-309.564 163.6476,-297.9641 175,-289 187.9937,-278.7399 203.0432,-269.2588 217.6186,-261.0623"/>
<polygon fill="#000000" stroke="#000000" points="219.5262,-264.0079 226.61,-256.1294 216.1592,-257.8709 219.5262,-264.0079"/>
<text text-anchor="start" x="175" y="-292.8" font-family="arial" font-size="14.00" fill="#377eb8">true</text>
</g>
<!-- st0123W -->
<g id="node6" class="node">
<title>st0123W</title>
<polygon fill="none" stroke="#000000" points="957,-232 829,-232 829,-182 957,-182 957,-232"/>
<text text-anchor="start" x="863" y="-217.8" font-family="arial" font-weight="bold" font-size="14.00" fill="#000000">st0123W</text>
<text text-anchor="start" x="837" y="-203.8" font-family="arial" font-size="14.00" fill="#984ea3">(Q &amp;&amp; (!R &amp;&amp; !S))</text>
<text text-anchor="start" x="868.5" y="-189.8" font-family="arial" font-size="14.00" fill="#ff7f00">c0 &lt;= 5</text>
</g>
<!-- st0&#45;&gt;st0123W -->
<g id="edge6" class="edge">
<title>st0&#45;&gt;st0123W</title>
<path fill="none" stroke="#000000" d="M134.6172,-370.185C143.1871,-387.7572 156.8111,-410.5594 175,-425 213.7514,-455.7657 230.5207,-462 280,-462 280,-462 280,-462 689,-462 745.661,-462 769.6478,-463.7358 811,-425 863.3754,-375.9384 882.5413,-290.1265 889.3712,-242.1004"/>
<polygon fill="#000000" stroke="#000000" points="892.8434,-242.5407 890.6836,-232.1684 885.9037,-241.6236 892.8434,-242.5407"/>
<text text-anchor="start" x="471" y="-480.8" font-family="arial" font-size="14.00" fill="#377eb8">true</text>
<text text-anchor="start" x="463.5" y="-465.8" font-family="arial" font-size="14.00" fill="#000000">c0 :=0</text>
</g>
<!-- _st012 -->
<!-- _st012&#45;&gt;st012 -->
<g id="edge2" class="edge">
<title>_st012&#45;&gt;st012</title>
<path fill="none" stroke="#000000" d="M154.8206,-231C170.1,-231 189.2483,-231 207.9391,-231"/>
<polygon fill="#000000" stroke="#000000" points="207.9473,-234.5001 217.9472,-231 207.9472,-227.5001 207.9473,-234.5001"/>
</g>
<!-- st012&#45;&gt;st0 -->
<g id="edge12" class="edge">
<title>st012&#45;&gt;st0</title>
<path fill="none" stroke="#000000" d="M255.773,-256.0209C240.5642,-270.9634 220.0865,-289.7448 200,-304 189.4847,-311.4626 177.4565,-318.5387 166.119,-324.6456"/>
<polygon fill="#000000" stroke="#000000" points="164.4403,-321.5739 157.2166,-329.3244 167.6969,-327.7703 164.4403,-321.5739"/>
<text text-anchor="start" x="180.5" y="-322.8" font-family="arial" font-size="14.00" fill="#377eb8">R&#39;</text>
</g>
<!-- st012&#45;&gt;st012 -->
<g id="edge15" class="edge">
<title>st012&#45;&gt;st012</title>
<path fill="none" stroke="#000000" d="M262.8174,-256.1756C262.0537,-265.9095 267.7813,-274 280,-274 287.6367,-274 292.7378,-270.8397 295.3033,-266.093"/>
<polygon fill="#000000" stroke="#000000" points="298.7595,-266.6525 297.1826,-256.1756 291.8819,-265.3491 298.7595,-266.6525"/>
<text text-anchor="start" x="267.5" y="-277.8" font-family="arial" font-size="14.00" fill="#377eb8">true</text>
</g>
<!-- st012&#45;&gt;st0123W -->
<g id="edge16" class="edge">
<title>st012&#45;&gt;st0123W</title>
<path fill="none" stroke="#000000" d="M337.742,-205.8641C339.2686,-204.3322 340.6959,-202.7123 342,-201 368.8316,-165.77 328.6849,-134.3121 360,-103 426.144,-36.8623 473.8478,-73.4794 567,-65 675.8661,-55.0903 717.3892,-39.5461 811,-96 840.7846,-113.9622 863.1582,-147.2476 876.9479,-172.701"/>
<polygon fill="#000000" stroke="#000000" points="873.9062,-174.4375 881.6378,-181.6813 880.111,-171.197 873.9062,-174.4375"/>
<text text-anchor="start" x="574.5" y="-83.8" font-family="arial" font-size="14.00" fill="#377eb8">true</text>
<text text-anchor="start" x="567" y="-68.8" font-family="arial" font-size="14.00" fill="#000000">c0 :=0</text>
</g>
<!-- st02 -->
<g id="node7" class="node">
<title>st02</title>
<polygon fill="none" stroke="#000000" points="753,-318 625,-318 625,-268 753,-268 753,-318"/>
<text text-anchor="start" x="674" y="-303.8" font-family="arial" font-weight="bold" font-size="14.00" fill="#000000">st02</text>
<text text-anchor="start" x="633" y="-289.8" font-family="arial" font-size="14.00" fill="#984ea3">(!Q &amp;&amp; (!R &amp;&amp; S))</text>
<text text-anchor="start" x="676.5" y="-275.8" font-family="arial" font-size="14.00" fill="#ff7f00">true</text>
</g>
<!-- st012&#45;&gt;st02 -->
<g id="edge13" class="edge">
<title>st012&#45;&gt;st02</title>
<path fill="none" stroke="#000000" d="M342.4008,-244.5239C348.3426,-245.7322 354.2815,-246.9095 360,-248 451.6541,-265.4788 474.418,-271.4003 567,-283 582.395,-284.9288 598.9315,-286.5708 614.7064,-287.9327"/>
<polygon fill="#000000" stroke="#000000" points="614.6865,-291.4432 624.9431,-288.7874 615.269,-284.4674 614.6865,-291.4432"/>
<text text-anchor="start" x="471" y="-283.8" font-family="arial" font-size="14.00" fill="#377eb8">true</text>
</g>
<!-- st023W -->
<g id="node8" class="node">
<title>st023W</title>
<polygon fill="none" stroke="#000000" points="549,-202 418,-202 418,-152 549,-152 549,-202"/>
<text text-anchor="start" x="457.5" y="-187.8" font-family="arial" font-weight="bold" font-size="14.00" fill="#000000">st023W</text>
<text text-anchor="start" x="426" y="-173.8" font-family="arial" font-size="14.00" fill="#984ea3">(!Q &amp;&amp; (!R &amp;&amp; !S))</text>
<text text-anchor="start" x="459" y="-159.8" font-family="arial" font-size="14.00" fill="#ff7f00">c0 &lt;= 5</text>
</g>
<!-- st012&#45;&gt;st023W -->
<g id="edge14" class="edge">
<title>st012&#45;&gt;st023W</title>
<path fill="none" stroke="#000000" d="M342.2407,-218.1308C360.9015,-213.9676 381.3594,-209.0993 400,-204 402.597,-203.2896 405.2333,-202.5486 407.8912,-201.7846"/>
<polygon fill="#000000" stroke="#000000" points="408.9739,-205.1144 417.5774,-198.9314 406.996,-198.3997 408.9739,-205.1144"/>
<text text-anchor="start" x="367.5" y="-232.8" font-family="arial" font-size="14.00" fill="#377eb8">true</text>
<text text-anchor="start" x="360" y="-217.8" font-family="arial" font-size="14.00" fill="#000000">c0 :=0</text>
</g>
<!-- _st0123W -->
<!-- _st0123W&#45;&gt;st0123W -->
<g id="edge3" class="edge">
<title>_st0123W&#45;&gt;st0123W</title>
<path fill="none" stroke="#000000" d="M730.6561,-20.4909C756.1872,-23.9186 788.227,-31.8467 811,-50 850.0655,-81.1407 872.5724,-135.987 883.8042,-171.9091"/>
<polygon fill="#000000" stroke="#000000" points="880.5889,-173.3738 886.8058,-181.9528 887.2958,-171.3693 880.5889,-173.3738"/>
</g>
<!-- st0123W&#45;&gt;st0 -->
<g id="edge22" class="edge">
<title>st0123W&#45;&gt;st0</title>
<path fill="none" stroke="#000000" d="M882.366,-232.0144C857.3376,-286.4883 789.1735,-411 689,-411 280,-411 280,-411 280,-411 238.9151,-411 196.2119,-391.3432 165.893,-373.4845"/>
<polygon fill="#000000" stroke="#000000" points="167.6558,-370.4603 157.29,-368.2691 164.0269,-376.4462 167.6558,-370.4603"/>
<text text-anchor="start" x="476.5" y="-414.8" font-family="arial" font-size="14.00" fill="#377eb8">R&#39;</text>
</g>
<!-- st0123W&#45;&gt;st012 -->
<g id="edge25" class="edge">
<title>st0123W&#45;&gt;st012</title>
<path fill="none" stroke="#000000" d="M843.0766,-181.9091C832.6702,-177.4122 821.6294,-173.1593 811,-170 643.1775,-120.1195 587.832,-100.4613 418,-143 389.6471,-150.1017 381.647,-154.3601 360,-174 351.2381,-181.9495 352.0559,-188.6502 343.1712,-198.7683"/>
<polygon fill="#000000" stroke="#000000" points="340.4907,-196.4915 335.7335,-205.9583 345.3559,-201.5244 340.4907,-196.4915"/>
<text text-anchor="start" x="574.5" y="-124.8" font-family="arial" font-size="14.00" fill="#377eb8">true</text>
</g>
<!-- st0123W&#45;&gt;st0123W -->
<g id="edge26" class="edge">
<title>st0123W&#45;&gt;st0123W</title>
<path fill="none" stroke="#000000" d="M873.9497,-232.1756C873.103,-241.9095 879.4531,-250 893,-250 901.4668,-250 907.1224,-246.8397 909.9667,-242.093"/>
<polygon fill="#000000" stroke="#000000" points="913.4193,-242.6816 912.0503,-232.1756 906.5689,-241.2423 913.4193,-242.6816"/>
<text text-anchor="start" x="873" y="-253.8" font-family="arial" font-size="14.00" fill="#377eb8">c0 &lt; 5</text>
</g>
<!-- st0123W&#45;&gt;st02 -->
<g id="edge23" class="edge">
<title>st0123W&#45;&gt;st02</title>
<path fill="none" stroke="#000000" d="M867.468,-232.242C852.2807,-245.812 831.9362,-261.6362 811,-271 796.1131,-277.6583 779.3505,-282.3024 763.1268,-285.5414"/>
<polygon fill="#000000" stroke="#000000" points="762.3187,-282.1312 753.1165,-287.382 763.5846,-289.0158 762.3187,-282.1312"/>
<text text-anchor="start" x="778.5" y="-286.8" font-family="arial" font-size="14.00" fill="#377eb8">true</text>
</g>
<!-- st0123W&#45;&gt;st023W -->
<g id="edge24" class="edge">
<title>st0123W&#45;&gt;st023W</title>
<path fill="none" stroke="#000000" d="M828.7201,-202.2909C755.7821,-196.9474 636.9278,-188.2401 559.4683,-182.5654"/>
<polygon fill="#000000" stroke="#000000" points="559.5223,-179.0601 549.2933,-181.82 559.0108,-186.0414 559.5223,-179.0601"/>
<text text-anchor="start" x="669" y="-200.8" font-family="arial" font-size="14.00" fill="#377eb8">c0 &lt; 5</text>
</g>
<!-- st02&#45;&gt;st0 -->
<g id="edge7" class="edge">
<title>st02&#45;&gt;st0</title>
<path fill="none" stroke="#000000" d="M624.8645,-317.5889C618.866,-319.5474 612.8454,-321.388 607,-323 581.7068,-329.975 575.0882,-331.207 549,-334 410.2154,-348.8582 244.5605,-347.7674 167.4634,-346.1828"/>
<polygon fill="#000000" stroke="#000000" points="167.2588,-342.6776 157.1844,-345.9576 167.1053,-349.6759 167.2588,-342.6776"/>
<text text-anchor="start" x="373" y="-348.8" font-family="arial" font-size="14.00" fill="#377eb8">R&#39;</text>
</g>
<!-- st02&#45;&gt;st012 -->
<g id="edge10" class="edge">
<title>st02&#45;&gt;st012</title>
<path fill="none" stroke="#000000" d="M624.6934,-305.8989C618.7308,-306.7513 612.7653,-307.477 607,-308 497.1981,-317.9602 463.4848,-323.0335 360,-285 345.3039,-279.5988 330.6783,-270.9466 318.0294,-262.1361"/>
<polygon fill="#000000" stroke="#000000" points="319.7661,-259.0727 309.6118,-256.0493 315.6643,-264.7451 319.7661,-259.0727"/>
<text text-anchor="start" x="471" y="-318.8" font-family="arial" font-size="14.00" fill="#377eb8">true</text>
</g>
<!-- st02&#45;&gt;st0123W -->
<g id="edge11" class="edge">
<title>st02&#45;&gt;st0123W</title>
<path fill="none" stroke="#000000" d="M723.6501,-267.8417C737.8083,-258.4245 754.6732,-248.2612 771,-241 786.0568,-234.3036 802.7538,-228.6141 818.8401,-223.9157"/>
<polygon fill="#000000" stroke="#000000" points="820.083,-227.2018 828.7571,-221.1183 818.1825,-220.4647 820.083,-227.2018"/>
<text text-anchor="start" x="778.5" y="-259.8" font-family="arial" font-size="14.00" fill="#377eb8">true</text>
<text text-anchor="start" x="771" y="-244.8" font-family="arial" font-size="14.00" fill="#000000">c0 :=0</text>
</g>
<!-- st02&#45;&gt;st02 -->
<g id="edge8" class="edge">
<title>st02&#45;&gt;st02</title>
<path fill="none" stroke="#000000" d="M669.9497,-318.1756C669.103,-327.9095 675.4531,-336 689,-336 697.4668,-336 703.1224,-332.8397 705.9667,-328.093"/>
<polygon fill="#000000" stroke="#000000" points="709.4193,-328.6816 708.0503,-318.1756 702.5689,-327.2423 709.4193,-328.6816"/>
<text text-anchor="start" x="676.5" y="-339.8" font-family="arial" font-size="14.00" fill="#377eb8">true</text>
</g>
<!-- st02&#45;&gt;st023W -->
<g id="edge9" class="edge">
<title>st02&#45;&gt;st023W</title>
<path fill="none" stroke="#000000" d="M638.0052,-267.94C615.932,-256.767 589.9478,-243.1732 567,-230 554.8975,-223.0526 542.0636,-215.1745 530.1824,-207.657"/>
<polygon fill="#000000" stroke="#000000" points="532.0374,-204.6889 521.7235,-202.2653 528.2748,-210.5917 532.0374,-204.6889"/>
<text text-anchor="start" x="574.5" y="-269.8" font-family="arial" font-size="14.00" fill="#377eb8">true</text>
<text text-anchor="start" x="567" y="-254.8" font-family="arial" font-size="14.00" fill="#000000">c0 :=0</text>
</g>
<!-- st023W&#45;&gt;st0 -->
<g id="edge17" class="edge">
<title>st023W&#45;&gt;st0</title>
<path fill="none" stroke="#000000" d="M417.7537,-160.7127C360.6216,-150.4155 277.864,-145.1332 218,-182 193.7565,-196.9302 158.9452,-267.1038 139.1985,-310.3653"/>
<polygon fill="#000000" stroke="#000000" points="135.9162,-309.1295 134.9877,-319.6835 142.2952,-312.012 135.9162,-309.1295"/>
<text text-anchor="start" x="273" y="-185.8" font-family="arial" font-size="14.00" fill="#377eb8">R&#39;</text>
</g>
<!-- st023W&#45;&gt;st012 -->
<g id="edge20" class="edge">
<title>st023W&#45;&gt;st012</title>
<path fill="none" stroke="#000000" d="M417.7722,-175.7144C398.8105,-176.821 378.3061,-179.4722 360,-185 347.777,-188.691 335.4111,-194.5419 324.176,-200.8502"/>
<polygon fill="#000000" stroke="#000000" points="322.2899,-197.8988 315.4324,-205.975 325.8295,-203.9379 322.2899,-197.8988"/>
<text text-anchor="start" x="367.5" y="-188.8" font-family="arial" font-size="14.00" fill="#377eb8">true</text>
</g>
<!-- st023W&#45;&gt;st0123W -->
<g id="edge21" class="edge">
<title>st023W&#45;&gt;st0123W</title>
<path fill="none" stroke="#000000" d="M549.1044,-170.9788C555.1505,-170.5814 561.1861,-170.2433 567,-170 649.5944,-166.544 671.0222,-159.35 753,-170 774.7373,-172.824 797.9079,-178.0164 819.0138,-183.6363"/>
<polygon fill="#000000" stroke="#000000" points="818.3033,-187.0704 828.8723,-186.3309 820.1489,-180.3181 818.3033,-187.0704"/>
<text text-anchor="start" x="669" y="-173.8" font-family="arial" font-size="14.00" fill="#377eb8">c0 &lt; 5</text>
</g>
<!-- st023W&#45;&gt;st02 -->
<g id="edge18" class="edge">
<title>st023W&#45;&gt;st02</title>
<path fill="none" stroke="#000000" d="M549.161,-188.3967C568.6204,-193.5036 589.4127,-200.7655 607,-211 613.1485,-214.578 637.5021,-239.1994 658.0848,-260.5377"/>
<polygon fill="#000000" stroke="#000000" points="655.718,-263.126 665.1719,-267.9086 660.7639,-258.2743 655.718,-263.126"/>
<text text-anchor="start" x="574.5" y="-214.8" font-family="arial" font-size="14.00" fill="#377eb8">true</text>
</g>
<!-- st023W&#45;&gt;st023W -->
<g id="edge19" class="edge">
<title>st023W&#45;&gt;st023W</title>
<path fill="none" stroke="#000000" d="M464.4497,-202.1756C463.603,-211.9095 469.9531,-220 483.5,-220 491.9668,-220 497.6224,-216.8397 500.4667,-212.093"/>
<polygon fill="#000000" stroke="#000000" points="503.9193,-212.6816 502.5503,-202.1756 497.0689,-211.2423 503.9193,-212.6816"/>
<text text-anchor="start" x="463.5" y="-223.8" font-family="arial" font-size="14.00" fill="#377eb8">c0 &lt; 5</text>
</g>
</g>
</svg>
