<?xml version="1.0" encoding="UTF-8" standalone="no"?>
<!DOCTYPE svg PUBLIC "-//W3C//DTD SVG 1.1//EN"
 "http://www.w3.org/Graphics/SVG/1.1/DTD/svg11.dtd">
<!-- Generated by graphviz version 2.43.0 (0)
 -->
<!-- Title: G Pages: 1 -->
<svg width="1766pt" height="1035pt"
 viewBox="0.00 0.00 1766.00 1035.11" xmlns="http://www.w3.org/2000/svg" xmlns:xlink="http://www.w3.org/1999/xlink">
<g id="graph0" class="graph" transform="scale(1 1) rotate(0) translate(4 1031.11)">
<title>G</title>
<polygon fill="white" stroke="transparent" points="-4,4 -4,-1031.11 1762,-1031.11 1762,4 -4,4"/>
<!-- _st0 -->
<!-- st0 -->
<g id="node2" class="node">
<title>st0</title>
<polygon fill="none" stroke="black" points="145,-657.11 91,-657.11 91,-607.11 145,-607.11 145,-657.11"/>
<text text-anchor="start" x="108" y="-642.91" font-family="arial" font-weight="bold" font-size="14.00">st0</text>
<text text-anchor="start" x="110" y="-628.91" font-family="arial" font-size="14.00" fill="#984ea3">!Q</text>
<text text-anchor="start" x="106" y="-614.91" font-family="arial" font-size="14.00" fill="#ff7f00">true</text>
</g>
<!-- _st0&#45;&gt;st0 -->
<g id="edge1" class="edge">
<title>_st0&#45;&gt;st0</title>
<path fill="none" stroke="black" d="M54.22,-632.11C62.55,-632.11 71.91,-632.11 80.82,-632.11"/>
<polygon fill="black" stroke="black" points="80.97,-635.61 90.97,-632.11 80.97,-628.61 80.97,-635.61"/>
</g>
<!-- st0&#45;&gt;st0 -->
<g id="edge5" class="edge">
<title>st0&#45;&gt;st0</title>
<path fill="none" stroke="black" d="M109.78,-657.28C109.42,-667.02 112.16,-675.11 118,-675.11 121.56,-675.11 123.97,-672.1 125.22,-667.55"/>
<polygon fill="black" stroke="black" points="128.74,-667.57 126.22,-657.28 121.77,-666.9 128.74,-667.57"/>
<text text-anchor="start" x="106" y="-678.91" font-family="arial" font-size="14.00" fill="#377eb8">true</text>
</g>
<!-- st01 -->
<g id="node4" class="node">
<title>st01</title>
<polygon fill="none" stroke="black" points="277,-400.11 205,-400.11 205,-350.11 277,-350.11 277,-400.11"/>
<text text-anchor="start" x="227" y="-385.91" font-family="arial" font-weight="bold" font-size="14.00">st01</text>
<text text-anchor="start" x="213" y="-371.91" font-family="arial" font-size="14.00" fill="#984ea3">(Q &amp;&amp; R)</text>
<text text-anchor="start" x="229" y="-357.91" font-family="arial" font-size="14.00" fill="#ff7f00">true</text>
</g>
<!-- st0&#45;&gt;st01 -->
<g id="edge6" class="edge">
<title>st0&#45;&gt;st01</title>
<path fill="none" stroke="black" d="M119.03,-606.9C120.22,-566.74 127.32,-487.15 163,-432.11 167.73,-424.81 181.42,-413.98 195.98,-403.71"/>
<polygon fill="black" stroke="black" points="198.35,-406.32 204.59,-397.76 194.37,-400.56 198.35,-406.32"/>
<text text-anchor="start" x="163" y="-435.91" font-family="arial" font-size="14.00" fill="#377eb8">true</text>
</g>
<!-- st012 -->
<g id="node6" class="node">
<title>st012</title>
<polygon fill="none" stroke="black" points="1758,-623.11 1603,-623.11 1603,-573.11 1758,-573.11 1758,-623.11"/>
<text text-anchor="start" x="1663" y="-608.91" font-family="arial" font-weight="bold" font-size="14.00">st012</text>
<text text-anchor="start" x="1611" y="-594.91" font-family="arial" font-size="14.00" fill="#984ea3">(Q &amp;&amp; (!R &amp;&amp; (S || !T)))</text>
<text text-anchor="start" x="1668.5" y="-580.91" font-family="arial" font-size="14.00" fill="#ff7f00">true</text>
</g>
<!-- st0&#45;&gt;st012 -->
<g id="edge7" class="edge">
<title>st0&#45;&gt;st012</title>
<path fill="none" stroke="black" d="M118.69,-657.34C118.32,-730.02 121.03,-937.86 163,-988.11 185.98,-1015.62 204.15,-1012.11 240,-1012.11 240,-1012.11 240,-1012.11 1436,-1012.11 1503.08,-1012.11 1535.76,-1033.65 1585,-988.11 1637.29,-939.74 1666.34,-719.84 1675.91,-633.27"/>
<polygon fill="black" stroke="black" points="1679.41,-633.47 1677.01,-623.16 1672.45,-632.72 1679.41,-633.47"/>
<text text-anchor="start" x="795.5" y="-1015.91" font-family="arial" font-size="14.00" fill="#377eb8">true</text>
</g>
<!-- st01234W -->
<g id="node8" class="node">
<title>st01234W</title>
<polygon fill="none" stroke="black" points="1518,-585.11 1352,-585.11 1352,-535.11 1518,-535.11 1518,-585.11"/>
<text text-anchor="start" x="1403" y="-570.91" font-family="arial" font-weight="bold" font-size="14.00">st01234W</text>
<text text-anchor="start" x="1360" y="-556.91" font-family="arial" font-size="14.00" fill="#984ea3">(Q &amp;&amp; (!R &amp;&amp; (!S &amp;&amp; T)))</text>
<text text-anchor="start" x="1412" y="-542.91" font-family="arial" font-size="14.00" fill="#ff7f00">c0 &lt;= 5</text>
</g>
<!-- st0&#45;&gt;st01234W -->
<g id="edge8" class="edge">
<title>st0&#45;&gt;st01234W</title>
<path fill="none" stroke="black" d="M121.65,-607.09C129.17,-536.81 150.85,-338.49 163,-274.11 176.95,-200.17 182.75,-181.98 205,-110.11 218.43,-66.72 194.59,-14.11 240,-14.11 240,-14.11 240,-14.11 559,-14.11 765.68,-14.11 831.46,32.54 1023,-45.11 1191.83,-113.54 1237,-157.9 1334,-312.11 1349.28,-336.39 1342.19,-347.14 1352,-374.11 1371.66,-428.14 1399.51,-488.74 1417.16,-525.66"/>
<polygon fill="black" stroke="black" points="1414.15,-527.47 1421.64,-534.97 1420.46,-524.44 1414.15,-527.47"/>
<text text-anchor="start" x="668" y="-32.91" font-family="arial" font-size="14.00" fill="#377eb8">true</text>
<text text-anchor="start" x="661" y="-17.91" font-family="arial" font-size="14.00">c0 :=0</text>
</g>
<!-- _st01 -->
<!-- _st01&#45;&gt;st01 -->
<g id="edge2" class="edge">
<title>_st01&#45;&gt;st01</title>
<path fill="none" stroke="black" d="M145.26,-363.36C159.65,-365.14 177.89,-367.41 194.52,-369.47"/>
<polygon fill="black" stroke="black" points="194.26,-372.96 204.61,-370.72 195.12,-366.02 194.26,-372.96"/>
</g>
<!-- st01&#45;&gt;st0 -->
<g id="edge9" class="edge">
<title>st01&#45;&gt;st0</title>
<path fill="none" stroke="black" d="M204.85,-374.17C190.04,-375.65 173.78,-380.06 163,-391.11 134.98,-419.82 124.36,-537.11 120.71,-596.82"/>
<polygon fill="black" stroke="black" points="117.21,-596.74 120.13,-606.92 124.2,-597.14 117.21,-596.74"/>
<text text-anchor="start" x="168.5" y="-394.91" font-family="arial" font-size="14.00" fill="#377eb8">R&#39;</text>
</g>
<!-- st01&#45;&gt;st01 -->
<g id="edge12" class="edge">
<title>st01&#45;&gt;st01</title>
<path fill="none" stroke="black" d="M228.67,-400.28C228.13,-410.02 232.23,-418.11 241,-418.11 246.48,-418.11 250.14,-414.95 251.98,-410.2"/>
<polygon fill="black" stroke="black" points="255.45,-410.66 253.33,-400.28 248.51,-409.72 255.45,-410.66"/>
<text text-anchor="start" x="229" y="-421.91" font-family="arial" font-size="14.00" fill="#377eb8">true</text>
</g>
<!-- st01&#45;&gt;st012 -->
<g id="edge13" class="edge">
<title>st01&#45;&gt;st012</title>
<path fill="none" stroke="black" d="M244.24,-350.04C248.51,-316.27 260.71,-256.16 295,-219.11 313.39,-199.23 324.69,-201.52 351,-195.11 641.36,-124.28 725.18,-145.02 1023,-170.11 1277.6,-191.56 1423.86,-92.83 1585,-291.11 1651.49,-372.93 1671.32,-501.34 1677.13,-562.9"/>
<polygon fill="black" stroke="black" points="1673.65,-563.23 1678.01,-572.89 1680.62,-562.62 1673.65,-563.23"/>
<text text-anchor="start" x="924.5" y="-173.91" font-family="arial" font-size="14.00" fill="#377eb8">true</text>
</g>
<!-- st01&#45;&gt;st01234W -->
<g id="edge14" class="edge">
<title>st01&#45;&gt;st01234W</title>
<path fill="none" stroke="black" d="M244,-400.31C248.31,-444.67 260.99,-538.75 295,-610.11 366.15,-759.36 434.13,-791.93 595,-830.11 702.39,-855.59 984.15,-902.39 1090,-871.11 1120.97,-861.95 1311.11,-735.9 1334,-713.11 1369.61,-677.65 1399.43,-627.51 1417,-594.42"/>
<polygon fill="black" stroke="black" points="1420.31,-595.64 1421.84,-585.15 1414.11,-592.4 1420.31,-595.64"/>
<text text-anchor="start" x="795.5" y="-888.91" font-family="arial" font-size="14.00" fill="#377eb8">true</text>
<text text-anchor="start" x="788.5" y="-873.91" font-family="arial" font-size="14.00">c0 :=0</text>
</g>
<!-- st02 -->
<g id="node9" class="node">
<title>st02</title>
<polygon fill="none" stroke="black" points="1267,-311.11 1108,-311.11 1108,-261.11 1267,-261.11 1267,-311.11"/>
<text text-anchor="start" x="1173.5" y="-296.91" font-family="arial" font-weight="bold" font-size="14.00">st02</text>
<text text-anchor="start" x="1116" y="-282.91" font-family="arial" font-size="14.00" fill="#984ea3">(!Q &amp;&amp; (!R &amp;&amp; (S || !T)))</text>
<text text-anchor="start" x="1175.5" y="-268.91" font-family="arial" font-size="14.00" fill="#ff7f00">true</text>
</g>
<!-- st01&#45;&gt;st02 -->
<g id="edge10" class="edge">
<title>st01&#45;&gt;st02</title>
<path fill="none" stroke="black" d="M247.6,-349.84C254.39,-325.82 268.39,-290.93 295,-274.11 426.25,-191.13 899.37,-245.59 1097.86,-273.02"/>
<polygon fill="black" stroke="black" points="1097.58,-276.52 1107.97,-274.43 1098.54,-269.58 1097.58,-276.52"/>
<text text-anchor="start" x="668" y="-241.91" font-family="arial" font-size="14.00" fill="#377eb8">true</text>
</g>
<!-- st0234W -->
<g id="node10" class="node">
<title>st0234W</title>
<polygon fill="none" stroke="black" points="521,-587.11 351,-587.11 351,-537.11 521,-537.11 521,-587.11"/>
<text text-anchor="start" x="408" y="-572.91" font-family="arial" font-weight="bold" font-size="14.00">st0234W</text>
<text text-anchor="start" x="359" y="-558.91" font-family="arial" font-size="14.00" fill="#984ea3">(!Q &amp;&amp; (!R &amp;&amp; (!S &amp;&amp; T)))</text>
<text text-anchor="start" x="413" y="-544.91" font-family="arial" font-size="14.00" fill="#ff7f00">c0 &lt;= 5</text>
</g>
<!-- st01&#45;&gt;st0234W -->
<g id="edge11" class="edge">
<title>st01&#45;&gt;st0234W</title>
<path fill="none" stroke="black" d="M250.12,-400.47C258.47,-423.41 273.33,-457.04 295,-480.11 301.82,-487.37 343.88,-511.66 380.13,-531.93"/>
<polygon fill="black" stroke="black" points="378.76,-535.17 389.2,-536.98 382.17,-529.06 378.76,-535.17"/>
<text text-anchor="start" x="302" y="-521.91" font-family="arial" font-size="14.00" fill="#377eb8">true</text>
<text text-anchor="start" x="295" y="-506.91" font-family="arial" font-size="14.00">c0 :=0</text>
</g>
<!-- _st012 -->
<!-- _st012&#45;&gt;st012 -->
<g id="edge3" class="edge">
<title>_st012&#45;&gt;st012</title>
<path fill="none" stroke="black" d="M1463.7,-896.74C1496.57,-897.14 1551.18,-892.76 1585,-863.11 1653.28,-803.23 1672.23,-690.54 1677.48,-633.34"/>
<polygon fill="black" stroke="black" points="1680.97,-633.59 1678.31,-623.33 1674,-633.01 1680.97,-633.59"/>
</g>
<!-- st012&#45;&gt;st0 -->
<g id="edge21" class="edge">
<title>st012&#45;&gt;st0</title>
<path fill="none" stroke="black" d="M1677.41,-623.18C1671.72,-677.41 1651.56,-807.33 1585,-889.11 1536.87,-948.24 1512.24,-974.11 1436,-974.11 240,-974.11 240,-974.11 240,-974.11 183.55,-974.11 183.43,-925.73 163,-873.11 135.89,-803.25 125.25,-715.41 121.26,-667.41"/>
<polygon fill="black" stroke="black" points="124.73,-666.93 120.46,-657.23 117.75,-667.48 124.73,-666.93"/>
<text text-anchor="start" x="801" y="-977.91" font-family="arial" font-size="14.00" fill="#377eb8">R&#39;</text>
</g>
<!-- st012&#45;&gt;st01 -->
<g id="edge24" class="edge">
<title>st012&#45;&gt;st01</title>
<path fill="none" stroke="black" d="M1679.67,-572.85C1678.96,-467.33 1661.4,-67.11 1436,-67.11 1064.5,-67.11 1064.5,-67.11 1064.5,-67.11 744.88,-67.11 647.18,-36.96 351,-157.11 323.13,-168.41 312.73,-170.81 295,-195.11 263.23,-238.64 250.39,-301.08 245.28,-339.81"/>
<polygon fill="black" stroke="black" points="241.76,-339.72 244.03,-350.07 248.71,-340.57 241.76,-339.72"/>
<text text-anchor="start" x="924.5" y="-70.91" font-family="arial" font-size="14.00" fill="#377eb8">true</text>
</g>
<!-- st012&#45;&gt;st012 -->
<g id="edge25" class="edge">
<title>st012&#45;&gt;st012</title>
<path fill="none" stroke="black" d="M1658.09,-623.28C1657.09,-633.02 1664.56,-641.11 1680.5,-641.11 1690.46,-641.11 1697.11,-637.95 1700.46,-633.2"/>
<polygon fill="black" stroke="black" points="1703.91,-633.83 1702.91,-623.28 1697.11,-632.15 1703.91,-633.83"/>
<text text-anchor="start" x="1668.5" y="-644.91" font-family="arial" font-size="14.00" fill="#377eb8">true</text>
</g>
<!-- st012&#45;&gt;st01234W -->
<g id="edge26" class="edge">
<title>st012&#45;&gt;st01234W</title>
<path fill="none" stroke="black" d="M1602.78,-586.44C1581.18,-583.13 1557.66,-579.5 1536,-576.11 1533.45,-575.71 1530.87,-575.3 1528.27,-574.89"/>
<polygon fill="black" stroke="black" points="1528.55,-571.39 1518.12,-573.29 1527.46,-578.31 1528.55,-571.39"/>
<text text-anchor="start" x="1548.5" y="-601.91" font-family="arial" font-size="14.00" fill="#377eb8">true</text>
<text text-anchor="start" x="1541.5" y="-586.91" font-family="arial" font-size="14.00">c0 :=0</text>
</g>
<!-- st012&#45;&gt;st02 -->
<g id="edge22" class="edge">
<title>st012&#45;&gt;st02</title>
<path fill="none" stroke="black" d="M1676.47,-573.09C1667.1,-508.73 1631.97,-338.74 1518,-285.11 1442.52,-249.58 1346.11,-254.86 1277.11,-265.97"/>
<polygon fill="black" stroke="black" points="1276.42,-262.54 1267.14,-267.65 1277.58,-269.44 1276.42,-262.54"/>
<text text-anchor="start" x="1423" y="-288.91" font-family="arial" font-size="14.00" fill="#377eb8">true</text>
</g>
<!-- st012&#45;&gt;st0234W -->
<g id="edge23" class="edge">
<title>st012&#45;&gt;st0234W</title>
<path fill="none" stroke="black" d="M1677.52,-623.28C1672.19,-671.83 1652.97,-777.79 1585,-825.11 1511.86,-876.02 871.79,-823.77 783,-816.11 673.97,-806.69 627.01,-848.14 539,-783.11 477.92,-737.97 452.33,-647.29 442.5,-597.26"/>
<polygon fill="black" stroke="black" points="445.91,-596.42 440.64,-587.23 439.03,-597.7 445.91,-596.42"/>
<text text-anchor="start" x="1053.5" y="-855.91" font-family="arial" font-size="14.00" fill="#377eb8">true</text>
<text text-anchor="start" x="1046.5" y="-840.91" font-family="arial" font-size="14.00">c0 :=0</text>
</g>
<!-- _st01234W -->
<!-- _st01234W&#45;&gt;st01234W -->
<g id="edge4" class="edge">
<title>_st01234W&#45;&gt;st01234W</title>
<path fill="none" stroke="black" d="M1230.7,-579.15C1261.22,-576.29 1303.63,-572.32 1341.82,-568.74"/>
<polygon fill="black" stroke="black" points="1342.32,-572.21 1351.95,-567.79 1341.67,-565.24 1342.32,-572.21"/>
</g>
<!-- st01234W&#45;&gt;st0 -->
<g id="edge51" class="edge">
<title>st01234W&#45;&gt;st0</title>
<path fill="none" stroke="black" d="M1426.46,-585.12C1408.66,-639.4 1358.51,-767.79 1267,-826.11 998.74,-997.06 877.11,-931.11 559,-931.11 240,-931.11 240,-931.11 240,-931.11 182.13,-931.11 187.01,-878.76 163,-826.11 139.12,-773.75 127.69,-707.37 122.61,-667.4"/>
<polygon fill="black" stroke="black" points="126.07,-666.85 121.4,-657.34 119.12,-667.69 126.07,-666.85"/>
<text text-anchor="start" x="673.5" y="-941.91" font-family="arial" font-size="14.00" fill="#377eb8">R&#39;</text>
</g>
<!-- st01234W&#45;&gt;st01 -->
<g id="edge55" class="edge">
<title>st01234W&#45;&gt;st01</title>
<path fill="none" stroke="black" d="M1411.26,-535.04C1391.91,-514.54 1362.75,-485.53 1334,-464.11 1306.55,-443.65 1298.86,-438.63 1267,-426.11 1163.27,-385.32 1133.71,-381.08 1023,-368.11 745.2,-335.54 408.02,-360 287.51,-370.73"/>
<polygon fill="black" stroke="black" points="286.84,-367.28 277.2,-371.66 287.47,-374.25 286.84,-367.28"/>
<text text-anchor="start" x="795.5" y="-356.91" font-family="arial" font-size="14.00" fill="#377eb8">true</text>
</g>
<!-- st01234W&#45;&gt;st012 -->
<g id="edge56" class="edge">
<title>st01234W&#45;&gt;st012</title>
<path fill="none" stroke="black" d="M1518.19,-551.89C1540.08,-551.48 1563.59,-552.66 1585,-557.11 1597.57,-559.72 1610.53,-564.09 1622.66,-569.03"/>
<polygon fill="black" stroke="black" points="1621.62,-572.39 1632.19,-573.09 1624.36,-565.95 1621.62,-572.39"/>
<text text-anchor="start" x="1536" y="-560.91" font-family="arial" font-size="14.00" fill="#377eb8">(R&#39; || S&#39;)</text>
</g>
<!-- st01234W&#45;&gt;st01234W -->
<g id="edge58" class="edge">
<title>st01234W&#45;&gt;st01234W</title>
<path fill="none" stroke="black" d="M1411.84,-585.28C1410.81,-595.02 1418.53,-603.11 1435,-603.11 1445.29,-603.11 1452.17,-599.95 1455.63,-595.2"/>
<polygon fill="black" stroke="black" points="1459.08,-595.84 1458.16,-585.28 1452.29,-594.1 1459.08,-595.84"/>
<text text-anchor="start" x="1416" y="-606.91" font-family="arial" font-size="14.00" fill="#377eb8">c0 &lt; 5</text>
</g>
<!-- st01234W&#45;&gt;st02 -->
<g id="edge52" class="edge">
<title>st01234W&#45;&gt;st02</title>
<path fill="none" stroke="black" d="M1419.45,-534.98C1401.37,-504.76 1368.63,-453.2 1334,-414.11 1316.11,-393.91 1263.54,-348.79 1226.75,-317.89"/>
<polygon fill="black" stroke="black" points="1228.61,-314.88 1218.7,-311.14 1224.12,-320.25 1228.61,-314.88"/>
<text text-anchor="start" x="1285" y="-417.91" font-family="arial" font-size="14.00" fill="#377eb8">(R&#39; || S&#39;)</text>
</g>
<!-- st01234W&#45;&gt;st0234W -->
<g id="edge54" class="edge">
<title>st01234W&#45;&gt;st0234W</title>
<path fill="none" stroke="black" d="M1366.36,-585.24C1336.37,-595.1 1300.39,-605.21 1267,-610.11 1127.56,-630.53 717.88,-591.86 531.39,-572.37"/>
<polygon fill="black" stroke="black" points="531.64,-568.88 521.33,-571.32 530.91,-575.84 531.64,-568.88"/>
<text text-anchor="start" x="917.5" y="-615.91" font-family="arial" font-size="14.00" fill="#377eb8">c0 &lt; 5</text>
</g>
<!-- st024W -->
<g id="node11" class="node">
<title>st024W</title>
<polygon fill="none" stroke="black" points="1023,-710.11 850,-710.11 850,-660.11 1023,-660.11 1023,-710.11"/>
<text text-anchor="start" x="912" y="-695.91" font-family="arial" font-weight="bold" font-size="14.00">st024W</text>
<text text-anchor="start" x="858" y="-681.91" font-family="arial" font-size="14.00" fill="#984ea3">(!Q &amp;&amp; (!R &amp;&amp; (!S &amp;&amp; !T)))</text>
<text text-anchor="start" x="913.5" y="-667.91" font-family="arial" font-size="14.00" fill="#ff7f00">c0 &lt;= 5</text>
</g>
<!-- st01234W&#45;&gt;st024W -->
<g id="edge53" class="edge">
<title>st01234W&#45;&gt;st024W</title>
<path fill="none" stroke="black" d="M1411.67,-585.42C1393,-604.76 1364.56,-630.22 1334,-643.11 1237.26,-683.91 1115.97,-691.11 1033.18,-690.19"/>
<polygon fill="black" stroke="black" points="1033.08,-686.69 1023.03,-690.04 1032.97,-693.69 1033.08,-686.69"/>
<text text-anchor="start" x="1168.5" y="-691.91" font-family="arial" font-size="14.00" fill="#377eb8">c0 &lt; 5</text>
</g>
<!-- st0124W -->
<g id="node12" class="node">
<title>st0124W</title>
<polygon fill="none" stroke="black" points="765,-494.11 595,-494.11 595,-444.11 765,-444.11 765,-494.11"/>
<text text-anchor="start" x="652" y="-479.91" font-family="arial" font-weight="bold" font-size="14.00">st0124W</text>
<text text-anchor="start" x="603" y="-465.91" font-family="arial" font-size="14.00" fill="#984ea3">(Q &amp;&amp; (!R &amp;&amp; (!S &amp;&amp; !T)))</text>
<text text-anchor="start" x="657" y="-451.91" font-family="arial" font-size="14.00" fill="#ff7f00">c0 &lt;= 5</text>
</g>
<!-- st01234W&#45;&gt;st0124W -->
<g id="edge57" class="edge">
<title>st01234W&#45;&gt;st0124W</title>
<path fill="none" stroke="black" d="M1373.65,-535.09C1360.74,-530.5 1347.06,-526.2 1334,-523.11 1094.93,-466.55 1027.95,-497.89 783,-479.11 780.44,-478.91 777.84,-478.7 775.22,-478.49"/>
<polygon fill="black" stroke="black" points="775.28,-474.98 765.02,-477.63 774.69,-481.96 775.28,-474.98"/>
<text text-anchor="start" x="1046.5" y="-490.91" font-family="arial" font-size="14.00" fill="#377eb8">c0 &lt; 5</text>
</g>
<!-- st02&#45;&gt;st0 -->
<g id="edge15" class="edge">
<title>st02&#45;&gt;st0</title>
<path fill="none" stroke="black" d="M1168.83,-261.03C1142.01,-225.32 1087.3,-161.17 1023,-134.11 873.74,-71.28 432.25,-15.15 295,-101.11 181.12,-172.42 204,-245.14 163,-373.11 138.12,-450.76 126.53,-546.27 121.8,-596.82"/>
<polygon fill="black" stroke="black" points="118.31,-596.63 120.9,-606.91 125.28,-597.26 118.31,-596.63"/>
<text text-anchor="start" x="551.5" y="-61.91" font-family="arial" font-size="14.00" fill="#377eb8">R&#39;</text>
</g>
<!-- st02&#45;&gt;st01 -->
<g id="edge18" class="edge">
<title>st02&#45;&gt;st01</title>
<path fill="none" stroke="black" d="M1143.12,-260.94C1094.66,-235.25 1013.06,-199.11 937.5,-199.11 435,-199.11 435,-199.11 435,-199.11 368.15,-199.11 341.4,-205.98 295,-254.11 271.95,-278.01 258.02,-313.58 250.27,-339.97"/>
<polygon fill="black" stroke="black" points="246.8,-339.37 247.5,-349.95 253.55,-341.25 246.8,-339.37"/>
<text text-anchor="start" x="668" y="-202.91" font-family="arial" font-size="14.00" fill="#377eb8">true</text>
</g>
<!-- st02&#45;&gt;st012 -->
<g id="edge19" class="edge">
<title>st02&#45;&gt;st012</title>
<path fill="none" stroke="black" d="M1267.25,-290.14C1354.82,-298.6 1495.68,-324.6 1585,-404.11 1633.19,-447 1659.3,-519.96 1671.24,-563.14"/>
<polygon fill="black" stroke="black" points="1667.89,-564.15 1673.84,-572.92 1674.65,-562.35 1667.89,-564.15"/>
<text text-anchor="start" x="1423" y="-358.91" font-family="arial" font-size="14.00" fill="#377eb8">true</text>
</g>
<!-- st02&#45;&gt;st01234W -->
<g id="edge20" class="edge">
<title>st02&#45;&gt;st01234W</title>
<path fill="none" stroke="black" d="M1267.14,-310.18C1298.4,-320.31 1328.33,-330.92 1334,-336.11 1390.18,-387.5 1416.66,-476.36 1427.53,-525.29"/>
<polygon fill="black" stroke="black" points="1424.11,-526.04 1429.61,-535.1 1430.96,-524.59 1424.11,-526.04"/>
<text text-anchor="start" x="1297.5" y="-354.91" font-family="arial" font-size="14.00" fill="#377eb8">true</text>
<text text-anchor="start" x="1290.5" y="-339.91" font-family="arial" font-size="14.00">c0 :=0</text>
</g>
<!-- st02&#45;&gt;st02 -->
<g id="edge16" class="edge">
<title>st02&#45;&gt;st02</title>
<path fill="none" stroke="black" d="M1164.71,-311.28C1163.7,-321.02 1171.3,-329.11 1187.5,-329.11 1197.63,-329.11 1204.39,-325.95 1207.79,-321.2"/>
<polygon fill="black" stroke="black" points="1211.24,-321.83 1210.29,-311.28 1204.45,-320.13 1211.24,-321.83"/>
<text text-anchor="start" x="1175.5" y="-332.91" font-family="arial" font-size="14.00" fill="#377eb8">true</text>
</g>
<!-- st02&#45;&gt;st0234W -->
<g id="edge17" class="edge">
<title>st02&#45;&gt;st0234W</title>
<path fill="none" stroke="black" d="M1107.72,-291.19C994.63,-298.62 798.14,-312.11 783,-317.11 650.88,-360.68 525.24,-473.47 468.53,-529.51"/>
<polygon fill="black" stroke="black" points="465.93,-527.17 461.32,-536.71 470.87,-532.12 465.93,-527.17"/>
<text text-anchor="start" x="795.5" y="-335.91" font-family="arial" font-size="14.00" fill="#377eb8">true</text>
<text text-anchor="start" x="788.5" y="-320.91" font-family="arial" font-size="14.00">c0 :=0</text>
</g>
<!-- st0234W&#45;&gt;st0 -->
<g id="edge43" class="edge">
<title>st0234W&#45;&gt;st0</title>
<path fill="none" stroke="black" d="M350.91,-580.73C286.99,-594.89 202.26,-613.66 154.92,-624.15"/>
<polygon fill="black" stroke="black" points="154.13,-620.74 145.13,-626.32 155.65,-627.57 154.13,-620.74"/>
<text text-anchor="start" x="234.5" y="-615.91" font-family="arial" font-size="14.00" fill="#377eb8">R&#39;</text>
</g>
<!-- st0234W&#45;&gt;st01 -->
<g id="edge47" class="edge">
<title>st0234W&#45;&gt;st01</title>
<path fill="none" stroke="black" d="M350.79,-561.71C330.62,-557.91 310.47,-550.55 295,-537.11 258.41,-505.3 246.95,-447.86 243.44,-410.62"/>
<polygon fill="black" stroke="black" points="246.89,-409.91 242.61,-400.22 239.91,-410.47 246.89,-409.91"/>
<text text-anchor="start" x="302" y="-559.91" font-family="arial" font-size="14.00" fill="#377eb8">true</text>
</g>
<!-- st0234W&#45;&gt;st012 -->
<g id="edge48" class="edge">
<title>st0234W&#45;&gt;st012</title>
<path fill="none" stroke="black" d="M443.78,-587.23C455.75,-626.16 484.68,-700.02 539,-733.11 689.96,-825.04 1159.16,-784.07 1334,-758.11 1417.49,-745.71 1440.96,-745.58 1518,-711.11 1550.74,-696.45 1555.55,-686.58 1585,-666.11 1602.1,-654.22 1620.74,-640.88 1636.92,-629.19"/>
<polygon fill="black" stroke="black" points="1639.08,-631.94 1645.13,-623.24 1634.98,-626.27 1639.08,-631.94"/>
<text text-anchor="start" x="1041" y="-788.91" font-family="arial" font-size="14.00" fill="#377eb8">(R&#39; || S&#39;)</text>
</g>
<!-- st0234W&#45;&gt;st01234W -->
<g id="edge50" class="edge">
<title>st0234W&#45;&gt;st01234W</title>
<path fill="none" stroke="black" d="M521.24,-560.43C671.2,-557.68 994.31,-552.84 1267,-556.11 1291.11,-556.39 1317.16,-556.92 1341.37,-557.49"/>
<polygon fill="black" stroke="black" points="1341.53,-561 1351.61,-557.74 1341.7,-554 1341.53,-561"/>
<text text-anchor="start" x="917.5" y="-558.91" font-family="arial" font-size="14.00" fill="#377eb8">c0 &lt; 5</text>
</g>
<!-- st0234W&#45;&gt;st02 -->
<g id="edge44" class="edge">
<title>st0234W&#45;&gt;st02</title>
<path fill="none" stroke="black" d="M457.69,-536.8C475.34,-514.75 500.97,-481.61 521,-451.11 557.7,-395.21 539.8,-357.84 595,-320.11 674.35,-265.86 953.09,-272.7 1097.8,-280.34"/>
<polygon fill="black" stroke="black" points="1097.81,-283.85 1107.98,-280.89 1098.19,-276.86 1097.81,-283.85"/>
<text text-anchor="start" x="783" y="-282.91" font-family="arial" font-size="14.00" fill="#377eb8">(R&#39; || S&#39;)</text>
</g>
<!-- st0234W&#45;&gt;st0234W -->
<g id="edge46" class="edge">
<title>st0234W&#45;&gt;st0234W</title>
<path fill="none" stroke="black" d="M413.21,-587.28C412.2,-597.02 419.8,-605.11 436,-605.11 446.13,-605.11 452.89,-601.95 456.29,-597.2"/>
<polygon fill="black" stroke="black" points="459.74,-597.83 458.79,-587.28 452.95,-596.13 459.74,-597.83"/>
<text text-anchor="start" x="417" y="-608.91" font-family="arial" font-size="14.00" fill="#377eb8">c0 &lt; 5</text>
</g>
<!-- st0234W&#45;&gt;st024W -->
<g id="edge45" class="edge">
<title>st0234W&#45;&gt;st024W</title>
<path fill="none" stroke="black" d="M487.77,-587.15C503.87,-594.37 521.92,-601.73 539,-607.11 553.37,-611.63 727.05,-645.22 839.73,-666.82"/>
<polygon fill="black" stroke="black" points="839.28,-670.29 849.76,-668.74 840.6,-663.42 839.28,-670.29"/>
<text text-anchor="start" x="661" y="-655.91" font-family="arial" font-size="14.00" fill="#377eb8">c0 &lt; 5</text>
</g>
<!-- st0234W&#45;&gt;st0124W -->
<g id="edge49" class="edge">
<title>st0234W&#45;&gt;st0124W</title>
<path fill="none" stroke="black" d="M505.5,-537.08C528.29,-528.64 553.78,-519.08 577,-510.11 587.02,-506.23 597.56,-502.08 607.91,-497.96"/>
<polygon fill="black" stroke="black" points="609.36,-501.15 617.34,-494.2 606.76,-494.65 609.36,-501.15"/>
<text text-anchor="start" x="539" y="-526.91" font-family="arial" font-size="14.00" fill="#377eb8">c0 &lt; 5</text>
</g>
<!-- st024W&#45;&gt;st0 -->
<g id="edge27" class="edge">
<title>st024W&#45;&gt;st0</title>
<path fill="none" stroke="black" d="M902.29,-710.42C839.09,-755.98 695.62,-847.11 559,-847.11 240,-847.11 240,-847.11 240,-847.11 158.41,-847.11 131.25,-728.08 122.69,-667.15"/>
<polygon fill="black" stroke="black" points="126.15,-666.65 121.38,-657.19 119.21,-667.56 126.15,-666.65"/>
<text text-anchor="start" x="429.5" y="-850.91" font-family="arial" font-size="14.00" fill="#377eb8">R&#39;</text>
</g>
<!-- st024W&#45;&gt;st01 -->
<g id="edge31" class="edge">
<title>st024W&#45;&gt;st01</title>
<path fill="none" stroke="black" d="M849.85,-706.03C843.83,-707.18 837.84,-708.22 832,-709.11 802.48,-713.6 794.84,-712.99 765,-714.11 577.29,-721.1 511.02,-727.48 351,-629.11 321.55,-611 312.52,-604.91 295,-575.11 264.13,-522.58 250.9,-451.85 245.49,-410.11"/>
<polygon fill="black" stroke="black" points="248.96,-409.65 244.27,-400.15 242.01,-410.5 248.96,-409.65"/>
<text text-anchor="start" x="546" y="-717.91" font-family="arial" font-size="14.00" fill="#377eb8">true</text>
</g>
<!-- st024W&#45;&gt;st012 -->
<g id="edge32" class="edge">
<title>st024W&#45;&gt;st012</title>
<path fill="none" stroke="black" d="M989.36,-710.12C1005.62,-717.29 1023.82,-724.64 1041,-730.11 1069.99,-739.33 1077.74,-740.98 1108,-744.11 1178.29,-751.37 1197.35,-756.07 1267,-744.11 1396.14,-721.93 1538.53,-663.35 1617.68,-627.5"/>
<polygon fill="black" stroke="black" points="1619.37,-630.58 1627.01,-623.24 1616.46,-624.21 1619.37,-630.58"/>
<text text-anchor="start" x="1285" y="-742.91" font-family="arial" font-size="14.00" fill="#377eb8">(R&#39; || S&#39;)</text>
</g>
<!-- st024W&#45;&gt;st01234W -->
<g id="edge34" class="edge">
<title>st024W&#45;&gt;st01234W</title>
<path fill="none" stroke="black" d="M1023.21,-708.62C1107.57,-726.77 1237.42,-740.98 1334,-689.11 1372.91,-668.2 1401.51,-624.93 1417.93,-594.28"/>
<polygon fill="black" stroke="black" points="1421.14,-595.7 1422.63,-585.21 1414.92,-592.47 1421.14,-595.7"/>
<text text-anchor="start" x="1168.5" y="-728.91" font-family="arial" font-size="14.00" fill="#377eb8">c0 &lt; 5</text>
</g>
<!-- st024W&#45;&gt;st02 -->
<g id="edge28" class="edge">
<title>st024W&#45;&gt;st02</title>
<path fill="none" stroke="black" d="M996.78,-659.9C1006.23,-654.26 1015.38,-647.67 1023,-640.11 1067.74,-595.7 1070.11,-574.92 1090,-515.11 1106.88,-464.35 1087.91,-445.68 1108,-396.11 1119.51,-367.7 1139.72,-339.63 1156.75,-318.96"/>
<polygon fill="black" stroke="black" points="1159.57,-321.04 1163.34,-311.14 1154.22,-316.53 1159.57,-321.04"/>
<text text-anchor="start" x="1041" y="-623.91" font-family="arial" font-size="14.00" fill="#377eb8">(R&#39; || S&#39;)</text>
</g>
<!-- st024W&#45;&gt;st0234W -->
<g id="edge30" class="edge">
<title>st024W&#45;&gt;st0234W</title>
<path fill="none" stroke="black" d="M849.69,-693.7C766.69,-698.5 639.13,-696.48 539,-653.11 509.46,-640.31 482.58,-615.52 463.84,-595.04"/>
<polygon fill="black" stroke="black" points="466.33,-592.58 457.07,-587.44 461.11,-597.23 466.33,-592.58"/>
<text text-anchor="start" x="661" y="-698.91" font-family="arial" font-size="14.00" fill="#377eb8">c0 &lt; 5</text>
</g>
<!-- st024W&#45;&gt;st024W -->
<g id="edge29" class="edge">
<title>st024W&#45;&gt;st024W</title>
<path fill="none" stroke="black" d="M912.59,-710.28C911.53,-720.02 919.5,-728.11 936.5,-728.11 947.12,-728.11 954.22,-724.95 957.79,-720.2"/>
<polygon fill="black" stroke="black" points="961.24,-720.84 960.41,-710.28 954.47,-719.06 961.24,-720.84"/>
<text text-anchor="start" x="917.5" y="-731.91" font-family="arial" font-size="14.00" fill="#377eb8">c0 &lt; 5</text>
</g>
<!-- st024W&#45;&gt;st0124W -->
<g id="edge33" class="edge">
<title>st024W&#45;&gt;st0124W</title>
<path fill="none" stroke="black" d="M881.52,-659.93C870.71,-654 859.7,-647.3 850,-640.11 794.2,-598.74 739.53,-538.9 708.1,-502.08"/>
<polygon fill="black" stroke="black" points="710.51,-499.51 701.38,-494.14 705.17,-504.03 710.51,-499.51"/>
<text text-anchor="start" x="788.5" y="-626.91" font-family="arial" font-size="14.00" fill="#377eb8">c0 &lt; 5</text>
</g>
<!-- st0124W&#45;&gt;st0 -->
<g id="edge35" class="edge">
<title>st0124W&#45;&gt;st0</title>
<path fill="none" stroke="black" d="M594.61,-459.66C498.28,-450.22 347.29,-439.89 295,-461.11 226.63,-488.85 170.22,-557.31 140.88,-598.71"/>
<polygon fill="black" stroke="black" points="137.87,-596.9 135.03,-607.1 143.62,-600.9 137.87,-596.9"/>
<text text-anchor="start" x="307.5" y="-464.91" font-family="arial" font-size="14.00" fill="#377eb8">R&#39;</text>
</g>
<!-- st0124W&#45;&gt;st01 -->
<g id="edge39" class="edge">
<title>st0124W&#45;&gt;st01</title>
<path fill="none" stroke="black" d="M594.64,-448.88C570.86,-443.31 544.94,-437.35 521,-432.11 438.71,-414.07 342.36,-394.79 287.13,-383.91"/>
<polygon fill="black" stroke="black" points="287.79,-380.48 277.3,-381.98 286.44,-387.35 287.79,-380.48"/>
<text text-anchor="start" x="424" y="-435.91" font-family="arial" font-size="14.00" fill="#377eb8">true</text>
</g>
<!-- st0124W&#45;&gt;st012 -->
<g id="edge40" class="edge">
<title>st0124W&#45;&gt;st012</title>
<path fill="none" stroke="black" d="M765.02,-459.77C903.32,-445.16 1173,-420.17 1267,-436.11 1414.59,-461.12 1448.03,-486.7 1585,-547.11 1599.13,-553.34 1614.02,-560.88 1627.68,-568.23"/>
<polygon fill="black" stroke="black" points="1626.01,-571.3 1636.47,-573.01 1629.36,-565.16 1626.01,-571.3"/>
<text text-anchor="start" x="1163" y="-439.91" font-family="arial" font-size="14.00" fill="#377eb8">(R&#39; || S&#39;)</text>
</g>
<!-- st0124W&#45;&gt;st01234W -->
<g id="edge42" class="edge">
<title>st0124W&#45;&gt;st01234W</title>
<path fill="none" stroke="black" d="M765.01,-467.01C837.96,-465.3 946.46,-463.03 1041,-462.11 1171.62,-460.84 1212.16,-438.02 1334,-485.11 1358.75,-494.67 1382.67,-512.21 1400.91,-527.92"/>
<polygon fill="black" stroke="black" points="1399.06,-530.96 1408.87,-534.98 1403.71,-525.72 1399.06,-530.96"/>
<text text-anchor="start" x="1046.5" y="-465.91" font-family="arial" font-size="14.00" fill="#377eb8">c0 &lt; 5</text>
</g>
<!-- st0124W&#45;&gt;st02 -->
<g id="edge36" class="edge">
<title>st0124W&#45;&gt;st02</title>
<path fill="none" stroke="black" d="M743.07,-444.06C756.2,-438.96 770.01,-433.74 783,-429.11 918.02,-380.91 956.33,-381.93 1090,-330.11 1101.51,-325.64 1113.62,-320.5 1125.21,-315.33"/>
<polygon fill="black" stroke="black" points="1126.7,-318.5 1134.38,-311.2 1123.83,-312.12 1126.7,-318.5"/>
<text text-anchor="start" x="912" y="-409.91" font-family="arial" font-size="14.00" fill="#377eb8">(R&#39; || S&#39;)</text>
</g>
<!-- st0124W&#45;&gt;st0234W -->
<g id="edge38" class="edge">
<title>st0124W&#45;&gt;st0234W</title>
<path fill="none" stroke="black" d="M594.91,-479.12C576.11,-482.89 556.55,-488.05 539,-495.11 517.04,-503.94 494.82,-517.82 476.75,-530.67"/>
<polygon fill="black" stroke="black" points="474.26,-528.15 468.23,-536.86 478.38,-533.81 474.26,-528.15"/>
<text text-anchor="start" x="539" y="-498.91" font-family="arial" font-size="14.00" fill="#377eb8">c0 &lt; 5</text>
</g>
<!-- st0124W&#45;&gt;st024W -->
<g id="edge37" class="edge">
<title>st0124W&#45;&gt;st024W</title>
<path fill="none" stroke="black" d="M741.81,-494.16C773.2,-510.06 809.53,-533.63 832,-565.11 851.92,-593.01 828.96,-613.04 850,-640.11 853.99,-645.23 858.72,-649.84 863.89,-653.96"/>
<polygon fill="black" stroke="black" points="862.17,-657.04 872.32,-660.05 866.27,-651.36 862.17,-657.04"/>
<text text-anchor="start" x="788.5" y="-568.91" font-family="arial" font-size="14.00" fill="#377eb8">c0 &lt; 5</text>
</g>
<!-- st0124W&#45;&gt;st0124W -->
<g id="edge41" class="edge">
<title>st0124W&#45;&gt;st0124W</title>
<path fill="none" stroke="black" d="M657.21,-494.28C656.2,-504.02 663.8,-512.11 680,-512.11 690.13,-512.11 696.89,-508.95 700.29,-504.2"/>
<polygon fill="black" stroke="black" points="703.74,-504.83 702.79,-494.28 696.95,-503.13 703.74,-504.83"/>
<text text-anchor="start" x="661" y="-515.91" font-family="arial" font-size="14.00" fill="#377eb8">c0 &lt; 5</text>
</g>
</g>
</svg>
