<?xml version="1.0" encoding="UTF-8" standalone="no"?>
<!DOCTYPE svg PUBLIC "-//W3C//DTD SVG 1.1//EN"
 "http://www.w3.org/Graphics/SVG/1.1/DTD/svg11.dtd">
<!-- Generated by graphviz version 2.43.0 (0)
 -->
<!-- Title: G Pages: 1 -->
<svg width="671pt" height="182pt"
 viewBox="0.00 0.00 671.00 182.00" xmlns="http://www.w3.org/2000/svg" xmlns:xlink="http://www.w3.org/1999/xlink">
<g id="graph0" class="graph" transform="scale(1 1) rotate(0) translate(4 178)">
<title>G</title>
<polygon fill="white" stroke="transparent" points="-4,4 -4,-178 667,-178 667,4 -4,4"/>
<!-- _ID_122_ct0_st -->
<!-- ID_122_ct0_st -->
<g id="node2" class="node">
<title>ID_122_ct0_st</title>
<polygon fill="none" stroke="black" points="663,-87 556,-87 556,-37 663,-37 663,-87"/>
<text text-anchor="start" x="564" y="-72.8" font-family="arial" font-weight="bold" font-size="14.00">ID_122_ct0_st</text>
<text text-anchor="start" x="597.5" y="-58.8" font-family="arial" font-size="14.00" fill="#984ea3">true</text>
<text text-anchor="start" x="597.5" y="-44.8" font-family="arial" font-size="14.00" fill="#ff7f00">true</text>
</g>
<!-- _ID_122_ct0_st&#45;&gt;ID_122_ct0_st -->
<g id="edge1" class="edge">
<title>_ID_122_ct0_st&#45;&gt;ID_122_ct0_st</title>
<path fill="none" stroke="black" d="M486.22,-137.9C492.62,-135.11 499.03,-132.11 505,-129 525.23,-118.47 546.55,-105.09 564.55,-93.07"/>
<polygon fill="black" stroke="black" points="566.77,-95.79 573.1,-87.29 562.86,-89.99 566.77,-95.79"/>
</g>
<!-- ID_122_ct0_st&#45;&gt;ID_122_ct0_st -->
<g id="edge4" class="edge">
<title>ID_122_ct0_st&#45;&gt;ID_122_ct0_st</title>
<path fill="none" stroke="black" d="M594.93,-87.18C594.28,-96.91 599.14,-105 609.5,-105 615.97,-105 620.3,-101.84 622.47,-97.09"/>
<polygon fill="black" stroke="black" points="625.94,-97.6 624.07,-87.18 619.03,-96.49 625.94,-97.6"/>
<text text-anchor="start" x="597.5" y="-108.8" font-family="arial" font-size="14.00" fill="#377eb8">true</text>
</g>
<!-- _ID_122_ct0_st0 -->
<!-- ID_122_ct0_st0 -->
<g id="node4" class="node">
<title>ID_122_ct0_st0</title>
<polygon fill="none" stroke="black" points="283,-50 169,-50 169,0 283,0 283,-50"/>
<text text-anchor="start" x="177" y="-35.8" font-family="arial" font-weight="bold" font-size="14.00">ID_122_ct0_st0</text>
<text text-anchor="start" x="196" y="-21.8" font-family="arial" font-size="14.00" fill="#984ea3">(!Q &amp;&amp; R)</text>
<text text-anchor="start" x="214" y="-7.8" font-family="arial" font-size="14.00" fill="#ff7f00">true</text>
</g>
<!-- _ID_122_ct0_st0&#45;&gt;ID_122_ct0_st0 -->
<g id="edge2" class="edge">
<title>_ID_122_ct0_st0&#45;&gt;ID_122_ct0_st0</title>
<path fill="none" stroke="black" d="M119.42,-25C132.15,-25 145.7,-25 158.69,-25"/>
<polygon fill="black" stroke="black" points="158.96,-28.5 168.96,-25 158.96,-21.5 158.96,-28.5"/>
</g>
<!-- ID_122_ct0_st0&#45;&gt;ID_122_ct0_st -->
<g id="edge5" class="edge">
<title>ID_122_ct0_st0&#45;&gt;ID_122_ct0_st</title>
<path fill="none" stroke="black" d="M283.15,-14.05C339.85,-4.98 429.59,3.95 505,-13 522.67,-16.97 540.88,-24.32 557,-32.15"/>
<polygon fill="black" stroke="black" points="555.72,-35.42 566.23,-36.79 558.86,-29.17 555.72,-35.42"/>
<text text-anchor="start" x="430" y="-16.8" font-family="arial" font-size="14.00" fill="#377eb8">Q&#39;</text>
</g>
<!-- ID_122_ct0_st0&#45;&gt;ID_122_ct0_st0 -->
<g id="edge6" class="edge">
<title>ID_122_ct0_st0&#45;&gt;ID_122_ct0_st0</title>
<path fill="none" stroke="black" d="M209.56,-50.18C208.83,-59.91 214.31,-68 226,-68 233.3,-68 238.18,-64.84 240.64,-60.09"/>
<polygon fill="black" stroke="black" points="244.1,-60.64 242.44,-50.18 237.21,-59.39 244.1,-60.64"/>
<text text-anchor="start" x="214" y="-71.8" font-family="arial" font-size="14.00" fill="#377eb8">true</text>
</g>
<!-- ID_122_ct0_st01W -->
<g id="node6" class="node">
<title>ID_122_ct0_st01W</title>
<polygon fill="none" stroke="black" points="505,-87 370,-87 370,-37 505,-37 505,-87"/>
<text text-anchor="start" x="378" y="-72.8" font-family="arial" font-weight="bold" font-size="14.00">ID_122_ct0_st01W</text>
<text text-anchor="start" x="405.5" y="-58.8" font-family="arial" font-size="14.00" fill="#984ea3">(!Q &amp;&amp; !R)</text>
<text text-anchor="start" x="414.5" y="-44.8" font-family="arial" font-size="14.00" fill="#ff7f00">c0 &lt;= 5</text>
</g>
<!-- ID_122_ct0_st0&#45;&gt;ID_122_ct0_st01W -->
<g id="edge7" class="edge">
<title>ID_122_ct0_st0&#45;&gt;ID_122_ct0_st01W</title>
<path fill="none" stroke="black" d="M283.4,-40.36C293.54,-42.81 304.05,-45.14 314,-47 328.77,-49.76 344.64,-52.13 359.91,-54.13"/>
<polygon fill="black" stroke="black" points="359.47,-57.6 369.83,-55.38 360.35,-50.65 359.47,-57.6"/>
<text text-anchor="start" x="321" y="-70.8" font-family="arial" font-size="14.00" fill="#377eb8">true</text>
<text text-anchor="start" x="314" y="-55.8" font-family="arial" font-size="14.00">c0 :=0</text>
</g>
<!-- _ID_122_ct0_st01W -->
<!-- _ID_122_ct0_st01W&#45;&gt;ID_122_ct0_st01W -->
<g id="edge3" class="edge">
<title>_ID_122_ct0_st01W&#45;&gt;ID_122_ct0_st01W</title>
<path fill="none" stroke="black" d="M296.16,-100.99C314.34,-96.18 333.92,-90.95 352,-86 354.6,-85.29 357.24,-84.56 359.91,-83.82"/>
<polygon fill="black" stroke="black" points="360.95,-87.16 369.65,-81.11 359.08,-80.42 360.95,-87.16"/>
</g>
<!-- ID_122_ct0_st01W&#45;&gt;ID_122_ct0_st -->
<g id="edge8" class="edge">
<title>ID_122_ct0_st01W&#45;&gt;ID_122_ct0_st</title>
<path fill="none" stroke="black" d="M505.2,-62C518.49,-62 532.4,-62 545.55,-62"/>
<polygon fill="black" stroke="black" points="545.91,-65.5 555.91,-62 545.91,-58.5 545.91,-65.5"/>
<text text-anchor="start" x="523" y="-65.8" font-family="arial" font-size="14.00" fill="#377eb8">Q&#39;</text>
</g>
<!-- ID_122_ct0_st01W&#45;&gt;ID_122_ct0_st0 -->
<g id="edge9" class="edge">
<title>ID_122_ct0_st01W&#45;&gt;ID_122_ct0_st0</title>
<path fill="none" stroke="black" d="M382.39,-36.93C372.47,-33.29 362.07,-30.07 352,-28 333.17,-24.12 312.4,-22.56 293.3,-22.19"/>
<polygon fill="black" stroke="black" points="293.21,-18.69 283.18,-22.1 293.14,-25.69 293.21,-18.69"/>
<text text-anchor="start" x="321" y="-31.8" font-family="arial" font-size="14.00" fill="#377eb8">true</text>
</g>
<!-- ID_122_ct0_st01W&#45;&gt;ID_122_ct0_st01W -->
<g id="edge10" class="edge">
<title>ID_122_ct0_st01W&#45;&gt;ID_122_ct0_st01W</title>
<path fill="none" stroke="black" d="M420.32,-87.18C419.55,-96.91 425.28,-105 437.5,-105 445.14,-105 450.24,-101.84 452.8,-97.09"/>
<polygon fill="black" stroke="black" points="456.26,-97.65 454.68,-87.18 449.38,-96.35 456.26,-97.65"/>
<text text-anchor="start" x="418.5" y="-108.8" font-family="arial" font-size="14.00" fill="#377eb8">c0 &lt; 5</text>
</g>
</g>
</svg>
