<?xml version="1.0" encoding="UTF-8" standalone="no"?>
<!DOCTYPE svg PUBLIC "-//W3C//DTD SVG 1.1//EN"
 "http://www.w3.org/Graphics/SVG/1.1/DTD/svg11.dtd">
<!-- Generated by graphviz version 2.43.0 (0)
 -->
<!-- Title: G Pages: 1 -->
<svg width="640pt" height="182pt"
 viewBox="0.00 0.00 640.00 182.00" xmlns="http://www.w3.org/2000/svg" xmlns:xlink="http://www.w3.org/1999/xlink">
<g id="graph0" class="graph" transform="scale(1 1) rotate(0) translate(4 178)">
<title>G</title>
<polygon fill="white" stroke="transparent" points="-4,4 -4,-178 636,-178 636,4 -4,4"/>
<!-- _ID_92_ct0_st -->
<!-- ID_92_ct0_st -->
<g id="node2" class="node">
<title>ID_92_ct0_st</title>
<polygon fill="none" stroke="black" points="632,-87 533,-87 533,-37 632,-37 632,-87"/>
<text text-anchor="start" x="541" y="-72.8" font-family="arial" font-weight="bold" font-size="14.00">ID_92_ct0_st</text>
<text text-anchor="start" x="570.5" y="-58.8" font-family="arial" font-size="14.00" fill="#984ea3">true</text>
<text text-anchor="start" x="570.5" y="-44.8" font-family="arial" font-size="14.00" fill="#ff7f00">true</text>
</g>
<!-- _ID_92_ct0_st&#45;&gt;ID_92_ct0_st -->
<g id="edge1" class="edge">
<title>_ID_92_ct0_st&#45;&gt;ID_92_ct0_st</title>
<path fill="none" stroke="black" d="M463.9,-137.99C470.07,-135.16 476.25,-132.13 482,-129 501.49,-118.38 521.99,-105 539.29,-92.99"/>
<polygon fill="black" stroke="black" points="541.33,-95.83 547.51,-87.22 537.31,-90.1 541.33,-95.83"/>
</g>
<!-- ID_92_ct0_st&#45;&gt;ID_92_ct0_st -->
<g id="edge4" class="edge">
<title>ID_92_ct0_st&#45;&gt;ID_92_ct0_st</title>
<path fill="none" stroke="black" d="M568.68,-87.18C568.06,-96.91 572.67,-105 582.5,-105 588.64,-105 592.75,-101.84 594.81,-97.09"/>
<polygon fill="black" stroke="black" points="598.27,-97.59 596.32,-87.18 591.35,-96.53 598.27,-97.59"/>
<text text-anchor="start" x="570.5" y="-108.8" font-family="arial" font-size="14.00" fill="#377eb8">true</text>
</g>
<!-- _ID_92_ct0_st0 -->
<!-- ID_92_ct0_st0 -->
<g id="node4" class="node">
<title>ID_92_ct0_st0</title>
<polygon fill="none" stroke="black" points="267.5,-50 160.5,-50 160.5,0 267.5,0 267.5,-50"/>
<text text-anchor="start" x="168.5" y="-35.8" font-family="arial" font-weight="bold" font-size="14.00">ID_92_ct0_st0</text>
<text text-anchor="start" x="184" y="-21.8" font-family="arial" font-size="14.00" fill="#984ea3">(!Q &amp;&amp; R)</text>
<text text-anchor="start" x="202" y="-7.8" font-family="arial" font-size="14.00" fill="#ff7f00">true</text>
</g>
<!-- _ID_92_ct0_st0&#45;&gt;ID_92_ct0_st0 -->
<g id="edge2" class="edge">
<title>_ID_92_ct0_st0&#45;&gt;ID_92_ct0_st0</title>
<path fill="none" stroke="black" d="M111.24,-25C123.82,-25 137.31,-25 150.21,-25"/>
<polygon fill="black" stroke="black" points="150.4,-28.5 160.4,-25 150.4,-21.5 150.4,-28.5"/>
</g>
<!-- ID_92_ct0_st0&#45;&gt;ID_92_ct0_st -->
<g id="edge5" class="edge">
<title>ID_92_ct0_st0&#45;&gt;ID_92_ct0_st</title>
<path fill="none" stroke="black" d="M267.7,-14.31C322.13,-5.2 409.13,3.97 482,-13 499.09,-16.98 516.62,-24.33 532.11,-32.16"/>
<polygon fill="black" stroke="black" points="530.49,-35.26 540.97,-36.79 533.74,-29.06 530.49,-35.26"/>
<text text-anchor="start" x="410.5" y="-16.8" font-family="arial" font-size="14.00" fill="#377eb8">Q&#39;</text>
</g>
<!-- ID_92_ct0_st0&#45;&gt;ID_92_ct0_st0 -->
<g id="edge6" class="edge">
<title>ID_92_ct0_st0&#45;&gt;ID_92_ct0_st0</title>
<path fill="none" stroke="black" d="M198.31,-50.18C197.61,-59.91 202.84,-68 214,-68 220.97,-68 225.63,-64.84 227.97,-60.09"/>
<polygon fill="black" stroke="black" points="231.43,-60.63 229.69,-50.18 224.53,-59.43 231.43,-60.63"/>
<text text-anchor="start" x="202" y="-71.8" font-family="arial" font-size="14.00" fill="#377eb8">true</text>
</g>
<!-- ID_92_ct0_st01W -->
<g id="node6" class="node">
<title>ID_92_ct0_st01W</title>
<polygon fill="none" stroke="black" points="482,-87 354,-87 354,-37 482,-37 482,-87"/>
<text text-anchor="start" x="362" y="-72.8" font-family="arial" font-weight="bold" font-size="14.00">ID_92_ct0_st01W</text>
<text text-anchor="start" x="386" y="-58.8" font-family="arial" font-size="14.00" fill="#984ea3">(!Q &amp;&amp; !R)</text>
<text text-anchor="start" x="395" y="-44.8" font-family="arial" font-size="14.00" fill="#ff7f00">c0 &lt;= 5</text>
</g>
<!-- ID_92_ct0_st0&#45;&gt;ID_92_ct0_st01W -->
<g id="edge7" class="edge">
<title>ID_92_ct0_st0&#45;&gt;ID_92_ct0_st01W</title>
<path fill="none" stroke="black" d="M267.89,-40.15C277.84,-42.68 288.2,-45.09 298,-47 312.61,-49.84 328.35,-52.27 343.44,-54.29"/>
<polygon fill="black" stroke="black" points="343.39,-57.81 353.76,-55.62 344.29,-50.87 343.39,-57.81"/>
<text text-anchor="start" x="305" y="-70.8" font-family="arial" font-size="14.00" fill="#377eb8">true</text>
<text text-anchor="start" x="298" y="-55.8" font-family="arial" font-size="14.00">c0 :=0</text>
</g>
<!-- _ID_92_ct0_st01W -->
<!-- _ID_92_ct0_st01W&#45;&gt;ID_92_ct0_st01W -->
<g id="edge3" class="edge">
<title>_ID_92_ct0_st01W&#45;&gt;ID_92_ct0_st01W</title>
<path fill="none" stroke="black" d="M280.07,-101.53C298.2,-96.59 317.88,-91.15 336,-86 338.62,-85.25 341.29,-84.49 343.98,-83.72"/>
<polygon fill="black" stroke="black" points="345.18,-87.01 353.81,-80.87 343.23,-80.29 345.18,-87.01"/>
</g>
<!-- ID_92_ct0_st01W&#45;&gt;ID_92_ct0_st -->
<g id="edge8" class="edge">
<title>ID_92_ct0_st01W&#45;&gt;ID_92_ct0_st</title>
<path fill="none" stroke="black" d="M482.29,-62C495.58,-62 509.55,-62 522.67,-62"/>
<polygon fill="black" stroke="black" points="522.98,-65.5 532.98,-62 522.98,-58.5 522.98,-65.5"/>
<text text-anchor="start" x="500" y="-65.8" font-family="arial" font-size="14.00" fill="#377eb8">Q&#39;</text>
</g>
<!-- ID_92_ct0_st01W&#45;&gt;ID_92_ct0_st0 -->
<g id="edge9" class="edge">
<title>ID_92_ct0_st01W&#45;&gt;ID_92_ct0_st0</title>
<path fill="none" stroke="black" d="M365.2,-36.93C355.69,-33.29 345.69,-30.08 336,-28 317.28,-23.99 296.55,-22.45 277.62,-22.14"/>
<polygon fill="black" stroke="black" points="277.63,-18.64 267.61,-22.08 277.59,-25.64 277.63,-18.64"/>
<text text-anchor="start" x="305" y="-31.8" font-family="arial" font-size="14.00" fill="#377eb8">true</text>
</g>
<!-- ID_92_ct0_st01W&#45;&gt;ID_92_ct0_st01W -->
<g id="edge10" class="edge">
<title>ID_92_ct0_st01W&#45;&gt;ID_92_ct0_st01W</title>
<path fill="none" stroke="black" d="M401.56,-87.18C400.83,-96.91 406.31,-105 418,-105 425.3,-105 430.18,-101.84 432.64,-97.09"/>
<polygon fill="black" stroke="black" points="436.1,-97.64 434.44,-87.18 429.21,-96.39 436.1,-97.64"/>
<text text-anchor="start" x="399" y="-108.8" font-family="arial" font-size="14.00" fill="#377eb8">c0 &lt; 5</text>
</g>
</g>
</svg>
