<?xml version="1.0" encoding="UTF-8" standalone="no"?>
<!DOCTYPE svg PUBLIC "-//W3C//DTD SVG 1.1//EN"
 "http://www.w3.org/Graphics/SVG/1.1/DTD/svg11.dtd">
<!-- Generated by graphviz version 2.43.0 (0)
 -->
<!-- Title: G Pages: 1 -->
<svg width="909pt" height="249pt"
 viewBox="0.00 0.00 909.00 249.00" xmlns="http://www.w3.org/2000/svg" xmlns:xlink="http://www.w3.org/1999/xlink">
<g id="graph0" class="graph" transform="scale(1 1) rotate(0) translate(4 245)">
<title>G</title>
<polygon fill="white" stroke="transparent" points="-4,4 -4,-245 905,-245 905,4 -4,4"/>
<!-- _ID_102_ct0_st -->
<!-- ID_102_ct0_st -->
<g id="node2" class="node">
<title>ID_102_ct0_st</title>
<polygon fill="none" stroke="black" points="901,-180 794,-180 794,-130 901,-130 901,-180"/>
<text text-anchor="start" x="802" y="-165.8" font-family="arial" font-weight="bold" font-size="14.00">ID_102_ct0_st</text>
<text text-anchor="start" x="835.5" y="-151.8" font-family="arial" font-size="14.00" fill="#984ea3">true</text>
<text text-anchor="start" x="835.5" y="-137.8" font-family="arial" font-size="14.00" fill="#ff7f00">true</text>
</g>
<!-- _ID_102_ct0_st&#45;&gt;ID_102_ct0_st -->
<g id="edge1" class="edge">
<title>_ID_102_ct0_st&#45;&gt;ID_102_ct0_st</title>
<path fill="none" stroke="black" d="M731.03,-207.2C745.8,-202.46 761.66,-196.92 776,-191 780.8,-189.02 785.72,-186.84 790.61,-184.56"/>
<polygon fill="black" stroke="black" points="792.46,-187.56 799.97,-180.08 789.44,-181.24 792.46,-187.56"/>
</g>
<!-- ID_102_ct0_st&#45;&gt;ID_102_ct0_st -->
<g id="edge4" class="edge">
<title>ID_102_ct0_st&#45;&gt;ID_102_ct0_st</title>
<path fill="none" stroke="black" d="M832.93,-180.18C832.28,-189.91 837.14,-198 847.5,-198 853.97,-198 858.3,-194.84 860.47,-190.09"/>
<polygon fill="black" stroke="black" points="863.94,-190.6 862.07,-180.18 857.03,-189.49 863.94,-190.6"/>
<text text-anchor="start" x="835.5" y="-201.8" font-family="arial" font-size="14.00" fill="#377eb8">true</text>
</g>
<!-- _ID_102_ct0_st0 -->
<!-- ID_102_ct0_st0 -->
<g id="node4" class="node">
<title>ID_102_ct0_st0</title>
<polygon fill="none" stroke="black" points="286.5,-144 172.5,-144 172.5,-94 286.5,-94 286.5,-144"/>
<text text-anchor="start" x="180.5" y="-129.8" font-family="arial" font-weight="bold" font-size="14.00">ID_102_ct0_st0</text>
<text text-anchor="start" x="181" y="-115.8" font-family="arial" font-size="14.00" fill="#984ea3">(!Q &amp;&amp; (R || !S))</text>
<text text-anchor="start" x="217.5" y="-101.8" font-family="arial" font-size="14.00" fill="#ff7f00">true</text>
</g>
<!-- _ID_102_ct0_st0&#45;&gt;ID_102_ct0_st0 -->
<g id="edge2" class="edge">
<title>_ID_102_ct0_st0&#45;&gt;ID_102_ct0_st0</title>
<path fill="none" stroke="black" d="M119.26,-119C133.12,-119 147.98,-119 162.15,-119"/>
<polygon fill="black" stroke="black" points="162.32,-122.5 172.32,-119 162.32,-115.5 162.32,-122.5"/>
</g>
<!-- ID_102_ct0_st0&#45;&gt;ID_102_ct0_st -->
<g id="edge5" class="edge">
<title>ID_102_ct0_st0&#45;&gt;ID_102_ct0_st</title>
<path fill="none" stroke="black" d="M286.94,-126.82C298.21,-128.29 309.98,-129.75 321,-131 448.3,-145.42 480.02,-151.99 608,-158 667.93,-160.81 683.01,-158.87 743,-158 756.18,-157.81 770.3,-157.48 783.74,-157.11"/>
<polygon fill="black" stroke="black" points="783.96,-160.61 793.85,-156.82 783.76,-153.61 783.96,-160.61"/>
<text text-anchor="start" x="563.5" y="-160.8" font-family="arial" font-size="14.00" fill="#377eb8">Q&#39;</text>
</g>
<!-- ID_102_ct0_st0&#45;&gt;ID_102_ct0_st0 -->
<g id="edge6" class="edge">
<title>ID_102_ct0_st0&#45;&gt;ID_102_ct0_st0</title>
<path fill="none" stroke="black" d="M212.32,-144.18C211.55,-153.91 217.28,-162 229.5,-162 237.14,-162 242.24,-158.84 244.8,-154.09"/>
<polygon fill="black" stroke="black" points="248.26,-154.65 246.68,-144.18 241.38,-153.35 248.26,-154.65"/>
<text text-anchor="start" x="217.5" y="-165.8" font-family="arial" font-size="14.00" fill="#377eb8">true</text>
</g>
<!-- ID_102_ct0_st012W -->
<g id="node6" class="node">
<title>ID_102_ct0_st012W</title>
<polygon fill="none" stroke="black" points="534,-65 391,-65 391,-15 534,-15 534,-65"/>
<text text-anchor="start" x="399" y="-50.8" font-family="arial" font-weight="bold" font-size="14.00">ID_102_ct0_st012W</text>
<text text-anchor="start" x="409" y="-36.8" font-family="arial" font-size="14.00" fill="#984ea3">(!Q &amp;&amp; (!R &amp;&amp; S))</text>
<text text-anchor="start" x="439.5" y="-22.8" font-family="arial" font-size="14.00" fill="#ff7f00">c0 &lt;= 5</text>
</g>
<!-- ID_102_ct0_st0&#45;&gt;ID_102_ct0_st012W -->
<g id="edge7" class="edge">
<title>ID_102_ct0_st0&#45;&gt;ID_102_ct0_st012W</title>
<path fill="none" stroke="black" d="M256.26,-93.83C273.2,-78.91 296.68,-61.19 321,-52 339.71,-44.93 360.79,-41.15 380.81,-39.28"/>
<polygon fill="black" stroke="black" points="381.17,-42.77 390.86,-38.49 380.62,-35.79 381.17,-42.77"/>
<text text-anchor="start" x="335" y="-70.8" font-family="arial" font-size="14.00" fill="#377eb8">true</text>
<text text-anchor="start" x="328" y="-55.8" font-family="arial" font-size="14.00">c0 :=0</text>
</g>
<!-- _ID_102_ct0_st012W -->
<!-- _ID_102_ct0_st012W&#45;&gt;ID_102_ct0_st012W -->
<g id="edge3" class="edge">
<title>_ID_102_ct0_st012W&#45;&gt;ID_102_ct0_st012W</title>
<path fill="none" stroke="black" d="M303.27,-24.93C327.8,-27.27 355.32,-29.89 380.44,-32.28"/>
<polygon fill="black" stroke="black" points="380.39,-35.79 390.67,-33.25 381.05,-28.82 380.39,-35.79"/>
</g>
<!-- ID_102_ct0_st012W&#45;&gt;ID_102_ct0_st -->
<g id="edge12" class="edge">
<title>ID_102_ct0_st012W&#45;&gt;ID_102_ct0_st</title>
<path fill="none" stroke="black" d="M534.24,-25.41C592.8,-16.79 676.82,-12.59 743,-42 779.41,-58.18 808.65,-94.12 826.64,-121.14"/>
<polygon fill="black" stroke="black" points="823.72,-123.07 832.08,-129.57 829.6,-119.27 823.72,-123.07"/>
<text text-anchor="start" x="668" y="-45.8" font-family="arial" font-size="14.00" fill="#377eb8">Q&#39;</text>
</g>
<!-- ID_102_ct0_st012W&#45;&gt;ID_102_ct0_st0 -->
<g id="edge13" class="edge">
<title>ID_102_ct0_st012W&#45;&gt;ID_102_ct0_st0</title>
<path fill="none" stroke="black" d="M413.05,-65.01C400.23,-71.07 386.27,-77.18 373,-82 348.51,-90.9 320.92,-98.58 296.59,-104.6"/>
<polygon fill="black" stroke="black" points="295.63,-101.23 286.74,-106.99 297.28,-108.03 295.63,-101.23"/>
<text text-anchor="start" x="321" y="-100.8" font-family="arial" font-size="14.00" fill="#377eb8">(Q&#39; || R&#39;)</text>
</g>
<!-- ID_102_ct0_st012W&#45;&gt;ID_102_ct0_st012W -->
<g id="edge15" class="edge">
<title>ID_102_ct0_st012W&#45;&gt;ID_102_ct0_st012W</title>
<path fill="none" stroke="black" d="M442.33,-65.18C441.43,-74.91 448.16,-83 462.5,-83 471.46,-83 477.45,-79.84 480.46,-75.09"/>
<polygon fill="black" stroke="black" points="483.92,-75.7 482.67,-65.18 477.08,-74.18 483.92,-75.7"/>
<text text-anchor="start" x="443.5" y="-86.8" font-family="arial" font-size="14.00" fill="#377eb8">c0 &lt; 5</text>
</g>
<!-- ID_102_ct0_st02W -->
<g id="node7" class="node">
<title>ID_102_ct0_st02W</title>
<polygon fill="none" stroke="black" points="743,-116 608,-116 608,-66 743,-66 743,-116"/>
<text text-anchor="start" x="616" y="-101.8" font-family="arial" font-weight="bold" font-size="14.00">ID_102_ct0_st02W</text>
<text text-anchor="start" x="620" y="-87.8" font-family="arial" font-size="14.00" fill="#984ea3">(!Q &amp;&amp; (!R &amp;&amp; !S))</text>
<text text-anchor="start" x="652.5" y="-73.8" font-family="arial" font-size="14.00" fill="#ff7f00">c0 &lt;= 5</text>
</g>
<!-- ID_102_ct0_st012W&#45;&gt;ID_102_ct0_st02W -->
<g id="edge14" class="edge">
<title>ID_102_ct0_st012W&#45;&gt;ID_102_ct0_st02W</title>
<path fill="none" stroke="black" d="M534.04,-46.32C552.43,-48.83 572.11,-52.28 590,-57 596.02,-58.59 602.19,-60.49 608.31,-62.58"/>
<polygon fill="black" stroke="black" points="607.29,-65.93 617.88,-65.99 609.64,-59.33 607.29,-65.93"/>
<text text-anchor="start" x="552" y="-60.8" font-family="arial" font-size="14.00" fill="#377eb8">c0 &lt; 5</text>
</g>
<!-- ID_102_ct0_st02W&#45;&gt;ID_102_ct0_st -->
<g id="edge8" class="edge">
<title>ID_102_ct0_st02W&#45;&gt;ID_102_ct0_st</title>
<path fill="none" stroke="black" d="M743.2,-116.11C756.75,-121.21 770.95,-126.56 784.33,-131.6"/>
<polygon fill="black" stroke="black" points="783.32,-134.95 793.91,-135.2 785.79,-128.4 783.32,-134.95"/>
<text text-anchor="start" x="761" y="-129.8" font-family="arial" font-size="14.00" fill="#377eb8">Q&#39;</text>
</g>
<!-- ID_102_ct0_st02W&#45;&gt;ID_102_ct0_st0 -->
<g id="edge9" class="edge">
<title>ID_102_ct0_st02W&#45;&gt;ID_102_ct0_st0</title>
<path fill="none" stroke="black" d="M607.65,-99.96C601.68,-100.68 595.74,-101.37 590,-102 488.18,-113.17 369.34,-117 297.03,-118.32"/>
<polygon fill="black" stroke="black" points="296.65,-114.82 286.71,-118.5 296.77,-121.82 296.65,-114.82"/>
<text text-anchor="start" x="436.5" y="-118.8" font-family="arial" font-size="14.00" fill="#377eb8">(Q&#39; || R&#39;)</text>
</g>
<!-- ID_102_ct0_st02W&#45;&gt;ID_102_ct0_st012W -->
<g id="edge11" class="edge">
<title>ID_102_ct0_st02W&#45;&gt;ID_102_ct0_st012W</title>
<path fill="none" stroke="black" d="M607.78,-86.07C589.51,-83.84 569.83,-80.63 552,-76 544.24,-73.98 536.25,-71.45 528.4,-68.65"/>
<polygon fill="black" stroke="black" points="529.51,-65.33 518.92,-65.14 527.08,-71.9 529.51,-65.33"/>
<text text-anchor="start" x="552" y="-86.8" font-family="arial" font-size="14.00" fill="#377eb8">c0 &lt; 5</text>
</g>
<!-- ID_102_ct0_st02W&#45;&gt;ID_102_ct0_st02W -->
<g id="edge10" class="edge">
<title>ID_102_ct0_st02W&#45;&gt;ID_102_ct0_st02W</title>
<path fill="none" stroke="black" d="M658.32,-116.18C657.55,-125.91 663.28,-134 675.5,-134 683.14,-134 688.24,-130.84 690.8,-126.09"/>
<polygon fill="black" stroke="black" points="694.26,-126.65 692.68,-116.18 687.38,-125.35 694.26,-126.65"/>
<text text-anchor="start" x="656.5" y="-137.8" font-family="arial" font-size="14.00" fill="#377eb8">c0 &lt; 5</text>
</g>
</g>
</svg>
