<?xml version="1.0" encoding="UTF-8" standalone="no"?>
<!DOCTYPE svg PUBLIC "-//W3C//DTD SVG 1.1//EN"
 "http://www.w3.org/Graphics/SVG/1.1/DTD/svg11.dtd">
<!-- Generated by graphviz version 2.40.1 (20161225.0304)
 -->
<!-- Title: G Pages: 1 -->
<svg width="499pt" height="158pt"
 viewBox="0.00 0.00 499.00 158.00" xmlns="http://www.w3.org/2000/svg" xmlns:xlink="http://www.w3.org/1999/xlink">
<g id="graph0" class="graph" transform="scale(1 1) rotate(0) translate(4 154)">
<title>G</title>
<polygon fill="#ffffff" stroke="transparent" points="-4,4 -4,-154 495,-154 495,4 -4,4"/>
<!-- _st0 -->
<!-- st0 -->
<g id="node2" class="node">
<title>st0</title>
<polygon fill="none" stroke="#000000" points="149,-114 95,-114 95,-64 149,-64 149,-114"/>
<text text-anchor="start" x="111" y="-99.8" font-family="arial" font-weight="bold" font-size="14.00" fill="#000000">st0</text>
<text text-anchor="start" x="114" y="-85.8" font-family="arial" font-size="14.00" fill="#984ea3">!Q</text>
<text text-anchor="start" x="109.5" y="-71.8" font-family="arial" font-size="14.00" fill="#ff7f00">true</text>
</g>
<!-- _st0&#45;&gt;st0 -->
<g id="edge1" class="edge">
<title>_st0&#45;&gt;st0</title>
<path fill="none" stroke="#000000" d="M54.2232,-89C63.664,-89 74.4204,-89 84.5398,-89"/>
<polygon fill="#000000" stroke="#000000" points="84.7729,-92.5001 94.7728,-89 84.7728,-85.5001 84.7729,-92.5001"/>
</g>
<!-- st0&#45;&gt;st0 -->
<g id="edge3" class="edge">
<title>st0&#45;&gt;st0</title>
<path fill="none" stroke="#000000" d="M113.0352,-114.1756C112.6367,-123.9095 115.625,-132 122,-132 125.8848,-132 128.5119,-128.9957 129.8814,-124.446"/>
<polygon fill="#000000" stroke="#000000" points="133.3964,-124.4877 130.9648,-114.1756 126.435,-123.7532 133.3964,-124.4877"/>
<text text-anchor="start" x="109.5" y="-135.8" font-family="arial" font-size="14.00" fill="#377eb8">true</text>
</g>
<!-- st01X -->
<g id="node4" class="node">
<title>st01X</title>
<polygon fill="none" stroke="#000000" points="294,-70 229,-70 229,-20 294,-20 294,-70"/>
<text text-anchor="start" x="241.5" y="-55.8" font-family="arial" font-weight="bold" font-size="14.00" fill="#000000">st01X</text>
<text text-anchor="start" x="255.5" y="-41.8" font-family="arial" font-size="14.00" fill="#984ea3">Q</text>
<text text-anchor="start" x="237" y="-27.8" font-family="arial" font-size="14.00" fill="#ff7f00">c0 &lt;= 5</text>
</g>
<!-- st0&#45;&gt;st01X -->
<g id="edge4" class="edge">
<title>st0&#45;&gt;st01X</title>
<path fill="none" stroke="#000000" d="M149.2135,-83.5215C167.0114,-79.6345 190.6486,-73.8935 211,-67 213.7598,-66.0652 216.578,-65.0413 219.4016,-63.9627"/>
<polygon fill="#000000" stroke="#000000" points="220.9671,-67.1059 228.9456,-60.135 218.3614,-60.6089 220.9671,-67.1059"/>
<text text-anchor="start" x="178.5" y="-97.8" font-family="arial" font-size="14.00" fill="#377eb8">true</text>
<text text-anchor="start" x="171" y="-82.8" font-family="arial" font-size="14.00" fill="#000000">c0 :=0</text>
</g>
<!-- _st01X -->
<!-- _st01X&#45;&gt;st01X -->
<g id="edge2" class="edge">
<title>_st01X&#45;&gt;st01X</title>
<path fill="none" stroke="#000000" d="M153.0234,-22.1346C170.1857,-24.6086 191.8536,-28.0392 211,-32 213.6112,-32.5402 216.29,-33.1281 218.9862,-33.7457"/>
<polygon fill="#000000" stroke="#000000" points="218.197,-37.1556 228.737,-36.0794 219.8264,-30.3478 218.197,-37.1556"/>
</g>
<!-- st01X&#45;&gt;st0 -->
<g id="edge5" class="edge">
<title>st01X&#45;&gt;st0</title>
<path fill="none" stroke="#000000" d="M228.6537,-41.0213C211.0117,-40.1217 189.2096,-41.043 171,-48 165.0162,-50.2861 159.2385,-53.6273 153.8785,-57.4311"/>
<polygon fill="#000000" stroke="#000000" points="151.5656,-54.7963 145.8298,-63.7043 155.8688,-60.3174 151.5656,-54.7963"/>
<text text-anchor="start" x="178.5" y="-51.8" font-family="arial" font-size="14.00" fill="#377eb8">true</text>
</g>
<!-- st01X&#45;&gt;st01X -->
<g id="edge6" class="edge">
<title>st01X&#45;&gt;st01X</title>
<path fill="none" stroke="#000000" d="M248.4263,-70.1756C247.8452,-79.9095 252.2031,-88 261.5,-88 267.3105,-88 271.1918,-84.8397 273.1438,-80.093"/>
<polygon fill="#000000" stroke="#000000" points="276.6107,-80.5728 274.5737,-70.1756 269.6824,-79.5738 276.6107,-80.5728"/>
<text text-anchor="start" x="241.5" y="-91.8" font-family="arial" font-size="14.00" fill="#377eb8">c0 &lt; 5</text>
</g>
<!-- st01 -->
<g id="node5" class="node">
<title>st01</title>
<polygon fill="none" stroke="#000000" points="491,-117 379,-117 379,-67 491,-67 491,-117"/>
<text text-anchor="start" x="420" y="-102.8" font-family="arial" font-weight="bold" font-size="14.00" fill="#000000">st01</text>
<text text-anchor="start" x="387" y="-88.8" font-family="arial" font-size="14.00" fill="#984ea3">(Q &amp;&amp; (S || !R))</text>
<text text-anchor="start" x="422.5" y="-74.8" font-family="arial" font-size="14.00" fill="#ff7f00">true</text>
</g>
<!-- st01X&#45;&gt;st01 -->
<g id="edge7" class="edge">
<title>st01X&#45;&gt;st01</title>
<path fill="none" stroke="#000000" d="M294.134,-53.8403C315.2852,-59.57 343.5824,-67.2356 369.2649,-74.1928"/>
<polygon fill="#000000" stroke="#000000" points="368.3923,-77.5825 378.9596,-76.819 370.2227,-70.826 368.3923,-77.5825"/>
<text text-anchor="start" x="312" y="-75.8" font-family="arial" font-size="14.00" fill="#377eb8">c0 &gt;= 5</text>
</g>
<!-- st01&#45;&gt;st0 -->
<g id="edge8" class="edge">
<title>st01&#45;&gt;st0</title>
<path fill="none" stroke="#000000" d="M378.8996,-106.2499C324.9492,-117.6692 241.4339,-129.3227 171,-113 166.8474,-112.0377 162.6407,-110.6721 158.5271,-109.0747"/>
<polygon fill="#000000" stroke="#000000" points="159.7337,-105.7829 149.1673,-105.0077 156.944,-112.203 159.7337,-105.7829"/>
<text text-anchor="start" x="249" y="-124.8" font-family="arial" font-size="14.00" fill="#377eb8">true</text>
</g>
<!-- st01&#45;&gt;st01 -->
<g id="edge9" class="edge">
<title>st01&#45;&gt;st01</title>
<path fill="none" stroke="#000000" d="M416.6968,-117.1756C415.8833,-126.9095 421.9844,-135 435,-135 443.1348,-135 448.5685,-131.8397 451.3013,-127.093"/>
<polygon fill="#000000" stroke="#000000" points="454.7553,-127.6705 453.3032,-117.1756 447.8937,-126.2853 454.7553,-127.6705"/>
<text text-anchor="start" x="422.5" y="-138.8" font-family="arial" font-size="14.00" fill="#377eb8">true</text>
</g>
</g>
</svg>
