<?xml version="1.0" encoding="UTF-8" standalone="no"?>
<!DOCTYPE svg PUBLIC "-//W3C//DTD SVG 1.1//EN"
 "http://www.w3.org/Graphics/SVG/1.1/DTD/svg11.dtd">
<!-- Generated by graphviz version 2.43.0 (0)
 -->
<!-- Title: G Pages: 1 -->
<svg width="485pt" height="158pt"
 viewBox="0.00 0.00 485.00 158.00" xmlns="http://www.w3.org/2000/svg" xmlns:xlink="http://www.w3.org/1999/xlink">
<g id="graph0" class="graph" transform="scale(1 1) rotate(0) translate(4 154)">
<title>G</title>
<polygon fill="white" stroke="transparent" points="-4,4 -4,-154 481,-154 481,4 -4,4"/>
<!-- _st0 -->
<!-- st0 -->
<g id="node2" class="node">
<title>st0</title>
<polygon fill="none" stroke="black" points="147.5,-114 93.5,-114 93.5,-64 147.5,-64 147.5,-114"/>
<text text-anchor="start" x="110.5" y="-99.8" font-family="arial" font-weight="bold" font-size="14.00">st0</text>
<text text-anchor="start" x="112.5" y="-85.8" font-family="arial" font-size="14.00" fill="#984ea3">!Q</text>
<text text-anchor="start" x="108.5" y="-71.8" font-family="arial" font-size="14.00" fill="#ff7f00">true</text>
</g>
<!-- _st0&#45;&gt;st0 -->
<g id="edge1" class="edge">
<title>_st0&#45;&gt;st0</title>
<path fill="none" stroke="black" d="M54.47,-89C63.46,-89 73.67,-89 83.29,-89"/>
<polygon fill="black" stroke="black" points="83.41,-92.5 93.41,-89 83.41,-85.5 83.41,-92.5"/>
</g>
<!-- st0&#45;&gt;st0 -->
<g id="edge3" class="edge">
<title>st0&#45;&gt;st0</title>
<path fill="none" stroke="black" d="M111.54,-114.18C111.14,-123.91 114.12,-132 120.5,-132 124.38,-132 127.01,-129 128.38,-124.45"/>
<polygon fill="black" stroke="black" points="131.9,-124.49 129.46,-114.18 124.94,-123.75 131.9,-124.49"/>
<text text-anchor="start" x="108.5" y="-135.8" font-family="arial" font-size="14.00" fill="#377eb8">true</text>
</g>
<!-- st01X -->
<g id="node4" class="node">
<title>st01X</title>
<polygon fill="none" stroke="black" points="286,-70 224,-70 224,-20 286,-20 286,-70"/>
<text text-anchor="start" x="236.5" y="-55.8" font-family="arial" font-weight="bold" font-size="14.00">st01X</text>
<text text-anchor="start" x="249" y="-41.8" font-family="arial" font-size="14.00" fill="#984ea3">Q</text>
<text text-anchor="start" x="232" y="-27.8" font-family="arial" font-size="14.00" fill="#ff7f00">c0 &lt;= 5</text>
</g>
<!-- st0&#45;&gt;st01X -->
<g id="edge4" class="edge">
<title>st0&#45;&gt;st01X</title>
<path fill="none" stroke="black" d="M147.74,-83.42C164.61,-79.53 186.86,-73.82 206,-67 208.75,-66.02 211.56,-64.94 214.38,-63.81"/>
<polygon fill="black" stroke="black" points="216.02,-66.91 223.86,-59.78 213.29,-60.47 216.02,-66.91"/>
<text text-anchor="start" x="175" y="-97.8" font-family="arial" font-size="14.00" fill="#377eb8">true</text>
<text text-anchor="start" x="168" y="-82.8" font-family="arial" font-size="14.00">c0 :=0</text>
</g>
<!-- _st01X -->
<!-- _st01X&#45;&gt;st01X -->
<g id="edge2" class="edge">
<title>_st01X&#45;&gt;st01X</title>
<path fill="none" stroke="black" d="M150.19,-22.02C166.61,-24.51 187.55,-27.98 206,-32 208.64,-32.57 211.35,-33.2 214.07,-33.86"/>
<polygon fill="black" stroke="black" points="213.35,-37.29 223.9,-36.35 215.07,-30.5 213.35,-37.29"/>
</g>
<!-- st01X&#45;&gt;st0 -->
<g id="edge5" class="edge">
<title>st01X&#45;&gt;st0</title>
<path fill="none" stroke="black" d="M223.93,-41.17C206.93,-40.19 185.63,-40.98 168,-48 162.36,-50.24 156.95,-53.49 151.94,-57.18"/>
<polygon fill="black" stroke="black" points="149.46,-54.69 143.92,-63.73 153.88,-60.12 149.46,-54.69"/>
<text text-anchor="start" x="175" y="-51.8" font-family="arial" font-size="14.00" fill="#377eb8">true</text>
</g>
<!-- st01X&#45;&gt;st01X -->
<g id="edge6" class="edge">
<title>st01X&#45;&gt;st01X</title>
<path fill="none" stroke="black" d="M242.3,-70.18C241.74,-79.91 245.97,-88 255,-88 260.64,-88 264.41,-84.84 266.31,-80.09"/>
<polygon fill="black" stroke="black" points="269.78,-80.56 267.7,-70.18 262.85,-79.59 269.78,-80.56"/>
<text text-anchor="start" x="236" y="-91.8" font-family="arial" font-size="14.00" fill="#377eb8">c0 &lt; 5</text>
</g>
<!-- st01 -->
<g id="node5" class="node">
<title>st01</title>
<polygon fill="none" stroke="black" points="477,-117 368,-117 368,-67 477,-67 477,-117"/>
<text text-anchor="start" x="408.5" y="-102.8" font-family="arial" font-weight="bold" font-size="14.00">st01</text>
<text text-anchor="start" x="376" y="-88.8" font-family="arial" font-size="14.00" fill="#984ea3">(Q &amp;&amp; (S || !R))</text>
<text text-anchor="start" x="410.5" y="-74.8" font-family="arial" font-size="14.00" fill="#ff7f00">true</text>
</g>
<!-- st01X&#45;&gt;st01 -->
<g id="edge7" class="edge">
<title>st01X&#45;&gt;st01</title>
<path fill="none" stroke="black" d="M286.36,-53.62C306.46,-59.33 333.56,-67.03 358.23,-74.03"/>
<polygon fill="black" stroke="black" points="357.32,-77.41 367.9,-76.78 359.23,-70.68 357.32,-77.41"/>
<text text-anchor="start" x="304" y="-75.8" font-family="arial" font-size="14.00" fill="#377eb8">c0 &gt;= 5</text>
</g>
<!-- st01&#45;&gt;st0 -->
<g id="edge8" class="edge">
<title>st01&#45;&gt;st0</title>
<path fill="none" stroke="black" d="M367.81,-106.22C315.97,-117.68 235.59,-129.41 168,-113 164.34,-112.11 160.65,-110.88 157.03,-109.44"/>
<polygon fill="black" stroke="black" points="158.25,-106.16 147.69,-105.25 155.38,-112.54 158.25,-106.16"/>
<text text-anchor="start" x="243" y="-124.8" font-family="arial" font-size="14.00" fill="#377eb8">true</text>
</g>
<!-- st01&#45;&gt;st01 -->
<g id="edge9" class="edge">
<title>st01&#45;&gt;st01</title>
<path fill="none" stroke="black" d="M404.94,-117.18C404.16,-126.91 410.02,-135 422.5,-135 430.3,-135 435.51,-131.84 438.14,-127.09"/>
<polygon fill="black" stroke="black" points="441.59,-127.66 440.06,-117.18 434.72,-126.33 441.59,-127.66"/>
<text text-anchor="start" x="410.5" y="-138.8" font-family="arial" font-size="14.00" fill="#377eb8">true</text>
</g>
</g>
</svg>
