<?xml version="1.0" encoding="UTF-8" standalone="no"?>
<!DOCTYPE svg PUBLIC "-//W3C//DTD SVG 1.1//EN"
 "http://www.w3.org/Graphics/SVG/1.1/DTD/svg11.dtd">
<!-- Generated by graphviz version 2.43.0 (0)
 -->
<!-- Title: G Pages: 1 -->
<svg width="905pt" height="508pt"
 viewBox="0.00 0.00 905.00 508.00" xmlns="http://www.w3.org/2000/svg" xmlns:xlink="http://www.w3.org/1999/xlink">
<g id="graph0" class="graph" transform="scale(1 1) rotate(0) translate(4 504)">
<title>G</title>
<polygon fill="white" stroke="transparent" points="-4,4 -4,-504 901,-504 901,4 -4,4"/>
<!-- _ID_137_ct0_st -->
<!-- ID_137_ct0_st -->
<g id="node2" class="node">
<title>ID_137_ct0_st</title>
<polygon fill="none" stroke="black" points="694.5,-328 587.5,-328 587.5,-278 694.5,-278 694.5,-328"/>
<text text-anchor="start" x="595.5" y="-313.8" font-family="arial" font-weight="bold" font-size="14.00">ID_137_ct0_st</text>
<text text-anchor="start" x="629" y="-299.8" font-family="arial" font-size="14.00" fill="#984ea3">true</text>
<text text-anchor="start" x="629" y="-285.8" font-family="arial" font-size="14.00" fill="#ff7f00">true</text>
</g>
<!-- _ID_137_ct0_st&#45;&gt;ID_137_ct0_st -->
<g id="edge1" class="edge">
<title>_ID_137_ct0_st&#45;&gt;ID_137_ct0_st</title>
<path fill="none" stroke="black" d="M483.61,-304.48C512.23,-304.21 547.42,-303.88 577.16,-303.6"/>
<polygon fill="black" stroke="black" points="577.47,-307.09 587.44,-303.5 577.4,-300.09 577.47,-307.09"/>
</g>
<!-- ID_137_ct0_st&#45;&gt;ID_137_ct0_st -->
<g id="edge5" class="edge">
<title>ID_137_ct0_st&#45;&gt;ID_137_ct0_st</title>
<path fill="none" stroke="black" d="M623.07,-328.18C622.27,-337.91 628.25,-346 641,-346 648.97,-346 654.29,-342.84 656.97,-338.09"/>
<polygon fill="black" stroke="black" points="660.42,-338.66 658.93,-328.18 653.56,-337.31 660.42,-338.66"/>
<text text-anchor="start" x="629" y="-349.8" font-family="arial" font-size="14.00" fill="#377eb8">true</text>
</g>
<!-- _ID_137_ct0_st0 -->
<!-- ID_137_ct0_st0 -->
<g id="node4" class="node">
<title>ID_137_ct0_st0</title>
<polygon fill="none" stroke="black" points="276,-268 162,-268 162,-218 276,-218 276,-268"/>
<text text-anchor="start" x="170" y="-253.8" font-family="arial" font-weight="bold" font-size="14.00">ID_137_ct0_st0</text>
<text text-anchor="start" x="188.5" y="-239.8" font-family="arial" font-size="14.00" fill="#984ea3">(!P &amp;&amp; !R)</text>
<text text-anchor="start" x="207" y="-225.8" font-family="arial" font-size="14.00" fill="#ff7f00">true</text>
</g>
<!-- _ID_137_ct0_st0&#45;&gt;ID_137_ct0_st0 -->
<g id="edge2" class="edge">
<title>_ID_137_ct0_st0&#45;&gt;ID_137_ct0_st0</title>
<path fill="none" stroke="black" d="M119.15,-243C129.75,-243 140.88,-243 151.68,-243"/>
<polygon fill="black" stroke="black" points="151.92,-246.5 161.92,-243 151.92,-239.5 151.92,-246.5"/>
</g>
<!-- ID_137_ct0_st0&#45;&gt;ID_137_ct0_st -->
<g id="edge6" class="edge">
<title>ID_137_ct0_st0&#45;&gt;ID_137_ct0_st</title>
<path fill="none" stroke="black" d="M276,-244.15C330.67,-245.99 416.03,-250.73 489,-263 518.54,-267.97 550.69,-276.09 577.71,-283.73"/>
<polygon fill="black" stroke="black" points="576.84,-287.12 587.41,-286.51 578.77,-280.39 576.84,-287.12"/>
<text text-anchor="start" x="421.5" y="-266.8" font-family="arial" font-size="14.00" fill="#377eb8">P&#39;</text>
</g>
<!-- ID_137_ct0_st0&#45;&gt;ID_137_ct0_st0 -->
<g id="edge7" class="edge">
<title>ID_137_ct0_st0&#45;&gt;ID_137_ct0_st0</title>
<path fill="none" stroke="black" d="M204.06,-268.18C203.39,-277.91 208.38,-286 219,-286 225.64,-286 230.08,-282.84 232.31,-278.09"/>
<polygon fill="black" stroke="black" points="235.77,-278.61 233.94,-268.18 228.86,-277.47 235.77,-278.61"/>
<text text-anchor="start" x="207" y="-289.8" font-family="arial" font-size="14.00" fill="#377eb8">true</text>
</g>
<!-- ID_137_ct0_st01 -->
<g id="node6" class="node">
<title>ID_137_ct0_st01</title>
<polygon fill="none" stroke="black" points="489,-174 367,-174 367,-124 489,-124 489,-174"/>
<text text-anchor="start" x="375" y="-159.8" font-family="arial" font-weight="bold" font-size="14.00">ID_137_ct0_st01</text>
<text text-anchor="start" x="377.5" y="-145.8" font-family="arial" font-size="14.00" fill="#984ea3">(!P &amp;&amp; (R &amp;&amp; S))</text>
<text text-anchor="start" x="416" y="-131.8" font-family="arial" font-size="14.00" fill="#ff7f00">true</text>
</g>
<!-- ID_137_ct0_st0&#45;&gt;ID_137_ct0_st01 -->
<g id="edge8" class="edge">
<title>ID_137_ct0_st0&#45;&gt;ID_137_ct0_st01</title>
<path fill="none" stroke="black" d="M246.61,-217.85C261.34,-205.14 280.57,-190.46 300,-181 317.67,-172.4 337.89,-165.96 356.91,-161.2"/>
<polygon fill="black" stroke="black" points="357.82,-164.58 366.74,-158.86 356.2,-157.77 357.82,-164.58"/>
<text text-anchor="start" x="312.5" y="-184.8" font-family="arial" font-size="14.00" fill="#377eb8">true</text>
</g>
<!-- ID_137_ct0_st012 -->
<g id="node8" class="node">
<title>ID_137_ct0_st012</title>
<polygon fill="none" stroke="black" points="897,-216 768,-216 768,-166 897,-166 897,-216"/>
<text text-anchor="start" x="776" y="-201.8" font-family="arial" font-weight="bold" font-size="14.00">ID_137_ct0_st012</text>
<text text-anchor="start" x="780" y="-187.8" font-family="arial" font-size="14.00" fill="#984ea3">(!P &amp;&amp; (R &amp;&amp; !S))</text>
<text text-anchor="start" x="820.5" y="-173.8" font-family="arial" font-size="14.00" fill="#ff7f00">true</text>
</g>
<!-- ID_137_ct0_st0&#45;&gt;ID_137_ct0_st012 -->
<g id="edge9" class="edge">
<title>ID_137_ct0_st0&#45;&gt;ID_137_ct0_st012</title>
<path fill="none" stroke="black" d="M224.24,-268.18C231.96,-305.19 252.19,-373.13 300,-403 469.62,-508.97 585.73,-517.09 750,-403 807.93,-362.76 824.7,-275.25 829.54,-226.18"/>
<polygon fill="black" stroke="black" points="833.04,-226.29 830.42,-216.03 826.07,-225.69 833.04,-226.29"/>
<text text-anchor="start" x="519.5" y="-488.8" font-family="arial" font-size="14.00" fill="#377eb8">true</text>
</g>
<!-- _ID_137_ct0_st01 -->
<!-- _ID_137_ct0_st01&#45;&gt;ID_137_ct0_st01 -->
<g id="edge3" class="edge">
<title>_ID_137_ct0_st01&#45;&gt;ID_137_ct0_st01</title>
<path fill="none" stroke="black" d="M248.78,-36.21C282.42,-57.5 338.6,-93.06 378.9,-118.56"/>
<polygon fill="black" stroke="black" points="377.17,-121.61 387.49,-124 380.92,-115.69 377.17,-121.61"/>
</g>
<!-- ID_137_ct0_st01&#45;&gt;ID_137_ct0_st -->
<g id="edge10" class="edge">
<title>ID_137_ct0_st01&#45;&gt;ID_137_ct0_st</title>
<path fill="none" stroke="black" d="M463.58,-174.22C476.86,-183.44 492.35,-193.65 507,-202 527.9,-213.91 539.42,-207.56 556,-225 570.56,-240.31 559.73,-253.42 574,-269 575.71,-270.87 577.56,-272.66 579.49,-274.36"/>
<polygon fill="black" stroke="black" points="577.35,-277.12 587.39,-280.5 581.64,-271.59 577.35,-277.12"/>
<text text-anchor="start" x="525" y="-228.8" font-family="arial" font-size="14.00" fill="#377eb8">P&#39;</text>
</g>
<!-- ID_137_ct0_st01&#45;&gt;ID_137_ct0_st0 -->
<g id="edge11" class="edge">
<title>ID_137_ct0_st01&#45;&gt;ID_137_ct0_st0</title>
<path fill="none" stroke="black" d="M388.54,-174.19C376.19,-181.72 362.27,-189.66 349,-196 328.95,-205.58 306.39,-214.42 285.82,-221.78"/>
<polygon fill="black" stroke="black" points="284.47,-218.54 276.21,-225.17 286.8,-225.15 284.47,-218.54"/>
<text text-anchor="start" x="300" y="-219.8" font-family="arial" font-size="14.00" fill="#377eb8">(P&#39; || S&#39;)</text>
</g>
<!-- ID_137_ct0_st01&#45;&gt;ID_137_ct0_st01 -->
<g id="edge13" class="edge">
<title>ID_137_ct0_st01&#45;&gt;ID_137_ct0_st01</title>
<path fill="none" stroke="black" d="M408.95,-174.18C408.1,-183.91 414.45,-192 428,-192 436.47,-192 442.12,-188.84 444.97,-184.09"/>
<polygon fill="black" stroke="black" points="448.42,-184.68 447.05,-174.18 441.57,-183.24 448.42,-184.68"/>
<text text-anchor="start" x="416" y="-195.8" font-family="arial" font-size="14.00" fill="#377eb8">true</text>
</g>
<!-- ID_137_ct0_st01&#45;&gt;ID_137_ct0_st012 -->
<g id="edge14" class="edge">
<title>ID_137_ct0_st01&#45;&gt;ID_137_ct0_st012</title>
<path fill="none" stroke="black" d="M489.03,-156.01C495.1,-156.69 501.17,-157.37 507,-158 592.9,-167.32 691.69,-177.26 757.48,-183.76"/>
<polygon fill="black" stroke="black" points="757.45,-187.27 767.75,-184.77 758.14,-180.31 757.45,-187.27"/>
<text text-anchor="start" x="629" y="-182.8" font-family="arial" font-size="14.00" fill="#377eb8">true</text>
</g>
<!-- ID_137_ct0_st02 -->
<g id="node9" class="node">
<title>ID_137_ct0_st02</title>
<polygon fill="none" stroke="black" points="703.5,-71 578.5,-71 578.5,-21 703.5,-21 703.5,-71"/>
<text text-anchor="start" x="588" y="-56.8" font-family="arial" font-weight="bold" font-size="14.00">ID_137_ct0_st02</text>
<text text-anchor="start" x="586.5" y="-42.8" font-family="arial" font-size="14.00" fill="#984ea3">(!P &amp;&amp; (!R &amp;&amp; !S))</text>
<text text-anchor="start" x="629" y="-28.8" font-family="arial" font-size="14.00" fill="#ff7f00">true</text>
</g>
<!-- ID_137_ct0_st01&#45;&gt;ID_137_ct0_st02 -->
<g id="edge12" class="edge">
<title>ID_137_ct0_st01&#45;&gt;ID_137_ct0_st02</title>
<path fill="none" stroke="black" d="M486.11,-123.89C513.34,-111.82 542.8,-98.56 556,-92 566.13,-86.96 576.82,-81.35 587.04,-75.83"/>
<polygon fill="black" stroke="black" points="588.77,-78.87 595.88,-71.01 585.42,-72.72 588.77,-78.87"/>
<text text-anchor="start" x="519.5" y="-117.8" font-family="arial" font-size="14.00" fill="#377eb8">true</text>
</g>
<!-- _ID_137_ct0_st012 -->
<!-- _ID_137_ct0_st012&#45;&gt;ID_137_ct0_st012 -->
<g id="edge4" class="edge">
<title>_ID_137_ct0_st012&#45;&gt;ID_137_ct0_st012</title>
<path fill="none" stroke="black" d="M708.01,-224.23C724.11,-219.9 741.43,-215.24 757.86,-210.82"/>
<polygon fill="black" stroke="black" points="759.21,-214.08 767.96,-208.1 757.39,-207.32 759.21,-214.08"/>
</g>
<!-- ID_137_ct0_st012&#45;&gt;ID_137_ct0_st0 -->
<g id="edge19" class="edge">
<title>ID_137_ct0_st012&#45;&gt;ID_137_ct0_st0</title>
<path fill="none" stroke="black" d="M822.92,-216.18C807.4,-257.23 770.34,-337.27 708,-370 556.1,-449.75 350.78,-332.97 262.85,-273.83"/>
<polygon fill="black" stroke="black" points="264.7,-270.85 254.47,-268.12 260.76,-276.64 264.7,-270.85"/>
<text text-anchor="start" x="507" y="-397.8" font-family="arial" font-size="14.00" fill="#377eb8">(P&#39; || S&#39;)</text>
</g>
<!-- ID_137_ct0_st012&#45;&gt;ID_137_ct0_st01 -->
<g id="edge21" class="edge">
<title>ID_137_ct0_st012&#45;&gt;ID_137_ct0_st01</title>
<path fill="none" stroke="black" d="M774.18,-165.98C753.7,-158.29 730.2,-150.84 708,-147 637.79,-134.87 556.15,-137.34 499.4,-141.63"/>
<polygon fill="black" stroke="black" points="498.79,-138.17 489.1,-142.46 499.34,-145.15 498.79,-138.17"/>
<text text-anchor="start" x="629" y="-150.8" font-family="arial" font-size="14.00" fill="#377eb8">true</text>
</g>
<!-- ID_137_ct0_st012&#45;&gt;ID_137_ct0_st012 -->
<g id="edge22" class="edge">
<title>ID_137_ct0_st012&#45;&gt;ID_137_ct0_st012</title>
<path fill="none" stroke="black" d="M814.94,-216.18C814.16,-225.91 820.02,-234 832.5,-234 840.3,-234 845.51,-230.84 848.14,-226.09"/>
<polygon fill="black" stroke="black" points="851.59,-226.66 850.06,-216.18 844.72,-225.33 851.59,-226.66"/>
<text text-anchor="start" x="820.5" y="-237.8" font-family="arial" font-size="14.00" fill="#377eb8">true</text>
</g>
<!-- ID_137_ct0_st012&#45;&gt;ID_137_ct0_st02 -->
<g id="edge20" class="edge">
<title>ID_137_ct0_st012&#45;&gt;ID_137_ct0_st02</title>
<path fill="none" stroke="black" d="M808.96,-165.99C793.31,-149.37 771.48,-127.63 750,-111 733.87,-98.51 715.16,-86.49 697.89,-76.26"/>
<polygon fill="black" stroke="black" points="699.41,-73.1 689.01,-71.08 695.89,-79.14 699.41,-73.1"/>
<text text-anchor="start" x="726" y="-114.8" font-family="arial" font-size="14.00" fill="#377eb8">true</text>
</g>
<!-- ID_137_ct0_st02&#45;&gt;ID_137_ct0_st0 -->
<g id="edge15" class="edge">
<title>ID_137_ct0_st02&#45;&gt;ID_137_ct0_st0</title>
<path fill="none" stroke="black" d="M578.45,-47.26C520.48,-50.87 432.94,-62.75 367,-100 317.27,-128.09 272.15,-177.12 245.38,-209.82"/>
<polygon fill="black" stroke="black" points="242.53,-207.78 238.98,-217.76 247.98,-212.17 242.53,-207.78"/>
<text text-anchor="start" x="403.5" y="-103.8" font-family="arial" font-size="14.00" fill="#377eb8">(P&#39; || S&#39;)</text>
</g>
<!-- ID_137_ct0_st02&#45;&gt;ID_137_ct0_st01 -->
<g id="edge17" class="edge">
<title>ID_137_ct0_st02&#45;&gt;ID_137_ct0_st01</title>
<path fill="none" stroke="black" d="M578.26,-51.08C554.92,-54.88 528.77,-61.49 507,-73 487.07,-83.54 468.79,-100.74 454.94,-116.12"/>
<polygon fill="black" stroke="black" points="452.05,-114.11 448.12,-123.95 457.33,-118.71 452.05,-114.11"/>
<text text-anchor="start" x="519.5" y="-76.8" font-family="arial" font-size="14.00" fill="#377eb8">true</text>
</g>
<!-- ID_137_ct0_st02&#45;&gt;ID_137_ct0_st012 -->
<g id="edge18" class="edge">
<title>ID_137_ct0_st02&#45;&gt;ID_137_ct0_st012</title>
<path fill="none" stroke="black" d="M703.57,-49.38C719.69,-52.48 736.36,-57.85 750,-67 782.39,-88.72 804.97,-128.11 818.02,-156.68"/>
<polygon fill="black" stroke="black" points="814.85,-158.17 822.08,-165.92 821.26,-155.35 814.85,-158.17"/>
<text text-anchor="start" x="726" y="-70.8" font-family="arial" font-size="14.00" fill="#377eb8">true</text>
</g>
<!-- ID_137_ct0_st02&#45;&gt;ID_137_ct0_st02 -->
<g id="edge16" class="edge">
<title>ID_137_ct0_st02&#45;&gt;ID_137_ct0_st02</title>
<path fill="none" stroke="black" d="M623.07,-71.18C622.27,-80.91 628.25,-89 641,-89 648.97,-89 654.29,-85.84 656.97,-81.09"/>
<polygon fill="black" stroke="black" points="660.42,-81.66 658.93,-71.18 653.56,-80.31 660.42,-81.66"/>
<text text-anchor="start" x="629" y="-92.8" font-family="arial" font-size="14.00" fill="#377eb8">true</text>
</g>
</g>
</svg>
