<?xml version="1.0" encoding="UTF-8" standalone="no"?>
<!DOCTYPE svg PUBLIC "-//W3C//DTD SVG 1.1//EN"
 "http://www.w3.org/Graphics/SVG/1.1/DTD/svg11.dtd">
<!-- Generated by graphviz version 2.43.0 (0)
 -->
<!-- Title: G Pages: 1 -->
<svg width="653pt" height="161pt"
 viewBox="0.00 0.00 653.00 161.00" xmlns="http://www.w3.org/2000/svg" xmlns:xlink="http://www.w3.org/1999/xlink">
<g id="graph0" class="graph" transform="scale(1 1) rotate(0) translate(4 157)">
<title>G</title>
<polygon fill="white" stroke="transparent" points="-4,4 -4,-157 649,-157 649,4 -4,4"/>
<!-- _ID_9_ct0_st0 -->
<!-- ID_9_ct0_st0 -->
<g id="node2" class="node">
<title>ID_9_ct0_st0</title>
<polygon fill="none" stroke="black" points="246,-120 147,-120 147,-70 246,-70 246,-120"/>
<text text-anchor="start" x="155" y="-105.8" font-family="arial" font-weight="bold" font-size="14.00">ID_9_ct0_st0</text>
<text text-anchor="start" x="191.5" y="-91.8" font-family="arial" font-size="14.00" fill="#984ea3">R</text>
<text text-anchor="start" x="184.5" y="-77.8" font-family="arial" font-size="14.00" fill="#ff7f00">true</text>
</g>
<!-- _ID_9_ct0_st0&#45;&gt;ID_9_ct0_st0 -->
<g id="edge1" class="edge">
<title>_ID_9_ct0_st0&#45;&gt;ID_9_ct0_st0</title>
<path fill="none" stroke="black" d="M104.04,-95C114.57,-95 125.75,-95 136.53,-95"/>
<polygon fill="black" stroke="black" points="136.72,-98.5 146.72,-95 136.72,-91.5 136.72,-98.5"/>
</g>
<!-- ID_9_ct0_st0&#45;&gt;ID_9_ct0_st0 -->
<g id="edge3" class="edge">
<title>ID_9_ct0_st0&#45;&gt;ID_9_ct0_st0</title>
<path fill="none" stroke="black" d="M182.68,-120.18C182.06,-129.91 186.67,-138 196.5,-138 202.64,-138 206.75,-134.84 208.81,-130.09"/>
<polygon fill="black" stroke="black" points="212.27,-130.59 210.32,-120.18 205.35,-129.53 212.27,-130.59"/>
<text text-anchor="start" x="184.5" y="-141.8" font-family="arial" font-size="14.00" fill="#377eb8">true</text>
</g>
<!-- ID_9_ct0_st01 -->
<g id="node4" class="node">
<title>ID_9_ct0_st01</title>
<polygon fill="none" stroke="black" points="419,-50 312,-50 312,0 419,0 419,-50"/>
<text text-anchor="start" x="320" y="-35.8" font-family="arial" font-weight="bold" font-size="14.00">ID_9_ct0_st01</text>
<text text-anchor="start" x="358.5" y="-21.8" font-family="arial" font-size="14.00" fill="#984ea3">!R</text>
<text text-anchor="start" x="353.5" y="-7.8" font-family="arial" font-size="14.00" fill="#ff7f00">true</text>
</g>
<!-- ID_9_ct0_st0&#45;&gt;ID_9_ct0_st01 -->
<g id="edge4" class="edge">
<title>ID_9_ct0_st0&#45;&gt;ID_9_ct0_st01</title>
<path fill="none" stroke="black" d="M246.25,-74.56C263.88,-67.18 284.02,-58.74 302.62,-50.94"/>
<polygon fill="black" stroke="black" points="304.03,-54.14 311.89,-47.05 301.32,-47.69 304.03,-54.14"/>
<text text-anchor="start" x="270" y="-68.8" font-family="arial" font-size="14.00" fill="#377eb8">true</text>
</g>
<!-- _ID_9_ct0_st01 -->
<!-- _ID_9_ct0_st01&#45;&gt;ID_9_ct0_st01 -->
<g id="edge2" class="edge">
<title>_ID_9_ct0_st01&#45;&gt;ID_9_ct0_st01</title>
<path fill="none" stroke="black" d="M252.18,-25C268.09,-25 285.6,-25 301.96,-25"/>
<polygon fill="black" stroke="black" points="301.97,-28.5 311.97,-25 301.97,-21.5 301.97,-28.5"/>
</g>
<!-- ID_9_ct0_st01&#45;&gt;ID_9_ct0_st01 -->
<g id="edge6" class="edge">
<title>ID_9_ct0_st01&#45;&gt;ID_9_ct0_st01</title>
<path fill="none" stroke="black" d="M350.19,-50.18C349.5,-59.91 354.61,-68 365.5,-68 372.31,-68 376.85,-64.84 379.14,-60.09"/>
<polygon fill="black" stroke="black" points="382.6,-60.62 380.81,-50.18 375.7,-59.45 382.6,-60.62"/>
<text text-anchor="start" x="353.5" y="-71.8" font-family="arial" font-size="14.00" fill="#377eb8">true</text>
</g>
<!-- ID_9_ct0_st02 -->
<g id="node5" class="node">
<title>ID_9_ct0_st02</title>
<polygon fill="none" stroke="black" points="645,-88 538,-88 538,-38 645,-38 645,-88"/>
<text text-anchor="start" x="546" y="-73.8" font-family="arial" font-weight="bold" font-size="14.00">ID_9_ct0_st02</text>
<text text-anchor="start" x="586.5" y="-59.8" font-family="arial" font-size="14.00" fill="#984ea3">R</text>
<text text-anchor="start" x="568.5" y="-45.8" font-family="arial" font-size="14.00" fill="#ff7f00">c0 &lt;= 5</text>
</g>
<!-- ID_9_ct0_st01&#45;&gt;ID_9_ct0_st02 -->
<g id="edge5" class="edge">
<title>ID_9_ct0_st01&#45;&gt;ID_9_ct0_st02</title>
<path fill="none" stroke="black" d="M419.14,-37.44C425.15,-38.71 431.2,-39.93 437,-41 466.71,-46.49 499.87,-51.4 527.74,-55.17"/>
<polygon fill="black" stroke="black" points="527.38,-58.65 537.76,-56.51 528.31,-51.72 527.38,-58.65"/>
<text text-anchor="start" x="466.5" y="-72.8" font-family="arial" font-size="14.00" fill="#377eb8">true</text>
<text text-anchor="start" x="459.5" y="-57.8" font-family="arial" font-size="14.00">c0 :=0</text>
</g>
<!-- ID_9_ct0_st02&#45;&gt;ID_9_ct0_st0 -->
<g id="edge7" class="edge">
<title>ID_9_ct0_st02&#45;&gt;ID_9_ct0_st0</title>
<path fill="none" stroke="black" d="M537.85,-83.59C531.9,-85.34 525.87,-86.87 520,-88 429.17,-105.49 321.3,-103.32 256.19,-99.59"/>
<polygon fill="black" stroke="black" points="256.31,-96.09 246.12,-98.98 255.89,-103.07 256.31,-96.09"/>
<text text-anchor="start" x="342.5" y="-105.8" font-family="arial" font-size="14.00" fill="#377eb8">c0 &gt;= 5</text>
</g>
<!-- ID_9_ct0_st02&#45;&gt;ID_9_ct0_st01 -->
<g id="edge9" class="edge">
<title>ID_9_ct0_st02&#45;&gt;ID_9_ct0_st01</title>
<path fill="none" stroke="black" d="M555.53,-37.82C544.67,-31.37 532.3,-25.32 520,-22 490.89,-14.15 457.54,-13.82 429.38,-15.9"/>
<polygon fill="black" stroke="black" points="428.92,-12.43 419.25,-16.77 429.51,-19.4 428.92,-12.43"/>
<text text-anchor="start" x="437" y="-25.8" font-family="arial" font-size="14.00" fill="#377eb8">(R&#39; || c0 &gt;= 5)</text>
</g>
<!-- ID_9_ct0_st02&#45;&gt;ID_9_ct0_st02 -->
<g id="edge8" class="edge">
<title>ID_9_ct0_st02&#45;&gt;ID_9_ct0_st02</title>
<path fill="none" stroke="black" d="M570.58,-88.18C569.65,-97.91 576.62,-106 591.5,-106 600.8,-106 607.01,-102.84 610.13,-98.09"/>
<polygon fill="black" stroke="black" points="613.58,-98.71 612.42,-88.18 606.76,-97.13 613.58,-98.71"/>
<text text-anchor="start" x="572.5" y="-109.8" font-family="arial" font-size="14.00" fill="#377eb8">c0 &lt; 5</text>
</g>
</g>
</svg>
