<?xml version="1.0" encoding="UTF-8" standalone="no"?>
<!DOCTYPE svg PUBLIC "-//W3C//DTD SVG 1.1//EN"
 "http://www.w3.org/Graphics/SVG/1.1/DTD/svg11.dtd">
<!-- Generated by graphviz version 2.43.0 (0)
 -->
<!-- Title: G Pages: 1 -->
<svg width="481pt" height="150pt"
 viewBox="0.00 0.00 481.00 150.00" xmlns="http://www.w3.org/2000/svg" xmlns:xlink="http://www.w3.org/1999/xlink">
<g id="graph0" class="graph" transform="scale(1 1) rotate(0) translate(4 146)">
<title>G</title>
<polygon fill="white" stroke="transparent" points="-4,4 -4,-146 477,-146 477,4 -4,4"/>
<!-- _ID_74_ct0_st0 -->
<!-- ID_74_ct0_st0 -->
<g id="node2" class="node">
<title>ID_74_ct0_st0</title>
<polygon fill="none" stroke="black" points="265.5,-109 158.5,-109 158.5,-59 265.5,-59 265.5,-109"/>
<text text-anchor="start" x="166.5" y="-94.8" font-family="arial" font-weight="bold" font-size="14.00">ID_74_ct0_st0</text>
<text text-anchor="start" x="205" y="-80.8" font-family="arial" font-size="14.00" fill="#984ea3">!R</text>
<text text-anchor="start" x="200" y="-66.8" font-family="arial" font-size="14.00" fill="#ff7f00">true</text>
</g>
<!-- _ID_74_ct0_st0&#45;&gt;ID_74_ct0_st0 -->
<g id="edge1" class="edge">
<title>_ID_74_ct0_st0&#45;&gt;ID_74_ct0_st0</title>
<path fill="none" stroke="black" d="M111.41,-84C123.33,-84 136.04,-84 148.24,-84"/>
<polygon fill="black" stroke="black" points="148.34,-87.5 158.34,-84 148.34,-80.5 148.34,-87.5"/>
</g>
<!-- ID_74_ct0_st0&#45;&gt;ID_74_ct0_st0 -->
<g id="edge3" class="edge">
<title>ID_74_ct0_st0&#45;&gt;ID_74_ct0_st0</title>
<path fill="none" stroke="black" d="M196.69,-109.18C196,-118.91 201.11,-127 212,-127 218.81,-127 223.35,-123.84 225.64,-119.09"/>
<polygon fill="black" stroke="black" points="229.1,-119.62 227.31,-109.18 222.2,-118.45 229.1,-119.62"/>
<text text-anchor="start" x="200" y="-130.8" font-family="arial" font-size="14.00" fill="#377eb8">true</text>
</g>
<!-- ID_74_ct0_st01X -->
<g id="node4" class="node">
<title>ID_74_ct0_st01X</title>
<polygon fill="none" stroke="black" points="473,-76 350,-76 350,-26 473,-26 473,-76"/>
<text text-anchor="start" x="358" y="-61.8" font-family="arial" font-weight="bold" font-size="14.00">ID_74_ct0_st01X</text>
<text text-anchor="start" x="406.5" y="-47.8" font-family="arial" font-size="14.00" fill="#984ea3">R</text>
<text text-anchor="start" x="392.5" y="-33.8" font-family="arial" font-size="14.00" fill="#ff7f00">c0 &lt; 5</text>
</g>
<!-- ID_74_ct0_st0&#45;&gt;ID_74_ct0_st01X -->
<g id="edge4" class="edge">
<title>ID_74_ct0_st0&#45;&gt;ID_74_ct0_st01X</title>
<path fill="none" stroke="black" d="M265.53,-77.18C286.28,-74.3 310.31,-70.76 332,-67 334.52,-66.56 337.08,-66.11 339.66,-65.64"/>
<polygon fill="black" stroke="black" points="340.53,-69.04 349.71,-63.76 339.24,-62.16 340.53,-69.04"/>
<text text-anchor="start" x="301" y="-91.8" font-family="arial" font-size="14.00" fill="#377eb8">true</text>
<text text-anchor="start" x="294" y="-76.8" font-family="arial" font-size="14.00">c0 :=0</text>
</g>
<!-- _ID_74_ct0_st01X -->
<!-- _ID_74_ct0_st01X&#45;&gt;ID_74_ct0_st01X -->
<g id="edge2" class="edge">
<title>_ID_74_ct0_st01X&#45;&gt;ID_74_ct0_st01X</title>
<path fill="none" stroke="black" d="M276.2,-24C294.29,-26.11 313.98,-28.77 332,-32 334.63,-32.47 337.3,-32.98 339.99,-33.51"/>
<polygon fill="black" stroke="black" points="339.3,-36.94 349.8,-35.54 340.72,-30.09 339.3,-36.94"/>
</g>
<!-- ID_74_ct0_st01X&#45;&gt;ID_74_ct0_st0 -->
<g id="edge5" class="edge">
<title>ID_74_ct0_st01X&#45;&gt;ID_74_ct0_st0</title>
<path fill="none" stroke="black" d="M349.84,-44.09C331.72,-43.46 311.91,-44.2 294,-48 286.08,-49.68 278,-52.19 270.15,-55.12"/>
<polygon fill="black" stroke="black" points="268.72,-51.92 260.72,-58.87 271.3,-58.43 268.72,-51.92"/>
<text text-anchor="start" x="301" y="-51.8" font-family="arial" font-size="14.00" fill="#377eb8">true</text>
</g>
<!-- ID_74_ct0_st01X&#45;&gt;ID_74_ct0_st01X -->
<g id="edge6" class="edge">
<title>ID_74_ct0_st01X&#45;&gt;ID_74_ct0_st01X</title>
<path fill="none" stroke="black" d="M393.2,-76.18C392.38,-85.91 398.48,-94 411.5,-94 419.63,-94 425.07,-90.84 427.8,-86.09"/>
<polygon fill="black" stroke="black" points="431.26,-86.67 429.8,-76.18 424.39,-85.29 431.26,-86.67"/>
<text text-anchor="start" x="399.5" y="-97.8" font-family="arial" font-size="14.00" fill="#377eb8">true</text>
</g>
</g>
</svg>
