<?xml version="1.0" encoding="UTF-8" standalone="no"?>
<!DOCTYPE svg PUBLIC "-//W3C//DTD SVG 1.1//EN"
 "http://www.w3.org/Graphics/SVG/1.1/DTD/svg11.dtd">
<!-- Generated by graphviz version 2.43.0 (0)
 -->
<!-- Title: G Pages: 1 -->
<svg width="2912pt" height="787pt"
 viewBox="0.00 0.00 2912.00 787.00" xmlns="http://www.w3.org/2000/svg" xmlns:xlink="http://www.w3.org/1999/xlink">
<g id="graph0" class="graph" transform="scale(1 1) rotate(0) translate(4 783)">
<title>G</title>
<polygon fill="white" stroke="transparent" points="-4,4 -4,-783 2908,-783 2908,4 -4,4"/>
<!-- _ID_13_ct0_st0 -->
<!-- ID_13_ct0_st0 -->
<g id="node2" class="node">
<title>ID_13_ct0_st0</title>
<polygon fill="none" stroke="black" points="275,-400 168,-400 168,-350 275,-350 275,-400"/>
<text text-anchor="start" x="176" y="-385.8" font-family="arial" font-weight="bold" font-size="14.00">ID_13_ct0_st0</text>
<text text-anchor="start" x="197" y="-371.8" font-family="arial" font-size="14.00" fill="#984ea3">(Q || !P)</text>
<text text-anchor="start" x="209.5" y="-357.8" font-family="arial" font-size="14.00" fill="#ff7f00">true</text>
</g>
<!-- _ID_13_ct0_st0&#45;&gt;ID_13_ct0_st0 -->
<g id="edge1" class="edge">
<title>_ID_13_ct0_st0&#45;&gt;ID_13_ct0_st0</title>
<path fill="none" stroke="black" d="M111.11,-375C125.95,-375 142.14,-375 157.41,-375"/>
<polygon fill="black" stroke="black" points="157.8,-378.5 167.8,-375 157.8,-371.5 157.8,-378.5"/>
</g>
<!-- ID_13_ct0_st0&#45;&gt;ID_13_ct0_st0 -->
<g id="edge4" class="edge">
<title>ID_13_ct0_st0&#45;&gt;ID_13_ct0_st0</title>
<path fill="none" stroke="black" d="M204.32,-400.18C203.55,-409.91 209.28,-418 221.5,-418 229.14,-418 234.24,-414.84 236.8,-410.09"/>
<polygon fill="black" stroke="black" points="240.26,-410.65 238.68,-400.18 233.38,-409.35 240.26,-410.65"/>
<text text-anchor="start" x="209.5" y="-421.8" font-family="arial" font-size="14.00" fill="#377eb8">true</text>
</g>
<!-- ID_13_ct0_st012 -->
<g id="node4" class="node">
<title>ID_13_ct0_st012</title>
<polygon fill="none" stroke="black" points="904,-459 781,-459 781,-409 904,-409 904,-459"/>
<text text-anchor="start" x="789.5" y="-444.8" font-family="arial" font-weight="bold" font-size="14.00">ID_13_ct0_st012</text>
<text text-anchor="start" x="789" y="-430.8" font-family="arial" font-size="14.00" fill="#984ea3">(P &amp;&amp; (!Q &amp;&amp; !R))</text>
<text text-anchor="start" x="830.5" y="-416.8" font-family="arial" font-size="14.00" fill="#ff7f00">true</text>
</g>
<!-- ID_13_ct0_st0&#45;&gt;ID_13_ct0_st012 -->
<g id="edge5" class="edge">
<title>ID_13_ct0_st0&#45;&gt;ID_13_ct0_st012</title>
<path fill="none" stroke="black" d="M273.24,-349.96C285.96,-344.58 299.76,-339.47 313,-336 488.41,-290.04 543.79,-297.53 721,-336 739.97,-340.12 746.5,-337.78 763,-348 784.76,-361.48 804.19,-382.66 818.29,-400.63"/>
<polygon fill="black" stroke="black" points="815.53,-402.79 824.37,-408.62 821.1,-398.54 815.53,-402.79"/>
<text text-anchor="start" x="537" y="-310.8" font-family="arial" font-size="14.00" fill="#377eb8">true</text>
</g>
<!-- ID_13_ct0_st0123W -->
<g id="node6" class="node">
<title>ID_13_ct0_st0123W</title>
<polygon fill="none" stroke="black" points="512,-617 369,-617 369,-567 512,-567 512,-617"/>
<text text-anchor="start" x="377" y="-602.8" font-family="arial" font-weight="bold" font-size="14.00">ID_13_ct0_st0123W</text>
<text text-anchor="start" x="389" y="-588.8" font-family="arial" font-size="14.00" fill="#984ea3">(P &amp;&amp; (!Q &amp;&amp; R))</text>
<text text-anchor="start" x="417.5" y="-574.8" font-family="arial" font-size="14.00" fill="#ff7f00">c0 &lt;= 5</text>
</g>
<!-- ID_13_ct0_st0&#45;&gt;ID_13_ct0_st0123W -->
<g id="edge6" class="edge">
<title>ID_13_ct0_st0&#45;&gt;ID_13_ct0_st0123W</title>
<path fill="none" stroke="black" d="M233.65,-400.23C248.3,-431.18 276.52,-483.87 313,-519 330.66,-536.01 353.02,-550.58 374.02,-562.13"/>
<polygon fill="black" stroke="black" points="372.45,-565.26 382.92,-566.9 375.75,-559.09 372.45,-565.26"/>
<text text-anchor="start" x="320" y="-566.8" font-family="arial" font-size="14.00" fill="#377eb8">true</text>
<text text-anchor="start" x="313" y="-551.8" font-family="arial" font-size="14.00">c0 :=0</text>
</g>
<!-- _ID_13_ct0_st012 -->
<!-- _ID_13_ct0_st012&#45;&gt;ID_13_ct0_st012 -->
<g id="edge2" class="edge">
<title>_ID_13_ct0_st012&#45;&gt;ID_13_ct0_st012</title>
<path fill="none" stroke="black" d="M716.51,-434C733.84,-434 752.8,-434 770.61,-434"/>
<polygon fill="black" stroke="black" points="770.93,-437.5 780.93,-434 770.93,-430.5 770.93,-437.5"/>
</g>
<!-- ID_13_ct0_st012&#45;&gt;ID_13_ct0_st0 -->
<g id="edge12" class="edge">
<title>ID_13_ct0_st012&#45;&gt;ID_13_ct0_st0</title>
<path fill="none" stroke="black" d="M780.95,-414.13C726.07,-397.23 642.6,-374.26 568,-365 469.87,-352.81 354.91,-360.46 285.45,-367.45"/>
<polygon fill="black" stroke="black" points="284.71,-364.01 275.12,-368.52 285.43,-370.98 284.71,-364.01"/>
<text text-anchor="start" x="541.5" y="-368.8" font-family="arial" font-size="14.00" fill="#377eb8">Q&#39;</text>
</g>
<!-- ID_13_ct0_st012&#45;&gt;ID_13_ct0_st012 -->
<g id="edge15" class="edge">
<title>ID_13_ct0_st012&#45;&gt;ID_13_ct0_st012</title>
<path fill="none" stroke="black" d="M825.69,-459.18C824.94,-468.91 830.55,-477 842.5,-477 849.97,-477 854.96,-473.84 857.47,-469.09"/>
<polygon fill="black" stroke="black" points="860.93,-469.65 859.31,-459.18 854.04,-468.37 860.93,-469.65"/>
<text text-anchor="start" x="830.5" y="-480.8" font-family="arial" font-size="14.00" fill="#377eb8">true</text>
</g>
<!-- ID_13_ct0_st02 -->
<g id="node7" class="node">
<title>ID_13_ct0_st02</title>
<polygon fill="none" stroke="black" points="1393,-503 1266,-503 1266,-453 1393,-453 1393,-503"/>
<text text-anchor="start" x="1280.5" y="-488.8" font-family="arial" font-weight="bold" font-size="14.00">ID_13_ct0_st02</text>
<text text-anchor="start" x="1274" y="-474.8" font-family="arial" font-size="14.00" fill="#984ea3">(!P &amp;&amp; (!Q &amp;&amp; !R))</text>
<text text-anchor="start" x="1317.5" y="-460.8" font-family="arial" font-size="14.00" fill="#ff7f00">true</text>
</g>
<!-- ID_13_ct0_st012&#45;&gt;ID_13_ct0_st02 -->
<g id="edge13" class="edge">
<title>ID_13_ct0_st012&#45;&gt;ID_13_ct0_st02</title>
<path fill="none" stroke="black" d="M904.29,-446.72C910.27,-447.87 916.25,-448.99 922,-450 963.6,-457.33 973.96,-459.94 1016,-464 1097.8,-471.9 1192.09,-475.35 1255.52,-476.86"/>
<polygon fill="black" stroke="black" points="1255.74,-480.36 1265.81,-477.09 1255.9,-473.36 1255.74,-480.36"/>
<text text-anchor="start" x="1073" y="-476.8" font-family="arial" font-size="14.00" fill="#377eb8">true</text>
</g>
<!-- ID_13_ct0_st023X -->
<g id="node8" class="node">
<title>ID_13_ct0_st023X</title>
<polygon fill="none" stroke="black" points="1636,-465 1505,-465 1505,-415 1636,-415 1636,-465"/>
<text text-anchor="start" x="1513" y="-450.8" font-family="arial" font-weight="bold" font-size="14.00">ID_13_ct0_st023X</text>
<text text-anchor="start" x="1517" y="-436.8" font-family="arial" font-size="14.00" fill="#984ea3">(!P &amp;&amp; (!Q &amp;&amp; R))</text>
<text text-anchor="start" x="1547.5" y="-422.8" font-family="arial" font-size="14.00" fill="#ff7f00">c0 &lt;= 5</text>
</g>
<!-- ID_13_ct0_st012&#45;&gt;ID_13_ct0_st023X -->
<g id="edge14" class="edge">
<title>ID_13_ct0_st012&#45;&gt;ID_13_ct0_st023X</title>
<path fill="none" stroke="black" d="M904.04,-428.62C1018.34,-419.49 1273.62,-403.97 1487,-426 1489.53,-426.26 1492.1,-426.55 1494.69,-426.87"/>
<polygon fill="black" stroke="black" points="1494.39,-430.36 1504.76,-428.19 1495.3,-423.42 1494.39,-430.36"/>
<text text-anchor="start" x="1198" y="-433.8" font-family="arial" font-size="14.00" fill="#377eb8">true</text>
<text text-anchor="start" x="1191" y="-418.8" font-family="arial" font-size="14.00">c0 :=0</text>
</g>
<!-- ID_13_ct0_st0123X -->
<g id="node9" class="node">
<title>ID_13_ct0_st0123X</title>
<polygon fill="none" stroke="black" points="1154,-217 1016,-217 1016,-167 1154,-167 1154,-217"/>
<text text-anchor="start" x="1024" y="-202.8" font-family="arial" font-weight="bold" font-size="14.00">ID_13_ct0_st0123X</text>
<text text-anchor="start" x="1033.5" y="-188.8" font-family="arial" font-size="14.00" fill="#984ea3">(P &amp;&amp; (!Q &amp;&amp; R))</text>
<text text-anchor="start" x="1062" y="-174.8" font-family="arial" font-size="14.00" fill="#ff7f00">c0 &lt;= 5</text>
</g>
<!-- ID_13_ct0_st012&#45;&gt;ID_13_ct0_st0123X -->
<g id="edge16" class="edge">
<title>ID_13_ct0_st012&#45;&gt;ID_13_ct0_st0123X</title>
<path fill="none" stroke="black" d="M855.43,-408.82C869,-381.87 893.09,-338.83 922,-308 953.93,-273.95 997.21,-243.57 1031,-222.44"/>
<polygon fill="black" stroke="black" points="1033.15,-225.23 1039.82,-217.01 1029.47,-219.28 1033.15,-225.23"/>
<text text-anchor="start" x="948" y="-326.8" font-family="arial" font-size="14.00" fill="#377eb8">true</text>
<text text-anchor="start" x="941" y="-311.8" font-family="arial" font-size="14.00">c0 :=0</text>
</g>
<!-- _ID_13_ct0_st0123W -->
<!-- _ID_13_ct0_st0123W&#45;&gt;ID_13_ct0_st0123W -->
<g id="edge3" class="edge">
<title>_ID_13_ct0_st0123W&#45;&gt;ID_13_ct0_st0123W</title>
<path fill="none" stroke="black" d="M295.06,-592C315.5,-592 337.85,-592 358.73,-592"/>
<polygon fill="black" stroke="black" points="358.85,-595.5 368.85,-592 358.85,-588.5 358.85,-595.5"/>
</g>
<!-- ID_13_ct0_st0123W&#45;&gt;ID_13_ct0_st0 -->
<g id="edge33" class="edge">
<title>ID_13_ct0_st0123W&#45;&gt;ID_13_ct0_st0</title>
<path fill="none" stroke="black" d="M417.08,-566.89C399.69,-547.87 374.64,-521.44 351,-500 335.06,-485.55 328.91,-484.49 313,-470 291.39,-450.31 268.71,-426.49 251.46,-407.63"/>
<polygon fill="black" stroke="black" points="253.97,-405.19 244.65,-400.14 248.79,-409.89 253.97,-405.19"/>
<text text-anchor="start" x="324.5" y="-503.8" font-family="arial" font-size="14.00" fill="#377eb8">Q&#39;</text>
</g>
<!-- ID_13_ct0_st0123W&#45;&gt;ID_13_ct0_st012 -->
<g id="edge37" class="edge">
<title>ID_13_ct0_st0123W&#45;&gt;ID_13_ct0_st012</title>
<path fill="none" stroke="black" d="M504.88,-566.96C577.45,-538.3 695.98,-491.48 771.29,-461.73"/>
<polygon fill="black" stroke="black" points="772.69,-464.94 780.71,-458.01 770.12,-458.43 772.69,-464.94"/>
<text text-anchor="start" x="641.5" y="-536.8" font-family="arial" font-size="14.00" fill="#377eb8">true</text>
</g>
<!-- ID_13_ct0_st0123W&#45;&gt;ID_13_ct0_st0123W -->
<g id="edge38" class="edge">
<title>ID_13_ct0_st0123W&#45;&gt;ID_13_ct0_st0123W</title>
<path fill="none" stroke="black" d="M420.33,-617.18C419.43,-626.91 426.16,-635 440.5,-635 449.46,-635 455.45,-631.84 458.46,-627.09"/>
<polygon fill="black" stroke="black" points="461.92,-627.7 460.67,-617.18 455.08,-626.18 461.92,-627.7"/>
<text text-anchor="start" x="421.5" y="-638.8" font-family="arial" font-size="14.00" fill="#377eb8">c0 &lt; 5</text>
</g>
<!-- ID_13_ct0_st0123W&#45;&gt;ID_13_ct0_st02 -->
<g id="edge34" class="edge">
<title>ID_13_ct0_st0123W&#45;&gt;ID_13_ct0_st02</title>
<path fill="none" stroke="black" d="M512.18,-597.64C684.07,-610.2 1119.28,-634.75 1248,-573 1274.9,-560.1 1296.19,-533.5 1310.1,-511.73"/>
<polygon fill="black" stroke="black" points="1313.18,-513.4 1315.42,-503.05 1307.21,-509.74 1313.18,-513.4"/>
<text text-anchor="start" x="830.5" y="-616.8" font-family="arial" font-size="14.00" fill="#377eb8">true</text>
</g>
<!-- ID_13_ct0_st023W -->
<g id="node10" class="node">
<title>ID_13_ct0_st023W</title>
<polygon fill="none" stroke="black" points="721,-673 586,-673 586,-623 721,-623 721,-673"/>
<text text-anchor="start" x="594" y="-658.8" font-family="arial" font-weight="bold" font-size="14.00">ID_13_ct0_st023W</text>
<text text-anchor="start" x="600" y="-644.8" font-family="arial" font-size="14.00" fill="#984ea3">(!P &amp;&amp; (!Q &amp;&amp; R))</text>
<text text-anchor="start" x="630.5" y="-630.8" font-family="arial" font-size="14.00" fill="#ff7f00">c0 &lt;= 5</text>
</g>
<!-- ID_13_ct0_st0123W&#45;&gt;ID_13_ct0_st023W -->
<g id="edge35" class="edge">
<title>ID_13_ct0_st0123W&#45;&gt;ID_13_ct0_st023W</title>
<path fill="none" stroke="black" d="M474.97,-617.03C490.8,-627.42 510.49,-638.35 530,-644 544.5,-648.2 560.38,-650.38 575.75,-651.34"/>
<polygon fill="black" stroke="black" points="575.61,-654.83 585.76,-651.8 575.93,-647.84 575.61,-654.83"/>
<text text-anchor="start" x="530" y="-653.8" font-family="arial" font-size="14.00" fill="#377eb8">c0 &lt; 5</text>
</g>
<!-- ID_13_ct0_st0234 -->
<g id="node11" class="node">
<title>ID_13_ct0_st0234</title>
<polygon fill="none" stroke="black" points="2707,-396 2578,-396 2578,-346 2707,-346 2707,-396"/>
<text text-anchor="start" x="2586" y="-381.8" font-family="arial" font-weight="bold" font-size="14.00">ID_13_ct0_st0234</text>
<text text-anchor="start" x="2589" y="-367.8" font-family="arial" font-size="14.00" fill="#984ea3">(!P &amp;&amp; (!Q &amp;&amp; R))</text>
<text text-anchor="start" x="2630.5" y="-353.8" font-family="arial" font-size="14.00" fill="#ff7f00">true</text>
</g>
<!-- ID_13_ct0_st0123W&#45;&gt;ID_13_ct0_st0234 -->
<g id="edge36" class="edge">
<title>ID_13_ct0_st0123W&#45;&gt;ID_13_ct0_st0234</title>
<path fill="none" stroke="black" d="M506.2,-566.97C508.23,-565.4 510.17,-563.75 512,-562 539.56,-535.6 562.23,-436.86 586,-407 654.95,-320.38 685.48,-307.97 781,-252 1071.96,-81.52 1169.43,-58.36 1505,-25 1562.94,-19.24 1577.8,-23.58 1636,-25 1683.82,-26.17 2456.57,-39.91 2496,-67 2554.06,-106.89 2540.73,-144.25 2560,-212 2574.94,-264.53 2547.19,-291.25 2576.16,-337.24"/>
<polygon fill="black" stroke="black" points="2573.46,-339.49 2582.01,-345.75 2579.23,-335.52 2573.46,-339.49"/>
<text text-anchor="start" x="1547.5" y="-28.8" font-family="arial" font-size="14.00" fill="#377eb8">c0 &gt;= 5</text>
</g>
<!-- ID_13_ct0_st01234 -->
<g id="node12" class="node">
<title>ID_13_ct0_st01234</title>
<polygon fill="none" stroke="black" points="2904,-396 2767,-396 2767,-346 2904,-346 2904,-396"/>
<text text-anchor="start" x="2775" y="-381.8" font-family="arial" font-weight="bold" font-size="14.00">ID_13_ct0_st01234</text>
<text text-anchor="start" x="2784" y="-367.8" font-family="arial" font-size="14.00" fill="#984ea3">(P &amp;&amp; (!Q &amp;&amp; R))</text>
<text text-anchor="start" x="2823.5" y="-353.8" font-family="arial" font-size="14.00" fill="#ff7f00">true</text>
</g>
<!-- ID_13_ct0_st0123W&#45;&gt;ID_13_ct0_st01234 -->
<g id="edge39" class="edge">
<title>ID_13_ct0_st0123W&#45;&gt;ID_13_ct0_st01234</title>
<path fill="none" stroke="black" d="M456.27,-617.01C486.54,-664.71 560.58,-764 652.5,-764 652.5,-764 652.5,-764 2643.5,-764 2801.8,-764 2828.94,-502.87 2833.56,-406.32"/>
<polygon fill="black" stroke="black" points="2837.06,-406.32 2833.99,-396.18 2830.07,-406.02 2837.06,-406.32"/>
<text text-anchor="start" x="1654" y="-767.8" font-family="arial" font-size="14.00" fill="#377eb8">c0 &gt;= 5</text>
</g>
<!-- ID_13_ct0_st02&#45;&gt;ID_13_ct0_st0 -->
<g id="edge7" class="edge">
<title>ID_13_ct0_st02&#45;&gt;ID_13_ct0_st0</title>
<path fill="none" stroke="black" d="M1265.72,-487.09C1259.74,-487.8 1253.76,-488.45 1248,-489 946.97,-517.52 618.73,-529.48 586,-517 544.82,-501.3 550.83,-471.84 512,-451 439.61,-412.15 346.21,-392.3 285.37,-382.8"/>
<polygon fill="black" stroke="black" points="285.56,-379.29 275.15,-381.25 284.51,-386.21 285.56,-379.29"/>
<text text-anchor="start" x="743.5" y="-523.8" font-family="arial" font-size="14.00" fill="#377eb8">Q&#39;</text>
</g>
<!-- ID_13_ct0_st02&#45;&gt;ID_13_ct0_st012 -->
<g id="edge10" class="edge">
<title>ID_13_ct0_st02&#45;&gt;ID_13_ct0_st012</title>
<path fill="none" stroke="black" d="M1265.74,-465.75C1232.63,-459.75 1191.25,-452.98 1154,-449 1072.03,-440.24 977.34,-436.59 914.28,-435.08"/>
<polygon fill="black" stroke="black" points="914.13,-431.57 904.06,-434.84 913.97,-438.57 914.13,-431.57"/>
<text text-anchor="start" x="1073" y="-452.8" font-family="arial" font-size="14.00" fill="#377eb8">true</text>
</g>
<!-- ID_13_ct0_st02&#45;&gt;ID_13_ct0_st02 -->
<g id="edge8" class="edge">
<title>ID_13_ct0_st02&#45;&gt;ID_13_ct0_st02</title>
<path fill="none" stroke="black" d="M1307.46,-503.18C1306.48,-512.91 1313.83,-521 1329.5,-521 1339.29,-521 1345.84,-517.84 1349.13,-513.09"/>
<polygon fill="black" stroke="black" points="1352.58,-513.72 1351.54,-503.18 1345.78,-512.07 1352.58,-513.72"/>
<text text-anchor="start" x="1317.5" y="-524.8" font-family="arial" font-size="14.00" fill="#377eb8">true</text>
</g>
<!-- ID_13_ct0_st02&#45;&gt;ID_13_ct0_st023X -->
<g id="edge9" class="edge">
<title>ID_13_ct0_st02&#45;&gt;ID_13_ct0_st023X</title>
<path fill="none" stroke="black" d="M1393.06,-469.96C1421.74,-466.08 1456.15,-461.16 1487,-456 1489.52,-455.58 1492.08,-455.14 1494.66,-454.69"/>
<polygon fill="black" stroke="black" points="1495.48,-458.1 1504.71,-452.9 1494.25,-451.21 1495.48,-458.1"/>
<text text-anchor="start" x="1437" y="-485.8" font-family="arial" font-size="14.00" fill="#377eb8">true</text>
<text text-anchor="start" x="1430" y="-470.8" font-family="arial" font-size="14.00">c0 :=0</text>
</g>
<!-- ID_13_ct0_st02&#45;&gt;ID_13_ct0_st0123X -->
<g id="edge11" class="edge">
<title>ID_13_ct0_st02&#45;&gt;ID_13_ct0_st0123X</title>
<path fill="none" stroke="black" d="M1321.39,-452.84C1310.44,-417.82 1286.61,-353.95 1248,-312 1221.42,-283.11 1203.81,-290 1172,-267 1154.09,-254.05 1135.46,-238.15 1120.13,-224.32"/>
<polygon fill="black" stroke="black" points="1122.19,-221.46 1112.44,-217.31 1117.47,-226.63 1122.19,-221.46"/>
<text text-anchor="start" x="1198" y="-330.8" font-family="arial" font-size="14.00" fill="#377eb8">true</text>
<text text-anchor="start" x="1191" y="-315.8" font-family="arial" font-size="14.00">c0 :=0</text>
</g>
<!-- ID_13_ct0_st023X&#45;&gt;ID_13_ct0_st0 -->
<g id="edge24" class="edge">
<title>ID_13_ct0_st023X&#45;&gt;ID_13_ct0_st0</title>
<path fill="none" stroke="black" d="M1528.75,-414.92C1469.48,-379.95 1354.89,-317.93 1248,-292 1073.11,-249.58 1023.46,-274 843.5,-274 439.5,-274 439.5,-274 439.5,-274 372.44,-274 303.69,-314.14 262.03,-343.81"/>
<polygon fill="black" stroke="black" points="259.85,-341.07 253.82,-349.77 263.97,-346.73 259.85,-341.07"/>
<text text-anchor="start" x="835" y="-277.8" font-family="arial" font-size="14.00" fill="#377eb8">Q&#39;</text>
</g>
<!-- ID_13_ct0_st023X&#45;&gt;ID_13_ct0_st012 -->
<g id="edge29" class="edge">
<title>ID_13_ct0_st023X&#45;&gt;ID_13_ct0_st012</title>
<path fill="none" stroke="black" d="M1540.82,-465.04C1507.84,-491.81 1450.77,-532.15 1393,-545 1216.35,-584.3 1006.41,-507.95 904.74,-463.22"/>
<polygon fill="black" stroke="black" points="906.1,-459.99 895.54,-459.12 903.25,-466.39 906.1,-459.99"/>
<text text-anchor="start" x="1172" y="-557.8" font-family="arial" font-size="14.00" fill="#377eb8">(Q&#39; || c0 &lt; 5)</text>
</g>
<!-- ID_13_ct0_st023X&#45;&gt;ID_13_ct0_st02 -->
<g id="edge25" class="edge">
<title>ID_13_ct0_st023X&#45;&gt;ID_13_ct0_st02</title>
<path fill="none" stroke="black" d="M1504.69,-431.44C1475.67,-429.48 1441.24,-429.74 1411,-437 1400.49,-439.52 1389.81,-443.66 1379.8,-448.35"/>
<polygon fill="black" stroke="black" points="1378.24,-445.22 1370.83,-452.79 1381.35,-451.49 1378.24,-445.22"/>
<text text-anchor="start" x="1411" y="-440.8" font-family="arial" font-size="14.00" fill="#377eb8">(Q&#39; || c0 &lt; 5)</text>
</g>
<!-- ID_13_ct0_st023X&#45;&gt;ID_13_ct0_st023X -->
<g id="edge27" class="edge">
<title>ID_13_ct0_st023X&#45;&gt;ID_13_ct0_st023X</title>
<path fill="none" stroke="black" d="M1550.7,-465.18C1549.82,-474.91 1556.42,-483 1570.5,-483 1579.3,-483 1585.18,-479.84 1588.13,-475.09"/>
<polygon fill="black" stroke="black" points="1591.58,-475.69 1590.3,-465.18 1584.74,-474.2 1591.58,-475.69"/>
<text text-anchor="start" x="1551.5" y="-486.8" font-family="arial" font-size="14.00" fill="#377eb8">c0 &lt; 5</text>
</g>
<!-- ID_13_ct0_st023X&#45;&gt;ID_13_ct0_st0123X -->
<g id="edge31" class="edge">
<title>ID_13_ct0_st023X&#45;&gt;ID_13_ct0_st0123X</title>
<path fill="none" stroke="black" d="M1564.81,-414.91C1556.3,-376.61 1534.6,-303.89 1487,-265 1438.68,-225.51 1266.59,-205.79 1164.22,-197.33"/>
<polygon fill="black" stroke="black" points="1164.48,-193.84 1154.23,-196.53 1163.92,-200.82 1164.48,-193.84"/>
<text text-anchor="start" x="1310.5" y="-232.8" font-family="arial" font-size="14.00" fill="#377eb8">c0 &lt; 5</text>
</g>
<!-- ID_13_ct0_st023X&#45;&gt;ID_13_ct0_st0234 -->
<g id="edge28" class="edge">
<title>ID_13_ct0_st023X&#45;&gt;ID_13_ct0_st0234</title>
<path fill="none" stroke="black" d="M1590.14,-465.1C1623.5,-506.84 1697.8,-586 1781.5,-586 1781.5,-586 1781.5,-586 2428,-586 2528.61,-586 2598.06,-465.98 2626.75,-405.29"/>
<polygon fill="black" stroke="black" points="2629.99,-406.63 2631,-396.08 2623.63,-403.69 2629.99,-406.63"/>
<text text-anchor="start" x="2074" y="-589.8" font-family="arial" font-size="14.00" fill="#377eb8">c0 &gt;= 5</text>
</g>
<!-- ID_13_ct0_st023X&#45;&gt;ID_13_ct0_st01234 -->
<g id="edge32" class="edge">
<title>ID_13_ct0_st023X&#45;&gt;ID_13_ct0_st01234</title>
<path fill="none" stroke="black" d="M1583.89,-465.1C1611.56,-517.14 1683.69,-632 1781.5,-632 1781.5,-632 1781.5,-632 2098,-632 2370.45,-632 2464.81,-686.79 2707,-562 2769.41,-529.85 2806.28,-451.56 2823.23,-405.82"/>
<polygon fill="black" stroke="black" points="2826.56,-406.9 2826.64,-396.31 2819.97,-404.54 2826.56,-406.9"/>
<text text-anchor="start" x="2188" y="-641.8" font-family="arial" font-size="14.00" fill="#377eb8">c0 &gt;= 5</text>
</g>
<!-- ID_13_ct0_st024 -->
<g id="node13" class="node">
<title>ID_13_ct0_st024</title>
<polygon fill="none" stroke="black" points="2056,-328 1929,-328 1929,-278 2056,-278 2056,-328"/>
<text text-anchor="start" x="1939.5" y="-313.8" font-family="arial" font-weight="bold" font-size="14.00">ID_13_ct0_st024</text>
<text text-anchor="start" x="1937" y="-299.8" font-family="arial" font-size="14.00" fill="#984ea3">(!P &amp;&amp; (!Q &amp;&amp; !R))</text>
<text text-anchor="start" x="1980.5" y="-285.8" font-family="arial" font-size="14.00" fill="#ff7f00">true</text>
</g>
<!-- ID_13_ct0_st023X&#45;&gt;ID_13_ct0_st024 -->
<g id="edge26" class="edge">
<title>ID_13_ct0_st023X&#45;&gt;ID_13_ct0_st024</title>
<path fill="none" stroke="black" d="M1636.27,-456.01C1693.87,-466.97 1779.23,-475 1847,-447 1900.71,-424.81 1944.94,-371.9 1969.77,-336.77"/>
<polygon fill="black" stroke="black" points="1972.85,-338.47 1975.66,-328.25 1967.09,-334.49 1972.85,-338.47"/>
<text text-anchor="start" x="1759.5" y="-469.8" font-family="arial" font-size="14.00" fill="#377eb8">c0 &gt;= 5</text>
</g>
<!-- ID_13_ct0_st0124 -->
<g id="node14" class="node">
<title>ID_13_ct0_st0124</title>
<polygon fill="none" stroke="black" points="1847,-405 1718,-405 1718,-355 1847,-355 1847,-405"/>
<text text-anchor="start" x="1726" y="-390.8" font-family="arial" font-weight="bold" font-size="14.00">ID_13_ct0_st0124</text>
<text text-anchor="start" x="1729" y="-376.8" font-family="arial" font-size="14.00" fill="#984ea3">(P &amp;&amp; (!Q &amp;&amp; !R))</text>
<text text-anchor="start" x="1770.5" y="-362.8" font-family="arial" font-size="14.00" fill="#ff7f00">true</text>
</g>
<!-- ID_13_ct0_st023X&#45;&gt;ID_13_ct0_st0124 -->
<g id="edge30" class="edge">
<title>ID_13_ct0_st023X&#45;&gt;ID_13_ct0_st0124</title>
<path fill="none" stroke="black" d="M1636.22,-421.51C1658.89,-415.03 1684.52,-407.71 1707.86,-401.04"/>
<polygon fill="black" stroke="black" points="1709.06,-404.34 1717.71,-398.22 1707.14,-397.61 1709.06,-404.34"/>
<text text-anchor="start" x="1654" y="-418.8" font-family="arial" font-size="14.00" fill="#377eb8">c0 &gt;= 5</text>
</g>
<!-- ID_13_ct0_st0123X&#45;&gt;ID_13_ct0_st0 -->
<g id="edge40" class="edge">
<title>ID_13_ct0_st0123X&#45;&gt;ID_13_ct0_st0</title>
<path fill="none" stroke="black" d="M1015.84,-191.13C967.69,-190.59 901.64,-190 843.5,-190 439.5,-190 439.5,-190 439.5,-190 347.54,-190 274.78,-287.4 241.78,-340.86"/>
<polygon fill="black" stroke="black" points="238.63,-339.3 236.45,-349.66 244.62,-342.92 238.63,-339.3"/>
<text text-anchor="start" x="646" y="-193.8" font-family="arial" font-size="14.00" fill="#377eb8">Q&#39;</text>
</g>
<!-- ID_13_ct0_st0123X&#45;&gt;ID_13_ct0_st012 -->
<g id="edge45" class="edge">
<title>ID_13_ct0_st0123X&#45;&gt;ID_13_ct0_st012</title>
<path fill="none" stroke="black" d="M1075.78,-217.04C1063.8,-249.64 1038.47,-306.19 998,-338 970.25,-359.81 952.6,-343.42 922,-361 903.62,-371.56 886.05,-387.18 872.22,-401.26"/>
<polygon fill="black" stroke="black" points="869.31,-399.23 864.93,-408.88 874.37,-404.07 869.31,-399.23"/>
<text text-anchor="start" x="922" y="-364.8" font-family="arial" font-size="14.00" fill="#377eb8">(Q&#39; || c0 &lt; 5)</text>
</g>
<!-- ID_13_ct0_st0123X&#45;&gt;ID_13_ct0_st02 -->
<g id="edge41" class="edge">
<title>ID_13_ct0_st0123X&#45;&gt;ID_13_ct0_st02</title>
<path fill="none" stroke="black" d="M1093.83,-217.15C1105.51,-250.54 1130.66,-309.11 1172,-342 1199.62,-363.97 1219.34,-344.41 1248,-365 1276.23,-385.27 1298.21,-418.59 1312.02,-443.8"/>
<polygon fill="black" stroke="black" points="1308.95,-445.5 1316.73,-452.69 1315.13,-442.22 1308.95,-445.5"/>
<text text-anchor="start" x="1172" y="-368.8" font-family="arial" font-size="14.00" fill="#377eb8">(Q&#39; || c0 &lt; 5)</text>
</g>
<!-- ID_13_ct0_st0123X&#45;&gt;ID_13_ct0_st023X -->
<g id="edge43" class="edge">
<title>ID_13_ct0_st0123X&#45;&gt;ID_13_ct0_st023X</title>
<path fill="none" stroke="black" d="M1154.2,-213.86C1187.78,-224.46 1228.92,-237.2 1266,-248 1363.72,-276.46 1405.28,-247.33 1487,-308 1520.38,-332.78 1543.44,-375.45 1556.52,-405.56"/>
<polygon fill="black" stroke="black" points="1553.32,-406.99 1560.42,-414.85 1559.78,-404.28 1553.32,-406.99"/>
<text text-anchor="start" x="1310.5" y="-271.8" font-family="arial" font-size="14.00" fill="#377eb8">c0 &lt; 5</text>
</g>
<!-- ID_13_ct0_st0123X&#45;&gt;ID_13_ct0_st0123X -->
<g id="edge47" class="edge">
<title>ID_13_ct0_st0123X&#45;&gt;ID_13_ct0_st0123X</title>
<path fill="none" stroke="black" d="M1061.84,-217.18C1060.81,-226.91 1068.53,-235 1085,-235 1095.29,-235 1102.17,-231.84 1105.63,-227.09"/>
<polygon fill="black" stroke="black" points="1109.08,-227.73 1108.16,-217.18 1102.29,-226 1109.08,-227.73"/>
<text text-anchor="start" x="1066" y="-238.8" font-family="arial" font-size="14.00" fill="#377eb8">c0 &lt; 5</text>
</g>
<!-- ID_13_ct0_st0123X&#45;&gt;ID_13_ct0_st0234 -->
<g id="edge44" class="edge">
<title>ID_13_ct0_st0123X&#45;&gt;ID_13_ct0_st0234</title>
<path fill="none" stroke="black" d="M1124.55,-166.81C1170.95,-138.97 1252.19,-98 1328.5,-98 1328.5,-98 1328.5,-98 1889,-98 2164.35,-98 2267.84,-67.85 2496,-222 2531.48,-245.97 2537.76,-257.41 2560,-294 2570.08,-310.58 2564.78,-321.41 2576.4,-337.85"/>
<polygon fill="black" stroke="black" points="2573.96,-340.39 2583.05,-345.84 2579.34,-335.91 2573.96,-340.39"/>
<text text-anchor="start" x="1865" y="-101.8" font-family="arial" font-size="14.00" fill="#377eb8">c0 &gt;= 5</text>
</g>
<!-- ID_13_ct0_st0123X&#45;&gt;ID_13_ct0_st01234 -->
<g id="edge48" class="edge">
<title>ID_13_ct0_st0123X&#45;&gt;ID_13_ct0_st01234</title>
<path fill="none" stroke="black" d="M1104.55,-166.7C1120.24,-147.31 1144.52,-121.64 1172,-108 1209.83,-89.22 1224.12,-99.49 1266,-94 1450.05,-69.88 1910.38,0 2096,0 2096,0 2096,0 2643.5,0 2793.65,0 2825.87,-243.18 2832.69,-335.78"/>
<polygon fill="black" stroke="black" points="2829.2,-336.05 2833.38,-345.79 2836.19,-335.58 2829.2,-336.05"/>
<text text-anchor="start" x="1969.5" y="-13.8" font-family="arial" font-size="14.00" fill="#377eb8">c0 &gt;= 5</text>
</g>
<!-- ID_13_ct0_st0123X&#45;&gt;ID_13_ct0_st024 -->
<g id="edge42" class="edge">
<title>ID_13_ct0_st0123X&#45;&gt;ID_13_ct0_st024</title>
<path fill="none" stroke="black" d="M1154.02,-171.16C1202.24,-158.2 1268.74,-144 1328.5,-144 1328.5,-144 1328.5,-144 1783.5,-144 1869.04,-144 1858.39,-221.72 1929,-270 1930.23,-270.84 1931.49,-271.68 1932.77,-272.51"/>
<polygon fill="black" stroke="black" points="1931.08,-275.59 1941.42,-277.89 1934.77,-269.64 1931.08,-275.59"/>
<text text-anchor="start" x="1547.5" y="-147.8" font-family="arial" font-size="14.00" fill="#377eb8">c0 &gt;= 5</text>
</g>
<!-- ID_13_ct0_st0123X&#45;&gt;ID_13_ct0_st0124 -->
<g id="edge46" class="edge">
<title>ID_13_ct0_st0123X&#45;&gt;ID_13_ct0_st0124</title>
<path fill="none" stroke="black" d="M1154.3,-185.7C1235.72,-180.53 1374.86,-179.14 1487,-216 1582.78,-247.48 1683.03,-310.87 1738.35,-348.96"/>
<polygon fill="black" stroke="black" points="1736.62,-352.02 1746.83,-354.84 1740.61,-346.27 1736.62,-352.02"/>
<text text-anchor="start" x="1426" y="-219.8" font-family="arial" font-size="14.00" fill="#377eb8">c0 &gt;= 5</text>
</g>
<!-- ID_13_ct0_st023W&#45;&gt;ID_13_ct0_st0 -->
<g id="edge17" class="edge">
<title>ID_13_ct0_st023W&#45;&gt;ID_13_ct0_st0</title>
<path fill="none" stroke="black" d="M621.17,-622.94C593.19,-600.96 550.75,-568.6 512,-543 433.02,-490.83 337.34,-437.03 278.19,-404.8"/>
<polygon fill="black" stroke="black" points="279.84,-401.71 269.38,-400.01 276.49,-407.86 279.84,-401.71"/>
<text text-anchor="start" x="433" y="-546.8" font-family="arial" font-size="14.00" fill="#377eb8">Q&#39;</text>
</g>
<!-- ID_13_ct0_st023W&#45;&gt;ID_13_ct0_st012 -->
<g id="edge21" class="edge">
<title>ID_13_ct0_st023W&#45;&gt;ID_13_ct0_st012</title>
<path fill="none" stroke="black" d="M685.23,-622.92C707.95,-603.63 738.99,-575.67 763,-548 784.92,-522.73 806.22,-491.23 821.08,-467.75"/>
<polygon fill="black" stroke="black" points="824.11,-469.51 826.45,-459.17 818.18,-465.79 824.11,-469.51"/>
<text text-anchor="start" x="739" y="-574.8" font-family="arial" font-size="14.00" fill="#377eb8">true</text>
</g>
<!-- ID_13_ct0_st023W&#45;&gt;ID_13_ct0_st0123W -->
<g id="edge22" class="edge">
<title>ID_13_ct0_st023W&#45;&gt;ID_13_ct0_st0123W</title>
<path fill="none" stroke="black" d="M585.94,-630.33C565.63,-624.95 543.09,-618.96 521.97,-613.36"/>
<polygon fill="black" stroke="black" points="522.62,-609.91 512.05,-610.73 520.82,-616.67 522.62,-609.91"/>
<text text-anchor="start" x="530" y="-628.8" font-family="arial" font-size="14.00" fill="#377eb8">c0 &lt; 5</text>
</g>
<!-- ID_13_ct0_st023W&#45;&gt;ID_13_ct0_st02 -->
<g id="edge18" class="edge">
<title>ID_13_ct0_st023W&#45;&gt;ID_13_ct0_st02</title>
<path fill="none" stroke="black" d="M721.24,-648.32C866.94,-648.5 1204.07,-645.96 1248,-619 1286.32,-595.48 1308.14,-546.54 1319.14,-512.98"/>
<polygon fill="black" stroke="black" points="1322.59,-513.69 1322.22,-503.1 1315.9,-511.61 1322.59,-513.69"/>
<text text-anchor="start" x="948" y="-649.8" font-family="arial" font-size="14.00" fill="#377eb8">true</text>
</g>
<!-- ID_13_ct0_st023W&#45;&gt;ID_13_ct0_st023W -->
<g id="edge19" class="edge">
<title>ID_13_ct0_st023W&#45;&gt;ID_13_ct0_st023W</title>
<path fill="none" stroke="black" d="M635.57,-673.18C634.77,-682.91 640.75,-691 653.5,-691 661.47,-691 666.79,-687.84 669.47,-683.09"/>
<polygon fill="black" stroke="black" points="672.92,-683.66 671.43,-673.18 666.06,-682.31 672.92,-683.66"/>
<text text-anchor="start" x="634.5" y="-694.8" font-family="arial" font-size="14.00" fill="#377eb8">c0 &lt; 5</text>
</g>
<!-- ID_13_ct0_st023W&#45;&gt;ID_13_ct0_st0234 -->
<g id="edge20" class="edge">
<title>ID_13_ct0_st023W&#45;&gt;ID_13_ct0_st0234</title>
<path fill="none" stroke="black" d="M721.26,-660C727.25,-660.79 733.22,-661.48 739,-662 820.01,-669.33 840.66,-663.91 922,-665 1350.87,-670.74 1458.09,-675 1887,-675 1887,-675 1887,-675 2322,-675 2441.69,-675 2486.27,-643.28 2560,-549 2594.6,-504.76 2618.48,-443.47 2631.08,-405.58"/>
<polygon fill="black" stroke="black" points="2634.42,-406.6 2634.18,-396.01 2627.77,-404.44 2634.42,-406.6"/>
<text text-anchor="start" x="1654" y="-677.8" font-family="arial" font-size="14.00" fill="#377eb8">c0 &gt;= 5</text>
</g>
<!-- ID_13_ct0_st023W&#45;&gt;ID_13_ct0_st01234 -->
<g id="edge23" class="edge">
<title>ID_13_ct0_st023W&#45;&gt;ID_13_ct0_st01234</title>
<path fill="none" stroke="black" d="M693.63,-673.12C730.32,-694.24 787.48,-721 841.5,-721 841.5,-721 841.5,-721 2643.5,-721 2785.85,-721 2822.75,-495.16 2831.76,-406.3"/>
<polygon fill="black" stroke="black" points="2835.26,-406.46 2832.73,-396.17 2828.29,-405.79 2835.26,-406.46"/>
<text text-anchor="start" x="1759.5" y="-724.8" font-family="arial" font-size="14.00" fill="#377eb8">c0 &gt;= 5</text>
</g>
<!-- ID_13_ct0_st0234&#45;&gt;ID_13_ct0_st0234 -->
<g id="edge64" class="edge">
<title>ID_13_ct0_st0234&#45;&gt;ID_13_ct0_st0234</title>
<path fill="none" stroke="black" d="M2624.94,-396.18C2624.16,-405.91 2630.02,-414 2642.5,-414 2650.3,-414 2655.51,-410.84 2658.14,-406.09"/>
<polygon fill="black" stroke="black" points="2661.59,-406.66 2660.06,-396.18 2654.72,-405.33 2661.59,-406.66"/>
<text text-anchor="start" x="2630.5" y="-417.8" font-family="arial" font-size="14.00" fill="#377eb8">true</text>
</g>
<!-- ID_13_ct0_st0234&#45;&gt;ID_13_ct0_st01234 -->
<g id="edge66" class="edge">
<title>ID_13_ct0_st0234&#45;&gt;ID_13_ct0_st01234</title>
<path fill="none" stroke="black" d="M2707.35,-355.52C2713.29,-354.5 2719.24,-353.63 2725,-353 2735.3,-351.88 2746.11,-352.02 2756.76,-352.95"/>
<polygon fill="black" stroke="black" points="2756.58,-356.45 2766.9,-354.06 2757.34,-349.49 2756.58,-356.45"/>
<text text-anchor="start" x="2725" y="-356.8" font-family="arial" font-size="14.00" fill="#377eb8">true</text>
</g>
<!-- ID_13_ct0_st0234&#45;&gt;ID_13_ct0_st024 -->
<g id="edge63" class="edge">
<title>ID_13_ct0_st0234&#45;&gt;ID_13_ct0_st024</title>
<path fill="none" stroke="black" d="M2577.92,-377.85C2571.87,-378.32 2565.82,-378.71 2560,-379 2372.13,-388.2 2321.56,-388.05 2138,-347 2114.26,-341.69 2088.76,-334.45 2065.88,-327.38"/>
<polygon fill="black" stroke="black" points="2066.84,-324.02 2056.25,-324.37 2064.75,-330.7 2066.84,-324.02"/>
<text text-anchor="start" x="2309" y="-384.8" font-family="arial" font-size="14.00" fill="#377eb8">true</text>
</g>
<!-- ID_13_ct0_st0234&#45;&gt;ID_13_ct0_st0124 -->
<g id="edge65" class="edge">
<title>ID_13_ct0_st0234&#45;&gt;ID_13_ct0_st0124</title>
<path fill="none" stroke="black" d="M2620.02,-396.2C2584.4,-435.02 2508.96,-505 2428,-505 1991.5,-505 1991.5,-505 1991.5,-505 1919.62,-505 1851.15,-449.47 1813.49,-412.43"/>
<polygon fill="black" stroke="black" points="1815.91,-409.91 1806.37,-405.3 1810.95,-414.85 1815.91,-409.91"/>
<text text-anchor="start" x="2199" y="-508.8" font-family="arial" font-size="14.00" fill="#377eb8">true</text>
</g>
<!-- ID_13_ct0_st01234&#45;&gt;ID_13_ct0_st0234 -->
<g id="edge74" class="edge">
<title>ID_13_ct0_st01234&#45;&gt;ID_13_ct0_st0234</title>
<path fill="none" stroke="black" d="M2766.92,-371C2750.81,-371 2733.53,-371 2717.16,-371"/>
<polygon fill="black" stroke="black" points="2717.1,-367.5 2707.1,-371 2717.1,-374.5 2717.1,-367.5"/>
<text text-anchor="start" x="2725" y="-374.8" font-family="arial" font-size="14.00" fill="#377eb8">true</text>
</g>
<!-- ID_13_ct0_st01234&#45;&gt;ID_13_ct0_st01234 -->
<g id="edge76" class="edge">
<title>ID_13_ct0_st01234&#45;&gt;ID_13_ct0_st01234</title>
<path fill="none" stroke="black" d="M2817.2,-396.18C2816.38,-405.91 2822.48,-414 2835.5,-414 2843.63,-414 2849.07,-410.84 2851.8,-406.09"/>
<polygon fill="black" stroke="black" points="2855.26,-406.67 2853.8,-396.18 2848.39,-405.29 2855.26,-406.67"/>
<text text-anchor="start" x="2823.5" y="-417.8" font-family="arial" font-size="14.00" fill="#377eb8">true</text>
</g>
<!-- ID_13_ct0_st01234&#45;&gt;ID_13_ct0_st024 -->
<g id="edge73" class="edge">
<title>ID_13_ct0_st01234&#45;&gt;ID_13_ct0_st024</title>
<path fill="none" stroke="black" d="M2830.05,-345.97C2816.18,-276.96 2767.08,-89 2643.5,-89 2320,-89 2320,-89 2320,-89 2200.95,-89 2138.89,-95.19 2074,-195 2055.32,-223.74 2077.02,-242.92 2056,-270 2055.86,-270.18 2055.73,-270.35 2055.59,-270.52"/>
<polygon fill="black" stroke="black" points="2053.01,-268.16 2048.63,-277.8 2058.07,-272.99 2053.01,-268.16"/>
<text text-anchor="start" x="2415" y="-92.8" font-family="arial" font-size="14.00" fill="#377eb8">true</text>
</g>
<!-- ID_13_ct0_st01234&#45;&gt;ID_13_ct0_st0124 -->
<g id="edge75" class="edge">
<title>ID_13_ct0_st01234&#45;&gt;ID_13_ct0_st0124</title>
<path fill="none" stroke="black" d="M2822.15,-396.36C2796.33,-445.3 2731.66,-548 2643.5,-548 1991.5,-548 1991.5,-548 1991.5,-548 1928.49,-548 1908.32,-529.75 1865,-484 1851.32,-469.55 1858.26,-459.41 1847,-443 1839.58,-432.19 1830.15,-421.66 1820.84,-412.4"/>
<polygon fill="black" stroke="black" points="1823.06,-409.68 1813.44,-405.26 1818.21,-414.72 1823.06,-409.68"/>
<text text-anchor="start" x="2309" y="-551.8" font-family="arial" font-size="14.00" fill="#377eb8">true</text>
</g>
<!-- ID_13_ct0_st024&#45;&gt;ID_13_ct0_st024 -->
<g id="edge49" class="edge">
<title>ID_13_ct0_st024&#45;&gt;ID_13_ct0_st024</title>
<path fill="none" stroke="black" d="M1973.08,-328.18C1972.21,-337.91 1978.69,-346 1992.5,-346 2001.13,-346 2006.9,-342.84 2009.8,-338.09"/>
<polygon fill="black" stroke="black" points="2013.25,-338.69 2011.92,-328.18 2006.41,-337.22 2013.25,-338.69"/>
<text text-anchor="start" x="1980.5" y="-349.8" font-family="arial" font-size="14.00" fill="#377eb8">true</text>
</g>
<!-- ID_13_ct0_st024&#45;&gt;ID_13_ct0_st0124 -->
<g id="edge51" class="edge">
<title>ID_13_ct0_st024&#45;&gt;ID_13_ct0_st0124</title>
<path fill="none" stroke="black" d="M1928.71,-326.24C1905.99,-334.65 1880.14,-344.22 1856.62,-352.93"/>
<polygon fill="black" stroke="black" points="1855.2,-349.73 1847.04,-356.48 1857.63,-356.29 1855.2,-349.73"/>
<text text-anchor="start" x="1876" y="-351.8" font-family="arial" font-size="14.00" fill="#377eb8">true</text>
</g>
<!-- ID_13_ct0_st023X4 -->
<g id="node15" class="node">
<title>ID_13_ct0_st023X4</title>
<polygon fill="none" stroke="black" points="2496,-281 2358,-281 2358,-231 2496,-231 2496,-281"/>
<text text-anchor="start" x="2366" y="-266.8" font-family="arial" font-weight="bold" font-size="14.00">ID_13_ct0_st023X4</text>
<text text-anchor="start" x="2373.5" y="-252.8" font-family="arial" font-size="14.00" fill="#984ea3">(!P &amp;&amp; (!Q &amp;&amp; R))</text>
<text text-anchor="start" x="2404" y="-238.8" font-family="arial" font-size="14.00" fill="#ff7f00">c0 &lt;= 5</text>
</g>
<!-- ID_13_ct0_st024&#45;&gt;ID_13_ct0_st023X4 -->
<g id="edge50" class="edge">
<title>ID_13_ct0_st024&#45;&gt;ID_13_ct0_st023X4</title>
<path fill="none" stroke="black" d="M2056.3,-309.85C2062.27,-310.32 2068.25,-310.71 2074,-311 2192.52,-316.87 2224.47,-315.07 2340,-288 2344.7,-286.9 2349.49,-285.61 2354.28,-284.2"/>
<polygon fill="black" stroke="black" points="2355.59,-287.45 2364.1,-281.13 2353.51,-280.77 2355.59,-287.45"/>
<text text-anchor="start" x="2199" y="-331.8" font-family="arial" font-size="14.00" fill="#377eb8">true</text>
<text text-anchor="start" x="2192" y="-316.8" font-family="arial" font-size="14.00">c0 :=0</text>
</g>
<!-- ID_13_ct0_st0123X4 -->
<g id="node16" class="node">
<title>ID_13_ct0_st0123X4</title>
<polygon fill="none" stroke="black" points="2284,-205 2138,-205 2138,-155 2284,-155 2284,-205"/>
<text text-anchor="start" x="2146" y="-190.8" font-family="arial" font-weight="bold" font-size="14.00">ID_13_ct0_st0123X4</text>
<text text-anchor="start" x="2159.5" y="-176.8" font-family="arial" font-size="14.00" fill="#984ea3">(P &amp;&amp; (!Q &amp;&amp; R))</text>
<text text-anchor="start" x="2188" y="-162.8" font-family="arial" font-size="14.00" fill="#ff7f00">c0 &lt;= 5</text>
</g>
<!-- ID_13_ct0_st024&#45;&gt;ID_13_ct0_st0123X4 -->
<g id="edge52" class="edge">
<title>ID_13_ct0_st024&#45;&gt;ID_13_ct0_st0123X4</title>
<path fill="none" stroke="black" d="M2035.4,-277.84C2047.74,-270.62 2061.33,-262.86 2074,-256 2094.1,-245.12 2099.92,-243.92 2120,-233 2133.07,-225.89 2147.01,-217.9 2159.92,-210.31"/>
<polygon fill="black" stroke="black" points="2161.84,-213.24 2168.67,-205.14 2158.28,-207.22 2161.84,-213.24"/>
<text text-anchor="start" x="2085" y="-274.8" font-family="arial" font-size="14.00" fill="#377eb8">true</text>
<text text-anchor="start" x="2078" y="-259.8" font-family="arial" font-size="14.00">c0 :=0</text>
</g>
<!-- ID_13_ct0_st0124&#45;&gt;ID_13_ct0_st024 -->
<g id="edge53" class="edge">
<title>ID_13_ct0_st0124&#45;&gt;ID_13_ct0_st024</title>
<path fill="none" stroke="black" d="M1807.09,-354.99C1822.19,-340.69 1843.02,-323.88 1865,-315 1881.66,-308.27 1900.53,-304.61 1918.51,-302.74"/>
<polygon fill="black" stroke="black" points="1919.02,-306.21 1928.68,-301.86 1918.42,-299.24 1919.02,-306.21"/>
<text text-anchor="start" x="1876" y="-318.8" font-family="arial" font-size="14.00" fill="#377eb8">true</text>
</g>
<!-- ID_13_ct0_st0124&#45;&gt;ID_13_ct0_st0124 -->
<g id="edge55" class="edge">
<title>ID_13_ct0_st0124&#45;&gt;ID_13_ct0_st0124</title>
<path fill="none" stroke="black" d="M1763.08,-405.18C1762.21,-414.91 1768.69,-423 1782.5,-423 1791.13,-423 1796.9,-419.84 1799.8,-415.09"/>
<polygon fill="black" stroke="black" points="1803.25,-415.69 1801.92,-405.18 1796.41,-414.22 1803.25,-415.69"/>
<text text-anchor="start" x="1770.5" y="-426.8" font-family="arial" font-size="14.00" fill="#377eb8">true</text>
</g>
<!-- ID_13_ct0_st0124&#45;&gt;ID_13_ct0_st023X4 -->
<g id="edge54" class="edge">
<title>ID_13_ct0_st0124&#45;&gt;ID_13_ct0_st023X4</title>
<path fill="none" stroke="black" d="M1811.88,-405.21C1826.63,-416.66 1845.6,-428.97 1865,-435 1915.4,-450.68 2300.08,-469.52 2340,-435 2379.46,-400.87 2333.5,-365.06 2358,-319 2364.08,-307.56 2373.06,-297.09 2382.51,-288.11"/>
<polygon fill="black" stroke="black" points="2385.06,-290.52 2390.15,-281.23 2380.38,-285.32 2385.06,-290.52"/>
<text text-anchor="start" x="2085" y="-472.8" font-family="arial" font-size="14.00" fill="#377eb8">true</text>
<text text-anchor="start" x="2078" y="-457.8" font-family="arial" font-size="14.00">c0 :=0</text>
</g>
<!-- ID_13_ct0_st0124&#45;&gt;ID_13_ct0_st0123X4 -->
<g id="edge56" class="edge">
<title>ID_13_ct0_st0124&#45;&gt;ID_13_ct0_st0123X4</title>
<path fill="none" stroke="black" d="M1789.33,-355C1799.27,-316.89 1822.67,-243.68 1865,-196 1886.96,-171.26 1897.1,-166.76 1929,-158 1994.33,-140.07 2071.17,-147.96 2127.98,-159"/>
<polygon fill="black" stroke="black" points="2127.49,-162.47 2137.99,-161.01 2128.87,-155.61 2127.49,-162.47"/>
<text text-anchor="start" x="1980.5" y="-176.8" font-family="arial" font-size="14.00" fill="#377eb8">true</text>
<text text-anchor="start" x="1973.5" y="-161.8" font-family="arial" font-size="14.00">c0 :=0</text>
</g>
<!-- ID_13_ct0_st023X4&#45;&gt;ID_13_ct0_st0234 -->
<g id="edge59" class="edge">
<title>ID_13_ct0_st023X4&#45;&gt;ID_13_ct0_st0234</title>
<path fill="none" stroke="black" d="M2481.89,-281.14C2506.04,-292.76 2534.72,-307.06 2560,-321 2571.01,-327.07 2582.64,-333.93 2593.56,-340.57"/>
<polygon fill="black" stroke="black" points="2591.79,-343.59 2602.14,-345.84 2595.45,-337.62 2591.79,-343.59"/>
<text text-anchor="start" x="2514" y="-324.8" font-family="arial" font-size="14.00" fill="#377eb8">c0 &gt;= 5</text>
</g>
<!-- ID_13_ct0_st023X4&#45;&gt;ID_13_ct0_st01234 -->
<g id="edge62" class="edge">
<title>ID_13_ct0_st023X4&#45;&gt;ID_13_ct0_st01234</title>
<path fill="none" stroke="black" d="M2496.05,-269.42C2552.97,-281.28 2636.02,-300.07 2707,-322 2725.91,-327.84 2746.04,-335.08 2764.58,-342.19"/>
<polygon fill="black" stroke="black" points="2763.53,-345.53 2774.12,-345.88 2766.06,-339.01 2763.53,-345.53"/>
<text text-anchor="start" x="2619.5" y="-325.8" font-family="arial" font-size="14.00" fill="#377eb8">c0 &gt;= 5</text>
</g>
<!-- ID_13_ct0_st023X4&#45;&gt;ID_13_ct0_st024 -->
<g id="edge57" class="edge">
<title>ID_13_ct0_st023X4&#45;&gt;ID_13_ct0_st024</title>
<path fill="none" stroke="black" d="M2357.74,-258.38C2299.09,-261.27 2212.45,-267.55 2138,-281 2129.83,-282.48 2128.13,-284.33 2120,-286 2102.76,-289.54 2084.04,-292.51 2066.43,-294.94"/>
<polygon fill="black" stroke="black" points="2065.65,-291.51 2056.2,-296.3 2066.57,-298.45 2065.65,-291.51"/>
<text text-anchor="start" x="2199" y="-284.8" font-family="arial" font-size="14.00" fill="#377eb8">true</text>
</g>
<!-- ID_13_ct0_st023X4&#45;&gt;ID_13_ct0_st0124 -->
<g id="edge60" class="edge">
<title>ID_13_ct0_st023X4&#45;&gt;ID_13_ct0_st0124</title>
<path fill="none" stroke="black" d="M2391.01,-281.21C2378.87,-291.62 2366.25,-304.62 2358,-319 2339.64,-350.98 2368.77,-376.92 2340,-400 2267.7,-458 1991.48,-417.89 1857.39,-394.11"/>
<polygon fill="black" stroke="black" points="1857.67,-390.6 1847.21,-392.28 1856.44,-397.49 1857.67,-390.6"/>
<text text-anchor="start" x="2085" y="-430.8" font-family="arial" font-size="14.00" fill="#377eb8">true</text>
</g>
<!-- ID_13_ct0_st023X4&#45;&gt;ID_13_ct0_st023X4 -->
<g id="edge58" class="edge">
<title>ID_13_ct0_st023X4&#45;&gt;ID_13_ct0_st023X4</title>
<path fill="none" stroke="black" d="M2407.2,-281.18C2406.32,-290.91 2412.92,-299 2427,-299 2435.8,-299 2441.68,-295.84 2444.63,-291.09"/>
<polygon fill="black" stroke="black" points="2448.08,-291.69 2446.8,-281.18 2441.24,-290.2 2448.08,-291.69"/>
<text text-anchor="start" x="2408" y="-302.8" font-family="arial" font-size="14.00" fill="#377eb8">c0 &lt; 5</text>
</g>
<!-- ID_13_ct0_st023X4&#45;&gt;ID_13_ct0_st0123X4 -->
<g id="edge61" class="edge">
<title>ID_13_ct0_st023X4&#45;&gt;ID_13_ct0_st0123X4</title>
<path fill="none" stroke="black" d="M2381.12,-230.83C2373.36,-226.31 2365.41,-221.58 2358,-217 2349.83,-211.94 2348.89,-208.66 2340,-205 2325.66,-199.1 2309.83,-194.56 2294.33,-191.09"/>
<polygon fill="black" stroke="black" points="2294.72,-187.59 2284.22,-188.95 2293.28,-194.44 2294.72,-187.59"/>
<text text-anchor="start" x="2302" y="-208.8" font-family="arial" font-size="14.00" fill="#377eb8">c0 &lt; 5</text>
</g>
<!-- ID_13_ct0_st0123X4&#45;&gt;ID_13_ct0_st0234 -->
<g id="edge69" class="edge">
<title>ID_13_ct0_st0123X4&#45;&gt;ID_13_ct0_st0234</title>
<path fill="none" stroke="black" d="M2234.33,-205.26C2267.58,-242.25 2329.23,-308.34 2358,-323 2423.8,-356.54 2508.23,-367.34 2567.78,-370.49"/>
<polygon fill="black" stroke="black" points="2567.7,-373.99 2577.85,-370.96 2568.03,-367 2567.7,-373.99"/>
<text text-anchor="start" x="2404" y="-366.8" font-family="arial" font-size="14.00" fill="#377eb8">c0 &gt;= 5</text>
</g>
<!-- ID_13_ct0_st0123X4&#45;&gt;ID_13_ct0_st01234 -->
<g id="edge72" class="edge">
<title>ID_13_ct0_st0123X4&#45;&gt;ID_13_ct0_st01234</title>
<path fill="none" stroke="black" d="M2284.27,-184.07C2302.5,-185.53 2322.01,-187.46 2340,-190 2506.73,-213.52 2554.83,-211.93 2707,-284 2738.63,-298.98 2771.17,-321.32 2795.46,-339.61"/>
<polygon fill="black" stroke="black" points="2793.62,-342.61 2803.69,-345.89 2797.87,-337.04 2793.62,-342.61"/>
<text text-anchor="start" x="2514" y="-229.8" font-family="arial" font-size="14.00" fill="#377eb8">c0 &gt;= 5</text>
</g>
<!-- ID_13_ct0_st0123X4&#45;&gt;ID_13_ct0_st024 -->
<g id="edge67" class="edge">
<title>ID_13_ct0_st0123X4&#45;&gt;ID_13_ct0_st024</title>
<path fill="none" stroke="black" d="M2137.86,-194.09C2111.48,-200.07 2085.32,-207.21 2074,-214 2061.43,-221.54 2038.35,-247.68 2020.12,-269.7"/>
<polygon fill="black" stroke="black" points="2017.29,-267.63 2013.65,-277.58 2022.7,-272.07 2017.29,-267.63"/>
<text text-anchor="start" x="2085" y="-217.8" font-family="arial" font-size="14.00" fill="#377eb8">true</text>
</g>
<!-- ID_13_ct0_st0123X4&#45;&gt;ID_13_ct0_st0124 -->
<g id="edge70" class="edge">
<title>ID_13_ct0_st0123X4&#45;&gt;ID_13_ct0_st0124</title>
<path fill="none" stroke="black" d="M2137.75,-186.33C2116.98,-189.02 2094.42,-192.78 2074,-198 1974.04,-223.53 1944.07,-232.73 1865,-299 1847.13,-313.98 1828.59,-332.16 1813.72,-347.5"/>
<polygon fill="black" stroke="black" points="1811.13,-345.14 1806.73,-354.78 1816.18,-349.99 1811.13,-345.14"/>
<text text-anchor="start" x="1980.5" y="-254.8" font-family="arial" font-size="14.00" fill="#377eb8">true</text>
</g>
<!-- ID_13_ct0_st0123X4&#45;&gt;ID_13_ct0_st023X4 -->
<g id="edge68" class="edge">
<title>ID_13_ct0_st0123X4&#45;&gt;ID_13_ct0_st023X4</title>
<path fill="none" stroke="black" d="M2265.29,-205.11C2277.24,-210.34 2289.96,-215.6 2302,-220 2316.68,-225.37 2332.56,-230.48 2347.9,-235.08"/>
<polygon fill="black" stroke="black" points="2347.31,-238.55 2357.89,-238.03 2349.29,-231.84 2347.31,-238.55"/>
<text text-anchor="start" x="2302" y="-236.8" font-family="arial" font-size="14.00" fill="#377eb8">c0 &lt; 5</text>
</g>
<!-- ID_13_ct0_st0123X4&#45;&gt;ID_13_ct0_st0123X4 -->
<g id="edge71" class="edge">
<title>ID_13_ct0_st0123X4&#45;&gt;ID_13_ct0_st0123X4</title>
<path fill="none" stroke="black" d="M2190.46,-205.18C2189.54,-214.91 2196.39,-223 2211,-223 2220.13,-223 2226.23,-219.84 2229.3,-215.09"/>
<polygon fill="black" stroke="black" points="2232.75,-215.7 2231.54,-205.18 2225.92,-214.15 2232.75,-215.7"/>
<text text-anchor="start" x="2192" y="-226.8" font-family="arial" font-size="14.00" fill="#377eb8">c0 &lt; 5</text>
</g>
</g>
</svg>
