<?xml version="1.0" encoding="UTF-8" standalone="no"?>
<!DOCTYPE svg PUBLIC "-//W3C//DTD SVG 1.1//EN"
 "http://www.w3.org/Graphics/SVG/1.1/DTD/svg11.dtd">
<!-- Generated by graphviz version 2.43.0 (0)
 -->
<!-- Title: G Pages: 1 -->
<svg width="1800pt" height="963pt"
 viewBox="0.00 0.00 1800.00 963.00" xmlns="http://www.w3.org/2000/svg" xmlns:xlink="http://www.w3.org/1999/xlink">
<g id="graph0" class="graph" transform="scale(1 1) rotate(0) translate(4 959)">
<title>G</title>
<polygon fill="white" stroke="transparent" points="-4,4 -4,-959 1796,-959 1796,4 -4,4"/>
<!-- _ID_6_ct0_st0 -->
<!-- ID_6_ct0_st0 -->
<g id="node2" class="node">
<title>ID_6_ct0_st0</title>
<polygon fill="none" stroke="black" points="246,-749 147,-749 147,-699 246,-699 246,-749"/>
<text text-anchor="start" x="155" y="-734.8" font-family="arial" font-weight="bold" font-size="14.00">ID_6_ct0_st0</text>
<text text-anchor="start" x="190" y="-720.8" font-family="arial" font-size="14.00" fill="#984ea3">!P</text>
<text text-anchor="start" x="184.5" y="-706.8" font-family="arial" font-size="14.00" fill="#ff7f00">true</text>
</g>
<!-- _ID_6_ct0_st0&#45;&gt;ID_6_ct0_st0 -->
<g id="edge1" class="edge">
<title>_ID_6_ct0_st0&#45;&gt;ID_6_ct0_st0</title>
<path fill="none" stroke="black" d="M104.04,-724C114.57,-724 125.75,-724 136.53,-724"/>
<polygon fill="black" stroke="black" points="136.72,-727.5 146.72,-724 136.72,-720.5 136.72,-727.5"/>
</g>
<!-- ID_6_ct0_st0&#45;&gt;ID_6_ct0_st0 -->
<g id="edge5" class="edge">
<title>ID_6_ct0_st0&#45;&gt;ID_6_ct0_st0</title>
<path fill="none" stroke="black" d="M182.68,-749.18C182.06,-758.91 186.67,-767 196.5,-767 202.64,-767 206.75,-763.84 208.81,-759.09"/>
<polygon fill="black" stroke="black" points="212.27,-759.59 210.32,-749.18 205.35,-758.53 212.27,-759.59"/>
<text text-anchor="start" x="184.5" y="-770.8" font-family="arial" font-size="14.00" fill="#377eb8">true</text>
</g>
<!-- ID_6_ct0_st01 -->
<g id="node4" class="node">
<title>ID_6_ct0_st01</title>
<polygon fill="none" stroke="black" points="419,-466 312,-466 312,-416 419,-416 419,-466"/>
<text text-anchor="start" x="320" y="-451.8" font-family="arial" font-weight="bold" font-size="14.00">ID_6_ct0_st01</text>
<text text-anchor="start" x="338" y="-437.8" font-family="arial" font-size="14.00" fill="#984ea3">(P &amp;&amp; Q)</text>
<text text-anchor="start" x="353.5" y="-423.8" font-family="arial" font-size="14.00" fill="#ff7f00">true</text>
</g>
<!-- ID_6_ct0_st0&#45;&gt;ID_6_ct0_st01 -->
<g id="edge6" class="edge">
<title>ID_6_ct0_st0&#45;&gt;ID_6_ct0_st01</title>
<path fill="none" stroke="black" d="M212.32,-698.89C242.4,-647.91 310.64,-532.27 344.57,-474.77"/>
<polygon fill="black" stroke="black" points="347.65,-476.45 349.71,-466.06 341.62,-472.89 347.65,-476.45"/>
<text text-anchor="start" x="270" y="-602.8" font-family="arial" font-size="14.00" fill="#377eb8">true</text>
</g>
<!-- ID_6_ct0_st012 -->
<g id="node6" class="node">
<title>ID_6_ct0_st012</title>
<polygon fill="none" stroke="black" points="1605.5,-642 1486.5,-642 1486.5,-592 1605.5,-592 1605.5,-642"/>
<text text-anchor="start" x="1497" y="-627.8" font-family="arial" font-weight="bold" font-size="14.00">ID_6_ct0_st012</text>
<text text-anchor="start" x="1494.5" y="-613.8" font-family="arial" font-size="14.00" fill="#984ea3">(P &amp;&amp; (!Q &amp;&amp; R))</text>
<text text-anchor="start" x="1534" y="-599.8" font-family="arial" font-size="14.00" fill="#ff7f00">true</text>
</g>
<!-- ID_6_ct0_st0&#45;&gt;ID_6_ct0_st012 -->
<g id="edge7" class="edge">
<title>ID_6_ct0_st0&#45;&gt;ID_6_ct0_st012</title>
<path fill="none" stroke="black" d="M226.66,-749.2C258.36,-773.95 311.6,-808 364.5,-808 364.5,-808 364.5,-808 1265.5,-808 1375.91,-808 1474.78,-705.15 1519.6,-650.4"/>
<polygon fill="black" stroke="black" points="1522.52,-652.35 1526.07,-642.36 1517.07,-647.96 1522.52,-652.35"/>
<text text-anchor="start" x="812" y="-811.8" font-family="arial" font-size="14.00" fill="#377eb8">true</text>
</g>
<!-- ID_6_ct0_st0123 -->
<g id="node8" class="node">
<title>ID_6_ct0_st0123</title>
<polygon fill="none" stroke="black" points="1792,-323 1669,-323 1669,-273 1792,-273 1792,-323"/>
<text text-anchor="start" x="1677.5" y="-308.8" font-family="arial" font-weight="bold" font-size="14.00">ID_6_ct0_st0123</text>
<text text-anchor="start" x="1677" y="-294.8" font-family="arial" font-size="14.00" fill="#984ea3">(P &amp;&amp; (!Q &amp;&amp; !R))</text>
<text text-anchor="start" x="1718.5" y="-280.8" font-family="arial" font-size="14.00" fill="#ff7f00">true</text>
</g>
<!-- ID_6_ct0_st0&#45;&gt;ID_6_ct0_st0123 -->
<g id="edge8" class="edge">
<title>ID_6_ct0_st0&#45;&gt;ID_6_ct0_st0123</title>
<path fill="none" stroke="black" d="M199.71,-749.31C204.7,-790.5 220.58,-871.84 270,-916 302.31,-944.87 321.17,-940 364.5,-940 364.5,-940 364.5,-940 1547,-940 1594.44,-940 1619.18,-951.18 1651,-916 1729.08,-829.65 1731.35,-451.5 1730.1,-333.38"/>
<polygon fill="black" stroke="black" points="1733.6,-333.05 1729.97,-323.1 1726.6,-333.14 1733.6,-333.05"/>
<text text-anchor="start" x="910" y="-943.8" font-family="arial" font-size="14.00" fill="#377eb8">true</text>
</g>
<!-- _ID_6_ct0_st01 -->
<!-- _ID_6_ct0_st01&#45;&gt;ID_6_ct0_st01 -->
<g id="edge2" class="edge">
<title>_ID_6_ct0_st01&#45;&gt;ID_6_ct0_st01</title>
<path fill="none" stroke="black" d="M210.6,-225.36C238.66,-264.68 304.89,-357.48 340.64,-407.56"/>
<polygon fill="black" stroke="black" points="337.86,-409.7 346.52,-415.81 343.56,-405.63 337.86,-409.7"/>
</g>
<!-- ID_6_ct0_st01&#45;&gt;ID_6_ct0_st0 -->
<g id="edge9" class="edge">
<title>ID_6_ct0_st01&#45;&gt;ID_6_ct0_st0</title>
<path fill="none" stroke="black" d="M337.26,-466.11C316.69,-486.18 288.88,-515.87 270,-546 241.09,-592.13 219.58,-651.77 207.78,-688.95"/>
<polygon fill="black" stroke="black" points="204.34,-688.23 204.71,-698.81 211.03,-690.3 204.34,-688.23"/>
<text text-anchor="start" x="274.5" y="-549.8" font-family="arial" font-size="14.00" fill="#377eb8">Q&#39;</text>
</g>
<!-- ID_6_ct0_st01&#45;&gt;ID_6_ct0_st01 -->
<g id="edge12" class="edge">
<title>ID_6_ct0_st01&#45;&gt;ID_6_ct0_st01</title>
<path fill="none" stroke="black" d="M350.19,-466.18C349.5,-475.91 354.61,-484 365.5,-484 372.31,-484 376.85,-480.84 379.14,-476.09"/>
<polygon fill="black" stroke="black" points="382.6,-476.62 380.81,-466.18 375.7,-475.45 382.6,-476.62"/>
<text text-anchor="start" x="353.5" y="-487.8" font-family="arial" font-size="14.00" fill="#377eb8">true</text>
</g>
<!-- ID_6_ct0_st01&#45;&gt;ID_6_ct0_st012 -->
<g id="edge13" class="edge">
<title>ID_6_ct0_st01&#45;&gt;ID_6_ct0_st012</title>
<path fill="none" stroke="black" d="M419.21,-452.39C425.2,-453.64 431.23,-454.86 437,-456 668.35,-501.65 724.2,-529.16 959,-551 1121.41,-566.1 1164.05,-533.59 1326,-553 1389.04,-560.56 1404.37,-567.15 1465,-586 1468.81,-587.18 1472.7,-588.46 1476.61,-589.8"/>
<polygon fill="black" stroke="black" points="1475.75,-593.2 1486.34,-593.22 1478.07,-586.6 1475.75,-593.2"/>
<text text-anchor="start" x="910" y="-552.8" font-family="arial" font-size="14.00" fill="#377eb8">true</text>
</g>
<!-- ID_6_ct0_st01&#45;&gt;ID_6_ct0_st0123 -->
<g id="edge14" class="edge">
<title>ID_6_ct0_st01&#45;&gt;ID_6_ct0_st0123</title>
<path fill="none" stroke="black" d="M415,-415.89C416.44,-414.34 417.79,-412.71 419,-411 444.83,-374.49 427.51,-355.7 437,-312 453.15,-237.63 424.72,-199.34 479,-146 494.06,-131.2 851.74,-51 921,-51 921,-51 921,-51 1547,-51 1651.22,-51 1702.68,-195 1721.19,-263.1"/>
<polygon fill="black" stroke="black" points="1717.86,-264.18 1723.79,-272.96 1724.63,-262.4 1717.86,-264.18"/>
<text text-anchor="start" x="1008.5" y="-54.8" font-family="arial" font-size="14.00" fill="#377eb8">true</text>
</g>
<!-- ID_6_ct0_st02 -->
<g id="node9" class="node">
<title>ID_6_ct0_st02</title>
<polygon fill="none" stroke="black" points="1326,-666 1203,-666 1203,-616 1326,-616 1326,-666"/>
<text text-anchor="start" x="1219" y="-651.8" font-family="arial" font-weight="bold" font-size="14.00">ID_6_ct0_st02</text>
<text text-anchor="start" x="1211" y="-637.8" font-family="arial" font-size="14.00" fill="#984ea3">(!P &amp;&amp; (!Q &amp;&amp; R))</text>
<text text-anchor="start" x="1252.5" y="-623.8" font-family="arial" font-size="14.00" fill="#ff7f00">true</text>
</g>
<!-- ID_6_ct0_st01&#45;&gt;ID_6_ct0_st02 -->
<g id="edge10" class="edge">
<title>ID_6_ct0_st01&#45;&gt;ID_6_ct0_st02</title>
<path fill="none" stroke="black" d="M373.82,-466.03C383.43,-494.02 403.17,-538.25 437,-560 561.25,-639.89 1016.16,-643.78 1192.75,-642.15"/>
<polygon fill="black" stroke="black" points="1193,-645.65 1202.97,-642.05 1192.93,-638.65 1193,-645.65"/>
<text text-anchor="start" x="812" y="-639.8" font-family="arial" font-size="14.00" fill="#377eb8">true</text>
</g>
<!-- ID_6_ct0_st023 -->
<g id="node10" class="node">
<title>ID_6_ct0_st023</title>
<polygon fill="none" stroke="black" points="606,-372 479,-372 479,-322 606,-322 606,-372"/>
<text text-anchor="start" x="493.5" y="-357.8" font-family="arial" font-weight="bold" font-size="14.00">ID_6_ct0_st023</text>
<text text-anchor="start" x="487" y="-343.8" font-family="arial" font-size="14.00" fill="#984ea3">(!P &amp;&amp; (!Q &amp;&amp; !R))</text>
<text text-anchor="start" x="530.5" y="-329.8" font-family="arial" font-size="14.00" fill="#ff7f00">true</text>
</g>
<!-- ID_6_ct0_st01&#45;&gt;ID_6_ct0_st023 -->
<g id="edge11" class="edge">
<title>ID_6_ct0_st01&#45;&gt;ID_6_ct0_st023</title>
<path fill="none" stroke="black" d="M383.93,-415.8C396.7,-399.31 415.5,-378.73 437,-367 446.85,-361.63 457.9,-357.68 469.03,-354.78"/>
<polygon fill="black" stroke="black" points="469.87,-358.18 478.81,-352.5 468.28,-351.37 469.87,-358.18"/>
<text text-anchor="start" x="437" y="-370.8" font-family="arial" font-size="14.00" fill="#377eb8">true</text>
</g>
<!-- _ID_6_ct0_st012 -->
<!-- _ID_6_ct0_st012&#45;&gt;ID_6_ct0_st012 -->
<g id="edge3" class="edge">
<title>_ID_6_ct0_st012&#45;&gt;ID_6_ct0_st012</title>
<path fill="none" stroke="black" d="M1324.09,-587.76C1368.53,-593.64 1429.73,-601.74 1476.45,-607.93"/>
<polygon fill="black" stroke="black" points="1476.11,-611.41 1486.48,-609.25 1477.03,-604.47 1476.11,-611.41"/>
</g>
<!-- ID_6_ct0_st012&#45;&gt;ID_6_ct0_st0 -->
<g id="edge21" class="edge">
<title>ID_6_ct0_st012&#45;&gt;ID_6_ct0_st0</title>
<path fill="none" stroke="black" d="M1537.06,-642.27C1525.75,-674.69 1502.13,-730.91 1465,-766 1393.9,-833.19 1363.33,-859 1265.5,-859 364.5,-859 364.5,-859 364.5,-859 300.07,-859 246.52,-797.48 218.53,-757.5"/>
<polygon fill="black" stroke="black" points="221.31,-755.36 212.79,-749.08 215.53,-759.31 221.31,-755.36"/>
<text text-anchor="start" x="816.5" y="-862.8" font-family="arial" font-size="14.00" fill="#377eb8">Q&#39;</text>
</g>
<!-- ID_6_ct0_st012&#45;&gt;ID_6_ct0_st01 -->
<g id="edge24" class="edge">
<title>ID_6_ct0_st012&#45;&gt;ID_6_ct0_st01</title>
<path fill="none" stroke="black" d="M1500.15,-642.06C1457.04,-664.57 1389.28,-695.88 1326,-708 1149.95,-741.73 1102.25,-724 923,-724 541.5,-724 541.5,-724 541.5,-724 492.79,-724 470.9,-725.97 437,-691 379.62,-631.81 368.24,-529.67 366.42,-476.1"/>
<polygon fill="black" stroke="black" points="369.92,-475.98 366.18,-466.06 362.92,-476.15 369.92,-475.98"/>
<text text-anchor="start" x="910" y="-727.8" font-family="arial" font-size="14.00" fill="#377eb8">true</text>
</g>
<!-- ID_6_ct0_st012&#45;&gt;ID_6_ct0_st012 -->
<g id="edge25" class="edge">
<title>ID_6_ct0_st012&#45;&gt;ID_6_ct0_st012</title>
<path fill="none" stroke="black" d="M1528.82,-642.18C1528.05,-651.91 1533.78,-660 1546,-660 1553.64,-660 1558.74,-656.84 1561.3,-652.09"/>
<polygon fill="black" stroke="black" points="1564.76,-652.65 1563.18,-642.18 1557.88,-651.35 1564.76,-652.65"/>
<text text-anchor="start" x="1534" y="-663.8" font-family="arial" font-size="14.00" fill="#377eb8">true</text>
</g>
<!-- ID_6_ct0_st012&#45;&gt;ID_6_ct0_st0123 -->
<g id="edge26" class="edge">
<title>ID_6_ct0_st012&#45;&gt;ID_6_ct0_st0123</title>
<path fill="none" stroke="black" d="M1596.08,-591.93C1616.26,-579.12 1637.93,-561.63 1651,-540 1691.55,-472.91 1713.6,-382.53 1723.32,-333.4"/>
<polygon fill="black" stroke="black" points="1726.81,-333.76 1725.26,-323.28 1719.94,-332.44 1726.81,-333.76"/>
<text text-anchor="start" x="1627" y="-569.8" font-family="arial" font-size="14.00" fill="#377eb8">true</text>
</g>
<!-- ID_6_ct0_st012&#45;&gt;ID_6_ct0_st02 -->
<g id="edge22" class="edge">
<title>ID_6_ct0_st012&#45;&gt;ID_6_ct0_st02</title>
<path fill="none" stroke="black" d="M1486.19,-629.85C1479.08,-631.08 1471.89,-632.18 1465,-633 1422.5,-638.07 1374.59,-640.11 1336.38,-640.86"/>
<polygon fill="black" stroke="black" points="1336.31,-637.36 1326.37,-641.04 1336.43,-644.36 1336.31,-637.36"/>
<text text-anchor="start" x="1392.5" y="-643.8" font-family="arial" font-size="14.00" fill="#377eb8">true</text>
</g>
<!-- ID_6_ct0_st012&#45;&gt;ID_6_ct0_st023 -->
<g id="edge23" class="edge">
<title>ID_6_ct0_st012&#45;&gt;ID_6_ct0_st023</title>
<path fill="none" stroke="black" d="M1491.87,-592C1488.61,-589.26 1485.6,-586.26 1483,-583 1464.83,-560.24 1487.09,-538.98 1465,-520 1405.56,-468.93 840.37,-464.47 763,-452 699.89,-441.83 680.68,-444.57 624,-415 606.21,-405.72 588.88,-391.91 574.89,-379.15"/>
<polygon fill="black" stroke="black" points="577.17,-376.49 567.48,-372.21 572.39,-381.6 577.17,-376.49"/>
<text text-anchor="start" x="1008.5" y="-472.8" font-family="arial" font-size="14.00" fill="#377eb8">true</text>
</g>
<!-- _ID_6_ct0_st0123 -->
<!-- _ID_6_ct0_st0123&#45;&gt;ID_6_ct0_st0123 -->
<g id="edge4" class="edge">
<title>_ID_6_ct0_st0123&#45;&gt;ID_6_ct0_st0123</title>
<path fill="none" stroke="black" d="M1609.07,-543.85C1624.33,-538.38 1639.55,-530.45 1651,-519 1702.08,-467.89 1720.07,-381.43 1726.29,-333.2"/>
<polygon fill="black" stroke="black" points="1729.77,-333.57 1727.48,-323.23 1722.82,-332.74 1729.77,-333.57"/>
</g>
<!-- ID_6_ct0_st0123&#45;&gt;ID_6_ct0_st0 -->
<g id="edge33" class="edge">
<title>ID_6_ct0_st0123&#45;&gt;ID_6_ct0_st0</title>
<path fill="none" stroke="black" d="M1727.48,-323.18C1717.61,-437.5 1669.96,-902 1547,-902 364.5,-902 364.5,-902 364.5,-902 286.67,-902 234.56,-810.38 211.32,-758.6"/>
<polygon fill="black" stroke="black" points="214.4,-756.89 207.19,-749.13 207.98,-759.69 214.4,-756.89"/>
<text text-anchor="start" x="914.5" y="-905.8" font-family="arial" font-size="14.00" fill="#377eb8">Q&#39;</text>
</g>
<!-- ID_6_ct0_st0123&#45;&gt;ID_6_ct0_st01 -->
<g id="edge36" class="edge">
<title>ID_6_ct0_st0123&#45;&gt;ID_6_ct0_st01</title>
<path fill="none" stroke="black" d="M1726.32,-272.85C1715.69,-201.01 1674.55,0 1547,0 541.5,0 541.5,0 541.5,0 454.7,0 457.55,-80.66 437,-165 424.74,-215.34 445.69,-348.9 420.5,-406.39"/>
<polygon fill="black" stroke="black" points="417.22,-405.09 415.65,-415.57 423.41,-408.36 417.22,-405.09"/>
<text text-anchor="start" x="1008.5" y="-3.8" font-family="arial" font-size="14.00" fill="#377eb8">true</text>
</g>
<!-- ID_6_ct0_st0123&#45;&gt;ID_6_ct0_st0123 -->
<g id="edge38" class="edge">
<title>ID_6_ct0_st0123&#45;&gt;ID_6_ct0_st0123</title>
<path fill="none" stroke="black" d="M1713.69,-323.18C1712.94,-332.91 1718.55,-341 1730.5,-341 1737.97,-341 1742.96,-337.84 1745.47,-333.09"/>
<polygon fill="black" stroke="black" points="1748.93,-333.65 1747.31,-323.18 1742.04,-332.37 1748.93,-333.65"/>
<text text-anchor="start" x="1718.5" y="-344.8" font-family="arial" font-size="14.00" fill="#377eb8">true</text>
</g>
<!-- ID_6_ct0_st0123&#45;&gt;ID_6_ct0_st023 -->
<g id="edge35" class="edge">
<title>ID_6_ct0_st0123&#45;&gt;ID_6_ct0_st023</title>
<path fill="none" stroke="black" d="M1668.68,-291.33C1662.71,-290.82 1656.74,-290.36 1651,-290 1514.82,-281.45 1480.44,-288.72 1344,-289 1235.55,-289.22 1208.3,-284.44 1100,-290 887.69,-300.89 835.28,-313.45 624,-337 621.49,-337.28 618.94,-337.57 616.36,-337.87"/>
<polygon fill="black" stroke="black" points="615.85,-334.4 606.32,-339.04 616.66,-341.35 615.85,-334.4"/>
<text text-anchor="start" x="1130.5" y="-293.8" font-family="arial" font-size="14.00" fill="#377eb8">true</text>
</g>
<!-- ID_6_ct0_st024 -->
<g id="node11" class="node">
<title>ID_6_ct0_st024</title>
<polygon fill="none" stroke="black" points="1082,-238 959,-238 959,-188 1082,-188 1082,-238"/>
<text text-anchor="start" x="971.5" y="-223.8" font-family="arial" font-weight="bold" font-size="14.00">ID_6_ct0_st024</text>
<text text-anchor="start" x="967" y="-209.8" font-family="arial" font-size="14.00" fill="#984ea3">(!P &amp;&amp; (!Q &amp;&amp; R))</text>
<text text-anchor="start" x="997.5" y="-195.8" font-family="arial" font-size="14.00" fill="#ff7f00">c0 &lt;= 5</text>
</g>
<!-- ID_6_ct0_st0123&#45;&gt;ID_6_ct0_st024 -->
<g id="edge34" class="edge">
<title>ID_6_ct0_st0123&#45;&gt;ID_6_ct0_st024</title>
<path fill="none" stroke="black" d="M1699.18,-272.99C1685.29,-262.77 1668.12,-251.78 1651,-245 1573.14,-214.18 1548.45,-221.88 1465,-215 1333.79,-204.19 1180.01,-206.93 1092.34,-209.94"/>
<polygon fill="black" stroke="black" points="1092.12,-206.44 1082.25,-210.3 1092.36,-213.44 1092.12,-206.44"/>
<text text-anchor="start" x="1392.5" y="-233.8" font-family="arial" font-size="14.00" fill="#377eb8">true</text>
<text text-anchor="start" x="1385.5" y="-218.8" font-family="arial" font-size="14.00">c0 :=0</text>
</g>
<!-- ID_6_ct0_st0124 -->
<g id="node12" class="node">
<title>ID_6_ct0_st0124</title>
<polygon fill="none" stroke="black" points="885,-410 763,-410 763,-360 885,-360 885,-410"/>
<text text-anchor="start" x="771" y="-395.8" font-family="arial" font-weight="bold" font-size="14.00">ID_6_ct0_st0124</text>
<text text-anchor="start" x="772.5" y="-381.8" font-family="arial" font-size="14.00" fill="#984ea3">(P &amp;&amp; (!Q &amp;&amp; R))</text>
<text text-anchor="start" x="801" y="-367.8" font-family="arial" font-size="14.00" fill="#ff7f00">c0 &lt;= 5</text>
</g>
<!-- ID_6_ct0_st0123&#45;&gt;ID_6_ct0_st0124 -->
<g id="edge37" class="edge">
<title>ID_6_ct0_st0123&#45;&gt;ID_6_ct0_st0124</title>
<path fill="none" stroke="black" d="M1668.86,-295.18C1570.65,-291.46 1370.86,-287.36 1203,-306 1094.27,-318.08 970.58,-346.85 895.17,-366.14"/>
<polygon fill="black" stroke="black" points="894.12,-362.79 885.31,-368.67 895.87,-369.57 894.12,-362.79"/>
<text text-anchor="start" x="1252.5" y="-324.8" font-family="arial" font-size="14.00" fill="#377eb8">true</text>
<text text-anchor="start" x="1245.5" y="-309.8" font-family="arial" font-size="14.00">c0 :=0</text>
</g>
<!-- ID_6_ct0_st02&#45;&gt;ID_6_ct0_st0 -->
<g id="edge15" class="edge">
<title>ID_6_ct0_st02&#45;&gt;ID_6_ct0_st0</title>
<path fill="none" stroke="black" d="M1235.25,-666.07C1192.29,-701.51 1106.52,-762 1021.5,-762 364.5,-762 364.5,-762 364.5,-762 327.88,-762 287.84,-753.2 256.14,-744.07"/>
<polygon fill="black" stroke="black" points="256.75,-740.6 246.16,-741.11 254.75,-747.31 256.75,-740.6"/>
<text text-anchor="start" x="677" y="-765.8" font-family="arial" font-size="14.00" fill="#377eb8">Q&#39;</text>
</g>
<!-- ID_6_ct0_st02&#45;&gt;ID_6_ct0_st01 -->
<g id="edge18" class="edge">
<title>ID_6_ct0_st02&#45;&gt;ID_6_ct0_st01</title>
<path fill="none" stroke="black" d="M1202.81,-653.77C1196.81,-654.68 1190.8,-655.45 1185,-656 1147.39,-659.56 1137.78,-656.06 1100,-656 823.21,-655.59 734.42,-715.64 479,-609 423.22,-585.71 391.58,-517.74 376.84,-475.74"/>
<polygon fill="black" stroke="black" points="380.13,-474.53 373.62,-466.17 373.5,-476.77 380.13,-474.53"/>
<text text-anchor="start" x="812" y="-675.8" font-family="arial" font-size="14.00" fill="#377eb8">true</text>
</g>
<!-- ID_6_ct0_st02&#45;&gt;ID_6_ct0_st012 -->
<g id="edge19" class="edge">
<title>ID_6_ct0_st02&#45;&gt;ID_6_ct0_st012</title>
<path fill="none" stroke="black" d="M1326.41,-621.36C1332.31,-620 1338.24,-618.84 1344,-618 1387.58,-611.64 1437.05,-611.3 1476.01,-612.6"/>
<polygon fill="black" stroke="black" points="1476.06,-616.11 1486.19,-612.99 1476.33,-609.11 1476.06,-616.11"/>
<text text-anchor="start" x="1392.5" y="-621.8" font-family="arial" font-size="14.00" fill="#377eb8">true</text>
</g>
<!-- ID_6_ct0_st02&#45;&gt;ID_6_ct0_st0123 -->
<g id="edge20" class="edge">
<title>ID_6_ct0_st02&#45;&gt;ID_6_ct0_st0123</title>
<path fill="none" stroke="black" d="M1312.7,-615.86C1388.51,-574.25 1540.13,-485.88 1651,-388 1670.41,-370.86 1689.56,-349.03 1704.09,-331.16"/>
<polygon fill="black" stroke="black" points="1706.9,-333.25 1710.42,-323.26 1701.44,-328.87 1706.9,-333.25"/>
<text text-anchor="start" x="1534" y="-513.8" font-family="arial" font-size="14.00" fill="#377eb8">true</text>
</g>
<!-- ID_6_ct0_st02&#45;&gt;ID_6_ct0_st02 -->
<g id="edge16" class="edge">
<title>ID_6_ct0_st02&#45;&gt;ID_6_ct0_st02</title>
<path fill="none" stroke="black" d="M1241.71,-666.18C1240.7,-675.91 1248.3,-684 1264.5,-684 1274.63,-684 1281.39,-680.84 1284.79,-676.09"/>
<polygon fill="black" stroke="black" points="1288.24,-676.73 1287.29,-666.18 1281.45,-675.02 1288.24,-676.73"/>
<text text-anchor="start" x="1252.5" y="-687.8" font-family="arial" font-size="14.00" fill="#377eb8">true</text>
</g>
<!-- ID_6_ct0_st02&#45;&gt;ID_6_ct0_st023 -->
<g id="edge17" class="edge">
<title>ID_6_ct0_st02&#45;&gt;ID_6_ct0_st023</title>
<path fill="none" stroke="black" d="M1202.65,-630.1C1196.69,-629.05 1190.73,-628 1185,-627 1058.31,-604.92 714.79,-576.08 624,-485 606.14,-467.08 617.7,-453.43 606,-431 596.64,-413.05 583.59,-394.82 571.84,-379.95"/>
<polygon fill="black" stroke="black" points="574.48,-377.64 565.48,-372.06 569.03,-382.04 574.48,-377.64"/>
<text text-anchor="start" x="910" y="-593.8" font-family="arial" font-size="14.00" fill="#377eb8">true</text>
</g>
<!-- ID_6_ct0_st023&#45;&gt;ID_6_ct0_st0 -->
<g id="edge27" class="edge">
<title>ID_6_ct0_st023&#45;&gt;ID_6_ct0_st0</title>
<path fill="none" stroke="black" d="M478.88,-342.05C427.39,-341.57 355.98,-349.72 312,-392 227.09,-473.62 205.13,-621.09 199.46,-688.57"/>
<polygon fill="black" stroke="black" points="195.96,-688.45 198.69,-698.69 202.94,-688.98 195.96,-688.45"/>
<text text-anchor="start" x="358" y="-395.8" font-family="arial" font-size="14.00" fill="#377eb8">Q&#39;</text>
</g>
<!-- ID_6_ct0_st023&#45;&gt;ID_6_ct0_st01 -->
<g id="edge30" class="edge">
<title>ID_6_ct0_st023&#45;&gt;ID_6_ct0_st01</title>
<path fill="none" stroke="black" d="M494.78,-372.1C472.55,-384.04 445.79,-398.41 422.48,-410.93"/>
<polygon fill="black" stroke="black" points="420.55,-407.99 413.4,-415.81 423.86,-414.16 420.55,-407.99"/>
<text text-anchor="start" x="437" y="-405.8" font-family="arial" font-size="14.00" fill="#377eb8">true</text>
</g>
<!-- ID_6_ct0_st023&#45;&gt;ID_6_ct0_st0123 -->
<g id="edge32" class="edge">
<title>ID_6_ct0_st023&#45;&gt;ID_6_ct0_st0123</title>
<path fill="none" stroke="black" d="M551.46,-321.83C562.5,-291.45 585.56,-241.39 624,-217 939.99,-16.47 1091.03,-160.61 1465,-175 1529.05,-177.46 1549.19,-159.94 1609,-183 1650.08,-198.84 1684.92,-236.51 1706.41,-264.45"/>
<polygon fill="black" stroke="black" points="1703.85,-266.87 1712.64,-272.77 1709.45,-262.67 1703.85,-266.87"/>
<text text-anchor="start" x="1130.5" y="-144.8" font-family="arial" font-size="14.00" fill="#377eb8">true</text>
</g>
<!-- ID_6_ct0_st023&#45;&gt;ID_6_ct0_st023 -->
<g id="edge29" class="edge">
<title>ID_6_ct0_st023&#45;&gt;ID_6_ct0_st023</title>
<path fill="none" stroke="black" d="M525.32,-372.18C524.55,-381.91 530.28,-390 542.5,-390 550.14,-390 555.24,-386.84 557.8,-382.09"/>
<polygon fill="black" stroke="black" points="561.26,-382.65 559.68,-372.18 554.38,-381.35 561.26,-382.65"/>
<text text-anchor="start" x="530.5" y="-393.8" font-family="arial" font-size="14.00" fill="#377eb8">true</text>
</g>
<!-- ID_6_ct0_st023&#45;&gt;ID_6_ct0_st024 -->
<g id="edge28" class="edge">
<title>ID_6_ct0_st023&#45;&gt;ID_6_ct0_st024</title>
<path fill="none" stroke="black" d="M588.2,-321.84C599.63,-316.08 612.07,-310.37 624,-306 734.36,-265.59 868.61,-238.38 948.9,-224.31"/>
<polygon fill="black" stroke="black" points="949.64,-227.74 958.89,-222.58 948.44,-220.84 949.64,-227.74"/>
<text text-anchor="start" x="812" y="-281.8" font-family="arial" font-size="14.00" fill="#377eb8">true</text>
<text text-anchor="start" x="805" y="-266.8" font-family="arial" font-size="14.00">c0 :=0</text>
</g>
<!-- ID_6_ct0_st023&#45;&gt;ID_6_ct0_st0124 -->
<g id="edge31" class="edge">
<title>ID_6_ct0_st023&#45;&gt;ID_6_ct0_st0124</title>
<path fill="none" stroke="black" d="M606.09,-365.32C612.11,-366.71 618.15,-367.97 624,-369 666.46,-376.44 714.64,-380.43 752.96,-382.56"/>
<polygon fill="black" stroke="black" points="752.81,-386.06 762.98,-383.09 753.18,-379.07 752.81,-386.06"/>
<text text-anchor="start" x="672.5" y="-399.8" font-family="arial" font-size="14.00" fill="#377eb8">true</text>
<text text-anchor="start" x="665.5" y="-384.8" font-family="arial" font-size="14.00">c0 :=0</text>
</g>
<!-- ID_6_ct0_st024&#45;&gt;ID_6_ct0_st0 -->
<g id="edge39" class="edge">
<title>ID_6_ct0_st024&#45;&gt;ID_6_ct0_st0</title>
<path fill="none" stroke="black" d="M998.41,-187.91C965.44,-151.67 897.88,-89 825,-89 364.5,-89 364.5,-89 364.5,-89 239.5,-89 206.11,-555.03 199.1,-688.61"/>
<polygon fill="black" stroke="black" points="195.6,-688.55 198.59,-698.72 202.59,-688.91 195.6,-688.55"/>
<text text-anchor="start" x="535" y="-92.8" font-family="arial" font-size="14.00" fill="#377eb8">Q&#39;</text>
</g>
<!-- ID_6_ct0_st024&#45;&gt;ID_6_ct0_st01 -->
<g id="edge43" class="edge">
<title>ID_6_ct0_st024&#45;&gt;ID_6_ct0_st01</title>
<path fill="none" stroke="black" d="M975.91,-187.99C900.81,-148.42 743.55,-81.21 624,-136 566.13,-162.52 467.86,-297.32 437,-353 425.4,-373.93 433.5,-386.8 420.74,-407.39"/>
<polygon fill="black" stroke="black" points="417.76,-405.54 414.74,-415.7 423.43,-409.64 417.76,-405.54"/>
<text text-anchor="start" x="672.5" y="-139.8" font-family="arial" font-size="14.00" fill="#377eb8">true</text>
</g>
<!-- ID_6_ct0_st024&#45;&gt;ID_6_ct0_st012 -->
<g id="edge44" class="edge">
<title>ID_6_ct0_st024&#45;&gt;ID_6_ct0_st012</title>
<path fill="none" stroke="black" d="M1040.41,-238.18C1054.99,-256.12 1076.58,-279.67 1100,-295 1246.6,-390.96 1362.04,-302.23 1465,-444 1501.61,-494.4 1447.88,-531.55 1483,-583 1483.28,-583.41 1483.56,-583.81 1483.85,-584.2"/>
<polygon fill="black" stroke="black" points="1481.47,-586.8 1490.75,-591.91 1486.69,-582.13 1481.47,-586.8"/>
<text text-anchor="start" x="1222" y="-358.8" font-family="arial" font-size="14.00" fill="#377eb8">(Q&#39; || c0 &gt;= 5)</text>
</g>
<!-- ID_6_ct0_st024&#45;&gt;ID_6_ct0_st0123 -->
<g id="edge46" class="edge">
<title>ID_6_ct0_st024&#45;&gt;ID_6_ct0_st0123</title>
<path fill="none" stroke="black" d="M1082.04,-201.46C1190.58,-183.26 1424.19,-155.55 1609,-213 1642.02,-223.27 1673.74,-246.36 1696.34,-265.89"/>
<polygon fill="black" stroke="black" points="1694.14,-268.61 1703.94,-272.62 1698.78,-263.37 1694.14,-268.61"/>
<text text-anchor="start" x="1344" y="-188.8" font-family="arial" font-size="14.00" fill="#377eb8">(Q&#39; || (R&#39; || c0 &gt;= 5))</text>
</g>
<!-- ID_6_ct0_st024&#45;&gt;ID_6_ct0_st02 -->
<g id="edge40" class="edge">
<title>ID_6_ct0_st024&#45;&gt;ID_6_ct0_st02</title>
<path fill="none" stroke="black" d="M1023.77,-238.04C1029.21,-285.27 1046.78,-388.69 1100,-455 1127.44,-489.18 1160,-469 1185,-505 1211.25,-542.81 1176.38,-569.45 1203,-607 1203.36,-607.51 1203.73,-608.01 1204.11,-608.5"/>
<polygon fill="black" stroke="black" points="1201.63,-610.97 1210.99,-615.93 1206.76,-606.22 1201.63,-610.97"/>
<text text-anchor="start" x="1100" y="-508.8" font-family="arial" font-size="14.00" fill="#377eb8">(Q&#39; || c0 &gt;= 5)</text>
</g>
<!-- ID_6_ct0_st024&#45;&gt;ID_6_ct0_st023 -->
<g id="edge42" class="edge">
<title>ID_6_ct0_st024&#45;&gt;ID_6_ct0_st023</title>
<path fill="none" stroke="black" d="M958.79,-206.45C876.45,-200.64 727.77,-201.33 624,-266 603.47,-278.8 584.22,-297.8 569.69,-314.18"/>
<polygon fill="black" stroke="black" points="566.85,-312.12 562.96,-321.98 572.14,-316.7 566.85,-312.12"/>
<text text-anchor="start" x="763.5" y="-219.8" font-family="arial" font-size="14.00" fill="#377eb8">(Q&#39; || (R&#39; || c0 &gt;= 5))</text>
</g>
<!-- ID_6_ct0_st024&#45;&gt;ID_6_ct0_st024 -->
<g id="edge41" class="edge">
<title>ID_6_ct0_st024&#45;&gt;ID_6_ct0_st024</title>
<path fill="none" stroke="black" d="M1002.2,-238.18C1001.38,-247.91 1007.48,-256 1020.5,-256 1028.63,-256 1034.07,-252.84 1036.8,-248.09"/>
<polygon fill="black" stroke="black" points="1040.26,-248.67 1038.8,-238.18 1033.39,-247.29 1040.26,-248.67"/>
<text text-anchor="start" x="1001.5" y="-259.8" font-family="arial" font-size="14.00" fill="#377eb8">c0 &lt; 5</text>
</g>
<!-- ID_6_ct0_st024&#45;&gt;ID_6_ct0_st0124 -->
<g id="edge45" class="edge">
<title>ID_6_ct0_st024&#45;&gt;ID_6_ct0_st0124</title>
<path fill="none" stroke="black" d="M994.09,-238.1C978.92,-252.88 959.13,-271.79 941,-288 915.97,-310.38 886.99,-334.62 864.26,-353.26"/>
<polygon fill="black" stroke="black" points="862.02,-350.57 856.49,-359.61 866.45,-355.99 862.02,-350.57"/>
<text text-anchor="start" x="903" y="-324.8" font-family="arial" font-size="14.00" fill="#377eb8">c0 &lt; 5</text>
</g>
<!-- ID_6_ct0_st0124&#45;&gt;ID_6_ct0_st0 -->
<g id="edge47" class="edge">
<title>ID_6_ct0_st0124&#45;&gt;ID_6_ct0_st0</title>
<path fill="none" stroke="black" d="M798.32,-410.06C743.13,-464.61 603.34,-594.62 461,-662 394.62,-693.42 311.09,-709.59 256.09,-717.41"/>
<polygon fill="black" stroke="black" points="255.59,-713.95 246.16,-718.78 256.54,-720.88 255.59,-713.95"/>
<text text-anchor="start" x="441.5" y="-675.8" font-family="arial" font-size="14.00" fill="#377eb8">Q&#39;</text>
</g>
<!-- ID_6_ct0_st0124&#45;&gt;ID_6_ct0_st01 -->
<g id="edge51" class="edge">
<title>ID_6_ct0_st0124&#45;&gt;ID_6_ct0_st01</title>
<path fill="none" stroke="black" d="M763.08,-410.08C757.05,-411.99 750.95,-413.68 745,-415 635.98,-439.14 505.37,-442.71 429.57,-442.37"/>
<polygon fill="black" stroke="black" points="429.27,-438.86 419.24,-442.29 429.22,-445.86 429.27,-438.86"/>
<text text-anchor="start" x="530.5" y="-444.8" font-family="arial" font-size="14.00" fill="#377eb8">true</text>
</g>
<!-- ID_6_ct0_st0124&#45;&gt;ID_6_ct0_st012 -->
<g id="edge52" class="edge">
<title>ID_6_ct0_st0124&#45;&gt;ID_6_ct0_st012</title>
<path fill="none" stroke="black" d="M885.4,-397.76C891.34,-398.9 897.28,-400 903,-401 934.08,-406.42 1442.33,-460.07 1465,-482 1497.77,-513.7 1456.4,-545.96 1483,-583 1483.36,-583.5 1483.73,-583.99 1484.1,-584.48"/>
<polygon fill="black" stroke="black" points="1481.55,-586.87 1490.93,-591.79 1486.66,-582.09 1481.55,-586.87"/>
<text text-anchor="start" x="1100" y="-437.8" font-family="arial" font-size="14.00" fill="#377eb8">(Q&#39; || c0 &gt;= 5)</text>
</g>
<!-- ID_6_ct0_st0124&#45;&gt;ID_6_ct0_st0123 -->
<g id="edge54" class="edge">
<title>ID_6_ct0_st0124&#45;&gt;ID_6_ct0_st0123</title>
<path fill="none" stroke="black" d="M885.35,-386.86C979.68,-389.05 1167.65,-390.54 1326,-374 1443.79,-361.7 1578.65,-333.35 1658.8,-314.97"/>
<polygon fill="black" stroke="black" points="1659.82,-318.33 1668.78,-312.67 1658.25,-311.51 1659.82,-318.33"/>
<text text-anchor="start" x="1204" y="-386.8" font-family="arial" font-size="14.00" fill="#377eb8">(Q&#39; || (R&#39; || c0 &gt;= 5))</text>
</g>
<!-- ID_6_ct0_st0124&#45;&gt;ID_6_ct0_st02 -->
<g id="edge48" class="edge">
<title>ID_6_ct0_st0124&#45;&gt;ID_6_ct0_st02</title>
<path fill="none" stroke="black" d="M852.75,-410.16C878.85,-432.96 919.68,-466.5 959,-490 1053.13,-546.26 1094.44,-527.16 1185,-589 1194.34,-595.38 1193.98,-600.16 1203,-607 1204.39,-608.05 1205.81,-609.09 1207.26,-610.12"/>
<polygon fill="black" stroke="black" points="1205.55,-613.19 1215.8,-615.85 1209.45,-607.38 1205.55,-613.19"/>
<text text-anchor="start" x="978" y="-542.8" font-family="arial" font-size="14.00" fill="#377eb8">(Q&#39; || c0 &gt;= 5)</text>
</g>
<!-- ID_6_ct0_st0124&#45;&gt;ID_6_ct0_st023 -->
<g id="edge50" class="edge">
<title>ID_6_ct0_st0124&#45;&gt;ID_6_ct0_st023</title>
<path fill="none" stroke="black" d="M775.37,-359.98C765.57,-355.89 755.14,-352.25 745,-350 703.14,-340.71 655.18,-339.63 616.56,-341.02"/>
<polygon fill="black" stroke="black" points="616.28,-337.53 606.44,-341.45 616.58,-344.53 616.28,-337.53"/>
<text text-anchor="start" x="624" y="-353.8" font-family="arial" font-size="14.00" fill="#377eb8">(Q&#39; || (R&#39; || c0 &gt;= 5))</text>
</g>
<!-- ID_6_ct0_st0124&#45;&gt;ID_6_ct0_st024 -->
<g id="edge49" class="edge">
<title>ID_6_ct0_st0124&#45;&gt;ID_6_ct0_st024</title>
<path fill="none" stroke="black" d="M842.1,-359.7C854.13,-341.9 870.58,-317.51 885,-296 893.03,-284.02 892.11,-278.46 903,-269 911.34,-261.76 930.49,-251.8 950.9,-242.3"/>
<polygon fill="black" stroke="black" points="952.39,-245.46 960.02,-238.11 949.47,-239.1 952.39,-245.46"/>
<text text-anchor="start" x="903" y="-272.8" font-family="arial" font-size="14.00" fill="#377eb8">c0 &lt; 5</text>
</g>
<!-- ID_6_ct0_st0124&#45;&gt;ID_6_ct0_st0124 -->
<g id="edge53" class="edge">
<title>ID_6_ct0_st0124&#45;&gt;ID_6_ct0_st0124</title>
<path fill="none" stroke="black" d="M805.7,-410.18C804.88,-419.91 810.98,-428 824,-428 832.13,-428 837.57,-424.84 840.3,-420.09"/>
<polygon fill="black" stroke="black" points="843.76,-420.67 842.3,-410.18 836.89,-419.29 843.76,-420.67"/>
<text text-anchor="start" x="805" y="-431.8" font-family="arial" font-size="14.00" fill="#377eb8">c0 &lt; 5</text>
</g>
</g>
</svg>
