<?xml version="1.0" encoding="UTF-8" standalone="no"?>
<!DOCTYPE svg PUBLIC "-//W3C//DTD SVG 1.1//EN"
 "http://www.w3.org/Graphics/SVG/1.1/DTD/svg11.dtd">
<!-- Generated by graphviz version 2.43.0 (0)
 -->
<!-- Title: G Pages: 1 -->
<svg width="830pt" height="237pt"
 viewBox="0.00 0.00 830.00 236.65" xmlns="http://www.w3.org/2000/svg" xmlns:xlink="http://www.w3.org/1999/xlink">
<g id="graph0" class="graph" transform="scale(1 1) rotate(0) translate(4 232.65)">
<title>G</title>
<polygon fill="white" stroke="transparent" points="-4,4 -4,-232.65 826,-232.65 826,4 -4,4"/>
<!-- _ID_7_ct0_st -->
<!-- ID_7_ct0_st -->
<g id="node2" class="node">
<title>ID_7_ct0_st</title>
<polygon fill="none" stroke="black" points="822,-167.65 730,-167.65 730,-117.65 822,-117.65 822,-167.65"/>
<text text-anchor="start" x="738" y="-153.45" font-family="arial" font-weight="bold" font-size="14.00">ID_7_ct0_st</text>
<text text-anchor="start" x="764" y="-139.45" font-family="arial" font-size="14.00" fill="#984ea3">true</text>
<text text-anchor="start" x="764" y="-125.45" font-family="arial" font-size="14.00" fill="#ff7f00">true</text>
</g>
<!-- _ID_7_ct0_st&#45;&gt;ID_7_ct0_st -->
<g id="edge1" class="edge">
<title>_ID_7_ct0_st&#45;&gt;ID_7_ct0_st</title>
<path fill="none" stroke="black" d="M675.84,-193.95C687.79,-189.35 700.5,-184.1 712,-178.65 716.01,-176.75 720.12,-174.69 724.21,-172.55"/>
<polygon fill="black" stroke="black" points="725.96,-175.58 733.11,-167.77 722.65,-169.41 725.96,-175.58"/>
</g>
<!-- ID_7_ct0_st&#45;&gt;ID_7_ct0_st -->
<g id="edge4" class="edge">
<title>ID_7_ct0_st&#45;&gt;ID_7_ct0_st</title>
<path fill="none" stroke="black" d="M762.93,-167.83C762.35,-177.56 766.7,-185.65 776,-185.65 781.81,-185.65 785.69,-182.49 787.64,-177.75"/>
<polygon fill="black" stroke="black" points="791.11,-178.23 789.07,-167.83 784.18,-177.23 791.11,-178.23"/>
<text text-anchor="start" x="764" y="-189.45" font-family="arial" font-size="14.00" fill="#377eb8">true</text>
</g>
<!-- _ID_7_ct0_st0 -->
<!-- ID_7_ct0_st0 -->
<g id="node4" class="node">
<title>ID_7_ct0_st0</title>
<polygon fill="none" stroke="black" points="246,-146.65 147,-146.65 147,-96.65 246,-96.65 246,-146.65"/>
<text text-anchor="start" x="155" y="-132.45" font-family="arial" font-weight="bold" font-size="14.00">ID_7_ct0_st0</text>
<text text-anchor="start" x="167.5" y="-118.45" font-family="arial" font-size="14.00" fill="#984ea3">(!P &amp;&amp; R)</text>
<text text-anchor="start" x="184.5" y="-104.45" font-family="arial" font-size="14.00" fill="#ff7f00">true</text>
</g>
<!-- _ID_7_ct0_st0&#45;&gt;ID_7_ct0_st0 -->
<g id="edge2" class="edge">
<title>_ID_7_ct0_st0&#45;&gt;ID_7_ct0_st0</title>
<path fill="none" stroke="black" d="M104.04,-121.65C114.57,-121.65 125.75,-121.65 136.53,-121.65"/>
<polygon fill="black" stroke="black" points="136.72,-125.15 146.72,-121.65 136.72,-118.15 136.72,-125.15"/>
</g>
<!-- ID_7_ct0_st0&#45;&gt;ID_7_ct0_st -->
<g id="edge5" class="edge">
<title>ID_7_ct0_st0&#45;&gt;ID_7_ct0_st</title>
<path fill="none" stroke="black" d="M246.16,-130.95C254.11,-132.3 262.27,-133.59 270,-134.65 288.58,-137.2 293.28,-137.51 312,-138.65 475.73,-148.62 516.99,-148.27 681,-145.65 693.37,-145.46 706.66,-145.11 719.23,-144.73"/>
<polygon fill="black" stroke="black" points="719.7,-148.21 729.59,-144.39 719.48,-141.22 719.7,-148.21"/>
<text text-anchor="start" x="490" y="-150.45" font-family="arial" font-size="14.00" fill="#377eb8">P&#39;</text>
</g>
<!-- ID_7_ct0_st0&#45;&gt;ID_7_ct0_st0 -->
<g id="edge6" class="edge">
<title>ID_7_ct0_st0&#45;&gt;ID_7_ct0_st0</title>
<path fill="none" stroke="black" d="M182.68,-146.83C182.06,-156.56 186.67,-164.65 196.5,-164.65 202.64,-164.65 206.75,-161.49 208.81,-156.75"/>
<polygon fill="black" stroke="black" points="212.27,-157.24 210.32,-146.83 205.35,-156.19 212.27,-157.24"/>
<text text-anchor="start" x="184.5" y="-168.45" font-family="arial" font-size="14.00" fill="#377eb8">true</text>
</g>
<!-- ID_7_ct0_st01 -->
<g id="node6" class="node">
<title>ID_7_ct0_st01</title>
<polygon fill="none" stroke="black" points="419,-52.65 312,-52.65 312,-2.65 419,-2.65 419,-52.65"/>
<text text-anchor="start" x="320" y="-38.45" font-family="arial" font-weight="bold" font-size="14.00">ID_7_ct0_st01</text>
<text text-anchor="start" x="335" y="-24.45" font-family="arial" font-size="14.00" fill="#984ea3">(!P &amp;&amp; !R)</text>
<text text-anchor="start" x="353.5" y="-10.45" font-family="arial" font-size="14.00" fill="#ff7f00">true</text>
</g>
<!-- ID_7_ct0_st0&#45;&gt;ID_7_ct0_st01 -->
<g id="edge7" class="edge">
<title>ID_7_ct0_st0&#45;&gt;ID_7_ct0_st01</title>
<path fill="none" stroke="black" d="M242.25,-96.46C263.4,-84.56 288.8,-70.26 310.96,-57.79"/>
<polygon fill="black" stroke="black" points="312.92,-60.7 319.91,-52.75 309.48,-54.6 312.92,-60.7"/>
<text text-anchor="start" x="270" y="-83.45" font-family="arial" font-size="14.00" fill="#377eb8">true</text>
</g>
<!-- _ID_7_ct0_st01 -->
<!-- _ID_7_ct0_st01&#45;&gt;ID_7_ct0_st01 -->
<g id="edge3" class="edge">
<title>_ID_7_ct0_st01&#45;&gt;ID_7_ct0_st01</title>
<path fill="none" stroke="black" d="M252.18,-27.65C268.09,-27.65 285.6,-27.65 301.96,-27.65"/>
<polygon fill="black" stroke="black" points="301.97,-31.15 311.97,-27.65 301.97,-24.15 301.97,-31.15"/>
</g>
<!-- ID_7_ct0_st01&#45;&gt;ID_7_ct0_st -->
<g id="edge8" class="edge">
<title>ID_7_ct0_st01&#45;&gt;ID_7_ct0_st</title>
<path fill="none" stroke="black" d="M419.04,-13.98C484.54,0.06 597.97,14.24 681,-29.65 714.3,-47.26 740.45,-82.12 756.62,-108.5"/>
<polygon fill="black" stroke="black" points="753.81,-110.61 761.92,-117.43 759.83,-107.04 753.81,-110.61"/>
<text text-anchor="start" x="621" y="-33.45" font-family="arial" font-size="14.00" fill="#377eb8">P&#39;</text>
</g>
<!-- ID_7_ct0_st01&#45;&gt;ID_7_ct0_st01 -->
<g id="edge10" class="edge">
<title>ID_7_ct0_st01&#45;&gt;ID_7_ct0_st01</title>
<path fill="none" stroke="black" d="M350.19,-52.83C349.5,-62.56 354.61,-70.65 365.5,-70.65 372.31,-70.65 376.85,-67.49 379.14,-62.75"/>
<polygon fill="black" stroke="black" points="382.6,-63.27 380.81,-52.83 375.7,-62.11 382.6,-63.27"/>
<text text-anchor="start" x="353.5" y="-74.45" font-family="arial" font-size="14.00" fill="#377eb8">true</text>
</g>
<!-- ID_7_ct0_st02 -->
<g id="node7" class="node">
<title>ID_7_ct0_st02</title>
<polygon fill="none" stroke="black" points="681,-103.65 574,-103.65 574,-53.65 681,-53.65 681,-103.65"/>
<text text-anchor="start" x="582" y="-89.45" font-family="arial" font-weight="bold" font-size="14.00">ID_7_ct0_st02</text>
<text text-anchor="start" x="598.5" y="-75.45" font-family="arial" font-size="14.00" fill="#984ea3">(!P &amp;&amp; R)</text>
<text text-anchor="start" x="604.5" y="-61.45" font-family="arial" font-size="14.00" fill="#ff7f00">c0 &lt;= 5</text>
</g>
<!-- ID_7_ct0_st01&#45;&gt;ID_7_ct0_st02 -->
<g id="edge9" class="edge">
<title>ID_7_ct0_st01&#45;&gt;ID_7_ct0_st02</title>
<path fill="none" stroke="black" d="M419.18,-22.43C457.89,-20.3 511.3,-20.95 556,-34.65 566.14,-37.76 576.27,-42.71 585.56,-48.19"/>
<polygon fill="black" stroke="black" points="583.84,-51.25 594.18,-53.56 587.54,-45.3 583.84,-51.25"/>
<text text-anchor="start" x="484.5" y="-53.45" font-family="arial" font-size="14.00" fill="#377eb8">true</text>
<text text-anchor="start" x="477.5" y="-38.45" font-family="arial" font-size="14.00">c0 :=0</text>
</g>
<!-- ID_7_ct0_st02&#45;&gt;ID_7_ct0_st -->
<g id="edge11" class="edge">
<title>ID_7_ct0_st02&#45;&gt;ID_7_ct0_st</title>
<path fill="none" stroke="black" d="M681.39,-101.76C694.18,-107.35 707.88,-113.33 720.74,-118.95"/>
<polygon fill="black" stroke="black" points="719.36,-122.16 729.92,-122.96 722.16,-115.75 719.36,-122.16"/>
<text text-anchor="start" x="699" y="-117.45" font-family="arial" font-size="14.00" fill="#377eb8">P&#39;</text>
</g>
<!-- ID_7_ct0_st02&#45;&gt;ID_7_ct0_st0 -->
<g id="edge12" class="edge">
<title>ID_7_ct0_st02&#45;&gt;ID_7_ct0_st0</title>
<path fill="none" stroke="black" d="M573.65,-94.95C567.74,-96.38 561.77,-97.66 556,-98.65 451.43,-116.63 327.51,-120.87 256.15,-121.69"/>
<polygon fill="black" stroke="black" points="255.97,-118.19 246.01,-121.79 256.04,-125.19 255.97,-118.19"/>
<text text-anchor="start" x="324.5" y="-123.45" font-family="arial" font-size="14.00" fill="#377eb8">(P&#39; || c0 &gt;= 5)</text>
</g>
<!-- ID_7_ct0_st02&#45;&gt;ID_7_ct0_st01 -->
<g id="edge14" class="edge">
<title>ID_7_ct0_st02&#45;&gt;ID_7_ct0_st01</title>
<path fill="none" stroke="black" d="M573.62,-80.46C535.04,-80.41 481.88,-77.49 437,-64.65 430.3,-62.74 423.51,-60.14 416.92,-57.21"/>
<polygon fill="black" stroke="black" points="417.98,-53.84 407.44,-52.71 414.98,-60.16 417.98,-53.84"/>
<text text-anchor="start" x="437" y="-83.45" font-family="arial" font-size="14.00" fill="#377eb8">(P&#39; || (R&#39; || c0 &gt;= 5))</text>
</g>
<!-- ID_7_ct0_st02&#45;&gt;ID_7_ct0_st02 -->
<g id="edge13" class="edge">
<title>ID_7_ct0_st02&#45;&gt;ID_7_ct0_st02</title>
<path fill="none" stroke="black" d="M612.93,-103.83C612.28,-113.56 617.14,-121.65 627.5,-121.65 633.97,-121.65 638.3,-118.49 640.47,-113.75"/>
<polygon fill="black" stroke="black" points="643.94,-114.26 642.07,-103.83 637.03,-113.15 643.94,-114.26"/>
<text text-anchor="start" x="608.5" y="-125.45" font-family="arial" font-size="14.00" fill="#377eb8">c0 &lt; 5</text>
</g>
</g>
</svg>
