<?xml version="1.0" encoding="UTF-8" standalone="no"?>
<!DOCTYPE svg PUBLIC "-//W3C//DTD SVG 1.1//EN"
 "http://www.w3.org/Graphics/SVG/1.1/DTD/svg11.dtd">
<!-- Generated by graphviz version 2.43.0 (0)
 -->
<!-- Title: G Pages: 1 -->
<svg width="2397pt" height="655pt"
 viewBox="0.00 0.00 2397.00 655.25" xmlns="http://www.w3.org/2000/svg" xmlns:xlink="http://www.w3.org/1999/xlink">
<g id="graph0" class="graph" transform="scale(1 1) rotate(0) translate(4 651.25)">
<title>G</title>
<polygon fill="white" stroke="transparent" points="-4,4 -4,-651.25 2393,-651.25 2393,4 -4,4"/>
<!-- _ID_98_ct1_st0 -->
<!-- ID_98_ct1_st0 -->
<g id="node2" class="node">
<title>ID_98_ct1_st0</title>
<polygon fill="none" stroke="black" points="264.5,-365.25 157.5,-365.25 157.5,-315.25 264.5,-315.25 264.5,-365.25"/>
<text text-anchor="start" x="165.5" y="-351.05" font-family="arial" font-weight="bold" font-size="14.00">ID_98_ct1_st0</text>
<text text-anchor="start" x="186.5" y="-337.05" font-family="arial" font-size="14.00" fill="#984ea3">(Q || !P)</text>
<text text-anchor="start" x="199" y="-323.05" font-family="arial" font-size="14.00" fill="#ff7f00">true</text>
</g>
<!-- _ID_98_ct1_st0&#45;&gt;ID_98_ct1_st0 -->
<g id="edge1" class="edge">
<title>_ID_98_ct1_st0&#45;&gt;ID_98_ct1_st0</title>
<path fill="none" stroke="black" d="M111.05,-340.25C122.71,-340.25 135.13,-340.25 147.08,-340.25"/>
<polygon fill="black" stroke="black" points="147.43,-343.75 157.43,-340.25 147.43,-336.75 147.43,-343.75"/>
</g>
<!-- ID_98_ct1_st0&#45;&gt;ID_98_ct1_st0 -->
<g id="edge4" class="edge">
<title>ID_98_ct1_st0&#45;&gt;ID_98_ct1_st0</title>
<path fill="none" stroke="black" d="M196.06,-365.43C195.39,-375.16 200.38,-383.25 211,-383.25 217.64,-383.25 222.08,-380.09 224.31,-375.35"/>
<polygon fill="black" stroke="black" points="227.77,-375.87 225.94,-365.43 220.86,-374.73 227.77,-375.87"/>
<text text-anchor="start" x="199" y="-387.05" font-family="arial" font-size="14.00" fill="#377eb8">true</text>
</g>
<!-- ID_98_ct1_st012 -->
<g id="node4" class="node">
<title>ID_98_ct1_st012</title>
<polygon fill="none" stroke="black" points="456,-192.25 334,-192.25 334,-142.25 456,-142.25 456,-192.25"/>
<text text-anchor="start" x="342" y="-178.05" font-family="arial" font-weight="bold" font-size="14.00">ID_98_ct1_st012</text>
<text text-anchor="start" x="343.5" y="-164.05" font-family="arial" font-size="14.00" fill="#984ea3">(P &amp;&amp; (!Q &amp;&amp; R))</text>
<text text-anchor="start" x="383" y="-150.05" font-family="arial" font-size="14.00" fill="#ff7f00">true</text>
</g>
<!-- ID_98_ct1_st0&#45;&gt;ID_98_ct1_st012 -->
<g id="edge5" class="edge">
<title>ID_98_ct1_st0&#45;&gt;ID_98_ct1_st012</title>
<path fill="none" stroke="black" d="M238.46,-315.1C270.54,-284.6 324.67,-233.16 359.86,-199.7"/>
<polygon fill="black" stroke="black" points="362.67,-201.87 367.5,-192.44 357.84,-196.79 362.67,-201.87"/>
<text text-anchor="start" x="292" y="-267.05" font-family="arial" font-size="14.00" fill="#377eb8">true</text>
</g>
<!-- ID_98_ct1_st0123 -->
<g id="node6" class="node">
<title>ID_98_ct1_st0123</title>
<polygon fill="none" stroke="black" points="906,-262.25 777,-262.25 777,-212.25 906,-212.25 906,-262.25"/>
<text text-anchor="start" x="785" y="-248.05" font-family="arial" font-weight="bold" font-size="14.00">ID_98_ct1_st0123</text>
<text text-anchor="start" x="788" y="-234.05" font-family="arial" font-size="14.00" fill="#984ea3">(P &amp;&amp; (!Q &amp;&amp; !R))</text>
<text text-anchor="start" x="829.5" y="-220.05" font-family="arial" font-size="14.00" fill="#ff7f00">true</text>
</g>
<!-- ID_98_ct1_st0&#45;&gt;ID_98_ct1_st0123 -->
<g id="edge6" class="edge">
<title>ID_98_ct1_st0&#45;&gt;ID_98_ct1_st0123</title>
<path fill="none" stroke="black" d="M264.53,-343.12C376.4,-348.57 634.69,-357.54 717,-329.25 752.21,-317.15 785.66,-290.99 808.84,-269.65"/>
<polygon fill="black" stroke="black" points="811.42,-272.03 816.3,-262.63 806.62,-266.94 811.42,-272.03"/>
<text text-anchor="start" x="507.5" y="-352.05" font-family="arial" font-size="14.00" fill="#377eb8">true</text>
</g>
<!-- _ID_98_ct1_st012 -->
<!-- _ID_98_ct1_st012&#45;&gt;ID_98_ct1_st012 -->
<g id="edge2" class="edge">
<title>_ID_98_ct1_st012&#45;&gt;ID_98_ct1_st012</title>
<path fill="none" stroke="black" d="M274.13,-167.25C290.07,-167.25 307.34,-167.25 323.67,-167.25"/>
<polygon fill="black" stroke="black" points="323.69,-170.75 333.69,-167.25 323.69,-163.75 323.69,-170.75"/>
</g>
<!-- ID_98_ct1_st012&#45;&gt;ID_98_ct1_st0 -->
<g id="edge12" class="edge">
<title>ID_98_ct1_st012&#45;&gt;ID_98_ct1_st0</title>
<path fill="none" stroke="black" d="M338.52,-192.28C322.49,-201.04 305.65,-211.83 292,-224.25 266.06,-247.86 244.08,-281.42 229.76,-306.37"/>
<polygon fill="black" stroke="black" points="226.68,-304.7 224.84,-315.14 232.79,-308.13 226.68,-304.7"/>
<text text-anchor="start" x="296.5" y="-228.05" font-family="arial" font-size="14.00" fill="#377eb8">Q&#39;</text>
</g>
<!-- ID_98_ct1_st012&#45;&gt;ID_98_ct1_st012 -->
<g id="edge15" class="edge">
<title>ID_98_ct1_st012&#45;&gt;ID_98_ct1_st012</title>
<path fill="none" stroke="black" d="M378.19,-192.43C377.44,-202.16 383.05,-210.25 395,-210.25 402.47,-210.25 407.46,-207.09 409.97,-202.35"/>
<polygon fill="black" stroke="black" points="413.43,-202.9 411.81,-192.43 406.54,-201.62 413.43,-202.9"/>
<text text-anchor="start" x="383" y="-214.05" font-family="arial" font-size="14.00" fill="#377eb8">true</text>
</g>
<!-- ID_98_ct1_st012&#45;&gt;ID_98_ct1_st0123 -->
<g id="edge16" class="edge">
<title>ID_98_ct1_st012&#45;&gt;ID_98_ct1_st0123</title>
<path fill="none" stroke="black" d="M456.24,-153.34C522.27,-140.89 630.33,-128.85 717,-159.25 746.58,-169.63 748,-186.17 776.9,-206.61"/>
<polygon fill="black" stroke="black" points="775.07,-209.6 785.34,-212.18 778.93,-203.75 775.07,-209.6"/>
<text text-anchor="start" x="638" y="-163.05" font-family="arial" font-size="14.00" fill="#377eb8">true</text>
</g>
<!-- ID_98_ct1_st02 -->
<g id="node7" class="node">
<title>ID_98_ct1_st02</title>
<polygon fill="none" stroke="black" points="1178,-190.25 1055,-190.25 1055,-140.25 1178,-140.25 1178,-190.25"/>
<text text-anchor="start" x="1067.5" y="-176.05" font-family="arial" font-weight="bold" font-size="14.00">ID_98_ct1_st02</text>
<text text-anchor="start" x="1063" y="-162.05" font-family="arial" font-size="14.00" fill="#984ea3">(!P &amp;&amp; (!Q &amp;&amp; R))</text>
<text text-anchor="start" x="1104.5" y="-148.05" font-family="arial" font-size="14.00" fill="#ff7f00">true</text>
</g>
<!-- ID_98_ct1_st012&#45;&gt;ID_98_ct1_st02 -->
<g id="edge13" class="edge">
<title>ID_98_ct1_st012&#45;&gt;ID_98_ct1_st02</title>
<path fill="none" stroke="black" d="M420.64,-142.04C434.91,-129.16 453.98,-114.68 474,-107.25 519.49,-90.37 534.5,-102.59 583,-101.25 775.09,-95.97 828.56,-72.68 1015,-119.25 1030.42,-123.11 1046.39,-129.28 1060.93,-135.88"/>
<polygon fill="black" stroke="black" points="1059.73,-139.18 1070.27,-140.25 1062.7,-132.84 1059.73,-139.18"/>
<text text-anchor="start" x="735" y="-98.05" font-family="arial" font-size="14.00" fill="#377eb8">true</text>
</g>
<!-- ID_98_ct1_st023 -->
<g id="node8" class="node">
<title>ID_98_ct1_st023</title>
<polygon fill="none" stroke="black" points="713.5,-233.25 586.5,-233.25 586.5,-183.25 713.5,-183.25 713.5,-233.25"/>
<text text-anchor="start" x="597" y="-219.05" font-family="arial" font-weight="bold" font-size="14.00">ID_98_ct1_st023</text>
<text text-anchor="start" x="594.5" y="-205.05" font-family="arial" font-size="14.00" fill="#984ea3">(!P &amp;&amp; (!Q &amp;&amp; !R))</text>
<text text-anchor="start" x="638" y="-191.05" font-family="arial" font-size="14.00" fill="#ff7f00">true</text>
</g>
<!-- ID_98_ct1_st012&#45;&gt;ID_98_ct1_st023 -->
<g id="edge14" class="edge">
<title>ID_98_ct1_st012&#45;&gt;ID_98_ct1_st023</title>
<path fill="none" stroke="black" d="M450.65,-192.36C458.36,-195.1 466.29,-197.53 474,-199.25 507.08,-206.66 544.52,-209.33 576.26,-209.97"/>
<polygon fill="black" stroke="black" points="576.3,-213.47 586.35,-210.12 576.4,-206.48 576.3,-213.47"/>
<text text-anchor="start" x="507.5" y="-213.05" font-family="arial" font-size="14.00" fill="#377eb8">true</text>
</g>
<!-- _ID_98_ct1_st0123 -->
<!-- _ID_98_ct1_st0123&#45;&gt;ID_98_ct1_st0123 -->
<g id="edge3" class="edge">
<title>_ID_98_ct1_st0123&#45;&gt;ID_98_ct1_st0123</title>
<path fill="none" stroke="black" d="M703.53,-284.23C723.2,-277.49 745.91,-269.7 767.11,-262.43"/>
<polygon fill="black" stroke="black" points="768.41,-265.68 776.73,-259.13 766.14,-259.06 768.41,-265.68"/>
</g>
<!-- ID_98_ct1_st0123&#45;&gt;ID_98_ct1_st0 -->
<g id="edge24" class="edge">
<title>ID_98_ct1_st0123&#45;&gt;ID_98_ct1_st0</title>
<path fill="none" stroke="black" d="M824.13,-262.35C803.37,-291.35 764.49,-336.92 717,-351.25 553.98,-400.46 504.1,-369.15 334,-361.25 315.31,-360.39 310.51,-360.98 292,-358.25 286.32,-357.42 280.44,-356.4 274.56,-355.27"/>
<polygon fill="black" stroke="black" points="275.21,-351.83 264.72,-353.29 273.83,-358.69 275.21,-351.83"/>
<text text-anchor="start" x="512" y="-382.05" font-family="arial" font-size="14.00" fill="#377eb8">Q&#39;</text>
</g>
<!-- ID_98_ct1_st0123&#45;&gt;ID_98_ct1_st012 -->
<g id="edge28" class="edge">
<title>ID_98_ct1_st0123&#45;&gt;ID_98_ct1_st012</title>
<path fill="none" stroke="black" d="M782.11,-212.03C780.31,-210.52 778.6,-208.93 777,-207.25 762.68,-192.28 770.44,-181.53 759,-164.25 744.25,-141.98 741.62,-131.62 717,-121.25 633.3,-86.01 527.62,-113.45 460.9,-138.57"/>
<polygon fill="black" stroke="black" points="459.42,-135.39 451.35,-142.25 461.94,-141.92 459.42,-135.39"/>
<text text-anchor="start" x="604.5" y="-125.05" font-family="arial" font-size="14.00" fill="#377eb8">(Q&#39; || (S&#39; || !R&#39;))</text>
</g>
<!-- ID_98_ct1_st0123&#45;&gt;ID_98_ct1_st0123 -->
<g id="edge30" class="edge">
<title>ID_98_ct1_st0123&#45;&gt;ID_98_ct1_st0123</title>
<path fill="none" stroke="black" d="M823.94,-262.43C823.16,-272.16 829.02,-280.25 841.5,-280.25 849.3,-280.25 854.51,-277.09 857.14,-272.35"/>
<polygon fill="black" stroke="black" points="860.59,-272.91 859.06,-262.43 853.72,-271.58 860.59,-272.91"/>
<text text-anchor="start" x="829.5" y="-284.05" font-family="arial" font-size="14.00" fill="#377eb8">true</text>
</g>
<!-- ID_98_ct1_st0123&#45;&gt;ID_98_ct1_st02 -->
<g id="edge25" class="edge">
<title>ID_98_ct1_st0123&#45;&gt;ID_98_ct1_st02</title>
<path fill="none" stroke="black" d="M906.21,-233.66C939.22,-230.58 979.86,-224.86 1015,-214.25 1031,-209.42 1047.62,-202.3 1062.61,-194.97"/>
<polygon fill="black" stroke="black" points="1064.36,-198.01 1071.72,-190.39 1061.22,-191.75 1064.36,-198.01"/>
<text text-anchor="start" x="924" y="-235.05" font-family="arial" font-size="14.00" fill="#377eb8">(Q&#39; || (S&#39; || !R&#39;))</text>
</g>
<!-- ID_98_ct1_st0123&#45;&gt;ID_98_ct1_st023 -->
<g id="edge27" class="edge">
<title>ID_98_ct1_st0123&#45;&gt;ID_98_ct1_st023</title>
<path fill="none" stroke="black" d="M784.75,-212.23C776.28,-209.35 767.51,-206.87 759,-205.25 747.74,-203.12 735.7,-202.18 723.9,-201.98"/>
<polygon fill="black" stroke="black" points="723.61,-198.48 713.61,-201.98 723.61,-205.48 723.61,-198.48"/>
<text text-anchor="start" x="735" y="-209.05" font-family="arial" font-size="14.00" fill="#377eb8">true</text>
</g>
<!-- ID_98_ct1_st0245 -->
<g id="node9" class="node">
<title>ID_98_ct1_st0245</title>
<polygon fill="none" stroke="black" points="1430,-352.25 1260,-352.25 1260,-302.25 1430,-302.25 1430,-352.25"/>
<text text-anchor="start" x="1288.5" y="-338.05" font-family="arial" font-weight="bold" font-size="14.00">ID_98_ct1_st0245</text>
<text text-anchor="start" x="1268" y="-324.05" font-family="arial" font-size="14.00" fill="#984ea3">(!P &amp;&amp; (!Q &amp;&amp; (R &amp;&amp; !S)))</text>
<text text-anchor="start" x="1333" y="-310.05" font-family="arial" font-size="14.00" fill="#ff7f00">true</text>
</g>
<!-- ID_98_ct1_st0123&#45;&gt;ID_98_ct1_st0245 -->
<g id="edge26" class="edge">
<title>ID_98_ct1_st0123&#45;&gt;ID_98_ct1_st0245</title>
<path fill="none" stroke="black" d="M906.05,-247.47C1004.89,-263.36 1185.7,-292.51 1200,-295.25 1216.04,-298.33 1233.02,-301.86 1249.48,-305.43"/>
<polygon fill="black" stroke="black" points="1249.13,-308.94 1259.65,-307.65 1250.63,-302.1 1249.13,-308.94"/>
<text text-anchor="start" x="1104.5" y="-299.05" font-family="arial" font-size="14.00" fill="#377eb8">true</text>
</g>
<!-- ID_98_ct1_st01245 -->
<g id="node10" class="node">
<title>ID_98_ct1_st01245</title>
<polygon fill="none" stroke="black" points="1200,-441.25 1033,-441.25 1033,-391.25 1200,-391.25 1200,-441.25"/>
<text text-anchor="start" x="1056" y="-427.05" font-family="arial" font-weight="bold" font-size="14.00">ID_98_ct1_st01245</text>
<text text-anchor="start" x="1041" y="-413.05" font-family="arial" font-size="14.00" fill="#984ea3">(P &amp;&amp; (!Q &amp;&amp; (R &amp;&amp; !S)))</text>
<text text-anchor="start" x="1104.5" y="-399.05" font-family="arial" font-size="14.00" fill="#ff7f00">true</text>
</g>
<!-- ID_98_ct1_st0123&#45;&gt;ID_98_ct1_st01245 -->
<g id="edge29" class="edge">
<title>ID_98_ct1_st0123&#45;&gt;ID_98_ct1_st01245</title>
<path fill="none" stroke="black" d="M856.25,-262.34C870.43,-286.11 894.58,-321.36 924,-343.25 925.3,-344.22 986.79,-367.6 1039.75,-387.64"/>
<polygon fill="black" stroke="black" points="1038.59,-390.94 1049.18,-391.21 1041.06,-384.4 1038.59,-390.94"/>
<text text-anchor="start" x="957.5" y="-381.05" font-family="arial" font-size="14.00" fill="#377eb8">true</text>
</g>
<!-- ID_98_ct1_st02&#45;&gt;ID_98_ct1_st0 -->
<g id="edge7" class="edge">
<title>ID_98_ct1_st02&#45;&gt;ID_98_ct1_st0</title>
<path fill="none" stroke="black" d="M1089.18,-190.59C1069.69,-208.58 1041.93,-232.57 1015,-250.25 894.51,-329.37 856.71,-342.76 717,-378.25 552.02,-420.17 502.49,-404.51 334,-380.25 315.27,-377.56 310.2,-378.45 292,-373.25 286.26,-371.61 280.38,-369.69 274.53,-367.61"/>
<polygon fill="black" stroke="black" points="275.36,-364.18 264.76,-363.98 272.92,-370.74 275.36,-364.18"/>
<text text-anchor="start" x="642.5" y="-406.05" font-family="arial" font-size="14.00" fill="#377eb8">Q&#39;</text>
</g>
<!-- ID_98_ct1_st02&#45;&gt;ID_98_ct1_st012 -->
<g id="edge10" class="edge">
<title>ID_98_ct1_st02&#45;&gt;ID_98_ct1_st012</title>
<path fill="none" stroke="black" d="M1103.42,-140.04C1087.64,-110.24 1057.01,-61.86 1015,-39.25 914.4,14.87 873.12,-21.37 759,-16.25 632.05,-10.56 581.96,27.79 474,-39.25 440.04,-60.34 418.75,-102.22 407.15,-132.34"/>
<polygon fill="black" stroke="black" points="403.74,-131.46 403.58,-142.05 410.31,-133.87 403.74,-131.46"/>
<text text-anchor="start" x="735" y="-20.05" font-family="arial" font-size="14.00" fill="#377eb8">true</text>
</g>
<!-- ID_98_ct1_st02&#45;&gt;ID_98_ct1_st0123 -->
<g id="edge11" class="edge">
<title>ID_98_ct1_st02&#45;&gt;ID_98_ct1_st0123</title>
<path fill="none" stroke="black" d="M1054.58,-171.95C1016.46,-177.14 966.66,-185.78 924,-199.25 916.08,-201.75 907.94,-204.86 900,-208.2"/>
<polygon fill="black" stroke="black" points="898.57,-205.01 890.8,-212.22 901.37,-211.42 898.57,-205.01"/>
<text text-anchor="start" x="957.5" y="-203.05" font-family="arial" font-size="14.00" fill="#377eb8">true</text>
</g>
<!-- ID_98_ct1_st02&#45;&gt;ID_98_ct1_st02 -->
<g id="edge8" class="edge">
<title>ID_98_ct1_st02&#45;&gt;ID_98_ct1_st02</title>
<path fill="none" stroke="black" d="M1095.58,-190.43C1094.65,-200.16 1101.62,-208.25 1116.5,-208.25 1125.8,-208.25 1132.01,-205.09 1135.13,-200.35"/>
<polygon fill="black" stroke="black" points="1138.58,-200.96 1137.42,-190.43 1131.76,-199.39 1138.58,-200.96"/>
<text text-anchor="start" x="1104.5" y="-212.05" font-family="arial" font-size="14.00" fill="#377eb8">true</text>
</g>
<!-- ID_98_ct1_st02&#45;&gt;ID_98_ct1_st023 -->
<g id="edge9" class="edge">
<title>ID_98_ct1_st02&#45;&gt;ID_98_ct1_st023</title>
<path fill="none" stroke="black" d="M1054.73,-146.55C986.07,-128.38 871.58,-107.06 777,-133.25 747.03,-141.55 743.72,-153.34 717,-169.25 712.28,-172.06 707.37,-174.98 702.45,-177.89"/>
<polygon fill="black" stroke="black" points="700.45,-175.01 693.63,-183.12 704.02,-181.04 700.45,-175.01"/>
<text text-anchor="start" x="829.5" y="-137.05" font-family="arial" font-size="14.00" fill="#377eb8">true</text>
</g>
<!-- ID_98_ct1_st023&#45;&gt;ID_98_ct1_st0 -->
<g id="edge17" class="edge">
<title>ID_98_ct1_st023&#45;&gt;ID_98_ct1_st0</title>
<path fill="none" stroke="black" d="M586.22,-227.22C503.12,-252.32 357.47,-296.31 274.51,-321.37"/>
<polygon fill="black" stroke="black" points="273.27,-318.09 264.71,-324.33 275.3,-324.79 273.27,-318.09"/>
<text text-anchor="start" x="387.5" y="-305.05" font-family="arial" font-size="14.00" fill="#377eb8">Q&#39;</text>
</g>
<!-- ID_98_ct1_st023&#45;&gt;ID_98_ct1_st012 -->
<g id="edge21" class="edge">
<title>ID_98_ct1_st023&#45;&gt;ID_98_ct1_st012</title>
<path fill="none" stroke="black" d="M586.15,-185.47C579.08,-183.45 571.93,-181.65 565,-180.25 532.99,-173.79 496.99,-170.49 466.46,-168.82"/>
<polygon fill="black" stroke="black" points="466.49,-165.32 456.33,-168.31 466.14,-172.31 466.49,-165.32"/>
<text text-anchor="start" x="474" y="-184.05" font-family="arial" font-size="14.00" fill="#377eb8">(Q&#39; || (S&#39; || !R&#39;))</text>
</g>
<!-- ID_98_ct1_st023&#45;&gt;ID_98_ct1_st0123 -->
<g id="edge23" class="edge">
<title>ID_98_ct1_st023&#45;&gt;ID_98_ct1_st0123</title>
<path fill="none" stroke="black" d="M713.76,-220.67C720.91,-221.95 728.11,-223.17 735,-224.25 745.22,-225.86 756.03,-227.38 766.68,-228.78"/>
<polygon fill="black" stroke="black" points="766.44,-232.28 776.81,-230.09 767.34,-225.34 766.44,-232.28"/>
<text text-anchor="start" x="735" y="-231.05" font-family="arial" font-size="14.00" fill="#377eb8">true</text>
</g>
<!-- ID_98_ct1_st023&#45;&gt;ID_98_ct1_st02 -->
<g id="edge18" class="edge">
<title>ID_98_ct1_st023&#45;&gt;ID_98_ct1_st02</title>
<path fill="none" stroke="black" d="M713.66,-197.17C733.83,-193.91 756.31,-190.59 777,-188.25 869.14,-177.83 975.96,-171.53 1044.56,-168.22"/>
<polygon fill="black" stroke="black" points="1044.99,-171.71 1054.82,-167.74 1044.66,-164.71 1044.99,-171.71"/>
<text text-anchor="start" x="796" y="-192.05" font-family="arial" font-size="14.00" fill="#377eb8">(Q&#39; || (S&#39; || !R&#39;))</text>
</g>
<!-- ID_98_ct1_st023&#45;&gt;ID_98_ct1_st023 -->
<g id="edge20" class="edge">
<title>ID_98_ct1_st023&#45;&gt;ID_98_ct1_st023</title>
<path fill="none" stroke="black" d="M632.07,-233.43C631.27,-243.16 637.25,-251.25 650,-251.25 657.97,-251.25 663.29,-248.09 665.97,-243.35"/>
<polygon fill="black" stroke="black" points="669.42,-243.92 667.93,-233.43 662.56,-242.56 669.42,-243.92"/>
<text text-anchor="start" x="638" y="-255.05" font-family="arial" font-size="14.00" fill="#377eb8">true</text>
</g>
<!-- ID_98_ct1_st023&#45;&gt;ID_98_ct1_st0245 -->
<g id="edge19" class="edge">
<title>ID_98_ct1_st023&#45;&gt;ID_98_ct1_st0245</title>
<path fill="none" stroke="black" d="M674.73,-233.65C698.19,-256.83 736.38,-289.62 777,-304.25 820.09,-319.78 1099.82,-324.89 1249.61,-326.52"/>
<polygon fill="black" stroke="black" points="1249.69,-330.02 1259.73,-326.62 1249.77,-323.02 1249.69,-330.02"/>
<text text-anchor="start" x="957.5" y="-325.05" font-family="arial" font-size="14.00" fill="#377eb8">true</text>
</g>
<!-- ID_98_ct1_st023&#45;&gt;ID_98_ct1_st01245 -->
<g id="edge22" class="edge">
<title>ID_98_ct1_st023&#45;&gt;ID_98_ct1_st01245</title>
<path fill="none" stroke="black" d="M677.9,-233.27C690.38,-245.43 705.05,-260.56 717,-275.25 726.1,-286.44 725.36,-291.53 735,-302.25 751.24,-320.33 756.03,-324.98 777,-337.25 837.34,-372.56 856.12,-376.52 924,-393.25 955.68,-401.07 991,-406.26 1022.58,-409.7"/>
<polygon fill="black" stroke="black" points="1022.39,-413.2 1032.7,-410.76 1023.12,-406.24 1022.39,-413.2"/>
<text text-anchor="start" x="829.5" y="-392.05" font-family="arial" font-size="14.00" fill="#377eb8">true</text>
</g>
<!-- ID_98_ct1_st0245&#45;&gt;ID_98_ct1_st0245 -->
<g id="edge52" class="edge">
<title>ID_98_ct1_st0245&#45;&gt;ID_98_ct1_st0245</title>
<path fill="none" stroke="black" d="M1323.71,-352.43C1322.76,-362.16 1329.86,-370.25 1345,-370.25 1354.46,-370.25 1360.78,-367.09 1363.96,-362.35"/>
<polygon fill="black" stroke="black" points="1367.41,-362.96 1366.29,-352.43 1360.6,-361.36 1367.41,-362.96"/>
<text text-anchor="start" x="1333" y="-374.05" font-family="arial" font-size="14.00" fill="#377eb8">true</text>
</g>
<!-- ID_98_ct1_st0245&#45;&gt;ID_98_ct1_st01245 -->
<g id="edge55" class="edge">
<title>ID_98_ct1_st0245&#45;&gt;ID_98_ct1_st01245</title>
<path fill="none" stroke="black" d="M1259.92,-344.42C1245.71,-348.32 1231.27,-352.92 1218,-358.25 1199.71,-365.61 1180.71,-375.82 1164.22,-385.62"/>
<polygon fill="black" stroke="black" points="1162.08,-382.83 1155.34,-391.01 1165.71,-388.82 1162.08,-382.83"/>
<text text-anchor="start" x="1218" y="-362.05" font-family="arial" font-size="14.00" fill="#377eb8">true</text>
</g>
<!-- ID_98_ct1_st025 -->
<g id="node11" class="node">
<title>ID_98_ct1_st025</title>
<polygon fill="none" stroke="black" points="2133,-388.25 2010,-388.25 2010,-338.25 2133,-338.25 2133,-388.25"/>
<text text-anchor="start" x="2018.5" y="-374.05" font-family="arial" font-weight="bold" font-size="14.00">ID_98_ct1_st025</text>
<text text-anchor="start" x="2018" y="-360.05" font-family="arial" font-size="14.00" fill="#984ea3">(!P &amp;&amp; (!Q &amp;&amp; R))</text>
<text text-anchor="start" x="2059.5" y="-346.05" font-family="arial" font-size="14.00" fill="#ff7f00">true</text>
</g>
<!-- ID_98_ct1_st0245&#45;&gt;ID_98_ct1_st025 -->
<g id="edge51" class="edge">
<title>ID_98_ct1_st0245&#45;&gt;ID_98_ct1_st025</title>
<path fill="none" stroke="black" d="M1430.25,-315.67C1436.25,-315.1 1442.21,-314.62 1448,-314.25 1488.36,-311.69 1498.6,-312.4 1539,-314.25 1704.34,-321.86 1897.7,-342.71 1999.49,-354.61"/>
<polygon fill="black" stroke="black" points="1999.31,-358.12 2009.65,-355.81 2000.12,-351.16 1999.31,-358.12"/>
<text text-anchor="start" x="1712" y="-337.05" font-family="arial" font-size="14.00" fill="#377eb8">(Q&#39; || (S&#39; || !R&#39;))</text>
</g>
<!-- ID_98_ct1_st0235 -->
<g id="node12" class="node">
<title>ID_98_ct1_st0235</title>
<polygon fill="none" stroke="black" points="2389,-388.25 2260,-388.25 2260,-338.25 2389,-338.25 2389,-388.25"/>
<text text-anchor="start" x="2268" y="-374.05" font-family="arial" font-weight="bold" font-size="14.00">ID_98_ct1_st0235</text>
<text text-anchor="start" x="2269" y="-360.05" font-family="arial" font-size="14.00" fill="#984ea3">(!P &amp;&amp; (!Q &amp;&amp; !R))</text>
<text text-anchor="start" x="2312.5" y="-346.05" font-family="arial" font-size="14.00" fill="#ff7f00">true</text>
</g>
<!-- ID_98_ct1_st0245&#45;&gt;ID_98_ct1_st0235 -->
<g id="edge53" class="edge">
<title>ID_98_ct1_st0245&#45;&gt;ID_98_ct1_st0235</title>
<path fill="none" stroke="black" d="M1368.97,-302.03C1388.36,-282.06 1417.72,-254.71 1448,-237.25 1519.66,-195.96 1541.79,-178.25 1624.5,-178.25 1624.5,-178.25 1624.5,-178.25 2072.5,-178.25 2152.87,-178.25 2178.95,-191.42 2242,-241.25 2271.5,-264.57 2294.07,-301.55 2307.9,-328.69"/>
<polygon fill="black" stroke="black" points="2304.86,-330.43 2312.43,-337.85 2311.13,-327.33 2304.86,-330.43"/>
<text text-anchor="start" x="1873.5" y="-182.05" font-family="arial" font-size="14.00" fill="#377eb8">true</text>
</g>
<!-- ID_98_ct1_st0125 -->
<g id="node13" class="node">
<title>ID_98_ct1_st0125</title>
<polygon fill="none" stroke="black" points="1950,-490.25 1821,-490.25 1821,-440.25 1950,-440.25 1950,-490.25"/>
<text text-anchor="start" x="1829" y="-476.05" font-family="arial" font-weight="bold" font-size="14.00">ID_98_ct1_st0125</text>
<text text-anchor="start" x="1834" y="-462.05" font-family="arial" font-size="14.00" fill="#984ea3">(P &amp;&amp; (!Q &amp;&amp; R))</text>
<text text-anchor="start" x="1873.5" y="-448.05" font-family="arial" font-size="14.00" fill="#ff7f00">true</text>
</g>
<!-- ID_98_ct1_st0245&#45;&gt;ID_98_ct1_st0125 -->
<g id="edge54" class="edge">
<title>ID_98_ct1_st0245&#45;&gt;ID_98_ct1_st0125</title>
<path fill="none" stroke="black" d="M1379.82,-352.3C1419.9,-380.59 1489.76,-425.63 1557,-448.25 1640.54,-476.35 1742.8,-476.69 1810.59,-472.56"/>
<polygon fill="black" stroke="black" points="1811,-476.04 1820.75,-471.89 1810.55,-469.05 1811,-476.04"/>
<text text-anchor="start" x="1580" y="-476.05" font-family="arial" font-size="14.00" fill="#377eb8">(Q&#39; || (S&#39; || !R&#39;))</text>
</g>
<!-- ID_98_ct1_st01235 -->
<g id="node14" class="node">
<title>ID_98_ct1_st01235</title>
<polygon fill="none" stroke="black" points="1694,-406.25 1557,-406.25 1557,-356.25 1694,-356.25 1694,-406.25"/>
<text text-anchor="start" x="1565" y="-392.05" font-family="arial" font-weight="bold" font-size="14.00">ID_98_ct1_st01235</text>
<text text-anchor="start" x="1572" y="-378.05" font-family="arial" font-size="14.00" fill="#984ea3">(P &amp;&amp; (!Q &amp;&amp; !R))</text>
<text text-anchor="start" x="1613.5" y="-364.05" font-family="arial" font-size="14.00" fill="#ff7f00">true</text>
</g>
<!-- ID_98_ct1_st0245&#45;&gt;ID_98_ct1_st01235 -->
<g id="edge56" class="edge">
<title>ID_98_ct1_st0245&#45;&gt;ID_98_ct1_st01235</title>
<path fill="none" stroke="black" d="M1430.02,-319.19C1464.39,-318.29 1504.18,-320.37 1539,-330.25 1554.28,-334.59 1569.6,-342.38 1582.97,-350.59"/>
<polygon fill="black" stroke="black" points="1581.14,-353.58 1591.45,-356.02 1584.91,-347.68 1581.14,-353.58"/>
<text text-anchor="start" x="1481.5" y="-334.05" font-family="arial" font-size="14.00" fill="#377eb8">true</text>
</g>
<!-- ID_98_ct1_st01245&#45;&gt;ID_98_ct1_st0245 -->
<g id="edge58" class="edge">
<title>ID_98_ct1_st01245&#45;&gt;ID_98_ct1_st0245</title>
<path fill="none" stroke="black" d="M1193.62,-391.2C1209.7,-385.56 1226.49,-379.42 1242,-373.25 1254.93,-368.12 1268.61,-362.26 1281.6,-356.47"/>
<polygon fill="black" stroke="black" points="1283.24,-359.58 1290.93,-352.29 1280.37,-353.19 1283.24,-359.58"/>
<text text-anchor="start" x="1218" y="-386.05" font-family="arial" font-size="14.00" fill="#377eb8">true</text>
</g>
<!-- ID_98_ct1_st01245&#45;&gt;ID_98_ct1_st01245 -->
<g id="edge61" class="edge">
<title>ID_98_ct1_st01245&#45;&gt;ID_98_ct1_st01245</title>
<path fill="none" stroke="black" d="M1095.58,-441.43C1094.65,-451.16 1101.62,-459.25 1116.5,-459.25 1125.8,-459.25 1132.01,-456.09 1135.13,-451.35"/>
<polygon fill="black" stroke="black" points="1138.58,-451.96 1137.42,-441.43 1131.76,-450.39 1138.58,-451.96"/>
<text text-anchor="start" x="1104.5" y="-463.05" font-family="arial" font-size="14.00" fill="#377eb8">true</text>
</g>
<!-- ID_98_ct1_st01245&#45;&gt;ID_98_ct1_st025 -->
<g id="edge57" class="edge">
<title>ID_98_ct1_st01245&#45;&gt;ID_98_ct1_st025</title>
<path fill="none" stroke="black" d="M1133.77,-441.41C1167.01,-489.39 1247.76,-589.25 1344,-589.25 1344,-589.25 1344,-589.25 1886.5,-589.25 1936.65,-589.25 1960.59,-588.34 1992,-549.25 2026.6,-506.18 1985.71,-475.88 2010,-426.25 2015.42,-415.19 2023.49,-404.8 2031.99,-395.77"/>
<polygon fill="black" stroke="black" points="2034.62,-398.09 2039.18,-388.53 2029.65,-393.16 2034.62,-398.09"/>
<text text-anchor="start" x="1580" y="-593.05" font-family="arial" font-size="14.00" fill="#377eb8">(Q&#39; || (S&#39; || !R&#39;))</text>
</g>
<!-- ID_98_ct1_st01245&#45;&gt;ID_98_ct1_st0235 -->
<g id="edge59" class="edge">
<title>ID_98_ct1_st01245&#45;&gt;ID_98_ct1_st0235</title>
<path fill="none" stroke="black" d="M1143.56,-391.07C1171.22,-365 1216.81,-323.88 1260,-293.25 1338.61,-237.52 1356.79,-216.34 1448,-185.25 1560.09,-147.05 1593.85,-157.27 1712,-149.25 1947.47,-133.27 2054.93,-38.36 2242,-182.25 2288.59,-218.09 2309.27,-286.51 2317.89,-328.19"/>
<polygon fill="black" stroke="black" points="2314.49,-329.03 2319.83,-338.18 2321.36,-327.69 2314.49,-329.03"/>
<text text-anchor="start" x="1745.5" y="-153.05" font-family="arial" font-size="14.00" fill="#377eb8">true</text>
</g>
<!-- ID_98_ct1_st01245&#45;&gt;ID_98_ct1_st0125 -->
<g id="edge60" class="edge">
<title>ID_98_ct1_st01245&#45;&gt;ID_98_ct1_st0125</title>
<path fill="none" stroke="black" d="M1200.2,-435.23C1219.76,-439.44 1240.57,-443.71 1260,-447.25 1391.27,-471.23 1423.92,-481.45 1557,-491.25 1617.72,-495.73 1633.12,-492.37 1694,-491.25 1742.47,-490.36 1755.07,-494.51 1803,-487.25 1805.54,-486.87 1808.11,-486.44 1810.69,-485.96"/>
<polygon fill="black" stroke="black" points="1811.62,-489.34 1820.73,-483.94 1810.23,-482.48 1811.62,-489.34"/>
<text text-anchor="start" x="1448" y="-493.05" font-family="arial" font-size="14.00" fill="#377eb8">(Q&#39; || (S&#39; || !R&#39;))</text>
</g>
<!-- ID_98_ct1_st01245&#45;&gt;ID_98_ct1_st01235 -->
<g id="edge62" class="edge">
<title>ID_98_ct1_st01245&#45;&gt;ID_98_ct1_st01235</title>
<path fill="none" stroke="black" d="M1200.04,-421.26C1206.12,-421.61 1212.15,-421.94 1218,-422.25 1312.09,-427.3 1336.2,-433.21 1430,-424.25 1479.11,-419.57 1490.87,-414.07 1539,-403.25 1541.64,-402.66 1544.33,-402.04 1547.04,-401.41"/>
<polygon fill="black" stroke="black" points="1548,-404.78 1556.92,-399.05 1546.38,-397.97 1548,-404.78"/>
<text text-anchor="start" x="1333" y="-432.05" font-family="arial" font-size="14.00" fill="#377eb8">true</text>
</g>
<!-- ID_98_ct1_st025&#45;&gt;ID_98_ct1_st025 -->
<g id="edge31" class="edge">
<title>ID_98_ct1_st025&#45;&gt;ID_98_ct1_st025</title>
<path fill="none" stroke="black" d="M2054.69,-388.43C2053.94,-398.16 2059.55,-406.25 2071.5,-406.25 2078.97,-406.25 2083.96,-403.09 2086.47,-398.35"/>
<polygon fill="black" stroke="black" points="2089.93,-398.9 2088.31,-388.43 2083.04,-397.62 2089.93,-398.9"/>
<text text-anchor="start" x="2059.5" y="-410.05" font-family="arial" font-size="14.00" fill="#377eb8">true</text>
</g>
<!-- ID_98_ct1_st025&#45;&gt;ID_98_ct1_st0235 -->
<g id="edge32" class="edge">
<title>ID_98_ct1_st025&#45;&gt;ID_98_ct1_st0235</title>
<path fill="none" stroke="black" d="M2133.26,-363.25C2168.27,-363.25 2212.54,-363.25 2249.56,-363.25"/>
<polygon fill="black" stroke="black" points="2249.8,-366.75 2259.8,-363.25 2249.8,-359.75 2249.8,-366.75"/>
<text text-anchor="start" x="2184.5" y="-367.05" font-family="arial" font-size="14.00" fill="#377eb8">true</text>
</g>
<!-- ID_98_ct1_st025&#45;&gt;ID_98_ct1_st0125 -->
<g id="edge33" class="edge">
<title>ID_98_ct1_st025&#45;&gt;ID_98_ct1_st0125</title>
<path fill="none" stroke="black" d="M2018.98,-388.37C2002.54,-396.66 1984.37,-406.1 1968,-415.25 1967.03,-415.8 1952.55,-424.67 1936.07,-434.79"/>
<polygon fill="black" stroke="black" points="1934.01,-431.95 1927.32,-440.16 1937.68,-437.91 1934.01,-431.95"/>
<text text-anchor="start" x="1968" y="-419.05" font-family="arial" font-size="14.00" fill="#377eb8">true</text>
</g>
<!-- ID_98_ct1_st025&#45;&gt;ID_98_ct1_st01235 -->
<g id="edge34" class="edge">
<title>ID_98_ct1_st025&#45;&gt;ID_98_ct1_st01235</title>
<path fill="none" stroke="black" d="M2009.83,-362.44C1938.46,-361.94 1816.45,-362.54 1712,-370.25 1709.45,-370.44 1706.87,-370.65 1704.26,-370.89"/>
<polygon fill="black" stroke="black" points="1703.72,-367.42 1694.1,-371.87 1704.4,-374.39 1703.72,-367.42"/>
<text text-anchor="start" x="1873.5" y="-368.05" font-family="arial" font-size="14.00" fill="#377eb8">true</text>
</g>
<!-- ID_98_ct1_st0235&#45;&gt;ID_98_ct1_st0245 -->
<g id="edge40" class="edge">
<title>ID_98_ct1_st0235&#45;&gt;ID_98_ct1_st0245</title>
<path fill="none" stroke="black" d="M2297.38,-338.05C2254.27,-299.23 2163.89,-229.25 2072.5,-229.25 1624.5,-229.25 1624.5,-229.25 1624.5,-229.25 1541.64,-229.25 1452.38,-268.33 1397.84,-297.13"/>
<polygon fill="black" stroke="black" points="1395.89,-294.2 1388.73,-302.02 1399.2,-300.37 1395.89,-294.2"/>
<text text-anchor="start" x="1873.5" y="-233.05" font-family="arial" font-size="14.00" fill="#377eb8">true</text>
</g>
<!-- ID_98_ct1_st0235&#45;&gt;ID_98_ct1_st01245 -->
<g id="edge43" class="edge">
<title>ID_98_ct1_st0235&#45;&gt;ID_98_ct1_st01245</title>
<path fill="none" stroke="black" d="M2314.16,-388.56C2287.62,-455.52 2205.04,-632.25 2072.5,-632.25 1344,-632.25 1344,-632.25 1344,-632.25 1240.07,-632.25 1165,-511.68 1133.69,-450.7"/>
<polygon fill="black" stroke="black" points="1136.66,-448.82 1129.04,-441.45 1130.4,-451.96 1136.66,-448.82"/>
<text text-anchor="start" x="1745.5" y="-636.05" font-family="arial" font-size="14.00" fill="#377eb8">true</text>
</g>
<!-- ID_98_ct1_st0235&#45;&gt;ID_98_ct1_st025 -->
<g id="edge39" class="edge">
<title>ID_98_ct1_st0235&#45;&gt;ID_98_ct1_st025</title>
<path fill="none" stroke="black" d="M2259.68,-346.92C2253.73,-345.84 2247.77,-344.92 2242,-344.25 2201.82,-339.63 2191.16,-339.46 2151,-344.25 2148.35,-344.57 2145.66,-344.94 2142.95,-345.37"/>
<polygon fill="black" stroke="black" points="2142.35,-341.92 2133.1,-347.08 2143.55,-348.81 2142.35,-341.92"/>
<text text-anchor="start" x="2151" y="-348.05" font-family="arial" font-size="14.00" fill="#377eb8">(Q&#39; || (S&#39; || !R&#39;))</text>
</g>
<!-- ID_98_ct1_st0235&#45;&gt;ID_98_ct1_st0235 -->
<g id="edge41" class="edge">
<title>ID_98_ct1_st0235&#45;&gt;ID_98_ct1_st0235</title>
<path fill="none" stroke="black" d="M2300.59,-388.43C2299.53,-398.16 2307.5,-406.25 2324.5,-406.25 2335.12,-406.25 2342.22,-403.09 2345.79,-398.35"/>
<polygon fill="black" stroke="black" points="2349.24,-398.99 2348.41,-388.43 2342.47,-397.21 2349.24,-398.99"/>
<text text-anchor="start" x="2312.5" y="-410.05" font-family="arial" font-size="14.00" fill="#377eb8">true</text>
</g>
<!-- ID_98_ct1_st0235&#45;&gt;ID_98_ct1_st0125 -->
<g id="edge42" class="edge">
<title>ID_98_ct1_st0235&#45;&gt;ID_98_ct1_st0125</title>
<path fill="none" stroke="black" d="M2294.36,-388.31C2259,-416.72 2196.24,-460.94 2133,-475.25 2075.94,-488.17 2009.6,-484.45 1960.12,-478.18"/>
<polygon fill="black" stroke="black" points="1960.52,-474.7 1950.14,-476.85 1959.59,-481.64 1960.52,-474.7"/>
<text text-anchor="start" x="2026" y="-487.05" font-family="arial" font-size="14.00" fill="#377eb8">(Q&#39; || (S&#39; || !R&#39;))</text>
</g>
<!-- ID_98_ct1_st0235&#45;&gt;ID_98_ct1_st01235 -->
<g id="edge44" class="edge">
<title>ID_98_ct1_st0235&#45;&gt;ID_98_ct1_st01235</title>
<path fill="none" stroke="black" d="M2259.85,-340.46C2253.87,-338.83 2247.85,-337.39 2242,-336.25 2194.35,-326.99 2181.52,-330.81 2133,-329.25 1945.45,-323.24 1897,-329.81 1712,-361.25 1709.34,-361.71 1706.65,-362.19 1703.93,-362.7"/>
<polygon fill="black" stroke="black" points="1703.15,-359.29 1694.02,-364.65 1704.51,-366.15 1703.15,-359.29"/>
<text text-anchor="start" x="1968" y="-332.05" font-family="arial" font-size="14.00" fill="#377eb8">true</text>
</g>
<!-- ID_98_ct1_st0125&#45;&gt;ID_98_ct1_st025 -->
<g id="edge35" class="edge">
<title>ID_98_ct1_st0125&#45;&gt;ID_98_ct1_st025</title>
<path fill="none" stroke="black" d="M1950.12,-448.55C1964.36,-443.63 1979.06,-437.55 1992,-430.25 2008.7,-420.84 2025.15,-407.59 2038.65,-395.35"/>
<polygon fill="black" stroke="black" points="2041.29,-397.68 2046.23,-388.31 2036.53,-392.55 2041.29,-397.68"/>
<text text-anchor="start" x="1968" y="-444.05" font-family="arial" font-size="14.00" fill="#377eb8">true</text>
</g>
<!-- ID_98_ct1_st0125&#45;&gt;ID_98_ct1_st0235 -->
<g id="edge36" class="edge">
<title>ID_98_ct1_st0125&#45;&gt;ID_98_ct1_st0235</title>
<path fill="none" stroke="black" d="M1950.24,-463.13C1964.04,-462.25 1978.54,-461.01 1992,-459.25 2055.44,-450.97 2071.35,-447.35 2133,-430.25 2172.22,-419.38 2215.04,-404.59 2250.13,-391.67"/>
<polygon fill="black" stroke="black" points="2251.66,-394.84 2259.82,-388.08 2249.22,-388.28 2251.66,-394.84"/>
<text text-anchor="start" x="2059.5" y="-460.05" font-family="arial" font-size="14.00" fill="#377eb8">true</text>
</g>
<!-- ID_98_ct1_st0125&#45;&gt;ID_98_ct1_st0125 -->
<g id="edge37" class="edge">
<title>ID_98_ct1_st0125&#45;&gt;ID_98_ct1_st0125</title>
<path fill="none" stroke="black" d="M1867.94,-490.43C1867.16,-500.16 1873.02,-508.25 1885.5,-508.25 1893.3,-508.25 1898.51,-505.09 1901.14,-500.35"/>
<polygon fill="black" stroke="black" points="1904.59,-500.91 1903.06,-490.43 1897.72,-499.58 1904.59,-500.91"/>
<text text-anchor="start" x="1873.5" y="-512.05" font-family="arial" font-size="14.00" fill="#377eb8">true</text>
</g>
<!-- ID_98_ct1_st0125&#45;&gt;ID_98_ct1_st01235 -->
<g id="edge38" class="edge">
<title>ID_98_ct1_st0125&#45;&gt;ID_98_ct1_st01235</title>
<path fill="none" stroke="black" d="M1843.51,-440.05C1823.37,-427.68 1803.31,-415.37 1803,-415.25 1784.97,-408.26 1743.04,-400.07 1704.57,-393.48"/>
<polygon fill="black" stroke="black" points="1704.8,-389.97 1694.36,-391.75 1703.63,-396.87 1704.8,-389.97"/>
<text text-anchor="start" x="1745.5" y="-419.05" font-family="arial" font-size="14.00" fill="#377eb8">true</text>
</g>
<!-- ID_98_ct1_st01235&#45;&gt;ID_98_ct1_st0245 -->
<g id="edge46" class="edge">
<title>ID_98_ct1_st01235&#45;&gt;ID_98_ct1_st0245</title>
<path fill="none" stroke="black" d="M1556.93,-369.54C1524.02,-363.7 1483.89,-356.38 1448,-349.25 1445.34,-348.73 1442.65,-348.19 1439.93,-347.63"/>
<polygon fill="black" stroke="black" points="1440.5,-344.18 1430,-345.6 1439.1,-351.04 1440.5,-344.18"/>
<text text-anchor="start" x="1481.5" y="-369.05" font-family="arial" font-size="14.00" fill="#377eb8">true</text>
</g>
<!-- ID_98_ct1_st01235&#45;&gt;ID_98_ct1_st01245 -->
<g id="edge49" class="edge">
<title>ID_98_ct1_st01235&#45;&gt;ID_98_ct1_st01245</title>
<path fill="none" stroke="black" d="M1556.96,-385.92C1467.81,-392.07 1310.45,-402.93 1210.21,-409.85"/>
<polygon fill="black" stroke="black" points="1209.82,-406.37 1200.09,-410.55 1210.3,-413.36 1209.82,-406.37"/>
<text text-anchor="start" x="1333" y="-409.05" font-family="arial" font-size="14.00" fill="#377eb8">true</text>
</g>
<!-- ID_98_ct1_st01235&#45;&gt;ID_98_ct1_st025 -->
<g id="edge45" class="edge">
<title>ID_98_ct1_st01235&#45;&gt;ID_98_ct1_st025</title>
<path fill="none" stroke="black" d="M1694.17,-385.14C1759.71,-388.09 1861.84,-390.52 1950,-383.25 1966.19,-381.92 1983.48,-379.59 1999.76,-376.99"/>
<polygon fill="black" stroke="black" points="2000.46,-380.42 2009.75,-375.34 1999.31,-373.51 2000.46,-380.42"/>
<text text-anchor="start" x="1840" y="-391.05" font-family="arial" font-size="14.00" fill="#377eb8">(Q&#39; || (S&#39; || !R&#39;))</text>
</g>
<!-- ID_98_ct1_st01235&#45;&gt;ID_98_ct1_st0235 -->
<g id="edge47" class="edge">
<title>ID_98_ct1_st01235&#45;&gt;ID_98_ct1_st0235</title>
<path fill="none" stroke="black" d="M1655.95,-406.44C1668.25,-417.53 1682.35,-431.02 1694,-444.25 1703.05,-454.53 1701.85,-460.07 1712,-469.25 1753.49,-506.79 1766.96,-517.76 1821,-532.25 1876.38,-547.11 1892.86,-536.91 1950,-532.25 2083.01,-521.42 2133.14,-539.46 2242,-462.25 2266.58,-444.82 2287.95,-418.15 2302.63,-396.88"/>
<polygon fill="black" stroke="black" points="2305.64,-398.68 2308.31,-388.43 2299.83,-394.78 2305.64,-398.68"/>
<text text-anchor="start" x="1968" y="-534.05" font-family="arial" font-size="14.00" fill="#377eb8">true</text>
</g>
<!-- ID_98_ct1_st01235&#45;&gt;ID_98_ct1_st0125 -->
<g id="edge48" class="edge">
<title>ID_98_ct1_st01235&#45;&gt;ID_98_ct1_st0125</title>
<path fill="none" stroke="black" d="M1664.37,-406.44C1678.78,-415.07 1695.67,-424.1 1712,-430.25 1730.11,-437.08 1772.54,-445.72 1810.78,-452.71"/>
<polygon fill="black" stroke="black" points="1810.45,-456.2 1820.91,-454.54 1811.7,-449.32 1810.45,-456.2"/>
<text text-anchor="start" x="1712" y="-454.05" font-family="arial" font-size="14.00" fill="#377eb8">(Q&#39; || (S&#39; || !R&#39;))</text>
</g>
<!-- ID_98_ct1_st01235&#45;&gt;ID_98_ct1_st01235 -->
<g id="edge50" class="edge">
<title>ID_98_ct1_st01235&#45;&gt;ID_98_ct1_st01235</title>
<path fill="none" stroke="black" d="M1600.85,-406.43C1599.75,-416.16 1607.97,-424.25 1625.5,-424.25 1636.46,-424.25 1643.78,-421.09 1647.46,-416.35"/>
<polygon fill="black" stroke="black" points="1650.91,-417 1650.15,-406.43 1644.15,-415.16 1650.91,-417"/>
<text text-anchor="start" x="1613.5" y="-428.05" font-family="arial" font-size="14.00" fill="#377eb8">true</text>
</g>
</g>
</svg>
