<?xml version="1.0" encoding="UTF-8" standalone="no"?>
<!DOCTYPE svg PUBLIC "-//W3C//DTD SVG 1.1//EN"
 "http://www.w3.org/Graphics/SVG/1.1/DTD/svg11.dtd">
<!-- Generated by graphviz version 2.43.0 (0)
 -->
<!-- Title: G Pages: 1 -->
<svg width="4025pt" height="2129pt"
 viewBox="0.00 0.00 4025.00 2129.00" xmlns="http://www.w3.org/2000/svg" xmlns:xlink="http://www.w3.org/1999/xlink">
<g id="graph0" class="graph" transform="scale(1 1) rotate(0) translate(4 2125)">
<title>G</title>
<polygon fill="white" stroke="transparent" points="-4,4 -4,-2125 4021,-2125 4021,4 -4,4"/>
<!-- _ID_1_ct1_st0 -->
<!-- ID_1_ct1_st0 -->
<g id="node2" class="node">
<title>ID_1_ct1_st0</title>
<polygon fill="none" stroke="black" points="246,-994 147,-994 147,-944 246,-944 246,-994"/>
<text text-anchor="start" x="155" y="-979.8" font-family="arial" font-weight="bold" font-size="14.00">ID_1_ct1_st0</text>
<text text-anchor="start" x="190" y="-965.8" font-family="arial" font-size="14.00" fill="#984ea3">!P</text>
<text text-anchor="start" x="184.5" y="-951.8" font-family="arial" font-size="14.00" fill="#ff7f00">true</text>
</g>
<!-- _ID_1_ct1_st0&#45;&gt;ID_1_ct1_st0 -->
<g id="edge1" class="edge">
<title>_ID_1_ct1_st0&#45;&gt;ID_1_ct1_st0</title>
<path fill="none" stroke="black" d="M104.04,-969C114.57,-969 125.75,-969 136.53,-969"/>
<polygon fill="black" stroke="black" points="136.72,-972.5 146.72,-969 136.72,-965.5 136.72,-972.5"/>
</g>
<!-- ID_1_ct1_st0&#45;&gt;ID_1_ct1_st0 -->
<g id="edge5" class="edge">
<title>ID_1_ct1_st0&#45;&gt;ID_1_ct1_st0</title>
<path fill="none" stroke="black" d="M182.68,-994.18C182.06,-1003.91 186.67,-1012 196.5,-1012 202.64,-1012 206.75,-1008.84 208.81,-1004.09"/>
<polygon fill="black" stroke="black" points="212.27,-1004.59 210.32,-994.18 205.35,-1003.53 212.27,-1004.59"/>
<text text-anchor="start" x="184.5" y="-1015.8" font-family="arial" font-size="14.00" fill="#377eb8">true</text>
</g>
<!-- ID_1_ct1_st01 -->
<g id="node4" class="node">
<title>ID_1_ct1_st01</title>
<polygon fill="none" stroke="black" points="425,-1410 318,-1410 318,-1360 425,-1360 425,-1410"/>
<text text-anchor="start" x="326" y="-1395.8" font-family="arial" font-weight="bold" font-size="14.00">ID_1_ct1_st01</text>
<text text-anchor="start" x="344" y="-1381.8" font-family="arial" font-size="14.00" fill="#984ea3">(P &amp;&amp; Q)</text>
<text text-anchor="start" x="359.5" y="-1367.8" font-family="arial" font-size="14.00" fill="#ff7f00">true</text>
</g>
<!-- ID_1_ct1_st0&#45;&gt;ID_1_ct1_st01 -->
<g id="edge6" class="edge">
<title>ID_1_ct1_st0&#45;&gt;ID_1_ct1_st01</title>
<path fill="none" stroke="black" d="M204.77,-994.24C216.74,-1034.85 242.07,-1116.9 270,-1184 295.05,-1244.19 330.22,-1311.44 351.62,-1350.89"/>
<polygon fill="black" stroke="black" points="348.63,-1352.72 356.49,-1359.83 354.78,-1349.37 348.63,-1352.72"/>
<text text-anchor="start" x="270" y="-1237.8" font-family="arial" font-size="14.00" fill="#377eb8">true</text>
</g>
<!-- ID_1_ct1_st012 -->
<g id="node6" class="node">
<title>ID_1_ct1_st012</title>
<polygon fill="none" stroke="black" points="610,-1732 491,-1732 491,-1682 610,-1682 610,-1732"/>
<text text-anchor="start" x="501.5" y="-1717.8" font-family="arial" font-weight="bold" font-size="14.00">ID_1_ct1_st012</text>
<text text-anchor="start" x="499" y="-1703.8" font-family="arial" font-size="14.00" fill="#984ea3">(P &amp;&amp; (!Q &amp;&amp; R))</text>
<text text-anchor="start" x="538.5" y="-1689.8" font-family="arial" font-size="14.00" fill="#ff7f00">true</text>
</g>
<!-- ID_1_ct1_st0&#45;&gt;ID_1_ct1_st012 -->
<g id="edge7" class="edge">
<title>ID_1_ct1_st0&#45;&gt;ID_1_ct1_st012</title>
<path fill="none" stroke="black" d="M198.09,-994.13C201.24,-1118.88 218.02,-1667.84 270,-1721 323.88,-1776.1 418.28,-1757.55 482.31,-1735.46"/>
<polygon fill="black" stroke="black" points="483.68,-1738.69 491.93,-1732.04 481.33,-1732.09 483.68,-1738.69"/>
<text text-anchor="start" x="359.5" y="-1760.8" font-family="arial" font-size="14.00" fill="#377eb8">true</text>
</g>
<!-- ID_1_ct1_st0123 -->
<g id="node8" class="node">
<title>ID_1_ct1_st0123</title>
<polygon fill="none" stroke="black" points="3288,-1521 3165,-1521 3165,-1471 3288,-1471 3288,-1521"/>
<text text-anchor="start" x="3173.5" y="-1506.8" font-family="arial" font-weight="bold" font-size="14.00">ID_1_ct1_st0123</text>
<text text-anchor="start" x="3173" y="-1492.8" font-family="arial" font-size="14.00" fill="#984ea3">(P &amp;&amp; (!Q &amp;&amp; !R))</text>
<text text-anchor="start" x="3214.5" y="-1478.8" font-family="arial" font-size="14.00" fill="#ff7f00">true</text>
</g>
<!-- ID_1_ct1_st0&#45;&gt;ID_1_ct1_st0123 -->
<g id="edge8" class="edge">
<title>ID_1_ct1_st0&#45;&gt;ID_1_ct1_st0123</title>
<path fill="none" stroke="black" d="M197.59,-994.2C198.33,-1147.83 205.29,-1954.59 270,-2041 298.53,-2079.1 322.9,-2078 370.5,-2078 370.5,-2078 370.5,-2078 1268,-2078 1372.5,-2078 3073.37,-2064.16 3147,-1990 3180.07,-1956.7 3148,-1611.74 3165,-1568 3170.58,-1553.66 3180.25,-1540.12 3190.24,-1528.73"/>
<polygon fill="black" stroke="black" points="3192.97,-1530.94 3197.16,-1521.21 3187.82,-1526.2 3192.97,-1530.94"/>
<text text-anchor="start" x="1402.5" y="-2080.8" font-family="arial" font-size="14.00" fill="#377eb8">true</text>
</g>
<!-- _ID_1_ct1_st01 -->
<!-- _ID_1_ct1_st01&#45;&gt;ID_1_ct1_st01 -->
<g id="edge2" class="edge">
<title>_ID_1_ct1_st01&#45;&gt;ID_1_ct1_st01</title>
<path fill="none" stroke="black" d="M201.86,-2084.89C224.75,-1989.91 331.06,-1548.7 362.02,-1420.2"/>
<polygon fill="black" stroke="black" points="365.51,-1420.66 364.45,-1410.12 358.7,-1419.02 365.51,-1420.66"/>
</g>
<!-- ID_1_ct1_st01&#45;&gt;ID_1_ct1_st0 -->
<g id="edge9" class="edge">
<title>ID_1_ct1_st01&#45;&gt;ID_1_ct1_st0</title>
<path fill="none" stroke="black" d="M362.87,-1359.88C350.11,-1318.63 322.94,-1234.2 294,-1165 269.79,-1107.1 236.56,-1042.16 216.08,-1003.47"/>
<polygon fill="black" stroke="black" points="218.95,-1001.41 211.17,-994.22 212.77,-1004.69 218.95,-1001.41"/>
<text text-anchor="start" x="274.5" y="-1168.8" font-family="arial" font-size="14.00" fill="#377eb8">Q&#39;</text>
</g>
<!-- ID_1_ct1_st01&#45;&gt;ID_1_ct1_st01 -->
<g id="edge12" class="edge">
<title>ID_1_ct1_st01&#45;&gt;ID_1_ct1_st01</title>
<path fill="none" stroke="black" d="M355.06,-1410.18C354.33,-1419.91 359.81,-1428 371.5,-1428 378.8,-1428 383.68,-1424.84 386.14,-1420.09"/>
<polygon fill="black" stroke="black" points="389.6,-1420.64 387.94,-1410.18 382.71,-1419.39 389.6,-1420.64"/>
<text text-anchor="start" x="359.5" y="-1431.8" font-family="arial" font-size="14.00" fill="#377eb8">true</text>
</g>
<!-- ID_1_ct1_st01&#45;&gt;ID_1_ct1_st012 -->
<g id="edge13" class="edge">
<title>ID_1_ct1_st01&#45;&gt;ID_1_ct1_st012</title>
<path fill="none" stroke="black" d="M383.97,-1410.2C398.44,-1441.64 424.43,-1496.87 449,-1543 466.42,-1575.7 471.72,-1583.36 491,-1615 502.83,-1634.41 516.43,-1655.85 527.54,-1673.15"/>
<polygon fill="black" stroke="black" points="524.74,-1675.27 533.1,-1681.78 530.63,-1671.48 524.74,-1675.27"/>
<text text-anchor="start" x="449" y="-1588.8" font-family="arial" font-size="14.00" fill="#377eb8">true</text>
</g>
<!-- ID_1_ct1_st01&#45;&gt;ID_1_ct1_st0123 -->
<g id="edge14" class="edge">
<title>ID_1_ct1_st01&#45;&gt;ID_1_ct1_st0123</title>
<path fill="none" stroke="black" d="M376.91,-1410.06C391.02,-1487.59 437.31,-1721.49 491,-1774 554.51,-1836.13 584.12,-1840.24 670,-1863 728.88,-1878.6 626.59,-1900 1845.5,-1900 1845.5,-1900 1845.5,-1900 2958,-1900 3046,-1900 3093.43,-1910.81 3147,-1841 3184.01,-1792.77 3142.32,-1624.41 3165,-1568 3170.74,-1553.72 3180.46,-1540.2 3190.44,-1528.81"/>
<polygon fill="black" stroke="black" points="3193.16,-1531.02 3197.35,-1521.28 3188.01,-1526.28 3193.16,-1531.02"/>
<text text-anchor="start" x="1546.5" y="-1902.8" font-family="arial" font-size="14.00" fill="#377eb8">true</text>
</g>
<!-- ID_1_ct1_st02 -->
<g id="node9" class="node">
<title>ID_1_ct1_st02</title>
<polygon fill="none" stroke="black" points="793,-1646 670,-1646 670,-1596 793,-1596 793,-1646"/>
<text text-anchor="start" x="686" y="-1631.8" font-family="arial" font-weight="bold" font-size="14.00">ID_1_ct1_st02</text>
<text text-anchor="start" x="678" y="-1617.8" font-family="arial" font-size="14.00" fill="#984ea3">(!P &amp;&amp; (!Q &amp;&amp; R))</text>
<text text-anchor="start" x="719.5" y="-1603.8" font-family="arial" font-size="14.00" fill="#ff7f00">true</text>
</g>
<!-- ID_1_ct1_st01&#45;&gt;ID_1_ct1_st02 -->
<g id="edge10" class="edge">
<title>ID_1_ct1_st01&#45;&gt;ID_1_ct1_st02</title>
<path fill="none" stroke="black" d="M389.76,-1410.24C403.99,-1429.7 425.58,-1456.35 449,-1475 451.44,-1476.94 591.18,-1549.14 672.83,-1591.26"/>
<polygon fill="black" stroke="black" points="671.51,-1594.52 682,-1596 674.72,-1588.3 671.51,-1594.52"/>
<text text-anchor="start" x="538.5" y="-1561.8" font-family="arial" font-size="14.00" fill="#377eb8">true</text>
</g>
<!-- ID_1_ct1_st023 -->
<g id="node10" class="node">
<title>ID_1_ct1_st023</title>
<polygon fill="none" stroke="black" points="980,-1485 853,-1485 853,-1435 980,-1435 980,-1485"/>
<text text-anchor="start" x="867.5" y="-1470.8" font-family="arial" font-weight="bold" font-size="14.00">ID_1_ct1_st023</text>
<text text-anchor="start" x="861" y="-1456.8" font-family="arial" font-size="14.00" fill="#984ea3">(!P &amp;&amp; (!Q &amp;&amp; !R))</text>
<text text-anchor="start" x="904.5" y="-1442.8" font-family="arial" font-size="14.00" fill="#ff7f00">true</text>
</g>
<!-- ID_1_ct1_st01&#45;&gt;ID_1_ct1_st023 -->
<g id="edge11" class="edge">
<title>ID_1_ct1_st01&#45;&gt;ID_1_ct1_st023</title>
<path fill="none" stroke="black" d="M425.11,-1394.99C433.11,-1396.41 441.26,-1397.79 449,-1399 587.83,-1420.77 750.76,-1440.83 842.69,-1451.64"/>
<polygon fill="black" stroke="black" points="842.39,-1455.13 852.73,-1452.82 843.2,-1448.18 842.39,-1455.13"/>
<text text-anchor="start" x="628" y="-1430.8" font-family="arial" font-size="14.00" fill="#377eb8">true</text>
</g>
<!-- _ID_1_ct1_st012 -->
<!-- _ID_1_ct1_st012&#45;&gt;ID_1_ct1_st012 -->
<g id="edge3" class="edge">
<title>_ID_1_ct1_st012&#45;&gt;ID_1_ct1_st012</title>
<path fill="none" stroke="black" d="M431.16,-1943.92C446.34,-1938.42 461.6,-1930.47 473,-1919 521.36,-1870.33 539.36,-1788.88 545.9,-1742.38"/>
<polygon fill="black" stroke="black" points="549.41,-1742.55 547.23,-1732.18 542.47,-1741.65 549.41,-1742.55"/>
</g>
<!-- ID_1_ct1_st012&#45;&gt;ID_1_ct1_st0 -->
<g id="edge21" class="edge">
<title>ID_1_ct1_st012&#45;&gt;ID_1_ct1_st0</title>
<path fill="none" stroke="black" d="M490.98,-1714.33C426.53,-1718.78 324.77,-1714.41 270,-1653 226.42,-1604.14 204.3,-1137 198.86,-1004.11"/>
<polygon fill="black" stroke="black" points="202.35,-1003.91 198.45,-994.06 195.36,-1004.2 202.35,-1003.91"/>
<text text-anchor="start" x="364" y="-1717.8" font-family="arial" font-size="14.00" fill="#377eb8">Q&#39;</text>
</g>
<!-- ID_1_ct1_st012&#45;&gt;ID_1_ct1_st01 -->
<g id="edge24" class="edge">
<title>ID_1_ct1_st012&#45;&gt;ID_1_ct1_st01</title>
<path fill="none" stroke="black" d="M490.85,-1686.64C475.4,-1678.84 460,-1668.47 449,-1655 392.26,-1585.51 377.57,-1476.3 373.79,-1420.46"/>
<polygon fill="black" stroke="black" points="377.27,-1420.13 373.18,-1410.35 370.29,-1420.54 377.27,-1420.13"/>
<text text-anchor="start" x="449" y="-1678.8" font-family="arial" font-size="14.00" fill="#377eb8">true</text>
</g>
<!-- ID_1_ct1_st012&#45;&gt;ID_1_ct1_st012 -->
<g id="edge25" class="edge">
<title>ID_1_ct1_st012&#45;&gt;ID_1_ct1_st012</title>
<path fill="none" stroke="black" d="M534.06,-1732.18C533.33,-1741.91 538.81,-1750 550.5,-1750 557.8,-1750 562.68,-1746.84 565.14,-1742.09"/>
<polygon fill="black" stroke="black" points="568.6,-1742.64 566.94,-1732.18 561.71,-1741.39 568.6,-1742.64"/>
<text text-anchor="start" x="538.5" y="-1753.8" font-family="arial" font-size="14.00" fill="#377eb8">true</text>
</g>
<!-- ID_1_ct1_st012&#45;&gt;ID_1_ct1_st0123 -->
<g id="edge26" class="edge">
<title>ID_1_ct1_st012&#45;&gt;ID_1_ct1_st0123</title>
<path fill="none" stroke="black" d="M565.91,-1732.11C592.5,-1774.81 653.67,-1857 730.5,-1857 730.5,-1857 730.5,-1857 1559.5,-1857 1825.51,-1857 1891.99,-1862 2158,-1862 2158,-1862 2158,-1862 2958,-1862 3046.69,-1862 3094.09,-1869.17 3147,-1798 3177.59,-1756.86 3145.58,-1615.45 3165,-1568 3170.83,-1553.76 3180.57,-1540.24 3190.54,-1528.85"/>
<polygon fill="black" stroke="black" points="3193.27,-1531.06 3197.44,-1521.32 3188.11,-1526.33 3193.27,-1531.06"/>
<text text-anchor="start" x="1690.5" y="-1861.8" font-family="arial" font-size="14.00" fill="#377eb8">true</text>
</g>
<!-- ID_1_ct1_st012&#45;&gt;ID_1_ct1_st02 -->
<g id="edge22" class="edge">
<title>ID_1_ct1_st012&#45;&gt;ID_1_ct1_st02</title>
<path fill="none" stroke="black" d="M580.83,-1681.8C594.46,-1671.1 611.32,-1659.23 628,-1651 638.1,-1646.02 649.17,-1641.71 660.19,-1638.04"/>
<polygon fill="black" stroke="black" points="661.36,-1641.34 669.83,-1634.98 659.24,-1634.67 661.36,-1641.34"/>
<text text-anchor="start" x="628" y="-1654.8" font-family="arial" font-size="14.00" fill="#377eb8">true</text>
</g>
<!-- ID_1_ct1_st012&#45;&gt;ID_1_ct1_st023 -->
<g id="edge23" class="edge">
<title>ID_1_ct1_st012&#45;&gt;ID_1_ct1_st023</title>
<path fill="none" stroke="black" d="M610.13,-1717.21C662.38,-1723.08 738.76,-1723.39 793,-1688 861.44,-1643.34 894.47,-1547.06 907.85,-1495.04"/>
<polygon fill="black" stroke="black" points="911.27,-1495.81 910.27,-1485.26 904.47,-1494.13 911.27,-1495.81"/>
<text text-anchor="start" x="719.5" y="-1723.8" font-family="arial" font-size="14.00" fill="#377eb8">true</text>
</g>
<!-- _ID_1_ct1_st0123 -->
<!-- _ID_1_ct1_st0123&#45;&gt;ID_1_ct1_st0123 -->
<g id="edge4" class="edge">
<title>_ID_1_ct1_st0123&#45;&gt;ID_1_ct1_st0123</title>
<path fill="none" stroke="black" d="M3020.3,-1393.66C3058.52,-1396.79 3107.54,-1404.7 3147,-1424 3166.24,-1433.41 3184.14,-1449.04 3197.97,-1463.34"/>
<polygon fill="black" stroke="black" points="3195.43,-1465.75 3204.82,-1470.66 3200.54,-1460.96 3195.43,-1465.75"/>
</g>
<!-- ID_1_ct1_st0123&#45;&gt;ID_1_ct1_st0 -->
<g id="edge35" class="edge">
<title>ID_1_ct1_st0123&#45;&gt;ID_1_ct1_st0</title>
<path fill="none" stroke="black" d="M3197.23,-1521.23C3185.01,-1533.94 3171.93,-1550.38 3165,-1568 3150.58,-1604.65 3171.43,-1891.11 3147,-1922 3057.15,-2035.63 1992.36,-2027 1847.5,-2027 370.5,-2027 370.5,-2027 370.5,-2027 236.61,-2027 287.8,-1875.7 270,-1743 231.93,-1459.17 207.16,-1114.12 199.8,-1004.32"/>
<polygon fill="black" stroke="black" points="203.28,-1003.89 199.12,-994.14 196.29,-1004.35 203.28,-1003.89"/>
<text text-anchor="start" x="1407" y="-2030.8" font-family="arial" font-size="14.00" fill="#377eb8">Q&#39;</text>
</g>
<!-- ID_1_ct1_st0123&#45;&gt;ID_1_ct1_st01 -->
<g id="edge39" class="edge">
<title>ID_1_ct1_st0123&#45;&gt;ID_1_ct1_st01</title>
<path fill="none" stroke="black" d="M3197.28,-1521.25C3185.07,-1533.96 3171.99,-1550.4 3165,-1568 3152.1,-1600.48 3168.52,-1854.47 3147,-1882 3093.05,-1951.03 3045.61,-1938 2958,-1938 1845.5,-1938 1845.5,-1938 1845.5,-1938 1404.15,-1938 1293.48,-1932.76 853,-1905 688.46,-1894.63 613.61,-1934.22 491,-1824 459.07,-1795.3 462.99,-1777.59 449,-1737 410.2,-1624.43 386.8,-1484.59 377.35,-1420.32"/>
<polygon fill="black" stroke="black" points="380.8,-1419.7 375.9,-1410.3 373.87,-1420.7 380.8,-1419.7"/>
<text text-anchor="start" x="1546.5" y="-1940.8" font-family="arial" font-size="14.00" fill="#377eb8">true</text>
</g>
<!-- ID_1_ct1_st0123&#45;&gt;ID_1_ct1_st0123 -->
<g id="edge42" class="edge">
<title>ID_1_ct1_st0123&#45;&gt;ID_1_ct1_st0123</title>
<path fill="none" stroke="black" d="M3208.2,-1521.18C3207.38,-1530.91 3213.48,-1539 3226.5,-1539 3234.63,-1539 3240.07,-1535.84 3242.8,-1531.09"/>
<polygon fill="black" stroke="black" points="3246.26,-1531.67 3244.8,-1521.18 3239.39,-1530.29 3246.26,-1531.67"/>
<text text-anchor="start" x="3214.5" y="-1542.8" font-family="arial" font-size="14.00" fill="#377eb8">true</text>
</g>
<!-- ID_1_ct1_st0123&#45;&gt;ID_1_ct1_st023 -->
<g id="edge38" class="edge">
<title>ID_1_ct1_st0123&#45;&gt;ID_1_ct1_st023</title>
<path fill="none" stroke="black" d="M3198.96,-1521.06C3186.81,-1533.96 3173.31,-1550.62 3165,-1568 3147.03,-1605.59 3174.69,-1628.87 3147,-1660 3064.6,-1752.64 2993.98,-1693.69 2870,-1693 2527.94,-1691.1 1668.35,-1720.58 1331,-1664 1321.43,-1662.39 1006.04,-1563.45 998,-1558 973.33,-1541.28 952.24,-1514.85 937.85,-1493.64"/>
<polygon fill="black" stroke="black" points="940.72,-1491.63 932.29,-1485.22 934.87,-1495.49 940.72,-1491.63"/>
<text text-anchor="start" x="1980" y="-1701.8" font-family="arial" font-size="14.00" fill="#377eb8">true</text>
</g>
<!-- ID_1_ct1_st0245 -->
<g id="node11" class="node">
<title>ID_1_ct1_st0245</title>
<polygon fill="none" stroke="black" points="3532,-893 3362,-893 3362,-843 3532,-843 3532,-893"/>
<text text-anchor="start" x="3394" y="-878.8" font-family="arial" font-weight="bold" font-size="14.00">ID_1_ct1_st0245</text>
<text text-anchor="start" x="3370" y="-864.8" font-family="arial" font-size="14.00" fill="#984ea3">(!P &amp;&amp; (!Q &amp;&amp; (R &amp;&amp; !S)))</text>
<text text-anchor="start" x="3435" y="-850.8" font-family="arial" font-size="14.00" fill="#ff7f00">true</text>
</g>
<!-- ID_1_ct1_st0123&#45;&gt;ID_1_ct1_st0245 -->
<g id="edge36" class="edge">
<title>ID_1_ct1_st0123&#45;&gt;ID_1_ct1_st0245</title>
<path fill="none" stroke="black" d="M3245.6,-1470.97C3271.8,-1433.42 3319.78,-1359.39 3344,-1289 3361.4,-1238.42 3350.81,-1222.31 3362,-1170 3382.95,-1072.06 3417.19,-958.85 3434.79,-902.95"/>
<polygon fill="black" stroke="black" points="3438.19,-903.79 3437.87,-893.2 3431.52,-901.68 3438.19,-903.79"/>
<text text-anchor="start" x="3313" y="-1375.8" font-family="arial" font-size="14.00" fill="#377eb8">true</text>
</g>
<!-- ID_1_ct1_st02456 -->
<g id="node12" class="node">
<title>ID_1_ct1_st02456</title>
<polygon fill="none" stroke="black" points="4017,-1262 3850,-1262 3850,-1212 4017,-1212 4017,-1262"/>
<text text-anchor="start" x="3877" y="-1247.8" font-family="arial" font-weight="bold" font-size="14.00">ID_1_ct1_st02456</text>
<text text-anchor="start" x="3858" y="-1233.8" font-family="arial" font-size="14.00" fill="#984ea3">(!P &amp;&amp; (!Q &amp;&amp; (R &amp;&amp; S)))</text>
<text text-anchor="start" x="3921.5" y="-1219.8" font-family="arial" font-size="14.00" fill="#ff7f00">true</text>
</g>
<!-- ID_1_ct1_st0123&#45;&gt;ID_1_ct1_st02456 -->
<g id="edge37" class="edge">
<title>ID_1_ct1_st0123&#45;&gt;ID_1_ct1_st02456</title>
<path fill="none" stroke="black" d="M3288.16,-1487.21C3400.81,-1469.07 3647.59,-1420.64 3832,-1322 3857.57,-1308.33 3882.48,-1287.33 3901.1,-1269.62"/>
<polygon fill="black" stroke="black" points="3903.94,-1271.74 3908.68,-1262.27 3899.07,-1266.72 3903.94,-1271.74"/>
<text text-anchor="start" x="3557" y="-1431.8" font-family="arial" font-size="14.00" fill="#377eb8">true</text>
</g>
<!-- ID_1_ct1_st01245 -->
<g id="node13" class="node">
<title>ID_1_ct1_st01245</title>
<polygon fill="none" stroke="black" points="2408,-1013 2241,-1013 2241,-963 2408,-963 2408,-1013"/>
<text text-anchor="start" x="2268" y="-998.8" font-family="arial" font-weight="bold" font-size="14.00">ID_1_ct1_st01245</text>
<text text-anchor="start" x="2249" y="-984.8" font-family="arial" font-size="14.00" fill="#984ea3">(P &amp;&amp; (!Q &amp;&amp; (R &amp;&amp; !S)))</text>
<text text-anchor="start" x="2312.5" y="-970.8" font-family="arial" font-size="14.00" fill="#ff7f00">true</text>
</g>
<!-- ID_1_ct1_st0123&#45;&gt;ID_1_ct1_st01245 -->
<g id="edge40" class="edge">
<title>ID_1_ct1_st0123&#45;&gt;ID_1_ct1_st01245</title>
<path fill="none" stroke="black" d="M3172.54,-1470.91C3164.13,-1467.55 3155.42,-1464.43 3147,-1462 3145.41,-1461.54 2803.95,-1426.41 2724,-1381 2554.37,-1284.66 2405.72,-1097.72 2349.46,-1021.54"/>
<polygon fill="black" stroke="black" points="2352.11,-1019.23 2343.37,-1013.24 2346.46,-1023.37 2352.11,-1019.23"/>
<text text-anchor="start" x="2776" y="-1421.8" font-family="arial" font-size="14.00" fill="#377eb8">true</text>
</g>
<!-- ID_1_ct1_st012456 -->
<g id="node14" class="node">
<title>ID_1_ct1_st012456</title>
<polygon fill="none" stroke="black" points="1203,-713 1040,-713 1040,-663 1203,-663 1203,-713"/>
<text text-anchor="start" x="1061" y="-698.8" font-family="arial" font-weight="bold" font-size="14.00">ID_1_ct1_st012456</text>
<text text-anchor="start" x="1048" y="-684.8" font-family="arial" font-size="14.00" fill="#984ea3">(P &amp;&amp; (!Q &amp;&amp; (R &amp;&amp; S)))</text>
<text text-anchor="start" x="1109.5" y="-670.8" font-family="arial" font-size="14.00" fill="#ff7f00">true</text>
</g>
<!-- ID_1_ct1_st0123&#45;&gt;ID_1_ct1_st012456 -->
<g id="edge41" class="edge">
<title>ID_1_ct1_st0123&#45;&gt;ID_1_ct1_st012456</title>
<path fill="none" stroke="black" d="M3164.79,-1509.99C3158.8,-1511.11 3152.79,-1512.15 3147,-1513 2851.36,-1556.61 2095.15,-1649.36 1804,-1582 1786.44,-1577.94 1231.27,-1311.82 1221,-1297 1197.22,-1262.69 1208.92,-1151.33 1203,-1110 1182.29,-965.39 1146.15,-795.03 1130.31,-722.98"/>
<polygon fill="black" stroke="black" points="1133.7,-722.08 1128.13,-713.07 1126.86,-723.59 1133.7,-722.08"/>
<text text-anchor="start" x="2147" y="-1608.8" font-family="arial" font-size="14.00" fill="#377eb8">true</text>
</g>
<!-- ID_1_ct1_st02&#45;&gt;ID_1_ct1_st0 -->
<g id="edge15" class="edge">
<title>ID_1_ct1_st02&#45;&gt;ID_1_ct1_st0</title>
<path fill="none" stroke="black" d="M669.82,-1623.81C551.38,-1628.66 298.46,-1635.72 270,-1609 225.55,-1567.26 204.21,-1132.04 198.87,-1004.15"/>
<polygon fill="black" stroke="black" points="202.37,-1003.96 198.46,-994.11 195.37,-1004.25 202.37,-1003.96"/>
<text text-anchor="start" x="453.5" y="-1631.8" font-family="arial" font-size="14.00" fill="#377eb8">Q&#39;</text>
</g>
<!-- ID_1_ct1_st02&#45;&gt;ID_1_ct1_st01 -->
<g id="edge18" class="edge">
<title>ID_1_ct1_st02&#45;&gt;ID_1_ct1_st01</title>
<path fill="none" stroke="black" d="M669.96,-1611.68C603.93,-1601.12 505.64,-1584.07 491,-1574 490.07,-1573.36 427.53,-1473.22 393.69,-1418.99"/>
<polygon fill="black" stroke="black" points="396.59,-1417.01 388.32,-1410.38 390.65,-1420.72 396.59,-1417.01"/>
<text text-anchor="start" x="538.5" y="-1604.8" font-family="arial" font-size="14.00" fill="#377eb8">true</text>
</g>
<!-- ID_1_ct1_st02&#45;&gt;ID_1_ct1_st012 -->
<g id="edge19" class="edge">
<title>ID_1_ct1_st02&#45;&gt;ID_1_ct1_st012</title>
<path fill="none" stroke="black" d="M693.86,-1646.04C680.96,-1654.27 666.14,-1663.08 652,-1670 641.73,-1675.03 630.6,-1679.78 619.61,-1684.09"/>
<polygon fill="black" stroke="black" points="618.1,-1680.92 610.01,-1687.76 620.6,-1687.45 618.1,-1680.92"/>
<text text-anchor="start" x="628" y="-1682.8" font-family="arial" font-size="14.00" fill="#377eb8">true</text>
</g>
<!-- ID_1_ct1_st02&#45;&gt;ID_1_ct1_st0123 -->
<g id="edge20" class="edge">
<title>ID_1_ct1_st02&#45;&gt;ID_1_ct1_st0123</title>
<path fill="none" stroke="black" d="M756.75,-1646.23C806.42,-1697.91 915.15,-1811 915.5,-1811 915.5,-1811 915.5,-1811 1559.5,-1811 1825.56,-1811 1891.94,-1824 2158,-1824 2158,-1824 2158,-1824 2958,-1824 3047.73,-1824 3092.39,-1824.2 3147,-1753 3172.14,-1720.22 3148.99,-1606.08 3165,-1568 3171.01,-1553.69 3180.9,-1540.08 3190.96,-1528.62"/>
<polygon fill="black" stroke="black" points="3193.73,-1530.79 3197.91,-1521.05 3188.57,-1526.06 3193.73,-1530.79"/>
<text text-anchor="start" x="1834.5" y="-1821.8" font-family="arial" font-size="14.00" fill="#377eb8">true</text>
</g>
<!-- ID_1_ct1_st02&#45;&gt;ID_1_ct1_st02 -->
<g id="edge16" class="edge">
<title>ID_1_ct1_st02&#45;&gt;ID_1_ct1_st02</title>
<path fill="none" stroke="black" d="M714.69,-1646.18C713.94,-1655.91 719.55,-1664 731.5,-1664 738.97,-1664 743.96,-1660.84 746.47,-1656.09"/>
<polygon fill="black" stroke="black" points="749.93,-1656.65 748.31,-1646.18 743.04,-1655.37 749.93,-1656.65"/>
<text text-anchor="start" x="719.5" y="-1667.8" font-family="arial" font-size="14.00" fill="#377eb8">true</text>
</g>
<!-- ID_1_ct1_st02&#45;&gt;ID_1_ct1_st023 -->
<g id="edge17" class="edge">
<title>ID_1_ct1_st02&#45;&gt;ID_1_ct1_st023</title>
<path fill="none" stroke="black" d="M761.09,-1595.84C792.96,-1567.81 844.56,-1522.41 879.24,-1491.9"/>
<polygon fill="black" stroke="black" points="881.61,-1494.48 886.81,-1485.24 876.99,-1489.22 881.61,-1494.48"/>
<text text-anchor="start" x="811" y="-1553.8" font-family="arial" font-size="14.00" fill="#377eb8">true</text>
</g>
<!-- ID_1_ct1_st023&#45;&gt;ID_1_ct1_st0 -->
<g id="edge27" class="edge">
<title>ID_1_ct1_st023&#45;&gt;ID_1_ct1_st0</title>
<path fill="none" stroke="black" d="M878.55,-1434.73C757.65,-1352.06 374.09,-1089.76 242.4,-999.7"/>
<polygon fill="black" stroke="black" points="244.32,-996.78 234.09,-994.02 240.37,-1002.56 244.32,-996.78"/>
<text text-anchor="start" x="543" y="-1252.8" font-family="arial" font-size="14.00" fill="#377eb8">Q&#39;</text>
</g>
<!-- ID_1_ct1_st023&#45;&gt;ID_1_ct1_st01 -->
<g id="edge31" class="edge">
<title>ID_1_ct1_st023&#45;&gt;ID_1_ct1_st01</title>
<path fill="none" stroke="black" d="M852.93,-1440.95C833.82,-1435.59 812.66,-1430.1 793,-1426 667.73,-1399.85 517.89,-1390.3 435.16,-1386.87"/>
<polygon fill="black" stroke="black" points="435.3,-1383.37 425.17,-1386.47 435.02,-1390.37 435.3,-1383.37"/>
<text text-anchor="start" x="628" y="-1406.8" font-family="arial" font-size="14.00" fill="#377eb8">true</text>
</g>
<!-- ID_1_ct1_st023&#45;&gt;ID_1_ct1_st0123 -->
<g id="edge34" class="edge">
<title>ID_1_ct1_st023&#45;&gt;ID_1_ct1_st0123</title>
<path fill="none" stroke="black" d="M926.65,-1485.08C938.75,-1515.12 962.76,-1565.24 998,-1596 1115.11,-1698.23 1175.93,-1692.07 1331,-1703 1431.65,-1710.09 3071.84,-1798.32 3147,-1731 3174.15,-1706.69 3150.66,-1601.5 3165,-1568 3171.11,-1553.73 3181.02,-1540.13 3191.07,-1528.67"/>
<polygon fill="black" stroke="black" points="3193.84,-1530.84 3198.01,-1521.1 3188.67,-1526.11 3193.84,-1530.84"/>
<text text-anchor="start" x="1980" y="-1741.8" font-family="arial" font-size="14.00" fill="#377eb8">true</text>
</g>
<!-- ID_1_ct1_st023&#45;&gt;ID_1_ct1_st023 -->
<g id="edge30" class="edge">
<title>ID_1_ct1_st023&#45;&gt;ID_1_ct1_st023</title>
<path fill="none" stroke="black" d="M899.32,-1485.18C898.55,-1494.91 904.28,-1503 916.5,-1503 924.14,-1503 929.24,-1499.84 931.8,-1495.09"/>
<polygon fill="black" stroke="black" points="935.26,-1495.65 933.68,-1485.18 928.38,-1494.35 935.26,-1495.65"/>
<text text-anchor="start" x="904.5" y="-1506.8" font-family="arial" font-size="14.00" fill="#377eb8">true</text>
</g>
<!-- ID_1_ct1_st023&#45;&gt;ID_1_ct1_st0245 -->
<g id="edge28" class="edge">
<title>ID_1_ct1_st023&#45;&gt;ID_1_ct1_st0245</title>
<path fill="none" stroke="black" d="M980.07,-1482.76C986.09,-1484.65 992.14,-1486.43 998,-1488 1016.36,-1492.91 1021.25,-1492.89 1040,-1496 1296.39,-1538.55 1359.74,-1559.73 1619,-1578 2019.03,-1606.19 2120.31,-1552.56 2518,-1501 2667.89,-1481.57 2744.61,-1543.36 2852,-1437 2875.44,-1413.79 2848.15,-1389.71 2870,-1365 2924.9,-1302.92 2968.64,-1332.47 3044,-1298 3203.66,-1224.97 3237.36,-1180.47 3344,-1041 3378.41,-996 3410.23,-938.43 3428.89,-902.38"/>
<polygon fill="black" stroke="black" points="3432.12,-903.75 3433.56,-893.25 3425.89,-900.55 3432.12,-903.75"/>
<text text-anchor="start" x="2147" y="-1568.8" font-family="arial" font-size="14.00" fill="#377eb8">true</text>
</g>
<!-- ID_1_ct1_st023&#45;&gt;ID_1_ct1_st02456 -->
<g id="edge29" class="edge">
<title>ID_1_ct1_st023&#45;&gt;ID_1_ct1_st02456</title>
<path fill="none" stroke="black" d="M928.32,-1485.39C950.98,-1537.25 1004.25,-1652.36 1040,-1675 1109.37,-1718.93 1139.71,-1700.41 1221,-1712 1269.56,-1718.92 1282.07,-1717.47 1331,-1721 1361.08,-1723.17 2517.89,-1794.97 2518,-1795 2794.19,-1861.96 2819.31,-2052 3103.5,-2052 3103.5,-2052 3103.5,-2052 3692,-2052 3857.12,-2052 3917.36,-1428.82 3929.89,-1272.32"/>
<polygon fill="black" stroke="black" points="3933.38,-1272.53 3930.68,-1262.29 3926.4,-1271.98 3933.38,-1272.53"/>
<text text-anchor="start" x="2460" y="-1798.8" font-family="arial" font-size="14.00" fill="#377eb8">true</text>
</g>
<!-- ID_1_ct1_st023&#45;&gt;ID_1_ct1_st01245 -->
<g id="edge32" class="edge">
<title>ID_1_ct1_st023&#45;&gt;ID_1_ct1_st01245</title>
<path fill="none" stroke="black" d="M940.3,-1434.76C955.34,-1419.52 976.21,-1400.82 998,-1389 1200.75,-1279.04 1291.95,-1353.65 1498,-1250 1507.05,-1245.45 1506.91,-1240.47 1516,-1236 1551.02,-1218.78 1571.9,-1240 1601,-1214 1617.68,-1199.1 1601.35,-1180.74 1619,-1167 1659.44,-1135.53 2026.33,-1120.66 2077,-1113 2142.25,-1103.13 2170.04,-1125.37 2223,-1086 2237.04,-1075.56 2229.77,-1064.41 2241,-1051 2250.77,-1039.32 2263.08,-1028.49 2275.19,-1019.22"/>
<polygon fill="black" stroke="black" points="2277.55,-1021.82 2283.51,-1013.05 2273.39,-1016.2 2277.55,-1021.82"/>
<text text-anchor="start" x="1546.5" y="-1239.8" font-family="arial" font-size="14.00" fill="#377eb8">true</text>
</g>
<!-- ID_1_ct1_st023&#45;&gt;ID_1_ct1_st012456 -->
<g id="edge33" class="edge">
<title>ID_1_ct1_st023&#45;&gt;ID_1_ct1_st012456</title>
<path fill="none" stroke="black" d="M924.14,-1434.75C954.08,-1320.9 1076.57,-855.07 1111.29,-723.03"/>
<polygon fill="black" stroke="black" points="1114.75,-723.62 1113.91,-713.05 1107.98,-721.84 1114.75,-723.62"/>
<text text-anchor="start" x="998" y="-1146.8" font-family="arial" font-size="14.00" fill="#377eb8">true</text>
</g>
<!-- ID_1_ct1_st0245&#45;&gt;ID_1_ct1_st0 -->
<g id="edge71" class="edge">
<title>ID_1_ct1_st0245&#45;&gt;ID_1_ct1_st0</title>
<path fill="none" stroke="black" d="M3442.3,-842.74C3430.98,-773.36 3391.12,-576.92 3288,-455 3285.31,-451.82 3075.32,-325.2 3044,-315 2965.25,-289.35 1642.32,-178 1559.5,-178 370.5,-178 370.5,-178 370.5,-178 213.66,-178 198.8,-778.99 197.57,-933.26"/>
<polygon fill="black" stroke="black" points="194.07,-933.56 197.5,-943.58 201.07,-933.6 194.07,-933.56"/>
<text text-anchor="start" x="1551" y="-181.8" font-family="arial" font-size="14.00" fill="#377eb8">Q&#39;</text>
</g>
<!-- ID_1_ct1_st0245&#45;&gt;ID_1_ct1_st01 -->
<g id="edge76" class="edge">
<title>ID_1_ct1_st0245&#45;&gt;ID_1_ct1_st01</title>
<path fill="none" stroke="black" d="M3434.23,-842.9C3393.55,-759.19 3250.06,-487.85 3044,-363 2968.68,-317.36 2938.74,-329.26 2852,-314 2705.09,-288.15 2666.91,-289.76 2518,-281 1702.41,-233 1225.31,-254.04 1221,-258 1185.87,-290.3 1231.71,-433.88 1203,-472 1156.36,-533.91 1102.21,-487.76 1040,-534 930.63,-615.29 934.17,-667.54 853,-777 825.67,-813.85 827.49,-830.74 793,-861 662.35,-975.63 551.15,-906.38 449,-1047 381.17,-1140.37 372.04,-1283.59 371.72,-1349.53"/>
<polygon fill="black" stroke="black" points="368.22,-1349.81 371.75,-1359.8 375.22,-1349.79 368.22,-1349.81"/>
<text text-anchor="start" x="1690.5" y="-256.8" font-family="arial" font-size="14.00" fill="#377eb8">true</text>
</g>
<!-- ID_1_ct1_st0245&#45;&gt;ID_1_ct1_st0245 -->
<g id="edge72" class="edge">
<title>ID_1_ct1_st0245&#45;&gt;ID_1_ct1_st0245</title>
<path fill="none" stroke="black" d="M3424.21,-893.18C3423.2,-902.91 3430.8,-911 3447,-911 3457.13,-911 3463.89,-907.84 3467.29,-903.09"/>
<polygon fill="black" stroke="black" points="3470.74,-903.73 3469.79,-893.18 3463.95,-902.02 3470.74,-903.73"/>
<text text-anchor="start" x="3435" y="-914.8" font-family="arial" font-size="14.00" fill="#377eb8">true</text>
</g>
<!-- ID_1_ct1_st0245&#45;&gt;ID_1_ct1_st02456 -->
<g id="edge73" class="edge">
<title>ID_1_ct1_st0245&#45;&gt;ID_1_ct1_st02456</title>
<path fill="none" stroke="black" d="M3480.92,-893.07C3566.72,-958.42 3797.06,-1133.85 3891.37,-1205.68"/>
<polygon fill="black" stroke="black" points="3889.46,-1208.62 3899.53,-1211.89 3893.7,-1203.05 3889.46,-1208.62"/>
<text text-anchor="start" x="3679" y="-1115.8" font-family="arial" font-size="14.00" fill="#377eb8">true</text>
</g>
<!-- ID_1_ct1_st0245&#45;&gt;ID_1_ct1_st01245 -->
<g id="edge77" class="edge">
<title>ID_1_ct1_st0245&#45;&gt;ID_1_ct1_st01245</title>
<path fill="none" stroke="black" d="M3361.75,-870.21C3305.93,-871.79 3231.08,-874.15 3165,-877 2834.94,-891.24 2748.24,-884.17 2426,-957 2421.57,-958 2417.06,-959.1 2412.51,-960.27"/>
<polygon fill="black" stroke="black" points="2411.3,-956.97 2402.54,-962.92 2413.11,-963.73 2411.3,-956.97"/>
<text text-anchor="start" x="2945" y="-893.8" font-family="arial" font-size="14.00" fill="#377eb8">true</text>
</g>
<!-- ID_1_ct1_st0245&#45;&gt;ID_1_ct1_st012456 -->
<g id="edge78" class="edge">
<title>ID_1_ct1_st0245&#45;&gt;ID_1_ct1_st012456</title>
<path fill="none" stroke="black" d="M3424.17,-842.93C3395.36,-810.95 3341.98,-755.32 3288,-718 3112.03,-596.33 3056.68,-576.27 2852,-514 2327.45,-354.4 2164.59,-499.66 1619,-554 1440.2,-571.81 1383.99,-549.38 1221,-625 1201.87,-633.88 1182.04,-645.92 1165.24,-657.11"/>
<polygon fill="black" stroke="black" points="1163.07,-654.35 1156.74,-662.85 1166.99,-660.15 1163.07,-654.35"/>
<text text-anchor="start" x="2312.5" y="-457.8" font-family="arial" font-size="14.00" fill="#377eb8">true</text>
</g>
<!-- ID_1_ct1_st0235 -->
<g id="node15" class="node">
<title>ID_1_ct1_st0235</title>
<polygon fill="none" stroke="black" points="3044,-1016 2870,-1016 2870,-966 3044,-966 3044,-1016"/>
<text text-anchor="start" x="2904" y="-1001.8" font-family="arial" font-weight="bold" font-size="14.00">ID_1_ct1_st0235</text>
<text text-anchor="start" x="2878" y="-987.8" font-family="arial" font-size="14.00" fill="#984ea3">(!P &amp;&amp; (!Q &amp;&amp; (!R &amp;&amp; !S)))</text>
<text text-anchor="start" x="2934" y="-973.8" font-family="arial" font-size="14.00" fill="#ff7f00">c0 &lt;= 5</text>
</g>
<!-- ID_1_ct1_st0245&#45;&gt;ID_1_ct1_st0235 -->
<g id="edge74" class="edge">
<title>ID_1_ct1_st0245&#45;&gt;ID_1_ct1_st0235</title>
<path fill="none" stroke="black" d="M3371.91,-893.01C3362.56,-895.86 3353.09,-898.6 3344,-901 3265.46,-921.76 3244.15,-919.7 3165,-938 3128.58,-946.42 3088.75,-956.43 3053.85,-965.46"/>
<polygon fill="black" stroke="black" points="3052.94,-962.08 3044.14,-967.98 3054.7,-968.86 3052.94,-962.08"/>
<text text-anchor="start" x="3214.5" y="-956.8" font-family="arial" font-size="14.00" fill="#377eb8">true</text>
<text text-anchor="start" x="3207.5" y="-941.8" font-family="arial" font-size="14.00">c0 :=0</text>
</g>
<!-- ID_1_ct1_st02356 -->
<g id="node17" class="node">
<title>ID_1_ct1_st02356</title>
<polygon fill="none" stroke="black" points="3776,-639 3606,-639 3606,-589 3776,-589 3776,-639"/>
<text text-anchor="start" x="3634.5" y="-624.8" font-family="arial" font-weight="bold" font-size="14.00">ID_1_ct1_st02356</text>
<text text-anchor="start" x="3614" y="-610.8" font-family="arial" font-size="14.00" fill="#984ea3">(!P &amp;&amp; (!Q &amp;&amp; (!R &amp;&amp; S)))</text>
<text text-anchor="start" x="3668" y="-596.8" font-family="arial" font-size="14.00" fill="#ff7f00">c0 &lt;= 5</text>
</g>
<!-- ID_1_ct1_st0245&#45;&gt;ID_1_ct1_st02356 -->
<g id="edge75" class="edge">
<title>ID_1_ct1_st0245&#45;&gt;ID_1_ct1_st02356</title>
<path fill="none" stroke="black" d="M3472.09,-842.72C3516.21,-796.41 3609.94,-698.02 3658.85,-646.7"/>
<polygon fill="black" stroke="black" points="3661.64,-648.84 3666.01,-639.18 3656.58,-644.01 3661.64,-648.84"/>
<text text-anchor="start" x="3557" y="-775.8" font-family="arial" font-size="14.00" fill="#377eb8">true</text>
<text text-anchor="start" x="3550" y="-760.8" font-family="arial" font-size="14.00">c0 :=0</text>
</g>
<!-- ID_1_ct1_st01235 -->
<g id="node19" class="node">
<title>ID_1_ct1_st01235</title>
<polygon fill="none" stroke="black" points="2706,-1038 2536,-1038 2536,-988 2706,-988 2706,-1038"/>
<text text-anchor="start" x="2564.5" y="-1023.8" font-family="arial" font-weight="bold" font-size="14.00">ID_1_ct1_st01235</text>
<text text-anchor="start" x="2544" y="-1009.8" font-family="arial" font-size="14.00" fill="#984ea3">(P &amp;&amp; (!Q &amp;&amp; (!R &amp;&amp; !S)))</text>
<text text-anchor="start" x="2598" y="-995.8" font-family="arial" font-size="14.00" fill="#ff7f00">c0 &lt;= 5</text>
</g>
<!-- ID_1_ct1_st0245&#45;&gt;ID_1_ct1_st01235 -->
<g id="edge79" class="edge">
<title>ID_1_ct1_st0245&#45;&gt;ID_1_ct1_st01235</title>
<path fill="none" stroke="black" d="M3361.77,-874.19C3283.74,-880.53 3164.62,-891.77 3062,-908 2910.29,-931.99 2872.38,-940.31 2724,-980 2718.24,-981.54 2712.33,-983.21 2706.38,-984.96"/>
<polygon fill="black" stroke="black" points="2704.96,-981.73 2696.38,-987.96 2706.97,-988.44 2704.96,-981.73"/>
<text text-anchor="start" x="3092.5" y="-926.8" font-family="arial" font-size="14.00" fill="#377eb8">true</text>
<text text-anchor="start" x="3085.5" y="-911.8" font-family="arial" font-size="14.00">c0 :=0</text>
</g>
<!-- ID_1_ct1_st012356 -->
<g id="node20" class="node">
<title>ID_1_ct1_st012356</title>
<polygon fill="none" stroke="black" points="1498,-796 1331,-796 1331,-746 1498,-746 1498,-796"/>
<text text-anchor="start" x="1354" y="-781.8" font-family="arial" font-weight="bold" font-size="14.00">ID_1_ct1_st012356</text>
<text text-anchor="start" x="1339" y="-767.8" font-family="arial" font-size="14.00" fill="#984ea3">(P &amp;&amp; (!Q &amp;&amp; (!R &amp;&amp; S)))</text>
<text text-anchor="start" x="1391.5" y="-753.8" font-family="arial" font-size="14.00" fill="#ff7f00">c0 &lt;= 5</text>
</g>
<!-- ID_1_ct1_st0245&#45;&gt;ID_1_ct1_st012356 -->
<g id="edge80" class="edge">
<title>ID_1_ct1_st0245&#45;&gt;ID_1_ct1_st012356</title>
<path fill="none" stroke="black" d="M3393.89,-842.77C3259.75,-778.06 2909.09,-610.37 2852,-598 2582.77,-539.68 1891.98,-689 1619,-726 1573.09,-732.22 1561.24,-732 1516,-742 1513.35,-742.59 1510.66,-743.2 1507.96,-743.84"/>
<polygon fill="black" stroke="black" points="1506.98,-740.48 1498.1,-746.27 1508.65,-747.28 1506.98,-740.48"/>
<text text-anchor="start" x="2460" y="-620.8" font-family="arial" font-size="14.00" fill="#377eb8">true</text>
<text text-anchor="start" x="2453" y="-605.8" font-family="arial" font-size="14.00">c0 :=0</text>
</g>
<!-- ID_1_ct1_st02456&#45;&gt;ID_1_ct1_st0 -->
<g id="edge127" class="edge">
<title>ID_1_ct1_st02456&#45;&gt;ID_1_ct1_st0</title>
<path fill="none" stroke="black" d="M3931.66,-1211.91C3926.17,-1052.47 3893.56,-184.06 3832,-85 3793.58,-23.17 3764.79,0 3692,0 370.5,0 370.5,0 370.5,0 305.9,0 291.29,-44.01 270,-105 215.24,-261.86 201.01,-790.64 198.13,-933.29"/>
<polygon fill="black" stroke="black" points="194.62,-933.57 197.93,-943.64 201.62,-933.71 194.62,-933.57"/>
<text text-anchor="start" x="1839" y="-3.8" font-family="arial" font-size="14.00" fill="#377eb8">Q&#39;</text>
</g>
<!-- ID_1_ct1_st02456&#45;&gt;ID_1_ct1_st01 -->
<g id="edge130" class="edge">
<title>ID_1_ct1_st02456&#45;&gt;ID_1_ct1_st01</title>
<path fill="none" stroke="black" d="M3931,-1262.19C3925.14,-1353.21 3900.58,-1673.11 3832,-1927 3814.63,-1991.3 3825.49,-2021.43 3776,-2066 3747.15,-2091.98 3730.83,-2090 3692,-2090 3103.5,-2090 3103.5,-2090 3103.5,-2090 2286.29,-2090 2085.21,-1981 1268,-1981 549.5,-1981 549.5,-1981 549.5,-1981 494.52,-1981 515.85,-1921.05 491,-1872 471.41,-1833.34 462.22,-1825.27 449,-1784 434.96,-1740.16 439.45,-1727.25 431,-1682 413.29,-1587.12 390.88,-1475.51 379.63,-1420.01"/>
<polygon fill="black" stroke="black" points="383.02,-1419.1 377.6,-1410 376.16,-1420.5 383.02,-1419.1"/>
<text text-anchor="start" x="1980" y="-2026.8" font-family="arial" font-size="14.00" fill="#377eb8">true</text>
</g>
<!-- ID_1_ct1_st02456&#45;&gt;ID_1_ct1_st02456 -->
<g id="edge128" class="edge">
<title>ID_1_ct1_st02456&#45;&gt;ID_1_ct1_st02456</title>
<path fill="none" stroke="black" d="M3911.09,-1262.18C3910.09,-1271.91 3917.56,-1280 3933.5,-1280 3943.46,-1280 3950.11,-1276.84 3953.46,-1272.09"/>
<polygon fill="black" stroke="black" points="3956.91,-1272.72 3955.91,-1262.18 3950.11,-1271.04 3956.91,-1272.72"/>
<text text-anchor="start" x="3921.5" y="-1283.8" font-family="arial" font-size="14.00" fill="#377eb8">true</text>
</g>
<!-- ID_1_ct1_st02456&#45;&gt;ID_1_ct1_st012456 -->
<g id="edge131" class="edge">
<title>ID_1_ct1_st02456&#45;&gt;ID_1_ct1_st012456</title>
<path fill="none" stroke="black" d="M3931.83,-1211.83C3927.46,-1054.78 3900.9,-212.97 3832,-124 3791.55,-71.76 3758.07,-74 3692,-74 3324,-74 3324,-74 3324,-74 2890.52,-74 1830.39,-159.76 1619,-202 1432.85,-239.2 1320.14,-195.11 1221,-357 1179.7,-424.43 1225.72,-458.26 1203,-534 1189.78,-578.05 1163.76,-624.25 1144.87,-654.42"/>
<polygon fill="black" stroke="black" points="1141.91,-652.55 1139.5,-662.86 1147.82,-656.3 1141.91,-652.55"/>
<text text-anchor="start" x="2609" y="-115.8" font-family="arial" font-size="14.00" fill="#377eb8">true</text>
</g>
<!-- ID_1_ct1_st02456&#45;&gt;ID_1_ct1_st02356 -->
<g id="edge129" class="edge">
<title>ID_1_ct1_st02456&#45;&gt;ID_1_ct1_st02356</title>
<path fill="none" stroke="black" d="M3928.49,-1211.76C3917.94,-1148.85 3886.46,-980.72 3832,-850 3800.14,-773.52 3746.96,-692.04 3716.13,-647.65"/>
<polygon fill="black" stroke="black" points="3718.87,-645.47 3710.27,-639.28 3713.14,-649.48 3718.87,-645.47"/>
<text text-anchor="start" x="3801" y="-868.8" font-family="arial" font-size="14.00" fill="#377eb8">true</text>
<text text-anchor="start" x="3794" y="-853.8" font-family="arial" font-size="14.00">c0 :=0</text>
</g>
<!-- ID_1_ct1_st02456&#45;&gt;ID_1_ct1_st012356 -->
<g id="edge132" class="edge">
<title>ID_1_ct1_st02456&#45;&gt;ID_1_ct1_st012356</title>
<path fill="none" stroke="black" d="M3927.68,-1211.65C3914.18,-1141.42 3874.22,-938.52 3832,-772 3767.87,-519.07 3808.98,-376.76 3588,-238 3531.69,-202.64 3403.29,-216.67 3306,-225 2951.9,-255.33 2868.29,-300.96 2518,-361 2246.5,-407.54 2176.5,-408 1907,-465 1726.85,-503.1 1644.93,-470.53 1516,-602 1495.18,-623.23 1456.15,-693.83 1433.34,-736.78"/>
<polygon fill="black" stroke="black" points="1430.18,-735.28 1428.6,-745.75 1436.37,-738.55 1430.18,-735.28"/>
<text text-anchor="start" x="2776" y="-340.8" font-family="arial" font-size="14.00" fill="#377eb8">true</text>
<text text-anchor="start" x="2769" y="-325.8" font-family="arial" font-size="14.00">c0 :=0</text>
</g>
<!-- ID_1_ct1_st01245&#45;&gt;ID_1_ct1_st0 -->
<g id="edge81" class="edge">
<title>ID_1_ct1_st01245&#45;&gt;ID_1_ct1_st0</title>
<path fill="none" stroke="black" d="M2240.98,-993.32C2234.89,-993.59 2228.85,-993.83 2223,-994 2166.14,-995.7 2151.87,-995.38 2095,-994 1434.42,-978 1270.22,-949.07 610,-922 477.64,-916.57 443.39,-899.08 312,-916 292.86,-918.46 287.84,-919.65 270,-927 261.79,-930.38 253.38,-934.54 245.32,-938.91"/>
<polygon fill="black" stroke="black" points="243.42,-935.96 236.4,-943.9 246.84,-942.06 243.42,-935.96"/>
<text text-anchor="start" x="1002.5" y="-945.8" font-family="arial" font-size="14.00" fill="#377eb8">Q&#39;</text>
</g>
<!-- ID_1_ct1_st01245&#45;&gt;ID_1_ct1_st01 -->
<g id="edge86" class="edge">
<title>ID_1_ct1_st01245&#45;&gt;ID_1_ct1_st01</title>
<path fill="none" stroke="black" d="M2261.33,-1013.09C2248.83,-1017.15 2235.64,-1020.75 2223,-1023 1958.66,-1069.97 1886.82,-1014.1 1619,-1033 1493,-1041.89 607.22,-1124.53 491,-1174 420.66,-1203.94 390.44,-1297.92 378.85,-1349.78"/>
<polygon fill="black" stroke="black" points="375.36,-1349.35 376.71,-1359.86 382.21,-1350.8 375.36,-1349.35"/>
<text text-anchor="start" x="1109.5" y="-1092.8" font-family="arial" font-size="14.00" fill="#377eb8">true</text>
</g>
<!-- ID_1_ct1_st01245&#45;&gt;ID_1_ct1_st0245 -->
<g id="edge82" class="edge">
<title>ID_1_ct1_st01245&#45;&gt;ID_1_ct1_st0245</title>
<path fill="none" stroke="black" d="M2400.77,-962.96C2403.27,-961.4 2405.69,-959.75 2408,-958 2418.92,-949.74 2414.82,-940.9 2426,-933 2467.59,-903.63 2486.08,-911.03 2536,-901 2828.82,-842.19 3185.04,-852.21 3351.61,-861.5"/>
<polygon fill="black" stroke="black" points="3351.64,-865 3361.83,-862.08 3352.04,-858.02 3351.64,-865"/>
<text text-anchor="start" x="2945" y="-864.8" font-family="arial" font-size="14.00" fill="#377eb8">true</text>
</g>
<!-- ID_1_ct1_st01245&#45;&gt;ID_1_ct1_st02456 -->
<g id="edge83" class="edge">
<title>ID_1_ct1_st01245&#45;&gt;ID_1_ct1_st02456</title>
<path fill="none" stroke="black" d="M2337.04,-1013.2C2355.68,-1055.24 2391.97,-1142.81 2408,-1221 2414.26,-1251.54 2405.79,-1477.26 2426,-1501 2524.44,-1616.62 2951.65,-1590 3103.5,-1590 3103.5,-1590 3103.5,-1590 3692,-1590 3844.83,-1590 3907.46,-1361.22 3926.07,-1272.02"/>
<polygon fill="black" stroke="black" points="3929.52,-1272.6 3928.07,-1262.1 3922.66,-1271.21 3929.52,-1272.6"/>
<text text-anchor="start" x="3214.5" y="-1593.8" font-family="arial" font-size="14.00" fill="#377eb8">true</text>
</g>
<!-- ID_1_ct1_st01245&#45;&gt;ID_1_ct1_st01245 -->
<g id="edge87" class="edge">
<title>ID_1_ct1_st01245&#45;&gt;ID_1_ct1_st01245</title>
<path fill="none" stroke="black" d="M2297.23,-1013.18C2296.02,-1022.91 2305.11,-1031 2324.5,-1031 2336.62,-1031 2344.71,-1027.84 2348.79,-1023.09"/>
<polygon fill="black" stroke="black" points="2352.24,-1023.76 2351.77,-1013.18 2345.54,-1021.74 2352.24,-1023.76"/>
<text text-anchor="start" x="2312.5" y="-1034.8" font-family="arial" font-size="14.00" fill="#377eb8">true</text>
</g>
<!-- ID_1_ct1_st01245&#45;&gt;ID_1_ct1_st012456 -->
<g id="edge88" class="edge">
<title>ID_1_ct1_st01245&#45;&gt;ID_1_ct1_st012456</title>
<path fill="none" stroke="black" d="M2240.83,-985.19C2067.66,-977.23 1655.95,-947.37 1331,-838 1278.22,-820.24 1266.33,-810.35 1221,-778 1197.08,-760.93 1172.67,-738.67 1154.14,-720.56"/>
<polygon fill="black" stroke="black" points="1156.15,-717.63 1146.58,-713.08 1151.23,-722.6 1156.15,-717.63"/>
<text text-anchor="start" x="1690.5" y="-943.8" font-family="arial" font-size="14.00" fill="#377eb8">true</text>
</g>
<!-- ID_1_ct1_st01245&#45;&gt;ID_1_ct1_st0235 -->
<g id="edge84" class="edge">
<title>ID_1_ct1_st01245&#45;&gt;ID_1_ct1_st0235</title>
<path fill="none" stroke="black" d="M2367.18,-1013.1C2408.37,-1036.21 2474.03,-1068.57 2536,-1080 2610.3,-1093.7 2631.51,-1092.64 2706,-1080 2773.77,-1068.5 2787.27,-1052.13 2852,-1029 2860.51,-1025.96 2869.4,-1022.76 2878.24,-1019.55"/>
<polygon fill="black" stroke="black" points="2879.6,-1022.78 2887.8,-1016.08 2877.21,-1016.2 2879.6,-1022.78"/>
<text text-anchor="start" x="2609" y="-1107.8" font-family="arial" font-size="14.00" fill="#377eb8">true</text>
<text text-anchor="start" x="2602" y="-1092.8" font-family="arial" font-size="14.00">c0 :=0</text>
</g>
<!-- ID_1_ct1_st01245&#45;&gt;ID_1_ct1_st02356 -->
<g id="edge85" class="edge">
<title>ID_1_ct1_st01245&#45;&gt;ID_1_ct1_st02356</title>
<path fill="none" stroke="black" d="M2402.63,-962.98C2404.51,-961.42 2406.31,-959.76 2408,-958 2426.38,-938.82 2406.95,-919.51 2426,-901 2579.99,-751.35 3150.3,-696.96 3362,-661 3440.62,-647.64 3530.28,-634.97 3595.97,-626.16"/>
<polygon fill="black" stroke="black" points="3596.44,-629.62 3605.89,-624.83 3595.51,-622.69 3596.44,-629.62"/>
<text text-anchor="start" x="3092.5" y="-724.8" font-family="arial" font-size="14.00" fill="#377eb8">true</text>
<text text-anchor="start" x="3085.5" y="-709.8" font-family="arial" font-size="14.00">c0 :=0</text>
</g>
<!-- ID_1_ct1_st01245&#45;&gt;ID_1_ct1_st01235 -->
<g id="edge89" class="edge">
<title>ID_1_ct1_st01245&#45;&gt;ID_1_ct1_st01235</title>
<path fill="none" stroke="black" d="M2408.32,-995.03C2444.86,-998.13 2488,-1001.79 2525.77,-1005"/>
<polygon fill="black" stroke="black" points="2525.5,-1008.49 2535.76,-1005.85 2526.09,-1001.52 2525.5,-1008.49"/>
<text text-anchor="start" x="2460" y="-1022.8" font-family="arial" font-size="14.00" fill="#377eb8">true</text>
<text text-anchor="start" x="2453" y="-1007.8" font-family="arial" font-size="14.00">c0 :=0</text>
</g>
<!-- ID_1_ct1_st01245&#45;&gt;ID_1_ct1_st012356 -->
<g id="edge90" class="edge">
<title>ID_1_ct1_st01245&#45;&gt;ID_1_ct1_st012356</title>
<path fill="none" stroke="black" d="M2265.35,-963C2251.62,-957.61 2236.92,-952.26 2223,-948 2089.1,-906.98 1690.06,-825.64 1507.96,-789.29"/>
<polygon fill="black" stroke="black" points="1508.62,-785.85 1498.13,-787.33 1507.25,-792.72 1508.62,-785.85"/>
<text text-anchor="start" x="1834.5" y="-886.8" font-family="arial" font-size="14.00" fill="#377eb8">true</text>
<text text-anchor="start" x="1827.5" y="-871.8" font-family="arial" font-size="14.00">c0 :=0</text>
</g>
<!-- ID_1_ct1_st012456&#45;&gt;ID_1_ct1_st0 -->
<g id="edge133" class="edge">
<title>ID_1_ct1_st012456&#45;&gt;ID_1_ct1_st0</title>
<path fill="none" stroke="black" d="M1039.99,-685.68C1002.73,-684.8 957.86,-684 917.5,-684 370.5,-684 370.5,-684 370.5,-684 254.96,-684 214.42,-857.27 202.17,-933.61"/>
<polygon fill="black" stroke="black" points="198.67,-933.29 200.62,-943.71 205.59,-934.35 198.67,-933.29"/>
<text text-anchor="start" x="632.5" y="-687.8" font-family="arial" font-size="14.00" fill="#377eb8">Q&#39;</text>
</g>
<!-- ID_1_ct1_st012456&#45;&gt;ID_1_ct1_st01 -->
<g id="edge136" class="edge">
<title>ID_1_ct1_st012456&#45;&gt;ID_1_ct1_st01</title>
<path fill="none" stroke="black" d="M1106.75,-713.16C1071.07,-775.79 968.92,-939.19 835,-1016 759.27,-1059.43 512.73,-1029.34 449,-1089 411.04,-1124.54 386.37,-1279.08 376.89,-1349.64"/>
<polygon fill="black" stroke="black" points="373.38,-1349.44 375.55,-1359.81 380.32,-1350.35 373.38,-1349.44"/>
<text text-anchor="start" x="719.5" y="-1047.8" font-family="arial" font-size="14.00" fill="#377eb8">true</text>
</g>
<!-- ID_1_ct1_st012456&#45;&gt;ID_1_ct1_st02456 -->
<g id="edge134" class="edge">
<title>ID_1_ct1_st012456&#45;&gt;ID_1_ct1_st02456</title>
<path fill="none" stroke="black" d="M1138.73,-662.94C1157.16,-633.33 1186.74,-582.01 1203,-534 1218.05,-489.57 1188.44,-463.77 1221,-430 1346.47,-299.85 1440.86,-376.82 1619,-346 2091.82,-264.21 3432.33,87.86 3776,-247 3915.8,-383.22 3930.76,-1040.99 3932.33,-1201.58"/>
<polygon fill="black" stroke="black" points="3928.83,-1201.88 3932.41,-1211.85 3935.83,-1201.82 3928.83,-1201.88"/>
<text text-anchor="start" x="2609" y="-174.8" font-family="arial" font-size="14.00" fill="#377eb8">true</text>
</g>
<!-- ID_1_ct1_st012456&#45;&gt;ID_1_ct1_st012456 -->
<g id="edge137" class="edge">
<title>ID_1_ct1_st012456&#45;&gt;ID_1_ct1_st012456</title>
<path fill="none" stroke="black" d="M1100.96,-713.18C1100.04,-722.91 1106.89,-731 1121.5,-731 1130.63,-731 1136.73,-727.84 1139.8,-723.09"/>
<polygon fill="black" stroke="black" points="1143.25,-723.7 1142.04,-713.18 1136.42,-722.15 1143.25,-723.7"/>
<text text-anchor="start" x="1109.5" y="-734.8" font-family="arial" font-size="14.00" fill="#377eb8">true</text>
</g>
<!-- ID_1_ct1_st012456&#45;&gt;ID_1_ct1_st02356 -->
<g id="edge135" class="edge">
<title>ID_1_ct1_st012456&#45;&gt;ID_1_ct1_st02356</title>
<path fill="none" stroke="black" d="M1152.18,-662.65C1169.42,-646.4 1190.2,-623.92 1203,-600 1218.77,-570.54 1202.84,-555.05 1221,-527 1323.72,-368.31 1432.74,-409.26 1619,-377 2289.31,-260.89 2466.72,-284.59 3147,-287 3350.84,-287.72 3447.48,-265.34 3588,-413 3634.55,-461.92 3664.69,-536.21 3679.39,-579.45"/>
<polygon fill="black" stroke="black" points="3676.08,-580.57 3682.55,-588.96 3682.72,-578.37 3676.08,-580.57"/>
<text text-anchor="start" x="2460" y="-304.8" font-family="arial" font-size="14.00" fill="#377eb8">true</text>
<text text-anchor="start" x="2453" y="-289.8" font-family="arial" font-size="14.00">c0 :=0</text>
</g>
<!-- ID_1_ct1_st012456&#45;&gt;ID_1_ct1_st012356 -->
<g id="edge138" class="edge">
<title>ID_1_ct1_st012456&#45;&gt;ID_1_ct1_st012356</title>
<path fill="none" stroke="black" d="M1203.16,-685.28C1237.81,-686.4 1278.24,-690.83 1313,-703 1336.11,-711.09 1358.94,-725.84 1376.99,-739.55"/>
<polygon fill="black" stroke="black" points="1374.9,-742.35 1384.93,-745.74 1379.2,-736.83 1374.9,-742.35"/>
<text text-anchor="start" x="1255" y="-721.8" font-family="arial" font-size="14.00" fill="#377eb8">true</text>
<text text-anchor="start" x="1248" y="-706.8" font-family="arial" font-size="14.00">c0 :=0</text>
</g>
<!-- ID_1_ct1_st0235&#45;&gt;ID_1_ct1_st0 -->
<g id="edge43" class="edge">
<title>ID_1_ct1_st0235&#45;&gt;ID_1_ct1_st0</title>
<path fill="none" stroke="black" d="M2925.5,-1016.15C2905.47,-1031.86 2878.2,-1051.74 2852,-1066 2790.82,-1099.3 2772.75,-1103.08 2706,-1123 2655.4,-1138.1 2283.78,-1190.05 2241,-1221 2228.09,-1230.34 2236.14,-1242.99 2223,-1252 2193.68,-1272.1 1941.29,-1292.61 1907,-1302 1851.2,-1317.28 1842.83,-1339.14 1786,-1350 1713.1,-1363.93 1693.21,-1351.4 1619,-1350 1442.02,-1346.67 1394.63,-1369.45 1221,-1335 853.83,-1262.15 785.07,-1164.47 431,-1043 371.67,-1022.65 303.18,-1001.18 255.8,-986.64"/>
<polygon fill="black" stroke="black" points="256.6,-983.23 246.02,-983.65 254.55,-989.92 256.6,-983.23"/>
<text text-anchor="start" x="1259.5" y="-1352.8" font-family="arial" font-size="14.00" fill="#377eb8">Q&#39;</text>
</g>
<!-- ID_1_ct1_st0235&#45;&gt;ID_1_ct1_st01 -->
<g id="edge50" class="edge">
<title>ID_1_ct1_st0235&#45;&gt;ID_1_ct1_st01</title>
<path fill="none" stroke="black" d="M2918.84,-965.81C2900.81,-951.43 2880.78,-931.74 2870,-909 2824.77,-813.54 2897.27,-767.45 2852,-672 2813.61,-591.05 2788.8,-567.23 2706,-533 2704.54,-532.4 1397.37,-469.13 1221,-527 1174.31,-542.32 1067.57,-613.33 1040,-654 1020.52,-682.73 1039.37,-699.95 1022,-730 970.38,-819.28 902.25,-798.39 853,-889 831.64,-928.29 866.91,-956.67 835,-988 772.42,-1049.43 500.48,-999.01 449,-1070 386.39,-1156.35 374.55,-1287.51 372.63,-1349.79"/>
<polygon fill="black" stroke="black" points="369.13,-1349.8 372.39,-1359.88 376.13,-1349.97 369.13,-1349.8"/>
<text text-anchor="start" x="1402.5" y="-514.8" font-family="arial" font-size="14.00" fill="#377eb8">true</text>
</g>
<!-- ID_1_ct1_st0235&#45;&gt;ID_1_ct1_st0123 -->
<g id="edge53" class="edge">
<title>ID_1_ct1_st0235&#45;&gt;ID_1_ct1_st0123</title>
<path fill="none" stroke="black" d="M2976.4,-1016.06C3022.64,-1079.1 3140.49,-1240.15 3147,-1253 3182.45,-1323.01 3206.41,-1412.38 3217.82,-1460.87"/>
<polygon fill="black" stroke="black" points="3214.46,-1461.9 3220.12,-1470.86 3221.28,-1460.33 3214.46,-1461.9"/>
<text text-anchor="start" x="3062" y="-1256.8" font-family="arial" font-size="14.00" fill="#377eb8">(Q&#39; || c0 &gt;= 5)</text>
</g>
<!-- ID_1_ct1_st0235&#45;&gt;ID_1_ct1_st023 -->
<g id="edge46" class="edge">
<title>ID_1_ct1_st0235&#45;&gt;ID_1_ct1_st023</title>
<path fill="none" stroke="black" d="M2933.09,-1016.35C2913.67,-1039.09 2886.44,-1074.15 2870,-1109 2856.3,-1138.05 2876.04,-1157.7 2852,-1179 2795.97,-1228.65 2592.52,-1215.81 2518,-1223 2487.31,-1225.96 2266.63,-1222.85 2241,-1240 2225.8,-1250.17 2237.39,-1265.72 2223,-1277 2109.95,-1365.64 2009.77,-1244.62 1907,-1345 1882.48,-1368.95 1914.21,-1396.77 1889,-1420 1854.94,-1451.4 1831.94,-1430 1786,-1436 1685.62,-1449.11 1660.73,-1460 1559.5,-1460 1120.5,-1460 1120.5,-1460 1120.5,-1460 1077.31,-1460 1028.95,-1460 990.27,-1460"/>
<polygon fill="black" stroke="black" points="990.14,-1456.5 980.14,-1460 990.14,-1463.5 990.14,-1456.5"/>
<text text-anchor="start" x="1804" y="-1440.8" font-family="arial" font-size="14.00" fill="#377eb8">(Q&#39; || c0 &gt;= 5)</text>
</g>
<!-- ID_1_ct1_st0235&#45;&gt;ID_1_ct1_st0245 -->
<g id="edge44" class="edge">
<title>ID_1_ct1_st0235&#45;&gt;ID_1_ct1_st0245</title>
<path fill="none" stroke="black" d="M3044.08,-999.13C3126.19,-1002.92 3250.83,-998.02 3344,-947 3367.89,-933.92 3392.11,-915.43 3410.94,-899.63"/>
<polygon fill="black" stroke="black" points="3413.33,-902.2 3418.67,-893.05 3408.79,-896.87 3413.33,-902.2"/>
<text text-anchor="start" x="3214.5" y="-999.8" font-family="arial" font-size="14.00" fill="#377eb8">true</text>
</g>
<!-- ID_1_ct1_st0235&#45;&gt;ID_1_ct1_st02456 -->
<g id="edge45" class="edge">
<title>ID_1_ct1_st0235&#45;&gt;ID_1_ct1_st02456</title>
<path fill="none" stroke="black" d="M2978.27,-1016.33C2997.42,-1038.41 3028.19,-1069.42 3062,-1086 3323.01,-1214.01 3674.69,-1235.24 3839.71,-1237.64"/>
<polygon fill="black" stroke="black" points="3839.78,-1241.14 3849.83,-1237.76 3839.87,-1234.14 3839.78,-1241.14"/>
<text text-anchor="start" x="3435" y="-1217.8" font-family="arial" font-size="14.00" fill="#377eb8">true</text>
</g>
<!-- ID_1_ct1_st0235&#45;&gt;ID_1_ct1_st01245 -->
<g id="edge51" class="edge">
<title>ID_1_ct1_st0235&#45;&gt;ID_1_ct1_st01245</title>
<path fill="none" stroke="black" d="M2869.99,-979.4C2821.86,-973.49 2760.71,-966.95 2706,-964 2581.7,-957.31 2549.65,-956.65 2426,-971 2423.46,-971.29 2420.89,-971.61 2418.3,-971.94"/>
<polygon fill="black" stroke="black" points="2417.66,-968.5 2408.22,-973.31 2418.59,-975.43 2417.66,-968.5"/>
<text text-anchor="start" x="2609" y="-967.8" font-family="arial" font-size="14.00" fill="#377eb8">true</text>
</g>
<!-- ID_1_ct1_st0235&#45;&gt;ID_1_ct1_st012456 -->
<g id="edge52" class="edge">
<title>ID_1_ct1_st0235&#45;&gt;ID_1_ct1_st012456</title>
<path fill="none" stroke="black" d="M2923.26,-965.69C2905.63,-950.73 2884.57,-930.53 2870,-909 2857.93,-891.16 2864.67,-881.42 2852,-864 2738.44,-707.78 2696.71,-659.24 2518,-586 2250.98,-476.57 1499.64,-574.92 1221,-650 1211.14,-652.66 1200.91,-655.96 1190.94,-659.49"/>
<polygon fill="black" stroke="black" points="1189.67,-656.23 1181.47,-662.94 1192.07,-662.81 1189.67,-656.23"/>
<text text-anchor="start" x="1980" y="-550.8" font-family="arial" font-size="14.00" fill="#377eb8">true</text>
</g>
<!-- ID_1_ct1_st0235&#45;&gt;ID_1_ct1_st0235 -->
<g id="edge48" class="edge">
<title>ID_1_ct1_st0235&#45;&gt;ID_1_ct1_st0235</title>
<path fill="none" stroke="black" d="M2929.73,-1016.18C2928.52,-1025.91 2937.61,-1034 2957,-1034 2969.12,-1034 2977.21,-1030.84 2981.29,-1026.09"/>
<polygon fill="black" stroke="black" points="2984.74,-1026.76 2984.27,-1016.18 2978.04,-1024.74 2984.74,-1026.76"/>
<text text-anchor="start" x="2938" y="-1037.8" font-family="arial" font-size="14.00" fill="#377eb8">c0 &lt; 5</text>
</g>
<!-- ID_1_ct1_st0236 -->
<g id="node16" class="node">
<title>ID_1_ct1_st0236</title>
<polygon fill="none" stroke="black" points="2077,-1404 1907,-1404 1907,-1354 2077,-1354 2077,-1404"/>
<text text-anchor="start" x="1939" y="-1389.8" font-family="arial" font-weight="bold" font-size="14.00">ID_1_ct1_st0236</text>
<text text-anchor="start" x="1915" y="-1375.8" font-family="arial" font-size="14.00" fill="#984ea3">(!P &amp;&amp; (!Q &amp;&amp; (!R &amp;&amp; S)))</text>
<text text-anchor="start" x="1925" y="-1361.8" font-family="arial" font-size="14.00" fill="#ff7f00">(c0 &lt;= 5 &amp;&amp; c1 &lt;= 10)</text>
</g>
<!-- ID_1_ct1_st0235&#45;&gt;ID_1_ct1_st0236 -->
<g id="edge47" class="edge">
<title>ID_1_ct1_st0235&#45;&gt;ID_1_ct1_st0236</title>
<path fill="none" stroke="black" d="M2938.31,-1016.01C2918.92,-1044.52 2888.14,-1093.13 2870,-1139 2856.92,-1172.08 2878.1,-1192.82 2852,-1217 2799.9,-1265.28 2604.96,-1248 2536,-1265 2485.78,-1277.38 2471.9,-1279.16 2426,-1303 2417.24,-1307.55 2417.18,-1312.39 2408,-1316 2277.54,-1367.31 2232.98,-1330.24 2095,-1355 2092.36,-1355.47 2089.69,-1355.97 2087,-1356.49"/>
<polygon fill="black" stroke="black" points="2086.3,-1353.06 2077.18,-1358.45 2087.67,-1359.92 2086.3,-1353.06"/>
<text text-anchor="start" x="2429.5" y="-1321.8" font-family="arial" font-size="14.00" fill="#377eb8">(Q&#39; || c0 &gt;= 5)</text>
<text text-anchor="start" x="2453" y="-1306.8" font-family="arial" font-size="14.00">c1 :=0</text>
</g>
<!-- ID_1_ct1_st0235&#45;&gt;ID_1_ct1_st02356 -->
<g id="edge49" class="edge">
<title>ID_1_ct1_st0235&#45;&gt;ID_1_ct1_st02356</title>
<path fill="none" stroke="black" d="M3044.01,-1010.42C3167.75,-1032.88 3396.02,-1053.09 3532,-935 3622.14,-856.71 3666,-715.02 3682.25,-649.27"/>
<polygon fill="black" stroke="black" points="3685.69,-649.93 3684.63,-639.39 3678.88,-648.3 3685.69,-649.93"/>
<text text-anchor="start" x="3306" y="-1025.8" font-family="arial" font-size="14.00" fill="#377eb8">c0 &lt; 5</text>
</g>
<!-- ID_1_ct1_st01236 -->
<g id="node18" class="node">
<title>ID_1_ct1_st01236</title>
<polygon fill="none" stroke="black" points="1786,-1092 1619,-1092 1619,-1042 1786,-1042 1786,-1092"/>
<text text-anchor="start" x="1646" y="-1077.8" font-family="arial" font-weight="bold" font-size="14.00">ID_1_ct1_st01236</text>
<text text-anchor="start" x="1627" y="-1063.8" font-family="arial" font-size="14.00" fill="#984ea3">(P &amp;&amp; (!Q &amp;&amp; (!R &amp;&amp; S)))</text>
<text text-anchor="start" x="1635.5" y="-1049.8" font-family="arial" font-size="14.00" fill="#ff7f00">(c0 &lt;= 5 &amp;&amp; c1 &lt;= 10)</text>
</g>
<!-- ID_1_ct1_st0235&#45;&gt;ID_1_ct1_st01236 -->
<g id="edge54" class="edge">
<title>ID_1_ct1_st0235&#45;&gt;ID_1_ct1_st01236</title>
<path fill="none" stroke="black" d="M2874.9,-965.94C2867.2,-964.07 2859.48,-962.38 2852,-961 2838.74,-958.56 2407.09,-902.28 2241,-924 2075.03,-945.7 1887.39,-1003.57 1783.52,-1038.69"/>
<polygon fill="black" stroke="black" points="1782.38,-1035.38 1774.04,-1041.91 1784.63,-1042.01 1782.38,-1035.38"/>
<text text-anchor="start" x="2282" y="-942.8" font-family="arial" font-size="14.00" fill="#377eb8">(Q&#39; || c0 &gt;= 5)</text>
<text text-anchor="start" x="2305.5" y="-927.8" font-family="arial" font-size="14.00">c1 :=0</text>
</g>
<!-- ID_1_ct1_st0235&#45;&gt;ID_1_ct1_st01235 -->
<g id="edge55" class="edge">
<title>ID_1_ct1_st0235&#45;&gt;ID_1_ct1_st01235</title>
<path fill="none" stroke="black" d="M2869.79,-985.19C2825.99,-983.52 2772.01,-983.43 2724,-989 2721.34,-989.31 2718.65,-989.66 2715.93,-990.05"/>
<polygon fill="black" stroke="black" points="2715.38,-986.6 2706.06,-991.62 2716.48,-993.51 2715.38,-986.6"/>
<text text-anchor="start" x="2769" y="-992.8" font-family="arial" font-size="14.00" fill="#377eb8">c0 &lt; 5</text>
</g>
<!-- ID_1_ct1_st0235&#45;&gt;ID_1_ct1_st012356 -->
<g id="edge56" class="edge">
<title>ID_1_ct1_st0235&#45;&gt;ID_1_ct1_st012356</title>
<path fill="none" stroke="black" d="M2914.28,-965.98C2825.19,-914.2 2608.13,-796.83 2408,-757 2082.63,-692.25 1685.35,-732.8 1508.31,-756.9"/>
<polygon fill="black" stroke="black" points="1507.68,-753.45 1498.26,-758.28 1508.64,-760.39 1507.68,-753.45"/>
<text text-anchor="start" x="2140" y="-734.8" font-family="arial" font-size="14.00" fill="#377eb8">c0 &lt; 5</text>
</g>
<!-- ID_1_ct1_st0236&#45;&gt;ID_1_ct1_st0 -->
<g id="edge91" class="edge">
<title>ID_1_ct1_st0236&#45;&gt;ID_1_ct1_st0</title>
<path fill="none" stroke="black" d="M1974.27,-1404.22C1956.26,-1429.27 1925.26,-1466.77 1889,-1487 1886.32,-1488.5 1025.06,-1665.69 1022,-1666 914.89,-1676.94 897.82,-1611.57 793,-1587 662.11,-1556.32 620.41,-1533.59 491,-1570 481.97,-1572.54 482.03,-1578.46 473,-1581 462.73,-1583.89 458.91,-1584.93 449,-1581 219.65,-1490.01 198.11,-1120.87 197.12,-1004.39"/>
<polygon fill="black" stroke="black" points="200.62,-1004.22 197.09,-994.24 193.62,-1004.25 200.62,-1004.22"/>
<text text-anchor="start" x="909" y="-1669.8" font-family="arial" font-size="14.00" fill="#377eb8">Q&#39;</text>
</g>
<!-- ID_1_ct1_st0236&#45;&gt;ID_1_ct1_st01 -->
<g id="edge96" class="edge">
<title>ID_1_ct1_st0236&#45;&gt;ID_1_ct1_st01</title>
<path fill="none" stroke="black" d="M1981.74,-1404.02C1967.49,-1438.77 1936.73,-1500.87 1889,-1532 1850.07,-1557.39 1832.07,-1543.91 1786,-1550 1356.33,-1606.84 1197.35,-1765.43 811,-1569 799.11,-1562.96 803.65,-1553.02 793,-1545 792.06,-1544.29 551.55,-1452.96 434.74,-1408.62"/>
<polygon fill="black" stroke="black" points="435.78,-1405.27 425.19,-1404.99 433.29,-1411.82 435.78,-1405.27"/>
<text text-anchor="start" x="998" y="-1650.8" font-family="arial" font-size="14.00" fill="#377eb8">true</text>
</g>
<!-- ID_1_ct1_st0236&#45;&gt;ID_1_ct1_st0123 -->
<g id="edge99" class="edge">
<title>ID_1_ct1_st0236&#45;&gt;ID_1_ct1_st0123</title>
<path fill="none" stroke="black" d="M2045.94,-1404.1C2061.43,-1410.39 2078.6,-1416.37 2095,-1420 2360.51,-1478.84 2434.68,-1434.45 2706,-1453 2866.61,-1463.98 3054.86,-1480.46 3154.78,-1489.5"/>
<polygon fill="black" stroke="black" points="3154.48,-1492.99 3164.76,-1490.4 3155.12,-1486.02 3154.48,-1492.99"/>
<text text-anchor="start" x="2575" y="-1456.8" font-family="arial" font-size="14.00" fill="#377eb8">(Q&#39; || c1 &gt;= 10)</text>
</g>
<!-- ID_1_ct1_st0236&#45;&gt;ID_1_ct1_st023 -->
<g id="edge94" class="edge">
<title>ID_1_ct1_st0236&#45;&gt;ID_1_ct1_st023</title>
<path fill="none" stroke="black" d="M1971.01,-1404.38C1952.37,-1425.91 1922.48,-1455.41 1889,-1469 1846.54,-1486.24 1831.82,-1472.89 1786,-1474 1435.88,-1482.49 1346.93,-1504.12 998,-1474 995.46,-1473.78 992.89,-1473.52 990.29,-1473.24"/>
<polygon fill="black" stroke="black" points="990.56,-1469.74 980.21,-1471.98 989.7,-1476.69 990.56,-1469.74"/>
<text text-anchor="start" x="1368.5" y="-1492.8" font-family="arial" font-size="14.00" fill="#377eb8">(Q&#39; || c1 &gt;= 10)</text>
</g>
<!-- ID_1_ct1_st0236&#45;&gt;ID_1_ct1_st0245 -->
<g id="edge92" class="edge">
<title>ID_1_ct1_st0236&#45;&gt;ID_1_ct1_st0245</title>
<path fill="none" stroke="black" d="M2077.25,-1376.21C2181.46,-1371.7 2363.96,-1360.37 2518,-1333 2555.73,-1326.3 2825.32,-1274.51 2852,-1247 2877.37,-1220.84 2844.96,-1193.48 2870,-1167 2886.59,-1149.46 3266.37,-1058.73 3288,-1048 3352.55,-1015.98 3402.11,-944.84 3427.39,-902.2"/>
<polygon fill="black" stroke="black" points="3430.56,-903.71 3432.56,-893.31 3424.51,-900.19 3430.56,-903.71"/>
<text text-anchor="start" x="2724" y="-1292.8" font-family="arial" font-size="14.00" fill="#377eb8">(Q&#39; || (S&#39; || c1 &gt;= 10))</text>
</g>
<!-- ID_1_ct1_st0236&#45;&gt;ID_1_ct1_st02456 -->
<g id="edge93" class="edge">
<title>ID_1_ct1_st0236&#45;&gt;ID_1_ct1_st02456</title>
<path fill="none" stroke="black" d="M1995.24,-1404.19C2001.21,-1454.46 2022.43,-1566.54 2095,-1615 2208.58,-1690.84 3187.43,-1633 3324,-1633 3324,-1633 3324,-1633 3692,-1633 3860.04,-1633 3913.98,-1369.26 3928.14,-1272.26"/>
<polygon fill="black" stroke="black" points="3931.65,-1272.46 3929.57,-1262.07 3924.71,-1271.49 3931.65,-1272.46"/>
<text text-anchor="start" x="3092.5" y="-1644.8" font-family="arial" font-size="14.00" fill="#377eb8">true</text>
</g>
<!-- ID_1_ct1_st0236&#45;&gt;ID_1_ct1_st01245 -->
<g id="edge97" class="edge">
<title>ID_1_ct1_st0236&#45;&gt;ID_1_ct1_st01245</title>
<path fill="none" stroke="black" d="M2020.88,-1353.73C2080.29,-1299.82 2214.62,-1177.6 2223,-1167 2259.31,-1121.06 2290.41,-1060.35 2308.03,-1022.75"/>
<polygon fill="black" stroke="black" points="2311.41,-1023.8 2312.43,-1013.26 2305.05,-1020.86 2311.41,-1023.8"/>
<text text-anchor="start" x="2095" y="-1287.8" font-family="arial" font-size="14.00" fill="#377eb8">(Q&#39; || (S&#39; || c1 &gt;= 10))</text>
</g>
<!-- ID_1_ct1_st0236&#45;&gt;ID_1_ct1_st012456 -->
<g id="edge98" class="edge">
<title>ID_1_ct1_st0236&#45;&gt;ID_1_ct1_st012456</title>
<path fill="none" stroke="black" d="M1906.57,-1371.33C1807.09,-1359.19 1639.71,-1328.78 1516,-1255 1355.67,-1159.38 1321.02,-1113.62 1221,-956 1172.7,-879.88 1143.31,-776.65 1130.34,-723.25"/>
<polygon fill="black" stroke="black" points="1133.69,-722.18 1127.97,-713.26 1126.88,-723.79 1133.69,-722.18"/>
<text text-anchor="start" x="1546.5" y="-1298.8" font-family="arial" font-size="14.00" fill="#377eb8">true</text>
</g>
<!-- ID_1_ct1_st0236&#45;&gt;ID_1_ct1_st0236 -->
<g id="edge95" class="edge">
<title>ID_1_ct1_st0236&#45;&gt;ID_1_ct1_st0236</title>
<path fill="none" stroke="black" d="M1965.11,-1404.18C1963.91,-1413.91 1972.88,-1422 1992,-1422 2003.95,-1422 2011.94,-1418.84 2015.95,-1414.09"/>
<polygon fill="black" stroke="black" points="2019.41,-1414.76 2018.89,-1404.18 2012.7,-1412.77 2019.41,-1414.76"/>
<text text-anchor="start" x="1969" y="-1425.8" font-family="arial" font-size="14.00" fill="#377eb8">c1 &lt; 10</text>
</g>
<!-- ID_1_ct1_st0236&#45;&gt;ID_1_ct1_st01236 -->
<g id="edge100" class="edge">
<title>ID_1_ct1_st0236&#45;&gt;ID_1_ct1_st01236</title>
<path fill="none" stroke="black" d="M1966.92,-1353.58C1946.65,-1332.52 1916.63,-1302.08 1889,-1277 1852.77,-1244.1 1837.44,-1242.73 1804,-1207 1772.87,-1173.74 1743.22,-1130.52 1724.3,-1100.96"/>
<polygon fill="black" stroke="black" points="1727.09,-1098.82 1718.79,-1092.25 1721.18,-1102.57 1727.09,-1098.82"/>
<text text-anchor="start" x="1823.5" y="-1280.8" font-family="arial" font-size="14.00" fill="#377eb8">c1 &lt; 10</text>
</g>
<!-- ID_1_ct1_st02356&#45;&gt;ID_1_ct1_st0 -->
<g id="edge111" class="edge">
<title>ID_1_ct1_st02356&#45;&gt;ID_1_ct1_st0</title>
<path fill="none" stroke="black" d="M3679.55,-588.73C3662.44,-546.63 3628.12,-459.23 3606,-383 3595.6,-347.17 3604.69,-334.37 3588,-301 3570.95,-266.89 3564.71,-255.59 3532,-236 3121.78,9.73 2951.18,-46 2473,-46 370.5,-46 370.5,-46 370.5,-46 272.6,-46 297.67,-148.1 270,-242 231.02,-374.26 205.96,-806.23 199.29,-933.44"/>
<polygon fill="black" stroke="black" points="195.78,-933.61 198.75,-943.77 202.77,-933.97 195.78,-933.61"/>
<text text-anchor="start" x="1695" y="-49.8" font-family="arial" font-size="14.00" fill="#377eb8">Q&#39;</text>
</g>
<!-- ID_1_ct1_st02356&#45;&gt;ID_1_ct1_st01 -->
<g id="edge115" class="edge">
<title>ID_1_ct1_st02356&#45;&gt;ID_1_ct1_st01</title>
<path fill="none" stroke="black" d="M3681.44,-588.79C3657.15,-518.8 3586.03,-324.71 3532,-287 3493.4,-260.06 2752.78,-103.28 2706,-98 2402.03,-63.67 1617.39,-56.48 1331,-164 1066.51,-263.29 999.01,-341.15 853,-583 797.51,-674.91 865.33,-737.65 793,-817 753.89,-859.91 723.93,-839.49 670,-861 589.23,-893.22 555.5,-881.68 491,-940 462.95,-965.36 462.31,-978.6 449,-1014 404.38,-1132.61 383.59,-1282.86 376.04,-1349.92"/>
<polygon fill="black" stroke="black" points="372.55,-1349.62 374.94,-1359.95 379.51,-1350.39 372.55,-1349.62"/>
<text text-anchor="start" x="1834.5" y="-91.8" font-family="arial" font-size="14.00" fill="#377eb8">true</text>
</g>
<!-- ID_1_ct1_st02356&#45;&gt;ID_1_ct1_st02456 -->
<g id="edge112" class="edge">
<title>ID_1_ct1_st02356&#45;&gt;ID_1_ct1_st02456</title>
<path fill="none" stroke="black" d="M3701.46,-639.35C3719.34,-687.23 3759.43,-794.22 3794,-884 3839.02,-1000.92 3893.65,-1139.1 3918.72,-1202.3"/>
<polygon fill="black" stroke="black" points="3915.54,-1203.78 3922.48,-1211.79 3922.05,-1201.2 3915.54,-1203.78"/>
<text text-anchor="start" x="3801" y="-984.8" font-family="arial" font-size="14.00" fill="#377eb8">true</text>
</g>
<!-- ID_1_ct1_st02356&#45;&gt;ID_1_ct1_st012456 -->
<g id="edge116" class="edge">
<title>ID_1_ct1_st02356&#45;&gt;ID_1_ct1_st012456</title>
<path fill="none" stroke="black" d="M3680.89,-588.8C3661.97,-541.09 3613.31,-439.54 3532,-408 3415.46,-362.8 2532.97,-363.61 2408,-361 2185.38,-356.35 2126.9,-326.01 1907,-361 1590.25,-411.4 1492.46,-414.18 1221,-585 1212.86,-590.12 1178.31,-626.97 1152.41,-655.15"/>
<polygon fill="black" stroke="black" points="1149.55,-653.1 1145.37,-662.83 1154.71,-657.83 1149.55,-653.1"/>
<text text-anchor="start" x="2460" y="-366.8" font-family="arial" font-size="14.00" fill="#377eb8">true</text>
</g>
<!-- ID_1_ct1_st02356&#45;&gt;ID_1_ct1_st0236 -->
<g id="edge113" class="edge">
<title>ID_1_ct1_st02356&#45;&gt;ID_1_ct1_st0236</title>
<path fill="none" stroke="black" d="M3687.25,-639.12C3678.44,-706.88 3644.53,-894.57 3532,-988 3354.55,-1135.34 3247.29,-1070.65 3062,-1208 3052.39,-1215.12 3054.37,-1222.05 3044,-1228 2975.51,-1267.31 2930.74,-1213.53 2870,-1264 2853.75,-1277.5 2868.67,-1295.02 2852,-1308 2812.69,-1338.62 2457.54,-1365.62 2408,-1371 2326.03,-1379.91 2305.4,-1381.89 2223,-1385 2166.15,-1387.15 2151.86,-1386.67 2095,-1385 2092.44,-1384.92 2089.84,-1384.84 2087.23,-1384.74"/>
<polygon fill="black" stroke="black" points="2087.16,-1381.24 2077.03,-1384.34 2086.88,-1388.23 2087.16,-1381.24"/>
<text text-anchor="start" x="2914.5" y="-1282.8" font-family="arial" font-size="14.00" fill="#377eb8">(Q&#39; || c0 &gt;= 5)</text>
<text text-anchor="start" x="2938" y="-1267.8" font-family="arial" font-size="14.00">c1 :=0</text>
</g>
<!-- ID_1_ct1_st02356&#45;&gt;ID_1_ct1_st02356 -->
<g id="edge114" class="edge">
<title>ID_1_ct1_st02356&#45;&gt;ID_1_ct1_st02356</title>
<path fill="none" stroke="black" d="M3668.21,-639.18C3667.2,-648.91 3674.8,-657 3691,-657 3701.13,-657 3707.89,-653.84 3711.29,-649.09"/>
<polygon fill="black" stroke="black" points="3714.74,-649.73 3713.79,-639.18 3707.95,-648.02 3714.74,-649.73"/>
<text text-anchor="start" x="3672" y="-660.8" font-family="arial" font-size="14.00" fill="#377eb8">c0 &lt; 5</text>
</g>
<!-- ID_1_ct1_st02356&#45;&gt;ID_1_ct1_st01236 -->
<g id="edge117" class="edge">
<title>ID_1_ct1_st02356&#45;&gt;ID_1_ct1_st01236</title>
<path fill="none" stroke="black" d="M3605.97,-617.1C3539.64,-619.91 3444.8,-624.74 3362,-632 2706.89,-689.45 2524.94,-676.01 1907,-901 1858.81,-918.54 1844.58,-921.64 1804,-953 1774.12,-976.09 1746.24,-1008.99 1727.46,-1033.52"/>
<polygon fill="black" stroke="black" points="1724.43,-1031.73 1721.21,-1041.82 1730.02,-1035.94 1724.43,-1031.73"/>
<text text-anchor="start" x="2745.5" y="-707.8" font-family="arial" font-size="14.00" fill="#377eb8">(Q&#39; || c0 &gt;= 5)</text>
<text text-anchor="start" x="2769" y="-692.8" font-family="arial" font-size="14.00">c1 :=0</text>
</g>
<!-- ID_1_ct1_st02356&#45;&gt;ID_1_ct1_st012356 -->
<g id="edge118" class="edge">
<title>ID_1_ct1_st02356&#45;&gt;ID_1_ct1_st012356</title>
<path fill="none" stroke="black" d="M3674.71,-588.9C3640.88,-536.86 3554.19,-422 3448,-422 2787,-422 2787,-422 2787,-422 2544.24,-422 2480.84,-399.44 2241,-437 2075.22,-462.96 1655.94,-555.42 1516,-648 1481.34,-670.93 1452.66,-709.48 1434.93,-737.32"/>
<polygon fill="black" stroke="black" points="1431.88,-735.61 1429.57,-745.95 1437.82,-739.31 1431.88,-735.61"/>
<text text-anchor="start" x="2602" y="-425.8" font-family="arial" font-size="14.00" fill="#377eb8">c0 &lt; 5</text>
</g>
<!-- ID_1_ct1_st01236&#45;&gt;ID_1_ct1_st0 -->
<g id="edge101" class="edge">
<title>ID_1_ct1_st01236&#45;&gt;ID_1_ct1_st0</title>
<path fill="none" stroke="black" d="M1618.88,-1076.6C1486.56,-1089.87 1219.46,-1107.94 998,-1068 836.49,-1038.87 812.37,-973.87 652,-939 633.71,-935.02 628.7,-936.67 610,-936 458.98,-930.61 417.68,-903.97 270,-936 264.98,-937.09 259.88,-938.56 254.85,-940.27"/>
<polygon fill="black" stroke="black" points="253.41,-937.07 245.26,-943.84 255.86,-943.63 253.41,-937.07"/>
<text text-anchor="start" x="815.5" y="-1013.8" font-family="arial" font-size="14.00" fill="#377eb8">Q&#39;</text>
</g>
<!-- ID_1_ct1_st01236&#45;&gt;ID_1_ct1_st01 -->
<g id="edge106" class="edge">
<title>ID_1_ct1_st01236&#45;&gt;ID_1_ct1_st01</title>
<path fill="none" stroke="black" d="M1663.53,-1092.19C1610.4,-1124.94 1509.77,-1178 1415.5,-1178 549.5,-1178 549.5,-1178 549.5,-1178 460.1,-1178 406.21,-1290.9 384.14,-1349.94"/>
<polygon fill="black" stroke="black" points="380.75,-1349.02 380.63,-1359.62 387.33,-1351.41 380.75,-1349.02"/>
<text text-anchor="start" x="904.5" y="-1181.8" font-family="arial" font-size="14.00" fill="#377eb8">true</text>
</g>
<!-- ID_1_ct1_st01236&#45;&gt;ID_1_ct1_st0123 -->
<g id="edge109" class="edge">
<title>ID_1_ct1_st01236&#45;&gt;ID_1_ct1_st0123</title>
<path fill="none" stroke="black" d="M1749.51,-1092.1C1763.49,-1102.04 1777.42,-1114.77 1786,-1130 1822.44,-1194.65 1778.21,-1226.41 1804,-1296 1811.02,-1314.96 1889.34,-1436.16 1907,-1446 1924.13,-1455.55 2356.01,-1483.1 3062,-1499 3099.77,-1499.85 3109.23,-1499.72 3147,-1499 3149.51,-1498.95 3152.06,-1498.9 3154.63,-1498.83"/>
<polygon fill="black" stroke="black" points="3154.75,-1502.33 3164.65,-1498.55 3154.56,-1495.33 3154.75,-1502.33"/>
<text text-anchor="start" x="2426" y="-1485.8" font-family="arial" font-size="14.00" fill="#377eb8">(Q&#39; || c1 &gt;= 10)</text>
</g>
<!-- ID_1_ct1_st01236&#45;&gt;ID_1_ct1_st023 -->
<g id="edge104" class="edge">
<title>ID_1_ct1_st01236&#45;&gt;ID_1_ct1_st023</title>
<path fill="none" stroke="black" d="M1665.21,-1092.04C1649.23,-1104.59 1631.33,-1120.95 1619,-1139 1605.68,-1158.5 1618.61,-1173.27 1601,-1189 1575.32,-1211.94 1026,-1311.96 998,-1332 965.49,-1355.26 943.17,-1396.15 930.42,-1425.45"/>
<polygon fill="black" stroke="black" points="927.1,-1424.33 926.47,-1434.9 933.56,-1427.03 927.1,-1424.33"/>
<text text-anchor="start" x="1221" y="-1281.8" font-family="arial" font-size="14.00" fill="#377eb8">(Q&#39; || c1 &gt;= 10)</text>
</g>
<!-- ID_1_ct1_st01236&#45;&gt;ID_1_ct1_st0245 -->
<g id="edge102" class="edge">
<title>ID_1_ct1_st01236&#45;&gt;ID_1_ct1_st0245</title>
<path fill="none" stroke="black" d="M1736.66,-1041.97C1775.29,-1014.33 1842.12,-971.08 1907,-951 2435.18,-787.53 2594.1,-849.04 3147,-851 3234.58,-851.31 3256.8,-847.76 3344,-856 3346.56,-856.24 3349.16,-856.5 3351.78,-856.76"/>
<polygon fill="black" stroke="black" points="3351.68,-860.26 3361.98,-857.81 3352.39,-853.3 3351.68,-860.26"/>
<text text-anchor="start" x="2557" y="-843.8" font-family="arial" font-size="14.00" fill="#377eb8">(Q&#39; || (S&#39; || c1 &gt;= 10))</text>
</g>
<!-- ID_1_ct1_st01236&#45;&gt;ID_1_ct1_st02456 -->
<g id="edge103" class="edge">
<title>ID_1_ct1_st01236&#45;&gt;ID_1_ct1_st02456</title>
<path fill="none" stroke="black" d="M1750.41,-1092.15C1764.28,-1102.03 1777.91,-1114.71 1786,-1130 1819.95,-1194.12 1767.41,-1393.35 1804,-1456 1881.41,-1588.54 1950.24,-1590.96 2095,-1642 2263.1,-1701.26 1924.25,-1674 3103.5,-1674 3103.5,-1674 3103.5,-1674 3692,-1674 3875.14,-1674 3919.83,-1375.76 3929.83,-1272.04"/>
<polygon fill="black" stroke="black" points="3933.31,-1272.34 3930.74,-1262.06 3926.34,-1271.7 3933.31,-1272.34"/>
<text text-anchor="start" x="2945" y="-1677.8" font-family="arial" font-size="14.00" fill="#377eb8">true</text>
</g>
<!-- ID_1_ct1_st01236&#45;&gt;ID_1_ct1_st01245 -->
<g id="edge107" class="edge">
<title>ID_1_ct1_st01236&#45;&gt;ID_1_ct1_st01245</title>
<path fill="none" stroke="black" d="M1786.11,-1081.12C1890.77,-1095.64 2075.3,-1109.93 2223,-1061 2248.03,-1052.71 2272.08,-1035.68 2290.37,-1020.16"/>
<polygon fill="black" stroke="black" points="2293.14,-1022.39 2298.35,-1013.17 2288.52,-1017.12 2293.14,-1022.39"/>
<text text-anchor="start" x="1928" y="-1097.8" font-family="arial" font-size="14.00" fill="#377eb8">(Q&#39; || (S&#39; || c1 &gt;= 10))</text>
</g>
<!-- ID_1_ct1_st01236&#45;&gt;ID_1_ct1_st012456 -->
<g id="edge108" class="edge">
<title>ID_1_ct1_st01236&#45;&gt;ID_1_ct1_st012456</title>
<path fill="none" stroke="black" d="M1618.68,-1060.78C1513.95,-1048.77 1333.73,-1013.75 1221,-912 1164.62,-861.11 1138.95,-772.05 1128.59,-722.95"/>
<polygon fill="black" stroke="black" points="1132.01,-722.22 1126.61,-713.11 1125.15,-723.61 1132.01,-722.22"/>
<text text-anchor="start" x="1402.5" y="-1043.8" font-family="arial" font-size="14.00" fill="#377eb8">true</text>
</g>
<!-- ID_1_ct1_st01236&#45;&gt;ID_1_ct1_st0236 -->
<g id="edge105" class="edge">
<title>ID_1_ct1_st01236&#45;&gt;ID_1_ct1_st0236</title>
<path fill="none" stroke="black" d="M1722.66,-1092.33C1741.1,-1114.94 1770.97,-1147.28 1804,-1166 1837.95,-1185.24 1858.34,-1163.87 1889,-1188 1940,-1228.14 1968.61,-1301.02 1981.82,-1344.21"/>
<polygon fill="black" stroke="black" points="1978.52,-1345.4 1984.71,-1354 1985.24,-1343.42 1978.52,-1345.4"/>
<text text-anchor="start" x="1823.5" y="-1191.8" font-family="arial" font-size="14.00" fill="#377eb8">c1 &lt; 10</text>
</g>
<!-- ID_1_ct1_st01236&#45;&gt;ID_1_ct1_st01236 -->
<g id="edge110" class="edge">
<title>ID_1_ct1_st01236&#45;&gt;ID_1_ct1_st01236</title>
<path fill="none" stroke="black" d="M1675.61,-1092.18C1674.41,-1101.91 1683.38,-1110 1702.5,-1110 1714.45,-1110 1722.44,-1106.84 1726.45,-1102.09"/>
<polygon fill="black" stroke="black" points="1729.91,-1102.76 1729.39,-1092.18 1723.2,-1100.77 1729.91,-1102.76"/>
<text text-anchor="start" x="1679.5" y="-1113.8" font-family="arial" font-size="14.00" fill="#377eb8">c1 &lt; 10</text>
</g>
<!-- ID_1_ct1_st01235&#45;&gt;ID_1_ct1_st0 -->
<g id="edge57" class="edge">
<title>ID_1_ct1_st01235&#45;&gt;ID_1_ct1_st0</title>
<path fill="none" stroke="black" d="M2540.43,-987.74C2538.87,-986.25 2537.38,-984.67 2536,-983 2503.01,-943.15 2546.76,-911 2518,-868 2436.45,-746.07 2361.99,-766.89 2223,-720 1746.1,-559.12 1625.8,-453 1122.5,-453 370.5,-453 370.5,-453 370.5,-453 268.91,-453 215.92,-817.08 201.57,-933.59"/>
<polygon fill="black" stroke="black" points="198.06,-933.41 200.34,-943.76 205.01,-934.26 198.06,-933.41"/>
<text text-anchor="start" x="1114" y="-456.8" font-family="arial" font-size="14.00" fill="#377eb8">Q&#39;</text>
</g>
<!-- ID_1_ct1_st01235&#45;&gt;ID_1_ct1_st01 -->
<g id="edge64" class="edge">
<title>ID_1_ct1_st01235&#45;&gt;ID_1_ct1_st01</title>
<path fill="none" stroke="black" d="M2567.55,-1038.06C2551.78,-1045.21 2534.33,-1052.75 2518,-1059 2397.36,-1105.19 2362.81,-1104.01 2241,-1147 2232.91,-1149.86 2231.3,-1151.8 2223,-1154 2077.94,-1192.55 2038.66,-1192.58 1889,-1204 1887.13,-1204.14 1620.54,-1203.93 1619,-1205 1600.59,-1217.71 1619.43,-1239.32 1601,-1252 1548.23,-1288.3 1377.02,-1242.73 1313,-1241 1095.6,-1235.11 1041.48,-1259 824,-1259 549.5,-1259 549.5,-1259 549.5,-1259 522.77,-1259 514.51,-1260.28 491,-1273 454.61,-1292.7 421.14,-1326.42 399.12,-1351.72"/>
<polygon fill="black" stroke="black" points="396.21,-1349.74 392.38,-1359.62 401.54,-1354.28 396.21,-1349.74"/>
<text text-anchor="start" x="1255" y="-1244.8" font-family="arial" font-size="14.00" fill="#377eb8">true</text>
</g>
<!-- ID_1_ct1_st01235&#45;&gt;ID_1_ct1_st0123 -->
<g id="edge67" class="edge">
<title>ID_1_ct1_st01235&#45;&gt;ID_1_ct1_st0123</title>
<path fill="none" stroke="black" d="M2665.06,-1038.03C2679.67,-1048.26 2695.06,-1061.19 2706,-1076 2720.04,-1094.99 2706.64,-1109.98 2724,-1126 2832.31,-1225.96 2937.17,-1111.47 3044,-1213 3062.64,-1230.72 3050.37,-1245.06 3062,-1268 3082.44,-1308.31 3159.16,-1409.99 3199.83,-1462.88"/>
<polygon fill="black" stroke="black" points="3197.15,-1465.15 3206.03,-1470.93 3202.7,-1460.87 3197.15,-1465.15"/>
<text text-anchor="start" x="2914.5" y="-1216.8" font-family="arial" font-size="14.00" fill="#377eb8">(Q&#39; || c0 &gt;= 5)</text>
</g>
<!-- ID_1_ct1_st01235&#45;&gt;ID_1_ct1_st023 -->
<g id="edge60" class="edge">
<title>ID_1_ct1_st01235&#45;&gt;ID_1_ct1_st023</title>
<path fill="none" stroke="black" d="M2577.11,-1038.16C2562.51,-1048.4 2547.09,-1061.3 2536,-1076 2522.52,-1093.85 2535.2,-1108.7 2518,-1123 2469.87,-1163.01 2297.67,-1147.43 2241,-1174 2231.57,-1178.42 2232.35,-1184.42 2223,-1189 2170.69,-1214.59 2149.91,-1197.61 2095,-1217 2086.57,-1219.98 2085.43,-1223.02 2077,-1226 1913.29,-1283.76 1483.37,-1355.67 1313,-1389 1252.5,-1400.84 1087.02,-1430.17 990.35,-1447.2"/>
<polygon fill="black" stroke="black" points="989.6,-1443.78 980.36,-1448.96 990.81,-1450.67 989.6,-1443.78"/>
<text text-anchor="start" x="1660" y="-1334.8" font-family="arial" font-size="14.00" fill="#377eb8">(Q&#39; || c0 &gt;= 5)</text>
</g>
<!-- ID_1_ct1_st01235&#45;&gt;ID_1_ct1_st0245 -->
<g id="edge58" class="edge">
<title>ID_1_ct1_st01235&#45;&gt;ID_1_ct1_st0245</title>
<path fill="none" stroke="black" d="M2706.15,-1034.84C2837.33,-1064.29 3095.5,-1103.53 3288,-1015 3343.94,-989.28 3393.16,-936.01 3421.25,-901.15"/>
<polygon fill="black" stroke="black" points="3424.12,-903.16 3427.59,-893.15 3418.63,-898.82 3424.12,-903.16"/>
<text text-anchor="start" x="3092.5" y="-1070.8" font-family="arial" font-size="14.00" fill="#377eb8">true</text>
</g>
<!-- ID_1_ct1_st01235&#45;&gt;ID_1_ct1_st02456 -->
<g id="edge59" class="edge">
<title>ID_1_ct1_st01235&#45;&gt;ID_1_ct1_st02456</title>
<path fill="none" stroke="black" d="M2668.7,-1038.08C2685.8,-1046.67 2705.49,-1055.9 2724,-1063 2906.47,-1132.96 2964.57,-1112.95 3147,-1183 3228.83,-1214.42 3236.34,-1270 3324,-1270 3324,-1270 3324,-1270 3692,-1270 3741.17,-1270 3795.48,-1263.15 3840.03,-1255.68"/>
<polygon fill="black" stroke="black" points="3840.69,-1259.12 3849.96,-1253.98 3839.51,-1252.22 3840.69,-1259.12"/>
<text text-anchor="start" x="3313" y="-1273.8" font-family="arial" font-size="14.00" fill="#377eb8">true</text>
</g>
<!-- ID_1_ct1_st01235&#45;&gt;ID_1_ct1_st01245 -->
<g id="edge65" class="edge">
<title>ID_1_ct1_st01235&#45;&gt;ID_1_ct1_st01245</title>
<path fill="none" stroke="black" d="M2552.69,-987.97C2541.26,-984.66 2529.4,-981.8 2518,-980 2485.8,-974.92 2450.22,-974.87 2418.5,-976.75"/>
<polygon fill="black" stroke="black" points="2418.09,-973.27 2408.35,-977.43 2418.56,-980.25 2418.09,-973.27"/>
<text text-anchor="start" x="2460" y="-983.8" font-family="arial" font-size="14.00" fill="#377eb8">true</text>
</g>
<!-- ID_1_ct1_st01235&#45;&gt;ID_1_ct1_st012456 -->
<g id="edge66" class="edge">
<title>ID_1_ct1_st01235&#45;&gt;ID_1_ct1_st012456</title>
<path fill="none" stroke="black" d="M2541.03,-987.83C2539.26,-986.31 2537.58,-984.7 2536,-983 2515.34,-960.69 2537.53,-940.3 2518,-917 2483.26,-875.56 2458.76,-883.65 2408,-865 2059.38,-736.9 1969.21,-696.64 1601,-648 1466.5,-630.23 1309.64,-651.22 1213.19,-668.87"/>
<polygon fill="black" stroke="black" points="1212.38,-665.46 1203.18,-670.73 1213.65,-672.34 1212.38,-665.46"/>
<text text-anchor="start" x="1834.5" y="-699.8" font-family="arial" font-size="14.00" fill="#377eb8">true</text>
</g>
<!-- ID_1_ct1_st01235&#45;&gt;ID_1_ct1_st0235 -->
<g id="edge62" class="edge">
<title>ID_1_ct1_st01235&#45;&gt;ID_1_ct1_st0235</title>
<path fill="none" stroke="black" d="M2706.22,-1011.42C2749.79,-1010.17 2803.81,-1007.95 2852,-1004 2854.54,-1003.79 2857.11,-1003.57 2859.71,-1003.33"/>
<polygon fill="black" stroke="black" points="2860.18,-1006.8 2869.8,-1002.35 2859.51,-999.83 2860.18,-1006.8"/>
<text text-anchor="start" x="2769" y="-1013.8" font-family="arial" font-size="14.00" fill="#377eb8">c0 &lt; 5</text>
</g>
<!-- ID_1_ct1_st01235&#45;&gt;ID_1_ct1_st0236 -->
<g id="edge61" class="edge">
<title>ID_1_ct1_st01235&#45;&gt;ID_1_ct1_st0236</title>
<path fill="none" stroke="black" d="M2575.15,-1038C2560.72,-1048.08 2545.91,-1060.92 2536,-1076 2517.17,-1104.65 2539.46,-1124.27 2518,-1151 2432.27,-1257.8 2354.8,-1209.8 2241,-1286 2232.11,-1291.96 2232.54,-1297.14 2223,-1302 2171.11,-1328.43 2149.48,-1309.42 2095,-1330 2086.44,-1333.23 2085.16,-1335.85 2077,-1340 2070.7,-1343.21 2064.08,-1346.47 2057.44,-1349.66"/>
<polygon fill="black" stroke="black" points="2055.92,-1346.51 2048.4,-1353.97 2058.93,-1352.83 2055.92,-1346.51"/>
<text text-anchor="start" x="2282" y="-1304.8" font-family="arial" font-size="14.00" fill="#377eb8">(Q&#39; || c0 &gt;= 5)</text>
<text text-anchor="start" x="2305.5" y="-1289.8" font-family="arial" font-size="14.00">c1 :=0</text>
</g>
<!-- ID_1_ct1_st01235&#45;&gt;ID_1_ct1_st02356 -->
<g id="edge63" class="edge">
<title>ID_1_ct1_st01235&#45;&gt;ID_1_ct1_st02356</title>
<path fill="none" stroke="black" d="M2700.26,-987.77C2702.26,-986.27 2704.18,-984.68 2706,-983 2720.32,-969.78 2711.21,-957.71 2724,-943 2774.32,-885.12 2799.95,-882.24 2870,-851 3172.97,-715.86 3270.58,-743.41 3588,-647 3593.18,-645.43 3598.49,-643.79 3603.85,-642.11"/>
<polygon fill="black" stroke="black" points="3605.02,-645.41 3613.51,-639.08 3602.92,-638.74 3605.02,-645.41"/>
<text text-anchor="start" x="3207.5" y="-751.8" font-family="arial" font-size="14.00" fill="#377eb8">c0 &lt; 5</text>
</g>
<!-- ID_1_ct1_st01235&#45;&gt;ID_1_ct1_st01236 -->
<g id="edge68" class="edge">
<title>ID_1_ct1_st01235&#45;&gt;ID_1_ct1_st01236</title>
<path fill="none" stroke="black" d="M2535.99,-1033.78C2529.91,-1035.23 2523.86,-1036.65 2518,-1038 2395.26,-1066.33 2356.05,-1046.71 2241,-1098 2231.99,-1102.02 2232.37,-1107.9 2223,-1111 2161.39,-1131.39 2141.89,-1112.56 2077,-1113 2001.45,-1113.52 1982.43,-1117.38 1907,-1113 1860.99,-1110.33 1848.97,-1111.11 1804,-1101 1796.42,-1099.3 1788.61,-1097.23 1780.85,-1094.97"/>
<polygon fill="black" stroke="black" points="1781.65,-1091.55 1771.06,-1092.01 1779.62,-1098.25 1781.65,-1091.55"/>
<text text-anchor="start" x="2116.5" y="-1138.8" font-family="arial" font-size="14.00" fill="#377eb8">(Q&#39; || c0 &gt;= 5)</text>
<text text-anchor="start" x="2140" y="-1123.8" font-family="arial" font-size="14.00">c1 :=0</text>
</g>
<!-- ID_1_ct1_st01235&#45;&gt;ID_1_ct1_st01235 -->
<g id="edge69" class="edge">
<title>ID_1_ct1_st01235&#45;&gt;ID_1_ct1_st01235</title>
<path fill="none" stroke="black" d="M2593.36,-1038.18C2592.13,-1047.91 2601.34,-1056 2621,-1056 2633.29,-1056 2641.49,-1052.84 2645.62,-1048.09"/>
<polygon fill="black" stroke="black" points="2649.07,-1048.76 2648.64,-1038.18 2642.38,-1046.72 2649.07,-1048.76"/>
<text text-anchor="start" x="2602" y="-1059.8" font-family="arial" font-size="14.00" fill="#377eb8">c0 &lt; 5</text>
</g>
<!-- ID_1_ct1_st01235&#45;&gt;ID_1_ct1_st012356 -->
<g id="edge70" class="edge">
<title>ID_1_ct1_st01235&#45;&gt;ID_1_ct1_st012356</title>
<path fill="none" stroke="black" d="M2546.26,-987.85C2542.76,-986.29 2539.32,-984.67 2536,-983 2527.41,-978.68 2526.3,-975.86 2518,-971 2470.65,-943.29 2459.99,-932.52 2408,-915 2089.56,-807.66 1687.14,-780.32 1508.37,-773.37"/>
<polygon fill="black" stroke="black" points="1508.34,-769.87 1498.22,-772.99 1508.08,-776.86 1508.34,-769.87"/>
<text text-anchor="start" x="1973" y="-835.8" font-family="arial" font-size="14.00" fill="#377eb8">c0 &lt; 5</text>
</g>
<!-- ID_1_ct1_st012356&#45;&gt;ID_1_ct1_st0 -->
<g id="edge119" class="edge">
<title>ID_1_ct1_st012356&#45;&gt;ID_1_ct1_st0</title>
<path fill="none" stroke="black" d="M1330.9,-782.76C1272.76,-790.04 1193.03,-798 1122.5,-798 370.5,-798 370.5,-798 370.5,-798 324.58,-798 305.89,-793.36 270,-822 234.62,-850.23 215.22,-900.12 205.6,-933.86"/>
<polygon fill="black" stroke="black" points="202.15,-933.21 202.92,-943.78 208.91,-935.04 202.15,-933.21"/>
<text text-anchor="start" x="724" y="-801.8" font-family="arial" font-size="14.00" fill="#377eb8">Q&#39;</text>
</g>
<!-- ID_1_ct1_st012356&#45;&gt;ID_1_ct1_st01 -->
<g id="edge123" class="edge">
<title>ID_1_ct1_st012356&#45;&gt;ID_1_ct1_st01</title>
<path fill="none" stroke="black" d="M1369.06,-796.04C1297.25,-836.06 1150.72,-915.82 1022,-974 922.5,-1018.97 898.06,-1033.25 793,-1063 718.22,-1084.17 506.79,-1074.04 449,-1126 384.48,-1184.02 373.26,-1293.51 372,-1349.73"/>
<polygon fill="black" stroke="black" points="368.5,-1349.87 371.87,-1359.91 375.5,-1349.96 368.5,-1349.87"/>
<text text-anchor="start" x="811" y="-1060.8" font-family="arial" font-size="14.00" fill="#377eb8">true</text>
</g>
<!-- ID_1_ct1_st012356&#45;&gt;ID_1_ct1_st02456 -->
<g id="edge120" class="edge">
<title>ID_1_ct1_st012356&#45;&gt;ID_1_ct1_st02456</title>
<path fill="none" stroke="black" d="M1428.3,-796.06C1447.31,-834.64 1482.44,-911.43 1498,-981 1504.66,-1010.77 1496.47,-1231.56 1516,-1255 1555.16,-1302.01 1743.7,-1264.79 1786,-1309 1831.5,-1356.56 1757.1,-1409.82 1804,-1456 1828.69,-1480.31 2041.54,-1469.66 2077,-1467 2192.09,-1458.38 2988.08,-1308 3103.5,-1308 3103.5,-1308 3103.5,-1308 3692,-1308 3754.65,-1308 3822.86,-1285.56 3870.58,-1265.92"/>
<polygon fill="black" stroke="black" points="3871.98,-1269.13 3879.85,-1262.03 3869.27,-1262.67 3871.98,-1269.13"/>
<text text-anchor="start" x="2776" y="-1364.8" font-family="arial" font-size="14.00" fill="#377eb8">true</text>
</g>
<!-- ID_1_ct1_st012356&#45;&gt;ID_1_ct1_st012456 -->
<g id="edge124" class="edge">
<title>ID_1_ct1_st012356&#45;&gt;ID_1_ct1_st012456</title>
<path fill="none" stroke="black" d="M1330.73,-761.69C1296.25,-756.46 1256.13,-748.57 1221,-737 1205.82,-732 1190.04,-725.03 1175.68,-717.92"/>
<polygon fill="black" stroke="black" points="1176.96,-714.65 1166.46,-713.24 1173.8,-720.89 1176.96,-714.65"/>
<text text-anchor="start" x="1255" y="-762.8" font-family="arial" font-size="14.00" fill="#377eb8">true</text>
</g>
<!-- ID_1_ct1_st012356&#45;&gt;ID_1_ct1_st0236 -->
<g id="edge121" class="edge">
<title>ID_1_ct1_st012356&#45;&gt;ID_1_ct1_st0236</title>
<path fill="none" stroke="black" d="M1425.13,-796.2C1441.49,-837.93 1476.76,-923.47 1516,-991 1555.35,-1058.72 1563.25,-1078.98 1619,-1134 1683.5,-1197.66 1728.55,-1180.91 1786,-1251 1798.62,-1266.39 1790.08,-1277.78 1804,-1292 1829.53,-1318.09 1864.38,-1337.2 1897.07,-1350.74"/>
<polygon fill="black" stroke="black" points="1896.1,-1354.12 1906.68,-1354.6 1898.7,-1347.63 1896.1,-1354.12"/>
<text text-anchor="start" x="1660" y="-1269.8" font-family="arial" font-size="14.00" fill="#377eb8">(Q&#39; || c0 &gt;= 5)</text>
<text text-anchor="start" x="1683.5" y="-1254.8" font-family="arial" font-size="14.00">c1 :=0</text>
</g>
<!-- ID_1_ct1_st012356&#45;&gt;ID_1_ct1_st02356 -->
<g id="edge122" class="edge">
<title>ID_1_ct1_st012356&#45;&gt;ID_1_ct1_st02356</title>
<path fill="none" stroke="black" d="M1466.24,-745.92C1481.98,-738.65 1499.52,-731.05 1516,-725 1682.26,-663.96 1731.94,-674.9 1907,-648 2146.34,-611.22 2937.5,-503 2956,-503 2956,-503 2956,-503 3448,-503 3525.02,-503 3604.3,-550.03 3650.27,-582.86"/>
<polygon fill="black" stroke="black" points="3648.31,-585.76 3658.46,-588.81 3652.43,-580.1 3648.31,-585.76"/>
<text text-anchor="start" x="2602" y="-562.8" font-family="arial" font-size="14.00" fill="#377eb8">c0 &lt; 5</text>
</g>
<!-- ID_1_ct1_st012356&#45;&gt;ID_1_ct1_st01236 -->
<g id="edge125" class="edge">
<title>ID_1_ct1_st012356&#45;&gt;ID_1_ct1_st01236</title>
<path fill="none" stroke="black" d="M1441.36,-796.22C1477.54,-831.67 1545.1,-898.45 1601,-957 1625.45,-982.61 1652.48,-1012.28 1672.34,-1034.34"/>
<polygon fill="black" stroke="black" points="1669.77,-1036.71 1679.06,-1041.81 1674.98,-1032.03 1669.77,-1036.71"/>
<text text-anchor="start" x="1516" y="-975.8" font-family="arial" font-size="14.00" fill="#377eb8">(Q&#39; || c0 &gt;= 5)</text>
<text text-anchor="start" x="1539.5" y="-960.8" font-family="arial" font-size="14.00">c1 :=0</text>
</g>
<!-- ID_1_ct1_st012356&#45;&gt;ID_1_ct1_st012356 -->
<g id="edge126" class="edge">
<title>ID_1_ct1_st012356&#45;&gt;ID_1_ct1_st012356</title>
<path fill="none" stroke="black" d="M1387.61,-796.18C1386.41,-805.91 1395.38,-814 1414.5,-814 1426.45,-814 1434.44,-810.84 1438.45,-806.09"/>
<polygon fill="black" stroke="black" points="1441.91,-806.76 1441.39,-796.18 1435.2,-804.77 1441.91,-806.76"/>
<text text-anchor="start" x="1395.5" y="-817.8" font-family="arial" font-size="14.00" fill="#377eb8">c0 &lt; 5</text>
</g>
</g>
</svg>
