<?xml version="1.0" encoding="UTF-8" standalone="no"?>
<!DOCTYPE svg PUBLIC "-//W3C//DTD SVG 1.1//EN"
 "http://www.w3.org/Graphics/SVG/1.1/DTD/svg11.dtd">
<!-- Generated by graphviz version 2.43.0 (0)
 -->
<!-- Title: G Pages: 1 -->
<svg width="1636pt" height="521pt"
 viewBox="0.00 0.00 1636.00 520.67" xmlns="http://www.w3.org/2000/svg" xmlns:xlink="http://www.w3.org/1999/xlink">
<g id="graph0" class="graph" transform="scale(1 1) rotate(0) translate(4 516.67)">
<title>G</title>
<polygon fill="white" stroke="transparent" points="-4,4 -4,-516.67 1632,-516.67 1632,4 -4,4"/>
<!-- _ID_120_ct0_st0 -->
<!-- ID_120_ct0_st0 -->
<g id="node2" class="node">
<title>ID_120_ct0_st0</title>
<polygon fill="none" stroke="black" points="280,-361.27 166,-361.27 166,-311.27 280,-311.27 280,-361.27"/>
<text text-anchor="start" x="174" y="-347.07" font-family="arial" font-weight="bold" font-size="14.00">ID_120_ct0_st0</text>
<text text-anchor="start" x="216.5" y="-333.07" font-family="arial" font-size="14.00" fill="#984ea3">!P</text>
<text text-anchor="start" x="211" y="-319.07" font-family="arial" font-size="14.00" fill="#ff7f00">true</text>
</g>
<!-- _ID_120_ct0_st0&#45;&gt;ID_120_ct0_st0 -->
<g id="edge1" class="edge">
<title>_ID_120_ct0_st0&#45;&gt;ID_120_ct0_st0</title>
<path fill="none" stroke="black" d="M119.26,-336.27C131.17,-336.27 143.77,-336.27 155.91,-336.27"/>
<polygon fill="black" stroke="black" points="155.97,-339.77 165.97,-336.27 155.97,-332.77 155.97,-339.77"/>
</g>
<!-- ID_120_ct0_st0&#45;&gt;ID_120_ct0_st0 -->
<g id="edge4" class="edge">
<title>ID_120_ct0_st0&#45;&gt;ID_120_ct0_st0</title>
<path fill="none" stroke="black" d="M207.31,-361.44C206.61,-371.18 211.84,-379.27 223,-379.27 229.97,-379.27 234.63,-376.11 236.97,-371.36"/>
<polygon fill="black" stroke="black" points="240.43,-371.89 238.69,-361.44 233.53,-370.7 240.43,-371.89"/>
<text text-anchor="start" x="211" y="-383.07" font-family="arial" font-size="14.00" fill="#377eb8">true</text>
</g>
<!-- ID_120_ct0_st012 -->
<g id="node4" class="node">
<title>ID_120_ct0_st012</title>
<polygon fill="none" stroke="black" points="485,-228.27 356,-228.27 356,-178.27 485,-178.27 485,-228.27"/>
<text text-anchor="start" x="364" y="-214.07" font-family="arial" font-weight="bold" font-size="14.00">ID_120_ct0_st012</text>
<text text-anchor="start" x="393.5" y="-200.07" font-family="arial" font-size="14.00" fill="#984ea3">(P &amp;&amp; R)</text>
<text text-anchor="start" x="408.5" y="-186.07" font-family="arial" font-size="14.00" fill="#ff7f00">true</text>
</g>
<!-- ID_120_ct0_st0&#45;&gt;ID_120_ct0_st012 -->
<g id="edge5" class="edge">
<title>ID_120_ct0_st0&#45;&gt;ID_120_ct0_st012</title>
<path fill="none" stroke="black" d="M260.77,-311.25C292.89,-289.4 339.64,-257.6 374.08,-234.16"/>
<polygon fill="black" stroke="black" points="376.26,-236.92 382.56,-228.4 372.32,-231.13 376.26,-236.92"/>
<text text-anchor="start" x="308" y="-281.07" font-family="arial" font-size="14.00" fill="#377eb8">true</text>
</g>
<!-- ID_120_ct0_st0123 -->
<g id="node6" class="node">
<title>ID_120_ct0_st0123</title>
<polygon fill="none" stroke="black" points="688,-320.27 551,-320.27 551,-270.27 688,-270.27 688,-320.27"/>
<text text-anchor="start" x="559" y="-306.07" font-family="arial" font-weight="bold" font-size="14.00">ID_120_ct0_st0123</text>
<text text-anchor="start" x="590.5" y="-292.07" font-family="arial" font-size="14.00" fill="#984ea3">(P &amp;&amp; !R)</text>
<text text-anchor="start" x="607.5" y="-278.07" font-family="arial" font-size="14.00" fill="#ff7f00">true</text>
</g>
<!-- ID_120_ct0_st0&#45;&gt;ID_120_ct0_st0123 -->
<g id="edge6" class="edge">
<title>ID_120_ct0_st0&#45;&gt;ID_120_ct0_st0123</title>
<path fill="none" stroke="black" d="M280.26,-336.65C334.47,-336.33 418.69,-334.04 491,-324.27 507.21,-322.08 524.39,-318.82 540.72,-315.28"/>
<polygon fill="black" stroke="black" points="541.76,-318.63 550.76,-313.04 540.23,-311.8 541.76,-318.63"/>
<text text-anchor="start" x="408.5" y="-338.07" font-family="arial" font-size="14.00" fill="#377eb8">true</text>
</g>
<!-- _ID_120_ct0_st012 -->
<!-- _ID_120_ct0_st012&#45;&gt;ID_120_ct0_st012 -->
<g id="edge2" class="edge">
<title>_ID_120_ct0_st012&#45;&gt;ID_120_ct0_st012</title>
<path fill="none" stroke="black" d="M290.19,-203.27C307.96,-203.27 327.28,-203.27 345.45,-203.27"/>
<polygon fill="black" stroke="black" points="345.7,-206.77 355.7,-203.27 345.7,-199.77 345.7,-206.77"/>
</g>
<!-- ID_120_ct0_st012&#45;&gt;ID_120_ct0_st012 -->
<g id="edge13" class="edge">
<title>ID_120_ct0_st012&#45;&gt;ID_120_ct0_st012</title>
<path fill="none" stroke="black" d="M401.82,-228.44C400.99,-238.18 407.22,-246.27 420.5,-246.27 428.8,-246.27 434.35,-243.11 437.13,-238.36"/>
<polygon fill="black" stroke="black" points="440.59,-238.94 439.18,-228.44 433.73,-237.53 440.59,-238.94"/>
<text text-anchor="start" x="408.5" y="-250.07" font-family="arial" font-size="14.00" fill="#377eb8">true</text>
</g>
<!-- ID_120_ct0_st012&#45;&gt;ID_120_ct0_st0123 -->
<g id="edge14" class="edge">
<title>ID_120_ct0_st012&#45;&gt;ID_120_ct0_st0123</title>
<path fill="none" stroke="black" d="M475.07,-228.28C499.93,-239.9 529.65,-253.78 555.58,-265.88"/>
<polygon fill="black" stroke="black" points="554.4,-269.19 564.94,-270.25 557.36,-262.85 554.4,-269.19"/>
<text text-anchor="start" x="509" y="-259.07" font-family="arial" font-size="14.00" fill="#377eb8">true</text>
</g>
<!-- ID_120_ct0_st02 -->
<g id="node7" class="node">
<title>ID_120_ct0_st02</title>
<polygon fill="none" stroke="black" points="1628,-215.27 1506,-215.27 1506,-165.27 1628,-165.27 1628,-215.27"/>
<text text-anchor="start" x="1514" y="-201.07" font-family="arial" font-weight="bold" font-size="14.00">ID_120_ct0_st02</text>
<text text-anchor="start" x="1538" y="-187.07" font-family="arial" font-size="14.00" fill="#984ea3">(!P &amp;&amp; R)</text>
<text text-anchor="start" x="1555" y="-173.07" font-family="arial" font-size="14.00" fill="#ff7f00">true</text>
</g>
<!-- ID_120_ct0_st012&#45;&gt;ID_120_ct0_st02 -->
<g id="edge11" class="edge">
<title>ID_120_ct0_st012&#45;&gt;ID_120_ct0_st02</title>
<path fill="none" stroke="black" d="M436.65,-177.91C465.75,-132.8 534.12,-43.27 618.5,-43.27 618.5,-43.27 618.5,-43.27 1315,-43.27 1404.99,-43.27 1491.31,-114.49 1535.47,-157.78"/>
<polygon fill="black" stroke="black" points="1533.15,-160.41 1542.71,-165 1538.1,-155.46 1533.15,-160.41"/>
<text text-anchor="start" x="970.5" y="-47.07" font-family="arial" font-size="14.00" fill="#377eb8">true</text>
</g>
<!-- ID_120_ct0_st023 -->
<g id="node8" class="node">
<title>ID_120_ct0_st023</title>
<polygon fill="none" stroke="black" points="940,-442.27 811,-442.27 811,-392.27 940,-392.27 940,-442.27"/>
<text text-anchor="start" x="819" y="-428.07" font-family="arial" font-weight="bold" font-size="14.00">ID_120_ct0_st023</text>
<text text-anchor="start" x="845" y="-414.07" font-family="arial" font-size="14.00" fill="#984ea3">(!P &amp;&amp; !R)</text>
<text text-anchor="start" x="863.5" y="-400.07" font-family="arial" font-size="14.00" fill="#ff7f00">true</text>
</g>
<!-- ID_120_ct0_st012&#45;&gt;ID_120_ct0_st023 -->
<g id="edge12" class="edge">
<title>ID_120_ct0_st012&#45;&gt;ID_120_ct0_st023</title>
<path fill="none" stroke="black" d="M450.35,-228.33C463.45,-240.38 478.72,-255.41 491,-270.27 522.1,-307.89 511.52,-333.56 551,-362.27 623.79,-415.2 729.94,-423.75 800.55,-422.53"/>
<polygon fill="black" stroke="black" points="800.79,-426.03 810.7,-422.29 800.62,-419.03 800.79,-426.03"/>
<text text-anchor="start" x="607.5" y="-418.07" font-family="arial" font-size="14.00" fill="#377eb8">true</text>
</g>
<!-- _ID_120_ct0_st0123 -->
<!-- _ID_120_ct0_st0123&#45;&gt;ID_120_ct0_st0123 -->
<g id="edge3" class="edge">
<title>_ID_120_ct0_st0123&#45;&gt;ID_120_ct0_st0123</title>
<path fill="none" stroke="black" d="M491.23,-296.56C507.27,-296.4 524.43,-296.22 540.78,-296.06"/>
<polygon fill="black" stroke="black" points="540.88,-299.56 550.85,-295.95 540.81,-292.56 540.88,-299.56"/>
</g>
<!-- ID_120_ct0_st0123&#45;&gt;ID_120_ct0_st0123 -->
<g id="edge22" class="edge">
<title>ID_120_ct0_st0123&#45;&gt;ID_120_ct0_st0123</title>
<path fill="none" stroke="black" d="M601.2,-320.44C600.38,-330.18 606.48,-338.27 619.5,-338.27 627.63,-338.27 633.07,-335.11 635.8,-330.36"/>
<polygon fill="black" stroke="black" points="639.26,-330.94 637.8,-320.44 632.39,-329.55 639.26,-330.94"/>
<text text-anchor="start" x="607.5" y="-342.07" font-family="arial" font-size="14.00" fill="#377eb8">true</text>
</g>
<!-- ID_120_ct0_st0123&#45;&gt;ID_120_ct0_st023 -->
<g id="edge20" class="edge">
<title>ID_120_ct0_st0123&#45;&gt;ID_120_ct0_st023</title>
<path fill="none" stroke="black" d="M682.22,-320.37C690.16,-323.22 698.23,-325.93 706,-328.27 743.91,-339.65 760.85,-324.18 793,-347.27 805.63,-356.34 800.13,-366.15 811,-377.27 813.97,-380.31 817.22,-383.22 820.62,-385.99"/>
<polygon fill="black" stroke="black" points="818.71,-388.93 828.79,-392.19 822.94,-383.35 818.71,-388.93"/>
<text text-anchor="start" x="737.5" y="-351.07" font-family="arial" font-size="14.00" fill="#377eb8">true</text>
</g>
<!-- ID_120_ct0_st024X -->
<g id="node9" class="node">
<title>ID_120_ct0_st024X</title>
<polygon fill="none" stroke="black" points="1383,-288.27 1245,-288.27 1245,-238.27 1383,-238.27 1383,-288.27"/>
<text text-anchor="start" x="1253" y="-274.07" font-family="arial" font-weight="bold" font-size="14.00">ID_120_ct0_st024X</text>
<text text-anchor="start" x="1285" y="-260.07" font-family="arial" font-size="14.00" fill="#984ea3">(!P &amp;&amp; R)</text>
<text text-anchor="start" x="1291" y="-246.07" font-family="arial" font-size="14.00" fill="#ff7f00">c0 &lt;= 5</text>
</g>
<!-- ID_120_ct0_st0123&#45;&gt;ID_120_ct0_st024X -->
<g id="edge19" class="edge">
<title>ID_120_ct0_st0123&#45;&gt;ID_120_ct0_st024X</title>
<path fill="none" stroke="black" d="M632.42,-269.79C646.13,-243.72 671.31,-204.53 706,-186.27 824.55,-123.87 874.33,-151.65 1007,-170.27 1089.47,-181.84 1180.33,-211.77 1241.45,-234.58"/>
<polygon fill="black" stroke="black" points="1240.41,-237.93 1251,-238.18 1242.87,-231.38 1240.41,-237.93"/>
<text text-anchor="start" x="970.5" y="-189.07" font-family="arial" font-size="14.00" fill="#377eb8">true</text>
<text text-anchor="start" x="963.5" y="-174.07" font-family="arial" font-size="14.00">c0 :=0</text>
</g>
<!-- ID_120_ct0_st0124X -->
<g id="node10" class="node">
<title>ID_120_ct0_st0124X</title>
<polygon fill="none" stroke="black" points="1171,-338.27 1025,-338.27 1025,-288.27 1171,-288.27 1171,-338.27"/>
<text text-anchor="start" x="1033" y="-324.07" font-family="arial" font-weight="bold" font-size="14.00">ID_120_ct0_st0124X</text>
<text text-anchor="start" x="1071" y="-310.07" font-family="arial" font-size="14.00" fill="#984ea3">(P &amp;&amp; R)</text>
<text text-anchor="start" x="1075" y="-296.07" font-family="arial" font-size="14.00" fill="#ff7f00">c0 &lt;= 5</text>
</g>
<!-- ID_120_ct0_st0123&#45;&gt;ID_120_ct0_st0124X -->
<g id="edge21" class="edge">
<title>ID_120_ct0_st0123&#45;&gt;ID_120_ct0_st0124X</title>
<path fill="none" stroke="black" d="M688.26,-296.19C765.47,-297.47 895.39,-300.34 1007,-306.27 1009.53,-306.4 1012.11,-306.55 1014.7,-306.7"/>
<polygon fill="black" stroke="black" points="1014.61,-310.2 1024.81,-307.34 1015.05,-303.22 1014.61,-310.2"/>
<text text-anchor="start" x="863.5" y="-321.07" font-family="arial" font-size="14.00" fill="#377eb8">true</text>
<text text-anchor="start" x="856.5" y="-306.07" font-family="arial" font-size="14.00">c0 :=0</text>
</g>
<!-- ID_120_ct0_st02&#45;&gt;ID_120_ct0_st012 -->
<g id="edge9" class="edge">
<title>ID_120_ct0_st02&#45;&gt;ID_120_ct0_st012</title>
<path fill="none" stroke="black" d="M1561.48,-165.12C1553.52,-128.75 1533.34,-62.24 1488,-29.27 1425.22,16.39 1392.63,-5.27 1315,-5.27 618.5,-5.27 618.5,-5.27 618.5,-5.27 568.68,-5.27 548.35,1.29 509,-29.27 464.04,-64.18 440.37,-128.42 429.44,-168.32"/>
<polygon fill="black" stroke="black" points="426.01,-167.59 426.87,-178.15 432.78,-169.36 426.01,-167.59"/>
<text text-anchor="start" x="970.5" y="-9.07" font-family="arial" font-size="14.00" fill="#377eb8">true</text>
</g>
<!-- ID_120_ct0_st02&#45;&gt;ID_120_ct0_st0123 -->
<g id="edge10" class="edge">
<title>ID_120_ct0_st02&#45;&gt;ID_120_ct0_st0123</title>
<path fill="none" stroke="black" d="M1505.78,-168.26C1455.49,-151.85 1381.53,-132.27 1315,-132.27 874.5,-132.27 874.5,-132.27 874.5,-132.27 799.23,-132.27 769.34,-108.6 706,-149.27 666.18,-174.83 642.62,-226.04 630.62,-260.49"/>
<polygon fill="black" stroke="black" points="627.24,-259.57 627.4,-270.16 633.88,-261.78 627.24,-259.57"/>
<text text-anchor="start" x="1086" y="-136.07" font-family="arial" font-size="14.00" fill="#377eb8">true</text>
</g>
<!-- ID_120_ct0_st02&#45;&gt;ID_120_ct0_st02 -->
<g id="edge7" class="edge">
<title>ID_120_ct0_st02&#45;&gt;ID_120_ct0_st02</title>
<path fill="none" stroke="black" d="M1544.21,-215.44C1543.2,-225.18 1550.8,-233.27 1567,-233.27 1577.13,-233.27 1583.89,-230.11 1587.29,-225.36"/>
<polygon fill="black" stroke="black" points="1590.74,-225.99 1589.79,-215.44 1583.95,-224.29 1590.74,-225.99"/>
<text text-anchor="start" x="1555" y="-237.07" font-family="arial" font-size="14.00" fill="#377eb8">true</text>
</g>
<!-- ID_120_ct0_st02&#45;&gt;ID_120_ct0_st023 -->
<g id="edge8" class="edge">
<title>ID_120_ct0_st02&#45;&gt;ID_120_ct0_st023</title>
<path fill="none" stroke="black" d="M1553.89,-215.62C1540.52,-241.69 1516.98,-282.33 1488,-310.27 1369.76,-424.28 1329.31,-456.46 1171,-500.27 1108.46,-517.57 1088.02,-515.74 1025,-500.27 992.37,-492.26 987.37,-481.57 958,-465.27 947.9,-459.66 937.19,-453.5 926.97,-447.53"/>
<polygon fill="black" stroke="black" points="928.54,-444.39 918.14,-442.34 924.99,-450.43 928.54,-444.39"/>
<text text-anchor="start" x="1196" y="-497.07" font-family="arial" font-size="14.00" fill="#377eb8">true</text>
</g>
<!-- ID_120_ct0_st023&#45;&gt;ID_120_ct0_st0123 -->
<g id="edge18" class="edge">
<title>ID_120_ct0_st023&#45;&gt;ID_120_ct0_st0123</title>
<path fill="none" stroke="black" d="M810.58,-394.82C804.65,-392.88 798.73,-391 793,-389.27 754.73,-377.65 741.55,-384.58 706,-366.27 686.57,-356.26 667.6,-341.21 652.48,-327.54"/>
<polygon fill="black" stroke="black" points="654.66,-324.78 644.95,-320.55 649.9,-329.91 654.66,-324.78"/>
<text text-anchor="start" x="737.5" y="-393.07" font-family="arial" font-size="14.00" fill="#377eb8">true</text>
</g>
<!-- ID_120_ct0_st023&#45;&gt;ID_120_ct0_st023 -->
<g id="edge16" class="edge">
<title>ID_120_ct0_st023&#45;&gt;ID_120_ct0_st023</title>
<path fill="none" stroke="black" d="M855.7,-442.44C854.82,-452.18 861.42,-460.27 875.5,-460.27 884.3,-460.27 890.18,-457.11 893.13,-452.36"/>
<polygon fill="black" stroke="black" points="896.58,-452.96 895.3,-442.44 889.74,-451.47 896.58,-452.96"/>
<text text-anchor="start" x="863.5" y="-464.07" font-family="arial" font-size="14.00" fill="#377eb8">true</text>
</g>
<!-- ID_120_ct0_st023&#45;&gt;ID_120_ct0_st024X -->
<g id="edge15" class="edge">
<title>ID_120_ct0_st023&#45;&gt;ID_120_ct0_st024X</title>
<path fill="none" stroke="black" d="M940.07,-441.17C1018.23,-465.97 1149.98,-492.14 1227,-421.27 1258.62,-392.17 1224.19,-363.87 1245,-326.27 1251.33,-314.82 1260.5,-304.29 1270.06,-295.26"/>
<polygon fill="black" stroke="black" points="1272.66,-297.62 1277.77,-288.34 1267.99,-292.41 1272.66,-297.62"/>
<text text-anchor="start" x="1086" y="-485.07" font-family="arial" font-size="14.00" fill="#377eb8">true</text>
<text text-anchor="start" x="1079" y="-470.07" font-family="arial" font-size="14.00">c0 :=0</text>
</g>
<!-- ID_120_ct0_st023&#45;&gt;ID_120_ct0_st0124X -->
<g id="edge17" class="edge">
<title>ID_120_ct0_st023&#45;&gt;ID_120_ct0_st0124X</title>
<path fill="none" stroke="black" d="M940.1,-394.75C961.66,-386.5 985.67,-376.63 1007,-366.27 1020.78,-359.57 1035.27,-351.52 1048.5,-343.74"/>
<polygon fill="black" stroke="black" points="1050.63,-346.54 1057.43,-338.41 1047.05,-340.53 1050.63,-346.54"/>
<text text-anchor="start" x="970.5" y="-405.07" font-family="arial" font-size="14.00" fill="#377eb8">true</text>
<text text-anchor="start" x="963.5" y="-390.07" font-family="arial" font-size="14.00">c0 :=0</text>
</g>
<!-- ID_120_ct0_st024X&#45;&gt;ID_120_ct0_st012 -->
<g id="edge26" class="edge">
<title>ID_120_ct0_st024X&#45;&gt;ID_120_ct0_st012</title>
<path fill="none" stroke="black" d="M1298.77,-238.25C1276.72,-202.29 1230.55,-137.33 1171,-110.27 935.22,-3.14 617.12,-116.67 484.07,-174.14"/>
<polygon fill="black" stroke="black" points="482.58,-170.97 474.82,-178.18 485.38,-177.39 482.58,-170.97"/>
<text text-anchor="start" x="832" y="-80.07" font-family="arial" font-size="14.00" fill="#377eb8">(c0 &gt;= 5 || !R&#39;)</text>
</g>
<!-- ID_120_ct0_st024X&#45;&gt;ID_120_ct0_st0123 -->
<g id="edge28" class="edge">
<title>ID_120_ct0_st024X&#45;&gt;ID_120_ct0_st0123</title>
<path fill="none" stroke="black" d="M1244.77,-263.92C1226.64,-264.22 1207.07,-264.64 1189,-265.27 1013.65,-271.31 808.12,-283.4 698.58,-290.24"/>
<polygon fill="black" stroke="black" points="698.05,-286.77 688.29,-290.89 698.48,-293.75 698.05,-286.77"/>
<text text-anchor="start" x="958" y="-279.07" font-family="arial" font-size="14.00" fill="#377eb8">(R&#39; || S&#39;)</text>
</g>
<!-- ID_120_ct0_st024X&#45;&gt;ID_120_ct0_st02 -->
<g id="edge23" class="edge">
<title>ID_120_ct0_st024X&#45;&gt;ID_120_ct0_st02</title>
<path fill="none" stroke="black" d="M1383.26,-243.42C1418.29,-233.23 1460.89,-220.84 1496.15,-210.58"/>
<polygon fill="black" stroke="black" points="1497.26,-213.9 1505.88,-207.75 1495.3,-207.18 1497.26,-213.9"/>
<text text-anchor="start" x="1401" y="-242.07" font-family="arial" font-size="14.00" fill="#377eb8">(c0 &gt;= 5 || !R&#39;)</text>
</g>
<!-- ID_120_ct0_st024X&#45;&gt;ID_120_ct0_st023 -->
<g id="edge25" class="edge">
<title>ID_120_ct0_st024X&#45;&gt;ID_120_ct0_st023</title>
<path fill="none" stroke="black" d="M1285.7,-288.31C1251.89,-318.86 1195.74,-367.97 1171,-380.27 1101.72,-414.71 1012.4,-421.48 950.38,-421.19"/>
<polygon fill="black" stroke="black" points="950.33,-417.68 940.29,-421.07 950.25,-424.68 950.33,-417.68"/>
<text text-anchor="start" x="1073.5" y="-421.07" font-family="arial" font-size="14.00" fill="#377eb8">(R&#39; || S&#39;)</text>
</g>
<!-- ID_120_ct0_st024X&#45;&gt;ID_120_ct0_st024X -->
<g id="edge24" class="edge">
<title>ID_120_ct0_st024X&#45;&gt;ID_120_ct0_st024X</title>
<path fill="none" stroke="black" d="M1294.2,-288.44C1293.32,-298.18 1299.92,-306.27 1314,-306.27 1322.8,-306.27 1328.68,-303.11 1331.63,-298.36"/>
<polygon fill="black" stroke="black" points="1335.08,-298.96 1333.8,-288.44 1328.24,-297.47 1335.08,-298.96"/>
<text text-anchor="start" x="1295" y="-310.07" font-family="arial" font-size="14.00" fill="#377eb8">c0 &lt; 5</text>
</g>
<!-- ID_120_ct0_st024X&#45;&gt;ID_120_ct0_st0124X -->
<g id="edge27" class="edge">
<title>ID_120_ct0_st024X&#45;&gt;ID_120_ct0_st0124X</title>
<path fill="none" stroke="black" d="M1252.97,-288.34C1244.35,-291.34 1235.52,-294.1 1227,-296.27 1212.39,-299.99 1196.62,-302.92 1181.3,-305.24"/>
<polygon fill="black" stroke="black" points="1180.73,-301.78 1171.33,-306.67 1181.72,-308.71 1180.73,-301.78"/>
<text text-anchor="start" x="1189" y="-307.07" font-family="arial" font-size="14.00" fill="#377eb8">c0 &lt; 5</text>
</g>
<!-- ID_120_ct0_st0124X&#45;&gt;ID_120_ct0_st012 -->
<g id="edge32" class="edge">
<title>ID_120_ct0_st0124X&#45;&gt;ID_120_ct0_st012</title>
<path fill="none" stroke="black" d="M1054.33,-288.07C1039.76,-280.53 1023.08,-273.02 1007,-268.27 828.65,-215.61 608.29,-204.96 495.56,-203.21"/>
<polygon fill="black" stroke="black" points="495.37,-199.71 485.32,-203.07 495.28,-206.71 495.37,-199.71"/>
<text text-anchor="start" x="706" y="-228.07" font-family="arial" font-size="14.00" fill="#377eb8">(c0 &gt;= 5 || !R&#39;)</text>
</g>
<!-- ID_120_ct0_st0124X&#45;&gt;ID_120_ct0_st0123 -->
<g id="edge34" class="edge">
<title>ID_120_ct0_st0124X&#45;&gt;ID_120_ct0_st0123</title>
<path fill="none" stroke="black" d="M1024.89,-320.63C1003.28,-323.36 979.58,-326.89 958,-331.27 949.86,-332.92 948.23,-335.15 940,-336.27 883.19,-344.01 867.81,-344.01 811,-336.27 802.77,-335.15 801.07,-333.23 793,-331.27 762.15,-323.77 727.97,-316.44 698.22,-310.37"/>
<polygon fill="black" stroke="black" points="698.81,-306.91 688.32,-308.36 697.42,-313.77 698.81,-306.91"/>
<text text-anchor="start" x="851" y="-345.07" font-family="arial" font-size="14.00" fill="#377eb8">(R&#39; || S&#39;)</text>
</g>
<!-- ID_120_ct0_st0124X&#45;&gt;ID_120_ct0_st02 -->
<g id="edge29" class="edge">
<title>ID_120_ct0_st0124X&#45;&gt;ID_120_ct0_st02</title>
<path fill="none" stroke="black" d="M1171.04,-331.52C1229.51,-343.06 1313.36,-352.1 1383,-330.27 1446.17,-310.47 1504.14,-257.76 1537.23,-222.97"/>
<polygon fill="black" stroke="black" points="1540.04,-225.1 1544.31,-215.41 1534.92,-220.32 1540.04,-225.1"/>
<text text-anchor="start" x="1270.5" y="-347.07" font-family="arial" font-size="14.00" fill="#377eb8">(c0 &gt;= 5 || !R&#39;)</text>
</g>
<!-- ID_120_ct0_st0124X&#45;&gt;ID_120_ct0_st023 -->
<g id="edge31" class="edge">
<title>ID_120_ct0_st0124X&#45;&gt;ID_120_ct0_st023</title>
<path fill="none" stroke="black" d="M1024.79,-325.68C996.95,-331.54 969.15,-339.05 958,-347.27 945.48,-356.49 950.87,-366.15 940,-377.27 937.03,-380.31 933.78,-383.22 930.38,-385.99"/>
<polygon fill="black" stroke="black" points="928.06,-383.35 922.21,-392.19 932.29,-388.93 928.06,-383.35"/>
<text text-anchor="start" x="958" y="-351.07" font-family="arial" font-size="14.00" fill="#377eb8">(R&#39; || S&#39;)</text>
</g>
<!-- ID_120_ct0_st0124X&#45;&gt;ID_120_ct0_st024X -->
<g id="edge30" class="edge">
<title>ID_120_ct0_st0124X&#45;&gt;ID_120_ct0_st024X</title>
<path fill="none" stroke="black" d="M1154.88,-288.24C1166.01,-284.02 1177.74,-280.1 1189,-277.27 1203.65,-273.58 1219.52,-270.86 1234.85,-268.86"/>
<polygon fill="black" stroke="black" points="1235.33,-272.33 1244.84,-267.65 1234.49,-265.38 1235.33,-272.33"/>
<text text-anchor="start" x="1189" y="-281.07" font-family="arial" font-size="14.00" fill="#377eb8">c0 &lt; 5</text>
</g>
<!-- ID_120_ct0_st0124X&#45;&gt;ID_120_ct0_st0124X -->
<g id="edge33" class="edge">
<title>ID_120_ct0_st0124X&#45;&gt;ID_120_ct0_st0124X</title>
<path fill="none" stroke="black" d="M1077.46,-338.44C1076.54,-348.18 1083.39,-356.27 1098,-356.27 1107.13,-356.27 1113.23,-353.11 1116.3,-348.36"/>
<polygon fill="black" stroke="black" points="1119.75,-348.97 1118.54,-338.44 1112.92,-347.42 1119.75,-348.97"/>
<text text-anchor="start" x="1079" y="-360.07" font-family="arial" font-size="14.00" fill="#377eb8">c0 &lt; 5</text>
</g>
</g>
</svg>
