<?xml version="1.0" encoding="UTF-8" standalone="no"?>
<!DOCTYPE svg PUBLIC "-//W3C//DTD SVG 1.1//EN"
 "http://www.w3.org/Graphics/SVG/1.1/DTD/svg11.dtd">
<!-- Generated by graphviz version 2.43.0 (0)
 -->
<!-- Title: G Pages: 1 -->
<svg width="2370pt" height="913pt"
 viewBox="0.00 0.00 2370.00 913.00" xmlns="http://www.w3.org/2000/svg" xmlns:xlink="http://www.w3.org/1999/xlink">
<g id="graph0" class="graph" transform="scale(1 1) rotate(0) translate(4 909)">
<title>G</title>
<polygon fill="white" stroke="transparent" points="-4,4 -4,-909 2366,-909 2366,4 -4,4"/>
<!-- _ID_125_ct0_st0 -->
<!-- ID_125_ct0_st0 -->
<g id="node2" class="node">
<title>ID_125_ct0_st0</title>
<polygon fill="none" stroke="black" points="280,-818 166,-818 166,-768 280,-768 280,-818"/>
<text text-anchor="start" x="174" y="-803.8" font-family="arial" font-weight="bold" font-size="14.00">ID_125_ct0_st0</text>
<text text-anchor="start" x="216.5" y="-789.8" font-family="arial" font-size="14.00" fill="#984ea3">!P</text>
<text text-anchor="start" x="211" y="-775.8" font-family="arial" font-size="14.00" fill="#ff7f00">true</text>
</g>
<!-- _ID_125_ct0_st0&#45;&gt;ID_125_ct0_st0 -->
<g id="edge1" class="edge">
<title>_ID_125_ct0_st0&#45;&gt;ID_125_ct0_st0</title>
<path fill="none" stroke="black" d="M119.26,-793C131.17,-793 143.77,-793 155.91,-793"/>
<polygon fill="black" stroke="black" points="155.97,-796.5 165.97,-793 155.97,-789.5 155.97,-796.5"/>
</g>
<!-- ID_125_ct0_st0&#45;&gt;ID_125_ct0_st0 -->
<g id="edge4" class="edge">
<title>ID_125_ct0_st0&#45;&gt;ID_125_ct0_st0</title>
<path fill="none" stroke="black" d="M207.31,-818.18C206.61,-827.91 211.84,-836 223,-836 229.97,-836 234.63,-832.84 236.97,-828.09"/>
<polygon fill="black" stroke="black" points="240.43,-828.63 238.69,-818.18 233.53,-827.43 240.43,-828.63"/>
<text text-anchor="start" x="211" y="-839.8" font-family="arial" font-size="14.00" fill="#377eb8">true</text>
</g>
<!-- ID_125_ct0_st012 -->
<g id="node4" class="node">
<title>ID_125_ct0_st012</title>
<polygon fill="none" stroke="black" points="479,-745 350,-745 350,-695 479,-695 479,-745"/>
<text text-anchor="start" x="358" y="-730.8" font-family="arial" font-weight="bold" font-size="14.00">ID_125_ct0_st012</text>
<text text-anchor="start" x="387.5" y="-716.8" font-family="arial" font-size="14.00" fill="#984ea3">(P &amp;&amp; R)</text>
<text text-anchor="start" x="402.5" y="-702.8" font-family="arial" font-size="14.00" fill="#ff7f00">true</text>
</g>
<!-- ID_125_ct0_st0&#45;&gt;ID_125_ct0_st012 -->
<g id="edge5" class="edge">
<title>ID_125_ct0_st0&#45;&gt;ID_125_ct0_st012</title>
<path fill="none" stroke="black" d="M280.09,-771.39C299.02,-764.1 320.45,-755.85 340.5,-748.12"/>
<polygon fill="black" stroke="black" points="341.84,-751.36 349.91,-744.5 339.32,-744.83 341.84,-751.36"/>
<text text-anchor="start" x="308" y="-761.8" font-family="arial" font-size="14.00" fill="#377eb8">true</text>
</g>
<!-- ID_125_ct0_st0123 -->
<g id="node6" class="node">
<title>ID_125_ct0_st0123</title>
<polygon fill="none" stroke="black" points="877,-620 740,-620 740,-570 877,-570 877,-620"/>
<text text-anchor="start" x="748" y="-605.8" font-family="arial" font-weight="bold" font-size="14.00">ID_125_ct0_st0123</text>
<text text-anchor="start" x="779.5" y="-591.8" font-family="arial" font-size="14.00" fill="#984ea3">(P &amp;&amp; !R)</text>
<text text-anchor="start" x="796.5" y="-577.8" font-family="arial" font-size="14.00" fill="#ff7f00">true</text>
</g>
<!-- ID_125_ct0_st0&#45;&gt;ID_125_ct0_st0123 -->
<g id="edge6" class="edge">
<title>ID_125_ct0_st0&#45;&gt;ID_125_ct0_st0123</title>
<path fill="none" stroke="black" d="M280.2,-803.08C371.97,-816.39 556.18,-829.58 680,-749 719.37,-723.38 709.87,-698.03 740,-662 749.98,-650.06 761.76,-637.83 772.67,-627.14"/>
<polygon fill="black" stroke="black" points="775.29,-629.48 780.04,-620.01 770.42,-624.45 775.29,-629.48"/>
<text text-anchor="start" x="497" y="-811.8" font-family="arial" font-size="14.00" fill="#377eb8">true</text>
</g>
<!-- _ID_125_ct0_st012 -->
<!-- _ID_125_ct0_st012&#45;&gt;ID_125_ct0_st012 -->
<g id="edge2" class="edge">
<title>_ID_125_ct0_st012&#45;&gt;ID_125_ct0_st012</title>
<path fill="none" stroke="black" d="M290.01,-720C306.11,-720 323.43,-720 339.86,-720"/>
<polygon fill="black" stroke="black" points="339.96,-723.5 349.96,-720 339.96,-716.5 339.96,-723.5"/>
</g>
<!-- ID_125_ct0_st012&#45;&gt;ID_125_ct0_st012 -->
<g id="edge13" class="edge">
<title>ID_125_ct0_st012&#45;&gt;ID_125_ct0_st012</title>
<path fill="none" stroke="black" d="M396.94,-745.18C396.16,-754.91 402.02,-763 414.5,-763 422.3,-763 427.51,-759.84 430.14,-755.09"/>
<polygon fill="black" stroke="black" points="433.59,-755.66 432.06,-745.18 426.72,-754.33 433.59,-755.66"/>
<text text-anchor="start" x="402.5" y="-766.8" font-family="arial" font-size="14.00" fill="#377eb8">true</text>
</g>
<!-- ID_125_ct0_st012&#45;&gt;ID_125_ct0_st0123 -->
<g id="edge14" class="edge">
<title>ID_125_ct0_st012&#45;&gt;ID_125_ct0_st0123</title>
<path fill="none" stroke="black" d="M428.54,-694.8C447.59,-661.09 486.54,-602.79 539,-579 598.98,-551.8 674.36,-559.43 729.97,-571.76"/>
<polygon fill="black" stroke="black" points="729.24,-575.18 739.77,-574.03 730.81,-568.36 729.24,-575.18"/>
<text text-anchor="start" x="597.5" y="-582.8" font-family="arial" font-size="14.00" fill="#377eb8">true</text>
</g>
<!-- ID_125_ct0_st02 -->
<g id="node7" class="node">
<title>ID_125_ct0_st02</title>
<polygon fill="none" stroke="black" points="670.5,-707 548.5,-707 548.5,-657 670.5,-657 670.5,-707"/>
<text text-anchor="start" x="556.5" y="-692.8" font-family="arial" font-weight="bold" font-size="14.00">ID_125_ct0_st02</text>
<text text-anchor="start" x="580.5" y="-678.8" font-family="arial" font-size="14.00" fill="#984ea3">(!P &amp;&amp; R)</text>
<text text-anchor="start" x="597.5" y="-664.8" font-family="arial" font-size="14.00" fill="#ff7f00">true</text>
</g>
<!-- ID_125_ct0_st012&#45;&gt;ID_125_ct0_st02 -->
<g id="edge11" class="edge">
<title>ID_125_ct0_st012&#45;&gt;ID_125_ct0_st02</title>
<path fill="none" stroke="black" d="M458.61,-694.99C470.64,-689.24 484,-683.95 497,-681 510.09,-678.03 524.26,-676.74 537.98,-676.44"/>
<polygon fill="black" stroke="black" points="538.37,-679.94 548.35,-676.39 538.34,-672.94 538.37,-679.94"/>
<text text-anchor="start" x="497" y="-684.8" font-family="arial" font-size="14.00" fill="#377eb8">true</text>
</g>
<!-- ID_125_ct0_st023 -->
<g id="node8" class="node">
<title>ID_125_ct0_st023</title>
<polygon fill="none" stroke="black" points="1066,-683 937,-683 937,-633 1066,-633 1066,-683"/>
<text text-anchor="start" x="945" y="-668.8" font-family="arial" font-weight="bold" font-size="14.00">ID_125_ct0_st023</text>
<text text-anchor="start" x="971" y="-654.8" font-family="arial" font-size="14.00" fill="#984ea3">(!P &amp;&amp; !R)</text>
<text text-anchor="start" x="989.5" y="-640.8" font-family="arial" font-size="14.00" fill="#ff7f00">true</text>
</g>
<!-- ID_125_ct0_st012&#45;&gt;ID_125_ct0_st023 -->
<g id="edge12" class="edge">
<title>ID_125_ct0_st012&#45;&gt;ID_125_ct0_st023</title>
<path fill="none" stroke="black" d="M479.1,-737.89C498.2,-742.46 519.31,-746.72 539,-749 601.25,-756.21 617.93,-757.64 680,-749 766.78,-736.92 863.07,-707.28 927.24,-685.08"/>
<polygon fill="black" stroke="black" points="928.57,-688.32 936.86,-681.73 926.27,-681.71 928.57,-688.32"/>
<text text-anchor="start" x="698" y="-748.8" font-family="arial" font-size="14.00" fill="#377eb8">true</text>
</g>
<!-- _ID_125_ct0_st0123 -->
<!-- _ID_125_ct0_st0123&#45;&gt;ID_125_ct0_st0123 -->
<g id="edge3" class="edge">
<title>_ID_125_ct0_st0123&#45;&gt;ID_125_ct0_st0123</title>
<path fill="none" stroke="black" d="M680.23,-611.8C696.27,-609.68 713.43,-607.42 729.78,-605.26"/>
<polygon fill="black" stroke="black" points="730.39,-608.71 739.85,-603.93 729.48,-601.77 730.39,-608.71"/>
</g>
<!-- ID_125_ct0_st0123&#45;&gt;ID_125_ct0_st0123 -->
<g id="edge26" class="edge">
<title>ID_125_ct0_st0123&#45;&gt;ID_125_ct0_st0123</title>
<path fill="none" stroke="black" d="M790.2,-620.18C789.38,-629.91 795.48,-638 808.5,-638 816.63,-638 822.07,-634.84 824.8,-630.09"/>
<polygon fill="black" stroke="black" points="828.26,-630.67 826.8,-620.18 821.39,-629.29 828.26,-630.67"/>
<text text-anchor="start" x="796.5" y="-641.8" font-family="arial" font-size="14.00" fill="#377eb8">true</text>
</g>
<!-- ID_125_ct0_st0123&#45;&gt;ID_125_ct0_st023 -->
<g id="edge23" class="edge">
<title>ID_125_ct0_st0123&#45;&gt;ID_125_ct0_st023</title>
<path fill="none" stroke="black" d="M877.11,-599.2C891.2,-601.3 905.78,-604.41 919,-609 932.05,-613.53 945.28,-620.34 957.17,-627.44"/>
<polygon fill="black" stroke="black" points="955.63,-630.61 965.98,-632.9 959.32,-624.66 955.63,-630.61"/>
<text text-anchor="start" x="895" y="-612.8" font-family="arial" font-size="14.00" fill="#377eb8">true</text>
</g>
<!-- ID_125_ct0_st024 -->
<g id="node9" class="node">
<title>ID_125_ct0_st024</title>
<polygon fill="none" stroke="black" points="2362,-547 2233,-547 2233,-497 2362,-497 2362,-547"/>
<text text-anchor="start" x="2241" y="-532.8" font-family="arial" font-weight="bold" font-size="14.00">ID_125_ct0_st024</text>
<text text-anchor="start" x="2245" y="-518.8" font-family="arial" font-size="14.00" fill="#984ea3">(!P &amp;&amp; (R &amp;&amp; !S))</text>
<text text-anchor="start" x="2285.5" y="-504.8" font-family="arial" font-size="14.00" fill="#ff7f00">true</text>
</g>
<!-- ID_125_ct0_st0123&#45;&gt;ID_125_ct0_st024 -->
<g id="edge21" class="edge">
<title>ID_125_ct0_st0123&#45;&gt;ID_125_ct0_st024</title>
<path fill="none" stroke="black" d="M843.49,-620.1C856.22,-631.41 869.42,-645.86 877,-662 896.07,-702.59 864.01,-830.59 895,-863 956.99,-927.83 1005.3,-890 1095,-890 1095,-890 1095,-890 2105.5,-890 2155.32,-890 2179.47,-900.93 2215,-866 2258.84,-822.9 2283.97,-636.6 2292.83,-557.62"/>
<polygon fill="black" stroke="black" points="2296.36,-557.53 2293.97,-547.21 2289.4,-556.77 2296.36,-557.53"/>
<text text-anchor="start" x="1514" y="-893.8" font-family="arial" font-size="14.00" fill="#377eb8">true</text>
</g>
<!-- ID_125_ct0_st0245 -->
<g id="node10" class="node">
<title>ID_125_ct0_st0245</title>
<polygon fill="none" stroke="black" points="1489,-477 1352,-477 1352,-427 1489,-427 1489,-477"/>
<text text-anchor="start" x="1360" y="-462.8" font-family="arial" font-weight="bold" font-size="14.00">ID_125_ct0_st0245</text>
<text text-anchor="start" x="1370" y="-448.8" font-family="arial" font-size="14.00" fill="#984ea3">(!P &amp;&amp; (R &amp;&amp; S))</text>
<text text-anchor="start" x="1408.5" y="-434.8" font-family="arial" font-size="14.00" fill="#ff7f00">true</text>
</g>
<!-- ID_125_ct0_st0123&#45;&gt;ID_125_ct0_st0245 -->
<g id="edge22" class="edge">
<title>ID_125_ct0_st0123&#45;&gt;ID_125_ct0_st0245</title>
<path fill="none" stroke="black" d="M837.1,-569.76C852.92,-556.71 873.8,-541.72 895,-533 915.46,-524.58 1200.46,-483.2 1341.53,-463.06"/>
<polygon fill="black" stroke="black" points="1342.44,-466.46 1351.85,-461.59 1341.45,-459.53 1342.44,-466.46"/>
<text text-anchor="start" x="1084" y="-504.8" font-family="arial" font-size="14.00" fill="#377eb8">true</text>
</g>
<!-- ID_125_ct0_st0124 -->
<g id="node11" class="node">
<title>ID_125_ct0_st0124</title>
<polygon fill="none" stroke="black" points="2173,-391 2036,-391 2036,-341 2173,-341 2173,-391"/>
<text text-anchor="start" x="2044" y="-376.8" font-family="arial" font-weight="bold" font-size="14.00">ID_125_ct0_st0124</text>
<text text-anchor="start" x="2054" y="-362.8" font-family="arial" font-size="14.00" fill="#984ea3">(P &amp;&amp; (R &amp;&amp; !S))</text>
<text text-anchor="start" x="2092.5" y="-348.8" font-family="arial" font-size="14.00" fill="#ff7f00">true</text>
</g>
<!-- ID_125_ct0_st0123&#45;&gt;ID_125_ct0_st0124 -->
<g id="edge24" class="edge">
<title>ID_125_ct0_st0123&#45;&gt;ID_125_ct0_st0124</title>
<path fill="none" stroke="black" d="M811.08,-569.94C817.27,-477.93 842.15,-159.7 895,-75 925.46,-26.19 942.97,0 1000.5,0 1000.5,0 1000.5,0 1745,0 1848.7,0 1843.57,-87 1936,-134 1970.33,-151.46 1989.86,-135.71 2018,-162 2066.94,-207.73 2088.88,-285.84 2097.89,-330.98"/>
<polygon fill="black" stroke="black" points="2094.47,-331.72 2099.77,-340.9 2101.35,-330.42 2094.47,-331.72"/>
<text text-anchor="start" x="1408.5" y="-3.8" font-family="arial" font-size="14.00" fill="#377eb8">true</text>
</g>
<!-- ID_125_ct0_st01245 -->
<g id="node12" class="node">
<title>ID_125_ct0_st01245</title>
<polygon fill="none" stroke="black" points="1270,-418 1126,-418 1126,-368 1270,-368 1270,-418"/>
<text text-anchor="start" x="1134" y="-403.8" font-family="arial" font-weight="bold" font-size="14.00">ID_125_ct0_st01245</text>
<text text-anchor="start" x="1149.5" y="-389.8" font-family="arial" font-size="14.00" fill="#984ea3">(P &amp;&amp; (R &amp;&amp; S))</text>
<text text-anchor="start" x="1186" y="-375.8" font-family="arial" font-size="14.00" fill="#ff7f00">true</text>
</g>
<!-- ID_125_ct0_st0123&#45;&gt;ID_125_ct0_st01245 -->
<g id="edge25" class="edge">
<title>ID_125_ct0_st0123&#45;&gt;ID_125_ct0_st01245</title>
<path fill="none" stroke="black" d="M821.36,-569.52C835.35,-542.07 861.06,-498.87 895,-473 958.98,-424.23 1050.19,-405.12 1115.61,-397.67"/>
<polygon fill="black" stroke="black" points="1116.31,-401.12 1125.88,-396.57 1115.56,-394.16 1116.31,-401.12"/>
<text text-anchor="start" x="989.5" y="-449.8" font-family="arial" font-size="14.00" fill="#377eb8">true</text>
</g>
<!-- ID_125_ct0_st02&#45;&gt;ID_125_ct0_st012 -->
<g id="edge9" class="edge">
<title>ID_125_ct0_st02&#45;&gt;ID_125_ct0_st012</title>
<path fill="none" stroke="black" d="M548.43,-693.83C529.63,-697.53 508.67,-701.66 489.04,-705.52"/>
<polygon fill="black" stroke="black" points="488.37,-702.09 479.23,-707.45 489.72,-708.95 488.37,-702.09"/>
<text text-anchor="start" x="497" y="-707.8" font-family="arial" font-size="14.00" fill="#377eb8">true</text>
</g>
<!-- ID_125_ct0_st02&#45;&gt;ID_125_ct0_st0123 -->
<g id="edge10" class="edge">
<title>ID_125_ct0_st02&#45;&gt;ID_125_ct0_st0123</title>
<path fill="none" stroke="black" d="M667.22,-656.95C690.4,-646.72 717.37,-634.81 741.43,-624.18"/>
<polygon fill="black" stroke="black" points="743.11,-627.26 750.84,-620.02 740.28,-620.86 743.11,-627.26"/>
<text text-anchor="start" x="698" y="-645.8" font-family="arial" font-size="14.00" fill="#377eb8">true</text>
</g>
<!-- ID_125_ct0_st02&#45;&gt;ID_125_ct0_st02 -->
<g id="edge7" class="edge">
<title>ID_125_ct0_st02&#45;&gt;ID_125_ct0_st02</title>
<path fill="none" stroke="black" d="M590.82,-707.18C589.99,-716.91 596.22,-725 609.5,-725 617.8,-725 623.35,-721.84 626.13,-717.09"/>
<polygon fill="black" stroke="black" points="629.59,-717.68 628.18,-707.18 622.73,-716.26 629.59,-717.68"/>
<text text-anchor="start" x="597.5" y="-728.8" font-family="arial" font-size="14.00" fill="#377eb8">true</text>
</g>
<!-- ID_125_ct0_st02&#45;&gt;ID_125_ct0_st023 -->
<g id="edge8" class="edge">
<title>ID_125_ct0_st02&#45;&gt;ID_125_ct0_st023</title>
<path fill="none" stroke="black" d="M670.58,-678.3C739.46,-674.06 852.37,-667.12 926.58,-662.55"/>
<polygon fill="black" stroke="black" points="927.02,-666.03 936.78,-661.92 926.59,-659.04 927.02,-666.03"/>
<text text-anchor="start" x="796.5" y="-677.8" font-family="arial" font-size="14.00" fill="#377eb8">true</text>
</g>
<!-- ID_125_ct0_st023&#45;&gt;ID_125_ct0_st0123 -->
<g id="edge20" class="edge">
<title>ID_125_ct0_st023&#45;&gt;ID_125_ct0_st0123</title>
<path fill="none" stroke="black" d="M936.89,-640.93C923.01,-636.92 908.45,-632.5 895,-628 890.81,-626.6 886.53,-625.12 882.22,-623.58"/>
<polygon fill="black" stroke="black" points="883.36,-620.27 872.76,-620.16 880.98,-626.85 883.36,-620.27"/>
<text text-anchor="start" x="895" y="-639.8" font-family="arial" font-size="14.00" fill="#377eb8">true</text>
</g>
<!-- ID_125_ct0_st023&#45;&gt;ID_125_ct0_st023 -->
<g id="edge17" class="edge">
<title>ID_125_ct0_st023&#45;&gt;ID_125_ct0_st023</title>
<path fill="none" stroke="black" d="M983.94,-683.18C983.16,-692.91 989.02,-701 1001.5,-701 1009.3,-701 1014.51,-697.84 1017.14,-693.09"/>
<polygon fill="black" stroke="black" points="1020.59,-693.66 1019.06,-683.18 1013.72,-692.33 1020.59,-693.66"/>
<text text-anchor="start" x="989.5" y="-704.8" font-family="arial" font-size="14.00" fill="#377eb8">true</text>
</g>
<!-- ID_125_ct0_st023&#45;&gt;ID_125_ct0_st024 -->
<g id="edge15" class="edge">
<title>ID_125_ct0_st023&#45;&gt;ID_125_ct0_st024</title>
<path fill="none" stroke="black" d="M1014.54,-683.39C1028.03,-709.22 1052.23,-748.68 1084,-772 1126.6,-803.27 1144.15,-809 1197,-809 1197,-809 1197,-809 2105.5,-809 2156.87,-809 2178.87,-808.52 2215,-772 2273.69,-712.67 2290.12,-610.59 2294.72,-557.07"/>
<polygon fill="black" stroke="black" points="2298.21,-557.28 2295.49,-547.04 2291.23,-556.74 2298.21,-557.28"/>
<text text-anchor="start" x="1623" y="-812.8" font-family="arial" font-size="14.00" fill="#377eb8">true</text>
</g>
<!-- ID_125_ct0_st023&#45;&gt;ID_125_ct0_st0245 -->
<g id="edge16" class="edge">
<title>ID_125_ct0_st023&#45;&gt;ID_125_ct0_st0245</title>
<path fill="none" stroke="black" d="M1058.88,-632.92C1125.37,-602.98 1238.89,-550.68 1334,-501 1345.25,-495.12 1357.16,-488.54 1368.4,-482.15"/>
<polygon fill="black" stroke="black" points="1370.3,-485.09 1377.24,-477.09 1366.82,-479.02 1370.3,-485.09"/>
<text text-anchor="start" x="1186" y="-605.8" font-family="arial" font-size="14.00" fill="#377eb8">true</text>
</g>
<!-- ID_125_ct0_st023&#45;&gt;ID_125_ct0_st0124 -->
<g id="edge18" class="edge">
<title>ID_125_ct0_st023&#45;&gt;ID_125_ct0_st0124</title>
<path fill="none" stroke="black" d="M1066.26,-661.18C1240.33,-669.19 1713.94,-686.3 1763,-638 1788.35,-613.04 1757.27,-586.5 1781,-560 1824.04,-511.94 1866.32,-550.63 1918,-512 1928.97,-503.8 1925,-495.15 1936,-487 1966.94,-464.07 1985.75,-480.05 2018,-459 2042.11,-443.27 2063.97,-419.22 2079.55,-399.52"/>
<polygon fill="black" stroke="black" points="2082.49,-401.44 2085.83,-391.38 2076.95,-397.16 2082.49,-401.44"/>
<text text-anchor="start" x="1514" y="-674.8" font-family="arial" font-size="14.00" fill="#377eb8">true</text>
</g>
<!-- ID_125_ct0_st023&#45;&gt;ID_125_ct0_st01245 -->
<g id="edge19" class="edge">
<title>ID_125_ct0_st023&#45;&gt;ID_125_ct0_st01245</title>
<path fill="none" stroke="black" d="M1024.85,-632.94C1046.87,-607.84 1081.04,-567.75 1108,-531 1133.26,-496.57 1159.43,-455.19 1176.8,-426.77"/>
<polygon fill="black" stroke="black" points="1179.91,-428.39 1182.11,-418.03 1173.93,-424.75 1179.91,-428.39"/>
<text text-anchor="start" x="1084" y="-563.8" font-family="arial" font-size="14.00" fill="#377eb8">true</text>
</g>
<!-- ID_125_ct0_st024&#45;&gt;ID_125_ct0_st0123 -->
<g id="edge33" class="edge">
<title>ID_125_ct0_st024&#45;&gt;ID_125_ct0_st0123</title>
<path fill="none" stroke="black" d="M2294.66,-547.11C2289.78,-598.43 2272.62,-717.03 2215,-795 2182.39,-839.12 2160.37,-852 2105.5,-852 1000.5,-852 1000.5,-852 1000.5,-852 899.78,-852 940.54,-740.14 877,-662 867.27,-650.03 855.65,-637.87 844.81,-627.26"/>
<polygon fill="black" stroke="black" points="847.1,-624.6 837.47,-620.18 842.24,-629.64 847.1,-624.6"/>
<text text-anchor="start" x="1518" y="-855.8" font-family="arial" font-size="14.00" fill="#377eb8">!S&#39;</text>
</g>
<!-- ID_125_ct0_st024&#45;&gt;ID_125_ct0_st023 -->
<g id="edge29" class="edge">
<title>ID_125_ct0_st024&#45;&gt;ID_125_ct0_st023</title>
<path fill="none" stroke="black" d="M2289.37,-547.26C2270.47,-608.14 2213.03,-758 2105.5,-758 1197,-758 1197,-758 1197,-758 1136.29,-758 1075.53,-718.98 1038.48,-689.69"/>
<polygon fill="black" stroke="black" points="1040.46,-686.8 1030.49,-683.23 1036.06,-692.24 1040.46,-686.8"/>
<text text-anchor="start" x="1627" y="-761.8" font-family="arial" font-size="14.00" fill="#377eb8">!S&#39;</text>
</g>
<!-- ID_125_ct0_st024&#45;&gt;ID_125_ct0_st024 -->
<g id="edge27" class="edge">
<title>ID_125_ct0_st024&#45;&gt;ID_125_ct0_st024</title>
<path fill="none" stroke="black" d="M2279.94,-547.18C2279.16,-556.91 2285.02,-565 2297.5,-565 2305.3,-565 2310.51,-561.84 2313.14,-557.09"/>
<polygon fill="black" stroke="black" points="2316.59,-557.66 2315.06,-547.18 2309.72,-556.33 2316.59,-557.66"/>
<text text-anchor="start" x="2285.5" y="-568.8" font-family="arial" font-size="14.00" fill="#377eb8">true</text>
</g>
<!-- ID_125_ct0_st024&#45;&gt;ID_125_ct0_st0245 -->
<g id="edge28" class="edge">
<title>ID_125_ct0_st024&#45;&gt;ID_125_ct0_st0245</title>
<path fill="none" stroke="black" d="M2263.45,-547.03C2239.69,-563.38 2206.13,-583.27 2173,-592 2114.12,-607.53 2096.51,-598.81 2036,-592 1839.75,-569.93 1614.77,-509.39 1499.13,-475.59"/>
<polygon fill="black" stroke="black" points="1499.88,-472.17 1489.3,-472.71 1497.91,-478.88 1499.88,-472.17"/>
<text text-anchor="start" x="1837.5" y="-578.8" font-family="arial" font-size="14.00" fill="#377eb8">true</text>
</g>
<!-- ID_125_ct0_st024&#45;&gt;ID_125_ct0_st0124 -->
<g id="edge31" class="edge">
<title>ID_125_ct0_st024&#45;&gt;ID_125_ct0_st0124</title>
<path fill="none" stroke="black" d="M2280.57,-496.62C2265.7,-474.49 2241.83,-442.64 2215,-421 2203.18,-411.47 2189.44,-402.98 2175.77,-395.69"/>
<polygon fill="black" stroke="black" points="2177.31,-392.54 2166.82,-391.07 2174.1,-398.76 2177.31,-392.54"/>
<text text-anchor="start" x="2191" y="-424.8" font-family="arial" font-size="14.00" fill="#377eb8">true</text>
</g>
<!-- ID_125_ct0_st024&#45;&gt;ID_125_ct0_st01245 -->
<g id="edge32" class="edge">
<title>ID_125_ct0_st024&#45;&gt;ID_125_ct0_st01245</title>
<path fill="none" stroke="black" d="M2294.16,-496.8C2286.15,-414.51 2257.96,-154.96 2215,-84 2202.71,-63.69 2195.44,-58.76 2173,-51 2086.77,-21.17 1428.63,-20.47 1352,-70 1250.38,-135.67 1214.8,-288.69 1203.61,-357.9"/>
<polygon fill="black" stroke="black" points="1200.14,-357.45 1202.08,-367.87 1207.06,-358.52 1200.14,-357.45"/>
<text text-anchor="start" x="1732" y="-35.8" font-family="arial" font-size="14.00" fill="#377eb8">true</text>
</g>
<!-- ID_125_ct0_st0235 -->
<g id="node13" class="node">
<title>ID_125_ct0_st0235</title>
<polygon fill="none" stroke="black" points="1918,-470 1781,-470 1781,-420 1918,-420 1918,-470"/>
<text text-anchor="start" x="1789" y="-455.8" font-family="arial" font-weight="bold" font-size="14.00">ID_125_ct0_st0235</text>
<text text-anchor="start" x="1797" y="-441.8" font-family="arial" font-size="14.00" fill="#984ea3">(!P &amp;&amp; (!R &amp;&amp; S))</text>
<text text-anchor="start" x="1826.5" y="-427.8" font-family="arial" font-size="14.00" fill="#ff7f00">c0 &lt;= 5</text>
</g>
<!-- ID_125_ct0_st024&#45;&gt;ID_125_ct0_st0235 -->
<g id="edge30" class="edge">
<title>ID_125_ct0_st024&#45;&gt;ID_125_ct0_st0235</title>
<path fill="none" stroke="black" d="M2232.97,-539.74C2158.54,-557.07 2033.08,-575.36 1936,-534 1909.61,-522.76 1887.44,-498.93 1872.29,-478.76"/>
<polygon fill="black" stroke="black" points="1874.93,-476.44 1866.24,-470.39 1869.26,-480.54 1874.93,-476.44"/>
<text text-anchor="start" x="2092.5" y="-578.8" font-family="arial" font-size="14.00" fill="#377eb8">true</text>
<text text-anchor="start" x="2085.5" y="-563.8" font-family="arial" font-size="14.00">c0 :=0</text>
</g>
<!-- ID_125_ct0_st01235 -->
<g id="node14" class="node">
<title>ID_125_ct0_st01235</title>
<polygon fill="none" stroke="black" points="1707,-217 1563,-217 1563,-167 1707,-167 1707,-217"/>
<text text-anchor="start" x="1571" y="-202.8" font-family="arial" font-weight="bold" font-size="14.00">ID_125_ct0_st01235</text>
<text text-anchor="start" x="1584.5" y="-188.8" font-family="arial" font-size="14.00" fill="#984ea3">(P &amp;&amp; (!R &amp;&amp; S))</text>
<text text-anchor="start" x="1612" y="-174.8" font-family="arial" font-size="14.00" fill="#ff7f00">c0 &lt;= 5</text>
</g>
<!-- ID_125_ct0_st024&#45;&gt;ID_125_ct0_st01235 -->
<g id="edge34" class="edge">
<title>ID_125_ct0_st024&#45;&gt;ID_125_ct0_st01235</title>
<path fill="none" stroke="black" d="M2295.18,-496.74C2290.37,-415.03 2271.06,-159.95 2215,-104 2137.92,-27.08 1821.54,-49.63 1725,-100 1698.51,-113.82 1675.29,-138.51 1659.22,-158.83"/>
<polygon fill="black" stroke="black" points="1656.3,-156.88 1652.99,-166.94 1661.85,-161.14 1656.3,-156.88"/>
<text text-anchor="start" x="1965" y="-74.8" font-family="arial" font-size="14.00" fill="#377eb8">true</text>
<text text-anchor="start" x="1958" y="-59.8" font-family="arial" font-size="14.00">c0 :=0</text>
</g>
<!-- ID_125_ct0_st0245&#45;&gt;ID_125_ct0_st0245 -->
<g id="edge59" class="edge">
<title>ID_125_ct0_st0245&#45;&gt;ID_125_ct0_st0245</title>
<path fill="none" stroke="black" d="M1401.08,-477.18C1400.21,-486.91 1406.69,-495 1420.5,-495 1429.13,-495 1434.9,-491.84 1437.8,-487.09"/>
<polygon fill="black" stroke="black" points="1441.25,-487.69 1439.92,-477.18 1434.41,-486.22 1441.25,-487.69"/>
<text text-anchor="start" x="1408.5" y="-498.8" font-family="arial" font-size="14.00" fill="#377eb8">true</text>
</g>
<!-- ID_125_ct0_st0245&#45;&gt;ID_125_ct0_st01245 -->
<g id="edge61" class="edge">
<title>ID_125_ct0_st0245&#45;&gt;ID_125_ct0_st01245</title>
<path fill="none" stroke="black" d="M1351.77,-447.33C1331.03,-444.82 1308.33,-440.95 1288,-435 1276.84,-431.73 1265.32,-427.23 1254.43,-422.39"/>
<polygon fill="black" stroke="black" points="1255.58,-419.07 1245.04,-418.07 1252.66,-425.43 1255.58,-419.07"/>
<text text-anchor="start" x="1299" y="-448.8" font-family="arial" font-size="14.00" fill="#377eb8">true</text>
</g>
<!-- ID_125_ct0_st0245&#45;&gt;ID_125_ct0_st0235 -->
<g id="edge60" class="edge">
<title>ID_125_ct0_st0245&#45;&gt;ID_125_ct0_st0235</title>
<path fill="none" stroke="black" d="M1489.16,-441.07C1507.49,-437.36 1527.18,-432.69 1545,-427 1553.34,-424.34 1554.44,-420.82 1563,-419 1625.61,-405.71 1643.26,-413.19 1707,-419 1727.84,-420.9 1750.2,-424.34 1770.85,-428.11"/>
<polygon fill="black" stroke="black" points="1770.36,-431.58 1780.83,-429.98 1771.65,-424.7 1770.36,-431.58"/>
<text text-anchor="start" x="1623" y="-437.8" font-family="arial" font-size="14.00" fill="#377eb8">true</text>
<text text-anchor="start" x="1616" y="-422.8" font-family="arial" font-size="14.00">c0 :=0</text>
</g>
<!-- ID_125_ct0_st0245&#45;&gt;ID_125_ct0_st01235 -->
<g id="edge62" class="edge">
<title>ID_125_ct0_st0245&#45;&gt;ID_125_ct0_st01235</title>
<path fill="none" stroke="black" d="M1431.13,-426.77C1444.65,-393.51 1471.61,-334.25 1507,-292 1529.42,-265.23 1560.05,-240.86 1585.61,-222.88"/>
<polygon fill="black" stroke="black" points="1587.84,-225.6 1594.07,-217.03 1583.85,-219.84 1587.84,-225.6"/>
<text text-anchor="start" x="1514" y="-310.8" font-family="arial" font-size="14.00" fill="#377eb8">true</text>
<text text-anchor="start" x="1507" y="-295.8" font-family="arial" font-size="14.00">c0 :=0</text>
</g>
<!-- ID_125_ct0_st0124&#45;&gt;ID_125_ct0_st0123 -->
<g id="edge41" class="edge">
<title>ID_125_ct0_st0124&#45;&gt;ID_125_ct0_st0123</title>
<path fill="none" stroke="black" d="M2091.59,-340.77C2071.01,-297.6 2029.86,-213.3 2018,-204 1981.95,-175.73 1962.88,-188.2 1918,-179 1490.46,-91.34 1294.67,115.1 937,-135 865.9,-184.72 825.82,-460.8 813.57,-559.72"/>
<polygon fill="black" stroke="black" points="810.08,-559.46 812.35,-569.81 817.03,-560.31 810.08,-559.46"/>
<text text-anchor="start" x="1412.5" y="-56.8" font-family="arial" font-size="14.00" fill="#377eb8">!S&#39;</text>
</g>
<!-- ID_125_ct0_st0124&#45;&gt;ID_125_ct0_st023 -->
<g id="edge37" class="edge">
<title>ID_125_ct0_st0124&#45;&gt;ID_125_ct0_st023</title>
<path fill="none" stroke="black" d="M2086.59,-391C2069.87,-415.3 2043.21,-452.98 2018,-484 1976.33,-535.27 1971.86,-555.73 1918,-594 1856.96,-637.37 1833.37,-634.42 1763,-660 1496.78,-756.77 1408.77,-697.78 1126,-681 1107.28,-679.89 1102.51,-680.02 1084,-677 1081.49,-676.59 1078.94,-676.15 1076.38,-675.68"/>
<polygon fill="black" stroke="black" points="1076.89,-672.21 1066.4,-673.75 1075.56,-679.08 1076.89,-672.21"/>
<text text-anchor="start" x="1518" y="-716.8" font-family="arial" font-size="14.00" fill="#377eb8">!S&#39;</text>
</g>
<!-- ID_125_ct0_st0124&#45;&gt;ID_125_ct0_st024 -->
<g id="edge35" class="edge">
<title>ID_125_ct0_st0124&#45;&gt;ID_125_ct0_st024</title>
<path fill="none" stroke="black" d="M2136.36,-391.29C2152.61,-404.6 2172.87,-421.19 2191,-436 2213.04,-454 2237.68,-474.09 2257.61,-490.33"/>
<polygon fill="black" stroke="black" points="2255.59,-493.2 2265.56,-496.8 2260.01,-487.78 2255.59,-493.2"/>
<text text-anchor="start" x="2191" y="-458.8" font-family="arial" font-size="14.00" fill="#377eb8">true</text>
</g>
<!-- ID_125_ct0_st0124&#45;&gt;ID_125_ct0_st0245 -->
<g id="edge36" class="edge">
<title>ID_125_ct0_st0124&#45;&gt;ID_125_ct0_st0245</title>
<path fill="none" stroke="black" d="M2035.91,-356.84C1922.87,-344.15 1689.86,-329.28 1507,-392 1489.08,-398.15 1471.54,-409.27 1457.06,-420.29"/>
<polygon fill="black" stroke="black" points="1454.59,-417.78 1448.91,-426.72 1458.93,-423.27 1454.59,-417.78"/>
<text text-anchor="start" x="1732" y="-353.8" font-family="arial" font-size="14.00" fill="#377eb8">true</text>
</g>
<!-- ID_125_ct0_st0124&#45;&gt;ID_125_ct0_st0124 -->
<g id="edge39" class="edge">
<title>ID_125_ct0_st0124&#45;&gt;ID_125_ct0_st0124</title>
<path fill="none" stroke="black" d="M2086.2,-391.18C2085.38,-400.91 2091.48,-409 2104.5,-409 2112.63,-409 2118.07,-405.84 2120.8,-401.09"/>
<polygon fill="black" stroke="black" points="2124.26,-401.67 2122.8,-391.18 2117.39,-400.29 2124.26,-401.67"/>
<text text-anchor="start" x="2092.5" y="-412.8" font-family="arial" font-size="14.00" fill="#377eb8">true</text>
</g>
<!-- ID_125_ct0_st0124&#45;&gt;ID_125_ct0_st01245 -->
<g id="edge40" class="edge">
<title>ID_125_ct0_st0124&#45;&gt;ID_125_ct0_st01245</title>
<path fill="none" stroke="black" d="M2035.92,-348.96C2029.87,-347.57 2023.83,-346.23 2018,-345 1961.94,-333.18 1554.83,-244.46 1507,-276 1490.05,-287.18 1504.41,-304.77 1489,-318 1457.86,-344.73 1354.9,-367.01 1280.5,-380.17"/>
<polygon fill="black" stroke="black" points="1279.45,-376.79 1270.2,-381.96 1280.65,-383.69 1279.45,-376.79"/>
<text text-anchor="start" x="1623" y="-289.8" font-family="arial" font-size="14.00" fill="#377eb8">true</text>
</g>
<!-- ID_125_ct0_st0124&#45;&gt;ID_125_ct0_st0235 -->
<g id="edge38" class="edge">
<title>ID_125_ct0_st0124&#45;&gt;ID_125_ct0_st0235</title>
<path fill="none" stroke="black" d="M2035.88,-369.68C2004.72,-372.98 1967.7,-379.22 1936,-391 1920.74,-396.67 1905.33,-405.31 1891.87,-414.03"/>
<polygon fill="black" stroke="black" points="1889.69,-411.28 1883.32,-419.74 1893.58,-417.1 1889.69,-411.28"/>
<text text-anchor="start" x="1965" y="-409.8" font-family="arial" font-size="14.00" fill="#377eb8">true</text>
<text text-anchor="start" x="1958" y="-394.8" font-family="arial" font-size="14.00">c0 :=0</text>
</g>
<!-- ID_125_ct0_st0124&#45;&gt;ID_125_ct0_st01235 -->
<g id="edge42" class="edge">
<title>ID_125_ct0_st0124&#45;&gt;ID_125_ct0_st01235</title>
<path fill="none" stroke="black" d="M2090.71,-340.96C2076.26,-314.94 2050.48,-274.66 2018,-250 1931.33,-184.19 1801.09,-178.5 1717.32,-183.16"/>
<polygon fill="black" stroke="black" points="1716.85,-179.68 1707.09,-183.79 1717.28,-186.67 1716.85,-179.68"/>
<text text-anchor="start" x="1837.5" y="-219.8" font-family="arial" font-size="14.00" fill="#377eb8">true</text>
<text text-anchor="start" x="1830.5" y="-204.8" font-family="arial" font-size="14.00">c0 :=0</text>
</g>
<!-- ID_125_ct0_st01245&#45;&gt;ID_125_ct0_st0245 -->
<g id="edge63" class="edge">
<title>ID_125_ct0_st01245&#45;&gt;ID_125_ct0_st0245</title>
<path fill="none" stroke="black" d="M1270.11,-401.98C1290.93,-405.44 1313.57,-410.05 1334,-416 1341.02,-418.05 1348.23,-420.5 1355.35,-423.15"/>
<polygon fill="black" stroke="black" points="1354.39,-426.53 1364.98,-426.86 1356.91,-420 1354.39,-426.53"/>
<text text-anchor="start" x="1299" y="-419.8" font-family="arial" font-size="14.00" fill="#377eb8">true</text>
</g>
<!-- ID_125_ct0_st01245&#45;&gt;ID_125_ct0_st01245 -->
<g id="edge65" class="edge">
<title>ID_125_ct0_st01245&#45;&gt;ID_125_ct0_st01245</title>
<path fill="none" stroke="black" d="M1178.95,-418.18C1178.1,-427.91 1184.45,-436 1198,-436 1206.47,-436 1212.12,-432.84 1214.97,-428.09"/>
<polygon fill="black" stroke="black" points="1218.42,-428.68 1217.05,-418.18 1211.57,-427.24 1218.42,-428.68"/>
<text text-anchor="start" x="1186" y="-439.8" font-family="arial" font-size="14.00" fill="#377eb8">true</text>
</g>
<!-- ID_125_ct0_st01245&#45;&gt;ID_125_ct0_st0235 -->
<g id="edge64" class="edge">
<title>ID_125_ct0_st01245&#45;&gt;ID_125_ct0_st0235</title>
<path fill="none" stroke="black" d="M1220.35,-418.17C1247.49,-448.18 1297.42,-497.01 1352,-519 1500.05,-578.66 1690.39,-515.08 1786.73,-474.06"/>
<polygon fill="black" stroke="black" points="1788.24,-477.22 1796.04,-470.04 1785.47,-470.79 1788.24,-477.22"/>
<text text-anchor="start" x="1514" y="-561.8" font-family="arial" font-size="14.00" fill="#377eb8">true</text>
<text text-anchor="start" x="1507" y="-546.8" font-family="arial" font-size="14.00">c0 :=0</text>
</g>
<!-- ID_125_ct0_st01245&#45;&gt;ID_125_ct0_st01235 -->
<g id="edge66" class="edge">
<title>ID_125_ct0_st01245&#45;&gt;ID_125_ct0_st01235</title>
<path fill="none" stroke="black" d="M1225.22,-367.73C1242.23,-352.16 1265.36,-332.49 1288,-318 1367.2,-267.32 1399.89,-281.99 1489,-252 1515.67,-243.02 1544.43,-231.52 1569.25,-220.99"/>
<polygon fill="black" stroke="black" points="1570.73,-224.16 1578.55,-217.01 1567.98,-217.73 1570.73,-224.16"/>
<text text-anchor="start" x="1408.5" y="-304.8" font-family="arial" font-size="14.00" fill="#377eb8">true</text>
<text text-anchor="start" x="1401.5" y="-289.8" font-family="arial" font-size="14.00">c0 :=0</text>
</g>
<!-- ID_125_ct0_st0235&#45;&gt;ID_125_ct0_st0123 -->
<g id="edge49" class="edge">
<title>ID_125_ct0_st0235&#45;&gt;ID_125_ct0_st0123</title>
<path fill="none" stroke="black" d="M1815.47,-470.06C1799.88,-481.5 1780.81,-494.94 1763,-506 1676.44,-559.76 1646.12,-564.4 1545,-577 1528.24,-579.09 1523.88,-577.57 1507,-577 1318.97,-570.66 1271.78,-549.42 1084,-561 1017.33,-565.11 942.08,-574.79 887.24,-582.78"/>
<polygon fill="black" stroke="black" points="886.63,-579.33 877.25,-584.25 887.65,-586.26 886.63,-579.33"/>
<text text-anchor="start" x="1288" y="-569.8" font-family="arial" font-size="14.00" fill="#377eb8">c0 &gt;= 5</text>
</g>
<!-- ID_125_ct0_st0235&#45;&gt;ID_125_ct0_st023 -->
<g id="edge45" class="edge">
<title>ID_125_ct0_st0235&#45;&gt;ID_125_ct0_st023</title>
<path fill="none" stroke="black" d="M1824.24,-470.03C1809.64,-486.42 1791.84,-509 1781,-532 1765.46,-564.96 1789.21,-586.68 1763,-612 1721.69,-651.91 1693.44,-636 1636,-636 1197,-636 1197,-636 1197,-636 1156.93,-636 1112.51,-640.67 1076.25,-645.7"/>
<polygon fill="black" stroke="black" points="1075.65,-642.25 1066.24,-647.13 1076.64,-649.18 1075.65,-642.25"/>
<text text-anchor="start" x="1397.5" y="-639.8" font-family="arial" font-size="14.00" fill="#377eb8">c0 &gt;= 5</text>
</g>
<!-- ID_125_ct0_st0235&#45;&gt;ID_125_ct0_st024 -->
<g id="edge43" class="edge">
<title>ID_125_ct0_st0235&#45;&gt;ID_125_ct0_st024</title>
<path fill="none" stroke="black" d="M1918.24,-456.69C2000.31,-470.86 2138.09,-494.65 2222.77,-509.27"/>
<polygon fill="black" stroke="black" points="2222.38,-512.76 2232.83,-511.01 2223.57,-505.86 2222.38,-512.76"/>
<text text-anchor="start" x="2063.5" y="-503.8" font-family="arial" font-size="14.00" fill="#377eb8">(S&#39; || c0 &gt;= 5)</text>
</g>
<!-- ID_125_ct0_st0235&#45;&gt;ID_125_ct0_st0245 -->
<g id="edge44" class="edge">
<title>ID_125_ct0_st0235&#45;&gt;ID_125_ct0_st0245</title>
<path fill="none" stroke="black" d="M1780.8,-448.85C1711.91,-452.33 1602.04,-456.67 1507,-455 1504.47,-454.96 1501.89,-454.9 1499.29,-454.85"/>
<polygon fill="black" stroke="black" points="1499.25,-451.34 1489.17,-454.59 1499.08,-458.34 1499.25,-451.34"/>
<text text-anchor="start" x="1623" y="-459.8" font-family="arial" font-size="14.00" fill="#377eb8">true</text>
</g>
<!-- ID_125_ct0_st0235&#45;&gt;ID_125_ct0_st0124 -->
<g id="edge47" class="edge">
<title>ID_125_ct0_st0235&#45;&gt;ID_125_ct0_st0124</title>
<path fill="none" stroke="black" d="M1918.16,-441.92C1949.33,-438.85 1986.35,-432.81 2018,-421 2033.6,-415.18 2049.31,-406.18 2062.94,-397.14"/>
<polygon fill="black" stroke="black" points="2065.3,-399.76 2071.57,-391.22 2061.34,-393.99 2065.3,-399.76"/>
<text text-anchor="start" x="1936" y="-443.8" font-family="arial" font-size="14.00" fill="#377eb8">(S&#39; || c0 &gt;= 5)</text>
</g>
<!-- ID_125_ct0_st0235&#45;&gt;ID_125_ct0_st01245 -->
<g id="edge48" class="edge">
<title>ID_125_ct0_st0235&#45;&gt;ID_125_ct0_st01245</title>
<path fill="none" stroke="black" d="M1780.59,-422.68C1774.67,-421 1768.74,-419.41 1763,-418 1738.45,-411.96 1732.15,-410.6 1707,-408 1557.03,-392.48 1380.92,-391 1280.4,-391.73"/>
<polygon fill="black" stroke="black" points="1280.28,-388.23 1270.31,-391.81 1280.34,-395.23 1280.28,-388.23"/>
<text text-anchor="start" x="1514" y="-400.8" font-family="arial" font-size="14.00" fill="#377eb8">true</text>
</g>
<!-- ID_125_ct0_st0235&#45;&gt;ID_125_ct0_st0235 -->
<g id="edge46" class="edge">
<title>ID_125_ct0_st0235&#45;&gt;ID_125_ct0_st0235</title>
<path fill="none" stroke="black" d="M1830.08,-470.18C1829.21,-479.91 1835.69,-488 1849.5,-488 1858.13,-488 1863.9,-484.84 1866.8,-480.09"/>
<polygon fill="black" stroke="black" points="1870.25,-480.69 1868.92,-470.18 1863.41,-479.22 1870.25,-480.69"/>
<text text-anchor="start" x="1830.5" y="-491.8" font-family="arial" font-size="14.00" fill="#377eb8">c0 &lt; 5</text>
</g>
<!-- ID_125_ct0_st0235&#45;&gt;ID_125_ct0_st01235 -->
<g id="edge50" class="edge">
<title>ID_125_ct0_st0235&#45;&gt;ID_125_ct0_st01235</title>
<path fill="none" stroke="black" d="M1839.63,-419.89C1826.71,-385.85 1800.13,-324.45 1763,-282 1742.56,-258.63 1714.89,-238.11 1690.59,-222.59"/>
<polygon fill="black" stroke="black" points="1692.14,-219.43 1681.81,-217.1 1688.43,-225.37 1692.14,-219.43"/>
<text text-anchor="start" x="1725" y="-285.8" font-family="arial" font-size="14.00" fill="#377eb8">c0 &lt; 5</text>
</g>
<!-- ID_125_ct0_st01235&#45;&gt;ID_125_ct0_st0123 -->
<g id="edge57" class="edge">
<title>ID_125_ct0_st01235&#45;&gt;ID_125_ct0_st0123</title>
<path fill="none" stroke="black" d="M1568.53,-166.9C1527.03,-153.2 1471.88,-139 1421.5,-139 1000.5,-139 1000.5,-139 1000.5,-139 909.34,-139 837.95,-452.98 816.29,-559.86"/>
<polygon fill="black" stroke="black" points="812.83,-559.34 814.3,-569.83 819.69,-560.72 812.83,-559.34"/>
<text text-anchor="start" x="1175" y="-142.8" font-family="arial" font-size="14.00" fill="#377eb8">c0 &gt;= 5</text>
</g>
<!-- ID_125_ct0_st01235&#45;&gt;ID_125_ct0_st023 -->
<g id="edge53" class="edge">
<title>ID_125_ct0_st01235&#45;&gt;ID_125_ct0_st023</title>
<path fill="none" stroke="black" d="M1562.96,-182.5C1489.72,-176.1 1374.37,-175.75 1288,-221 1204.22,-264.89 1170.91,-275.76 1126,-359 1095.37,-415.76 1134.09,-444.02 1108,-503 1101.37,-517.99 1093.78,-517.85 1084,-531 1061.34,-561.46 1038.22,-598.13 1022.42,-624.22"/>
<polygon fill="black" stroke="black" points="1019.31,-622.61 1017.15,-632.98 1025.3,-626.22 1019.31,-622.61"/>
<text text-anchor="start" x="1288" y="-224.8" font-family="arial" font-size="14.00" fill="#377eb8">c0 &gt;= 5</text>
</g>
<!-- ID_125_ct0_st01235&#45;&gt;ID_125_ct0_st024 -->
<g id="edge51" class="edge">
<title>ID_125_ct0_st01235&#45;&gt;ID_125_ct0_st024</title>
<path fill="none" stroke="black" d="M1691.46,-166.95C1768.54,-136.04 1910.69,-93.39 2018,-144 2166.48,-214.02 2253.7,-407.8 2284.16,-487.29"/>
<polygon fill="black" stroke="black" points="2280.95,-488.72 2287.75,-496.84 2287.5,-486.25 2280.95,-488.72"/>
<text text-anchor="start" x="1936" y="-147.8" font-family="arial" font-size="14.00" fill="#377eb8">(S&#39; || c0 &gt;= 5)</text>
</g>
<!-- ID_125_ct0_st01235&#45;&gt;ID_125_ct0_st0245 -->
<g id="edge52" class="edge">
<title>ID_125_ct0_st01235&#45;&gt;ID_125_ct0_st0245</title>
<path fill="none" stroke="black" d="M1602.77,-217.29C1588.85,-230 1573.3,-246.43 1563,-264 1548.48,-288.75 1562.47,-303.24 1545,-326 1532.98,-341.66 1521.96,-336.11 1507,-349 1483.22,-369.49 1460.73,-397.03 1444.79,-418.48"/>
<polygon fill="black" stroke="black" points="1441.88,-416.53 1438.8,-426.67 1447.53,-420.66 1441.88,-416.53"/>
<text text-anchor="start" x="1514" y="-352.8" font-family="arial" font-size="14.00" fill="#377eb8">true</text>
</g>
<!-- ID_125_ct0_st01235&#45;&gt;ID_125_ct0_st0124 -->
<g id="edge55" class="edge">
<title>ID_125_ct0_st01235&#45;&gt;ID_125_ct0_st0124</title>
<path fill="none" stroke="black" d="M1707.34,-213.9C1730.74,-220.89 1756.92,-228.49 1781,-235 1885.68,-263.31 1921.48,-243.56 2018,-293 2038.12,-303.3 2057.53,-319.23 2072.76,-333.57"/>
<polygon fill="black" stroke="black" points="2070.71,-336.45 2080.33,-340.89 2075.57,-331.42 2070.71,-336.45"/>
<text text-anchor="start" x="1808.5" y="-262.8" font-family="arial" font-size="14.00" fill="#377eb8">(S&#39; || c0 &gt;= 5)</text>
</g>
<!-- ID_125_ct0_st01235&#45;&gt;ID_125_ct0_st01245 -->
<g id="edge56" class="edge">
<title>ID_125_ct0_st01235&#45;&gt;ID_125_ct0_st01245</title>
<path fill="none" stroke="black" d="M1562.78,-198.41C1474.32,-207.64 1329.92,-227.27 1288,-260 1278.8,-267.18 1243.34,-322.24 1220.05,-359.22"/>
<polygon fill="black" stroke="black" points="1217.06,-357.41 1214.7,-367.74 1222.98,-361.13 1217.06,-357.41"/>
<text text-anchor="start" x="1408.5" y="-237.8" font-family="arial" font-size="14.00" fill="#377eb8">true</text>
</g>
<!-- ID_125_ct0_st01235&#45;&gt;ID_125_ct0_st0235 -->
<g id="edge54" class="edge">
<title>ID_125_ct0_st01235&#45;&gt;ID_125_ct0_st0235</title>
<path fill="none" stroke="black" d="M1664.19,-217.05C1678.05,-230.21 1694.44,-247.09 1707,-264 1716.96,-277.41 1713.46,-284.92 1725,-297 1738.64,-311.27 1748.66,-306.43 1763,-320 1791.02,-346.51 1815.01,-383.68 1830.38,-410.6"/>
<polygon fill="black" stroke="black" points="1827.51,-412.64 1835.45,-419.65 1833.62,-409.22 1827.51,-412.64"/>
<text text-anchor="start" x="1725" y="-323.8" font-family="arial" font-size="14.00" fill="#377eb8">c0 &lt; 5</text>
</g>
<!-- ID_125_ct0_st01235&#45;&gt;ID_125_ct0_st01235 -->
<g id="edge58" class="edge">
<title>ID_125_ct0_st01235&#45;&gt;ID_125_ct0_st01235</title>
<path fill="none" stroke="black" d="M1614.83,-217.18C1613.93,-226.91 1620.66,-235 1635,-235 1643.96,-235 1649.95,-231.84 1652.96,-227.09"/>
<polygon fill="black" stroke="black" points="1656.42,-227.7 1655.17,-217.18 1649.58,-226.18 1656.42,-227.7"/>
<text text-anchor="start" x="1616" y="-238.8" font-family="arial" font-size="14.00" fill="#377eb8">c0 &lt; 5</text>
</g>
</g>
</svg>
