<?xml version="1.0" encoding="UTF-8" standalone="no"?>
<!DOCTYPE svg PUBLIC "-//W3C//DTD SVG 1.1//EN"
 "http://www.w3.org/Graphics/SVG/1.1/DTD/svg11.dtd">
<!-- Generated by graphviz version 2.43.0 (0)
 -->
<!-- Title: G Pages: 1 -->
<svg width="1059pt" height="174pt"
 viewBox="0.00 0.00 1059.00 173.84" xmlns="http://www.w3.org/2000/svg" xmlns:xlink="http://www.w3.org/1999/xlink">
<g id="graph0" class="graph" transform="scale(1 1) rotate(0) translate(4 169.84)">
<title>G</title>
<polygon fill="white" stroke="transparent" points="-4,4 -4,-169.84 1055,-169.84 1055,4 -4,4"/>
<!-- _ID_99_ct0_st0 -->
<!-- ID_99_ct0_st0 -->
<g id="node2" class="node">
<title>ID_99_ct0_st0</title>
<polygon fill="none" stroke="black" points="261,-114.84 154,-114.84 154,-64.84 261,-64.84 261,-114.84"/>
<text text-anchor="start" x="162" y="-100.64" font-family="arial" font-weight="bold" font-size="14.00">ID_99_ct0_st0</text>
<text text-anchor="start" x="202.5" y="-86.64" font-family="arial" font-size="14.00" fill="#984ea3">R</text>
<text text-anchor="start" x="195.5" y="-72.64" font-family="arial" font-size="14.00" fill="#ff7f00">true</text>
</g>
<!-- _ID_99_ct0_st0&#45;&gt;ID_99_ct0_st0 -->
<g id="edge1" class="edge">
<title>_ID_99_ct0_st0&#45;&gt;ID_99_ct0_st0</title>
<path fill="none" stroke="black" d="M111.08,-89.84C121.62,-89.84 132.74,-89.84 143.52,-89.84"/>
<polygon fill="black" stroke="black" points="143.72,-93.34 153.72,-89.84 143.72,-86.34 143.72,-93.34"/>
</g>
<!-- ID_99_ct0_st0&#45;&gt;ID_99_ct0_st0 -->
<g id="edge3" class="edge">
<title>ID_99_ct0_st0&#45;&gt;ID_99_ct0_st0</title>
<path fill="none" stroke="black" d="M192.93,-115.01C192.28,-124.75 197.14,-132.84 207.5,-132.84 213.97,-132.84 218.3,-129.68 220.47,-124.93"/>
<polygon fill="black" stroke="black" points="223.94,-125.44 222.07,-115.01 217.03,-124.33 223.94,-125.44"/>
<text text-anchor="start" x="195.5" y="-136.64" font-family="arial" font-size="14.00" fill="#377eb8">true</text>
</g>
<!-- ID_99_ct0_st01 -->
<g id="node4" class="node">
<title>ID_99_ct0_st01</title>
<polygon fill="none" stroke="black" points="441,-69.84 327,-69.84 327,-19.84 441,-19.84 441,-69.84"/>
<text text-anchor="start" x="335" y="-55.64" font-family="arial" font-weight="bold" font-size="14.00">ID_99_ct0_st01</text>
<text text-anchor="start" x="377" y="-41.64" font-family="arial" font-size="14.00" fill="#984ea3">!R</text>
<text text-anchor="start" x="372" y="-27.64" font-family="arial" font-size="14.00" fill="#ff7f00">true</text>
</g>
<!-- ID_99_ct0_st0&#45;&gt;ID_99_ct0_st01 -->
<g id="edge4" class="edge">
<title>ID_99_ct0_st0&#45;&gt;ID_99_ct0_st01</title>
<path fill="none" stroke="black" d="M261.33,-76.21C278.85,-71.69 298.57,-66.61 316.95,-61.87"/>
<polygon fill="black" stroke="black" points="317.9,-65.24 326.71,-59.35 316.15,-58.46 317.9,-65.24"/>
<text text-anchor="start" x="285" y="-74.64" font-family="arial" font-size="14.00" fill="#377eb8">true</text>
</g>
<!-- _ID_99_ct0_st01 -->
<!-- _ID_99_ct0_st01&#45;&gt;ID_99_ct0_st01 -->
<g id="edge2" class="edge">
<title>_ID_99_ct0_st01&#45;&gt;ID_99_ct0_st01</title>
<path fill="none" stroke="black" d="M267.09,-34.21C283.08,-35.67 300.51,-37.27 316.89,-38.77"/>
<polygon fill="black" stroke="black" points="316.65,-42.27 326.93,-39.69 317.29,-35.3 316.65,-42.27"/>
</g>
<!-- ID_99_ct0_st01&#45;&gt;ID_99_ct0_st01 -->
<g id="edge7" class="edge">
<title>ID_99_ct0_st01&#45;&gt;ID_99_ct0_st01</title>
<path fill="none" stroke="black" d="M367.94,-70.01C367.22,-79.75 372.58,-87.84 384,-87.84 391.14,-87.84 395.91,-84.68 398.31,-79.93"/>
<polygon fill="black" stroke="black" points="401.76,-80.47 400.06,-70.01 394.87,-79.25 401.76,-80.47"/>
<text text-anchor="start" x="372" y="-91.64" font-family="arial" font-size="14.00" fill="#377eb8">true</text>
</g>
<!-- ID_99_ct0_st02 -->
<g id="node5" class="node">
<title>ID_99_ct0_st02</title>
<polygon fill="none" stroke="black" points="615,-68.84 501,-68.84 501,-18.84 615,-18.84 615,-68.84"/>
<text text-anchor="start" x="509" y="-54.64" font-family="arial" font-weight="bold" font-size="14.00">ID_99_ct0_st02</text>
<text text-anchor="start" x="529" y="-40.64" font-family="arial" font-size="14.00" fill="#984ea3">(R &amp;&amp; !S)</text>
<text text-anchor="start" x="546" y="-26.64" font-family="arial" font-size="14.00" fill="#ff7f00">true</text>
</g>
<!-- ID_99_ct0_st01&#45;&gt;ID_99_ct0_st02 -->
<g id="edge5" class="edge">
<title>ID_99_ct0_st01&#45;&gt;ID_99_ct0_st02</title>
<path fill="none" stroke="black" d="M441.31,-29.67C447.25,-28.51 453.22,-27.53 459,-26.84 469.33,-25.6 480.22,-25.88 490.85,-27.04"/>
<polygon fill="black" stroke="black" points="490.54,-30.54 500.92,-28.41 491.48,-23.6 490.54,-30.54"/>
<text text-anchor="start" x="459" y="-30.64" font-family="arial" font-size="14.00" fill="#377eb8">true</text>
</g>
<!-- ID_99_ct0_st023 -->
<g id="node6" class="node">
<title>ID_99_ct0_st023</title>
<polygon fill="none" stroke="black" points="1051,-62.84 929,-62.84 929,-12.84 1051,-12.84 1051,-62.84"/>
<text text-anchor="start" x="937" y="-48.64" font-family="arial" font-weight="bold" font-size="14.00">ID_99_ct0_st023</text>
<text text-anchor="start" x="963" y="-34.64" font-family="arial" font-size="14.00" fill="#984ea3">(R &amp;&amp; S)</text>
<text text-anchor="start" x="978" y="-20.64" font-family="arial" font-size="14.00" fill="#ff7f00">true</text>
</g>
<!-- ID_99_ct0_st01&#45;&gt;ID_99_ct0_st023 -->
<g id="edge6" class="edge">
<title>ID_99_ct0_st01&#45;&gt;ID_99_ct0_st023</title>
<path fill="none" stroke="black" d="M441.18,-24.27C459.94,-18.38 481.13,-12.77 501,-9.84 648.62,11.95 823.69,-9.4 918.85,-24.91"/>
<polygon fill="black" stroke="black" points="918.49,-28.4 928.93,-26.58 919.63,-21.49 918.49,-28.4"/>
<text text-anchor="start" x="662" y="-6.64" font-family="arial" font-size="14.00" fill="#377eb8">true</text>
</g>
<!-- ID_99_ct0_st02&#45;&gt;ID_99_ct0_st01 -->
<g id="edge10" class="edge">
<title>ID_99_ct0_st02&#45;&gt;ID_99_ct0_st01</title>
<path fill="none" stroke="black" d="M500.85,-44.16C485.04,-44.25 467.69,-44.35 451.34,-44.45"/>
<polygon fill="black" stroke="black" points="451.3,-40.95 441.32,-44.51 451.34,-47.95 451.3,-40.95"/>
<text text-anchor="start" x="463" y="-48.64" font-family="arial" font-size="14.00" fill="#377eb8">!S&#39;</text>
</g>
<!-- ID_99_ct0_st02&#45;&gt;ID_99_ct0_st02 -->
<g id="edge8" class="edge">
<title>ID_99_ct0_st02&#45;&gt;ID_99_ct0_st02</title>
<path fill="none" stroke="black" d="M541.94,-69.01C541.22,-78.75 546.58,-86.84 558,-86.84 565.14,-86.84 569.91,-83.68 572.31,-78.93"/>
<polygon fill="black" stroke="black" points="575.76,-79.47 574.06,-69.01 568.87,-78.25 575.76,-79.47"/>
<text text-anchor="start" x="546" y="-90.64" font-family="arial" font-size="14.00" fill="#377eb8">true</text>
</g>
<!-- ID_99_ct0_st02&#45;&gt;ID_99_ct0_st023 -->
<g id="edge9" class="edge">
<title>ID_99_ct0_st02&#45;&gt;ID_99_ct0_st023</title>
<path fill="none" stroke="black" d="M615.14,-39.66C621.17,-39.33 627.21,-39.04 633,-38.84 732.05,-35.35 846.7,-35.84 918.54,-36.69"/>
<polygon fill="black" stroke="black" points="918.78,-40.2 928.82,-36.82 918.87,-33.2 918.78,-40.2"/>
<text text-anchor="start" x="782" y="-40.64" font-family="arial" font-size="14.00" fill="#377eb8">true</text>
</g>
<!-- ID_99_ct0_st013 -->
<g id="node7" class="node">
<title>ID_99_ct0_st013</title>
<polygon fill="none" stroke="black" points="855,-132.84 733,-132.84 733,-82.84 855,-82.84 855,-132.84"/>
<text text-anchor="start" x="741" y="-118.64" font-family="arial" font-weight="bold" font-size="14.00">ID_99_ct0_st013</text>
<text text-anchor="start" x="765" y="-104.64" font-family="arial" font-size="14.00" fill="#984ea3">(!R &amp;&amp; S)</text>
<text text-anchor="start" x="771" y="-90.64" font-family="arial" font-size="14.00" fill="#ff7f00">c0 &lt;= 5</text>
</g>
<!-- ID_99_ct0_st02&#45;&gt;ID_99_ct0_st013 -->
<g id="edge11" class="edge">
<title>ID_99_ct0_st02&#45;&gt;ID_99_ct0_st013</title>
<path fill="none" stroke="black" d="M615.26,-41.35C645.57,-41.69 683.16,-44.84 715,-55.84 728.87,-60.62 742.64,-68.48 754.66,-76.66"/>
<polygon fill="black" stroke="black" points="752.9,-79.7 763.08,-82.63 756.95,-73.99 752.9,-79.7"/>
<text text-anchor="start" x="662" y="-74.64" font-family="arial" font-size="14.00" fill="#377eb8">true</text>
<text text-anchor="start" x="655" y="-59.64" font-family="arial" font-size="14.00">c0 :=0</text>
</g>
<!-- ID_99_ct0_st023&#45;&gt;ID_99_ct0_st023 -->
<g id="edge16" class="edge">
<title>ID_99_ct0_st023&#45;&gt;ID_99_ct0_st023</title>
<path fill="none" stroke="black" d="M971.7,-63.01C970.88,-72.75 976.98,-80.84 990,-80.84 998.13,-80.84 1003.57,-77.68 1006.3,-72.93"/>
<polygon fill="black" stroke="black" points="1009.76,-73.51 1008.3,-63.01 1002.89,-72.12 1009.76,-73.51"/>
<text text-anchor="start" x="978" y="-84.64" font-family="arial" font-size="14.00" fill="#377eb8">true</text>
</g>
<!-- ID_99_ct0_st023&#45;&gt;ID_99_ct0_st013 -->
<g id="edge17" class="edge">
<title>ID_99_ct0_st023&#45;&gt;ID_99_ct0_st013</title>
<path fill="none" stroke="black" d="M928.89,-39.34C910.48,-41.31 890.48,-45.03 873,-51.84 857.96,-57.69 843.15,-67.13 830.53,-76.59"/>
<polygon fill="black" stroke="black" points="828.32,-73.88 822.58,-82.78 832.62,-79.4 828.32,-73.88"/>
<text text-anchor="start" x="880" y="-70.64" font-family="arial" font-size="14.00" fill="#377eb8">true</text>
<text text-anchor="start" x="873" y="-55.64" font-family="arial" font-size="14.00">c0 :=0</text>
</g>
<!-- ID_99_ct0_st013&#45;&gt;ID_99_ct0_st01 -->
<g id="edge14" class="edge">
<title>ID_99_ct0_st013&#45;&gt;ID_99_ct0_st01</title>
<path fill="none" stroke="black" d="M732.68,-119.75C726.72,-120.6 720.76,-121.32 715,-121.84 620.14,-130.28 591.98,-139 501,-110.84 475.44,-102.92 449.33,-88.71 428.37,-75.5"/>
<polygon fill="black" stroke="black" points="430.02,-72.4 419.72,-69.92 426.22,-78.28 430.02,-72.4"/>
<text text-anchor="start" x="535" y="-133.64" font-family="arial" font-size="14.00" fill="#377eb8">c0 &gt;= 5</text>
</g>
<!-- ID_99_ct0_st013&#45;&gt;ID_99_ct0_st02 -->
<g id="edge12" class="edge">
<title>ID_99_ct0_st013&#45;&gt;ID_99_ct0_st02</title>
<path fill="none" stroke="black" d="M732.87,-104.98C702.33,-102.18 665,-96.67 633,-85.84 623.86,-82.74 614.57,-78.49 605.8,-73.88"/>
<polygon fill="black" stroke="black" points="607.32,-70.72 596.87,-68.97 603.95,-76.86 607.32,-70.72"/>
<text text-anchor="start" x="633" y="-106.64" font-family="arial" font-size="14.00" fill="#377eb8">(S&#39; || c0 &gt;= 5)</text>
</g>
<!-- ID_99_ct0_st013&#45;&gt;ID_99_ct0_st023 -->
<g id="edge13" class="edge">
<title>ID_99_ct0_st013&#45;&gt;ID_99_ct0_st023</title>
<path fill="none" stroke="black" d="M855.17,-100.7C873.49,-97.4 893.42,-92.65 911,-85.84 922.82,-81.26 934.83,-74.88 945.78,-68.26"/>
<polygon fill="black" stroke="black" points="947.69,-71.2 954.31,-62.94 943.98,-65.27 947.69,-71.2"/>
<text text-anchor="start" x="880" y="-100.64" font-family="arial" font-size="14.00" fill="#377eb8">true</text>
</g>
<!-- ID_99_ct0_st013&#45;&gt;ID_99_ct0_st013 -->
<g id="edge15" class="edge">
<title>ID_99_ct0_st013&#45;&gt;ID_99_ct0_st013</title>
<path fill="none" stroke="black" d="M775.7,-133.01C774.88,-142.75 780.98,-150.84 794,-150.84 802.13,-150.84 807.57,-147.68 810.3,-142.93"/>
<polygon fill="black" stroke="black" points="813.76,-143.51 812.3,-133.01 806.89,-142.12 813.76,-143.51"/>
<text text-anchor="start" x="775" y="-154.64" font-family="arial" font-size="14.00" fill="#377eb8">c0 &lt; 5</text>
</g>
</g>
</svg>
