<?xml version="1.0" encoding="UTF-8" standalone="no"?>
<!DOCTYPE svg PUBLIC "-//W3C//DTD SVG 1.1//EN"
 "http://www.w3.org/Graphics/SVG/1.1/DTD/svg11.dtd">
<!-- Generated by graphviz version 2.43.0 (0)
 -->
<!-- Title: G Pages: 1 -->
<svg width="935pt" height="178pt"
 viewBox="0.00 0.00 935.00 178.00" xmlns="http://www.w3.org/2000/svg" xmlns:xlink="http://www.w3.org/1999/xlink">
<g id="graph0" class="graph" transform="scale(1 1) rotate(0) translate(4 174)">
<title>G</title>
<polygon fill="white" stroke="transparent" points="-4,4 -4,-174 931,-174 931,4 -4,4"/>
<!-- _ID_134_ct0_st0 -->
<!-- ID_134_ct0_st0 -->
<g id="node2" class="node">
<title>ID_134_ct0_st0</title>
<polygon fill="none" stroke="black" points="276,-129 162,-129 162,-79 276,-79 276,-129"/>
<text text-anchor="start" x="170" y="-114.8" font-family="arial" font-weight="bold" font-size="14.00">ID_134_ct0_st0</text>
<text text-anchor="start" x="214" y="-100.8" font-family="arial" font-size="14.00" fill="#984ea3">R</text>
<text text-anchor="start" x="207" y="-86.8" font-family="arial" font-size="14.00" fill="#ff7f00">true</text>
</g>
<!-- _ID_134_ct0_st0&#45;&gt;ID_134_ct0_st0 -->
<g id="edge1" class="edge">
<title>_ID_134_ct0_st0&#45;&gt;ID_134_ct0_st0</title>
<path fill="none" stroke="black" d="M119.15,-104C129.75,-104 140.88,-104 151.68,-104"/>
<polygon fill="black" stroke="black" points="151.92,-107.5 161.92,-104 151.92,-100.5 151.92,-107.5"/>
</g>
<!-- ID_134_ct0_st0&#45;&gt;ID_134_ct0_st0 -->
<g id="edge3" class="edge">
<title>ID_134_ct0_st0&#45;&gt;ID_134_ct0_st0</title>
<path fill="none" stroke="black" d="M204.06,-129.18C203.39,-138.91 208.38,-147 219,-147 225.64,-147 230.08,-143.84 232.31,-139.09"/>
<polygon fill="black" stroke="black" points="235.77,-139.61 233.94,-129.18 228.86,-138.47 235.77,-139.61"/>
<text text-anchor="start" x="207" y="-150.8" font-family="arial" font-size="14.00" fill="#377eb8">true</text>
</g>
<!-- ID_134_ct0_st01 -->
<g id="node4" class="node">
<title>ID_134_ct0_st01</title>
<polygon fill="none" stroke="black" points="493,-50 371,-50 371,0 493,0 493,-50"/>
<text text-anchor="start" x="379" y="-35.8" font-family="arial" font-weight="bold" font-size="14.00">ID_134_ct0_st01</text>
<text text-anchor="start" x="425" y="-21.8" font-family="arial" font-size="14.00" fill="#984ea3">!R</text>
<text text-anchor="start" x="420" y="-7.8" font-family="arial" font-size="14.00" fill="#ff7f00">true</text>
</g>
<!-- ID_134_ct0_st0&#45;&gt;ID_134_ct0_st01 -->
<g id="edge4" class="edge">
<title>ID_134_ct0_st0&#45;&gt;ID_134_ct0_st01</title>
<path fill="none" stroke="black" d="M276.24,-91.31C300.29,-85.13 328.43,-76.89 353,-67 361.79,-63.46 370.86,-59.2 379.58,-54.76"/>
<polygon fill="black" stroke="black" points="381.27,-57.82 388.51,-50.09 378.02,-51.62 381.27,-57.82"/>
<text text-anchor="start" x="314.5" y="-88.8" font-family="arial" font-size="14.00" fill="#377eb8">true</text>
</g>
<!-- _ID_134_ct0_st01 -->
<!-- _ID_134_ct0_st01&#45;&gt;ID_134_ct0_st01 -->
<g id="edge2" class="edge">
<title>_ID_134_ct0_st01&#45;&gt;ID_134_ct0_st01</title>
<path fill="none" stroke="black" d="M282.17,-20.06C306.74,-20.88 335.11,-21.82 360.45,-22.66"/>
<polygon fill="black" stroke="black" points="360.62,-26.17 370.73,-23 360.85,-19.17 360.62,-26.17"/>
</g>
<!-- ID_134_ct0_st01&#45;&gt;ID_134_ct0_st0 -->
<g id="edge5" class="edge">
<title>ID_134_ct0_st01&#45;&gt;ID_134_ct0_st0</title>
<path fill="none" stroke="black" d="M370.76,-29.99C347.97,-33.3 322.19,-38.82 300,-48 285.09,-54.17 270.21,-63.49 257.4,-72.76"/>
<polygon fill="black" stroke="black" points="255.22,-70.03 249.3,-78.82 259.41,-75.63 255.22,-70.03"/>
<text text-anchor="start" x="300" y="-51.8" font-family="arial" font-size="14.00" fill="#377eb8">(S&#39; || !R&#39;)</text>
</g>
<!-- ID_134_ct0_st01&#45;&gt;ID_134_ct0_st01 -->
<g id="edge7" class="edge">
<title>ID_134_ct0_st01&#45;&gt;ID_134_ct0_st01</title>
<path fill="none" stroke="black" d="M413.7,-50.18C412.88,-59.91 418.98,-68 432,-68 440.13,-68 445.57,-64.84 448.3,-60.09"/>
<polygon fill="black" stroke="black" points="451.76,-60.67 450.3,-50.18 444.89,-59.29 451.76,-60.67"/>
<text text-anchor="start" x="420" y="-71.8" font-family="arial" font-size="14.00" fill="#377eb8">true</text>
</g>
<!-- ID_134_ct0_st023W -->
<g id="node5" class="node">
<title>ID_134_ct0_st023W</title>
<polygon fill="none" stroke="black" points="710,-99 567,-99 567,-49 710,-49 710,-99"/>
<text text-anchor="start" x="575" y="-84.8" font-family="arial" font-weight="bold" font-size="14.00">ID_134_ct0_st023W</text>
<text text-anchor="start" x="609.5" y="-70.8" font-family="arial" font-size="14.00" fill="#984ea3">(R &amp;&amp; !S)</text>
<text text-anchor="start" x="615.5" y="-56.8" font-family="arial" font-size="14.00" fill="#ff7f00">c0 &lt;= 5</text>
</g>
<!-- ID_134_ct0_st01&#45;&gt;ID_134_ct0_st023W -->
<g id="edge6" class="edge">
<title>ID_134_ct0_st01&#45;&gt;ID_134_ct0_st023W</title>
<path fill="none" stroke="black" d="M493.17,-46.9C499.16,-48.76 505.17,-50.5 511,-52 525.7,-55.79 541.52,-59.13 556.84,-61.97"/>
<polygon fill="black" stroke="black" points="556.35,-65.44 566.81,-63.78 557.59,-58.55 556.35,-65.44"/>
<text text-anchor="start" x="518" y="-79.8" font-family="arial" font-size="14.00" fill="#377eb8">true</text>
<text text-anchor="start" x="511" y="-64.8" font-family="arial" font-size="14.00">c0 :=0</text>
</g>
<!-- ID_134_ct0_st023W&#45;&gt;ID_134_ct0_st0 -->
<g id="edge12" class="edge">
<title>ID_134_ct0_st023W&#45;&gt;ID_134_ct0_st0</title>
<path fill="none" stroke="black" d="M566.71,-92.03C560.75,-93.17 554.79,-94.19 549,-95 458.76,-107.66 353.29,-108.04 286.57,-106.53"/>
<polygon fill="black" stroke="black" points="286.29,-103.02 276.2,-106.27 286.11,-110.02 286.29,-103.02"/>
<text text-anchor="start" x="425.5" y="-109.8" font-family="arial" font-size="14.00" fill="#377eb8">S&#39;</text>
</g>
<!-- ID_134_ct0_st023W&#45;&gt;ID_134_ct0_st01 -->
<g id="edge14" class="edge">
<title>ID_134_ct0_st023W&#45;&gt;ID_134_ct0_st01</title>
<path fill="none" stroke="black" d="M591.83,-48.99C578.4,-42.71 563.43,-36.71 549,-33 534.54,-29.29 518.76,-27.05 503.63,-25.75"/>
<polygon fill="black" stroke="black" points="503.5,-22.23 493.27,-24.99 502.99,-29.21 503.5,-22.23"/>
<text text-anchor="start" x="523.5" y="-36.8" font-family="arial" font-size="14.00" fill="#377eb8">S&#39;</text>
</g>
<!-- ID_134_ct0_st023W&#45;&gt;ID_134_ct0_st023W -->
<g id="edge13" class="edge">
<title>ID_134_ct0_st023W&#45;&gt;ID_134_ct0_st023W</title>
<path fill="none" stroke="black" d="M618.33,-99.18C617.43,-108.91 624.16,-117 638.5,-117 647.46,-117 653.45,-113.84 656.46,-109.09"/>
<polygon fill="black" stroke="black" points="659.92,-109.7 658.67,-99.18 653.08,-108.18 659.92,-109.7"/>
<text text-anchor="start" x="619.5" y="-120.8" font-family="arial" font-size="14.00" fill="#377eb8">c0 &lt; 5</text>
</g>
<!-- ID_134_ct0_st013W -->
<g id="node6" class="node">
<title>ID_134_ct0_st013W</title>
<polygon fill="none" stroke="black" points="927,-99 784,-99 784,-49 927,-49 927,-99"/>
<text text-anchor="start" x="792" y="-84.8" font-family="arial" font-weight="bold" font-size="14.00">ID_134_ct0_st013W</text>
<text text-anchor="start" x="825" y="-70.8" font-family="arial" font-size="14.00" fill="#984ea3">(!R &amp;&amp; !S)</text>
<text text-anchor="start" x="832.5" y="-56.8" font-family="arial" font-size="14.00" fill="#ff7f00">c0 &lt;= 5</text>
</g>
<!-- ID_134_ct0_st023W&#45;&gt;ID_134_ct0_st013W -->
<g id="edge15" class="edge">
<title>ID_134_ct0_st023W&#45;&gt;ID_134_ct0_st013W</title>
<path fill="none" stroke="black" d="M710.2,-74C730.5,-74 752.79,-74 773.65,-74"/>
<polygon fill="black" stroke="black" points="773.76,-77.5 783.76,-74 773.76,-70.5 773.76,-77.5"/>
<text text-anchor="start" x="728" y="-77.8" font-family="arial" font-size="14.00" fill="#377eb8">c0 &lt; 5</text>
</g>
<!-- ID_134_ct0_st013W&#45;&gt;ID_134_ct0_st0 -->
<g id="edge8" class="edge">
<title>ID_134_ct0_st013W&#45;&gt;ID_134_ct0_st0</title>
<path fill="none" stroke="black" d="M813.22,-99.02C785.21,-114.5 746.72,-132.9 710,-141 560.94,-173.88 380.89,-142.72 285.98,-120.98"/>
<polygon fill="black" stroke="black" points="286.76,-117.57 276.23,-118.72 285.17,-124.39 286.76,-117.57"/>
<text text-anchor="start" x="523.5" y="-158.8" font-family="arial" font-size="14.00" fill="#377eb8">S&#39;</text>
</g>
<!-- ID_134_ct0_st013W&#45;&gt;ID_134_ct0_st01 -->
<g id="edge10" class="edge">
<title>ID_134_ct0_st013W&#45;&gt;ID_134_ct0_st01</title>
<path fill="none" stroke="black" d="M794.43,-48.91C768.88,-39.48 738.46,-29.88 710,-25 705.69,-24.26 577.56,-22.15 511,-23 508.45,-23.03 505.86,-23.07 503.24,-23.11"/>
<polygon fill="black" stroke="black" points="502.97,-19.62 493.04,-23.31 503.1,-26.62 502.97,-19.62"/>
<text text-anchor="start" x="632" y="-28.8" font-family="arial" font-size="14.00" fill="#377eb8">S&#39;</text>
</g>
<!-- ID_134_ct0_st013W&#45;&gt;ID_134_ct0_st023W -->
<g id="edge9" class="edge">
<title>ID_134_ct0_st013W&#45;&gt;ID_134_ct0_st023W</title>
<path fill="none" stroke="black" d="M783.71,-57.83C765.58,-55.37 746.1,-54.18 728,-56 725.47,-56.25 722.91,-56.55 720.34,-56.88"/>
<polygon fill="black" stroke="black" points="719.73,-53.43 710.32,-58.3 720.71,-60.36 719.73,-53.43"/>
<text text-anchor="start" x="728" y="-59.8" font-family="arial" font-size="14.00" fill="#377eb8">c0 &lt; 5</text>
</g>
<!-- ID_134_ct0_st013W&#45;&gt;ID_134_ct0_st013W -->
<g id="edge11" class="edge">
<title>ID_134_ct0_st013W&#45;&gt;ID_134_ct0_st013W</title>
<path fill="none" stroke="black" d="M835.33,-99.18C834.43,-108.91 841.16,-117 855.5,-117 864.46,-117 870.45,-113.84 873.46,-109.09"/>
<polygon fill="black" stroke="black" points="876.92,-109.7 875.67,-99.18 870.08,-108.18 876.92,-109.7"/>
<text text-anchor="start" x="836.5" y="-120.8" font-family="arial" font-size="14.00" fill="#377eb8">c0 &lt; 5</text>
</g>
</g>
</svg>
