<?xml version="1.0" encoding="UTF-8" standalone="no"?>
<!DOCTYPE svg PUBLIC "-//W3C//DTD SVG 1.1//EN"
 "http://www.w3.org/Graphics/SVG/1.1/DTD/svg11.dtd">
<!-- Generated by graphviz version 2.43.0 (0)
 -->
<!-- Title: G Pages: 1 -->
<svg width="680pt" height="244pt"
 viewBox="0.00 0.00 680.00 244.00" xmlns="http://www.w3.org/2000/svg" xmlns:xlink="http://www.w3.org/1999/xlink">
<g id="graph0" class="graph" transform="scale(1 1) rotate(0) translate(4 240)">
<title>G</title>
<polygon fill="white" stroke="transparent" points="-4,4 -4,-240 676,-240 676,4 -4,4"/>
<!-- _ID_97_ct1_stinit -->
<!-- ID_97_ct1_stinit -->
<g id="node2" class="node">
<title>ID_97_ct1_stinit</title>
<polygon fill="none" stroke="black" points="513,-203 394,-203 394,-153 513,-153 513,-203"/>
<text text-anchor="start" x="402" y="-188.8" font-family="arial" font-weight="bold" font-size="14.00">ID_97_ct1_stinit</text>
<text text-anchor="start" x="448.5" y="-174.8" font-family="arial" font-size="14.00" fill="#984ea3">P</text>
<text text-anchor="start" x="441.5" y="-160.8" font-family="arial" font-size="14.00" fill="#ff7f00">true</text>
</g>
<!-- _ID_97_ct1_stinit&#45;&gt;ID_97_ct1_stinit -->
<g id="edge1" class="edge">
<title>_ID_97_ct1_stinit&#45;&gt;ID_97_ct1_stinit</title>
<path fill="none" stroke="black" d="M269.26,-178C303.79,-178 347.39,-178 383.39,-178"/>
<polygon fill="black" stroke="black" points="383.82,-181.5 393.82,-178 383.82,-174.5 383.82,-181.5"/>
</g>
<!-- ID_97_ct1_stinit&#45;&gt;ID_97_ct1_stinit -->
<g id="edge5" class="edge">
<title>ID_97_ct1_stinit&#45;&gt;ID_97_ct1_stinit</title>
<path fill="none" stroke="black" d="M437.06,-203.18C436.33,-212.91 441.81,-221 453.5,-221 460.8,-221 465.68,-217.84 468.14,-213.09"/>
<polygon fill="black" stroke="black" points="471.6,-213.64 469.94,-203.18 464.71,-212.39 471.6,-213.64"/>
<text text-anchor="start" x="441.5" y="-224.8" font-family="arial" font-size="14.00" fill="#377eb8">true</text>
</g>
<!-- ID_97_ct1_st -->
<g id="node7" class="node">
<title>ID_97_ct1_st</title>
<polygon fill="none" stroke="black" points="672,-102 573,-102 573,-52 672,-52 672,-102"/>
<text text-anchor="start" x="581" y="-87.8" font-family="arial" font-weight="bold" font-size="14.00">ID_97_ct1_st</text>
<text text-anchor="start" x="610.5" y="-73.8" font-family="arial" font-size="14.00" fill="#984ea3">true</text>
<text text-anchor="start" x="610.5" y="-59.8" font-family="arial" font-size="14.00" fill="#ff7f00">true</text>
</g>
<!-- ID_97_ct1_stinit&#45;&gt;ID_97_ct1_st -->
<g id="edge4" class="edge">
<title>ID_97_ct1_stinit&#45;&gt;ID_97_ct1_st</title>
<path fill="none" stroke="black" d="M498.02,-152.88C503.08,-149.9 508.16,-146.9 513,-144 532.67,-132.21 554.19,-118.99 572.84,-107.43"/>
<polygon fill="black" stroke="black" points="574.82,-110.32 581.47,-102.08 571.12,-104.38 574.82,-110.32"/>
<text text-anchor="start" x="531" y="-134.8" font-family="arial" font-size="14.00" fill="#377eb8">true</text>
</g>
<!-- _ID_97_ct1_st0 -->
<!-- ID_97_ct1_st0 -->
<g id="node4" class="node">
<title>ID_97_ct1_st0</title>
<polygon fill="none" stroke="black" points="262,-50 155,-50 155,0 262,0 262,-50"/>
<text text-anchor="start" x="163" y="-35.8" font-family="arial" font-weight="bold" font-size="14.00">ID_97_ct1_st0</text>
<text text-anchor="start" x="179.5" y="-21.8" font-family="arial" font-size="14.00" fill="#984ea3">(!P &amp;&amp; R)</text>
<text text-anchor="start" x="196.5" y="-7.8" font-family="arial" font-size="14.00" fill="#ff7f00">true</text>
</g>
<!-- _ID_97_ct1_st0&#45;&gt;ID_97_ct1_st0 -->
<g id="edge2" class="edge">
<title>_ID_97_ct1_st0&#45;&gt;ID_97_ct1_st0</title>
<path fill="none" stroke="black" d="M111.01,-25C121.94,-25 133.51,-25 144.7,-25"/>
<polygon fill="black" stroke="black" points="144.83,-28.5 154.83,-25 144.83,-21.5 144.83,-28.5"/>
</g>
<!-- ID_97_ct1_st0&#45;&gt;ID_97_ct1_st0 -->
<g id="edge8" class="edge">
<title>ID_97_ct1_st0&#45;&gt;ID_97_ct1_st0</title>
<path fill="none" stroke="black" d="M193.93,-50.18C193.28,-59.91 198.14,-68 208.5,-68 214.97,-68 219.3,-64.84 221.47,-60.09"/>
<polygon fill="black" stroke="black" points="224.94,-60.6 223.07,-50.18 218.03,-59.49 224.94,-60.6"/>
<text text-anchor="start" x="196.5" y="-71.8" font-family="arial" font-size="14.00" fill="#377eb8">true</text>
</g>
<!-- ID_97_ct1_st01 -->
<g id="node6" class="node">
<title>ID_97_ct1_st01</title>
<polygon fill="none" stroke="black" points="510.5,-102 396.5,-102 396.5,-52 510.5,-52 510.5,-102"/>
<text text-anchor="start" x="404.5" y="-87.8" font-family="arial" font-weight="bold" font-size="14.00">ID_97_ct1_st01</text>
<text text-anchor="start" x="423" y="-73.8" font-family="arial" font-size="14.00" fill="#984ea3">(!P &amp;&amp; !R)</text>
<text text-anchor="start" x="441.5" y="-59.8" font-family="arial" font-size="14.00" fill="#ff7f00">true</text>
</g>
<!-- ID_97_ct1_st0&#45;&gt;ID_97_ct1_st01 -->
<g id="edge9" class="edge">
<title>ID_97_ct1_st0&#45;&gt;ID_97_ct1_st01</title>
<path fill="none" stroke="black" d="M255.18,-50.08C265.4,-54.76 276.36,-59.08 287,-62 318.99,-70.78 355.64,-74.7 386.3,-76.35"/>
<polygon fill="black" stroke="black" points="386.31,-79.86 396.46,-76.83 386.63,-72.87 386.31,-79.86"/>
<text text-anchor="start" x="319.5" y="-78.8" font-family="arial" font-size="14.00" fill="#377eb8">true</text>
</g>
<!-- ID_97_ct1_st0&#45;&gt;ID_97_ct1_st -->
<g id="edge7" class="edge">
<title>ID_97_ct1_st0&#45;&gt;ID_97_ct1_st</title>
<path fill="none" stroke="black" d="M262.06,-19.04C323.17,-13.59 426.68,-8.97 513,-28 531.56,-32.09 550.79,-39.57 567.81,-47.47"/>
<polygon fill="black" stroke="black" points="566.49,-50.72 577.02,-51.88 569.52,-44.41 566.49,-50.72"/>
<text text-anchor="start" x="447" y="-31.8" font-family="arial" font-size="14.00" fill="#377eb8">P&#39;</text>
</g>
<!-- _ID_97_ct1_st01 -->
<!-- _ID_97_ct1_st01&#45;&gt;ID_97_ct1_st01 -->
<g id="edge3" class="edge">
<title>_ID_97_ct1_st01&#45;&gt;ID_97_ct1_st01</title>
<path fill="none" stroke="black" d="M268.18,-116.69C300.31,-114.59 340.65,-110.6 376,-103 379.39,-102.27 382.85,-101.44 386.32,-100.53"/>
<polygon fill="black" stroke="black" points="387.41,-103.86 396.1,-97.8 385.52,-97.12 387.41,-103.86"/>
</g>
<!-- ID_97_ct1_st01&#45;&gt;ID_97_ct1_st0 -->
<g id="edge11" class="edge">
<title>ID_97_ct1_st01&#45;&gt;ID_97_ct1_st0</title>
<path fill="none" stroke="black" d="M401.86,-51.88C393.39,-48.44 384.56,-45.3 376,-43 342.31,-33.93 303.61,-29.41 272.01,-27.16"/>
<polygon fill="black" stroke="black" points="272.22,-23.67 262.01,-26.51 271.77,-30.65 272.22,-23.67"/>
<text text-anchor="start" x="287" y="-46.8" font-family="arial" font-size="14.00" fill="#377eb8">(P&#39; || (S&#39; || !R&#39;))</text>
</g>
<!-- ID_97_ct1_st01&#45;&gt;ID_97_ct1_st01 -->
<g id="edge12" class="edge">
<title>ID_97_ct1_st01&#45;&gt;ID_97_ct1_st01</title>
<path fill="none" stroke="black" d="M437.06,-102.18C436.33,-111.91 441.81,-120 453.5,-120 460.8,-120 465.68,-116.84 468.14,-112.09"/>
<polygon fill="black" stroke="black" points="471.6,-112.64 469.94,-102.18 464.71,-111.39 471.6,-112.64"/>
<text text-anchor="start" x="441.5" y="-123.8" font-family="arial" font-size="14.00" fill="#377eb8">true</text>
</g>
<!-- ID_97_ct1_st01&#45;&gt;ID_97_ct1_st -->
<g id="edge10" class="edge">
<title>ID_97_ct1_st01&#45;&gt;ID_97_ct1_st</title>
<path fill="none" stroke="black" d="M510.57,-77C527.29,-77 545.65,-77 562.54,-77"/>
<polygon fill="black" stroke="black" points="562.84,-80.5 572.84,-77 562.84,-73.5 562.84,-80.5"/>
<text text-anchor="start" x="536.5" y="-80.8" font-family="arial" font-size="14.00" fill="#377eb8">P&#39;</text>
</g>
<!-- ID_97_ct1_st&#45;&gt;ID_97_ct1_st -->
<g id="edge6" class="edge">
<title>ID_97_ct1_st&#45;&gt;ID_97_ct1_st</title>
<path fill="none" stroke="black" d="M607.93,-102.18C607.28,-111.91 612.14,-120 622.5,-120 628.97,-120 633.3,-116.84 635.47,-112.09"/>
<polygon fill="black" stroke="black" points="638.94,-112.6 637.07,-102.18 632.03,-111.49 638.94,-112.6"/>
<text text-anchor="start" x="610.5" y="-123.8" font-family="arial" font-size="14.00" fill="#377eb8">true</text>
</g>
</g>
</svg>
