<?xml version="1.0" encoding="UTF-8" standalone="no"?>
<!DOCTYPE svg PUBLIC "-//W3C//DTD SVG 1.1//EN"
 "http://www.w3.org/Graphics/SVG/1.1/DTD/svg11.dtd">
<!-- Generated by graphviz version 2.43.0 (0)
 -->
<!-- Title: G Pages: 1 -->
<svg width="1079pt" height="267pt"
 viewBox="0.00 0.00 1079.00 267.31" xmlns="http://www.w3.org/2000/svg" xmlns:xlink="http://www.w3.org/1999/xlink">
<g id="graph0" class="graph" transform="scale(1 1) rotate(0) translate(4 263.31)">
<title>G</title>
<polygon fill="white" stroke="transparent" points="-4,4 -4,-263.31 1075,-263.31 1075,4 -4,4"/>
<!-- _ID_95_ct1_st0 -->
<!-- ID_95_ct1_st0 -->
<g id="node2" class="node">
<title>ID_95_ct1_st0</title>
<polygon fill="none" stroke="black" points="264.5,-65.31 157.5,-65.31 157.5,-15.31 264.5,-15.31 264.5,-65.31"/>
<text text-anchor="start" x="165.5" y="-51.11" font-family="arial" font-weight="bold" font-size="14.00">ID_95_ct1_st0</text>
<text text-anchor="start" x="204.5" y="-37.11" font-family="arial" font-size="14.00" fill="#984ea3">!P</text>
<text text-anchor="start" x="199" y="-23.11" font-family="arial" font-size="14.00" fill="#ff7f00">true</text>
</g>
<!-- _ID_95_ct1_st0&#45;&gt;ID_95_ct1_st0 -->
<g id="edge1" class="edge">
<title>_ID_95_ct1_st0&#45;&gt;ID_95_ct1_st0</title>
<path fill="none" stroke="black" d="M111.05,-40.31C122.71,-40.31 135.13,-40.31 147.08,-40.31"/>
<polygon fill="black" stroke="black" points="147.43,-43.81 157.43,-40.31 147.43,-36.81 147.43,-43.81"/>
</g>
<!-- ID_95_ct1_st0&#45;&gt;ID_95_ct1_st0 -->
<g id="edge4" class="edge">
<title>ID_95_ct1_st0&#45;&gt;ID_95_ct1_st0</title>
<path fill="none" stroke="black" d="M196.06,-65.49C195.39,-75.22 200.38,-83.31 211,-83.31 217.64,-83.31 222.08,-80.15 224.31,-75.4"/>
<polygon fill="black" stroke="black" points="227.77,-75.92 225.94,-65.49 220.86,-74.78 227.77,-75.92"/>
<text text-anchor="start" x="199" y="-87.11" font-family="arial" font-size="14.00" fill="#377eb8">true</text>
</g>
<!-- ID_95_ct1_st012 -->
<g id="node4" class="node">
<title>ID_95_ct1_st012</title>
<polygon fill="none" stroke="black" points="462,-172.31 340,-172.31 340,-122.31 462,-122.31 462,-172.31"/>
<text text-anchor="start" x="348" y="-158.11" font-family="arial" font-weight="bold" font-size="14.00">ID_95_ct1_st012</text>
<text text-anchor="start" x="374" y="-144.11" font-family="arial" font-size="14.00" fill="#984ea3">(P &amp;&amp; R)</text>
<text text-anchor="start" x="389" y="-130.11" font-family="arial" font-size="14.00" fill="#ff7f00">true</text>
</g>
<!-- ID_95_ct1_st0&#45;&gt;ID_95_ct1_st012 -->
<g id="edge5" class="edge">
<title>ID_95_ct1_st0&#45;&gt;ID_95_ct1_st012</title>
<path fill="none" stroke="black" d="M256.08,-65.4C283.32,-80.9 318.45,-100.89 347.18,-117.25"/>
<polygon fill="black" stroke="black" points="345.45,-120.29 355.87,-122.2 348.91,-114.21 345.45,-120.29"/>
<text text-anchor="start" x="292" y="-100.11" font-family="arial" font-size="14.00" fill="#377eb8">true</text>
</g>
<!-- ID_95_ct1_st0123 -->
<g id="node6" class="node">
<title>ID_95_ct1_st0123</title>
<polygon fill="none" stroke="black" points="686,-134.31 557,-134.31 557,-84.31 686,-84.31 686,-134.31"/>
<text text-anchor="start" x="565" y="-120.11" font-family="arial" font-weight="bold" font-size="14.00">ID_95_ct1_st0123</text>
<text text-anchor="start" x="592.5" y="-106.11" font-family="arial" font-size="14.00" fill="#984ea3">(P &amp;&amp; !R)</text>
<text text-anchor="start" x="609.5" y="-92.11" font-family="arial" font-size="14.00" fill="#ff7f00">true</text>
</g>
<!-- ID_95_ct1_st0&#45;&gt;ID_95_ct1_st0123 -->
<g id="edge6" class="edge">
<title>ID_95_ct1_st0&#45;&gt;ID_95_ct1_st0123</title>
<path fill="none" stroke="black" d="M264.61,-21.84C317.16,-6.23 399.74,10.55 468,-10.31 513.62,-24.25 516.89,-44.49 557,-70.31 561.31,-73.08 565.8,-75.93 570.33,-78.77"/>
<polygon fill="black" stroke="black" points="568.67,-81.86 579.01,-84.18 572.37,-75.92 568.67,-81.86"/>
<text text-anchor="start" x="389" y="-14.11" font-family="arial" font-size="14.00" fill="#377eb8">true</text>
</g>
<!-- _ID_95_ct1_st012 -->
<!-- _ID_95_ct1_st012&#45;&gt;ID_95_ct1_st012 -->
<g id="edge2" class="edge">
<title>_ID_95_ct1_st012&#45;&gt;ID_95_ct1_st012</title>
<path fill="none" stroke="black" d="M274.08,-147.31C291.95,-147.31 311.56,-147.31 329.88,-147.31"/>
<polygon fill="black" stroke="black" points="329.9,-150.81 339.9,-147.31 329.9,-143.81 329.9,-150.81"/>
</g>
<!-- ID_95_ct1_st012&#45;&gt;ID_95_ct1_st012 -->
<g id="edge13" class="edge">
<title>ID_95_ct1_st012&#45;&gt;ID_95_ct1_st012</title>
<path fill="none" stroke="black" d="M383.07,-172.49C382.27,-182.22 388.25,-190.31 401,-190.31 408.97,-190.31 414.29,-187.15 416.97,-182.4"/>
<polygon fill="black" stroke="black" points="420.42,-182.97 418.93,-172.49 413.56,-181.62 420.42,-182.97"/>
<text text-anchor="start" x="389" y="-194.11" font-family="arial" font-size="14.00" fill="#377eb8">true</text>
</g>
<!-- ID_95_ct1_st012&#45;&gt;ID_95_ct1_st0123 -->
<g id="edge14" class="edge">
<title>ID_95_ct1_st012&#45;&gt;ID_95_ct1_st0123</title>
<path fill="none" stroke="black" d="M462.09,-138.12C486.05,-134.34 513.86,-129.79 539,-125.31 541.64,-124.84 544.32,-124.35 547.03,-123.86"/>
<polygon fill="black" stroke="black" points="547.73,-127.29 556.92,-122.01 546.45,-120.4 547.73,-127.29"/>
<text text-anchor="start" x="500.5" y="-137.11" font-family="arial" font-size="14.00" fill="#377eb8">true</text>
</g>
<!-- ID_95_ct1_st02 -->
<g id="node7" class="node">
<title>ID_95_ct1_st02</title>
<polygon fill="none" stroke="black" points="1071,-202.31 957,-202.31 957,-152.31 1071,-152.31 1071,-202.31"/>
<text text-anchor="start" x="965" y="-188.11" font-family="arial" font-weight="bold" font-size="14.00">ID_95_ct1_st02</text>
<text text-anchor="start" x="985" y="-174.11" font-family="arial" font-size="14.00" fill="#984ea3">(!P &amp;&amp; R)</text>
<text text-anchor="start" x="1002" y="-160.11" font-family="arial" font-size="14.00" fill="#ff7f00">true</text>
</g>
<!-- ID_95_ct1_st012&#45;&gt;ID_95_ct1_st02 -->
<g id="edge11" class="edge">
<title>ID_95_ct1_st012&#45;&gt;ID_95_ct1_st02</title>
<path fill="none" stroke="black" d="M426.14,-172.55C441.8,-187.36 463.43,-205.12 486,-215.31 515.17,-228.48 525.18,-223.88 557,-227.31 725.9,-245.54 776.12,-262.55 939,-214.31 945.91,-212.26 952.96,-209.6 959.82,-206.63"/>
<polygon fill="black" stroke="black" points="961.38,-209.77 969.03,-202.44 958.48,-203.4 961.38,-209.77"/>
<text text-anchor="start" x="704" y="-248.11" font-family="arial" font-size="14.00" fill="#377eb8">true</text>
</g>
<!-- ID_95_ct1_st023 -->
<g id="node8" class="node">
<title>ID_95_ct1_st023</title>
<polygon fill="none" stroke="black" points="868,-83.31 746,-83.31 746,-33.31 868,-33.31 868,-83.31"/>
<text text-anchor="start" x="754" y="-69.11" font-family="arial" font-weight="bold" font-size="14.00">ID_95_ct1_st023</text>
<text text-anchor="start" x="776.5" y="-55.11" font-family="arial" font-size="14.00" fill="#984ea3">(!P &amp;&amp; !R)</text>
<text text-anchor="start" x="795" y="-41.11" font-family="arial" font-size="14.00" fill="#ff7f00">true</text>
</g>
<!-- ID_95_ct1_st012&#45;&gt;ID_95_ct1_st023 -->
<g id="edge12" class="edge">
<title>ID_95_ct1_st012&#45;&gt;ID_95_ct1_st023</title>
<path fill="none" stroke="black" d="M462.01,-169.5C521.18,-187.74 613.07,-206.16 686,-176.31 707.81,-167.38 749.79,-122.84 777.85,-91.12"/>
<polygon fill="black" stroke="black" points="780.7,-93.19 784.67,-83.37 775.44,-88.57 780.7,-93.19"/>
<text text-anchor="start" x="609.5" y="-195.11" font-family="arial" font-size="14.00" fill="#377eb8">true</text>
</g>
<!-- _ID_95_ct1_st0123 -->
<!-- _ID_95_ct1_st0123&#45;&gt;ID_95_ct1_st0123 -->
<g id="edge3" class="edge">
<title>_ID_95_ct1_st0123&#45;&gt;ID_95_ct1_st0123</title>
<path fill="none" stroke="black" d="M468.15,-69.57C492.99,-76.05 521.37,-83.45 546.85,-90.1"/>
<polygon fill="black" stroke="black" points="546.26,-93.56 556.82,-92.7 548.03,-86.79 546.26,-93.56"/>
</g>
<!-- ID_95_ct1_st0123&#45;&gt;ID_95_ct1_st012 -->
<g id="edge21" class="edge">
<title>ID_95_ct1_st0123&#45;&gt;ID_95_ct1_st012</title>
<path fill="none" stroke="black" d="M556.89,-101.47C534.26,-100.36 508.76,-101.05 486,-106.31 474.99,-108.85 463.76,-113.04 453.24,-117.8"/>
<polygon fill="black" stroke="black" points="451.73,-114.64 444.2,-122.1 454.74,-120.96 451.73,-114.64"/>
<text text-anchor="start" x="486" y="-110.11" font-family="arial" font-size="14.00" fill="#377eb8">(S&#39; || !R&#39;)</text>
</g>
<!-- ID_95_ct1_st0123&#45;&gt;ID_95_ct1_st0123 -->
<g id="edge22" class="edge">
<title>ID_95_ct1_st0123&#45;&gt;ID_95_ct1_st0123</title>
<path fill="none" stroke="black" d="M603.94,-134.49C603.16,-144.22 609.02,-152.31 621.5,-152.31 629.3,-152.31 634.51,-149.15 637.14,-144.4"/>
<polygon fill="black" stroke="black" points="640.59,-144.97 639.06,-134.49 633.72,-143.64 640.59,-144.97"/>
<text text-anchor="start" x="609.5" y="-156.11" font-family="arial" font-size="14.00" fill="#377eb8">true</text>
</g>
<!-- ID_95_ct1_st0123&#45;&gt;ID_95_ct1_st02 -->
<g id="edge19" class="edge">
<title>ID_95_ct1_st0123&#45;&gt;ID_95_ct1_st02</title>
<path fill="none" stroke="black" d="M661.35,-134.43C684.84,-148.15 715.97,-163.84 746,-171.31 812.79,-187.93 891.89,-187.29 946.57,-183.82"/>
<polygon fill="black" stroke="black" points="947.09,-187.3 956.83,-183.12 946.61,-180.31 947.09,-187.3"/>
<text text-anchor="start" x="780.5" y="-189.11" font-family="arial" font-size="14.00" fill="#377eb8">(S&#39; || !R&#39;)</text>
</g>
<!-- ID_95_ct1_st0123&#45;&gt;ID_95_ct1_st023 -->
<g id="edge20" class="edge">
<title>ID_95_ct1_st0123&#45;&gt;ID_95_ct1_st023</title>
<path fill="none" stroke="black" d="M686.05,-108.11C700.07,-106.68 714.7,-104.27 728,-100.31 738.05,-97.32 748.29,-92.94 757.89,-88.12"/>
<polygon fill="black" stroke="black" points="759.65,-91.15 766.88,-83.4 756.4,-84.95 759.65,-91.15"/>
<text text-anchor="start" x="704" y="-109.11" font-family="arial" font-size="14.00" fill="#377eb8">true</text>
</g>
<!-- ID_95_ct1_st02&#45;&gt;ID_95_ct1_st012 -->
<g id="edge9" class="edge">
<title>ID_95_ct1_st02&#45;&gt;ID_95_ct1_st012</title>
<path fill="none" stroke="black" d="M956.7,-194.49C950.76,-195.94 944.78,-197.26 939,-198.31 907.85,-203.99 899.61,-202.45 868,-204.31 729.99,-212.41 694.5,-224.68 557,-210.31 524.92,-206.96 516.14,-206.78 486,-195.31 473.49,-190.55 460.63,-184.1 448.85,-177.48"/>
<polygon fill="black" stroke="black" points="450.48,-174.38 440.07,-172.4 446.98,-180.44 450.48,-174.38"/>
<text text-anchor="start" x="704" y="-219.11" font-family="arial" font-size="14.00" fill="#377eb8">true</text>
</g>
<!-- ID_95_ct1_st02&#45;&gt;ID_95_ct1_st0123 -->
<g id="edge10" class="edge">
<title>ID_95_ct1_st02&#45;&gt;ID_95_ct1_st0123</title>
<path fill="none" stroke="black" d="M956.86,-167.89C894.92,-157.45 792.29,-140.01 704,-124.31 701.37,-123.84 698.69,-123.36 695.98,-122.88"/>
<polygon fill="black" stroke="black" points="696.57,-119.43 686.11,-121.09 695.33,-126.32 696.57,-119.43"/>
<text text-anchor="start" x="795" y="-156.11" font-family="arial" font-size="14.00" fill="#377eb8">true</text>
</g>
<!-- ID_95_ct1_st02&#45;&gt;ID_95_ct1_st02 -->
<g id="edge7" class="edge">
<title>ID_95_ct1_st02&#45;&gt;ID_95_ct1_st02</title>
<path fill="none" stroke="black" d="M995.32,-202.49C994.49,-212.22 1000.72,-220.31 1014,-220.31 1022.3,-220.31 1027.85,-217.15 1030.63,-212.4"/>
<polygon fill="black" stroke="black" points="1034.09,-212.99 1032.68,-202.49 1027.23,-211.57 1034.09,-212.99"/>
<text text-anchor="start" x="1002" y="-224.11" font-family="arial" font-size="14.00" fill="#377eb8">true</text>
</g>
<!-- ID_95_ct1_st02&#45;&gt;ID_95_ct1_st023 -->
<g id="edge8" class="edge">
<title>ID_95_ct1_st02&#45;&gt;ID_95_ct1_st023</title>
<path fill="none" stroke="black" d="M1000.99,-151.98C988.75,-129.09 967.5,-96.45 939,-79.31 920.85,-68.39 898.84,-62.61 878.08,-59.68"/>
<polygon fill="black" stroke="black" points="878.36,-56.19 868.01,-58.46 877.52,-63.14 878.36,-56.19"/>
<text text-anchor="start" x="900.5" y="-83.11" font-family="arial" font-size="14.00" fill="#377eb8">true</text>
</g>
<!-- ID_95_ct1_st023&#45;&gt;ID_95_ct1_st012 -->
<g id="edge17" class="edge">
<title>ID_95_ct1_st023&#45;&gt;ID_95_ct1_st012</title>
<path fill="none" stroke="black" d="M745.94,-51.19C694.91,-46.94 620.11,-44.96 557,-60.31 514.97,-70.53 472.5,-95.64 442.67,-116.27"/>
<polygon fill="black" stroke="black" points="440.38,-113.61 434.22,-122.23 444.41,-119.33 440.38,-113.61"/>
<text text-anchor="start" x="595" y="-64.11" font-family="arial" font-size="14.00" fill="#377eb8">(S&#39; || !R&#39;)</text>
</g>
<!-- ID_95_ct1_st023&#45;&gt;ID_95_ct1_st0123 -->
<g id="edge18" class="edge">
<title>ID_95_ct1_st023&#45;&gt;ID_95_ct1_st0123</title>
<path fill="none" stroke="black" d="M745.79,-73.95C732.03,-77.61 717.5,-81.54 704,-85.31 701.36,-86.05 698.68,-86.8 695.96,-87.57"/>
<polygon fill="black" stroke="black" points="694.73,-84.29 686.07,-90.4 696.65,-91.02 694.73,-84.29"/>
<text text-anchor="start" x="704" y="-89.11" font-family="arial" font-size="14.00" fill="#377eb8">true</text>
</g>
<!-- ID_95_ct1_st023&#45;&gt;ID_95_ct1_st02 -->
<g id="edge15" class="edge">
<title>ID_95_ct1_st023&#45;&gt;ID_95_ct1_st02</title>
<path fill="none" stroke="black" d="M863.61,-83.33C887.33,-94.65 915.02,-108.75 939,-123.31 950.26,-130.15 961.99,-138.21 972.7,-146"/>
<polygon fill="black" stroke="black" points="970.91,-149.03 981.03,-152.15 975.07,-143.4 970.91,-149.03"/>
<text text-anchor="start" x="886" y="-127.11" font-family="arial" font-size="14.00" fill="#377eb8">(S&#39; || !R&#39;)</text>
</g>
<!-- ID_95_ct1_st023&#45;&gt;ID_95_ct1_st023 -->
<g id="edge16" class="edge">
<title>ID_95_ct1_st023&#45;&gt;ID_95_ct1_st023</title>
<path fill="none" stroke="black" d="M790.19,-83.49C789.44,-93.22 795.05,-101.31 807,-101.31 814.47,-101.31 819.46,-98.15 821.97,-93.4"/>
<polygon fill="black" stroke="black" points="825.43,-93.96 823.81,-83.49 818.54,-92.68 825.43,-93.96"/>
<text text-anchor="start" x="795" y="-105.11" font-family="arial" font-size="14.00" fill="#377eb8">true</text>
</g>
</g>
</svg>
