<?xml version="1.0" encoding="UTF-8" standalone="no"?>
<!DOCTYPE svg PUBLIC "-//W3C//DTD SVG 1.1//EN"
 "http://www.w3.org/Graphics/SVG/1.1/DTD/svg11.dtd">
<!-- Generated by graphviz version 2.43.0 (0)
 -->
<!-- Title: G Pages: 1 -->
<svg width="1837pt" height="963pt"
 viewBox="0.00 0.00 1837.00 963.00" xmlns="http://www.w3.org/2000/svg" xmlns:xlink="http://www.w3.org/1999/xlink">
<g id="graph0" class="graph" transform="scale(1 1) rotate(0) translate(4 959)">
<title>G</title>
<polygon fill="white" stroke="transparent" points="-4,4 -4,-959 1833,-959 1833,4 -4,4"/>
<!-- _ID_76_ct0_st0 -->
<!-- ID_76_ct0_st0 -->
<g id="node2" class="node">
<title>ID_76_ct0_st0</title>
<polygon fill="none" stroke="black" points="261,-749 154,-749 154,-699 261,-699 261,-749"/>
<text text-anchor="start" x="162" y="-734.8" font-family="arial" font-weight="bold" font-size="14.00">ID_76_ct0_st0</text>
<text text-anchor="start" x="201" y="-720.8" font-family="arial" font-size="14.00" fill="#984ea3">!P</text>
<text text-anchor="start" x="195.5" y="-706.8" font-family="arial" font-size="14.00" fill="#ff7f00">true</text>
</g>
<!-- _ID_76_ct0_st0&#45;&gt;ID_76_ct0_st0 -->
<g id="edge1" class="edge">
<title>_ID_76_ct0_st0&#45;&gt;ID_76_ct0_st0</title>
<path fill="none" stroke="black" d="M111.08,-724C121.62,-724 132.74,-724 143.52,-724"/>
<polygon fill="black" stroke="black" points="143.72,-727.5 153.72,-724 143.72,-720.5 143.72,-727.5"/>
</g>
<!-- ID_76_ct0_st0&#45;&gt;ID_76_ct0_st0 -->
<g id="edge5" class="edge">
<title>ID_76_ct0_st0&#45;&gt;ID_76_ct0_st0</title>
<path fill="none" stroke="black" d="M192.93,-749.18C192.28,-758.91 197.14,-767 207.5,-767 213.97,-767 218.3,-763.84 220.47,-759.09"/>
<polygon fill="black" stroke="black" points="223.94,-759.6 222.07,-749.18 217.03,-758.49 223.94,-759.6"/>
<text text-anchor="start" x="195.5" y="-770.8" font-family="arial" font-size="14.00" fill="#377eb8">true</text>
</g>
<!-- ID_76_ct0_st01 -->
<g id="node4" class="node">
<title>ID_76_ct0_st01</title>
<polygon fill="none" stroke="black" points="441,-466 327,-466 327,-416 441,-416 441,-466"/>
<text text-anchor="start" x="335" y="-451.8" font-family="arial" font-weight="bold" font-size="14.00">ID_76_ct0_st01</text>
<text text-anchor="start" x="356.5" y="-437.8" font-family="arial" font-size="14.00" fill="#984ea3">(P &amp;&amp; Q)</text>
<text text-anchor="start" x="372" y="-423.8" font-family="arial" font-size="14.00" fill="#ff7f00">true</text>
</g>
<!-- ID_76_ct0_st0&#45;&gt;ID_76_ct0_st01 -->
<g id="edge6" class="edge">
<title>ID_76_ct0_st0&#45;&gt;ID_76_ct0_st01</title>
<path fill="none" stroke="black" d="M223.99,-698.89C255.42,-647.91 326.72,-532.27 362.18,-474.77"/>
<polygon fill="black" stroke="black" points="365.28,-476.41 367.55,-466.06 359.32,-472.73 365.28,-476.41"/>
<text text-anchor="start" x="285" y="-602.8" font-family="arial" font-size="14.00" fill="#377eb8">true</text>
</g>
<!-- ID_76_ct0_st012 -->
<g id="node6" class="node">
<title>ID_76_ct0_st012</title>
<polygon fill="none" stroke="black" points="1634,-642 1512,-642 1512,-592 1634,-592 1634,-642"/>
<text text-anchor="start" x="1520" y="-627.8" font-family="arial" font-weight="bold" font-size="14.00">ID_76_ct0_st012</text>
<text text-anchor="start" x="1521.5" y="-613.8" font-family="arial" font-size="14.00" fill="#984ea3">(P &amp;&amp; (!Q &amp;&amp; R))</text>
<text text-anchor="start" x="1561" y="-599.8" font-family="arial" font-size="14.00" fill="#ff7f00">true</text>
</g>
<!-- ID_76_ct0_st0&#45;&gt;ID_76_ct0_st012 -->
<g id="edge7" class="edge">
<title>ID_76_ct0_st0&#45;&gt;ID_76_ct0_st012</title>
<path fill="none" stroke="black" d="M239.16,-749.2C272.44,-773.95 328.2,-808 383,-808 383,-808 383,-808 1320,-808 1422.91,-808 1510.24,-705.57 1549.62,-650.73"/>
<polygon fill="black" stroke="black" points="1552.62,-652.55 1555.52,-642.36 1546.9,-648.52 1552.62,-652.55"/>
<text text-anchor="start" x="809" y="-811.8" font-family="arial" font-size="14.00" fill="#377eb8">true</text>
</g>
<!-- ID_76_ct0_st0123 -->
<g id="node8" class="node">
<title>ID_76_ct0_st0123</title>
<polygon fill="none" stroke="black" points="1829,-323 1700,-323 1700,-273 1829,-273 1829,-323"/>
<text text-anchor="start" x="1708" y="-308.8" font-family="arial" font-weight="bold" font-size="14.00">ID_76_ct0_st0123</text>
<text text-anchor="start" x="1711" y="-294.8" font-family="arial" font-size="14.00" fill="#984ea3">(P &amp;&amp; (!Q &amp;&amp; !R))</text>
<text text-anchor="start" x="1752.5" y="-280.8" font-family="arial" font-size="14.00" fill="#ff7f00">true</text>
</g>
<!-- ID_76_ct0_st0&#45;&gt;ID_76_ct0_st0123 -->
<g id="edge8" class="edge">
<title>ID_76_ct0_st0&#45;&gt;ID_76_ct0_st0123</title>
<path fill="none" stroke="black" d="M211.19,-749.06C216.98,-790.25 234.51,-872.08 285,-916 318.83,-945.43 338.16,-940 383,-940 383,-940 383,-940 1574,-940 1623.17,-940 1648.79,-952.26 1682,-916 1760.69,-830.1 1764.67,-451.64 1763.94,-333.42"/>
<polygon fill="black" stroke="black" points="1767.44,-333.09 1763.86,-323.12 1760.44,-333.15 1767.44,-333.09"/>
<text text-anchor="start" x="915" y="-943.8" font-family="arial" font-size="14.00" fill="#377eb8">true</text>
</g>
<!-- _ID_76_ct0_st01 -->
<!-- _ID_76_ct0_st01&#45;&gt;ID_76_ct0_st01 -->
<g id="edge2" class="edge">
<title>_ID_76_ct0_st01&#45;&gt;ID_76_ct0_st01</title>
<path fill="none" stroke="black" d="M222.19,-225.36C251.51,-264.68 320.72,-357.48 358.06,-407.56"/>
<polygon fill="black" stroke="black" points="355.43,-409.88 364.21,-415.81 361.04,-405.7 355.43,-409.88"/>
</g>
<!-- ID_76_ct0_st01&#45;&gt;ID_76_ct0_st0 -->
<g id="edge9" class="edge">
<title>ID_76_ct0_st01&#45;&gt;ID_76_ct0_st0</title>
<path fill="none" stroke="black" d="M354.85,-466.03C333.58,-486.06 304.77,-515.73 285,-546 255,-591.95 232.16,-651.64 219.55,-688.88"/>
<polygon fill="black" stroke="black" points="216.1,-688.17 216.26,-698.76 222.74,-690.37 216.1,-688.17"/>
<text text-anchor="start" x="289.5" y="-549.8" font-family="arial" font-size="14.00" fill="#377eb8">Q&#39;</text>
</g>
<!-- ID_76_ct0_st01&#45;&gt;ID_76_ct0_st01 -->
<g id="edge12" class="edge">
<title>ID_76_ct0_st01&#45;&gt;ID_76_ct0_st01</title>
<path fill="none" stroke="black" d="M367.94,-466.18C367.22,-475.91 372.58,-484 384,-484 391.14,-484 395.91,-480.84 398.31,-476.09"/>
<polygon fill="black" stroke="black" points="401.76,-476.63 400.06,-466.18 394.87,-475.41 401.76,-476.63"/>
<text text-anchor="start" x="372" y="-487.8" font-family="arial" font-size="14.00" fill="#377eb8">true</text>
</g>
<!-- ID_76_ct0_st01&#45;&gt;ID_76_ct0_st012 -->
<g id="edge13" class="edge">
<title>ID_76_ct0_st01&#45;&gt;ID_76_ct0_st012</title>
<path fill="none" stroke="black" d="M441.21,-455.24C544.1,-480.5 769.99,-532.27 964,-551 1148.92,-568.86 1198.52,-523.84 1382,-553 1423.97,-559.67 1469.12,-574.53 1504.88,-588.26"/>
<polygon fill="black" stroke="black" points="1503.64,-591.53 1514.23,-591.91 1506.18,-585.01 1503.64,-591.53"/>
<text text-anchor="start" x="915" y="-552.8" font-family="arial" font-size="14.00" fill="#377eb8">true</text>
</g>
<!-- ID_76_ct0_st01&#45;&gt;ID_76_ct0_st0123 -->
<g id="edge14" class="edge">
<title>ID_76_ct0_st01&#45;&gt;ID_76_ct0_st0123</title>
<path fill="none" stroke="black" d="M437.17,-415.58C438.55,-414.13 439.83,-412.6 441,-411 467.1,-375.23 449.59,-356.27 459,-313 475.25,-238.21 446.27,-199.5 501,-146 512.26,-135 860.38,-51 926,-51 926,-51 926,-51 1574,-51 1679.65,-51 1734.44,-195 1754.45,-263.1"/>
<polygon fill="black" stroke="black" points="1751.15,-264.3 1757.25,-272.96 1757.88,-262.38 1751.15,-264.3"/>
<text text-anchor="start" x="1017.5" y="-54.8" font-family="arial" font-size="14.00" fill="#377eb8">true</text>
</g>
<!-- ID_76_ct0_st02 -->
<g id="node9" class="node">
<title>ID_76_ct0_st02</title>
<polygon fill="none" stroke="black" points="1380.5,-666 1257.5,-666 1257.5,-616 1380.5,-616 1380.5,-666"/>
<text text-anchor="start" x="1270" y="-651.8" font-family="arial" font-weight="bold" font-size="14.00">ID_76_ct0_st02</text>
<text text-anchor="start" x="1265.5" y="-637.8" font-family="arial" font-size="14.00" fill="#984ea3">(!P &amp;&amp; (!Q &amp;&amp; R))</text>
<text text-anchor="start" x="1307" y="-623.8" font-family="arial" font-size="14.00" fill="#ff7f00">true</text>
</g>
<!-- ID_76_ct0_st01&#45;&gt;ID_76_ct0_st02 -->
<g id="edge10" class="edge">
<title>ID_76_ct0_st01&#45;&gt;ID_76_ct0_st02</title>
<path fill="none" stroke="black" d="M393.03,-466.08C403.44,-494.1 424.46,-538.37 459,-560 589.68,-641.84 1065.74,-644.44 1247.14,-642.31"/>
<polygon fill="black" stroke="black" points="1247.41,-645.81 1257.37,-642.18 1247.32,-638.81 1247.41,-645.81"/>
<text text-anchor="start" x="809" y="-638.8" font-family="arial" font-size="14.00" fill="#377eb8">true</text>
</g>
<!-- ID_76_ct0_st023 -->
<g id="node10" class="node">
<title>ID_76_ct0_st023</title>
<polygon fill="none" stroke="black" points="628,-372 501,-372 501,-322 628,-322 628,-372"/>
<text text-anchor="start" x="511.5" y="-357.8" font-family="arial" font-weight="bold" font-size="14.00">ID_76_ct0_st023</text>
<text text-anchor="start" x="509" y="-343.8" font-family="arial" font-size="14.00" fill="#984ea3">(!P &amp;&amp; (!Q &amp;&amp; !R))</text>
<text text-anchor="start" x="552.5" y="-329.8" font-family="arial" font-size="14.00" fill="#ff7f00">true</text>
</g>
<!-- ID_76_ct0_st01&#45;&gt;ID_76_ct0_st023 -->
<g id="edge11" class="edge">
<title>ID_76_ct0_st01&#45;&gt;ID_76_ct0_st023</title>
<path fill="none" stroke="black" d="M403.55,-415.81C417.07,-399.33 436.85,-378.74 459,-367 468.91,-361.75 480,-357.86 491.15,-354.99"/>
<polygon fill="black" stroke="black" points="491.98,-358.39 500.93,-352.72 490.4,-351.57 491.98,-358.39"/>
<text text-anchor="start" x="459" y="-370.8" font-family="arial" font-size="14.00" fill="#377eb8">true</text>
</g>
<!-- _ID_76_ct0_st012 -->
<!-- _ID_76_ct0_st012&#45;&gt;ID_76_ct0_st012 -->
<g id="edge3" class="edge">
<title>_ID_76_ct0_st012&#45;&gt;ID_76_ct0_st012</title>
<path fill="none" stroke="black" d="M1382.29,-589.15C1418.4,-594.45 1463.97,-601.14 1501.4,-606.63"/>
<polygon fill="black" stroke="black" points="1501.32,-610.16 1511.73,-608.15 1502.34,-603.23 1501.32,-610.16"/>
</g>
<!-- ID_76_ct0_st012&#45;&gt;ID_76_ct0_st0 -->
<g id="edge21" class="edge">
<title>ID_76_ct0_st012&#45;&gt;ID_76_ct0_st0</title>
<path fill="none" stroke="black" d="M1563.44,-642.08C1551.16,-674.95 1525.78,-732.78 1488,-770 1427.81,-829.3 1404.5,-859 1320,-859 383,-859 383,-859 383,-859 316.67,-859 260.22,-797.22 230.65,-757.24"/>
<polygon fill="black" stroke="black" points="233.44,-755.14 224.75,-749.08 227.76,-759.23 233.44,-755.14"/>
<text text-anchor="start" x="813.5" y="-862.8" font-family="arial" font-size="14.00" fill="#377eb8">Q&#39;</text>
</g>
<!-- ID_76_ct0_st012&#45;&gt;ID_76_ct0_st01 -->
<g id="edge24" class="edge">
<title>ID_76_ct0_st012&#45;&gt;ID_76_ct0_st01</title>
<path fill="none" stroke="black" d="M1532.34,-642.08C1495.12,-664.09 1437.09,-694.64 1382,-708 1185.79,-755.6 1129.9,-724 928,-724 563.5,-724 563.5,-724 563.5,-724 514.79,-724 493.13,-725.75 459,-691 401.02,-631.96 388.11,-529.75 385.47,-476.14"/>
<polygon fill="black" stroke="black" points="388.96,-475.94 385.07,-466.09 381.97,-476.22 388.96,-475.94"/>
<text text-anchor="start" x="915" y="-727.8" font-family="arial" font-size="14.00" fill="#377eb8">true</text>
</g>
<!-- ID_76_ct0_st012&#45;&gt;ID_76_ct0_st012 -->
<g id="edge25" class="edge">
<title>ID_76_ct0_st012&#45;&gt;ID_76_ct0_st012</title>
<path fill="none" stroke="black" d="M1555.07,-642.18C1554.27,-651.91 1560.25,-660 1573,-660 1580.97,-660 1586.29,-656.84 1588.97,-652.09"/>
<polygon fill="black" stroke="black" points="1592.42,-652.66 1590.93,-642.18 1585.56,-651.31 1592.42,-652.66"/>
<text text-anchor="start" x="1561" y="-663.8" font-family="arial" font-size="14.00" fill="#377eb8">true</text>
</g>
<!-- ID_76_ct0_st012&#45;&gt;ID_76_ct0_st0123 -->
<g id="edge26" class="edge">
<title>ID_76_ct0_st012&#45;&gt;ID_76_ct0_st0123</title>
<path fill="none" stroke="black" d="M1626.36,-591.96C1646.91,-579.49 1668.72,-562.44 1682,-541 1723.78,-473.54 1746.9,-382.16 1757.08,-332.91"/>
<polygon fill="black" stroke="black" points="1760.52,-333.56 1759.06,-323.07 1753.66,-332.18 1760.52,-333.56"/>
<text text-anchor="start" x="1658" y="-571.8" font-family="arial" font-size="14.00" fill="#377eb8">true</text>
</g>
<!-- ID_76_ct0_st012&#45;&gt;ID_76_ct0_st02 -->
<g id="edge22" class="edge">
<title>ID_76_ct0_st012&#45;&gt;ID_76_ct0_st02</title>
<path fill="none" stroke="black" d="M1511.59,-629.56C1503.68,-630.89 1495.67,-632.09 1488,-633 1456.35,-636.75 1421.16,-638.75 1391.19,-639.82"/>
<polygon fill="black" stroke="black" points="1390.7,-636.34 1380.82,-640.16 1390.93,-643.33 1390.7,-636.34"/>
<text text-anchor="start" x="1432" y="-642.8" font-family="arial" font-size="14.00" fill="#377eb8">true</text>
</g>
<!-- ID_76_ct0_st012&#45;&gt;ID_76_ct0_st023 -->
<g id="edge23" class="edge">
<title>ID_76_ct0_st012&#45;&gt;ID_76_ct0_st023</title>
<path fill="none" stroke="black" d="M1514.84,-591.79C1511.61,-589.11 1508.61,-586.19 1506,-583 1487.54,-560.48 1509.97,-539.11 1488,-520 1426.03,-466.11 832.42,-468.63 752,-452 702.84,-441.83 689.57,-437.93 646,-413 629.48,-403.55 612.92,-390.7 599.16,-378.85"/>
<polygon fill="black" stroke="black" points="601.22,-376 591.4,-372.03 596.6,-381.26 601.22,-376"/>
<text text-anchor="start" x="1017.5" y="-473.8" font-family="arial" font-size="14.00" fill="#377eb8">true</text>
</g>
<!-- _ID_76_ct0_st0123 -->
<!-- _ID_76_ct0_st0123&#45;&gt;ID_76_ct0_st0123 -->
<g id="edge4" class="edge">
<title>_ID_76_ct0_st0123&#45;&gt;ID_76_ct0_st0123</title>
<path fill="none" stroke="black" d="M1640.03,-543.6C1655.3,-538.14 1670.45,-530.29 1682,-519 1733.91,-468.28 1753.02,-381.67 1759.85,-333.31"/>
<polygon fill="black" stroke="black" points="1763.33,-333.68 1761.17,-323.31 1756.39,-332.77 1763.33,-333.68"/>
</g>
<!-- ID_76_ct0_st0123&#45;&gt;ID_76_ct0_st0 -->
<g id="edge33" class="edge">
<title>ID_76_ct0_st0123&#45;&gt;ID_76_ct0_st0</title>
<path fill="none" stroke="black" d="M1761.2,-323.18C1750.09,-437.5 1697.36,-902 1574,-902 383,-902 383,-902 383,-902 303.35,-902 248.04,-810 223.23,-758.28"/>
<polygon fill="black" stroke="black" points="226.36,-756.71 218.96,-749.13 220.02,-759.67 226.36,-756.71"/>
<text text-anchor="start" x="919.5" y="-905.8" font-family="arial" font-size="14.00" fill="#377eb8">Q&#39;</text>
</g>
<!-- ID_76_ct0_st0123&#45;&gt;ID_76_ct0_st01 -->
<g id="edge36" class="edge">
<title>ID_76_ct0_st0123&#45;&gt;ID_76_ct0_st01</title>
<path fill="none" stroke="black" d="M1759.86,-272.85C1747.89,-201.01 1702.91,0 1574,0 563.5,0 563.5,0 563.5,0 477.07,0 479.6,-80.06 459,-164 446.57,-214.63 468.43,-349.56 442.24,-406.91"/>
<polygon fill="black" stroke="black" points="439.14,-405.29 437.41,-415.74 445.28,-408.65 439.14,-405.29"/>
<text text-anchor="start" x="1017.5" y="-3.8" font-family="arial" font-size="14.00" fill="#377eb8">true</text>
</g>
<!-- ID_76_ct0_st0123&#45;&gt;ID_76_ct0_st0123 -->
<g id="edge38" class="edge">
<title>ID_76_ct0_st0123&#45;&gt;ID_76_ct0_st0123</title>
<path fill="none" stroke="black" d="M1746.94,-323.18C1746.16,-332.91 1752.02,-341 1764.5,-341 1772.3,-341 1777.51,-337.84 1780.14,-333.09"/>
<polygon fill="black" stroke="black" points="1783.59,-333.66 1782.06,-323.18 1776.72,-332.33 1783.59,-333.66"/>
<text text-anchor="start" x="1752.5" y="-344.8" font-family="arial" font-size="14.00" fill="#377eb8">true</text>
</g>
<!-- ID_76_ct0_st0123&#45;&gt;ID_76_ct0_st023 -->
<g id="edge35" class="edge">
<title>ID_76_ct0_st0123&#45;&gt;ID_76_ct0_st023</title>
<path fill="none" stroke="black" d="M1699.9,-293.01C1693.85,-292.63 1687.81,-292.28 1682,-292 1603.87,-288.2 1584.22,-290.9 1506,-291 1331.33,-291.22 1287.44,-283.04 1113,-292 942.42,-300.76 743.05,-324.11 638.31,-337.4"/>
<polygon fill="black" stroke="black" points="637.64,-333.96 628.16,-338.69 638.53,-340.9 637.64,-333.96"/>
<text text-anchor="start" x="1163.5" y="-295.8" font-family="arial" font-size="14.00" fill="#377eb8">true</text>
</g>
<!-- ID_76_ct0_st024X -->
<g id="node11" class="node">
<title>ID_76_ct0_st024X</title>
<polygon fill="none" stroke="black" points="1095,-238 964,-238 964,-188 1095,-188 1095,-238"/>
<text text-anchor="start" x="972" y="-223.8" font-family="arial" font-weight="bold" font-size="14.00">ID_76_ct0_st024X</text>
<text text-anchor="start" x="976" y="-209.8" font-family="arial" font-size="14.00" fill="#984ea3">(!P &amp;&amp; (!Q &amp;&amp; R))</text>
<text text-anchor="start" x="1006.5" y="-195.8" font-family="arial" font-size="14.00" fill="#ff7f00">c0 &lt;= 5</text>
</g>
<!-- ID_76_ct0_st0123&#45;&gt;ID_76_ct0_st024X -->
<g id="edge34" class="edge">
<title>ID_76_ct0_st0123&#45;&gt;ID_76_ct0_st024X</title>
<path fill="none" stroke="black" d="M1731.91,-272.96C1717.46,-262.74 1699.66,-251.75 1682,-245 1600.5,-213.86 1574.98,-221.88 1488,-215 1353.43,-204.36 1195.91,-206.97 1105.21,-209.92"/>
<polygon fill="black" stroke="black" points="1104.9,-206.43 1095.03,-210.26 1105.14,-213.42 1104.9,-206.43"/>
<text text-anchor="start" x="1432" y="-233.8" font-family="arial" font-size="14.00" fill="#377eb8">true</text>
<text text-anchor="start" x="1425" y="-218.8" font-family="arial" font-size="14.00">c0 :=0</text>
</g>
<!-- ID_76_ct0_st0124X -->
<g id="node12" class="node">
<title>ID_76_ct0_st0124X</title>
<polygon fill="none" stroke="black" points="890,-410 752,-410 752,-360 890,-360 890,-410"/>
<text text-anchor="start" x="760" y="-395.8" font-family="arial" font-weight="bold" font-size="14.00">ID_76_ct0_st0124X</text>
<text text-anchor="start" x="769.5" y="-381.8" font-family="arial" font-size="14.00" fill="#984ea3">(P &amp;&amp; (!Q &amp;&amp; R))</text>
<text text-anchor="start" x="798" y="-367.8" font-family="arial" font-size="14.00" fill="#ff7f00">c0 &lt;= 5</text>
</g>
<!-- ID_76_ct0_st0123&#45;&gt;ID_76_ct0_st0124X -->
<g id="edge37" class="edge">
<title>ID_76_ct0_st0123&#45;&gt;ID_76_ct0_st0124X</title>
<path fill="none" stroke="black" d="M1699.62,-296.08C1603.23,-293.89 1414.97,-292.43 1256,-308 1130.54,-320.29 986.84,-348.65 900.32,-367.3"/>
<polygon fill="black" stroke="black" points="899.35,-363.93 890.32,-369.47 900.83,-370.77 899.35,-363.93"/>
<text text-anchor="start" x="1307" y="-326.8" font-family="arial" font-size="14.00" fill="#377eb8">true</text>
<text text-anchor="start" x="1300" y="-311.8" font-family="arial" font-size="14.00">c0 :=0</text>
</g>
<!-- ID_76_ct0_st02&#45;&gt;ID_76_ct0_st0 -->
<g id="edge15" class="edge">
<title>ID_76_ct0_st02&#45;&gt;ID_76_ct0_st0</title>
<path fill="none" stroke="black" d="M1283.67,-666.07C1231.65,-701.51 1128.52,-762 1030.5,-762 383,-762 383,-762 383,-762 345.35,-762 304.15,-753.45 271.25,-744.46"/>
<polygon fill="black" stroke="black" points="271.89,-741 261.31,-741.67 269.99,-747.74 271.89,-741"/>
<text text-anchor="start" x="682.5" y="-765.8" font-family="arial" font-size="14.00" fill="#377eb8">Q&#39;</text>
</g>
<!-- ID_76_ct0_st02&#45;&gt;ID_76_ct0_st01 -->
<g id="edge18" class="edge">
<title>ID_76_ct0_st02&#45;&gt;ID_76_ct0_st01</title>
<path fill="none" stroke="black" d="M1257.45,-653.57C1250.91,-654.57 1244.33,-655.41 1238,-656 1182.68,-661.14 1168.56,-656.15 1113,-656 840.2,-655.24 752.39,-714.94 501,-609 444.76,-585.3 411.69,-517.47 396.07,-475.6"/>
<polygon fill="black" stroke="black" points="399.32,-474.3 392.65,-466.07 392.74,-476.67 399.32,-474.3"/>
<text text-anchor="start" x="809" y="-675.8" font-family="arial" font-size="14.00" fill="#377eb8">true</text>
</g>
<!-- ID_76_ct0_st02&#45;&gt;ID_76_ct0_st012 -->
<g id="edge19" class="edge">
<title>ID_76_ct0_st02&#45;&gt;ID_76_ct0_st012</title>
<path fill="none" stroke="black" d="M1380.77,-621.67C1387.21,-620.18 1393.71,-618.91 1400,-618 1433.06,-613.24 1470.07,-612.45 1501.26,-613.07"/>
<polygon fill="black" stroke="black" points="1501.52,-616.58 1511.6,-613.33 1501.69,-609.58 1501.52,-616.58"/>
<text text-anchor="start" x="1432" y="-621.8" font-family="arial" font-size="14.00" fill="#377eb8">true</text>
</g>
<!-- ID_76_ct0_st02&#45;&gt;ID_76_ct0_st0123 -->
<g id="edge20" class="edge">
<title>ID_76_ct0_st02&#45;&gt;ID_76_ct0_st0123</title>
<path fill="none" stroke="black" d="M1367.46,-615.88C1372.43,-612.98 1377.36,-609.99 1382,-607 1439.9,-569.68 1450.43,-554.72 1506,-514 1583.6,-457.14 1610.19,-452.02 1682,-388 1701.65,-370.48 1721.52,-348.64 1736.72,-330.86"/>
<polygon fill="black" stroke="black" points="1739.58,-332.9 1743.36,-323.01 1734.23,-328.38 1739.58,-332.9"/>
<text text-anchor="start" x="1561" y="-517.8" font-family="arial" font-size="14.00" fill="#377eb8">true</text>
</g>
<!-- ID_76_ct0_st02&#45;&gt;ID_76_ct0_st02 -->
<g id="edge16" class="edge">
<title>ID_76_ct0_st02&#45;&gt;ID_76_ct0_st02</title>
<path fill="none" stroke="black" d="M1295.84,-666.18C1294.81,-675.91 1302.53,-684 1319,-684 1329.29,-684 1336.17,-680.84 1339.63,-676.09"/>
<polygon fill="black" stroke="black" points="1343.08,-676.73 1342.16,-666.18 1336.29,-675 1343.08,-676.73"/>
<text text-anchor="start" x="1307" y="-687.8" font-family="arial" font-size="14.00" fill="#377eb8">true</text>
</g>
<!-- ID_76_ct0_st02&#45;&gt;ID_76_ct0_st023 -->
<g id="edge17" class="edge">
<title>ID_76_ct0_st02&#45;&gt;ID_76_ct0_st023</title>
<path fill="none" stroke="black" d="M1257.32,-630.19C1250.8,-629.09 1244.27,-628 1238,-627 1104.42,-605.6 739.09,-583.16 646,-485 626.84,-464.8 640.94,-449.65 628,-425 619.65,-409.1 607.83,-393.3 596.72,-380.13"/>
<polygon fill="black" stroke="black" points="599.12,-377.55 589.93,-372.28 593.83,-382.13 599.12,-377.55"/>
<text text-anchor="start" x="915" y="-590.8" font-family="arial" font-size="14.00" fill="#377eb8">true</text>
</g>
<!-- ID_76_ct0_st023&#45;&gt;ID_76_ct0_st0 -->
<g id="edge27" class="edge">
<title>ID_76_ct0_st023&#45;&gt;ID_76_ct0_st0</title>
<path fill="none" stroke="black" d="M500.78,-341.71C447.75,-340.82 373.23,-348.58 327,-392 240.83,-472.94 217.23,-620.76 210.84,-688.44"/>
<polygon fill="black" stroke="black" points="207.34,-688.33 209.95,-698.6 214.31,-688.94 207.34,-688.33"/>
<text text-anchor="start" x="376.5" y="-395.8" font-family="arial" font-size="14.00" fill="#377eb8">Q&#39;</text>
</g>
<!-- ID_76_ct0_st023&#45;&gt;ID_76_ct0_st01 -->
<g id="edge30" class="edge">
<title>ID_76_ct0_st023&#45;&gt;ID_76_ct0_st01</title>
<path fill="none" stroke="black" d="M515.84,-372.1C493.07,-384.09 465.63,-398.54 441.78,-411.1"/>
<polygon fill="black" stroke="black" points="440.05,-408.05 432.83,-415.81 443.31,-414.25 440.05,-408.05"/>
<text text-anchor="start" x="459" y="-402.8" font-family="arial" font-size="14.00" fill="#377eb8">true</text>
</g>
<!-- ID_76_ct0_st023&#45;&gt;ID_76_ct0_st0123 -->
<g id="edge32" class="edge">
<title>ID_76_ct0_st023&#45;&gt;ID_76_ct0_st0123</title>
<path fill="none" stroke="black" d="M574.52,-321.8C586.29,-292.72 609.77,-245.73 646,-221 685.67,-193.92 704.49,-207.04 752,-200 1075.76,-152.01 1161.02,-160.51 1488,-175 1555.58,-177.99 1576.84,-158.75 1640,-183 1681.82,-199.06 1717.74,-236.96 1739.89,-264.88"/>
<polygon fill="black" stroke="black" points="1737.15,-267.06 1746.04,-272.83 1742.69,-262.78 1737.15,-267.06"/>
<text text-anchor="start" x="1163.5" y="-168.8" font-family="arial" font-size="14.00" fill="#377eb8">true</text>
</g>
<!-- ID_76_ct0_st023&#45;&gt;ID_76_ct0_st023 -->
<g id="edge29" class="edge">
<title>ID_76_ct0_st023&#45;&gt;ID_76_ct0_st023</title>
<path fill="none" stroke="black" d="M547.32,-372.18C546.55,-381.91 552.28,-390 564.5,-390 572.14,-390 577.24,-386.84 579.8,-382.09"/>
<polygon fill="black" stroke="black" points="583.26,-382.65 581.68,-372.18 576.38,-381.35 583.26,-382.65"/>
<text text-anchor="start" x="552.5" y="-393.8" font-family="arial" font-size="14.00" fill="#377eb8">true</text>
</g>
<!-- ID_76_ct0_st023&#45;&gt;ID_76_ct0_st024X -->
<g id="edge28" class="edge">
<title>ID_76_ct0_st023&#45;&gt;ID_76_ct0_st024X</title>
<path fill="none" stroke="black" d="M610.76,-322C622.08,-316.3 634.32,-310.58 646,-306 749.22,-265.56 875.21,-239.03 953.67,-225.02"/>
<polygon fill="black" stroke="black" points="954.7,-228.39 963.94,-223.2 953.49,-221.49 954.7,-228.39"/>
<text text-anchor="start" x="809" y="-289.8" font-family="arial" font-size="14.00" fill="#377eb8">true</text>
<text text-anchor="start" x="802" y="-274.8" font-family="arial" font-size="14.00">c0 :=0</text>
</g>
<!-- ID_76_ct0_st023&#45;&gt;ID_76_ct0_st0124X -->
<g id="edge31" class="edge">
<title>ID_76_ct0_st023&#45;&gt;ID_76_ct0_st0124X</title>
<path fill="none" stroke="black" d="M628.1,-365.25C634.12,-366.66 640.15,-367.94 646,-369 677.11,-374.64 711.73,-378.34 741.84,-380.74"/>
<polygon fill="black" stroke="black" points="741.63,-384.23 751.87,-381.51 742.16,-377.25 741.63,-384.23"/>
<text text-anchor="start" x="678" y="-397.8" font-family="arial" font-size="14.00" fill="#377eb8">true</text>
<text text-anchor="start" x="671" y="-382.8" font-family="arial" font-size="14.00">c0 :=0</text>
</g>
<!-- ID_76_ct0_st024X&#45;&gt;ID_76_ct0_st0 -->
<g id="edge39" class="edge">
<title>ID_76_ct0_st024X&#45;&gt;ID_76_ct0_st0</title>
<path fill="none" stroke="black" d="M1005.79,-187.91C970.37,-151.67 898.11,-89 822,-89 383,-89 383,-89 383,-89 257.63,-89 219,-555.03 210.5,-688.61"/>
<polygon fill="black" stroke="black" points="207,-688.52 209.87,-698.72 213.99,-688.95 207,-688.52"/>
<text text-anchor="start" x="557" y="-92.8" font-family="arial" font-size="14.00" fill="#377eb8">Q&#39;</text>
</g>
<!-- ID_76_ct0_st024X&#45;&gt;ID_76_ct0_st01 -->
<g id="edge43" class="edge">
<title>ID_76_ct0_st024X&#45;&gt;ID_76_ct0_st01</title>
<path fill="none" stroke="black" d="M985.49,-187.86C912.54,-148.74 761.25,-83.02 646,-136 588.01,-162.66 490.02,-298.22 459,-354 447.55,-374.59 455.59,-387.4 442.55,-407.68"/>
<polygon fill="black" stroke="black" points="439.63,-405.75 436.44,-415.85 445.23,-409.94 439.63,-405.75"/>
<text text-anchor="start" x="678" y="-139.8" font-family="arial" font-size="14.00" fill="#377eb8">true</text>
</g>
<!-- ID_76_ct0_st024X&#45;&gt;ID_76_ct0_st012 -->
<g id="edge44" class="edge">
<title>ID_76_ct0_st024X&#45;&gt;ID_76_ct0_st012</title>
<path fill="none" stroke="black" d="M1050.06,-238.14C1065.4,-256.29 1088.24,-280.13 1113,-295 1266.75,-387.33 1391.02,-293.14 1488,-444 1521.69,-496.4 1470.22,-532.01 1506,-583 1506.36,-583.51 1506.73,-584.01 1507.11,-584.51"/>
<polygon fill="black" stroke="black" points="1504.63,-586.99 1513.99,-591.95 1509.77,-582.24 1504.63,-586.99"/>
<text text-anchor="start" x="1256.5" y="-361.8" font-family="arial" font-size="14.00" fill="#377eb8">(Q&#39; || (c0 &gt;= 5 || !R&#39;))</text>
</g>
<!-- ID_76_ct0_st024X&#45;&gt;ID_76_ct0_st0123 -->
<g id="edge46" class="edge">
<title>ID_76_ct0_st024X&#45;&gt;ID_76_ct0_st0123</title>
<path fill="none" stroke="black" d="M1095.01,-201.01C1208.23,-182.58 1448.85,-155.11 1640,-213 1673.87,-223.26 1706.6,-246.6 1729.85,-266.23"/>
<polygon fill="black" stroke="black" points="1727.81,-269.09 1737.66,-272.99 1732.39,-263.8 1727.81,-269.09"/>
<text text-anchor="start" x="1400" y="-187.8" font-family="arial" font-size="14.00" fill="#377eb8">(Q&#39; || (R&#39; || S&#39;))</text>
</g>
<!-- ID_76_ct0_st024X&#45;&gt;ID_76_ct0_st02 -->
<g id="edge40" class="edge">
<title>ID_76_ct0_st024X&#45;&gt;ID_76_ct0_st02</title>
<path fill="none" stroke="black" d="M1032.28,-238.09C1036.99,-286.32 1053.86,-392.71 1113,-455 1154.2,-498.39 1200.26,-458.57 1238,-505 1267.03,-540.72 1229.18,-569.59 1256,-607 1256.36,-607.5 1256.72,-607.99 1257.1,-608.48"/>
<polygon fill="black" stroke="black" points="1254.54,-610.87 1263.92,-615.79 1259.66,-606.09 1254.54,-610.87"/>
<text text-anchor="start" x="1113" y="-508.8" font-family="arial" font-size="14.00" fill="#377eb8">(Q&#39; || (c0 &gt;= 5 || !R&#39;))</text>
</g>
<!-- ID_76_ct0_st024X&#45;&gt;ID_76_ct0_st023 -->
<g id="edge42" class="edge">
<title>ID_76_ct0_st024X&#45;&gt;ID_76_ct0_st023</title>
<path fill="none" stroke="black" d="M963.72,-206.35C906.98,-202.42 822.78,-201.2 752,-219 700.73,-231.9 689.42,-242.83 646,-273 628.48,-285.18 610.82,-300.93 596.53,-314.76"/>
<polygon fill="black" stroke="black" points="594.05,-312.29 589.38,-321.8 598.96,-317.28 594.05,-312.29"/>
<text text-anchor="start" x="777" y="-222.8" font-family="arial" font-size="14.00" fill="#377eb8">(Q&#39; || (R&#39; || S&#39;))</text>
</g>
<!-- ID_76_ct0_st024X&#45;&gt;ID_76_ct0_st024X -->
<g id="edge41" class="edge">
<title>ID_76_ct0_st024X&#45;&gt;ID_76_ct0_st024X</title>
<path fill="none" stroke="black" d="M1010.45,-238.18C1009.6,-247.91 1015.95,-256 1029.5,-256 1037.97,-256 1043.62,-252.84 1046.47,-248.09"/>
<polygon fill="black" stroke="black" points="1049.92,-248.68 1048.55,-238.18 1043.07,-247.24 1049.92,-248.68"/>
<text text-anchor="start" x="1010.5" y="-259.8" font-family="arial" font-size="14.00" fill="#377eb8">c0 &lt; 5</text>
</g>
<!-- ID_76_ct0_st024X&#45;&gt;ID_76_ct0_st0124X -->
<g id="edge45" class="edge">
<title>ID_76_ct0_st024X&#45;&gt;ID_76_ct0_st0124X</title>
<path fill="none" stroke="black" d="M1001.82,-238.17C985.88,-252.98 965.09,-271.9 946,-288 919.07,-310.72 887.81,-335.16 863.42,-353.82"/>
<polygon fill="black" stroke="black" points="861.25,-351.07 855.43,-359.92 865.5,-356.64 861.25,-351.07"/>
<text text-anchor="start" x="908" y="-322.8" font-family="arial" font-size="14.00" fill="#377eb8">c0 &lt; 5</text>
</g>
<!-- ID_76_ct0_st0124X&#45;&gt;ID_76_ct0_st0 -->
<g id="edge47" class="edge">
<title>ID_76_ct0_st0124X&#45;&gt;ID_76_ct0_st0</title>
<path fill="none" stroke="black" d="M797.45,-410.23C746.92,-465.12 618.37,-595.76 483,-662 415,-695.27 328.76,-710.98 271.26,-718.2"/>
<polygon fill="black" stroke="black" points="270.74,-714.74 261.23,-719.41 271.58,-721.69 270.74,-714.74"/>
<text text-anchor="start" x="463.5" y="-675.8" font-family="arial" font-size="14.00" fill="#377eb8">Q&#39;</text>
</g>
<!-- ID_76_ct0_st0124X&#45;&gt;ID_76_ct0_st01 -->
<g id="edge51" class="edge">
<title>ID_76_ct0_st0124X&#45;&gt;ID_76_ct0_st01</title>
<path fill="none" stroke="black" d="M751.85,-408.79C745.86,-410.39 739.85,-411.83 734,-413 636.85,-432.43 521.94,-438.47 451.27,-440.29"/>
<polygon fill="black" stroke="black" points="451.08,-436.8 441.17,-440.53 451.25,-443.79 451.08,-436.8"/>
<text text-anchor="start" x="552.5" y="-441.8" font-family="arial" font-size="14.00" fill="#377eb8">true</text>
</g>
<!-- ID_76_ct0_st0124X&#45;&gt;ID_76_ct0_st012 -->
<g id="edge52" class="edge">
<title>ID_76_ct0_st0124X&#45;&gt;ID_76_ct0_st012</title>
<path fill="none" stroke="black" d="M890,-398.04C896.08,-399.09 902.15,-400.09 908,-401 940.15,-405.98 1464.79,-459.2 1488,-482 1520.53,-513.95 1478.93,-546.31 1506,-583 1506.37,-583.5 1506.75,-584 1507.14,-584.49"/>
<polygon fill="black" stroke="black" points="1504.72,-587.02 1514.17,-591.83 1509.78,-582.18 1504.72,-587.02"/>
<text text-anchor="start" x="1113" y="-441.8" font-family="arial" font-size="14.00" fill="#377eb8">(Q&#39; || (c0 &gt;= 5 || !R&#39;))</text>
</g>
<!-- ID_76_ct0_st0124X&#45;&gt;ID_76_ct0_st0123 -->
<g id="edge54" class="edge">
<title>ID_76_ct0_st0124X&#45;&gt;ID_76_ct0_st0123</title>
<path fill="none" stroke="black" d="M890.36,-388.18C996.11,-392.17 1205.61,-396.35 1382,-377 1490.42,-365.11 1613.63,-336.85 1689.97,-317.57"/>
<polygon fill="black" stroke="black" points="1691.14,-320.88 1699.97,-315.02 1689.41,-314.1 1691.14,-320.88"/>
<text text-anchor="start" x="1275" y="-389.8" font-family="arial" font-size="14.00" fill="#377eb8">(Q&#39; || (R&#39; || S&#39;))</text>
</g>
<!-- ID_76_ct0_st0124X&#45;&gt;ID_76_ct0_st02 -->
<g id="edge48" class="edge">
<title>ID_76_ct0_st0124X&#45;&gt;ID_76_ct0_st02</title>
<path fill="none" stroke="black" d="M850.77,-410.21C878.33,-433.37 921.84,-467.42 964,-490 1078.14,-551.13 1128.71,-519.56 1238,-589 1247.55,-595.07 1246.95,-600.21 1256,-607 1257.42,-608.06 1258.87,-609.12 1260.36,-610.15"/>
<polygon fill="black" stroke="black" points="1258.83,-613.34 1269.11,-615.93 1262.69,-607.5 1258.83,-613.34"/>
<text text-anchor="start" x="967" y="-537.8" font-family="arial" font-size="14.00" fill="#377eb8">(Q&#39; || (c0 &gt;= 5 || !R&#39;))</text>
</g>
<!-- ID_76_ct0_st0124X&#45;&gt;ID_76_ct0_st023 -->
<g id="edge50" class="edge">
<title>ID_76_ct0_st0124X&#45;&gt;ID_76_ct0_st023</title>
<path fill="none" stroke="black" d="M766.82,-359.83C756.17,-355.81 744.9,-352.23 734,-350 703.1,-343.67 668.35,-342.14 638.47,-342.49"/>
<polygon fill="black" stroke="black" points="638.05,-338.99 628.12,-342.68 638.18,-345.99 638.05,-338.99"/>
<text text-anchor="start" x="646" y="-353.8" font-family="arial" font-size="14.00" fill="#377eb8">(Q&#39; || (R&#39; || S&#39;))</text>
</g>
<!-- ID_76_ct0_st0124X&#45;&gt;ID_76_ct0_st024X -->
<g id="edge49" class="edge">
<title>ID_76_ct0_st0124X&#45;&gt;ID_76_ct0_st024X</title>
<path fill="none" stroke="black" d="M842.08,-359.62C855.86,-341.99 874.4,-317.84 890,-296 898.38,-284.26 897.05,-278.39 908,-269 916.58,-261.64 936.25,-251.71 957.26,-242.25"/>
<polygon fill="black" stroke="black" points="958.92,-245.35 966.64,-238.1 956.08,-238.95 958.92,-245.35"/>
<text text-anchor="start" x="908" y="-272.8" font-family="arial" font-size="14.00" fill="#377eb8">c0 &lt; 5</text>
</g>
<!-- ID_76_ct0_st0124X&#45;&gt;ID_76_ct0_st0124X -->
<g id="edge53" class="edge">
<title>ID_76_ct0_st0124X&#45;&gt;ID_76_ct0_st0124X</title>
<path fill="none" stroke="black" d="M801.2,-410.18C800.32,-419.91 806.92,-428 821,-428 829.8,-428 835.68,-424.84 838.63,-420.09"/>
<polygon fill="black" stroke="black" points="842.08,-420.69 840.8,-410.18 835.24,-419.2 842.08,-420.69"/>
<text text-anchor="start" x="802" y="-431.8" font-family="arial" font-size="14.00" fill="#377eb8">c0 &lt; 5</text>
</g>
</g>
</svg>
