<?xml version="1.0" encoding="UTF-8" standalone="no"?>
<!DOCTYPE svg PUBLIC "-//W3C//DTD SVG 1.1//EN"
 "http://www.w3.org/Graphics/SVG/1.1/DTD/svg11.dtd">
<!-- Generated by graphviz version 2.43.0 (0)
 -->
<!-- Title: G Pages: 1 -->
<svg width="1132pt" height="279pt"
 viewBox="0.00 0.00 1132.00 279.20" xmlns="http://www.w3.org/2000/svg" xmlns:xlink="http://www.w3.org/1999/xlink">
<g id="graph0" class="graph" transform="scale(1 1) rotate(0) translate(4 275.2)">
<title>G</title>
<polygon fill="white" stroke="transparent" points="-4,4 -4,-275.2 1128,-275.2 1128,4 -4,4"/>
<!-- _ID_112_ct0_st -->
<!-- ID_112_ct0_st -->
<g id="node2" class="node">
<title>ID_112_ct0_st</title>
<polygon fill="none" stroke="black" points="1124,-137.2 1018,-137.2 1018,-87.2 1124,-87.2 1124,-137.2"/>
<text text-anchor="start" x="1026" y="-123" font-family="arial" font-weight="bold" font-size="14.00">ID_112_ct0_st</text>
<text text-anchor="start" x="1059" y="-109" font-family="arial" font-size="14.00" fill="#984ea3">true</text>
<text text-anchor="start" x="1059" y="-95" font-family="arial" font-size="14.00" fill="#ff7f00">true</text>
</g>
<!-- _ID_112_ct0_st&#45;&gt;ID_112_ct0_st -->
<g id="edge1" class="edge">
<title>_ID_112_ct0_st&#45;&gt;ID_112_ct0_st</title>
<path fill="none" stroke="black" d="M953.18,-243.45C969.37,-238.67 986.42,-231.6 1000,-221.2 1025.22,-201.89 1043.92,-170.71 1055.62,-146.63"/>
<polygon fill="black" stroke="black" points="1058.84,-148 1059.91,-137.46 1052.5,-145.04 1058.84,-148"/>
</g>
<!-- ID_112_ct0_st&#45;&gt;ID_112_ct0_st -->
<g id="edge4" class="edge">
<title>ID_112_ct0_st&#45;&gt;ID_112_ct0_st</title>
<path fill="none" stroke="black" d="M1056.81,-137.38C1056.17,-147.11 1060.91,-155.2 1071,-155.2 1077.31,-155.2 1081.52,-152.04 1083.64,-147.29"/>
<polygon fill="black" stroke="black" points="1087.11,-147.8 1085.19,-137.38 1080.19,-146.71 1087.11,-147.8"/>
<text text-anchor="start" x="1059" y="-159" font-family="arial" font-size="14.00" fill="#377eb8">true</text>
</g>
<!-- _ID_112_ct0_st0 -->
<!-- ID_112_ct0_st0 -->
<g id="node4" class="node">
<title>ID_112_ct0_st0</title>
<polygon fill="none" stroke="black" points="274,-144.2 161,-144.2 161,-94.2 274,-94.2 274,-144.2"/>
<text text-anchor="start" x="169" y="-130" font-family="arial" font-weight="bold" font-size="14.00">ID_112_ct0_st0</text>
<text text-anchor="start" x="188.5" y="-116" font-family="arial" font-size="14.00" fill="#984ea3">(!P &amp;&amp; R)</text>
<text text-anchor="start" x="205.5" y="-102" font-family="arial" font-size="14.00" fill="#ff7f00">true</text>
</g>
<!-- _ID_112_ct0_st0&#45;&gt;ID_112_ct0_st0 -->
<g id="edge2" class="edge">
<title>_ID_112_ct0_st0&#45;&gt;ID_112_ct0_st0</title>
<path fill="none" stroke="black" d="M118.27,-119.2C128.81,-119.2 139.87,-119.2 150.6,-119.2"/>
<polygon fill="black" stroke="black" points="150.77,-122.7 160.77,-119.2 150.77,-115.7 150.77,-122.7"/>
</g>
<!-- ID_112_ct0_st0&#45;&gt;ID_112_ct0_st -->
<g id="edge5" class="edge">
<title>ID_112_ct0_st0&#45;&gt;ID_112_ct0_st</title>
<path fill="none" stroke="black" d="M260.85,-144.42C308.61,-170.42 389.43,-207.2 464.5,-207.2 464.5,-207.2 464.5,-207.2 899,-207.2 952.07,-207.2 1004.06,-171.81 1036.52,-144.23"/>
<polygon fill="black" stroke="black" points="1039.1,-146.62 1044.34,-137.41 1034.5,-141.34 1039.1,-146.62"/>
<text text-anchor="start" x="675.5" y="-211" font-family="arial" font-size="14.00" fill="#377eb8">P&#39;</text>
</g>
<!-- ID_112_ct0_st0&#45;&gt;ID_112_ct0_st0 -->
<g id="edge6" class="edge">
<title>ID_112_ct0_st0&#45;&gt;ID_112_ct0_st0</title>
<path fill="none" stroke="black" d="M202.56,-144.38C201.89,-154.11 206.88,-162.2 217.5,-162.2 224.14,-162.2 228.58,-159.04 230.81,-154.29"/>
<polygon fill="black" stroke="black" points="234.27,-154.81 232.44,-144.38 227.36,-153.67 234.27,-154.81"/>
<text text-anchor="start" x="205.5" y="-166" font-family="arial" font-size="14.00" fill="#377eb8">true</text>
</g>
<!-- ID_112_ct0_st01 -->
<g id="node6" class="node">
<title>ID_112_ct0_st01</title>
<polygon fill="none" stroke="black" points="526,-50.2 405,-50.2 405,-0.2 526,-0.2 526,-50.2"/>
<text text-anchor="start" x="413" y="-36" font-family="arial" font-weight="bold" font-size="14.00">ID_112_ct0_st01</text>
<text text-anchor="start" x="435" y="-22" font-family="arial" font-size="14.00" fill="#984ea3">(!P &amp;&amp; !R)</text>
<text text-anchor="start" x="453.5" y="-8" font-family="arial" font-size="14.00" fill="#ff7f00">true</text>
</g>
<!-- ID_112_ct0_st0&#45;&gt;ID_112_ct0_st01 -->
<g id="edge7" class="edge">
<title>ID_112_ct0_st0&#45;&gt;ID_112_ct0_st01</title>
<path fill="none" stroke="black" d="M274.3,-98.08C282.21,-95.31 290.28,-92.6 298,-90.2 337.01,-78.08 348.98,-82.16 387,-67.2 395.88,-63.71 405.03,-59.43 413.79,-54.95"/>
<polygon fill="black" stroke="black" points="415.54,-57.98 422.76,-50.23 412.28,-51.79 415.54,-57.98"/>
<text text-anchor="start" x="330.5" y="-94" font-family="arial" font-size="14.00" fill="#377eb8">true</text>
</g>
<!-- _ID_112_ct0_st01 -->
<!-- _ID_112_ct0_st01&#45;&gt;ID_112_ct0_st01 -->
<g id="edge3" class="edge">
<title>_ID_112_ct0_st01&#45;&gt;ID_112_ct0_st01</title>
<path fill="none" stroke="black" d="M280.26,-19.96C314.97,-20.95 358.43,-22.18 394.42,-23.21"/>
<polygon fill="black" stroke="black" points="394.74,-26.72 404.84,-23.5 394.94,-19.72 394.74,-26.72"/>
</g>
<!-- ID_112_ct0_st01&#45;&gt;ID_112_ct0_st -->
<g id="edge8" class="edge">
<title>ID_112_ct0_st01&#45;&gt;ID_112_ct0_st</title>
<path fill="none" stroke="black" d="M526.27,-7.42C532.22,-6.13 538.2,-5.02 544,-4.2 573.49,-0.05 581.22,-3.42 611,-3.2 674.11,-2.73 690.24,3.41 753,-3.2 850.61,-13.48 876.15,-17.37 969,-49.2 990.5,-56.57 1012.18,-69.24 1029.9,-81.29"/>
<polygon fill="black" stroke="black" points="1028.06,-84.28 1038.27,-87.13 1032.07,-78.54 1028.06,-84.28"/>
<text text-anchor="start" x="783.5" y="-14" font-family="arial" font-size="14.00" fill="#377eb8">P&#39;</text>
</g>
<!-- ID_112_ct0_st01&#45;&gt;ID_112_ct0_st0 -->
<g id="edge9" class="edge">
<title>ID_112_ct0_st01&#45;&gt;ID_112_ct0_st0</title>
<path fill="none" stroke="black" d="M404.77,-29.77C364.94,-33.51 316.61,-39.6 298,-48.2 278.55,-57.2 260.43,-72.58 246.41,-86.74"/>
<polygon fill="black" stroke="black" points="243.86,-84.34 239.47,-93.99 248.91,-89.18 243.86,-84.34"/>
<text text-anchor="start" x="298" y="-52" font-family="arial" font-size="14.00" fill="#377eb8">(P&#39; || (S&#39; || !R&#39;))</text>
</g>
<!-- ID_112_ct0_st01&#45;&gt;ID_112_ct0_st01 -->
<g id="edge11" class="edge">
<title>ID_112_ct0_st01&#45;&gt;ID_112_ct0_st01</title>
<path fill="none" stroke="black" d="M446.45,-50.38C445.6,-60.11 451.95,-68.2 465.5,-68.2 473.97,-68.2 479.62,-65.04 482.47,-60.29"/>
<polygon fill="black" stroke="black" points="485.92,-60.88 484.55,-50.38 479.07,-59.44 485.92,-60.88"/>
<text text-anchor="start" x="453.5" y="-72" font-family="arial" font-size="14.00" fill="#377eb8">true</text>
</g>
<!-- ID_112_ct0_st023W -->
<g id="node7" class="node">
<title>ID_112_ct0_st023W</title>
<polygon fill="none" stroke="black" points="753,-99.2 611,-99.2 611,-49.2 753,-49.2 753,-99.2"/>
<text text-anchor="start" x="619" y="-85" font-family="arial" font-weight="bold" font-size="14.00">ID_112_ct0_st023W</text>
<text text-anchor="start" x="629.5" y="-71" font-family="arial" font-size="14.00" fill="#984ea3">(!P &amp;&amp; (R &amp;&amp; !S))</text>
<text text-anchor="start" x="659" y="-57" font-family="arial" font-size="14.00" fill="#ff7f00">c0 &lt;= 5</text>
</g>
<!-- ID_112_ct0_st01&#45;&gt;ID_112_ct0_st023W -->
<g id="edge10" class="edge">
<title>ID_112_ct0_st01&#45;&gt;ID_112_ct0_st023W</title>
<path fill="none" stroke="black" d="M526.26,-47.19C532.21,-49.03 538.2,-50.74 544,-52.2 562.21,-56.8 582.05,-60.64 600.82,-63.75"/>
<polygon fill="black" stroke="black" points="600.39,-67.23 610.82,-65.36 601.5,-60.32 600.39,-67.23"/>
<text text-anchor="start" x="556.5" y="-81" font-family="arial" font-size="14.00" fill="#377eb8">true</text>
<text text-anchor="start" x="549.5" y="-66" font-family="arial" font-size="14.00">c0 :=0</text>
</g>
<!-- ID_112_ct0_st023W&#45;&gt;ID_112_ct0_st -->
<g id="edge17" class="edge">
<title>ID_112_ct0_st023W&#45;&gt;ID_112_ct0_st</title>
<path fill="none" stroke="black" d="M753.01,-61.39C811.51,-53.09 896.72,-46.59 969,-63.2 986.31,-67.18 1004.09,-74.53 1019.82,-82.35"/>
<polygon fill="black" stroke="black" points="1018.33,-85.52 1028.82,-86.99 1021.53,-79.3 1018.33,-85.52"/>
<text text-anchor="start" x="891.5" y="-67" font-family="arial" font-size="14.00" fill="#377eb8">P&#39;</text>
</g>
<!-- ID_112_ct0_st023W&#45;&gt;ID_112_ct0_st0 -->
<g id="edge18" class="edge">
<title>ID_112_ct0_st023W&#45;&gt;ID_112_ct0_st0</title>
<path fill="none" stroke="black" d="M610.63,-93C604.69,-94.22 598.76,-95.31 593,-96.2 485.71,-112.76 359.39,-117.51 284.29,-118.8"/>
<polygon fill="black" stroke="black" points="283.99,-115.31 274.04,-118.96 284.1,-122.31 283.99,-115.31"/>
<text text-anchor="start" x="441" y="-118" font-family="arial" font-size="14.00" fill="#377eb8">(P&#39; || S&#39;)</text>
</g>
<!-- ID_112_ct0_st023W&#45;&gt;ID_112_ct0_st01 -->
<g id="edge20" class="edge">
<title>ID_112_ct0_st023W&#45;&gt;ID_112_ct0_st01</title>
<path fill="none" stroke="black" d="M635.62,-49.14C622.26,-42.85 607.37,-36.86 593,-33.2 574.92,-28.59 554.94,-26.16 536.3,-24.97"/>
<polygon fill="black" stroke="black" points="536.27,-21.46 526.1,-24.42 535.9,-28.45 536.27,-21.46"/>
<text text-anchor="start" x="544" y="-37" font-family="arial" font-size="14.00" fill="#377eb8">(P&#39; || S&#39;)</text>
</g>
<!-- ID_112_ct0_st023W&#45;&gt;ID_112_ct0_st023W -->
<g id="edge19" class="edge">
<title>ID_112_ct0_st023W&#45;&gt;ID_112_ct0_st023W</title>
<path fill="none" stroke="black" d="M661.83,-99.38C660.93,-109.11 667.66,-117.2 682,-117.2 690.96,-117.2 696.95,-114.04 699.96,-109.29"/>
<polygon fill="black" stroke="black" points="703.42,-109.9 702.17,-99.38 696.58,-108.38 703.42,-109.9"/>
<text text-anchor="start" x="663" y="-121" font-family="arial" font-size="14.00" fill="#377eb8">c0 &lt; 5</text>
</g>
<!-- ID_112_ct0_st013W -->
<g id="node8" class="node">
<title>ID_112_ct0_st013W</title>
<polygon fill="none" stroke="black" points="969,-137.2 827,-137.2 827,-87.2 969,-87.2 969,-137.2"/>
<text text-anchor="start" x="835" y="-123" font-family="arial" font-weight="bold" font-size="14.00">ID_112_ct0_st013W</text>
<text text-anchor="start" x="843.5" y="-109" font-family="arial" font-size="14.00" fill="#984ea3">(!P &amp;&amp; (!R &amp;&amp; !S))</text>
<text text-anchor="start" x="875" y="-95" font-family="arial" font-size="14.00" fill="#ff7f00">c0 &lt;= 5</text>
</g>
<!-- ID_112_ct0_st023W&#45;&gt;ID_112_ct0_st013W -->
<g id="edge21" class="edge">
<title>ID_112_ct0_st023W&#45;&gt;ID_112_ct0_st013W</title>
<path fill="none" stroke="black" d="M753.13,-72.25C771.46,-72.88 791.09,-74.57 809,-78.2 816.17,-79.66 823.52,-81.64 830.77,-83.92"/>
<polygon fill="black" stroke="black" points="829.97,-87.35 840.56,-87.2 832.19,-80.71 829.97,-87.35"/>
<text text-anchor="start" x="771" y="-82" font-family="arial" font-size="14.00" fill="#377eb8">c0 &lt; 5</text>
</g>
<!-- ID_112_ct0_st013W&#45;&gt;ID_112_ct0_st -->
<g id="edge12" class="edge">
<title>ID_112_ct0_st013W&#45;&gt;ID_112_ct0_st</title>
<path fill="none" stroke="black" d="M969.05,-112.2C981.8,-112.2 995.03,-112.2 1007.55,-112.2"/>
<polygon fill="black" stroke="black" points="1007.87,-115.7 1017.87,-112.2 1007.87,-108.7 1007.87,-115.7"/>
<text text-anchor="start" x="987" y="-116" font-family="arial" font-size="14.00" fill="#377eb8">P&#39;</text>
</g>
<!-- ID_112_ct0_st013W&#45;&gt;ID_112_ct0_st0 -->
<g id="edge13" class="edge">
<title>ID_112_ct0_st013W&#45;&gt;ID_112_ct0_st0</title>
<path fill="none" stroke="black" d="M826.74,-129.26C803.43,-134.14 777.23,-138.79 753,-141.2 551.72,-161.27 499.53,-147.64 298,-130.2 293.51,-129.81 288.88,-129.35 284.22,-128.83"/>
<polygon fill="black" stroke="black" points="284.36,-125.32 274.02,-127.62 283.54,-132.27 284.36,-125.32"/>
<text text-anchor="start" x="544" y="-154" font-family="arial" font-size="14.00" fill="#377eb8">(P&#39; || S&#39;)</text>
</g>
<!-- ID_112_ct0_st013W&#45;&gt;ID_112_ct0_st01 -->
<g id="edge15" class="edge">
<title>ID_112_ct0_st013W&#45;&gt;ID_112_ct0_st01</title>
<path fill="none" stroke="black" d="M835.84,-87.09C832.81,-85.51 829.85,-83.87 827,-82.2 809.1,-71.7 772.59,-32.08 753,-25.2 682.24,-0.36 595.44,-4.78 536.05,-12.61"/>
<polygon fill="black" stroke="black" points="535.45,-9.16 526.03,-14 536.41,-16.1 535.45,-9.16"/>
<text text-anchor="start" x="657.5" y="-29" font-family="arial" font-size="14.00" fill="#377eb8">(P&#39; || S&#39;)</text>
</g>
<!-- ID_112_ct0_st013W&#45;&gt;ID_112_ct0_st023W -->
<g id="edge14" class="edge">
<title>ID_112_ct0_st013W&#45;&gt;ID_112_ct0_st023W</title>
<path fill="none" stroke="black" d="M826.76,-105.57C808.53,-103.37 788.97,-100.6 771,-97.2 768.49,-96.73 765.94,-96.22 763.38,-95.69"/>
<polygon fill="black" stroke="black" points="763.93,-92.22 753.41,-93.51 762.44,-99.06 763.93,-92.22"/>
<text text-anchor="start" x="771" y="-107" font-family="arial" font-size="14.00" fill="#377eb8">c0 &lt; 5</text>
</g>
<!-- ID_112_ct0_st013W&#45;&gt;ID_112_ct0_st013W -->
<g id="edge16" class="edge">
<title>ID_112_ct0_st013W&#45;&gt;ID_112_ct0_st013W</title>
<path fill="none" stroke="black" d="M880.44,-137.38C879.66,-147.11 885.52,-155.2 898,-155.2 905.8,-155.2 911.01,-152.04 913.64,-147.29"/>
<polygon fill="black" stroke="black" points="917.09,-147.86 915.56,-137.38 910.22,-146.53 917.09,-147.86"/>
<text text-anchor="start" x="879" y="-159" font-family="arial" font-size="14.00" fill="#377eb8">c0 &lt; 5</text>
</g>
</g>
</svg>
