<?xml version="1.0" encoding="UTF-8" standalone="no"?>
<!DOCTYPE svg PUBLIC "-//W3C//DTD SVG 1.1//EN"
 "http://www.w3.org/Graphics/SVG/1.1/DTD/svg11.dtd">
<!-- Generated by graphviz version 2.43.0 (0)
 -->
<!-- Title: G Pages: 1 -->
<svg width="1278pt" height="388pt"
 viewBox="0.00 0.00 1278.00 388.00" xmlns="http://www.w3.org/2000/svg" xmlns:xlink="http://www.w3.org/1999/xlink">
<g id="graph0" class="graph" transform="scale(1 1) rotate(0) translate(4 384)">
<title>G</title>
<polygon fill="white" stroke="transparent" points="-4,4 -4,-384 1274,-384 1274,4 -4,4"/>
<!-- _ID_67_ct0_st -->
<!-- ID_67_ct0_st -->
<g id="node2" class="node">
<title>ID_67_ct0_st</title>
<polygon fill="none" stroke="black" points="1270,-273 1171,-273 1171,-223 1270,-223 1270,-273"/>
<text text-anchor="start" x="1179" y="-258.8" font-family="arial" font-weight="bold" font-size="14.00">ID_67_ct0_st</text>
<text text-anchor="start" x="1208.5" y="-244.8" font-family="arial" font-size="14.00" fill="#984ea3">true</text>
<text text-anchor="start" x="1208.5" y="-230.8" font-family="arial" font-size="14.00" fill="#ff7f00">true</text>
</g>
<!-- _ID_67_ct0_st&#45;&gt;ID_67_ct0_st -->
<g id="edge1" class="edge">
<title>_ID_67_ct0_st&#45;&gt;ID_67_ct0_st</title>
<path fill="none" stroke="black" d="M1113.04,-349.55C1126.76,-344.78 1141.09,-338.39 1153,-330 1171.25,-317.14 1187.18,-297.97 1198.87,-281.39"/>
<polygon fill="black" stroke="black" points="1201.85,-283.24 1204.59,-273 1196.07,-279.29 1201.85,-283.24"/>
</g>
<!-- ID_67_ct0_st&#45;&gt;ID_67_ct0_st -->
<g id="edge4" class="edge">
<title>ID_67_ct0_st&#45;&gt;ID_67_ct0_st</title>
<path fill="none" stroke="black" d="M1206.68,-273.18C1206.06,-282.91 1210.67,-291 1220.5,-291 1226.64,-291 1230.75,-287.84 1232.81,-283.09"/>
<polygon fill="black" stroke="black" points="1236.27,-283.59 1234.32,-273.18 1229.35,-282.53 1236.27,-283.59"/>
<text text-anchor="start" x="1208.5" y="-294.8" font-family="arial" font-size="14.00" fill="#377eb8">true</text>
</g>
<!-- _ID_67_ct0_st0 -->
<!-- ID_67_ct0_st0 -->
<g id="node4" class="node">
<title>ID_67_ct0_st0</title>
<polygon fill="none" stroke="black" points="261,-50 154,-50 154,0 261,0 261,-50"/>
<text text-anchor="start" x="162" y="-35.8" font-family="arial" font-weight="bold" font-size="14.00">ID_67_ct0_st0</text>
<text text-anchor="start" x="178.5" y="-21.8" font-family="arial" font-size="14.00" fill="#984ea3">(!P &amp;&amp; R)</text>
<text text-anchor="start" x="195.5" y="-7.8" font-family="arial" font-size="14.00" fill="#ff7f00">true</text>
</g>
<!-- _ID_67_ct0_st0&#45;&gt;ID_67_ct0_st0 -->
<g id="edge2" class="edge">
<title>_ID_67_ct0_st0&#45;&gt;ID_67_ct0_st0</title>
<path fill="none" stroke="black" d="M111.08,-25C121.62,-25 132.74,-25 143.52,-25"/>
<polygon fill="black" stroke="black" points="143.72,-28.5 153.72,-25 143.72,-21.5 143.72,-28.5"/>
</g>
<!-- ID_67_ct0_st0&#45;&gt;ID_67_ct0_st -->
<g id="edge5" class="edge">
<title>ID_67_ct0_st0&#45;&gt;ID_67_ct0_st</title>
<path fill="none" stroke="black" d="M261.1,-18.57C295.69,-14.89 341.97,-11 383,-11 383,-11 383,-11 1062,-11 1157.66,-11 1198.72,-146.6 1213.05,-212.66"/>
<polygon fill="black" stroke="black" points="1209.66,-213.56 1215.12,-222.64 1216.51,-212.13 1209.66,-213.56"/>
<text text-anchor="start" x="720.5" y="-14.8" font-family="arial" font-size="14.00" fill="#377eb8">P&#39;</text>
</g>
<!-- ID_67_ct0_st0&#45;&gt;ID_67_ct0_st0 -->
<g id="edge6" class="edge">
<title>ID_67_ct0_st0&#45;&gt;ID_67_ct0_st0</title>
<path fill="none" stroke="black" d="M192.93,-50.18C192.28,-59.91 197.14,-68 207.5,-68 213.97,-68 218.3,-64.84 220.47,-60.09"/>
<polygon fill="black" stroke="black" points="223.94,-60.6 222.07,-50.18 217.03,-59.49 223.94,-60.6"/>
<text text-anchor="start" x="195.5" y="-71.8" font-family="arial" font-size="14.00" fill="#377eb8">true</text>
</g>
<!-- ID_67_ct0_st01 -->
<g id="node6" class="node">
<title>ID_67_ct0_st01</title>
<polygon fill="none" stroke="black" points="441,-151 327,-151 327,-101 441,-101 441,-151"/>
<text text-anchor="start" x="335" y="-136.8" font-family="arial" font-weight="bold" font-size="14.00">ID_67_ct0_st01</text>
<text text-anchor="start" x="353.5" y="-122.8" font-family="arial" font-size="14.00" fill="#984ea3">(!P &amp;&amp; !R)</text>
<text text-anchor="start" x="372" y="-108.8" font-family="arial" font-size="14.00" fill="#ff7f00">true</text>
</g>
<!-- ID_67_ct0_st0&#45;&gt;ID_67_ct0_st01 -->
<g id="edge7" class="edge">
<title>ID_67_ct0_st0&#45;&gt;ID_67_ct0_st01</title>
<path fill="none" stroke="black" d="M252.08,-50.23C276.01,-64.08 305.85,-81.34 330.99,-95.9"/>
<polygon fill="black" stroke="black" points="329.26,-98.94 339.67,-100.92 332.77,-92.88 329.26,-98.94"/>
<text text-anchor="start" x="285" y="-84.8" font-family="arial" font-size="14.00" fill="#377eb8">true</text>
</g>
<!-- _ID_67_ct0_st01 -->
<!-- _ID_67_ct0_st01&#45;&gt;ID_67_ct0_st01 -->
<g id="edge3" class="edge">
<title>_ID_67_ct0_st01&#45;&gt;ID_67_ct0_st01</title>
<path fill="none" stroke="black" d="M267.09,-126C283.08,-126 300.51,-126 316.89,-126"/>
<polygon fill="black" stroke="black" points="316.93,-129.5 326.93,-126 316.93,-122.5 316.93,-129.5"/>
</g>
<!-- ID_67_ct0_st01&#45;&gt;ID_67_ct0_st -->
<g id="edge8" class="edge">
<title>ID_67_ct0_st01&#45;&gt;ID_67_ct0_st</title>
<path fill="none" stroke="black" d="M397.07,-151.23C423.75,-202.91 493.04,-316 588.5,-316 588.5,-316 588.5,-316 1062,-316 1102.8,-316 1145.03,-296.53 1175.48,-278.43"/>
<polygon fill="black" stroke="black" points="1177.44,-281.33 1184.14,-273.13 1173.78,-275.36 1177.44,-281.33"/>
<text text-anchor="start" x="858.5" y="-319.8" font-family="arial" font-size="14.00" fill="#377eb8">P&#39;</text>
</g>
<!-- ID_67_ct0_st01&#45;&gt;ID_67_ct0_st01 -->
<g id="edge11" class="edge">
<title>ID_67_ct0_st01&#45;&gt;ID_67_ct0_st01</title>
<path fill="none" stroke="black" d="M367.94,-151.18C367.22,-160.91 372.58,-169 384,-169 391.14,-169 395.91,-165.84 398.31,-161.09"/>
<polygon fill="black" stroke="black" points="401.76,-161.63 400.06,-151.18 394.87,-160.41 401.76,-161.63"/>
<text text-anchor="start" x="372" y="-172.8" font-family="arial" font-size="14.00" fill="#377eb8">true</text>
</g>
<!-- ID_67_ct0_st02 -->
<g id="node7" class="node">
<title>ID_67_ct0_st02</title>
<polygon fill="none" stroke="black" points="650,-196 529,-196 529,-146 650,-146 650,-196"/>
<text text-anchor="start" x="540.5" y="-181.8" font-family="arial" font-weight="bold" font-size="14.00">ID_67_ct0_st02</text>
<text text-anchor="start" x="537" y="-167.8" font-family="arial" font-size="14.00" fill="#984ea3">(!P &amp;&amp; (R &amp;&amp; !S))</text>
<text text-anchor="start" x="577.5" y="-153.8" font-family="arial" font-size="14.00" fill="#ff7f00">true</text>
</g>
<!-- ID_67_ct0_st01&#45;&gt;ID_67_ct0_st02 -->
<g id="edge9" class="edge">
<title>ID_67_ct0_st01&#45;&gt;ID_67_ct0_st02</title>
<path fill="none" stroke="black" d="M441.35,-144.36C447.28,-146.04 453.24,-147.62 459,-149 478.26,-153.61 499.36,-157.62 518.84,-160.91"/>
<polygon fill="black" stroke="black" points="518.42,-164.39 528.85,-162.57 519.56,-157.49 518.42,-164.39"/>
<text text-anchor="start" x="473" y="-162.8" font-family="arial" font-size="14.00" fill="#377eb8">true</text>
</g>
<!-- ID_67_ct0_st023 -->
<g id="node8" class="node">
<title>ID_67_ct0_st023</title>
<polygon fill="none" stroke="black" points="1122,-209 1000,-209 1000,-159 1122,-159 1122,-209"/>
<text text-anchor="start" x="1008" y="-194.8" font-family="arial" font-weight="bold" font-size="14.00">ID_67_ct0_st023</text>
<text text-anchor="start" x="1010.5" y="-180.8" font-family="arial" font-size="14.00" fill="#984ea3">(!P &amp;&amp; (R &amp;&amp; S))</text>
<text text-anchor="start" x="1049" y="-166.8" font-family="arial" font-size="14.00" fill="#ff7f00">true</text>
</g>
<!-- ID_67_ct0_st01&#45;&gt;ID_67_ct0_st023 -->
<g id="edge10" class="edge">
<title>ID_67_ct0_st01&#45;&gt;ID_67_ct0_st023</title>
<path fill="none" stroke="black" d="M441.32,-119.23C560.62,-105.53 835.28,-77.58 926,-99 953.08,-105.39 961.14,-108.58 982,-127 990.87,-134.83 990.02,-141.56 998.75,-151.69"/>
<polygon fill="black" stroke="black" points="996.48,-154.36 1006.07,-158.88 1001.39,-149.37 996.48,-154.36"/>
<text text-anchor="start" x="715" y="-100.8" font-family="arial" font-size="14.00" fill="#377eb8">true</text>
</g>
<!-- ID_67_ct0_st02&#45;&gt;ID_67_ct0_st -->
<g id="edge12" class="edge">
<title>ID_67_ct0_st02&#45;&gt;ID_67_ct0_st</title>
<path fill="none" stroke="black" d="M624.37,-196.05C637.38,-204.43 652.78,-212.92 668,-218 839.48,-275.23 1057.49,-264.44 1160.5,-254.77"/>
<polygon fill="black" stroke="black" points="1161.08,-258.23 1170.69,-253.78 1160.4,-251.27 1161.08,-258.23"/>
<text text-anchor="start" x="956.5" y="-265.8" font-family="arial" font-size="14.00" fill="#377eb8">P&#39;</text>
</g>
<!-- ID_67_ct0_st02&#45;&gt;ID_67_ct0_st01 -->
<g id="edge15" class="edge">
<title>ID_67_ct0_st02&#45;&gt;ID_67_ct0_st01</title>
<path fill="none" stroke="black" d="M549.31,-145.85C537.45,-139.49 524.09,-133.47 511,-130 491.99,-124.96 470.81,-122.97 451.32,-122.5"/>
<polygon fill="black" stroke="black" points="451.34,-119 441.3,-122.39 451.26,-126 451.34,-119"/>
<text text-anchor="start" x="459" y="-133.8" font-family="arial" font-size="14.00" fill="#377eb8">(P&#39; || !S&#39;)</text>
</g>
<!-- ID_67_ct0_st02&#45;&gt;ID_67_ct0_st02 -->
<g id="edge13" class="edge">
<title>ID_67_ct0_st02&#45;&gt;ID_67_ct0_st02</title>
<path fill="none" stroke="black" d="M570.08,-196.18C569.21,-205.91 575.69,-214 589.5,-214 598.13,-214 603.9,-210.84 606.8,-206.09"/>
<polygon fill="black" stroke="black" points="610.25,-206.69 608.92,-196.18 603.41,-205.22 610.25,-206.69"/>
<text text-anchor="start" x="577.5" y="-217.8" font-family="arial" font-size="14.00" fill="#377eb8">true</text>
</g>
<!-- ID_67_ct0_st02&#45;&gt;ID_67_ct0_st023 -->
<g id="edge14" class="edge">
<title>ID_67_ct0_st02&#45;&gt;ID_67_ct0_st023</title>
<path fill="none" stroke="black" d="M650.12,-192.98C656.1,-194.59 662.13,-195.97 668,-197 805.48,-221.01 843.24,-212.86 982,-198 984.51,-197.73 987.07,-197.43 989.65,-197.1"/>
<polygon fill="black" stroke="black" points="990.23,-200.55 999.65,-195.7 989.27,-193.62 990.23,-200.55"/>
<text text-anchor="start" x="853" y="-215.8" font-family="arial" font-size="14.00" fill="#377eb8">true</text>
</g>
<!-- ID_67_ct0_st013 -->
<g id="node9" class="node">
<title>ID_67_ct0_st013</title>
<polygon fill="none" stroke="black" points="926,-158 804,-158 804,-108 926,-108 926,-158"/>
<text text-anchor="start" x="812" y="-143.8" font-family="arial" font-weight="bold" font-size="14.00">ID_67_ct0_st013</text>
<text text-anchor="start" x="812.5" y="-129.8" font-family="arial" font-size="14.00" fill="#984ea3">(!P &amp;&amp; (!R &amp;&amp; S))</text>
<text text-anchor="start" x="842" y="-115.8" font-family="arial" font-size="14.00" fill="#ff7f00">c0 &lt;= 5</text>
</g>
<!-- ID_67_ct0_st02&#45;&gt;ID_67_ct0_st013 -->
<g id="edge16" class="edge">
<title>ID_67_ct0_st02&#45;&gt;ID_67_ct0_st013</title>
<path fill="none" stroke="black" d="M650.15,-165.7C688.97,-161.9 740.63,-156.19 786,-149 788.51,-148.6 791.06,-148.18 793.63,-147.74"/>
<polygon fill="black" stroke="black" points="794.41,-151.15 803.63,-145.94 793.17,-144.26 794.41,-151.15"/>
<text text-anchor="start" x="715" y="-181.8" font-family="arial" font-size="14.00" fill="#377eb8">true</text>
<text text-anchor="start" x="708" y="-166.8" font-family="arial" font-size="14.00">c0 :=0</text>
</g>
<!-- ID_67_ct0_st023&#45;&gt;ID_67_ct0_st -->
<g id="edge22" class="edge">
<title>ID_67_ct0_st023&#45;&gt;ID_67_ct0_st</title>
<path fill="none" stroke="black" d="M1122.44,-208.56C1135.16,-213.73 1148.56,-219.17 1161.2,-224.31"/>
<polygon fill="black" stroke="black" points="1160.11,-227.64 1170.69,-228.17 1162.74,-221.16 1160.11,-227.64"/>
<text text-anchor="start" x="1140" y="-222.8" font-family="arial" font-size="14.00" fill="#377eb8">P&#39;</text>
</g>
<!-- ID_67_ct0_st023&#45;&gt;ID_67_ct0_st023 -->
<g id="edge23" class="edge">
<title>ID_67_ct0_st023&#45;&gt;ID_67_ct0_st023</title>
<path fill="none" stroke="black" d="M1045.31,-209.18C1044.61,-218.91 1049.84,-227 1061,-227 1067.97,-227 1072.63,-223.84 1074.97,-219.09"/>
<polygon fill="black" stroke="black" points="1078.43,-219.63 1076.69,-209.18 1071.53,-218.43 1078.43,-219.63"/>
<text text-anchor="start" x="1049" y="-230.8" font-family="arial" font-size="14.00" fill="#377eb8">true</text>
</g>
<!-- ID_67_ct0_st023&#45;&gt;ID_67_ct0_st013 -->
<g id="edge24" class="edge">
<title>ID_67_ct0_st023&#45;&gt;ID_67_ct0_st013</title>
<path fill="none" stroke="black" d="M1025.59,-158.79C1012.58,-150.62 997.22,-142.51 982,-138 967.63,-133.74 951.82,-131.54 936.63,-130.55"/>
<polygon fill="black" stroke="black" points="936.39,-127.04 926.23,-130.05 936.05,-134.03 936.39,-127.04"/>
<text text-anchor="start" x="951" y="-156.8" font-family="arial" font-size="14.00" fill="#377eb8">true</text>
<text text-anchor="start" x="944" y="-141.8" font-family="arial" font-size="14.00">c0 :=0</text>
</g>
<!-- ID_67_ct0_st013&#45;&gt;ID_67_ct0_st -->
<g id="edge17" class="edge">
<title>ID_67_ct0_st013&#45;&gt;ID_67_ct0_st</title>
<path fill="none" stroke="black" d="M926.03,-119.33C980.18,-110.18 1060.51,-104.69 1122,-135 1156.66,-152.09 1184.03,-187.62 1200.84,-214.3"/>
<polygon fill="black" stroke="black" points="1197.93,-216.26 1206.13,-222.97 1203.91,-212.61 1197.93,-216.26"/>
<text text-anchor="start" x="1054.5" y="-138.8" font-family="arial" font-size="14.00" fill="#377eb8">P&#39;</text>
</g>
<!-- ID_67_ct0_st013&#45;&gt;ID_67_ct0_st01 -->
<g id="edge20" class="edge">
<title>ID_67_ct0_st013&#45;&gt;ID_67_ct0_st01</title>
<path fill="none" stroke="black" d="M841.01,-107.79C826.71,-94.04 807.07,-78.35 786,-71 648.64,-23.06 598.67,-45.29 459,-86 450.25,-88.55 441.36,-92.24 432.93,-96.35"/>
<polygon fill="black" stroke="black" points="431.28,-93.26 423.99,-100.95 434.48,-99.49 431.28,-93.26"/>
<text text-anchor="start" x="548.5" y="-68.8" font-family="arial" font-size="14.00" fill="#377eb8">(P&#39; || c0 &gt;= 5)</text>
</g>
<!-- ID_67_ct0_st013&#45;&gt;ID_67_ct0_st02 -->
<g id="edge18" class="edge">
<title>ID_67_ct0_st013&#45;&gt;ID_67_ct0_st02</title>
<path fill="none" stroke="black" d="M803.92,-124.21C764.66,-120.37 712.59,-118.93 668,-130 657.92,-132.5 647.72,-136.58 638.16,-141.22"/>
<polygon fill="black" stroke="black" points="636.53,-138.12 629.23,-145.8 639.72,-144.35 636.53,-138.12"/>
<text text-anchor="start" x="668" y="-133.8" font-family="arial" font-size="14.00" fill="#377eb8">(P&#39; || (S&#39; || c0 &gt;= 5))</text>
</g>
<!-- ID_67_ct0_st013&#45;&gt;ID_67_ct0_st023 -->
<g id="edge19" class="edge">
<title>ID_67_ct0_st013&#45;&gt;ID_67_ct0_st023</title>
<path fill="none" stroke="black" d="M909.42,-158.15C920.39,-163.54 932.37,-168.61 944,-172 958.59,-176.25 974.6,-179.04 989.94,-180.86"/>
<polygon fill="black" stroke="black" points="989.58,-184.34 999.9,-181.92 990.32,-177.38 989.58,-184.34"/>
<text text-anchor="start" x="951" y="-182.8" font-family="arial" font-size="14.00" fill="#377eb8">true</text>
</g>
<!-- ID_67_ct0_st013&#45;&gt;ID_67_ct0_st013 -->
<g id="edge21" class="edge">
<title>ID_67_ct0_st013&#45;&gt;ID_67_ct0_st013</title>
<path fill="none" stroke="black" d="M846.7,-158.18C845.88,-167.91 851.98,-176 865,-176 873.13,-176 878.57,-172.84 881.3,-168.09"/>
<polygon fill="black" stroke="black" points="884.76,-168.67 883.3,-158.18 877.89,-167.29 884.76,-168.67"/>
<text text-anchor="start" x="846" y="-179.8" font-family="arial" font-size="14.00" fill="#377eb8">c0 &lt; 5</text>
</g>
</g>
</svg>
