<?xml version="1.0" encoding="UTF-8" standalone="no"?>
<!DOCTYPE svg PUBLIC "-//W3C//DTD SVG 1.1//EN"
 "http://www.w3.org/Graphics/SVG/1.1/DTD/svg11.dtd">
<!-- Generated by graphviz version 2.43.0 (0)
 -->
<!-- Title: G Pages: 1 -->
<svg width="1798pt" height="518pt"
 viewBox="0.00 0.00 1798.00 518.00" xmlns="http://www.w3.org/2000/svg" xmlns:xlink="http://www.w3.org/1999/xlink">
<g id="graph0" class="graph" transform="scale(1 1) rotate(0) translate(4 514)">
<title>G</title>
<polygon fill="white" stroke="transparent" points="-4,4 -4,-514 1794,-514 1794,4 -4,4"/>
<!-- _ID_112_ct1_st -->
<!-- ID_112_ct1_st -->
<g id="node2" class="node">
<title>ID_112_ct1_st</title>
<polygon fill="none" stroke="black" points="1790,-234 1684,-234 1684,-184 1790,-184 1790,-234"/>
<text text-anchor="start" x="1692" y="-219.8" font-family="arial" font-weight="bold" font-size="14.00">ID_112_ct1_st</text>
<text text-anchor="start" x="1725" y="-205.8" font-family="arial" font-size="14.00" fill="#984ea3">true</text>
<text text-anchor="start" x="1725" y="-191.8" font-family="arial" font-size="14.00" fill="#ff7f00">true</text>
</g>
<!-- _ID_112_ct1_st&#45;&gt;ID_112_ct1_st -->
<g id="edge1" class="edge">
<title>_ID_112_ct1_st&#45;&gt;ID_112_ct1_st</title>
<path fill="none" stroke="black" d="M1615.08,-486.16C1633.37,-481.66 1652.55,-473.77 1666,-460 1723.78,-400.83 1734.73,-298.17 1736.27,-244.31"/>
<polygon fill="black" stroke="black" points="1739.78,-244.28 1736.47,-234.21 1732.78,-244.14 1739.78,-244.28"/>
</g>
<!-- ID_112_ct1_st&#45;&gt;ID_112_ct1_st -->
<g id="edge4" class="edge">
<title>ID_112_ct1_st&#45;&gt;ID_112_ct1_st</title>
<path fill="none" stroke="black" d="M1722.81,-234.18C1722.17,-243.91 1726.91,-252 1737,-252 1743.31,-252 1747.52,-248.84 1749.64,-244.09"/>
<polygon fill="black" stroke="black" points="1753.11,-244.6 1751.19,-234.18 1746.19,-243.51 1753.11,-244.6"/>
<text text-anchor="start" x="1725" y="-255.8" font-family="arial" font-size="14.00" fill="#377eb8">true</text>
</g>
<!-- _ID_112_ct1_st0 -->
<!-- ID_112_ct1_st0 -->
<g id="node4" class="node">
<title>ID_112_ct1_st0</title>
<polygon fill="none" stroke="black" points="274,-77 161,-77 161,-27 274,-27 274,-77"/>
<text text-anchor="start" x="169" y="-62.8" font-family="arial" font-weight="bold" font-size="14.00">ID_112_ct1_st0</text>
<text text-anchor="start" x="188.5" y="-48.8" font-family="arial" font-size="14.00" fill="#984ea3">(!P &amp;&amp; R)</text>
<text text-anchor="start" x="205.5" y="-34.8" font-family="arial" font-size="14.00" fill="#ff7f00">true</text>
</g>
<!-- _ID_112_ct1_st0&#45;&gt;ID_112_ct1_st0 -->
<g id="edge2" class="edge">
<title>_ID_112_ct1_st0&#45;&gt;ID_112_ct1_st0</title>
<path fill="none" stroke="black" d="M118.27,-52C128.81,-52 139.87,-52 150.6,-52"/>
<polygon fill="black" stroke="black" points="150.77,-55.5 160.77,-52 150.77,-48.5 150.77,-55.5"/>
</g>
<!-- ID_112_ct1_st0&#45;&gt;ID_112_ct1_st -->
<g id="edge5" class="edge">
<title>ID_112_ct1_st0&#45;&gt;ID_112_ct1_st</title>
<path fill="none" stroke="black" d="M274.38,-27.22C309.57,-13.83 356.34,0 399.5,0 399.5,0 399.5,0 1561,0 1650.7,0 1703.5,-114.56 1724.88,-174.05"/>
<polygon fill="black" stroke="black" points="1721.67,-175.5 1728.27,-183.79 1728.28,-173.19 1721.67,-175.5"/>
<text text-anchor="start" x="907.5" y="-3.8" font-family="arial" font-size="14.00" fill="#377eb8">P&#39;</text>
</g>
<!-- ID_112_ct1_st0&#45;&gt;ID_112_ct1_st0 -->
<g id="edge6" class="edge">
<title>ID_112_ct1_st0&#45;&gt;ID_112_ct1_st0</title>
<path fill="none" stroke="black" d="M202.56,-77.18C201.89,-86.91 206.88,-95 217.5,-95 224.14,-95 228.58,-91.84 230.81,-87.09"/>
<polygon fill="black" stroke="black" points="234.27,-87.61 232.44,-77.18 227.36,-86.47 234.27,-87.61"/>
<text text-anchor="start" x="205.5" y="-98.8" font-family="arial" font-size="14.00" fill="#377eb8">true</text>
</g>
<!-- ID_112_ct1_st01 -->
<g id="node6" class="node">
<title>ID_112_ct1_st01</title>
<polygon fill="none" stroke="black" points="461,-335 340,-335 340,-285 461,-285 461,-335"/>
<text text-anchor="start" x="348" y="-320.8" font-family="arial" font-weight="bold" font-size="14.00">ID_112_ct1_st01</text>
<text text-anchor="start" x="370" y="-306.8" font-family="arial" font-size="14.00" fill="#984ea3">(!P &amp;&amp; !R)</text>
<text text-anchor="start" x="388.5" y="-292.8" font-family="arial" font-size="14.00" fill="#ff7f00">true</text>
</g>
<!-- ID_112_ct1_st0&#45;&gt;ID_112_ct1_st01 -->
<g id="edge7" class="edge">
<title>ID_112_ct1_st0&#45;&gt;ID_112_ct1_st01</title>
<path fill="none" stroke="black" d="M236.18,-77.21C268.96,-123.93 339.15,-223.98 375.93,-276.4"/>
<polygon fill="black" stroke="black" points="373.14,-278.51 381.74,-284.69 378.87,-274.49 373.14,-278.51"/>
<text text-anchor="start" x="298" y="-199.8" font-family="arial" font-size="14.00" fill="#377eb8">true</text>
</g>
<!-- _ID_112_ct1_st01 -->
<!-- _ID_112_ct1_st01&#45;&gt;ID_112_ct1_st01 -->
<g id="edge3" class="edge">
<title>_ID_112_ct1_st01&#45;&gt;ID_112_ct1_st01</title>
<path fill="none" stroke="black" d="M280.03,-310C296.07,-310 313.47,-310 329.9,-310"/>
<polygon fill="black" stroke="black" points="329.98,-313.5 339.98,-310 329.98,-306.5 329.98,-313.5"/>
</g>
<!-- ID_112_ct1_st01&#45;&gt;ID_112_ct1_st -->
<g id="edge8" class="edge">
<title>ID_112_ct1_st01&#45;&gt;ID_112_ct1_st</title>
<path fill="none" stroke="black" d="M418.72,-335.26C447.81,-374.59 510.7,-446 584,-446 584,-446 584,-446 1561,-446 1660.04,-446 1709.38,-310.4 1727.54,-244.34"/>
<polygon fill="black" stroke="black" points="1731,-244.93 1730.19,-234.36 1724.24,-243.13 1731,-244.93"/>
<text text-anchor="start" x="1038.5" y="-449.8" font-family="arial" font-size="14.00" fill="#377eb8">P&#39;</text>
</g>
<!-- ID_112_ct1_st01&#45;&gt;ID_112_ct1_st01 -->
<g id="edge11" class="edge">
<title>ID_112_ct1_st01&#45;&gt;ID_112_ct1_st01</title>
<path fill="none" stroke="black" d="M383.69,-335.18C382.94,-344.91 388.55,-353 400.5,-353 407.97,-353 412.96,-349.84 415.47,-345.09"/>
<polygon fill="black" stroke="black" points="418.93,-345.65 417.31,-335.18 412.04,-344.37 418.93,-345.65"/>
<text text-anchor="start" x="388.5" y="-356.8" font-family="arial" font-size="14.00" fill="#377eb8">true</text>
</g>
<!-- ID_112_ct1_st023 -->
<g id="node7" class="node">
<title>ID_112_ct1_st023</title>
<polygon fill="none" stroke="black" points="649,-225 521,-225 521,-175 649,-175 649,-225"/>
<text text-anchor="start" x="529" y="-210.8" font-family="arial" font-weight="bold" font-size="14.00">ID_112_ct1_st023</text>
<text text-anchor="start" x="532.5" y="-196.8" font-family="arial" font-size="14.00" fill="#984ea3">(!P &amp;&amp; (R &amp;&amp; !S))</text>
<text text-anchor="start" x="573" y="-182.8" font-family="arial" font-size="14.00" fill="#ff7f00">true</text>
</g>
<!-- ID_112_ct1_st01&#45;&gt;ID_112_ct1_st023 -->
<g id="edge9" class="edge">
<title>ID_112_ct1_st01&#45;&gt;ID_112_ct1_st023</title>
<path fill="none" stroke="black" d="M443.37,-284.76C470.26,-268.55 505.35,-247.41 533.74,-230.29"/>
<polygon fill="black" stroke="black" points="535.57,-233.28 542.33,-225.12 531.95,-227.28 535.57,-233.28"/>
<text text-anchor="start" x="479" y="-264.8" font-family="arial" font-size="14.00" fill="#377eb8">true</text>
</g>
<!-- ID_112_ct1_st0234 -->
<g id="node8" class="node">
<title>ID_112_ct1_st0234</title>
<polygon fill="none" stroke="black" points="1113,-123 977,-123 977,-73 1113,-73 1113,-123"/>
<text text-anchor="start" x="985" y="-108.8" font-family="arial" font-weight="bold" font-size="14.00">ID_112_ct1_st0234</text>
<text text-anchor="start" x="994.5" y="-94.8" font-family="arial" font-size="14.00" fill="#984ea3">(!P &amp;&amp; (R &amp;&amp; S))</text>
<text text-anchor="start" x="1033" y="-80.8" font-family="arial" font-size="14.00" fill="#ff7f00">true</text>
</g>
<!-- ID_112_ct1_st01&#45;&gt;ID_112_ct1_st0234 -->
<g id="edge10" class="edge">
<title>ID_112_ct1_st01&#45;&gt;ID_112_ct1_st0234</title>
<path fill="none" stroke="black" d="M415.99,-284.85C450.54,-227.92 544.14,-90.73 667,-47 769.78,-10.42 896.89,-42.28 974.14,-69.49"/>
<polygon fill="black" stroke="black" points="973.17,-72.86 983.77,-72.95 975.54,-66.27 973.17,-72.86"/>
<text text-anchor="start" x="674" y="-50.8" font-family="arial" font-size="14.00" fill="#377eb8">true</text>
</g>
<!-- ID_112_ct1_st023&#45;&gt;ID_112_ct1_st -->
<g id="edge19" class="edge">
<title>ID_112_ct1_st023&#45;&gt;ID_112_ct1_st</title>
<path fill="none" stroke="black" d="M613.43,-174.69C628.64,-161.25 648.23,-144.89 667,-132 783.26,-52.13 836.32,-74.19 977,-64 1269.12,-42.84 1371.37,27.59 1635,-100 1669.01,-116.46 1697.16,-149.76 1715.02,-175.24"/>
<polygon fill="black" stroke="black" points="1712.16,-177.25 1720.68,-183.55 1717.95,-173.31 1712.16,-177.25"/>
<text text-anchor="start" x="1165.5" y="-51.8" font-family="arial" font-size="14.00" fill="#377eb8">P&#39;</text>
</g>
<!-- ID_112_ct1_st023&#45;&gt;ID_112_ct1_st023 -->
<g id="edge20" class="edge">
<title>ID_112_ct1_st023&#45;&gt;ID_112_ct1_st023</title>
<path fill="none" stroke="black" d="M567.44,-225.18C566.66,-234.91 572.52,-243 585,-243 592.8,-243 598.01,-239.84 600.64,-235.09"/>
<polygon fill="black" stroke="black" points="604.09,-235.66 602.56,-225.18 597.22,-234.33 604.09,-235.66"/>
<text text-anchor="start" x="573" y="-246.8" font-family="arial" font-size="14.00" fill="#377eb8">true</text>
</g>
<!-- ID_112_ct1_st023&#45;&gt;ID_112_ct1_st0234 -->
<g id="edge21" class="edge">
<title>ID_112_ct1_st023&#45;&gt;ID_112_ct1_st0234</title>
<path fill="none" stroke="black" d="M622.73,-174.77C636.21,-166.33 651.88,-157.44 667,-151 764.61,-109.4 888.06,-99.13 966.55,-97.26"/>
<polygon fill="black" stroke="black" points="966.92,-100.75 976.85,-97.06 966.78,-93.75 966.92,-100.75"/>
<text text-anchor="start" x="775" y="-133.8" font-family="arial" font-size="14.00" fill="#377eb8">true</text>
</g>
<!-- ID_112_ct1_st013 -->
<g id="node9" class="node">
<title>ID_112_ct1_st013</title>
<polygon fill="none" stroke="black" points="851,-278 723,-278 723,-228 851,-228 851,-278"/>
<text text-anchor="start" x="731" y="-263.8" font-family="arial" font-weight="bold" font-size="14.00">ID_112_ct1_st013</text>
<text text-anchor="start" x="732.5" y="-249.8" font-family="arial" font-size="14.00" fill="#984ea3">(!P &amp;&amp; (!R &amp;&amp; !S))</text>
<text text-anchor="start" x="764" y="-235.8" font-family="arial" font-size="14.00" fill="#ff7f00">c0 &lt;= 5</text>
</g>
<!-- ID_112_ct1_st023&#45;&gt;ID_112_ct1_st013 -->
<g id="edge22" class="edge">
<title>ID_112_ct1_st023&#45;&gt;ID_112_ct1_st013</title>
<path fill="none" stroke="black" d="M649.13,-190.85C667.49,-190.2 687.34,-191.49 705,-197 721.35,-202.1 737.31,-211.79 750.69,-221.69"/>
<polygon fill="black" stroke="black" points="748.6,-224.51 758.66,-227.85 752.88,-218.96 748.6,-224.51"/>
<text text-anchor="start" x="674" y="-215.8" font-family="arial" font-size="14.00" fill="#377eb8">true</text>
<text text-anchor="start" x="667" y="-200.8" font-family="arial" font-size="14.00">c0 :=0</text>
</g>
<!-- ID_112_ct1_st0134 -->
<g id="node11" class="node">
<title>ID_112_ct1_st0134</title>
<polygon fill="none" stroke="black" points="1367,-154 1231,-154 1231,-104 1367,-104 1367,-154"/>
<text text-anchor="start" x="1239" y="-139.8" font-family="arial" font-weight="bold" font-size="14.00">ID_112_ct1_st0134</text>
<text text-anchor="start" x="1246.5" y="-125.8" font-family="arial" font-size="14.00" fill="#984ea3">(!P &amp;&amp; (!R &amp;&amp; S))</text>
<text text-anchor="start" x="1276" y="-111.8" font-family="arial" font-size="14.00" fill="#ff7f00">c0 &lt;= 5</text>
</g>
<!-- ID_112_ct1_st023&#45;&gt;ID_112_ct1_st0134 -->
<g id="edge23" class="edge">
<title>ID_112_ct1_st023&#45;&gt;ID_112_ct1_st0134</title>
<path fill="none" stroke="black" d="M649.2,-189.63C655.21,-188.71 661.22,-187.82 667,-187 756.56,-174.27 778.71,-167.57 869,-162 908.92,-159.54 919.14,-158.7 959,-162 967.08,-162.67 968.92,-164.33 977,-165 1037.24,-169.99 1052.62,-167.71 1113,-165 1157.58,-163 1169.25,-164.81 1213,-156 1215.52,-155.49 1218.08,-154.94 1220.65,-154.34"/>
<polygon fill="black" stroke="black" points="1221.75,-157.67 1230.61,-151.87 1220.06,-150.88 1221.75,-157.67"/>
<text text-anchor="start" x="902" y="-180.8" font-family="arial" font-size="14.00" fill="#377eb8">true</text>
<text text-anchor="start" x="895" y="-165.8" font-family="arial" font-size="14.00">c0 :=0</text>
</g>
<!-- ID_112_ct1_st0234&#45;&gt;ID_112_ct1_st -->
<g id="edge33" class="edge">
<title>ID_112_ct1_st0234&#45;&gt;ID_112_ct1_st</title>
<path fill="none" stroke="black" d="M1113.21,-89.36C1119.22,-88.81 1125.22,-88.34 1131,-88 1167.38,-85.87 1176.56,-87.17 1213,-88 1402.52,-92.31 1457.96,-82.24 1635,-150 1654.22,-157.36 1674.05,-168.13 1690.99,-178.47"/>
<polygon fill="black" stroke="black" points="1689.23,-181.5 1699.57,-183.82 1692.94,-175.56 1689.23,-181.5"/>
<text text-anchor="start" x="1419.5" y="-103.8" font-family="arial" font-size="14.00" fill="#377eb8">P&#39;</text>
</g>
<!-- ID_112_ct1_st0234&#45;&gt;ID_112_ct1_st0234 -->
<g id="edge34" class="edge">
<title>ID_112_ct1_st0234&#45;&gt;ID_112_ct1_st0234</title>
<path fill="none" stroke="black" d="M1021.47,-123.18C1020.42,-132.91 1028.27,-141 1045,-141 1055.46,-141 1062.45,-137.84 1065.96,-133.09"/>
<polygon fill="black" stroke="black" points="1069.41,-133.73 1068.53,-123.18 1062.63,-131.98 1069.41,-133.73"/>
<text text-anchor="start" x="1033" y="-144.8" font-family="arial" font-size="14.00" fill="#377eb8">true</text>
</g>
<!-- ID_112_ct1_st0234&#45;&gt;ID_112_ct1_st0134 -->
<g id="edge35" class="edge">
<title>ID_112_ct1_st0234&#45;&gt;ID_112_ct1_st0134</title>
<path fill="none" stroke="black" d="M1113.1,-92.69C1143.78,-91.62 1180.45,-92.25 1213,-98 1217.68,-98.83 1222.45,-99.89 1227.21,-101.13"/>
<polygon fill="black" stroke="black" points="1226.38,-104.53 1236.95,-103.88 1228.28,-97.79 1226.38,-104.53"/>
<text text-anchor="start" x="1160" y="-116.8" font-family="arial" font-size="14.00" fill="#377eb8">true</text>
<text text-anchor="start" x="1153" y="-101.8" font-family="arial" font-size="14.00">c0 :=0</text>
</g>
<!-- ID_112_ct1_st013&#45;&gt;ID_112_ct1_st -->
<g id="edge12" class="edge">
<title>ID_112_ct1_st013&#45;&gt;ID_112_ct1_st</title>
<path fill="none" stroke="black" d="M851.22,-256.42C857.23,-256.66 863.23,-256.86 869,-257 908.99,-257.99 919,-257.25 959,-257 1140.34,-255.89 1186.03,-263.62 1367,-252 1475.34,-245.04 1600.75,-228.64 1673.93,-218.23"/>
<polygon fill="black" stroke="black" points="1674.51,-221.68 1683.91,-216.8 1673.51,-214.75 1674.51,-221.68"/>
<text text-anchor="start" x="1292.5" y="-261.8" font-family="arial" font-size="14.00" fill="#377eb8">P&#39;</text>
</g>
<!-- ID_112_ct1_st013&#45;&gt;ID_112_ct1_st01 -->
<g id="edge15" class="edge">
<title>ID_112_ct1_st013&#45;&gt;ID_112_ct1_st01</title>
<path fill="none" stroke="black" d="M722.68,-262.39C653.53,-272.64 543.1,-289.01 471.44,-299.63"/>
<polygon fill="black" stroke="black" points="470.53,-296.23 461.16,-301.16 471.56,-303.15 470.53,-296.23"/>
<text text-anchor="start" x="544" y="-294.8" font-family="arial" font-size="14.00" fill="#377eb8">(P&#39; || c0 &gt;= 5)</text>
</g>
<!-- ID_112_ct1_st013&#45;&gt;ID_112_ct1_st023 -->
<g id="edge13" class="edge">
<title>ID_112_ct1_st013&#45;&gt;ID_112_ct1_st023</title>
<path fill="none" stroke="black" d="M722.82,-243.54C704.64,-240.22 684.9,-236.03 667,-231 663.88,-230.12 660.72,-229.18 657.54,-228.17"/>
<polygon fill="black" stroke="black" points="658.56,-224.83 647.97,-225.03 656.37,-231.48 658.56,-224.83"/>
<text text-anchor="start" x="674" y="-242.8" font-family="arial" font-size="14.00" fill="#377eb8">true</text>
</g>
<!-- ID_112_ct1_st013&#45;&gt;ID_112_ct1_st0234 -->
<g id="edge14" class="edge">
<title>ID_112_ct1_st013&#45;&gt;ID_112_ct1_st0234</title>
<path fill="none" stroke="black" d="M844.68,-227.97C852.77,-224.76 861.05,-221.67 869,-219 908.14,-205.86 923.87,-217.69 959,-196 985.22,-179.81 1007.7,-152.92 1022.94,-131.41"/>
<polygon fill="black" stroke="black" points="1025.83,-133.38 1028.62,-123.16 1020.06,-129.41 1025.83,-133.38"/>
<text text-anchor="start" x="902" y="-222.8" font-family="arial" font-size="14.00" fill="#377eb8">true</text>
</g>
<!-- ID_112_ct1_st013&#45;&gt;ID_112_ct1_st013 -->
<g id="edge17" class="edge">
<title>ID_112_ct1_st013&#45;&gt;ID_112_ct1_st013</title>
<path fill="none" stroke="black" d="M768.32,-278.18C767.49,-287.91 773.72,-296 787,-296 795.3,-296 800.85,-292.84 803.63,-288.09"/>
<polygon fill="black" stroke="black" points="807.09,-288.68 805.68,-278.18 800.23,-287.26 807.09,-288.68"/>
<text text-anchor="start" x="768" y="-299.8" font-family="arial" font-size="14.00" fill="#377eb8">c0 &lt; 5</text>
</g>
<!-- ID_112_ct1_st014 -->
<g id="node10" class="node">
<title>ID_112_ct1_st014</title>
<polygon fill="none" stroke="black" points="1635,-352 1485,-352 1485,-302 1635,-302 1635,-352"/>
<text text-anchor="start" x="1504" y="-337.8" font-family="arial" font-weight="bold" font-size="14.00">ID_112_ct1_st014</text>
<text text-anchor="start" x="1507.5" y="-323.8" font-family="arial" font-size="14.00" fill="#984ea3">(!P &amp;&amp; (!R &amp;&amp; S))</text>
<text text-anchor="start" x="1493" y="-309.8" font-family="arial" font-size="14.00" fill="#ff7f00">(c0 &lt;= 5 &amp;&amp; c1 &lt;= 10)</text>
</g>
<!-- ID_112_ct1_st013&#45;&gt;ID_112_ct1_st014 -->
<g id="edge16" class="edge">
<title>ID_112_ct1_st013&#45;&gt;ID_112_ct1_st014</title>
<path fill="none" stroke="black" d="M840.74,-278.14C849.98,-281.67 859.64,-284.83 869,-287 926.53,-300.33 1303.58,-316.81 1474.74,-323.72"/>
<polygon fill="black" stroke="black" points="1474.83,-327.22 1484.96,-324.13 1475.11,-320.23 1474.83,-327.22"/>
<text text-anchor="start" x="1131" y="-330.8" font-family="arial" font-size="14.00" fill="#377eb8">(P&#39; || c0 &gt;= 5)</text>
<text text-anchor="start" x="1153" y="-315.8" font-family="arial" font-size="14.00">c1 :=0</text>
</g>
<!-- ID_112_ct1_st013&#45;&gt;ID_112_ct1_st0134 -->
<g id="edge18" class="edge">
<title>ID_112_ct1_st013&#45;&gt;ID_112_ct1_st0134</title>
<path fill="none" stroke="black" d="M851.27,-248.53C953.33,-240.63 1149.3,-222.41 1213,-195 1231.82,-186.9 1250.12,-173.63 1264.89,-161.1"/>
<polygon fill="black" stroke="black" points="1267.49,-163.47 1272.71,-154.25 1262.88,-158.2 1267.49,-163.47"/>
<text text-anchor="start" x="1026" y="-239.8" font-family="arial" font-size="14.00" fill="#377eb8">c0 &lt; 5</text>
</g>
<!-- ID_112_ct1_st014&#45;&gt;ID_112_ct1_st -->
<g id="edge24" class="edge">
<title>ID_112_ct1_st014&#45;&gt;ID_112_ct1_st</title>
<path fill="none" stroke="black" d="M1635.02,-304.78C1645.86,-300.05 1656.54,-294.48 1666,-288 1684.02,-275.65 1700.44,-257.67 1712.84,-241.98"/>
<polygon fill="black" stroke="black" points="1715.63,-244.09 1718.94,-234.03 1710.08,-239.83 1715.63,-244.09"/>
<text text-anchor="start" x="1653" y="-298.8" font-family="arial" font-size="14.00" fill="#377eb8">P&#39;</text>
</g>
<!-- ID_112_ct1_st014&#45;&gt;ID_112_ct1_st01 -->
<g id="edge27" class="edge">
<title>ID_112_ct1_st014&#45;&gt;ID_112_ct1_st01</title>
<path fill="none" stroke="black" d="M1503.68,-352.12C1452.08,-373.24 1372.41,-400 1300,-400 584,-400 584,-400 584,-400 529.38,-400 474.17,-367.17 439.01,-341.17"/>
<polygon fill="black" stroke="black" points="441.03,-338.32 430.94,-335.07 436.81,-343.9 441.03,-338.32"/>
<text text-anchor="start" x="869" y="-403.8" font-family="arial" font-size="14.00" fill="#377eb8">(P&#39; || c1 &gt;= 10)</text>
</g>
<!-- ID_112_ct1_st014&#45;&gt;ID_112_ct1_st023 -->
<g id="edge25" class="edge">
<title>ID_112_ct1_st014&#45;&gt;ID_112_ct1_st023</title>
<path fill="none" stroke="black" d="M1484.71,-333.81C1478.72,-334.26 1472.76,-334.66 1467,-335 1301.92,-344.77 876.09,-382.54 723,-320 699.22,-310.29 650.44,-264.57 617.97,-232.46"/>
<polygon fill="black" stroke="black" points="620.06,-229.59 610.5,-225.02 615.12,-234.56 620.06,-229.59"/>
<text text-anchor="start" x="982" y="-358.8" font-family="arial" font-size="14.00" fill="#377eb8">(P&#39; || (S&#39; || c1 &gt;= 10))</text>
</g>
<!-- ID_112_ct1_st014&#45;&gt;ID_112_ct1_st0234 -->
<g id="edge26" class="edge">
<title>ID_112_ct1_st014&#45;&gt;ID_112_ct1_st0234</title>
<path fill="none" stroke="black" d="M1510.53,-301.87C1472.21,-282.6 1417.02,-256.15 1367,-237 1263.43,-197.36 1228.86,-208.16 1131,-156 1116.39,-148.21 1101.21,-138.46 1087.8,-129.19"/>
<polygon fill="black" stroke="black" points="1089.45,-126.07 1079.26,-123.19 1085.43,-131.8 1089.45,-126.07"/>
<text text-anchor="start" x="1287" y="-240.8" font-family="arial" font-size="14.00" fill="#377eb8">true</text>
</g>
<!-- ID_112_ct1_st014&#45;&gt;ID_112_ct1_st014 -->
<g id="edge28" class="edge">
<title>ID_112_ct1_st014&#45;&gt;ID_112_ct1_st014</title>
<path fill="none" stroke="black" d="M1541.7,-352.18C1540.88,-361.91 1546.98,-370 1560,-370 1568.13,-370 1573.57,-366.84 1576.3,-362.09"/>
<polygon fill="black" stroke="black" points="1579.76,-362.67 1578.3,-352.18 1572.89,-361.29 1579.76,-362.67"/>
<text text-anchor="start" x="1537" y="-373.8" font-family="arial" font-size="14.00" fill="#377eb8">c1 &lt; 10</text>
</g>
<!-- ID_112_ct1_st0134&#45;&gt;ID_112_ct1_st -->
<g id="edge29" class="edge">
<title>ID_112_ct1_st0134&#45;&gt;ID_112_ct1_st</title>
<path fill="none" stroke="black" d="M1367.23,-136.59C1397.76,-140.36 1434.3,-145.33 1467,-151 1538.46,-163.39 1619.75,-181.48 1674.1,-194.15"/>
<polygon fill="black" stroke="black" points="1673.39,-197.58 1683.92,-196.45 1674.98,-190.77 1673.39,-197.58"/>
<text text-anchor="start" x="1553.5" y="-187.8" font-family="arial" font-size="14.00" fill="#377eb8">P&#39;</text>
</g>
<!-- ID_112_ct1_st0134&#45;&gt;ID_112_ct1_st0234 -->
<g id="edge30" class="edge">
<title>ID_112_ct1_st0134&#45;&gt;ID_112_ct1_st0234</title>
<path fill="none" stroke="black" d="M1230.82,-136.52C1200.13,-138.34 1163.46,-138.25 1131,-132 1123.92,-130.64 1116.68,-128.69 1109.55,-126.4"/>
<polygon fill="black" stroke="black" points="1110.54,-123.04 1099.94,-123.11 1108.27,-129.66 1110.54,-123.04"/>
<text text-anchor="start" x="1160" y="-140.8" font-family="arial" font-size="14.00" fill="#377eb8">true</text>
</g>
<!-- ID_112_ct1_st0134&#45;&gt;ID_112_ct1_st014 -->
<g id="edge31" class="edge">
<title>ID_112_ct1_st0134&#45;&gt;ID_112_ct1_st014</title>
<path fill="none" stroke="black" d="M1367.07,-146.66C1409.78,-158.32 1458.62,-172.59 1467,-179 1505.39,-208.35 1531.69,-258.7 1546.04,-292.41"/>
<polygon fill="black" stroke="black" points="1542.89,-293.96 1549.94,-301.87 1549.37,-291.29 1542.89,-293.96"/>
<text text-anchor="start" x="1385" y="-197.8" font-family="arial" font-size="14.00" fill="#377eb8">(P&#39; || c0 &gt;= 5)</text>
<text text-anchor="start" x="1407" y="-182.8" font-family="arial" font-size="14.00">c1 :=0</text>
</g>
<!-- ID_112_ct1_st0134&#45;&gt;ID_112_ct1_st0134 -->
<g id="edge32" class="edge">
<title>ID_112_ct1_st0134&#45;&gt;ID_112_ct1_st0134</title>
<path fill="none" stroke="black" d="M1275.47,-154.18C1274.42,-163.91 1282.27,-172 1299,-172 1309.46,-172 1316.45,-168.84 1319.96,-164.09"/>
<polygon fill="black" stroke="black" points="1323.41,-164.73 1322.53,-154.18 1316.63,-162.98 1323.41,-164.73"/>
<text text-anchor="start" x="1280" y="-175.8" font-family="arial" font-size="14.00" fill="#377eb8">c0 &lt; 5</text>
</g>
</g>
</svg>
