<?xml version="1.0" encoding="UTF-8" standalone="no"?>
<!DOCTYPE svg PUBLIC "-//W3C//DTD SVG 1.1//EN"
 "http://www.w3.org/Graphics/SVG/1.1/DTD/svg11.dtd">
<!-- Generated by graphviz version 2.43.0 (0)
 -->
<!-- Title: G Pages: 1 -->
<svg width="1099pt" height="292pt"
 viewBox="0.00 0.00 1099.00 292.00" xmlns="http://www.w3.org/2000/svg" xmlns:xlink="http://www.w3.org/1999/xlink">
<g id="graph0" class="graph" transform="scale(1 1) rotate(0) translate(4 288)">
<title>G</title>
<polygon fill="white" stroke="transparent" points="-4,4 -4,-288 1095,-288 1095,4 -4,4"/>
<!-- _ID_37_ct0_st -->
<!-- ID_37_ct0_st -->
<g id="node2" class="node">
<title>ID_37_ct0_st</title>
<polygon fill="none" stroke="black" points="1091,-200 992,-200 992,-150 1091,-150 1091,-200"/>
<text text-anchor="start" x="1000" y="-185.8" font-family="arial" font-weight="bold" font-size="14.00">ID_37_ct0_st</text>
<text text-anchor="start" x="1029.5" y="-171.8" font-family="arial" font-size="14.00" fill="#984ea3">true</text>
<text text-anchor="start" x="1029.5" y="-157.8" font-family="arial" font-size="14.00" fill="#ff7f00">true</text>
</g>
<!-- _ID_37_ct0_st&#45;&gt;ID_37_ct0_st -->
<g id="edge1" class="edge">
<title>_ID_37_ct0_st&#45;&gt;ID_37_ct0_st</title>
<path fill="none" stroke="black" d="M938.15,-250.79C950.31,-246.21 962.95,-240.61 974,-234 986.47,-226.54 998.76,-216.59 1009.32,-206.98"/>
<polygon fill="black" stroke="black" points="1011.77,-209.48 1016.68,-200.09 1006.99,-204.37 1011.77,-209.48"/>
</g>
<!-- ID_37_ct0_st&#45;&gt;ID_37_ct0_st -->
<g id="edge4" class="edge">
<title>ID_37_ct0_st&#45;&gt;ID_37_ct0_st</title>
<path fill="none" stroke="black" d="M1027.68,-200.18C1027.06,-209.91 1031.67,-218 1041.5,-218 1047.64,-218 1051.75,-214.84 1053.81,-210.09"/>
<polygon fill="black" stroke="black" points="1057.27,-210.59 1055.32,-200.18 1050.35,-209.53 1057.27,-210.59"/>
<text text-anchor="start" x="1029.5" y="-221.8" font-family="arial" font-size="14.00" fill="#377eb8">true</text>
</g>
<!-- _ID_37_ct0_st0 -->
<!-- ID_37_ct0_st0 -->
<g id="node4" class="node">
<title>ID_37_ct0_st0</title>
<polygon fill="none" stroke="black" points="261,-50 154,-50 154,0 261,0 261,-50"/>
<text text-anchor="start" x="162" y="-35.8" font-family="arial" font-weight="bold" font-size="14.00">ID_37_ct0_st0</text>
<text text-anchor="start" x="178.5" y="-21.8" font-family="arial" font-size="14.00" fill="#984ea3">(!P &amp;&amp; R)</text>
<text text-anchor="start" x="195.5" y="-7.8" font-family="arial" font-size="14.00" fill="#ff7f00">true</text>
</g>
<!-- _ID_37_ct0_st0&#45;&gt;ID_37_ct0_st0 -->
<g id="edge2" class="edge">
<title>_ID_37_ct0_st0&#45;&gt;ID_37_ct0_st0</title>
<path fill="none" stroke="black" d="M111.08,-25C121.62,-25 132.74,-25 143.52,-25"/>
<polygon fill="black" stroke="black" points="143.72,-28.5 153.72,-25 143.72,-21.5 143.72,-28.5"/>
</g>
<!-- ID_37_ct0_st0&#45;&gt;ID_37_ct0_st -->
<g id="edge5" class="edge">
<title>ID_37_ct0_st0&#45;&gt;ID_37_ct0_st</title>
<path fill="none" stroke="black" d="M261.19,-25C295.81,-25 342.1,-25 383,-25 383,-25 383,-25 887,-25 952.92,-25 1001.04,-96.64 1024.48,-140.9"/>
<polygon fill="black" stroke="black" points="1021.42,-142.6 1029.1,-149.89 1027.64,-139.4 1021.42,-142.6"/>
<text text-anchor="start" x="679" y="-28.8" font-family="arial" font-size="14.00" fill="#377eb8">P&#39;</text>
</g>
<!-- ID_37_ct0_st0&#45;&gt;ID_37_ct0_st0 -->
<g id="edge6" class="edge">
<title>ID_37_ct0_st0&#45;&gt;ID_37_ct0_st0</title>
<path fill="none" stroke="black" d="M192.93,-50.18C192.28,-59.91 197.14,-68 207.5,-68 213.97,-68 218.3,-64.84 220.47,-60.09"/>
<polygon fill="black" stroke="black" points="223.94,-60.6 222.07,-50.18 217.03,-59.49 223.94,-60.6"/>
<text text-anchor="start" x="195.5" y="-71.8" font-family="arial" font-size="14.00" fill="#377eb8">true</text>
</g>
<!-- ID_37_ct0_st01 -->
<g id="node6" class="node">
<title>ID_37_ct0_st01</title>
<polygon fill="none" stroke="black" points="441,-139 327,-139 327,-89 441,-89 441,-139"/>
<text text-anchor="start" x="335" y="-124.8" font-family="arial" font-weight="bold" font-size="14.00">ID_37_ct0_st01</text>
<text text-anchor="start" x="353.5" y="-110.8" font-family="arial" font-size="14.00" fill="#984ea3">(!P &amp;&amp; !R)</text>
<text text-anchor="start" x="372" y="-96.8" font-family="arial" font-size="14.00" fill="#ff7f00">true</text>
</g>
<!-- ID_37_ct0_st0&#45;&gt;ID_37_ct0_st01 -->
<g id="edge7" class="edge">
<title>ID_37_ct0_st0&#45;&gt;ID_37_ct0_st01</title>
<path fill="none" stroke="black" d="M257.57,-50.03C278.39,-60.65 302.82,-73.1 324.56,-84.19"/>
<polygon fill="black" stroke="black" points="323.19,-87.43 333.69,-88.85 326.37,-81.19 323.19,-87.43"/>
<text text-anchor="start" x="285" y="-77.8" font-family="arial" font-size="14.00" fill="#377eb8">true</text>
</g>
<!-- _ID_37_ct0_st01 -->
<!-- _ID_37_ct0_st01&#45;&gt;ID_37_ct0_st01 -->
<g id="edge3" class="edge">
<title>_ID_37_ct0_st01&#45;&gt;ID_37_ct0_st01</title>
<path fill="none" stroke="black" d="M267.09,-117.32C283.08,-116.86 300.51,-116.36 316.89,-115.89"/>
<polygon fill="black" stroke="black" points="317.03,-119.39 326.93,-115.61 316.83,-112.39 317.03,-119.39"/>
</g>
<!-- ID_37_ct0_st01&#45;&gt;ID_37_ct0_st -->
<g id="edge8" class="edge">
<title>ID_37_ct0_st01&#45;&gt;ID_37_ct0_st</title>
<path fill="none" stroke="black" d="M413.42,-139.24C426.49,-149.6 442.69,-160.84 459,-168 527.47,-198.08 549.58,-193.63 624,-201 751.39,-213.61 901.34,-196.43 982.03,-184.57"/>
<polygon fill="black" stroke="black" points="982.62,-188.02 991.99,-183.08 981.58,-181.1 982.62,-188.02"/>
<text text-anchor="start" x="781.5" y="-207.8" font-family="arial" font-size="14.00" fill="#377eb8">P&#39;</text>
</g>
<!-- ID_37_ct0_st01&#45;&gt;ID_37_ct0_st01 -->
<g id="edge10" class="edge">
<title>ID_37_ct0_st01&#45;&gt;ID_37_ct0_st01</title>
<path fill="none" stroke="black" d="M367.94,-139.18C367.22,-148.91 372.58,-157 384,-157 391.14,-157 395.91,-153.84 398.31,-149.09"/>
<polygon fill="black" stroke="black" points="401.76,-149.63 400.06,-139.18 394.87,-148.41 401.76,-149.63"/>
<text text-anchor="start" x="372" y="-160.8" font-family="arial" font-size="14.00" fill="#377eb8">true</text>
</g>
<!-- ID_37_ct0_st02X -->
<g id="node7" class="node">
<title>ID_37_ct0_st02X</title>
<polygon fill="none" stroke="black" points="747,-159 624,-159 624,-109 747,-109 747,-159"/>
<text text-anchor="start" x="632" y="-144.8" font-family="arial" font-weight="bold" font-size="14.00">ID_37_ct0_st02X</text>
<text text-anchor="start" x="656.5" y="-130.8" font-family="arial" font-size="14.00" fill="#984ea3">(!P &amp;&amp; R)</text>
<text text-anchor="start" x="662.5" y="-116.8" font-family="arial" font-size="14.00" fill="#ff7f00">c0 &lt;= 5</text>
</g>
<!-- ID_37_ct0_st01&#45;&gt;ID_37_ct0_st02X -->
<g id="edge9" class="edge">
<title>ID_37_ct0_st01&#45;&gt;ID_37_ct0_st02X</title>
<path fill="none" stroke="black" d="M441.02,-125.58C447.07,-126.53 453.15,-127.37 459,-128 510.48,-133.52 568.93,-134.94 613.42,-135.02"/>
<polygon fill="black" stroke="black" points="613.55,-138.52 623.55,-135.02 613.55,-131.52 613.55,-138.52"/>
<text text-anchor="start" x="520.5" y="-152.8" font-family="arial" font-size="14.00" fill="#377eb8">true</text>
<text text-anchor="start" x="513.5" y="-137.8" font-family="arial" font-size="14.00">c0 :=0</text>
</g>
<!-- ID_37_ct0_st02X&#45;&gt;ID_37_ct0_st -->
<g id="edge11" class="edge">
<title>ID_37_ct0_st02X&#45;&gt;ID_37_ct0_st</title>
<path fill="none" stroke="black" d="M747.35,-141.05C813.03,-148.65 916.9,-160.69 981.75,-168.2"/>
<polygon fill="black" stroke="black" points="981.47,-171.69 991.81,-169.36 982.28,-164.73 981.47,-171.69"/>
<text text-anchor="start" x="879.5" y="-166.8" font-family="arial" font-size="14.00" fill="#377eb8">P&#39;</text>
</g>
<!-- ID_37_ct0_st02X&#45;&gt;ID_37_ct0_st01 -->
<g id="edge14" class="edge">
<title>ID_37_ct0_st02X&#45;&gt;ID_37_ct0_st01</title>
<path fill="none" stroke="black" d="M623.66,-112.62C617.75,-111.15 611.79,-109.9 606,-109 554.46,-100.99 495.35,-102.9 451.24,-106.44"/>
<polygon fill="black" stroke="black" points="450.88,-102.96 441.22,-107.3 451.48,-109.94 450.88,-102.96"/>
<text text-anchor="start" x="459" y="-112.8" font-family="arial" font-size="14.00" fill="#377eb8">(P&#39; || (R&#39; || (S&#39; || c0 &lt; 5)))</text>
</g>
<!-- ID_37_ct0_st02X&#45;&gt;ID_37_ct0_st02X -->
<g id="edge12" class="edge">
<title>ID_37_ct0_st02X&#45;&gt;ID_37_ct0_st02X</title>
<path fill="none" stroke="black" d="M666.45,-159.18C665.6,-168.91 671.95,-177 685.5,-177 693.97,-177 699.62,-173.84 702.47,-169.09"/>
<polygon fill="black" stroke="black" points="705.92,-169.68 704.55,-159.18 699.07,-168.24 705.92,-169.68"/>
<text text-anchor="start" x="666.5" y="-180.8" font-family="arial" font-size="14.00" fill="#377eb8">c0 &lt; 5</text>
</g>
<!-- ID_37_ct0_st02 -->
<g id="node8" class="node">
<title>ID_37_ct0_st02</title>
<polygon fill="none" stroke="black" points="943,-106 829,-106 829,-56 943,-56 943,-106"/>
<text text-anchor="start" x="837" y="-91.8" font-family="arial" font-weight="bold" font-size="14.00">ID_37_ct0_st02</text>
<text text-anchor="start" x="857" y="-77.8" font-family="arial" font-size="14.00" fill="#984ea3">(!P &amp;&amp; R)</text>
<text text-anchor="start" x="874" y="-63.8" font-family="arial" font-size="14.00" fill="#ff7f00">true</text>
</g>
<!-- ID_37_ct0_st02X&#45;&gt;ID_37_ct0_st02 -->
<g id="edge13" class="edge">
<title>ID_37_ct0_st02X&#45;&gt;ID_37_ct0_st02</title>
<path fill="none" stroke="black" d="M747.14,-117.81C769.88,-111.74 795.83,-104.81 819.04,-98.61"/>
<polygon fill="black" stroke="black" points="820.04,-101.97 828.8,-96.01 818.23,-95.2 820.04,-101.97"/>
<text text-anchor="start" x="765" y="-115.8" font-family="arial" font-size="14.00" fill="#377eb8">c0 &gt;= 5</text>
</g>
<!-- ID_37_ct0_st02&#45;&gt;ID_37_ct0_st -->
<g id="edge15" class="edge">
<title>ID_37_ct0_st02&#45;&gt;ID_37_ct0_st</title>
<path fill="none" stroke="black" d="M928.14,-106.19C947.4,-117.99 970.51,-132.14 990.74,-144.53"/>
<polygon fill="black" stroke="black" points="989.16,-147.67 999.52,-149.9 992.82,-141.7 989.16,-147.67"/>
<text text-anchor="start" x="961" y="-136.8" font-family="arial" font-size="14.00" fill="#377eb8">P&#39;</text>
</g>
<!-- ID_37_ct0_st02&#45;&gt;ID_37_ct0_st01 -->
<g id="edge17" class="edge">
<title>ID_37_ct0_st02&#45;&gt;ID_37_ct0_st01</title>
<path fill="none" stroke="black" d="M828.85,-79.81C747.05,-78.89 590.53,-80.15 459,-99 456.35,-99.38 453.66,-99.79 450.94,-100.23"/>
<polygon fill="black" stroke="black" points="450.31,-96.79 441.04,-101.93 451.49,-103.69 450.31,-96.79"/>
<text text-anchor="start" x="643" y="-86.8" font-family="arial" font-size="14.00" fill="#377eb8">(P&#39; || (R&#39; || S&#39;))</text>
</g>
<!-- ID_37_ct0_st02&#45;&gt;ID_37_ct0_st02 -->
<g id="edge16" class="edge">
<title>ID_37_ct0_st02&#45;&gt;ID_37_ct0_st02</title>
<path fill="none" stroke="black" d="M871.06,-106.18C870.39,-115.91 875.38,-124 886,-124 892.64,-124 897.08,-120.84 899.31,-116.09"/>
<polygon fill="black" stroke="black" points="902.77,-116.61 900.94,-106.18 895.86,-115.47 902.77,-116.61"/>
<text text-anchor="start" x="874" y="-127.8" font-family="arial" font-size="14.00" fill="#377eb8">true</text>
</g>
</g>
</svg>
