<?xml version="1.0" encoding="UTF-8" standalone="no"?>
<!DOCTYPE svg PUBLIC "-//W3C//DTD SVG 1.1//EN"
 "http://www.w3.org/Graphics/SVG/1.1/DTD/svg11.dtd">
<!-- Generated by graphviz version 2.43.0 (0)
 -->
<!-- Title: G Pages: 1 -->
<svg width="898pt" height="177pt"
 viewBox="0.00 0.00 898.00 177.00" xmlns="http://www.w3.org/2000/svg" xmlns:xlink="http://www.w3.org/1999/xlink">
<g id="graph0" class="graph" transform="scale(1 1) rotate(0) translate(4 173)">
<title>G</title>
<polygon fill="white" stroke="transparent" points="-4,4 -4,-173 894,-173 894,4 -4,4"/>
<!-- _ID_89_ct0_st0 -->
<!-- ID_89_ct0_st0 -->
<g id="node2" class="node">
<title>ID_89_ct0_st0</title>
<polygon fill="none" stroke="black" points="261,-129 154,-129 154,-79 261,-79 261,-129"/>
<text text-anchor="start" x="162" y="-114.8" font-family="arial" font-weight="bold" font-size="14.00">ID_89_ct0_st0</text>
<text text-anchor="start" x="202.5" y="-100.8" font-family="arial" font-size="14.00" fill="#984ea3">R</text>
<text text-anchor="start" x="195.5" y="-86.8" font-family="arial" font-size="14.00" fill="#ff7f00">true</text>
</g>
<!-- _ID_89_ct0_st0&#45;&gt;ID_89_ct0_st0 -->
<g id="edge1" class="edge">
<title>_ID_89_ct0_st0&#45;&gt;ID_89_ct0_st0</title>
<path fill="none" stroke="black" d="M111.08,-104C121.62,-104 132.74,-104 143.52,-104"/>
<polygon fill="black" stroke="black" points="143.72,-107.5 153.72,-104 143.72,-100.5 143.72,-107.5"/>
</g>
<!-- ID_89_ct0_st0&#45;&gt;ID_89_ct0_st0 -->
<g id="edge3" class="edge">
<title>ID_89_ct0_st0&#45;&gt;ID_89_ct0_st0</title>
<path fill="none" stroke="black" d="M192.93,-129.18C192.28,-138.91 197.14,-147 207.5,-147 213.97,-147 218.3,-143.84 220.47,-139.09"/>
<polygon fill="black" stroke="black" points="223.94,-139.6 222.07,-129.18 217.03,-138.49 223.94,-139.6"/>
<text text-anchor="start" x="195.5" y="-150.8" font-family="arial" font-size="14.00" fill="#377eb8">true</text>
</g>
<!-- ID_89_ct0_st01 -->
<g id="node4" class="node">
<title>ID_89_ct0_st01</title>
<polygon fill="none" stroke="black" points="472,-50 358,-50 358,0 472,0 472,-50"/>
<text text-anchor="start" x="366" y="-35.8" font-family="arial" font-weight="bold" font-size="14.00">ID_89_ct0_st01</text>
<text text-anchor="start" x="408" y="-21.8" font-family="arial" font-size="14.00" fill="#984ea3">!R</text>
<text text-anchor="start" x="403" y="-7.8" font-family="arial" font-size="14.00" fill="#ff7f00">true</text>
</g>
<!-- ID_89_ct0_st0&#45;&gt;ID_89_ct0_st01 -->
<g id="edge4" class="edge">
<title>ID_89_ct0_st0&#45;&gt;ID_89_ct0_st01</title>
<path fill="none" stroke="black" d="M261.01,-92.33C285.48,-86.11 314.72,-77.55 340,-67 348.22,-63.57 356.68,-59.43 364.8,-55.09"/>
<polygon fill="black" stroke="black" points="366.72,-58.03 373.8,-50.15 363.35,-51.9 366.72,-58.03"/>
<text text-anchor="start" x="300.5" y="-89.8" font-family="arial" font-size="14.00" fill="#377eb8">true</text>
</g>
<!-- _ID_89_ct0_st01 -->
<!-- _ID_89_ct0_st01&#45;&gt;ID_89_ct0_st01 -->
<g id="edge2" class="edge">
<title>_ID_89_ct0_st01&#45;&gt;ID_89_ct0_st01</title>
<path fill="none" stroke="black" d="M267.11,-20C292.25,-20.85 321.73,-21.86 347.67,-22.74"/>
<polygon fill="black" stroke="black" points="347.67,-26.24 357.79,-23.09 347.91,-19.25 347.67,-26.24"/>
</g>
<!-- ID_89_ct0_st01&#45;&gt;ID_89_ct0_st0 -->
<g id="edge5" class="edge">
<title>ID_89_ct0_st01&#45;&gt;ID_89_ct0_st0</title>
<path fill="none" stroke="black" d="M357.8,-29.4C334.57,-32.63 307.8,-38.25 285,-48 270.74,-54.1 256.61,-63.3 244.45,-72.49"/>
<polygon fill="black" stroke="black" points="242.08,-69.89 236.36,-78.81 246.4,-75.41 242.08,-69.89"/>
<text text-anchor="start" x="285" y="-51.8" font-family="arial" font-size="14.00" fill="#377eb8">(Q&#39; || !R&#39;)</text>
</g>
<!-- ID_89_ct0_st01&#45;&gt;ID_89_ct0_st01 -->
<g id="edge7" class="edge">
<title>ID_89_ct0_st01&#45;&gt;ID_89_ct0_st01</title>
<path fill="none" stroke="black" d="M397.44,-50.18C396.66,-59.91 402.52,-68 415,-68 422.8,-68 428.01,-64.84 430.64,-60.09"/>
<polygon fill="black" stroke="black" points="434.09,-60.66 432.56,-50.18 427.22,-59.33 434.09,-60.66"/>
<text text-anchor="start" x="403" y="-71.8" font-family="arial" font-size="14.00" fill="#377eb8">true</text>
</g>
<!-- ID_89_ct0_st023W -->
<g id="node5" class="node">
<title>ID_89_ct0_st023W</title>
<polygon fill="none" stroke="black" points="681,-99 546,-99 546,-49 681,-49 681,-99"/>
<text text-anchor="start" x="554" y="-84.8" font-family="arial" font-weight="bold" font-size="14.00">ID_89_ct0_st023W</text>
<text text-anchor="start" x="583.5" y="-70.8" font-family="arial" font-size="14.00" fill="#984ea3">(!Q &amp;&amp; R)</text>
<text text-anchor="start" x="590.5" y="-56.8" font-family="arial" font-size="14.00" fill="#ff7f00">c0 &lt;= 5</text>
</g>
<!-- ID_89_ct0_st01&#45;&gt;ID_89_ct0_st023W -->
<g id="edge6" class="edge">
<title>ID_89_ct0_st01&#45;&gt;ID_89_ct0_st023W</title>
<path fill="none" stroke="black" d="M472.24,-46.65C478.19,-48.6 484.19,-50.43 490,-52 504.72,-55.97 520.62,-59.43 535.95,-62.35"/>
<polygon fill="black" stroke="black" points="535.45,-65.82 545.92,-64.19 536.72,-58.93 535.45,-65.82"/>
<text text-anchor="start" x="497" y="-79.8" font-family="arial" font-size="14.00" fill="#377eb8">true</text>
<text text-anchor="start" x="490" y="-64.8" font-family="arial" font-size="14.00">c0 :=0</text>
</g>
<!-- ID_89_ct0_st023W&#45;&gt;ID_89_ct0_st0 -->
<g id="edge12" class="edge">
<title>ID_89_ct0_st023W&#45;&gt;ID_89_ct0_st0</title>
<path fill="none" stroke="black" d="M545.85,-91.81C539.85,-93.04 533.83,-94.13 528,-95 439.57,-108.22 335.88,-108.36 271.18,-106.65"/>
<polygon fill="black" stroke="black" points="271.23,-103.15 261.14,-106.37 271.03,-110.15 271.23,-103.15"/>
<text text-anchor="start" x="407.5" y="-110.8" font-family="arial" font-size="14.00" fill="#377eb8">Q&#39;</text>
</g>
<!-- ID_89_ct0_st023W&#45;&gt;ID_89_ct0_st01 -->
<g id="edge14" class="edge">
<title>ID_89_ct0_st023W&#45;&gt;ID_89_ct0_st01</title>
<path fill="none" stroke="black" d="M569,-49C556.18,-42.71 541.86,-36.71 528,-33 513.54,-29.13 497.68,-26.86 482.56,-25.58"/>
<polygon fill="black" stroke="black" points="482.46,-22.07 472.24,-24.85 481.96,-29.05 482.46,-22.07"/>
<text text-anchor="start" x="501.5" y="-36.8" font-family="arial" font-size="14.00" fill="#377eb8">Q&#39;</text>
</g>
<!-- ID_89_ct0_st023W&#45;&gt;ID_89_ct0_st023W -->
<g id="edge13" class="edge">
<title>ID_89_ct0_st023W&#45;&gt;ID_89_ct0_st023W</title>
<path fill="none" stroke="black" d="M594.08,-99.18C593.21,-108.91 599.69,-117 613.5,-117 622.13,-117 627.9,-113.84 630.8,-109.09"/>
<polygon fill="black" stroke="black" points="634.25,-109.69 632.92,-99.18 627.41,-108.22 634.25,-109.69"/>
<text text-anchor="start" x="594.5" y="-120.8" font-family="arial" font-size="14.00" fill="#377eb8">c0 &lt; 5</text>
</g>
<!-- ID_89_ct0_st013W -->
<g id="node6" class="node">
<title>ID_89_ct0_st013W</title>
<polygon fill="none" stroke="black" points="890,-99 755,-99 755,-49 890,-49 890,-99"/>
<text text-anchor="start" x="763" y="-84.8" font-family="arial" font-weight="bold" font-size="14.00">ID_89_ct0_st013W</text>
<text text-anchor="start" x="790.5" y="-70.8" font-family="arial" font-size="14.00" fill="#984ea3">(!Q &amp;&amp; !R)</text>
<text text-anchor="start" x="799.5" y="-56.8" font-family="arial" font-size="14.00" fill="#ff7f00">c0 &lt;= 5</text>
</g>
<!-- ID_89_ct0_st023W&#45;&gt;ID_89_ct0_st013W -->
<g id="edge15" class="edge">
<title>ID_89_ct0_st023W&#45;&gt;ID_89_ct0_st013W</title>
<path fill="none" stroke="black" d="M681.14,-74C701.45,-74 723.94,-74 744.86,-74"/>
<polygon fill="black" stroke="black" points="744.99,-77.5 754.99,-74 744.99,-70.5 744.99,-77.5"/>
<text text-anchor="start" x="699" y="-77.8" font-family="arial" font-size="14.00" fill="#377eb8">c0 &lt; 5</text>
</g>
<!-- ID_89_ct0_st013W&#45;&gt;ID_89_ct0_st0 -->
<g id="edge8" class="edge">
<title>ID_89_ct0_st013W&#45;&gt;ID_89_ct0_st0</title>
<path fill="none" stroke="black" d="M781.46,-99.02C754.26,-114.49 716.85,-132.89 681,-141 536.93,-173.59 362.56,-142.28 271.24,-120.66"/>
<polygon fill="black" stroke="black" points="271.87,-117.21 261.33,-118.27 270.23,-124.02 271.87,-117.21"/>
<text text-anchor="start" x="501.5" y="-157.8" font-family="arial" font-size="14.00" fill="#377eb8">Q&#39;</text>
</g>
<!-- ID_89_ct0_st013W&#45;&gt;ID_89_ct0_st01 -->
<g id="edge10" class="edge">
<title>ID_89_ct0_st013W&#45;&gt;ID_89_ct0_st01</title>
<path fill="none" stroke="black" d="M763.15,-48.92C738.32,-39.49 708.73,-29.88 681,-25 614.02,-13.21 596,-23.44 528,-23 511.11,-22.89 506.89,-22.77 490,-23 487.47,-23.03 484.89,-23.07 482.29,-23.12"/>
<polygon fill="black" stroke="black" points="482.09,-19.62 472.16,-23.32 482.23,-26.62 482.09,-19.62"/>
<text text-anchor="start" x="606" y="-28.8" font-family="arial" font-size="14.00" fill="#377eb8">Q&#39;</text>
</g>
<!-- ID_89_ct0_st013W&#45;&gt;ID_89_ct0_st023W -->
<g id="edge9" class="edge">
<title>ID_89_ct0_st013W&#45;&gt;ID_89_ct0_st023W</title>
<path fill="none" stroke="black" d="M754.87,-58.07C736.78,-55.43 717.17,-54.09 699,-56 696.45,-56.27 693.87,-56.58 691.27,-56.93"/>
<polygon fill="black" stroke="black" points="690.54,-53.5 681.17,-58.45 691.58,-60.42 690.54,-53.5"/>
<text text-anchor="start" x="699" y="-59.8" font-family="arial" font-size="14.00" fill="#377eb8">c0 &lt; 5</text>
</g>
<!-- ID_89_ct0_st013W&#45;&gt;ID_89_ct0_st013W -->
<g id="edge11" class="edge">
<title>ID_89_ct0_st013W&#45;&gt;ID_89_ct0_st013W</title>
<path fill="none" stroke="black" d="M803.08,-99.18C802.21,-108.91 808.69,-117 822.5,-117 831.13,-117 836.9,-113.84 839.8,-109.09"/>
<polygon fill="black" stroke="black" points="843.25,-109.69 841.92,-99.18 836.41,-108.22 843.25,-109.69"/>
<text text-anchor="start" x="803.5" y="-120.8" font-family="arial" font-size="14.00" fill="#377eb8">c0 &lt; 5</text>
</g>
</g>
</svg>
