<?xml version="1.0" encoding="UTF-8" standalone="no"?>
<!DOCTYPE svg PUBLIC "-//W3C//DTD SVG 1.1//EN"
 "http://www.w3.org/Graphics/SVG/1.1/DTD/svg11.dtd">
<!-- Generated by graphviz version 2.43.0 (0)
 -->
<!-- Title: G Pages: 1 -->
<svg width="1115pt" height="339pt"
 viewBox="0.00 0.00 1115.00 339.00" xmlns="http://www.w3.org/2000/svg" xmlns:xlink="http://www.w3.org/1999/xlink">
<g id="graph0" class="graph" transform="scale(1 1) rotate(0) translate(4 335)">
<title>G</title>
<polygon fill="white" stroke="transparent" points="-4,4 -4,-335 1111,-335 1111,4 -4,4"/>
<!-- _ID_92_ct0_stinit -->
<!-- ID_92_ct0_stinit -->
<g id="node2" class="node">
<title>ID_92_ct0_stinit</title>
<polygon fill="none" stroke="black" points="948,-298 829,-298 829,-248 948,-248 948,-298"/>
<text text-anchor="start" x="837" y="-283.8" font-family="arial" font-weight="bold" font-size="14.00">ID_92_ct0_stinit</text>
<text text-anchor="start" x="883.5" y="-269.8" font-family="arial" font-size="14.00" fill="#984ea3">P</text>
<text text-anchor="start" x="876.5" y="-255.8" font-family="arial" font-size="14.00" fill="#ff7f00">true</text>
</g>
<!-- _ID_92_ct0_stinit&#45;&gt;ID_92_ct0_stinit -->
<g id="edge1" class="edge">
<title>_ID_92_ct0_stinit&#45;&gt;ID_92_ct0_stinit</title>
<path fill="none" stroke="black" d="M746.26,-273C768.94,-273 794.96,-273 818.43,-273"/>
<polygon fill="black" stroke="black" points="818.66,-276.5 828.66,-273 818.66,-269.5 818.66,-276.5"/>
</g>
<!-- ID_92_ct0_stinit&#45;&gt;ID_92_ct0_stinit -->
<g id="edge5" class="edge">
<title>ID_92_ct0_stinit&#45;&gt;ID_92_ct0_stinit</title>
<path fill="none" stroke="black" d="M872.06,-298.18C871.33,-307.91 876.81,-316 888.5,-316 895.8,-316 900.68,-312.84 903.14,-308.09"/>
<polygon fill="black" stroke="black" points="906.6,-308.64 904.94,-298.18 899.71,-307.39 906.6,-308.64"/>
<text text-anchor="start" x="876.5" y="-319.8" font-family="arial" font-size="14.00" fill="#377eb8">true</text>
</g>
<!-- ID_92_ct0_st -->
<g id="node7" class="node">
<title>ID_92_ct0_st</title>
<polygon fill="none" stroke="black" points="1107,-200 1008,-200 1008,-150 1107,-150 1107,-200"/>
<text text-anchor="start" x="1016" y="-185.8" font-family="arial" font-weight="bold" font-size="14.00">ID_92_ct0_st</text>
<text text-anchor="start" x="1045.5" y="-171.8" font-family="arial" font-size="14.00" fill="#984ea3">true</text>
<text text-anchor="start" x="1045.5" y="-157.8" font-family="arial" font-size="14.00" fill="#ff7f00">true</text>
</g>
<!-- ID_92_ct0_stinit&#45;&gt;ID_92_ct0_st -->
<g id="edge4" class="edge">
<title>ID_92_ct0_stinit&#45;&gt;ID_92_ct0_st</title>
<path fill="none" stroke="black" d="M948.04,-254.31C962.25,-248.7 977.06,-241.9 990,-234 1002.3,-226.5 1014.47,-216.62 1024.97,-207.1"/>
<polygon fill="black" stroke="black" points="1027.37,-209.65 1032.3,-200.27 1022.6,-204.53 1027.37,-209.65"/>
<text text-anchor="start" x="966" y="-249.8" font-family="arial" font-size="14.00" fill="#377eb8">true</text>
</g>
<!-- _ID_92_ct0_st0 -->
<!-- ID_92_ct0_st0 -->
<g id="node4" class="node">
<title>ID_92_ct0_st0</title>
<polygon fill="none" stroke="black" points="261,-50 154,-50 154,0 261,0 261,-50"/>
<text text-anchor="start" x="162" y="-35.8" font-family="arial" font-weight="bold" font-size="14.00">ID_92_ct0_st0</text>
<text text-anchor="start" x="178.5" y="-21.8" font-family="arial" font-size="14.00" fill="#984ea3">(!P &amp;&amp; R)</text>
<text text-anchor="start" x="195.5" y="-7.8" font-family="arial" font-size="14.00" fill="#ff7f00">true</text>
</g>
<!-- _ID_92_ct0_st0&#45;&gt;ID_92_ct0_st0 -->
<g id="edge2" class="edge">
<title>_ID_92_ct0_st0&#45;&gt;ID_92_ct0_st0</title>
<path fill="none" stroke="black" d="M111.08,-25C121.62,-25 132.74,-25 143.52,-25"/>
<polygon fill="black" stroke="black" points="143.72,-28.5 153.72,-25 143.72,-21.5 143.72,-28.5"/>
</g>
<!-- ID_92_ct0_st0&#45;&gt;ID_92_ct0_st0 -->
<g id="edge8" class="edge">
<title>ID_92_ct0_st0&#45;&gt;ID_92_ct0_st0</title>
<path fill="none" stroke="black" d="M192.93,-50.18C192.28,-59.91 197.14,-68 207.5,-68 213.97,-68 218.3,-64.84 220.47,-60.09"/>
<polygon fill="black" stroke="black" points="223.94,-60.6 222.07,-50.18 217.03,-59.49 223.94,-60.6"/>
<text text-anchor="start" x="195.5" y="-71.8" font-family="arial" font-size="14.00" fill="#377eb8">true</text>
</g>
<!-- ID_92_ct0_st01 -->
<g id="node6" class="node">
<title>ID_92_ct0_st01</title>
<polygon fill="none" stroke="black" points="441,-139 327,-139 327,-89 441,-89 441,-139"/>
<text text-anchor="start" x="335" y="-124.8" font-family="arial" font-weight="bold" font-size="14.00">ID_92_ct0_st01</text>
<text text-anchor="start" x="353.5" y="-110.8" font-family="arial" font-size="14.00" fill="#984ea3">(!P &amp;&amp; !R)</text>
<text text-anchor="start" x="372" y="-96.8" font-family="arial" font-size="14.00" fill="#ff7f00">true</text>
</g>
<!-- ID_92_ct0_st0&#45;&gt;ID_92_ct0_st01 -->
<g id="edge9" class="edge">
<title>ID_92_ct0_st0&#45;&gt;ID_92_ct0_st01</title>
<path fill="none" stroke="black" d="M257.57,-50.03C278.39,-60.65 302.82,-73.1 324.56,-84.19"/>
<polygon fill="black" stroke="black" points="323.19,-87.43 333.69,-88.85 326.37,-81.19 323.19,-87.43"/>
<text text-anchor="start" x="285" y="-77.8" font-family="arial" font-size="14.00" fill="#377eb8">true</text>
</g>
<!-- ID_92_ct0_st0&#45;&gt;ID_92_ct0_st -->
<g id="edge7" class="edge">
<title>ID_92_ct0_st0&#45;&gt;ID_92_ct0_st</title>
<path fill="none" stroke="black" d="M261.19,-25C295.81,-25 342.1,-25 383,-25 383,-25 383,-25 889.5,-25 958.59,-25 1012.08,-96.94 1038.44,-141.18"/>
<polygon fill="black" stroke="black" points="1035.45,-143 1043.5,-149.89 1041.51,-139.49 1035.45,-143"/>
<text text-anchor="start" x="679" y="-28.8" font-family="arial" font-size="14.00" fill="#377eb8">P&#39;</text>
</g>
<!-- _ID_92_ct0_st01 -->
<!-- _ID_92_ct0_st01&#45;&gt;ID_92_ct0_st01 -->
<g id="edge3" class="edge">
<title>_ID_92_ct0_st01&#45;&gt;ID_92_ct0_st01</title>
<path fill="none" stroke="black" d="M267.09,-117.32C283.08,-116.86 300.51,-116.36 316.89,-115.89"/>
<polygon fill="black" stroke="black" points="317.03,-119.39 326.93,-115.61 316.83,-112.39 317.03,-119.39"/>
</g>
<!-- ID_92_ct0_st01&#45;&gt;ID_92_ct0_st01 -->
<g id="edge12" class="edge">
<title>ID_92_ct0_st01&#45;&gt;ID_92_ct0_st01</title>
<path fill="none" stroke="black" d="M367.94,-139.18C367.22,-148.91 372.58,-157 384,-157 391.14,-157 395.91,-153.84 398.31,-149.09"/>
<polygon fill="black" stroke="black" points="401.76,-149.63 400.06,-139.18 394.87,-148.41 401.76,-149.63"/>
<text text-anchor="start" x="372" y="-160.8" font-family="arial" font-size="14.00" fill="#377eb8">true</text>
</g>
<!-- ID_92_ct0_st01&#45;&gt;ID_92_ct0_st -->
<g id="edge10" class="edge">
<title>ID_92_ct0_st01&#45;&gt;ID_92_ct0_st</title>
<path fill="none" stroke="black" d="M413.42,-139.24C426.49,-149.6 442.69,-160.84 459,-168 527.47,-198.08 549.58,-193.63 624,-201 757.3,-214.2 914.42,-196.46 997.73,-184.43"/>
<polygon fill="black" stroke="black" points="998.37,-187.87 1007.76,-182.96 997.35,-180.95 998.37,-187.87"/>
<text text-anchor="start" x="781.5" y="-208.8" font-family="arial" font-size="14.00" fill="#377eb8">P&#39;</text>
</g>
<!-- ID_92_ct0_st02X -->
<g id="node8" class="node">
<title>ID_92_ct0_st02X</title>
<polygon fill="none" stroke="black" points="747,-159 624,-159 624,-109 747,-109 747,-159"/>
<text text-anchor="start" x="632" y="-144.8" font-family="arial" font-weight="bold" font-size="14.00">ID_92_ct0_st02X</text>
<text text-anchor="start" x="656.5" y="-130.8" font-family="arial" font-size="14.00" fill="#984ea3">(!P &amp;&amp; R)</text>
<text text-anchor="start" x="662.5" y="-116.8" font-family="arial" font-size="14.00" fill="#ff7f00">c0 &lt;= 5</text>
</g>
<!-- ID_92_ct0_st01&#45;&gt;ID_92_ct0_st02X -->
<g id="edge11" class="edge">
<title>ID_92_ct0_st01&#45;&gt;ID_92_ct0_st02X</title>
<path fill="none" stroke="black" d="M441.02,-125.58C447.07,-126.53 453.15,-127.37 459,-128 510.48,-133.52 568.93,-134.94 613.42,-135.02"/>
<polygon fill="black" stroke="black" points="613.55,-138.52 623.55,-135.02 613.55,-131.52 613.55,-138.52"/>
<text text-anchor="start" x="520.5" y="-152.8" font-family="arial" font-size="14.00" fill="#377eb8">true</text>
<text text-anchor="start" x="513.5" y="-137.8" font-family="arial" font-size="14.00">c0 :=0</text>
</g>
<!-- ID_92_ct0_st&#45;&gt;ID_92_ct0_st -->
<g id="edge6" class="edge">
<title>ID_92_ct0_st&#45;&gt;ID_92_ct0_st</title>
<path fill="none" stroke="black" d="M1042.93,-200.18C1042.28,-209.91 1047.14,-218 1057.5,-218 1063.97,-218 1068.3,-214.84 1070.47,-210.09"/>
<polygon fill="black" stroke="black" points="1073.94,-210.6 1072.07,-200.18 1067.03,-209.49 1073.94,-210.6"/>
<text text-anchor="start" x="1045.5" y="-221.8" font-family="arial" font-size="14.00" fill="#377eb8">true</text>
</g>
<!-- ID_92_ct0_st02X&#45;&gt;ID_92_ct0_st01 -->
<g id="edge16" class="edge">
<title>ID_92_ct0_st02X&#45;&gt;ID_92_ct0_st01</title>
<path fill="none" stroke="black" d="M623.66,-112.62C617.75,-111.15 611.79,-109.9 606,-109 554.46,-100.99 495.35,-102.9 451.24,-106.44"/>
<polygon fill="black" stroke="black" points="450.88,-102.96 441.22,-107.3 451.48,-109.94 450.88,-102.96"/>
<text text-anchor="start" x="459" y="-112.8" font-family="arial" font-size="14.00" fill="#377eb8">(P&#39; || (R&#39; || (S&#39; || c0 &lt; 5)))</text>
</g>
<!-- ID_92_ct0_st02X&#45;&gt;ID_92_ct0_st -->
<g id="edge13" class="edge">
<title>ID_92_ct0_st02X&#45;&gt;ID_92_ct0_st</title>
<path fill="none" stroke="black" d="M747.18,-140.72C816.51,-148.41 929.18,-160.89 997.7,-168.48"/>
<polygon fill="black" stroke="black" points="997.57,-171.99 1007.9,-169.61 998.34,-165.03 997.57,-171.99"/>
<text text-anchor="start" x="882" y="-165.8" font-family="arial" font-size="14.00" fill="#377eb8">P&#39;</text>
</g>
<!-- ID_92_ct0_st02X&#45;&gt;ID_92_ct0_st02X -->
<g id="edge14" class="edge">
<title>ID_92_ct0_st02X&#45;&gt;ID_92_ct0_st02X</title>
<path fill="none" stroke="black" d="M666.45,-159.18C665.6,-168.91 671.95,-177 685.5,-177 693.97,-177 699.62,-173.84 702.47,-169.09"/>
<polygon fill="black" stroke="black" points="705.92,-169.68 704.55,-159.18 699.07,-168.24 705.92,-169.68"/>
<text text-anchor="start" x="666.5" y="-180.8" font-family="arial" font-size="14.00" fill="#377eb8">c0 &lt; 5</text>
</g>
<!-- ID_92_ct0_st02 -->
<g id="node9" class="node">
<title>ID_92_ct0_st02</title>
<polygon fill="none" stroke="black" points="945.5,-106 831.5,-106 831.5,-56 945.5,-56 945.5,-106"/>
<text text-anchor="start" x="839.5" y="-91.8" font-family="arial" font-weight="bold" font-size="14.00">ID_92_ct0_st02</text>
<text text-anchor="start" x="859.5" y="-77.8" font-family="arial" font-size="14.00" fill="#984ea3">(!P &amp;&amp; R)</text>
<text text-anchor="start" x="876.5" y="-63.8" font-family="arial" font-size="14.00" fill="#ff7f00">true</text>
</g>
<!-- ID_92_ct0_st02X&#45;&gt;ID_92_ct0_st02 -->
<g id="edge15" class="edge">
<title>ID_92_ct0_st02X&#45;&gt;ID_92_ct0_st02</title>
<path fill="none" stroke="black" d="M747.08,-118.03C770.55,-111.84 797.48,-104.74 821.45,-98.42"/>
<polygon fill="black" stroke="black" points="822.39,-101.79 831.17,-95.85 820.6,-95.02 822.39,-101.79"/>
<text text-anchor="start" x="765" y="-115.8" font-family="arial" font-size="14.00" fill="#377eb8">c0 &gt;= 5</text>
</g>
<!-- ID_92_ct0_st02&#45;&gt;ID_92_ct0_st01 -->
<g id="edge19" class="edge">
<title>ID_92_ct0_st02&#45;&gt;ID_92_ct0_st01</title>
<path fill="none" stroke="black" d="M831.36,-79.79C749.18,-78.82 591.49,-80.02 459,-99 456.35,-99.38 453.66,-99.79 450.94,-100.23"/>
<polygon fill="black" stroke="black" points="450.31,-96.79 441.04,-101.93 451.49,-103.69 450.31,-96.79"/>
<text text-anchor="start" x="643" y="-86.8" font-family="arial" font-size="14.00" fill="#377eb8">(P&#39; || (R&#39; || S&#39;))</text>
</g>
<!-- ID_92_ct0_st02&#45;&gt;ID_92_ct0_st -->
<g id="edge17" class="edge">
<title>ID_92_ct0_st02&#45;&gt;ID_92_ct0_st</title>
<path fill="none" stroke="black" d="M934.25,-106.19C955.4,-118.09 980.8,-132.39 1002.96,-144.86"/>
<polygon fill="black" stroke="black" points="1001.48,-148.05 1011.91,-149.9 1004.92,-141.95 1001.48,-148.05"/>
<text text-anchor="start" x="971.5" y="-139.8" font-family="arial" font-size="14.00" fill="#377eb8">P&#39;</text>
</g>
<!-- ID_92_ct0_st02&#45;&gt;ID_92_ct0_st02 -->
<g id="edge18" class="edge">
<title>ID_92_ct0_st02&#45;&gt;ID_92_ct0_st02</title>
<path fill="none" stroke="black" d="M872.06,-106.18C871.33,-115.91 876.81,-124 888.5,-124 895.8,-124 900.68,-120.84 903.14,-116.09"/>
<polygon fill="black" stroke="black" points="906.6,-116.64 904.94,-106.18 899.71,-115.39 906.6,-116.64"/>
<text text-anchor="start" x="876.5" y="-127.8" font-family="arial" font-size="14.00" fill="#377eb8">true</text>
</g>
</g>
</svg>
