<?xml version="1.0" encoding="UTF-8" standalone="no"?>
<!DOCTYPE svg PUBLIC "-//W3C//DTD SVG 1.1//EN"
 "http://www.w3.org/Graphics/SVG/1.1/DTD/svg11.dtd">
<!-- Generated by graphviz version 2.43.0 (0)
 -->
<!-- Title: G Pages: 1 -->
<svg width="1146pt" height="357pt"
 viewBox="0.00 0.00 1146.00 357.00" xmlns="http://www.w3.org/2000/svg" xmlns:xlink="http://www.w3.org/1999/xlink">
<g id="graph0" class="graph" transform="scale(1 1) rotate(0) translate(4 353)">
<title>G</title>
<polygon fill="white" stroke="transparent" points="-4,4 -4,-353 1142,-353 1142,4 -4,4"/>
<!-- _ID_52_ct0_stinit -->
<!-- ID_52_ct0_stinit -->
<g id="node2" class="node">
<title>ID_52_ct0_stinit</title>
<polygon fill="none" stroke="black" points="977.5,-316 858.5,-316 858.5,-266 977.5,-266 977.5,-316"/>
<text text-anchor="start" x="866.5" y="-301.8" font-family="arial" font-weight="bold" font-size="14.00">ID_52_ct0_stinit</text>
<text text-anchor="start" x="913" y="-287.8" font-family="arial" font-size="14.00" fill="#984ea3">P</text>
<text text-anchor="start" x="906" y="-273.8" font-family="arial" font-size="14.00" fill="#ff7f00">true</text>
</g>
<!-- _ID_52_ct0_stinit&#45;&gt;ID_52_ct0_stinit -->
<g id="edge1" class="edge">
<title>_ID_52_ct0_stinit&#45;&gt;ID_52_ct0_stinit</title>
<path fill="none" stroke="black" d="M796.94,-291C813.28,-291 831.12,-291 847.93,-291"/>
<polygon fill="black" stroke="black" points="848.24,-294.5 858.24,-291 848.24,-287.5 848.24,-294.5"/>
</g>
<!-- ID_52_ct0_stinit&#45;&gt;ID_52_ct0_stinit -->
<g id="edge5" class="edge">
<title>ID_52_ct0_stinit&#45;&gt;ID_52_ct0_stinit</title>
<path fill="none" stroke="black" d="M901.19,-316.18C900.44,-325.91 906.05,-334 918,-334 925.47,-334 930.46,-330.84 932.97,-326.09"/>
<polygon fill="black" stroke="black" points="936.43,-326.65 934.81,-316.18 929.54,-325.37 936.43,-326.65"/>
<text text-anchor="start" x="906" y="-337.8" font-family="arial" font-size="14.00" fill="#377eb8">true</text>
</g>
<!-- ID_52_ct0_st -->
<g id="node7" class="node">
<title>ID_52_ct0_st</title>
<polygon fill="none" stroke="black" points="1138,-195 1039,-195 1039,-145 1138,-145 1138,-195"/>
<text text-anchor="start" x="1047" y="-180.8" font-family="arial" font-weight="bold" font-size="14.00">ID_52_ct0_st</text>
<text text-anchor="start" x="1076.5" y="-166.8" font-family="arial" font-size="14.00" fill="#984ea3">true</text>
<text text-anchor="start" x="1076.5" y="-152.8" font-family="arial" font-size="14.00" fill="#ff7f00">true</text>
</g>
<!-- ID_52_ct0_stinit&#45;&gt;ID_52_ct0_st -->
<g id="edge4" class="edge">
<title>ID_52_ct0_stinit&#45;&gt;ID_52_ct0_st</title>
<path fill="none" stroke="black" d="M977.53,-274.6C992.51,-268.85 1008.03,-261.4 1021,-252 1038.94,-238.99 1054.77,-219.98 1066.48,-203.53"/>
<polygon fill="black" stroke="black" points="1069.42,-205.43 1072.22,-195.21 1063.66,-201.46 1069.42,-205.43"/>
<text text-anchor="start" x="997" y="-268.8" font-family="arial" font-size="14.00" fill="#377eb8">true</text>
</g>
<!-- _ID_52_ct0_st0 -->
<!-- ID_52_ct0_st0 -->
<g id="node4" class="node">
<title>ID_52_ct0_st0</title>
<polygon fill="none" stroke="black" points="261,-50 154,-50 154,0 261,0 261,-50"/>
<text text-anchor="start" x="162" y="-35.8" font-family="arial" font-weight="bold" font-size="14.00">ID_52_ct0_st0</text>
<text text-anchor="start" x="177" y="-21.8" font-family="arial" font-size="14.00" fill="#984ea3">(!P &amp;&amp; !R)</text>
<text text-anchor="start" x="195.5" y="-7.8" font-family="arial" font-size="14.00" fill="#ff7f00">true</text>
</g>
<!-- _ID_52_ct0_st0&#45;&gt;ID_52_ct0_st0 -->
<g id="edge2" class="edge">
<title>_ID_52_ct0_st0&#45;&gt;ID_52_ct0_st0</title>
<path fill="none" stroke="black" d="M111.08,-25C121.62,-25 132.74,-25 143.52,-25"/>
<polygon fill="black" stroke="black" points="143.72,-28.5 153.72,-25 143.72,-21.5 143.72,-28.5"/>
</g>
<!-- ID_52_ct0_st0&#45;&gt;ID_52_ct0_st0 -->
<g id="edge8" class="edge">
<title>ID_52_ct0_st0&#45;&gt;ID_52_ct0_st0</title>
<path fill="none" stroke="black" d="M192.93,-50.18C192.28,-59.91 197.14,-68 207.5,-68 213.97,-68 218.3,-64.84 220.47,-60.09"/>
<polygon fill="black" stroke="black" points="223.94,-60.6 222.07,-50.18 217.03,-59.49 223.94,-60.6"/>
<text text-anchor="start" x="195.5" y="-71.8" font-family="arial" font-size="14.00" fill="#377eb8">true</text>
</g>
<!-- ID_52_ct0_st01 -->
<g id="node6" class="node">
<title>ID_52_ct0_st01</title>
<polygon fill="none" stroke="black" points="441,-166 327,-166 327,-116 441,-116 441,-166"/>
<text text-anchor="start" x="335" y="-151.8" font-family="arial" font-weight="bold" font-size="14.00">ID_52_ct0_st01</text>
<text text-anchor="start" x="355" y="-137.8" font-family="arial" font-size="14.00" fill="#984ea3">(!P &amp;&amp; R)</text>
<text text-anchor="start" x="372" y="-123.8" font-family="arial" font-size="14.00" fill="#ff7f00">true</text>
</g>
<!-- ID_52_ct0_st0&#45;&gt;ID_52_ct0_st01 -->
<g id="edge9" class="edge">
<title>ID_52_ct0_st0&#45;&gt;ID_52_ct0_st01</title>
<path fill="none" stroke="black" d="M246.36,-50.17C272.89,-67.8 308.5,-91.47 336.71,-110.23"/>
<polygon fill="black" stroke="black" points="334.94,-113.26 345.21,-115.88 338.82,-107.43 334.94,-113.26"/>
<text text-anchor="start" x="285" y="-92.8" font-family="arial" font-size="14.00" fill="#377eb8">true</text>
</g>
<!-- ID_52_ct0_st0&#45;&gt;ID_52_ct0_st -->
<g id="edge7" class="edge">
<title>ID_52_ct0_st0&#45;&gt;ID_52_ct0_st</title>
<path fill="none" stroke="black" d="M261.34,-14.38C295.82,-8.35 341.9,-2 383,-2 383,-2 383,-2 919,-2 994.09,-2 1047.5,-86.71 1072.16,-135.83"/>
<polygon fill="black" stroke="black" points="1069.03,-137.4 1076.57,-144.85 1075.32,-134.33 1069.03,-137.4"/>
<text text-anchor="start" x="638.5" y="-5.8" font-family="arial" font-size="14.00" fill="#377eb8">P&#39;</text>
</g>
<!-- _ID_52_ct0_st01 -->
<!-- _ID_52_ct0_st01&#45;&gt;ID_52_ct0_st01 -->
<g id="edge3" class="edge">
<title>_ID_52_ct0_st01&#45;&gt;ID_52_ct0_st01</title>
<path fill="none" stroke="black" d="M267.09,-141C283.08,-141 300.51,-141 316.89,-141"/>
<polygon fill="black" stroke="black" points="316.93,-144.5 326.93,-141 316.93,-137.5 316.93,-144.5"/>
</g>
<!-- ID_52_ct0_st01&#45;&gt;ID_52_ct0_st01 -->
<g id="edge12" class="edge">
<title>ID_52_ct0_st01&#45;&gt;ID_52_ct0_st01</title>
<path fill="none" stroke="black" d="M367.94,-166.18C367.22,-175.91 372.58,-184 384,-184 391.14,-184 395.91,-180.84 398.31,-176.09"/>
<polygon fill="black" stroke="black" points="401.76,-176.63 400.06,-166.18 394.87,-175.41 401.76,-176.63"/>
<text text-anchor="start" x="372" y="-187.8" font-family="arial" font-size="14.00" fill="#377eb8">true</text>
</g>
<!-- ID_52_ct0_st01&#45;&gt;ID_52_ct0_st -->
<g id="edge10" class="edge">
<title>ID_52_ct0_st01&#45;&gt;ID_52_ct0_st</title>
<path fill="none" stroke="black" d="M410.18,-166.23C441.66,-194.97 498.55,-238 557,-238 557,-238 557,-238 919,-238 962.4,-238 1007.81,-218.36 1040.54,-200.2"/>
<polygon fill="black" stroke="black" points="1042.47,-203.12 1049.42,-195.13 1039,-197.04 1042.47,-203.12"/>
<text text-anchor="start" x="729.5" y="-241.8" font-family="arial" font-size="14.00" fill="#377eb8">P&#39;</text>
</g>
<!-- ID_52_ct0_st02 -->
<g id="node8" class="node">
<title>ID_52_ct0_st02</title>
<polygon fill="none" stroke="black" points="615,-166 501,-166 501,-116 615,-116 615,-166"/>
<text text-anchor="start" x="509" y="-151.8" font-family="arial" font-weight="bold" font-size="14.00">ID_52_ct0_st02</text>
<text text-anchor="start" x="527.5" y="-137.8" font-family="arial" font-size="14.00" fill="#984ea3">(!P &amp;&amp; !R)</text>
<text text-anchor="start" x="546" y="-123.8" font-family="arial" font-size="14.00" fill="#ff7f00">true</text>
</g>
<!-- ID_52_ct0_st01&#45;&gt;ID_52_ct0_st02 -->
<g id="edge11" class="edge">
<title>ID_52_ct0_st01&#45;&gt;ID_52_ct0_st02</title>
<path fill="none" stroke="black" d="M441.32,-141C457.14,-141 474.49,-141 490.83,-141"/>
<polygon fill="black" stroke="black" points="490.85,-144.5 500.85,-141 490.85,-137.5 490.85,-144.5"/>
<text text-anchor="start" x="459" y="-144.8" font-family="arial" font-size="14.00" fill="#377eb8">true</text>
</g>
<!-- ID_52_ct0_st&#45;&gt;ID_52_ct0_st -->
<g id="edge6" class="edge">
<title>ID_52_ct0_st&#45;&gt;ID_52_ct0_st</title>
<path fill="none" stroke="black" d="M1073.93,-195.18C1073.28,-204.91 1078.14,-213 1088.5,-213 1094.97,-213 1099.3,-209.84 1101.47,-205.09"/>
<polygon fill="black" stroke="black" points="1104.94,-205.6 1103.07,-195.18 1098.03,-204.49 1104.94,-205.6"/>
<text text-anchor="start" x="1076.5" y="-216.8" font-family="arial" font-size="14.00" fill="#377eb8">true</text>
</g>
<!-- ID_52_ct0_st02&#45;&gt;ID_52_ct0_st -->
<g id="edge13" class="edge">
<title>ID_52_ct0_st02&#45;&gt;ID_52_ct0_st</title>
<path fill="none" stroke="black" d="M615.01,-159.72C633.84,-165.14 655.13,-170.31 675,-173 799.97,-189.92 948.19,-182.14 1028.55,-175.64"/>
<polygon fill="black" stroke="black" points="1029.28,-179.09 1038.95,-174.77 1028.7,-172.12 1029.28,-179.09"/>
<text text-anchor="start" x="820.5" y="-186.8" font-family="arial" font-size="14.00" fill="#377eb8">P&#39;</text>
</g>
<!-- ID_52_ct0_st02&#45;&gt;ID_52_ct0_st02 -->
<g id="edge14" class="edge">
<title>ID_52_ct0_st02&#45;&gt;ID_52_ct0_st02</title>
<path fill="none" stroke="black" d="M541.94,-166.18C541.22,-175.91 546.58,-184 558,-184 565.14,-184 569.91,-180.84 572.31,-176.09"/>
<polygon fill="black" stroke="black" points="575.76,-176.63 574.06,-166.18 568.87,-175.41 575.76,-176.63"/>
<text text-anchor="start" x="546" y="-187.8" font-family="arial" font-size="14.00" fill="#377eb8">true</text>
</g>
<!-- ID_52_ct0_st013 -->
<g id="node9" class="node">
<title>ID_52_ct0_st013</title>
<polygon fill="none" stroke="black" points="797,-131 675,-131 675,-81 797,-81 797,-131"/>
<text text-anchor="start" x="683" y="-116.8" font-family="arial" font-weight="bold" font-size="14.00">ID_52_ct0_st013</text>
<text text-anchor="start" x="707" y="-102.8" font-family="arial" font-size="14.00" fill="#984ea3">(!P &amp;&amp; R)</text>
<text text-anchor="start" x="724" y="-88.8" font-family="arial" font-size="14.00" fill="#ff7f00">true</text>
</g>
<!-- ID_52_ct0_st02&#45;&gt;ID_52_ct0_st013 -->
<g id="edge15" class="edge">
<title>ID_52_ct0_st02&#45;&gt;ID_52_ct0_st013</title>
<path fill="none" stroke="black" d="M615.17,-129.83C630.92,-126.7 648.23,-123.25 664.69,-119.98"/>
<polygon fill="black" stroke="black" points="665.68,-123.35 674.8,-117.97 664.31,-116.49 665.68,-123.35"/>
<text text-anchor="start" x="633" y="-128.8" font-family="arial" font-size="14.00" fill="#377eb8">true</text>
</g>
<!-- ID_52_ct0_st013&#45;&gt;ID_52_ct0_st -->
<g id="edge16" class="edge">
<title>ID_52_ct0_st013&#45;&gt;ID_52_ct0_st</title>
<path fill="none" stroke="black" d="M797.25,-117C862.09,-128.84 964.54,-147.55 1028.78,-159.28"/>
<polygon fill="black" stroke="black" points="1028.28,-162.74 1038.75,-161.1 1029.54,-155.86 1028.28,-162.74"/>
<text text-anchor="start" x="911.5" y="-152.8" font-family="arial" font-size="14.00" fill="#377eb8">P&#39;</text>
</g>
<!-- ID_52_ct0_st013&#45;&gt;ID_52_ct0_st013 -->
<g id="edge18" class="edge">
<title>ID_52_ct0_st013&#45;&gt;ID_52_ct0_st013</title>
<path fill="none" stroke="black" d="M719.19,-131.18C718.44,-140.91 724.05,-149 736,-149 743.47,-149 748.46,-145.84 750.97,-141.09"/>
<polygon fill="black" stroke="black" points="754.43,-141.65 752.81,-131.18 747.54,-140.37 754.43,-141.65"/>
<text text-anchor="start" x="724" y="-152.8" font-family="arial" font-size="14.00" fill="#377eb8">true</text>
</g>
<!-- ID_52_ct0_st024 -->
<g id="node10" class="node">
<title>ID_52_ct0_st024</title>
<polygon fill="none" stroke="black" points="979,-80 857,-80 857,-30 979,-30 979,-80"/>
<text text-anchor="start" x="865" y="-65.8" font-family="arial" font-weight="bold" font-size="14.00">ID_52_ct0_st024</text>
<text text-anchor="start" x="887.5" y="-51.8" font-family="arial" font-size="14.00" fill="#984ea3">(!P &amp;&amp; !R)</text>
<text text-anchor="start" x="906" y="-37.8" font-family="arial" font-size="14.00" fill="#ff7f00">true</text>
</g>
<!-- ID_52_ct0_st013&#45;&gt;ID_52_ct0_st024 -->
<g id="edge17" class="edge">
<title>ID_52_ct0_st013&#45;&gt;ID_52_ct0_st024</title>
<path fill="none" stroke="black" d="M797.19,-88.95C813.1,-84.44 830.41,-79.53 846.8,-74.89"/>
<polygon fill="black" stroke="black" points="848.2,-78.13 856.87,-72.04 846.29,-71.4 848.2,-78.13"/>
<text text-anchor="start" x="815" y="-86.8" font-family="arial" font-size="14.00" fill="#377eb8">true</text>
</g>
<!-- ID_52_ct0_st024&#45;&gt;ID_52_ct0_st -->
<g id="edge19" class="edge">
<title>ID_52_ct0_st024&#45;&gt;ID_52_ct0_st</title>
<path fill="none" stroke="black" d="M960.17,-80.22C978.95,-91.98 1001.32,-106.36 1021,-120 1029.46,-125.86 1038.36,-132.33 1046.8,-138.62"/>
<polygon fill="black" stroke="black" points="1044.96,-141.62 1055.06,-144.82 1049.16,-136.02 1044.96,-141.62"/>
<text text-anchor="start" x="1002.5" y="-123.8" font-family="arial" font-size="14.00" fill="#377eb8">P&#39;</text>
</g>
<!-- ID_52_ct0_st024&#45;&gt;ID_52_ct0_st024 -->
<g id="edge20" class="edge">
<title>ID_52_ct0_st024&#45;&gt;ID_52_ct0_st024</title>
<path fill="none" stroke="black" d="M901.19,-80.18C900.44,-89.91 906.05,-98 918,-98 925.47,-98 930.46,-94.84 932.97,-90.09"/>
<polygon fill="black" stroke="black" points="936.43,-90.65 934.81,-80.18 929.54,-89.37 936.43,-90.65"/>
<text text-anchor="start" x="906" y="-101.8" font-family="arial" font-size="14.00" fill="#377eb8">true</text>
</g>
</g>
</svg>
