<?xml version="1.0" encoding="UTF-8" standalone="no"?>
<!DOCTYPE svg PUBLIC "-//W3C//DTD SVG 1.1//EN"
 "http://www.w3.org/Graphics/SVG/1.1/DTD/svg11.dtd">
<!-- Generated by graphviz version 2.43.0 (0)
 -->
<!-- Title: G Pages: 1 -->
<svg width="2911pt" height="591pt"
 viewBox="0.00 0.00 2911.00 591.00" xmlns="http://www.w3.org/2000/svg" xmlns:xlink="http://www.w3.org/1999/xlink">
<g id="graph0" class="graph" transform="scale(1 1) rotate(0) translate(4 587)">
<title>G</title>
<polygon fill="white" stroke="transparent" points="-4,4 -4,-587 2907,-587 2907,4 -4,4"/>
<!-- _ID_3_ct0_st0 -->
<!-- ID_3_ct0_st0 -->
<g id="node2" class="node">
<title>ID_3_ct0_st0</title>
<polygon fill="none" stroke="black" points="250,-264 151,-264 151,-214 250,-214 250,-264"/>
<text text-anchor="start" x="159" y="-249.8" font-family="arial" font-weight="bold" font-size="14.00">ID_3_ct0_st0</text>
<text text-anchor="start" x="176" y="-235.8" font-family="arial" font-size="14.00" fill="#984ea3">(Q || !P)</text>
<text text-anchor="start" x="188.5" y="-221.8" font-family="arial" font-size="14.00" fill="#ff7f00">true</text>
</g>
<!-- _ID_3_ct0_st0&#45;&gt;ID_3_ct0_st0 -->
<g id="edge1" class="edge">
<title>_ID_3_ct0_st0&#45;&gt;ID_3_ct0_st0</title>
<path fill="none" stroke="black" d="M104.24,-239C116.1,-239 128.81,-239 140.96,-239"/>
<polygon fill="black" stroke="black" points="141,-242.5 151,-239 141,-235.5 141,-242.5"/>
</g>
<!-- ID_3_ct0_st0&#45;&gt;ID_3_ct0_st0 -->
<g id="edge4" class="edge">
<title>ID_3_ct0_st0&#45;&gt;ID_3_ct0_st0</title>
<path fill="none" stroke="black" d="M185.93,-264.18C185.28,-273.91 190.14,-282 200.5,-282 206.97,-282 211.3,-278.84 213.47,-274.09"/>
<polygon fill="black" stroke="black" points="216.94,-274.6 215.07,-264.18 210.03,-273.49 216.94,-274.6"/>
<text text-anchor="start" x="188.5" y="-285.8" font-family="arial" font-size="14.00" fill="#377eb8">true</text>
</g>
<!-- ID_3_ct0_st012 -->
<g id="node4" class="node">
<title>ID_3_ct0_st012</title>
<polygon fill="none" stroke="black" points="443,-318 320,-318 320,-268 443,-268 443,-318"/>
<text text-anchor="start" x="332.5" y="-303.8" font-family="arial" font-weight="bold" font-size="14.00">ID_3_ct0_st012</text>
<text text-anchor="start" x="328" y="-289.8" font-family="arial" font-size="14.00" fill="#984ea3">(P &amp;&amp; (!Q &amp;&amp; !R))</text>
<text text-anchor="start" x="369.5" y="-275.8" font-family="arial" font-size="14.00" fill="#ff7f00">true</text>
</g>
<!-- ID_3_ct0_st0&#45;&gt;ID_3_ct0_st012 -->
<g id="edge5" class="edge">
<title>ID_3_ct0_st0&#45;&gt;ID_3_ct0_st012</title>
<path fill="none" stroke="black" d="M250.18,-244.5C266.85,-247.1 285.45,-250.81 302,-256 309.02,-258.2 316.21,-260.91 323.26,-263.85"/>
<polygon fill="black" stroke="black" points="322.19,-267.2 332.76,-267.98 324.98,-260.78 322.19,-267.2"/>
<text text-anchor="start" x="278" y="-259.8" font-family="arial" font-size="14.00" fill="#377eb8">true</text>
</g>
<!-- ID_3_ct0_st0123 -->
<g id="node6" class="node">
<title>ID_3_ct0_st0123</title>
<polygon fill="none" stroke="black" points="998,-318 876,-318 876,-268 998,-268 998,-318"/>
<text text-anchor="start" x="884" y="-303.8" font-family="arial" font-weight="bold" font-size="14.00">ID_3_ct0_st0123</text>
<text text-anchor="start" x="885.5" y="-289.8" font-family="arial" font-size="14.00" fill="#984ea3">(P &amp;&amp; (!Q &amp;&amp; R))</text>
<text text-anchor="start" x="925" y="-275.8" font-family="arial" font-size="14.00" fill="#ff7f00">true</text>
</g>
<!-- ID_3_ct0_st0&#45;&gt;ID_3_ct0_st0123 -->
<g id="edge6" class="edge">
<title>ID_3_ct0_st0&#45;&gt;ID_3_ct0_st0123</title>
<path fill="none" stroke="black" d="M217.03,-264.23C236.78,-293.63 273.92,-340.63 320,-360 523.33,-445.47 597.5,-374.07 816,-344 834.91,-341.4 840.08,-341.59 858,-335 867.11,-331.65 876.46,-327.4 885.39,-322.9"/>
<polygon fill="black" stroke="black" points="887.26,-325.87 894.51,-318.14 884.02,-319.66 887.26,-325.87"/>
<text text-anchor="start" x="554.5" y="-403.8" font-family="arial" font-size="14.00" fill="#377eb8">true</text>
</g>
<!-- _ID_3_ct0_st012 -->
<!-- _ID_3_ct0_st012&#45;&gt;ID_3_ct0_st012 -->
<g id="edge2" class="edge">
<title>_ID_3_ct0_st012&#45;&gt;ID_3_ct0_st012</title>
<path fill="none" stroke="black" d="M213.52,-546.73C243.2,-501.64 320.28,-384.51 358.43,-326.53"/>
<polygon fill="black" stroke="black" points="361.42,-328.36 363.99,-318.08 355.57,-324.51 361.42,-328.36"/>
</g>
<!-- ID_3_ct0_st012&#45;&gt;ID_3_ct0_st0 -->
<g id="edge12" class="edge">
<title>ID_3_ct0_st012&#45;&gt;ID_3_ct0_st0</title>
<path fill="none" stroke="black" d="M319.85,-281.92C305.97,-278.85 291.37,-275.19 278,-271 272.05,-269.13 265.92,-266.98 259.85,-264.7"/>
<polygon fill="black" stroke="black" points="260.97,-261.38 250.38,-261.02 258.44,-267.9 260.97,-261.38"/>
<text text-anchor="start" x="282.5" y="-280.8" font-family="arial" font-size="14.00" fill="#377eb8">Q&#39;</text>
</g>
<!-- ID_3_ct0_st012&#45;&gt;ID_3_ct0_st012 -->
<g id="edge15" class="edge">
<title>ID_3_ct0_st012&#45;&gt;ID_3_ct0_st012</title>
<path fill="none" stroke="black" d="M364.69,-318.18C363.94,-327.91 369.55,-336 381.5,-336 388.97,-336 393.96,-332.84 396.47,-328.09"/>
<polygon fill="black" stroke="black" points="399.93,-328.65 398.31,-318.18 393.04,-327.37 399.93,-328.65"/>
<text text-anchor="start" x="369.5" y="-339.8" font-family="arial" font-size="14.00" fill="#377eb8">true</text>
</g>
<!-- ID_3_ct0_st012&#45;&gt;ID_3_ct0_st0123 -->
<g id="edge16" class="edge">
<title>ID_3_ct0_st012&#45;&gt;ID_3_ct0_st0123</title>
<path fill="none" stroke="black" d="M443.08,-314.09C449.1,-315.88 455.15,-317.55 461,-319 479.37,-323.54 484.14,-324.44 503,-326 641.64,-337.47 677.36,-337.47 816,-326 834.86,-324.44 839.63,-323.56 858,-319 860.64,-318.35 863.31,-317.64 866.01,-316.91"/>
<polygon fill="black" stroke="black" points="867.16,-320.22 875.81,-314.1 865.23,-313.49 867.16,-320.22"/>
<text text-anchor="start" x="648" y="-337.8" font-family="arial" font-size="14.00" fill="#377eb8">true</text>
</g>
<!-- ID_3_ct0_st02 -->
<g id="node7" class="node">
<title>ID_3_ct0_st02</title>
<polygon fill="none" stroke="black" points="630,-254 503,-254 503,-204 630,-204 630,-254"/>
<text text-anchor="start" x="521" y="-239.8" font-family="arial" font-weight="bold" font-size="14.00">ID_3_ct0_st02</text>
<text text-anchor="start" x="511" y="-225.8" font-family="arial" font-size="14.00" fill="#984ea3">(!P &amp;&amp; (!Q &amp;&amp; !R))</text>
<text text-anchor="start" x="554.5" y="-211.8" font-family="arial" font-size="14.00" fill="#ff7f00">true</text>
</g>
<!-- ID_3_ct0_st012&#45;&gt;ID_3_ct0_st02 -->
<g id="edge13" class="edge">
<title>ID_3_ct0_st012&#45;&gt;ID_3_ct0_st02</title>
<path fill="none" stroke="black" d="M443.15,-282.81C457.1,-279.69 471.73,-275.79 485,-271 494.45,-267.59 504.19,-263.27 513.48,-258.71"/>
<polygon fill="black" stroke="black" points="515.26,-261.74 522.6,-254.1 512.1,-255.49 515.26,-261.74"/>
<text text-anchor="start" x="461" y="-280.8" font-family="arial" font-size="14.00" fill="#377eb8">true</text>
</g>
<!-- ID_3_ct0_st023 -->
<g id="node8" class="node">
<title>ID_3_ct0_st023</title>
<polygon fill="none" stroke="black" points="814.5,-254 691.5,-254 691.5,-204 814.5,-204 814.5,-254"/>
<text text-anchor="start" x="704" y="-239.8" font-family="arial" font-weight="bold" font-size="14.00">ID_3_ct0_st023</text>
<text text-anchor="start" x="699.5" y="-225.8" font-family="arial" font-size="14.00" fill="#984ea3">(!P &amp;&amp; (!Q &amp;&amp; R))</text>
<text text-anchor="start" x="741" y="-211.8" font-family="arial" font-size="14.00" fill="#ff7f00">true</text>
</g>
<!-- ID_3_ct0_st012&#45;&gt;ID_3_ct0_st023 -->
<g id="edge14" class="edge">
<title>ID_3_ct0_st012&#45;&gt;ID_3_ct0_st023</title>
<path fill="none" stroke="black" d="M443.05,-302.41C493.82,-308.26 567.77,-311.96 630,-296 658,-288.82 686.47,-273.72 708.86,-259.67"/>
<polygon fill="black" stroke="black" points="710.92,-262.5 717.44,-254.15 707.13,-256.62 710.92,-262.5"/>
<text text-anchor="start" x="554.5" y="-310.8" font-family="arial" font-size="14.00" fill="#377eb8">true</text>
</g>
<!-- _ID_3_ct0_st0123 -->
<!-- _ID_3_ct0_st0123&#45;&gt;ID_3_ct0_st0123 -->
<g id="edge3" class="edge">
<title>_ID_3_ct0_st0123&#45;&gt;ID_3_ct0_st0123</title>
<path fill="none" stroke="black" d="M816.05,-137.84C831.58,-142.57 846.95,-150.09 858,-162 882.5,-188.39 857.47,-210.12 876,-241 880.33,-248.22 886.01,-254.96 892.15,-261.03"/>
<polygon fill="black" stroke="black" points="889.8,-263.62 899.52,-267.84 894.55,-258.48 889.8,-263.62"/>
</g>
<!-- ID_3_ct0_st0123&#45;&gt;ID_3_ct0_st0 -->
<g id="edge22" class="edge">
<title>ID_3_ct0_st0123&#45;&gt;ID_3_ct0_st0</title>
<path fill="none" stroke="black" d="M900.65,-267.99C892.44,-261.93 883.82,-255.36 876,-249 848.17,-226.36 848.56,-210.06 816,-195 715.95,-148.73 426.79,-162.68 320,-190 299.7,-195.19 278.32,-203.19 259.39,-211.23"/>
<polygon fill="black" stroke="black" points="257.8,-208.1 250.02,-215.29 260.58,-214.52 257.8,-208.1"/>
<text text-anchor="start" x="559" y="-169.8" font-family="arial" font-size="14.00" fill="#377eb8">Q&#39;</text>
</g>
<!-- ID_3_ct0_st0123&#45;&gt;ID_3_ct0_st0123 -->
<g id="edge26" class="edge">
<title>ID_3_ct0_st0123&#45;&gt;ID_3_ct0_st0123</title>
<path fill="none" stroke="black" d="M920.19,-318.18C919.44,-327.91 925.05,-336 937,-336 944.47,-336 949.46,-332.84 951.97,-328.09"/>
<polygon fill="black" stroke="black" points="955.43,-328.65 953.81,-318.18 948.54,-327.37 955.43,-328.65"/>
<text text-anchor="start" x="925" y="-339.8" font-family="arial" font-size="14.00" fill="#377eb8">true</text>
</g>
<!-- ID_3_ct0_st0123&#45;&gt;ID_3_ct0_st023 -->
<g id="edge24" class="edge">
<title>ID_3_ct0_st0123&#45;&gt;ID_3_ct0_st023</title>
<path fill="none" stroke="black" d="M893.21,-267.9C882.02,-262.07 869.78,-256.31 858,-252 847.39,-248.12 835.92,-244.78 824.6,-241.94"/>
<polygon fill="black" stroke="black" points="825.27,-238.5 814.73,-239.58 823.64,-245.31 825.27,-238.5"/>
<text text-anchor="start" x="834" y="-255.8" font-family="arial" font-size="14.00" fill="#377eb8">true</text>
</g>
<!-- ID_3_ct0_st024 -->
<g id="node9" class="node">
<title>ID_3_ct0_st024</title>
<polygon fill="none" stroke="black" points="1368,-354 1241,-354 1241,-304 1368,-304 1368,-354"/>
<text text-anchor="start" x="1255.5" y="-339.8" font-family="arial" font-weight="bold" font-size="14.00">ID_3_ct0_st024</text>
<text text-anchor="start" x="1249" y="-325.8" font-family="arial" font-size="14.00" fill="#984ea3">(!P &amp;&amp; (!Q &amp;&amp; !R))</text>
<text text-anchor="start" x="1292.5" y="-311.8" font-family="arial" font-size="14.00" fill="#ff7f00">true</text>
</g>
<!-- ID_3_ct0_st0123&#45;&gt;ID_3_ct0_st024 -->
<g id="edge23" class="edge">
<title>ID_3_ct0_st0123&#45;&gt;ID_3_ct0_st024</title>
<path fill="none" stroke="black" d="M998.35,-298.94C1062.09,-305.22 1162.6,-315.12 1230.69,-321.83"/>
<polygon fill="black" stroke="black" points="1230.62,-325.34 1240.91,-322.84 1231.3,-318.37 1230.62,-325.34"/>
<text text-anchor="start" x="1107.5" y="-319.8" font-family="arial" font-size="14.00" fill="#377eb8">true</text>
</g>
<!-- ID_3_ct0_st0124 -->
<g id="node10" class="node">
<title>ID_3_ct0_st0124</title>
<polygon fill="none" stroke="black" points="1181,-256 1058,-256 1058,-206 1181,-206 1181,-256"/>
<text text-anchor="start" x="1066.5" y="-241.8" font-family="arial" font-weight="bold" font-size="14.00">ID_3_ct0_st0124</text>
<text text-anchor="start" x="1066" y="-227.8" font-family="arial" font-size="14.00" fill="#984ea3">(P &amp;&amp; (!Q &amp;&amp; !R))</text>
<text text-anchor="start" x="1107.5" y="-213.8" font-family="arial" font-size="14.00" fill="#ff7f00">true</text>
</g>
<!-- ID_3_ct0_st0123&#45;&gt;ID_3_ct0_st0124 -->
<g id="edge25" class="edge">
<title>ID_3_ct0_st0123&#45;&gt;ID_3_ct0_st0124</title>
<path fill="none" stroke="black" d="M998.1,-272.35C1014.14,-266.85 1031.6,-260.85 1048.13,-255.17"/>
<polygon fill="black" stroke="black" points="1049.41,-258.43 1057.73,-251.87 1047.14,-251.81 1049.41,-258.43"/>
<text text-anchor="start" x="1016" y="-268.8" font-family="arial" font-size="14.00" fill="#377eb8">true</text>
</g>
<!-- ID_3_ct0_st02&#45;&gt;ID_3_ct0_st0 -->
<g id="edge7" class="edge">
<title>ID_3_ct0_st02&#45;&gt;ID_3_ct0_st0</title>
<path fill="none" stroke="black" d="M502.74,-230.72C434.73,-232.59 327.04,-235.55 260.52,-237.38"/>
<polygon fill="black" stroke="black" points="260.11,-233.89 250.21,-237.66 260.31,-240.89 260.11,-233.89"/>
<text text-anchor="start" x="374" y="-238.8" font-family="arial" font-size="14.00" fill="#377eb8">Q&#39;</text>
</g>
<!-- ID_3_ct0_st02&#45;&gt;ID_3_ct0_st012 -->
<g id="edge10" class="edge">
<title>ID_3_ct0_st02&#45;&gt;ID_3_ct0_st012</title>
<path fill="none" stroke="black" d="M502.75,-243.17C488.85,-246.87 474.31,-251.19 461,-256 454.62,-258.3 448.06,-260.94 441.57,-263.73"/>
<polygon fill="black" stroke="black" points="439.89,-260.64 432.16,-267.88 442.72,-267.04 439.89,-260.64"/>
<text text-anchor="start" x="461" y="-259.8" font-family="arial" font-size="14.00" fill="#377eb8">true</text>
</g>
<!-- ID_3_ct0_st02&#45;&gt;ID_3_ct0_st0123 -->
<g id="edge11" class="edge">
<title>ID_3_ct0_st02&#45;&gt;ID_3_ct0_st0123</title>
<path fill="none" stroke="black" d="M602.22,-254.15C625.72,-269.57 658.18,-287.87 690,-296 747.88,-310.79 815.94,-308.53 865.79,-303.43"/>
<polygon fill="black" stroke="black" points="866.26,-306.9 875.82,-302.34 865.5,-299.94 866.26,-306.9"/>
<text text-anchor="start" x="741" y="-310.8" font-family="arial" font-size="14.00" fill="#377eb8">true</text>
</g>
<!-- ID_3_ct0_st02&#45;&gt;ID_3_ct0_st02 -->
<g id="edge8" class="edge">
<title>ID_3_ct0_st02&#45;&gt;ID_3_ct0_st02</title>
<path fill="none" stroke="black" d="M549.32,-254.18C548.55,-263.91 554.28,-272 566.5,-272 574.14,-272 579.24,-268.84 581.8,-264.09"/>
<polygon fill="black" stroke="black" points="585.26,-264.65 583.68,-254.18 578.38,-263.35 585.26,-264.65"/>
<text text-anchor="start" x="554.5" y="-275.8" font-family="arial" font-size="14.00" fill="#377eb8">true</text>
</g>
<!-- ID_3_ct0_st02&#45;&gt;ID_3_ct0_st023 -->
<g id="edge9" class="edge">
<title>ID_3_ct0_st02&#45;&gt;ID_3_ct0_st023</title>
<path fill="none" stroke="black" d="M630.22,-229C646.57,-229 664.31,-229 681.05,-229"/>
<polygon fill="black" stroke="black" points="681.33,-232.5 691.33,-229 681.33,-225.5 681.33,-232.5"/>
<text text-anchor="start" x="648" y="-232.8" font-family="arial" font-size="14.00" fill="#377eb8">true</text>
</g>
<!-- ID_3_ct0_st023&#45;&gt;ID_3_ct0_st0 -->
<g id="edge17" class="edge">
<title>ID_3_ct0_st023&#45;&gt;ID_3_ct0_st0</title>
<path fill="none" stroke="black" d="M691.24,-208.57C671.9,-203.01 650.26,-197.77 630,-195 498.24,-176.98 342.76,-205.23 260.1,-224.16"/>
<polygon fill="black" stroke="black" points="259.09,-220.8 250.14,-226.47 260.68,-227.62 259.09,-220.8"/>
<text text-anchor="start" x="465.5" y="-195.8" font-family="arial" font-size="14.00" fill="#377eb8">Q&#39;</text>
</g>
<!-- ID_3_ct0_st023&#45;&gt;ID_3_ct0_st0123 -->
<g id="edge21" class="edge">
<title>ID_3_ct0_st023&#45;&gt;ID_3_ct0_st0123</title>
<path fill="none" stroke="black" d="M796.62,-254.1C808.43,-260.3 821.47,-266.45 834,-271 844.17,-274.69 855.15,-277.85 866,-280.54"/>
<polygon fill="black" stroke="black" points="865.37,-283.99 875.9,-282.87 866.97,-277.17 865.37,-283.99"/>
<text text-anchor="start" x="834" y="-280.8" font-family="arial" font-size="14.00" fill="#377eb8">true</text>
</g>
<!-- ID_3_ct0_st023&#45;&gt;ID_3_ct0_st023 -->
<g id="edge19" class="edge">
<title>ID_3_ct0_st023&#45;&gt;ID_3_ct0_st023</title>
<path fill="none" stroke="black" d="M735.82,-254.18C735.05,-263.91 740.78,-272 753,-272 760.64,-272 765.74,-268.84 768.3,-264.09"/>
<polygon fill="black" stroke="black" points="771.76,-264.65 770.18,-254.18 764.88,-263.35 771.76,-264.65"/>
<text text-anchor="start" x="741" y="-275.8" font-family="arial" font-size="14.00" fill="#377eb8">true</text>
</g>
<!-- ID_3_ct0_st023&#45;&gt;ID_3_ct0_st024 -->
<g id="edge18" class="edge">
<title>ID_3_ct0_st023&#45;&gt;ID_3_ct0_st024</title>
<path fill="none" stroke="black" d="M779.36,-254.14C790.71,-265.55 804.18,-279.31 816,-292 843.48,-321.49 839.26,-343.42 876,-360 991.72,-412.22 1143.06,-381.07 1231.16,-354.48"/>
<polygon fill="black" stroke="black" points="1232.26,-357.8 1240.79,-351.51 1230.2,-351.11 1232.26,-357.8"/>
<text text-anchor="start" x="1016" y="-391.8" font-family="arial" font-size="14.00" fill="#377eb8">true</text>
</g>
<!-- ID_3_ct0_st023&#45;&gt;ID_3_ct0_st0124 -->
<g id="edge20" class="edge">
<title>ID_3_ct0_st023&#45;&gt;ID_3_ct0_st0124</title>
<path fill="none" stroke="black" d="M814.6,-229.33C878.72,-229.68 979.81,-230.24 1047.59,-230.61"/>
<polygon fill="black" stroke="black" points="1047.74,-234.11 1057.76,-230.67 1047.78,-227.11 1047.74,-234.11"/>
<text text-anchor="start" x="925" y="-233.8" font-family="arial" font-size="14.00" fill="#377eb8">true</text>
</g>
<!-- ID_3_ct0_st024&#45;&gt;ID_3_ct0_st0 -->
<g id="edge27" class="edge">
<title>ID_3_ct0_st024&#45;&gt;ID_3_ct0_st0</title>
<path fill="none" stroke="black" d="M1284.32,-354.2C1253.93,-390.97 1190.9,-455 1120.5,-455 380.5,-455 380.5,-455 380.5,-455 287.54,-455 233.69,-334.92 212.31,-273.83"/>
<polygon fill="black" stroke="black" points="215.57,-272.54 209.04,-264.2 208.94,-274.8 215.57,-272.54"/>
<text text-anchor="start" x="745.5" y="-458.8" font-family="arial" font-size="14.00" fill="#377eb8">Q&#39;</text>
</g>
<!-- ID_3_ct0_st024&#45;&gt;ID_3_ct0_st024 -->
<g id="edge28" class="edge">
<title>ID_3_ct0_st024&#45;&gt;ID_3_ct0_st024</title>
<path fill="none" stroke="black" d="M1287.32,-354.18C1286.55,-363.91 1292.28,-372 1304.5,-372 1312.14,-372 1317.24,-368.84 1319.8,-364.09"/>
<polygon fill="black" stroke="black" points="1323.26,-364.65 1321.68,-354.18 1316.38,-363.35 1323.26,-364.65"/>
<text text-anchor="start" x="1292.5" y="-375.8" font-family="arial" font-size="14.00" fill="#377eb8">true</text>
</g>
<!-- ID_3_ct0_st024&#45;&gt;ID_3_ct0_st0124 -->
<g id="edge30" class="edge">
<title>ID_3_ct0_st024&#45;&gt;ID_3_ct0_st0124</title>
<path fill="none" stroke="black" d="M1246.75,-303.9C1231.09,-296.56 1214.23,-288.28 1199,-280 1188.53,-274.3 1177.53,-267.79 1167.19,-261.41"/>
<polygon fill="black" stroke="black" points="1169.02,-258.43 1158.68,-256.11 1165.32,-264.37 1169.02,-258.43"/>
<text text-anchor="start" x="1199" y="-294.8" font-family="arial" font-size="14.00" fill="#377eb8">true</text>
</g>
<!-- ID_3_ct0_st0235 -->
<g id="node11" class="node">
<title>ID_3_ct0_st0235</title>
<polygon fill="none" stroke="black" points="1740,-281 1617,-281 1617,-231 1740,-231 1740,-281"/>
<text text-anchor="start" x="1625.5" y="-266.8" font-family="arial" font-weight="bold" font-size="14.00">ID_3_ct0_st0235</text>
<text text-anchor="start" x="1625" y="-252.8" font-family="arial" font-size="14.00" fill="#984ea3">(!P &amp;&amp; (!Q &amp;&amp; R))</text>
<text text-anchor="start" x="1666.5" y="-238.8" font-family="arial" font-size="14.00" fill="#ff7f00">true</text>
</g>
<!-- ID_3_ct0_st024&#45;&gt;ID_3_ct0_st0235 -->
<g id="edge29" class="edge">
<title>ID_3_ct0_st024&#45;&gt;ID_3_ct0_st0235</title>
<path fill="none" stroke="black" d="M1358.69,-303.89C1379.82,-294.94 1404.63,-285.67 1428,-280 1487.24,-265.61 1556.37,-259.79 1606.81,-257.46"/>
<polygon fill="black" stroke="black" points="1607.12,-260.95 1616.97,-257.02 1606.83,-253.95 1607.12,-260.95"/>
<text text-anchor="start" x="1480.5" y="-283.8" font-family="arial" font-size="14.00" fill="#377eb8">true</text>
</g>
<!-- ID_3_ct0_st01235 -->
<g id="node12" class="node">
<title>ID_3_ct0_st01235</title>
<polygon fill="none" stroke="black" points="1557,-354 1428,-354 1428,-304 1557,-304 1557,-354"/>
<text text-anchor="start" x="1436" y="-339.8" font-family="arial" font-weight="bold" font-size="14.00">ID_3_ct0_st01235</text>
<text text-anchor="start" x="1441" y="-325.8" font-family="arial" font-size="14.00" fill="#984ea3">(P &amp;&amp; (!Q &amp;&amp; R))</text>
<text text-anchor="start" x="1480.5" y="-311.8" font-family="arial" font-size="14.00" fill="#ff7f00">true</text>
</g>
<!-- ID_3_ct0_st024&#45;&gt;ID_3_ct0_st01235 -->
<g id="edge31" class="edge">
<title>ID_3_ct0_st024&#45;&gt;ID_3_ct0_st01235</title>
<path fill="none" stroke="black" d="M1368.21,-329C1384.11,-329 1401.33,-329 1417.72,-329"/>
<polygon fill="black" stroke="black" points="1417.79,-332.5 1427.79,-329 1417.79,-325.5 1417.79,-332.5"/>
<text text-anchor="start" x="1386" y="-332.8" font-family="arial" font-size="14.00" fill="#377eb8">true</text>
</g>
<!-- ID_3_ct0_st0124&#45;&gt;ID_3_ct0_st0 -->
<g id="edge32" class="edge">
<title>ID_3_ct0_st0124&#45;&gt;ID_3_ct0_st0</title>
<path fill="none" stroke="black" d="M1070.99,-205.97C1012.62,-176.4 909.79,-128.07 816,-103 748.95,-85.08 730.4,-84 661,-84 380.5,-84 380.5,-84 380.5,-84 307.08,-84 248.98,-159.44 220.56,-205.06"/>
<polygon fill="black" stroke="black" points="217.48,-203.39 215.28,-213.75 223.46,-207.02 217.48,-203.39"/>
<text text-anchor="start" x="652.5" y="-87.8" font-family="arial" font-size="14.00" fill="#377eb8">Q&#39;</text>
</g>
<!-- ID_3_ct0_st0124&#45;&gt;ID_3_ct0_st024 -->
<g id="edge33" class="edge">
<title>ID_3_ct0_st0124&#45;&gt;ID_3_ct0_st024</title>
<path fill="none" stroke="black" d="M1181.24,-244.25C1195.4,-248.56 1210.1,-254.07 1223,-261 1240.68,-270.5 1257.98,-284.34 1271.99,-297.06"/>
<polygon fill="black" stroke="black" points="1269.72,-299.72 1279.42,-303.98 1274.49,-294.6 1269.72,-299.72"/>
<text text-anchor="start" x="1199" y="-264.8" font-family="arial" font-size="14.00" fill="#377eb8">true</text>
</g>
<!-- ID_3_ct0_st0124&#45;&gt;ID_3_ct0_st0124 -->
<g id="edge35" class="edge">
<title>ID_3_ct0_st0124&#45;&gt;ID_3_ct0_st0124</title>
<path fill="none" stroke="black" d="M1102.69,-256.18C1101.94,-265.91 1107.55,-274 1119.5,-274 1126.97,-274 1131.96,-270.84 1134.47,-266.09"/>
<polygon fill="black" stroke="black" points="1137.93,-266.65 1136.31,-256.18 1131.04,-265.37 1137.93,-266.65"/>
<text text-anchor="start" x="1107.5" y="-277.8" font-family="arial" font-size="14.00" fill="#377eb8">true</text>
</g>
<!-- ID_3_ct0_st0124&#45;&gt;ID_3_ct0_st0235 -->
<g id="edge34" class="edge">
<title>ID_3_ct0_st0124&#45;&gt;ID_3_ct0_st0235</title>
<path fill="none" stroke="black" d="M1181.17,-233.72C1285.07,-238.39 1496.51,-247.88 1606.87,-252.83"/>
<polygon fill="black" stroke="black" points="1606.76,-256.33 1616.91,-253.28 1607.07,-249.34 1606.76,-256.33"/>
<text text-anchor="start" x="1386" y="-246.8" font-family="arial" font-size="14.00" fill="#377eb8">true</text>
</g>
<!-- ID_3_ct0_st0124&#45;&gt;ID_3_ct0_st01235 -->
<g id="edge36" class="edge">
<title>ID_3_ct0_st0124&#45;&gt;ID_3_ct0_st01235</title>
<path fill="none" stroke="black" d="M1181.08,-238.99C1194.89,-241.06 1209.48,-243.43 1223,-246 1288.03,-258.36 1304.84,-260.18 1368,-280 1386.29,-285.74 1405.72,-292.92 1423.63,-299.99"/>
<polygon fill="black" stroke="black" points="1422.81,-303.44 1433.4,-303.9 1425.41,-296.94 1422.81,-303.44"/>
<text text-anchor="start" x="1292.5" y="-283.8" font-family="arial" font-size="14.00" fill="#377eb8">true</text>
</g>
<!-- ID_3_ct0_st0235&#45;&gt;ID_3_ct0_st0 -->
<g id="edge37" class="edge">
<title>ID_3_ct0_st0235&#45;&gt;ID_3_ct0_st0</title>
<path fill="none" stroke="black" d="M1669.01,-230.67C1648.51,-174.82 1590.69,-46 1493.5,-46 380.5,-46 380.5,-46 380.5,-46 295.14,-46 239.05,-148.75 214.96,-204.3"/>
<polygon fill="black" stroke="black" points="211.63,-203.19 210.97,-213.77 218.08,-205.92 211.63,-203.19"/>
<text text-anchor="start" x="929.5" y="-49.8" font-family="arial" font-size="14.00" fill="#377eb8">Q&#39;</text>
</g>
<!-- ID_3_ct0_st0235&#45;&gt;ID_3_ct0_st0235 -->
<g id="edge39" class="edge">
<title>ID_3_ct0_st0235&#45;&gt;ID_3_ct0_st0235</title>
<path fill="none" stroke="black" d="M1661.69,-281.18C1660.94,-290.91 1666.55,-299 1678.5,-299 1685.97,-299 1690.96,-295.84 1693.47,-291.09"/>
<polygon fill="black" stroke="black" points="1696.93,-291.65 1695.31,-281.18 1690.04,-290.37 1696.93,-291.65"/>
<text text-anchor="start" x="1666.5" y="-302.8" font-family="arial" font-size="14.00" fill="#377eb8">true</text>
</g>
<!-- ID_3_ct0_st0235&#45;&gt;ID_3_ct0_st01235 -->
<g id="edge41" class="edge">
<title>ID_3_ct0_st0235&#45;&gt;ID_3_ct0_st01235</title>
<path fill="none" stroke="black" d="M1642.9,-281.08C1629.69,-289.71 1614.15,-298.76 1599,-305 1588.89,-309.16 1577.93,-312.68 1567.03,-315.61"/>
<polygon fill="black" stroke="black" points="1565.88,-312.3 1557.05,-318.16 1567.6,-319.08 1565.88,-312.3"/>
<text text-anchor="start" x="1575" y="-315.8" font-family="arial" font-size="14.00" fill="#377eb8">true</text>
</g>
<!-- ID_3_ct0_st0246 -->
<g id="node13" class="node">
<title>ID_3_ct0_st0246</title>
<polygon fill="none" stroke="black" points="2116,-357 1989,-357 1989,-307 2116,-307 2116,-357"/>
<text text-anchor="start" x="1999.5" y="-342.8" font-family="arial" font-weight="bold" font-size="14.00">ID_3_ct0_st0246</text>
<text text-anchor="start" x="1997" y="-328.8" font-family="arial" font-size="14.00" fill="#984ea3">(!P &amp;&amp; (!Q &amp;&amp; !R))</text>
<text text-anchor="start" x="2040.5" y="-314.8" font-family="arial" font-size="14.00" fill="#ff7f00">true</text>
</g>
<!-- ID_3_ct0_st0235&#45;&gt;ID_3_ct0_st0246 -->
<g id="edge38" class="edge">
<title>ID_3_ct0_st0235&#45;&gt;ID_3_ct0_st0246</title>
<path fill="none" stroke="black" d="M1732.11,-281.12C1752.83,-290.02 1777.11,-299.24 1800,-305 1859.06,-319.87 1927.95,-326.55 1978.68,-329.55"/>
<polygon fill="black" stroke="black" points="1978.72,-333.06 1988.9,-330.12 1979.11,-326.07 1978.72,-333.06"/>
<text text-anchor="start" x="1852.5" y="-328.8" font-family="arial" font-size="14.00" fill="#377eb8">true</text>
</g>
<!-- ID_3_ct0_st01246 -->
<g id="node14" class="node">
<title>ID_3_ct0_st01246</title>
<polygon fill="none" stroke="black" points="1929,-263 1800,-263 1800,-213 1929,-213 1929,-263"/>
<text text-anchor="start" x="1808" y="-248.8" font-family="arial" font-weight="bold" font-size="14.00">ID_3_ct0_st01246</text>
<text text-anchor="start" x="1811" y="-234.8" font-family="arial" font-size="14.00" fill="#984ea3">(P &amp;&amp; (!Q &amp;&amp; !R))</text>
<text text-anchor="start" x="1852.5" y="-220.8" font-family="arial" font-size="14.00" fill="#ff7f00">true</text>
</g>
<!-- ID_3_ct0_st0235&#45;&gt;ID_3_ct0_st01246 -->
<g id="edge40" class="edge">
<title>ID_3_ct0_st0235&#45;&gt;ID_3_ct0_st01246</title>
<path fill="none" stroke="black" d="M1740,-250.08C1755.88,-248.53 1773.17,-246.84 1789.66,-245.22"/>
<polygon fill="black" stroke="black" points="1790.19,-248.69 1799.8,-244.23 1789.51,-241.72 1790.19,-248.69"/>
<text text-anchor="start" x="1758" y="-251.8" font-family="arial" font-size="14.00" fill="#377eb8">true</text>
</g>
<!-- ID_3_ct0_st01235&#45;&gt;ID_3_ct0_st0 -->
<g id="edge42" class="edge">
<title>ID_3_ct0_st01235&#45;&gt;ID_3_ct0_st0</title>
<path fill="none" stroke="black" d="M1450.75,-354.13C1393.17,-388.03 1283.57,-446.72 1181,-469 954.81,-518.15 892.47,-498 661,-498 380.5,-498 380.5,-498 380.5,-498 272.92,-498 224.95,-344.91 208.53,-274.12"/>
<polygon fill="black" stroke="black" points="211.93,-273.3 206.33,-264.31 205.1,-274.83 211.93,-273.3"/>
<text text-anchor="start" x="838.5" y="-504.8" font-family="arial" font-size="14.00" fill="#377eb8">Q&#39;</text>
</g>
<!-- ID_3_ct0_st01235&#45;&gt;ID_3_ct0_st0235 -->
<g id="edge44" class="edge">
<title>ID_3_ct0_st01235&#45;&gt;ID_3_ct0_st0235</title>
<path fill="none" stroke="black" d="M1537.14,-303.91C1549.18,-297.56 1562.4,-291.11 1575,-286 1585.3,-281.82 1596.4,-277.96 1607.35,-274.49"/>
<polygon fill="black" stroke="black" points="1608.39,-277.83 1616.92,-271.54 1606.33,-271.14 1608.39,-277.83"/>
<text text-anchor="start" x="1575" y="-289.8" font-family="arial" font-size="14.00" fill="#377eb8">true</text>
</g>
<!-- ID_3_ct0_st01235&#45;&gt;ID_3_ct0_st01235 -->
<g id="edge46" class="edge">
<title>ID_3_ct0_st01235&#45;&gt;ID_3_ct0_st01235</title>
<path fill="none" stroke="black" d="M1474.94,-354.18C1474.16,-363.91 1480.02,-372 1492.5,-372 1500.3,-372 1505.51,-368.84 1508.14,-364.09"/>
<polygon fill="black" stroke="black" points="1511.59,-364.66 1510.06,-354.18 1504.72,-363.33 1511.59,-364.66"/>
<text text-anchor="start" x="1480.5" y="-375.8" font-family="arial" font-size="14.00" fill="#377eb8">true</text>
</g>
<!-- ID_3_ct0_st01235&#45;&gt;ID_3_ct0_st0246 -->
<g id="edge43" class="edge">
<title>ID_3_ct0_st01235&#45;&gt;ID_3_ct0_st0246</title>
<path fill="none" stroke="black" d="M1557.34,-348.75C1563.28,-350.3 1569.23,-351.75 1575,-353 1593.43,-357.01 1598.19,-357.66 1617,-359 1744.27,-368.04 1892.63,-353.42 1978.92,-342.41"/>
<polygon fill="black" stroke="black" points="1979.41,-345.88 1988.88,-341.12 1978.51,-338.93 1979.41,-345.88"/>
<text text-anchor="start" x="1758" y="-363.8" font-family="arial" font-size="14.00" fill="#377eb8">true</text>
</g>
<!-- ID_3_ct0_st01235&#45;&gt;ID_3_ct0_st01246 -->
<g id="edge45" class="edge">
<title>ID_3_ct0_st01235&#45;&gt;ID_3_ct0_st01246</title>
<path fill="none" stroke="black" d="M1557.13,-337.74C1608.02,-342.33 1680.46,-343.38 1740,-323 1773.04,-311.69 1805.38,-288.89 1828.67,-269.74"/>
<polygon fill="black" stroke="black" points="1831.11,-272.26 1836.51,-263.15 1826.61,-266.9 1831.11,-272.26"/>
<text text-anchor="start" x="1666.5" y="-343.8" font-family="arial" font-size="14.00" fill="#377eb8">true</text>
</g>
<!-- ID_3_ct0_st0246&#45;&gt;ID_3_ct0_st0 -->
<g id="edge47" class="edge">
<title>ID_3_ct0_st0246&#45;&gt;ID_3_ct0_st0</title>
<path fill="none" stroke="black" d="M2042.76,-357.09C2021.71,-412.41 1962.63,-540 1865.5,-540 380.5,-540 380.5,-540 380.5,-540 258.02,-540 217.46,-353.6 205.73,-274.17"/>
<polygon fill="black" stroke="black" points="209.18,-273.56 204.32,-264.15 202.25,-274.54 209.18,-273.56"/>
<text text-anchor="start" x="1112" y="-543.8" font-family="arial" font-size="14.00" fill="#377eb8">Q&#39;</text>
</g>
<!-- ID_3_ct0_st0246&#45;&gt;ID_3_ct0_st0246 -->
<g id="edge48" class="edge">
<title>ID_3_ct0_st0246&#45;&gt;ID_3_ct0_st0246</title>
<path fill="none" stroke="black" d="M2035.32,-357.18C2034.55,-366.91 2040.28,-375 2052.5,-375 2060.14,-375 2065.24,-371.84 2067.8,-367.09"/>
<polygon fill="black" stroke="black" points="2071.26,-367.65 2069.68,-357.18 2064.38,-366.35 2071.26,-367.65"/>
<text text-anchor="start" x="2040.5" y="-378.8" font-family="arial" font-size="14.00" fill="#377eb8">true</text>
</g>
<!-- ID_3_ct0_st0246&#45;&gt;ID_3_ct0_st01246 -->
<g id="edge50" class="edge">
<title>ID_3_ct0_st0246&#45;&gt;ID_3_ct0_st01246</title>
<path fill="none" stroke="black" d="M2000.67,-306.89C1983.59,-298.4 1964.45,-288.84 1947,-280 1939.26,-276.08 1931.13,-271.93 1923.11,-267.82"/>
<polygon fill="black" stroke="black" points="1924.64,-264.67 1914.14,-263.21 1921.44,-270.89 1924.64,-264.67"/>
<text text-anchor="start" x="1947" y="-294.8" font-family="arial" font-size="14.00" fill="#377eb8">true</text>
</g>
<!-- ID_3_ct0_st023578 -->
<g id="node15" class="node">
<title>ID_3_ct0_st023578</title>
<polygon fill="none" stroke="black" points="2517,-284 2380,-284 2380,-234 2517,-234 2517,-284"/>
<text text-anchor="start" x="2388" y="-269.8" font-family="arial" font-weight="bold" font-size="14.00">ID_3_ct0_st023578</text>
<text text-anchor="start" x="2395" y="-255.8" font-family="arial" font-size="14.00" fill="#984ea3">(!P &amp;&amp; (!Q &amp;&amp; R))</text>
<text text-anchor="start" x="2436.5" y="-241.8" font-family="arial" font-size="14.00" fill="#ff7f00">true</text>
</g>
<!-- ID_3_ct0_st0246&#45;&gt;ID_3_ct0_st023578 -->
<g id="edge49" class="edge">
<title>ID_3_ct0_st0246&#45;&gt;ID_3_ct0_st023578</title>
<path fill="none" stroke="black" d="M2116.23,-315.14C2135.35,-310.27 2156.47,-305.15 2176,-301 2247.47,-285.8 2265.74,-283.86 2338,-273 2348.27,-271.46 2359.1,-269.94 2369.79,-268.51"/>
<polygon fill="black" stroke="black" points="2370.51,-271.94 2379.97,-267.16 2369.6,-265 2370.51,-271.94"/>
<text text-anchor="start" x="2236" y="-304.8" font-family="arial" font-size="14.00" fill="#377eb8">true</text>
</g>
<!-- ID_3_ct0_st0123578 -->
<g id="node16" class="node">
<title>ID_3_ct0_st0123578</title>
<polygon fill="none" stroke="black" points="2320,-375 2176,-375 2176,-325 2320,-325 2320,-375"/>
<text text-anchor="start" x="2184" y="-360.8" font-family="arial" font-weight="bold" font-size="14.00">ID_3_ct0_st0123578</text>
<text text-anchor="start" x="2196.5" y="-346.8" font-family="arial" font-size="14.00" fill="#984ea3">(P &amp;&amp; (!Q &amp;&amp; R))</text>
<text text-anchor="start" x="2236" y="-332.8" font-family="arial" font-size="14.00" fill="#ff7f00">true</text>
</g>
<!-- ID_3_ct0_st0246&#45;&gt;ID_3_ct0_st0123578 -->
<g id="edge51" class="edge">
<title>ID_3_ct0_st0246&#45;&gt;ID_3_ct0_st0123578</title>
<path fill="none" stroke="black" d="M2116.06,-337.82C2131.88,-339.29 2149.09,-340.89 2165.69,-342.44"/>
<polygon fill="black" stroke="black" points="2165.64,-345.95 2175.93,-343.39 2166.29,-338.98 2165.64,-345.95"/>
<text text-anchor="start" x="2134" y="-344.8" font-family="arial" font-size="14.00" fill="#377eb8">true</text>
</g>
<!-- ID_3_ct0_st01246&#45;&gt;ID_3_ct0_st0 -->
<g id="edge52" class="edge">
<title>ID_3_ct0_st01246&#45;&gt;ID_3_ct0_st0</title>
<path fill="none" stroke="black" d="M1857.12,-212.98C1839.89,-151.87 1786.31,0 1679.5,0 380.5,0 380.5,0 380.5,0 279.87,0 228.93,-137.42 210.18,-203.85"/>
<polygon fill="black" stroke="black" points="206.7,-203.31 207.45,-213.87 213.46,-205.15 206.7,-203.31"/>
<text text-anchor="start" x="1020.5" y="-3.8" font-family="arial" font-size="14.00" fill="#377eb8">Q&#39;</text>
</g>
<!-- ID_3_ct0_st01246&#45;&gt;ID_3_ct0_st0246 -->
<g id="edge53" class="edge">
<title>ID_3_ct0_st01246&#45;&gt;ID_3_ct0_st0246</title>
<path fill="none" stroke="black" d="M1929.22,-246.45C1943.45,-249.8 1958.12,-254.48 1971,-261 1989.8,-270.52 2007.69,-285.48 2021.82,-299.22"/>
<polygon fill="black" stroke="black" points="2019.72,-302.07 2029.26,-306.68 2024.68,-297.13 2019.72,-302.07"/>
<text text-anchor="start" x="1947" y="-264.8" font-family="arial" font-size="14.00" fill="#377eb8">true</text>
</g>
<!-- ID_3_ct0_st01246&#45;&gt;ID_3_ct0_st01246 -->
<g id="edge55" class="edge">
<title>ID_3_ct0_st01246&#45;&gt;ID_3_ct0_st01246</title>
<path fill="none" stroke="black" d="M1846.94,-263.18C1846.16,-272.91 1852.02,-281 1864.5,-281 1872.3,-281 1877.51,-277.84 1880.14,-273.09"/>
<polygon fill="black" stroke="black" points="1883.59,-273.66 1882.06,-263.18 1876.72,-272.33 1883.59,-273.66"/>
<text text-anchor="start" x="1852.5" y="-284.8" font-family="arial" font-size="14.00" fill="#377eb8">true</text>
</g>
<!-- ID_3_ct0_st01246&#45;&gt;ID_3_ct0_st023578 -->
<g id="edge54" class="edge">
<title>ID_3_ct0_st01246&#45;&gt;ID_3_ct0_st023578</title>
<path fill="none" stroke="black" d="M1929.1,-238.99C1942.92,-239.27 1957.45,-239.6 1971,-240 2111.53,-244.13 2275.29,-251.14 2369.62,-255.39"/>
<polygon fill="black" stroke="black" points="2369.51,-258.89 2379.65,-255.85 2369.82,-251.9 2369.51,-258.89"/>
<text text-anchor="start" x="2134" y="-249.8" font-family="arial" font-size="14.00" fill="#377eb8">true</text>
</g>
<!-- ID_3_ct0_st01246&#45;&gt;ID_3_ct0_st0123578 -->
<g id="edge56" class="edge">
<title>ID_3_ct0_st01246&#45;&gt;ID_3_ct0_st0123578</title>
<path fill="none" stroke="black" d="M1929.01,-242.54C1942.9,-243.95 1957.48,-245.74 1971,-248 2036.39,-258.93 2054.8,-257.51 2116,-283 2144.92,-295.05 2148.16,-305.64 2176,-320 2176.3,-320.16 2176.6,-320.31 2176.91,-320.47"/>
<polygon fill="black" stroke="black" points="2175.39,-323.62 2185.91,-324.91 2178.49,-317.34 2175.39,-323.62"/>
<text text-anchor="start" x="2040.5" y="-286.8" font-family="arial" font-size="14.00" fill="#377eb8">true</text>
</g>
<!-- ID_3_ct0_st023578&#45;&gt;ID_3_ct0_st023578 -->
<g id="edge66" class="edge">
<title>ID_3_ct0_st023578&#45;&gt;ID_3_ct0_st023578</title>
<path fill="none" stroke="black" d="M2430.2,-284.18C2429.38,-293.91 2435.48,-302 2448.5,-302 2456.63,-302 2462.07,-298.84 2464.8,-294.09"/>
<polygon fill="black" stroke="black" points="2468.26,-294.67 2466.8,-284.18 2461.39,-293.29 2468.26,-294.67"/>
<text text-anchor="start" x="2436.5" y="-305.8" font-family="arial" font-size="14.00" fill="#377eb8">true</text>
</g>
<!-- ID_3_ct0_st023578&#45;&gt;ID_3_ct0_st0123578 -->
<g id="edge68" class="edge">
<title>ID_3_ct0_st023578&#45;&gt;ID_3_ct0_st0123578</title>
<path fill="none" stroke="black" d="M2403.17,-284.09C2390.07,-291.17 2375.6,-298.66 2362,-305 2350.18,-310.51 2337.49,-315.98 2325.03,-321.11"/>
<polygon fill="black" stroke="black" points="2323.51,-317.95 2315.57,-324.96 2326.15,-324.43 2323.51,-317.95"/>
<text text-anchor="start" x="2338" y="-317.8" font-family="arial" font-size="14.00" fill="#377eb8">true</text>
</g>
<!-- ID_3_ct0_st02468 -->
<g id="node17" class="node">
<title>ID_3_ct0_st02468</title>
<polygon fill="none" stroke="black" points="2903,-367 2774,-367 2774,-317 2903,-317 2903,-367"/>
<text text-anchor="start" x="2782" y="-352.8" font-family="arial" font-weight="bold" font-size="14.00">ID_3_ct0_st02468</text>
<text text-anchor="start" x="2783" y="-338.8" font-family="arial" font-size="14.00" fill="#984ea3">(!P &amp;&amp; (!Q &amp;&amp; !R))</text>
<text text-anchor="start" x="2826.5" y="-324.8" font-family="arial" font-size="14.00" fill="#ff7f00">true</text>
</g>
<!-- ID_3_ct0_st023578&#45;&gt;ID_3_ct0_st02468 -->
<g id="edge65" class="edge">
<title>ID_3_ct0_st023578&#45;&gt;ID_3_ct0_st02468</title>
<path fill="none" stroke="black" d="M2517.1,-244.03C2571.66,-234.91 2649.67,-228.67 2714,-250 2749.57,-261.79 2783.21,-288.25 2806.37,-309.78"/>
<polygon fill="black" stroke="black" points="2804.16,-312.5 2813.81,-316.86 2808.98,-307.43 2804.16,-312.5"/>
<text text-anchor="start" x="2633.5" y="-253.8" font-family="arial" font-size="14.00" fill="#377eb8">true</text>
</g>
<!-- ID_3_ct0_st012468 -->
<g id="node18" class="node">
<title>ID_3_ct0_st012468</title>
<polygon fill="none" stroke="black" points="2714,-367 2577,-367 2577,-317 2714,-317 2714,-367"/>
<text text-anchor="start" x="2585" y="-352.8" font-family="arial" font-weight="bold" font-size="14.00">ID_3_ct0_st012468</text>
<text text-anchor="start" x="2592" y="-338.8" font-family="arial" font-size="14.00" fill="#984ea3">(P &amp;&amp; (!Q &amp;&amp; !R))</text>
<text text-anchor="start" x="2633.5" y="-324.8" font-family="arial" font-size="14.00" fill="#ff7f00">true</text>
</g>
<!-- ID_3_ct0_st023578&#45;&gt;ID_3_ct0_st012468 -->
<g id="edge67" class="edge">
<title>ID_3_ct0_st023578&#45;&gt;ID_3_ct0_st012468</title>
<path fill="none" stroke="black" d="M2492.74,-284.08C2506.06,-291.31 2520.93,-298.89 2535,-305 2545.32,-309.48 2556.37,-313.78 2567.34,-317.75"/>
<polygon fill="black" stroke="black" points="2566.35,-321.11 2576.94,-321.15 2568.69,-314.51 2566.35,-321.11"/>
<text text-anchor="start" x="2535" y="-317.8" font-family="arial" font-size="14.00" fill="#377eb8">true</text>
</g>
<!-- ID_3_ct0_st0123578&#45;&gt;ID_3_ct0_st023578 -->
<g id="edge70" class="edge">
<title>ID_3_ct0_st0123578&#45;&gt;ID_3_ct0_st023578</title>
<path fill="none" stroke="black" d="M2278.1,-324.71C2294.68,-311.47 2316.4,-295.97 2338,-286 2348.11,-281.33 2359.12,-277.41 2370.15,-274.13"/>
<polygon fill="black" stroke="black" points="2371.14,-277.48 2379.82,-271.4 2369.24,-270.74 2371.14,-277.48"/>
<text text-anchor="start" x="2338" y="-289.8" font-family="arial" font-size="14.00" fill="#377eb8">true</text>
</g>
<!-- ID_3_ct0_st0123578&#45;&gt;ID_3_ct0_st0123578 -->
<g id="edge72" class="edge">
<title>ID_3_ct0_st0123578&#45;&gt;ID_3_ct0_st0123578</title>
<path fill="none" stroke="black" d="M2228.95,-375.18C2228.1,-384.91 2234.45,-393 2248,-393 2256.47,-393 2262.12,-389.84 2264.97,-385.09"/>
<polygon fill="black" stroke="black" points="2268.42,-385.68 2267.05,-375.18 2261.57,-384.24 2268.42,-385.68"/>
<text text-anchor="start" x="2236" y="-396.8" font-family="arial" font-size="14.00" fill="#377eb8">true</text>
</g>
<!-- ID_3_ct0_st0123578&#45;&gt;ID_3_ct0_st02468 -->
<g id="edge69" class="edge">
<title>ID_3_ct0_st0123578&#45;&gt;ID_3_ct0_st02468</title>
<path fill="none" stroke="black" d="M2319.32,-375C2411.26,-404.06 2576.76,-443.83 2714,-409 2742.28,-401.82 2771.1,-386.72 2793.78,-372.67"/>
<polygon fill="black" stroke="black" points="2795.9,-375.47 2802.47,-367.15 2792.15,-369.56 2795.9,-375.47"/>
<text text-anchor="start" x="2535" y="-424.8" font-family="arial" font-size="14.00" fill="#377eb8">true</text>
</g>
<!-- ID_3_ct0_st0123578&#45;&gt;ID_3_ct0_st012468 -->
<g id="edge71" class="edge">
<title>ID_3_ct0_st0123578&#45;&gt;ID_3_ct0_st012468</title>
<path fill="none" stroke="black" d="M2320.4,-358.85C2326.36,-359.58 2332.28,-360.31 2338,-361 2356.66,-363.26 2361.23,-364.89 2380,-366 2440.78,-369.61 2456.37,-371.66 2517,-366 2533.16,-364.49 2550.32,-361.93 2566.64,-359.03"/>
<polygon fill="black" stroke="black" points="2567.47,-362.44 2576.68,-357.19 2566.21,-355.55 2567.47,-362.44"/>
<text text-anchor="start" x="2436.5" y="-372.8" font-family="arial" font-size="14.00" fill="#377eb8">true</text>
</g>
<!-- ID_3_ct0_st02468&#45;&gt;ID_3_ct0_st023578 -->
<g id="edge58" class="edge">
<title>ID_3_ct0_st02468&#45;&gt;ID_3_ct0_st023578</title>
<path fill="none" stroke="black" d="M2782.85,-316.91C2761.73,-308.12 2737.12,-298.97 2714,-293 2652.31,-277.06 2580.5,-268.44 2527.28,-263.86"/>
<polygon fill="black" stroke="black" points="2527.49,-260.37 2517.23,-263.03 2526.91,-267.35 2527.49,-260.37"/>
<text text-anchor="start" x="2633.5" y="-296.8" font-family="arial" font-size="14.00" fill="#377eb8">true</text>
</g>
<!-- ID_3_ct0_st02468&#45;&gt;ID_3_ct0_st0123578 -->
<g id="edge60" class="edge">
<title>ID_3_ct0_st02468&#45;&gt;ID_3_ct0_st0123578</title>
<path fill="none" stroke="black" d="M2829.14,-367.02C2817.78,-396.51 2794.37,-444.14 2756,-465 2592.78,-553.72 2504.37,-547.67 2338,-465 2304.08,-448.14 2279.35,-411.54 2264.69,-384.13"/>
<polygon fill="black" stroke="black" points="2267.79,-382.52 2260.1,-375.23 2261.57,-385.72 2267.79,-382.52"/>
<text text-anchor="start" x="2535" y="-532.8" font-family="arial" font-size="14.00" fill="#377eb8">true</text>
</g>
<!-- ID_3_ct0_st02468&#45;&gt;ID_3_ct0_st02468 -->
<g id="edge57" class="edge">
<title>ID_3_ct0_st02468&#45;&gt;ID_3_ct0_st02468</title>
<path fill="none" stroke="black" d="M2820.94,-367.18C2820.16,-376.91 2826.02,-385 2838.5,-385 2846.3,-385 2851.51,-381.84 2854.14,-377.09"/>
<polygon fill="black" stroke="black" points="2857.59,-377.66 2856.06,-367.18 2850.72,-376.33 2857.59,-377.66"/>
<text text-anchor="start" x="2826.5" y="-388.8" font-family="arial" font-size="14.00" fill="#377eb8">true</text>
</g>
<!-- ID_3_ct0_st02468&#45;&gt;ID_3_ct0_st012468 -->
<g id="edge59" class="edge">
<title>ID_3_ct0_st02468&#45;&gt;ID_3_ct0_st012468</title>
<path fill="none" stroke="black" d="M2773.82,-342C2757.94,-342 2740.73,-342 2724.25,-342"/>
<polygon fill="black" stroke="black" points="2724.11,-338.5 2714.11,-342 2724.11,-345.5 2724.11,-338.5"/>
<text text-anchor="start" x="2732" y="-345.8" font-family="arial" font-size="14.00" fill="#377eb8">true</text>
</g>
<!-- ID_3_ct0_st012468&#45;&gt;ID_3_ct0_st023578 -->
<g id="edge62" class="edge">
<title>ID_3_ct0_st012468&#45;&gt;ID_3_ct0_st023578</title>
<path fill="none" stroke="black" d="M2608.22,-316.94C2593.44,-307.54 2575.88,-297.36 2559,-290 2548.77,-285.54 2537.73,-281.54 2526.73,-278.02"/>
<polygon fill="black" stroke="black" points="2527.69,-274.65 2517.1,-275.04 2525.62,-281.33 2527.69,-274.65"/>
<text text-anchor="start" x="2535" y="-293.8" font-family="arial" font-size="14.00" fill="#377eb8">true</text>
</g>
<!-- ID_3_ct0_st012468&#45;&gt;ID_3_ct0_st0123578 -->
<g id="edge64" class="edge">
<title>ID_3_ct0_st012468&#45;&gt;ID_3_ct0_st0123578</title>
<path fill="none" stroke="black" d="M2576.88,-343.37C2508.57,-344.75 2403.01,-346.88 2330.21,-348.36"/>
<polygon fill="black" stroke="black" points="2330.09,-344.86 2320.16,-348.56 2330.23,-351.86 2330.09,-344.86"/>
<text text-anchor="start" x="2436.5" y="-350.8" font-family="arial" font-size="14.00" fill="#377eb8">true</text>
</g>
<!-- ID_3_ct0_st012468&#45;&gt;ID_3_ct0_st02468 -->
<g id="edge61" class="edge">
<title>ID_3_ct0_st012468&#45;&gt;ID_3_ct0_st02468</title>
<path fill="none" stroke="black" d="M2714.08,-324.12C2727.91,-322.2 2742.39,-321.43 2756,-323 2758.53,-323.29 2761.09,-323.63 2763.67,-324.01"/>
<polygon fill="black" stroke="black" points="2763.24,-327.49 2773.68,-325.66 2764.38,-320.58 2763.24,-327.49"/>
<text text-anchor="start" x="2732" y="-326.8" font-family="arial" font-size="14.00" fill="#377eb8">true</text>
</g>
<!-- ID_3_ct0_st012468&#45;&gt;ID_3_ct0_st012468 -->
<g id="edge63" class="edge">
<title>ID_3_ct0_st012468&#45;&gt;ID_3_ct0_st012468</title>
<path fill="none" stroke="black" d="M2627.2,-367.18C2626.38,-376.91 2632.48,-385 2645.5,-385 2653.63,-385 2659.07,-381.84 2661.8,-377.09"/>
<polygon fill="black" stroke="black" points="2665.26,-377.67 2663.8,-367.18 2658.39,-376.29 2665.26,-377.67"/>
<text text-anchor="start" x="2633.5" y="-388.8" font-family="arial" font-size="14.00" fill="#377eb8">true</text>
</g>
</g>
</svg>
