<?xml version="1.0" encoding="UTF-8" standalone="no"?>
<!DOCTYPE svg PUBLIC "-//W3C//DTD SVG 1.1//EN"
 "http://www.w3.org/Graphics/SVG/1.1/DTD/svg11.dtd">
<!-- Generated by graphviz version 2.43.0 (0)
 -->
<!-- Title: G Pages: 1 -->
<svg width="2172pt" height="255pt"
 viewBox="0.00 0.00 2172.00 255.00" xmlns="http://www.w3.org/2000/svg" xmlns:xlink="http://www.w3.org/1999/xlink">
<g id="graph0" class="graph" transform="scale(1 1) rotate(0) translate(4 251)">
<title>G</title>
<polygon fill="white" stroke="transparent" points="-4,4 -4,-251 2168,-251 2168,4 -4,4"/>
<!-- _ID_50_ct0_st0 -->
<!-- ID_50_ct0_st0 -->
<g id="node2" class="node">
<title>ID_50_ct0_st0</title>
<polygon fill="none" stroke="black" points="264.5,-214 157.5,-214 157.5,-164 264.5,-164 264.5,-214"/>
<text text-anchor="start" x="165.5" y="-199.8" font-family="arial" font-weight="bold" font-size="14.00">ID_50_ct0_st0</text>
<text text-anchor="start" x="204.5" y="-185.8" font-family="arial" font-size="14.00" fill="#984ea3">!P</text>
<text text-anchor="start" x="199" y="-171.8" font-family="arial" font-size="14.00" fill="#ff7f00">true</text>
</g>
<!-- _ID_50_ct0_st0&#45;&gt;ID_50_ct0_st0 -->
<g id="edge1" class="edge">
<title>_ID_50_ct0_st0&#45;&gt;ID_50_ct0_st0</title>
<path fill="none" stroke="black" d="M111.05,-189C122.71,-189 135.13,-189 147.08,-189"/>
<polygon fill="black" stroke="black" points="147.43,-192.5 157.43,-189 147.43,-185.5 147.43,-192.5"/>
</g>
<!-- ID_50_ct0_st0&#45;&gt;ID_50_ct0_st0 -->
<g id="edge4" class="edge">
<title>ID_50_ct0_st0&#45;&gt;ID_50_ct0_st0</title>
<path fill="none" stroke="black" d="M196.06,-214.18C195.39,-223.91 200.38,-232 211,-232 217.64,-232 222.08,-228.84 224.31,-224.09"/>
<polygon fill="black" stroke="black" points="227.77,-224.61 225.94,-214.18 220.86,-223.47 227.77,-224.61"/>
<text text-anchor="start" x="199" y="-235.8" font-family="arial" font-size="14.00" fill="#377eb8">true</text>
</g>
<!-- ID_50_ct0_st012 -->
<g id="node4" class="node">
<title>ID_50_ct0_st012</title>
<polygon fill="none" stroke="black" points="456,-122 334,-122 334,-72 456,-72 456,-122"/>
<text text-anchor="start" x="342" y="-107.8" font-family="arial" font-weight="bold" font-size="14.00">ID_50_ct0_st012</text>
<text text-anchor="start" x="366" y="-93.8" font-family="arial" font-size="14.00" fill="#984ea3">(P &amp;&amp; !R)</text>
<text text-anchor="start" x="383" y="-79.8" font-family="arial" font-size="14.00" fill="#ff7f00">true</text>
</g>
<!-- ID_50_ct0_st0&#45;&gt;ID_50_ct0_st012 -->
<g id="edge5" class="edge">
<title>ID_50_ct0_st0&#45;&gt;ID_50_ct0_st012</title>
<path fill="none" stroke="black" d="M261.73,-163.86C284.4,-152.4 311.41,-138.75 335.09,-126.78"/>
<polygon fill="black" stroke="black" points="336.98,-129.74 344.33,-122.11 333.82,-123.5 336.98,-129.74"/>
<text text-anchor="start" x="292" y="-152.8" font-family="arial" font-size="14.00" fill="#377eb8">true</text>
</g>
<!-- ID_50_ct0_st0123 -->
<g id="node6" class="node">
<title>ID_50_ct0_st0123</title>
<polygon fill="none" stroke="black" points="839,-181 710,-181 710,-131 839,-131 839,-181"/>
<text text-anchor="start" x="718" y="-166.8" font-family="arial" font-weight="bold" font-size="14.00">ID_50_ct0_st0123</text>
<text text-anchor="start" x="747.5" y="-152.8" font-family="arial" font-size="14.00" fill="#984ea3">(P &amp;&amp; R)</text>
<text text-anchor="start" x="762.5" y="-138.8" font-family="arial" font-size="14.00" fill="#ff7f00">true</text>
</g>
<!-- ID_50_ct0_st0&#45;&gt;ID_50_ct0_st0123 -->
<g id="edge6" class="edge">
<title>ID_50_ct0_st0&#45;&gt;ID_50_ct0_st0123</title>
<path fill="none" stroke="black" d="M264.6,-197.98C347.18,-210.61 512.08,-229.86 650,-209 674.42,-205.31 699.75,-195.61 721.08,-185.5"/>
<polygon fill="black" stroke="black" points="722.82,-188.55 730.26,-181.01 719.74,-182.26 722.82,-188.55"/>
<text text-anchor="start" x="474" y="-221.8" font-family="arial" font-size="14.00" fill="#377eb8">true</text>
</g>
<!-- _ID_50_ct0_st012 -->
<!-- _ID_50_ct0_st012&#45;&gt;ID_50_ct0_st012 -->
<g id="edge2" class="edge">
<title>_ID_50_ct0_st012&#45;&gt;ID_50_ct0_st012</title>
<path fill="none" stroke="black" d="M274.13,-97C290.07,-97 307.34,-97 323.67,-97"/>
<polygon fill="black" stroke="black" points="323.69,-100.5 333.69,-97 323.69,-93.5 323.69,-100.5"/>
</g>
<!-- ID_50_ct0_st012&#45;&gt;ID_50_ct0_st012 -->
<g id="edge13" class="edge">
<title>ID_50_ct0_st012&#45;&gt;ID_50_ct0_st012</title>
<path fill="none" stroke="black" d="M378.19,-122.18C377.44,-131.91 383.05,-140 395,-140 402.47,-140 407.46,-136.84 409.97,-132.09"/>
<polygon fill="black" stroke="black" points="413.43,-132.65 411.81,-122.18 406.54,-131.37 413.43,-132.65"/>
<text text-anchor="start" x="383" y="-143.8" font-family="arial" font-size="14.00" fill="#377eb8">true</text>
</g>
<!-- ID_50_ct0_st012&#45;&gt;ID_50_ct0_st0123 -->
<g id="edge14" class="edge">
<title>ID_50_ct0_st012&#45;&gt;ID_50_ct0_st0123</title>
<path fill="none" stroke="black" d="M422.03,-122.08C444.76,-142.13 479.73,-168.68 516,-180 576.09,-198.76 647.61,-189.77 700,-177.8"/>
<polygon fill="black" stroke="black" points="700.96,-181.17 709.89,-175.45 699.35,-174.36 700.96,-181.17"/>
<text text-anchor="start" x="571" y="-193.8" font-family="arial" font-size="14.00" fill="#377eb8">true</text>
</g>
<!-- ID_50_ct0_st02 -->
<g id="node7" class="node">
<title>ID_50_ct0_st02</title>
<polygon fill="none" stroke="black" points="640,-84 526,-84 526,-34 640,-34 640,-84"/>
<text text-anchor="start" x="534" y="-69.8" font-family="arial" font-weight="bold" font-size="14.00">ID_50_ct0_st02</text>
<text text-anchor="start" x="552.5" y="-55.8" font-family="arial" font-size="14.00" fill="#984ea3">(!P &amp;&amp; !R)</text>
<text text-anchor="start" x="571" y="-41.8" font-family="arial" font-size="14.00" fill="#ff7f00">true</text>
</g>
<!-- ID_50_ct0_st012&#45;&gt;ID_50_ct0_st02 -->
<g id="edge11" class="edge">
<title>ID_50_ct0_st012&#45;&gt;ID_50_ct0_st02</title>
<path fill="none" stroke="black" d="M437.56,-71.8C448.97,-66.13 461.62,-60.92 474,-58 487.36,-54.85 501.92,-53.58 515.89,-53.37"/>
<polygon fill="black" stroke="black" points="515.92,-56.87 525.93,-53.4 515.94,-49.87 515.92,-56.87"/>
<text text-anchor="start" x="474" y="-61.8" font-family="arial" font-size="14.00" fill="#377eb8">true</text>
</g>
<!-- ID_50_ct0_st023 -->
<g id="node8" class="node">
<title>ID_50_ct0_st023</title>
<polygon fill="none" stroke="black" points="1021,-85 899,-85 899,-35 1021,-35 1021,-85"/>
<text text-anchor="start" x="907" y="-70.8" font-family="arial" font-weight="bold" font-size="14.00">ID_50_ct0_st023</text>
<text text-anchor="start" x="931" y="-56.8" font-family="arial" font-size="14.00" fill="#984ea3">(!P &amp;&amp; R)</text>
<text text-anchor="start" x="948" y="-42.8" font-family="arial" font-size="14.00" fill="#ff7f00">true</text>
</g>
<!-- ID_50_ct0_st012&#45;&gt;ID_50_ct0_st023 -->
<g id="edge12" class="edge">
<title>ID_50_ct0_st012&#45;&gt;ID_50_ct0_st023</title>
<path fill="none" stroke="black" d="M427.4,-71.64C450.4,-54.76 483.22,-34.08 516,-25 644.15,10.49 800.55,-17.67 889.07,-39.87"/>
<polygon fill="black" stroke="black" points="888.44,-43.32 899,-42.4 890.17,-36.53 888.44,-43.32"/>
<text text-anchor="start" x="668" y="-13.8" font-family="arial" font-size="14.00" fill="#377eb8">true</text>
</g>
<!-- _ID_50_ct0_st0123 -->
<!-- _ID_50_ct0_st0123&#45;&gt;ID_50_ct0_st0123 -->
<g id="edge3" class="edge">
<title>_ID_50_ct0_st0123&#45;&gt;ID_50_ct0_st0123</title>
<path fill="none" stroke="black" d="M650.01,-154.05C666.11,-154.3 683.43,-154.57 699.86,-154.83"/>
<polygon fill="black" stroke="black" points="699.9,-158.34 709.96,-154.99 700.01,-151.34 699.9,-158.34"/>
</g>
<!-- ID_50_ct0_st0123&#45;&gt;ID_50_ct0_st0123 -->
<g id="edge22" class="edge">
<title>ID_50_ct0_st0123&#45;&gt;ID_50_ct0_st0123</title>
<path fill="none" stroke="black" d="M756.94,-181.18C756.16,-190.91 762.02,-199 774.5,-199 782.3,-199 787.51,-195.84 790.14,-191.09"/>
<polygon fill="black" stroke="black" points="793.59,-191.66 792.06,-181.18 786.72,-190.33 793.59,-191.66"/>
<text text-anchor="start" x="762.5" y="-202.8" font-family="arial" font-size="14.00" fill="#377eb8">true</text>
</g>
<!-- ID_50_ct0_st0123&#45;&gt;ID_50_ct0_st023 -->
<g id="edge20" class="edge">
<title>ID_50_ct0_st0123&#45;&gt;ID_50_ct0_st023</title>
<path fill="none" stroke="black" d="M799.41,-130.74C814.63,-116.03 835.47,-98.23 857,-87 866.99,-81.79 878.06,-77.53 889.12,-74.06"/>
<polygon fill="black" stroke="black" points="890.21,-77.38 898.82,-71.2 888.23,-70.67 890.21,-77.38"/>
<text text-anchor="start" x="857" y="-90.8" font-family="arial" font-size="14.00" fill="#377eb8">true</text>
</g>
<!-- ID_50_ct0_st024 -->
<g id="node9" class="node">
<title>ID_50_ct0_st024</title>
<polygon fill="none" stroke="black" points="1392,-78 1270,-78 1270,-28 1392,-28 1392,-78"/>
<text text-anchor="start" x="1278" y="-63.8" font-family="arial" font-weight="bold" font-size="14.00">ID_50_ct0_st024</text>
<text text-anchor="start" x="1300.5" y="-49.8" font-family="arial" font-size="14.00" fill="#984ea3">(!P &amp;&amp; !R)</text>
<text text-anchor="start" x="1319" y="-35.8" font-family="arial" font-size="14.00" fill="#ff7f00">true</text>
</g>
<!-- ID_50_ct0_st0123&#45;&gt;ID_50_ct0_st024 -->
<g id="edge19" class="edge">
<title>ID_50_ct0_st0123&#45;&gt;ID_50_ct0_st024</title>
<path fill="none" stroke="black" d="M839.18,-180.05C927.22,-209.2 1088.93,-247.7 1210,-190 1248.22,-171.78 1242.04,-147.8 1270,-116 1278.89,-105.89 1288.87,-95.17 1298.1,-85.51"/>
<polygon fill="black" stroke="black" points="1300.89,-87.65 1305.3,-78.01 1295.85,-82.8 1300.89,-87.65"/>
<text text-anchor="start" x="1039" y="-222.8" font-family="arial" font-size="14.00" fill="#377eb8">true</text>
</g>
<!-- ID_50_ct0_st0124 -->
<g id="node10" class="node">
<title>ID_50_ct0_st0124</title>
<polygon fill="none" stroke="black" points="1210,-148 1081,-148 1081,-98 1210,-98 1210,-148"/>
<text text-anchor="start" x="1089" y="-133.8" font-family="arial" font-weight="bold" font-size="14.00">ID_50_ct0_st0124</text>
<text text-anchor="start" x="1116.5" y="-119.8" font-family="arial" font-size="14.00" fill="#984ea3">(P &amp;&amp; !R)</text>
<text text-anchor="start" x="1133.5" y="-105.8" font-family="arial" font-size="14.00" fill="#ff7f00">true</text>
</g>
<!-- ID_50_ct0_st0123&#45;&gt;ID_50_ct0_st0124 -->
<g id="edge21" class="edge">
<title>ID_50_ct0_st0123&#45;&gt;ID_50_ct0_st0124</title>
<path fill="none" stroke="black" d="M839.35,-150.29C903.71,-144.53 1002.94,-135.66 1070.64,-129.61"/>
<polygon fill="black" stroke="black" points="1071.16,-133.07 1080.81,-128.7 1070.54,-126.1 1071.16,-133.07"/>
<text text-anchor="start" x="948" y="-148.8" font-family="arial" font-size="14.00" fill="#377eb8">true</text>
</g>
<!-- ID_50_ct0_st02&#45;&gt;ID_50_ct0_st012 -->
<g id="edge9" class="edge">
<title>ID_50_ct0_st02&#45;&gt;ID_50_ct0_st012</title>
<path fill="none" stroke="black" d="M525.86,-70.47C507.02,-74.32 485.78,-78.66 466.01,-82.7"/>
<polygon fill="black" stroke="black" points="465.23,-79.28 456.13,-84.71 466.63,-86.14 465.23,-79.28"/>
<text text-anchor="start" x="474" y="-84.8" font-family="arial" font-size="14.00" fill="#377eb8">true</text>
</g>
<!-- ID_50_ct0_st02&#45;&gt;ID_50_ct0_st0123 -->
<g id="edge10" class="edge">
<title>ID_50_ct0_st02&#45;&gt;ID_50_ct0_st0123</title>
<path fill="none" stroke="black" d="M633.29,-84.23C658.41,-97.09 689.1,-112.8 715.37,-126.24"/>
<polygon fill="black" stroke="black" points="713.96,-129.45 724.45,-130.89 717.15,-123.22 713.96,-129.45"/>
<text text-anchor="start" x="668" y="-117.8" font-family="arial" font-size="14.00" fill="#377eb8">true</text>
</g>
<!-- ID_50_ct0_st02&#45;&gt;ID_50_ct0_st02 -->
<g id="edge7" class="edge">
<title>ID_50_ct0_st02&#45;&gt;ID_50_ct0_st02</title>
<path fill="none" stroke="black" d="M565.07,-84.18C564.27,-93.91 570.25,-102 583,-102 590.97,-102 596.29,-98.84 598.97,-94.09"/>
<polygon fill="black" stroke="black" points="602.42,-94.66 600.93,-84.18 595.56,-93.31 602.42,-94.66"/>
<text text-anchor="start" x="571" y="-105.8" font-family="arial" font-size="14.00" fill="#377eb8">true</text>
</g>
<!-- ID_50_ct0_st02&#45;&gt;ID_50_ct0_st023 -->
<g id="edge8" class="edge">
<title>ID_50_ct0_st02&#45;&gt;ID_50_ct0_st023</title>
<path fill="none" stroke="black" d="M640.14,-59.15C706.35,-59.33 816.49,-59.62 888.42,-59.81"/>
<polygon fill="black" stroke="black" points="888.73,-63.31 898.74,-59.84 888.75,-56.31 888.73,-63.31"/>
<text text-anchor="start" x="762.5" y="-63.8" font-family="arial" font-size="14.00" fill="#377eb8">true</text>
</g>
<!-- ID_50_ct0_st023&#45;&gt;ID_50_ct0_st0123 -->
<g id="edge18" class="edge">
<title>ID_50_ct0_st023&#45;&gt;ID_50_ct0_st0123</title>
<path fill="none" stroke="black" d="M918.1,-85.05C906.26,-92.06 893.22,-99.52 881,-106 867.91,-112.95 853.69,-120 840.05,-126.54"/>
<polygon fill="black" stroke="black" points="838.25,-123.52 830.72,-130.98 841.26,-129.84 838.25,-123.52"/>
<text text-anchor="start" x="857" y="-121.8" font-family="arial" font-size="14.00" fill="#377eb8">true</text>
</g>
<!-- ID_50_ct0_st023&#45;&gt;ID_50_ct0_st023 -->
<g id="edge16" class="edge">
<title>ID_50_ct0_st023&#45;&gt;ID_50_ct0_st023</title>
<path fill="none" stroke="black" d="M943.19,-85.18C942.44,-94.91 948.05,-103 960,-103 967.47,-103 972.46,-99.84 974.97,-95.09"/>
<polygon fill="black" stroke="black" points="978.43,-95.65 976.81,-85.18 971.54,-94.37 978.43,-95.65"/>
<text text-anchor="start" x="948" y="-106.8" font-family="arial" font-size="14.00" fill="#377eb8">true</text>
</g>
<!-- ID_50_ct0_st023&#45;&gt;ID_50_ct0_st024 -->
<g id="edge15" class="edge">
<title>ID_50_ct0_st023&#45;&gt;ID_50_ct0_st024</title>
<path fill="none" stroke="black" d="M1021.11,-58.86C1086.37,-57.62 1190.52,-55.65 1259.57,-54.34"/>
<polygon fill="black" stroke="black" points="1259.99,-57.83 1269.92,-54.14 1259.85,-50.83 1259.99,-57.83"/>
<text text-anchor="start" x="1133.5" y="-61.8" font-family="arial" font-size="14.00" fill="#377eb8">true</text>
</g>
<!-- ID_50_ct0_st023&#45;&gt;ID_50_ct0_st0124 -->
<g id="edge17" class="edge">
<title>ID_50_ct0_st023&#45;&gt;ID_50_ct0_st0124</title>
<path fill="none" stroke="black" d="M1021.08,-80.63C1037.07,-86.12 1054.53,-92.11 1071.14,-97.81"/>
<polygon fill="black" stroke="black" points="1070.21,-101.2 1080.81,-101.13 1072.49,-94.58 1070.21,-101.2"/>
<text text-anchor="start" x="1039" y="-97.8" font-family="arial" font-size="14.00" fill="#377eb8">true</text>
</g>
<!-- ID_50_ct0_st024&#45;&gt;ID_50_ct0_st024 -->
<g id="edge23" class="edge">
<title>ID_50_ct0_st024&#45;&gt;ID_50_ct0_st024</title>
<path fill="none" stroke="black" d="M1314.19,-78.18C1313.44,-87.91 1319.05,-96 1331,-96 1338.47,-96 1343.46,-92.84 1345.97,-88.09"/>
<polygon fill="black" stroke="black" points="1349.43,-88.65 1347.81,-78.18 1342.54,-87.37 1349.43,-88.65"/>
<text text-anchor="start" x="1319" y="-99.8" font-family="arial" font-size="14.00" fill="#377eb8">true</text>
</g>
<!-- ID_50_ct0_st024&#45;&gt;ID_50_ct0_st0124 -->
<g id="edge25" class="edge">
<title>ID_50_ct0_st024&#45;&gt;ID_50_ct0_st0124</title>
<path fill="none" stroke="black" d="M1269.94,-66.47C1255.98,-70.27 1241.31,-74.8 1228,-80 1218.29,-83.79 1208.24,-88.44 1198.65,-93.26"/>
<polygon fill="black" stroke="black" points="1196.91,-90.22 1189.63,-97.92 1200.12,-96.44 1196.91,-90.22"/>
<text text-anchor="start" x="1228" y="-83.8" font-family="arial" font-size="14.00" fill="#377eb8">true</text>
</g>
<!-- ID_50_ct0_st0235 -->
<g id="node11" class="node">
<title>ID_50_ct0_st0235</title>
<polygon fill="none" stroke="black" points="1778,-104 1649,-104 1649,-54 1778,-54 1778,-104"/>
<text text-anchor="start" x="1657" y="-89.8" font-family="arial" font-weight="bold" font-size="14.00">ID_50_ct0_st0235</text>
<text text-anchor="start" x="1684.5" y="-75.8" font-family="arial" font-size="14.00" fill="#984ea3">(!P &amp;&amp; R)</text>
<text text-anchor="start" x="1701.5" y="-61.8" font-family="arial" font-size="14.00" fill="#ff7f00">true</text>
</g>
<!-- ID_50_ct0_st024&#45;&gt;ID_50_ct0_st0235 -->
<g id="edge24" class="edge">
<title>ID_50_ct0_st024&#45;&gt;ID_50_ct0_st0235</title>
<path fill="none" stroke="black" d="M1392.03,-44.58C1444.32,-38.7 1522.03,-33.44 1589,-43 1605.39,-45.34 1622.64,-49.34 1638.88,-53.85"/>
<polygon fill="black" stroke="black" points="1638.26,-57.31 1648.84,-56.71 1640.2,-50.59 1638.26,-57.31"/>
<text text-anchor="start" x="1508.5" y="-46.8" font-family="arial" font-size="14.00" fill="#377eb8">true</text>
</g>
<!-- ID_50_ct0_st01235 -->
<g id="node12" class="node">
<title>ID_50_ct0_st01235</title>
<polygon fill="none" stroke="black" points="1589,-117 1452,-117 1452,-67 1589,-67 1589,-117"/>
<text text-anchor="start" x="1460" y="-102.8" font-family="arial" font-weight="bold" font-size="14.00">ID_50_ct0_st01235</text>
<text text-anchor="start" x="1493.5" y="-88.8" font-family="arial" font-size="14.00" fill="#984ea3">(P &amp;&amp; R)</text>
<text text-anchor="start" x="1508.5" y="-74.8" font-family="arial" font-size="14.00" fill="#ff7f00">true</text>
</g>
<!-- ID_50_ct0_st024&#45;&gt;ID_50_ct0_st01235 -->
<g id="edge26" class="edge">
<title>ID_50_ct0_st024&#45;&gt;ID_50_ct0_st01235</title>
<path fill="none" stroke="black" d="M1392.1,-65.5C1407.89,-68.78 1425.15,-72.37 1441.72,-75.82"/>
<polygon fill="black" stroke="black" points="1441.43,-79.34 1451.93,-77.95 1442.85,-72.48 1441.43,-79.34"/>
<text text-anchor="start" x="1410" y="-77.8" font-family="arial" font-size="14.00" fill="#377eb8">true</text>
</g>
<!-- ID_50_ct0_st0124&#45;&gt;ID_50_ct0_st024 -->
<g id="edge27" class="edge">
<title>ID_50_ct0_st0124&#45;&gt;ID_50_ct0_st024</title>
<path fill="none" stroke="black" d="M1210.04,-108.72C1224.06,-104.86 1238.7,-100.26 1252,-95 1260.81,-91.51 1269.9,-87.28 1278.62,-82.85"/>
<polygon fill="black" stroke="black" points="1280.3,-85.92 1287.54,-78.18 1277.06,-79.71 1280.3,-85.92"/>
<text text-anchor="start" x="1228" y="-106.8" font-family="arial" font-size="14.00" fill="#377eb8">true</text>
</g>
<!-- ID_50_ct0_st0124&#45;&gt;ID_50_ct0_st0124 -->
<g id="edge29" class="edge">
<title>ID_50_ct0_st0124&#45;&gt;ID_50_ct0_st0124</title>
<path fill="none" stroke="black" d="M1127.94,-148.18C1127.16,-157.91 1133.02,-166 1145.5,-166 1153.3,-166 1158.51,-162.84 1161.14,-158.09"/>
<polygon fill="black" stroke="black" points="1164.59,-158.66 1163.06,-148.18 1157.72,-157.33 1164.59,-158.66"/>
<text text-anchor="start" x="1133.5" y="-169.8" font-family="arial" font-size="14.00" fill="#377eb8">true</text>
</g>
<!-- ID_50_ct0_st0124&#45;&gt;ID_50_ct0_st0235 -->
<g id="edge28" class="edge">
<title>ID_50_ct0_st0124&#45;&gt;ID_50_ct0_st0235</title>
<path fill="none" stroke="black" d="M1210.27,-142.42C1297.63,-165.84 1458.54,-197.56 1589,-159 1621.21,-149.48 1652.92,-128.63 1676.14,-110.6"/>
<polygon fill="black" stroke="black" points="1678.33,-113.33 1683.98,-104.37 1673.98,-107.85 1678.33,-113.33"/>
<text text-anchor="start" x="1410" y="-179.8" font-family="arial" font-size="14.00" fill="#377eb8">true</text>
</g>
<!-- ID_50_ct0_st0124&#45;&gt;ID_50_ct0_st01235 -->
<g id="edge30" class="edge">
<title>ID_50_ct0_st0124&#45;&gt;ID_50_ct0_st01235</title>
<path fill="none" stroke="black" d="M1210.1,-122.45C1223.91,-122.31 1238.45,-122.16 1252,-122 1314.22,-121.26 1330.18,-127.15 1392,-120 1408.22,-118.12 1425.41,-115.08 1441.74,-111.69"/>
<polygon fill="black" stroke="black" points="1442.73,-115.05 1451.77,-109.53 1441.26,-108.21 1442.73,-115.05"/>
<text text-anchor="start" x="1319" y="-127.8" font-family="arial" font-size="14.00" fill="#377eb8">true</text>
</g>
<!-- ID_50_ct0_st0235&#45;&gt;ID_50_ct0_st0235 -->
<g id="edge32" class="edge">
<title>ID_50_ct0_st0235&#45;&gt;ID_50_ct0_st0235</title>
<path fill="none" stroke="black" d="M1695.94,-104.18C1695.16,-113.91 1701.02,-122 1713.5,-122 1721.3,-122 1726.51,-118.84 1729.14,-114.09"/>
<polygon fill="black" stroke="black" points="1732.59,-114.66 1731.06,-104.18 1725.72,-113.33 1732.59,-114.66"/>
<text text-anchor="start" x="1701.5" y="-125.8" font-family="arial" font-size="14.00" fill="#377eb8">true</text>
</g>
<!-- ID_50_ct0_st0235&#45;&gt;ID_50_ct0_st01235 -->
<g id="edge34" class="edge">
<title>ID_50_ct0_st0235&#45;&gt;ID_50_ct0_st01235</title>
<path fill="none" stroke="black" d="M1648.82,-67.41C1635.01,-66.28 1620.5,-66.14 1607,-68 1604.46,-68.35 1601.89,-68.76 1599.3,-69.21"/>
<polygon fill="black" stroke="black" points="1598.42,-65.81 1589.28,-71.17 1599.77,-72.68 1598.42,-65.81"/>
<text text-anchor="start" x="1607" y="-71.8" font-family="arial" font-size="14.00" fill="#377eb8">true</text>
</g>
<!-- ID_50_ct0_st0246 -->
<g id="node13" class="node">
<title>ID_50_ct0_st0246</title>
<polygon fill="none" stroke="black" points="2164,-123 2035,-123 2035,-73 2164,-73 2164,-123"/>
<text text-anchor="start" x="2043" y="-108.8" font-family="arial" font-weight="bold" font-size="14.00">ID_50_ct0_st0246</text>
<text text-anchor="start" x="2069" y="-94.8" font-family="arial" font-size="14.00" fill="#984ea3">(!P &amp;&amp; !R)</text>
<text text-anchor="start" x="2087.5" y="-80.8" font-family="arial" font-size="14.00" fill="#ff7f00">true</text>
</g>
<!-- ID_50_ct0_st0235&#45;&gt;ID_50_ct0_st0246 -->
<g id="edge31" class="edge">
<title>ID_50_ct0_st0235&#45;&gt;ID_50_ct0_st0246</title>
<path fill="none" stroke="black" d="M1778.2,-86.71C1797.39,-88.76 1818.53,-90.75 1838,-92 1900.85,-96.02 1972.38,-97.45 2024.57,-97.91"/>
<polygon fill="black" stroke="black" points="2024.71,-101.41 2034.74,-97.99 2024.77,-94.41 2024.71,-101.41"/>
<text text-anchor="start" x="1894.5" y="-101.8" font-family="arial" font-size="14.00" fill="#377eb8">true</text>
</g>
<!-- ID_50_ct0_st01246 -->
<g id="node14" class="node">
<title>ID_50_ct0_st01246</title>
<polygon fill="none" stroke="black" points="1975,-50 1838,-50 1838,0 1975,0 1975,-50"/>
<text text-anchor="start" x="1846" y="-35.8" font-family="arial" font-weight="bold" font-size="14.00">ID_50_ct0_st01246</text>
<text text-anchor="start" x="1877.5" y="-21.8" font-family="arial" font-size="14.00" fill="#984ea3">(P &amp;&amp; !R)</text>
<text text-anchor="start" x="1894.5" y="-7.8" font-family="arial" font-size="14.00" fill="#ff7f00">true</text>
</g>
<!-- ID_50_ct0_st0235&#45;&gt;ID_50_ct0_st01246 -->
<g id="edge33" class="edge">
<title>ID_50_ct0_st0235&#45;&gt;ID_50_ct0_st01246</title>
<path fill="none" stroke="black" d="M1778.1,-61.02C1794.16,-56.48 1811.57,-51.56 1828.22,-46.85"/>
<polygon fill="black" stroke="black" points="1829.25,-50.2 1837.92,-44.11 1827.34,-43.46 1829.25,-50.2"/>
<text text-anchor="start" x="1796" y="-59.8" font-family="arial" font-size="14.00" fill="#377eb8">true</text>
</g>
<!-- ID_50_ct0_st01235&#45;&gt;ID_50_ct0_st0235 -->
<g id="edge36" class="edge">
<title>ID_50_ct0_st01235&#45;&gt;ID_50_ct0_st0235</title>
<path fill="none" stroke="black" d="M1589.11,-87.4C1605.19,-86.3 1622.44,-85.13 1638.78,-84.02"/>
<polygon fill="black" stroke="black" points="1639.08,-87.51 1648.82,-83.33 1638.61,-80.52 1639.08,-87.51"/>
<text text-anchor="start" x="1607" y="-89.8" font-family="arial" font-size="14.00" fill="#377eb8">true</text>
</g>
<!-- ID_50_ct0_st01235&#45;&gt;ID_50_ct0_st01235 -->
<g id="edge38" class="edge">
<title>ID_50_ct0_st01235&#45;&gt;ID_50_ct0_st01235</title>
<path fill="none" stroke="black" d="M1502.2,-117.18C1501.38,-126.91 1507.48,-135 1520.5,-135 1528.63,-135 1534.07,-131.84 1536.8,-127.09"/>
<polygon fill="black" stroke="black" points="1540.26,-127.67 1538.8,-117.18 1533.39,-126.29 1540.26,-127.67"/>
<text text-anchor="start" x="1508.5" y="-138.8" font-family="arial" font-size="14.00" fill="#377eb8">true</text>
</g>
<!-- ID_50_ct0_st01235&#45;&gt;ID_50_ct0_st0246 -->
<g id="edge35" class="edge">
<title>ID_50_ct0_st01235&#45;&gt;ID_50_ct0_st0246</title>
<path fill="none" stroke="black" d="M1568.17,-117.09C1591.69,-128.34 1621.08,-140.33 1649,-146 1779.85,-172.57 1935.29,-142.63 2024.86,-119.55"/>
<polygon fill="black" stroke="black" points="2025.86,-122.9 2034.65,-116.99 2024.09,-116.13 2025.86,-122.9"/>
<text text-anchor="start" x="1796" y="-159.8" font-family="arial" font-size="14.00" fill="#377eb8">true</text>
</g>
<!-- ID_50_ct0_st01235&#45;&gt;ID_50_ct0_st01246 -->
<g id="edge37" class="edge">
<title>ID_50_ct0_st01235&#45;&gt;ID_50_ct0_st01246</title>
<path fill="none" stroke="black" d="M1578.71,-66.92C1582.21,-65.28 1585.66,-63.63 1589,-62 1616.16,-48.74 1619.75,-37.62 1649,-30 1707.59,-14.74 1776.28,-14.28 1827.83,-17.2"/>
<polygon fill="black" stroke="black" points="1827.7,-20.7 1837.9,-17.83 1828.14,-13.71 1827.7,-20.7"/>
<text text-anchor="start" x="1701.5" y="-33.8" font-family="arial" font-size="14.00" fill="#377eb8">true</text>
</g>
<!-- ID_50_ct0_st0246&#45;&gt;ID_50_ct0_st0246 -->
<g id="edge39" class="edge">
<title>ID_50_ct0_st0246&#45;&gt;ID_50_ct0_st0246</title>
<path fill="none" stroke="black" d="M2081.94,-123.18C2081.16,-132.91 2087.02,-141 2099.5,-141 2107.3,-141 2112.51,-137.84 2115.14,-133.09"/>
<polygon fill="black" stroke="black" points="2118.59,-133.66 2117.06,-123.18 2111.72,-132.33 2118.59,-133.66"/>
<text text-anchor="start" x="2087.5" y="-144.8" font-family="arial" font-size="14.00" fill="#377eb8">true</text>
</g>
<!-- ID_50_ct0_st0246&#45;&gt;ID_50_ct0_st01246 -->
<g id="edge40" class="edge">
<title>ID_50_ct0_st0246&#45;&gt;ID_50_ct0_st01246</title>
<path fill="none" stroke="black" d="M2065.56,-72.94C2051.3,-63.19 2034,-52.76 2017,-46 2006.95,-42 1996.07,-38.75 1985.19,-36.1"/>
<polygon fill="black" stroke="black" points="1985.77,-32.64 1975.24,-33.84 1984.22,-39.47 1985.77,-32.64"/>
<text text-anchor="start" x="1993" y="-49.8" font-family="arial" font-size="14.00" fill="#377eb8">true</text>
</g>
<!-- ID_50_ct0_st01246&#45;&gt;ID_50_ct0_st0246 -->
<g id="edge41" class="edge">
<title>ID_50_ct0_st01246&#45;&gt;ID_50_ct0_st0246</title>
<path fill="none" stroke="black" d="M1965.72,-50.07C1974.81,-53.83 1984.13,-57.58 1993,-61 2003.44,-65.02 2014.52,-69.11 2025.43,-73.03"/>
<polygon fill="black" stroke="black" points="2024.36,-76.36 2034.95,-76.42 2026.71,-69.77 2024.36,-76.36"/>
<text text-anchor="start" x="1993" y="-73.8" font-family="arial" font-size="14.00" fill="#377eb8">true</text>
</g>
<!-- ID_50_ct0_st01246&#45;&gt;ID_50_ct0_st01246 -->
<g id="edge42" class="edge">
<title>ID_50_ct0_st01246&#45;&gt;ID_50_ct0_st01246</title>
<path fill="none" stroke="black" d="M1888.2,-50.18C1887.38,-59.91 1893.48,-68 1906.5,-68 1914.63,-68 1920.07,-64.84 1922.8,-60.09"/>
<polygon fill="black" stroke="black" points="1926.26,-60.67 1924.8,-50.18 1919.39,-59.29 1926.26,-60.67"/>
<text text-anchor="start" x="1894.5" y="-71.8" font-family="arial" font-size="14.00" fill="#377eb8">true</text>
</g>
</g>
</svg>
