<?xml version="1.0" encoding="UTF-8" standalone="no"?>
<!DOCTYPE svg PUBLIC "-//W3C//DTD SVG 1.1//EN"
 "http://www.w3.org/Graphics/SVG/1.1/DTD/svg11.dtd">
<!-- Generated by graphviz version 2.43.0 (0)
 -->
<!-- Title: G Pages: 1 -->
<svg width="1083pt" height="310pt"
 viewBox="0.00 0.00 1083.00 310.00" xmlns="http://www.w3.org/2000/svg" xmlns:xlink="http://www.w3.org/1999/xlink">
<g id="graph0" class="graph" transform="scale(1 1) rotate(0) translate(4 306)">
<title>G</title>
<polygon fill="white" stroke="transparent" points="-4,4 -4,-306 1079,-306 1079,4 -4,4"/>
<!-- _ID_2_ct0_st -->
<!-- ID_2_ct0_st -->
<g id="node2" class="node">
<title>ID_2_ct0_st</title>
<polygon fill="none" stroke="black" points="1075,-195 983,-195 983,-145 1075,-145 1075,-195"/>
<text text-anchor="start" x="991" y="-180.8" font-family="arial" font-weight="bold" font-size="14.00">ID_2_ct0_st</text>
<text text-anchor="start" x="1017" y="-166.8" font-family="arial" font-size="14.00" fill="#984ea3">true</text>
<text text-anchor="start" x="1017" y="-152.8" font-family="arial" font-size="14.00" fill="#ff7f00">true</text>
</g>
<!-- _ID_2_ct0_st&#45;&gt;ID_2_ct0_st -->
<g id="edge1" class="edge">
<title>_ID_2_ct0_st&#45;&gt;ID_2_ct0_st</title>
<path fill="none" stroke="black" d="M925.13,-272.07C938.8,-267.23 953.2,-260.68 965,-252 982.33,-239.26 997.24,-220.48 1008.19,-204.11"/>
<polygon fill="black" stroke="black" points="1011.39,-205.62 1013.87,-195.32 1005.5,-201.82 1011.39,-205.62"/>
</g>
<!-- ID_2_ct0_st&#45;&gt;ID_2_ct0_st -->
<g id="edge4" class="edge">
<title>ID_2_ct0_st&#45;&gt;ID_2_ct0_st</title>
<path fill="none" stroke="black" d="M1015.93,-195.18C1015.35,-204.91 1019.7,-213 1029,-213 1034.81,-213 1038.69,-209.84 1040.64,-205.09"/>
<polygon fill="black" stroke="black" points="1044.11,-205.57 1042.07,-195.18 1037.18,-204.57 1044.11,-205.57"/>
<text text-anchor="start" x="1017" y="-216.8" font-family="arial" font-size="14.00" fill="#377eb8">true</text>
</g>
<!-- _ID_2_ct0_st0 -->
<!-- ID_2_ct0_st0 -->
<g id="node4" class="node">
<title>ID_2_ct0_st0</title>
<polygon fill="none" stroke="black" points="246,-50 147,-50 147,0 246,0 246,-50"/>
<text text-anchor="start" x="155" y="-35.8" font-family="arial" font-weight="bold" font-size="14.00">ID_2_ct0_st0</text>
<text text-anchor="start" x="166" y="-21.8" font-family="arial" font-size="14.00" fill="#984ea3">(!P &amp;&amp; !R)</text>
<text text-anchor="start" x="184.5" y="-7.8" font-family="arial" font-size="14.00" fill="#ff7f00">true</text>
</g>
<!-- _ID_2_ct0_st0&#45;&gt;ID_2_ct0_st0 -->
<g id="edge2" class="edge">
<title>_ID_2_ct0_st0&#45;&gt;ID_2_ct0_st0</title>
<path fill="none" stroke="black" d="M104.04,-25C114.57,-25 125.75,-25 136.53,-25"/>
<polygon fill="black" stroke="black" points="136.72,-28.5 146.72,-25 136.72,-21.5 136.72,-28.5"/>
</g>
<!-- ID_2_ct0_st0&#45;&gt;ID_2_ct0_st -->
<g id="edge5" class="edge">
<title>ID_2_ct0_st0&#45;&gt;ID_2_ct0_st</title>
<path fill="none" stroke="black" d="M246.22,-14.71C279.4,-8.59 324.4,-2 364.5,-2 364.5,-2 364.5,-2 878,-2 948.93,-2 994.66,-86.36 1015.28,-135.52"/>
<polygon fill="black" stroke="black" points="1012.07,-136.9 1019.07,-144.85 1018.55,-134.27 1012.07,-136.9"/>
<text text-anchor="start" x="609.5" y="-5.8" font-family="arial" font-size="14.00" fill="#377eb8">P&#39;</text>
</g>
<!-- ID_2_ct0_st0&#45;&gt;ID_2_ct0_st0 -->
<g id="edge6" class="edge">
<title>ID_2_ct0_st0&#45;&gt;ID_2_ct0_st0</title>
<path fill="none" stroke="black" d="M182.68,-50.18C182.06,-59.91 186.67,-68 196.5,-68 202.64,-68 206.75,-64.84 208.81,-60.09"/>
<polygon fill="black" stroke="black" points="212.27,-60.59 210.32,-50.18 205.35,-59.53 212.27,-60.59"/>
<text text-anchor="start" x="184.5" y="-71.8" font-family="arial" font-size="14.00" fill="#377eb8">true</text>
</g>
<!-- ID_2_ct0_st01 -->
<g id="node6" class="node">
<title>ID_2_ct0_st01</title>
<polygon fill="none" stroke="black" points="419,-166 312,-166 312,-116 419,-116 419,-166"/>
<text text-anchor="start" x="320" y="-151.8" font-family="arial" font-weight="bold" font-size="14.00">ID_2_ct0_st01</text>
<text text-anchor="start" x="336.5" y="-137.8" font-family="arial" font-size="14.00" fill="#984ea3">(!P &amp;&amp; R)</text>
<text text-anchor="start" x="353.5" y="-123.8" font-family="arial" font-size="14.00" fill="#ff7f00">true</text>
</g>
<!-- ID_2_ct0_st0&#45;&gt;ID_2_ct0_st01 -->
<g id="edge7" class="edge">
<title>ID_2_ct0_st0&#45;&gt;ID_2_ct0_st01</title>
<path fill="none" stroke="black" d="M233.74,-50.17C259.01,-67.73 292.9,-91.27 319.85,-109.99"/>
<polygon fill="black" stroke="black" points="318.12,-113.05 328.33,-115.88 322.12,-107.3 318.12,-113.05"/>
<text text-anchor="start" x="270" y="-92.8" font-family="arial" font-size="14.00" fill="#377eb8">true</text>
</g>
<!-- _ID_2_ct0_st01 -->
<!-- _ID_2_ct0_st01&#45;&gt;ID_2_ct0_st01 -->
<g id="edge3" class="edge">
<title>_ID_2_ct0_st01&#45;&gt;ID_2_ct0_st01</title>
<path fill="none" stroke="black" d="M252.18,-141C268.09,-141 285.6,-141 301.96,-141"/>
<polygon fill="black" stroke="black" points="301.97,-144.5 311.97,-141 301.97,-137.5 301.97,-144.5"/>
</g>
<!-- ID_2_ct0_st01&#45;&gt;ID_2_ct0_st -->
<g id="edge8" class="edge">
<title>ID_2_ct0_st01&#45;&gt;ID_2_ct0_st</title>
<path fill="none" stroke="black" d="M390.46,-166.23C420.47,-194.97 474.84,-238 531.5,-238 531.5,-238 531.5,-238 878,-238 917,-238 957.02,-218.7 985.9,-200.66"/>
<polygon fill="black" stroke="black" points="987.98,-203.48 994.5,-195.13 984.19,-197.6 987.98,-203.48"/>
<text text-anchor="start" x="696.5" y="-241.8" font-family="arial" font-size="14.00" fill="#377eb8">P&#39;</text>
</g>
<!-- ID_2_ct0_st01&#45;&gt;ID_2_ct0_st01 -->
<g id="edge10" class="edge">
<title>ID_2_ct0_st01&#45;&gt;ID_2_ct0_st01</title>
<path fill="none" stroke="black" d="M350.19,-166.18C349.5,-175.91 354.61,-184 365.5,-184 372.31,-184 376.85,-180.84 379.14,-176.09"/>
<polygon fill="black" stroke="black" points="382.6,-176.62 380.81,-166.18 375.7,-175.45 382.6,-176.62"/>
<text text-anchor="start" x="353.5" y="-187.8" font-family="arial" font-size="14.00" fill="#377eb8">true</text>
</g>
<!-- ID_2_ct0_st02 -->
<g id="node7" class="node">
<title>ID_2_ct0_st02</title>
<polygon fill="none" stroke="black" points="586,-166 479,-166 479,-116 586,-116 586,-166"/>
<text text-anchor="start" x="487" y="-151.8" font-family="arial" font-weight="bold" font-size="14.00">ID_2_ct0_st02</text>
<text text-anchor="start" x="502" y="-137.8" font-family="arial" font-size="14.00" fill="#984ea3">(!P &amp;&amp; !R)</text>
<text text-anchor="start" x="520.5" y="-123.8" font-family="arial" font-size="14.00" fill="#ff7f00">true</text>
</g>
<!-- ID_2_ct0_st01&#45;&gt;ID_2_ct0_st02 -->
<g id="edge9" class="edge">
<title>ID_2_ct0_st01&#45;&gt;ID_2_ct0_st02</title>
<path fill="none" stroke="black" d="M419.16,-141C434.94,-141 452.4,-141 468.76,-141"/>
<polygon fill="black" stroke="black" points="468.77,-144.5 478.77,-141 468.77,-137.5 468.77,-144.5"/>
<text text-anchor="start" x="437" y="-144.8" font-family="arial" font-size="14.00" fill="#377eb8">true</text>
</g>
<!-- ID_2_ct0_st02&#45;&gt;ID_2_ct0_st -->
<g id="edge11" class="edge">
<title>ID_2_ct0_st02&#45;&gt;ID_2_ct0_st</title>
<path fill="none" stroke="black" d="M586.07,-159.21C604.75,-164.81 626.09,-170.22 646,-173 761.28,-189.08 898.02,-181.7 972.63,-175.47"/>
<polygon fill="black" stroke="black" points="973.07,-178.95 982.73,-174.6 972.47,-171.97 973.07,-178.95"/>
<text text-anchor="start" x="783.5" y="-185.8" font-family="arial" font-size="14.00" fill="#377eb8">P&#39;</text>
</g>
<!-- ID_2_ct0_st02&#45;&gt;ID_2_ct0_st02 -->
<g id="edge12" class="edge">
<title>ID_2_ct0_st02&#45;&gt;ID_2_ct0_st02</title>
<path fill="none" stroke="black" d="M517.19,-166.18C516.5,-175.91 521.61,-184 532.5,-184 539.31,-184 543.85,-180.84 546.14,-176.09"/>
<polygon fill="black" stroke="black" points="549.6,-176.62 547.81,-166.18 542.7,-175.45 549.6,-176.62"/>
<text text-anchor="start" x="520.5" y="-187.8" font-family="arial" font-size="14.00" fill="#377eb8">true</text>
</g>
<!-- ID_2_ct0_st013 -->
<g id="node8" class="node">
<title>ID_2_ct0_st013</title>
<polygon fill="none" stroke="black" points="760,-131 646,-131 646,-81 760,-81 760,-131"/>
<text text-anchor="start" x="654" y="-116.8" font-family="arial" font-weight="bold" font-size="14.00">ID_2_ct0_st013</text>
<text text-anchor="start" x="674" y="-102.8" font-family="arial" font-size="14.00" fill="#984ea3">(!P &amp;&amp; R)</text>
<text text-anchor="start" x="691" y="-88.8" font-family="arial" font-size="14.00" fill="#ff7f00">true</text>
</g>
<!-- ID_2_ct0_st02&#45;&gt;ID_2_ct0_st013 -->
<g id="edge13" class="edge">
<title>ID_2_ct0_st02&#45;&gt;ID_2_ct0_st013</title>
<path fill="none" stroke="black" d="M586.35,-130.02C602.02,-126.77 619.37,-123.16 635.77,-119.76"/>
<polygon fill="black" stroke="black" points="636.76,-123.13 645.84,-117.67 635.33,-116.27 636.76,-123.13"/>
<text text-anchor="start" x="604" y="-128.8" font-family="arial" font-size="14.00" fill="#377eb8">true</text>
</g>
<!-- ID_2_ct0_st013&#45;&gt;ID_2_ct0_st -->
<g id="edge14" class="edge">
<title>ID_2_ct0_st013&#45;&gt;ID_2_ct0_st</title>
<path fill="none" stroke="black" d="M760.07,-117.07C819.65,-128.84 913.28,-147.34 972.6,-159.06"/>
<polygon fill="black" stroke="black" points="972.05,-162.52 982.54,-161.02 973.41,-155.65 972.05,-162.52"/>
<text text-anchor="start" x="870.5" y="-153.8" font-family="arial" font-size="14.00" fill="#377eb8">P&#39;</text>
</g>
<!-- ID_2_ct0_st013&#45;&gt;ID_2_ct0_st013 -->
<g id="edge16" class="edge">
<title>ID_2_ct0_st013&#45;&gt;ID_2_ct0_st013</title>
<path fill="none" stroke="black" d="M686.94,-131.18C686.22,-140.91 691.58,-149 703,-149 710.14,-149 714.91,-145.84 717.31,-141.09"/>
<polygon fill="black" stroke="black" points="720.76,-141.63 719.06,-131.18 713.87,-140.41 720.76,-141.63"/>
<text text-anchor="start" x="691" y="-152.8" font-family="arial" font-size="14.00" fill="#377eb8">true</text>
</g>
<!-- ID_2_ct0_st024 -->
<g id="node9" class="node">
<title>ID_2_ct0_st024</title>
<polygon fill="none" stroke="black" points="934,-80 820,-80 820,-30 934,-30 934,-80"/>
<text text-anchor="start" x="828" y="-65.8" font-family="arial" font-weight="bold" font-size="14.00">ID_2_ct0_st024</text>
<text text-anchor="start" x="846.5" y="-51.8" font-family="arial" font-size="14.00" fill="#984ea3">(!P &amp;&amp; !R)</text>
<text text-anchor="start" x="865" y="-37.8" font-family="arial" font-size="14.00" fill="#ff7f00">true</text>
</g>
<!-- ID_2_ct0_st013&#45;&gt;ID_2_ct0_st024 -->
<g id="edge15" class="edge">
<title>ID_2_ct0_st013&#45;&gt;ID_2_ct0_st024</title>
<path fill="none" stroke="black" d="M760.32,-89.3C776.14,-84.61 793.49,-79.47 809.83,-74.62"/>
<polygon fill="black" stroke="black" points="811.26,-77.85 819.85,-71.65 809.27,-71.14 811.26,-77.85"/>
<text text-anchor="start" x="778" y="-86.8" font-family="arial" font-size="14.00" fill="#377eb8">true</text>
</g>
<!-- ID_2_ct0_st024&#45;&gt;ID_2_ct0_st -->
<g id="edge17" class="edge">
<title>ID_2_ct0_st024&#45;&gt;ID_2_ct0_st</title>
<path fill="none" stroke="black" d="M912.05,-80.08C928.18,-92.06 947.67,-106.66 965,-120 972.64,-125.88 980.74,-132.23 988.49,-138.36"/>
<polygon fill="black" stroke="black" points="986.73,-141.42 996.74,-144.89 991.08,-135.94 986.73,-141.42"/>
<text text-anchor="start" x="952" y="-123.8" font-family="arial" font-size="14.00" fill="#377eb8">P&#39;</text>
</g>
<!-- ID_2_ct0_st024&#45;&gt;ID_2_ct0_st024 -->
<g id="edge18" class="edge">
<title>ID_2_ct0_st024&#45;&gt;ID_2_ct0_st024</title>
<path fill="none" stroke="black" d="M862.06,-80.18C861.39,-89.91 866.38,-98 877,-98 883.64,-98 888.08,-94.84 890.31,-90.09"/>
<polygon fill="black" stroke="black" points="893.77,-90.61 891.94,-80.18 886.86,-89.47 893.77,-90.61"/>
<text text-anchor="start" x="865" y="-101.8" font-family="arial" font-size="14.00" fill="#377eb8">true</text>
</g>
</g>
</svg>
