<?xml version="1.0" encoding="UTF-8" standalone="no"?>
<!DOCTYPE svg PUBLIC "-//W3C//DTD SVG 1.1//EN"
 "http://www.w3.org/Graphics/SVG/1.1/DTD/svg11.dtd">
<!-- Generated by graphviz version 2.43.0 (0)
 -->
<!-- Title: G Pages: 1 -->
<svg width="2082pt" height="255pt"
 viewBox="0.00 0.00 2082.00 255.00" xmlns="http://www.w3.org/2000/svg" xmlns:xlink="http://www.w3.org/1999/xlink">
<g id="graph0" class="graph" transform="scale(1 1) rotate(0) translate(4 251)">
<title>G</title>
<polygon fill="white" stroke="transparent" points="-4,4 -4,-251 2078,-251 2078,4 -4,4"/>
<!-- _ID_0_ct0_st0 -->
<!-- ID_0_ct0_st0 -->
<g id="node2" class="node">
<title>ID_0_ct0_st0</title>
<polygon fill="none" stroke="black" points="250,-214 151,-214 151,-164 250,-164 250,-214"/>
<text text-anchor="start" x="159" y="-199.8" font-family="arial" font-weight="bold" font-size="14.00">ID_0_ct0_st0</text>
<text text-anchor="start" x="194" y="-185.8" font-family="arial" font-size="14.00" fill="#984ea3">!P</text>
<text text-anchor="start" x="188.5" y="-171.8" font-family="arial" font-size="14.00" fill="#ff7f00">true</text>
</g>
<!-- _ID_0_ct0_st0&#45;&gt;ID_0_ct0_st0 -->
<g id="edge1" class="edge">
<title>_ID_0_ct0_st0&#45;&gt;ID_0_ct0_st0</title>
<path fill="none" stroke="black" d="M104.24,-189C116.1,-189 128.81,-189 140.96,-189"/>
<polygon fill="black" stroke="black" points="141,-192.5 151,-189 141,-185.5 141,-192.5"/>
</g>
<!-- ID_0_ct0_st0&#45;&gt;ID_0_ct0_st0 -->
<g id="edge4" class="edge">
<title>ID_0_ct0_st0&#45;&gt;ID_0_ct0_st0</title>
<path fill="none" stroke="black" d="M185.93,-214.18C185.28,-223.91 190.14,-232 200.5,-232 206.97,-232 211.3,-228.84 213.47,-224.09"/>
<polygon fill="black" stroke="black" points="216.94,-224.6 215.07,-214.18 210.03,-223.49 216.94,-224.6"/>
<text text-anchor="start" x="188.5" y="-235.8" font-family="arial" font-size="14.00" fill="#377eb8">true</text>
</g>
<!-- ID_0_ct0_st012 -->
<g id="node4" class="node">
<title>ID_0_ct0_st012</title>
<polygon fill="none" stroke="black" points="434,-122 320,-122 320,-72 434,-72 434,-122"/>
<text text-anchor="start" x="328" y="-107.8" font-family="arial" font-weight="bold" font-size="14.00">ID_0_ct0_st012</text>
<text text-anchor="start" x="348" y="-93.8" font-family="arial" font-size="14.00" fill="#984ea3">(P &amp;&amp; !R)</text>
<text text-anchor="start" x="365" y="-79.8" font-family="arial" font-size="14.00" fill="#ff7f00">true</text>
</g>
<!-- ID_0_ct0_st0&#45;&gt;ID_0_ct0_st012 -->
<g id="edge5" class="edge">
<title>ID_0_ct0_st0&#45;&gt;ID_0_ct0_st012</title>
<path fill="none" stroke="black" d="M249.18,-163.86C270.92,-152.4 296.81,-138.75 319.52,-126.78"/>
<polygon fill="black" stroke="black" points="321.16,-129.87 328.37,-122.11 317.9,-123.68 321.16,-129.87"/>
<text text-anchor="start" x="278" y="-152.8" font-family="arial" font-size="14.00" fill="#377eb8">true</text>
</g>
<!-- ID_0_ct0_st0123 -->
<g id="node6" class="node">
<title>ID_0_ct0_st0123</title>
<polygon fill="none" stroke="black" points="802,-181 680,-181 680,-131 802,-131 802,-181"/>
<text text-anchor="start" x="688" y="-166.8" font-family="arial" font-weight="bold" font-size="14.00">ID_0_ct0_st0123</text>
<text text-anchor="start" x="714" y="-152.8" font-family="arial" font-size="14.00" fill="#984ea3">(P &amp;&amp; R)</text>
<text text-anchor="start" x="729" y="-138.8" font-family="arial" font-size="14.00" fill="#ff7f00">true</text>
</g>
<!-- ID_0_ct0_st0&#45;&gt;ID_0_ct0_st0123 -->
<g id="edge6" class="edge">
<title>ID_0_ct0_st0&#45;&gt;ID_0_ct0_st0123</title>
<path fill="none" stroke="black" d="M250.2,-197.84C328.63,-210.62 487.53,-230.5 620,-209 643.49,-205.19 667.8,-195.66 688.34,-185.71"/>
<polygon fill="black" stroke="black" points="690.12,-188.74 697.5,-181.13 686.99,-182.47 690.12,-188.74"/>
<text text-anchor="start" x="452" y="-221.8" font-family="arial" font-size="14.00" fill="#377eb8">true</text>
</g>
<!-- _ID_0_ct0_st012 -->
<!-- _ID_0_ct0_st012&#45;&gt;ID_0_ct0_st012 -->
<g id="edge2" class="edge">
<title>_ID_0_ct0_st012&#45;&gt;ID_0_ct0_st012</title>
<path fill="none" stroke="black" d="M260.09,-97C276.08,-97 293.51,-97 309.89,-97"/>
<polygon fill="black" stroke="black" points="309.93,-100.5 319.93,-97 309.93,-93.5 309.93,-100.5"/>
</g>
<!-- ID_0_ct0_st012&#45;&gt;ID_0_ct0_st012 -->
<g id="edge13" class="edge">
<title>ID_0_ct0_st012&#45;&gt;ID_0_ct0_st012</title>
<path fill="none" stroke="black" d="M360.94,-122.18C360.22,-131.91 365.58,-140 377,-140 384.14,-140 388.91,-136.84 391.31,-132.09"/>
<polygon fill="black" stroke="black" points="394.76,-132.63 393.06,-122.18 387.87,-131.41 394.76,-132.63"/>
<text text-anchor="start" x="365" y="-143.8" font-family="arial" font-size="14.00" fill="#377eb8">true</text>
</g>
<!-- ID_0_ct0_st012&#45;&gt;ID_0_ct0_st0123 -->
<g id="edge14" class="edge">
<title>ID_0_ct0_st012&#45;&gt;ID_0_ct0_st0123</title>
<path fill="none" stroke="black" d="M403,-122.07C424.89,-142.1 458.63,-168.65 494,-180 551.46,-198.44 620.02,-189.38 670.15,-177.47"/>
<polygon fill="black" stroke="black" points="671.05,-180.85 679.92,-175.05 669.37,-174.05 671.05,-180.85"/>
<text text-anchor="start" x="545" y="-193.8" font-family="arial" font-size="14.00" fill="#377eb8">true</text>
</g>
<!-- ID_0_ct0_st02 -->
<g id="node7" class="node">
<title>ID_0_ct0_st02</title>
<polygon fill="none" stroke="black" points="610.5,-84 503.5,-84 503.5,-34 610.5,-34 610.5,-84"/>
<text text-anchor="start" x="511.5" y="-69.8" font-family="arial" font-weight="bold" font-size="14.00">ID_0_ct0_st02</text>
<text text-anchor="start" x="526.5" y="-55.8" font-family="arial" font-size="14.00" fill="#984ea3">(!P &amp;&amp; !R)</text>
<text text-anchor="start" x="545" y="-41.8" font-family="arial" font-size="14.00" fill="#ff7f00">true</text>
</g>
<!-- ID_0_ct0_st012&#45;&gt;ID_0_ct0_st02 -->
<g id="edge11" class="edge">
<title>ID_0_ct0_st012&#45;&gt;ID_0_ct0_st02</title>
<path fill="none" stroke="black" d="M417.29,-71.81C428.12,-66.14 440.16,-60.93 452,-58 465.06,-54.77 479.33,-53.5 492.99,-53.33"/>
<polygon fill="black" stroke="black" points="493.27,-56.84 503.3,-53.4 493.32,-49.84 493.27,-56.84"/>
<text text-anchor="start" x="452" y="-61.8" font-family="arial" font-size="14.00" fill="#377eb8">true</text>
</g>
<!-- ID_0_ct0_st023 -->
<g id="node8" class="node">
<title>ID_0_ct0_st023</title>
<polygon fill="none" stroke="black" points="976,-85 862,-85 862,-35 976,-35 976,-85"/>
<text text-anchor="start" x="870" y="-70.8" font-family="arial" font-weight="bold" font-size="14.00">ID_0_ct0_st023</text>
<text text-anchor="start" x="890" y="-56.8" font-family="arial" font-size="14.00" fill="#984ea3">(!P &amp;&amp; R)</text>
<text text-anchor="start" x="907" y="-42.8" font-family="arial" font-size="14.00" fill="#ff7f00">true</text>
</g>
<!-- ID_0_ct0_st012&#45;&gt;ID_0_ct0_st023 -->
<g id="edge12" class="edge">
<title>ID_0_ct0_st012&#45;&gt;ID_0_ct0_st023</title>
<path fill="none" stroke="black" d="M408.21,-71.64C430.38,-54.76 462.08,-34.08 494,-25 617.01,9.99 767.58,-18.36 852.16,-40.38"/>
<polygon fill="black" stroke="black" points="851.33,-43.78 861.89,-42.96 853.12,-37.01 851.33,-43.78"/>
<text text-anchor="start" x="638" y="-13.8" font-family="arial" font-size="14.00" fill="#377eb8">true</text>
</g>
<!-- _ID_0_ct0_st0123 -->
<!-- _ID_0_ct0_st0123&#45;&gt;ID_0_ct0_st0123 -->
<g id="edge3" class="edge">
<title>_ID_0_ct0_st0123&#45;&gt;ID_0_ct0_st0123</title>
<path fill="none" stroke="black" d="M620.13,-154.02C636.07,-154.29 653.34,-154.57 669.67,-154.84"/>
<polygon fill="black" stroke="black" points="669.64,-158.34 679.69,-155.01 669.75,-151.34 669.64,-158.34"/>
</g>
<!-- ID_0_ct0_st0123&#45;&gt;ID_0_ct0_st0123 -->
<g id="edge22" class="edge">
<title>ID_0_ct0_st0123&#45;&gt;ID_0_ct0_st0123</title>
<path fill="none" stroke="black" d="M724.19,-181.18C723.44,-190.91 729.05,-199 741,-199 748.47,-199 753.46,-195.84 755.97,-191.09"/>
<polygon fill="black" stroke="black" points="759.43,-191.65 757.81,-181.18 752.54,-190.37 759.43,-191.65"/>
<text text-anchor="start" x="729" y="-202.8" font-family="arial" font-size="14.00" fill="#377eb8">true</text>
</g>
<!-- ID_0_ct0_st0123&#45;&gt;ID_0_ct0_st023 -->
<g id="edge20" class="edge">
<title>ID_0_ct0_st0123&#45;&gt;ID_0_ct0_st023</title>
<path fill="none" stroke="black" d="M764.73,-130.78C779.24,-116.09 799.18,-98.28 820,-87 829.96,-81.6 841.09,-77.21 852.17,-73.67"/>
<polygon fill="black" stroke="black" points="853.29,-76.99 861.87,-70.77 851.29,-70.28 853.29,-76.99"/>
<text text-anchor="start" x="820" y="-90.8" font-family="arial" font-size="14.00" fill="#377eb8">true</text>
</g>
<!-- ID_0_ct0_st024 -->
<g id="node9" class="node">
<title>ID_0_ct0_st024</title>
<polygon fill="none" stroke="black" points="1332,-78 1218,-78 1218,-28 1332,-28 1332,-78"/>
<text text-anchor="start" x="1226" y="-63.8" font-family="arial" font-weight="bold" font-size="14.00">ID_0_ct0_st024</text>
<text text-anchor="start" x="1244.5" y="-49.8" font-family="arial" font-size="14.00" fill="#984ea3">(!P &amp;&amp; !R)</text>
<text text-anchor="start" x="1263" y="-35.8" font-family="arial" font-size="14.00" fill="#ff7f00">true</text>
</g>
<!-- ID_0_ct0_st0123&#45;&gt;ID_0_ct0_st024 -->
<g id="edge19" class="edge">
<title>ID_0_ct0_st0123&#45;&gt;ID_0_ct0_st024</title>
<path fill="none" stroke="black" d="M802.25,-179.12C886.36,-207.49 1041.73,-245.42 1158,-190 1196.22,-171.78 1190.59,-148.28 1218,-116 1226.45,-106.05 1235.8,-95.39 1244.41,-85.72"/>
<polygon fill="black" stroke="black" points="1247.07,-88 1251.12,-78.21 1241.85,-83.34 1247.07,-88"/>
<text text-anchor="start" x="994" y="-221.8" font-family="arial" font-size="14.00" fill="#377eb8">true</text>
</g>
<!-- ID_0_ct0_st0124 -->
<g id="node10" class="node">
<title>ID_0_ct0_st0124</title>
<polygon fill="none" stroke="black" points="1158,-148 1036,-148 1036,-98 1158,-98 1158,-148"/>
<text text-anchor="start" x="1044" y="-133.8" font-family="arial" font-weight="bold" font-size="14.00">ID_0_ct0_st0124</text>
<text text-anchor="start" x="1068" y="-119.8" font-family="arial" font-size="14.00" fill="#984ea3">(P &amp;&amp; !R)</text>
<text text-anchor="start" x="1085" y="-105.8" font-family="arial" font-size="14.00" fill="#ff7f00">true</text>
</g>
<!-- ID_0_ct0_st0123&#45;&gt;ID_0_ct0_st0124 -->
<g id="edge21" class="edge">
<title>ID_0_ct0_st0123&#45;&gt;ID_0_ct0_st0124</title>
<path fill="none" stroke="black" d="M802.05,-150.4C863.94,-144.63 960.34,-135.65 1025.73,-129.55"/>
<polygon fill="black" stroke="black" points="1026.32,-133.01 1035.95,-128.6 1025.67,-126.04 1026.32,-133.01"/>
<text text-anchor="start" x="907" y="-148.8" font-family="arial" font-size="14.00" fill="#377eb8">true</text>
</g>
<!-- ID_0_ct0_st02&#45;&gt;ID_0_ct0_st012 -->
<g id="edge9" class="edge">
<title>ID_0_ct0_st02&#45;&gt;ID_0_ct0_st012</title>
<path fill="none" stroke="black" d="M503.38,-70.23C484.87,-74.18 463.83,-78.68 444.35,-82.84"/>
<polygon fill="black" stroke="black" points="443.37,-79.47 434.32,-84.98 444.83,-86.31 443.37,-79.47"/>
<text text-anchor="start" x="452" y="-84.8" font-family="arial" font-size="14.00" fill="#377eb8">true</text>
</g>
<!-- ID_0_ct0_st02&#45;&gt;ID_0_ct0_st0123 -->
<g id="edge10" class="edge">
<title>ID_0_ct0_st02&#45;&gt;ID_0_ct0_st0123</title>
<path fill="none" stroke="black" d="M605.34,-84.23C629.36,-97.03 658.69,-112.66 683.84,-126.07"/>
<polygon fill="black" stroke="black" points="682.42,-129.28 692.89,-130.89 685.72,-123.1 682.42,-129.28"/>
<text text-anchor="start" x="638" y="-117.8" font-family="arial" font-size="14.00" fill="#377eb8">true</text>
</g>
<!-- ID_0_ct0_st02&#45;&gt;ID_0_ct0_st02 -->
<g id="edge7" class="edge">
<title>ID_0_ct0_st02&#45;&gt;ID_0_ct0_st02</title>
<path fill="none" stroke="black" d="M539.82,-84.18C539.05,-93.91 544.78,-102 557,-102 564.64,-102 569.74,-98.84 572.3,-94.09"/>
<polygon fill="black" stroke="black" points="575.76,-94.65 574.18,-84.18 568.88,-93.35 575.76,-94.65"/>
<text text-anchor="start" x="545" y="-105.8" font-family="arial" font-size="14.00" fill="#377eb8">true</text>
</g>
<!-- ID_0_ct0_st02&#45;&gt;ID_0_ct0_st023 -->
<g id="edge8" class="edge">
<title>ID_0_ct0_st02&#45;&gt;ID_0_ct0_st023</title>
<path fill="none" stroke="black" d="M610.73,-59.15C674.54,-59.32 782.04,-59.62 851.48,-59.82"/>
<polygon fill="black" stroke="black" points="851.85,-63.32 861.86,-59.84 851.87,-56.32 851.85,-63.32"/>
<text text-anchor="start" x="729" y="-63.8" font-family="arial" font-size="14.00" fill="#377eb8">true</text>
</g>
<!-- ID_0_ct0_st023&#45;&gt;ID_0_ct0_st0123 -->
<g id="edge18" class="edge">
<title>ID_0_ct0_st023&#45;&gt;ID_0_ct0_st0123</title>
<path fill="none" stroke="black" d="M879.26,-85.09C868.03,-92.1 855.64,-99.55 844,-106 831.46,-112.95 817.81,-119.99 804.7,-126.5"/>
<polygon fill="black" stroke="black" points="803.15,-123.36 795.72,-130.92 806.24,-129.64 803.15,-123.36"/>
<text text-anchor="start" x="820" y="-121.8" font-family="arial" font-size="14.00" fill="#377eb8">true</text>
</g>
<!-- ID_0_ct0_st023&#45;&gt;ID_0_ct0_st023 -->
<g id="edge16" class="edge">
<title>ID_0_ct0_st023&#45;&gt;ID_0_ct0_st023</title>
<path fill="none" stroke="black" d="M902.94,-85.18C902.22,-94.91 907.58,-103 919,-103 926.14,-103 930.91,-99.84 933.31,-95.09"/>
<polygon fill="black" stroke="black" points="936.76,-95.63 935.06,-85.18 929.87,-94.41 936.76,-95.63"/>
<text text-anchor="start" x="907" y="-106.8" font-family="arial" font-size="14.00" fill="#377eb8">true</text>
</g>
<!-- ID_0_ct0_st023&#45;&gt;ID_0_ct0_st024 -->
<g id="edge15" class="edge">
<title>ID_0_ct0_st023&#45;&gt;ID_0_ct0_st024</title>
<path fill="none" stroke="black" d="M976.09,-58.89C1038.92,-57.65 1140.68,-55.64 1207.47,-54.32"/>
<polygon fill="black" stroke="black" points="1207.95,-57.81 1217.88,-54.11 1207.81,-50.81 1207.95,-57.81"/>
<text text-anchor="start" x="1085" y="-61.8" font-family="arial" font-size="14.00" fill="#377eb8">true</text>
</g>
<!-- ID_0_ct0_st023&#45;&gt;ID_0_ct0_st0124 -->
<g id="edge17" class="edge">
<title>ID_0_ct0_st023&#45;&gt;ID_0_ct0_st0124</title>
<path fill="none" stroke="black" d="M976.17,-80.11C992.07,-85.8 1009.56,-92.06 1026.16,-98"/>
<polygon fill="black" stroke="black" points="1025.21,-101.38 1035.8,-101.45 1027.57,-94.79 1025.21,-101.38"/>
<text text-anchor="start" x="994" y="-97.8" font-family="arial" font-size="14.00" fill="#377eb8">true</text>
</g>
<!-- ID_0_ct0_st024&#45;&gt;ID_0_ct0_st024 -->
<g id="edge23" class="edge">
<title>ID_0_ct0_st024&#45;&gt;ID_0_ct0_st024</title>
<path fill="none" stroke="black" d="M1258.94,-78.18C1258.22,-87.91 1263.58,-96 1275,-96 1282.14,-96 1286.91,-92.84 1289.31,-88.09"/>
<polygon fill="black" stroke="black" points="1292.76,-88.63 1291.06,-78.18 1285.87,-87.41 1292.76,-88.63"/>
<text text-anchor="start" x="1263" y="-99.8" font-family="arial" font-size="14.00" fill="#377eb8">true</text>
</g>
<!-- ID_0_ct0_st024&#45;&gt;ID_0_ct0_st0124 -->
<g id="edge25" class="edge">
<title>ID_0_ct0_st024&#45;&gt;ID_0_ct0_st0124</title>
<path fill="none" stroke="black" d="M1217.79,-66.05C1203.91,-69.93 1189.24,-74.61 1176,-80 1166.76,-83.76 1157.23,-88.35 1148.13,-93.12"/>
<polygon fill="black" stroke="black" points="1146.36,-90.1 1139.21,-97.93 1149.67,-96.27 1146.36,-90.1"/>
<text text-anchor="start" x="1176" y="-83.8" font-family="arial" font-size="14.00" fill="#377eb8">true</text>
</g>
<!-- ID_0_ct0_st0235 -->
<g id="node11" class="node">
<title>ID_0_ct0_st0235</title>
<polygon fill="none" stroke="black" points="1703,-104 1581,-104 1581,-54 1703,-54 1703,-104"/>
<text text-anchor="start" x="1589" y="-89.8" font-family="arial" font-weight="bold" font-size="14.00">ID_0_ct0_st0235</text>
<text text-anchor="start" x="1613" y="-75.8" font-family="arial" font-size="14.00" fill="#984ea3">(!P &amp;&amp; R)</text>
<text text-anchor="start" x="1630" y="-61.8" font-family="arial" font-size="14.00" fill="#ff7f00">true</text>
</g>
<!-- ID_0_ct0_st024&#45;&gt;ID_0_ct0_st0235 -->
<g id="edge24" class="edge">
<title>ID_0_ct0_st024&#45;&gt;ID_0_ct0_st0235</title>
<path fill="none" stroke="black" d="M1332.26,-44.8C1382.12,-38.93 1456.77,-33.57 1521,-43 1537.4,-45.41 1554.66,-49.57 1570.83,-54.23"/>
<polygon fill="black" stroke="black" points="1570.15,-57.68 1580.73,-57.18 1572.15,-50.97 1570.15,-57.68"/>
<text text-anchor="start" x="1444.5" y="-46.8" font-family="arial" font-size="14.00" fill="#377eb8">true</text>
</g>
<!-- ID_0_ct0_st01235 -->
<g id="node12" class="node">
<title>ID_0_ct0_st01235</title>
<polygon fill="none" stroke="black" points="1521,-117 1392,-117 1392,-67 1521,-67 1521,-117"/>
<text text-anchor="start" x="1400" y="-102.8" font-family="arial" font-weight="bold" font-size="14.00">ID_0_ct0_st01235</text>
<text text-anchor="start" x="1429.5" y="-88.8" font-family="arial" font-size="14.00" fill="#984ea3">(P &amp;&amp; R)</text>
<text text-anchor="start" x="1444.5" y="-74.8" font-family="arial" font-size="14.00" fill="#ff7f00">true</text>
</g>
<!-- ID_0_ct0_st024&#45;&gt;ID_0_ct0_st01235 -->
<g id="edge26" class="edge">
<title>ID_0_ct0_st024&#45;&gt;ID_0_ct0_st01235</title>
<path fill="none" stroke="black" d="M1332.3,-65.23C1347.97,-68.64 1365.22,-72.39 1381.73,-75.97"/>
<polygon fill="black" stroke="black" points="1381.38,-79.48 1391.89,-78.18 1382.86,-72.64 1381.38,-79.48"/>
<text text-anchor="start" x="1350" y="-77.8" font-family="arial" font-size="14.00" fill="#377eb8">true</text>
</g>
<!-- ID_0_ct0_st0124&#45;&gt;ID_0_ct0_st024 -->
<g id="edge27" class="edge">
<title>ID_0_ct0_st0124&#45;&gt;ID_0_ct0_st024</title>
<path fill="none" stroke="black" d="M1158.16,-109.15C1172.12,-105.21 1186.76,-100.47 1200,-95 1208.23,-91.6 1216.69,-87.47 1224.82,-83.14"/>
<polygon fill="black" stroke="black" points="1226.73,-86.08 1233.82,-78.2 1223.37,-79.94 1226.73,-86.08"/>
<text text-anchor="start" x="1176" y="-107.8" font-family="arial" font-size="14.00" fill="#377eb8">true</text>
</g>
<!-- ID_0_ct0_st0124&#45;&gt;ID_0_ct0_st0124 -->
<g id="edge29" class="edge">
<title>ID_0_ct0_st0124&#45;&gt;ID_0_ct0_st0124</title>
<path fill="none" stroke="black" d="M1080.19,-148.18C1079.44,-157.91 1085.05,-166 1097,-166 1104.47,-166 1109.46,-162.84 1111.97,-158.09"/>
<polygon fill="black" stroke="black" points="1115.43,-158.65 1113.81,-148.18 1108.54,-157.37 1115.43,-158.65"/>
<text text-anchor="start" x="1085" y="-169.8" font-family="arial" font-size="14.00" fill="#377eb8">true</text>
</g>
<!-- ID_0_ct0_st0124&#45;&gt;ID_0_ct0_st0235 -->
<g id="edge28" class="edge">
<title>ID_0_ct0_st0124&#45;&gt;ID_0_ct0_st0235</title>
<path fill="none" stroke="black" d="M1158.31,-141.97C1241.73,-165.12 1396.14,-196.8 1521,-159 1552.37,-149.5 1583.04,-128.79 1605.52,-110.83"/>
<polygon fill="black" stroke="black" points="1607.9,-113.4 1613.42,-104.36 1603.47,-107.99 1607.9,-113.4"/>
<text text-anchor="start" x="1350" y="-179.8" font-family="arial" font-size="14.00" fill="#377eb8">true</text>
</g>
<!-- ID_0_ct0_st0124&#45;&gt;ID_0_ct0_st01235 -->
<g id="edge30" class="edge">
<title>ID_0_ct0_st0124&#45;&gt;ID_0_ct0_st01235</title>
<path fill="none" stroke="black" d="M1158.14,-123.23C1171.9,-123.22 1186.45,-123.15 1200,-123 1258.68,-122.33 1273.76,-127.19 1332,-120 1348.26,-117.99 1365.52,-114.78 1381.82,-111.24"/>
<polygon fill="black" stroke="black" points="1382.84,-114.59 1391.83,-108.99 1381.31,-107.76 1382.84,-114.59"/>
<text text-anchor="start" x="1263" y="-127.8" font-family="arial" font-size="14.00" fill="#377eb8">true</text>
</g>
<!-- ID_0_ct0_st0235&#45;&gt;ID_0_ct0_st0235 -->
<g id="edge32" class="edge">
<title>ID_0_ct0_st0235&#45;&gt;ID_0_ct0_st0235</title>
<path fill="none" stroke="black" d="M1625.19,-104.18C1624.44,-113.91 1630.05,-122 1642,-122 1649.47,-122 1654.46,-118.84 1656.97,-114.09"/>
<polygon fill="black" stroke="black" points="1660.43,-114.65 1658.81,-104.18 1653.54,-113.37 1660.43,-114.65"/>
<text text-anchor="start" x="1630" y="-125.8" font-family="arial" font-size="14.00" fill="#377eb8">true</text>
</g>
<!-- ID_0_ct0_st0235&#45;&gt;ID_0_ct0_st01235 -->
<g id="edge34" class="edge">
<title>ID_0_ct0_st0235&#45;&gt;ID_0_ct0_st01235</title>
<path fill="none" stroke="black" d="M1580.77,-67.49C1567.02,-66.26 1552.49,-66.06 1539,-68 1536.35,-68.38 1533.67,-68.83 1530.98,-69.33"/>
<polygon fill="black" stroke="black" points="1530.26,-65.91 1521.18,-71.37 1531.68,-72.76 1530.26,-65.91"/>
<text text-anchor="start" x="1539" y="-71.8" font-family="arial" font-size="14.00" fill="#377eb8">true</text>
</g>
<!-- ID_0_ct0_st0246 -->
<g id="node13" class="node">
<title>ID_0_ct0_st0246</title>
<polygon fill="none" stroke="black" points="2074,-123 1952,-123 1952,-73 2074,-73 2074,-123"/>
<text text-anchor="start" x="1960" y="-108.8" font-family="arial" font-weight="bold" font-size="14.00">ID_0_ct0_st0246</text>
<text text-anchor="start" x="1982.5" y="-94.8" font-family="arial" font-size="14.00" fill="#984ea3">(!P &amp;&amp; !R)</text>
<text text-anchor="start" x="2001" y="-80.8" font-family="arial" font-size="14.00" fill="#ff7f00">true</text>
</g>
<!-- ID_0_ct0_st0235&#45;&gt;ID_0_ct0_st0246 -->
<g id="edge31" class="edge">
<title>ID_0_ct0_st0235&#45;&gt;ID_0_ct0_st0246</title>
<path fill="none" stroke="black" d="M1703.04,-86.5C1722.17,-88.63 1743.45,-90.71 1763,-92 1823.25,-95.98 1891.85,-97.41 1941.77,-97.88"/>
<polygon fill="black" stroke="black" points="1941.78,-101.38 1951.81,-97.96 1941.84,-94.38 1941.78,-101.38"/>
<text text-anchor="start" x="1815.5" y="-101.8" font-family="arial" font-size="14.00" fill="#377eb8">true</text>
</g>
<!-- ID_0_ct0_st01246 -->
<g id="node14" class="node">
<title>ID_0_ct0_st01246</title>
<polygon fill="none" stroke="black" points="1892,-50 1763,-50 1763,0 1892,0 1892,-50"/>
<text text-anchor="start" x="1771" y="-35.8" font-family="arial" font-weight="bold" font-size="14.00">ID_0_ct0_st01246</text>
<text text-anchor="start" x="1798.5" y="-21.8" font-family="arial" font-size="14.00" fill="#984ea3">(P &amp;&amp; !R)</text>
<text text-anchor="start" x="1815.5" y="-7.8" font-family="arial" font-size="14.00" fill="#ff7f00">true</text>
</g>
<!-- ID_0_ct0_st0235&#45;&gt;ID_0_ct0_st01246 -->
<g id="edge33" class="edge">
<title>ID_0_ct0_st0235&#45;&gt;ID_0_ct0_st01246</title>
<path fill="none" stroke="black" d="M1703.08,-61.32C1719.07,-56.61 1736.53,-51.48 1753.14,-46.59"/>
<polygon fill="black" stroke="black" points="1754.2,-49.92 1762.81,-43.74 1752.23,-43.21 1754.2,-49.92"/>
<text text-anchor="start" x="1721" y="-59.8" font-family="arial" font-size="14.00" fill="#377eb8">true</text>
</g>
<!-- ID_0_ct0_st01235&#45;&gt;ID_0_ct0_st0235 -->
<g id="edge36" class="edge">
<title>ID_0_ct0_st01235&#45;&gt;ID_0_ct0_st0235</title>
<path fill="none" stroke="black" d="M1521.16,-87.49C1537.19,-86.35 1554.49,-85.13 1570.82,-83.97"/>
<polygon fill="black" stroke="black" points="1571.12,-87.46 1580.84,-83.26 1570.62,-80.48 1571.12,-87.46"/>
<text text-anchor="start" x="1539" y="-89.8" font-family="arial" font-size="14.00" fill="#377eb8">true</text>
</g>
<!-- ID_0_ct0_st01235&#45;&gt;ID_0_ct0_st01235 -->
<g id="edge38" class="edge">
<title>ID_0_ct0_st01235&#45;&gt;ID_0_ct0_st01235</title>
<path fill="none" stroke="black" d="M1438.94,-117.18C1438.16,-126.91 1444.02,-135 1456.5,-135 1464.3,-135 1469.51,-131.84 1472.14,-127.09"/>
<polygon fill="black" stroke="black" points="1475.59,-127.66 1474.06,-117.18 1468.72,-126.33 1475.59,-127.66"/>
<text text-anchor="start" x="1444.5" y="-138.8" font-family="arial" font-size="14.00" fill="#377eb8">true</text>
</g>
<!-- ID_0_ct0_st01235&#45;&gt;ID_0_ct0_st0246 -->
<g id="edge35" class="edge">
<title>ID_0_ct0_st01235&#45;&gt;ID_0_ct0_st0246</title>
<path fill="none" stroke="black" d="M1502.62,-117.09C1525.38,-128.33 1553.86,-140.33 1581,-146 1706.65,-172.27 1856.11,-142.26 1941.93,-119.28"/>
<polygon fill="black" stroke="black" points="1943.09,-122.59 1951.82,-116.58 1941.25,-115.83 1943.09,-122.59"/>
<text text-anchor="start" x="1721" y="-159.8" font-family="arial" font-size="14.00" fill="#377eb8">true</text>
</g>
<!-- ID_0_ct0_st01235&#45;&gt;ID_0_ct0_st01246 -->
<g id="edge37" class="edge">
<title>ID_0_ct0_st01235&#45;&gt;ID_0_ct0_st01246</title>
<path fill="none" stroke="black" d="M1510.95,-66.98C1514.36,-65.31 1517.73,-63.64 1521,-62 1548,-48.43 1551.76,-37.63 1581,-30 1637.23,-15.33 1703.18,-14.87 1752.55,-17.64"/>
<polygon fill="black" stroke="black" points="1752.63,-21.15 1762.83,-18.27 1753.07,-14.16 1752.63,-21.15"/>
<text text-anchor="start" x="1630" y="-33.8" font-family="arial" font-size="14.00" fill="#377eb8">true</text>
</g>
<!-- ID_0_ct0_st0246&#45;&gt;ID_0_ct0_st0246 -->
<g id="edge39" class="edge">
<title>ID_0_ct0_st0246&#45;&gt;ID_0_ct0_st0246</title>
<path fill="none" stroke="black" d="M1996.19,-123.18C1995.44,-132.91 2001.05,-141 2013,-141 2020.47,-141 2025.46,-137.84 2027.97,-133.09"/>
<polygon fill="black" stroke="black" points="2031.43,-133.65 2029.81,-123.18 2024.54,-132.37 2031.43,-133.65"/>
<text text-anchor="start" x="2001" y="-144.8" font-family="arial" font-size="14.00" fill="#377eb8">true</text>
</g>
<!-- ID_0_ct0_st0246&#45;&gt;ID_0_ct0_st01246 -->
<g id="edge40" class="edge">
<title>ID_0_ct0_st0246&#45;&gt;ID_0_ct0_st01246</title>
<path fill="none" stroke="black" d="M1980.6,-72.96C1966.97,-63.21 1950.39,-52.78 1934,-46 1923.96,-41.85 1913.03,-38.5 1902.14,-35.8"/>
<polygon fill="black" stroke="black" points="1902.7,-32.34 1892.17,-33.5 1901.13,-39.16 1902.7,-32.34"/>
<text text-anchor="start" x="1910" y="-49.8" font-family="arial" font-size="14.00" fill="#377eb8">true</text>
</g>
<!-- ID_0_ct0_st01246&#45;&gt;ID_0_ct0_st0246 -->
<g id="edge41" class="edge">
<title>ID_0_ct0_st01246&#45;&gt;ID_0_ct0_st0246</title>
<path fill="none" stroke="black" d="M1883.96,-50.1C1892.64,-53.85 1901.53,-57.6 1910,-61 1920.41,-65.18 1931.5,-69.42 1942.38,-73.46"/>
<polygon fill="black" stroke="black" points="1941.28,-76.79 1951.87,-76.96 1943.7,-70.22 1941.28,-76.79"/>
<text text-anchor="start" x="1910" y="-73.8" font-family="arial" font-size="14.00" fill="#377eb8">true</text>
</g>
<!-- ID_0_ct0_st01246&#45;&gt;ID_0_ct0_st01246 -->
<g id="edge42" class="edge">
<title>ID_0_ct0_st01246&#45;&gt;ID_0_ct0_st01246</title>
<path fill="none" stroke="black" d="M1809.94,-50.18C1809.16,-59.91 1815.02,-68 1827.5,-68 1835.3,-68 1840.51,-64.84 1843.14,-60.09"/>
<polygon fill="black" stroke="black" points="1846.59,-60.66 1845.06,-50.18 1839.72,-59.33 1846.59,-60.66"/>
<text text-anchor="start" x="1815.5" y="-71.8" font-family="arial" font-size="14.00" fill="#377eb8">true</text>
</g>
</g>
</svg>
