<?xml version="1.0" encoding="UTF-8" standalone="no"?>
<!DOCTYPE svg PUBLIC "-//W3C//DTD SVG 1.1//EN"
 "http://www.w3.org/Graphics/SVG/1.1/DTD/svg11.dtd">
<!-- Generated by graphviz version 2.43.0 (0)
 -->
<!-- Title: G Pages: 1 -->
<svg width="500pt" height="150pt"
 viewBox="0.00 0.00 500.00 150.00" xmlns="http://www.w3.org/2000/svg" xmlns:xlink="http://www.w3.org/1999/xlink">
<g id="graph0" class="graph" transform="scale(1 1) rotate(0) translate(4 146)">
<title>G</title>
<polygon fill="white" stroke="transparent" points="-4,4 -4,-146 496,-146 496,4 -4,4"/>
<!-- _ID_141_ct0_st0 -->
<!-- ID_141_ct0_st0 -->
<g id="node2" class="node">
<title>ID_141_ct0_st0</title>
<polygon fill="none" stroke="black" points="276,-109 162,-109 162,-59 276,-59 276,-109"/>
<text text-anchor="start" x="170" y="-94.8" font-family="arial" font-weight="bold" font-size="14.00">ID_141_ct0_st0</text>
<text text-anchor="start" x="212.5" y="-80.8" font-family="arial" font-size="14.00" fill="#984ea3">!P</text>
<text text-anchor="start" x="207" y="-66.8" font-family="arial" font-size="14.00" fill="#ff7f00">true</text>
</g>
<!-- _ID_141_ct0_st0&#45;&gt;ID_141_ct0_st0 -->
<g id="edge1" class="edge">
<title>_ID_141_ct0_st0&#45;&gt;ID_141_ct0_st0</title>
<path fill="none" stroke="black" d="M119.15,-84C129.75,-84 140.88,-84 151.68,-84"/>
<polygon fill="black" stroke="black" points="151.92,-87.5 161.92,-84 151.92,-80.5 151.92,-87.5"/>
</g>
<!-- ID_141_ct0_st0&#45;&gt;ID_141_ct0_st0 -->
<g id="edge3" class="edge">
<title>ID_141_ct0_st0&#45;&gt;ID_141_ct0_st0</title>
<path fill="none" stroke="black" d="M204.06,-109.18C203.39,-118.91 208.38,-127 219,-127 225.64,-127 230.08,-123.84 232.31,-119.09"/>
<polygon fill="black" stroke="black" points="235.77,-119.61 233.94,-109.18 228.86,-118.47 235.77,-119.61"/>
<text text-anchor="start" x="207" y="-130.8" font-family="arial" font-size="14.00" fill="#377eb8">true</text>
</g>
<!-- ID_141_ct0_st01 -->
<g id="node4" class="node">
<title>ID_141_ct0_st01</title>
<polygon fill="none" stroke="black" points="492,-76 370,-76 370,-26 492,-26 492,-76"/>
<text text-anchor="start" x="378" y="-61.8" font-family="arial" font-weight="bold" font-size="14.00">ID_141_ct0_st01</text>
<text text-anchor="start" x="386.5" y="-47.8" font-family="arial" font-size="14.00" fill="#984ea3">(P &amp;&amp; (Q || R))</text>
<text text-anchor="start" x="419" y="-33.8" font-family="arial" font-size="14.00" fill="#ff7f00">true</text>
</g>
<!-- ID_141_ct0_st0&#45;&gt;ID_141_ct0_st01 -->
<g id="edge4" class="edge">
<title>ID_141_ct0_st0&#45;&gt;ID_141_ct0_st01</title>
<path fill="none" stroke="black" d="M276.01,-77.72C299.54,-74.84 327.16,-71.14 352,-67 354.51,-66.58 357.05,-66.14 359.62,-65.68"/>
<polygon fill="black" stroke="black" points="360.41,-69.1 369.62,-63.85 359.15,-62.21 360.41,-69.1"/>
<text text-anchor="start" x="314" y="-78.8" font-family="arial" font-size="14.00" fill="#377eb8">true</text>
</g>
<!-- _ID_141_ct0_st01 -->
<!-- _ID_141_ct0_st01&#45;&gt;ID_141_ct0_st01 -->
<g id="edge2" class="edge">
<title>_ID_141_ct0_st01&#45;&gt;ID_141_ct0_st01</title>
<path fill="none" stroke="black" d="M282.02,-22.86C304.19,-25.05 329.3,-28.05 352,-32 354.52,-32.44 357.09,-32.91 359.67,-33.41"/>
<polygon fill="black" stroke="black" points="359.2,-36.89 369.7,-35.47 360.61,-30.03 359.2,-36.89"/>
</g>
<!-- ID_141_ct0_st01&#45;&gt;ID_141_ct0_st0 -->
<g id="edge5" class="edge">
<title>ID_141_ct0_st01&#45;&gt;ID_141_ct0_st0</title>
<path fill="none" stroke="black" d="M369.91,-43.8C347.73,-42.66 322.51,-43.17 300,-48 292.17,-49.68 284.17,-52.19 276.42,-55.12"/>
<polygon fill="black" stroke="black" points="275.07,-51.89 267.1,-58.87 277.69,-58.38 275.07,-51.89"/>
<text text-anchor="start" x="300" y="-51.8" font-family="arial" font-size="14.00" fill="#377eb8">(Q&#39; || R&#39;)</text>
</g>
<!-- ID_141_ct0_st01&#45;&gt;ID_141_ct0_st01 -->
<g id="edge6" class="edge">
<title>ID_141_ct0_st01&#45;&gt;ID_141_ct0_st01</title>
<path fill="none" stroke="black" d="M411.58,-76.18C410.71,-85.91 417.19,-94 431,-94 439.63,-94 445.4,-90.84 448.3,-86.09"/>
<polygon fill="black" stroke="black" points="451.75,-86.69 450.42,-76.18 444.91,-85.22 451.75,-86.69"/>
<text text-anchor="start" x="419" y="-97.8" font-family="arial" font-size="14.00" fill="#377eb8">true</text>
</g>
</g>
</svg>
