<?xml version="1.0" encoding="UTF-8" standalone="no"?>
<!DOCTYPE svg PUBLIC "-//W3C//DTD SVG 1.1//EN"
 "http://www.w3.org/Graphics/SVG/1.1/DTD/svg11.dtd">
<!-- Generated by graphviz version 2.43.0 (0)
 -->
<!-- Title: G Pages: 1 -->
<svg width="472pt" height="150pt"
 viewBox="0.00 0.00 472.00 150.00" xmlns="http://www.w3.org/2000/svg" xmlns:xlink="http://www.w3.org/1999/xlink">
<g id="graph0" class="graph" transform="scale(1 1) rotate(0) translate(4 146)">
<title>G</title>
<polygon fill="white" stroke="transparent" points="-4,4 -4,-146 468,-146 468,4 -4,4"/>
<!-- _ID_140_ct0_st0 -->
<!-- ID_140_ct0_st0 -->
<g id="node2" class="node">
<title>ID_140_ct0_st0</title>
<polygon fill="none" stroke="black" points="276,-109 162,-109 162,-59 276,-59 276,-109"/>
<text text-anchor="start" x="170" y="-94.8" font-family="arial" font-weight="bold" font-size="14.00">ID_140_ct0_st0</text>
<text text-anchor="start" x="212.5" y="-80.8" font-family="arial" font-size="14.00" fill="#984ea3">!P</text>
<text text-anchor="start" x="207" y="-66.8" font-family="arial" font-size="14.00" fill="#ff7f00">true</text>
</g>
<!-- _ID_140_ct0_st0&#45;&gt;ID_140_ct0_st0 -->
<g id="edge1" class="edge">
<title>_ID_140_ct0_st0&#45;&gt;ID_140_ct0_st0</title>
<path fill="none" stroke="black" d="M119.15,-84C129.75,-84 140.88,-84 151.68,-84"/>
<polygon fill="black" stroke="black" points="151.92,-87.5 161.92,-84 151.92,-80.5 151.92,-87.5"/>
</g>
<!-- ID_140_ct0_st0&#45;&gt;ID_140_ct0_st0 -->
<g id="edge3" class="edge">
<title>ID_140_ct0_st0&#45;&gt;ID_140_ct0_st0</title>
<path fill="none" stroke="black" d="M204.06,-109.18C203.39,-118.91 208.38,-127 219,-127 225.64,-127 230.08,-123.84 232.31,-119.09"/>
<polygon fill="black" stroke="black" points="235.77,-119.61 233.94,-109.18 228.86,-118.47 235.77,-119.61"/>
<text text-anchor="start" x="207" y="-130.8" font-family="arial" font-size="14.00" fill="#377eb8">true</text>
</g>
<!-- ID_140_ct0_st01 -->
<g id="node4" class="node">
<title>ID_140_ct0_st01</title>
<polygon fill="none" stroke="black" points="464,-76 342,-76 342,-26 464,-26 464,-76"/>
<text text-anchor="start" x="350" y="-61.8" font-family="arial" font-weight="bold" font-size="14.00">ID_140_ct0_st01</text>
<text text-anchor="start" x="376" y="-47.8" font-family="arial" font-size="14.00" fill="#984ea3">(P &amp;&amp; R)</text>
<text text-anchor="start" x="391" y="-33.8" font-family="arial" font-size="14.00" fill="#ff7f00">true</text>
</g>
<!-- ID_140_ct0_st0&#45;&gt;ID_140_ct0_st01 -->
<g id="edge4" class="edge">
<title>ID_140_ct0_st0&#45;&gt;ID_140_ct0_st01</title>
<path fill="none" stroke="black" d="M276.2,-75.24C291.71,-72.7 308.53,-69.85 324,-67 326.5,-66.54 329.04,-66.06 331.6,-65.58"/>
<polygon fill="black" stroke="black" points="332.43,-68.98 341.58,-63.64 331.1,-62.11 332.43,-68.98"/>
<text text-anchor="start" x="300" y="-75.8" font-family="arial" font-size="14.00" fill="#377eb8">true</text>
</g>
<!-- _ID_140_ct0_st01 -->
<!-- _ID_140_ct0_st01&#45;&gt;ID_140_ct0_st01 -->
<g id="edge2" class="edge">
<title>_ID_140_ct0_st01&#45;&gt;ID_140_ct0_st01</title>
<path fill="none" stroke="black" d="M282.04,-25.26C295.89,-27.19 310.48,-29.45 324,-32 326.52,-32.47 329.07,-32.98 331.65,-33.51"/>
<polygon fill="black" stroke="black" points="331.16,-36.98 341.67,-35.64 332.62,-30.13 331.16,-36.98"/>
</g>
<!-- ID_140_ct0_st01&#45;&gt;ID_140_ct0_st0 -->
<g id="edge5" class="edge">
<title>ID_140_ct0_st01&#45;&gt;ID_140_ct0_st0</title>
<path fill="none" stroke="black" d="M341.96,-44.46C328.07,-44.26 313.42,-45.12 300,-48 292.17,-49.68 284.17,-52.19 276.42,-55.12"/>
<polygon fill="black" stroke="black" points="275.07,-51.89 267.1,-58.87 277.69,-58.38 275.07,-51.89"/>
<text text-anchor="start" x="305.5" y="-51.8" font-family="arial" font-size="14.00" fill="#377eb8">R&#39;</text>
</g>
<!-- ID_140_ct0_st01&#45;&gt;ID_140_ct0_st01 -->
<g id="edge6" class="edge">
<title>ID_140_ct0_st01&#45;&gt;ID_140_ct0_st01</title>
<path fill="none" stroke="black" d="M386.19,-76.18C385.44,-85.91 391.05,-94 403,-94 410.47,-94 415.46,-90.84 417.97,-86.09"/>
<polygon fill="black" stroke="black" points="421.43,-86.65 419.81,-76.18 414.54,-85.37 421.43,-86.65"/>
<text text-anchor="start" x="391" y="-97.8" font-family="arial" font-size="14.00" fill="#377eb8">true</text>
</g>
</g>
</svg>
