<?xml version="1.0" encoding="UTF-8" standalone="no"?>
<!DOCTYPE svg PUBLIC "-//W3C//DTD SVG 1.1//EN"
 "http://www.w3.org/Graphics/SVG/1.1/DTD/svg11.dtd">
<!-- Generated by graphviz version 2.43.0 (0)
 -->
<!-- Title: G Pages: 1 -->
<svg width="1325pt" height="313pt"
 viewBox="0.00 0.00 1325.00 313.00" xmlns="http://www.w3.org/2000/svg" xmlns:xlink="http://www.w3.org/1999/xlink">
<g id="graph0" class="graph" transform="scale(1 1) rotate(0) translate(4 309)">
<title>G</title>
<polygon fill="white" stroke="transparent" points="-4,4 -4,-309 1321,-309 1321,4 -4,4"/>
<!-- _ID_143_ct0_st0 -->
<!-- ID_143_ct0_st0 -->
<g id="node2" class="node">
<title>ID_143_ct0_st0</title>
<polygon fill="none" stroke="black" points="276,-109 162,-109 162,-59 276,-59 276,-109"/>
<text text-anchor="start" x="170" y="-94.8" font-family="arial" font-weight="bold" font-size="14.00">ID_143_ct0_st0</text>
<text text-anchor="start" x="194.5" y="-80.8" font-family="arial" font-size="14.00" fill="#984ea3">(Q || !P)</text>
<text text-anchor="start" x="207" y="-66.8" font-family="arial" font-size="14.00" fill="#ff7f00">true</text>
</g>
<!-- _ID_143_ct0_st0&#45;&gt;ID_143_ct0_st0 -->
<g id="edge1" class="edge">
<title>_ID_143_ct0_st0&#45;&gt;ID_143_ct0_st0</title>
<path fill="none" stroke="black" d="M119.15,-84C129.75,-84 140.88,-84 151.68,-84"/>
<polygon fill="black" stroke="black" points="151.92,-87.5 161.92,-84 151.92,-80.5 151.92,-87.5"/>
</g>
<!-- ID_143_ct0_st0&#45;&gt;ID_143_ct0_st0 -->
<g id="edge4" class="edge">
<title>ID_143_ct0_st0&#45;&gt;ID_143_ct0_st0</title>
<path fill="none" stroke="black" d="M204.06,-109.18C203.39,-118.91 208.38,-127 219,-127 225.64,-127 230.08,-123.84 232.31,-119.09"/>
<polygon fill="black" stroke="black" points="235.77,-119.61 233.94,-109.18 228.86,-118.47 235.77,-119.61"/>
<text text-anchor="start" x="207" y="-130.8" font-family="arial" font-size="14.00" fill="#377eb8">true</text>
</g>
<!-- ID_143_ct0_st01 -->
<g id="node4" class="node">
<title>ID_143_ct0_st01</title>
<polygon fill="none" stroke="black" points="492,-160 370,-160 370,-110 492,-110 492,-160"/>
<text text-anchor="start" x="378" y="-145.8" font-family="arial" font-weight="bold" font-size="14.00">ID_143_ct0_st01</text>
<text text-anchor="start" x="379.5" y="-131.8" font-family="arial" font-size="14.00" fill="#984ea3">(P &amp;&amp; (!Q &amp;&amp; R))</text>
<text text-anchor="start" x="419" y="-117.8" font-family="arial" font-size="14.00" fill="#ff7f00">true</text>
</g>
<!-- ID_143_ct0_st0&#45;&gt;ID_143_ct0_st01 -->
<g id="edge5" class="edge">
<title>ID_143_ct0_st0&#45;&gt;ID_143_ct0_st01</title>
<path fill="none" stroke="black" d="M276.41,-105.88C284.27,-108.5 292.29,-110.97 300,-113 319.23,-118.07 340.37,-122.23 359.92,-125.52"/>
<polygon fill="black" stroke="black" points="359.55,-129 369.98,-127.15 360.67,-122.09 359.55,-129"/>
<text text-anchor="start" x="314" y="-126.8" font-family="arial" font-size="14.00" fill="#377eb8">true</text>
</g>
<!-- ID_143_ct0_st0123 -->
<g id="node6" class="node">
<title>ID_143_ct0_st0123</title>
<polygon fill="none" stroke="black" points="890,-135 753,-135 753,-85 890,-85 890,-135"/>
<text text-anchor="start" x="761" y="-120.8" font-family="arial" font-weight="bold" font-size="14.00">ID_143_ct0_st0123</text>
<text text-anchor="start" x="768" y="-106.8" font-family="arial" font-size="14.00" fill="#984ea3">(P &amp;&amp; (!Q &amp;&amp; !R))</text>
<text text-anchor="start" x="809.5" y="-92.8" font-family="arial" font-size="14.00" fill="#ff7f00">true</text>
</g>
<!-- ID_143_ct0_st0&#45;&gt;ID_143_ct0_st0123 -->
<g id="edge6" class="edge">
<title>ID_143_ct0_st0&#45;&gt;ID_143_ct0_st0123</title>
<path fill="none" stroke="black" d="M276.21,-81.39C299.64,-80.65 327.14,-80.23 352,-81 489.59,-85.25 649.58,-96.52 742.51,-103.69"/>
<polygon fill="black" stroke="black" points="742.43,-107.2 752.67,-104.48 742.97,-100.22 742.43,-107.2"/>
<text text-anchor="start" x="510" y="-92.8" font-family="arial" font-size="14.00" fill="#377eb8">true</text>
</g>
<!-- _ID_143_ct0_st01 -->
<!-- _ID_143_ct0_st01&#45;&gt;ID_143_ct0_st01 -->
<g id="edge2" class="edge">
<title>_ID_143_ct0_st01&#45;&gt;ID_143_ct0_st01</title>
<path fill="none" stroke="black" d="M282.26,-167.46C304.34,-163.52 329.33,-158.82 352,-154 354.51,-153.47 357.05,-152.91 359.62,-152.34"/>
<polygon fill="black" stroke="black" points="360.63,-155.7 369.61,-150.08 359.09,-148.88 360.63,-155.7"/>
</g>
<!-- ID_143_ct0_st01&#45;&gt;ID_143_ct0_st0 -->
<g id="edge7" class="edge">
<title>ID_143_ct0_st01&#45;&gt;ID_143_ct0_st0</title>
<path fill="none" stroke="black" d="M389.63,-109.79C377.9,-103.59 364.79,-97.68 352,-94 331.12,-88 307.66,-85.07 286.38,-83.76"/>
<polygon fill="black" stroke="black" points="286.29,-80.25 276.12,-83.24 285.93,-87.24 286.29,-80.25"/>
<text text-anchor="start" x="300" y="-97.8" font-family="arial" font-size="14.00" fill="#377eb8">(Q&#39; || R&#39;)</text>
</g>
<!-- ID_143_ct0_st01&#45;&gt;ID_143_ct0_st01 -->
<g id="edge9" class="edge">
<title>ID_143_ct0_st01&#45;&gt;ID_143_ct0_st01</title>
<path fill="none" stroke="black" d="M414.19,-160.18C413.44,-169.91 419.05,-178 431,-178 438.47,-178 443.46,-174.84 445.97,-170.09"/>
<polygon fill="black" stroke="black" points="449.43,-170.65 447.81,-160.18 442.54,-169.37 449.43,-170.65"/>
<text text-anchor="start" x="419" y="-181.8" font-family="arial" font-size="14.00" fill="#377eb8">true</text>
</g>
<!-- ID_143_ct0_st01&#45;&gt;ID_143_ct0_st0123 -->
<g id="edge10" class="edge">
<title>ID_143_ct0_st01&#45;&gt;ID_143_ct0_st0123</title>
<path fill="none" stroke="black" d="M492.28,-131.12C559.65,-126.79 668.96,-119.75 742.73,-115"/>
<polygon fill="black" stroke="black" points="743.14,-118.49 752.89,-114.35 742.69,-111.5 743.14,-118.49"/>
<text text-anchor="start" x="610.5" y="-129.8" font-family="arial" font-size="14.00" fill="#377eb8">true</text>
</g>
<!-- ID_143_ct0_st023 -->
<g id="node7" class="node">
<title>ID_143_ct0_st023</title>
<polygon fill="none" stroke="black" points="687,-221 558,-221 558,-171 687,-171 687,-221"/>
<text text-anchor="start" x="566" y="-206.8" font-family="arial" font-weight="bold" font-size="14.00">ID_143_ct0_st023</text>
<text text-anchor="start" x="567" y="-192.8" font-family="arial" font-size="14.00" fill="#984ea3">(!P &amp;&amp; (!Q &amp;&amp; !R))</text>
<text text-anchor="start" x="610.5" y="-178.8" font-family="arial" font-size="14.00" fill="#ff7f00">true</text>
</g>
<!-- ID_143_ct0_st01&#45;&gt;ID_143_ct0_st023 -->
<g id="edge8" class="edge">
<title>ID_143_ct0_st01&#45;&gt;ID_143_ct0_st023</title>
<path fill="none" stroke="black" d="M492.22,-154.38C510.03,-160.12 529.73,-166.46 548.27,-172.43"/>
<polygon fill="black" stroke="black" points="547.25,-175.77 557.84,-175.51 549.39,-169.11 547.25,-175.77"/>
<text text-anchor="start" x="510" y="-170.8" font-family="arial" font-size="14.00" fill="#377eb8">true</text>
</g>
<!-- _ID_143_ct0_st0123 -->
<!-- _ID_143_ct0_st0123&#45;&gt;ID_143_ct0_st0123 -->
<g id="edge3" class="edge">
<title>_ID_143_ct0_st0123&#45;&gt;ID_143_ct0_st0123</title>
<path fill="none" stroke="black" d="M693.22,-34.14C707.37,-38.48 721.92,-43.75 735,-50 751.28,-57.78 767.81,-68.57 781.95,-78.86"/>
<polygon fill="black" stroke="black" points="779.87,-81.67 789.98,-84.83 784.05,-76.06 779.87,-81.67"/>
</g>
<!-- ID_143_ct0_st0123&#45;&gt;ID_143_ct0_st0123 -->
<g id="edge25" class="edge">
<title>ID_143_ct0_st0123&#45;&gt;ID_143_ct0_st0123</title>
<path fill="none" stroke="black" d="M803.2,-135.18C802.38,-144.91 808.48,-153 821.5,-153 829.63,-153 835.07,-149.84 837.8,-145.09"/>
<polygon fill="black" stroke="black" points="841.26,-145.67 839.8,-135.18 834.39,-144.29 841.26,-145.67"/>
<text text-anchor="start" x="809.5" y="-156.8" font-family="arial" font-size="14.00" fill="#377eb8">true</text>
</g>
<!-- ID_143_ct0_st0123&#45;&gt;ID_143_ct0_st023 -->
<g id="edge23" class="edge">
<title>ID_143_ct0_st0123&#45;&gt;ID_143_ct0_st023</title>
<path fill="none" stroke="black" d="M752.79,-125.11C738.7,-129.2 724.15,-134.15 711,-140 695.58,-146.86 679.74,-156.18 665.85,-165.26"/>
<polygon fill="black" stroke="black" points="663.85,-162.39 657.47,-170.85 667.73,-168.21 663.85,-162.39"/>
<text text-anchor="start" x="711" y="-143.8" font-family="arial" font-size="14.00" fill="#377eb8">true</text>
</g>
<!-- ID_143_ct0_st03 -->
<g id="node8" class="node">
<title>ID_143_ct0_st03</title>
<polygon fill="none" stroke="black" points="1317,-168 1195,-168 1195,-118 1317,-118 1317,-168"/>
<text text-anchor="start" x="1203" y="-153.8" font-family="arial" font-weight="bold" font-size="14.00">ID_143_ct0_st03</text>
<text text-anchor="start" x="1224.5" y="-139.8" font-family="arial" font-size="14.00" fill="#984ea3">(!P &amp;&amp; !Q)</text>
<text text-anchor="start" x="1244" y="-125.8" font-family="arial" font-size="14.00" fill="#ff7f00">true</text>
</g>
<!-- ID_143_ct0_st0123&#45;&gt;ID_143_ct0_st03 -->
<g id="edge22" class="edge">
<title>ID_143_ct0_st0123&#45;&gt;ID_143_ct0_st03</title>
<path fill="none" stroke="black" d="M890.31,-111.63C961.8,-113.87 1077.6,-118.95 1177,-130 1179.51,-130.28 1182.06,-130.58 1184.63,-130.91"/>
<polygon fill="black" stroke="black" points="1184.24,-134.39 1194.62,-132.27 1185.19,-127.46 1184.24,-134.39"/>
<text text-anchor="start" x="1016.5" y="-125.8" font-family="arial" font-size="14.00" fill="#377eb8">(Q&#39; || R&#39;)</text>
</g>
<!-- ID_143_ct0_st013 -->
<g id="node9" class="node">
<title>ID_143_ct0_st013</title>
<polygon fill="none" stroke="black" points="1107,-206 978,-206 978,-156 1107,-156 1107,-206"/>
<text text-anchor="start" x="986" y="-191.8" font-family="arial" font-weight="bold" font-size="14.00">ID_143_ct0_st013</text>
<text text-anchor="start" x="991" y="-177.8" font-family="arial" font-size="14.00" fill="#984ea3">(P &amp;&amp; (!Q &amp;&amp; R))</text>
<text text-anchor="start" x="1030.5" y="-163.8" font-family="arial" font-size="14.00" fill="#ff7f00">true</text>
</g>
<!-- ID_143_ct0_st0123&#45;&gt;ID_143_ct0_st013 -->
<g id="edge24" class="edge">
<title>ID_143_ct0_st0123&#45;&gt;ID_143_ct0_st013</title>
<path fill="none" stroke="black" d="M859.4,-135C873.98,-143.83 891.24,-153.03 908,-159 926.93,-165.74 948.12,-170.43 967.94,-173.69"/>
<polygon fill="black" stroke="black" points="967.43,-177.15 977.85,-175.22 968.5,-170.23 967.43,-177.15"/>
<text text-anchor="start" x="922" y="-174.8" font-family="arial" font-size="14.00" fill="#377eb8">true</text>
</g>
<!-- ID_143_ct0_st023&#45;&gt;ID_143_ct0_st0123 -->
<g id="edge21" class="edge">
<title>ID_143_ct0_st023&#45;&gt;ID_143_ct0_st0123</title>
<path fill="none" stroke="black" d="M687.14,-177.32C703.01,-172 719.82,-165.78 735,-159 747.2,-153.55 759.91,-146.86 771.69,-140.2"/>
<polygon fill="black" stroke="black" points="773.57,-143.16 780.49,-135.14 770.07,-137.09 773.57,-143.16"/>
<text text-anchor="start" x="711" y="-171.8" font-family="arial" font-size="14.00" fill="#377eb8">true</text>
</g>
<!-- ID_143_ct0_st023&#45;&gt;ID_143_ct0_st023 -->
<g id="edge19" class="edge">
<title>ID_143_ct0_st023&#45;&gt;ID_143_ct0_st023</title>
<path fill="none" stroke="black" d="M603.82,-221.18C602.99,-230.91 609.22,-239 622.5,-239 630.8,-239 636.35,-235.84 639.13,-231.09"/>
<polygon fill="black" stroke="black" points="642.59,-231.68 641.18,-221.18 635.73,-230.26 642.59,-231.68"/>
<text text-anchor="start" x="610.5" y="-242.8" font-family="arial" font-size="14.00" fill="#377eb8">true</text>
</g>
<!-- ID_143_ct0_st023&#45;&gt;ID_143_ct0_st03 -->
<g id="edge18" class="edge">
<title>ID_143_ct0_st023&#45;&gt;ID_143_ct0_st03</title>
<path fill="none" stroke="black" d="M659.54,-221.02C684.51,-236.78 719.22,-255.67 753,-264 905.91,-301.71 958.8,-301.31 1107,-248 1150.9,-232.21 1193.53,-199.55 1221.67,-174.83"/>
<polygon fill="black" stroke="black" points="1224.09,-177.36 1229.22,-168.09 1219.43,-172.14 1224.09,-177.36"/>
<text text-anchor="start" x="908" y="-293.8" font-family="arial" font-size="14.00" fill="#377eb8">(Q&#39; || R&#39;)</text>
</g>
<!-- ID_143_ct0_st023&#45;&gt;ID_143_ct0_st013 -->
<g id="edge20" class="edge">
<title>ID_143_ct0_st023&#45;&gt;ID_143_ct0_st013</title>
<path fill="none" stroke="black" d="M687.14,-196.61C754.86,-196.85 865.1,-196.07 960,-190 962.55,-189.84 965.14,-189.65 967.76,-189.45"/>
<polygon fill="black" stroke="black" points="968.26,-192.92 977.93,-188.59 967.67,-185.95 968.26,-192.92"/>
<text text-anchor="start" x="809.5" y="-199.8" font-family="arial" font-size="14.00" fill="#377eb8">true</text>
</g>
<!-- ID_143_ct0_st03&#45;&gt;ID_143_ct0_st0123 -->
<g id="edge13" class="edge">
<title>ID_143_ct0_st03&#45;&gt;ID_143_ct0_st0123</title>
<path fill="none" stroke="black" d="M1217.06,-117.8C1204.61,-110.18 1190.51,-102.19 1177,-96 1147.23,-82.35 1139.34,-78.18 1107,-73 1050.39,-63.94 1034.94,-66.32 978,-73 952.21,-76.03 924.5,-81.78 899.71,-87.87"/>
<polygon fill="black" stroke="black" points="898.85,-84.48 890.01,-90.31 900.56,-91.27 898.85,-84.48"/>
<text text-anchor="start" x="1030.5" y="-76.8" font-family="arial" font-size="14.00" fill="#377eb8">true</text>
</g>
<!-- ID_143_ct0_st03&#45;&gt;ID_143_ct0_st03 -->
<g id="edge11" class="edge">
<title>ID_143_ct0_st03&#45;&gt;ID_143_ct0_st03</title>
<path fill="none" stroke="black" d="M1236.58,-168.18C1235.71,-177.91 1242.19,-186 1256,-186 1264.63,-186 1270.4,-182.84 1273.3,-178.09"/>
<polygon fill="black" stroke="black" points="1276.75,-178.69 1275.42,-168.18 1269.91,-177.22 1276.75,-178.69"/>
<text text-anchor="start" x="1244" y="-189.8" font-family="arial" font-size="14.00" fill="#377eb8">true</text>
</g>
<!-- ID_143_ct0_st03&#45;&gt;ID_143_ct0_st013 -->
<g id="edge12" class="edge">
<title>ID_143_ct0_st03&#45;&gt;ID_143_ct0_st013</title>
<path fill="none" stroke="black" d="M1194.58,-155.64C1188.64,-156.8 1182.71,-157.94 1177,-159 1157.63,-162.58 1136.62,-166.18 1117.12,-169.4"/>
<polygon fill="black" stroke="black" points="1116.38,-165.97 1107.08,-171.04 1117.52,-172.88 1116.38,-165.97"/>
<text text-anchor="start" x="1139" y="-170.8" font-family="arial" font-size="14.00" fill="#377eb8">true</text>
</g>
<!-- ID_143_ct0_st013&#45;&gt;ID_143_ct0_st0123 -->
<g id="edge17" class="edge">
<title>ID_143_ct0_st013&#45;&gt;ID_143_ct0_st0123</title>
<path fill="none" stroke="black" d="M989.91,-155.86C980.1,-151.58 969.83,-147.42 960,-144 940.82,-137.34 919.72,-131.44 899.92,-126.5"/>
<polygon fill="black" stroke="black" points="900.56,-123.05 890.01,-124.08 898.9,-129.85 900.56,-123.05"/>
<text text-anchor="start" x="922" y="-147.8" font-family="arial" font-size="14.00" fill="#377eb8">true</text>
</g>
<!-- ID_143_ct0_st013&#45;&gt;ID_143_ct0_st023 -->
<g id="edge15" class="edge">
<title>ID_143_ct0_st013&#45;&gt;ID_143_ct0_st023</title>
<path fill="none" stroke="black" d="M1003.16,-206.02C989.99,-213.42 974.82,-220.69 960,-225 853.74,-255.92 819.02,-249.07 711,-225 706.36,-223.97 701.62,-222.78 696.87,-221.5"/>
<polygon fill="black" stroke="black" points="697.69,-218.09 687.12,-218.73 695.78,-224.83 697.69,-218.09"/>
<text text-anchor="start" x="809.5" y="-248.8" font-family="arial" font-size="14.00" fill="#377eb8">true</text>
</g>
<!-- ID_143_ct0_st013&#45;&gt;ID_143_ct0_st03 -->
<g id="edge14" class="edge">
<title>ID_143_ct0_st013&#45;&gt;ID_143_ct0_st03</title>
<path fill="none" stroke="black" d="M1084.37,-155.79C1096.94,-149.34 1111.13,-143.29 1125,-140 1144.08,-135.47 1165.18,-134.36 1184.73,-134.87"/>
<polygon fill="black" stroke="black" points="1184.66,-138.37 1194.79,-135.28 1184.94,-131.38 1184.66,-138.37"/>
<text text-anchor="start" x="1125" y="-143.8" font-family="arial" font-size="14.00" fill="#377eb8">(Q&#39; || R&#39;)</text>
</g>
<!-- ID_143_ct0_st013&#45;&gt;ID_143_ct0_st013 -->
<g id="edge16" class="edge">
<title>ID_143_ct0_st013&#45;&gt;ID_143_ct0_st013</title>
<path fill="none" stroke="black" d="M1022.33,-206.18C1021.43,-215.91 1028.16,-224 1042.5,-224 1051.46,-224 1057.45,-220.84 1060.46,-216.09"/>
<polygon fill="black" stroke="black" points="1063.92,-216.7 1062.67,-206.18 1057.08,-215.18 1063.92,-216.7"/>
<text text-anchor="start" x="1030.5" y="-227.8" font-family="arial" font-size="14.00" fill="#377eb8">true</text>
</g>
</g>
</svg>
