<?xml version="1.0" encoding="UTF-8" standalone="no"?>
<!DOCTYPE svg PUBLIC "-//W3C//DTD SVG 1.1//EN"
 "http://www.w3.org/Graphics/SVG/1.1/DTD/svg11.dtd">
<!-- Generated by graphviz version 2.43.0 (0)
 -->
<!-- Title: G Pages: 1 -->
<svg width="1277pt" height="312pt"
 viewBox="0.00 0.00 1277.00 312.00" xmlns="http://www.w3.org/2000/svg" xmlns:xlink="http://www.w3.org/1999/xlink">
<g id="graph0" class="graph" transform="scale(1 1) rotate(0) translate(4 308)">
<title>G</title>
<polygon fill="white" stroke="transparent" points="-4,4 -4,-308 1273,-308 1273,4 -4,4"/>
<!-- _ID_18_ct0_st0 -->
<!-- ID_18_ct0_st0 -->
<g id="node2" class="node">
<title>ID_18_ct0_st0</title>
<polygon fill="none" stroke="black" points="261,-109 154,-109 154,-59 261,-59 261,-109"/>
<text text-anchor="start" x="162" y="-94.8" font-family="arial" font-weight="bold" font-size="14.00">ID_18_ct0_st0</text>
<text text-anchor="start" x="183" y="-80.8" font-family="arial" font-size="14.00" fill="#984ea3">(Q || !P)</text>
<text text-anchor="start" x="195.5" y="-66.8" font-family="arial" font-size="14.00" fill="#ff7f00">true</text>
</g>
<!-- _ID_18_ct0_st0&#45;&gt;ID_18_ct0_st0 -->
<g id="edge1" class="edge">
<title>_ID_18_ct0_st0&#45;&gt;ID_18_ct0_st0</title>
<path fill="none" stroke="black" d="M111.08,-84C121.62,-84 132.74,-84 143.52,-84"/>
<polygon fill="black" stroke="black" points="143.72,-87.5 153.72,-84 143.72,-80.5 143.72,-87.5"/>
</g>
<!-- ID_18_ct0_st0&#45;&gt;ID_18_ct0_st0 -->
<g id="edge4" class="edge">
<title>ID_18_ct0_st0&#45;&gt;ID_18_ct0_st0</title>
<path fill="none" stroke="black" d="M192.93,-109.18C192.28,-118.91 197.14,-127 207.5,-127 213.97,-127 218.3,-123.84 220.47,-119.09"/>
<polygon fill="black" stroke="black" points="223.94,-119.6 222.07,-109.18 217.03,-118.49 223.94,-119.6"/>
<text text-anchor="start" x="195.5" y="-130.8" font-family="arial" font-size="14.00" fill="#377eb8">true</text>
</g>
<!-- ID_18_ct0_st01 -->
<g id="node4" class="node">
<title>ID_18_ct0_st01</title>
<polygon fill="none" stroke="black" points="474,-160 355,-160 355,-110 474,-110 474,-160"/>
<text text-anchor="start" x="365.5" y="-145.8" font-family="arial" font-weight="bold" font-size="14.00">ID_18_ct0_st01</text>
<text text-anchor="start" x="363" y="-131.8" font-family="arial" font-size="14.00" fill="#984ea3">(P &amp;&amp; (!Q &amp;&amp; R))</text>
<text text-anchor="start" x="402.5" y="-117.8" font-family="arial" font-size="14.00" fill="#ff7f00">true</text>
</g>
<!-- ID_18_ct0_st0&#45;&gt;ID_18_ct0_st01 -->
<g id="edge5" class="edge">
<title>ID_18_ct0_st0&#45;&gt;ID_18_ct0_st01</title>
<path fill="none" stroke="black" d="M261.15,-105.47C269.06,-108.25 277.19,-110.87 285,-113 304.15,-118.22 325.27,-122.44 344.75,-125.74"/>
<polygon fill="black" stroke="black" points="344.33,-129.22 354.77,-127.38 345.47,-122.31 344.33,-129.22"/>
<text text-anchor="start" x="299" y="-126.8" font-family="arial" font-size="14.00" fill="#377eb8">true</text>
</g>
<!-- ID_18_ct0_st0123 -->
<g id="node6" class="node">
<title>ID_18_ct0_st0123</title>
<polygon fill="none" stroke="black" points="857,-135 728,-135 728,-85 857,-85 857,-135"/>
<text text-anchor="start" x="736" y="-120.8" font-family="arial" font-weight="bold" font-size="14.00">ID_18_ct0_st0123</text>
<text text-anchor="start" x="739" y="-106.8" font-family="arial" font-size="14.00" fill="#984ea3">(P &amp;&amp; (!Q &amp;&amp; !R))</text>
<text text-anchor="start" x="780.5" y="-92.8" font-family="arial" font-size="14.00" fill="#ff7f00">true</text>
</g>
<!-- ID_18_ct0_st0&#45;&gt;ID_18_ct0_st0123 -->
<g id="edge6" class="edge">
<title>ID_18_ct0_st0&#45;&gt;ID_18_ct0_st0123</title>
<path fill="none" stroke="black" d="M261.02,-81.46C284.3,-80.68 312.02,-80.2 337,-81 471.5,-85.29 628.04,-96.69 717.87,-103.85"/>
<polygon fill="black" stroke="black" points="717.71,-107.35 727.96,-104.66 718.27,-100.37 717.71,-107.35"/>
<text text-anchor="start" x="492" y="-92.8" font-family="arial" font-size="14.00" fill="#377eb8">true</text>
</g>
<!-- _ID_18_ct0_st01 -->
<!-- _ID_18_ct0_st01&#45;&gt;ID_18_ct0_st01 -->
<g id="edge2" class="edge">
<title>_ID_18_ct0_st01&#45;&gt;ID_18_ct0_st01</title>
<path fill="none" stroke="black" d="M267.18,-167.79C289.14,-163.77 314.27,-158.94 337,-154 339.61,-153.43 342.26,-152.84 344.93,-152.24"/>
<polygon fill="black" stroke="black" points="345.74,-155.64 354.69,-149.98 344.16,-148.82 345.74,-155.64"/>
</g>
<!-- ID_18_ct0_st01&#45;&gt;ID_18_ct0_st0 -->
<g id="edge7" class="edge">
<title>ID_18_ct0_st01&#45;&gt;ID_18_ct0_st0</title>
<path fill="none" stroke="black" d="M373.95,-109.8C362.45,-103.6 349.58,-97.68 337,-94 316.15,-87.89 292.62,-84.98 271.46,-83.72"/>
<polygon fill="black" stroke="black" points="271.43,-80.21 261.28,-83.22 271.1,-87.21 271.43,-80.21"/>
<text text-anchor="start" x="285" y="-97.8" font-family="arial" font-size="14.00" fill="#377eb8">(Q&#39; || R&#39;)</text>
</g>
<!-- ID_18_ct0_st01&#45;&gt;ID_18_ct0_st01 -->
<g id="edge9" class="edge">
<title>ID_18_ct0_st01&#45;&gt;ID_18_ct0_st01</title>
<path fill="none" stroke="black" d="M398.06,-160.18C397.33,-169.91 402.81,-178 414.5,-178 421.8,-178 426.68,-174.84 429.14,-170.09"/>
<polygon fill="black" stroke="black" points="432.6,-170.64 430.94,-160.18 425.71,-169.39 432.6,-170.64"/>
<text text-anchor="start" x="402.5" y="-181.8" font-family="arial" font-size="14.00" fill="#377eb8">true</text>
</g>
<!-- ID_18_ct0_st01&#45;&gt;ID_18_ct0_st0123 -->
<g id="edge10" class="edge">
<title>ID_18_ct0_st01&#45;&gt;ID_18_ct0_st0123</title>
<path fill="none" stroke="black" d="M474.25,-131.09C539.9,-126.73 646.32,-119.65 717.57,-114.92"/>
<polygon fill="black" stroke="black" points="718.08,-118.39 727.82,-114.23 717.61,-111.41 718.08,-118.39"/>
<text text-anchor="start" x="589" y="-129.8" font-family="arial" font-size="14.00" fill="#377eb8">true</text>
</g>
<!-- ID_18_ct0_st023 -->
<g id="node7" class="node">
<title>ID_18_ct0_st023</title>
<polygon fill="none" stroke="black" points="664.5,-221 537.5,-221 537.5,-171 664.5,-171 664.5,-221"/>
<text text-anchor="start" x="548" y="-206.8" font-family="arial" font-weight="bold" font-size="14.00">ID_18_ct0_st023</text>
<text text-anchor="start" x="545.5" y="-192.8" font-family="arial" font-size="14.00" fill="#984ea3">(!P &amp;&amp; (!Q &amp;&amp; !R))</text>
<text text-anchor="start" x="589" y="-178.8" font-family="arial" font-size="14.00" fill="#ff7f00">true</text>
</g>
<!-- ID_18_ct0_st01&#45;&gt;ID_18_ct0_st023 -->
<g id="edge8" class="edge">
<title>ID_18_ct0_st01&#45;&gt;ID_18_ct0_st023</title>
<path fill="none" stroke="black" d="M474.13,-154.38C491.14,-160.01 509.91,-166.21 527.64,-172.08"/>
<polygon fill="black" stroke="black" points="526.78,-175.48 537.38,-175.3 528.98,-168.83 526.78,-175.48"/>
<text text-anchor="start" x="492" y="-170.8" font-family="arial" font-size="14.00" fill="#377eb8">true</text>
</g>
<!-- _ID_18_ct0_st0123 -->
<!-- _ID_18_ct0_st0123&#45;&gt;ID_18_ct0_st0123 -->
<g id="edge3" class="edge">
<title>_ID_18_ct0_st0123&#45;&gt;ID_18_ct0_st0123</title>
<path fill="none" stroke="black" d="M668.21,-33.67C682.35,-38.09 696.95,-43.51 710,-50 725.5,-57.71 741.15,-68.37 754.53,-78.58"/>
<polygon fill="black" stroke="black" points="752.51,-81.44 762.55,-84.84 756.82,-75.92 752.51,-81.44"/>
</g>
<!-- ID_18_ct0_st0123&#45;&gt;ID_18_ct0_st0123 -->
<g id="edge25" class="edge">
<title>ID_18_ct0_st0123&#45;&gt;ID_18_ct0_st0123</title>
<path fill="none" stroke="black" d="M774.94,-135.18C774.16,-144.91 780.02,-153 792.5,-153 800.3,-153 805.51,-149.84 808.14,-145.09"/>
<polygon fill="black" stroke="black" points="811.59,-145.66 810.06,-135.18 804.72,-144.33 811.59,-145.66"/>
<text text-anchor="start" x="780.5" y="-156.8" font-family="arial" font-size="14.00" fill="#377eb8">true</text>
</g>
<!-- ID_18_ct0_st0123&#45;&gt;ID_18_ct0_st023 -->
<g id="edge23" class="edge">
<title>ID_18_ct0_st0123&#45;&gt;ID_18_ct0_st023</title>
<path fill="none" stroke="black" d="M727.86,-124.64C713.78,-128.83 699.14,-133.93 686,-140 671.25,-146.81 656.17,-156.03 642.93,-165.02"/>
<polygon fill="black" stroke="black" points="640.73,-162.29 634.52,-170.87 644.73,-168.04 640.73,-162.29"/>
<text text-anchor="start" x="686" y="-143.8" font-family="arial" font-size="14.00" fill="#377eb8">true</text>
</g>
<!-- ID_18_ct0_st03 -->
<g id="node8" class="node">
<title>ID_18_ct0_st03</title>
<polygon fill="none" stroke="black" points="1269,-168 1155,-168 1155,-118 1269,-118 1269,-168"/>
<text text-anchor="start" x="1163" y="-153.8" font-family="arial" font-weight="bold" font-size="14.00">ID_18_ct0_st03</text>
<text text-anchor="start" x="1180.5" y="-139.8" font-family="arial" font-size="14.00" fill="#984ea3">(!P &amp;&amp; !Q)</text>
<text text-anchor="start" x="1200" y="-125.8" font-family="arial" font-size="14.00" fill="#ff7f00">true</text>
</g>
<!-- ID_18_ct0_st0123&#45;&gt;ID_18_ct0_st03 -->
<g id="edge22" class="edge">
<title>ID_18_ct0_st0123&#45;&gt;ID_18_ct0_st03</title>
<path fill="none" stroke="black" d="M857,-111.5C926.09,-113.64 1039.69,-118.66 1137,-130 1139.55,-130.3 1142.15,-130.63 1144.77,-130.98"/>
<polygon fill="black" stroke="black" points="1144.54,-134.48 1154.94,-132.45 1145.54,-127.55 1144.54,-134.48"/>
<text text-anchor="start" x="980" y="-125.8" font-family="arial" font-size="14.00" fill="#377eb8">(Q&#39; || R&#39;)</text>
</g>
<!-- ID_18_ct0_st013 -->
<g id="node9" class="node">
<title>ID_18_ct0_st013</title>
<polygon fill="none" stroke="black" points="1067,-206 945,-206 945,-156 1067,-156 1067,-206"/>
<text text-anchor="start" x="953" y="-191.8" font-family="arial" font-weight="bold" font-size="14.00">ID_18_ct0_st013</text>
<text text-anchor="start" x="954.5" y="-177.8" font-family="arial" font-size="14.00" fill="#984ea3">(P &amp;&amp; (!Q &amp;&amp; R))</text>
<text text-anchor="start" x="994" y="-163.8" font-family="arial" font-size="14.00" fill="#ff7f00">true</text>
</g>
<!-- ID_18_ct0_st0123&#45;&gt;ID_18_ct0_st013 -->
<g id="edge24" class="edge">
<title>ID_18_ct0_st0123&#45;&gt;ID_18_ct0_st013</title>
<path fill="none" stroke="black" d="M828.55,-135.01C842.43,-143.84 858.9,-153.04 875,-159 893.92,-166 915.21,-170.79 935.01,-174.06"/>
<polygon fill="black" stroke="black" points="934.48,-177.52 944.89,-175.59 935.55,-170.6 934.48,-177.52"/>
<text text-anchor="start" x="889" y="-175.8" font-family="arial" font-size="14.00" fill="#377eb8">true</text>
</g>
<!-- ID_18_ct0_st023&#45;&gt;ID_18_ct0_st0123 -->
<g id="edge21" class="edge">
<title>ID_18_ct0_st023&#45;&gt;ID_18_ct0_st0123</title>
<path fill="none" stroke="black" d="M664.57,-177.07C679.69,-171.81 695.63,-165.69 710,-159 721.57,-153.61 733.59,-147.01 744.73,-140.41"/>
<polygon fill="black" stroke="black" points="746.7,-143.32 753.45,-135.15 743.08,-137.32 746.7,-143.32"/>
<text text-anchor="start" x="686" y="-171.8" font-family="arial" font-size="14.00" fill="#377eb8">true</text>
</g>
<!-- ID_18_ct0_st023&#45;&gt;ID_18_ct0_st023 -->
<g id="edge19" class="edge">
<title>ID_18_ct0_st023&#45;&gt;ID_18_ct0_st023</title>
<path fill="none" stroke="black" d="M583.07,-221.18C582.27,-230.91 588.25,-239 601,-239 608.97,-239 614.29,-235.84 616.97,-231.09"/>
<polygon fill="black" stroke="black" points="620.42,-231.66 618.93,-221.18 613.56,-230.31 620.42,-231.66"/>
<text text-anchor="start" x="589" y="-242.8" font-family="arial" font-size="14.00" fill="#377eb8">true</text>
</g>
<!-- ID_18_ct0_st023&#45;&gt;ID_18_ct0_st03 -->
<g id="edge18" class="edge">
<title>ID_18_ct0_st023&#45;&gt;ID_18_ct0_st03</title>
<path fill="none" stroke="black" d="M636.96,-221.01C661.22,-236.77 694.98,-255.66 728,-264 874.24,-300.94 925.47,-300.15 1067,-248 1109.81,-232.23 1151.07,-199.79 1178.37,-175.12"/>
<polygon fill="black" stroke="black" points="1181.05,-177.41 1186.04,-168.06 1176.31,-172.26 1181.05,-177.41"/>
<text text-anchor="start" x="875" y="-292.8" font-family="arial" font-size="14.00" fill="#377eb8">(Q&#39; || R&#39;)</text>
</g>
<!-- ID_18_ct0_st023&#45;&gt;ID_18_ct0_st013 -->
<g id="edge20" class="edge">
<title>ID_18_ct0_st023&#45;&gt;ID_18_ct0_st013</title>
<path fill="none" stroke="black" d="M664.7,-197.12C730.22,-197.79 835.96,-197.52 927,-191 929.5,-190.82 932.05,-190.62 934.62,-190.39"/>
<polygon fill="black" stroke="black" points="934.98,-193.87 944.6,-189.42 934.31,-186.9 934.98,-193.87"/>
<text text-anchor="start" x="780.5" y="-200.8" font-family="arial" font-size="14.00" fill="#377eb8">true</text>
</g>
<!-- ID_18_ct0_st03&#45;&gt;ID_18_ct0_st0123 -->
<g id="edge13" class="edge">
<title>ID_18_ct0_st03&#45;&gt;ID_18_ct0_st0123</title>
<path fill="none" stroke="black" d="M1175.52,-117.95C1163.63,-110.25 1150.07,-102.18 1137,-96 1107.39,-82 1099.34,-78.18 1067,-73 1013.46,-64.43 998.83,-66.52 945,-73 919.25,-76.1 891.55,-82.06 866.98,-88.31"/>
<polygon fill="black" stroke="black" points="865.81,-85 857.01,-90.9 867.57,-91.77 865.81,-85"/>
<text text-anchor="start" x="994" y="-76.8" font-family="arial" font-size="14.00" fill="#377eb8">true</text>
</g>
<!-- ID_18_ct0_st03&#45;&gt;ID_18_ct0_st03 -->
<g id="edge11" class="edge">
<title>ID_18_ct0_st03&#45;&gt;ID_18_ct0_st03</title>
<path fill="none" stroke="black" d="M1193.32,-168.18C1192.49,-177.91 1198.72,-186 1212,-186 1220.3,-186 1225.85,-182.84 1228.63,-178.09"/>
<polygon fill="black" stroke="black" points="1232.09,-178.68 1230.68,-168.18 1225.23,-177.26 1232.09,-178.68"/>
<text text-anchor="start" x="1200" y="-189.8" font-family="arial" font-size="14.00" fill="#377eb8">true</text>
</g>
<!-- ID_18_ct0_st03&#45;&gt;ID_18_ct0_st013 -->
<g id="edge12" class="edge">
<title>ID_18_ct0_st03&#45;&gt;ID_18_ct0_st013</title>
<path fill="none" stroke="black" d="M1154.89,-155.41C1148.86,-156.66 1142.81,-157.88 1137,-159 1117.67,-162.72 1096.65,-166.43 1077.27,-169.71"/>
<polygon fill="black" stroke="black" points="1076.58,-166.27 1067.29,-171.38 1077.74,-173.18 1076.58,-166.27"/>
<text text-anchor="start" x="1099" y="-171.8" font-family="arial" font-size="14.00" fill="#377eb8">true</text>
</g>
<!-- ID_18_ct0_st013&#45;&gt;ID_18_ct0_st0123 -->
<g id="edge17" class="edge">
<title>ID_18_ct0_st013&#45;&gt;ID_18_ct0_st0123</title>
<path fill="none" stroke="black" d="M955.68,-155.85C946.29,-151.57 936.45,-147.41 927,-144 907.85,-137.09 886.68,-131.02 866.94,-125.99"/>
<polygon fill="black" stroke="black" points="867.63,-122.55 857.08,-123.53 865.93,-129.35 867.63,-122.55"/>
<text text-anchor="start" x="889" y="-147.8" font-family="arial" font-size="14.00" fill="#377eb8">true</text>
</g>
<!-- ID_18_ct0_st013&#45;&gt;ID_18_ct0_st023 -->
<g id="edge15" class="edge">
<title>ID_18_ct0_st013&#45;&gt;ID_18_ct0_st023</title>
<path fill="none" stroke="black" d="M968.43,-206.04C955.83,-213.43 941.29,-220.7 927,-225 824.44,-255.88 790.4,-248.95 686,-225 682.22,-224.13 678.37,-223.16 674.5,-222.1"/>
<polygon fill="black" stroke="black" points="675.45,-218.73 664.87,-219.32 673.51,-225.46 675.45,-218.73"/>
<text text-anchor="start" x="780.5" y="-248.8" font-family="arial" font-size="14.00" fill="#377eb8">true</text>
</g>
<!-- ID_18_ct0_st013&#45;&gt;ID_18_ct0_st03 -->
<g id="edge14" class="edge">
<title>ID_18_ct0_st013&#45;&gt;ID_18_ct0_st03</title>
<path fill="none" stroke="black" d="M1046,-155.8C1058.02,-149.35 1071.63,-143.3 1085,-140 1104.09,-135.29 1125.29,-134.25 1144.78,-134.9"/>
<polygon fill="black" stroke="black" points="1144.64,-138.39 1154.8,-135.37 1144.98,-131.4 1144.64,-138.39"/>
<text text-anchor="start" x="1085" y="-143.8" font-family="arial" font-size="14.00" fill="#377eb8">(Q&#39; || R&#39;)</text>
</g>
<!-- ID_18_ct0_st013&#45;&gt;ID_18_ct0_st013 -->
<g id="edge16" class="edge">
<title>ID_18_ct0_st013&#45;&gt;ID_18_ct0_st013</title>
<path fill="none" stroke="black" d="M986.58,-206.18C985.71,-215.91 992.19,-224 1006,-224 1014.63,-224 1020.4,-220.84 1023.3,-216.09"/>
<polygon fill="black" stroke="black" points="1026.75,-216.69 1025.42,-206.18 1019.91,-215.22 1026.75,-216.69"/>
<text text-anchor="start" x="994" y="-227.8" font-family="arial" font-size="14.00" fill="#377eb8">true</text>
</g>
</g>
</svg>
