<?xml version="1.0" encoding="UTF-8" standalone="no"?>
<!DOCTYPE svg PUBLIC "-//W3C//DTD SVG 1.1//EN"
 "http://www.w3.org/Graphics/SVG/1.1/DTD/svg11.dtd">
<!-- Generated by graphviz version 2.43.0 (0)
 -->
<!-- Title: G Pages: 1 -->
<svg width="477pt" height="150pt"
 viewBox="0.00 0.00 477.00 150.00" xmlns="http://www.w3.org/2000/svg" xmlns:xlink="http://www.w3.org/1999/xlink">
<g id="graph0" class="graph" transform="scale(1 1) rotate(0) translate(4 146)">
<title>G</title>
<polygon fill="white" stroke="transparent" points="-4,4 -4,-146 473,-146 473,4 -4,4"/>
<!-- _ID_51_ct0_st0 -->
<!-- ID_51_ct0_st0 -->
<g id="node2" class="node">
<title>ID_51_ct0_st0</title>
<polygon fill="none" stroke="black" points="261,-109 154,-109 154,-59 261,-59 261,-109"/>
<text text-anchor="start" x="162" y="-94.8" font-family="arial" font-weight="bold" font-size="14.00">ID_51_ct0_st0</text>
<text text-anchor="start" x="201" y="-80.8" font-family="arial" font-size="14.00" fill="#984ea3">!P</text>
<text text-anchor="start" x="195.5" y="-66.8" font-family="arial" font-size="14.00" fill="#ff7f00">true</text>
</g>
<!-- _ID_51_ct0_st0&#45;&gt;ID_51_ct0_st0 -->
<g id="edge1" class="edge">
<title>_ID_51_ct0_st0&#45;&gt;ID_51_ct0_st0</title>
<path fill="none" stroke="black" d="M111.08,-84C121.62,-84 132.74,-84 143.52,-84"/>
<polygon fill="black" stroke="black" points="143.72,-87.5 153.72,-84 143.72,-80.5 143.72,-87.5"/>
</g>
<!-- ID_51_ct0_st0&#45;&gt;ID_51_ct0_st0 -->
<g id="edge3" class="edge">
<title>ID_51_ct0_st0&#45;&gt;ID_51_ct0_st0</title>
<path fill="none" stroke="black" d="M192.93,-109.18C192.28,-118.91 197.14,-127 207.5,-127 213.97,-127 218.3,-123.84 220.47,-119.09"/>
<polygon fill="black" stroke="black" points="223.94,-119.6 222.07,-109.18 217.03,-118.49 223.94,-119.6"/>
<text text-anchor="start" x="195.5" y="-130.8" font-family="arial" font-size="14.00" fill="#377eb8">true</text>
</g>
<!-- ID_51_ct0_st01 -->
<g id="node4" class="node">
<title>ID_51_ct0_st01</title>
<polygon fill="none" stroke="black" points="469,-76 355,-76 355,-26 469,-26 469,-76"/>
<text text-anchor="start" x="363" y="-61.8" font-family="arial" font-weight="bold" font-size="14.00">ID_51_ct0_st01</text>
<text text-anchor="start" x="367.5" y="-47.8" font-family="arial" font-size="14.00" fill="#984ea3">(P &amp;&amp; (Q || R))</text>
<text text-anchor="start" x="400" y="-33.8" font-family="arial" font-size="14.00" fill="#ff7f00">true</text>
</g>
<!-- ID_51_ct0_st0&#45;&gt;ID_51_ct0_st01 -->
<g id="edge4" class="edge">
<title>ID_51_ct0_st0&#45;&gt;ID_51_ct0_st01</title>
<path fill="none" stroke="black" d="M261.16,-78.01C284.47,-75.11 312.17,-71.32 337,-67 339.64,-66.54 342.33,-66.05 345.04,-65.54"/>
<polygon fill="black" stroke="black" points="345.78,-68.97 354.93,-63.62 344.45,-62.09 345.78,-68.97"/>
<text text-anchor="start" x="299" y="-78.8" font-family="arial" font-size="14.00" fill="#377eb8">true</text>
</g>
<!-- _ID_51_ct0_st01 -->
<!-- _ID_51_ct0_st01&#45;&gt;ID_51_ct0_st01 -->
<g id="edge2" class="edge">
<title>_ID_51_ct0_st01&#45;&gt;ID_51_ct0_st01</title>
<path fill="none" stroke="black" d="M267.29,-22.62C289.26,-24.82 314.37,-27.88 337,-32 339.51,-32.46 342.06,-32.95 344.64,-33.48"/>
<polygon fill="black" stroke="black" points="344.11,-36.94 354.62,-35.64 345.59,-30.1 344.11,-36.94"/>
</g>
<!-- ID_51_ct0_st01&#45;&gt;ID_51_ct0_st0 -->
<g id="edge5" class="edge">
<title>ID_51_ct0_st01&#45;&gt;ID_51_ct0_st0</title>
<path fill="none" stroke="black" d="M354.92,-43.89C332.89,-42.59 307.53,-42.96 285,-48 277.71,-49.63 270.3,-52.03 263.1,-54.84"/>
<polygon fill="black" stroke="black" points="261.32,-51.79 253.45,-58.88 264.02,-58.25 261.32,-51.79"/>
<text text-anchor="start" x="285" y="-51.8" font-family="arial" font-size="14.00" fill="#377eb8">(Q&#39; || R&#39;)</text>
</g>
<!-- ID_51_ct0_st01&#45;&gt;ID_51_ct0_st01 -->
<g id="edge6" class="edge">
<title>ID_51_ct0_st01&#45;&gt;ID_51_ct0_st01</title>
<path fill="none" stroke="black" d="M393.32,-76.18C392.49,-85.91 398.72,-94 412,-94 420.3,-94 425.85,-90.84 428.63,-86.09"/>
<polygon fill="black" stroke="black" points="432.09,-86.68 430.68,-76.18 425.23,-85.26 432.09,-86.68"/>
<text text-anchor="start" x="400" y="-97.8" font-family="arial" font-size="14.00" fill="#377eb8">true</text>
</g>
</g>
</svg>
