<?xml version="1.0" encoding="UTF-8" standalone="no"?>
<!DOCTYPE svg PUBLIC "-//W3C//DTD SVG 1.1//EN"
 "http://www.w3.org/Graphics/SVG/1.1/DTD/svg11.dtd">
<!-- Generated by graphviz version 2.43.0 (0)
 -->
<!-- Title: G Pages: 1 -->
<svg width="455pt" height="150pt"
 viewBox="0.00 0.00 455.00 150.00" xmlns="http://www.w3.org/2000/svg" xmlns:xlink="http://www.w3.org/1999/xlink">
<g id="graph0" class="graph" transform="scale(1 1) rotate(0) translate(4 146)">
<title>G</title>
<polygon fill="white" stroke="transparent" points="-4,4 -4,-146 451,-146 451,4 -4,4"/>
<!-- _ID_6_ct0_st0 -->
<!-- ID_6_ct0_st0 -->
<g id="node2" class="node">
<title>ID_6_ct0_st0</title>
<polygon fill="none" stroke="black" points="246,-109 147,-109 147,-59 246,-59 246,-109"/>
<text text-anchor="start" x="155" y="-94.8" font-family="arial" font-weight="bold" font-size="14.00">ID_6_ct0_st0</text>
<text text-anchor="start" x="190" y="-80.8" font-family="arial" font-size="14.00" fill="#984ea3">!P</text>
<text text-anchor="start" x="184.5" y="-66.8" font-family="arial" font-size="14.00" fill="#ff7f00">true</text>
</g>
<!-- _ID_6_ct0_st0&#45;&gt;ID_6_ct0_st0 -->
<g id="edge1" class="edge">
<title>_ID_6_ct0_st0&#45;&gt;ID_6_ct0_st0</title>
<path fill="none" stroke="black" d="M104.04,-84C114.57,-84 125.75,-84 136.53,-84"/>
<polygon fill="black" stroke="black" points="136.72,-87.5 146.72,-84 136.72,-80.5 136.72,-87.5"/>
</g>
<!-- ID_6_ct0_st0&#45;&gt;ID_6_ct0_st0 -->
<g id="edge3" class="edge">
<title>ID_6_ct0_st0&#45;&gt;ID_6_ct0_st0</title>
<path fill="none" stroke="black" d="M182.68,-109.18C182.06,-118.91 186.67,-127 196.5,-127 202.64,-127 206.75,-123.84 208.81,-119.09"/>
<polygon fill="black" stroke="black" points="212.27,-119.59 210.32,-109.18 205.35,-118.53 212.27,-119.59"/>
<text text-anchor="start" x="184.5" y="-130.8" font-family="arial" font-size="14.00" fill="#377eb8">true</text>
</g>
<!-- ID_6_ct0_st01 -->
<g id="node4" class="node">
<title>ID_6_ct0_st01</title>
<polygon fill="none" stroke="black" points="447,-76 340,-76 340,-26 447,-26 447,-76"/>
<text text-anchor="start" x="348" y="-61.8" font-family="arial" font-weight="bold" font-size="14.00">ID_6_ct0_st01</text>
<text text-anchor="start" x="349" y="-47.8" font-family="arial" font-size="14.00" fill="#984ea3">(P &amp;&amp; (Q || R))</text>
<text text-anchor="start" x="381.5" y="-33.8" font-family="arial" font-size="14.00" fill="#ff7f00">true</text>
</g>
<!-- ID_6_ct0_st0&#45;&gt;ID_6_ct0_st01 -->
<g id="edge4" class="edge">
<title>ID_6_ct0_st0&#45;&gt;ID_6_ct0_st01</title>
<path fill="none" stroke="black" d="M246.14,-78.36C269.2,-75.43 297.1,-71.52 322,-67 324.63,-66.52 327.31,-66.01 330.01,-65.48"/>
<polygon fill="black" stroke="black" points="330.76,-68.9 339.86,-63.47 329.36,-62.04 330.76,-68.9"/>
<text text-anchor="start" x="284" y="-79.8" font-family="arial" font-size="14.00" fill="#377eb8">true</text>
</g>
<!-- _ID_6_ct0_st01 -->
<!-- _ID_6_ct0_st01&#45;&gt;ID_6_ct0_st01 -->
<g id="edge2" class="edge">
<title>_ID_6_ct0_st01&#45;&gt;ID_6_ct0_st01</title>
<path fill="none" stroke="black" d="M252,-22.33C273.87,-24.53 299.24,-27.68 322,-32 324.65,-32.5 327.35,-33.05 330.07,-33.64"/>
<polygon fill="black" stroke="black" points="329.43,-37.09 339.96,-35.91 330.99,-30.26 329.43,-37.09"/>
</g>
<!-- ID_6_ct0_st01&#45;&gt;ID_6_ct0_st0 -->
<g id="edge5" class="edge">
<title>ID_6_ct0_st01&#45;&gt;ID_6_ct0_st0</title>
<path fill="none" stroke="black" d="M339.74,-43.91C317.9,-42.46 292.47,-42.73 270,-48 263.04,-49.63 255.98,-52.04 249.14,-54.85"/>
<polygon fill="black" stroke="black" points="247.71,-51.65 239.98,-58.89 250.54,-58.05 247.71,-51.65"/>
<text text-anchor="start" x="270" y="-51.8" font-family="arial" font-size="14.00" fill="#377eb8">(Q&#39; || R&#39;)</text>
</g>
<!-- ID_6_ct0_st01&#45;&gt;ID_6_ct0_st01 -->
<g id="edge6" class="edge">
<title>ID_6_ct0_st01&#45;&gt;ID_6_ct0_st01</title>
<path fill="none" stroke="black" d="M375.57,-76.18C374.77,-85.91 380.75,-94 393.5,-94 401.47,-94 406.79,-90.84 409.47,-86.09"/>
<polygon fill="black" stroke="black" points="412.92,-86.66 411.43,-76.18 406.06,-85.31 412.92,-86.66"/>
<text text-anchor="start" x="381.5" y="-97.8" font-family="arial" font-size="14.00" fill="#377eb8">true</text>
</g>
</g>
</svg>
