<?xml version="1.0" encoding="UTF-8" standalone="no"?>
<!DOCTYPE svg PUBLIC "-//W3C//DTD SVG 1.1//EN"
 "http://www.w3.org/Graphics/SVG/1.1/DTD/svg11.dtd">
<!-- Generated by graphviz version 2.40.1 (20161225.0304)
 -->
<!-- Title: G Pages: 1 -->
<svg width="1301pt" height="353pt"
 viewBox="0.00 0.00 1301.00 353.00" xmlns="http://www.w3.org/2000/svg" xmlns:xlink="http://www.w3.org/1999/xlink">
<g id="graph0" class="graph" transform="scale(1 1) rotate(0) translate(4 349)">
<title>G</title>
<polygon fill="#ffffff" stroke="transparent" points="-4,4 -4,-349 1297,-349 1297,4 -4,4"/>
<!-- _st0 -->
<!-- st0 -->
<g id="node2" class="node">
<title>st0</title>
<polygon fill="none" stroke="#000000" points="157,-92 91,-92 91,-42 157,-42 157,-92"/>
<text text-anchor="start" x="113" y="-77.8" font-family="arial" font-weight="bold" font-size="14.00" fill="#000000">st0</text>
<text text-anchor="start" x="99" y="-63.8" font-family="arial" font-size="14.00" fill="#984ea3">(R || !Q)</text>
<text text-anchor="start" x="111.5" y="-49.8" font-family="arial" font-size="14.00" fill="#ff7f00">true</text>
</g>
<!-- _st0&#45;&gt;st0 -->
<g id="edge1" class="edge">
<title>_st0&#45;&gt;st0</title>
<path fill="none" stroke="#000000" d="M54.0199,-67C62.3287,-67 71.6915,-67 80.8018,-67"/>
<polygon fill="#000000" stroke="#000000" points="80.9106,-70.5001 90.9106,-67 80.9105,-63.5001 80.9106,-70.5001"/>
</g>
<!-- st0&#45;&gt;st0 -->
<g id="edge4" class="edge">
<title>st0&#45;&gt;st0</title>
<path fill="none" stroke="#000000" d="M114.6616,-92.1756C114.2466,-101.9095 117.3594,-110 124,-110 128.0466,-110 130.7832,-106.9957 132.2098,-102.446"/>
<polygon fill="#000000" stroke="#000000" points="135.7251,-102.4981 133.3384,-92.1756 128.767,-101.7335 135.7251,-102.4981"/>
<text text-anchor="start" x="111.5" y="-113.8" font-family="arial" font-size="14.00" fill="#377eb8">true</text>
</g>
<!-- st012 -->
<g id="node4" class="node">
<title>st012</title>
<polygon fill="none" stroke="#000000" points="346,-159 218,-159 218,-109 346,-109 346,-159"/>
<text text-anchor="start" x="263" y="-144.8" font-family="arial" font-weight="bold" font-size="14.00" fill="#000000">st012</text>
<text text-anchor="start" x="226" y="-130.8" font-family="arial" font-size="14.00" fill="#984ea3">(Q &amp;&amp; (!R &amp;&amp; !S))</text>
<text text-anchor="start" x="269.5" y="-116.8" font-family="arial" font-size="14.00" fill="#ff7f00">true</text>
</g>
<!-- st0&#45;&gt;st012 -->
<g id="edge5" class="edge">
<title>st0&#45;&gt;st012</title>
<path fill="none" stroke="#000000" d="M157.0595,-79.6526C170.4488,-84.8801 186.0195,-91.0905 200,-97 205.8533,-99.4741 211.9173,-102.0964 217.9773,-104.7573"/>
<polygon fill="#000000" stroke="#000000" points="216.9047,-108.11 227.4658,-108.9547 219.7366,-101.7084 216.9047,-108.11"/>
<text text-anchor="start" x="175" y="-100.8" font-family="arial" font-size="14.00" fill="#377eb8">true</text>
</g>
<!-- st01234 -->
<g id="node6" class="node">
<title>st01234</title>
<polygon fill="none" stroke="#000000" points="912,-163 788,-163 788,-113 912,-113 912,-163"/>
<text text-anchor="start" x="822.5" y="-148.8" font-family="arial" font-weight="bold" font-size="14.00" fill="#000000">st01234</text>
<text text-anchor="start" x="796" y="-134.8" font-family="arial" font-size="14.00" fill="#984ea3">(Q &amp;&amp; (!R &amp;&amp; S))</text>
<text text-anchor="start" x="837.5" y="-120.8" font-family="arial" font-size="14.00" fill="#ff7f00">true</text>
</g>
<!-- st0&#45;&gt;st01234 -->
<g id="edge6" class="edge">
<title>st0&#45;&gt;st01234</title>
<path fill="none" stroke="#000000" d="M157.1081,-43.7547C187.9486,-24.4035 235.9668,0 282,0 282,0 282,0 663,0 733.211,0 794.3735,-63.7612 826.3485,-104.6023"/>
<polygon fill="#000000" stroke="#000000" points="823.6789,-106.8731 832.5349,-112.6887 829.2385,-102.6197 823.6789,-106.8731"/>
<text text-anchor="start" x="460" y="-3.8" font-family="arial" font-size="14.00" fill="#377eb8">true</text>
</g>
<!-- _st012 -->
<!-- _st012&#45;&gt;st012 -->
<g id="edge2" class="edge">
<title>_st012&#45;&gt;st012</title>
<path fill="none" stroke="#000000" d="M154.7061,-158.4196C168.5516,-155.8838 185.1049,-152.825 200,-150 202.6475,-149.4979 205.3426,-148.9844 208.0644,-148.4638"/>
<polygon fill="#000000" stroke="#000000" points="208.8392,-151.879 217.9995,-146.5554 207.5187,-145.0047 208.8392,-151.879"/>
</g>
<!-- st012&#45;&gt;st0 -->
<g id="edge12" class="edge">
<title>st012&#45;&gt;st0</title>
<path fill="none" stroke="#000000" d="M217.944,-126.4628C203.3397,-123.2279 188.236,-118.6053 175,-112 167.9425,-108.478 161.0958,-103.7303 154.8304,-98.6363"/>
<polygon fill="#000000" stroke="#000000" points="157.0859,-95.9596 147.2329,-92.0649 152.5066,-101.2539 157.0859,-95.9596"/>
<text text-anchor="start" x="180.5" y="-124.8" font-family="arial" font-size="14.00" fill="#377eb8">R&#39;</text>
</g>
<!-- st012&#45;&gt;st012 -->
<g id="edge15" class="edge">
<title>st012&#45;&gt;st012</title>
<path fill="none" stroke="#000000" d="M264.4438,-159.1756C263.6636,-168.9095 269.5156,-177 282,-177 289.8027,-177 295.0147,-173.8397 297.6359,-169.093"/>
<polygon fill="#000000" stroke="#000000" points="301.0913,-169.6586 299.5562,-159.1756 294.219,-168.3279 301.0913,-169.6586"/>
<text text-anchor="start" x="269.5" y="-180.8" font-family="arial" font-size="14.00" fill="#377eb8">true</text>
</g>
<!-- st012&#45;&gt;st01234 -->
<g id="edge16" class="edge">
<title>st012&#45;&gt;st01234</title>
<path fill="none" stroke="#000000" d="M346.2454,-119.8658C365.6653,-116.2203 387.1131,-112.8144 407,-111 537.4614,-99.0975 690.0309,-114.9137 777.7998,-126.8806"/>
<polygon fill="#000000" stroke="#000000" points="777.5293,-130.3765 787.915,-128.282 778.49,-123.4427 777.5293,-130.3765"/>
<text text-anchor="start" x="556" y="-111.8" font-family="arial" font-size="14.00" fill="#377eb8">true</text>
</g>
<!-- st02 -->
<g id="node7" class="node">
<title>st02</title>
<polygon fill="none" stroke="#000000" points="538,-170 407,-170 407,-120 538,-120 538,-170"/>
<text text-anchor="start" x="457.5" y="-155.8" font-family="arial" font-weight="bold" font-size="14.00" fill="#000000">st02</text>
<text text-anchor="start" x="415" y="-141.8" font-family="arial" font-size="14.00" fill="#984ea3">(!Q &amp;&amp; (!R &amp;&amp; !S))</text>
<text text-anchor="start" x="460" y="-127.8" font-family="arial" font-size="14.00" fill="#ff7f00">true</text>
</g>
<!-- st012&#45;&gt;st02 -->
<g id="edge13" class="edge">
<title>st012&#45;&gt;st02</title>
<path fill="none" stroke="#000000" d="M346.0065,-124.4058C360.1818,-123.4539 375.115,-123.3603 389,-125 391.5259,-125.2983 394.086,-125.6456 396.6645,-126.0342"/>
<polygon fill="#000000" stroke="#000000" points="396.2256,-129.5095 406.6683,-127.7207 397.3893,-122.6069 396.2256,-129.5095"/>
<text text-anchor="start" x="364" y="-128.8" font-family="arial" font-size="14.00" fill="#377eb8">true</text>
</g>
<!-- st0234 -->
<g id="node8" class="node">
<title>st0234</title>
<polygon fill="none" stroke="#000000" points="727,-264 599,-264 599,-214 727,-214 727,-264"/>
<text text-anchor="start" x="640" y="-249.8" font-family="arial" font-weight="bold" font-size="14.00" fill="#000000">st0234</text>
<text text-anchor="start" x="607" y="-235.8" font-family="arial" font-size="14.00" fill="#984ea3">(!Q &amp;&amp; (!R &amp;&amp; S))</text>
<text text-anchor="start" x="650.5" y="-221.8" font-family="arial" font-size="14.00" fill="#ff7f00">true</text>
</g>
<!-- st012&#45;&gt;st0234 -->
<g id="edge14" class="edge">
<title>st012&#45;&gt;st0234</title>
<path fill="none" stroke="#000000" d="M313.0942,-159.0296C337.2176,-176.9919 372.2912,-200.054 407,-212 465.9302,-232.2826 536.6228,-238.4797 588.7759,-239.9185"/>
<polygon fill="#000000" stroke="#000000" points="588.8748,-243.4215 598.9504,-240.1456 589.031,-236.4233 588.8748,-243.4215"/>
<text text-anchor="start" x="460" y="-239.8" font-family="arial" font-size="14.00" fill="#377eb8">true</text>
</g>
<!-- _st01234 -->
<!-- _st01234&#45;&gt;st01234 -->
<g id="edge3" class="edge">
<title>_st01234&#45;&gt;st01234</title>
<path fill="none" stroke="#000000" d="M701.6319,-54.0524C722.5491,-59.2653 748.4456,-67.131 770,-78 785.2765,-85.7033 800.6465,-96.367 813.7742,-106.5704"/>
<polygon fill="#000000" stroke="#000000" points="811.6348,-109.3409 821.6375,-112.8333 815.996,-103.8654 811.6348,-109.3409"/>
</g>
<!-- st01234&#45;&gt;st01234 -->
<g id="edge32" class="edge">
<title>st01234&#45;&gt;st01234</title>
<path fill="none" stroke="#000000" d="M832.8174,-163.1756C832.0537,-172.9095 837.7813,-181 850,-181 857.6367,-181 862.7378,-177.8397 865.3033,-173.093"/>
<polygon fill="#000000" stroke="#000000" points="868.7595,-173.6525 867.1826,-163.1756 861.8819,-172.3491 868.7595,-173.6525"/>
<text text-anchor="start" x="837.5" y="-184.8" font-family="arial" font-size="14.00" fill="#377eb8">true</text>
</g>
<!-- st01234&#45;&gt;st0234 -->
<g id="edge30" class="edge">
<title>st01234&#45;&gt;st0234</title>
<path fill="none" stroke="#000000" d="M787.9928,-150.8892C773.405,-155.2166 758.2561,-160.8275 745,-168 726.2422,-178.1493 708.0319,-193.2151 693.5562,-206.8605"/>
<polygon fill="#000000" stroke="#000000" points="691.1006,-204.3663 686.3437,-213.8332 695.966,-209.399 691.1006,-204.3663"/>
<text text-anchor="start" x="745" y="-171.8" font-family="arial" font-size="14.00" fill="#377eb8">true</text>
</g>
<!-- st024 -->
<g id="node9" class="node">
<title>st024</title>
<polygon fill="none" stroke="#000000" points="1293,-230 1162,-230 1162,-180 1293,-180 1293,-230"/>
<text text-anchor="start" x="1208.5" y="-215.8" font-family="arial" font-weight="bold" font-size="14.00" fill="#000000">st024</text>
<text text-anchor="start" x="1170" y="-201.8" font-family="arial" font-size="14.00" fill="#984ea3">(!Q &amp;&amp; (!R &amp;&amp; !S))</text>
<text text-anchor="start" x="1215" y="-187.8" font-family="arial" font-size="14.00" fill="#ff7f00">true</text>
</g>
<!-- st01234&#45;&gt;st024 -->
<g id="edge29" class="edge">
<title>st01234&#45;&gt;st024</title>
<path fill="none" stroke="#000000" d="M912.0899,-142.541C963.1671,-146.9642 1037.2579,-154.9623 1101,-168 1117.6785,-171.4114 1135.3469,-175.9649 1152.0213,-180.7087"/>
<polygon fill="#000000" stroke="#000000" points="1151.1299,-184.0943 1161.709,-183.5165 1153.0786,-177.371 1151.1299,-184.0943"/>
<text text-anchor="start" x="1024.5" y="-171.8" font-family="arial" font-size="14.00" fill="#377eb8">true</text>
</g>
<!-- st0124 -->
<g id="node10" class="node">
<title>st0124</title>
<polygon fill="none" stroke="#000000" points="1101,-242 973,-242 973,-192 1101,-192 1101,-242"/>
<text text-anchor="start" x="1014" y="-227.8" font-family="arial" font-weight="bold" font-size="14.00" fill="#000000">st0124</text>
<text text-anchor="start" x="981" y="-213.8" font-family="arial" font-size="14.00" fill="#984ea3">(Q &amp;&amp; (!R &amp;&amp; !S))</text>
<text text-anchor="start" x="1024.5" y="-199.8" font-family="arial" font-size="14.00" fill="#ff7f00">true</text>
</g>
<!-- st01234&#45;&gt;st0124 -->
<g id="edge31" class="edge">
<title>st01234&#45;&gt;st0124</title>
<path fill="none" stroke="#000000" d="M886.2859,-163.1542C899.5998,-171.5843 915.0722,-180.486 930,-187 940.4624,-191.5654 951.8043,-195.623 963.0604,-199.1637"/>
<polygon fill="#000000" stroke="#000000" points="962.3206,-202.5965 972.9057,-202.1419 964.3475,-195.8963 962.3206,-202.5965"/>
<text text-anchor="start" x="930" y="-198.8" font-family="arial" font-size="14.00" fill="#377eb8">true</text>
</g>
<!-- st02&#45;&gt;st0 -->
<g id="edge7" class="edge">
<title>st02&#45;&gt;st0</title>
<path fill="none" stroke="#000000" d="M429.7944,-119.972C405.9487,-107.2403 375.2303,-92.8352 346,-85 285.5348,-68.7923 212.7646,-65.8852 167.4326,-65.9381"/>
<polygon fill="#000000" stroke="#000000" points="167.336,-62.4385 157.3575,-65.9995 167.3787,-69.4384 167.336,-62.4385"/>
<text text-anchor="start" x="275" y="-88.8" font-family="arial" font-size="14.00" fill="#377eb8">R&#39;</text>
</g>
<!-- st02&#45;&gt;st012 -->
<g id="edge10" class="edge">
<title>st02&#45;&gt;st012</title>
<path fill="none" stroke="#000000" d="M406.7605,-145.5771C392.6427,-145.3703 377.8161,-144.9033 364,-144 361.4956,-143.8363 358.9504,-143.6482 356.3816,-143.4399"/>
<polygon fill="#000000" stroke="#000000" points="356.6665,-139.9514 346.3939,-142.5446 356.0414,-146.9235 356.6665,-139.9514"/>
<text text-anchor="start" x="364" y="-148.8" font-family="arial" font-size="14.00" fill="#377eb8">true</text>
</g>
<!-- st02&#45;&gt;st01234 -->
<g id="edge11" class="edge">
<title>st02&#45;&gt;st01234</title>
<path fill="none" stroke="#000000" d="M538.2555,-143.7807C605.0641,-142.5419 708.2856,-140.6278 777.4438,-139.3454"/>
<polygon fill="#000000" stroke="#000000" points="777.8822,-142.838 787.8156,-139.1531 777.7524,-135.8392 777.8822,-142.838"/>
<text text-anchor="start" x="650.5" y="-145.8" font-family="arial" font-size="14.00" fill="#377eb8">true</text>
</g>
<!-- st02&#45;&gt;st02 -->
<g id="edge8" class="edge">
<title>st02&#45;&gt;st02</title>
<path fill="none" stroke="#000000" d="M454.5703,-170.1756C453.7734,-179.9095 459.75,-188 472.5,-188 480.4688,-188 485.7916,-184.8397 488.4686,-180.093"/>
<polygon fill="#000000" stroke="#000000" points="491.9233,-180.6647 490.4297,-170.1756 485.0562,-179.3067 491.9233,-180.6647"/>
<text text-anchor="start" x="460" y="-191.8" font-family="arial" font-size="14.00" fill="#377eb8">true</text>
</g>
<!-- st02&#45;&gt;st0234 -->
<g id="edge9" class="edge">
<title>st02&#45;&gt;st0234</title>
<path fill="none" stroke="#000000" d="M523.3003,-170.0668C547.7434,-182.128 577.2207,-196.6732 602.7856,-209.2879"/>
<polygon fill="#000000" stroke="#000000" points="601.4942,-212.5535 612.0106,-213.8399 604.5917,-206.2761 601.4942,-212.5535"/>
<text text-anchor="start" x="556" y="-200.8" font-family="arial" font-size="14.00" fill="#377eb8">true</text>
</g>
<!-- st0234&#45;&gt;st01234 -->
<g id="edge28" class="edge">
<title>st0234&#45;&gt;st01234</title>
<path fill="none" stroke="#000000" d="M717.1313,-213.9539C734.2228,-205.7111 753.0616,-196.2747 770,-187 780.4911,-181.2555 791.5464,-174.7746 801.979,-168.4524"/>
<polygon fill="#000000" stroke="#000000" points="803.8647,-171.4018 810.5698,-163.1987 800.2126,-165.43 803.8647,-171.4018"/>
<text text-anchor="start" x="745" y="-202.8" font-family="arial" font-size="14.00" fill="#377eb8">true</text>
</g>
<!-- st0234&#45;&gt;st0234 -->
<g id="edge26" class="edge">
<title>st0234&#45;&gt;st0234</title>
<path fill="none" stroke="#000000" d="M645.4438,-264.1756C644.6636,-273.9095 650.5156,-282 663,-282 670.8027,-282 676.0147,-278.8397 678.6359,-274.093"/>
<polygon fill="#000000" stroke="#000000" points="682.0913,-274.6586 680.5562,-264.1756 675.219,-273.3279 682.0913,-274.6586"/>
<text text-anchor="start" x="650.5" y="-285.8" font-family="arial" font-size="14.00" fill="#377eb8">true</text>
</g>
<!-- st0234&#45;&gt;st024 -->
<g id="edge25" class="edge">
<title>st0234&#45;&gt;st024</title>
<path fill="none" stroke="#000000" d="M704.2254,-264.1348C727.8663,-277.241 758.6066,-292.1409 788,-300 922.4149,-335.9394 966.8359,-342.8646 1101,-306 1141.2756,-294.9334 1177.4236,-262.6738 1200.6616,-237.5592"/>
<polygon fill="#000000" stroke="#000000" points="1203.3556,-239.7978 1207.4491,-230.0257 1198.1551,-235.1122 1203.3556,-239.7978"/>
<text text-anchor="start" x="930" y="-333.8" font-family="arial" font-size="14.00" fill="#377eb8">true</text>
</g>
<!-- st0234&#45;&gt;st0124 -->
<g id="edge27" class="edge">
<title>st0234&#45;&gt;st0124</title>
<path fill="none" stroke="#000000" d="M727.4427,-245.4565C733.3767,-245.9999 739.2984,-246.5231 745,-247 818.9758,-253.1879 838.3831,-259.5538 912,-250 928.5894,-247.8471 946.1143,-244.1506 962.6239,-239.9919"/>
<polygon fill="#000000" stroke="#000000" points="963.9603,-243.2606 972.7548,-237.3524 962.1954,-236.4868 963.9603,-243.2606"/>
<text text-anchor="start" x="837.5" y="-257.8" font-family="arial" font-size="14.00" fill="#377eb8">true</text>
</g>
<!-- st024&#45;&gt;st01234 -->
<g id="edge20" class="edge">
<title>st024&#45;&gt;st01234</title>
<path fill="none" stroke="#000000" d="M1208.5631,-179.7305C1186.3783,-152.7968 1146.7795,-112.4742 1101,-101 1041.5178,-86.0913 972.4995,-98.3405 921.9086,-112.6186"/>
<polygon fill="#000000" stroke="#000000" points="920.6654,-109.3352 912.0443,-115.4938 922.6243,-116.0556 920.6654,-109.3352"/>
<text text-anchor="start" x="1024.5" y="-104.8" font-family="arial" font-size="14.00" fill="#377eb8">true</text>
</g>
<!-- st024&#45;&gt;st0234 -->
<g id="edge18" class="edge">
<title>st024&#45;&gt;st0234</title>
<path fill="none" stroke="#000000" d="M1198.1293,-230.0663C1173.8684,-249.0216 1137.5891,-273.5134 1101,-284 976.5193,-319.6767 824.9936,-288.4334 736.7216,-263.2127"/>
<polygon fill="#000000" stroke="#000000" points="737.6454,-259.8364 727.0658,-260.4056 735.6912,-266.5581 737.6454,-259.8364"/>
<text text-anchor="start" x="930" y="-302.8" font-family="arial" font-size="14.00" fill="#377eb8">true</text>
</g>
<!-- st024&#45;&gt;st024 -->
<g id="edge17" class="edge">
<title>st024&#45;&gt;st024</title>
<path fill="none" stroke="#000000" d="M1209.5703,-230.1756C1208.7734,-239.9095 1214.75,-248 1227.5,-248 1235.4688,-248 1240.7916,-244.8397 1243.4686,-240.093"/>
<polygon fill="#000000" stroke="#000000" points="1246.9233,-240.6647 1245.4297,-230.1756 1240.0562,-239.3067 1246.9233,-240.6647"/>
<text text-anchor="start" x="1215" y="-251.8" font-family="arial" font-size="14.00" fill="#377eb8">true</text>
</g>
<!-- st024&#45;&gt;st0124 -->
<g id="edge19" class="edge">
<title>st024&#45;&gt;st0124</title>
<path fill="none" stroke="#000000" d="M1161.9266,-209.1306C1145.6636,-210.1551 1128.1182,-211.2603 1111.464,-212.3094"/>
<polygon fill="#000000" stroke="#000000" points="1110.9892,-208.8322 1101.229,-212.9541 1111.4293,-215.8184 1110.9892,-208.8322"/>
<text text-anchor="start" x="1119" y="-214.8" font-family="arial" font-size="14.00" fill="#377eb8">true</text>
</g>
<!-- st0124&#45;&gt;st01234 -->
<g id="edge24" class="edge">
<title>st0124&#45;&gt;st01234</title>
<path fill="none" stroke="#000000" d="M994.7815,-191.848C982.2228,-184.9124 968.269,-177.7282 955,-172 944.4552,-167.4478 933.0919,-163.1634 921.8715,-159.2709"/>
<polygon fill="#000000" stroke="#000000" points="922.6664,-155.8449 912.0721,-155.9542 920.4222,-162.4754 922.6664,-155.8449"/>
<text text-anchor="start" x="930" y="-175.8" font-family="arial" font-size="14.00" fill="#377eb8">true</text>
</g>
<!-- st0124&#45;&gt;st0234 -->
<g id="edge22" class="edge">
<title>st0124&#45;&gt;st0234</title>
<path fill="none" stroke="#000000" d="M972.9214,-220.7693C907.6426,-224.6093 806.4854,-230.5597 737.632,-234.6099"/>
<polygon fill="#000000" stroke="#000000" points="737.0701,-231.1368 727.2929,-235.2181 737.4812,-238.1247 737.0701,-231.1368"/>
<text text-anchor="start" x="837.5" y="-234.8" font-family="arial" font-size="14.00" fill="#377eb8">true</text>
</g>
<!-- st0124&#45;&gt;st024 -->
<g id="edge21" class="edge">
<title>st0124&#45;&gt;st024</title>
<path fill="none" stroke="#000000" d="M1101.0112,-194.657C1107.0358,-193.1763 1113.0964,-191.9135 1119,-191 1129.5623,-189.3656 1140.7237,-189.1262 1151.7106,-189.7475"/>
<polygon fill="#000000" stroke="#000000" points="1151.483,-193.2404 1161.7292,-190.5447 1152.0384,-186.2624 1151.483,-193.2404"/>
<text text-anchor="start" x="1119" y="-194.8" font-family="arial" font-size="14.00" fill="#377eb8">true</text>
</g>
<!-- st0124&#45;&gt;st0124 -->
<g id="edge23" class="edge">
<title>st0124&#45;&gt;st0124</title>
<path fill="none" stroke="#000000" d="M1019.4438,-242.1756C1018.6636,-251.9095 1024.5156,-260 1037,-260 1044.8027,-260 1050.0147,-256.8397 1052.6359,-252.093"/>
<polygon fill="#000000" stroke="#000000" points="1056.0913,-252.6586 1054.5562,-242.1756 1049.219,-251.3279 1056.0913,-252.6586"/>
<text text-anchor="start" x="1024.5" y="-263.8" font-family="arial" font-size="14.00" fill="#377eb8">true</text>
</g>
</g>
</svg>
