<?xml version="1.0" encoding="UTF-8" standalone="no"?>
<!DOCTYPE svg PUBLIC "-//W3C//DTD SVG 1.1//EN"
 "http://www.w3.org/Graphics/SVG/1.1/DTD/svg11.dtd">
<!-- Generated by graphviz version 2.43.0 (0)
 -->
<!-- Title: G Pages: 1 -->
<svg width="1473pt" height="359pt"
 viewBox="0.00 0.00 1473.00 359.00" xmlns="http://www.w3.org/2000/svg" xmlns:xlink="http://www.w3.org/1999/xlink">
<g id="graph0" class="graph" transform="scale(1 1) rotate(0) translate(4 355)">
<title>G</title>
<polygon fill="white" stroke="transparent" points="-4,4 -4,-355 1469,-355 1469,4 -4,4"/>
<!-- _ID_138_ct0_st0 -->
<!-- ID_138_ct0_st0 -->
<g id="node2" class="node">
<title>ID_138_ct0_st0</title>
<polygon fill="none" stroke="black" points="280,-92 166,-92 166,-42 280,-42 280,-92"/>
<text text-anchor="start" x="174" y="-77.8" font-family="arial" font-weight="bold" font-size="14.00">ID_138_ct0_st0</text>
<text text-anchor="start" x="198.5" y="-63.8" font-family="arial" font-size="14.00" fill="#984ea3">(R || !Q)</text>
<text text-anchor="start" x="211" y="-49.8" font-family="arial" font-size="14.00" fill="#ff7f00">true</text>
</g>
<!-- _ID_138_ct0_st0&#45;&gt;ID_138_ct0_st0 -->
<g id="edge1" class="edge">
<title>_ID_138_ct0_st0&#45;&gt;ID_138_ct0_st0</title>
<path fill="none" stroke="black" d="M119.26,-67C131.17,-67 143.77,-67 155.91,-67"/>
<polygon fill="black" stroke="black" points="155.97,-70.5 165.97,-67 155.97,-63.5 155.97,-70.5"/>
</g>
<!-- ID_138_ct0_st0&#45;&gt;ID_138_ct0_st0 -->
<g id="edge4" class="edge">
<title>ID_138_ct0_st0&#45;&gt;ID_138_ct0_st0</title>
<path fill="none" stroke="black" d="M207.31,-92.18C206.61,-101.91 211.84,-110 223,-110 229.97,-110 234.63,-106.84 236.97,-102.09"/>
<polygon fill="black" stroke="black" points="240.43,-102.63 238.69,-92.18 233.53,-101.43 240.43,-102.63"/>
<text text-anchor="start" x="211" y="-113.8" font-family="arial" font-size="14.00" fill="#377eb8">true</text>
</g>
<!-- ID_138_ct0_st012 -->
<g id="node4" class="node">
<title>ID_138_ct0_st012</title>
<polygon fill="none" stroke="black" points="479,-159 350,-159 350,-109 479,-109 479,-159"/>
<text text-anchor="start" x="358" y="-144.8" font-family="arial" font-weight="bold" font-size="14.00">ID_138_ct0_st012</text>
<text text-anchor="start" x="361" y="-130.8" font-family="arial" font-size="14.00" fill="#984ea3">(Q &amp;&amp; (!R &amp;&amp; !S))</text>
<text text-anchor="start" x="402.5" y="-116.8" font-family="arial" font-size="14.00" fill="#ff7f00">true</text>
</g>
<!-- ID_138_ct0_st0&#45;&gt;ID_138_ct0_st012 -->
<g id="edge5" class="edge">
<title>ID_138_ct0_st0&#45;&gt;ID_138_ct0_st012</title>
<path fill="none" stroke="black" d="M280.02,-80.79C296.9,-85.41 315.36,-90.95 332,-97 338.48,-99.35 345.15,-102 351.77,-104.77"/>
<polygon fill="black" stroke="black" points="350.82,-108.17 361.39,-108.9 353.58,-101.74 350.82,-108.17"/>
<text text-anchor="start" x="308" y="-100.8" font-family="arial" font-size="14.00" fill="#377eb8">true</text>
</g>
<!-- ID_138_ct0_st01234 -->
<g id="node6" class="node">
<title>ID_138_ct0_st01234</title>
<polygon fill="none" stroke="black" points="1079,-163 935,-163 935,-113 1079,-113 1079,-163"/>
<text text-anchor="start" x="943" y="-148.8" font-family="arial" font-weight="bold" font-size="14.00">ID_138_ct0_st01234</text>
<text text-anchor="start" x="955.5" y="-134.8" font-family="arial" font-size="14.00" fill="#984ea3">(Q &amp;&amp; (!R &amp;&amp; S))</text>
<text text-anchor="start" x="995" y="-120.8" font-family="arial" font-size="14.00" fill="#ff7f00">true</text>
</g>
<!-- ID_138_ct0_st0&#45;&gt;ID_138_ct0_st01234 -->
<g id="edge6" class="edge">
<title>ID_138_ct0_st0&#45;&gt;ID_138_ct0_st01234</title>
<path fill="none" stroke="black" d="M268.02,-41.86C305.47,-22.85 361.33,0 413.5,0 413.5,0 413.5,0 801.5,0 835.24,0 845.31,-2.97 875,-19 915.6,-40.93 953.65,-78.08 978.16,-105.05"/>
<polygon fill="black" stroke="black" points="975.74,-107.59 985.02,-112.71 980.96,-102.93 975.74,-107.59"/>
<text text-anchor="start" x="590.5" y="-3.8" font-family="arial" font-size="14.00" fill="#377eb8">true</text>
</g>
<!-- _ID_138_ct0_st012 -->
<!-- _ID_138_ct0_st012&#45;&gt;ID_138_ct0_st012 -->
<g id="edge2" class="edge">
<title>_ID_138_ct0_st012&#45;&gt;ID_138_ct0_st012</title>
<path fill="none" stroke="black" d="M290.07,-156.13C303.94,-154.28 318.47,-152.2 332,-150 334.64,-149.57 337.33,-149.12 340.05,-148.65"/>
<polygon fill="black" stroke="black" points="340.72,-152.09 349.95,-146.89 339.49,-145.19 340.72,-152.09"/>
</g>
<!-- ID_138_ct0_st012&#45;&gt;ID_138_ct0_st0 -->
<g id="edge12" class="edge">
<title>ID_138_ct0_st012&#45;&gt;ID_138_ct0_st0</title>
<path fill="none" stroke="black" d="M349.92,-123.81C335.9,-120.72 321.28,-116.83 308,-112 296.7,-107.89 285.05,-102.49 274.16,-96.86"/>
<polygon fill="black" stroke="black" points="275.68,-93.71 265.21,-92.1 272.4,-99.89 275.68,-93.71"/>
<text text-anchor="start" x="313.5" y="-122.8" font-family="arial" font-size="14.00" fill="#377eb8">R&#39;</text>
</g>
<!-- ID_138_ct0_st012&#45;&gt;ID_138_ct0_st012 -->
<g id="edge15" class="edge">
<title>ID_138_ct0_st012&#45;&gt;ID_138_ct0_st012</title>
<path fill="none" stroke="black" d="M396.94,-159.18C396.16,-168.91 402.02,-177 414.5,-177 422.3,-177 427.51,-173.84 430.14,-169.09"/>
<polygon fill="black" stroke="black" points="433.59,-169.66 432.06,-159.18 426.72,-168.33 433.59,-169.66"/>
<text text-anchor="start" x="402.5" y="-180.8" font-family="arial" font-size="14.00" fill="#377eb8">true</text>
</g>
<!-- ID_138_ct0_st012&#45;&gt;ID_138_ct0_st01234 -->
<g id="edge16" class="edge">
<title>ID_138_ct0_st012&#45;&gt;ID_138_ct0_st01234</title>
<path fill="none" stroke="black" d="M479.29,-119.81C498.39,-116.18 519.45,-112.8 539,-111 673.98,-98.54 831.48,-113.81 924.75,-125.94"/>
<polygon fill="black" stroke="black" points="924.31,-129.41 934.68,-127.25 925.22,-122.47 924.31,-129.41"/>
<text text-anchor="start" x="684" y="-110.8" font-family="arial" font-size="14.00" fill="#377eb8">true</text>
</g>
<!-- ID_138_ct0_st02 -->
<g id="node7" class="node">
<title>ID_138_ct0_st02</title>
<polygon fill="none" stroke="black" points="666,-170 539,-170 539,-120 666,-120 666,-170"/>
<text text-anchor="start" x="549.5" y="-155.8" font-family="arial" font-weight="bold" font-size="14.00">ID_138_ct0_st02</text>
<text text-anchor="start" x="547" y="-141.8" font-family="arial" font-size="14.00" fill="#984ea3">(!Q &amp;&amp; (!R &amp;&amp; !S))</text>
<text text-anchor="start" x="590.5" y="-127.8" font-family="arial" font-size="14.00" fill="#ff7f00">true</text>
</g>
<!-- ID_138_ct0_st012&#45;&gt;ID_138_ct0_st02 -->
<g id="edge13" class="edge">
<title>ID_138_ct0_st012&#45;&gt;ID_138_ct0_st02</title>
<path fill="none" stroke="black" d="M479.18,-124.32C492.99,-123.4 507.5,-123.35 521,-125 523.66,-125.32 526.35,-125.71 529.06,-126.14"/>
<polygon fill="black" stroke="black" points="528.48,-129.59 538.93,-127.89 529.7,-122.7 528.48,-129.59"/>
<text text-anchor="start" x="497" y="-128.8" font-family="arial" font-size="14.00" fill="#377eb8">true</text>
</g>
<!-- ID_138_ct0_st0234 -->
<g id="node8" class="node">
<title>ID_138_ct0_st0234</title>
<polygon fill="none" stroke="black" points="869,-264 732,-264 732,-214 869,-214 869,-264"/>
<text text-anchor="start" x="740" y="-249.8" font-family="arial" font-weight="bold" font-size="14.00">ID_138_ct0_st0234</text>
<text text-anchor="start" x="747" y="-235.8" font-family="arial" font-size="14.00" fill="#984ea3">(!Q &amp;&amp; (!R &amp;&amp; S))</text>
<text text-anchor="start" x="788.5" y="-221.8" font-family="arial" font-size="14.00" fill="#ff7f00">true</text>
</g>
<!-- ID_138_ct0_st012&#45;&gt;ID_138_ct0_st0234 -->
<g id="edge14" class="edge">
<title>ID_138_ct0_st012&#45;&gt;ID_138_ct0_st0234</title>
<path fill="none" stroke="black" d="M446.17,-159.05C469.97,-177.03 504.61,-200.09 539,-212 598.01,-232.43 668.68,-238.71 721.52,-240.14"/>
<polygon fill="black" stroke="black" points="721.77,-243.65 731.84,-240.37 721.92,-236.65 721.77,-243.65"/>
<text text-anchor="start" x="590.5" y="-239.8" font-family="arial" font-size="14.00" fill="#377eb8">true</text>
</g>
<!-- _ID_138_ct0_st01234 -->
<!-- _ID_138_ct0_st01234&#45;&gt;ID_138_ct0_st01234 -->
<g id="edge3" class="edge">
<title>_ID_138_ct0_st01234&#45;&gt;ID_138_ct0_st01234</title>
<path fill="none" stroke="black" d="M875.17,-62.57C889.35,-66.82 903.87,-71.95 917,-78 933.84,-85.76 951.03,-96.54 965.75,-106.84"/>
<polygon fill="black" stroke="black" points="963.95,-109.85 974.12,-112.81 968.02,-104.15 963.95,-109.85"/>
</g>
<!-- ID_138_ct0_st01234&#45;&gt;ID_138_ct0_st01234 -->
<g id="edge32" class="edge">
<title>ID_138_ct0_st01234&#45;&gt;ID_138_ct0_st01234</title>
<path fill="none" stroke="black" d="M987.95,-163.18C987.1,-172.91 993.45,-181 1007,-181 1015.47,-181 1021.12,-177.84 1023.97,-173.09"/>
<polygon fill="black" stroke="black" points="1027.42,-173.68 1026.05,-163.18 1020.57,-172.24 1027.42,-173.68"/>
<text text-anchor="start" x="995" y="-184.8" font-family="arial" font-size="14.00" fill="#377eb8">true</text>
</g>
<!-- ID_138_ct0_st01234&#45;&gt;ID_138_ct0_st0234 -->
<g id="edge30" class="edge">
<title>ID_138_ct0_st01234&#45;&gt;ID_138_ct0_st0234</title>
<path fill="none" stroke="black" d="M934.79,-152.25C920.56,-156.38 906.01,-161.56 893,-168 872.4,-178.2 851.96,-193.44 835.64,-207.19"/>
<polygon fill="black" stroke="black" points="833.27,-204.62 827.97,-213.8 837.83,-209.92 833.27,-204.62"/>
<text text-anchor="start" x="893" y="-171.8" font-family="arial" font-size="14.00" fill="#377eb8">true</text>
</g>
<!-- ID_138_ct0_st024 -->
<g id="node9" class="node">
<title>ID_138_ct0_st024</title>
<polygon fill="none" stroke="black" points="1465,-230 1336,-230 1336,-180 1465,-180 1465,-230"/>
<text text-anchor="start" x="1344" y="-215.8" font-family="arial" font-weight="bold" font-size="14.00">ID_138_ct0_st024</text>
<text text-anchor="start" x="1345" y="-201.8" font-family="arial" font-size="14.00" fill="#984ea3">(!Q &amp;&amp; (!R &amp;&amp; !S))</text>
<text text-anchor="start" x="1388.5" y="-187.8" font-family="arial" font-size="14.00" fill="#ff7f00">true</text>
</g>
<!-- ID_138_ct0_st01234&#45;&gt;ID_138_ct0_st024 -->
<g id="edge29" class="edge">
<title>ID_138_ct0_st01234&#45;&gt;ID_138_ct0_st024</title>
<path fill="none" stroke="black" d="M1079.07,-142.46C1133.4,-146.71 1209.94,-154.52 1276,-168 1292.35,-171.34 1309.64,-175.86 1325.95,-180.61"/>
<polygon fill="black" stroke="black" points="1325.37,-184.09 1335.96,-183.58 1327.37,-177.38 1325.37,-184.09"/>
<text text-anchor="start" x="1195.5" y="-171.8" font-family="arial" font-size="14.00" fill="#377eb8">true</text>
</g>
<!-- ID_138_ct0_st0124 -->
<g id="node10" class="node">
<title>ID_138_ct0_st0124</title>
<polygon fill="none" stroke="black" points="1276,-242 1139,-242 1139,-192 1276,-192 1276,-242"/>
<text text-anchor="start" x="1147" y="-227.8" font-family="arial" font-weight="bold" font-size="14.00">ID_138_ct0_st0124</text>
<text text-anchor="start" x="1154" y="-213.8" font-family="arial" font-size="14.00" fill="#984ea3">(Q &amp;&amp; (!R &amp;&amp; !S))</text>
<text text-anchor="start" x="1195.5" y="-199.8" font-family="arial" font-size="14.00" fill="#ff7f00">true</text>
</g>
<!-- ID_138_ct0_st01234&#45;&gt;ID_138_ct0_st0124 -->
<g id="edge31" class="edge">
<title>ID_138_ct0_st01234&#45;&gt;ID_138_ct0_st0124</title>
<path fill="none" stroke="black" d="M1048.66,-163.03C1063.5,-171.44 1080.66,-180.37 1097,-187 1107.14,-191.11 1118.03,-194.85 1128.87,-198.19"/>
<polygon fill="black" stroke="black" points="1128.2,-201.64 1138.78,-201.14 1130.2,-194.93 1128.2,-201.64"/>
<text text-anchor="start" x="1097" y="-198.8" font-family="arial" font-size="14.00" fill="#377eb8">true</text>
</g>
<!-- ID_138_ct0_st02&#45;&gt;ID_138_ct0_st0 -->
<g id="edge7" class="edge">
<title>ID_138_ct0_st02&#45;&gt;ID_138_ct0_st0</title>
<path fill="none" stroke="black" d="M560.55,-119.99C537.46,-107.18 507.58,-92.69 479,-85 416.52,-68.18 342.51,-64.68 290.36,-64.78"/>
<polygon fill="black" stroke="black" points="290.21,-61.29 280.23,-64.85 290.25,-68.28 290.21,-61.29"/>
<text text-anchor="start" x="408" y="-88.8" font-family="arial" font-size="14.00" fill="#377eb8">R&#39;</text>
</g>
<!-- ID_138_ct0_st02&#45;&gt;ID_138_ct0_st012 -->
<g id="edge10" class="edge">
<title>ID_138_ct0_st02&#45;&gt;ID_138_ct0_st012</title>
<path fill="none" stroke="black" d="M538.74,-145.55C524.97,-145.35 510.49,-144.89 497,-144 494.45,-143.83 491.85,-143.64 489.24,-143.42"/>
<polygon fill="black" stroke="black" points="489.33,-139.92 479.06,-142.5 488.7,-146.89 489.33,-139.92"/>
<text text-anchor="start" x="497" y="-148.8" font-family="arial" font-size="14.00" fill="#377eb8">true</text>
</g>
<!-- ID_138_ct0_st02&#45;&gt;ID_138_ct0_st01234 -->
<g id="edge11" class="edge">
<title>ID_138_ct0_st02&#45;&gt;ID_138_ct0_st01234</title>
<path fill="none" stroke="black" d="M666.39,-143.91C736.01,-142.7 848.43,-140.74 924.69,-139.41"/>
<polygon fill="black" stroke="black" points="924.8,-142.91 934.74,-139.24 924.68,-135.91 924.8,-142.91"/>
<text text-anchor="start" x="788.5" y="-145.8" font-family="arial" font-size="14.00" fill="#377eb8">true</text>
</g>
<!-- ID_138_ct0_st02&#45;&gt;ID_138_ct0_st02 -->
<g id="edge8" class="edge">
<title>ID_138_ct0_st02&#45;&gt;ID_138_ct0_st02</title>
<path fill="none" stroke="black" d="M585.32,-170.18C584.55,-179.91 590.28,-188 602.5,-188 610.14,-188 615.24,-184.84 617.8,-180.09"/>
<polygon fill="black" stroke="black" points="621.26,-180.65 619.68,-170.18 614.38,-179.35 621.26,-180.65"/>
<text text-anchor="start" x="590.5" y="-191.8" font-family="arial" font-size="14.00" fill="#377eb8">true</text>
</g>
<!-- ID_138_ct0_st02&#45;&gt;ID_138_ct0_st0234 -->
<g id="edge9" class="edge">
<title>ID_138_ct0_st02&#45;&gt;ID_138_ct0_st0234</title>
<path fill="none" stroke="black" d="M655.77,-170.07C681.03,-182.18 711.51,-196.8 737.89,-209.45"/>
<polygon fill="black" stroke="black" points="736.51,-212.67 747.04,-213.84 739.54,-206.36 736.51,-212.67"/>
<text text-anchor="start" x="684" y="-197.8" font-family="arial" font-size="14.00" fill="#377eb8">true</text>
</g>
<!-- ID_138_ct0_st0234&#45;&gt;ID_138_ct0_st01234 -->
<g id="edge28" class="edge">
<title>ID_138_ct0_st0234&#45;&gt;ID_138_ct0_st01234</title>
<path fill="none" stroke="black" d="M859.5,-213.98C878.02,-205.7 898.51,-196.24 917,-187 928.82,-181.1 941.34,-174.45 953.15,-168.01"/>
<polygon fill="black" stroke="black" points="954.93,-171.02 962.01,-163.13 951.56,-164.89 954.93,-171.02"/>
<text text-anchor="start" x="893" y="-200.8" font-family="arial" font-size="14.00" fill="#377eb8">true</text>
</g>
<!-- ID_138_ct0_st0234&#45;&gt;ID_138_ct0_st0234 -->
<g id="edge26" class="edge">
<title>ID_138_ct0_st0234&#45;&gt;ID_138_ct0_st0234</title>
<path fill="none" stroke="black" d="M781.08,-264.18C780.21,-273.91 786.69,-282 800.5,-282 809.13,-282 814.9,-278.84 817.8,-274.09"/>
<polygon fill="black" stroke="black" points="821.25,-274.69 819.92,-264.18 814.41,-273.22 821.25,-274.69"/>
<text text-anchor="start" x="788.5" y="-285.8" font-family="arial" font-size="14.00" fill="#377eb8">true</text>
</g>
<!-- ID_138_ct0_st0234&#45;&gt;ID_138_ct0_st024 -->
<g id="edge25" class="edge">
<title>ID_138_ct0_st0234&#45;&gt;ID_138_ct0_st024</title>
<path fill="none" stroke="black" d="M843.86,-264.15C869.38,-278.05 903.02,-294.23 935,-303 1081.17,-343.1 1130.6,-349.8 1276,-307 1315.65,-295.33 1350.89,-262.83 1373.47,-237.62"/>
<polygon fill="black" stroke="black" points="1376.13,-239.9 1380.06,-230.06 1370.85,-235.3 1376.13,-239.9"/>
<text text-anchor="start" x="1097" y="-339.8" font-family="arial" font-size="14.00" fill="#377eb8">true</text>
</g>
<!-- ID_138_ct0_st0234&#45;&gt;ID_138_ct0_st0124 -->
<g id="edge27" class="edge">
<title>ID_138_ct0_st0234&#45;&gt;ID_138_ct0_st0124</title>
<path fill="none" stroke="black" d="M869.44,-245.06C877.38,-245.73 885.37,-246.39 893,-247 975.42,-253.55 996.98,-260.44 1079,-250 1095.34,-247.92 1112.58,-244.4 1128.92,-240.41"/>
<polygon fill="black" stroke="black" points="1130.13,-243.71 1138.97,-237.87 1128.41,-236.93 1130.13,-243.71"/>
<text text-anchor="start" x="995" y="-258.8" font-family="arial" font-size="14.00" fill="#377eb8">true</text>
</g>
<!-- ID_138_ct0_st024&#45;&gt;ID_138_ct0_st01234 -->
<g id="edge20" class="edge">
<title>ID_138_ct0_st024&#45;&gt;ID_138_ct0_st01234</title>
<path fill="none" stroke="black" d="M1381.15,-179.75C1359.62,-152.84 1321.08,-112.53 1276,-101 1214.21,-85.19 1142.56,-96.56 1088.9,-110.73"/>
<polygon fill="black" stroke="black" points="1087.82,-107.4 1079.1,-113.4 1089.67,-114.15 1087.82,-107.4"/>
<text text-anchor="start" x="1195.5" y="-104.8" font-family="arial" font-size="14.00" fill="#377eb8">true</text>
</g>
<!-- ID_138_ct0_st024&#45;&gt;ID_138_ct0_st0234 -->
<g id="edge18" class="edge">
<title>ID_138_ct0_st024&#45;&gt;ID_138_ct0_st0234</title>
<path fill="none" stroke="black" d="M1370.93,-230.06C1347.3,-249.01 1311.91,-273.5 1276,-284 1140.23,-323.71 974.2,-290.32 878.86,-263.75"/>
<polygon fill="black" stroke="black" points="879.59,-260.32 869.01,-260.96 877.68,-267.05 879.59,-260.32"/>
<text text-anchor="start" x="1097" y="-305.8" font-family="arial" font-size="14.00" fill="#377eb8">true</text>
</g>
<!-- ID_138_ct0_st024&#45;&gt;ID_138_ct0_st024 -->
<g id="edge17" class="edge">
<title>ID_138_ct0_st024&#45;&gt;ID_138_ct0_st024</title>
<path fill="none" stroke="black" d="M1382.94,-230.18C1382.16,-239.91 1388.02,-248 1400.5,-248 1408.3,-248 1413.51,-244.84 1416.14,-240.09"/>
<polygon fill="black" stroke="black" points="1419.59,-240.66 1418.06,-230.18 1412.72,-239.33 1419.59,-240.66"/>
<text text-anchor="start" x="1388.5" y="-251.8" font-family="arial" font-size="14.00" fill="#377eb8">true</text>
</g>
<!-- ID_138_ct0_st024&#45;&gt;ID_138_ct0_st0124 -->
<g id="edge19" class="edge">
<title>ID_138_ct0_st024&#45;&gt;ID_138_ct0_st0124</title>
<path fill="none" stroke="black" d="M1335.82,-209C1319.94,-210 1302.73,-211.08 1286.25,-212.11"/>
<polygon fill="black" stroke="black" points="1285.87,-208.63 1276.11,-212.75 1286.31,-215.62 1285.87,-208.63"/>
<text text-anchor="start" x="1294" y="-214.8" font-family="arial" font-size="14.00" fill="#377eb8">true</text>
</g>
<!-- ID_138_ct0_st0124&#45;&gt;ID_138_ct0_st01234 -->
<g id="edge24" class="edge">
<title>ID_138_ct0_st0124&#45;&gt;ID_138_ct0_st01234</title>
<path fill="none" stroke="black" d="M1162.9,-191.99C1149.69,-184.98 1134.97,-177.72 1121,-172 1110.73,-167.8 1099.76,-163.86 1088.83,-160.25"/>
<polygon fill="black" stroke="black" points="1089.85,-156.9 1079.25,-157.16 1087.7,-163.56 1089.85,-156.9"/>
<text text-anchor="start" x="1097" y="-175.8" font-family="arial" font-size="14.00" fill="#377eb8">true</text>
</g>
<!-- ID_138_ct0_st0124&#45;&gt;ID_138_ct0_st0234 -->
<g id="edge22" class="edge">
<title>ID_138_ct0_st0124&#45;&gt;ID_138_ct0_st0234</title>
<path fill="none" stroke="black" d="M1138.83,-220.68C1067.36,-224.56 954.84,-230.67 879.64,-234.76"/>
<polygon fill="black" stroke="black" points="879.08,-231.28 869.29,-235.32 879.46,-238.27 879.08,-231.28"/>
<text text-anchor="start" x="995" y="-234.8" font-family="arial" font-size="14.00" fill="#377eb8">true</text>
</g>
<!-- ID_138_ct0_st0124&#45;&gt;ID_138_ct0_st024 -->
<g id="edge21" class="edge">
<title>ID_138_ct0_st0124&#45;&gt;ID_138_ct0_st024</title>
<path fill="none" stroke="black" d="M1276.22,-194.43C1282.18,-193.05 1288.17,-191.87 1294,-191 1304.25,-189.48 1315.07,-189.29 1325.72,-189.93"/>
<polygon fill="black" stroke="black" points="1325.6,-193.43 1335.86,-190.78 1326.18,-186.46 1325.6,-193.43"/>
<text text-anchor="start" x="1294" y="-194.8" font-family="arial" font-size="14.00" fill="#377eb8">true</text>
</g>
<!-- ID_138_ct0_st0124&#45;&gt;ID_138_ct0_st0124 -->
<g id="edge23" class="edge">
<title>ID_138_ct0_st0124&#45;&gt;ID_138_ct0_st0124</title>
<path fill="none" stroke="black" d="M1189.2,-242.18C1188.38,-251.91 1194.48,-260 1207.5,-260 1215.63,-260 1221.07,-256.84 1223.8,-252.09"/>
<polygon fill="black" stroke="black" points="1227.26,-252.67 1225.8,-242.18 1220.39,-251.29 1227.26,-252.67"/>
<text text-anchor="start" x="1195.5" y="-263.8" font-family="arial" font-size="14.00" fill="#377eb8">true</text>
</g>
</g>
</svg>
