<?xml version="1.0" encoding="UTF-8" standalone="no"?>
<!DOCTYPE svg PUBLIC "-//W3C//DTD SVG 1.1//EN"
 "http://www.w3.org/Graphics/SVG/1.1/DTD/svg11.dtd">
<!-- Generated by graphviz version 2.43.0 (0)
 -->
<!-- Title: G Pages: 1 -->
<svg width="1391pt" height="354pt"
 viewBox="0.00 0.00 1391.00 354.00" xmlns="http://www.w3.org/2000/svg" xmlns:xlink="http://www.w3.org/1999/xlink">
<g id="graph0" class="graph" transform="scale(1 1) rotate(0) translate(4 350)">
<title>G</title>
<polygon fill="white" stroke="transparent" points="-4,4 -4,-350 1387,-350 1387,4 -4,4"/>
<!-- _ID_3_ct0_st0 -->
<!-- ID_3_ct0_st0 -->
<g id="node2" class="node">
<title>ID_3_ct0_st0</title>
<polygon fill="none" stroke="black" points="250,-92 151,-92 151,-42 250,-42 250,-92"/>
<text text-anchor="start" x="159" y="-77.8" font-family="arial" font-weight="bold" font-size="14.00">ID_3_ct0_st0</text>
<text text-anchor="start" x="176" y="-63.8" font-family="arial" font-size="14.00" fill="#984ea3">(R || !Q)</text>
<text text-anchor="start" x="188.5" y="-49.8" font-family="arial" font-size="14.00" fill="#ff7f00">true</text>
</g>
<!-- _ID_3_ct0_st0&#45;&gt;ID_3_ct0_st0 -->
<g id="edge1" class="edge">
<title>_ID_3_ct0_st0&#45;&gt;ID_3_ct0_st0</title>
<path fill="none" stroke="black" d="M104.24,-67C116.1,-67 128.81,-67 140.96,-67"/>
<polygon fill="black" stroke="black" points="141,-70.5 151,-67 141,-63.5 141,-70.5"/>
</g>
<!-- ID_3_ct0_st0&#45;&gt;ID_3_ct0_st0 -->
<g id="edge4" class="edge">
<title>ID_3_ct0_st0&#45;&gt;ID_3_ct0_st0</title>
<path fill="none" stroke="black" d="M185.93,-92.18C185.28,-101.91 190.14,-110 200.5,-110 206.97,-110 211.3,-106.84 213.47,-102.09"/>
<polygon fill="black" stroke="black" points="216.94,-102.6 215.07,-92.18 210.03,-101.49 216.94,-102.6"/>
<text text-anchor="start" x="188.5" y="-113.8" font-family="arial" font-size="14.00" fill="#377eb8">true</text>
</g>
<!-- ID_3_ct0_st012 -->
<g id="node4" class="node">
<title>ID_3_ct0_st012</title>
<polygon fill="none" stroke="black" points="443,-159 320,-159 320,-109 443,-109 443,-159"/>
<text text-anchor="start" x="332.5" y="-144.8" font-family="arial" font-weight="bold" font-size="14.00">ID_3_ct0_st012</text>
<text text-anchor="start" x="328" y="-130.8" font-family="arial" font-size="14.00" fill="#984ea3">(Q &amp;&amp; (!R &amp;&amp; !S))</text>
<text text-anchor="start" x="369.5" y="-116.8" font-family="arial" font-size="14.00" fill="#ff7f00">true</text>
</g>
<!-- ID_3_ct0_st0&#45;&gt;ID_3_ct0_st012 -->
<g id="edge5" class="edge">
<title>ID_3_ct0_st0&#45;&gt;ID_3_ct0_st012</title>
<path fill="none" stroke="black" d="M250.05,-79.89C266.7,-84.74 285.33,-90.63 302,-97 308.24,-99.39 314.67,-102.06 321.05,-104.84"/>
<polygon fill="black" stroke="black" points="319.75,-108.1 330.31,-108.98 322.61,-101.7 319.75,-108.1"/>
<text text-anchor="start" x="278" y="-100.8" font-family="arial" font-size="14.00" fill="#377eb8">true</text>
</g>
<!-- ID_3_ct0_st01234 -->
<g id="node6" class="node">
<title>ID_3_ct0_st01234</title>
<polygon fill="none" stroke="black" points="1013,-163 884,-163 884,-113 1013,-113 1013,-163"/>
<text text-anchor="start" x="892" y="-148.8" font-family="arial" font-weight="bold" font-size="14.00">ID_3_ct0_st01234</text>
<text text-anchor="start" x="897" y="-134.8" font-family="arial" font-size="14.00" fill="#984ea3">(Q &amp;&amp; (!R &amp;&amp; S))</text>
<text text-anchor="start" x="936.5" y="-120.8" font-family="arial" font-size="14.00" fill="#ff7f00">true</text>
</g>
<!-- ID_3_ct0_st0&#45;&gt;ID_3_ct0_st01234 -->
<g id="edge6" class="edge">
<title>ID_3_ct0_st0&#45;&gt;ID_3_ct0_st01234</title>
<path fill="none" stroke="black" d="M242.91,-41.86C278.18,-22.85 330.89,0 380.5,0 380.5,0 380.5,0 758,0 828.82,0 890.92,-63.76 923.43,-104.6"/>
<polygon fill="black" stroke="black" points="920.82,-106.95 929.72,-112.69 926.34,-102.65 920.82,-106.95"/>
<text text-anchor="start" x="554.5" y="-3.8" font-family="arial" font-size="14.00" fill="#377eb8">true</text>
</g>
<!-- _ID_3_ct0_st012 -->
<!-- _ID_3_ct0_st012&#45;&gt;ID_3_ct0_st012 -->
<g id="edge2" class="edge">
<title>_ID_3_ct0_st012&#45;&gt;ID_3_ct0_st012</title>
<path fill="none" stroke="black" d="M260.05,-156.47C273.84,-154.53 288.46,-152.32 302,-150 304.52,-149.57 307.08,-149.12 309.67,-148.65"/>
<polygon fill="black" stroke="black" points="310.52,-152.05 319.72,-146.78 309.24,-145.17 310.52,-152.05"/>
</g>
<!-- ID_3_ct0_st012&#45;&gt;ID_3_ct0_st0 -->
<g id="edge12" class="edge">
<title>ID_3_ct0_st012&#45;&gt;ID_3_ct0_st0</title>
<path fill="none" stroke="black" d="M319.93,-124.36C305.91,-121.21 291.23,-117.15 278,-112 267.78,-108.02 257.32,-102.77 247.56,-97.27"/>
<polygon fill="black" stroke="black" points="249.21,-94.18 238.81,-92.17 245.69,-100.23 249.21,-94.18"/>
<text text-anchor="start" x="283.5" y="-122.8" font-family="arial" font-size="14.00" fill="#377eb8">R&#39;</text>
</g>
<!-- ID_3_ct0_st012&#45;&gt;ID_3_ct0_st012 -->
<g id="edge15" class="edge">
<title>ID_3_ct0_st012&#45;&gt;ID_3_ct0_st012</title>
<path fill="none" stroke="black" d="M364.69,-159.18C363.94,-168.91 369.55,-177 381.5,-177 388.97,-177 393.96,-173.84 396.47,-169.09"/>
<polygon fill="black" stroke="black" points="399.93,-169.65 398.31,-159.18 393.04,-168.37 399.93,-169.65"/>
<text text-anchor="start" x="369.5" y="-180.8" font-family="arial" font-size="14.00" fill="#377eb8">true</text>
</g>
<!-- ID_3_ct0_st012&#45;&gt;ID_3_ct0_st01234 -->
<g id="edge16" class="edge">
<title>ID_3_ct0_st012&#45;&gt;ID_3_ct0_st01234</title>
<path fill="none" stroke="black" d="M443.17,-120.1C462.21,-116.37 483.39,-112.85 503,-111 633.26,-98.71 785.54,-114.46 873.81,-126.56"/>
<polygon fill="black" stroke="black" points="873.34,-130.03 883.72,-127.94 874.3,-123.09 873.34,-130.03"/>
<text text-anchor="start" x="648" y="-110.8" font-family="arial" font-size="14.00" fill="#377eb8">true</text>
</g>
<!-- ID_3_ct0_st02 -->
<g id="node7" class="node">
<title>ID_3_ct0_st02</title>
<polygon fill="none" stroke="black" points="630,-170 503,-170 503,-120 630,-120 630,-170"/>
<text text-anchor="start" x="521" y="-155.8" font-family="arial" font-weight="bold" font-size="14.00">ID_3_ct0_st02</text>
<text text-anchor="start" x="511" y="-141.8" font-family="arial" font-size="14.00" fill="#984ea3">(!Q &amp;&amp; (!R &amp;&amp; !S))</text>
<text text-anchor="start" x="554.5" y="-127.8" font-family="arial" font-size="14.00" fill="#ff7f00">true</text>
</g>
<!-- ID_3_ct0_st012&#45;&gt;ID_3_ct0_st02 -->
<g id="edge13" class="edge">
<title>ID_3_ct0_st012&#45;&gt;ID_3_ct0_st02</title>
<path fill="none" stroke="black" d="M443,-124.48C456.82,-123.48 471.44,-123.34 485,-125 487.66,-125.32 490.35,-125.71 493.06,-126.14"/>
<polygon fill="black" stroke="black" points="492.48,-129.59 502.93,-127.89 493.7,-122.7 492.48,-129.59"/>
<text text-anchor="start" x="461" y="-128.8" font-family="arial" font-size="14.00" fill="#377eb8">true</text>
</g>
<!-- ID_3_ct0_st0234 -->
<g id="node8" class="node">
<title>ID_3_ct0_st0234</title>
<polygon fill="none" stroke="black" points="818.5,-264 695.5,-264 695.5,-214 818.5,-214 818.5,-264"/>
<text text-anchor="start" x="704" y="-249.8" font-family="arial" font-weight="bold" font-size="14.00">ID_3_ct0_st0234</text>
<text text-anchor="start" x="703.5" y="-235.8" font-family="arial" font-size="14.00" fill="#984ea3">(!Q &amp;&amp; (!R &amp;&amp; S))</text>
<text text-anchor="start" x="745" y="-221.8" font-family="arial" font-size="14.00" fill="#ff7f00">true</text>
</g>
<!-- ID_3_ct0_st012&#45;&gt;ID_3_ct0_st0234 -->
<g id="edge14" class="edge">
<title>ID_3_ct0_st012&#45;&gt;ID_3_ct0_st0234</title>
<path fill="none" stroke="black" d="M412.57,-159.22C435.75,-177.16 469.41,-200.1 503,-212 562.14,-232.95 633.53,-238.96 685.38,-240.17"/>
<polygon fill="black" stroke="black" points="685.42,-243.67 695.48,-240.34 685.54,-236.67 685.42,-243.67"/>
<text text-anchor="start" x="554.5" y="-239.8" font-family="arial" font-size="14.00" fill="#377eb8">true</text>
</g>
<!-- _ID_3_ct0_st01234 -->
<!-- _ID_3_ct0_st01234&#45;&gt;ID_3_ct0_st01234 -->
<g id="edge3" class="edge">
<title>_ID_3_ct0_st01234&#45;&gt;ID_3_ct0_st01234</title>
<path fill="none" stroke="black" d="M824.21,-61.67C838.35,-66.09 852.95,-71.51 866,-78 881.5,-85.71 897.15,-96.37 910.53,-106.58"/>
<polygon fill="black" stroke="black" points="908.51,-109.44 918.55,-112.84 912.82,-103.92 908.51,-109.44"/>
</g>
<!-- ID_3_ct0_st01234&#45;&gt;ID_3_ct0_st01234 -->
<g id="edge32" class="edge">
<title>ID_3_ct0_st01234&#45;&gt;ID_3_ct0_st01234</title>
<path fill="none" stroke="black" d="M930.94,-163.18C930.16,-172.91 936.02,-181 948.5,-181 956.3,-181 961.51,-177.84 964.14,-173.09"/>
<polygon fill="black" stroke="black" points="967.59,-173.66 966.06,-163.18 960.72,-172.33 967.59,-173.66"/>
<text text-anchor="start" x="936.5" y="-184.8" font-family="arial" font-size="14.00" fill="#377eb8">true</text>
</g>
<!-- ID_3_ct0_st01234&#45;&gt;ID_3_ct0_st0234 -->
<g id="edge30" class="edge">
<title>ID_3_ct0_st01234&#45;&gt;ID_3_ct0_st0234</title>
<path fill="none" stroke="black" d="M883.87,-151.38C869.64,-155.65 854.94,-161.11 842,-168 822.91,-178.17 804.27,-193.23 789.42,-206.88"/>
<polygon fill="black" stroke="black" points="786.9,-204.44 782.02,-213.85 791.7,-209.54 786.9,-204.44"/>
<text text-anchor="start" x="842" y="-171.8" font-family="arial" font-size="14.00" fill="#377eb8">true</text>
</g>
<!-- ID_3_ct0_st024 -->
<g id="node9" class="node">
<title>ID_3_ct0_st024</title>
<polygon fill="none" stroke="black" points="1383,-230 1256,-230 1256,-180 1383,-180 1383,-230"/>
<text text-anchor="start" x="1270.5" y="-215.8" font-family="arial" font-weight="bold" font-size="14.00">ID_3_ct0_st024</text>
<text text-anchor="start" x="1264" y="-201.8" font-family="arial" font-size="14.00" fill="#984ea3">(!Q &amp;&amp; (!R &amp;&amp; !S))</text>
<text text-anchor="start" x="1307.5" y="-187.8" font-family="arial" font-size="14.00" fill="#ff7f00">true</text>
</g>
<!-- ID_3_ct0_st01234&#45;&gt;ID_3_ct0_st024 -->
<g id="edge29" class="edge">
<title>ID_3_ct0_st01234&#45;&gt;ID_3_ct0_st024</title>
<path fill="none" stroke="black" d="M1013.06,-142.71C1063.14,-147.14 1134.51,-155.07 1196,-168 1212.29,-171.43 1229.55,-176.02 1245.8,-180.8"/>
<polygon fill="black" stroke="black" points="1245.19,-184.27 1255.77,-183.79 1247.2,-177.56 1245.19,-184.27"/>
<text text-anchor="start" x="1122.5" y="-171.8" font-family="arial" font-size="14.00" fill="#377eb8">true</text>
</g>
<!-- ID_3_ct0_st0124 -->
<g id="node10" class="node">
<title>ID_3_ct0_st0124</title>
<polygon fill="none" stroke="black" points="1196,-242 1073,-242 1073,-192 1196,-192 1196,-242"/>
<text text-anchor="start" x="1081.5" y="-227.8" font-family="arial" font-weight="bold" font-size="14.00">ID_3_ct0_st0124</text>
<text text-anchor="start" x="1081" y="-213.8" font-family="arial" font-size="14.00" fill="#984ea3">(Q &amp;&amp; (!R &amp;&amp; !S))</text>
<text text-anchor="start" x="1122.5" y="-199.8" font-family="arial" font-size="14.00" fill="#ff7f00">true</text>
</g>
<!-- ID_3_ct0_st01234&#45;&gt;ID_3_ct0_st0124 -->
<g id="edge31" class="edge">
<title>ID_3_ct0_st01234&#45;&gt;ID_3_ct0_st0124</title>
<path fill="none" stroke="black" d="M986.56,-163.03C1000.13,-171.45 1015.88,-180.37 1031,-187 1041.25,-191.49 1052.35,-195.53 1063.35,-199.08"/>
<polygon fill="black" stroke="black" points="1062.37,-202.44 1072.96,-202.08 1064.45,-195.76 1062.37,-202.44"/>
<text text-anchor="start" x="1031" y="-198.8" font-family="arial" font-size="14.00" fill="#377eb8">true</text>
</g>
<!-- ID_3_ct0_st02&#45;&gt;ID_3_ct0_st0 -->
<g id="edge7" class="edge">
<title>ID_3_ct0_st02&#45;&gt;ID_3_ct0_st0</title>
<path fill="none" stroke="black" d="M524.26,-119.88C501.21,-107.12 471.45,-92.72 443,-85 382.2,-68.5 309.84,-65.15 260.28,-65.21"/>
<polygon fill="black" stroke="black" points="260.04,-61.71 250.06,-65.27 260.08,-68.71 260.04,-61.71"/>
<text text-anchor="start" x="375" y="-88.8" font-family="arial" font-size="14.00" fill="#377eb8">R&#39;</text>
</g>
<!-- ID_3_ct0_st02&#45;&gt;ID_3_ct0_st012 -->
<g id="edge10" class="edge">
<title>ID_3_ct0_st02&#45;&gt;ID_3_ct0_st012</title>
<path fill="none" stroke="black" d="M502.73,-145.59C488.97,-145.39 474.49,-144.92 461,-144 458.48,-143.83 455.92,-143.63 453.33,-143.41"/>
<polygon fill="black" stroke="black" points="453.57,-139.92 443.29,-142.46 452.91,-146.88 453.57,-139.92"/>
<text text-anchor="start" x="461" y="-148.8" font-family="arial" font-size="14.00" fill="#377eb8">true</text>
</g>
<!-- ID_3_ct0_st02&#45;&gt;ID_3_ct0_st01234 -->
<g id="edge11" class="edge">
<title>ID_3_ct0_st02&#45;&gt;ID_3_ct0_st01234</title>
<path fill="none" stroke="black" d="M630.25,-143.84C697.06,-142.61 802.71,-140.67 873.52,-139.36"/>
<polygon fill="black" stroke="black" points="873.77,-142.86 883.71,-139.18 873.64,-135.86 873.77,-142.86"/>
<text text-anchor="start" x="745" y="-145.8" font-family="arial" font-size="14.00" fill="#377eb8">true</text>
</g>
<!-- ID_3_ct0_st02&#45;&gt;ID_3_ct0_st02 -->
<g id="edge8" class="edge">
<title>ID_3_ct0_st02&#45;&gt;ID_3_ct0_st02</title>
<path fill="none" stroke="black" d="M549.32,-170.18C548.55,-179.91 554.28,-188 566.5,-188 574.14,-188 579.24,-184.84 581.8,-180.09"/>
<polygon fill="black" stroke="black" points="585.26,-180.65 583.68,-170.18 578.38,-179.35 585.26,-180.65"/>
<text text-anchor="start" x="554.5" y="-191.8" font-family="arial" font-size="14.00" fill="#377eb8">true</text>
</g>
<!-- ID_3_ct0_st02&#45;&gt;ID_3_ct0_st0234 -->
<g id="edge9" class="edge">
<title>ID_3_ct0_st02&#45;&gt;ID_3_ct0_st0234</title>
<path fill="none" stroke="black" d="M618.01,-170.19C642.2,-182.25 671.32,-196.77 696.56,-209.36"/>
<polygon fill="black" stroke="black" points="695.16,-212.57 705.67,-213.9 698.29,-206.31 695.16,-212.57"/>
<text text-anchor="start" x="648" y="-197.8" font-family="arial" font-size="14.00" fill="#377eb8">true</text>
</g>
<!-- ID_3_ct0_st0234&#45;&gt;ID_3_ct0_st01234 -->
<g id="edge28" class="edge">
<title>ID_3_ct0_st0234&#45;&gt;ID_3_ct0_st01234</title>
<path fill="none" stroke="black" d="M812.61,-213.92C829.86,-205.67 848.88,-196.24 866,-187 876.67,-181.24 887.92,-174.75 898.55,-168.43"/>
<polygon fill="black" stroke="black" points="900.53,-171.32 907.3,-163.18 896.93,-165.32 900.53,-171.32"/>
<text text-anchor="start" x="842" y="-202.8" font-family="arial" font-size="14.00" fill="#377eb8">true</text>
</g>
<!-- ID_3_ct0_st0234&#45;&gt;ID_3_ct0_st0234 -->
<g id="edge26" class="edge">
<title>ID_3_ct0_st0234&#45;&gt;ID_3_ct0_st0234</title>
<path fill="none" stroke="black" d="M739.07,-264.18C738.27,-273.91 744.25,-282 757,-282 764.97,-282 770.29,-278.84 772.97,-274.09"/>
<polygon fill="black" stroke="black" points="776.42,-274.66 774.93,-264.18 769.56,-273.31 776.42,-274.66"/>
<text text-anchor="start" x="745" y="-285.8" font-family="arial" font-size="14.00" fill="#377eb8">true</text>
</g>
<!-- ID_3_ct0_st0234&#45;&gt;ID_3_ct0_st024 -->
<g id="edge25" class="edge">
<title>ID_3_ct0_st0234&#45;&gt;ID_3_ct0_st024</title>
<path fill="none" stroke="black" d="M798.68,-264.06C822.62,-277.5 853.99,-292.91 884,-301 1017.9,-337.1 1062.63,-344.03 1196,-306 1234.99,-294.88 1269.61,-263.2 1292.02,-238.25"/>
<polygon fill="black" stroke="black" points="1294.91,-240.26 1298.85,-230.43 1289.64,-235.66 1294.91,-240.26"/>
<text text-anchor="start" x="1031" y="-334.8" font-family="arial" font-size="14.00" fill="#377eb8">true</text>
</g>
<!-- ID_3_ct0_st0234&#45;&gt;ID_3_ct0_st0124 -->
<g id="edge27" class="edge">
<title>ID_3_ct0_st0234&#45;&gt;ID_3_ct0_st0124</title>
<path fill="none" stroke="black" d="M818.55,-244.94C826.44,-245.66 834.41,-246.37 842,-247 917.75,-253.31 937.67,-260.13 1013,-250 1029.38,-247.8 1046.68,-243.98 1062.91,-239.71"/>
<polygon fill="black" stroke="black" points="1064.12,-243.01 1072.85,-237 1062.28,-236.25 1064.12,-243.01"/>
<text text-anchor="start" x="936.5" y="-258.8" font-family="arial" font-size="14.00" fill="#377eb8">true</text>
</g>
<!-- ID_3_ct0_st024&#45;&gt;ID_3_ct0_st01234 -->
<g id="edge20" class="edge">
<title>ID_3_ct0_st024&#45;&gt;ID_3_ct0_st01234</title>
<path fill="none" stroke="black" d="M1300.36,-179.73C1279.05,-152.8 1240.87,-112.48 1196,-101 1138.62,-86.32 1072.13,-97.91 1022.68,-111.88"/>
<polygon fill="black" stroke="black" points="1021.64,-108.54 1013.02,-114.7 1023.6,-115.26 1021.64,-108.54"/>
<text text-anchor="start" x="1122.5" y="-104.8" font-family="arial" font-size="14.00" fill="#377eb8">true</text>
</g>
<!-- ID_3_ct0_st024&#45;&gt;ID_3_ct0_st0234 -->
<g id="edge18" class="edge">
<title>ID_3_ct0_st024&#45;&gt;ID_3_ct0_st0234</title>
<path fill="none" stroke="black" d="M1290.2,-230.05C1266.78,-249 1231.69,-273.49 1196,-284 1070.19,-321.05 916.28,-288.23 828.45,-262.55"/>
<polygon fill="black" stroke="black" points="829.44,-259.19 818.85,-259.69 827.44,-265.9 829.44,-259.19"/>
<text text-anchor="start" x="1031" y="-303.8" font-family="arial" font-size="14.00" fill="#377eb8">true</text>
</g>
<!-- ID_3_ct0_st024&#45;&gt;ID_3_ct0_st024 -->
<g id="edge17" class="edge">
<title>ID_3_ct0_st024&#45;&gt;ID_3_ct0_st024</title>
<path fill="none" stroke="black" d="M1302.32,-230.18C1301.55,-239.91 1307.28,-248 1319.5,-248 1327.14,-248 1332.24,-244.84 1334.8,-240.09"/>
<polygon fill="black" stroke="black" points="1338.26,-240.65 1336.68,-230.18 1331.38,-239.35 1338.26,-240.65"/>
<text text-anchor="start" x="1307.5" y="-251.8" font-family="arial" font-size="14.00" fill="#377eb8">true</text>
</g>
<!-- ID_3_ct0_st024&#45;&gt;ID_3_ct0_st0124 -->
<g id="edge19" class="edge">
<title>ID_3_ct0_st024&#45;&gt;ID_3_ct0_st0124</title>
<path fill="none" stroke="black" d="M1255.79,-209.11C1239.82,-210.16 1222.55,-211.29 1206.21,-212.36"/>
<polygon fill="black" stroke="black" points="1205.93,-208.87 1196.18,-213.02 1206.39,-215.86 1205.93,-208.87"/>
<text text-anchor="start" x="1214" y="-214.8" font-family="arial" font-size="14.00" fill="#377eb8">true</text>
</g>
<!-- ID_3_ct0_st0124&#45;&gt;ID_3_ct0_st01234 -->
<g id="edge24" class="edge">
<title>ID_3_ct0_st0124&#45;&gt;ID_3_ct0_st01234</title>
<path fill="none" stroke="black" d="M1093.6,-191.98C1081.47,-184.97 1067.93,-177.72 1055,-172 1044.72,-167.46 1033.64,-163.22 1022.66,-159.38"/>
<polygon fill="black" stroke="black" points="1023.66,-156.02 1013.06,-156.11 1021.4,-162.65 1023.66,-156.02"/>
<text text-anchor="start" x="1031" y="-175.8" font-family="arial" font-size="14.00" fill="#377eb8">true</text>
</g>
<!-- ID_3_ct0_st0124&#45;&gt;ID_3_ct0_st0234 -->
<g id="edge22" class="edge">
<title>ID_3_ct0_st0124&#45;&gt;ID_3_ct0_st0234</title>
<path fill="none" stroke="black" d="M1072.84,-220.55C1006.2,-224.46 899.31,-230.72 828.87,-234.85"/>
<polygon fill="black" stroke="black" points="828.53,-231.36 818.75,-235.44 828.94,-238.35 828.53,-231.36"/>
<text text-anchor="start" x="936.5" y="-234.8" font-family="arial" font-size="14.00" fill="#377eb8">true</text>
</g>
<!-- ID_3_ct0_st0124&#45;&gt;ID_3_ct0_st024 -->
<g id="edge21" class="edge">
<title>ID_3_ct0_st0124&#45;&gt;ID_3_ct0_st024</title>
<path fill="none" stroke="black" d="M1196.31,-194.77C1202.23,-193.24 1208.19,-191.94 1214,-191 1224.27,-189.34 1235.13,-189.11 1245.81,-189.76"/>
<polygon fill="black" stroke="black" points="1245.72,-193.26 1255.98,-190.62 1246.31,-186.29 1245.72,-193.26"/>
<text text-anchor="start" x="1214" y="-194.8" font-family="arial" font-size="14.00" fill="#377eb8">true</text>
</g>
<!-- ID_3_ct0_st0124&#45;&gt;ID_3_ct0_st0124 -->
<g id="edge23" class="edge">
<title>ID_3_ct0_st0124&#45;&gt;ID_3_ct0_st0124</title>
<path fill="none" stroke="black" d="M1117.69,-242.18C1116.94,-251.91 1122.55,-260 1134.5,-260 1141.97,-260 1146.96,-256.84 1149.47,-252.09"/>
<polygon fill="black" stroke="black" points="1152.93,-252.65 1151.31,-242.18 1146.04,-251.37 1152.93,-252.65"/>
<text text-anchor="start" x="1122.5" y="-263.8" font-family="arial" font-size="14.00" fill="#377eb8">true</text>
</g>
</g>
</svg>
