<?xml version="1.0" encoding="UTF-8" standalone="no"?>
<!DOCTYPE svg PUBLIC "-//W3C//DTD SVG 1.1//EN"
 "http://www.w3.org/Graphics/SVG/1.1/DTD/svg11.dtd">
<!-- Generated by graphviz version 2.43.0 (0)
 -->
<!-- Title: G Pages: 1 -->
<svg width="612pt" height="145pt"
 viewBox="0.00 0.00 612.00 145.00" xmlns="http://www.w3.org/2000/svg" xmlns:xlink="http://www.w3.org/1999/xlink">
<g id="graph0" class="graph" transform="scale(1 1) rotate(0) translate(4 141)">
<title>G</title>
<polygon fill="white" stroke="transparent" points="-4,4 -4,-141 608,-141 608,4 -4,4"/>
<!-- _ID_5_ct0_st0 -->
<!-- ID_5_ct0_st0 -->
<g id="node2" class="node">
<title>ID_5_ct0_st0</title>
<polygon fill="none" stroke="black" points="250,-104 151,-104 151,-54 250,-54 250,-104"/>
<text text-anchor="start" x="159" y="-89.8" font-family="arial" font-weight="bold" font-size="14.00">ID_5_ct0_st0</text>
<text text-anchor="start" x="194" y="-75.8" font-family="arial" font-size="14.00" fill="#984ea3">!P</text>
<text text-anchor="start" x="188.5" y="-61.8" font-family="arial" font-size="14.00" fill="#ff7f00">true</text>
</g>
<!-- _ID_5_ct0_st0&#45;&gt;ID_5_ct0_st0 -->
<g id="edge1" class="edge">
<title>_ID_5_ct0_st0&#45;&gt;ID_5_ct0_st0</title>
<path fill="none" stroke="black" d="M104.24,-79C116.1,-79 128.81,-79 140.96,-79"/>
<polygon fill="black" stroke="black" points="141,-82.5 151,-79 141,-75.5 141,-82.5"/>
</g>
<!-- ID_5_ct0_st0&#45;&gt;ID_5_ct0_st0 -->
<g id="edge3" class="edge">
<title>ID_5_ct0_st0&#45;&gt;ID_5_ct0_st0</title>
<path fill="none" stroke="black" d="M185.93,-104.18C185.28,-113.91 190.14,-122 200.5,-122 206.97,-122 211.3,-118.84 213.47,-114.09"/>
<polygon fill="black" stroke="black" points="216.94,-114.6 215.07,-104.18 210.03,-113.49 216.94,-114.6"/>
<text text-anchor="start" x="188.5" y="-125.8" font-family="arial" font-size="14.00" fill="#377eb8">true</text>
</g>
<!-- ID_5_ct0_st012 -->
<g id="node4" class="node">
<title>ID_5_ct0_st012</title>
<polygon fill="none" stroke="black" points="434,-59 320,-59 320,-9 434,-9 434,-59"/>
<text text-anchor="start" x="328" y="-44.8" font-family="arial" font-weight="bold" font-size="14.00">ID_5_ct0_st012</text>
<text text-anchor="start" x="331.5" y="-30.8" font-family="arial" font-size="14.00" fill="#984ea3">(P &amp;&amp; (S || !R))</text>
<text text-anchor="start" x="365" y="-16.8" font-family="arial" font-size="14.00" fill="#ff7f00">true</text>
</g>
<!-- ID_5_ct0_st0&#45;&gt;ID_5_ct0_st012 -->
<g id="edge4" class="edge">
<title>ID_5_ct0_st0&#45;&gt;ID_5_ct0_st012</title>
<path fill="none" stroke="black" d="M250.11,-66.46C268.66,-61.68 290.12,-56.15 310.02,-51.01"/>
<polygon fill="black" stroke="black" points="311.14,-54.34 319.95,-48.45 309.39,-47.56 311.14,-54.34"/>
<text text-anchor="start" x="278" y="-63.8" font-family="arial" font-size="14.00" fill="#377eb8">true</text>
</g>
<!-- _ID_5_ct0_st012 -->
<!-- _ID_5_ct0_st012&#45;&gt;ID_5_ct0_st012 -->
<g id="edge2" class="edge">
<title>_ID_5_ct0_st012&#45;&gt;ID_5_ct0_st012</title>
<path fill="none" stroke="black" d="M260.09,-23.37C276.08,-24.84 293.51,-26.44 309.89,-27.94"/>
<polygon fill="black" stroke="black" points="309.65,-31.43 319.93,-28.86 310.29,-24.46 309.65,-31.43"/>
</g>
<!-- ID_5_ct0_st012&#45;&gt;ID_5_ct0_st012 -->
<g id="edge8" class="edge">
<title>ID_5_ct0_st012&#45;&gt;ID_5_ct0_st012</title>
<path fill="none" stroke="black" d="M360.94,-59.18C360.22,-68.91 365.58,-77 377,-77 384.14,-77 388.91,-73.84 391.31,-69.09"/>
<polygon fill="black" stroke="black" points="394.76,-69.63 393.06,-59.18 387.87,-68.41 394.76,-69.63"/>
<text text-anchor="start" x="365" y="-80.8" font-family="arial" font-size="14.00" fill="#377eb8">true</text>
</g>
<!-- ID_5_ct0_st02 -->
<g id="node5" class="node">
<title>ID_5_ct0_st02</title>
<polygon fill="none" stroke="black" points="604,-59 494,-59 494,-9 604,-9 604,-59"/>
<text text-anchor="start" x="503.5" y="-44.8" font-family="arial" font-weight="bold" font-size="14.00">ID_5_ct0_st02</text>
<text text-anchor="start" x="502" y="-30.8" font-family="arial" font-size="14.00" fill="#984ea3">(!P &amp;&amp; (S || !R))</text>
<text text-anchor="start" x="537" y="-16.8" font-family="arial" font-size="14.00" fill="#ff7f00">true</text>
</g>
<!-- ID_5_ct0_st012&#45;&gt;ID_5_ct0_st02 -->
<g id="edge7" class="edge">
<title>ID_5_ct0_st012&#45;&gt;ID_5_ct0_st02</title>
<path fill="none" stroke="black" d="M434.14,-34C450.07,-34 467.55,-34 483.92,-34"/>
<polygon fill="black" stroke="black" points="483.95,-37.5 493.95,-34 483.95,-30.5 483.95,-37.5"/>
<text text-anchor="start" x="452" y="-37.8" font-family="arial" font-size="14.00" fill="#377eb8">true</text>
</g>
<!-- ID_5_ct0_st02&#45;&gt;ID_5_ct0_st012 -->
<g id="edge6" class="edge">
<title>ID_5_ct0_st02&#45;&gt;ID_5_ct0_st012</title>
<path fill="none" stroke="black" d="M493.62,-18.92C487.71,-17.72 481.75,-16.71 476,-16 465.66,-14.73 454.75,-15.05 444.13,-16.29"/>
<polygon fill="black" stroke="black" points="443.45,-12.85 434.05,-17.73 444.45,-19.78 443.45,-12.85"/>
<text text-anchor="start" x="452" y="-19.8" font-family="arial" font-size="14.00" fill="#377eb8">true</text>
</g>
<!-- ID_5_ct0_st02&#45;&gt;ID_5_ct0_st02 -->
<g id="edge5" class="edge">
<title>ID_5_ct0_st02&#45;&gt;ID_5_ct0_st02</title>
<path fill="none" stroke="black" d="M533.31,-59.18C532.61,-68.91 537.84,-77 549,-77 555.97,-77 560.63,-73.84 562.97,-69.09"/>
<polygon fill="black" stroke="black" points="566.43,-69.63 564.69,-59.18 559.53,-68.43 566.43,-69.63"/>
<text text-anchor="start" x="537" y="-80.8" font-family="arial" font-size="14.00" fill="#377eb8">true</text>
</g>
</g>
</svg>
