<?xml version="1.0" encoding="UTF-8" standalone="no"?>
<!DOCTYPE svg PUBLIC "-//W3C//DTD SVG 1.1//EN"
 "http://www.w3.org/Graphics/SVG/1.1/DTD/svg11.dtd">
<!-- Generated by graphviz version 2.43.0 (0)
 -->
<!-- Title: G Pages: 1 -->
<svg width="164pt" height="91pt"
 viewBox="0.00 0.00 164.00 91.00" xmlns="http://www.w3.org/2000/svg" xmlns:xlink="http://www.w3.org/1999/xlink">
<g id="graph0" class="graph" transform="scale(1 1) rotate(0) translate(4 87)">
<title>G</title>
<polygon fill="white" stroke="transparent" points="-4,4 -4,-87 160,-87 160,4 -4,4"/>
<!-- _st0 -->
<!-- st0 -->
<g id="node2" class="node">
<title>st0</title>
<polygon fill="none" stroke="black" points="156,-50 91,-50 91,0 156,0 156,-50"/>
<text text-anchor="start" x="113.5" y="-35.8" font-family="arial" font-weight="bold" font-size="14.00">st0</text>
<text text-anchor="start" x="99" y="-21.8" font-family="arial" font-size="14.00" fill="#984ea3">(Q || !R)</text>
<text text-anchor="start" x="111.5" y="-7.8" font-family="arial" font-size="14.00" fill="#ff7f00">true</text>
</g>
<!-- _st0&#45;&gt;st0 -->
<g id="edge1" class="edge">
<title>_st0&#45;&gt;st0</title>
<path fill="none" stroke="black" d="M54.07,-25C62.33,-25 71.67,-25 80.74,-25"/>
<polygon fill="black" stroke="black" points="80.79,-28.5 90.79,-25 80.79,-21.5 80.79,-28.5"/>
</g>
<!-- st0&#45;&gt;st0 -->
<g id="edge2" class="edge">
<title>st0&#45;&gt;st0</title>
<path fill="none" stroke="black" d="M114.16,-50.18C113.75,-59.91 116.86,-68 123.5,-68 127.55,-68 130.28,-65 131.71,-60.45"/>
<polygon fill="black" stroke="black" points="135.23,-60.5 132.84,-50.18 128.27,-59.73 135.23,-60.5"/>
<text text-anchor="start" x="111.5" y="-71.8" font-family="arial" font-size="14.00" fill="#377eb8">true</text>
</g>
</g>
</svg>
