<?xml version="1.0" encoding="UTF-8" standalone="no"?>
<!DOCTYPE svg PUBLIC "-//W3C//DTD SVG 1.1//EN"
 "http://www.w3.org/Graphics/SVG/1.1/DTD/svg11.dtd">
<!-- Generated by graphviz version 2.43.0 (0)
 -->
<!-- Title: G Pages: 1 -->
<svg width="422pt" height="192pt"
 viewBox="0.00 0.00 422.00 192.00" xmlns="http://www.w3.org/2000/svg" xmlns:xlink="http://www.w3.org/1999/xlink">
<g id="graph0" class="graph" transform="scale(1 1) rotate(0) translate(4 188)">
<title>G</title>
<polygon fill="white" stroke="transparent" points="-4,4 -4,-188 418,-188 418,4 -4,4"/>
<!-- _ID_7_ct0_stinit -->
<!-- ID_7_ct0_stinit -->
<g id="node2" class="node">
<title>ID_7_ct0_stinit</title>
<polygon fill="none" stroke="black" points="262,-151 150,-151 150,-101 262,-101 262,-151"/>
<text text-anchor="start" x="158" y="-136.8" font-family="arial" font-weight="bold" font-size="14.00">ID_7_ct0_stinit</text>
<text text-anchor="start" x="201" y="-122.8" font-family="arial" font-size="14.00" fill="#984ea3">P</text>
<text text-anchor="start" x="194" y="-108.8" font-family="arial" font-size="14.00" fill="#ff7f00">true</text>
</g>
<!-- _ID_7_ct0_stinit&#45;&gt;ID_7_ct0_stinit -->
<g id="edge1" class="edge">
<title>_ID_7_ct0_stinit&#45;&gt;ID_7_ct0_stinit</title>
<path fill="none" stroke="black" d="M113.26,-126C121.82,-126 130.73,-126 139.48,-126"/>
<polygon fill="black" stroke="black" points="139.65,-129.5 149.65,-126 139.65,-122.5 139.65,-129.5"/>
</g>
<!-- ID_7_ct0_stinit&#45;&gt;ID_7_ct0_stinit -->
<g id="edge4" class="edge">
<title>ID_7_ct0_stinit&#45;&gt;ID_7_ct0_stinit</title>
<path fill="none" stroke="black" d="M192.18,-151.18C191.56,-160.91 196.17,-169 206,-169 212.14,-169 216.25,-165.84 218.31,-161.09"/>
<polygon fill="black" stroke="black" points="221.77,-161.59 219.82,-151.18 214.85,-160.53 221.77,-161.59"/>
<text text-anchor="start" x="194" y="-172.8" font-family="arial" font-size="14.00" fill="#377eb8">true</text>
</g>
<!-- ID_7_ct0_st -->
<g id="node5" class="node">
<title>ID_7_ct0_st</title>
<polygon fill="none" stroke="black" points="414,-100 322,-100 322,-50 414,-50 414,-100"/>
<text text-anchor="start" x="330" y="-85.8" font-family="arial" font-weight="bold" font-size="14.00">ID_7_ct0_st</text>
<text text-anchor="start" x="356" y="-71.8" font-family="arial" font-size="14.00" fill="#984ea3">true</text>
<text text-anchor="start" x="356" y="-57.8" font-family="arial" font-size="14.00" fill="#ff7f00">true</text>
</g>
<!-- ID_7_ct0_stinit&#45;&gt;ID_7_ct0_st -->
<g id="edge3" class="edge">
<title>ID_7_ct0_stinit&#45;&gt;ID_7_ct0_st</title>
<path fill="none" stroke="black" d="M262.06,-108.45C278.23,-103.29 295.91,-97.66 312.07,-92.51"/>
<polygon fill="black" stroke="black" points="313.45,-95.74 321.91,-89.37 311.32,-89.07 313.45,-95.74"/>
<text text-anchor="start" x="280" y="-105.8" font-family="arial" font-size="14.00" fill="#377eb8">true</text>
</g>
<!-- _ID_7_ct0_st0 -->
<!-- ID_7_ct0_st0 -->
<g id="node4" class="node">
<title>ID_7_ct0_st0</title>
<polygon fill="none" stroke="black" points="261,-50 151,-50 151,0 261,0 261,-50"/>
<text text-anchor="start" x="164.5" y="-35.8" font-family="arial" font-weight="bold" font-size="14.00">ID_7_ct0_st0</text>
<text text-anchor="start" x="159" y="-21.8" font-family="arial" font-size="14.00" fill="#984ea3">(!P &amp;&amp; (S || !R))</text>
<text text-anchor="start" x="194" y="-7.8" font-family="arial" font-size="14.00" fill="#ff7f00">true</text>
</g>
<!-- _ID_7_ct0_st0&#45;&gt;ID_7_ct0_st0 -->
<g id="edge2" class="edge">
<title>_ID_7_ct0_st0&#45;&gt;ID_7_ct0_st0</title>
<path fill="none" stroke="black" d="M108.67,-25C119.02,-25 130.01,-25 140.74,-25"/>
<polygon fill="black" stroke="black" points="140.9,-28.5 150.9,-25 140.9,-21.5 140.9,-28.5"/>
</g>
<!-- ID_7_ct0_st0&#45;&gt;ID_7_ct0_st0 -->
<g id="edge7" class="edge">
<title>ID_7_ct0_st0&#45;&gt;ID_7_ct0_st0</title>
<path fill="none" stroke="black" d="M192.18,-50.18C191.56,-59.91 196.17,-68 206,-68 212.14,-68 216.25,-64.84 218.31,-60.09"/>
<polygon fill="black" stroke="black" points="221.77,-60.59 219.82,-50.18 214.85,-59.53 221.77,-60.59"/>
<text text-anchor="start" x="194" y="-71.8" font-family="arial" font-size="14.00" fill="#377eb8">true</text>
</g>
<!-- ID_7_ct0_st0&#45;&gt;ID_7_ct0_st -->
<g id="edge6" class="edge">
<title>ID_7_ct0_st0&#45;&gt;ID_7_ct0_st</title>
<path fill="none" stroke="black" d="M261.17,-41.93C277.54,-47.04 295.52,-52.66 311.94,-57.79"/>
<polygon fill="black" stroke="black" points="311.35,-61.28 321.94,-60.92 313.44,-54.59 311.35,-61.28"/>
<text text-anchor="start" x="285.5" y="-57.8" font-family="arial" font-size="14.00" fill="#377eb8">P&#39;</text>
</g>
<!-- ID_7_ct0_st&#45;&gt;ID_7_ct0_st -->
<g id="edge5" class="edge">
<title>ID_7_ct0_st&#45;&gt;ID_7_ct0_st</title>
<path fill="none" stroke="black" d="M353.81,-100.18C353.17,-109.91 357.91,-118 368,-118 374.31,-118 378.52,-114.84 380.64,-110.09"/>
<polygon fill="black" stroke="black" points="384.11,-110.6 382.19,-100.18 377.19,-109.51 384.11,-110.6"/>
<text text-anchor="start" x="356" y="-121.8" font-family="arial" font-size="14.00" fill="#377eb8">true</text>
</g>
</g>
</svg>
