<?xml version="1.0" encoding="UTF-8" standalone="no"?>
<!DOCTYPE svg PUBLIC "-//W3C//DTD SVG 1.1//EN"
 "http://www.w3.org/Graphics/SVG/1.1/DTD/svg11.dtd">
<!-- Generated by graphviz version 2.43.0 (0)
 -->
<!-- Title: G Pages: 1 -->
<svg width="498pt" height="145pt"
 viewBox="0.00 0.00 498.00 145.00" xmlns="http://www.w3.org/2000/svg" xmlns:xlink="http://www.w3.org/1999/xlink">
<g id="graph0" class="graph" transform="scale(1 1) rotate(0) translate(4 141)">
<title>G</title>
<polygon fill="white" stroke="transparent" points="-4,4 -4,-141 494,-141 494,4 -4,4"/>
<!-- _st0 -->
<!-- st0 -->
<g id="node2" class="node">
<title>st0</title>
<polygon fill="none" stroke="black" points="146.5,-104 92.5,-104 92.5,-54 146.5,-54 146.5,-104"/>
<text text-anchor="start" x="109.5" y="-89.8" font-family="arial" font-weight="bold" font-size="14.00">st0</text>
<text text-anchor="start" x="111.5" y="-75.8" font-family="arial" font-size="14.00" fill="#984ea3">!Q</text>
<text text-anchor="start" x="107.5" y="-61.8" font-family="arial" font-size="14.00" fill="#ff7f00">true</text>
</g>
<!-- _st0&#45;&gt;st0 -->
<g id="edge1" class="edge">
<title>_st0&#45;&gt;st0</title>
<path fill="none" stroke="black" d="M54.18,-79C62.9,-79 72.78,-79 82.14,-79"/>
<polygon fill="black" stroke="black" points="82.38,-82.5 92.38,-79 82.38,-75.5 82.38,-82.5"/>
</g>
<!-- st0&#45;&gt;st0 -->
<g id="edge3" class="edge">
<title>st0&#45;&gt;st0</title>
<path fill="none" stroke="black" d="M110.91,-104.18C110.53,-113.91 113.39,-122 119.5,-122 123.22,-122 125.74,-119 127.05,-114.45"/>
<polygon fill="black" stroke="black" points="130.57,-114.48 128.09,-104.18 123.6,-113.77 130.57,-114.48"/>
<text text-anchor="start" x="107.5" y="-125.8" font-family="arial" font-size="14.00" fill="#377eb8">true</text>
</g>
<!-- st012 -->
<g id="node4" class="node">
<title>st012</title>
<polygon fill="none" stroke="black" points="317,-59 208,-59 208,-9 317,-9 317,-59"/>
<text text-anchor="start" x="245" y="-44.8" font-family="arial" font-weight="bold" font-size="14.00">st012</text>
<text text-anchor="start" x="216" y="-30.8" font-family="arial" font-size="14.00" fill="#984ea3">(Q &amp;&amp; (R || !S))</text>
<text text-anchor="start" x="250.5" y="-16.8" font-family="arial" font-size="14.00" fill="#ff7f00">true</text>
</g>
<!-- st0&#45;&gt;st012 -->
<g id="edge4" class="edge">
<title>st0&#45;&gt;st012</title>
<path fill="none" stroke="black" d="M146.69,-70.64C161.27,-65.99 180.11,-59.98 198.29,-54.17"/>
<polygon fill="black" stroke="black" points="199.54,-57.45 208,-51.07 197.41,-50.78 199.54,-57.45"/>
<text text-anchor="start" x="166" y="-68.8" font-family="arial" font-size="14.00" fill="#377eb8">true</text>
</g>
<!-- _st012 -->
<!-- _st012&#45;&gt;st012 -->
<g id="edge2" class="edge">
<title>_st012&#45;&gt;st012</title>
<path fill="none" stroke="black" d="M148.02,-21.12C162.22,-22.73 180.19,-24.77 197.61,-26.75"/>
<polygon fill="black" stroke="black" points="197.45,-30.25 207.78,-27.9 198.23,-23.3 197.45,-30.25"/>
</g>
<!-- st012&#45;&gt;st012 -->
<g id="edge8" class="edge">
<title>st012&#45;&gt;st012</title>
<path fill="none" stroke="black" d="M246.81,-59.18C246.11,-68.91 251.34,-77 262.5,-77 269.47,-77 274.13,-73.84 276.47,-69.09"/>
<polygon fill="black" stroke="black" points="279.93,-69.63 278.19,-59.18 273.03,-68.43 279.93,-69.63"/>
<text text-anchor="start" x="250.5" y="-80.8" font-family="arial" font-size="14.00" fill="#377eb8">true</text>
</g>
<!-- st02 -->
<g id="node5" class="node">
<title>st02</title>
<polygon fill="none" stroke="black" points="490,-59 377,-59 377,-9 490,-9 490,-59"/>
<text text-anchor="start" x="419.5" y="-44.8" font-family="arial" font-weight="bold" font-size="14.00">st02</text>
<text text-anchor="start" x="385" y="-30.8" font-family="arial" font-size="14.00" fill="#984ea3">(!Q &amp;&amp; (R || !S))</text>
<text text-anchor="start" x="421.5" y="-16.8" font-family="arial" font-size="14.00" fill="#ff7f00">true</text>
</g>
<!-- st012&#45;&gt;st02 -->
<g id="edge7" class="edge">
<title>st012&#45;&gt;st02</title>
<path fill="none" stroke="black" d="M317.44,-34C333.12,-34 350.42,-34 366.74,-34"/>
<polygon fill="black" stroke="black" points="366.75,-37.5 376.75,-34 366.75,-30.5 366.75,-37.5"/>
<text text-anchor="start" x="335" y="-37.8" font-family="arial" font-size="14.00" fill="#377eb8">true</text>
</g>
<!-- st02&#45;&gt;st012 -->
<g id="edge6" class="edge">
<title>st02&#45;&gt;st012</title>
<path fill="none" stroke="black" d="M376.99,-17.77C363.31,-15.43 348.67,-14.31 335,-16 332.35,-16.33 329.66,-16.72 326.95,-17.17"/>
<polygon fill="black" stroke="black" points="326.3,-13.73 317.11,-19 327.58,-20.61 326.3,-13.73"/>
<text text-anchor="start" x="335" y="-19.8" font-family="arial" font-size="14.00" fill="#377eb8">true</text>
</g>
<!-- st02&#45;&gt;st02 -->
<g id="edge5" class="edge">
<title>st02&#45;&gt;st02</title>
<path fill="none" stroke="black" d="M417.44,-59.18C416.72,-68.91 422.08,-77 433.5,-77 440.64,-77 445.41,-73.84 447.81,-69.09"/>
<polygon fill="black" stroke="black" points="451.26,-69.63 449.56,-59.18 444.37,-68.41 451.26,-69.63"/>
<text text-anchor="start" x="421.5" y="-80.8" font-family="arial" font-size="14.00" fill="#377eb8">true</text>
</g>
</g>
</svg>
