<?xml version="1.0" encoding="UTF-8" standalone="no"?>
<!DOCTYPE svg PUBLIC "-//W3C//DTD SVG 1.1//EN"
 "http://www.w3.org/Graphics/SVG/1.1/DTD/svg11.dtd">
<!-- Generated by graphviz version 2.43.0 (0)
 -->
<!-- Title: G Pages: 1 -->
<svg width="326pt" height="192pt"
 viewBox="0.00 0.00 326.00 192.00" xmlns="http://www.w3.org/2000/svg" xmlns:xlink="http://www.w3.org/1999/xlink">
<g id="graph0" class="graph" transform="scale(1 1) rotate(0) translate(4 188)">
<title>G</title>
<polygon fill="white" stroke="transparent" points="-4,4 -4,-188 322,-188 322,4 -4,4"/>
<!-- _stinit -->
<!-- stinit -->
<g id="node2" class="node">
<title>stinit</title>
<polygon fill="none" stroke="black" points="174.5,-151 120.5,-151 120.5,-101 174.5,-101 174.5,-151"/>
<text text-anchor="start" x="131" y="-136.8" font-family="arial" font-weight="bold" font-size="14.00">stinit</text>
<text text-anchor="start" x="141.5" y="-122.8" font-family="arial" font-size="14.00" fill="#984ea3">Q</text>
<text text-anchor="start" x="135.5" y="-108.8" font-family="arial" font-size="14.00" fill="#ff7f00">true</text>
</g>
<!-- _stinit&#45;&gt;stinit -->
<g id="edge1" class="edge">
<title>_stinit&#45;&gt;stinit</title>
<path fill="none" stroke="black" d="M54.01,-126C70.41,-126 91.84,-126 109.94,-126"/>
<polygon fill="black" stroke="black" points="110.15,-129.5 120.15,-126 110.15,-122.5 110.15,-129.5"/>
</g>
<!-- stinit&#45;&gt;stinit -->
<g id="edge4" class="edge">
<title>stinit&#45;&gt;stinit</title>
<path fill="none" stroke="black" d="M133.68,-151.18C133.06,-160.91 137.67,-169 147.5,-169 153.64,-169 157.75,-165.84 159.81,-161.09"/>
<polygon fill="black" stroke="black" points="163.27,-161.59 161.32,-151.18 156.35,-160.53 163.27,-161.59"/>
<text text-anchor="start" x="135.5" y="-172.8" font-family="arial" font-size="14.00" fill="#377eb8">true</text>
</g>
<!-- st -->
<g id="node5" class="node">
<title>st</title>
<polygon fill="none" stroke="black" points="318,-100 264,-100 264,-50 318,-50 318,-100"/>
<text text-anchor="start" x="284.5" y="-85.8" font-family="arial" font-weight="bold" font-size="14.00">st</text>
<text text-anchor="start" x="279" y="-71.8" font-family="arial" font-size="14.00" fill="#984ea3">true</text>
<text text-anchor="start" x="279" y="-57.8" font-family="arial" font-size="14.00" fill="#ff7f00">true</text>
</g>
<!-- stinit&#45;&gt;st -->
<g id="edge3" class="edge">
<title>stinit&#45;&gt;st</title>
<path fill="none" stroke="black" d="M174.78,-116.53C197.22,-108.44 229.69,-96.74 254.45,-87.81"/>
<polygon fill="black" stroke="black" points="255.64,-91.11 263.86,-84.42 253.26,-84.52 255.64,-91.11"/>
<text text-anchor="start" x="222" y="-101.8" font-family="arial" font-size="14.00" fill="#377eb8">true</text>
</g>
<!-- _st0 -->
<!-- st0 -->
<g id="node4" class="node">
<title>st0</title>
<polygon fill="none" stroke="black" points="204,-50 91,-50 91,0 204,0 204,-50"/>
<text text-anchor="start" x="137.5" y="-35.8" font-family="arial" font-weight="bold" font-size="14.00">st0</text>
<text text-anchor="start" x="99" y="-21.8" font-family="arial" font-size="14.00" fill="#984ea3">(!Q &amp;&amp; (R || !S))</text>
<text text-anchor="start" x="135.5" y="-7.8" font-family="arial" font-size="14.00" fill="#ff7f00">true</text>
</g>
<!-- _st0&#45;&gt;st0 -->
<g id="edge2" class="edge">
<title>_st0&#45;&gt;st0</title>
<path fill="none" stroke="black" d="M54.01,-25C62.01,-25 71.21,-25 80.64,-25"/>
<polygon fill="black" stroke="black" points="80.91,-28.5 90.91,-25 80.91,-21.5 80.91,-28.5"/>
</g>
<!-- st0&#45;&gt;st0 -->
<g id="edge7" class="edge">
<title>st0&#45;&gt;st0</title>
<path fill="none" stroke="black" d="M133.68,-50.18C133.06,-59.91 137.67,-68 147.5,-68 153.64,-68 157.75,-64.84 159.81,-60.09"/>
<polygon fill="black" stroke="black" points="163.27,-60.59 161.32,-50.18 156.35,-59.53 163.27,-60.59"/>
<text text-anchor="start" x="135.5" y="-71.8" font-family="arial" font-size="14.00" fill="#377eb8">true</text>
</g>
<!-- st0&#45;&gt;st -->
<g id="edge6" class="edge">
<title>st0&#45;&gt;st</title>
<path fill="none" stroke="black" d="M204.02,-44.62C220.91,-50.59 239.02,-56.99 254.25,-62.37"/>
<polygon fill="black" stroke="black" points="253.2,-65.71 263.79,-65.74 255.53,-59.11 253.2,-65.71"/>
<text text-anchor="start" x="226.5" y="-61.8" font-family="arial" font-size="14.00" fill="#377eb8">Q&#39;</text>
</g>
<!-- st&#45;&gt;st -->
<g id="edge5" class="edge">
<title>st&#45;&gt;st</title>
<path fill="none" stroke="black" d="M280.54,-100.18C280.08,-109.91 283.56,-118 291,-118 295.53,-118 298.6,-115 300.2,-110.45"/>
<polygon fill="black" stroke="black" points="303.71,-110.53 301.46,-100.18 296.76,-109.67 303.71,-110.53"/>
<text text-anchor="start" x="279" y="-121.8" font-family="arial" font-size="14.00" fill="#377eb8">true</text>
</g>
</g>
</svg>
