<?xml version="1.0" encoding="UTF-8" standalone="no"?>
<!DOCTYPE svg PUBLIC "-//W3C//DTD SVG 1.1//EN"
 "http://www.w3.org/Graphics/SVG/1.1/DTD/svg11.dtd">
<!-- Generated by graphviz version 2.40.1 (20161225.0304)
 -->
<!-- Title: G Pages: 1 -->
<svg width="330pt" height="192pt"
 viewBox="0.00 0.00 330.00 192.00" xmlns="http://www.w3.org/2000/svg" xmlns:xlink="http://www.w3.org/1999/xlink">
<g id="graph0" class="graph" transform="scale(1 1) rotate(0) translate(4 188)">
<title>G</title>
<polygon fill="#ffffff" stroke="transparent" points="-4,4 -4,-188 326,-188 326,4 -4,4"/>
<!-- _stinit -->
<!-- stinit -->
<g id="node2" class="node">
<title>stinit</title>
<polygon fill="none" stroke="#000000" points="176,-151 122,-151 122,-101 176,-101 176,-151"/>
<text text-anchor="start" x="132" y="-136.8" font-family="arial" font-weight="bold" font-size="14.00" fill="#000000">stinit</text>
<text text-anchor="start" x="143" y="-122.8" font-family="arial" font-size="14.00" fill="#984ea3">Q</text>
<text text-anchor="start" x="136.5" y="-108.8" font-family="arial" font-size="14.00" fill="#ff7f00">true</text>
</g>
<!-- _stinit&#45;&gt;stinit -->
<g id="edge1" class="edge">
<title>_stinit&#45;&gt;stinit</title>
<path fill="none" stroke="#000000" d="M54.0758,-126C71.0553,-126 93.1767,-126 111.7924,-126"/>
<polygon fill="#000000" stroke="#000000" points="112,-129.5001 121.9999,-126 111.9999,-122.5001 112,-129.5001"/>
</g>
<!-- stinit&#45;&gt;stinit -->
<g id="edge4" class="edge">
<title>stinit&#45;&gt;stinit</title>
<path fill="none" stroke="#000000" d="M134.8057,-151.1756C134.1748,-160.9095 138.9063,-169 149,-169 155.3086,-169 159.5225,-165.8397 161.6418,-161.093"/>
<polygon fill="#000000" stroke="#000000" points="165.1055,-161.5966 163.1943,-151.1756 158.1898,-160.514 165.1055,-161.5966"/>
<text text-anchor="start" x="136.5" y="-172.8" font-family="arial" font-size="14.00" fill="#377eb8">true</text>
</g>
<!-- st -->
<g id="node5" class="node">
<title>st</title>
<polygon fill="none" stroke="#000000" points="322,-100 268,-100 268,-50 322,-50 322,-100"/>
<text text-anchor="start" x="288.5" y="-85.8" font-family="arial" font-weight="bold" font-size="14.00" fill="#000000">st</text>
<text text-anchor="start" x="282.5" y="-71.8" font-family="arial" font-size="14.00" fill="#984ea3">true</text>
<text text-anchor="start" x="282.5" y="-57.8" font-family="arial" font-size="14.00" fill="#ff7f00">true</text>
</g>
<!-- stinit&#45;&gt;st -->
<g id="edge3" class="edge">
<title>stinit&#45;&gt;st</title>
<path fill="none" stroke="#000000" d="M176.1193,-116.5268C199.1245,-108.4908 232.3529,-96.8836 257.8345,-87.9825"/>
<polygon fill="#000000" stroke="#000000" points="259.2441,-91.1975 267.5305,-84.5955 256.9356,-84.5891 259.2441,-91.1975"/>
<text text-anchor="start" x="225" y="-101.8" font-family="arial" font-size="14.00" fill="#377eb8">true</text>
</g>
<!-- _st0 -->
<!-- st0 -->
<g id="node4" class="node">
<title>st0</title>
<polygon fill="none" stroke="#000000" points="207,-50 91,-50 91,0 207,0 207,-50"/>
<text text-anchor="start" x="138" y="-35.8" font-family="arial" font-weight="bold" font-size="14.00" fill="#000000">st0</text>
<text text-anchor="start" x="99" y="-21.8" font-family="arial" font-size="14.00" fill="#984ea3">(!Q &amp;&amp; (R || !S))</text>
<text text-anchor="start" x="136.5" y="-7.8" font-family="arial" font-size="14.00" fill="#ff7f00">true</text>
</g>
<!-- _st0&#45;&gt;st0 -->
<g id="edge2" class="edge">
<title>_st0&#45;&gt;st0</title>
<path fill="none" stroke="#000000" d="M54.0758,-25C62.0149,-25 71.0782,-25 80.3816,-25"/>
<polygon fill="#000000" stroke="#000000" points="80.5293,-28.5001 90.5292,-25 80.5292,-21.5001 80.5293,-28.5001"/>
</g>
<!-- st0&#45;&gt;st0 -->
<g id="edge7" class="edge">
<title>st0&#45;&gt;st0</title>
<path fill="none" stroke="#000000" d="M134.8057,-50.1756C134.1748,-59.9095 138.9063,-68 149,-68 155.3086,-68 159.5225,-64.8397 161.6418,-60.093"/>
<polygon fill="#000000" stroke="#000000" points="165.1055,-60.5966 163.1943,-50.1756 158.1898,-59.514 165.1055,-60.5966"/>
<text text-anchor="start" x="136.5" y="-71.8" font-family="arial" font-size="14.00" fill="#377eb8">true</text>
</g>
<!-- st0&#45;&gt;st -->
<g id="edge6" class="edge">
<title>st0&#45;&gt;st</title>
<path fill="none" stroke="#000000" d="M207.1226,-44.905C224.3438,-50.8027 242.7187,-57.0954 258.1902,-62.3939"/>
<polygon fill="#000000" stroke="#000000" points="257.3021,-65.7893 267.8967,-65.718 259.5701,-59.1668 257.3021,-65.7893"/>
<text text-anchor="start" x="230" y="-61.8" font-family="arial" font-size="14.00" fill="#377eb8">Q&#39;</text>
</g>
<!-- st&#45;&gt;st -->
<g id="edge5" class="edge">
<title>st&#45;&gt;st</title>
<path fill="none" stroke="#000000" d="M284.541,-100.1756C284.0762,-109.9095 287.5625,-118 295,-118 299.5322,-118 302.5972,-114.9957 304.195,-110.446"/>
<polygon fill="#000000" stroke="#000000" points="307.7112,-110.5283 305.459,-100.1756 300.7636,-109.6732 307.7112,-110.5283"/>
<text text-anchor="start" x="282.5" y="-121.8" font-family="arial" font-size="14.00" fill="#377eb8">true</text>
</g>
</g>
</svg>
