<?xml version="1.0" encoding="UTF-8" standalone="no"?>
<!DOCTYPE svg PUBLIC "-//W3C//DTD SVG 1.1//EN"
 "http://www.w3.org/Graphics/SVG/1.1/DTD/svg11.dtd">
<!-- Generated by graphviz version 2.43.0 (0)
 -->
<!-- Title: G Pages: 1 -->
<svg width="1876pt" height="963pt"
 viewBox="0.00 0.00 1876.00 963.00" xmlns="http://www.w3.org/2000/svg" xmlns:xlink="http://www.w3.org/1999/xlink">
<g id="graph0" class="graph" transform="scale(1 1) rotate(0) translate(4 959)">
<title>G</title>
<polygon fill="white" stroke="transparent" points="-4,4 -4,-959 1872,-959 1872,4 -4,4"/>
<!-- _ID_111_ct0_st0 -->
<!-- ID_111_ct0_st0 -->
<g id="node2" class="node">
<title>ID_111_ct0_st0</title>
<polygon fill="none" stroke="black" points="273,-749 160,-749 160,-699 273,-699 273,-749"/>
<text text-anchor="start" x="168" y="-734.8" font-family="arial" font-weight="bold" font-size="14.00">ID_111_ct0_st0</text>
<text text-anchor="start" x="210" y="-720.8" font-family="arial" font-size="14.00" fill="#984ea3">!P</text>
<text text-anchor="start" x="204.5" y="-706.8" font-family="arial" font-size="14.00" fill="#ff7f00">true</text>
</g>
<!-- _ID_111_ct0_st0&#45;&gt;ID_111_ct0_st0 -->
<g id="edge1" class="edge">
<title>_ID_111_ct0_st0&#45;&gt;ID_111_ct0_st0</title>
<path fill="none" stroke="black" d="M117.15,-724C127.73,-724 138.86,-724 149.67,-724"/>
<polygon fill="black" stroke="black" points="149.91,-727.5 159.91,-724 149.91,-720.5 149.91,-727.5"/>
</g>
<!-- ID_111_ct0_st0&#45;&gt;ID_111_ct0_st0 -->
<g id="edge5" class="edge">
<title>ID_111_ct0_st0&#45;&gt;ID_111_ct0_st0</title>
<path fill="none" stroke="black" d="M201.56,-749.18C200.89,-758.91 205.88,-767 216.5,-767 223.14,-767 227.58,-763.84 229.81,-759.09"/>
<polygon fill="black" stroke="black" points="233.27,-759.61 231.44,-749.18 226.36,-758.47 233.27,-759.61"/>
<text text-anchor="start" x="204.5" y="-770.8" font-family="arial" font-size="14.00" fill="#377eb8">true</text>
</g>
<!-- ID_111_ct0_st01 -->
<g id="node4" class="node">
<title>ID_111_ct0_st01</title>
<polygon fill="none" stroke="black" points="459,-466 339,-466 339,-416 459,-416 459,-466"/>
<text text-anchor="start" x="347" y="-451.8" font-family="arial" font-weight="bold" font-size="14.00">ID_111_ct0_st01</text>
<text text-anchor="start" x="371.5" y="-437.8" font-family="arial" font-size="14.00" fill="#984ea3">(P &amp;&amp; Q)</text>
<text text-anchor="start" x="387" y="-423.8" font-family="arial" font-size="14.00" fill="#ff7f00">true</text>
</g>
<!-- ID_111_ct0_st0&#45;&gt;ID_111_ct0_st01 -->
<g id="edge6" class="edge">
<title>ID_111_ct0_st0&#45;&gt;ID_111_ct0_st01</title>
<path fill="none" stroke="black" d="M233.52,-698.89C266.03,-647.91 339.79,-532.27 376.46,-474.77"/>
<polygon fill="black" stroke="black" points="379.59,-476.37 382.02,-466.06 373.69,-472.61 379.59,-476.37"/>
<text text-anchor="start" x="297" y="-593.8" font-family="arial" font-size="14.00" fill="#377eb8">true</text>
</g>
<!-- ID_111_ct0_st012 -->
<g id="node6" class="node">
<title>ID_111_ct0_st012</title>
<polygon fill="none" stroke="black" points="1635.5,-642 1507.5,-642 1507.5,-592 1635.5,-592 1635.5,-642"/>
<text text-anchor="start" x="1515.5" y="-627.8" font-family="arial" font-weight="bold" font-size="14.00">ID_111_ct0_st012</text>
<text text-anchor="start" x="1518" y="-613.8" font-family="arial" font-size="14.00" fill="#984ea3">(P &amp;&amp; (!Q &amp;&amp; !R))</text>
<text text-anchor="start" x="1559.5" y="-599.8" font-family="arial" font-size="14.00" fill="#ff7f00">true</text>
</g>
<!-- ID_111_ct0_st0&#45;&gt;ID_111_ct0_st012 -->
<g id="edge7" class="edge">
<title>ID_111_ct0_st0&#45;&gt;ID_111_ct0_st012</title>
<path fill="none" stroke="black" d="M249.35,-749.2C283.89,-773.95 341.66,-808 398,-808 398,-808 398,-808 1359,-808 1451.37,-808 1521.5,-706.41 1552.7,-651.41"/>
<polygon fill="black" stroke="black" points="1555.93,-652.81 1557.72,-642.36 1549.81,-649.41 1555.93,-652.81"/>
<text text-anchor="start" x="831.5" y="-811.8" font-family="arial" font-size="14.00" fill="#377eb8">true</text>
</g>
<!-- ID_111_ct0_st01234 -->
<g id="node8" class="node">
<title>ID_111_ct0_st01234</title>
<polygon fill="none" stroke="black" points="1868,-323 1705,-323 1705,-273 1868,-273 1868,-323"/>
<text text-anchor="start" x="1723" y="-308.8" font-family="arial" font-weight="bold" font-size="14.00">ID_111_ct0_st01234</text>
<text text-anchor="start" x="1713" y="-294.8" font-family="arial" font-size="14.00" fill="#984ea3">(P &amp;&amp; (!Q &amp;&amp; (R &amp;&amp; S)))</text>
<text text-anchor="start" x="1774.5" y="-280.8" font-family="arial" font-size="14.00" fill="#ff7f00">true</text>
</g>
<!-- ID_111_ct0_st0&#45;&gt;ID_111_ct0_st01234 -->
<g id="edge8" class="edge">
<title>ID_111_ct0_st0&#45;&gt;ID_111_ct0_st01234</title>
<path fill="none" stroke="black" d="M220.57,-749.12C227,-790.4 245.79,-872.36 297,-916 332.12,-945.93 351.86,-940 398,-940 398,-940 398,-940 1572.5,-940 1624.49,-940 1651.14,-953.65 1687,-916 1767.66,-831.32 1782.32,-452.03 1784.94,-333.51"/>
<polygon fill="black" stroke="black" points="1788.44,-333.26 1785.15,-323.19 1781.45,-333.11 1788.44,-333.26"/>
<text text-anchor="start" x="952" y="-943.8" font-family="arial" font-size="14.00" fill="#377eb8">true</text>
</g>
<!-- _ID_111_ct0_st01 -->
<!-- _ID_111_ct0_st01&#45;&gt;ID_111_ct0_st01 -->
<g id="edge2" class="edge">
<title>_ID_111_ct0_st01&#45;&gt;ID_111_ct0_st01</title>
<path fill="none" stroke="black" d="M231.66,-225.36C262.05,-264.76 333.87,-357.86 372.44,-407.87"/>
<polygon fill="black" stroke="black" points="369.69,-410.02 378.57,-415.81 375.23,-405.75 369.69,-410.02"/>
</g>
<!-- ID_111_ct0_st01&#45;&gt;ID_111_ct0_st0 -->
<g id="edge9" class="edge">
<title>ID_111_ct0_st01&#45;&gt;ID_111_ct0_st0</title>
<path fill="none" stroke="black" d="M368.61,-466.36C346.77,-486.35 317.36,-515.8 297,-546 266.14,-591.79 242.32,-651.52 229.11,-688.82"/>
<polygon fill="black" stroke="black" points="225.64,-688.12 225.66,-698.71 232.26,-690.42 225.64,-688.12"/>
<text text-anchor="start" x="301.5" y="-549.8" font-family="arial" font-size="14.00" fill="#377eb8">Q&#39;</text>
</g>
<!-- ID_111_ct0_st01&#45;&gt;ID_111_ct0_st01 -->
<g id="edge12" class="edge">
<title>ID_111_ct0_st01&#45;&gt;ID_111_ct0_st01</title>
<path fill="none" stroke="black" d="M382.19,-466.18C381.44,-475.91 387.05,-484 399,-484 406.47,-484 411.46,-480.84 413.97,-476.09"/>
<polygon fill="black" stroke="black" points="417.43,-476.65 415.81,-466.18 410.54,-475.37 417.43,-476.65"/>
<text text-anchor="start" x="387" y="-487.8" font-family="arial" font-size="14.00" fill="#377eb8">true</text>
</g>
<!-- ID_111_ct0_st01&#45;&gt;ID_111_ct0_st012 -->
<g id="edge13" class="edge">
<title>ID_111_ct0_st01&#45;&gt;ID_111_ct0_st012</title>
<path fill="none" stroke="black" d="M459.23,-455.44C566.47,-480.77 800.33,-532.31 1001,-551 1024.4,-553.18 1401.01,-548.14 1424,-553 1432.94,-554.89 1471.47,-571.78 1506.77,-587.73"/>
<polygon fill="black" stroke="black" points="1505.58,-591.04 1516.13,-591.98 1508.47,-584.66 1505.58,-591.04"/>
<text text-anchor="start" x="952" y="-552.8" font-family="arial" font-size="14.00" fill="#377eb8">true</text>
</g>
<!-- ID_111_ct0_st01&#45;&gt;ID_111_ct0_st01234 -->
<g id="edge14" class="edge">
<title>ID_111_ct0_st01&#45;&gt;ID_111_ct0_st01234</title>
<path fill="none" stroke="black" d="M454.91,-415.69C456.37,-414.2 457.74,-412.64 459,-411 482.97,-379.62 468.47,-362.55 477,-324 494.57,-244.64 460.93,-202.87 519,-146 523.51,-141.59 956.69,-51 963,-51 963,-51 963,-51 1572.5,-51 1683.41,-51 1749.29,-195.59 1774.12,-263.52"/>
<polygon fill="black" stroke="black" points="1770.83,-264.71 1777.49,-272.96 1777.43,-262.36 1770.83,-264.71"/>
<text text-anchor="start" x="1074" y="-54.8" font-family="arial" font-size="14.00" fill="#377eb8">true</text>
</g>
<!-- ID_111_ct0_st02 -->
<g id="node9" class="node">
<title>ID_111_ct0_st02</title>
<polygon fill="none" stroke="black" points="1421.5,-666 1294.5,-666 1294.5,-616 1421.5,-616 1421.5,-666"/>
<text text-anchor="start" x="1306" y="-651.8" font-family="arial" font-weight="bold" font-size="14.00">ID_111_ct0_st02</text>
<text text-anchor="start" x="1302.5" y="-637.8" font-family="arial" font-size="14.00" fill="#984ea3">(!P &amp;&amp; (!Q &amp;&amp; !R))</text>
<text text-anchor="start" x="1346" y="-623.8" font-family="arial" font-size="14.00" fill="#ff7f00">true</text>
</g>
<!-- ID_111_ct0_st01&#45;&gt;ID_111_ct0_st02 -->
<g id="edge10" class="edge">
<title>ID_111_ct0_st01&#45;&gt;ID_111_ct0_st02</title>
<path fill="none" stroke="black" d="M408.65,-466.1C419.75,-494.15 441.87,-538.44 477,-560 611.5,-642.56 1098.18,-644.74 1284.1,-642.41"/>
<polygon fill="black" stroke="black" points="1284.37,-645.9 1294.32,-642.27 1284.27,-638.9 1284.37,-645.9"/>
<text text-anchor="start" x="831.5" y="-639.8" font-family="arial" font-size="14.00" fill="#377eb8">true</text>
</g>
<!-- ID_111_ct0_st0234 -->
<g id="node10" class="node">
<title>ID_111_ct0_st0234</title>
<polygon fill="none" stroke="black" points="686,-372 519,-372 519,-322 686,-322 686,-372"/>
<text text-anchor="start" x="543" y="-357.8" font-family="arial" font-weight="bold" font-size="14.00">ID_111_ct0_st0234</text>
<text text-anchor="start" x="527" y="-343.8" font-family="arial" font-size="14.00" fill="#984ea3">(!P &amp;&amp; (!Q &amp;&amp; (R &amp;&amp; S)))</text>
<text text-anchor="start" x="590.5" y="-329.8" font-family="arial" font-size="14.00" fill="#ff7f00">true</text>
</g>
<!-- ID_111_ct0_st01&#45;&gt;ID_111_ct0_st0234 -->
<g id="edge11" class="edge">
<title>ID_111_ct0_st01&#45;&gt;ID_111_ct0_st0234</title>
<path fill="none" stroke="black" d="M419.1,-415.96C433.22,-399.33 453.93,-378.5 477,-367 487,-362.01 497.96,-358.22 509.11,-355.35"/>
<polygon fill="black" stroke="black" points="509.99,-358.73 518.93,-353.05 508.39,-351.92 509.99,-358.73"/>
<text text-anchor="start" x="477" y="-370.8" font-family="arial" font-size="14.00" fill="#377eb8">true</text>
</g>
<!-- _ID_111_ct0_st012 -->
<!-- _ID_111_ct0_st012&#45;&gt;ID_111_ct0_st012 -->
<g id="edge3" class="edge">
<title>_ID_111_ct0_st012&#45;&gt;ID_111_ct0_st012</title>
<path fill="none" stroke="black" d="M1424.18,-591.4C1447.33,-595.45 1473.54,-600.04 1497.32,-604.2"/>
<polygon fill="black" stroke="black" points="1496.89,-607.68 1507.35,-605.95 1498.1,-600.78 1496.89,-607.68"/>
</g>
<!-- ID_111_ct0_st012&#45;&gt;ID_111_ct0_st0 -->
<g id="edge21" class="edge">
<title>ID_111_ct0_st012&#45;&gt;ID_111_ct0_st0</title>
<path fill="none" stroke="black" d="M1562.12,-642.44C1539.87,-704.57 1473.11,-859 1359,-859 398,-859 398,-859 398,-859 330.23,-859 271.55,-797.22 240.67,-757.24"/>
<polygon fill="black" stroke="black" points="243.33,-754.95 234.51,-749.08 237.74,-759.17 243.33,-754.95"/>
<text text-anchor="start" x="836" y="-862.8" font-family="arial" font-size="14.00" fill="#377eb8">Q&#39;</text>
</g>
<!-- ID_111_ct0_st012&#45;&gt;ID_111_ct0_st01 -->
<g id="edge24" class="edge">
<title>ID_111_ct0_st012&#45;&gt;ID_111_ct0_st01</title>
<path fill="none" stroke="black" d="M1540.82,-642.01C1512.74,-663.98 1468.4,-694.49 1424,-708 1228.71,-767.41 1169.12,-724 965,-724 601.5,-724 601.5,-724 601.5,-724 544.14,-724 518.23,-729.88 477,-690 417.54,-632.49 403.74,-530.14 400.7,-476.32"/>
<polygon fill="black" stroke="black" points="404.19,-476.05 400.23,-466.23 397.2,-476.38 404.19,-476.05"/>
<text text-anchor="start" x="952" y="-727.8" font-family="arial" font-size="14.00" fill="#377eb8">true</text>
</g>
<!-- ID_111_ct0_st012&#45;&gt;ID_111_ct0_st012 -->
<g id="edge25" class="edge">
<title>ID_111_ct0_st012&#45;&gt;ID_111_ct0_st012</title>
<path fill="none" stroke="black" d="M1552.45,-642.18C1551.6,-651.91 1557.95,-660 1571.5,-660 1579.97,-660 1585.62,-656.84 1588.47,-652.09"/>
<polygon fill="black" stroke="black" points="1591.92,-652.68 1590.55,-642.18 1585.07,-651.24 1591.92,-652.68"/>
<text text-anchor="start" x="1559.5" y="-663.8" font-family="arial" font-size="14.00" fill="#377eb8">true</text>
</g>
<!-- ID_111_ct0_st012&#45;&gt;ID_111_ct0_st01234 -->
<g id="edge26" class="edge">
<title>ID_111_ct0_st012&#45;&gt;ID_111_ct0_st01234</title>
<path fill="none" stroke="black" d="M1630.94,-591.9C1635.82,-589.11 1640.58,-586.14 1645,-583 1666.78,-567.52 1672.36,-562.34 1687,-540 1731.22,-472.52 1761.54,-382 1775.93,-333.02"/>
<polygon fill="black" stroke="black" points="1779.35,-333.8 1778.76,-323.23 1772.62,-331.86 1779.35,-333.8"/>
<text text-anchor="start" x="1663" y="-572.8" font-family="arial" font-size="14.00" fill="#377eb8">true</text>
</g>
<!-- ID_111_ct0_st012&#45;&gt;ID_111_ct0_st02 -->
<g id="edge22" class="edge">
<title>ID_111_ct0_st012&#45;&gt;ID_111_ct0_st02</title>
<path fill="none" stroke="black" d="M1507.34,-629.07C1498.19,-630.56 1488.87,-631.93 1480,-633 1464.48,-634.88 1447.79,-636.34 1431.91,-637.47"/>
<polygon fill="black" stroke="black" points="1431.35,-634 1421.61,-638.16 1431.82,-640.98 1431.35,-634"/>
<text text-anchor="start" x="1449" y="-639.8" font-family="arial" font-size="14.00" fill="#377eb8">true</text>
</g>
<!-- ID_111_ct0_st012&#45;&gt;ID_111_ct0_st0234 -->
<g id="edge23" class="edge">
<title>ID_111_ct0_st012&#45;&gt;ID_111_ct0_st0234</title>
<path fill="none" stroke="black" d="M1507.41,-591.98C1503.97,-589.27 1500.79,-586.28 1498,-583 1479.12,-560.83 1501.69,-539.43 1480,-520 1360.28,-412.78 912.63,-502.34 760,-452 735.59,-443.95 682.19,-406.23 644.58,-378.29"/>
<polygon fill="black" stroke="black" points="646.45,-375.32 636.34,-372.14 642.26,-380.92 646.45,-375.32"/>
<text text-anchor="start" x="1074" y="-470.8" font-family="arial" font-size="14.00" fill="#377eb8">true</text>
</g>
<!-- _ID_111_ct0_st01234 -->
<!-- _ID_111_ct0_st01234&#45;&gt;ID_111_ct0_st01234 -->
<g id="edge4" class="edge">
<title>_ID_111_ct0_st01234&#45;&gt;ID_111_ct0_st01234</title>
<path fill="none" stroke="black" d="M1645.2,-542.59C1660.3,-537.18 1675.19,-529.61 1687,-519 1742.6,-469.04 1768.5,-381.76 1779.12,-333.17"/>
<polygon fill="black" stroke="black" points="1782.6,-333.64 1781.22,-323.14 1775.74,-332.21 1782.6,-333.64"/>
</g>
<!-- ID_111_ct0_st01234&#45;&gt;ID_111_ct0_st0 -->
<g id="edge49" class="edge">
<title>ID_111_ct0_st01234&#45;&gt;ID_111_ct0_st0</title>
<path fill="none" stroke="black" d="M1782.29,-323.18C1767.02,-437.5 1697.31,-902 1572.5,-902 398,-902 398,-902 398,-902 317,-902 259.17,-810 233.07,-758.28"/>
<polygon fill="black" stroke="black" points="236.12,-756.55 228.56,-749.13 229.84,-759.64 236.12,-756.55"/>
<text text-anchor="start" x="956.5" y="-905.8" font-family="arial" font-size="14.00" fill="#377eb8">Q&#39;</text>
</g>
<!-- ID_111_ct0_st01234&#45;&gt;ID_111_ct0_st01 -->
<g id="edge52" class="edge">
<title>ID_111_ct0_st01234&#45;&gt;ID_111_ct0_st01</title>
<path fill="none" stroke="black" d="M1780.33,-272.85C1763.96,-201.01 1706.2,0 1572.5,0 601.5,0 601.5,0 601.5,0 509.99,0 498.81,-75.13 477,-164 464.57,-214.63 486.87,-349.85 460.13,-407.08"/>
<polygon fill="black" stroke="black" points="457.03,-405.46 455.2,-415.89 463.14,-408.88 457.03,-405.46"/>
<text text-anchor="start" x="1074" y="-3.8" font-family="arial" font-size="14.00" fill="#377eb8">true</text>
</g>
<!-- ID_111_ct0_st01234&#45;&gt;ID_111_ct0_st01234 -->
<g id="edge54" class="edge">
<title>ID_111_ct0_st01234&#45;&gt;ID_111_ct0_st01234</title>
<path fill="none" stroke="black" d="M1765.96,-323.18C1765.04,-332.91 1771.89,-341 1786.5,-341 1795.63,-341 1801.73,-337.84 1804.8,-333.09"/>
<polygon fill="black" stroke="black" points="1808.25,-333.7 1807.04,-323.18 1801.42,-332.15 1808.25,-333.7"/>
<text text-anchor="start" x="1774.5" y="-344.8" font-family="arial" font-size="14.00" fill="#377eb8">true</text>
</g>
<!-- ID_111_ct0_st01234&#45;&gt;ID_111_ct0_st0234 -->
<g id="edge51" class="edge">
<title>ID_111_ct0_st01234&#45;&gt;ID_111_ct0_st0234</title>
<path fill="none" stroke="black" d="M1704.98,-289.08C1685.38,-287.32 1664.46,-285.77 1645,-285 1293.27,-271.03 1264.66,-277.81 1189,-282 1095.6,-287.17 836.74,-318.14 696.56,-335.4"/>
<polygon fill="black" stroke="black" points="695.76,-331.97 686.26,-336.67 696.62,-338.92 695.76,-331.97"/>
<text text-anchor="start" x="1219.5" y="-285.8" font-family="arial" font-size="14.00" fill="#377eb8">true</text>
</g>
<!-- ID_111_ct0_st024 -->
<g id="node11" class="node">
<title>ID_111_ct0_st024</title>
<polygon fill="none" stroke="black" points="1171,-238 1001,-238 1001,-188 1171,-188 1171,-238"/>
<text text-anchor="start" x="1030" y="-223.8" font-family="arial" font-weight="bold" font-size="14.00">ID_111_ct0_st024</text>
<text text-anchor="start" x="1009" y="-209.8" font-family="arial" font-size="14.00" fill="#984ea3">(!P &amp;&amp; (!Q &amp;&amp; (!R &amp;&amp; S)))</text>
<text text-anchor="start" x="1063" y="-195.8" font-family="arial" font-size="14.00" fill="#ff7f00">c0 &lt;= 5</text>
</g>
<!-- ID_111_ct0_st01234&#45;&gt;ID_111_ct0_st024 -->
<g id="edge50" class="edge">
<title>ID_111_ct0_st01234&#45;&gt;ID_111_ct0_st024</title>
<path fill="none" stroke="black" d="M1746.2,-272.75C1728.71,-262.62 1707.47,-251.76 1687,-245 1598.72,-215.87 1572.7,-221.92 1480,-215 1378.05,-207.39 1260.8,-208 1181.1,-209.82"/>
<polygon fill="black" stroke="black" points="1180.99,-206.32 1171.08,-210.06 1181.16,-213.32 1180.99,-206.32"/>
<text text-anchor="start" x="1449" y="-233.8" font-family="arial" font-size="14.00" fill="#377eb8">true</text>
<text text-anchor="start" x="1442" y="-218.8" font-family="arial" font-size="14.00">c0 :=0</text>
</g>
<!-- ID_111_ct0_st0124 -->
<g id="node12" class="node">
<title>ID_111_ct0_st0124</title>
<polygon fill="none" stroke="black" points="927,-410 760,-410 760,-360 927,-360 927,-410"/>
<text text-anchor="start" x="784" y="-395.8" font-family="arial" font-weight="bold" font-size="14.00">ID_111_ct0_st0124</text>
<text text-anchor="start" x="768" y="-381.8" font-family="arial" font-size="14.00" fill="#984ea3">(P &amp;&amp; (!Q &amp;&amp; (!R &amp;&amp; S)))</text>
<text text-anchor="start" x="820.5" y="-367.8" font-family="arial" font-size="14.00" fill="#ff7f00">c0 &lt;= 5</text>
</g>
<!-- ID_111_ct0_st01234&#45;&gt;ID_111_ct0_st0124 -->
<g id="edge53" class="edge">
<title>ID_111_ct0_st01234&#45;&gt;ID_111_ct0_st0124</title>
<path fill="none" stroke="black" d="M1704.92,-293.27C1607.03,-288.62 1436.98,-284.04 1292,-298 1167.85,-309.96 1026.97,-340.16 937,-361.62"/>
<polygon fill="black" stroke="black" points="936.01,-358.26 927.1,-363.99 937.64,-365.06 936.01,-358.26"/>
<text text-anchor="start" x="1346" y="-316.8" font-family="arial" font-size="14.00" fill="#377eb8">true</text>
<text text-anchor="start" x="1339" y="-301.8" font-family="arial" font-size="14.00">c0 :=0</text>
</g>
<!-- ID_111_ct0_st02&#45;&gt;ID_111_ct0_st0 -->
<g id="edge15" class="edge">
<title>ID_111_ct0_st02&#45;&gt;ID_111_ct0_st0</title>
<path fill="none" stroke="black" d="M1325,-666.07C1276.45,-701.51 1179.97,-762 1087,-762 398,-762 398,-762 398,-762 359.38,-762 317.09,-753.57 283.16,-744.65"/>
<polygon fill="black" stroke="black" points="283.93,-741.23 273.37,-742 282.11,-747.99 283.93,-741.23"/>
<text text-anchor="start" x="715.5" y="-765.8" font-family="arial" font-size="14.00" fill="#377eb8">Q&#39;</text>
</g>
<!-- ID_111_ct0_st02&#45;&gt;ID_111_ct0_st01 -->
<g id="edge18" class="edge">
<title>ID_111_ct0_st02&#45;&gt;ID_111_ct0_st01</title>
<path fill="none" stroke="black" d="M1294.23,-653.62C1150.1,-679.52 787.24,-727.01 519,-611 462.06,-586.37 427.88,-517.96 411.6,-475.81"/>
<polygon fill="black" stroke="black" points="414.8,-474.36 408.03,-466.21 408.24,-476.81 414.8,-474.36"/>
<text text-anchor="start" x="831.5" y="-688.8" font-family="arial" font-size="14.00" fill="#377eb8">true</text>
</g>
<!-- ID_111_ct0_st02&#45;&gt;ID_111_ct0_st012 -->
<g id="edge19" class="edge">
<title>ID_111_ct0_st02&#45;&gt;ID_111_ct0_st012</title>
<path fill="none" stroke="black" d="M1421.63,-621.78C1428.45,-620.25 1435.34,-618.93 1442,-618 1459.72,-615.52 1478.95,-614.5 1497.01,-614.26"/>
<polygon fill="black" stroke="black" points="1497.21,-617.76 1507.19,-614.2 1497.17,-610.76 1497.21,-617.76"/>
<text text-anchor="start" x="1449" y="-621.8" font-family="arial" font-size="14.00" fill="#377eb8">true</text>
</g>
<!-- ID_111_ct0_st02&#45;&gt;ID_111_ct0_st01234 -->
<g id="edge20" class="edge">
<title>ID_111_ct0_st02&#45;&gt;ID_111_ct0_st01234</title>
<path fill="none" stroke="black" d="M1411.68,-615.94C1416,-613.15 1420.17,-610.16 1424,-607 1464.73,-573.36 1459.11,-549.75 1498,-514 1572.32,-445.68 1607.5,-450.23 1687,-388 1709.82,-370.13 1733.87,-348.23 1752.49,-330.51"/>
<polygon fill="black" stroke="black" points="1755.32,-332.64 1760.11,-323.19 1750.47,-327.59 1755.32,-332.64"/>
<text text-anchor="start" x="1559.5" y="-517.8" font-family="arial" font-size="14.00" fill="#377eb8">true</text>
</g>
<!-- ID_111_ct0_st02&#45;&gt;ID_111_ct0_st02 -->
<g id="edge16" class="edge">
<title>ID_111_ct0_st02&#45;&gt;ID_111_ct0_st02</title>
<path fill="none" stroke="black" d="M1338.95,-666.18C1338.1,-675.91 1344.45,-684 1358,-684 1366.47,-684 1372.12,-680.84 1374.97,-676.09"/>
<polygon fill="black" stroke="black" points="1378.42,-676.68 1377.05,-666.18 1371.57,-675.24 1378.42,-676.68"/>
<text text-anchor="start" x="1346" y="-687.8" font-family="arial" font-size="14.00" fill="#377eb8">true</text>
</g>
<!-- ID_111_ct0_st02&#45;&gt;ID_111_ct0_st0234 -->
<g id="edge17" class="edge">
<title>ID_111_ct0_st02&#45;&gt;ID_111_ct0_st0234</title>
<path fill="none" stroke="black" d="M1294.48,-630.3C1287.57,-629.17 1280.64,-628.04 1274,-627 1145.05,-606.72 790.11,-583.11 704,-485 681.96,-459.88 704.11,-440.09 686,-412 677.81,-399.3 666.28,-388.01 654.43,-378.55"/>
<polygon fill="black" stroke="black" points="656.28,-375.56 646.2,-372.3 652.05,-381.14 656.28,-375.56"/>
<text text-anchor="start" x="952" y="-589.8" font-family="arial" font-size="14.00" fill="#377eb8">true</text>
</g>
<!-- ID_111_ct0_st0234&#45;&gt;ID_111_ct0_st0 -->
<g id="edge43" class="edge">
<title>ID_111_ct0_st0234&#45;&gt;ID_111_ct0_st0</title>
<path fill="none" stroke="black" d="M518.9,-339.34C461.45,-338.7 386.87,-347.91 339,-392 251.58,-472.52 226.89,-621.18 220.05,-688.83"/>
<polygon fill="black" stroke="black" points="216.55,-688.69 219.1,-698.97 223.52,-689.34 216.55,-688.69"/>
<text text-anchor="start" x="391.5" y="-395.8" font-family="arial" font-size="14.00" fill="#377eb8">Q&#39;</text>
</g>
<!-- ID_111_ct0_st0234&#45;&gt;ID_111_ct0_st01 -->
<g id="edge46" class="edge">
<title>ID_111_ct0_st0234&#45;&gt;ID_111_ct0_st01</title>
<path fill="none" stroke="black" d="M547.57,-372.16C521.57,-384.29 490.23,-398.91 463.13,-411.55"/>
<polygon fill="black" stroke="black" points="461.32,-408.53 453.73,-415.93 464.28,-414.88 461.32,-408.53"/>
<text text-anchor="start" x="477" y="-405.8" font-family="arial" font-size="14.00" fill="#377eb8">true</text>
</g>
<!-- ID_111_ct0_st0234&#45;&gt;ID_111_ct0_st01234 -->
<g id="edge48" class="edge">
<title>ID_111_ct0_st0234&#45;&gt;ID_111_ct0_st01234</title>
<path fill="none" stroke="black" d="M621.9,-321.99C645.24,-290.82 684.75,-239.92 704,-226 785.95,-166.75 974.63,-181 1001,-179 1286.42,-157.38 1362.58,-125.39 1645,-172 1664.41,-175.2 1670.6,-175.12 1687,-186 1718.08,-206.61 1745.36,-239.48 1763.29,-264.29"/>
<polygon fill="black" stroke="black" points="1760.6,-266.55 1769.23,-272.7 1766.32,-262.51 1760.6,-266.55"/>
<text text-anchor="start" x="1219.5" y="-165.8" font-family="arial" font-size="14.00" fill="#377eb8">true</text>
</g>
<!-- ID_111_ct0_st0234&#45;&gt;ID_111_ct0_st0234 -->
<g id="edge45" class="edge">
<title>ID_111_ct0_st0234&#45;&gt;ID_111_ct0_st0234</title>
<path fill="none" stroke="black" d="M581.58,-372.18C580.65,-381.91 587.62,-390 602.5,-390 611.8,-390 618.01,-386.84 621.13,-382.09"/>
<polygon fill="black" stroke="black" points="624.58,-382.71 623.42,-372.18 617.76,-381.13 624.58,-382.71"/>
<text text-anchor="start" x="590.5" y="-393.8" font-family="arial" font-size="14.00" fill="#377eb8">true</text>
</g>
<!-- ID_111_ct0_st0234&#45;&gt;ID_111_ct0_st024 -->
<g id="edge44" class="edge">
<title>ID_111_ct0_st0234&#45;&gt;ID_111_ct0_st024</title>
<path fill="none" stroke="black" d="M650.99,-321.93C681.43,-306.75 722.19,-288.06 760,-276 802.01,-262.6 910.41,-242.63 990.53,-228.78"/>
<polygon fill="black" stroke="black" points="991.39,-232.19 1000.65,-227.04 990.2,-225.29 991.39,-232.19"/>
<text text-anchor="start" x="831.5" y="-294.8" font-family="arial" font-size="14.00" fill="#377eb8">true</text>
<text text-anchor="start" x="824.5" y="-279.8" font-family="arial" font-size="14.00">c0 :=0</text>
</g>
<!-- ID_111_ct0_st0234&#45;&gt;ID_111_ct0_st0124 -->
<g id="edge47" class="edge">
<title>ID_111_ct0_st0234&#45;&gt;ID_111_ct0_st0124</title>
<path fill="none" stroke="black" d="M686.19,-365.79C692.2,-366.95 698.19,-368.03 704,-369 718.79,-371.47 734.53,-373.68 749.89,-375.61"/>
<polygon fill="black" stroke="black" points="749.57,-379.09 759.92,-376.84 750.42,-372.15 749.57,-379.09"/>
<text text-anchor="start" x="711" y="-392.8" font-family="arial" font-size="14.00" fill="#377eb8">true</text>
<text text-anchor="start" x="704" y="-377.8" font-family="arial" font-size="14.00">c0 :=0</text>
</g>
<!-- ID_111_ct0_st024&#45;&gt;ID_111_ct0_st0 -->
<g id="edge27" class="edge">
<title>ID_111_ct0_st024&#45;&gt;ID_111_ct0_st0</title>
<path fill="none" stroke="black" d="M1057.76,-187.91C1015.48,-151.67 930,-89 844.5,-89 398,-89 398,-89 398,-89 272.32,-89 229.51,-555.03 219.82,-688.61"/>
<polygon fill="black" stroke="black" points="216.32,-688.49 219.1,-698.72 223.3,-688.99 216.32,-688.49"/>
<text text-anchor="start" x="595" y="-92.8" font-family="arial" font-size="14.00" fill="#377eb8">Q&#39;</text>
</g>
<!-- ID_111_ct0_st024&#45;&gt;ID_111_ct0_st01 -->
<g id="edge31" class="edge">
<title>ID_111_ct0_st024&#45;&gt;ID_111_ct0_st01</title>
<path fill="none" stroke="black" d="M1040.37,-187.94C967.64,-150.58 820.02,-89.44 704,-136 660.79,-153.34 486.23,-339 477,-354 464.65,-374.06 473.56,-387.43 460.4,-407.81"/>
<polygon fill="black" stroke="black" points="457.45,-405.91 454.19,-415.99 463.02,-410.14 457.45,-405.91"/>
<text text-anchor="start" x="711" y="-139.8" font-family="arial" font-size="14.00" fill="#377eb8">true</text>
</g>
<!-- ID_111_ct0_st024&#45;&gt;ID_111_ct0_st012 -->
<g id="edge32" class="edge">
<title>ID_111_ct0_st024&#45;&gt;ID_111_ct0_st012</title>
<path fill="none" stroke="black" d="M1113.34,-238.29C1132.95,-256.05 1161.06,-279.33 1189,-295 1231.43,-318.79 1246.14,-315.77 1292,-332 1350.57,-352.72 1372.77,-342.86 1424,-378 1455.72,-399.76 1464.45,-408.81 1480,-444 1505.18,-500.98 1461.27,-532.68 1498,-583 1498.68,-583.93 1499.38,-584.83 1500.12,-585.71"/>
<polygon fill="black" stroke="black" points="1497.9,-588.43 1507.46,-592.98 1502.82,-583.46 1497.9,-588.43"/>
<text text-anchor="start" x="1315.5" y="-381.8" font-family="arial" font-size="14.00" fill="#377eb8">(Q&#39; || c0 &gt;= 5)</text>
</g>
<!-- ID_111_ct0_st024&#45;&gt;ID_111_ct0_st01234 -->
<g id="edge34" class="edge">
<title>ID_111_ct0_st024&#45;&gt;ID_111_ct0_st01234</title>
<path fill="none" stroke="black" d="M1171.02,-202.05C1177.1,-201.33 1183.14,-200.64 1189,-200 1317.97,-185.92 1350.46,-169.83 1480,-177 1572.42,-182.12 1603.52,-160.01 1687,-200 1717.42,-214.57 1744,-242.46 1761.85,-264.78"/>
<polygon fill="black" stroke="black" points="1759.12,-266.97 1768.02,-272.71 1764.64,-262.67 1759.12,-266.97"/>
<text text-anchor="start" x="1449" y="-180.8" font-family="arial" font-size="14.00" fill="#377eb8">true</text>
</g>
<!-- ID_111_ct0_st024&#45;&gt;ID_111_ct0_st02 -->
<g id="edge28" class="edge">
<title>ID_111_ct0_st024&#45;&gt;ID_111_ct0_st02</title>
<path fill="none" stroke="black" d="M1092.04,-238.09C1102.65,-285.4 1131.19,-388.96 1189,-455 1217.87,-487.98 1249,-469 1274,-505 1300.25,-542.81 1264.81,-569.85 1292,-607 1292.36,-607.5 1292.74,-607.99 1293.12,-608.47"/>
<polygon fill="black" stroke="black" points="1290.61,-610.91 1300.03,-615.76 1295.69,-606.09 1290.61,-610.91"/>
<text text-anchor="start" x="1189" y="-508.8" font-family="arial" font-size="14.00" fill="#377eb8">(Q&#39; || c0 &gt;= 5)</text>
</g>
<!-- ID_111_ct0_st024&#45;&gt;ID_111_ct0_st0234 -->
<g id="edge30" class="edge">
<title>ID_111_ct0_st024&#45;&gt;ID_111_ct0_st0234</title>
<path fill="none" stroke="black" d="M1000.84,-208.07C934.62,-206.11 840.43,-207.58 760,-225 733.7,-230.7 726.45,-233.17 704,-248 676.28,-266.31 649.71,-293.02 630.86,-314.08"/>
<polygon fill="black" stroke="black" points="628.01,-312.03 624.03,-321.85 633.26,-316.65 628.01,-312.03"/>
<text text-anchor="start" x="831.5" y="-228.8" font-family="arial" font-size="14.00" fill="#377eb8">true</text>
</g>
<!-- ID_111_ct0_st024&#45;&gt;ID_111_ct0_st024 -->
<g id="edge29" class="edge">
<title>ID_111_ct0_st024&#45;&gt;ID_111_ct0_st024</title>
<path fill="none" stroke="black" d="M1063.21,-238.18C1062.2,-247.91 1069.8,-256 1086,-256 1096.13,-256 1102.89,-252.84 1106.29,-248.09"/>
<polygon fill="black" stroke="black" points="1109.74,-248.73 1108.79,-238.18 1102.95,-247.02 1109.74,-248.73"/>
<text text-anchor="start" x="1067" y="-259.8" font-family="arial" font-size="14.00" fill="#377eb8">c0 &lt; 5</text>
</g>
<!-- ID_111_ct0_st024&#45;&gt;ID_111_ct0_st0124 -->
<g id="edge33" class="edge">
<title>ID_111_ct0_st024&#45;&gt;ID_111_ct0_st0124</title>
<path fill="none" stroke="black" d="M1051.14,-238.2C1031.36,-252.85 1005.86,-271.6 983,-288 951.9,-310.32 916.55,-335.06 889.35,-353.98"/>
<polygon fill="black" stroke="black" points="887.04,-351.32 880.82,-359.9 891.03,-357.07 887.04,-351.32"/>
<text text-anchor="start" x="945" y="-318.8" font-family="arial" font-size="14.00" fill="#377eb8">c0 &lt; 5</text>
</g>
<!-- ID_111_ct0_st0124&#45;&gt;ID_111_ct0_st0 -->
<g id="edge35" class="edge">
<title>ID_111_ct0_st0124&#45;&gt;ID_111_ct0_st0</title>
<path fill="none" stroke="black" d="M819.61,-410.29C768.32,-465.29 637.9,-596.14 501,-662 431.04,-695.65 342.59,-711.26 283.26,-718.35"/>
<polygon fill="black" stroke="black" points="282.8,-714.88 273.26,-719.49 283.59,-721.83 282.8,-714.88"/>
<text text-anchor="start" x="481.5" y="-674.8" font-family="arial" font-size="14.00" fill="#377eb8">Q&#39;</text>
</g>
<!-- ID_111_ct0_st0124&#45;&gt;ID_111_ct0_st01 -->
<g id="edge39" class="edge">
<title>ID_111_ct0_st0124&#45;&gt;ID_111_ct0_st01</title>
<path fill="none" stroke="black" d="M759.84,-404.73C753.82,-405.92 747.83,-407.02 742,-408 648.27,-423.69 538.74,-432.63 469.38,-437.15"/>
<polygon fill="black" stroke="black" points="468.78,-433.68 459.03,-437.81 469.23,-440.67 468.78,-433.68"/>
<text text-anchor="start" x="590.5" y="-436.8" font-family="arial" font-size="14.00" fill="#377eb8">true</text>
</g>
<!-- ID_111_ct0_st0124&#45;&gt;ID_111_ct0_st012 -->
<g id="edge40" class="edge">
<title>ID_111_ct0_st0124&#45;&gt;ID_111_ct0_st012</title>
<path fill="none" stroke="black" d="M927.01,-398.37C933.09,-399.28 939.14,-400.17 945,-401 1004.53,-409.44 1437.82,-439.16 1480,-482 1511.99,-514.49 1470.25,-546.82 1498,-583 1498.68,-583.88 1499.38,-584.74 1500.11,-585.58"/>
<polygon fill="black" stroke="black" points="1497.71,-588.13 1507.33,-592.57 1502.58,-583.1 1497.71,-588.13"/>
<text text-anchor="start" x="1189" y="-437.8" font-family="arial" font-size="14.00" fill="#377eb8">(Q&#39; || c0 &gt;= 5)</text>
</g>
<!-- ID_111_ct0_st0124&#45;&gt;ID_111_ct0_st01234 -->
<g id="edge42" class="edge">
<title>ID_111_ct0_st0124&#45;&gt;ID_111_ct0_st01234</title>
<path fill="none" stroke="black" d="M927.22,-389.03C1063.78,-395.2 1330.57,-405.07 1424,-393 1521.62,-380.39 1630.48,-349.37 1702.98,-326.18"/>
<polygon fill="black" stroke="black" points="1704.07,-329.51 1712.52,-323.11 1701.93,-322.84 1704.07,-329.51"/>
<text text-anchor="start" x="1346" y="-401.8" font-family="arial" font-size="14.00" fill="#377eb8">true</text>
</g>
<!-- ID_111_ct0_st0124&#45;&gt;ID_111_ct0_st02 -->
<g id="edge36" class="edge">
<title>ID_111_ct0_st0124&#45;&gt;ID_111_ct0_st02</title>
<path fill="none" stroke="black" d="M876.94,-410.2C907.63,-433.19 955.63,-466.98 1001,-490 1116.1,-548.38 1165.11,-519.72 1274,-589 1283.55,-595.07 1282.88,-600.3 1292,-607 1293.58,-608.16 1295.2,-609.3 1296.86,-610.43"/>
<polygon fill="black" stroke="black" points="1295.06,-613.43 1305.37,-615.88 1298.84,-607.54 1295.06,-613.43"/>
<text text-anchor="start" x="1043.5" y="-545.8" font-family="arial" font-size="14.00" fill="#377eb8">(Q&#39; || c0 &gt;= 5)</text>
</g>
<!-- ID_111_ct0_st0124&#45;&gt;ID_111_ct0_st0234 -->
<g id="edge38" class="edge">
<title>ID_111_ct0_st0124&#45;&gt;ID_111_ct0_st0234</title>
<path fill="none" stroke="black" d="M768.64,-359.95C759.74,-357.61 750.72,-355.54 742,-354 727.32,-351.41 711.63,-349.66 696.29,-348.5"/>
<polygon fill="black" stroke="black" points="696.48,-345 686.27,-347.82 696.01,-351.99 696.48,-345"/>
<text text-anchor="start" x="711" y="-357.8" font-family="arial" font-size="14.00" fill="#377eb8">true</text>
</g>
<!-- ID_111_ct0_st0124&#45;&gt;ID_111_ct0_st024 -->
<g id="edge37" class="edge">
<title>ID_111_ct0_st0124&#45;&gt;ID_111_ct0_st024</title>
<path fill="none" stroke="black" d="M869.82,-359.88C886.76,-342.56 909.13,-318.66 927,-296 935.93,-284.68 933.8,-278.09 945,-269 954.91,-260.96 977.6,-250.91 1001.88,-241.56"/>
<polygon fill="black" stroke="black" points="1003.13,-244.83 1011.24,-238.02 1000.65,-238.28 1003.13,-244.83"/>
<text text-anchor="start" x="945" y="-272.8" font-family="arial" font-size="14.00" fill="#377eb8">c0 &lt; 5</text>
</g>
<!-- ID_111_ct0_st0124&#45;&gt;ID_111_ct0_st0124 -->
<g id="edge41" class="edge">
<title>ID_111_ct0_st0124&#45;&gt;ID_111_ct0_st0124</title>
<path fill="none" stroke="black" d="M821.09,-410.18C820.09,-419.91 827.56,-428 843.5,-428 853.46,-428 860.11,-424.84 863.46,-420.09"/>
<polygon fill="black" stroke="black" points="866.91,-420.72 865.91,-410.18 860.11,-419.04 866.91,-420.72"/>
<text text-anchor="start" x="824.5" y="-431.8" font-family="arial" font-size="14.00" fill="#377eb8">c0 &lt; 5</text>
</g>
</g>
</svg>
