<?xml version="1.0" encoding="UTF-8" standalone="no"?>
<!DOCTYPE svg PUBLIC "-//W3C//DTD SVG 1.1//EN"
 "http://www.w3.org/Graphics/SVG/1.1/DTD/svg11.dtd">
<!-- Generated by graphviz version 2.40.1 (20161225.0304)
 -->
<!-- Title: G Pages: 1 -->
<svg width="1530pt" height="361pt"
 viewBox="0.00 0.00 1530.00 361.00" xmlns="http://www.w3.org/2000/svg" xmlns:xlink="http://www.w3.org/1999/xlink">
<g id="graph0" class="graph" transform="scale(1 1) rotate(0) translate(4 357)">
<title>G</title>
<polygon fill="#ffffff" stroke="transparent" points="-4,4 -4,-357 1526,-357 1526,4 -4,4"/>
<!-- _st0 -->
<!-- st0 -->
<g id="node2" class="node">
<title>st0</title>
<polygon fill="none" stroke="#000000" points="157,-92 91,-92 91,-42 157,-42 157,-92"/>
<text text-anchor="start" x="113" y="-77.8" font-family="arial" font-weight="bold" font-size="14.00" fill="#000000">st0</text>
<text text-anchor="start" x="99" y="-63.8" font-family="arial" font-size="14.00" fill="#984ea3">(R || !Q)</text>
<text text-anchor="start" x="111.5" y="-49.8" font-family="arial" font-size="14.00" fill="#ff7f00">true</text>
</g>
<!-- _st0&#45;&gt;st0 -->
<g id="edge1" class="edge">
<title>_st0&#45;&gt;st0</title>
<path fill="none" stroke="#000000" d="M54.0199,-67C62.3287,-67 71.6915,-67 80.8018,-67"/>
<polygon fill="#000000" stroke="#000000" points="80.9106,-70.5001 90.9106,-67 80.9105,-63.5001 80.9106,-70.5001"/>
</g>
<!-- st0&#45;&gt;st0 -->
<g id="edge4" class="edge">
<title>st0&#45;&gt;st0</title>
<path fill="none" stroke="#000000" d="M114.6616,-92.1756C114.2466,-101.9095 117.3594,-110 124,-110 128.0466,-110 130.7832,-106.9957 132.2098,-102.446"/>
<polygon fill="#000000" stroke="#000000" points="135.7251,-102.4981 133.3384,-92.1756 128.767,-101.7335 135.7251,-102.4981"/>
<text text-anchor="start" x="111.5" y="-113.8" font-family="arial" font-size="14.00" fill="#377eb8">true</text>
</g>
<!-- st012 -->
<g id="node4" class="node">
<title>st012</title>
<polygon fill="none" stroke="#000000" points="379,-159 218,-159 218,-109 379,-109 379,-159"/>
<text text-anchor="start" x="279.5" y="-144.8" font-family="arial" font-weight="bold" font-size="14.00" fill="#000000">st012</text>
<text text-anchor="start" x="226" y="-130.8" font-family="arial" font-size="14.00" fill="#984ea3">(Q &amp;&amp; (!R &amp;&amp; (S || !T)))</text>
<text text-anchor="start" x="286" y="-116.8" font-family="arial" font-size="14.00" fill="#ff7f00">true</text>
</g>
<!-- st0&#45;&gt;st012 -->
<g id="edge5" class="edge">
<title>st0&#45;&gt;st012</title>
<path fill="none" stroke="#000000" d="M157.2329,-79.7599C176.0926,-87.0012 200.5039,-96.374 223.7138,-105.2855"/>
<polygon fill="#000000" stroke="#000000" points="222.6311,-108.6189 233.2212,-108.9359 225.1402,-102.084 222.6311,-108.6189"/>
<text text-anchor="start" x="175" y="-97.8" font-family="arial" font-size="14.00" fill="#377eb8">true</text>
</g>
<!-- st01234 -->
<g id="node6" class="node">
<title>st01234</title>
<polygon fill="none" stroke="#000000" points="1075,-163 902,-163 902,-113 1075,-113 1075,-163"/>
<text text-anchor="start" x="961" y="-148.8" font-family="arial" font-weight="bold" font-size="14.00" fill="#000000">st01234</text>
<text text-anchor="start" x="910" y="-134.8" font-family="arial" font-size="14.00" fill="#984ea3">(Q &amp;&amp; (!R &amp;&amp; (!S &amp;&amp; T)))</text>
<text text-anchor="start" x="976" y="-120.8" font-family="arial" font-size="14.00" fill="#ff7f00">true</text>
</g>
<!-- st0&#45;&gt;st01234 -->
<g id="edge6" class="edge">
<title>st0&#45;&gt;st01234</title>
<path fill="none" stroke="#000000" d="M157.3082,-45.8008C191.3942,-26.1719 246.5777,0 298.5,0 298.5,0 298.5,0 753,0 793.0123,0 804.8974,-1.7492 841,-19 886.0461,-40.5243 929.5114,-78.3388 957.4447,-105.5711"/>
<polygon fill="#000000" stroke="#000000" points="955.3301,-108.4025 964.8999,-112.949 960.254,-103.4271 955.3301,-108.4025"/>
<text text-anchor="start" x="509.5" y="-3.8" font-family="arial" font-size="14.00" fill="#377eb8">true</text>
</g>
<!-- _st012 -->
<!-- _st012&#45;&gt;st012 -->
<g id="edge2" class="edge">
<title>_st012&#45;&gt;st012</title>
<path fill="none" stroke="#000000" d="M154.7954,-158.7057C169.7929,-156.1273 188.6903,-152.8785 207.8084,-149.5917"/>
<polygon fill="#000000" stroke="#000000" points="208.5443,-153.0166 217.8066,-147.8728 207.3582,-146.1178 208.5443,-153.0166"/>
</g>
<!-- st012&#45;&gt;st0 -->
<g id="edge12" class="edge">
<title>st012&#45;&gt;st0</title>
<path fill="none" stroke="#000000" d="M217.7647,-126.1745C203.0831,-122.9388 188.2394,-118.3894 175,-112 167.8965,-108.5718 161.0278,-103.869 154.755,-98.79"/>
<polygon fill="#000000" stroke="#000000" points="157.0102,-96.1131 147.1553,-92.2231 152.4334,-101.4096 157.0102,-96.1131"/>
<text text-anchor="start" x="180.5" y="-123.8" font-family="arial" font-size="14.00" fill="#377eb8">R&#39;</text>
</g>
<!-- st012&#45;&gt;st012 -->
<g id="edge15" class="edge">
<title>st012&#45;&gt;st012</title>
<path fill="none" stroke="#000000" d="M277.9556,-159.1756C277.0425,-168.9095 283.8906,-177 298.5,-177 307.6309,-177 313.73,-173.8397 316.7974,-169.093"/>
<polygon fill="#000000" stroke="#000000" points="320.2481,-169.7019 319.0444,-159.1756 313.4211,-168.155 320.2481,-169.7019"/>
<text text-anchor="start" x="286" y="-180.8" font-family="arial" font-size="14.00" fill="#377eb8">true</text>
</g>
<!-- st012&#45;&gt;st01234 -->
<g id="edge16" class="edge">
<title>st012&#45;&gt;st01234</title>
<path fill="none" stroke="#000000" d="M379.0402,-118.6067C398.8932,-115.4494 420.1539,-112.6024 440,-111 598.0455,-98.2391 782.2307,-113.4531 891.8922,-125.6802"/>
<polygon fill="#000000" stroke="#000000" points="891.6119,-129.1708 901.9417,-126.8157 892.3979,-122.215 891.6119,-129.1708"/>
<text text-anchor="start" x="622" y="-110.8" font-family="arial" font-size="14.00" fill="#377eb8">true</text>
</g>
<!-- st02 -->
<g id="node7" class="node">
<title>st02</title>
<polygon fill="none" stroke="#000000" points="604,-170 440,-170 440,-120 604,-120 604,-170"/>
<text text-anchor="start" x="507" y="-155.8" font-family="arial" font-weight="bold" font-size="14.00" fill="#000000">st02</text>
<text text-anchor="start" x="448" y="-141.8" font-family="arial" font-size="14.00" fill="#984ea3">(!Q &amp;&amp; (!R &amp;&amp; (S || !T)))</text>
<text text-anchor="start" x="509.5" y="-127.8" font-family="arial" font-size="14.00" fill="#ff7f00">true</text>
</g>
<!-- st012&#45;&gt;st02 -->
<g id="edge13" class="edge">
<title>st012&#45;&gt;st02</title>
<path fill="none" stroke="#000000" d="M379.267,-124.1324C393.5161,-123.5272 408.2014,-123.6337 422,-125 424.5437,-125.2519 427.1186,-125.539 429.713,-125.8565"/>
<polygon fill="#000000" stroke="#000000" points="429.4128,-129.3477 439.7921,-127.2219 430.3526,-122.411 429.4128,-129.3477"/>
<text text-anchor="start" x="397" y="-128.8" font-family="arial" font-size="14.00" fill="#377eb8">true</text>
</g>
<!-- st0234 -->
<g id="node8" class="node">
<title>st0234</title>
<polygon fill="none" stroke="#000000" points="841,-264 665,-264 665,-214 841,-214 841,-264"/>
<text text-anchor="start" x="730" y="-249.8" font-family="arial" font-weight="bold" font-size="14.00" fill="#000000">st0234</text>
<text text-anchor="start" x="673" y="-235.8" font-family="arial" font-size="14.00" fill="#984ea3">(!Q &amp;&amp; (!R &amp;&amp; (!S &amp;&amp; T)))</text>
<text text-anchor="start" x="740.5" y="-221.8" font-family="arial" font-size="14.00" fill="#ff7f00">true</text>
</g>
<!-- st012&#45;&gt;st0234 -->
<g id="edge14" class="edge">
<title>st012&#45;&gt;st0234</title>
<path fill="none" stroke="#000000" d="M334.1476,-159.1721C361.6875,-177.208 401.4846,-200.2998 440,-212 509.7036,-233.1745 591.8747,-239.6037 654.5299,-240.9099"/>
<polygon fill="#000000" stroke="#000000" points="654.7498,-244.414 664.807,-241.0821 654.8671,-237.415 654.7498,-244.414"/>
<text text-anchor="start" x="509.5" y="-241.8" font-family="arial" font-size="14.00" fill="#377eb8">true</text>
</g>
<!-- _st01234 -->
<!-- _st01234&#45;&gt;st01234 -->
<g id="edge3" class="edge">
<title>_st01234&#45;&gt;st01234</title>
<path fill="none" stroke="#000000" d="M791.7189,-52.4829C818.2778,-57.6427 854.0012,-66.0044 884,-78 903.6842,-85.8711 924.159,-96.9123 941.7142,-107.3805"/>
<polygon fill="#000000" stroke="#000000" points="940.2446,-110.5829 950.6086,-112.7827 943.8785,-104.6 940.2446,-110.5829"/>
</g>
<!-- st01234&#45;&gt;st01234 -->
<g id="edge32" class="edge">
<title>st01234&#45;&gt;st01234</title>
<path fill="none" stroke="#000000" d="M966.835,-163.1756C965.8721,-172.9095 973.0938,-181 988.5,-181 998.1289,-181 1004.5607,-177.8397 1007.7954,-173.093"/>
<polygon fill="#000000" stroke="#000000" points="1011.2452,-173.7153 1010.165,-163.1756 1004.4368,-172.0884 1011.2452,-173.7153"/>
<text text-anchor="start" x="976" y="-184.8" font-family="arial" font-size="14.00" fill="#377eb8">true</text>
</g>
<!-- st01234&#45;&gt;st0234 -->
<g id="edge30" class="edge">
<title>st01234&#45;&gt;st0234</title>
<path fill="none" stroke="#000000" d="M901.7596,-153.4942C887.1898,-157.3912 872.4464,-162.1732 859,-168 835.4542,-178.2032 811.5103,-193.7129 792.3509,-207.6363"/>
<polygon fill="#000000" stroke="#000000" points="790.129,-204.9265 784.1764,-213.691 794.2954,-210.5516 790.129,-204.9265"/>
<text text-anchor="start" x="859" y="-171.8" font-family="arial" font-size="14.00" fill="#377eb8">true</text>
</g>
<!-- st024 -->
<g id="node9" class="node">
<title>st024</title>
<polygon fill="none" stroke="#000000" points="1522,-230 1358,-230 1358,-180 1522,-180 1522,-230"/>
<text text-anchor="start" x="1421" y="-215.8" font-family="arial" font-weight="bold" font-size="14.00" fill="#000000">st024</text>
<text text-anchor="start" x="1366" y="-201.8" font-family="arial" font-size="14.00" fill="#984ea3">(!Q &amp;&amp; (!R &amp;&amp; (S || !T)))</text>
<text text-anchor="start" x="1427.5" y="-187.8" font-family="arial" font-size="14.00" fill="#ff7f00">true</text>
</g>
<!-- st01234&#45;&gt;st024 -->
<g id="edge29" class="edge">
<title>st01234&#45;&gt;st024</title>
<path fill="none" stroke="#000000" d="M1075.0944,-142.7913C1137.2015,-147.1089 1222.6827,-154.8551 1297,-168 1313.5706,-170.9309 1331.0421,-174.7904 1347.8637,-178.9098"/>
<polygon fill="#000000" stroke="#000000" points="1347.1313,-182.3343 1357.6813,-181.3603 1348.8266,-175.5427 1347.1313,-182.3343"/>
<text text-anchor="start" x="1204" y="-171.8" font-family="arial" font-size="14.00" fill="#377eb8">true</text>
</g>
<!-- st0124 -->
<g id="node10" class="node">
<title>st0124</title>
<polygon fill="none" stroke="#000000" points="1297,-242 1136,-242 1136,-192 1297,-192 1297,-242"/>
<text text-anchor="start" x="1193.5" y="-227.8" font-family="arial" font-weight="bold" font-size="14.00" fill="#000000">st0124</text>
<text text-anchor="start" x="1144" y="-213.8" font-family="arial" font-size="14.00" fill="#984ea3">(Q &amp;&amp; (!R &amp;&amp; (S || !T)))</text>
<text text-anchor="start" x="1204" y="-199.8" font-family="arial" font-size="14.00" fill="#ff7f00">true</text>
</g>
<!-- st01234&#45;&gt;st0124 -->
<g id="edge31" class="edge">
<title>st01234&#45;&gt;st0124</title>
<path fill="none" stroke="#000000" d="M1036.5645,-163.0007C1054.0183,-171.4164 1074.0985,-180.3483 1093,-187 1103.5441,-190.7106 1114.7513,-194.1274 1125.9464,-197.2215"/>
<polygon fill="#000000" stroke="#000000" points="1125.1989,-200.6447 1135.7644,-199.8566 1127.0136,-193.8839 1125.1989,-200.6447"/>
<text text-anchor="start" x="1093" y="-197.8" font-family="arial" font-size="14.00" fill="#377eb8">true</text>
</g>
<!-- st02&#45;&gt;st0 -->
<g id="edge7" class="edge">
<title>st02&#45;&gt;st0</title>
<path fill="none" stroke="#000000" d="M473.3789,-119.9188C446.3201,-107.1713 411.6068,-92.7679 379,-85 306.0958,-67.632 218.417,-65.3449 167.1771,-65.8001"/>
<polygon fill="#000000" stroke="#000000" points="167.0766,-62.301 157.1224,-65.9292 167.1665,-69.3004 167.0766,-62.301"/>
<text text-anchor="start" x="291.5" y="-88.8" font-family="arial" font-size="14.00" fill="#377eb8">R&#39;</text>
</g>
<!-- st02&#45;&gt;st012 -->
<g id="edge10" class="edge">
<title>st02&#45;&gt;st012</title>
<path fill="none" stroke="#000000" d="M439.9346,-145.4351C425.6155,-145.1992 410.8686,-144.7578 397,-144 394.447,-143.8605 391.8581,-143.7034 389.2462,-143.5314"/>
<polygon fill="#000000" stroke="#000000" points="389.3101,-140.027 379.0842,-142.7983 388.8064,-147.0088 389.3101,-140.027"/>
<text text-anchor="start" x="397" y="-147.8" font-family="arial" font-size="14.00" fill="#377eb8">true</text>
</g>
<!-- st02&#45;&gt;st01234 -->
<g id="edge11" class="edge">
<title>st02&#45;&gt;st01234</title>
<path fill="none" stroke="#000000" d="M604.0593,-143.7687C684.3262,-142.5642 806.5655,-140.73 891.5778,-139.4544"/>
<polygon fill="#000000" stroke="#000000" points="891.8089,-142.9514 901.7552,-139.3016 891.7038,-135.9522 891.8089,-142.9514"/>
<text text-anchor="start" x="740.5" y="-145.8" font-family="arial" font-size="14.00" fill="#377eb8">true</text>
</g>
<!-- st02&#45;&gt;st02 -->
<g id="edge8" class="edge">
<title>st02&#45;&gt;st02</title>
<path fill="none" stroke="#000000" d="M501.082,-170.1756C500.1523,-179.9095 507.125,-188 522,-188 531.2969,-188 537.5069,-184.8397 540.6301,-180.093"/>
<polygon fill="#000000" stroke="#000000" points="544.0804,-180.7065 542.918,-170.1756 537.2595,-179.1329 544.0804,-180.7065"/>
<text text-anchor="start" x="509.5" y="-191.8" font-family="arial" font-size="14.00" fill="#377eb8">true</text>
</g>
<!-- st02&#45;&gt;st0234 -->
<g id="edge9" class="edge">
<title>st02&#45;&gt;st0234</title>
<path fill="none" stroke="#000000" d="M583.6003,-170.0668C613.76,-182.3396 650.2402,-197.1843 681.6112,-209.95"/>
<polygon fill="#000000" stroke="#000000" points="680.5887,-213.3126 691.1704,-213.8399 683.2271,-206.8288 680.5887,-213.3126"/>
<text text-anchor="start" x="622" y="-197.8" font-family="arial" font-size="14.00" fill="#377eb8">true</text>
</g>
<!-- st0234&#45;&gt;st01234 -->
<g id="edge28" class="edge">
<title>st0234&#45;&gt;st01234</title>
<path fill="none" stroke="#000000" d="M818.2864,-213.9845C839.3707,-205.6662 862.7761,-196.1783 884,-187 898.1817,-180.8671 913.3011,-173.9831 927.5065,-167.357"/>
<polygon fill="#000000" stroke="#000000" points="929.1225,-170.465 936.6905,-163.0504 926.1506,-164.1272 929.1225,-170.465"/>
<text text-anchor="start" x="859" y="-200.8" font-family="arial" font-size="14.00" fill="#377eb8">true</text>
</g>
<!-- st0234&#45;&gt;st0234 -->
<g id="edge26" class="edge">
<title>st0234&#45;&gt;st0234</title>
<path fill="none" stroke="#000000" d="M730.9614,-264.1756C729.9819,-273.9095 737.3281,-282 753,-282 762.7949,-282 769.3376,-278.8397 772.6281,-274.093"/>
<polygon fill="#000000" stroke="#000000" points="776.0777,-274.7194 775.0386,-264.1756 769.2757,-273.0661 776.0777,-274.7194"/>
<text text-anchor="start" x="740.5" y="-285.8" font-family="arial" font-size="14.00" fill="#377eb8">true</text>
</g>
<!-- st0234&#45;&gt;st024 -->
<g id="edge25" class="edge">
<title>st0234&#45;&gt;st024</title>
<path fill="none" stroke="#000000" d="M800.978,-264.1564C829.5414,-277.9652 866.9461,-294.0555 902,-303 1072.114,-346.4069 1127.1883,-351.5747 1297,-307 1341.0268,-295.4432 1382.3279,-262.6864 1409.1141,-237.3806"/>
<polygon fill="#000000" stroke="#000000" points="1411.8546,-239.5993 1416.6108,-230.132 1406.9888,-234.5669 1411.8546,-239.5993"/>
<text text-anchor="start" x="1093" y="-341.8" font-family="arial" font-size="14.00" fill="#377eb8">true</text>
</g>
<!-- st0234&#45;&gt;st0124 -->
<g id="edge27" class="edge">
<title>st0234&#45;&gt;st0124</title>
<path fill="none" stroke="#000000" d="M841.2033,-245.695C847.2258,-246.1404 853.2019,-246.5789 859,-247 954.7571,-253.9538 979.6201,-260.9748 1075,-250 1091.654,-248.0837 1109.1972,-244.9385 1126.0455,-241.3314"/>
<polygon fill="#000000" stroke="#000000" points="1126.8639,-244.7351 1135.8733,-239.1601 1125.3537,-237.9 1126.8639,-244.7351"/>
<text text-anchor="start" x="976" y="-258.8" font-family="arial" font-size="14.00" fill="#377eb8">true</text>
</g>
<!-- st024&#45;&gt;st01234 -->
<g id="edge20" class="edge">
<title>st024&#45;&gt;st01234</title>
<path fill="none" stroke="#000000" d="M1417.263,-179.587C1391.3346,-152.9585 1346.1316,-113.3144 1297,-101 1224.2375,-82.7627 1139.4952,-95.2563 1077.2583,-110.4757"/>
<polygon fill="#000000" stroke="#000000" points="1076.3128,-107.1044 1067.4682,-112.9374 1078.0198,-113.8931 1076.3128,-107.1044"/>
<text text-anchor="start" x="1204" y="-104.8" font-family="arial" font-size="14.00" fill="#377eb8">true</text>
</g>
<!-- st024&#45;&gt;st0234 -->
<g id="edge18" class="edge">
<title>st024&#45;&gt;st0234</title>
<path fill="none" stroke="#000000" d="M1406.2606,-230.1077C1378.5311,-249.0864 1337.373,-273.5895 1297,-284 1144.6785,-323.2772 961.1779,-292.7008 850.9705,-266.3439"/>
<polygon fill="#000000" stroke="#000000" points="851.7386,-262.9288 841.1951,-263.971 850.0873,-269.7312 851.7386,-262.9288"/>
<text text-anchor="start" x="1093" y="-305.8" font-family="arial" font-size="14.00" fill="#377eb8">true</text>
</g>
<!-- st024&#45;&gt;st024 -->
<g id="edge17" class="edge">
<title>st024&#45;&gt;st024</title>
<path fill="none" stroke="#000000" d="M1419.082,-230.1756C1418.1523,-239.9095 1425.125,-248 1440,-248 1449.2969,-248 1455.5069,-244.8397 1458.6301,-240.093"/>
<polygon fill="#000000" stroke="#000000" points="1462.0804,-240.7065 1460.918,-230.1756 1455.2595,-239.1329 1462.0804,-240.7065"/>
<text text-anchor="start" x="1427.5" y="-251.8" font-family="arial" font-size="14.00" fill="#377eb8">true</text>
</g>
<!-- st024&#45;&gt;st0124 -->
<g id="edge19" class="edge">
<title>st024&#45;&gt;st0124</title>
<path fill="none" stroke="#000000" d="M1357.9271,-209.4066C1341.5137,-210.2879 1324.1795,-211.2186 1307.486,-212.1148"/>
<polygon fill="#000000" stroke="#000000" points="1306.9866,-208.6365 1297.1886,-212.6677 1307.3619,-215.6265 1306.9866,-208.6365"/>
<text text-anchor="start" x="1315" y="-214.8" font-family="arial" font-size="14.00" fill="#377eb8">true</text>
</g>
<!-- st0124&#45;&gt;st01234 -->
<g id="edge24" class="edge">
<title>st0124&#45;&gt;st01234</title>
<path fill="none" stroke="#000000" d="M1166.0659,-191.946C1150.8426,-184.9346 1133.9371,-177.685 1118,-172 1107.4168,-168.2248 1096.2129,-164.663 1085.0002,-161.3687"/>
<polygon fill="#000000" stroke="#000000" points="1085.7372,-157.9389 1075.1597,-158.5438 1083.8057,-164.6672 1085.7372,-157.9389"/>
<text text-anchor="start" x="1093" y="-175.8" font-family="arial" font-size="14.00" fill="#377eb8">true</text>
</g>
<!-- st0124&#45;&gt;st0234 -->
<g id="edge22" class="edge">
<title>st0124&#45;&gt;st0234</title>
<path fill="none" stroke="#000000" d="M1135.9206,-220.8247C1056.8489,-224.5778 936.125,-230.308 851.4181,-234.3286"/>
<polygon fill="#000000" stroke="#000000" points="851.0946,-230.8399 841.2718,-234.8102 851.4265,-237.832 851.0946,-230.8399"/>
<text text-anchor="start" x="976" y="-234.8" font-family="arial" font-size="14.00" fill="#377eb8">true</text>
</g>
<!-- st0124&#45;&gt;st024 -->
<g id="edge21" class="edge">
<title>st0124&#45;&gt;st024</title>
<path fill="none" stroke="#000000" d="M1297.0657,-193.947C1303.0997,-192.7705 1309.1243,-191.7624 1315,-191 1325.6112,-189.6231 1336.7399,-189.2862 1347.7991,-189.6417"/>
<polygon fill="#000000" stroke="#000000" points="1347.7554,-193.1438 1357.9192,-190.1527 1348.1085,-186.1527 1347.7554,-193.1438"/>
<text text-anchor="start" x="1315" y="-194.8" font-family="arial" font-size="14.00" fill="#377eb8">true</text>
</g>
<!-- st0124&#45;&gt;st0124 -->
<g id="edge23" class="edge">
<title>st0124&#45;&gt;st0124</title>
<path fill="none" stroke="#000000" d="M1195.9556,-242.1756C1195.0425,-251.9095 1201.8906,-260 1216.5,-260 1225.6309,-260 1231.73,-256.8397 1234.7974,-252.093"/>
<polygon fill="#000000" stroke="#000000" points="1238.2481,-252.7019 1237.0444,-242.1756 1231.4211,-251.155 1238.2481,-252.7019"/>
<text text-anchor="start" x="1204" y="-263.8" font-family="arial" font-size="14.00" fill="#377eb8">true</text>
</g>
</g>
</svg>
