<?xml version="1.0" encoding="UTF-8" standalone="no"?>
<!DOCTYPE svg PUBLIC "-//W3C//DTD SVG 1.1//EN"
 "http://www.w3.org/Graphics/SVG/1.1/DTD/svg11.dtd">
<!-- Generated by graphviz version 2.43.0 (0)
 -->
<!-- Title: G Pages: 1 -->
<svg width="679pt" height="161pt"
 viewBox="0.00 0.00 679.00 161.00" xmlns="http://www.w3.org/2000/svg" xmlns:xlink="http://www.w3.org/1999/xlink">
<g id="graph0" class="graph" transform="scale(1 1) rotate(0) translate(4 157)">
<title>G</title>
<polygon fill="white" stroke="transparent" points="-4,4 -4,-157 675,-157 675,4 -4,4"/>
<!-- _ID_114_ct0_st0 -->
<!-- ID_114_ct0_st0 -->
<g id="node2" class="node">
<title>ID_114_ct0_st0</title>
<polygon fill="none" stroke="black" points="278,-120 165,-120 165,-70 278,-70 278,-120"/>
<text text-anchor="start" x="173" y="-105.8" font-family="arial" font-weight="bold" font-size="14.00">ID_114_ct0_st0</text>
<text text-anchor="start" x="214.5" y="-91.8" font-family="arial" font-size="14.00" fill="#984ea3">!R</text>
<text text-anchor="start" x="209.5" y="-77.8" font-family="arial" font-size="14.00" fill="#ff7f00">true</text>
</g>
<!-- _ID_114_ct0_st0&#45;&gt;ID_114_ct0_st0 -->
<g id="edge1" class="edge">
<title>_ID_114_ct0_st0&#45;&gt;ID_114_ct0_st0</title>
<path fill="none" stroke="black" d="M118.4,-95C130.23,-95 142.75,-95 154.82,-95"/>
<polygon fill="black" stroke="black" points="154.82,-98.5 164.82,-95 154.82,-91.5 154.82,-98.5"/>
</g>
<!-- ID_114_ct0_st0&#45;&gt;ID_114_ct0_st0 -->
<g id="edge3" class="edge">
<title>ID_114_ct0_st0&#45;&gt;ID_114_ct0_st0</title>
<path fill="none" stroke="black" d="M205.81,-120.18C205.11,-129.91 210.34,-138 221.5,-138 228.47,-138 233.13,-134.84 235.47,-130.09"/>
<polygon fill="black" stroke="black" points="238.93,-130.63 237.19,-120.18 232.03,-129.43 238.93,-130.63"/>
<text text-anchor="start" x="209.5" y="-141.8" font-family="arial" font-size="14.00" fill="#377eb8">true</text>
</g>
<!-- ID_114_ct0_st012 -->
<g id="node4" class="node">
<title>ID_114_ct0_st012</title>
<polygon fill="none" stroke="black" points="476,-50 348,-50 348,0 476,0 476,-50"/>
<text text-anchor="start" x="356" y="-35.8" font-family="arial" font-weight="bold" font-size="14.00">ID_114_ct0_st012</text>
<text text-anchor="start" x="385" y="-21.8" font-family="arial" font-size="14.00" fill="#984ea3">(R &amp;&amp; S)</text>
<text text-anchor="start" x="400" y="-7.8" font-family="arial" font-size="14.00" fill="#ff7f00">true</text>
</g>
<!-- ID_114_ct0_st0&#45;&gt;ID_114_ct0_st012 -->
<g id="edge4" class="edge">
<title>ID_114_ct0_st0&#45;&gt;ID_114_ct0_st012</title>
<path fill="none" stroke="black" d="M278.04,-74.38C296.97,-67.34 318.44,-59.37 338.51,-51.92"/>
<polygon fill="black" stroke="black" points="339.76,-55.19 347.92,-48.42 337.33,-48.62 339.76,-55.19"/>
<text text-anchor="start" x="306" y="-66.8" font-family="arial" font-size="14.00" fill="#377eb8">true</text>
</g>
<!-- _ID_114_ct0_st012 -->
<!-- _ID_114_ct0_st012&#45;&gt;ID_114_ct0_st012 -->
<g id="edge2" class="edge">
<title>_ID_114_ct0_st012&#45;&gt;ID_114_ct0_st012</title>
<path fill="none" stroke="black" d="M288.16,-25C304.18,-25 321.41,-25 337.75,-25"/>
<polygon fill="black" stroke="black" points="337.79,-28.5 347.79,-25 337.79,-21.5 337.79,-28.5"/>
</g>
<!-- ID_114_ct0_st012&#45;&gt;ID_114_ct0_st012 -->
<g id="edge9" class="edge">
<title>ID_114_ct0_st012&#45;&gt;ID_114_ct0_st012</title>
<path fill="none" stroke="black" d="M394.44,-50.18C393.66,-59.91 399.52,-68 412,-68 419.8,-68 425.01,-64.84 427.64,-60.09"/>
<polygon fill="black" stroke="black" points="431.09,-60.66 429.56,-50.18 424.22,-59.33 431.09,-60.66"/>
<text text-anchor="start" x="400" y="-71.8" font-family="arial" font-size="14.00" fill="#377eb8">true</text>
</g>
<!-- ID_114_ct0_st02 -->
<g id="node5" class="node">
<title>ID_114_ct0_st02</title>
<polygon fill="none" stroke="black" points="671,-88 550,-88 550,-38 671,-38 671,-88"/>
<text text-anchor="start" x="558" y="-73.8" font-family="arial" font-weight="bold" font-size="14.00">ID_114_ct0_st02</text>
<text text-anchor="start" x="581.5" y="-59.8" font-family="arial" font-size="14.00" fill="#984ea3">(!R &amp;&amp; S)</text>
<text text-anchor="start" x="587.5" y="-45.8" font-family="arial" font-size="14.00" fill="#ff7f00">c0 &lt;= 5</text>
</g>
<!-- ID_114_ct0_st012&#45;&gt;ID_114_ct0_st02 -->
<g id="edge8" class="edge">
<title>ID_114_ct0_st012&#45;&gt;ID_114_ct0_st02</title>
<path fill="none" stroke="black" d="M476.22,-37.53C482.23,-38.71 488.23,-39.88 494,-41 508.88,-43.89 524.84,-46.95 540,-49.84"/>
<polygon fill="black" stroke="black" points="539.36,-53.28 549.84,-51.72 540.67,-46.41 539.36,-53.28"/>
<text text-anchor="start" x="501" y="-66.8" font-family="arial" font-size="14.00" fill="#377eb8">true</text>
<text text-anchor="start" x="494" y="-51.8" font-family="arial" font-size="14.00">c0 :=0</text>
</g>
<!-- ID_114_ct0_st02&#45;&gt;ID_114_ct0_st0 -->
<g id="edge5" class="edge">
<title>ID_114_ct0_st02&#45;&gt;ID_114_ct0_st0</title>
<path fill="none" stroke="black" d="M549.93,-78.01C543.88,-79.41 537.83,-80.77 532,-82 507.27,-87.23 501.17,-89.62 476,-92 412.46,-98.01 339.57,-98.17 288.3,-97.19"/>
<polygon fill="black" stroke="black" points="288.1,-93.68 278.03,-96.97 287.95,-100.68 288.1,-93.68"/>
<text text-anchor="start" x="389" y="-100.8" font-family="arial" font-size="14.00" fill="#377eb8">c0 &gt;= 5</text>
</g>
<!-- ID_114_ct0_st02&#45;&gt;ID_114_ct0_st012 -->
<g id="edge7" class="edge">
<title>ID_114_ct0_st02&#45;&gt;ID_114_ct0_st012</title>
<path fill="none" stroke="black" d="M565.22,-37.82C554.65,-32.96 543.19,-28.58 532,-26 517.52,-22.66 501.79,-21.11 486.65,-20.62"/>
<polygon fill="black" stroke="black" points="486.35,-17.12 476.29,-20.44 486.22,-24.12 486.35,-17.12"/>
<text text-anchor="start" x="501" y="-29.8" font-family="arial" font-size="14.00" fill="#377eb8">true</text>
</g>
<!-- ID_114_ct0_st02&#45;&gt;ID_114_ct0_st02 -->
<g id="edge6" class="edge">
<title>ID_114_ct0_st02&#45;&gt;ID_114_ct0_st02</title>
<path fill="none" stroke="black" d="M592.57,-88.18C591.77,-97.91 597.75,-106 610.5,-106 618.47,-106 623.79,-102.84 626.47,-98.09"/>
<polygon fill="black" stroke="black" points="629.92,-98.66 628.43,-88.18 623.06,-97.31 629.92,-98.66"/>
<text text-anchor="start" x="591.5" y="-109.8" font-family="arial" font-size="14.00" fill="#377eb8">c0 &lt; 5</text>
</g>
</g>
</svg>
