<?xml version="1.0" encoding="UTF-8" standalone="no"?>
<!DOCTYPE svg PUBLIC "-//W3C//DTD SVG 1.1//EN"
 "http://www.w3.org/Graphics/SVG/1.1/DTD/svg11.dtd">
<!-- Generated by graphviz version 2.43.0 (0)
 -->
<!-- Title: G Pages: 1 -->
<svg width="819pt" height="249pt"
 viewBox="0.00 0.00 819.00 249.00" xmlns="http://www.w3.org/2000/svg" xmlns:xlink="http://www.w3.org/1999/xlink">
<g id="graph0" class="graph" transform="scale(1 1) rotate(0) translate(4 245)">
<title>G</title>
<polygon fill="white" stroke="transparent" points="-4,4 -4,-245 815,-245 815,4 -4,4"/>
<!-- _ID_67_ct0_st -->
<!-- ID_67_ct0_st -->
<g id="node2" class="node">
<title>ID_67_ct0_st</title>
<polygon fill="none" stroke="black" points="811,-173 712,-173 712,-123 811,-123 811,-173"/>
<text text-anchor="start" x="720" y="-158.8" font-family="arial" font-weight="bold" font-size="14.00">ID_67_ct0_st</text>
<text text-anchor="start" x="749.5" y="-144.8" font-family="arial" font-size="14.00" fill="#984ea3">true</text>
<text text-anchor="start" x="749.5" y="-130.8" font-family="arial" font-size="14.00" fill="#ff7f00">true</text>
</g>
<!-- _ID_67_ct0_st&#45;&gt;ID_67_ct0_st -->
<g id="edge1" class="edge">
<title>_ID_67_ct0_st&#45;&gt;ID_67_ct0_st</title>
<path fill="none" stroke="black" d="M650.08,-204.9C664.43,-199.25 680,-192.73 694,-186 699.22,-183.49 704.59,-180.74 709.91,-177.89"/>
<polygon fill="black" stroke="black" points="711.67,-180.91 718.77,-173.04 708.32,-174.77 711.67,-180.91"/>
</g>
<!-- ID_67_ct0_st&#45;&gt;ID_67_ct0_st -->
<g id="edge4" class="edge">
<title>ID_67_ct0_st&#45;&gt;ID_67_ct0_st</title>
<path fill="none" stroke="black" d="M747.68,-173.18C747.06,-182.91 751.67,-191 761.5,-191 767.64,-191 771.75,-187.84 773.81,-183.09"/>
<polygon fill="black" stroke="black" points="777.27,-183.59 775.32,-173.18 770.35,-182.53 777.27,-183.59"/>
<text text-anchor="start" x="749.5" y="-194.8" font-family="arial" font-size="14.00" fill="#377eb8">true</text>
</g>
<!-- _ID_67_ct0_st0 -->
<!-- ID_67_ct0_st0 -->
<g id="node4" class="node">
<title>ID_67_ct0_st0</title>
<polygon fill="none" stroke="black" points="464,-141 357,-141 357,-91 464,-91 464,-141"/>
<text text-anchor="start" x="365" y="-126.8" font-family="arial" font-weight="bold" font-size="14.00">ID_67_ct0_st0</text>
<text text-anchor="start" x="378.5" y="-112.8" font-family="arial" font-size="14.00" fill="#984ea3">(!Q &amp;&amp; !R)</text>
<text text-anchor="start" x="398.5" y="-98.8" font-family="arial" font-size="14.00" fill="#ff7f00">true</text>
</g>
<!-- _ID_67_ct0_st0&#45;&gt;ID_67_ct0_st0 -->
<g id="edge2" class="edge">
<title>_ID_67_ct0_st0&#45;&gt;ID_67_ct0_st0</title>
<path fill="none" stroke="black" d="M288.57,-118.07C306.99,-117.75 327.7,-117.4 346.71,-117.07"/>
<polygon fill="black" stroke="black" points="346.83,-120.57 356.77,-116.9 346.71,-113.57 346.83,-120.57"/>
</g>
<!-- ID_67_ct0_st0&#45;&gt;ID_67_ct0_st -->
<g id="edge5" class="edge">
<title>ID_67_ct0_st0&#45;&gt;ID_67_ct0_st</title>
<path fill="none" stroke="black" d="M464.12,-130.71C470.13,-132.24 476.19,-133.7 482,-135 506.67,-140.52 512.83,-142.6 538,-145 593.3,-150.27 656.68,-150.57 701.61,-149.82"/>
<polygon fill="black" stroke="black" points="701.83,-153.31 711.76,-149.62 701.7,-146.31 701.83,-153.31"/>
<text text-anchor="start" x="592" y="-153.8" font-family="arial" font-size="14.00" fill="#377eb8">Q&#39;</text>
</g>
<!-- ID_67_ct0_st0&#45;&gt;ID_67_ct0_st0 -->
<g id="edge6" class="edge">
<title>ID_67_ct0_st0&#45;&gt;ID_67_ct0_st0</title>
<path fill="none" stroke="black" d="M395.19,-141.18C394.5,-150.91 399.61,-159 410.5,-159 417.31,-159 421.85,-155.84 424.14,-151.09"/>
<polygon fill="black" stroke="black" points="427.6,-151.62 425.81,-141.18 420.7,-150.45 427.6,-151.62"/>
<text text-anchor="start" x="398.5" y="-162.8" font-family="arial" font-size="14.00" fill="#377eb8">true</text>
</g>
<!-- ID_67_ct0_st01X -->
<g id="node7" class="node">
<title>ID_67_ct0_st01X</title>
<polygon fill="none" stroke="black" points="661,-103 538,-103 538,-53 661,-53 661,-103"/>
<text text-anchor="start" x="546" y="-88.8" font-family="arial" font-weight="bold" font-size="14.00">ID_67_ct0_st01X</text>
<text text-anchor="start" x="569.5" y="-74.8" font-family="arial" font-size="14.00" fill="#984ea3">(!Q &amp;&amp; R)</text>
<text text-anchor="start" x="580.5" y="-60.8" font-family="arial" font-size="14.00" fill="#ff7f00">c0 &lt; 5</text>
</g>
<!-- ID_67_ct0_st0&#45;&gt;ID_67_ct0_st01X -->
<g id="edge7" class="edge">
<title>ID_67_ct0_st0&#45;&gt;ID_67_ct0_st01X</title>
<path fill="none" stroke="black" d="M464.2,-105.32C481.93,-101.73 501.82,-97.69 520,-94 522.5,-93.49 525.05,-92.97 527.63,-92.45"/>
<polygon fill="black" stroke="black" points="528.55,-95.83 537.65,-90.41 527.15,-88.97 528.55,-95.83"/>
<text text-anchor="start" x="489" y="-119.8" font-family="arial" font-size="14.00" fill="#377eb8">true</text>
<text text-anchor="start" x="482" y="-104.8" font-family="arial" font-size="14.00">c0 :=0</text>
</g>
<!-- _ID_67_ct0_st01W -->
<!-- ID_67_ct0_st01W -->
<g id="node6" class="node">
<title>ID_67_ct0_st01W</title>
<polygon fill="none" stroke="black" points="297,-50 169,-50 169,0 297,0 297,-50"/>
<text text-anchor="start" x="177" y="-35.8" font-family="arial" font-weight="bold" font-size="14.00">ID_67_ct0_st01W</text>
<text text-anchor="start" x="203" y="-21.8" font-family="arial" font-size="14.00" fill="#984ea3">(!Q &amp;&amp; R)</text>
<text text-anchor="start" x="210" y="-7.8" font-family="arial" font-size="14.00" fill="#ff7f00">c0 &lt;= 5</text>
</g>
<!-- _ID_67_ct0_st01W&#45;&gt;ID_67_ct0_st01W -->
<g id="edge3" class="edge">
<title>_ID_67_ct0_st01W&#45;&gt;ID_67_ct0_st01W</title>
<path fill="none" stroke="black" d="M132.21,-25C140.89,-25 149.83,-25 158.63,-25"/>
<polygon fill="black" stroke="black" points="158.88,-28.5 168.88,-25 158.88,-21.5 158.88,-28.5"/>
</g>
<!-- ID_67_ct0_st01W&#45;&gt;ID_67_ct0_st -->
<g id="edge8" class="edge">
<title>ID_67_ct0_st01W&#45;&gt;ID_67_ct0_st</title>
<path fill="none" stroke="black" d="M297.09,-13.75C383.5,-1.39 541.56,10.2 661,-44 693.98,-58.96 721.5,-90.31 739.18,-114.7"/>
<polygon fill="black" stroke="black" points="736.4,-116.83 745.02,-123 742.13,-112.8 736.4,-116.83"/>
<text text-anchor="start" x="493.5" y="-11.8" font-family="arial" font-size="14.00" fill="#377eb8">Q&#39;</text>
</g>
<!-- ID_67_ct0_st01W&#45;&gt;ID_67_ct0_st0 -->
<g id="edge9" class="edge">
<title>ID_67_ct0_st01W&#45;&gt;ID_67_ct0_st0</title>
<path fill="none" stroke="black" d="M282.42,-50.11C304,-61.3 329.58,-74.56 352.12,-86.24"/>
<polygon fill="black" stroke="black" points="350.75,-89.48 361.24,-90.97 353.97,-83.26 350.75,-89.48"/>
<text text-anchor="start" x="315" y="-81.8" font-family="arial" font-size="14.00" fill="#377eb8">true</text>
</g>
<!-- ID_67_ct0_st01W&#45;&gt;ID_67_ct0_st01W -->
<g id="edge10" class="edge">
<title>ID_67_ct0_st01W&#45;&gt;ID_67_ct0_st01W</title>
<path fill="none" stroke="black" d="M217.69,-50.18C217,-59.91 222.11,-68 233,-68 239.81,-68 244.35,-64.84 246.64,-60.09"/>
<polygon fill="black" stroke="black" points="250.1,-60.62 248.31,-50.18 243.2,-59.45 250.1,-60.62"/>
<text text-anchor="start" x="214" y="-71.8" font-family="arial" font-size="14.00" fill="#377eb8">c0 &lt; 5</text>
</g>
<!-- ID_67_ct0_st01X&#45;&gt;ID_67_ct0_st -->
<g id="edge11" class="edge">
<title>ID_67_ct0_st01X&#45;&gt;ID_67_ct0_st</title>
<path fill="none" stroke="black" d="M657.81,-103.07C672.3,-109.41 687.88,-116.23 702.4,-122.58"/>
<polygon fill="black" stroke="black" points="701.21,-125.88 711.78,-126.68 704.02,-119.47 701.21,-125.88"/>
<text text-anchor="start" x="679" y="-120.8" font-family="arial" font-size="14.00" fill="#377eb8">Q&#39;</text>
</g>
<!-- ID_67_ct0_st01X&#45;&gt;ID_67_ct0_st0 -->
<g id="edge12" class="edge">
<title>ID_67_ct0_st01X&#45;&gt;ID_67_ct0_st0</title>
<path fill="none" stroke="black" d="M537.85,-69.89C519.64,-69.2 499.78,-70.21 482,-75 472.96,-77.44 463.9,-81.35 455.41,-85.81"/>
<polygon fill="black" stroke="black" points="453.48,-82.88 446.47,-90.82 456.9,-88.99 453.48,-82.88"/>
<text text-anchor="start" x="489" y="-78.8" font-family="arial" font-size="14.00" fill="#377eb8">true</text>
</g>
<!-- ID_67_ct0_st01X&#45;&gt;ID_67_ct0_st01X -->
<g id="edge13" class="edge">
<title>ID_67_ct0_st01X&#45;&gt;ID_67_ct0_st01X</title>
<path fill="none" stroke="black" d="M583.44,-103.18C582.72,-112.91 588.08,-121 599.5,-121 606.64,-121 611.41,-117.84 613.81,-113.09"/>
<polygon fill="black" stroke="black" points="617.26,-113.63 615.56,-103.18 610.37,-112.41 617.26,-113.63"/>
<text text-anchor="start" x="587.5" y="-124.8" font-family="arial" font-size="14.00" fill="#377eb8">true</text>
</g>
</g>
</svg>
