<?xml version="1.0" encoding="UTF-8" standalone="no"?>
<!DOCTYPE svg PUBLIC "-//W3C//DTD SVG 1.1//EN"
 "http://www.w3.org/Graphics/SVG/1.1/DTD/svg11.dtd">
<!-- Generated by graphviz version 2.43.0 (0)
 -->
<!-- Title: G Pages: 1 -->
<svg width="2909pt" height="787pt"
 viewBox="0.00 0.00 2909.00 787.00" xmlns="http://www.w3.org/2000/svg" xmlns:xlink="http://www.w3.org/1999/xlink">
<g id="graph0" class="graph" transform="scale(1 1) rotate(0) translate(4 783)">
<title>G</title>
<polygon fill="white" stroke="transparent" points="-4,4 -4,-783 2905,-783 2905,4 -4,4"/>
<!-- _ID_68_ct0_st0 -->
<!-- ID_68_ct0_st0 -->
<g id="node2" class="node">
<title>ID_68_ct0_st0</title>
<polygon fill="none" stroke="black" points="275,-400 168,-400 168,-350 275,-350 275,-400"/>
<text text-anchor="start" x="176" y="-385.8" font-family="arial" font-weight="bold" font-size="14.00">ID_68_ct0_st0</text>
<text text-anchor="start" x="197" y="-371.8" font-family="arial" font-size="14.00" fill="#984ea3">(R || !Q)</text>
<text text-anchor="start" x="209.5" y="-357.8" font-family="arial" font-size="14.00" fill="#ff7f00">true</text>
</g>
<!-- _ID_68_ct0_st0&#45;&gt;ID_68_ct0_st0 -->
<g id="edge1" class="edge">
<title>_ID_68_ct0_st0&#45;&gt;ID_68_ct0_st0</title>
<path fill="none" stroke="black" d="M111.11,-375C125.95,-375 142.14,-375 157.41,-375"/>
<polygon fill="black" stroke="black" points="157.8,-378.5 167.8,-375 157.8,-371.5 157.8,-378.5"/>
</g>
<!-- ID_68_ct0_st0&#45;&gt;ID_68_ct0_st0 -->
<g id="edge4" class="edge">
<title>ID_68_ct0_st0&#45;&gt;ID_68_ct0_st0</title>
<path fill="none" stroke="black" d="M204.32,-400.18C203.55,-409.91 209.28,-418 221.5,-418 229.14,-418 234.24,-414.84 236.8,-410.09"/>
<polygon fill="black" stroke="black" points="240.26,-410.65 238.68,-400.18 233.38,-409.35 240.26,-410.65"/>
<text text-anchor="start" x="209.5" y="-421.8" font-family="arial" font-size="14.00" fill="#377eb8">true</text>
</g>
<!-- ID_68_ct0_st012 -->
<g id="node4" class="node">
<title>ID_68_ct0_st012</title>
<polygon fill="none" stroke="black" points="904,-459 781,-459 781,-409 904,-409 904,-459"/>
<text text-anchor="start" x="789.5" y="-444.8" font-family="arial" font-weight="bold" font-size="14.00">ID_68_ct0_st012</text>
<text text-anchor="start" x="789" y="-430.8" font-family="arial" font-size="14.00" fill="#984ea3">(Q &amp;&amp; (!R &amp;&amp; !S))</text>
<text text-anchor="start" x="830.5" y="-416.8" font-family="arial" font-size="14.00" fill="#ff7f00">true</text>
</g>
<!-- ID_68_ct0_st0&#45;&gt;ID_68_ct0_st012 -->
<g id="edge5" class="edge">
<title>ID_68_ct0_st0&#45;&gt;ID_68_ct0_st012</title>
<path fill="none" stroke="black" d="M273.24,-349.96C285.96,-344.58 299.76,-339.47 313,-336 488.41,-290.04 543.79,-297.53 721,-336 739.97,-340.12 746.5,-337.78 763,-348 784.76,-361.48 804.19,-382.66 818.29,-400.63"/>
<polygon fill="black" stroke="black" points="815.53,-402.79 824.37,-408.62 821.1,-398.54 815.53,-402.79"/>
<text text-anchor="start" x="537" y="-310.8" font-family="arial" font-size="14.00" fill="#377eb8">true</text>
</g>
<!-- ID_68_ct0_st0123W -->
<g id="node6" class="node">
<title>ID_68_ct0_st0123W</title>
<polygon fill="none" stroke="black" points="512,-617 369,-617 369,-567 512,-567 512,-617"/>
<text text-anchor="start" x="377" y="-602.8" font-family="arial" font-weight="bold" font-size="14.00">ID_68_ct0_st0123W</text>
<text text-anchor="start" x="389" y="-588.8" font-family="arial" font-size="14.00" fill="#984ea3">(Q &amp;&amp; (!R &amp;&amp; S))</text>
<text text-anchor="start" x="417.5" y="-574.8" font-family="arial" font-size="14.00" fill="#ff7f00">c0 &lt;= 5</text>
</g>
<!-- ID_68_ct0_st0&#45;&gt;ID_68_ct0_st0123W -->
<g id="edge6" class="edge">
<title>ID_68_ct0_st0&#45;&gt;ID_68_ct0_st0123W</title>
<path fill="none" stroke="black" d="M233.65,-400.23C248.3,-431.18 276.52,-483.87 313,-519 330.66,-536.01 353.02,-550.58 374.02,-562.13"/>
<polygon fill="black" stroke="black" points="372.45,-565.26 382.92,-566.9 375.75,-559.09 372.45,-565.26"/>
<text text-anchor="start" x="320" y="-566.8" font-family="arial" font-size="14.00" fill="#377eb8">true</text>
<text text-anchor="start" x="313" y="-551.8" font-family="arial" font-size="14.00">c0 :=0</text>
</g>
<!-- _ID_68_ct0_st012 -->
<!-- _ID_68_ct0_st012&#45;&gt;ID_68_ct0_st012 -->
<g id="edge2" class="edge">
<title>_ID_68_ct0_st012&#45;&gt;ID_68_ct0_st012</title>
<path fill="none" stroke="black" d="M716.51,-434C733.84,-434 752.8,-434 770.61,-434"/>
<polygon fill="black" stroke="black" points="770.93,-437.5 780.93,-434 770.93,-430.5 770.93,-437.5"/>
</g>
<!-- ID_68_ct0_st012&#45;&gt;ID_68_ct0_st0 -->
<g id="edge12" class="edge">
<title>ID_68_ct0_st012&#45;&gt;ID_68_ct0_st0</title>
<path fill="none" stroke="black" d="M780.95,-414.13C726.07,-397.23 642.6,-374.26 568,-365 469.87,-352.81 354.91,-360.46 285.45,-367.45"/>
<polygon fill="black" stroke="black" points="284.71,-364.01 275.12,-368.52 285.43,-370.98 284.71,-364.01"/>
<text text-anchor="start" x="542.5" y="-368.8" font-family="arial" font-size="14.00" fill="#377eb8">R&#39;</text>
</g>
<!-- ID_68_ct0_st012&#45;&gt;ID_68_ct0_st012 -->
<g id="edge15" class="edge">
<title>ID_68_ct0_st012&#45;&gt;ID_68_ct0_st012</title>
<path fill="none" stroke="black" d="M825.69,-459.18C824.94,-468.91 830.55,-477 842.5,-477 849.97,-477 854.96,-473.84 857.47,-469.09"/>
<polygon fill="black" stroke="black" points="860.93,-469.65 859.31,-459.18 854.04,-468.37 860.93,-469.65"/>
<text text-anchor="start" x="830.5" y="-480.8" font-family="arial" font-size="14.00" fill="#377eb8">true</text>
</g>
<!-- ID_68_ct0_st02 -->
<g id="node7" class="node">
<title>ID_68_ct0_st02</title>
<polygon fill="none" stroke="black" points="1391,-503 1264,-503 1264,-453 1391,-453 1391,-503"/>
<text text-anchor="start" x="1278.5" y="-488.8" font-family="arial" font-weight="bold" font-size="14.00">ID_68_ct0_st02</text>
<text text-anchor="start" x="1272" y="-474.8" font-family="arial" font-size="14.00" fill="#984ea3">(!Q &amp;&amp; (!R &amp;&amp; !S))</text>
<text text-anchor="start" x="1315.5" y="-460.8" font-family="arial" font-size="14.00" fill="#ff7f00">true</text>
</g>
<!-- ID_68_ct0_st012&#45;&gt;ID_68_ct0_st02 -->
<g id="edge13" class="edge">
<title>ID_68_ct0_st012&#45;&gt;ID_68_ct0_st02</title>
<path fill="none" stroke="black" d="M904.3,-446.71C910.27,-447.87 916.25,-448.98 922,-450 963.16,-457.29 973.4,-459.94 1015,-464 1096.41,-471.93 1190.22,-475.38 1253.45,-476.87"/>
<polygon fill="black" stroke="black" points="1253.64,-480.38 1263.72,-477.1 1253.8,-473.38 1253.64,-480.38"/>
<text text-anchor="start" x="1072" y="-476.8" font-family="arial" font-size="14.00" fill="#377eb8">true</text>
</g>
<!-- ID_68_ct0_st023X -->
<g id="node8" class="node">
<title>ID_68_ct0_st023X</title>
<polygon fill="none" stroke="black" points="1633,-465 1502,-465 1502,-415 1633,-415 1633,-465"/>
<text text-anchor="start" x="1510" y="-450.8" font-family="arial" font-weight="bold" font-size="14.00">ID_68_ct0_st023X</text>
<text text-anchor="start" x="1514" y="-436.8" font-family="arial" font-size="14.00" fill="#984ea3">(!Q &amp;&amp; (!R &amp;&amp; S))</text>
<text text-anchor="start" x="1544.5" y="-422.8" font-family="arial" font-size="14.00" fill="#ff7f00">c0 &lt;= 5</text>
</g>
<!-- ID_68_ct0_st012&#45;&gt;ID_68_ct0_st023X -->
<g id="edge14" class="edge">
<title>ID_68_ct0_st012&#45;&gt;ID_68_ct0_st023X</title>
<path fill="none" stroke="black" d="M904.2,-428.6C1018.19,-419.49 1271.89,-404.09 1484,-426 1486.53,-426.26 1489.1,-426.55 1491.69,-426.87"/>
<polygon fill="black" stroke="black" points="1491.39,-430.36 1501.76,-428.19 1492.3,-423.42 1491.39,-430.36"/>
<text text-anchor="start" x="1196.5" y="-433.8" font-family="arial" font-size="14.00" fill="#377eb8">true</text>
<text text-anchor="start" x="1189.5" y="-418.8" font-family="arial" font-size="14.00">c0 :=0</text>
</g>
<!-- ID_68_ct0_st0123X -->
<g id="node9" class="node">
<title>ID_68_ct0_st0123X</title>
<polygon fill="none" stroke="black" points="1153,-217 1015,-217 1015,-167 1153,-167 1153,-217"/>
<text text-anchor="start" x="1023" y="-202.8" font-family="arial" font-weight="bold" font-size="14.00">ID_68_ct0_st0123X</text>
<text text-anchor="start" x="1032.5" y="-188.8" font-family="arial" font-size="14.00" fill="#984ea3">(Q &amp;&amp; (!R &amp;&amp; S))</text>
<text text-anchor="start" x="1061" y="-174.8" font-family="arial" font-size="14.00" fill="#ff7f00">c0 &lt;= 5</text>
</g>
<!-- ID_68_ct0_st012&#45;&gt;ID_68_ct0_st0123X -->
<g id="edge16" class="edge">
<title>ID_68_ct0_st012&#45;&gt;ID_68_ct0_st0123X</title>
<path fill="none" stroke="black" d="M855.44,-408.84C869.04,-381.9 893.13,-338.87 922,-308 953.75,-274.04 996.76,-243.65 1030.34,-222.51"/>
<polygon fill="black" stroke="black" points="1032.46,-225.31 1039.1,-217.06 1028.76,-219.37 1032.46,-225.31"/>
<text text-anchor="start" x="947.5" y="-326.8" font-family="arial" font-size="14.00" fill="#377eb8">true</text>
<text text-anchor="start" x="940.5" y="-311.8" font-family="arial" font-size="14.00">c0 :=0</text>
</g>
<!-- _ID_68_ct0_st0123W -->
<!-- _ID_68_ct0_st0123W&#45;&gt;ID_68_ct0_st0123W -->
<g id="edge3" class="edge">
<title>_ID_68_ct0_st0123W&#45;&gt;ID_68_ct0_st0123W</title>
<path fill="none" stroke="black" d="M295.06,-592C315.5,-592 337.85,-592 358.73,-592"/>
<polygon fill="black" stroke="black" points="358.85,-595.5 368.85,-592 358.85,-588.5 358.85,-595.5"/>
</g>
<!-- ID_68_ct0_st0123W&#45;&gt;ID_68_ct0_st0 -->
<g id="edge33" class="edge">
<title>ID_68_ct0_st0123W&#45;&gt;ID_68_ct0_st0</title>
<path fill="none" stroke="black" d="M417.08,-566.89C399.69,-547.87 374.64,-521.44 351,-500 335.06,-485.55 328.91,-484.49 313,-470 291.39,-450.31 268.71,-426.49 251.46,-407.63"/>
<polygon fill="black" stroke="black" points="253.97,-405.19 244.65,-400.14 248.79,-409.89 253.97,-405.19"/>
<text text-anchor="start" x="325.5" y="-503.8" font-family="arial" font-size="14.00" fill="#377eb8">R&#39;</text>
</g>
<!-- ID_68_ct0_st0123W&#45;&gt;ID_68_ct0_st012 -->
<g id="edge37" class="edge">
<title>ID_68_ct0_st0123W&#45;&gt;ID_68_ct0_st012</title>
<path fill="none" stroke="black" d="M504.88,-566.96C577.45,-538.3 695.98,-491.48 771.29,-461.73"/>
<polygon fill="black" stroke="black" points="772.69,-464.94 780.71,-458.01 770.12,-458.43 772.69,-464.94"/>
<text text-anchor="start" x="641.5" y="-536.8" font-family="arial" font-size="14.00" fill="#377eb8">true</text>
</g>
<!-- ID_68_ct0_st0123W&#45;&gt;ID_68_ct0_st0123W -->
<g id="edge38" class="edge">
<title>ID_68_ct0_st0123W&#45;&gt;ID_68_ct0_st0123W</title>
<path fill="none" stroke="black" d="M420.33,-617.18C419.43,-626.91 426.16,-635 440.5,-635 449.46,-635 455.45,-631.84 458.46,-627.09"/>
<polygon fill="black" stroke="black" points="461.92,-627.7 460.67,-617.18 455.08,-626.18 461.92,-627.7"/>
<text text-anchor="start" x="421.5" y="-638.8" font-family="arial" font-size="14.00" fill="#377eb8">c0 &lt; 5</text>
</g>
<!-- ID_68_ct0_st0123W&#45;&gt;ID_68_ct0_st02 -->
<g id="edge34" class="edge">
<title>ID_68_ct0_st0123W&#45;&gt;ID_68_ct0_st02</title>
<path fill="none" stroke="black" d="M512.01,-597.62C683.47,-610.14 1117.6,-634.61 1246,-573 1272.89,-560.1 1294.18,-533.5 1308.1,-511.72"/>
<polygon fill="black" stroke="black" points="1311.18,-513.4 1313.42,-503.05 1305.21,-509.74 1311.18,-513.4"/>
<text text-anchor="start" x="830.5" y="-616.8" font-family="arial" font-size="14.00" fill="#377eb8">true</text>
</g>
<!-- ID_68_ct0_st023W -->
<g id="node10" class="node">
<title>ID_68_ct0_st023W</title>
<polygon fill="none" stroke="black" points="721,-673 586,-673 586,-623 721,-623 721,-673"/>
<text text-anchor="start" x="594" y="-658.8" font-family="arial" font-weight="bold" font-size="14.00">ID_68_ct0_st023W</text>
<text text-anchor="start" x="600" y="-644.8" font-family="arial" font-size="14.00" fill="#984ea3">(!Q &amp;&amp; (!R &amp;&amp; S))</text>
<text text-anchor="start" x="630.5" y="-630.8" font-family="arial" font-size="14.00" fill="#ff7f00">c0 &lt;= 5</text>
</g>
<!-- ID_68_ct0_st0123W&#45;&gt;ID_68_ct0_st023W -->
<g id="edge35" class="edge">
<title>ID_68_ct0_st0123W&#45;&gt;ID_68_ct0_st023W</title>
<path fill="none" stroke="black" d="M474.97,-617.03C490.8,-627.42 510.49,-638.35 530,-644 544.5,-648.2 560.38,-650.38 575.75,-651.34"/>
<polygon fill="black" stroke="black" points="575.61,-654.83 585.76,-651.8 575.93,-647.84 575.61,-654.83"/>
<text text-anchor="start" x="530" y="-653.8" font-family="arial" font-size="14.00" fill="#377eb8">c0 &lt; 5</text>
</g>
<!-- ID_68_ct0_st0234 -->
<g id="node11" class="node">
<title>ID_68_ct0_st0234</title>
<polygon fill="none" stroke="black" points="2704,-396 2575,-396 2575,-346 2704,-346 2704,-396"/>
<text text-anchor="start" x="2583" y="-381.8" font-family="arial" font-weight="bold" font-size="14.00">ID_68_ct0_st0234</text>
<text text-anchor="start" x="2586" y="-367.8" font-family="arial" font-size="14.00" fill="#984ea3">(!Q &amp;&amp; (!R &amp;&amp; S))</text>
<text text-anchor="start" x="2627.5" y="-353.8" font-family="arial" font-size="14.00" fill="#ff7f00">true</text>
</g>
<!-- ID_68_ct0_st0123W&#45;&gt;ID_68_ct0_st0234 -->
<g id="edge36" class="edge">
<title>ID_68_ct0_st0123W&#45;&gt;ID_68_ct0_st0234</title>
<path fill="none" stroke="black" d="M506.2,-566.97C508.23,-565.4 510.17,-563.75 512,-562 539.56,-535.6 562.23,-436.86 586,-407 654.95,-320.38 685.5,-308.01 781,-252 1070.78,-82.03 1167.71,-58.37 1502,-25 1559.93,-19.22 1574.8,-23.58 1633,-25 1680.82,-26.17 2453.57,-39.91 2493,-67 2551.06,-106.89 2537.73,-144.25 2557,-212 2571.94,-264.53 2544.19,-291.25 2573.16,-337.24"/>
<polygon fill="black" stroke="black" points="2570.46,-339.49 2579.01,-345.75 2576.23,-335.52 2570.46,-339.49"/>
<text text-anchor="start" x="1544.5" y="-28.8" font-family="arial" font-size="14.00" fill="#377eb8">c0 &gt;= 5</text>
</g>
<!-- ID_68_ct0_st01234 -->
<g id="node12" class="node">
<title>ID_68_ct0_st01234</title>
<polygon fill="none" stroke="black" points="2901,-396 2764,-396 2764,-346 2901,-346 2901,-396"/>
<text text-anchor="start" x="2772" y="-381.8" font-family="arial" font-weight="bold" font-size="14.00">ID_68_ct0_st01234</text>
<text text-anchor="start" x="2781" y="-367.8" font-family="arial" font-size="14.00" fill="#984ea3">(Q &amp;&amp; (!R &amp;&amp; S))</text>
<text text-anchor="start" x="2820.5" y="-353.8" font-family="arial" font-size="14.00" fill="#ff7f00">true</text>
</g>
<!-- ID_68_ct0_st0123W&#45;&gt;ID_68_ct0_st01234 -->
<g id="edge39" class="edge">
<title>ID_68_ct0_st0123W&#45;&gt;ID_68_ct0_st01234</title>
<path fill="none" stroke="black" d="M456.27,-617.01C486.54,-664.71 560.58,-764 652.5,-764 652.5,-764 652.5,-764 2640.5,-764 2798.8,-764 2825.94,-502.87 2830.56,-406.32"/>
<polygon fill="black" stroke="black" points="2834.06,-406.32 2830.99,-396.18 2827.07,-406.02 2834.06,-406.32"/>
<text text-anchor="start" x="1651" y="-767.8" font-family="arial" font-size="14.00" fill="#377eb8">c0 &gt;= 5</text>
</g>
<!-- ID_68_ct0_st02&#45;&gt;ID_68_ct0_st0 -->
<g id="edge7" class="edge">
<title>ID_68_ct0_st02&#45;&gt;ID_68_ct0_st0</title>
<path fill="none" stroke="black" d="M1263.72,-487.09C1257.74,-487.8 1251.76,-488.45 1246,-489 947.82,-517.28 618.7,-529.46 586,-517 544.82,-501.3 550.83,-471.84 512,-451 439.61,-412.15 346.21,-392.3 285.37,-382.8"/>
<polygon fill="black" stroke="black" points="285.56,-379.29 275.15,-381.25 284.51,-386.21 285.56,-379.29"/>
<text text-anchor="start" x="744.5" y="-523.8" font-family="arial" font-size="14.00" fill="#377eb8">R&#39;</text>
</g>
<!-- ID_68_ct0_st02&#45;&gt;ID_68_ct0_st012 -->
<g id="edge10" class="edge">
<title>ID_68_ct0_st02&#45;&gt;ID_68_ct0_st012</title>
<path fill="none" stroke="black" d="M1263.7,-465.68C1230.85,-459.7 1189.89,-452.96 1153,-449 1071.43,-440.24 977.2,-436.59 914.35,-435.08"/>
<polygon fill="black" stroke="black" points="914.23,-431.57 904.15,-434.84 914.07,-438.57 914.23,-431.57"/>
<text text-anchor="start" x="1072" y="-452.8" font-family="arial" font-size="14.00" fill="#377eb8">true</text>
</g>
<!-- ID_68_ct0_st02&#45;&gt;ID_68_ct0_st02 -->
<g id="edge8" class="edge">
<title>ID_68_ct0_st02&#45;&gt;ID_68_ct0_st02</title>
<path fill="none" stroke="black" d="M1305.46,-503.18C1304.48,-512.91 1311.83,-521 1327.5,-521 1337.29,-521 1343.84,-517.84 1347.13,-513.09"/>
<polygon fill="black" stroke="black" points="1350.58,-513.72 1349.54,-503.18 1343.78,-512.07 1350.58,-513.72"/>
<text text-anchor="start" x="1315.5" y="-524.8" font-family="arial" font-size="14.00" fill="#377eb8">true</text>
</g>
<!-- ID_68_ct0_st02&#45;&gt;ID_68_ct0_st023X -->
<g id="edge9" class="edge">
<title>ID_68_ct0_st02&#45;&gt;ID_68_ct0_st023X</title>
<path fill="none" stroke="black" d="M1391.03,-469.89C1419.46,-466.02 1453.48,-461.12 1484,-456 1486.52,-455.58 1489.08,-455.14 1491.66,-454.69"/>
<polygon fill="black" stroke="black" points="1492.48,-458.1 1501.71,-452.89 1491.25,-451.21 1492.48,-458.1"/>
<text text-anchor="start" x="1434.5" y="-485.8" font-family="arial" font-size="14.00" fill="#377eb8">true</text>
<text text-anchor="start" x="1427.5" y="-470.8" font-family="arial" font-size="14.00">c0 :=0</text>
</g>
<!-- ID_68_ct0_st02&#45;&gt;ID_68_ct0_st0123X -->
<g id="edge11" class="edge">
<title>ID_68_ct0_st02&#45;&gt;ID_68_ct0_st0123X</title>
<path fill="none" stroke="black" d="M1319.35,-452.87C1308.37,-417.89 1284.48,-354.07 1246,-312 1219.76,-283.32 1202.44,-289.86 1171,-267 1153.13,-254 1134.5,-238.09 1119.17,-224.27"/>
<polygon fill="black" stroke="black" points="1121.23,-221.41 1111.48,-217.26 1116.51,-226.59 1121.23,-221.41"/>
<text text-anchor="start" x="1196.5" y="-330.8" font-family="arial" font-size="14.00" fill="#377eb8">true</text>
<text text-anchor="start" x="1189.5" y="-315.8" font-family="arial" font-size="14.00">c0 :=0</text>
</g>
<!-- ID_68_ct0_st023X&#45;&gt;ID_68_ct0_st0 -->
<g id="edge24" class="edge">
<title>ID_68_ct0_st023X&#45;&gt;ID_68_ct0_st0</title>
<path fill="none" stroke="black" d="M1525.89,-414.92C1466.82,-379.96 1352.6,-317.93 1246,-292 1072.01,-249.67 1022.57,-274 843.5,-274 439.5,-274 439.5,-274 439.5,-274 372.44,-274 303.69,-314.14 262.03,-343.81"/>
<polygon fill="black" stroke="black" points="259.85,-341.07 253.82,-349.77 263.97,-346.73 259.85,-341.07"/>
<text text-anchor="start" x="836" y="-277.8" font-family="arial" font-size="14.00" fill="#377eb8">R&#39;</text>
</g>
<!-- ID_68_ct0_st023X&#45;&gt;ID_68_ct0_st012 -->
<g id="edge29" class="edge">
<title>ID_68_ct0_st023X&#45;&gt;ID_68_ct0_st012</title>
<path fill="none" stroke="black" d="M1538,-465.02C1505.23,-491.77 1448.51,-532.08 1391,-545 1215.04,-584.52 1005.85,-508.07 904.53,-463.27"/>
<polygon fill="black" stroke="black" points="905.92,-460.05 895.36,-459.17 903.06,-466.44 905.92,-460.05"/>
<text text-anchor="start" x="1171" y="-557.8" font-family="arial" font-size="14.00" fill="#377eb8">(R&#39; || c0 &lt; 5)</text>
</g>
<!-- ID_68_ct0_st023X&#45;&gt;ID_68_ct0_st02 -->
<g id="edge25" class="edge">
<title>ID_68_ct0_st023X&#45;&gt;ID_68_ct0_st02</title>
<path fill="none" stroke="black" d="M1501.72,-431.46C1472.96,-429.53 1438.92,-429.82 1409,-437 1398.49,-439.52 1387.81,-443.66 1377.8,-448.35"/>
<polygon fill="black" stroke="black" points="1376.24,-445.22 1368.83,-452.79 1379.35,-451.49 1376.24,-445.22"/>
<text text-anchor="start" x="1409" y="-440.8" font-family="arial" font-size="14.00" fill="#377eb8">(R&#39; || c0 &lt; 5)</text>
</g>
<!-- ID_68_ct0_st023X&#45;&gt;ID_68_ct0_st023X -->
<g id="edge27" class="edge">
<title>ID_68_ct0_st023X&#45;&gt;ID_68_ct0_st023X</title>
<path fill="none" stroke="black" d="M1547.7,-465.18C1546.82,-474.91 1553.42,-483 1567.5,-483 1576.3,-483 1582.18,-479.84 1585.13,-475.09"/>
<polygon fill="black" stroke="black" points="1588.58,-475.69 1587.3,-465.18 1581.74,-474.2 1588.58,-475.69"/>
<text text-anchor="start" x="1548.5" y="-486.8" font-family="arial" font-size="14.00" fill="#377eb8">c0 &lt; 5</text>
</g>
<!-- ID_68_ct0_st023X&#45;&gt;ID_68_ct0_st0123X -->
<g id="edge31" class="edge">
<title>ID_68_ct0_st023X&#45;&gt;ID_68_ct0_st0123X</title>
<path fill="none" stroke="black" d="M1561.8,-414.93C1553.28,-376.64 1531.55,-303.95 1484,-265 1436.07,-225.74 1265.53,-205.96 1163.57,-197.43"/>
<polygon fill="black" stroke="black" points="1163.57,-193.92 1153.32,-196.59 1163,-200.9 1163.57,-193.92"/>
<text text-anchor="start" x="1308.5" y="-232.8" font-family="arial" font-size="14.00" fill="#377eb8">c0 &lt; 5</text>
</g>
<!-- ID_68_ct0_st023X&#45;&gt;ID_68_ct0_st0234 -->
<g id="edge28" class="edge">
<title>ID_68_ct0_st023X&#45;&gt;ID_68_ct0_st0234</title>
<path fill="none" stroke="black" d="M1587.14,-465.1C1620.5,-506.84 1694.8,-586 1778.5,-586 1778.5,-586 1778.5,-586 2425,-586 2525.61,-586 2595.06,-465.98 2623.75,-405.29"/>
<polygon fill="black" stroke="black" points="2626.99,-406.63 2628,-396.08 2620.63,-403.69 2626.99,-406.63"/>
<text text-anchor="start" x="2071" y="-589.8" font-family="arial" font-size="14.00" fill="#377eb8">c0 &gt;= 5</text>
</g>
<!-- ID_68_ct0_st023X&#45;&gt;ID_68_ct0_st01234 -->
<g id="edge32" class="edge">
<title>ID_68_ct0_st023X&#45;&gt;ID_68_ct0_st01234</title>
<path fill="none" stroke="black" d="M1580.89,-465.1C1608.56,-517.14 1680.69,-632 1778.5,-632 1778.5,-632 1778.5,-632 2095,-632 2367.45,-632 2461.81,-686.79 2704,-562 2766.41,-529.85 2803.28,-451.56 2820.23,-405.82"/>
<polygon fill="black" stroke="black" points="2823.56,-406.9 2823.64,-396.31 2816.97,-404.54 2823.56,-406.9"/>
<text text-anchor="start" x="2185" y="-641.8" font-family="arial" font-size="14.00" fill="#377eb8">c0 &gt;= 5</text>
</g>
<!-- ID_68_ct0_st024 -->
<g id="node13" class="node">
<title>ID_68_ct0_st024</title>
<polygon fill="none" stroke="black" points="2053,-328 1926,-328 1926,-278 2053,-278 2053,-328"/>
<text text-anchor="start" x="1936.5" y="-313.8" font-family="arial" font-weight="bold" font-size="14.00">ID_68_ct0_st024</text>
<text text-anchor="start" x="1934" y="-299.8" font-family="arial" font-size="14.00" fill="#984ea3">(!Q &amp;&amp; (!R &amp;&amp; !S))</text>
<text text-anchor="start" x="1977.5" y="-285.8" font-family="arial" font-size="14.00" fill="#ff7f00">true</text>
</g>
<!-- ID_68_ct0_st023X&#45;&gt;ID_68_ct0_st024 -->
<g id="edge26" class="edge">
<title>ID_68_ct0_st023X&#45;&gt;ID_68_ct0_st024</title>
<path fill="none" stroke="black" d="M1633.27,-456.01C1690.87,-466.97 1776.23,-475 1844,-447 1897.71,-424.81 1941.94,-371.9 1966.77,-336.77"/>
<polygon fill="black" stroke="black" points="1969.85,-338.47 1972.66,-328.25 1964.09,-334.49 1969.85,-338.47"/>
<text text-anchor="start" x="1756.5" y="-469.8" font-family="arial" font-size="14.00" fill="#377eb8">c0 &gt;= 5</text>
</g>
<!-- ID_68_ct0_st0124 -->
<g id="node14" class="node">
<title>ID_68_ct0_st0124</title>
<polygon fill="none" stroke="black" points="1844,-405 1715,-405 1715,-355 1844,-355 1844,-405"/>
<text text-anchor="start" x="1723" y="-390.8" font-family="arial" font-weight="bold" font-size="14.00">ID_68_ct0_st0124</text>
<text text-anchor="start" x="1726" y="-376.8" font-family="arial" font-size="14.00" fill="#984ea3">(Q &amp;&amp; (!R &amp;&amp; !S))</text>
<text text-anchor="start" x="1767.5" y="-362.8" font-family="arial" font-size="14.00" fill="#ff7f00">true</text>
</g>
<!-- ID_68_ct0_st023X&#45;&gt;ID_68_ct0_st0124 -->
<g id="edge30" class="edge">
<title>ID_68_ct0_st023X&#45;&gt;ID_68_ct0_st0124</title>
<path fill="none" stroke="black" d="M1633.22,-421.51C1655.89,-415.03 1681.52,-407.71 1704.86,-401.04"/>
<polygon fill="black" stroke="black" points="1706.06,-404.34 1714.71,-398.22 1704.14,-397.61 1706.06,-404.34"/>
<text text-anchor="start" x="1651" y="-418.8" font-family="arial" font-size="14.00" fill="#377eb8">c0 &gt;= 5</text>
</g>
<!-- ID_68_ct0_st0123X&#45;&gt;ID_68_ct0_st0 -->
<g id="edge40" class="edge">
<title>ID_68_ct0_st0123X&#45;&gt;ID_68_ct0_st0</title>
<path fill="none" stroke="black" d="M1014.87,-191.13C966.94,-190.59 901.3,-190 843.5,-190 439.5,-190 439.5,-190 439.5,-190 347.54,-190 274.78,-287.4 241.78,-340.86"/>
<polygon fill="black" stroke="black" points="238.63,-339.3 236.45,-349.66 244.62,-342.92 238.63,-339.3"/>
<text text-anchor="start" x="647" y="-193.8" font-family="arial" font-size="14.00" fill="#377eb8">R&#39;</text>
</g>
<!-- ID_68_ct0_st0123X&#45;&gt;ID_68_ct0_st012 -->
<g id="edge45" class="edge">
<title>ID_68_ct0_st0123X&#45;&gt;ID_68_ct0_st012</title>
<path fill="none" stroke="black" d="M1074.76,-217.02C1062.76,-249.59 1037.42,-306.11 997,-338 969.63,-359.6 952.2,-343.58 922,-361 903.64,-371.59 886.08,-387.21 872.24,-401.29"/>
<polygon fill="black" stroke="black" points="869.33,-399.26 864.95,-408.91 874.39,-404.1 869.33,-399.26"/>
<text text-anchor="start" x="922" y="-364.8" font-family="arial" font-size="14.00" fill="#377eb8">(R&#39; || c0 &lt; 5)</text>
</g>
<!-- ID_68_ct0_st0123X&#45;&gt;ID_68_ct0_st02 -->
<g id="edge41" class="edge">
<title>ID_68_ct0_st0123X&#45;&gt;ID_68_ct0_st02</title>
<path fill="none" stroke="black" d="M1092.85,-217.13C1104.55,-250.5 1129.72,-309.03 1171,-342 1198.24,-363.76 1217.72,-344.61 1246,-365 1274.19,-385.33 1296.17,-418.63 1309.99,-443.83"/>
<polygon fill="black" stroke="black" points="1306.93,-445.52 1314.71,-452.71 1313.11,-442.24 1306.93,-445.52"/>
<text text-anchor="start" x="1171" y="-368.8" font-family="arial" font-size="14.00" fill="#377eb8">(R&#39; || c0 &lt; 5)</text>
</g>
<!-- ID_68_ct0_st0123X&#45;&gt;ID_68_ct0_st023X -->
<g id="edge43" class="edge">
<title>ID_68_ct0_st0123X&#45;&gt;ID_68_ct0_st023X</title>
<path fill="none" stroke="black" d="M1153.24,-214C1186.56,-224.57 1227.28,-237.25 1264,-248 1361.27,-276.47 1402.66,-247.54 1484,-308 1517.37,-332.8 1540.43,-375.47 1553.51,-405.57"/>
<polygon fill="black" stroke="black" points="1550.32,-407 1557.41,-414.86 1556.77,-404.29 1550.32,-407"/>
<text text-anchor="start" x="1308.5" y="-271.8" font-family="arial" font-size="14.00" fill="#377eb8">c0 &lt; 5</text>
</g>
<!-- ID_68_ct0_st0123X&#45;&gt;ID_68_ct0_st0123X -->
<g id="edge47" class="edge">
<title>ID_68_ct0_st0123X&#45;&gt;ID_68_ct0_st0123X</title>
<path fill="none" stroke="black" d="M1060.84,-217.18C1059.81,-226.91 1067.53,-235 1084,-235 1094.29,-235 1101.17,-231.84 1104.63,-227.09"/>
<polygon fill="black" stroke="black" points="1108.08,-227.73 1107.16,-217.18 1101.29,-226 1108.08,-227.73"/>
<text text-anchor="start" x="1065" y="-238.8" font-family="arial" font-size="14.00" fill="#377eb8">c0 &lt; 5</text>
</g>
<!-- ID_68_ct0_st0123X&#45;&gt;ID_68_ct0_st0234 -->
<g id="edge44" class="edge">
<title>ID_68_ct0_st0123X&#45;&gt;ID_68_ct0_st0234</title>
<path fill="none" stroke="black" d="M1123.37,-166.81C1169.57,-138.97 1250.46,-98 1326.5,-98 1326.5,-98 1326.5,-98 1886,-98 2161.35,-98 2264.84,-67.85 2493,-222 2528.48,-245.97 2534.76,-257.41 2557,-294 2567.08,-310.58 2561.78,-321.41 2573.4,-337.85"/>
<polygon fill="black" stroke="black" points="2570.96,-340.39 2580.05,-345.84 2576.34,-335.91 2570.96,-340.39"/>
<text text-anchor="start" x="1862" y="-101.8" font-family="arial" font-size="14.00" fill="#377eb8">c0 &gt;= 5</text>
</g>
<!-- ID_68_ct0_st0123X&#45;&gt;ID_68_ct0_st01234 -->
<g id="edge48" class="edge">
<title>ID_68_ct0_st0123X&#45;&gt;ID_68_ct0_st01234</title>
<path fill="none" stroke="black" d="M1103.56,-166.71C1119.25,-147.33 1143.53,-121.66 1171,-108 1208.43,-89.39 1222.56,-99.47 1264,-94 1447.81,-69.75 1907.6,0 2093,0 2093,0 2093,0 2640.5,0 2790.65,0 2822.87,-243.18 2829.69,-335.78"/>
<polygon fill="black" stroke="black" points="2826.2,-336.05 2830.38,-345.79 2833.19,-335.58 2826.2,-336.05"/>
<text text-anchor="start" x="1966.5" y="-13.8" font-family="arial" font-size="14.00" fill="#377eb8">c0 &gt;= 5</text>
</g>
<!-- ID_68_ct0_st0123X&#45;&gt;ID_68_ct0_st024 -->
<g id="edge42" class="edge">
<title>ID_68_ct0_st0123X&#45;&gt;ID_68_ct0_st024</title>
<path fill="none" stroke="black" d="M1153.25,-171.02C1201.23,-158.1 1267.19,-144 1326.5,-144 1326.5,-144 1326.5,-144 1780.5,-144 1866.04,-144 1855.39,-221.72 1926,-270 1927.23,-270.84 1928.49,-271.68 1929.77,-272.51"/>
<polygon fill="black" stroke="black" points="1928.08,-275.59 1938.42,-277.89 1931.77,-269.64 1928.08,-275.59"/>
<text text-anchor="start" x="1544.5" y="-147.8" font-family="arial" font-size="14.00" fill="#377eb8">c0 &gt;= 5</text>
</g>
<!-- ID_68_ct0_st0123X&#45;&gt;ID_68_ct0_st0124 -->
<g id="edge46" class="edge">
<title>ID_68_ct0_st0123X&#45;&gt;ID_68_ct0_st0124</title>
<path fill="none" stroke="black" d="M1153.33,-185.72C1234.4,-180.6 1372.61,-179.31 1484,-216 1579.76,-247.54 1680.01,-310.91 1735.34,-348.98"/>
<polygon fill="black" stroke="black" points="1733.61,-352.04 1743.82,-354.86 1737.6,-346.29 1733.61,-352.04"/>
<text text-anchor="start" x="1423.5" y="-219.8" font-family="arial" font-size="14.00" fill="#377eb8">c0 &gt;= 5</text>
</g>
<!-- ID_68_ct0_st023W&#45;&gt;ID_68_ct0_st0 -->
<g id="edge17" class="edge">
<title>ID_68_ct0_st023W&#45;&gt;ID_68_ct0_st0</title>
<path fill="none" stroke="black" d="M621.17,-622.94C593.19,-600.96 550.75,-568.6 512,-543 433.02,-490.83 337.34,-437.03 278.19,-404.8"/>
<polygon fill="black" stroke="black" points="279.84,-401.71 269.38,-400.01 276.49,-407.86 279.84,-401.71"/>
<text text-anchor="start" x="434" y="-546.8" font-family="arial" font-size="14.00" fill="#377eb8">R&#39;</text>
</g>
<!-- ID_68_ct0_st023W&#45;&gt;ID_68_ct0_st012 -->
<g id="edge21" class="edge">
<title>ID_68_ct0_st023W&#45;&gt;ID_68_ct0_st012</title>
<path fill="none" stroke="black" d="M685.23,-622.92C707.95,-603.63 738.99,-575.67 763,-548 784.92,-522.73 806.22,-491.23 821.08,-467.75"/>
<polygon fill="black" stroke="black" points="824.11,-469.51 826.45,-459.17 818.18,-465.79 824.11,-469.51"/>
<text text-anchor="start" x="739" y="-574.8" font-family="arial" font-size="14.00" fill="#377eb8">true</text>
</g>
<!-- ID_68_ct0_st023W&#45;&gt;ID_68_ct0_st0123W -->
<g id="edge22" class="edge">
<title>ID_68_ct0_st023W&#45;&gt;ID_68_ct0_st0123W</title>
<path fill="none" stroke="black" d="M585.94,-630.33C565.63,-624.95 543.09,-618.96 521.97,-613.36"/>
<polygon fill="black" stroke="black" points="522.62,-609.91 512.05,-610.73 520.82,-616.67 522.62,-609.91"/>
<text text-anchor="start" x="530" y="-628.8" font-family="arial" font-size="14.00" fill="#377eb8">c0 &lt; 5</text>
</g>
<!-- ID_68_ct0_st023W&#45;&gt;ID_68_ct0_st02 -->
<g id="edge18" class="edge">
<title>ID_68_ct0_st023W&#45;&gt;ID_68_ct0_st02</title>
<path fill="none" stroke="black" d="M721.01,-648.3C866.23,-648.46 1202.22,-645.88 1246,-619 1284.32,-595.48 1306.14,-546.53 1317.14,-512.98"/>
<polygon fill="black" stroke="black" points="1320.59,-513.69 1320.22,-503.1 1313.9,-511.61 1320.59,-513.69"/>
<text text-anchor="start" x="947.5" y="-649.8" font-family="arial" font-size="14.00" fill="#377eb8">true</text>
</g>
<!-- ID_68_ct0_st023W&#45;&gt;ID_68_ct0_st023W -->
<g id="edge19" class="edge">
<title>ID_68_ct0_st023W&#45;&gt;ID_68_ct0_st023W</title>
<path fill="none" stroke="black" d="M635.57,-673.18C634.77,-682.91 640.75,-691 653.5,-691 661.47,-691 666.79,-687.84 669.47,-683.09"/>
<polygon fill="black" stroke="black" points="672.92,-683.66 671.43,-673.18 666.06,-682.31 672.92,-683.66"/>
<text text-anchor="start" x="634.5" y="-694.8" font-family="arial" font-size="14.00" fill="#377eb8">c0 &lt; 5</text>
</g>
<!-- ID_68_ct0_st023W&#45;&gt;ID_68_ct0_st0234 -->
<g id="edge20" class="edge">
<title>ID_68_ct0_st023W&#45;&gt;ID_68_ct0_st0234</title>
<path fill="none" stroke="black" d="M721.26,-660C727.25,-660.79 733.22,-661.48 739,-662 820.01,-669.33 840.66,-663.91 922,-665 1349.54,-670.73 1456.42,-675 1884,-675 1884,-675 1884,-675 2319,-675 2438.69,-675 2483.27,-643.28 2557,-549 2591.6,-504.76 2615.48,-443.47 2628.08,-405.58"/>
<polygon fill="black" stroke="black" points="2631.42,-406.6 2631.18,-396.01 2624.77,-404.44 2631.42,-406.6"/>
<text text-anchor="start" x="1651" y="-677.8" font-family="arial" font-size="14.00" fill="#377eb8">c0 &gt;= 5</text>
</g>
<!-- ID_68_ct0_st023W&#45;&gt;ID_68_ct0_st01234 -->
<g id="edge23" class="edge">
<title>ID_68_ct0_st023W&#45;&gt;ID_68_ct0_st01234</title>
<path fill="none" stroke="black" d="M693.63,-673.12C730.32,-694.24 787.48,-721 841.5,-721 841.5,-721 841.5,-721 2640.5,-721 2782.85,-721 2819.75,-495.16 2828.76,-406.3"/>
<polygon fill="black" stroke="black" points="2832.26,-406.46 2829.73,-396.17 2825.29,-405.79 2832.26,-406.46"/>
<text text-anchor="start" x="1756.5" y="-724.8" font-family="arial" font-size="14.00" fill="#377eb8">c0 &gt;= 5</text>
</g>
<!-- ID_68_ct0_st0234&#45;&gt;ID_68_ct0_st0234 -->
<g id="edge64" class="edge">
<title>ID_68_ct0_st0234&#45;&gt;ID_68_ct0_st0234</title>
<path fill="none" stroke="black" d="M2621.94,-396.18C2621.16,-405.91 2627.02,-414 2639.5,-414 2647.3,-414 2652.51,-410.84 2655.14,-406.09"/>
<polygon fill="black" stroke="black" points="2658.59,-406.66 2657.06,-396.18 2651.72,-405.33 2658.59,-406.66"/>
<text text-anchor="start" x="2627.5" y="-417.8" font-family="arial" font-size="14.00" fill="#377eb8">true</text>
</g>
<!-- ID_68_ct0_st0234&#45;&gt;ID_68_ct0_st01234 -->
<g id="edge66" class="edge">
<title>ID_68_ct0_st0234&#45;&gt;ID_68_ct0_st01234</title>
<path fill="none" stroke="black" d="M2704.35,-355.52C2710.29,-354.5 2716.24,-353.63 2722,-353 2732.3,-351.88 2743.11,-352.02 2753.76,-352.95"/>
<polygon fill="black" stroke="black" points="2753.58,-356.45 2763.9,-354.06 2754.34,-349.49 2753.58,-356.45"/>
<text text-anchor="start" x="2722" y="-356.8" font-family="arial" font-size="14.00" fill="#377eb8">true</text>
</g>
<!-- ID_68_ct0_st0234&#45;&gt;ID_68_ct0_st024 -->
<g id="edge63" class="edge">
<title>ID_68_ct0_st0234&#45;&gt;ID_68_ct0_st024</title>
<path fill="none" stroke="black" d="M2574.92,-377.85C2568.87,-378.32 2562.82,-378.71 2557,-379 2369.13,-388.2 2318.56,-388.05 2135,-347 2111.26,-341.69 2085.76,-334.45 2062.88,-327.38"/>
<polygon fill="black" stroke="black" points="2063.84,-324.02 2053.25,-324.37 2061.75,-330.7 2063.84,-324.02"/>
<text text-anchor="start" x="2306" y="-384.8" font-family="arial" font-size="14.00" fill="#377eb8">true</text>
</g>
<!-- ID_68_ct0_st0234&#45;&gt;ID_68_ct0_st0124 -->
<g id="edge65" class="edge">
<title>ID_68_ct0_st0234&#45;&gt;ID_68_ct0_st0124</title>
<path fill="none" stroke="black" d="M2617.02,-396.2C2581.4,-435.02 2505.96,-505 2425,-505 1988.5,-505 1988.5,-505 1988.5,-505 1916.62,-505 1848.15,-449.47 1810.49,-412.43"/>
<polygon fill="black" stroke="black" points="1812.91,-409.91 1803.37,-405.3 1807.95,-414.85 1812.91,-409.91"/>
<text text-anchor="start" x="2196" y="-508.8" font-family="arial" font-size="14.00" fill="#377eb8">true</text>
</g>
<!-- ID_68_ct0_st01234&#45;&gt;ID_68_ct0_st0234 -->
<g id="edge74" class="edge">
<title>ID_68_ct0_st01234&#45;&gt;ID_68_ct0_st0234</title>
<path fill="none" stroke="black" d="M2763.92,-371C2747.81,-371 2730.53,-371 2714.16,-371"/>
<polygon fill="black" stroke="black" points="2714.1,-367.5 2704.1,-371 2714.1,-374.5 2714.1,-367.5"/>
<text text-anchor="start" x="2722" y="-374.8" font-family="arial" font-size="14.00" fill="#377eb8">true</text>
</g>
<!-- ID_68_ct0_st01234&#45;&gt;ID_68_ct0_st01234 -->
<g id="edge76" class="edge">
<title>ID_68_ct0_st01234&#45;&gt;ID_68_ct0_st01234</title>
<path fill="none" stroke="black" d="M2814.2,-396.18C2813.38,-405.91 2819.48,-414 2832.5,-414 2840.63,-414 2846.07,-410.84 2848.8,-406.09"/>
<polygon fill="black" stroke="black" points="2852.26,-406.67 2850.8,-396.18 2845.39,-405.29 2852.26,-406.67"/>
<text text-anchor="start" x="2820.5" y="-417.8" font-family="arial" font-size="14.00" fill="#377eb8">true</text>
</g>
<!-- ID_68_ct0_st01234&#45;&gt;ID_68_ct0_st024 -->
<g id="edge73" class="edge">
<title>ID_68_ct0_st01234&#45;&gt;ID_68_ct0_st024</title>
<path fill="none" stroke="black" d="M2827.05,-345.97C2813.18,-276.96 2764.08,-89 2640.5,-89 2317,-89 2317,-89 2317,-89 2197.95,-89 2135.89,-95.19 2071,-195 2052.32,-223.74 2074.02,-242.92 2053,-270 2052.86,-270.18 2052.73,-270.35 2052.59,-270.52"/>
<polygon fill="black" stroke="black" points="2050.01,-268.16 2045.63,-277.8 2055.07,-272.99 2050.01,-268.16"/>
<text text-anchor="start" x="2412" y="-92.8" font-family="arial" font-size="14.00" fill="#377eb8">true</text>
</g>
<!-- ID_68_ct0_st01234&#45;&gt;ID_68_ct0_st0124 -->
<g id="edge75" class="edge">
<title>ID_68_ct0_st01234&#45;&gt;ID_68_ct0_st0124</title>
<path fill="none" stroke="black" d="M2819.15,-396.36C2793.33,-445.3 2728.66,-548 2640.5,-548 1988.5,-548 1988.5,-548 1988.5,-548 1925.49,-548 1905.32,-529.75 1862,-484 1848.32,-469.55 1855.26,-459.41 1844,-443 1836.58,-432.19 1827.15,-421.66 1817.84,-412.4"/>
<polygon fill="black" stroke="black" points="1820.06,-409.68 1810.44,-405.26 1815.21,-414.72 1820.06,-409.68"/>
<text text-anchor="start" x="2306" y="-551.8" font-family="arial" font-size="14.00" fill="#377eb8">true</text>
</g>
<!-- ID_68_ct0_st024&#45;&gt;ID_68_ct0_st024 -->
<g id="edge49" class="edge">
<title>ID_68_ct0_st024&#45;&gt;ID_68_ct0_st024</title>
<path fill="none" stroke="black" d="M1970.08,-328.18C1969.21,-337.91 1975.69,-346 1989.5,-346 1998.13,-346 2003.9,-342.84 2006.8,-338.09"/>
<polygon fill="black" stroke="black" points="2010.25,-338.69 2008.92,-328.18 2003.41,-337.22 2010.25,-338.69"/>
<text text-anchor="start" x="1977.5" y="-349.8" font-family="arial" font-size="14.00" fill="#377eb8">true</text>
</g>
<!-- ID_68_ct0_st024&#45;&gt;ID_68_ct0_st0124 -->
<g id="edge51" class="edge">
<title>ID_68_ct0_st024&#45;&gt;ID_68_ct0_st0124</title>
<path fill="none" stroke="black" d="M1925.71,-326.24C1902.99,-334.65 1877.14,-344.22 1853.62,-352.93"/>
<polygon fill="black" stroke="black" points="1852.2,-349.73 1844.04,-356.48 1854.63,-356.29 1852.2,-349.73"/>
<text text-anchor="start" x="1873" y="-351.8" font-family="arial" font-size="14.00" fill="#377eb8">true</text>
</g>
<!-- ID_68_ct0_st023X4 -->
<g id="node15" class="node">
<title>ID_68_ct0_st023X4</title>
<polygon fill="none" stroke="black" points="2493,-281 2355,-281 2355,-231 2493,-231 2493,-281"/>
<text text-anchor="start" x="2363" y="-266.8" font-family="arial" font-weight="bold" font-size="14.00">ID_68_ct0_st023X4</text>
<text text-anchor="start" x="2370.5" y="-252.8" font-family="arial" font-size="14.00" fill="#984ea3">(!Q &amp;&amp; (!R &amp;&amp; S))</text>
<text text-anchor="start" x="2401" y="-238.8" font-family="arial" font-size="14.00" fill="#ff7f00">c0 &lt;= 5</text>
</g>
<!-- ID_68_ct0_st024&#45;&gt;ID_68_ct0_st023X4 -->
<g id="edge50" class="edge">
<title>ID_68_ct0_st024&#45;&gt;ID_68_ct0_st023X4</title>
<path fill="none" stroke="black" d="M2053.3,-309.85C2059.27,-310.32 2065.25,-310.71 2071,-311 2189.52,-316.87 2221.47,-315.07 2337,-288 2341.7,-286.9 2346.49,-285.61 2351.28,-284.2"/>
<polygon fill="black" stroke="black" points="2352.59,-287.45 2361.1,-281.13 2350.51,-280.77 2352.59,-287.45"/>
<text text-anchor="start" x="2196" y="-331.8" font-family="arial" font-size="14.00" fill="#377eb8">true</text>
<text text-anchor="start" x="2189" y="-316.8" font-family="arial" font-size="14.00">c0 :=0</text>
</g>
<!-- ID_68_ct0_st0123X4 -->
<g id="node16" class="node">
<title>ID_68_ct0_st0123X4</title>
<polygon fill="none" stroke="black" points="2281,-205 2135,-205 2135,-155 2281,-155 2281,-205"/>
<text text-anchor="start" x="2143" y="-190.8" font-family="arial" font-weight="bold" font-size="14.00">ID_68_ct0_st0123X4</text>
<text text-anchor="start" x="2156.5" y="-176.8" font-family="arial" font-size="14.00" fill="#984ea3">(Q &amp;&amp; (!R &amp;&amp; S))</text>
<text text-anchor="start" x="2185" y="-162.8" font-family="arial" font-size="14.00" fill="#ff7f00">c0 &lt;= 5</text>
</g>
<!-- ID_68_ct0_st024&#45;&gt;ID_68_ct0_st0123X4 -->
<g id="edge52" class="edge">
<title>ID_68_ct0_st024&#45;&gt;ID_68_ct0_st0123X4</title>
<path fill="none" stroke="black" d="M2032.4,-277.84C2044.74,-270.62 2058.33,-262.86 2071,-256 2091.1,-245.12 2096.92,-243.92 2117,-233 2130.07,-225.89 2144.01,-217.9 2156.92,-210.31"/>
<polygon fill="black" stroke="black" points="2158.84,-213.24 2165.67,-205.14 2155.28,-207.22 2158.84,-213.24"/>
<text text-anchor="start" x="2082" y="-274.8" font-family="arial" font-size="14.00" fill="#377eb8">true</text>
<text text-anchor="start" x="2075" y="-259.8" font-family="arial" font-size="14.00">c0 :=0</text>
</g>
<!-- ID_68_ct0_st0124&#45;&gt;ID_68_ct0_st024 -->
<g id="edge53" class="edge">
<title>ID_68_ct0_st0124&#45;&gt;ID_68_ct0_st024</title>
<path fill="none" stroke="black" d="M1804.09,-354.99C1819.19,-340.69 1840.02,-323.88 1862,-315 1878.66,-308.27 1897.53,-304.61 1915.51,-302.74"/>
<polygon fill="black" stroke="black" points="1916.02,-306.21 1925.68,-301.86 1915.42,-299.24 1916.02,-306.21"/>
<text text-anchor="start" x="1873" y="-318.8" font-family="arial" font-size="14.00" fill="#377eb8">true</text>
</g>
<!-- ID_68_ct0_st0124&#45;&gt;ID_68_ct0_st0124 -->
<g id="edge55" class="edge">
<title>ID_68_ct0_st0124&#45;&gt;ID_68_ct0_st0124</title>
<path fill="none" stroke="black" d="M1760.08,-405.18C1759.21,-414.91 1765.69,-423 1779.5,-423 1788.13,-423 1793.9,-419.84 1796.8,-415.09"/>
<polygon fill="black" stroke="black" points="1800.25,-415.69 1798.92,-405.18 1793.41,-414.22 1800.25,-415.69"/>
<text text-anchor="start" x="1767.5" y="-426.8" font-family="arial" font-size="14.00" fill="#377eb8">true</text>
</g>
<!-- ID_68_ct0_st0124&#45;&gt;ID_68_ct0_st023X4 -->
<g id="edge54" class="edge">
<title>ID_68_ct0_st0124&#45;&gt;ID_68_ct0_st023X4</title>
<path fill="none" stroke="black" d="M1808.88,-405.21C1823.63,-416.66 1842.6,-428.97 1862,-435 1912.4,-450.68 2297.08,-469.52 2337,-435 2376.46,-400.87 2330.5,-365.06 2355,-319 2361.08,-307.56 2370.06,-297.09 2379.51,-288.11"/>
<polygon fill="black" stroke="black" points="2382.06,-290.52 2387.15,-281.23 2377.38,-285.32 2382.06,-290.52"/>
<text text-anchor="start" x="2082" y="-472.8" font-family="arial" font-size="14.00" fill="#377eb8">true</text>
<text text-anchor="start" x="2075" y="-457.8" font-family="arial" font-size="14.00">c0 :=0</text>
</g>
<!-- ID_68_ct0_st0124&#45;&gt;ID_68_ct0_st0123X4 -->
<g id="edge56" class="edge">
<title>ID_68_ct0_st0124&#45;&gt;ID_68_ct0_st0123X4</title>
<path fill="none" stroke="black" d="M1786.33,-355C1796.27,-316.89 1819.67,-243.68 1862,-196 1883.96,-171.26 1894.1,-166.76 1926,-158 1991.33,-140.07 2068.17,-147.96 2124.98,-159"/>
<polygon fill="black" stroke="black" points="2124.49,-162.47 2134.99,-161.01 2125.87,-155.61 2124.49,-162.47"/>
<text text-anchor="start" x="1977.5" y="-176.8" font-family="arial" font-size="14.00" fill="#377eb8">true</text>
<text text-anchor="start" x="1970.5" y="-161.8" font-family="arial" font-size="14.00">c0 :=0</text>
</g>
<!-- ID_68_ct0_st023X4&#45;&gt;ID_68_ct0_st0234 -->
<g id="edge59" class="edge">
<title>ID_68_ct0_st023X4&#45;&gt;ID_68_ct0_st0234</title>
<path fill="none" stroke="black" d="M2478.89,-281.14C2503.04,-292.76 2531.72,-307.06 2557,-321 2568.01,-327.07 2579.64,-333.93 2590.56,-340.57"/>
<polygon fill="black" stroke="black" points="2588.79,-343.59 2599.14,-345.84 2592.45,-337.62 2588.79,-343.59"/>
<text text-anchor="start" x="2511" y="-324.8" font-family="arial" font-size="14.00" fill="#377eb8">c0 &gt;= 5</text>
</g>
<!-- ID_68_ct0_st023X4&#45;&gt;ID_68_ct0_st01234 -->
<g id="edge62" class="edge">
<title>ID_68_ct0_st023X4&#45;&gt;ID_68_ct0_st01234</title>
<path fill="none" stroke="black" d="M2493.05,-269.42C2549.97,-281.28 2633.02,-300.07 2704,-322 2722.91,-327.84 2743.04,-335.08 2761.58,-342.19"/>
<polygon fill="black" stroke="black" points="2760.53,-345.53 2771.12,-345.88 2763.06,-339.01 2760.53,-345.53"/>
<text text-anchor="start" x="2616.5" y="-325.8" font-family="arial" font-size="14.00" fill="#377eb8">c0 &gt;= 5</text>
</g>
<!-- ID_68_ct0_st023X4&#45;&gt;ID_68_ct0_st024 -->
<g id="edge57" class="edge">
<title>ID_68_ct0_st023X4&#45;&gt;ID_68_ct0_st024</title>
<path fill="none" stroke="black" d="M2354.74,-258.38C2296.09,-261.27 2209.45,-267.55 2135,-281 2126.83,-282.48 2125.13,-284.33 2117,-286 2099.76,-289.54 2081.04,-292.51 2063.43,-294.94"/>
<polygon fill="black" stroke="black" points="2062.65,-291.51 2053.2,-296.3 2063.57,-298.45 2062.65,-291.51"/>
<text text-anchor="start" x="2196" y="-284.8" font-family="arial" font-size="14.00" fill="#377eb8">true</text>
</g>
<!-- ID_68_ct0_st023X4&#45;&gt;ID_68_ct0_st0124 -->
<g id="edge60" class="edge">
<title>ID_68_ct0_st023X4&#45;&gt;ID_68_ct0_st0124</title>
<path fill="none" stroke="black" d="M2388.01,-281.21C2375.87,-291.62 2363.25,-304.62 2355,-319 2336.64,-350.98 2365.77,-376.92 2337,-400 2264.7,-458 1988.48,-417.89 1854.39,-394.11"/>
<polygon fill="black" stroke="black" points="1854.67,-390.6 1844.21,-392.28 1853.44,-397.49 1854.67,-390.6"/>
<text text-anchor="start" x="2082" y="-430.8" font-family="arial" font-size="14.00" fill="#377eb8">true</text>
</g>
<!-- ID_68_ct0_st023X4&#45;&gt;ID_68_ct0_st023X4 -->
<g id="edge58" class="edge">
<title>ID_68_ct0_st023X4&#45;&gt;ID_68_ct0_st023X4</title>
<path fill="none" stroke="black" d="M2404.2,-281.18C2403.32,-290.91 2409.92,-299 2424,-299 2432.8,-299 2438.68,-295.84 2441.63,-291.09"/>
<polygon fill="black" stroke="black" points="2445.08,-291.69 2443.8,-281.18 2438.24,-290.2 2445.08,-291.69"/>
<text text-anchor="start" x="2405" y="-302.8" font-family="arial" font-size="14.00" fill="#377eb8">c0 &lt; 5</text>
</g>
<!-- ID_68_ct0_st023X4&#45;&gt;ID_68_ct0_st0123X4 -->
<g id="edge61" class="edge">
<title>ID_68_ct0_st023X4&#45;&gt;ID_68_ct0_st0123X4</title>
<path fill="none" stroke="black" d="M2378.12,-230.83C2370.36,-226.31 2362.41,-221.58 2355,-217 2346.83,-211.94 2345.89,-208.66 2337,-205 2322.66,-199.1 2306.83,-194.56 2291.33,-191.09"/>
<polygon fill="black" stroke="black" points="2291.72,-187.59 2281.22,-188.95 2290.28,-194.44 2291.72,-187.59"/>
<text text-anchor="start" x="2299" y="-208.8" font-family="arial" font-size="14.00" fill="#377eb8">c0 &lt; 5</text>
</g>
<!-- ID_68_ct0_st0123X4&#45;&gt;ID_68_ct0_st0234 -->
<g id="edge69" class="edge">
<title>ID_68_ct0_st0123X4&#45;&gt;ID_68_ct0_st0234</title>
<path fill="none" stroke="black" d="M2231.33,-205.26C2264.58,-242.25 2326.23,-308.34 2355,-323 2420.8,-356.54 2505.23,-367.34 2564.78,-370.49"/>
<polygon fill="black" stroke="black" points="2564.7,-373.99 2574.85,-370.96 2565.03,-367 2564.7,-373.99"/>
<text text-anchor="start" x="2401" y="-366.8" font-family="arial" font-size="14.00" fill="#377eb8">c0 &gt;= 5</text>
</g>
<!-- ID_68_ct0_st0123X4&#45;&gt;ID_68_ct0_st01234 -->
<g id="edge72" class="edge">
<title>ID_68_ct0_st0123X4&#45;&gt;ID_68_ct0_st01234</title>
<path fill="none" stroke="black" d="M2281.27,-184.07C2299.5,-185.53 2319.01,-187.46 2337,-190 2503.73,-213.52 2551.83,-211.93 2704,-284 2735.63,-298.98 2768.17,-321.32 2792.46,-339.61"/>
<polygon fill="black" stroke="black" points="2790.62,-342.61 2800.69,-345.89 2794.87,-337.04 2790.62,-342.61"/>
<text text-anchor="start" x="2511" y="-229.8" font-family="arial" font-size="14.00" fill="#377eb8">c0 &gt;= 5</text>
</g>
<!-- ID_68_ct0_st0123X4&#45;&gt;ID_68_ct0_st024 -->
<g id="edge67" class="edge">
<title>ID_68_ct0_st0123X4&#45;&gt;ID_68_ct0_st024</title>
<path fill="none" stroke="black" d="M2134.86,-194.09C2108.48,-200.07 2082.32,-207.21 2071,-214 2058.43,-221.54 2035.35,-247.68 2017.12,-269.7"/>
<polygon fill="black" stroke="black" points="2014.29,-267.63 2010.65,-277.58 2019.7,-272.07 2014.29,-267.63"/>
<text text-anchor="start" x="2082" y="-217.8" font-family="arial" font-size="14.00" fill="#377eb8">true</text>
</g>
<!-- ID_68_ct0_st0123X4&#45;&gt;ID_68_ct0_st0124 -->
<g id="edge70" class="edge">
<title>ID_68_ct0_st0123X4&#45;&gt;ID_68_ct0_st0124</title>
<path fill="none" stroke="black" d="M2134.75,-186.33C2113.98,-189.02 2091.42,-192.78 2071,-198 1971.04,-223.53 1941.07,-232.73 1862,-299 1844.13,-313.98 1825.59,-332.16 1810.72,-347.5"/>
<polygon fill="black" stroke="black" points="1808.13,-345.14 1803.73,-354.78 1813.18,-349.99 1808.13,-345.14"/>
<text text-anchor="start" x="1977.5" y="-254.8" font-family="arial" font-size="14.00" fill="#377eb8">true</text>
</g>
<!-- ID_68_ct0_st0123X4&#45;&gt;ID_68_ct0_st023X4 -->
<g id="edge68" class="edge">
<title>ID_68_ct0_st0123X4&#45;&gt;ID_68_ct0_st023X4</title>
<path fill="none" stroke="black" d="M2262.29,-205.11C2274.24,-210.34 2286.96,-215.6 2299,-220 2313.68,-225.37 2329.56,-230.48 2344.9,-235.08"/>
<polygon fill="black" stroke="black" points="2344.31,-238.55 2354.89,-238.03 2346.29,-231.84 2344.31,-238.55"/>
<text text-anchor="start" x="2299" y="-236.8" font-family="arial" font-size="14.00" fill="#377eb8">c0 &lt; 5</text>
</g>
<!-- ID_68_ct0_st0123X4&#45;&gt;ID_68_ct0_st0123X4 -->
<g id="edge71" class="edge">
<title>ID_68_ct0_st0123X4&#45;&gt;ID_68_ct0_st0123X4</title>
<path fill="none" stroke="black" d="M2187.46,-205.18C2186.54,-214.91 2193.39,-223 2208,-223 2217.13,-223 2223.23,-219.84 2226.3,-215.09"/>
<polygon fill="black" stroke="black" points="2229.75,-215.7 2228.54,-205.18 2222.92,-214.15 2229.75,-215.7"/>
<text text-anchor="start" x="2189" y="-226.8" font-family="arial" font-size="14.00" fill="#377eb8">c0 &lt; 5</text>
</g>
</g>
</svg>
