<?xml version="1.0" encoding="UTF-8" standalone="no"?>
<!DOCTYPE svg PUBLIC "-//W3C//DTD SVG 1.1//EN"
 "http://www.w3.org/Graphics/SVG/1.1/DTD/svg11.dtd">
<!-- Generated by graphviz version 2.40.1 (20161225.0304)
 -->
<!-- Title: G Pages: 1 -->
<svg width="589pt" height="296pt"
 viewBox="0.00 0.00 589.00 296.00" xmlns="http://www.w3.org/2000/svg" xmlns:xlink="http://www.w3.org/1999/xlink">
<g id="graph0" class="graph" transform="scale(1 1) rotate(0) translate(4 292)">
<title>G</title>
<polygon fill="#ffffff" stroke="transparent" points="-4,4 -4,-292 585,-292 585,4 -4,4"/>
<!-- _stinit -->
<!-- stinit -->
<g id="node2" class="node">
<title>stinit</title>
<polygon fill="none" stroke="#000000" points="454,-255 400,-255 400,-205 454,-205 454,-255"/>
<text text-anchor="start" x="410" y="-240.8" font-family="arial" font-weight="bold" font-size="14.00" fill="#000000">stinit</text>
<text text-anchor="start" x="421" y="-226.8" font-family="arial" font-size="14.00" fill="#984ea3">Q</text>
<text text-anchor="start" x="414.5" y="-212.8" font-family="arial" font-size="14.00" fill="#ff7f00">true</text>
</g>
<!-- _stinit&#45;&gt;stinit -->
<g id="edge1" class="edge">
<title>_stinit&#45;&gt;stinit</title>
<path fill="none" stroke="#000000" d="M298.1731,-230C323.4849,-230 361.4449,-230 389.6092,-230"/>
<polygon fill="#000000" stroke="#000000" points="389.877,-233.5001 399.877,-230 389.877,-226.5001 389.877,-233.5001"/>
</g>
<!-- stinit&#45;&gt;stinit -->
<g id="edge5" class="edge">
<title>stinit&#45;&gt;stinit</title>
<path fill="none" stroke="#000000" d="M414.2998,-255.1756C413.7354,-264.9095 417.9688,-273 427,-273 432.6445,-273 436.4149,-269.8397 438.3111,-265.093"/>
<polygon fill="#000000" stroke="#000000" points="441.7792,-265.5645 439.7002,-255.1756 434.8468,-264.5934 441.7792,-265.5645"/>
<text text-anchor="start" x="414.5" y="-276.8" font-family="arial" font-size="14.00" fill="#377eb8">true</text>
</g>
<!-- st -->
<g id="node7" class="node">
<title>st</title>
<polygon fill="none" stroke="#000000" points="581,-173 527,-173 527,-123 581,-123 581,-173"/>
<text text-anchor="start" x="547.5" y="-158.8" font-family="arial" font-weight="bold" font-size="14.00" fill="#000000">st</text>
<text text-anchor="start" x="541.5" y="-144.8" font-family="arial" font-size="14.00" fill="#984ea3">true</text>
<text text-anchor="start" x="541.5" y="-130.8" font-family="arial" font-size="14.00" fill="#ff7f00">true</text>
</g>
<!-- stinit&#45;&gt;st -->
<g id="edge4" class="edge">
<title>stinit&#45;&gt;st</title>
<path fill="none" stroke="#000000" d="M454.0382,-217.2818C470.433,-209.1385 491.4949,-197.8957 509,-186 512.2376,-183.7999 515.5132,-181.408 518.7429,-178.931"/>
<polygon fill="#000000" stroke="#000000" points="520.9813,-181.6228 526.6293,-172.6589 516.6241,-176.1442 520.9813,-181.6228"/>
<text text-anchor="start" x="484" y="-203.8" font-family="arial" font-size="14.00" fill="#377eb8">true</text>
</g>
<!-- _st0 -->
<!-- st0 -->
<g id="node4" class="node">
<title>st0</title>
<polygon fill="none" stroke="#000000" points="169,-50 91,-50 91,0 169,0 169,-50"/>
<text text-anchor="start" x="119" y="-35.8" font-family="arial" font-weight="bold" font-size="14.00" fill="#000000">st0</text>
<text text-anchor="start" x="99" y="-21.8" font-family="arial" font-size="14.00" fill="#984ea3">(!Q &amp;&amp; R)</text>
<text text-anchor="start" x="117.5" y="-7.8" font-family="arial" font-size="14.00" fill="#ff7f00">true</text>
</g>
<!-- _st0&#45;&gt;st0 -->
<g id="edge2" class="edge">
<title>_st0&#45;&gt;st0</title>
<path fill="none" stroke="#000000" d="M54.062,-25C62.2035,-25 71.4058,-25 80.5234,-25"/>
<polygon fill="#000000" stroke="#000000" points="80.7204,-28.5001 90.7203,-25 80.7203,-21.5001 80.7204,-28.5001"/>
</g>
<!-- st0&#45;&gt;st0 -->
<g id="edge8" class="edge">
<title>st0&#45;&gt;st0</title>
<path fill="none" stroke="#000000" d="M119.541,-50.1756C119.0762,-59.9095 122.5625,-68 130,-68 134.5322,-68 137.5972,-64.9957 139.195,-60.446"/>
<polygon fill="#000000" stroke="#000000" points="142.7112,-60.5283 140.459,-50.1756 135.7636,-59.6732 142.7112,-60.5283"/>
<text text-anchor="start" x="117.5" y="-71.8" font-family="arial" font-size="14.00" fill="#377eb8">true</text>
</g>
<!-- st01 -->
<g id="node6" class="node">
<title>st01</title>
<polygon fill="none" stroke="#000000" points="312,-141 230,-141 230,-91 312,-91 312,-141"/>
<text text-anchor="start" x="256" y="-126.8" font-family="arial" font-weight="bold" font-size="14.00" fill="#000000">st01</text>
<text text-anchor="start" x="238" y="-112.8" font-family="arial" font-size="14.00" fill="#984ea3">(!Q &amp;&amp; !R)</text>
<text text-anchor="start" x="258.5" y="-98.8" font-family="arial" font-size="14.00" fill="#ff7f00">true</text>
</g>
<!-- st0&#45;&gt;st01 -->
<g id="edge9" class="edge">
<title>st0&#45;&gt;st01</title>
<path fill="none" stroke="#000000" d="M168.9021,-50.107C185.8545,-61.0479 205.8802,-73.9723 223.6856,-85.4637"/>
<polygon fill="#000000" stroke="#000000" points="221.9248,-88.493 232.2248,-90.9749 225.7207,-82.6115 221.9248,-88.493"/>
<text text-anchor="start" x="187" y="-78.8" font-family="arial" font-size="14.00" fill="#377eb8">true</text>
</g>
<!-- st0&#45;&gt;st -->
<g id="edge7" class="edge">
<title>st0&#45;&gt;st</title>
<path fill="none" stroke="#000000" d="M169.0222,-17.7312C234.3657,-7.5494 368.3524,4.6854 466,-44 496.3514,-59.1327 520.3105,-89.9415 535.516,-114.1177"/>
<polygon fill="#000000" stroke="#000000" points="532.5355,-115.9527 540.7176,-122.6834 538.5187,-112.3193 532.5355,-115.9527"/>
<text text-anchor="start" x="342.5" y="-18.8" font-family="arial" font-size="14.00" fill="#377eb8">Q&#39;</text>
</g>
<!-- _st01 -->
<!-- _st01&#45;&gt;st01 -->
<g id="edge3" class="edge">
<title>_st01&#45;&gt;st01</title>
<path fill="none" stroke="#000000" d="M157.1862,-118.4216C174.8606,-118.0455 198.4648,-117.5433 219.5942,-117.0937"/>
<polygon fill="#000000" stroke="#000000" points="219.8079,-120.5901 229.7312,-116.8781 219.6589,-113.5917 219.8079,-120.5901"/>
</g>
<!-- st01&#45;&gt;st01 -->
<g id="edge12" class="edge">
<title>st01&#45;&gt;st01</title>
<path fill="none" stroke="#000000" d="M257.9263,-141.1756C257.3452,-150.9095 261.7031,-159 271,-159 276.8105,-159 280.6918,-155.8397 282.6438,-151.093"/>
<polygon fill="#000000" stroke="#000000" points="286.1107,-151.5728 284.0737,-141.1756 279.1824,-150.5738 286.1107,-151.5728"/>
<text text-anchor="start" x="258.5" y="-162.8" font-family="arial" font-size="14.00" fill="#377eb8">true</text>
</g>
<!-- st01&#45;&gt;st -->
<g id="edge10" class="edge">
<title>st01&#45;&gt;st</title>
<path fill="none" stroke="#000000" d="M312.3152,-131.008C318.2042,-132.8529 324.2225,-134.5838 330,-136 394.2572,-151.7511 471.8735,-151.8817 516.8224,-150.1872"/>
<polygon fill="#000000" stroke="#000000" points="517.1385,-153.6769 526.9793,-149.7515 516.8385,-146.6833 517.1385,-153.6769"/>
<text text-anchor="start" x="419.5" y="-153.8" font-family="arial" font-size="14.00" fill="#377eb8">Q&#39;</text>
</g>
<!-- st02X -->
<g id="node8" class="node">
<title>st02X</title>
<polygon fill="none" stroke="#000000" points="466,-103 388,-103 388,-53 466,-53 466,-103"/>
<text text-anchor="start" x="407" y="-88.8" font-family="arial" font-weight="bold" font-size="14.00" fill="#000000">st02X</text>
<text text-anchor="start" x="396" y="-74.8" font-family="arial" font-size="14.00" fill="#984ea3">(!Q &amp;&amp; R)</text>
<text text-anchor="start" x="407" y="-60.8" font-family="arial" font-size="14.00" fill="#ff7f00">c0 &lt; 5</text>
</g>
<!-- st01&#45;&gt;st02X -->
<g id="edge11" class="edge">
<title>st01&#45;&gt;st02X</title>
<path fill="none" stroke="#000000" d="M312.0608,-107.4051C329.9159,-103.5311 351.0456,-98.7625 370,-94 372.6198,-93.3417 375.3025,-92.65 378.0075,-91.9386"/>
<polygon fill="#000000" stroke="#000000" points="379.0778,-95.2753 387.8277,-89.3012 377.2621,-88.5148 379.0778,-95.2753"/>
<text text-anchor="start" x="337.5" y="-120.8" font-family="arial" font-size="14.00" fill="#377eb8">true</text>
<text text-anchor="start" x="330" y="-105.8" font-family="arial" font-size="14.00" fill="#000000">c0 :=0</text>
</g>
<!-- st&#45;&gt;st -->
<g id="edge6" class="edge">
<title>st&#45;&gt;st</title>
<path fill="none" stroke="#000000" d="M543.541,-173.1756C543.0762,-182.9095 546.5625,-191 554,-191 558.5322,-191 561.5972,-187.9957 563.195,-183.446"/>
<polygon fill="#000000" stroke="#000000" points="566.7112,-183.5283 564.459,-173.1756 559.7636,-182.6732 566.7112,-183.5283"/>
<text text-anchor="start" x="541.5" y="-194.8" font-family="arial" font-size="14.00" fill="#377eb8">true</text>
</g>
<!-- st02X&#45;&gt;st01 -->
<g id="edge15" class="edge">
<title>st02X&#45;&gt;st01</title>
<path fill="none" stroke="#000000" d="M387.9633,-70.9998C369.9413,-69.2235 348.4892,-69.2066 330,-75 322.4678,-77.3602 315.0542,-81.0588 308.1609,-85.2899"/>
<polygon fill="#000000" stroke="#000000" points="306.1391,-82.431 299.7379,-90.8735 310.0067,-88.2655 306.1391,-82.431"/>
<text text-anchor="start" x="337.5" y="-78.8" font-family="arial" font-size="14.00" fill="#377eb8">true</text>
</g>
<!-- st02X&#45;&gt;st -->
<g id="edge13" class="edge">
<title>st02X&#45;&gt;st</title>
<path fill="none" stroke="#000000" d="M466.1405,-99.5735C482.5902,-108.6403 501.6105,-119.1239 517.7384,-128.0133"/>
<polygon fill="#000000" stroke="#000000" points="516.4115,-131.2783 526.8588,-133.0403 519.7905,-125.1479 516.4115,-131.2783"/>
<text text-anchor="start" x="489" y="-124.8" font-family="arial" font-size="14.00" fill="#377eb8">Q&#39;</text>
</g>
<!-- st02X&#45;&gt;st02X -->
<g id="edge14" class="edge">
<title>st02X&#45;&gt;st02X</title>
<path fill="none" stroke="#000000" d="M414.2998,-103.1756C413.7354,-112.9095 417.9688,-121 427,-121 432.6445,-121 436.4149,-117.8397 438.3111,-113.093"/>
<polygon fill="#000000" stroke="#000000" points="441.7792,-113.5645 439.7002,-103.1756 434.8468,-112.5934 441.7792,-113.5645"/>
<text text-anchor="start" x="414.5" y="-124.8" font-family="arial" font-size="14.00" fill="#377eb8">true</text>
</g>
</g>
</svg>
