<?xml version="1.0" encoding="UTF-8" standalone="no"?>
<!DOCTYPE svg PUBLIC "-//W3C//DTD SVG 1.1//EN"
 "http://www.w3.org/Graphics/SVG/1.1/DTD/svg11.dtd">
<!-- Generated by graphviz version 2.40.1 (20161225.0304)
 -->
<!-- Title: G Pages: 1 -->
<svg width="1371pt" height="455pt"
 viewBox="0.00 0.00 1371.00 455.00" xmlns="http://www.w3.org/2000/svg" xmlns:xlink="http://www.w3.org/1999/xlink">
<g id="graph0" class="graph" transform="scale(1 1) rotate(0) translate(4 451)">
<title>G</title>
<polygon fill="#ffffff" stroke="transparent" points="-4,4 -4,-451 1367,-451 1367,4 -4,4"/>
<!-- _st0 -->
<!-- st0 -->
<g id="node2" class="node">
<title>st0</title>
<polygon fill="none" stroke="#000000" points="165.5,-235 99.5,-235 99.5,-185 165.5,-185 165.5,-235"/>
<text text-anchor="start" x="121.5" y="-220.8" font-family="arial" font-weight="bold" font-size="14.00" fill="#000000">st0</text>
<text text-anchor="start" x="107.5" y="-206.8" font-family="arial" font-size="14.00" fill="#984ea3">(R || !Q)</text>
<text text-anchor="start" x="120" y="-192.8" font-family="arial" font-size="14.00" fill="#ff7f00">true</text>
</g>
<!-- _st0&#45;&gt;st0 -->
<g id="edge1" class="edge">
<title>_st0&#45;&gt;st0</title>
<path fill="none" stroke="#000000" d="M54.1689,-210C64.8407,-210 77.3556,-210 89.2113,-210"/>
<polygon fill="#000000" stroke="#000000" points="89.3973,-213.5001 99.3973,-210 89.3973,-206.5001 89.3973,-213.5001"/>
</g>
<!-- st0&#45;&gt;st0 -->
<g id="edge4" class="edge">
<title>st0&#45;&gt;st0</title>
<path fill="none" stroke="#000000" d="M121.2939,-235.1756C120.7959,-244.9095 124.5313,-253 132.5,-253 137.356,-253 140.6399,-249.9957 142.3518,-245.446"/>
<polygon fill="#000000" stroke="#000000" points="145.8686,-245.5474 143.7061,-235.1756 138.9287,-244.6322 145.8686,-245.5474"/>
<text text-anchor="start" x="120" y="-256.8" font-family="arial" font-size="14.00" fill="#377eb8">true</text>
</g>
<!-- st012 -->
<g id="node4" class="node">
<title>st012</title>
<polygon fill="none" stroke="#000000" points="767,-216 639,-216 639,-166 767,-166 767,-216"/>
<text text-anchor="start" x="684" y="-201.8" font-family="arial" font-weight="bold" font-size="14.00" fill="#000000">st012</text>
<text text-anchor="start" x="647" y="-187.8" font-family="arial" font-size="14.00" fill="#984ea3">(Q &amp;&amp; (!R &amp;&amp; !S))</text>
<text text-anchor="start" x="690.5" y="-173.8" font-family="arial" font-size="14.00" fill="#ff7f00">true</text>
</g>
<!-- st0&#45;&gt;st012 -->
<g id="edge5" class="edge">
<title>st0&#45;&gt;st012</title>
<path fill="none" stroke="#000000" d="M165.686,-189.4443C174.0547,-184.868 183.1747,-180.3784 192,-177 354.0781,-114.9548 410.4777,-72.6658 578,-118 608.5714,-126.2731 639.3358,-144.0916 662.6946,-160.0526"/>
<polygon fill="#000000" stroke="#000000" points="660.7508,-162.9642 670.9513,-165.8278 664.7629,-157.228 660.7508,-162.9642"/>
<text text-anchor="start" x="399.5" y="-109.8" font-family="arial" font-size="14.00" fill="#377eb8">true</text>
</g>
<!-- st0123W -->
<g id="node6" class="node">
<title>st0123W</title>
<polygon fill="none" stroke="#000000" points="374,-333 250,-333 250,-283 374,-283 374,-333"/>
<text text-anchor="start" x="282" y="-318.8" font-family="arial" font-weight="bold" font-size="14.00" fill="#000000">st0123W</text>
<text text-anchor="start" x="258" y="-304.8" font-family="arial" font-size="14.00" fill="#984ea3">(Q &amp;&amp; (!R &amp;&amp; S))</text>
<text text-anchor="start" x="287.5" y="-290.8" font-family="arial" font-size="14.00" fill="#ff7f00">c0 &lt;= 5</text>
</g>
<!-- st0&#45;&gt;st0123W -->
<g id="edge6" class="edge">
<title>st0&#45;&gt;st0123W</title>
<path fill="none" stroke="#000000" d="M165.604,-225.3629C185.1489,-234.6649 210.2441,-247.0134 232,-259 242.476,-264.7719 253.525,-271.2645 263.956,-277.5895"/>
<polygon fill="#000000" stroke="#000000" points="262.1895,-280.6118 272.5467,-282.8435 265.8418,-274.6401 262.1895,-280.6118"/>
<text text-anchor="start" x="199.5" y="-277.8" font-family="arial" font-size="14.00" fill="#377eb8">true</text>
<text text-anchor="start" x="192" y="-262.8" font-family="arial" font-size="14.00" fill="#000000">c0 :=0</text>
</g>
<!-- _st012 -->
<!-- _st012&#45;&gt;st012 -->
<g id="edge2" class="edge">
<title>_st012&#45;&gt;st012</title>
<path fill="none" stroke="#000000" d="M544.7868,-152.4931C567.6231,-158.0511 599.7511,-165.8706 629.0945,-173.0124"/>
<polygon fill="#000000" stroke="#000000" points="628.3775,-176.44 638.9216,-175.4042 630.0329,-169.6386 628.3775,-176.44"/>
</g>
<!-- st012&#45;&gt;st0 -->
<g id="edge12" class="edge">
<title>st012&#45;&gt;st0</title>
<path fill="none" stroke="#000000" d="M638.9646,-192.6738C576.0828,-194.3598 477.4312,-197.1179 392,-200 315.9091,-202.567 227.2897,-206.0986 175.7786,-208.2053"/>
<polygon fill="#000000" stroke="#000000" points="175.525,-204.7127 165.6769,-208.6197 175.812,-211.7068 175.525,-204.7127"/>
<text text-anchor="start" x="405" y="-203.8" font-family="arial" font-size="14.00" fill="#377eb8">R&#39;</text>
</g>
<!-- st012&#45;&gt;st012 -->
<g id="edge15" class="edge">
<title>st012&#45;&gt;st012</title>
<path fill="none" stroke="#000000" d="M685.4438,-216.1756C684.6636,-225.9095 690.5156,-234 703,-234 710.8027,-234 716.0147,-230.8397 718.6359,-226.093"/>
<polygon fill="#000000" stroke="#000000" points="722.0913,-226.6586 720.5562,-216.1756 715.219,-225.3279 722.0913,-226.6586"/>
<text text-anchor="start" x="690.5" y="-237.8" font-family="arial" font-size="14.00" fill="#377eb8">true</text>
</g>
<!-- st02 -->
<g id="node7" class="node">
<title>st02</title>
<polygon fill="none" stroke="#000000" points="1363,-265 1232,-265 1232,-215 1363,-215 1363,-265"/>
<text text-anchor="start" x="1282.5" y="-250.8" font-family="arial" font-weight="bold" font-size="14.00" fill="#000000">st02</text>
<text text-anchor="start" x="1240" y="-236.8" font-family="arial" font-size="14.00" fill="#984ea3">(!Q &amp;&amp; (!R &amp;&amp; !S))</text>
<text text-anchor="start" x="1285" y="-222.8" font-family="arial" font-size="14.00" fill="#ff7f00">true</text>
</g>
<!-- st012&#45;&gt;st02 -->
<g id="edge13" class="edge">
<title>st012&#45;&gt;st02</title>
<path fill="none" stroke="#000000" d="M739.2075,-165.8013C753.0174,-157.1635 769.237,-148.1379 785,-142 939.153,-81.9753 995.5301,-71.8063 1156,-112 1208.0625,-125.0404 1250.9036,-172.8457 1275.3416,-206.1874"/>
<polygon fill="#000000" stroke="#000000" points="1272.7889,-208.6359 1281.4457,-214.7442 1278.4876,-204.5707 1272.7889,-208.6359"/>
<text text-anchor="start" x="985" y="-92.8" font-family="arial" font-size="14.00" fill="#377eb8">true</text>
</g>
<!-- st023X -->
<g id="node8" class="node">
<title>st023X</title>
<polygon fill="none" stroke="#000000" points="1156,-171 1028,-171 1028,-121 1156,-121 1156,-171"/>
<text text-anchor="start" x="1068" y="-156.8" font-family="arial" font-weight="bold" font-size="14.00" fill="#000000">st023X</text>
<text text-anchor="start" x="1036" y="-142.8" font-family="arial" font-size="14.00" fill="#984ea3">(!Q &amp;&amp; (!R &amp;&amp; S))</text>
<text text-anchor="start" x="1072" y="-128.8" font-family="arial" font-size="14.00" fill="#ff7f00">c0 &lt; 5</text>
</g>
<!-- st012&#45;&gt;st023X -->
<g id="edge14" class="edge">
<title>st012&#45;&gt;st023X</title>
<path fill="none" stroke="#000000" d="M767.2354,-183.5692C836.1762,-175.594 945.5269,-162.9442 1018.0168,-154.5585"/>
<polygon fill="#000000" stroke="#000000" points="1018.4612,-158.0305 1027.9927,-153.4044 1017.6567,-151.0769 1018.4612,-158.0305"/>
<text text-anchor="start" x="892.5" y="-192.8" font-family="arial" font-size="14.00" fill="#377eb8">true</text>
<text text-anchor="start" x="885" y="-177.8" font-family="arial" font-size="14.00" fill="#000000">c0 :=0</text>
</g>
<!-- st0123X -->
<g id="node9" class="node">
<title>st0123X</title>
<polygon fill="none" stroke="#000000" points="967,-276 843,-276 843,-226 967,-226 967,-276"/>
<text text-anchor="start" x="877" y="-261.8" font-family="arial" font-weight="bold" font-size="14.00" fill="#000000">st0123X</text>
<text text-anchor="start" x="851" y="-247.8" font-family="arial" font-size="14.00" fill="#984ea3">(Q &amp;&amp; (!R &amp;&amp; S))</text>
<text text-anchor="start" x="885" y="-233.8" font-family="arial" font-size="14.00" fill="#ff7f00">c0 &lt; 5</text>
</g>
<!-- st012&#45;&gt;st0123X -->
<g id="edge16" class="edge">
<title>st012&#45;&gt;st0123X</title>
<path fill="none" stroke="#000000" d="M755.7303,-216.1393C765.332,-220.1429 775.3621,-223.96 785,-227 800.3531,-231.8427 817.1307,-235.9212 833.1444,-239.2637"/>
<polygon fill="#000000" stroke="#000000" points="832.5025,-242.7047 842.997,-241.25 833.8859,-235.8427 832.5025,-242.7047"/>
<text text-anchor="start" x="792.5" y="-255.8" font-family="arial" font-size="14.00" fill="#377eb8">true</text>
<text text-anchor="start" x="785" y="-240.8" font-family="arial" font-size="14.00" fill="#000000">c0 :=0</text>
</g>
<!-- _st0123W -->
<!-- _st0123W&#45;&gt;st0123W -->
<g id="edge3" class="edge">
<title>_st0123W&#45;&gt;st0123W</title>
<path fill="none" stroke="#000000" d="M174.2757,-336.0047C192.1213,-333.6428 213.1438,-330.5577 232,-327 234.5162,-326.5253 237.0726,-326.0238 239.6511,-325.5016"/>
<polygon fill="#000000" stroke="#000000" points="240.6015,-328.8784 249.6687,-323.3979 239.1628,-322.0279 240.6015,-328.8784"/>
</g>
<!-- st0123W&#45;&gt;st0 -->
<g id="edge27" class="edge">
<title>st0123W&#45;&gt;st0</title>
<path fill="none" stroke="#000000" d="M249.9991,-307.1956C230.349,-304.6552 209.2655,-299.3765 192,-289 174.2432,-278.3283 160.0073,-260.1672 149.9179,-243.9471"/>
<polygon fill="#000000" stroke="#000000" points="152.8457,-242.0219 144.7432,-235.1954 146.8202,-245.5847 152.8457,-242.0219"/>
<text text-anchor="start" x="205" y="-307.8" font-family="arial" font-size="14.00" fill="#377eb8">R&#39;</text>
</g>
<!-- st0123W&#45;&gt;st012 -->
<g id="edge30" class="edge">
<title>st0123W&#45;&gt;st012</title>
<path fill="none" stroke="#000000" d="M366.9803,-282.937C391.9708,-272.1595 422.1252,-259.9991 450,-251 509.2024,-231.8871 577.9832,-215.9644 628.8728,-205.336"/>
<polygon fill="#000000" stroke="#000000" points="629.7205,-208.7348 638.8041,-203.2815 628.3024,-201.8799 629.7205,-208.7348"/>
<text text-anchor="start" x="501.5" y="-254.8" font-family="arial" font-size="14.00" fill="#377eb8">true</text>
</g>
<!-- st0123W&#45;&gt;st0123W -->
<g id="edge31" class="edge">
<title>st0123W&#45;&gt;st0123W</title>
<path fill="none" stroke="#000000" d="M293.3232,-333.1756C292.4932,-342.9095 298.7188,-351 312,-351 320.3008,-351 325.8454,-347.8397 328.634,-343.093"/>
<polygon fill="#000000" stroke="#000000" points="332.0873,-343.6761 330.6768,-333.1756 325.2312,-342.2639 332.0873,-343.6761"/>
<text text-anchor="start" x="292" y="-354.8" font-family="arial" font-size="14.00" fill="#377eb8">c0 &lt; 5</text>
</g>
<!-- st0123W&#45;&gt;st02 -->
<g id="edge28" class="edge">
<title>st0123W&#45;&gt;st02</title>
<path fill="none" stroke="#000000" d="M334.1042,-333.0933C368.6053,-369.3264 439.1073,-432 514,-432 514,-432 514,-432 1092,-432 1183.3883,-432 1250.9946,-329.3633 1280.7418,-274.1736"/>
<polygon fill="#000000" stroke="#000000" points="1283.9571,-275.5793 1285.5216,-265.1006 1277.764,-272.3166 1283.9571,-275.5793"/>
<text text-anchor="start" x="792.5" y="-435.8" font-family="arial" font-size="14.00" fill="#377eb8">true</text>
</g>
<!-- st023W -->
<g id="node10" class="node">
<title>st023W</title>
<polygon fill="none" stroke="#000000" points="578,-371 450,-371 450,-321 578,-321 578,-371"/>
<text text-anchor="start" x="488" y="-356.8" font-family="arial" font-weight="bold" font-size="14.00" fill="#000000">st023W</text>
<text text-anchor="start" x="458" y="-342.8" font-family="arial" font-size="14.00" fill="#984ea3">(!Q &amp;&amp; (!R &amp;&amp; S))</text>
<text text-anchor="start" x="489.5" y="-328.8" font-family="arial" font-size="14.00" fill="#ff7f00">c0 &lt;= 5</text>
</g>
<!-- st0123W&#45;&gt;st023W -->
<g id="edge29" class="edge">
<title>st0123W&#45;&gt;st023W</title>
<path fill="none" stroke="#000000" d="M374.2888,-300.4376C393.0449,-299.7625 413.5431,-300.6429 432,-305 442.674,-307.5198 453.5428,-311.6536 463.7281,-316.3499"/>
<polygon fill="#000000" stroke="#000000" points="462.3408,-319.567 472.8647,-320.7908 465.4009,-313.2713 462.3408,-319.567"/>
<text text-anchor="start" x="392" y="-308.8" font-family="arial" font-size="14.00" fill="#377eb8">c0 &lt; 5</text>
</g>
<!-- st02&#45;&gt;st0 -->
<g id="edge7" class="edge">
<title>st02&#45;&gt;st0</title>
<path fill="none" stroke="#000000" d="M1289.5157,-214.7694C1268.2685,-153.1503 1204.1765,0 1092,0 312,0 312,0 312,0 250.0307,0 232.8846,-24.4312 192,-71 165.5487,-101.1288 149.4808,-144.7844 140.8219,-175.1016"/>
<polygon fill="#000000" stroke="#000000" points="137.4225,-174.2642 138.1652,-184.833 144.1754,-176.1078 137.4225,-174.2642"/>
<text text-anchor="start" x="696" y="-3.8" font-family="arial" font-size="14.00" fill="#377eb8">R&#39;</text>
</g>
<!-- st02&#45;&gt;st012 -->
<g id="edge10" class="edge">
<title>st02&#45;&gt;st012</title>
<path fill="none" stroke="#000000" d="M1256.7591,-265.2101C1243.4337,-272.8326 1228.361,-280.8129 1214,-287 1062.0395,-352.4689 998.9634,-373.2593 843,-318 793.7353,-300.5451 751.5816,-255.6527 726.7591,-224.2187"/>
<polygon fill="#000000" stroke="#000000" points="729.4075,-221.9217 720.527,-216.1434 723.8658,-226.1984 729.4075,-221.9217"/>
<text text-anchor="start" x="985" y="-352.8" font-family="arial" font-size="14.00" fill="#377eb8">true</text>
</g>
<!-- st02&#45;&gt;st02 -->
<g id="edge8" class="edge">
<title>st02&#45;&gt;st02</title>
<path fill="none" stroke="#000000" d="M1278.4497,-265.1756C1277.603,-274.9095 1283.9531,-283 1297.5,-283 1305.9668,-283 1311.6224,-279.8397 1314.4667,-275.093"/>
<polygon fill="#000000" stroke="#000000" points="1317.9193,-275.6816 1316.5503,-265.1756 1311.0689,-274.2423 1317.9193,-275.6816"/>
<text text-anchor="start" x="1285" y="-286.8" font-family="arial" font-size="14.00" fill="#377eb8">true</text>
</g>
<!-- st02&#45;&gt;st023X -->
<g id="edge9" class="edge">
<title>st02&#45;&gt;st023X</title>
<path fill="none" stroke="#000000" d="M1251.9594,-214.9914C1239.748,-208.5645 1226.471,-201.8249 1214,-196 1198.4834,-188.7525 1181.6161,-181.4707 1165.513,-174.7936"/>
<polygon fill="#000000" stroke="#000000" points="1166.7157,-171.5038 1156.136,-170.9369 1164.053,-177.9776 1166.7157,-171.5038"/>
<text text-anchor="start" x="1181.5" y="-214.8" font-family="arial" font-size="14.00" fill="#377eb8">true</text>
<text text-anchor="start" x="1174" y="-199.8" font-family="arial" font-size="14.00" fill="#000000">c0 :=0</text>
</g>
<!-- st02&#45;&gt;st0123X -->
<g id="edge11" class="edge">
<title>st02&#45;&gt;st0123X</title>
<path fill="none" stroke="#000000" d="M1231.6695,-241.8449C1161.2671,-243.818 1049.9524,-246.9376 977.195,-248.9767"/>
<polygon fill="#000000" stroke="#000000" points="977.0908,-245.4781 967.1928,-249.257 977.287,-252.4754 977.0908,-245.4781"/>
<text text-anchor="start" x="1079.5" y="-265.8" font-family="arial" font-size="14.00" fill="#377eb8">true</text>
<text text-anchor="start" x="1072" y="-250.8" font-family="arial" font-size="14.00" fill="#000000">c0 :=0</text>
</g>
<!-- st023X&#45;&gt;st0 -->
<g id="edge22" class="edge">
<title>st023X&#45;&gt;st0</title>
<path fill="none" stroke="#000000" d="M1036.401,-120.9351C966.7582,-90.4468 850.9899,-43 805,-43 312,-43 312,-43 312,-43 234.6244,-43 176.6267,-127.2071 149.5021,-176.0313"/>
<polygon fill="#000000" stroke="#000000" points="146.3303,-174.5384 144.6454,-184.9984 152.4855,-177.8722 146.3303,-174.5384"/>
<text text-anchor="start" x="601.5" y="-46.8" font-family="arial" font-size="14.00" fill="#377eb8">R&#39;</text>
</g>
<!-- st023X&#45;&gt;st012 -->
<g id="edge25" class="edge">
<title>st023X&#45;&gt;st012</title>
<path fill="none" stroke="#000000" d="M1027.7976,-138.5389C977.2208,-134.2029 905.1239,-131.4423 843,-142 818.5648,-146.1527 792.7135,-154.1093 769.9651,-162.4224"/>
<polygon fill="#000000" stroke="#000000" points="768.5566,-159.2125 760.419,-165.997 771.0113,-165.768 768.5566,-159.2125"/>
<text text-anchor="start" x="892.5" y="-145.8" font-family="arial" font-size="14.00" fill="#377eb8">true</text>
</g>
<!-- st023X&#45;&gt;st02 -->
<g id="edge23" class="edge">
<title>st023X&#45;&gt;st02</title>
<path fill="none" stroke="#000000" d="M1156.2081,-144.9329C1175.5078,-146.668 1196.2549,-150.6854 1214,-159 1237.155,-169.8495 1257.8305,-189.7797 1272.8153,-207.1549"/>
<polygon fill="#000000" stroke="#000000" points="1270.1956,-209.4783 1279.2883,-214.9165 1275.5714,-204.995 1270.1956,-209.4783"/>
<text text-anchor="start" x="1181.5" y="-162.8" font-family="arial" font-size="14.00" fill="#377eb8">true</text>
</g>
<!-- st023X&#45;&gt;st023X -->
<g id="edge24" class="edge">
<title>st023X&#45;&gt;st023X</title>
<path fill="none" stroke="#000000" d="M1074.4438,-171.1756C1073.6636,-180.9095 1079.5156,-189 1092,-189 1099.8027,-189 1105.0147,-185.8397 1107.6359,-181.093"/>
<polygon fill="#000000" stroke="#000000" points="1111.0913,-181.6586 1109.5562,-171.1756 1104.219,-180.3279 1111.0913,-181.6586"/>
<text text-anchor="start" x="1079.5" y="-192.8" font-family="arial" font-size="14.00" fill="#377eb8">true</text>
</g>
<!-- st023X&#45;&gt;st0123X -->
<g id="edge26" class="edge">
<title>st023X&#45;&gt;st0123X</title>
<path fill="none" stroke="#000000" d="M1056.797,-171.2597C1042.5627,-181.0342 1025.7901,-192.0091 1010,-201 997.5262,-208.1026 983.8827,-215.1164 970.6812,-221.5429"/>
<polygon fill="#000000" stroke="#000000" points="969.129,-218.4056 961.6321,-225.8922 972.1614,-224.7148 969.129,-218.4056"/>
<text text-anchor="start" x="985" y="-216.8" font-family="arial" font-size="14.00" fill="#377eb8">true</text>
</g>
<!-- st0123X&#45;&gt;st0 -->
<g id="edge32" class="edge">
<title>st0123X&#45;&gt;st0</title>
<path fill="none" stroke="#000000" d="M842.7896,-267.8364C836.8085,-269.067 830.8085,-270.1546 825,-271 735.1914,-284.0715 711.7328,-277.9995 621,-280 454.9423,-283.6613 260.2387,-241.6318 175.5113,-221.0151"/>
<polygon fill="#000000" stroke="#000000" points="176.2796,-217.5999 165.7332,-218.6116 174.6086,-224.3975 176.2796,-217.5999"/>
<text text-anchor="start" x="507" y="-282.8" font-family="arial" font-size="14.00" fill="#377eb8">R&#39;</text>
</g>
<!-- st0123X&#45;&gt;st012 -->
<g id="edge35" class="edge">
<title>st0123X&#45;&gt;st012</title>
<path fill="none" stroke="#000000" d="M865.1374,-225.9917C852.6905,-219.1785 838.6392,-212.4568 825,-208 809.9926,-203.0962 793.4945,-199.6069 777.6137,-197.1241"/>
<polygon fill="#000000" stroke="#000000" points="777.6864,-193.5984 767.2888,-195.6332 776.6859,-200.5265 777.6864,-193.5984"/>
<text text-anchor="start" x="792.5" y="-211.8" font-family="arial" font-size="14.00" fill="#377eb8">true</text>
</g>
<!-- st0123X&#45;&gt;st02 -->
<g id="edge33" class="edge">
<title>st0123X&#45;&gt;st02</title>
<path fill="none" stroke="#000000" d="M967.0421,-269.1903C986.3905,-274.0337 1007.9228,-278.5869 1028,-281 1084.4824,-287.7886 1099.6758,-288.9956 1156,-281 1177.7512,-277.9123 1200.8363,-272.2807 1221.9114,-266.1601"/>
<polygon fill="#000000" stroke="#000000" points="1223.177,-269.435 1231.7599,-263.2234 1221.1767,-262.7269 1223.177,-269.435"/>
<text text-anchor="start" x="1079.5" y="-289.8" font-family="arial" font-size="14.00" fill="#377eb8">true</text>
</g>
<!-- st0123X&#45;&gt;st023X -->
<g id="edge34" class="edge">
<title>st0123X&#45;&gt;st023X</title>
<path fill="none" stroke="#000000" d="M950.5949,-225.8691C956.4545,-221.6475 962.1069,-216.9973 967,-212 977.8785,-200.8898 972.8846,-191.7465 985,-182 994.8208,-174.0994 1006.4596,-167.8964 1018.3834,-163.0367"/>
<polygon fill="#000000" stroke="#000000" points="1019.8548,-166.2225 1027.9778,-159.4205 1017.386,-159.6723 1019.8548,-166.2225"/>
<text text-anchor="start" x="985" y="-185.8" font-family="arial" font-size="14.00" fill="#377eb8">true</text>
</g>
<!-- st0123X&#45;&gt;st0123X -->
<g id="edge36" class="edge">
<title>st0123X&#45;&gt;st0123X</title>
<path fill="none" stroke="#000000" d="M887.8174,-276.1756C887.0537,-285.9095 892.7813,-294 905,-294 912.6367,-294 917.7378,-290.8397 920.3033,-286.093"/>
<polygon fill="#000000" stroke="#000000" points="923.7595,-286.6525 922.1826,-276.1756 916.8819,-285.3491 923.7595,-286.6525"/>
<text text-anchor="start" x="892.5" y="-297.8" font-family="arial" font-size="14.00" fill="#377eb8">true</text>
</g>
<!-- st023W&#45;&gt;st0 -->
<g id="edge17" class="edge">
<title>st023W&#45;&gt;st0</title>
<path fill="none" stroke="#000000" d="M449.7407,-369.2715C394.9266,-385.3695 314.9191,-399.8408 250,-375 193.4431,-353.359 159.8089,-286.1782 143.8488,-244.5125"/>
<polygon fill="#000000" stroke="#000000" points="147.0922,-243.1916 140.3484,-235.0202 140.5245,-245.6136 147.0922,-243.1916"/>
<text text-anchor="start" x="305" y="-391.8" font-family="arial" font-size="14.00" fill="#377eb8">R&#39;</text>
</g>
<!-- st023W&#45;&gt;st012 -->
<g id="edge20" class="edge">
<title>st023W&#45;&gt;st012</title>
<path fill="none" stroke="#000000" d="M557.8126,-320.9232C564.7233,-316.5096 571.6703,-311.7887 578,-307 612.0213,-281.2613 647.346,-247.7466 671.7283,-223.364"/>
<polygon fill="#000000" stroke="#000000" points="674.3692,-225.6717 678.9303,-216.1089 669.4013,-220.7401 674.3692,-225.6717"/>
<text text-anchor="start" x="596" y="-295.8" font-family="arial" font-size="14.00" fill="#377eb8">true</text>
</g>
<!-- st023W&#45;&gt;st0123W -->
<g id="edge21" class="edge">
<title>st023W&#45;&gt;st0123W</title>
<path fill="none" stroke="#000000" d="M449.6919,-334.6394C431.0665,-331.2852 410.7119,-327.558 392,-324 389.5041,-323.5254 386.9651,-323.0388 384.4015,-322.5441"/>
<polygon fill="#000000" stroke="#000000" points="384.9137,-319.0782 374.4294,-320.6048 383.5774,-325.9495 384.9137,-319.0782"/>
<text text-anchor="start" x="392" y="-333.8" font-family="arial" font-size="14.00" fill="#377eb8">c0 &lt; 5</text>
</g>
<!-- st023W&#45;&gt;st02 -->
<g id="edge18" class="edge">
<title>st023W&#45;&gt;st02</title>
<path fill="none" stroke="#000000" d="M578.3448,-368.1298C614.5208,-378.6658 660.768,-389 703,-389 703,-389 703,-389 1092,-389 1170.2461,-389 1238.8089,-317.3229 1273.48,-273.3965"/>
<polygon fill="#000000" stroke="#000000" points="1276.41,-275.3288 1279.7548,-265.2758 1270.8709,-271.0488 1276.41,-275.3288"/>
<text text-anchor="start" x="892.5" y="-392.8" font-family="arial" font-size="14.00" fill="#377eb8">true</text>
</g>
<!-- st023W&#45;&gt;st023W -->
<g id="edge19" class="edge">
<title>st023W&#45;&gt;st023W</title>
<path fill="none" stroke="#000000" d="M496.4438,-371.1756C495.6636,-380.9095 501.5156,-389 514,-389 521.8027,-389 527.0147,-385.8397 529.6359,-381.093"/>
<polygon fill="#000000" stroke="#000000" points="533.0913,-381.6586 531.5562,-371.1756 526.219,-380.3279 533.0913,-381.6586"/>
<text text-anchor="start" x="494" y="-392.8" font-family="arial" font-size="14.00" fill="#377eb8">c0 &lt; 5</text>
</g>
</g>
</svg>
