<?xml version="1.0" encoding="UTF-8" standalone="no"?>
<!DOCTYPE svg PUBLIC "-//W3C//DTD SVG 1.1//EN"
 "http://www.w3.org/Graphics/SVG/1.1/DTD/svg11.dtd">
<!-- Generated by graphviz version 2.43.0 (0)
 -->
<!-- Title: G Pages: 1 -->
<svg width="1674pt" height="791pt"
 viewBox="0.00 0.00 1674.00 791.37" xmlns="http://www.w3.org/2000/svg" xmlns:xlink="http://www.w3.org/1999/xlink">
<g id="graph0" class="graph" transform="scale(1 1) rotate(0) translate(4 787.37)">
<title>G</title>
<polygon fill="white" stroke="transparent" points="-4,4 -4,-787.37 1670,-787.37 1670,4 -4,4"/>
<!-- _ID_66_ct0_st0 -->
<!-- ID_66_ct0_st0 -->
<g id="node2" class="node">
<title>ID_66_ct0_st0</title>
<polygon fill="none" stroke="black" points="261,-552.37 154,-552.37 154,-502.37 261,-502.37 261,-552.37"/>
<text text-anchor="start" x="162" y="-538.17" font-family="arial" font-weight="bold" font-size="14.00">ID_66_ct0_st0</text>
<text text-anchor="start" x="199.5" y="-524.17" font-family="arial" font-size="14.00" fill="#984ea3">!Q</text>
<text text-anchor="start" x="195.5" y="-510.17" font-family="arial" font-size="14.00" fill="#ff7f00">true</text>
</g>
<!-- _ID_66_ct0_st0&#45;&gt;ID_66_ct0_st0 -->
<g id="edge1" class="edge">
<title>_ID_66_ct0_st0&#45;&gt;ID_66_ct0_st0</title>
<path fill="none" stroke="black" d="M111.08,-527.37C121.62,-527.37 132.74,-527.37 143.52,-527.37"/>
<polygon fill="black" stroke="black" points="143.72,-530.87 153.72,-527.37 143.72,-523.87 143.72,-530.87"/>
</g>
<!-- ID_66_ct0_st0&#45;&gt;ID_66_ct0_st0 -->
<g id="edge5" class="edge">
<title>ID_66_ct0_st0&#45;&gt;ID_66_ct0_st0</title>
<path fill="none" stroke="black" d="M192.93,-552.55C192.28,-562.28 197.14,-570.37 207.5,-570.37 213.97,-570.37 218.3,-567.21 220.47,-562.47"/>
<polygon fill="black" stroke="black" points="223.94,-562.98 222.07,-552.55 217.03,-561.87 223.94,-562.98"/>
<text text-anchor="start" x="195.5" y="-574.17" font-family="arial" font-size="14.00" fill="#377eb8">true</text>
</g>
<!-- ID_66_ct0_st01 -->
<g id="node4" class="node">
<title>ID_66_ct0_st01</title>
<polygon fill="none" stroke="black" points="441,-332.37 327,-332.37 327,-282.37 441,-282.37 441,-332.37"/>
<text text-anchor="start" x="335" y="-318.17" font-family="arial" font-weight="bold" font-size="14.00">ID_66_ct0_st01</text>
<text text-anchor="start" x="356" y="-304.17" font-family="arial" font-size="14.00" fill="#984ea3">(Q &amp;&amp; R)</text>
<text text-anchor="start" x="372" y="-290.17" font-family="arial" font-size="14.00" fill="#ff7f00">true</text>
</g>
<!-- ID_66_ct0_st0&#45;&gt;ID_66_ct0_st01 -->
<g id="edge6" class="edge">
<title>ID_66_ct0_st0&#45;&gt;ID_66_ct0_st01</title>
<path fill="none" stroke="black" d="M218,-502.27C230.3,-471.91 253.91,-420.3 285,-383.37 299.18,-366.53 317.67,-351.01 334.76,-338.45"/>
<polygon fill="black" stroke="black" points="336.93,-341.21 343.02,-332.53 332.85,-335.52 336.93,-341.21"/>
<text text-anchor="start" x="285" y="-387.17" font-family="arial" font-size="14.00" fill="#377eb8">true</text>
</g>
<!-- ID_66_ct0_st012 -->
<g id="node6" class="node">
<title>ID_66_ct0_st012</title>
<polygon fill="none" stroke="black" points="1666,-468.37 1543,-468.37 1543,-418.37 1666,-418.37 1666,-468.37"/>
<text text-anchor="start" x="1551.5" y="-454.17" font-family="arial" font-weight="bold" font-size="14.00">ID_66_ct0_st012</text>
<text text-anchor="start" x="1551" y="-440.17" font-family="arial" font-size="14.00" fill="#984ea3">(Q &amp;&amp; (!R &amp;&amp; !S))</text>
<text text-anchor="start" x="1592.5" y="-426.17" font-family="arial" font-size="14.00" fill="#ff7f00">true</text>
</g>
<!-- ID_66_ct0_st0&#45;&gt;ID_66_ct0_st012 -->
<g id="edge7" class="edge">
<title>ID_66_ct0_st0&#45;&gt;ID_66_ct0_st012</title>
<path fill="none" stroke="black" d="M209.88,-552.69C213.78,-598.07 228.6,-693.28 285,-744.37 318.24,-774.48 338.16,-768.37 383,-768.37 383,-768.37 383,-768.37 1404.5,-768.37 1459.11,-768.37 1485.27,-781.84 1525,-744.37 1563.58,-707.98 1589.17,-550.24 1598.99,-478.78"/>
<polygon fill="black" stroke="black" points="1602.51,-478.87 1600.38,-468.49 1595.58,-477.93 1602.51,-478.87"/>
<text text-anchor="start" x="897" y="-772.17" font-family="arial" font-size="14.00" fill="#377eb8">true</text>
</g>
<!-- ID_66_ct0_st0123W -->
<g id="node8" class="node">
<title>ID_66_ct0_st0123W</title>
<polygon fill="none" stroke="black" points="879,-471.37 736,-471.37 736,-421.37 879,-421.37 879,-471.37"/>
<text text-anchor="start" x="744" y="-457.17" font-family="arial" font-weight="bold" font-size="14.00">ID_66_ct0_st0123W</text>
<text text-anchor="start" x="756" y="-443.17" font-family="arial" font-size="14.00" fill="#984ea3">(Q &amp;&amp; (!R &amp;&amp; S))</text>
<text text-anchor="start" x="784.5" y="-429.17" font-family="arial" font-size="14.00" fill="#ff7f00">c0 &lt;= 5</text>
</g>
<!-- ID_66_ct0_st0&#45;&gt;ID_66_ct0_st0123W -->
<g id="edge8" class="edge">
<title>ID_66_ct0_st0&#45;&gt;ID_66_ct0_st0123W</title>
<path fill="none" stroke="black" d="M261.08,-536.92C346.88,-550.49 521.52,-569.6 662,-530.37 700.12,-519.73 738.64,-496.58 766.31,-477.28"/>
<polygon fill="black" stroke="black" points="768.41,-480.07 774.53,-471.43 764.36,-474.37 768.41,-480.07"/>
<text text-anchor="start" x="466" y="-572.17" font-family="arial" font-size="14.00" fill="#377eb8">true</text>
<text text-anchor="start" x="459" y="-557.17" font-family="arial" font-size="14.00">c0 :=0</text>
</g>
<!-- _ID_66_ct0_st01 -->
<!-- _ID_66_ct0_st01&#45;&gt;ID_66_ct0_st01 -->
<g id="edge2" class="edge">
<title>_ID_66_ct0_st01&#45;&gt;ID_66_ct0_st01</title>
<path fill="none" stroke="black" d="M267.09,-307.37C283.08,-307.37 300.51,-307.37 316.89,-307.37"/>
<polygon fill="black" stroke="black" points="316.93,-310.87 326.93,-307.37 316.93,-303.87 316.93,-310.87"/>
</g>
<!-- ID_66_ct0_st01&#45;&gt;ID_66_ct0_st0 -->
<g id="edge9" class="edge">
<title>ID_66_ct0_st01&#45;&gt;ID_66_ct0_st0</title>
<path fill="none" stroke="black" d="M362.95,-332.65C331.32,-372.52 269.86,-450.02 234.75,-494.28"/>
<polygon fill="black" stroke="black" points="231.99,-492.13 228.52,-502.14 237.47,-496.48 231.99,-492.13"/>
<text text-anchor="start" x="290.5" y="-434.17" font-family="arial" font-size="14.00" fill="#377eb8">R&#39;</text>
</g>
<!-- ID_66_ct0_st01&#45;&gt;ID_66_ct0_st01 -->
<g id="edge12" class="edge">
<title>ID_66_ct0_st01&#45;&gt;ID_66_ct0_st01</title>
<path fill="none" stroke="black" d="M367.94,-332.55C367.22,-342.28 372.58,-350.37 384,-350.37 391.14,-350.37 395.91,-347.21 398.31,-342.47"/>
<polygon fill="black" stroke="black" points="401.76,-343.01 400.06,-332.55 394.87,-341.78 401.76,-343.01"/>
<text text-anchor="start" x="372" y="-354.17" font-family="arial" font-size="14.00" fill="#377eb8">true</text>
</g>
<!-- ID_66_ct0_st01&#45;&gt;ID_66_ct0_st012 -->
<g id="edge13" class="edge">
<title>ID_66_ct0_st01&#45;&gt;ID_66_ct0_st012</title>
<path fill="none" stroke="black" d="M400.4,-282.08C413.88,-261.56 435.01,-232.92 459,-213.37 480.57,-195.79 488.14,-192.65 515,-185.37 924.23,-74.41 1054.12,-92.86 1469,-180.37 1495.01,-185.86 1506.63,-182.16 1525,-201.37 1580.25,-259.17 1596.61,-356.24 1601.46,-408.13"/>
<polygon fill="black" stroke="black" points="1597.98,-408.52 1602.31,-418.19 1604.96,-407.93 1597.98,-408.52"/>
<text text-anchor="start" x="990.5" y="-116.17" font-family="arial" font-size="14.00" fill="#377eb8">true</text>
</g>
<!-- ID_66_ct0_st01&#45;&gt;ID_66_ct0_st0123W -->
<g id="edge14" class="edge">
<title>ID_66_ct0_st01&#45;&gt;ID_66_ct0_st0123W</title>
<path fill="none" stroke="black" d="M420.22,-332.59C432.09,-340.17 445.71,-347.92 459,-353.37 544.58,-388.5 572.81,-374.82 662,-399.37 682.97,-405.15 705.42,-412.07 726.22,-418.82"/>
<polygon fill="black" stroke="black" points="725.37,-422.22 735.97,-422 727.55,-415.57 725.37,-422.22"/>
<text text-anchor="start" x="576.5" y="-418.17" font-family="arial" font-size="14.00" fill="#377eb8">true</text>
<text text-anchor="start" x="569.5" y="-403.17" font-family="arial" font-size="14.00">c0 :=0</text>
</g>
<!-- ID_66_ct0_st02 -->
<g id="node9" class="node">
<title>ID_66_ct0_st02</title>
<polygon fill="none" stroke="black" points="1066,-369.37 939,-369.37 939,-319.37 1066,-319.37 1066,-369.37"/>
<text text-anchor="start" x="953.5" y="-355.17" font-family="arial" font-weight="bold" font-size="14.00">ID_66_ct0_st02</text>
<text text-anchor="start" x="947" y="-341.17" font-family="arial" font-size="14.00" fill="#984ea3">(!Q &amp;&amp; (!R &amp;&amp; !S))</text>
<text text-anchor="start" x="990.5" y="-327.17" font-family="arial" font-size="14.00" fill="#ff7f00">true</text>
</g>
<!-- ID_66_ct0_st01&#45;&gt;ID_66_ct0_st02 -->
<g id="edge10" class="edge">
<title>ID_66_ct0_st01&#45;&gt;ID_66_ct0_st02</title>
<path fill="none" stroke="black" d="M441.07,-284.36C447.06,-282.44 453.11,-280.73 459,-279.37 659.12,-233.36 730.42,-207.91 921,-284.37 937.48,-290.98 953.59,-301.83 967.01,-312.5"/>
<polygon fill="black" stroke="black" points="965.06,-315.43 975.01,-319.08 969.51,-310.02 965.06,-315.43"/>
<text text-anchor="start" x="687" y="-240.17" font-family="arial" font-size="14.00" fill="#377eb8">true</text>
</g>
<!-- ID_66_ct0_st023W -->
<g id="node10" class="node">
<title>ID_66_ct0_st023W</title>
<polygon fill="none" stroke="black" points="656,-488.37 521,-488.37 521,-438.37 656,-438.37 656,-488.37"/>
<text text-anchor="start" x="529" y="-474.17" font-family="arial" font-weight="bold" font-size="14.00">ID_66_ct0_st023W</text>
<text text-anchor="start" x="535" y="-460.17" font-family="arial" font-size="14.00" fill="#984ea3">(!Q &amp;&amp; (!R &amp;&amp; S))</text>
<text text-anchor="start" x="565.5" y="-446.17" font-family="arial" font-size="14.00" fill="#ff7f00">c0 &lt;= 5</text>
</g>
<!-- ID_66_ct0_st01&#45;&gt;ID_66_ct0_st023W -->
<g id="edge11" class="edge">
<title>ID_66_ct0_st01&#45;&gt;ID_66_ct0_st023W</title>
<path fill="none" stroke="black" d="M391.9,-332.44C401.62,-362.79 422.39,-413.11 459,-439.37 474.02,-450.14 492.48,-456.49 510.68,-460.14"/>
<polygon fill="black" stroke="black" points="510.28,-463.62 520.74,-461.9 511.49,-456.73 510.28,-463.62"/>
<text text-anchor="start" x="466" y="-474.17" font-family="arial" font-size="14.00" fill="#377eb8">true</text>
<text text-anchor="start" x="459" y="-459.17" font-family="arial" font-size="14.00">c0 :=0</text>
</g>
<!-- _ID_66_ct0_st012 -->
<!-- _ID_66_ct0_st012&#45;&gt;ID_66_ct0_st012 -->
<g id="edge3" class="edge">
<title>_ID_66_ct0_st012&#45;&gt;ID_66_ct0_st012</title>
<path fill="none" stroke="black" d="M1466.72,-609.66C1486.9,-605.06 1508.34,-597.33 1525,-584.37 1559.77,-557.32 1581.44,-510.31 1592.99,-478.06"/>
<polygon fill="black" stroke="black" points="1596.31,-479.16 1596.25,-468.56 1589.69,-476.89 1596.31,-479.16"/>
</g>
<!-- ID_66_ct0_st012&#45;&gt;ID_66_ct0_st0 -->
<g id="edge21" class="edge">
<title>ID_66_ct0_st012&#45;&gt;ID_66_ct0_st0</title>
<path fill="none" stroke="black" d="M1598.71,-468.59C1583.79,-538.62 1531.37,-730.37 1404.5,-730.37 383,-730.37 383,-730.37 383,-730.37 295.35,-730.37 242.14,-620.21 220.19,-562.19"/>
<polygon fill="black" stroke="black" points="223.43,-560.85 216.7,-552.67 216.86,-563.27 223.43,-560.85"/>
<text text-anchor="start" x="902.5" y="-734.17" font-family="arial" font-size="14.00" fill="#377eb8">R&#39;</text>
</g>
<!-- ID_66_ct0_st012&#45;&gt;ID_66_ct0_st01 -->
<g id="edge24" class="edge">
<title>ID_66_ct0_st012&#45;&gt;ID_66_ct0_st01</title>
<path fill="none" stroke="black" d="M1601.56,-418.13C1593.77,-336.41 1557.36,-84.37 1404.5,-84.37 587.5,-84.37 587.5,-84.37 587.5,-84.37 486.98,-84.37 423.25,-210.09 397.73,-272.74"/>
<polygon fill="black" stroke="black" points="394.4,-271.64 393.96,-282.22 400.9,-274.22 394.4,-271.64"/>
<text text-anchor="start" x="990.5" y="-88.17" font-family="arial" font-size="14.00" fill="#377eb8">true</text>
</g>
<!-- ID_66_ct0_st012&#45;&gt;ID_66_ct0_st012 -->
<g id="edge25" class="edge">
<title>ID_66_ct0_st012&#45;&gt;ID_66_ct0_st012</title>
<path fill="none" stroke="black" d="M1586.2,-468.55C1585.38,-478.28 1591.48,-486.37 1604.5,-486.37 1612.63,-486.37 1618.07,-483.21 1620.8,-478.47"/>
<polygon fill="black" stroke="black" points="1624.26,-479.04 1622.8,-468.55 1617.39,-477.66 1624.26,-479.04"/>
<text text-anchor="start" x="1592.5" y="-490.17" font-family="arial" font-size="14.00" fill="#377eb8">true</text>
</g>
<!-- ID_66_ct0_st012&#45;&gt;ID_66_ct0_st02 -->
<g id="edge22" class="edge">
<title>ID_66_ct0_st012&#45;&gt;ID_66_ct0_st02</title>
<path fill="none" stroke="black" d="M1542.83,-448.95C1452.92,-455.31 1279.86,-460.22 1140,-420.37 1106.49,-410.82 1072.23,-391.72 1046.42,-375.05"/>
<polygon fill="black" stroke="black" points="1048.28,-372.09 1038,-369.51 1044.43,-377.93 1048.28,-372.09"/>
<text text-anchor="start" x="1296" y="-453.17" font-family="arial" font-size="14.00" fill="#377eb8">true</text>
</g>
<!-- ID_66_ct0_st023X -->
<g id="node11" class="node">
<title>ID_66_ct0_st023X</title>
<polygon fill="none" stroke="black" points="1469,-239.37 1338,-239.37 1338,-189.37 1469,-189.37 1469,-239.37"/>
<text text-anchor="start" x="1346" y="-225.17" font-family="arial" font-weight="bold" font-size="14.00">ID_66_ct0_st023X</text>
<text text-anchor="start" x="1350" y="-211.17" font-family="arial" font-size="14.00" fill="#984ea3">(!Q &amp;&amp; (!R &amp;&amp; S))</text>
<text text-anchor="start" x="1384.5" y="-197.17" font-family="arial" font-size="14.00" fill="#ff7f00">c0 &lt; 5</text>
</g>
<!-- ID_66_ct0_st012&#45;&gt;ID_66_ct0_st023X -->
<g id="edge23" class="edge">
<title>ID_66_ct0_st012&#45;&gt;ID_66_ct0_st023X</title>
<path fill="none" stroke="black" d="M1598.74,-418.3C1590.29,-380.24 1569.23,-307.72 1525,-264.37 1512.03,-251.66 1495.38,-242.01 1478.61,-234.75"/>
<polygon fill="black" stroke="black" points="1479.88,-231.49 1469.3,-230.95 1477.24,-237.97 1479.88,-231.49"/>
<text text-anchor="start" x="1494" y="-283.17" font-family="arial" font-size="14.00" fill="#377eb8">true</text>
<text text-anchor="start" x="1487" y="-268.17" font-family="arial" font-size="14.00">c0 :=0</text>
</g>
<!-- ID_66_ct0_st0123X -->
<g id="node12" class="node">
<title>ID_66_ct0_st0123X</title>
<polygon fill="none" stroke="black" points="1278,-264.37 1140,-264.37 1140,-214.37 1278,-214.37 1278,-264.37"/>
<text text-anchor="start" x="1148" y="-250.17" font-family="arial" font-weight="bold" font-size="14.00">ID_66_ct0_st0123X</text>
<text text-anchor="start" x="1157.5" y="-236.17" font-family="arial" font-size="14.00" fill="#984ea3">(Q &amp;&amp; (!R &amp;&amp; S))</text>
<text text-anchor="start" x="1190" y="-222.17" font-family="arial" font-size="14.00" fill="#ff7f00">c0 &lt; 5</text>
</g>
<!-- ID_66_ct0_st012&#45;&gt;ID_66_ct0_st0123X -->
<g id="edge26" class="edge">
<title>ID_66_ct0_st012&#45;&gt;ID_66_ct0_st0123X</title>
<path fill="none" stroke="black" d="M1569.28,-418.16C1555.58,-408.17 1539.61,-396.63 1525,-386.37 1500.38,-369.09 1495.44,-362.72 1469,-348.37 1410.27,-316.5 1340.24,-287.53 1287.82,-267.48"/>
<polygon fill="black" stroke="black" points="1288.83,-264.12 1278.24,-263.84 1286.34,-270.66 1288.83,-264.12"/>
<text text-anchor="start" x="1391.5" y="-367.17" font-family="arial" font-size="14.00" fill="#377eb8">true</text>
<text text-anchor="start" x="1384.5" y="-352.17" font-family="arial" font-size="14.00">c0 :=0</text>
</g>
<!-- _ID_66_ct0_st0123W -->
<!-- _ID_66_ct0_st0123W&#45;&gt;ID_66_ct0_st0123W -->
<g id="edge4" class="edge">
<title>_ID_66_ct0_st0123W&#45;&gt;ID_66_ct0_st0123W</title>
<path fill="none" stroke="black" d="M662.33,-586.66C682.16,-581.36 702.43,-572.89 718,-559.37 733.03,-546.32 724.86,-534.86 736,-518.37 745.57,-504.21 758.11,-490.37 769.95,-478.66"/>
<polygon fill="black" stroke="black" points="772.44,-481.13 777.2,-471.67 767.58,-476.09 772.44,-481.13"/>
</g>
<!-- ID_66_ct0_st0123W&#45;&gt;ID_66_ct0_st0 -->
<g id="edge39" class="edge">
<title>ID_66_ct0_st0123W&#45;&gt;ID_66_ct0_st0</title>
<path fill="none" stroke="black" d="M775.39,-471.64C761.55,-484.35 746.13,-500.79 736,-518.37 721.04,-544.35 735.33,-558.91 718,-583.37 700.47,-608.12 690.94,-613.29 662,-622.37 521.67,-666.42 350.46,-599.09 264.06,-557.01"/>
<polygon fill="black" stroke="black" points="265.48,-553.8 254.96,-552.52 262.38,-560.08 265.48,-553.8"/>
<text text-anchor="start" x="471.5" y="-635.17" font-family="arial" font-size="14.00" fill="#377eb8">R&#39;</text>
</g>
<!-- ID_66_ct0_st0123W&#45;&gt;ID_66_ct0_st01 -->
<g id="edge42" class="edge">
<title>ID_66_ct0_st0123W&#45;&gt;ID_66_ct0_st01</title>
<path fill="none" stroke="black" d="M744.39,-421.32C741.51,-419.73 738.7,-418.08 736,-416.37 726.96,-410.65 726.06,-407.41 718,-400.37 693.3,-378.82 691.73,-366.18 662,-352.37 594.68,-321.1 509.38,-311.11 451.35,-308.15"/>
<polygon fill="black" stroke="black" points="451.35,-304.65 441.2,-307.69 451.03,-311.64 451.35,-304.65"/>
<text text-anchor="start" x="576.5" y="-356.17" font-family="arial" font-size="14.00" fill="#377eb8">true</text>
</g>
<!-- ID_66_ct0_st0123W&#45;&gt;ID_66_ct0_st012 -->
<g id="edge43" class="edge">
<title>ID_66_ct0_st0123W&#45;&gt;ID_66_ct0_st012</title>
<path fill="none" stroke="black" d="M844.34,-471.56C881.74,-495.33 943,-527.37 1001.5,-527.37 1001.5,-527.37 1001.5,-527.37 1404.5,-527.37 1461.33,-527.37 1520.61,-497.94 1559.52,-473.92"/>
<polygon fill="black" stroke="black" points="1561.4,-476.87 1567.99,-468.58 1557.67,-470.95 1561.4,-476.87"/>
<text text-anchor="start" x="1197" y="-531.17" font-family="arial" font-size="14.00" fill="#377eb8">true</text>
</g>
<!-- ID_66_ct0_st0123W&#45;&gt;ID_66_ct0_st0123W -->
<g id="edge44" class="edge">
<title>ID_66_ct0_st0123W&#45;&gt;ID_66_ct0_st0123W</title>
<path fill="none" stroke="black" d="M788.82,-471.55C787.99,-481.28 794.22,-489.37 807.5,-489.37 815.8,-489.37 821.35,-486.21 824.13,-481.47"/>
<polygon fill="black" stroke="black" points="827.59,-482.05 826.18,-471.55 820.73,-480.64 827.59,-482.05"/>
<text text-anchor="start" x="788.5" y="-493.17" font-family="arial" font-size="14.00" fill="#377eb8">c0 &lt; 5</text>
</g>
<!-- ID_66_ct0_st0123W&#45;&gt;ID_66_ct0_st02 -->
<g id="edge40" class="edge">
<title>ID_66_ct0_st0123W&#45;&gt;ID_66_ct0_st02</title>
<path fill="none" stroke="black" d="M856.21,-421.16C883.1,-406.95 916.86,-389.11 945.06,-374.2"/>
<polygon fill="black" stroke="black" points="946.8,-377.24 954.01,-369.47 943.53,-371.05 946.8,-377.24"/>
<text text-anchor="start" x="897" y="-402.17" font-family="arial" font-size="14.00" fill="#377eb8">true</text>
</g>
<!-- ID_66_ct0_st0123W&#45;&gt;ID_66_ct0_st023W -->
<g id="edge41" class="edge">
<title>ID_66_ct0_st0123W&#45;&gt;ID_66_ct0_st023W</title>
<path fill="none" stroke="black" d="M735.9,-451.9C713.66,-453.65 688.99,-455.58 666.33,-457.35"/>
<polygon fill="black" stroke="black" points="665.78,-453.89 656.08,-458.16 666.32,-460.86 665.78,-453.89"/>
<text text-anchor="start" x="680" y="-459.17" font-family="arial" font-size="14.00" fill="#377eb8">c0 &lt; 5</text>
</g>
<!-- ID_66_ct0_st02&#45;&gt;ID_66_ct0_st0 -->
<g id="edge15" class="edge">
<title>ID_66_ct0_st02&#45;&gt;ID_66_ct0_st0</title>
<path fill="none" stroke="black" d="M987.46,-369.64C966.99,-404.88 926.21,-469.42 879,-513.37 828.03,-560.82 713.84,-629.19 662,-643.37 517.96,-682.79 462.09,-681.04 327,-617.37 295.64,-602.59 264.6,-578.58 242.16,-559.08"/>
<polygon fill="black" stroke="black" points="244.41,-556.39 234.6,-552.39 239.77,-561.63 244.41,-556.39"/>
<text text-anchor="start" x="582" y="-673.17" font-family="arial" font-size="14.00" fill="#377eb8">R&#39;</text>
</g>
<!-- ID_66_ct0_st02&#45;&gt;ID_66_ct0_st01 -->
<g id="edge18" class="edge">
<title>ID_66_ct0_st02&#45;&gt;ID_66_ct0_st01</title>
<path fill="none" stroke="black" d="M938.75,-336.18C870.72,-327.71 758.87,-314.94 662,-309.37 588.78,-305.16 570.34,-307.82 497,-307.37 482.23,-307.28 466.36,-307.25 451.35,-307.24"/>
<polygon fill="black" stroke="black" points="451.12,-303.74 441.12,-307.24 451.12,-310.74 451.12,-303.74"/>
<text text-anchor="start" x="687" y="-316.17" font-family="arial" font-size="14.00" fill="#377eb8">true</text>
</g>
<!-- ID_66_ct0_st02&#45;&gt;ID_66_ct0_st012 -->
<g id="edge19" class="edge">
<title>ID_66_ct0_st02&#45;&gt;ID_66_ct0_st012</title>
<path fill="none" stroke="black" d="M1013.21,-369.6C1025.22,-396.86 1048.55,-438.89 1084,-457.37 1257.79,-547.99 1329.85,-475.6 1525,-457.37 1527.53,-457.14 1530.11,-456.86 1532.7,-456.55"/>
<polygon fill="black" stroke="black" points="1533.32,-460 1542.78,-455.23 1532.41,-453.06 1533.32,-460"/>
<text text-anchor="start" x="1296" y="-501.17" font-family="arial" font-size="14.00" fill="#377eb8">true</text>
</g>
<!-- ID_66_ct0_st02&#45;&gt;ID_66_ct0_st02 -->
<g id="edge16" class="edge">
<title>ID_66_ct0_st02&#45;&gt;ID_66_ct0_st02</title>
<path fill="none" stroke="black" d="M985.32,-369.55C984.55,-379.28 990.28,-387.37 1002.5,-387.37 1010.14,-387.37 1015.24,-384.21 1017.8,-379.47"/>
<polygon fill="black" stroke="black" points="1021.26,-380.02 1019.68,-369.55 1014.38,-378.72 1021.26,-380.02"/>
<text text-anchor="start" x="990.5" y="-391.17" font-family="arial" font-size="14.00" fill="#377eb8">true</text>
</g>
<!-- ID_66_ct0_st02&#45;&gt;ID_66_ct0_st023X -->
<g id="edge17" class="edge">
<title>ID_66_ct0_st02&#45;&gt;ID_66_ct0_st023X</title>
<path fill="none" stroke="black" d="M1066.24,-366.67C1136.56,-387.26 1249.88,-406.57 1320,-347.37 1341.6,-329.14 1324.23,-311.06 1338,-286.37 1345.91,-272.18 1357.06,-258.43 1367.87,-246.81"/>
<polygon fill="black" stroke="black" points="1370.49,-249.14 1374.89,-239.51 1365.44,-244.3 1370.49,-249.14"/>
<text text-anchor="start" x="1197" y="-405.17" font-family="arial" font-size="14.00" fill="#377eb8">true</text>
<text text-anchor="start" x="1190" y="-390.17" font-family="arial" font-size="14.00">c0 :=0</text>
</g>
<!-- ID_66_ct0_st02&#45;&gt;ID_66_ct0_st0123X -->
<g id="edge20" class="edge">
<title>ID_66_ct0_st02&#45;&gt;ID_66_ct0_st0123X</title>
<path fill="none" stroke="black" d="M1017.74,-319.03C1031.59,-297.06 1054.78,-266.47 1084,-251.37 1097.87,-244.21 1113.78,-240.13 1129.47,-237.96"/>
<polygon fill="black" stroke="black" points="1130.19,-241.41 1139.73,-236.81 1129.4,-234.45 1130.19,-241.41"/>
<text text-anchor="start" x="1091" y="-270.17" font-family="arial" font-size="14.00" fill="#377eb8">true</text>
<text text-anchor="start" x="1084" y="-255.17" font-family="arial" font-size="14.00">c0 :=0</text>
</g>
<!-- ID_66_ct0_st023W&#45;&gt;ID_66_ct0_st0 -->
<g id="edge27" class="edge">
<title>ID_66_ct0_st023W&#45;&gt;ID_66_ct0_st0</title>
<path fill="none" stroke="black" d="M520.57,-483.8C512.66,-485.86 504.68,-487.77 497,-489.37 420.02,-505.41 329.99,-515.99 271.25,-521.83"/>
<polygon fill="black" stroke="black" points="270.62,-518.37 261.01,-522.82 271.3,-525.34 270.62,-518.37"/>
<text text-anchor="start" x="377.5" y="-519.17" font-family="arial" font-size="14.00" fill="#377eb8">R&#39;</text>
</g>
<!-- ID_66_ct0_st023W&#45;&gt;ID_66_ct0_st01 -->
<g id="edge30" class="edge">
<title>ID_66_ct0_st023W&#45;&gt;ID_66_ct0_st01</title>
<path fill="none" stroke="black" d="M534.77,-438.26C500.06,-421.67 460.71,-402.75 459,-401.37 437.98,-384.49 419.26,-360.56 405.9,-341.08"/>
<polygon fill="black" stroke="black" points="408.8,-339.12 400.33,-332.75 402.98,-343.01 408.8,-339.12"/>
<text text-anchor="start" x="466" y="-422.17" font-family="arial" font-size="14.00" fill="#377eb8">true</text>
</g>
<!-- ID_66_ct0_st023W&#45;&gt;ID_66_ct0_st012 -->
<g id="edge31" class="edge">
<title>ID_66_ct0_st023W&#45;&gt;ID_66_ct0_st012</title>
<path fill="none" stroke="black" d="M618.51,-488.46C658.15,-520.09 732.78,-570.37 806.5,-570.37 806.5,-570.37 806.5,-570.37 1404.5,-570.37 1474.52,-570.37 1539.71,-513.81 1575.34,-476.18"/>
<polygon fill="black" stroke="black" points="1578.25,-478.18 1582.48,-468.46 1573.12,-473.42 1578.25,-478.18"/>
<text text-anchor="start" x="1091" y="-574.17" font-family="arial" font-size="14.00" fill="#377eb8">true</text>
</g>
<!-- ID_66_ct0_st023W&#45;&gt;ID_66_ct0_st0123W -->
<g id="edge32" class="edge">
<title>ID_66_ct0_st023W&#45;&gt;ID_66_ct0_st0123W</title>
<path fill="none" stroke="black" d="M656.26,-441.94C664.19,-440.06 672.23,-438.47 680,-437.37 694.61,-435.31 710.25,-434.95 725.37,-435.54"/>
<polygon fill="black" stroke="black" points="725.56,-439.05 735.73,-436.08 725.93,-432.06 725.56,-439.05"/>
<text text-anchor="start" x="680" y="-441.17" font-family="arial" font-size="14.00" fill="#377eb8">c0 &lt; 5</text>
</g>
<!-- ID_66_ct0_st023W&#45;&gt;ID_66_ct0_st02 -->
<g id="edge28" class="edge">
<title>ID_66_ct0_st023W&#45;&gt;ID_66_ct0_st02</title>
<path fill="none" stroke="black" d="M637.91,-438.22C665.94,-424.51 702.26,-408.19 736,-397.37 799.71,-376.95 874.64,-362.86 928.63,-354.36"/>
<polygon fill="black" stroke="black" points="929.45,-357.78 938.8,-352.79 928.38,-350.86 929.45,-357.78"/>
<text text-anchor="start" x="795.5" y="-401.17" font-family="arial" font-size="14.00" fill="#377eb8">true</text>
</g>
<!-- ID_66_ct0_st023W&#45;&gt;ID_66_ct0_st023W -->
<g id="edge29" class="edge">
<title>ID_66_ct0_st023W&#45;&gt;ID_66_ct0_st023W</title>
<path fill="none" stroke="black" d="M567.96,-488.55C567.04,-498.28 573.89,-506.37 588.5,-506.37 597.63,-506.37 603.73,-503.21 606.8,-498.47"/>
<polygon fill="black" stroke="black" points="610.25,-499.07 609.04,-488.55 603.42,-497.53 610.25,-499.07"/>
<text text-anchor="start" x="569.5" y="-510.17" font-family="arial" font-size="14.00" fill="#377eb8">c0 &lt; 5</text>
</g>
<!-- ID_66_ct0_st023X&#45;&gt;ID_66_ct0_st0 -->
<g id="edge33" class="edge">
<title>ID_66_ct0_st023X&#45;&gt;ID_66_ct0_st0</title>
<path fill="none" stroke="black" d="M1369.26,-189.37C1311.17,-147.08 1185.89,-62.07 1066,-21.37 999.75,1.12 979.96,-0.37 910,-0.37 383,-0.37 383,-0.37 383,-0.37 225.86,-0.37 302.45,-181.28 267,-334.37 253.99,-390.58 233.49,-454.39 220.53,-492.73"/>
<polygon fill="black" stroke="black" points="217.16,-491.78 217.25,-502.37 223.79,-494.03 217.16,-491.78"/>
<text text-anchor="start" x="801" y="-4.17" font-family="arial" font-size="14.00" fill="#377eb8">R&#39;</text>
</g>
<!-- ID_66_ct0_st023X&#45;&gt;ID_66_ct0_st01 -->
<g id="edge36" class="edge">
<title>ID_66_ct0_st023X&#45;&gt;ID_66_ct0_st01</title>
<path fill="none" stroke="black" d="M1337.96,-204.74C1190.12,-184.75 816.48,-145.95 515,-213.37 489.06,-219.17 481.4,-220.06 459,-234.37 441.81,-245.36 425.37,-260.88 412.37,-274.79"/>
<polygon fill="black" stroke="black" points="409.66,-272.56 405.52,-282.31 414.84,-277.27 409.66,-272.56"/>
<text text-anchor="start" x="897" y="-180.17" font-family="arial" font-size="14.00" fill="#377eb8">true</text>
</g>
<!-- ID_66_ct0_st023X&#45;&gt;ID_66_ct0_st012 -->
<g id="edge37" class="edge">
<title>ID_66_ct0_st023X&#45;&gt;ID_66_ct0_st012</title>
<path fill="none" stroke="black" d="M1469.19,-203.77C1488.74,-203.87 1509.19,-207.66 1525,-219.37 1584.82,-263.69 1599.3,-357 1602.65,-408.1"/>
<polygon fill="black" stroke="black" points="1599.17,-408.53 1603.2,-418.32 1606.16,-408.15 1599.17,-408.53"/>
<text text-anchor="start" x="1494" y="-223.17" font-family="arial" font-size="14.00" fill="#377eb8">true</text>
</g>
<!-- ID_66_ct0_st023X&#45;&gt;ID_66_ct0_st02 -->
<g id="edge34" class="edge">
<title>ID_66_ct0_st023X&#45;&gt;ID_66_ct0_st02</title>
<path fill="none" stroke="black" d="M1376.75,-239.53C1353.11,-261.02 1316.08,-290.85 1278,-306.37 1213.2,-332.78 1133.42,-341.45 1076.61,-344.01"/>
<polygon fill="black" stroke="black" points="1076.13,-340.52 1066.27,-344.42 1076.4,-347.52 1076.13,-340.52"/>
<text text-anchor="start" x="1197" y="-342.17" font-family="arial" font-size="14.00" fill="#377eb8">true</text>
</g>
<!-- ID_66_ct0_st023X&#45;&gt;ID_66_ct0_st023X -->
<g id="edge35" class="edge">
<title>ID_66_ct0_st023X&#45;&gt;ID_66_ct0_st023X</title>
<path fill="none" stroke="black" d="M1385.94,-239.55C1385.16,-249.28 1391.02,-257.37 1403.5,-257.37 1411.3,-257.37 1416.51,-254.21 1419.14,-249.47"/>
<polygon fill="black" stroke="black" points="1422.59,-250.03 1421.06,-239.55 1415.72,-248.7 1422.59,-250.03"/>
<text text-anchor="start" x="1391.5" y="-261.17" font-family="arial" font-size="14.00" fill="#377eb8">true</text>
</g>
<!-- ID_66_ct0_st023X&#45;&gt;ID_66_ct0_st0123X -->
<g id="edge38" class="edge">
<title>ID_66_ct0_st023X&#45;&gt;ID_66_ct0_st0123X</title>
<path fill="none" stroke="black" d="M1337.81,-211.45C1323.96,-211.64 1309.45,-212.46 1296,-214.37 1293.35,-214.75 1290.67,-215.19 1287.97,-215.68"/>
<polygon fill="black" stroke="black" points="1287.26,-212.25 1278.15,-217.67 1288.65,-219.11 1287.26,-212.25"/>
<text text-anchor="start" x="1296" y="-218.17" font-family="arial" font-size="14.00" fill="#377eb8">true</text>
</g>
<!-- ID_66_ct0_st0123X&#45;&gt;ID_66_ct0_st0 -->
<g id="edge45" class="edge">
<title>ID_66_ct0_st0123X&#45;&gt;ID_66_ct0_st0</title>
<path fill="none" stroke="black" d="M1196.42,-214.07C1176.38,-173.65 1131.05,-95.68 1066,-62.37 921.02,11.87 862.89,-43.37 700,-43.37 383,-43.37 383,-43.37 383,-43.37 359.1,-43.37 253.15,-381.8 219.09,-492.67"/>
<polygon fill="black" stroke="black" points="215.7,-491.78 216.11,-502.37 222.39,-493.84 215.7,-491.78"/>
<text text-anchor="start" x="692.5" y="-47.17" font-family="arial" font-size="14.00" fill="#377eb8">R&#39;</text>
</g>
<!-- ID_66_ct0_st0123X&#45;&gt;ID_66_ct0_st01 -->
<g id="edge48" class="edge">
<title>ID_66_ct0_st0123X&#45;&gt;ID_66_ct0_st01</title>
<path fill="none" stroke="black" d="M1139.56,-228.31C1099.93,-222.83 1049.03,-217.37 1003.5,-217.37 587.5,-217.37 587.5,-217.37 587.5,-217.37 527.77,-217.37 466.01,-250.48 426.65,-276.53"/>
<polygon fill="black" stroke="black" points="424.43,-273.8 418.11,-282.3 428.36,-279.6 424.43,-273.8"/>
<text text-anchor="start" x="795.5" y="-221.17" font-family="arial" font-size="14.00" fill="#377eb8">true</text>
</g>
<!-- ID_66_ct0_st0123X&#45;&gt;ID_66_ct0_st012 -->
<g id="edge49" class="edge">
<title>ID_66_ct0_st0123X&#45;&gt;ID_66_ct0_st012</title>
<path fill="none" stroke="black" d="M1239.07,-264.48C1251.48,-275.67 1265.88,-289.25 1278,-302.37 1307.21,-333.98 1301.8,-355.1 1338,-378.37 1346.35,-383.74 1457.1,-409.83 1532.89,-427.28"/>
<polygon fill="black" stroke="black" points="1532.35,-430.75 1542.88,-429.58 1533.92,-423.93 1532.35,-430.75"/>
<text text-anchor="start" x="1391.5" y="-415.17" font-family="arial" font-size="14.00" fill="#377eb8">true</text>
</g>
<!-- ID_66_ct0_st0123X&#45;&gt;ID_66_ct0_st02 -->
<g id="edge46" class="edge">
<title>ID_66_ct0_st0123X&#45;&gt;ID_66_ct0_st02</title>
<path fill="none" stroke="black" d="M1159.3,-264.38C1129.84,-279.5 1092.12,-298.87 1061.17,-314.76"/>
<polygon fill="black" stroke="black" points="1059.52,-311.67 1052.22,-319.36 1062.72,-317.9 1059.52,-311.67"/>
<text text-anchor="start" x="1091" y="-304.17" font-family="arial" font-size="14.00" fill="#377eb8">true</text>
</g>
<!-- ID_66_ct0_st0123X&#45;&gt;ID_66_ct0_st023X -->
<g id="edge47" class="edge">
<title>ID_66_ct0_st0123X&#45;&gt;ID_66_ct0_st023X</title>
<path fill="none" stroke="black" d="M1278.17,-234.13C1292.04,-232.79 1306.51,-231.21 1320,-229.37 1322.52,-229.03 1325.09,-228.66 1327.68,-228.28"/>
<polygon fill="black" stroke="black" points="1328.39,-231.71 1337.74,-226.71 1327.32,-224.79 1328.39,-231.71"/>
<text text-anchor="start" x="1296" y="-235.17" font-family="arial" font-size="14.00" fill="#377eb8">true</text>
</g>
<!-- ID_66_ct0_st0123X&#45;&gt;ID_66_ct0_st0123X -->
<g id="edge50" class="edge">
<title>ID_66_ct0_st0123X&#45;&gt;ID_66_ct0_st0123X</title>
<path fill="none" stroke="black" d="M1190.7,-264.55C1189.88,-274.28 1195.98,-282.37 1209,-282.37 1217.13,-282.37 1222.57,-279.21 1225.3,-274.47"/>
<polygon fill="black" stroke="black" points="1228.76,-275.04 1227.3,-264.55 1221.89,-273.66 1228.76,-275.04"/>
<text text-anchor="start" x="1197" y="-286.17" font-family="arial" font-size="14.00" fill="#377eb8">true</text>
</g>
</g>
</svg>
