<?xml version="1.0" encoding="UTF-8" standalone="no"?>
<!DOCTYPE svg PUBLIC "-//W3C//DTD SVG 1.1//EN"
 "http://www.w3.org/Graphics/SVG/1.1/DTD/svg11.dtd">
<!-- Generated by graphviz version 2.40.1 (20161225.0304)
 -->
<!-- Title: G Pages: 1 -->
<svg width="678pt" height="290pt"
 viewBox="0.00 0.00 678.00 289.50" xmlns="http://www.w3.org/2000/svg" xmlns:xlink="http://www.w3.org/1999/xlink">
<g id="graph0" class="graph" transform="scale(1 1) rotate(0) translate(4 285.5043)">
<title>G</title>
<polygon fill="#ffffff" stroke="transparent" points="-4,4 -4,-285.5043 674,-285.5043 674,4 -4,4"/>
<!-- _stinit -->
<!-- stinit -->
<g id="node2" class="node">
<title>stinit</title>
<polygon fill="none" stroke="#000000" points="543,-248.5043 489,-248.5043 489,-198.5043 543,-198.5043 543,-248.5043"/>
<text text-anchor="start" x="499" y="-234.3043" font-family="arial" font-weight="bold" font-size="14.00" fill="#000000">stinit</text>
<text text-anchor="start" x="510" y="-220.3043" font-family="arial" font-size="14.00" fill="#984ea3">Q</text>
<text text-anchor="start" x="503.5" y="-206.3043" font-family="arial" font-size="14.00" fill="#ff7f00">true</text>
</g>
<!-- _stinit&#45;&gt;stinit -->
<g id="edge1" class="edge">
<title>_stinit&#45;&gt;stinit</title>
<path fill="none" stroke="#000000" d="M300.8464,-223.5043C344.3521,-223.5043 429.417,-223.5043 478.5492,-223.5043"/>
<polygon fill="#000000" stroke="#000000" points="478.7535,-227.0044 488.7535,-223.5043 478.7535,-220.0044 478.7535,-227.0044"/>
</g>
<!-- stinit&#45;&gt;stinit -->
<g id="edge5" class="edge">
<title>stinit&#45;&gt;stinit</title>
<path fill="none" stroke="#000000" d="M503.2998,-248.6799C502.7354,-258.4138 506.9688,-266.5043 516,-266.5043 521.6445,-266.5043 525.4149,-263.3439 527.3111,-258.5972"/>
<polygon fill="#000000" stroke="#000000" points="530.7792,-259.0688 528.7002,-248.6799 523.8468,-258.0977 530.7792,-259.0688"/>
<text text-anchor="start" x="503.5" y="-270.3043" font-family="arial" font-size="14.00" fill="#377eb8">true</text>
</g>
<!-- st -->
<g id="node7" class="node">
<title>st</title>
<polygon fill="none" stroke="#000000" points="670,-166.5043 616,-166.5043 616,-116.5043 670,-116.5043 670,-166.5043"/>
<text text-anchor="start" x="636.5" y="-152.3043" font-family="arial" font-weight="bold" font-size="14.00" fill="#000000">st</text>
<text text-anchor="start" x="630.5" y="-138.3043" font-family="arial" font-size="14.00" fill="#984ea3">true</text>
<text text-anchor="start" x="630.5" y="-124.3043" font-family="arial" font-size="14.00" fill="#ff7f00">true</text>
</g>
<!-- stinit&#45;&gt;st -->
<g id="edge4" class="edge">
<title>stinit&#45;&gt;st</title>
<path fill="none" stroke="#000000" d="M543.0382,-210.786C559.433,-202.6428 580.4949,-191.4 598,-179.5043 601.2376,-177.3041 604.5132,-174.9123 607.7429,-172.4353"/>
<polygon fill="#000000" stroke="#000000" points="609.9813,-175.1271 615.6293,-166.1632 605.6241,-169.6484 609.9813,-175.1271"/>
<text text-anchor="start" x="573" y="-197.3043" font-family="arial" font-size="14.00" fill="#377eb8">true</text>
</g>
<!-- _st0 -->
<!-- st0 -->
<g id="node4" class="node">
<title>st0</title>
<polygon fill="none" stroke="#000000" points="169,-62.5043 91,-62.5043 91,-12.5043 169,-12.5043 169,-62.5043"/>
<text text-anchor="start" x="119" y="-48.3043" font-family="arial" font-weight="bold" font-size="14.00" fill="#000000">st0</text>
<text text-anchor="start" x="99" y="-34.3043" font-family="arial" font-size="14.00" fill="#984ea3">(!Q &amp;&amp; R)</text>
<text text-anchor="start" x="117.5" y="-20.3043" font-family="arial" font-size="14.00" fill="#ff7f00">true</text>
</g>
<!-- _st0&#45;&gt;st0 -->
<g id="edge2" class="edge">
<title>_st0&#45;&gt;st0</title>
<path fill="none" stroke="#000000" d="M54.062,-37.5043C62.2035,-37.5043 71.4058,-37.5043 80.5234,-37.5043"/>
<polygon fill="#000000" stroke="#000000" points="80.7204,-41.0044 90.7203,-37.5043 80.7203,-34.0044 80.7204,-41.0044"/>
</g>
<!-- st0&#45;&gt;st0 -->
<g id="edge8" class="edge">
<title>st0&#45;&gt;st0</title>
<path fill="none" stroke="#000000" d="M119.541,-62.6799C119.0762,-72.4138 122.5625,-80.5043 130,-80.5043 134.5322,-80.5043 137.5972,-77.5 139.195,-72.9502"/>
<polygon fill="#000000" stroke="#000000" points="142.7112,-73.0326 140.459,-62.6799 135.7636,-72.1775 142.7112,-73.0326"/>
<text text-anchor="start" x="117.5" y="-84.3043" font-family="arial" font-size="14.00" fill="#377eb8">true</text>
</g>
<!-- st01 -->
<g id="node6" class="node">
<title>st01</title>
<polygon fill="none" stroke="#000000" points="314.5,-145.5043 232.5,-145.5043 232.5,-95.5043 314.5,-95.5043 314.5,-145.5043"/>
<text text-anchor="start" x="258.5" y="-131.3043" font-family="arial" font-weight="bold" font-size="14.00" fill="#000000">st01</text>
<text text-anchor="start" x="240.5" y="-117.3043" font-family="arial" font-size="14.00" fill="#984ea3">(!Q &amp;&amp; !R)</text>
<text text-anchor="start" x="261" y="-103.3043" font-family="arial" font-size="14.00" fill="#ff7f00">true</text>
</g>
<!-- st0&#45;&gt;st01 -->
<g id="edge9" class="edge">
<title>st0&#45;&gt;st01</title>
<path fill="none" stroke="#000000" d="M169.212,-60.1844C185.8892,-69.8304 205.5418,-81.1974 223.2646,-91.4483"/>
<polygon fill="#000000" stroke="#000000" points="221.9219,-94.7149 232.3306,-96.692 225.4267,-88.6554 221.9219,-94.7149"/>
<text text-anchor="start" x="187" y="-87.3043" font-family="arial" font-size="14.00" fill="#377eb8">true</text>
</g>
<!-- st0&#45;&gt;st -->
<g id="edge7" class="edge">
<title>st0&#45;&gt;st</title>
<path fill="none" stroke="#000000" d="M169.2358,-26.5425C247.4359,-6.9604 426.2594,26.3262 555,-37.5043 585.385,-52.5694 609.3401,-83.3863 624.5355,-107.5828"/>
<polygon fill="#000000" stroke="#000000" points="621.556,-109.4195 629.7332,-116.1563 627.5419,-105.7905 621.556,-109.4195"/>
<text text-anchor="start" x="389.5" y="-11.3043" font-family="arial" font-size="14.00" fill="#377eb8">Q&#39;</text>
</g>
<!-- _st01 -->
<!-- _st01&#45;&gt;st01 -->
<g id="edge3" class="edge">
<title>_st01&#45;&gt;st01</title>
<path fill="none" stroke="#000000" d="M157.329,-129.4094C175.6515,-128.0049 200.3455,-126.1119 222.2549,-124.4325"/>
<polygon fill="#000000" stroke="#000000" points="222.7152,-127.9075 232.4184,-123.6534 222.1801,-120.928 222.7152,-127.9075"/>
</g>
<!-- st01&#45;&gt;st01 -->
<g id="edge12" class="edge">
<title>st01&#45;&gt;st01</title>
<path fill="none" stroke="#000000" d="M259.6792,-145.6799C259.0649,-155.4138 263.6719,-163.5043 273.5,-163.5043 279.6426,-163.5043 283.7456,-160.3439 285.8092,-155.5972"/>
<polygon fill="#000000" stroke="#000000" points="289.2739,-156.0931 287.3208,-145.6799 282.3538,-155.0383 289.2739,-156.0931"/>
<text text-anchor="start" x="261" y="-167.3043" font-family="arial" font-size="14.00" fill="#377eb8">true</text>
</g>
<!-- st01&#45;&gt;st -->
<g id="edge10" class="edge">
<title>st01&#45;&gt;st</title>
<path fill="none" stroke="#000000" d="M314.5132,-144.4243C321.1705,-147.346 328.1368,-149.8723 335,-151.5043 430.5016,-174.2129 547.3262,-159.2325 605.8484,-148.9234"/>
<polygon fill="#000000" stroke="#000000" points="606.5285,-152.3572 615.7419,-147.1261 605.2773,-145.4699 606.5285,-152.3572"/>
<text text-anchor="start" x="508.5" y="-166.3043" font-family="arial" font-size="14.00" fill="#377eb8">Q&#39;</text>
</g>
<!-- st02 -->
<g id="node8" class="node">
<title>st02</title>
<polygon fill="none" stroke="#000000" points="555,-96.5043 477,-96.5043 477,-46.5043 555,-46.5043 555,-96.5043"/>
<text text-anchor="start" x="501" y="-82.3043" font-family="arial" font-weight="bold" font-size="14.00" fill="#000000">st02</text>
<text text-anchor="start" x="485" y="-68.3043" font-family="arial" font-size="14.00" fill="#984ea3">(!Q &amp;&amp; R)</text>
<text text-anchor="start" x="491.5" y="-54.3043" font-family="arial" font-size="14.00" fill="#ff7f00">c0 &lt;= 5</text>
</g>
<!-- st01&#45;&gt;st02 -->
<g id="edge11" class="edge">
<title>st01&#45;&gt;st02</title>
<path fill="none" stroke="#000000" d="M314.781,-119.4248C352.88,-117.5387 410.6932,-112.4061 459,-98.5043 461.7622,-97.7093 464.5573,-96.7936 467.3495,-95.7901"/>
<polygon fill="#000000" stroke="#000000" points="468.7498,-99.0004 476.7793,-92.0884 466.1919,-92.4845 468.7498,-99.0004"/>
<text text-anchor="start" x="384.5" y="-136.3043" font-family="arial" font-size="14.00" fill="#377eb8">true</text>
<text text-anchor="start" x="377" y="-121.3043" font-family="arial" font-size="14.00" fill="#000000">c0 :=0</text>
</g>
<!-- st&#45;&gt;st -->
<g id="edge6" class="edge">
<title>st&#45;&gt;st</title>
<path fill="none" stroke="#000000" d="M632.541,-166.6799C632.0762,-176.4138 635.5625,-184.5043 643,-184.5043 647.5322,-184.5043 650.5972,-181.5 652.195,-176.9502"/>
<polygon fill="#000000" stroke="#000000" points="655.7112,-177.0326 653.459,-166.6799 648.7636,-176.1775 655.7112,-177.0326"/>
<text text-anchor="start" x="630.5" y="-188.3043" font-family="arial" font-size="14.00" fill="#377eb8">true</text>
</g>
<!-- st02&#45;&gt;st0 -->
<g id="edge14" class="edge">
<title>st02&#45;&gt;st0</title>
<path fill="none" stroke="#000000" d="M476.7912,-65.6832C470.8379,-64.8916 464.7613,-64.1356 459,-63.5043 359.9987,-52.655 243.7594,-44.552 179.3345,-40.4678"/>
<polygon fill="#000000" stroke="#000000" points="179.2682,-36.9568 169.0685,-39.8233 178.8295,-43.9431 179.2682,-36.9568"/>
<text text-anchor="start" x="230" y="-53.3043" font-family="arial" font-size="14.00" fill="#377eb8">(Q&#39; || c0 &gt;= 5)</text>
</g>
<!-- st02&#45;&gt;st01 -->
<g id="edge16" class="edge">
<title>st02&#45;&gt;st01</title>
<path fill="none" stroke="#000000" d="M476.788,-67.281C439.3793,-64.6225 381.9368,-64.1535 335,-79.5043 327.3676,-82.0004 319.7918,-85.7262 312.701,-89.9312"/>
<polygon fill="#000000" stroke="#000000" points="310.571,-87.1378 304.0108,-95.4573 314.3273,-93.0447 310.571,-87.1378"/>
<text text-anchor="start" x="335" y="-83.3043" font-family="arial" font-size="14.00" fill="#377eb8">(Q&#39; || (R&#39; || c0 &gt;= 5))</text>
</g>
<!-- st02&#45;&gt;st -->
<g id="edge13" class="edge">
<title>st02&#45;&gt;st</title>
<path fill="none" stroke="#000000" d="M555.1405,-93.0778C571.5902,-102.1445 590.6105,-112.6282 606.7384,-121.5176"/>
<polygon fill="#000000" stroke="#000000" points="605.4115,-124.7826 615.8588,-126.5445 608.7905,-118.6521 605.4115,-124.7826"/>
<text text-anchor="start" x="578" y="-118.3043" font-family="arial" font-size="14.00" fill="#377eb8">Q&#39;</text>
</g>
<!-- st02&#45;&gt;st02 -->
<g id="edge15" class="edge">
<title>st02&#45;&gt;st02</title>
<path fill="none" stroke="#000000" d="M503.2998,-96.6799C502.7354,-106.4138 506.9688,-114.5043 516,-114.5043 521.6445,-114.5043 525.4149,-111.3439 527.3111,-106.5972"/>
<polygon fill="#000000" stroke="#000000" points="530.7792,-107.0688 528.7002,-96.6799 523.8468,-106.0977 530.7792,-107.0688"/>
<text text-anchor="start" x="496" y="-118.3043" font-family="arial" font-size="14.00" fill="#377eb8">c0 &lt; 5</text>
</g>
</g>
</svg>
