<?xml version="1.0" encoding="UTF-8" standalone="no"?>
<!DOCTYPE svg PUBLIC "-//W3C//DTD SVG 1.1//EN"
 "http://www.w3.org/Graphics/SVG/1.1/DTD/svg11.dtd">
<!-- Generated by graphviz version 2.43.0 (0)
 -->
<!-- Title: G Pages: 1 -->
<svg width="1099pt" height="519pt"
 viewBox="0.00 0.00 1099.00 519.28" xmlns="http://www.w3.org/2000/svg" xmlns:xlink="http://www.w3.org/1999/xlink">
<g id="graph0" class="graph" transform="scale(1 1) rotate(0) translate(4 515.28)">
<title>G</title>
<polygon fill="white" stroke="transparent" points="-4,4 -4,-515.28 1095,-515.28 1095,4 -4,4"/>
<!-- _st0 -->
<!-- st0 -->
<g id="node2" class="node">
<title>st0</title>
<polygon fill="none" stroke="black" points="146.5,-356.79 92.5,-356.79 92.5,-306.79 146.5,-306.79 146.5,-356.79"/>
<text text-anchor="start" x="109.5" y="-342.59" font-family="arial" font-weight="bold" font-size="14.00">st0</text>
<text text-anchor="start" x="111.5" y="-328.59" font-family="arial" font-size="14.00" fill="#984ea3">!Q</text>
<text text-anchor="start" x="107.5" y="-314.59" font-family="arial" font-size="14.00" fill="#ff7f00">true</text>
</g>
<!-- _st0&#45;&gt;st0 -->
<g id="edge1" class="edge">
<title>_st0&#45;&gt;st0</title>
<path fill="none" stroke="black" d="M54.18,-331.79C62.9,-331.79 72.78,-331.79 82.14,-331.79"/>
<polygon fill="black" stroke="black" points="82.38,-335.29 92.38,-331.79 82.38,-328.29 82.38,-335.29"/>
</g>
<!-- st0&#45;&gt;st0 -->
<g id="edge4" class="edge">
<title>st0&#45;&gt;st0</title>
<path fill="none" stroke="black" d="M110.91,-356.96C110.53,-366.7 113.39,-374.79 119.5,-374.79 123.22,-374.79 125.74,-371.78 127.05,-367.23"/>
<polygon fill="black" stroke="black" points="130.57,-367.26 128.09,-356.96 123.6,-366.56 130.57,-367.26"/>
<text text-anchor="start" x="107.5" y="-378.59" font-family="arial" font-size="14.00" fill="#377eb8">true</text>
</g>
<!-- st012 -->
<g id="node4" class="node">
<title>st012</title>
<polygon fill="none" stroke="black" points="280,-223.79 208,-223.79 208,-173.79 280,-173.79 280,-223.79"/>
<text text-anchor="start" x="226.5" y="-209.59" font-family="arial" font-weight="bold" font-size="14.00">st012</text>
<text text-anchor="start" x="216" y="-195.59" font-family="arial" font-size="14.00" fill="#984ea3">(Q &amp;&amp; R)</text>
<text text-anchor="start" x="232" y="-181.59" font-family="arial" font-size="14.00" fill="#ff7f00">true</text>
</g>
<!-- st0&#45;&gt;st012 -->
<g id="edge5" class="edge">
<title>st0&#45;&gt;st012</title>
<path fill="none" stroke="black" d="M143.54,-306.77C163.09,-285.54 191.29,-254.92 212.68,-231.71"/>
<polygon fill="black" stroke="black" points="215.45,-233.87 219.65,-224.14 210.3,-229.13 215.45,-233.87"/>
<text text-anchor="start" x="166" y="-284.59" font-family="arial" font-size="14.00" fill="#377eb8">true</text>
</g>
<!-- st0123 -->
<g id="node6" class="node">
<title>st0123</title>
<polygon fill="none" stroke="black" points="416,-315.79 340,-315.79 340,-265.79 416,-265.79 416,-315.79"/>
<text text-anchor="start" x="356.5" y="-301.59" font-family="arial" font-weight="bold" font-size="14.00">st0123</text>
<text text-anchor="start" x="348" y="-287.59" font-family="arial" font-size="14.00" fill="#984ea3">(Q &amp;&amp; !R)</text>
<text text-anchor="start" x="366" y="-273.59" font-family="arial" font-size="14.00" fill="#ff7f00">true</text>
</g>
<!-- st0&#45;&gt;st0123 -->
<g id="edge6" class="edge">
<title>st0&#45;&gt;st0123</title>
<path fill="none" stroke="black" d="M146.69,-331.54C178.47,-330.84 233.58,-328.37 280,-319.79 296.45,-316.75 314.07,-311.96 329.72,-307.14"/>
<polygon fill="black" stroke="black" points="331.21,-310.34 339.69,-303.99 329.1,-303.67 331.21,-310.34"/>
<text text-anchor="start" x="232" y="-331.59" font-family="arial" font-size="14.00" fill="#377eb8">true</text>
</g>
<!-- _st012 -->
<!-- _st012&#45;&gt;st012 -->
<g id="edge2" class="edge">
<title>_st012&#45;&gt;st012</title>
<path fill="none" stroke="black" d="M148.3,-198.79C162.91,-198.79 181.19,-198.79 197.78,-198.79"/>
<polygon fill="black" stroke="black" points="197.85,-202.29 207.85,-198.79 197.85,-195.29 197.85,-202.29"/>
</g>
<!-- st012&#45;&gt;st012 -->
<g id="edge13" class="edge">
<title>st012&#45;&gt;st012</title>
<path fill="none" stroke="black" d="M231.67,-223.96C231.13,-233.7 235.23,-241.79 244,-241.79 249.48,-241.79 253.14,-238.63 254.98,-233.88"/>
<polygon fill="black" stroke="black" points="258.45,-234.34 256.33,-223.96 251.51,-233.4 258.45,-234.34"/>
<text text-anchor="start" x="232" y="-245.59" font-family="arial" font-size="14.00" fill="#377eb8">true</text>
</g>
<!-- st012&#45;&gt;st0123 -->
<g id="edge14" class="edge">
<title>st012&#45;&gt;st0123</title>
<path fill="none" stroke="black" d="M280.03,-223.2C296.17,-234.45 315.52,-247.94 332.67,-259.89"/>
<polygon fill="black" stroke="black" points="330.68,-262.77 340.89,-265.62 334.69,-257.03 330.68,-262.77"/>
<text text-anchor="start" x="298" y="-254.59" font-family="arial" font-size="14.00" fill="#377eb8">true</text>
</g>
<!-- st02 -->
<g id="node7" class="node">
<title>st02</title>
<polygon fill="none" stroke="black" points="1091,-210.79 1015,-210.79 1015,-160.79 1091,-160.79 1091,-210.79"/>
<text text-anchor="start" x="1039" y="-196.59" font-family="arial" font-weight="bold" font-size="14.00">st02</text>
<text text-anchor="start" x="1023" y="-182.59" font-family="arial" font-size="14.00" fill="#984ea3">(!Q &amp;&amp; R)</text>
<text text-anchor="start" x="1041" y="-168.59" font-family="arial" font-size="14.00" fill="#ff7f00">true</text>
</g>
<!-- st012&#45;&gt;st02 -->
<g id="edge11" class="edge">
<title>st012&#45;&gt;st02</title>
<path fill="none" stroke="black" d="M252.78,-173.43C268.39,-128.32 308.04,-38.79 377,-38.79 377,-38.79 377,-38.79 896,-38.79 961.49,-38.79 1010.66,-108.25 1035,-151.68"/>
<polygon fill="black" stroke="black" points="1031.96,-153.41 1039.81,-160.52 1038.1,-150.06 1031.96,-153.41"/>
<text text-anchor="start" x="628.5" y="-42.59" font-family="arial" font-size="14.00" fill="#377eb8">true</text>
</g>
<!-- st023 -->
<g id="node8" class="node">
<title>st023</title>
<polygon fill="none" stroke="black" points="579.5,-437.79 499.5,-437.79 499.5,-387.79 579.5,-387.79 579.5,-437.79"/>
<text text-anchor="start" x="522" y="-423.59" font-family="arial" font-weight="bold" font-size="14.00">st023</text>
<text text-anchor="start" x="507.5" y="-409.59" font-family="arial" font-size="14.00" fill="#984ea3">(!Q &amp;&amp; !R)</text>
<text text-anchor="start" x="527.5" y="-395.59" font-family="arial" font-size="14.00" fill="#ff7f00">true</text>
</g>
<!-- st012&#45;&gt;st023 -->
<g id="edge12" class="edge">
<title>st012&#45;&gt;st023</title>
<path fill="none" stroke="black" d="M258.97,-224.02C282.52,-266.27 328.67,-347.72 340,-357.79 381.34,-394.5 445.14,-406.93 489.2,-411.01"/>
<polygon fill="black" stroke="black" points="489.15,-414.52 499.4,-411.85 489.71,-407.54 489.15,-414.52"/>
<text text-anchor="start" x="366" y="-399.59" font-family="arial" font-size="14.00" fill="#377eb8">true</text>
</g>
<!-- _st0123 -->
<!-- _st0123&#45;&gt;st0123 -->
<g id="edge3" class="edge">
<title>_st0123&#45;&gt;st0123</title>
<path fill="none" stroke="black" d="M276.62,-292.31C292.43,-292.07 311.89,-291.77 329.46,-291.51"/>
<polygon fill="black" stroke="black" points="329.6,-295.01 339.54,-291.35 329.49,-288.01 329.6,-295.01"/>
</g>
<!-- st0123&#45;&gt;st0123 -->
<g id="edge22" class="edge">
<title>st0123&#45;&gt;st0123</title>
<path fill="none" stroke="black" d="M365.3,-315.96C364.74,-325.7 368.97,-333.79 378,-333.79 383.64,-333.79 387.41,-330.63 389.31,-325.88"/>
<polygon fill="black" stroke="black" points="392.78,-326.35 390.7,-315.96 385.85,-325.38 392.78,-326.35"/>
<text text-anchor="start" x="366" y="-337.59" font-family="arial" font-size="14.00" fill="#377eb8">true</text>
</g>
<!-- st0123&#45;&gt;st023 -->
<g id="edge20" class="edge">
<title>st0123&#45;&gt;st023</title>
<path fill="none" stroke="black" d="M416.16,-314.09C422.05,-317.49 428.13,-320.83 434,-323.79 453.76,-333.73 463.24,-328.35 480,-342.79 491.78,-352.93 488.39,-360.56 498,-372.79 499.83,-375.12 501.79,-377.45 503.82,-379.76"/>
<polygon fill="black" stroke="black" points="501.56,-382.47 510.92,-387.43 506.7,-377.71 501.56,-382.47"/>
<text text-anchor="start" x="445" y="-346.59" font-family="arial" font-size="14.00" fill="#377eb8">true</text>
</g>
<!-- st024 -->
<g id="node9" class="node">
<title>st024</title>
<polygon fill="none" stroke="black" points="933,-283.79 857,-283.79 857,-233.79 933,-233.79 933,-283.79"/>
<text text-anchor="start" x="877.5" y="-269.59" font-family="arial" font-weight="bold" font-size="14.00">st024</text>
<text text-anchor="start" x="865" y="-255.59" font-family="arial" font-size="14.00" fill="#984ea3">(!Q &amp;&amp; R)</text>
<text text-anchor="start" x="872" y="-241.59" font-family="arial" font-size="14.00" fill="#ff7f00">c0 &lt;= 5</text>
</g>
<!-- st0123&#45;&gt;st024 -->
<g id="edge19" class="edge">
<title>st0123&#45;&gt;st024</title>
<path fill="none" stroke="black" d="M384.34,-265.33C391.16,-239.68 405.66,-201.18 434,-181.79 494.81,-140.18 525.41,-169.35 599,-165.79 635.85,-164 645.78,-158.79 682,-165.79 755.82,-180.05 770.99,-196.73 839,-228.79 841.9,-230.15 844.87,-231.61 847.84,-233.1"/>
<polygon fill="black" stroke="black" points="846.24,-236.22 856.73,-237.69 849.45,-230 846.24,-236.22"/>
<text text-anchor="start" x="628.5" y="-184.59" font-family="arial" font-size="14.00" fill="#377eb8">true</text>
<text text-anchor="start" x="621.5" y="-169.59" font-family="arial" font-size="14.00">c0 :=0</text>
</g>
<!-- st0124 -->
<g id="node10" class="node">
<title>st0124</title>
<polygon fill="none" stroke="black" points="777.5,-333.79 705.5,-333.79 705.5,-283.79 777.5,-283.79 777.5,-333.79"/>
<text text-anchor="start" x="720" y="-319.59" font-family="arial" font-weight="bold" font-size="14.00">st0124</text>
<text text-anchor="start" x="713.5" y="-305.59" font-family="arial" font-size="14.00" fill="#984ea3">(Q &amp;&amp; R)</text>
<text text-anchor="start" x="718.5" y="-291.59" font-family="arial" font-size="14.00" fill="#ff7f00">c0 &lt;= 5</text>
</g>
<!-- st0123&#45;&gt;st0124 -->
<g id="edge21" class="edge">
<title>st0123&#45;&gt;st0124</title>
<path fill="none" stroke="black" d="M416.37,-291.15C473.64,-291.93 586.49,-294.35 682,-301.79 686.24,-302.12 690.66,-302.52 695.07,-302.98"/>
<polygon fill="black" stroke="black" points="694.96,-306.49 705.28,-304.09 695.72,-299.53 694.96,-306.49"/>
<text text-anchor="start" x="527.5" y="-313.59" font-family="arial" font-size="14.00" fill="#377eb8">true</text>
<text text-anchor="start" x="520.5" y="-298.59" font-family="arial" font-size="14.00">c0 :=0</text>
</g>
<!-- st02&#45;&gt;st012 -->
<g id="edge9" class="edge">
<title>st02&#45;&gt;st012</title>
<path fill="none" stroke="black" d="M1050.69,-160.5C1047.43,-124.89 1036.13,-60.34 997,-24.79 962.85,6.24 942.14,-0.79 896,-0.79 377,-0.79 377,-0.79 377,-0.79 340.3,-0.79 323.96,1.15 298,-24.79 260.76,-62 249.55,-124.54 246.25,-163.63"/>
<polygon fill="black" stroke="black" points="242.75,-163.54 245.53,-173.76 249.73,-164.03 242.75,-163.54"/>
<text text-anchor="start" x="628.5" y="-4.59" font-family="arial" font-size="14.00" fill="#377eb8">true</text>
</g>
<!-- st02&#45;&gt;st0123 -->
<g id="edge10" class="edge">
<title>st02&#45;&gt;st0123</title>
<path fill="none" stroke="black" d="M1014.97,-163.53C984.22,-147.17 938.76,-127.79 896,-127.79 538.5,-127.79 538.5,-127.79 538.5,-127.79 490.18,-127.79 470.04,-125.59 434,-157.79 405.58,-183.18 391.5,-225.52 384.76,-255.6"/>
<polygon fill="black" stroke="black" points="381.28,-255.19 382.68,-265.69 388.13,-256.61 381.28,-255.19"/>
<text text-anchor="start" x="729.5" y="-131.59" font-family="arial" font-size="14.00" fill="#377eb8">true</text>
</g>
<!-- st02&#45;&gt;st02 -->
<g id="edge7" class="edge">
<title>st02&#45;&gt;st02</title>
<path fill="none" stroke="black" d="M1038.43,-210.96C1037.78,-220.7 1042.64,-228.79 1053,-228.79 1059.47,-228.79 1063.8,-225.63 1065.97,-220.88"/>
<polygon fill="black" stroke="black" points="1069.44,-221.39 1067.57,-210.96 1062.53,-220.28 1069.44,-221.39"/>
<text text-anchor="start" x="1041" y="-232.59" font-family="arial" font-size="14.00" fill="#377eb8">true</text>
</g>
<!-- st02&#45;&gt;st023 -->
<g id="edge8" class="edge">
<title>st02&#45;&gt;st023</title>
<path fill="none" stroke="black" d="M1044.22,-210.79C1035.4,-236.66 1019.3,-277.47 997,-307.79 921.64,-410.25 901.9,-452.62 783,-497.79 705.18,-527.35 671.22,-504.18 599,-462.79 590.13,-457.7 581.34,-451.19 573.37,-444.56"/>
<polygon fill="black" stroke="black" points="575.56,-441.83 565.7,-437.94 570.98,-447.13 575.56,-441.83"/>
<text text-anchor="start" x="808" y="-493.59" font-family="arial" font-size="14.00" fill="#377eb8">true</text>
</g>
<!-- st023&#45;&gt;st0123 -->
<g id="edge18" class="edge">
<title>st023&#45;&gt;st0123</title>
<path fill="none" stroke="black" d="M499.46,-393.99C470.38,-379.94 435.45,-362.97 434,-361.79 421,-351.21 409.22,-337.01 399.93,-324.08"/>
<polygon fill="black" stroke="black" points="402.78,-322.04 394.2,-315.82 397.03,-326.03 402.78,-322.04"/>
<text text-anchor="start" x="445" y="-386.59" font-family="arial" font-size="14.00" fill="#377eb8">true</text>
</g>
<!-- st023&#45;&gt;st023 -->
<g id="edge16" class="edge">
<title>st023&#45;&gt;st023</title>
<path fill="none" stroke="black" d="M524.19,-437.96C523.5,-447.7 528.61,-455.79 539.5,-455.79 546.31,-455.79 550.85,-452.63 553.14,-447.88"/>
<polygon fill="black" stroke="black" points="556.6,-448.41 554.81,-437.96 549.7,-447.24 556.6,-448.41"/>
<text text-anchor="start" x="527.5" y="-459.59" font-family="arial" font-size="14.00" fill="#377eb8">true</text>
</g>
<!-- st023&#45;&gt;st024 -->
<g id="edge15" class="edge">
<title>st023&#45;&gt;st024</title>
<path fill="none" stroke="black" d="M579.66,-433.63C585.97,-436.17 592.55,-438.37 599,-439.79 703.66,-462.77 761.66,-490.96 839,-416.79 870.02,-387.04 841.9,-362.02 857,-321.79 860.71,-311.9 865.92,-301.78 871.26,-292.63"/>
<polygon fill="black" stroke="black" points="874.4,-294.2 876.6,-283.84 868.42,-290.57 874.4,-294.2"/>
<text text-anchor="start" x="729.5" y="-482.59" font-family="arial" font-size="14.00" fill="#377eb8">true</text>
<text text-anchor="start" x="722.5" y="-467.59" font-family="arial" font-size="14.00">c0 :=0</text>
</g>
<!-- st023&#45;&gt;st0124 -->
<g id="edge17" class="edge">
<title>st023&#45;&gt;st0124</title>
<path fill="none" stroke="black" d="M579.74,-392.85C586.1,-389.95 592.67,-387.16 599,-384.79 634.85,-371.36 648.47,-380.25 682,-361.79 692.02,-356.27 701.72,-348.72 710.25,-341.05"/>
<polygon fill="black" stroke="black" points="712.84,-343.42 717.73,-334.02 708.05,-338.32 712.84,-343.42"/>
<text text-anchor="start" x="628.5" y="-403.59" font-family="arial" font-size="14.00" fill="#377eb8">true</text>
<text text-anchor="start" x="621.5" y="-388.59" font-family="arial" font-size="14.00">c0 :=0</text>
</g>
<!-- st024&#45;&gt;st012 -->
<g id="edge26" class="edge">
<title>st024&#45;&gt;st012</title>
<path fill="none" stroke="black" d="M884.25,-233.67C868.84,-197.9 835.15,-133.53 783,-105.79 616.81,-17.38 384.7,-122.1 288.96,-173.52"/>
<polygon fill="black" stroke="black" points="287.24,-170.47 280.12,-178.32 290.58,-176.62 287.24,-170.47"/>
<text text-anchor="start" x="516.5" y="-93.59" font-family="arial" font-size="14.00" fill="#377eb8">c0 &gt;= 5</text>
</g>
<!-- st024&#45;&gt;st0123 -->
<g id="edge28" class="edge">
<title>st024&#45;&gt;st0123</title>
<path fill="none" stroke="black" d="M856.88,-258.14C839.85,-258.01 819.39,-258.09 801,-258.79 664.68,-263.95 504.13,-278.45 426.19,-286.04"/>
<polygon fill="black" stroke="black" points="425.81,-282.56 416.2,-287.01 426.5,-289.52 425.81,-282.56"/>
<text text-anchor="start" x="599" y="-274.59" font-family="arial" font-size="14.00" fill="#377eb8">(R&#39; || c0 &gt;= 5)</text>
</g>
<!-- st024&#45;&gt;st02 -->
<g id="edge23" class="edge">
<title>st024&#45;&gt;st02</title>
<path fill="none" stroke="black" d="M933.37,-241.3C955.07,-231.14 982.61,-218.26 1005.68,-207.46"/>
<polygon fill="black" stroke="black" points="1007.37,-210.54 1014.94,-203.13 1004.4,-204.2 1007.37,-210.54"/>
<text text-anchor="start" x="951" y="-235.59" font-family="arial" font-size="14.00" fill="#377eb8">c0 &gt;= 5</text>
</g>
<!-- st024&#45;&gt;st023 -->
<g id="edge25" class="edge">
<title>st024&#45;&gt;st023</title>
<path fill="none" stroke="black" d="M875.84,-284.03C855.79,-310.27 821.25,-350.89 783,-375.79 742.67,-402.03 729.3,-405.97 682,-414.79 645.74,-421.54 635.88,-415.42 599,-414.79 595.95,-414.73 592.81,-414.67 589.64,-414.59"/>
<polygon fill="black" stroke="black" points="589.61,-411.09 579.51,-414.31 589.41,-418.08 589.61,-411.09"/>
<text text-anchor="start" x="700" y="-414.59" font-family="arial" font-size="14.00" fill="#377eb8">(R&#39; || c0 &gt;= 5)</text>
</g>
<!-- st024&#45;&gt;st024 -->
<g id="edge24" class="edge">
<title>st024&#45;&gt;st024</title>
<path fill="none" stroke="black" d="M881.18,-283.96C880.56,-293.7 885.17,-301.79 895,-301.79 901.14,-301.79 905.25,-298.63 907.31,-293.88"/>
<polygon fill="black" stroke="black" points="910.77,-294.38 908.82,-283.96 903.85,-293.32 910.77,-294.38"/>
<text text-anchor="start" x="876" y="-305.59" font-family="arial" font-size="14.00" fill="#377eb8">c0 &lt; 5</text>
</g>
<!-- st024&#45;&gt;st0124 -->
<g id="edge27" class="edge">
<title>st024&#45;&gt;st0124</title>
<path fill="none" stroke="black" d="M856.74,-283.58C850.97,-286.7 844.95,-289.57 839,-291.79 822.77,-297.85 804.17,-301.78 787.67,-304.31"/>
<polygon fill="black" stroke="black" points="787.12,-300.86 777.7,-305.72 788.09,-307.79 787.12,-300.86"/>
<text text-anchor="start" x="801" y="-304.59" font-family="arial" font-size="14.00" fill="#377eb8">c0 &lt; 5</text>
</g>
<!-- st0124&#45;&gt;st012 -->
<g id="edge32" class="edge">
<title>st0124&#45;&gt;st012</title>
<path fill="none" stroke="black" d="M716.06,-283.68C706.28,-275.06 694.39,-266.23 682,-260.79 548.59,-202.16 372.25,-196.42 290.37,-197.35"/>
<polygon fill="black" stroke="black" points="290.1,-193.85 280.16,-197.5 290.21,-200.85 290.1,-193.85"/>
<text text-anchor="start" x="434" y="-212.59" font-family="arial" font-size="14.00" fill="#377eb8">c0 &gt;= 5</text>
</g>
<!-- st0124&#45;&gt;st0123 -->
<g id="edge34" class="edge">
<title>st0124&#45;&gt;st0123</title>
<path fill="none" stroke="black" d="M705.3,-313.31C660.22,-319.09 587.13,-328.4 581,-328.79 544.18,-331.09 534.45,-334.46 498,-328.79 473.56,-324.98 447.28,-317.02 425.65,-309.37"/>
<polygon fill="black" stroke="black" points="426.66,-306.01 416.07,-305.89 424.27,-312.59 426.66,-306.01"/>
<text text-anchor="start" x="498" y="-335.59" font-family="arial" font-size="14.00" fill="#377eb8">(R&#39; || c0 &gt;= 5)</text>
</g>
<!-- st0124&#45;&gt;st02 -->
<g id="edge29" class="edge">
<title>st0124&#45;&gt;st02</title>
<path fill="none" stroke="black" d="M777.66,-322.06C817.31,-334.79 882.8,-348.94 933,-325.79 979.86,-304.17 1015.02,-253.96 1034.55,-219.93"/>
<polygon fill="black" stroke="black" points="1037.83,-221.24 1039.64,-210.8 1031.72,-217.83 1037.83,-221.24"/>
<text text-anchor="start" x="872" y="-341.59" font-family="arial" font-size="14.00" fill="#377eb8">c0 &gt;= 5</text>
</g>
<!-- st0124&#45;&gt;st023 -->
<g id="edge31" class="edge">
<title>st0124&#45;&gt;st023</title>
<path fill="none" stroke="black" d="M705.27,-317.98C697.61,-319.93 689.54,-321.96 682,-323.79 645.22,-332.71 629.63,-320.56 599,-342.79 586.41,-351.92 590.61,-360.56 581,-372.79 579.17,-375.12 577.21,-377.45 575.18,-379.76"/>
<polygon fill="black" stroke="black" points="572.3,-377.71 568.08,-387.43 577.44,-382.47 572.3,-377.71"/>
<text text-anchor="start" x="599" y="-346.59" font-family="arial" font-size="14.00" fill="#377eb8">(R&#39; || c0 &gt;= 5)</text>
</g>
<!-- st0124&#45;&gt;st024 -->
<g id="edge30" class="edge">
<title>st0124&#45;&gt;st024</title>
<path fill="none" stroke="black" d="M777.54,-284.11C785.01,-279.76 793.05,-275.69 801,-272.79 815.45,-267.5 831.87,-264.21 846.84,-262.16"/>
<polygon fill="black" stroke="black" points="847.44,-265.62 856.94,-260.93 846.59,-258.67 847.44,-265.62"/>
<text text-anchor="start" x="801" y="-276.59" font-family="arial" font-size="14.00" fill="#377eb8">c0 &lt; 5</text>
</g>
<!-- st0124&#45;&gt;st0124 -->
<g id="edge33" class="edge">
<title>st0124&#45;&gt;st0124</title>
<path fill="none" stroke="black" d="M726.93,-333.96C726.28,-343.7 731.14,-351.79 741.5,-351.79 747.97,-351.79 752.3,-348.63 754.47,-343.88"/>
<polygon fill="black" stroke="black" points="757.94,-344.39 756.07,-333.96 751.03,-343.28 757.94,-344.39"/>
<text text-anchor="start" x="722.5" y="-355.59" font-family="arial" font-size="14.00" fill="#377eb8">c0 &lt; 5</text>
</g>
</g>
</svg>
