<?xml version="1.0" encoding="UTF-8" standalone="no"?>
<!DOCTYPE svg PUBLIC "-//W3C//DTD SVG 1.1//EN"
 "http://www.w3.org/Graphics/SVG/1.1/DTD/svg11.dtd">
<!-- Generated by graphviz version 2.43.0 (0)
 -->
<!-- Title: G Pages: 1 -->
<svg width="909pt" height="237pt"
 viewBox="0.00 0.00 909.00 237.09" xmlns="http://www.w3.org/2000/svg" xmlns:xlink="http://www.w3.org/1999/xlink">
<g id="graph0" class="graph" transform="scale(1 1) rotate(0) translate(4 233.09)">
<title>G</title>
<polygon fill="white" stroke="transparent" points="-4,4 -4,-233.09 905,-233.09 905,4 -4,4"/>
<!-- _ID_122_ct0_st -->
<!-- ID_122_ct0_st -->
<g id="node2" class="node">
<title>ID_122_ct0_st</title>
<polygon fill="none" stroke="black" points="901,-168.09 794,-168.09 794,-118.09 901,-118.09 901,-168.09"/>
<text text-anchor="start" x="802" y="-153.89" font-family="arial" font-weight="bold" font-size="14.00">ID_122_ct0_st</text>
<text text-anchor="start" x="835.5" y="-139.89" font-family="arial" font-size="14.00" fill="#984ea3">true</text>
<text text-anchor="start" x="835.5" y="-125.89" font-family="arial" font-size="14.00" fill="#ff7f00">true</text>
</g>
<!-- _ID_122_ct0_st&#45;&gt;ID_122_ct0_st -->
<g id="edge1" class="edge">
<title>_ID_122_ct0_st&#45;&gt;ID_122_ct0_st</title>
<path fill="none" stroke="black" d="M737.58,-193.75C750.32,-189.3 763.74,-184.3 776,-179.09 780.7,-177.09 785.52,-174.92 790.33,-172.66"/>
<polygon fill="black" stroke="black" points="792.04,-175.72 799.53,-168.23 789,-169.41 792.04,-175.72"/>
</g>
<!-- ID_122_ct0_st&#45;&gt;ID_122_ct0_st -->
<g id="edge4" class="edge">
<title>ID_122_ct0_st&#45;&gt;ID_122_ct0_st</title>
<path fill="none" stroke="black" d="M832.93,-168.27C832.28,-178 837.14,-186.09 847.5,-186.09 853.97,-186.09 858.3,-182.93 860.47,-178.18"/>
<polygon fill="black" stroke="black" points="863.94,-178.7 862.07,-168.27 857.03,-177.58 863.94,-178.7"/>
<text text-anchor="start" x="835.5" y="-189.89" font-family="arial" font-size="14.00" fill="#377eb8">true</text>
</g>
<!-- _ID_122_ct0_st0 -->
<!-- ID_122_ct0_st0 -->
<g id="node4" class="node">
<title>ID_122_ct0_st0</title>
<polygon fill="none" stroke="black" points="276,-147.09 162,-147.09 162,-97.09 276,-97.09 276,-147.09"/>
<text text-anchor="start" x="170" y="-132.89" font-family="arial" font-weight="bold" font-size="14.00">ID_122_ct0_st0</text>
<text text-anchor="start" x="189" y="-118.89" font-family="arial" font-size="14.00" fill="#984ea3">(!Q &amp;&amp; R)</text>
<text text-anchor="start" x="207" y="-104.89" font-family="arial" font-size="14.00" fill="#ff7f00">true</text>
</g>
<!-- _ID_122_ct0_st0&#45;&gt;ID_122_ct0_st0 -->
<g id="edge2" class="edge">
<title>_ID_122_ct0_st0&#45;&gt;ID_122_ct0_st0</title>
<path fill="none" stroke="black" d="M119.15,-122.09C129.75,-122.09 140.88,-122.09 151.68,-122.09"/>
<polygon fill="black" stroke="black" points="151.92,-125.59 161.92,-122.09 151.92,-118.59 151.92,-125.59"/>
</g>
<!-- ID_122_ct0_st0&#45;&gt;ID_122_ct0_st -->
<g id="edge5" class="edge">
<title>ID_122_ct0_st0&#45;&gt;ID_122_ct0_st</title>
<path fill="none" stroke="black" d="M276.31,-131.72C284.25,-132.94 292.32,-134.1 300,-135.09 318.6,-137.49 323.28,-137.97 342,-139.09 519.93,-149.78 564.77,-148.67 743,-146.09 756.18,-145.9 770.3,-145.57 783.74,-145.2"/>
<polygon fill="black" stroke="black" points="783.96,-148.7 793.85,-144.91 783.76,-141.7 783.96,-148.7"/>
<text text-anchor="start" x="535" y="-150.89" font-family="arial" font-size="14.00" fill="#377eb8">Q&#39;</text>
</g>
<!-- ID_122_ct0_st0&#45;&gt;ID_122_ct0_st0 -->
<g id="edge6" class="edge">
<title>ID_122_ct0_st0&#45;&gt;ID_122_ct0_st0</title>
<path fill="none" stroke="black" d="M204.06,-147.27C203.39,-157 208.38,-165.09 219,-165.09 225.64,-165.09 230.08,-161.93 232.31,-157.18"/>
<polygon fill="black" stroke="black" points="235.77,-157.7 233.94,-147.27 228.86,-156.56 235.77,-157.7"/>
<text text-anchor="start" x="207" y="-168.89" font-family="arial" font-size="14.00" fill="#377eb8">true</text>
</g>
<!-- ID_122_ct0_st01 -->
<g id="node6" class="node">
<title>ID_122_ct0_st01</title>
<polygon fill="none" stroke="black" points="464,-53.09 342,-53.09 342,-3.09 464,-3.09 464,-53.09"/>
<text text-anchor="start" x="350" y="-38.89" font-family="arial" font-weight="bold" font-size="14.00">ID_122_ct0_st01</text>
<text text-anchor="start" x="371" y="-24.89" font-family="arial" font-size="14.00" fill="#984ea3">(!Q &amp;&amp; !R)</text>
<text text-anchor="start" x="391" y="-10.89" font-family="arial" font-size="14.00" fill="#ff7f00">true</text>
</g>
<!-- ID_122_ct0_st0&#45;&gt;ID_122_ct0_st01 -->
<g id="edge7" class="edge">
<title>ID_122_ct0_st0&#45;&gt;ID_122_ct0_st01</title>
<path fill="none" stroke="black" d="M268.77,-96.9C292.02,-84.89 319.99,-70.45 344.29,-57.9"/>
<polygon fill="black" stroke="black" points="346.13,-60.89 353.41,-53.19 342.92,-54.67 346.13,-60.89"/>
<text text-anchor="start" x="300" y="-83.89" font-family="arial" font-size="14.00" fill="#377eb8">true</text>
</g>
<!-- _ID_122_ct0_st01 -->
<!-- _ID_122_ct0_st01&#45;&gt;ID_122_ct0_st01 -->
<g id="edge3" class="edge">
<title>_ID_122_ct0_st01&#45;&gt;ID_122_ct0_st01</title>
<path fill="none" stroke="black" d="M282.13,-28.09C298.07,-28.09 315.34,-28.09 331.67,-28.09"/>
<polygon fill="black" stroke="black" points="331.69,-31.59 341.69,-28.09 331.69,-24.59 331.69,-31.59"/>
</g>
<!-- ID_122_ct0_st01&#45;&gt;ID_122_ct0_st -->
<g id="edge8" class="edge">
<title>ID_122_ct0_st01&#45;&gt;ID_122_ct0_st</title>
<path fill="none" stroke="black" d="M464.19,-13.46C534.85,0.46 653.74,13.45 743,-30.09 778.45,-47.38 807.55,-82.54 825.76,-109.07"/>
<polygon fill="black" stroke="black" points="823.06,-111.32 831.52,-117.7 828.88,-107.44 823.06,-111.32"/>
<text text-anchor="start" x="674.5" y="-33.89" font-family="arial" font-size="14.00" fill="#377eb8">Q&#39;</text>
</g>
<!-- ID_122_ct0_st01&#45;&gt;ID_122_ct0_st01 -->
<g id="edge10" class="edge">
<title>ID_122_ct0_st01&#45;&gt;ID_122_ct0_st01</title>
<path fill="none" stroke="black" d="M386.19,-53.27C385.44,-63 391.05,-71.09 403,-71.09 410.47,-71.09 415.46,-67.93 417.97,-63.18"/>
<polygon fill="black" stroke="black" points="421.43,-63.74 419.81,-53.27 414.54,-62.46 421.43,-63.74"/>
<text text-anchor="start" x="391" y="-74.89" font-family="arial" font-size="14.00" fill="#377eb8">true</text>
</g>
<!-- ID_122_ct0_st02 -->
<g id="node7" class="node">
<title>ID_122_ct0_st02</title>
<polygon fill="none" stroke="black" points="743,-104.09 621,-104.09 621,-54.09 743,-54.09 743,-104.09"/>
<text text-anchor="start" x="629" y="-89.89" font-family="arial" font-weight="bold" font-size="14.00">ID_122_ct0_st02</text>
<text text-anchor="start" x="652" y="-75.89" font-family="arial" font-size="14.00" fill="#984ea3">(!Q &amp;&amp; R)</text>
<text text-anchor="start" x="659" y="-61.89" font-family="arial" font-size="14.00" fill="#ff7f00">c0 &lt;= 5</text>
</g>
<!-- ID_122_ct0_st01&#45;&gt;ID_122_ct0_st02 -->
<g id="edge9" class="edge">
<title>ID_122_ct0_st01&#45;&gt;ID_122_ct0_st02</title>
<path fill="none" stroke="black" d="M464.35,-22.87C504.41,-21.17 557.74,-22.35 603,-35.09 614.23,-38.25 625.57,-43.34 636,-48.95"/>
<polygon fill="black" stroke="black" points="634.48,-52.11 644.91,-53.98 637.93,-46.02 634.48,-52.11"/>
<text text-anchor="start" x="530.5" y="-53.89" font-family="arial" font-size="14.00" fill="#377eb8">true</text>
<text text-anchor="start" x="523.5" y="-38.89" font-family="arial" font-size="14.00">c0 :=0</text>
</g>
<!-- ID_122_ct0_st02&#45;&gt;ID_122_ct0_st -->
<g id="edge11" class="edge">
<title>ID_122_ct0_st02&#45;&gt;ID_122_ct0_st</title>
<path fill="none" stroke="black" d="M743.42,-102.74C756.74,-107.96 770.87,-113.49 784.27,-118.73"/>
<polygon fill="black" stroke="black" points="783.28,-122.1 793.87,-122.49 785.83,-115.58 783.28,-122.1"/>
<text text-anchor="start" x="761" y="-117.89" font-family="arial" font-size="14.00" fill="#377eb8">Q&#39;</text>
</g>
<!-- ID_122_ct0_st02&#45;&gt;ID_122_ct0_st0 -->
<g id="edge12" class="edge">
<title>ID_122_ct0_st02&#45;&gt;ID_122_ct0_st0</title>
<path fill="none" stroke="black" d="M620.77,-95.75C614.8,-97.03 608.8,-98.18 603,-99.09 493.01,-116.33 363.38,-120.87 286.65,-121.93"/>
<polygon fill="black" stroke="black" points="286.13,-118.44 276.18,-122.06 286.22,-125.44 286.13,-118.44"/>
<text text-anchor="start" x="360.5" y="-123.89" font-family="arial" font-size="14.00" fill="#377eb8">(Q&#39; || c0 &gt;= 5)</text>
</g>
<!-- ID_122_ct0_st02&#45;&gt;ID_122_ct0_st01 -->
<g id="edge14" class="edge">
<title>ID_122_ct0_st02&#45;&gt;ID_122_ct0_st01</title>
<path fill="none" stroke="black" d="M620.85,-80.63C580.88,-80.25 527.56,-77.04 482,-65.09 474.27,-63.06 466.38,-60.27 458.72,-57.13"/>
<polygon fill="black" stroke="black" points="460.1,-53.91 449.53,-53.15 457.32,-60.34 460.1,-53.91"/>
<text text-anchor="start" x="482" y="-83.89" font-family="arial" font-size="14.00" fill="#377eb8">(Q&#39; || (R&#39; || c0 &gt;= 5))</text>
</g>
<!-- ID_122_ct0_st02&#45;&gt;ID_122_ct0_st02 -->
<g id="edge13" class="edge">
<title>ID_122_ct0_st02&#45;&gt;ID_122_ct0_st02</title>
<path fill="none" stroke="black" d="M665.94,-104.27C665.22,-114 670.58,-122.09 682,-122.09 689.14,-122.09 693.91,-118.93 696.31,-114.18"/>
<polygon fill="black" stroke="black" points="699.76,-114.72 698.06,-104.27 692.87,-113.5 699.76,-114.72"/>
<text text-anchor="start" x="663" y="-125.89" font-family="arial" font-size="14.00" fill="#377eb8">c0 &lt; 5</text>
</g>
</g>
</svg>
