<?xml version="1.0" encoding="UTF-8" standalone="no"?>
<!DOCTYPE svg PUBLIC "-//W3C//DTD SVG 1.1//EN"
 "http://www.w3.org/Graphics/SVG/1.1/DTD/svg11.dtd">
<!-- Generated by graphviz version 2.40.1 (20161225.0304)
 -->
<!-- Title: G Pages: 1 -->
<svg width="1540pt" height="674pt"
 viewBox="0.00 0.00 1540.00 674.00" xmlns="http://www.w3.org/2000/svg" xmlns:xlink="http://www.w3.org/1999/xlink">
<g id="graph0" class="graph" transform="scale(1 1) rotate(0) translate(4 670)">
<title>G</title>
<polygon fill="#ffffff" stroke="transparent" points="-4,4 -4,-670 1536,-670 1536,4 -4,4"/>
<!-- _st0 -->
<!-- st0 -->
<g id="node2" class="node">
<title>st0</title>
<polygon fill="none" stroke="#000000" points="157,-347 91,-347 91,-297 157,-297 157,-347"/>
<text text-anchor="start" x="113" y="-332.8" font-family="arial" font-weight="bold" font-size="14.00" fill="#000000">st0</text>
<text text-anchor="start" x="99" y="-318.8" font-family="arial" font-size="14.00" fill="#984ea3">(R || !Q)</text>
<text text-anchor="start" x="111.5" y="-304.8" font-family="arial" font-size="14.00" fill="#ff7f00">true</text>
</g>
<!-- _st0&#45;&gt;st0 -->
<g id="edge1" class="edge">
<title>_st0&#45;&gt;st0</title>
<path fill="none" stroke="#000000" d="M54.0199,-322C62.3287,-322 71.6915,-322 80.8018,-322"/>
<polygon fill="#000000" stroke="#000000" points="80.9106,-325.5001 90.9106,-322 80.9105,-318.5001 80.9106,-325.5001"/>
</g>
<!-- st0&#45;&gt;st0 -->
<g id="edge4" class="edge">
<title>st0&#45;&gt;st0</title>
<path fill="none" stroke="#000000" d="M114.6616,-347.1756C114.2466,-356.9095 117.3594,-365 124,-365 128.0466,-365 130.7832,-361.9957 132.2098,-357.446"/>
<polygon fill="#000000" stroke="#000000" points="135.7251,-357.4981 133.3384,-347.1756 128.767,-356.7335 135.7251,-357.4981"/>
<text text-anchor="start" x="111.5" y="-368.8" font-family="arial" font-size="14.00" fill="#377eb8">true</text>
</g>
<!-- st012 -->
<g id="node4" class="node">
<title>st012</title>
<polygon fill="none" stroke="#000000" points="342,-206 218,-206 218,-156 342,-156 342,-206"/>
<text text-anchor="start" x="261" y="-191.8" font-family="arial" font-weight="bold" font-size="14.00" fill="#000000">st012</text>
<text text-anchor="start" x="226" y="-177.8" font-family="arial" font-size="14.00" fill="#984ea3">(Q &amp;&amp; (!R &amp;&amp; S))</text>
<text text-anchor="start" x="267.5" y="-163.8" font-family="arial" font-size="14.00" fill="#ff7f00">true</text>
</g>
<!-- st0&#45;&gt;st012 -->
<g id="edge5" class="edge">
<title>st0&#45;&gt;st012</title>
<path fill="none" stroke="#000000" d="M130.1577,-296.9485C137.2149,-273.2438 151.0219,-238.2208 175,-217 184.565,-208.5349 196.2158,-202.0399 208.231,-197.0624"/>
<polygon fill="#000000" stroke="#000000" points="209.8053,-200.2085 217.9122,-193.3872 207.3209,-193.6642 209.8053,-200.2085"/>
<text text-anchor="start" x="175" y="-220.8" font-family="arial" font-size="14.00" fill="#377eb8">true</text>
</g>
<!-- st0123 -->
<g id="node6" class="node">
<title>st0123</title>
<polygon fill="none" stroke="#000000" points="1532,-437 1404,-437 1404,-387 1532,-387 1532,-437"/>
<text text-anchor="start" x="1445" y="-422.8" font-family="arial" font-weight="bold" font-size="14.00" fill="#000000">st0123</text>
<text text-anchor="start" x="1412" y="-408.8" font-family="arial" font-size="14.00" fill="#984ea3">(Q &amp;&amp; (!R &amp;&amp; !S))</text>
<text text-anchor="start" x="1455.5" y="-394.8" font-family="arial" font-size="14.00" fill="#ff7f00">true</text>
</g>
<!-- st0&#45;&gt;st0123 -->
<g id="edge6" class="edge">
<title>st0&#45;&gt;st0123</title>
<path fill="none" stroke="#000000" d="M125.208,-347.3557C128.7173,-410.7135 140.9195,-573.7394 175,-614 206.9683,-651.7654 230.5207,-651 280,-651 280,-651 280,-651 1277.5,-651 1328.449,-651 1348.9621,-648.9857 1386,-614 1433.7608,-568.8854 1454.453,-492.0786 1462.8261,-447.3004"/>
<polygon fill="#000000" stroke="#000000" points="1466.3207,-447.6372 1464.61,-437.1814 1459.427,-446.4218 1466.3207,-447.6372"/>
<text text-anchor="start" x="754" y="-654.8" font-family="arial" font-size="14.00" fill="#377eb8">true</text>
</g>
<!-- _st012 -->
<!-- _st012&#45;&gt;st012 -->
<g id="edge2" class="edge">
<title>_st012&#45;&gt;st012</title>
<path fill="none" stroke="#000000" d="M154.8206,-181C170.1,-181 189.2483,-181 207.9391,-181"/>
<polygon fill="#000000" stroke="#000000" points="207.9473,-184.5001 217.9472,-181 207.9472,-177.5001 207.9473,-184.5001"/>
</g>
<!-- st012&#45;&gt;st0 -->
<g id="edge12" class="edge">
<title>st012&#45;&gt;st0</title>
<path fill="none" stroke="#000000" d="M239.2327,-206.0542C218.8469,-219.5605 194.4437,-237.2747 175,-256 164.8598,-265.7655 155.0662,-277.6323 146.8183,-288.596"/>
<polygon fill="#000000" stroke="#000000" points="143.9262,-286.6213 140.8323,-296.7543 149.57,-290.7623 143.9262,-286.6213"/>
<text text-anchor="start" x="180.5" y="-259.8" font-family="arial" font-size="14.00" fill="#377eb8">R&#39;</text>
</g>
<!-- st012&#45;&gt;st012 -->
<g id="edge15" class="edge">
<title>st012&#45;&gt;st012</title>
<path fill="none" stroke="#000000" d="M262.8174,-206.1756C262.0537,-215.9095 267.7813,-224 280,-224 287.6367,-224 292.7378,-220.8397 295.3033,-216.093"/>
<polygon fill="#000000" stroke="#000000" points="298.7595,-216.6525 297.1826,-206.1756 291.8819,-215.3491 298.7595,-216.6525"/>
<text text-anchor="start" x="267.5" y="-227.8" font-family="arial" font-size="14.00" fill="#377eb8">true</text>
</g>
<!-- st012&#45;&gt;st0123 -->
<g id="edge16" class="edge">
<title>st012&#45;&gt;st0123</title>
<path fill="none" stroke="#000000" d="M296.7228,-155.7636C326.1633,-114.7112 391.4806,-38 468.5,-38 468.5,-38 468.5,-38 874.5,-38 1085.8114,-38 1168.9165,.7807 1343,-119 1430.1792,-178.9849 1456.8694,-312.9926 1464.7902,-376.8536"/>
<polygon fill="#000000" stroke="#000000" points="1461.3196,-377.3105 1465.9458,-386.8419 1468.2733,-376.5059 1461.3196,-377.3105"/>
<text text-anchor="start" x="862" y="-41.8" font-family="arial" font-size="14.00" fill="#377eb8">true</text>
</g>
<!-- st02 -->
<g id="node7" class="node">
<title>st02</title>
<polygon fill="none" stroke="#000000" points="1341.5,-178 1213.5,-178 1213.5,-128 1341.5,-128 1341.5,-178"/>
<text text-anchor="start" x="1262.5" y="-163.8" font-family="arial" font-weight="bold" font-size="14.00" fill="#000000">st02</text>
<text text-anchor="start" x="1221.5" y="-149.8" font-family="arial" font-size="14.00" fill="#984ea3">(!Q &amp;&amp; (!R &amp;&amp; S))</text>
<text text-anchor="start" x="1265" y="-135.8" font-family="arial" font-size="14.00" fill="#ff7f00">true</text>
</g>
<!-- st012&#45;&gt;st02 -->
<g id="edge13" class="edge">
<title>st012&#45;&gt;st02</title>
<path fill="none" stroke="#000000" d="M308.0351,-155.7676C342.9697,-127.027 405.7484,-84 468.5,-84 468.5,-84 468.5,-84 981,-84 1058.4742,-84 1144.4413,-106.6242 1203.7722,-125.9628"/>
<polygon fill="#000000" stroke="#000000" points="1202.8341,-129.3389 1213.4274,-129.1575 1205.0331,-122.6933 1202.8341,-129.3389"/>
<text text-anchor="start" x="754" y="-87.8" font-family="arial" font-size="14.00" fill="#377eb8">true</text>
</g>
<!-- st023 -->
<g id="node8" class="node">
<title>st023</title>
<polygon fill="none" stroke="#000000" points="534,-385 403,-385 403,-335 534,-335 534,-385"/>
<text text-anchor="start" x="449.5" y="-370.8" font-family="arial" font-weight="bold" font-size="14.00" fill="#000000">st023</text>
<text text-anchor="start" x="411" y="-356.8" font-family="arial" font-size="14.00" fill="#984ea3">(!Q &amp;&amp; (!R &amp;&amp; !S))</text>
<text text-anchor="start" x="456" y="-342.8" font-family="arial" font-size="14.00" fill="#ff7f00">true</text>
</g>
<!-- st012&#45;&gt;st023 -->
<g id="edge14" class="edge">
<title>st012&#45;&gt;st023</title>
<path fill="none" stroke="#000000" d="M291.5656,-206.3808C304.8991,-233.3784 329.0173,-275.9758 360,-304 370.985,-313.936 384.0567,-322.6201 397.2575,-329.9953"/>
<polygon fill="#000000" stroke="#000000" points="395.9259,-333.2526 406.3932,-334.8915 399.2325,-327.0828 395.9259,-333.2526"/>
<text text-anchor="start" x="360" y="-325.8" font-family="arial" font-size="14.00" fill="#377eb8">true</text>
</g>
<!-- _st0123 -->
<!-- _st0123&#45;&gt;st0123 -->
<g id="edge3" class="edge">
<title>_st0123&#45;&gt;st0123</title>
<path fill="none" stroke="#000000" d="M1312.2249,-549.5624C1334.8333,-545.345 1364.0852,-537.268 1386,-522 1413.9014,-502.5612 1436.1846,-470.5943 1450.4388,-446.1175"/>
<polygon fill="#000000" stroke="#000000" points="1453.6358,-447.5739 1455.5037,-437.145 1447.54,-444.1328 1453.6358,-447.5739"/>
</g>
<!-- st0123&#45;&gt;st0 -->
<g id="edge22" class="edge">
<title>st0123&#45;&gt;st0</title>
<path fill="none" stroke="#000000" d="M1454.7437,-437.3157C1439.8785,-464.559 1414.14,-508.4849 1386,-542 1350.8397,-583.8763 1332.1798,-600 1277.5,-600 280,-600 280,-600 280,-600 170.0176,-600 136.7823,-432.4761 127.4161,-357.5178"/>
<polygon fill="#000000" stroke="#000000" points="130.8425,-356.685 126.2011,-347.161 123.8902,-357.5007 130.8425,-356.685"/>
<text text-anchor="start" x="759.5" y="-603.8" font-family="arial" font-size="14.00" fill="#377eb8">R&#39;</text>
</g>
<!-- st0123&#45;&gt;st0123 -->
<g id="edge26" class="edge">
<title>st0123&#45;&gt;st0123</title>
<path fill="none" stroke="#000000" d="M1450.4438,-437.1756C1449.6636,-446.9095 1455.5156,-455 1468,-455 1475.8027,-455 1481.0147,-451.8397 1483.6359,-447.093"/>
<polygon fill="#000000" stroke="#000000" points="1487.0913,-447.6586 1485.5562,-437.1756 1480.219,-446.3279 1487.0913,-447.6586"/>
<text text-anchor="start" x="1455.5" y="-458.8" font-family="arial" font-size="14.00" fill="#377eb8">true</text>
</g>
<!-- st0123&#45;&gt;st023 -->
<g id="edge24" class="edge">
<title>st0123&#45;&gt;st023</title>
<path fill="none" stroke="#000000" d="M1403.7724,-426.6502C1384.3531,-430.4511 1362.901,-434.0282 1343,-436 1034.1663,-466.5998 834.0283,-449.3284 701,-440 634.2871,-435.3219 614.166,-443.6553 552,-419 535.3299,-412.3886 518.8124,-401.8063 504.9235,-391.4171"/>
<polygon fill="#000000" stroke="#000000" points="506.6894,-388.3583 496.6374,-385.0105 502.4077,-393.8961 506.6894,-388.3583"/>
<text text-anchor="start" x="968.5" y="-456.8" font-family="arial" font-size="14.00" fill="#377eb8">true</text>
</g>
<!-- st024 -->
<g id="node9" class="node">
<title>st024</title>
<polygon fill="none" stroke="#000000" points="1045,-386 917,-386 917,-336 1045,-336 1045,-386"/>
<text text-anchor="start" x="962" y="-371.8" font-family="arial" font-weight="bold" font-size="14.00" fill="#000000">st024</text>
<text text-anchor="start" x="925" y="-357.8" font-family="arial" font-size="14.00" fill="#984ea3">(!Q &amp;&amp; (!R &amp;&amp; S))</text>
<text text-anchor="start" x="952.5" y="-343.8" font-family="arial" font-size="14.00" fill="#ff7f00">c0 &lt;= 50</text>
</g>
<!-- st0123&#45;&gt;st024 -->
<g id="edge23" class="edge">
<title>st0123&#45;&gt;st024</title>
<path fill="none" stroke="#000000" d="M1403.9972,-407.7023C1324.0236,-401.9762 1183.0647,-390.7095 1063,-375 1060.494,-374.6721 1057.9474,-374.3236 1055.3775,-373.9589"/>
<polygon fill="#000000" stroke="#000000" points="1055.7908,-370.482 1045.3862,-372.4808 1054.7663,-377.4066 1055.7908,-370.482"/>
<text text-anchor="start" x="1265" y="-420.8" font-family="arial" font-size="14.00" fill="#377eb8">true</text>
<text text-anchor="start" x="1257.5" y="-405.8" font-family="arial" font-size="14.00" fill="#000000">c0 :=0</text>
</g>
<!-- st0124 -->
<g id="node10" class="node">
<title>st0124</title>
<polygon fill="none" stroke="#000000" points="828.5,-259 704.5,-259 704.5,-209 828.5,-209 828.5,-259"/>
<text text-anchor="start" x="743.5" y="-244.8" font-family="arial" font-weight="bold" font-size="14.00" fill="#000000">st0124</text>
<text text-anchor="start" x="712.5" y="-230.8" font-family="arial" font-size="14.00" fill="#984ea3">(Q &amp;&amp; (!R &amp;&amp; S))</text>
<text text-anchor="start" x="738" y="-216.8" font-family="arial" font-size="14.00" fill="#ff7f00">c0 &lt;= 50</text>
</g>
<!-- st0123&#45;&gt;st0124 -->
<g id="edge25" class="edge">
<title>st0123&#45;&gt;st0124</title>
<path fill="none" stroke="#000000" d="M1420.7673,-386.9188C1397.8422,-375.6734 1369.5682,-363.1378 1343,-355 1295.0751,-340.3207 982.4634,-277.1637 838.665,-248.3862"/>
<polygon fill="#000000" stroke="#000000" points="839.1015,-244.9043 828.6092,-246.3748 837.7285,-251.7683 839.1015,-244.9043"/>
<text text-anchor="start" x="1116" y="-338.8" font-family="arial" font-size="14.00" fill="#377eb8">true</text>
<text text-anchor="start" x="1108.5" y="-323.8" font-family="arial" font-size="14.00" fill="#000000">c0 :=0</text>
</g>
<!-- st02&#45;&gt;st0 -->
<g id="edge7" class="edge">
<title>st02&#45;&gt;st0</title>
<path fill="none" stroke="#000000" d="M1250.7767,-127.7702C1235.2396,-114.2906 1214.6886,-98.3822 1194,-88 1062.3584,-21.9381 1021.7877,0 874.5,0 280,0 280,0 280,0 248.3636,0 168.2896,-203.9097 136.9031,-287.1961"/>
<polygon fill="#000000" stroke="#000000" points="133.5608,-286.141 133.3234,-296.7332 140.1143,-288.6009 133.5608,-286.141"/>
<text text-anchor="start" x="610.5" y="-3.8" font-family="arial" font-size="14.00" fill="#377eb8">R&#39;</text>
</g>
<!-- st02&#45;&gt;st012 -->
<g id="edge10" class="edge">
<title>st02&#45;&gt;st012</title>
<path fill="none" stroke="#000000" d="M1213.252,-147.1589C1206.7528,-146.7045 1200.2479,-146.3047 1194,-146 1081.1756,-140.4984 800.0307,-136.306 701,-141 578.3267,-146.8146 436.2213,-162.1084 352.453,-172.0112"/>
<polygon fill="#000000" stroke="#000000" points="351.798,-168.5644 342.2814,-173.2211 352.6249,-175.5154 351.798,-168.5644"/>
<text text-anchor="start" x="754" y="-144.8" font-family="arial" font-size="14.00" fill="#377eb8">true</text>
</g>
<!-- st02&#45;&gt;st0123 -->
<g id="edge11" class="edge">
<title>st02&#45;&gt;st0123</title>
<path fill="none" stroke="#000000" d="M1341.5173,-177.2352C1357.6226,-185.6869 1373.782,-196.5206 1386,-210 1429.8876,-258.4189 1451.8755,-333.4112 1461.5406,-377.1075"/>
<polygon fill="#000000" stroke="#000000" points="1458.1362,-377.9259 1463.6324,-386.9836 1464.9842,-376.4753 1458.1362,-377.9259"/>
<text text-anchor="start" x="1361" y="-213.8" font-family="arial" font-size="14.00" fill="#377eb8">true</text>
</g>
<!-- st02&#45;&gt;st02 -->
<g id="edge8" class="edge">
<title>st02&#45;&gt;st02</title>
<path fill="none" stroke="#000000" d="M1259.5703,-178.1756C1258.7734,-187.9095 1264.75,-196 1277.5,-196 1285.4688,-196 1290.7916,-192.8397 1293.4686,-188.093"/>
<polygon fill="#000000" stroke="#000000" points="1296.9233,-188.6647 1295.4297,-178.1756 1290.0562,-187.3067 1296.9233,-188.6647"/>
<text text-anchor="start" x="1265" y="-199.8" font-family="arial" font-size="14.00" fill="#377eb8">true</text>
</g>
<!-- st02&#45;&gt;st023 -->
<g id="edge9" class="edge">
<title>st02&#45;&gt;st023</title>
<path fill="none" stroke="#000000" d="M1213.4768,-151.3804C1056.9361,-148.5885 659.7588,-148.903 552,-220 514.6438,-244.6468 491.5767,-292.267 479.4,-325.0723"/>
<polygon fill="#000000" stroke="#000000" points="476.0165,-324.1411 475.9669,-334.7358 482.6127,-326.4845 476.0165,-324.1411"/>
<text text-anchor="start" x="862" y="-161.8" font-family="arial" font-size="14.00" fill="#377eb8">true</text>
</g>
<!-- st023&#45;&gt;st0 -->
<g id="edge17" class="edge">
<title>st023&#45;&gt;st0</title>
<path fill="none" stroke="#000000" d="M402.7929,-352.7522C333.5382,-345.1131 226.4456,-333.3002 167.1729,-326.7622"/>
<polygon fill="#000000" stroke="#000000" points="167.3556,-323.2612 157.0321,-325.6436 166.5881,-330.219 167.3556,-323.2612"/>
<text text-anchor="start" x="273" y="-349.8" font-family="arial" font-size="14.00" fill="#377eb8">R&#39;</text>
</g>
<!-- st023&#45;&gt;st0123 -->
<g id="edge21" class="edge">
<title>st023&#45;&gt;st0123</title>
<path fill="none" stroke="#000000" d="M476.4525,-385.2013C487.7153,-416.0839 511.5734,-467.0111 552,-489 714.811,-577.5566 1213.0457,-550.6071 1386,-484 1407.0771,-475.8829 1426.3068,-459.7111 1440.8387,-444.747"/>
<polygon fill="#000000" stroke="#000000" points="1443.7295,-446.7794 1447.9946,-437.0809 1438.6124,-442.0028 1443.7295,-446.7794"/>
<text text-anchor="start" x="968.5" y="-548.8" font-family="arial" font-size="14.00" fill="#377eb8">true</text>
</g>
<!-- st023&#45;&gt;st023 -->
<g id="edge19" class="edge">
<title>st023&#45;&gt;st023</title>
<path fill="none" stroke="#000000" d="M450.5703,-385.1756C449.7734,-394.9095 455.75,-403 468.5,-403 476.4688,-403 481.7916,-399.8397 484.4686,-395.093"/>
<polygon fill="#000000" stroke="#000000" points="487.9233,-395.6647 486.4297,-385.1756 481.0562,-394.3067 487.9233,-395.6647"/>
<text text-anchor="start" x="456" y="-406.8" font-family="arial" font-size="14.00" fill="#377eb8">true</text>
</g>
<!-- st023&#45;&gt;st024 -->
<g id="edge18" class="edge">
<title>st023&#45;&gt;st024</title>
<path fill="none" stroke="#000000" d="M507.7522,-385.0737C521.2414,-392.3443 536.7868,-399.3129 552,-403 595.7237,-413.5969 870.716,-402.2627 899,-396 906.1691,-394.4126 913.4969,-392.2117 920.6784,-389.6792"/>
<polygon fill="#000000" stroke="#000000" points="922.2208,-392.8387 930.3522,-386.0467 919.76,-386.2855 922.2208,-392.8387"/>
<text text-anchor="start" x="754" y="-424.8" font-family="arial" font-size="14.00" fill="#377eb8">true</text>
<text text-anchor="start" x="746.5" y="-409.8" font-family="arial" font-size="14.00" fill="#000000">c0 :=0</text>
</g>
<!-- st023&#45;&gt;st0124 -->
<g id="edge20" class="edge">
<title>st023&#45;&gt;st0124</title>
<path fill="none" stroke="#000000" d="M502.2798,-334.8328C516.8957,-325.0657 534.6141,-314.6513 552,-308 607.2104,-286.8781 627.6985,-305.8822 683,-285 696.6828,-279.8333 710.6071,-272.3729 723.0628,-264.7462"/>
<polygon fill="#000000" stroke="#000000" points="725.2649,-267.4949 731.8484,-259.1938 721.5252,-261.5776 725.2649,-267.4949"/>
<text text-anchor="start" x="605" y="-326.8" font-family="arial" font-size="14.00" fill="#377eb8">true</text>
<text text-anchor="start" x="597.5" y="-311.8" font-family="arial" font-size="14.00" fill="#000000">c0 :=0</text>
</g>
<!-- st024&#45;&gt;st0 -->
<g id="edge27" class="edge">
<title>st024&#45;&gt;st0</title>
<path fill="none" stroke="#000000" d="M954.7619,-386.2305C898.1263,-437.9143 758.1369,-551 617.5,-551 280,-551 280,-551 280,-551 187.4959,-551 145.9413,-421.7915 130.9881,-357.4849"/>
<polygon fill="#000000" stroke="#000000" points="134.3277,-356.3798 128.7339,-347.382 127.4957,-357.9042 134.3277,-356.3798"/>
<text text-anchor="start" x="461.5" y="-554.8" font-family="arial" font-size="14.00" fill="#377eb8">R&#39;</text>
</g>
<!-- st024&#45;&gt;st012 -->
<g id="edge31" class="edge">
<title>st024&#45;&gt;st012</title>
<path fill="none" stroke="#000000" d="M916.7314,-353.9691C895.3895,-351.1567 871.5741,-347.5003 850,-343 782.647,-328.9502 754.2705,-344.544 701,-301 687.4567,-289.9296 697.0875,-276.3691 683,-266 581.2545,-191.1098 526.0378,-245.6772 403,-217 386.335,-213.1158 368.5822,-208.3164 351.8992,-203.5021"/>
<polygon fill="#000000" stroke="#000000" points="352.7967,-200.1181 342.2164,-200.6727 350.8333,-206.8371 352.7967,-200.1181"/>
<text text-anchor="start" x="570.5" y="-269.8" font-family="arial" font-size="14.00" fill="#377eb8">(R&#39; || c0 &gt;= 50)</text>
</g>
<!-- st024&#45;&gt;st0123 -->
<g id="edge33" class="edge">
<title>st024&#45;&gt;st0123</title>
<path fill="none" stroke="#000000" d="M1045.2769,-357.9533C1118.0588,-355.6981 1239.9271,-355.542 1343,-373 1359.8629,-375.8562 1377.6104,-380.4019 1394.266,-385.3975"/>
<polygon fill="#000000" stroke="#000000" points="1393.344,-388.7758 1403.9315,-388.3814 1395.4089,-382.0873 1393.344,-388.7758"/>
<text text-anchor="start" x="1212" y="-376.8" font-family="arial" font-size="14.00" fill="#377eb8">(R&#39; || (S&#39; || c0 &gt;= 50))</text>
</g>
<!-- st024&#45;&gt;st02 -->
<g id="edge28" class="edge">
<title>st024&#45;&gt;st02</title>
<path fill="none" stroke="#000000" d="M998.8989,-335.7987C1013.817,-316.7916 1036.8042,-291.7255 1063,-278 1115.3608,-250.5651 1142.9762,-284.8478 1194,-255 1221.5532,-238.882 1243.87,-210.047 1258.4768,-187.1381"/>
<polygon fill="#000000" stroke="#000000" points="1261.6125,-188.7212 1263.8804,-178.3719 1255.6536,-185.0481 1261.6125,-188.7212"/>
<text text-anchor="start" x="1081.5" y="-281.8" font-family="arial" font-size="14.00" fill="#377eb8">(R&#39; || c0 &gt;= 50)</text>
</g>
<!-- st024&#45;&gt;st023 -->
<g id="edge30" class="edge">
<title>st024&#45;&gt;st023</title>
<path fill="none" stroke="#000000" d="M916.8857,-368.4037C832.8871,-376.9223 681.0924,-388.2566 552,-376 549.4928,-375.762 546.9489,-375.4846 544.3843,-375.1741"/>
<polygon fill="#000000" stroke="#000000" points="544.8028,-371.6989 534.4237,-373.8263 543.8641,-378.6357 544.8028,-371.6989"/>
<text text-anchor="start" x="701" y="-384.8" font-family="arial" font-size="14.00" fill="#377eb8">(R&#39; || (S&#39; || c0 &gt;= 50))</text>
</g>
<!-- st024&#45;&gt;st024 -->
<g id="edge29" class="edge">
<title>st024&#45;&gt;st024</title>
<path fill="none" stroke="#000000" d="M961.2026,-386.1756C960.3228,-395.9095 966.9219,-404 981,-404 989.7988,-404 995.6762,-400.8397 998.632,-396.093"/>
<polygon fill="#000000" stroke="#000000" points="1002.0836,-396.6921 1000.7974,-386.1756 995.2447,-395.1988 1002.0836,-396.6921"/>
<text text-anchor="start" x="956.5" y="-407.8" font-family="arial" font-size="14.00" fill="#377eb8">c0 &lt; 50</text>
</g>
<!-- st024&#45;&gt;st0124 -->
<g id="edge32" class="edge">
<title>st024&#45;&gt;st0124</title>
<path fill="none" stroke="#000000" d="M945.2535,-335.9488C935.7057,-328.6479 925.6461,-320.3712 917,-312 907.9237,-303.2122 909.1146,-297.5697 899,-290 893.2965,-285.7316 866.3552,-274.1433 838.2409,-262.6082"/>
<polygon fill="#000000" stroke="#000000" points="839.2716,-259.2486 828.6905,-258.709 836.6257,-265.7293 839.2716,-259.2486"/>
<text text-anchor="start" x="850" y="-293.8" font-family="arial" font-size="14.00" fill="#377eb8">c0 &lt; 50</text>
</g>
<!-- st0124&#45;&gt;st0 -->
<g id="edge34" class="edge">
<title>st0124&#45;&gt;st0</title>
<path fill="none" stroke="#000000" d="M704.3844,-235.909C661.4694,-237.6818 603.1329,-240.9899 552,-247 410.0286,-263.6872 243.7308,-296.7632 166.906,-312.8229"/>
<polygon fill="#000000" stroke="#000000" points="166.1768,-309.3996 157.1095,-314.8801 167.6154,-316.2502 166.1768,-309.3996"/>
<text text-anchor="start" x="365.5" y="-278.8" font-family="arial" font-size="14.00" fill="#377eb8">R&#39;</text>
</g>
<!-- st0124&#45;&gt;st012 -->
<g id="edge38" class="edge">
<title>st0124&#45;&gt;st012</title>
<path fill="none" stroke="#000000" d="M704.1559,-220.5944C697.0392,-219.2762 689.8745,-218.0431 683,-217 567.9478,-199.5421 433.0367,-189.6033 352.1499,-184.7629"/>
<polygon fill="#000000" stroke="#000000" points="352.2621,-181.2635 342.0736,-184.1696 351.8506,-188.2514 352.2621,-181.2635"/>
<text text-anchor="start" x="421.5" y="-201.8" font-family="arial" font-size="14.00" fill="#377eb8">(R&#39; || c0 &gt;= 50)</text>
</g>
<!-- st0124&#45;&gt;st0123 -->
<g id="edge40" class="edge">
<title>st0124&#45;&gt;st0123</title>
<path fill="none" stroke="#000000" d="M828.5641,-232.549C938.6449,-230.2331 1159.7655,-226.836 1194,-236 1291.0024,-261.9659 1385.2962,-336.6202 1433.9471,-379.9043"/>
<polygon fill="#000000" stroke="#000000" points="1431.8659,-382.74 1441.6405,-386.8277 1436.5485,-377.5367 1431.8659,-382.74"/>
<text text-anchor="start" x="1063" y="-239.8" font-family="arial" font-size="14.00" fill="#377eb8">(R&#39; || (S&#39; || c0 &gt;= 50))</text>
</g>
<!-- st0124&#45;&gt;st02 -->
<g id="edge35" class="edge">
<title>st0124&#45;&gt;st02</title>
<path fill="none" stroke="#000000" d="M828.9302,-223.3003C836.0311,-222.1523 843.1686,-221.0292 850,-220 1002.5286,-197.0215 1042.5162,-203.0799 1194,-174 1197.1562,-173.3941 1200.3712,-172.7419 1203.6129,-172.0554"/>
<polygon fill="#000000" stroke="#000000" points="1204.3716,-175.4722 1213.3858,-169.905 1202.8672,-168.6358 1204.3716,-175.4722"/>
<text text-anchor="start" x="934" y="-213.8" font-family="arial" font-size="14.00" fill="#377eb8">(R&#39; || c0 &gt;= 50)</text>
</g>
<!-- st0124&#45;&gt;st023 -->
<g id="edge37" class="edge">
<title>st0124&#45;&gt;st023</title>
<path fill="none" stroke="#000000" d="M753.8094,-259.437C740.0249,-284.0963 715.5436,-320.2951 683,-338 659.6475,-350.7046 596.1814,-356.0838 544.3007,-358.3554"/>
<polygon fill="#000000" stroke="#000000" points="543.9442,-354.8669 534.0943,-358.7695 544.228,-361.8611 543.9442,-354.8669"/>
<text text-anchor="start" x="552" y="-360.8" font-family="arial" font-size="14.00" fill="#377eb8">(R&#39; || (S&#39; || c0 &gt;= 50))</text>
</g>
<!-- st0124&#45;&gt;st024 -->
<g id="edge36" class="edge">
<title>st0124&#45;&gt;st024</title>
<path fill="none" stroke="#000000" d="M791.9859,-259.2052C807.7631,-273.8736 828.9669,-291.9792 850,-305 856.0226,-308.7284 882.8847,-320.3327 910.7307,-332.018"/>
<polygon fill="#000000" stroke="#000000" points="909.6071,-335.3418 920.1831,-335.9727 912.3088,-328.8842 909.6071,-335.3418"/>
<text text-anchor="start" x="850" y="-329.8" font-family="arial" font-size="14.00" fill="#377eb8">c0 &lt; 50</text>
</g>
<!-- st0124&#45;&gt;st0124 -->
<g id="edge39" class="edge">
<title>st0124&#45;&gt;st0124</title>
<path fill="none" stroke="#000000" d="M746.3291,-259.1756C745.4326,-268.9095 752.1563,-277 766.5,-277 775.4648,-277 781.4531,-273.8397 784.4647,-269.093"/>
<polygon fill="#000000" stroke="#000000" points="787.9158,-269.6971 786.6709,-259.1756 781.0828,-268.177 787.9158,-269.6971"/>
<text text-anchor="start" x="742" y="-280.8" font-family="arial" font-size="14.00" fill="#377eb8">c0 &lt; 50</text>
</g>
</g>
</svg>
