<?xml version="1.0" encoding="UTF-8" standalone="no"?>
<!DOCTYPE svg PUBLIC "-//W3C//DTD SVG 1.1//EN"
 "http://www.w3.org/Graphics/SVG/1.1/DTD/svg11.dtd">
<!-- Generated by graphviz version 2.43.0 (0)
 -->
<!-- Title: G Pages: 1 -->
<svg width="615pt" height="250pt"
 viewBox="0.00 0.00 615.00 250.00" xmlns="http://www.w3.org/2000/svg" xmlns:xlink="http://www.w3.org/1999/xlink">
<g id="graph0" class="graph" transform="scale(1 1) rotate(0) translate(4 246)">
<title>G</title>
<polygon fill="white" stroke="transparent" points="-4,4 -4,-246 611,-246 611,4 -4,4"/>
<!-- _ID_87_ct0_stinit -->
<!-- ID_87_ct0_stinit -->
<g id="node2" class="node">
<title>ID_87_ct0_stinit</title>
<polygon fill="none" stroke="black" points="448,-209 329,-209 329,-159 448,-159 448,-209"/>
<text text-anchor="start" x="337" y="-194.8" font-family="arial" font-weight="bold" font-size="14.00">ID_87_ct0_stinit</text>
<text text-anchor="start" x="383.5" y="-180.8" font-family="arial" font-size="14.00" fill="#984ea3">P</text>
<text text-anchor="start" x="376.5" y="-166.8" font-family="arial" font-size="14.00" fill="#ff7f00">true</text>
</g>
<!-- _ID_87_ct0_stinit&#45;&gt;ID_87_ct0_stinit -->
<g id="edge1" class="edge">
<title>_ID_87_ct0_stinit&#45;&gt;ID_87_ct0_stinit</title>
<path fill="none" stroke="black" d="M269.27,-184C285.16,-184 302.45,-184 318.78,-184"/>
<polygon fill="black" stroke="black" points="318.8,-187.5 328.8,-184 318.8,-180.5 318.8,-187.5"/>
</g>
<!-- ID_87_ct0_stinit&#45;&gt;ID_87_ct0_stinit -->
<g id="edge5" class="edge">
<title>ID_87_ct0_stinit&#45;&gt;ID_87_ct0_stinit</title>
<path fill="none" stroke="black" d="M372.06,-209.18C371.33,-218.91 376.81,-227 388.5,-227 395.8,-227 400.68,-223.84 403.14,-219.09"/>
<polygon fill="black" stroke="black" points="406.6,-219.64 404.94,-209.18 399.71,-218.39 406.6,-219.64"/>
<text text-anchor="start" x="376.5" y="-230.8" font-family="arial" font-size="14.00" fill="#377eb8">true</text>
</g>
<!-- ID_87_ct0_st -->
<g id="node7" class="node">
<title>ID_87_ct0_st</title>
<polygon fill="none" stroke="black" points="607,-108 508,-108 508,-58 607,-58 607,-108"/>
<text text-anchor="start" x="516" y="-93.8" font-family="arial" font-weight="bold" font-size="14.00">ID_87_ct0_st</text>
<text text-anchor="start" x="545.5" y="-79.8" font-family="arial" font-size="14.00" fill="#984ea3">true</text>
<text text-anchor="start" x="545.5" y="-65.8" font-family="arial" font-size="14.00" fill="#ff7f00">true</text>
</g>
<!-- ID_87_ct0_stinit&#45;&gt;ID_87_ct0_st -->
<g id="edge4" class="edge">
<title>ID_87_ct0_stinit&#45;&gt;ID_87_ct0_st</title>
<path fill="none" stroke="black" d="M433.02,-158.88C438.08,-155.9 443.16,-152.9 448,-150 467.67,-138.21 489.19,-124.99 507.84,-113.43"/>
<polygon fill="black" stroke="black" points="509.82,-116.32 516.47,-108.08 506.12,-110.38 509.82,-116.32"/>
<text text-anchor="start" x="466" y="-140.8" font-family="arial" font-size="14.00" fill="#377eb8">true</text>
</g>
<!-- _ID_87_ct0_st0 -->
<!-- ID_87_ct0_st0 -->
<g id="node4" class="node">
<title>ID_87_ct0_st0</title>
<polygon fill="none" stroke="black" points="262,-50 155,-50 155,0 262,0 262,-50"/>
<text text-anchor="start" x="163" y="-35.8" font-family="arial" font-weight="bold" font-size="14.00">ID_87_ct0_st0</text>
<text text-anchor="start" x="178" y="-21.8" font-family="arial" font-size="14.00" fill="#984ea3">(!P &amp;&amp; !R)</text>
<text text-anchor="start" x="196.5" y="-7.8" font-family="arial" font-size="14.00" fill="#ff7f00">true</text>
</g>
<!-- _ID_87_ct0_st0&#45;&gt;ID_87_ct0_st0 -->
<g id="edge2" class="edge">
<title>_ID_87_ct0_st0&#45;&gt;ID_87_ct0_st0</title>
<path fill="none" stroke="black" d="M111.01,-25C121.94,-25 133.51,-25 144.7,-25"/>
<polygon fill="black" stroke="black" points="144.83,-28.5 154.83,-25 144.83,-21.5 144.83,-28.5"/>
</g>
<!-- ID_87_ct0_st0&#45;&gt;ID_87_ct0_st0 -->
<g id="edge8" class="edge">
<title>ID_87_ct0_st0&#45;&gt;ID_87_ct0_st0</title>
<path fill="none" stroke="black" d="M193.93,-50.18C193.28,-59.91 198.14,-68 208.5,-68 214.97,-68 219.3,-64.84 221.47,-60.09"/>
<polygon fill="black" stroke="black" points="224.94,-60.6 223.07,-50.18 218.03,-59.49 224.94,-60.6"/>
<text text-anchor="start" x="196.5" y="-71.8" font-family="arial" font-size="14.00" fill="#377eb8">true</text>
</g>
<!-- ID_87_ct0_st01 -->
<g id="node6" class="node">
<title>ID_87_ct0_st01</title>
<polygon fill="none" stroke="black" points="445.5,-108 331.5,-108 331.5,-58 445.5,-58 445.5,-108"/>
<text text-anchor="start" x="339.5" y="-93.8" font-family="arial" font-weight="bold" font-size="14.00">ID_87_ct0_st01</text>
<text text-anchor="start" x="359.5" y="-79.8" font-family="arial" font-size="14.00" fill="#984ea3">(!P &amp;&amp; R)</text>
<text text-anchor="start" x="376.5" y="-65.8" font-family="arial" font-size="14.00" fill="#ff7f00">true</text>
</g>
<!-- ID_87_ct0_st0&#45;&gt;ID_87_ct0_st01 -->
<g id="edge9" class="edge">
<title>ID_87_ct0_st0&#45;&gt;ID_87_ct0_st01</title>
<path fill="none" stroke="black" d="M262.42,-42.24C281.01,-48.3 302.12,-55.18 321.64,-61.54"/>
<polygon fill="black" stroke="black" points="320.78,-64.94 331.37,-64.71 322.95,-58.29 320.78,-64.94"/>
<text text-anchor="start" x="287" y="-60.8" font-family="arial" font-size="14.00" fill="#377eb8">true</text>
</g>
<!-- ID_87_ct0_st0&#45;&gt;ID_87_ct0_st -->
<g id="edge7" class="edge">
<title>ID_87_ct0_st0&#45;&gt;ID_87_ct0_st</title>
<path fill="none" stroke="black" d="M262.38,-21.23C311.24,-19.1 385.48,-19.3 448,-34 466.33,-38.31 485.36,-45.76 502.27,-53.57"/>
<polygon fill="black" stroke="black" points="500.89,-56.79 511.43,-57.93 503.9,-50.47 500.89,-56.79"/>
<text text-anchor="start" x="382" y="-37.8" font-family="arial" font-size="14.00" fill="#377eb8">P&#39;</text>
</g>
<!-- _ID_87_ct0_st01 -->
<!-- _ID_87_ct0_st01&#45;&gt;ID_87_ct0_st01 -->
<g id="edge3" class="edge">
<title>_ID_87_ct0_st01&#45;&gt;ID_87_ct0_st01</title>
<path fill="none" stroke="black" d="M268.28,-107.11C285.21,-103.69 303.79,-99.93 321.15,-96.42"/>
<polygon fill="black" stroke="black" points="322.09,-99.8 331.2,-94.39 320.71,-92.94 322.09,-99.8"/>
</g>
<!-- ID_87_ct0_st01&#45;&gt;ID_87_ct0_st01 -->
<g id="edge11" class="edge">
<title>ID_87_ct0_st01&#45;&gt;ID_87_ct0_st01</title>
<path fill="none" stroke="black" d="M372.06,-108.18C371.33,-117.91 376.81,-126 388.5,-126 395.8,-126 400.68,-122.84 403.14,-118.09"/>
<polygon fill="black" stroke="black" points="406.6,-118.64 404.94,-108.18 399.71,-117.39 406.6,-118.64"/>
<text text-anchor="start" x="376.5" y="-129.8" font-family="arial" font-size="14.00" fill="#377eb8">true</text>
</g>
<!-- ID_87_ct0_st01&#45;&gt;ID_87_ct0_st -->
<g id="edge10" class="edge">
<title>ID_87_ct0_st01&#45;&gt;ID_87_ct0_st</title>
<path fill="none" stroke="black" d="M445.57,-83C462.29,-83 480.65,-83 497.54,-83"/>
<polygon fill="black" stroke="black" points="497.84,-86.5 507.84,-83 497.84,-79.5 497.84,-86.5"/>
<text text-anchor="start" x="471.5" y="-86.8" font-family="arial" font-size="14.00" fill="#377eb8">P&#39;</text>
</g>
<!-- ID_87_ct0_st&#45;&gt;ID_87_ct0_st -->
<g id="edge6" class="edge">
<title>ID_87_ct0_st&#45;&gt;ID_87_ct0_st</title>
<path fill="none" stroke="black" d="M542.93,-108.18C542.28,-117.91 547.14,-126 557.5,-126 563.97,-126 568.3,-122.84 570.47,-118.09"/>
<polygon fill="black" stroke="black" points="573.94,-118.6 572.07,-108.18 567.03,-117.49 573.94,-118.6"/>
<text text-anchor="start" x="545.5" y="-129.8" font-family="arial" font-size="14.00" fill="#377eb8">true</text>
</g>
</g>
</svg>
