<?xml version="1.0" encoding="UTF-8" standalone="no"?>
<!DOCTYPE svg PUBLIC "-//W3C//DTD SVG 1.1//EN"
 "http://www.w3.org/Graphics/SVG/1.1/DTD/svg11.dtd">
<!-- Generated by graphviz version 2.43.0 (0)
 -->
<!-- Title: G Pages: 1 -->
<svg width="882pt" height="302pt"
 viewBox="0.00 0.00 882.00 301.80" xmlns="http://www.w3.org/2000/svg" xmlns:xlink="http://www.w3.org/1999/xlink">
<g id="graph0" class="graph" transform="scale(1 1) rotate(0) translate(4 297.8)">
<title>G</title>
<polygon fill="white" stroke="transparent" points="-4,4 -4,-297.8 878,-297.8 878,4 -4,4"/>
<!-- _st0 -->
<!-- st0 -->
<g id="node2" class="node">
<title>st0</title>
<polygon fill="none" stroke="black" points="145,-204.8 91,-204.8 91,-154.8 145,-154.8 145,-204.8"/>
<text text-anchor="start" x="108" y="-190.6" font-family="arial" font-weight="bold" font-size="14.00">st0</text>
<text text-anchor="start" x="110" y="-176.6" font-family="arial" font-size="14.00" fill="#984ea3">!Q</text>
<text text-anchor="start" x="106" y="-162.6" font-family="arial" font-size="14.00" fill="#ff7f00">true</text>
</g>
<!-- _st0&#45;&gt;st0 -->
<g id="edge1" class="edge">
<title>_st0&#45;&gt;st0</title>
<path fill="none" stroke="black" d="M54.22,-179.8C62.55,-179.8 71.91,-179.8 80.82,-179.8"/>
<polygon fill="black" stroke="black" points="80.97,-183.3 90.97,-179.8 80.97,-176.3 80.97,-183.3"/>
</g>
<!-- st0&#45;&gt;st0 -->
<g id="edge4" class="edge">
<title>st0&#45;&gt;st0</title>
<path fill="none" stroke="black" d="M109.78,-204.97C109.42,-214.71 112.16,-222.8 118,-222.8 121.56,-222.8 123.97,-219.79 125.22,-215.24"/>
<polygon fill="black" stroke="black" points="128.74,-215.26 126.22,-204.97 121.77,-214.59 128.74,-215.26"/>
<text text-anchor="start" x="106" y="-226.6" font-family="arial" font-size="14.00" fill="#377eb8">true</text>
</g>
<!-- st01 -->
<g id="node4" class="node">
<title>st01</title>
<polygon fill="none" stroke="black" points="334,-106.8 230,-106.8 230,-56.8 334,-56.8 334,-106.8"/>
<text text-anchor="start" x="268" y="-92.6" font-family="arial" font-weight="bold" font-size="14.00">st01</text>
<text text-anchor="start" x="238" y="-78.6" font-family="arial" font-size="14.00" fill="#984ea3">(Q &amp;&amp; (R || T))</text>
<text text-anchor="start" x="270" y="-64.6" font-family="arial" font-size="14.00" fill="#ff7f00">true</text>
</g>
<!-- st0&#45;&gt;st01 -->
<g id="edge5" class="edge">
<title>st0&#45;&gt;st01</title>
<path fill="none" stroke="black" d="M129.81,-154.76C137.19,-140.47 148.31,-123.36 163,-112.8 179.55,-100.9 200.33,-93.57 219.82,-89.05"/>
<polygon fill="black" stroke="black" points="220.8,-92.42 229.87,-86.93 219.36,-85.57 220.8,-92.42"/>
<text text-anchor="start" x="175.5" y="-116.6" font-family="arial" font-size="14.00" fill="#377eb8">true</text>
</g>
<!-- st012 -->
<g id="node6" class="node">
<title>st012</title>
<polygon fill="none" stroke="black" points="874,-169.8 704,-169.8 704,-119.8 874,-119.8 874,-169.8"/>
<text text-anchor="start" x="771.5" y="-155.6" font-family="arial" font-weight="bold" font-size="14.00">st012</text>
<text text-anchor="start" x="712" y="-141.6" font-family="arial" font-size="14.00" fill="#984ea3">(Q &amp;&amp; (!R &amp;&amp; (!T &amp;&amp; !U)))</text>
<text text-anchor="start" x="777" y="-127.6" font-family="arial" font-size="14.00" fill="#ff7f00">true</text>
</g>
<!-- st0&#45;&gt;st012 -->
<g id="edge6" class="edge">
<title>st0&#45;&gt;st012</title>
<path fill="none" stroke="black" d="M145.22,-188.53C222.88,-213.04 457.88,-277.59 644,-227.8 681.89,-217.66 720.15,-194.88 747.69,-175.75"/>
<polygon fill="black" stroke="black" points="749.75,-178.58 755.89,-169.95 745.7,-172.87 749.75,-178.58"/>
<text text-anchor="start" x="390" y="-248.6" font-family="arial" font-size="14.00" fill="#377eb8">true</text>
</g>
<!-- _st01 -->
<!-- _st01&#45;&gt;st01 -->
<g id="edge2" class="edge">
<title>_st01&#45;&gt;st01</title>
<path fill="none" stroke="black" d="M145.03,-79.28C165.16,-79.65 193.88,-80.18 219.74,-80.66"/>
<polygon fill="black" stroke="black" points="219.79,-84.16 229.86,-80.85 219.92,-77.16 219.79,-84.16"/>
</g>
<!-- st01&#45;&gt;st0 -->
<g id="edge7" class="edge">
<title>st01&#45;&gt;st0</title>
<path fill="none" stroke="black" d="M245.47,-106.95C234.9,-114.03 223.16,-121.5 212,-127.8 191.04,-139.61 183.99,-139.03 163,-150.8 159.95,-152.5 156.84,-154.34 153.74,-156.24"/>
<polygon fill="black" stroke="black" points="151.72,-153.38 145.14,-161.68 155.46,-159.3 151.72,-153.38"/>
<text text-anchor="start" x="163" y="-154.6" font-family="arial" font-size="14.00" fill="#377eb8">(R&#39; || T&#39;)</text>
</g>
<!-- st01&#45;&gt;st01 -->
<g id="edge9" class="edge">
<title>st01&#45;&gt;st01</title>
<path fill="none" stroke="black" d="M264.44,-106.97C263.66,-116.71 269.52,-124.8 282,-124.8 289.8,-124.8 295.01,-121.64 297.64,-116.89"/>
<polygon fill="black" stroke="black" points="301.09,-117.45 299.56,-106.97 294.22,-116.12 301.09,-117.45"/>
<text text-anchor="start" x="270" y="-128.6" font-family="arial" font-size="14.00" fill="#377eb8">true</text>
</g>
<!-- st01&#45;&gt;st012 -->
<g id="edge10" class="edge">
<title>st01&#45;&gt;st012</title>
<path fill="none" stroke="black" d="M334.02,-67.9C404.96,-50.92 536.75,-27.91 644,-57.8 683.01,-68.67 722.01,-93.28 749.56,-113.57"/>
<polygon fill="black" stroke="black" points="747.63,-116.5 757.73,-119.7 751.84,-110.9 747.63,-116.5"/>
<text text-anchor="start" x="545" y="-61.6" font-family="arial" font-size="14.00" fill="#377eb8">true</text>
</g>
<!-- st02 -->
<g id="node7" class="node">
<title>st02</title>
<polygon fill="none" stroke="black" points="644,-131.8 470,-131.8 470,-81.8 644,-81.8 644,-131.8"/>
<text text-anchor="start" x="543" y="-117.6" font-family="arial" font-weight="bold" font-size="14.00">st02</text>
<text text-anchor="start" x="478" y="-103.6" font-family="arial" font-size="14.00" fill="#984ea3">(!Q &amp;&amp; (!R &amp;&amp; (!T &amp;&amp; !U)))</text>
<text text-anchor="start" x="545" y="-89.6" font-family="arial" font-size="14.00" fill="#ff7f00">true</text>
</g>
<!-- st01&#45;&gt;st02 -->
<g id="edge8" class="edge">
<title>st01&#45;&gt;st02</title>
<path fill="none" stroke="black" d="M334.21,-79.17C367.81,-78.17 412.66,-78.2 452,-82.8 454.67,-83.11 457.37,-83.46 460.09,-83.85"/>
<polygon fill="black" stroke="black" points="459.57,-87.31 470,-85.41 460.66,-80.4 459.57,-87.31"/>
<text text-anchor="start" x="390" y="-86.6" font-family="arial" font-size="14.00" fill="#377eb8">true</text>
</g>
<!-- _st012 -->
<!-- _st012&#45;&gt;st012 -->
<g id="edge3" class="edge">
<title>_st012&#45;&gt;st012</title>
<path fill="none" stroke="black" d="M585.74,-194.04C612.67,-187.48 655.09,-177.16 694.14,-167.65"/>
<polygon fill="black" stroke="black" points="695.1,-171.02 703.98,-165.25 693.44,-164.22 695.1,-171.02"/>
</g>
<!-- st012&#45;&gt;st0 -->
<g id="edge15" class="edge">
<title>st012&#45;&gt;st0</title>
<path fill="none" stroke="black" d="M765.62,-170.1C739.62,-197.14 693.89,-237.88 644,-250.8 465.76,-296.96 407.9,-283.27 230,-235.8 199.85,-227.75 190.57,-229.42 163,-214.8 159.89,-213.14 156.78,-211.26 153.73,-209.25"/>
<polygon fill="black" stroke="black" points="155.55,-206.25 145.37,-203.3 151.49,-211.95 155.55,-206.25"/>
<text text-anchor="start" x="352" y="-282.6" font-family="arial" font-size="14.00" fill="#377eb8">(R&#39; || (T&#39; &amp;&amp; !U&#39;))</text>
</g>
<!-- st012&#45;&gt;st01 -->
<g id="edge17" class="edge">
<title>st012&#45;&gt;st01</title>
<path fill="none" stroke="black" d="M767.78,-119.64C742.45,-90.37 696.02,-43.63 644,-24.8 521.72,19.48 474.97,-1.47 352,-43.8 345.48,-46.04 338.86,-48.87 332.42,-51.97"/>
<polygon fill="black" stroke="black" points="330.49,-49.03 323.16,-56.68 333.66,-55.27 330.49,-49.03"/>
<text text-anchor="start" x="530" y="-28.6" font-family="arial" font-size="14.00" fill="#377eb8">(R&#39; || !U&#39;)</text>
</g>
<!-- st012&#45;&gt;st012 -->
<g id="edge18" class="edge">
<title>st012&#45;&gt;st012</title>
<path fill="none" stroke="black" d="M767.71,-169.97C766.76,-179.71 773.86,-187.8 789,-187.8 798.46,-187.8 804.78,-184.64 807.96,-179.89"/>
<polygon fill="black" stroke="black" points="811.41,-180.51 810.29,-169.97 804.6,-178.91 811.41,-180.51"/>
<text text-anchor="start" x="777" y="-191.6" font-family="arial" font-size="14.00" fill="#377eb8">true</text>
</g>
<!-- st012&#45;&gt;st02 -->
<g id="edge16" class="edge">
<title>st012&#45;&gt;st02</title>
<path fill="none" stroke="black" d="M703.89,-130.9C687.82,-128.24 670.87,-125.44 654.45,-122.73"/>
<polygon fill="black" stroke="black" points="654.73,-119.23 644.3,-121.05 653.59,-126.14 654.73,-119.23"/>
<text text-anchor="start" x="662" y="-131.6" font-family="arial" font-size="14.00" fill="#377eb8">true</text>
</g>
<!-- st02&#45;&gt;st0 -->
<g id="edge11" class="edge">
<title>st02&#45;&gt;st0</title>
<path fill="none" stroke="black" d="M469.97,-123.98C428.89,-131.95 378.98,-141.3 334,-148.8 271.28,-159.25 197.92,-169.38 155.14,-175.08"/>
<polygon fill="black" stroke="black" points="154.66,-171.61 145.2,-176.39 155.58,-178.55 154.66,-171.61"/>
<text text-anchor="start" x="232" y="-167.6" font-family="arial" font-size="14.00" fill="#377eb8">(R&#39; || (T&#39; &amp;&amp; !U&#39;))</text>
</g>
<!-- st02&#45;&gt;st01 -->
<g id="edge13" class="edge">
<title>st02&#45;&gt;st01</title>
<path fill="none" stroke="black" d="M469.83,-106.5C433.34,-105.47 390.46,-103.06 352,-97.8 349.35,-97.43 346.65,-97.02 343.93,-96.56"/>
<polygon fill="black" stroke="black" points="344.52,-93.11 334.05,-94.73 343.25,-99.99 344.52,-93.11"/>
<text text-anchor="start" x="375" y="-109.6" font-family="arial" font-size="14.00" fill="#377eb8">(R&#39; || !U&#39;)</text>
</g>
<!-- st02&#45;&gt;st012 -->
<g id="edge14" class="edge">
<title>st02&#45;&gt;st012</title>
<path fill="none" stroke="black" d="M644.09,-103.46C658.17,-104.06 672.55,-105.38 686,-107.8 697.18,-109.81 708.76,-112.92 719.93,-116.52"/>
<polygon fill="black" stroke="black" points="719.02,-119.9 729.61,-119.78 721.25,-113.27 719.02,-119.9"/>
<text text-anchor="start" x="662" y="-111.6" font-family="arial" font-size="14.00" fill="#377eb8">true</text>
</g>
<!-- st02&#45;&gt;st02 -->
<g id="edge12" class="edge">
<title>st02&#45;&gt;st02</title>
<path fill="none" stroke="black" d="M535.33,-131.97C534.37,-141.71 541.59,-149.8 557,-149.8 566.63,-149.8 573.06,-146.64 576.3,-141.89"/>
<polygon fill="black" stroke="black" points="579.75,-142.51 578.67,-131.97 572.94,-140.88 579.75,-142.51"/>
<text text-anchor="start" x="545" y="-153.6" font-family="arial" font-size="14.00" fill="#377eb8">true</text>
</g>
</g>
</svg>
