<?xml version="1.0" encoding="UTF-8" standalone="no"?>
<!DOCTYPE svg PUBLIC "-//W3C//DTD SVG 1.1//EN"
 "http://www.w3.org/Graphics/SVG/1.1/DTD/svg11.dtd">
<!-- Generated by graphviz version 2.43.0 (0)
 -->
<!-- Title: G Pages: 1 -->
<svg width="442pt" height="145pt"
 viewBox="0.00 0.00 442.00 145.00" xmlns="http://www.w3.org/2000/svg" xmlns:xlink="http://www.w3.org/1999/xlink">
<g id="graph0" class="graph" transform="scale(1 1) rotate(0) translate(4 141)">
<title>G</title>
<polygon fill="white" stroke="transparent" points="-4,4 -4,-141 438,-141 438,4 -4,4"/>
<!-- _ID_9_ct0_st -->
<!-- ID_9_ct0_st -->
<g id="node2" class="node">
<title>ID_9_ct0_st</title>
<polygon fill="none" stroke="black" points="434,-97 342,-97 342,-47 434,-47 434,-97"/>
<text text-anchor="start" x="350" y="-82.8" font-family="arial" font-weight="bold" font-size="14.00">ID_9_ct0_st</text>
<text text-anchor="start" x="376" y="-68.8" font-family="arial" font-size="14.00" fill="#984ea3">true</text>
<text text-anchor="start" x="376" y="-54.8" font-family="arial" font-size="14.00" fill="#ff7f00">true</text>
</g>
<!-- _ID_9_ct0_st&#45;&gt;ID_9_ct0_st -->
<g id="edge1" class="edge">
<title>_ID_9_ct0_st&#45;&gt;ID_9_ct0_st</title>
<path fill="none" stroke="black" d="M238.83,-107.62C266.83,-100.89 302.43,-92.33 331.72,-85.29"/>
<polygon fill="black" stroke="black" points="332.89,-88.61 341.79,-82.87 331.25,-81.8 332.89,-88.61"/>
</g>
<!-- ID_9_ct0_st&#45;&gt;ID_9_ct0_st -->
<g id="edge3" class="edge">
<title>ID_9_ct0_st&#45;&gt;ID_9_ct0_st</title>
<path fill="none" stroke="black" d="M370.07,-97.18C369.27,-106.91 375.25,-115 388,-115 395.97,-115 401.29,-111.84 403.97,-107.09"/>
<polygon fill="black" stroke="black" points="407.42,-107.66 405.93,-97.18 400.56,-106.31 407.42,-107.66"/>
<text text-anchor="start" x="376" y="-118.8" font-family="arial" font-size="14.00" fill="#377eb8">true</text>
</g>
<!-- _ID_9_ct0_st0 -->
<!-- ID_9_ct0_st0 -->
<g id="node4" class="node">
<title>ID_9_ct0_st0</title>
<polygon fill="none" stroke="black" points="240,-50 141,-50 141,0 240,0 240,-50"/>
<text text-anchor="start" x="149" y="-35.8" font-family="arial" font-weight="bold" font-size="14.00">ID_9_ct0_st0</text>
<text text-anchor="start" x="158.5" y="-21.8" font-family="arial" font-size="14.00" fill="#984ea3">(!Q &amp;&amp; !R)</text>
<text text-anchor="start" x="178.5" y="-7.8" font-family="arial" font-size="14.00" fill="#ff7f00">true</text>
</g>
<!-- _ID_9_ct0_st0&#45;&gt;ID_9_ct0_st0 -->
<g id="edge2" class="edge">
<title>_ID_9_ct0_st0&#45;&gt;ID_9_ct0_st0</title>
<path fill="none" stroke="black" d="M104.22,-25C112.81,-25 121.78,-25 130.55,-25"/>
<polygon fill="black" stroke="black" points="130.71,-28.5 140.71,-25 130.71,-21.5 130.71,-28.5"/>
</g>
<!-- ID_9_ct0_st0&#45;&gt;ID_9_ct0_st -->
<g id="edge4" class="edge">
<title>ID_9_ct0_st0&#45;&gt;ID_9_ct0_st</title>
<path fill="none" stroke="black" d="M240.08,-36.68C267.9,-43.37 302.9,-51.78 331.76,-58.72"/>
<polygon fill="black" stroke="black" points="331.15,-62.17 341.69,-61.11 332.79,-55.37 331.15,-62.17"/>
<text text-anchor="start" x="258" y="-59.8" font-family="arial" font-size="14.00" fill="#377eb8">(Q&#39; &amp;&amp; !R&#39;)</text>
</g>
<!-- ID_9_ct0_st0&#45;&gt;ID_9_ct0_st0 -->
<g id="edge5" class="edge">
<title>ID_9_ct0_st0&#45;&gt;ID_9_ct0_st0</title>
<path fill="none" stroke="black" d="M177.8,-50.18C177.24,-59.91 181.47,-68 190.5,-68 196.14,-68 199.91,-64.84 201.81,-60.09"/>
<polygon fill="black" stroke="black" points="205.28,-60.56 203.2,-50.18 198.35,-59.59 205.28,-60.56"/>
<text text-anchor="start" x="178.5" y="-71.8" font-family="arial" font-size="14.00" fill="#377eb8">true</text>
</g>
</g>
</svg>
