<?xml version="1.0" encoding="UTF-8" standalone="no"?>
<!DOCTYPE svg PUBLIC "-//W3C//DTD SVG 1.1//EN"
 "http://www.w3.org/Graphics/SVG/1.1/DTD/svg11.dtd">
<!-- Generated by graphviz version 2.43.0 (0)
 -->
<!-- Title: G Pages: 1 -->
<svg width="1258pt" height="407pt"
 viewBox="0.00 0.00 1258.00 407.17" xmlns="http://www.w3.org/2000/svg" xmlns:xlink="http://www.w3.org/1999/xlink">
<g id="graph0" class="graph" transform="scale(1 1) rotate(0) translate(4 403.17)">
<title>G</title>
<polygon fill="white" stroke="transparent" points="-4,4 -4,-403.17 1254,-403.17 1254,4 -4,4"/>
<!-- _stinit -->
<!-- stinit -->
<g id="node2" class="node">
<title>stinit</title>
<polygon fill="none" stroke="black" points="1127.5,-366.17 1065.5,-366.17 1065.5,-316.17 1127.5,-316.17 1127.5,-366.17"/>
<text text-anchor="start" x="1080" y="-351.97" font-family="arial" font-weight="bold" font-size="14.00">stinit</text>
<text text-anchor="start" x="1073.5" y="-337.97" font-family="arial" font-size="14.00" fill="#984ea3">(Q || R)</text>
<text text-anchor="start" x="1084.5" y="-323.97" font-family="arial" font-size="14.00" fill="#ff7f00">true</text>
</g>
<!-- _stinit&#45;&gt;stinit -->
<g id="edge1" class="edge">
<title>_stinit&#45;&gt;stinit</title>
<path fill="none" stroke="black" d="M933.21,-341.17C964.79,-341.17 1018.2,-341.17 1055.07,-341.17"/>
<polygon fill="black" stroke="black" points="1055.47,-344.67 1065.47,-341.17 1055.47,-337.67 1055.47,-344.67"/>
</g>
<!-- stinit&#45;&gt;stinit -->
<g id="edge5" class="edge">
<title>stinit&#45;&gt;stinit</title>
<path fill="none" stroke="black" d="M1083.8,-366.34C1083.24,-376.08 1087.47,-384.17 1096.5,-384.17 1102.14,-384.17 1105.91,-381.01 1107.81,-376.26"/>
<polygon fill="black" stroke="black" points="1111.28,-376.73 1109.2,-366.34 1104.35,-375.76 1111.28,-376.73"/>
<text text-anchor="start" x="1084.5" y="-387.97" font-family="arial" font-size="14.00" fill="#377eb8">true</text>
</g>
<!-- st -->
<g id="node7" class="node">
<title>st</title>
<polygon fill="none" stroke="black" points="1250,-250.17 1196,-250.17 1196,-200.17 1250,-200.17 1250,-250.17"/>
<text text-anchor="start" x="1216.5" y="-235.97" font-family="arial" font-weight="bold" font-size="14.00">st</text>
<text text-anchor="start" x="1211" y="-221.97" font-family="arial" font-size="14.00" fill="#984ea3">true</text>
<text text-anchor="start" x="1211" y="-207.97" font-family="arial" font-size="14.00" fill="#ff7f00">true</text>
</g>
<!-- stinit&#45;&gt;st -->
<g id="edge4" class="edge">
<title>stinit&#45;&gt;st</title>
<path fill="none" stroke="black" d="M1127.63,-331.54C1143.98,-325.18 1163.7,-315.52 1178,-302.17 1190.64,-290.35 1200.67,-274.07 1207.93,-259.52"/>
<polygon fill="black" stroke="black" points="1211.19,-260.81 1212.31,-250.28 1204.87,-257.82 1211.19,-260.81"/>
<text text-anchor="start" x="1154" y="-321.97" font-family="arial" font-size="14.00" fill="#377eb8">true</text>
</g>
<!-- _st0 -->
<!-- st0 -->
<g id="node4" class="node">
<title>st0</title>
<polygon fill="none" stroke="black" points="217,-275.17 91,-275.17 91,-225.17 217,-225.17 217,-275.17"/>
<text text-anchor="start" x="144" y="-260.97" font-family="arial" font-weight="bold" font-size="14.00">st0</text>
<text text-anchor="start" x="99" y="-246.97" font-family="arial" font-size="14.00" fill="#984ea3">(!Q &amp;&amp; (!R &amp;&amp; !T))</text>
<text text-anchor="start" x="142" y="-232.97" font-family="arial" font-size="14.00" fill="#ff7f00">true</text>
</g>
<!-- _st0&#45;&gt;st0 -->
<g id="edge2" class="edge">
<title>_st0&#45;&gt;st0</title>
<path fill="none" stroke="black" d="M54.2,-250.17C62.09,-250.17 71.16,-250.17 80.53,-250.17"/>
<polygon fill="black" stroke="black" points="80.78,-253.67 90.78,-250.17 80.78,-246.67 80.78,-253.67"/>
</g>
<!-- st0&#45;&gt;st0 -->
<g id="edge9" class="edge">
<title>st0&#45;&gt;st0</title>
<path fill="none" stroke="black" d="M139.06,-275.34C138.39,-285.08 143.38,-293.17 154,-293.17 160.64,-293.17 165.08,-290.01 167.31,-285.26"/>
<polygon fill="black" stroke="black" points="170.77,-285.78 168.94,-275.34 163.86,-284.64 170.77,-285.78"/>
<text text-anchor="start" x="142" y="-296.97" font-family="arial" font-size="14.00" fill="#377eb8">true</text>
</g>
<!-- st012 -->
<g id="node6" class="node">
<title>st012</title>
<polygon fill="none" stroke="black" points="447,-168.17 277,-168.17 277,-118.17 447,-118.17 447,-168.17"/>
<text text-anchor="start" x="344.5" y="-153.97" font-family="arial" font-weight="bold" font-size="14.00">st012</text>
<text text-anchor="start" x="285" y="-139.97" font-family="arial" font-size="14.00" fill="#984ea3">(!Q &amp;&amp; (!R &amp;&amp; (!S &amp;&amp; T)))</text>
<text text-anchor="start" x="350" y="-125.97" font-family="arial" font-size="14.00" fill="#ff7f00">true</text>
</g>
<!-- st0&#45;&gt;st012 -->
<g id="edge10" class="edge">
<title>st0&#45;&gt;st012</title>
<path fill="none" stroke="black" d="M203.3,-225.08C233.28,-209.51 271.97,-189.41 303.53,-173.02"/>
<polygon fill="black" stroke="black" points="305.39,-176 312.65,-168.28 302.16,-169.78 305.39,-176"/>
<text text-anchor="start" x="235" y="-209.97" font-family="arial" font-size="14.00" fill="#377eb8">true</text>
</g>
<!-- st0&#45;&gt;st -->
<g id="edge7" class="edge">
<title>st0&#45;&gt;st</title>
<path fill="none" stroke="black" d="M217.11,-267.72C257.71,-277.68 312.09,-288.17 361,-288.17 361,-288.17 361,-288.17 1097.5,-288.17 1130.51,-288.17 1163.65,-270.32 1187.43,-253.62"/>
<polygon fill="black" stroke="black" points="1189.73,-256.27 1195.75,-247.56 1185.61,-250.62 1189.73,-256.27"/>
<text text-anchor="start" x="726" y="-291.97" font-family="arial" font-size="14.00" fill="#377eb8">(Q&#39; || (R&#39; &amp;&amp; !T&#39;))</text>
</g>
<!-- st12 -->
<g id="node8" class="node">
<title>st12</title>
<polygon fill="none" stroke="black" points="967,-176.17 845,-176.17 845,-126.17 967,-126.17 967,-176.17"/>
<text text-anchor="start" x="892" y="-161.97" font-family="arial" font-weight="bold" font-size="14.00">st12</text>
<text text-anchor="start" x="853" y="-147.97" font-family="arial" font-size="14.00" fill="#984ea3">(!Q &amp;&amp; (!S &amp;&amp; T))</text>
<text text-anchor="start" x="894" y="-133.97" font-family="arial" font-size="14.00" fill="#ff7f00">true</text>
</g>
<!-- st0&#45;&gt;st12 -->
<g id="edge8" class="edge">
<title>st0&#45;&gt;st12</title>
<path fill="none" stroke="black" d="M217.04,-248.41C289.32,-245.81 412.21,-239.71 517,-226.17 629,-211.69 757.39,-184.82 834.78,-167.48"/>
<polygon fill="black" stroke="black" points="835.9,-170.82 844.89,-165.21 834.37,-163.99 835.9,-170.82"/>
<text text-anchor="start" x="465" y="-234.97" font-family="arial" font-size="14.00" fill="#377eb8">(Q&#39; || R&#39;)</text>
</g>
<!-- _st012 -->
<!-- _st012&#45;&gt;st012 -->
<g id="edge3" class="edge">
<title>_st012&#45;&gt;st012</title>
<path fill="none" stroke="black" d="M182.78,-143.17C204.49,-143.17 236,-143.17 266.5,-143.17"/>
<polygon fill="black" stroke="black" points="266.79,-146.67 276.79,-143.17 266.79,-139.67 266.79,-146.67"/>
</g>
<!-- st012&#45;&gt;st012 -->
<g id="edge25" class="edge">
<title>st012&#45;&gt;st012</title>
<path fill="none" stroke="black" d="M340.71,-168.34C339.76,-178.08 346.86,-186.17 362,-186.17 371.46,-186.17 377.78,-183.01 380.96,-178.26"/>
<polygon fill="black" stroke="black" points="384.41,-178.88 383.29,-168.34 377.6,-177.28 384.41,-178.88"/>
<text text-anchor="start" x="350" y="-189.97" font-family="arial" font-size="14.00" fill="#377eb8">true</text>
</g>
<!-- st012&#45;&gt;st -->
<g id="edge21" class="edge">
<title>st012&#45;&gt;st</title>
<path fill="none" stroke="black" d="M447.05,-156.36C453.12,-157.31 459.16,-158.25 465,-159.17 633.87,-185.52 674.76,-203.01 845,-218.17 938.88,-226.53 962.77,-221.08 1057,-223.17 1100.11,-224.12 1110.88,-224.72 1154,-225.17 1164.25,-225.27 1175.37,-225.31 1185.59,-225.3"/>
<polygon fill="black" stroke="black" points="1185.85,-228.8 1195.84,-225.29 1185.84,-221.8 1185.85,-228.8"/>
<text text-anchor="start" x="898.5" y="-225.97" font-family="arial" font-size="14.00" fill="#377eb8">Q&#39;</text>
</g>
<!-- st012&#45;&gt;st12 -->
<g id="edge23" class="edge">
<title>st012&#45;&gt;st12</title>
<path fill="none" stroke="black" d="M447.09,-144.41C553.49,-145.98 734.84,-148.65 834.4,-150.12"/>
<polygon fill="black" stroke="black" points="834.6,-153.63 844.65,-150.28 834.7,-146.63 834.6,-153.63"/>
<text text-anchor="start" x="595.5" y="-152.97" font-family="arial" font-size="14.00" fill="#377eb8">(Q&#39; || R&#39;)</text>
</g>
<!-- st2 -->
<g id="node9" class="node">
<title>st2</title>
<polygon fill="none" stroke="black" points="1136,-128.17 1057,-128.17 1057,-78.17 1136,-78.17 1136,-128.17"/>
<text text-anchor="start" x="1086.5" y="-113.97" font-family="arial" font-weight="bold" font-size="14.00">st2</text>
<text text-anchor="start" x="1065" y="-99.97" font-family="arial" font-size="14.00" fill="#984ea3">(!Q &amp;&amp; !S)</text>
<text text-anchor="start" x="1084.5" y="-85.97" font-family="arial" font-size="14.00" fill="#ff7f00">true</text>
</g>
<!-- st012&#45;&gt;st2 -->
<g id="edge22" class="edge">
<title>st012&#45;&gt;st2</title>
<path fill="none" stroke="black" d="M447.03,-138.58C600.94,-130.17 923.56,-112.56 1046.5,-105.84"/>
<polygon fill="black" stroke="black" points="1046.93,-109.32 1056.73,-105.28 1046.55,-102.33 1046.93,-109.32"/>
<text text-anchor="start" x="726" y="-126.97" font-family="arial" font-size="14.00" fill="#377eb8">(Q&#39; || (R&#39; &amp;&amp; !T&#39;))</text>
</g>
<!-- st02 -->
<g id="node10" class="node">
<title>st02</title>
<polygon fill="none" stroke="black" points="708,-60.17 535,-60.17 535,-10.17 708,-10.17 708,-60.17"/>
<text text-anchor="start" x="607.5" y="-45.97" font-family="arial" font-weight="bold" font-size="14.00">st02</text>
<text text-anchor="start" x="543" y="-31.97" font-family="arial" font-size="14.00" fill="#984ea3">(!Q &amp;&amp; (!R &amp;&amp; (!S &amp;&amp; !T)))</text>
<text text-anchor="start" x="609.5" y="-17.97" font-family="arial" font-size="14.00" fill="#ff7f00">true</text>
</g>
<!-- st012&#45;&gt;st02 -->
<g id="edge24" class="edge">
<title>st012&#45;&gt;st02</title>
<path fill="none" stroke="black" d="M410.47,-118.04C427.48,-109.42 446.91,-99.97 465,-92.17 488.2,-82.15 513.8,-72.29 537.42,-63.67"/>
<polygon fill="black" stroke="black" points="538.84,-66.87 547.05,-60.17 536.46,-60.29 538.84,-66.87"/>
<text text-anchor="start" x="479" y="-95.97" font-family="arial" font-size="14.00" fill="#377eb8">true</text>
</g>
<!-- st&#45;&gt;st -->
<g id="edge6" class="edge">
<title>st&#45;&gt;st</title>
<path fill="none" stroke="black" d="M1212.54,-250.34C1212.08,-260.08 1215.56,-268.17 1223,-268.17 1227.53,-268.17 1230.6,-265.16 1232.2,-260.61"/>
<polygon fill="black" stroke="black" points="1235.71,-260.69 1233.46,-250.34 1228.76,-259.84 1235.71,-260.69"/>
<text text-anchor="start" x="1211" y="-271.97" font-family="arial" font-size="14.00" fill="#377eb8">true</text>
</g>
<!-- st12&#45;&gt;st -->
<g id="edge18" class="edge">
<title>st12&#45;&gt;st</title>
<path fill="none" stroke="black" d="M967.36,-165.35C1032.01,-180.53 1132.48,-204.14 1185.84,-216.67"/>
<polygon fill="black" stroke="black" points="1185.32,-220.14 1195.85,-219.02 1186.92,-213.33 1185.32,-220.14"/>
<text text-anchor="start" x="1089" y="-207.97" font-family="arial" font-size="14.00" fill="#377eb8">Q&#39;</text>
</g>
<!-- st12&#45;&gt;st12 -->
<g id="edge20" class="edge">
<title>st12&#45;&gt;st12</title>
<path fill="none" stroke="black" d="M886.2,-176.34C885.32,-186.08 891.92,-194.17 906,-194.17 914.8,-194.17 920.68,-191.01 923.63,-186.26"/>
<polygon fill="black" stroke="black" points="927.08,-186.86 925.8,-176.34 920.24,-185.37 927.08,-186.86"/>
<text text-anchor="start" x="894" y="-197.97" font-family="arial" font-size="14.00" fill="#377eb8">true</text>
</g>
<!-- st12&#45;&gt;st2 -->
<g id="edge19" class="edge">
<title>st12&#45;&gt;st2</title>
<path fill="none" stroke="black" d="M967.16,-135.85C993.01,-129.26 1022.82,-121.67 1047.2,-115.47"/>
<polygon fill="black" stroke="black" points="1048.11,-118.84 1056.94,-112.99 1046.39,-112.06 1048.11,-118.84"/>
<text text-anchor="start" x="985" y="-133.97" font-family="arial" font-size="14.00" fill="#377eb8">(Q&#39; || !T&#39;)</text>
</g>
<!-- st2&#45;&gt;st -->
<g id="edge11" class="edge">
<title>st2&#45;&gt;st</title>
<path fill="none" stroke="black" d="M1130.93,-128.48C1145.93,-140.46 1163.49,-155.37 1178,-170.17 1184.6,-176.9 1191.22,-184.56 1197.24,-191.99"/>
<polygon fill="black" stroke="black" points="1194.56,-194.24 1203.52,-199.9 1200.05,-189.89 1194.56,-194.24"/>
<text text-anchor="start" x="1158.5" y="-173.97" font-family="arial" font-size="14.00" fill="#377eb8">Q&#39;</text>
</g>
<!-- st2&#45;&gt;st2 -->
<g id="edge12" class="edge">
<title>st2&#45;&gt;st2</title>
<path fill="none" stroke="black" d="M1083.8,-128.34C1083.24,-138.08 1087.47,-146.17 1096.5,-146.17 1102.14,-146.17 1105.91,-143.01 1107.81,-138.26"/>
<polygon fill="black" stroke="black" points="1111.28,-138.73 1109.2,-128.34 1104.35,-137.76 1111.28,-138.73"/>
<text text-anchor="start" x="1084.5" y="-149.97" font-family="arial" font-size="14.00" fill="#377eb8">true</text>
</g>
<!-- st02&#45;&gt;st012 -->
<g id="edge17" class="edge">
<title>st02&#45;&gt;st012</title>
<path fill="none" stroke="black" d="M534.87,-33.63C511.43,-35.8 486.57,-40.59 465,-50.17 435.09,-63.44 408.07,-89.02 389.36,-109.99"/>
<polygon fill="black" stroke="black" points="386.52,-107.92 382.61,-117.77 391.81,-112.51 386.52,-107.92"/>
<text text-anchor="start" x="479" y="-53.97" font-family="arial" font-size="14.00" fill="#377eb8">true</text>
</g>
<!-- st02&#45;&gt;st -->
<g id="edge13" class="edge">
<title>st02&#45;&gt;st</title>
<path fill="none" stroke="black" d="M708.19,-15.72C817.97,4.02 1009.18,20.36 1136,-69.17 1177.34,-98.35 1200.97,-153.95 1212.63,-190.28"/>
<polygon fill="black" stroke="black" points="1209.33,-191.45 1215.61,-199.98 1216.02,-189.39 1209.33,-191.45"/>
<text text-anchor="start" x="1004.5" y="-25.97" font-family="arial" font-size="14.00" fill="#377eb8">Q&#39;</text>
</g>
<!-- st02&#45;&gt;st12 -->
<g id="edge15" class="edge">
<title>st02&#45;&gt;st12</title>
<path fill="none" stroke="black" d="M708.03,-56.81C714.11,-58.3 720.14,-59.76 726,-61.17 770.77,-71.89 785.89,-63.45 827,-84.17 844.32,-92.9 861,-106.29 874.45,-118.81"/>
<polygon fill="black" stroke="black" points="872.34,-121.64 881.98,-126.04 877.19,-116.59 872.34,-121.64"/>
<text text-anchor="start" x="750.5" y="-87.97" font-family="arial" font-size="14.00" fill="#377eb8">(Q&#39; || R&#39;)</text>
</g>
<!-- st02&#45;&gt;st2 -->
<g id="edge14" class="edge">
<title>st02&#45;&gt;st2</title>
<path fill="none" stroke="black" d="M708.12,-41.06C778.02,-46.48 879.23,-55.73 967,-69.17 999.31,-74.11 1007.45,-75.61 1039,-84.17 1041.62,-84.88 1044.31,-85.64 1047.01,-86.45"/>
<polygon fill="black" stroke="black" points="1046.19,-89.86 1056.78,-89.47 1048.26,-83.17 1046.19,-89.86"/>
<text text-anchor="start" x="855.5" y="-72.97" font-family="arial" font-size="14.00" fill="#377eb8">(Q&#39; || (R&#39; &amp;&amp; !T&#39;))</text>
</g>
<!-- st02&#45;&gt;st02 -->
<g id="edge16" class="edge">
<title>st02&#45;&gt;st02</title>
<path fill="none" stroke="black" d="M597.22,-60.34C596.14,-70.08 604.23,-78.17 621.5,-78.17 632.29,-78.17 639.5,-75.01 643.12,-70.26"/>
<polygon fill="black" stroke="black" points="646.57,-70.91 645.78,-60.34 639.81,-69.1 646.57,-70.91"/>
<text text-anchor="start" x="609.5" y="-81.97" font-family="arial" font-size="14.00" fill="#377eb8">true</text>
</g>
</g>
</svg>
