<?xml version="1.0" encoding="UTF-8" standalone="no"?>
<!DOCTYPE svg PUBLIC "-//W3C//DTD SVG 1.1//EN"
 "http://www.w3.org/Graphics/SVG/1.1/DTD/svg11.dtd">
<!-- Generated by graphviz version 2.43.0 (0)
 -->
<!-- Title: G Pages: 1 -->
<svg width="1426pt" height="404pt"
 viewBox="0.00 0.00 1426.00 404.48" xmlns="http://www.w3.org/2000/svg" xmlns:xlink="http://www.w3.org/1999/xlink">
<g id="graph0" class="graph" transform="scale(1 1) rotate(0) translate(4 400.48)">
<title>G</title>
<polygon fill="white" stroke="transparent" points="-4,4 -4,-400.48 1422,-400.48 1422,4 -4,4"/>
<!-- _ID_102_ct0_stinit -->
<!-- ID_102_ct0_stinit -->
<g id="node2" class="node">
<title>ID_102_ct0_stinit</title>
<polygon fill="none" stroke="black" points="1251,-363.48 1124,-363.48 1124,-313.48 1251,-313.48 1251,-363.48"/>
<text text-anchor="start" x="1132" y="-349.28" font-family="arial" font-weight="bold" font-size="14.00">ID_102_ct0_stinit</text>
<text text-anchor="start" x="1166.5" y="-335.28" font-family="arial" font-size="14.00" fill="#984ea3">(P || T)</text>
<text text-anchor="start" x="1175.5" y="-321.28" font-family="arial" font-size="14.00" fill="#ff7f00">true</text>
</g>
<!-- _ID_102_ct0_stinit&#45;&gt;ID_102_ct0_stinit -->
<g id="edge1" class="edge">
<title>_ID_102_ct0_stinit&#45;&gt;ID_102_ct0_stinit</title>
<path fill="none" stroke="black" d="M1035.2,-338.48C1059.74,-338.48 1088.02,-338.48 1113.43,-338.48"/>
<polygon fill="black" stroke="black" points="1113.75,-341.98 1123.75,-338.48 1113.75,-334.98 1113.75,-341.98"/>
</g>
<!-- ID_102_ct0_stinit&#45;&gt;ID_102_ct0_stinit -->
<g id="edge5" class="edge">
<title>ID_102_ct0_stinit&#45;&gt;ID_102_ct0_stinit</title>
<path fill="none" stroke="black" d="M1170.32,-363.65C1169.55,-373.39 1175.28,-381.48 1187.5,-381.48 1195.14,-381.48 1200.24,-378.32 1202.8,-373.57"/>
<polygon fill="black" stroke="black" points="1206.26,-374.13 1204.68,-363.65 1199.38,-372.83 1206.26,-374.13"/>
<text text-anchor="start" x="1175.5" y="-385.28" font-family="arial" font-size="14.00" fill="#377eb8">true</text>
</g>
<!-- ID_102_ct0_st -->
<g id="node7" class="node">
<title>ID_102_ct0_st</title>
<polygon fill="none" stroke="black" points="1418,-247.48 1311,-247.48 1311,-197.48 1418,-197.48 1418,-247.48"/>
<text text-anchor="start" x="1319" y="-233.28" font-family="arial" font-weight="bold" font-size="14.00">ID_102_ct0_st</text>
<text text-anchor="start" x="1352.5" y="-219.28" font-family="arial" font-size="14.00" fill="#984ea3">true</text>
<text text-anchor="start" x="1352.5" y="-205.28" font-family="arial" font-size="14.00" fill="#ff7f00">true</text>
</g>
<!-- ID_102_ct0_stinit&#45;&gt;ID_102_ct0_st -->
<g id="edge4" class="edge">
<title>ID_102_ct0_stinit&#45;&gt;ID_102_ct0_st</title>
<path fill="none" stroke="black" d="M1251.1,-320.59C1265.51,-315.02 1280.32,-308.03 1293,-299.48 1310.5,-287.68 1326.66,-270.68 1339.09,-255.66"/>
<polygon fill="black" stroke="black" points="1342.06,-257.55 1345.59,-247.56 1336.6,-253.17 1342.06,-257.55"/>
<text text-anchor="start" x="1269" y="-316.28" font-family="arial" font-size="14.00" fill="#377eb8">true</text>
</g>
<!-- _ID_102_ct0_st0 -->
<!-- ID_102_ct0_st0 -->
<g id="node4" class="node">
<title>ID_102_ct0_st0</title>
<polygon fill="none" stroke="black" points="285,-272.48 161,-272.48 161,-222.48 285,-222.48 285,-272.48"/>
<text text-anchor="start" x="174" y="-258.28" font-family="arial" font-weight="bold" font-size="14.00">ID_102_ct0_st0</text>
<text text-anchor="start" x="169" y="-244.28" font-family="arial" font-size="14.00" fill="#984ea3">(!P &amp;&amp; (!R &amp;&amp; !T))</text>
<text text-anchor="start" x="211" y="-230.28" font-family="arial" font-size="14.00" fill="#ff7f00">true</text>
</g>
<!-- _ID_102_ct0_st0&#45;&gt;ID_102_ct0_st0 -->
<g id="edge2" class="edge">
<title>_ID_102_ct0_st0&#45;&gt;ID_102_ct0_st0</title>
<path fill="none" stroke="black" d="M119.26,-247.48C129.51,-247.48 140.28,-247.48 150.82,-247.48"/>
<polygon fill="black" stroke="black" points="150.84,-250.98 160.84,-247.48 150.84,-243.98 150.84,-250.98"/>
</g>
<!-- ID_102_ct0_st0&#45;&gt;ID_102_ct0_st0 -->
<g id="edge9" class="edge">
<title>ID_102_ct0_st0&#45;&gt;ID_102_ct0_st0</title>
<path fill="none" stroke="black" d="M207.31,-272.65C206.61,-282.39 211.84,-290.48 223,-290.48 229.97,-290.48 234.63,-287.32 236.97,-282.57"/>
<polygon fill="black" stroke="black" points="240.43,-283.1 238.69,-272.65 233.53,-281.91 240.43,-283.1"/>
<text text-anchor="start" x="211" y="-294.28" font-family="arial" font-size="14.00" fill="#377eb8">true</text>
</g>
<!-- ID_102_ct0_st012 -->
<g id="node6" class="node">
<title>ID_102_ct0_st012</title>
<polygon fill="none" stroke="black" points="517,-165.48 350,-165.48 350,-115.48 517,-115.48 517,-165.48"/>
<text text-anchor="start" x="377" y="-151.28" font-family="arial" font-weight="bold" font-size="14.00">ID_102_ct0_st012</text>
<text text-anchor="start" x="358" y="-137.28" font-family="arial" font-size="14.00" fill="#984ea3">(!P &amp;&amp; (R &amp;&amp; (!S &amp;&amp; !T)))</text>
<text text-anchor="start" x="421.5" y="-123.28" font-family="arial" font-size="14.00" fill="#ff7f00">true</text>
</g>
<!-- ID_102_ct0_st0&#45;&gt;ID_102_ct0_st012 -->
<g id="edge10" class="edge">
<title>ID_102_ct0_st0&#45;&gt;ID_102_ct0_st012</title>
<path fill="none" stroke="black" d="M272.88,-222.39C303.23,-206.82 342.39,-186.72 374.33,-170.33"/>
<polygon fill="black" stroke="black" points="376.26,-173.27 383.56,-165.59 373.07,-167.04 376.26,-173.27"/>
<text text-anchor="start" x="308" y="-207.28" font-family="arial" font-size="14.00" fill="#377eb8">true</text>
</g>
<!-- ID_102_ct0_st0&#45;&gt;ID_102_ct0_st -->
<g id="edge7" class="edge">
<title>ID_102_ct0_st0&#45;&gt;ID_102_ct0_st</title>
<path fill="none" stroke="black" d="M285.05,-264.59C326.33,-274.67 382.28,-285.48 432.5,-285.48 432.5,-285.48 432.5,-285.48 1188.5,-285.48 1231.45,-285.48 1277,-268.47 1310.86,-252.13"/>
<polygon fill="black" stroke="black" points="1312.69,-255.14 1320.09,-247.56 1309.58,-248.86 1312.69,-255.14"/>
<text text-anchor="start" x="790" y="-289.28" font-family="arial" font-size="14.00" fill="#377eb8">(P&#39; || (!R&#39; &amp;&amp; T&#39;))</text>
</g>
<!-- ID_102_ct0_st12 -->
<g id="node8" class="node">
<title>ID_102_ct0_st12</title>
<polygon fill="none" stroke="black" points="1032,-173.48 910,-173.48 910,-123.48 1032,-123.48 1032,-173.48"/>
<text text-anchor="start" x="918" y="-159.28" font-family="arial" font-weight="bold" font-size="14.00">ID_102_ct0_st12</text>
<text text-anchor="start" x="918.5" y="-145.28" font-family="arial" font-size="14.00" fill="#984ea3">(!P &amp;&amp; (R &amp;&amp; !S))</text>
<text text-anchor="start" x="959" y="-131.28" font-family="arial" font-size="14.00" fill="#ff7f00">true</text>
</g>
<!-- ID_102_ct0_st0&#45;&gt;ID_102_ct0_st12 -->
<g id="edge8" class="edge">
<title>ID_102_ct0_st0&#45;&gt;ID_102_ct0_st12</title>
<path fill="none" stroke="black" d="M285.21,-245.71C356.84,-243.1 478.93,-236.99 583,-223.48 694.55,-209 822.4,-182.19 899.63,-164.86"/>
<polygon fill="black" stroke="black" points="900.73,-168.2 909.72,-162.58 899.19,-161.37 900.73,-168.2"/>
<text text-anchor="start" x="535" y="-232.28" font-family="arial" font-size="14.00" fill="#377eb8">(P&#39; || T&#39;)</text>
</g>
<!-- _ID_102_ct0_st012 -->
<!-- _ID_102_ct0_st012&#45;&gt;ID_102_ct0_st012 -->
<g id="edge3" class="edge">
<title>_ID_102_ct0_st012&#45;&gt;ID_102_ct0_st012</title>
<path fill="none" stroke="black" d="M290.26,-140.48C305.96,-140.48 322.99,-140.48 339.63,-140.48"/>
<polygon fill="black" stroke="black" points="339.93,-143.98 349.93,-140.48 339.93,-136.98 339.93,-143.98"/>
</g>
<!-- ID_102_ct0_st012&#45;&gt;ID_102_ct0_st012 -->
<g id="edge25" class="edge">
<title>ID_102_ct0_st012&#45;&gt;ID_102_ct0_st012</title>
<path fill="none" stroke="black" d="M412.58,-165.65C411.65,-175.39 418.62,-183.48 433.5,-183.48 442.8,-183.48 449.01,-180.32 452.13,-175.57"/>
<polygon fill="black" stroke="black" points="455.58,-176.18 454.42,-165.65 448.76,-174.61 455.58,-176.18"/>
<text text-anchor="start" x="421.5" y="-187.28" font-family="arial" font-size="14.00" fill="#377eb8">true</text>
</g>
<!-- ID_102_ct0_st012&#45;&gt;ID_102_ct0_st -->
<g id="edge21" class="edge">
<title>ID_102_ct0_st012&#45;&gt;ID_102_ct0_st</title>
<path fill="none" stroke="black" d="M517.04,-153.62C523.12,-154.59 529.15,-155.55 535,-156.48 700.33,-182.75 740.25,-200.79 907,-215.48 1003.09,-223.94 1027.55,-217.98 1124,-219.48 1183.85,-220.4 1252.11,-221.24 1300.4,-221.79"/>
<polygon fill="black" stroke="black" points="1300.66,-225.29 1310.7,-221.9 1300.74,-218.29 1300.66,-225.29"/>
<text text-anchor="start" x="964.5" y="-223.28" font-family="arial" font-size="14.00" fill="#377eb8">P&#39;</text>
</g>
<!-- ID_102_ct0_st012&#45;&gt;ID_102_ct0_st12 -->
<g id="edge23" class="edge">
<title>ID_102_ct0_st012&#45;&gt;ID_102_ct0_st12</title>
<path fill="none" stroke="black" d="M517.29,-141.71C622.2,-143.28 801.2,-145.95 899.76,-147.43"/>
<polygon fill="black" stroke="black" points="899.86,-150.93 909.91,-147.58 899.97,-143.93 899.86,-150.93"/>
<text text-anchor="start" x="662.5" y="-149.28" font-family="arial" font-size="14.00" fill="#377eb8">(P&#39; || T&#39;)</text>
</g>
<!-- ID_102_ct0_st2 -->
<g id="node9" class="node">
<title>ID_102_ct0_st2</title>
<polygon fill="none" stroke="black" points="1244.5,-125.48 1130.5,-125.48 1130.5,-75.48 1244.5,-75.48 1244.5,-125.48"/>
<text text-anchor="start" x="1138.5" y="-111.28" font-family="arial" font-weight="bold" font-size="14.00">ID_102_ct0_st2</text>
<text text-anchor="start" x="1157" y="-97.28" font-family="arial" font-size="14.00" fill="#984ea3">(!P &amp;&amp; !S)</text>
<text text-anchor="start" x="1175.5" y="-83.28" font-family="arial" font-size="14.00" fill="#ff7f00">true</text>
</g>
<!-- ID_102_ct0_st012&#45;&gt;ID_102_ct0_st2 -->
<g id="edge22" class="edge">
<title>ID_102_ct0_st012&#45;&gt;ID_102_ct0_st2</title>
<path fill="none" stroke="black" d="M517.29,-135.8C611.62,-130.49 770.4,-121.66 907,-114.48 979.85,-110.65 1063.4,-106.49 1120.03,-103.71"/>
<polygon fill="black" stroke="black" points="1120.47,-107.2 1130.28,-103.21 1120.12,-100.21 1120.47,-107.2"/>
<text text-anchor="start" x="790" y="-125.28" font-family="arial" font-size="14.00" fill="#377eb8">(P&#39; || (!R&#39; &amp;&amp; T&#39;))</text>
</g>
<!-- ID_102_ct0_st02 -->
<g id="node10" class="node">
<title>ID_102_ct0_st02</title>
<polygon fill="none" stroke="black" points="772,-57.48 601,-57.48 601,-7.48 772,-7.48 772,-57.48"/>
<text text-anchor="start" x="633.5" y="-43.28" font-family="arial" font-weight="bold" font-size="14.00">ID_102_ct0_st02</text>
<text text-anchor="start" x="609" y="-29.28" font-family="arial" font-size="14.00" fill="#984ea3">(!P &amp;&amp; (!R &amp;&amp; (!S &amp;&amp; !T)))</text>
<text text-anchor="start" x="674.5" y="-15.28" font-family="arial" font-size="14.00" fill="#ff7f00">true</text>
</g>
<!-- ID_102_ct0_st012&#45;&gt;ID_102_ct0_st02 -->
<g id="edge24" class="edge">
<title>ID_102_ct0_st012&#45;&gt;ID_102_ct0_st02</title>
<path fill="none" stroke="black" d="M481.29,-115.42C498.04,-106.8 517.19,-97.34 535,-89.48 557.36,-79.6 582.02,-69.82 604.79,-61.22"/>
<polygon fill="black" stroke="black" points="606.29,-64.39 614.43,-57.61 603.83,-57.84 606.29,-64.39"/>
<text text-anchor="start" x="547" y="-93.28" font-family="arial" font-size="14.00" fill="#377eb8">true</text>
</g>
<!-- ID_102_ct0_st&#45;&gt;ID_102_ct0_st -->
<g id="edge6" class="edge">
<title>ID_102_ct0_st&#45;&gt;ID_102_ct0_st</title>
<path fill="none" stroke="black" d="M1349.19,-247.65C1348.5,-257.39 1353.61,-265.48 1364.5,-265.48 1371.31,-265.48 1375.85,-262.32 1378.14,-257.57"/>
<polygon fill="black" stroke="black" points="1381.6,-258.1 1379.81,-247.65 1374.7,-256.93 1381.6,-258.1"/>
<text text-anchor="start" x="1352.5" y="-269.28" font-family="arial" font-size="14.00" fill="#377eb8">true</text>
</g>
<!-- ID_102_ct0_st12&#45;&gt;ID_102_ct0_st -->
<g id="edge18" class="edge">
<title>ID_102_ct0_st12&#45;&gt;ID_102_ct0_st</title>
<path fill="none" stroke="black" d="M1032.31,-159.88C1105.14,-173.64 1227.02,-196.68 1300.87,-210.64"/>
<polygon fill="black" stroke="black" points="1300.48,-214.13 1310.96,-212.55 1301.78,-207.25 1300.48,-214.13"/>
<text text-anchor="start" x="1181" y="-204.28" font-family="arial" font-size="14.00" fill="#377eb8">P&#39;</text>
</g>
<!-- ID_102_ct0_st12&#45;&gt;ID_102_ct0_st12 -->
<g id="edge20" class="edge">
<title>ID_102_ct0_st12&#45;&gt;ID_102_ct0_st12</title>
<path fill="none" stroke="black" d="M950.83,-173.65C949.93,-183.39 956.66,-191.48 971,-191.48 979.96,-191.48 985.95,-188.32 988.96,-183.57"/>
<polygon fill="black" stroke="black" points="992.42,-184.17 991.17,-173.65 985.58,-182.65 992.42,-184.17"/>
<text text-anchor="start" x="959" y="-195.28" font-family="arial" font-size="14.00" fill="#377eb8">true</text>
</g>
<!-- ID_102_ct0_st12&#45;&gt;ID_102_ct0_st2 -->
<g id="edge19" class="edge">
<title>ID_102_ct0_st12&#45;&gt;ID_102_ct0_st2</title>
<path fill="none" stroke="black" d="M1032.04,-135.04C1059.53,-128.89 1092.2,-121.58 1120.39,-115.27"/>
<polygon fill="black" stroke="black" points="1121.17,-118.68 1130.16,-113.08 1119.64,-111.85 1121.17,-118.68"/>
<text text-anchor="start" x="1053" y="-134.28" font-family="arial" font-size="14.00" fill="#377eb8">(P&#39; || !R&#39;)</text>
</g>
<!-- ID_102_ct0_st2&#45;&gt;ID_102_ct0_st -->
<g id="edge11" class="edge">
<title>ID_102_ct0_st2&#45;&gt;ID_102_ct0_st</title>
<path fill="none" stroke="black" d="M1229.52,-125.55C1249.03,-137.78 1272.51,-152.96 1293,-167.48 1303.4,-174.84 1314.37,-183.13 1324.49,-191.01"/>
<polygon fill="black" stroke="black" points="1322.36,-193.79 1332.39,-197.2 1326.68,-188.28 1322.36,-193.79"/>
<text text-anchor="start" x="1274.5" y="-171.28" font-family="arial" font-size="14.00" fill="#377eb8">P&#39;</text>
</g>
<!-- ID_102_ct0_st2&#45;&gt;ID_102_ct0_st2 -->
<g id="edge12" class="edge">
<title>ID_102_ct0_st2&#45;&gt;ID_102_ct0_st2</title>
<path fill="none" stroke="black" d="M1170.32,-125.65C1169.55,-135.39 1175.28,-143.48 1187.5,-143.48 1195.14,-143.48 1200.24,-140.32 1202.8,-135.57"/>
<polygon fill="black" stroke="black" points="1206.26,-136.13 1204.68,-125.65 1199.38,-134.83 1206.26,-136.13"/>
<text text-anchor="start" x="1175.5" y="-147.28" font-family="arial" font-size="14.00" fill="#377eb8">true</text>
</g>
<!-- ID_102_ct0_st02&#45;&gt;ID_102_ct0_st012 -->
<g id="edge17" class="edge">
<title>ID_102_ct0_st02&#45;&gt;ID_102_ct0_st012</title>
<path fill="none" stroke="black" d="M601,-31.35C578.78,-33.58 555.35,-38.31 535,-47.48 505.4,-60.8 478.78,-86.37 460.39,-107.33"/>
<polygon fill="black" stroke="black" points="457.58,-105.23 453.75,-115.11 462.91,-109.77 457.58,-105.23"/>
<text text-anchor="start" x="547" y="-51.28" font-family="arial" font-size="14.00" fill="#377eb8">true</text>
</g>
<!-- ID_102_ct0_st02&#45;&gt;ID_102_ct0_st -->
<g id="edge13" class="edge">
<title>ID_102_ct0_st02&#45;&gt;ID_102_ct0_st</title>
<path fill="none" stroke="black" d="M772.47,-15.37C888.95,3.4 1100.85,20.4 1251,-66.48 1298.76,-94.11 1331.73,-151.06 1349.11,-187.97"/>
<polygon fill="black" stroke="black" points="1346.06,-189.71 1353.4,-197.35 1352.43,-186.8 1346.06,-189.71"/>
<text text-anchor="start" x="1073" y="-18.28" font-family="arial" font-size="14.00" fill="#377eb8">P&#39;</text>
</g>
<!-- ID_102_ct0_st02&#45;&gt;ID_102_ct0_st12 -->
<g id="edge15" class="edge">
<title>ID_102_ct0_st02&#45;&gt;ID_102_ct0_st12</title>
<path fill="none" stroke="black" d="M772.21,-54.1C778.22,-55.6 784.2,-57.07 790,-58.48 833.89,-69.14 848.52,-61.44 889,-81.48 906.94,-90.36 924.38,-103.93 938.45,-116.54"/>
<polygon fill="black" stroke="black" points="936.18,-119.21 945.9,-123.41 940.92,-114.06 936.18,-119.21"/>
<text text-anchor="start" x="815.5" y="-85.28" font-family="arial" font-size="14.00" fill="#377eb8">(P&#39; || T&#39;)</text>
</g>
<!-- ID_102_ct0_st02&#45;&gt;ID_102_ct0_st2 -->
<g id="edge14" class="edge">
<title>ID_102_ct0_st02&#45;&gt;ID_102_ct0_st2</title>
<path fill="none" stroke="black" d="M772.09,-38.12C842.66,-43.46 945.73,-52.72 1035,-66.48 1066.88,-71.39 1074.53,-74.44 1106,-81.48 1110.66,-82.52 1115.47,-83.61 1120.3,-84.72"/>
<polygon fill="black" stroke="black" points="1119.71,-88.18 1130.24,-87.02 1121.29,-81.36 1119.71,-88.18"/>
<text text-anchor="start" x="921.5" y="-70.28" font-family="arial" font-size="14.00" fill="#377eb8">(P&#39; || (!R&#39; &amp;&amp; T&#39;))</text>
</g>
<!-- ID_102_ct0_st02&#45;&gt;ID_102_ct0_st02 -->
<g id="edge16" class="edge">
<title>ID_102_ct0_st02&#45;&gt;ID_102_ct0_st02</title>
<path fill="none" stroke="black" d="M662.97,-57.65C661.92,-67.39 669.77,-75.48 686.5,-75.48 696.96,-75.48 703.95,-72.32 707.46,-67.57"/>
<polygon fill="black" stroke="black" points="710.91,-68.21 710.03,-57.65 704.13,-66.45 710.91,-68.21"/>
<text text-anchor="start" x="674.5" y="-79.28" font-family="arial" font-size="14.00" fill="#377eb8">true</text>
</g>
</g>
</svg>
