<?xml version="1.0" encoding="UTF-8" standalone="no"?>
<!DOCTYPE svg PUBLIC "-//W3C//DTD SVG 1.1//EN"
 "http://www.w3.org/Graphics/SVG/1.1/DTD/svg11.dtd">
<!-- Generated by graphviz version 2.43.0 (0)
 -->
<!-- Title: G Pages: 1 -->
<svg width="335pt" height="192pt"
 viewBox="0.00 0.00 335.00 192.00" xmlns="http://www.w3.org/2000/svg" xmlns:xlink="http://www.w3.org/1999/xlink">
<g id="graph0" class="graph" transform="scale(1 1) rotate(0) translate(4 188)">
<title>G</title>
<polygon fill="white" stroke="transparent" points="-4,4 -4,-188 331,-188 331,4 -4,4"/>
<!-- _stinit -->
<!-- stinit -->
<g id="node2" class="node">
<title>stinit</title>
<polygon fill="none" stroke="black" points="158,-151 104,-151 104,-101 158,-101 158,-151"/>
<text text-anchor="start" x="114.5" y="-136.8" font-family="arial" font-weight="bold" font-size="14.00">stinit</text>
<text text-anchor="start" x="125" y="-122.8" font-family="arial" font-size="14.00" fill="#984ea3">Q</text>
<text text-anchor="start" x="119" y="-108.8" font-family="arial" font-size="14.00" fill="#ff7f00">true</text>
</g>
<!-- _stinit&#45;&gt;stinit -->
<g id="edge1" class="edge">
<title>_stinit&#45;&gt;stinit</title>
<path fill="none" stroke="black" d="M54,-126C66.02,-126 80.49,-126 93.57,-126"/>
<polygon fill="black" stroke="black" points="93.69,-129.5 103.69,-126 93.69,-122.5 93.69,-129.5"/>
</g>
<!-- stinit&#45;&gt;stinit -->
<g id="edge4" class="edge">
<title>stinit&#45;&gt;stinit</title>
<path fill="none" stroke="black" d="M120.17,-151.18C119.69,-160.91 123.3,-169 131,-169 135.69,-169 138.87,-166 140.52,-161.45"/>
<polygon fill="black" stroke="black" points="144.04,-161.54 141.83,-151.18 137.1,-160.65 144.04,-161.54"/>
<text text-anchor="start" x="119" y="-172.8" font-family="arial" font-size="14.00" fill="#377eb8">true</text>
</g>
<!-- st -->
<g id="node5" class="node">
<title>st</title>
<polygon fill="none" stroke="black" points="327,-100 273,-100 273,-50 327,-50 327,-100"/>
<text text-anchor="start" x="293.5" y="-85.8" font-family="arial" font-weight="bold" font-size="14.00">st</text>
<text text-anchor="start" x="288" y="-71.8" font-family="arial" font-size="14.00" fill="#984ea3">true</text>
<text text-anchor="start" x="288" y="-57.8" font-family="arial" font-size="14.00" fill="#ff7f00">true</text>
</g>
<!-- stinit&#45;&gt;st -->
<g id="edge3" class="edge">
<title>stinit&#45;&gt;st</title>
<path fill="none" stroke="black" d="M158.09,-118.03C186.32,-109.41 231.51,-95.61 263.08,-85.97"/>
<polygon fill="black" stroke="black" points="264.27,-89.26 272.81,-83 262.23,-82.57 264.27,-89.26"/>
<text text-anchor="start" x="210" y="-111.8" font-family="arial" font-size="14.00" fill="#377eb8">true</text>
</g>
<!-- _st0 -->
<!-- st0 -->
<g id="node4" class="node">
<title>st0</title>
<polygon fill="none" stroke="black" points="171,-50 91,-50 91,0 171,0 171,-50"/>
<text text-anchor="start" x="121" y="-35.8" font-family="arial" font-weight="bold" font-size="14.00">st0</text>
<text text-anchor="start" x="99" y="-21.8" font-family="arial" font-size="14.00" fill="#984ea3">(!Q &amp;&amp; !R)</text>
<text text-anchor="start" x="119" y="-7.8" font-family="arial" font-size="14.00" fill="#ff7f00">true</text>
</g>
<!-- _st0&#45;&gt;st0 -->
<g id="edge2" class="edge">
<title>_st0&#45;&gt;st0</title>
<path fill="none" stroke="black" d="M54,-25C62.24,-25 71.63,-25 80.93,-25"/>
<polygon fill="black" stroke="black" points="80.94,-28.5 90.94,-25 80.94,-21.5 80.94,-28.5"/>
</g>
<!-- st0&#45;&gt;st0 -->
<g id="edge7" class="edge">
<title>st0&#45;&gt;st0</title>
<path fill="none" stroke="black" d="M120.17,-50.18C119.69,-59.91 123.3,-68 131,-68 135.69,-68 138.87,-65 140.52,-60.45"/>
<polygon fill="black" stroke="black" points="144.04,-60.54 141.83,-50.18 137.1,-59.65 144.04,-60.54"/>
<text text-anchor="start" x="119" y="-71.8" font-family="arial" font-size="14.00" fill="#377eb8">true</text>
</g>
<!-- st0&#45;&gt;st -->
<g id="edge6" class="edge">
<title>st0&#45;&gt;st</title>
<path fill="none" stroke="black" d="M171.15,-36.72C198.94,-45.04 235.95,-56.12 263,-64.22"/>
<polygon fill="black" stroke="black" points="262.25,-67.65 272.83,-67.17 264.26,-60.94 262.25,-67.65"/>
<text text-anchor="start" x="189" y="-64.8" font-family="arial" font-size="14.00" fill="#377eb8">(Q&#39; &amp;&amp; !R&#39;)</text>
</g>
<!-- st&#45;&gt;st -->
<g id="edge5" class="edge">
<title>st&#45;&gt;st</title>
<path fill="none" stroke="black" d="M285.43,-100.18C284.78,-109.91 289.64,-118 300,-118 306.47,-118 310.8,-114.84 312.97,-110.09"/>
<polygon fill="black" stroke="black" points="316.44,-110.6 314.57,-100.18 309.53,-109.49 316.44,-110.6"/>
<text text-anchor="start" x="288" y="-121.8" font-family="arial" font-size="14.00" fill="#377eb8">true</text>
</g>
</g>
</svg>
