<?xml version="1.0" encoding="UTF-8" standalone="no"?>
<!DOCTYPE svg PUBLIC "-//W3C//DTD SVG 1.1//EN"
 "http://www.w3.org/Graphics/SVG/1.1/DTD/svg11.dtd">
<!-- Generated by graphviz version 2.43.0 (0)
 -->
<!-- Title: G Pages: 1 -->
<svg width="333pt" height="192pt"
 viewBox="0.00 0.00 333.00 192.00" xmlns="http://www.w3.org/2000/svg" xmlns:xlink="http://www.w3.org/1999/xlink">
<g id="graph0" class="graph" transform="scale(1 1) rotate(0) translate(4 188)">
<title>G</title>
<polygon fill="white" stroke="transparent" points="-4,4 -4,-188 329,-188 329,4 -4,4"/>
<!-- _stinit -->
<!-- stinit -->
<g id="node2" class="node">
<title>stinit</title>
<polygon fill="none" stroke="black" points="157.5,-151 103.5,-151 103.5,-101 157.5,-101 157.5,-151"/>
<text text-anchor="start" x="114" y="-136.8" font-family="arial" font-weight="bold" font-size="14.00">stinit</text>
<text text-anchor="start" x="124.5" y="-122.8" font-family="arial" font-size="14.00" fill="#984ea3">Q</text>
<text text-anchor="start" x="118.5" y="-108.8" font-family="arial" font-size="14.00" fill="#ff7f00">true</text>
</g>
<!-- _stinit&#45;&gt;stinit -->
<g id="edge1" class="edge">
<title>_stinit&#45;&gt;stinit</title>
<path fill="none" stroke="black" d="M54.14,-126C66.1,-126 80.46,-126 93.42,-126"/>
<polygon fill="black" stroke="black" points="93.45,-129.5 103.45,-126 93.45,-122.5 93.45,-129.5"/>
</g>
<!-- stinit&#45;&gt;stinit -->
<g id="edge4" class="edge">
<title>stinit&#45;&gt;stinit</title>
<path fill="none" stroke="black" d="M119.67,-151.18C119.19,-160.91 122.8,-169 130.5,-169 135.19,-169 138.37,-166 140.02,-161.45"/>
<polygon fill="black" stroke="black" points="143.54,-161.54 141.33,-151.18 136.6,-160.65 143.54,-161.54"/>
<text text-anchor="start" x="118.5" y="-172.8" font-family="arial" font-size="14.00" fill="#377eb8">true</text>
</g>
<!-- st -->
<g id="node5" class="node">
<title>st</title>
<polygon fill="none" stroke="black" points="325,-100 271,-100 271,-50 325,-50 325,-100"/>
<text text-anchor="start" x="291.5" y="-85.8" font-family="arial" font-weight="bold" font-size="14.00">st</text>
<text text-anchor="start" x="286" y="-71.8" font-family="arial" font-size="14.00" fill="#984ea3">true</text>
<text text-anchor="start" x="286" y="-57.8" font-family="arial" font-size="14.00" fill="#ff7f00">true</text>
</g>
<!-- stinit&#45;&gt;st -->
<g id="edge3" class="edge">
<title>stinit&#45;&gt;st</title>
<path fill="none" stroke="black" d="M157.72,-117.92C185.69,-109.3 230.15,-95.6 261.29,-86"/>
<polygon fill="black" stroke="black" points="262.37,-89.33 270.9,-83.04 260.31,-82.64 262.37,-89.33"/>
<text text-anchor="start" x="208.5" y="-111.8" font-family="arial" font-size="14.00" fill="#377eb8">true</text>
</g>
<!-- _st0 -->
<!-- st0 -->
<g id="node4" class="node">
<title>st0</title>
<polygon fill="none" stroke="black" points="170,-50 91,-50 91,0 170,0 170,-50"/>
<text text-anchor="start" x="120.5" y="-35.8" font-family="arial" font-weight="bold" font-size="14.00">st0</text>
<text text-anchor="start" x="99" y="-21.8" font-family="arial" font-size="14.00" fill="#984ea3">(!Q &amp;&amp; !S)</text>
<text text-anchor="start" x="118.5" y="-7.8" font-family="arial" font-size="14.00" fill="#ff7f00">true</text>
</g>
<!-- _st0&#45;&gt;st0 -->
<g id="edge2" class="edge">
<title>_st0&#45;&gt;st0</title>
<path fill="none" stroke="black" d="M54.14,-25C62.25,-25 71.46,-25 80.6,-25"/>
<polygon fill="black" stroke="black" points="80.81,-28.5 90.81,-25 80.81,-21.5 80.81,-28.5"/>
</g>
<!-- st0&#45;&gt;st0 -->
<g id="edge7" class="edge">
<title>st0&#45;&gt;st0</title>
<path fill="none" stroke="black" d="M119.67,-50.18C119.19,-59.91 122.8,-68 130.5,-68 135.19,-68 138.37,-65 140.02,-60.45"/>
<polygon fill="black" stroke="black" points="143.54,-60.54 141.33,-50.18 136.6,-59.65 143.54,-60.54"/>
<text text-anchor="start" x="118.5" y="-71.8" font-family="arial" font-size="14.00" fill="#377eb8">true</text>
</g>
<!-- st0&#45;&gt;st -->
<g id="edge6" class="edge">
<title>st0&#45;&gt;st</title>
<path fill="none" stroke="black" d="M170.3,-36.72C197.75,-45.02 234.29,-56.05 261.07,-64.15"/>
<polygon fill="black" stroke="black" points="260.23,-67.55 270.82,-67.09 262.26,-60.85 260.23,-67.55"/>
<text text-anchor="start" x="188" y="-64.8" font-family="arial" font-size="14.00" fill="#377eb8">(Q&#39; &amp;&amp; !S&#39;)</text>
</g>
<!-- st&#45;&gt;st -->
<g id="edge5" class="edge">
<title>st&#45;&gt;st</title>
<path fill="none" stroke="black" d="M283.81,-100.18C283.17,-109.91 287.91,-118 298,-118 304.31,-118 308.52,-114.84 310.64,-110.09"/>
<polygon fill="black" stroke="black" points="314.11,-110.6 312.19,-100.18 307.19,-109.51 314.11,-110.6"/>
<text text-anchor="start" x="286" y="-121.8" font-family="arial" font-size="14.00" fill="#377eb8">true</text>
</g>
</g>
</svg>
