<?xml version="1.0" encoding="UTF-8" standalone="no"?>
<!DOCTYPE svg PUBLIC "-//W3C//DTD SVG 1.1//EN"
 "http://www.w3.org/Graphics/SVG/1.1/DTD/svg11.dtd">
<!-- Generated by graphviz version 2.43.0 (0)
 -->
<!-- Title: G Pages: 1 -->
<svg width="967pt" height="364pt"
 viewBox="0.00 0.00 967.00 364.00" xmlns="http://www.w3.org/2000/svg" xmlns:xlink="http://www.w3.org/1999/xlink">
<g id="graph0" class="graph" transform="scale(1 1) rotate(0) translate(4 360)">
<title>G</title>
<polygon fill="white" stroke="transparent" points="-4,4 -4,-360 963,-360 963,4 -4,4"/>
<!-- _stinit -->
<!-- stinit -->
<g id="node2" class="node">
<title>stinit</title>
<polygon fill="none" stroke="black" points="793.5,-323 739.5,-323 739.5,-273 793.5,-273 793.5,-323"/>
<text text-anchor="start" x="750" y="-308.8" font-family="arial" font-weight="bold" font-size="14.00">stinit</text>
<text text-anchor="start" x="760.5" y="-294.8" font-family="arial" font-size="14.00" fill="#984ea3">Q</text>
<text text-anchor="start" x="754.5" y="-280.8" font-family="arial" font-size="14.00" fill="#ff7f00">true</text>
</g>
<!-- _stinit&#45;&gt;stinit -->
<g id="edge1" class="edge">
<title>_stinit&#45;&gt;stinit</title>
<path fill="none" stroke="black" d="M595.53,-298C629.79,-298 690.22,-298 729.03,-298"/>
<polygon fill="black" stroke="black" points="729.37,-301.5 739.37,-298 729.37,-294.5 729.37,-301.5"/>
</g>
<!-- stinit&#45;&gt;stinit -->
<g id="edge5" class="edge">
<title>stinit&#45;&gt;stinit</title>
<path fill="none" stroke="black" d="M750.44,-323.18C749.72,-332.91 755.08,-341 766.5,-341 773.64,-341 778.41,-337.84 780.81,-333.09"/>
<polygon fill="black" stroke="black" points="784.26,-333.63 782.56,-323.18 777.37,-332.41 784.26,-333.63"/>
<text text-anchor="start" x="754.5" y="-344.8" font-family="arial" font-size="14.00" fill="#377eb8">true</text>
</g>
<!-- st -->
<g id="node7" class="node">
<title>st</title>
<polygon fill="none" stroke="black" points="959,-202 905,-202 905,-152 959,-152 959,-202"/>
<text text-anchor="start" x="925.5" y="-187.8" font-family="arial" font-weight="bold" font-size="14.00">st</text>
<text text-anchor="start" x="920" y="-173.8" font-family="arial" font-size="14.00" fill="#984ea3">true</text>
<text text-anchor="start" x="920" y="-159.8" font-family="arial" font-size="14.00" fill="#ff7f00">true</text>
</g>
<!-- stinit&#45;&gt;st -->
<g id="edge4" class="edge">
<title>stinit&#45;&gt;st</title>
<path fill="none" stroke="black" d="M793.52,-295.19C819.74,-291.16 860.06,-281.55 887,-259 901.81,-246.6 912.38,-227.91 919.45,-211.49"/>
<polygon fill="black" stroke="black" points="922.72,-212.74 923.21,-202.16 916.22,-210.13 922.72,-212.74"/>
<text text-anchor="start" x="843" y="-292.8" font-family="arial" font-size="14.00" fill="#377eb8">true</text>
</g>
<!-- _st0 -->
<!-- st0 -->
<g id="node4" class="node">
<title>st0</title>
<polygon fill="none" stroke="black" points="171,-50 91,-50 91,0 171,0 171,-50"/>
<text text-anchor="start" x="121" y="-35.8" font-family="arial" font-weight="bold" font-size="14.00">st0</text>
<text text-anchor="start" x="99" y="-21.8" font-family="arial" font-size="14.00" fill="#984ea3">(!Q &amp;&amp; !R)</text>
<text text-anchor="start" x="119" y="-7.8" font-family="arial" font-size="14.00" fill="#ff7f00">true</text>
</g>
<!-- _st0&#45;&gt;st0 -->
<g id="edge2" class="edge">
<title>_st0&#45;&gt;st0</title>
<path fill="none" stroke="black" d="M54,-25C62.24,-25 71.63,-25 80.93,-25"/>
<polygon fill="black" stroke="black" points="80.94,-28.5 90.94,-25 80.94,-21.5 80.94,-28.5"/>
</g>
<!-- st0&#45;&gt;st0 -->
<g id="edge8" class="edge">
<title>st0&#45;&gt;st0</title>
<path fill="none" stroke="black" d="M120.17,-50.18C119.69,-59.91 123.3,-68 131,-68 135.69,-68 138.87,-65 140.52,-60.45"/>
<polygon fill="black" stroke="black" points="144.04,-60.54 141.83,-50.18 137.1,-59.65 144.04,-60.54"/>
<text text-anchor="start" x="119" y="-71.8" font-family="arial" font-size="14.00" fill="#377eb8">true</text>
</g>
<!-- st012 -->
<g id="node6" class="node">
<title>st012</title>
<polygon fill="none" stroke="black" points="307,-159 231,-159 231,-109 307,-109 307,-159"/>
<text text-anchor="start" x="251.5" y="-144.8" font-family="arial" font-weight="bold" font-size="14.00">st012</text>
<text text-anchor="start" x="239" y="-130.8" font-family="arial" font-size="14.00" fill="#984ea3">(!Q &amp;&amp; R)</text>
<text text-anchor="start" x="257" y="-116.8" font-family="arial" font-size="14.00" fill="#ff7f00">true</text>
</g>
<!-- st0&#45;&gt;st012 -->
<g id="edge9" class="edge">
<title>st0&#45;&gt;st012</title>
<path fill="none" stroke="black" d="M163.2,-50.01C182.59,-65.54 207.68,-85.66 228.45,-102.3"/>
<polygon fill="black" stroke="black" points="226.48,-105.21 236.47,-108.73 230.86,-99.75 226.48,-105.21"/>
<text text-anchor="start" x="189" y="-92.8" font-family="arial" font-size="14.00" fill="#377eb8">true</text>
</g>
<!-- st0&#45;&gt;st -->
<g id="edge7" class="edge">
<title>st0&#45;&gt;st</title>
<path fill="none" stroke="black" d="M171.14,-17.94C198.24,-13.65 235.19,-9 268,-9 268,-9 268,-9 767.5,-9 795.33,-9 867.84,-60.66 887,-83 901.78,-100.24 912.68,-123.29 919.92,-142.25"/>
<polygon fill="black" stroke="black" points="916.67,-143.54 923.38,-151.73 923.25,-141.14 916.67,-143.54"/>
<text text-anchor="start" x="469.5" y="-12.8" font-family="arial" font-size="14.00" fill="#377eb8">Q&#39;</text>
</g>
<!-- _st012 -->
<!-- _st012&#45;&gt;st012 -->
<g id="edge3" class="edge">
<title>_st012&#45;&gt;st012</title>
<path fill="none" stroke="black" d="M159.52,-134C177.12,-134 200.4,-134 220.88,-134"/>
<polygon fill="black" stroke="black" points="220.98,-137.5 230.98,-134 220.98,-130.5 220.98,-137.5"/>
</g>
<!-- st012&#45;&gt;st012 -->
<g id="edge17" class="edge">
<title>st012&#45;&gt;st012</title>
<path fill="none" stroke="black" d="M256.3,-159.18C255.74,-168.91 259.97,-177 269,-177 274.64,-177 278.41,-173.84 280.31,-169.09"/>
<polygon fill="black" stroke="black" points="283.78,-169.56 281.7,-159.18 276.85,-168.59 283.78,-169.56"/>
<text text-anchor="start" x="257" y="-180.8" font-family="arial" font-size="14.00" fill="#377eb8">true</text>
</g>
<!-- st012&#45;&gt;st -->
<g id="edge14" class="edge">
<title>st012&#45;&gt;st</title>
<path fill="none" stroke="black" d="M285.45,-159.19C307.69,-191.94 352.06,-245 406,-245 406,-245 406,-245 767.5,-245 814.85,-245 864.41,-220.39 896.38,-200.78"/>
<polygon fill="black" stroke="black" points="898.31,-203.69 904.91,-195.4 894.58,-197.77 898.31,-203.69"/>
<text text-anchor="start" x="537.5" y="-248.8" font-family="arial" font-size="14.00" fill="#377eb8">(Q&#39; &amp;&amp; R&#39;)</text>
</g>
<!-- st02 -->
<g id="node8" class="node">
<title>st02</title>
<polygon fill="none" stroke="black" points="447,-184 367,-184 367,-134 447,-134 447,-184"/>
<text text-anchor="start" x="393" y="-169.8" font-family="arial" font-weight="bold" font-size="14.00">st02</text>
<text text-anchor="start" x="375" y="-155.8" font-family="arial" font-size="14.00" fill="#984ea3">(!Q &amp;&amp; !R)</text>
<text text-anchor="start" x="395" y="-141.8" font-family="arial" font-size="14.00" fill="#ff7f00">true</text>
</g>
<!-- st012&#45;&gt;st02 -->
<g id="edge16" class="edge">
<title>st012&#45;&gt;st02</title>
<path fill="none" stroke="black" d="M307.06,-145.72C313.02,-147.33 319.15,-148.83 325,-150 335.09,-152.01 345.99,-153.61 356.42,-154.86"/>
<polygon fill="black" stroke="black" points="356.32,-158.37 366.65,-156 357.1,-151.42 356.32,-158.37"/>
<text text-anchor="start" x="325" y="-156.8" font-family="arial" font-size="14.00" fill="#377eb8">true</text>
</g>
<!-- st34 -->
<g id="node9" class="node">
<title>st34</title>
<polygon fill="none" stroke="black" points="630,-132 507,-132 507,-82 630,-82 630,-132"/>
<text text-anchor="start" x="554.5" y="-117.8" font-family="arial" font-weight="bold" font-size="14.00">st34</text>
<text text-anchor="start" x="515" y="-103.8" font-family="arial" font-size="14.00" fill="#984ea3">(Q &amp;&amp; (!R &amp;&amp; !S))</text>
<text text-anchor="start" x="556.5" y="-89.8" font-family="arial" font-size="14.00" fill="#ff7f00">true</text>
</g>
<!-- st012&#45;&gt;st34 -->
<g id="edge15" class="edge">
<title>st012&#45;&gt;st34</title>
<path fill="none" stroke="black" d="M307.39,-122.64C325.26,-117.75 347.04,-112.58 367,-110 409.79,-104.46 458.13,-103.58 496.63,-104.15"/>
<polygon fill="black" stroke="black" points="496.64,-107.65 506.7,-104.33 496.77,-100.65 496.64,-107.65"/>
<text text-anchor="start" x="395" y="-113.8" font-family="arial" font-size="14.00" fill="#377eb8">true</text>
</g>
<!-- st&#45;&gt;st -->
<g id="edge6" class="edge">
<title>st&#45;&gt;st</title>
<path fill="none" stroke="black" d="M917.81,-202.18C917.17,-211.91 921.91,-220 932,-220 938.31,-220 942.52,-216.84 944.64,-212.09"/>
<polygon fill="black" stroke="black" points="948.11,-212.6 946.19,-202.18 941.19,-211.51 948.11,-212.6"/>
<text text-anchor="start" x="920" y="-223.8" font-family="arial" font-size="14.00" fill="#377eb8">true</text>
</g>
<!-- st02&#45;&gt;st012 -->
<g id="edge13" class="edge">
<title>st02&#45;&gt;st012</title>
<path fill="none" stroke="black" d="M366.77,-140.19C360.92,-138.07 354.89,-136.23 349,-135 338.93,-132.9 327.98,-131.94 317.53,-131.64"/>
<polygon fill="black" stroke="black" points="317.33,-128.14 307.3,-131.54 317.26,-135.14 317.33,-128.14"/>
<text text-anchor="start" x="325" y="-138.8" font-family="arial" font-size="14.00" fill="#377eb8">true</text>
</g>
<!-- st02&#45;&gt;st -->
<g id="edge10" class="edge">
<title>st02&#45;&gt;st</title>
<path fill="none" stroke="black" d="M447.35,-166.29C465.45,-169.3 487.24,-172.44 507,-174 650.04,-185.28 821.06,-181.12 894.53,-178.5"/>
<polygon fill="black" stroke="black" points="894.78,-181.99 904.65,-178.12 894.52,-174.99 894.78,-181.99"/>
<text text-anchor="start" x="648" y="-184.8" font-family="arial" font-size="14.00" fill="#377eb8">(Q&#39; &amp;&amp; R&#39;)</text>
</g>
<!-- st02&#45;&gt;st02 -->
<g id="edge12" class="edge">
<title>st02&#45;&gt;st02</title>
<path fill="none" stroke="black" d="M393.93,-184.18C393.35,-193.91 397.7,-202 407,-202 412.81,-202 416.69,-198.84 418.64,-194.09"/>
<polygon fill="black" stroke="black" points="422.11,-194.57 420.07,-184.18 415.18,-193.57 422.11,-194.57"/>
<text text-anchor="start" x="395" y="-205.8" font-family="arial" font-size="14.00" fill="#377eb8">true</text>
</g>
<!-- st02&#45;&gt;st34 -->
<g id="edge11" class="edge">
<title>st02&#45;&gt;st34</title>
<path fill="none" stroke="black" d="M447.02,-146.28C462.05,-141.38 479.72,-135.62 496.83,-130.04"/>
<polygon fill="black" stroke="black" points="498.39,-133.21 506.82,-126.78 496.22,-126.56 498.39,-133.21"/>
<text text-anchor="start" x="465" y="-142.8" font-family="arial" font-size="14.00" fill="#377eb8">true</text>
</g>
<!-- st34&#45;&gt;st -->
<g id="edge20" class="edge">
<title>st34&#45;&gt;st</title>
<path fill="none" stroke="black" d="M630.01,-118.72C705.63,-133.36 832.64,-157.95 894.68,-169.97"/>
<polygon fill="black" stroke="black" points="894.29,-173.46 904.78,-171.92 895.62,-166.58 894.29,-173.46"/>
<text text-anchor="start" x="734.5" y="-155.8" font-family="arial" font-size="14.00" fill="#377eb8">(R&#39; &amp;&amp; !S&#39;)</text>
</g>
<!-- st34&#45;&gt;st34 -->
<g id="edge22" class="edge">
<title>st34&#45;&gt;st34</title>
<path fill="none" stroke="black" d="M551.69,-132.18C550.94,-141.91 556.55,-150 568.5,-150 575.97,-150 580.96,-146.84 583.47,-142.09"/>
<polygon fill="black" stroke="black" points="586.93,-142.65 585.31,-132.18 580.04,-141.37 586.93,-142.65"/>
<text text-anchor="start" x="556.5" y="-153.8" font-family="arial" font-size="14.00" fill="#377eb8">true</text>
</g>
<!-- st4 -->
<g id="node10" class="node">
<title>st4</title>
<polygon fill="none" stroke="black" points="805,-87 728,-87 728,-37 805,-37 805,-87"/>
<text text-anchor="start" x="756.5" y="-72.8" font-family="arial" font-weight="bold" font-size="14.00">st4</text>
<text text-anchor="start" x="736" y="-58.8" font-family="arial" font-size="14.00" fill="#984ea3">(!R &amp;&amp; !S)</text>
<text text-anchor="start" x="754.5" y="-44.8" font-family="arial" font-size="14.00" fill="#ff7f00">true</text>
</g>
<!-- st34&#45;&gt;st4 -->
<g id="edge21" class="edge">
<title>st34&#45;&gt;st4</title>
<path fill="none" stroke="black" d="M630.17,-93.07C658.49,-86.57 691.69,-78.95 718.11,-72.88"/>
<polygon fill="black" stroke="black" points="718.93,-76.28 727.89,-70.64 717.36,-69.46 718.93,-76.28"/>
<text text-anchor="start" x="651.5" y="-91.8" font-family="arial" font-size="14.00" fill="#377eb8">(R&#39; || !Q&#39;)</text>
</g>
<!-- st4&#45;&gt;st -->
<g id="edge18" class="edge">
<title>st4&#45;&gt;st</title>
<path fill="none" stroke="black" d="M805.11,-78.25C829.74,-89.87 861.9,-106.96 887,-127 893.35,-132.07 899.54,-138.13 905.16,-144.25"/>
<polygon fill="black" stroke="black" points="902.73,-146.78 911.96,-151.96 907.98,-142.15 902.73,-146.78"/>
<text text-anchor="start" x="823" y="-130.8" font-family="arial" font-size="14.00" fill="#377eb8">(R&#39; &amp;&amp; !S&#39;)</text>
</g>
<!-- st4&#45;&gt;st4 -->
<g id="edge19" class="edge">
<title>st4&#45;&gt;st4</title>
<path fill="none" stroke="black" d="M750.44,-87.18C749.72,-96.91 755.08,-105 766.5,-105 773.64,-105 778.41,-101.84 780.81,-97.09"/>
<polygon fill="black" stroke="black" points="784.26,-97.63 782.56,-87.18 777.37,-96.41 784.26,-97.63"/>
<text text-anchor="start" x="754.5" y="-108.8" font-family="arial" font-size="14.00" fill="#377eb8">true</text>
</g>
</g>
</svg>
