<?xml version="1.0" encoding="UTF-8" standalone="no"?>
<!DOCTYPE svg PUBLIC "-//W3C//DTD SVG 1.1//EN"
 "http://www.w3.org/Graphics/SVG/1.1/DTD/svg11.dtd">
<!-- Generated by graphviz version 2.43.0 (0)
 -->
<!-- Title: G Pages: 1 -->
<svg width="2494pt" height="595pt"
 viewBox="0.00 0.00 2494.00 594.91" xmlns="http://www.w3.org/2000/svg" xmlns:xlink="http://www.w3.org/1999/xlink">
<g id="graph0" class="graph" transform="scale(1 1) rotate(0) translate(4 590.91)">
<title>G</title>
<polygon fill="white" stroke="transparent" points="-4,4 -4,-590.91 2490,-590.91 2490,4 -4,4"/>
<!-- _ID_43_ct0_st0 -->
<!-- ID_43_ct0_st0 -->
<g id="node2" class="node">
<title>ID_43_ct0_st0</title>
<polygon fill="none" stroke="black" points="264.5,-192.91 157.5,-192.91 157.5,-142.91 264.5,-142.91 264.5,-192.91"/>
<text text-anchor="start" x="165.5" y="-178.71" font-family="arial" font-weight="bold" font-size="14.00">ID_43_ct0_st0</text>
<text text-anchor="start" x="170" y="-164.71" font-family="arial" font-size="14.00" fill="#984ea3">((R || S) || !Q)</text>
<text text-anchor="start" x="199" y="-150.71" font-family="arial" font-size="14.00" fill="#ff7f00">true</text>
</g>
<!-- _ID_43_ct0_st0&#45;&gt;ID_43_ct0_st0 -->
<g id="edge1" class="edge">
<title>_ID_43_ct0_st0&#45;&gt;ID_43_ct0_st0</title>
<path fill="none" stroke="black" d="M111.05,-167.91C122.71,-167.91 135.13,-167.91 147.08,-167.91"/>
<polygon fill="black" stroke="black" points="147.43,-171.41 157.43,-167.91 147.43,-164.41 147.43,-171.41"/>
</g>
<!-- ID_43_ct0_st0&#45;&gt;ID_43_ct0_st0 -->
<g id="edge4" class="edge">
<title>ID_43_ct0_st0&#45;&gt;ID_43_ct0_st0</title>
<path fill="none" stroke="black" d="M196.06,-193.09C195.39,-202.82 200.38,-210.91 211,-210.91 217.64,-210.91 222.08,-207.75 224.31,-203"/>
<polygon fill="black" stroke="black" points="227.77,-203.52 225.94,-193.09 220.86,-202.38 227.77,-203.52"/>
<text text-anchor="start" x="199" y="-214.71" font-family="arial" font-size="14.00" fill="#377eb8">true</text>
</g>
<!-- ID_43_ct0_st012 -->
<g id="node4" class="node">
<title>ID_43_ct0_st012</title>
<polygon fill="none" stroke="black" points="579,-159.91 409,-159.91 409,-109.91 579,-109.91 579,-159.91"/>
<text text-anchor="start" x="441" y="-145.71" font-family="arial" font-weight="bold" font-size="14.00">ID_43_ct0_st012</text>
<text text-anchor="start" x="417" y="-131.71" font-family="arial" font-size="14.00" fill="#984ea3">(Q &amp;&amp; (!R &amp;&amp; (!S &amp;&amp; !T)))</text>
<text text-anchor="start" x="482" y="-117.71" font-family="arial" font-size="14.00" fill="#ff7f00">true</text>
</g>
<!-- ID_43_ct0_st0&#45;&gt;ID_43_ct0_st012 -->
<g id="edge5" class="edge">
<title>ID_43_ct0_st0&#45;&gt;ID_43_ct0_st012</title>
<path fill="none" stroke="black" d="M264.51,-143.69C273.51,-140.48 282.9,-137.69 292,-135.91 326.3,-129.22 364.52,-127.61 398.35,-128.13"/>
<polygon fill="black" stroke="black" points="398.62,-131.63 408.69,-128.35 398.77,-124.64 398.62,-131.63"/>
<text text-anchor="start" x="329.5" y="-139.71" font-family="arial" font-size="14.00" fill="#377eb8">true</text>
</g>
<!-- ID_43_ct0_st01234 -->
<g id="node6" class="node">
<title>ID_43_ct0_st01234</title>
<polygon fill="none" stroke="black" points="1293,-203.91 1127,-203.91 1127,-153.91 1293,-153.91 1293,-203.91"/>
<text text-anchor="start" x="1149.5" y="-189.71" font-family="arial" font-weight="bold" font-size="14.00">ID_43_ct0_st01234</text>
<text text-anchor="start" x="1135" y="-175.71" font-family="arial" font-size="14.00" fill="#984ea3">(Q &amp;&amp; (!R &amp;&amp; (!S &amp;&amp; T)))</text>
<text text-anchor="start" x="1198" y="-161.71" font-family="arial" font-size="14.00" fill="#ff7f00">true</text>
</g>
<!-- ID_43_ct0_st0&#45;&gt;ID_43_ct0_st01234 -->
<g id="edge6" class="edge">
<title>ID_43_ct0_st0&#45;&gt;ID_43_ct0_st01234</title>
<path fill="none" stroke="black" d="M254.73,-142.89C320.39,-105.37 443.68,-38.91 493,-38.91 493,-38.91 493,-38.91 843,-38.91 932.09,-38.91 958.74,-31.23 1042,-62.91 1092.49,-82.12 1142.29,-119.82 1174.19,-147.03"/>
<polygon fill="black" stroke="black" points="1172.05,-149.81 1181.9,-153.71 1176.63,-144.52 1172.05,-149.81"/>
<text text-anchor="start" x="713.5" y="-42.71" font-family="arial" font-size="14.00" fill="#377eb8">true</text>
</g>
<!-- _ID_43_ct0_st012 -->
<!-- _ID_43_ct0_st012&#45;&gt;ID_43_ct0_st012 -->
<g id="edge2" class="edge">
<title>_ID_43_ct0_st012&#45;&gt;ID_43_ct0_st012</title>
<path fill="none" stroke="black" d="M274.3,-105.16C308.79,-107.36 352.37,-110.82 391,-115.91 393.54,-116.25 396.11,-116.6 398.7,-116.98"/>
<polygon fill="black" stroke="black" points="398.37,-120.47 408.79,-118.5 399.42,-113.54 398.37,-120.47"/>
</g>
<!-- ID_43_ct0_st012&#45;&gt;ID_43_ct0_st0 -->
<g id="edge13" class="edge">
<title>ID_43_ct0_st012&#45;&gt;ID_43_ct0_st0</title>
<path fill="none" stroke="black" d="M408.73,-148.54C402.74,-149.38 396.78,-150.18 391,-150.91 352.55,-155.75 309.29,-159.89 274.93,-162.88"/>
<polygon fill="black" stroke="black" points="274.23,-159.42 264.57,-163.77 274.83,-166.4 274.23,-159.42"/>
<text text-anchor="start" x="292" y="-164.71" font-family="arial" font-size="14.00" fill="#377eb8">(R&#39; || (S&#39; &amp;&amp; !T&#39;))</text>
</g>
<!-- ID_43_ct0_st012&#45;&gt;ID_43_ct0_st012 -->
<g id="edge17" class="edge">
<title>ID_43_ct0_st012&#45;&gt;ID_43_ct0_st012</title>
<path fill="none" stroke="black" d="M472.71,-160.09C471.76,-169.82 478.86,-177.91 494,-177.91 503.46,-177.91 509.78,-174.75 512.96,-170"/>
<polygon fill="black" stroke="black" points="516.41,-170.62 515.29,-160.09 509.6,-169.02 516.41,-170.62"/>
<text text-anchor="start" x="482" y="-181.71" font-family="arial" font-size="14.00" fill="#377eb8">true</text>
</g>
<!-- ID_43_ct0_st012&#45;&gt;ID_43_ct0_st01234 -->
<g id="edge18" class="edge">
<title>ID_43_ct0_st012&#45;&gt;ID_43_ct0_st01234</title>
<path fill="none" stroke="black" d="M579.48,-138.85C697.91,-144.57 919.99,-156.02 1109,-169.91 1111.55,-170.1 1114.13,-170.29 1116.74,-170.5"/>
<polygon fill="black" stroke="black" points="1116.64,-174 1126.89,-171.3 1117.2,-167.02 1116.64,-174"/>
<text text-anchor="start" x="830" y="-156.71" font-family="arial" font-size="14.00" fill="#377eb8">true</text>
</g>
<!-- ID_43_ct0_st02 -->
<g id="node7" class="node">
<title>ID_43_ct0_st02</title>
<polygon fill="none" stroke="black" points="812,-238.91 639,-238.91 639,-188.91 812,-188.91 812,-238.91"/>
<text text-anchor="start" x="676.5" y="-224.71" font-family="arial" font-weight="bold" font-size="14.00">ID_43_ct0_st02</text>
<text text-anchor="start" x="647" y="-210.71" font-family="arial" font-size="14.00" fill="#984ea3">(!Q &amp;&amp; (!R &amp;&amp; (!S &amp;&amp; !T)))</text>
<text text-anchor="start" x="713.5" y="-196.71" font-family="arial" font-size="14.00" fill="#ff7f00">true</text>
</g>
<!-- ID_43_ct0_st012&#45;&gt;ID_43_ct0_st02 -->
<g id="edge15" class="edge">
<title>ID_43_ct0_st012&#45;&gt;ID_43_ct0_st02</title>
<path fill="none" stroke="black" d="M579.33,-146.49C593.44,-149.51 607.78,-153.26 621,-157.91 639.7,-164.49 659.09,-174.13 675.97,-183.56"/>
<polygon fill="black" stroke="black" points="674.65,-186.83 685.06,-188.76 678.12,-180.75 674.65,-186.83"/>
<text text-anchor="start" x="597" y="-161.71" font-family="arial" font-size="14.00" fill="#377eb8">true</text>
</g>
<!-- ID_43_ct0_st034 -->
<g id="node8" class="node">
<title>ID_43_ct0_st034</title>
<polygon fill="none" stroke="black" points="1624,-180.91 1378,-180.91 1378,-130.91 1624,-130.91 1624,-180.91"/>
<text text-anchor="start" x="1448" y="-166.71" font-family="arial" font-weight="bold" font-size="14.00">ID_43_ct0_st034</text>
<text text-anchor="start" x="1386" y="-152.71" font-family="arial" font-size="14.00" fill="#984ea3">((!R &amp;&amp; (S &amp;&amp; T)) || (!Q &amp;&amp; (!R &amp;&amp; T)))</text>
<text text-anchor="start" x="1489" y="-138.71" font-family="arial" font-size="14.00" fill="#ff7f00">true</text>
</g>
<!-- ID_43_ct0_st012&#45;&gt;ID_43_ct0_st034 -->
<g id="edge14" class="edge">
<title>ID_43_ct0_st012&#45;&gt;ID_43_ct0_st034</title>
<path fill="none" stroke="black" d="M579.21,-132.65C733.99,-129.15 1074.06,-124.49 1360,-141.91 1362.56,-142.07 1365.15,-142.23 1367.75,-142.41"/>
<polygon fill="black" stroke="black" points="1367.65,-145.91 1377.88,-143.14 1368.15,-138.93 1367.65,-145.91"/>
<text text-anchor="start" x="932.5" y="-134.71" font-family="arial" font-size="14.00" fill="#377eb8">(R&#39; || S&#39;)</text>
</g>
<!-- ID_43_ct0_st0234 -->
<g id="node9" class="node">
<title>ID_43_ct0_st0234</title>
<polygon fill="none" stroke="black" points="1042,-392.91 872,-392.91 872,-342.91 1042,-342.91 1042,-392.91"/>
<text text-anchor="start" x="900.5" y="-378.71" font-family="arial" font-weight="bold" font-size="14.00">ID_43_ct0_st0234</text>
<text text-anchor="start" x="880" y="-364.71" font-family="arial" font-size="14.00" fill="#984ea3">(!Q &amp;&amp; (!R &amp;&amp; (!S &amp;&amp; T)))</text>
<text text-anchor="start" x="945" y="-350.71" font-family="arial" font-size="14.00" fill="#ff7f00">true</text>
</g>
<!-- ID_43_ct0_st012&#45;&gt;ID_43_ct0_st0234 -->
<g id="edge16" class="edge">
<title>ID_43_ct0_st012&#45;&gt;ID_43_ct0_st0234</title>
<path fill="none" stroke="black" d="M533.35,-159.95C548.41,-170.71 565.33,-184 579,-197.91 610.9,-230.38 601.6,-254.97 639,-280.91 705.13,-326.77 794.59,-348.51 861.61,-358.78"/>
<polygon fill="black" stroke="black" points="861.34,-362.28 871.75,-360.27 862.36,-355.35 861.34,-362.28"/>
<text text-anchor="start" x="713.5" y="-352.71" font-family="arial" font-size="14.00" fill="#377eb8">true</text>
</g>
<!-- _ID_43_ct0_st01234 -->
<!-- _ID_43_ct0_st01234&#45;&gt;ID_43_ct0_st01234 -->
<g id="edge3" class="edge">
<title>_ID_43_ct0_st01234&#45;&gt;ID_43_ct0_st01234</title>
<path fill="none" stroke="black" d="M1027.58,-212.16C1055.22,-207.09 1087.4,-201.2 1116.92,-195.79"/>
<polygon fill="black" stroke="black" points="1117.61,-199.22 1126.82,-193.97 1116.35,-192.33 1117.61,-199.22"/>
</g>
<!-- ID_43_ct0_st01234&#45;&gt;ID_43_ct0_st01234 -->
<g id="edge49" class="edge">
<title>ID_43_ct0_st01234&#45;&gt;ID_43_ct0_st01234</title>
<path fill="none" stroke="black" d="M1186.84,-204.09C1185.81,-213.82 1193.53,-221.91 1210,-221.91 1220.29,-221.91 1227.17,-218.75 1230.63,-214"/>
<polygon fill="black" stroke="black" points="1234.08,-214.64 1233.16,-204.09 1227.29,-212.91 1234.08,-214.64"/>
<text text-anchor="start" x="1198" y="-225.71" font-family="arial" font-size="14.00" fill="#377eb8">true</text>
</g>
<!-- ID_43_ct0_st01234&#45;&gt;ID_43_ct0_st034 -->
<g id="edge45" class="edge">
<title>ID_43_ct0_st01234&#45;&gt;ID_43_ct0_st034</title>
<path fill="none" stroke="black" d="M1293.04,-172.38C1316.32,-170.53 1342.27,-168.46 1367.72,-166.44"/>
<polygon fill="black" stroke="black" points="1368.13,-169.92 1377.82,-165.63 1367.57,-162.94 1368.13,-169.92"/>
<text text-anchor="start" x="1311" y="-173.71" font-family="arial" font-size="14.00" fill="#377eb8">(R&#39; || S&#39;)</text>
</g>
<!-- ID_43_ct0_st01234&#45;&gt;ID_43_ct0_st0234 -->
<g id="edge47" class="edge">
<title>ID_43_ct0_st01234&#45;&gt;ID_43_ct0_st0234</title>
<path fill="none" stroke="black" d="M1129.18,-203.92C1100.36,-213.88 1071.97,-225.06 1060,-233.91 1050.1,-241.23 1009.05,-296.97 982.14,-334.21"/>
<polygon fill="black" stroke="black" points="978.97,-332.62 975.96,-342.78 984.65,-336.71 978.97,-332.62"/>
<text text-anchor="start" x="1072.5" y="-237.71" font-family="arial" font-size="14.00" fill="#377eb8">true</text>
</g>
<!-- ID_43_ct0_st04 -->
<g id="node10" class="node">
<title>ID_43_ct0_st04</title>
<polygon fill="none" stroke="black" points="2486,-165.91 2325,-165.91 2325,-115.91 2486,-115.91 2486,-165.91"/>
<text text-anchor="start" x="2356.5" y="-151.71" font-family="arial" font-weight="bold" font-size="14.00">ID_43_ct0_st04</text>
<text text-anchor="start" x="2333" y="-137.71" font-family="arial" font-size="14.00" fill="#984ea3">((!R &amp;&amp; S) || (!Q &amp;&amp; !R))</text>
<text text-anchor="start" x="2393.5" y="-123.71" font-family="arial" font-size="14.00" fill="#ff7f00">true</text>
</g>
<!-- ID_43_ct0_st01234&#45;&gt;ID_43_ct0_st04 -->
<g id="edge44" class="edge">
<title>ID_43_ct0_st01234&#45;&gt;ID_43_ct0_st04</title>
<path fill="none" stroke="black" d="M1241.43,-153.65C1260.5,-138.77 1286.1,-120.48 1311,-107.91 1344.62,-90.94 1496.76,-51.91 1500,-51.91 1500,-51.91 1500,-51.91 2104.5,-51.91 2190.36,-51.91 2284.55,-85.83 2344.06,-111.79"/>
<polygon fill="black" stroke="black" points="2342.74,-115.04 2353.3,-115.88 2345.57,-108.64 2342.74,-115.04"/>
<text text-anchor="start" x="1794.5" y="-55.71" font-family="arial" font-size="14.00" fill="#377eb8">(R&#39; || (S&#39; &amp;&amp; !T&#39;))</text>
</g>
<!-- ID_43_ct0_st0124 -->
<g id="node11" class="node">
<title>ID_43_ct0_st0124</title>
<polygon fill="none" stroke="black" points="1929,-205.91 1759,-205.91 1759,-155.91 1929,-155.91 1929,-205.91"/>
<text text-anchor="start" x="1787.5" y="-191.71" font-family="arial" font-weight="bold" font-size="14.00">ID_43_ct0_st0124</text>
<text text-anchor="start" x="1767" y="-177.71" font-family="arial" font-size="14.00" fill="#984ea3">(Q &amp;&amp; (!R &amp;&amp; (!S &amp;&amp; !T)))</text>
<text text-anchor="start" x="1832" y="-163.71" font-family="arial" font-size="14.00" fill="#ff7f00">true</text>
</g>
<!-- ID_43_ct0_st01234&#45;&gt;ID_43_ct0_st0124 -->
<g id="edge48" class="edge">
<title>ID_43_ct0_st01234&#45;&gt;ID_43_ct0_st0124</title>
<path fill="none" stroke="black" d="M1255.43,-153.82C1288.17,-136.84 1334.4,-115.91 1378,-106.91 1536.69,-74.16 1587.61,-88.67 1741,-140.91 1751.2,-144.39 1761.88,-148.28 1772.33,-152.24"/>
<polygon fill="black" stroke="black" points="1771.25,-155.58 1781.84,-155.89 1773.76,-149.04 1771.25,-155.58"/>
<text text-anchor="start" x="1489" y="-110.71" font-family="arial" font-size="14.00" fill="#377eb8">true</text>
</g>
<!-- ID_43_ct0_st024 -->
<g id="node12" class="node">
<title>ID_43_ct0_st024</title>
<polygon fill="none" stroke="black" points="2190,-327.91 2017,-327.91 2017,-277.91 2190,-277.91 2190,-327.91"/>
<text text-anchor="start" x="2050.5" y="-313.71" font-family="arial" font-weight="bold" font-size="14.00">ID_43_ct0_st024</text>
<text text-anchor="start" x="2025" y="-299.71" font-family="arial" font-size="14.00" fill="#984ea3">(!Q &amp;&amp; (!R &amp;&amp; (!S &amp;&amp; !T)))</text>
<text text-anchor="start" x="2091.5" y="-285.71" font-family="arial" font-size="14.00" fill="#ff7f00">true</text>
</g>
<!-- ID_43_ct0_st01234&#45;&gt;ID_43_ct0_st024 -->
<g id="edge46" class="edge">
<title>ID_43_ct0_st01234&#45;&gt;ID_43_ct0_st024</title>
<path fill="none" stroke="black" d="M1256.58,-204.07C1289.3,-220.73 1335.03,-241.24 1378,-250.91 1599,-300.63 1866.57,-306.18 2006.54,-305.06"/>
<polygon fill="black" stroke="black" points="2006.84,-308.56 2016.81,-304.97 2006.78,-301.56 2006.84,-308.56"/>
<text text-anchor="start" x="1679.5" y="-301.71" font-family="arial" font-size="14.00" fill="#377eb8">true</text>
</g>
<!-- ID_43_ct0_st02&#45;&gt;ID_43_ct0_st0 -->
<g id="edge7" class="edge">
<title>ID_43_ct0_st02&#45;&gt;ID_43_ct0_st0</title>
<path fill="none" stroke="black" d="M638.92,-213.72C575.33,-212.84 486.55,-210.04 409,-201.91 363.85,-197.18 313.4,-188.4 274.86,-180.95"/>
<polygon fill="black" stroke="black" points="275.31,-177.48 264.83,-178.99 273.97,-184.35 275.31,-177.48"/>
<text text-anchor="start" x="444.5" y="-215.71" font-family="arial" font-size="14.00" fill="#377eb8">(R&#39; || (S&#39; &amp;&amp; !T&#39;))</text>
</g>
<!-- ID_43_ct0_st02&#45;&gt;ID_43_ct0_st012 -->
<g id="edge11" class="edge">
<title>ID_43_ct0_st02&#45;&gt;ID_43_ct0_st012</title>
<path fill="none" stroke="black" d="M638.71,-190.4C624.69,-186.16 610.38,-181.59 597,-176.91 585.7,-172.96 573.84,-168.43 562.37,-163.85"/>
<polygon fill="black" stroke="black" points="563.42,-160.5 552.84,-160 560.8,-166.99 563.42,-160.5"/>
<text text-anchor="start" x="597" y="-186.71" font-family="arial" font-size="14.00" fill="#377eb8">true</text>
</g>
<!-- ID_43_ct0_st02&#45;&gt;ID_43_ct0_st01234 -->
<g id="edge12" class="edge">
<title>ID_43_ct0_st02&#45;&gt;ID_43_ct0_st01234</title>
<path fill="none" stroke="black" d="M812.21,-192.71C831.74,-188.7 852.49,-185.08 872,-182.91 954.28,-173.75 1048.55,-173.49 1116.42,-175.1"/>
<polygon fill="black" stroke="black" points="1116.57,-178.6 1126.66,-175.36 1116.75,-171.6 1116.57,-178.6"/>
<text text-anchor="start" x="945" y="-186.71" font-family="arial" font-size="14.00" fill="#377eb8">true</text>
</g>
<!-- ID_43_ct0_st02&#45;&gt;ID_43_ct0_st02 -->
<g id="edge9" class="edge">
<title>ID_43_ct0_st02&#45;&gt;ID_43_ct0_st02</title>
<path fill="none" stroke="black" d="M703.83,-239.09C702.87,-248.82 710.09,-256.91 725.5,-256.91 735.13,-256.91 741.56,-253.75 744.8,-249"/>
<polygon fill="black" stroke="black" points="748.25,-249.63 747.17,-239.09 741.44,-248 748.25,-249.63"/>
<text text-anchor="start" x="713.5" y="-260.71" font-family="arial" font-size="14.00" fill="#377eb8">true</text>
</g>
<!-- ID_43_ct0_st02&#45;&gt;ID_43_ct0_st034 -->
<g id="edge8" class="edge">
<title>ID_43_ct0_st02&#45;&gt;ID_43_ct0_st034</title>
<path fill="none" stroke="black" d="M807.35,-238.93C828.21,-244.3 850.77,-249.18 872,-251.91 929.26,-259.27 1288.21,-246.97 1293,-245.91 1347.97,-233.79 1406.42,-206.94 1447.14,-185.7"/>
<polygon fill="black" stroke="black" points="1448.86,-188.75 1456.07,-180.99 1445.59,-182.56 1448.86,-188.75"/>
<text text-anchor="start" x="1060" y="-256.71" font-family="arial" font-size="14.00" fill="#377eb8">(R&#39; || S&#39;)</text>
</g>
<!-- ID_43_ct0_st02&#45;&gt;ID_43_ct0_st0234 -->
<g id="edge10" class="edge">
<title>ID_43_ct0_st02&#45;&gt;ID_43_ct0_st0234</title>
<path fill="none" stroke="black" d="M763.34,-238.92C783.09,-252.3 807.85,-269.04 830,-283.91 856.34,-301.6 885.85,-321.28 909.68,-337.14"/>
<polygon fill="black" stroke="black" points="907.92,-340.17 918.19,-342.8 911.8,-334.34 907.92,-340.17"/>
<text text-anchor="start" x="830" y="-300.71" font-family="arial" font-size="14.00" fill="#377eb8">true</text>
</g>
<!-- ID_43_ct0_st034&#45;&gt;ID_43_ct0_st01234 -->
<g id="edge37" class="edge">
<title>ID_43_ct0_st034&#45;&gt;ID_43_ct0_st01234</title>
<path fill="none" stroke="black" d="M1377.91,-145.87C1355.58,-145.78 1332.53,-146.85 1311,-149.91 1307.29,-150.44 1303.53,-151.07 1299.74,-151.78"/>
<polygon fill="black" stroke="black" points="1298.78,-148.41 1289.7,-153.86 1300.2,-155.26 1298.78,-148.41"/>
<text text-anchor="start" x="1323.5" y="-153.71" font-family="arial" font-size="14.00" fill="#377eb8">true</text>
</g>
<!-- ID_43_ct0_st034&#45;&gt;ID_43_ct0_st034 -->
<g id="edge35" class="edge">
<title>ID_43_ct0_st034&#45;&gt;ID_43_ct0_st034</title>
<path fill="none" stroke="black" d="M1470.37,-181.09C1469.01,-190.82 1479.22,-198.91 1501,-198.91 1514.95,-198.91 1524.16,-195.59 1528.61,-190.64"/>
<polygon fill="black" stroke="black" points="1531.96,-191.68 1531.63,-181.09 1525.28,-189.57 1531.96,-191.68"/>
<text text-anchor="start" x="1489" y="-202.71" font-family="arial" font-size="14.00" fill="#377eb8">true</text>
</g>
<!-- ID_43_ct0_st034&#45;&gt;ID_43_ct0_st04 -->
<g id="edge34" class="edge">
<title>ID_43_ct0_st034&#45;&gt;ID_43_ct0_st04</title>
<path fill="none" stroke="black" d="M1624.11,-142.15C1630.16,-141.68 1636.14,-141.26 1642,-140.91 1937.03,-123.21 2011.5,-130.85 2307,-136.91 2309.56,-136.96 2312.15,-137.02 2314.77,-137.09"/>
<polygon fill="black" stroke="black" points="2314.86,-140.59 2324.96,-137.38 2315.06,-133.6 2314.86,-140.59"/>
<text text-anchor="start" x="1947" y="-134.71" font-family="arial" font-size="14.00" fill="#377eb8">(R&#39; || !T&#39;)</text>
</g>
<!-- ID_43_ct0_st034&#45;&gt;ID_43_ct0_st0124 -->
<g id="edge36" class="edge">
<title>ID_43_ct0_st034&#45;&gt;ID_43_ct0_st0124</title>
<path fill="none" stroke="black" d="M1624.06,-145.68C1661.71,-144.58 1703.21,-145.47 1741,-150.91 1746.07,-151.64 1751.23,-152.56 1756.41,-153.63"/>
<polygon fill="black" stroke="black" points="1755.86,-157.09 1766.38,-155.85 1757.38,-150.26 1755.86,-157.09"/>
<text text-anchor="start" x="1679.5" y="-154.71" font-family="arial" font-size="14.00" fill="#377eb8">true</text>
</g>
<!-- ID_43_ct0_st0234&#45;&gt;ID_43_ct0_st01234 -->
<g id="edge43" class="edge">
<title>ID_43_ct0_st0234&#45;&gt;ID_43_ct0_st01234</title>
<path fill="none" stroke="black" d="M1000.27,-342.89C1018.47,-332.38 1040.1,-320.22 1060,-309.91 1081.36,-298.85 1089.58,-301.11 1109,-286.91 1137.97,-265.73 1165.25,-235.28 1183.98,-212.11"/>
<polygon fill="black" stroke="black" points="1186.75,-214.25 1190.23,-204.25 1181.27,-209.9 1186.75,-214.25"/>
<text text-anchor="start" x="1072.5" y="-313.71" font-family="arial" font-size="14.00" fill="#377eb8">true</text>
</g>
<!-- ID_43_ct0_st0234&#45;&gt;ID_43_ct0_st034 -->
<g id="edge39" class="edge">
<title>ID_43_ct0_st0234&#45;&gt;ID_43_ct0_st034</title>
<path fill="none" stroke="black" d="M1042.25,-360.04C1146.2,-348.66 1314.77,-324.19 1360,-281.91 1381.27,-262.03 1359.55,-241.44 1378,-218.91 1388.98,-205.5 1403.57,-194.62 1418.83,-185.92"/>
<polygon fill="black" stroke="black" points="1420.73,-188.88 1427.87,-181.05 1417.41,-182.71 1420.73,-188.88"/>
<text text-anchor="start" x="1185.5" y="-352.71" font-family="arial" font-size="14.00" fill="#377eb8">(R&#39; || S&#39;)</text>
</g>
<!-- ID_43_ct0_st0234&#45;&gt;ID_43_ct0_st0234 -->
<g id="edge41" class="edge">
<title>ID_43_ct0_st0234&#45;&gt;ID_43_ct0_st0234</title>
<path fill="none" stroke="black" d="M935.71,-393.09C934.76,-402.82 941.86,-410.91 957,-410.91 966.46,-410.91 972.78,-407.75 975.96,-403"/>
<polygon fill="black" stroke="black" points="979.41,-403.62 978.29,-393.09 972.6,-402.02 979.41,-403.62"/>
<text text-anchor="start" x="945" y="-414.71" font-family="arial" font-size="14.00" fill="#377eb8">true</text>
</g>
<!-- ID_43_ct0_st0234&#45;&gt;ID_43_ct0_st04 -->
<g id="edge38" class="edge">
<title>ID_43_ct0_st0234&#45;&gt;ID_43_ct0_st04</title>
<path fill="none" stroke="black" d="M968.97,-393.02C984.62,-426.09 1016.36,-484 1060,-517.91 1115.62,-561.13 1138.56,-571.91 1209,-571.91 1209,-571.91 1209,-571.91 2104.5,-571.91 2297.09,-571.91 2376.11,-278.44 2397.86,-175.82"/>
<polygon fill="black" stroke="black" points="2401.3,-176.45 2399.9,-165.95 2394.45,-175.03 2401.3,-176.45"/>
<text text-anchor="start" x="1642" y="-575.71" font-family="arial" font-size="14.00" fill="#377eb8">(R&#39; || (S&#39; &amp;&amp; !T&#39;))</text>
</g>
<!-- ID_43_ct0_st0234&#45;&gt;ID_43_ct0_st0124 -->
<g id="edge42" class="edge">
<title>ID_43_ct0_st0234&#45;&gt;ID_43_ct0_st0124</title>
<path fill="none" stroke="black" d="M1042.35,-375.45C1233.97,-391.7 1689.49,-425.05 1741,-379.91 1763.93,-359.82 1743.6,-270.22 1759,-243.91 1766.19,-231.63 1776.8,-220.98 1788.08,-212.11"/>
<polygon fill="black" stroke="black" points="1790.42,-214.73 1796.38,-205.97 1786.26,-209.11 1790.42,-214.73"/>
<text text-anchor="start" x="1323.5" y="-400.71" font-family="arial" font-size="14.00" fill="#377eb8">true</text>
</g>
<!-- ID_43_ct0_st0234&#45;&gt;ID_43_ct0_st024 -->
<g id="edge40" class="edge">
<title>ID_43_ct0_st0234&#45;&gt;ID_43_ct0_st024</title>
<path fill="none" stroke="black" d="M991.29,-393.15C1037.53,-425.62 1125.03,-477.91 1209,-477.91 1209,-477.91 1209,-477.91 1845,-477.91 1945.05,-477.91 2035.04,-386.42 2077.21,-335.75"/>
<polygon fill="black" stroke="black" points="2079.94,-337.94 2083.56,-327.98 2074.52,-333.51 2079.94,-337.94"/>
<text text-anchor="start" x="1489" y="-481.71" font-family="arial" font-size="14.00" fill="#377eb8">true</text>
</g>
<!-- ID_43_ct0_st04&#45;&gt;ID_43_ct0_st01234 -->
<g id="edge21" class="edge">
<title>ID_43_ct0_st04&#45;&gt;ID_43_ct0_st01234</title>
<path fill="none" stroke="black" d="M2387.94,-115.79C2370.69,-91.78 2341.42,-56.57 2307,-37.91 2226.57,5.69 2195.99,-0.91 2104.5,-0.91 1500,-0.91 1500,-0.91 1500,-0.91 1414.41,-0.91 1382.89,8.54 1311,-37.91 1270.97,-63.78 1242.12,-111.82 1225.98,-144.56"/>
<polygon fill="black" stroke="black" points="1222.73,-143.25 1221.58,-153.78 1229.05,-146.27 1222.73,-143.25"/>
<text text-anchor="start" x="1832" y="-4.71" font-family="arial" font-size="14.00" fill="#377eb8">true</text>
</g>
<!-- ID_43_ct0_st04&#45;&gt;ID_43_ct0_st04 -->
<g id="edge19" class="edge">
<title>ID_43_ct0_st04&#45;&gt;ID_43_ct0_st04</title>
<path fill="none" stroke="black" d="M2377.86,-166.09C2376.63,-175.82 2385.84,-183.91 2405.5,-183.91 2417.79,-183.91 2425.99,-180.75 2430.12,-176"/>
<polygon fill="black" stroke="black" points="2433.57,-176.67 2433.14,-166.09 2426.88,-174.63 2433.57,-176.67"/>
<text text-anchor="start" x="2393.5" y="-187.71" font-family="arial" font-size="14.00" fill="#377eb8">true</text>
</g>
<!-- ID_43_ct0_st04&#45;&gt;ID_43_ct0_st0124 -->
<g id="edge20" class="edge">
<title>ID_43_ct0_st04&#45;&gt;ID_43_ct0_st0124</title>
<path fill="none" stroke="black" d="M2324.92,-141.14C2246.47,-141.99 2123.24,-144.99 2017,-154.91 1991.65,-157.28 1964.34,-160.9 1939.11,-164.71"/>
<polygon fill="black" stroke="black" points="1938.54,-161.25 1929.19,-166.23 1939.6,-168.17 1938.54,-161.25"/>
<text text-anchor="start" x="2091.5" y="-158.71" font-family="arial" font-size="14.00" fill="#377eb8">true</text>
</g>
<!-- ID_43_ct0_st0124&#45;&gt;ID_43_ct0_st01234 -->
<g id="edge33" class="edge">
<title>ID_43_ct0_st0124&#45;&gt;ID_43_ct0_st01234</title>
<path fill="none" stroke="black" d="M1758.78,-200.93C1718.29,-209.56 1668.9,-218.64 1624,-222.91 1515.16,-233.25 1486.43,-236.96 1378,-222.91 1352.01,-219.54 1324.31,-213.35 1299.08,-206.65"/>
<polygon fill="black" stroke="black" points="1299.74,-203.2 1289.18,-203.96 1297.91,-209.96 1299.74,-203.2"/>
<text text-anchor="start" x="1489" y="-235.71" font-family="arial" font-size="14.00" fill="#377eb8">true</text>
</g>
<!-- ID_43_ct0_st0124&#45;&gt;ID_43_ct0_st034 -->
<g id="edge29" class="edge">
<title>ID_43_ct0_st0124&#45;&gt;ID_43_ct0_st034</title>
<path fill="none" stroke="black" d="M1758.84,-177.15C1722.83,-175.32 1680.33,-172.87 1642,-169.91 1639.44,-169.71 1636.86,-169.51 1634.26,-169.3"/>
<polygon fill="black" stroke="black" points="1634.39,-165.8 1624.14,-168.45 1633.81,-172.77 1634.39,-165.8"/>
<text text-anchor="start" x="1667" y="-179.71" font-family="arial" font-size="14.00" fill="#377eb8">(R&#39; || S&#39;)</text>
</g>
<!-- ID_43_ct0_st0124&#45;&gt;ID_43_ct0_st0234 -->
<g id="edge31" class="edge">
<title>ID_43_ct0_st0124&#45;&gt;ID_43_ct0_st0234</title>
<path fill="none" stroke="black" d="M1795.74,-206.16C1781.65,-216.05 1767.67,-228.71 1759,-243.91 1740.84,-275.76 1768.24,-383.37 1741,-407.91 1730.42,-417.44 1149.06,-425.12 1060,-407.91 1046.98,-405.4 1033.48,-401.28 1020.74,-396.63"/>
<polygon fill="black" stroke="black" points="1021.75,-393.27 1011.16,-392.98 1019.26,-399.81 1021.75,-393.27"/>
<text text-anchor="start" x="1323.5" y="-421.71" font-family="arial" font-size="14.00" fill="#377eb8">true</text>
</g>
<!-- ID_43_ct0_st0124&#45;&gt;ID_43_ct0_st04 -->
<g id="edge28" class="edge">
<title>ID_43_ct0_st0124&#45;&gt;ID_43_ct0_st04</title>
<path fill="none" stroke="black" d="M1929.12,-180.28C1999.04,-179.26 2101.11,-176.63 2190,-169.91 2242.22,-165.96 2255.11,-163 2307,-155.91 2309.65,-155.55 2312.34,-155.17 2315.06,-154.79"/>
<polygon fill="black" stroke="black" points="2315.58,-158.25 2324.98,-153.37 2314.59,-151.32 2315.58,-158.25"/>
<text text-anchor="start" x="2054" y="-181.71" font-family="arial" font-size="14.00" fill="#377eb8">(R&#39; || (S&#39; &amp;&amp; !T&#39;))</text>
</g>
<!-- ID_43_ct0_st0124&#45;&gt;ID_43_ct0_st0124 -->
<g id="edge32" class="edge">
<title>ID_43_ct0_st0124&#45;&gt;ID_43_ct0_st0124</title>
<path fill="none" stroke="black" d="M1820.09,-206.09C1819.03,-215.82 1827,-223.91 1844,-223.91 1854.62,-223.91 1861.72,-220.75 1865.29,-216"/>
<polygon fill="black" stroke="black" points="1868.74,-216.65 1867.91,-206.09 1861.97,-214.86 1868.74,-216.65"/>
<text text-anchor="start" x="1832" y="-227.71" font-family="arial" font-size="14.00" fill="#377eb8">true</text>
</g>
<!-- ID_43_ct0_st0124&#45;&gt;ID_43_ct0_st024 -->
<g id="edge30" class="edge">
<title>ID_43_ct0_st0124&#45;&gt;ID_43_ct0_st024</title>
<path fill="none" stroke="black" d="M1929.06,-197.01C1957.87,-203.28 1986.09,-210.49 1999,-216.91 2026.15,-230.41 2052.37,-252.32 2071.63,-270.65"/>
<polygon fill="black" stroke="black" points="2069.3,-273.27 2078.91,-277.73 2074.18,-268.25 2069.3,-273.27"/>
<text text-anchor="start" x="1961" y="-220.71" font-family="arial" font-size="14.00" fill="#377eb8">true</text>
</g>
<!-- ID_43_ct0_st024&#45;&gt;ID_43_ct0_st01234 -->
<g id="edge27" class="edge">
<title>ID_43_ct0_st024&#45;&gt;ID_43_ct0_st01234</title>
<path fill="none" stroke="black" d="M2033.63,-327.94C1889.28,-375.87 1548.71,-464.89 1311,-334.91 1307.85,-333.19 1260.43,-257.95 1232.03,-212.6"/>
<polygon fill="black" stroke="black" points="1234.9,-210.58 1226.63,-203.96 1228.97,-214.3 1234.9,-210.58"/>
<text text-anchor="start" x="1679.5" y="-405.71" font-family="arial" font-size="14.00" fill="#377eb8">true</text>
</g>
<!-- ID_43_ct0_st024&#45;&gt;ID_43_ct0_st034 -->
<g id="edge23" class="edge">
<title>ID_43_ct0_st024&#45;&gt;ID_43_ct0_st034</title>
<path fill="none" stroke="black" d="M2016.9,-293.67C1946.86,-285.04 1845.58,-270.13 1759,-247.91 1694.07,-231.24 1622.44,-204.91 1571.32,-184.68"/>
<polygon fill="black" stroke="black" points="1572.61,-181.42 1562.03,-180.97 1570.02,-187.93 1572.61,-181.42"/>
<text text-anchor="start" x="1819.5" y="-283.71" font-family="arial" font-size="14.00" fill="#377eb8">(R&#39; || S&#39;)</text>
</g>
<!-- ID_43_ct0_st024&#45;&gt;ID_43_ct0_st0234 -->
<g id="edge25" class="edge">
<title>ID_43_ct0_st024&#45;&gt;ID_43_ct0_st0234</title>
<path fill="none" stroke="black" d="M2095.92,-328.1C2083.87,-369.03 2054.28,-449.65 1999,-491.91 1943.08,-534.67 1915.39,-528.91 1845,-528.91 1209,-528.91 1209,-528.91 1209,-528.91 1140.77,-528.91 1117.71,-528.32 1060,-491.91 1024.26,-469.36 995.08,-430.04 977.23,-401.71"/>
<polygon fill="black" stroke="black" points="980.05,-399.62 971.83,-392.94 974.09,-403.29 980.05,-399.62"/>
<text text-anchor="start" x="1489" y="-532.71" font-family="arial" font-size="14.00" fill="#377eb8">true</text>
</g>
<!-- ID_43_ct0_st024&#45;&gt;ID_43_ct0_st04 -->
<g id="edge22" class="edge">
<title>ID_43_ct0_st024&#45;&gt;ID_43_ct0_st04</title>
<path fill="none" stroke="black" d="M2162.34,-277.84C2203.45,-259.38 2259.57,-232.9 2307,-205.91 2325.22,-195.54 2344.57,-182.99 2361.18,-171.69"/>
<polygon fill="black" stroke="black" points="2363.34,-174.46 2369.6,-165.92 2359.38,-168.69 2363.34,-174.46"/>
<text text-anchor="start" x="2208" y="-259.71" font-family="arial" font-size="14.00" fill="#377eb8">(R&#39; || (S&#39; &amp;&amp; !T&#39;))</text>
</g>
<!-- ID_43_ct0_st024&#45;&gt;ID_43_ct0_st0124 -->
<g id="edge26" class="edge">
<title>ID_43_ct0_st024&#45;&gt;ID_43_ct0_st0124</title>
<path fill="none" stroke="black" d="M2043.46,-277.77C2003.54,-260.72 1956.43,-240.47 1947,-235.91 1931.03,-228.18 1913.96,-219.25 1898.44,-210.86"/>
<polygon fill="black" stroke="black" points="1899.96,-207.71 1889.5,-206 1896.61,-213.85 1899.96,-207.71"/>
<text text-anchor="start" x="1961" y="-260.71" font-family="arial" font-size="14.00" fill="#377eb8">true</text>
</g>
<!-- ID_43_ct0_st024&#45;&gt;ID_43_ct0_st024 -->
<g id="edge24" class="edge">
<title>ID_43_ct0_st024&#45;&gt;ID_43_ct0_st024</title>
<path fill="none" stroke="black" d="M2079.22,-328.09C2078.14,-337.82 2086.23,-345.91 2103.5,-345.91 2114.29,-345.91 2121.5,-342.75 2125.12,-338"/>
<polygon fill="black" stroke="black" points="2128.57,-338.65 2127.78,-328.09 2121.81,-336.84 2128.57,-338.65"/>
<text text-anchor="start" x="2091.5" y="-349.71" font-family="arial" font-size="14.00" fill="#377eb8">true</text>
</g>
</g>
</svg>
