<?xml version="1.0" encoding="UTF-8" standalone="no"?>
<!DOCTYPE svg PUBLIC "-//W3C//DTD SVG 1.1//EN"
 "http://www.w3.org/Graphics/SVG/1.1/DTD/svg11.dtd">
<!-- Generated by graphviz version 2.43.0 (0)
 -->
<!-- Title: G Pages: 1 -->
<svg width="1107pt" height="339pt"
 viewBox="0.00 0.00 1107.00 339.00" xmlns="http://www.w3.org/2000/svg" xmlns:xlink="http://www.w3.org/1999/xlink">
<g id="graph0" class="graph" transform="scale(1 1) rotate(0) translate(4 335)">
<title>G</title>
<polygon fill="white" stroke="transparent" points="-4,4 -4,-335 1103,-335 1103,4 -4,4"/>
<!-- _ID_104_ct0_stinit -->
<!-- ID_104_ct0_stinit -->
<g id="node2" class="node">
<title>ID_104_ct0_stinit</title>
<polygon fill="none" stroke="black" points="295.5,-50 168.5,-50 168.5,0 295.5,0 295.5,-50"/>
<text text-anchor="start" x="176.5" y="-35.8" font-family="arial" font-weight="bold" font-size="14.00">ID_104_ct0_stinit</text>
<text text-anchor="start" x="227.5" y="-21.8" font-family="arial" font-size="14.00" fill="#984ea3">T</text>
<text text-anchor="start" x="220" y="-7.8" font-family="arial" font-size="14.00" fill="#ff7f00">true</text>
</g>
<!-- _ID_104_ct0_stinit&#45;&gt;ID_104_ct0_stinit -->
<g id="edge1" class="edge">
<title>_ID_104_ct0_stinit&#45;&gt;ID_104_ct0_stinit</title>
<path fill="none" stroke="black" d="M128.23,-25C138.02,-25 148.21,-25 158.19,-25"/>
<polygon fill="black" stroke="black" points="158.49,-28.5 168.49,-25 158.49,-21.5 158.49,-28.5"/>
</g>
<!-- ID_104_ct0_stinit&#45;&gt;ID_104_ct0_stinit -->
<g id="edge5" class="edge">
<title>ID_104_ct0_stinit&#45;&gt;ID_104_ct0_stinit</title>
<path fill="none" stroke="black" d="M216.31,-50.18C215.61,-59.91 220.84,-68 232,-68 238.97,-68 243.63,-64.84 245.97,-60.09"/>
<polygon fill="black" stroke="black" points="249.43,-60.63 247.69,-50.18 242.53,-59.43 249.43,-60.63"/>
<text text-anchor="start" x="220" y="-71.8" font-family="arial" font-size="14.00" fill="#377eb8">true</text>
</g>
<!-- ID_104_ct0_st -->
<g id="node7" class="node">
<title>ID_104_ct0_st</title>
<polygon fill="none" stroke="black" points="516,-61 409,-61 409,-11 516,-11 516,-61"/>
<text text-anchor="start" x="417" y="-46.8" font-family="arial" font-weight="bold" font-size="14.00">ID_104_ct0_st</text>
<text text-anchor="start" x="450.5" y="-32.8" font-family="arial" font-size="14.00" fill="#984ea3">true</text>
<text text-anchor="start" x="450.5" y="-18.8" font-family="arial" font-size="14.00" fill="#ff7f00">true</text>
</g>
<!-- ID_104_ct0_stinit&#45;&gt;ID_104_ct0_st -->
<g id="edge4" class="edge">
<title>ID_104_ct0_stinit&#45;&gt;ID_104_ct0_st</title>
<path fill="none" stroke="black" d="M295.74,-28.02C327.81,-29.56 366.73,-31.44 398.79,-32.98"/>
<polygon fill="black" stroke="black" points="398.79,-36.49 408.94,-33.47 399.12,-29.49 398.79,-36.49"/>
<text text-anchor="start" x="336.5" y="-35.8" font-family="arial" font-size="14.00" fill="#377eb8">true</text>
</g>
<!-- _ID_104_ct0_st0 -->
<!-- ID_104_ct0_st0 -->
<g id="node4" class="node">
<title>ID_104_ct0_st0</title>
<polygon fill="none" stroke="black" points="289,-151 175,-151 175,-101 289,-101 289,-151"/>
<text text-anchor="start" x="183" y="-136.8" font-family="arial" font-weight="bold" font-size="14.00">ID_104_ct0_st0</text>
<text text-anchor="start" x="201.5" y="-122.8" font-family="arial" font-size="14.00" fill="#984ea3">(!R &amp;&amp; !T)</text>
<text text-anchor="start" x="220" y="-108.8" font-family="arial" font-size="14.00" fill="#ff7f00">true</text>
</g>
<!-- _ID_104_ct0_st0&#45;&gt;ID_104_ct0_st0 -->
<g id="edge2" class="edge">
<title>_ID_104_ct0_st0&#45;&gt;ID_104_ct0_st0</title>
<path fill="none" stroke="black" d="M123.53,-126C136.84,-126 151.08,-126 164.69,-126"/>
<polygon fill="black" stroke="black" points="164.95,-129.5 174.95,-126 164.95,-122.5 164.95,-129.5"/>
</g>
<!-- ID_104_ct0_st0&#45;&gt;ID_104_ct0_st0 -->
<g id="edge9" class="edge">
<title>ID_104_ct0_st0&#45;&gt;ID_104_ct0_st0</title>
<path fill="none" stroke="black" d="M216.31,-151.18C215.61,-160.91 220.84,-169 232,-169 238.97,-169 243.63,-165.84 245.97,-161.09"/>
<polygon fill="black" stroke="black" points="249.43,-161.63 247.69,-151.18 242.53,-160.43 249.43,-161.63"/>
<text text-anchor="start" x="220" y="-172.8" font-family="arial" font-size="14.00" fill="#377eb8">true</text>
</g>
<!-- ID_104_ct0_st012 -->
<g id="node6" class="node">
<title>ID_104_ct0_st012</title>
<polygon fill="none" stroke="black" points="527,-241 398,-241 398,-191 527,-191 527,-241"/>
<text text-anchor="start" x="406" y="-226.8" font-family="arial" font-weight="bold" font-size="14.00">ID_104_ct0_st012</text>
<text text-anchor="start" x="410.5" y="-212.8" font-family="arial" font-size="14.00" fill="#984ea3">(R &amp;&amp; (!S &amp;&amp; !T))</text>
<text text-anchor="start" x="450.5" y="-198.8" font-family="arial" font-size="14.00" fill="#ff7f00">true</text>
</g>
<!-- ID_104_ct0_st0&#45;&gt;ID_104_ct0_st012 -->
<g id="edge10" class="edge">
<title>ID_104_ct0_st0&#45;&gt;ID_104_ct0_st012</title>
<path fill="none" stroke="black" d="M289.19,-148.13C319.14,-159.93 356.33,-174.58 388.49,-187.24"/>
<polygon fill="black" stroke="black" points="387.27,-190.52 397.86,-190.93 389.84,-184.01 387.27,-190.52"/>
<text text-anchor="start" x="336.5" y="-184.8" font-family="arial" font-size="14.00" fill="#377eb8">true</text>
</g>
<!-- ID_104_ct0_st0&#45;&gt;ID_104_ct0_st -->
<g id="edge7" class="edge">
<title>ID_104_ct0_st0&#45;&gt;ID_104_ct0_st</title>
<path fill="none" stroke="black" d="M289.19,-103.87C322.53,-90.74 364.85,-74.07 399.2,-60.54"/>
<polygon fill="black" stroke="black" points="400.65,-63.73 408.67,-56.81 398.08,-57.22 400.65,-63.73"/>
<text text-anchor="start" x="317" y="-95.8" font-family="arial" font-size="14.00" fill="#377eb8">(!R&#39; &amp;&amp; T&#39;)</text>
</g>
<!-- ID_104_ct0_st12 -->
<g id="node8" class="node">
<title>ID_104_ct0_st12</title>
<polygon fill="none" stroke="black" points="932,-197 810,-197 810,-147 932,-147 932,-197"/>
<text text-anchor="start" x="818" y="-182.8" font-family="arial" font-weight="bold" font-size="14.00">ID_104_ct0_st12</text>
<text text-anchor="start" x="842" y="-168.8" font-family="arial" font-size="14.00" fill="#984ea3">(R &amp;&amp; !S)</text>
<text text-anchor="start" x="859" y="-154.8" font-family="arial" font-size="14.00" fill="#ff7f00">true</text>
</g>
<!-- ID_104_ct0_st0&#45;&gt;ID_104_ct0_st12 -->
<g id="edge8" class="edge">
<title>ID_104_ct0_st0&#45;&gt;ID_104_ct0_st12</title>
<path fill="none" stroke="black" d="M289.36,-129.56C390.22,-136.02 608.23,-150.34 792,-165 794.55,-165.2 797.15,-165.41 799.77,-165.63"/>
<polygon fill="black" stroke="black" points="799.71,-169.14 809.97,-166.49 800.3,-162.16 799.71,-169.14"/>
<text text-anchor="start" x="551" y="-151.8" font-family="arial" font-size="14.00" fill="#377eb8">T&#39;</text>
</g>
<!-- _ID_104_ct0_st012 -->
<!-- _ID_104_ct0_st012&#45;&gt;ID_104_ct0_st012 -->
<g id="edge3" class="edge">
<title>_ID_104_ct0_st012&#45;&gt;ID_104_ct0_st012</title>
<path fill="none" stroke="black" d="M299.09,-218.84C326.8,-218.36 359.12,-217.79 387.61,-217.29"/>
<polygon fill="black" stroke="black" points="387.98,-220.79 397.92,-217.11 387.86,-213.79 387.98,-220.79"/>
</g>
<!-- ID_104_ct0_st012&#45;&gt;ID_104_ct0_st012 -->
<g id="edge21" class="edge">
<title>ID_104_ct0_st012&#45;&gt;ID_104_ct0_st012</title>
<path fill="none" stroke="black" d="M444.94,-241.18C444.16,-250.91 450.02,-259 462.5,-259 470.3,-259 475.51,-255.84 478.14,-251.09"/>
<polygon fill="black" stroke="black" points="481.59,-251.66 480.06,-241.18 474.72,-250.33 481.59,-251.66"/>
<text text-anchor="start" x="450.5" y="-262.8" font-family="arial" font-size="14.00" fill="#377eb8">true</text>
</g>
<!-- ID_104_ct0_st012&#45;&gt;ID_104_ct0_st12 -->
<g id="edge19" class="edge">
<title>ID_104_ct0_st012&#45;&gt;ID_104_ct0_st12</title>
<path fill="none" stroke="black" d="M527.26,-194.72C546.27,-189.26 567.29,-184.06 587,-181 658.94,-169.83 742.37,-168.58 799.9,-169.5"/>
<polygon fill="black" stroke="black" points="799.92,-173 809.98,-169.69 800.05,-166 799.92,-173"/>
<text text-anchor="start" x="643" y="-184.8" font-family="arial" font-size="14.00" fill="#377eb8">T&#39;</text>
</g>
<!-- ID_104_ct0_st2 -->
<g id="node9" class="node">
<title>ID_104_ct0_st2</title>
<polygon fill="none" stroke="black" points="1099,-291 985,-291 985,-241 1099,-241 1099,-291"/>
<text text-anchor="start" x="993" y="-276.8" font-family="arial" font-weight="bold" font-size="14.00">ID_104_ct0_st2</text>
<text text-anchor="start" x="1035.5" y="-262.8" font-family="arial" font-size="14.00" fill="#984ea3">!S</text>
<text text-anchor="start" x="1030" y="-248.8" font-family="arial" font-size="14.00" fill="#ff7f00">true</text>
</g>
<!-- ID_104_ct0_st012&#45;&gt;ID_104_ct0_st2 -->
<g id="edge18" class="edge">
<title>ID_104_ct0_st012&#45;&gt;ID_104_ct0_st2</title>
<path fill="none" stroke="black" d="M491.48,-241.29C515.04,-260.76 550.64,-286.14 587,-297 720.34,-336.83 885.13,-307.17 974.96,-284.79"/>
<polygon fill="black" stroke="black" points="975.91,-288.16 984.74,-282.31 974.19,-281.38 975.91,-288.16"/>
<text text-anchor="start" x="729" y="-319.8" font-family="arial" font-size="14.00" fill="#377eb8">(!R&#39; &amp;&amp; T&#39;)</text>
</g>
<!-- ID_104_ct0_st02 -->
<g id="node10" class="node">
<title>ID_104_ct0_st02</title>
<polygon fill="none" stroke="black" points="711,-255 587,-255 587,-205 711,-205 711,-255"/>
<text text-anchor="start" x="596" y="-240.8" font-family="arial" font-weight="bold" font-size="14.00">ID_104_ct0_st02</text>
<text text-anchor="start" x="595" y="-226.8" font-family="arial" font-size="14.00" fill="#984ea3">(!R &amp;&amp; (!S &amp;&amp; !T))</text>
<text text-anchor="start" x="637" y="-212.8" font-family="arial" font-size="14.00" fill="#ff7f00">true</text>
</g>
<!-- ID_104_ct0_st012&#45;&gt;ID_104_ct0_st02 -->
<g id="edge20" class="edge">
<title>ID_104_ct0_st012&#45;&gt;ID_104_ct0_st02</title>
<path fill="none" stroke="black" d="M527.09,-223.4C533.14,-223.99 539.18,-224.54 545,-225 555.28,-225.82 566.15,-226.52 576.82,-227.12"/>
<polygon fill="black" stroke="black" points="576.79,-230.62 586.96,-227.66 577.16,-223.63 576.79,-230.62"/>
<text text-anchor="start" x="545" y="-229.8" font-family="arial" font-size="14.00" fill="#377eb8">true</text>
</g>
<!-- ID_104_ct0_st&#45;&gt;ID_104_ct0_st -->
<g id="edge6" class="edge">
<title>ID_104_ct0_st&#45;&gt;ID_104_ct0_st</title>
<path fill="none" stroke="black" d="M444.94,-61.18C444.16,-70.91 450.02,-79 462.5,-79 470.3,-79 475.51,-75.84 478.14,-71.09"/>
<polygon fill="black" stroke="black" points="481.59,-71.66 480.06,-61.18 474.72,-70.33 481.59,-71.66"/>
<text text-anchor="start" x="450.5" y="-82.8" font-family="arial" font-size="14.00" fill="#377eb8">true</text>
</g>
<!-- ID_104_ct0_st12&#45;&gt;ID_104_ct0_st12 -->
<g id="edge17" class="edge">
<title>ID_104_ct0_st12&#45;&gt;ID_104_ct0_st12</title>
<path fill="none" stroke="black" d="M854.94,-197.18C854.22,-206.91 859.58,-215 871,-215 878.14,-215 882.91,-211.84 885.31,-207.09"/>
<polygon fill="black" stroke="black" points="888.76,-207.63 887.06,-197.18 881.87,-206.41 888.76,-207.63"/>
<text text-anchor="start" x="859" y="-218.8" font-family="arial" font-size="14.00" fill="#377eb8">true</text>
</g>
<!-- ID_104_ct0_st12&#45;&gt;ID_104_ct0_st2 -->
<g id="edge16" class="edge">
<title>ID_104_ct0_st12&#45;&gt;ID_104_ct0_st2</title>
<path fill="none" stroke="black" d="M917.29,-197.19C938.78,-209.14 964.62,-223.52 987.12,-236.03"/>
<polygon fill="black" stroke="black" points="985.44,-239.1 995.88,-240.9 988.84,-232.98 985.44,-239.1"/>
<text text-anchor="start" x="950" y="-227.8" font-family="arial" font-size="14.00" fill="#377eb8">!R&#39;</text>
</g>
<!-- ID_104_ct0_st2&#45;&gt;ID_104_ct0_st2 -->
<g id="edge11" class="edge">
<title>ID_104_ct0_st2&#45;&gt;ID_104_ct0_st2</title>
<path fill="none" stroke="black" d="M1026.69,-291.18C1026,-300.91 1031.11,-309 1042,-309 1048.81,-309 1053.35,-305.84 1055.64,-301.09"/>
<polygon fill="black" stroke="black" points="1059.1,-301.62 1057.31,-291.18 1052.2,-300.45 1059.1,-301.62"/>
<text text-anchor="start" x="1030" y="-312.8" font-family="arial" font-size="14.00" fill="#377eb8">true</text>
</g>
<!-- ID_104_ct0_st02&#45;&gt;ID_104_ct0_st012 -->
<g id="edge15" class="edge">
<title>ID_104_ct0_st02&#45;&gt;ID_104_ct0_st012</title>
<path fill="none" stroke="black" d="M586.61,-212.89C580.69,-211.72 574.76,-210.72 569,-210 558.79,-208.73 547.99,-208.3 537.35,-208.41"/>
<polygon fill="black" stroke="black" points="537.13,-204.91 527.22,-208.67 537.31,-211.91 537.13,-204.91"/>
<text text-anchor="start" x="545" y="-213.8" font-family="arial" font-size="14.00" fill="#377eb8">true</text>
</g>
<!-- ID_104_ct0_st02&#45;&gt;ID_104_ct0_st12 -->
<g id="edge13" class="edge">
<title>ID_104_ct0_st02&#45;&gt;ID_104_ct0_st12</title>
<path fill="none" stroke="black" d="M711.28,-213.84C738.81,-206.59 771.43,-197.99 799.92,-190.48"/>
<polygon fill="black" stroke="black" points="801.03,-193.8 809.81,-187.87 799.24,-187.03 801.03,-193.8"/>
<text text-anchor="start" x="754.5" y="-210.8" font-family="arial" font-size="14.00" fill="#377eb8">T&#39;</text>
</g>
<!-- ID_104_ct0_st02&#45;&gt;ID_104_ct0_st2 -->
<g id="edge12" class="edge">
<title>ID_104_ct0_st02&#45;&gt;ID_104_ct0_st2</title>
<path fill="none" stroke="black" d="M711.09,-235.62C782.69,-242.22 900.89,-253.1 974.66,-259.89"/>
<polygon fill="black" stroke="black" points="974.49,-263.39 984.77,-260.82 975.13,-256.42 974.49,-263.39"/>
<text text-anchor="start" x="839.5" y="-258.8" font-family="arial" font-size="14.00" fill="#377eb8">(!R&#39; &amp;&amp; T&#39;)</text>
</g>
<!-- ID_104_ct0_st02&#45;&gt;ID_104_ct0_st02 -->
<g id="edge14" class="edge">
<title>ID_104_ct0_st02&#45;&gt;ID_104_ct0_st02</title>
<path fill="none" stroke="black" d="M631.82,-255.18C631.05,-264.91 636.78,-273 649,-273 656.64,-273 661.74,-269.84 664.3,-265.09"/>
<polygon fill="black" stroke="black" points="667.76,-265.65 666.18,-255.18 660.88,-264.35 667.76,-265.65"/>
<text text-anchor="start" x="637" y="-276.8" font-family="arial" font-size="14.00" fill="#377eb8">true</text>
</g>
</g>
</svg>
