<?xml version="1.0" encoding="UTF-8" standalone="no"?>
<!DOCTYPE svg PUBLIC "-//W3C//DTD SVG 1.1//EN"
 "http://www.w3.org/Graphics/SVG/1.1/DTD/svg11.dtd">
<!-- Generated by graphviz version 2.43.0 (0)
 -->
<!-- Title: G Pages: 1 -->
<svg width="2517pt" height="595pt"
 viewBox="0.00 0.00 2517.00 595.07" xmlns="http://www.w3.org/2000/svg" xmlns:xlink="http://www.w3.org/1999/xlink">
<g id="graph0" class="graph" transform="scale(1 1) rotate(0) translate(4 591.07)">
<title>G</title>
<polygon fill="white" stroke="transparent" points="-4,4 -4,-591.07 2513,-591.07 2513,4 -4,4"/>
<!-- _ID_83_ct0_st0 -->
<!-- ID_83_ct0_st0 -->
<g id="node2" class="node">
<title>ID_83_ct0_st0</title>
<polygon fill="none" stroke="black" points="264.5,-193.07 157.5,-193.07 157.5,-143.07 264.5,-143.07 264.5,-193.07"/>
<text text-anchor="start" x="165.5" y="-178.87" font-family="arial" font-weight="bold" font-size="14.00">ID_83_ct0_st0</text>
<text text-anchor="start" x="170" y="-164.87" font-family="arial" font-size="14.00" fill="#984ea3">((Q || S) || !P)</text>
<text text-anchor="start" x="199" y="-150.87" font-family="arial" font-size="14.00" fill="#ff7f00">true</text>
</g>
<!-- _ID_83_ct0_st0&#45;&gt;ID_83_ct0_st0 -->
<g id="edge1" class="edge">
<title>_ID_83_ct0_st0&#45;&gt;ID_83_ct0_st0</title>
<path fill="none" stroke="black" d="M111.05,-168.07C122.71,-168.07 135.13,-168.07 147.08,-168.07"/>
<polygon fill="black" stroke="black" points="147.43,-171.57 157.43,-168.07 147.43,-164.57 147.43,-171.57"/>
</g>
<!-- ID_83_ct0_st0&#45;&gt;ID_83_ct0_st0 -->
<g id="edge4" class="edge">
<title>ID_83_ct0_st0&#45;&gt;ID_83_ct0_st0</title>
<path fill="none" stroke="black" d="M196.06,-193.24C195.39,-202.98 200.38,-211.07 211,-211.07 217.64,-211.07 222.08,-207.91 224.31,-203.16"/>
<polygon fill="black" stroke="black" points="227.77,-203.68 225.94,-193.24 220.86,-202.54 227.77,-203.68"/>
<text text-anchor="start" x="199" y="-214.87" font-family="arial" font-size="14.00" fill="#377eb8">true</text>
</g>
<!-- ID_83_ct0_st012 -->
<g id="node4" class="node">
<title>ID_83_ct0_st012</title>
<polygon fill="none" stroke="black" points="582,-160.07 412,-160.07 412,-110.07 582,-110.07 582,-160.07"/>
<text text-anchor="start" x="444" y="-145.87" font-family="arial" font-weight="bold" font-size="14.00">ID_83_ct0_st012</text>
<text text-anchor="start" x="420" y="-131.87" font-family="arial" font-size="14.00" fill="#984ea3">(P &amp;&amp; (!Q &amp;&amp; (!R &amp;&amp; !S)))</text>
<text text-anchor="start" x="485" y="-117.87" font-family="arial" font-size="14.00" fill="#ff7f00">true</text>
</g>
<!-- ID_83_ct0_st0&#45;&gt;ID_83_ct0_st012 -->
<g id="edge5" class="edge">
<title>ID_83_ct0_st0&#45;&gt;ID_83_ct0_st012</title>
<path fill="none" stroke="black" d="M264.51,-143.85C273.51,-140.64 282.9,-137.84 292,-136.07 327.44,-129.15 367,-127.59 401.78,-128.21"/>
<polygon fill="black" stroke="black" points="401.85,-131.71 411.93,-128.45 402.02,-124.71 401.85,-131.71"/>
<text text-anchor="start" x="331" y="-139.87" font-family="arial" font-size="14.00" fill="#377eb8">true</text>
</g>
<!-- ID_83_ct0_st01234 -->
<g id="node6" class="node">
<title>ID_83_ct0_st01234</title>
<polygon fill="none" stroke="black" points="1300,-204.07 1133,-204.07 1133,-154.07 1300,-154.07 1300,-204.07"/>
<text text-anchor="start" x="1156" y="-189.87" font-family="arial" font-weight="bold" font-size="14.00">ID_83_ct0_st01234</text>
<text text-anchor="start" x="1141" y="-175.87" font-family="arial" font-size="14.00" fill="#984ea3">(P &amp;&amp; (!Q &amp;&amp; (R &amp;&amp; !S)))</text>
<text text-anchor="start" x="1204.5" y="-161.87" font-family="arial" font-size="14.00" fill="#ff7f00">true</text>
</g>
<!-- ID_83_ct0_st0&#45;&gt;ID_83_ct0_st01234 -->
<g id="edge6" class="edge">
<title>ID_83_ct0_st0&#45;&gt;ID_83_ct0_st01234</title>
<path fill="none" stroke="black" d="M255.21,-143.04C321.6,-105.53 446.25,-39.07 496,-39.07 496,-39.07 496,-39.07 847,-39.07 936.09,-39.07 962.63,-31.68 1046,-63.07 1097.07,-82.3 1147.65,-119.99 1180.08,-147.2"/>
<polygon fill="black" stroke="black" points="1178.04,-150.06 1187.92,-153.87 1182.57,-144.72 1178.04,-150.06"/>
<text text-anchor="start" x="717" y="-42.87" font-family="arial" font-size="14.00" fill="#377eb8">true</text>
</g>
<!-- _ID_83_ct0_st012 -->
<!-- _ID_83_ct0_st012&#45;&gt;ID_83_ct0_st012 -->
<g id="edge2" class="edge">
<title>_ID_83_ct0_st012&#45;&gt;ID_83_ct0_st012</title>
<path fill="none" stroke="black" d="M274.09,-105.19C309.35,-107.37 354.25,-110.85 394,-116.07 396.54,-116.4 399.11,-116.76 401.7,-117.13"/>
<polygon fill="black" stroke="black" points="401.38,-120.62 411.79,-118.65 402.42,-113.7 401.38,-120.62"/>
</g>
<!-- ID_83_ct0_st012&#45;&gt;ID_83_ct0_st0 -->
<g id="edge13" class="edge">
<title>ID_83_ct0_st012&#45;&gt;ID_83_ct0_st0</title>
<path fill="none" stroke="black" d="M411.73,-148.71C405.74,-149.55 399.78,-150.35 394,-151.07 354.45,-156.01 309.9,-160.2 274.77,-163.18"/>
<polygon fill="black" stroke="black" points="274.33,-159.7 264.66,-164.02 274.92,-166.68 274.33,-159.7"/>
<text text-anchor="start" x="292" y="-164.87" font-family="arial" font-size="14.00" fill="#377eb8">(Q&#39; || (!R&#39; &amp;&amp; S&#39;))</text>
</g>
<!-- ID_83_ct0_st012&#45;&gt;ID_83_ct0_st012 -->
<g id="edge17" class="edge">
<title>ID_83_ct0_st012&#45;&gt;ID_83_ct0_st012</title>
<path fill="none" stroke="black" d="M475.71,-160.24C474.76,-169.98 481.86,-178.07 497,-178.07 506.46,-178.07 512.78,-174.91 515.96,-170.16"/>
<polygon fill="black" stroke="black" points="519.41,-170.78 518.29,-160.24 512.6,-169.18 519.41,-170.78"/>
<text text-anchor="start" x="485" y="-181.87" font-family="arial" font-size="14.00" fill="#377eb8">true</text>
</g>
<!-- ID_83_ct0_st012&#45;&gt;ID_83_ct0_st01234 -->
<g id="edge18" class="edge">
<title>ID_83_ct0_st012&#45;&gt;ID_83_ct0_st01234</title>
<path fill="none" stroke="black" d="M582.14,-138.97C700.95,-144.68 924.67,-156.15 1115,-170.07 1117.56,-170.25 1120.16,-170.45 1122.78,-170.65"/>
<polygon fill="black" stroke="black" points="1122.73,-174.16 1132.98,-171.46 1123.28,-167.18 1122.73,-174.16"/>
<text text-anchor="start" x="834" y="-156.87" font-family="arial" font-size="14.00" fill="#377eb8">true</text>
</g>
<!-- ID_83_ct0_st02 -->
<g id="node7" class="node">
<title>ID_83_ct0_st02</title>
<polygon fill="none" stroke="black" points="816,-239.07 642,-239.07 642,-189.07 816,-189.07 816,-239.07"/>
<text text-anchor="start" x="680" y="-224.87" font-family="arial" font-weight="bold" font-size="14.00">ID_83_ct0_st02</text>
<text text-anchor="start" x="650" y="-210.87" font-family="arial" font-size="14.00" fill="#984ea3">(!P &amp;&amp; (!Q &amp;&amp; (!R &amp;&amp; !S)))</text>
<text text-anchor="start" x="717" y="-196.87" font-family="arial" font-size="14.00" fill="#ff7f00">true</text>
</g>
<!-- ID_83_ct0_st012&#45;&gt;ID_83_ct0_st02 -->
<g id="edge15" class="edge">
<title>ID_83_ct0_st012&#45;&gt;ID_83_ct0_st02</title>
<path fill="none" stroke="black" d="M582.32,-146.67C596.44,-149.69 610.78,-153.43 624,-158.07 642.78,-164.65 662.26,-174.29 679.22,-183.72"/>
<polygon fill="black" stroke="black" points="677.94,-187.02 688.36,-188.92 681.4,-180.93 677.94,-187.02"/>
<text text-anchor="start" x="600" y="-161.87" font-family="arial" font-size="14.00" fill="#377eb8">true</text>
</g>
<!-- ID_83_ct0_st034 -->
<g id="node8" class="node">
<title>ID_83_ct0_st034</title>
<polygon fill="none" stroke="black" points="1637,-181.07 1387,-181.07 1387,-131.07 1637,-131.07 1637,-181.07"/>
<text text-anchor="start" x="1459" y="-166.87" font-family="arial" font-weight="bold" font-size="14.00">ID_83_ct0_st034</text>
<text text-anchor="start" x="1395" y="-152.87" font-family="arial" font-size="14.00" fill="#984ea3">((!Q &amp;&amp; (R &amp;&amp; S)) || (!P &amp;&amp; (!Q &amp;&amp; R)))</text>
<text text-anchor="start" x="1500" y="-138.87" font-family="arial" font-size="14.00" fill="#ff7f00">true</text>
</g>
<!-- ID_83_ct0_st012&#45;&gt;ID_83_ct0_st034 -->
<g id="edge14" class="edge">
<title>ID_83_ct0_st012&#45;&gt;ID_83_ct0_st034</title>
<path fill="none" stroke="black" d="M582.18,-132.84C737.74,-129.38 1080.69,-124.76 1369,-142.07 1371.54,-142.22 1374.11,-142.38 1376.7,-142.56"/>
<polygon fill="black" stroke="black" points="1376.53,-146.05 1386.75,-143.26 1377.02,-139.07 1376.53,-146.05"/>
<text text-anchor="start" x="935.5" y="-134.87" font-family="arial" font-size="14.00" fill="#377eb8">(Q&#39; || S&#39;)</text>
</g>
<!-- ID_83_ct0_st0234 -->
<g id="node9" class="node">
<title>ID_83_ct0_st0234</title>
<polygon fill="none" stroke="black" points="1046,-393.07 876,-393.07 876,-343.07 1046,-343.07 1046,-393.07"/>
<text text-anchor="start" x="904.5" y="-378.87" font-family="arial" font-weight="bold" font-size="14.00">ID_83_ct0_st0234</text>
<text text-anchor="start" x="884" y="-364.87" font-family="arial" font-size="14.00" fill="#984ea3">(!P &amp;&amp; (!Q &amp;&amp; (R &amp;&amp; !S)))</text>
<text text-anchor="start" x="949" y="-350.87" font-family="arial" font-size="14.00" fill="#ff7f00">true</text>
</g>
<!-- ID_83_ct0_st012&#45;&gt;ID_83_ct0_st0234 -->
<g id="edge16" class="edge">
<title>ID_83_ct0_st012&#45;&gt;ID_83_ct0_st0234</title>
<path fill="none" stroke="black" d="M536.35,-160.11C551.41,-170.87 568.33,-184.15 582,-198.07 613.9,-230.54 604.59,-255.14 642,-281.07 708.45,-327.11 798.38,-348.83 865.65,-359.05"/>
<polygon fill="black" stroke="black" points="865.43,-362.56 875.83,-360.54 866.44,-355.63 865.43,-362.56"/>
<text text-anchor="start" x="717" y="-352.87" font-family="arial" font-size="14.00" fill="#377eb8">true</text>
</g>
<!-- _ID_83_ct0_st01234 -->
<!-- _ID_83_ct0_st01234&#45;&gt;ID_83_ct0_st01234 -->
<g id="edge3" class="edge">
<title>_ID_83_ct0_st01234&#45;&gt;ID_83_ct0_st01234</title>
<path fill="none" stroke="black" d="M1031.61,-212.44C1059.65,-207.35 1092.43,-201.4 1122.47,-195.95"/>
<polygon fill="black" stroke="black" points="1123.33,-199.35 1132.55,-194.12 1122.08,-192.46 1123.33,-199.35"/>
</g>
<!-- ID_83_ct0_st01234&#45;&gt;ID_83_ct0_st01234 -->
<g id="edge49" class="edge">
<title>ID_83_ct0_st01234&#45;&gt;ID_83_ct0_st01234</title>
<path fill="none" stroke="black" d="M1192.97,-204.24C1191.92,-213.98 1199.77,-222.07 1216.5,-222.07 1226.96,-222.07 1233.95,-218.91 1237.46,-214.16"/>
<polygon fill="black" stroke="black" points="1240.91,-214.8 1240.03,-204.24 1234.13,-213.04 1240.91,-214.8"/>
<text text-anchor="start" x="1204.5" y="-225.87" font-family="arial" font-size="14.00" fill="#377eb8">true</text>
</g>
<!-- ID_83_ct0_st01234&#45;&gt;ID_83_ct0_st034 -->
<g id="edge45" class="edge">
<title>ID_83_ct0_st01234&#45;&gt;ID_83_ct0_st034</title>
<path fill="none" stroke="black" d="M1300.04,-172.6C1323.94,-170.73 1350.68,-168.63 1376.87,-166.58"/>
<polygon fill="black" stroke="black" points="1377.18,-170.06 1386.88,-165.79 1376.64,-163.09 1377.18,-170.06"/>
<text text-anchor="start" x="1318" y="-173.87" font-family="arial" font-size="14.00" fill="#377eb8">(Q&#39; || S&#39;)</text>
</g>
<!-- ID_83_ct0_st01234&#45;&gt;ID_83_ct0_st0234 -->
<g id="edge47" class="edge">
<title>ID_83_ct0_st01234&#45;&gt;ID_83_ct0_st0234</title>
<path fill="none" stroke="black" d="M1140.5,-204.2C1105.89,-216.18 1070.9,-228.99 1064,-234.07 1054.08,-241.37 1013.03,-297.1 986.13,-334.36"/>
<polygon fill="black" stroke="black" points="982.96,-332.77 979.96,-342.93 988.64,-336.86 982.96,-332.77"/>
<text text-anchor="start" x="1077.5" y="-237.87" font-family="arial" font-size="14.00" fill="#377eb8">true</text>
</g>
<!-- ID_83_ct0_st04 -->
<g id="node10" class="node">
<title>ID_83_ct0_st04</title>
<polygon fill="none" stroke="black" points="2509,-166.07 2348,-166.07 2348,-116.07 2509,-116.07 2509,-166.07"/>
<text text-anchor="start" x="2379.5" y="-151.87" font-family="arial" font-weight="bold" font-size="14.00">ID_83_ct0_st04</text>
<text text-anchor="start" x="2356" y="-137.87" font-family="arial" font-size="14.00" fill="#984ea3">((!Q &amp;&amp; S) || (!P &amp;&amp; !Q))</text>
<text text-anchor="start" x="2416.5" y="-123.87" font-family="arial" font-size="14.00" fill="#ff7f00">true</text>
</g>
<!-- ID_83_ct0_st01234&#45;&gt;ID_83_ct0_st04 -->
<g id="edge44" class="edge">
<title>ID_83_ct0_st01234&#45;&gt;ID_83_ct0_st04</title>
<path fill="none" stroke="black" d="M1248.06,-153.74C1267.22,-138.84 1292.95,-120.54 1318,-108.07 1350.88,-91.7 1505.75,-52.07 1511,-52.07 1511,-52.07 1511,-52.07 2124,-52.07 2210.78,-52.07 2306.09,-85.99 2366.32,-111.95"/>
<polygon fill="black" stroke="black" points="2365.11,-115.24 2375.67,-116.04 2367.91,-108.83 2365.11,-115.24"/>
<text text-anchor="start" x="1809" y="-55.87" font-family="arial" font-size="14.00" fill="#377eb8">(Q&#39; || (!R&#39; &amp;&amp; S&#39;))</text>
</g>
<!-- ID_83_ct0_st0124 -->
<g id="node11" class="node">
<title>ID_83_ct0_st0124</title>
<polygon fill="none" stroke="black" points="1945,-206.07 1775,-206.07 1775,-156.07 1945,-156.07 1945,-206.07"/>
<text text-anchor="start" x="1803.5" y="-191.87" font-family="arial" font-weight="bold" font-size="14.00">ID_83_ct0_st0124</text>
<text text-anchor="start" x="1783" y="-177.87" font-family="arial" font-size="14.00" fill="#984ea3">(P &amp;&amp; (!Q &amp;&amp; (!R &amp;&amp; !S)))</text>
<text text-anchor="start" x="1848" y="-163.87" font-family="arial" font-size="14.00" fill="#ff7f00">true</text>
</g>
<!-- ID_83_ct0_st01234&#45;&gt;ID_83_ct0_st0124 -->
<g id="edge48" class="edge">
<title>ID_83_ct0_st01234&#45;&gt;ID_83_ct0_st0124</title>
<path fill="none" stroke="black" d="M1262.64,-153.98C1295.89,-136.99 1342.83,-116.06 1387,-107.07 1548.82,-74.12 1600.5,-88.35 1757,-141.07 1767.21,-144.51 1777.9,-148.38 1788.35,-152.34"/>
<polygon fill="black" stroke="black" points="1787.28,-155.67 1797.87,-155.98 1789.78,-149.13 1787.28,-155.67"/>
<text text-anchor="start" x="1500" y="-110.87" font-family="arial" font-size="14.00" fill="#377eb8">true</text>
</g>
<!-- ID_83_ct0_st024 -->
<g id="node12" class="node">
<title>ID_83_ct0_st024</title>
<polygon fill="none" stroke="black" points="2210,-328.07 2036,-328.07 2036,-278.07 2210,-278.07 2210,-328.07"/>
<text text-anchor="start" x="2070" y="-313.87" font-family="arial" font-weight="bold" font-size="14.00">ID_83_ct0_st024</text>
<text text-anchor="start" x="2044" y="-299.87" font-family="arial" font-size="14.00" fill="#984ea3">(!P &amp;&amp; (!Q &amp;&amp; (!R &amp;&amp; !S)))</text>
<text text-anchor="start" x="2111" y="-285.87" font-family="arial" font-size="14.00" fill="#ff7f00">true</text>
</g>
<!-- ID_83_ct0_st01234&#45;&gt;ID_83_ct0_st024 -->
<g id="edge46" class="edge">
<title>ID_83_ct0_st01234&#45;&gt;ID_83_ct0_st024</title>
<path fill="none" stroke="black" d="M1264.11,-204.11C1280.85,-212.61 1300.03,-221.78 1318,-229.07 1347.83,-241.16 1355.56,-244.17 1387,-251.07 1611.91,-300.39 1883.9,-306.06 2025.58,-305.08"/>
<polygon fill="black" stroke="black" points="2026,-308.58 2035.97,-305 2025.94,-301.58 2026,-308.58"/>
<text text-anchor="start" x="1694" y="-300.87" font-family="arial" font-size="14.00" fill="#377eb8">true</text>
</g>
<!-- ID_83_ct0_st02&#45;&gt;ID_83_ct0_st0 -->
<g id="edge7" class="edge">
<title>ID_83_ct0_st02&#45;&gt;ID_83_ct0_st0</title>
<path fill="none" stroke="black" d="M641.95,-213.82C578.29,-212.91 489.54,-210.1 412,-202.07 365.75,-197.28 314.02,-188.39 274.76,-180.9"/>
<polygon fill="black" stroke="black" points="275.28,-177.44 264.8,-178.98 273.96,-184.31 275.28,-177.44"/>
<text text-anchor="start" x="446" y="-215.87" font-family="arial" font-size="14.00" fill="#377eb8">(Q&#39; || (!R&#39; &amp;&amp; S&#39;))</text>
</g>
<!-- ID_83_ct0_st02&#45;&gt;ID_83_ct0_st012 -->
<g id="edge11" class="edge">
<title>ID_83_ct0_st02&#45;&gt;ID_83_ct0_st012</title>
<path fill="none" stroke="black" d="M641.87,-190.57C627.8,-186.33 613.43,-181.76 600,-177.07 588.7,-173.12 576.84,-168.6 565.36,-164.02"/>
<polygon fill="black" stroke="black" points="566.42,-160.67 555.83,-160.16 563.79,-167.16 566.42,-160.67"/>
<text text-anchor="start" x="600" y="-186.87" font-family="arial" font-size="14.00" fill="#377eb8">true</text>
</g>
<!-- ID_83_ct0_st02&#45;&gt;ID_83_ct0_st01234 -->
<g id="edge12" class="edge">
<title>ID_83_ct0_st02&#45;&gt;ID_83_ct0_st01234</title>
<path fill="none" stroke="black" d="M816.01,-192.86C835.61,-188.85 856.43,-185.24 876,-183.07 959.03,-173.86 1054.18,-173.62 1122.58,-175.24"/>
<polygon fill="black" stroke="black" points="1122.81,-178.75 1132.9,-175.5 1122.99,-171.75 1122.81,-178.75"/>
<text text-anchor="start" x="949" y="-186.87" font-family="arial" font-size="14.00" fill="#377eb8">true</text>
</g>
<!-- ID_83_ct0_st02&#45;&gt;ID_83_ct0_st02 -->
<g id="edge9" class="edge">
<title>ID_83_ct0_st02&#45;&gt;ID_83_ct0_st02</title>
<path fill="none" stroke="black" d="M707.33,-239.24C706.37,-248.98 713.59,-257.07 729,-257.07 738.63,-257.07 745.06,-253.91 748.3,-249.16"/>
<polygon fill="black" stroke="black" points="751.75,-249.78 750.67,-239.24 744.94,-248.16 751.75,-249.78"/>
<text text-anchor="start" x="717" y="-260.87" font-family="arial" font-size="14.00" fill="#377eb8">true</text>
</g>
<!-- ID_83_ct0_st02&#45;&gt;ID_83_ct0_st034 -->
<g id="edge8" class="edge">
<title>ID_83_ct0_st02&#45;&gt;ID_83_ct0_st034</title>
<path fill="none" stroke="black" d="M811.13,-239.09C832.06,-244.46 854.7,-249.34 876,-252.07 934.25,-259.52 1293.73,-247.43 1300,-246.07 1355.91,-233.95 1415.5,-207.1 1457.05,-185.86"/>
<polygon fill="black" stroke="black" points="1458.88,-188.85 1466.15,-181.15 1455.66,-182.64 1458.88,-188.85"/>
<text text-anchor="start" x="1064" y="-256.87" font-family="arial" font-size="14.00" fill="#377eb8">(Q&#39; || S&#39;)</text>
</g>
<!-- ID_83_ct0_st02&#45;&gt;ID_83_ct0_st0234 -->
<g id="edge10" class="edge">
<title>ID_83_ct0_st02&#45;&gt;ID_83_ct0_st0234</title>
<path fill="none" stroke="black" d="M767.52,-239.38C787.29,-252.7 811.94,-269.29 834,-284.07 860.36,-301.73 889.87,-321.4 913.7,-337.27"/>
<polygon fill="black" stroke="black" points="911.94,-340.3 922.2,-342.93 915.82,-334.48 911.94,-340.3"/>
<text text-anchor="start" x="834" y="-300.87" font-family="arial" font-size="14.00" fill="#377eb8">true</text>
</g>
<!-- ID_83_ct0_st034&#45;&gt;ID_83_ct0_st01234 -->
<g id="edge37" class="edge">
<title>ID_83_ct0_st034&#45;&gt;ID_83_ct0_st01234</title>
<path fill="none" stroke="black" d="M1386.85,-145.94C1363.88,-145.84 1340.16,-146.93 1318,-150.07 1314.27,-150.59 1310.49,-151.23 1306.69,-151.94"/>
<polygon fill="black" stroke="black" points="1305.69,-148.58 1296.6,-154.02 1307.1,-155.43 1305.69,-148.58"/>
<text text-anchor="start" x="1331.5" y="-153.87" font-family="arial" font-size="14.00" fill="#377eb8">true</text>
</g>
<!-- ID_83_ct0_st034&#45;&gt;ID_83_ct0_st034 -->
<g id="edge35" class="edge">
<title>ID_83_ct0_st034&#45;&gt;ID_83_ct0_st034</title>
<path fill="none" stroke="black" d="M1480.62,-181.24C1479.23,-190.98 1489.69,-199.07 1512,-199.07 1526.29,-199.07 1535.72,-195.75 1540.29,-190.8"/>
<polygon fill="black" stroke="black" points="1543.63,-191.84 1543.38,-181.24 1536.97,-189.68 1543.63,-191.84"/>
<text text-anchor="start" x="1500" y="-202.87" font-family="arial" font-size="14.00" fill="#377eb8">true</text>
</g>
<!-- ID_83_ct0_st034&#45;&gt;ID_83_ct0_st04 -->
<g id="edge34" class="edge">
<title>ID_83_ct0_st034&#45;&gt;ID_83_ct0_st04</title>
<path fill="none" stroke="black" d="M1637.24,-142.28C1643.24,-141.82 1649.18,-141.41 1655,-141.07 1954.48,-123.34 2030.06,-130.92 2330,-137.07 2332.56,-137.12 2335.15,-137.18 2337.77,-137.25"/>
<polygon fill="black" stroke="black" points="2337.86,-140.75 2347.96,-137.54 2338.06,-133.75 2337.86,-140.75"/>
<text text-anchor="start" x="1963" y="-134.87" font-family="arial" font-size="14.00" fill="#377eb8">(Q&#39; || !R&#39;)</text>
</g>
<!-- ID_83_ct0_st034&#45;&gt;ID_83_ct0_st0124 -->
<g id="edge36" class="edge">
<title>ID_83_ct0_st034&#45;&gt;ID_83_ct0_st0124</title>
<path fill="none" stroke="black" d="M1637.3,-145.71C1675.82,-144.59 1718.31,-145.5 1757,-151.07 1762.07,-151.8 1767.23,-152.72 1772.41,-153.79"/>
<polygon fill="black" stroke="black" points="1771.86,-157.25 1782.38,-156 1773.38,-150.42 1771.86,-157.25"/>
<text text-anchor="start" x="1694" y="-154.87" font-family="arial" font-size="14.00" fill="#377eb8">true</text>
</g>
<!-- ID_83_ct0_st0234&#45;&gt;ID_83_ct0_st01234 -->
<g id="edge43" class="edge">
<title>ID_83_ct0_st0234&#45;&gt;ID_83_ct0_st01234</title>
<path fill="none" stroke="black" d="M1004.2,-342.9C1022.38,-332.36 1044.03,-320.22 1064,-310.07 1086.16,-298.8 1094.8,-301.57 1115,-287.07 1144.22,-266.09 1171.63,-235.63 1190.42,-212.4"/>
<polygon fill="black" stroke="black" points="1193.21,-214.52 1196.69,-204.51 1187.73,-210.16 1193.21,-214.52"/>
<text text-anchor="start" x="1077.5" y="-313.87" font-family="arial" font-size="14.00" fill="#377eb8">true</text>
</g>
<!-- ID_83_ct0_st0234&#45;&gt;ID_83_ct0_st034 -->
<g id="edge39" class="edge">
<title>ID_83_ct0_st0234&#45;&gt;ID_83_ct0_st034</title>
<path fill="none" stroke="black" d="M1046.38,-360.44C1151.53,-349.25 1323.04,-324.91 1369,-282.07 1390.3,-262.21 1368.47,-241.54 1387,-219.07 1398.11,-205.6 1412.83,-194.71 1428.25,-186.02"/>
<polygon fill="black" stroke="black" points="1430.2,-188.95 1437.38,-181.16 1426.91,-182.77 1430.2,-188.95"/>
<text text-anchor="start" x="1191" y="-352.87" font-family="arial" font-size="14.00" fill="#377eb8">(Q&#39; || S&#39;)</text>
</g>
<!-- ID_83_ct0_st0234&#45;&gt;ID_83_ct0_st0234 -->
<g id="edge41" class="edge">
<title>ID_83_ct0_st0234&#45;&gt;ID_83_ct0_st0234</title>
<path fill="none" stroke="black" d="M939.71,-393.24C938.76,-402.98 945.86,-411.07 961,-411.07 970.46,-411.07 976.78,-407.91 979.96,-403.16"/>
<polygon fill="black" stroke="black" points="983.41,-403.78 982.29,-393.24 976.6,-402.18 983.41,-403.78"/>
<text text-anchor="start" x="949" y="-414.87" font-family="arial" font-size="14.00" fill="#377eb8">true</text>
</g>
<!-- ID_83_ct0_st0234&#45;&gt;ID_83_ct0_st04 -->
<g id="edge38" class="edge">
<title>ID_83_ct0_st0234&#45;&gt;ID_83_ct0_st04</title>
<path fill="none" stroke="black" d="M972.74,-393.13C988.23,-426.45 1019.9,-485.08 1064,-519.07 1120.5,-562.61 1144.17,-572.07 1215.5,-572.07 1215.5,-572.07 1215.5,-572.07 2124,-572.07 2317.32,-572.07 2398.25,-278.59 2420.64,-175.98"/>
<polygon fill="black" stroke="black" points="2424.09,-176.61 2422.74,-166.1 2417.24,-175.16 2424.09,-176.61"/>
<text text-anchor="start" x="1655" y="-575.87" font-family="arial" font-size="14.00" fill="#377eb8">(Q&#39; || (!R&#39; &amp;&amp; S&#39;))</text>
</g>
<!-- ID_83_ct0_st0234&#45;&gt;ID_83_ct0_st0124 -->
<g id="edge42" class="edge">
<title>ID_83_ct0_st0234&#45;&gt;ID_83_ct0_st0124</title>
<path fill="none" stroke="black" d="M1046.2,-375.58C1239.9,-391.98 1704.57,-426.01 1757,-380.07 1779.93,-359.97 1759.6,-270.38 1775,-244.07 1782.19,-231.79 1792.8,-221.14 1804.08,-212.27"/>
<polygon fill="black" stroke="black" points="1806.42,-214.89 1812.38,-206.13 1802.26,-209.26 1806.42,-214.89"/>
<text text-anchor="start" x="1331.5" y="-400.87" font-family="arial" font-size="14.00" fill="#377eb8">true</text>
</g>
<!-- ID_83_ct0_st0234&#45;&gt;ID_83_ct0_st024 -->
<g id="edge40" class="edge">
<title>ID_83_ct0_st0234&#45;&gt;ID_83_ct0_st024</title>
<path fill="none" stroke="black" d="M995.66,-393.3C1042.41,-425.78 1130.82,-478.07 1215.5,-478.07 1215.5,-478.07 1215.5,-478.07 1861,-478.07 1961.98,-478.07 2053.38,-386.58 2096.27,-335.9"/>
<polygon fill="black" stroke="black" points="2099.02,-338.07 2102.73,-328.14 2093.64,-333.59 2099.02,-338.07"/>
<text text-anchor="start" x="1500" y="-481.87" font-family="arial" font-size="14.00" fill="#377eb8">true</text>
</g>
<!-- ID_83_ct0_st04&#45;&gt;ID_83_ct0_st01234 -->
<g id="edge21" class="edge">
<title>ID_83_ct0_st04&#45;&gt;ID_83_ct0_st01234</title>
<path fill="none" stroke="black" d="M2410.95,-115.93C2393.72,-91.9 2364.45,-56.67 2330,-38.07 2248.16,6.14 2217.02,-1.07 2124,-1.07 1511,-1.07 1511,-1.07 1511,-1.07 1423.66,-1.07 1391.51,9.1 1318,-38.07 1277.82,-63.85 1248.81,-111.91 1232.58,-144.69"/>
<polygon fill="black" stroke="black" points="1229.32,-143.38 1228.15,-153.91 1235.63,-146.41 1229.32,-143.38"/>
<text text-anchor="start" x="1848" y="-4.87" font-family="arial" font-size="14.00" fill="#377eb8">true</text>
</g>
<!-- ID_83_ct0_st04&#45;&gt;ID_83_ct0_st04 -->
<g id="edge19" class="edge">
<title>ID_83_ct0_st04&#45;&gt;ID_83_ct0_st04</title>
<path fill="none" stroke="black" d="M2400.86,-166.24C2399.63,-175.98 2408.84,-184.07 2428.5,-184.07 2440.79,-184.07 2448.99,-180.91 2453.12,-176.16"/>
<polygon fill="black" stroke="black" points="2456.57,-176.83 2456.14,-166.24 2449.88,-174.79 2456.57,-176.83"/>
<text text-anchor="start" x="2416.5" y="-187.87" font-family="arial" font-size="14.00" fill="#377eb8">true</text>
</g>
<!-- ID_83_ct0_st04&#45;&gt;ID_83_ct0_st0124 -->
<g id="edge20" class="edge">
<title>ID_83_ct0_st04&#45;&gt;ID_83_ct0_st0124</title>
<path fill="none" stroke="black" d="M2347.85,-141.31C2268.63,-142.17 2143.69,-145.17 2036,-155.07 2009.81,-157.47 1981.56,-161.18 1955.56,-165.05"/>
<polygon fill="black" stroke="black" points="1954.7,-161.64 1945.33,-166.59 1955.74,-168.56 1954.7,-161.64"/>
<text text-anchor="start" x="2111" y="-158.87" font-family="arial" font-size="14.00" fill="#377eb8">true</text>
</g>
<!-- ID_83_ct0_st0124&#45;&gt;ID_83_ct0_st01234 -->
<g id="edge33" class="edge">
<title>ID_83_ct0_st0124&#45;&gt;ID_83_ct0_st01234</title>
<path fill="none" stroke="black" d="M1774.93,-200.81C1733.64,-209.52 1682.99,-218.76 1637,-223.07 1526.37,-233.44 1497.22,-237.14 1387,-223.07 1360.53,-219.69 1332.28,-213.45 1306.58,-206.72"/>
<polygon fill="black" stroke="black" points="1307.44,-203.32 1296.87,-204.12 1305.63,-210.08 1307.44,-203.32"/>
<text text-anchor="start" x="1500" y="-235.87" font-family="arial" font-size="14.00" fill="#377eb8">true</text>
</g>
<!-- ID_83_ct0_st0124&#45;&gt;ID_83_ct0_st034 -->
<g id="edge29" class="edge">
<title>ID_83_ct0_st0124&#45;&gt;ID_83_ct0_st034</title>
<path fill="none" stroke="black" d="M1774.58,-177.36C1737.82,-175.53 1694.26,-173.06 1655,-170.07 1652.46,-169.87 1649.9,-169.67 1647.31,-169.47"/>
<polygon fill="black" stroke="black" points="1647.52,-165.97 1637.27,-168.64 1646.95,-172.95 1647.52,-165.97"/>
<text text-anchor="start" x="1680.5" y="-179.87" font-family="arial" font-size="14.00" fill="#377eb8">(Q&#39; || S&#39;)</text>
</g>
<!-- ID_83_ct0_st0124&#45;&gt;ID_83_ct0_st0234 -->
<g id="edge31" class="edge">
<title>ID_83_ct0_st0124&#45;&gt;ID_83_ct0_st0234</title>
<path fill="none" stroke="black" d="M1811.74,-206.32C1797.65,-216.21 1783.67,-228.87 1775,-244.07 1756.84,-275.92 1784.24,-383.53 1757,-408.07 1746.04,-417.94 1155.54,-425.75 1064,-408.07 1050.98,-405.55 1037.48,-401.44 1024.74,-396.79"/>
<polygon fill="black" stroke="black" points="1025.75,-393.43 1015.16,-393.14 1023.26,-399.97 1025.75,-393.43"/>
<text text-anchor="start" x="1331.5" y="-421.87" font-family="arial" font-size="14.00" fill="#377eb8">true</text>
</g>
<!-- ID_83_ct0_st0124&#45;&gt;ID_83_ct0_st04 -->
<g id="edge28" class="edge">
<title>ID_83_ct0_st0124&#45;&gt;ID_83_ct0_st04</title>
<path fill="none" stroke="black" d="M1945.02,-180.41C2015.78,-179.38 2119.62,-176.75 2210,-170.07 2263.55,-166.11 2276.79,-163.26 2330,-156.07 2332.65,-155.71 2335.35,-155.34 2338.06,-154.96"/>
<polygon fill="black" stroke="black" points="2338.58,-158.42 2347.99,-153.55 2337.59,-151.49 2338.58,-158.42"/>
<text text-anchor="start" x="2072" y="-181.87" font-family="arial" font-size="14.00" fill="#377eb8">(Q&#39; || (!R&#39; &amp;&amp; S&#39;))</text>
</g>
<!-- ID_83_ct0_st0124&#45;&gt;ID_83_ct0_st0124 -->
<g id="edge32" class="edge">
<title>ID_83_ct0_st0124&#45;&gt;ID_83_ct0_st0124</title>
<path fill="none" stroke="black" d="M1835.72,-206.24C1834.64,-215.98 1842.73,-224.07 1860,-224.07 1870.79,-224.07 1878,-220.91 1881.62,-216.16"/>
<polygon fill="black" stroke="black" points="1885.07,-216.81 1884.28,-206.24 1878.31,-215 1885.07,-216.81"/>
<text text-anchor="start" x="1848" y="-227.87" font-family="arial" font-size="14.00" fill="#377eb8">true</text>
</g>
<!-- ID_83_ct0_st0124&#45;&gt;ID_83_ct0_st024 -->
<g id="edge30" class="edge">
<title>ID_83_ct0_st0124&#45;&gt;ID_83_ct0_st024</title>
<path fill="none" stroke="black" d="M1945.01,-196.73C1974.95,-203.08 2004.58,-210.45 2018,-217.07 2045.27,-230.52 2071.62,-252.43 2090.97,-270.77"/>
<polygon fill="black" stroke="black" points="2088.67,-273.42 2098.29,-277.86 2093.54,-268.39 2088.67,-273.42"/>
<text text-anchor="start" x="1978.5" y="-220.87" font-family="arial" font-size="14.00" fill="#377eb8">true</text>
</g>
<!-- ID_83_ct0_st024&#45;&gt;ID_83_ct0_st01234 -->
<g id="edge27" class="edge">
<title>ID_83_ct0_st024&#45;&gt;ID_83_ct0_st01234</title>
<path fill="none" stroke="black" d="M2052.9,-328.1C1906.79,-376.5 1560.07,-467.07 1318,-335.07 1311.7,-331.63 1265.51,-257.45 1237.99,-212.64"/>
<polygon fill="black" stroke="black" points="1240.97,-210.79 1232.76,-204.1 1235,-214.45 1240.97,-210.79"/>
<text text-anchor="start" x="1694" y="-405.87" font-family="arial" font-size="14.00" fill="#377eb8">true</text>
</g>
<!-- ID_83_ct0_st024&#45;&gt;ID_83_ct0_st034 -->
<g id="edge23" class="edge">
<title>ID_83_ct0_st024&#45;&gt;ID_83_ct0_st034</title>
<path fill="none" stroke="black" d="M2035.92,-293.81C1965.17,-285.16 1862.67,-270.22 1775,-248.07 1708.89,-231.37 1635.85,-205.03 1583.72,-184.81"/>
<polygon fill="black" stroke="black" points="1584.82,-181.49 1574.24,-181.11 1582.28,-188.01 1584.82,-181.49"/>
<text text-anchor="start" x="1834.5" y="-283.87" font-family="arial" font-size="14.00" fill="#377eb8">(Q&#39; || S&#39;)</text>
</g>
<!-- ID_83_ct0_st024&#45;&gt;ID_83_ct0_st0234 -->
<g id="edge25" class="edge">
<title>ID_83_ct0_st024&#45;&gt;ID_83_ct0_st0234</title>
<path fill="none" stroke="black" d="M2115.37,-328.28C2103.24,-369.25 2073.47,-449.93 2018,-492.07 1960.91,-535.43 1932.69,-529.07 1861,-529.07 1215.5,-529.07 1215.5,-529.07 1215.5,-529.07 1146.19,-529.07 1122.69,-528.94 1064,-492.07 1028.22,-469.59 999.05,-430.25 981.2,-401.9"/>
<polygon fill="black" stroke="black" points="984.03,-399.81 975.82,-393.12 978.06,-403.47 984.03,-399.81"/>
<text text-anchor="start" x="1500" y="-532.87" font-family="arial" font-size="14.00" fill="#377eb8">true</text>
</g>
<!-- ID_83_ct0_st024&#45;&gt;ID_83_ct0_st04 -->
<g id="edge22" class="edge">
<title>ID_83_ct0_st024&#45;&gt;ID_83_ct0_st04</title>
<path fill="none" stroke="black" d="M2183.32,-277.93C2225.13,-259.55 2281.98,-233.18 2330,-206.07 2348.25,-195.76 2367.61,-183.22 2384.22,-171.91"/>
<polygon fill="black" stroke="black" points="2386.38,-174.68 2392.64,-166.13 2382.41,-168.91 2386.38,-174.68"/>
<text text-anchor="start" x="2228" y="-259.87" font-family="arial" font-size="14.00" fill="#377eb8">(Q&#39; || (!R&#39; &amp;&amp; S&#39;))</text>
</g>
<!-- ID_83_ct0_st024&#45;&gt;ID_83_ct0_st0124 -->
<g id="edge26" class="edge">
<title>ID_83_ct0_st024&#45;&gt;ID_83_ct0_st0124</title>
<path fill="none" stroke="black" d="M2062.89,-278.01C2048.23,-271.81 2032.55,-265.19 2018,-259.07 1993.58,-248.79 1986.91,-247.48 1963,-236.07 1946.91,-228.39 1929.74,-219.44 1914.16,-211.01"/>
<polygon fill="black" stroke="black" points="1915.65,-207.84 1905.2,-206.13 1912.3,-213.98 1915.65,-207.84"/>
<text text-anchor="start" x="1978.5" y="-262.87" font-family="arial" font-size="14.00" fill="#377eb8">true</text>
</g>
<!-- ID_83_ct0_st024&#45;&gt;ID_83_ct0_st024 -->
<g id="edge24" class="edge">
<title>ID_83_ct0_st024&#45;&gt;ID_83_ct0_st024</title>
<path fill="none" stroke="black" d="M2098.35,-328.24C2097.25,-337.98 2105.47,-346.07 2123,-346.07 2133.96,-346.07 2141.28,-342.91 2144.96,-338.16"/>
<polygon fill="black" stroke="black" points="2148.41,-338.81 2147.65,-328.24 2141.65,-336.97 2148.41,-338.81"/>
<text text-anchor="start" x="2111" y="-349.87" font-family="arial" font-size="14.00" fill="#377eb8">true</text>
</g>
</g>
</svg>
