<?xml version="1.0" encoding="UTF-8" standalone="no"?>
<!DOCTYPE svg PUBLIC "-//W3C//DTD SVG 1.1//EN"
 "http://www.w3.org/Graphics/SVG/1.1/DTD/svg11.dtd">
<!-- Generated by graphviz version 2.43.0 (0)
 -->
<!-- Title: G Pages: 1 -->
<svg width="514pt" height="145pt"
 viewBox="0.00 0.00 514.00 145.00" xmlns="http://www.w3.org/2000/svg" xmlns:xlink="http://www.w3.org/1999/xlink">
<g id="graph0" class="graph" transform="scale(1 1) rotate(0) translate(4 141)">
<title>G</title>
<polygon fill="white" stroke="transparent" points="-4,4 -4,-141 510,-141 510,4 -4,4"/>
<!-- _ID_42_ct0_st -->
<!-- ID_42_ct0_st -->
<g id="node2" class="node">
<title>ID_42_ct0_st</title>
<polygon fill="none" stroke="black" points="506,-97 407,-97 407,-47 506,-47 506,-97"/>
<text text-anchor="start" x="415" y="-82.8" font-family="arial" font-weight="bold" font-size="14.00">ID_42_ct0_st</text>
<text text-anchor="start" x="444.5" y="-68.8" font-family="arial" font-size="14.00" fill="#984ea3">true</text>
<text text-anchor="start" x="444.5" y="-54.8" font-family="arial" font-size="14.00" fill="#ff7f00">true</text>
</g>
<!-- _ID_42_ct0_st&#45;&gt;ID_42_ct0_st -->
<g id="edge1" class="edge">
<title>_ID_42_ct0_st&#45;&gt;ID_42_ct0_st</title>
<path fill="none" stroke="black" d="M262.26,-109.15C301.58,-101.59 355.91,-91.14 396.95,-83.26"/>
<polygon fill="black" stroke="black" points="397.65,-86.68 406.81,-81.36 396.33,-79.81 397.65,-86.68"/>
</g>
<!-- ID_42_ct0_st&#45;&gt;ID_42_ct0_st -->
<g id="edge3" class="edge">
<title>ID_42_ct0_st&#45;&gt;ID_42_ct0_st</title>
<path fill="none" stroke="black" d="M434.83,-97.18C433.87,-106.91 441.09,-115 456.5,-115 466.13,-115 472.56,-111.84 475.8,-107.09"/>
<polygon fill="black" stroke="black" points="479.25,-107.72 478.17,-97.18 472.44,-106.09 479.25,-107.72"/>
<text text-anchor="start" x="444.5" y="-118.8" font-family="arial" font-size="14.00" fill="#377eb8">true</text>
</g>
<!-- _ID_42_ct0_st0 -->
<!-- ID_42_ct0_st0 -->
<g id="node4" class="node">
<title>ID_42_ct0_st0</title>
<polygon fill="none" stroke="black" points="272,-50 148,-50 148,0 272,0 272,-50"/>
<text text-anchor="start" x="164.5" y="-35.8" font-family="arial" font-weight="bold" font-size="14.00">ID_42_ct0_st0</text>
<text text-anchor="start" x="156" y="-21.8" font-family="arial" font-size="14.00" fill="#984ea3">(!P &amp;&amp; (!R &amp;&amp; !T))</text>
<text text-anchor="start" x="198" y="-7.8" font-family="arial" font-size="14.00" fill="#ff7f00">true</text>
</g>
<!-- _ID_42_ct0_st0&#45;&gt;ID_42_ct0_st0 -->
<g id="edge2" class="edge">
<title>_ID_42_ct0_st0&#45;&gt;ID_42_ct0_st0</title>
<path fill="none" stroke="black" d="M111.13,-25C119.76,-25 128.79,-25 137.73,-25"/>
<polygon fill="black" stroke="black" points="137.76,-28.5 147.76,-25 137.76,-21.5 137.76,-28.5"/>
</g>
<!-- ID_42_ct0_st0&#45;&gt;ID_42_ct0_st -->
<g id="edge4" class="edge">
<title>ID_42_ct0_st0&#45;&gt;ID_42_ct0_st</title>
<path fill="none" stroke="black" d="M272.07,-36.74C310.24,-44.08 359.14,-53.48 396.85,-60.72"/>
<polygon fill="black" stroke="black" points="396.19,-64.16 406.67,-62.61 397.51,-57.29 396.19,-64.16"/>
<text text-anchor="start" x="290" y="-61.8" font-family="arial" font-size="14.00" fill="#377eb8">(P&#39; || (!R&#39; &amp;&amp; T&#39;))</text>
</g>
<!-- ID_42_ct0_st0&#45;&gt;ID_42_ct0_st0 -->
<g id="edge5" class="edge">
<title>ID_42_ct0_st0&#45;&gt;ID_42_ct0_st0</title>
<path fill="none" stroke="black" d="M195.06,-50.18C194.39,-59.91 199.38,-68 210,-68 216.64,-68 221.08,-64.84 223.31,-60.09"/>
<polygon fill="black" stroke="black" points="226.77,-60.61 224.94,-50.18 219.86,-59.47 226.77,-60.61"/>
<text text-anchor="start" x="198" y="-71.8" font-family="arial" font-size="14.00" fill="#377eb8">true</text>
</g>
</g>
</svg>
