<?xml version="1.0" encoding="UTF-8" standalone="no"?>
<!DOCTYPE svg PUBLIC "-//W3C//DTD SVG 1.1//EN"
 "http://www.w3.org/Graphics/SVG/1.1/DTD/svg11.dtd">
<!-- Generated by graphviz version 2.43.0 (0)
 -->
<!-- Title: G Pages: 1 -->
<svg width="330pt" height="192pt"
 viewBox="0.00 0.00 330.00 192.00" xmlns="http://www.w3.org/2000/svg" xmlns:xlink="http://www.w3.org/1999/xlink">
<g id="graph0" class="graph" transform="scale(1 1) rotate(0) translate(4 188)">
<title>G</title>
<polygon fill="white" stroke="transparent" points="-4,4 -4,-188 326,-188 326,4 -4,4"/>
<!-- _stinit -->
<!-- stinit -->
<g id="node2" class="node">
<title>stinit</title>
<polygon fill="none" stroke="black" points="156.5,-151 102.5,-151 102.5,-101 156.5,-101 156.5,-151"/>
<text text-anchor="start" x="113" y="-136.8" font-family="arial" font-weight="bold" font-size="14.00">stinit</text>
<text text-anchor="start" x="124.5" y="-122.8" font-family="arial" font-size="14.00" fill="#984ea3">R</text>
<text text-anchor="start" x="117.5" y="-108.8" font-family="arial" font-size="14.00" fill="#ff7f00">true</text>
</g>
<!-- _stinit&#45;&gt;stinit -->
<g id="edge1" class="edge">
<title>_stinit&#45;&gt;stinit</title>
<path fill="none" stroke="black" d="M54.14,-126C65.77,-126 79.67,-126 92.27,-126"/>
<polygon fill="black" stroke="black" points="92.49,-129.5 102.49,-126 92.49,-122.5 92.49,-129.5"/>
</g>
<!-- stinit&#45;&gt;stinit -->
<g id="edge4" class="edge">
<title>stinit&#45;&gt;stinit</title>
<path fill="none" stroke="black" d="M119.04,-151.18C118.58,-160.91 122.06,-169 129.5,-169 134.03,-169 137.1,-166 138.7,-161.45"/>
<polygon fill="black" stroke="black" points="142.21,-161.53 139.96,-151.18 135.26,-160.67 142.21,-161.53"/>
<text text-anchor="start" x="117.5" y="-172.8" font-family="arial" font-size="14.00" fill="#377eb8">true</text>
</g>
<!-- st -->
<g id="node5" class="node">
<title>st</title>
<polygon fill="none" stroke="black" points="322,-100 268,-100 268,-50 322,-50 322,-100"/>
<text text-anchor="start" x="288.5" y="-85.8" font-family="arial" font-weight="bold" font-size="14.00">st</text>
<text text-anchor="start" x="283" y="-71.8" font-family="arial" font-size="14.00" fill="#984ea3">true</text>
<text text-anchor="start" x="283" y="-57.8" font-family="arial" font-size="14.00" fill="#ff7f00">true</text>
</g>
<!-- stinit&#45;&gt;st -->
<g id="edge3" class="edge">
<title>stinit&#45;&gt;st</title>
<path fill="none" stroke="black" d="M156.77,-117.81C184.18,-109.26 227.35,-95.79 257.94,-86.25"/>
<polygon fill="black" stroke="black" points="259.29,-89.49 267.8,-83.17 257.21,-82.81 259.29,-89.49"/>
<text text-anchor="start" x="206" y="-111.8" font-family="arial" font-size="14.00" fill="#377eb8">true</text>
</g>
<!-- _st0 -->
<!-- st0 -->
<g id="node4" class="node">
<title>st0</title>
<polygon fill="none" stroke="black" points="168,-50 91,-50 91,0 168,0 168,-50"/>
<text text-anchor="start" x="119.5" y="-35.8" font-family="arial" font-weight="bold" font-size="14.00">st0</text>
<text text-anchor="start" x="99" y="-21.8" font-family="arial" font-size="14.00" fill="#984ea3">(!R &amp;&amp; !S)</text>
<text text-anchor="start" x="117.5" y="-7.8" font-family="arial" font-size="14.00" fill="#ff7f00">true</text>
</g>
<!-- _st0&#45;&gt;st0 -->
<g id="edge2" class="edge">
<title>_st0&#45;&gt;st0</title>
<path fill="none" stroke="black" d="M54.14,-25C62.26,-25 71.47,-25 80.58,-25"/>
<polygon fill="black" stroke="black" points="80.76,-28.5 90.76,-25 80.76,-21.5 80.76,-28.5"/>
</g>
<!-- st0&#45;&gt;st0 -->
<g id="edge7" class="edge">
<title>st0&#45;&gt;st0</title>
<path fill="none" stroke="black" d="M119.04,-50.18C118.58,-59.91 122.06,-68 129.5,-68 134.03,-68 137.1,-65 138.7,-60.45"/>
<polygon fill="black" stroke="black" points="142.21,-60.53 139.96,-50.18 135.26,-59.67 142.21,-60.53"/>
<text text-anchor="start" x="117.5" y="-71.8" font-family="arial" font-size="14.00" fill="#377eb8">true</text>
</g>
<!-- st0&#45;&gt;st -->
<g id="edge6" class="edge">
<title>st0&#45;&gt;st</title>
<path fill="none" stroke="black" d="M168.01,-36.47C195.1,-44.75 231.45,-55.87 258.15,-64.04"/>
<polygon fill="black" stroke="black" points="257.28,-67.43 267.87,-67.01 259.33,-60.74 257.28,-67.43"/>
<text text-anchor="start" x="186" y="-63.8" font-family="arial" font-size="14.00" fill="#377eb8">(R&#39; &amp;&amp; !S&#39;)</text>
</g>
<!-- st&#45;&gt;st -->
<g id="edge5" class="edge">
<title>st&#45;&gt;st</title>
<path fill="none" stroke="black" d="M280.81,-100.18C280.17,-109.91 284.91,-118 295,-118 301.31,-118 305.52,-114.84 307.64,-110.09"/>
<polygon fill="black" stroke="black" points="311.11,-110.6 309.19,-100.18 304.19,-109.51 311.11,-110.6"/>
<text text-anchor="start" x="283" y="-121.8" font-family="arial" font-size="14.00" fill="#377eb8">true</text>
</g>
</g>
</svg>
