<?xml version="1.0" encoding="UTF-8" standalone="no"?>
<!DOCTYPE svg PUBLIC "-//W3C//DTD SVG 1.1//EN"
 "http://www.w3.org/Graphics/SVG/1.1/DTD/svg11.dtd">
<!-- Generated by graphviz version 2.43.0 (0)
 -->
<!-- Title: G Pages: 1 -->
<svg width="692pt" height="283pt"
 viewBox="0.00 0.00 692.00 282.57" xmlns="http://www.w3.org/2000/svg" xmlns:xlink="http://www.w3.org/1999/xlink">
<g id="graph0" class="graph" transform="scale(1 1) rotate(0) translate(4 278.57)">
<title>G</title>
<polygon fill="white" stroke="transparent" points="-4,4 -4,-278.57 688,-278.57 688,4 -4,4"/>
<!-- _st0 -->
<!-- st0 -->
<g id="node2" class="node">
<title>st0</title>
<polygon fill="none" stroke="black" points="145,-193.57 91,-193.57 91,-143.57 145,-143.57 145,-193.57"/>
<text text-anchor="start" x="108" y="-179.37" font-family="arial" font-weight="bold" font-size="14.00">st0</text>
<text text-anchor="start" x="110" y="-165.37" font-family="arial" font-size="14.00" fill="#984ea3">!Q</text>
<text text-anchor="start" x="106" y="-151.37" font-family="arial" font-size="14.00" fill="#ff7f00">true</text>
</g>
<!-- _st0&#45;&gt;st0 -->
<g id="edge1" class="edge">
<title>_st0&#45;&gt;st0</title>
<path fill="none" stroke="black" d="M54.22,-168.57C62.55,-168.57 71.91,-168.57 80.82,-168.57"/>
<polygon fill="black" stroke="black" points="80.97,-172.07 90.97,-168.57 80.97,-165.07 80.97,-172.07"/>
</g>
<!-- st0&#45;&gt;st0 -->
<g id="edge4" class="edge">
<title>st0&#45;&gt;st0</title>
<path fill="none" stroke="black" d="M109.78,-193.74C109.42,-203.48 112.16,-211.57 118,-211.57 121.56,-211.57 123.97,-208.56 125.22,-204.01"/>
<polygon fill="black" stroke="black" points="128.74,-204.03 126.22,-193.74 121.77,-203.36 128.74,-204.03"/>
<text text-anchor="start" x="106" y="-215.37" font-family="arial" font-size="14.00" fill="#377eb8">true</text>
</g>
<!-- st01 -->
<g id="node4" class="node">
<title>st01</title>
<polygon fill="none" stroke="black" points="277,-95.57 205,-95.57 205,-45.57 277,-45.57 277,-95.57"/>
<text text-anchor="start" x="227" y="-81.37" font-family="arial" font-weight="bold" font-size="14.00">st01</text>
<text text-anchor="start" x="213" y="-67.37" font-family="arial" font-size="14.00" fill="#984ea3">(Q &amp;&amp; R)</text>
<text text-anchor="start" x="229" y="-53.37" font-family="arial" font-size="14.00" fill="#ff7f00">true</text>
</g>
<!-- st0&#45;&gt;st01 -->
<g id="edge5" class="edge">
<title>st0&#45;&gt;st01</title>
<path fill="none" stroke="black" d="M130.66,-143.53C138.22,-129.6 149.22,-112.85 163,-101.57 172.31,-93.94 183.75,-87.99 194.92,-83.43"/>
<polygon fill="black" stroke="black" points="196.5,-86.58 204.62,-79.78 194.03,-80.03 196.5,-86.58"/>
<text text-anchor="start" x="163" y="-105.37" font-family="arial" font-size="14.00" fill="#377eb8">true</text>
</g>
<!-- st012 -->
<g id="node6" class="node">
<title>st012</title>
<polygon fill="none" stroke="black" points="684,-158.57 562,-158.57 562,-108.57 684,-108.57 684,-158.57"/>
<text text-anchor="start" x="605.5" y="-144.37" font-family="arial" font-weight="bold" font-size="14.00">st012</text>
<text text-anchor="start" x="570" y="-130.37" font-family="arial" font-size="14.00" fill="#984ea3">(Q &amp;&amp; (!R &amp;&amp; !T))</text>
<text text-anchor="start" x="611" y="-116.37" font-family="arial" font-size="14.00" fill="#ff7f00">true</text>
</g>
<!-- st0&#45;&gt;st012 -->
<g id="edge6" class="edge">
<title>st0&#45;&gt;st012</title>
<path fill="none" stroke="black" d="M145.22,-179.28C208.21,-203.43 372.46,-257 502,-216.57 534.45,-206.44 565.85,-184.13 588.38,-165.18"/>
<polygon fill="black" stroke="black" points="590.68,-167.83 595.97,-158.65 586.11,-162.52 590.68,-167.83"/>
<text text-anchor="start" x="314.5" y="-232.37" font-family="arial" font-size="14.00" fill="#377eb8">true</text>
</g>
<!-- _st01 -->
<!-- _st01&#45;&gt;st01 -->
<g id="edge2" class="edge">
<title>_st01&#45;&gt;st01</title>
<path fill="none" stroke="black" d="M145.26,-68.22C159.65,-68.58 177.89,-69.03 194.52,-69.44"/>
<polygon fill="black" stroke="black" points="194.53,-72.94 204.61,-69.69 194.7,-65.94 194.53,-72.94"/>
</g>
<!-- st01&#45;&gt;st0 -->
<g id="edge7" class="edge">
<title>st01&#45;&gt;st0</title>
<path fill="none" stroke="black" d="M211.67,-95.72C203.77,-102.58 195.12,-109.95 187,-116.57 176.17,-125.4 164.12,-134.75 153.21,-143.06"/>
<polygon fill="black" stroke="black" points="150.98,-140.36 145.13,-149.19 155.21,-145.94 150.98,-140.36"/>
<text text-anchor="start" x="168.5" y="-138.37" font-family="arial" font-size="14.00" fill="#377eb8">R&#39;</text>
</g>
<!-- st01&#45;&gt;st01 -->
<g id="edge9" class="edge">
<title>st01&#45;&gt;st01</title>
<path fill="none" stroke="black" d="M228.67,-95.74C228.13,-105.48 232.23,-113.57 241,-113.57 246.48,-113.57 250.14,-110.41 251.98,-105.66"/>
<polygon fill="black" stroke="black" points="255.45,-106.12 253.33,-95.74 248.51,-105.18 255.45,-106.12"/>
<text text-anchor="start" x="229" y="-117.37" font-family="arial" font-size="14.00" fill="#377eb8">true</text>
</g>
<!-- st01&#45;&gt;st012 -->
<g id="edge10" class="edge">
<title>st01&#45;&gt;st012</title>
<path fill="none" stroke="black" d="M277.04,-58.69C327.92,-43.36 424.6,-21.46 502,-46.57 535.5,-57.43 567.48,-81.55 589.99,-101.64"/>
<polygon fill="black" stroke="black" points="587.8,-104.38 597.54,-108.55 592.53,-99.22 587.8,-104.38"/>
<text text-anchor="start" x="427" y="-50.37" font-family="arial" font-size="14.00" fill="#377eb8">true</text>
</g>
<!-- st02 -->
<g id="node7" class="node">
<title>st02</title>
<polygon fill="none" stroke="black" points="502,-120.57 376,-120.57 376,-70.57 502,-70.57 502,-120.57"/>
<text text-anchor="start" x="425" y="-106.37" font-family="arial" font-weight="bold" font-size="14.00">st02</text>
<text text-anchor="start" x="384" y="-92.37" font-family="arial" font-size="14.00" fill="#984ea3">(!Q &amp;&amp; (!R &amp;&amp; !T))</text>
<text text-anchor="start" x="427" y="-78.37" font-family="arial" font-size="14.00" fill="#ff7f00">true</text>
</g>
<!-- st01&#45;&gt;st02 -->
<g id="edge8" class="edge">
<title>st01&#45;&gt;st02</title>
<path fill="none" stroke="black" d="M277.23,-68.3C300.33,-67.45 331.12,-67.5 358,-71.57 360.66,-71.97 363.36,-72.44 366.08,-72.97"/>
<polygon fill="black" stroke="black" points="365.42,-76.41 375.94,-75.1 366.9,-69.56 365.42,-76.41"/>
<text text-anchor="start" x="314.5" y="-75.37" font-family="arial" font-size="14.00" fill="#377eb8">true</text>
</g>
<!-- _st012 -->
<!-- _st012&#45;&gt;st012 -->
<g id="edge3" class="edge">
<title>_st012&#45;&gt;st012</title>
<path fill="none" stroke="black" d="M467.64,-181.06C489.98,-174.19 522.42,-164.21 551.81,-155.16"/>
<polygon fill="black" stroke="black" points="553.11,-158.43 561.64,-152.14 551.05,-151.74 553.11,-158.43"/>
</g>
<!-- st012&#45;&gt;st0 -->
<g id="edge15" class="edge">
<title>st012&#45;&gt;st0</title>
<path fill="none" stroke="black" d="M604.3,-158.62C583.5,-185.36 546.15,-225.52 502,-237.57 374.5,-272.37 329.25,-267.63 205,-222.57 185.74,-215.58 180.48,-214.25 163,-203.57 159.81,-201.62 156.6,-199.47 153.43,-197.23"/>
<polygon fill="black" stroke="black" points="155.34,-194.29 145.22,-191.14 151.17,-199.91 155.34,-194.29"/>
<text text-anchor="start" x="295" y="-263.37" font-family="arial" font-size="14.00" fill="#377eb8">(R&#39; &amp;&amp; !T&#39;)</text>
</g>
<!-- st012&#45;&gt;st01 -->
<g id="edge17" class="edge">
<title>st012&#45;&gt;st01</title>
<path fill="none" stroke="black" d="M606.26,-108.42C586.25,-79.25 548.63,-33.08 502,-16.57 414.83,14.29 379.98,-1.11 295,-37.57 292.01,-38.85 289,-40.28 286,-41.82"/>
<polygon fill="black" stroke="black" points="284.22,-38.8 277.12,-46.67 287.57,-44.95 284.22,-38.8"/>
<text text-anchor="start" x="431" y="-20.37" font-family="arial" font-size="14.00" fill="#377eb8">!T&#39;</text>
</g>
<!-- st012&#45;&gt;st012 -->
<g id="edge18" class="edge">
<title>st012&#45;&gt;st012</title>
<path fill="none" stroke="black" d="M606.19,-158.74C605.44,-168.48 611.05,-176.57 623,-176.57 630.47,-176.57 635.46,-173.41 637.97,-168.66"/>
<polygon fill="black" stroke="black" points="641.43,-169.21 639.81,-158.74 634.54,-167.94 641.43,-169.21"/>
<text text-anchor="start" x="611" y="-180.37" font-family="arial" font-size="14.00" fill="#377eb8">true</text>
</g>
<!-- st012&#45;&gt;st02 -->
<g id="edge16" class="edge">
<title>st012&#45;&gt;st02</title>
<path fill="none" stroke="black" d="M561.69,-120.98C545.85,-117.67 528.6,-114.07 512.2,-110.64"/>
<polygon fill="black" stroke="black" points="512.63,-107.16 502.13,-108.54 511.2,-114.01 512.63,-107.16"/>
<text text-anchor="start" x="520" y="-121.37" font-family="arial" font-size="14.00" fill="#377eb8">true</text>
</g>
<!-- st02&#45;&gt;st0 -->
<g id="edge11" class="edge">
<title>st02&#45;&gt;st0</title>
<path fill="none" stroke="black" d="M375.91,-112.72C346.1,-120.71 309.81,-130.08 277,-137.57 235.5,-147.04 187.46,-156.21 155.35,-162.09"/>
<polygon fill="black" stroke="black" points="154.32,-158.72 145.1,-163.95 155.57,-165.61 154.32,-158.72"/>
<text text-anchor="start" x="209.5" y="-156.37" font-family="arial" font-size="14.00" fill="#377eb8">(R&#39; &amp;&amp; !T&#39;)</text>
</g>
<!-- st02&#45;&gt;st01 -->
<g id="edge13" class="edge">
<title>st02&#45;&gt;st01</title>
<path fill="none" stroke="black" d="M375.68,-94.76C350.48,-93.63 321.2,-91.28 295,-86.57 292.34,-86.09 289.63,-85.52 286.91,-84.89"/>
<polygon fill="black" stroke="black" points="287.63,-81.47 277.08,-82.39 285.9,-88.25 287.63,-81.47"/>
<text text-anchor="start" x="318.5" y="-98.37" font-family="arial" font-size="14.00" fill="#377eb8">!T&#39;</text>
</g>
<!-- st02&#45;&gt;st012 -->
<g id="edge14" class="edge">
<title>st02&#45;&gt;st012</title>
<path fill="none" stroke="black" d="M502.11,-91.79C516.03,-92.15 530.63,-93.49 544,-96.57 552,-98.41 560.14,-101.15 568,-104.33"/>
<polygon fill="black" stroke="black" points="566.85,-107.65 577.42,-108.39 569.62,-101.22 566.85,-107.65"/>
<text text-anchor="start" x="520" y="-100.37" font-family="arial" font-size="14.00" fill="#377eb8">true</text>
</g>
<!-- st02&#45;&gt;st02 -->
<g id="edge12" class="edge">
<title>st02&#45;&gt;st02</title>
<path fill="none" stroke="black" d="M421.82,-120.74C421.05,-130.48 426.78,-138.57 439,-138.57 446.64,-138.57 451.74,-135.41 454.3,-130.66"/>
<polygon fill="black" stroke="black" points="457.76,-131.22 456.18,-120.74 450.88,-129.92 457.76,-131.22"/>
<text text-anchor="start" x="427" y="-142.37" font-family="arial" font-size="14.00" fill="#377eb8">true</text>
</g>
</g>
</svg>
