<?xml version="1.0" encoding="UTF-8" standalone="no"?>
<!DOCTYPE svg PUBLIC "-//W3C//DTD SVG 1.1//EN"
 "http://www.w3.org/Graphics/SVG/1.1/DTD/svg11.dtd">
<!-- Generated by graphviz version 2.43.0 (0)
 -->
<!-- Title: G Pages: 1 -->
<svg width="1218pt" height="317pt"
 viewBox="0.00 0.00 1218.00 317.00" xmlns="http://www.w3.org/2000/svg" xmlns:xlink="http://www.w3.org/1999/xlink">
<g id="graph0" class="graph" transform="scale(1 1) rotate(0) translate(4 313)">
<title>G</title>
<polygon fill="white" stroke="transparent" points="-4,4 -4,-313 1214,-313 1214,4 -4,4"/>
<!-- _ID_44_ct2_st -->
<!-- ID_44_ct2_st -->
<g id="node2" class="node">
<title>ID_44_ct2_st</title>
<polygon fill="none" stroke="black" points="1210,-202 1111,-202 1111,-152 1210,-152 1210,-202"/>
<text text-anchor="start" x="1119" y="-187.8" font-family="arial" font-weight="bold" font-size="14.00">ID_44_ct2_st</text>
<text text-anchor="start" x="1148.5" y="-173.8" font-family="arial" font-size="14.00" fill="#984ea3">true</text>
<text text-anchor="start" x="1148.5" y="-159.8" font-family="arial" font-size="14.00" fill="#ff7f00">true</text>
</g>
<!-- _ID_44_ct2_st&#45;&gt;ID_44_ct2_st -->
<g id="edge1" class="edge">
<title>_ID_44_ct2_st&#45;&gt;ID_44_ct2_st</title>
<path fill="none" stroke="black" d="M1009.78,-286.74C1036.24,-282.66 1068.11,-274.66 1093,-259 1112.03,-247.03 1128.08,-227.72 1139.65,-210.84"/>
<polygon fill="black" stroke="black" points="1142.7,-212.56 1145.28,-202.28 1136.86,-208.71 1142.7,-212.56"/>
</g>
<!-- ID_44_ct2_st&#45;&gt;ID_44_ct2_st -->
<g id="edge4" class="edge">
<title>ID_44_ct2_st&#45;&gt;ID_44_ct2_st</title>
<path fill="none" stroke="black" d="M1142.2,-202.18C1141.38,-211.91 1147.48,-220 1160.5,-220 1168.63,-220 1174.07,-216.84 1176.8,-212.09"/>
<polygon fill="black" stroke="black" points="1180.26,-212.67 1178.8,-202.18 1173.39,-211.29 1180.26,-212.67"/>
<text text-anchor="start" x="1148.5" y="-223.8" font-family="arial" font-size="14.00" fill="#377eb8">true</text>
</g>
<!-- _ID_44_ct2_st0 -->
<!-- ID_44_ct2_st0 -->
<g id="node4" class="node">
<title>ID_44_ct2_st0</title>
<polygon fill="none" stroke="black" points="264.5,-50 157.5,-50 157.5,0 264.5,0 264.5,-50"/>
<text text-anchor="start" x="165.5" y="-35.8" font-family="arial" font-weight="bold" font-size="14.00">ID_44_ct2_st0</text>
<text text-anchor="start" x="181" y="-21.8" font-family="arial" font-size="14.00" fill="#984ea3">(!S &amp;&amp; !T)</text>
<text text-anchor="start" x="199" y="-7.8" font-family="arial" font-size="14.00" fill="#ff7f00">true</text>
</g>
<!-- _ID_44_ct2_st0&#45;&gt;ID_44_ct2_st0 -->
<g id="edge2" class="edge">
<title>_ID_44_ct2_st0&#45;&gt;ID_44_ct2_st0</title>
<path fill="none" stroke="black" d="M111.05,-25C122.71,-25 135.13,-25 147.08,-25"/>
<polygon fill="black" stroke="black" points="147.43,-28.5 157.43,-25 147.43,-21.5 147.43,-28.5"/>
</g>
<!-- ID_44_ct2_st0&#45;&gt;ID_44_ct2_st -->
<g id="edge5" class="edge">
<title>ID_44_ct2_st0&#45;&gt;ID_44_ct2_st</title>
<path fill="none" stroke="black" d="M264.85,-17.89C301.12,-13.62 350.39,-9 394,-9 394,-9 394,-9 958.5,-9 1041.35,-9 1108.06,-94.06 1139.66,-143.13"/>
<polygon fill="black" stroke="black" points="1136.85,-145.25 1145.14,-151.85 1142.78,-141.52 1136.85,-145.25"/>
<text text-anchor="start" x="654" y="-12.8" font-family="arial" font-size="14.00" fill="#377eb8">T&#39;</text>
</g>
<!-- ID_44_ct2_st0&#45;&gt;ID_44_ct2_st0 -->
<g id="edge6" class="edge">
<title>ID_44_ct2_st0&#45;&gt;ID_44_ct2_st0</title>
<path fill="none" stroke="black" d="M196.06,-50.18C195.39,-59.91 200.38,-68 211,-68 217.64,-68 222.08,-64.84 224.31,-60.09"/>
<polygon fill="black" stroke="black" points="227.77,-60.61 225.94,-50.18 220.86,-59.47 227.77,-60.61"/>
<text text-anchor="start" x="199" y="-71.8" font-family="arial" font-size="14.00" fill="#377eb8">true</text>
</g>
<!-- ID_44_ct2_st012 -->
<g id="node6" class="node">
<title>ID_44_ct2_st012</title>
<polygon fill="none" stroke="black" points="456,-159 334,-159 334,-109 456,-109 456,-159"/>
<text text-anchor="start" x="342" y="-144.8" font-family="arial" font-weight="bold" font-size="14.00">ID_44_ct2_st012</text>
<text text-anchor="start" x="367" y="-130.8" font-family="arial" font-size="14.00" fill="#984ea3">(S &amp;&amp; !T)</text>
<text text-anchor="start" x="383" y="-116.8" font-family="arial" font-size="14.00" fill="#ff7f00">true</text>
</g>
<!-- ID_44_ct2_st0&#45;&gt;ID_44_ct2_st012 -->
<g id="edge7" class="edge">
<title>ID_44_ct2_st0&#45;&gt;ID_44_ct2_st012</title>
<path fill="none" stroke="black" d="M253.75,-50.01C280.36,-65.94 315.01,-86.7 343.21,-103.58"/>
<polygon fill="black" stroke="black" points="341.75,-106.79 352.13,-108.92 345.34,-100.78 341.75,-106.79"/>
<text text-anchor="start" x="292" y="-89.8" font-family="arial" font-size="14.00" fill="#377eb8">true</text>
</g>
<!-- _ID_44_ct2_st012 -->
<!-- _ID_44_ct2_st012&#45;&gt;ID_44_ct2_st012 -->
<g id="edge3" class="edge">
<title>_ID_44_ct2_st012&#45;&gt;ID_44_ct2_st012</title>
<path fill="none" stroke="black" d="M274.13,-134C290.07,-134 307.34,-134 323.67,-134"/>
<polygon fill="black" stroke="black" points="323.69,-137.5 333.69,-134 323.69,-130.5 323.69,-137.5"/>
</g>
<!-- ID_44_ct2_st012&#45;&gt;ID_44_ct2_st -->
<g id="edge12" class="edge">
<title>ID_44_ct2_st012&#45;&gt;ID_44_ct2_st</title>
<path fill="none" stroke="black" d="M417.67,-159.19C448.4,-191.94 508.06,-245 572,-245 572,-245 572,-245 958.5,-245 1009.83,-245 1064.82,-224.86 1104.29,-206.5"/>
<polygon fill="black" stroke="black" points="1105.95,-209.59 1113.47,-202.13 1102.94,-203.26 1105.95,-209.59"/>
<text text-anchor="start" x="721" y="-248.8" font-family="arial" font-size="14.00" fill="#377eb8">(S&#39; &amp;&amp; T&#39;)</text>
</g>
<!-- ID_44_ct2_st012&#45;&gt;ID_44_ct2_st012 -->
<g id="edge15" class="edge">
<title>ID_44_ct2_st012&#45;&gt;ID_44_ct2_st012</title>
<path fill="none" stroke="black" d="M378.19,-159.18C377.44,-168.91 383.05,-177 395,-177 402.47,-177 407.46,-173.84 409.97,-169.09"/>
<polygon fill="black" stroke="black" points="413.43,-169.65 411.81,-159.18 406.54,-168.37 413.43,-169.65"/>
<text text-anchor="start" x="383" y="-180.8" font-family="arial" font-size="14.00" fill="#377eb8">true</text>
</g>
<!-- ID_44_ct2_st02 -->
<g id="node7" class="node">
<title>ID_44_ct2_st02</title>
<polygon fill="none" stroke="black" points="630,-184 516,-184 516,-134 630,-134 630,-184"/>
<text text-anchor="start" x="524" y="-169.8" font-family="arial" font-weight="bold" font-size="14.00">ID_44_ct2_st02</text>
<text text-anchor="start" x="543" y="-155.8" font-family="arial" font-size="14.00" fill="#984ea3">(!S &amp;&amp; !T)</text>
<text text-anchor="start" x="561" y="-141.8" font-family="arial" font-size="14.00" fill="#ff7f00">true</text>
</g>
<!-- ID_44_ct2_st012&#45;&gt;ID_44_ct2_st02 -->
<g id="edge14" class="edge">
<title>ID_44_ct2_st012&#45;&gt;ID_44_ct2_st02</title>
<path fill="none" stroke="black" d="M456.35,-147.07C462.3,-148.15 468.26,-149.15 474,-150 484.25,-151.52 495.14,-152.82 505.79,-153.93"/>
<polygon fill="black" stroke="black" points="505.61,-157.42 515.9,-154.93 506.29,-150.46 505.61,-157.42"/>
<text text-anchor="start" x="474" y="-155.8" font-family="arial" font-size="14.00" fill="#377eb8">true</text>
</g>
<!-- ID_44_ct2_st34 -->
<g id="node8" class="node">
<title>ID_44_ct2_st34</title>
<polygon fill="none" stroke="black" points="810,-132 690,-132 690,-82 810,-82 810,-132"/>
<text text-anchor="start" x="701" y="-117.8" font-family="arial" font-weight="bold" font-size="14.00">ID_44_ct2_st34</text>
<text text-anchor="start" x="698" y="-103.8" font-family="arial" font-size="14.00" fill="#984ea3">(!R &amp;&amp; (!S &amp;&amp; T))</text>
<text text-anchor="start" x="738" y="-89.8" font-family="arial" font-size="14.00" fill="#ff7f00">true</text>
</g>
<!-- ID_44_ct2_st012&#45;&gt;ID_44_ct2_st34 -->
<g id="edge13" class="edge">
<title>ID_44_ct2_st012&#45;&gt;ID_44_ct2_st34</title>
<path fill="none" stroke="black" d="M456.1,-119.72C475.14,-115.81 496.35,-112.07 516,-110 570.79,-104.22 633.24,-103.74 679.68,-104.56"/>
<polygon fill="black" stroke="black" points="679.86,-108.06 689.93,-104.76 680,-101.06 679.86,-108.06"/>
<text text-anchor="start" x="561" y="-113.8" font-family="arial" font-size="14.00" fill="#377eb8">true</text>
</g>
<!-- ID_44_ct2_st02&#45;&gt;ID_44_ct2_st -->
<g id="edge8" class="edge">
<title>ID_44_ct2_st02&#45;&gt;ID_44_ct2_st</title>
<path fill="none" stroke="black" d="M630.21,-167.67C649.15,-170.22 670.45,-172.68 690,-174 837.46,-183.97 1011.57,-181.32 1100.6,-178.93"/>
<polygon fill="black" stroke="black" points="1100.86,-182.42 1110.76,-178.65 1100.67,-175.42 1100.86,-182.42"/>
<text text-anchor="start" x="828" y="-183.8" font-family="arial" font-size="14.00" fill="#377eb8">(S&#39; &amp;&amp; T&#39;)</text>
</g>
<!-- ID_44_ct2_st02&#45;&gt;ID_44_ct2_st012 -->
<g id="edge11" class="edge">
<title>ID_44_ct2_st02&#45;&gt;ID_44_ct2_st012</title>
<path fill="none" stroke="black" d="M515.87,-138.85C509.9,-137.29 503.87,-135.96 498,-135 487.8,-133.34 476.95,-132.38 466.28,-131.89"/>
<polygon fill="black" stroke="black" points="466.24,-128.39 456.13,-131.56 466.01,-135.39 466.24,-128.39"/>
<text text-anchor="start" x="474" y="-138.8" font-family="arial" font-size="14.00" fill="#377eb8">true</text>
</g>
<!-- ID_44_ct2_st02&#45;&gt;ID_44_ct2_st02 -->
<g id="edge10" class="edge">
<title>ID_44_ct2_st02&#45;&gt;ID_44_ct2_st02</title>
<path fill="none" stroke="black" d="M556.94,-184.18C556.22,-193.91 561.58,-202 573,-202 580.14,-202 584.91,-198.84 587.31,-194.09"/>
<polygon fill="black" stroke="black" points="590.76,-194.63 589.06,-184.18 583.87,-193.41 590.76,-194.63"/>
<text text-anchor="start" x="561" y="-205.8" font-family="arial" font-size="14.00" fill="#377eb8">true</text>
</g>
<!-- ID_44_ct2_st02&#45;&gt;ID_44_ct2_st34 -->
<g id="edge9" class="edge">
<title>ID_44_ct2_st02&#45;&gt;ID_44_ct2_st34</title>
<path fill="none" stroke="black" d="M630.33,-142.26C646.2,-137.55 663.65,-132.36 680.16,-127.46"/>
<polygon fill="black" stroke="black" points="681.17,-130.81 689.76,-124.6 679.17,-124.1 681.17,-130.81"/>
<text text-anchor="start" x="648" y="-139.8" font-family="arial" font-size="14.00" fill="#377eb8">true</text>
</g>
<!-- ID_44_ct2_st34&#45;&gt;ID_44_ct2_st -->
<g id="edge18" class="edge">
<title>ID_44_ct2_st34&#45;&gt;ID_44_ct2_st</title>
<path fill="none" stroke="black" d="M810.4,-117.18C888.12,-130.5 1023.49,-153.69 1100.84,-166.95"/>
<polygon fill="black" stroke="black" points="1100.45,-170.43 1110.9,-168.67 1101.64,-163.53 1100.45,-170.43"/>
<text text-anchor="start" x="925.5" y="-154.8" font-family="arial" font-size="14.00" fill="#377eb8">(!R&#39; &amp;&amp; S&#39;)</text>
</g>
<!-- ID_44_ct2_st34&#45;&gt;ID_44_ct2_st34 -->
<g id="edge20" class="edge">
<title>ID_44_ct2_st34&#45;&gt;ID_44_ct2_st34</title>
<path fill="none" stroke="black" d="M733.19,-132.18C732.44,-141.91 738.05,-150 750,-150 757.47,-150 762.46,-146.84 764.97,-142.09"/>
<polygon fill="black" stroke="black" points="768.43,-142.65 766.81,-132.18 761.54,-141.37 768.43,-142.65"/>
<text text-anchor="start" x="738" y="-153.8" font-family="arial" font-size="14.00" fill="#377eb8">true</text>
</g>
<!-- ID_44_ct2_st4 -->
<g id="node9" class="node">
<title>ID_44_ct2_st4</title>
<polygon fill="none" stroke="black" points="1011,-87 904,-87 904,-37 1011,-37 1011,-87"/>
<text text-anchor="start" x="912" y="-72.8" font-family="arial" font-weight="bold" font-size="14.00">ID_44_ct2_st4</text>
<text text-anchor="start" x="927" y="-58.8" font-family="arial" font-size="14.00" fill="#984ea3">(!R &amp;&amp; !S)</text>
<text text-anchor="start" x="945.5" y="-44.8" font-family="arial" font-size="14.00" fill="#ff7f00">true</text>
</g>
<!-- ID_44_ct2_st34&#45;&gt;ID_44_ct2_st4 -->
<g id="edge19" class="edge">
<title>ID_44_ct2_st34&#45;&gt;ID_44_ct2_st4</title>
<path fill="none" stroke="black" d="M810.16,-94.04C836.34,-88.31 867.16,-81.56 893.74,-75.74"/>
<polygon fill="black" stroke="black" points="894.68,-79.12 903.7,-73.56 893.18,-72.28 894.68,-79.12"/>
<text text-anchor="start" x="831" y="-92.8" font-family="arial" font-size="14.00" fill="#377eb8">(S&#39; || !T&#39;)</text>
</g>
<!-- ID_44_ct2_st4&#45;&gt;ID_44_ct2_st -->
<g id="edge16" class="edge">
<title>ID_44_ct2_st4&#45;&gt;ID_44_ct2_st</title>
<path fill="none" stroke="black" d="M1011.16,-84.56C1036.51,-96.14 1066.98,-111.14 1093,-127 1102.16,-132.58 1111.6,-139.14 1120.39,-145.62"/>
<polygon fill="black" stroke="black" points="1118.49,-148.58 1128.59,-151.79 1122.7,-142.98 1118.49,-148.58"/>
<text text-anchor="start" x="1029" y="-130.8" font-family="arial" font-size="14.00" fill="#377eb8">(!R&#39; &amp;&amp; S&#39;)</text>
</g>
<!-- ID_44_ct2_st4&#45;&gt;ID_44_ct2_st4 -->
<g id="edge17" class="edge">
<title>ID_44_ct2_st4&#45;&gt;ID_44_ct2_st4</title>
<path fill="none" stroke="black" d="M938.82,-87.18C937.99,-96.91 944.22,-105 957.5,-105 965.8,-105 971.35,-101.84 974.13,-97.09"/>
<polygon fill="black" stroke="black" points="977.59,-97.68 976.18,-87.18 970.73,-96.26 977.59,-97.68"/>
<text text-anchor="start" x="945.5" y="-108.8" font-family="arial" font-size="14.00" fill="#377eb8">true</text>
</g>
</g>
</svg>
