<?xml version="1.0" encoding="UTF-8" standalone="no"?>
<!DOCTYPE svg PUBLIC "-//W3C//DTD SVG 1.1//EN"
 "http://www.w3.org/Graphics/SVG/1.1/DTD/svg11.dtd">
<!-- Generated by graphviz version 2.40.1 (20161225.0304)
 -->
<!-- Title: G Pages: 1 -->
<svg width="1931pt" height="487pt"
 viewBox="0.00 0.00 1931.00 487.07" xmlns="http://www.w3.org/2000/svg" xmlns:xlink="http://www.w3.org/1999/xlink">
<g id="graph0" class="graph" transform="scale(1 1) rotate(0) translate(4 483.0721)">
<title>G</title>
<polygon fill="#ffffff" stroke="transparent" points="-4,4 -4,-483.0721 1927,-483.0721 1927,4 -4,4"/>
<!-- _st0 -->
<!-- st0 -->
<g id="node2" class="node">
<title>st0</title>
<polygon fill="none" stroke="#000000" points="191,-155.0721 91,-155.0721 91,-105.0721 191,-105.0721 191,-155.0721"/>
<text text-anchor="start" x="130" y="-140.8721" font-family="arial" font-weight="bold" font-size="14.00" fill="#000000">st0</text>
<text text-anchor="start" x="99" y="-126.8721" font-family="arial" font-size="14.00" fill="#984ea3">((R || S) || !Q)</text>
<text text-anchor="start" x="128.5" y="-112.8721" font-family="arial" font-size="14.00" fill="#ff7f00">true</text>
</g>
<!-- _st0&#45;&gt;st0 -->
<g id="edge1" class="edge">
<title>_st0&#45;&gt;st0</title>
<path fill="none" stroke="#000000" d="M54.0164,-130.0721C62.1397,-130.0721 71.3988,-130.0721 80.7747,-130.0721"/>
<polygon fill="#000000" stroke="#000000" points="80.9461,-133.5722 90.9461,-130.0721 80.9461,-126.5722 80.9461,-133.5722"/>
</g>
<!-- st0&#45;&gt;st0 -->
<g id="edge4" class="edge">
<title>st0&#45;&gt;st0</title>
<path fill="none" stroke="#000000" d="M128.2998,-155.2477C127.7354,-164.9816 131.9688,-173.0721 141,-173.0721 146.6445,-173.0721 150.4149,-169.9117 152.3111,-165.1651"/>
<polygon fill="#000000" stroke="#000000" points="155.7792,-165.6366 153.7002,-155.2477 148.8468,-164.6655 155.7792,-165.6366"/>
<text text-anchor="start" x="128.5" y="-176.8721" font-family="arial" font-size="14.00" fill="#377eb8">true</text>
</g>
<!-- st012 -->
<g id="node4" class="node">
<title>st012</title>
<polygon fill="none" stroke="#000000" points="454,-222.0721 278,-222.0721 278,-172.0721 454,-172.0721 454,-222.0721"/>
<text text-anchor="start" x="347" y="-207.8721" font-family="arial" font-weight="bold" font-size="14.00" fill="#000000">st012</text>
<text text-anchor="start" x="286" y="-193.8721" font-family="arial" font-size="14.00" fill="#984ea3">(Q &amp;&amp; (!R &amp;&amp; (!S &amp;&amp; !T)))</text>
<text text-anchor="start" x="353.5" y="-179.8721" font-family="arial" font-size="14.00" fill="#ff7f00">true</text>
</g>
<!-- st0&#45;&gt;st012 -->
<g id="edge5" class="edge">
<title>st0&#45;&gt;st012</title>
<path fill="none" stroke="#000000" d="M191.0633,-141.6454C212.4233,-146.8532 237.5513,-153.339 260,-160.0721 268.9375,-162.7527 278.239,-165.7247 287.4559,-168.7852"/>
<polygon fill="#000000" stroke="#000000" points="286.4174,-172.1285 297.0114,-171.9981 288.6484,-165.4935 286.4174,-172.1285"/>
<text text-anchor="start" x="222" y="-163.8721" font-family="arial" font-size="14.00" fill="#377eb8">true</text>
</g>
<!-- st01234 -->
<g id="node6" class="node">
<title>st01234</title>
<polygon fill="none" stroke="#000000" points="1166,-179.0721 993,-179.0721 993,-129.0721 1166,-129.0721 1166,-179.0721"/>
<text text-anchor="start" x="1052" y="-164.8721" font-family="arial" font-weight="bold" font-size="14.00" fill="#000000">st01234</text>
<text text-anchor="start" x="1001" y="-150.8721" font-family="arial" font-size="14.00" fill="#984ea3">(Q &amp;&amp; (!R &amp;&amp; (!S &amp;&amp; T)))</text>
<text text-anchor="start" x="1067" y="-136.8721" font-family="arial" font-size="14.00" fill="#ff7f00">true</text>
</g>
<!-- st0&#45;&gt;st01234 -->
<g id="edge6" class="edge">
<title>st0&#45;&gt;st01234</title>
<path fill="none" stroke="#000000" d="M191.2274,-112.3032C236.3658,-97.9317 304.7765,-80.0721 366,-80.0721 366,-80.0721 366,-80.0721 844,-80.0721 906.5469,-80.0721 974.3184,-104.123 1021.029,-124.8021"/>
<polygon fill="#000000" stroke="#000000" points="1019.8201,-128.0964 1030.3747,-129.0191 1022.6992,-121.7158 1019.8201,-128.0964"/>
<text text-anchor="start" x="592.5" y="-83.8721" font-family="arial" font-size="14.00" fill="#377eb8">true</text>
</g>
<!-- _st012 -->
<!-- _st012&#45;&gt;st012 -->
<g id="edge2" class="edge">
<title>_st012&#45;&gt;st012</title>
<path fill="none" stroke="#000000" d="M171.8551,-223.7222C195.8984,-221.0441 230.105,-217.0858 260,-213.0721 262.5421,-212.7308 265.1176,-212.3799 267.7157,-212.0214"/>
<polygon fill="#000000" stroke="#000000" points="268.4075,-215.4587 277.8252,-210.6052 267.4363,-208.5264 268.4075,-215.4587"/>
</g>
<!-- st012&#45;&gt;st0 -->
<g id="edge12" class="edge">
<title>st012&#45;&gt;st0</title>
<path fill="none" stroke="#000000" d="M277.8991,-191.7092C254.958,-188.4404 230.6219,-183.2578 209,-175.0721 199.4676,-171.4633 189.9183,-166.3248 181.1155,-160.8026"/>
<polygon fill="#000000" stroke="#000000" points="182.8681,-157.7662 172.59,-155.195 179.0214,-163.6145 182.8681,-157.7662"/>
<text text-anchor="start" x="209" y="-191.8721" font-family="arial" font-size="14.00" fill="#377eb8">(R&#39; || S&#39;)</text>
</g>
<!-- st012&#45;&gt;st012 -->
<g id="edge15" class="edge">
<title>st012&#45;&gt;st012</title>
<path fill="none" stroke="#000000" d="M343.9614,-222.2477C342.9819,-231.9816 350.3281,-240.0721 366,-240.0721 375.7949,-240.0721 382.3376,-236.9117 385.6281,-232.1651"/>
<polygon fill="#000000" stroke="#000000" points="389.0777,-232.7915 388.0386,-222.2477 382.2757,-231.1382 389.0777,-232.7915"/>
<text text-anchor="start" x="353.5" y="-243.8721" font-family="arial" font-size="14.00" fill="#377eb8">true</text>
</g>
<!-- st012&#45;&gt;st01234 -->
<g id="edge16" class="edge">
<title>st012&#45;&gt;st01234</title>
<path fill="none" stroke="#000000" d="M454.1714,-175.2142C474.059,-171.1022 495.1574,-167.3745 515,-165.0721 678.1124,-146.1455 869.4746,-147.2788 982.2685,-150.3231"/>
<polygon fill="#000000" stroke="#000000" points="982.5049,-153.8311 992.5993,-150.6133 982.7015,-146.8338 982.5049,-153.8311"/>
<text text-anchor="start" x="713" y="-153.8721" font-family="arial" font-size="14.00" fill="#377eb8">true</text>
</g>
<!-- st02 -->
<g id="node7" class="node">
<title>st02</title>
<polygon fill="none" stroke="#000000" points="695,-224.0721 515,-224.0721 515,-174.0721 695,-174.0721 695,-224.0721"/>
<text text-anchor="start" x="590" y="-209.8721" font-family="arial" font-weight="bold" font-size="14.00" fill="#000000">st02</text>
<text text-anchor="start" x="523" y="-195.8721" font-family="arial" font-size="14.00" fill="#984ea3">(!Q &amp;&amp; (!R &amp;&amp; (!S &amp;&amp; !T)))</text>
<text text-anchor="start" x="592.5" y="-181.8721" font-family="arial" font-size="14.00" fill="#ff7f00">true</text>
</g>
<!-- st012&#45;&gt;st02 -->
<g id="edge13" class="edge">
<title>st012&#45;&gt;st02</title>
<path fill="none" stroke="#000000" d="M454.1522,-187.2256C460.187,-186.7669 466.1798,-186.3733 472,-186.0721 482.6434,-185.5213 493.7496,-185.5868 504.8098,-186.0651"/>
<polygon fill="#000000" stroke="#000000" points="504.7647,-189.5677 514.9397,-186.6146 505.1439,-182.578 504.7647,-189.5677"/>
<text text-anchor="start" x="472" y="-189.8721" font-family="arial" font-size="14.00" fill="#377eb8">true</text>
</g>
<!-- st0234 -->
<g id="node8" class="node">
<title>st0234</title>
<polygon fill="none" stroke="#000000" points="932,-318.0721 756,-318.0721 756,-268.0721 932,-268.0721 932,-318.0721"/>
<text text-anchor="start" x="821" y="-303.8721" font-family="arial" font-weight="bold" font-size="14.00" fill="#000000">st0234</text>
<text text-anchor="start" x="764" y="-289.8721" font-family="arial" font-size="14.00" fill="#984ea3">(!Q &amp;&amp; (!R &amp;&amp; (!S &amp;&amp; T)))</text>
<text text-anchor="start" x="831.5" y="-275.8721" font-family="arial" font-size="14.00" fill="#ff7f00">true</text>
</g>
<!-- st012&#45;&gt;st0234 -->
<g id="edge14" class="edge">
<title>st012&#45;&gt;st0234</title>
<path fill="none" stroke="#000000" d="M409.4542,-222.1693C438.3865,-237.6091 477.787,-256.2609 515,-266.0721 590.7714,-286.0492 679.4563,-292.3888 745.6452,-293.9598"/>
<polygon fill="#000000" stroke="#000000" points="745.5862,-297.4592 755.6559,-294.1652 745.7299,-290.4607 745.5862,-297.4592"/>
<text text-anchor="start" x="592.5" y="-294.8721" font-family="arial" font-size="14.00" fill="#377eb8">true</text>
</g>
<!-- _st01234 -->
<!-- _st01234&#45;&gt;st01234 -->
<g id="edge3" class="edge">
<title>_st01234&#45;&gt;st01234</title>
<path fill="none" stroke="#000000" d="M882.6035,-38.7369C909.5953,-43.1148 945.878,-51.2887 975,-66.0721 1002.6328,-80.0995 1029.2799,-102.731 1048.7496,-121.53"/>
<polygon fill="#000000" stroke="#000000" points="1046.5304,-124.257 1056.1091,-128.7846 1051.4445,-119.2719 1046.5304,-124.257"/>
</g>
<!-- st01234&#45;&gt;st01234 -->
<g id="edge39" class="edge">
<title>st01234&#45;&gt;st01234</title>
<path fill="none" stroke="#000000" d="M1057.835,-179.2477C1056.8721,-188.9816 1064.0938,-197.0721 1079.5,-197.0721 1089.1289,-197.0721 1095.5607,-193.9117 1098.7954,-189.1651"/>
<polygon fill="#000000" stroke="#000000" points="1102.2452,-189.7874 1101.165,-179.2477 1095.4368,-188.1605 1102.2452,-189.7874"/>
<text text-anchor="start" x="1067" y="-200.8721" font-family="arial" font-size="14.00" fill="#377eb8">true</text>
</g>
<!-- st01234&#45;&gt;st0234 -->
<g id="edge37" class="edge">
<title>st01234&#45;&gt;st0234</title>
<path fill="none" stroke="#000000" d="M1023.9867,-179.1508C1000.6926,-190.2741 973.5902,-204.015 950,-218.0721 927.7323,-231.3411 904.0833,-247.8211 884.7862,-261.9506"/>
<polygon fill="#000000" stroke="#000000" points="882.4897,-259.2954 876.5238,-268.0509 886.6476,-264.9269 882.4897,-259.2954"/>
<text text-anchor="start" x="950" y="-221.8721" font-family="arial" font-size="14.00" fill="#377eb8">true</text>
</g>
<!-- st04 -->
<g id="node9" class="node">
<title>st04</title>
<polygon fill="none" stroke="#000000" points="1923,-302.0721 1757,-302.0721 1757,-252.0721 1923,-252.0721 1923,-302.0721"/>
<text text-anchor="start" x="1825" y="-287.8721" font-family="arial" font-weight="bold" font-size="14.00" fill="#000000">st04</text>
<text text-anchor="start" x="1765" y="-273.8721" font-family="arial" font-size="14.00" fill="#984ea3">((!R &amp;&amp; S) || (!Q &amp;&amp; !R))</text>
<text text-anchor="start" x="1827.5" y="-259.8721" font-family="arial" font-size="14.00" fill="#ff7f00">true</text>
</g>
<!-- st01234&#45;&gt;st04 -->
<g id="edge35" class="edge">
<title>st01234&#45;&gt;st04</title>
<path fill="none" stroke="#000000" d="M1166.2804,-133.9571C1172.2596,-132.8845 1178.2082,-131.9069 1184,-131.0721 1202.9616,-128.3391 1207.8541,-128.7392 1227,-128.0721 1306.9515,-125.2865 1327.2498,-121.7551 1407,-128.0721 1548.5563,-139.2848 1703.3692,-207.3859 1784.0286,-247.5327"/>
<polygon fill="#000000" stroke="#000000" points="1782.5114,-250.6873 1793.0189,-252.045 1785.6515,-244.431 1782.5114,-250.6873"/>
<text text-anchor="start" x="1425" y="-139.8721" font-family="arial" font-size="14.00" fill="#377eb8">(R&#39; || S&#39;)</text>
</g>
<!-- st0124 -->
<g id="node10" class="node">
<title>st0124</title>
<polygon fill="none" stroke="#000000" points="1670,-302.0721 1494,-302.0721 1494,-252.0721 1670,-252.0721 1670,-302.0721"/>
<text text-anchor="start" x="1559" y="-287.8721" font-family="arial" font-weight="bold" font-size="14.00" fill="#000000">st0124</text>
<text text-anchor="start" x="1502" y="-273.8721" font-family="arial" font-size="14.00" fill="#984ea3">(Q &amp;&amp; (!R &amp;&amp; (!S &amp;&amp; !T)))</text>
<text text-anchor="start" x="1569.5" y="-259.8721" font-family="arial" font-size="14.00" fill="#ff7f00">true</text>
</g>
<!-- st01234&#45;&gt;st0124 -->
<g id="edge38" class="edge">
<title>st01234&#45;&gt;st0124</title>
<path fill="none" stroke="#000000" d="M1166.1688,-175.2866C1254.6132,-196.9356 1391.6412,-230.4768 1483.9862,-253.0807"/>
<polygon fill="#000000" stroke="#000000" points="1483.3527,-256.5289 1493.8981,-255.5069 1485.0171,-249.7296 1483.3527,-256.5289"/>
<text text-anchor="start" x="1304.5" y="-236.8721" font-family="arial" font-size="14.00" fill="#377eb8">true</text>
</g>
<!-- st024 -->
<g id="node11" class="node">
<title>st024</title>
<polygon fill="none" stroke="#000000" points="1407,-352.0721 1227,-352.0721 1227,-302.0721 1407,-302.0721 1407,-352.0721"/>
<text text-anchor="start" x="1298" y="-337.8721" font-family="arial" font-weight="bold" font-size="14.00" fill="#000000">st024</text>
<text text-anchor="start" x="1235" y="-323.8721" font-family="arial" font-size="14.00" fill="#984ea3">(!Q &amp;&amp; (!R &amp;&amp; (!S &amp;&amp; !T)))</text>
<text text-anchor="start" x="1304.5" y="-309.8721" font-family="arial" font-size="14.00" fill="#ff7f00">true</text>
</g>
<!-- st01234&#45;&gt;st024 -->
<g id="edge36" class="edge">
<title>st01234&#45;&gt;st024</title>
<path fill="none" stroke="#000000" d="M1162.3189,-179.1819C1178.5307,-185.9561 1194.8697,-194.2098 1209,-204.0721 1243.695,-228.2878 1274.5641,-265.9405 1294.322,-293.2098"/>
<polygon fill="#000000" stroke="#000000" points="1291.6895,-295.5473 1300.3373,-301.6684 1297.3942,-291.4905 1291.6895,-295.5473"/>
<text text-anchor="start" x="1184" y="-207.8721" font-family="arial" font-size="14.00" fill="#377eb8">true</text>
</g>
<!-- st02&#45;&gt;st0 -->
<g id="edge7" class="edge">
<title>st02&#45;&gt;st0</title>
<path fill="none" stroke="#000000" d="M543.2016,-174.0172C516.2532,-164.192 484.0161,-153.894 454,-148.0721 367.3194,-131.2595 264.8116,-128.5265 201.3403,-128.7803"/>
<polygon fill="#000000" stroke="#000000" points="201.0888,-125.2818 191.1124,-128.8486 201.1356,-132.2817 201.0888,-125.2818"/>
<text text-anchor="start" x="340.5" y="-151.8721" font-family="arial" font-size="14.00" fill="#377eb8">(R&#39; || S&#39;)</text>
</g>
<!-- st02&#45;&gt;st012 -->
<g id="edge10" class="edge">
<title>st02&#45;&gt;st012</title>
<path fill="none" stroke="#000000" d="M514.8637,-205.1562C500.5266,-205.5422 485.8584,-205.5943 472,-205.0721 469.4585,-204.9763 466.8834,-204.8677 464.2857,-204.7478"/>
<polygon fill="#000000" stroke="#000000" points="464.3425,-201.2463 454.1775,-204.2335 463.9867,-208.2372 464.3425,-201.2463"/>
<text text-anchor="start" x="472" y="-208.8721" font-family="arial" font-size="14.00" fill="#377eb8">true</text>
</g>
<!-- st02&#45;&gt;st01234 -->
<g id="edge11" class="edge">
<title>st02&#45;&gt;st01234</title>
<path fill="none" stroke="#000000" d="M695.087,-190.5285C777.3507,-182.7269 898.627,-171.2255 982.8794,-163.2353"/>
<polygon fill="#000000" stroke="#000000" points="983.3406,-166.7073 992.9654,-162.2787 982.6796,-159.7386 983.3406,-166.7073"/>
<text text-anchor="start" x="831.5" y="-187.8721" font-family="arial" font-size="14.00" fill="#377eb8">true</text>
</g>
<!-- st02&#45;&gt;st02 -->
<g id="edge8" class="edge">
<title>st02&#45;&gt;st02</title>
<path fill="none" stroke="#000000" d="M582.5879,-224.2477C581.5918,-233.9816 589.0625,-242.0721 605,-242.0721 614.9609,-242.0721 621.6145,-238.9117 624.9608,-234.1651"/>
<polygon fill="#000000" stroke="#000000" points="628.4102,-234.7954 627.4121,-224.2477 621.6147,-233.1157 628.4102,-234.7954"/>
<text text-anchor="start" x="592.5" y="-245.8721" font-family="arial" font-size="14.00" fill="#377eb8">true</text>
</g>
<!-- st02&#45;&gt;st0234 -->
<g id="edge9" class="edge">
<title>st02&#45;&gt;st0234</title>
<path fill="none" stroke="#000000" d="M668.7337,-224.1389C700.0723,-236.4646 738.0069,-251.3844 770.5583,-264.1871"/>
<polygon fill="#000000" stroke="#000000" points="769.4419,-267.5089 780.0291,-267.912 772.004,-260.9947 769.4419,-267.5089"/>
<text text-anchor="start" x="713" y="-251.8721" font-family="arial" font-size="14.00" fill="#377eb8">true</text>
</g>
<!-- st0234&#45;&gt;st01234 -->
<g id="edge34" class="edge">
<title>st0234&#45;&gt;st01234</title>
<path fill="none" stroke="#000000" d="M912.0026,-268.0589C932.795,-259.3484 955.3484,-248.7878 975,-237.0721 999.6618,-222.3694 1024.9351,-202.4513 1044.4487,-185.8127"/>
<polygon fill="#000000" stroke="#000000" points="1046.8893,-188.3296 1052.1697,-179.1443 1042.3138,-183.0319 1046.8893,-188.3296"/>
<text text-anchor="start" x="950" y="-253.8721" font-family="arial" font-size="14.00" fill="#377eb8">true</text>
</g>
<!-- st0234&#45;&gt;st0234 -->
<g id="edge32" class="edge">
<title>st0234&#45;&gt;st0234</title>
<path fill="none" stroke="#000000" d="M821.9614,-318.2477C820.9819,-327.9816 828.3281,-336.0721 844,-336.0721 853.7949,-336.0721 860.3376,-332.9117 863.6281,-328.1651"/>
<polygon fill="#000000" stroke="#000000" points="867.0777,-328.7915 866.0386,-318.2477 860.2757,-327.1382 867.0777,-328.7915"/>
<text text-anchor="start" x="831.5" y="-339.8721" font-family="arial" font-size="14.00" fill="#377eb8">true</text>
</g>
<!-- st0234&#45;&gt;st04 -->
<g id="edge30" class="edge">
<title>st0234&#45;&gt;st04</title>
<path fill="none" stroke="#000000" d="M861.5004,-318.3037C896.7776,-365.8703 981.4779,-464.0721 1079.5,-464.0721 1079.5,-464.0721 1079.5,-464.0721 1582,-464.0721 1685.446,-464.0721 1775.4261,-364.2959 1816.4178,-310.5073"/>
<polygon fill="#000000" stroke="#000000" points="1819.3776,-312.394 1822.5707,-302.2918 1813.7747,-308.1978 1819.3776,-312.394"/>
<text text-anchor="start" x="1291.5" y="-467.8721" font-family="arial" font-size="14.00" fill="#377eb8">(R&#39; || S&#39;)</text>
</g>
<!-- st0234&#45;&gt;st0124 -->
<g id="edge33" class="edge">
<title>st0234&#45;&gt;st0124</title>
<path fill="none" stroke="#000000" d="M886.7909,-318.1073C915.7713,-333.8047 955.4779,-352.9265 993,-363.0721 1171.1187,-411.2338 1230.4021,-447.5417 1407,-394.0721 1421.6013,-389.6512 1491.6044,-341.2228 1538.5265,-308.075"/>
<polygon fill="#000000" stroke="#000000" points="1540.5709,-310.9161 1546.7117,-302.2824 1536.5271,-305.2022 1540.5709,-310.9161"/>
<text text-anchor="start" x="1184" y="-420.8721" font-family="arial" font-size="14.00" fill="#377eb8">true</text>
</g>
<!-- st0234&#45;&gt;st024 -->
<g id="edge31" class="edge">
<title>st0234&#45;&gt;st024</title>
<path fill="none" stroke="#000000" d="M913.5654,-318.1098C938.3013,-325.8057 966.5721,-333.2515 993,-337.0721 1067.4136,-347.8297 1152.4025,-344.6352 1216.6608,-339.1214"/>
<polygon fill="#000000" stroke="#000000" points="1217.1414,-342.5926 1226.7911,-338.2184 1216.5198,-335.6202 1217.1414,-342.5926"/>
<text text-anchor="start" x="1067" y="-347.8721" font-family="arial" font-size="14.00" fill="#377eb8">true</text>
</g>
<!-- st04&#45;&gt;st01234 -->
<g id="edge19" class="edge">
<title>st04&#45;&gt;st01234</title>
<path fill="none" stroke="#000000" d="M1834.9292,-251.8012C1824.898,-209.1079 1798.1586,-123.5067 1739,-84.0721 1533.7538,52.7432 1416.3251,-1.1896 1184,-84.0721 1159.6346,-92.7645 1135.4411,-108.4026 1116.4784,-122.6964"/>
<polygon fill="#000000" stroke="#000000" points="1114.1903,-120.0413 1108.42,-128.9269 1118.472,-125.5791 1114.1903,-120.0413"/>
<text text-anchor="start" x="1438" y="-11.8721" font-family="arial" font-size="14.00" fill="#377eb8">true</text>
</g>
<!-- st04&#45;&gt;st04 -->
<g id="edge17" class="edge">
<title>st04&#45;&gt;st04</title>
<path fill="none" stroke="#000000" d="M1816.4673,-302.2477C1815.4214,-311.9816 1823.2656,-320.0721 1840,-320.0721 1850.459,-320.0721 1857.4453,-316.9117 1860.9588,-312.1651"/>
<polygon fill="#000000" stroke="#000000" points="1864.4083,-312.8063 1863.5327,-302.2477 1857.6328,-311.0478 1864.4083,-312.8063"/>
<text text-anchor="start" x="1827.5" y="-323.8721" font-family="arial" font-size="14.00" fill="#377eb8">true</text>
</g>
<!-- st04&#45;&gt;st0124 -->
<g id="edge18" class="edge">
<title>st04&#45;&gt;st0124</title>
<path fill="none" stroke="#000000" d="M1756.9301,-261.0706C1750.8785,-260.273 1744.8548,-259.5897 1739,-259.0721 1720.0331,-257.3952 1699.8112,-257.9505 1680.4087,-259.6508"/>
<polygon fill="#000000" stroke="#000000" points="1679.9582,-256.1781 1670.3481,-260.6387 1680.6423,-263.1446 1679.9582,-256.1781"/>
<text text-anchor="start" x="1701" y="-262.8721" font-family="arial" font-size="14.00" fill="#377eb8">true</text>
</g>
<!-- st0124&#45;&gt;st01234 -->
<g id="edge29" class="edge">
<title>st0124&#45;&gt;st01234</title>
<path fill="none" stroke="#000000" d="M1559.8642,-251.8412C1539.8432,-230.3863 1508.5834,-200.1126 1476,-181.0721 1384.9824,-127.8848 1261.3725,-128.5677 1176.4958,-137.7636"/>
<polygon fill="#000000" stroke="#000000" points="1175.8797,-134.3111 1166.3418,-138.9242 1176.6746,-141.2658 1175.8797,-134.3111"/>
<text text-anchor="start" x="1304.5" y="-154.8721" font-family="arial" font-size="14.00" fill="#377eb8">true</text>
</g>
<!-- st0124&#45;&gt;st0234 -->
<g id="edge27" class="edge">
<title>st0124&#45;&gt;st0234</title>
<path fill="none" stroke="#000000" d="M1493.8984,-278.9822C1355.3041,-281.9869 1087.266,-287.798 942.4941,-290.9367"/>
<polygon fill="#000000" stroke="#000000" points="942.2088,-287.442 932.287,-291.158 942.3606,-294.4403 942.2088,-287.442"/>
<text text-anchor="start" x="1184" y="-288.8721" font-family="arial" font-size="14.00" fill="#377eb8">true</text>
</g>
<!-- st0124&#45;&gt;st04 -->
<g id="edge25" class="edge">
<title>st0124&#45;&gt;st04</title>
<path fill="none" stroke="#000000" d="M1670.0674,-277.0721C1694.7011,-277.0721 1721.5565,-277.0721 1746.4931,-277.0721"/>
<polygon fill="#000000" stroke="#000000" points="1746.6801,-280.5722 1756.6801,-277.0721 1746.6801,-273.5722 1746.6801,-280.5722"/>
<text text-anchor="start" x="1688" y="-280.8721" font-family="arial" font-size="14.00" fill="#377eb8">(R&#39; || S&#39;)</text>
</g>
<!-- st0124&#45;&gt;st0124 -->
<g id="edge28" class="edge">
<title>st0124&#45;&gt;st0124</title>
<path fill="none" stroke="#000000" d="M1557.7202,-302.2477C1556.6411,-311.9816 1564.7344,-320.0721 1582,-320.0721 1592.791,-320.0721 1599.9991,-316.9117 1603.6242,-312.1651"/>
<polygon fill="#000000" stroke="#000000" points="1607.074,-312.8128 1606.2798,-302.2477 1600.3122,-311.0021 1607.074,-312.8128"/>
<text text-anchor="start" x="1569.5" y="-323.8721" font-family="arial" font-size="14.00" fill="#377eb8">true</text>
</g>
<!-- st0124&#45;&gt;st024 -->
<g id="edge26" class="edge">
<title>st0124&#45;&gt;st024</title>
<path fill="none" stroke="#000000" d="M1493.8704,-291.598C1471.382,-295.4775 1447.2704,-299.7875 1425,-304.0721 1422.3556,-304.5808 1419.6763,-305.103 1416.9738,-305.6356"/>
<polygon fill="#000000" stroke="#000000" points="1416.2302,-302.2149 1407.1084,-307.6041 1417.6,-309.0796 1416.2302,-302.2149"/>
<text text-anchor="start" x="1438" y="-307.8721" font-family="arial" font-size="14.00" fill="#377eb8">true</text>
</g>
<!-- st024&#45;&gt;st01234 -->
<g id="edge24" class="edge">
<title>st024&#45;&gt;st01234</title>
<path fill="none" stroke="#000000" d="M1286.7881,-301.935C1265.4106,-284.417 1235.8806,-260.7544 1209,-241.0721 1182.4141,-221.6056 1151.851,-200.9933 1127.0948,-184.7204"/>
<polygon fill="#000000" stroke="#000000" points="1128.8796,-181.7055 1118.5965,-179.1544 1125.0443,-187.5614 1128.8796,-181.7055"/>
<text text-anchor="start" x="1184" y="-244.8721" font-family="arial" font-size="14.00" fill="#377eb8">true</text>
</g>
<!-- st024&#45;&gt;st0234 -->
<g id="edge22" class="edge">
<title>st024&#45;&gt;st0234</title>
<path fill="none" stroke="#000000" d="M1226.8309,-321.9004C1152.508,-317.4634 1044.3593,-310.6068 950,-303.0721 947.4607,-302.8693 944.8876,-302.6594 942.2917,-302.4437"/>
<polygon fill="#000000" stroke="#000000" points="942.4496,-298.9446 932.1893,-301.5859 941.8573,-305.9195 942.4496,-298.9446"/>
<text text-anchor="start" x="1067" y="-321.8721" font-family="arial" font-size="14.00" fill="#377eb8">true</text>
</g>
<!-- st024&#45;&gt;st04 -->
<g id="edge20" class="edge">
<title>st024&#45;&gt;st04</title>
<path fill="none" stroke="#000000" d="M1407.2677,-345.9487C1413.2508,-346.79 1419.201,-347.5135 1425,-348.0721 1484.3882,-353.7924 1590.4408,-360.0356 1670,-344.0721 1708.2171,-336.4038 1748.9108,-320.662 1780.8997,-306.3632"/>
<polygon fill="#000000" stroke="#000000" points="1782.4508,-309.5029 1790.1076,-302.1801 1779.5554,-303.1297 1782.4508,-309.5029"/>
<text text-anchor="start" x="1556.5" y="-357.8721" font-family="arial" font-size="14.00" fill="#377eb8">(R&#39; || S&#39;)</text>
</g>
<!-- st024&#45;&gt;st0124 -->
<g id="edge23" class="edge">
<title>st024&#45;&gt;st0124</title>
<path fill="none" stroke="#000000" d="M1407.2841,-330.793C1429.9264,-330.0918 1454.0247,-327.9238 1476,-323.0721 1492.6278,-319.401 1509.8827,-313.1071 1525.5207,-306.3333"/>
<polygon fill="#000000" stroke="#000000" points="1527.3342,-309.3561 1535.0286,-302.0728 1524.4717,-302.9681 1527.3342,-309.3561"/>
<text text-anchor="start" x="1438" y="-332.8721" font-family="arial" font-size="14.00" fill="#377eb8">true</text>
</g>
<!-- st024&#45;&gt;st024 -->
<g id="edge21" class="edge">
<title>st024&#45;&gt;st024</title>
<path fill="none" stroke="#000000" d="M1294.5879,-352.2477C1293.5918,-361.9816 1301.0625,-370.0721 1317,-370.0721 1326.9609,-370.0721 1333.6145,-366.9117 1336.9608,-362.1651"/>
<polygon fill="#000000" stroke="#000000" points="1340.4102,-362.7954 1339.4121,-352.2477 1333.6147,-361.1157 1340.4102,-362.7954"/>
<text text-anchor="start" x="1304.5" y="-373.8721" font-family="arial" font-size="14.00" fill="#377eb8">true</text>
</g>
</g>
</svg>
