<?xml version="1.0" encoding="UTF-8" standalone="no"?>
<!DOCTYPE svg PUBLIC "-//W3C//DTD SVG 1.1//EN"
 "http://www.w3.org/Graphics/SVG/1.1/DTD/svg11.dtd">
<!-- Generated by graphviz version 2.43.0 (0)
 -->
<!-- Title: G Pages: 1 -->
<svg width="2818pt" height="1189pt"
 viewBox="0.00 0.00 2818.00 1189.07" xmlns="http://www.w3.org/2000/svg" xmlns:xlink="http://www.w3.org/1999/xlink">
<g id="graph0" class="graph" transform="scale(1 1) rotate(0) translate(4 1185.07)">
<title>G</title>
<polygon fill="white" stroke="transparent" points="-4,4 -4,-1185.07 2814,-1185.07 2814,4 -4,4"/>
<!-- _st0 -->
<!-- st0 -->
<g id="node2" class="node">
<title>st0</title>
<polygon fill="none" stroke="black" points="156,-416.07 91,-416.07 91,-366.07 156,-366.07 156,-416.07"/>
<text text-anchor="start" x="113.5" y="-401.87" font-family="arial" font-weight="bold" font-size="14.00">st0</text>
<text text-anchor="start" x="99" y="-387.87" font-family="arial" font-size="14.00" fill="#984ea3">(R || !Q)</text>
<text text-anchor="start" x="111.5" y="-373.87" font-family="arial" font-size="14.00" fill="#ff7f00">true</text>
</g>
<!-- _st0&#45;&gt;st0 -->
<g id="edge1" class="edge">
<title>_st0&#45;&gt;st0</title>
<path fill="none" stroke="black" d="M54.07,-391.07C62.33,-391.07 71.67,-391.07 80.74,-391.07"/>
<polygon fill="black" stroke="black" points="80.79,-394.57 90.79,-391.07 80.79,-387.57 80.79,-394.57"/>
</g>
<!-- st0&#45;&gt;st0 -->
<g id="edge5" class="edge">
<title>st0&#45;&gt;st0</title>
<path fill="none" stroke="black" d="M114.16,-416.24C113.75,-425.98 116.86,-434.07 123.5,-434.07 127.55,-434.07 130.28,-431.06 131.71,-426.51"/>
<polygon fill="black" stroke="black" points="135.23,-426.57 132.84,-416.24 128.27,-425.8 135.23,-426.57"/>
<text text-anchor="start" x="111.5" y="-437.87" font-family="arial" font-size="14.00" fill="#377eb8">true</text>
</g>
<!-- st01 -->
<g id="node4" class="node">
<title>st01</title>
<polygon fill="none" stroke="black" points="360,-512.07 241,-512.07 241,-462.07 360,-462.07 360,-512.07"/>
<text text-anchor="start" x="286.5" y="-497.87" font-family="arial" font-weight="bold" font-size="14.00">st01</text>
<text text-anchor="start" x="249" y="-483.87" font-family="arial" font-size="14.00" fill="#984ea3">(Q &amp;&amp; (!R &amp;&amp; S))</text>
<text text-anchor="start" x="288.5" y="-469.87" font-family="arial" font-size="14.00" fill="#ff7f00">true</text>
</g>
<!-- st0&#45;&gt;st01 -->
<g id="edge6" class="edge">
<title>st0&#45;&gt;st01</title>
<path fill="none" stroke="black" d="M156.12,-415.41C161.94,-419.5 168.05,-423.55 174,-427.07 194.71,-439.31 201.28,-439.72 223,-450.07 227.99,-452.45 233.17,-454.92 238.36,-457.42"/>
<polygon fill="black" stroke="black" points="237.16,-460.73 247.69,-461.91 240.2,-454.42 237.16,-460.73"/>
<text text-anchor="start" x="186.5" y="-453.87" font-family="arial" font-size="14.00" fill="#377eb8">true</text>
</g>
<!-- st012 -->
<g id="node6" class="node">
<title>st012</title>
<polygon fill="none" stroke="black" points="667,-524.07 496,-524.07 496,-474.07 667,-474.07 667,-524.07"/>
<text text-anchor="start" x="564" y="-509.87" font-family="arial" font-weight="bold" font-size="14.00">st012</text>
<text text-anchor="start" x="504" y="-495.87" font-family="arial" font-size="14.00" fill="#984ea3">(Q &amp;&amp; (!R &amp;&amp; (!S &amp;&amp; !U)))</text>
<text text-anchor="start" x="569.5" y="-481.87" font-family="arial" font-size="14.00" fill="#ff7f00">true</text>
</g>
<!-- st0&#45;&gt;st012 -->
<g id="edge7" class="edge">
<title>st0&#45;&gt;st012</title>
<path fill="none" stroke="black" d="M156.24,-379.99C225.01,-358.22 388.74,-318.85 478,-402.07 498.35,-421.04 479.59,-441.89 494.82,-465.99"/>
<polygon fill="black" stroke="black" points="492.12,-468.22 501.05,-473.92 497.63,-463.9 492.12,-468.22"/>
<text text-anchor="start" x="288.5" y="-361.87" font-family="arial" font-size="14.00" fill="#377eb8">true</text>
</g>
<!-- st01234 -->
<g id="node8" class="node">
<title>st01234</title>
<polygon fill="none" stroke="black" points="1360,-408.07 1193,-408.07 1193,-358.07 1360,-358.07 1360,-408.07"/>
<text text-anchor="start" x="1251.5" y="-393.87" font-family="arial" font-weight="bold" font-size="14.00">st01234</text>
<text text-anchor="start" x="1201" y="-379.87" font-family="arial" font-size="14.00" fill="#984ea3">(Q &amp;&amp; (!R &amp;&amp; (!S &amp;&amp; U)))</text>
<text text-anchor="start" x="1264.5" y="-365.87" font-family="arial" font-size="14.00" fill="#ff7f00">true</text>
</g>
<!-- st0&#45;&gt;st01234 -->
<g id="edge8" class="edge">
<title>st0&#45;&gt;st01234</title>
<path fill="none" stroke="black" d="M128.27,-365.78C139.95,-297.95 182.1,-117.07 299.5,-117.07 299.5,-117.07 299.5,-117.07 1048.5,-117.07 1168.82,-117.07 1238.89,-276.48 1264.4,-348.49"/>
<polygon fill="black" stroke="black" points="1261.13,-349.74 1267.71,-358.04 1267.75,-347.45 1261.13,-349.74"/>
<text text-anchor="start" x="685" y="-120.87" font-family="arial" font-size="14.00" fill="#377eb8">true</text>
</g>
<!-- _st01 -->
<!-- _st01&#45;&gt;st01 -->
<g id="edge2" class="edge">
<title>_st01&#45;&gt;st01</title>
<path fill="none" stroke="black" d="M150.91,-513.79C170.79,-511.2 198.67,-507.34 223,-503.07 225.51,-502.63 228.07,-502.16 230.65,-501.69"/>
<polygon fill="black" stroke="black" points="231.52,-505.08 240.68,-499.77 230.21,-498.21 231.52,-505.08"/>
</g>
<!-- st01&#45;&gt;st0 -->
<g id="edge9" class="edge">
<title>st01&#45;&gt;st0</title>
<path fill="none" stroke="black" d="M240.97,-486.44C218.54,-483.84 193.65,-477.87 174,-465.07 159.34,-455.52 147.97,-439.94 139.84,-425.54"/>
<polygon fill="black" stroke="black" points="142.73,-423.53 134.96,-416.32 136.54,-426.8 142.73,-423.53"/>
<text text-anchor="start" x="174" y="-486.87" font-family="arial" font-size="14.00" fill="#377eb8">(R&#39; || S&#39;)</text>
</g>
<!-- st01&#45;&gt;st01 -->
<g id="edge12" class="edge">
<title>st01&#45;&gt;st01</title>
<path fill="none" stroke="black" d="M281.45,-512.24C280.6,-521.98 286.95,-530.07 300.5,-530.07 308.97,-530.07 314.62,-526.91 317.47,-522.16"/>
<polygon fill="black" stroke="black" points="320.92,-522.75 319.55,-512.24 314.07,-521.31 320.92,-522.75"/>
<text text-anchor="start" x="288.5" y="-533.87" font-family="arial" font-size="14.00" fill="#377eb8">true</text>
</g>
<!-- st01&#45;&gt;st012 -->
<g id="edge13" class="edge">
<title>st01&#45;&gt;st012</title>
<path fill="none" stroke="black" d="M360.37,-482.83C366.32,-482.52 372.28,-482.25 378,-482.07 422.42,-480.62 433.71,-478.42 478,-482.07 480.56,-482.28 483.14,-482.52 485.75,-482.78"/>
<polygon fill="black" stroke="black" points="485.57,-486.28 495.9,-483.92 486.35,-479.33 485.57,-486.28"/>
<text text-anchor="start" x="416" y="-485.87" font-family="arial" font-size="14.00" fill="#377eb8">true</text>
</g>
<!-- st01&#45;&gt;st01234 -->
<g id="edge14" class="edge">
<title>st01&#45;&gt;st01234</title>
<path fill="none" stroke="black" d="M352.32,-461.9C354.95,-460.32 357.52,-458.7 360,-457.07 368.69,-451.32 368.77,-446.89 378,-442.07 520.57,-367.55 567.57,-367.59 727,-346.07 905.87,-321.92 953.67,-334.61 1133,-355.07 1149.18,-356.91 1166.27,-359.61 1182.78,-362.61"/>
<polygon fill="black" stroke="black" points="1182.49,-366.12 1192.96,-364.51 1183.78,-359.24 1182.49,-366.12"/>
<text text-anchor="start" x="802.5" y="-349.87" font-family="arial" font-size="14.00" fill="#377eb8">true</text>
</g>
<!-- st02 -->
<g id="node9" class="node">
<title>st02</title>
<polygon fill="none" stroke="black" points="902,-544.07 727,-544.07 727,-494.07 902,-494.07 902,-544.07"/>
<text text-anchor="start" x="800.5" y="-529.87" font-family="arial" font-weight="bold" font-size="14.00">st02</text>
<text text-anchor="start" x="735" y="-515.87" font-family="arial" font-size="14.00" fill="#984ea3">(!Q &amp;&amp; (!R &amp;&amp; (!S &amp;&amp; !U)))</text>
<text text-anchor="start" x="802.5" y="-501.87" font-family="arial" font-size="14.00" fill="#ff7f00">true</text>
</g>
<!-- st01&#45;&gt;st02 -->
<g id="edge10" class="edge">
<title>st01&#45;&gt;st02</title>
<path fill="none" stroke="black" d="M360.11,-469.75C432.87,-450.84 560.41,-426.22 667,-450.07 701.02,-457.68 736.45,-474.1 763.94,-489.02"/>
<polygon fill="black" stroke="black" points="762.5,-492.22 772.95,-494 765.89,-486.1 762.5,-492.22"/>
<text text-anchor="start" x="569.5" y="-453.87" font-family="arial" font-size="14.00" fill="#377eb8">true</text>
</g>
<!-- st0234 -->
<g id="node10" class="node">
<title>st0234</title>
<polygon fill="none" stroke="black" points="1133,-776.07 962,-776.07 962,-726.07 1133,-726.07 1133,-776.07"/>
<text text-anchor="start" x="1026" y="-761.87" font-family="arial" font-weight="bold" font-size="14.00">st0234</text>
<text text-anchor="start" x="970" y="-747.87" font-family="arial" font-size="14.00" fill="#984ea3">(!Q &amp;&amp; (!R &amp;&amp; (!S &amp;&amp; U)))</text>
<text text-anchor="start" x="1035.5" y="-733.87" font-family="arial" font-size="14.00" fill="#ff7f00">true</text>
</g>
<!-- st01&#45;&gt;st0234 -->
<g id="edge11" class="edge">
<title>st01&#45;&gt;st0234</title>
<path fill="none" stroke="black" d="M315.73,-512.17C384.2,-632.91 676.84,-1148.35 685,-1153.07 859.91,-1254.19 996.26,-901.04 1035.23,-786.06"/>
<polygon fill="black" stroke="black" points="1038.64,-786.92 1038.5,-776.32 1032,-784.69 1038.64,-786.92"/>
<text text-anchor="start" x="685" y="-1167.87" font-family="arial" font-size="14.00" fill="#377eb8">true</text>
</g>
<!-- _st012 -->
<!-- _st012&#45;&gt;st012 -->
<g id="edge3" class="edge">
<title>_st012&#45;&gt;st012</title>
<path fill="none" stroke="black" d="M329.02,-606.33C371.3,-588.3 453.52,-553.23 512.45,-528.09"/>
<polygon fill="black" stroke="black" points="513.87,-531.29 521.7,-524.15 511.12,-524.85 513.87,-531.29"/>
</g>
<!-- st012&#45;&gt;st0 -->
<g id="edge23" class="edge">
<title>st012&#45;&gt;st0</title>
<path fill="none" stroke="black" d="M495.8,-474.08C454.94,-462.43 405.11,-448.8 360,-438.07 292.55,-422.03 213.35,-407 166.14,-398.43"/>
<polygon fill="black" stroke="black" points="166.74,-394.98 156.28,-396.65 165.49,-401.87 166.74,-394.98"/>
<text text-anchor="start" x="250.5" y="-441.87" font-family="arial" font-size="14.00" fill="#377eb8">(R&#39; || (S&#39; &amp;&amp; !U&#39;))</text>
</g>
<!-- st012&#45;&gt;st01 -->
<g id="edge27" class="edge">
<title>st012&#45;&gt;st01</title>
<path fill="none" stroke="black" d="M495.68,-500.5C459.39,-500.52 416.58,-499.77 378,-497.07 375.49,-496.89 372.93,-496.69 370.35,-496.46"/>
<polygon fill="black" stroke="black" points="370.61,-492.97 360.32,-495.48 369.93,-499.94 370.61,-492.97"/>
<text text-anchor="start" x="401" y="-503.87" font-family="arial" font-size="14.00" fill="#377eb8">(R&#39; || !U&#39;)</text>
</g>
<!-- st012&#45;&gt;st012 -->
<g id="edge29" class="edge">
<title>st012&#45;&gt;st012</title>
<path fill="none" stroke="black" d="M560.21,-524.24C559.26,-533.98 566.36,-542.07 581.5,-542.07 590.96,-542.07 597.28,-538.91 600.46,-534.16"/>
<polygon fill="black" stroke="black" points="603.91,-534.78 602.79,-524.24 597.1,-533.18 603.91,-534.78"/>
<text text-anchor="start" x="569.5" y="-545.87" font-family="arial" font-size="14.00" fill="#377eb8">true</text>
</g>
<!-- st012&#45;&gt;st01234 -->
<g id="edge30" class="edge">
<title>st012&#45;&gt;st01234</title>
<path fill="none" stroke="black" d="M658.34,-473.95C661.31,-472.4 664.21,-470.77 667,-469.07 676.39,-463.33 675.5,-457.62 685,-452.07 860.04,-349.76 930.61,-354.04 1133,-366.07 1149.07,-367.02 1166.1,-368.58 1182.58,-370.37"/>
<polygon fill="black" stroke="black" points="1182.43,-373.88 1192.76,-371.51 1183.21,-366.92 1182.43,-373.88"/>
<text text-anchor="start" x="920" y="-365.87" font-family="arial" font-size="14.00" fill="#377eb8">true</text>
</g>
<!-- st012&#45;&gt;st02 -->
<g id="edge25" class="edge">
<title>st012&#45;&gt;st02</title>
<path fill="none" stroke="black" d="M667.14,-513.12C673.17,-513.86 679.17,-514.52 685,-515.07 695.19,-516.02 705.85,-516.76 716.49,-517.33"/>
<polygon fill="black" stroke="black" points="716.5,-520.83 726.66,-517.83 716.85,-513.84 716.5,-520.83"/>
<text text-anchor="start" x="685" y="-519.87" font-family="arial" font-size="14.00" fill="#377eb8">true</text>
</g>
<!-- st012&#45;&gt;st0234 -->
<g id="edge26" class="edge">
<title>st012&#45;&gt;st0234</title>
<path fill="none" stroke="black" d="M622.57,-524.16C651.35,-541.93 691.21,-566.08 727,-586.07 816.09,-635.82 921.67,-689.31 986.36,-721.48"/>
<polygon fill="black" stroke="black" points="985.09,-724.76 995.6,-726.07 988.2,-718.49 985.09,-724.76"/>
<text text-anchor="start" x="802.5" y="-680.87" font-family="arial" font-size="14.00" fill="#377eb8">true</text>
</g>
<!-- st034 -->
<g id="node11" class="node">
<title>st034</title>
<polygon fill="none" stroke="black" points="2136,-490.07 2012,-490.07 2012,-440.07 2136,-440.07 2136,-490.07"/>
<text text-anchor="start" x="2056.5" y="-475.87" font-family="arial" font-weight="bold" font-size="14.00">st034</text>
<text text-anchor="start" x="2020" y="-461.87" font-family="arial" font-size="14.00" fill="#984ea3">(!Q &amp;&amp; (!R &amp;&amp; U))</text>
<text text-anchor="start" x="2062" y="-447.87" font-family="arial" font-size="14.00" fill="#ff7f00">true</text>
</g>
<!-- st012&#45;&gt;st034 -->
<g id="edge24" class="edge">
<title>st012&#45;&gt;st034</title>
<path fill="none" stroke="black" d="M667.23,-489.78C686.83,-487.93 707.63,-486.21 727,-485.07 831.29,-478.92 857.54,-481.18 962,-480.07 1038,-479.26 1057.12,-475.75 1133,-480.07 1242.42,-486.3 1268.58,-501.84 1378,-508.07 1492.74,-514.6 1779.31,-480.44 1894,-473.07 1929.29,-470.8 1968.55,-468.97 2001.28,-467.63"/>
<polygon fill="black" stroke="black" points="2001.81,-471.11 2011.66,-467.22 2001.53,-464.12 2001.81,-471.11"/>
<text text-anchor="start" x="1252" y="-509.87" font-family="arial" font-size="14.00" fill="#377eb8">(R&#39; || S&#39;)</text>
</g>
<!-- st0134 -->
<g id="node12" class="node">
<title>st0134</title>
<polygon fill="none" stroke="black" points="2436,-539.07 2272,-539.07 2272,-489.07 2436,-489.07 2436,-539.07"/>
<text text-anchor="start" x="2332.5" y="-524.87" font-family="arial" font-weight="bold" font-size="14.00">st0134</text>
<text text-anchor="start" x="2280" y="-510.87" font-family="arial" font-size="14.00" fill="#984ea3">(Q &amp;&amp; (!R &amp;&amp; (S &amp;&amp; U)))</text>
<text text-anchor="start" x="2342" y="-496.87" font-family="arial" font-size="14.00" fill="#ff7f00">true</text>
</g>
<!-- st012&#45;&gt;st0134 -->
<g id="edge28" class="edge">
<title>st012&#45;&gt;st0134</title>
<path fill="none" stroke="black" d="M627.5,-524.1C642.01,-534.18 656.93,-547.01 667,-562.07 814.07,-782.01 548.92,-1139.07 813.5,-1139.07 813.5,-1139.07 813.5,-1139.07 1403.5,-1139.07 1567.61,-1139.07 2009.23,-1149.29 2136,-1045.07 2229.05,-968.57 2222.13,-917.24 2254,-801.07 2278.9,-710.3 2230.96,-674.77 2272,-590.07 2280.23,-573.08 2294.01,-557.98 2307.89,-545.79"/>
<polygon fill="black" stroke="black" points="2310.17,-548.45 2315.57,-539.33 2305.66,-543.09 2310.17,-548.45"/>
<text text-anchor="start" x="1390.5" y="-1142.87" font-family="arial" font-size="14.00" fill="#377eb8">true</text>
</g>
<!-- _st01234 -->
<!-- _st01234&#45;&gt;st01234 -->
<g id="edge4" class="edge">
<title>_st01234&#45;&gt;st01234</title>
<path fill="none" stroke="black" d="M1083.97,-391.51C1110.41,-390.34 1147.81,-388.69 1182.55,-387.16"/>
<polygon fill="black" stroke="black" points="1182.91,-390.65 1192.74,-386.71 1182.6,-383.66 1182.91,-390.65"/>
</g>
<!-- st01234&#45;&gt;st01234 -->
<g id="edge86" class="edge">
<title>st01234&#45;&gt;st01234</title>
<path fill="none" stroke="black" d="M1255.58,-408.24C1254.65,-417.98 1261.62,-426.07 1276.5,-426.07 1285.8,-426.07 1292.01,-422.91 1295.13,-418.16"/>
<polygon fill="black" stroke="black" points="1298.58,-418.77 1297.42,-408.24 1291.76,-417.2 1298.58,-418.77"/>
<text text-anchor="start" x="1264.5" y="-429.87" font-family="arial" font-size="14.00" fill="#377eb8">true</text>
</g>
<!-- st01234&#45;&gt;st0234 -->
<g id="edge82" class="edge">
<title>st01234&#45;&gt;st0234</title>
<path fill="none" stroke="black" d="M1251.49,-408.2C1234.11,-427.11 1210.66,-454.11 1193,-480.07 1138.37,-560.38 1088.32,-663.61 1064,-716.48"/>
<polygon fill="black" stroke="black" points="1060.73,-715.2 1059.76,-725.75 1067.1,-718.11 1060.73,-715.2"/>
<text text-anchor="start" x="1151" y="-547.87" font-family="arial" font-size="14.00" fill="#377eb8">true</text>
</g>
<!-- st01234&#45;&gt;st034 -->
<g id="edge80" class="edge">
<title>st01234&#45;&gt;st034</title>
<path fill="none" stroke="black" d="M1360.03,-391.43C1366.11,-392 1372.15,-392.55 1378,-393.07 1651.52,-417.11 1724.44,-387.86 1994,-440.07 1996.62,-440.58 1999.28,-441.14 2001.96,-441.76"/>
<polygon fill="black" stroke="black" points="2001.13,-445.16 2011.68,-444.16 2002.82,-438.36 2001.13,-445.16"/>
<text text-anchor="start" x="1638" y="-408.87" font-family="arial" font-size="14.00" fill="#377eb8">(R&#39; || S&#39;)</text>
</g>
<!-- st01234&#45;&gt;st0134 -->
<g id="edge84" class="edge">
<title>st01234&#45;&gt;st0134</title>
<path fill="none" stroke="black" d="M1320.4,-358.04C1369.66,-331.72 1453.7,-294.07 1531.5,-294.07 1531.5,-294.07 1531.5,-294.07 2075,-294.07 2159.49,-294.07 2195.39,-297.22 2254,-358.07 2272.43,-377.2 2259.36,-391.7 2272,-415.07 2285.03,-439.17 2304.32,-463.03 2320.8,-481.29"/>
<polygon fill="black" stroke="black" points="2318.32,-483.77 2327.67,-488.76 2323.47,-479.03 2318.32,-483.77"/>
<text text-anchor="start" x="1778.5" y="-297.87" font-family="arial" font-size="14.00" fill="#377eb8">true</text>
</g>
<!-- st04 -->
<g id="node13" class="node">
<title>st04</title>
<polygon fill="none" stroke="black" points="2810,-580.07 2730,-580.07 2730,-530.07 2810,-530.07 2810,-580.07"/>
<text text-anchor="start" x="2756" y="-565.87" font-family="arial" font-weight="bold" font-size="14.00">st04</text>
<text text-anchor="start" x="2738" y="-551.87" font-family="arial" font-size="14.00" fill="#984ea3">(!Q &amp;&amp; !R)</text>
<text text-anchor="start" x="2758" y="-537.87" font-family="arial" font-size="14.00" fill="#ff7f00">true</text>
</g>
<!-- st01234&#45;&gt;st04 -->
<g id="edge79" class="edge">
<title>st01234&#45;&gt;st04</title>
<path fill="none" stroke="black" d="M1295.2,-358.05C1313.68,-333.29 1344.58,-295.52 1378,-270.07 1404.41,-249.96 1413.25,-246.74 1445,-237.07 1768.34,-138.56 1864.99,-175.07 2203,-175.07 2203,-175.07 2203,-175.07 2586.5,-175.07 2738.54,-175.07 2764,-425.31 2768.2,-519.65"/>
<polygon fill="black" stroke="black" points="2764.71,-519.98 2768.59,-529.84 2771.7,-519.71 2764.71,-519.98"/>
<text text-anchor="start" x="2024" y="-178.87" font-family="arial" font-size="14.00" fill="#377eb8">(R&#39; || (S&#39; &amp;&amp; !U&#39;))</text>
</g>
<!-- st014 -->
<g id="node14" class="node">
<title>st014</title>
<polygon fill="none" stroke="black" points="2645,-770.07 2526,-770.07 2526,-720.07 2645,-720.07 2645,-770.07"/>
<text text-anchor="start" x="2568" y="-755.87" font-family="arial" font-weight="bold" font-size="14.00">st014</text>
<text text-anchor="start" x="2534" y="-741.87" font-family="arial" font-size="14.00" fill="#984ea3">(Q &amp;&amp; (!R &amp;&amp; S))</text>
<text text-anchor="start" x="2573.5" y="-727.87" font-family="arial" font-size="14.00" fill="#ff7f00">true</text>
</g>
<!-- st01234&#45;&gt;st014 -->
<g id="edge83" class="edge">
<title>st01234&#45;&gt;st014</title>
<path fill="none" stroke="black" d="M1298.55,-357.83C1317.36,-336.84 1346.7,-307.64 1378,-290.07 1404.99,-274.92 1414.48,-276.25 1445,-271.07 1799.49,-210.88 1910.89,-159.54 2254,-267.07 2395.41,-311.38 2450.42,-346.52 2508,-483.07 2521.82,-515.85 2516.6,-526.75 2526,-561.07 2540.37,-613.52 2560.02,-673.39 2572.49,-710.21"/>
<polygon fill="black" stroke="black" points="2569.27,-711.62 2575.8,-719.96 2575.9,-709.37 2569.27,-711.62"/>
<text text-anchor="start" x="1917" y="-212.87" font-family="arial" font-size="14.00" fill="#377eb8">(R&#39; || !U&#39;)</text>
</g>
<!-- st0124 -->
<g id="node15" class="node">
<title>st0124</title>
<polygon fill="none" stroke="black" points="1876,-797.07 1705,-797.07 1705,-747.07 1876,-747.07 1876,-797.07"/>
<text text-anchor="start" x="1769" y="-782.87" font-family="arial" font-weight="bold" font-size="14.00">st0124</text>
<text text-anchor="start" x="1713" y="-768.87" font-family="arial" font-size="14.00" fill="#984ea3">(Q &amp;&amp; (!R &amp;&amp; (!S &amp;&amp; !U)))</text>
<text text-anchor="start" x="1778.5" y="-754.87" font-family="arial" font-size="14.00" fill="#ff7f00">true</text>
</g>
<!-- st01234&#45;&gt;st0124 -->
<g id="edge85" class="edge">
<title>st01234&#45;&gt;st0124</title>
<path fill="none" stroke="black" d="M1317.41,-408.12C1335.78,-419.53 1357.91,-433.13 1378,-445.07 1399.57,-457.88 1413.05,-452.22 1427,-473.07 1461.89,-525.2 1407.88,-562.49 1445,-613.07 1462.33,-636.68 1621.81,-704.21 1717.6,-743.25"/>
<polygon fill="black" stroke="black" points="1716.36,-746.53 1726.95,-747.05 1719,-740.04 1716.36,-746.53"/>
<text text-anchor="start" x="1520.5" y="-703.87" font-family="arial" font-size="14.00" fill="#377eb8">true</text>
</g>
<!-- st024 -->
<g id="node16" class="node">
<title>st024</title>
<polygon fill="none" stroke="black" points="1620,-782.07 1445,-782.07 1445,-732.07 1620,-732.07 1620,-782.07"/>
<text text-anchor="start" x="1515" y="-767.87" font-family="arial" font-weight="bold" font-size="14.00">st024</text>
<text text-anchor="start" x="1453" y="-753.87" font-family="arial" font-size="14.00" fill="#984ea3">(!Q &amp;&amp; (!R &amp;&amp; (!S &amp;&amp; !U)))</text>
<text text-anchor="start" x="1520.5" y="-739.87" font-family="arial" font-size="14.00" fill="#ff7f00">true</text>
</g>
<!-- st01234&#45;&gt;st024 -->
<g id="edge81" class="edge">
<title>st01234&#45;&gt;st024</title>
<path fill="none" stroke="black" d="M1305.52,-408.36C1323.87,-426.52 1346.81,-452.56 1360,-480.07 1378.39,-518.43 1360.87,-535.13 1378,-574.07 1398.09,-619.71 1413.08,-625.75 1445,-664.07 1462.13,-684.64 1482.47,-706.61 1499.12,-724.03"/>
<polygon fill="black" stroke="black" points="1497.03,-726.91 1506.48,-731.7 1502.08,-722.06 1497.03,-726.91"/>
<text text-anchor="start" x="1390.5" y="-645.87" font-family="arial" font-size="14.00" fill="#377eb8">true</text>
</g>
<!-- st02&#45;&gt;st0 -->
<g id="edge15" class="edge">
<title>st02&#45;&gt;st0</title>
<path fill="none" stroke="black" d="M781.65,-494.04C724.71,-451.16 599.96,-365.52 478,-337.07 346.08,-306.29 300.02,-309.38 174,-359.07 171,-360.25 167.99,-361.63 165.02,-363.13"/>
<polygon fill="black" stroke="black" points="163.32,-360.07 156.26,-367.96 166.7,-366.2 163.32,-360.07"/>
<text text-anchor="start" x="378" y="-340.87" font-family="arial" font-size="14.00" fill="#377eb8">(R&#39; || (S&#39; &amp;&amp; !U&#39;))</text>
</g>
<!-- st02&#45;&gt;st01 -->
<g id="edge19" class="edge">
<title>st02&#45;&gt;st01</title>
<path fill="none" stroke="black" d="M750,-544.18C724.62,-552.96 694.84,-561.71 667,-566.07 591.91,-577.82 570.64,-580.39 496,-566.07 447.33,-556.73 395.49,-535.03 357.58,-516.72"/>
<polygon fill="black" stroke="black" points="358.77,-513.41 348.25,-512.15 355.69,-519.7 358.77,-513.41"/>
<text text-anchor="start" x="554.5" y="-578.87" font-family="arial" font-size="14.00" fill="#377eb8">(R&#39; || !U&#39;)</text>
</g>
<!-- st02&#45;&gt;st012 -->
<g id="edge21" class="edge">
<title>st02&#45;&gt;st012</title>
<path fill="none" stroke="black" d="M726.98,-502.15C720.91,-501.33 714.87,-500.62 709,-500.07 698.81,-499.11 688.14,-498.47 677.49,-498.05"/>
<polygon fill="black" stroke="black" points="677.43,-494.55 667.32,-497.73 677.2,-501.55 677.43,-494.55"/>
<text text-anchor="start" x="685" y="-503.87" font-family="arial" font-size="14.00" fill="#377eb8">true</text>
</g>
<!-- st02&#45;&gt;st01234 -->
<g id="edge22" class="edge">
<title>st02&#45;&gt;st01234</title>
<path fill="none" stroke="black" d="M900.14,-494.04C980.39,-470.32 1100.64,-434.77 1183.29,-410.33"/>
<polygon fill="black" stroke="black" points="1184.33,-413.67 1192.92,-407.48 1182.34,-406.96 1184.33,-413.67"/>
<text text-anchor="start" x="1035.5" y="-478.87" font-family="arial" font-size="14.00" fill="#377eb8">true</text>
</g>
<!-- st02&#45;&gt;st02 -->
<g id="edge17" class="edge">
<title>st02&#45;&gt;st02</title>
<path fill="none" stroke="black" d="M792.83,-544.24C791.87,-553.98 799.09,-562.07 814.5,-562.07 824.13,-562.07 830.56,-558.91 833.8,-554.16"/>
<polygon fill="black" stroke="black" points="837.25,-554.78 836.17,-544.24 830.44,-553.16 837.25,-554.78"/>
<text text-anchor="start" x="802.5" y="-565.87" font-family="arial" font-size="14.00" fill="#377eb8">true</text>
</g>
<!-- st02&#45;&gt;st0234 -->
<g id="edge18" class="edge">
<title>st02&#45;&gt;st0234</title>
<path fill="none" stroke="black" d="M840.66,-544.34C882.84,-586.7 967.75,-671.98 1014.25,-718.68"/>
<polygon fill="black" stroke="black" points="1011.83,-721.21 1021.37,-725.83 1016.79,-716.27 1011.83,-721.21"/>
<text text-anchor="start" x="920" y="-644.87" font-family="arial" font-size="14.00" fill="#377eb8">true</text>
</g>
<!-- st02&#45;&gt;st034 -->
<g id="edge16" class="edge">
<title>st02&#45;&gt;st034</title>
<path fill="none" stroke="black" d="M902.32,-526.33C970.01,-531.61 1066.41,-538.3 1151,-541.07 1359.47,-547.9 1412.23,-542.41 1620,-524.07 1755.6,-512.1 1913,-489.66 2002.01,-476.17"/>
<polygon fill="black" stroke="black" points="2002.64,-479.61 2011.99,-474.65 2001.58,-472.69 2002.64,-479.61"/>
<text text-anchor="start" x="1378" y="-545.87" font-family="arial" font-size="14.00" fill="#377eb8">(R&#39; || S&#39;)</text>
</g>
<!-- st02&#45;&gt;st0134 -->
<g id="edge20" class="edge">
<title>st02&#45;&gt;st0134</title>
<path fill="none" stroke="black" d="M826.22,-494.06C842.19,-459.33 875.21,-396.35 920,-357.07 1098,-200.93 1164.72,-129.07 1401.5,-129.07 1401.5,-129.07 1401.5,-129.07 1945,-129.07 2030.56,-129.07 2060.97,-111.96 2136,-153.07 2263.71,-223.04 2324.04,-402.59 2344.54,-478.9"/>
<polygon fill="black" stroke="black" points="2341.25,-480.17 2347.17,-488.96 2348.03,-478.4 2341.25,-480.17"/>
<text text-anchor="start" x="1520.5" y="-132.87" font-family="arial" font-size="14.00" fill="#377eb8">true</text>
</g>
<!-- st0234&#45;&gt;st01234 -->
<g id="edge78" class="edge">
<title>st0234&#45;&gt;st01234</title>
<path fill="none" stroke="black" d="M1058.1,-725.95C1082.88,-661.18 1147.32,-493.21 1151,-488.07 1171.85,-458.91 1202.59,-432.88 1228.3,-414.03"/>
<polygon fill="black" stroke="black" points="1230.38,-416.85 1236.45,-408.17 1226.29,-411.17 1230.38,-416.85"/>
<text text-anchor="start" x="1151" y="-491.87" font-family="arial" font-size="14.00" fill="#377eb8">true</text>
</g>
<!-- st0234&#45;&gt;st0234 -->
<g id="edge74" class="edge">
<title>st0234&#45;&gt;st0234</title>
<path fill="none" stroke="black" d="M1026.21,-776.24C1025.26,-785.98 1032.36,-794.07 1047.5,-794.07 1056.96,-794.07 1063.28,-790.91 1066.46,-786.16"/>
<polygon fill="black" stroke="black" points="1069.91,-786.78 1068.79,-776.24 1063.1,-785.18 1069.91,-786.78"/>
<text text-anchor="start" x="1035.5" y="-797.87" font-family="arial" font-size="14.00" fill="#377eb8">true</text>
</g>
<!-- st0234&#45;&gt;st034 -->
<g id="edge72" class="edge">
<title>st0234&#45;&gt;st034</title>
<path fill="none" stroke="black" d="M1075.75,-726.04C1095.38,-709.2 1123.21,-687.66 1151,-674.07 1272.64,-614.56 1312.92,-623.93 1445,-594.07 1468.73,-588.7 1852.16,-520.95 1876,-516.07 1928.71,-505.27 1942.01,-502.9 1994,-489.07 1996.64,-488.37 1999.32,-487.64 2002.02,-486.89"/>
<polygon fill="black" stroke="black" points="2003.21,-490.19 2011.88,-484.1 2001.3,-483.45 2003.21,-490.19"/>
<text text-anchor="start" x="1508" y="-597.87" font-family="arial" font-size="14.00" fill="#377eb8">(R&#39; || S&#39;)</text>
</g>
<!-- st0234&#45;&gt;st0134 -->
<g id="edge76" class="edge">
<title>st0234&#45;&gt;st0134</title>
<path fill="none" stroke="black" d="M1055.9,-776.35C1077.46,-844.19 1147.01,-1025.07 1275.5,-1025.07 1275.5,-1025.07 1275.5,-1025.07 1663.5,-1025.07 1835.45,-1025.07 1852.47,-921.22 2012,-857.07 2012.82,-856.74 2253.45,-778.76 2254,-778.07 2280.24,-745.31 2253.51,-627.74 2272,-590.07 2280.32,-573.13 2294.11,-558.03 2307.99,-545.84"/>
<polygon fill="black" stroke="black" points="2310.27,-548.5 2315.67,-539.38 2305.76,-543.14 2310.27,-548.5"/>
<text text-anchor="start" x="1650.5" y="-1028.87" font-family="arial" font-size="14.00" fill="#377eb8">true</text>
</g>
<!-- st0234&#45;&gt;st04 -->
<g id="edge71" class="edge">
<title>st0234&#45;&gt;st04</title>
<path fill="none" stroke="black" d="M1056.94,-725.69C1074.05,-674.49 1114.33,-555.23 1151,-456.07 1214.67,-283.92 1237.11,-228.71 1378,-111.07 1614.99,86.82 1728.54,-40.07 2203,-40.07 2203,-40.07 2203,-40.07 2586.5,-40.07 2648.91,-40.07 2675.97,-52.11 2712,-103.07 2759.38,-170.07 2767.4,-425.42 2768.74,-519.76"/>
<polygon fill="black" stroke="black" points="2765.24,-519.98 2768.87,-529.93 2772.24,-519.89 2765.24,-519.98"/>
<text text-anchor="start" x="1894" y="-35.87" font-family="arial" font-size="14.00" fill="#377eb8">(R&#39; || (S&#39; &amp;&amp; !U&#39;))</text>
</g>
<!-- st0234&#45;&gt;st014 -->
<g id="edge75" class="edge">
<title>st0234&#45;&gt;st014</title>
<path fill="none" stroke="black" d="M1051.71,-776.29C1060.85,-835.56 1093.15,-982.05 1193,-1027.07 1408.42,-1124.19 2020.5,-1134.37 2254,-1098.07 2378.91,-1078.65 2440.46,-1076.93 2508,-970.07 2509.32,-967.98 2551.61,-842.69 2572.74,-780.01"/>
<polygon fill="black" stroke="black" points="2576.18,-780.75 2576.06,-770.15 2569.55,-778.51 2576.18,-780.75"/>
<text text-anchor="start" x="1763.5" y="-1120.87" font-family="arial" font-size="14.00" fill="#377eb8">(R&#39; || !U&#39;)</text>
</g>
<!-- st0234&#45;&gt;st0124 -->
<g id="edge77" class="edge">
<title>st0234&#45;&gt;st0124</title>
<path fill="none" stroke="black" d="M1092.02,-776.1C1120,-791.11 1157.63,-809.31 1193,-820.07 1374.79,-875.35 1431.17,-862.18 1620,-841.07 1650.15,-837.7 1658.46,-838.35 1687,-828.07 1705.51,-821.4 1724.71,-811.74 1741.43,-802.32"/>
<polygon fill="black" stroke="black" points="1743.52,-805.15 1750.44,-797.12 1740.02,-799.09 1743.52,-805.15"/>
<text text-anchor="start" x="1390.5" y="-862.87" font-family="arial" font-size="14.00" fill="#377eb8">true</text>
</g>
<!-- st0234&#45;&gt;st024 -->
<g id="edge73" class="edge">
<title>st0234&#45;&gt;st024</title>
<path fill="none" stroke="black" d="M1133.12,-750.27C1195.77,-749.87 1283.22,-749.73 1360,-751.07 1384.11,-751.49 1410.12,-752.24 1434.41,-753.08"/>
<polygon fill="black" stroke="black" points="1434.59,-756.59 1444.71,-753.44 1434.84,-749.59 1434.59,-756.59"/>
<text text-anchor="start" x="1264.5" y="-754.87" font-family="arial" font-size="14.00" fill="#377eb8">true</text>
</g>
<!-- st034&#45;&gt;st01234 -->
<g id="edge62" class="edge">
<title>st034&#45;&gt;st01234</title>
<path fill="none" stroke="black" d="M2043.45,-439.97C2029.38,-429.47 2011.77,-418.28 1994,-412.07 1881.56,-372.79 1536.93,-376.03 1370.02,-380.17"/>
<polygon fill="black" stroke="black" points="1369.92,-376.67 1360.01,-380.42 1370.1,-383.67 1369.92,-376.67"/>
<text text-anchor="start" x="1650.5" y="-382.87" font-family="arial" font-size="14.00" fill="#377eb8">true</text>
</g>
<!-- st034&#45;&gt;st034 -->
<g id="edge58" class="edge">
<title>st034&#45;&gt;st034</title>
<path fill="none" stroke="black" d="M2049.72,-490.24C2048.64,-499.98 2056.73,-508.07 2074,-508.07 2084.79,-508.07 2092,-504.91 2095.62,-500.16"/>
<polygon fill="black" stroke="black" points="2099.07,-500.81 2098.28,-490.24 2092.31,-499 2099.07,-500.81"/>
<text text-anchor="start" x="2062" y="-511.87" font-family="arial" font-size="14.00" fill="#377eb8">true</text>
</g>
<!-- st034&#45;&gt;st0134 -->
<g id="edge60" class="edge">
<title>st034&#45;&gt;st0134</title>
<path fill="none" stroke="black" d="M2136.37,-485.71C2142.29,-487.33 2148.24,-488.82 2154,-490.07 2188.67,-497.58 2227.29,-502.91 2261.22,-506.61"/>
<polygon fill="black" stroke="black" points="2261.27,-510.14 2271.58,-507.71 2262.01,-503.18 2261.27,-510.14"/>
<text text-anchor="start" x="2192" y="-508.87" font-family="arial" font-size="14.00" fill="#377eb8">true</text>
</g>
<!-- st034&#45;&gt;st04 -->
<g id="edge57" class="edge">
<title>st034&#45;&gt;st04</title>
<path fill="none" stroke="black" d="M2136.2,-458.26C2142.21,-457.77 2148.22,-457.36 2154,-457.07 2198.39,-454.83 2209.64,-454.28 2254,-457.07 2427.57,-467.99 2628.96,-517.21 2719.93,-541.47"/>
<polygon fill="black" stroke="black" points="2719.13,-544.87 2729.69,-544.09 2720.94,-538.11 2719.13,-544.87"/>
<text text-anchor="start" x="2454" y="-494.87" font-family="arial" font-size="14.00" fill="#377eb8">(R&#39; || !U&#39;)</text>
</g>
<!-- st034&#45;&gt;st014 -->
<g id="edge59" class="edge">
<title>st034&#45;&gt;st014</title>
<path fill="none" stroke="black" d="M2106.05,-490.14C2120.27,-501.13 2137.59,-513.83 2154,-524.07 2278.47,-601.74 2433.46,-676.28 2519.4,-715.82"/>
<polygon fill="black" stroke="black" points="2517.97,-719.02 2528.52,-720 2520.89,-712.65 2517.97,-719.02"/>
<text text-anchor="start" x="2327" y="-677.87" font-family="arial" font-size="14.00" fill="#377eb8">(R&#39; || !U&#39;)</text>
</g>
<!-- st034&#45;&gt;st0124 -->
<g id="edge61" class="edge">
<title>st034&#45;&gt;st0124</title>
<path fill="none" stroke="black" d="M2052.39,-490.33C2037.75,-506.62 2016.72,-526.97 1994,-539.07 1953.75,-560.51 1928.87,-532.68 1894,-562.07 1878.16,-575.42 1884.68,-586.26 1876,-605.07 1854.47,-651.72 1827.29,-704.46 1809.67,-737.96"/>
<polygon fill="black" stroke="black" points="1806.53,-736.4 1804.96,-746.88 1812.72,-739.67 1806.53,-736.4"/>
<text text-anchor="start" x="1932" y="-565.87" font-family="arial" font-size="14.00" fill="#377eb8">true</text>
</g>
<!-- st0134&#45;&gt;st01234 -->
<g id="edge70" class="edge">
<title>st0134&#45;&gt;st01234</title>
<path fill="none" stroke="black" d="M2330.92,-488.77C2287.19,-441.62 2184.29,-345.07 2075,-345.07 1531.5,-345.07 1531.5,-345.07 1531.5,-345.07 1477.7,-345.07 1418.18,-353.51 1370.29,-362.44"/>
<polygon fill="black" stroke="black" points="1369.43,-359.04 1360.26,-364.35 1370.74,-365.92 1369.43,-359.04"/>
<text text-anchor="start" x="1778.5" y="-348.87" font-family="arial" font-size="14.00" fill="#377eb8">true</text>
</g>
<!-- st0134&#45;&gt;st0234 -->
<g id="edge66" class="edge">
<title>st0134&#45;&gt;st0234</title>
<path fill="none" stroke="black" d="M2287.02,-539.14C2276.06,-542.99 2264.76,-546.78 2254,-550.07 2140.1,-584.91 2110.72,-591.32 1994,-615.07 1829.1,-648.62 1786.73,-651.28 1620,-674.07 1512.72,-688.73 1485.34,-687.88 1378,-702.07 1298.65,-712.56 1208.8,-726.02 1142.99,-736.19"/>
<polygon fill="black" stroke="black" points="1142.39,-732.74 1133.05,-737.72 1143.46,-739.65 1142.39,-732.74"/>
<text text-anchor="start" x="1650.5" y="-674.87" font-family="arial" font-size="14.00" fill="#377eb8">true</text>
</g>
<!-- st0134&#45;&gt;st034 -->
<g id="edge64" class="edge">
<title>st0134&#45;&gt;st034</title>
<path fill="none" stroke="black" d="M2305.14,-488.97C2289.29,-481.84 2271.27,-474.96 2254,-471.07 2219.09,-463.2 2179.39,-461.2 2146.26,-461.37"/>
<polygon fill="black" stroke="black" points="2146.16,-457.87 2136.2,-461.49 2146.24,-464.87 2146.16,-457.87"/>
<text text-anchor="start" x="2179.5" y="-474.87" font-family="arial" font-size="14.00" fill="#377eb8">(R&#39; || S&#39;)</text>
</g>
<!-- st0134&#45;&gt;st0134 -->
<g id="edge68" class="edge">
<title>st0134&#45;&gt;st0134</title>
<path fill="none" stroke="black" d="M2330.47,-539.24C2329.42,-548.98 2337.27,-557.07 2354,-557.07 2364.46,-557.07 2371.45,-553.91 2374.96,-549.16"/>
<polygon fill="black" stroke="black" points="2378.41,-549.8 2377.53,-539.24 2371.63,-548.04 2378.41,-549.8"/>
<text text-anchor="start" x="2342" y="-560.87" font-family="arial" font-size="14.00" fill="#377eb8">true</text>
</g>
<!-- st0134&#45;&gt;st04 -->
<g id="edge63" class="edge">
<title>st0134&#45;&gt;st04</title>
<path fill="none" stroke="black" d="M2436.3,-522.12C2520.52,-530.46 2649.41,-543.22 2719.48,-550.16"/>
<polygon fill="black" stroke="black" points="2719.49,-553.68 2729.79,-551.18 2720.18,-546.72 2719.49,-553.68"/>
<text text-anchor="start" x="2535.5" y="-545.87" font-family="arial" font-size="14.00" fill="#377eb8">(R&#39; || (S&#39; &amp;&amp; !U&#39;))</text>
</g>
<!-- st0134&#45;&gt;st014 -->
<g id="edge67" class="edge">
<title>st0134&#45;&gt;st014</title>
<path fill="none" stroke="black" d="M2436.29,-535.89C2461.63,-545.81 2488.12,-559.77 2508,-579.07 2545.26,-615.22 2566.14,-672.97 2576.36,-709.94"/>
<polygon fill="black" stroke="black" points="2573.02,-711.01 2578.96,-719.78 2579.79,-709.22 2573.02,-711.01"/>
<text text-anchor="start" x="2454" y="-582.87" font-family="arial" font-size="14.00" fill="#377eb8">(R&#39; || !U&#39;)</text>
</g>
<!-- st0134&#45;&gt;st0124 -->
<g id="edge69" class="edge">
<title>st0134&#45;&gt;st0124</title>
<path fill="none" stroke="black" d="M2316.49,-539.24C2300.81,-551.7 2283.49,-567.96 2272,-586.07 2256.85,-609.93 2274.84,-627.97 2254,-647.07 2173.1,-721.21 2107.29,-641.65 2012,-696.07 2001.62,-702 2004.17,-709.78 1994,-716.07 1992.71,-716.87 1938.13,-731.94 1885.96,-746.25"/>
<polygon fill="black" stroke="black" points="1884.98,-742.89 1876.26,-748.91 1886.83,-749.64 1884.98,-742.89"/>
<text text-anchor="start" x="2062" y="-699.87" font-family="arial" font-size="14.00" fill="#377eb8">true</text>
</g>
<!-- st0134&#45;&gt;st024 -->
<g id="edge65" class="edge">
<title>st0134&#45;&gt;st024</title>
<path fill="none" stroke="black" d="M2271.96,-525.53C2157.01,-543.04 1953.91,-579.01 1894,-622.07 1881.68,-630.92 1888.57,-642.57 1876,-651.07 1812.08,-694.28 1778.82,-658.6 1705,-681.07 1665.73,-693.02 1623.55,-711.63 1590.85,-727.44"/>
<polygon fill="black" stroke="black" points="1588.9,-724.5 1581.45,-732.03 1591.97,-730.79 1588.9,-724.5"/>
<text text-anchor="start" x="1932" y="-625.87" font-family="arial" font-size="14.00" fill="#377eb8">true</text>
</g>
<!-- st04&#45;&gt;st01234 -->
<g id="edge34" class="edge">
<title>st04&#45;&gt;st01234</title>
<path fill="none" stroke="black" d="M2768.14,-529.83C2765.09,-452.77 2752.68,-222.1 2712,-161.07 2675.96,-107 2651.48,-86.07 2586.5,-86.07 2203,-86.07 2203,-86.07 2203,-86.07 2034.49,-86.07 1603.91,-51.01 1445,-107.07 1409.71,-119.52 1401.24,-128.74 1378,-158.07 1331.21,-217.11 1301.24,-301.38 1287.09,-348.24"/>
<polygon fill="black" stroke="black" points="1283.7,-347.34 1284.23,-357.92 1290.42,-349.32 1283.7,-347.34"/>
<text text-anchor="start" x="2062" y="-88.87" font-family="arial" font-size="14.00" fill="#377eb8">true</text>
</g>
<!-- st04&#45;&gt;st04 -->
<g id="edge31" class="edge">
<title>st04&#45;&gt;st04</title>
<path fill="none" stroke="black" d="M2754.69,-580.24C2754,-589.98 2759.11,-598.07 2770,-598.07 2776.81,-598.07 2781.35,-594.91 2783.64,-590.16"/>
<polygon fill="black" stroke="black" points="2787.1,-590.69 2785.31,-580.24 2780.2,-589.52 2787.1,-590.69"/>
<text text-anchor="start" x="2758" y="-601.87" font-family="arial" font-size="14.00" fill="#377eb8">true</text>
</g>
<!-- st04&#45;&gt;st014 -->
<g id="edge32" class="edge">
<title>st04&#45;&gt;st014</title>
<path fill="none" stroke="black" d="M2744.96,-580.1C2712.38,-614.02 2654.15,-674.64 2618.08,-712.19"/>
<polygon fill="black" stroke="black" points="2615.14,-710.2 2610.73,-719.84 2620.19,-715.05 2615.14,-710.2"/>
<text text-anchor="start" x="2675.5" y="-664.87" font-family="arial" font-size="14.00" fill="#377eb8">true</text>
</g>
<!-- st04&#45;&gt;st0124 -->
<g id="edge33" class="edge">
<title>st04&#45;&gt;st0124</title>
<path fill="none" stroke="black" d="M2765.29,-580.19C2755.97,-633.39 2726.2,-757.04 2645,-812.07 2529.49,-890.35 2198.47,-893.15 2012,-858.07 1954.63,-847.28 1893.02,-821.97 1849.55,-801.59"/>
<polygon fill="black" stroke="black" points="1850.82,-798.32 1840.28,-797.19 1847.82,-804.64 1850.82,-798.32"/>
<text text-anchor="start" x="2342" y="-882.87" font-family="arial" font-size="14.00" fill="#377eb8">true</text>
</g>
<!-- st014&#45;&gt;st01234 -->
<g id="edge40" class="edge">
<title>st014&#45;&gt;st01234</title>
<path fill="none" stroke="black" d="M2579.49,-719.74C2570.49,-678.93 2548.64,-597.4 2508,-540.07 2433.4,-434.82 2345.73,-476.93 2272,-371.07 2252.16,-342.58 2279.81,-318.28 2254,-295.07 2187.16,-234.97 1533.44,-274.01 1445,-290.07 1414.42,-295.62 1405.86,-296.3 1378,-310.07 1355.54,-321.17 1332.76,-337.24 1314.58,-351.47"/>
<polygon fill="black" stroke="black" points="1312.21,-348.89 1306.57,-357.86 1316.57,-354.36 1312.21,-348.89"/>
<text text-anchor="start" x="1932" y="-267.87" font-family="arial" font-size="14.00" fill="#377eb8">true</text>
</g>
<!-- st014&#45;&gt;st0234 -->
<g id="edge37" class="edge">
<title>st014&#45;&gt;st0234</title>
<path fill="none" stroke="black" d="M2573.87,-770.18C2560.26,-803.53 2537.11,-864.58 2526,-919.07 2520.88,-944.18 2525.41,-1130.25 2508,-1149.07 2461.25,-1199.59 2423.83,-1173.07 2355,-1173.07 1943,-1173.07 1943,-1173.07 1943,-1173.07 1920.84,-1173.07 1168.04,-1091.23 1151,-1077.07 1062.64,-1003.64 1049.31,-854.77 1048.05,-786.6"/>
<polygon fill="black" stroke="black" points="1051.55,-786.34 1047.95,-776.38 1044.55,-786.42 1051.55,-786.34"/>
<text text-anchor="start" x="1778.5" y="-1169.87" font-family="arial" font-size="14.00" fill="#377eb8">true</text>
</g>
<!-- st014&#45;&gt;st04 -->
<g id="edge35" class="edge">
<title>st014&#45;&gt;st04</title>
<path fill="none" stroke="black" d="M2593.44,-719.92C2603.63,-687.4 2625.57,-630.93 2663,-597.07 2679.01,-582.58 2700.62,-572.82 2720.15,-566.38"/>
<polygon fill="black" stroke="black" points="2721.31,-569.68 2729.84,-563.39 2719.25,-562.99 2721.31,-569.68"/>
<text text-anchor="start" x="2663" y="-600.87" font-family="arial" font-size="14.00" fill="#377eb8">(R&#39; || S&#39;)</text>
</g>
<!-- st014&#45;&gt;st014 -->
<g id="edge38" class="edge">
<title>st014&#45;&gt;st014</title>
<path fill="none" stroke="black" d="M2566.45,-770.24C2565.6,-779.98 2571.95,-788.07 2585.5,-788.07 2593.97,-788.07 2599.62,-784.91 2602.47,-780.16"/>
<polygon fill="black" stroke="black" points="2605.92,-780.75 2604.55,-770.24 2599.07,-779.31 2605.92,-780.75"/>
<text text-anchor="start" x="2573.5" y="-791.87" font-family="arial" font-size="14.00" fill="#377eb8">true</text>
</g>
<!-- st014&#45;&gt;st0124 -->
<g id="edge39" class="edge">
<title>st014&#45;&gt;st0124</title>
<path fill="none" stroke="black" d="M2525.85,-747.07C2389.93,-751.69 2052.41,-763.18 1886.55,-768.83"/>
<polygon fill="black" stroke="black" points="1886.24,-765.34 1876.36,-769.18 1886.48,-772.34 1886.24,-765.34"/>
<text text-anchor="start" x="2192" y="-762.87" font-family="arial" font-size="14.00" fill="#377eb8">true</text>
</g>
<!-- st014&#45;&gt;st024 -->
<g id="edge36" class="edge">
<title>st014&#45;&gt;st024</title>
<path fill="none" stroke="black" d="M2532.94,-770.2C2524.73,-773.55 2516.23,-776.66 2508,-779.07 2476.93,-788.17 2468.14,-786.21 2436,-790.07 2154.06,-823.9 1846.91,-871.25 1705,-839.07 1661.02,-829.09 1615.12,-806.4 1581.89,-787.41"/>
<polygon fill="black" stroke="black" points="1583.27,-784.17 1572.87,-782.17 1579.75,-790.22 1583.27,-784.17"/>
<text text-anchor="start" x="2062" y="-842.87" font-family="arial" font-size="14.00" fill="#377eb8">true</text>
</g>
<!-- st0124&#45;&gt;st01234 -->
<g id="edge56" class="edge">
<title>st0124&#45;&gt;st01234</title>
<path fill="none" stroke="black" d="M1769.05,-746.84C1750.56,-723.16 1723.49,-686.22 1705,-651.07 1694.39,-630.9 1701.04,-621.01 1687,-603.07 1641.44,-544.84 1451.34,-457.27 1346.93,-412.18"/>
<polygon fill="black" stroke="black" points="1348.28,-408.96 1337.71,-408.22 1345.52,-415.39 1348.28,-408.96"/>
<text text-anchor="start" x="1520.5" y="-551.87" font-family="arial" font-size="14.00" fill="#377eb8">true</text>
</g>
<!-- st0124&#45;&gt;st0234 -->
<g id="edge52" class="edge">
<title>st0124&#45;&gt;st0234</title>
<path fill="none" stroke="black" d="M1724.15,-797.1C1693.09,-807.7 1655.16,-818.8 1620,-824.07 1451.79,-849.29 1254.89,-808.8 1141.63,-778.76"/>
<polygon fill="black" stroke="black" points="1142.51,-775.37 1131.95,-776.16 1140.7,-782.13 1142.51,-775.37"/>
<text text-anchor="start" x="1390.5" y="-831.87" font-family="arial" font-size="14.00" fill="#377eb8">true</text>
</g>
<!-- st0124&#45;&gt;st034 -->
<g id="edge50" class="edge">
<title>st0124&#45;&gt;st034</title>
<path fill="none" stroke="black" d="M1821.07,-747.05C1840.63,-731.69 1867.47,-712.79 1894,-701.07 1935.72,-682.64 1959.74,-708.17 1994,-678.07 2007.91,-665.85 2043.9,-557.01 2062.11,-499.83"/>
<polygon fill="black" stroke="black" points="2065.5,-500.71 2065.19,-490.12 2058.83,-498.59 2065.5,-500.71"/>
<text text-anchor="start" x="1919.5" y="-704.87" font-family="arial" font-size="14.00" fill="#377eb8">(R&#39; || S&#39;)</text>
</g>
<!-- st0124&#45;&gt;st0134 -->
<g id="edge54" class="edge">
<title>st0124&#45;&gt;st0134</title>
<path fill="none" stroke="black" d="M1876.4,-760.09C1912.7,-754.71 1955.5,-748.01 1994,-741.07 2008.52,-738.45 2243.72,-697.65 2254,-687.07 2285.78,-654.37 2249.73,-625.86 2272,-586.07 2280.6,-570.7 2293.75,-556.94 2306.96,-545.67"/>
<polygon fill="black" stroke="black" points="2309.19,-548.37 2314.72,-539.33 2304.76,-542.95 2309.19,-548.37"/>
<text text-anchor="start" x="2062" y="-740.87" font-family="arial" font-size="14.00" fill="#377eb8">true</text>
</g>
<!-- st0124&#45;&gt;st04 -->
<g id="edge49" class="edge">
<title>st0124&#45;&gt;st04</title>
<path fill="none" stroke="black" d="M1817.66,-797.32C1837.21,-814.86 1865.4,-837.44 1894,-851.07 2112.26,-955.11 2195.94,-926.93 2436,-898.07 2568.45,-882.14 2646.09,-896.06 2712,-780.07 2746.72,-718.96 2760.59,-636.68 2765.9,-590.44"/>
<polygon fill="black" stroke="black" points="2769.4,-590.64 2766.99,-580.32 2762.44,-589.89 2769.4,-590.64"/>
<text text-anchor="start" x="2304" y="-921.87" font-family="arial" font-size="14.00" fill="#377eb8">(R&#39; || (S&#39; &amp;&amp; !U&#39;))</text>
</g>
<!-- st0124&#45;&gt;st014 -->
<g id="edge53" class="edge">
<title>st0124&#45;&gt;st014</title>
<path fill="none" stroke="black" d="M1876.21,-779.2C1882.23,-779.54 1888.2,-779.84 1894,-780.07 1938.41,-781.8 1949.56,-780.24 1994,-780.07 2222.58,-779.19 2281.68,-794.14 2508,-762.07 2510.53,-761.71 2513.11,-761.31 2515.7,-760.88"/>
<polygon fill="black" stroke="black" points="2516.55,-764.29 2525.78,-759.09 2515.32,-757.39 2516.55,-764.29"/>
<text text-anchor="start" x="2177" y="-785.87" font-family="arial" font-size="14.00" fill="#377eb8">(R&#39; || !U&#39;)</text>
</g>
<!-- st0124&#45;&gt;st0124 -->
<g id="edge55" class="edge">
<title>st0124&#45;&gt;st0124</title>
<path fill="none" stroke="black" d="M1766.59,-797.24C1765.53,-806.98 1773.5,-815.07 1790.5,-815.07 1801.12,-815.07 1808.22,-811.91 1811.79,-807.16"/>
<polygon fill="black" stroke="black" points="1815.24,-807.81 1814.41,-797.24 1808.47,-806.02 1815.24,-807.81"/>
<text text-anchor="start" x="1778.5" y="-818.87" font-family="arial" font-size="14.00" fill="#377eb8">true</text>
</g>
<!-- st0124&#45;&gt;st024 -->
<g id="edge51" class="edge">
<title>st0124&#45;&gt;st024</title>
<path fill="none" stroke="black" d="M1704.82,-761.5C1698.8,-760.95 1692.81,-760.46 1687,-760.07 1668.63,-758.82 1648.99,-758.02 1630.12,-757.53"/>
<polygon fill="black" stroke="black" points="1630.1,-754.03 1620.02,-757.29 1629.94,-761.03 1630.1,-754.03"/>
<text text-anchor="start" x="1650.5" y="-763.87" font-family="arial" font-size="14.00" fill="#377eb8">true</text>
</g>
<!-- st024&#45;&gt;st01234 -->
<g id="edge48" class="edge">
<title>st024&#45;&gt;st01234</title>
<path fill="none" stroke="black" d="M1499.36,-731.7C1480.25,-714.72 1457.38,-690.65 1445,-664.07 1417.39,-604.8 1457.16,-576.08 1427,-518.07 1423.54,-511.4 1357.39,-452.88 1314.25,-415.11"/>
<polygon fill="black" stroke="black" points="1316.31,-412.26 1306.48,-408.31 1311.71,-417.53 1316.31,-412.26"/>
<text text-anchor="start" x="1390.5" y="-521.87" font-family="arial" font-size="14.00" fill="#377eb8">true</text>
</g>
<!-- st024&#45;&gt;st0234 -->
<g id="edge44" class="edge">
<title>st024&#45;&gt;st0234</title>
<path fill="none" stroke="black" d="M1444.83,-763.72C1438.79,-764.17 1432.81,-764.63 1427,-765.07 1397.22,-767.32 1389.84,-768.96 1360,-770.07 1285.83,-772.83 1267.09,-774.46 1193,-770.07 1174.23,-768.95 1169.65,-767.45 1151,-765.07 1148.47,-764.74 1145.9,-764.41 1143.31,-764.08"/>
<polygon fill="black" stroke="black" points="1143.59,-760.58 1133.22,-762.76 1142.68,-767.53 1143.59,-760.58"/>
<text text-anchor="start" x="1264.5" y="-775.87" font-family="arial" font-size="14.00" fill="#377eb8">true</text>
</g>
<!-- st024&#45;&gt;st034 -->
<g id="edge42" class="edge">
<title>st024&#45;&gt;st034</title>
<path fill="none" stroke="black" d="M1559.55,-731.94C1579.86,-713.16 1609.34,-687.64 1638,-669.07 1687.29,-637.12 1825,-583.21 1876,-554.07 1884.35,-549.3 1885.26,-546.08 1894,-542.07 1935.94,-522.81 1951.75,-532.64 1994,-514.07 2005.66,-508.94 2017.64,-502.32 2028.63,-495.62"/>
<polygon fill="black" stroke="black" points="2030.59,-498.52 2037.21,-490.24 2026.87,-492.58 2030.59,-498.52"/>
<text text-anchor="start" x="1766" y="-635.87" font-family="arial" font-size="14.00" fill="#377eb8">(R&#39; || S&#39;)</text>
</g>
<!-- st024&#45;&gt;st0134 -->
<g id="edge46" class="edge">
<title>st024&#45;&gt;st0134</title>
<path fill="none" stroke="black" d="M1620.32,-744.44C1707.21,-730.64 1833.85,-707.01 1876,-681.07 1886.76,-674.45 1883.09,-665.43 1894,-659.07 1902.77,-653.96 2244.79,-601.34 2254,-597.07 2279.99,-585.02 2304.7,-564.32 2322.93,-546.62"/>
<polygon fill="black" stroke="black" points="2325.71,-548.78 2330.33,-539.24 2320.77,-543.82 2325.71,-548.78"/>
<text text-anchor="start" x="1932" y="-662.87" font-family="arial" font-size="14.00" fill="#377eb8">true</text>
</g>
<!-- st024&#45;&gt;st04 -->
<g id="edge41" class="edge">
<title>st024&#45;&gt;st04</title>
<path fill="none" stroke="black" d="M1551.72,-782.25C1580.53,-820.54 1640.02,-893.73 1705,-939.07 1910.89,-1082.73 2003.89,-1093.89 2254,-1072.07 2484.61,-1051.95 2597.69,-1025.36 2712,-824.07 2754.99,-748.37 2765.65,-644.04 2768.23,-590.26"/>
<polygon fill="black" stroke="black" points="2771.73,-590.34 2768.65,-580.2 2764.74,-590.05 2771.73,-590.34"/>
<text text-anchor="start" x="2154" y="-1082.87" font-family="arial" font-size="14.00" fill="#377eb8">(R&#39; || (S&#39; &amp;&amp; !U&#39;))</text>
</g>
<!-- st024&#45;&gt;st014 -->
<g id="edge45" class="edge">
<title>st024&#45;&gt;st014</title>
<path fill="none" stroke="black" d="M1563.2,-782.4C1583.62,-799.31 1611.7,-821.56 1638,-839.07 1644.78,-843.58 1886.16,-979.87 1894,-982.07 2126.03,-1047.09 2226.68,-1115.44 2436,-996.07 2518.15,-949.22 2559.48,-837.11 2575.82,-779.92"/>
<polygon fill="black" stroke="black" points="2579.21,-780.81 2578.5,-770.23 2572.46,-778.94 2579.21,-780.81"/>
<text text-anchor="start" x="2047" y="-1054.87" font-family="arial" font-size="14.00" fill="#377eb8">(R&#39; || !U&#39;)</text>
</g>
<!-- st024&#45;&gt;st0124 -->
<g id="edge47" class="edge">
<title>st024&#45;&gt;st0124</title>
<path fill="none" stroke="black" d="M1620.24,-776.76C1626.23,-777.67 1632.19,-778.46 1638,-779.07 1656.31,-780.97 1675.93,-781.32 1694.76,-780.81"/>
<polygon fill="black" stroke="black" points="1694.96,-784.3 1704.83,-780.46 1694.72,-777.31 1694.96,-784.3"/>
<text text-anchor="start" x="1650.5" y="-783.87" font-family="arial" font-size="14.00" fill="#377eb8">true</text>
</g>
<!-- st024&#45;&gt;st024 -->
<g id="edge43" class="edge">
<title>st024&#45;&gt;st024</title>
<path fill="none" stroke="black" d="M1508.22,-782.24C1507.14,-791.98 1515.23,-800.07 1532.5,-800.07 1543.29,-800.07 1550.5,-796.91 1554.12,-792.16"/>
<polygon fill="black" stroke="black" points="1557.57,-792.81 1556.78,-782.24 1550.81,-791 1557.57,-792.81"/>
<text text-anchor="start" x="1520.5" y="-803.87" font-family="arial" font-size="14.00" fill="#377eb8">true</text>
</g>
</g>
</svg>
