<?xml version="1.0" encoding="UTF-8" standalone="no"?>
<!DOCTYPE svg PUBLIC "-//W3C//DTD SVG 1.1//EN"
 "http://www.w3.org/Graphics/SVG/1.1/DTD/svg11.dtd">
<!-- Generated by graphviz version 2.43.0 (0)
 -->
<!-- Title: G Pages: 1 -->
<svg width="532pt" height="145pt"
 viewBox="0.00 0.00 532.00 145.00" xmlns="http://www.w3.org/2000/svg" xmlns:xlink="http://www.w3.org/1999/xlink">
<g id="graph0" class="graph" transform="scale(1 1) rotate(0) translate(4 141)">
<title>G</title>
<polygon fill="white" stroke="transparent" points="-4,4 -4,-141 528,-141 528,4 -4,4"/>
<!-- _ID_127_ct1_st -->
<!-- ID_127_ct1_st -->
<g id="node2" class="node">
<title>ID_127_ct1_st</title>
<polygon fill="none" stroke="black" points="524,-97 417,-97 417,-47 524,-47 524,-97"/>
<text text-anchor="start" x="425" y="-82.8" font-family="arial" font-weight="bold" font-size="14.00">ID_127_ct1_st</text>
<text text-anchor="start" x="458.5" y="-68.8" font-family="arial" font-size="14.00" fill="#984ea3">true</text>
<text text-anchor="start" x="458.5" y="-54.8" font-family="arial" font-size="14.00" fill="#ff7f00">true</text>
</g>
<!-- _ID_127_ct1_st&#45;&gt;ID_127_ct1_st -->
<g id="edge1" class="edge">
<title>_ID_127_ct1_st&#45;&gt;ID_127_ct1_st</title>
<path fill="none" stroke="black" d="M274.05,-108.74C313.21,-101.38 366.06,-91.45 406.93,-83.76"/>
<polygon fill="black" stroke="black" points="407.59,-87.2 416.78,-81.91 406.3,-80.32 407.59,-87.2"/>
</g>
<!-- ID_127_ct1_st&#45;&gt;ID_127_ct1_st -->
<g id="edge3" class="edge">
<title>ID_127_ct1_st&#45;&gt;ID_127_ct1_st</title>
<path fill="none" stroke="black" d="M448.09,-97.18C447.09,-106.91 454.56,-115 470.5,-115 480.46,-115 487.11,-111.84 490.46,-107.09"/>
<polygon fill="black" stroke="black" points="493.91,-107.72 492.91,-97.18 487.11,-106.04 493.91,-107.72"/>
<text text-anchor="start" x="458.5" y="-118.8" font-family="arial" font-size="14.00" fill="#377eb8">true</text>
</g>
<!-- _ID_127_ct1_st0 -->
<!-- ID_127_ct1_st0 -->
<g id="node4" class="node">
<title>ID_127_ct1_st0</title>
<polygon fill="none" stroke="black" points="281,-50 156,-50 156,0 281,0 281,-50"/>
<text text-anchor="start" x="169.5" y="-35.8" font-family="arial" font-weight="bold" font-size="14.00">ID_127_ct1_st0</text>
<text text-anchor="start" x="164" y="-21.8" font-family="arial" font-size="14.00" fill="#984ea3">(!P &amp;&amp; (!R &amp;&amp; !S))</text>
<text text-anchor="start" x="206.5" y="-7.8" font-family="arial" font-size="14.00" fill="#ff7f00">true</text>
</g>
<!-- _ID_127_ct1_st0&#45;&gt;ID_127_ct1_st0 -->
<g id="edge2" class="edge">
<title>_ID_127_ct1_st0&#45;&gt;ID_127_ct1_st0</title>
<path fill="none" stroke="black" d="M119.41,-25C127.98,-25 136.88,-25 145.66,-25"/>
<polygon fill="black" stroke="black" points="145.9,-28.5 155.9,-25 145.9,-21.5 145.9,-28.5"/>
</g>
<!-- ID_127_ct1_st0&#45;&gt;ID_127_ct1_st -->
<g id="edge4" class="edge">
<title>ID_127_ct1_st0&#45;&gt;ID_127_ct1_st</title>
<path fill="none" stroke="black" d="M281.3,-36.62C319.52,-43.8 368.45,-53 406.84,-60.22"/>
<polygon fill="black" stroke="black" points="406.39,-63.7 416.86,-62.1 407.68,-56.82 406.39,-63.7"/>
<text text-anchor="start" x="299" y="-61.8" font-family="arial" font-size="14.00" fill="#377eb8">(P&#39; || (!R&#39; &amp;&amp; S&#39;))</text>
</g>
<!-- ID_127_ct1_st0&#45;&gt;ID_127_ct1_st0 -->
<g id="edge5" class="edge">
<title>ID_127_ct1_st0&#45;&gt;ID_127_ct1_st0</title>
<path fill="none" stroke="black" d="M203.56,-50.18C202.89,-59.91 207.88,-68 218.5,-68 225.14,-68 229.58,-64.84 231.81,-60.09"/>
<polygon fill="black" stroke="black" points="235.27,-60.61 233.44,-50.18 228.36,-59.47 235.27,-60.61"/>
<text text-anchor="start" x="206.5" y="-71.8" font-family="arial" font-size="14.00" fill="#377eb8">true</text>
</g>
</g>
</svg>
