<?xml version="1.0" encoding="UTF-8" standalone="no"?>
<!DOCTYPE svg PUBLIC "-//W3C//DTD SVG 1.1//EN"
 "http://www.w3.org/Graphics/SVG/1.1/DTD/svg11.dtd">
<!-- Generated by graphviz version 2.40.1 (20161225.0304)
 -->
<!-- Title: G Pages: 1 -->
<svg width="755pt" height="155pt"
 viewBox="0.00 0.00 755.00 155.00" xmlns="http://www.w3.org/2000/svg" xmlns:xlink="http://www.w3.org/1999/xlink">
<g id="graph0" class="graph" transform="scale(1 1) rotate(0) translate(4 151)">
<title>G</title>
<polygon fill="#ffffff" stroke="transparent" points="-4,4 -4,-151 751,-151 751,4 -4,4"/>
<!-- _st0 -->
<!-- st0 -->
<g id="node2" class="node">
<title>st0</title>
<polygon fill="none" stroke="#000000" points="191,-114 91,-114 91,-64 191,-64 191,-114"/>
<text text-anchor="start" x="130" y="-99.8" font-family="arial" font-weight="bold" font-size="14.00" fill="#000000">st0</text>
<text text-anchor="start" x="99" y="-85.8" font-family="arial" font-size="14.00" fill="#984ea3">((R || S) || !Q)</text>
<text text-anchor="start" x="128.5" y="-71.8" font-family="arial" font-size="14.00" fill="#ff7f00">true</text>
</g>
<!-- _st0&#45;&gt;st0 -->
<g id="edge1" class="edge">
<title>_st0&#45;&gt;st0</title>
<path fill="none" stroke="#000000" d="M54.0164,-89C62.1397,-89 71.3988,-89 80.7747,-89"/>
<polygon fill="#000000" stroke="#000000" points="80.9461,-92.5001 90.9461,-89 80.9461,-85.5001 80.9461,-92.5001"/>
</g>
<!-- st0&#45;&gt;st0 -->
<g id="edge3" class="edge">
<title>st0&#45;&gt;st0</title>
<path fill="none" stroke="#000000" d="M128.2998,-114.1756C127.7354,-123.9095 131.9688,-132 141,-132 146.6445,-132 150.4149,-128.8397 152.3111,-124.093"/>
<polygon fill="#000000" stroke="#000000" points="155.7792,-124.5645 153.7002,-114.1756 148.8468,-123.5934 155.7792,-124.5645"/>
<text text-anchor="start" x="128.5" y="-135.8" font-family="arial" font-size="14.00" fill="#377eb8">true</text>
</g>
<!-- st012 -->
<g id="node4" class="node">
<title>st012</title>
<polygon fill="none" stroke="#000000" points="506,-63 330,-63 330,-13 506,-13 506,-63"/>
<text text-anchor="start" x="399" y="-48.8" font-family="arial" font-weight="bold" font-size="14.00" fill="#000000">st012</text>
<text text-anchor="start" x="338" y="-34.8" font-family="arial" font-size="14.00" fill="#984ea3">(Q &amp;&amp; (!R &amp;&amp; (!S &amp;&amp; !T)))</text>
<text text-anchor="start" x="405.5" y="-20.8" font-family="arial" font-size="14.00" fill="#ff7f00">true</text>
</g>
<!-- st0&#45;&gt;st012 -->
<g id="edge4" class="edge">
<title>st0&#45;&gt;st012</title>
<path fill="none" stroke="#000000" d="M191.0575,-84.4135C225.3074,-80.8231 271.6433,-75.0758 312,-67 314.8062,-66.4384 317.6475,-65.8431 320.5101,-65.22"/>
<polygon fill="#000000" stroke="#000000" points="321.3249,-68.6241 330.3052,-63.0023 319.7791,-61.7969 321.3249,-68.6241"/>
<text text-anchor="start" x="248" y="-86.8" font-family="arial" font-size="14.00" fill="#377eb8">true</text>
</g>
<!-- _st012 -->
<!-- _st012&#45;&gt;st012 -->
<g id="edge2" class="edge">
<title>_st012&#45;&gt;st012</title>
<path fill="none" stroke="#000000" d="M171.7022,-20.2168C207.2254,-22.7816 267.5085,-27.1342 319.5421,-30.8911"/>
<polygon fill="#000000" stroke="#000000" points="319.6029,-34.4045 329.8291,-31.6339 320.1071,-27.4227 319.6029,-34.4045"/>
</g>
<!-- st012&#45;&gt;st0 -->
<g id="edge8" class="edge">
<title>st012&#45;&gt;st0</title>
<path fill="none" stroke="#000000" d="M329.9334,-32.7C291.9944,-32.8312 247.578,-36.2692 209,-48 200.4714,-50.5934 191.9126,-54.4926 183.8832,-58.8724"/>
<polygon fill="#000000" stroke="#000000" points="181.9701,-55.9358 175.0724,-63.9777 185.4796,-61.9925 181.9701,-55.9358"/>
<text text-anchor="start" x="209" y="-51.8" font-family="arial" font-size="14.00" fill="#377eb8">(R&#39; || (S&#39; &amp;&amp; !T&#39;))</text>
</g>
<!-- st012&#45;&gt;st012 -->
<g id="edge10" class="edge">
<title>st012&#45;&gt;st012</title>
<path fill="none" stroke="#000000" d="M395.9614,-63.1756C394.9819,-72.9095 402.3281,-81 418,-81 427.7949,-81 434.3376,-77.8397 437.6281,-73.093"/>
<polygon fill="#000000" stroke="#000000" points="441.0777,-73.7194 440.0386,-63.1756 434.2757,-72.0661 441.0777,-73.7194"/>
<text text-anchor="start" x="405.5" y="-84.8" font-family="arial" font-size="14.00" fill="#377eb8">true</text>
</g>
<!-- st02 -->
<g id="node5" class="node">
<title>st02</title>
<polygon fill="none" stroke="#000000" points="747,-101 567,-101 567,-51 747,-51 747,-101"/>
<text text-anchor="start" x="642" y="-86.8" font-family="arial" font-weight="bold" font-size="14.00" fill="#000000">st02</text>
<text text-anchor="start" x="575" y="-72.8" font-family="arial" font-size="14.00" fill="#984ea3">(!Q &amp;&amp; (!R &amp;&amp; (!S &amp;&amp; !T)))</text>
<text text-anchor="start" x="644.5" y="-58.8" font-family="arial" font-size="14.00" fill="#ff7f00">true</text>
</g>
<!-- st012&#45;&gt;st02 -->
<g id="edge9" class="edge">
<title>st012&#45;&gt;st02</title>
<path fill="none" stroke="#000000" d="M506.3157,-52.0418C522.6132,-54.6331 539.7428,-57.3566 556.3721,-60.0006"/>
<polygon fill="#000000" stroke="#000000" points="556.2241,-63.5209 566.6497,-61.6347 557.3233,-56.6078 556.2241,-63.5209"/>
<text text-anchor="start" x="524" y="-62.8" font-family="arial" font-size="14.00" fill="#377eb8">true</text>
</g>
<!-- st02&#45;&gt;st0 -->
<g id="edge5" class="edge">
<title>st02&#45;&gt;st0</title>
<path fill="none" stroke="#000000" d="M566.7762,-96.2206C546.861,-99.8727 525.7979,-103.1161 506,-105 374.5869,-117.5049 340.254,-116.0771 209,-102 206.4903,-101.7308 203.9348,-101.4184 201.3579,-101.0715"/>
<polygon fill="#000000" stroke="#000000" points="201.7706,-97.5944 191.3639,-99.5818 200.7386,-104.5179 201.7706,-97.5944"/>
<text text-anchor="start" x="366.5" y="-116.8" font-family="arial" font-size="14.00" fill="#377eb8">(R&#39; || (S&#39; &amp;&amp; !T&#39;))</text>
</g>
<!-- st02&#45;&gt;st012 -->
<g id="edge7" class="edge">
<title>st02&#45;&gt;st012</title>
<path fill="none" stroke="#000000" d="M595.0719,-50.9794C580.2187,-46.0476 564.2396,-41.5979 549,-39 538.4432,-37.2004 527.3381,-36.0289 516.2435,-35.3155"/>
<polygon fill="#000000" stroke="#000000" points="516.2426,-31.8107 506.0735,-34.7841 515.8773,-38.8012 516.2426,-31.8107"/>
<text text-anchor="start" x="524" y="-42.8" font-family="arial" font-size="14.00" fill="#377eb8">true</text>
</g>
<!-- st02&#45;&gt;st02 -->
<g id="edge6" class="edge">
<title>st02&#45;&gt;st02</title>
<path fill="none" stroke="#000000" d="M634.5879,-101.1756C633.5918,-110.9095 641.0625,-119 657,-119 666.9609,-119 673.6145,-115.8397 676.9608,-111.093"/>
<polygon fill="#000000" stroke="#000000" points="680.4102,-111.7233 679.4121,-101.1756 673.6147,-110.0436 680.4102,-111.7233"/>
<text text-anchor="start" x="644.5" y="-122.8" font-family="arial" font-size="14.00" fill="#377eb8">true</text>
</g>
</g>
</svg>
