<?xml version="1.0" encoding="UTF-8" standalone="no"?>
<!DOCTYPE svg PUBLIC "-//W3C//DTD SVG 1.1//EN"
 "http://www.w3.org/Graphics/SVG/1.1/DTD/svg11.dtd">
<!-- Generated by graphviz version 2.40.1 (20161225.0304)
 -->
<!-- Title: G Pages: 1 -->
<svg width="2258pt" height="885pt"
 viewBox="0.00 0.00 2258.00 885.28" xmlns="http://www.w3.org/2000/svg" xmlns:xlink="http://www.w3.org/1999/xlink">
<g id="graph0" class="graph" transform="scale(1 1) rotate(0) translate(4 881.2754)">
<title>G</title>
<polygon fill="#ffffff" stroke="transparent" points="-4,4 -4,-881.2754 2254,-881.2754 2254,4 -4,4"/>
<!-- _stinit -->
<!-- stinit -->
<g id="node2" class="node">
<title>stinit</title>
<polygon fill="none" stroke="#000000" points="2122,-844.2754 2068,-844.2754 2068,-794.2754 2122,-794.2754 2122,-844.2754"/>
<text text-anchor="start" x="2078" y="-830.0754" font-family="arial" font-weight="bold" font-size="14.00" fill="#000000">stinit</text>
<text text-anchor="start" x="2089.5" y="-816.0754" font-family="arial" font-size="14.00" fill="#984ea3">U</text>
<text text-anchor="start" x="2082.5" y="-802.0754" font-family="arial" font-size="14.00" fill="#ff7f00">true</text>
</g>
<!-- _stinit&#45;&gt;stinit -->
<g id="edge1" class="edge">
<title>_stinit&#45;&gt;stinit</title>
<path fill="none" stroke="#000000" d="M1870.8937,-819.2754C1916.0593,-819.2754 2006.2305,-819.2754 2057.3539,-819.2754"/>
<polygon fill="#000000" stroke="#000000" points="2057.6401,-822.7755 2067.6401,-819.2754 2057.6401,-815.7755 2057.6401,-822.7755"/>
</g>
<!-- stinit&#45;&gt;stinit -->
<g id="edge6" class="edge">
<title>stinit&#45;&gt;stinit</title>
<path fill="none" stroke="#000000" d="M2081.9263,-844.451C2081.3452,-854.1849 2085.7031,-862.2754 2095,-862.2754 2100.8105,-862.2754 2104.6918,-859.115 2106.6438,-854.3683"/>
<polygon fill="#000000" stroke="#000000" points="2110.1107,-854.8481 2108.0737,-844.451 2103.1824,-853.8491 2110.1107,-854.8481"/>
<text text-anchor="start" x="2082.5" y="-866.0754" font-family="arial" font-size="14.00" fill="#377eb8">true</text>
</g>
<!-- st -->
<g id="node9" class="node">
<title>st</title>
<polygon fill="none" stroke="#000000" points="2250,-532.2754 2196,-532.2754 2196,-482.2754 2250,-482.2754 2250,-532.2754"/>
<text text-anchor="start" x="2216.5" y="-518.0754" font-family="arial" font-weight="bold" font-size="14.00" fill="#000000">st</text>
<text text-anchor="start" x="2210.5" y="-504.0754" font-family="arial" font-size="14.00" fill="#984ea3">true</text>
<text text-anchor="start" x="2210.5" y="-490.0754" font-family="arial" font-size="14.00" fill="#ff7f00">true</text>
</g>
<!-- stinit&#45;&gt;st -->
<g id="edge5" class="edge">
<title>stinit&#45;&gt;st</title>
<path fill="none" stroke="#000000" d="M2122.0024,-813.5759C2140.6561,-808.1936 2164.4599,-798.1811 2178,-780.2754 2205.8566,-743.4372 2217.2544,-607.9065 2221.2021,-542.7347"/>
<polygon fill="#000000" stroke="#000000" points="2224.7087,-542.7195 2221.7936,-532.5336 2217.7205,-542.3142 2224.7087,-542.7195"/>
<text text-anchor="start" x="2153" y="-804.0754" font-family="arial" font-size="14.00" fill="#377eb8">true</text>
</g>
<!-- _st0 -->
<!-- st0 -->
<g id="node4" class="node">
<title>st0</title>
<polygon fill="none" stroke="#000000" points="258,-545.2754 91,-545.2754 91,-495.2754 258,-495.2754 258,-545.2754"/>
<text text-anchor="start" x="163.5" y="-531.0754" font-family="arial" font-weight="bold" font-size="14.00" fill="#000000">st0</text>
<text text-anchor="start" x="99" y="-517.0754" font-family="arial" font-size="14.00" fill="#984ea3">((R &amp;&amp; !U) || (!Q &amp;&amp; !U))</text>
<text text-anchor="start" x="162" y="-503.0754" font-family="arial" font-size="14.00" fill="#ff7f00">true</text>
</g>
<!-- _st0&#45;&gt;st0 -->
<g id="edge2" class="edge">
<title>_st0&#45;&gt;st0</title>
<path fill="none" stroke="#000000" d="M54.0538,-520.2754C61.9547,-520.2754 71.0704,-520.2754 80.6779,-520.2754"/>
<polygon fill="#000000" stroke="#000000" points="80.8378,-523.7755 90.8378,-520.2754 80.8377,-516.7755 80.8378,-523.7755"/>
</g>
<!-- st0&#45;&gt;st0 -->
<g id="edge9" class="edge">
<title>st0&#45;&gt;st0</title>
<path fill="none" stroke="#000000" d="M155.4497,-545.451C154.603,-555.1849 160.9531,-563.2754 174.5,-563.2754 182.9668,-563.2754 188.6224,-560.115 191.4667,-555.3683"/>
<polygon fill="#000000" stroke="#000000" points="194.9193,-555.957 193.5503,-545.451 188.0689,-554.5177 194.9193,-555.957"/>
<text text-anchor="start" x="162" y="-567.0754" font-family="arial" font-size="14.00" fill="#377eb8">true</text>
</g>
<!-- st012 -->
<g id="node6" class="node">
<title>st012</title>
<polygon fill="none" stroke="#000000" points="523,-583.2754 346,-583.2754 346,-533.2754 523,-533.2754 523,-583.2754"/>
<text text-anchor="start" x="415.5" y="-569.0754" font-family="arial" font-weight="bold" font-size="14.00" fill="#000000">st012</text>
<text text-anchor="start" x="354" y="-555.0754" font-family="arial" font-size="14.00" fill="#984ea3">(Q &amp;&amp; (!R &amp;&amp; (!T &amp;&amp; !U)))</text>
<text text-anchor="start" x="422" y="-541.0754" font-family="arial" font-size="14.00" fill="#ff7f00">true</text>
</g>
<!-- st0&#45;&gt;st012 -->
<g id="edge10" class="edge">
<title>st0&#45;&gt;st012</title>
<path fill="none" stroke="#000000" d="M258.1882,-515.8721C280.9664,-516.0157 305.5445,-517.4105 328,-521.2754 339.7549,-523.2985 351.948,-526.455 363.7047,-530.0906"/>
<polygon fill="#000000" stroke="#000000" points="362.8667,-533.498 373.4585,-533.2428 365.0194,-526.8372 362.8667,-533.498"/>
<text text-anchor="start" x="289.5" y="-525.0754" font-family="arial" font-size="14.00" fill="#377eb8">true</text>
</g>
<!-- st01234 -->
<g id="node8" class="node">
<title>st01234</title>
<polygon fill="none" stroke="#000000" points="1955,-402.2754 1732,-402.2754 1732,-352.2754 1955,-352.2754 1955,-402.2754"/>
<text text-anchor="start" x="1816" y="-388.0754" font-family="arial" font-weight="bold" font-size="14.00" fill="#000000">st01234</text>
<text text-anchor="start" x="1740" y="-374.0754" font-family="arial" font-size="14.00" fill="#984ea3">(Q &amp;&amp; (!R &amp;&amp; (!S &amp;&amp; (T &amp;&amp; !U))))</text>
<text text-anchor="start" x="1831" y="-360.0754" font-family="arial" font-size="14.00" fill="#ff7f00">true</text>
</g>
<!-- st0&#45;&gt;st01234 -->
<g id="edge11" class="edge">
<title>st0&#45;&gt;st01234</title>
<path fill="none" stroke="#000000" d="M186.8988,-545.5871C207.8139,-587.3008 250.3303,-667.729 276,-686.2754 334.6355,-728.6395 362.1616,-723.2754 434.5,-723.2754 434.5,-723.2754 434.5,-723.2754 795.5,-723.2754 897.6523,-723.2754 1630.095,-741.5424 1714,-683.2754 1805.1133,-620.0026 1832.4144,-479.1305 1840.3599,-412.9373"/>
<polygon fill="#000000" stroke="#000000" points="1843.8824,-412.9298 1841.5145,-402.603 1836.9257,-412.1524 1843.8824,-412.9298"/>
<text text-anchor="start" x="927" y="-729.0754" font-family="arial" font-size="14.00" fill="#377eb8">true</text>
</g>
<!-- st0&#45;&gt;st -->
<g id="edge8" class="edge">
<title>st0&#45;&gt;st</title>
<path fill="none" stroke="#000000" d="M189.561,-545.2975C206.9982,-574.7113 236.1216,-625.2362 258,-670.2754 267.0525,-688.911 260.8201,-699.1755 276,-713.2754 330.4233,-763.8262 360.2216,-766.2754 434.5,-766.2754 434.5,-766.2754 434.5,-766.2754 2095,-766.2754 2144.3594,-766.2754 2193.4815,-613.1808 2213.5549,-542.3989"/>
<polygon fill="#000000" stroke="#000000" points="2216.978,-543.1542 2216.3024,-532.5809 2210.2369,-541.2678 2216.978,-543.1542"/>
<text text-anchor="start" x="1220.5" y="-770.0754" font-family="arial" font-size="14.00" fill="#377eb8">U&#39;</text>
</g>
<!-- _st012 -->
<!-- _st012&#45;&gt;st012 -->
<g id="edge3" class="edge">
<title>_st012&#45;&gt;st012</title>
<path fill="none" stroke="#000000" d="M205.0899,-680.9215C247.5997,-658.1951 325.2869,-616.6623 378.3735,-588.2815"/>
<polygon fill="#000000" stroke="#000000" points="380.1596,-591.2954 387.3282,-583.4941 376.8592,-585.1222 380.1596,-591.2954"/>
</g>
<!-- st012&#45;&gt;st0 -->
<g id="edge19" class="edge">
<title>st012&#45;&gt;st0</title>
<path fill="none" stroke="#000000" d="M345.5995,-546.2296C322.8948,-543.0725 298.5344,-539.6151 276,-536.2754 273.4523,-535.8978 270.8691,-535.5119 268.2626,-535.1198"/>
<polygon fill="#000000" stroke="#000000" points="268.5305,-531.6205 258.1188,-533.5816 267.481,-538.5414 268.5305,-531.6205"/>
<text text-anchor="start" x="276" y="-546.0754" font-family="arial" font-size="14.00" fill="#377eb8">(R&#39; || U&#39;)</text>
</g>
<!-- st012&#45;&gt;st012 -->
<g id="edge22" class="edge">
<title>st012&#45;&gt;st012</title>
<path fill="none" stroke="#000000" d="M412.4614,-583.451C411.4819,-593.1849 418.8281,-601.2754 434.5,-601.2754 444.2949,-601.2754 450.8376,-598.115 454.1281,-593.3683"/>
<polygon fill="#000000" stroke="#000000" points="457.5777,-593.9947 456.5386,-583.451 450.7757,-592.3414 457.5777,-593.9947"/>
<text text-anchor="start" x="422" y="-605.0754" font-family="arial" font-size="14.00" fill="#377eb8">true</text>
</g>
<!-- st012&#45;&gt;st01234 -->
<g id="edge23" class="edge">
<title>st012&#45;&gt;st01234</title>
<path fill="none" stroke="#000000" d="M523.3802,-565.3664C763.8041,-583.5872 1422.9214,-626.9143 1632,-572.2754 1719.9771,-549.2841 1789.794,-460.3625 1822.782,-410.9197"/>
<polygon fill="#000000" stroke="#000000" points="1825.7695,-412.7465 1828.3217,-402.4637 1819.914,-408.9106 1825.7695,-412.7465"/>
<text text-anchor="start" x="1071" y="-599.0754" font-family="arial" font-size="14.00" fill="#377eb8">true</text>
</g>
<!-- st012&#45;&gt;st -->
<g id="edge18" class="edge">
<title>st012&#45;&gt;st</title>
<path fill="none" stroke="#000000" d="M523.0818,-577.6079C529.1417,-578.8681 535.1583,-580.1014 541,-581.2754 560.058,-585.1053 564.7028,-586.9316 584,-589.2754 690.9494,-602.2651 718.4065,-597.748 826,-603.2754 934.855,-608.8675 962.0288,-611.8303 1071,-614.2754 1320.372,-619.8707 1382.9698,-612.4759 1632,-598.2754 1855.6164,-585.5239 1916.371,-615.9404 2135,-567.2754 2155.0595,-562.8103 2160.6939,-561.3578 2178,-550.2754 2183.0135,-547.0648 2187.9532,-543.2446 2192.6188,-539.2259"/>
<polygon fill="#000000" stroke="#000000" points="2195.1365,-541.667 2200.1764,-532.3477 2190.4249,-536.49 2195.1365,-541.667"/>
<text text-anchor="start" x="1364.5" y="-617.0754" font-family="arial" font-size="14.00" fill="#377eb8">U&#39;</text>
</g>
<!-- st02 -->
<g id="node10" class="node">
<title>st02</title>
<polygon fill="none" stroke="#000000" points="765,-519.2754 584,-519.2754 584,-469.2754 765,-469.2754 765,-519.2754"/>
<text text-anchor="start" x="659.5" y="-505.0754" font-family="arial" font-weight="bold" font-size="14.00" fill="#000000">st02</text>
<text text-anchor="start" x="592" y="-491.0754" font-family="arial" font-size="14.00" fill="#984ea3">(!Q &amp;&amp; (!R &amp;&amp; (!T &amp;&amp; !U)))</text>
<text text-anchor="start" x="662" y="-477.0754" font-family="arial" font-size="14.00" fill="#ff7f00">true</text>
</g>
<!-- st012&#45;&gt;st02 -->
<g id="edge20" class="edge">
<title>st012&#45;&gt;st02</title>
<path fill="none" stroke="#000000" d="M493.5134,-533.1854C508.783,-527.3524 525.3383,-521.5938 541,-517.2754 551.6091,-514.3501 562.8001,-511.7257 574.0059,-509.3901"/>
<polygon fill="#000000" stroke="#000000" points="574.7294,-512.8147 583.8429,-507.4115 573.349,-505.9522 574.7294,-512.8147"/>
<text text-anchor="start" x="541" y="-521.0754" font-family="arial" font-size="14.00" fill="#377eb8">true</text>
</g>
<!-- st0234 -->
<g id="node11" class="node">
<title>st0234</title>
<polygon fill="none" stroke="#000000" points="1053,-259.2754 826,-259.2754 826,-209.2754 1053,-209.2754 1053,-259.2754"/>
<text text-anchor="start" x="916.5" y="-245.0754" font-family="arial" font-weight="bold" font-size="14.00" fill="#000000">st0234</text>
<text text-anchor="start" x="834" y="-231.0754" font-family="arial" font-size="14.00" fill="#984ea3">(!Q &amp;&amp; (!R &amp;&amp; (!S &amp;&amp; (T &amp;&amp; !U))))</text>
<text text-anchor="start" x="927" y="-217.0754" font-family="arial" font-size="14.00" fill="#ff7f00">true</text>
</g>
<!-- st012&#45;&gt;st0234 -->
<g id="edge21" class="edge">
<title>st012&#45;&gt;st0234</title>
<path fill="none" stroke="#000000" d="M518.1113,-533.0148C519.8272,-531.5246 521.4618,-529.9465 523,-528.2754 598.9944,-445.7123 500.522,-358.2636 584,-283.2754 617.5827,-253.1081 727.0613,-241.3931 815.749,-236.9064"/>
<polygon fill="#000000" stroke="#000000" points="816.0841,-240.3945 825.9048,-236.4193 815.7486,-233.4025 816.0841,-240.3945"/>
<text text-anchor="start" x="662" y="-287.0754" font-family="arial" font-size="14.00" fill="#377eb8">true</text>
</g>
<!-- _st01234 -->
<!-- _st01234&#45;&gt;st01234 -->
<g id="edge4" class="edge">
<title>_st01234&#45;&gt;st01234</title>
<path fill="none" stroke="#000000" d="M1555.736,-417.8179C1596.5345,-412.0699 1662.8777,-402.7229 1721.5861,-394.4516"/>
<polygon fill="#000000" stroke="#000000" points="1722.2782,-397.8887 1731.6921,-393.0278 1721.3016,-390.9572 1722.2782,-397.8887"/>
</g>
<!-- st01234&#45;&gt;st0 -->
<g id="edge49" class="edge">
<title>st01234&#45;&gt;st0</title>
<path fill="none" stroke="#000000" d="M1831.2023,-402.4269C1794.3598,-473.7661 1677.428,-672.2754 1517,-672.2754 434.5,-672.2754 434.5,-672.2754 434.5,-672.2754 340.3943,-672.2754 250.0982,-597.1452 204.7694,-552.5252"/>
<polygon fill="#000000" stroke="#000000" points="207.1686,-549.9746 197.6242,-545.3751 202.2171,-554.9226 207.1686,-549.9746"/>
<text text-anchor="start" x="932.5" y="-676.0754" font-family="arial" font-size="14.00" fill="#377eb8">R&#39;</text>
</g>
<!-- st01234&#45;&gt;st01234 -->
<g id="edge53" class="edge">
<title>st01234&#45;&gt;st01234</title>
<path fill="none" stroke="#000000" d="M1813.6172,-402.451C1812.2891,-412.1849 1822.25,-420.2754 1843.5,-420.2754 1857.1133,-420.2754 1866.0935,-416.955 1870.4407,-412.0094"/>
<polygon fill="#000000" stroke="#000000" points="1873.7861,-413.0381 1873.3828,-402.451 1867.0958,-410.9788 1873.7861,-413.0381"/>
<text text-anchor="start" x="1831" y="-424.0754" font-family="arial" font-size="14.00" fill="#377eb8">true</text>
</g>
<!-- st01234&#45;&gt;st -->
<g id="edge47" class="edge">
<title>st01234&#45;&gt;st</title>
<path fill="none" stroke="#000000" d="M1916.6714,-402.3407C1997.2629,-429.9477 2123.6625,-473.2467 2185.8756,-494.5582"/>
<polygon fill="#000000" stroke="#000000" points="2185.0555,-497.9768 2195.6501,-497.9065 2187.324,-491.3546 2185.0555,-497.9768"/>
<text text-anchor="start" x="2063" y="-480.0754" font-family="arial" font-size="14.00" fill="#377eb8">(R&#39; &amp;&amp; U&#39;)</text>
</g>
<!-- st01234&#45;&gt;st0234 -->
<g id="edge51" class="edge">
<title>st01234&#45;&gt;st0234</title>
<path fill="none" stroke="#000000" d="M1731.9314,-381.3848C1586.6206,-383.6885 1326.1157,-377.3261 1114,-315.2754 1071.6593,-302.8893 1026.5577,-281.7221 992.8153,-264.1322"/>
<polygon fill="#000000" stroke="#000000" points="994.0889,-260.8469 983.6111,-259.276 990.8224,-267.038 994.0889,-260.8469"/>
<text text-anchor="start" x="1359" y="-370.0754" font-family="arial" font-size="14.00" fill="#377eb8">true</text>
</g>
<!-- st4 -->
<g id="node12" class="node">
<title>st4</title>
<polygon fill="none" stroke="#000000" points="2135,-146.2754 2055,-146.2754 2055,-96.2754 2135,-96.2754 2135,-146.2754"/>
<text text-anchor="start" x="2084" y="-132.0754" font-family="arial" font-weight="bold" font-size="14.00" fill="#000000">st4</text>
<text text-anchor="start" x="2063" y="-118.0754" font-family="arial" font-size="14.00" fill="#984ea3">(!R &amp;&amp; !S)</text>
<text text-anchor="start" x="2082.5" y="-104.0754" font-family="arial" font-size="14.00" fill="#ff7f00">true</text>
</g>
<!-- st01234&#45;&gt;st4 -->
<g id="edge48" class="edge">
<title>st01234&#45;&gt;st4</title>
<path fill="none" stroke="#000000" d="M1868.0728,-352.2629C1913.9,-305.6158 2012.3551,-205.399 2063.1854,-153.6592"/>
<polygon fill="#000000" stroke="#000000" points="2065.8161,-155.9757 2070.3275,-146.3894 2060.8226,-151.07 2065.8161,-155.9757"/>
<text text-anchor="start" x="1998" y="-246.0754" font-family="arial" font-size="14.00" fill="#377eb8">U&#39;</text>
</g>
<!-- st024 -->
<g id="node13" class="node">
<title>st024</title>
<polygon fill="none" stroke="#000000" points="1632,-100.2754 1402,-100.2754 1402,-50.2754 1632,-50.2754 1632,-100.2754"/>
<text text-anchor="start" x="1498" y="-86.0754" font-family="arial" font-weight="bold" font-size="14.00" fill="#000000">st024</text>
<text text-anchor="start" x="1410" y="-72.0754" font-family="arial" font-size="14.00" fill="#984ea3">(!Q &amp;&amp; (!R &amp;&amp; (!S &amp;&amp; (!T &amp;&amp; !U))))</text>
<text text-anchor="start" x="1504.5" y="-58.0754" font-family="arial" font-size="14.00" fill="#ff7f00">true</text>
</g>
<!-- st01234&#45;&gt;st024 -->
<g id="edge50" class="edge">
<title>st01234&#45;&gt;st024</title>
<path fill="none" stroke="#000000" d="M1823.1051,-352.2089C1798.5061,-322.5591 1755.2971,-272.3046 1714,-233.2754 1699.831,-219.8844 1610.2497,-148.8273 1556.8894,-106.7014"/>
<polygon fill="#000000" stroke="#000000" points="1558.9914,-103.9017 1548.9731,-100.4543 1554.655,-109.3968 1558.9914,-103.9017"/>
<text text-anchor="start" x="1669.5" y="-237.0754" font-family="arial" font-size="14.00" fill="#377eb8">true</text>
</g>
<!-- st0124 -->
<g id="node14" class="node">
<title>st0124</title>
<polygon fill="none" stroke="#000000" points="1341,-241.2754 1114,-241.2754 1114,-191.2754 1341,-191.2754 1341,-241.2754"/>
<text text-anchor="start" x="1204.5" y="-227.0754" font-family="arial" font-weight="bold" font-size="14.00" fill="#000000">st0124</text>
<text text-anchor="start" x="1122" y="-213.0754" font-family="arial" font-size="14.00" fill="#984ea3">(Q &amp;&amp; (!R &amp;&amp; (!S &amp;&amp; (!T &amp;&amp; !U))))</text>
<text text-anchor="start" x="1215" y="-199.0754" font-family="arial" font-size="14.00" fill="#ff7f00">true</text>
</g>
<!-- st01234&#45;&gt;st0124 -->
<g id="edge52" class="edge">
<title>st01234&#45;&gt;st0124</title>
<path fill="none" stroke="#000000" d="M1812.0754,-352.1328C1772.6321,-322.1627 1701.6691,-273.3642 1632,-251.2754 1515.999,-214.4968 1480.1836,-241.3847 1359,-230.2754 1356.4493,-230.0415 1353.8713,-229.8015 1351.273,-229.5562"/>
<polygon fill="#000000" stroke="#000000" points="1351.4549,-226.0577 1341.1663,-228.5864 1350.7863,-233.0257 1351.4549,-226.0577"/>
<text text-anchor="start" x="1504.5" y="-255.0754" font-family="arial" font-size="14.00" fill="#377eb8">true</text>
</g>
<!-- st&#45;&gt;st -->
<g id="edge7" class="edge">
<title>st&#45;&gt;st</title>
<path fill="none" stroke="#000000" d="M2212.541,-532.451C2212.0762,-542.1849 2215.5625,-550.2754 2223,-550.2754 2227.5322,-550.2754 2230.5972,-547.271 2232.195,-542.7213"/>
<polygon fill="#000000" stroke="#000000" points="2235.7112,-542.8037 2233.459,-532.451 2228.7636,-541.9486 2235.7112,-542.8037"/>
<text text-anchor="start" x="2210.5" y="-554.0754" font-family="arial" font-size="14.00" fill="#377eb8">true</text>
</g>
<!-- st02&#45;&gt;st0 -->
<g id="edge13" class="edge">
<title>st02&#45;&gt;st0</title>
<path fill="none" stroke="#000000" d="M583.8477,-497.8054C503.049,-501.1406 381.589,-506.6178 276,-513.2754 273.4549,-513.4358 270.874,-513.6005 268.2696,-513.7683"/>
<polygon fill="#000000" stroke="#000000" points="267.8833,-510.2859 258.1323,-514.4293 268.3389,-517.2711 267.8833,-510.2859"/>
<text text-anchor="start" x="408.5" y="-513.0754" font-family="arial" font-size="14.00" fill="#377eb8">(R&#39; || U&#39;)</text>
</g>
<!-- st02&#45;&gt;st012 -->
<g id="edge16" class="edge">
<title>st02&#45;&gt;st012</title>
<path fill="none" stroke="#000000" d="M616.1053,-519.3837C600.0822,-525.5813 582.5582,-531.7364 566,-536.2754 555.3815,-539.1861 544.169,-541.7747 532.9499,-544.0604"/>
<polygon fill="#000000" stroke="#000000" points="532.2432,-540.6323 523.1038,-545.9916 533.5905,-547.5014 532.2432,-540.6323"/>
<text text-anchor="start" x="541" y="-546.0754" font-family="arial" font-size="14.00" fill="#377eb8">true</text>
</g>
<!-- st02&#45;&gt;st01234 -->
<g id="edge17" class="edge">
<title>st02&#45;&gt;st01234</title>
<path fill="none" stroke="#000000" d="M765.2708,-498.6635C936.5034,-505.0603 1318.1942,-510.3453 1632,-450.2754 1681.5525,-440.7898 1735.2656,-422.1385 1776.1622,-406.0637"/>
<polygon fill="#000000" stroke="#000000" points="1777.4786,-409.3069 1785.4778,-402.3597 1774.8922,-402.8022 1777.4786,-409.3069"/>
<text text-anchor="start" x="1215" y="-505.0754" font-family="arial" font-size="14.00" fill="#377eb8">true</text>
</g>
<!-- st02&#45;&gt;st -->
<g id="edge12" class="edge">
<title>st02&#45;&gt;st</title>
<path fill="none" stroke="#000000" d="M765.2368,-511.9393C771.2352,-512.8168 777.1962,-513.6086 783,-514.2754 802.0068,-516.4589 806.8875,-515.4178 826,-516.2754 1206.417,-533.3438 1301.2003,-553.2754 1682,-553.2754 1682,-553.2754 1682,-553.2754 2095,-553.2754 2127.2456,-553.2754 2161.5108,-540.1868 2186.466,-527.973"/>
<polygon fill="#000000" stroke="#000000" points="2188.2165,-531.0097 2195.5509,-523.3639 2185.0494,-524.7671 2188.2165,-531.0097"/>
<text text-anchor="start" x="1510" y="-556.0754" font-family="arial" font-size="14.00" fill="#377eb8">U&#39;</text>
</g>
<!-- st02&#45;&gt;st02 -->
<g id="edge14" class="edge">
<title>st02&#45;&gt;st02</title>
<path fill="none" stroke="#000000" d="M652.0879,-519.451C651.0918,-529.1849 658.5625,-537.2754 674.5,-537.2754 684.4609,-537.2754 691.1145,-534.115 694.4608,-529.3683"/>
<polygon fill="#000000" stroke="#000000" points="697.9102,-529.9987 696.9121,-519.451 691.1147,-528.319 697.9102,-529.9987"/>
<text text-anchor="start" x="662" y="-541.0754" font-family="arial" font-size="14.00" fill="#377eb8">true</text>
</g>
<!-- st02&#45;&gt;st0234 -->
<g id="edge15" class="edge">
<title>st02&#45;&gt;st0234</title>
<path fill="none" stroke="#000000" d="M700.3918,-468.8721C748.9022,-421.277 853.3797,-318.7707 906.7176,-266.4392"/>
<polygon fill="#000000" stroke="#000000" points="909.2063,-268.9008 913.8932,-259.399 904.3039,-263.9041 909.2063,-268.9008"/>
<text text-anchor="start" x="783" y="-392.0754" font-family="arial" font-size="14.00" fill="#377eb8">true</text>
</g>
<!-- st0234&#45;&gt;st0 -->
<g id="edge42" class="edge">
<title>st0234&#45;&gt;st0</title>
<path fill="none" stroke="#000000" d="M825.8098,-212.746C681.6273,-192.3053 432.9383,-180.8758 276,-306.2754 218.9865,-351.8313 192.2412,-437.0758 181.1981,-485.0836"/>
<polygon fill="#000000" stroke="#000000" points="177.7426,-484.5014 179.0151,-495.0196 184.5795,-486.0036 177.7426,-484.5014"/>
<text text-anchor="start" x="546.5" y="-211.0754" font-family="arial" font-size="14.00" fill="#377eb8">R&#39;</text>
</g>
<!-- st0234&#45;&gt;st01234 -->
<g id="edge46" class="edge">
<title>st0234&#45;&gt;st01234</title>
<path fill="none" stroke="#000000" d="M1020.17,-259.3935C1049.4994,-267.8698 1083.0437,-276.8105 1114,-283.2754 1227.1929,-306.9144 1545.3396,-344.1528 1721.7952,-363.9175"/>
<polygon fill="#000000" stroke="#000000" points="1721.5818,-367.4153 1731.9088,-365.0485 1722.3598,-360.4587 1721.5818,-367.4153"/>
<text text-anchor="start" x="1359" y="-327.0754" font-family="arial" font-size="14.00" fill="#377eb8">true</text>
</g>
<!-- st0234&#45;&gt;st -->
<g id="edge40" class="edge">
<title>st0234&#45;&gt;st</title>
<path fill="none" stroke="#000000" d="M947.4157,-259.6847C966.0844,-314.6843 1018.6251,-444.0108 1114,-496.2754 1224.7125,-556.9447 1555.7541,-507.2754 1682,-507.2754 1682,-507.2754 1682,-507.2754 2095,-507.2754 2125.3333,-507.2754 2159.7101,-507.2754 2185.1945,-507.2754"/>
<polygon fill="#000000" stroke="#000000" points="2185.5342,-510.7755 2195.5342,-507.2754 2185.5341,-503.7755 2185.5342,-510.7755"/>
<text text-anchor="start" x="1650" y="-512.0754" font-family="arial" font-size="14.00" fill="#377eb8">(R&#39; &amp;&amp; U&#39;)</text>
</g>
<!-- st0234&#45;&gt;st0234 -->
<g id="edge44" class="edge">
<title>st0234&#45;&gt;st0234</title>
<path fill="none" stroke="#000000" d="M912.6055,-259.451C911.4102,-269.1849 920.375,-277.2754 939.5,-277.2754 951.4531,-277.2754 959.4374,-274.115 963.4529,-269.3683"/>
<polygon fill="#000000" stroke="#000000" points="966.9063,-270.0335 966.3945,-259.451 960.1953,-268.0428 966.9063,-270.0335"/>
<text text-anchor="start" x="927" y="-281.0754" font-family="arial" font-size="14.00" fill="#377eb8">true</text>
</g>
<!-- st0234&#45;&gt;st4 -->
<g id="edge41" class="edge">
<title>st0234&#45;&gt;st4</title>
<path fill="none" stroke="#000000" d="M956.5329,-209.0385C984.4754,-169.7876 1043.9953,-94.7399 1114,-57.2754 1212.1436,-4.7516 1248.2936,-16.8944 1359,-5.2754 1618.9591,22.0083 1927.0921,-66.0533 2045.3817,-104.3675"/>
<polygon fill="#000000" stroke="#000000" points="2044.3101,-107.6993 2054.9026,-107.4772 2046.4834,-101.0453 2044.3101,-107.6993"/>
<text text-anchor="start" x="1510" y="-15.0754" font-family="arial" font-size="14.00" fill="#377eb8">U&#39;</text>
</g>
<!-- st0234&#45;&gt;st024 -->
<g id="edge43" class="edge">
<title>st0234&#45;&gt;st024</title>
<path fill="none" stroke="#000000" d="M961.2894,-209.0927C991.6644,-176.0276 1050.2287,-119.3602 1114,-95.2754 1202.455,-61.8681 1309.6662,-58.1291 1391.2648,-62.0601"/>
<polygon fill="#000000" stroke="#000000" points="1391.4202,-65.5731 1401.5907,-62.6049 1391.789,-58.5828 1391.4202,-65.5731"/>
<text text-anchor="start" x="1215" y="-99.0754" font-family="arial" font-size="14.00" fill="#377eb8">true</text>
</g>
<!-- st0234&#45;&gt;st0124 -->
<g id="edge45" class="edge">
<title>st0234&#45;&gt;st0124</title>
<path fill="none" stroke="#000000" d="M1053.193,-227.8827C1067.6036,-227.0296 1082.1478,-226.1477 1096,-225.2754 1098.5479,-225.1149 1101.1234,-224.9514 1103.7194,-224.7853"/>
<polygon fill="#000000" stroke="#000000" points="1104.0645,-228.2704 1113.8182,-224.1333 1103.6134,-221.2849 1104.0645,-228.2704"/>
<text text-anchor="start" x="1071" y="-231.0754" font-family="arial" font-size="14.00" fill="#377eb8">true</text>
</g>
<!-- st4&#45;&gt;st -->
<g id="edge24" class="edge">
<title>st4&#45;&gt;st</title>
<path fill="none" stroke="#000000" d="M2135.3496,-139.7762C2151.1654,-149.0818 2167.9089,-161.9075 2178,-178.2754 2207.9177,-226.8022 2218.4671,-396.7094 2221.7182,-471.489"/>
<polygon fill="#000000" stroke="#000000" points="2218.2347,-471.9598 2222.1464,-481.8061 2225.2287,-471.6695 2218.2347,-471.9598"/>
<text text-anchor="start" x="2158.5" y="-182.0754" font-family="arial" font-size="14.00" fill="#377eb8">R&#39;</text>
</g>
<!-- st4&#45;&gt;st4 -->
<g id="edge25" class="edge">
<title>st4&#45;&gt;st4</title>
<path fill="none" stroke="#000000" d="M2081.9263,-146.451C2081.3452,-156.1849 2085.7031,-164.2754 2095,-164.2754 2100.8105,-164.2754 2104.6918,-161.115 2106.6438,-156.3683"/>
<polygon fill="#000000" stroke="#000000" points="2110.1107,-156.8481 2108.0737,-146.451 2103.1824,-155.8491 2110.1107,-156.8481"/>
<text text-anchor="start" x="2082.5" y="-168.0754" font-family="arial" font-size="14.00" fill="#377eb8">true</text>
</g>
<!-- st024&#45;&gt;st0 -->
<g id="edge28" class="edge">
<title>st024&#45;&gt;st0</title>
<path fill="none" stroke="#000000" d="M1432.9545,-50.2236C1375.6125,-35.3133 1297.6332,-19.2754 1227.5,-19.2754 434.5,-19.2754 434.5,-19.2754 434.5,-19.2754 224.4629,-19.2754 183.8762,-370.4699 176.2285,-484.7839"/>
<polygon fill="#000000" stroke="#000000" points="172.7153,-484.8891 175.5867,-495.0873 179.7018,-485.3243 172.7153,-484.8891"/>
<text text-anchor="start" x="788.5" y="-23.0754" font-family="arial" font-size="14.00" fill="#377eb8">R&#39;</text>
</g>
<!-- st024&#45;&gt;st01234 -->
<g id="edge32" class="edge">
<title>st024&#45;&gt;st01234</title>
<path fill="none" stroke="#000000" d="M1632.163,-98.5577C1671.5985,-107.5557 1707.5229,-117.3344 1714,-124.2754 1745.4068,-157.9313 1713.8467,-183.9721 1732,-226.2754 1751.323,-271.3044 1786.4131,-315.5304 1812.0824,-344.3622"/>
<polygon fill="#000000" stroke="#000000" points="1809.75,-347.0015 1819.0517,-352.0739 1814.9434,-342.308 1809.75,-347.0015"/>
<text text-anchor="start" x="1669.5" y="-128.0754" font-family="arial" font-size="14.00" fill="#377eb8">true</text>
</g>
<!-- st024&#45;&gt;st -->
<g id="edge26" class="edge">
<title>st024&#45;&gt;st</title>
<path fill="none" stroke="#000000" d="M1619.8372,-50.2563C1748.6102,-24.7194 1972.0722,.0294 2135,-87.2754 2164.5581,-103.114 2166.0077,-117.9588 2178,-149.2754 2200.4116,-207.8007 2215.2798,-393.5396 2220.7052,-471.8798"/>
<polygon fill="#000000" stroke="#000000" points="2217.2364,-472.4577 2221.4079,-482.1968 2224.2202,-471.982 2217.2364,-472.4577"/>
<text text-anchor="start" x="1973" y="-52.0754" font-family="arial" font-size="14.00" fill="#377eb8">(R&#39; &amp;&amp; U&#39;)</text>
</g>
<!-- st024&#45;&gt;st0234 -->
<g id="edge30" class="edge">
<title>st024&#45;&gt;st0234</title>
<path fill="none" stroke="#000000" d="M1401.7377,-99.7915C1387.3378,-102.9389 1372.8212,-106.1526 1359,-109.2754 1249.8526,-133.9358 1220.9164,-134.2577 1114,-167.2754 1078.7348,-178.1659 1040.3617,-192.6041 1008.6028,-205.2881"/>
<polygon fill="#000000" stroke="#000000" points="1006.9415,-202.1837 998.9697,-209.1624 1009.5535,-208.6782 1006.9415,-202.1837"/>
<text text-anchor="start" x="1215" y="-171.0754" font-family="arial" font-size="14.00" fill="#377eb8">true</text>
</g>
<!-- st024&#45;&gt;st4 -->
<g id="edge27" class="edge">
<title>st024&#45;&gt;st4</title>
<path fill="none" stroke="#000000" d="M1632.2313,-84.446C1757.9665,-94.4526 1953.5008,-110.0142 2044.8263,-117.2823"/>
<polygon fill="#000000" stroke="#000000" points="2044.6647,-120.7804 2054.9109,-118.0849 2045.2201,-113.8025 2044.6647,-120.7804"/>
<text text-anchor="start" x="1836.5" y="-114.0754" font-family="arial" font-size="14.00" fill="#377eb8">U&#39;</text>
</g>
<!-- st024&#45;&gt;st024 -->
<g id="edge29" class="edge">
<title>st024&#45;&gt;st024</title>
<path fill="none" stroke="#000000" d="M1490.1055,-100.451C1488.9102,-110.1849 1497.875,-118.2754 1517,-118.2754 1528.9531,-118.2754 1536.9374,-115.115 1540.9529,-110.3683"/>
<polygon fill="#000000" stroke="#000000" points="1544.4063,-111.0335 1543.8945,-100.451 1537.6953,-109.0428 1544.4063,-111.0335"/>
<text text-anchor="start" x="1504.5" y="-122.0754" font-family="arial" font-size="14.00" fill="#377eb8">true</text>
</g>
<!-- st024&#45;&gt;st0124 -->
<g id="edge31" class="edge">
<title>st024&#45;&gt;st0124</title>
<path fill="none" stroke="#000000" d="M1465.569,-100.3247C1415.904,-124.5138 1340.6912,-161.146 1288.1345,-186.7435"/>
<polygon fill="#000000" stroke="#000000" points="1286.381,-183.7044 1278.9232,-191.2299 1289.4462,-189.9977 1286.381,-183.7044"/>
<text text-anchor="start" x="1359" y="-154.0754" font-family="arial" font-size="14.00" fill="#377eb8">true</text>
</g>
<!-- st0124&#45;&gt;st0 -->
<g id="edge35" class="edge">
<title>st0124&#45;&gt;st0</title>
<path fill="none" stroke="#000000" d="M1187.2805,-241.356C1152.9813,-261.3709 1101.6403,-288.1553 1053,-301.2754 942.2043,-331.161 910.2556,-320.2754 795.5,-320.2754 434.5,-320.2754 434.5,-320.2754 434.5,-320.2754 326.7057,-320.2754 236.1745,-429.6141 196.3087,-486.6042"/>
<polygon fill="#000000" stroke="#000000" points="193.3554,-484.7219 190.5742,-494.9452 199.1237,-488.6877 193.3554,-484.7219"/>
<text text-anchor="start" x="667.5" y="-324.0754" font-family="arial" font-size="14.00" fill="#377eb8">R&#39;</text>
</g>
<!-- st0124&#45;&gt;st01234 -->
<g id="edge39" class="edge">
<title>st0124&#45;&gt;st01234</title>
<path fill="none" stroke="#000000" d="M1298.3136,-241.3306C1317.8263,-247.713 1339.1014,-254.196 1359,-259.2754 1514.4953,-298.9677 1559.8945,-280.4896 1714,-325.2754 1735.3896,-331.4916 1758.1186,-339.9498 1778.4659,-348.2379"/>
<polygon fill="#000000" stroke="#000000" points="1777.3606,-351.5682 1787.9393,-352.1533 1780.0344,-345.0989 1777.3606,-351.5682"/>
<text text-anchor="start" x="1504.5" y="-308.0754" font-family="arial" font-size="14.00" fill="#377eb8">true</text>
</g>
<!-- st0124&#45;&gt;st -->
<g id="edge33" class="edge">
<title>st0124&#45;&gt;st</title>
<path fill="none" stroke="#000000" d="M1341.3115,-210.9569C1549.9893,-202.0837 1977.9541,-188.2887 2037,-221.2754 2136.1454,-276.6641 2191.1166,-409.5246 2212.4663,-472.7326"/>
<polygon fill="#000000" stroke="#000000" points="2209.151,-473.855 2215.6058,-482.2566 2215.7991,-471.6635 2209.151,-473.855"/>
<text text-anchor="start" x="1811.5" y="-210.0754" font-family="arial" font-size="14.00" fill="#377eb8">(R&#39; &amp;&amp; U&#39;)</text>
</g>
<!-- st0124&#45;&gt;st0234 -->
<g id="edge37" class="edge">
<title>st0124&#45;&gt;st0234</title>
<path fill="none" stroke="#000000" d="M1113.7268,-208.4903C1099.3296,-208.5116 1084.8105,-209.0254 1071,-210.2754 1068.4215,-210.5087 1065.818,-210.7673 1063.1966,-211.0485"/>
<polygon fill="#000000" stroke="#000000" points="1062.5373,-207.6017 1053.0116,-212.2396 1063.3505,-214.5543 1062.5373,-207.6017"/>
<text text-anchor="start" x="1071" y="-214.0754" font-family="arial" font-size="14.00" fill="#377eb8">true</text>
</g>
<!-- st0124&#45;&gt;st4 -->
<g id="edge34" class="edge">
<title>st0124&#45;&gt;st4</title>
<path fill="none" stroke="#000000" d="M1341.3263,-194.5945C1361.4917,-191.1709 1382.3281,-187.9006 1402,-185.2754 1682.8669,-147.7926 1755.1982,-157.9214 2037,-128.2754 2039.5154,-128.0107 2042.0911,-127.7312 2044.6915,-127.4423"/>
<polygon fill="#000000" stroke="#000000" points="2045.2297,-130.9037 2054.7684,-126.2923 2044.436,-123.9488 2045.2297,-130.9037"/>
<text text-anchor="start" x="1675" y="-163.0754" font-family="arial" font-size="14.00" fill="#377eb8">U&#39;</text>
</g>
<!-- st0124&#45;&gt;st024 -->
<g id="edge36" class="edge">
<title>st0124&#45;&gt;st024</title>
<path fill="none" stroke="#000000" d="M1262.5634,-191.0604C1299.7197,-164.4043 1353.7731,-125.8342 1359,-123.2754 1374.1746,-115.8467 1390.7359,-109.2946 1407.2414,-103.609"/>
<polygon fill="#000000" stroke="#000000" points="1408.5705,-106.855 1416.9421,-100.3615 1406.3483,-100.2171 1408.5705,-106.855"/>
<text text-anchor="start" x="1359" y="-127.0754" font-family="arial" font-size="14.00" fill="#377eb8">true</text>
</g>
<!-- st0124&#45;&gt;st0124 -->
<g id="edge38" class="edge">
<title>st0124&#45;&gt;st0124</title>
<path fill="none" stroke="#000000" d="M1200.6055,-241.451C1199.4102,-251.1849 1208.375,-259.2754 1227.5,-259.2754 1239.4531,-259.2754 1247.4374,-256.115 1251.4529,-251.3683"/>
<polygon fill="#000000" stroke="#000000" points="1254.9063,-252.0335 1254.3945,-241.451 1248.1953,-250.0428 1254.9063,-252.0335"/>
<text text-anchor="start" x="1215" y="-263.0754" font-family="arial" font-size="14.00" fill="#377eb8">true</text>
</g>
</g>
</svg>
