<?xml version="1.0" encoding="UTF-8" standalone="no"?>
<!DOCTYPE svg PUBLIC "-//W3C//DTD SVG 1.1//EN"
 "http://www.w3.org/Graphics/SVG/1.1/DTD/svg11.dtd">
<!-- Generated by graphviz version 2.43.0 (0)
 -->
<!-- Title: G Pages: 1 -->
<svg width="1016pt" height="283pt"
 viewBox="0.00 0.00 1016.00 283.31" xmlns="http://www.w3.org/2000/svg" xmlns:xlink="http://www.w3.org/1999/xlink">
<g id="graph0" class="graph" transform="scale(1 1) rotate(0) translate(4 279.31)">
<title>G</title>
<polygon fill="white" stroke="transparent" points="-4,4 -4,-279.31 1012,-279.31 1012,4 -4,4"/>
<!-- _ID_91_ct0_st0 -->
<!-- ID_91_ct0_st0 -->
<g id="node2" class="node">
<title>ID_91_ct0_st0</title>
<polygon fill="none" stroke="black" points="261,-204.31 154,-204.31 154,-154.31 261,-154.31 261,-204.31"/>
<text text-anchor="start" x="162" y="-190.11" font-family="arial" font-weight="bold" font-size="14.00">ID_91_ct0_st0</text>
<text text-anchor="start" x="199.5" y="-176.11" font-family="arial" font-size="14.00" fill="#984ea3">!Q</text>
<text text-anchor="start" x="195.5" y="-162.11" font-family="arial" font-size="14.00" fill="#ff7f00">true</text>
</g>
<!-- _ID_91_ct0_st0&#45;&gt;ID_91_ct0_st0 -->
<g id="edge1" class="edge">
<title>_ID_91_ct0_st0&#45;&gt;ID_91_ct0_st0</title>
<path fill="none" stroke="black" d="M111.08,-179.31C121.62,-179.31 132.74,-179.31 143.52,-179.31"/>
<polygon fill="black" stroke="black" points="143.72,-182.81 153.72,-179.31 143.72,-175.81 143.72,-182.81"/>
</g>
<!-- ID_91_ct0_st0&#45;&gt;ID_91_ct0_st0 -->
<g id="edge4" class="edge">
<title>ID_91_ct0_st0&#45;&gt;ID_91_ct0_st0</title>
<path fill="none" stroke="black" d="M192.93,-204.49C192.28,-214.22 197.14,-222.31 207.5,-222.31 213.97,-222.31 218.3,-219.15 220.47,-214.41"/>
<polygon fill="black" stroke="black" points="223.94,-214.92 222.07,-204.49 217.03,-213.81 223.94,-214.92"/>
<text text-anchor="start" x="195.5" y="-226.11" font-family="arial" font-size="14.00" fill="#377eb8">true</text>
</g>
<!-- ID_91_ct0_st01 -->
<g id="node4" class="node">
<title>ID_91_ct0_st01</title>
<polygon fill="none" stroke="black" points="466,-106.31 352,-106.31 352,-56.31 466,-56.31 466,-106.31"/>
<text text-anchor="start" x="360" y="-92.11" font-family="arial" font-weight="bold" font-size="14.00">ID_91_ct0_st01</text>
<text text-anchor="start" x="364.5" y="-78.11" font-family="arial" font-size="14.00" fill="#984ea3">(Q &amp;&amp; (R || S))</text>
<text text-anchor="start" x="397" y="-64.11" font-family="arial" font-size="14.00" fill="#ff7f00">true</text>
</g>
<!-- ID_91_ct0_st0&#45;&gt;ID_91_ct0_st01 -->
<g id="edge5" class="edge">
<title>ID_91_ct0_st0&#45;&gt;ID_91_ct0_st01</title>
<path fill="none" stroke="black" d="M231.41,-154.02C245.56,-139.82 264.83,-122.89 285,-112.31 302.52,-103.12 322.89,-96.57 341.96,-91.92"/>
<polygon fill="black" stroke="black" points="342.82,-95.32 351.78,-89.67 341.25,-88.49 342.82,-95.32"/>
<text text-anchor="start" x="297.5" y="-116.11" font-family="arial" font-size="14.00" fill="#377eb8">true</text>
</g>
<!-- ID_91_ct0_st012 -->
<g id="node6" class="node">
<title>ID_91_ct0_st012</title>
<polygon fill="none" stroke="black" points="1008,-169.31 837,-169.31 837,-119.31 1008,-119.31 1008,-169.31"/>
<text text-anchor="start" x="869.5" y="-155.11" font-family="arial" font-weight="bold" font-size="14.00">ID_91_ct0_st012</text>
<text text-anchor="start" x="845" y="-141.11" font-family="arial" font-size="14.00" fill="#984ea3">(Q &amp;&amp; (!R &amp;&amp; (!S &amp;&amp; !U)))</text>
<text text-anchor="start" x="910.5" y="-127.11" font-family="arial" font-size="14.00" fill="#ff7f00">true</text>
</g>
<!-- ID_91_ct0_st0&#45;&gt;ID_91_ct0_st012 -->
<g id="edge6" class="edge">
<title>ID_91_ct0_st0&#45;&gt;ID_91_ct0_st012</title>
<path fill="none" stroke="black" d="M261.26,-188.34C383,-208.42 680.46,-253.07 777,-227.31 815,-217.18 853.39,-194.4 881.04,-175.27"/>
<polygon fill="black" stroke="black" points="883.11,-178.09 889.26,-169.47 879.07,-172.37 883.11,-178.09"/>
<text text-anchor="start" x="522" y="-233.11" font-family="arial" font-size="14.00" fill="#377eb8">true</text>
</g>
<!-- _ID_91_ct0_st01 -->
<!-- _ID_91_ct0_st01&#45;&gt;ID_91_ct0_st01 -->
<g id="edge2" class="edge">
<title>_ID_91_ct0_st01&#45;&gt;ID_91_ct0_st01</title>
<path fill="none" stroke="black" d="M267.01,-79.19C290.45,-79.55 317.58,-79.95 341.74,-80.32"/>
<polygon fill="black" stroke="black" points="341.84,-83.82 351.89,-80.47 341.95,-76.82 341.84,-83.82"/>
</g>
<!-- ID_91_ct0_st01&#45;&gt;ID_91_ct0_st0 -->
<g id="edge7" class="edge">
<title>ID_91_ct0_st01&#45;&gt;ID_91_ct0_st0</title>
<path fill="none" stroke="black" d="M370.28,-106.41C358.85,-113.56 346.11,-121.09 334,-127.31 313.9,-137.64 291.26,-147.52 270.8,-155.84"/>
<polygon fill="black" stroke="black" points="269.24,-152.7 261.27,-159.68 271.85,-159.19 269.24,-152.7"/>
<text text-anchor="start" x="285" y="-152.11" font-family="arial" font-size="14.00" fill="#377eb8">(R&#39; || S&#39;)</text>
</g>
<!-- ID_91_ct0_st01&#45;&gt;ID_91_ct0_st01 -->
<g id="edge9" class="edge">
<title>ID_91_ct0_st01&#45;&gt;ID_91_ct0_st01</title>
<path fill="none" stroke="black" d="M390.7,-106.49C389.88,-116.22 395.98,-124.31 409,-124.31 417.13,-124.31 422.57,-121.15 425.3,-116.41"/>
<polygon fill="black" stroke="black" points="428.76,-116.98 427.3,-106.49 421.89,-115.6 428.76,-116.98"/>
<text text-anchor="start" x="397" y="-128.11" font-family="arial" font-size="14.00" fill="#377eb8">true</text>
</g>
<!-- ID_91_ct0_st01&#45;&gt;ID_91_ct0_st012 -->
<g id="edge10" class="edge">
<title>ID_91_ct0_st01&#45;&gt;ID_91_ct0_st012</title>
<path fill="none" stroke="black" d="M466.21,-66.28C539.25,-49.29 670.11,-27.62 777,-57.31 816.12,-68.18 855.25,-92.8 882.91,-113.08"/>
<polygon fill="black" stroke="black" points="881.01,-116.03 891.11,-119.22 885.2,-110.43 881.01,-116.03"/>
<text text-anchor="start" x="677.5" y="-61.11" font-family="arial" font-size="14.00" fill="#377eb8">true</text>
</g>
<!-- ID_91_ct0_st02 -->
<g id="node7" class="node">
<title>ID_91_ct0_st02</title>
<polygon fill="none" stroke="black" points="777,-131.31 602,-131.31 602,-81.31 777,-81.31 777,-131.31"/>
<text text-anchor="start" x="640.5" y="-117.11" font-family="arial" font-weight="bold" font-size="14.00">ID_91_ct0_st02</text>
<text text-anchor="start" x="610" y="-103.11" font-family="arial" font-size="14.00" fill="#984ea3">(!Q &amp;&amp; (!R &amp;&amp; (!S &amp;&amp; !U)))</text>
<text text-anchor="start" x="677.5" y="-89.11" font-family="arial" font-size="14.00" fill="#ff7f00">true</text>
</g>
<!-- ID_91_ct0_st01&#45;&gt;ID_91_ct0_st02 -->
<g id="edge8" class="edge">
<title>ID_91_ct0_st01&#45;&gt;ID_91_ct0_st02</title>
<path fill="none" stroke="black" d="M466.22,-78.52C500.39,-77.59 544.84,-77.76 584,-82.31 586.55,-82.61 589.12,-82.94 591.72,-83.31"/>
<polygon fill="black" stroke="black" points="591.38,-86.8 601.79,-84.88 592.45,-79.88 591.38,-86.8"/>
<text text-anchor="start" x="522" y="-86.11" font-family="arial" font-size="14.00" fill="#377eb8">true</text>
</g>
<!-- _ID_91_ct0_st012 -->
<!-- _ID_91_ct0_st012&#45;&gt;ID_91_ct0_st012 -->
<g id="edge3" class="edge">
<title>_ID_91_ct0_st012&#45;&gt;ID_91_ct0_st012</title>
<path fill="none" stroke="black" d="M752.71,-185.23C775.48,-179.71 801.78,-173.34 826.75,-167.28"/>
<polygon fill="black" stroke="black" points="827.72,-170.65 836.61,-164.89 826.07,-163.85 827.72,-170.65"/>
</g>
<!-- ID_91_ct0_st012&#45;&gt;ID_91_ct0_st0 -->
<g id="edge15" class="edge">
<title>ID_91_ct0_st012&#45;&gt;ID_91_ct0_st0</title>
<path fill="none" stroke="black" d="M896.98,-169.52C877.38,-188.47 848.4,-213.87 819,-230.31 801.83,-239.92 796.39,-240.96 777,-244.31 590.65,-276.54 537.48,-260.25 352,-223.31 322.17,-217.37 314.15,-218.01 285,-209.31 280.37,-207.93 275.63,-206.39 270.89,-204.76"/>
<polygon fill="black" stroke="black" points="271.78,-201.36 261.19,-201.3 269.43,-207.96 271.78,-201.36"/>
<text text-anchor="start" x="484" y="-264.11" font-family="arial" font-size="14.00" fill="#377eb8">(R&#39; || (S&#39; &amp;&amp; !U&#39;))</text>
</g>
<!-- ID_91_ct0_st012&#45;&gt;ID_91_ct0_st01 -->
<g id="edge17" class="edge">
<title>ID_91_ct0_st012&#45;&gt;ID_91_ct0_st01</title>
<path fill="none" stroke="black" d="M901.19,-119.16C875.75,-89.88 829.14,-43.14 777,-24.31 654.26,20.01 607.99,-2.63 484,-43.31 476.92,-45.63 469.7,-48.56 462.67,-51.76"/>
<polygon fill="black" stroke="black" points="460.76,-48.79 453.23,-56.25 463.77,-55.11 460.76,-48.79"/>
<text text-anchor="start" x="662.5" y="-28.11" font-family="arial" font-size="14.00" fill="#377eb8">(R&#39; || !U&#39;)</text>
</g>
<!-- ID_91_ct0_st012&#45;&gt;ID_91_ct0_st012 -->
<g id="edge18" class="edge">
<title>ID_91_ct0_st012&#45;&gt;ID_91_ct0_st012</title>
<path fill="none" stroke="black" d="M901.21,-169.49C900.26,-179.22 907.36,-187.31 922.5,-187.31 931.96,-187.31 938.28,-184.15 941.46,-179.41"/>
<polygon fill="black" stroke="black" points="944.91,-180.02 943.79,-169.49 938.1,-178.42 944.91,-180.02"/>
<text text-anchor="start" x="910.5" y="-191.11" font-family="arial" font-size="14.00" fill="#377eb8">true</text>
</g>
<!-- ID_91_ct0_st012&#45;&gt;ID_91_ct0_st02 -->
<g id="edge16" class="edge">
<title>ID_91_ct0_st012&#45;&gt;ID_91_ct0_st02</title>
<path fill="none" stroke="black" d="M836.64,-130.35C820.59,-127.71 803.69,-124.93 787.3,-122.24"/>
<polygon fill="black" stroke="black" points="787.61,-118.74 777.17,-120.57 786.47,-125.65 787.61,-118.74"/>
<text text-anchor="start" x="795" y="-131.11" font-family="arial" font-size="14.00" fill="#377eb8">true</text>
</g>
<!-- ID_91_ct0_st02&#45;&gt;ID_91_ct0_st0 -->
<g id="edge11" class="edge">
<title>ID_91_ct0_st02&#45;&gt;ID_91_ct0_st0</title>
<path fill="none" stroke="black" d="M601.79,-123.9C560.73,-131.92 510.94,-141.18 466,-148.31 407.58,-157.58 392.73,-158.26 334,-165.31 313.52,-167.77 291.14,-170.32 271.02,-172.55"/>
<polygon fill="black" stroke="black" points="270.59,-169.08 261.04,-173.65 271.36,-176.03 270.59,-169.08"/>
<text text-anchor="start" x="359" y="-166.11" font-family="arial" font-size="14.00" fill="#377eb8">(R&#39; || (S&#39; &amp;&amp; !U&#39;))</text>
</g>
<!-- ID_91_ct0_st02&#45;&gt;ID_91_ct0_st01 -->
<g id="edge13" class="edge">
<title>ID_91_ct0_st02&#45;&gt;ID_91_ct0_st01</title>
<path fill="none" stroke="black" d="M601.9,-105.73C565.39,-104.65 522.51,-102.29 484,-97.31 481.49,-96.99 478.94,-96.62 476.37,-96.22"/>
<polygon fill="black" stroke="black" points="476.84,-92.75 466.39,-94.53 475.67,-99.66 476.84,-92.75"/>
<text text-anchor="start" x="507" y="-109.11" font-family="arial" font-size="14.00" fill="#377eb8">(R&#39; || !U&#39;)</text>
</g>
<!-- ID_91_ct0_st02&#45;&gt;ID_91_ct0_st012 -->
<g id="edge14" class="edge">
<title>ID_91_ct0_st02&#45;&gt;ID_91_ct0_st012</title>
<path fill="none" stroke="black" d="M777.27,-103C791.3,-103.6 805.6,-104.92 819,-107.31 830.23,-109.32 841.87,-112.44 853.09,-116.03"/>
<polygon fill="black" stroke="black" points="852.22,-119.44 862.82,-119.3 854.45,-112.8 852.22,-119.44"/>
<text text-anchor="start" x="795" y="-111.11" font-family="arial" font-size="14.00" fill="#377eb8">true</text>
</g>
<!-- ID_91_ct0_st02&#45;&gt;ID_91_ct0_st02 -->
<g id="edge12" class="edge">
<title>ID_91_ct0_st02&#45;&gt;ID_91_ct0_st02</title>
<path fill="none" stroke="black" d="M667.83,-131.49C666.87,-141.22 674.09,-149.31 689.5,-149.31 699.13,-149.31 705.56,-146.15 708.8,-141.41"/>
<polygon fill="black" stroke="black" points="712.25,-142.03 711.17,-131.49 705.44,-140.4 712.25,-142.03"/>
<text text-anchor="start" x="677.5" y="-153.11" font-family="arial" font-size="14.00" fill="#377eb8">true</text>
</g>
</g>
</svg>
