<?xml version="1.0" encoding="UTF-8" standalone="no"?>
<!DOCTYPE svg PUBLIC "-//W3C//DTD SVG 1.1//EN"
 "http://www.w3.org/Graphics/SVG/1.1/DTD/svg11.dtd">
<!-- Generated by graphviz version 2.43.0 (0)
 -->
<!-- Title: G Pages: 1 -->
<svg width="859pt" height="292pt"
 viewBox="0.00 0.00 859.00 292.30" xmlns="http://www.w3.org/2000/svg" xmlns:xlink="http://www.w3.org/1999/xlink">
<g id="graph0" class="graph" transform="scale(1 1) rotate(0) translate(4 288.3)">
<title>G</title>
<polygon fill="white" stroke="transparent" points="-4,4 -4,-288.3 855,-288.3 855,4 -4,4"/>
<!-- _ID_40_ct0_st0 -->
<!-- ID_40_ct0_st0 -->
<g id="node2" class="node">
<title>ID_40_ct0_st0</title>
<polygon fill="none" stroke="black" points="261,-194.3 154,-194.3 154,-144.3 261,-144.3 261,-194.3"/>
<text text-anchor="start" x="162" y="-180.1" font-family="arial" font-weight="bold" font-size="14.00">ID_40_ct0_st0</text>
<text text-anchor="start" x="199.5" y="-166.1" font-family="arial" font-size="14.00" fill="#984ea3">!Q</text>
<text text-anchor="start" x="195.5" y="-152.1" font-family="arial" font-size="14.00" fill="#ff7f00">true</text>
</g>
<!-- _ID_40_ct0_st0&#45;&gt;ID_40_ct0_st0 -->
<g id="edge1" class="edge">
<title>_ID_40_ct0_st0&#45;&gt;ID_40_ct0_st0</title>
<path fill="none" stroke="black" d="M111.08,-169.3C121.62,-169.3 132.74,-169.3 143.52,-169.3"/>
<polygon fill="black" stroke="black" points="143.72,-172.8 153.72,-169.3 143.72,-165.8 143.72,-172.8"/>
</g>
<!-- ID_40_ct0_st0&#45;&gt;ID_40_ct0_st0 -->
<g id="edge4" class="edge">
<title>ID_40_ct0_st0&#45;&gt;ID_40_ct0_st0</title>
<path fill="none" stroke="black" d="M192.93,-194.47C192.28,-204.21 197.14,-212.3 207.5,-212.3 213.97,-212.3 218.3,-209.14 220.47,-204.39"/>
<polygon fill="black" stroke="black" points="223.94,-204.9 222.07,-194.47 217.03,-203.79 223.94,-204.9"/>
<text text-anchor="start" x="195.5" y="-216.1" font-family="arial" font-size="14.00" fill="#377eb8">true</text>
</g>
<!-- ID_40_ct0_st01 -->
<g id="node4" class="node">
<title>ID_40_ct0_st01</title>
<polygon fill="none" stroke="black" points="441,-96.3 327,-96.3 327,-46.3 441,-46.3 441,-96.3"/>
<text text-anchor="start" x="335" y="-82.1" font-family="arial" font-weight="bold" font-size="14.00">ID_40_ct0_st01</text>
<text text-anchor="start" x="356" y="-68.1" font-family="arial" font-size="14.00" fill="#984ea3">(Q &amp;&amp; R)</text>
<text text-anchor="start" x="372" y="-54.1" font-family="arial" font-size="14.00" fill="#ff7f00">true</text>
</g>
<!-- ID_40_ct0_st0&#45;&gt;ID_40_ct0_st01 -->
<g id="edge5" class="edge">
<title>ID_40_ct0_st0&#45;&gt;ID_40_ct0_st01</title>
<path fill="none" stroke="black" d="M231.98,-144.11C246.18,-130.13 265.31,-113.38 285,-102.3 294.98,-96.67 306.12,-91.92 317.21,-87.96"/>
<polygon fill="black" stroke="black" points="318.56,-91.2 326.91,-84.68 316.31,-84.57 318.56,-91.2"/>
<text text-anchor="start" x="285" y="-106.1" font-family="arial" font-size="14.00" fill="#377eb8">true</text>
</g>
<!-- ID_40_ct0_st012 -->
<g id="node6" class="node">
<title>ID_40_ct0_st012</title>
<polygon fill="none" stroke="black" points="851,-159.3 728,-159.3 728,-109.3 851,-109.3 851,-159.3"/>
<text text-anchor="start" x="736.5" y="-145.1" font-family="arial" font-weight="bold" font-size="14.00">ID_40_ct0_st012</text>
<text text-anchor="start" x="736" y="-131.1" font-family="arial" font-size="14.00" fill="#984ea3">(Q &amp;&amp; (!R &amp;&amp; !S))</text>
<text text-anchor="start" x="777.5" y="-117.1" font-family="arial" font-size="14.00" fill="#ff7f00">true</text>
</g>
<!-- ID_40_ct0_st0&#45;&gt;ID_40_ct0_st012 -->
<g id="edge6" class="edge">
<title>ID_40_ct0_st0&#45;&gt;ID_40_ct0_st012</title>
<path fill="none" stroke="black" d="M261.18,-188.15C348.01,-216.31 525.74,-261.55 668,-217.3 700.55,-207.17 732.08,-184.86 754.72,-165.91"/>
<polygon fill="black" stroke="black" points="757.03,-168.55 762.34,-159.38 752.47,-163.23 757.03,-168.55"/>
<text text-anchor="start" x="479" y="-239.1" font-family="arial" font-size="14.00" fill="#377eb8">true</text>
</g>
<!-- _ID_40_ct0_st01 -->
<!-- _ID_40_ct0_st01&#45;&gt;ID_40_ct0_st01 -->
<g id="edge2" class="edge">
<title>_ID_40_ct0_st01&#45;&gt;ID_40_ct0_st01</title>
<path fill="none" stroke="black" d="M267.09,-69.3C283.08,-69.58 300.51,-69.88 316.89,-70.16"/>
<polygon fill="black" stroke="black" points="316.87,-73.66 326.93,-70.33 316.99,-66.66 316.87,-73.66"/>
</g>
<!-- ID_40_ct0_st01&#45;&gt;ID_40_ct0_st0 -->
<g id="edge7" class="edge">
<title>ID_40_ct0_st01&#45;&gt;ID_40_ct0_st0</title>
<path fill="none" stroke="black" d="M343.79,-96.47C332.65,-103.4 320.44,-110.79 309,-117.3 295.89,-124.75 281.6,-132.41 268.02,-139.48"/>
<polygon fill="black" stroke="black" points="266.03,-136.57 258.76,-144.27 269.25,-142.79 266.03,-136.57"/>
<text text-anchor="start" x="290.5" y="-133.1" font-family="arial" font-size="14.00" fill="#377eb8">R&#39;</text>
</g>
<!-- ID_40_ct0_st01&#45;&gt;ID_40_ct0_st01 -->
<g id="edge9" class="edge">
<title>ID_40_ct0_st01&#45;&gt;ID_40_ct0_st01</title>
<path fill="none" stroke="black" d="M367.94,-96.47C367.22,-106.21 372.58,-114.3 384,-114.3 391.14,-114.3 395.91,-111.14 398.31,-106.39"/>
<polygon fill="black" stroke="black" points="401.76,-106.93 400.06,-96.47 394.87,-105.71 401.76,-106.93"/>
<text text-anchor="start" x="372" y="-118.1" font-family="arial" font-size="14.00" fill="#377eb8">true</text>
</g>
<!-- ID_40_ct0_st01&#45;&gt;ID_40_ct0_st012 -->
<g id="edge10" class="edge">
<title>ID_40_ct0_st01&#45;&gt;ID_40_ct0_st012</title>
<path fill="none" stroke="black" d="M441.24,-53.89C499.43,-38.76 592.23,-22.8 668,-47.3 701.6,-58.16 733.72,-82.27 756.33,-102.36"/>
<polygon fill="black" stroke="black" points="754.17,-105.13 763.92,-109.27 758.88,-99.95 754.17,-105.13"/>
<text text-anchor="start" x="592.5" y="-51.1" font-family="arial" font-size="14.00" fill="#377eb8">true</text>
</g>
<!-- ID_40_ct0_st02 -->
<g id="node7" class="node">
<title>ID_40_ct0_st02</title>
<polygon fill="none" stroke="black" points="668,-121.3 541,-121.3 541,-71.3 668,-71.3 668,-121.3"/>
<text text-anchor="start" x="555.5" y="-107.1" font-family="arial" font-weight="bold" font-size="14.00">ID_40_ct0_st02</text>
<text text-anchor="start" x="549" y="-93.1" font-family="arial" font-size="14.00" fill="#984ea3">(!Q &amp;&amp; (!R &amp;&amp; !S))</text>
<text text-anchor="start" x="592.5" y="-79.1" font-family="arial" font-size="14.00" fill="#ff7f00">true</text>
</g>
<!-- ID_40_ct0_st01&#45;&gt;ID_40_ct0_st02 -->
<g id="edge8" class="edge">
<title>ID_40_ct0_st01&#45;&gt;ID_40_ct0_st02</title>
<path fill="none" stroke="black" d="M441.01,-68.13C466.2,-67.63 496.22,-68.29 523,-72.3 525.52,-72.67 528.08,-73.11 530.65,-73.6"/>
<polygon fill="black" stroke="black" points="530.09,-77.06 540.6,-75.71 531.55,-70.21 530.09,-77.06"/>
<text text-anchor="start" x="479" y="-76.1" font-family="arial" font-size="14.00" fill="#377eb8">true</text>
</g>
<!-- _ID_40_ct0_st012 -->
<!-- _ID_40_ct0_st012&#45;&gt;ID_40_ct0_st012 -->
<g id="edge3" class="edge">
<title>_ID_40_ct0_st012&#45;&gt;ID_40_ct0_st012</title>
<path fill="none" stroke="black" d="M664.41,-172.27C681.51,-167.03 700.36,-161.27 718.1,-155.84"/>
<polygon fill="black" stroke="black" points="719.28,-159.14 727.81,-152.87 717.23,-152.45 719.28,-159.14"/>
</g>
<!-- ID_40_ct0_st012&#45;&gt;ID_40_ct0_st0 -->
<g id="edge15" class="edge">
<title>ID_40_ct0_st012&#45;&gt;ID_40_ct0_st0</title>
<path fill="none" stroke="black" d="M770.72,-159.45C749.81,-186.37 712.3,-226.99 668,-240.3 522.81,-283.91 471.94,-276.72 327,-232.3 302.15,-224.68 276.45,-211.74 255.37,-199.56"/>
<polygon fill="black" stroke="black" points="257.02,-196.47 246.63,-194.4 253.46,-202.5 257.02,-196.47"/>
<text text-anchor="start" x="459" y="-273.1" font-family="arial" font-size="14.00" fill="#377eb8">(R&#39; &amp;&amp; !S&#39;)</text>
</g>
<!-- ID_40_ct0_st012&#45;&gt;ID_40_ct0_st01 -->
<g id="edge17" class="edge">
<title>ID_40_ct0_st012&#45;&gt;ID_40_ct0_st01</title>
<path fill="none" stroke="black" d="M772.86,-109.29C752.81,-79.99 714.94,-33.29 668,-16.3 580.3,15.46 546.93,-4.17 459,-35.3 453.39,-37.28 447.65,-39.57 441.97,-42.02"/>
<polygon fill="black" stroke="black" points="440.19,-38.98 432.49,-46.25 443.05,-45.37 440.19,-38.98"/>
<text text-anchor="start" x="596.5" y="-20.1" font-family="arial" font-size="14.00" fill="#377eb8">!S&#39;</text>
</g>
<!-- ID_40_ct0_st012&#45;&gt;ID_40_ct0_st012 -->
<g id="edge18" class="edge">
<title>ID_40_ct0_st012&#45;&gt;ID_40_ct0_st012</title>
<path fill="none" stroke="black" d="M772.69,-159.47C771.94,-169.21 777.55,-177.3 789.5,-177.3 796.97,-177.3 801.96,-174.14 804.47,-169.39"/>
<polygon fill="black" stroke="black" points="807.93,-169.94 806.31,-159.47 801.04,-168.67 807.93,-169.94"/>
<text text-anchor="start" x="777.5" y="-181.1" font-family="arial" font-size="14.00" fill="#377eb8">true</text>
</g>
<!-- ID_40_ct0_st012&#45;&gt;ID_40_ct0_st02 -->
<g id="edge16" class="edge">
<title>ID_40_ct0_st012&#45;&gt;ID_40_ct0_st02</title>
<path fill="none" stroke="black" d="M727.72,-121.67C711.89,-118.39 694.67,-114.81 678.29,-111.41"/>
<polygon fill="black" stroke="black" points="678.72,-107.93 668.22,-109.32 677.3,-114.78 678.72,-107.93"/>
<text text-anchor="start" x="686" y="-122.1" font-family="arial" font-size="14.00" fill="#377eb8">true</text>
</g>
<!-- ID_40_ct0_st02&#45;&gt;ID_40_ct0_st0 -->
<g id="edge11" class="edge">
<title>ID_40_ct0_st02&#45;&gt;ID_40_ct0_st0</title>
<path fill="none" stroke="black" d="M540.62,-114.43C510.65,-122.59 474.18,-131.82 441,-138.3 384.03,-149.41 318.42,-157.76 271.45,-162.98"/>
<polygon fill="black" stroke="black" points="270.99,-159.51 261.43,-164.07 271.75,-166.47 270.99,-159.51"/>
<text text-anchor="start" x="352" y="-159.1" font-family="arial" font-size="14.00" fill="#377eb8">(R&#39; &amp;&amp; !S&#39;)</text>
</g>
<!-- ID_40_ct0_st02&#45;&gt;ID_40_ct0_st01 -->
<g id="edge13" class="edge">
<title>ID_40_ct0_st02&#45;&gt;ID_40_ct0_st01</title>
<path fill="none" stroke="black" d="M540.7,-94.45C515.26,-93.16 485.64,-90.98 459,-87.3 456.35,-86.93 453.64,-86.52 450.92,-86.07"/>
<polygon fill="black" stroke="black" points="451.46,-82.61 441,-84.33 450.25,-89.51 451.46,-82.61"/>
<text text-anchor="start" x="483" y="-98.1" font-family="arial" font-size="14.00" fill="#377eb8">!S&#39;</text>
</g>
<!-- ID_40_ct0_st02&#45;&gt;ID_40_ct0_st012 -->
<g id="edge14" class="edge">
<title>ID_40_ct0_st02&#45;&gt;ID_40_ct0_st012</title>
<path fill="none" stroke="black" d="M668.18,-92.53C682.08,-92.9 696.65,-94.24 710,-97.3 718.13,-99.16 726.41,-101.94 734.4,-105.16"/>
<polygon fill="black" stroke="black" points="733.05,-108.39 743.62,-109.12 735.81,-101.96 733.05,-108.39"/>
<text text-anchor="start" x="686" y="-101.1" font-family="arial" font-size="14.00" fill="#377eb8">true</text>
</g>
<!-- ID_40_ct0_st02&#45;&gt;ID_40_ct0_st02 -->
<g id="edge12" class="edge">
<title>ID_40_ct0_st02&#45;&gt;ID_40_ct0_st02</title>
<path fill="none" stroke="black" d="M587.32,-121.47C586.55,-131.21 592.28,-139.3 604.5,-139.3 612.14,-139.3 617.24,-136.14 619.8,-131.39"/>
<polygon fill="black" stroke="black" points="623.26,-131.95 621.68,-121.47 616.38,-130.64 623.26,-131.95"/>
<text text-anchor="start" x="592.5" y="-143.1" font-family="arial" font-size="14.00" fill="#377eb8">true</text>
</g>
</g>
</svg>
