<?xml version="1.0" encoding="UTF-8" standalone="no"?>
<!DOCTYPE svg PUBLIC "-//W3C//DTD SVG 1.1//EN"
 "http://www.w3.org/Graphics/SVG/1.1/DTD/svg11.dtd">
<!-- Generated by graphviz version 2.40.1 (20161225.0304)
 -->
<!-- Title: G Pages: 1 -->
<svg width="1609pt" height="578pt"
 viewBox="0.00 0.00 1609.00 578.00" xmlns="http://www.w3.org/2000/svg" xmlns:xlink="http://www.w3.org/1999/xlink">
<g id="graph0" class="graph" transform="scale(1 1) rotate(0) translate(4 574)">
<title>G</title>
<polygon fill="#ffffff" stroke="transparent" points="-4,4 -4,-574 1605,-574 1605,4 -4,4"/>
<!-- _stinit -->
<!-- stinit -->
<g id="node2" class="node">
<title>stinit</title>
<polygon fill="none" stroke="#000000" points="511,-50 457,-50 457,0 511,0 511,-50"/>
<text text-anchor="start" x="467" y="-35.8" font-family="arial" font-weight="bold" font-size="14.00" fill="#000000">stinit</text>
<text text-anchor="start" x="479" y="-21.8" font-family="arial" font-size="14.00" fill="#984ea3">T</text>
<text text-anchor="start" x="471.5" y="-7.8" font-family="arial" font-size="14.00" fill="#ff7f00">true</text>
</g>
<!-- _stinit&#45;&gt;stinit -->
<g id="edge1" class="edge">
<title>_stinit&#45;&gt;stinit</title>
<path fill="none" stroke="#000000" d="M322.0791,-25C354.78,-25 409.9555,-25 446.6758,-25"/>
<polygon fill="#000000" stroke="#000000" points="446.9712,-28.5001 456.9711,-25 446.9711,-21.5001 446.9712,-28.5001"/>
</g>
<!-- stinit&#45;&gt;stinit -->
<g id="edge6" class="edge">
<title>stinit&#45;&gt;stinit</title>
<path fill="none" stroke="#000000" d="M466.4438,-50.1756C465.6636,-59.9095 471.5156,-68 484,-68 491.8027,-68 497.0147,-64.8397 499.6359,-60.093"/>
<polygon fill="#000000" stroke="#000000" points="503.0913,-60.6586 501.5562,-50.1756 496.219,-59.3279 503.0913,-60.6586"/>
<text text-anchor="start" x="471.5" y="-71.8" font-family="arial" font-size="14.00" fill="#377eb8">true</text>
</g>
<!-- st -->
<g id="node9" class="node">
<title>st</title>
<polygon fill="none" stroke="#000000" points="723.5,-88 669.5,-88 669.5,-38 723.5,-38 723.5,-88"/>
<text text-anchor="start" x="690" y="-73.8" font-family="arial" font-weight="bold" font-size="14.00" fill="#000000">st</text>
<text text-anchor="start" x="684" y="-59.8" font-family="arial" font-size="14.00" fill="#984ea3">true</text>
<text text-anchor="start" x="684" y="-45.8" font-family="arial" font-size="14.00" fill="#ff7f00">true</text>
</g>
<!-- stinit&#45;&gt;st -->
<g id="edge5" class="edge">
<title>stinit&#45;&gt;st</title>
<path fill="none" stroke="#000000" d="M511.3456,-29.89C549.0403,-36.6307 617.0897,-48.7996 659.3605,-56.3586"/>
<polygon fill="#000000" stroke="#000000" points="658.7993,-59.8137 669.2593,-58.1287 660.0316,-52.923 658.7993,-59.8137"/>
<text text-anchor="start" x="567" y="-47.8" font-family="arial" font-size="14.00" fill="#377eb8">true</text>
</g>
<!-- _st0 -->
<!-- st0 -->
<g id="node4" class="node">
<title>st0</title>
<polygon fill="none" stroke="#000000" points="171,-236 91,-236 91,-186 171,-186 171,-236"/>
<text text-anchor="start" x="120" y="-221.8" font-family="arial" font-weight="bold" font-size="14.00" fill="#000000">st0</text>
<text text-anchor="start" x="99" y="-207.8" font-family="arial" font-size="14.00" fill="#984ea3">(!Q &amp;&amp; !T)</text>
<text text-anchor="start" x="118.5" y="-193.8" font-family="arial" font-size="14.00" fill="#ff7f00">true</text>
</g>
<!-- _st0&#45;&gt;st0 -->
<g id="edge2" class="edge">
<title>_st0&#45;&gt;st0</title>
<path fill="none" stroke="#000000" d="M54.0533,-211C62.1867,-211 71.3873,-211 80.525,-211"/>
<polygon fill="#000000" stroke="#000000" points="80.7549,-214.5001 90.7548,-211 80.7548,-207.5001 80.7549,-214.5001"/>
</g>
<!-- st0&#45;&gt;st0 -->
<g id="edge9" class="edge">
<title>st0&#45;&gt;st0</title>
<path fill="none" stroke="#000000" d="M120.1675,-236.1756C119.686,-245.9095 123.2969,-254 131,-254 135.6941,-254 138.8686,-250.9957 140.5234,-246.446"/>
<polygon fill="#000000" stroke="#000000" points="144.0399,-246.5379 141.8325,-236.1756 137.0961,-245.6528 144.0399,-246.5379"/>
<text text-anchor="start" x="118.5" y="-257.8" font-family="arial" font-size="14.00" fill="#377eb8">true</text>
</g>
<!-- st012 -->
<g id="node6" class="node">
<title>st012</title>
<polygon fill="none" stroke="#000000" points="358,-236 232,-236 232,-186 358,-186 358,-236"/>
<text text-anchor="start" x="276" y="-221.8" font-family="arial" font-weight="bold" font-size="14.00" fill="#000000">st012</text>
<text text-anchor="start" x="240" y="-207.8" font-family="arial" font-size="14.00" fill="#984ea3">(Q &amp;&amp; (!S &amp;&amp; !T))</text>
<text text-anchor="start" x="282.5" y="-193.8" font-family="arial" font-size="14.00" fill="#ff7f00">true</text>
</g>
<!-- st0&#45;&gt;st012 -->
<g id="edge10" class="edge">
<title>st0&#45;&gt;st012</title>
<path fill="none" stroke="#000000" d="M171.1189,-211C186.4181,-211 204.3761,-211 221.7981,-211"/>
<polygon fill="#000000" stroke="#000000" points="221.9699,-214.5001 231.9699,-211 221.9698,-207.5001 221.9699,-214.5001"/>
<text text-anchor="start" x="189" y="-214.8" font-family="arial" font-size="14.00" fill="#377eb8">true</text>
</g>
<!-- st01234 -->
<g id="node8" class="node">
<title>st01234</title>
<polygon fill="none" stroke="#000000" points="783,-423 610,-423 610,-373 783,-373 783,-423"/>
<text text-anchor="start" x="669" y="-408.8" font-family="arial" font-weight="bold" font-size="14.00" fill="#000000">st01234</text>
<text text-anchor="start" x="618" y="-394.8" font-family="arial" font-size="14.00" fill="#984ea3">(Q &amp;&amp; (!R &amp;&amp; (S &amp;&amp; !T)))</text>
<text text-anchor="start" x="684" y="-380.8" font-family="arial" font-size="14.00" fill="#ff7f00">true</text>
</g>
<!-- st0&#45;&gt;st01234 -->
<g id="edge11" class="edge">
<title>st0&#45;&gt;st01234</title>
<path fill="none" stroke="#000000" d="M153.654,-236.2678C198.5825,-284.2497 304.5652,-387.1384 419,-425 479.2589,-444.9371 550.5928,-437.3663 605.8464,-425.2366"/>
<polygon fill="#000000" stroke="#000000" points="606.6479,-428.6438 615.6191,-423.0074 605.0911,-421.819 606.6479,-428.6438"/>
<text text-anchor="start" x="376" y="-420.8" font-family="arial" font-size="14.00" fill="#377eb8">true</text>
</g>
<!-- st0&#45;&gt;st -->
<g id="edge8" class="edge">
<title>st0&#45;&gt;st</title>
<path fill="none" stroke="#000000" d="M171.0564,-196.6527C189.5014,-190.2692 211.7454,-182.8834 232,-177 389.3963,-131.2807 580.2237,-88.2904 659.3545,-71.0014"/>
<polygon fill="#000000" stroke="#000000" points="660.2981,-74.378 669.3243,-68.8302 658.8085,-67.5384 660.2981,-74.378"/>
<text text-anchor="start" x="382" y="-141.8" font-family="arial" font-size="14.00" fill="#377eb8">T&#39;</text>
</g>
<!-- _st012 -->
<!-- _st012&#45;&gt;st012 -->
<g id="edge3" class="edge">
<title>_st012&#45;&gt;st012</title>
<path fill="none" stroke="#000000" d="M154.847,-104.1761C180.78,-123.9421 222.7007,-155.8939 253.9486,-179.7108"/>
<polygon fill="#000000" stroke="#000000" points="251.9761,-182.6081 262.051,-185.8864 256.2194,-177.0409 251.9761,-182.6081"/>
</g>
<!-- st012&#45;&gt;st012 -->
<g id="edge20" class="edge">
<title>st012&#45;&gt;st012</title>
<path fill="none" stroke="#000000" d="M277.8174,-236.1756C277.0537,-245.9095 282.7813,-254 295,-254 302.6367,-254 307.7378,-250.8397 310.3033,-246.093"/>
<polygon fill="#000000" stroke="#000000" points="313.7595,-246.6525 312.1826,-236.1756 306.8819,-245.3491 313.7595,-246.6525"/>
<text text-anchor="start" x="282.5" y="-257.8" font-family="arial" font-size="14.00" fill="#377eb8">true</text>
</g>
<!-- st012&#45;&gt;st01234 -->
<g id="edge21" class="edge">
<title>st012&#45;&gt;st01234</title>
<path fill="none" stroke="#000000" d="M317.2152,-236.287C340.3061,-261.064 378.6582,-298.1895 419,-320 471.7381,-348.5125 491.2806,-339.7906 549,-356 565.4998,-360.6337 583.0272,-365.5924 600.0224,-370.4198"/>
<polygon fill="#000000" stroke="#000000" points="599.3796,-373.8757 609.9556,-373.2435 601.2937,-367.1425 599.3796,-373.8757"/>
<text text-anchor="start" x="471.5" y="-359.8" font-family="arial" font-size="14.00" fill="#377eb8">true</text>
</g>
<!-- st012&#45;&gt;st -->
<g id="edge17" class="edge">
<title>st012&#45;&gt;st</title>
<path fill="none" stroke="#000000" d="M358.3216,-206.5432C433.0541,-200.4714 552.1998,-188.0064 592,-168 624.8884,-151.4679 653.6661,-120.6012 672.6494,-96.5959"/>
<polygon fill="#000000" stroke="#000000" points="675.6139,-98.483 678.9463,-88.4258 670.0695,-94.2098 675.6139,-98.483"/>
<text text-anchor="start" x="477.5" y="-203.8" font-family="arial" font-size="14.00" fill="#377eb8">T&#39;</text>
</g>
<!-- st02 -->
<g id="node10" class="node">
<title>st02</title>
<polygon fill="none" stroke="#000000" points="549,-278 419,-278 419,-228 549,-228 549,-278"/>
<text text-anchor="start" x="469" y="-263.8" font-family="arial" font-weight="bold" font-size="14.00" fill="#000000">st02</text>
<text text-anchor="start" x="427" y="-249.8" font-family="arial" font-size="14.00" fill="#984ea3">(!Q &amp;&amp; (!S &amp;&amp; !T))</text>
<text text-anchor="start" x="471.5" y="-235.8" font-family="arial" font-size="14.00" fill="#ff7f00">true</text>
</g>
<!-- st012&#45;&gt;st02 -->
<g id="edge18" class="edge">
<title>st012&#45;&gt;st02</title>
<path fill="none" stroke="#000000" d="M350.0396,-236.0055C358.5931,-239.1338 367.4349,-241.9492 376,-244 386.5069,-246.5157 397.7341,-248.3557 408.8298,-249.6964"/>
<polygon fill="#000000" stroke="#000000" points="408.6398,-253.1962 418.9583,-250.7925 409.3929,-246.2368 408.6398,-253.1962"/>
<text text-anchor="start" x="376" y="-251.8" font-family="arial" font-size="14.00" fill="#377eb8">true</text>
</g>
<!-- st0234 -->
<g id="node11" class="node">
<title>st0234</title>
<polygon fill="none" stroke="#000000" points="1020,-347 844,-347 844,-297 1020,-297 1020,-347"/>
<text text-anchor="start" x="909" y="-332.8" font-family="arial" font-weight="bold" font-size="14.00" fill="#000000">st0234</text>
<text text-anchor="start" x="852" y="-318.8" font-family="arial" font-size="14.00" fill="#984ea3">(!Q &amp;&amp; (!R &amp;&amp; (S &amp;&amp; !T)))</text>
<text text-anchor="start" x="919.5" y="-304.8" font-family="arial" font-size="14.00" fill="#ff7f00">true</text>
</g>
<!-- st012&#45;&gt;st0234 -->
<g id="edge19" class="edge">
<title>st012&#45;&gt;st0234</title>
<path fill="none" stroke="#000000" d="M358.083,-190.8214C377.4202,-185.5587 398.899,-180.629 419,-178 476.2899,-170.5072 491.361,-173.9981 549,-178 674.5565,-186.7175 809.7699,-252.3409 881.1352,-291.9279"/>
<polygon fill="#000000" stroke="#000000" points="879.501,-295.0241 889.9359,-296.8579 882.9221,-288.9171 879.501,-295.0241"/>
<text text-anchor="start" x="567" y="-185.8" font-family="arial" font-size="14.00" fill="#377eb8">true</text>
</g>
<!-- _st01234 -->
<!-- _st01234&#45;&gt;st01234 -->
<g id="edge4" class="edge">
<title>_st01234&#45;&gt;st01234</title>
<path fill="none" stroke="#000000" d="M522.9758,-398C544.5435,-398 572.394,-398 599.4437,-398"/>
<polygon fill="#000000" stroke="#000000" points="599.7569,-401.5001 609.7568,-398 599.7568,-394.5001 599.7569,-401.5001"/>
</g>
<!-- st01234&#45;&gt;st01234 -->
<g id="edge42" class="edge">
<title>st01234&#45;&gt;st01234</title>
<path fill="none" stroke="#000000" d="M674.835,-423.1756C673.8721,-432.9095 681.0938,-441 696.5,-441 706.1289,-441 712.5607,-437.8397 715.7954,-433.093"/>
<polygon fill="#000000" stroke="#000000" points="719.2452,-433.7153 718.165,-423.1756 712.4368,-432.0884 719.2452,-433.7153"/>
<text text-anchor="start" x="684" y="-444.8" font-family="arial" font-size="14.00" fill="#377eb8">true</text>
</g>
<!-- st01234&#45;&gt;st0234 -->
<g id="edge40" class="edge">
<title>st01234&#45;&gt;st0234</title>
<path fill="none" stroke="#000000" d="M781.6484,-372.9304C796.4687,-368.4034 811.7083,-363.6439 826,-359 834.5085,-356.2353 843.3733,-353.2726 852.1933,-350.2717"/>
<polygon fill="#000000" stroke="#000000" points="853.3998,-353.5582 861.7273,-347.0081 851.1327,-346.9354 853.3998,-353.5582"/>
<text text-anchor="start" x="801" y="-369.8" font-family="arial" font-size="14.00" fill="#377eb8">true</text>
</g>
<!-- st4 -->
<g id="node12" class="node">
<title>st4</title>
<polygon fill="none" stroke="#000000" points="1601,-492 1547,-492 1547,-442 1601,-442 1601,-492"/>
<text text-anchor="start" x="1563" y="-477.8" font-family="arial" font-weight="bold" font-size="14.00" fill="#000000">st4</text>
<text text-anchor="start" x="1566.5" y="-463.8" font-family="arial" font-size="14.00" fill="#984ea3">!R</text>
<text text-anchor="start" x="1561.5" y="-449.8" font-family="arial" font-size="14.00" fill="#ff7f00">true</text>
</g>
<!-- st01234&#45;&gt;st4 -->
<g id="edge38" class="edge">
<title>st01234&#45;&gt;st4</title>
<path fill="none" stroke="#000000" d="M716.1853,-423.2248C753.2474,-467.605 838.1461,-555 932,-555 932,-555 932,-555 1408,-555 1457.7051,-555 1507.0534,-523.8201 1538.8582,-498.5797"/>
<polygon fill="#000000" stroke="#000000" points="1541.4125,-501.0131 1546.9521,-491.9819 1536.9896,-495.5874 1541.4125,-501.0131"/>
<text text-anchor="start" x="1162.5" y="-558.8" font-family="arial" font-size="14.00" fill="#377eb8">T&#39;</text>
</g>
<!-- st024 -->
<g id="node13" class="node">
<title>st024</title>
<polygon fill="none" stroke="#000000" points="1498,-424 1318,-424 1318,-374 1498,-374 1498,-424"/>
<text text-anchor="start" x="1389" y="-409.8" font-family="arial" font-weight="bold" font-size="14.00" fill="#000000">st024</text>
<text text-anchor="start" x="1326" y="-395.8" font-family="arial" font-size="14.00" fill="#984ea3">(!Q &amp;&amp; (!R &amp;&amp; (!S &amp;&amp; !T)))</text>
<text text-anchor="start" x="1395.5" y="-381.8" font-family="arial" font-size="14.00" fill="#ff7f00">true</text>
</g>
<!-- st01234&#45;&gt;st024 -->
<g id="edge39" class="edge">
<title>st01234&#45;&gt;st024</title>
<path fill="none" stroke="#000000" d="M723.1747,-372.9271C751.1917,-347.9074 797.558,-310.0967 844,-288 924.3038,-249.7922 949.7495,-249.9727 1038,-239 1124.1692,-228.286 1128.7779,-154.0487 1300,-246 1347.3303,-271.4177 1378.5552,-327.7639 1394.7471,-364.5241"/>
<polygon fill="#000000" stroke="#000000" points="1391.5904,-366.0445 1398.7286,-373.8738 1398.0308,-363.3019 1391.5904,-366.0445"/>
<text text-anchor="start" x="1038" y="-242.8" font-family="arial" font-size="14.00" fill="#377eb8">true</text>
</g>
<!-- st0124 -->
<g id="node14" class="node">
<title>st0124</title>
<polygon fill="none" stroke="#000000" points="1257,-486 1081,-486 1081,-436 1257,-436 1257,-486"/>
<text text-anchor="start" x="1146" y="-471.8" font-family="arial" font-weight="bold" font-size="14.00" fill="#000000">st0124</text>
<text text-anchor="start" x="1089" y="-457.8" font-family="arial" font-size="14.00" fill="#984ea3">(Q &amp;&amp; (!R &amp;&amp; (!S &amp;&amp; !T)))</text>
<text text-anchor="start" x="1156.5" y="-443.8" font-family="arial" font-size="14.00" fill="#ff7f00">true</text>
</g>
<!-- st01234&#45;&gt;st0124 -->
<g id="edge41" class="edge">
<title>st01234&#45;&gt;st0124</title>
<path fill="none" stroke="#000000" d="M774.5396,-423.0066C783.4024,-425.2917 792.3548,-427.3592 801,-429 891.4129,-446.1595 996.0952,-454.1364 1070.6404,-457.8335"/>
<polygon fill="#000000" stroke="#000000" points="1070.7985,-461.345 1080.9545,-458.3273 1071.1333,-454.353 1070.7985,-461.345"/>
<text text-anchor="start" x="919.5" y="-457.8" font-family="arial" font-size="14.00" fill="#377eb8">true</text>
</g>
<!-- st&#45;&gt;st -->
<g id="edge7" class="edge">
<title>st&#45;&gt;st</title>
<path fill="none" stroke="#000000" d="M674.835,-88.1756C673.8721,-97.9095 681.0938,-106 696.5,-106 706.1289,-106 712.5607,-102.8397 715.7954,-98.093"/>
<polygon fill="#000000" stroke="#000000" points="719.2452,-98.7153 718.165,-88.1756 712.4368,-97.0884 719.2452,-98.7153"/>
<text text-anchor="start" x="684" y="-109.8" font-family="arial" font-size="14.00" fill="#377eb8">true</text>
</g>
<!-- st02&#45;&gt;st012 -->
<g id="edge15" class="edge">
<title>st02&#45;&gt;st012</title>
<path fill="none" stroke="#000000" d="M418.9378,-233.4317C412.8965,-231.8433 406.849,-230.3377 401,-229 390.412,-226.5784 379.1609,-224.3277 368.0952,-222.2953"/>
<polygon fill="#000000" stroke="#000000" points="368.4692,-218.8068 358.0092,-220.4916 367.2369,-225.6975 368.4692,-218.8068"/>
<text text-anchor="start" x="376" y="-232.8" font-family="arial" font-size="14.00" fill="#377eb8">true</text>
</g>
<!-- st02&#45;&gt;st01234 -->
<g id="edge16" class="edge">
<title>st02&#45;&gt;st01234</title>
<path fill="none" stroke="#000000" d="M528.0494,-278.0083C547.9108,-289.6649 571.4662,-304.0249 592,-318 614.3123,-333.1855 638.2831,-351.3902 657.6313,-366.5945"/>
<polygon fill="#000000" stroke="#000000" points="655.6062,-369.4551 665.6221,-372.9094 659.9464,-363.963 655.6062,-369.4551"/>
<text text-anchor="start" x="567" y="-321.8" font-family="arial" font-size="14.00" fill="#377eb8">true</text>
</g>
<!-- st02&#45;&gt;st -->
<g id="edge12" class="edge">
<title>st02&#45;&gt;st</title>
<path fill="none" stroke="#000000" d="M549.0318,-229.2289C563.9949,-222.0921 579.2438,-213.3489 592,-203 628.6579,-173.2601 659.3673,-127.9358 677.8119,-96.9686"/>
<polygon fill="#000000" stroke="#000000" points="680.8853,-98.6462 682.9095,-88.2465 674.8418,-95.1141 680.8853,-98.6462"/>
<text text-anchor="start" x="573" y="-222.8" font-family="arial" font-size="14.00" fill="#377eb8">T&#39;</text>
</g>
<!-- st02&#45;&gt;st02 -->
<g id="edge13" class="edge">
<title>st02&#45;&gt;st02</title>
<path fill="none" stroke="#000000" d="M466.4438,-278.1756C465.6636,-287.9095 471.5156,-296 484,-296 491.8027,-296 497.0147,-292.8397 499.6359,-288.093"/>
<polygon fill="#000000" stroke="#000000" points="503.0913,-288.6586 501.5562,-278.1756 496.219,-287.3279 503.0913,-288.6586"/>
<text text-anchor="start" x="471.5" y="-299.8" font-family="arial" font-size="14.00" fill="#377eb8">true</text>
</g>
<!-- st02&#45;&gt;st0234 -->
<g id="edge14" class="edge">
<title>st02&#45;&gt;st0234</title>
<path fill="none" stroke="#000000" d="M549.143,-263.0332C623.8427,-274.5383 747.1027,-293.5225 833.5352,-306.8347"/>
<polygon fill="#000000" stroke="#000000" points="833.2071,-310.3253 843.6234,-308.3884 834.2727,-303.4069 833.2071,-310.3253"/>
<text text-anchor="start" x="684" y="-301.8" font-family="arial" font-size="14.00" fill="#377eb8">true</text>
</g>
<!-- st0234&#45;&gt;st01234 -->
<g id="edge37" class="edge">
<title>st0234&#45;&gt;st01234</title>
<path fill="none" stroke="#000000" d="M843.6994,-332.9659C829.2429,-335.8584 814.5648,-339.4796 801,-344 782.6916,-350.1012 763.6602,-359.0563 746.9345,-367.9269"/>
<polygon fill="#000000" stroke="#000000" points="745.0204,-364.9833 737.8989,-372.8277 748.3579,-371.1365 745.0204,-364.9833"/>
<text text-anchor="start" x="801" y="-347.8" font-family="arial" font-size="14.00" fill="#377eb8">true</text>
</g>
<!-- st0234&#45;&gt;st0234 -->
<g id="edge35" class="edge">
<title>st0234&#45;&gt;st0234</title>
<path fill="none" stroke="#000000" d="M909.9614,-347.1756C908.9819,-356.9095 916.3281,-365 932,-365 941.7949,-365 948.3376,-361.8397 951.6281,-357.093"/>
<polygon fill="#000000" stroke="#000000" points="955.0777,-357.7194 954.0386,-347.1756 948.2757,-356.0661 955.0777,-357.7194"/>
<text text-anchor="start" x="919.5" y="-368.8" font-family="arial" font-size="14.00" fill="#377eb8">true</text>
</g>
<!-- st0234&#45;&gt;st4 -->
<g id="edge33" class="edge">
<title>st0234&#45;&gt;st4</title>
<path fill="none" stroke="#000000" d="M1020.0722,-303.8145C1139.2639,-284.3425 1353.5927,-268.0459 1498,-365 1523.2994,-381.9858 1543.4061,-410.2954 1556.5677,-432.7862"/>
<polygon fill="#000000" stroke="#000000" points="1553.6411,-434.7216 1561.6076,-441.7062 1559.7356,-431.2781 1553.6411,-434.7216"/>
<text text-anchor="start" x="1281" y="-298.8" font-family="arial" font-size="14.00" fill="#377eb8">T&#39;</text>
</g>
<!-- st0234&#45;&gt;st024 -->
<g id="edge34" class="edge">
<title>st0234&#45;&gt;st024</title>
<path fill="none" stroke="#000000" d="M1020.0863,-336.0964C1034.4304,-338.3989 1049.1289,-340.7624 1063,-343 1145.5056,-356.3091 1239.0922,-371.5063 1307.9565,-382.7079"/>
<polygon fill="#000000" stroke="#000000" points="1307.5009,-386.1797 1317.9332,-384.3309 1308.6249,-379.2705 1307.5009,-386.1797"/>
<text text-anchor="start" x="1156.5" y="-377.8" font-family="arial" font-size="14.00" fill="#377eb8">true</text>
</g>
<!-- st0234&#45;&gt;st0124 -->
<g id="edge36" class="edge">
<title>st0234&#45;&gt;st0124</title>
<path fill="none" stroke="#000000" d="M1020.122,-339.0393C1035.2086,-344.2828 1050.1433,-351.1131 1063,-360 1073.9681,-367.5814 1071.9336,-374.2236 1081,-384 1095.6937,-399.8445 1113.3825,-415.8252 1129.0352,-429.0896"/>
<polygon fill="#000000" stroke="#000000" points="1127.0936,-432.0286 1137.0084,-435.7633 1131.5866,-426.6608 1127.0936,-432.0286"/>
<text text-anchor="start" x="1038" y="-363.8" font-family="arial" font-size="14.00" fill="#377eb8">true</text>
</g>
<!-- st4&#45;&gt;st4 -->
<g id="edge22" class="edge">
<title>st4&#45;&gt;st4</title>
<path fill="none" stroke="#000000" d="M1564.6616,-492.1756C1564.2466,-501.9095 1567.3594,-510 1574,-510 1578.0466,-510 1580.7832,-506.9957 1582.2098,-502.446"/>
<polygon fill="#000000" stroke="#000000" points="1585.7251,-502.4981 1583.3384,-492.1756 1578.767,-501.7335 1585.7251,-502.4981"/>
<text text-anchor="start" x="1561.5" y="-513.8" font-family="arial" font-size="14.00" fill="#377eb8">true</text>
</g>
<!-- st024&#45;&gt;st01234 -->
<g id="edge27" class="edge">
<title>st024&#45;&gt;st01234</title>
<path fill="none" stroke="#000000" d="M1317.9152,-403.6051C1243.0014,-406.9131 1133.5737,-410.5389 1038,-409 955.4928,-407.6715 861.8163,-404.5388 793.4717,-401.9549"/>
<polygon fill="#000000" stroke="#000000" points="793.2776,-398.445 783.1515,-401.5616 793.0109,-405.44 793.2776,-398.445"/>
<text text-anchor="start" x="1038" y="-412.8" font-family="arial" font-size="14.00" fill="#377eb8">true</text>
</g>
<!-- st024&#45;&gt;st0234 -->
<g id="edge25" class="edge">
<title>st024&#45;&gt;st0234</title>
<path fill="none" stroke="#000000" d="M1365.2887,-373.9379C1335.8686,-357.9427 1295.3175,-338.3356 1257,-328 1223.6189,-318.9959 1118.9737,-306.8098 1038,-311 1035.4537,-311.1318 1032.8743,-311.2812 1030.2728,-311.4461"/>
<polygon fill="#000000" stroke="#000000" points="1029.8838,-307.9646 1020.1522,-312.1535 1030.372,-314.9476 1029.8838,-307.9646"/>
<text text-anchor="start" x="1156.5" y="-331.8" font-family="arial" font-size="14.00" fill="#377eb8">true</text>
</g>
<!-- st024&#45;&gt;st4 -->
<g id="edge23" class="edge">
<title>st024&#45;&gt;st4</title>
<path fill="none" stroke="#000000" d="M1469.3406,-424.1275C1492.1992,-433.4912 1517.4144,-443.8203 1537.3663,-451.9934"/>
<polygon fill="#000000" stroke="#000000" points="1536.1243,-455.2669 1546.7047,-455.8188 1538.7778,-448.7893 1536.1243,-455.2669"/>
<text text-anchor="start" x="1516" y="-449.8" font-family="arial" font-size="14.00" fill="#377eb8">T&#39;</text>
</g>
<!-- st024&#45;&gt;st024 -->
<g id="edge24" class="edge">
<title>st024&#45;&gt;st024</title>
<path fill="none" stroke="#000000" d="M1386.7085,-424.1756C1385.7622,-433.9095 1392.8594,-442 1408,-442 1417.4629,-442 1423.7838,-438.8397 1426.9627,-434.093"/>
<polygon fill="#000000" stroke="#000000" points="1430.4128,-434.711 1429.2915,-424.1756 1423.5981,-433.1107 1430.4128,-434.711"/>
<text text-anchor="start" x="1395.5" y="-445.8" font-family="arial" font-size="14.00" fill="#377eb8">true</text>
</g>
<!-- st024&#45;&gt;st0124 -->
<g id="edge26" class="edge">
<title>st024&#45;&gt;st0124</title>
<path fill="none" stroke="#000000" d="M1361.6597,-424.0507C1343.008,-433.0525 1320.9783,-442.3649 1300,-448 1289.5225,-450.8144 1278.4266,-453.0321 1267.3017,-454.7775"/>
<polygon fill="#000000" stroke="#000000" points="1266.4909,-451.3582 1257.0937,-456.2513 1267.4913,-458.2864 1266.4909,-451.3582"/>
<text text-anchor="start" x="1275" y="-456.8" font-family="arial" font-size="14.00" fill="#377eb8">true</text>
</g>
<!-- st0124&#45;&gt;st01234 -->
<g id="edge32" class="edge">
<title>st0124&#45;&gt;st01234</title>
<path fill="none" stroke="#000000" d="M1080.9091,-483.6955C1004.1958,-499.0141 891.414,-510.6304 801,-475 774.8332,-464.6882 749.343,-446.1298 730.0889,-429.8165"/>
<polygon fill="#000000" stroke="#000000" points="732.3463,-427.1413 722.5002,-423.229 727.7575,-432.4274 732.3463,-427.1413"/>
<text text-anchor="start" x="919.5" y="-501.8" font-family="arial" font-size="14.00" fill="#377eb8">true</text>
</g>
<!-- st0124&#45;&gt;st0234 -->
<g id="edge30" class="edge">
<title>st0124&#45;&gt;st0234</title>
<path fill="none" stroke="#000000" d="M1130.5839,-435.9237C1110.6085,-423.0879 1085.687,-407.3877 1063,-394 1038.8292,-379.7367 1011.7021,-364.6754 988.4299,-352.0357"/>
<polygon fill="#000000" stroke="#000000" points="989.8423,-348.8204 979.382,-347.1377 986.5099,-354.9763 989.8423,-348.8204"/>
<text text-anchor="start" x="1038" y="-397.8" font-family="arial" font-size="14.00" fill="#377eb8">true</text>
</g>
<!-- st0124&#45;&gt;st4 -->
<g id="edge28" class="edge">
<title>st0124&#45;&gt;st4</title>
<path fill="none" stroke="#000000" d="M1257.1522,-470.8465C1263.187,-471.3052 1269.1798,-471.6988 1275,-472 1369.0072,-476.8647 1479.8393,-472.3303 1536.5065,-469.2705"/>
<polygon fill="#000000" stroke="#000000" points="1536.9786,-472.7498 1546.7689,-468.7002 1536.5901,-465.7606 1536.9786,-472.7498"/>
<text text-anchor="start" x="1401.5" y="-477.8" font-family="arial" font-size="14.00" fill="#377eb8">T&#39;</text>
</g>
<!-- st0124&#45;&gt;st024 -->
<g id="edge29" class="edge">
<title>st0124&#45;&gt;st024</title>
<path fill="none" stroke="#000000" d="M1249.8546,-435.9429C1258.3218,-433.5131 1266.8208,-431.1541 1275,-429 1285.6223,-426.2024 1296.764,-423.4333 1307.8876,-420.7742"/>
<polygon fill="#000000" stroke="#000000" points="1308.7181,-424.1745 1317.6448,-418.4679 1307.1078,-417.3622 1308.7181,-424.1745"/>
<text text-anchor="start" x="1275" y="-432.8" font-family="arial" font-size="14.00" fill="#377eb8">true</text>
</g>
<!-- st0124&#45;&gt;st0124 -->
<g id="edge31" class="edge">
<title>st0124&#45;&gt;st0124</title>
<path fill="none" stroke="#000000" d="M1146.9614,-486.1756C1145.9819,-495.9095 1153.3281,-504 1169,-504 1178.7949,-504 1185.3376,-500.8397 1188.6281,-496.093"/>
<polygon fill="#000000" stroke="#000000" points="1192.0777,-496.7194 1191.0386,-486.1756 1185.2757,-495.0661 1192.0777,-496.7194"/>
<text text-anchor="start" x="1156.5" y="-507.8" font-family="arial" font-size="14.00" fill="#377eb8">true</text>
</g>
</g>
</svg>
