<?xml version="1.0" encoding="UTF-8" standalone="no"?>
<!DOCTYPE svg PUBLIC "-//W3C//DTD SVG 1.1//EN"
 "http://www.w3.org/Graphics/SVG/1.1/DTD/svg11.dtd">
<!-- Generated by graphviz version 2.43.0 (0)
 -->
<!-- Title: G Pages: 1 -->
<svg width="2227pt" height="602pt"
 viewBox="0.00 0.00 2227.00 602.00" xmlns="http://www.w3.org/2000/svg" xmlns:xlink="http://www.w3.org/1999/xlink">
<g id="graph0" class="graph" transform="scale(1 1) rotate(0) translate(4 598)">
<title>G</title>
<polygon fill="white" stroke="transparent" points="-4,4 -4,-598 2223,-598 2223,4 -4,4"/>
<!-- _ID_128_ct0_st0 -->
<!-- ID_128_ct0_st0 -->
<g id="node2" class="node">
<title>ID_128_ct0_st0</title>
<polygon fill="none" stroke="black" points="280,-161 166,-161 166,-111 280,-111 280,-161"/>
<text text-anchor="start" x="174" y="-146.8" font-family="arial" font-weight="bold" font-size="14.00">ID_128_ct0_st0</text>
<text text-anchor="start" x="198.5" y="-132.8" font-family="arial" font-size="14.00" fill="#984ea3">(Q || !P)</text>
<text text-anchor="start" x="211" y="-118.8" font-family="arial" font-size="14.00" fill="#ff7f00">true</text>
</g>
<!-- _ID_128_ct0_st0&#45;&gt;ID_128_ct0_st0 -->
<g id="edge1" class="edge">
<title>_ID_128_ct0_st0&#45;&gt;ID_128_ct0_st0</title>
<path fill="none" stroke="black" d="M119.26,-136C131.17,-136 143.77,-136 155.91,-136"/>
<polygon fill="black" stroke="black" points="155.97,-139.5 165.97,-136 155.97,-132.5 155.97,-139.5"/>
</g>
<!-- ID_128_ct0_st0&#45;&gt;ID_128_ct0_st0 -->
<g id="edge4" class="edge">
<title>ID_128_ct0_st0&#45;&gt;ID_128_ct0_st0</title>
<path fill="none" stroke="black" d="M207.31,-161.18C206.61,-170.91 211.84,-179 223,-179 229.97,-179 234.63,-175.84 236.97,-171.09"/>
<polygon fill="black" stroke="black" points="240.43,-171.63 238.69,-161.18 233.53,-170.43 240.43,-171.63"/>
<text text-anchor="start" x="211" y="-182.8" font-family="arial" font-size="14.00" fill="#377eb8">true</text>
</g>
<!-- ID_128_ct0_st012 -->
<g id="node4" class="node">
<title>ID_128_ct0_st012</title>
<polygon fill="none" stroke="black" points="479,-282 350,-282 350,-232 479,-232 479,-282"/>
<text text-anchor="start" x="358" y="-267.8" font-family="arial" font-weight="bold" font-size="14.00">ID_128_ct0_st012</text>
<text text-anchor="start" x="363" y="-253.8" font-family="arial" font-size="14.00" fill="#984ea3">(P &amp;&amp; (!Q &amp;&amp; R))</text>
<text text-anchor="start" x="402.5" y="-239.8" font-family="arial" font-size="14.00" fill="#ff7f00">true</text>
</g>
<!-- ID_128_ct0_st0&#45;&gt;ID_128_ct0_st012 -->
<g id="edge5" class="edge">
<title>ID_128_ct0_st0&#45;&gt;ID_128_ct0_st012</title>
<path fill="none" stroke="black" d="M263.26,-161.07C292.99,-180.05 333.97,-206.22 365.62,-226.43"/>
<polygon fill="black" stroke="black" points="363.97,-229.53 374.29,-231.96 367.74,-223.63 363.97,-229.53"/>
<text text-anchor="start" x="308" y="-206.8" font-family="arial" font-size="14.00" fill="#377eb8">true</text>
</g>
<!-- ID_128_ct0_st0123W -->
<g id="node6" class="node">
<title>ID_128_ct0_st0123W</title>
<polygon fill="none" stroke="black" points="932,-277 782,-277 782,-227 932,-227 932,-277"/>
<text text-anchor="start" x="790" y="-262.8" font-family="arial" font-weight="bold" font-size="14.00">ID_128_ct0_st0123W</text>
<text text-anchor="start" x="803.5" y="-248.8" font-family="arial" font-size="14.00" fill="#984ea3">(P &amp;&amp; (!Q &amp;&amp; !R))</text>
<text text-anchor="start" x="834" y="-234.8" font-family="arial" font-size="14.00" fill="#ff7f00">c0 &lt;= 5</text>
</g>
<!-- ID_128_ct0_st0&#45;&gt;ID_128_ct0_st0123W -->
<g id="edge6" class="edge">
<title>ID_128_ct0_st0&#45;&gt;ID_128_ct0_st0123W</title>
<path fill="none" stroke="black" d="M280.37,-124.6C382.19,-106.83 601.3,-81.66 764,-155 793.64,-168.36 818.4,-196.15 834.73,-218.57"/>
<polygon fill="black" stroke="black" points="831.95,-220.71 840.57,-226.86 837.67,-216.67 831.95,-220.71"/>
<text text-anchor="start" x="504" y="-124.8" font-family="arial" font-size="14.00" fill="#377eb8">true</text>
<text text-anchor="start" x="497" y="-109.8" font-family="arial" font-size="14.00">c0 :=0</text>
</g>
<!-- _ID_128_ct0_st012 -->
<!-- _ID_128_ct0_st012&#45;&gt;ID_128_ct0_st012 -->
<g id="edge2" class="edge">
<title>_ID_128_ct0_st012&#45;&gt;ID_128_ct0_st012</title>
<path fill="none" stroke="black" d="M242.86,-419.98C274.72,-389.55 339.61,-327.57 379.55,-289.42"/>
<polygon fill="black" stroke="black" points="382.38,-291.57 387.19,-282.13 377.54,-286.5 382.38,-291.57"/>
</g>
<!-- ID_128_ct0_st012&#45;&gt;ID_128_ct0_st0 -->
<g id="edge12" class="edge">
<title>ID_128_ct0_st012&#45;&gt;ID_128_ct0_st0</title>
<path fill="none" stroke="black" d="M394.54,-231.83C379.41,-213.29 356.71,-188.67 332,-173 319.09,-164.81 304.17,-158.2 289.6,-152.96"/>
<polygon fill="black" stroke="black" points="290.7,-149.64 280.11,-149.71 288.44,-156.26 290.7,-149.64"/>
<text text-anchor="start" x="312.5" y="-176.8" font-family="arial" font-size="14.00" fill="#377eb8">Q&#39;</text>
</g>
<!-- ID_128_ct0_st012&#45;&gt;ID_128_ct0_st012 -->
<g id="edge15" class="edge">
<title>ID_128_ct0_st012&#45;&gt;ID_128_ct0_st012</title>
<path fill="none" stroke="black" d="M396.94,-282.18C396.16,-291.91 402.02,-300 414.5,-300 422.3,-300 427.51,-296.84 430.14,-292.09"/>
<polygon fill="black" stroke="black" points="433.59,-292.66 432.06,-282.18 426.72,-291.33 433.59,-292.66"/>
<text text-anchor="start" x="402.5" y="-303.8" font-family="arial" font-size="14.00" fill="#377eb8">true</text>
</g>
<!-- ID_128_ct0_st012&#45;&gt;ID_128_ct0_st0123W -->
<g id="edge16" class="edge">
<title>ID_128_ct0_st012&#45;&gt;ID_128_ct0_st0123W</title>
<path fill="none" stroke="black" d="M479.08,-256.28C556.12,-255.4 686.19,-253.93 771.58,-252.96"/>
<polygon fill="black" stroke="black" points="771.8,-256.46 781.76,-252.84 771.72,-249.46 771.8,-256.46"/>
<text text-anchor="start" x="618.5" y="-273.8" font-family="arial" font-size="14.00" fill="#377eb8">true</text>
<text text-anchor="start" x="611.5" y="-258.8" font-family="arial" font-size="14.00">c0 :=0</text>
</g>
<!-- ID_128_ct0_st02 -->
<g id="node7" class="node">
<title>ID_128_ct0_st02</title>
<polygon fill="none" stroke="black" points="1147.5,-265 1024.5,-265 1024.5,-215 1147.5,-215 1147.5,-265"/>
<text text-anchor="start" x="1033" y="-250.8" font-family="arial" font-weight="bold" font-size="14.00">ID_128_ct0_st02</text>
<text text-anchor="start" x="1032.5" y="-236.8" font-family="arial" font-size="14.00" fill="#984ea3">(!P &amp;&amp; (!Q &amp;&amp; R))</text>
<text text-anchor="start" x="1074" y="-222.8" font-family="arial" font-size="14.00" fill="#ff7f00">true</text>
</g>
<!-- ID_128_ct0_st012&#45;&gt;ID_128_ct0_st02 -->
<g id="edge13" class="edge">
<title>ID_128_ct0_st012&#45;&gt;ID_128_ct0_st02</title>
<path fill="none" stroke="black" d="M446.88,-231.87C473.4,-212.34 513.31,-186.82 553,-176 714.5,-131.97 911.81,-181.46 1014.8,-214.75"/>
<polygon fill="black" stroke="black" points="1013.87,-218.13 1024.46,-217.92 1016.05,-211.48 1013.87,-218.13"/>
<text text-anchor="start" x="733" y="-164.8" font-family="arial" font-size="14.00" fill="#377eb8">true</text>
</g>
<!-- ID_128_ct0_st023W -->
<g id="node8" class="node">
<title>ID_128_ct0_st023W</title>
<polygon fill="none" stroke="black" points="702,-408 559,-408 559,-358 702,-358 702,-408"/>
<text text-anchor="start" x="567" y="-393.8" font-family="arial" font-weight="bold" font-size="14.00">ID_128_ct0_st023W</text>
<text text-anchor="start" x="575" y="-379.8" font-family="arial" font-size="14.00" fill="#984ea3">(!P &amp;&amp; (!Q &amp;&amp; !R))</text>
<text text-anchor="start" x="607.5" y="-365.8" font-family="arial" font-size="14.00" fill="#ff7f00">c0 &lt;= 5</text>
</g>
<!-- ID_128_ct0_st012&#45;&gt;ID_128_ct0_st023W -->
<g id="edge14" class="edge">
<title>ID_128_ct0_st012&#45;&gt;ID_128_ct0_st023W</title>
<path fill="none" stroke="black" d="M432.37,-282.08C447.16,-302.19 470.4,-329.66 497,-346 512.71,-355.65 531,-362.85 548.88,-368.19"/>
<polygon fill="black" stroke="black" points="548.17,-371.63 558.75,-370.97 550.07,-364.89 548.17,-371.63"/>
<text text-anchor="start" x="504" y="-381.8" font-family="arial" font-size="14.00" fill="#377eb8">true</text>
<text text-anchor="start" x="497" y="-366.8" font-family="arial" font-size="14.00">c0 :=0</text>
</g>
<!-- _ID_128_ct0_st0123W -->
<!-- _ID_128_ct0_st0123W&#45;&gt;ID_128_ct0_st0123W -->
<g id="edge3" class="edge">
<title>_ID_128_ct0_st0123W&#45;&gt;ID_128_ct0_st0123W</title>
<path fill="none" stroke="black" d="M708.13,-219.73C728.75,-224.23 751.15,-229.12 772.14,-233.7"/>
<polygon fill="black" stroke="black" points="771.47,-237.13 781.99,-235.85 772.97,-230.29 771.47,-237.13"/>
</g>
<!-- ID_128_ct0_st0123W&#45;&gt;ID_128_ct0_st0 -->
<g id="edge24" class="edge">
<title>ID_128_ct0_st0123W&#45;&gt;ID_128_ct0_st0</title>
<path fill="none" stroke="black" d="M841.68,-226.7C819.01,-189.84 770.91,-123.52 708,-103 556.73,-53.67 506.57,-72.68 350,-101 330.31,-104.56 309.24,-109.82 290.08,-115.18"/>
<polygon fill="black" stroke="black" points="288.91,-111.88 280.25,-117.99 290.83,-118.61 288.91,-111.88"/>
<text text-anchor="start" x="508.5" y="-79.8" font-family="arial" font-size="14.00" fill="#377eb8">Q&#39;</text>
</g>
<!-- ID_128_ct0_st0123W&#45;&gt;ID_128_ct0_st012 -->
<g id="edge28" class="edge">
<title>ID_128_ct0_st0123W&#45;&gt;ID_128_ct0_st012</title>
<path fill="none" stroke="black" d="M781.76,-274.34C758.38,-280.35 732.32,-286.01 708,-289 639.63,-297.42 621.44,-296.86 553,-289 532.07,-286.6 509.7,-282.2 489.22,-277.42"/>
<polygon fill="black" stroke="black" points="489.86,-273.98 479.32,-275.05 488.23,-280.79 489.86,-273.98"/>
<text text-anchor="start" x="618.5" y="-298.8" font-family="arial" font-size="14.00" fill="#377eb8">true</text>
</g>
<!-- ID_128_ct0_st0123W&#45;&gt;ID_128_ct0_st0123W -->
<g id="edge29" class="edge">
<title>ID_128_ct0_st0123W&#45;&gt;ID_128_ct0_st0123W</title>
<path fill="none" stroke="black" d="M836.08,-277.18C835.15,-286.91 842.12,-295 857,-295 866.3,-295 872.51,-291.84 875.63,-287.09"/>
<polygon fill="black" stroke="black" points="879.08,-287.71 877.92,-277.18 872.26,-286.13 879.08,-287.71"/>
<text text-anchor="start" x="838" y="-298.8" font-family="arial" font-size="14.00" fill="#377eb8">c0 &lt; 5</text>
</g>
<!-- ID_128_ct0_st0123W&#45;&gt;ID_128_ct0_st02 -->
<g id="edge25" class="edge">
<title>ID_128_ct0_st0123W&#45;&gt;ID_128_ct0_st02</title>
<path fill="none" stroke="black" d="M932.16,-228.28C938.15,-226.97 944.15,-225.84 950,-225 970.86,-222 993.61,-222.93 1014.39,-225.4"/>
<polygon fill="black" stroke="black" points="1014.04,-228.88 1024.41,-226.73 1014.96,-221.94 1014.04,-228.88"/>
<text text-anchor="start" x="961" y="-228.8" font-family="arial" font-size="14.00" fill="#377eb8">true</text>
</g>
<!-- ID_128_ct0_st0123W&#45;&gt;ID_128_ct0_st023W -->
<g id="edge26" class="edge">
<title>ID_128_ct0_st0123W&#45;&gt;ID_128_ct0_st023W</title>
<path fill="none" stroke="black" d="M799.53,-277.16C765.91,-292.3 729.16,-309.17 726,-312 714.43,-322.39 719.26,-331.27 708,-342 704.21,-345.61 700.04,-349 695.66,-352.15"/>
<polygon fill="black" stroke="black" points="693.4,-349.46 687.04,-357.93 697.29,-355.27 693.4,-349.46"/>
<text text-anchor="start" x="726" y="-315.8" font-family="arial" font-size="14.00" fill="#377eb8">c0 &lt; 5</text>
</g>
<!-- ID_128_ct0_st0234 -->
<g id="node9" class="node">
<title>ID_128_ct0_st0234</title>
<polygon fill="none" stroke="black" points="1355,-378 1218,-378 1218,-328 1355,-328 1355,-378"/>
<text text-anchor="start" x="1226" y="-363.8" font-family="arial" font-weight="bold" font-size="14.00">ID_128_ct0_st0234</text>
<text text-anchor="start" x="1231" y="-349.8" font-family="arial" font-size="14.00" fill="#984ea3">(!P &amp;&amp; (!Q &amp;&amp; !R))</text>
<text text-anchor="start" x="1274.5" y="-335.8" font-family="arial" font-size="14.00" fill="#ff7f00">true</text>
</g>
<!-- ID_128_ct0_st0123W&#45;&gt;ID_128_ct0_st0234 -->
<g id="edge27" class="edge">
<title>ID_128_ct0_st0123W&#45;&gt;ID_128_ct0_st0234</title>
<path fill="none" stroke="black" d="M900.88,-226.95C961.1,-195.31 1072.9,-149.68 1158,-191 1212.32,-217.37 1250.41,-279.34 1270.08,-318.53"/>
<polygon fill="black" stroke="black" points="1267.15,-320.52 1274.68,-327.97 1273.45,-317.45 1267.15,-320.52"/>
<text text-anchor="start" x="1063" y="-194.8" font-family="arial" font-size="14.00" fill="#377eb8">c0 &gt;= 5</text>
</g>
<!-- ID_128_ct0_st01234 -->
<g id="node10" class="node">
<title>ID_128_ct0_st01234</title>
<polygon fill="none" stroke="black" points="1158,-409 1014,-409 1014,-359 1158,-359 1158,-409"/>
<text text-anchor="start" x="1022" y="-394.8" font-family="arial" font-weight="bold" font-size="14.00">ID_128_ct0_st01234</text>
<text text-anchor="start" x="1032.5" y="-380.8" font-family="arial" font-size="14.00" fill="#984ea3">(P &amp;&amp; (!Q &amp;&amp; !R))</text>
<text text-anchor="start" x="1074" y="-366.8" font-family="arial" font-size="14.00" fill="#ff7f00">true</text>
</g>
<!-- ID_128_ct0_st0123W&#45;&gt;ID_128_ct0_st01234 -->
<g id="edge30" class="edge">
<title>ID_128_ct0_st0123W&#45;&gt;ID_128_ct0_st01234</title>
<path fill="none" stroke="black" d="M901.23,-277.14C938.78,-298.98 993.25,-330.65 1033.14,-353.85"/>
<polygon fill="black" stroke="black" points="1031.53,-356.95 1041.93,-358.95 1035.04,-350.9 1031.53,-356.95"/>
<text text-anchor="start" x="950" y="-332.8" font-family="arial" font-size="14.00" fill="#377eb8">c0 &gt;= 5</text>
</g>
<!-- ID_128_ct0_st02&#45;&gt;ID_128_ct0_st0 -->
<g id="edge7" class="edge">
<title>ID_128_ct0_st02&#45;&gt;ID_128_ct0_st0</title>
<path fill="none" stroke="black" d="M1024.39,-220.02C1020.5,-217.12 1016.97,-213.8 1014,-210 982.15,-169.23 1022.88,-139.2 996,-95 957.31,-31.38 932.46,0 858,0 413.5,0 413.5,0 413.5,0 343.22,0 281.14,-62.5 248.44,-102.76"/>
<polygon fill="black" stroke="black" points="245.59,-100.73 242.11,-110.74 251.07,-105.08 245.59,-100.73"/>
<text text-anchor="start" x="623" y="-3.8" font-family="arial" font-size="14.00" fill="#377eb8">Q&#39;</text>
</g>
<!-- ID_128_ct0_st02&#45;&gt;ID_128_ct0_st012 -->
<g id="edge10" class="edge">
<title>ID_128_ct0_st02&#45;&gt;ID_128_ct0_st012</title>
<path fill="none" stroke="black" d="M1024.5,-219.42C1020.64,-216.66 1017.08,-213.53 1014,-210 993.74,-186.75 1016.56,-165.98 996,-143 911.58,-48.61 852.62,-50.07 726,-52 624.19,-53.56 580.73,-1.05 497,-59 443.26,-96.19 424.9,-175.68 418.66,-221.83"/>
<polygon fill="black" stroke="black" points="415.16,-221.62 417.42,-231.97 422.11,-222.48 415.16,-221.62"/>
<text text-anchor="start" x="733" y="-55.8" font-family="arial" font-size="14.00" fill="#377eb8">true</text>
</g>
<!-- ID_128_ct0_st02&#45;&gt;ID_128_ct0_st0123W -->
<g id="edge11" class="edge">
<title>ID_128_ct0_st02&#45;&gt;ID_128_ct0_st0123W</title>
<path fill="none" stroke="black" d="M1024.34,-243.21C999.18,-244.54 969.55,-246.1 942.32,-247.54"/>
<polygon fill="black" stroke="black" points="941.82,-244.06 932.01,-248.09 942.19,-251.05 941.82,-244.06"/>
<text text-anchor="start" x="961" y="-265.8" font-family="arial" font-size="14.00" fill="#377eb8">true</text>
<text text-anchor="start" x="954" y="-250.8" font-family="arial" font-size="14.00">c0 :=0</text>
</g>
<!-- ID_128_ct0_st02&#45;&gt;ID_128_ct0_st02 -->
<g id="edge8" class="edge">
<title>ID_128_ct0_st02&#45;&gt;ID_128_ct0_st02</title>
<path fill="none" stroke="black" d="M1066.95,-265.18C1066.1,-274.91 1072.45,-283 1086,-283 1094.47,-283 1100.12,-279.84 1102.97,-275.09"/>
<polygon fill="black" stroke="black" points="1106.42,-275.68 1105.05,-265.18 1099.57,-274.24 1106.42,-275.68"/>
<text text-anchor="start" x="1074" y="-286.8" font-family="arial" font-size="14.00" fill="#377eb8">true</text>
</g>
<!-- ID_128_ct0_st02&#45;&gt;ID_128_ct0_st023W -->
<g id="edge9" class="edge">
<title>ID_128_ct0_st02&#45;&gt;ID_128_ct0_st023W</title>
<path fill="none" stroke="black" d="M1042.27,-265.15C1012.19,-282.07 970.58,-303.96 932,-319 867.61,-344.1 847.63,-338.33 782,-360 773.85,-362.69 772.33,-364.91 764,-367 747.47,-371.14 729.49,-374.23 712.27,-376.52"/>
<polygon fill="black" stroke="black" points="711.73,-373.06 702.24,-377.78 712.6,-380 711.73,-373.06"/>
<text text-anchor="start" x="845" y="-378.8" font-family="arial" font-size="14.00" fill="#377eb8">true</text>
<text text-anchor="start" x="838" y="-363.8" font-family="arial" font-size="14.00">c0 :=0</text>
</g>
<!-- ID_128_ct0_st023W&#45;&gt;ID_128_ct0_st0 -->
<g id="edge17" class="edge">
<title>ID_128_ct0_st023W&#45;&gt;ID_128_ct0_st0</title>
<path fill="none" stroke="black" d="M558.93,-394.61C550.88,-395.59 542.77,-396.43 535,-397 446.85,-403.49 416.42,-382.33 350,-324 299.74,-279.86 260.61,-211.29 240.03,-170.3"/>
<polygon fill="black" stroke="black" points="243.12,-168.67 235.56,-161.25 236.85,-171.76 243.12,-168.67"/>
<text text-anchor="start" x="407" y="-399.8" font-family="arial" font-size="14.00" fill="#377eb8">Q&#39;</text>
</g>
<!-- ID_128_ct0_st023W&#45;&gt;ID_128_ct0_st012 -->
<g id="edge21" class="edge">
<title>ID_128_ct0_st023W&#45;&gt;ID_128_ct0_st012</title>
<path fill="none" stroke="black" d="M579.26,-357.96C570.32,-352.98 561.25,-347.56 553,-342 544.37,-336.18 543.72,-332.7 535,-327 519.2,-316.66 513.47,-317.24 497,-308 485.74,-301.68 473.85,-294.53 462.74,-287.62"/>
<polygon fill="black" stroke="black" points="464.34,-284.5 454.01,-282.15 460.63,-290.43 464.34,-284.5"/>
<text text-anchor="start" x="504" y="-330.8" font-family="arial" font-size="14.00" fill="#377eb8">true</text>
</g>
<!-- ID_128_ct0_st023W&#45;&gt;ID_128_ct0_st0123W -->
<g id="edge22" class="edge">
<title>ID_128_ct0_st023W&#45;&gt;ID_128_ct0_st0123W</title>
<path fill="none" stroke="black" d="M702.01,-360.36C722.67,-352.41 744.84,-342.53 764,-331 785.59,-318.01 807.1,-299.9 823.88,-284.3"/>
<polygon fill="black" stroke="black" points="826.39,-286.75 831.25,-277.33 821.58,-281.66 826.39,-286.75"/>
<text text-anchor="start" x="726" y="-351.8" font-family="arial" font-size="14.00" fill="#377eb8">c0 &lt; 5</text>
</g>
<!-- ID_128_ct0_st023W&#45;&gt;ID_128_ct0_st02 -->
<g id="edge18" class="edge">
<title>ID_128_ct0_st023W&#45;&gt;ID_128_ct0_st02</title>
<path fill="none" stroke="black" d="M702.05,-396.73C764.01,-405.96 855.88,-412.75 932,-390 992.22,-372.01 1039.59,-312.43 1064.85,-273.99"/>
<polygon fill="black" stroke="black" points="1068.04,-275.5 1070.49,-265.19 1062.15,-271.72 1068.04,-275.5"/>
<text text-anchor="start" x="845" y="-408.8" font-family="arial" font-size="14.00" fill="#377eb8">true</text>
</g>
<!-- ID_128_ct0_st023W&#45;&gt;ID_128_ct0_st023W -->
<g id="edge19" class="edge">
<title>ID_128_ct0_st023W&#45;&gt;ID_128_ct0_st023W</title>
<path fill="none" stroke="black" d="M609.21,-408.18C608.26,-417.91 615.36,-426 630.5,-426 639.96,-426 646.28,-422.84 649.46,-418.09"/>
<polygon fill="black" stroke="black" points="652.91,-418.71 651.79,-408.18 646.1,-417.11 652.91,-418.71"/>
<text text-anchor="start" x="611.5" y="-429.8" font-family="arial" font-size="14.00" fill="#377eb8">c0 &lt; 5</text>
</g>
<!-- ID_128_ct0_st023W&#45;&gt;ID_128_ct0_st0234 -->
<g id="edge20" class="edge">
<title>ID_128_ct0_st023W&#45;&gt;ID_128_ct0_st0234</title>
<path fill="none" stroke="black" d="M662.3,-408.09C691.17,-429.65 736.58,-458.68 782,-468 945.87,-501.63 1001.75,-510.74 1158,-451 1177.75,-443.45 1218.76,-410.53 1248.96,-384.9"/>
<polygon fill="black" stroke="black" points="1251.44,-387.38 1256.78,-378.23 1246.9,-382.06 1251.44,-387.38"/>
<text text-anchor="start" x="950" y="-497.8" font-family="arial" font-size="14.00" fill="#377eb8">c0 &gt;= 5</text>
</g>
<!-- ID_128_ct0_st023W&#45;&gt;ID_128_ct0_st01234 -->
<g id="edge23" class="edge">
<title>ID_128_ct0_st023W&#45;&gt;ID_128_ct0_st01234</title>
<path fill="none" stroke="black" d="M678.42,-408.12C693.25,-415.02 709.97,-421.77 726,-426 842.03,-456.62 880.02,-456.79 996,-426 1007.61,-422.92 1019.56,-418.36 1030.78,-413.37"/>
<polygon fill="black" stroke="black" points="1032.41,-416.48 1040.01,-409.1 1029.47,-410.12 1032.41,-416.48"/>
<text text-anchor="start" x="834" y="-452.8" font-family="arial" font-size="14.00" fill="#377eb8">c0 &gt;= 5</text>
</g>
<!-- ID_128_ct0_st0234&#45;&gt;ID_128_ct0_st0234 -->
<g id="edge46" class="edge">
<title>ID_128_ct0_st0234&#45;&gt;ID_128_ct0_st0234</title>
<path fill="none" stroke="black" d="M1268.2,-378.18C1267.38,-387.91 1273.48,-396 1286.5,-396 1294.63,-396 1300.07,-392.84 1302.8,-388.09"/>
<polygon fill="black" stroke="black" points="1306.26,-388.67 1304.8,-378.18 1299.39,-387.29 1306.26,-388.67"/>
<text text-anchor="start" x="1274.5" y="-399.8" font-family="arial" font-size="14.00" fill="#377eb8">true</text>
</g>
<!-- ID_128_ct0_st0234&#45;&gt;ID_128_ct0_st01234 -->
<g id="edge48" class="edge">
<title>ID_128_ct0_st0234&#45;&gt;ID_128_ct0_st01234</title>
<path fill="none" stroke="black" d="M1217.97,-345.82C1204.01,-345.65 1189.46,-346.45 1176,-349 1167.79,-350.56 1159.37,-352.85 1151.14,-355.54"/>
<polygon fill="black" stroke="black" points="1149.89,-352.27 1141.59,-358.85 1152.19,-358.88 1149.89,-352.27"/>
<text text-anchor="start" x="1176" y="-352.8" font-family="arial" font-size="14.00" fill="#377eb8">true</text>
</g>
<!-- ID_128_ct0_st024 -->
<g id="node11" class="node">
<title>ID_128_ct0_st024</title>
<polygon fill="none" stroke="black" points="1763,-274 1634,-274 1634,-224 1763,-224 1763,-274"/>
<text text-anchor="start" x="1642" y="-259.8" font-family="arial" font-weight="bold" font-size="14.00">ID_128_ct0_st024</text>
<text text-anchor="start" x="1645" y="-245.8" font-family="arial" font-size="14.00" fill="#984ea3">(!P &amp;&amp; (!Q &amp;&amp; R))</text>
<text text-anchor="start" x="1686.5" y="-231.8" font-family="arial" font-size="14.00" fill="#ff7f00">true</text>
</g>
<!-- ID_128_ct0_st0234&#45;&gt;ID_128_ct0_st024 -->
<g id="edge45" class="edge">
<title>ID_128_ct0_st0234&#45;&gt;ID_128_ct0_st024</title>
<path fill="none" stroke="black" d="M1355.07,-335.25C1412.26,-320.29 1496.42,-298.45 1570,-280 1587.53,-275.61 1606.43,-270.96 1624.18,-266.64"/>
<polygon fill="black" stroke="black" points="1625.01,-270.04 1633.9,-264.27 1623.36,-263.23 1625.01,-270.04"/>
<text text-anchor="start" x="1471.5" y="-322.8" font-family="arial" font-size="14.00" fill="#377eb8">true</text>
</g>
<!-- ID_128_ct0_st0124 -->
<g id="node13" class="node">
<title>ID_128_ct0_st0124</title>
<polygon fill="none" stroke="black" points="1552,-407 1415,-407 1415,-357 1552,-357 1552,-407"/>
<text text-anchor="start" x="1423" y="-392.8" font-family="arial" font-weight="bold" font-size="14.00">ID_128_ct0_st0124</text>
<text text-anchor="start" x="1432" y="-378.8" font-family="arial" font-size="14.00" fill="#984ea3">(P &amp;&amp; (!Q &amp;&amp; R))</text>
<text text-anchor="start" x="1471.5" y="-364.8" font-family="arial" font-size="14.00" fill="#ff7f00">true</text>
</g>
<!-- ID_128_ct0_st0234&#45;&gt;ID_128_ct0_st0124 -->
<g id="edge47" class="edge">
<title>ID_128_ct0_st0234&#45;&gt;ID_128_ct0_st0124</title>
<path fill="none" stroke="black" d="M1355.15,-363.06C1371.19,-365.45 1388.41,-368.01 1404.85,-370.45"/>
<polygon fill="black" stroke="black" points="1404.56,-373.95 1414.97,-371.96 1405.59,-367.02 1404.56,-373.95"/>
<text text-anchor="start" x="1373" y="-372.8" font-family="arial" font-size="14.00" fill="#377eb8">true</text>
</g>
<!-- ID_128_ct0_st01234&#45;&gt;ID_128_ct0_st0234 -->
<g id="edge56" class="edge">
<title>ID_128_ct0_st01234&#45;&gt;ID_128_ct0_st0234</title>
<path fill="none" stroke="black" d="M1158.1,-372.9C1174.22,-370.38 1191.43,-367.69 1207.81,-365.13"/>
<polygon fill="black" stroke="black" points="1208.54,-368.56 1217.88,-363.56 1207.46,-361.65 1208.54,-368.56"/>
<text text-anchor="start" x="1176" y="-372.8" font-family="arial" font-size="14.00" fill="#377eb8">true</text>
</g>
<!-- ID_128_ct0_st01234&#45;&gt;ID_128_ct0_st01234 -->
<g id="edge58" class="edge">
<title>ID_128_ct0_st01234&#45;&gt;ID_128_ct0_st01234</title>
<path fill="none" stroke="black" d="M1066.95,-409.18C1066.1,-418.91 1072.45,-427 1086,-427 1094.47,-427 1100.12,-423.84 1102.97,-419.09"/>
<polygon fill="black" stroke="black" points="1106.42,-419.68 1105.05,-409.18 1099.57,-418.24 1106.42,-419.68"/>
<text text-anchor="start" x="1074" y="-430.8" font-family="arial" font-size="14.00" fill="#377eb8">true</text>
</g>
<!-- ID_128_ct0_st01234&#45;&gt;ID_128_ct0_st024 -->
<g id="edge55" class="edge">
<title>ID_128_ct0_st01234&#45;&gt;ID_128_ct0_st024</title>
<path fill="none" stroke="black" d="M1133.19,-358.9C1157.92,-346.02 1189.16,-330.63 1218,-319 1369.4,-257.93 1408.31,-236.54 1570,-214 1590.25,-211.18 1595.97,-209.88 1616,-214 1623.26,-215.49 1630.67,-217.66 1637.92,-220.2"/>
<polygon fill="black" stroke="black" points="1637.08,-223.62 1647.67,-223.86 1639.54,-217.07 1637.08,-223.62"/>
<text text-anchor="start" x="1373" y="-260.8" font-family="arial" font-size="14.00" fill="#377eb8">true</text>
</g>
<!-- ID_128_ct0_st01234&#45;&gt;ID_128_ct0_st0124 -->
<g id="edge57" class="edge">
<title>ID_128_ct0_st01234&#45;&gt;ID_128_ct0_st0124</title>
<path fill="none" stroke="black" d="M1158.01,-407.24C1177.26,-412.51 1198.25,-417.34 1218,-420 1278.34,-428.14 1294.75,-428.79 1355,-420 1371.37,-417.61 1388.56,-413.59 1404.84,-409.02"/>
<polygon fill="black" stroke="black" points="1406.2,-412.27 1414.83,-406.12 1404.25,-405.55 1406.2,-412.27"/>
<text text-anchor="start" x="1274.5" y="-429.8" font-family="arial" font-size="14.00" fill="#377eb8">true</text>
</g>
<!-- ID_128_ct0_st024&#45;&gt;ID_128_ct0_st024 -->
<g id="edge31" class="edge">
<title>ID_128_ct0_st024&#45;&gt;ID_128_ct0_st024</title>
<path fill="none" stroke="black" d="M1679.82,-274.18C1678.99,-283.91 1685.22,-292 1698.5,-292 1706.8,-292 1712.35,-288.84 1715.13,-284.09"/>
<polygon fill="black" stroke="black" points="1718.59,-284.68 1717.18,-274.18 1711.73,-283.26 1718.59,-284.68"/>
<text text-anchor="start" x="1686.5" y="-295.8" font-family="arial" font-size="14.00" fill="#377eb8">true</text>
</g>
<!-- ID_128_ct0_st023W4 -->
<g id="node12" class="node">
<title>ID_128_ct0_st023W4</title>
<polygon fill="none" stroke="black" points="1987,-319 1837,-319 1837,-269 1987,-269 1987,-319"/>
<text text-anchor="start" x="1845" y="-304.8" font-family="arial" font-weight="bold" font-size="14.00">ID_128_ct0_st023W4</text>
<text text-anchor="start" x="1856.5" y="-290.8" font-family="arial" font-size="14.00" fill="#984ea3">(!P &amp;&amp; (!Q &amp;&amp; !R))</text>
<text text-anchor="start" x="1889" y="-276.8" font-family="arial" font-size="14.00" fill="#ff7f00">c0 &lt;= 5</text>
</g>
<!-- ID_128_ct0_st024&#45;&gt;ID_128_ct0_st023W4 -->
<g id="edge32" class="edge">
<title>ID_128_ct0_st024&#45;&gt;ID_128_ct0_st023W4</title>
<path fill="none" stroke="black" d="M1763.02,-248.06C1781.27,-248.9 1801.08,-250.89 1819,-255 1829.62,-257.44 1840.56,-261.02 1851.03,-265.05"/>
<polygon fill="black" stroke="black" points="1849.9,-268.37 1860.49,-268.85 1852.51,-261.87 1849.9,-268.37"/>
<text text-anchor="start" x="1788" y="-273.8" font-family="arial" font-size="14.00" fill="#377eb8">true</text>
<text text-anchor="start" x="1781" y="-258.8" font-family="arial" font-size="14.00">c0 :=0</text>
</g>
<!-- ID_128_ct0_st024&#45;&gt;ID_128_ct0_st0124 -->
<g id="edge33" class="edge">
<title>ID_128_ct0_st024&#45;&gt;ID_128_ct0_st0124</title>
<path fill="none" stroke="black" d="M1633.88,-271.87C1607.96,-281.72 1581.42,-292.64 1570,-300 1548.86,-313.62 1528.41,-332.94 1512.81,-349.4"/>
<polygon fill="black" stroke="black" points="1510.24,-347.03 1506,-356.74 1515.37,-351.79 1510.24,-347.03"/>
<text text-anchor="start" x="1581" y="-303.8" font-family="arial" font-size="14.00" fill="#377eb8">true</text>
</g>
<!-- ID_128_ct0_st0123W4 -->
<g id="node14" class="node">
<title>ID_128_ct0_st0123W4</title>
<polygon fill="none" stroke="black" points="2219,-445 2061,-445 2061,-395 2219,-395 2219,-445"/>
<text text-anchor="start" x="2069" y="-430.8" font-family="arial" font-weight="bold" font-size="14.00">ID_128_ct0_st0123W4</text>
<text text-anchor="start" x="2086.5" y="-416.8" font-family="arial" font-size="14.00" fill="#984ea3">(P &amp;&amp; (!Q &amp;&amp; !R))</text>
<text text-anchor="start" x="2117" y="-402.8" font-family="arial" font-size="14.00" fill="#ff7f00">c0 &lt;= 5</text>
</g>
<!-- ID_128_ct0_st024&#45;&gt;ID_128_ct0_st0123W4 -->
<g id="edge34" class="edge">
<title>ID_128_ct0_st024&#45;&gt;ID_128_ct0_st0123W4</title>
<path fill="none" stroke="black" d="M1763.26,-227.87C1823.75,-211.63 1915.73,-197.01 1987,-230 2054.64,-261.32 2101.25,-339.73 2123.68,-385.43"/>
<polygon fill="black" stroke="black" points="2120.63,-387.15 2128.1,-394.66 2126.94,-384.13 2120.63,-387.15"/>
<text text-anchor="start" x="1900" y="-248.8" font-family="arial" font-size="14.00" fill="#377eb8">true</text>
<text text-anchor="start" x="1893" y="-233.8" font-family="arial" font-size="14.00">c0 :=0</text>
</g>
<!-- ID_128_ct0_st023W4&#45;&gt;ID_128_ct0_st0234 -->
<g id="edge41" class="edge">
<title>ID_128_ct0_st023W4&#45;&gt;ID_128_ct0_st0234</title>
<path fill="none" stroke="black" d="M1844.86,-268.94C1842.15,-267.36 1839.52,-265.72 1837,-264 1827.39,-257.44 1828.25,-252.06 1819,-245 1796.56,-227.86 1790.39,-221.87 1763,-215 1707.39,-201.04 1690.72,-206.64 1634,-215 1533.43,-229.83 1508.5,-241.1 1415,-281 1387.63,-292.68 1358.64,-308.73 1335.23,-322.71"/>
<polygon fill="black" stroke="black" points="1333.29,-319.79 1326.54,-327.96 1336.91,-325.78 1333.29,-319.79"/>
<text text-anchor="start" x="1570" y="-228.8" font-family="arial" font-size="14.00" fill="#377eb8">c0 &gt;= 5</text>
</g>
<!-- ID_128_ct0_st023W4&#45;&gt;ID_128_ct0_st01234 -->
<g id="edge44" class="edge">
<title>ID_128_ct0_st023W4&#45;&gt;ID_128_ct0_st01234</title>
<path fill="none" stroke="black" d="M1842.24,-268.79C1840.4,-267.28 1838.64,-265.69 1837,-264 1821.1,-247.68 1834.29,-232.89 1819,-216 1779.26,-172.08 1758.73,-157 1699.5,-157 1285.5,-157 1285.5,-157 1285.5,-157 1198,-157 1216,-241.49 1158,-307 1145,-321.68 1130.36,-337.66 1117.76,-351.23"/>
<polygon fill="black" stroke="black" points="1114.85,-349.21 1110.6,-358.92 1119.98,-353.98 1114.85,-349.21"/>
<text text-anchor="start" x="1460.5" y="-160.8" font-family="arial" font-size="14.00" fill="#377eb8">c0 &gt;= 5</text>
</g>
<!-- ID_128_ct0_st023W4&#45;&gt;ID_128_ct0_st024 -->
<g id="edge39" class="edge">
<title>ID_128_ct0_st023W4&#45;&gt;ID_128_ct0_st024</title>
<path fill="none" stroke="black" d="M1836.75,-293.3C1818.34,-291.92 1798.79,-289.4 1781,-285 1773.5,-283.15 1765.83,-280.65 1758.34,-277.82"/>
<polygon fill="black" stroke="black" points="1759.55,-274.54 1748.97,-274.1 1756.97,-281.04 1759.55,-274.54"/>
<text text-anchor="start" x="1788" y="-294.8" font-family="arial" font-size="14.00" fill="#377eb8">true</text>
</g>
<!-- ID_128_ct0_st023W4&#45;&gt;ID_128_ct0_st023W4 -->
<g id="edge40" class="edge">
<title>ID_128_ct0_st023W4&#45;&gt;ID_128_ct0_st023W4</title>
<path fill="none" stroke="black" d="M1891.46,-319.18C1890.54,-328.91 1897.39,-337 1912,-337 1921.13,-337 1927.23,-333.84 1930.3,-329.09"/>
<polygon fill="black" stroke="black" points="1933.75,-329.7 1932.54,-319.18 1926.92,-328.15 1933.75,-329.7"/>
<text text-anchor="start" x="1893" y="-340.8" font-family="arial" font-size="14.00" fill="#377eb8">c0 &lt; 5</text>
</g>
<!-- ID_128_ct0_st023W4&#45;&gt;ID_128_ct0_st0124 -->
<g id="edge42" class="edge">
<title>ID_128_ct0_st023W4&#45;&gt;ID_128_ct0_st0124</title>
<path fill="none" stroke="black" d="M1836.93,-309.28C1759.97,-325.16 1640.05,-349.91 1561.87,-366.04"/>
<polygon fill="black" stroke="black" points="1561.17,-362.61 1552.08,-368.06 1562.58,-369.46 1561.17,-362.61"/>
<text text-anchor="start" x="1686.5" y="-354.8" font-family="arial" font-size="14.00" fill="#377eb8">true</text>
</g>
<!-- ID_128_ct0_st023W4&#45;&gt;ID_128_ct0_st0123W4 -->
<g id="edge43" class="edge">
<title>ID_128_ct0_st023W4&#45;&gt;ID_128_ct0_st0123W4</title>
<path fill="none" stroke="black" d="M1987.32,-296.64C2006.31,-299.63 2026.11,-304.91 2043,-314 2074.35,-330.87 2100.7,-362.1 2117.81,-386.31"/>
<polygon fill="black" stroke="black" points="2115.15,-388.61 2123.69,-394.87 2120.92,-384.64 2115.15,-388.61"/>
<text text-anchor="start" x="2005" y="-317.8" font-family="arial" font-size="14.00" fill="#377eb8">c0 &lt; 5</text>
</g>
<!-- ID_128_ct0_st0124&#45;&gt;ID_128_ct0_st024 -->
<g id="edge35" class="edge">
<title>ID_128_ct0_st0124&#45;&gt;ID_128_ct0_st024</title>
<path fill="none" stroke="black" d="M1533.28,-356.77C1545.27,-350.6 1558.09,-344.04 1570,-338 1590.38,-327.66 1596.78,-327.38 1616,-315 1631.74,-304.86 1647.98,-292.22 1661.79,-280.72"/>
<polygon fill="black" stroke="black" points="1664.23,-283.24 1669.61,-274.11 1659.71,-277.89 1664.23,-283.24"/>
<text text-anchor="start" x="1581" y="-341.8" font-family="arial" font-size="14.00" fill="#377eb8">true</text>
</g>
<!-- ID_128_ct0_st0124&#45;&gt;ID_128_ct0_st023W4 -->
<g id="edge36" class="edge">
<title>ID_128_ct0_st0124&#45;&gt;ID_128_ct0_st023W4</title>
<path fill="none" stroke="black" d="M1552.21,-387.75C1621.49,-391.18 1731.14,-389.73 1819,-357 1838.77,-349.63 1858.39,-337.12 1874.39,-325.18"/>
<polygon fill="black" stroke="black" points="1876.62,-327.88 1882.41,-319.01 1872.35,-322.33 1876.62,-327.88"/>
<text text-anchor="start" x="1686.5" y="-406.8" font-family="arial" font-size="14.00" fill="#377eb8">true</text>
<text text-anchor="start" x="1679.5" y="-391.8" font-family="arial" font-size="14.00">c0 :=0</text>
</g>
<!-- ID_128_ct0_st0124&#45;&gt;ID_128_ct0_st0124 -->
<g id="edge37" class="edge">
<title>ID_128_ct0_st0124&#45;&gt;ID_128_ct0_st0124</title>
<path fill="none" stroke="black" d="M1465.2,-407.18C1464.38,-416.91 1470.48,-425 1483.5,-425 1491.63,-425 1497.07,-421.84 1499.8,-417.09"/>
<polygon fill="black" stroke="black" points="1503.26,-417.67 1501.8,-407.18 1496.39,-416.29 1503.26,-417.67"/>
<text text-anchor="start" x="1471.5" y="-428.8" font-family="arial" font-size="14.00" fill="#377eb8">true</text>
</g>
<!-- ID_128_ct0_st0124&#45;&gt;ID_128_ct0_st0123W4 -->
<g id="edge38" class="edge">
<title>ID_128_ct0_st0124&#45;&gt;ID_128_ct0_st0123W4</title>
<path fill="none" stroke="black" d="M1501.51,-407.13C1516.77,-427.26 1541.17,-454.05 1570,-466 1667.1,-506.25 1940.61,-489.75 2043,-466 2058.21,-462.47 2073.84,-456.26 2087.95,-449.52"/>
<polygon fill="black" stroke="black" points="2089.58,-452.62 2096.99,-445.04 2086.47,-446.35 2089.58,-452.62"/>
<text text-anchor="start" x="1788" y="-508.8" font-family="arial" font-size="14.00" fill="#377eb8">true</text>
<text text-anchor="start" x="1781" y="-493.8" font-family="arial" font-size="14.00">c0 :=0</text>
</g>
<!-- ID_128_ct0_st0123W4&#45;&gt;ID_128_ct0_st0234 -->
<g id="edge51" class="edge">
<title>ID_128_ct0_st0123W4&#45;&gt;ID_128_ct0_st0234</title>
<path fill="none" stroke="black" d="M2106.88,-445.22C2088.96,-458.19 2065.73,-473.27 2043,-483 1950.1,-522.76 1919.76,-514.25 1819,-522 1637.07,-535.99 1580.1,-526.69 1415,-449 1380.39,-432.71 1346.03,-406.07 1321.71,-384.98"/>
<polygon fill="black" stroke="black" points="1324,-382.33 1314.18,-378.35 1319.37,-387.59 1324,-382.33"/>
<text text-anchor="start" x="1675.5" y="-530.8" font-family="arial" font-size="14.00" fill="#377eb8">c0 &gt;= 5</text>
</g>
<!-- ID_128_ct0_st0123W4&#45;&gt;ID_128_ct0_st01234 -->
<g id="edge54" class="edge">
<title>ID_128_ct0_st0123W4&#45;&gt;ID_128_ct0_st01234</title>
<path fill="none" stroke="black" d="M2120.69,-445.19C2085.76,-490.03 2004.87,-579 1913,-579 1285.5,-579 1285.5,-579 1285.5,-579 1194.85,-579 1130.44,-474.23 1102.51,-418.28"/>
<polygon fill="black" stroke="black" points="1105.56,-416.55 1098.03,-409.09 1099.27,-419.62 1105.56,-416.55"/>
<text text-anchor="start" x="1570" y="-582.8" font-family="arial" font-size="14.00" fill="#377eb8">c0 &gt;= 5</text>
</g>
<!-- ID_128_ct0_st0123W4&#45;&gt;ID_128_ct0_st024 -->
<g id="edge49" class="edge">
<title>ID_128_ct0_st0123W4&#45;&gt;ID_128_ct0_st024</title>
<path fill="none" stroke="black" d="M2060.69,-415.21C1997.74,-408.93 1908.35,-394.44 1837,-361 1795.64,-341.62 1756.04,-307.09 1730.05,-281.47"/>
<polygon fill="black" stroke="black" points="1732.3,-278.78 1722.76,-274.17 1727.35,-283.72 1732.3,-278.78"/>
<text text-anchor="start" x="1900" y="-407.8" font-family="arial" font-size="14.00" fill="#377eb8">true</text>
</g>
<!-- ID_128_ct0_st0123W4&#45;&gt;ID_128_ct0_st023W4 -->
<g id="edge50" class="edge">
<title>ID_128_ct0_st0123W4&#45;&gt;ID_128_ct0_st023W4</title>
<path fill="none" stroke="black" d="M2101.24,-394.75C2083.77,-383.39 2062.59,-370.08 2043,-359 2021.28,-346.71 1996.95,-334.22 1975.26,-323.52"/>
<polygon fill="black" stroke="black" points="1976.66,-320.31 1966.14,-319.04 1973.58,-326.59 1976.66,-320.31"/>
<text text-anchor="start" x="2005" y="-362.8" font-family="arial" font-size="14.00" fill="#377eb8">c0 &lt; 5</text>
</g>
<!-- ID_128_ct0_st0123W4&#45;&gt;ID_128_ct0_st0124 -->
<g id="edge52" class="edge">
<title>ID_128_ct0_st0123W4&#45;&gt;ID_128_ct0_st0124</title>
<path fill="none" stroke="black" d="M2060.71,-426.92C1961.07,-434.22 1783.89,-442.12 1634,-422 1610.23,-418.81 1584.87,-412.98 1561.91,-406.74"/>
<polygon fill="black" stroke="black" points="1562.8,-403.36 1552.22,-404.05 1560.92,-410.1 1562.8,-403.36"/>
<text text-anchor="start" x="1788" y="-437.8" font-family="arial" font-size="14.00" fill="#377eb8">true</text>
</g>
<!-- ID_128_ct0_st0123W4&#45;&gt;ID_128_ct0_st0123W4 -->
<g id="edge53" class="edge">
<title>ID_128_ct0_st0123W4&#45;&gt;ID_128_ct0_st0123W4</title>
<path fill="none" stroke="black" d="M2118.71,-445.18C2117.76,-454.91 2124.86,-463 2140,-463 2149.46,-463 2155.78,-459.84 2158.96,-455.09"/>
<polygon fill="black" stroke="black" points="2162.41,-455.71 2161.29,-445.18 2155.6,-454.11 2162.41,-455.71"/>
<text text-anchor="start" x="2121" y="-466.8" font-family="arial" font-size="14.00" fill="#377eb8">c0 &lt; 5</text>
</g>
</g>
</svg>
