<?xml version="1.0" encoding="UTF-8" standalone="no"?>
<!DOCTYPE svg PUBLIC "-//W3C//DTD SVG 1.1//EN"
 "http://www.w3.org/Graphics/SVG/1.1/DTD/svg11.dtd">
<!-- Generated by graphviz version 2.43.0 (0)
 -->
<!-- Title: G Pages: 1 -->
<svg width="1150pt" height="298pt"
 viewBox="0.00 0.00 1150.00 298.07" xmlns="http://www.w3.org/2000/svg" xmlns:xlink="http://www.w3.org/1999/xlink">
<g id="graph0" class="graph" transform="scale(1 1) rotate(0) translate(4 294.07)">
<title>G</title>
<polygon fill="white" stroke="transparent" points="-4,4 -4,-294.07 1146,-294.07 1146,4 -4,4"/>
<!-- _ID_125_ct0_st0 -->
<!-- ID_125_ct0_st0 -->
<g id="node2" class="node">
<title>ID_125_ct0_st0</title>
<polygon fill="none" stroke="black" points="280,-66.07 166,-66.07 166,-16.07 280,-16.07 280,-66.07"/>
<text text-anchor="start" x="174" y="-51.87" font-family="arial" font-weight="bold" font-size="14.00">ID_125_ct0_st0</text>
<text text-anchor="start" x="216.5" y="-37.87" font-family="arial" font-size="14.00" fill="#984ea3">!P</text>
<text text-anchor="start" x="211" y="-23.87" font-family="arial" font-size="14.00" fill="#ff7f00">true</text>
</g>
<!-- _ID_125_ct0_st0&#45;&gt;ID_125_ct0_st0 -->
<g id="edge1" class="edge">
<title>_ID_125_ct0_st0&#45;&gt;ID_125_ct0_st0</title>
<path fill="none" stroke="black" d="M119.26,-41.07C131.17,-41.07 143.77,-41.07 155.91,-41.07"/>
<polygon fill="black" stroke="black" points="155.97,-44.57 165.97,-41.07 155.97,-37.57 155.97,-44.57"/>
</g>
<!-- ID_125_ct0_st0&#45;&gt;ID_125_ct0_st0 -->
<g id="edge4" class="edge">
<title>ID_125_ct0_st0&#45;&gt;ID_125_ct0_st0</title>
<path fill="none" stroke="black" d="M207.31,-66.25C206.61,-75.98 211.84,-84.07 223,-84.07 229.97,-84.07 234.63,-80.91 236.97,-76.16"/>
<polygon fill="black" stroke="black" points="240.43,-76.7 238.69,-66.25 233.53,-75.5 240.43,-76.7"/>
<text text-anchor="start" x="211" y="-87.87" font-family="arial" font-size="14.00" fill="#377eb8">true</text>
</g>
<!-- ID_125_ct0_st012 -->
<g id="node4" class="node">
<title>ID_125_ct0_st012</title>
<polygon fill="none" stroke="black" points="492,-176.07 363,-176.07 363,-126.07 492,-126.07 492,-176.07"/>
<text text-anchor="start" x="371" y="-161.87" font-family="arial" font-weight="bold" font-size="14.00">ID_125_ct0_st012</text>
<text text-anchor="start" x="400.5" y="-147.87" font-family="arial" font-size="14.00" fill="#984ea3">(P &amp;&amp; R)</text>
<text text-anchor="start" x="415.5" y="-133.87" font-family="arial" font-size="14.00" fill="#ff7f00">true</text>
</g>
<!-- ID_125_ct0_st0&#45;&gt;ID_125_ct0_st012 -->
<g id="edge5" class="edge">
<title>ID_125_ct0_st0&#45;&gt;ID_125_ct0_st012</title>
<path fill="none" stroke="black" d="M270.2,-66.17C300.16,-82.44 339.36,-103.74 371.01,-120.93"/>
<polygon fill="black" stroke="black" points="369.69,-124.19 380.14,-125.89 373.03,-118.04 369.69,-124.19"/>
<text text-anchor="start" x="308" y="-103.87" font-family="arial" font-size="14.00" fill="#377eb8">true</text>
</g>
<!-- ID_125_ct0_st0123W -->
<g id="node6" class="node">
<title>ID_125_ct0_st0123W</title>
<polygon fill="none" stroke="black" points="729,-138.07 579,-138.07 579,-88.07 729,-88.07 729,-138.07"/>
<text text-anchor="start" x="587" y="-123.87" font-family="arial" font-weight="bold" font-size="14.00">ID_125_ct0_st0123W</text>
<text text-anchor="start" x="625" y="-109.87" font-family="arial" font-size="14.00" fill="#984ea3">(P &amp;&amp; !R)</text>
<text text-anchor="start" x="631" y="-95.87" font-family="arial" font-size="14.00" fill="#ff7f00">c0 &lt;= 5</text>
</g>
<!-- ID_125_ct0_st0&#45;&gt;ID_125_ct0_st0123W -->
<g id="edge6" class="edge">
<title>ID_125_ct0_st0&#45;&gt;ID_125_ct0_st0123W</title>
<path fill="none" stroke="black" d="M280.11,-21.94C338.09,-5.29 430.4,12.37 505,-14.07 544.91,-28.22 543.66,-50.75 579,-74.07 583.55,-77.07 588.35,-80.03 593.23,-82.89"/>
<polygon fill="black" stroke="black" points="591.66,-86.02 602.08,-87.93 595.12,-79.94 591.66,-86.02"/>
<text text-anchor="start" x="415.5" y="-32.87" font-family="arial" font-size="14.00" fill="#377eb8">true</text>
<text text-anchor="start" x="408.5" y="-17.87" font-family="arial" font-size="14.00">c0 :=0</text>
</g>
<!-- _ID_125_ct0_st012 -->
<!-- _ID_125_ct0_st012&#45;&gt;ID_125_ct0_st012 -->
<g id="edge2" class="edge">
<title>_ID_125_ct0_st012&#45;&gt;ID_125_ct0_st012</title>
<path fill="none" stroke="black" d="M290.03,-151.07C310.07,-151.07 332.22,-151.07 352.73,-151.07"/>
<polygon fill="black" stroke="black" points="352.98,-154.57 362.98,-151.07 352.98,-147.57 352.98,-154.57"/>
</g>
<!-- ID_125_ct0_st012&#45;&gt;ID_125_ct0_st012 -->
<g id="edge13" class="edge">
<title>ID_125_ct0_st012&#45;&gt;ID_125_ct0_st012</title>
<path fill="none" stroke="black" d="M407.7,-176.25C406.82,-185.98 413.42,-194.07 427.5,-194.07 436.3,-194.07 442.18,-190.91 445.13,-186.16"/>
<polygon fill="black" stroke="black" points="448.58,-186.76 447.3,-176.25 441.74,-185.27 448.58,-186.76"/>
<text text-anchor="start" x="415.5" y="-197.87" font-family="arial" font-size="14.00" fill="#377eb8">true</text>
</g>
<!-- ID_125_ct0_st012&#45;&gt;ID_125_ct0_st0123W -->
<g id="edge14" class="edge">
<title>ID_125_ct0_st012&#45;&gt;ID_125_ct0_st0123W</title>
<path fill="none" stroke="black" d="M492.2,-140.59C514.03,-136.98 538.59,-132.88 561,-129.07 563.52,-128.64 566.07,-128.21 568.65,-127.77"/>
<polygon fill="black" stroke="black" points="569.43,-131.18 578.69,-126.04 568.25,-124.28 569.43,-131.18"/>
<text text-anchor="start" x="530" y="-153.87" font-family="arial" font-size="14.00" fill="#377eb8">true</text>
<text text-anchor="start" x="523" y="-138.87" font-family="arial" font-size="14.00">c0 :=0</text>
</g>
<!-- ID_125_ct0_st02 -->
<g id="node7" class="node">
<title>ID_125_ct0_st02</title>
<polygon fill="none" stroke="black" points="1142,-214.07 1020,-214.07 1020,-164.07 1142,-164.07 1142,-214.07"/>
<text text-anchor="start" x="1028" y="-199.87" font-family="arial" font-weight="bold" font-size="14.00">ID_125_ct0_st02</text>
<text text-anchor="start" x="1052" y="-185.87" font-family="arial" font-size="14.00" fill="#984ea3">(!P &amp;&amp; R)</text>
<text text-anchor="start" x="1069" y="-171.87" font-family="arial" font-size="14.00" fill="#ff7f00">true</text>
</g>
<!-- ID_125_ct0_st012&#45;&gt;ID_125_ct0_st02 -->
<g id="edge11" class="edge">
<title>ID_125_ct0_st012&#45;&gt;ID_125_ct0_st02</title>
<path fill="none" stroke="black" d="M454.57,-176.25C472.69,-192.8 498,-214.09 523,-229.07 546.08,-242.9 552.86,-245.69 579,-252.07 737.46,-290.74 785.15,-277.13 946,-250.07 971.2,-245.83 978.37,-246.78 1002,-237.07 1013.49,-232.35 1025.23,-226.04 1036,-219.55"/>
<polygon fill="black" stroke="black" points="1038.14,-222.34 1044.79,-214.09 1034.45,-216.39 1038.14,-222.34"/>
<text text-anchor="start" x="754" y="-278.87" font-family="arial" font-size="14.00" fill="#377eb8">true</text>
</g>
<!-- ID_125_ct0_st023W -->
<g id="node8" class="node">
<title>ID_125_ct0_st023W</title>
<polygon fill="none" stroke="black" points="946,-87.07 803,-87.07 803,-37.07 946,-37.07 946,-87.07"/>
<text text-anchor="start" x="811" y="-72.87" font-family="arial" font-weight="bold" font-size="14.00">ID_125_ct0_st023W</text>
<text text-anchor="start" x="844" y="-58.87" font-family="arial" font-size="14.00" fill="#984ea3">(!P &amp;&amp; !R)</text>
<text text-anchor="start" x="851.5" y="-44.87" font-family="arial" font-size="14.00" fill="#ff7f00">c0 &lt;= 5</text>
</g>
<!-- ID_125_ct0_st012&#45;&gt;ID_125_ct0_st023W -->
<g id="edge12" class="edge">
<title>ID_125_ct0_st012&#45;&gt;ID_125_ct0_st023W</title>
<path fill="none" stroke="black" d="M492.01,-172.62C554.2,-190.2 650.75,-207.96 729,-180.07 753.82,-171.22 805.45,-125.96 839.8,-94.14"/>
<polygon fill="black" stroke="black" points="842.34,-96.55 847.27,-87.18 837.57,-91.43 842.34,-96.55"/>
<text text-anchor="start" x="642" y="-212.87" font-family="arial" font-size="14.00" fill="#377eb8">true</text>
<text text-anchor="start" x="635" y="-197.87" font-family="arial" font-size="14.00">c0 :=0</text>
</g>
<!-- _ID_125_ct0_st0123W -->
<!-- _ID_125_ct0_st0123W&#45;&gt;ID_125_ct0_st0123W -->
<g id="edge3" class="edge">
<title>_ID_125_ct0_st0123W&#45;&gt;ID_125_ct0_st0123W</title>
<path fill="none" stroke="black" d="M505.13,-85.41C525.75,-89.26 548.15,-93.45 569.14,-97.38"/>
<polygon fill="black" stroke="black" points="568.52,-100.83 578.99,-99.22 569.8,-93.94 568.52,-100.83"/>
</g>
<!-- ID_125_ct0_st0123W&#45;&gt;ID_125_ct0_st012 -->
<g id="edge21" class="edge">
<title>ID_125_ct0_st0123W&#45;&gt;ID_125_ct0_st012</title>
<path fill="none" stroke="black" d="M578.91,-105.57C560.49,-105.29 540.9,-106.35 523,-110.07 510.43,-112.68 497.47,-117.05 485.34,-121.99"/>
<polygon fill="black" stroke="black" points="483.64,-118.91 475.81,-126.05 486.38,-125.35 483.64,-118.91"/>
<text text-anchor="start" x="530" y="-113.87" font-family="arial" font-size="14.00" fill="#377eb8">true</text>
</g>
<!-- ID_125_ct0_st0123W&#45;&gt;ID_125_ct0_st0123W -->
<g id="edge22" class="edge">
<title>ID_125_ct0_st0123W&#45;&gt;ID_125_ct0_st0123W</title>
<path fill="none" stroke="black" d="M633.08,-138.25C632.15,-147.98 639.12,-156.07 654,-156.07 663.3,-156.07 669.51,-152.91 672.63,-148.16"/>
<polygon fill="black" stroke="black" points="676.08,-148.78 674.92,-138.25 669.26,-147.2 676.08,-148.78"/>
<text text-anchor="start" x="635" y="-159.87" font-family="arial" font-size="14.00" fill="#377eb8">c0 &lt; 5</text>
</g>
<!-- ID_125_ct0_st0123W&#45;&gt;ID_125_ct0_st02 -->
<g id="edge19" class="edge">
<title>ID_125_ct0_st0123W&#45;&gt;ID_125_ct0_st02</title>
<path fill="none" stroke="black" d="M687.17,-138.21C715.76,-158.86 759.63,-186.5 803,-198.07 871.64,-216.38 953.23,-210.58 1010.01,-202.38"/>
<polygon fill="black" stroke="black" points="1010.6,-205.84 1019.97,-200.89 1009.56,-198.91 1010.6,-205.84"/>
<text text-anchor="start" x="862.5" y="-213.87" font-family="arial" font-size="14.00" fill="#377eb8">true</text>
</g>
<!-- ID_125_ct0_st0123W&#45;&gt;ID_125_ct0_st023W -->
<g id="edge20" class="edge">
<title>ID_125_ct0_st0123W&#45;&gt;ID_125_ct0_st023W</title>
<path fill="none" stroke="black" d="M729.34,-112.71C747.75,-111.32 767.27,-108.71 785,-104.07 796.57,-101.04 808.46,-96.51 819.62,-91.52"/>
<polygon fill="black" stroke="black" points="821.21,-94.64 828.8,-87.26 818.26,-88.3 821.21,-94.64"/>
<text text-anchor="start" x="747" y="-113.87" font-family="arial" font-size="14.00" fill="#377eb8">c0 &lt; 5</text>
</g>
<!-- ID_125_ct0_st02&#45;&gt;ID_125_ct0_st012 -->
<g id="edge9" class="edge">
<title>ID_125_ct0_st02&#45;&gt;ID_125_ct0_st012</title>
<path fill="none" stroke="black" d="M1019.91,-213.48C1013.91,-215.53 1007.87,-217.43 1002,-219.07 977.65,-225.86 971.18,-226.84 946,-229.07 783.52,-243.46 737.49,-266.63 579,-228.07 541.4,-218.92 502.6,-198.77 473.82,-181.37"/>
<polygon fill="black" stroke="black" points="475.57,-178.34 465.22,-176.08 471.9,-184.3 475.57,-178.34"/>
<text text-anchor="start" x="754" y="-251.87" font-family="arial" font-size="14.00" fill="#377eb8">true</text>
</g>
<!-- ID_125_ct0_st02&#45;&gt;ID_125_ct0_st0123W -->
<g id="edge10" class="edge">
<title>ID_125_ct0_st02&#45;&gt;ID_125_ct0_st0123W</title>
<path fill="none" stroke="black" d="M1019.85,-178.31C946.41,-165.18 821.77,-142.89 738.92,-128.08"/>
<polygon fill="black" stroke="black" points="739.49,-124.62 729.03,-126.31 738.26,-131.51 739.49,-124.62"/>
<text text-anchor="start" x="862.5" y="-182.87" font-family="arial" font-size="14.00" fill="#377eb8">true</text>
<text text-anchor="start" x="855.5" y="-167.87" font-family="arial" font-size="14.00">c0 :=0</text>
</g>
<!-- ID_125_ct0_st02&#45;&gt;ID_125_ct0_st02 -->
<g id="edge7" class="edge">
<title>ID_125_ct0_st02&#45;&gt;ID_125_ct0_st02</title>
<path fill="none" stroke="black" d="M1062.7,-214.25C1061.88,-223.98 1067.98,-232.07 1081,-232.07 1089.13,-232.07 1094.57,-228.91 1097.3,-224.16"/>
<polygon fill="black" stroke="black" points="1100.76,-224.74 1099.3,-214.25 1093.89,-223.36 1100.76,-224.74"/>
<text text-anchor="start" x="1069" y="-235.87" font-family="arial" font-size="14.00" fill="#377eb8">true</text>
</g>
<!-- ID_125_ct0_st02&#45;&gt;ID_125_ct0_st023W -->
<g id="edge8" class="edge">
<title>ID_125_ct0_st02&#45;&gt;ID_125_ct0_st023W</title>
<path fill="none" stroke="black" d="M1071.21,-163.95C1059.95,-135.94 1037.51,-91.82 1002,-71.07 988.36,-63.1 972.42,-58.89 956.55,-56.96"/>
<polygon fill="black" stroke="black" points="956.43,-53.43 946.15,-56 955.79,-60.4 956.43,-53.43"/>
<text text-anchor="start" x="971" y="-89.87" font-family="arial" font-size="14.00" fill="#377eb8">true</text>
<text text-anchor="start" x="964" y="-74.87" font-family="arial" font-size="14.00">c0 :=0</text>
</g>
<!-- ID_125_ct0_st023W&#45;&gt;ID_125_ct0_st012 -->
<g id="edge17" class="edge">
<title>ID_125_ct0_st023W&#45;&gt;ID_125_ct0_st012</title>
<path fill="none" stroke="black" d="M802.81,-52.55C742.28,-46.75 653.38,-43.85 579,-64.07 557.59,-69.89 511.12,-97.73 475.45,-120.37"/>
<polygon fill="black" stroke="black" points="473.18,-117.66 466.63,-126 476.94,-123.56 473.18,-117.66"/>
<text text-anchor="start" x="642" y="-67.87" font-family="arial" font-size="14.00" fill="#377eb8">true</text>
</g>
<!-- ID_125_ct0_st023W&#45;&gt;ID_125_ct0_st0123W -->
<g id="edge18" class="edge">
<title>ID_125_ct0_st023W&#45;&gt;ID_125_ct0_st0123W</title>
<path fill="none" stroke="black" d="M802.79,-76.58C784.57,-80.47 765.03,-84.8 747,-89.07 744.38,-89.69 741.72,-90.33 739.04,-90.98"/>
<polygon fill="black" stroke="black" points="738.11,-87.61 729.24,-93.4 739.79,-94.4 738.11,-87.61"/>
<text text-anchor="start" x="747" y="-92.87" font-family="arial" font-size="14.00" fill="#377eb8">c0 &lt; 5</text>
</g>
<!-- ID_125_ct0_st023W&#45;&gt;ID_125_ct0_st02 -->
<g id="edge15" class="edge">
<title>ID_125_ct0_st023W&#45;&gt;ID_125_ct0_st02</title>
<path fill="none" stroke="black" d="M930.05,-87.16C952.86,-98.4 979.28,-112.41 1002,-127.07 1015.95,-136.07 1030.4,-147.04 1043.02,-157.23"/>
<polygon fill="black" stroke="black" points="1041.07,-160.16 1051.03,-163.79 1045.51,-154.75 1041.07,-160.16"/>
<text text-anchor="start" x="971" y="-130.87" font-family="arial" font-size="14.00" fill="#377eb8">true</text>
</g>
<!-- ID_125_ct0_st023W&#45;&gt;ID_125_ct0_st023W -->
<g id="edge16" class="edge">
<title>ID_125_ct0_st023W&#45;&gt;ID_125_ct0_st023W</title>
<path fill="none" stroke="black" d="M854.33,-87.25C853.43,-96.98 860.16,-105.07 874.5,-105.07 883.46,-105.07 889.45,-101.91 892.46,-97.16"/>
<polygon fill="black" stroke="black" points="895.92,-97.77 894.67,-87.25 889.08,-96.25 895.92,-97.77"/>
<text text-anchor="start" x="855.5" y="-108.87" font-family="arial" font-size="14.00" fill="#377eb8">c0 &lt; 5</text>
</g>
</g>
</svg>
