<?xml version="1.0" encoding="UTF-8" standalone="no"?>
<!DOCTYPE svg PUBLIC "-//W3C//DTD SVG 1.1//EN"
 "http://www.w3.org/Graphics/SVG/1.1/DTD/svg11.dtd">
<!-- Generated by graphviz version 2.43.0 (0)
 -->
<!-- Title: G Pages: 1 -->
<svg width="638pt" height="182pt"
 viewBox="0.00 0.00 638.00 182.00" xmlns="http://www.w3.org/2000/svg" xmlns:xlink="http://www.w3.org/1999/xlink">
<g id="graph0" class="graph" transform="scale(1 1) rotate(0) translate(4 178)">
<title>G</title>
<polygon fill="white" stroke="transparent" points="-4,4 -4,-178 634,-178 634,4 -4,4"/>
<!-- _ID_87_ct0_st -->
<!-- ID_87_ct0_st -->
<g id="node2" class="node">
<title>ID_87_ct0_st</title>
<polygon fill="none" stroke="black" points="630,-87 531,-87 531,-37 630,-37 630,-87"/>
<text text-anchor="start" x="539" y="-72.8" font-family="arial" font-weight="bold" font-size="14.00">ID_87_ct0_st</text>
<text text-anchor="start" x="568.5" y="-58.8" font-family="arial" font-size="14.00" fill="#984ea3">true</text>
<text text-anchor="start" x="568.5" y="-44.8" font-family="arial" font-size="14.00" fill="#ff7f00">true</text>
</g>
<!-- _ID_87_ct0_st&#45;&gt;ID_87_ct0_st -->
<g id="edge1" class="edge">
<title>_ID_87_ct0_st&#45;&gt;ID_87_ct0_st</title>
<path fill="none" stroke="black" d="M464.26,-137.89C470.31,-135.09 476.37,-132.1 482,-129 501,-118.54 520.91,-105.31 537.75,-93.37"/>
<polygon fill="black" stroke="black" points="540.17,-95.94 546.26,-87.27 536.09,-90.25 540.17,-95.94"/>
</g>
<!-- ID_87_ct0_st&#45;&gt;ID_87_ct0_st -->
<g id="edge4" class="edge">
<title>ID_87_ct0_st&#45;&gt;ID_87_ct0_st</title>
<path fill="none" stroke="black" d="M566.68,-87.18C566.06,-96.91 570.67,-105 580.5,-105 586.64,-105 590.75,-101.84 592.81,-97.09"/>
<polygon fill="black" stroke="black" points="596.27,-97.59 594.32,-87.18 589.35,-96.53 596.27,-97.59"/>
<text text-anchor="start" x="568.5" y="-108.8" font-family="arial" font-size="14.00" fill="#377eb8">true</text>
</g>
<!-- _ID_87_ct0_st0 -->
<!-- ID_87_ct0_st0 -->
<g id="node4" class="node">
<title>ID_87_ct0_st0</title>
<polygon fill="none" stroke="black" points="267.5,-50 160.5,-50 160.5,0 267.5,0 267.5,-50"/>
<text text-anchor="start" x="168.5" y="-35.8" font-family="arial" font-weight="bold" font-size="14.00">ID_87_ct0_st0</text>
<text text-anchor="start" x="185" y="-21.8" font-family="arial" font-size="14.00" fill="#984ea3">(!P &amp;&amp; R)</text>
<text text-anchor="start" x="202" y="-7.8" font-family="arial" font-size="14.00" fill="#ff7f00">true</text>
</g>
<!-- _ID_87_ct0_st0&#45;&gt;ID_87_ct0_st0 -->
<g id="edge2" class="edge">
<title>_ID_87_ct0_st0&#45;&gt;ID_87_ct0_st0</title>
<path fill="none" stroke="black" d="M111.24,-25C123.82,-25 137.31,-25 150.21,-25"/>
<polygon fill="black" stroke="black" points="150.4,-28.5 160.4,-25 150.4,-21.5 150.4,-28.5"/>
</g>
<!-- ID_87_ct0_st0&#45;&gt;ID_87_ct0_st -->
<g id="edge5" class="edge">
<title>ID_87_ct0_st0&#45;&gt;ID_87_ct0_st</title>
<path fill="none" stroke="black" d="M267.73,-14.19C322.18,-4.98 409.2,4.27 482,-13 498.64,-16.95 515.67,-24.2 530.74,-31.94"/>
<polygon fill="black" stroke="black" points="529.38,-35.18 539.85,-36.8 532.67,-29.01 529.38,-35.18"/>
<text text-anchor="start" x="411.5" y="-16.8" font-family="arial" font-size="14.00" fill="#377eb8">P&#39;</text>
</g>
<!-- ID_87_ct0_st0&#45;&gt;ID_87_ct0_st0 -->
<g id="edge6" class="edge">
<title>ID_87_ct0_st0&#45;&gt;ID_87_ct0_st0</title>
<path fill="none" stroke="black" d="M198.31,-50.18C197.61,-59.91 202.84,-68 214,-68 220.97,-68 225.63,-64.84 227.97,-60.09"/>
<polygon fill="black" stroke="black" points="231.43,-60.63 229.69,-50.18 224.53,-59.43 231.43,-60.63"/>
<text text-anchor="start" x="202" y="-71.8" font-family="arial" font-size="14.00" fill="#377eb8">true</text>
</g>
<!-- ID_87_ct0_st01W -->
<g id="node6" class="node">
<title>ID_87_ct0_st01W</title>
<polygon fill="none" stroke="black" points="482,-87 354,-87 354,-37 482,-37 482,-87"/>
<text text-anchor="start" x="362" y="-72.8" font-family="arial" font-weight="bold" font-size="14.00">ID_87_ct0_st01W</text>
<text text-anchor="start" x="387.5" y="-58.8" font-family="arial" font-size="14.00" fill="#984ea3">(!P &amp;&amp; !R)</text>
<text text-anchor="start" x="395" y="-44.8" font-family="arial" font-size="14.00" fill="#ff7f00">c0 &lt;= 5</text>
</g>
<!-- ID_87_ct0_st0&#45;&gt;ID_87_ct0_st01W -->
<g id="edge7" class="edge">
<title>ID_87_ct0_st0&#45;&gt;ID_87_ct0_st01W</title>
<path fill="none" stroke="black" d="M267.89,-40.15C277.84,-42.68 288.2,-45.09 298,-47 312.61,-49.84 328.35,-52.27 343.44,-54.29"/>
<polygon fill="black" stroke="black" points="343.39,-57.81 353.76,-55.62 344.29,-50.87 343.39,-57.81"/>
<text text-anchor="start" x="305" y="-70.8" font-family="arial" font-size="14.00" fill="#377eb8">true</text>
<text text-anchor="start" x="298" y="-55.8" font-family="arial" font-size="14.00">c0 :=0</text>
</g>
<!-- _ID_87_ct0_st01W -->
<!-- _ID_87_ct0_st01W&#45;&gt;ID_87_ct0_st01W -->
<g id="edge3" class="edge">
<title>_ID_87_ct0_st01W&#45;&gt;ID_87_ct0_st01W</title>
<path fill="none" stroke="black" d="M280.07,-101.53C298.2,-96.59 317.88,-91.15 336,-86 338.62,-85.25 341.29,-84.49 343.98,-83.72"/>
<polygon fill="black" stroke="black" points="345.18,-87.01 353.81,-80.87 343.23,-80.29 345.18,-87.01"/>
</g>
<!-- ID_87_ct0_st01W&#45;&gt;ID_87_ct0_st -->
<g id="edge8" class="edge">
<title>ID_87_ct0_st01W&#45;&gt;ID_87_ct0_st</title>
<path fill="none" stroke="black" d="M482.43,-62C495.03,-62 508.2,-62 520.64,-62"/>
<polygon fill="black" stroke="black" points="520.88,-65.5 530.88,-62 520.88,-58.5 520.88,-65.5"/>
<text text-anchor="start" x="500" y="-65.8" font-family="arial" font-size="14.00" fill="#377eb8">P&#39;</text>
</g>
<!-- ID_87_ct0_st01W&#45;&gt;ID_87_ct0_st0 -->
<g id="edge9" class="edge">
<title>ID_87_ct0_st01W&#45;&gt;ID_87_ct0_st0</title>
<path fill="none" stroke="black" d="M365.2,-36.93C355.69,-33.29 345.69,-30.08 336,-28 317.28,-23.99 296.55,-22.45 277.62,-22.14"/>
<polygon fill="black" stroke="black" points="277.63,-18.64 267.61,-22.08 277.59,-25.64 277.63,-18.64"/>
<text text-anchor="start" x="305" y="-31.8" font-family="arial" font-size="14.00" fill="#377eb8">true</text>
</g>
<!-- ID_87_ct0_st01W&#45;&gt;ID_87_ct0_st01W -->
<g id="edge10" class="edge">
<title>ID_87_ct0_st01W&#45;&gt;ID_87_ct0_st01W</title>
<path fill="none" stroke="black" d="M401.56,-87.18C400.83,-96.91 406.31,-105 418,-105 425.3,-105 430.18,-101.84 432.64,-97.09"/>
<polygon fill="black" stroke="black" points="436.1,-97.64 434.44,-87.18 429.21,-96.39 436.1,-97.64"/>
<text text-anchor="start" x="399" y="-108.8" font-family="arial" font-size="14.00" fill="#377eb8">c0 &lt; 5</text>
</g>
</g>
</svg>
