<?xml version="1.0" encoding="UTF-8" standalone="no"?>
<!DOCTYPE svg PUBLIC "-//W3C//DTD SVG 1.1//EN"
 "http://www.w3.org/Graphics/SVG/1.1/DTD/svg11.dtd">
<!-- Generated by graphviz version 2.43.0 (0)
 -->
<!-- Title: G Pages: 1 -->
<svg width="1292pt" height="664pt"
 viewBox="0.00 0.00 1292.00 664.00" xmlns="http://www.w3.org/2000/svg" xmlns:xlink="http://www.w3.org/1999/xlink">
<g id="graph0" class="graph" transform="scale(1 1) rotate(0) translate(4 660)">
<title>G</title>
<polygon fill="white" stroke="transparent" points="-4,4 -4,-660 1288,-660 1288,4 -4,4"/>
<!-- _ID_36_ct0_st0 -->
<!-- ID_36_ct0_st0 -->
<g id="node2" class="node">
<title>ID_36_ct0_st0</title>
<polygon fill="none" stroke="black" points="261,-459 154,-459 154,-409 261,-409 261,-459"/>
<text text-anchor="start" x="162" y="-444.8" font-family="arial" font-weight="bold" font-size="14.00">ID_36_ct0_st0</text>
<text text-anchor="start" x="201" y="-430.8" font-family="arial" font-size="14.00" fill="#984ea3">!P</text>
<text text-anchor="start" x="195.5" y="-416.8" font-family="arial" font-size="14.00" fill="#ff7f00">true</text>
</g>
<!-- _ID_36_ct0_st0&#45;&gt;ID_36_ct0_st0 -->
<g id="edge1" class="edge">
<title>_ID_36_ct0_st0&#45;&gt;ID_36_ct0_st0</title>
<path fill="none" stroke="black" d="M111.08,-434C121.62,-434 132.74,-434 143.52,-434"/>
<polygon fill="black" stroke="black" points="143.72,-437.5 153.72,-434 143.72,-430.5 143.72,-437.5"/>
</g>
<!-- ID_36_ct0_st0&#45;&gt;ID_36_ct0_st0 -->
<g id="edge5" class="edge">
<title>ID_36_ct0_st0&#45;&gt;ID_36_ct0_st0</title>
<path fill="none" stroke="black" d="M192.93,-459.18C192.28,-468.91 197.14,-477 207.5,-477 213.97,-477 218.3,-473.84 220.47,-469.09"/>
<polygon fill="black" stroke="black" points="223.94,-469.6 222.07,-459.18 217.03,-468.49 223.94,-469.6"/>
<text text-anchor="start" x="195.5" y="-480.8" font-family="arial" font-size="14.00" fill="#377eb8">true</text>
</g>
<!-- ID_36_ct0_st01 -->
<g id="node4" class="node">
<title>ID_36_ct0_st01</title>
<polygon fill="none" stroke="black" points="441,-291 327,-291 327,-241 441,-241 441,-291"/>
<text text-anchor="start" x="335" y="-276.8" font-family="arial" font-weight="bold" font-size="14.00">ID_36_ct0_st01</text>
<text text-anchor="start" x="356.5" y="-262.8" font-family="arial" font-size="14.00" fill="#984ea3">(P &amp;&amp; Q)</text>
<text text-anchor="start" x="372" y="-248.8" font-family="arial" font-size="14.00" fill="#ff7f00">true</text>
</g>
<!-- ID_36_ct0_st0&#45;&gt;ID_36_ct0_st01 -->
<g id="edge6" class="edge">
<title>ID_36_ct0_st0&#45;&gt;ID_36_ct0_st01</title>
<path fill="none" stroke="black" d="M227.35,-408.85C242.1,-389.88 263.64,-363.67 285,-343 301.71,-326.84 321.65,-310.68 339.17,-297.37"/>
<polygon fill="black" stroke="black" points="341.65,-299.88 347.55,-291.08 337.45,-294.28 341.65,-299.88"/>
<text text-anchor="start" x="285" y="-346.8" font-family="arial" font-size="14.00" fill="#377eb8">true</text>
</g>
<!-- ID_36_ct0_st012 -->
<g id="node6" class="node">
<title>ID_36_ct0_st012</title>
<polygon fill="none" stroke="black" points="1284,-442 1162,-442 1162,-392 1284,-392 1284,-442"/>
<text text-anchor="start" x="1170" y="-427.8" font-family="arial" font-weight="bold" font-size="14.00">ID_36_ct0_st012</text>
<text text-anchor="start" x="1171.5" y="-413.8" font-family="arial" font-size="14.00" fill="#984ea3">(P &amp;&amp; (!Q &amp;&amp; R))</text>
<text text-anchor="start" x="1211" y="-399.8" font-family="arial" font-size="14.00" fill="#ff7f00">true</text>
</g>
<!-- ID_36_ct0_st0&#45;&gt;ID_36_ct0_st012 -->
<g id="edge7" class="edge">
<title>ID_36_ct0_st0&#45;&gt;ID_36_ct0_st012</title>
<path fill="none" stroke="black" d="M211.77,-459.19C218.29,-498.88 236.72,-575.71 285,-617 319.08,-646.15 338.16,-641 383,-641 383,-641 383,-641 1017.5,-641 1074.73,-641 1099.98,-653.57 1144,-617 1194.13,-575.35 1212.17,-497.27 1218.57,-451.97"/>
<polygon fill="black" stroke="black" points="1222.05,-452.39 1219.86,-442.02 1215.1,-451.48 1222.05,-452.39"/>
<text text-anchor="start" x="675" y="-644.8" font-family="arial" font-size="14.00" fill="#377eb8">true</text>
</g>
<!-- ID_36_ct0_st0123W -->
<g id="node8" class="node">
<title>ID_36_ct0_st0123W</title>
<polygon fill="none" stroke="black" points="1088,-348 945,-348 945,-298 1088,-298 1088,-348"/>
<text text-anchor="start" x="953" y="-333.8" font-family="arial" font-weight="bold" font-size="14.00">ID_36_ct0_st0123W</text>
<text text-anchor="start" x="963" y="-319.8" font-family="arial" font-size="14.00" fill="#984ea3">(P &amp;&amp; (!Q &amp;&amp; !R))</text>
<text text-anchor="start" x="993.5" y="-305.8" font-family="arial" font-size="14.00" fill="#ff7f00">c0 &lt;= 5</text>
</g>
<!-- ID_36_ct0_st0&#45;&gt;ID_36_ct0_st0123W -->
<g id="edge8" class="edge">
<title>ID_36_ct0_st0&#45;&gt;ID_36_ct0_st0123W</title>
<path fill="none" stroke="black" d="M261.03,-442.72C295.58,-447.72 341.86,-453 383,-453 383,-453 383,-453 688,-453 769.77,-453 795.04,-464.27 871,-434 894.33,-424.7 944.3,-384.24 978.9,-354.85"/>
<polygon fill="black" stroke="black" points="981.57,-357.17 986.9,-348.01 977.02,-351.85 981.57,-357.17"/>
<text text-anchor="start" x="570.5" y="-471.8" font-family="arial" font-size="14.00" fill="#377eb8">true</text>
<text text-anchor="start" x="563.5" y="-456.8" font-family="arial" font-size="14.00">c0 :=0</text>
</g>
<!-- _ID_36_ct0_st01 -->
<!-- _ID_36_ct0_st01&#45;&gt;ID_36_ct0_st01 -->
<g id="edge2" class="edge">
<title>_ID_36_ct0_st01&#45;&gt;ID_36_ct0_st01</title>
<path fill="none" stroke="black" d="M267.09,-266C283.08,-266 300.51,-266 316.89,-266"/>
<polygon fill="black" stroke="black" points="316.93,-269.5 326.93,-266 316.93,-262.5 316.93,-269.5"/>
</g>
<!-- ID_36_ct0_st01&#45;&gt;ID_36_ct0_st0 -->
<g id="edge9" class="edge">
<title>ID_36_ct0_st01&#45;&gt;ID_36_ct0_st0</title>
<path fill="none" stroke="black" d="M326.82,-280.47C312.12,-286.13 297.03,-293.78 285,-304 254.79,-329.67 233.56,-370.44 221.25,-399.48"/>
<polygon fill="black" stroke="black" points="217.97,-398.25 217.42,-408.83 224.45,-400.91 217.97,-398.25"/>
<text text-anchor="start" x="289.5" y="-307.8" font-family="arial" font-size="14.00" fill="#377eb8">Q&#39;</text>
</g>
<!-- ID_36_ct0_st01&#45;&gt;ID_36_ct0_st01 -->
<g id="edge12" class="edge">
<title>ID_36_ct0_st01&#45;&gt;ID_36_ct0_st01</title>
<path fill="none" stroke="black" d="M367.94,-291.18C367.22,-300.91 372.58,-309 384,-309 391.14,-309 395.91,-305.84 398.31,-301.09"/>
<polygon fill="black" stroke="black" points="401.76,-301.63 400.06,-291.18 394.87,-300.41 401.76,-301.63"/>
<text text-anchor="start" x="372" y="-312.8" font-family="arial" font-size="14.00" fill="#377eb8">true</text>
</g>
<!-- ID_36_ct0_st01&#45;&gt;ID_36_ct0_st012 -->
<g id="edge13" class="edge">
<title>ID_36_ct0_st01&#45;&gt;ID_36_ct0_st012</title>
<path fill="none" stroke="black" d="M413.16,-291.17C423.45,-301.85 434.22,-315.05 441,-329 460.74,-369.62 438.43,-388.8 459,-429 488.85,-487.32 515.98,-511 581.5,-511 581.5,-511 581.5,-511 1017.5,-511 1078.89,-511 1141.96,-475.59 1181.52,-448.24"/>
<polygon fill="black" stroke="black" points="1183.93,-450.82 1190.08,-442.19 1179.89,-445.1 1183.93,-450.82"/>
<text text-anchor="start" x="785.5" y="-514.8" font-family="arial" font-size="14.00" fill="#377eb8">true</text>
</g>
<!-- ID_36_ct0_st01&#45;&gt;ID_36_ct0_st0123W -->
<g id="edge14" class="edge">
<title>ID_36_ct0_st01&#45;&gt;ID_36_ct0_st0123W</title>
<path fill="none" stroke="black" d="M389.95,-240.93C398.08,-206.76 417.67,-146.26 459,-115 547.59,-48 595.17,-69.76 706,-77 804.85,-83.46 848.56,-45.5 927,-106 984.48,-150.33 1004.82,-238.27 1011.88,-287.5"/>
<polygon fill="black" stroke="black" points="1008.44,-288.22 1013.23,-297.68 1015.38,-287.31 1008.44,-288.22"/>
<text text-anchor="start" x="675" y="-95.8" font-family="arial" font-size="14.00" fill="#377eb8">true</text>
<text text-anchor="start" x="668" y="-80.8" font-family="arial" font-size="14.00">c0 :=0</text>
</g>
<!-- ID_36_ct0_st02 -->
<g id="node9" class="node">
<title>ID_36_ct0_st02</title>
<polygon fill="none" stroke="black" points="859,-338 736,-338 736,-288 859,-288 859,-338"/>
<text text-anchor="start" x="748.5" y="-323.8" font-family="arial" font-weight="bold" font-size="14.00">ID_36_ct0_st02</text>
<text text-anchor="start" x="744" y="-309.8" font-family="arial" font-size="14.00" fill="#984ea3">(!P &amp;&amp; (!Q &amp;&amp; R))</text>
<text text-anchor="start" x="785.5" y="-295.8" font-family="arial" font-size="14.00" fill="#ff7f00">true</text>
</g>
<!-- ID_36_ct0_st01&#45;&gt;ID_36_ct0_st02 -->
<g id="edge10" class="edge">
<title>ID_36_ct0_st01&#45;&gt;ID_36_ct0_st02</title>
<path fill="none" stroke="black" d="M408.24,-291.21C421.73,-304.17 439.83,-318.91 459,-327 560.57,-369.88 597.82,-371.26 706,-350 715.74,-348.09 725.76,-345.11 735.42,-341.67"/>
<polygon fill="black" stroke="black" points="736.8,-344.89 744.93,-338.09 734.34,-338.33 736.8,-344.89"/>
<text text-anchor="start" x="570.5" y="-366.8" font-family="arial" font-size="14.00" fill="#377eb8">true</text>
</g>
<!-- ID_36_ct0_st023W -->
<g id="node10" class="node">
<title>ID_36_ct0_st023W</title>
<polygon fill="none" stroke="black" points="650,-244 515,-244 515,-194 650,-194 650,-244"/>
<text text-anchor="start" x="523" y="-229.8" font-family="arial" font-weight="bold" font-size="14.00">ID_36_ct0_st023W</text>
<text text-anchor="start" x="527" y="-215.8" font-family="arial" font-size="14.00" fill="#984ea3">(!P &amp;&amp; (!Q &amp;&amp; !R))</text>
<text text-anchor="start" x="559.5" y="-201.8" font-family="arial" font-size="14.00" fill="#ff7f00">c0 &lt;= 5</text>
</g>
<!-- ID_36_ct0_st01&#45;&gt;ID_36_ct0_st023W -->
<g id="edge11" class="edge">
<title>ID_36_ct0_st01&#45;&gt;ID_36_ct0_st023W</title>
<path fill="none" stroke="black" d="M441.21,-253.86C459.07,-249.89 478.89,-245.38 497,-241 499.6,-240.37 502.25,-239.72 504.92,-239.06"/>
<polygon fill="black" stroke="black" points="505.82,-242.45 514.67,-236.63 504.12,-235.66 505.82,-242.45"/>
<text text-anchor="start" x="466" y="-268.8" font-family="arial" font-size="14.00" fill="#377eb8">true</text>
<text text-anchor="start" x="459" y="-253.8" font-family="arial" font-size="14.00">c0 :=0</text>
</g>
<!-- _ID_36_ct0_st012 -->
<!-- _ID_36_ct0_st012&#45;&gt;ID_36_ct0_st012 -->
<g id="edge3" class="edge">
<title>_ID_36_ct0_st012&#45;&gt;ID_36_ct0_st012</title>
<path fill="none" stroke="black" d="M1079.65,-550.15C1101.39,-545.55 1125.07,-537.85 1144,-525 1171.15,-506.57 1192.16,-475.39 1205.5,-451.26"/>
<polygon fill="black" stroke="black" points="1208.61,-452.87 1210.24,-442.4 1202.44,-449.57 1208.61,-452.87"/>
</g>
<!-- ID_36_ct0_st012&#45;&gt;ID_36_ct0_st0 -->
<g id="edge21" class="edge">
<title>ID_36_ct0_st012&#45;&gt;ID_36_ct0_st0</title>
<path fill="none" stroke="black" d="M1211.06,-442.2C1198.04,-470.15 1174.22,-515.44 1144,-547 1101.48,-591.41 1078.98,-603 1017.5,-603 383,-603 383,-603 383,-603 306.33,-603 250.56,-517.78 224.66,-468.38"/>
<polygon fill="black" stroke="black" points="227.7,-466.62 220.03,-459.3 221.46,-469.8 227.7,-466.62"/>
<text text-anchor="start" x="679.5" y="-606.8" font-family="arial" font-size="14.00" fill="#377eb8">Q&#39;</text>
</g>
<!-- ID_36_ct0_st012&#45;&gt;ID_36_ct0_st01 -->
<g id="edge24" class="edge">
<title>ID_36_ct0_st012&#45;&gt;ID_36_ct0_st01</title>
<path fill="none" stroke="black" d="M1221.43,-391.85C1217.92,-301.7 1193.08,0 1017.5,0 581.5,0 581.5,0 581.5,0 467.95,0 412.57,-158.76 393.25,-230.98"/>
<polygon fill="black" stroke="black" points="389.78,-230.42 390.66,-240.98 396.55,-232.17 389.78,-230.42"/>
<text text-anchor="start" x="785.5" y="-3.8" font-family="arial" font-size="14.00" fill="#377eb8">true</text>
</g>
<!-- ID_36_ct0_st012&#45;&gt;ID_36_ct0_st012 -->
<g id="edge25" class="edge">
<title>ID_36_ct0_st012&#45;&gt;ID_36_ct0_st012</title>
<path fill="none" stroke="black" d="M1204.7,-442.18C1203.88,-451.91 1209.98,-460 1223,-460 1231.13,-460 1236.57,-456.84 1239.3,-452.09"/>
<polygon fill="black" stroke="black" points="1242.76,-452.67 1241.3,-442.18 1235.89,-451.29 1242.76,-452.67"/>
<text text-anchor="start" x="1211" y="-463.8" font-family="arial" font-size="14.00" fill="#377eb8">true</text>
</g>
<!-- ID_36_ct0_st012&#45;&gt;ID_36_ct0_st0123W -->
<g id="edge26" class="edge">
<title>ID_36_ct0_st012&#45;&gt;ID_36_ct0_st0123W</title>
<path fill="none" stroke="black" d="M1180.05,-391.95C1168.53,-385.45 1155.93,-378.69 1144,-373 1128.5,-365.61 1111.59,-358.38 1095.34,-351.82"/>
<polygon fill="black" stroke="black" points="1096.44,-348.49 1085.86,-348.04 1093.85,-354.99 1096.44,-348.49"/>
<text text-anchor="start" x="1113" y="-391.8" font-family="arial" font-size="14.00" fill="#377eb8">true</text>
<text text-anchor="start" x="1106" y="-376.8" font-family="arial" font-size="14.00">c0 :=0</text>
</g>
<!-- ID_36_ct0_st012&#45;&gt;ID_36_ct0_st02 -->
<g id="edge22" class="edge">
<title>ID_36_ct0_st012&#45;&gt;ID_36_ct0_st02</title>
<path fill="none" stroke="black" d="M1161.89,-433.24C1104.57,-445.79 1016.61,-457.32 945,-433 932.03,-428.6 873.87,-379.07 834.84,-345.04"/>
<polygon fill="black" stroke="black" points="836.66,-341.98 826.83,-338.04 832.06,-347.25 836.66,-341.98"/>
<text text-anchor="start" x="1004.5" y="-450.8" font-family="arial" font-size="14.00" fill="#377eb8">true</text>
</g>
<!-- ID_36_ct0_st012&#45;&gt;ID_36_ct0_st023W -->
<g id="edge23" class="edge">
<title>ID_36_ct0_st012&#45;&gt;ID_36_ct0_st023W</title>
<path fill="none" stroke="black" d="M1221.69,-391.81C1219.71,-339.31 1208.04,-216.99 1144,-144 1074.68,-64.99 1029.92,-71.33 927,-50 813.92,-26.56 765.02,-8.35 668,-71 627.85,-96.93 604.72,-149.07 593.12,-184.02"/>
<polygon fill="black" stroke="black" points="589.7,-183.23 590.02,-193.82 596.37,-185.34 589.7,-183.23"/>
<text text-anchor="start" x="896" y="-68.8" font-family="arial" font-size="14.00" fill="#377eb8">true</text>
<text text-anchor="start" x="889" y="-53.8" font-family="arial" font-size="14.00">c0 :=0</text>
</g>
<!-- _ID_36_ct0_st0123W -->
<!-- _ID_36_ct0_st0123W&#45;&gt;ID_36_ct0_st0123W -->
<g id="edge4" class="edge">
<title>_ID_36_ct0_st0123W&#45;&gt;ID_36_ct0_st0123W</title>
<path fill="none" stroke="black" d="M847.3,-388.97C855.23,-386 863.35,-382.93 871,-380 894.57,-370.96 920.22,-360.91 943.28,-351.8"/>
<polygon fill="black" stroke="black" points="944.64,-355.03 952.65,-348.09 942.07,-348.52 944.64,-355.03"/>
</g>
<!-- ID_36_ct0_st0123W&#45;&gt;ID_36_ct0_st0 -->
<g id="edge33" class="edge">
<title>ID_36_ct0_st0123W&#45;&gt;ID_36_ct0_st0</title>
<path fill="none" stroke="black" d="M981.91,-348.13C969.21,-358.81 955.35,-372.01 945,-386 933.65,-401.35 935.5,-407.9 927,-425 903.46,-472.36 910.81,-495.18 871,-530 845.12,-552.64 832.88,-557 798.5,-557 383,-557 383,-557 383,-557 320.46,-557 264.55,-503.56 233.7,-467.13"/>
<polygon fill="black" stroke="black" points="236.21,-464.67 227.14,-459.19 230.81,-469.13 236.21,-464.67"/>
<text text-anchor="start" x="575" y="-560.8" font-family="arial" font-size="14.00" fill="#377eb8">Q&#39;</text>
</g>
<!-- ID_36_ct0_st0123W&#45;&gt;ID_36_ct0_st01 -->
<g id="edge36" class="edge">
<title>ID_36_ct0_st0123W&#45;&gt;ID_36_ct0_st01</title>
<path fill="none" stroke="black" d="M1012,-297.9C1004.66,-256 983.41,-172.79 927,-136 820.23,-66.36 745.02,-116.58 668,-130 596.81,-142.41 581.64,-157.05 515,-185 489.52,-195.69 482.7,-197.8 459,-212 447.7,-218.77 435.96,-226.82 425.25,-234.6"/>
<polygon fill="black" stroke="black" points="422.88,-232 416.91,-240.76 427.04,-237.63 422.88,-232"/>
<text text-anchor="start" x="675" y="-133.8" font-family="arial" font-size="14.00" fill="#377eb8">true</text>
</g>
<!-- ID_36_ct0_st0123W&#45;&gt;ID_36_ct0_st012 -->
<g id="edge37" class="edge">
<title>ID_36_ct0_st0123W&#45;&gt;ID_36_ct0_st012</title>
<path fill="none" stroke="black" d="M1088.17,-322.29C1107.04,-324.35 1126.92,-328.66 1144,-337 1165.72,-347.6 1184.78,-366.84 1198.62,-383.79"/>
<polygon fill="black" stroke="black" points="1196.05,-386.18 1204.98,-391.88 1201.55,-381.86 1196.05,-386.18"/>
<text text-anchor="start" x="1113" y="-340.8" font-family="arial" font-size="14.00" fill="#377eb8">true</text>
</g>
<!-- ID_36_ct0_st0123W&#45;&gt;ID_36_ct0_st0123W -->
<g id="edge38" class="edge">
<title>ID_36_ct0_st0123W&#45;&gt;ID_36_ct0_st0123W</title>
<path fill="none" stroke="black" d="M996.33,-348.18C995.43,-357.91 1002.16,-366 1016.5,-366 1025.46,-366 1031.45,-362.84 1034.46,-358.09"/>
<polygon fill="black" stroke="black" points="1037.92,-358.7 1036.67,-348.18 1031.08,-357.18 1037.92,-358.7"/>
<text text-anchor="start" x="997.5" y="-369.8" font-family="arial" font-size="14.00" fill="#377eb8">c0 &lt; 5</text>
</g>
<!-- ID_36_ct0_st0123W&#45;&gt;ID_36_ct0_st02 -->
<g id="edge34" class="edge">
<title>ID_36_ct0_st0123W&#45;&gt;ID_36_ct0_st02</title>
<path fill="none" stroke="black" d="M944.83,-302.07C938.84,-300.83 932.84,-299.78 927,-299 908.24,-296.5 887.89,-297.17 869.04,-299.19"/>
<polygon fill="black" stroke="black" points="868.55,-295.72 859.04,-300.4 869.39,-302.67 868.55,-295.72"/>
<text text-anchor="start" x="896" y="-302.8" font-family="arial" font-size="14.00" fill="#377eb8">true</text>
</g>
<!-- ID_36_ct0_st0123W&#45;&gt;ID_36_ct0_st023W -->
<g id="edge35" class="edge">
<title>ID_36_ct0_st0123W&#45;&gt;ID_36_ct0_st023W</title>
<path fill="none" stroke="black" d="M990.52,-298C963.65,-273.02 918.36,-236.21 871,-221 802.15,-198.89 719.16,-201.16 660.08,-207.3"/>
<polygon fill="black" stroke="black" points="659.63,-203.83 650.07,-208.4 660.39,-210.79 659.63,-203.83"/>
<text text-anchor="start" x="778.5" y="-224.8" font-family="arial" font-size="14.00" fill="#377eb8">c0 &lt; 5</text>
</g>
<!-- ID_36_ct0_st02&#45;&gt;ID_36_ct0_st0 -->
<g id="edge15" class="edge">
<title>ID_36_ct0_st02&#45;&gt;ID_36_ct0_st0</title>
<path fill="none" stroke="black" d="M759.86,-338.01C743.85,-348.09 724.54,-359.17 706,-367 682.27,-377.03 675.31,-377.15 650,-382 516.34,-407.63 357.35,-422.62 271.33,-429.47"/>
<polygon fill="black" stroke="black" points="270.9,-426 261.21,-430.27 271.45,-432.97 270.9,-426"/>
<text text-anchor="start" x="470.5" y="-413.8" font-family="arial" font-size="14.00" fill="#377eb8">Q&#39;</text>
</g>
<!-- ID_36_ct0_st02&#45;&gt;ID_36_ct0_st01 -->
<g id="edge18" class="edge">
<title>ID_36_ct0_st02&#45;&gt;ID_36_ct0_st01</title>
<path fill="none" stroke="black" d="M735.69,-318.35C725.77,-319.04 715.61,-319.63 706,-320 616.89,-323.44 515.66,-302.12 451.12,-285.26"/>
<polygon fill="black" stroke="black" points="451.64,-281.78 441.08,-282.59 449.85,-288.54 451.64,-281.78"/>
<text text-anchor="start" x="570.5" y="-323.8" font-family="arial" font-size="14.00" fill="#377eb8">true</text>
</g>
<!-- ID_36_ct0_st02&#45;&gt;ID_36_ct0_st012 -->
<g id="edge19" class="edge">
<title>ID_36_ct0_st02&#45;&gt;ID_36_ct0_st012</title>
<path fill="none" stroke="black" d="M836.22,-338.07C864.82,-355.74 905.77,-378.27 945,-390 1013.2,-410.39 1094.65,-416.26 1151.5,-417.56"/>
<polygon fill="black" stroke="black" points="1151.76,-421.06 1161.83,-417.75 1151.89,-414.07 1151.76,-421.06"/>
<text text-anchor="start" x="1004.5" y="-417.8" font-family="arial" font-size="14.00" fill="#377eb8">true</text>
</g>
<!-- ID_36_ct0_st02&#45;&gt;ID_36_ct0_st0123W -->
<g id="edge20" class="edge">
<title>ID_36_ct0_st02&#45;&gt;ID_36_ct0_st0123W</title>
<path fill="none" stroke="black" d="M859.24,-315.8C882.6,-316.88 909.65,-318.12 934.62,-319.27"/>
<polygon fill="black" stroke="black" points="934.65,-322.78 944.8,-319.74 934.97,-315.79 934.65,-322.78"/>
<text text-anchor="start" x="896" y="-337.8" font-family="arial" font-size="14.00" fill="#377eb8">true</text>
<text text-anchor="start" x="889" y="-322.8" font-family="arial" font-size="14.00">c0 :=0</text>
</g>
<!-- ID_36_ct0_st02&#45;&gt;ID_36_ct0_st02 -->
<g id="edge16" class="edge">
<title>ID_36_ct0_st02&#45;&gt;ID_36_ct0_st02</title>
<path fill="none" stroke="black" d="M776.96,-338.18C776.04,-347.91 782.89,-356 797.5,-356 806.63,-356 812.73,-352.84 815.8,-348.09"/>
<polygon fill="black" stroke="black" points="819.25,-348.7 818.04,-338.18 812.42,-347.15 819.25,-348.7"/>
<text text-anchor="start" x="785.5" y="-359.8" font-family="arial" font-size="14.00" fill="#377eb8">true</text>
</g>
<!-- ID_36_ct0_st02&#45;&gt;ID_36_ct0_st023W -->
<g id="edge17" class="edge">
<title>ID_36_ct0_st02&#45;&gt;ID_36_ct0_st023W</title>
<path fill="none" stroke="black" d="M745.54,-287.81C738.12,-283.51 730.72,-278.85 724,-274 715.08,-267.56 715.5,-262.55 706,-257 691.83,-248.72 675.67,-242.06 659.83,-236.77"/>
<polygon fill="black" stroke="black" points="660.62,-233.35 650.03,-233.65 658.5,-240.02 660.62,-233.35"/>
<text text-anchor="start" x="675" y="-275.8" font-family="arial" font-size="14.00" fill="#377eb8">true</text>
<text text-anchor="start" x="668" y="-260.8" font-family="arial" font-size="14.00">c0 :=0</text>
</g>
<!-- ID_36_ct0_st023W&#45;&gt;ID_36_ct0_st0 -->
<g id="edge27" class="edge">
<title>ID_36_ct0_st023W&#45;&gt;ID_36_ct0_st0</title>
<path fill="none" stroke="black" d="M555.17,-244.07C528.1,-268.9 483.96,-306.91 441,-333 439.02,-334.2 338.83,-377.62 270.64,-407.13"/>
<polygon fill="black" stroke="black" points="269.03,-404.01 261.24,-411.19 271.81,-410.43 269.03,-404.01"/>
<text text-anchor="start" x="376.5" y="-385.8" font-family="arial" font-size="14.00" fill="#377eb8">Q&#39;</text>
</g>
<!-- ID_36_ct0_st023W&#45;&gt;ID_36_ct0_st01 -->
<g id="edge30" class="edge">
<title>ID_36_ct0_st023W&#45;&gt;ID_36_ct0_st01</title>
<path fill="none" stroke="black" d="M514.76,-214.51C496.4,-214.91 476.68,-216.91 459,-222 448.33,-225.07 437.63,-230.07 427.8,-235.61"/>
<polygon fill="black" stroke="black" points="425.86,-232.69 419.06,-240.81 429.44,-238.7 425.86,-232.69"/>
<text text-anchor="start" x="466" y="-225.8" font-family="arial" font-size="14.00" fill="#377eb8">true</text>
</g>
<!-- ID_36_ct0_st023W&#45;&gt;ID_36_ct0_st012 -->
<g id="edge31" class="edge">
<title>ID_36_ct0_st023W&#45;&gt;ID_36_ct0_st012</title>
<path fill="none" stroke="black" d="M650.15,-202.58C656.16,-201.54 662.17,-200.65 668,-200 782.49,-187.29 817.52,-174.15 927,-210 1030.14,-243.77 1061.55,-251.43 1144,-322 1165.04,-340.01 1184.8,-364.18 1199.16,-383.63"/>
<polygon fill="black" stroke="black" points="1196.47,-385.88 1205.17,-391.92 1202.14,-381.77 1196.47,-385.88"/>
<text text-anchor="start" x="896" y="-213.8" font-family="arial" font-size="14.00" fill="#377eb8">true</text>
</g>
<!-- ID_36_ct0_st023W&#45;&gt;ID_36_ct0_st0123W -->
<g id="edge32" class="edge">
<title>ID_36_ct0_st023W&#45;&gt;ID_36_ct0_st0123W</title>
<path fill="none" stroke="black" d="M650.29,-228.61C668.37,-231.27 687.94,-234.2 706,-237 779.43,-248.4 799.48,-243.83 871,-264 898.52,-271.76 927.9,-283.15 952.94,-293.85"/>
<polygon fill="black" stroke="black" points="951.74,-297.15 962.31,-297.91 954.52,-290.73 951.74,-297.15"/>
<text text-anchor="start" x="778.5" y="-267.8" font-family="arial" font-size="14.00" fill="#377eb8">c0 &lt; 5</text>
</g>
<!-- ID_36_ct0_st023W&#45;&gt;ID_36_ct0_st02 -->
<g id="edge28" class="edge">
<title>ID_36_ct0_st023W&#45;&gt;ID_36_ct0_st02</title>
<path fill="none" stroke="black" d="M608.29,-244.31C624.06,-258.96 645.67,-276.52 668,-287 685.9,-295.4 706.44,-301.09 725.78,-304.94"/>
<polygon fill="black" stroke="black" points="725.29,-308.41 735.76,-306.8 726.57,-301.53 725.29,-308.41"/>
<text text-anchor="start" x="675" y="-304.8" font-family="arial" font-size="14.00" fill="#377eb8">true</text>
</g>
<!-- ID_36_ct0_st023W&#45;&gt;ID_36_ct0_st023W -->
<g id="edge29" class="edge">
<title>ID_36_ct0_st023W&#45;&gt;ID_36_ct0_st023W</title>
<path fill="none" stroke="black" d="M563.08,-244.18C562.21,-253.91 568.69,-262 582.5,-262 591.13,-262 596.9,-258.84 599.8,-254.09"/>
<polygon fill="black" stroke="black" points="603.25,-254.69 601.92,-244.18 596.41,-253.22 603.25,-254.69"/>
<text text-anchor="start" x="563.5" y="-265.8" font-family="arial" font-size="14.00" fill="#377eb8">c0 &lt; 5</text>
</g>
</g>
</svg>
