<?xml version="1.0" encoding="UTF-8" standalone="no"?>
<!DOCTYPE svg PUBLIC "-//W3C//DTD SVG 1.1//EN"
 "http://www.w3.org/Graphics/SVG/1.1/DTD/svg11.dtd">
<!-- Generated by graphviz version 2.43.0 (0)
 -->
<!-- Title: G Pages: 1 -->
<svg width="1103pt" height="295pt"
 viewBox="0.00 0.00 1103.00 295.37" xmlns="http://www.w3.org/2000/svg" xmlns:xlink="http://www.w3.org/1999/xlink">
<g id="graph0" class="graph" transform="scale(1 1) rotate(0) translate(4 291.37)">
<title>G</title>
<polygon fill="white" stroke="transparent" points="-4,4 -4,-291.37 1099,-291.37 1099,4 -4,4"/>
<!-- _ID_35_ct0_st0 -->
<!-- ID_35_ct0_st0 -->
<g id="node2" class="node">
<title>ID_35_ct0_st0</title>
<polygon fill="none" stroke="black" points="264.5,-65.37 157.5,-65.37 157.5,-15.37 264.5,-15.37 264.5,-65.37"/>
<text text-anchor="start" x="165.5" y="-51.17" font-family="arial" font-weight="bold" font-size="14.00">ID_35_ct0_st0</text>
<text text-anchor="start" x="204.5" y="-37.17" font-family="arial" font-size="14.00" fill="#984ea3">!P</text>
<text text-anchor="start" x="199" y="-23.17" font-family="arial" font-size="14.00" fill="#ff7f00">true</text>
</g>
<!-- _ID_35_ct0_st0&#45;&gt;ID_35_ct0_st0 -->
<g id="edge1" class="edge">
<title>_ID_35_ct0_st0&#45;&gt;ID_35_ct0_st0</title>
<path fill="none" stroke="black" d="M111.05,-40.37C122.71,-40.37 135.13,-40.37 147.08,-40.37"/>
<polygon fill="black" stroke="black" points="147.43,-43.87 157.43,-40.37 147.43,-36.87 147.43,-43.87"/>
</g>
<!-- ID_35_ct0_st0&#45;&gt;ID_35_ct0_st0 -->
<g id="edge4" class="edge">
<title>ID_35_ct0_st0&#45;&gt;ID_35_ct0_st0</title>
<path fill="none" stroke="black" d="M196.06,-65.54C195.39,-75.28 200.38,-83.37 211,-83.37 217.64,-83.37 222.08,-80.21 224.31,-75.46"/>
<polygon fill="black" stroke="black" points="227.77,-75.98 225.94,-65.54 220.86,-74.84 227.77,-75.98"/>
<text text-anchor="start" x="199" y="-87.17" font-family="arial" font-size="14.00" fill="#377eb8">true</text>
</g>
<!-- ID_35_ct0_st012 -->
<g id="node4" class="node">
<title>ID_35_ct0_st012</title>
<polygon fill="none" stroke="black" points="468.5,-175.37 346.5,-175.37 346.5,-125.37 468.5,-125.37 468.5,-175.37"/>
<text text-anchor="start" x="354.5" y="-161.17" font-family="arial" font-weight="bold" font-size="14.00">ID_35_ct0_st012</text>
<text text-anchor="start" x="380.5" y="-147.17" font-family="arial" font-size="14.00" fill="#984ea3">(P &amp;&amp; R)</text>
<text text-anchor="start" x="395.5" y="-133.17" font-family="arial" font-size="14.00" fill="#ff7f00">true</text>
</g>
<!-- ID_35_ct0_st0&#45;&gt;ID_35_ct0_st012 -->
<g id="edge5" class="edge">
<title>ID_35_ct0_st0&#45;&gt;ID_35_ct0_st012</title>
<path fill="none" stroke="black" d="M256.62,-65.6C285.41,-81.88 323,-103.14 353.33,-120.3"/>
<polygon fill="black" stroke="black" points="351.66,-123.37 362.09,-125.25 355.1,-117.28 351.66,-123.37"/>
<text text-anchor="start" x="292" y="-103.17" font-family="arial" font-size="14.00" fill="#377eb8">true</text>
</g>
<!-- ID_35_ct0_st0123W -->
<g id="node6" class="node">
<title>ID_35_ct0_st0123W</title>
<polygon fill="none" stroke="black" points="698,-137.37 555,-137.37 555,-87.37 698,-87.37 698,-137.37"/>
<text text-anchor="start" x="563" y="-123.17" font-family="arial" font-weight="bold" font-size="14.00">ID_35_ct0_st0123W</text>
<text text-anchor="start" x="597.5" y="-109.17" font-family="arial" font-size="14.00" fill="#984ea3">(P &amp;&amp; !R)</text>
<text text-anchor="start" x="603.5" y="-95.17" font-family="arial" font-size="14.00" fill="#ff7f00">c0 &lt;= 5</text>
</g>
<!-- ID_35_ct0_st0&#45;&gt;ID_35_ct0_st0123W -->
<g id="edge6" class="edge">
<title>ID_35_ct0_st0&#45;&gt;ID_35_ct0_st0123W</title>
<path fill="none" stroke="black" d="M264.67,-22C320.1,-5.63 409.11,12.11 481,-13.37 520.91,-27.51 519.89,-49.69 555,-73.37 559.31,-76.27 563.86,-79.16 568.48,-81.97"/>
<polygon fill="black" stroke="black" points="567.03,-85.18 577.41,-87.26 570.59,-79.15 567.03,-85.18"/>
<text text-anchor="start" x="395.5" y="-32.17" font-family="arial" font-size="14.00" fill="#377eb8">true</text>
<text text-anchor="start" x="388.5" y="-17.17" font-family="arial" font-size="14.00">c0 :=0</text>
</g>
<!-- _ID_35_ct0_st012 -->
<!-- _ID_35_ct0_st012&#45;&gt;ID_35_ct0_st012 -->
<g id="edge2" class="edge">
<title>_ID_35_ct0_st012&#45;&gt;ID_35_ct0_st012</title>
<path fill="none" stroke="black" d="M274.08,-150.37C293.86,-150.37 315.88,-150.37 336.21,-150.37"/>
<polygon fill="black" stroke="black" points="336.34,-153.87 346.34,-150.37 336.34,-146.87 336.34,-153.87"/>
</g>
<!-- ID_35_ct0_st012&#45;&gt;ID_35_ct0_st012 -->
<g id="edge13" class="edge">
<title>ID_35_ct0_st012&#45;&gt;ID_35_ct0_st012</title>
<path fill="none" stroke="black" d="M388.45,-175.54C387.6,-185.28 393.95,-193.37 407.5,-193.37 415.97,-193.37 421.62,-190.21 424.47,-185.46"/>
<polygon fill="black" stroke="black" points="427.92,-186.05 426.55,-175.54 421.07,-184.61 427.92,-186.05"/>
<text text-anchor="start" x="395.5" y="-197.17" font-family="arial" font-size="14.00" fill="#377eb8">true</text>
</g>
<!-- ID_35_ct0_st012&#45;&gt;ID_35_ct0_st0123W -->
<g id="edge14" class="edge">
<title>ID_35_ct0_st012&#45;&gt;ID_35_ct0_st0123W</title>
<path fill="none" stroke="black" d="M468.66,-140.19C490.23,-136.51 514.71,-132.29 537,-128.37 539.65,-127.9 542.34,-127.43 545.06,-126.94"/>
<polygon fill="black" stroke="black" points="545.75,-130.38 554.98,-125.18 544.52,-123.48 545.75,-130.38"/>
<text text-anchor="start" x="506" y="-153.17" font-family="arial" font-size="14.00" fill="#377eb8">true</text>
<text text-anchor="start" x="499" y="-138.17" font-family="arial" font-size="14.00">c0 :=0</text>
</g>
<!-- ID_35_ct0_st02 -->
<g id="node7" class="node">
<title>ID_35_ct0_st02</title>
<polygon fill="none" stroke="black" points="1095,-213.37 981,-213.37 981,-163.37 1095,-163.37 1095,-213.37"/>
<text text-anchor="start" x="989" y="-199.17" font-family="arial" font-weight="bold" font-size="14.00">ID_35_ct0_st02</text>
<text text-anchor="start" x="1009" y="-185.17" font-family="arial" font-size="14.00" fill="#984ea3">(!P &amp;&amp; R)</text>
<text text-anchor="start" x="1026" y="-171.17" font-family="arial" font-size="14.00" fill="#ff7f00">true</text>
</g>
<!-- ID_35_ct0_st012&#45;&gt;ID_35_ct0_st02 -->
<g id="edge11" class="edge">
<title>ID_35_ct0_st012&#45;&gt;ID_35_ct0_st02</title>
<path fill="none" stroke="black" d="M432.84,-175.38C450.11,-192.07 474.49,-213.58 499,-228.37 521.9,-242.18 528.99,-244.18 555,-250.37 707.2,-286.58 752.79,-274.74 907,-248.37 932.19,-244.06 939.44,-245.25 963,-235.37 973.64,-230.91 984.46,-224.97 994.43,-218.82"/>
<polygon fill="black" stroke="black" points="996.4,-221.71 1002.95,-213.39 992.64,-215.81 996.4,-221.71"/>
<text text-anchor="start" x="723" y="-276.17" font-family="arial" font-size="14.00" fill="#377eb8">true</text>
</g>
<!-- ID_35_ct0_st023W -->
<g id="node8" class="node">
<title>ID_35_ct0_st023W</title>
<polygon fill="none" stroke="black" points="907,-86.37 772,-86.37 772,-36.37 907,-36.37 907,-86.37"/>
<text text-anchor="start" x="780" y="-72.17" font-family="arial" font-weight="bold" font-size="14.00">ID_35_ct0_st023W</text>
<text text-anchor="start" x="809" y="-58.17" font-family="arial" font-size="14.00" fill="#984ea3">(!P &amp;&amp; !R)</text>
<text text-anchor="start" x="816.5" y="-44.17" font-family="arial" font-size="14.00" fill="#ff7f00">c0 &lt;= 5</text>
</g>
<!-- ID_35_ct0_st012&#45;&gt;ID_35_ct0_st023W -->
<g id="edge12" class="edge">
<title>ID_35_ct0_st012&#45;&gt;ID_35_ct0_st023W</title>
<path fill="none" stroke="black" d="M468.63,-171.38C528.55,-188.9 622.3,-206.94 698,-179.37 744.24,-162.53 785.83,-123.04 811.55,-94.38"/>
<polygon fill="black" stroke="black" points="814.41,-96.43 818.37,-86.61 809.15,-91.81 814.41,-96.43"/>
<text text-anchor="start" x="614.5" y="-212.17" font-family="arial" font-size="14.00" fill="#377eb8">true</text>
<text text-anchor="start" x="607.5" y="-197.17" font-family="arial" font-size="14.00">c0 :=0</text>
</g>
<!-- _ID_35_ct0_st0123W -->
<!-- _ID_35_ct0_st0123W&#45;&gt;ID_35_ct0_st0123W -->
<g id="edge3" class="edge">
<title>_ID_35_ct0_st0123W&#45;&gt;ID_35_ct0_st0123W</title>
<path fill="none" stroke="black" d="M481.06,-84.41C501.59,-88.38 524.05,-92.73 545.02,-96.79"/>
<polygon fill="black" stroke="black" points="544.37,-100.23 554.85,-98.69 545.7,-93.36 544.37,-100.23"/>
</g>
<!-- ID_35_ct0_st0123W&#45;&gt;ID_35_ct0_st012 -->
<g id="edge21" class="edge">
<title>ID_35_ct0_st0123W&#45;&gt;ID_35_ct0_st012</title>
<path fill="none" stroke="black" d="M554.69,-104.84C536.39,-104.48 516.82,-105.52 499,-109.37 487.01,-111.96 474.7,-116.27 463.18,-121.15"/>
<polygon fill="black" stroke="black" points="461.42,-118.1 453.7,-125.36 464.26,-124.5 461.42,-118.1"/>
<text text-anchor="start" x="506" y="-113.17" font-family="arial" font-size="14.00" fill="#377eb8">true</text>
</g>
<!-- ID_35_ct0_st0123W&#45;&gt;ID_35_ct0_st0123W -->
<g id="edge22" class="edge">
<title>ID_35_ct0_st0123W&#45;&gt;ID_35_ct0_st0123W</title>
<path fill="none" stroke="black" d="M606.33,-137.54C605.43,-147.28 612.16,-155.37 626.5,-155.37 635.46,-155.37 641.45,-152.21 644.46,-147.46"/>
<polygon fill="black" stroke="black" points="647.92,-148.06 646.67,-137.54 641.08,-146.54 647.92,-148.06"/>
<text text-anchor="start" x="607.5" y="-159.17" font-family="arial" font-size="14.00" fill="#377eb8">c0 &lt; 5</text>
</g>
<!-- ID_35_ct0_st0123W&#45;&gt;ID_35_ct0_st02 -->
<g id="edge19" class="edge">
<title>ID_35_ct0_st0123W&#45;&gt;ID_35_ct0_st02</title>
<path fill="none" stroke="black" d="M658.81,-137.5C686.66,-158.14 729.45,-185.78 772,-197.37 837.82,-215.29 916.25,-209.45 970.62,-201.35"/>
<polygon fill="black" stroke="black" points="971.48,-204.75 980.82,-199.76 970.4,-197.84 971.48,-204.75"/>
<text text-anchor="start" x="827.5" y="-212.17" font-family="arial" font-size="14.00" fill="#377eb8">true</text>
</g>
<!-- ID_35_ct0_st0123W&#45;&gt;ID_35_ct0_st023W -->
<g id="edge20" class="edge">
<title>ID_35_ct0_st0123W&#45;&gt;ID_35_ct0_st023W</title>
<path fill="none" stroke="black" d="M698.24,-112.2C716.64,-110.84 736.26,-108.2 754,-103.37 765,-100.37 776.27,-95.89 786.84,-90.97"/>
<polygon fill="black" stroke="black" points="788.47,-94.07 795.93,-86.55 785.41,-87.78 788.47,-94.07"/>
<text text-anchor="start" x="716" y="-114.17" font-family="arial" font-size="14.00" fill="#377eb8">c0 &lt; 5</text>
</g>
<!-- ID_35_ct0_st02&#45;&gt;ID_35_ct0_st012 -->
<g id="edge9" class="edge">
<title>ID_35_ct0_st02&#45;&gt;ID_35_ct0_st012</title>
<path fill="none" stroke="black" d="M980.89,-212.64C974.92,-214.76 968.87,-216.73 963,-218.37 938.72,-225.15 932.13,-225.36 907,-227.37 751.05,-239.82 706.89,-264.85 555,-227.37 518.37,-218.33 480.78,-198.31 452.85,-180.95"/>
<polygon fill="black" stroke="black" points="454.45,-177.82 444.13,-175.42 450.71,-183.73 454.45,-177.82"/>
<text text-anchor="start" x="723" y="-250.17" font-family="arial" font-size="14.00" fill="#377eb8">true</text>
</g>
<!-- ID_35_ct0_st02&#45;&gt;ID_35_ct0_st0123W -->
<g id="edge10" class="edge">
<title>ID_35_ct0_st02&#45;&gt;ID_35_ct0_st0123W</title>
<path fill="none" stroke="black" d="M980.73,-178.17C916.62,-166.51 808.72,-146.79 716,-129.37 713.35,-128.87 710.66,-128.36 707.94,-127.85"/>
<polygon fill="black" stroke="black" points="708.49,-124.39 698.02,-125.97 707.19,-131.27 708.49,-124.39"/>
<text text-anchor="start" x="827.5" y="-182.17" font-family="arial" font-size="14.00" fill="#377eb8">true</text>
<text text-anchor="start" x="820.5" y="-167.17" font-family="arial" font-size="14.00">c0 :=0</text>
</g>
<!-- ID_35_ct0_st02&#45;&gt;ID_35_ct0_st02 -->
<g id="edge7" class="edge">
<title>ID_35_ct0_st02&#45;&gt;ID_35_ct0_st02</title>
<path fill="none" stroke="black" d="M1020.44,-213.54C1019.66,-223.28 1025.52,-231.37 1038,-231.37 1045.8,-231.37 1051.01,-228.21 1053.64,-223.46"/>
<polygon fill="black" stroke="black" points="1057.09,-224.03 1055.56,-213.54 1050.22,-222.7 1057.09,-224.03"/>
<text text-anchor="start" x="1026" y="-235.17" font-family="arial" font-size="14.00" fill="#377eb8">true</text>
</g>
<!-- ID_35_ct0_st02&#45;&gt;ID_35_ct0_st023W -->
<g id="edge8" class="edge">
<title>ID_35_ct0_st02&#45;&gt;ID_35_ct0_st023W</title>
<path fill="none" stroke="black" d="M1029.02,-163.3C1018.67,-135.33 997.7,-91.26 963,-70.37 949.44,-62.2 933.44,-58.01 917.56,-56.18"/>
<polygon fill="black" stroke="black" points="917.43,-52.66 907.17,-55.31 916.84,-59.64 917.43,-52.66"/>
<text text-anchor="start" x="932" y="-89.17" font-family="arial" font-size="14.00" fill="#377eb8">true</text>
<text text-anchor="start" x="925" y="-74.17" font-family="arial" font-size="14.00">c0 :=0</text>
</g>
<!-- ID_35_ct0_st023W&#45;&gt;ID_35_ct0_st012 -->
<g id="edge17" class="edge">
<title>ID_35_ct0_st023W&#45;&gt;ID_35_ct0_st012</title>
<path fill="none" stroke="black" d="M771.84,-52.16C713.51,-46.36 627.07,-43.31 555,-63.37 534.05,-69.2 488.83,-97.03 454.14,-119.67"/>
<polygon fill="black" stroke="black" points="452.01,-116.88 445.57,-125.3 455.85,-122.74 452.01,-116.88"/>
<text text-anchor="start" x="614.5" y="-67.17" font-family="arial" font-size="14.00" fill="#377eb8">true</text>
</g>
<!-- ID_35_ct0_st023W&#45;&gt;ID_35_ct0_st0123W -->
<g id="edge18" class="edge">
<title>ID_35_ct0_st023W&#45;&gt;ID_35_ct0_st0123W</title>
<path fill="none" stroke="black" d="M771.93,-75.43C753.75,-79.44 734.08,-83.93 716,-88.37 713.41,-89 710.78,-89.66 708.12,-90.33"/>
<polygon fill="black" stroke="black" points="707.25,-86.94 698.43,-92.81 708.99,-93.72 707.25,-86.94"/>
<text text-anchor="start" x="716" y="-92.17" font-family="arial" font-size="14.00" fill="#377eb8">c0 &lt; 5</text>
</g>
<!-- ID_35_ct0_st023W&#45;&gt;ID_35_ct0_st02 -->
<g id="edge15" class="edge">
<title>ID_35_ct0_st023W&#45;&gt;ID_35_ct0_st02</title>
<path fill="none" stroke="black" d="M893.45,-86.4C915.56,-97.62 941.13,-111.64 963,-126.37 976.34,-135.35 990.08,-146.31 1002.05,-156.51"/>
<polygon fill="black" stroke="black" points="999.78,-159.17 1009.63,-163.07 1004.36,-153.88 999.78,-159.17"/>
<text text-anchor="start" x="932" y="-130.17" font-family="arial" font-size="14.00" fill="#377eb8">true</text>
</g>
<!-- ID_35_ct0_st023W&#45;&gt;ID_35_ct0_st023W -->
<g id="edge16" class="edge">
<title>ID_35_ct0_st023W&#45;&gt;ID_35_ct0_st023W</title>
<path fill="none" stroke="black" d="M820.08,-86.54C819.21,-96.28 825.69,-104.37 839.5,-104.37 848.13,-104.37 853.9,-101.21 856.8,-96.46"/>
<polygon fill="black" stroke="black" points="860.25,-97.05 858.92,-86.54 853.41,-95.59 860.25,-97.05"/>
<text text-anchor="start" x="820.5" y="-108.17" font-family="arial" font-size="14.00" fill="#377eb8">c0 &lt; 5</text>
</g>
</g>
</svg>
