<?xml version="1.0" encoding="UTF-8" standalone="no"?>
<!DOCTYPE svg PUBLIC "-//W3C//DTD SVG 1.1//EN"
 "http://www.w3.org/Graphics/SVG/1.1/DTD/svg11.dtd">
<!-- Generated by graphviz version 2.43.0 (0)
 -->
<!-- Title: G Pages: 1 -->
<svg width="707pt" height="155pt"
 viewBox="0.00 0.00 707.00 155.00" xmlns="http://www.w3.org/2000/svg" xmlns:xlink="http://www.w3.org/1999/xlink">
<g id="graph0" class="graph" transform="scale(1 1) rotate(0) translate(4 151)">
<title>G</title>
<polygon fill="white" stroke="transparent" points="-4,4 -4,-151 703,-151 703,4 -4,4"/>
<!-- _ID_54_ct0_st0 -->
<!-- ID_54_ct0_st0 -->
<g id="node2" class="node">
<title>ID_54_ct0_st0</title>
<polygon fill="none" stroke="black" points="271.5,-114 164.5,-114 164.5,-64 271.5,-64 271.5,-114"/>
<text text-anchor="start" x="172.5" y="-99.8" font-family="arial" font-weight="bold" font-size="14.00">ID_54_ct0_st0</text>
<text text-anchor="start" x="194.5" y="-85.8" font-family="arial" font-size="14.00" fill="#984ea3">(S || !R)</text>
<text text-anchor="start" x="206" y="-71.8" font-family="arial" font-size="14.00" fill="#ff7f00">true</text>
</g>
<!-- _ID_54_ct0_st0&#45;&gt;ID_54_ct0_st0 -->
<g id="edge1" class="edge">
<title>_ID_54_ct0_st0&#45;&gt;ID_54_ct0_st0</title>
<path fill="none" stroke="black" d="M111.29,-89C125.1,-89 140.03,-89 154.2,-89"/>
<polygon fill="black" stroke="black" points="154.36,-92.5 164.36,-89 154.36,-85.5 154.36,-92.5"/>
</g>
<!-- ID_54_ct0_st0&#45;&gt;ID_54_ct0_st0 -->
<g id="edge3" class="edge">
<title>ID_54_ct0_st0&#45;&gt;ID_54_ct0_st0</title>
<path fill="none" stroke="black" d="M201.56,-114.18C200.83,-123.91 206.31,-132 218,-132 225.3,-132 230.18,-128.84 232.64,-124.09"/>
<polygon fill="black" stroke="black" points="236.1,-124.64 234.44,-114.18 229.21,-123.39 236.1,-124.64"/>
<text text-anchor="start" x="206" y="-135.8" font-family="arial" font-size="14.00" fill="#377eb8">true</text>
</g>
<!-- ID_54_ct0_st012W -->
<g id="node4" class="node">
<title>ID_54_ct0_st012W</title>
<polygon fill="none" stroke="black" points="497,-70 362,-70 362,-20 497,-20 497,-70"/>
<text text-anchor="start" x="370" y="-55.8" font-family="arial" font-weight="bold" font-size="14.00">ID_54_ct0_st012W</text>
<text text-anchor="start" x="400.5" y="-41.8" font-family="arial" font-size="14.00" fill="#984ea3">(R &amp;&amp; !S)</text>
<text text-anchor="start" x="406.5" y="-27.8" font-family="arial" font-size="14.00" fill="#ff7f00">c0 &lt;= 5</text>
</g>
<!-- ID_54_ct0_st0&#45;&gt;ID_54_ct0_st012W -->
<g id="edge4" class="edge">
<title>ID_54_ct0_st0&#45;&gt;ID_54_ct0_st012W</title>
<path fill="none" stroke="black" d="M271.79,-80.68C294.15,-76.9 320.42,-72.13 344,-67 346.62,-66.43 349.28,-65.83 351.96,-65.22"/>
<polygon fill="black" stroke="black" points="352.81,-68.61 361.74,-62.91 351.2,-61.8 352.81,-68.61"/>
<text text-anchor="start" x="313" y="-93.8" font-family="arial" font-size="14.00" fill="#377eb8">true</text>
<text text-anchor="start" x="306" y="-78.8" font-family="arial" font-size="14.00">c0 :=0</text>
</g>
<!-- _ID_54_ct0_st012W -->
<!-- _ID_54_ct0_st012W&#45;&gt;ID_54_ct0_st012W -->
<g id="edge2" class="edge">
<title>_ID_54_ct0_st012W&#45;&gt;ID_54_ct0_st012W</title>
<path fill="none" stroke="black" d="M288.16,-25.23C306.34,-27.27 325.92,-29.6 344,-32 346.51,-32.33 349.06,-32.68 351.64,-33.04"/>
<polygon fill="black" stroke="black" points="351.26,-36.52 361.65,-34.46 352.24,-29.59 351.26,-36.52"/>
</g>
<!-- ID_54_ct0_st012W&#45;&gt;ID_54_ct0_st0 -->
<g id="edge8" class="edge">
<title>ID_54_ct0_st012W&#45;&gt;ID_54_ct0_st0</title>
<path fill="none" stroke="black" d="M361.74,-41.64C343.47,-42.06 323.8,-43.79 306,-48 294.82,-50.65 283.36,-54.84 272.58,-59.54"/>
<polygon fill="black" stroke="black" points="270.94,-56.45 263.3,-63.79 273.85,-62.81 270.94,-56.45"/>
<text text-anchor="start" x="318.5" y="-51.8" font-family="arial" font-size="14.00" fill="#377eb8">S&#39;</text>
</g>
<!-- ID_54_ct0_st012W&#45;&gt;ID_54_ct0_st012W -->
<g id="edge10" class="edge">
<title>ID_54_ct0_st012W&#45;&gt;ID_54_ct0_st012W</title>
<path fill="none" stroke="black" d="M410.08,-70.18C409.21,-79.91 415.69,-88 429.5,-88 438.13,-88 443.9,-84.84 446.8,-80.09"/>
<polygon fill="black" stroke="black" points="450.25,-80.69 448.92,-70.18 443.41,-79.22 450.25,-80.69"/>
<text text-anchor="start" x="410.5" y="-91.8" font-family="arial" font-size="14.00" fill="#377eb8">c0 &lt; 5</text>
</g>
<!-- ID_54_ct0_st02W -->
<g id="node5" class="node">
<title>ID_54_ct0_st02W</title>
<polygon fill="none" stroke="black" points="699,-108 571,-108 571,-58 699,-58 699,-108"/>
<text text-anchor="start" x="579" y="-93.8" font-family="arial" font-weight="bold" font-size="14.00">ID_54_ct0_st02W</text>
<text text-anchor="start" x="604.5" y="-79.8" font-family="arial" font-size="14.00" fill="#984ea3">(!R &amp;&amp; !S)</text>
<text text-anchor="start" x="612" y="-65.8" font-family="arial" font-size="14.00" fill="#ff7f00">c0 &lt;= 5</text>
</g>
<!-- ID_54_ct0_st012W&#45;&gt;ID_54_ct0_st02W -->
<g id="edge9" class="edge">
<title>ID_54_ct0_st012W&#45;&gt;ID_54_ct0_st02W</title>
<path fill="none" stroke="black" d="M497.38,-57.69C503.34,-58.81 509.28,-59.93 515,-61 529.91,-63.79 545.87,-66.75 561.11,-69.58"/>
<polygon fill="black" stroke="black" points="560.53,-73.03 571,-71.4 561.8,-66.14 560.53,-73.03"/>
<text text-anchor="start" x="515" y="-71.8" font-family="arial" font-size="14.00" fill="#377eb8">c0 &lt; 5</text>
</g>
<!-- ID_54_ct0_st02W&#45;&gt;ID_54_ct0_st0 -->
<g id="edge5" class="edge">
<title>ID_54_ct0_st02W&#45;&gt;ID_54_ct0_st0</title>
<path fill="none" stroke="black" d="M570.66,-99.29C547.64,-104.44 521.3,-109.46 497,-112 412.56,-120.84 390.07,-120.83 306,-109 298.04,-107.88 289.72,-106.39 281.53,-104.73"/>
<polygon fill="black" stroke="black" points="282.15,-101.28 271.64,-102.63 280.69,-108.13 282.15,-101.28"/>
<text text-anchor="start" x="423" y="-121.8" font-family="arial" font-size="14.00" fill="#377eb8">S&#39;</text>
</g>
<!-- ID_54_ct0_st02W&#45;&gt;ID_54_ct0_st012W -->
<g id="edge7" class="edge">
<title>ID_54_ct0_st02W&#45;&gt;ID_54_ct0_st012W</title>
<path fill="none" stroke="black" d="M588.05,-58C576.89,-53.07 564.77,-48.61 553,-46 538.49,-42.78 522.78,-41.25 507.6,-40.71"/>
<polygon fill="black" stroke="black" points="507.26,-37.21 497.19,-40.5 507.12,-44.2 507.26,-37.21"/>
<text text-anchor="start" x="515" y="-49.8" font-family="arial" font-size="14.00" fill="#377eb8">c0 &lt; 5</text>
</g>
<!-- ID_54_ct0_st02W&#45;&gt;ID_54_ct0_st02W -->
<g id="edge6" class="edge">
<title>ID_54_ct0_st02W&#45;&gt;ID_54_ct0_st02W</title>
<path fill="none" stroke="black" d="M616.32,-108.18C615.49,-117.91 621.72,-126 635,-126 643.3,-126 648.85,-122.84 651.63,-118.09"/>
<polygon fill="black" stroke="black" points="655.09,-118.68 653.68,-108.18 648.23,-117.26 655.09,-118.68"/>
<text text-anchor="start" x="616" y="-129.8" font-family="arial" font-size="14.00" fill="#377eb8">c0 &lt; 5</text>
</g>
</g>
</svg>
