<?xml version="1.0" encoding="UTF-8" standalone="no"?>
<!DOCTYPE svg PUBLIC "-//W3C//DTD SVG 1.1//EN"
 "http://www.w3.org/Graphics/SVG/1.1/DTD/svg11.dtd">
<!-- Generated by graphviz version 2.43.0 (0)
 -->
<!-- Title: G Pages: 1 -->
<svg width="1942pt" height="1035pt"
 viewBox="0.00 0.00 1942.00 1035.06" xmlns="http://www.w3.org/2000/svg" xmlns:xlink="http://www.w3.org/1999/xlink">
<g id="graph0" class="graph" transform="scale(1 1) rotate(0) translate(4 1031.06)">
<title>G</title>
<polygon fill="white" stroke="transparent" points="-4,4 -4,-1031.06 1938,-1031.06 1938,4 -4,4"/>
<!-- _ID_41_ct0_st0 -->
<!-- ID_41_ct0_st0 -->
<g id="node2" class="node">
<title>ID_41_ct0_st0</title>
<polygon fill="none" stroke="black" points="261,-657.06 154,-657.06 154,-607.06 261,-607.06 261,-657.06"/>
<text text-anchor="start" x="162" y="-642.86" font-family="arial" font-weight="bold" font-size="14.00">ID_41_ct0_st0</text>
<text text-anchor="start" x="201" y="-628.86" font-family="arial" font-size="14.00" fill="#984ea3">!P</text>
<text text-anchor="start" x="195.5" y="-614.86" font-family="arial" font-size="14.00" fill="#ff7f00">true</text>
</g>
<!-- _ID_41_ct0_st0&#45;&gt;ID_41_ct0_st0 -->
<g id="edge1" class="edge">
<title>_ID_41_ct0_st0&#45;&gt;ID_41_ct0_st0</title>
<path fill="none" stroke="black" d="M111.08,-632.06C121.62,-632.06 132.74,-632.06 143.52,-632.06"/>
<polygon fill="black" stroke="black" points="143.72,-635.56 153.72,-632.06 143.72,-628.56 143.72,-635.56"/>
</g>
<!-- ID_41_ct0_st0&#45;&gt;ID_41_ct0_st0 -->
<g id="edge5" class="edge">
<title>ID_41_ct0_st0&#45;&gt;ID_41_ct0_st0</title>
<path fill="none" stroke="black" d="M192.93,-657.23C192.28,-666.97 197.14,-675.06 207.5,-675.06 213.97,-675.06 218.3,-671.9 220.47,-667.15"/>
<polygon fill="black" stroke="black" points="223.94,-667.66 222.07,-657.23 217.03,-666.55 223.94,-667.66"/>
<text text-anchor="start" x="195.5" y="-678.86" font-family="arial" font-size="14.00" fill="#377eb8">true</text>
</g>
<!-- ID_41_ct0_st01 -->
<g id="node4" class="node">
<title>ID_41_ct0_st01</title>
<polygon fill="none" stroke="black" points="441,-400.06 327,-400.06 327,-350.06 441,-350.06 441,-400.06"/>
<text text-anchor="start" x="335" y="-385.86" font-family="arial" font-weight="bold" font-size="14.00">ID_41_ct0_st01</text>
<text text-anchor="start" x="356.5" y="-371.86" font-family="arial" font-size="14.00" fill="#984ea3">(P &amp;&amp; Q)</text>
<text text-anchor="start" x="372" y="-357.86" font-family="arial" font-size="14.00" fill="#ff7f00">true</text>
</g>
<!-- ID_41_ct0_st0&#45;&gt;ID_41_ct0_st01 -->
<g id="edge6" class="edge">
<title>ID_41_ct0_st0&#45;&gt;ID_41_ct0_st01</title>
<path fill="none" stroke="black" d="M212.55,-606.86C220.23,-566 240.33,-484.59 285,-432.06 294.13,-421.32 305.82,-412.13 317.93,-404.46"/>
<polygon fill="black" stroke="black" points="320.01,-407.29 326.79,-399.14 316.41,-401.29 320.01,-407.29"/>
<text text-anchor="start" x="285" y="-435.86" font-family="arial" font-size="14.00" fill="#377eb8">true</text>
</g>
<!-- ID_41_ct0_st012 -->
<g id="node6" class="node">
<title>ID_41_ct0_st012</title>
<polygon fill="none" stroke="black" points="1934,-623.06 1778,-623.06 1778,-573.06 1934,-573.06 1934,-623.06"/>
<text text-anchor="start" x="1803" y="-608.86" font-family="arial" font-weight="bold" font-size="14.00">ID_41_ct0_st012</text>
<text text-anchor="start" x="1786" y="-594.86" font-family="arial" font-size="14.00" fill="#984ea3">(P &amp;&amp; (!Q &amp;&amp; (S || !R)))</text>
<text text-anchor="start" x="1844" y="-580.86" font-family="arial" font-size="14.00" fill="#ff7f00">true</text>
</g>
<!-- ID_41_ct0_st0&#45;&gt;ID_41_ct0_st012 -->
<g id="edge7" class="edge">
<title>ID_41_ct0_st0&#45;&gt;ID_41_ct0_st012</title>
<path fill="none" stroke="black" d="M210.5,-657.27C216.79,-730.4 238.63,-940.34 285,-988.06 316.25,-1020.21 338.16,-1012.06 383,-1012.06 383,-1012.06 383,-1012.06 1608.5,-1012.06 1676.67,-1012.06 1709.86,-1034.25 1760,-988.06 1812.4,-939.78 1841.7,-719.82 1851.37,-633.23"/>
<polygon fill="black" stroke="black" points="1854.87,-633.43 1852.48,-623.11 1847.91,-632.67 1854.87,-633.43"/>
<text text-anchor="start" x="960.5" y="-1015.86" font-family="arial" font-size="14.00" fill="#377eb8">true</text>
</g>
<!-- ID_41_ct0_st01234W -->
<g id="node8" class="node">
<title>ID_41_ct0_st01234W</title>
<polygon fill="none" stroke="black" points="1691,-585.06 1524,-585.06 1524,-535.06 1691,-535.06 1691,-585.06"/>
<text text-anchor="start" x="1540.5" y="-570.86" font-family="arial" font-weight="bold" font-size="14.00">ID_41_ct0_st01234W</text>
<text text-anchor="start" x="1532" y="-556.86" font-family="arial" font-size="14.00" fill="#984ea3">(P &amp;&amp; (!Q &amp;&amp; (R &amp;&amp; !S)))</text>
<text text-anchor="start" x="1584.5" y="-542.86" font-family="arial" font-size="14.00" fill="#ff7f00">c0 &lt;= 5</text>
</g>
<!-- ID_41_ct0_st0&#45;&gt;ID_41_ct0_st01234W -->
<g id="edge8" class="edge">
<title>ID_41_ct0_st0&#45;&gt;ID_41_ct0_st01234W</title>
<path fill="none" stroke="black" d="M214.75,-606.71C225.66,-562.28 248.76,-467.45 267,-387.06 295.06,-263.36 280.6,-226.1 327,-108.06 344.79,-62.8 334.37,-14.06 383,-14.06 383,-14.06 383,-14.06 723,-14.06 931.01,-14.06 996.97,32.47 1190,-45.06 1360.62,-113.58 1406.97,-157.14 1506,-312.06 1521.45,-336.23 1514.16,-347.1 1524,-374.06 1543.74,-428.13 1571.77,-488.72 1589.54,-525.62"/>
<polygon fill="black" stroke="black" points="1586.54,-527.45 1594.05,-534.93 1592.84,-524.4 1586.54,-527.45"/>
<text text-anchor="start" x="832" y="-32.86" font-family="arial" font-size="14.00" fill="#377eb8">true</text>
<text text-anchor="start" x="825" y="-17.86" font-family="arial" font-size="14.00">c0 :=0</text>
</g>
<!-- _ID_41_ct0_st01 -->
<!-- _ID_41_ct0_st01&#45;&gt;ID_41_ct0_st01 -->
<g id="edge2" class="edge">
<title>_ID_41_ct0_st01&#45;&gt;ID_41_ct0_st01</title>
<path fill="none" stroke="black" d="M267.09,-365.09C283.08,-366.47 300.51,-367.97 316.89,-369.37"/>
<polygon fill="black" stroke="black" points="316.66,-372.87 326.93,-370.24 317.26,-365.89 316.66,-372.87"/>
</g>
<!-- ID_41_ct0_st01&#45;&gt;ID_41_ct0_st0 -->
<g id="edge9" class="edge">
<title>ID_41_ct0_st01&#45;&gt;ID_41_ct0_st0</title>
<path fill="none" stroke="black" d="M326.83,-374.47C311.79,-376.88 296.52,-382.01 285,-392.06 225.02,-444.35 211.65,-543.56 208.94,-596.57"/>
<polygon fill="black" stroke="black" points="205.44,-596.7 208.52,-606.84 212.43,-596.99 205.44,-596.7"/>
<text text-anchor="start" x="289.5" y="-395.86" font-family="arial" font-size="14.00" fill="#377eb8">Q&#39;</text>
</g>
<!-- ID_41_ct0_st01&#45;&gt;ID_41_ct0_st01 -->
<g id="edge12" class="edge">
<title>ID_41_ct0_st01&#45;&gt;ID_41_ct0_st01</title>
<path fill="none" stroke="black" d="M367.94,-400.23C367.22,-409.97 372.58,-418.06 384,-418.06 391.14,-418.06 395.91,-414.9 398.31,-410.15"/>
<polygon fill="black" stroke="black" points="401.76,-410.69 400.06,-400.23 394.87,-409.47 401.76,-410.69"/>
<text text-anchor="start" x="372" y="-421.86" font-family="arial" font-size="14.00" fill="#377eb8">true</text>
</g>
<!-- ID_41_ct0_st01&#45;&gt;ID_41_ct0_st012 -->
<g id="edge13" class="edge">
<title>ID_41_ct0_st01&#45;&gt;ID_41_ct0_st012</title>
<path fill="none" stroke="black" d="M392.85,-349.96C408.08,-306.59 446.3,-219.89 515,-195.06 797.32,-92.98 890.83,-145.15 1190,-170.06 1447.99,-191.53 1594.3,-91.14 1760,-290.06 1827.71,-371.34 1847.23,-500.55 1852.8,-562.57"/>
<polygon fill="black" stroke="black" points="1849.32,-562.96 1853.63,-572.63 1856.3,-562.38 1849.32,-562.96"/>
<text text-anchor="start" x="1091" y="-173.86" font-family="arial" font-size="14.00" fill="#377eb8">true</text>
</g>
<!-- ID_41_ct0_st01&#45;&gt;ID_41_ct0_st01234W -->
<g id="edge14" class="edge">
<title>ID_41_ct0_st01&#45;&gt;ID_41_ct0_st01234W</title>
<path fill="none" stroke="black" d="M389.79,-400.24C398.88,-444.56 421.21,-538.59 459,-610.06 536.3,-756.22 598.11,-791.93 759,-830.06 867.48,-855.76 1152,-902.35 1259,-871.06 1274.63,-866.48 1494.41,-724.5 1506,-713.06 1541.8,-677.68 1571.77,-627.52 1589.42,-594.41"/>
<polygon fill="black" stroke="black" points="1592.74,-595.61 1594.28,-585.13 1586.54,-592.36 1592.74,-595.61"/>
<text text-anchor="start" x="960.5" y="-888.86" font-family="arial" font-size="14.00" fill="#377eb8">true</text>
<text text-anchor="start" x="953.5" y="-873.86" font-family="arial" font-size="14.00">c0 :=0</text>
</g>
<!-- ID_41_ct0_st02 -->
<g id="node9" class="node">
<title>ID_41_ct0_st02</title>
<polygon fill="none" stroke="black" points="1437,-311.06 1277,-311.06 1277,-261.06 1437,-261.06 1437,-311.06"/>
<text text-anchor="start" x="1308" y="-296.86" font-family="arial" font-weight="bold" font-size="14.00">ID_41_ct0_st02</text>
<text text-anchor="start" x="1285" y="-282.86" font-family="arial" font-size="14.00" fill="#984ea3">(!P &amp;&amp; (!Q &amp;&amp; (S || !R)))</text>
<text text-anchor="start" x="1345" y="-268.86" font-family="arial" font-size="14.00" fill="#ff7f00">true</text>
</g>
<!-- ID_41_ct0_st01&#45;&gt;ID_41_ct0_st02 -->
<g id="edge10" class="edge">
<title>ID_41_ct0_st01&#45;&gt;ID_41_ct0_st02</title>
<path fill="none" stroke="black" d="M395.46,-349.99C407.07,-325.77 428.3,-290.4 459,-274.06 596.66,-200.77 1067.89,-249.49 1266.54,-274.18"/>
<polygon fill="black" stroke="black" points="1266.3,-277.67 1276.66,-275.44 1267.17,-270.73 1266.3,-277.67"/>
<text text-anchor="start" x="832" y="-245.86" font-family="arial" font-size="14.00" fill="#377eb8">true</text>
</g>
<!-- ID_41_ct0_st0234W -->
<g id="node10" class="node">
<title>ID_41_ct0_st0234W</title>
<polygon fill="none" stroke="black" points="685,-587.06 515,-587.06 515,-537.06 685,-537.06 685,-587.06"/>
<text text-anchor="start" x="536.5" y="-572.86" font-family="arial" font-weight="bold" font-size="14.00">ID_41_ct0_st0234W</text>
<text text-anchor="start" x="523" y="-558.86" font-family="arial" font-size="14.00" fill="#984ea3">(!P &amp;&amp; (!Q &amp;&amp; (R &amp;&amp; !S)))</text>
<text text-anchor="start" x="577" y="-544.86" font-family="arial" font-size="14.00" fill="#ff7f00">c0 &lt;= 5</text>
</g>
<!-- ID_41_ct0_st01&#45;&gt;ID_41_ct0_st0234W -->
<g id="edge11" class="edge">
<title>ID_41_ct0_st01&#45;&gt;ID_41_ct0_st0234W</title>
<path fill="none" stroke="black" d="M398.58,-400.27C411.79,-423.1 433.55,-456.66 459,-480.06 472.74,-492.69 509.78,-514.22 542.31,-532.05"/>
<polygon fill="black" stroke="black" points="540.89,-535.26 551.34,-536.97 544.24,-529.11 540.89,-535.26"/>
<text text-anchor="start" x="466" y="-522.86" font-family="arial" font-size="14.00" fill="#377eb8">true</text>
<text text-anchor="start" x="459" y="-507.86" font-family="arial" font-size="14.00">c0 :=0</text>
</g>
<!-- _ID_41_ct0_st012 -->
<!-- _ID_41_ct0_st012&#45;&gt;ID_41_ct0_st012 -->
<g id="edge3" class="edge">
<title>_ID_41_ct0_st012&#45;&gt;ID_41_ct0_st012</title>
<path fill="none" stroke="black" d="M1670.76,-895.51C1700.88,-892.62 1735.69,-884.26 1760,-863.06 1828.47,-803.32 1847.6,-690.57 1852.93,-633.32"/>
<polygon fill="black" stroke="black" points="1856.43,-633.56 1853.78,-623.31 1849.45,-632.98 1856.43,-633.56"/>
</g>
<!-- ID_41_ct0_st012&#45;&gt;ID_41_ct0_st0 -->
<g id="edge21" class="edge">
<title>ID_41_ct0_st012&#45;&gt;ID_41_ct0_st0</title>
<path fill="none" stroke="black" d="M1852.91,-623.16C1847.19,-677.48 1826.95,-807.53 1760,-889.06 1711,-948.72 1685.71,-974.06 1608.5,-974.06 383,-974.06 383,-974.06 383,-974.06 246.38,-974.06 216.67,-754.85 210.25,-667.43"/>
<polygon fill="black" stroke="black" points="213.73,-666.95 209.56,-657.2 206.74,-667.42 213.73,-666.95"/>
<text text-anchor="start" x="965" y="-977.86" font-family="arial" font-size="14.00" fill="#377eb8">Q&#39;</text>
</g>
<!-- ID_41_ct0_st012&#45;&gt;ID_41_ct0_st01 -->
<g id="edge24" class="edge">
<title>ID_41_ct0_st012&#45;&gt;ID_41_ct0_st01</title>
<path fill="none" stroke="black" d="M1855.05,-572.8C1853.85,-467.28 1834.39,-67.06 1608.5,-67.06 1232.5,-67.06 1232.5,-67.06 1232.5,-67.06 1072.14,-67.06 658.33,-72.14 515,-144.06 439.07,-182.15 405.05,-285.42 391.98,-340.07"/>
<polygon fill="black" stroke="black" points="388.52,-339.46 389.71,-349.99 395.35,-341.03 388.52,-339.46"/>
<text text-anchor="start" x="1091" y="-74.86" font-family="arial" font-size="14.00" fill="#377eb8">true</text>
</g>
<!-- ID_41_ct0_st012&#45;&gt;ID_41_ct0_st012 -->
<g id="edge25" class="edge">
<title>ID_41_ct0_st012&#45;&gt;ID_41_ct0_st012</title>
<path fill="none" stroke="black" d="M1833.59,-623.23C1832.59,-632.97 1840.06,-641.06 1856,-641.06 1865.96,-641.06 1872.61,-637.9 1875.96,-633.15"/>
<polygon fill="black" stroke="black" points="1879.41,-633.78 1878.41,-623.23 1872.61,-632.1 1879.41,-633.78"/>
<text text-anchor="start" x="1844" y="-644.86" font-family="arial" font-size="14.00" fill="#377eb8">true</text>
</g>
<!-- ID_41_ct0_st012&#45;&gt;ID_41_ct0_st01234W -->
<g id="edge26" class="edge">
<title>ID_41_ct0_st012&#45;&gt;ID_41_ct0_st01234W</title>
<path fill="none" stroke="black" d="M1777.7,-586.53C1755.51,-583.19 1731.29,-579.51 1709,-576.06 1706.35,-575.65 1703.66,-575.23 1700.95,-574.8"/>
<polygon fill="black" stroke="black" points="1701.45,-571.34 1691.03,-573.25 1700.37,-578.26 1701.45,-571.34"/>
<text text-anchor="start" x="1722.5" y="-601.86" font-family="arial" font-size="14.00" fill="#377eb8">true</text>
<text text-anchor="start" x="1715.5" y="-586.86" font-family="arial" font-size="14.00">c0 :=0</text>
</g>
<!-- ID_41_ct0_st012&#45;&gt;ID_41_ct0_st02 -->
<g id="edge22" class="edge">
<title>ID_41_ct0_st012&#45;&gt;ID_41_ct0_st02</title>
<path fill="none" stroke="black" d="M1851.88,-572.8C1842.25,-507.85 1806.35,-336.46 1691,-284.06 1614.24,-249.18 1516.88,-254.69 1447.29,-265.89"/>
<polygon fill="black" stroke="black" points="1446.51,-262.47 1437.23,-267.58 1447.67,-269.37 1446.51,-262.47"/>
<text text-anchor="start" x="1595.5" y="-287.86" font-family="arial" font-size="14.00" fill="#377eb8">true</text>
</g>
<!-- ID_41_ct0_st012&#45;&gt;ID_41_ct0_st0234W -->
<g id="edge23" class="edge">
<title>ID_41_ct0_st012&#45;&gt;ID_41_ct0_st0234W</title>
<path fill="none" stroke="black" d="M1852.96,-623.23C1847.53,-671.8 1828.08,-777.79 1760,-825.06 1685.79,-876.58 1037.01,-823.81 947,-816.06 837.97,-806.67 791.01,-848.09 703,-783.06 641.92,-737.92 616.33,-647.24 606.5,-597.21"/>
<polygon fill="black" stroke="black" points="609.91,-596.37 604.64,-587.18 603.03,-597.65 609.91,-596.37"/>
<text text-anchor="start" x="1221.5" y="-855.86" font-family="arial" font-size="14.00" fill="#377eb8">true</text>
<text text-anchor="start" x="1214.5" y="-840.86" font-family="arial" font-size="14.00">c0 :=0</text>
</g>
<!-- _ID_41_ct0_st01234W -->
<!-- _ID_41_ct0_st01234W&#45;&gt;ID_41_ct0_st01234W -->
<g id="edge4" class="edge">
<title>_ID_41_ct0_st01234W&#45;&gt;ID_41_ct0_st01234W</title>
<path fill="none" stroke="black" d="M1434.59,-575.97C1459.51,-573.66 1487.46,-571.07 1513.45,-568.67"/>
<polygon fill="black" stroke="black" points="1514.06,-572.13 1523.69,-567.72 1513.41,-565.16 1514.06,-572.13"/>
</g>
<!-- ID_41_ct0_st01234W&#45;&gt;ID_41_ct0_st0 -->
<g id="edge51" class="edge">
<title>ID_41_ct0_st01234W&#45;&gt;ID_41_ct0_st0</title>
<path fill="none" stroke="black" d="M1598.58,-585.38C1580.14,-639.67 1528.79,-766.93 1437,-824.06 1164.57,-993.59 1043.88,-931.06 723,-931.06 383,-931.06 383,-931.06 383,-931.06 262.06,-931.06 223.43,-746.34 212.44,-667.27"/>
<polygon fill="black" stroke="black" points="215.9,-666.75 211.12,-657.29 208.96,-667.66 215.9,-666.75"/>
<text text-anchor="start" x="836.5" y="-940.86" font-family="arial" font-size="14.00" fill="#377eb8">Q&#39;</text>
</g>
<!-- ID_41_ct0_st01234W&#45;&gt;ID_41_ct0_st01 -->
<g id="edge55" class="edge">
<title>ID_41_ct0_st01234W&#45;&gt;ID_41_ct0_st01</title>
<path fill="none" stroke="black" d="M1582.41,-534.72C1562.71,-514.59 1533.69,-486.23 1506,-464.06 1502.4,-461.18 1441.25,-419.82 1437,-418.06 1333.57,-375.07 1301.45,-379.22 1190,-368.06 916.96,-340.7 589.23,-359.42 451.3,-369.63"/>
<polygon fill="black" stroke="black" points="451.02,-366.15 441.31,-370.38 451.54,-373.13 451.02,-366.15"/>
<text text-anchor="start" x="960.5" y="-358.86" font-family="arial" font-size="14.00" fill="#377eb8">true</text>
</g>
<!-- ID_41_ct0_st01234W&#45;&gt;ID_41_ct0_st012 -->
<g id="edge56" class="edge">
<title>ID_41_ct0_st01234W&#45;&gt;ID_41_ct0_st012</title>
<path fill="none" stroke="black" d="M1691.28,-551.78C1713.76,-551.33 1737.97,-552.51 1760,-557.06 1772.76,-559.69 1785.91,-564.12 1798.21,-569.12"/>
<polygon fill="black" stroke="black" points="1796.86,-572.35 1807.43,-573.04 1799.59,-565.91 1796.86,-572.35"/>
<text text-anchor="start" x="1709" y="-560.86" font-family="arial" font-size="14.00" fill="#377eb8">(Q&#39; || S&#39;)</text>
</g>
<!-- ID_41_ct0_st01234W&#45;&gt;ID_41_ct0_st01234W -->
<g id="edge58" class="edge">
<title>ID_41_ct0_st01234W&#45;&gt;ID_41_ct0_st01234W</title>
<path fill="none" stroke="black" d="M1583.97,-585.23C1582.92,-594.97 1590.77,-603.06 1607.5,-603.06 1617.96,-603.06 1624.95,-599.9 1628.46,-595.15"/>
<polygon fill="black" stroke="black" points="1631.91,-595.79 1631.03,-585.23 1625.13,-594.03 1631.91,-595.79"/>
<text text-anchor="start" x="1588.5" y="-606.86" font-family="arial" font-size="14.00" fill="#377eb8">c0 &lt; 5</text>
</g>
<!-- ID_41_ct0_st01234W&#45;&gt;ID_41_ct0_st02 -->
<g id="edge52" class="edge">
<title>ID_41_ct0_st01234W&#45;&gt;ID_41_ct0_st02</title>
<path fill="none" stroke="black" d="M1591.91,-534.89C1573.76,-504.62 1540.9,-453.03 1506,-414.06 1487.83,-393.76 1434.34,-348.66 1396.92,-317.8"/>
<polygon fill="black" stroke="black" points="1398.67,-314.71 1388.73,-311.06 1394.22,-320.12 1398.67,-314.71"/>
<text text-anchor="start" x="1455" y="-417.86" font-family="arial" font-size="14.00" fill="#377eb8">(Q&#39; || S&#39;)</text>
</g>
<!-- ID_41_ct0_st01234W&#45;&gt;ID_41_ct0_st0234W -->
<g id="edge54" class="edge">
<title>ID_41_ct0_st01234W&#45;&gt;ID_41_ct0_st0234W</title>
<path fill="none" stroke="black" d="M1538.22,-585.06C1507.7,-594.96 1471.01,-605.14 1437,-610.06 1275.36,-633.4 865.72,-587.07 703,-573.06 700.44,-572.84 697.84,-572.6 695.22,-572.37"/>
<polygon fill="black" stroke="black" points="695.31,-568.86 685.02,-571.41 694.65,-575.83 695.31,-568.86"/>
<text text-anchor="start" x="1084" y="-615.86" font-family="arial" font-size="14.00" fill="#377eb8">c0 &lt; 5</text>
</g>
<!-- ID_41_ct0_st024W -->
<g id="node11" class="node">
<title>ID_41_ct0_st024W</title>
<polygon fill="none" stroke="black" points="1190,-710.06 1016,-710.06 1016,-660.06 1190,-660.06 1190,-710.06"/>
<text text-anchor="start" x="1043.5" y="-695.86" font-family="arial" font-weight="bold" font-size="14.00">ID_41_ct0_st024W</text>
<text text-anchor="start" x="1024" y="-681.86" font-family="arial" font-size="14.00" fill="#984ea3">(!P &amp;&amp; (!Q &amp;&amp; (!R &amp;&amp; !S)))</text>
<text text-anchor="start" x="1080" y="-667.86" font-family="arial" font-size="14.00" fill="#ff7f00">c0 &lt;= 5</text>
</g>
<!-- ID_41_ct0_st01234W&#45;&gt;ID_41_ct0_st024W -->
<g id="edge53" class="edge">
<title>ID_41_ct0_st01234W&#45;&gt;ID_41_ct0_st024W</title>
<path fill="none" stroke="black" d="M1584.04,-585.39C1565.26,-604.73 1536.67,-630.19 1506,-643.06 1407.6,-684.34 1284.25,-691.39 1200.32,-690.32"/>
<polygon fill="black" stroke="black" points="1200.34,-686.82 1190.28,-690.15 1200.22,-693.82 1200.34,-686.82"/>
<text text-anchor="start" x="1338" y="-691.86" font-family="arial" font-size="14.00" fill="#377eb8">c0 &lt; 5</text>
</g>
<!-- ID_41_ct0_st0124W -->
<g id="node12" class="node">
<title>ID_41_ct0_st0124W</title>
<polygon fill="none" stroke="black" points="929,-494.06 759,-494.06 759,-444.06 929,-444.06 929,-494.06"/>
<text text-anchor="start" x="780.5" y="-479.86" font-family="arial" font-weight="bold" font-size="14.00">ID_41_ct0_st0124W</text>
<text text-anchor="start" x="767" y="-465.86" font-family="arial" font-size="14.00" fill="#984ea3">(P &amp;&amp; (!Q &amp;&amp; (!R &amp;&amp; !S)))</text>
<text text-anchor="start" x="821" y="-451.86" font-family="arial" font-size="14.00" fill="#ff7f00">c0 &lt;= 5</text>
</g>
<!-- ID_41_ct0_st01234W&#45;&gt;ID_41_ct0_st0124W -->
<g id="edge57" class="edge">
<title>ID_41_ct0_st01234W&#45;&gt;ID_41_ct0_st0124W</title>
<path fill="none" stroke="black" d="M1545.84,-535.03C1532.87,-530.44 1519.12,-526.14 1506,-523.06 1263.4,-466.04 1195.49,-498 947,-479.06 944.44,-478.86 941.84,-478.66 939.22,-478.44"/>
<polygon fill="black" stroke="black" points="939.28,-474.94 929.02,-477.58 938.7,-481.91 939.28,-474.94"/>
<text text-anchor="start" x="1214.5" y="-490.86" font-family="arial" font-size="14.00" fill="#377eb8">c0 &lt; 5</text>
</g>
<!-- ID_41_ct0_st02&#45;&gt;ID_41_ct0_st0 -->
<g id="edge15" class="edge">
<title>ID_41_ct0_st02&#45;&gt;ID_41_ct0_st0</title>
<path fill="none" stroke="black" d="M1337.96,-260.97C1310.62,-225.25 1254.93,-161.09 1190,-134.06 1039.88,-71.56 601.51,-22.74 459,-101.06 332.58,-170.53 344.82,-243.78 285,-375.06 250.42,-450.95 226.77,-546.49 215.69,-597"/>
<polygon fill="black" stroke="black" points="212.27,-596.27 213.58,-606.78 219.11,-597.75 212.27,-596.27"/>
<text text-anchor="start" x="714.5" y="-64.86" font-family="arial" font-size="14.00" fill="#377eb8">Q&#39;</text>
</g>
<!-- ID_41_ct0_st02&#45;&gt;ID_41_ct0_st01 -->
<g id="edge18" class="edge">
<title>ID_41_ct0_st02&#45;&gt;ID_41_ct0_st01</title>
<path fill="none" stroke="black" d="M1312.06,-260.89C1262.98,-235.2 1180.37,-199.06 1104,-199.06 599,-199.06 599,-199.06 599,-199.06 584.22,-199.06 469.57,-247.12 459,-256.06 431.87,-279.01 411.61,-314.51 399.21,-340.76"/>
<polygon fill="black" stroke="black" points="395.97,-339.43 395,-349.98 402.34,-342.34 395.97,-339.43"/>
<text text-anchor="start" x="832" y="-202.86" font-family="arial" font-size="14.00" fill="#377eb8">true</text>
</g>
<!-- ID_41_ct0_st02&#45;&gt;ID_41_ct0_st012 -->
<g id="edge19" class="edge">
<title>ID_41_ct0_st02&#45;&gt;ID_41_ct0_st012</title>
<path fill="none" stroke="black" d="M1437.4,-289.77C1526.11,-297.94 1669.17,-323.67 1760,-404.06 1808.36,-446.85 1834.64,-519.85 1846.67,-563.06"/>
<polygon fill="black" stroke="black" points="1843.32,-564.09 1849.29,-572.84 1850.09,-562.28 1843.32,-564.09"/>
<text text-anchor="start" x="1595.5" y="-358.86" font-family="arial" font-size="14.00" fill="#377eb8">true</text>
</g>
<!-- ID_41_ct0_st02&#45;&gt;ID_41_ct0_st01234W -->
<g id="edge20" class="edge">
<title>ID_41_ct0_st02&#45;&gt;ID_41_ct0_st01234W</title>
<path fill="none" stroke="black" d="M1437.15,-309.82C1469.24,-320.01 1500.18,-330.77 1506,-336.06 1562.41,-387.29 1589.04,-476.22 1599.98,-525.2"/>
<polygon fill="black" stroke="black" points="1596.57,-525.97 1602.08,-535.01 1603.41,-524.5 1596.57,-525.97"/>
<text text-anchor="start" x="1468.5" y="-354.86" font-family="arial" font-size="14.00" fill="#377eb8">true</text>
<text text-anchor="start" x="1461.5" y="-339.86" font-family="arial" font-size="14.00">c0 :=0</text>
</g>
<!-- ID_41_ct0_st02&#45;&gt;ID_41_ct0_st02 -->
<g id="edge16" class="edge">
<title>ID_41_ct0_st02&#45;&gt;ID_41_ct0_st02</title>
<path fill="none" stroke="black" d="M1334.21,-311.23C1333.2,-320.97 1340.8,-329.06 1357,-329.06 1367.13,-329.06 1373.89,-325.9 1377.29,-321.15"/>
<polygon fill="black" stroke="black" points="1380.74,-321.78 1379.79,-311.23 1373.95,-320.08 1380.74,-321.78"/>
<text text-anchor="start" x="1345" y="-332.86" font-family="arial" font-size="14.00" fill="#377eb8">true</text>
</g>
<!-- ID_41_ct0_st02&#45;&gt;ID_41_ct0_st0234W -->
<g id="edge17" class="edge">
<title>ID_41_ct0_st02&#45;&gt;ID_41_ct0_st0234W</title>
<path fill="none" stroke="black" d="M1276.62,-291.09C1162.07,-298.5 962.37,-312 947,-317.06 814.52,-360.68 688.59,-473.96 632.1,-529.87"/>
<polygon fill="black" stroke="black" points="629.52,-527.5 624.92,-537.05 634.47,-532.46 629.52,-527.5"/>
<text text-anchor="start" x="960.5" y="-335.86" font-family="arial" font-size="14.00" fill="#377eb8">true</text>
<text text-anchor="start" x="953.5" y="-320.86" font-family="arial" font-size="14.00">c0 :=0</text>
</g>
<!-- ID_41_ct0_st0234W&#45;&gt;ID_41_ct0_st0 -->
<g id="edge43" class="edge">
<title>ID_41_ct0_st0234W&#45;&gt;ID_41_ct0_st0</title>
<path fill="none" stroke="black" d="M514.73,-577.16C441.48,-590.29 337.03,-609.02 271.02,-620.85"/>
<polygon fill="black" stroke="black" points="270.39,-617.41 261.16,-622.62 271.63,-624.3 270.39,-617.41"/>
<text text-anchor="start" x="376.5" y="-613.86" font-family="arial" font-size="14.00" fill="#377eb8">Q&#39;</text>
</g>
<!-- ID_41_ct0_st0234W&#45;&gt;ID_41_ct0_st01 -->
<g id="edge47" class="edge">
<title>ID_41_ct0_st0234W&#45;&gt;ID_41_ct0_st01</title>
<path fill="none" stroke="black" d="M514.7,-560.23C494.87,-556.4 474.9,-549.39 459,-537.06 418.68,-505.8 399.6,-447.54 391.12,-410.07"/>
<polygon fill="black" stroke="black" points="394.5,-409.15 389,-400.09 387.66,-410.6 394.5,-409.15"/>
<text text-anchor="start" x="466" y="-558.86" font-family="arial" font-size="14.00" fill="#377eb8">true</text>
</g>
<!-- ID_41_ct0_st0234W&#45;&gt;ID_41_ct0_st012 -->
<g id="edge48" class="edge">
<title>ID_41_ct0_st0234W&#45;&gt;ID_41_ct0_st012</title>
<path fill="none" stroke="black" d="M607.77,-587.18C619.75,-626.11 648.67,-699.98 703,-733.06 855.5,-825.88 1329.37,-784.05 1506,-758.06 1589.93,-745.7 1613.31,-745.13 1691,-711.06 1724.53,-696.35 1729.77,-686.72 1760,-666.06 1777.25,-654.26 1796.01,-640.95 1812.26,-629.24"/>
<polygon fill="black" stroke="black" points="1814.45,-631.98 1820.51,-623.29 1810.35,-626.3 1814.45,-631.98"/>
<text text-anchor="start" x="1208" y="-789.86" font-family="arial" font-size="14.00" fill="#377eb8">(Q&#39; || S&#39;)</text>
</g>
<!-- ID_41_ct0_st0234W&#45;&gt;ID_41_ct0_st01234W -->
<g id="edge50" class="edge">
<title>ID_41_ct0_st0234W&#45;&gt;ID_41_ct0_st01234W</title>
<path fill="none" stroke="black" d="M685.25,-560.4C836.03,-557.66 1161.97,-552.81 1437,-556.06 1461.83,-556.35 1488.71,-556.88 1513.59,-557.47"/>
<polygon fill="black" stroke="black" points="1513.66,-560.97 1523.74,-557.71 1513.83,-553.97 1513.66,-560.97"/>
<text text-anchor="start" x="1084" y="-558.86" font-family="arial" font-size="14.00" fill="#377eb8">c0 &lt; 5</text>
</g>
<!-- ID_41_ct0_st0234W&#45;&gt;ID_41_ct0_st02 -->
<g id="edge44" class="edge">
<title>ID_41_ct0_st0234W&#45;&gt;ID_41_ct0_st02</title>
<path fill="none" stroke="black" d="M621.69,-536.75C639.34,-514.7 664.97,-481.56 685,-451.06 721.7,-395.16 703.8,-357.79 759,-320.06 839.09,-265.31 1120.41,-272.38 1266.47,-280.18"/>
<polygon fill="black" stroke="black" points="1266.58,-283.69 1276.75,-280.75 1266.96,-276.7 1266.58,-283.69"/>
<text text-anchor="start" x="947" y="-282.86" font-family="arial" font-size="14.00" fill="#377eb8">(Q&#39; || S&#39;)</text>
</g>
<!-- ID_41_ct0_st0234W&#45;&gt;ID_41_ct0_st0234W -->
<g id="edge46" class="edge">
<title>ID_41_ct0_st0234W&#45;&gt;ID_41_ct0_st0234W</title>
<path fill="none" stroke="black" d="M577.21,-587.23C576.2,-596.97 583.8,-605.06 600,-605.06 610.13,-605.06 616.89,-601.9 620.29,-597.15"/>
<polygon fill="black" stroke="black" points="623.74,-597.78 622.79,-587.23 616.95,-596.08 623.74,-597.78"/>
<text text-anchor="start" x="581" y="-608.86" font-family="arial" font-size="14.00" fill="#377eb8">c0 &lt; 5</text>
</g>
<!-- ID_41_ct0_st0234W&#45;&gt;ID_41_ct0_st024W -->
<g id="edge45" class="edge">
<title>ID_41_ct0_st0234W&#45;&gt;ID_41_ct0_st024W</title>
<path fill="none" stroke="black" d="M651.77,-587.11C667.86,-594.33 685.92,-601.69 703,-607.06 717.46,-611.6 892.24,-645.18 1005.62,-666.77"/>
<polygon fill="black" stroke="black" points="1005.24,-670.26 1015.72,-668.69 1006.55,-663.39 1005.24,-670.26"/>
<text text-anchor="start" x="825" y="-654.86" font-family="arial" font-size="14.00" fill="#377eb8">c0 &lt; 5</text>
</g>
<!-- ID_41_ct0_st0234W&#45;&gt;ID_41_ct0_st0124W -->
<g id="edge49" class="edge">
<title>ID_41_ct0_st0234W&#45;&gt;ID_41_ct0_st0124W</title>
<path fill="none" stroke="black" d="M669.5,-537.03C692.29,-528.59 717.78,-519.03 741,-510.06 751.02,-506.18 761.56,-502.03 771.91,-497.91"/>
<polygon fill="black" stroke="black" points="773.36,-501.1 781.34,-494.15 770.76,-494.6 773.36,-501.1"/>
<text text-anchor="start" x="703" y="-526.86" font-family="arial" font-size="14.00" fill="#377eb8">c0 &lt; 5</text>
</g>
<!-- ID_41_ct0_st024W&#45;&gt;ID_41_ct0_st0 -->
<g id="edge27" class="edge">
<title>ID_41_ct0_st024W&#45;&gt;ID_41_ct0_st0</title>
<path fill="none" stroke="black" d="M1068.54,-710.37C1004.88,-755.93 860.39,-847.06 723,-847.06 383,-847.06 383,-847.06 383,-847.06 291.24,-847.06 239.3,-727.53 218.82,-666.72"/>
<polygon fill="black" stroke="black" points="222.12,-665.56 215.69,-657.14 215.47,-667.73 222.12,-665.56"/>
<text text-anchor="start" x="592.5" y="-850.86" font-family="arial" font-size="14.00" fill="#377eb8">Q&#39;</text>
</g>
<!-- ID_41_ct0_st024W&#45;&gt;ID_41_ct0_st01 -->
<g id="edge31" class="edge">
<title>ID_41_ct0_st024W&#45;&gt;ID_41_ct0_st01</title>
<path fill="none" stroke="black" d="M1015.94,-706C1009.89,-707.14 1003.86,-708.17 998,-709.06 967.6,-713.64 959.73,-712.94 929,-714.06 741.28,-720.85 674.56,-728.16 515,-629.06 436.56,-580.34 403.43,-467.9 391.21,-410.37"/>
<polygon fill="black" stroke="black" points="394.58,-409.4 389.16,-400.29 387.72,-410.79 394.58,-409.4"/>
<text text-anchor="start" x="710" y="-717.86" font-family="arial" font-size="14.00" fill="#377eb8">true</text>
</g>
<!-- ID_41_ct0_st024W&#45;&gt;ID_41_ct0_st012 -->
<g id="edge32" class="edge">
<title>ID_41_ct0_st024W&#45;&gt;ID_41_ct0_st012</title>
<path fill="none" stroke="black" d="M1156.1,-710.12C1172.44,-717.3 1190.73,-724.63 1208,-730.06 1237.85,-739.43 1245.87,-740.93 1277,-744.06 1347.76,-751.16 1366.89,-755.95 1437,-744.06 1567.72,-721.88 1712.05,-663.31 1792.31,-627.45"/>
<polygon fill="black" stroke="black" points="1794.09,-630.49 1801.77,-623.2 1791.22,-624.1 1794.09,-630.49"/>
<text text-anchor="start" x="1455" y="-742.86" font-family="arial" font-size="14.00" fill="#377eb8">(Q&#39; || S&#39;)</text>
</g>
<!-- ID_41_ct0_st024W&#45;&gt;ID_41_ct0_st01234W -->
<g id="edge34" class="edge">
<title>ID_41_ct0_st024W&#45;&gt;ID_41_ct0_st01234W</title>
<path fill="none" stroke="black" d="M1190.04,-708.61C1275.51,-727 1407.66,-741.59 1506,-689.06 1545.03,-668.2 1573.79,-624.92 1590.32,-594.25"/>
<polygon fill="black" stroke="black" points="1593.53,-595.66 1595.05,-585.18 1587.32,-592.42 1593.53,-595.66"/>
<text text-anchor="start" x="1338" y="-728.86" font-family="arial" font-size="14.00" fill="#377eb8">c0 &lt; 5</text>
</g>
<!-- ID_41_ct0_st024W&#45;&gt;ID_41_ct0_st02 -->
<g id="edge28" class="edge">
<title>ID_41_ct0_st024W&#45;&gt;ID_41_ct0_st02</title>
<path fill="none" stroke="black" d="M1163.55,-659.81C1173.06,-654.18 1182.29,-647.6 1190,-640.06 1235.37,-595.69 1238.6,-575.15 1259,-515.06 1276.19,-464.4 1256.84,-445.6 1277,-396.06 1288.58,-367.6 1308.92,-339.54 1326.06,-318.88"/>
<polygon fill="black" stroke="black" points="1328.89,-320.95 1332.69,-311.06 1323.55,-316.43 1328.89,-320.95"/>
<text text-anchor="start" x="1208" y="-623.86" font-family="arial" font-size="14.00" fill="#377eb8">(Q&#39; || S&#39;)</text>
</g>
<!-- ID_41_ct0_st024W&#45;&gt;ID_41_ct0_st0234W -->
<g id="edge30" class="edge">
<title>ID_41_ct0_st024W&#45;&gt;ID_41_ct0_st0234W</title>
<path fill="none" stroke="black" d="M1015.65,-693.76C932.13,-698.66 803.75,-696.7 703,-653.06 673.46,-640.26 646.58,-615.47 627.84,-594.99"/>
<polygon fill="black" stroke="black" points="630.33,-592.53 621.07,-587.39 625.11,-597.18 630.33,-592.53"/>
<text text-anchor="start" x="825" y="-698.86" font-family="arial" font-size="14.00" fill="#377eb8">c0 &lt; 5</text>
</g>
<!-- ID_41_ct0_st024W&#45;&gt;ID_41_ct0_st024W -->
<g id="edge29" class="edge">
<title>ID_41_ct0_st024W&#45;&gt;ID_41_ct0_st024W</title>
<path fill="none" stroke="black" d="M1078.72,-710.23C1077.64,-719.97 1085.73,-728.06 1103,-728.06 1113.79,-728.06 1121,-724.9 1124.62,-720.15"/>
<polygon fill="black" stroke="black" points="1128.07,-720.8 1127.28,-710.23 1121.31,-718.99 1128.07,-720.8"/>
<text text-anchor="start" x="1084" y="-731.86" font-family="arial" font-size="14.00" fill="#377eb8">c0 &lt; 5</text>
</g>
<!-- ID_41_ct0_st024W&#45;&gt;ID_41_ct0_st0124W -->
<g id="edge33" class="edge">
<title>ID_41_ct0_st024W&#45;&gt;ID_41_ct0_st0124W</title>
<path fill="none" stroke="black" d="M1047.73,-659.87C1036.86,-653.94 1025.78,-647.24 1016,-640.06 959.7,-598.68 904.34,-538.84 872.48,-502.02"/>
<polygon fill="black" stroke="black" points="874.84,-499.39 865.67,-494.08 869.52,-503.95 874.84,-499.39"/>
<text text-anchor="start" x="953.5" y="-626.86" font-family="arial" font-size="14.00" fill="#377eb8">c0 &lt; 5</text>
</g>
<!-- ID_41_ct0_st0124W&#45;&gt;ID_41_ct0_st0 -->
<g id="edge35" class="edge">
<title>ID_41_ct0_st0124W&#45;&gt;ID_41_ct0_st0</title>
<path fill="none" stroke="black" d="M758.75,-461.15C662.94,-453.24 512.84,-444.43 459,-461.06 370.77,-488.3 285.88,-558.45 241.15,-599.95"/>
<polygon fill="black" stroke="black" points="238.69,-597.45 233.8,-606.85 243.48,-602.56 238.69,-597.45"/>
<text text-anchor="start" x="470.5" y="-464.86" font-family="arial" font-size="14.00" fill="#377eb8">Q&#39;</text>
</g>
<!-- ID_41_ct0_st0124W&#45;&gt;ID_41_ct0_st01 -->
<g id="edge39" class="edge">
<title>ID_41_ct0_st0124W&#45;&gt;ID_41_ct0_st01</title>
<path fill="none" stroke="black" d="M758.69,-448.62C734.91,-443.04 708.98,-437.14 685,-432.06 604.8,-415.05 512.02,-397.79 451.13,-386.79"/>
<polygon fill="black" stroke="black" points="451.72,-383.34 441.26,-385.01 450.48,-390.23 451.72,-383.34"/>
<text text-anchor="start" x="588" y="-435.86" font-family="arial" font-size="14.00" fill="#377eb8">true</text>
</g>
<!-- ID_41_ct0_st0124W&#45;&gt;ID_41_ct0_st012 -->
<g id="edge40" class="edge">
<title>ID_41_ct0_st0124W&#45;&gt;ID_41_ct0_st012</title>
<path fill="none" stroke="black" d="M929.46,-452.74C1044.9,-433.08 1258.05,-406.17 1437,-436.06 1586.72,-461.06 1620.9,-486.29 1760,-547.06 1774.21,-553.26 1789.18,-560.8 1802.92,-568.14"/>
<polygon fill="black" stroke="black" points="1801.29,-571.24 1811.75,-572.93 1804.62,-565.09 1801.29,-571.24"/>
<text text-anchor="start" x="1331.5" y="-439.86" font-family="arial" font-size="14.00" fill="#377eb8">(Q&#39; || S&#39;)</text>
</g>
<!-- ID_41_ct0_st0124W&#45;&gt;ID_41_ct0_st01234W -->
<g id="edge42" class="edge">
<title>ID_41_ct0_st0124W&#45;&gt;ID_41_ct0_st01234W</title>
<path fill="none" stroke="black" d="M929.34,-466.97C1002.91,-465.26 1112.51,-462.98 1208,-462.06 1340.83,-460.78 1382.01,-437.39 1506,-485.06 1531.07,-494.69 1555.32,-512.46 1573.71,-528.28"/>
<polygon fill="black" stroke="black" points="1571.41,-530.92 1581.23,-534.92 1576.05,-525.67 1571.41,-530.92"/>
<text text-anchor="start" x="1214.5" y="-465.86" font-family="arial" font-size="14.00" fill="#377eb8">c0 &lt; 5</text>
</g>
<!-- ID_41_ct0_st0124W&#45;&gt;ID_41_ct0_st02 -->
<g id="edge36" class="edge">
<title>ID_41_ct0_st0124W&#45;&gt;ID_41_ct0_st02</title>
<path fill="none" stroke="black" d="M907.06,-443.96C920.18,-438.87 934,-433.66 947,-429.06 1084.13,-380.47 1123.18,-382.2 1259,-330.06 1270.65,-325.59 1282.89,-320.41 1294.61,-315.22"/>
<polygon fill="black" stroke="black" points="1296.18,-318.36 1303.87,-311.07 1293.32,-311.97 1296.18,-318.36"/>
<text text-anchor="start" x="1077.5" y="-408.86" font-family="arial" font-size="14.00" fill="#377eb8">(Q&#39; || S&#39;)</text>
</g>
<!-- ID_41_ct0_st0124W&#45;&gt;ID_41_ct0_st0234W -->
<g id="edge38" class="edge">
<title>ID_41_ct0_st0124W&#45;&gt;ID_41_ct0_st0234W</title>
<path fill="none" stroke="black" d="M758.91,-479.07C740.11,-482.84 720.55,-488 703,-495.06 681.04,-503.89 658.82,-517.77 640.75,-530.62"/>
<polygon fill="black" stroke="black" points="638.26,-528.1 632.23,-536.81 642.38,-533.76 638.26,-528.1"/>
<text text-anchor="start" x="703" y="-498.86" font-family="arial" font-size="14.00" fill="#377eb8">c0 &lt; 5</text>
</g>
<!-- ID_41_ct0_st0124W&#45;&gt;ID_41_ct0_st024W -->
<g id="edge37" class="edge">
<title>ID_41_ct0_st0124W&#45;&gt;ID_41_ct0_st024W</title>
<path fill="none" stroke="black" d="M906.99,-494.12C938.71,-509.97 975.31,-533.48 998,-565.06 1018,-592.9 994.92,-613.02 1016,-640.06 1020.01,-645.2 1024.78,-649.82 1029.98,-653.95"/>
<polygon fill="black" stroke="black" points="1028.3,-657.06 1038.46,-660.06 1032.38,-651.37 1028.3,-657.06"/>
<text text-anchor="start" x="953.5" y="-568.86" font-family="arial" font-size="14.00" fill="#377eb8">c0 &lt; 5</text>
</g>
<!-- ID_41_ct0_st0124W&#45;&gt;ID_41_ct0_st0124W -->
<g id="edge41" class="edge">
<title>ID_41_ct0_st0124W&#45;&gt;ID_41_ct0_st0124W</title>
<path fill="none" stroke="black" d="M821.21,-494.23C820.2,-503.97 827.8,-512.06 844,-512.06 854.13,-512.06 860.89,-508.9 864.29,-504.15"/>
<polygon fill="black" stroke="black" points="867.74,-504.78 866.79,-494.23 860.95,-503.08 867.74,-504.78"/>
<text text-anchor="start" x="825" y="-515.86" font-family="arial" font-size="14.00" fill="#377eb8">c0 &lt; 5</text>
</g>
</g>
</svg>
