<?xml version="1.0" encoding="UTF-8" standalone="no"?>
<!DOCTYPE svg PUBLIC "-//W3C//DTD SVG 1.1//EN"
 "http://www.w3.org/Graphics/SVG/1.1/DTD/svg11.dtd">
<!-- Generated by graphviz version 2.43.0 (0)
 -->
<!-- Title: G Pages: 1 -->
<svg width="877pt" height="296pt"
 viewBox="0.00 0.00 877.00 296.02" xmlns="http://www.w3.org/2000/svg" xmlns:xlink="http://www.w3.org/1999/xlink">
<g id="graph0" class="graph" transform="scale(1 1) rotate(0) translate(4 292.02)">
<title>G</title>
<polygon fill="white" stroke="transparent" points="-4,4 -4,-292.02 873,-292.02 873,4 -4,4"/>
<!-- _ID_42_ct0_stinit -->
<!-- ID_42_ct0_stinit -->
<g id="node2" class="node">
<title>ID_42_ct0_stinit</title>
<polygon fill="none" stroke="black" points="705.5,-255.02 586.5,-255.02 586.5,-205.02 705.5,-205.02 705.5,-255.02"/>
<text text-anchor="start" x="594.5" y="-240.82" font-family="arial" font-weight="bold" font-size="14.00">ID_42_ct0_stinit</text>
<text text-anchor="start" x="641" y="-226.82" font-family="arial" font-size="14.00" fill="#984ea3">P</text>
<text text-anchor="start" x="634" y="-212.82" font-family="arial" font-size="14.00" fill="#ff7f00">true</text>
</g>
<!-- _ID_42_ct0_stinit&#45;&gt;ID_42_ct0_stinit -->
<g id="edge1" class="edge">
<title>_ID_42_ct0_stinit&#45;&gt;ID_42_ct0_stinit</title>
<path fill="none" stroke="black" d="M501.18,-241.32C524.68,-239.48 551.82,-237.34 576.14,-235.43"/>
<polygon fill="black" stroke="black" points="576.68,-238.9 586.37,-234.63 576.13,-231.92 576.68,-238.9"/>
</g>
<!-- ID_42_ct0_stinit&#45;&gt;ID_42_ct0_stinit -->
<g id="edge5" class="edge">
<title>ID_42_ct0_stinit&#45;&gt;ID_42_ct0_stinit</title>
<path fill="none" stroke="black" d="M628.44,-255.19C627.66,-264.93 633.52,-273.02 646,-273.02 653.8,-273.02 659.01,-269.86 661.64,-265.11"/>
<polygon fill="black" stroke="black" points="665.09,-265.68 663.56,-255.19 658.22,-264.34 665.09,-265.68"/>
<text text-anchor="start" x="634" y="-276.82" font-family="arial" font-size="14.00" fill="#377eb8">true</text>
</g>
<!-- ID_42_ct0_st -->
<g id="node7" class="node">
<title>ID_42_ct0_st</title>
<polygon fill="none" stroke="black" points="869,-152.02 770,-152.02 770,-102.02 869,-102.02 869,-152.02"/>
<text text-anchor="start" x="778" y="-137.82" font-family="arial" font-weight="bold" font-size="14.00">ID_42_ct0_st</text>
<text text-anchor="start" x="807.5" y="-123.82" font-family="arial" font-size="14.00" fill="#984ea3">true</text>
<text text-anchor="start" x="807.5" y="-109.82" font-family="arial" font-size="14.00" fill="#ff7f00">true</text>
</g>
<!-- ID_42_ct0_stinit&#45;&gt;ID_42_ct0_st -->
<g id="edge4" class="edge">
<title>ID_42_ct0_stinit&#45;&gt;ID_42_ct0_st</title>
<path fill="none" stroke="black" d="M688.95,-204.82C712.82,-190.49 742.86,-172.44 768.01,-157.34"/>
<polygon fill="black" stroke="black" points="769.91,-160.28 776.68,-152.13 766.31,-154.28 769.91,-160.28"/>
<text text-anchor="start" x="728" y="-181.82" font-family="arial" font-size="14.00" fill="#377eb8">true</text>
</g>
<!-- _ID_42_ct0_st0 -->
<!-- ID_42_ct0_st0 -->
<g id="node4" class="node">
<title>ID_42_ct0_st0</title>
<polygon fill="none" stroke="black" points="273,-151.02 163,-151.02 163,-101.02 273,-101.02 273,-151.02"/>
<text text-anchor="start" x="172.5" y="-136.82" font-family="arial" font-weight="bold" font-size="14.00">ID_42_ct0_st0</text>
<text text-anchor="start" x="171" y="-122.82" font-family="arial" font-size="14.00" fill="#984ea3">(!P &amp;&amp; (S || !R))</text>
<text text-anchor="start" x="206" y="-108.82" font-family="arial" font-size="14.00" fill="#ff7f00">true</text>
</g>
<!-- _ID_42_ct0_st0&#45;&gt;ID_42_ct0_st0 -->
<g id="edge2" class="edge">
<title>_ID_42_ct0_st0&#45;&gt;ID_42_ct0_st0</title>
<path fill="none" stroke="black" d="M111.29,-126.02C124.53,-126.02 138.8,-126.02 152.45,-126.02"/>
<polygon fill="black" stroke="black" points="152.73,-129.52 162.73,-126.02 152.73,-122.52 152.73,-129.52"/>
</g>
<!-- ID_42_ct0_st0&#45;&gt;ID_42_ct0_st0 -->
<g id="edge8" class="edge">
<title>ID_42_ct0_st0&#45;&gt;ID_42_ct0_st0</title>
<path fill="none" stroke="black" d="M201.56,-151.19C200.83,-160.93 206.31,-169.02 218,-169.02 225.3,-169.02 230.18,-165.86 232.64,-161.11"/>
<polygon fill="black" stroke="black" points="236.1,-161.66 234.44,-151.19 229.21,-160.41 236.1,-161.66"/>
<text text-anchor="start" x="206" y="-172.82" font-family="arial" font-size="14.00" fill="#377eb8">true</text>
</g>
<!-- ID_42_ct0_st012W -->
<g id="node6" class="node">
<title>ID_42_ct0_st012W</title>
<polygon fill="none" stroke="black" points="508,-81.02 373,-81.02 373,-31.02 508,-31.02 508,-81.02"/>
<text text-anchor="start" x="381" y="-66.82" font-family="arial" font-weight="bold" font-size="14.00">ID_42_ct0_st012W</text>
<text text-anchor="start" x="388" y="-52.82" font-family="arial" font-size="14.00" fill="#984ea3">(!P &amp;&amp; (R &amp;&amp; !S))</text>
<text text-anchor="start" x="417.5" y="-38.82" font-family="arial" font-size="14.00" fill="#ff7f00">c0 &lt;= 5</text>
</g>
<!-- ID_42_ct0_st0&#45;&gt;ID_42_ct0_st012W -->
<g id="edge9" class="edge">
<title>ID_42_ct0_st0&#45;&gt;ID_42_ct0_st012W</title>
<path fill="none" stroke="black" d="M273.22,-108.8C300.26,-100.22 333.42,-89.69 362.99,-80.3"/>
<polygon fill="black" stroke="black" points="364.4,-83.53 372.87,-77.17 362.28,-76.86 364.4,-83.53"/>
<text text-anchor="start" x="318.5" y="-115.82" font-family="arial" font-size="14.00" fill="#377eb8">true</text>
<text text-anchor="start" x="311.5" y="-100.82" font-family="arial" font-size="14.00">c0 :=0</text>
</g>
<!-- ID_42_ct0_st0&#45;&gt;ID_42_ct0_st -->
<g id="edge7" class="edge">
<title>ID_42_ct0_st0&#45;&gt;ID_42_ct0_st</title>
<path fill="none" stroke="black" d="M273.28,-129.62C284.11,-130.2 295.41,-130.71 306,-131.02 327.77,-131.64 333.22,-131.05 355,-131.02 512.78,-130.79 552.24,-132.42 710,-130.02 726.07,-129.77 743.48,-129.36 759.56,-128.91"/>
<polygon fill="black" stroke="black" points="760,-132.4 769.9,-128.62 759.8,-125.4 760,-132.4"/>
<text text-anchor="start" x="538.5" y="-134.82" font-family="arial" font-size="14.00" fill="#377eb8">P&#39;</text>
</g>
<!-- _ID_42_ct0_st012W -->
<!-- _ID_42_ct0_st012W&#45;&gt;ID_42_ct0_st012W -->
<g id="edge3" class="edge">
<title>_ID_42_ct0_st012W&#45;&gt;ID_42_ct0_st012W</title>
<path fill="none" stroke="black" d="M288.19,-40.09C309.61,-42.29 333.28,-44.74 355,-47.02 357.5,-47.28 360.05,-47.55 362.62,-47.82"/>
<polygon fill="black" stroke="black" points="362.31,-51.3 372.62,-48.87 363.04,-44.34 362.31,-51.3"/>
</g>
<!-- ID_42_ct0_st012W&#45;&gt;ID_42_ct0_st0 -->
<g id="edge15" class="edge">
<title>ID_42_ct0_st012W&#45;&gt;ID_42_ct0_st0</title>
<path fill="none" stroke="black" d="M372.88,-53.47C351.06,-54.47 327.03,-57.59 306,-65.02 287.51,-71.55 269.37,-83.17 254.48,-94.54"/>
<polygon fill="black" stroke="black" points="252.24,-91.84 246.56,-100.79 256.58,-97.34 252.24,-91.84"/>
<text text-anchor="start" x="306" y="-68.82" font-family="arial" font-size="14.00" fill="#377eb8">(P&#39; || S&#39;)</text>
</g>
<!-- ID_42_ct0_st012W&#45;&gt;ID_42_ct0_st012W -->
<g id="edge17" class="edge">
<title>ID_42_ct0_st012W&#45;&gt;ID_42_ct0_st012W</title>
<path fill="none" stroke="black" d="M421.08,-81.19C420.21,-90.93 426.69,-99.02 440.5,-99.02 449.13,-99.02 454.9,-95.86 457.8,-91.11"/>
<polygon fill="black" stroke="black" points="461.25,-91.7 459.92,-81.19 454.41,-90.24 461.25,-91.7"/>
<text text-anchor="start" x="421.5" y="-102.82" font-family="arial" font-size="14.00" fill="#377eb8">c0 &lt; 5</text>
</g>
<!-- ID_42_ct0_st012W&#45;&gt;ID_42_ct0_st -->
<g id="edge14" class="edge">
<title>ID_42_ct0_st012W&#45;&gt;ID_42_ct0_st</title>
<path fill="none" stroke="black" d="M495.34,-30.96C551.12,-8.75 639.79,15.9 710,-14.02 747.7,-30.08 778.61,-66.39 797.66,-93.54"/>
<polygon fill="black" stroke="black" points="794.9,-95.7 803.43,-102 800.69,-91.76 794.9,-95.7"/>
<text text-anchor="start" x="639.5" y="-17.82" font-family="arial" font-size="14.00" fill="#377eb8">P&#39;</text>
</g>
<!-- ID_42_ct0_st02W -->
<g id="node8" class="node">
<title>ID_42_ct0_st02W</title>
<polygon fill="none" stroke="black" points="710,-88.02 582,-88.02 582,-38.02 710,-38.02 710,-88.02"/>
<text text-anchor="start" x="590" y="-73.82" font-family="arial" font-weight="bold" font-size="14.00">ID_42_ct0_st02W</text>
<text text-anchor="start" x="591.5" y="-59.82" font-family="arial" font-size="14.00" fill="#984ea3">(!P &amp;&amp; (!R &amp;&amp; !S))</text>
<text text-anchor="start" x="623" y="-45.82" font-family="arial" font-size="14.00" fill="#ff7f00">c0 &lt;= 5</text>
</g>
<!-- ID_42_ct0_st012W&#45;&gt;ID_42_ct0_st02W -->
<g id="edge16" class="edge">
<title>ID_42_ct0_st012W&#45;&gt;ID_42_ct0_st02W</title>
<path fill="none" stroke="black" d="M508.32,-64.66C514.29,-65.21 520.25,-65.68 526,-66.02 542.86,-67.01 547.11,-66.33 564,-66.02 566.52,-65.97 569.09,-65.91 571.68,-65.85"/>
<polygon fill="black" stroke="black" points="571.87,-69.35 581.77,-65.58 571.68,-62.35 571.87,-69.35"/>
<text text-anchor="start" x="526" y="-69.82" font-family="arial" font-size="14.00" fill="#377eb8">c0 &lt; 5</text>
</g>
<!-- ID_42_ct0_st&#45;&gt;ID_42_ct0_st -->
<g id="edge6" class="edge">
<title>ID_42_ct0_st&#45;&gt;ID_42_ct0_st</title>
<path fill="none" stroke="black" d="M804.93,-152.19C804.28,-161.93 809.14,-170.02 819.5,-170.02 825.97,-170.02 830.3,-166.86 832.47,-162.11"/>
<polygon fill="black" stroke="black" points="835.94,-162.62 834.07,-152.19 829.03,-161.51 835.94,-162.62"/>
<text text-anchor="start" x="807.5" y="-173.82" font-family="arial" font-size="14.00" fill="#377eb8">true</text>
</g>
<!-- ID_42_ct0_st02W&#45;&gt;ID_42_ct0_st0 -->
<g id="edge11" class="edge">
<title>ID_42_ct0_st02W&#45;&gt;ID_42_ct0_st0</title>
<path fill="none" stroke="black" d="M633.8,-88.44C621.02,-113.89 597.47,-151.56 564,-168.02 461.07,-218.61 418.11,-187.2 306,-163.02 296.83,-161.04 287.42,-158.1 278.33,-154.73"/>
<polygon fill="black" stroke="black" points="279.59,-151.46 269,-151.08 277.04,-157.98 279.59,-151.46"/>
<text text-anchor="start" x="416" y="-198.82" font-family="arial" font-size="14.00" fill="#377eb8">(P&#39; || S&#39;)</text>
</g>
<!-- ID_42_ct0_st02W&#45;&gt;ID_42_ct0_st012W -->
<g id="edge13" class="edge">
<title>ID_42_ct0_st02W&#45;&gt;ID_42_ct0_st012W</title>
<path fill="none" stroke="black" d="M581.87,-52.75C575.84,-52.04 569.81,-51.44 564,-51.02 549.34,-49.94 533.67,-49.8 518.61,-50.18"/>
<polygon fill="black" stroke="black" points="518.18,-46.7 508.3,-50.52 518.41,-53.69 518.18,-46.7"/>
<text text-anchor="start" x="526" y="-54.82" font-family="arial" font-size="14.00" fill="#377eb8">c0 &lt; 5</text>
</g>
<!-- ID_42_ct0_st02W&#45;&gt;ID_42_ct0_st -->
<g id="edge10" class="edge">
<title>ID_42_ct0_st02W&#45;&gt;ID_42_ct0_st</title>
<path fill="none" stroke="black" d="M710.37,-86.67C726.65,-92.74 744.09,-99.25 760.1,-105.22"/>
<polygon fill="black" stroke="black" points="759.27,-108.65 769.86,-108.87 761.72,-102.09 759.27,-108.65"/>
<text text-anchor="start" x="733.5" y="-103.82" font-family="arial" font-size="14.00" fill="#377eb8">P&#39;</text>
</g>
<!-- ID_42_ct0_st02W&#45;&gt;ID_42_ct0_st02W -->
<g id="edge12" class="edge">
<title>ID_42_ct0_st02W&#45;&gt;ID_42_ct0_st02W</title>
<path fill="none" stroke="black" d="M628.44,-88.19C627.66,-97.93 633.52,-106.02 646,-106.02 653.8,-106.02 659.01,-102.86 661.64,-98.11"/>
<polygon fill="black" stroke="black" points="665.09,-98.68 663.56,-88.19 658.22,-97.34 665.09,-98.68"/>
<text text-anchor="start" x="627" y="-109.82" font-family="arial" font-size="14.00" fill="#377eb8">c0 &lt; 5</text>
</g>
</g>
</svg>
