<?xml version="1.0" encoding="UTF-8" standalone="no"?>
<!DOCTYPE svg PUBLIC "-//W3C//DTD SVG 1.1//EN"
 "http://www.w3.org/Graphics/SVG/1.1/DTD/svg11.dtd">
<!-- Generated by graphviz version 2.43.0 (0)
 -->
<!-- Title: G Pages: 1 -->
<svg width="905pt" height="301pt"
 viewBox="0.00 0.00 905.00 300.60" xmlns="http://www.w3.org/2000/svg" xmlns:xlink="http://www.w3.org/1999/xlink">
<g id="graph0" class="graph" transform="scale(1 1) rotate(0) translate(4 296.6)">
<title>G</title>
<polygon fill="white" stroke="transparent" points="-4,4 -4,-296.6 901,-296.6 901,4 -4,4"/>
<!-- _ID_119_ct0_st0 -->
<!-- ID_119_ct0_st0 -->
<g id="node2" class="node">
<title>ID_119_ct0_st0</title>
<polygon fill="none" stroke="black" points="274,-189.6 161,-189.6 161,-139.6 274,-139.6 274,-189.6"/>
<text text-anchor="start" x="169" y="-175.4" font-family="arial" font-weight="bold" font-size="14.00">ID_119_ct0_st0</text>
<text text-anchor="start" x="210.5" y="-161.4" font-family="arial" font-size="14.00" fill="#984ea3">!R</text>
<text text-anchor="start" x="205.5" y="-147.4" font-family="arial" font-size="14.00" fill="#ff7f00">true</text>
</g>
<!-- _ID_119_ct0_st0&#45;&gt;ID_119_ct0_st0 -->
<g id="edge1" class="edge">
<title>_ID_119_ct0_st0&#45;&gt;ID_119_ct0_st0</title>
<path fill="none" stroke="black" d="M118.27,-164.6C128.81,-164.6 139.87,-164.6 150.6,-164.6"/>
<polygon fill="black" stroke="black" points="150.77,-168.1 160.77,-164.6 150.77,-161.1 150.77,-168.1"/>
</g>
<!-- ID_119_ct0_st0&#45;&gt;ID_119_ct0_st0 -->
<g id="edge4" class="edge">
<title>ID_119_ct0_st0&#45;&gt;ID_119_ct0_st0</title>
<path fill="none" stroke="black" d="M202.56,-189.78C201.89,-199.51 206.88,-207.6 217.5,-207.6 224.14,-207.6 228.58,-204.44 230.81,-199.69"/>
<polygon fill="black" stroke="black" points="234.27,-200.21 232.44,-189.78 227.36,-199.07 234.27,-200.21"/>
<text text-anchor="start" x="205.5" y="-211.4" font-family="arial" font-size="14.00" fill="#377eb8">true</text>
</g>
<!-- ID_119_ct0_st01 -->
<g id="node4" class="node">
<title>ID_119_ct0_st01</title>
<polygon fill="none" stroke="black" points="461,-91.6 340,-91.6 340,-41.6 461,-41.6 461,-91.6"/>
<text text-anchor="start" x="348" y="-77.4" font-family="arial" font-weight="bold" font-size="14.00">ID_119_ct0_st01</text>
<text text-anchor="start" x="373.5" y="-63.4" font-family="arial" font-size="14.00" fill="#984ea3">(R &amp;&amp; S)</text>
<text text-anchor="start" x="388.5" y="-49.4" font-family="arial" font-size="14.00" fill="#ff7f00">true</text>
</g>
<!-- ID_119_ct0_st0&#45;&gt;ID_119_ct0_st01 -->
<g id="edge5" class="edge">
<title>ID_119_ct0_st0&#45;&gt;ID_119_ct0_st01</title>
<path fill="none" stroke="black" d="M243.03,-139.38C257.83,-125.39 277.71,-108.64 298,-97.6 308.01,-92.15 319.12,-87.52 330.2,-83.64"/>
<polygon fill="black" stroke="black" points="331.51,-86.89 339.9,-80.42 329.31,-80.25 331.51,-86.89"/>
<text text-anchor="start" x="298" y="-101.4" font-family="arial" font-size="14.00" fill="#377eb8">true</text>
</g>
<!-- ID_119_ct0_st012W -->
<g id="node6" class="node">
<title>ID_119_ct0_st012W</title>
<polygon fill="none" stroke="black" points="897,-169.6 755,-169.6 755,-119.6 897,-119.6 897,-169.6"/>
<text text-anchor="start" x="763" y="-155.4" font-family="arial" font-weight="bold" font-size="14.00">ID_119_ct0_st012W</text>
<text text-anchor="start" x="797" y="-141.4" font-family="arial" font-size="14.00" fill="#984ea3">(R &amp;&amp; !S)</text>
<text text-anchor="start" x="803" y="-127.4" font-family="arial" font-size="14.00" fill="#ff7f00">c0 &lt;= 5</text>
</g>
<!-- ID_119_ct0_st0&#45;&gt;ID_119_ct0_st012W -->
<g id="edge6" class="edge">
<title>ID_119_ct0_st0&#45;&gt;ID_119_ct0_st012W</title>
<path fill="none" stroke="black" d="M274.21,-186.14C362,-217 537.35,-266.03 681,-227.6 718.89,-217.46 757.15,-194.69 784.69,-175.55"/>
<polygon fill="black" stroke="black" points="786.75,-178.39 792.89,-169.75 782.7,-172.67 786.75,-178.39"/>
<text text-anchor="start" x="486" y="-258.4" font-family="arial" font-size="14.00" fill="#377eb8">true</text>
<text text-anchor="start" x="479" y="-243.4" font-family="arial" font-size="14.00">c0 :=0</text>
</g>
<!-- _ID_119_ct0_st01 -->
<!-- _ID_119_ct0_st01&#45;&gt;ID_119_ct0_st01 -->
<g id="edge2" class="edge">
<title>_ID_119_ct0_st01&#45;&gt;ID_119_ct0_st01</title>
<path fill="none" stroke="black" d="M280.03,-64.62C296.07,-64.89 313.47,-65.17 329.9,-65.45"/>
<polygon fill="black" stroke="black" points="329.92,-68.95 339.98,-65.61 330.04,-61.95 329.92,-68.95"/>
</g>
<!-- ID_119_ct0_st01&#45;&gt;ID_119_ct0_st0 -->
<g id="edge7" class="edge">
<title>ID_119_ct0_st01&#45;&gt;ID_119_ct0_st0</title>
<path fill="none" stroke="black" d="M358.38,-91.73C346.72,-98.66 333.94,-106.07 322,-112.6 308.32,-120.08 293.44,-127.8 279.33,-134.93"/>
<polygon fill="black" stroke="black" points="277.56,-131.9 270.2,-139.52 280.7,-138.16 277.56,-131.9"/>
<text text-anchor="start" x="303.5" y="-128.4" font-family="arial" font-size="14.00" fill="#377eb8">S&#39;</text>
</g>
<!-- ID_119_ct0_st01&#45;&gt;ID_119_ct0_st01 -->
<g id="edge9" class="edge">
<title>ID_119_ct0_st01&#45;&gt;ID_119_ct0_st01</title>
<path fill="none" stroke="black" d="M383.69,-91.78C382.94,-101.51 388.55,-109.6 400.5,-109.6 407.97,-109.6 412.96,-106.44 415.47,-101.69"/>
<polygon fill="black" stroke="black" points="418.93,-102.25 417.31,-91.78 412.04,-100.97 418.93,-102.25"/>
<text text-anchor="start" x="388.5" y="-113.4" font-family="arial" font-size="14.00" fill="#377eb8">true</text>
</g>
<!-- ID_119_ct0_st01&#45;&gt;ID_119_ct0_st012W -->
<g id="edge10" class="edge">
<title>ID_119_ct0_st01&#45;&gt;ID_119_ct0_st012W</title>
<path fill="none" stroke="black" d="M461.06,-48.41C518.68,-33.83 607.79,-19.3 681,-42.6 724.04,-56.3 765.27,-88.05 792.5,-112.52"/>
<polygon fill="black" stroke="black" points="790.41,-115.35 800.14,-119.53 795.14,-110.19 790.41,-115.35"/>
<text text-anchor="start" x="596" y="-61.4" font-family="arial" font-size="14.00" fill="#377eb8">true</text>
<text text-anchor="start" x="589" y="-46.4" font-family="arial" font-size="14.00">c0 :=0</text>
</g>
<!-- ID_119_ct0_st02W -->
<g id="node7" class="node">
<title>ID_119_ct0_st02W</title>
<polygon fill="none" stroke="black" points="675,-131.6 541,-131.6 541,-81.6 675,-81.6 675,-131.6"/>
<text text-anchor="start" x="549" y="-117.4" font-family="arial" font-weight="bold" font-size="14.00">ID_119_ct0_st02W</text>
<text text-anchor="start" x="577.5" y="-103.4" font-family="arial" font-size="14.00" fill="#984ea3">(!R &amp;&amp; !S)</text>
<text text-anchor="start" x="585" y="-89.4" font-family="arial" font-size="14.00" fill="#ff7f00">c0 &lt;= 5</text>
</g>
<!-- ID_119_ct0_st01&#45;&gt;ID_119_ct0_st02W -->
<g id="edge8" class="edge">
<title>ID_119_ct0_st01&#45;&gt;ID_119_ct0_st02W</title>
<path fill="none" stroke="black" d="M461.05,-62.6C479.18,-62.58 499.05,-63.8 517,-67.6 527.71,-69.87 538.72,-73.46 549.21,-77.57"/>
<polygon fill="black" stroke="black" points="548.08,-80.89 558.66,-81.46 550.75,-74.41 548.08,-80.89"/>
<text text-anchor="start" x="486" y="-86.4" font-family="arial" font-size="14.00" fill="#377eb8">true</text>
<text text-anchor="start" x="479" y="-71.4" font-family="arial" font-size="14.00">c0 :=0</text>
</g>
<!-- _ID_119_ct0_st012W -->
<!-- _ID_119_ct0_st012W&#45;&gt;ID_119_ct0_st012W -->
<g id="edge3" class="edge">
<title>_ID_119_ct0_st012W&#45;&gt;ID_119_ct0_st012W</title>
<path fill="none" stroke="black" d="M678.53,-182.57C699.71,-177.08 723.15,-171 744.96,-165.35"/>
<polygon fill="black" stroke="black" points="746.06,-168.68 754.86,-162.78 744.3,-161.91 746.06,-168.68"/>
</g>
<!-- ID_119_ct0_st012W&#45;&gt;ID_119_ct0_st0 -->
<g id="edge15" class="edge">
<title>ID_119_ct0_st012W&#45;&gt;ID_119_ct0_st0</title>
<path fill="none" stroke="black" d="M803.25,-169.93C786.61,-188.01 762.31,-211.82 737,-227.6 638.16,-289.22 594.33,-289.86 479,-273.6 394.8,-261.73 372.29,-252.98 298,-211.6 288.46,-206.28 278.36,-200.47 268.68,-194.79"/>
<polygon fill="black" stroke="black" points="270.33,-191.7 259.94,-189.64 266.78,-197.73 270.33,-191.7"/>
<text text-anchor="start" x="491.5" y="-281.4" font-family="arial" font-size="14.00" fill="#377eb8">S&#39;</text>
</g>
<!-- ID_119_ct0_st012W&#45;&gt;ID_119_ct0_st01 -->
<g id="edge17" class="edge">
<title>ID_119_ct0_st012W&#45;&gt;ID_119_ct0_st01</title>
<path fill="none" stroke="black" d="M809.06,-119.45C785.84,-85.75 739.07,-28.25 681,-11.6 618.63,6.29 598.76,0.47 535,-11.6 508.73,-16.58 503.75,-23.47 479,-33.6 475.79,-34.91 472.51,-36.27 469.2,-37.64"/>
<polygon fill="black" stroke="black" points="467.7,-34.47 459.82,-41.56 470.4,-40.93 467.7,-34.47"/>
<text text-anchor="start" x="596" y="-15.4" font-family="arial" font-size="14.00" fill="#377eb8">true</text>
</g>
<!-- ID_119_ct0_st012W&#45;&gt;ID_119_ct0_st012W -->
<g id="edge18" class="edge">
<title>ID_119_ct0_st012W&#45;&gt;ID_119_ct0_st012W</title>
<path fill="none" stroke="black" d="M805.83,-169.78C804.93,-179.51 811.66,-187.6 826,-187.6 834.96,-187.6 840.95,-184.44 843.96,-179.69"/>
<polygon fill="black" stroke="black" points="847.42,-180.3 846.17,-169.78 840.58,-178.78 847.42,-180.3"/>
<text text-anchor="start" x="807" y="-191.4" font-family="arial" font-size="14.00" fill="#377eb8">c0 &lt; 5</text>
</g>
<!-- ID_119_ct0_st012W&#45;&gt;ID_119_ct0_st02W -->
<g id="edge16" class="edge">
<title>ID_119_ct0_st012W&#45;&gt;ID_119_ct0_st02W</title>
<path fill="none" stroke="black" d="M754.68,-132.36C736.54,-129.19 717.04,-125.78 699,-122.6 694.57,-121.82 690.02,-121.02 685.43,-120.2"/>
<polygon fill="black" stroke="black" points="685.81,-116.72 675.35,-118.42 684.59,-123.61 685.81,-116.72"/>
<text text-anchor="start" x="699" y="-132.4" font-family="arial" font-size="14.00" fill="#377eb8">c0 &lt; 5</text>
</g>
<!-- ID_119_ct0_st02W&#45;&gt;ID_119_ct0_st0 -->
<g id="edge11" class="edge">
<title>ID_119_ct0_st02W&#45;&gt;ID_119_ct0_st0</title>
<path fill="none" stroke="black" d="M540.99,-119.61C515.99,-124.33 487.23,-129.5 461,-133.6 401.3,-142.93 333,-151.47 284.13,-157.21"/>
<polygon fill="black" stroke="black" points="283.53,-153.76 274,-158.4 284.34,-160.71 283.53,-153.76"/>
<text text-anchor="start" x="394" y="-153.4" font-family="arial" font-size="14.00" fill="#377eb8">S&#39;</text>
</g>
<!-- ID_119_ct0_st02W&#45;&gt;ID_119_ct0_st01 -->
<g id="edge13" class="edge">
<title>ID_119_ct0_st02W&#45;&gt;ID_119_ct0_st01</title>
<path fill="none" stroke="black" d="M540.98,-105.87C520.89,-104.6 498.87,-102.15 479,-97.6 475.4,-96.77 471.74,-95.81 468.09,-94.73"/>
<polygon fill="black" stroke="black" points="469.01,-91.35 458.42,-91.66 466.89,-98.02 469.01,-91.35"/>
<text text-anchor="start" x="486" y="-107.4" font-family="arial" font-size="14.00" fill="#377eb8">true</text>
</g>
<!-- ID_119_ct0_st02W&#45;&gt;ID_119_ct0_st012W -->
<g id="edge14" class="edge">
<title>ID_119_ct0_st02W&#45;&gt;ID_119_ct0_st012W</title>
<path fill="none" stroke="black" d="M675.29,-102.23C695.29,-102.22 717.19,-103.52 737,-107.6 746.4,-109.53 756.04,-112.48 765.35,-115.89"/>
<polygon fill="black" stroke="black" points="764.31,-119.24 774.89,-119.59 766.83,-112.72 764.31,-119.24"/>
<text text-anchor="start" x="699" y="-111.4" font-family="arial" font-size="14.00" fill="#377eb8">c0 &lt; 5</text>
</g>
<!-- ID_119_ct0_st02W&#45;&gt;ID_119_ct0_st02W -->
<g id="edge12" class="edge">
<title>ID_119_ct0_st02W&#45;&gt;ID_119_ct0_st02W</title>
<path fill="none" stroke="black" d="M587.46,-131.78C586.54,-141.51 593.39,-149.6 608,-149.6 617.13,-149.6 623.23,-146.44 626.3,-141.69"/>
<polygon fill="black" stroke="black" points="629.75,-142.3 628.54,-131.78 622.92,-140.75 629.75,-142.3"/>
<text text-anchor="start" x="589" y="-153.4" font-family="arial" font-size="14.00" fill="#377eb8">c0 &lt; 5</text>
</g>
</g>
</svg>
