<?xml version="1.0" encoding="UTF-8" standalone="no"?>
<!DOCTYPE svg PUBLIC "-//W3C//DTD SVG 1.1//EN"
 "http://www.w3.org/Graphics/SVG/1.1/DTD/svg11.dtd">
<!-- Generated by graphviz version 2.43.0 (0)
 -->
<!-- Title: G Pages: 1 -->
<svg width="1102pt" height="460pt"
 viewBox="0.00 0.00 1102.00 459.77" xmlns="http://www.w3.org/2000/svg" xmlns:xlink="http://www.w3.org/1999/xlink">
<g id="graph0" class="graph" transform="scale(1 1) rotate(0) translate(4 455.77)">
<title>G</title>
<polygon fill="white" stroke="transparent" points="-4,4 -4,-455.77 1098,-455.77 1098,4 -4,4"/>
<!-- _ID_102_ct0_st -->
<!-- ID_102_ct0_st -->
<g id="node2" class="node">
<title>ID_102_ct0_st</title>
<polygon fill="none" stroke="black" points="1094,-216.77 987,-216.77 987,-166.77 1094,-166.77 1094,-216.77"/>
<text text-anchor="start" x="995" y="-202.57" font-family="arial" font-weight="bold" font-size="14.00">ID_102_ct0_st</text>
<text text-anchor="start" x="1028.5" y="-188.57" font-family="arial" font-size="14.00" fill="#984ea3">true</text>
<text text-anchor="start" x="1028.5" y="-174.57" font-family="arial" font-size="14.00" fill="#ff7f00">true</text>
</g>
<!-- _ID_102_ct0_st&#45;&gt;ID_102_ct0_st -->
<g id="edge1" class="edge">
<title>_ID_102_ct0_st&#45;&gt;ID_102_ct0_st</title>
<path fill="none" stroke="black" d="M922.05,-426.46C938.9,-421.8 956.34,-414.19 969,-401.77 1017.12,-354.53 1032.4,-273.48 1037.25,-227.1"/>
<polygon fill="black" stroke="black" points="1040.75,-227.21 1038.2,-216.93 1033.78,-226.56 1040.75,-227.21"/>
</g>
<!-- ID_102_ct0_st&#45;&gt;ID_102_ct0_st -->
<g id="edge5" class="edge">
<title>ID_102_ct0_st&#45;&gt;ID_102_ct0_st</title>
<path fill="none" stroke="black" d="M1025.93,-216.94C1025.28,-226.68 1030.14,-234.77 1040.5,-234.77 1046.97,-234.77 1051.3,-231.61 1053.47,-226.86"/>
<polygon fill="black" stroke="black" points="1056.94,-227.37 1055.07,-216.94 1050.03,-226.26 1056.94,-227.37"/>
<text text-anchor="start" x="1028.5" y="-238.57" font-family="arial" font-size="14.00" fill="#377eb8">true</text>
</g>
<!-- _ID_102_ct0_st0 -->
<!-- ID_102_ct0_st0 -->
<g id="node4" class="node">
<title>ID_102_ct0_st0</title>
<polygon fill="none" stroke="black" points="276,-306.77 162,-306.77 162,-256.77 276,-256.77 276,-306.77"/>
<text text-anchor="start" x="170" y="-292.57" font-family="arial" font-weight="bold" font-size="14.00">ID_102_ct0_st0</text>
<text text-anchor="start" x="188.5" y="-278.57" font-family="arial" font-size="14.00" fill="#984ea3">(!P &amp;&amp; !R)</text>
<text text-anchor="start" x="207" y="-264.57" font-family="arial" font-size="14.00" fill="#ff7f00">true</text>
</g>
<!-- _ID_102_ct0_st0&#45;&gt;ID_102_ct0_st0 -->
<g id="edge2" class="edge">
<title>_ID_102_ct0_st0&#45;&gt;ID_102_ct0_st0</title>
<path fill="none" stroke="black" d="M119.15,-281.77C129.75,-281.77 140.88,-281.77 151.68,-281.77"/>
<polygon fill="black" stroke="black" points="151.92,-285.27 161.92,-281.77 151.92,-278.27 151.92,-285.27"/>
</g>
<!-- ID_102_ct0_st0&#45;&gt;ID_102_ct0_st -->
<g id="edge6" class="edge">
<title>ID_102_ct0_st0&#45;&gt;ID_102_ct0_st</title>
<path fill="none" stroke="black" d="M247.84,-306.89C285.56,-338.23 356.34,-387.77 427,-387.77 427,-387.77 427,-387.77 867.5,-387.77 952.28,-387.77 1005.06,-282.9 1027.29,-226.58"/>
<polygon fill="black" stroke="black" points="1030.66,-227.58 1030.97,-216.99 1024.12,-225.08 1030.66,-227.58"/>
<text text-anchor="start" x="641" y="-391.57" font-family="arial" font-size="14.00" fill="#377eb8">P&#39;</text>
</g>
<!-- ID_102_ct0_st0&#45;&gt;ID_102_ct0_st0 -->
<g id="edge7" class="edge">
<title>ID_102_ct0_st0&#45;&gt;ID_102_ct0_st0</title>
<path fill="none" stroke="black" d="M204.06,-306.94C203.39,-316.68 208.38,-324.77 219,-324.77 225.64,-324.77 230.08,-321.61 232.31,-316.86"/>
<polygon fill="black" stroke="black" points="235.77,-317.38 233.94,-306.94 228.86,-316.24 235.77,-317.38"/>
<text text-anchor="start" x="207" y="-328.57" font-family="arial" font-size="14.00" fill="#377eb8">true</text>
</g>
<!-- ID_102_ct0_st01 -->
<g id="node6" class="node">
<title>ID_102_ct0_st01</title>
<polygon fill="none" stroke="black" points="489,-165.77 367,-165.77 367,-115.77 489,-115.77 489,-165.77"/>
<text text-anchor="start" x="375" y="-151.57" font-family="arial" font-weight="bold" font-size="14.00">ID_102_ct0_st01</text>
<text text-anchor="start" x="377.5" y="-137.57" font-family="arial" font-size="14.00" fill="#984ea3">(!P &amp;&amp; (R &amp;&amp; S))</text>
<text text-anchor="start" x="416" y="-123.57" font-family="arial" font-size="14.00" fill="#ff7f00">true</text>
</g>
<!-- ID_102_ct0_st0&#45;&gt;ID_102_ct0_st01 -->
<g id="edge8" class="edge">
<title>ID_102_ct0_st0&#45;&gt;ID_102_ct0_st01</title>
<path fill="none" stroke="black" d="M236.33,-256.56C250.86,-235.87 273.83,-207.09 300,-188.77 317.17,-176.74 337.74,-167.28 357.28,-160.05"/>
<polygon fill="black" stroke="black" points="358.51,-163.32 366.77,-156.68 356.17,-156.73 358.51,-163.32"/>
<text text-anchor="start" x="312.5" y="-192.57" font-family="arial" font-size="14.00" fill="#377eb8">true</text>
</g>
<!-- ID_102_ct0_st012W -->
<g id="node8" class="node">
<title>ID_102_ct0_st012W</title>
<polygon fill="none" stroke="black" points="938,-216.77 795,-216.77 795,-166.77 938,-166.77 938,-216.77"/>
<text text-anchor="start" x="803" y="-202.57" font-family="arial" font-weight="bold" font-size="14.00">ID_102_ct0_st012W</text>
<text text-anchor="start" x="814" y="-188.57" font-family="arial" font-size="14.00" fill="#984ea3">(!P &amp;&amp; (R &amp;&amp; !S))</text>
<text text-anchor="start" x="843.5" y="-174.57" font-family="arial" font-size="14.00" fill="#ff7f00">c0 &lt;= 5</text>
</g>
<!-- ID_102_ct0_st0&#45;&gt;ID_102_ct0_st012W -->
<g id="edge9" class="edge">
<title>ID_102_ct0_st0&#45;&gt;ID_102_ct0_st012W</title>
<path fill="none" stroke="black" d="M267.12,-306.82C277.66,-311.32 288.99,-315.35 300,-317.77 351.77,-329.14 730.08,-342.42 777,-317.77 813.62,-298.53 838.31,-256.51 852.11,-226.28"/>
<polygon fill="black" stroke="black" points="855.4,-227.48 856.2,-216.92 848.99,-224.68 855.4,-227.48"/>
<text text-anchor="start" x="519.5" y="-349.57" font-family="arial" font-size="14.00" fill="#377eb8">true</text>
<text text-anchor="start" x="512.5" y="-334.57" font-family="arial" font-size="14.00">c0 :=0</text>
</g>
<!-- _ID_102_ct0_st01 -->
<!-- _ID_102_ct0_st01&#45;&gt;ID_102_ct0_st01 -->
<g id="edge3" class="edge">
<title>_ID_102_ct0_st01&#45;&gt;ID_102_ct0_st01</title>
<path fill="none" stroke="black" d="M282.11,-140.77C305.55,-140.77 332.39,-140.77 356.55,-140.77"/>
<polygon fill="black" stroke="black" points="356.72,-144.27 366.72,-140.77 356.72,-137.27 356.72,-144.27"/>
</g>
<!-- ID_102_ct0_st01&#45;&gt;ID_102_ct0_st -->
<g id="edge10" class="edge">
<title>ID_102_ct0_st01&#45;&gt;ID_102_ct0_st</title>
<path fill="none" stroke="black" d="M442.56,-115.46C456.11,-92.34 478.93,-58.66 507,-37.77 583.81,19.41 625.74,-3 721,-12.77 818.98,-22.82 854.73,-5.16 938,-57.77 976.46,-82.07 1005.71,-126.46 1022.71,-157.46"/>
<polygon fill="black" stroke="black" points="1019.8,-159.44 1027.59,-166.62 1025.98,-156.14 1019.8,-159.44"/>
<text text-anchor="start" x="751.5" y="-20.57" font-family="arial" font-size="14.00" fill="#377eb8">P&#39;</text>
</g>
<!-- ID_102_ct0_st01&#45;&gt;ID_102_ct0_st0 -->
<g id="edge11" class="edge">
<title>ID_102_ct0_st01&#45;&gt;ID_102_ct0_st0</title>
<path fill="none" stroke="black" d="M398.23,-165.85C383.86,-177.89 365.96,-192.18 349,-203.77 328.29,-217.92 321.53,-218.9 300,-231.77 289.68,-237.94 278.69,-244.69 268.28,-251.17"/>
<polygon fill="black" stroke="black" points="266.32,-248.27 259.69,-256.53 270.02,-254.2 266.32,-248.27"/>
<text text-anchor="start" x="300" y="-235.57" font-family="arial" font-size="14.00" fill="#377eb8">(P&#39; || S&#39;)</text>
</g>
<!-- ID_102_ct0_st01&#45;&gt;ID_102_ct0_st01 -->
<g id="edge13" class="edge">
<title>ID_102_ct0_st01&#45;&gt;ID_102_ct0_st01</title>
<path fill="none" stroke="black" d="M408.95,-165.94C408.1,-175.68 414.45,-183.77 428,-183.77 436.47,-183.77 442.12,-180.61 444.97,-175.86"/>
<polygon fill="black" stroke="black" points="448.42,-176.45 447.05,-165.94 441.57,-175.01 448.42,-176.45"/>
<text text-anchor="start" x="416" y="-187.57" font-family="arial" font-size="14.00" fill="#377eb8">true</text>
</g>
<!-- ID_102_ct0_st01&#45;&gt;ID_102_ct0_st012W -->
<g id="edge14" class="edge">
<title>ID_102_ct0_st01&#45;&gt;ID_102_ct0_st012W</title>
<path fill="none" stroke="black" d="M463.89,-165.95C492.06,-184.64 533.53,-208.57 574,-218.77 643.88,-236.37 725.78,-226.19 784.95,-213.6"/>
<polygon fill="black" stroke="black" points="785.96,-216.96 794.98,-211.4 784.46,-210.13 785.96,-216.96"/>
<text text-anchor="start" x="635.5" y="-246.57" font-family="arial" font-size="14.00" fill="#377eb8">true</text>
<text text-anchor="start" x="628.5" y="-231.57" font-family="arial" font-size="14.00">c0 :=0</text>
</g>
<!-- ID_102_ct0_st02W -->
<g id="node9" class="node">
<title>ID_102_ct0_st02W</title>
<polygon fill="none" stroke="black" points="715,-71.77 580,-71.77 580,-21.77 715,-21.77 715,-71.77"/>
<text text-anchor="start" x="588" y="-57.57" font-family="arial" font-weight="bold" font-size="14.00">ID_102_ct0_st02W</text>
<text text-anchor="start" x="593" y="-43.57" font-family="arial" font-size="14.00" fill="#984ea3">(!P &amp;&amp; (!R &amp;&amp; !S))</text>
<text text-anchor="start" x="624.5" y="-29.57" font-family="arial" font-size="14.00" fill="#ff7f00">c0 &lt;= 5</text>
</g>
<!-- ID_102_ct0_st01&#45;&gt;ID_102_ct0_st02W -->
<g id="edge12" class="edge">
<title>ID_102_ct0_st01&#45;&gt;ID_102_ct0_st02W</title>
<path fill="none" stroke="black" d="M443.65,-115.52C457.18,-94.85 479.35,-66.95 507,-53.77 526.09,-44.66 548.37,-40.95 569.44,-40.01"/>
<polygon fill="black" stroke="black" points="569.76,-43.51 579.67,-39.76 569.59,-36.51 569.76,-43.51"/>
<text text-anchor="start" x="519.5" y="-72.57" font-family="arial" font-size="14.00" fill="#377eb8">true</text>
<text text-anchor="start" x="512.5" y="-57.57" font-family="arial" font-size="14.00">c0 :=0</text>
</g>
<!-- _ID_102_ct0_st012W -->
<!-- _ID_102_ct0_st012W&#45;&gt;ID_102_ct0_st012W -->
<g id="edge4" class="edge">
<title>_ID_102_ct0_st012W&#45;&gt;ID_102_ct0_st012W</title>
<path fill="none" stroke="black" d="M721.06,-191.77C741.5,-191.77 763.85,-191.77 784.73,-191.77"/>
<polygon fill="black" stroke="black" points="784.85,-195.27 794.85,-191.77 784.85,-188.27 784.85,-195.27"/>
</g>
<!-- ID_102_ct0_st012W&#45;&gt;ID_102_ct0_st -->
<g id="edge20" class="edge">
<title>ID_102_ct0_st012W&#45;&gt;ID_102_ct0_st</title>
<path fill="none" stroke="black" d="M938.45,-191.77C951.1,-191.77 964.2,-191.77 976.61,-191.77"/>
<polygon fill="black" stroke="black" points="976.84,-195.27 986.84,-191.77 976.84,-188.27 976.84,-195.27"/>
<text text-anchor="start" x="956" y="-195.57" font-family="arial" font-size="14.00" fill="#377eb8">P&#39;</text>
</g>
<!-- ID_102_ct0_st012W&#45;&gt;ID_102_ct0_st0 -->
<g id="edge21" class="edge">
<title>ID_102_ct0_st012W&#45;&gt;ID_102_ct0_st0</title>
<path fill="none" stroke="black" d="M824.82,-216.87C796.75,-232.82 757.97,-252.19 721,-261.77 569.42,-301.05 383.49,-295 286.33,-287.93"/>
<polygon fill="black" stroke="black" points="286.59,-284.44 276.36,-287.18 286.06,-291.42 286.59,-284.44"/>
<text text-anchor="start" x="507" y="-294.57" font-family="arial" font-size="14.00" fill="#377eb8">(P&#39; || S&#39;)</text>
</g>
<!-- ID_102_ct0_st012W&#45;&gt;ID_102_ct0_st01 -->
<g id="edge23" class="edge">
<title>ID_102_ct0_st012W&#45;&gt;ID_102_ct0_st01</title>
<path fill="none" stroke="black" d="M794.65,-167.32C771.46,-160.36 745.39,-153.62 721,-149.77 645.94,-137.9 558.72,-136.84 499.28,-138"/>
<polygon fill="black" stroke="black" points="499.17,-134.51 489.25,-138.23 499.33,-141.5 499.17,-134.51"/>
<text text-anchor="start" x="635.5" y="-153.57" font-family="arial" font-size="14.00" fill="#377eb8">true</text>
</g>
<!-- ID_102_ct0_st012W&#45;&gt;ID_102_ct0_st012W -->
<g id="edge24" class="edge">
<title>ID_102_ct0_st012W&#45;&gt;ID_102_ct0_st012W</title>
<path fill="none" stroke="black" d="M848.57,-216.94C847.77,-226.68 853.75,-234.77 866.5,-234.77 874.47,-234.77 879.79,-231.61 882.47,-226.86"/>
<polygon fill="black" stroke="black" points="885.92,-227.43 884.43,-216.94 879.06,-226.08 885.92,-227.43"/>
<text text-anchor="start" x="847.5" y="-238.57" font-family="arial" font-size="14.00" fill="#377eb8">c0 &lt; 5</text>
</g>
<!-- ID_102_ct0_st012W&#45;&gt;ID_102_ct0_st02W -->
<g id="edge22" class="edge">
<title>ID_102_ct0_st012W&#45;&gt;ID_102_ct0_st02W</title>
<path fill="none" stroke="black" d="M841.44,-166.76C824.44,-149.93 800.56,-127.95 777,-111.77 765.02,-103.54 737.4,-89.38 710.84,-76.36"/>
<polygon fill="black" stroke="black" points="712.03,-73.05 701.51,-71.82 708.97,-79.35 712.03,-73.05"/>
<text text-anchor="start" x="739" y="-115.57" font-family="arial" font-size="14.00" fill="#377eb8">c0 &lt; 5</text>
</g>
<!-- ID_102_ct0_st02W&#45;&gt;ID_102_ct0_st -->
<g id="edge15" class="edge">
<title>ID_102_ct0_st02W&#45;&gt;ID_102_ct0_st</title>
<path fill="none" stroke="black" d="M715.08,-45.64C735.26,-46.7 757.3,-49.28 777,-54.77 858.92,-77.58 944.58,-128.12 994.94,-161.03"/>
<polygon fill="black" stroke="black" points="993.04,-163.97 1003.32,-166.55 996.9,-158.12 993.04,-163.97"/>
<text text-anchor="start" x="860" y="-128.57" font-family="arial" font-size="14.00" fill="#377eb8">P&#39;</text>
</g>
<!-- ID_102_ct0_st02W&#45;&gt;ID_102_ct0_st0 -->
<g id="edge16" class="edge">
<title>ID_102_ct0_st02W&#45;&gt;ID_102_ct0_st0</title>
<path fill="none" stroke="black" d="M624.92,-71.82C589.63,-112.24 520.39,-189.21 489,-207.77 425.78,-245.16 343.06,-264.22 286.14,-273.54"/>
<polygon fill="black" stroke="black" points="285.5,-270.1 276.17,-275.12 286.6,-277.01 285.5,-270.1"/>
<text text-anchor="start" x="403.5" y="-259.57" font-family="arial" font-size="14.00" fill="#377eb8">(P&#39; || S&#39;)</text>
</g>
<!-- ID_102_ct0_st02W&#45;&gt;ID_102_ct0_st01 -->
<g id="edge18" class="edge">
<title>ID_102_ct0_st02W&#45;&gt;ID_102_ct0_st01</title>
<path fill="none" stroke="black" d="M588.28,-71.93C559.98,-84.16 525.8,-98.93 496.37,-111.65"/>
<polygon fill="black" stroke="black" points="494.79,-108.52 487,-115.7 497.57,-114.95 494.79,-108.52"/>
<text text-anchor="start" x="519.5" y="-109.57" font-family="arial" font-size="14.00" fill="#377eb8">true</text>
</g>
<!-- ID_102_ct0_st02W&#45;&gt;ID_102_ct0_st012W -->
<g id="edge19" class="edge">
<title>ID_102_ct0_st02W&#45;&gt;ID_102_ct0_st012W</title>
<path fill="none" stroke="black" d="M715.04,-51.51C736.09,-55.34 758.64,-62.07 777,-73.77 809.07,-94.2 833.71,-130.63 848.75,-157.63"/>
<polygon fill="black" stroke="black" points="845.84,-159.6 853.67,-166.74 852,-156.28 845.84,-159.6"/>
<text text-anchor="start" x="739" y="-77.57" font-family="arial" font-size="14.00" fill="#377eb8">c0 &lt; 5</text>
</g>
<!-- ID_102_ct0_st02W&#45;&gt;ID_102_ct0_st02W -->
<g id="edge17" class="edge">
<title>ID_102_ct0_st02W&#45;&gt;ID_102_ct0_st02W</title>
<path fill="none" stroke="black" d="M626.96,-71.94C626.04,-81.68 632.89,-89.77 647.5,-89.77 656.63,-89.77 662.73,-86.61 665.8,-81.86"/>
<polygon fill="black" stroke="black" points="669.25,-82.47 668.04,-71.94 662.42,-80.92 669.25,-82.47"/>
<text text-anchor="start" x="628.5" y="-93.57" font-family="arial" font-size="14.00" fill="#377eb8">c0 &lt; 5</text>
</g>
</g>
</svg>
