<?xml version="1.0" encoding="UTF-8" standalone="no"?>
<!DOCTYPE svg PUBLIC "-//W3C//DTD SVG 1.1//EN"
 "http://www.w3.org/Graphics/SVG/1.1/DTD/svg11.dtd">
<!-- Generated by graphviz version 2.43.0 (0)
 -->
<!-- Title: G Pages: 1 -->
<svg width="1642pt" height="664pt"
 viewBox="0.00 0.00 1642.00 664.00" xmlns="http://www.w3.org/2000/svg" xmlns:xlink="http://www.w3.org/1999/xlink">
<g id="graph0" class="graph" transform="scale(1 1) rotate(0) translate(4 660)">
<title>G</title>
<polygon fill="white" stroke="transparent" points="-4,4 -4,-660 1638,-660 1638,4 -4,4"/>
<!-- _st0 -->
<!-- st0 -->
<g id="node2" class="node">
<title>st0</title>
<polygon fill="none" stroke="black" points="156,-606 91,-606 91,-556 156,-556 156,-606"/>
<text text-anchor="start" x="113.5" y="-591.8" font-family="arial" font-weight="bold" font-size="14.00">st0</text>
<text text-anchor="start" x="99" y="-577.8" font-family="arial" font-size="14.00" fill="#984ea3">(R || !Q)</text>
<text text-anchor="start" x="111.5" y="-563.8" font-family="arial" font-size="14.00" fill="#ff7f00">true</text>
</g>
<!-- _st0&#45;&gt;st0 -->
<g id="edge1" class="edge">
<title>_st0&#45;&gt;st0</title>
<path fill="none" stroke="black" d="M54.07,-581C62.33,-581 71.67,-581 80.74,-581"/>
<polygon fill="black" stroke="black" points="80.79,-584.5 90.79,-581 80.79,-577.5 80.79,-584.5"/>
</g>
<!-- st0&#45;&gt;st0 -->
<g id="edge4" class="edge">
<title>st0&#45;&gt;st0</title>
<path fill="none" stroke="black" d="M114.16,-606.18C113.75,-615.91 116.86,-624 123.5,-624 127.55,-624 130.28,-621 131.71,-616.45"/>
<polygon fill="black" stroke="black" points="135.23,-616.5 132.84,-606.18 128.27,-615.73 135.23,-616.5"/>
<text text-anchor="start" x="111.5" y="-627.8" font-family="arial" font-size="14.00" fill="#377eb8">true</text>
</g>
<!-- st012 -->
<g id="node4" class="node">
<title>st012</title>
<polygon fill="none" stroke="black" points="371,-443 216,-443 216,-393 371,-393 371,-443"/>
<text text-anchor="start" x="276" y="-428.8" font-family="arial" font-weight="bold" font-size="14.00">st012</text>
<text text-anchor="start" x="224" y="-414.8" font-family="arial" font-size="14.00" fill="#984ea3">(Q &amp;&amp; (!R &amp;&amp; (S || !T)))</text>
<text text-anchor="start" x="281.5" y="-400.8" font-family="arial" font-size="14.00" fill="#ff7f00">true</text>
</g>
<!-- st0&#45;&gt;st012 -->
<g id="edge5" class="edge">
<title>st0&#45;&gt;st012</title>
<path fill="none" stroke="black" d="M134.12,-555.87C142.47,-536.48 156.05,-509.86 174,-491 190.04,-474.15 210.77,-459.65 230.39,-448.12"/>
<polygon fill="black" stroke="black" points="232.36,-451.03 239.31,-443.03 228.89,-444.95 232.36,-451.03"/>
<text text-anchor="start" x="174" y="-494.8" font-family="arial" font-size="14.00" fill="#377eb8">true</text>
</g>
<!-- st01234 -->
<g id="node6" class="node">
<title>st01234</title>
<polygon fill="none" stroke="black" points="1634,-278 1468,-278 1468,-228 1634,-228 1634,-278"/>
<text text-anchor="start" x="1526" y="-263.8" font-family="arial" font-weight="bold" font-size="14.00">st01234</text>
<text text-anchor="start" x="1476" y="-249.8" font-family="arial" font-size="14.00" fill="#984ea3">(Q &amp;&amp; (!R &amp;&amp; (!S &amp;&amp; T)))</text>
<text text-anchor="start" x="1539" y="-235.8" font-family="arial" font-size="14.00" fill="#ff7f00">true</text>
</g>
<!-- st0&#45;&gt;st01234 -->
<g id="edge6" class="edge">
<title>st0&#45;&gt;st01234</title>
<path fill="none" stroke="black" d="M156.14,-599.66C189.04,-617.27 242.64,-641 292.5,-641 292.5,-641 292.5,-641 1304.5,-641 1470.65,-641 1528.99,-383.78 1544.93,-288.2"/>
<polygon fill="black" stroke="black" points="1548.41,-288.59 1546.55,-278.16 1541.5,-287.48 1548.41,-288.59"/>
<text text-anchor="start" x="784" y="-644.8" font-family="arial" font-size="14.00" fill="#377eb8">true</text>
</g>
<!-- _st012 -->
<!-- _st012&#45;&gt;st012 -->
<g id="edge2" class="edge">
<title>_st012&#45;&gt;st012</title>
<path fill="none" stroke="black" d="M152.24,-418C167.08,-418 186.26,-418 205.64,-418"/>
<polygon fill="black" stroke="black" points="205.77,-421.5 215.77,-418 205.77,-414.5 205.77,-421.5"/>
</g>
<!-- st012&#45;&gt;st0 -->
<g id="edge12" class="edge">
<title>st012&#45;&gt;st0</title>
<path fill="none" stroke="black" d="M266.59,-443.14C237.35,-471.51 189.71,-517.73 157.75,-548.74"/>
<polygon fill="black" stroke="black" points="155.12,-546.41 150.38,-555.89 160,-551.44 155.12,-546.41"/>
<text text-anchor="start" x="179.5" y="-535.8" font-family="arial" font-size="14.00" fill="#377eb8">R&#39;</text>
</g>
<!-- st012&#45;&gt;st012 -->
<g id="edge15" class="edge">
<title>st012&#45;&gt;st012</title>
<path fill="none" stroke="black" d="M273.7,-443.18C272.82,-452.91 279.42,-461 293.5,-461 302.3,-461 308.18,-457.84 311.13,-453.09"/>
<polygon fill="black" stroke="black" points="314.58,-453.69 313.3,-443.18 307.74,-452.2 314.58,-453.69"/>
<text text-anchor="start" x="281.5" y="-464.8" font-family="arial" font-size="14.00" fill="#377eb8">true</text>
</g>
<!-- st012&#45;&gt;st01234 -->
<g id="edge16" class="edge">
<title>st012&#45;&gt;st01234</title>
<path fill="none" stroke="black" d="M298.23,-392.77C312.34,-307.9 370.54,-38 540,-38 540,-38 540,-38 1304.5,-38 1373.32,-38 1396.64,-47.54 1450,-91 1492.11,-125.3 1521.36,-182.31 1536.91,-218.75"/>
<polygon fill="black" stroke="black" points="1533.68,-220.1 1540.75,-227.99 1540.15,-217.41 1533.68,-220.1"/>
<text text-anchor="start" x="911.5" y="-41.8" font-family="arial" font-size="14.00" fill="#377eb8">true</text>
</g>
<!-- st02 -->
<g id="node7" class="node">
<title>st02</title>
<polygon fill="none" stroke="black" points="1383,-478 1224,-478 1224,-428 1383,-428 1383,-478"/>
<text text-anchor="start" x="1289.5" y="-463.8" font-family="arial" font-weight="bold" font-size="14.00">st02</text>
<text text-anchor="start" x="1232" y="-449.8" font-family="arial" font-size="14.00" fill="#984ea3">(!Q &amp;&amp; (!R &amp;&amp; (S || !T)))</text>
<text text-anchor="start" x="1291.5" y="-435.8" font-family="arial" font-size="14.00" fill="#ff7f00">true</text>
</g>
<!-- st012&#45;&gt;st02 -->
<g id="edge13" class="edge">
<title>st012&#45;&gt;st02</title>
<path fill="none" stroke="black" d="M319.95,-443.2C361.96,-482.02 450.17,-552 540,-552 540,-552 540,-552 1053.5,-552 1128.61,-552 1208.02,-512.62 1256.43,-483.54"/>
<polygon fill="black" stroke="black" points="1258.39,-486.44 1265.1,-478.24 1254.74,-480.47 1258.39,-486.44"/>
<text text-anchor="start" x="784" y="-555.8" font-family="arial" font-size="14.00" fill="#377eb8">true</text>
</g>
<!-- st0234 -->
<g id="node8" class="node">
<title>st0234</title>
<polygon fill="none" stroke="black" points="626,-310 456,-310 456,-260 626,-260 626,-310"/>
<text text-anchor="start" x="519.5" y="-295.8" font-family="arial" font-weight="bold" font-size="14.00">st0234</text>
<text text-anchor="start" x="464" y="-281.8" font-family="arial" font-size="14.00" fill="#984ea3">(!Q &amp;&amp; (!R &amp;&amp; (!S &amp;&amp; T)))</text>
<text text-anchor="start" x="529" y="-267.8" font-family="arial" font-size="14.00" fill="#ff7f00">true</text>
</g>
<!-- st012&#45;&gt;st0234 -->
<g id="edge14" class="edge">
<title>st012&#45;&gt;st0234</title>
<path fill="none" stroke="black" d="M325.71,-392.91C343.6,-379.22 366.84,-362.55 389,-350 412.57,-336.66 439.4,-324.28 463.85,-313.98"/>
<polygon fill="black" stroke="black" points="465.21,-317.21 473.1,-310.14 462.52,-310.74 465.21,-317.21"/>
<text text-anchor="start" x="401.5" y="-353.8" font-family="arial" font-size="14.00" fill="#377eb8">true</text>
</g>
<!-- _st01234 -->
<!-- _st01234&#45;&gt;st01234 -->
<g id="edge3" class="edge">
<title>_st01234&#45;&gt;st01234</title>
<path fill="none" stroke="black" d="M1339.77,-388.03C1370.58,-385.01 1415.64,-377.36 1450,-358 1481.19,-340.42 1508.59,-309.97 1526.79,-286.37"/>
<polygon fill="black" stroke="black" points="1529.61,-288.43 1532.83,-278.34 1524.02,-284.22 1529.61,-288.43"/>
</g>
<!-- st01234&#45;&gt;st012 -->
<g id="edge38" class="edge">
<title>st01234&#45;&gt;st012</title>
<path fill="none" stroke="black" d="M1543.41,-227.98C1531.37,-186.68 1502.12,-103.84 1450,-54 1400.15,-6.33 1373.48,0 1304.5,0 540,0 540,0 540,0 465.26,0 434.25,-14.52 389,-74 316.74,-168.98 299.72,-315.87 295.72,-382.72"/>
<polygon fill="black" stroke="black" points="292.23,-382.57 295.19,-392.74 299.22,-382.94 292.23,-382.57"/>
<text text-anchor="start" x="899" y="-3.8" font-family="arial" font-size="14.00" fill="#377eb8">(R&#39; || S&#39;)</text>
</g>
<!-- st01234&#45;&gt;st01234 -->
<g id="edge40" class="edge">
<title>st01234&#45;&gt;st01234</title>
<path fill="none" stroke="black" d="M1527.84,-278.18C1526.81,-287.91 1534.53,-296 1551,-296 1561.29,-296 1568.17,-292.84 1571.63,-288.09"/>
<polygon fill="black" stroke="black" points="1575.08,-288.73 1574.16,-278.18 1568.29,-287 1575.08,-288.73"/>
<text text-anchor="start" x="1539" y="-299.8" font-family="arial" font-size="14.00" fill="#377eb8">true</text>
</g>
<!-- st01234&#45;&gt;st02 -->
<g id="edge35" class="edge">
<title>st01234&#45;&gt;st02</title>
<path fill="none" stroke="black" d="M1535.15,-278.18C1517.61,-306.27 1486.2,-351.74 1450,-382 1436.95,-392.91 1403.71,-409.38 1372.29,-423.71"/>
<polygon fill="black" stroke="black" points="1370.73,-420.57 1363.06,-427.88 1373.61,-426.95 1370.73,-420.57"/>
<text text-anchor="start" x="1401" y="-413.8" font-family="arial" font-size="14.00" fill="#377eb8">(R&#39; || S&#39;)</text>
</g>
<!-- st01234&#45;&gt;st0234 -->
<g id="edge37" class="edge">
<title>st01234&#45;&gt;st0234</title>
<path fill="none" stroke="black" d="M1513.58,-227.89C1495.27,-216.42 1472.28,-203.71 1450,-196 1421.55,-186.16 1412.82,-190.12 1383,-186 1274.71,-171.04 1248.1,-161.9 1139,-155 948.86,-142.97 899.58,-151.9 711,-179 680.98,-183.32 671.11,-178.39 644,-192 614.95,-206.59 588.04,-231.84 569.17,-252.35"/>
<polygon fill="black" stroke="black" points="566.42,-250.17 562.34,-259.94 571.63,-254.84 566.42,-250.17"/>
<text text-anchor="start" x="1040.5" y="-158.8" font-family="arial" font-size="14.00" fill="#377eb8">true</text>
</g>
<!-- st024 -->
<g id="node9" class="node">
<title>st024</title>
<polygon fill="none" stroke="black" points="1139,-229 966,-229 966,-179 1139,-179 1139,-229"/>
<text text-anchor="start" x="1035" y="-214.8" font-family="arial" font-weight="bold" font-size="14.00">st024</text>
<text text-anchor="start" x="974" y="-200.8" font-family="arial" font-size="14.00" fill="#984ea3">(!Q &amp;&amp; (!R &amp;&amp; (!S &amp;&amp; !T)))</text>
<text text-anchor="start" x="1040.5" y="-186.8" font-family="arial" font-size="14.00" fill="#ff7f00">true</text>
</g>
<!-- st01234&#45;&gt;st024 -->
<g id="edge36" class="edge">
<title>st01234&#45;&gt;st024</title>
<path fill="none" stroke="black" d="M1467.92,-244.9C1380.37,-236.26 1241.83,-222.59 1149.34,-213.46"/>
<polygon fill="black" stroke="black" points="1149.43,-209.95 1139.13,-212.45 1148.74,-216.92 1149.43,-209.95"/>
<text text-anchor="start" x="1291.5" y="-239.8" font-family="arial" font-size="14.00" fill="#377eb8">true</text>
</g>
<!-- st0124 -->
<g id="node10" class="node">
<title>st0124</title>
<polygon fill="none" stroke="black" points="881,-318 711,-318 711,-268 881,-268 881,-318"/>
<text text-anchor="start" x="774.5" y="-303.8" font-family="arial" font-weight="bold" font-size="14.00">st0124</text>
<text text-anchor="start" x="719" y="-289.8" font-family="arial" font-size="14.00" fill="#984ea3">(Q &amp;&amp; (!R &amp;&amp; (!S &amp;&amp; !T)))</text>
<text text-anchor="start" x="784" y="-275.8" font-family="arial" font-size="14.00" fill="#ff7f00">true</text>
</g>
<!-- st01234&#45;&gt;st0124 -->
<g id="edge39" class="edge">
<title>st01234&#45;&gt;st0124</title>
<path fill="none" stroke="black" d="M1467.88,-254.9C1357.15,-257.55 1172,-262.33 1157,-265 1148.7,-266.48 1147.27,-269.35 1139,-271 1055.54,-287.7 1032.95,-279.64 948,-285 929.68,-286.16 910.1,-287.28 891.31,-288.3"/>
<polygon fill="black" stroke="black" points="891.07,-284.81 881.28,-288.84 891.45,-291.8 891.07,-284.81"/>
<text text-anchor="start" x="1169.5" y="-268.8" font-family="arial" font-size="14.00" fill="#377eb8">true</text>
</g>
<!-- st02&#45;&gt;st0 -->
<g id="edge7" class="edge">
<title>st02&#45;&gt;st0</title>
<path fill="none" stroke="black" d="M1278.6,-478.06C1237.01,-518.83 1146.81,-595 1053.5,-595 292.5,-595 292.5,-595 292.5,-595 249.27,-595 199.99,-590.34 166.04,-586.4"/>
<polygon fill="black" stroke="black" points="166.36,-582.91 156.02,-585.2 165.53,-589.86 166.36,-582.91"/>
<text text-anchor="start" x="662" y="-598.8" font-family="arial" font-size="14.00" fill="#377eb8">R&#39;</text>
</g>
<!-- st02&#45;&gt;st012 -->
<g id="edge10" class="edge">
<title>st02&#45;&gt;st012</title>
<path fill="none" stroke="black" d="M1223.91,-476.09C1175.27,-488.38 1111.28,-501 1053.5,-501 540,-501 540,-501 540,-501 471.32,-501 397.25,-471.48 348.64,-447.65"/>
<polygon fill="black" stroke="black" points="350.08,-444.46 339.57,-443.13 346.95,-450.72 350.08,-444.46"/>
<text text-anchor="start" x="784" y="-504.8" font-family="arial" font-size="14.00" fill="#377eb8">true</text>
</g>
<!-- st02&#45;&gt;st01234 -->
<g id="edge11" class="edge">
<title>st02&#45;&gt;st01234</title>
<path fill="none" stroke="black" d="M1383.32,-453.93C1406.43,-450.96 1430.66,-444.36 1450,-431 1499.71,-396.66 1527.55,-329.14 1540.61,-287.85"/>
<polygon fill="black" stroke="black" points="1543.99,-288.79 1543.55,-278.2 1537.29,-286.75 1543.99,-288.79"/>
<text text-anchor="start" x="1413.5" y="-454.8" font-family="arial" font-size="14.00" fill="#377eb8">true</text>
</g>
<!-- st02&#45;&gt;st02 -->
<g id="edge8" class="edge">
<title>st02&#45;&gt;st02</title>
<path fill="none" stroke="black" d="M1280.71,-478.18C1279.7,-487.91 1287.3,-496 1303.5,-496 1313.63,-496 1320.39,-492.84 1323.79,-488.09"/>
<polygon fill="black" stroke="black" points="1327.24,-488.73 1326.29,-478.18 1320.45,-487.02 1327.24,-488.73"/>
<text text-anchor="start" x="1291.5" y="-499.8" font-family="arial" font-size="14.00" fill="#377eb8">true</text>
</g>
<!-- st02&#45;&gt;st0234 -->
<g id="edge9" class="edge">
<title>st02&#45;&gt;st0234</title>
<path fill="none" stroke="black" d="M1223.79,-442.98C1217.77,-442.29 1211.79,-441.62 1206,-441 1091.53,-428.78 1062.78,-426.89 948,-418 813,-407.54 765.86,-457.03 644,-398 608.74,-380.92 580.11,-345.73 562.26,-319.13"/>
<polygon fill="black" stroke="black" points="565.02,-316.95 556.63,-310.48 559.15,-320.77 565.02,-316.95"/>
<text text-anchor="start" x="911.5" y="-421.8" font-family="arial" font-size="14.00" fill="#377eb8">true</text>
</g>
<!-- st0234&#45;&gt;st012 -->
<g id="edge32" class="edge">
<title>st0234&#45;&gt;st012</title>
<path fill="none" stroke="black" d="M455.84,-286.52C433.07,-289.73 409.17,-295.85 389,-307 356.71,-324.86 330.54,-358.38 314,-383.93"/>
<polygon fill="black" stroke="black" points="310.91,-382.27 308.56,-392.6 316.84,-385.99 310.91,-382.27"/>
<text text-anchor="start" x="389" y="-310.8" font-family="arial" font-size="14.00" fill="#377eb8">(R&#39; || S&#39;)</text>
</g>
<!-- st0234&#45;&gt;st01234 -->
<g id="edge34" class="edge">
<title>st0234&#45;&gt;st01234</title>
<path fill="none" stroke="black" d="M550.08,-259.74C563.4,-222.39 593.6,-152.99 644,-117 699.9,-77.08 726.3,-84 795,-84 795,-84 795,-84 1304.5,-84 1371.22,-84 1394.4,-84.11 1450,-121 1487.13,-145.63 1515.95,-188.81 1532.92,-219.06"/>
<polygon fill="black" stroke="black" points="1529.93,-220.9 1537.8,-228 1536.08,-217.54 1529.93,-220.9"/>
<text text-anchor="start" x="1040.5" y="-87.8" font-family="arial" font-size="14.00" fill="#377eb8">true</text>
</g>
<!-- st0234&#45;&gt;st02 -->
<g id="edge29" class="edge">
<title>st0234&#45;&gt;st02</title>
<path fill="none" stroke="black" d="M553.64,-310.06C569.51,-341.33 600.96,-394.08 644,-422 735.54,-481.39 1056.07,-469.5 1213.66,-459.57"/>
<polygon fill="black" stroke="black" points="1214.05,-463.06 1223.8,-458.92 1213.6,-456.07 1214.05,-463.06"/>
<text text-anchor="start" x="899" y="-471.8" font-family="arial" font-size="14.00" fill="#377eb8">(R&#39; || S&#39;)</text>
</g>
<!-- st0234&#45;&gt;st0234 -->
<g id="edge31" class="edge">
<title>st0234&#45;&gt;st0234</title>
<path fill="none" stroke="black" d="M517.47,-310.18C516.42,-319.91 524.27,-328 541,-328 551.46,-328 558.45,-324.84 561.96,-320.09"/>
<polygon fill="black" stroke="black" points="565.41,-320.73 564.53,-310.18 558.63,-318.98 565.41,-320.73"/>
<text text-anchor="start" x="529" y="-331.8" font-family="arial" font-size="14.00" fill="#377eb8">true</text>
</g>
<!-- st0234&#45;&gt;st024 -->
<g id="edge30" class="edge">
<title>st0234&#45;&gt;st024</title>
<path fill="none" stroke="black" d="M626.35,-262.96C653.28,-256.34 683.29,-249.41 711,-244 793.91,-227.8 815.06,-225.54 899,-216 917.34,-213.92 936.97,-212.08 955.82,-210.51"/>
<polygon fill="black" stroke="black" points="956.22,-213.99 965.9,-209.69 955.65,-207.01 956.22,-213.99"/>
<text text-anchor="start" x="784" y="-247.8" font-family="arial" font-size="14.00" fill="#377eb8">true</text>
</g>
<!-- st0234&#45;&gt;st0124 -->
<g id="edge33" class="edge">
<title>st0234&#45;&gt;st0124</title>
<path fill="none" stroke="black" d="M626.31,-273.94C648.05,-272.44 671.41,-272.01 693,-274 695.55,-274.24 698.13,-274.5 700.73,-274.8"/>
<polygon fill="black" stroke="black" points="700.49,-278.3 710.84,-276.07 701.36,-271.35 700.49,-278.3"/>
<text text-anchor="start" x="656.5" y="-277.8" font-family="arial" font-size="14.00" fill="#377eb8">true</text>
</g>
<!-- st024&#45;&gt;st012 -->
<g id="edge20" class="edge">
<title>st024&#45;&gt;st012</title>
<path fill="none" stroke="black" d="M1033.01,-229C1004.77,-265.04 947.13,-330.48 881,-360 793.89,-398.88 522.54,-411.89 381.54,-416.09"/>
<polygon fill="black" stroke="black" points="381.1,-412.6 371.2,-416.39 381.3,-419.6 381.1,-412.6"/>
<text text-anchor="start" x="644" y="-405.8" font-family="arial" font-size="14.00" fill="#377eb8">(R&#39; || S&#39;)</text>
</g>
<!-- st024&#45;&gt;st01234 -->
<g id="edge22" class="edge">
<title>st024&#45;&gt;st01234</title>
<path fill="none" stroke="black" d="M1139.33,-198.58C1166.41,-197.11 1196.44,-195.73 1224,-195 1294.64,-193.14 1313.3,-183.37 1383,-195 1414.05,-200.18 1420.25,-207.69 1450,-218 1456.25,-220.17 1462.71,-222.41 1469.21,-224.68"/>
<polygon fill="black" stroke="black" points="1468.14,-228.01 1478.73,-228 1470.44,-221.4 1468.14,-228.01"/>
<text text-anchor="start" x="1291.5" y="-198.8" font-family="arial" font-size="14.00" fill="#377eb8">true</text>
</g>
<!-- st024&#45;&gt;st02 -->
<g id="edge17" class="edge">
<title>st024&#45;&gt;st02</title>
<path fill="none" stroke="black" d="M1082.59,-229.27C1102.67,-246.01 1130.45,-267.78 1157,-284 1177.53,-296.54 1191.5,-287.81 1206,-307 1235.86,-346.53 1193.96,-377.61 1224,-417 1225.06,-418.39 1226.19,-419.73 1227.38,-421.03"/>
<polygon fill="black" stroke="black" points="1225.05,-423.64 1234.76,-427.88 1229.82,-418.51 1225.05,-423.64"/>
<text text-anchor="start" x="1157" y="-310.8" font-family="arial" font-size="14.00" fill="#377eb8">(R&#39; || S&#39;)</text>
</g>
<!-- st024&#45;&gt;st0234 -->
<g id="edge19" class="edge">
<title>st024&#45;&gt;st0234</title>
<path fill="none" stroke="black" d="M965.88,-191.19C896.65,-183.12 796.92,-176.66 711,-191 661.75,-199.22 612.69,-229.61 580.22,-253.64"/>
<polygon fill="black" stroke="black" points="577.79,-251.09 571.92,-259.91 582.01,-256.67 577.79,-251.09"/>
<text text-anchor="start" x="784" y="-194.8" font-family="arial" font-size="14.00" fill="#377eb8">true</text>
</g>
<!-- st024&#45;&gt;st024 -->
<g id="edge18" class="edge">
<title>st024&#45;&gt;st024</title>
<path fill="none" stroke="black" d="M1028.59,-229.18C1027.53,-238.91 1035.5,-247 1052.5,-247 1063.12,-247 1070.22,-243.84 1073.79,-239.09"/>
<polygon fill="black" stroke="black" points="1077.24,-239.74 1076.41,-229.18 1070.47,-237.95 1077.24,-239.74"/>
<text text-anchor="start" x="1040.5" y="-250.8" font-family="arial" font-size="14.00" fill="#377eb8">true</text>
</g>
<!-- st024&#45;&gt;st0124 -->
<g id="edge21" class="edge">
<title>st024&#45;&gt;st0124</title>
<path fill="none" stroke="black" d="M1000.56,-229.03C984.02,-236.64 965.43,-244.66 948,-251 929.82,-257.61 910.09,-263.79 891.07,-269.27"/>
<polygon fill="black" stroke="black" points="889.87,-265.97 881.2,-272.07 891.78,-272.71 889.87,-265.97"/>
<text text-anchor="start" x="911.5" y="-269.8" font-family="arial" font-size="14.00" fill="#377eb8">true</text>
</g>
<!-- st0124&#45;&gt;st012 -->
<g id="edge26" class="edge">
<title>st0124&#45;&gt;st012</title>
<path fill="none" stroke="black" d="M779.01,-318.21C761.39,-343.49 730.51,-381.02 693,-398 593.24,-443.15 464.74,-440.17 381.03,-431.28"/>
<polygon fill="black" stroke="black" points="381.37,-427.8 371.05,-430.17 380.6,-434.75 381.37,-427.8"/>
<text text-anchor="start" x="516.5" y="-440.8" font-family="arial" font-size="14.00" fill="#377eb8">(R&#39; || S&#39;)</text>
</g>
<!-- st0124&#45;&gt;st01234 -->
<g id="edge28" class="edge">
<title>st0124&#45;&gt;st01234</title>
<path fill="none" stroke="black" d="M881.14,-311.5C887.17,-312.46 893.16,-313.31 899,-314 1142.46,-342.62 1211.88,-347.27 1450,-289 1458.82,-286.84 1467.94,-284.18 1476.93,-281.3"/>
<polygon fill="black" stroke="black" points="1478.21,-284.56 1486.6,-278.09 1476.01,-277.91 1478.21,-284.56"/>
<text text-anchor="start" x="1169.5" y="-338.8" font-family="arial" font-size="14.00" fill="#377eb8">true</text>
</g>
<!-- st0124&#45;&gt;st02 -->
<g id="edge23" class="edge">
<title>st0124&#45;&gt;st02</title>
<path fill="none" stroke="black" d="M845.35,-318.1C862.02,-325.98 881.02,-334.15 899,-340 1031.45,-383.1 1080.02,-343.59 1206,-403 1215.17,-407.32 1215.34,-411.74 1224,-417 1227.53,-419.14 1231.21,-421.24 1234.97,-423.28"/>
<polygon fill="black" stroke="black" points="1233.36,-426.39 1243.85,-427.93 1236.61,-420.19 1233.36,-426.39"/>
<text text-anchor="start" x="1028" y="-381.8" font-family="arial" font-size="14.00" fill="#377eb8">(R&#39; || S&#39;)</text>
</g>
<!-- st0124&#45;&gt;st0234 -->
<g id="edge25" class="edge">
<title>st0124&#45;&gt;st0234</title>
<path fill="none" stroke="black" d="M710.72,-294.17C688.98,-294.15 665.61,-293.85 644,-293 641.44,-292.9 638.84,-292.79 636.22,-292.66"/>
<polygon fill="black" stroke="black" points="636.19,-289.15 626.02,-292.11 635.82,-296.14 636.19,-289.15"/>
<text text-anchor="start" x="656.5" y="-298.8" font-family="arial" font-size="14.00" fill="#377eb8">true</text>
</g>
<!-- st0124&#45;&gt;st024 -->
<g id="edge24" class="edge">
<title>st0124&#45;&gt;st024</title>
<path fill="none" stroke="black" d="M846.81,-267.8C858.3,-261.42 870.28,-254.3 881,-247 889.61,-241.14 889.57,-236.42 899,-232 916.54,-223.78 936.27,-217.97 955.57,-213.86"/>
<polygon fill="black" stroke="black" points="956.48,-217.25 965.61,-211.87 955.12,-210.39 956.48,-217.25"/>
<text text-anchor="start" x="911.5" y="-235.8" font-family="arial" font-size="14.00" fill="#377eb8">true</text>
</g>
<!-- st0124&#45;&gt;st0124 -->
<g id="edge27" class="edge">
<title>st0124&#45;&gt;st0124</title>
<path fill="none" stroke="black" d="M772.47,-318.18C771.42,-327.91 779.27,-336 796,-336 806.46,-336 813.45,-332.84 816.96,-328.09"/>
<polygon fill="black" stroke="black" points="820.41,-328.73 819.53,-318.18 813.63,-326.98 820.41,-328.73"/>
<text text-anchor="start" x="784" y="-339.8" font-family="arial" font-size="14.00" fill="#377eb8">true</text>
</g>
</g>
</svg>
