<?xml version="1.0" encoding="UTF-8" standalone="no"?>
<!DOCTYPE svg PUBLIC "-//W3C//DTD SVG 1.1//EN"
 "http://www.w3.org/Graphics/SVG/1.1/DTD/svg11.dtd">
<!-- Generated by graphviz version 2.40.1 (20161225.0304)
 -->
<!-- Title: G Pages: 1 -->
<svg width="1691pt" height="664pt"
 viewBox="0.00 0.00 1691.00 664.00" xmlns="http://www.w3.org/2000/svg" xmlns:xlink="http://www.w3.org/1999/xlink">
<g id="graph0" class="graph" transform="scale(1 1) rotate(0) translate(4 660)">
<title>G</title>
<polygon fill="#ffffff" stroke="transparent" points="-4,4 -4,-660 1687,-660 1687,4 -4,4"/>
<!-- _st0 -->
<!-- st0 -->
<g id="node2" class="node">
<title>st0</title>
<polygon fill="none" stroke="#000000" points="157,-606 91,-606 91,-556 157,-556 157,-606"/>
<text text-anchor="start" x="113" y="-591.8" font-family="arial" font-weight="bold" font-size="14.00" fill="#000000">st0</text>
<text text-anchor="start" x="99" y="-577.8" font-family="arial" font-size="14.00" fill="#984ea3">(R || !Q)</text>
<text text-anchor="start" x="111.5" y="-563.8" font-family="arial" font-size="14.00" fill="#ff7f00">true</text>
</g>
<!-- _st0&#45;&gt;st0 -->
<g id="edge1" class="edge">
<title>_st0&#45;&gt;st0</title>
<path fill="none" stroke="#000000" d="M54.0199,-581C62.3287,-581 71.6915,-581 80.8018,-581"/>
<polygon fill="#000000" stroke="#000000" points="80.9106,-584.5001 90.9106,-581 80.9105,-577.5001 80.9106,-584.5001"/>
</g>
<!-- st0&#45;&gt;st0 -->
<g id="edge4" class="edge">
<title>st0&#45;&gt;st0</title>
<path fill="none" stroke="#000000" d="M114.6616,-606.1756C114.2466,-615.9095 117.3594,-624 124,-624 128.0466,-624 130.7832,-620.9957 132.2098,-616.446"/>
<polygon fill="#000000" stroke="#000000" points="135.7251,-616.4981 133.3384,-606.1756 128.767,-615.7335 135.7251,-616.4981"/>
<text text-anchor="start" x="111.5" y="-627.8" font-family="arial" font-size="14.00" fill="#377eb8">true</text>
</g>
<!-- st012 -->
<g id="node4" class="node">
<title>st012</title>
<polygon fill="none" stroke="#000000" points="379,-443 218,-443 218,-393 379,-393 379,-443"/>
<text text-anchor="start" x="279.5" y="-428.8" font-family="arial" font-weight="bold" font-size="14.00" fill="#000000">st012</text>
<text text-anchor="start" x="226" y="-414.8" font-family="arial" font-size="14.00" fill="#984ea3">(Q &amp;&amp; (!R &amp;&amp; (S || !T)))</text>
<text text-anchor="start" x="286" y="-400.8" font-family="arial" font-size="14.00" fill="#ff7f00">true</text>
</g>
<!-- st0&#45;&gt;st012 -->
<g id="edge5" class="edge">
<title>st0&#45;&gt;st012</title>
<path fill="none" stroke="#000000" d="M133.9813,-555.7927C142.6249,-536.3516 156.6296,-509.7096 175,-491 191.7204,-473.9709 213.2262,-459.4624 233.5926,-447.9735"/>
<polygon fill="#000000" stroke="#000000" points="235.4507,-450.9465 242.5401,-443.073 232.0881,-444.807 235.4507,-450.9465"/>
<text text-anchor="start" x="175" y="-494.8" font-family="arial" font-size="14.00" fill="#377eb8">true</text>
</g>
<!-- st01234 -->
<g id="node6" class="node">
<title>st01234</title>
<polygon fill="none" stroke="#000000" points="1683,-278 1510,-278 1510,-228 1683,-228 1683,-278"/>
<text text-anchor="start" x="1569" y="-263.8" font-family="arial" font-weight="bold" font-size="14.00" fill="#000000">st01234</text>
<text text-anchor="start" x="1518" y="-249.8" font-family="arial" font-size="14.00" fill="#984ea3">(Q &amp;&amp; (!R &amp;&amp; (!S &amp;&amp; T)))</text>
<text text-anchor="start" x="1584" y="-235.8" font-family="arial" font-size="14.00" fill="#ff7f00">true</text>
</g>
<!-- st0&#45;&gt;st01234 -->
<g id="edge6" class="edge">
<title>st0&#45;&gt;st01234</title>
<path fill="none" stroke="#000000" d="M157.2676,-599.8198C191.5468,-617.4158 247.0823,-641 298.5,-641 298.5,-641 298.5,-641 1341,-641 1509.1129,-641 1572.8476,-383.7837 1590.7276,-288.2043"/>
<polygon fill="#000000" stroke="#000000" points="1594.2087,-288.6227 1592.5481,-278.1588 1587.3209,-287.3743 1594.2087,-288.6227"/>
<text text-anchor="start" x="804.5" y="-644.8" font-family="arial" font-size="14.00" fill="#377eb8">true</text>
</g>
<!-- _st012 -->
<!-- _st012&#45;&gt;st012 -->
<g id="edge2" class="edge">
<title>_st012&#45;&gt;st012</title>
<path fill="none" stroke="#000000" d="M154.7954,-418C169.7241,-418 188.517,-418 207.5454,-418"/>
<polygon fill="#000000" stroke="#000000" points="207.8067,-421.5001 217.8066,-418 207.8066,-414.5001 207.8067,-421.5001"/>
</g>
<!-- st012&#45;&gt;st0 -->
<g id="edge12" class="edge">
<title>st012&#45;&gt;st0</title>
<path fill="none" stroke="#000000" d="M271.5862,-443.1401C241.2154,-471.5094 191.7319,-517.7318 158.535,-548.7409"/>
<polygon fill="#000000" stroke="#000000" points="155.8018,-546.5045 150.8832,-555.8885 160.5802,-551.62 155.8018,-546.5045"/>
<text text-anchor="start" x="180.5" y="-535.8" font-family="arial" font-size="14.00" fill="#377eb8">R&#39;</text>
</g>
<!-- st012&#45;&gt;st012 -->
<g id="edge15" class="edge">
<title>st012&#45;&gt;st012</title>
<path fill="none" stroke="#000000" d="M277.9556,-443.1756C277.0425,-452.9095 283.8906,-461 298.5,-461 307.6309,-461 313.73,-457.8397 316.7974,-453.093"/>
<polygon fill="#000000" stroke="#000000" points="320.2481,-453.7019 319.0444,-443.1756 313.4211,-452.155 320.2481,-453.7019"/>
<text text-anchor="start" x="286" y="-464.8" font-family="arial" font-size="14.00" fill="#377eb8">true</text>
</g>
<!-- st012&#45;&gt;st01234 -->
<g id="edge16" class="edge">
<title>st012&#45;&gt;st01234</title>
<path fill="none" stroke="#000000" d="M302.7421,-392.7729C318.5927,-307.9015 382.483,-38 554,-38 554,-38 554,-38 1341,-38 1412.125,-38 1436.1506,-46.959 1492,-91 1535.1835,-125.053 1565.9839,-182.1331 1582.5066,-218.6505"/>
<polygon fill="#000000" stroke="#000000" points="1579.3554,-220.1789 1586.5928,-227.9166 1585.7603,-217.3545 1579.3554,-220.1789"/>
<text text-anchor="start" x="936" y="-41.8" font-family="arial" font-size="14.00" fill="#377eb8">true</text>
</g>
<!-- st02 -->
<g id="node7" class="node">
<title>st02</title>
<polygon fill="none" stroke="#000000" points="1423,-478 1259,-478 1259,-428 1423,-428 1423,-478"/>
<text text-anchor="start" x="1326" y="-463.8" font-family="arial" font-weight="bold" font-size="14.00" fill="#000000">st02</text>
<text text-anchor="start" x="1267" y="-449.8" font-family="arial" font-size="14.00" fill="#984ea3">(!Q &amp;&amp; (!R &amp;&amp; (S || !T)))</text>
<text text-anchor="start" x="1328.5" y="-435.8" font-family="arial" font-size="14.00" fill="#ff7f00">true</text>
</g>
<!-- st012&#45;&gt;st02 -->
<g id="edge13" class="edge">
<title>st012&#45;&gt;st02</title>
<path fill="none" stroke="#000000" d="M325.1748,-443.2044C369.1708,-482.0209 461.3372,-552 554,-552 554,-552 554,-552 1082,-552 1159.8809,-552 1242.7672,-512.4599 1293.2271,-483.3566"/>
<polygon fill="#000000" stroke="#000000" points="1295.101,-486.3152 1301.9574,-478.238 1291.5605,-480.2765 1295.101,-486.3152"/>
<text text-anchor="start" x="804.5" y="-555.8" font-family="arial" font-size="14.00" fill="#377eb8">true</text>
</g>
<!-- st0234 -->
<g id="node8" class="node">
<title>st0234</title>
<polygon fill="none" stroke="#000000" points="642,-310 466,-310 466,-260 642,-260 642,-310"/>
<text text-anchor="start" x="531" y="-295.8" font-family="arial" font-weight="bold" font-size="14.00" fill="#000000">st0234</text>
<text text-anchor="start" x="474" y="-281.8" font-family="arial" font-size="14.00" fill="#984ea3">(!Q &amp;&amp; (!R &amp;&amp; (!S &amp;&amp; T)))</text>
<text text-anchor="start" x="541.5" y="-267.8" font-family="arial" font-size="14.00" fill="#ff7f00">true</text>
</g>
<!-- st012&#45;&gt;st0234 -->
<g id="edge14" class="edge">
<title>st012&#45;&gt;st0234</title>
<path fill="none" stroke="#000000" d="M331.1126,-392.8853C349.7813,-379.1838 374.0022,-362.5153 397,-350 421.5852,-336.6209 449.5123,-324.2305 474.9271,-313.9338"/>
<polygon fill="#000000" stroke="#000000" points="476.5471,-317.0555 484.5324,-310.0923 473.9477,-310.556 476.5471,-317.0555"/>
<text text-anchor="start" x="410" y="-353.8" font-family="arial" font-size="14.00" fill="#377eb8">true</text>
</g>
<!-- _st01234 -->
<!-- _st01234&#45;&gt;st01234 -->
<g id="edge3" class="edge">
<title>_st01234&#45;&gt;st01234</title>
<path fill="none" stroke="#000000" d="M1379.7053,-387.9036C1411.5286,-384.7928 1456.9273,-377.0833 1492,-358 1524.1314,-340.5171 1552.816,-310.0496 1571.9655,-286.4223"/>
<polygon fill="#000000" stroke="#000000" points="1574.8675,-288.3954 1578.3313,-278.3827 1569.3796,-284.0499 1574.8675,-288.3954"/>
</g>
<!-- st01234&#45;&gt;st012 -->
<g id="edge38" class="edge">
<title>st01234&#45;&gt;st012</title>
<path fill="none" stroke="#000000" d="M1589.3644,-227.9159C1576.4102,-186.5137 1545.315,-103.5377 1492,-54 1439.7864,-5.4857 1412.2734,0 1341,0 554,0 554,0 554,0 475.2781,0 443.0012,-18.1171 397,-82 329.0301,-176.3913 307.6383,-317.3946 301.1685,-382.5945"/>
<polygon fill="#000000" stroke="#000000" points="297.6644,-382.476 300.2212,-392.7577 304.6342,-383.1257 297.6644,-382.476"/>
<text text-anchor="start" x="923" y="-3.8" font-family="arial" font-size="14.00" fill="#377eb8">(R&#39; || S&#39;)</text>
</g>
<!-- st01234&#45;&gt;st01234 -->
<g id="edge40" class="edge">
<title>st01234&#45;&gt;st01234</title>
<path fill="none" stroke="#000000" d="M1572.2202,-278.1756C1571.1411,-287.9095 1579.2344,-296 1596.5,-296 1607.291,-296 1614.4991,-292.8397 1618.1242,-288.093"/>
<polygon fill="#000000" stroke="#000000" points="1621.574,-288.7407 1620.7798,-278.1756 1614.8122,-286.93 1621.574,-288.7407"/>
<text text-anchor="start" x="1584" y="-299.8" font-family="arial" font-size="14.00" fill="#377eb8">true</text>
</g>
<!-- st01234&#45;&gt;st02 -->
<g id="edge35" class="edge">
<title>st01234&#45;&gt;st02</title>
<path fill="none" stroke="#000000" d="M1580.799,-278.2167C1562.3023,-306.3412 1529.3244,-351.8367 1492,-382 1478.3631,-393.0206 1443.8604,-409.4939 1411.274,-423.7991"/>
<polygon fill="#000000" stroke="#000000" points="1409.4746,-420.765 1401.7019,-427.9647 1412.2679,-427.1836 1409.4746,-420.765"/>
<text text-anchor="start" x="1441" y="-413.8" font-family="arial" font-size="14.00" fill="#377eb8">(R&#39; || S&#39;)</text>
</g>
<!-- st01234&#45;&gt;st0234 -->
<g id="edge37" class="edge">
<title>st01234&#45;&gt;st0234</title>
<path fill="none" stroke="#000000" d="M1559.3814,-227.8803C1540.0889,-216.0209 1515.6494,-202.7899 1492,-195 1462.626,-185.3245 1453.6801,-189.8954 1423,-186 1311.4921,-171.842 1284.1911,-161.9019 1172,-155 975.1944,-142.8927 924.2864,-151.7561 729,-179 698.0931,-183.3117 688.056,-178.3367 660,-192 630.0075,-206.6063 601.9113,-232.0128 582.1904,-252.5835"/>
<polygon fill="#000000" stroke="#000000" points="579.6032,-250.2258 575.3158,-259.9144 584.7093,-255.0141 579.6032,-250.2258"/>
<text text-anchor="start" x="1069.5" y="-158.8" font-family="arial" font-size="14.00" fill="#377eb8">true</text>
</g>
<!-- st024 -->
<g id="node9" class="node">
<title>st024</title>
<polygon fill="none" stroke="#000000" points="1172,-229 992,-229 992,-179 1172,-179 1172,-229"/>
<text text-anchor="start" x="1063" y="-214.8" font-family="arial" font-weight="bold" font-size="14.00" fill="#000000">st024</text>
<text text-anchor="start" x="1000" y="-200.8" font-family="arial" font-size="14.00" fill="#984ea3">(!Q &amp;&amp; (!R &amp;&amp; (!S &amp;&amp; !T)))</text>
<text text-anchor="start" x="1069.5" y="-186.8" font-family="arial" font-size="14.00" fill="#ff7f00">true</text>
</g>
<!-- st01234&#45;&gt;st024 -->
<g id="edge36" class="edge">
<title>st01234&#45;&gt;st024</title>
<path fill="none" stroke="#000000" d="M1509.8288,-244.7456C1419.3768,-236.1311 1277.7048,-222.6386 1182.4326,-213.565"/>
<polygon fill="#000000" stroke="#000000" points="1182.4946,-210.0552 1172.2078,-212.5912 1181.8309,-217.0236 1182.4946,-210.0552"/>
<text text-anchor="start" x="1328.5" y="-239.8" font-family="arial" font-size="14.00" fill="#377eb8">true</text>
</g>
<!-- st0124 -->
<g id="node10" class="node">
<title>st0124</title>
<polygon fill="none" stroke="#000000" points="905,-318 729,-318 729,-268 905,-268 905,-318"/>
<text text-anchor="start" x="794" y="-303.8" font-family="arial" font-weight="bold" font-size="14.00" fill="#000000">st0124</text>
<text text-anchor="start" x="737" y="-289.8" font-family="arial" font-size="14.00" fill="#984ea3">(Q &amp;&amp; (!R &amp;&amp; (!S &amp;&amp; !T)))</text>
<text text-anchor="start" x="804.5" y="-275.8" font-family="arial" font-size="14.00" fill="#ff7f00">true</text>
</g>
<!-- st01234&#45;&gt;st0124 -->
<g id="edge39" class="edge">
<title>st01234&#45;&gt;st0124</title>
<path fill="none" stroke="#000000" d="M1509.6244,-254.9209C1394.8831,-257.5524 1205.4242,-262.2628 1190,-265 1181.697,-266.4734 1180.271,-269.3563 1172,-271 1085.4723,-288.1953 1062.057,-279.6439 974,-285 954.9775,-286.1571 934.6513,-287.2781 915.148,-288.2967"/>
<polygon fill="#000000" stroke="#000000" points="914.8412,-284.8078 905.0353,-288.8197 915.2028,-291.7985 914.8412,-284.8078"/>
<text text-anchor="start" x="1203" y="-268.8" font-family="arial" font-size="14.00" fill="#377eb8">true</text>
</g>
<!-- st02&#45;&gt;st0 -->
<g id="edge7" class="edge">
<title>st02&#45;&gt;st0</title>
<path fill="none" stroke="#000000" d="M1315.9446,-478.0599C1272.3937,-518.8253 1178.1499,-595 1082,-595 298.5,-595 298.5,-595 298.5,-595 253.5494,-595 202.2936,-590.3271 167.0216,-586.3807"/>
<polygon fill="#000000" stroke="#000000" points="167.3987,-582.9011 157.0649,-585.2385 166.6008,-589.8555 167.3987,-582.9011"/>
<text text-anchor="start" x="678.5" y="-598.8" font-family="arial" font-size="14.00" fill="#377eb8">R&#39;</text>
</g>
<!-- st02&#45;&gt;st012 -->
<g id="edge10" class="edge">
<title>st02&#45;&gt;st012</title>
<path fill="none" stroke="#000000" d="M1258.9011,-476.1564C1208.3242,-488.4309 1141.9076,-501 1082,-501 554,-501 554,-501 554,-501 482.6516,-501 405.3377,-471.3613 354.6659,-447.5064"/>
<polygon fill="#000000" stroke="#000000" points="356.0528,-444.29 345.5219,-443.128 353.0296,-450.6036 356.0528,-444.29"/>
<text text-anchor="start" x="804.5" y="-504.8" font-family="arial" font-size="14.00" fill="#377eb8">true</text>
</g>
<!-- st02&#45;&gt;st01234 -->
<g id="edge11" class="edge">
<title>st02&#45;&gt;st01234</title>
<path fill="none" stroke="#000000" d="M1423.0067,-454.1857C1446.8638,-451.2021 1471.8889,-444.5327 1492,-431 1542.6745,-396.9012 1572.1948,-329.3018 1586.2663,-287.9275"/>
<polygon fill="#000000" stroke="#000000" points="1589.6456,-288.8544 1589.435,-278.2616 1582.9939,-286.6737 1589.6456,-288.8544"/>
<text text-anchor="start" x="1454" y="-454.8" font-family="arial" font-size="14.00" fill="#377eb8">true</text>
</g>
<!-- st02&#45;&gt;st02 -->
<g id="edge8" class="edge">
<title>st02&#45;&gt;st02</title>
<path fill="none" stroke="#000000" d="M1317.8408,-478.1756C1316.8115,-487.9095 1324.5313,-496 1341,-496 1351.293,-496 1358.1684,-492.8397 1361.6261,-488.093"/>
<polygon fill="#000000" stroke="#000000" points="1365.0755,-488.7308 1364.1592,-478.1756 1358.2933,-486.9984 1365.0755,-488.7308"/>
<text text-anchor="start" x="1328.5" y="-499.8" font-family="arial" font-size="14.00" fill="#377eb8">true</text>
</g>
<!-- st02&#45;&gt;st0234 -->
<g id="edge9" class="edge">
<title>st02&#45;&gt;st0234</title>
<path fill="none" stroke="#000000" d="M1258.894,-442.9233C1252.8411,-442.2492 1246.8268,-441.6004 1241,-441 1122.5212,-428.7917 1092.7734,-426.8972 974,-418 834.5523,-407.5541 786.4904,-457.6233 660,-398 623.5548,-380.821 593.4689,-345.0589 574.7777,-318.3415"/>
<polygon fill="#000000" stroke="#000000" points="577.6349,-316.3189 569.1159,-310.0198 571.8474,-320.2565 577.6349,-316.3189"/>
<text text-anchor="start" x="936" y="-421.8" font-family="arial" font-size="14.00" fill="#377eb8">true</text>
</g>
<!-- st0234&#45;&gt;st012 -->
<g id="edge32" class="edge">
<title>st0234&#45;&gt;st012</title>
<path fill="none" stroke="#000000" d="M465.8481,-286.4244C442.4245,-289.6639 417.8613,-295.8163 397,-307 363.8911,-324.7496 336.5437,-358.289 319.1354,-383.8734"/>
<polygon fill="#000000" stroke="#000000" points="315.9933,-382.2799 313.3992,-392.5523 321.833,-386.1397 315.9933,-382.2799"/>
<text text-anchor="start" x="397" y="-310.8" font-family="arial" font-size="14.00" fill="#377eb8">(R&#39; || S&#39;)</text>
</g>
<!-- st0234&#45;&gt;st01234 -->
<g id="edge34" class="edge">
<title>st0234&#45;&gt;st01234</title>
<path fill="none" stroke="#000000" d="M562.5325,-259.9844C576.6309,-222.6273 608.4657,-152.8308 660,-117 718.5428,-76.2963 745.6975,-84 817,-84 817,-84 817,-84 1341,-84 1410.0965,-84 1433.8548,-83.671 1492,-121 1530.1164,-145.4706 1560.379,-188.6855 1578.3288,-218.984"/>
<polygon fill="#000000" stroke="#000000" points="1575.4673,-221.0278 1583.4992,-227.9372 1581.5292,-217.5271 1575.4673,-221.0278"/>
<text text-anchor="start" x="1069.5" y="-87.8" font-family="arial" font-size="14.00" fill="#377eb8">true</text>
</g>
<!-- st0234&#45;&gt;st02 -->
<g id="edge29" class="edge">
<title>st0234&#45;&gt;st02</title>
<path fill="none" stroke="#000000" d="M566.3294,-310.1062C583.0662,-341.4243 616.0086,-394.2248 660,-422 755.3261,-482.1868 1085.9168,-469.9616 1248.8189,-459.768"/>
<polygon fill="#000000" stroke="#000000" points="1249.0694,-463.2593 1258.8269,-459.1311 1248.6247,-456.2734 1249.0694,-463.2593"/>
<text text-anchor="start" x="923" y="-472.8" font-family="arial" font-size="14.00" fill="#377eb8">(R&#39; || S&#39;)</text>
</g>
<!-- st0234&#45;&gt;st0234 -->
<g id="edge31" class="edge">
<title>st0234&#45;&gt;st0234</title>
<path fill="none" stroke="#000000" d="M529.7202,-310.1756C528.6411,-319.9095 536.7344,-328 554,-328 564.791,-328 571.9991,-324.8397 575.6242,-320.093"/>
<polygon fill="#000000" stroke="#000000" points="579.074,-320.7407 578.2798,-310.1756 572.3122,-318.93 579.074,-320.7407"/>
<text text-anchor="start" x="541.5" y="-331.8" font-family="arial" font-size="14.00" fill="#377eb8">true</text>
</g>
<!-- st0234&#45;&gt;st024 -->
<g id="edge30" class="edge">
<title>st0234&#45;&gt;st024</title>
<path fill="none" stroke="#000000" d="M642.2607,-262.7479C669.9237,-256.1979 700.6375,-249.3588 729,-244 814.6012,-227.8266 836.4045,-225.5058 923,-216 941.9805,-213.9165 962.2759,-212.0845 981.7996,-210.5199"/>
<polygon fill="#000000" stroke="#000000" points="982.2319,-213.9968 991.9279,-209.7261 981.6849,-207.0182 982.2319,-213.9968"/>
<text text-anchor="start" x="804.5" y="-247.8" font-family="arial" font-size="14.00" fill="#377eb8">true</text>
</g>
<!-- st0234&#45;&gt;st0124 -->
<g id="edge33" class="edge">
<title>st0234&#45;&gt;st0124</title>
<path fill="none" stroke="#000000" d="M642.0644,-273.9127C664.554,-272.4311 688.6826,-272.0157 711,-274 713.5664,-274.2282 716.1637,-274.4869 718.7811,-274.7721"/>
<polygon fill="#000000" stroke="#000000" points="718.6073,-278.2763 728.9537,-275.9956 719.4432,-271.3264 718.6073,-278.2763"/>
<text text-anchor="start" x="673" y="-277.8" font-family="arial" font-size="14.00" fill="#377eb8">true</text>
</g>
<!-- st024&#45;&gt;st012 -->
<g id="edge20" class="edge">
<title>st024&#45;&gt;st012</title>
<path fill="none" stroke="#000000" d="M1062.5969,-229.0325C1033.0077,-265.1085 972.8396,-330.6051 905,-360 814.7208,-399.118 535.3651,-412.0113 389.4125,-416.1369"/>
<polygon fill="#000000" stroke="#000000" points="389.039,-412.6458 379.1389,-416.4191 389.2312,-419.6431 389.039,-412.6458"/>
<text text-anchor="start" x="660" y="-405.8" font-family="arial" font-size="14.00" fill="#377eb8">(R&#39; || S&#39;)</text>
</g>
<!-- st024&#45;&gt;st01234 -->
<g id="edge22" class="edge">
<title>st024&#45;&gt;st01234</title>
<path fill="none" stroke="#000000" d="M1172.0107,-198.5368C1199.8833,-197.0835 1230.7018,-195.719 1259,-195 1331.8654,-193.1487 1351.0523,-183.3245 1423,-195 1454.9081,-200.178 1461.3407,-207.7558 1492,-218 1498.4619,-220.1591 1505.1481,-222.3948 1511.8711,-224.6439"/>
<polygon fill="#000000" stroke="#000000" points="1511.1317,-228.0872 1521.7255,-227.9414 1513.353,-221.449 1511.1317,-228.0872"/>
<text text-anchor="start" x="1328.5" y="-198.8" font-family="arial" font-size="14.00" fill="#377eb8">true</text>
</g>
<!-- st024&#45;&gt;st02 -->
<g id="edge17" class="edge">
<title>st024&#45;&gt;st02</title>
<path fill="none" stroke="#000000" d="M1112.441,-229.3014C1133.4366,-246.0488 1162.4283,-267.8227 1190,-284 1211.4461,-296.5832 1225.8599,-287.2757 1241,-307 1271.164,-346.2971 1228.6403,-377.8539 1259,-417 1260.0809,-418.3937 1261.2269,-419.7345 1262.4303,-421.0245"/>
<polygon fill="#000000" stroke="#000000" points="1260.1586,-423.6901 1269.8942,-427.8697 1264.89,-418.5312 1260.1586,-423.6901"/>
<text text-anchor="start" x="1190" y="-310.8" font-family="arial" font-size="14.00" fill="#377eb8">(R&#39; || S&#39;)</text>
</g>
<!-- st024&#45;&gt;st0234 -->
<g id="edge19" class="edge">
<title>st024&#45;&gt;st0234</title>
<path fill="none" stroke="#000000" d="M991.8062,-190.9592C920.1179,-182.9245 817.5315,-176.6333 729,-191 678.1602,-199.2502 627.0807,-229.865 593.3432,-253.9429"/>
<polygon fill="#000000" stroke="#000000" points="591.1759,-251.1914 585.1503,-259.906 595.2952,-256.8511 591.1759,-251.1914"/>
<text text-anchor="start" x="804.5" y="-194.8" font-family="arial" font-size="14.00" fill="#377eb8">true</text>
</g>
<!-- st024&#45;&gt;st024 -->
<g id="edge18" class="edge">
<title>st024&#45;&gt;st024</title>
<path fill="none" stroke="#000000" d="M1057.3467,-229.1756C1056.251,-238.9095 1064.4688,-247 1082,-247 1092.957,-247 1100.276,-243.8397 1103.9569,-239.093"/>
<polygon fill="#000000" stroke="#000000" points="1107.407,-239.7436 1106.6533,-229.1756 1100.6522,-237.907 1107.407,-239.7436"/>
<text text-anchor="start" x="1069.5" y="-250.8" font-family="arial" font-size="14.00" fill="#377eb8">true</text>
</g>
<!-- st024&#45;&gt;st0124 -->
<g id="edge21" class="edge">
<title>st024&#45;&gt;st0124</title>
<path fill="none" stroke="#000000" d="M1028.7917,-229.0308C1011.5289,-236.6437 992.1472,-244.6636 974,-251 955.1997,-257.5644 934.8328,-263.7015 915.1921,-269.148"/>
<polygon fill="#000000" stroke="#000000" points="914.0342,-265.836 905.3104,-271.8481 915.8793,-272.5885 914.0342,-265.836"/>
<text text-anchor="start" x="936" y="-269.8" font-family="arial" font-size="14.00" fill="#377eb8">true</text>
</g>
<!-- st0124&#45;&gt;st012 -->
<g id="edge26" class="edge">
<title>st0124&#45;&gt;st012</title>
<path fill="none" stroke="#000000" d="M800.156,-318.2375C781.6541,-343.5403 749.4084,-381.0982 711,-398 607.7887,-443.4186 475.7057,-440.5801 389.1798,-431.6357"/>
<polygon fill="#000000" stroke="#000000" points="389.4395,-428.1434 379.121,-430.5471 388.6864,-435.1028 389.4395,-428.1434"/>
<text text-anchor="start" x="528.5" y="-440.8" font-family="arial" font-size="14.00" fill="#377eb8">(R&#39; || S&#39;)</text>
</g>
<!-- st0124&#45;&gt;st01234 -->
<g id="edge28" class="edge">
<title>st0124&#45;&gt;st01234</title>
<path fill="none" stroke="#000000" d="M905.0327,-311.5902C911.0962,-312.5157 917.128,-313.335 923,-314 1174.5251,-342.4846 1245.605,-347.0153 1492,-289 1501.2879,-286.8131 1510.9105,-284.1175 1520.3872,-281.1933"/>
<polygon fill="#000000" stroke="#000000" points="1521.7215,-284.4417 1530.19,-278.0749 1519.5995,-277.7711 1521.7215,-284.4417"/>
<text text-anchor="start" x="1203" y="-338.8" font-family="arial" font-size="14.00" fill="#377eb8">true</text>
</g>
<!-- st0124&#45;&gt;st02 -->
<g id="edge23" class="edge">
<title>st0124&#45;&gt;st02</title>
<path fill="none" stroke="#000000" d="M867.3152,-318.1081C884.6371,-325.994 904.368,-334.1569 923,-340 1060.4783,-383.114 1110.4933,-341.9499 1241,-403 1250.1801,-407.2944 1250.2935,-411.8122 1259,-417 1262.6062,-419.1488 1266.3639,-421.2448 1270.201,-423.2752"/>
<polygon fill="#000000" stroke="#000000" points="1268.7645,-426.4713 1279.2643,-427.8878 1271.9396,-420.2327 1268.7645,-426.4713"/>
<text text-anchor="start" x="1056.5" y="-381.8" font-family="arial" font-size="14.00" fill="#377eb8">(R&#39; || S&#39;)</text>
</g>
<!-- st0124&#45;&gt;st0234 -->
<g id="edge25" class="edge">
<title>st0124&#45;&gt;st0234</title>
<path fill="none" stroke="#000000" d="M728.9597,-294.1664C706.4696,-294.1441 682.3348,-293.8416 660,-293 657.4585,-292.9042 654.8834,-292.7956 652.2857,-292.6757"/>
<polygon fill="#000000" stroke="#000000" points="652.3425,-289.1742 642.1775,-292.1614 651.9867,-296.1651 652.3425,-289.1742"/>
<text text-anchor="start" x="673" y="-298.8" font-family="arial" font-size="14.00" fill="#377eb8">true</text>
</g>
<!-- st0124&#45;&gt;st024 -->
<g id="edge24" class="edge">
<title>st0124&#45;&gt;st024</title>
<path fill="none" stroke="#000000" d="M869.7079,-267.7842C881.5953,-261.4616 893.9567,-254.3654 905,-247 913.6635,-241.2218 913.5541,-236.3839 923,-232 941.1609,-223.5713 961.5663,-217.6664 981.5497,-213.5329"/>
<polygon fill="#000000" stroke="#000000" points="982.4746,-216.9191 991.6293,-211.586 981.1469,-210.0461 982.4746,-216.9191"/>
<text text-anchor="start" x="936" y="-235.8" font-family="arial" font-size="14.00" fill="#377eb8">true</text>
</g>
<!-- st0124&#45;&gt;st0124 -->
<g id="edge27" class="edge">
<title>st0124&#45;&gt;st0124</title>
<path fill="none" stroke="#000000" d="M792.7202,-318.1756C791.6411,-327.9095 799.7344,-336 817,-336 827.791,-336 834.9991,-332.8397 838.6242,-328.093"/>
<polygon fill="#000000" stroke="#000000" points="842.074,-328.7407 841.2798,-318.1756 835.3122,-326.93 842.074,-328.7407"/>
<text text-anchor="start" x="804.5" y="-339.8" font-family="arial" font-size="14.00" fill="#377eb8">true</text>
</g>
</g>
</svg>
