<?xml version="1.0" encoding="UTF-8" standalone="no"?>
<!DOCTYPE svg PUBLIC "-//W3C//DTD SVG 1.1//EN"
 "http://www.w3.org/Graphics/SVG/1.1/DTD/svg11.dtd">
<!-- Generated by graphviz version 2.43.0 (0)
 -->
<!-- Title: G Pages: 1 -->
<svg width="2394pt" height="985pt"
 viewBox="0.00 0.00 2394.00 985.00" xmlns="http://www.w3.org/2000/svg" xmlns:xlink="http://www.w3.org/1999/xlink">
<g id="graph0" class="graph" transform="scale(1 1) rotate(0) translate(4 981)">
<title>G</title>
<polygon fill="white" stroke="transparent" points="-4,4 -4,-981 2390,-981 2390,4 -4,4"/>
<!-- _ID_106_ct0_st0 -->
<!-- ID_106_ct0_st0 -->
<g id="node2" class="node">
<title>ID_106_ct0_st0</title>
<polygon fill="none" stroke="black" points="276,-669 162,-669 162,-619 276,-619 276,-669"/>
<text text-anchor="start" x="170" y="-654.8" font-family="arial" font-weight="bold" font-size="14.00">ID_106_ct0_st0</text>
<text text-anchor="start" x="212.5" y="-640.8" font-family="arial" font-size="14.00" fill="#984ea3">!P</text>
<text text-anchor="start" x="207" y="-626.8" font-family="arial" font-size="14.00" fill="#ff7f00">true</text>
</g>
<!-- _ID_106_ct0_st0&#45;&gt;ID_106_ct0_st0 -->
<g id="edge1" class="edge">
<title>_ID_106_ct0_st0&#45;&gt;ID_106_ct0_st0</title>
<path fill="none" stroke="black" d="M119.15,-644C129.75,-644 140.88,-644 151.68,-644"/>
<polygon fill="black" stroke="black" points="151.92,-647.5 161.92,-644 151.92,-640.5 151.92,-647.5"/>
</g>
<!-- ID_106_ct0_st0&#45;&gt;ID_106_ct0_st0 -->
<g id="edge5" class="edge">
<title>ID_106_ct0_st0&#45;&gt;ID_106_ct0_st0</title>
<path fill="none" stroke="black" d="M204.06,-669.18C203.39,-678.91 208.38,-687 219,-687 225.64,-687 230.08,-683.84 232.31,-679.09"/>
<polygon fill="black" stroke="black" points="235.77,-679.61 233.94,-669.18 228.86,-678.47 235.77,-679.61"/>
<text text-anchor="start" x="207" y="-690.8" font-family="arial" font-size="14.00" fill="#377eb8">true</text>
</g>
<!-- ID_106_ct0_st01 -->
<g id="node4" class="node">
<title>ID_106_ct0_st01</title>
<polygon fill="none" stroke="black" points="464,-436 342,-436 342,-386 464,-386 464,-436"/>
<text text-anchor="start" x="350" y="-421.8" font-family="arial" font-weight="bold" font-size="14.00">ID_106_ct0_st01</text>
<text text-anchor="start" x="375.5" y="-407.8" font-family="arial" font-size="14.00" fill="#984ea3">(P &amp;&amp; Q)</text>
<text text-anchor="start" x="391" y="-393.8" font-family="arial" font-size="14.00" fill="#ff7f00">true</text>
</g>
<!-- ID_106_ct0_st0&#45;&gt;ID_106_ct0_st01 -->
<g id="edge6" class="edge">
<title>ID_106_ct0_st0&#45;&gt;ID_106_ct0_st01</title>
<path fill="none" stroke="black" d="M223.85,-618.7C231.34,-577.84 251.6,-497.16 300,-450 309.16,-441.07 320.58,-434.14 332.42,-428.78"/>
<polygon fill="black" stroke="black" points="334.09,-431.87 341.98,-424.8 331.4,-425.41 334.09,-431.87"/>
<text text-anchor="start" x="300" y="-453.8" font-family="arial" font-size="14.00" fill="#377eb8">true</text>
</g>
<!-- ID_106_ct0_st012 -->
<g id="node6" class="node">
<title>ID_106_ct0_st012</title>
<polygon fill="none" stroke="black" points="2386,-672 2257,-672 2257,-622 2386,-622 2386,-672"/>
<text text-anchor="start" x="2265" y="-657.8" font-family="arial" font-weight="bold" font-size="14.00">ID_106_ct0_st012</text>
<text text-anchor="start" x="2268" y="-643.8" font-family="arial" font-size="14.00" fill="#984ea3">(P &amp;&amp; (!Q &amp;&amp; !R))</text>
<text text-anchor="start" x="2309.5" y="-629.8" font-family="arial" font-size="14.00" fill="#ff7f00">true</text>
</g>
<!-- ID_106_ct0_st0&#45;&gt;ID_106_ct0_st012 -->
<g id="edge7" class="edge">
<title>ID_106_ct0_st0&#45;&gt;ID_106_ct0_st012</title>
<path fill="none" stroke="black" d="M223.55,-669.4C233.03,-733.65 260.91,-900.24 300,-938 333.5,-970.36 355.43,-962 402,-962 402,-962 402,-962 2041,-962 2129.64,-962 2171.73,-995.73 2239,-938 2277.91,-904.61 2304.92,-752.56 2315.51,-682.52"/>
<polygon fill="black" stroke="black" points="2319.01,-682.81 2317.01,-672.41 2312.08,-681.78 2319.01,-682.81"/>
<text text-anchor="start" x="1180" y="-965.8" font-family="arial" font-size="14.00" fill="#377eb8">true</text>
</g>
<!-- ID_106_ct0_st0123W -->
<g id="node8" class="node">
<title>ID_106_ct0_st0123W</title>
<polygon fill="none" stroke="black" points="917,-649 767,-649 767,-599 917,-599 917,-649"/>
<text text-anchor="start" x="775" y="-634.8" font-family="arial" font-weight="bold" font-size="14.00">ID_106_ct0_st0123W</text>
<text text-anchor="start" x="790.5" y="-620.8" font-family="arial" font-size="14.00" fill="#984ea3">(P &amp;&amp; (!Q &amp;&amp; R))</text>
<text text-anchor="start" x="819" y="-606.8" font-family="arial" font-size="14.00" fill="#ff7f00">c0 &lt;= 5</text>
</g>
<!-- ID_106_ct0_st0&#45;&gt;ID_106_ct0_st0123W -->
<g id="edge8" class="edge">
<title>ID_106_ct0_st0&#45;&gt;ID_106_ct0_st0123W</title>
<path fill="none" stroke="black" d="M227.34,-669.09C237.84,-699.87 260.4,-750.68 300,-773 329,-789.35 739.39,-780.34 749,-773 772.47,-755.05 752.96,-735 767,-709 777.29,-689.94 792.52,-671.47 806.49,-656.65"/>
<polygon fill="black" stroke="black" points="809.22,-658.86 813.65,-649.24 804.19,-654 809.22,-658.86"/>
<text text-anchor="start" x="489" y="-800.8" font-family="arial" font-size="14.00" fill="#377eb8">true</text>
<text text-anchor="start" x="482" y="-785.8" font-family="arial" font-size="14.00">c0 :=0</text>
</g>
<!-- _ID_106_ct0_st01 -->
<!-- _ID_106_ct0_st01&#45;&gt;ID_106_ct0_st01 -->
<g id="edge2" class="edge">
<title>_ID_106_ct0_st01&#45;&gt;ID_106_ct0_st01</title>
<path fill="none" stroke="black" d="M228.41,-36.17C256.73,-97.31 348.88,-296.29 386.14,-376.76"/>
<polygon fill="black" stroke="black" points="383.03,-378.37 390.41,-385.97 389.38,-375.43 383.03,-378.37"/>
</g>
<!-- ID_106_ct0_st01&#45;&gt;ID_106_ct0_st0 -->
<g id="edge9" class="edge">
<title>ID_106_ct0_st01&#45;&gt;ID_106_ct0_st0</title>
<path fill="none" stroke="black" d="M368.12,-436.06C346.89,-452.87 319.87,-476.37 300,-501 272.68,-534.86 249.45,-579.3 235.17,-609.6"/>
<polygon fill="black" stroke="black" points="231.89,-608.36 230.86,-618.91 238.24,-611.31 231.89,-608.36"/>
<text text-anchor="start" x="304.5" y="-504.8" font-family="arial" font-size="14.00" fill="#377eb8">Q&#39;</text>
</g>
<!-- ID_106_ct0_st01&#45;&gt;ID_106_ct0_st01 -->
<g id="edge12" class="edge">
<title>ID_106_ct0_st01&#45;&gt;ID_106_ct0_st01</title>
<path fill="none" stroke="black" d="M386.19,-436.18C385.44,-445.91 391.05,-454 403,-454 410.47,-454 415.46,-450.84 417.97,-446.09"/>
<polygon fill="black" stroke="black" points="421.43,-446.65 419.81,-436.18 414.54,-445.37 421.43,-446.65"/>
<text text-anchor="start" x="391" y="-457.8" font-family="arial" font-size="14.00" fill="#377eb8">true</text>
</g>
<!-- ID_106_ct0_st01&#45;&gt;ID_106_ct0_st012 -->
<g id="edge13" class="edge">
<title>ID_106_ct0_st01&#45;&gt;ID_106_ct0_st012</title>
<path fill="none" stroke="black" d="M412.91,-385.96C424.42,-357.26 447.21,-310.86 482,-285 502.68,-269.63 512.66,-274.67 538,-270 930.61,-197.68 1032.29,-178 1431.5,-178 1431.5,-178 1431.5,-178 2041,-178 2242.81,-178 2302.26,-502.4 2316.56,-611.61"/>
<polygon fill="black" stroke="black" points="2313.12,-612.3 2317.84,-621.78 2320.07,-611.43 2313.12,-612.3"/>
<text text-anchor="start" x="1293.5" y="-184.8" font-family="arial" font-size="14.00" fill="#377eb8">true</text>
</g>
<!-- ID_106_ct0_st01&#45;&gt;ID_106_ct0_st0123W -->
<g id="edge14" class="edge">
<title>ID_106_ct0_st01&#45;&gt;ID_106_ct0_st0123W</title>
<path fill="none" stroke="black" d="M421.77,-436.13C436.36,-455.53 458.42,-482.15 482,-501 504.06,-518.63 511.73,-520.65 538,-531 604.3,-557.11 628.59,-541.52 693,-572 701.92,-576.22 702.15,-580.63 711,-585 725.44,-592.12 741.43,-598.22 757.11,-603.34"/>
<polygon fill="black" stroke="black" points="756.23,-606.73 766.82,-606.4 758.34,-600.05 756.23,-606.73"/>
<text text-anchor="start" x="603.5" y="-590.8" font-family="arial" font-size="14.00" fill="#377eb8">true</text>
<text text-anchor="start" x="596.5" y="-575.8" font-family="arial" font-size="14.00">c0 :=0</text>
</g>
<!-- ID_106_ct0_st02 -->
<g id="node9" class="node">
<title>ID_106_ct0_st02</title>
<polygon fill="none" stroke="black" points="1603,-468 1476,-468 1476,-418 1603,-418 1603,-468"/>
<text text-anchor="start" x="1486.5" y="-453.8" font-family="arial" font-weight="bold" font-size="14.00">ID_106_ct0_st02</text>
<text text-anchor="start" x="1484" y="-439.8" font-family="arial" font-size="14.00" fill="#984ea3">(!P &amp;&amp; (!Q &amp;&amp; !R))</text>
<text text-anchor="start" x="1527.5" y="-425.8" font-family="arial" font-size="14.00" fill="#ff7f00">true</text>
</g>
<!-- ID_106_ct0_st01&#45;&gt;ID_106_ct0_st02 -->
<g id="edge10" class="edge">
<title>ID_106_ct0_st01&#45;&gt;ID_106_ct0_st02</title>
<path fill="none" stroke="black" d="M435.35,-385.82C448.97,-376.05 465.55,-365.64 482,-359 537.5,-336.6 554.65,-335 614.5,-335 614.5,-335 614.5,-335 1306.5,-335 1375.71,-335 1405.05,-326.44 1458,-371 1471.35,-382.24 1464.67,-394.35 1474.83,-409.98"/>
<polygon fill="black" stroke="black" points="1472.3,-412.42 1481.33,-417.95 1477.72,-407.99 1472.3,-412.42"/>
<text text-anchor="start" x="946" y="-338.8" font-family="arial" font-size="14.00" fill="#377eb8">true</text>
</g>
<!-- ID_106_ct0_st023W -->
<g id="node10" class="node">
<title>ID_106_ct0_st023W</title>
<polygon fill="none" stroke="black" points="687,-489 544,-489 544,-439 687,-439 687,-489"/>
<text text-anchor="start" x="552" y="-474.8" font-family="arial" font-weight="bold" font-size="14.00">ID_106_ct0_st023W</text>
<text text-anchor="start" x="562" y="-460.8" font-family="arial" font-size="14.00" fill="#984ea3">(!P &amp;&amp; (!Q &amp;&amp; R))</text>
<text text-anchor="start" x="592.5" y="-446.8" font-family="arial" font-size="14.00" fill="#ff7f00">c0 &lt;= 5</text>
</g>
<!-- ID_106_ct0_st01&#45;&gt;ID_106_ct0_st023W -->
<g id="edge11" class="edge">
<title>ID_106_ct0_st01&#45;&gt;ID_106_ct0_st023W</title>
<path fill="none" stroke="black" d="M435.5,-436.15C449.01,-445.46 465.48,-454.97 482,-460 498.38,-464.99 516.43,-467.41 533.8,-468.35"/>
<polygon fill="black" stroke="black" points="533.8,-471.85 543.92,-468.73 534.06,-464.85 533.8,-471.85"/>
<text text-anchor="start" x="489" y="-485.8" font-family="arial" font-size="14.00" fill="#377eb8">true</text>
<text text-anchor="start" x="482" y="-470.8" font-family="arial" font-size="14.00">c0 :=0</text>
</g>
<!-- _ID_106_ct0_st012 -->
<!-- _ID_106_ct0_st012&#45;&gt;ID_106_ct0_st012 -->
<g id="edge3" class="edge">
<title>_ID_106_ct0_st012&#45;&gt;ID_106_ct0_st012</title>
<path fill="none" stroke="black" d="M2107.21,-882.9C2149.14,-882.53 2202.19,-875.23 2239,-846 2290.13,-805.4 2309.43,-727.4 2316.54,-682.05"/>
<polygon fill="black" stroke="black" points="2320.01,-682.48 2317.98,-672.08 2313.08,-681.48 2320.01,-682.48"/>
</g>
<!-- ID_106_ct0_st012&#45;&gt;ID_106_ct0_st0 -->
<g id="edge21" class="edge">
<title>ID_106_ct0_st012&#45;&gt;ID_106_ct0_st0</title>
<path fill="none" stroke="black" d="M2319.23,-672.14C2315.43,-719.77 2300.16,-823.27 2239,-878 2171.67,-938.24 2131.34,-924 2041,-924 402,-924 402,-924 402,-924 286.55,-924 240.58,-754.58 225.86,-679.31"/>
<polygon fill="black" stroke="black" points="229.27,-678.52 223.99,-669.34 222.4,-679.82 229.27,-678.52"/>
<text text-anchor="start" x="1184.5" y="-927.8" font-family="arial" font-size="14.00" fill="#377eb8">Q&#39;</text>
</g>
<!-- ID_106_ct0_st012&#45;&gt;ID_106_ct0_st01 -->
<g id="edge24" class="edge">
<title>ID_106_ct0_st012&#45;&gt;ID_106_ct0_st01</title>
<path fill="none" stroke="black" d="M2318.71,-621.88C2312.33,-538.02 2288.34,-269.09 2239,-200 2180.37,-117.9 2141.88,-89 2041,-89 1431.5,-89 1431.5,-89 1431.5,-89 1220.92,-89 1169.58,-124 959,-124 614.5,-124 614.5,-124 614.5,-124 491.01,-124 432.04,-298.91 412.12,-375.64"/>
<polygon fill="black" stroke="black" points="408.61,-375.23 409.56,-385.78 415.4,-376.94 408.61,-375.23"/>
<text text-anchor="start" x="1293.5" y="-106.8" font-family="arial" font-size="14.00" fill="#377eb8">true</text>
</g>
<!-- ID_106_ct0_st012&#45;&gt;ID_106_ct0_st012 -->
<g id="edge25" class="edge">
<title>ID_106_ct0_st012&#45;&gt;ID_106_ct0_st012</title>
<path fill="none" stroke="black" d="M2295.73,-672.18C2294.58,-681.91 2303.17,-690 2321.5,-690 2332.96,-690 2340.61,-686.84 2344.45,-682.09"/>
<polygon fill="black" stroke="black" points="2347.91,-682.75 2347.27,-672.18 2341.17,-680.84 2347.91,-682.75"/>
<text text-anchor="start" x="2309.5" y="-693.8" font-family="arial" font-size="14.00" fill="#377eb8">true</text>
</g>
<!-- ID_106_ct0_st012&#45;&gt;ID_106_ct0_st02 -->
<g id="edge22" class="edge">
<title>ID_106_ct0_st012&#45;&gt;ID_106_ct0_st02</title>
<path fill="none" stroke="black" d="M2256.78,-643.48C2219,-641.12 2170.2,-637.6 2127,-633 1958.66,-615.06 1915.98,-610 1751,-572 1692.46,-558.52 1671.75,-567.14 1621,-535 1597.31,-520 1576.63,-495.97 1562.16,-476.24"/>
<polygon fill="black" stroke="black" points="1565.01,-474.19 1556.35,-468.08 1559.31,-478.26 1565.01,-474.19"/>
<text text-anchor="start" x="1922" y="-615.8" font-family="arial" font-size="14.00" fill="#377eb8">true</text>
</g>
<!-- ID_106_ct0_st023X -->
<g id="node11" class="node">
<title>ID_106_ct0_st023X</title>
<polygon fill="none" stroke="black" points="2109,-430 1971,-430 1971,-380 2109,-380 2109,-430"/>
<text text-anchor="start" x="1979" y="-415.8" font-family="arial" font-weight="bold" font-size="14.00">ID_106_ct0_st023X</text>
<text text-anchor="start" x="1986.5" y="-401.8" font-family="arial" font-size="14.00" fill="#984ea3">(!P &amp;&amp; (!Q &amp;&amp; R))</text>
<text text-anchor="start" x="2017" y="-387.8" font-family="arial" font-size="14.00" fill="#ff7f00">c0 &lt;= 5</text>
</g>
<!-- ID_106_ct0_st012&#45;&gt;ID_106_ct0_st023X -->
<g id="edge23" class="edge">
<title>ID_106_ct0_st012&#45;&gt;ID_106_ct0_st023X</title>
<path fill="none" stroke="black" d="M2320.17,-621.87C2318,-572.8 2305.52,-464.7 2239,-415 2205.39,-389.89 2158.9,-386.42 2119.41,-389.68"/>
<polygon fill="black" stroke="black" points="2118.89,-386.22 2109.27,-390.68 2119.57,-393.18 2118.89,-386.22"/>
<text text-anchor="start" x="2171" y="-433.8" font-family="arial" font-size="14.00" fill="#377eb8">true</text>
<text text-anchor="start" x="2164" y="-418.8" font-family="arial" font-size="14.00">c0 :=0</text>
</g>
<!-- ID_106_ct0_st0123X -->
<g id="node12" class="node">
<title>ID_106_ct0_st0123X</title>
<polygon fill="none" stroke="black" points="1897,-502 1751,-502 1751,-452 1897,-452 1897,-502"/>
<text text-anchor="start" x="1759" y="-487.8" font-family="arial" font-weight="bold" font-size="14.00">ID_106_ct0_st0123X</text>
<text text-anchor="start" x="1772.5" y="-473.8" font-family="arial" font-size="14.00" fill="#984ea3">(P &amp;&amp; (!Q &amp;&amp; R))</text>
<text text-anchor="start" x="1801" y="-459.8" font-family="arial" font-size="14.00" fill="#ff7f00">c0 &lt;= 5</text>
</g>
<!-- ID_106_ct0_st012&#45;&gt;ID_106_ct0_st0123X -->
<g id="edge26" class="edge">
<title>ID_106_ct0_st012&#45;&gt;ID_106_ct0_st0123X</title>
<path fill="none" stroke="black" d="M2305.1,-621.99C2290.59,-600.44 2266.94,-570.03 2239,-552 2185.39,-517.41 2012.18,-495.1 1907.55,-484.42"/>
<polygon fill="black" stroke="black" points="1907.63,-480.91 1897.33,-483.4 1906.93,-487.88 1907.63,-480.91"/>
<text text-anchor="start" x="2028" y="-530.8" font-family="arial" font-size="14.00" fill="#377eb8">true</text>
<text text-anchor="start" x="2021" y="-515.8" font-family="arial" font-size="14.00">c0 :=0</text>
</g>
<!-- _ID_106_ct0_st0123W -->
<!-- _ID_106_ct0_st0123W&#45;&gt;ID_106_ct0_st0123W -->
<g id="edge4" class="edge">
<title>_ID_106_ct0_st0123W&#45;&gt;ID_106_ct0_st0123W</title>
<path fill="none" stroke="black" d="M693.13,-657.59C713.75,-652.91 736.15,-647.82 757.14,-643.05"/>
<polygon fill="black" stroke="black" points="758.01,-646.44 766.99,-640.81 756.46,-639.62 758.01,-646.44"/>
</g>
<!-- ID_106_ct0_st0123W&#45;&gt;ID_106_ct0_st0 -->
<g id="edge49" class="edge">
<title>ID_106_ct0_st0123W&#45;&gt;ID_106_ct0_st0</title>
<path fill="none" stroke="black" d="M801.73,-649.04C736.58,-687.63 601.49,-755.16 482,-735 412.27,-723.24 336.32,-695.02 284.24,-673.1"/>
<polygon fill="black" stroke="black" points="285.37,-669.78 274.79,-669.09 282.63,-676.22 285.37,-669.78"/>
<text text-anchor="start" x="493.5" y="-741.8" font-family="arial" font-size="14.00" fill="#377eb8">Q&#39;</text>
</g>
<!-- ID_106_ct0_st0123W&#45;&gt;ID_106_ct0_st01 -->
<g id="edge53" class="edge">
<title>ID_106_ct0_st0123W&#45;&gt;ID_106_ct0_st01</title>
<path fill="none" stroke="black" d="M766.75,-625.61C689.92,-626.05 575.93,-622.92 538,-602 505.7,-584.18 451.52,-495.01 422.95,-445.05"/>
<polygon fill="black" stroke="black" points="425.91,-443.18 417.93,-436.21 419.82,-446.63 425.91,-443.18"/>
<text text-anchor="start" x="603.5" y="-627.8" font-family="arial" font-size="14.00" fill="#377eb8">true</text>
</g>
<!-- ID_106_ct0_st0123W&#45;&gt;ID_106_ct0_st012 -->
<g id="edge54" class="edge">
<title>ID_106_ct0_st0123W&#45;&gt;ID_106_ct0_st012</title>
<path fill="none" stroke="black" d="M915.94,-649.02C922.37,-651.09 928.79,-653.11 935,-655 1253.8,-751.94 1342.79,-769 1676,-769 1676,-769 1676,-769 2041,-769 2133.35,-769 2156.55,-747.6 2239,-706 2253.97,-698.45 2269.17,-688.26 2282.32,-678.49"/>
<polygon fill="black" stroke="black" points="2284.81,-680.99 2290.65,-672.15 2280.57,-675.42 2284.81,-680.99"/>
<text text-anchor="start" x="1527.5" y="-771.8" font-family="arial" font-size="14.00" fill="#377eb8">true</text>
</g>
<!-- ID_106_ct0_st0123W&#45;&gt;ID_106_ct0_st0123W -->
<g id="edge55" class="edge">
<title>ID_106_ct0_st0123W&#45;&gt;ID_106_ct0_st0123W</title>
<path fill="none" stroke="black" d="M821.08,-649.18C820.15,-658.91 827.12,-667 842,-667 851.3,-667 857.51,-663.84 860.63,-659.09"/>
<polygon fill="black" stroke="black" points="864.08,-659.71 862.92,-649.18 857.26,-658.13 864.08,-659.71"/>
<text text-anchor="start" x="823" y="-670.8" font-family="arial" font-size="14.00" fill="#377eb8">c0 &lt; 5</text>
</g>
<!-- ID_106_ct0_st0123W&#45;&gt;ID_106_ct0_st02 -->
<g id="edge50" class="edge">
<title>ID_106_ct0_st0123W&#45;&gt;ID_106_ct0_st02</title>
<path fill="none" stroke="black" d="M884.62,-598.84C915.27,-581.35 958.47,-558.78 999,-545 1160.79,-489.98 1360.57,-462 1465.77,-450.17"/>
<polygon fill="black" stroke="black" points="1466.41,-453.62 1475.96,-449.04 1465.64,-446.66 1466.41,-453.62"/>
<text text-anchor="start" x="1180" y="-498.8" font-family="arial" font-size="14.00" fill="#377eb8">true</text>
</g>
<!-- ID_106_ct0_st0123W&#45;&gt;ID_106_ct0_st023W -->
<g id="edge51" class="edge">
<title>ID_106_ct0_st0123W&#45;&gt;ID_106_ct0_st023W</title>
<path fill="none" stroke="black" d="M798.18,-598.89C761.9,-577.58 715.11,-549.98 711,-547 689.85,-531.65 667.82,-512.52 650.36,-496.49"/>
<polygon fill="black" stroke="black" points="652.39,-493.6 642.68,-489.37 647.63,-498.73 652.39,-493.6"/>
<text text-anchor="start" x="711" y="-572.8" font-family="arial" font-size="14.00" fill="#377eb8">c0 &lt; 5</text>
</g>
<!-- ID_106_ct0_st023 -->
<g id="node13" class="node">
<title>ID_106_ct0_st023</title>
<polygon fill="none" stroke="black" points="1389,-662 1222,-662 1222,-612 1389,-612 1389,-662"/>
<text text-anchor="start" x="1249" y="-647.8" font-family="arial" font-weight="bold" font-size="14.00">ID_106_ct0_st023</text>
<text text-anchor="start" x="1230" y="-633.8" font-family="arial" font-size="14.00" fill="#984ea3">(!P &amp;&amp; (!Q &amp;&amp; (R &amp;&amp; S)))</text>
<text text-anchor="start" x="1293.5" y="-619.8" font-family="arial" font-size="14.00" fill="#ff7f00">true</text>
</g>
<!-- ID_106_ct0_st0123W&#45;&gt;ID_106_ct0_st023 -->
<g id="edge52" class="edge">
<title>ID_106_ct0_st0123W&#45;&gt;ID_106_ct0_st023</title>
<path fill="none" stroke="black" d="M917.38,-636.4C943.15,-640.19 972.28,-643.9 999,-646 1089.84,-653.13 1113.04,-654.41 1204,-649 1206.53,-648.85 1209.1,-648.68 1211.69,-648.49"/>
<polygon fill="black" stroke="black" points="1212.07,-651.97 1221.76,-647.67 1211.51,-644.99 1212.07,-651.97"/>
<text text-anchor="start" x="1057.5" y="-655.8" font-family="arial" font-size="14.00" fill="#377eb8">c0 &gt;= 5</text>
</g>
<!-- ID_106_ct0_st0123 -->
<g id="node14" class="node">
<title>ID_106_ct0_st0123</title>
<polygon fill="none" stroke="black" points="1162,-604 999,-604 999,-554 1162,-554 1162,-604"/>
<text text-anchor="start" x="1020" y="-589.8" font-family="arial" font-weight="bold" font-size="14.00">ID_106_ct0_st0123</text>
<text text-anchor="start" x="1007" y="-575.8" font-family="arial" font-size="14.00" fill="#984ea3">(P &amp;&amp; (!Q &amp;&amp; (R &amp;&amp; S)))</text>
<text text-anchor="start" x="1068.5" y="-561.8" font-family="arial" font-size="14.00" fill="#ff7f00">true</text>
</g>
<!-- ID_106_ct0_st0123W&#45;&gt;ID_106_ct0_st0123 -->
<g id="edge56" class="edge">
<title>ID_106_ct0_st0123W&#45;&gt;ID_106_ct0_st0123</title>
<path fill="none" stroke="black" d="M917.18,-609.89C939.82,-605.58 964.98,-600.79 988.59,-596.3"/>
<polygon fill="black" stroke="black" points="989.44,-599.7 998.61,-594.39 988.13,-592.82 989.44,-599.7"/>
<text text-anchor="start" x="935" y="-608.8" font-family="arial" font-size="14.00" fill="#377eb8">c0 &gt;= 5</text>
</g>
<!-- ID_106_ct0_st02&#45;&gt;ID_106_ct0_st0 -->
<g id="edge15" class="edge">
<title>ID_106_ct0_st02&#45;&gt;ID_106_ct0_st0</title>
<path fill="none" stroke="black" d="M1480.4,-417.8C1478.83,-416.29 1477.36,-414.69 1476,-413 1454,-385.59 1480.84,-362.71 1458,-336 1382.04,-247.19 1075.86,-170 959,-170 402,-170 402,-170 402,-170 307.96,-170 244.25,-499.27 225.64,-608.94"/>
<polygon fill="black" stroke="black" points="222.18,-608.41 223.98,-618.85 229.08,-609.57 222.18,-608.41"/>
<text text-anchor="start" x="834.5" y="-173.8" font-family="arial" font-size="14.00" fill="#377eb8">Q&#39;</text>
</g>
<!-- ID_106_ct0_st02&#45;&gt;ID_106_ct0_st01 -->
<g id="edge18" class="edge">
<title>ID_106_ct0_st02&#45;&gt;ID_106_ct0_st01</title>
<path fill="none" stroke="black" d="M1475.91,-422.47C1407.28,-401.82 1293.52,-373 1193,-373 614.5,-373 614.5,-373 614.5,-373 567.16,-373 514.76,-382.42 474.09,-391.89"/>
<polygon fill="black" stroke="black" points="473.19,-388.5 464.28,-394.22 474.82,-395.31 473.19,-388.5"/>
<text text-anchor="start" x="946" y="-376.8" font-family="arial" font-size="14.00" fill="#377eb8">true</text>
</g>
<!-- ID_106_ct0_st02&#45;&gt;ID_106_ct0_st012 -->
<g id="edge19" class="edge">
<title>ID_106_ct0_st02&#45;&gt;ID_106_ct0_st012</title>
<path fill="none" stroke="black" d="M1568.66,-468.23C1583.41,-480.4 1602.27,-494.41 1621,-504 1674.8,-531.56 1692.3,-529.55 1751,-544 1798.55,-555.71 2103.93,-609.31 2246.89,-634.22"/>
<polygon fill="black" stroke="black" points="2246.44,-637.69 2256.89,-635.96 2247.64,-630.8 2246.44,-637.69"/>
<text text-anchor="start" x="1922" y="-584.8" font-family="arial" font-size="14.00" fill="#377eb8">true</text>
</g>
<!-- ID_106_ct0_st02&#45;&gt;ID_106_ct0_st02 -->
<g id="edge16" class="edge">
<title>ID_106_ct0_st02&#45;&gt;ID_106_ct0_st02</title>
<path fill="none" stroke="black" d="M1519.7,-468.18C1518.82,-477.91 1525.42,-486 1539.5,-486 1548.3,-486 1554.18,-482.84 1557.13,-478.09"/>
<polygon fill="black" stroke="black" points="1560.58,-478.69 1559.3,-468.18 1553.74,-477.2 1560.58,-478.69"/>
<text text-anchor="start" x="1527.5" y="-489.8" font-family="arial" font-size="14.00" fill="#377eb8">true</text>
</g>
<!-- ID_106_ct0_st02&#45;&gt;ID_106_ct0_st023X -->
<g id="edge17" class="edge">
<title>ID_106_ct0_st02&#45;&gt;ID_106_ct0_st023X</title>
<path fill="none" stroke="black" d="M1603.29,-431.77C1609.27,-430.79 1615.25,-429.85 1621,-429 1678.58,-420.45 1692.95,-417.37 1751,-413 1821.81,-407.67 1902.66,-405.79 1960.64,-405.18"/>
<polygon fill="black" stroke="black" points="1960.86,-408.67 1970.82,-405.08 1960.79,-401.67 1960.86,-408.67"/>
<text text-anchor="start" x="1812" y="-431.8" font-family="arial" font-size="14.00" fill="#377eb8">true</text>
<text text-anchor="start" x="1805" y="-416.8" font-family="arial" font-size="14.00">c0 :=0</text>
</g>
<!-- ID_106_ct0_st02&#45;&gt;ID_106_ct0_st0123X -->
<g id="edge20" class="edge">
<title>ID_106_ct0_st02&#45;&gt;ID_106_ct0_st0123X</title>
<path fill="none" stroke="black" d="M1603.23,-456.14C1609.22,-457.2 1615.22,-458.17 1621,-459 1660.18,-464.62 1703.91,-468.78 1740.63,-471.67"/>
<polygon fill="black" stroke="black" points="1740.56,-475.18 1750.8,-472.45 1741.09,-468.2 1740.56,-475.18"/>
<text text-anchor="start" x="1665" y="-488.8" font-family="arial" font-size="14.00" fill="#377eb8">true</text>
<text text-anchor="start" x="1658" y="-473.8" font-family="arial" font-size="14.00">c0 :=0</text>
</g>
<!-- ID_106_ct0_st023W&#45;&gt;ID_106_ct0_st0 -->
<g id="edge27" class="edge">
<title>ID_106_ct0_st023W&#45;&gt;ID_106_ct0_st0</title>
<path fill="none" stroke="black" d="M559.48,-489.11C487.32,-522.03 360.92,-579.7 284.39,-614.62"/>
<polygon fill="black" stroke="black" points="282.5,-611.64 274.85,-618.97 285.4,-618 282.5,-611.64"/>
<text text-anchor="start" x="395.5" y="-589.8" font-family="arial" font-size="14.00" fill="#377eb8">Q&#39;</text>
</g>
<!-- ID_106_ct0_st023W&#45;&gt;ID_106_ct0_st01 -->
<g id="edge31" class="edge">
<title>ID_106_ct0_st023W&#45;&gt;ID_106_ct0_st01</title>
<path fill="none" stroke="black" d="M543.96,-446.24C521.38,-440.55 496.4,-434.26 473.87,-428.59"/>
<polygon fill="black" stroke="black" points="474.59,-425.16 464.04,-426.12 472.88,-431.95 474.59,-425.16"/>
<text text-anchor="start" x="489" y="-442.8" font-family="arial" font-size="14.00" fill="#377eb8">true</text>
</g>
<!-- ID_106_ct0_st023W&#45;&gt;ID_106_ct0_st012 -->
<g id="edge32" class="edge">
<title>ID_106_ct0_st023W&#45;&gt;ID_106_ct0_st012</title>
<path fill="none" stroke="black" d="M656.26,-489.29C669.63,-499.55 683.53,-512.43 693,-527 709.77,-552.82 742.5,-775.36 767,-794 810.5,-827.08 382.8,-1038.25 2109,-783 2168.55,-774.19 2188.67,-778.03 2239,-745 2264.04,-728.57 2285.39,-702.12 2299.94,-680.83"/>
<polygon fill="black" stroke="black" points="2302.95,-682.64 2305.56,-672.37 2297.12,-678.76 2302.95,-682.64"/>
<text text-anchor="start" x="1420.5" y="-877.8" font-family="arial" font-size="14.00" fill="#377eb8">true</text>
</g>
<!-- ID_106_ct0_st023W&#45;&gt;ID_106_ct0_st0123W -->
<g id="edge33" class="edge">
<title>ID_106_ct0_st023W&#45;&gt;ID_106_ct0_st0123W</title>
<path fill="none" stroke="black" d="M668.63,-489.1C702.78,-505.82 742.3,-525.82 749,-532 760.15,-542.28 757.11,-549.5 767,-561 776.48,-572.01 787.95,-582.74 799,-592.14"/>
<polygon fill="black" stroke="black" points="797.01,-595.03 806.94,-598.73 801.48,-589.65 797.01,-595.03"/>
<text text-anchor="start" x="711" y="-535.8" font-family="arial" font-size="14.00" fill="#377eb8">c0 &lt; 5</text>
</g>
<!-- ID_106_ct0_st023W&#45;&gt;ID_106_ct0_st02 -->
<g id="edge28" class="edge">
<title>ID_106_ct0_st023W&#45;&gt;ID_106_ct0_st02</title>
<path fill="none" stroke="black" d="M687.19,-461.68C695.22,-461.44 703.29,-461.21 711,-461 989.98,-453.54 1321.93,-447.04 1465.91,-444.34"/>
<polygon fill="black" stroke="black" points="1466.02,-447.83 1475.95,-444.15 1465.89,-440.84 1466.02,-447.83"/>
<text text-anchor="start" x="1068.5" y="-456.8" font-family="arial" font-size="14.00" fill="#377eb8">true</text>
</g>
<!-- ID_106_ct0_st023W&#45;&gt;ID_106_ct0_st023W -->
<g id="edge29" class="edge">
<title>ID_106_ct0_st023W&#45;&gt;ID_106_ct0_st023W</title>
<path fill="none" stroke="black" d="M594.21,-489.18C593.26,-498.91 600.36,-507 615.5,-507 624.96,-507 631.28,-503.84 634.46,-499.09"/>
<polygon fill="black" stroke="black" points="637.91,-499.71 636.79,-489.18 631.1,-498.11 637.91,-499.71"/>
<text text-anchor="start" x="596.5" y="-510.8" font-family="arial" font-size="14.00" fill="#377eb8">c0 &lt; 5</text>
</g>
<!-- ID_106_ct0_st023W&#45;&gt;ID_106_ct0_st023 -->
<g id="edge30" class="edge">
<title>ID_106_ct0_st023W&#45;&gt;ID_106_ct0_st023</title>
<path fill="none" stroke="black" d="M687.07,-464.56C793.56,-467.57 1000.08,-481.91 1162,-545 1199.8,-559.73 1238.18,-585.24 1265.57,-605.67"/>
<polygon fill="black" stroke="black" points="1263.62,-608.59 1273.7,-611.83 1267.84,-603 1263.62,-608.59"/>
<text text-anchor="start" x="935" y="-497.8" font-family="arial" font-size="14.00" fill="#377eb8">c0 &gt;= 5</text>
</g>
<!-- ID_106_ct0_st023W&#45;&gt;ID_106_ct0_st0123 -->
<g id="edge34" class="edge">
<title>ID_106_ct0_st023W&#45;&gt;ID_106_ct0_st0123</title>
<path fill="none" stroke="black" d="M687.26,-482.57C712.42,-489.11 740.95,-496.46 767,-503 841.66,-521.75 926.55,-542.35 988.99,-557.37"/>
<polygon fill="black" stroke="black" points="988.27,-560.79 998.81,-559.73 989.9,-553.99 988.27,-560.79"/>
<text text-anchor="start" x="819" y="-542.8" font-family="arial" font-size="14.00" fill="#377eb8">c0 &gt;= 5</text>
</g>
<!-- ID_106_ct0_st023X&#45;&gt;ID_106_ct0_st0 -->
<g id="edge35" class="edge">
<title>ID_106_ct0_st023X&#45;&gt;ID_106_ct0_st0</title>
<path fill="none" stroke="black" d="M2016.09,-379.63C1955.91,-314.97 1785.38,-144.25 1603,-75 1432.13,-10.12 1375.78,-43 1193,-43 402,-43 402,-43 402,-43 332,-43 322.12,-96.59 300,-163 246.35,-324.03 227.67,-527.87 222.09,-608.68"/>
<polygon fill="black" stroke="black" points="218.58,-608.6 221.41,-618.81 225.57,-609.06 218.58,-608.6"/>
<text text-anchor="start" x="1073" y="-46.8" font-family="arial" font-size="14.00" fill="#377eb8">Q&#39;</text>
</g>
<!-- ID_106_ct0_st023X&#45;&gt;ID_106_ct0_st01 -->
<g id="edge39" class="edge">
<title>ID_106_ct0_st023X&#45;&gt;ID_106_ct0_st01</title>
<path fill="none" stroke="black" d="M1970.56,-387.83C1964.64,-386.48 1958.72,-385.18 1953,-384 1704,-332.48 1641.21,-320.32 1389,-288 1090.08,-249.7 1012.18,-267.37 711,-278 608.04,-281.63 563.13,-250.5 482,-314 459.52,-331.6 439.46,-356.87 425.32,-377.21"/>
<polygon fill="black" stroke="black" points="422.36,-375.34 419.63,-385.58 428.15,-379.28 422.36,-375.34"/>
<text text-anchor="start" x="1180" y="-273.8" font-family="arial" font-size="14.00" fill="#377eb8">true</text>
</g>
<!-- ID_106_ct0_st023X&#45;&gt;ID_106_ct0_st012 -->
<g id="edge40" class="edge">
<title>ID_106_ct0_st023X&#45;&gt;ID_106_ct0_st012</title>
<path fill="none" stroke="black" d="M2090.3,-430.06C2102.13,-435.47 2114.86,-440.82 2127,-445 2175.32,-461.64 2199.35,-438.76 2239,-471 2282.98,-506.76 2304.36,-571.6 2313.85,-611.81"/>
<polygon fill="black" stroke="black" points="2310.47,-612.71 2316.06,-621.71 2317.3,-611.19 2310.47,-612.71"/>
<text text-anchor="start" x="2127" y="-474.8" font-family="arial" font-size="14.00" fill="#377eb8">(Q&#39; || (S&#39; || c0 &lt; 5))</text>
</g>
<!-- ID_106_ct0_st023X&#45;&gt;ID_106_ct0_st02 -->
<g id="edge36" class="edge">
<title>ID_106_ct0_st023X&#45;&gt;ID_106_ct0_st02</title>
<path fill="none" stroke="black" d="M1970.91,-394.6C1947.54,-391.5 1921.18,-388.53 1897,-387 1774.15,-379.24 1739.23,-375.74 1621,-410 1616.43,-411.32 1611.78,-412.82 1607.11,-414.43"/>
<polygon fill="black" stroke="black" points="1605.8,-411.18 1597.57,-417.86 1608.17,-417.77 1605.8,-411.18"/>
<text text-anchor="start" x="1768" y="-390.8" font-family="arial" font-size="14.00" fill="#377eb8">(Q&#39; || (S&#39; || c0 &lt; 5))</text>
</g>
<!-- ID_106_ct0_st023X&#45;&gt;ID_106_ct0_st023X -->
<g id="edge37" class="edge">
<title>ID_106_ct0_st023X&#45;&gt;ID_106_ct0_st023X</title>
<path fill="none" stroke="black" d="M2020.2,-430.18C2019.32,-439.91 2025.92,-448 2040,-448 2048.8,-448 2054.68,-444.84 2057.63,-440.09"/>
<polygon fill="black" stroke="black" points="2061.08,-440.69 2059.8,-430.18 2054.24,-439.2 2061.08,-440.69"/>
<text text-anchor="start" x="2021" y="-451.8" font-family="arial" font-size="14.00" fill="#377eb8">c0 &lt; 5</text>
</g>
<!-- ID_106_ct0_st023X&#45;&gt;ID_106_ct0_st0123X -->
<g id="edge41" class="edge">
<title>ID_106_ct0_st023X&#45;&gt;ID_106_ct0_st0123X</title>
<path fill="none" stroke="black" d="M1999.08,-430.14C1984.96,-438.12 1968.68,-446.34 1953,-452 1938.5,-457.24 1922.66,-461.45 1907.22,-464.83"/>
<polygon fill="black" stroke="black" points="1906.22,-461.46 1897.14,-466.92 1907.65,-468.31 1906.22,-461.46"/>
<text text-anchor="start" x="1915" y="-466.8" font-family="arial" font-size="14.00" fill="#377eb8">c0 &lt; 5</text>
</g>
<!-- ID_106_ct0_st023X&#45;&gt;ID_106_ct0_st023 -->
<g id="edge38" class="edge">
<title>ID_106_ct0_st023X&#45;&gt;ID_106_ct0_st023</title>
<path fill="none" stroke="black" d="M2018.43,-430.22C1992.66,-460.51 1945.91,-511.32 1897,-544 1745.3,-645.37 1523.46,-651.37 1399.37,-645.18"/>
<polygon fill="black" stroke="black" points="1399.31,-641.67 1389.14,-644.63 1398.94,-648.66 1399.31,-641.67"/>
<text text-anchor="start" x="1654" y="-639.8" font-family="arial" font-size="14.00" fill="#377eb8">c0 &gt;= 5</text>
</g>
<!-- ID_106_ct0_st023X&#45;&gt;ID_106_ct0_st0123 -->
<g id="edge42" class="edge">
<title>ID_106_ct0_st023X&#45;&gt;ID_106_ct0_st0123</title>
<path fill="none" stroke="black" d="M1970.76,-407.89C1947.38,-408.75 1921.05,-409.58 1897,-410 1832.12,-411.14 1815.79,-413.49 1751,-410 1684.93,-406.44 1669.07,-397.56 1603,-394 1546.64,-390.96 1531.09,-381.72 1476,-394 1342.35,-423.78 1200.47,-503.94 1128.82,-548.34"/>
<polygon fill="black" stroke="black" points="1126.65,-545.57 1120.02,-553.84 1130.35,-551.51 1126.65,-545.57"/>
<text text-anchor="start" x="1516.5" y="-397.8" font-family="arial" font-size="14.00" fill="#377eb8">c0 &gt;= 5</text>
</g>
<!-- ID_106_ct0_st0123X&#45;&gt;ID_106_ct0_st0 -->
<g id="edge57" class="edge">
<title>ID_106_ct0_st0123X&#45;&gt;ID_106_ct0_st0</title>
<path fill="none" stroke="black" d="M1755.91,-451.88C1754.17,-450.34 1752.53,-448.72 1751,-447 1731.64,-425.24 1750.2,-407.5 1733,-384 1624.66,-235.99 1559.79,-222.9 1389,-156 1298.86,-120.69 1055.81,-86 959,-86 402,-86 402,-86 402,-86 291.48,-86 237.58,-486.67 223.7,-608.97"/>
<polygon fill="black" stroke="black" points="220.22,-608.61 222.59,-618.94 227.18,-609.39 220.22,-608.61"/>
<text text-anchor="start" x="950.5" y="-89.8" font-family="arial" font-size="14.00" fill="#377eb8">Q&#39;</text>
</g>
<!-- ID_106_ct0_st0123X&#45;&gt;ID_106_ct0_st01 -->
<g id="edge61" class="edge">
<title>ID_106_ct0_st0123X&#45;&gt;ID_106_ct0_st01</title>
<path fill="none" stroke="black" d="M1759.07,-451.99C1756.29,-450.4 1753.59,-448.73 1751,-447 1741.6,-440.7 1742.57,-435.04 1733,-429 1681.16,-396.3 1661.05,-402.67 1603,-383 1538.84,-361.25 1523.4,-353.66 1458,-336 1243.06,-277.96 1181.64,-292 959,-292 614.5,-292 614.5,-292 614.5,-292 551.71,-292 535.76,-308.57 482,-341 464.91,-351.31 448.15,-365.63 434.57,-378.64"/>
<polygon fill="black" stroke="black" points="432.06,-376.2 427.37,-385.7 436.96,-381.2 432.06,-376.2"/>
<text text-anchor="start" x="1068.5" y="-294.8" font-family="arial" font-size="14.00" fill="#377eb8">true</text>
</g>
<!-- ID_106_ct0_st0123X&#45;&gt;ID_106_ct0_st012 -->
<g id="edge62" class="edge">
<title>ID_106_ct0_st0123X&#45;&gt;ID_106_ct0_st012</title>
<path fill="none" stroke="black" d="M1871.84,-502.03C1899.92,-516.13 1936.73,-533.05 1971,-544 2086.5,-580.89 2126.31,-550.25 2239,-595 2252.68,-600.43 2266.56,-608.25 2278.88,-616.17"/>
<polygon fill="black" stroke="black" points="2277.29,-619.32 2287.56,-621.93 2281.17,-613.49 2277.29,-619.32"/>
<text text-anchor="start" x="1984" y="-569.8" font-family="arial" font-size="14.00" fill="#377eb8">(Q&#39; || (S&#39; || c0 &lt; 5))</text>
</g>
<!-- ID_106_ct0_st0123X&#45;&gt;ID_106_ct0_st02 -->
<g id="edge58" class="edge">
<title>ID_106_ct0_st0123X&#45;&gt;ID_106_ct0_st02</title>
<path fill="none" stroke="black" d="M1771.72,-451.92C1759.33,-446.99 1745.93,-442.55 1733,-440 1693.89,-432.27 1649.43,-432.4 1613.1,-434.74"/>
<polygon fill="black" stroke="black" points="1612.8,-431.25 1603.08,-435.45 1613.3,-438.23 1612.8,-431.25"/>
<text text-anchor="start" x="1621" y="-443.8" font-family="arial" font-size="14.00" fill="#377eb8">(Q&#39; || (S&#39; || c0 &lt; 5))</text>
</g>
<!-- ID_106_ct0_st0123X&#45;&gt;ID_106_ct0_st023X -->
<g id="edge59" class="edge">
<title>ID_106_ct0_st0123X&#45;&gt;ID_106_ct0_st023X</title>
<path fill="none" stroke="black" d="M1871.29,-451.82C1885.07,-445.02 1900.4,-438.14 1915,-433 1929.6,-427.86 1945.51,-423.44 1960.91,-419.72"/>
<polygon fill="black" stroke="black" points="1962,-423.06 1970.94,-417.38 1960.41,-416.24 1962,-423.06"/>
<text text-anchor="start" x="1915" y="-436.8" font-family="arial" font-size="14.00" fill="#377eb8">c0 &lt; 5</text>
</g>
<!-- ID_106_ct0_st0123X&#45;&gt;ID_106_ct0_st0123X -->
<g id="edge63" class="edge">
<title>ID_106_ct0_st0123X&#45;&gt;ID_106_ct0_st0123X</title>
<path fill="none" stroke="black" d="M1803.46,-502.18C1802.54,-511.91 1809.39,-520 1824,-520 1833.13,-520 1839.23,-516.84 1842.3,-512.09"/>
<polygon fill="black" stroke="black" points="1845.75,-512.7 1844.54,-502.18 1838.92,-511.15 1845.75,-512.7"/>
<text text-anchor="start" x="1805" y="-523.8" font-family="arial" font-size="14.00" fill="#377eb8">c0 &lt; 5</text>
</g>
<!-- ID_106_ct0_st0123X&#45;&gt;ID_106_ct0_st023 -->
<g id="edge60" class="edge">
<title>ID_106_ct0_st0123X&#45;&gt;ID_106_ct0_st023</title>
<path fill="none" stroke="black" d="M1810.71,-502.12C1796.16,-528.87 1769.25,-570.04 1733,-590 1682.68,-617.71 1533.1,-611.69 1476,-618 1451.17,-620.74 1424.29,-623.74 1399.42,-626.53"/>
<polygon fill="black" stroke="black" points="1398.81,-623.08 1389.26,-627.67 1399.59,-630.03 1398.81,-623.08"/>
<text text-anchor="start" x="1516.5" y="-621.8" font-family="arial" font-size="14.00" fill="#377eb8">c0 &gt;= 5</text>
</g>
<!-- ID_106_ct0_st0123X&#45;&gt;ID_106_ct0_st0123 -->
<g id="edge64" class="edge">
<title>ID_106_ct0_st0123X&#45;&gt;ID_106_ct0_st0123</title>
<path fill="none" stroke="black" d="M1750.53,-499.67C1744.62,-501.23 1738.73,-502.7 1733,-504 1589.99,-536.48 1548.61,-516.87 1407,-555 1398.71,-557.23 1397.39,-560.18 1389,-562 1317.22,-577.53 1233.95,-581.29 1172.17,-581.44"/>
<polygon fill="black" stroke="black" points="1172.07,-577.94 1162.06,-581.43 1172.06,-584.94 1172.07,-577.94"/>
<text text-anchor="start" x="1409.5" y="-558.8" font-family="arial" font-size="14.00" fill="#377eb8">c0 &gt;= 5</text>
</g>
<!-- ID_106_ct0_st023&#45;&gt;ID_106_ct0_st0 -->
<g id="edge43" class="edge">
<title>ID_106_ct0_st023&#45;&gt;ID_106_ct0_st0</title>
<path fill="none" stroke="black" d="M1276.61,-662.21C1249.31,-685.54 1205.59,-719.48 1162,-739 967.9,-825.92 905.37,-822.66 693,-834 537.22,-842.32 493.03,-872.06 342,-833 273.73,-815.34 241.07,-728.57 227.75,-678.97"/>
<polygon fill="black" stroke="black" points="231.14,-678.09 225.27,-669.28 224.36,-679.83 231.14,-678.09"/>
<text text-anchor="start" x="722.5" y="-835.8" font-family="arial" font-size="14.00" fill="#377eb8">Q&#39;</text>
</g>
<!-- ID_106_ct0_st023&#45;&gt;ID_106_ct0_st01 -->
<g id="edge46" class="edge">
<title>ID_106_ct0_st023&#45;&gt;ID_106_ct0_st01</title>
<path fill="none" stroke="black" d="M1252.98,-662.04C1120.45,-722.46 762.4,-860.01 538,-702 469.62,-653.85 497.43,-605.66 464,-529 451.48,-500.3 435.3,-468.73 422.89,-445.47"/>
<polygon fill="black" stroke="black" points="425.81,-443.52 418,-436.36 419.65,-446.83 425.81,-443.52"/>
<text text-anchor="start" x="830" y="-778.8" font-family="arial" font-size="14.00" fill="#377eb8">true</text>
</g>
<!-- ID_106_ct0_st023&#45;&gt;ID_106_ct0_st012 -->
<g id="edge47" class="edge">
<title>ID_106_ct0_st023&#45;&gt;ID_106_ct0_st012</title>
<path fill="none" stroke="black" d="M1386.99,-662.05C1431.25,-673.69 1487.39,-685 1538.5,-685 1538.5,-685 1538.5,-685 2041,-685 2111.33,-685 2190.73,-673.04 2246.87,-662.54"/>
<polygon fill="black" stroke="black" points="2247.56,-665.97 2256.73,-660.67 2246.25,-659.09 2247.56,-665.97"/>
<text text-anchor="start" x="1798.5" y="-688.8" font-family="arial" font-size="14.00" fill="#377eb8">(Q&#39; || S&#39;)</text>
</g>
<!-- ID_106_ct0_st023&#45;&gt;ID_106_ct0_st02 -->
<g id="edge44" class="edge">
<title>ID_106_ct0_st023&#45;&gt;ID_106_ct0_st02</title>
<path fill="none" stroke="black" d="M1369.29,-611.91C1409.26,-595.78 1454.21,-577.24 1458,-574 1488.73,-547.75 1511.26,-506.74 1524.55,-477.6"/>
<polygon fill="black" stroke="black" points="1527.86,-478.77 1528.7,-468.21 1521.46,-475.94 1527.86,-478.77"/>
<text text-anchor="start" x="1407" y="-598.8" font-family="arial" font-size="14.00" fill="#377eb8">(Q&#39; || S&#39;)</text>
</g>
<!-- ID_106_ct0_st023&#45;&gt;ID_106_ct0_st023 -->
<g id="edge45" class="edge">
<title>ID_106_ct0_st023&#45;&gt;ID_106_ct0_st023</title>
<path fill="none" stroke="black" d="M1284.58,-662.18C1283.65,-671.91 1290.62,-680 1305.5,-680 1314.8,-680 1321.01,-676.84 1324.13,-672.09"/>
<polygon fill="black" stroke="black" points="1327.58,-672.71 1326.42,-662.18 1320.76,-671.13 1327.58,-672.71"/>
<text text-anchor="start" x="1293.5" y="-683.8" font-family="arial" font-size="14.00" fill="#377eb8">true</text>
</g>
<!-- ID_106_ct0_st023&#45;&gt;ID_106_ct0_st0123 -->
<g id="edge48" class="edge">
<title>ID_106_ct0_st023&#45;&gt;ID_106_ct0_st0123</title>
<path fill="none" stroke="black" d="M1221.74,-633.01C1207.67,-631.2 1193.3,-628.63 1180,-625 1165.35,-621 1150.19,-614.97 1136.27,-608.59"/>
<polygon fill="black" stroke="black" points="1137.4,-605.25 1126.86,-604.13 1134.4,-611.57 1137.4,-605.25"/>
<text text-anchor="start" x="1180" y="-633.8" font-family="arial" font-size="14.00" fill="#377eb8">true</text>
</g>
<!-- ID_106_ct0_st0123&#45;&gt;ID_106_ct0_st0 -->
<g id="edge65" class="edge">
<title>ID_106_ct0_st0123&#45;&gt;ID_106_ct0_st0</title>
<path fill="none" stroke="black" d="M1043.38,-604.13C1028.88,-615 1012.45,-628.35 999,-642 956.7,-684.93 967.68,-717.38 917,-750 766.6,-846.81 698.54,-805.13 520,-816 421.67,-821.99 380.92,-845.19 300,-789 262.33,-762.84 240.55,-712.99 229.48,-679.13"/>
<polygon fill="black" stroke="black" points="232.69,-677.68 226.38,-669.17 226.01,-679.76 232.69,-677.68"/>
<text text-anchor="start" x="608" y="-818.8" font-family="arial" font-size="14.00" fill="#377eb8">Q&#39;</text>
</g>
<!-- ID_106_ct0_st0123&#45;&gt;ID_106_ct0_st01 -->
<g id="edge68" class="edge">
<title>ID_106_ct0_st0123&#45;&gt;ID_106_ct0_st01</title>
<path fill="none" stroke="black" d="M1033.46,-553.89C1001.4,-537.02 957.33,-515.02 917,-499 820.19,-460.54 795.45,-448.88 693,-430 619.18,-416.4 533.18,-412.2 474.3,-411.06"/>
<polygon fill="black" stroke="black" points="474.06,-407.56 464,-410.89 473.94,-414.56 474.06,-407.56"/>
<text text-anchor="start" x="718" y="-444.8" font-family="arial" font-size="14.00" fill="#377eb8">true</text>
</g>
<!-- ID_106_ct0_st0123&#45;&gt;ID_106_ct0_st012 -->
<g id="edge69" class="edge">
<title>ID_106_ct0_st0123&#45;&gt;ID_106_ct0_st012</title>
<path fill="none" stroke="black" d="M1115.63,-604.05C1130.28,-615.23 1147.36,-628.82 1162,-642 1190.5,-667.66 1186.69,-689.04 1222,-704 1403.49,-780.92 1912.26,-711.14 2109,-699 2166.96,-695.42 2183.08,-701.66 2239,-686 2247.87,-683.52 2256.97,-680.12 2265.71,-676.36"/>
<polygon fill="black" stroke="black" points="2267.36,-679.45 2275.04,-672.16 2264.48,-673.07 2267.36,-679.45"/>
<text text-anchor="start" x="1651.5" y="-739.8" font-family="arial" font-size="14.00" fill="#377eb8">(Q&#39; || S&#39;)</text>
</g>
<!-- ID_106_ct0_st0123&#45;&gt;ID_106_ct0_st02 -->
<g id="edge66" class="edge">
<title>ID_106_ct0_st0123&#45;&gt;ID_106_ct0_st02</title>
<path fill="none" stroke="black" d="M1162.02,-560.2C1181.62,-555.76 1202.54,-551.11 1222,-547 1326.55,-524.91 1359.93,-543.44 1458,-501 1473.43,-494.32 1488.8,-484.3 1501.91,-474.46"/>
<polygon fill="black" stroke="black" points="1504.41,-476.95 1510.17,-468.06 1500.13,-471.42 1504.41,-476.95"/>
<text text-anchor="start" x="1280" y="-550.8" font-family="arial" font-size="14.00" fill="#377eb8">(Q&#39; || S&#39;)</text>
</g>
<!-- ID_106_ct0_st0123&#45;&gt;ID_106_ct0_st023 -->
<g id="edge67" class="edge">
<title>ID_106_ct0_st0123&#45;&gt;ID_106_ct0_st023</title>
<path fill="none" stroke="black" d="M1162.12,-595.78C1176.13,-598.98 1190.52,-602.44 1204,-606 1207.81,-607.01 1211.7,-608.06 1215.62,-609.16"/>
<polygon fill="black" stroke="black" points="1214.83,-612.57 1225.4,-611.94 1216.74,-605.84 1214.83,-612.57"/>
<text text-anchor="start" x="1180" y="-609.8" font-family="arial" font-size="14.00" fill="#377eb8">true</text>
</g>
<!-- ID_106_ct0_st0123&#45;&gt;ID_106_ct0_st0123 -->
<g id="edge70" class="edge">
<title>ID_106_ct0_st0123&#45;&gt;ID_106_ct0_st0123</title>
<path fill="none" stroke="black" d="M1059.96,-604.18C1059.04,-613.91 1065.89,-622 1080.5,-622 1089.63,-622 1095.73,-618.84 1098.8,-614.09"/>
<polygon fill="black" stroke="black" points="1102.25,-614.7 1101.04,-604.18 1095.42,-613.15 1102.25,-614.7"/>
<text text-anchor="start" x="1068.5" y="-625.8" font-family="arial" font-size="14.00" fill="#377eb8">true</text>
</g>
</g>
</svg>
