<?xml version="1.0" encoding="UTF-8" standalone="no"?>
<!DOCTYPE svg PUBLIC "-//W3C//DTD SVG 1.1//EN"
 "http://www.w3.org/Graphics/SVG/1.1/DTD/svg11.dtd">
<!-- Generated by graphviz version 2.43.0 (0)
 -->
<!-- Title: G Pages: 1 -->
<svg width="900pt" height="508pt"
 viewBox="0.00 0.00 900.00 508.00" xmlns="http://www.w3.org/2000/svg" xmlns:xlink="http://www.w3.org/1999/xlink">
<g id="graph0" class="graph" transform="scale(1 1) rotate(0) translate(4 504)">
<title>G</title>
<polygon fill="white" stroke="transparent" points="-4,4 -4,-504 896,-504 896,4 -4,4"/>
<!-- _ID_112_ct0_st -->
<!-- ID_112_ct0_st -->
<g id="node2" class="node">
<title>ID_112_ct0_st</title>
<polygon fill="none" stroke="black" points="690.5,-328 584.5,-328 584.5,-278 690.5,-278 690.5,-328"/>
<text text-anchor="start" x="592.5" y="-313.8" font-family="arial" font-weight="bold" font-size="14.00">ID_112_ct0_st</text>
<text text-anchor="start" x="625.5" y="-299.8" font-family="arial" font-size="14.00" fill="#984ea3">true</text>
<text text-anchor="start" x="625.5" y="-285.8" font-family="arial" font-size="14.00" fill="#ff7f00">true</text>
</g>
<!-- _ID_112_ct0_st&#45;&gt;ID_112_ct0_st -->
<g id="edge1" class="edge">
<title>_ID_112_ct0_st&#45;&gt;ID_112_ct0_st</title>
<path fill="none" stroke="black" d="M480.58,-304.48C509.17,-304.21 544.41,-303.88 574.15,-303.59"/>
<polygon fill="black" stroke="black" points="574.45,-307.09 584.41,-303.5 574.38,-300.09 574.45,-307.09"/>
</g>
<!-- ID_112_ct0_st&#45;&gt;ID_112_ct0_st -->
<g id="edge5" class="edge">
<title>ID_112_ct0_st&#45;&gt;ID_112_ct0_st</title>
<path fill="none" stroke="black" d="M619.57,-328.18C618.77,-337.91 624.75,-346 637.5,-346 645.47,-346 650.79,-342.84 653.47,-338.09"/>
<polygon fill="black" stroke="black" points="656.92,-338.66 655.43,-328.18 650.06,-337.31 656.92,-338.66"/>
<text text-anchor="start" x="625.5" y="-349.8" font-family="arial" font-size="14.00" fill="#377eb8">true</text>
</g>
<!-- _ID_112_ct0_st0 -->
<!-- ID_112_ct0_st0 -->
<g id="node4" class="node">
<title>ID_112_ct0_st0</title>
<polygon fill="none" stroke="black" points="274,-268 161,-268 161,-218 274,-218 274,-268"/>
<text text-anchor="start" x="169" y="-253.8" font-family="arial" font-weight="bold" font-size="14.00">ID_112_ct0_st0</text>
<text text-anchor="start" x="187" y="-239.8" font-family="arial" font-size="14.00" fill="#984ea3">(!P &amp;&amp; !R)</text>
<text text-anchor="start" x="205.5" y="-225.8" font-family="arial" font-size="14.00" fill="#ff7f00">true</text>
</g>
<!-- _ID_112_ct0_st0&#45;&gt;ID_112_ct0_st0 -->
<g id="edge2" class="edge">
<title>_ID_112_ct0_st0&#45;&gt;ID_112_ct0_st0</title>
<path fill="none" stroke="black" d="M118.27,-243C128.81,-243 139.87,-243 150.6,-243"/>
<polygon fill="black" stroke="black" points="150.77,-246.5 160.77,-243 150.77,-239.5 150.77,-246.5"/>
</g>
<!-- ID_112_ct0_st0&#45;&gt;ID_112_ct0_st -->
<g id="edge6" class="edge">
<title>ID_112_ct0_st0&#45;&gt;ID_112_ct0_st</title>
<path fill="none" stroke="black" d="M274.19,-244.17C328.55,-246.01 413.44,-250.75 486,-263 515.56,-267.99 547.75,-276.16 574.74,-283.82"/>
<polygon fill="black" stroke="black" points="573.86,-287.21 584.44,-286.61 575.8,-280.48 573.86,-287.21"/>
<text text-anchor="start" x="419" y="-266.8" font-family="arial" font-size="14.00" fill="#377eb8">P&#39;</text>
</g>
<!-- ID_112_ct0_st0&#45;&gt;ID_112_ct0_st0 -->
<g id="edge7" class="edge">
<title>ID_112_ct0_st0&#45;&gt;ID_112_ct0_st0</title>
<path fill="none" stroke="black" d="M202.56,-268.18C201.89,-277.91 206.88,-286 217.5,-286 224.14,-286 228.58,-282.84 230.81,-278.09"/>
<polygon fill="black" stroke="black" points="234.27,-278.61 232.44,-268.18 227.36,-277.47 234.27,-278.61"/>
<text text-anchor="start" x="205.5" y="-289.8" font-family="arial" font-size="14.00" fill="#377eb8">true</text>
</g>
<!-- ID_112_ct0_st01 -->
<g id="node6" class="node">
<title>ID_112_ct0_st01</title>
<polygon fill="none" stroke="black" points="486,-174 365,-174 365,-124 486,-124 486,-174"/>
<text text-anchor="start" x="373" y="-159.8" font-family="arial" font-weight="bold" font-size="14.00">ID_112_ct0_st01</text>
<text text-anchor="start" x="375" y="-145.8" font-family="arial" font-size="14.00" fill="#984ea3">(!P &amp;&amp; (R &amp;&amp; S))</text>
<text text-anchor="start" x="413.5" y="-131.8" font-family="arial" font-size="14.00" fill="#ff7f00">true</text>
</g>
<!-- ID_112_ct0_st0&#45;&gt;ID_112_ct0_st01 -->
<g id="edge8" class="edge">
<title>ID_112_ct0_st0&#45;&gt;ID_112_ct0_st01</title>
<path fill="none" stroke="black" d="M244.92,-217.85C259.55,-205.14 278.66,-190.46 298,-181 315.67,-172.35 335.92,-165.89 354.95,-161.12"/>
<polygon fill="black" stroke="black" points="355.86,-164.5 364.78,-158.78 354.24,-157.7 355.86,-164.5"/>
<text text-anchor="start" x="310.5" y="-184.8" font-family="arial" font-size="14.00" fill="#377eb8">true</text>
</g>
<!-- ID_112_ct0_st012 -->
<g id="node8" class="node">
<title>ID_112_ct0_st012</title>
<polygon fill="none" stroke="black" points="892,-216 764,-216 764,-166 892,-166 892,-216"/>
<text text-anchor="start" x="772" y="-201.8" font-family="arial" font-weight="bold" font-size="14.00">ID_112_ct0_st012</text>
<text text-anchor="start" x="775.5" y="-187.8" font-family="arial" font-size="14.00" fill="#984ea3">(!P &amp;&amp; (R &amp;&amp; !S))</text>
<text text-anchor="start" x="816" y="-173.8" font-family="arial" font-size="14.00" fill="#ff7f00">true</text>
</g>
<!-- ID_112_ct0_st0&#45;&gt;ID_112_ct0_st012 -->
<g id="edge9" class="edge">
<title>ID_112_ct0_st0&#45;&gt;ID_112_ct0_st012</title>
<path fill="none" stroke="black" d="M222.66,-268.17C230.27,-305.18 250.29,-373.11 298,-403 466.73,-508.71 582.58,-516.75 746,-403 803.84,-362.74 820.4,-275.24 825.12,-226.17"/>
<polygon fill="black" stroke="black" points="828.63,-226.28 825.99,-216.02 821.65,-225.69 828.63,-226.28"/>
<text text-anchor="start" x="516.5" y="-488.8" font-family="arial" font-size="14.00" fill="#377eb8">true</text>
</g>
<!-- _ID_112_ct0_st01 -->
<!-- _ID_112_ct0_st01&#45;&gt;ID_112_ct0_st01 -->
<g id="edge3" class="edge">
<title>_ID_112_ct0_st01&#45;&gt;ID_112_ct0_st01</title>
<path fill="none" stroke="black" d="M247.14,-36.21C280.62,-57.5 336.53,-93.06 376.63,-118.56"/>
<polygon fill="black" stroke="black" points="374.87,-121.59 385.18,-124 378.62,-115.68 374.87,-121.59"/>
</g>
<!-- ID_112_ct0_st01&#45;&gt;ID_112_ct0_st -->
<g id="edge10" class="edge">
<title>ID_112_ct0_st01&#45;&gt;ID_112_ct0_st</title>
<path fill="none" stroke="black" d="M460.84,-174.24C474.03,-183.46 489.42,-193.67 504,-202 524.89,-213.94 536.42,-207.56 553,-225 567.56,-240.31 556.75,-253.4 571,-269 572.58,-270.73 574.27,-272.39 576.04,-273.97"/>
<polygon fill="black" stroke="black" points="574.26,-277.02 584.28,-280.46 578.59,-271.52 574.26,-277.02"/>
<text text-anchor="start" x="522" y="-228.8" font-family="arial" font-size="14.00" fill="#377eb8">P&#39;</text>
</g>
<!-- ID_112_ct0_st01&#45;&gt;ID_112_ct0_st0 -->
<g id="edge11" class="edge">
<title>ID_112_ct0_st01&#45;&gt;ID_112_ct0_st0</title>
<path fill="none" stroke="black" d="M386.3,-174.19C374.03,-181.73 360.19,-189.66 347,-196 326.94,-205.64 304.36,-214.51 283.79,-221.9"/>
<polygon fill="black" stroke="black" points="282.45,-218.66 274.18,-225.29 284.78,-225.26 282.45,-218.66"/>
<text text-anchor="start" x="298" y="-219.8" font-family="arial" font-size="14.00" fill="#377eb8">(P&#39; || S&#39;)</text>
</g>
<!-- ID_112_ct0_st01&#45;&gt;ID_112_ct0_st01 -->
<g id="edge13" class="edge">
<title>ID_112_ct0_st01&#45;&gt;ID_112_ct0_st01</title>
<path fill="none" stroke="black" d="M406.45,-174.18C405.6,-183.91 411.95,-192 425.5,-192 433.97,-192 439.62,-188.84 442.47,-184.09"/>
<polygon fill="black" stroke="black" points="445.92,-184.68 444.55,-174.18 439.07,-183.24 445.92,-184.68"/>
<text text-anchor="start" x="413.5" y="-195.8" font-family="arial" font-size="14.00" fill="#377eb8">true</text>
</g>
<!-- ID_112_ct0_st01&#45;&gt;ID_112_ct0_st012 -->
<g id="edge14" class="edge">
<title>ID_112_ct0_st01&#45;&gt;ID_112_ct0_st012</title>
<path fill="none" stroke="black" d="M486.15,-156.01C492.18,-156.69 498.21,-157.37 504,-158 589.64,-167.35 688.14,-177.29 753.62,-183.79"/>
<polygon fill="black" stroke="black" points="753.55,-187.3 763.84,-184.81 754.24,-180.34 753.55,-187.3"/>
<text text-anchor="start" x="625.5" y="-182.8" font-family="arial" font-size="14.00" fill="#377eb8">true</text>
</g>
<!-- ID_112_ct0_st02 -->
<g id="node9" class="node">
<title>ID_112_ct0_st02</title>
<polygon fill="none" stroke="black" points="700,-71 575,-71 575,-21 700,-21 700,-71"/>
<text text-anchor="start" x="585" y="-56.8" font-family="arial" font-weight="bold" font-size="14.00">ID_112_ct0_st02</text>
<text text-anchor="start" x="583" y="-42.8" font-family="arial" font-size="14.00" fill="#984ea3">(!P &amp;&amp; (!R &amp;&amp; !S))</text>
<text text-anchor="start" x="625.5" y="-28.8" font-family="arial" font-size="14.00" fill="#ff7f00">true</text>
</g>
<!-- ID_112_ct0_st01&#45;&gt;ID_112_ct0_st02 -->
<g id="edge12" class="edge">
<title>ID_112_ct0_st01&#45;&gt;ID_112_ct0_st02</title>
<path fill="none" stroke="black" d="M483.39,-123.9C510.51,-111.82 539.86,-98.57 553,-92 563.08,-86.96 573.7,-81.35 583.86,-75.83"/>
<polygon fill="black" stroke="black" points="585.56,-78.89 592.65,-71.02 582.2,-72.75 585.56,-78.89"/>
<text text-anchor="start" x="516.5" y="-117.8" font-family="arial" font-size="14.00" fill="#377eb8">true</text>
</g>
<!-- _ID_112_ct0_st012 -->
<!-- _ID_112_ct0_st012&#45;&gt;ID_112_ct0_st012 -->
<g id="edge4" class="edge">
<title>_ID_112_ct0_st012&#45;&gt;ID_112_ct0_st012</title>
<path fill="none" stroke="black" d="M704.16,-224.23C720.18,-219.9 737.41,-215.24 753.75,-210.82"/>
<polygon fill="black" stroke="black" points="755.05,-214.09 763.79,-208.1 753.23,-207.33 755.05,-214.09"/>
</g>
<!-- ID_112_ct0_st012&#45;&gt;ID_112_ct0_st0 -->
<g id="edge19" class="edge">
<title>ID_112_ct0_st012&#45;&gt;ID_112_ct0_st0</title>
<path fill="none" stroke="black" d="M818.49,-216.18C803.07,-257.22 766.23,-337.25 704,-370 552.9,-449.51 348.63,-332.86 261.14,-273.79"/>
<polygon fill="black" stroke="black" points="263.02,-270.84 252.79,-268.09 259.08,-276.62 263.02,-270.84"/>
<text text-anchor="start" x="504" y="-397.8" font-family="arial" font-size="14.00" fill="#377eb8">(P&#39; || S&#39;)</text>
</g>
<!-- ID_112_ct0_st012&#45;&gt;ID_112_ct0_st01 -->
<g id="edge21" class="edge">
<title>ID_112_ct0_st012&#45;&gt;ID_112_ct0_st01</title>
<path fill="none" stroke="black" d="M769.92,-165.98C749.53,-158.29 726.12,-150.84 704,-147 634.06,-134.87 552.71,-137.36 496.25,-141.67"/>
<polygon fill="black" stroke="black" points="495.7,-138.2 486.01,-142.49 496.26,-145.18 495.7,-138.2"/>
<text text-anchor="start" x="625.5" y="-150.8" font-family="arial" font-size="14.00" fill="#377eb8">true</text>
</g>
<!-- ID_112_ct0_st012&#45;&gt;ID_112_ct0_st012 -->
<g id="edge22" class="edge">
<title>ID_112_ct0_st012&#45;&gt;ID_112_ct0_st012</title>
<path fill="none" stroke="black" d="M810.44,-216.18C809.66,-225.91 815.52,-234 828,-234 835.8,-234 841.01,-230.84 843.64,-226.09"/>
<polygon fill="black" stroke="black" points="847.09,-226.66 845.56,-216.18 840.22,-225.33 847.09,-226.66"/>
<text text-anchor="start" x="816" y="-237.8" font-family="arial" font-size="14.00" fill="#377eb8">true</text>
</g>
<!-- ID_112_ct0_st012&#45;&gt;ID_112_ct0_st02 -->
<g id="edge20" class="edge">
<title>ID_112_ct0_st012&#45;&gt;ID_112_ct0_st02</title>
<path fill="none" stroke="black" d="M804.61,-165.99C789.06,-149.38 767.37,-127.63 746,-111 729.95,-98.51 711.33,-86.49 694.15,-76.26"/>
<polygon fill="black" stroke="black" points="695.71,-73.12 685.31,-71.08 692.17,-79.16 695.71,-73.12"/>
<text text-anchor="start" x="722" y="-114.8" font-family="arial" font-size="14.00" fill="#377eb8">true</text>
</g>
<!-- ID_112_ct0_st02&#45;&gt;ID_112_ct0_st0 -->
<g id="edge15" class="edge">
<title>ID_112_ct0_st02&#45;&gt;ID_112_ct0_st0</title>
<path fill="none" stroke="black" d="M574.72,-47.36C517.07,-51.05 430.35,-63 365,-100 315.39,-128.09 270.43,-177.12 243.77,-209.82"/>
<polygon fill="black" stroke="black" points="240.93,-207.77 237.4,-217.76 246.39,-212.16 240.93,-207.77"/>
<text text-anchor="start" x="401" y="-103.8" font-family="arial" font-size="14.00" fill="#377eb8">(P&#39; || S&#39;)</text>
</g>
<!-- ID_112_ct0_st02&#45;&gt;ID_112_ct0_st01 -->
<g id="edge17" class="edge">
<title>ID_112_ct0_st02&#45;&gt;ID_112_ct0_st01</title>
<path fill="none" stroke="black" d="M574.97,-51.08C551.72,-54.88 525.67,-61.49 504,-73 484.16,-83.54 465.99,-100.75 452.24,-116.12"/>
<polygon fill="black" stroke="black" points="449.36,-114.1 445.47,-123.95 454.66,-118.68 449.36,-114.1"/>
<text text-anchor="start" x="516.5" y="-76.8" font-family="arial" font-size="14.00" fill="#377eb8">true</text>
</g>
<!-- ID_112_ct0_st02&#45;&gt;ID_112_ct0_st012 -->
<g id="edge18" class="edge">
<title>ID_112_ct0_st02&#45;&gt;ID_112_ct0_st012</title>
<path fill="none" stroke="black" d="M700.09,-49.45C716.04,-52.56 732.51,-57.92 746,-67 778.29,-88.74 800.72,-128.13 813.65,-156.69"/>
<polygon fill="black" stroke="black" points="810.47,-158.16 817.68,-165.92 816.89,-155.36 810.47,-158.16"/>
<text text-anchor="start" x="722" y="-70.8" font-family="arial" font-size="14.00" fill="#377eb8">true</text>
</g>
<!-- ID_112_ct0_st02&#45;&gt;ID_112_ct0_st02 -->
<g id="edge16" class="edge">
<title>ID_112_ct0_st02&#45;&gt;ID_112_ct0_st02</title>
<path fill="none" stroke="black" d="M619.57,-71.18C618.77,-80.91 624.75,-89 637.5,-89 645.47,-89 650.79,-85.84 653.47,-81.09"/>
<polygon fill="black" stroke="black" points="656.92,-81.66 655.43,-71.18 650.06,-80.31 656.92,-81.66"/>
<text text-anchor="start" x="625.5" y="-92.8" font-family="arial" font-size="14.00" fill="#377eb8">true</text>
</g>
</g>
</svg>
