<?xml version="1.0" encoding="UTF-8" standalone="no"?>
<!DOCTYPE svg PUBLIC "-//W3C//DTD SVG 1.1//EN"
 "http://www.w3.org/Graphics/SVG/1.1/DTD/svg11.dtd">
<!-- Generated by graphviz version 2.43.0 (0)
 -->
<!-- Title: G Pages: 1 -->
<svg width="912pt" height="418pt"
 viewBox="0.00 0.00 912.00 417.97" xmlns="http://www.w3.org/2000/svg" xmlns:xlink="http://www.w3.org/1999/xlink">
<g id="graph0" class="graph" transform="scale(1 1) rotate(0) translate(4 413.97)">
<title>G</title>
<polygon fill="white" stroke="transparent" points="-4,4 -4,-413.97 908,-413.97 908,4 -4,4"/>
<!-- _ID_137_ct0_stinit -->
<!-- ID_137_ct0_stinit -->
<g id="node2" class="node">
<title>ID_137_ct0_stinit</title>
<polygon fill="none" stroke="black" points="496,-376.97 369,-376.97 369,-326.97 496,-326.97 496,-376.97"/>
<text text-anchor="start" x="377" y="-362.77" font-family="arial" font-weight="bold" font-size="14.00">ID_137_ct0_stinit</text>
<text text-anchor="start" x="427.5" y="-348.77" font-family="arial" font-size="14.00" fill="#984ea3">P</text>
<text text-anchor="start" x="420.5" y="-334.77" font-family="arial" font-size="14.00" fill="#ff7f00">true</text>
</g>
<!-- _ID_137_ct0_stinit&#45;&gt;ID_137_ct0_stinit -->
<g id="edge1" class="edge">
<title>_ID_137_ct0_stinit&#45;&gt;ID_137_ct0_stinit</title>
<path fill="none" stroke="black" d="M284.16,-358.97C307.57,-357.85 334.32,-356.58 358.54,-355.43"/>
<polygon fill="black" stroke="black" points="358.93,-358.92 368.75,-354.95 358.6,-351.93 358.93,-358.92"/>
</g>
<!-- ID_137_ct0_stinit&#45;&gt;ID_137_ct0_stinit -->
<g id="edge6" class="edge">
<title>ID_137_ct0_stinit&#45;&gt;ID_137_ct0_stinit</title>
<path fill="none" stroke="black" d="M412.7,-377.14C411.82,-386.88 418.42,-394.97 432.5,-394.97 441.3,-394.97 447.18,-391.81 450.13,-387.06"/>
<polygon fill="black" stroke="black" points="453.58,-387.66 452.3,-377.14 446.74,-386.16 453.58,-387.66"/>
<text text-anchor="start" x="420.5" y="-398.77" font-family="arial" font-size="14.00" fill="#377eb8">true</text>
</g>
<!-- ID_137_ct0_st -->
<g id="node9" class="node">
<title>ID_137_ct0_st</title>
<polygon fill="none" stroke="black" points="701.5,-327.97 594.5,-327.97 594.5,-277.97 701.5,-277.97 701.5,-327.97"/>
<text text-anchor="start" x="602.5" y="-313.77" font-family="arial" font-weight="bold" font-size="14.00">ID_137_ct0_st</text>
<text text-anchor="start" x="636" y="-299.77" font-family="arial" font-size="14.00" fill="#984ea3">true</text>
<text text-anchor="start" x="636" y="-285.77" font-family="arial" font-size="14.00" fill="#ff7f00">true</text>
</g>
<!-- ID_137_ct0_stinit&#45;&gt;ID_137_ct0_st -->
<g id="edge5" class="edge">
<title>ID_137_ct0_stinit&#45;&gt;ID_137_ct0_st</title>
<path fill="none" stroke="black" d="M496.11,-337.6C523.95,-331.21 556.64,-323.7 584.47,-317.32"/>
<polygon fill="black" stroke="black" points="585.52,-320.67 594.48,-315.02 583.95,-313.85 585.52,-320.67"/>
<text text-anchor="start" x="526.5" y="-336.77" font-family="arial" font-size="14.00" fill="#377eb8">true</text>
</g>
<!-- _ID_137_ct0_st0 -->
<!-- ID_137_ct0_st0 -->
<g id="node4" class="node">
<title>ID_137_ct0_st0</title>
<polygon fill="none" stroke="black" points="277,-157.97 163,-157.97 163,-107.97 277,-107.97 277,-157.97"/>
<text text-anchor="start" x="171" y="-143.77" font-family="arial" font-weight="bold" font-size="14.00">ID_137_ct0_st0</text>
<text text-anchor="start" x="189.5" y="-129.77" font-family="arial" font-size="14.00" fill="#984ea3">(!P &amp;&amp; !R)</text>
<text text-anchor="start" x="208" y="-115.77" font-family="arial" font-size="14.00" fill="#ff7f00">true</text>
</g>
<!-- _ID_137_ct0_st0&#45;&gt;ID_137_ct0_st0 -->
<g id="edge2" class="edge">
<title>_ID_137_ct0_st0&#45;&gt;ID_137_ct0_st0</title>
<path fill="none" stroke="black" d="M119.07,-132.97C130.01,-132.97 141.51,-132.97 152.66,-132.97"/>
<polygon fill="black" stroke="black" points="152.78,-136.47 162.78,-132.97 152.78,-129.47 152.78,-136.47"/>
</g>
<!-- ID_137_ct0_st0&#45;&gt;ID_137_ct0_st0 -->
<g id="edge9" class="edge">
<title>ID_137_ct0_st0&#45;&gt;ID_137_ct0_st0</title>
<path fill="none" stroke="black" d="M204.69,-158.14C204,-167.88 209.11,-175.97 220,-175.97 226.81,-175.97 231.35,-172.81 233.64,-168.06"/>
<polygon fill="black" stroke="black" points="237.1,-168.58 235.31,-158.14 230.2,-167.42 237.1,-168.58"/>
<text text-anchor="start" x="208" y="-179.77" font-family="arial" font-size="14.00" fill="#377eb8">true</text>
</g>
<!-- ID_137_ct0_st01 -->
<g id="node6" class="node">
<title>ID_137_ct0_st01</title>
<polygon fill="none" stroke="black" points="493.5,-207.97 371.5,-207.97 371.5,-157.97 493.5,-157.97 493.5,-207.97"/>
<text text-anchor="start" x="379.5" y="-193.77" font-family="arial" font-weight="bold" font-size="14.00">ID_137_ct0_st01</text>
<text text-anchor="start" x="382" y="-179.77" font-family="arial" font-size="14.00" fill="#984ea3">(!P &amp;&amp; (R &amp;&amp; S))</text>
<text text-anchor="start" x="420.5" y="-165.77" font-family="arial" font-size="14.00" fill="#ff7f00">true</text>
</g>
<!-- ID_137_ct0_st0&#45;&gt;ID_137_ct0_st01 -->
<g id="edge10" class="edge">
<title>ID_137_ct0_st0&#45;&gt;ID_137_ct0_st01</title>
<path fill="none" stroke="black" d="M277.29,-137.12C300.39,-139.65 327.24,-143.66 351,-149.97 355.89,-151.27 360.88,-152.79 365.86,-154.46"/>
<polygon fill="black" stroke="black" points="364.81,-157.8 375.4,-157.82 367.13,-151.2 364.81,-157.8"/>
<text text-anchor="start" x="314.5" y="-153.77" font-family="arial" font-size="14.00" fill="#377eb8">true</text>
</g>
<!-- ID_137_ct0_st012 -->
<g id="node8" class="node">
<title>ID_137_ct0_st012</title>
<polygon fill="none" stroke="black" points="904,-114.97 775,-114.97 775,-64.97 904,-64.97 904,-114.97"/>
<text text-anchor="start" x="783" y="-100.77" font-family="arial" font-weight="bold" font-size="14.00">ID_137_ct0_st012</text>
<text text-anchor="start" x="787" y="-86.77" font-family="arial" font-size="14.00" fill="#984ea3">(!P &amp;&amp; (R &amp;&amp; !S))</text>
<text text-anchor="start" x="827.5" y="-72.77" font-family="arial" font-size="14.00" fill="#ff7f00">true</text>
</g>
<!-- ID_137_ct0_st0&#45;&gt;ID_137_ct0_st012 -->
<g id="edge11" class="edge">
<title>ID_137_ct0_st0&#45;&gt;ID_137_ct0_st012</title>
<path fill="none" stroke="black" d="M277.31,-107.85C368.63,-70.14 554.96,-5.76 715,-29.97 742.45,-34.12 770.48,-46.91 792.89,-59.62"/>
<polygon fill="black" stroke="black" points="791.41,-62.81 801.81,-64.84 794.95,-56.77 791.41,-62.81"/>
<text text-anchor="start" x="526.5" y="-40.77" font-family="arial" font-size="14.00" fill="#377eb8">true</text>
</g>
<!-- ID_137_ct0_st0&#45;&gt;ID_137_ct0_st -->
<g id="edge8" class="edge">
<title>ID_137_ct0_st0&#45;&gt;ID_137_ct0_st</title>
<path fill="none" stroke="black" d="M245.17,-158.29C272.57,-185.39 319.85,-227.5 369,-249.97 438.45,-281.71 526.04,-294.44 584.14,-299.55"/>
<polygon fill="black" stroke="black" points="584.02,-303.05 594.28,-300.39 584.6,-296.08 584.02,-303.05"/>
<text text-anchor="start" x="426" y="-289.77" font-family="arial" font-size="14.00" fill="#377eb8">P&#39;</text>
</g>
<!-- _ID_137_ct0_st01 -->
<!-- _ID_137_ct0_st01&#45;&gt;ID_137_ct0_st01 -->
<g id="edge3" class="edge">
<title>_ID_137_ct0_st01&#45;&gt;ID_137_ct0_st01</title>
<path fill="none" stroke="black" d="M251.61,-289.79C285.39,-269.73 340.31,-237.12 380.59,-213.2"/>
<polygon fill="black" stroke="black" points="382.4,-216.19 389.21,-208.08 378.82,-210.18 382.4,-216.19"/>
</g>
<!-- ID_137_ct0_st01&#45;&gt;ID_137_ct0_st0 -->
<g id="edge13" class="edge">
<title>ID_137_ct0_st01&#45;&gt;ID_137_ct0_st0</title>
<path fill="none" stroke="black" d="M371.28,-177.61C349.25,-174.87 324.28,-170.83 302,-164.97 297.01,-163.65 291.91,-162.12 286.82,-160.45"/>
<polygon fill="black" stroke="black" points="287.67,-157.04 277.07,-157.1 285.39,-163.66 287.67,-157.04"/>
<text text-anchor="start" x="302" y="-177.77" font-family="arial" font-size="14.00" fill="#377eb8">(P&#39; || S&#39;)</text>
</g>
<!-- ID_137_ct0_st01&#45;&gt;ID_137_ct0_st01 -->
<g id="edge15" class="edge">
<title>ID_137_ct0_st01&#45;&gt;ID_137_ct0_st01</title>
<path fill="none" stroke="black" d="M412.7,-208.14C411.82,-217.88 418.42,-225.97 432.5,-225.97 441.3,-225.97 447.18,-222.81 450.13,-218.06"/>
<polygon fill="black" stroke="black" points="453.58,-218.66 452.3,-208.14 446.74,-217.16 453.58,-218.66"/>
<text text-anchor="start" x="420.5" y="-229.77" font-family="arial" font-size="14.00" fill="#377eb8">true</text>
</g>
<!-- ID_137_ct0_st01&#45;&gt;ID_137_ct0_st012 -->
<g id="edge16" class="edge">
<title>ID_137_ct0_st01&#45;&gt;ID_137_ct0_st012</title>
<path fill="none" stroke="black" d="M489.22,-157.96C491.57,-156.37 493.84,-154.7 496,-152.97 506.12,-144.83 505.89,-140.1 514,-129.97 543.39,-93.21 538.48,-68.13 581,-47.97 643.93,-18.12 724.16,-39.28 778.21,-60.94"/>
<polygon fill="black" stroke="black" points="777.07,-64.26 787.65,-64.84 779.74,-57.79 777.07,-64.26"/>
<text text-anchor="start" x="636" y="-51.77" font-family="arial" font-size="14.00" fill="#377eb8">true</text>
</g>
<!-- ID_137_ct0_st01&#45;&gt;ID_137_ct0_st -->
<g id="edge12" class="edge">
<title>ID_137_ct0_st01&#45;&gt;ID_137_ct0_st</title>
<path fill="none" stroke="black" d="M484.65,-208.09C509.03,-220.79 538.21,-237.07 563,-253.97 571.61,-259.83 572.32,-263.21 581,-268.97 582.88,-270.21 584.81,-271.44 586.77,-272.66"/>
<polygon fill="black" stroke="black" points="585.17,-275.78 595.56,-277.88 588.75,-269.76 585.17,-275.78"/>
<text text-anchor="start" x="532" y="-257.77" font-family="arial" font-size="14.00" fill="#377eb8">P&#39;</text>
</g>
<!-- ID_137_ct0_st02 -->
<g id="node10" class="node">
<title>ID_137_ct0_st02</title>
<polygon fill="none" stroke="black" points="710.5,-226.97 585.5,-226.97 585.5,-176.97 710.5,-176.97 710.5,-226.97"/>
<text text-anchor="start" x="595" y="-212.77" font-family="arial" font-weight="bold" font-size="14.00">ID_137_ct0_st02</text>
<text text-anchor="start" x="593.5" y="-198.77" font-family="arial" font-size="14.00" fill="#984ea3">(!P &amp;&amp; (!R &amp;&amp; !S))</text>
<text text-anchor="start" x="636" y="-184.77" font-family="arial" font-size="14.00" fill="#ff7f00">true</text>
</g>
<!-- ID_137_ct0_st01&#45;&gt;ID_137_ct0_st02 -->
<g id="edge14" class="edge">
<title>ID_137_ct0_st01&#45;&gt;ID_137_ct0_st02</title>
<path fill="none" stroke="black" d="M493.68,-176.22C515.59,-174.93 540.5,-174.81 563,-177.97 567.14,-178.55 571.36,-179.28 575.6,-180.13"/>
<polygon fill="black" stroke="black" points="574.97,-183.57 585.49,-182.29 576.47,-176.73 574.97,-183.57"/>
<text text-anchor="start" x="526.5" y="-181.77" font-family="arial" font-size="14.00" fill="#377eb8">true</text>
</g>
<!-- _ID_137_ct0_st012 -->
<!-- _ID_137_ct0_st012&#45;&gt;ID_137_ct0_st012 -->
<g id="edge4" class="edge">
<title>_ID_137_ct0_st012&#45;&gt;ID_137_ct0_st012</title>
<path fill="none" stroke="black" d="M715.01,-89.97C731.11,-89.97 748.43,-89.97 764.86,-89.97"/>
<polygon fill="black" stroke="black" points="764.96,-93.47 774.96,-89.97 764.96,-86.47 764.96,-93.47"/>
</g>
<!-- ID_137_ct0_st012&#45;&gt;ID_137_ct0_st0 -->
<g id="edge21" class="edge">
<title>ID_137_ct0_st012&#45;&gt;ID_137_ct0_st0</title>
<path fill="none" stroke="black" d="M810.58,-64.79C795.66,-52.57 776.39,-38.69 757,-29.97 658.21,14.49 621.9,-1.37 514,-10.97 448.79,-16.77 430.33,-14.04 369,-36.97 336.52,-49.11 331.17,-58.21 302,-76.97 289.74,-84.85 276.65,-93.7 264.66,-102"/>
<polygon fill="black" stroke="black" points="262.35,-99.33 256.14,-107.91 266.35,-105.08 262.35,-99.33"/>
<text text-anchor="start" x="514" y="-14.77" font-family="arial" font-size="14.00" fill="#377eb8">(P&#39; || S&#39;)</text>
</g>
<!-- ID_137_ct0_st012&#45;&gt;ID_137_ct0_st01 -->
<g id="edge23" class="edge">
<title>ID_137_ct0_st012&#45;&gt;ID_137_ct0_st01</title>
<path fill="none" stroke="black" d="M774.97,-104.56C701.27,-121.48 580.14,-149.29 503.71,-166.84"/>
<polygon fill="black" stroke="black" points="502.66,-163.49 493.7,-169.14 504.22,-170.32 502.66,-163.49"/>
<text text-anchor="start" x="636" y="-151.77" font-family="arial" font-size="14.00" fill="#377eb8">true</text>
</g>
<!-- ID_137_ct0_st012&#45;&gt;ID_137_ct0_st012 -->
<g id="edge24" class="edge">
<title>ID_137_ct0_st012&#45;&gt;ID_137_ct0_st012</title>
<path fill="none" stroke="black" d="M821.94,-115.14C821.16,-124.88 827.02,-132.97 839.5,-132.97 847.3,-132.97 852.51,-129.81 855.14,-125.06"/>
<polygon fill="black" stroke="black" points="858.59,-125.62 857.06,-115.14 851.72,-124.29 858.59,-125.62"/>
<text text-anchor="start" x="827.5" y="-136.77" font-family="arial" font-size="14.00" fill="#377eb8">true</text>
</g>
<!-- ID_137_ct0_st012&#45;&gt;ID_137_ct0_st02 -->
<g id="edge22" class="edge">
<title>ID_137_ct0_st012&#45;&gt;ID_137_ct0_st02</title>
<path fill="none" stroke="black" d="M824.29,-115.32C810.25,-137.79 786.62,-169.51 757,-185.97 745.95,-192.1 733.33,-196.13 720.71,-198.73"/>
<polygon fill="black" stroke="black" points="719.85,-195.32 710.62,-200.52 721.07,-202.22 719.85,-195.32"/>
<text text-anchor="start" x="733" y="-198.77" font-family="arial" font-size="14.00" fill="#377eb8">true</text>
</g>
<!-- ID_137_ct0_st&#45;&gt;ID_137_ct0_st -->
<g id="edge7" class="edge">
<title>ID_137_ct0_st&#45;&gt;ID_137_ct0_st</title>
<path fill="none" stroke="black" d="M630.07,-328.14C629.27,-337.88 635.25,-345.97 648,-345.97 655.97,-345.97 661.29,-342.81 663.97,-338.06"/>
<polygon fill="black" stroke="black" points="667.42,-338.63 665.93,-328.14 660.56,-337.27 667.42,-338.63"/>
<text text-anchor="start" x="636" y="-349.77" font-family="arial" font-size="14.00" fill="#377eb8">true</text>
</g>
<!-- ID_137_ct0_st02&#45;&gt;ID_137_ct0_st0 -->
<g id="edge17" class="edge">
<title>ID_137_ct0_st02&#45;&gt;ID_137_ct0_st0</title>
<path fill="none" stroke="black" d="M604.4,-176.95C575.03,-161.2 534.5,-142.31 496,-133.97 425.94,-118.78 343.46,-121.07 287.23,-125.55"/>
<polygon fill="black" stroke="black" points="286.71,-122.08 277.04,-126.41 287.3,-129.06 286.71,-122.08"/>
<text text-anchor="start" x="408" y="-137.77" font-family="arial" font-size="14.00" fill="#377eb8">(P&#39; || S&#39;)</text>
</g>
<!-- ID_137_ct0_st02&#45;&gt;ID_137_ct0_st01 -->
<g id="edge19" class="edge">
<title>ID_137_ct0_st02&#45;&gt;ID_137_ct0_st01</title>
<path fill="none" stroke="black" d="M585.36,-198.52C562.88,-197.07 537.27,-195.2 514,-192.97 510.71,-192.65 507.34,-192.31 503.94,-191.95"/>
<polygon fill="black" stroke="black" points="504,-188.43 493.68,-190.82 503.24,-195.39 504,-188.43"/>
<text text-anchor="start" x="526.5" y="-199.77" font-family="arial" font-size="14.00" fill="#377eb8">true</text>
</g>
<!-- ID_137_ct0_st02&#45;&gt;ID_137_ct0_st012 -->
<g id="edge20" class="edge">
<title>ID_137_ct0_st02&#45;&gt;ID_137_ct0_st012</title>
<path fill="none" stroke="black" d="M710.66,-178.45C726.19,-171.64 742.55,-163.67 757,-154.97 772.94,-145.37 789.23,-133 803.01,-121.62"/>
<polygon fill="black" stroke="black" points="805.4,-124.18 810.81,-115.07 800.9,-118.82 805.4,-124.18"/>
<text text-anchor="start" x="733" y="-170.77" font-family="arial" font-size="14.00" fill="#377eb8">true</text>
</g>
<!-- ID_137_ct0_st02&#45;&gt;ID_137_ct0_st02 -->
<g id="edge18" class="edge">
<title>ID_137_ct0_st02&#45;&gt;ID_137_ct0_st02</title>
<path fill="none" stroke="black" d="M630.07,-227.14C629.27,-236.88 635.25,-244.97 648,-244.97 655.97,-244.97 661.29,-241.81 663.97,-237.06"/>
<polygon fill="black" stroke="black" points="667.42,-237.63 665.93,-227.14 660.56,-236.27 667.42,-237.63"/>
<text text-anchor="start" x="636" y="-248.77" font-family="arial" font-size="14.00" fill="#377eb8">true</text>
</g>
</g>
</svg>
