<?xml version="1.0" encoding="UTF-8" standalone="no"?>
<!DOCTYPE svg PUBLIC "-//W3C//DTD SVG 1.1//EN"
 "http://www.w3.org/Graphics/SVG/1.1/DTD/svg11.dtd">
<!-- Generated by graphviz version 2.43.0 (0)
 -->
<!-- Title: G Pages: 1 -->
<svg width="1957pt" height="1230pt"
 viewBox="0.00 0.00 1957.00 1230.00" xmlns="http://www.w3.org/2000/svg" xmlns:xlink="http://www.w3.org/1999/xlink">
<g id="graph0" class="graph" transform="scale(1 1) rotate(0) translate(4 1226)">
<title>G</title>
<polygon fill="white" stroke="transparent" points="-4,4 -4,-1226 1953,-1226 1953,4 -4,4"/>
<!-- _ID_25_ct0_st0 -->
<!-- ID_25_ct0_st0 -->
<g id="node2" class="node">
<title>ID_25_ct0_st0</title>
<polygon fill="none" stroke="black" points="264.5,-971 157.5,-971 157.5,-921 264.5,-921 264.5,-971"/>
<text text-anchor="start" x="165.5" y="-956.8" font-family="arial" font-weight="bold" font-size="14.00">ID_25_ct0_st0</text>
<text text-anchor="start" x="204.5" y="-942.8" font-family="arial" font-size="14.00" fill="#984ea3">!P</text>
<text text-anchor="start" x="199" y="-928.8" font-family="arial" font-size="14.00" fill="#ff7f00">true</text>
</g>
<!-- _ID_25_ct0_st0&#45;&gt;ID_25_ct0_st0 -->
<g id="edge1" class="edge">
<title>_ID_25_ct0_st0&#45;&gt;ID_25_ct0_st0</title>
<path fill="none" stroke="black" d="M111.05,-946C122.71,-946 135.13,-946 147.08,-946"/>
<polygon fill="black" stroke="black" points="147.43,-949.5 157.43,-946 147.43,-942.5 147.43,-949.5"/>
</g>
<!-- ID_25_ct0_st0&#45;&gt;ID_25_ct0_st0 -->
<g id="edge5" class="edge">
<title>ID_25_ct0_st0&#45;&gt;ID_25_ct0_st0</title>
<path fill="none" stroke="black" d="M196.06,-971.18C195.39,-980.91 200.38,-989 211,-989 217.64,-989 222.08,-985.84 224.31,-981.09"/>
<polygon fill="black" stroke="black" points="227.77,-981.61 225.94,-971.18 220.86,-980.47 227.77,-981.61"/>
<text text-anchor="start" x="199" y="-992.8" font-family="arial" font-size="14.00" fill="#377eb8">true</text>
</g>
<!-- ID_25_ct0_st012 -->
<g id="node4" class="node">
<title>ID_25_ct0_st012</title>
<polygon fill="none" stroke="black" points="462,-835 340,-835 340,-785 462,-785 462,-835"/>
<text text-anchor="start" x="348" y="-820.8" font-family="arial" font-weight="bold" font-size="14.00">ID_25_ct0_st012</text>
<text text-anchor="start" x="372" y="-806.8" font-family="arial" font-size="14.00" fill="#984ea3">(P &amp;&amp; !R)</text>
<text text-anchor="start" x="389" y="-792.8" font-family="arial" font-size="14.00" fill="#ff7f00">true</text>
</g>
<!-- ID_25_ct0_st0&#45;&gt;ID_25_ct0_st012 -->
<g id="edge6" class="edge">
<title>ID_25_ct0_st0&#45;&gt;ID_25_ct0_st012</title>
<path fill="none" stroke="black" d="M246.92,-920.74C278.05,-898.22 323.72,-865.18 357.07,-841.06"/>
<polygon fill="black" stroke="black" points="359.22,-843.82 365.27,-835.13 355.11,-838.15 359.22,-843.82"/>
<text text-anchor="start" x="292" y="-889.8" font-family="arial" font-size="14.00" fill="#377eb8">true</text>
</g>
<!-- ID_25_ct0_st0123 -->
<g id="node6" class="node">
<title>ID_25_ct0_st0123</title>
<polygon fill="none" stroke="black" points="657,-552 528,-552 528,-502 657,-502 657,-552"/>
<text text-anchor="start" x="536" y="-537.8" font-family="arial" font-weight="bold" font-size="14.00">ID_25_ct0_st0123</text>
<text text-anchor="start" x="544" y="-523.8" font-family="arial" font-size="14.00" fill="#984ea3">(P &amp;&amp; (R &amp;&amp; S))</text>
<text text-anchor="start" x="580.5" y="-509.8" font-family="arial" font-size="14.00" fill="#ff7f00">true</text>
</g>
<!-- ID_25_ct0_st0&#45;&gt;ID_25_ct0_st0123 -->
<g id="edge7" class="edge">
<title>ID_25_ct0_st0&#45;&gt;ID_25_ct0_st0123</title>
<path fill="none" stroke="black" d="M264.57,-945.81C321.79,-942.76 412.54,-929.22 468,-877 529.09,-819.48 500.06,-777.12 528,-698 544.75,-650.57 565.16,-596.18 578.24,-561.71"/>
<polygon fill="black" stroke="black" points="581.6,-562.71 581.89,-552.12 575.06,-560.22 581.6,-562.71"/>
<text text-anchor="start" x="389" y="-939.8" font-family="arial" font-size="14.00" fill="#377eb8">true</text>
</g>
<!-- ID_25_ct0_st01234W -->
<g id="node8" class="node">
<title>ID_25_ct0_st01234W</title>
<polygon fill="none" stroke="black" points="1949,-894 1799,-894 1799,-844 1949,-844 1949,-894"/>
<text text-anchor="start" x="1807" y="-879.8" font-family="arial" font-weight="bold" font-size="14.00">ID_25_ct0_st01234W</text>
<text text-anchor="start" x="1823.5" y="-865.8" font-family="arial" font-size="14.00" fill="#984ea3">(P &amp;&amp; (R &amp;&amp; !S))</text>
<text text-anchor="start" x="1851" y="-851.8" font-family="arial" font-size="14.00" fill="#ff7f00">c0 &lt;= 5</text>
</g>
<!-- ID_25_ct0_st0&#45;&gt;ID_25_ct0_st01234W -->
<g id="edge8" class="edge">
<title>ID_25_ct0_st0&#45;&gt;ID_25_ct0_st01234W</title>
<path fill="none" stroke="black" d="M218.29,-971.4C235.54,-1034.25 289.81,-1192 400,-1192 400,-1192 400,-1192 1648.5,-1192 1710.69,-1192 1737.2,-1191.15 1781,-1147 1847.74,-1079.73 1866.07,-963.04 1871.1,-904.56"/>
<polygon fill="black" stroke="black" points="1874.61,-904.58 1871.89,-894.34 1867.63,-904.04 1874.61,-904.58"/>
<text text-anchor="start" x="1003.5" y="-1210.8" font-family="arial" font-size="14.00" fill="#377eb8">true</text>
<text text-anchor="start" x="996.5" y="-1195.8" font-family="arial" font-size="14.00">c0 :=0</text>
</g>
<!-- _ID_25_ct0_st012 -->
<!-- _ID_25_ct0_st012&#45;&gt;ID_25_ct0_st012 -->
<g id="edge2" class="edge">
<title>_ID_25_ct0_st012&#45;&gt;ID_25_ct0_st012</title>
<path fill="none" stroke="black" d="M274.08,-810C291.95,-810 311.56,-810 329.88,-810"/>
<polygon fill="black" stroke="black" points="329.9,-813.5 339.9,-810 329.9,-806.5 329.9,-813.5"/>
</g>
<!-- ID_25_ct0_st012&#45;&gt;ID_25_ct0_st012 -->
<g id="edge18" class="edge">
<title>ID_25_ct0_st012&#45;&gt;ID_25_ct0_st012</title>
<path fill="none" stroke="black" d="M383.07,-835.18C382.27,-844.91 388.25,-853 401,-853 408.97,-853 414.29,-849.84 416.97,-845.09"/>
<polygon fill="black" stroke="black" points="420.42,-845.66 418.93,-835.18 413.56,-844.31 420.42,-845.66"/>
<text text-anchor="start" x="389" y="-856.8" font-family="arial" font-size="14.00" fill="#377eb8">true</text>
</g>
<!-- ID_25_ct0_st012&#45;&gt;ID_25_ct0_st0123 -->
<g id="edge19" class="edge">
<title>ID_25_ct0_st012&#45;&gt;ID_25_ct0_st0123</title>
<path fill="none" stroke="black" d="M420.39,-784.85C442.24,-754.77 479.55,-702.74 510,-657 531.39,-624.87 554.68,-587.46 570.86,-561.04"/>
<polygon fill="black" stroke="black" points="574.05,-562.54 576.28,-552.18 568.08,-558.89 574.05,-562.54"/>
<text text-anchor="start" x="486" y="-694.8" font-family="arial" font-size="14.00" fill="#377eb8">true</text>
</g>
<!-- ID_25_ct0_st012&#45;&gt;ID_25_ct0_st01234W -->
<g id="edge20" class="edge">
<title>ID_25_ct0_st012&#45;&gt;ID_25_ct0_st01234W</title>
<path fill="none" stroke="black" d="M437.44,-835.1C449.24,-845.41 461.11,-858.38 468,-873 491.65,-923.18 449.85,-1079.91 486,-1122 517.33,-1158.48 543.41,-1146 591.5,-1146 591.5,-1146 591.5,-1146 1648.5,-1146 1708.35,-1146 1735.25,-1160.58 1781,-1122 1846.96,-1066.38 1865.63,-959.42 1870.91,-904.08"/>
<polygon fill="black" stroke="black" points="1874.41,-904.32 1871.78,-894.05 1867.43,-903.72 1874.41,-904.32"/>
<text text-anchor="start" x="1108" y="-1164.8" font-family="arial" font-size="14.00" fill="#377eb8">true</text>
<text text-anchor="start" x="1101" y="-1149.8" font-family="arial" font-size="14.00">c0 :=0</text>
</g>
<!-- ID_25_ct0_st02 -->
<g id="node9" class="node">
<title>ID_25_ct0_st02</title>
<polygon fill="none" stroke="black" points="1704.5,-552 1590.5,-552 1590.5,-502 1704.5,-502 1704.5,-552"/>
<text text-anchor="start" x="1598.5" y="-537.8" font-family="arial" font-weight="bold" font-size="14.00">ID_25_ct0_st02</text>
<text text-anchor="start" x="1617" y="-523.8" font-family="arial" font-size="14.00" fill="#984ea3">(!P &amp;&amp; !R)</text>
<text text-anchor="start" x="1635.5" y="-509.8" font-family="arial" font-size="14.00" fill="#ff7f00">true</text>
</g>
<!-- ID_25_ct0_st012&#45;&gt;ID_25_ct0_st02 -->
<g id="edge15" class="edge">
<title>ID_25_ct0_st012&#45;&gt;ID_25_ct0_st02</title>
<path fill="none" stroke="black" d="M403.11,-784.94C409.36,-658.21 445.39,-94 591.5,-94 591.5,-94 591.5,-94 912,-94 1084.59,-94 1138.6,-48.87 1300,-110 1435.02,-161.14 1464.21,-200.38 1552,-315 1594.39,-370.35 1622.65,-447.72 1636.51,-492.07"/>
<polygon fill="black" stroke="black" points="1633.22,-493.26 1639.49,-501.8 1639.91,-491.21 1633.22,-493.26"/>
<text text-anchor="start" x="1003.5" y="-97.8" font-family="arial" font-size="14.00" fill="#377eb8">true</text>
</g>
<!-- ID_25_ct0_st023 -->
<g id="node10" class="node">
<title>ID_25_ct0_st023</title>
<polygon fill="none" stroke="black" points="1496,-582 1374,-582 1374,-532 1496,-532 1496,-582"/>
<text text-anchor="start" x="1382" y="-567.8" font-family="arial" font-weight="bold" font-size="14.00">ID_25_ct0_st023</text>
<text text-anchor="start" x="1384.5" y="-553.8" font-family="arial" font-size="14.00" fill="#984ea3">(!P &amp;&amp; (R &amp;&amp; S))</text>
<text text-anchor="start" x="1423" y="-539.8" font-family="arial" font-size="14.00" fill="#ff7f00">true</text>
</g>
<!-- ID_25_ct0_st012&#45;&gt;ID_25_ct0_st023 -->
<g id="edge16" class="edge">
<title>ID_25_ct0_st012&#45;&gt;ID_25_ct0_st023</title>
<path fill="none" stroke="black" d="M404.85,-784.9C416.88,-692.45 472.6,-369.76 675,-245 761.9,-191.44 1268.41,-215.55 1300,-237 1396.72,-302.68 1423.81,-452.74 1431.25,-521.46"/>
<polygon fill="black" stroke="black" points="1427.8,-522.16 1432.28,-531.76 1434.77,-521.46 1427.8,-522.16"/>
<text text-anchor="start" x="899" y="-217.8" font-family="arial" font-size="14.00" fill="#377eb8">true</text>
</g>
<!-- ID_25_ct0_st0234W -->
<g id="node11" class="node">
<title>ID_25_ct0_st0234W</title>
<polygon fill="none" stroke="black" points="1300,-686 1157,-686 1157,-636 1300,-636 1300,-686"/>
<text text-anchor="start" x="1165" y="-671.8" font-family="arial" font-weight="bold" font-size="14.00">ID_25_ct0_st0234W</text>
<text text-anchor="start" x="1176" y="-657.8" font-family="arial" font-size="14.00" fill="#984ea3">(!P &amp;&amp; (R &amp;&amp; !S))</text>
<text text-anchor="start" x="1205.5" y="-643.8" font-family="arial" font-size="14.00" fill="#ff7f00">c0 &lt;= 5</text>
</g>
<!-- ID_25_ct0_st012&#45;&gt;ID_25_ct0_st0234W -->
<g id="edge17" class="edge">
<title>ID_25_ct0_st012&#45;&gt;ID_25_ct0_st0234W</title>
<path fill="none" stroke="black" d="M458.25,-835C548.93,-871.55 731.65,-929.47 874,-874 915.62,-857.78 911.58,-831.86 948,-806 1010.9,-761.32 1032.46,-759.42 1101,-724 1122.45,-712.91 1146.11,-701.04 1167.11,-690.62"/>
<polygon fill="black" stroke="black" points="1168.83,-693.67 1176.24,-686.1 1165.72,-687.4 1168.83,-693.67"/>
<text text-anchor="start" x="790.5" y="-914.8" font-family="arial" font-size="14.00" fill="#377eb8">true</text>
<text text-anchor="start" x="783.5" y="-899.8" font-family="arial" font-size="14.00">c0 :=0</text>
</g>
<!-- _ID_25_ct0_st0123 -->
<!-- _ID_25_ct0_st0123&#45;&gt;ID_25_ct0_st0123 -->
<g id="edge3" class="edge">
<title>_ID_25_ct0_st0123&#45;&gt;ID_25_ct0_st0123</title>
<path fill="none" stroke="black" d="M408.74,-36.12C436.44,-110.51 541.71,-393.27 578.62,-492.4"/>
<polygon fill="black" stroke="black" points="575.41,-493.8 582.17,-501.95 581.97,-491.36 575.41,-493.8"/>
</g>
<!-- ID_25_ct0_st0123&#45;&gt;ID_25_ct0_st012 -->
<g id="edge33" class="edge">
<title>ID_25_ct0_st0123&#45;&gt;ID_25_ct0_st012</title>
<path fill="none" stroke="black" d="M563,-552.34C540.2,-573.63 508.45,-605.68 486,-638 455.33,-682.16 429.87,-739.2 415.29,-775.2"/>
<polygon fill="black" stroke="black" points="411.93,-774.19 411.47,-784.77 418.43,-776.78 411.93,-774.19"/>
<text text-anchor="start" x="491.5" y="-641.8" font-family="arial" font-size="14.00" fill="#377eb8">S&#39;</text>
</g>
<!-- ID_25_ct0_st0123&#45;&gt;ID_25_ct0_st0123 -->
<g id="edge35" class="edge">
<title>ID_25_ct0_st0123&#45;&gt;ID_25_ct0_st0123</title>
<path fill="none" stroke="black" d="M574.94,-552.18C574.16,-561.91 580.02,-570 592.5,-570 600.3,-570 605.51,-566.84 608.14,-562.09"/>
<polygon fill="black" stroke="black" points="611.59,-562.66 610.06,-552.18 604.72,-561.33 611.59,-562.66"/>
<text text-anchor="start" x="580.5" y="-573.8" font-family="arial" font-size="14.00" fill="#377eb8">true</text>
</g>
<!-- ID_25_ct0_st0123&#45;&gt;ID_25_ct0_st01234W -->
<g id="edge36" class="edge">
<title>ID_25_ct0_st0123&#45;&gt;ID_25_ct0_st01234W</title>
<path fill="none" stroke="black" d="M602.19,-501.88C622.41,-443.58 671.19,-303.69 675,-300 717.44,-258.87 742.4,-259 801.5,-259 801.5,-259 801.5,-259 1121,-259 1288.01,-259 1337.23,-231.18 1496,-283 1613.23,-321.26 1749.42,-466.59 1781,-518 1844.26,-620.96 1864.37,-766.69 1870.48,-833.29"/>
<polygon fill="black" stroke="black" points="1867.03,-834 1871.37,-843.66 1874,-833.4 1867.03,-834"/>
<text text-anchor="start" x="1216.5" y="-277.8" font-family="arial" font-size="14.00" fill="#377eb8">true</text>
<text text-anchor="start" x="1209.5" y="-262.8" font-family="arial" font-size="14.00">c0 :=0</text>
</g>
<!-- ID_25_ct0_st0123&#45;&gt;ID_25_ct0_st02 -->
<g id="edge29" class="edge">
<title>ID_25_ct0_st0123&#45;&gt;ID_25_ct0_st02</title>
<path fill="none" stroke="black" d="M603.06,-501.96C620.73,-460.21 663.01,-378.97 731,-359 1047.33,-266.09 1440.92,-427.98 1587.72,-497.54"/>
<polygon fill="black" stroke="black" points="1586.5,-500.84 1597.03,-501.99 1589.51,-494.52 1586.5,-500.84"/>
<text text-anchor="start" x="1113.5" y="-353.8" font-family="arial" font-size="14.00" fill="#377eb8">S&#39;</text>
</g>
<!-- ID_25_ct0_st0123&#45;&gt;ID_25_ct0_st023 -->
<g id="edge31" class="edge">
<title>ID_25_ct0_st0123&#45;&gt;ID_25_ct0_st023</title>
<path fill="none" stroke="black" d="M657.04,-528.41C787.89,-531.47 1096.87,-539.45 1356,-552 1358.55,-552.12 1361.15,-552.26 1363.77,-552.4"/>
<polygon fill="black" stroke="black" points="1363.79,-555.9 1373.97,-552.96 1364.18,-548.91 1363.79,-555.9"/>
<text text-anchor="start" x="1003.5" y="-544.8" font-family="arial" font-size="14.00" fill="#377eb8">true</text>
</g>
<!-- ID_25_ct0_st0123&#45;&gt;ID_25_ct0_st0234W -->
<g id="edge32" class="edge">
<title>ID_25_ct0_st0123&#45;&gt;ID_25_ct0_st0234W</title>
<path fill="none" stroke="black" d="M603.88,-552.27C622.37,-593.43 665.33,-673.51 731,-705 802.34,-739.21 1025.09,-702.1 1146.54,-678.1"/>
<polygon fill="black" stroke="black" points="1147.42,-681.5 1156.54,-676.11 1146.05,-674.63 1147.42,-681.5"/>
<text text-anchor="start" x="899" y="-734.8" font-family="arial" font-size="14.00" fill="#377eb8">true</text>
<text text-anchor="start" x="892" y="-719.8" font-family="arial" font-size="14.00">c0 :=0</text>
</g>
<!-- ID_25_ct0_st024W -->
<g id="node12" class="node">
<title>ID_25_ct0_st024W</title>
<polygon fill="none" stroke="black" points="1083,-865 948,-865 948,-815 1083,-815 1083,-865"/>
<text text-anchor="start" x="956" y="-850.8" font-family="arial" font-weight="bold" font-size="14.00">ID_25_ct0_st024W</text>
<text text-anchor="start" x="961" y="-836.8" font-family="arial" font-size="14.00" fill="#984ea3">(!P &amp;&amp; (!R &amp;&amp; !S))</text>
<text text-anchor="start" x="992.5" y="-822.8" font-family="arial" font-size="14.00" fill="#ff7f00">c0 &lt;= 5</text>
</g>
<!-- ID_25_ct0_st0123&#45;&gt;ID_25_ct0_st024W -->
<g id="edge30" class="edge">
<title>ID_25_ct0_st0123&#45;&gt;ID_25_ct0_st024W</title>
<path fill="none" stroke="black" d="M604.41,-552.03C618.39,-584.94 642.52,-644.83 657,-698 668.98,-741.99 641.92,-767.62 675,-799 711.61,-833.74 849.34,-840.42 937.72,-840.99"/>
<polygon fill="black" stroke="black" points="937.97,-844.49 947.98,-841.03 937.99,-837.49 937.97,-844.49"/>
<text text-anchor="start" x="790.5" y="-858.8" font-family="arial" font-size="14.00" fill="#377eb8">true</text>
<text text-anchor="start" x="783.5" y="-843.8" font-family="arial" font-size="14.00">c0 :=0</text>
</g>
<!-- ID_25_ct0_st0124W -->
<g id="node13" class="node">
<title>ID_25_ct0_st0124W</title>
<polygon fill="none" stroke="black" points="874,-663 731,-663 731,-613 874,-613 874,-663"/>
<text text-anchor="start" x="739" y="-648.8" font-family="arial" font-weight="bold" font-size="14.00">ID_25_ct0_st0124W</text>
<text text-anchor="start" x="750" y="-634.8" font-family="arial" font-size="14.00" fill="#984ea3">(P &amp;&amp; (!R &amp;&amp; !S))</text>
<text text-anchor="start" x="779.5" y="-620.8" font-family="arial" font-size="14.00" fill="#ff7f00">c0 &lt;= 5</text>
</g>
<!-- ID_25_ct0_st0123&#45;&gt;ID_25_ct0_st0124W -->
<g id="edge34" class="edge">
<title>ID_25_ct0_st0123&#45;&gt;ID_25_ct0_st0124W</title>
<path fill="none" stroke="black" d="M657.3,-547.26C675.75,-554.12 695.59,-562.48 713,-572 730.74,-581.7 748.88,-594.61 764.08,-606.44"/>
<polygon fill="black" stroke="black" points="762.19,-609.41 772.21,-612.87 766.54,-603.92 762.19,-609.41"/>
<text text-anchor="start" x="682" y="-590.8" font-family="arial" font-size="14.00" fill="#377eb8">true</text>
<text text-anchor="start" x="675" y="-575.8" font-family="arial" font-size="14.00">c0 :=0</text>
</g>
<!-- _ID_25_ct0_st01234W -->
<!-- _ID_25_ct0_st01234W&#45;&gt;ID_25_ct0_st01234W -->
<g id="edge4" class="edge">
<title>_ID_25_ct0_st01234W&#45;&gt;ID_25_ct0_st01234W</title>
<path fill="none" stroke="black" d="M1725.01,-1054.5C1744.67,-1049.76 1764.82,-1042.15 1781,-1030 1823.23,-998.27 1849.12,-941.08 1862.27,-904.1"/>
<polygon fill="black" stroke="black" points="1865.71,-904.83 1865.64,-894.24 1859.09,-902.57 1865.71,-904.83"/>
</g>
<!-- ID_25_ct0_st01234W&#45;&gt;ID_25_ct0_st012 -->
<g id="edge65" class="edge">
<title>ID_25_ct0_st01234W&#45;&gt;ID_25_ct0_st012</title>
<path fill="none" stroke="black" d="M1865.27,-894.11C1852.6,-932.04 1824.42,-1004.63 1781,-1053 1738.41,-1100.45 1712.26,-1108 1648.5,-1108 591.5,-1108 591.5,-1108 591.5,-1108 499.54,-1108 523.54,-1013.95 486,-930 475.16,-905.75 482.05,-895.55 468,-873 461.06,-861.86 451.7,-851.33 442.21,-842.19"/>
<polygon fill="black" stroke="black" points="444.34,-839.39 434.62,-835.17 439.58,-844.53 444.34,-839.39"/>
<text text-anchor="start" x="1113.5" y="-1111.8" font-family="arial" font-size="14.00" fill="#377eb8">S&#39;</text>
</g>
<!-- ID_25_ct0_st01234W&#45;&gt;ID_25_ct0_st0123 -->
<g id="edge67" class="edge">
<title>ID_25_ct0_st01234W&#45;&gt;ID_25_ct0_st0123</title>
<path fill="none" stroke="black" d="M1869.69,-843.75C1856.34,-745.66 1803.37,-391.49 1725,-315 1582.07,-175.5 1496.95,-202.16 1300,-169 1022.66,-122.31 853.1,-50.34 675,-268 653.02,-294.86 666.7,-310.67 657,-344 641.79,-396.24 620.44,-455.54 606.79,-492.11"/>
<polygon fill="black" stroke="black" points="603.39,-491.21 603.16,-501.8 609.95,-493.67 603.39,-491.21"/>
<text text-anchor="start" x="1216.5" y="-172.8" font-family="arial" font-size="14.00" fill="#377eb8">true</text>
</g>
<!-- ID_25_ct0_st01234W&#45;&gt;ID_25_ct0_st01234W -->
<g id="edge68" class="edge">
<title>ID_25_ct0_st01234W&#45;&gt;ID_25_ct0_st01234W</title>
<path fill="none" stroke="black" d="M1853.46,-894.18C1852.54,-903.91 1859.39,-912 1874,-912 1883.13,-912 1889.23,-908.84 1892.3,-904.09"/>
<polygon fill="black" stroke="black" points="1895.75,-904.7 1894.54,-894.18 1888.92,-903.15 1895.75,-904.7"/>
<text text-anchor="start" x="1855" y="-915.8" font-family="arial" font-size="14.00" fill="#377eb8">c0 &lt; 5</text>
</g>
<!-- ID_25_ct0_st01234W&#45;&gt;ID_25_ct0_st02 -->
<g id="edge61" class="edge">
<title>ID_25_ct0_st01234W&#45;&gt;ID_25_ct0_st02</title>
<path fill="none" stroke="black" d="M1870.93,-843.87C1865.37,-791.44 1845.85,-669.04 1781,-594 1771.04,-582.47 1742.03,-567.31 1713.68,-554.32"/>
<polygon fill="black" stroke="black" points="1715.08,-551.11 1704.52,-550.19 1712.2,-557.49 1715.08,-551.11"/>
<text text-anchor="start" x="1755.5" y="-597.8" font-family="arial" font-size="14.00" fill="#377eb8">S&#39;</text>
</g>
<!-- ID_25_ct0_st01234W&#45;&gt;ID_25_ct0_st023 -->
<g id="edge63" class="edge">
<title>ID_25_ct0_st01234W&#45;&gt;ID_25_ct0_st023</title>
<path fill="none" stroke="black" d="M1862.01,-843.76C1841.47,-799.43 1793.1,-707.42 1725,-656 1690.01,-629.58 1579.68,-595.99 1505.92,-575.52"/>
<polygon fill="black" stroke="black" points="1506.78,-572.13 1496.21,-572.84 1504.92,-578.87 1506.78,-572.13"/>
<text text-anchor="start" x="1635.5" y="-659.8" font-family="arial" font-size="14.00" fill="#377eb8">true</text>
</g>
<!-- ID_25_ct0_st01234W&#45;&gt;ID_25_ct0_st0234W -->
<g id="edge64" class="edge">
<title>ID_25_ct0_st01234W&#45;&gt;ID_25_ct0_st0234W</title>
<path fill="none" stroke="black" d="M1798.96,-856.16C1700.35,-837.98 1521.22,-801.15 1374,-750 1348.08,-740.99 1341.72,-737.79 1318,-724 1301.78,-714.57 1284.8,-702.96 1270.11,-692.28"/>
<polygon fill="black" stroke="black" points="1271.87,-689.23 1261.74,-686.12 1267.72,-694.87 1271.87,-689.23"/>
<text text-anchor="start" x="1514" y="-806.8" font-family="arial" font-size="14.00" fill="#377eb8">c0 &lt; 5</text>
</g>
<!-- ID_25_ct0_st01234W&#45;&gt;ID_25_ct0_st024W -->
<g id="edge62" class="edge">
<title>ID_25_ct0_st01234W&#45;&gt;ID_25_ct0_st024W</title>
<path fill="none" stroke="black" d="M1824.03,-894.03C1779.46,-914.47 1711.25,-940 1648.5,-940 1227.5,-940 1227.5,-940 1227.5,-940 1162.41,-940 1095.95,-900.65 1055.46,-871.32"/>
<polygon fill="black" stroke="black" points="1057.35,-868.36 1047.22,-865.23 1053.18,-873.99 1057.35,-868.36"/>
<text text-anchor="start" x="1416" y="-943.8" font-family="arial" font-size="14.00" fill="#377eb8">c0 &lt; 5</text>
</g>
<!-- ID_25_ct0_st01234W&#45;&gt;ID_25_ct0_st0124W -->
<g id="edge66" class="edge">
<title>ID_25_ct0_st01234W&#45;&gt;ID_25_ct0_st0124W</title>
<path fill="none" stroke="black" d="M1843.09,-894.03C1814.79,-915.71 1770.03,-944.96 1725,-954 1555.4,-988.04 1083.25,-1014.84 948,-907 932.44,-894.59 939.1,-883.7 930,-866 914.88,-836.58 906.99,-831.49 892,-802 882.8,-783.9 883.1,-778.16 874,-760 858.75,-729.55 839.23,-696.14 824.61,-671.99"/>
<polygon fill="black" stroke="black" points="827.45,-669.94 819.26,-663.22 821.47,-673.58 827.45,-669.94"/>
<text text-anchor="start" x="1318" y="-986.8" font-family="arial" font-size="14.00" fill="#377eb8">c0 &lt; 5</text>
</g>
<!-- ID_25_ct0_st02&#45;&gt;ID_25_ct0_st012 -->
<g id="edge12" class="edge">
<title>ID_25_ct0_st02&#45;&gt;ID_25_ct0_st012</title>
<path fill="none" stroke="black" d="M1645.15,-501.95C1640.85,-443.64 1623.17,-296.63 1552,-202 1375.83,32.24 1205.09,-43 912,-43 591.5,-43 591.5,-43 591.5,-43 541.81,-43 517.01,-41.18 486,-80 442.11,-134.95 411.51,-636.84 403.87,-774.96"/>
<polygon fill="black" stroke="black" points="400.37,-774.82 403.31,-785 407.36,-775.21 400.37,-774.82"/>
<text text-anchor="start" x="1003.5" y="-46.8" font-family="arial" font-size="14.00" fill="#377eb8">true</text>
</g>
<!-- ID_25_ct0_st02&#45;&gt;ID_25_ct0_st0123 -->
<g id="edge13" class="edge">
<title>ID_25_ct0_st02&#45;&gt;ID_25_ct0_st0123</title>
<path fill="none" stroke="black" d="M1641.85,-501.99C1632.71,-460.64 1608.18,-378.83 1552,-341 1399.2,-238.11 1323.05,-313.78 1139,-306 1035.93,-301.64 759.28,-261.51 675,-321 619.35,-360.28 601.69,-443.8 596.09,-491.56"/>
<polygon fill="black" stroke="black" points="592.59,-491.43 595.02,-501.74 599.55,-492.16 592.59,-491.43"/>
<text text-anchor="start" x="1108" y="-309.8" font-family="arial" font-size="14.00" fill="#377eb8">true</text>
</g>
<!-- ID_25_ct0_st02&#45;&gt;ID_25_ct0_st01234W -->
<g id="edge14" class="edge">
<title>ID_25_ct0_st02&#45;&gt;ID_25_ct0_st01234W</title>
<path fill="none" stroke="black" d="M1704.53,-517.99C1730.48,-516.97 1760.1,-520.71 1781,-538 1826.92,-575.99 1857.21,-756.39 1868.29,-833.7"/>
<polygon fill="black" stroke="black" points="1864.87,-834.48 1869.73,-843.9 1871.8,-833.51 1864.87,-834.48"/>
<text text-anchor="start" x="1750" y="-556.8" font-family="arial" font-size="14.00" fill="#377eb8">true</text>
<text text-anchor="start" x="1743" y="-541.8" font-family="arial" font-size="14.00">c0 :=0</text>
</g>
<!-- ID_25_ct0_st02&#45;&gt;ID_25_ct0_st02 -->
<g id="edge9" class="edge">
<title>ID_25_ct0_st02&#45;&gt;ID_25_ct0_st02</title>
<path fill="none" stroke="black" d="M1626.21,-552.18C1625.26,-561.91 1632.36,-570 1647.5,-570 1656.96,-570 1663.28,-566.84 1666.46,-562.09"/>
<polygon fill="black" stroke="black" points="1669.91,-562.71 1668.79,-552.18 1663.1,-561.11 1669.91,-562.71"/>
<text text-anchor="start" x="1635.5" y="-573.8" font-family="arial" font-size="14.00" fill="#377eb8">true</text>
</g>
<!-- ID_25_ct0_st02&#45;&gt;ID_25_ct0_st023 -->
<g id="edge10" class="edge">
<title>ID_25_ct0_st02&#45;&gt;ID_25_ct0_st023</title>
<path fill="none" stroke="black" d="M1590.22,-519.52C1566.48,-517.85 1538.67,-517.86 1514,-523 1507.74,-524.31 1501.36,-526.14 1495.09,-528.29"/>
<polygon fill="black" stroke="black" points="1493.51,-525.15 1485.35,-531.9 1495.94,-531.71 1493.51,-525.15"/>
<text text-anchor="start" x="1521" y="-526.8" font-family="arial" font-size="14.00" fill="#377eb8">true</text>
</g>
<!-- ID_25_ct0_st02&#45;&gt;ID_25_ct0_st0234W -->
<g id="edge11" class="edge">
<title>ID_25_ct0_st02&#45;&gt;ID_25_ct0_st0234W</title>
<path fill="none" stroke="black" d="M1612.92,-552.21C1597.75,-565.23 1580.84,-582.29 1570,-601 1553.68,-629.17 1575.88,-649.88 1552,-672 1500.85,-719.38 1394.21,-724.26 1318,-706 1304.38,-702.74 1290.48,-697.01 1277.87,-690.71"/>
<polygon fill="black" stroke="black" points="1279.41,-687.57 1268.92,-686.05 1276.18,-693.78 1279.41,-687.57"/>
<text text-anchor="start" x="1423" y="-734.8" font-family="arial" font-size="14.00" fill="#377eb8">true</text>
<text text-anchor="start" x="1416" y="-719.8" font-family="arial" font-size="14.00">c0 :=0</text>
</g>
<!-- ID_25_ct0_st023&#45;&gt;ID_25_ct0_st012 -->
<g id="edge25" class="edge">
<title>ID_25_ct0_st023&#45;&gt;ID_25_ct0_st012</title>
<path fill="none" stroke="black" d="M1433.96,-531.83C1432.63,-475.35 1422.33,-336.57 1356,-248 1338.68,-224.88 1327.64,-223.39 1300,-215 1135.62,-165.12 650.65,-134.72 528,-255 452.83,-328.72 415.49,-664.36 405.09,-774.72"/>
<polygon fill="black" stroke="black" points="401.61,-774.4 404.17,-784.68 408.58,-775.04 401.61,-774.4"/>
<text text-anchor="start" x="904.5" y="-175.8" font-family="arial" font-size="14.00" fill="#377eb8">S&#39;</text>
</g>
<!-- ID_25_ct0_st023&#45;&gt;ID_25_ct0_st0123 -->
<g id="edge27" class="edge">
<title>ID_25_ct0_st023&#45;&gt;ID_25_ct0_st0123</title>
<path fill="none" stroke="black" d="M1418.24,-531.66C1404.32,-511.39 1382.19,-483.84 1356,-468 1278.15,-420.92 1244.41,-445.25 1157,-420 1123.65,-410.36 1117.26,-400.63 1083,-395 903.78,-365.54 833.83,-329.91 675,-418 645,-434.64 622.82,-467.46 609.23,-492.76"/>
<polygon fill="black" stroke="black" points="606.1,-491.2 604.62,-501.69 612.32,-494.41 606.1,-491.2"/>
<text text-anchor="start" x="1003.5" y="-398.8" font-family="arial" font-size="14.00" fill="#377eb8">true</text>
</g>
<!-- ID_25_ct0_st023&#45;&gt;ID_25_ct0_st01234W -->
<g id="edge28" class="edge">
<title>ID_25_ct0_st023&#45;&gt;ID_25_ct0_st01234W</title>
<path fill="none" stroke="black" d="M1459.63,-582.01C1480.3,-603.76 1507.94,-632.48 1514,-637 1621.55,-717.27 1673.03,-698.3 1781,-778 1804.09,-795.04 1827.05,-817.74 1844.25,-836.2"/>
<polygon fill="black" stroke="black" points="1841.91,-838.83 1851.26,-843.82 1847.07,-834.09 1841.91,-838.83"/>
<text text-anchor="start" x="1635.5" y="-759.8" font-family="arial" font-size="14.00" fill="#377eb8">true</text>
<text text-anchor="start" x="1628.5" y="-744.8" font-family="arial" font-size="14.00">c0 :=0</text>
</g>
<!-- ID_25_ct0_st023&#45;&gt;ID_25_ct0_st02 -->
<g id="edge21" class="edge">
<title>ID_25_ct0_st023&#45;&gt;ID_25_ct0_st02</title>
<path fill="none" stroke="black" d="M1496.04,-548.44C1522.33,-544.7 1553.27,-540.29 1580.23,-536.44"/>
<polygon fill="black" stroke="black" points="1580.95,-539.88 1590.36,-535 1579.96,-532.95 1580.95,-539.88"/>
<text text-anchor="start" x="1526.5" y="-549.8" font-family="arial" font-size="14.00" fill="#377eb8">S&#39;</text>
</g>
<!-- ID_25_ct0_st023&#45;&gt;ID_25_ct0_st023 -->
<g id="edge23" class="edge">
<title>ID_25_ct0_st023&#45;&gt;ID_25_ct0_st023</title>
<path fill="none" stroke="black" d="M1416.7,-582.18C1415.88,-591.91 1421.98,-600 1435,-600 1443.13,-600 1448.57,-596.84 1451.3,-592.09"/>
<polygon fill="black" stroke="black" points="1454.76,-592.67 1453.3,-582.18 1447.89,-591.29 1454.76,-592.67"/>
<text text-anchor="start" x="1423" y="-603.8" font-family="arial" font-size="14.00" fill="#377eb8">true</text>
</g>
<!-- ID_25_ct0_st023&#45;&gt;ID_25_ct0_st0234W -->
<g id="edge24" class="edge">
<title>ID_25_ct0_st023&#45;&gt;ID_25_ct0_st0234W</title>
<path fill="none" stroke="black" d="M1373.96,-565.85C1355.36,-570.06 1335.24,-576.17 1318,-585 1296.47,-596.03 1275.76,-613.31 1259.8,-628.61"/>
<polygon fill="black" stroke="black" points="1257.03,-626.42 1252.36,-635.93 1261.94,-631.41 1257.03,-626.42"/>
<text text-anchor="start" x="1325" y="-603.8" font-family="arial" font-size="14.00" fill="#377eb8">true</text>
<text text-anchor="start" x="1318" y="-588.8" font-family="arial" font-size="14.00">c0 :=0</text>
</g>
<!-- ID_25_ct0_st023&#45;&gt;ID_25_ct0_st024W -->
<g id="edge22" class="edge">
<title>ID_25_ct0_st023&#45;&gt;ID_25_ct0_st024W</title>
<path fill="none" stroke="black" d="M1407.35,-582.07C1396.35,-593.13 1383.88,-606.64 1374,-620 1364.3,-633.12 1364.89,-638.32 1356,-652 1340.59,-675.7 1334.7,-680.2 1318,-703 1309.91,-714.05 1311.2,-720.12 1300,-728 1245.92,-766.04 1208.87,-728 1157,-769 1144.2,-779.12 1151.65,-790.7 1139,-801 1125.69,-811.84 1109.32,-819.68 1092.93,-825.36"/>
<polygon fill="black" stroke="black" points="1091.75,-822.06 1083.3,-828.45 1093.89,-828.72 1091.75,-822.06"/>
<text text-anchor="start" x="1216.5" y="-787.8" font-family="arial" font-size="14.00" fill="#377eb8">true</text>
<text text-anchor="start" x="1209.5" y="-772.8" font-family="arial" font-size="14.00">c0 :=0</text>
</g>
<!-- ID_25_ct0_st023&#45;&gt;ID_25_ct0_st0124W -->
<g id="edge26" class="edge">
<title>ID_25_ct0_st023&#45;&gt;ID_25_ct0_st0124W</title>
<path fill="none" stroke="black" d="M1373.74,-561.61C1355.78,-563.14 1336.08,-564.97 1318,-567 1164.23,-584.23 985.42,-610.26 884.24,-625.56"/>
<polygon fill="black" stroke="black" points="883.46,-622.13 874.1,-627.09 884.51,-629.06 883.46,-622.13"/>
<text text-anchor="start" x="1108" y="-612.8" font-family="arial" font-size="14.00" fill="#377eb8">true</text>
<text text-anchor="start" x="1101" y="-597.8" font-family="arial" font-size="14.00">c0 :=0</text>
</g>
<!-- ID_25_ct0_st0234W&#45;&gt;ID_25_ct0_st012 -->
<g id="edge57" class="edge">
<title>ID_25_ct0_st0234W&#45;&gt;ID_25_ct0_st012</title>
<path fill="none" stroke="black" d="M1191.39,-686.09C1178.83,-696.49 1165.72,-709.51 1157,-724 1139.77,-752.63 1150.66,-765.68 1139,-797 1119.86,-848.41 1125.63,-872.47 1083,-907 1028.3,-951.31 999.64,-937.69 930,-948 641.21,-990.77 718.02,-964.21 675,-955 604.97,-940 591.54,-922.04 528,-889 500.25,-874.57 470.56,-856.11 446.96,-840.67"/>
<polygon fill="black" stroke="black" points="448.84,-837.71 438.56,-835.12 444.98,-843.55 448.84,-837.71"/>
<text text-anchor="start" x="796" y="-974.8" font-family="arial" font-size="14.00" fill="#377eb8">S&#39;</text>
</g>
<!-- ID_25_ct0_st0234W&#45;&gt;ID_25_ct0_st0123 -->
<g id="edge59" class="edge">
<title>ID_25_ct0_st0234W&#45;&gt;ID_25_ct0_st0123</title>
<path fill="none" stroke="black" d="M1156.67,-638.69C1150.71,-637.03 1144.77,-635.44 1139,-634 971.88,-592.23 772.62,-556.69 667.27,-539"/>
<polygon fill="black" stroke="black" points="667.82,-535.54 657.38,-537.34 666.66,-542.45 667.82,-535.54"/>
<text text-anchor="start" x="899" y="-590.8" font-family="arial" font-size="14.00" fill="#377eb8">true</text>
</g>
<!-- ID_25_ct0_st0234W&#45;&gt;ID_25_ct0_st01234W -->
<g id="edge60" class="edge">
<title>ID_25_ct0_st0234W&#45;&gt;ID_25_ct0_st01234W</title>
<path fill="none" stroke="black" d="M1264.75,-686.09C1277.36,-696.58 1290.73,-709.66 1300,-724 1314.42,-746.31 1297.87,-763.66 1318,-781 1387.09,-840.52 1651.24,-860.04 1788.72,-866.24"/>
<polygon fill="black" stroke="black" points="1788.66,-869.74 1798.8,-866.68 1788.96,-862.74 1788.66,-869.74"/>
<text text-anchor="start" x="1514" y="-850.8" font-family="arial" font-size="14.00" fill="#377eb8">c0 &lt; 5</text>
</g>
<!-- ID_25_ct0_st0234W&#45;&gt;ID_25_ct0_st02 -->
<g id="edge53" class="edge">
<title>ID_25_ct0_st0234W&#45;&gt;ID_25_ct0_st02</title>
<path fill="none" stroke="black" d="M1300.1,-660.55C1355.27,-658.01 1432.9,-649.57 1496,-624 1536.51,-607.59 1577.93,-579.94 1607.03,-558.35"/>
<polygon fill="black" stroke="black" points="1609.39,-560.96 1615.28,-552.15 1605.18,-555.36 1609.39,-560.96"/>
<text text-anchor="start" x="1428.5" y="-657.8" font-family="arial" font-size="14.00" fill="#377eb8">S&#39;</text>
</g>
<!-- ID_25_ct0_st0234W&#45;&gt;ID_25_ct0_st023 -->
<g id="edge55" class="edge">
<title>ID_25_ct0_st0234W&#45;&gt;ID_25_ct0_st023</title>
<path fill="none" stroke="black" d="M1300.01,-639.45C1318.69,-632.66 1338.51,-624.42 1356,-615 1369.88,-607.52 1384.02,-597.78 1396.38,-588.41"/>
<polygon fill="black" stroke="black" points="1398.87,-590.92 1404.63,-582.03 1394.58,-585.38 1398.87,-590.92"/>
<text text-anchor="start" x="1325" y="-636.8" font-family="arial" font-size="14.00" fill="#377eb8">true</text>
</g>
<!-- ID_25_ct0_st0234W&#45;&gt;ID_25_ct0_st0234W -->
<g id="edge56" class="edge">
<title>ID_25_ct0_st0234W&#45;&gt;ID_25_ct0_st0234W</title>
<path fill="none" stroke="black" d="M1208.33,-686.18C1207.43,-695.91 1214.16,-704 1228.5,-704 1237.46,-704 1243.45,-700.84 1246.46,-696.09"/>
<polygon fill="black" stroke="black" points="1249.92,-696.7 1248.67,-686.18 1243.08,-695.18 1249.92,-696.7"/>
<text text-anchor="start" x="1209.5" y="-707.8" font-family="arial" font-size="14.00" fill="#377eb8">c0 &lt; 5</text>
</g>
<!-- ID_25_ct0_st0234W&#45;&gt;ID_25_ct0_st024W -->
<g id="edge54" class="edge">
<title>ID_25_ct0_st0234W&#45;&gt;ID_25_ct0_st024W</title>
<path fill="none" stroke="black" d="M1192.88,-686.03C1176.81,-697.24 1157.26,-710.31 1139,-721 1122.71,-730.54 1113.5,-725.84 1101,-740 1085.09,-758.02 1097.31,-771.68 1083,-791 1078.32,-797.32 1072.59,-803.18 1066.48,-808.49"/>
<polygon fill="black" stroke="black" points="1064.13,-805.89 1058.58,-814.91 1068.55,-811.32 1064.13,-805.89"/>
<text text-anchor="start" x="1101" y="-743.8" font-family="arial" font-size="14.00" fill="#377eb8">c0 &lt; 5</text>
</g>
<!-- ID_25_ct0_st0234W&#45;&gt;ID_25_ct0_st0124W -->
<g id="edge58" class="edge">
<title>ID_25_ct0_st0234W&#45;&gt;ID_25_ct0_st0124W</title>
<path fill="none" stroke="black" d="M1156.92,-645.71C1133.51,-641.33 1107.25,-637.16 1083,-635 1016.22,-629.04 940.12,-630.39 884.21,-632.89"/>
<polygon fill="black" stroke="black" points="883.83,-629.4 874.01,-633.37 884.16,-636.4 883.83,-629.4"/>
<text text-anchor="start" x="996.5" y="-638.8" font-family="arial" font-size="14.00" fill="#377eb8">c0 &lt; 5</text>
</g>
<!-- ID_25_ct0_st024W&#45;&gt;ID_25_ct0_st012 -->
<g id="edge41" class="edge">
<title>ID_25_ct0_st024W&#45;&gt;ID_25_ct0_st012</title>
<path fill="none" stroke="black" d="M992.88,-865.2C973.02,-887.72 944.53,-918.33 930,-926 851.68,-967.32 819.42,-940.86 731,-936 621.62,-929.99 575.89,-971.62 486,-909 471.32,-898.77 478.63,-887.39 468,-873 459.9,-862.03 449.79,-851.32 439.93,-841.93"/>
<polygon fill="black" stroke="black" points="442.19,-839.26 432.48,-835.02 437.44,-844.39 442.19,-839.26"/>
<text text-anchor="start" x="687.5" y="-939.8" font-family="arial" font-size="14.00" fill="#377eb8">S&#39;</text>
</g>
<!-- ID_25_ct0_st024W&#45;&gt;ID_25_ct0_st0123 -->
<g id="edge43" class="edge">
<title>ID_25_ct0_st024W&#45;&gt;ID_25_ct0_st0123</title>
<path fill="none" stroke="black" d="M947.97,-822.63C852.07,-797.36 685.25,-752.43 675,-743 673.25,-741.38 629.02,-622.69 606.47,-561.96"/>
<polygon fill="black" stroke="black" points="609.67,-560.55 602.91,-552.39 603.11,-562.98 609.67,-560.55"/>
<text text-anchor="start" x="790.5" y="-806.8" font-family="arial" font-size="14.00" fill="#377eb8">true</text>
</g>
<!-- ID_25_ct0_st024W&#45;&gt;ID_25_ct0_st01234W -->
<g id="edge44" class="edge">
<title>ID_25_ct0_st024W&#45;&gt;ID_25_ct0_st01234W</title>
<path fill="none" stroke="black" d="M1083.04,-860.58C1089.07,-861.94 1095.12,-863.11 1101,-864 1137.48,-869.51 1541.18,-873.58 1743,-875 1759.89,-875.12 1764.12,-875.55 1781,-875 1783.52,-874.92 1786.08,-874.82 1788.66,-874.72"/>
<polygon fill="black" stroke="black" points="1788.88,-878.21 1798.71,-874.26 1788.56,-871.22 1788.88,-878.21"/>
<text text-anchor="start" x="1416" y="-875.8" font-family="arial" font-size="14.00" fill="#377eb8">c0 &lt; 5</text>
</g>
<!-- ID_25_ct0_st024W&#45;&gt;ID_25_ct0_st02 -->
<g id="edge37" class="edge">
<title>ID_25_ct0_st024W&#45;&gt;ID_25_ct0_st02</title>
<path fill="none" stroke="black" d="M1083.34,-847.67C1089.3,-848.19 1095.26,-848.64 1101,-849 1125.85,-850.54 1132.11,-849.78 1157,-850 1245.68,-850.79 1493.6,-859.74 1552,-793 1581.53,-759.25 1549.37,-631.82 1570,-592 1576.58,-579.3 1586.8,-568.06 1597.66,-558.65"/>
<polygon fill="black" stroke="black" points="1600.11,-561.17 1605.63,-552.13 1595.68,-555.75 1600.11,-561.17"/>
<text text-anchor="start" x="1330.5" y="-853.8" font-family="arial" font-size="14.00" fill="#377eb8">S&#39;</text>
</g>
<!-- ID_25_ct0_st024W&#45;&gt;ID_25_ct0_st023 -->
<g id="edge39" class="edge">
<title>ID_25_ct0_st024W&#45;&gt;ID_25_ct0_st023</title>
<path fill="none" stroke="black" d="M1083.28,-837.42C1155.98,-833.4 1266.38,-823.38 1300,-799 1343.45,-767.49 1336.91,-742.17 1356,-692 1367.73,-661.17 1358.1,-648.9 1374,-620 1380.03,-609.04 1388.44,-598.58 1397.05,-589.44"/>
<polygon fill="black" stroke="black" points="1399.77,-591.67 1404.29,-582.09 1394.78,-586.76 1399.77,-591.67"/>
<text text-anchor="start" x="1216.5" y="-835.8" font-family="arial" font-size="14.00" fill="#377eb8">true</text>
</g>
<!-- ID_25_ct0_st024W&#45;&gt;ID_25_ct0_st0234W -->
<g id="edge40" class="edge">
<title>ID_25_ct0_st024W&#45;&gt;ID_25_ct0_st0234W</title>
<path fill="none" stroke="black" d="M1051.97,-814.99C1066.96,-804.59 1084.7,-792.51 1101,-782 1117.59,-771.3 1124.62,-772.53 1139,-759 1149.24,-749.37 1148.05,-743.84 1157,-733 1168.25,-719.37 1181.61,-705.28 1193.65,-693.23"/>
<polygon fill="black" stroke="black" points="1196.3,-695.52 1200.94,-686 1191.37,-690.55 1196.3,-695.52"/>
<text text-anchor="start" x="1101" y="-785.8" font-family="arial" font-size="14.00" fill="#377eb8">c0 &lt; 5</text>
</g>
<!-- ID_25_ct0_st024W&#45;&gt;ID_25_ct0_st024W -->
<g id="edge38" class="edge">
<title>ID_25_ct0_st024W&#45;&gt;ID_25_ct0_st024W</title>
<path fill="none" stroke="black" d="M996.08,-865.18C995.21,-874.91 1001.69,-883 1015.5,-883 1024.13,-883 1029.9,-879.84 1032.8,-875.09"/>
<polygon fill="black" stroke="black" points="1036.25,-875.69 1034.92,-865.18 1029.41,-874.22 1036.25,-875.69"/>
<text text-anchor="start" x="996.5" y="-886.8" font-family="arial" font-size="14.00" fill="#377eb8">c0 &lt; 5</text>
</g>
<!-- ID_25_ct0_st024W&#45;&gt;ID_25_ct0_st0124W -->
<g id="edge42" class="edge">
<title>ID_25_ct0_st024W&#45;&gt;ID_25_ct0_st0124W</title>
<path fill="none" stroke="black" d="M1005.98,-814.99C993.81,-782.63 968.55,-726.34 930,-692 921.73,-684.63 902.84,-675.51 882.12,-666.88"/>
<polygon fill="black" stroke="black" points="883.4,-663.62 872.82,-663.09 880.76,-670.11 883.4,-663.62"/>
<text text-anchor="start" x="892" y="-695.8" font-family="arial" font-size="14.00" fill="#377eb8">c0 &lt; 5</text>
</g>
<!-- ID_25_ct0_st0124W&#45;&gt;ID_25_ct0_st012 -->
<g id="edge49" class="edge">
<title>ID_25_ct0_st0124W&#45;&gt;ID_25_ct0_st012</title>
<path fill="none" stroke="black" d="M743.34,-663.04C670.67,-694.33 546.54,-747.77 469.69,-780.86"/>
<polygon fill="black" stroke="black" points="467.89,-777.82 460.09,-784.99 470.66,-784.25 467.89,-777.82"/>
<text text-anchor="start" x="586" y="-758.8" font-family="arial" font-size="14.00" fill="#377eb8">S&#39;</text>
</g>
<!-- ID_25_ct0_st0124W&#45;&gt;ID_25_ct0_st0123 -->
<g id="edge51" class="edge">
<title>ID_25_ct0_st0124W&#45;&gt;ID_25_ct0_st0123</title>
<path fill="none" stroke="black" d="M730.9,-624.15C712.03,-618.81 692.13,-611.6 675,-602 655.43,-591.04 636.77,-574.49 622.26,-559.73"/>
<polygon fill="black" stroke="black" points="624.5,-557.01 615.06,-552.21 619.44,-561.85 624.5,-557.01"/>
<text text-anchor="start" x="682" y="-621.8" font-family="arial" font-size="14.00" fill="#377eb8">true</text>
</g>
<!-- ID_25_ct0_st0124W&#45;&gt;ID_25_ct0_st01234W -->
<g id="edge52" class="edge">
<title>ID_25_ct0_st0124W&#45;&gt;ID_25_ct0_st01234W</title>
<path fill="none" stroke="black" d="M821.48,-663.43C837.54,-687.31 860.54,-724.55 874,-760 910.62,-856.44 863.79,-920.41 948,-980 1023.56,-1033.47 1698.6,-1034.17 1781,-992 1817.52,-973.31 1843.37,-932.66 1858.19,-903.19"/>
<polygon fill="black" stroke="black" points="1861.4,-904.59 1862.61,-894.06 1855.1,-901.54 1861.4,-904.59"/>
<text text-anchor="start" x="1318" y="-1024.8" font-family="arial" font-size="14.00" fill="#377eb8">c0 &lt; 5</text>
</g>
<!-- ID_25_ct0_st0124W&#45;&gt;ID_25_ct0_st02 -->
<g id="edge45" class="edge">
<title>ID_25_ct0_st0124W&#45;&gt;ID_25_ct0_st02</title>
<path fill="none" stroke="black" d="M846.33,-612.88C874.35,-597.56 912.27,-578.89 948,-568 1189.67,-494.32 1261.45,-522.21 1514,-515 1530.88,-514.52 1535.14,-513.93 1552,-515 1561.15,-515.58 1570.77,-516.47 1580.23,-517.51"/>
<polygon fill="black" stroke="black" points="1580.06,-521.01 1590.4,-518.69 1580.87,-514.06 1580.06,-521.01"/>
<text text-anchor="start" x="1222" y="-525.8" font-family="arial" font-size="14.00" fill="#377eb8">S&#39;</text>
</g>
<!-- ID_25_ct0_st0124W&#45;&gt;ID_25_ct0_st023 -->
<g id="edge47" class="edge">
<title>ID_25_ct0_st0124W&#45;&gt;ID_25_ct0_st023</title>
<path fill="none" stroke="black" d="M874.24,-614.2C897.54,-606.97 923.7,-599.49 948,-594 1093.13,-561.18 1268.19,-555.99 1363.58,-555.96"/>
<polygon fill="black" stroke="black" points="1363.68,-559.46 1373.69,-555.97 1363.69,-552.46 1363.68,-559.46"/>
<text text-anchor="start" x="1108" y="-572.8" font-family="arial" font-size="14.00" fill="#377eb8">true</text>
</g>
<!-- ID_25_ct0_st0124W&#45;&gt;ID_25_ct0_st0234W -->
<g id="edge48" class="edge">
<title>ID_25_ct0_st0124W&#45;&gt;ID_25_ct0_st0234W</title>
<path fill="none" stroke="black" d="M874.32,-647.06C897.74,-649.73 923.95,-652.37 948,-654 1014.79,-658.53 1090.74,-660.21 1146.59,-660.79"/>
<polygon fill="black" stroke="black" points="1146.74,-664.3 1156.78,-660.89 1146.81,-657.3 1146.74,-664.3"/>
<text text-anchor="start" x="996.5" y="-663.8" font-family="arial" font-size="14.00" fill="#377eb8">c0 &lt; 5</text>
</g>
<!-- ID_25_ct0_st0124W&#45;&gt;ID_25_ct0_st024W -->
<g id="edge46" class="edge">
<title>ID_25_ct0_st0124W&#45;&gt;ID_25_ct0_st024W</title>
<path fill="none" stroke="black" d="M817.63,-663.17C833.32,-689.56 860.61,-731.12 892,-760 906.53,-773.37 913.37,-772.37 930,-783 942.96,-791.29 956.86,-800.52 969.58,-809.1"/>
<polygon fill="black" stroke="black" points="967.92,-812.2 978.16,-814.91 971.84,-806.41 967.92,-812.2"/>
<text text-anchor="start" x="892" y="-786.8" font-family="arial" font-size="14.00" fill="#377eb8">c0 &lt; 5</text>
</g>
<!-- ID_25_ct0_st0124W&#45;&gt;ID_25_ct0_st0124W -->
<g id="edge50" class="edge">
<title>ID_25_ct0_st0124W&#45;&gt;ID_25_ct0_st0124W</title>
<path fill="none" stroke="black" d="M782.33,-663.18C781.43,-672.91 788.16,-681 802.5,-681 811.46,-681 817.45,-677.84 820.46,-673.09"/>
<polygon fill="black" stroke="black" points="823.92,-673.7 822.67,-663.18 817.08,-672.18 823.92,-673.7"/>
<text text-anchor="start" x="783.5" y="-684.8" font-family="arial" font-size="14.00" fill="#377eb8">c0 &lt; 5</text>
</g>
</g>
</svg>
