<?xml version="1.0" encoding="UTF-8" standalone="no"?>
<!DOCTYPE svg PUBLIC "-//W3C//DTD SVG 1.1//EN"
 "http://www.w3.org/Graphics/SVG/1.1/DTD/svg11.dtd">
<!-- Generated by graphviz version 2.40.1 (20161225.0304)
 -->
<!-- Title: G Pages: 1 -->
<svg width="1613pt" height="775pt"
 viewBox="0.00 0.00 1613.00 774.82" xmlns="http://www.w3.org/2000/svg" xmlns:xlink="http://www.w3.org/1999/xlink">
<g id="graph0" class="graph" transform="scale(1 1) rotate(0) translate(4 770.8163)">
<title>G</title>
<polygon fill="#ffffff" stroke="transparent" points="-4,4 -4,-770.8163 1609,-770.8163 1609,4 -4,4"/>
<!-- _stinit -->
<!-- stinit -->
<g id="node2" class="node">
<title>stinit</title>
<polygon fill="none" stroke="#000000" points="1455.5,-733.8163 1401.5,-733.8163 1401.5,-683.8163 1455.5,-683.8163 1455.5,-733.8163"/>
<text text-anchor="start" x="1411.5" y="-719.6163" font-family="arial" font-weight="bold" font-size="14.00" fill="#000000">stinit</text>
<text text-anchor="start" x="1422.5" y="-705.6163" font-family="arial" font-size="14.00" fill="#984ea3">Q</text>
<text text-anchor="start" x="1416" y="-691.6163" font-family="arial" font-size="14.00" fill="#ff7f00">true</text>
</g>
<!-- _stinit&#45;&gt;stinit -->
<g id="edge1" class="edge">
<title>_stinit&#45;&gt;stinit</title>
<path fill="none" stroke="#000000" d="M1243.3456,-708.8163C1280.9607,-708.8163 1348.8021,-708.8163 1391.0921,-708.8163"/>
<polygon fill="#000000" stroke="#000000" points="1391.2594,-712.3164 1401.2593,-708.8163 1391.2593,-705.3164 1391.2594,-712.3164"/>
</g>
<!-- stinit&#45;&gt;stinit -->
<g id="edge5" class="edge">
<title>stinit&#45;&gt;stinit</title>
<path fill="none" stroke="#000000" d="M1411.3174,-733.9919C1410.5537,-743.7258 1416.2813,-751.8163 1428.5,-751.8163 1436.1367,-751.8163 1441.2378,-748.6559 1443.8033,-743.9092"/>
<polygon fill="#000000" stroke="#000000" points="1447.2595,-744.4687 1445.6826,-733.9919 1440.3819,-743.1653 1447.2595,-744.4687"/>
<text text-anchor="start" x="1416" y="-755.6163" font-family="arial" font-size="14.00" fill="#377eb8">true</text>
</g>
<!-- st -->
<g id="node7" class="node">
<title>st</title>
<polygon fill="none" stroke="#000000" points="1605,-637.8163 1551,-637.8163 1551,-587.8163 1605,-587.8163 1605,-637.8163"/>
<text text-anchor="start" x="1571.5" y="-623.6163" font-family="arial" font-weight="bold" font-size="14.00" fill="#000000">st</text>
<text text-anchor="start" x="1565.5" y="-609.6163" font-family="arial" font-size="14.00" fill="#984ea3">true</text>
<text text-anchor="start" x="1565.5" y="-595.6163" font-family="arial" font-size="14.00" fill="#ff7f00">true</text>
</g>
<!-- stinit&#45;&gt;st -->
<g id="edge4" class="edge">
<title>stinit&#45;&gt;st</title>
<path fill="none" stroke="#000000" d="M1455.7868,-702.9792C1478.1082,-697.2349 1509.6832,-686.8116 1533,-669.8163 1541.8793,-663.3442 1549.9282,-654.673 1556.6829,-646.05"/>
<polygon fill="#000000" stroke="#000000" points="1559.603,-647.9881 1562.7475,-637.8707 1553.98,-643.8189 1559.603,-647.9881"/>
<text text-anchor="start" x="1508" y="-686.6163" font-family="arial" font-size="14.00" fill="#377eb8">true</text>
</g>
<!-- _st0 -->
<!-- st0 -->
<g id="node4" class="node">
<title>st0</title>
<polygon fill="none" stroke="#000000" points="207,-591.8163 91,-591.8163 91,-541.8163 207,-541.8163 207,-591.8163"/>
<text text-anchor="start" x="138" y="-577.6163" font-family="arial" font-weight="bold" font-size="14.00" fill="#000000">st0</text>
<text text-anchor="start" x="99" y="-563.6163" font-family="arial" font-size="14.00" fill="#984ea3">(!Q &amp;&amp; (R || !S))</text>
<text text-anchor="start" x="136.5" y="-549.6163" font-family="arial" font-size="14.00" fill="#ff7f00">true</text>
</g>
<!-- _st0&#45;&gt;st0 -->
<g id="edge2" class="edge">
<title>_st0&#45;&gt;st0</title>
<path fill="none" stroke="#000000" d="M54.0758,-566.8163C62.0149,-566.8163 71.0782,-566.8163 80.3816,-566.8163"/>
<polygon fill="#000000" stroke="#000000" points="80.5293,-570.3164 90.5292,-566.8163 80.5292,-563.3164 80.5293,-570.3164"/>
</g>
<!-- st0&#45;&gt;st0 -->
<g id="edge8" class="edge">
<title>st0&#45;&gt;st0</title>
<path fill="none" stroke="#000000" d="M134.8057,-591.9919C134.1748,-601.7258 138.9063,-609.8163 149,-609.8163 155.3086,-609.8163 159.5225,-606.6559 161.6418,-601.9092"/>
<polygon fill="#000000" stroke="#000000" points="165.1055,-602.4129 163.1943,-591.9919 158.1898,-601.3302 165.1055,-602.4129"/>
<text text-anchor="start" x="136.5" y="-613.6163" font-family="arial" font-size="14.00" fill="#377eb8">true</text>
</g>
<!-- st012 -->
<g id="node6" class="node">
<title>st012</title>
<polygon fill="none" stroke="#000000" points="396,-436.8163 268,-436.8163 268,-386.8163 396,-386.8163 396,-436.8163"/>
<text text-anchor="start" x="313" y="-422.6163" font-family="arial" font-weight="bold" font-size="14.00" fill="#000000">st012</text>
<text text-anchor="start" x="276" y="-408.6163" font-family="arial" font-size="14.00" fill="#984ea3">(!Q &amp;&amp; (!R &amp;&amp; S))</text>
<text text-anchor="start" x="319.5" y="-394.6163" font-family="arial" font-size="14.00" fill="#ff7f00">true</text>
</g>
<!-- st0&#45;&gt;st012 -->
<g id="edge9" class="edge">
<title>st0&#45;&gt;st012</title>
<path fill="none" stroke="#000000" d="M178.8094,-541.5679C210.3137,-514.8839 260.0817,-472.7307 294.2928,-443.7541"/>
<polygon fill="#000000" stroke="#000000" points="296.8348,-446.1878 302.2034,-437.0539 292.3105,-440.8463 296.8348,-446.1878"/>
<text text-anchor="start" x="225" y="-502.6163" font-family="arial" font-size="14.00" fill="#377eb8">true</text>
</g>
<!-- st0&#45;&gt;st -->
<g id="edge7" class="edge">
<title>st0&#45;&gt;st</title>
<path fill="none" stroke="#000000" d="M178.8936,-591.8446C213.4597,-618.1686 273.1774,-655.8163 332,-655.8163 332,-655.8163 332,-655.8163 1428.5,-655.8163 1468.172,-655.8163 1511.5394,-641.6583 1541.2991,-629.5903"/>
<polygon fill="#000000" stroke="#000000" points="1542.9676,-632.6864 1550.8449,-625.6013 1540.2686,-626.2277 1542.9676,-632.6864"/>
<text text-anchor="start" x="838" y="-659.6163" font-family="arial" font-size="14.00" fill="#377eb8">Q&#39;</text>
</g>
<!-- _st012 -->
<!-- _st012&#45;&gt;st012 -->
<g id="edge3" class="edge">
<title>_st012&#45;&gt;st012</title>
<path fill="none" stroke="#000000" d="M179.6301,-411.8163C200.9227,-411.8163 230.2638,-411.8163 257.5171,-411.8163"/>
<polygon fill="#000000" stroke="#000000" points="257.8389,-415.3164 267.8388,-411.8163 257.8388,-408.3164 257.8389,-415.3164"/>
</g>
<!-- st012&#45;&gt;st012 -->
<g id="edge19" class="edge">
<title>st012&#45;&gt;st012</title>
<path fill="none" stroke="#000000" d="M314.4438,-436.9919C313.6636,-446.7258 319.5156,-454.8163 332,-454.8163 339.8027,-454.8163 345.0147,-451.6559 347.6359,-446.9092"/>
<polygon fill="#000000" stroke="#000000" points="351.0913,-447.4749 349.5562,-436.9919 344.219,-446.1442 351.0913,-447.4749"/>
<text text-anchor="start" x="319.5" y="-458.6163" font-family="arial" font-size="14.00" fill="#377eb8">true</text>
</g>
<!-- st012&#45;&gt;st -->
<g id="edge15" class="edge">
<title>st012&#45;&gt;st</title>
<path fill="none" stroke="#000000" d="M341.7255,-436.8666C364.4705,-490.7482 426.5835,-612.8163 522.5,-612.8163 522.5,-612.8163 522.5,-612.8163 1428.5,-612.8163 1466.8088,-612.8163 1510.6393,-612.8163 1540.89,-612.8163"/>
<polygon fill="#000000" stroke="#000000" points="1540.9925,-616.3164 1550.9925,-612.8163 1540.9924,-609.3164 1540.9925,-616.3164"/>
<text text-anchor="start" x="969.5" y="-616.6163" font-family="arial" font-size="14.00" fill="#377eb8">Q&#39;</text>
</g>
<!-- st02 -->
<g id="node8" class="node">
<title>st02</title>
<polygon fill="none" stroke="#000000" points="588,-307.8163 457,-307.8163 457,-257.8163 588,-257.8163 588,-307.8163"/>
<text text-anchor="start" x="507.5" y="-293.6163" font-family="arial" font-weight="bold" font-size="14.00" fill="#000000">st02</text>
<text text-anchor="start" x="465" y="-279.6163" font-family="arial" font-size="14.00" fill="#984ea3">(!Q &amp;&amp; (!R &amp;&amp; !S))</text>
<text text-anchor="start" x="510" y="-265.6163" font-family="arial" font-size="14.00" fill="#ff7f00">true</text>
</g>
<!-- st012&#45;&gt;st02 -->
<g id="edge16" class="edge">
<title>st012&#45;&gt;st02</title>
<path fill="none" stroke="#000000" d="M362.4757,-386.5821C377.6325,-374.4096 396.4274,-359.8702 414,-347.8163 431.4244,-335.8639 451.0796,-323.7132 468.8266,-313.2019"/>
<polygon fill="#000000" stroke="#000000" points="471.0623,-315.9478 477.9113,-307.8644 467.5163,-309.9124 471.0623,-315.9478"/>
<text text-anchor="start" x="414" y="-351.6163" font-family="arial" font-size="14.00" fill="#377eb8">true</text>
</g>
<!-- st023 -->
<g id="node9" class="node">
<title>st023</title>
<polygon fill="none" stroke="#000000" points="1490,-340.8163 1367,-340.8163 1367,-290.8163 1490,-290.8163 1490,-340.8163"/>
<text text-anchor="start" x="1409.5" y="-326.6163" font-family="arial" font-weight="bold" font-size="14.00" fill="#000000">st023</text>
<text text-anchor="start" x="1375" y="-312.6163" font-family="arial" font-size="14.00" fill="#984ea3">(!Q &amp;&amp; (R &amp;&amp; T))</text>
<text text-anchor="start" x="1416" y="-298.6163" font-family="arial" font-size="14.00" fill="#ff7f00">true</text>
</g>
<!-- st012&#45;&gt;st023 -->
<g id="edge17" class="edge">
<title>st012&#45;&gt;st023</title>
<path fill="none" stroke="#000000" d="M347.0793,-437.0647C375.4475,-480.9857 441.2757,-566.8163 522.5,-566.8163 522.5,-566.8163 522.5,-566.8163 1216,-566.8163 1281.2183,-566.8163 1303.7693,-551.8015 1349,-504.8163 1390.8764,-461.3155 1412.1617,-392.484 1421.7579,-350.9883"/>
<polygon fill="#000000" stroke="#000000" points="1425.2117,-351.5792 1423.9512,-341.0596 1418.3765,-350.0692 1425.2117,-351.5792"/>
<text text-anchor="start" x="833" y="-570.6163" font-family="arial" font-size="14.00" fill="#377eb8">true</text>
</g>
<!-- st0234 -->
<g id="node10" class="node">
<title>st0234</title>
<polygon fill="none" stroke="#000000" points="802,-260.8163 675,-260.8163 675,-210.8163 802,-210.8163 802,-260.8163"/>
<text text-anchor="start" x="715.5" y="-246.6163" font-family="arial" font-weight="bold" font-size="14.00" fill="#000000">st0234</text>
<text text-anchor="start" x="683" y="-232.6163" font-family="arial" font-size="14.00" fill="#984ea3">(!Q &amp;&amp; (R &amp;&amp; !T))</text>
<text text-anchor="start" x="726" y="-218.6163" font-family="arial" font-size="14.00" fill="#ff7f00">true</text>
</g>
<!-- st012&#45;&gt;st0234 -->
<g id="edge18" class="edge">
<title>st012&#45;&gt;st0234</title>
<path fill="none" stroke="#000000" d="M396.2507,-403.7244C449.5589,-395.2858 526.3355,-379.0685 588,-349.8163 632.1239,-328.8849 675.8656,-293.703 704.7241,-267.9482"/>
<polygon fill="#000000" stroke="#000000" points="707.3886,-270.2576 712.457,-260.9537 702.6929,-265.0662 707.3886,-270.2576"/>
<text text-anchor="start" x="510" y="-395.6163" font-family="arial" font-size="14.00" fill="#377eb8">true</text>
</g>
<!-- st&#45;&gt;st -->
<g id="edge6" class="edge">
<title>st&#45;&gt;st</title>
<path fill="none" stroke="#000000" d="M1567.541,-637.9919C1567.0762,-647.7258 1570.5625,-655.8163 1578,-655.8163 1582.5322,-655.8163 1585.5972,-652.812 1587.195,-648.2622"/>
<polygon fill="#000000" stroke="#000000" points="1590.7112,-648.3446 1588.459,-637.9919 1583.7636,-647.4895 1590.7112,-648.3446"/>
<text text-anchor="start" x="1565.5" y="-659.6163" font-family="arial" font-size="14.00" fill="#377eb8">true</text>
</g>
<!-- st02&#45;&gt;st012 -->
<g id="edge14" class="edge">
<title>st02&#45;&gt;st012</title>
<path fill="none" stroke="#000000" d="M456.7946,-282.6217C441.9371,-284.8727 426.7892,-289.1527 414,-296.8163 382.9546,-315.4193 360.4499,-350.7987 346.9575,-377.4255"/>
<polygon fill="#000000" stroke="#000000" points="343.8003,-375.9147 342.5617,-386.4369 350.0917,-378.9837 343.8003,-375.9147"/>
<text text-anchor="start" x="414" y="-300.6163" font-family="arial" font-size="14.00" fill="#377eb8">true</text>
</g>
<!-- st02&#45;&gt;st -->
<g id="edge10" class="edge">
<title>st02&#45;&gt;st</title>
<path fill="none" stroke="#000000" d="M551.0708,-308.0767C562.9992,-319.1748 576.6839,-332.6571 588,-345.8163 656.6604,-425.6597 633.1946,-528.8163 738.5,-528.8163 738.5,-528.8163 738.5,-528.8163 1428.5,-528.8163 1472.8569,-528.8163 1516.2216,-557.2692 1544.7243,-581.0557"/>
<polygon fill="#000000" stroke="#000000" points="1542.4918,-583.752 1552.3579,-587.6135 1547.0533,-578.4423 1542.4918,-583.752"/>
<text text-anchor="start" x="1088" y="-532.6163" font-family="arial" font-size="14.00" fill="#377eb8">Q&#39;</text>
</g>
<!-- st02&#45;&gt;st02 -->
<g id="edge11" class="edge">
<title>st02&#45;&gt;st02</title>
<path fill="none" stroke="#000000" d="M504.5703,-307.9919C503.7734,-317.7258 509.75,-325.8163 522.5,-325.8163 530.4688,-325.8163 535.7916,-322.6559 538.4686,-317.9092"/>
<polygon fill="#000000" stroke="#000000" points="541.9233,-318.4809 540.4297,-307.9919 535.0562,-317.123 541.9233,-318.4809"/>
<text text-anchor="start" x="510" y="-329.6163" font-family="arial" font-size="14.00" fill="#377eb8">true</text>
</g>
<!-- st02&#45;&gt;st023 -->
<g id="edge12" class="edge">
<title>st02&#45;&gt;st023</title>
<path fill="none" stroke="#000000" d="M588.357,-307.2737C594.2942,-309.2368 600.2383,-311.1156 606,-312.8163 822.82,-376.815 882.1905,-405.6257 1108,-394.8163 1196.3031,-390.5892 1220.6936,-399.0137 1306,-375.8163 1326.3386,-370.2856 1330.0281,-364.9985 1349,-355.8163 1355.6929,-352.577 1362.679,-349.142 1369.6114,-345.6993"/>
<polygon fill="#000000" stroke="#000000" points="1371.612,-348.6128 1378.9989,-341.0178 1368.488,-342.3485 1371.612,-348.6128"/>
<text text-anchor="start" x="964.5" y="-401.6163" font-family="arial" font-size="14.00" fill="#377eb8">true</text>
</g>
<!-- st02&#45;&gt;st0234 -->
<g id="edge13" class="edge">
<title>st02&#45;&gt;st0234</title>
<path fill="none" stroke="#000000" d="M588.0943,-272.4444C610.0903,-268.6127 634.6918,-263.9413 657,-258.8163 659.5075,-258.2402 662.0531,-257.6354 664.6197,-257.0085"/>
<polygon fill="#000000" stroke="#000000" points="665.7476,-260.3337 674.5884,-254.495 664.0361,-253.5462 665.7476,-260.3337"/>
<text text-anchor="start" x="619" y="-272.6163" font-family="arial" font-size="14.00" fill="#377eb8">true</text>
</g>
<!-- st023&#45;&gt;st012 -->
<g id="edge25" class="edge">
<title>st023&#45;&gt;st012</title>
<path fill="none" stroke="#000000" d="M1413.9282,-340.8895C1383.7091,-389.2786 1309.1951,-490.8163 1216,-490.8163 522.5,-490.8163 522.5,-490.8163 522.5,-490.8163 469.6311,-490.8163 414.3721,-464.5326 377.07,-442.2864"/>
<polygon fill="#000000" stroke="#000000" points="378.8147,-439.2509 368.4554,-437.0296 375.1684,-445.2263 378.8147,-439.2509"/>
<text text-anchor="start" x="820" y="-494.6163" font-family="arial" font-size="14.00" fill="#377eb8">(Q&#39; || T&#39;)</text>
</g>
<!-- st023&#45;&gt;st -->
<g id="edge20" class="edge">
<title>st023&#45;&gt;st</title>
<path fill="none" stroke="#000000" d="M1444.1702,-340.8231C1465.67,-375.6803 1504.8489,-441.2018 1533,-499.8163 1545.3435,-525.5171 1557.1843,-555.5411 1565.6191,-578.1787"/>
<polygon fill="#000000" stroke="#000000" points="1562.388,-579.533 1569.1305,-587.7054 1568.956,-577.112 1562.388,-579.533"/>
<text text-anchor="start" x="1513" y="-503.6163" font-family="arial" font-size="14.00" fill="#377eb8">Q&#39;</text>
</g>
<!-- st023&#45;&gt;st02 -->
<g id="edge21" class="edge">
<title>st023&#45;&gt;st02</title>
<path fill="none" stroke="#000000" d="M1422.6083,-290.5584C1412.2277,-249.3378 1388.0092,-166.0641 1349,-104.8163 1313.2264,-48.6485 1282.5926,-35.8163 1216,-35.8163 738.5,-35.8163 738.5,-35.8163 738.5,-35.8163 647.1937,-35.8163 649.4709,-112.5223 606,-192.8163 594.1948,-214.6214 603.6412,-228.5236 589.5713,-249.5474"/>
<polygon fill="#000000" stroke="#000000" points="586.6436,-247.6095 583.2407,-257.6431 592.1579,-251.9215 586.6436,-247.6095"/>
<text text-anchor="start" x="951.5" y="-39.6163" font-family="arial" font-size="14.00" fill="#377eb8">(Q&#39; || T&#39;)</text>
</g>
<!-- st023&#45;&gt;st023 -->
<g id="edge23" class="edge">
<title>st023&#45;&gt;st023</title>
<path fill="none" stroke="#000000" d="M1411.3174,-340.9919C1410.5537,-350.7258 1416.2813,-358.8163 1428.5,-358.8163 1436.1367,-358.8163 1441.2378,-355.6559 1443.8033,-350.9092"/>
<polygon fill="#000000" stroke="#000000" points="1447.2595,-351.4687 1445.6826,-340.9919 1440.3819,-350.1653 1447.2595,-351.4687"/>
<text text-anchor="start" x="1416" y="-362.6163" font-family="arial" font-size="14.00" fill="#377eb8">true</text>
</g>
<!-- st023&#45;&gt;st0234 -->
<g id="edge24" class="edge">
<title>st023&#45;&gt;st0234</title>
<path fill="none" stroke="#000000" d="M1395.6472,-290.8154C1372.0488,-274.3347 1338.7482,-253.9816 1306,-243.8163 1135.5798,-190.9164 922.281,-208.8567 812.0517,-223.8838"/>
<polygon fill="#000000" stroke="#000000" points="811.4548,-220.4331 802.0339,-225.2804 812.4214,-227.366 811.4548,-220.4331"/>
<text text-anchor="start" x="1083" y="-214.6163" font-family="arial" font-size="14.00" fill="#377eb8">true</text>
</g>
<!-- st024 -->
<g id="node11" class="node">
<title>st024</title>
<polygon fill="none" stroke="#000000" points="1306,-302.8163 1126,-302.8163 1126,-252.8163 1306,-252.8163 1306,-302.8163"/>
<text text-anchor="start" x="1197" y="-288.6163" font-family="arial" font-weight="bold" font-size="14.00" fill="#000000">st024</text>
<text text-anchor="start" x="1134" y="-274.6163" font-family="arial" font-size="14.00" fill="#984ea3">(!Q &amp;&amp; (!R &amp;&amp; (!S &amp;&amp; !T)))</text>
<text text-anchor="start" x="1203.5" y="-260.6163" font-family="arial" font-size="14.00" fill="#ff7f00">true</text>
</g>
<!-- st023&#45;&gt;st024 -->
<g id="edge22" class="edge">
<title>st023&#45;&gt;st024</title>
<path fill="none" stroke="#000000" d="M1383.4451,-290.8124C1372.4896,-285.8798 1360.5842,-281.4257 1349,-278.8163 1338.4794,-276.4465 1327.3709,-274.908 1316.2392,-273.9765"/>
<polygon fill="#000000" stroke="#000000" points="1316.2394,-270.4686 1306.0258,-273.2852 1315.7666,-277.4526 1316.2394,-270.4686"/>
<text text-anchor="start" x="1324" y="-282.6163" font-family="arial" font-size="14.00" fill="#377eb8">true</text>
</g>
<!-- st0124 -->
<g id="node12" class="node">
<title>st0124</title>
<polygon fill="none" stroke="#000000" points="1065,-124.8163 889,-124.8163 889,-74.8163 1065,-74.8163 1065,-124.8163"/>
<text text-anchor="start" x="954" y="-110.6163" font-family="arial" font-weight="bold" font-size="14.00" fill="#000000">st0124</text>
<text text-anchor="start" x="897" y="-96.6163" font-family="arial" font-size="14.00" fill="#984ea3">(!Q &amp;&amp; (!R &amp;&amp; (S &amp;&amp; !T)))</text>
<text text-anchor="start" x="964.5" y="-82.6163" font-family="arial" font-size="14.00" fill="#ff7f00">true</text>
</g>
<!-- st023&#45;&gt;st0124 -->
<g id="edge26" class="edge">
<title>st023&#45;&gt;st0124</title>
<path fill="none" stroke="#000000" d="M1416.8141,-290.5456C1403.7101,-264.8114 1380.1479,-225.4331 1349,-201.8163 1269.2968,-141.384 1155.9668,-116.7479 1075.3803,-106.7095"/>
<polygon fill="#000000" stroke="#000000" points="1075.5689,-103.2073 1065.2251,-105.4999 1074.741,-110.1581 1075.5689,-103.2073"/>
<text text-anchor="start" x="1203.5" y="-177.6163" font-family="arial" font-size="14.00" fill="#377eb8">true</text>
</g>
<!-- st0234&#45;&gt;st012 -->
<g id="edge43" class="edge">
<title>st0234&#45;&gt;st012</title>
<path fill="none" stroke="#000000" d="M674.743,-220.2094C615.3702,-209.0789 525.9134,-201.2018 457,-233.8163 397.7856,-261.8405 361.4217,-333.6285 344.1319,-376.9944"/>
<polygon fill="#000000" stroke="#000000" points="340.7692,-375.9872 340.437,-386.5768 347.3004,-378.5057 340.7692,-375.9872"/>
<text text-anchor="start" x="497" y="-237.6163" font-family="arial" font-size="14.00" fill="#377eb8">(Q&#39; || T&#39;)</text>
</g>
<!-- st0234&#45;&gt;st02 -->
<g id="edge39" class="edge">
<title>st0234&#45;&gt;st02</title>
<path fill="none" stroke="#000000" d="M674.6753,-232.0555C652.6221,-232.2458 627.9479,-234.145 606,-239.8163 594.2829,-242.8439 582.3414,-247.7303 571.2905,-253.1431"/>
<polygon fill="#000000" stroke="#000000" points="569.5421,-250.1063 562.2417,-257.7845 572.7369,-256.3347 569.5421,-250.1063"/>
<text text-anchor="start" x="606" y="-243.6163" font-family="arial" font-size="14.00" fill="#377eb8">(Q&#39; || T&#39;)</text>
</g>
<!-- st0234&#45;&gt;st023 -->
<g id="edge41" class="edge">
<title>st0234&#45;&gt;st023</title>
<path fill="none" stroke="#000000" d="M753.3495,-261.0092C767.5027,-282.4163 790.9377,-311.8325 820,-325.8163 997.339,-411.1455 1238.7513,-367.011 1357.1167,-336.6339"/>
<polygon fill="#000000" stroke="#000000" points="1358.0103,-340.0181 1366.8034,-334.1078 1356.2438,-333.2446 1358.0103,-340.0181"/>
<text text-anchor="start" x="1083" y="-379.6163" font-family="arial" font-size="14.00" fill="#377eb8">true</text>
</g>
<!-- st0234&#45;&gt;st0234 -->
<g id="edge42" class="edge">
<title>st0234&#45;&gt;st0234</title>
<path fill="none" stroke="#000000" d="M718.7026,-260.9919C717.8228,-270.7258 724.4219,-278.8163 738.5,-278.8163 747.2988,-278.8163 753.1762,-275.6559 756.132,-270.9092"/>
<polygon fill="#000000" stroke="#000000" points="759.5836,-271.5084 758.2974,-260.9919 752.7447,-270.0151 759.5836,-271.5084"/>
<text text-anchor="start" x="726" y="-282.6163" font-family="arial" font-size="14.00" fill="#377eb8">true</text>
</g>
<!-- st0234&#45;&gt;st024 -->
<g id="edge40" class="edge">
<title>st0234&#45;&gt;st024</title>
<path fill="none" stroke="#000000" d="M802.3597,-248.0577C829.0437,-252.7469 860.4304,-257.7107 889,-260.8163 964.7732,-269.0528 1050.8725,-273.3249 1115.6968,-275.5259"/>
<polygon fill="#000000" stroke="#000000" points="1115.8036,-279.0312 1125.9132,-275.8617 1116.0336,-272.035 1115.8036,-279.0312"/>
<text text-anchor="start" x="964.5" y="-277.6163" font-family="arial" font-size="14.00" fill="#377eb8">true</text>
</g>
<!-- st0234&#45;&gt;st0124 -->
<g id="edge44" class="edge">
<title>st0234&#45;&gt;st0124</title>
<path fill="none" stroke="#000000" d="M750.9458,-210.4948C764.4462,-185.8316 788.3761,-149.2951 820,-129.8163 830.7422,-123.1995 853.6609,-117.4984 878.7507,-112.8971"/>
<polygon fill="#000000" stroke="#000000" points="879.5913,-116.3031 888.8336,-111.1234 878.3784,-109.409 879.5913,-116.3031"/>
<text text-anchor="start" x="833" y="-133.6163" font-family="arial" font-size="14.00" fill="#377eb8">true</text>
</g>
<!-- st024&#45;&gt;st012 -->
<g id="edge31" class="edge">
<title>st024&#45;&gt;st012</title>
<path fill="none" stroke="#000000" d="M1200.6605,-303.0239C1176.9474,-338.8278 1127.525,-401.7502 1065,-416.8163 830.1751,-473.3999 540.6212,-443.3297 406.5797,-423.9959"/>
<polygon fill="#000000" stroke="#000000" points="406.8256,-420.4946 396.4239,-422.5084 405.8111,-427.4207 406.8256,-420.4946"/>
<text text-anchor="start" x="713" y="-453.6163" font-family="arial" font-size="14.00" fill="#377eb8">(Q&#39; || T&#39;)</text>
</g>
<!-- st024&#45;&gt;st02 -->
<g id="edge27" class="edge">
<title>st024&#45;&gt;st02</title>
<path fill="none" stroke="#000000" d="M1125.9609,-288.103C1018.5442,-298.9581 833.5626,-313.1695 675,-302.8163 649.9416,-301.1801 622.714,-298.047 598.2926,-294.7377"/>
<polygon fill="#000000" stroke="#000000" points="598.7569,-291.2687 588.3712,-293.3632 597.7963,-298.2024 598.7569,-291.2687"/>
<text text-anchor="start" x="820" y="-310.6163" font-family="arial" font-size="14.00" fill="#377eb8">(Q&#39; || T&#39;)</text>
</g>
<!-- st024&#45;&gt;st023 -->
<g id="edge29" class="edge">
<title>st024&#45;&gt;st023</title>
<path fill="none" stroke="#000000" d="M1306.1191,-293.9317C1323.0746,-296.9637 1340.5912,-300.0961 1356.8872,-303.0102"/>
<polygon fill="#000000" stroke="#000000" points="1356.4001,-306.4785 1366.8601,-304.7936 1357.6324,-299.5879 1356.4001,-306.4785"/>
<text text-anchor="start" x="1324" y="-305.6163" font-family="arial" font-size="14.00" fill="#377eb8">true</text>
</g>
<!-- st024&#45;&gt;st0234 -->
<g id="edge30" class="edge">
<title>st024&#45;&gt;st0234</title>
<path fill="none" stroke="#000000" d="M1125.8114,-255.9649C1105.8941,-251.9075 1084.8212,-248.2008 1065,-245.8163 978.8192,-235.4487 878.9755,-233.9038 812.6148,-234.3377"/>
<polygon fill="#000000" stroke="#000000" points="812.2298,-230.8407 802.2591,-234.4233 812.2877,-237.8404 812.2298,-230.8407"/>
<text text-anchor="start" x="964.5" y="-249.6163" font-family="arial" font-size="14.00" fill="#377eb8">true</text>
</g>
<!-- st024&#45;&gt;st024 -->
<g id="edge28" class="edge">
<title>st024&#45;&gt;st024</title>
<path fill="none" stroke="#000000" d="M1193.5879,-302.9919C1192.5918,-312.7258 1200.0625,-320.8163 1216,-320.8163 1225.9609,-320.8163 1232.6145,-317.6559 1235.9608,-312.9092"/>
<polygon fill="#000000" stroke="#000000" points="1239.4102,-313.5396 1238.4121,-302.9919 1232.6147,-311.8599 1239.4102,-313.5396"/>
<text text-anchor="start" x="1203.5" y="-324.6163" font-family="arial" font-size="14.00" fill="#377eb8">true</text>
</g>
<!-- st024&#45;&gt;st0124 -->
<g id="edge32" class="edge">
<title>st024&#45;&gt;st0124</title>
<path fill="none" stroke="#000000" d="M1191.4981,-252.7079C1170.3782,-231.7325 1138.5502,-201.6718 1108,-178.8163 1084.3347,-161.1115 1056.4897,-143.871 1032.5707,-130.0369"/>
<polygon fill="#000000" stroke="#000000" points="1034.0299,-126.8393 1023.6127,-124.9077 1030.5517,-132.914 1034.0299,-126.8393"/>
<text text-anchor="start" x="1083" y="-182.6163" font-family="arial" font-size="14.00" fill="#377eb8">true</text>
</g>
<!-- st0124&#45;&gt;st012 -->
<g id="edge37" class="edge">
<title>st0124&#45;&gt;st012</title>
<path fill="none" stroke="#000000" d="M916.3528,-74.7984C825.9835,-39.1696 660.7464,19.1502 606,-6.8163 449.928,-80.842 368.8557,-293.0566 342.159,-377.0175"/>
<polygon fill="#000000" stroke="#000000" points="338.8056,-376.0144 339.1715,-386.6029 345.4886,-378.0974 338.8056,-376.0144"/>
<text text-anchor="start" x="606" y="-10.6163" font-family="arial" font-size="14.00" fill="#377eb8">(Q&#39; || T&#39;)</text>
</g>
<!-- st0124&#45;&gt;st02 -->
<g id="edge33" class="edge">
<title>st0124&#45;&gt;st02</title>
<path fill="none" stroke="#000000" d="M888.7349,-101.8257C866.0257,-103.9298 841.8431,-107.5903 820,-113.8163 818.0748,-114.365 646.5176,-192.0393 606,-228.8163 597.9012,-236.1674 597.9626,-241.9775 588.7965,-251.182"/>
<polygon fill="#000000" stroke="#000000" points="586.4855,-248.5534 581.262,-257.7711 591.0936,-253.8227 586.4855,-248.5534"/>
<text text-anchor="start" x="713" y="-188.6163" font-family="arial" font-size="14.00" fill="#377eb8">(Q&#39; || T&#39;)</text>
</g>
<!-- st0124&#45;&gt;st023 -->
<g id="edge35" class="edge">
<title>st0124&#45;&gt;st023</title>
<path fill="none" stroke="#000000" d="M1065.0561,-75.2628C1135.2086,-60.955 1233.3622,-53.1231 1306,-95.8163 1374.2269,-135.9169 1407.2177,-229.3148 1420.6894,-280.5802"/>
<polygon fill="#000000" stroke="#000000" points="1417.3629,-281.7033 1423.2009,-290.5446 1424.1506,-279.9924 1417.3629,-281.7033"/>
<text text-anchor="start" x="1203.5" y="-99.6163" font-family="arial" font-size="14.00" fill="#377eb8">true</text>
</g>
<!-- st0124&#45;&gt;st0234 -->
<g id="edge36" class="edge">
<title>st0124&#45;&gt;st0234</title>
<path fill="none" stroke="#000000" d="M923.1199,-124.8412C906.4288,-132.5617 887.9669,-141.069 871,-148.8163 848.3813,-159.1442 841.2669,-158.9325 820,-171.8163 804.4361,-181.2451 788.448,-193.2142 774.8006,-204.2444"/>
<polygon fill="#000000" stroke="#000000" points="772.5633,-201.5526 767.0565,-210.6039 777.0059,-206.9623 772.5633,-201.5526"/>
<text text-anchor="start" x="833" y="-175.6163" font-family="arial" font-size="14.00" fill="#377eb8">true</text>
</g>
<!-- st0124&#45;&gt;st024 -->
<g id="edge34" class="edge">
<title>st0124&#45;&gt;st024</title>
<path fill="none" stroke="#000000" d="M1065.2373,-121.7318C1080.2309,-127.5717 1095.1037,-134.8367 1108,-143.8163 1146.0516,-170.3113 1177.6559,-213.9235 1196.6472,-244.1651"/>
<polygon fill="#000000" stroke="#000000" points="1193.6766,-246.0161 1201.8966,-252.7006 1199.6392,-242.349 1193.6766,-246.0161"/>
<text text-anchor="start" x="1083" y="-147.6163" font-family="arial" font-size="14.00" fill="#377eb8">true</text>
</g>
<!-- st0124&#45;&gt;st0124 -->
<g id="edge38" class="edge">
<title>st0124&#45;&gt;st0124</title>
<path fill="none" stroke="#000000" d="M954.9614,-124.9919C953.9819,-134.7258 961.3281,-142.8163 977,-142.8163 986.7949,-142.8163 993.3376,-139.6559 996.6281,-134.9092"/>
<polygon fill="#000000" stroke="#000000" points="1000.0777,-135.5356 999.0386,-124.9919 993.2757,-133.8823 1000.0777,-135.5356"/>
<text text-anchor="start" x="964.5" y="-146.6163" font-family="arial" font-size="14.00" fill="#377eb8">true</text>
</g>
</g>
</svg>
