<?xml version="1.0" encoding="UTF-8" standalone="no"?>
<!DOCTYPE svg PUBLIC "-//W3C//DTD SVG 1.1//EN"
 "http://www.w3.org/Graphics/SVG/1.1/DTD/svg11.dtd">
<!-- Generated by graphviz version 2.43.0 (0)
 -->
<!-- Title: G Pages: 1 -->
<svg width="2335pt" height="985pt"
 viewBox="0.00 0.00 2335.00 985.00" xmlns="http://www.w3.org/2000/svg" xmlns:xlink="http://www.w3.org/1999/xlink">
<g id="graph0" class="graph" transform="scale(1 1) rotate(0) translate(4 981)">
<title>G</title>
<polygon fill="white" stroke="transparent" points="-4,4 -4,-981 2331,-981 2331,4 -4,4"/>
<!-- _ID_36_ct0_st0 -->
<!-- ID_36_ct0_st0 -->
<g id="node2" class="node">
<title>ID_36_ct0_st0</title>
<polygon fill="none" stroke="black" points="261,-669 154,-669 154,-619 261,-619 261,-669"/>
<text text-anchor="start" x="162" y="-654.8" font-family="arial" font-weight="bold" font-size="14.00">ID_36_ct0_st0</text>
<text text-anchor="start" x="201" y="-640.8" font-family="arial" font-size="14.00" fill="#984ea3">!P</text>
<text text-anchor="start" x="195.5" y="-626.8" font-family="arial" font-size="14.00" fill="#ff7f00">true</text>
</g>
<!-- _ID_36_ct0_st0&#45;&gt;ID_36_ct0_st0 -->
<g id="edge1" class="edge">
<title>_ID_36_ct0_st0&#45;&gt;ID_36_ct0_st0</title>
<path fill="none" stroke="black" d="M111.08,-644C121.62,-644 132.74,-644 143.52,-644"/>
<polygon fill="black" stroke="black" points="143.72,-647.5 153.72,-644 143.72,-640.5 143.72,-647.5"/>
</g>
<!-- ID_36_ct0_st0&#45;&gt;ID_36_ct0_st0 -->
<g id="edge5" class="edge">
<title>ID_36_ct0_st0&#45;&gt;ID_36_ct0_st0</title>
<path fill="none" stroke="black" d="M192.93,-669.18C192.28,-678.91 197.14,-687 207.5,-687 213.97,-687 218.3,-683.84 220.47,-679.09"/>
<polygon fill="black" stroke="black" points="223.94,-679.6 222.07,-669.18 217.03,-678.49 223.94,-679.6"/>
<text text-anchor="start" x="195.5" y="-690.8" font-family="arial" font-size="14.00" fill="#377eb8">true</text>
</g>
<!-- ID_36_ct0_st01 -->
<g id="node4" class="node">
<title>ID_36_ct0_st01</title>
<polygon fill="none" stroke="black" points="441,-436 327,-436 327,-386 441,-386 441,-436"/>
<text text-anchor="start" x="335" y="-421.8" font-family="arial" font-weight="bold" font-size="14.00">ID_36_ct0_st01</text>
<text text-anchor="start" x="356.5" y="-407.8" font-family="arial" font-size="14.00" fill="#984ea3">(P &amp;&amp; Q)</text>
<text text-anchor="start" x="372" y="-393.8" font-family="arial" font-size="14.00" fill="#ff7f00">true</text>
</g>
<!-- ID_36_ct0_st0&#45;&gt;ID_36_ct0_st01 -->
<g id="edge6" class="edge">
<title>ID_36_ct0_st0&#45;&gt;ID_36_ct0_st01</title>
<path fill="none" stroke="black" d="M211.92,-618.79C218.72,-578.06 237.59,-497.56 285,-450 294.08,-440.89 305.55,-433.85 317.42,-428.42"/>
<polygon fill="black" stroke="black" points="319.12,-431.5 326.99,-424.4 316.41,-425.05 319.12,-431.5"/>
<text text-anchor="start" x="285" y="-453.8" font-family="arial" font-size="14.00" fill="#377eb8">true</text>
</g>
<!-- ID_36_ct0_st012 -->
<g id="node6" class="node">
<title>ID_36_ct0_st012</title>
<polygon fill="none" stroke="black" points="2327,-672 2204,-672 2204,-622 2327,-622 2327,-672"/>
<text text-anchor="start" x="2212.5" y="-657.8" font-family="arial" font-weight="bold" font-size="14.00">ID_36_ct0_st012</text>
<text text-anchor="start" x="2212" y="-643.8" font-family="arial" font-size="14.00" fill="#984ea3">(P &amp;&amp; (!Q &amp;&amp; !R))</text>
<text text-anchor="start" x="2253.5" y="-629.8" font-family="arial" font-size="14.00" fill="#ff7f00">true</text>
</g>
<!-- ID_36_ct0_st0&#45;&gt;ID_36_ct0_st012 -->
<g id="edge7" class="edge">
<title>ID_36_ct0_st0&#45;&gt;ID_36_ct0_st012</title>
<path fill="none" stroke="black" d="M211.75,-669.37C220.48,-733.54 246.41,-899.96 285,-938 316.94,-969.48 338.16,-962 383,-962 383,-962 383,-962 1991.5,-962 2078.6,-962 2120.23,-995.11 2186,-938 2224.61,-904.47 2250.03,-752.49 2259.89,-682.49"/>
<polygon fill="black" stroke="black" points="2263.38,-682.77 2261.28,-672.39 2256.45,-681.82 2263.38,-682.77"/>
<text text-anchor="start" x="1142" y="-965.8" font-family="arial" font-size="14.00" fill="#377eb8">true</text>
</g>
<!-- ID_36_ct0_st0123W -->
<g id="node8" class="node">
<title>ID_36_ct0_st0123W</title>
<polygon fill="none" stroke="black" points="879,-649 736,-649 736,-599 879,-599 879,-649"/>
<text text-anchor="start" x="744" y="-634.8" font-family="arial" font-weight="bold" font-size="14.00">ID_36_ct0_st0123W</text>
<text text-anchor="start" x="756" y="-620.8" font-family="arial" font-size="14.00" fill="#984ea3">(P &amp;&amp; (!Q &amp;&amp; R))</text>
<text text-anchor="start" x="784.5" y="-606.8" font-family="arial" font-size="14.00" fill="#ff7f00">c0 &lt;= 5</text>
</g>
<!-- ID_36_ct0_st0&#45;&gt;ID_36_ct0_st0123W -->
<g id="edge8" class="edge">
<title>ID_36_ct0_st0&#45;&gt;ID_36_ct0_st0123W</title>
<path fill="none" stroke="black" d="M215.19,-669.05C224.89,-699.78 246.1,-750.55 285,-773 313.63,-789.53 708.17,-780.52 718,-773 741.47,-755.05 722.27,-735.16 736,-709 745.94,-690.06 760.6,-671.49 773.99,-656.56"/>
<polygon fill="black" stroke="black" points="776.65,-658.83 780.84,-649.1 771.49,-654.1 776.65,-658.83"/>
<text text-anchor="start" x="466" y="-800.8" font-family="arial" font-size="14.00" fill="#377eb8">true</text>
<text text-anchor="start" x="459" y="-785.8" font-family="arial" font-size="14.00">c0 :=0</text>
</g>
<!-- _ID_36_ct0_st01 -->
<!-- _ID_36_ct0_st01&#45;&gt;ID_36_ct0_st01 -->
<g id="edge2" class="edge">
<title>_ID_36_ct0_st01&#45;&gt;ID_36_ct0_st01</title>
<path fill="none" stroke="black" d="M216.57,-36.17C243.72,-97.31 332.07,-296.29 367.8,-376.76"/>
<polygon fill="black" stroke="black" points="364.63,-378.25 371.89,-385.97 371.03,-375.41 364.63,-378.25"/>
</g>
<!-- ID_36_ct0_st01&#45;&gt;ID_36_ct0_st0 -->
<g id="edge9" class="edge">
<title>ID_36_ct0_st01&#45;&gt;ID_36_ct0_st0</title>
<path fill="none" stroke="black" d="M350.37,-436.17C329.93,-453.03 303.97,-476.54 285,-501 258.61,-535.03 236.45,-579.44 222.88,-609.68"/>
<polygon fill="black" stroke="black" points="219.62,-608.41 218.78,-618.97 226.02,-611.23 219.62,-608.41"/>
<text text-anchor="start" x="289.5" y="-504.8" font-family="arial" font-size="14.00" fill="#377eb8">Q&#39;</text>
</g>
<!-- ID_36_ct0_st01&#45;&gt;ID_36_ct0_st01 -->
<g id="edge12" class="edge">
<title>ID_36_ct0_st01&#45;&gt;ID_36_ct0_st01</title>
<path fill="none" stroke="black" d="M367.94,-436.18C367.22,-445.91 372.58,-454 384,-454 391.14,-454 395.91,-450.84 398.31,-446.09"/>
<polygon fill="black" stroke="black" points="401.76,-446.63 400.06,-436.18 394.87,-445.41 401.76,-446.63"/>
<text text-anchor="start" x="372" y="-457.8" font-family="arial" font-size="14.00" fill="#377eb8">true</text>
</g>
<!-- ID_36_ct0_st01&#45;&gt;ID_36_ct0_st012 -->
<g id="edge13" class="edge">
<title>ID_36_ct0_st01&#45;&gt;ID_36_ct0_st012</title>
<path fill="none" stroke="black" d="M392.88,-385.94C403.31,-356.95 424.51,-309.9 459,-284 479.51,-268.59 489.74,-274.46 515,-270 901.61,-201.78 1000.92,-178 1393.5,-178 1393.5,-178 1393.5,-178 1991.5,-178 2192.09,-178 2247.86,-502.4 2260.95,-611.61"/>
<polygon fill="black" stroke="black" points="2257.5,-612.25 2262.12,-621.78 2264.45,-611.45 2257.5,-612.25"/>
<text text-anchor="start" x="1255.5" y="-185.8" font-family="arial" font-size="14.00" fill="#377eb8">true</text>
</g>
<!-- ID_36_ct0_st01&#45;&gt;ID_36_ct0_st0123W -->
<g id="edge14" class="edge">
<title>ID_36_ct0_st01&#45;&gt;ID_36_ct0_st0123W</title>
<path fill="none" stroke="black" d="M401.6,-436.19C415.31,-455.63 436.17,-482.26 459,-501 480.83,-518.91 488.8,-520.48 515,-531 577.94,-556.28 600.89,-542.57 662,-572 670.89,-576.28 671.17,-580.6 680,-585 694.48,-592.21 710.56,-598.41 726.27,-603.6"/>
<polygon fill="black" stroke="black" points="725.39,-607 735.98,-606.7 727.52,-600.33 725.39,-607"/>
<text text-anchor="start" x="576.5" y="-590.8" font-family="arial" font-size="14.00" fill="#377eb8">true</text>
<text text-anchor="start" x="569.5" y="-575.8" font-family="arial" font-size="14.00">c0 :=0</text>
</g>
<!-- ID_36_ct0_st02 -->
<g id="node9" class="node">
<title>ID_36_ct0_st02</title>
<polygon fill="none" stroke="black" points="1565,-468 1438,-468 1438,-418 1565,-418 1565,-468"/>
<text text-anchor="start" x="1452.5" y="-453.8" font-family="arial" font-weight="bold" font-size="14.00">ID_36_ct0_st02</text>
<text text-anchor="start" x="1446" y="-439.8" font-family="arial" font-size="14.00" fill="#984ea3">(!P &amp;&amp; (!Q &amp;&amp; !R))</text>
<text text-anchor="start" x="1489.5" y="-425.8" font-family="arial" font-size="14.00" fill="#ff7f00">true</text>
</g>
<!-- ID_36_ct0_st01&#45;&gt;ID_36_ct0_st02 -->
<g id="edge10" class="edge">
<title>ID_36_ct0_st01&#45;&gt;ID_36_ct0_st02</title>
<path fill="none" stroke="black" d="M414.57,-385.82C427.47,-376.06 443.23,-365.64 459,-359 512.54,-336.45 529.4,-335 587.5,-335 587.5,-335 587.5,-335 1268.5,-335 1337.71,-335 1367.05,-326.44 1420,-371 1433.35,-382.24 1426.67,-394.35 1436.83,-409.98"/>
<polygon fill="black" stroke="black" points="1434.3,-412.42 1443.33,-417.95 1439.72,-407.99 1434.3,-412.42"/>
<text text-anchor="start" x="908" y="-338.8" font-family="arial" font-size="14.00" fill="#377eb8">true</text>
</g>
<!-- ID_36_ct0_st023W -->
<g id="node10" class="node">
<title>ID_36_ct0_st023W</title>
<polygon fill="none" stroke="black" points="656,-489 521,-489 521,-439 656,-439 656,-489"/>
<text text-anchor="start" x="529" y="-474.8" font-family="arial" font-weight="bold" font-size="14.00">ID_36_ct0_st023W</text>
<text text-anchor="start" x="535" y="-460.8" font-family="arial" font-size="14.00" fill="#984ea3">(!P &amp;&amp; (!Q &amp;&amp; R))</text>
<text text-anchor="start" x="565.5" y="-446.8" font-family="arial" font-size="14.00" fill="#ff7f00">c0 &lt;= 5</text>
</g>
<!-- ID_36_ct0_st01&#45;&gt;ID_36_ct0_st023W -->
<g id="edge11" class="edge">
<title>ID_36_ct0_st01&#45;&gt;ID_36_ct0_st023W</title>
<path fill="none" stroke="black" d="M414.7,-436.14C427.49,-445.45 443.14,-454.96 459,-460 475.36,-465.2 493.48,-467.64 510.84,-468.51"/>
<polygon fill="black" stroke="black" points="510.84,-472.01 520.95,-468.84 511.07,-465.01 510.84,-472.01"/>
<text text-anchor="start" x="466" y="-485.8" font-family="arial" font-size="14.00" fill="#377eb8">true</text>
<text text-anchor="start" x="459" y="-470.8" font-family="arial" font-size="14.00">c0 :=0</text>
</g>
<!-- _ID_36_ct0_st012 -->
<!-- _ID_36_ct0_st012&#45;&gt;ID_36_ct0_st012 -->
<g id="edge3" class="edge">
<title>_ID_36_ct0_st012&#45;&gt;ID_36_ct0_st012</title>
<path fill="none" stroke="black" d="M2053.5,-882.78C2095.21,-882.69 2149.12,-875.77 2186,-846 2236.54,-805.21 2254.66,-727.28 2261.07,-682"/>
<polygon fill="black" stroke="black" points="2264.55,-682.41 2262.37,-672.04 2257.61,-681.5 2264.55,-682.41"/>
</g>
<!-- ID_36_ct0_st012&#45;&gt;ID_36_ct0_st0 -->
<g id="edge21" class="edge">
<title>ID_36_ct0_st012&#45;&gt;ID_36_ct0_st0</title>
<path fill="none" stroke="black" d="M2263.48,-672.33C2260.16,-719.8 2246.01,-822.26 2186,-877 2120.3,-936.93 2080.43,-924 1991.5,-924 383,-924 383,-924 383,-924 268.94,-924 226.74,-754.58 213.62,-679.31"/>
<polygon fill="black" stroke="black" points="217.06,-678.63 211.96,-669.34 210.15,-679.78 217.06,-678.63"/>
<text text-anchor="start" x="1146.5" y="-927.8" font-family="arial" font-size="14.00" fill="#377eb8">Q&#39;</text>
</g>
<!-- ID_36_ct0_st012&#45;&gt;ID_36_ct0_st01 -->
<g id="edge24" class="edge">
<title>ID_36_ct0_st012&#45;&gt;ID_36_ct0_st01</title>
<path fill="none" stroke="black" d="M2262.87,-621.9C2257.03,-538.1 2234.79,-269.36 2186,-200 2128.74,-118.59 2091.03,-89 1991.5,-89 1393.5,-89 1393.5,-89 1393.5,-89 1182.92,-89 1131.58,-124 921,-124 587.5,-124 587.5,-124 587.5,-124 465.63,-124 410.63,-298.91 392.36,-375.64"/>
<polygon fill="black" stroke="black" points="388.86,-375.25 390.03,-385.78 395.68,-376.82 388.86,-375.25"/>
<text text-anchor="start" x="1255.5" y="-106.8" font-family="arial" font-size="14.00" fill="#377eb8">true</text>
</g>
<!-- ID_36_ct0_st012&#45;&gt;ID_36_ct0_st012 -->
<g id="edge25" class="edge">
<title>ID_36_ct0_st012&#45;&gt;ID_36_ct0_st012</title>
<path fill="none" stroke="black" d="M2240.47,-672.18C2239.36,-681.91 2247.7,-690 2265.5,-690 2276.62,-690 2284.05,-686.84 2287.79,-682.09"/>
<polygon fill="black" stroke="black" points="2291.24,-682.75 2290.53,-672.18 2284.49,-680.88 2291.24,-682.75"/>
<text text-anchor="start" x="2253.5" y="-693.8" font-family="arial" font-size="14.00" fill="#377eb8">true</text>
</g>
<!-- ID_36_ct0_st012&#45;&gt;ID_36_ct0_st02 -->
<g id="edge22" class="edge">
<title>ID_36_ct0_st012&#45;&gt;ID_36_ct0_st02</title>
<path fill="none" stroke="black" d="M2203.98,-651.95C2078,-659.26 1782.74,-660.52 1583,-535 1559.26,-520.08 1538.58,-496.05 1524.13,-476.3"/>
<polygon fill="black" stroke="black" points="1526.97,-474.25 1518.32,-468.13 1521.26,-478.31 1526.97,-474.25"/>
<text text-anchor="start" x="1876" y="-643.8" font-family="arial" font-size="14.00" fill="#377eb8">true</text>
</g>
<!-- ID_36_ct0_st023X -->
<g id="node11" class="node">
<title>ID_36_ct0_st023X</title>
<polygon fill="none" stroke="black" points="2056,-430 1925,-430 1925,-380 2056,-380 2056,-430"/>
<text text-anchor="start" x="1933" y="-415.8" font-family="arial" font-weight="bold" font-size="14.00">ID_36_ct0_st023X</text>
<text text-anchor="start" x="1937" y="-401.8" font-family="arial" font-size="14.00" fill="#984ea3">(!P &amp;&amp; (!Q &amp;&amp; R))</text>
<text text-anchor="start" x="1967.5" y="-387.8" font-family="arial" font-size="14.00" fill="#ff7f00">c0 &lt;= 5</text>
</g>
<!-- ID_36_ct0_st012&#45;&gt;ID_36_ct0_st023X -->
<g id="edge23" class="edge">
<title>ID_36_ct0_st012&#45;&gt;ID_36_ct0_st023X</title>
<path fill="none" stroke="black" d="M2264.5,-621.91C2263,-572.9 2251.94,-464.92 2186,-415 2152.52,-389.66 2105.75,-386.55 2066.46,-390.07"/>
<polygon fill="black" stroke="black" points="2065.97,-386.6 2056.39,-391.13 2066.7,-393.56 2065.97,-386.6"/>
<text text-anchor="start" x="2118" y="-433.8" font-family="arial" font-size="14.00" fill="#377eb8">true</text>
<text text-anchor="start" x="2111" y="-418.8" font-family="arial" font-size="14.00">c0 :=0</text>
</g>
<!-- ID_36_ct0_st0123X -->
<g id="node12" class="node">
<title>ID_36_ct0_st0123X</title>
<polygon fill="none" stroke="black" points="1851,-502 1713,-502 1713,-452 1851,-452 1851,-502"/>
<text text-anchor="start" x="1721" y="-487.8" font-family="arial" font-weight="bold" font-size="14.00">ID_36_ct0_st0123X</text>
<text text-anchor="start" x="1730.5" y="-473.8" font-family="arial" font-size="14.00" fill="#984ea3">(P &amp;&amp; (!Q &amp;&amp; R))</text>
<text text-anchor="start" x="1759" y="-459.8" font-family="arial" font-size="14.00" fill="#ff7f00">c0 &lt;= 5</text>
</g>
<!-- ID_36_ct0_st012&#45;&gt;ID_36_ct0_st0123X -->
<g id="edge26" class="edge">
<title>ID_36_ct0_st012&#45;&gt;ID_36_ct0_st0123X</title>
<path fill="none" stroke="black" d="M2249.88,-621.98C2236.04,-600.42 2213.34,-570 2186,-552 2133.78,-517.61 1963.38,-495.1 1861.64,-484.36"/>
<polygon fill="black" stroke="black" points="1861.72,-480.85 1851.41,-483.29 1860.99,-487.81 1861.72,-480.85"/>
<text text-anchor="start" x="1978.5" y="-529.8" font-family="arial" font-size="14.00" fill="#377eb8">true</text>
<text text-anchor="start" x="1971.5" y="-514.8" font-family="arial" font-size="14.00">c0 :=0</text>
</g>
<!-- _ID_36_ct0_st0123W -->
<!-- _ID_36_ct0_st0123W&#45;&gt;ID_36_ct0_st0123W -->
<g id="edge4" class="edge">
<title>_ID_36_ct0_st0123W&#45;&gt;ID_36_ct0_st0123W</title>
<path fill="none" stroke="black" d="M662.06,-657.95C682.59,-653.12 705.05,-647.84 726.02,-642.92"/>
<polygon fill="black" stroke="black" points="726.92,-646.3 735.85,-640.6 725.32,-639.48 726.92,-646.3"/>
</g>
<!-- ID_36_ct0_st0123W&#45;&gt;ID_36_ct0_st0 -->
<g id="edge49" class="edge">
<title>ID_36_ct0_st0123W&#45;&gt;ID_36_ct0_st0</title>
<path fill="none" stroke="black" d="M768.53,-649.1C705.54,-687.75 574.86,-755.39 459,-735 392.22,-723.25 319.8,-695.13 270.09,-673.23"/>
<polygon fill="black" stroke="black" points="271.33,-669.95 260.77,-669.08 268.48,-676.35 271.33,-669.95"/>
<text text-anchor="start" x="470.5" y="-741.8" font-family="arial" font-size="14.00" fill="#377eb8">Q&#39;</text>
</g>
<!-- ID_36_ct0_st0123W&#45;&gt;ID_36_ct0_st01 -->
<g id="edge53" class="edge">
<title>ID_36_ct0_st0123W&#45;&gt;ID_36_ct0_st01</title>
<path fill="none" stroke="black" d="M735.74,-625.32C661.8,-625.55 551.58,-622.25 515,-602 453.37,-567.89 415.12,-490.69 397.17,-445.58"/>
<polygon fill="black" stroke="black" points="400.42,-444.26 393.55,-436.2 393.89,-446.79 400.42,-444.26"/>
<text text-anchor="start" x="576.5" y="-627.8" font-family="arial" font-size="14.00" fill="#377eb8">true</text>
</g>
<!-- ID_36_ct0_st0123W&#45;&gt;ID_36_ct0_st012 -->
<g id="edge54" class="edge">
<title>ID_36_ct0_st0123W&#45;&gt;ID_36_ct0_st012</title>
<path fill="none" stroke="black" d="M878.39,-649C884.67,-651.09 890.94,-653.12 897,-655 1215.21,-753.83 1304.79,-769 1638,-769 1638,-769 1638,-769 1991.5,-769 2082.23,-769 2105.55,-748.95 2186,-707 2200.85,-699.26 2215.79,-688.7 2228.59,-678.59"/>
<polygon fill="black" stroke="black" points="2231.1,-681.06 2236.67,-672.05 2226.69,-675.62 2231.1,-681.06"/>
<text text-anchor="start" x="1489.5" y="-771.8" font-family="arial" font-size="14.00" fill="#377eb8">true</text>
</g>
<!-- ID_36_ct0_st0123W&#45;&gt;ID_36_ct0_st0123W -->
<g id="edge55" class="edge">
<title>ID_36_ct0_st0123W&#45;&gt;ID_36_ct0_st0123W</title>
<path fill="none" stroke="black" d="M787.33,-649.18C786.43,-658.91 793.16,-667 807.5,-667 816.46,-667 822.45,-663.84 825.46,-659.09"/>
<polygon fill="black" stroke="black" points="828.92,-659.7 827.67,-649.18 822.08,-658.18 828.92,-659.7"/>
<text text-anchor="start" x="788.5" y="-670.8" font-family="arial" font-size="14.00" fill="#377eb8">c0 &lt; 5</text>
</g>
<!-- ID_36_ct0_st0123W&#45;&gt;ID_36_ct0_st02 -->
<g id="edge50" class="edge">
<title>ID_36_ct0_st0123W&#45;&gt;ID_36_ct0_st02</title>
<path fill="none" stroke="black" d="M848.8,-598.99C878.73,-581.45 921.12,-558.77 961,-545 1122.54,-489.23 1322.41,-461.55 1427.71,-449.97"/>
<polygon fill="black" stroke="black" points="1428.34,-453.42 1437.9,-448.86 1427.59,-446.46 1428.34,-453.42"/>
<text text-anchor="start" x="1142" y="-497.8" font-family="arial" font-size="14.00" fill="#377eb8">true</text>
</g>
<!-- ID_36_ct0_st0123W&#45;&gt;ID_36_ct0_st023W -->
<g id="edge51" class="edge">
<title>ID_36_ct0_st0123W&#45;&gt;ID_36_ct0_st023W</title>
<path fill="none" stroke="black" d="M765.54,-598.97C750.59,-589.84 733.54,-579.44 718,-570 701.13,-559.75 695.8,-558.84 680,-547 659.44,-531.59 638.17,-512.29 621.43,-496.18"/>
<polygon fill="black" stroke="black" points="623.68,-493.49 614.07,-489.03 618.8,-498.51 623.68,-493.49"/>
<text text-anchor="start" x="680" y="-573.8" font-family="arial" font-size="14.00" fill="#377eb8">c0 &lt; 5</text>
</g>
<!-- ID_36_ct0_st023 -->
<g id="node13" class="node">
<title>ID_36_ct0_st023</title>
<polygon fill="none" stroke="black" points="1351,-662 1184,-662 1184,-612 1351,-612 1351,-662"/>
<text text-anchor="start" x="1214.5" y="-647.8" font-family="arial" font-weight="bold" font-size="14.00">ID_36_ct0_st023</text>
<text text-anchor="start" x="1192" y="-633.8" font-family="arial" font-size="14.00" fill="#984ea3">(!P &amp;&amp; (!Q &amp;&amp; (R &amp;&amp; S)))</text>
<text text-anchor="start" x="1255.5" y="-619.8" font-family="arial" font-size="14.00" fill="#ff7f00">true</text>
</g>
<!-- ID_36_ct0_st0123W&#45;&gt;ID_36_ct0_st023 -->
<g id="edge52" class="edge">
<title>ID_36_ct0_st0123W&#45;&gt;ID_36_ct0_st023</title>
<path fill="none" stroke="black" d="M879.28,-636.11C904.94,-640 934.2,-643.85 961,-646 1051.83,-653.27 1075.04,-654.41 1166,-649 1168.53,-648.85 1171.1,-648.68 1173.69,-648.49"/>
<polygon fill="black" stroke="black" points="1174.07,-651.97 1183.76,-647.67 1173.51,-644.99 1174.07,-651.97"/>
<text text-anchor="start" x="1019.5" y="-655.8" font-family="arial" font-size="14.00" fill="#377eb8">c0 &gt;= 5</text>
</g>
<!-- ID_36_ct0_st0123 -->
<g id="node14" class="node">
<title>ID_36_ct0_st0123</title>
<polygon fill="none" stroke="black" points="1124,-604 961,-604 961,-554 1124,-554 1124,-604"/>
<text text-anchor="start" x="986" y="-589.8" font-family="arial" font-weight="bold" font-size="14.00">ID_36_ct0_st0123</text>
<text text-anchor="start" x="969" y="-575.8" font-family="arial" font-size="14.00" fill="#984ea3">(P &amp;&amp; (!Q &amp;&amp; (R &amp;&amp; S)))</text>
<text text-anchor="start" x="1030.5" y="-561.8" font-family="arial" font-size="14.00" fill="#ff7f00">true</text>
</g>
<!-- ID_36_ct0_st0123W&#45;&gt;ID_36_ct0_st0123 -->
<g id="edge56" class="edge">
<title>ID_36_ct0_st0123W&#45;&gt;ID_36_ct0_st0123</title>
<path fill="none" stroke="black" d="M879.04,-610.38C901.66,-606.01 927.03,-601.11 950.88,-596.5"/>
<polygon fill="black" stroke="black" points="951.84,-599.88 960.99,-594.55 950.51,-593.01 951.84,-599.88"/>
<text text-anchor="start" x="897" y="-609.8" font-family="arial" font-size="14.00" fill="#377eb8">c0 &gt;= 5</text>
</g>
<!-- ID_36_ct0_st02&#45;&gt;ID_36_ct0_st0 -->
<g id="edge15" class="edge">
<title>ID_36_ct0_st02&#45;&gt;ID_36_ct0_st0</title>
<path fill="none" stroke="black" d="M1442.4,-417.8C1440.83,-416.29 1439.36,-414.69 1438,-413 1416,-385.59 1442.84,-362.71 1420,-336 1344.04,-247.19 1037.86,-170 921,-170 383,-170 383,-170 383,-170 289.45,-170 230.62,-499.27 213.62,-608.94"/>
<polygon fill="black" stroke="black" points="210.16,-608.44 212.11,-618.85 217.08,-609.49 210.16,-608.44"/>
<text text-anchor="start" x="800" y="-173.8" font-family="arial" font-size="14.00" fill="#377eb8">Q&#39;</text>
</g>
<!-- ID_36_ct0_st02&#45;&gt;ID_36_ct0_st01 -->
<g id="edge18" class="edge">
<title>ID_36_ct0_st02&#45;&gt;ID_36_ct0_st01</title>
<path fill="none" stroke="black" d="M1437.91,-422.47C1369.28,-401.82 1255.52,-373 1155,-373 587.5,-373 587.5,-373 587.5,-373 541.33,-373 490.25,-382.66 450.94,-392.24"/>
<polygon fill="black" stroke="black" points="450.06,-388.85 441.21,-394.66 451.76,-395.64 450.06,-388.85"/>
<text text-anchor="start" x="908" y="-376.8" font-family="arial" font-size="14.00" fill="#377eb8">true</text>
</g>
<!-- ID_36_ct0_st02&#45;&gt;ID_36_ct0_st012 -->
<g id="edge19" class="edge">
<title>ID_36_ct0_st02&#45;&gt;ID_36_ct0_st012</title>
<path fill="none" stroke="black" d="M1530.66,-468.23C1545.41,-480.4 1564.27,-494.41 1583,-504 1636.8,-531.56 1654.35,-529.35 1713,-544 1759.1,-555.51 2055.3,-609.31 2193.58,-634.25"/>
<polygon fill="black" stroke="black" points="2193.2,-637.73 2203.66,-636.06 2194.44,-630.85 2193.2,-637.73"/>
<text text-anchor="start" x="1876" y="-584.8" font-family="arial" font-size="14.00" fill="#377eb8">true</text>
</g>
<!-- ID_36_ct0_st02&#45;&gt;ID_36_ct0_st02 -->
<g id="edge16" class="edge">
<title>ID_36_ct0_st02&#45;&gt;ID_36_ct0_st02</title>
<path fill="none" stroke="black" d="M1481.7,-468.18C1480.82,-477.91 1487.42,-486 1501.5,-486 1510.3,-486 1516.18,-482.84 1519.13,-478.09"/>
<polygon fill="black" stroke="black" points="1522.58,-478.69 1521.3,-468.18 1515.74,-477.2 1522.58,-478.69"/>
<text text-anchor="start" x="1489.5" y="-489.8" font-family="arial" font-size="14.00" fill="#377eb8">true</text>
</g>
<!-- ID_36_ct0_st02&#45;&gt;ID_36_ct0_st023X -->
<g id="edge17" class="edge">
<title>ID_36_ct0_st02&#45;&gt;ID_36_ct0_st023X</title>
<path fill="none" stroke="black" d="M1565.29,-431.77C1571.27,-430.79 1577.25,-429.85 1583,-429 1640.58,-420.45 1654.95,-417.4 1713,-413 1781.18,-407.83 1859.06,-405.94 1914.75,-405.27"/>
<polygon fill="black" stroke="black" points="1914.92,-408.77 1924.88,-405.16 1914.85,-401.77 1914.92,-408.77"/>
<text text-anchor="start" x="1770" y="-431.8" font-family="arial" font-size="14.00" fill="#377eb8">true</text>
<text text-anchor="start" x="1763" y="-416.8" font-family="arial" font-size="14.00">c0 :=0</text>
</g>
<!-- ID_36_ct0_st02&#45;&gt;ID_36_ct0_st0123X -->
<g id="edge20" class="edge">
<title>ID_36_ct0_st02&#45;&gt;ID_36_ct0_st0123X</title>
<path fill="none" stroke="black" d="M1565.23,-456.13C1571.22,-457.19 1577.22,-458.16 1583,-459 1622.35,-464.68 1666.36,-468.9 1702.89,-471.81"/>
<polygon fill="black" stroke="black" points="1702.74,-475.31 1712.98,-472.6 1703.28,-468.33 1702.74,-475.31"/>
<text text-anchor="start" x="1627" y="-488.8" font-family="arial" font-size="14.00" fill="#377eb8">true</text>
<text text-anchor="start" x="1620" y="-473.8" font-family="arial" font-size="14.00">c0 :=0</text>
</g>
<!-- ID_36_ct0_st023W&#45;&gt;ID_36_ct0_st0 -->
<g id="edge27" class="edge">
<title>ID_36_ct0_st023W&#45;&gt;ID_36_ct0_st0</title>
<path fill="none" stroke="black" d="M534.64,-489.11C465.31,-522.03 343.89,-579.7 270.36,-614.62"/>
<polygon fill="black" stroke="black" points="268.73,-611.52 261.2,-618.97 271.73,-617.84 268.73,-611.52"/>
<text text-anchor="start" x="376.5" y="-589.8" font-family="arial" font-size="14.00" fill="#377eb8">Q&#39;</text>
</g>
<!-- ID_36_ct0_st023W&#45;&gt;ID_36_ct0_st01 -->
<g id="edge31" class="edge">
<title>ID_36_ct0_st023W&#45;&gt;ID_36_ct0_st01</title>
<path fill="none" stroke="black" d="M520.83,-446.55C498.36,-440.67 473.31,-434.11 450.9,-428.25"/>
<polygon fill="black" stroke="black" points="451.7,-424.84 441.14,-425.69 449.93,-431.61 451.7,-424.84"/>
<text text-anchor="start" x="466" y="-442.8" font-family="arial" font-size="14.00" fill="#377eb8">true</text>
</g>
<!-- ID_36_ct0_st023W&#45;&gt;ID_36_ct0_st012 -->
<g id="edge32" class="edge">
<title>ID_36_ct0_st023W&#45;&gt;ID_36_ct0_st012</title>
<path fill="none" stroke="black" d="M626.39,-489.06C639.28,-499.46 652.81,-512.49 662,-527 678.29,-552.74 711.73,-772.59 736,-791 969.74,-968.23 1765.5,-823.69 2056,-783 2115.37,-774.68 2136.11,-780.24 2186,-747 2211.18,-730.22 2231.91,-702.73 2245.73,-680.81"/>
<polygon fill="black" stroke="black" points="2248.82,-682.48 2251.04,-672.12 2242.84,-678.83 2248.82,-682.48"/>
<text text-anchor="start" x="1382.5" y="-872.8" font-family="arial" font-size="14.00" fill="#377eb8">true</text>
</g>
<!-- ID_36_ct0_st023W&#45;&gt;ID_36_ct0_st0123W -->
<g id="edge33" class="edge">
<title>ID_36_ct0_st023W&#45;&gt;ID_36_ct0_st0123W</title>
<path fill="none" stroke="black" d="M640.06,-489.16C673.17,-505.92 711.5,-525.93 718,-532 729.09,-542.35 726.24,-549.38 736,-561 745.17,-571.92 756.24,-582.69 766.87,-592.15"/>
<polygon fill="black" stroke="black" points="764.65,-594.86 774.49,-598.79 769.25,-589.58 764.65,-594.86"/>
<text text-anchor="start" x="680" y="-535.8" font-family="arial" font-size="14.00" fill="#377eb8">c0 &lt; 5</text>
</g>
<!-- ID_36_ct0_st023W&#45;&gt;ID_36_ct0_st02 -->
<g id="edge28" class="edge">
<title>ID_36_ct0_st023W&#45;&gt;ID_36_ct0_st02</title>
<path fill="none" stroke="black" d="M656.22,-461.7C664.23,-461.45 672.3,-461.21 680,-461 955.99,-453.4 1284.27,-446.99 1427.56,-444.33"/>
<polygon fill="black" stroke="black" points="1428.03,-447.82 1437.96,-444.13 1427.9,-440.82 1428.03,-447.82"/>
<text text-anchor="start" x="1030.5" y="-456.8" font-family="arial" font-size="14.00" fill="#377eb8">true</text>
</g>
<!-- ID_36_ct0_st023W&#45;&gt;ID_36_ct0_st023W -->
<g id="edge29" class="edge">
<title>ID_36_ct0_st023W&#45;&gt;ID_36_ct0_st023W</title>
<path fill="none" stroke="black" d="M567.96,-489.18C567.04,-498.91 573.89,-507 588.5,-507 597.63,-507 603.73,-503.84 606.8,-499.09"/>
<polygon fill="black" stroke="black" points="610.25,-499.7 609.04,-489.18 603.42,-498.15 610.25,-499.7"/>
<text text-anchor="start" x="569.5" y="-510.8" font-family="arial" font-size="14.00" fill="#377eb8">c0 &lt; 5</text>
</g>
<!-- ID_36_ct0_st023W&#45;&gt;ID_36_ct0_st023 -->
<g id="edge30" class="edge">
<title>ID_36_ct0_st023W&#45;&gt;ID_36_ct0_st023</title>
<path fill="none" stroke="black" d="M656.06,-464.79C759.6,-468.05 963.96,-482.65 1124,-545 1161.8,-559.73 1200.18,-585.24 1227.57,-605.67"/>
<polygon fill="black" stroke="black" points="1225.62,-608.59 1235.7,-611.83 1229.84,-603 1225.62,-608.59"/>
<text text-anchor="start" x="897" y="-496.8" font-family="arial" font-size="14.00" fill="#377eb8">c0 &gt;= 5</text>
</g>
<!-- ID_36_ct0_st023W&#45;&gt;ID_36_ct0_st0123 -->
<g id="edge34" class="edge">
<title>ID_36_ct0_st023W&#45;&gt;ID_36_ct0_st0123</title>
<path fill="none" stroke="black" d="M656.17,-481.99C681.18,-488.68 709.87,-496.27 736,-503 808.07,-521.56 889.91,-541.88 950.73,-556.83"/>
<polygon fill="black" stroke="black" points="950.14,-560.29 960.69,-559.28 951.81,-553.49 950.14,-560.29"/>
<text text-anchor="start" x="784.5" y="-541.8" font-family="arial" font-size="14.00" fill="#377eb8">c0 &gt;= 5</text>
</g>
<!-- ID_36_ct0_st023X&#45;&gt;ID_36_ct0_st0 -->
<g id="edge35" class="edge">
<title>ID_36_ct0_st023X&#45;&gt;ID_36_ct0_st0</title>
<path fill="none" stroke="black" d="M1967.34,-379.63C1909.12,-314.97 1743.89,-144.25 1565,-75 1394.55,-9.02 1337.78,-43 1155,-43 383,-43 383,-43 383,-43 314.14,-43 306.53,-97.59 285,-163 231.99,-324.03 215.09,-527.87 210.25,-608.68"/>
<polygon fill="black" stroke="black" points="206.75,-608.63 209.67,-618.81 213.74,-609.03 206.75,-608.63"/>
<text text-anchor="start" x="1035" y="-46.8" font-family="arial" font-size="14.00" fill="#377eb8">Q&#39;</text>
</g>
<!-- ID_36_ct0_st023X&#45;&gt;ID_36_ct0_st01 -->
<g id="edge39" class="edge">
<title>ID_36_ct0_st023X&#45;&gt;ID_36_ct0_st01</title>
<path fill="none" stroke="black" d="M1924.76,-388.01C1918.77,-386.59 1912.78,-385.23 1907,-384 1661.75,-331.7 1599.7,-320.17 1351,-288 1055.21,-249.74 978.05,-267.04 680,-278 580.62,-281.65 536.83,-251.09 459,-313 436.81,-330.65 417.7,-356.41 404.46,-377.09"/>
<polygon fill="black" stroke="black" points="401.48,-375.27 399.16,-385.61 407.42,-378.97 401.48,-375.27"/>
<text text-anchor="start" x="1142" y="-272.8" font-family="arial" font-size="14.00" fill="#377eb8">true</text>
</g>
<!-- ID_36_ct0_st023X&#45;&gt;ID_36_ct0_st012 -->
<g id="edge40" class="edge">
<title>ID_36_ct0_st023X&#45;&gt;ID_36_ct0_st012</title>
<path fill="none" stroke="black" d="M2038.71,-430.12C2050.06,-435.53 2062.29,-440.86 2074,-445 2122.18,-462.03 2146.58,-438.48 2186,-471 2229.45,-506.84 2249.7,-571.65 2258.48,-611.83"/>
<polygon fill="black" stroke="black" points="2255.07,-612.64 2260.51,-621.73 2261.92,-611.23 2255.07,-612.64"/>
<text text-anchor="start" x="2074" y="-474.8" font-family="arial" font-size="14.00" fill="#377eb8">(Q&#39; || (S&#39; || c0 &lt; 5))</text>
</g>
<!-- ID_36_ct0_st023X&#45;&gt;ID_36_ct0_st02 -->
<g id="edge36" class="edge">
<title>ID_36_ct0_st023X&#45;&gt;ID_36_ct0_st02</title>
<path fill="none" stroke="black" d="M1924.85,-394.84C1901.62,-391.65 1875.2,-388.57 1851,-387 1731.7,-379.28 1697.82,-376.72 1583,-410 1578.43,-411.32 1573.78,-412.82 1569.11,-414.43"/>
<polygon fill="black" stroke="black" points="1567.8,-411.18 1559.57,-417.86 1570.17,-417.77 1567.8,-411.18"/>
<text text-anchor="start" x="1726" y="-390.8" font-family="arial" font-size="14.00" fill="#377eb8">(Q&#39; || (S&#39; || c0 &lt; 5))</text>
</g>
<!-- ID_36_ct0_st023X&#45;&gt;ID_36_ct0_st023X -->
<g id="edge37" class="edge">
<title>ID_36_ct0_st023X&#45;&gt;ID_36_ct0_st023X</title>
<path fill="none" stroke="black" d="M1971.45,-430.18C1970.6,-439.91 1976.95,-448 1990.5,-448 1998.97,-448 2004.62,-444.84 2007.47,-440.09"/>
<polygon fill="black" stroke="black" points="2010.92,-440.68 2009.55,-430.18 2004.07,-439.24 2010.92,-440.68"/>
<text text-anchor="start" x="1971.5" y="-451.8" font-family="arial" font-size="14.00" fill="#377eb8">c0 &lt; 5</text>
</g>
<!-- ID_36_ct0_st023X&#45;&gt;ID_36_ct0_st0123X -->
<g id="edge41" class="edge">
<title>ID_36_ct0_st023X&#45;&gt;ID_36_ct0_st0123X</title>
<path fill="none" stroke="black" d="M1951.3,-430.13C1937.76,-438.12 1922.13,-446.33 1907,-452 1892.49,-457.43 1876.56,-461.77 1861.1,-465.2"/>
<polygon fill="black" stroke="black" points="1860.08,-461.84 1851.02,-467.33 1861.53,-468.69 1860.08,-461.84"/>
<text text-anchor="start" x="1869" y="-466.8" font-family="arial" font-size="14.00" fill="#377eb8">c0 &lt; 5</text>
</g>
<!-- ID_36_ct0_st023X&#45;&gt;ID_36_ct0_st023 -->
<g id="edge38" class="edge">
<title>ID_36_ct0_st023X&#45;&gt;ID_36_ct0_st023</title>
<path fill="none" stroke="black" d="M1969.46,-430.11C1944.36,-460.29 1898.79,-510.99 1851,-544 1788.47,-587.19 1767.96,-592.75 1695,-614 1583.72,-646.42 1449.32,-647.82 1361.53,-644"/>
<polygon fill="black" stroke="black" points="1361.48,-640.49 1351.32,-643.52 1361.15,-647.49 1361.48,-640.49"/>
<text text-anchor="start" x="1616" y="-639.8" font-family="arial" font-size="14.00" fill="#377eb8">c0 &gt;= 5</text>
</g>
<!-- ID_36_ct0_st023X&#45;&gt;ID_36_ct0_st0123 -->
<g id="edge42" class="edge">
<title>ID_36_ct0_st023X&#45;&gt;ID_36_ct0_st0123</title>
<path fill="none" stroke="black" d="M1924.69,-407.82C1901.45,-408.71 1875.06,-409.57 1851,-410 1789.68,-411.11 1774.24,-413.3 1713,-410 1646.93,-406.44 1631.07,-397.56 1565,-394 1508.64,-390.96 1493.09,-381.72 1438,-394 1304.35,-423.78 1162.47,-503.94 1090.82,-548.34"/>
<polygon fill="black" stroke="black" points="1088.65,-545.57 1082.02,-553.84 1092.35,-551.51 1088.65,-545.57"/>
<text text-anchor="start" x="1478.5" y="-397.8" font-family="arial" font-size="14.00" fill="#377eb8">c0 &gt;= 5</text>
</g>
<!-- ID_36_ct0_st0123X&#45;&gt;ID_36_ct0_st0 -->
<g id="edge57" class="edge">
<title>ID_36_ct0_st0123X&#45;&gt;ID_36_ct0_st0</title>
<path fill="none" stroke="black" d="M1717.92,-451.96C1716.17,-450.4 1714.53,-448.75 1713,-447 1693.87,-425.05 1712.2,-407.5 1695,-384 1586.66,-235.99 1521.79,-222.9 1351,-156 1260.86,-120.69 1017.81,-86 921,-86 383,-86 383,-86 383,-86 272.91,-86 224.1,-486.67 211.76,-608.97"/>
<polygon fill="black" stroke="black" points="208.28,-608.64 210.77,-618.94 215.24,-609.33 208.28,-608.64"/>
<text text-anchor="start" x="912.5" y="-89.8" font-family="arial" font-size="14.00" fill="#377eb8">Q&#39;</text>
</g>
<!-- ID_36_ct0_st0123X&#45;&gt;ID_36_ct0_st01 -->
<g id="edge61" class="edge">
<title>ID_36_ct0_st0123X&#45;&gt;ID_36_ct0_st01</title>
<path fill="none" stroke="black" d="M1720.63,-451.85C1718.01,-450.29 1715.45,-448.68 1713,-447 1703.67,-440.61 1704.57,-435.04 1695,-429 1643.16,-396.3 1623.05,-402.67 1565,-383 1500.84,-361.25 1485.4,-353.66 1420,-336 1205.06,-277.96 1143.64,-292 921,-292 587.5,-292 587.5,-292 587.5,-292 526.38,-292 510.75,-308.48 459,-341 442.73,-351.22 426.94,-365.38 414.15,-378.29"/>
<polygon fill="black" stroke="black" points="411.41,-376.08 406.99,-385.71 416.45,-380.95 411.41,-376.08"/>
<text text-anchor="start" x="1030.5" y="-294.8" font-family="arial" font-size="14.00" fill="#377eb8">true</text>
</g>
<!-- ID_36_ct0_st0123X&#45;&gt;ID_36_ct0_st012 -->
<g id="edge62" class="edge">
<title>ID_36_ct0_st0123X&#45;&gt;ID_36_ct0_st012</title>
<path fill="none" stroke="black" d="M1828.5,-502.02C1855.79,-516.11 1891.59,-533.04 1925,-544 2037.31,-580.83 2076.64,-550.17 2186,-595 2199.27,-600.44 2212.66,-608.25 2224.53,-616.18"/>
<polygon fill="black" stroke="black" points="2222.66,-619.14 2232.88,-621.94 2226.64,-613.38 2222.66,-619.14"/>
<text text-anchor="start" x="1934.5" y="-569.8" font-family="arial" font-size="14.00" fill="#377eb8">(Q&#39; || (S&#39; || c0 &lt; 5))</text>
</g>
<!-- ID_36_ct0_st0123X&#45;&gt;ID_36_ct0_st02 -->
<g id="edge58" class="edge">
<title>ID_36_ct0_st0123X&#45;&gt;ID_36_ct0_st02</title>
<path fill="none" stroke="black" d="M1732.1,-451.92C1720.25,-446.99 1707.42,-442.56 1695,-440 1655.95,-431.96 1611.5,-432.06 1575.15,-434.46"/>
<polygon fill="black" stroke="black" points="1574.85,-430.98 1565.13,-435.2 1575.36,-437.96 1574.85,-430.98"/>
<text text-anchor="start" x="1583" y="-443.8" font-family="arial" font-size="14.00" fill="#377eb8">(Q&#39; || (S&#39; || c0 &lt; 5))</text>
</g>
<!-- ID_36_ct0_st0123X&#45;&gt;ID_36_ct0_st023X -->
<g id="edge59" class="edge">
<title>ID_36_ct0_st0123X&#45;&gt;ID_36_ct0_st023X</title>
<path fill="none" stroke="black" d="M1827.15,-451.8C1840.32,-445.01 1854.98,-438.13 1869,-433 1883.56,-427.67 1899.49,-423.13 1914.86,-419.34"/>
<polygon fill="black" stroke="black" points="1915.94,-422.68 1924.86,-416.96 1914.32,-415.87 1915.94,-422.68"/>
<text text-anchor="start" x="1869" y="-436.8" font-family="arial" font-size="14.00" fill="#377eb8">c0 &lt; 5</text>
</g>
<!-- ID_36_ct0_st0123X&#45;&gt;ID_36_ct0_st0123X -->
<g id="edge63" class="edge">
<title>ID_36_ct0_st0123X&#45;&gt;ID_36_ct0_st0123X</title>
<path fill="none" stroke="black" d="M1762.2,-502.18C1761.32,-511.91 1767.92,-520 1782,-520 1790.8,-520 1796.68,-516.84 1799.63,-512.09"/>
<polygon fill="black" stroke="black" points="1803.08,-512.69 1801.8,-502.18 1796.24,-511.2 1803.08,-512.69"/>
<text text-anchor="start" x="1763" y="-523.8" font-family="arial" font-size="14.00" fill="#377eb8">c0 &lt; 5</text>
</g>
<!-- ID_36_ct0_st0123X&#45;&gt;ID_36_ct0_st023 -->
<g id="edge60" class="edge">
<title>ID_36_ct0_st0123X&#45;&gt;ID_36_ct0_st023</title>
<path fill="none" stroke="black" d="M1769.55,-502.1C1755.9,-528.83 1730.41,-569.99 1695,-590 1644.99,-618.27 1495.1,-611.69 1438,-618 1413.17,-620.74 1386.29,-623.74 1361.42,-626.53"/>
<polygon fill="black" stroke="black" points="1360.81,-623.08 1351.26,-627.67 1361.59,-630.03 1360.81,-623.08"/>
<text text-anchor="start" x="1478.5" y="-621.8" font-family="arial" font-size="14.00" fill="#377eb8">c0 &gt;= 5</text>
</g>
<!-- ID_36_ct0_st0123X&#45;&gt;ID_36_ct0_st0123 -->
<g id="edge64" class="edge">
<title>ID_36_ct0_st0123X&#45;&gt;ID_36_ct0_st0123</title>
<path fill="none" stroke="black" d="M1712.72,-499.45C1706.76,-501.1 1700.79,-502.65 1695,-504 1552.2,-537.39 1510.61,-516.87 1369,-555 1360.71,-557.23 1359.39,-560.18 1351,-562 1279.22,-577.53 1195.95,-581.29 1134.17,-581.44"/>
<polygon fill="black" stroke="black" points="1134.07,-577.94 1124.06,-581.43 1134.06,-584.94 1134.07,-577.94"/>
<text text-anchor="start" x="1371.5" y="-558.8" font-family="arial" font-size="14.00" fill="#377eb8">c0 &gt;= 5</text>
</g>
<!-- ID_36_ct0_st023&#45;&gt;ID_36_ct0_st0 -->
<g id="edge43" class="edge">
<title>ID_36_ct0_st023&#45;&gt;ID_36_ct0_st0</title>
<path fill="none" stroke="black" d="M1238.3,-662.17C1210.96,-685.26 1167.36,-718.71 1124,-738 932.4,-823.27 871.31,-820.97 662,-834 513.4,-843.25 471.14,-870.29 327,-833 259.44,-815.52 228.28,-729.02 215.75,-679.31"/>
<polygon fill="black" stroke="black" points="219.08,-678.21 213.35,-669.3 212.28,-679.84 219.08,-678.21"/>
<text text-anchor="start" x="691.5" y="-835.8" font-family="arial" font-size="14.00" fill="#377eb8">Q&#39;</text>
</g>
<!-- ID_36_ct0_st023&#45;&gt;ID_36_ct0_st01 -->
<g id="edge46" class="edge">
<title>ID_36_ct0_st023&#45;&gt;ID_36_ct0_st01</title>
<path fill="none" stroke="black" d="M1214.77,-662.04C1084.19,-721.24 735.95,-853.91 515,-702 447.1,-655.31 471.38,-608.6 441,-532 429.17,-502.18 413.74,-469.18 402.07,-445.19"/>
<polygon fill="black" stroke="black" points="405.18,-443.58 397.64,-436.14 398.89,-446.66 405.18,-443.58"/>
<text text-anchor="start" x="795.5" y="-775.8" font-family="arial" font-size="14.00" fill="#377eb8">true</text>
</g>
<!-- ID_36_ct0_st023&#45;&gt;ID_36_ct0_st012 -->
<g id="edge47" class="edge">
<title>ID_36_ct0_st023&#45;&gt;ID_36_ct0_st012</title>
<path fill="none" stroke="black" d="M1348.99,-662.05C1393.25,-673.69 1449.39,-685 1500.5,-685 1500.5,-685 1500.5,-685 1991.5,-685 2078.31,-685 2100.45,-681.76 2186,-667 2188.64,-666.54 2191.32,-666.05 2194.02,-665.51"/>
<polygon fill="black" stroke="black" points="2194.78,-668.93 2203.85,-663.46 2193.34,-662.08 2194.78,-668.93"/>
<text text-anchor="start" x="1756.5" y="-688.8" font-family="arial" font-size="14.00" fill="#377eb8">(Q&#39; || S&#39;)</text>
</g>
<!-- ID_36_ct0_st023&#45;&gt;ID_36_ct0_st02 -->
<g id="edge44" class="edge">
<title>ID_36_ct0_st023&#45;&gt;ID_36_ct0_st02</title>
<path fill="none" stroke="black" d="M1331.29,-611.91C1371.26,-595.78 1416.21,-577.24 1420,-574 1450.73,-547.75 1473.26,-506.74 1486.55,-477.6"/>
<polygon fill="black" stroke="black" points="1489.86,-478.77 1490.7,-468.21 1483.46,-475.94 1489.86,-478.77"/>
<text text-anchor="start" x="1369" y="-598.8" font-family="arial" font-size="14.00" fill="#377eb8">(Q&#39; || S&#39;)</text>
</g>
<!-- ID_36_ct0_st023&#45;&gt;ID_36_ct0_st023 -->
<g id="edge45" class="edge">
<title>ID_36_ct0_st023&#45;&gt;ID_36_ct0_st023</title>
<path fill="none" stroke="black" d="M1246.58,-662.18C1245.65,-671.91 1252.62,-680 1267.5,-680 1276.8,-680 1283.01,-676.84 1286.13,-672.09"/>
<polygon fill="black" stroke="black" points="1289.58,-672.71 1288.42,-662.18 1282.76,-671.13 1289.58,-672.71"/>
<text text-anchor="start" x="1255.5" y="-683.8" font-family="arial" font-size="14.00" fill="#377eb8">true</text>
</g>
<!-- ID_36_ct0_st023&#45;&gt;ID_36_ct0_st0123 -->
<g id="edge48" class="edge">
<title>ID_36_ct0_st023&#45;&gt;ID_36_ct0_st0123</title>
<path fill="none" stroke="black" d="M1183.74,-633.01C1169.67,-631.2 1155.3,-628.63 1142,-625 1127.35,-621 1112.19,-614.97 1098.27,-608.59"/>
<polygon fill="black" stroke="black" points="1099.4,-605.25 1088.86,-604.13 1096.4,-611.57 1099.4,-605.25"/>
<text text-anchor="start" x="1142" y="-633.8" font-family="arial" font-size="14.00" fill="#377eb8">true</text>
</g>
<!-- ID_36_ct0_st0123&#45;&gt;ID_36_ct0_st0 -->
<g id="edge65" class="edge">
<title>ID_36_ct0_st0123&#45;&gt;ID_36_ct0_st0</title>
<path fill="none" stroke="black" d="M1005.38,-604.13C990.88,-615 974.45,-628.35 961,-642 918.7,-684.93 929.52,-717.14 879,-750 734.56,-843.93 668.95,-805.15 497,-816 402.21,-821.98 362.33,-844.16 285,-789 248.04,-762.64 227.44,-712.84 217.16,-679.04"/>
<polygon fill="black" stroke="black" points="220.43,-677.75 214.3,-669.11 213.7,-679.69 220.43,-677.75"/>
<text text-anchor="start" x="581" y="-818.8" font-family="arial" font-size="14.00" fill="#377eb8">Q&#39;</text>
</g>
<!-- ID_36_ct0_st0123&#45;&gt;ID_36_ct0_st01 -->
<g id="edge68" class="edge">
<title>ID_36_ct0_st0123&#45;&gt;ID_36_ct0_st01</title>
<path fill="none" stroke="black" d="M995.06,-553.82C963.01,-537.03 919.11,-515.14 879,-499 785.12,-461.21 761.42,-448.93 662,-430 590.9,-416.46 507.91,-412.27 451.44,-411.11"/>
<polygon fill="black" stroke="black" points="451.27,-407.61 441.21,-410.93 451.15,-414.61 451.27,-407.61"/>
<text text-anchor="start" x="687" y="-444.8" font-family="arial" font-size="14.00" fill="#377eb8">true</text>
</g>
<!-- ID_36_ct0_st0123&#45;&gt;ID_36_ct0_st012 -->
<g id="edge69" class="edge">
<title>ID_36_ct0_st0123&#45;&gt;ID_36_ct0_st012</title>
<path fill="none" stroke="black" d="M1077.63,-604.05C1092.28,-615.23 1109.36,-628.82 1124,-642 1152.5,-667.66 1148.69,-689.04 1184,-704 1362.42,-779.62 1862.51,-709.54 2056,-699 2113.9,-695.85 2130.32,-704.18 2186,-688 2195.63,-685.2 2205.46,-681.16 2214.75,-676.7"/>
<polygon fill="black" stroke="black" points="2216.47,-679.75 2223.83,-672.13 2213.32,-673.5 2216.47,-679.75"/>
<text text-anchor="start" x="1613.5" y="-738.8" font-family="arial" font-size="14.00" fill="#377eb8">(Q&#39; || S&#39;)</text>
</g>
<!-- ID_36_ct0_st0123&#45;&gt;ID_36_ct0_st02 -->
<g id="edge66" class="edge">
<title>ID_36_ct0_st0123&#45;&gt;ID_36_ct0_st02</title>
<path fill="none" stroke="black" d="M1124.02,-560.2C1143.62,-555.76 1164.54,-551.11 1184,-547 1288.55,-524.91 1321.93,-543.44 1420,-501 1435.43,-494.32 1450.8,-484.3 1463.91,-474.46"/>
<polygon fill="black" stroke="black" points="1466.41,-476.95 1472.17,-468.06 1462.13,-471.42 1466.41,-476.95"/>
<text text-anchor="start" x="1242" y="-550.8" font-family="arial" font-size="14.00" fill="#377eb8">(Q&#39; || S&#39;)</text>
</g>
<!-- ID_36_ct0_st0123&#45;&gt;ID_36_ct0_st023 -->
<g id="edge67" class="edge">
<title>ID_36_ct0_st0123&#45;&gt;ID_36_ct0_st023</title>
<path fill="none" stroke="black" d="M1124.12,-595.78C1138.13,-598.98 1152.52,-602.44 1166,-606 1169.81,-607.01 1173.7,-608.06 1177.62,-609.16"/>
<polygon fill="black" stroke="black" points="1176.83,-612.57 1187.4,-611.94 1178.74,-605.84 1176.83,-612.57"/>
<text text-anchor="start" x="1142" y="-609.8" font-family="arial" font-size="14.00" fill="#377eb8">true</text>
</g>
<!-- ID_36_ct0_st0123&#45;&gt;ID_36_ct0_st0123 -->
<g id="edge70" class="edge">
<title>ID_36_ct0_st0123&#45;&gt;ID_36_ct0_st0123</title>
<path fill="none" stroke="black" d="M1021.96,-604.18C1021.04,-613.91 1027.89,-622 1042.5,-622 1051.63,-622 1057.73,-618.84 1060.8,-614.09"/>
<polygon fill="black" stroke="black" points="1064.25,-614.7 1063.04,-604.18 1057.42,-613.15 1064.25,-614.7"/>
<text text-anchor="start" x="1030.5" y="-625.8" font-family="arial" font-size="14.00" fill="#377eb8">true</text>
</g>
</g>
</svg>
