<?xml version="1.0" encoding="UTF-8" standalone="no"?>
<!DOCTYPE svg PUBLIC "-//W3C//DTD SVG 1.1//EN"
 "http://www.w3.org/Graphics/SVG/1.1/DTD/svg11.dtd">
<!-- Generated by graphviz version 2.43.0 (0)
 -->
<!-- Title: G Pages: 1 -->
<svg width="1059pt" height="459pt"
 viewBox="0.00 0.00 1059.00 459.30" xmlns="http://www.w3.org/2000/svg" xmlns:xlink="http://www.w3.org/1999/xlink">
<g id="graph0" class="graph" transform="scale(1 1) rotate(0) translate(4 455.3)">
<title>G</title>
<polygon fill="white" stroke="transparent" points="-4,4 -4,-455.3 1055,-455.3 1055,4 -4,4"/>
<!-- _ID_32_ct0_st -->
<!-- ID_32_ct0_st -->
<g id="node2" class="node">
<title>ID_32_ct0_st</title>
<polygon fill="none" stroke="black" points="1051,-216.3 952,-216.3 952,-166.3 1051,-166.3 1051,-216.3"/>
<text text-anchor="start" x="960" y="-202.1" font-family="arial" font-weight="bold" font-size="14.00">ID_32_ct0_st</text>
<text text-anchor="start" x="989.5" y="-188.1" font-family="arial" font-size="14.00" fill="#984ea3">true</text>
<text text-anchor="start" x="989.5" y="-174.1" font-family="arial" font-size="14.00" fill="#ff7f00">true</text>
</g>
<!-- _ID_32_ct0_st&#45;&gt;ID_32_ct0_st -->
<g id="edge1" class="edge">
<title>_ID_32_ct0_st&#45;&gt;ID_32_ct0_st</title>
<path fill="none" stroke="black" d="M887.54,-426.1C904.2,-421.46 921.59,-413.83 934,-401.3 981.17,-353.63 994.92,-272.75 998.9,-226.51"/>
<polygon fill="black" stroke="black" points="1002.41,-226.6 999.67,-216.36 995.42,-226.07 1002.41,-226.6"/>
</g>
<!-- ID_32_ct0_st&#45;&gt;ID_32_ct0_st -->
<g id="edge5" class="edge">
<title>ID_32_ct0_st&#45;&gt;ID_32_ct0_st</title>
<path fill="none" stroke="black" d="M987.68,-216.47C987.06,-226.21 991.67,-234.3 1001.5,-234.3 1007.64,-234.3 1011.75,-231.14 1013.81,-226.39"/>
<polygon fill="black" stroke="black" points="1017.27,-226.88 1015.32,-216.47 1010.35,-225.83 1017.27,-226.88"/>
<text text-anchor="start" x="989.5" y="-238.1" font-family="arial" font-size="14.00" fill="#377eb8">true</text>
</g>
<!-- _ID_32_ct0_st0 -->
<!-- ID_32_ct0_st0 -->
<g id="node4" class="node">
<title>ID_32_ct0_st0</title>
<polygon fill="none" stroke="black" points="261,-306.3 154,-306.3 154,-256.3 261,-256.3 261,-306.3"/>
<text text-anchor="start" x="162" y="-292.1" font-family="arial" font-weight="bold" font-size="14.00">ID_32_ct0_st0</text>
<text text-anchor="start" x="177" y="-278.1" font-family="arial" font-size="14.00" fill="#984ea3">(!P &amp;&amp; !R)</text>
<text text-anchor="start" x="195.5" y="-264.1" font-family="arial" font-size="14.00" fill="#ff7f00">true</text>
</g>
<!-- _ID_32_ct0_st0&#45;&gt;ID_32_ct0_st0 -->
<g id="edge2" class="edge">
<title>_ID_32_ct0_st0&#45;&gt;ID_32_ct0_st0</title>
<path fill="none" stroke="black" d="M111.08,-281.3C121.62,-281.3 132.74,-281.3 143.52,-281.3"/>
<polygon fill="black" stroke="black" points="143.72,-284.8 153.72,-281.3 143.72,-277.8 143.72,-284.8"/>
</g>
<!-- ID_32_ct0_st0&#45;&gt;ID_32_ct0_st -->
<g id="edge6" class="edge">
<title>ID_32_ct0_st0&#45;&gt;ID_32_ct0_st</title>
<path fill="none" stroke="black" d="M235.4,-306.42C271.88,-337.76 340.46,-387.3 409.5,-387.3 409.5,-387.3 409.5,-387.3 836.5,-387.3 919.58,-387.3 968.87,-282.43 989.35,-226.1"/>
<polygon fill="black" stroke="black" points="992.7,-227.11 992.73,-216.52 986.1,-224.79 992.7,-227.11"/>
<text text-anchor="start" x="617.5" y="-391.1" font-family="arial" font-size="14.00" fill="#377eb8">P&#39;</text>
</g>
<!-- ID_32_ct0_st0&#45;&gt;ID_32_ct0_st0 -->
<g id="edge7" class="edge">
<title>ID_32_ct0_st0&#45;&gt;ID_32_ct0_st0</title>
<path fill="none" stroke="black" d="M192.93,-306.47C192.28,-316.21 197.14,-324.3 207.5,-324.3 213.97,-324.3 218.3,-321.14 220.47,-316.39"/>
<polygon fill="black" stroke="black" points="223.94,-316.9 222.07,-306.47 217.03,-315.79 223.94,-316.9"/>
<text text-anchor="start" x="195.5" y="-328.1" font-family="arial" font-size="14.00" fill="#377eb8">true</text>
</g>
<!-- ID_32_ct0_st01 -->
<g id="node6" class="node">
<title>ID_32_ct0_st01</title>
<polygon fill="none" stroke="black" points="469,-165.3 352,-165.3 352,-115.3 469,-115.3 469,-165.3"/>
<text text-anchor="start" x="361.5" y="-151.1" font-family="arial" font-weight="bold" font-size="14.00">ID_32_ct0_st01</text>
<text text-anchor="start" x="360" y="-137.1" font-family="arial" font-size="14.00" fill="#984ea3">(!P &amp;&amp; (R &amp;&amp; S))</text>
<text text-anchor="start" x="398.5" y="-123.1" font-family="arial" font-size="14.00" fill="#ff7f00">true</text>
</g>
<!-- ID_32_ct0_st0&#45;&gt;ID_32_ct0_st01 -->
<g id="edge8" class="edge">
<title>ID_32_ct0_st0&#45;&gt;ID_32_ct0_st01</title>
<path fill="none" stroke="black" d="M223.91,-256.11C237.68,-235.42 259.57,-206.65 285,-188.3 302.11,-175.95 322.81,-166.31 342.37,-159.01"/>
<polygon fill="black" stroke="black" points="343.63,-162.28 351.87,-155.62 341.27,-155.69 343.63,-162.28"/>
<text text-anchor="start" x="297.5" y="-192.1" font-family="arial" font-size="14.00" fill="#377eb8">true</text>
</g>
<!-- ID_32_ct0_st012W -->
<g id="node8" class="node">
<title>ID_32_ct0_st012W</title>
<polygon fill="none" stroke="black" points="903,-216.3 768,-216.3 768,-166.3 903,-166.3 903,-216.3"/>
<text text-anchor="start" x="776" y="-202.1" font-family="arial" font-weight="bold" font-size="14.00">ID_32_ct0_st012W</text>
<text text-anchor="start" x="783" y="-188.1" font-family="arial" font-size="14.00" fill="#984ea3">(!P &amp;&amp; (R &amp;&amp; !S))</text>
<text text-anchor="start" x="812.5" y="-174.1" font-family="arial" font-size="14.00" fill="#ff7f00">c0 &lt;= 5</text>
</g>
<!-- ID_32_ct0_st0&#45;&gt;ID_32_ct0_st012W -->
<g id="edge9" class="edge">
<title>ID_32_ct0_st0&#45;&gt;ID_32_ct0_st012W</title>
<path fill="none" stroke="black" d="M253.46,-306.34C263.55,-310.84 274.41,-314.87 285,-317.3 335.37,-328.82 704.53,-341.83 750,-317.3 785.87,-297.94 809.25,-255.95 822.14,-225.75"/>
<polygon fill="black" stroke="black" points="825.41,-226.99 825.95,-216.41 818.93,-224.34 825.41,-226.99"/>
<text text-anchor="start" x="499.5" y="-349.1" font-family="arial" font-size="14.00" fill="#377eb8">true</text>
<text text-anchor="start" x="492.5" y="-334.1" font-family="arial" font-size="14.00">c0 :=0</text>
</g>
<!-- _ID_32_ct0_st01 -->
<!-- _ID_32_ct0_st01&#45;&gt;ID_32_ct0_st01 -->
<g id="edge3" class="edge">
<title>_ID_32_ct0_st01&#45;&gt;ID_32_ct0_st01</title>
<path fill="none" stroke="black" d="M267.18,-140.3C290.5,-140.3 317.47,-140.3 341.63,-140.3"/>
<polygon fill="black" stroke="black" points="341.79,-143.8 351.79,-140.3 341.79,-136.8 341.79,-143.8"/>
</g>
<!-- ID_32_ct0_st01&#45;&gt;ID_32_ct0_st -->
<g id="edge10" class="edge">
<title>ID_32_ct0_st01&#45;&gt;ID_32_ct0_st</title>
<path fill="none" stroke="black" d="M424.43,-114.98C437.42,-91.85 459.42,-58.16 487,-37.3 560.9,18.62 601.83,-2.7 694,-12.3 788.41,-22.13 823.41,-4.56 903,-56.3 940.89,-80.93 968.87,-125.82 984.9,-157.04"/>
<polygon fill="black" stroke="black" points="981.9,-158.86 989.49,-166.25 988.17,-155.74 981.9,-158.86"/>
<text text-anchor="start" x="724.5" y="-20.1" font-family="arial" font-size="14.00" fill="#377eb8">P&#39;</text>
</g>
<!-- ID_32_ct0_st01&#45;&gt;ID_32_ct0_st0 -->
<g id="edge11" class="edge">
<title>ID_32_ct0_st01&#45;&gt;ID_32_ct0_st0</title>
<path fill="none" stroke="black" d="M381.76,-165.46C367.88,-177.52 350.54,-191.8 334,-203.3 313.4,-217.61 306.4,-218.21 285,-231.3 275.06,-237.38 264.52,-244.09 254.55,-250.57"/>
<polygon fill="black" stroke="black" points="252.42,-247.78 245.96,-256.18 256.24,-253.64 252.42,-247.78"/>
<text text-anchor="start" x="285" y="-235.1" font-family="arial" font-size="14.00" fill="#377eb8">(P&#39; || S&#39;)</text>
</g>
<!-- ID_32_ct0_st01&#45;&gt;ID_32_ct0_st01 -->
<g id="edge13" class="edge">
<title>ID_32_ct0_st01&#45;&gt;ID_32_ct0_st01</title>
<path fill="none" stroke="black" d="M391.82,-165.47C390.99,-175.21 397.22,-183.3 410.5,-183.3 418.8,-183.3 424.35,-180.14 427.13,-175.39"/>
<polygon fill="black" stroke="black" points="430.59,-175.97 429.18,-165.47 423.73,-174.56 430.59,-175.97"/>
<text text-anchor="start" x="398.5" y="-187.1" font-family="arial" font-size="14.00" fill="#377eb8">true</text>
</g>
<!-- ID_32_ct0_st01&#45;&gt;ID_32_ct0_st012W -->
<g id="edge14" class="edge">
<title>ID_32_ct0_st01&#45;&gt;ID_32_ct0_st012W</title>
<path fill="none" stroke="black" d="M445.72,-165.47C473.37,-184.16 514.11,-208.09 554,-218.3 621.52,-235.57 700.74,-225.26 757.75,-212.71"/>
<polygon fill="black" stroke="black" points="758.79,-216.07 767.77,-210.44 757.24,-209.24 758.79,-216.07"/>
<text text-anchor="start" x="612" y="-246.1" font-family="arial" font-size="14.00" fill="#377eb8">true</text>
<text text-anchor="start" x="605" y="-231.1" font-family="arial" font-size="14.00">c0 :=0</text>
</g>
<!-- ID_32_ct0_st02W -->
<g id="node9" class="node">
<title>ID_32_ct0_st02W</title>
<polygon fill="none" stroke="black" points="688,-71.3 560,-71.3 560,-21.3 688,-21.3 688,-71.3"/>
<text text-anchor="start" x="568" y="-57.1" font-family="arial" font-weight="bold" font-size="14.00">ID_32_ct0_st02W</text>
<text text-anchor="start" x="569.5" y="-43.1" font-family="arial" font-size="14.00" fill="#984ea3">(!P &amp;&amp; (!R &amp;&amp; !S))</text>
<text text-anchor="start" x="601" y="-29.1" font-family="arial" font-size="14.00" fill="#ff7f00">c0 &lt;= 5</text>
</g>
<!-- ID_32_ct0_st01&#45;&gt;ID_32_ct0_st02W -->
<g id="edge12" class="edge">
<title>ID_32_ct0_st01&#45;&gt;ID_32_ct0_st02W</title>
<path fill="none" stroke="black" d="M425.49,-115.07C438.47,-94.42 459.86,-66.53 487,-53.3 506.08,-43.99 528.51,-40.35 549.6,-39.55"/>
<polygon fill="black" stroke="black" points="549.88,-43.04 559.82,-39.37 549.76,-36.05 549.88,-43.04"/>
<text text-anchor="start" x="499.5" y="-72.1" font-family="arial" font-size="14.00" fill="#377eb8">true</text>
<text text-anchor="start" x="492.5" y="-57.1" font-family="arial" font-size="14.00">c0 :=0</text>
</g>
<!-- _ID_32_ct0_st012W -->
<!-- _ID_32_ct0_st012W&#45;&gt;ID_32_ct0_st012W -->
<g id="edge4" class="edge">
<title>_ID_32_ct0_st012W&#45;&gt;ID_32_ct0_st012W</title>
<path fill="none" stroke="black" d="M694.18,-191.3C714.56,-191.3 736.98,-191.3 757.81,-191.3"/>
<polygon fill="black" stroke="black" points="757.89,-194.8 767.89,-191.3 757.89,-187.8 757.89,-194.8"/>
</g>
<!-- ID_32_ct0_st012W&#45;&gt;ID_32_ct0_st -->
<g id="edge20" class="edge">
<title>ID_32_ct0_st012W&#45;&gt;ID_32_ct0_st</title>
<path fill="none" stroke="black" d="M903.21,-191.3C915.95,-191.3 929.21,-191.3 941.69,-191.3"/>
<polygon fill="black" stroke="black" points="941.96,-194.8 951.96,-191.3 941.96,-187.8 941.96,-194.8"/>
<text text-anchor="start" x="921" y="-195.1" font-family="arial" font-size="14.00" fill="#377eb8">P&#39;</text>
</g>
<!-- ID_32_ct0_st012W&#45;&gt;ID_32_ct0_st0 -->
<g id="edge21" class="edge">
<title>ID_32_ct0_st012W&#45;&gt;ID_32_ct0_st0</title>
<path fill="none" stroke="black" d="M795.36,-216.31C768.09,-232.31 730.25,-251.8 694,-261.3 546.51,-299.91 365.3,-293.97 271.49,-287.14"/>
<polygon fill="black" stroke="black" points="271.55,-283.64 261.31,-286.37 271.02,-290.62 271.55,-283.64"/>
<text text-anchor="start" x="487" y="-293.1" font-family="arial" font-size="14.00" fill="#377eb8">(P&#39; || S&#39;)</text>
</g>
<!-- ID_32_ct0_st012W&#45;&gt;ID_32_ct0_st01 -->
<g id="edge23" class="edge">
<title>ID_32_ct0_st012W&#45;&gt;ID_32_ct0_st01</title>
<path fill="none" stroke="black" d="M767.79,-167.51C744.72,-160.32 718.5,-153.28 694,-149.3 621.24,-137.47 536.59,-136.42 479.06,-137.58"/>
<polygon fill="black" stroke="black" points="478.92,-134.08 469,-137.81 479.08,-141.08 478.92,-134.08"/>
<text text-anchor="start" x="612" y="-153.1" font-family="arial" font-size="14.00" fill="#377eb8">true</text>
</g>
<!-- ID_32_ct0_st012W&#45;&gt;ID_32_ct0_st012W -->
<g id="edge24" class="edge">
<title>ID_32_ct0_st012W&#45;&gt;ID_32_ct0_st012W</title>
<path fill="none" stroke="black" d="M818.32,-216.47C817.55,-226.21 823.28,-234.3 835.5,-234.3 843.14,-234.3 848.24,-231.14 850.8,-226.39"/>
<polygon fill="black" stroke="black" points="854.26,-226.95 852.68,-216.47 847.38,-225.65 854.26,-226.95"/>
<text text-anchor="start" x="816.5" y="-238.1" font-family="arial" font-size="14.00" fill="#377eb8">c0 &lt; 5</text>
</g>
<!-- ID_32_ct0_st012W&#45;&gt;ID_32_ct0_st02W -->
<g id="edge22" class="edge">
<title>ID_32_ct0_st012W&#45;&gt;ID_32_ct0_st02W</title>
<path fill="none" stroke="black" d="M811.67,-166.28C795.49,-149.45 772.71,-127.47 750,-111.3 738.41,-103.05 711.56,-88.88 685.7,-75.87"/>
<polygon fill="black" stroke="black" points="687.13,-72.67 676.62,-71.33 684,-78.94 687.13,-72.67"/>
<text text-anchor="start" x="712" y="-115.1" font-family="arial" font-size="14.00" fill="#377eb8">c0 &lt; 5</text>
</g>
<!-- ID_32_ct0_st02W&#45;&gt;ID_32_ct0_st -->
<g id="edge15" class="edge">
<title>ID_32_ct0_st02W&#45;&gt;ID_32_ct0_st</title>
<path fill="none" stroke="black" d="M688.23,-44.38C708.29,-45.21 730.36,-47.65 750,-53.3 829.01,-75.99 910.59,-127.05 958.38,-160.29"/>
<polygon fill="black" stroke="black" points="956.42,-163.19 966.61,-166.08 960.44,-157.47 956.42,-163.19"/>
<text text-anchor="start" x="829" y="-127.1" font-family="arial" font-size="14.00" fill="#377eb8">P&#39;</text>
</g>
<!-- ID_32_ct0_st02W&#45;&gt;ID_32_ct0_st0 -->
<g id="edge16" class="edge">
<title>ID_32_ct0_st02W&#45;&gt;ID_32_ct0_st0</title>
<path fill="none" stroke="black" d="M601.93,-71.32C567.49,-111.7 499.85,-188.62 469,-207.3 407.48,-244.55 326.46,-263.7 271.22,-273.09"/>
<polygon fill="black" stroke="black" points="270.51,-269.66 261.21,-274.73 271.65,-276.56 270.51,-269.66"/>
<text text-anchor="start" x="386" y="-257.1" font-family="arial" font-size="14.00" fill="#377eb8">(P&#39; || S&#39;)</text>
</g>
<!-- ID_32_ct0_st02W&#45;&gt;ID_32_ct0_st01 -->
<g id="edge18" class="edge">
<title>ID_32_ct0_st02W&#45;&gt;ID_32_ct0_st01</title>
<path fill="none" stroke="black" d="M566.39,-71.46C538.99,-83.64 505.92,-98.33 477.39,-111.01"/>
<polygon fill="black" stroke="black" points="475.62,-107.97 467.9,-115.23 478.46,-114.37 475.62,-107.97"/>
<text text-anchor="start" x="499.5" y="-109.1" font-family="arial" font-size="14.00" fill="#377eb8">true</text>
</g>
<!-- ID_32_ct0_st02W&#45;&gt;ID_32_ct0_st012W -->
<g id="edge19" class="edge">
<title>ID_32_ct0_st02W&#45;&gt;ID_32_ct0_st012W</title>
<path fill="none" stroke="black" d="M688.29,-50.81C709.23,-54.6 731.81,-61.35 750,-73.3 781.09,-93.71 804.42,-129.81 818.6,-156.72"/>
<polygon fill="black" stroke="black" points="815.58,-158.49 823.23,-165.82 821.81,-155.32 815.58,-158.49"/>
<text text-anchor="start" x="712" y="-77.1" font-family="arial" font-size="14.00" fill="#377eb8">c0 &lt; 5</text>
</g>
<!-- ID_32_ct0_st02W&#45;&gt;ID_32_ct0_st02W -->
<g id="edge17" class="edge">
<title>ID_32_ct0_st02W&#45;&gt;ID_32_ct0_st02W</title>
<path fill="none" stroke="black" d="M604.2,-71.47C603.32,-81.21 609.92,-89.3 624,-89.3 632.8,-89.3 638.68,-86.14 641.63,-81.39"/>
<polygon fill="black" stroke="black" points="645.08,-81.99 643.8,-71.47 638.24,-80.49 645.08,-81.99"/>
<text text-anchor="start" x="605" y="-93.1" font-family="arial" font-size="14.00" fill="#377eb8">c0 &lt; 5</text>
</g>
</g>
</svg>
