<?xml version="1.0" encoding="UTF-8" standalone="no"?>
<!DOCTYPE svg PUBLIC "-//W3C//DTD SVG 1.1//EN"
 "http://www.w3.org/Graphics/SVG/1.1/DTD/svg11.dtd">
<!-- Generated by graphviz version 2.43.0 (0)
 -->
<!-- Title: G Pages: 1 -->
<svg width="1070pt" height="493pt"
 viewBox="0.00 0.00 1070.00 492.71" xmlns="http://www.w3.org/2000/svg" xmlns:xlink="http://www.w3.org/1999/xlink">
<g id="graph0" class="graph" transform="scale(1 1) rotate(0) translate(4 488.71)">
<title>G</title>
<polygon fill="white" stroke="transparent" points="-4,4 -4,-488.71 1066,-488.71 1066,4 -4,4"/>
<!-- _ID_27_ct0_stinit -->
<!-- ID_27_ct0_stinit -->
<g id="node2" class="node">
<title>ID_27_ct0_stinit</title>
<polygon fill="none" stroke="black" points="895,-451.71 776,-451.71 776,-401.71 895,-401.71 895,-451.71"/>
<text text-anchor="start" x="784" y="-437.51" font-family="arial" font-weight="bold" font-size="14.00">ID_27_ct0_stinit</text>
<text text-anchor="start" x="830.5" y="-423.51" font-family="arial" font-size="14.00" fill="#984ea3">P</text>
<text text-anchor="start" x="823.5" y="-409.51" font-family="arial" font-size="14.00" fill="#ff7f00">true</text>
</g>
<!-- _ID_27_ct0_stinit&#45;&gt;ID_27_ct0_stinit -->
<g id="edge1" class="edge">
<title>_ID_27_ct0_stinit&#45;&gt;ID_27_ct0_stinit</title>
<path fill="none" stroke="black" d="M684.75,-426.71C709.95,-426.71 739.44,-426.71 765.55,-426.71"/>
<polygon fill="black" stroke="black" points="765.75,-430.21 775.75,-426.71 765.75,-423.21 765.75,-430.21"/>
</g>
<!-- ID_27_ct0_stinit&#45;&gt;ID_27_ct0_stinit -->
<g id="edge6" class="edge">
<title>ID_27_ct0_stinit&#45;&gt;ID_27_ct0_stinit</title>
<path fill="none" stroke="black" d="M817.57,-451.88C816.77,-461.62 822.75,-469.71 835.5,-469.71 843.47,-469.71 848.79,-466.55 851.47,-461.8"/>
<polygon fill="black" stroke="black" points="854.92,-462.37 853.43,-451.88 848.06,-461.01 854.92,-462.37"/>
<text text-anchor="start" x="823.5" y="-473.51" font-family="arial" font-size="14.00" fill="#377eb8">true</text>
</g>
<!-- ID_27_ct0_st -->
<g id="node9" class="node">
<title>ID_27_ct0_st</title>
<polygon fill="none" stroke="black" points="1062,-230.71 963,-230.71 963,-180.71 1062,-180.71 1062,-230.71"/>
<text text-anchor="start" x="971" y="-216.51" font-family="arial" font-weight="bold" font-size="14.00">ID_27_ct0_st</text>
<text text-anchor="start" x="1000.5" y="-202.51" font-family="arial" font-size="14.00" fill="#984ea3">true</text>
<text text-anchor="start" x="1000.5" y="-188.51" font-family="arial" font-size="14.00" fill="#ff7f00">true</text>
</g>
<!-- ID_27_ct0_stinit&#45;&gt;ID_27_ct0_st -->
<g id="edge5" class="edge">
<title>ID_27_ct0_stinit&#45;&gt;ID_27_ct0_st</title>
<path fill="none" stroke="black" d="M895.27,-415.75C913.1,-409.95 931.52,-401.12 945,-387.71 985.26,-347.66 1001.34,-281.29 1007.62,-240.73"/>
<polygon fill="black" stroke="black" points="1011.1,-241.15 1009.05,-230.75 1004.17,-240.16 1011.1,-241.15"/>
<text text-anchor="start" x="921" y="-407.51" font-family="arial" font-size="14.00" fill="#377eb8">true</text>
</g>
<!-- _ID_27_ct0_st0 -->
<!-- ID_27_ct0_st0 -->
<g id="node4" class="node">
<title>ID_27_ct0_st0</title>
<polygon fill="none" stroke="black" points="261,-238.71 154,-238.71 154,-188.71 261,-188.71 261,-238.71"/>
<text text-anchor="start" x="162" y="-224.51" font-family="arial" font-weight="bold" font-size="14.00">ID_27_ct0_st0</text>
<text text-anchor="start" x="177" y="-210.51" font-family="arial" font-size="14.00" fill="#984ea3">(!P &amp;&amp; !R)</text>
<text text-anchor="start" x="195.5" y="-196.51" font-family="arial" font-size="14.00" fill="#ff7f00">true</text>
</g>
<!-- _ID_27_ct0_st0&#45;&gt;ID_27_ct0_st0 -->
<g id="edge2" class="edge">
<title>_ID_27_ct0_st0&#45;&gt;ID_27_ct0_st0</title>
<path fill="none" stroke="black" d="M111.08,-213.71C121.62,-213.71 132.74,-213.71 143.52,-213.71"/>
<polygon fill="black" stroke="black" points="143.72,-217.21 153.72,-213.71 143.72,-210.21 143.72,-217.21"/>
</g>
<!-- ID_27_ct0_st0&#45;&gt;ID_27_ct0_st0 -->
<g id="edge9" class="edge">
<title>ID_27_ct0_st0&#45;&gt;ID_27_ct0_st0</title>
<path fill="none" stroke="black" d="M192.93,-238.88C192.28,-248.62 197.14,-256.71 207.5,-256.71 213.97,-256.71 218.3,-253.55 220.47,-248.8"/>
<polygon fill="black" stroke="black" points="223.94,-249.31 222.07,-238.88 217.03,-248.2 223.94,-249.31"/>
<text text-anchor="start" x="195.5" y="-260.51" font-family="arial" font-size="14.00" fill="#377eb8">true</text>
</g>
<!-- ID_27_ct0_st01 -->
<g id="node6" class="node">
<title>ID_27_ct0_st01</title>
<polygon fill="none" stroke="black" points="469,-120.71 352,-120.71 352,-70.71 469,-70.71 469,-120.71"/>
<text text-anchor="start" x="361.5" y="-106.51" font-family="arial" font-weight="bold" font-size="14.00">ID_27_ct0_st01</text>
<text text-anchor="start" x="360" y="-92.51" font-family="arial" font-size="14.00" fill="#984ea3">(!P &amp;&amp; (R &amp;&amp; S))</text>
<text text-anchor="start" x="398.5" y="-78.51" font-family="arial" font-size="14.00" fill="#ff7f00">true</text>
</g>
<!-- ID_27_ct0_st0&#45;&gt;ID_27_ct0_st01 -->
<g id="edge10" class="edge">
<title>ID_27_ct0_st0&#45;&gt;ID_27_ct0_st01</title>
<path fill="none" stroke="black" d="M244.82,-188.48C257.32,-180.2 271.56,-171.2 285,-163.71 306.01,-151.99 312.75,-151.99 334,-140.71 342.69,-136.09 351.8,-130.94 360.56,-125.83"/>
<polygon fill="black" stroke="black" points="362.34,-128.84 369.17,-120.74 358.78,-122.81 362.34,-128.84"/>
<text text-anchor="start" x="297.5" y="-167.51" font-family="arial" font-size="14.00" fill="#377eb8">true</text>
</g>
<!-- ID_27_ct0_st012W -->
<g id="node8" class="node">
<title>ID_27_ct0_st012W</title>
<polygon fill="none" stroke="black" points="903,-230.71 768,-230.71 768,-180.71 903,-180.71 903,-230.71"/>
<text text-anchor="start" x="776" y="-216.51" font-family="arial" font-weight="bold" font-size="14.00">ID_27_ct0_st012W</text>
<text text-anchor="start" x="783" y="-202.51" font-family="arial" font-size="14.00" fill="#984ea3">(!P &amp;&amp; (R &amp;&amp; !S))</text>
<text text-anchor="start" x="812.5" y="-188.51" font-family="arial" font-size="14.00" fill="#ff7f00">c0 &lt;= 5</text>
</g>
<!-- ID_27_ct0_st0&#45;&gt;ID_27_ct0_st012W -->
<g id="edge11" class="edge">
<title>ID_27_ct0_st0&#45;&gt;ID_27_ct0_st012W</title>
<path fill="none" stroke="black" d="M253.46,-238.75C263.55,-243.25 274.41,-247.28 285,-249.71 486.46,-295.79 549.49,-299.78 750,-249.71 762.41,-246.61 775.03,-241.37 786.61,-235.56"/>
<polygon fill="black" stroke="black" points="788.42,-238.56 795.64,-230.81 785.16,-232.37 788.42,-238.56"/>
<text text-anchor="start" x="499.5" y="-304.51" font-family="arial" font-size="14.00" fill="#377eb8">true</text>
<text text-anchor="start" x="492.5" y="-289.51" font-family="arial" font-size="14.00">c0 :=0</text>
</g>
<!-- ID_27_ct0_st0&#45;&gt;ID_27_ct0_st -->
<g id="edge8" class="edge">
<title>ID_27_ct0_st0&#45;&gt;ID_27_ct0_st</title>
<path fill="none" stroke="black" d="M224.08,-239.06C253.99,-284.17 324.09,-373.71 409.5,-373.71 409.5,-373.71 409.5,-373.71 836.5,-373.71 913.06,-373.71 969.13,-288.99 995.21,-239.88"/>
<polygon fill="black" stroke="black" points="998.39,-241.35 999.87,-230.86 992.17,-238.13 998.39,-241.35"/>
<text text-anchor="start" x="617.5" y="-377.51" font-family="arial" font-size="14.00" fill="#377eb8">P&#39;</text>
</g>
<!-- _ID_27_ct0_st01 -->
<!-- _ID_27_ct0_st01&#45;&gt;ID_27_ct0_st01 -->
<g id="edge3" class="edge">
<title>_ID_27_ct0_st01&#45;&gt;ID_27_ct0_st01</title>
<path fill="none" stroke="black" d="M267.18,-92.87C290.5,-93.34 317.47,-93.87 341.63,-94.36"/>
<polygon fill="black" stroke="black" points="341.72,-97.86 351.79,-94.56 341.86,-90.86 341.72,-97.86"/>
</g>
<!-- ID_27_ct0_st01&#45;&gt;ID_27_ct0_st0 -->
<g id="edge13" class="edge">
<title>ID_27_ct0_st01&#45;&gt;ID_27_ct0_st0</title>
<path fill="none" stroke="black" d="M351.7,-99.65C329.62,-103.17 304.96,-109.7 285,-121.71 261.43,-135.88 241.78,-160.01 228.29,-179.99"/>
<polygon fill="black" stroke="black" points="225.25,-178.26 222.72,-188.55 231.11,-182.08 225.25,-178.26"/>
<text text-anchor="start" x="285" y="-125.51" font-family="arial" font-size="14.00" fill="#377eb8">(P&#39; || S&#39;)</text>
</g>
<!-- ID_27_ct0_st01&#45;&gt;ID_27_ct0_st01 -->
<g id="edge15" class="edge">
<title>ID_27_ct0_st01&#45;&gt;ID_27_ct0_st01</title>
<path fill="none" stroke="black" d="M391.82,-120.88C390.99,-130.62 397.22,-138.71 410.5,-138.71 418.8,-138.71 424.35,-135.55 427.13,-130.8"/>
<polygon fill="black" stroke="black" points="430.59,-131.38 429.18,-120.88 423.73,-129.97 430.59,-131.38"/>
<text text-anchor="start" x="398.5" y="-142.51" font-family="arial" font-size="14.00" fill="#377eb8">true</text>
</g>
<!-- ID_27_ct0_st01&#45;&gt;ID_27_ct0_st012W -->
<g id="edge16" class="edge">
<title>ID_27_ct0_st01&#45;&gt;ID_27_ct0_st012W</title>
<path fill="none" stroke="black" d="M467.36,-70.69C473.95,-67.92 480.6,-65.2 487,-62.71 573.26,-29.11 605.52,-12.52 694,-39.71 722.75,-48.54 733.56,-52.52 750,-77.71 772.4,-112.04 745.35,-136.91 766.3,-171.9"/>
<polygon fill="black" stroke="black" points="763.72,-174.32 772.31,-180.52 769.46,-170.31 763.72,-174.32"/>
<text text-anchor="start" x="612" y="-58.51" font-family="arial" font-size="14.00" fill="#377eb8">true</text>
<text text-anchor="start" x="605" y="-43.51" font-family="arial" font-size="14.00">c0 :=0</text>
</g>
<!-- ID_27_ct0_st01&#45;&gt;ID_27_ct0_st -->
<g id="edge12" class="edge">
<title>ID_27_ct0_st01&#45;&gt;ID_27_ct0_st</title>
<path fill="none" stroke="black" d="M440.74,-70.51C454.11,-60.05 470.61,-48.54 487,-40.71 592.6,9.79 639.32,11.38 750,-26.71 841.91,-58.33 931.5,-131.55 978.2,-173.9"/>
<polygon fill="black" stroke="black" points="975.86,-176.5 985.6,-180.67 980.59,-171.34 975.86,-176.5"/>
<text text-anchor="start" x="724.5" y="-30.51" font-family="arial" font-size="14.00" fill="#377eb8">P&#39;</text>
</g>
<!-- ID_27_ct0_st02W -->
<g id="node10" class="node">
<title>ID_27_ct0_st02W</title>
<polygon fill="none" stroke="black" points="688,-174.71 560,-174.71 560,-124.71 688,-124.71 688,-174.71"/>
<text text-anchor="start" x="568" y="-160.51" font-family="arial" font-weight="bold" font-size="14.00">ID_27_ct0_st02W</text>
<text text-anchor="start" x="569.5" y="-146.51" font-family="arial" font-size="14.00" fill="#984ea3">(!P &amp;&amp; (!R &amp;&amp; !S))</text>
<text text-anchor="start" x="601" y="-132.51" font-family="arial" font-size="14.00" fill="#ff7f00">c0 &lt;= 5</text>
</g>
<!-- ID_27_ct0_st01&#45;&gt;ID_27_ct0_st02W -->
<g id="edge14" class="edge">
<title>ID_27_ct0_st01&#45;&gt;ID_27_ct0_st02W</title>
<path fill="none" stroke="black" d="M469.23,-99.01C490.49,-101.18 514.6,-104.77 536,-110.71 545.45,-113.33 555.19,-116.83 564.57,-120.65"/>
<polygon fill="black" stroke="black" points="563.24,-123.89 573.81,-124.57 565.97,-117.45 563.24,-123.89"/>
<text text-anchor="start" x="499.5" y="-129.51" font-family="arial" font-size="14.00" fill="#377eb8">true</text>
<text text-anchor="start" x="492.5" y="-114.51" font-family="arial" font-size="14.00">c0 :=0</text>
</g>
<!-- _ID_27_ct0_st012W -->
<!-- _ID_27_ct0_st012W&#45;&gt;ID_27_ct0_st012W -->
<g id="edge4" class="edge">
<title>_ID_27_ct0_st012W&#45;&gt;ID_27_ct0_st012W</title>
<path fill="none" stroke="black" d="M694.27,-308.73C713.11,-303.97 733,-297.23 750,-287.71 772.27,-275.23 792.92,-255.42 808.23,-238.39"/>
<polygon fill="black" stroke="black" points="810.92,-240.63 814.88,-230.8 805.66,-236.02 810.92,-240.63"/>
</g>
<!-- ID_27_ct0_st012W&#45;&gt;ID_27_ct0_st0 -->
<g id="edge23" class="edge">
<title>ID_27_ct0_st012W&#45;&gt;ID_27_ct0_st0</title>
<path fill="none" stroke="black" d="M767.74,-212C744.43,-213.92 718.08,-215.76 694,-216.71 542.39,-222.63 363.96,-218.74 271.37,-215.91"/>
<polygon fill="black" stroke="black" points="271.43,-212.41 261.33,-215.6 271.22,-219.41 271.43,-212.41"/>
<text text-anchor="start" x="487" y="-223.51" font-family="arial" font-size="14.00" fill="#377eb8">(P&#39; || S&#39;)</text>
</g>
<!-- ID_27_ct0_st012W&#45;&gt;ID_27_ct0_st01 -->
<g id="edge25" class="edge">
<title>ID_27_ct0_st012W&#45;&gt;ID_27_ct0_st01</title>
<path fill="none" stroke="black" d="M774.84,-180.7C772.47,-179.11 770.17,-177.45 768,-175.71 757.6,-167.37 758.97,-161.57 750,-151.71 727.36,-126.8 725.28,-113.16 694,-100.71 624.64,-73.09 537.9,-76.55 478.96,-83.89"/>
<polygon fill="black" stroke="black" points="478.48,-80.42 469.02,-85.19 479.39,-87.36 478.48,-80.42"/>
<text text-anchor="start" x="612" y="-104.51" font-family="arial" font-size="14.00" fill="#377eb8">true</text>
</g>
<!-- ID_27_ct0_st012W&#45;&gt;ID_27_ct0_st012W -->
<g id="edge26" class="edge">
<title>ID_27_ct0_st012W&#45;&gt;ID_27_ct0_st012W</title>
<path fill="none" stroke="black" d="M817.57,-230.88C816.77,-240.62 822.75,-248.71 835.5,-248.71 843.47,-248.71 848.79,-245.55 851.47,-240.8"/>
<polygon fill="black" stroke="black" points="854.92,-241.37 853.43,-230.88 848.06,-240.01 854.92,-241.37"/>
<text text-anchor="start" x="816.5" y="-252.51" font-family="arial" font-size="14.00" fill="#377eb8">c0 &lt; 5</text>
</g>
<!-- ID_27_ct0_st012W&#45;&gt;ID_27_ct0_st -->
<g id="edge22" class="edge">
<title>ID_27_ct0_st012W&#45;&gt;ID_27_ct0_st</title>
<path fill="none" stroke="black" d="M903.16,-205.71C919.48,-205.71 936.83,-205.71 952.75,-205.71"/>
<polygon fill="black" stroke="black" points="952.98,-209.21 962.98,-205.71 952.98,-202.21 952.98,-209.21"/>
<text text-anchor="start" x="926.5" y="-209.51" font-family="arial" font-size="14.00" fill="#377eb8">P&#39;</text>
</g>
<!-- ID_27_ct0_st012W&#45;&gt;ID_27_ct0_st02W -->
<g id="edge24" class="edge">
<title>ID_27_ct0_st012W&#45;&gt;ID_27_ct0_st02W</title>
<path fill="none" stroke="black" d="M790,-180.7C777.41,-174.58 763.46,-168.66 750,-164.71 733.52,-159.87 715.38,-156.59 698.15,-154.36"/>
<polygon fill="black" stroke="black" points="698.48,-150.88 688.13,-153.17 697.65,-157.83 698.48,-150.88"/>
<text text-anchor="start" x="712" y="-168.51" font-family="arial" font-size="14.00" fill="#377eb8">c0 &lt; 5</text>
</g>
<!-- ID_27_ct0_st&#45;&gt;ID_27_ct0_st -->
<g id="edge7" class="edge">
<title>ID_27_ct0_st&#45;&gt;ID_27_ct0_st</title>
<path fill="none" stroke="black" d="M997.93,-230.88C997.28,-240.62 1002.14,-248.71 1012.5,-248.71 1018.97,-248.71 1023.3,-245.55 1025.47,-240.8"/>
<polygon fill="black" stroke="black" points="1028.94,-241.31 1027.07,-230.88 1022.03,-240.2 1028.94,-241.31"/>
<text text-anchor="start" x="1000.5" y="-252.51" font-family="arial" font-size="14.00" fill="#377eb8">true</text>
</g>
<!-- ID_27_ct0_st02W&#45;&gt;ID_27_ct0_st0 -->
<g id="edge18" class="edge">
<title>ID_27_ct0_st02W&#45;&gt;ID_27_ct0_st0</title>
<path fill="none" stroke="black" d="M559.94,-164.92C551.91,-166.65 543.78,-168.29 536,-169.71 444.52,-186.33 337.6,-199.54 271.46,-207"/>
<polygon fill="black" stroke="black" points="270.75,-203.55 261.2,-208.14 271.53,-210.51 270.75,-203.55"/>
<text text-anchor="start" x="386" y="-200.51" font-family="arial" font-size="14.00" fill="#377eb8">(P&#39; || S&#39;)</text>
</g>
<!-- ID_27_ct0_st02W&#45;&gt;ID_27_ct0_st01 -->
<g id="edge20" class="edge">
<title>ID_27_ct0_st02W&#45;&gt;ID_27_ct0_st01</title>
<path fill="none" stroke="black" d="M559.93,-151.65C536.57,-150.79 510.16,-147.92 487,-140.71 475.96,-137.27 464.83,-131.92 454.65,-126.1"/>
<polygon fill="black" stroke="black" points="456.34,-123.03 445.96,-120.89 452.74,-129.03 456.34,-123.03"/>
<text text-anchor="start" x="499.5" y="-154.51" font-family="arial" font-size="14.00" fill="#377eb8">true</text>
</g>
<!-- ID_27_ct0_st02W&#45;&gt;ID_27_ct0_st012W -->
<g id="edge21" class="edge">
<title>ID_27_ct0_st02W&#45;&gt;ID_27_ct0_st012W</title>
<path fill="none" stroke="black" d="M684.86,-174.85C693.86,-178.12 703.1,-181.19 712,-183.71 726.67,-187.85 742.56,-191.38 757.88,-194.32"/>
<polygon fill="black" stroke="black" points="757.37,-197.78 767.84,-196.16 758.65,-190.9 757.37,-197.78"/>
<text text-anchor="start" x="712" y="-195.51" font-family="arial" font-size="14.00" fill="#377eb8">c0 &lt; 5</text>
</g>
<!-- ID_27_ct0_st02W&#45;&gt;ID_27_ct0_st -->
<g id="edge17" class="edge">
<title>ID_27_ct0_st02W&#45;&gt;ID_27_ct0_st</title>
<path fill="none" stroke="black" d="M688.02,-144.12C744.97,-140.75 830.7,-139.9 903,-156.71 921.35,-160.97 940.38,-168.41 957.28,-176.22"/>
<polygon fill="black" stroke="black" points="955.91,-179.44 966.44,-180.58 958.92,-173.12 955.91,-179.44"/>
<text text-anchor="start" x="829" y="-160.51" font-family="arial" font-size="14.00" fill="#377eb8">P&#39;</text>
</g>
<!-- ID_27_ct0_st02W&#45;&gt;ID_27_ct0_st02W -->
<g id="edge19" class="edge">
<title>ID_27_ct0_st02W&#45;&gt;ID_27_ct0_st02W</title>
<path fill="none" stroke="black" d="M604.2,-174.88C603.32,-184.62 609.92,-192.71 624,-192.71 632.8,-192.71 638.68,-189.55 641.63,-184.8"/>
<polygon fill="black" stroke="black" points="645.08,-185.4 643.8,-174.88 638.24,-183.9 645.08,-185.4"/>
<text text-anchor="start" x="605" y="-196.51" font-family="arial" font-size="14.00" fill="#377eb8">c0 &lt; 5</text>
</g>
</g>
</svg>
