<?xml version="1.0" encoding="UTF-8" standalone="no"?>
<!DOCTYPE svg PUBLIC "-//W3C//DTD SVG 1.1//EN"
 "http://www.w3.org/Graphics/SVG/1.1/DTD/svg11.dtd">
<!-- Generated by graphviz version 2.43.0 (0)
 -->
<!-- Title: G Pages: 1 -->
<svg width="1887pt" height="768pt"
 viewBox="0.00 0.00 1887.00 767.58" xmlns="http://www.w3.org/2000/svg" xmlns:xlink="http://www.w3.org/1999/xlink">
<g id="graph0" class="graph" transform="scale(1 1) rotate(0) translate(4 763.58)">
<title>G</title>
<polygon fill="white" stroke="transparent" points="-4,4 -4,-763.58 1883,-763.58 1883,4 -4,4"/>
<!-- _ID_31_ct0_st0 -->
<!-- ID_31_ct0_st0 -->
<g id="node2" class="node">
<title>ID_31_ct0_st0</title>
<polygon fill="none" stroke="black" points="261,-579.58 154,-579.58 154,-529.58 261,-529.58 261,-579.58"/>
<text text-anchor="start" x="162" y="-565.38" font-family="arial" font-weight="bold" font-size="14.00">ID_31_ct0_st0</text>
<text text-anchor="start" x="201" y="-551.38" font-family="arial" font-size="14.00" fill="#984ea3">!P</text>
<text text-anchor="start" x="195.5" y="-537.38" font-family="arial" font-size="14.00" fill="#ff7f00">true</text>
</g>
<!-- _ID_31_ct0_st0&#45;&gt;ID_31_ct0_st0 -->
<g id="edge1" class="edge">
<title>_ID_31_ct0_st0&#45;&gt;ID_31_ct0_st0</title>
<path fill="none" stroke="black" d="M111.08,-554.58C121.62,-554.58 132.74,-554.58 143.52,-554.58"/>
<polygon fill="black" stroke="black" points="143.72,-558.08 153.72,-554.58 143.72,-551.08 143.72,-558.08"/>
</g>
<!-- ID_31_ct0_st0&#45;&gt;ID_31_ct0_st0 -->
<g id="edge5" class="edge">
<title>ID_31_ct0_st0&#45;&gt;ID_31_ct0_st0</title>
<path fill="none" stroke="black" d="M192.93,-579.76C192.28,-589.49 197.14,-597.58 207.5,-597.58 213.97,-597.58 218.3,-594.42 220.47,-589.67"/>
<polygon fill="black" stroke="black" points="223.94,-590.18 222.07,-579.76 217.03,-589.07 223.94,-590.18"/>
<text text-anchor="start" x="195.5" y="-601.38" font-family="arial" font-size="14.00" fill="#377eb8">true</text>
</g>
<!-- ID_31_ct0_st01 -->
<g id="node4" class="node">
<title>ID_31_ct0_st01</title>
<polygon fill="none" stroke="black" points="441,-491.58 327,-491.58 327,-441.58 441,-441.58 441,-491.58"/>
<text text-anchor="start" x="335" y="-477.38" font-family="arial" font-weight="bold" font-size="14.00">ID_31_ct0_st01</text>
<text text-anchor="start" x="356.5" y="-463.38" font-family="arial" font-size="14.00" fill="#984ea3">(P &amp;&amp; Q)</text>
<text text-anchor="start" x="372" y="-449.38" font-family="arial" font-size="14.00" fill="#ff7f00">true</text>
</g>
<!-- ID_31_ct0_st0&#45;&gt;ID_31_ct0_st01 -->
<g id="edge6" class="edge">
<title>ID_31_ct0_st0&#45;&gt;ID_31_ct0_st01</title>
<path fill="none" stroke="black" d="M258.5,-529.36C279.04,-519.01 302.96,-506.94 324.31,-496.18"/>
<polygon fill="black" stroke="black" points="325.94,-499.28 333.29,-491.65 322.79,-493.03 325.94,-499.28"/>
<text text-anchor="start" x="285" y="-519.38" font-family="arial" font-size="14.00" fill="#377eb8">true</text>
</g>
<!-- ID_31_ct0_st012 -->
<g id="node6" class="node">
<title>ID_31_ct0_st012</title>
<polygon fill="none" stroke="black" points="914,-634.58 758,-634.58 758,-584.58 914,-584.58 914,-634.58"/>
<text text-anchor="start" x="783" y="-620.38" font-family="arial" font-weight="bold" font-size="14.00">ID_31_ct0_st012</text>
<text text-anchor="start" x="766" y="-606.38" font-family="arial" font-size="14.00" fill="#984ea3">(P &amp;&amp; (!Q &amp;&amp; (S || !R)))</text>
<text text-anchor="start" x="824" y="-592.38" font-family="arial" font-size="14.00" fill="#ff7f00">true</text>
</g>
<!-- ID_31_ct0_st0&#45;&gt;ID_31_ct0_st012 -->
<g id="edge7" class="edge">
<title>ID_31_ct0_st0&#45;&gt;ID_31_ct0_st012</title>
<path fill="none" stroke="black" d="M216.73,-579.6C227.48,-607.71 249.25,-651.97 285,-671.58 316.88,-689.06 697.68,-684.35 740,-671.58 760.71,-665.33 781.14,-653.03 797.72,-641.02"/>
<polygon fill="black" stroke="black" points="800.11,-643.6 806.02,-634.8 795.91,-638 800.11,-643.6"/>
<text text-anchor="start" x="459" y="-686.38" font-family="arial" font-size="14.00" fill="#377eb8">true</text>
</g>
<!-- ID_31_ct0_st01234 -->
<g id="node8" class="node">
<title>ID_31_ct0_st01234</title>
<polygon fill="none" stroke="black" points="1388,-397.58 1221,-397.58 1221,-347.58 1388,-347.58 1388,-397.58"/>
<text text-anchor="start" x="1244" y="-383.38" font-family="arial" font-weight="bold" font-size="14.00">ID_31_ct0_st01234</text>
<text text-anchor="start" x="1229" y="-369.38" font-family="arial" font-size="14.00" fill="#984ea3">(P &amp;&amp; (!Q &amp;&amp; (R &amp;&amp; !S)))</text>
<text text-anchor="start" x="1292.5" y="-355.38" font-family="arial" font-size="14.00" fill="#ff7f00">true</text>
</g>
<!-- ID_31_ct0_st0&#45;&gt;ID_31_ct0_st01234 -->
<g id="edge8" class="edge">
<title>ID_31_ct0_st0&#45;&gt;ID_31_ct0_st01234</title>
<path fill="none" stroke="black" d="M211.51,-529.29C224.43,-426.38 279.36,-44.58 383,-44.58 383,-44.58 383,-44.58 945,-44.58 1033.4,-44.58 1067.8,-47.99 1134,-106.58 1188.05,-154.41 1180.35,-185.05 1203,-253.58 1214.68,-288.9 1197.75,-308.74 1219.4,-339.43"/>
<polygon fill="black" stroke="black" points="1216.83,-341.82 1225.78,-347.48 1222.32,-337.47 1216.83,-341.82"/>
<text text-anchor="start" x="702.5" y="-48.38" font-family="arial" font-size="14.00" fill="#377eb8">true</text>
</g>
<!-- _ID_31_ct0_st01 -->
<!-- _ID_31_ct0_st01&#45;&gt;ID_31_ct0_st01 -->
<g id="edge2" class="edge">
<title>_ID_31_ct0_st01&#45;&gt;ID_31_ct0_st01</title>
<path fill="none" stroke="black" d="M215.56,-37.66C241.86,-105.04 334.48,-342.3 369.48,-431.94"/>
<polygon fill="black" stroke="black" points="366.26,-433.33 373.16,-441.38 372.79,-430.79 366.26,-433.33"/>
</g>
<!-- ID_31_ct0_st01&#45;&gt;ID_31_ct0_st0 -->
<g id="edge9" class="edge">
<title>ID_31_ct0_st01&#45;&gt;ID_31_ct0_st0</title>
<path fill="none" stroke="black" d="M326.86,-472.09C312.7,-474.9 297.87,-479.16 285,-485.58 267.04,-494.54 250.13,-508.9 236.79,-522.21"/>
<polygon fill="black" stroke="black" points="234.22,-519.84 229.77,-529.45 239.24,-524.71 234.22,-519.84"/>
<text text-anchor="start" x="289.5" y="-489.38" font-family="arial" font-size="14.00" fill="#377eb8">Q&#39;</text>
</g>
<!-- ID_31_ct0_st01&#45;&gt;ID_31_ct0_st01 -->
<g id="edge12" class="edge">
<title>ID_31_ct0_st01&#45;&gt;ID_31_ct0_st01</title>
<path fill="none" stroke="black" d="M367.94,-491.76C367.22,-501.49 372.58,-509.58 384,-509.58 391.14,-509.58 395.91,-506.42 398.31,-501.67"/>
<polygon fill="black" stroke="black" points="401.76,-502.21 400.06,-491.76 394.87,-500.99 401.76,-502.21"/>
<text text-anchor="start" x="372" y="-513.38" font-family="arial" font-size="14.00" fill="#377eb8">true</text>
</g>
<!-- ID_31_ct0_st01&#45;&gt;ID_31_ct0_st012 -->
<g id="edge13" class="edge">
<title>ID_31_ct0_st01&#45;&gt;ID_31_ct0_st012</title>
<path fill="none" stroke="black" d="M401.66,-491.66C421.62,-519.34 457.83,-562.62 501,-582.58 578.89,-618.59 677.9,-622.06 747.83,-618.54"/>
<polygon fill="black" stroke="black" points="748.15,-622.03 757.94,-617.98 747.76,-615.04 748.15,-622.03"/>
<text text-anchor="start" x="574" y="-622.38" font-family="arial" font-size="14.00" fill="#377eb8">true</text>
</g>
<!-- ID_31_ct0_st01&#45;&gt;ID_31_ct0_st01234 -->
<g id="edge14" class="edge">
<title>ID_31_ct0_st01&#45;&gt;ID_31_ct0_st01234</title>
<path fill="none" stroke="black" d="M429.02,-441.39C486.59,-410.05 591.61,-358.25 689,-338.58 871.09,-301.81 1089.28,-330.67 1210.55,-352.97"/>
<polygon fill="black" stroke="black" points="1210.07,-356.44 1220.55,-354.83 1211.36,-349.56 1210.07,-356.44"/>
<text text-anchor="start" x="824" y="-331.38" font-family="arial" font-size="14.00" fill="#377eb8">true</text>
</g>
<!-- ID_31_ct0_st02 -->
<g id="node9" class="node">
<title>ID_31_ct0_st02</title>
<polygon fill="none" stroke="black" points="1134,-426.58 974,-426.58 974,-376.58 1134,-376.58 1134,-426.58"/>
<text text-anchor="start" x="1005" y="-412.38" font-family="arial" font-weight="bold" font-size="14.00">ID_31_ct0_st02</text>
<text text-anchor="start" x="982" y="-398.38" font-family="arial" font-size="14.00" fill="#984ea3">(!P &amp;&amp; (!Q &amp;&amp; (S || !R)))</text>
<text text-anchor="start" x="1042" y="-384.38" font-family="arial" font-size="14.00" fill="#ff7f00">true</text>
</g>
<!-- ID_31_ct0_st01&#45;&gt;ID_31_ct0_st02 -->
<g id="edge10" class="edge">
<title>ID_31_ct0_st01&#45;&gt;ID_31_ct0_st02</title>
<path fill="none" stroke="black" d="M441.06,-455.33C447.1,-454.31 453.17,-453.37 459,-452.58 678.63,-422.83 735.31,-432.06 956,-411.58 958.54,-411.34 961.13,-411.1 963.73,-410.85"/>
<polygon fill="black" stroke="black" points="964.25,-414.32 973.87,-409.87 963.58,-407.35 964.25,-414.32"/>
<text text-anchor="start" x="702.5" y="-432.38" font-family="arial" font-size="14.00" fill="#377eb8">true</text>
</g>
<!-- ID_31_ct0_st0234 -->
<g id="node10" class="node">
<title>ID_31_ct0_st0234</title>
<polygon fill="none" stroke="black" points="671,-263.58 501,-263.58 501,-213.58 671,-213.58 671,-263.58"/>
<text text-anchor="start" x="529.5" y="-249.38" font-family="arial" font-weight="bold" font-size="14.00">ID_31_ct0_st0234</text>
<text text-anchor="start" x="509" y="-235.38" font-family="arial" font-size="14.00" fill="#984ea3">(!P &amp;&amp; (!Q &amp;&amp; (R &amp;&amp; !S)))</text>
<text text-anchor="start" x="574" y="-221.38" font-family="arial" font-size="14.00" fill="#ff7f00">true</text>
</g>
<!-- ID_31_ct0_st01&#45;&gt;ID_31_ct0_st0234 -->
<g id="edge11" class="edge">
<title>ID_31_ct0_st01&#45;&gt;ID_31_ct0_st0234</title>
<path fill="none" stroke="black" d="M389.9,-441.29C398.17,-404.77 418.17,-337.09 459,-295.58 469.7,-284.7 482.86,-275.71 496.6,-268.34"/>
<polygon fill="black" stroke="black" points="498.35,-271.37 505.68,-263.72 495.18,-265.13 498.35,-271.37"/>
<text text-anchor="start" x="459" y="-299.38" font-family="arial" font-size="14.00" fill="#377eb8">true</text>
</g>
<!-- _ID_31_ct0_st012 -->
<!-- _ID_31_ct0_st012&#45;&gt;ID_31_ct0_st012 -->
<g id="edge3" class="edge">
<title>_ID_31_ct0_st012&#45;&gt;ID_31_ct0_st012</title>
<path fill="none" stroke="black" d="M649.18,-737.14C678.22,-732.98 712.39,-724.97 740,-709.58 769.12,-693.35 794.66,-665.2 811.91,-642.89"/>
<polygon fill="black" stroke="black" points="814.88,-644.76 818.1,-634.66 809.29,-640.55 814.88,-644.76"/>
</g>
<!-- ID_31_ct0_st012&#45;&gt;ID_31_ct0_st0 -->
<g id="edge21" class="edge">
<title>ID_31_ct0_st012&#45;&gt;ID_31_ct0_st0</title>
<path fill="none" stroke="black" d="M757.96,-629.36C751.91,-630.57 745.87,-631.66 740,-632.58 709.62,-637.32 701.73,-636.47 671,-637.58 595.49,-640.31 575.86,-647.78 501,-637.58 402.28,-624.12 380.71,-605.26 285,-577.58 280.41,-576.25 275.67,-574.87 270.91,-573.46"/>
<polygon fill="black" stroke="black" points="271.71,-570.05 261.13,-570.56 269.72,-576.76 271.71,-570.05"/>
<text text-anchor="start" x="463.5" y="-638.38" font-family="arial" font-size="14.00" fill="#377eb8">Q&#39;</text>
</g>
<!-- ID_31_ct0_st012&#45;&gt;ID_31_ct0_st01 -->
<g id="edge24" class="edge">
<title>ID_31_ct0_st012&#45;&gt;ID_31_ct0_st01</title>
<path fill="none" stroke="black" d="M793.19,-584.56C760.83,-566.16 714.36,-541.8 671,-526.58 650.5,-519.38 529.37,-494.95 451.46,-479.57"/>
<polygon fill="black" stroke="black" points="451.73,-476.06 441.24,-477.56 450.38,-482.93 451.73,-476.06"/>
<text text-anchor="start" x="574" y="-530.38" font-family="arial" font-size="14.00" fill="#377eb8">true</text>
</g>
<!-- ID_31_ct0_st012&#45;&gt;ID_31_ct0_st012 -->
<g id="edge25" class="edge">
<title>ID_31_ct0_st012&#45;&gt;ID_31_ct0_st012</title>
<path fill="none" stroke="black" d="M815.83,-634.76C814.93,-644.49 821.66,-652.58 836,-652.58 844.96,-652.58 850.95,-649.42 853.96,-644.67"/>
<polygon fill="black" stroke="black" points="857.42,-645.28 856.17,-634.76 850.58,-643.76 857.42,-645.28"/>
<text text-anchor="start" x="824" y="-656.38" font-family="arial" font-size="14.00" fill="#377eb8">true</text>
</g>
<!-- ID_31_ct0_st012&#45;&gt;ID_31_ct0_st01234 -->
<g id="edge26" class="edge">
<title>ID_31_ct0_st012&#45;&gt;ID_31_ct0_st01234</title>
<path fill="none" stroke="black" d="M914.06,-610.32C1009.07,-609.52 1162.95,-602.08 1203,-563.58 1237.45,-530.46 1199.39,-500.2 1221,-457.58 1231.15,-437.56 1247.64,-419.16 1263.22,-404.64"/>
<polygon fill="black" stroke="black" points="1265.69,-407.13 1270.77,-397.83 1261,-401.94 1265.69,-407.13"/>
<text text-anchor="start" x="1042" y="-612.38" font-family="arial" font-size="14.00" fill="#377eb8">true</text>
</g>
<!-- ID_31_ct0_st012&#45;&gt;ID_31_ct0_st02 -->
<g id="edge22" class="edge">
<title>ID_31_ct0_st012&#45;&gt;ID_31_ct0_st02</title>
<path fill="none" stroke="black" d="M882.8,-584.47C911.89,-567.71 945.89,-546.3 956,-532.58 973.54,-508.8 958.04,-493.44 974,-468.58 982.53,-455.3 994.5,-443.25 1006.54,-433.14"/>
<polygon fill="black" stroke="black" points="1008.84,-435.79 1014.43,-426.79 1004.45,-430.34 1008.84,-435.79"/>
<text text-anchor="start" x="932" y="-555.38" font-family="arial" font-size="14.00" fill="#377eb8">true</text>
</g>
<!-- ID_31_ct0_st012&#45;&gt;ID_31_ct0_st0234 -->
<g id="edge23" class="edge">
<title>ID_31_ct0_st012&#45;&gt;ID_31_ct0_st0234</title>
<path fill="none" stroke="black" d="M829.9,-584.24C819.91,-540.58 793.86,-450.66 740,-396.58 722.45,-378.96 708.43,-389.09 689,-373.58 653.74,-345.43 624.07,-302.45 605.97,-272.58"/>
<polygon fill="black" stroke="black" points="608.85,-270.57 600.74,-263.76 602.83,-274.15 608.85,-270.57"/>
<text text-anchor="start" x="702.5" y="-400.38" font-family="arial" font-size="14.00" fill="#377eb8">true</text>
</g>
<!-- _ID_31_ct0_st01234 -->
<!-- _ID_31_ct0_st01234&#45;&gt;ID_31_ct0_st01234 -->
<g id="edge4" class="edge">
<title>_ID_31_ct0_st01234&#45;&gt;ID_31_ct0_st01234</title>
<path fill="none" stroke="black" d="M1112.03,-477.51C1119.5,-474.73 1126.99,-471.73 1134,-468.58 1176.48,-449.49 1222.3,-423.16 1255.57,-402.91"/>
<polygon fill="black" stroke="black" points="1257.49,-405.84 1264.18,-397.63 1253.83,-399.87 1257.49,-405.84"/>
</g>
<!-- ID_31_ct0_st01234&#45;&gt;ID_31_ct0_st012 -->
<g id="edge48" class="edge">
<title>ID_31_ct0_st01234&#45;&gt;ID_31_ct0_st012</title>
<path fill="none" stroke="black" d="M1278.01,-397.66C1238.96,-435.64 1165.56,-505.15 1134,-522.58 1115.24,-532.94 1004.55,-564.17 923.77,-586.24"/>
<polygon fill="black" stroke="black" points="922.8,-582.87 914.08,-588.88 924.65,-589.62 922.8,-582.87"/>
<text text-anchor="start" x="1028.5" y="-575.38" font-family="arial" font-size="14.00" fill="#377eb8">(Q&#39; || S&#39;)</text>
</g>
<!-- ID_31_ct0_st01234&#45;&gt;ID_31_ct0_st01234 -->
<g id="edge50" class="edge">
<title>ID_31_ct0_st01234&#45;&gt;ID_31_ct0_st01234</title>
<path fill="none" stroke="black" d="M1280.97,-397.76C1279.92,-407.49 1287.77,-415.58 1304.5,-415.58 1314.96,-415.58 1321.95,-412.42 1325.46,-407.67"/>
<polygon fill="black" stroke="black" points="1328.91,-408.31 1328.03,-397.76 1322.13,-406.56 1328.91,-408.31"/>
<text text-anchor="start" x="1292.5" y="-419.38" font-family="arial" font-size="14.00" fill="#377eb8">true</text>
</g>
<!-- ID_31_ct0_st01234&#45;&gt;ID_31_ct0_st02 -->
<g id="edge45" class="edge">
<title>ID_31_ct0_st01234&#45;&gt;ID_31_ct0_st02</title>
<path fill="none" stroke="black" d="M1220.75,-386.23C1214.75,-387.07 1208.79,-387.87 1203,-388.58 1184.03,-390.92 1163.65,-392.99 1144.26,-394.76"/>
<polygon fill="black" stroke="black" points="1143.87,-391.28 1134.22,-395.66 1144.49,-398.25 1143.87,-391.28"/>
<text text-anchor="start" x="1152" y="-398.38" font-family="arial" font-size="14.00" fill="#377eb8">(Q&#39; || S&#39;)</text>
</g>
<!-- ID_31_ct0_st01234&#45;&gt;ID_31_ct0_st0234 -->
<g id="edge47" class="edge">
<title>ID_31_ct0_st01234&#45;&gt;ID_31_ct0_st0234</title>
<path fill="none" stroke="black" d="M1226.6,-347.33C1224.64,-345.84 1222.77,-344.25 1221,-342.58 1206.24,-328.63 1215.6,-316.5 1203,-300.58 1179.33,-270.68 1169.46,-263.62 1134,-249.58 984.41,-190.35 793.29,-204.69 681.1,-221.17"/>
<polygon fill="black" stroke="black" points="680.53,-217.71 671.16,-222.66 681.57,-224.64 680.53,-217.71"/>
<text text-anchor="start" x="932" y="-214.38" font-family="arial" font-size="14.00" fill="#377eb8">true</text>
</g>
<!-- ID_31_ct0_st024 -->
<g id="node11" class="node">
<title>ID_31_ct0_st024</title>
<polygon fill="none" stroke="black" points="1879,-406.58 1705,-406.58 1705,-356.58 1879,-356.58 1879,-406.58"/>
<text text-anchor="start" x="1739" y="-392.38" font-family="arial" font-weight="bold" font-size="14.00">ID_31_ct0_st024</text>
<text text-anchor="start" x="1713" y="-378.38" font-family="arial" font-size="14.00" fill="#984ea3">(!P &amp;&amp; (!Q &amp;&amp; (!R &amp;&amp; !S)))</text>
<text text-anchor="start" x="1780" y="-364.38" font-family="arial" font-size="14.00" fill="#ff7f00">true</text>
</g>
<!-- ID_31_ct0_st01234&#45;&gt;ID_31_ct0_st024 -->
<g id="edge46" class="edge">
<title>ID_31_ct0_st01234&#45;&gt;ID_31_ct0_st024</title>
<path fill="none" stroke="black" d="M1388.13,-374.11C1472.97,-375.68 1604.91,-378.13 1694.49,-379.79"/>
<polygon fill="black" stroke="black" points="1694.59,-383.29 1704.65,-379.98 1694.72,-376.29 1694.59,-383.29"/>
<text text-anchor="start" x="1548" y="-383.38" font-family="arial" font-size="14.00" fill="#377eb8">true</text>
</g>
<!-- ID_31_ct0_st0124 -->
<g id="node12" class="node">
<title>ID_31_ct0_st0124</title>
<polygon fill="none" stroke="black" points="1645,-321.58 1475,-321.58 1475,-271.58 1645,-271.58 1645,-321.58"/>
<text text-anchor="start" x="1503.5" y="-307.38" font-family="arial" font-weight="bold" font-size="14.00">ID_31_ct0_st0124</text>
<text text-anchor="start" x="1483" y="-293.38" font-family="arial" font-size="14.00" fill="#984ea3">(P &amp;&amp; (!Q &amp;&amp; (!R &amp;&amp; !S)))</text>
<text text-anchor="start" x="1548" y="-279.38" font-family="arial" font-size="14.00" fill="#ff7f00">true</text>
</g>
<!-- ID_31_ct0_st01234&#45;&gt;ID_31_ct0_st0124 -->
<g id="edge49" class="edge">
<title>ID_31_ct0_st01234&#45;&gt;ID_31_ct0_st0124</title>
<path fill="none" stroke="black" d="M1388.01,-352.09C1410.49,-346.16 1434.77,-339.42 1457,-332.58 1464.72,-330.2 1472.72,-327.61 1480.7,-324.94"/>
<polygon fill="black" stroke="black" points="1482.05,-328.17 1490.39,-321.65 1479.8,-321.55 1482.05,-328.17"/>
<text text-anchor="start" x="1419.5" y="-351.38" font-family="arial" font-size="14.00" fill="#377eb8">true</text>
</g>
<!-- ID_31_ct0_st02&#45;&gt;ID_31_ct0_st0 -->
<g id="edge15" class="edge">
<title>ID_31_ct0_st02&#45;&gt;ID_31_ct0_st0</title>
<path fill="none" stroke="black" d="M995.55,-426.6C982.61,-432.03 968.88,-437.62 956,-442.58 830.84,-490.71 802.9,-517.41 671,-541.58 530.02,-567.41 360.87,-563.55 271.32,-558.84"/>
<polygon fill="black" stroke="black" points="271.24,-555.33 261.06,-558.27 270.86,-562.32 271.24,-555.33"/>
<text text-anchor="start" x="578.5" y="-563.38" font-family="arial" font-size="14.00" fill="#377eb8">Q&#39;</text>
</g>
<!-- ID_31_ct0_st02&#45;&gt;ID_31_ct0_st01 -->
<g id="edge18" class="edge">
<title>ID_31_ct0_st02&#45;&gt;ID_31_ct0_st01</title>
<path fill="none" stroke="black" d="M973.72,-423.01C954.32,-427.53 933.52,-431.77 914,-434.58 748.69,-458.35 551.85,-464.5 451.3,-466.07"/>
<polygon fill="black" stroke="black" points="451.24,-462.57 441.29,-466.21 451.34,-469.57 451.24,-462.57"/>
<text text-anchor="start" x="702.5" y="-460.38" font-family="arial" font-size="14.00" fill="#377eb8">true</text>
</g>
<!-- ID_31_ct0_st02&#45;&gt;ID_31_ct0_st012 -->
<g id="edge19" class="edge">
<title>ID_31_ct0_st02&#45;&gt;ID_31_ct0_st012</title>
<path fill="none" stroke="black" d="M1019.37,-426.85C1004.64,-438.71 987.65,-453.52 974,-468.58 964.56,-478.99 965.12,-483.89 956,-494.58 946.41,-505.82 942.64,-507.33 932,-517.58 911.46,-537.37 888.47,-559.62 870.26,-577.28"/>
<polygon fill="black" stroke="black" points="867.51,-575.08 862.77,-584.55 872.38,-580.1 867.51,-575.08"/>
<text text-anchor="start" x="932" y="-521.38" font-family="arial" font-size="14.00" fill="#377eb8">true</text>
</g>
<!-- ID_31_ct0_st02&#45;&gt;ID_31_ct0_st01234 -->
<g id="edge20" class="edge">
<title>ID_31_ct0_st02&#45;&gt;ID_31_ct0_st01234</title>
<path fill="none" stroke="black" d="M1134.02,-376.86C1140.06,-375.55 1146.1,-374.43 1152,-373.58 1170.84,-370.85 1191.14,-369.59 1210.57,-369.17"/>
<polygon fill="black" stroke="black" points="1210.68,-372.67 1220.63,-369.03 1210.58,-365.67 1210.68,-372.67"/>
<text text-anchor="start" x="1165.5" y="-377.38" font-family="arial" font-size="14.00" fill="#377eb8">true</text>
</g>
<!-- ID_31_ct0_st02&#45;&gt;ID_31_ct0_st02 -->
<g id="edge16" class="edge">
<title>ID_31_ct0_st02&#45;&gt;ID_31_ct0_st02</title>
<path fill="none" stroke="black" d="M1033.46,-426.76C1032.54,-436.49 1039.39,-444.58 1054,-444.58 1063.13,-444.58 1069.23,-441.42 1072.3,-436.67"/>
<polygon fill="black" stroke="black" points="1075.75,-437.28 1074.54,-426.76 1068.92,-435.73 1075.75,-437.28"/>
<text text-anchor="start" x="1042" y="-448.38" font-family="arial" font-size="14.00" fill="#377eb8">true</text>
</g>
<!-- ID_31_ct0_st02&#45;&gt;ID_31_ct0_st0234 -->
<g id="edge17" class="edge">
<title>ID_31_ct0_st02&#45;&gt;ID_31_ct0_st0234</title>
<path fill="none" stroke="black" d="M973.73,-398.81C897.96,-394.63 790.57,-384.25 758,-358.58 741.08,-345.24 754.65,-329.37 740,-313.58 736.45,-309.75 690.2,-287.29 649.47,-267.94"/>
<polygon fill="black" stroke="black" points="650.88,-264.74 640.34,-263.62 647.88,-271.06 650.88,-264.74"/>
<text text-anchor="start" x="824" y="-398.38" font-family="arial" font-size="14.00" fill="#377eb8">true</text>
</g>
<!-- ID_31_ct0_st0234&#45;&gt;ID_31_ct0_st012 -->
<g id="edge42" class="edge">
<title>ID_31_ct0_st0234&#45;&gt;ID_31_ct0_st012</title>
<path fill="none" stroke="black" d="M621.24,-263.73C665.02,-296.02 735.74,-348.61 740,-354.58 754.93,-375.52 749.38,-385.35 758,-409.58 778.81,-468.07 805.21,-535.28 821.06,-574.99"/>
<polygon fill="black" stroke="black" points="817.89,-576.49 824.86,-584.48 824.39,-573.89 817.89,-576.49"/>
<text text-anchor="start" x="689" y="-358.38" font-family="arial" font-size="14.00" fill="#377eb8">(Q&#39; || S&#39;)</text>
</g>
<!-- ID_31_ct0_st0234&#45;&gt;ID_31_ct0_st01234 -->
<g id="edge44" class="edge">
<title>ID_31_ct0_st0234&#45;&gt;ID_31_ct0_st01234</title>
<path fill="none" stroke="black" d="M671.21,-233.43C794.96,-229.5 1029.97,-236.06 1203,-325.58 1210.86,-329.65 1211.66,-334.44 1220.96,-341.67"/>
<polygon fill="black" stroke="black" points="1219.21,-344.71 1229.46,-347.4 1223.12,-338.91 1219.21,-344.71"/>
<text text-anchor="start" x="932" y="-254.38" font-family="arial" font-size="14.00" fill="#377eb8">true</text>
</g>
<!-- ID_31_ct0_st0234&#45;&gt;ID_31_ct0_st02 -->
<g id="edge39" class="edge">
<title>ID_31_ct0_st0234&#45;&gt;ID_31_ct0_st02</title>
<path fill="none" stroke="black" d="M671.15,-254.13C764.27,-271.48 902.79,-297.76 914,-302.58 952.48,-319.12 990.85,-347.59 1017.5,-369.76"/>
<polygon fill="black" stroke="black" points="1015.48,-372.64 1025.38,-376.42 1020,-367.29 1015.48,-372.64"/>
<text text-anchor="start" x="810.5" y="-306.38" font-family="arial" font-size="14.00" fill="#377eb8">(Q&#39; || S&#39;)</text>
</g>
<!-- ID_31_ct0_st0234&#45;&gt;ID_31_ct0_st0234 -->
<g id="edge41" class="edge">
<title>ID_31_ct0_st0234&#45;&gt;ID_31_ct0_st0234</title>
<path fill="none" stroke="black" d="M564.71,-263.76C563.76,-273.49 570.86,-281.58 586,-281.58 595.46,-281.58 601.78,-278.42 604.96,-273.67"/>
<polygon fill="black" stroke="black" points="608.41,-274.29 607.29,-263.76 601.6,-272.69 608.41,-274.29"/>
<text text-anchor="start" x="574" y="-285.38" font-family="arial" font-size="14.00" fill="#377eb8">true</text>
</g>
<!-- ID_31_ct0_st0234&#45;&gt;ID_31_ct0_st024 -->
<g id="edge40" class="edge">
<title>ID_31_ct0_st0234&#45;&gt;ID_31_ct0_st024</title>
<path fill="none" stroke="black" d="M602.62,-213.42C620.15,-187.66 651.15,-148.88 689,-130.58 828.88,-62.95 1235.37,-85.51 1388,-114.58 1549.22,-145.28 1699.29,-284.87 1761.17,-349.08"/>
<polygon fill="black" stroke="black" points="1758.84,-351.71 1768.27,-356.53 1763.9,-346.88 1758.84,-351.71"/>
<text text-anchor="start" x="1165.5" y="-97.38" font-family="arial" font-size="14.00" fill="#377eb8">true</text>
</g>
<!-- ID_31_ct0_st0234&#45;&gt;ID_31_ct0_st0124 -->
<g id="edge43" class="edge">
<title>ID_31_ct0_st0234&#45;&gt;ID_31_ct0_st0124</title>
<path fill="none" stroke="black" d="M671.07,-214.32C677.11,-212.94 683.13,-211.67 689,-210.58 719.3,-204.92 727.25,-205.78 758,-203.58 924.73,-191.66 968,-174.94 1134,-194.58 1251.91,-208.53 1384.45,-243.53 1469.69,-268.64"/>
<polygon fill="black" stroke="black" points="1468.75,-272.01 1479.34,-271.5 1470.74,-265.3 1468.75,-272.01"/>
<text text-anchor="start" x="1042" y="-198.38" font-family="arial" font-size="14.00" fill="#377eb8">true</text>
</g>
<!-- ID_31_ct0_st024&#45;&gt;ID_31_ct0_st012 -->
<g id="edge30" class="edge">
<title>ID_31_ct0_st024&#45;&gt;ID_31_ct0_st012</title>
<path fill="none" stroke="black" d="M1784.88,-406.64C1765.62,-478.74 1699.15,-681.58 1561,-681.58 1053,-681.58 1053,-681.58 1053,-681.58 996.29,-681.58 935.3,-658.96 892.64,-639.08"/>
<polygon fill="black" stroke="black" points="894.09,-635.9 883.55,-634.76 891.08,-642.22 894.09,-635.9"/>
<text text-anchor="start" x="1279" y="-685.38" font-family="arial" font-size="14.00" fill="#377eb8">(Q&#39; || S&#39;)</text>
</g>
<!-- ID_31_ct0_st024&#45;&gt;ID_31_ct0_st01234 -->
<g id="edge32" class="edge">
<title>ID_31_ct0_st024&#45;&gt;ID_31_ct0_st01234</title>
<path fill="none" stroke="black" d="M1704.87,-401.32C1698.83,-402.49 1692.83,-403.59 1687,-404.58 1563.87,-425.47 1528.63,-428.2 1406,-404.58 1399.81,-403.39 1393.46,-401.93 1387.11,-400.32"/>
<polygon fill="black" stroke="black" points="1387.72,-396.86 1377.16,-397.65 1385.91,-403.62 1387.72,-396.86"/>
<text text-anchor="start" x="1548" y="-424.38" font-family="arial" font-size="14.00" fill="#377eb8">true</text>
</g>
<!-- ID_31_ct0_st024&#45;&gt;ID_31_ct0_st02 -->
<g id="edge27" class="edge">
<title>ID_31_ct0_st024&#45;&gt;ID_31_ct0_st02</title>
<path fill="none" stroke="black" d="M1741.41,-406.72C1713.79,-419.31 1678.35,-433.2 1645,-439.58 1459.91,-475 1408.25,-460.74 1221,-439.58 1195.83,-436.73 1168.9,-431.54 1144.23,-425.88"/>
<polygon fill="black" stroke="black" points="1144.7,-422.4 1134.16,-423.52 1143.1,-429.21 1144.7,-422.4"/>
<text text-anchor="start" x="1406" y="-464.38" font-family="arial" font-size="14.00" fill="#377eb8">(Q&#39; || S&#39;)</text>
</g>
<!-- ID_31_ct0_st024&#45;&gt;ID_31_ct0_st0234 -->
<g id="edge29" class="edge">
<title>ID_31_ct0_st024&#45;&gt;ID_31_ct0_st0234</title>
<path fill="none" stroke="black" d="M1789.78,-356.31C1785.6,-296.95 1767.24,-147.01 1687,-59.58 1645.92,-14.82 1621.75,-6.58 1561,-6.58 835,-6.58 835,-6.58 835,-6.58 769.72,-6.58 742.15,15.32 689,-22.58 628.47,-65.73 602.7,-154.35 592.69,-203.61"/>
<polygon fill="black" stroke="black" points="589.24,-203.01 590.78,-213.5 596.11,-204.34 589.24,-203.01"/>
<text text-anchor="start" x="1165.5" y="-10.38" font-family="arial" font-size="14.00" fill="#377eb8">true</text>
</g>
<!-- ID_31_ct0_st024&#45;&gt;ID_31_ct0_st024 -->
<g id="edge28" class="edge">
<title>ID_31_ct0_st024&#45;&gt;ID_31_ct0_st024</title>
<path fill="none" stroke="black" d="M1770.33,-406.76C1769.37,-416.49 1776.59,-424.58 1792,-424.58 1801.63,-424.58 1808.06,-421.42 1811.3,-416.67"/>
<polygon fill="black" stroke="black" points="1814.75,-417.29 1813.67,-406.76 1807.94,-415.67 1814.75,-417.29"/>
<text text-anchor="start" x="1780" y="-428.38" font-family="arial" font-size="14.00" fill="#377eb8">true</text>
</g>
<!-- ID_31_ct0_st024&#45;&gt;ID_31_ct0_st0124 -->
<g id="edge31" class="edge">
<title>ID_31_ct0_st024&#45;&gt;ID_31_ct0_st0124</title>
<path fill="none" stroke="black" d="M1758.6,-356.57C1738.93,-342.63 1712.73,-326.2 1687,-316.58 1676.91,-312.81 1666.12,-309.74 1655.24,-307.26"/>
<polygon fill="black" stroke="black" points="1655.75,-303.79 1645.24,-305.14 1654.3,-310.64 1655.75,-303.79"/>
<text text-anchor="start" x="1663" y="-320.38" font-family="arial" font-size="14.00" fill="#377eb8">true</text>
</g>
<!-- ID_31_ct0_st0124&#45;&gt;ID_31_ct0_st012 -->
<g id="edge36" class="edge">
<title>ID_31_ct0_st0124&#45;&gt;ID_31_ct0_st012</title>
<path fill="none" stroke="black" d="M1529.18,-321.8C1495.16,-350.51 1437.81,-398.7 1388,-439.58 1355.92,-465.9 1215.75,-606.08 1134,-627.58 1065.17,-645.69 984.4,-639.09 924.48,-629.13"/>
<polygon fill="black" stroke="black" points="924.74,-625.63 914.29,-627.38 923.55,-632.53 924.74,-625.63"/>
<text text-anchor="start" x="1152" y="-624.38" font-family="arial" font-size="14.00" fill="#377eb8">(Q&#39; || S&#39;)</text>
</g>
<!-- ID_31_ct0_st0124&#45;&gt;ID_31_ct0_st01234 -->
<g id="edge38" class="edge">
<title>ID_31_ct0_st0124&#45;&gt;ID_31_ct0_st01234</title>
<path fill="none" stroke="black" d="M1474.77,-302.56C1452.07,-305.67 1427.77,-310.4 1406,-317.58 1387.67,-323.62 1368.8,-332.99 1352.43,-342.29"/>
<polygon fill="black" stroke="black" points="1350.49,-339.37 1343.61,-347.42 1354.01,-345.41 1350.49,-339.37"/>
<text text-anchor="start" x="1419.5" y="-321.38" font-family="arial" font-size="14.00" fill="#377eb8">true</text>
</g>
<!-- ID_31_ct0_st0124&#45;&gt;ID_31_ct0_st02 -->
<g id="edge33" class="edge">
<title>ID_31_ct0_st0124&#45;&gt;ID_31_ct0_st02</title>
<path fill="none" stroke="black" d="M1474.74,-294.26C1405.37,-294.48 1305.11,-299.74 1221,-323.58 1181.27,-334.84 1139.18,-354.71 1107.33,-371.58"/>
<polygon fill="black" stroke="black" points="1105.37,-368.66 1098.21,-376.47 1108.68,-374.83 1105.37,-368.66"/>
<text text-anchor="start" x="1279" y="-327.38" font-family="arial" font-size="14.00" fill="#377eb8">(Q&#39; || S&#39;)</text>
</g>
<!-- ID_31_ct0_st0124&#45;&gt;ID_31_ct0_st0234 -->
<g id="edge35" class="edge">
<title>ID_31_ct0_st0124&#45;&gt;ID_31_ct0_st0234</title>
<path fill="none" stroke="black" d="M1546.27,-271.44C1529.8,-241.52 1498.26,-192.28 1457,-165.58 1398.81,-127.92 1374.81,-128.58 1305.5,-128.58 835,-128.58 835,-128.58 835,-128.58 769.24,-128.58 748.73,-125.06 689,-152.58 661.51,-165.24 635.51,-187.38 616.64,-206.02"/>
<polygon fill="black" stroke="black" points="614.06,-203.66 609.52,-213.23 619.04,-208.58 614.06,-203.66"/>
<text text-anchor="start" x="1042" y="-132.38" font-family="arial" font-size="14.00" fill="#377eb8">true</text>
</g>
<!-- ID_31_ct0_st0124&#45;&gt;ID_31_ct0_st024 -->
<g id="edge34" class="edge">
<title>ID_31_ct0_st0124&#45;&gt;ID_31_ct0_st024</title>
<path fill="none" stroke="black" d="M1628.76,-321.62C1655.43,-331.48 1686.21,-342.85 1713.73,-353.02"/>
<polygon fill="black" stroke="black" points="1712.73,-356.38 1723.32,-356.57 1715.16,-349.82 1712.73,-356.38"/>
<text text-anchor="start" x="1663" y="-346.38" font-family="arial" font-size="14.00" fill="#377eb8">true</text>
</g>
<!-- ID_31_ct0_st0124&#45;&gt;ID_31_ct0_st0124 -->
<g id="edge37" class="edge">
<title>ID_31_ct0_st0124&#45;&gt;ID_31_ct0_st0124</title>
<path fill="none" stroke="black" d="M1538.71,-321.76C1537.76,-331.49 1544.86,-339.58 1560,-339.58 1569.46,-339.58 1575.78,-336.42 1578.96,-331.67"/>
<polygon fill="black" stroke="black" points="1582.41,-332.29 1581.29,-321.76 1575.6,-330.69 1582.41,-332.29"/>
<text text-anchor="start" x="1548" y="-343.38" font-family="arial" font-size="14.00" fill="#377eb8">true</text>
</g>
</g>
</svg>
