<?xml version="1.0" encoding="UTF-8" standalone="no"?>
<!DOCTYPE svg PUBLIC "-//W3C//DTD SVG 1.1//EN"
 "http://www.w3.org/Graphics/SVG/1.1/DTD/svg11.dtd">
<!-- Generated by graphviz version 2.43.0 (0)
 -->
<!-- Title: G Pages: 1 -->
<svg width="1500pt" height="452pt"
 viewBox="0.00 0.00 1500.00 452.00" xmlns="http://www.w3.org/2000/svg" xmlns:xlink="http://www.w3.org/1999/xlink">
<g id="graph0" class="graph" transform="scale(1 1) rotate(0) translate(4 448)">
<title>G</title>
<polygon fill="white" stroke="transparent" points="-4,4 -4,-448 1496,-448 1496,4 -4,4"/>
<!-- _ID_109_ct0_st0 -->
<!-- ID_109_ct0_st0 -->
<g id="node2" class="node">
<title>ID_109_ct0_st0</title>
<polygon fill="none" stroke="black" points="280.5,-296 166.5,-296 166.5,-246 280.5,-246 280.5,-296"/>
<text text-anchor="start" x="174.5" y="-281.8" font-family="arial" font-weight="bold" font-size="14.00">ID_109_ct0_st0</text>
<text text-anchor="start" x="216.5" y="-267.8" font-family="arial" font-size="14.00" fill="#984ea3">!R</text>
<text text-anchor="start" x="211.5" y="-253.8" font-family="arial" font-size="14.00" fill="#ff7f00">true</text>
</g>
<!-- _ID_109_ct0_st0&#45;&gt;ID_109_ct0_st0 -->
<g id="edge1" class="edge">
<title>_ID_109_ct0_st0&#45;&gt;ID_109_ct0_st0</title>
<path fill="none" stroke="black" d="M119.44,-271C131.39,-271 144.03,-271 156.2,-271"/>
<polygon fill="black" stroke="black" points="156.3,-274.5 166.3,-271 156.3,-267.5 156.3,-274.5"/>
</g>
<!-- ID_109_ct0_st0&#45;&gt;ID_109_ct0_st0 -->
<g id="edge3" class="edge">
<title>ID_109_ct0_st0&#45;&gt;ID_109_ct0_st0</title>
<path fill="none" stroke="black" d="M207.44,-296.18C206.72,-305.91 212.08,-314 223.5,-314 230.64,-314 235.41,-310.84 237.81,-306.09"/>
<polygon fill="black" stroke="black" points="241.26,-306.63 239.56,-296.18 234.37,-305.41 241.26,-306.63"/>
<text text-anchor="start" x="211.5" y="-317.8" font-family="arial" font-size="14.00" fill="#377eb8">true</text>
</g>
<!-- ID_109_ct0_st01X -->
<g id="node4" class="node">
<title>ID_109_ct0_st01X</title>
<polygon fill="none" stroke="black" points="532,-217 401,-217 401,-167 532,-167 532,-217"/>
<text text-anchor="start" x="409" y="-202.8" font-family="arial" font-weight="bold" font-size="14.00">ID_109_ct0_st01X</text>
<text text-anchor="start" x="461.5" y="-188.8" font-family="arial" font-size="14.00" fill="#984ea3">R</text>
<text text-anchor="start" x="443.5" y="-174.8" font-family="arial" font-size="14.00" fill="#ff7f00">c0 &lt;= 5</text>
</g>
<!-- ID_109_ct0_st0&#45;&gt;ID_109_ct0_st01X -->
<g id="edge4" class="edge">
<title>ID_109_ct0_st0&#45;&gt;ID_109_ct0_st01X</title>
<path fill="none" stroke="black" d="M248.22,-245.75C263.91,-230.81 285.82,-213.08 309,-204 334.53,-193.99 364.18,-190 390.76,-188.84"/>
<polygon fill="black" stroke="black" points="390.89,-192.34 400.78,-188.53 390.67,-185.34 390.89,-192.34"/>
<text text-anchor="start" x="334" y="-222.8" font-family="arial" font-size="14.00" fill="#377eb8">true</text>
<text text-anchor="start" x="327" y="-207.8" font-family="arial" font-size="14.00">c0 :=0</text>
</g>
<!-- _ID_109_ct0_st01X -->
<!-- _ID_109_ct0_st01X&#45;&gt;ID_109_ct0_st01X -->
<g id="edge2" class="edge">
<title>_ID_109_ct0_st01X&#45;&gt;ID_109_ct0_st01X</title>
<path fill="none" stroke="black" d="M249.84,-36.29C290.85,-65.9 372.24,-124.67 422.47,-160.93"/>
<polygon fill="black" stroke="black" points="420.7,-163.97 430.86,-166.99 424.8,-158.3 420.7,-163.97"/>
</g>
<!-- ID_109_ct0_st01X&#45;&gt;ID_109_ct0_st0 -->
<g id="edge5" class="edge">
<title>ID_109_ct0_st01X&#45;&gt;ID_109_ct0_st0</title>
<path fill="none" stroke="black" d="M420.99,-217.13C408.92,-223.26 395.68,-229.37 383,-234 353.44,-244.79 319.6,-253.2 290.8,-259.25"/>
<polygon fill="black" stroke="black" points="289.93,-255.86 280.84,-261.29 291.34,-262.71 289.93,-255.86"/>
<text text-anchor="start" x="309" y="-257.8" font-family="arial" font-size="14.00" fill="#377eb8">(S&#39; || c0 &lt; 5)</text>
</g>
<!-- ID_109_ct0_st01X&#45;&gt;ID_109_ct0_st01X -->
<g id="edge7" class="edge">
<title>ID_109_ct0_st01X&#45;&gt;ID_109_ct0_st01X</title>
<path fill="none" stroke="black" d="M446.7,-217.18C445.82,-226.91 452.42,-235 466.5,-235 475.3,-235 481.18,-231.84 484.13,-227.09"/>
<polygon fill="black" stroke="black" points="487.58,-227.69 486.3,-217.18 480.74,-226.2 487.58,-227.69"/>
<text text-anchor="start" x="447.5" y="-238.8" font-family="arial" font-size="14.00" fill="#377eb8">c0 &lt; 5</text>
</g>
<!-- ID_109_ct0_st02W -->
<g id="node5" class="node">
<title>ID_109_ct0_st02W</title>
<polygon fill="none" stroke="black" points="1258,-256 1123,-256 1123,-206 1258,-206 1258,-256"/>
<text text-anchor="start" x="1131" y="-241.8" font-family="arial" font-weight="bold" font-size="14.00">ID_109_ct0_st02W</text>
<text text-anchor="start" x="1160" y="-227.8" font-family="arial" font-size="14.00" fill="#984ea3">(!R &amp;&amp; !S)</text>
<text text-anchor="start" x="1163.5" y="-213.8" font-family="arial" font-size="14.00" fill="#ff7f00">c1 &lt;= 10</text>
</g>
<!-- ID_109_ct0_st01X&#45;&gt;ID_109_ct0_st02W -->
<g id="edge6" class="edge">
<title>ID_109_ct0_st01X&#45;&gt;ID_109_ct0_st02W</title>
<path fill="none" stroke="black" d="M532.08,-169.83C538.1,-168.07 544.14,-166.43 550,-165 648.45,-140.95 673.99,-136.25 775,-128 896.4,-118.08 1084.85,-157.62 1105,-166 1123.74,-173.8 1141.94,-186.85 1156.61,-199.22"/>
<polygon fill="black" stroke="black" points="1154.54,-202.06 1164.38,-205.98 1159.14,-196.78 1154.54,-202.06"/>
<text text-anchor="start" x="775" y="-146.8" font-family="arial" font-size="14.00" fill="#377eb8">c0 &gt;= 5</text>
<text text-anchor="start" x="779" y="-131.8" font-family="arial" font-size="14.00">c1 :=0</text>
</g>
<!-- ID_109_ct0_st01 -->
<g id="node6" class="node">
<title>ID_109_ct0_st01</title>
<polygon fill="none" stroke="black" points="961,-330 839,-330 839,-280 961,-280 961,-330"/>
<text text-anchor="start" x="847" y="-315.8" font-family="arial" font-weight="bold" font-size="14.00">ID_109_ct0_st01</text>
<text text-anchor="start" x="873" y="-301.8" font-family="arial" font-size="14.00" fill="#984ea3">(R &amp;&amp; S)</text>
<text text-anchor="start" x="888" y="-287.8" font-family="arial" font-size="14.00" fill="#ff7f00">true</text>
</g>
<!-- ID_109_ct0_st01X&#45;&gt;ID_109_ct0_st01 -->
<g id="edge8" class="edge">
<title>ID_109_ct0_st01X&#45;&gt;ID_109_ct0_st01</title>
<path fill="none" stroke="black" d="M532.34,-193.48C621.47,-196.69 775.95,-206.86 821,-239 833.29,-247.77 828.65,-258.36 837.81,-272.03"/>
<polygon fill="black" stroke="black" points="835.38,-274.58 844.52,-279.94 840.72,-270.05 835.38,-274.58"/>
<text text-anchor="start" x="662.5" y="-218.8" font-family="arial" font-size="14.00" fill="#377eb8">c0 &gt;= 5</text>
</g>
<!-- ID_109_ct0_st012W -->
<g id="node7" class="node">
<title>ID_109_ct0_st012W</title>
<polygon fill="none" stroke="black" points="757,-357 614,-357 614,-307 757,-307 757,-357"/>
<text text-anchor="start" x="622" y="-342.8" font-family="arial" font-weight="bold" font-size="14.00">ID_109_ct0_st012W</text>
<text text-anchor="start" x="656.5" y="-328.8" font-family="arial" font-size="14.00" fill="#984ea3">(R &amp;&amp; !S)</text>
<text text-anchor="start" x="658.5" y="-314.8" font-family="arial" font-size="14.00" fill="#ff7f00">c1 &lt;= 10</text>
</g>
<!-- ID_109_ct0_st01X&#45;&gt;ID_109_ct0_st012W -->
<g id="edge9" class="edge">
<title>ID_109_ct0_st01X&#45;&gt;ID_109_ct0_st012W</title>
<path fill="none" stroke="black" d="M532.05,-208.51C553.43,-215.66 576.67,-225.35 596,-238 620.89,-254.29 643.76,-278.96 660.01,-298.93"/>
<polygon fill="black" stroke="black" points="657.37,-301.24 666.34,-306.89 662.85,-296.88 657.37,-301.24"/>
<text text-anchor="start" x="550" y="-256.8" font-family="arial" font-size="14.00" fill="#377eb8">c0 &gt;= 5</text>
<text text-anchor="start" x="554" y="-241.8" font-family="arial" font-size="14.00">c1 :=0</text>
</g>
<!-- ID_109_ct0_st02W&#45;&gt;ID_109_ct0_st0 -->
<g id="edge14" class="edge">
<title>ID_109_ct0_st02W&#45;&gt;ID_109_ct0_st0</title>
<path fill="none" stroke="black" d="M1171.64,-205.87C1155.92,-185.11 1131.45,-155.91 1105,-136 1052.15,-96.21 937.32,-43 901,-43 465.5,-43 465.5,-43 465.5,-43 354.29,-43 273.74,-172.71 240.86,-236.46"/>
<polygon fill="black" stroke="black" points="237.56,-235.23 236.18,-245.73 243.81,-238.38 237.56,-235.23"/>
<text text-anchor="start" x="679" y="-46.8" font-family="arial" font-size="14.00" fill="#377eb8">S&#39;</text>
</g>
<!-- ID_109_ct0_st02W&#45;&gt;ID_109_ct0_st01X -->
<g id="edge16" class="edge">
<title>ID_109_ct0_st02W&#45;&gt;ID_109_ct0_st01X</title>
<path fill="none" stroke="black" d="M1122.82,-220.38C1049.18,-209.23 926.99,-192.45 821,-186 800.59,-184.76 795.44,-185.8 775,-186 695.59,-186.77 604.67,-188.67 542.41,-190.13"/>
<polygon fill="black" stroke="black" points="542.2,-186.63 532.28,-190.37 542.36,-193.63 542.2,-186.63"/>
<text text-anchor="start" x="791.5" y="-204.8" font-family="arial" font-size="14.00" fill="#377eb8">S&#39;</text>
<text text-anchor="start" x="779" y="-189.8" font-family="arial" font-size="14.00">c0 :=0</text>
</g>
<!-- ID_109_ct0_st02W&#45;&gt;ID_109_ct0_st02W -->
<g id="edge15" class="edge">
<title>ID_109_ct0_st02W&#45;&gt;ID_109_ct0_st02W</title>
<path fill="none" stroke="black" d="M1170.33,-256.18C1169.43,-265.91 1176.16,-274 1190.5,-274 1199.46,-274 1205.45,-270.84 1208.46,-266.09"/>
<polygon fill="black" stroke="black" points="1211.92,-266.7 1210.67,-256.18 1205.08,-265.18 1211.92,-266.7"/>
<text text-anchor="start" x="1167.5" y="-277.8" font-family="arial" font-size="14.00" fill="#377eb8">c1 &lt; 10</text>
</g>
<!-- ID_109_ct0_st01X2W -->
<g id="node8" class="node">
<title>ID_109_ct0_st01X2W</title>
<polygon fill="none" stroke="black" points="1492,-330 1340,-330 1340,-280 1492,-280 1492,-330"/>
<text text-anchor="start" x="1348" y="-315.8" font-family="arial" font-weight="bold" font-size="14.00">ID_109_ct0_st01X2W</text>
<text text-anchor="start" x="1387" y="-301.8" font-family="arial" font-size="14.00" fill="#984ea3">(R &amp;&amp; !S)</text>
<text text-anchor="start" x="1349" y="-287.8" font-family="arial" font-size="14.00" fill="#ff7f00">(c0 &lt;= 5 &amp;&amp; c1 &lt;= 10)</text>
</g>
<!-- ID_109_ct0_st02W&#45;&gt;ID_109_ct0_st01X2W -->
<g id="edge17" class="edge">
<title>ID_109_ct0_st02W&#45;&gt;ID_109_ct0_st01X2W</title>
<path fill="none" stroke="black" d="M1258.25,-253.1C1280.87,-260.59 1306.43,-269.05 1330.25,-276.94"/>
<polygon fill="black" stroke="black" points="1329.39,-280.34 1339.98,-280.16 1331.59,-273.7 1329.39,-280.34"/>
<text text-anchor="start" x="1276" y="-290.8" font-family="arial" font-size="14.00" fill="#377eb8">c1 &lt; 10</text>
<text text-anchor="start" x="1280" y="-275.8" font-family="arial" font-size="14.00">c0 :=0</text>
</g>
<!-- ID_109_ct0_st01&#45;&gt;ID_109_ct0_st0 -->
<g id="edge10" class="edge">
<title>ID_109_ct0_st01&#45;&gt;ID_109_ct0_st0</title>
<path fill="none" stroke="black" d="M838.99,-298.49C832.92,-297.94 826.84,-297.43 821,-297 628.96,-282.98 401.55,-275.62 291.21,-272.63"/>
<polygon fill="black" stroke="black" points="290.99,-269.12 280.9,-272.36 290.8,-276.12 290.99,-269.12"/>
<text text-anchor="start" x="566.5" y="-286.8" font-family="arial" font-size="14.00" fill="#377eb8">S&#39;</text>
</g>
<!-- ID_109_ct0_st01&#45;&gt;ID_109_ct0_st02W -->
<g id="edge11" class="edge">
<title>ID_109_ct0_st01&#45;&gt;ID_109_ct0_st02W</title>
<path fill="none" stroke="black" d="M961.27,-285.69C967.24,-284.01 973.22,-282.41 979,-281 1034.3,-267.49 1049.77,-271.8 1105,-258 1107.64,-257.34 1110.32,-256.64 1113.02,-255.92"/>
<polygon fill="black" stroke="black" points="1114.16,-259.23 1122.85,-253.17 1112.27,-252.49 1114.16,-259.23"/>
<text text-anchor="start" x="1030" y="-299.8" font-family="arial" font-size="14.00" fill="#377eb8">true</text>
<text text-anchor="start" x="1023" y="-284.8" font-family="arial" font-size="14.00">c1 :=0</text>
</g>
<!-- ID_109_ct0_st01&#45;&gt;ID_109_ct0_st01 -->
<g id="edge12" class="edge">
<title>ID_109_ct0_st01&#45;&gt;ID_109_ct0_st01</title>
<path fill="none" stroke="black" d="M880.95,-330.18C880.1,-339.91 886.45,-348 900,-348 908.47,-348 914.12,-344.84 916.97,-340.09"/>
<polygon fill="black" stroke="black" points="920.42,-340.68 919.05,-330.18 913.57,-339.24 920.42,-340.68"/>
<text text-anchor="start" x="888" y="-351.8" font-family="arial" font-size="14.00" fill="#377eb8">true</text>
</g>
<!-- ID_109_ct0_st01&#45;&gt;ID_109_ct0_st012W -->
<g id="edge13" class="edge">
<title>ID_109_ct0_st01&#45;&gt;ID_109_ct0_st012W</title>
<path fill="none" stroke="black" d="M838.75,-320.81C832.78,-322.03 826.79,-323.13 821,-324 803.79,-326.59 785.22,-328.35 767.54,-329.54"/>
<polygon fill="black" stroke="black" points="767.01,-326.06 757.25,-330.18 767.45,-333.05 767.01,-326.06"/>
<text text-anchor="start" x="786" y="-346.8" font-family="arial" font-size="14.00" fill="#377eb8">true</text>
<text text-anchor="start" x="779" y="-331.8" font-family="arial" font-size="14.00">c1 :=0</text>
</g>
<!-- ID_109_ct0_st012W&#45;&gt;ID_109_ct0_st0 -->
<g id="edge24" class="edge">
<title>ID_109_ct0_st012W&#45;&gt;ID_109_ct0_st0</title>
<path fill="none" stroke="black" d="M613.68,-332.95C537.49,-332.53 413.23,-327.68 309,-304 302.85,-302.6 296.56,-300.84 290.32,-298.85"/>
<polygon fill="black" stroke="black" points="291.18,-295.45 280.59,-295.57 288.94,-302.08 291.18,-295.45"/>
<text text-anchor="start" x="460" y="-333.8" font-family="arial" font-size="14.00" fill="#377eb8">S&#39;</text>
</g>
<!-- ID_109_ct0_st012W&#45;&gt;ID_109_ct0_st02W -->
<g id="edge25" class="edge">
<title>ID_109_ct0_st012W&#45;&gt;ID_109_ct0_st02W</title>
<path fill="none" stroke="black" d="M725.87,-306.98C755.69,-289.4 798.34,-267.11 839,-256 930.71,-230.94 1040.64,-227.12 1112.63,-227.98"/>
<polygon fill="black" stroke="black" points="1112.92,-231.48 1122.97,-228.13 1113.03,-224.48 1112.92,-231.48"/>
<text text-anchor="start" x="877" y="-259.8" font-family="arial" font-size="14.00" fill="#377eb8">c1 &lt; 10</text>
</g>
<!-- ID_109_ct0_st012W&#45;&gt;ID_109_ct0_st01 -->
<g id="edge26" class="edge">
<title>ID_109_ct0_st012W&#45;&gt;ID_109_ct0_st01</title>
<path fill="none" stroke="black" d="M757.08,-308.45C763.09,-307.06 769.12,-305.88 775,-305 792.27,-302.42 811.03,-301.48 828.62,-301.39"/>
<polygon fill="black" stroke="black" points="828.8,-304.89 838.82,-301.44 828.83,-297.89 828.8,-304.89"/>
<text text-anchor="start" x="786" y="-308.8" font-family="arial" font-size="14.00" fill="#377eb8">true</text>
</g>
<!-- ID_109_ct0_st012W&#45;&gt;ID_109_ct0_st012W -->
<g id="edge27" class="edge">
<title>ID_109_ct0_st012W&#45;&gt;ID_109_ct0_st012W</title>
<path fill="none" stroke="black" d="M664.58,-357.18C663.65,-366.91 670.62,-375 685.5,-375 694.8,-375 701.01,-371.84 704.13,-367.09"/>
<polygon fill="black" stroke="black" points="707.58,-367.71 706.42,-357.18 700.76,-366.13 707.58,-367.71"/>
<text text-anchor="start" x="662.5" y="-378.8" font-family="arial" font-size="14.00" fill="#377eb8">c1 &lt; 10</text>
</g>
<!-- ID_109_ct0_st01X2W&#45;&gt;ID_109_ct0_st0 -->
<g id="edge18" class="edge">
<title>ID_109_ct0_st01X2W&#45;&gt;ID_109_ct0_st0</title>
<path fill="none" stroke="black" d="M1390.02,-330.09C1351.15,-366.33 1272.26,-429 1191.5,-429 465.5,-429 465.5,-429 465.5,-429 374.93,-429 291.94,-349.99 251.1,-303.72"/>
<polygon fill="black" stroke="black" points="253.64,-301.3 244.44,-296.04 248.35,-305.88 253.64,-301.3"/>
<text text-anchor="start" x="791.5" y="-432.8" font-family="arial" font-size="14.00" fill="#377eb8">S&#39;</text>
</g>
<!-- ID_109_ct0_st01X2W&#45;&gt;ID_109_ct0_st01X -->
<g id="edge20" class="edge">
<title>ID_109_ct0_st01X2W&#45;&gt;ID_109_ct0_st01X</title>
<path fill="none" stroke="black" d="M1403.71,-279.8C1376.26,-222.82 1300.23,-89 1191.5,-89 684.5,-89 684.5,-89 684.5,-89 616.81,-89 547.72,-130.41 506.22,-160.71"/>
<polygon fill="black" stroke="black" points="503.97,-158.02 498.04,-166.8 508.15,-163.64 503.97,-158.02"/>
<text text-anchor="start" x="857.5" y="-92.8" font-family="arial" font-size="14.00" fill="#377eb8">(S&#39; &amp;&amp; c0 &lt; 5)</text>
</g>
<!-- ID_109_ct0_st01X2W&#45;&gt;ID_109_ct0_st02W -->
<g id="edge19" class="edge">
<title>ID_109_ct0_st01X2W&#45;&gt;ID_109_ct0_st02W</title>
<path fill="none" stroke="black" d="M1387.54,-279.79C1370.12,-265.41 1346.33,-248.59 1322,-240 1305.18,-234.06 1286.41,-230.92 1268.45,-229.42"/>
<polygon fill="black" stroke="black" points="1268.5,-225.91 1258.29,-228.73 1268.03,-232.9 1268.5,-225.91"/>
<text text-anchor="start" x="1276" y="-243.8" font-family="arial" font-size="14.00" fill="#377eb8">c1 &lt; 10</text>
</g>
<!-- ID_109_ct0_st01X2W&#45;&gt;ID_109_ct0_st01 -->
<g id="edge22" class="edge">
<title>ID_109_ct0_st01X2W&#45;&gt;ID_109_ct0_st01</title>
<path fill="none" stroke="black" d="M1339.75,-308.42C1252.82,-311.81 1105.52,-315.86 979,-311 976.45,-310.9 973.85,-310.79 971.22,-310.66"/>
<polygon fill="black" stroke="black" points="971.2,-307.15 961.02,-310.08 970.81,-314.14 971.2,-307.15"/>
<text text-anchor="start" x="1167.5" y="-316.8" font-family="arial" font-size="14.00" fill="#377eb8">c0 &gt;= 5</text>
</g>
<!-- ID_109_ct0_st01X2W&#45;&gt;ID_109_ct0_st012W -->
<g id="edge23" class="edge">
<title>ID_109_ct0_st01X2W&#45;&gt;ID_109_ct0_st012W</title>
<path fill="none" stroke="black" d="M1339.7,-323.12C1229.86,-347.42 1019.17,-385.99 839,-372 810.3,-369.77 802.96,-368.87 775,-362 772.19,-361.31 769.35,-360.57 766.49,-359.79"/>
<polygon fill="black" stroke="black" points="767.28,-356.38 756.7,-357.01 765.37,-363.11 767.28,-356.38"/>
<text text-anchor="start" x="979" y="-376.8" font-family="arial" font-size="14.00" fill="#377eb8">(c0 &gt;= 5 &amp;&amp; c1 &lt; 10)</text>
</g>
<!-- ID_109_ct0_st01X2W&#45;&gt;ID_109_ct0_st01X2W -->
<g id="edge21" class="edge">
<title>ID_109_ct0_st01X2W&#45;&gt;ID_109_ct0_st01X2W</title>
<path fill="none" stroke="black" d="M1394.33,-330.18C1393.37,-339.91 1400.59,-348 1416,-348 1425.63,-348 1432.06,-344.84 1435.3,-340.09"/>
<polygon fill="black" stroke="black" points="1438.75,-340.72 1437.67,-330.18 1431.94,-339.09 1438.75,-340.72"/>
<text text-anchor="start" x="1357" y="-351.8" font-family="arial" font-size="14.00" fill="#377eb8">(c0 &lt; 5 &amp;&amp; c1 &lt; 10)</text>
</g>
</g>
</svg>
