<?xml version="1.0" encoding="UTF-8" standalone="no"?>
<!DOCTYPE svg PUBLIC "-//W3C//DTD SVG 1.1//EN"
 "http://www.w3.org/Graphics/SVG/1.1/DTD/svg11.dtd">
<!-- Generated by graphviz version 2.43.0 (0)
 -->
<!-- Title: G Pages: 1 -->
<svg width="1060pt" height="319pt"
 viewBox="0.00 0.00 1060.00 319.00" xmlns="http://www.w3.org/2000/svg" xmlns:xlink="http://www.w3.org/1999/xlink">
<g id="graph0" class="graph" transform="scale(1 1) rotate(0) translate(4 315)">
<title>G</title>
<polygon fill="white" stroke="transparent" points="-4,4 -4,-315 1056,-315 1056,4 -4,4"/>
<!-- _ID_17_ct0_st -->
<!-- ID_17_ct0_st -->
<g id="node2" class="node">
<title>ID_17_ct0_st</title>
<polygon fill="none" stroke="black" points="1052,-191 953,-191 953,-141 1052,-141 1052,-191"/>
<text text-anchor="start" x="961" y="-176.8" font-family="arial" font-weight="bold" font-size="14.00">ID_17_ct0_st</text>
<text text-anchor="start" x="990.5" y="-162.8" font-family="arial" font-size="14.00" fill="#984ea3">true</text>
<text text-anchor="start" x="990.5" y="-148.8" font-family="arial" font-size="14.00" fill="#ff7f00">true</text>
</g>
<!-- _ID_17_ct0_st&#45;&gt;ID_17_ct0_st -->
<g id="edge1" class="edge">
<title>_ID_17_ct0_st&#45;&gt;ID_17_ct0_st</title>
<path fill="none" stroke="black" d="M879.61,-284.93C898.3,-280.18 918.81,-272.71 935,-261 956.51,-245.45 973.49,-220.73 984.92,-200.4"/>
<polygon fill="black" stroke="black" points="988.1,-201.88 989.77,-191.42 981.94,-198.55 988.1,-201.88"/>
</g>
<!-- ID_17_ct0_st&#45;&gt;ID_17_ct0_st -->
<g id="edge4" class="edge">
<title>ID_17_ct0_st&#45;&gt;ID_17_ct0_st</title>
<path fill="none" stroke="black" d="M988.68,-191.18C988.06,-200.91 992.67,-209 1002.5,-209 1008.64,-209 1012.75,-205.84 1014.81,-201.09"/>
<polygon fill="black" stroke="black" points="1018.27,-201.59 1016.32,-191.18 1011.35,-200.53 1018.27,-201.59"/>
<text text-anchor="start" x="990.5" y="-212.8" font-family="arial" font-size="14.00" fill="#377eb8">true</text>
</g>
<!-- _ID_17_ct0_st0 -->
<!-- ID_17_ct0_st0 -->
<g id="node4" class="node">
<title>ID_17_ct0_st0</title>
<polygon fill="none" stroke="black" points="464,-140 357,-140 357,-90 464,-90 464,-140"/>
<text text-anchor="start" x="365" y="-125.8" font-family="arial" font-weight="bold" font-size="14.00">ID_17_ct0_st0</text>
<text text-anchor="start" x="380" y="-111.8" font-family="arial" font-size="14.00" fill="#984ea3">(!P &amp;&amp; !R)</text>
<text text-anchor="start" x="398.5" y="-97.8" font-family="arial" font-size="14.00" fill="#ff7f00">true</text>
</g>
<!-- _ID_17_ct0_st0&#45;&gt;ID_17_ct0_st0 -->
<g id="edge2" class="edge">
<title>_ID_17_ct0_st0&#45;&gt;ID_17_ct0_st0</title>
<path fill="none" stroke="black" d="M288.57,-115C306.99,-115 327.7,-115 346.71,-115"/>
<polygon fill="black" stroke="black" points="346.77,-118.5 356.77,-115 346.77,-111.5 346.77,-118.5"/>
</g>
<!-- ID_17_ct0_st0&#45;&gt;ID_17_ct0_st -->
<g id="edge5" class="edge">
<title>ID_17_ct0_st0&#45;&gt;ID_17_ct0_st</title>
<path fill="none" stroke="black" d="M464.24,-120.27C470.23,-120.86 476.25,-121.45 482,-122 601.52,-133.49 631.35,-136.9 751,-147 816.66,-152.54 892.08,-158.16 942.86,-161.83"/>
<polygon fill="black" stroke="black" points="942.76,-165.34 952.99,-162.57 943.27,-158.35 942.76,-165.34"/>
<text text-anchor="start" x="703.5" y="-149.8" font-family="arial" font-size="14.00" fill="#377eb8">P&#39;</text>
</g>
<!-- ID_17_ct0_st0&#45;&gt;ID_17_ct0_st0 -->
<g id="edge6" class="edge">
<title>ID_17_ct0_st0&#45;&gt;ID_17_ct0_st0</title>
<path fill="none" stroke="black" d="M395.19,-140.18C394.5,-149.91 399.61,-158 410.5,-158 417.31,-158 421.85,-154.84 424.14,-150.09"/>
<polygon fill="black" stroke="black" points="427.6,-150.62 425.81,-140.18 420.7,-149.45 427.6,-150.62"/>
<text text-anchor="start" x="398.5" y="-161.8" font-family="arial" font-size="14.00" fill="#377eb8">true</text>
</g>
<!-- ID_17_ct0_st01X -->
<g id="node7" class="node">
<title>ID_17_ct0_st01X</title>
<polygon fill="none" stroke="black" points="669,-50 546,-50 546,0 669,0 669,-50"/>
<text text-anchor="start" x="554" y="-35.8" font-family="arial" font-weight="bold" font-size="14.00">ID_17_ct0_st01X</text>
<text text-anchor="start" x="578.5" y="-21.8" font-family="arial" font-size="14.00" fill="#984ea3">(!P &amp;&amp; R)</text>
<text text-anchor="start" x="584.5" y="-7.8" font-family="arial" font-size="14.00" fill="#ff7f00">c0 &lt;= 5</text>
</g>
<!-- ID_17_ct0_st0&#45;&gt;ID_17_ct0_st01X -->
<g id="edge7" class="edge">
<title>ID_17_ct0_st0&#45;&gt;ID_17_ct0_st01X</title>
<path fill="none" stroke="black" d="M453.51,-89.95C462.77,-84.77 472.62,-79.52 482,-75 499.42,-66.61 518.64,-58.4 536.65,-51.14"/>
<polygon fill="black" stroke="black" points="537.96,-54.39 545.95,-47.43 535.36,-47.88 537.96,-54.39"/>
<text text-anchor="start" x="493" y="-93.8" font-family="arial" font-size="14.00" fill="#377eb8">true</text>
<text text-anchor="start" x="486" y="-78.8" font-family="arial" font-size="14.00">c0 :=0</text>
</g>
<!-- _ID_17_ct0_st01W -->
<!-- ID_17_ct0_st01W -->
<g id="node6" class="node">
<title>ID_17_ct0_st01W</title>
<polygon fill="none" stroke="black" points="297,-226 169,-226 169,-176 297,-176 297,-226"/>
<text text-anchor="start" x="177" y="-211.8" font-family="arial" font-weight="bold" font-size="14.00">ID_17_ct0_st01W</text>
<text text-anchor="start" x="204" y="-197.8" font-family="arial" font-size="14.00" fill="#984ea3">(!P &amp;&amp; R)</text>
<text text-anchor="start" x="210" y="-183.8" font-family="arial" font-size="14.00" fill="#ff7f00">c0 &lt;= 5</text>
</g>
<!-- _ID_17_ct0_st01W&#45;&gt;ID_17_ct0_st01W -->
<g id="edge3" class="edge">
<title>_ID_17_ct0_st01W&#45;&gt;ID_17_ct0_st01W</title>
<path fill="none" stroke="black" d="M132.21,-201C140.89,-201 149.83,-201 158.63,-201"/>
<polygon fill="black" stroke="black" points="158.88,-204.5 168.88,-201 158.88,-197.5 158.88,-204.5"/>
</g>
<!-- ID_17_ct0_st01W&#45;&gt;ID_17_ct0_st -->
<g id="edge8" class="edge">
<title>ID_17_ct0_st01W&#45;&gt;ID_17_ct0_st</title>
<path fill="none" stroke="black" d="M297.14,-225.88C330.1,-236.72 371.39,-247 409.5,-247 409.5,-247 409.5,-247 828.5,-247 877.51,-247 927.59,-220 961.17,-197.18"/>
<polygon fill="black" stroke="black" points="963.57,-199.78 969.77,-191.18 959.56,-194.04 963.57,-199.78"/>
<text text-anchor="start" x="601" y="-250.8" font-family="arial" font-size="14.00" fill="#377eb8">P&#39;</text>
</g>
<!-- ID_17_ct0_st01W&#45;&gt;ID_17_ct0_st0 -->
<g id="edge9" class="edge">
<title>ID_17_ct0_st01W&#45;&gt;ID_17_ct0_st0</title>
<path fill="none" stroke="black" d="M285.23,-175.89C305.24,-166.09 328.33,-154.78 349.13,-144.58"/>
<polygon fill="black" stroke="black" points="350.76,-147.68 358.2,-140.14 347.68,-141.39 350.76,-147.68"/>
<text text-anchor="start" x="315" y="-164.8" font-family="arial" font-size="14.00" fill="#377eb8">true</text>
</g>
<!-- ID_17_ct0_st01W&#45;&gt;ID_17_ct0_st01W -->
<g id="edge10" class="edge">
<title>ID_17_ct0_st01W&#45;&gt;ID_17_ct0_st01W</title>
<path fill="none" stroke="black" d="M217.69,-226.18C217,-235.91 222.11,-244 233,-244 239.81,-244 244.35,-240.84 246.64,-236.09"/>
<polygon fill="black" stroke="black" points="250.1,-236.62 248.31,-226.18 243.2,-235.45 250.1,-236.62"/>
<text text-anchor="start" x="214" y="-247.8" font-family="arial" font-size="14.00" fill="#377eb8">c0 &lt; 5</text>
</g>
<!-- ID_17_ct0_st01 -->
<g id="node8" class="node">
<title>ID_17_ct0_st01</title>
<polygon fill="none" stroke="black" points="904,-105 751,-105 751,-55 904,-55 904,-105"/>
<text text-anchor="start" x="778.5" y="-90.8" font-family="arial" font-weight="bold" font-size="14.00">ID_17_ct0_st01</text>
<text text-anchor="start" x="759" y="-76.8" font-family="arial" font-size="14.00" fill="#984ea3">(!P &amp;&amp; (R &amp;&amp; (T || !S)))</text>
<text text-anchor="start" x="815.5" y="-62.8" font-family="arial" font-size="14.00" fill="#ff7f00">true</text>
</g>
<!-- ID_17_ct0_st01W&#45;&gt;ID_17_ct0_st01 -->
<g id="edge11" class="edge">
<title>ID_17_ct0_st01W&#45;&gt;ID_17_ct0_st01</title>
<path fill="none" stroke="black" d="M297.35,-209.2C395.22,-219.13 587.1,-227.53 733,-165 759.29,-153.73 783.05,-131.9 800.04,-113.18"/>
<polygon fill="black" stroke="black" points="802.92,-115.21 806.9,-105.39 797.66,-110.58 802.92,-115.21"/>
<text text-anchor="start" x="482" y="-217.8" font-family="arial" font-size="14.00" fill="#377eb8">c0 &gt;= 5</text>
</g>
<!-- ID_17_ct0_st01X&#45;&gt;ID_17_ct0_st -->
<g id="edge12" class="edge">
<title>ID_17_ct0_st01X&#45;&gt;ID_17_ct0_st</title>
<path fill="none" stroke="black" d="M669.28,-11.17C731.9,-0.23 830.49,7.53 904,-31 944.67,-52.32 972.4,-99.15 987.6,-131.63"/>
<polygon fill="black" stroke="black" points="984.43,-133.11 991.73,-140.79 990.81,-130.23 984.43,-133.11"/>
<text text-anchor="start" x="821" y="-34.8" font-family="arial" font-size="14.00" fill="#377eb8">P&#39;</text>
</g>
<!-- ID_17_ct0_st01X&#45;&gt;ID_17_ct0_st0 -->
<g id="edge13" class="edge">
<title>ID_17_ct0_st01X&#45;&gt;ID_17_ct0_st0</title>
<path fill="none" stroke="black" d="M545.76,-22.07C524.64,-23.28 501.4,-27.24 482,-37 462.14,-46.99 445.22,-65.12 432.94,-81.39"/>
<polygon fill="black" stroke="black" points="429.97,-79.52 426.95,-89.68 435.65,-83.63 429.97,-79.52"/>
<text text-anchor="start" x="493" y="-40.8" font-family="arial" font-size="14.00" fill="#377eb8">true</text>
</g>
<!-- ID_17_ct0_st01X&#45;&gt;ID_17_ct0_st01X -->
<g id="edge14" class="edge">
<title>ID_17_ct0_st01X&#45;&gt;ID_17_ct0_st01X</title>
<path fill="none" stroke="black" d="M588.45,-50.18C587.6,-59.91 593.95,-68 607.5,-68 615.97,-68 621.62,-64.84 624.47,-60.09"/>
<polygon fill="black" stroke="black" points="627.92,-60.68 626.55,-50.18 621.07,-59.24 627.92,-60.68"/>
<text text-anchor="start" x="588.5" y="-71.8" font-family="arial" font-size="14.00" fill="#377eb8">c0 &lt; 5</text>
</g>
<!-- ID_17_ct0_st01X&#45;&gt;ID_17_ct0_st01 -->
<g id="edge15" class="edge">
<title>ID_17_ct0_st01X&#45;&gt;ID_17_ct0_st01</title>
<path fill="none" stroke="black" d="M669.23,-40.32C691.48,-45.94 717.1,-52.4 741.12,-58.46"/>
<polygon fill="black" stroke="black" points="740.39,-61.88 750.94,-60.94 742.1,-55.1 740.39,-61.88"/>
<text text-anchor="start" x="687" y="-59.8" font-family="arial" font-size="14.00" fill="#377eb8">c0 &gt;= 5</text>
</g>
<!-- ID_17_ct0_st01&#45;&gt;ID_17_ct0_st -->
<g id="edge16" class="edge">
<title>ID_17_ct0_st01&#45;&gt;ID_17_ct0_st</title>
<path fill="none" stroke="black" d="M879,-105.11C899.25,-115.17 922.69,-126.82 943.61,-137.22"/>
<polygon fill="black" stroke="black" points="942.21,-140.43 952.72,-141.75 945.32,-134.17 942.21,-140.43"/>
<text text-anchor="start" x="922" y="-134.8" font-family="arial" font-size="14.00" fill="#377eb8">P&#39;</text>
</g>
<!-- ID_17_ct0_st01&#45;&gt;ID_17_ct0_st0 -->
<g id="edge17" class="edge">
<title>ID_17_ct0_st01&#45;&gt;ID_17_ct0_st0</title>
<path fill="none" stroke="black" d="M750.83,-86.38C671.5,-93.07 548.27,-103.47 474.18,-109.71"/>
<polygon fill="black" stroke="black" points="473.73,-106.24 464.06,-110.57 474.32,-113.21 473.73,-106.24"/>
<text text-anchor="start" x="595.5" y="-107.8" font-family="arial" font-size="14.00" fill="#377eb8">true</text>
</g>
<!-- ID_17_ct0_st01&#45;&gt;ID_17_ct0_st01 -->
<g id="edge18" class="edge">
<title>ID_17_ct0_st01&#45;&gt;ID_17_ct0_st01</title>
<path fill="none" stroke="black" d="M808.82,-105.18C807.99,-114.91 814.22,-123 827.5,-123 835.8,-123 841.35,-119.84 844.13,-115.09"/>
<polygon fill="black" stroke="black" points="847.59,-115.68 846.18,-105.18 840.73,-114.26 847.59,-115.68"/>
<text text-anchor="start" x="815.5" y="-126.8" font-family="arial" font-size="14.00" fill="#377eb8">true</text>
</g>
</g>
</svg>
