<?xml version="1.0" encoding="UTF-8" standalone="no"?>
<!DOCTYPE svg PUBLIC "-//W3C//DTD SVG 1.1//EN"
 "http://www.w3.org/Graphics/SVG/1.1/DTD/svg11.dtd">
<!-- Generated by graphviz version 2.43.0 (0)
 -->
<!-- Title: G Pages: 1 -->
<svg width="2262pt" height="985pt"
 viewBox="0.00 0.00 2262.00 985.00" xmlns="http://www.w3.org/2000/svg" xmlns:xlink="http://www.w3.org/1999/xlink">
<g id="graph0" class="graph" transform="scale(1 1) rotate(0) translate(4 981)">
<title>G</title>
<polygon fill="white" stroke="transparent" points="-4,4 -4,-981 2258,-981 2258,4 -4,4"/>
<!-- _ID_16_ct0_st0 -->
<!-- ID_16_ct0_st0 -->
<g id="node2" class="node">
<title>ID_16_ct0_st0</title>
<polygon fill="none" stroke="black" points="261,-669 154,-669 154,-619 261,-619 261,-669"/>
<text text-anchor="start" x="162" y="-654.8" font-family="arial" font-weight="bold" font-size="14.00">ID_16_ct0_st0</text>
<text text-anchor="start" x="201" y="-640.8" font-family="arial" font-size="14.00" fill="#984ea3">!P</text>
<text text-anchor="start" x="195.5" y="-626.8" font-family="arial" font-size="14.00" fill="#ff7f00">true</text>
</g>
<!-- _ID_16_ct0_st0&#45;&gt;ID_16_ct0_st0 -->
<g id="edge1" class="edge">
<title>_ID_16_ct0_st0&#45;&gt;ID_16_ct0_st0</title>
<path fill="none" stroke="black" d="M111.08,-644C121.62,-644 132.74,-644 143.52,-644"/>
<polygon fill="black" stroke="black" points="143.72,-647.5 153.72,-644 143.72,-640.5 143.72,-647.5"/>
</g>
<!-- ID_16_ct0_st0&#45;&gt;ID_16_ct0_st0 -->
<g id="edge5" class="edge">
<title>ID_16_ct0_st0&#45;&gt;ID_16_ct0_st0</title>
<path fill="none" stroke="black" d="M192.93,-669.18C192.28,-678.91 197.14,-687 207.5,-687 213.97,-687 218.3,-683.84 220.47,-679.09"/>
<polygon fill="black" stroke="black" points="223.94,-679.6 222.07,-669.18 217.03,-678.49 223.94,-679.6"/>
<text text-anchor="start" x="195.5" y="-690.8" font-family="arial" font-size="14.00" fill="#377eb8">true</text>
</g>
<!-- ID_16_ct0_st01 -->
<g id="node4" class="node">
<title>ID_16_ct0_st01</title>
<polygon fill="none" stroke="black" points="441,-436 327,-436 327,-386 441,-386 441,-436"/>
<text text-anchor="start" x="335" y="-421.8" font-family="arial" font-weight="bold" font-size="14.00">ID_16_ct0_st01</text>
<text text-anchor="start" x="356.5" y="-407.8" font-family="arial" font-size="14.00" fill="#984ea3">(P &amp;&amp; Q)</text>
<text text-anchor="start" x="372" y="-393.8" font-family="arial" font-size="14.00" fill="#ff7f00">true</text>
</g>
<!-- ID_16_ct0_st0&#45;&gt;ID_16_ct0_st01 -->
<g id="edge6" class="edge">
<title>ID_16_ct0_st0&#45;&gt;ID_16_ct0_st01</title>
<path fill="none" stroke="black" d="M211.92,-618.79C218.72,-578.06 237.59,-497.56 285,-450 294.08,-440.89 305.55,-433.85 317.42,-428.42"/>
<polygon fill="black" stroke="black" points="319.12,-431.5 326.99,-424.4 316.41,-425.05 319.12,-431.5"/>
<text text-anchor="start" x="285" y="-453.8" font-family="arial" font-size="14.00" fill="#377eb8">true</text>
</g>
<!-- ID_16_ct0_st012 -->
<g id="node6" class="node">
<title>ID_16_ct0_st012</title>
<polygon fill="none" stroke="black" points="2254,-672 2131,-672 2131,-622 2254,-622 2254,-672"/>
<text text-anchor="start" x="2139.5" y="-657.8" font-family="arial" font-weight="bold" font-size="14.00">ID_16_ct0_st012</text>
<text text-anchor="start" x="2139" y="-643.8" font-family="arial" font-size="14.00" fill="#984ea3">(P &amp;&amp; (!Q &amp;&amp; !R))</text>
<text text-anchor="start" x="2180.5" y="-629.8" font-family="arial" font-size="14.00" fill="#ff7f00">true</text>
</g>
<!-- ID_16_ct0_st0&#45;&gt;ID_16_ct0_st012 -->
<g id="edge7" class="edge">
<title>ID_16_ct0_st0&#45;&gt;ID_16_ct0_st012</title>
<path fill="none" stroke="black" d="M211.75,-669.37C220.48,-733.54 246.41,-899.96 285,-938 316.94,-969.48 338.16,-962 383,-962 383,-962 383,-962 1992.5,-962 2047.11,-962 2073.12,-975.3 2113,-938 2150.35,-903.07 2176.43,-751.83 2186.67,-682.26"/>
<polygon fill="black" stroke="black" points="2190.16,-682.61 2188.13,-672.22 2183.23,-681.61 2190.16,-682.61"/>
<text text-anchor="start" x="1178" y="-965.8" font-family="arial" font-size="14.00" fill="#377eb8">true</text>
</g>
<!-- ID_16_ct0_st0123W -->
<g id="node8" class="node">
<title>ID_16_ct0_st0123W</title>
<polygon fill="none" stroke="black" points="879,-649 736,-649 736,-599 879,-599 879,-649"/>
<text text-anchor="start" x="744" y="-634.8" font-family="arial" font-weight="bold" font-size="14.00">ID_16_ct0_st0123W</text>
<text text-anchor="start" x="756" y="-620.8" font-family="arial" font-size="14.00" fill="#984ea3">(P &amp;&amp; (!Q &amp;&amp; R))</text>
<text text-anchor="start" x="784.5" y="-606.8" font-family="arial" font-size="14.00" fill="#ff7f00">c0 &lt;= 5</text>
</g>
<!-- ID_16_ct0_st0&#45;&gt;ID_16_ct0_st0123W -->
<g id="edge8" class="edge">
<title>ID_16_ct0_st0&#45;&gt;ID_16_ct0_st0123W</title>
<path fill="none" stroke="black" d="M215.19,-669.05C224.89,-699.78 246.1,-750.55 285,-773 313.63,-789.53 708.17,-780.52 718,-773 741.47,-755.05 722.27,-735.16 736,-709 745.94,-690.06 760.6,-671.49 773.99,-656.56"/>
<polygon fill="black" stroke="black" points="776.65,-658.83 780.84,-649.1 771.49,-654.1 776.65,-658.83"/>
<text text-anchor="start" x="466" y="-800.8" font-family="arial" font-size="14.00" fill="#377eb8">true</text>
<text text-anchor="start" x="459" y="-785.8" font-family="arial" font-size="14.00">c0 :=0</text>
</g>
<!-- _ID_16_ct0_st01 -->
<!-- _ID_16_ct0_st01&#45;&gt;ID_16_ct0_st01 -->
<g id="edge2" class="edge">
<title>_ID_16_ct0_st01&#45;&gt;ID_16_ct0_st01</title>
<path fill="none" stroke="black" d="M216.57,-36.17C243.72,-97.31 332.07,-296.29 367.8,-376.76"/>
<polygon fill="black" stroke="black" points="364.63,-378.25 371.89,-385.97 371.03,-375.41 364.63,-378.25"/>
</g>
<!-- ID_16_ct0_st01&#45;&gt;ID_16_ct0_st0 -->
<g id="edge9" class="edge">
<title>ID_16_ct0_st01&#45;&gt;ID_16_ct0_st0</title>
<path fill="none" stroke="black" d="M350.37,-436.17C329.93,-453.03 303.97,-476.54 285,-501 258.61,-535.03 236.45,-579.44 222.88,-609.68"/>
<polygon fill="black" stroke="black" points="219.62,-608.41 218.78,-618.97 226.02,-611.23 219.62,-608.41"/>
<text text-anchor="start" x="289.5" y="-504.8" font-family="arial" font-size="14.00" fill="#377eb8">Q&#39;</text>
</g>
<!-- ID_16_ct0_st01&#45;&gt;ID_16_ct0_st01 -->
<g id="edge12" class="edge">
<title>ID_16_ct0_st01&#45;&gt;ID_16_ct0_st01</title>
<path fill="none" stroke="black" d="M367.94,-436.18C367.22,-445.91 372.58,-454 384,-454 391.14,-454 395.91,-450.84 398.31,-446.09"/>
<polygon fill="black" stroke="black" points="401.76,-446.63 400.06,-436.18 394.87,-445.41 401.76,-446.63"/>
<text text-anchor="start" x="372" y="-457.8" font-family="arial" font-size="14.00" fill="#377eb8">true</text>
</g>
<!-- ID_16_ct0_st01&#45;&gt;ID_16_ct0_st012 -->
<g id="edge13" class="edge">
<title>ID_16_ct0_st01&#45;&gt;ID_16_ct0_st012</title>
<path fill="none" stroke="black" d="M396,-385.64C408.44,-359.04 430.71,-317.15 459,-288 479.61,-266.77 487.13,-261.92 515,-252 649.18,-204.24 950.93,-178 1463,-178 1463,-178 1463,-178 1992.5,-178 2086.75,-178 2162,-503.06 2184.56,-611.94"/>
<polygon fill="black" stroke="black" points="2181.14,-612.69 2186.57,-621.78 2187.99,-611.29 2181.14,-612.69"/>
<text text-anchor="start" x="1309.5" y="-184.8" font-family="arial" font-size="14.00" fill="#377eb8">true</text>
</g>
<!-- ID_16_ct0_st01&#45;&gt;ID_16_ct0_st0123W -->
<g id="edge14" class="edge">
<title>ID_16_ct0_st01&#45;&gt;ID_16_ct0_st0123W</title>
<path fill="none" stroke="black" d="M401.6,-436.19C415.31,-455.63 436.17,-482.26 459,-501 480.83,-518.91 488.8,-520.48 515,-531 577.94,-556.28 600.89,-542.57 662,-572 670.89,-576.28 671.17,-580.6 680,-585 694.48,-592.21 710.56,-598.41 726.27,-603.6"/>
<polygon fill="black" stroke="black" points="725.39,-607 735.98,-606.7 727.52,-600.33 725.39,-607"/>
<text text-anchor="start" x="576.5" y="-590.8" font-family="arial" font-size="14.00" fill="#377eb8">true</text>
<text text-anchor="start" x="569.5" y="-575.8" font-family="arial" font-size="14.00">c0 :=0</text>
</g>
<!-- ID_16_ct0_st02 -->
<g id="node9" class="node">
<title>ID_16_ct0_st02</title>
<polygon fill="none" stroke="black" points="1632,-468 1505,-468 1505,-418 1632,-418 1632,-468"/>
<text text-anchor="start" x="1519.5" y="-453.8" font-family="arial" font-weight="bold" font-size="14.00">ID_16_ct0_st02</text>
<text text-anchor="start" x="1513" y="-439.8" font-family="arial" font-size="14.00" fill="#984ea3">(!P &amp;&amp; (!Q &amp;&amp; !R))</text>
<text text-anchor="start" x="1556.5" y="-425.8" font-family="arial" font-size="14.00" fill="#ff7f00">true</text>
</g>
<!-- ID_16_ct0_st01&#45;&gt;ID_16_ct0_st02 -->
<g id="edge10" class="edge">
<title>ID_16_ct0_st01&#45;&gt;ID_16_ct0_st02</title>
<path fill="none" stroke="black" d="M414.57,-385.82C427.47,-376.06 443.23,-365.64 459,-359 512.54,-336.45 529.4,-335 587.5,-335 587.5,-335 587.5,-335 1322.5,-335 1397.34,-335 1429.31,-323.32 1487,-371 1500.45,-382.12 1493.7,-394.32 1503.84,-409.98"/>
<polygon fill="black" stroke="black" points="1501.3,-412.41 1510.33,-417.95 1506.73,-407.99 1501.3,-412.41"/>
<text text-anchor="start" x="908" y="-338.8" font-family="arial" font-size="14.00" fill="#377eb8">true</text>
</g>
<!-- ID_16_ct0_st023W -->
<g id="node10" class="node">
<title>ID_16_ct0_st023W</title>
<polygon fill="none" stroke="black" points="656,-489 521,-489 521,-439 656,-439 656,-489"/>
<text text-anchor="start" x="529" y="-474.8" font-family="arial" font-weight="bold" font-size="14.00">ID_16_ct0_st023W</text>
<text text-anchor="start" x="535" y="-460.8" font-family="arial" font-size="14.00" fill="#984ea3">(!P &amp;&amp; (!Q &amp;&amp; R))</text>
<text text-anchor="start" x="565.5" y="-446.8" font-family="arial" font-size="14.00" fill="#ff7f00">c0 &lt;= 5</text>
</g>
<!-- ID_16_ct0_st01&#45;&gt;ID_16_ct0_st023W -->
<g id="edge11" class="edge">
<title>ID_16_ct0_st01&#45;&gt;ID_16_ct0_st023W</title>
<path fill="none" stroke="black" d="M414.7,-436.14C427.49,-445.45 443.14,-454.96 459,-460 475.36,-465.2 493.48,-467.64 510.84,-468.51"/>
<polygon fill="black" stroke="black" points="510.84,-472.01 520.95,-468.84 511.07,-465.01 510.84,-472.01"/>
<text text-anchor="start" x="466" y="-485.8" font-family="arial" font-size="14.00" fill="#377eb8">true</text>
<text text-anchor="start" x="459" y="-470.8" font-family="arial" font-size="14.00">c0 :=0</text>
</g>
<!-- _ID_16_ct0_st012 -->
<!-- _ID_16_ct0_st012&#45;&gt;ID_16_ct0_st012 -->
<g id="edge3" class="edge">
<title>_ID_16_ct0_st012&#45;&gt;ID_16_ct0_st012</title>
<path fill="none" stroke="black" d="M2054.5,-872.8C2075.13,-868.34 2096.91,-860.32 2113,-846 2161.16,-803.14 2180.1,-726.91 2187.3,-682.27"/>
<polygon fill="black" stroke="black" points="2190.8,-682.58 2188.82,-672.17 2183.87,-681.54 2190.8,-682.58"/>
</g>
<!-- ID_16_ct0_st012&#45;&gt;ID_16_ct0_st0 -->
<g id="edge21" class="edge">
<title>ID_16_ct0_st012&#45;&gt;ID_16_ct0_st0</title>
<path fill="none" stroke="black" d="M2188.2,-672.04C2181.28,-716.27 2161.62,-809.29 2113,-870 2076.31,-915.81 2051.19,-924 1992.5,-924 383,-924 383,-924 383,-924 268.94,-924 226.74,-754.58 213.62,-679.31"/>
<polygon fill="black" stroke="black" points="217.06,-678.63 211.96,-669.34 210.15,-679.78 217.06,-678.63"/>
<text text-anchor="start" x="1182.5" y="-927.8" font-family="arial" font-size="14.00" fill="#377eb8">Q&#39;</text>
</g>
<!-- ID_16_ct0_st012&#45;&gt;ID_16_ct0_st01 -->
<g id="edge24" class="edge">
<title>ID_16_ct0_st012&#45;&gt;ID_16_ct0_st01</title>
<path fill="none" stroke="black" d="M2189.03,-621.62C2182.37,-559.11 2161.18,-393.45 2113,-264 2095.23,-216.26 2086.2,-205.74 2057,-164 2031.8,-127.97 2036.46,-89 1992.5,-89 1463,-89 1463,-89 1463,-89 1221.61,-89 1162.39,-124 921,-124 587.5,-124 587.5,-124 587.5,-124 465.63,-124 410.63,-298.91 392.36,-375.64"/>
<polygon fill="black" stroke="black" points="388.86,-375.25 390.03,-385.78 395.68,-376.82 388.86,-375.25"/>
<text text-anchor="start" x="1309.5" y="-107.8" font-family="arial" font-size="14.00" fill="#377eb8">true</text>
</g>
<!-- ID_16_ct0_st012&#45;&gt;ID_16_ct0_st012 -->
<g id="edge25" class="edge">
<title>ID_16_ct0_st012&#45;&gt;ID_16_ct0_st012</title>
<path fill="none" stroke="black" d="M2174.2,-672.18C2173.38,-681.91 2179.48,-690 2192.5,-690 2200.63,-690 2206.07,-686.84 2208.8,-682.09"/>
<polygon fill="black" stroke="black" points="2212.26,-682.67 2210.8,-672.18 2205.39,-681.29 2212.26,-682.67"/>
<text text-anchor="start" x="2180.5" y="-693.8" font-family="arial" font-size="14.00" fill="#377eb8">true</text>
</g>
<!-- ID_16_ct0_st012&#45;&gt;ID_16_ct0_st02 -->
<g id="edge22" class="edge">
<title>ID_16_ct0_st012&#45;&gt;ID_16_ct0_st02</title>
<path fill="none" stroke="black" d="M2130.69,-646.84C2037.56,-644.65 1855.54,-632.54 1714,-575 1682.93,-562.37 1675.54,-556.74 1650,-535 1629.45,-517.5 1609.45,-494.68 1594.52,-476.15"/>
<polygon fill="black" stroke="black" points="1597.2,-473.9 1588.25,-468.23 1591.72,-478.24 1597.2,-473.9"/>
<text text-anchor="start" x="1877" y="-629.8" font-family="arial" font-size="14.00" fill="#377eb8">true</text>
</g>
<!-- ID_16_ct0_st023X -->
<g id="node11" class="node">
<title>ID_16_ct0_st023X</title>
<polygon fill="none" stroke="black" points="2057,-430 1926,-430 1926,-380 2057,-380 2057,-430"/>
<text text-anchor="start" x="1934" y="-415.8" font-family="arial" font-weight="bold" font-size="14.00">ID_16_ct0_st023X</text>
<text text-anchor="start" x="1938" y="-401.8" font-family="arial" font-size="14.00" fill="#984ea3">(!P &amp;&amp; (!Q &amp;&amp; R))</text>
<text text-anchor="start" x="1968.5" y="-387.8" font-family="arial" font-size="14.00" fill="#ff7f00">c0 &lt;= 5</text>
</g>
<!-- ID_16_ct0_st012&#45;&gt;ID_16_ct0_st023X -->
<g id="edge23" class="edge">
<title>ID_16_ct0_st012&#45;&gt;ID_16_ct0_st023X</title>
<path fill="none" stroke="black" d="M2191.35,-621.71C2189.56,-572.85 2177.98,-465.81 2113,-415 2100.06,-404.88 2083.77,-400.01 2067.39,-398.13"/>
<polygon fill="black" stroke="black" points="2067.45,-394.63 2057.21,-397.33 2066.9,-401.61 2067.45,-394.63"/>
<text text-anchor="start" x="2082" y="-433.8" font-family="arial" font-size="14.00" fill="#377eb8">true</text>
<text text-anchor="start" x="2075" y="-418.8" font-family="arial" font-size="14.00">c0 :=0</text>
</g>
<!-- ID_16_ct0_st0123X -->
<g id="node12" class="node">
<title>ID_16_ct0_st0123X</title>
<polygon fill="none" stroke="black" points="1852,-502 1714,-502 1714,-452 1852,-452 1852,-502"/>
<text text-anchor="start" x="1722" y="-487.8" font-family="arial" font-weight="bold" font-size="14.00">ID_16_ct0_st0123X</text>
<text text-anchor="start" x="1731.5" y="-473.8" font-family="arial" font-size="14.00" fill="#984ea3">(P &amp;&amp; (!Q &amp;&amp; R))</text>
<text text-anchor="start" x="1760" y="-459.8" font-family="arial" font-size="14.00" fill="#ff7f00">c0 &lt;= 5</text>
</g>
<!-- ID_16_ct0_st012&#45;&gt;ID_16_ct0_st0123X -->
<g id="edge26" class="edge">
<title>ID_16_ct0_st012&#45;&gt;ID_16_ct0_st0123X</title>
<path fill="none" stroke="black" d="M2175.93,-621.93C2154.06,-589.46 2110.83,-534.6 2057,-514 2022.48,-500.79 1930.12,-490.04 1862.36,-483.6"/>
<polygon fill="black" stroke="black" points="1862.41,-480.09 1852.13,-482.64 1861.76,-487.06 1862.41,-480.09"/>
<text text-anchor="start" x="1979.5" y="-532.8" font-family="arial" font-size="14.00" fill="#377eb8">true</text>
<text text-anchor="start" x="1972.5" y="-517.8" font-family="arial" font-size="14.00">c0 :=0</text>
</g>
<!-- _ID_16_ct0_st0123W -->
<!-- _ID_16_ct0_st0123W&#45;&gt;ID_16_ct0_st0123W -->
<g id="edge4" class="edge">
<title>_ID_16_ct0_st0123W&#45;&gt;ID_16_ct0_st0123W</title>
<path fill="none" stroke="black" d="M662.06,-657.95C682.59,-653.12 705.05,-647.84 726.02,-642.92"/>
<polygon fill="black" stroke="black" points="726.92,-646.3 735.85,-640.6 725.32,-639.48 726.92,-646.3"/>
</g>
<!-- ID_16_ct0_st0123W&#45;&gt;ID_16_ct0_st0 -->
<g id="edge49" class="edge">
<title>ID_16_ct0_st0123W&#45;&gt;ID_16_ct0_st0</title>
<path fill="none" stroke="black" d="M768.53,-649.1C705.54,-687.75 574.86,-755.39 459,-735 392.22,-723.25 319.8,-695.13 270.09,-673.23"/>
<polygon fill="black" stroke="black" points="271.33,-669.95 260.77,-669.08 268.48,-676.35 271.33,-669.95"/>
<text text-anchor="start" x="470.5" y="-741.8" font-family="arial" font-size="14.00" fill="#377eb8">Q&#39;</text>
</g>
<!-- ID_16_ct0_st0123W&#45;&gt;ID_16_ct0_st01 -->
<g id="edge53" class="edge">
<title>ID_16_ct0_st0123W&#45;&gt;ID_16_ct0_st01</title>
<path fill="none" stroke="black" d="M735.74,-625.32C661.8,-625.55 551.58,-622.25 515,-602 453.37,-567.89 415.12,-490.69 397.17,-445.58"/>
<polygon fill="black" stroke="black" points="400.42,-444.26 393.55,-436.2 393.89,-446.79 400.42,-444.26"/>
<text text-anchor="start" x="576.5" y="-627.8" font-family="arial" font-size="14.00" fill="#377eb8">true</text>
</g>
<!-- ID_16_ct0_st0123W&#45;&gt;ID_16_ct0_st012 -->
<g id="edge54" class="edge">
<title>ID_16_ct0_st0123W&#45;&gt;ID_16_ct0_st012</title>
<path fill="none" stroke="black" d="M878.35,-649.15C884.63,-651.2 890.92,-653.19 897,-655 1230.63,-754.51 1323.85,-769 1672,-769 1672,-769 1672,-769 1992.5,-769 2060.98,-769 2125.76,-715.84 2161.89,-679.71"/>
<polygon fill="black" stroke="black" points="2164.66,-681.87 2169.15,-672.28 2159.66,-676.98 2164.66,-681.87"/>
<text text-anchor="start" x="1556.5" y="-771.8" font-family="arial" font-size="14.00" fill="#377eb8">true</text>
</g>
<!-- ID_16_ct0_st0123W&#45;&gt;ID_16_ct0_st0123W -->
<g id="edge55" class="edge">
<title>ID_16_ct0_st0123W&#45;&gt;ID_16_ct0_st0123W</title>
<path fill="none" stroke="black" d="M787.33,-649.18C786.43,-658.91 793.16,-667 807.5,-667 816.46,-667 822.45,-663.84 825.46,-659.09"/>
<polygon fill="black" stroke="black" points="828.92,-659.7 827.67,-649.18 822.08,-658.18 828.92,-659.7"/>
<text text-anchor="start" x="788.5" y="-670.8" font-family="arial" font-size="14.00" fill="#377eb8">c0 &lt; 5</text>
</g>
<!-- ID_16_ct0_st0123W&#45;&gt;ID_16_ct0_st02 -->
<g id="edge50" class="edge">
<title>ID_16_ct0_st0123W&#45;&gt;ID_16_ct0_st02</title>
<path fill="none" stroke="black" d="M848.4,-598.93C878.31,-581.25 920.84,-558.41 961,-545 1147.3,-482.79 1379.01,-457.32 1494.68,-447.91"/>
<polygon fill="black" stroke="black" points="1495.15,-451.38 1504.84,-447.1 1494.59,-444.4 1495.15,-451.38"/>
<text text-anchor="start" x="1178" y="-492.8" font-family="arial" font-size="14.00" fill="#377eb8">true</text>
</g>
<!-- ID_16_ct0_st0123W&#45;&gt;ID_16_ct0_st023W -->
<g id="edge51" class="edge">
<title>ID_16_ct0_st0123W&#45;&gt;ID_16_ct0_st023W</title>
<path fill="none" stroke="black" d="M765.54,-598.97C750.59,-589.84 733.54,-579.44 718,-570 701.13,-559.75 695.8,-558.84 680,-547 659.44,-531.59 638.17,-512.29 621.43,-496.18"/>
<polygon fill="black" stroke="black" points="623.68,-493.49 614.07,-489.03 618.8,-498.51 623.68,-493.49"/>
<text text-anchor="start" x="680" y="-573.8" font-family="arial" font-size="14.00" fill="#377eb8">c0 &lt; 5</text>
</g>
<!-- ID_16_ct0_st023 -->
<g id="node13" class="node">
<title>ID_16_ct0_st023</title>
<polygon fill="none" stroke="black" points="1423,-662 1220,-662 1220,-612 1423,-612 1423,-662"/>
<text text-anchor="start" x="1268.5" y="-647.8" font-family="arial" font-weight="bold" font-size="14.00">ID_16_ct0_st023</text>
<text text-anchor="start" x="1228" y="-633.8" font-family="arial" font-size="14.00" fill="#984ea3">(!P &amp;&amp; (!Q &amp;&amp; (R &amp;&amp; (T || !S))))</text>
<text text-anchor="start" x="1309.5" y="-619.8" font-family="arial" font-size="14.00" fill="#ff7f00">true</text>
</g>
<!-- ID_16_ct0_st0123W&#45;&gt;ID_16_ct0_st023 -->
<g id="edge52" class="edge">
<title>ID_16_ct0_st0123W&#45;&gt;ID_16_ct0_st023</title>
<path fill="none" stroke="black" d="M879.27,-636.22C904.93,-640.12 934.19,-643.95 961,-646 1067.8,-654.16 1095,-652.96 1202,-648 1204.53,-647.88 1207.09,-647.75 1209.66,-647.61"/>
<polygon fill="black" stroke="black" points="1209.93,-651.1 1219.69,-647 1209.5,-644.11 1209.93,-651.1"/>
<text text-anchor="start" x="1037.5" y="-654.8" font-family="arial" font-size="14.00" fill="#377eb8">c0 &gt;= 5</text>
</g>
<!-- ID_16_ct0_st0123 -->
<g id="node14" class="node">
<title>ID_16_ct0_st0123</title>
<polygon fill="none" stroke="black" points="1160,-604 961,-604 961,-554 1160,-554 1160,-604"/>
<text text-anchor="start" x="1004" y="-589.8" font-family="arial" font-weight="bold" font-size="14.00">ID_16_ct0_st0123</text>
<text text-anchor="start" x="969" y="-575.8" font-family="arial" font-size="14.00" fill="#984ea3">(P &amp;&amp; (!Q &amp;&amp; (R &amp;&amp; (T || !S))))</text>
<text text-anchor="start" x="1048.5" y="-561.8" font-family="arial" font-size="14.00" fill="#ff7f00">true</text>
</g>
<!-- ID_16_ct0_st0123W&#45;&gt;ID_16_ct0_st0123 -->
<g id="edge56" class="edge">
<title>ID_16_ct0_st0123W&#45;&gt;ID_16_ct0_st0123</title>
<path fill="none" stroke="black" d="M879.09,-611.35C901.39,-607.35 926.57,-602.83 950.89,-598.47"/>
<polygon fill="black" stroke="black" points="951.66,-601.89 960.89,-596.68 950.43,-595 951.66,-601.89"/>
<text text-anchor="start" x="897" y="-609.8" font-family="arial" font-size="14.00" fill="#377eb8">c0 &gt;= 5</text>
</g>
<!-- ID_16_ct0_st02&#45;&gt;ID_16_ct0_st0 -->
<g id="edge15" class="edge">
<title>ID_16_ct0_st02&#45;&gt;ID_16_ct0_st0</title>
<path fill="none" stroke="black" d="M1509.42,-417.79C1507.84,-416.28 1506.36,-414.68 1505,-413 1483.69,-386.7 1509.49,-364.3 1487,-339 1399.79,-240.89 1052.26,-170 921,-170 383,-170 383,-170 383,-170 289.45,-170 230.62,-499.27 213.62,-608.94"/>
<polygon fill="black" stroke="black" points="210.16,-608.44 212.11,-618.85 217.08,-609.49 210.16,-608.44"/>
<text text-anchor="start" x="800" y="-173.8" font-family="arial" font-size="14.00" fill="#377eb8">Q&#39;</text>
</g>
<!-- ID_16_ct0_st02&#45;&gt;ID_16_ct0_st01 -->
<g id="edge18" class="edge">
<title>ID_16_ct0_st02&#45;&gt;ID_16_ct0_st01</title>
<path fill="none" stroke="black" d="M1504.88,-424.06C1430.69,-403.33 1303.03,-373 1191,-373 587.5,-373 587.5,-373 587.5,-373 541.33,-373 490.25,-382.66 450.94,-392.24"/>
<polygon fill="black" stroke="black" points="450.06,-388.85 441.21,-394.66 451.76,-395.64 450.06,-388.85"/>
<text text-anchor="start" x="908" y="-376.8" font-family="arial" font-size="14.00" fill="#377eb8">true</text>
</g>
<!-- ID_16_ct0_st02&#45;&gt;ID_16_ct0_st012 -->
<g id="edge19" class="edge">
<title>ID_16_ct0_st02&#45;&gt;ID_16_ct0_st012</title>
<path fill="none" stroke="black" d="M1598.18,-468.09C1625.98,-491.12 1670.23,-524.53 1714,-544 1750.88,-560.41 1997.03,-609.38 2120.77,-633.41"/>
<polygon fill="black" stroke="black" points="2120.42,-636.91 2130.9,-635.37 2121.75,-630.03 2120.42,-636.91"/>
<text text-anchor="start" x="1877" y="-592.8" font-family="arial" font-size="14.00" fill="#377eb8">true</text>
</g>
<!-- ID_16_ct0_st02&#45;&gt;ID_16_ct0_st02 -->
<g id="edge16" class="edge">
<title>ID_16_ct0_st02&#45;&gt;ID_16_ct0_st02</title>
<path fill="none" stroke="black" d="M1549.08,-468.18C1548.21,-477.91 1554.69,-486 1568.5,-486 1577.13,-486 1582.9,-482.84 1585.8,-478.09"/>
<polygon fill="black" stroke="black" points="1589.25,-478.69 1587.92,-468.18 1582.41,-477.22 1589.25,-478.69"/>
<text text-anchor="start" x="1556.5" y="-489.8" font-family="arial" font-size="14.00" fill="#377eb8">true</text>
</g>
<!-- ID_16_ct0_st02&#45;&gt;ID_16_ct0_st023X -->
<g id="edge17" class="edge">
<title>ID_16_ct0_st02&#45;&gt;ID_16_ct0_st023X</title>
<path fill="none" stroke="black" d="M1632.05,-427.51C1657.34,-421.91 1686.9,-416.18 1714,-413 1781.91,-405.03 1859.82,-403.45 1915.59,-403.62"/>
<polygon fill="black" stroke="black" points="1915.72,-407.12 1925.74,-403.67 1915.76,-400.12 1915.72,-407.12"/>
<text text-anchor="start" x="1771" y="-431.8" font-family="arial" font-size="14.00" fill="#377eb8">true</text>
<text text-anchor="start" x="1764" y="-416.8" font-family="arial" font-size="14.00">c0 :=0</text>
</g>
<!-- ID_16_ct0_st02&#45;&gt;ID_16_ct0_st0123X -->
<g id="edge20" class="edge">
<title>ID_16_ct0_st02&#45;&gt;ID_16_ct0_st0123X</title>
<path fill="none" stroke="black" d="M1632.27,-455.86C1638.26,-456.97 1644.24,-458.04 1650,-459 1667.26,-461.89 1685.84,-464.64 1703.46,-467.09"/>
<polygon fill="black" stroke="black" points="1703.33,-470.6 1713.71,-468.49 1704.28,-463.67 1703.33,-470.6"/>
<text text-anchor="start" x="1661" y="-483.8" font-family="arial" font-size="14.00" fill="#377eb8">true</text>
<text text-anchor="start" x="1654" y="-468.8" font-family="arial" font-size="14.00">c0 :=0</text>
</g>
<!-- ID_16_ct0_st023W&#45;&gt;ID_16_ct0_st0 -->
<g id="edge27" class="edge">
<title>ID_16_ct0_st023W&#45;&gt;ID_16_ct0_st0</title>
<path fill="none" stroke="black" d="M534.64,-489.11C465.31,-522.03 343.89,-579.7 270.36,-614.62"/>
<polygon fill="black" stroke="black" points="268.73,-611.52 261.2,-618.97 271.73,-617.84 268.73,-611.52"/>
<text text-anchor="start" x="376.5" y="-589.8" font-family="arial" font-size="14.00" fill="#377eb8">Q&#39;</text>
</g>
<!-- ID_16_ct0_st023W&#45;&gt;ID_16_ct0_st01 -->
<g id="edge31" class="edge">
<title>ID_16_ct0_st023W&#45;&gt;ID_16_ct0_st01</title>
<path fill="none" stroke="black" d="M520.83,-446.55C498.36,-440.67 473.31,-434.11 450.9,-428.25"/>
<polygon fill="black" stroke="black" points="451.7,-424.84 441.14,-425.69 449.93,-431.61 451.7,-424.84"/>
<text text-anchor="start" x="466" y="-442.8" font-family="arial" font-size="14.00" fill="#377eb8">true</text>
</g>
<!-- ID_16_ct0_st023W&#45;&gt;ID_16_ct0_st012 -->
<g id="edge32" class="edge">
<title>ID_16_ct0_st023W&#45;&gt;ID_16_ct0_st012</title>
<path fill="none" stroke="black" d="M626.44,-489.03C639.33,-499.42 652.86,-512.46 662,-527 678.56,-553.33 711.27,-778.13 736,-797 772.37,-824.74 1294.11,-1006.71 2057,-783 2109.44,-767.62 2150.03,-715.82 2172.35,-680.78"/>
<polygon fill="black" stroke="black" points="2175.33,-682.6 2177.62,-672.26 2169.38,-678.92 2175.33,-682.6"/>
<text text-anchor="start" x="1452" y="-892.8" font-family="arial" font-size="14.00" fill="#377eb8">true</text>
</g>
<!-- ID_16_ct0_st023W&#45;&gt;ID_16_ct0_st0123W -->
<g id="edge33" class="edge">
<title>ID_16_ct0_st023W&#45;&gt;ID_16_ct0_st0123W</title>
<path fill="none" stroke="black" d="M640.06,-489.16C673.17,-505.92 711.5,-525.93 718,-532 729.09,-542.35 726.24,-549.38 736,-561 745.17,-571.92 756.24,-582.69 766.87,-592.15"/>
<polygon fill="black" stroke="black" points="764.65,-594.86 774.49,-598.79 769.25,-589.58 764.65,-594.86"/>
<text text-anchor="start" x="680" y="-535.8" font-family="arial" font-size="14.00" fill="#377eb8">c0 &lt; 5</text>
</g>
<!-- ID_16_ct0_st023W&#45;&gt;ID_16_ct0_st02 -->
<g id="edge28" class="edge">
<title>ID_16_ct0_st023W&#45;&gt;ID_16_ct0_st02</title>
<path fill="none" stroke="black" d="M656.01,-462.09C799.42,-458.03 1148.44,-448.59 1441,-444 1458.35,-443.73 1477.03,-443.53 1494.58,-443.38"/>
<polygon fill="black" stroke="black" points="1494.79,-446.88 1504.76,-443.3 1494.74,-439.88 1494.79,-446.88"/>
<text text-anchor="start" x="1048.5" y="-456.8" font-family="arial" font-size="14.00" fill="#377eb8">true</text>
</g>
<!-- ID_16_ct0_st023W&#45;&gt;ID_16_ct0_st023W -->
<g id="edge29" class="edge">
<title>ID_16_ct0_st023W&#45;&gt;ID_16_ct0_st023W</title>
<path fill="none" stroke="black" d="M567.96,-489.18C567.04,-498.91 573.89,-507 588.5,-507 597.63,-507 603.73,-503.84 606.8,-499.09"/>
<polygon fill="black" stroke="black" points="610.25,-499.7 609.04,-489.18 603.42,-498.15 610.25,-499.7"/>
<text text-anchor="start" x="569.5" y="-510.8" font-family="arial" font-size="14.00" fill="#377eb8">c0 &lt; 5</text>
</g>
<!-- ID_16_ct0_st023W&#45;&gt;ID_16_ct0_st023 -->
<g id="edge30" class="edge">
<title>ID_16_ct0_st023W&#45;&gt;ID_16_ct0_st023</title>
<path fill="none" stroke="black" d="M656.03,-465.2C764.5,-468.96 984.95,-484.17 1160,-545 1202.29,-559.69 1246.11,-585.66 1277.26,-606.27"/>
<polygon fill="black" stroke="black" points="1275.44,-609.27 1285.7,-611.93 1279.34,-603.45 1275.44,-609.27"/>
<text text-anchor="start" x="897" y="-495.8" font-family="arial" font-size="14.00" fill="#377eb8">c0 &gt;= 5</text>
</g>
<!-- ID_16_ct0_st023W&#45;&gt;ID_16_ct0_st0123 -->
<g id="edge34" class="edge">
<title>ID_16_ct0_st023W&#45;&gt;ID_16_ct0_st0123</title>
<path fill="none" stroke="black" d="M656.12,-482.18C681.13,-488.89 709.83,-496.44 736,-503 807.45,-520.9 888.09,-539.85 950.99,-554.35"/>
<polygon fill="black" stroke="black" points="950.39,-557.8 960.92,-556.63 951.97,-550.98 950.39,-557.8"/>
<text text-anchor="start" x="784.5" y="-540.8" font-family="arial" font-size="14.00" fill="#377eb8">c0 &gt;= 5</text>
</g>
<!-- ID_16_ct0_st023X&#45;&gt;ID_16_ct0_st0 -->
<g id="edge35" class="edge">
<title>ID_16_ct0_st023X&#45;&gt;ID_16_ct0_st0</title>
<path fill="none" stroke="black" d="M1972.78,-379.6C1925.96,-314.87 1791.55,-144.01 1632,-75 1451.63,3.01 1387.52,-43 1191,-43 383,-43 383,-43 383,-43 314.14,-43 306.53,-97.59 285,-163 231.99,-324.03 215.09,-527.87 210.25,-608.68"/>
<polygon fill="black" stroke="black" points="206.75,-608.63 209.67,-618.81 213.74,-609.03 206.75,-608.63"/>
<text text-anchor="start" x="1053" y="-46.8" font-family="arial" font-size="14.00" fill="#377eb8">Q&#39;</text>
</g>
<!-- ID_16_ct0_st023X&#45;&gt;ID_16_ct0_st01 -->
<g id="edge39" class="edge">
<title>ID_16_ct0_st023X&#45;&gt;ID_16_ct0_st01</title>
<path fill="none" stroke="black" d="M1925.86,-383.07C1919.85,-381.26 1913.83,-379.54 1908,-378 1695.33,-321.69 1641.01,-308.51 1423,-279 1023.07,-224.86 906.99,-191.99 515,-288 488.53,-294.48 480.33,-296.03 459,-313 436.81,-330.65 417.7,-356.41 404.46,-377.09"/>
<polygon fill="black" stroke="black" points="401.48,-375.27 399.16,-385.61 407.42,-378.97 401.48,-375.27"/>
<text text-anchor="start" x="1178" y="-252.8" font-family="arial" font-size="14.00" fill="#377eb8">true</text>
</g>
<!-- ID_16_ct0_st023X&#45;&gt;ID_16_ct0_st012 -->
<g id="edge40" class="edge">
<title>ID_16_ct0_st023X&#45;&gt;ID_16_ct0_st012</title>
<path fill="none" stroke="black" d="M2045.96,-430.06C2073.23,-443.66 2102.78,-459.91 2113,-471 2150.67,-511.88 2172.51,-573.83 2183.2,-612.29"/>
<polygon fill="black" stroke="black" points="2179.83,-613.24 2185.8,-622 2186.6,-611.43 2179.83,-613.24"/>
<text text-anchor="start" x="2082" y="-474.8" font-family="arial" font-size="14.00" fill="#377eb8">true</text>
</g>
<!-- ID_16_ct0_st023X&#45;&gt;ID_16_ct0_st02 -->
<g id="edge36" class="edge">
<title>ID_16_ct0_st023X&#45;&gt;ID_16_ct0_st02</title>
<path fill="none" stroke="black" d="M1925.96,-390.86C1869.56,-380.74 1785.71,-371.15 1714,-385 1684.57,-390.69 1653.53,-402.33 1627.79,-413.7"/>
<polygon fill="black" stroke="black" points="1626.23,-410.56 1618.56,-417.86 1629.11,-416.94 1626.23,-410.56"/>
<text text-anchor="start" x="1771" y="-388.8" font-family="arial" font-size="14.00" fill="#377eb8">true</text>
</g>
<!-- ID_16_ct0_st023X&#45;&gt;ID_16_ct0_st023X -->
<g id="edge37" class="edge">
<title>ID_16_ct0_st023X&#45;&gt;ID_16_ct0_st023X</title>
<path fill="none" stroke="black" d="M1972.45,-430.18C1971.6,-439.91 1977.95,-448 1991.5,-448 1999.97,-448 2005.62,-444.84 2008.47,-440.09"/>
<polygon fill="black" stroke="black" points="2011.92,-440.68 2010.55,-430.18 2005.07,-439.24 2011.92,-440.68"/>
<text text-anchor="start" x="1972.5" y="-451.8" font-family="arial" font-size="14.00" fill="#377eb8">c0 &lt; 5</text>
</g>
<!-- ID_16_ct0_st023X&#45;&gt;ID_16_ct0_st0123X -->
<g id="edge41" class="edge">
<title>ID_16_ct0_st023X&#45;&gt;ID_16_ct0_st0123X</title>
<path fill="none" stroke="black" d="M1952.3,-430.13C1938.76,-438.12 1923.13,-446.33 1908,-452 1893.49,-457.43 1877.56,-461.77 1862.1,-465.2"/>
<polygon fill="black" stroke="black" points="1861.08,-461.84 1852.02,-467.33 1862.53,-468.69 1861.08,-461.84"/>
<text text-anchor="start" x="1870" y="-466.8" font-family="arial" font-size="14.00" fill="#377eb8">c0 &lt; 5</text>
</g>
<!-- ID_16_ct0_st023X&#45;&gt;ID_16_ct0_st023 -->
<g id="edge38" class="edge">
<title>ID_16_ct0_st023X&#45;&gt;ID_16_ct0_st023</title>
<path fill="none" stroke="black" d="M1970.86,-430.1C1945.98,-460.51 1900.46,-511.67 1852,-544 1802.06,-577.31 1670.52,-625.47 1632,-633 1568.75,-645.37 1551.45,-634.16 1487,-635 1469.81,-635.22 1451.61,-635.45 1433.83,-635.67"/>
<polygon fill="black" stroke="black" points="1433.37,-632.18 1423.42,-635.8 1433.46,-639.18 1433.37,-632.18"/>
<text text-anchor="start" x="1650" y="-631.8" font-family="arial" font-size="14.00" fill="#377eb8">c0 &gt;= 5</text>
</g>
<!-- ID_16_ct0_st023X&#45;&gt;ID_16_ct0_st0123 -->
<g id="edge42" class="edge">
<title>ID_16_ct0_st023X&#45;&gt;ID_16_ct0_st0123</title>
<path fill="none" stroke="black" d="M1925.69,-407.82C1902.45,-408.71 1876.06,-409.57 1852,-410 1790.68,-411.11 1775.05,-415.9 1714,-410 1677.04,-406.43 1668.96,-397.57 1632,-394 1575.82,-388.57 1560.35,-382.92 1505,-394 1356.13,-423.81 1194.79,-504.73 1113.95,-549.02"/>
<polygon fill="black" stroke="black" points="1112.03,-546.08 1104.96,-553.98 1115.41,-552.21 1112.03,-546.08"/>
<text text-anchor="start" x="1545.5" y="-397.8" font-family="arial" font-size="14.00" fill="#377eb8">c0 &gt;= 5</text>
</g>
<!-- ID_16_ct0_st0123X&#45;&gt;ID_16_ct0_st0 -->
<g id="edge57" class="edge">
<title>ID_16_ct0_st0123X&#45;&gt;ID_16_ct0_st0</title>
<path fill="none" stroke="black" d="M1718.97,-451.92C1717.21,-450.37 1715.55,-448.73 1714,-447 1696.04,-426.85 1709.77,-412.21 1696,-389 1614.61,-251.81 1569.53,-219.05 1423,-156 1319.54,-111.48 1033.63,-86 921,-86 383,-86 383,-86 383,-86 272.91,-86 224.1,-486.67 211.76,-608.97"/>
<polygon fill="black" stroke="black" points="208.28,-608.64 210.77,-618.94 215.24,-609.33 208.28,-608.64"/>
<text text-anchor="start" x="912.5" y="-89.8" font-family="arial" font-size="14.00" fill="#377eb8">Q&#39;</text>
</g>
<!-- ID_16_ct0_st0123X&#45;&gt;ID_16_ct0_st01 -->
<g id="edge61" class="edge">
<title>ID_16_ct0_st0123X&#45;&gt;ID_16_ct0_st01</title>
<path fill="none" stroke="black" d="M1722.1,-451.87C1719.32,-450.3 1716.61,-448.67 1714,-447 1704.99,-441.21 1704.29,-437.77 1696,-431 1668.47,-408.5 1663.72,-399.07 1632,-383 1347.83,-238.99 1239.58,-292 921,-292 587.5,-292 587.5,-292 587.5,-292 526.38,-292 510.75,-308.48 459,-341 442.73,-351.22 426.94,-365.38 414.15,-378.29"/>
<polygon fill="black" stroke="black" points="411.41,-376.08 406.99,-385.71 416.45,-380.95 411.41,-376.08"/>
<text text-anchor="start" x="1048.5" y="-294.8" font-family="arial" font-size="14.00" fill="#377eb8">true</text>
</g>
<!-- ID_16_ct0_st0123X&#45;&gt;ID_16_ct0_st012 -->
<g id="edge62" class="edge">
<title>ID_16_ct0_st0123X&#45;&gt;ID_16_ct0_st012</title>
<path fill="none" stroke="black" d="M1831.74,-502.09C1858.88,-515.69 1893.78,-532.11 1926,-544 2006.82,-573.83 2034.54,-559.43 2113,-595 2125.69,-600.76 2138.64,-608.45 2150.26,-616.14"/>
<polygon fill="black" stroke="black" points="2148.63,-619.27 2158.87,-622 2152.57,-613.48 2148.63,-619.27"/>
<text text-anchor="start" x="1979.5" y="-577.8" font-family="arial" font-size="14.00" fill="#377eb8">true</text>
</g>
<!-- ID_16_ct0_st0123X&#45;&gt;ID_16_ct0_st02 -->
<g id="edge58" class="edge">
<title>ID_16_ct0_st0123X&#45;&gt;ID_16_ct0_st02</title>
<path fill="none" stroke="black" d="M1733.1,-451.92C1721.25,-446.99 1708.42,-442.56 1696,-440 1678.82,-436.46 1660.06,-435.42 1642.36,-435.67"/>
<polygon fill="black" stroke="black" points="1641.99,-432.18 1632.09,-435.95 1642.18,-439.17 1641.99,-432.18"/>
<text text-anchor="start" x="1661" y="-443.8" font-family="arial" font-size="14.00" fill="#377eb8">true</text>
</g>
<!-- ID_16_ct0_st0123X&#45;&gt;ID_16_ct0_st023X -->
<g id="edge59" class="edge">
<title>ID_16_ct0_st0123X&#45;&gt;ID_16_ct0_st023X</title>
<path fill="none" stroke="black" d="M1828.15,-451.8C1841.32,-445.01 1855.98,-438.13 1870,-433 1884.56,-427.67 1900.49,-423.13 1915.86,-419.34"/>
<polygon fill="black" stroke="black" points="1916.94,-422.68 1925.86,-416.96 1915.32,-415.87 1916.94,-422.68"/>
<text text-anchor="start" x="1870" y="-436.8" font-family="arial" font-size="14.00" fill="#377eb8">c0 &lt; 5</text>
</g>
<!-- ID_16_ct0_st0123X&#45;&gt;ID_16_ct0_st0123X -->
<g id="edge63" class="edge">
<title>ID_16_ct0_st0123X&#45;&gt;ID_16_ct0_st0123X</title>
<path fill="none" stroke="black" d="M1763.2,-502.18C1762.32,-511.91 1768.92,-520 1783,-520 1791.8,-520 1797.68,-516.84 1800.63,-512.09"/>
<polygon fill="black" stroke="black" points="1804.08,-512.69 1802.8,-502.18 1797.24,-511.2 1804.08,-512.69"/>
<text text-anchor="start" x="1764" y="-523.8" font-family="arial" font-size="14.00" fill="#377eb8">c0 &lt; 5</text>
</g>
<!-- ID_16_ct0_st0123X&#45;&gt;ID_16_ct0_st023 -->
<g id="edge60" class="edge">
<title>ID_16_ct0_st0123X&#45;&gt;ID_16_ct0_st023</title>
<path fill="none" stroke="black" d="M1770.24,-502.47C1756.47,-529.12 1731.03,-569.82 1696,-590 1684.58,-596.58 1539.28,-613.53 1433.34,-625.16"/>
<polygon fill="black" stroke="black" points="1432.77,-621.7 1423.21,-626.27 1433.53,-628.66 1432.77,-621.7"/>
<text text-anchor="start" x="1545.5" y="-619.8" font-family="arial" font-size="14.00" fill="#377eb8">c0 &gt;= 5</text>
</g>
<!-- ID_16_ct0_st0123X&#45;&gt;ID_16_ct0_st0123 -->
<g id="edge64" class="edge">
<title>ID_16_ct0_st0123X&#45;&gt;ID_16_ct0_st0123</title>
<path fill="none" stroke="black" d="M1713.98,-494.63C1707.91,-496.13 1701.85,-497.61 1696,-499 1583.11,-525.83 1552.07,-521.43 1441,-555 1432.78,-557.48 1431.4,-560.22 1423,-562 1339.35,-579.74 1242.47,-583.42 1170.07,-582.98"/>
<polygon fill="black" stroke="black" points="1170.05,-579.48 1160.02,-582.89 1169.99,-586.48 1170.05,-579.48"/>
<text text-anchor="start" x="1441" y="-558.8" font-family="arial" font-size="14.00" fill="#377eb8">c0 &gt;= 5</text>
</g>
<!-- ID_16_ct0_st023&#45;&gt;ID_16_ct0_st0 -->
<g id="edge43" class="edge">
<title>ID_16_ct0_st023&#45;&gt;ID_16_ct0_st0</title>
<path fill="none" stroke="black" d="M1291.95,-662.19C1261.44,-687.67 1210.62,-726.2 1160,-747 978.48,-821.6 834.81,-823.24 662,-834 513.4,-843.25 471.14,-870.29 327,-833 259.44,-815.52 228.28,-729.02 215.75,-679.31"/>
<polygon fill="black" stroke="black" points="219.08,-678.21 213.35,-669.3 212.28,-679.84 219.08,-678.21"/>
<text text-anchor="start" x="691.5" y="-835.8" font-family="arial" font-size="14.00" fill="#377eb8">Q&#39;</text>
</g>
<!-- ID_16_ct0_st023&#45;&gt;ID_16_ct0_st01 -->
<g id="edge46" class="edge">
<title>ID_16_ct0_st023&#45;&gt;ID_16_ct0_st01</title>
<path fill="none" stroke="black" d="M1267.58,-662.21C1129.61,-723.87 753.16,-865.74 515,-702 447.1,-655.31 471.38,-608.6 441,-532 429.17,-502.18 413.74,-469.18 402.07,-445.19"/>
<polygon fill="black" stroke="black" points="405.18,-443.58 397.64,-436.14 398.89,-446.66 405.18,-443.58"/>
<text text-anchor="start" x="795.5" y="-781.8" font-family="arial" font-size="14.00" fill="#377eb8">true</text>
</g>
<!-- ID_16_ct0_st023&#45;&gt;ID_16_ct0_st012 -->
<g id="edge47" class="edge">
<title>ID_16_ct0_st023&#45;&gt;ID_16_ct0_st012</title>
<path fill="none" stroke="black" d="M1407.59,-662.05C1454.35,-673.69 1513.65,-685 1567.5,-685 1567.5,-685 1567.5,-685 1992.5,-685 2035.6,-685 2083.04,-676.29 2120.79,-667.21"/>
<polygon fill="black" stroke="black" points="2121.79,-670.57 2130.66,-664.78 2120.12,-663.77 2121.79,-670.57"/>
<text text-anchor="start" x="1771" y="-688.8" font-family="arial" font-size="14.00" fill="#377eb8">true</text>
</g>
<!-- ID_16_ct0_st023&#45;&gt;ID_16_ct0_st02 -->
<g id="edge44" class="edge">
<title>ID_16_ct0_st023&#45;&gt;ID_16_ct0_st02</title>
<path fill="none" stroke="black" d="M1394.51,-611.84C1435.08,-597.25 1479.18,-580.49 1487,-574 1518.19,-548.11 1540.7,-506.85 1553.85,-477.56"/>
<polygon fill="black" stroke="black" points="1557.18,-478.69 1557.96,-468.12 1550.76,-475.9 1557.18,-478.69"/>
<text text-anchor="start" x="1452" y="-596.8" font-family="arial" font-size="14.00" fill="#377eb8">true</text>
</g>
<!-- ID_16_ct0_st023&#45;&gt;ID_16_ct0_st023 -->
<g id="edge45" class="edge">
<title>ID_16_ct0_st023&#45;&gt;ID_16_ct0_st023</title>
<path fill="none" stroke="black" d="M1297.22,-662.18C1296.14,-671.91 1304.23,-680 1321.5,-680 1332.29,-680 1339.5,-676.84 1343.12,-672.09"/>
<polygon fill="black" stroke="black" points="1346.57,-672.74 1345.78,-662.18 1339.81,-670.93 1346.57,-672.74"/>
<text text-anchor="start" x="1309.5" y="-683.8" font-family="arial" font-size="14.00" fill="#377eb8">true</text>
</g>
<!-- ID_16_ct0_st023&#45;&gt;ID_16_ct0_st0123 -->
<g id="edge48" class="edge">
<title>ID_16_ct0_st023&#45;&gt;ID_16_ct0_st0123</title>
<path fill="none" stroke="black" d="M1219.88,-632.23C1205.71,-630.49 1191.42,-628.14 1178,-625 1160.23,-620.84 1141.58,-614.46 1124.55,-607.76"/>
<polygon fill="black" stroke="black" points="1125.85,-604.51 1115.26,-604.02 1123.23,-611.01 1125.85,-604.51"/>
<text text-anchor="start" x="1178" y="-632.8" font-family="arial" font-size="14.00" fill="#377eb8">true</text>
</g>
<!-- ID_16_ct0_st0123&#45;&gt;ID_16_ct0_st0 -->
<g id="edge65" class="edge">
<title>ID_16_ct0_st0123&#45;&gt;ID_16_ct0_st0</title>
<path fill="none" stroke="black" d="M1012.97,-604.11C995.68,-614.6 976.52,-627.68 961,-642 916.71,-682.87 929.52,-717.14 879,-750 734.56,-843.93 668.95,-805.15 497,-816 402.21,-821.98 362.33,-844.16 285,-789 248.04,-762.64 227.44,-712.84 217.16,-679.04"/>
<polygon fill="black" stroke="black" points="220.43,-677.75 214.3,-669.11 213.7,-679.69 220.43,-677.75"/>
<text text-anchor="start" x="581" y="-818.8" font-family="arial" font-size="14.00" fill="#377eb8">Q&#39;</text>
</g>
<!-- ID_16_ct0_st0123&#45;&gt;ID_16_ct0_st01 -->
<g id="edge68" class="edge">
<title>ID_16_ct0_st0123&#45;&gt;ID_16_ct0_st01</title>
<path fill="none" stroke="black" d="M1006.82,-553.83C971.16,-537.24 922.75,-515.59 879,-499 784.38,-463.11 761.42,-448.93 662,-430 590.9,-416.46 507.91,-412.27 451.44,-411.11"/>
<polygon fill="black" stroke="black" points="451.27,-407.61 441.21,-410.93 451.15,-414.61 451.27,-407.61"/>
<text text-anchor="start" x="687" y="-444.8" font-family="arial" font-size="14.00" fill="#377eb8">true</text>
</g>
<!-- ID_16_ct0_st0123&#45;&gt;ID_16_ct0_st012 -->
<g id="edge69" class="edge">
<title>ID_16_ct0_st0123&#45;&gt;ID_16_ct0_st012</title>
<path fill="none" stroke="black" d="M1105.67,-604.21C1123.22,-614.99 1143.19,-628.25 1160,-642 1189.69,-666.27 1184.69,-689.04 1220,-704 1391.26,-776.59 1872.28,-720.85 2057,-699 2082.28,-696.01 2089.01,-695.52 2113,-687 2121.27,-684.06 2129.78,-680.43 2138.01,-676.57"/>
<polygon fill="black" stroke="black" points="2139.68,-679.64 2147.14,-672.12 2136.62,-673.35 2139.68,-679.64"/>
<text text-anchor="start" x="1661" y="-738.8" font-family="arial" font-size="14.00" fill="#377eb8">true</text>
</g>
<!-- ID_16_ct0_st0123&#45;&gt;ID_16_ct0_st02 -->
<g id="edge66" class="edge">
<title>ID_16_ct0_st0123&#45;&gt;ID_16_ct0_st02</title>
<path fill="none" stroke="black" d="M1160.34,-558.59C1180.08,-554.64 1200.68,-550.61 1220,-547 1338.36,-524.86 1375.97,-547.61 1487,-501 1502.5,-494.49 1517.89,-484.51 1530.99,-474.66"/>
<polygon fill="black" stroke="black" points="1533.5,-477.14 1539.25,-468.24 1529.21,-471.61 1533.5,-477.14"/>
<text text-anchor="start" x="1309.5" y="-550.8" font-family="arial" font-size="14.00" fill="#377eb8">true</text>
</g>
<!-- ID_16_ct0_st0123&#45;&gt;ID_16_ct0_st023 -->
<g id="edge67" class="edge">
<title>ID_16_ct0_st0123&#45;&gt;ID_16_ct0_st023</title>
<path fill="none" stroke="black" d="M1160.31,-597.14C1174.34,-599.96 1188.56,-602.95 1202,-606 1206.99,-607.13 1212.09,-608.32 1217.24,-609.56"/>
<polygon fill="black" stroke="black" points="1216.63,-613.01 1227.17,-611.97 1218.28,-606.21 1216.63,-613.01"/>
<text text-anchor="start" x="1178" y="-609.8" font-family="arial" font-size="14.00" fill="#377eb8">true</text>
</g>
<!-- ID_16_ct0_st0123&#45;&gt;ID_16_ct0_st0123 -->
<g id="edge70" class="edge">
<title>ID_16_ct0_st0123&#45;&gt;ID_16_ct0_st0123</title>
<path fill="none" stroke="black" d="M1036.59,-604.18C1035.53,-613.91 1043.5,-622 1060.5,-622 1071.12,-622 1078.22,-618.84 1081.79,-614.09"/>
<polygon fill="black" stroke="black" points="1085.24,-614.74 1084.41,-604.18 1078.47,-612.95 1085.24,-614.74"/>
<text text-anchor="start" x="1048.5" y="-625.8" font-family="arial" font-size="14.00" fill="#377eb8">true</text>
</g>
</g>
</svg>
