<?xml version="1.0" encoding="UTF-8" standalone="no"?>
<!DOCTYPE svg PUBLIC "-//W3C//DTD SVG 1.1//EN"
 "http://www.w3.org/Graphics/SVG/1.1/DTD/svg11.dtd">
<!-- Generated by graphviz version 2.43.0 (0)
 -->
<!-- Title: G Pages: 1 -->
<svg width="2275pt" height="810pt"
 viewBox="0.00 0.00 2275.00 810.33" xmlns="http://www.w3.org/2000/svg" xmlns:xlink="http://www.w3.org/1999/xlink">
<g id="graph0" class="graph" transform="scale(1 1) rotate(0) translate(4 806.33)">
<title>G</title>
<polygon fill="white" stroke="transparent" points="-4,4 -4,-806.33 2271,-806.33 2271,4 -4,4"/>
<!-- _ID_117_ct0_st -->
<!-- ID_117_ct0_st -->
<g id="node2" class="node">
<title>ID_117_ct0_st</title>
<polygon fill="none" stroke="black" points="2267,-428.33 2161,-428.33 2161,-378.33 2267,-378.33 2267,-428.33"/>
<text text-anchor="start" x="2169" y="-414.13" font-family="arial" font-weight="bold" font-size="14.00">ID_117_ct0_st</text>
<text text-anchor="start" x="2202" y="-400.13" font-family="arial" font-size="14.00" fill="#984ea3">true</text>
<text text-anchor="start" x="2202" y="-386.13" font-family="arial" font-size="14.00" fill="#ff7f00">true</text>
</g>
<!-- _ID_117_ct0_st&#45;&gt;ID_117_ct0_st -->
<g id="edge1" class="edge">
<title>_ID_117_ct0_st&#45;&gt;ID_117_ct0_st</title>
<path fill="none" stroke="black" d="M2090.53,-779.53C2109.57,-775.17 2129.55,-767.11 2143,-752.33 2184.71,-706.5 2204.03,-518.26 2210.44,-438.89"/>
<polygon fill="black" stroke="black" points="2213.97,-438.68 2211.26,-428.44 2206.99,-438.14 2213.97,-438.68"/>
</g>
<!-- ID_117_ct0_st&#45;&gt;ID_117_ct0_st -->
<g id="edge4" class="edge">
<title>ID_117_ct0_st&#45;&gt;ID_117_ct0_st</title>
<path fill="none" stroke="black" d="M2199.81,-428.51C2199.17,-438.24 2203.91,-446.33 2214,-446.33 2220.31,-446.33 2224.52,-443.17 2226.64,-438.43"/>
<polygon fill="black" stroke="black" points="2230.11,-438.93 2228.19,-428.51 2223.19,-437.85 2230.11,-438.93"/>
<text text-anchor="start" x="2202" y="-450.13" font-family="arial" font-size="14.00" fill="#377eb8">true</text>
</g>
<!-- _ID_117_ct0_st0 -->
<!-- ID_117_ct0_st0 -->
<g id="node4" class="node">
<title>ID_117_ct0_st0</title>
<polygon fill="none" stroke="black" points="483,-514.33 370,-514.33 370,-464.33 483,-464.33 483,-514.33"/>
<text text-anchor="start" x="378" y="-500.13" font-family="arial" font-weight="bold" font-size="14.00">ID_117_ct0_st0</text>
<text text-anchor="start" x="396" y="-486.13" font-family="arial" font-size="14.00" fill="#984ea3">(!P &amp;&amp; !R)</text>
<text text-anchor="start" x="414.5" y="-472.13" font-family="arial" font-size="14.00" fill="#ff7f00">true</text>
</g>
<!-- _ID_117_ct0_st0&#45;&gt;ID_117_ct0_st0 -->
<g id="edge2" class="edge">
<title>_ID_117_ct0_st0&#45;&gt;ID_117_ct0_st0</title>
<path fill="none" stroke="black" d="M302.18,-489.33C320.46,-489.33 340.78,-489.33 359.56,-489.33"/>
<polygon fill="black" stroke="black" points="359.82,-492.83 369.82,-489.33 359.82,-485.83 359.82,-492.83"/>
</g>
<!-- ID_117_ct0_st0&#45;&gt;ID_117_ct0_st -->
<g id="edge5" class="edge">
<title>ID_117_ct0_st0&#45;&gt;ID_117_ct0_st</title>
<path fill="none" stroke="black" d="M442.25,-514.39C471.52,-560.55 541.74,-654.33 629,-654.33 629,-654.33 629,-654.33 1568,-654.33 1627.97,-654.33 2099.04,-590.57 2112,-582.33 2163.61,-549.54 2191.38,-480.44 2204.1,-438.33"/>
<polygon fill="black" stroke="black" points="2207.53,-439.08 2206.95,-428.5 2200.81,-437.14 2207.53,-439.08"/>
<text text-anchor="start" x="1268.5" y="-658.13" font-family="arial" font-size="14.00" fill="#377eb8">P&#39;</text>
</g>
<!-- ID_117_ct0_st0&#45;&gt;ID_117_ct0_st0 -->
<g id="edge6" class="edge">
<title>ID_117_ct0_st0&#45;&gt;ID_117_ct0_st0</title>
<path fill="none" stroke="black" d="M410.44,-514.51C409.72,-524.24 415.08,-532.33 426.5,-532.33 433.64,-532.33 438.41,-529.17 440.81,-524.43"/>
<polygon fill="black" stroke="black" points="444.26,-524.97 442.56,-514.51 437.37,-523.74 444.26,-524.97"/>
<text text-anchor="start" x="414.5" y="-536.13" font-family="arial" font-size="14.00" fill="#377eb8">true</text>
</g>
<!-- ID_117_ct0_st01X -->
<g id="node7" class="node">
<title>ID_117_ct0_st01X</title>
<polygon fill="none" stroke="black" points="695,-461.33 565,-461.33 565,-411.33 695,-411.33 695,-461.33"/>
<text text-anchor="start" x="573" y="-447.13" font-family="arial" font-weight="bold" font-size="14.00">ID_117_ct0_st01X</text>
<text text-anchor="start" x="601" y="-433.13" font-family="arial" font-size="14.00" fill="#984ea3">(!P &amp;&amp; R)</text>
<text text-anchor="start" x="607" y="-419.13" font-family="arial" font-size="14.00" fill="#ff7f00">c0 &lt;= 5</text>
</g>
<!-- ID_117_ct0_st0&#45;&gt;ID_117_ct0_st01X -->
<g id="edge7" class="edge">
<title>ID_117_ct0_st0&#45;&gt;ID_117_ct0_st01X</title>
<path fill="none" stroke="black" d="M454.6,-464.13C467.61,-453.71 484.04,-442.8 501,-437.33 517.96,-431.86 536.86,-429.73 554.82,-429.36"/>
<polygon fill="black" stroke="black" points="554.98,-432.86 564.97,-429.34 554.96,-425.86 554.98,-432.86"/>
<text text-anchor="start" x="512" y="-456.13" font-family="arial" font-size="14.00" fill="#377eb8">true</text>
<text text-anchor="start" x="505" y="-441.13" font-family="arial" font-size="14.00">c0 :=0</text>
</g>
<!-- _ID_117_ct0_st01W -->
<!-- ID_117_ct0_st01W -->
<g id="node6" class="node">
<title>ID_117_ct0_st01W</title>
<polygon fill="none" stroke="black" points="310,-674.33 176,-674.33 176,-624.33 310,-624.33 310,-674.33"/>
<text text-anchor="start" x="184" y="-660.13" font-family="arial" font-weight="bold" font-size="14.00">ID_117_ct0_st01W</text>
<text text-anchor="start" x="214" y="-646.13" font-family="arial" font-size="14.00" fill="#984ea3">(!P &amp;&amp; R)</text>
<text text-anchor="start" x="220" y="-632.13" font-family="arial" font-size="14.00" fill="#ff7f00">c0 &lt;= 5</text>
</g>
<!-- _ID_117_ct0_st01W&#45;&gt;ID_117_ct0_st01W -->
<g id="edge3" class="edge">
<title>_ID_117_ct0_st01W&#45;&gt;ID_117_ct0_st01W</title>
<path fill="none" stroke="black" d="M139.27,-649.33C147.91,-649.33 156.79,-649.33 165.54,-649.33"/>
<polygon fill="black" stroke="black" points="165.73,-652.83 175.73,-649.33 165.73,-645.83 165.73,-652.83"/>
</g>
<!-- ID_117_ct0_st01W&#45;&gt;ID_117_ct0_st -->
<g id="edge8" class="edge">
<title>ID_117_ct0_st01W&#45;&gt;ID_117_ct0_st</title>
<path fill="none" stroke="black" d="M273.61,-674.36C307.87,-700.68 367.07,-738.33 425.5,-738.33 425.5,-738.33 425.5,-738.33 2036.5,-738.33 2170.92,-738.33 2203.21,-524.62 2210.76,-438.59"/>
<polygon fill="black" stroke="black" points="2214.26,-438.76 2211.59,-428.51 2207.28,-438.19 2214.26,-438.76"/>
<text text-anchor="start" x="1104" y="-742.13" font-family="arial" font-size="14.00" fill="#377eb8">P&#39;</text>
</g>
<!-- ID_117_ct0_st01W&#45;&gt;ID_117_ct0_st0 -->
<g id="edge9" class="edge">
<title>ID_117_ct0_st01W&#45;&gt;ID_117_ct0_st0</title>
<path fill="none" stroke="black" d="M272.76,-623.98C304.22,-596.24 354.73,-551.72 388.97,-521.53"/>
<polygon fill="black" stroke="black" points="391.69,-523.8 396.88,-514.57 387.06,-518.55 391.69,-523.8"/>
<text text-anchor="start" x="328" y="-577.13" font-family="arial" font-size="14.00" fill="#377eb8">true</text>
</g>
<!-- ID_117_ct0_st01W&#45;&gt;ID_117_ct0_st01W -->
<g id="edge10" class="edge">
<title>ID_117_ct0_st01W&#45;&gt;ID_117_ct0_st01W</title>
<path fill="none" stroke="black" d="M227.31,-674.51C226.61,-684.24 231.84,-692.33 243,-692.33 249.97,-692.33 254.63,-689.17 256.97,-684.43"/>
<polygon fill="black" stroke="black" points="260.43,-684.96 258.69,-674.51 253.53,-683.76 260.43,-684.96"/>
<text text-anchor="start" x="224" y="-696.13" font-family="arial" font-size="14.00" fill="#377eb8">c0 &lt; 5</text>
</g>
<!-- ID_117_ct0_st01 -->
<g id="node8" class="node">
<title>ID_117_ct0_st01</title>
<polygon fill="none" stroke="black" points="2112,-428.33 1959,-428.33 1959,-378.33 2112,-378.33 2112,-428.33"/>
<text text-anchor="start" x="1983" y="-414.13" font-family="arial" font-weight="bold" font-size="14.00">ID_117_ct0_st01</text>
<text text-anchor="start" x="1967" y="-400.13" font-family="arial" font-size="14.00" fill="#984ea3">(!P &amp;&amp; (R &amp;&amp; (T || !S)))</text>
<text text-anchor="start" x="2023.5" y="-386.13" font-family="arial" font-size="14.00" fill="#ff7f00">true</text>
</g>
<!-- ID_117_ct0_st01W&#45;&gt;ID_117_ct0_st01 -->
<g id="edge11" class="edge">
<title>ID_117_ct0_st01W&#45;&gt;ID_117_ct0_st01</title>
<path fill="none" stroke="black" d="M310.35,-672.85C344.33,-682.88 386.64,-692.33 425.5,-692.33 425.5,-692.33 425.5,-692.33 1568,-692.33 1743.41,-692.33 1809.33,-679.23 1941,-563.33 1980.18,-528.84 2007.26,-473.8 2021.83,-438.12"/>
<polygon fill="black" stroke="black" points="2025.17,-439.18 2025.61,-428.6 2018.67,-436.6 2025.17,-439.18"/>
<text text-anchor="start" x="962" y="-696.13" font-family="arial" font-size="14.00" fill="#377eb8">c0 &gt;= 5</text>
</g>
<!-- ID_117_ct0_st0123W -->
<g id="node9" class="node">
<title>ID_117_ct0_st0123W</title>
<polygon fill="none" stroke="black" points="943,-257.33 779,-257.33 779,-207.33 943,-207.33 943,-257.33"/>
<text text-anchor="start" x="794.5" y="-243.13" font-family="arial" font-weight="bold" font-size="14.00">ID_117_ct0_st0123W</text>
<text text-anchor="start" x="787" y="-229.13" font-family="arial" font-size="14.00" fill="#984ea3">(!P &amp;&amp; (R &amp;&amp; (S &amp;&amp; !T)))</text>
<text text-anchor="start" x="834" y="-215.13" font-family="arial" font-size="14.00" fill="#ff7f00">c1 &lt;= 10</text>
</g>
<!-- ID_117_ct0_st01W&#45;&gt;ID_117_ct0_st0123W -->
<g id="edge12" class="edge">
<title>ID_117_ct0_st01W&#45;&gt;ID_117_ct0_st0123W</title>
<path fill="none" stroke="black" d="M257.05,-624.03C270.67,-597.41 292.43,-554.22 310,-516.33 400.04,-322.19 322.17,-191.87 501,-74.33 552.57,-40.44 578.78,76.07 761,-77.33 794.21,-105.29 755.82,-136.63 779,-173.33 785.67,-183.89 794.97,-193.17 804.9,-201.06"/>
<polygon fill="black" stroke="black" points="802.86,-203.9 812.96,-207.08 807.05,-198.29 802.86,-203.9"/>
<text text-anchor="start" x="501" y="-93.13" font-family="arial" font-size="14.00" fill="#377eb8">c0 &gt;= 5</text>
<text text-anchor="start" x="505" y="-78.13" font-family="arial" font-size="14.00">c1 :=0</text>
</g>
<!-- ID_117_ct0_st01X&#45;&gt;ID_117_ct0_st -->
<g id="edge13" class="edge">
<title>ID_117_ct0_st01X&#45;&gt;ID_117_ct0_st</title>
<path fill="none" stroke="black" d="M670.37,-461.33C683.54,-468.9 698.56,-476.69 713,-482.33 818.53,-523.56 848.8,-525.63 961,-541.33 1227.56,-578.65 1296.84,-568.33 1566,-568.33 1566,-568.33 1566,-568.33 2036.5,-568.33 2112.56,-568.33 2169.42,-485.56 2196.12,-437.27"/>
<polygon fill="black" stroke="black" points="2199.24,-438.86 2200.9,-428.39 2193.08,-435.53 2199.24,-438.86"/>
<text text-anchor="start" x="1416.5" y="-573.13" font-family="arial" font-size="14.00" fill="#377eb8">P&#39;</text>
</g>
<!-- ID_117_ct0_st01X&#45;&gt;ID_117_ct0_st0 -->
<g id="edge14" class="edge">
<title>ID_117_ct0_st01X&#45;&gt;ID_117_ct0_st0</title>
<path fill="none" stroke="black" d="M566.26,-461.35C559.8,-463.53 553.3,-465.58 547,-467.33 529.76,-472.14 510.82,-476.17 493.2,-479.42"/>
<polygon fill="black" stroke="black" points="492.23,-476.04 483,-481.25 493.46,-482.93 492.23,-476.04"/>
<text text-anchor="start" x="512" y="-482.13" font-family="arial" font-size="14.00" fill="#377eb8">true</text>
</g>
<!-- ID_117_ct0_st01X&#45;&gt;ID_117_ct0_st01X -->
<g id="edge15" class="edge">
<title>ID_117_ct0_st01X&#45;&gt;ID_117_ct0_st01X</title>
<path fill="none" stroke="black" d="M610.2,-461.51C609.32,-471.24 615.92,-479.33 630,-479.33 638.8,-479.33 644.68,-476.17 647.63,-471.43"/>
<polygon fill="black" stroke="black" points="651.08,-472.02 649.8,-461.51 644.24,-470.53 651.08,-472.02"/>
<text text-anchor="start" x="611" y="-483.13" font-family="arial" font-size="14.00" fill="#377eb8">c0 &lt; 5</text>
</g>
<!-- ID_117_ct0_st01X&#45;&gt;ID_117_ct0_st01 -->
<g id="edge16" class="edge">
<title>ID_117_ct0_st01X&#45;&gt;ID_117_ct0_st01</title>
<path fill="none" stroke="black" d="M695.39,-457.25C740.88,-470.18 803.54,-484.33 860,-484.33 860,-484.33 860,-484.33 1276,-484.33 1572.6,-484.33 1648.81,-479.28 1941,-428.33 1943.66,-427.87 1946.36,-427.36 1949.08,-426.83"/>
<polygon fill="black" stroke="black" points="1949.91,-430.23 1958.97,-424.74 1948.47,-423.38 1949.91,-430.23"/>
<text text-anchor="start" x="1252" y="-488.13" font-family="arial" font-size="14.00" fill="#377eb8">c0 &gt;= 5</text>
</g>
<!-- ID_117_ct0_st01X&#45;&gt;ID_117_ct0_st0123W -->
<g id="edge17" class="edge">
<title>ID_117_ct0_st01X&#45;&gt;ID_117_ct0_st0123W</title>
<path fill="none" stroke="black" d="M636.9,-411.23C646.61,-375.51 669.37,-310.36 713,-274.33 729.01,-261.12 748.95,-252.05 768.93,-245.84"/>
<polygon fill="black" stroke="black" points="770.09,-249.15 778.73,-243.02 768.15,-242.43 770.09,-249.15"/>
<text text-anchor="start" x="714" y="-293.13" font-family="arial" font-size="14.00" fill="#377eb8">c0 &gt;= 5</text>
<text text-anchor="start" x="718" y="-278.13" font-family="arial" font-size="14.00">c1 :=0</text>
</g>
<!-- ID_117_ct0_st01&#45;&gt;ID_117_ct0_st -->
<g id="edge18" class="edge">
<title>ID_117_ct0_st01&#45;&gt;ID_117_ct0_st</title>
<path fill="none" stroke="black" d="M2112.12,-403.33C2124.99,-403.33 2138.22,-403.33 2150.69,-403.33"/>
<polygon fill="black" stroke="black" points="2150.96,-406.83 2160.96,-403.33 2150.96,-399.83 2150.96,-406.83"/>
<text text-anchor="start" x="2130" y="-407.13" font-family="arial" font-size="14.00" fill="#377eb8">P&#39;</text>
</g>
<!-- ID_117_ct0_st01&#45;&gt;ID_117_ct0_st0 -->
<g id="edge19" class="edge">
<title>ID_117_ct0_st01&#45;&gt;ID_117_ct0_st0</title>
<path fill="none" stroke="black" d="M2015.11,-428.42C1969.96,-483.74 1851.61,-611.33 1720.5,-611.33 629,-611.33 629,-611.33 629,-611.33 559.9,-611.33 494.23,-558.18 457.56,-522.04"/>
<polygon fill="black" stroke="black" points="459.72,-519.24 450.19,-514.61 454.75,-524.17 459.72,-519.24"/>
<text text-anchor="start" x="1098.5" y="-615.13" font-family="arial" font-size="14.00" fill="#377eb8">true</text>
</g>
<!-- ID_117_ct0_st01&#45;&gt;ID_117_ct0_st01 -->
<g id="edge20" class="edge">
<title>ID_117_ct0_st01&#45;&gt;ID_117_ct0_st01</title>
<path fill="none" stroke="black" d="M2016.82,-428.51C2015.99,-438.24 2022.22,-446.33 2035.5,-446.33 2043.8,-446.33 2049.35,-443.17 2052.13,-438.43"/>
<polygon fill="black" stroke="black" points="2055.59,-439.01 2054.18,-428.51 2048.73,-437.6 2055.59,-439.01"/>
<text text-anchor="start" x="2023.5" y="-450.13" font-family="arial" font-size="14.00" fill="#377eb8">true</text>
</g>
<!-- ID_117_ct0_st01&#45;&gt;ID_117_ct0_st0123W -->
<g id="edge21" class="edge">
<title>ID_117_ct0_st01&#45;&gt;ID_117_ct0_st0123W</title>
<path fill="none" stroke="black" d="M1958.78,-391.57C1952.77,-390.77 1946.79,-390.01 1941,-389.33 1741.21,-365.98 1690.96,-360.16 1490,-351.33 1486.33,-351.17 964.33,-350.88 961,-349.33 924.33,-332.24 896.3,-294.18 879.58,-266.09"/>
<polygon fill="black" stroke="black" points="882.57,-264.28 874.55,-257.36 876.51,-267.77 882.57,-264.28"/>
<text text-anchor="start" x="1411" y="-370.13" font-family="arial" font-size="14.00" fill="#377eb8">true</text>
<text text-anchor="start" x="1404" y="-355.13" font-family="arial" font-size="14.00">c1 :=0</text>
</g>
<!-- ID_117_ct0_st0123W&#45;&gt;ID_117_ct0_st -->
<g id="edge41" class="edge">
<title>ID_117_ct0_st0123W&#45;&gt;ID_117_ct0_st</title>
<path fill="none" stroke="black" d="M937.65,-207.18C939.53,-205.66 941.32,-204.04 943,-202.33 959.87,-185.21 949.48,-172.43 961,-151.33 983.92,-109.35 991.14,-97.99 1027,-66.33 1058.97,-38.11 1066.85,-17.33 1109.5,-17.33 1109.5,-17.33 1109.5,-17.33 2036.5,-17.33 2189.94,-17.33 2210.54,-272.7 2212.88,-368.02"/>
<polygon fill="black" stroke="black" points="2209.39,-368.37 2213.08,-378.3 2216.39,-368.24 2209.39,-368.37"/>
<text text-anchor="start" x="1560.5" y="-21.13" font-family="arial" font-size="14.00" fill="#377eb8">P&#39;</text>
</g>
<!-- ID_117_ct0_st0123W&#45;&gt;ID_117_ct0_st0 -->
<g id="edge42" class="edge">
<title>ID_117_ct0_st0123W&#45;&gt;ID_117_ct0_st0</title>
<path fill="none" stroke="black" d="M778.87,-232.62C756.83,-234.96 733.42,-239.61 713,-248.33 601.78,-295.8 501.14,-401.95 454.65,-456.13"/>
<polygon fill="black" stroke="black" points="451.73,-454.16 447.93,-464.05 457.07,-458.69 451.73,-454.16"/>
<text text-anchor="start" x="606" y="-348.13" font-family="arial" font-size="14.00" fill="#377eb8">(P&#39; || T&#39;)</text>
</g>
<!-- ID_117_ct0_st0123W&#45;&gt;ID_117_ct0_st01 -->
<g id="edge44" class="edge">
<title>ID_117_ct0_st0123W&#45;&gt;ID_117_ct0_st01</title>
<path fill="none" stroke="black" d="M872.52,-257.4C887.19,-288.76 917.03,-341.15 961,-364.33 1131.4,-454.16 1725.8,-424.41 1948.96,-409.58"/>
<polygon fill="black" stroke="black" points="1949.24,-413.07 1958.99,-408.9 1948.77,-406.08 1949.24,-413.07"/>
<text text-anchor="start" x="1399" y="-431.13" font-family="arial" font-size="14.00" fill="#377eb8">(P&#39; || T&#39;)</text>
</g>
<!-- ID_117_ct0_st0123W&#45;&gt;ID_117_ct0_st0123W -->
<g id="edge46" class="edge">
<title>ID_117_ct0_st0123W&#45;&gt;ID_117_ct0_st0123W</title>
<path fill="none" stroke="black" d="M837.84,-257.51C836.81,-267.24 844.53,-275.33 861,-275.33 871.29,-275.33 878.17,-272.17 881.63,-267.43"/>
<polygon fill="black" stroke="black" points="885.08,-268.06 884.16,-257.51 878.29,-266.33 885.08,-268.06"/>
<text text-anchor="start" x="838" y="-279.13" font-family="arial" font-size="14.00" fill="#377eb8">c1 &lt; 10</text>
</g>
<!-- ID_117_ct0_st03W -->
<g id="node10" class="node">
<title>ID_117_ct0_st03W</title>
<polygon fill="none" stroke="black" points="1490,-179.33 1356,-179.33 1356,-129.33 1490,-129.33 1490,-179.33"/>
<text text-anchor="start" x="1364" y="-165.13" font-family="arial" font-weight="bold" font-size="14.00">ID_117_ct0_st03W</text>
<text text-anchor="start" x="1369" y="-151.13" font-family="arial" font-size="14.00" fill="#984ea3">(!P &amp;&amp; (!R &amp;&amp; !T))</text>
<text text-anchor="start" x="1396" y="-137.13" font-family="arial" font-size="14.00" fill="#ff7f00">c1 &lt;= 10</text>
</g>
<!-- ID_117_ct0_st0123W&#45;&gt;ID_117_ct0_st03W -->
<g id="edge43" class="edge">
<title>ID_117_ct0_st0123W&#45;&gt;ID_117_ct0_st03W</title>
<path fill="none" stroke="black" d="M943.28,-238.25C1039.77,-242.71 1204.42,-242.17 1338,-200.33 1350.39,-196.45 1363.05,-190.65 1374.64,-184.47"/>
<polygon fill="black" stroke="black" points="1376.64,-187.37 1383.7,-179.46 1373.25,-181.25 1376.64,-187.37"/>
<text text-anchor="start" x="1051.5" y="-244.13" font-family="arial" font-size="14.00" fill="#377eb8">(P&#39; || (R&#39; || c1 &lt; 10))</text>
</g>
<!-- ID_117_ct0_st013W -->
<g id="node12" class="node">
<title>ID_117_ct0_st013W</title>
<polygon fill="none" stroke="black" points="1194,-125.33 1027,-125.33 1027,-75.33 1194,-75.33 1194,-125.33"/>
<text text-anchor="start" x="1047.5" y="-111.13" font-family="arial" font-weight="bold" font-size="14.00">ID_117_ct0_st013W</text>
<text text-anchor="start" x="1035" y="-97.13" font-family="arial" font-size="14.00" fill="#984ea3">(!P &amp;&amp; (R &amp;&amp; (!S &amp;&amp; !T)))</text>
<text text-anchor="start" x="1083.5" y="-83.13" font-family="arial" font-size="14.00" fill="#ff7f00">c1 &lt;= 10</text>
</g>
<!-- ID_117_ct0_st0123W&#45;&gt;ID_117_ct0_st013W -->
<g id="edge45" class="edge">
<title>ID_117_ct0_st0123W&#45;&gt;ID_117_ct0_st013W</title>
<path fill="none" stroke="black" d="M943.05,-221.13C965.32,-215.93 988.86,-208.35 1009,-197.33 1038.05,-181.44 1064.7,-154.9 1083.25,-133.6"/>
<polygon fill="black" stroke="black" points="1086.14,-135.6 1089.95,-125.72 1080.81,-131.07 1086.14,-135.6"/>
<text text-anchor="start" x="962" y="-220.13" font-family="arial" font-size="14.00" fill="#377eb8">c1 &lt; 10</text>
</g>
<!-- ID_117_ct0_st03W&#45;&gt;ID_117_ct0_st -->
<g id="edge22" class="edge">
<title>ID_117_ct0_st03W&#45;&gt;ID_117_ct0_st</title>
<path fill="none" stroke="black" d="M1490.22,-147.49C1621.01,-137.44 1916.68,-132.26 2112,-263.33 2151.3,-289.7 2180.55,-336.81 2197.19,-369.04"/>
<polygon fill="black" stroke="black" points="2194.13,-370.75 2201.75,-378.11 2200.38,-367.6 2194.13,-370.75"/>
<text text-anchor="start" x="1870.5" y="-188.13" font-family="arial" font-size="14.00" fill="#377eb8">P&#39;</text>
</g>
<!-- ID_117_ct0_st03W&#45;&gt;ID_117_ct0_st0 -->
<g id="edge23" class="edge">
<title>ID_117_ct0_st03W&#45;&gt;ID_117_ct0_st0</title>
<path fill="none" stroke="black" d="M1355.69,-159.04C1310.22,-162.04 1248.49,-165.66 1194,-167.33 1142.25,-168.92 1012.73,-166.09 961,-168.33 879.91,-171.84 858.52,-167.11 779,-183.33 680.81,-203.37 643.7,-192.29 565,-254.33 497.66,-307.42 456.71,-403.27 438.57,-454.62"/>
<polygon fill="black" stroke="black" points="435.19,-453.68 435.24,-464.28 441.81,-455.96 435.19,-453.68"/>
<text text-anchor="start" x="837" y="-187.13" font-family="arial" font-size="14.00" fill="#377eb8">(P&#39; || T&#39;)</text>
</g>
<!-- ID_117_ct0_st03W&#45;&gt;ID_117_ct0_st01X -->
<g id="edge25" class="edge">
<title>ID_117_ct0_st03W&#45;&gt;ID_117_ct0_st01X</title>
<path fill="none" stroke="black" d="M1399.19,-179.45C1383.4,-195.48 1361.14,-215.56 1338,-228.33 1281.47,-259.52 874.53,-370.84 704.92,-416.54"/>
<polygon fill="black" stroke="black" points="703.82,-413.21 695.07,-419.19 705.64,-419.97 703.82,-413.21"/>
<text text-anchor="start" x="961" y="-364.13" font-family="arial" font-size="14.00" fill="#377eb8">(P&#39; || T&#39;)</text>
<text text-anchor="start" x="966" y="-349.13" font-family="arial" font-size="14.00">c0 :=0</text>
</g>
<!-- ID_117_ct0_st03W&#45;&gt;ID_117_ct0_st03W -->
<g id="edge24" class="edge">
<title>ID_117_ct0_st03W&#45;&gt;ID_117_ct0_st03W</title>
<path fill="none" stroke="black" d="M1396.11,-179.51C1394.91,-189.24 1403.88,-197.33 1423,-197.33 1434.95,-197.33 1442.94,-194.17 1446.95,-189.43"/>
<polygon fill="black" stroke="black" points="1450.41,-190.09 1449.89,-179.51 1443.7,-188.1 1450.41,-190.09"/>
<text text-anchor="start" x="1400" y="-201.13" font-family="arial" font-size="14.00" fill="#377eb8">c1 &lt; 10</text>
</g>
<!-- ID_117_ct0_st01X3W -->
<g id="node11" class="node">
<title>ID_117_ct0_st01X3W</title>
<polygon fill="none" stroke="black" points="1795,-275.33 1644,-275.33 1644,-225.33 1795,-225.33 1795,-275.33"/>
<text text-anchor="start" x="1652" y="-261.13" font-family="arial" font-weight="bold" font-size="14.00">ID_117_ct0_st01X3W</text>
<text text-anchor="start" x="1667.5" y="-247.13" font-family="arial" font-size="14.00" fill="#984ea3">(!P &amp;&amp; (R &amp;&amp; !T))</text>
<text text-anchor="start" x="1652.5" y="-233.13" font-family="arial" font-size="14.00" fill="#ff7f00">(c0 &lt;= 5 &amp;&amp; c1 &lt;= 10)</text>
</g>
<!-- ID_117_ct0_st03W&#45;&gt;ID_117_ct0_st01X3W -->
<g id="edge26" class="edge">
<title>ID_117_ct0_st03W&#45;&gt;ID_117_ct0_st01X3W</title>
<path fill="none" stroke="black" d="M1490.27,-176.44C1496.24,-178.18 1502.21,-179.84 1508,-181.33 1559.75,-194.64 1575.4,-187.17 1626,-204.33 1638.86,-208.69 1652.2,-214.5 1664.62,-220.51"/>
<polygon fill="black" stroke="black" points="1663.39,-223.81 1673.91,-225.13 1666.51,-217.54 1663.39,-223.81"/>
<text text-anchor="start" x="1544" y="-223.13" font-family="arial" font-size="14.00" fill="#377eb8">c1 &lt; 10</text>
<text text-anchor="start" x="1548" y="-208.13" font-family="arial" font-size="14.00">c0 :=0</text>
</g>
<!-- ID_117_ct0_st01X3W&#45;&gt;ID_117_ct0_st -->
<g id="edge27" class="edge">
<title>ID_117_ct0_st01X3W&#45;&gt;ID_117_ct0_st</title>
<path fill="none" stroke="black" d="M1795.24,-245.71C1838.53,-245 1893.66,-247.5 1941,-260.33 2027.4,-283.75 2117.39,-337.9 2169.15,-372.44"/>
<polygon fill="black" stroke="black" points="2167.49,-375.54 2177.74,-378.23 2171.4,-369.74 2167.49,-375.54"/>
<text text-anchor="start" x="2029" y="-339.13" font-family="arial" font-size="14.00" fill="#377eb8">P&#39;</text>
</g>
<!-- ID_117_ct0_st01X3W&#45;&gt;ID_117_ct0_st0 -->
<g id="edge28" class="edge">
<title>ID_117_ct0_st01X3W&#45;&gt;ID_117_ct0_st0</title>
<path fill="none" stroke="black" d="M1709.12,-275.51C1695.57,-308.68 1667.5,-366.86 1626,-401.33 1499.4,-506.5 1440.59,-522.33 1276,-522.33 629,-522.33 629,-522.33 629,-522.33 583.18,-522.33 532.27,-513.92 493.08,-505.59"/>
<polygon fill="black" stroke="black" points="493.64,-502.13 483.12,-503.42 492.15,-508.97 493.64,-502.13"/>
<text text-anchor="start" x="961" y="-526.13" font-family="arial" font-size="14.00" fill="#377eb8">(P&#39; || T&#39;)</text>
</g>
<!-- ID_117_ct0_st01X3W&#45;&gt;ID_117_ct0_st01X -->
<g id="edge30" class="edge">
<title>ID_117_ct0_st01X3W&#45;&gt;ID_117_ct0_st01X</title>
<path fill="none" stroke="black" d="M1697.44,-275.67C1660.58,-317.79 1579.69,-400.74 1490,-432.33 1417.19,-457.98 900.27,-444.76 705.24,-438.76"/>
<polygon fill="black" stroke="black" points="705.18,-435.26 695.08,-438.45 704.97,-442.26 705.18,-435.26"/>
<text text-anchor="start" x="1050.5" y="-452.13" font-family="arial" font-size="14.00" fill="#377eb8">(P&#39; || (T&#39; &amp;&amp; c0 &lt; 5))</text>
</g>
<!-- ID_117_ct0_st01X3W&#45;&gt;ID_117_ct0_st01 -->
<g id="edge32" class="edge">
<title>ID_117_ct0_st01X3W&#45;&gt;ID_117_ct0_st01</title>
<path fill="none" stroke="black" d="M1795.04,-259.76C1839.67,-267.81 1896.22,-282.38 1941,-308.33 1968.04,-324.01 1992.58,-349.59 2009.72,-370.26"/>
<polygon fill="black" stroke="black" points="2007.14,-372.62 2016.15,-378.19 2012.58,-368.22 2007.14,-372.62"/>
<text text-anchor="start" x="1813" y="-312.13" font-family="arial" font-size="14.00" fill="#377eb8">(P&#39; || (T&#39; &amp;&amp; c0 &gt;= 5))</text>
</g>
<!-- ID_117_ct0_st01X3W&#45;&gt;ID_117_ct0_st0123W -->
<g id="edge34" class="edge">
<title>ID_117_ct0_st01X3W&#45;&gt;ID_117_ct0_st0123W</title>
<path fill="none" stroke="black" d="M1643.77,-253.79C1516.92,-259.1 1251.36,-267.82 1027,-259.33 997.6,-258.22 990.1,-258.65 961,-254.33 958.45,-253.95 955.86,-253.55 953.26,-253.12"/>
<polygon fill="black" stroke="black" points="953.59,-249.62 943.14,-251.34 952.38,-256.52 953.59,-249.62"/>
<text text-anchor="start" x="1212" y="-267.13" font-family="arial" font-size="14.00" fill="#377eb8">(c0 &gt;= 5 &amp;&amp; c1 &lt; 10)</text>
</g>
<!-- ID_117_ct0_st01X3W&#45;&gt;ID_117_ct0_st03W -->
<g id="edge29" class="edge">
<title>ID_117_ct0_st01X3W&#45;&gt;ID_117_ct0_st03W</title>
<path fill="none" stroke="black" d="M1675.78,-225.18C1664.54,-217.24 1653.04,-207.77 1644,-197.33 1632.55,-184.11 1640.75,-171.74 1626,-162.33 1605.59,-149.32 1548.53,-148.01 1500.24,-149.56"/>
<polygon fill="black" stroke="black" points="1499.95,-146.07 1490.08,-149.94 1500.2,-153.07 1499.95,-146.07"/>
<text text-anchor="start" x="1508" y="-166.13" font-family="arial" font-size="14.00" fill="#377eb8">(P&#39; || (R&#39; || c1 &lt; 10))</text>
</g>
<!-- ID_117_ct0_st01X3W&#45;&gt;ID_117_ct0_st01X3W -->
<g id="edge31" class="edge">
<title>ID_117_ct0_st01X3W&#45;&gt;ID_117_ct0_st01X3W</title>
<path fill="none" stroke="black" d="M1691.11,-275.51C1689.85,-285.24 1699.31,-293.33 1719.5,-293.33 1732.12,-293.33 1740.55,-290.17 1744.78,-285.43"/>
<polygon fill="black" stroke="black" points="1748.24,-286.1 1747.89,-275.51 1741.56,-284.01 1748.24,-286.1"/>
<text text-anchor="start" x="1660.5" y="-297.13" font-family="arial" font-size="14.00" fill="#377eb8">(c0 &lt; 5 &amp;&amp; c1 &lt; 10)</text>
</g>
<!-- ID_117_ct0_st01X3W&#45;&gt;ID_117_ct0_st013W -->
<g id="edge33" class="edge">
<title>ID_117_ct0_st01X3W&#45;&gt;ID_117_ct0_st013W</title>
<path fill="none" stroke="black" d="M1643.96,-244.84C1603.69,-241.83 1553.12,-237.98 1508,-234.33 1440.42,-228.87 1421.71,-238.03 1356,-221.33 1288.3,-204.13 1274.35,-189.84 1212,-158.33 1195.16,-149.82 1177.19,-139.78 1161.17,-130.46"/>
<polygon fill="black" stroke="black" points="1162.89,-127.41 1152.49,-125.37 1159.35,-133.45 1162.89,-127.41"/>
<text text-anchor="start" x="1360" y="-237.13" font-family="arial" font-size="14.00" fill="#377eb8">(c0 &gt;= 5 &amp;&amp; c1 &lt; 10)</text>
</g>
<!-- ID_117_ct0_st013W&#45;&gt;ID_117_ct0_st -->
<g id="edge35" class="edge">
<title>ID_117_ct0_st013W&#45;&gt;ID_117_ct0_st</title>
<path fill="none" stroke="black" d="M1194.21,-85.07C1256.58,-74.88 1344.37,-63.33 1422,-63.33 1422,-63.33 1422,-63.33 2036.5,-63.33 2172.81,-63.33 2203.99,-281.25 2211,-368.17"/>
<polygon fill="black" stroke="black" points="2207.53,-368.62 2211.76,-378.33 2214.51,-368.1 2207.53,-368.62"/>
<text text-anchor="start" x="1713" y="-67.13" font-family="arial" font-size="14.00" fill="#377eb8">P&#39;</text>
</g>
<!-- ID_117_ct0_st013W&#45;&gt;ID_117_ct0_st0 -->
<g id="edge36" class="edge">
<title>ID_117_ct0_st013W&#45;&gt;ID_117_ct0_st0</title>
<path fill="none" stroke="black" d="M1026.76,-77.61C897.61,-47.62 647.75,-12.42 501,-140.33 453.98,-181.31 435.45,-373.92 429.69,-454.13"/>
<polygon fill="black" stroke="black" points="426.18,-454.02 428.98,-464.24 433.17,-454.5 426.18,-454.02"/>
<text text-anchor="start" x="713" y="-58.13" font-family="arial" font-size="14.00" fill="#377eb8">(P&#39; || T&#39;)</text>
</g>
<!-- ID_117_ct0_st013W&#45;&gt;ID_117_ct0_st01 -->
<g id="edge38" class="edge">
<title>ID_117_ct0_st013W&#45;&gt;ID_117_ct0_st01</title>
<path fill="none" stroke="black" d="M1194.3,-96.42C1297.04,-93.54 1476.89,-95.04 1626,-130.33 1662.85,-139.05 1917.07,-230.99 1941,-260.33 1967.89,-293.29 1935.26,-319.04 1959,-354.33 1963.42,-360.9 1969.04,-366.78 1975.22,-372"/>
<polygon fill="black" stroke="black" points="1973.24,-374.89 1983.29,-378.25 1977.52,-369.36 1973.24,-374.89"/>
<text text-anchor="start" x="1543" y="-134.13" font-family="arial" font-size="14.00" fill="#377eb8">(P&#39; || T&#39;)</text>
</g>
<!-- ID_117_ct0_st013W&#45;&gt;ID_117_ct0_st0123W -->
<g id="edge40" class="edge">
<title>ID_117_ct0_st013W&#45;&gt;ID_117_ct0_st0123W</title>
<path fill="none" stroke="black" d="M1062.54,-125.38C1021.48,-147.28 961.76,-179.12 918.18,-202.37"/>
<polygon fill="black" stroke="black" points="916.31,-199.4 909.14,-207.19 919.61,-205.58 916.31,-199.4"/>
<text text-anchor="start" x="962" y="-182.13" font-family="arial" font-size="14.00" fill="#377eb8">c1 &lt; 10</text>
</g>
<!-- ID_117_ct0_st013W&#45;&gt;ID_117_ct0_st03W -->
<g id="edge37" class="edge">
<title>ID_117_ct0_st013W&#45;&gt;ID_117_ct0_st03W</title>
<path fill="none" stroke="black" d="M1194.3,-114.73C1241.42,-122.93 1300,-133.12 1345.95,-141.11"/>
<polygon fill="black" stroke="black" points="1345.4,-144.56 1355.85,-142.83 1346.6,-137.67 1345.4,-144.56"/>
<text text-anchor="start" x="1216" y="-143.13" font-family="arial" font-size="14.00" fill="#377eb8">(P&#39; || (R&#39; || c1 &lt; 10))</text>
</g>
<!-- ID_117_ct0_st013W&#45;&gt;ID_117_ct0_st013W -->
<g id="edge39" class="edge">
<title>ID_117_ct0_st013W&#45;&gt;ID_117_ct0_st013W</title>
<path fill="none" stroke="black" d="M1087.34,-125.51C1086.31,-135.24 1094.03,-143.33 1110.5,-143.33 1120.79,-143.33 1127.67,-140.17 1131.13,-135.43"/>
<polygon fill="black" stroke="black" points="1134.58,-136.06 1133.66,-125.51 1127.79,-134.33 1134.58,-136.06"/>
<text text-anchor="start" x="1087.5" y="-147.13" font-family="arial" font-size="14.00" fill="#377eb8">c1 &lt; 10</text>
</g>
</g>
</svg>
