<?xml version="1.0" encoding="UTF-8" standalone="no"?>
<!DOCTYPE svg PUBLIC "-//W3C//DTD SVG 1.1//EN"
 "http://www.w3.org/Graphics/SVG/1.1/DTD/svg11.dtd">
<!-- Generated by graphviz version 2.43.0 (0)
 -->
<!-- Title: G Pages: 1 -->
<svg width="1258pt" height="353pt"
 viewBox="0.00 0.00 1258.00 353.00" xmlns="http://www.w3.org/2000/svg" xmlns:xlink="http://www.w3.org/1999/xlink">
<g id="graph0" class="graph" transform="scale(1 1) rotate(0) translate(4 349)">
<title>G</title>
<polygon fill="white" stroke="transparent" points="-4,4 -4,-349 1254,-349 1254,4 -4,4"/>
<!-- _st0 -->
<!-- st0 -->
<g id="node2" class="node">
<title>st0</title>
<polygon fill="none" stroke="black" points="156,-92 91,-92 91,-42 156,-42 156,-92"/>
<text text-anchor="start" x="113.5" y="-77.8" font-family="arial" font-weight="bold" font-size="14.00">st0</text>
<text text-anchor="start" x="99" y="-63.8" font-family="arial" font-size="14.00" fill="#984ea3">(R || !Q)</text>
<text text-anchor="start" x="111.5" y="-49.8" font-family="arial" font-size="14.00" fill="#ff7f00">true</text>
</g>
<!-- _st0&#45;&gt;st0 -->
<g id="edge1" class="edge">
<title>_st0&#45;&gt;st0</title>
<path fill="none" stroke="black" d="M54.07,-67C62.33,-67 71.67,-67 80.74,-67"/>
<polygon fill="black" stroke="black" points="80.79,-70.5 90.79,-67 80.79,-63.5 80.79,-70.5"/>
</g>
<!-- st0&#45;&gt;st0 -->
<g id="edge4" class="edge">
<title>st0&#45;&gt;st0</title>
<path fill="none" stroke="black" d="M114.16,-92.18C113.75,-101.91 116.86,-110 123.5,-110 127.55,-110 130.28,-107 131.71,-102.45"/>
<polygon fill="black" stroke="black" points="135.23,-102.5 132.84,-92.18 128.27,-101.73 135.23,-102.5"/>
<text text-anchor="start" x="111.5" y="-113.8" font-family="arial" font-size="14.00" fill="#377eb8">true</text>
</g>
<!-- st012 -->
<g id="node4" class="node">
<title>st012</title>
<polygon fill="none" stroke="black" points="335,-159 216,-159 216,-109 335,-109 335,-159"/>
<text text-anchor="start" x="258" y="-144.8" font-family="arial" font-weight="bold" font-size="14.00">st012</text>
<text text-anchor="start" x="224" y="-130.8" font-family="arial" font-size="14.00" fill="#984ea3">(Q &amp;&amp; (!R &amp;&amp; S))</text>
<text text-anchor="start" x="263.5" y="-116.8" font-family="arial" font-size="14.00" fill="#ff7f00">true</text>
</g>
<!-- st0&#45;&gt;st012 -->
<g id="edge5" class="edge">
<title>st0&#45;&gt;st012</title>
<path fill="none" stroke="black" d="M156.16,-79.41C169.2,-84.66 184.4,-90.94 198,-97 203.35,-99.38 208.89,-101.92 214.42,-104.5"/>
<polygon fill="black" stroke="black" points="213.15,-107.77 223.68,-108.87 216.13,-101.44 213.15,-107.77"/>
<text text-anchor="start" x="174" y="-100.8" font-family="arial" font-size="14.00" fill="#377eb8">true</text>
</g>
<!-- st01234 -->
<g id="node6" class="node">
<title>st01234</title>
<polygon fill="none" stroke="black" points="888,-163 765,-163 765,-113 888,-113 888,-163"/>
<text text-anchor="start" x="801.5" y="-148.8" font-family="arial" font-weight="bold" font-size="14.00">st01234</text>
<text text-anchor="start" x="773" y="-134.8" font-family="arial" font-size="14.00" fill="#984ea3">(Q &amp;&amp; (!R &amp;&amp; !S))</text>
<text text-anchor="start" x="814.5" y="-120.8" font-family="arial" font-size="14.00" fill="#ff7f00">true</text>
</g>
<!-- st0&#45;&gt;st01234 -->
<g id="edge6" class="edge">
<title>st0&#45;&gt;st01234</title>
<path fill="none" stroke="black" d="M156.04,-43.57C185.22,-24.25 230.58,0 274.5,0 274.5,0 274.5,0 642.5,0 711.74,0 771.4,-63.76 802.52,-104.6"/>
<polygon fill="black" stroke="black" points="799.76,-106.76 808.54,-112.69 805.37,-102.58 799.76,-106.76"/>
<text text-anchor="start" x="444.5" y="-3.8" font-family="arial" font-size="14.00" fill="#377eb8">true</text>
</g>
<!-- _st012 -->
<!-- _st012&#45;&gt;st012 -->
<g id="edge2" class="edge">
<title>_st012&#45;&gt;st012</title>
<path fill="none" stroke="black" d="M152.1,-158.87C165.89,-156.27 182.84,-153.03 198,-150 200.5,-149.5 203.05,-148.99 205.62,-148.47"/>
<polygon fill="black" stroke="black" points="206.53,-151.85 215.63,-146.42 205.13,-144.99 206.53,-151.85"/>
</g>
<!-- st012&#45;&gt;st0 -->
<g id="edge12" class="edge">
<title>st012&#45;&gt;st0</title>
<path fill="none" stroke="black" d="M215.84,-126.52C201.64,-123.28 186.85,-118.64 174,-112 167.26,-108.52 160.74,-103.89 154.76,-98.91"/>
<polygon fill="black" stroke="black" points="156.78,-96.03 146.98,-92 152.13,-101.26 156.78,-96.03"/>
<text text-anchor="start" x="179.5" y="-124.8" font-family="arial" font-size="14.00" fill="#377eb8">R&#39;</text>
</g>
<!-- st012&#45;&gt;st012 -->
<g id="edge15" class="edge">
<title>st012&#45;&gt;st012</title>
<path fill="none" stroke="black" d="M259.06,-159.18C258.33,-168.91 263.81,-177 275.5,-177 282.8,-177 287.68,-173.84 290.14,-169.09"/>
<polygon fill="black" stroke="black" points="293.6,-169.64 291.94,-159.18 286.71,-168.39 293.6,-169.64"/>
<text text-anchor="start" x="263.5" y="-180.8" font-family="arial" font-size="14.00" fill="#377eb8">true</text>
</g>
<!-- st012&#45;&gt;st01234 -->
<g id="edge16" class="edge">
<title>st012&#45;&gt;st01234</title>
<path fill="none" stroke="black" d="M335.24,-120.25C354.2,-116.44 375.39,-112.85 395,-111 521.45,-99.06 669.31,-114.8 754.71,-126.77"/>
<polygon fill="black" stroke="black" points="754.41,-130.27 764.81,-128.21 755.4,-123.34 754.41,-130.27"/>
<text text-anchor="start" x="536" y="-111.8" font-family="arial" font-size="14.00" fill="#377eb8">true</text>
</g>
<!-- st02 -->
<g id="node7" class="node">
<title>st02</title>
<polygon fill="none" stroke="black" points="518,-170 395,-170 395,-120 518,-120 518,-170"/>
<text text-anchor="start" x="442.5" y="-155.8" font-family="arial" font-weight="bold" font-size="14.00">st02</text>
<text text-anchor="start" x="403" y="-141.8" font-family="arial" font-size="14.00" fill="#984ea3">(!Q &amp;&amp; (!R &amp;&amp; S))</text>
<text text-anchor="start" x="444.5" y="-127.8" font-family="arial" font-size="14.00" fill="#ff7f00">true</text>
</g>
<!-- st012&#45;&gt;st02 -->
<g id="edge13" class="edge">
<title>st012&#45;&gt;st02</title>
<path fill="none" stroke="black" d="M335.03,-124.53C348.82,-123.47 363.44,-123.3 377,-125 379.66,-125.33 382.35,-125.73 385.06,-126.17"/>
<polygon fill="black" stroke="black" points="384.47,-129.62 394.93,-127.98 385.73,-122.73 384.47,-129.62"/>
<text text-anchor="start" x="353" y="-128.8" font-family="arial" font-size="14.00" fill="#377eb8">true</text>
</g>
<!-- st0234 -->
<g id="node8" class="node">
<title>st0234</title>
<polygon fill="none" stroke="black" points="705,-264 578,-264 578,-214 705,-214 705,-264"/>
<text text-anchor="start" x="620" y="-249.8" font-family="arial" font-weight="bold" font-size="14.00">st0234</text>
<text text-anchor="start" x="586" y="-235.8" font-family="arial" font-size="14.00" fill="#984ea3">(!Q &amp;&amp; (!R &amp;&amp; !S))</text>
<text text-anchor="start" x="629.5" y="-221.8" font-family="arial" font-size="14.00" fill="#ff7f00">true</text>
</g>
<!-- st012&#45;&gt;st0234 -->
<g id="edge14" class="edge">
<title>st012&#45;&gt;st0234</title>
<path fill="none" stroke="black" d="M306.01,-159.2C328.77,-177.12 361.86,-200.06 395,-212 450.76,-232.09 517.88,-238.36 567.83,-239.87"/>
<polygon fill="black" stroke="black" points="567.82,-243.37 577.91,-240.12 567.99,-236.37 567.82,-243.37"/>
<text text-anchor="start" x="444.5" y="-239.8" font-family="arial" font-size="14.00" fill="#377eb8">true</text>
</g>
<!-- _st01234 -->
<!-- _st01234&#45;&gt;st01234 -->
<g id="edge3" class="edge">
<title>_st01234&#45;&gt;st01234</title>
<path fill="none" stroke="black" d="M677.58,-53.43C698.46,-58.65 725.06,-66.72 747,-78 761.89,-85.66 776.84,-96.2 789.64,-106.31"/>
<polygon fill="black" stroke="black" points="787.74,-109.28 797.71,-112.86 792.15,-103.84 787.74,-109.28"/>
</g>
<!-- st01234&#45;&gt;st01234 -->
<g id="edge32" class="edge">
<title>st01234&#45;&gt;st01234</title>
<path fill="none" stroke="black" d="M809.69,-163.18C808.94,-172.91 814.55,-181 826.5,-181 833.97,-181 838.96,-177.84 841.47,-173.09"/>
<polygon fill="black" stroke="black" points="844.93,-173.65 843.31,-163.18 838.04,-172.37 844.93,-173.65"/>
<text text-anchor="start" x="814.5" y="-184.8" font-family="arial" font-size="14.00" fill="#377eb8">true</text>
</g>
<!-- st01234&#45;&gt;st0234 -->
<g id="edge30" class="edge">
<title>st01234&#45;&gt;st0234</title>
<path fill="none" stroke="black" d="M764.93,-150.97C750.69,-155.3 735.91,-160.88 723,-168 704.69,-178.09 686.96,-192.98 672.82,-206.52"/>
<polygon fill="black" stroke="black" points="670.03,-204.36 665.36,-213.86 674.94,-209.35 670.03,-204.36"/>
<text text-anchor="start" x="723" y="-171.8" font-family="arial" font-size="14.00" fill="#377eb8">true</text>
</g>
<!-- st024 -->
<g id="node9" class="node">
<title>st024</title>
<polygon fill="none" stroke="black" points="1250,-230 1127,-230 1127,-180 1250,-180 1250,-230"/>
<text text-anchor="start" x="1171" y="-215.8" font-family="arial" font-weight="bold" font-size="14.00">st024</text>
<text text-anchor="start" x="1135" y="-201.8" font-family="arial" font-size="14.00" fill="#984ea3">(!Q &amp;&amp; (!R &amp;&amp; S))</text>
<text text-anchor="start" x="1176.5" y="-187.8" font-family="arial" font-size="14.00" fill="#ff7f00">true</text>
</g>
<!-- st01234&#45;&gt;st024 -->
<g id="edge29" class="edge">
<title>st01234&#45;&gt;st024</title>
<path fill="none" stroke="black" d="M888.03,-142.66C936.74,-147.11 1006.77,-155.08 1067,-168 1083.3,-171.5 1100.57,-176.19 1116.79,-181.06"/>
<polygon fill="black" stroke="black" points="1116.15,-184.52 1126.74,-184.1 1118.2,-177.83 1116.15,-184.52"/>
<text text-anchor="start" x="995.5" y="-171.8" font-family="arial" font-size="14.00" fill="#377eb8">true</text>
</g>
<!-- st0124 -->
<g id="node10" class="node">
<title>st0124</title>
<polygon fill="none" stroke="black" points="1067,-242 948,-242 948,-192 1067,-192 1067,-242"/>
<text text-anchor="start" x="986" y="-227.8" font-family="arial" font-weight="bold" font-size="14.00">st0124</text>
<text text-anchor="start" x="956" y="-213.8" font-family="arial" font-size="14.00" fill="#984ea3">(Q &amp;&amp; (!R &amp;&amp; S))</text>
<text text-anchor="start" x="995.5" y="-199.8" font-family="arial" font-size="14.00" fill="#ff7f00">true</text>
</g>
<!-- st01234&#45;&gt;st0124 -->
<g id="edge31" class="edge">
<title>st01234&#45;&gt;st0124</title>
<path fill="none" stroke="black" d="M863.11,-163.05C876.18,-171.47 891.36,-180.39 906,-187 916.2,-191.61 927.3,-195.73 938.28,-199.34"/>
<polygon fill="black" stroke="black" points="937.28,-202.69 947.87,-202.38 939.39,-196.02 937.28,-202.69"/>
<text text-anchor="start" x="906" y="-198.8" font-family="arial" font-size="14.00" fill="#377eb8">true</text>
</g>
<!-- st02&#45;&gt;st0 -->
<g id="edge7" class="edge">
<title>st02&#45;&gt;st0</title>
<path fill="none" stroke="black" d="M414.95,-119.99C392.28,-107.27 363.01,-92.86 335,-85 278.07,-69.02 209.37,-66.03 166.29,-66"/>
<polygon fill="black" stroke="black" points="166.17,-62.5 156.18,-66.05 166.2,-69.5 166.17,-62.5"/>
<text text-anchor="start" x="269" y="-88.8" font-family="arial" font-size="14.00" fill="#377eb8">R&#39;</text>
</g>
<!-- st02&#45;&gt;st012 -->
<g id="edge10" class="edge">
<title>st02&#45;&gt;st012</title>
<path fill="none" stroke="black" d="M394.75,-145.61C381.01,-145.42 366.49,-144.94 353,-144 350.49,-143.82 347.93,-143.62 345.35,-143.39"/>
<polygon fill="black" stroke="black" points="345.61,-139.9 335.32,-142.41 344.93,-146.87 345.61,-139.9"/>
<text text-anchor="start" x="353" y="-148.8" font-family="arial" font-size="14.00" fill="#377eb8">true</text>
</g>
<!-- st02&#45;&gt;st01234 -->
<g id="edge11" class="edge">
<title>st02&#45;&gt;st01234</title>
<path fill="none" stroke="black" d="M518.27,-143.84C583.22,-142.61 686.09,-140.65 754.67,-139.35"/>
<polygon fill="black" stroke="black" points="755.02,-142.84 764.95,-139.15 754.88,-135.84 755.02,-142.84"/>
<text text-anchor="start" x="629.5" y="-145.8" font-family="arial" font-size="14.00" fill="#377eb8">true</text>
</g>
<!-- st02&#45;&gt;st02 -->
<g id="edge8" class="edge">
<title>st02&#45;&gt;st02</title>
<path fill="none" stroke="black" d="M439.69,-170.18C438.94,-179.91 444.55,-188 456.5,-188 463.97,-188 468.96,-184.84 471.47,-180.09"/>
<polygon fill="black" stroke="black" points="474.93,-180.65 473.31,-170.18 468.04,-179.37 474.93,-180.65"/>
<text text-anchor="start" x="444.5" y="-191.8" font-family="arial" font-size="14.00" fill="#377eb8">true</text>
</g>
<!-- st02&#45;&gt;st0234 -->
<g id="edge9" class="edge">
<title>st02&#45;&gt;st0234</title>
<path fill="none" stroke="black" d="M506.54,-170.19C529.92,-182.2 558.04,-196.65 582.48,-209.2"/>
<polygon fill="black" stroke="black" points="581.15,-212.45 591.64,-213.9 584.35,-206.22 581.15,-212.45"/>
<text text-anchor="start" x="536" y="-200.8" font-family="arial" font-size="14.00" fill="#377eb8">true</text>
</g>
<!-- st0234&#45;&gt;st01234 -->
<g id="edge28" class="edge">
<title>st0234&#45;&gt;st01234</title>
<path fill="none" stroke="black" d="M695.37,-213.92C712.07,-205.68 730.46,-196.25 747,-187 757.19,-181.3 767.93,-174.88 778.08,-168.62"/>
<polygon fill="black" stroke="black" points="780.18,-171.44 786.81,-163.18 776.48,-165.49 780.18,-171.44"/>
<text text-anchor="start" x="723" y="-202.8" font-family="arial" font-size="14.00" fill="#377eb8">true</text>
</g>
<!-- st0234&#45;&gt;st0234 -->
<g id="edge26" class="edge">
<title>st0234&#45;&gt;st0234</title>
<path fill="none" stroke="black" d="M624.32,-264.18C623.55,-273.91 629.28,-282 641.5,-282 649.14,-282 654.24,-278.84 656.8,-274.09"/>
<polygon fill="black" stroke="black" points="660.26,-274.65 658.68,-264.18 653.38,-273.35 660.26,-274.65"/>
<text text-anchor="start" x="629.5" y="-285.8" font-family="arial" font-size="14.00" fill="#377eb8">true</text>
</g>
<!-- st0234&#45;&gt;st024 -->
<g id="edge25" class="edge">
<title>st0234&#45;&gt;st024</title>
<path fill="none" stroke="black" d="M681.65,-264.06C704.91,-277.58 735.53,-293.08 765,-301 894.64,-335.83 937.82,-342.52 1067,-306 1105.87,-295.01 1140.07,-262.98 1162.01,-237.9"/>
<polygon fill="black" stroke="black" points="1164.88,-239.92 1168.69,-230.04 1159.55,-235.39 1164.88,-239.92"/>
<text text-anchor="start" x="906" y="-333.8" font-family="arial" font-size="14.00" fill="#377eb8">true</text>
</g>
<!-- st0234&#45;&gt;st0124 -->
<g id="edge27" class="edge">
<title>st0234&#45;&gt;st0124</title>
<path fill="none" stroke="black" d="M705.33,-245.41C711.3,-245.97 717.26,-246.51 723,-247 796.08,-253.24 815.33,-259.93 888,-250 904.38,-247.76 921.7,-243.86 937.88,-239.5"/>
<polygon fill="black" stroke="black" points="939.1,-242.8 947.79,-236.74 937.22,-236.05 939.1,-242.8"/>
<text text-anchor="start" x="814.5" y="-258.8" font-family="arial" font-size="14.00" fill="#377eb8">true</text>
</g>
<!-- st024&#45;&gt;st01234 -->
<g id="edge20" class="edge">
<title>st024&#45;&gt;st01234</title>
<path fill="none" stroke="black" d="M1169.77,-179.69C1148.91,-152.72 1111.44,-112.37 1067,-101 1010.94,-86.66 946,-98.4 897.89,-112.35"/>
<polygon fill="black" stroke="black" points="896.77,-109.03 888.2,-115.25 898.78,-115.73 896.77,-109.03"/>
<text text-anchor="start" x="995.5" y="-104.8" font-family="arial" font-size="14.00" fill="#377eb8">true</text>
</g>
<!-- st024&#45;&gt;st0234 -->
<g id="edge18" class="edge">
<title>st024&#45;&gt;st0234</title>
<path fill="none" stroke="black" d="M1159.73,-230.05C1136.74,-248.99 1102.24,-273.48 1067,-284 947,-319.83 800.45,-288.75 714.7,-263.48"/>
<polygon fill="black" stroke="black" points="715.64,-260.11 705.06,-260.59 713.63,-266.81 715.64,-260.11"/>
<text text-anchor="start" x="906" y="-302.8" font-family="arial" font-size="14.00" fill="#377eb8">true</text>
</g>
<!-- st024&#45;&gt;st024 -->
<g id="edge17" class="edge">
<title>st024&#45;&gt;st024</title>
<path fill="none" stroke="black" d="M1171.69,-230.18C1170.94,-239.91 1176.55,-248 1188.5,-248 1195.97,-248 1200.96,-244.84 1203.47,-240.09"/>
<polygon fill="black" stroke="black" points="1206.93,-240.65 1205.31,-230.18 1200.04,-239.37 1206.93,-240.65"/>
<text text-anchor="start" x="1176.5" y="-251.8" font-family="arial" font-size="14.00" fill="#377eb8">true</text>
</g>
<!-- st024&#45;&gt;st0124 -->
<g id="edge19" class="edge">
<title>st024&#45;&gt;st0124</title>
<path fill="none" stroke="black" d="M1126.91,-209.06C1110.92,-210.13 1093.55,-211.3 1077.16,-212.4"/>
<polygon fill="black" stroke="black" points="1076.85,-208.91 1067.11,-213.07 1077.32,-215.89 1076.85,-208.91"/>
<text text-anchor="start" x="1085" y="-214.8" font-family="arial" font-size="14.00" fill="#377eb8">true</text>
</g>
<!-- st0124&#45;&gt;st01234 -->
<g id="edge24" class="edge">
<title>st0124&#45;&gt;st01234</title>
<path fill="none" stroke="black" d="M967.25,-191.77C955.54,-184.83 942.49,-177.67 930,-172 919.77,-167.36 908.71,-163.02 897.77,-159.11"/>
<polygon fill="black" stroke="black" points="898.8,-155.76 888.21,-155.78 896.5,-162.37 898.8,-155.76"/>
<text text-anchor="start" x="906" y="-175.8" font-family="arial" font-size="14.00" fill="#377eb8">true</text>
</g>
<!-- st0124&#45;&gt;st0234 -->
<g id="edge22" class="edge">
<title>st0124&#45;&gt;st0234</title>
<path fill="none" stroke="black" d="M947.75,-220.55C884.45,-224.38 783.62,-230.47 715.32,-234.6"/>
<polygon fill="black" stroke="black" points="714.84,-231.12 705.07,-235.22 715.27,-238.11 714.84,-231.12"/>
<text text-anchor="start" x="814.5" y="-234.8" font-family="arial" font-size="14.00" fill="#377eb8">true</text>
</g>
<!-- st0124&#45;&gt;st024 -->
<g id="edge21" class="edge">
<title>st0124&#45;&gt;st024</title>
<path fill="none" stroke="black" d="M1067.31,-194.88C1073.22,-193.31 1079.19,-191.96 1085,-191 1095.27,-189.3 1106.15,-189.09 1116.83,-189.78"/>
<polygon fill="black" stroke="black" points="1116.71,-193.28 1126.98,-190.7 1117.34,-186.31 1116.71,-193.28"/>
<text text-anchor="start" x="1085" y="-194.8" font-family="arial" font-size="14.00" fill="#377eb8">true</text>
</g>
<!-- st0124&#45;&gt;st0124 -->
<g id="edge23" class="edge">
<title>st0124&#45;&gt;st0124</title>
<path fill="none" stroke="black" d="M991.06,-242.18C990.33,-251.91 995.81,-260 1007.5,-260 1014.8,-260 1019.68,-256.84 1022.14,-252.09"/>
<polygon fill="black" stroke="black" points="1025.6,-252.64 1023.94,-242.18 1018.71,-251.39 1025.6,-252.64"/>
<text text-anchor="start" x="995.5" y="-263.8" font-family="arial" font-size="14.00" fill="#377eb8">true</text>
</g>
</g>
</svg>
