<?xml version="1.0" encoding="UTF-8" standalone="no"?>
<!DOCTYPE svg PUBLIC "-//W3C//DTD SVG 1.1//EN"
 "http://www.w3.org/Graphics/SVG/1.1/DTD/svg11.dtd">
<!-- Generated by graphviz version 2.43.0 (0)
 -->
<!-- Title: G Pages: 1 -->
<svg width="1612pt" height="423pt"
 viewBox="0.00 0.00 1612.00 423.50" xmlns="http://www.w3.org/2000/svg" xmlns:xlink="http://www.w3.org/1999/xlink">
<g id="graph0" class="graph" transform="scale(1 1) rotate(0) translate(4 419.5)">
<title>G</title>
<polygon fill="white" stroke="transparent" points="-4,4 -4,-419.5 1608,-419.5 1608,4 -4,4"/>
<!-- _st0 -->
<!-- st0 -->
<g id="node2" class="node">
<title>st0</title>
<polygon fill="none" stroke="black" points="159,-199.5 94,-199.5 94,-149.5 159,-149.5 159,-199.5"/>
<text text-anchor="start" x="116.5" y="-185.3" font-family="arial" font-weight="bold" font-size="14.00">st0</text>
<text text-anchor="start" x="102" y="-171.3" font-family="arial" font-size="14.00" fill="#984ea3">(R || !Q)</text>
<text text-anchor="start" x="114.5" y="-157.3" font-family="arial" font-size="14.00" fill="#ff7f00">true</text>
</g>
<!-- _st0&#45;&gt;st0 -->
<g id="edge1" class="edge">
<title>_st0&#45;&gt;st0</title>
<path fill="none" stroke="black" d="M54.13,-174.5C63.17,-174.5 73.55,-174.5 83.54,-174.5"/>
<polygon fill="black" stroke="black" points="83.74,-178 93.74,-174.5 83.74,-171 83.74,-178"/>
</g>
<!-- st0&#45;&gt;st0 -->
<g id="edge3" class="edge">
<title>st0&#45;&gt;st0</title>
<path fill="none" stroke="black" d="M116.41,-199.68C115.97,-209.41 119.33,-217.5 126.5,-217.5 130.87,-217.5 133.83,-214.5 135.37,-209.95"/>
<polygon fill="black" stroke="black" points="138.88,-210.02 136.59,-199.68 131.93,-209.19 138.88,-210.02"/>
<text text-anchor="start" x="114.5" y="-221.3" font-family="arial" font-size="14.00" fill="#377eb8">true</text>
</g>
<!-- st012W -->
<g id="node4" class="node">
<title>st012W</title>
<polygon fill="none" stroke="black" points="312,-285.5 236,-285.5 236,-235.5 312,-235.5 312,-285.5"/>
<text text-anchor="start" x="249.5" y="-271.3" font-family="arial" font-weight="bold" font-size="14.00">st012W</text>
<text text-anchor="start" x="244" y="-257.3" font-family="arial" font-size="14.00" fill="#984ea3">(Q &amp;&amp; !R)</text>
<text text-anchor="start" x="251" y="-243.3" font-family="arial" font-size="14.00" fill="#ff7f00">c0 &lt;= 5</text>
</g>
<!-- st0&#45;&gt;st012W -->
<g id="edge4" class="edge">
<title>st0&#45;&gt;st012W</title>
<path fill="none" stroke="black" d="M159.08,-182.96C177.15,-188.62 199.78,-197.12 218,-208.5 226.86,-214.03 235.52,-221.15 243.25,-228.32"/>
<polygon fill="black" stroke="black" points="241.02,-231.03 250.65,-235.46 245.89,-226 241.02,-231.03"/>
<text text-anchor="start" x="187" y="-227.3" font-family="arial" font-size="14.00" fill="#377eb8">true</text>
<text text-anchor="start" x="180" y="-212.3" font-family="arial" font-size="14.00">c0 :=0</text>
</g>
<!-- _st012W -->
<!-- _st012W&#45;&gt;st012W -->
<g id="edge2" class="edge">
<title>_st012W&#45;&gt;st012W</title>
<path fill="none" stroke="black" d="M162.08,-286.22C179.03,-283.85 199.68,-280.56 218,-276.5 220.64,-275.91 223.34,-275.27 226.06,-274.59"/>
<polygon fill="black" stroke="black" points="227.11,-277.93 235.89,-272 225.33,-271.17 227.11,-277.93"/>
</g>
<!-- st012W&#45;&gt;st0 -->
<g id="edge17" class="edge">
<title>st012W&#45;&gt;st0</title>
<path fill="none" stroke="black" d="M235.99,-257.32C218.02,-254.44 196.75,-248.95 180,-238.5 167.66,-230.8 156.87,-219.18 148.34,-207.95"/>
<polygon fill="black" stroke="black" points="150.95,-205.58 142.26,-199.51 145.26,-209.67 150.95,-205.58"/>
<text text-anchor="start" x="192.5" y="-256.3" font-family="arial" font-size="14.00" fill="#377eb8">R&#39;</text>
</g>
<!-- st012W&#45;&gt;st012W -->
<g id="edge21" class="edge">
<title>st012W&#45;&gt;st012W</title>
<path fill="none" stroke="black" d="M260.18,-285.68C259.56,-295.41 264.17,-303.5 274,-303.5 280.14,-303.5 284.25,-300.34 286.31,-295.59"/>
<polygon fill="black" stroke="black" points="289.77,-296.09 287.82,-285.68 282.85,-295.03 289.77,-296.09"/>
<text text-anchor="start" x="255" y="-307.3" font-family="arial" font-size="14.00" fill="#377eb8">c0 &lt; 5</text>
</g>
<!-- st02W -->
<g id="node5" class="node">
<title>st02W</title>
<polygon fill="none" stroke="black" points="466,-257.5 386,-257.5 386,-207.5 466,-207.5 466,-257.5"/>
<text text-anchor="start" x="405.5" y="-243.3" font-family="arial" font-weight="bold" font-size="14.00">st02W</text>
<text text-anchor="start" x="394" y="-229.3" font-family="arial" font-size="14.00" fill="#984ea3">(!Q &amp;&amp; !R)</text>
<text text-anchor="start" x="403" y="-215.3" font-family="arial" font-size="14.00" fill="#ff7f00">c0 &lt;= 5</text>
</g>
<!-- st012W&#45;&gt;st02W -->
<g id="edge18" class="edge">
<title>st012W&#45;&gt;st02W</title>
<path fill="none" stroke="black" d="M312.31,-256.94C329.38,-254.99 349.81,-252.2 368,-248.5 370.65,-247.96 373.35,-247.36 376.07,-246.73"/>
<polygon fill="black" stroke="black" points="377.08,-250.08 385.93,-244.27 375.39,-243.29 377.08,-250.08"/>
<text text-anchor="start" x="330" y="-257.3" font-family="arial" font-size="14.00" fill="#377eb8">c0 &lt; 5</text>
</g>
<!-- st02 -->
<g id="node6" class="node">
<title>st02</title>
<polygon fill="none" stroke="black" points="872,-199.5 749,-199.5 749,-149.5 872,-149.5 872,-199.5"/>
<text text-anchor="start" x="796.5" y="-185.3" font-family="arial" font-weight="bold" font-size="14.00">st02</text>
<text text-anchor="start" x="757" y="-171.3" font-family="arial" font-size="14.00" fill="#984ea3">(!Q &amp;&amp; (!R &amp;&amp; S))</text>
<text text-anchor="start" x="798.5" y="-157.3" font-family="arial" font-size="14.00" fill="#ff7f00">true</text>
</g>
<!-- st012W&#45;&gt;st02 -->
<g id="edge19" class="edge">
<title>st012W&#45;&gt;st02</title>
<path fill="none" stroke="black" d="M307.08,-235.28C365.5,-189.34 483.34,-96.73 484,-96.5 533.6,-79.36 576.97,-43.46 731,-105.5 750.31,-113.28 768.08,-127.95 781.82,-141.77"/>
<polygon fill="black" stroke="black" points="779.58,-144.49 789.01,-149.31 784.64,-139.66 779.58,-144.49"/>
<text text-anchor="start" x="484" y="-100.3" font-family="arial" font-size="14.00" fill="#377eb8">c0 &gt;= 5</text>
</g>
<!-- st0234 -->
<g id="node7" class="node">
<title>st0234</title>
<polygon fill="none" stroke="black" points="1242,-268.5 1115,-268.5 1115,-218.5 1242,-218.5 1242,-268.5"/>
<text text-anchor="start" x="1157" y="-254.3" font-family="arial" font-weight="bold" font-size="14.00">st0234</text>
<text text-anchor="start" x="1123" y="-240.3" font-family="arial" font-size="14.00" fill="#984ea3">(!Q &amp;&amp; (!R &amp;&amp; !S))</text>
<text text-anchor="start" x="1166.5" y="-226.3" font-family="arial" font-size="14.00" fill="#ff7f00">true</text>
</g>
<!-- st012W&#45;&gt;st0234 -->
<g id="edge20" class="edge">
<title>st012W&#45;&gt;st0234</title>
<path fill="none" stroke="black" d="M287.3,-285.53C309.05,-325.8 358.39,-400.5 425,-400.5 425,-400.5 425,-400.5 994.5,-400.5 1069.46,-400.5 1129.09,-323.69 1158.16,-277.52"/>
<polygon fill="black" stroke="black" points="1161.31,-279.08 1163.56,-268.72 1155.34,-275.41 1161.31,-279.08"/>
<text text-anchor="start" x="685" y="-404.3" font-family="arial" font-size="14.00" fill="#377eb8">c0 &gt;= 5</text>
</g>
<!-- st012 -->
<g id="node8" class="node">
<title>st012</title>
<polygon fill="none" stroke="black" points="667,-263.5 548,-263.5 548,-213.5 667,-213.5 667,-263.5"/>
<text text-anchor="start" x="590" y="-249.3" font-family="arial" font-weight="bold" font-size="14.00">st012</text>
<text text-anchor="start" x="556" y="-235.3" font-family="arial" font-size="14.00" fill="#984ea3">(Q &amp;&amp; (!R &amp;&amp; S))</text>
<text text-anchor="start" x="595.5" y="-221.3" font-family="arial" font-size="14.00" fill="#ff7f00">true</text>
</g>
<!-- st012W&#45;&gt;st012 -->
<g id="edge22" class="edge">
<title>st012W&#45;&gt;st012</title>
<path fill="none" stroke="black" d="M312.17,-277.11C333.34,-285.66 360.63,-295.17 386,-299.5 421.05,-305.48 431.19,-306.73 466,-299.5 495.8,-293.31 527.03,-280.46 552.46,-268.15"/>
<polygon fill="black" stroke="black" points="554.15,-271.22 561.56,-263.65 551.04,-264.95 554.15,-271.22"/>
<text text-anchor="start" x="403" y="-307.3" font-family="arial" font-size="14.00" fill="#377eb8">c0 &gt;= 5</text>
</g>
<!-- st01234 -->
<g id="node9" class="node">
<title>st01234</title>
<polygon fill="none" stroke="black" points="1055,-156.5 932,-156.5 932,-106.5 1055,-106.5 1055,-156.5"/>
<text text-anchor="start" x="968.5" y="-142.3" font-family="arial" font-weight="bold" font-size="14.00">st01234</text>
<text text-anchor="start" x="940" y="-128.3" font-family="arial" font-size="14.00" fill="#984ea3">(Q &amp;&amp; (!R &amp;&amp; !S))</text>
<text text-anchor="start" x="981.5" y="-114.3" font-family="arial" font-size="14.00" fill="#ff7f00">true</text>
</g>
<!-- st012W&#45;&gt;st01234 -->
<g id="edge23" class="edge">
<title>st012W&#45;&gt;st01234</title>
<path fill="none" stroke="black" d="M304.3,-235.32C307.12,-232.19 309.75,-228.89 312,-225.5 324.6,-206.52 318.53,-197.19 330,-177.5 349.54,-143.97 354.17,-132.71 386,-110.5 417.36,-88.62 510.33,-59.04 548,-52.5 680.31,-29.53 834.61,-72.69 922.21,-103.75"/>
<polygon fill="black" stroke="black" points="921.18,-107.1 931.77,-107.19 923.55,-100.51 921.18,-107.1"/>
<text text-anchor="start" x="584.5" y="-56.3" font-family="arial" font-size="14.00" fill="#377eb8">c0 &gt;= 5</text>
</g>
<!-- st02W&#45;&gt;st0 -->
<g id="edge5" class="edge">
<title>st02W&#45;&gt;st0</title>
<path fill="none" stroke="black" d="M385.83,-223.49C344.3,-214.1 276.72,-199.27 218,-188.5 202.25,-185.61 184.87,-182.83 169.6,-180.51"/>
<polygon fill="black" stroke="black" points="169.81,-177 159.4,-178.99 168.78,-183.93 169.81,-177"/>
<text text-anchor="start" x="267.5" y="-210.3" font-family="arial" font-size="14.00" fill="#377eb8">R&#39;</text>
</g>
<!-- st02W&#45;&gt;st012W -->
<g id="edge9" class="edge">
<title>st02W&#45;&gt;st012W</title>
<path fill="none" stroke="black" d="M385.7,-229.04C368.4,-228.5 347.97,-229.23 330,-233.5 327.19,-234.17 324.35,-235 321.53,-235.95"/>
<polygon fill="black" stroke="black" points="320.12,-232.74 312.04,-239.59 322.63,-239.28 320.12,-232.74"/>
<text text-anchor="start" x="330" y="-237.3" font-family="arial" font-size="14.00" fill="#377eb8">c0 &lt; 5</text>
</g>
<!-- st02W&#45;&gt;st02W -->
<g id="edge6" class="edge">
<title>st02W&#45;&gt;st02W</title>
<path fill="none" stroke="black" d="M411.81,-257.68C411.17,-267.41 415.91,-275.5 426,-275.5 432.31,-275.5 436.52,-272.34 438.64,-267.59"/>
<polygon fill="black" stroke="black" points="442.11,-268.1 440.19,-257.68 435.19,-267.01 442.11,-268.1"/>
<text text-anchor="start" x="407" y="-279.3" font-family="arial" font-size="14.00" fill="#377eb8">c0 &lt; 5</text>
</g>
<!-- st02W&#45;&gt;st02 -->
<g id="edge7" class="edge">
<title>st02W&#45;&gt;st02</title>
<path fill="none" stroke="black" d="M466.25,-215.35C489.54,-205.99 519.92,-195.17 548,-189.5 611.62,-176.64 685.59,-173.46 738.59,-173.16"/>
<polygon fill="black" stroke="black" points="738.91,-176.66 748.9,-173.14 738.89,-169.66 738.91,-176.66"/>
<text text-anchor="start" x="584.5" y="-193.3" font-family="arial" font-size="14.00" fill="#377eb8">c0 &gt;= 5</text>
</g>
<!-- st02W&#45;&gt;st0234 -->
<g id="edge8" class="edge">
<title>st02W&#45;&gt;st0234</title>
<path fill="none" stroke="black" d="M458.14,-257.84C481.35,-275.02 514.67,-296.23 548,-305.5 765.31,-365.97 832.55,-319.85 1055,-282.5 1071.41,-279.75 1088.64,-275.29 1104.83,-270.36"/>
<polygon fill="black" stroke="black" points="1106.27,-273.57 1114.76,-267.23 1104.18,-266.89 1106.27,-273.57"/>
<text text-anchor="start" x="787.5" y="-337.3" font-family="arial" font-size="14.00" fill="#377eb8">c0 &gt;= 5</text>
</g>
<!-- st02W&#45;&gt;st012 -->
<g id="edge10" class="edge">
<title>st02W&#45;&gt;st012</title>
<path fill="none" stroke="black" d="M466.39,-233.82C487.25,-234.51 513.48,-235.39 537.58,-236.2"/>
<polygon fill="black" stroke="black" points="537.65,-239.7 547.76,-236.54 537.88,-232.7 537.65,-239.7"/>
<text text-anchor="start" x="484" y="-239.3" font-family="arial" font-size="14.00" fill="#377eb8">c0 &gt;= 5</text>
</g>
<!-- st02W&#45;&gt;st01234 -->
<g id="edge11" class="edge">
<title>st02W&#45;&gt;st01234</title>
<path fill="none" stroke="black" d="M456.14,-207.38C464.71,-200.88 474.37,-194.36 484,-189.5 510.49,-176.13 519.03,-176.93 548,-170.5 636.18,-150.93 659.06,-148.85 749,-140.5 807,-135.12 873.06,-132.92 921.73,-132.04"/>
<polygon fill="black" stroke="black" points="921.9,-135.54 931.84,-131.87 921.78,-128.54 921.9,-135.54"/>
<text text-anchor="start" x="685" y="-150.3" font-family="arial" font-size="14.00" fill="#377eb8">c0 &gt;= 5</text>
</g>
<!-- st02&#45;&gt;st0 -->
<g id="edge12" class="edge">
<title>st02&#45;&gt;st0</title>
<path fill="none" stroke="black" d="M793.03,-149.4C778.82,-129.61 756.58,-102.74 731,-86.5 683.39,-56.29 664.89,-53.5 608.5,-53.5 273,-53.5 273,-53.5 273,-53.5 218.18,-53.5 173.01,-104.9 148.2,-140.7"/>
<polygon fill="black" stroke="black" points="145.01,-139.18 142.34,-149.43 150.82,-143.08 145.01,-139.18"/>
<text text-anchor="start" x="419.5" y="-57.3" font-family="arial" font-size="14.00" fill="#377eb8">R&#39;</text>
</g>
<!-- st02&#45;&gt;st02 -->
<g id="edge13" class="edge">
<title>st02&#45;&gt;st02</title>
<path fill="none" stroke="black" d="M793.69,-199.68C792.94,-209.41 798.55,-217.5 810.5,-217.5 817.97,-217.5 822.96,-214.34 825.47,-209.59"/>
<polygon fill="black" stroke="black" points="828.93,-210.15 827.31,-199.68 822.04,-208.87 828.93,-210.15"/>
<text text-anchor="start" x="798.5" y="-221.3" font-family="arial" font-size="14.00" fill="#377eb8">true</text>
</g>
<!-- st02&#45;&gt;st0234 -->
<g id="edge14" class="edge">
<title>st02&#45;&gt;st0234</title>
<path fill="none" stroke="black" d="M872.15,-186.77C891.28,-190.59 912.52,-194.77 932,-198.5 990.13,-209.62 1056.12,-221.68 1105.03,-230.52"/>
<polygon fill="black" stroke="black" points="1104.43,-233.96 1114.89,-232.3 1105.67,-227.08 1104.43,-233.96"/>
<text text-anchor="start" x="981.5" y="-224.3" font-family="arial" font-size="14.00" fill="#377eb8">true</text>
</g>
<!-- st02&#45;&gt;st012 -->
<g id="edge15" class="edge">
<title>st02&#45;&gt;st012</title>
<path fill="none" stroke="black" d="M748.87,-184.65C728.3,-188.88 705.39,-194.47 685,-201.5 678.53,-203.73 671.9,-206.36 665.37,-209.19"/>
<polygon fill="black" stroke="black" points="663.61,-206.14 655.92,-213.43 666.47,-212.53 663.61,-206.14"/>
<text text-anchor="start" x="696" y="-205.3" font-family="arial" font-size="14.00" fill="#377eb8">true</text>
</g>
<!-- st02&#45;&gt;st01234 -->
<g id="edge16" class="edge">
<title>st02&#45;&gt;st01234</title>
<path fill="none" stroke="black" d="M872.02,-160.12C887.94,-156.34 905.25,-152.23 921.65,-148.33"/>
<polygon fill="black" stroke="black" points="922.81,-151.65 931.73,-145.94 921.19,-144.84 922.81,-151.65"/>
<text text-anchor="start" x="890" y="-159.3" font-family="arial" font-size="14.00" fill="#377eb8">true</text>
</g>
<!-- st0234&#45;&gt;st0234 -->
<g id="edge38" class="edge">
<title>st0234&#45;&gt;st0234</title>
<path fill="none" stroke="black" d="M1161.32,-268.68C1160.55,-278.41 1166.28,-286.5 1178.5,-286.5 1186.14,-286.5 1191.24,-283.34 1193.8,-278.59"/>
<polygon fill="black" stroke="black" points="1197.26,-279.15 1195.68,-268.68 1190.38,-277.85 1197.26,-279.15"/>
<text text-anchor="start" x="1166.5" y="-290.3" font-family="arial" font-size="14.00" fill="#377eb8">true</text>
</g>
<!-- st0234&#45;&gt;st01234 -->
<g id="edge40" class="edge">
<title>st0234&#45;&gt;st01234</title>
<path fill="none" stroke="black" d="M1122.19,-218.43C1105.99,-210.43 1088.48,-201.14 1073,-191.5 1059.27,-182.94 1044.99,-172.54 1032.45,-162.82"/>
<polygon fill="black" stroke="black" points="1034.5,-159.99 1024.47,-156.56 1030.17,-165.49 1034.5,-159.99"/>
<text text-anchor="start" x="1073" y="-207.3" font-family="arial" font-size="14.00" fill="#377eb8">true</text>
</g>
<!-- st024 -->
<g id="node10" class="node">
<title>st024</title>
<polygon fill="none" stroke="black" points="1604,-171.5 1481,-171.5 1481,-121.5 1604,-121.5 1604,-171.5"/>
<text text-anchor="start" x="1525" y="-157.3" font-family="arial" font-weight="bold" font-size="14.00">st024</text>
<text text-anchor="start" x="1489" y="-143.3" font-family="arial" font-size="14.00" fill="#984ea3">(!Q &amp;&amp; (!R &amp;&amp; S))</text>
<text text-anchor="start" x="1530.5" y="-129.3" font-family="arial" font-size="14.00" fill="#ff7f00">true</text>
</g>
<!-- st0234&#45;&gt;st024 -->
<g id="edge37" class="edge">
<title>st0234&#45;&gt;st024</title>
<path fill="none" stroke="black" d="M1242.24,-260.24C1292.33,-270.43 1363.42,-277.68 1421,-255.5 1460.36,-240.34 1494.85,-205.7 1516.73,-179.51"/>
<polygon fill="black" stroke="black" points="1519.51,-181.65 1523.11,-171.68 1514.08,-177.23 1519.51,-181.65"/>
<text text-anchor="start" x="1349.5" y="-273.3" font-family="arial" font-size="14.00" fill="#377eb8">true</text>
</g>
<!-- st0124 -->
<g id="node11" class="node">
<title>st0124</title>
<polygon fill="none" stroke="black" points="1421,-171.5 1302,-171.5 1302,-121.5 1421,-121.5 1421,-171.5"/>
<text text-anchor="start" x="1340" y="-157.3" font-family="arial" font-weight="bold" font-size="14.00">st0124</text>
<text text-anchor="start" x="1310" y="-143.3" font-family="arial" font-size="14.00" fill="#984ea3">(Q &amp;&amp; (!R &amp;&amp; S))</text>
<text text-anchor="start" x="1349.5" y="-129.3" font-family="arial" font-size="14.00" fill="#ff7f00">true</text>
</g>
<!-- st0234&#45;&gt;st0124 -->
<g id="edge39" class="edge">
<title>st0234&#45;&gt;st0124</title>
<path fill="none" stroke="black" d="M1201.89,-218.47C1216.92,-203.11 1237.94,-184.21 1260,-172.5 1269.97,-167.21 1281.08,-162.95 1292.18,-159.53"/>
<polygon fill="black" stroke="black" points="1293.25,-162.87 1301.89,-156.74 1291.32,-156.14 1293.25,-162.87"/>
<text text-anchor="start" x="1260" y="-176.3" font-family="arial" font-size="14.00" fill="#377eb8">true</text>
</g>
<!-- st012&#45;&gt;st0 -->
<g id="edge24" class="edge">
<title>st012&#45;&gt;st0</title>
<path fill="none" stroke="black" d="M547.96,-219.1C522.97,-211.54 493.32,-203.5 466,-198.5 357.19,-178.6 328.43,-184 218,-177.5 202.19,-176.57 184.81,-175.91 169.54,-175.44"/>
<polygon fill="black" stroke="black" points="169.44,-171.94 159.35,-175.16 169.25,-178.94 169.44,-171.94"/>
<text text-anchor="start" x="342.5" y="-188.3" font-family="arial" font-size="14.00" fill="#377eb8">R&#39;</text>
</g>
<!-- st012&#45;&gt;st02 -->
<g id="edge25" class="edge">
<title>st012&#45;&gt;st02</title>
<path fill="none" stroke="black" d="M667.1,-231.8C687.66,-228.45 710.69,-223.56 731,-216.5 740.42,-213.23 750.07,-208.94 759.25,-204.35"/>
<polygon fill="black" stroke="black" points="760.97,-207.4 768.24,-199.69 757.75,-201.19 760.97,-207.4"/>
<text text-anchor="start" x="696" y="-231.3" font-family="arial" font-size="14.00" fill="#377eb8">true</text>
</g>
<!-- st012&#45;&gt;st0234 -->
<g id="edge26" class="edge">
<title>st012&#45;&gt;st0234</title>
<path fill="none" stroke="black" d="M663.45,-263.56C670.6,-266.2 677.91,-268.61 685,-270.5 712.7,-277.88 720.39,-276.72 749,-278.5 874.1,-286.29 1019.45,-268.8 1104.66,-255.84"/>
<polygon fill="black" stroke="black" points="1105.4,-259.27 1114.75,-254.29 1104.33,-252.35 1105.4,-259.27"/>
<text text-anchor="start" x="890" y="-281.3" font-family="arial" font-size="14.00" fill="#377eb8">true</text>
</g>
<!-- st012&#45;&gt;st012 -->
<g id="edge27" class="edge">
<title>st012&#45;&gt;st012</title>
<path fill="none" stroke="black" d="M588.82,-263.68C587.99,-273.41 594.22,-281.5 607.5,-281.5 615.8,-281.5 621.35,-278.34 624.13,-273.59"/>
<polygon fill="black" stroke="black" points="627.59,-274.18 626.18,-263.68 620.73,-272.76 627.59,-274.18"/>
<text text-anchor="start" x="595.5" y="-285.3" font-family="arial" font-size="14.00" fill="#377eb8">true</text>
</g>
<!-- st012&#45;&gt;st01234 -->
<g id="edge28" class="edge">
<title>st012&#45;&gt;st01234</title>
<path fill="none" stroke="black" d="M667.2,-251.82C722.27,-261.44 805.82,-268.52 872,-241.5 892.64,-233.07 933.47,-193.41 961.84,-164.12"/>
<polygon fill="black" stroke="black" points="964.72,-166.17 969.13,-156.54 959.68,-161.32 964.72,-166.17"/>
<text text-anchor="start" x="798.5" y="-263.3" font-family="arial" font-size="14.00" fill="#377eb8">true</text>
</g>
<!-- st01234&#45;&gt;st0234 -->
<g id="edge42" class="edge">
<title>st01234&#45;&gt;st0234</title>
<path fill="none" stroke="black" d="M1055.25,-151.82C1069.41,-157.62 1084.1,-164.56 1097,-172.5 1114.54,-183.29 1131.94,-198 1146.05,-211.23"/>
<polygon fill="black" stroke="black" points="1143.89,-214.01 1153.54,-218.4 1148.73,-208.95 1143.89,-214.01"/>
<text text-anchor="start" x="1073" y="-176.3" font-family="arial" font-size="14.00" fill="#377eb8">true</text>
</g>
<!-- st01234&#45;&gt;st01234 -->
<g id="edge44" class="edge">
<title>st01234&#45;&gt;st01234</title>
<path fill="none" stroke="black" d="M976.69,-156.68C975.94,-166.41 981.55,-174.5 993.5,-174.5 1000.97,-174.5 1005.96,-171.34 1008.47,-166.59"/>
<polygon fill="black" stroke="black" points="1011.93,-167.15 1010.31,-156.68 1005.04,-165.87 1011.93,-167.15"/>
<text text-anchor="start" x="981.5" y="-178.3" font-family="arial" font-size="14.00" fill="#377eb8">true</text>
</g>
<!-- st01234&#45;&gt;st024 -->
<g id="edge41" class="edge">
<title>st01234&#45;&gt;st024</title>
<path fill="none" stroke="black" d="M1055.09,-109.7C1061.11,-107.83 1067.15,-106.05 1073,-104.5 1091.36,-99.62 1096.12,-98.68 1115,-96.5 1250.29,-80.9 1287.74,-84.42 1421,-112.5 1437.29,-115.93 1454.62,-120.36 1470.91,-124.87"/>
<polygon fill="black" stroke="black" points="1470.33,-128.34 1480.9,-127.68 1472.23,-121.6 1470.33,-128.34"/>
<text text-anchor="start" x="1260" y="-93.3" font-family="arial" font-size="14.00" fill="#377eb8">true</text>
</g>
<!-- st01234&#45;&gt;st0124 -->
<g id="edge43" class="edge">
<title>st01234&#45;&gt;st0124</title>
<path fill="none" stroke="black" d="M1055.35,-133.99C1120.51,-136.66 1223.68,-140.89 1291.74,-143.68"/>
<polygon fill="black" stroke="black" points="1291.79,-147.19 1301.93,-144.1 1292.08,-140.19 1291.79,-147.19"/>
<text text-anchor="start" x="1166.5" y="-144.3" font-family="arial" font-size="14.00" fill="#377eb8">true</text>
</g>
<!-- st024&#45;&gt;st0234 -->
<g id="edge30" class="edge">
<title>st024&#45;&gt;st0234</title>
<path fill="none" stroke="black" d="M1505.21,-171.53C1482.13,-186.19 1451.04,-203.69 1421,-213.5 1366.16,-231.4 1301.12,-238.74 1252.36,-241.69"/>
<polygon fill="black" stroke="black" points="1252,-238.21 1242.21,-242.26 1252.39,-245.2 1252,-238.21"/>
<text text-anchor="start" x="1349.5" y="-240.3" font-family="arial" font-size="14.00" fill="#377eb8">true</text>
</g>
<!-- st024&#45;&gt;st01234 -->
<g id="edge32" class="edge">
<title>st024&#45;&gt;st01234</title>
<path fill="none" stroke="black" d="M1531.69,-121.14C1519.79,-94.09 1497.01,-52.34 1463,-31.5 1394.61,10.41 1364.05,-13.62 1284,-8.5 1189.86,-2.48 1155.15,14.87 1073,-31.5 1046.31,-46.56 1025.48,-74.71 1012,-97.31"/>
<polygon fill="black" stroke="black" points="1008.79,-95.88 1006.85,-106.29 1014.86,-99.36 1008.79,-95.88"/>
<text text-anchor="start" x="1260" y="-12.3" font-family="arial" font-size="14.00" fill="#377eb8">true</text>
</g>
<!-- st024&#45;&gt;st024 -->
<g id="edge29" class="edge">
<title>st024&#45;&gt;st024</title>
<path fill="none" stroke="black" d="M1525.69,-171.68C1524.94,-181.41 1530.55,-189.5 1542.5,-189.5 1549.97,-189.5 1554.96,-186.34 1557.47,-181.59"/>
<polygon fill="black" stroke="black" points="1560.93,-182.15 1559.31,-171.68 1554.04,-180.87 1560.93,-182.15"/>
<text text-anchor="start" x="1530.5" y="-193.3" font-family="arial" font-size="14.00" fill="#377eb8">true</text>
</g>
<!-- st024&#45;&gt;st0124 -->
<g id="edge31" class="edge">
<title>st024&#45;&gt;st0124</title>
<path fill="none" stroke="black" d="M1480.97,-129.97C1467.21,-127.86 1452.64,-126.92 1439,-128.5 1436.45,-128.8 1433.86,-129.15 1431.26,-129.54"/>
<polygon fill="black" stroke="black" points="1430.42,-126.13 1421.15,-131.26 1431.59,-133.03 1430.42,-126.13"/>
<text text-anchor="start" x="1439" y="-132.3" font-family="arial" font-size="14.00" fill="#377eb8">true</text>
</g>
<!-- st0124&#45;&gt;st0234 -->
<g id="edge34" class="edge">
<title>st0124&#45;&gt;st0234</title>
<path fill="none" stroke="black" d="M1319.11,-171.56C1307.82,-178.2 1295.51,-185.26 1284,-191.5 1270.19,-198.99 1255.16,-206.71 1240.92,-213.83"/>
<polygon fill="black" stroke="black" points="1239.09,-210.83 1231.69,-218.42 1242.21,-217.1 1239.09,-210.83"/>
<text text-anchor="start" x="1260" y="-206.3" font-family="arial" font-size="14.00" fill="#377eb8">true</text>
</g>
<!-- st0124&#45;&gt;st01234 -->
<g id="edge36" class="edge">
<title>st0124&#45;&gt;st01234</title>
<path fill="none" stroke="black" d="M1301.84,-121.88C1283.06,-115.18 1261.97,-108.86 1242,-105.5 1186.34,-96.14 1171.13,-99.51 1115,-105.5 1098.7,-107.24 1081.36,-110.26 1065.07,-113.65"/>
<polygon fill="black" stroke="black" points="1064.12,-110.28 1055.08,-115.8 1065.6,-117.12 1064.12,-110.28"/>
<text text-anchor="start" x="1166.5" y="-109.3" font-family="arial" font-size="14.00" fill="#377eb8">true</text>
</g>
<!-- st0124&#45;&gt;st024 -->
<g id="edge33" class="edge">
<title>st0124&#45;&gt;st024</title>
<path fill="none" stroke="black" d="M1421.11,-146.5C1436.99,-146.5 1454.34,-146.5 1470.8,-146.5"/>
<polygon fill="black" stroke="black" points="1470.91,-150 1480.91,-146.5 1470.91,-143 1470.91,-150"/>
<text text-anchor="start" x="1439" y="-150.3" font-family="arial" font-size="14.00" fill="#377eb8">true</text>
</g>
<!-- st0124&#45;&gt;st0124 -->
<g id="edge35" class="edge">
<title>st0124&#45;&gt;st0124</title>
<path fill="none" stroke="black" d="M1345.06,-171.68C1344.33,-181.41 1349.81,-189.5 1361.5,-189.5 1368.8,-189.5 1373.68,-186.34 1376.14,-181.59"/>
<polygon fill="black" stroke="black" points="1379.6,-182.14 1377.94,-171.68 1372.71,-180.89 1379.6,-182.14"/>
<text text-anchor="start" x="1349.5" y="-193.3" font-family="arial" font-size="14.00" fill="#377eb8">true</text>
</g>
</g>
</svg>
