<?xml version="1.0" encoding="UTF-8" standalone="no"?>
<!DOCTYPE svg PUBLIC "-//W3C//DTD SVG 1.1//EN"
 "http://www.w3.org/Graphics/SVG/1.1/DTD/svg11.dtd">
<!-- Generated by graphviz version 2.43.0 (0)
 -->
<!-- Title: G Pages: 1 -->
<svg width="433pt" height="243pt"
 viewBox="0.00 0.00 433.00 243.00" xmlns="http://www.w3.org/2000/svg" xmlns:xlink="http://www.w3.org/1999/xlink">
<g id="graph0" class="graph" transform="scale(1 1) rotate(0) translate(4 239)">
<title>G</title>
<polygon fill="white" stroke="transparent" points="-4,4 -4,-239 429,-239 429,4 -4,4"/>
<!-- _stinit -->
<!-- stinit -->
<g id="node2" class="node">
<title>stinit</title>
<polygon fill="none" stroke="black" points="300,-202 246,-202 246,-152 300,-152 300,-202"/>
<text text-anchor="start" x="256.5" y="-187.8" font-family="arial" font-weight="bold" font-size="14.00">stinit</text>
<text text-anchor="start" x="267" y="-173.8" font-family="arial" font-size="14.00" fill="#984ea3">Q</text>
<text text-anchor="start" x="261" y="-159.8" font-family="arial" font-size="14.00" fill="#ff7f00">true</text>
</g>
<!-- _stinit&#45;&gt;stinit -->
<g id="edge1" class="edge">
<title>_stinit&#45;&gt;stinit</title>
<path fill="none" stroke="black" d="M149.3,-177C173.34,-177 209.12,-177 235.85,-177"/>
<polygon fill="black" stroke="black" points="235.97,-180.5 245.97,-177 235.97,-173.5 235.97,-180.5"/>
</g>
<!-- stinit&#45;&gt;stinit -->
<g id="edge4" class="edge">
<title>stinit&#45;&gt;stinit</title>
<path fill="none" stroke="black" d="M260.3,-202.18C259.74,-211.91 263.97,-220 273,-220 278.64,-220 282.41,-216.84 284.31,-212.09"/>
<polygon fill="black" stroke="black" points="287.78,-212.56 285.7,-202.18 280.85,-211.59 287.78,-212.56"/>
<text text-anchor="start" x="261" y="-223.8" font-family="arial" font-size="14.00" fill="#377eb8">true</text>
</g>
<!-- st -->
<g id="node5" class="node">
<title>st</title>
<polygon fill="none" stroke="black" points="425,-144 371,-144 371,-94 425,-94 425,-144"/>
<text text-anchor="start" x="391.5" y="-129.8" font-family="arial" font-weight="bold" font-size="14.00">st</text>
<text text-anchor="start" x="386" y="-115.8" font-family="arial" font-size="14.00" fill="#984ea3">true</text>
<text text-anchor="start" x="386" y="-101.8" font-family="arial" font-size="14.00" fill="#ff7f00">true</text>
</g>
<!-- stinit&#45;&gt;st -->
<g id="edge3" class="edge">
<title>stinit&#45;&gt;st</title>
<path fill="none" stroke="black" d="M300.09,-164.7C318.02,-156.24 342.06,-144.91 361.71,-135.64"/>
<polygon fill="black" stroke="black" points="363.4,-138.71 370.95,-131.28 360.41,-132.38 363.4,-138.71"/>
<text text-anchor="start" x="329" y="-152.8" font-family="arial" font-size="14.00" fill="#377eb8">true</text>
</g>
<!-- _st0X -->
<!-- st0X -->
<g id="node4" class="node">
<title>st0X</title>
<polygon fill="none" stroke="black" points="153,-94 91,-94 91,-44 153,-44 153,-94"/>
<text text-anchor="start" x="107.5" y="-79.8" font-family="arial" font-weight="bold" font-size="14.00">st0X</text>
<text text-anchor="start" x="114" y="-65.8" font-family="arial" font-size="14.00" fill="#984ea3">!Q</text>
<text text-anchor="start" x="99" y="-51.8" font-family="arial" font-size="14.00" fill="#ff7f00">c0 &lt;= 5</text>
</g>
<!-- _st0X&#45;&gt;st0X -->
<g id="edge2" class="edge">
<title>_st0X&#45;&gt;st0X</title>
<path fill="none" stroke="black" d="M54.4,-69C62.58,-69 71.79,-69 80.7,-69"/>
<polygon fill="black" stroke="black" points="80.93,-72.5 90.93,-69 80.93,-65.5 80.93,-72.5"/>
</g>
<!-- st0X&#45;&gt;st0X -->
<g id="edge7" class="edge">
<title>st0X&#45;&gt;st0X</title>
<path fill="none" stroke="black" d="M113.04,-94.18C112.64,-103.91 115.62,-112 122,-112 125.88,-112 128.51,-109 129.88,-104.45"/>
<polygon fill="black" stroke="black" points="133.4,-104.49 130.96,-94.18 126.44,-103.75 133.4,-104.49"/>
<text text-anchor="start" x="103" y="-115.8" font-family="arial" font-size="14.00" fill="#377eb8">c0 &lt; 5</text>
</g>
<!-- st0X&#45;&gt;st -->
<g id="edge6" class="edge">
<title>st0X&#45;&gt;st</title>
<path fill="none" stroke="black" d="M153.36,-75.56C175.86,-80.33 207.29,-86.85 235,-92 278.13,-100.02 327.93,-108.15 360.8,-113.36"/>
<polygon fill="black" stroke="black" points="360.43,-116.85 370.85,-114.95 361.52,-109.93 360.43,-116.85"/>
<text text-anchor="start" x="265.5" y="-107.8" font-family="arial" font-size="14.00" fill="#377eb8">Q&#39;</text>
</g>
<!-- st0 -->
<g id="node6" class="node">
<title>st0</title>
<polygon fill="none" stroke="black" points="311,-50 235,-50 235,0 311,0 311,-50"/>
<text text-anchor="start" x="263" y="-35.8" font-family="arial" font-weight="bold" font-size="14.00">st0</text>
<text text-anchor="start" x="243" y="-21.8" font-family="arial" font-size="14.00" fill="#984ea3">(!Q &amp;&amp; R)</text>
<text text-anchor="start" x="261" y="-7.8" font-family="arial" font-size="14.00" fill="#ff7f00">true</text>
</g>
<!-- st0X&#45;&gt;st0 -->
<g id="edge8" class="edge">
<title>st0X&#45;&gt;st0</title>
<path fill="none" stroke="black" d="M153.15,-60.1C173.76,-54.01 201.49,-45.82 224.98,-38.88"/>
<polygon fill="black" stroke="black" points="226.16,-42.19 234.76,-36 224.18,-35.47 226.16,-42.19"/>
<text text-anchor="start" x="171" y="-58.8" font-family="arial" font-size="14.00" fill="#377eb8">c0 &gt;= 5</text>
</g>
<!-- st&#45;&gt;st -->
<g id="edge5" class="edge">
<title>st&#45;&gt;st</title>
<path fill="none" stroke="black" d="M387.54,-144.18C387.08,-153.91 390.56,-162 398,-162 402.53,-162 405.6,-159 407.2,-154.45"/>
<polygon fill="black" stroke="black" points="410.71,-154.53 408.46,-144.18 403.76,-153.67 410.71,-154.53"/>
<text text-anchor="start" x="386" y="-165.8" font-family="arial" font-size="14.00" fill="#377eb8">true</text>
</g>
<!-- st0&#45;&gt;st -->
<g id="edge9" class="edge">
<title>st0&#45;&gt;st</title>
<path fill="none" stroke="black" d="M306.96,-50.19C324.21,-63.37 345.3,-79.49 362.73,-92.81"/>
<polygon fill="black" stroke="black" points="360.89,-95.81 370.96,-99.1 365.14,-90.25 360.89,-95.81"/>
<text text-anchor="start" x="333.5" y="-86.8" font-family="arial" font-size="14.00" fill="#377eb8">Q&#39;</text>
</g>
<!-- st0&#45;&gt;st0 -->
<g id="edge10" class="edge">
<title>st0&#45;&gt;st0</title>
<path fill="none" stroke="black" d="M260.3,-50.18C259.74,-59.91 263.97,-68 273,-68 278.64,-68 282.41,-64.84 284.31,-60.09"/>
<polygon fill="black" stroke="black" points="287.78,-60.56 285.7,-50.18 280.85,-59.59 287.78,-60.56"/>
<text text-anchor="start" x="261" y="-71.8" font-family="arial" font-size="14.00" fill="#377eb8">true</text>
</g>
</g>
</svg>
