<?xml version="1.0" encoding="UTF-8" standalone="no"?>
<!DOCTYPE svg PUBLIC "-//W3C//DTD SVG 1.1//EN"
 "http://www.w3.org/Graphics/SVG/1.1/DTD/svg11.dtd">
<!-- Generated by graphviz version 2.43.0 (0)
 -->
<!-- Title: G Pages: 1 -->
<svg width="436pt" height="145pt"
 viewBox="0.00 0.00 436.00 145.00" xmlns="http://www.w3.org/2000/svg" xmlns:xlink="http://www.w3.org/1999/xlink">
<g id="graph0" class="graph" transform="scale(1 1) rotate(0) translate(4 141)">
<title>G</title>
<polygon fill="white" stroke="transparent" points="-4,4 -4,-141 432,-141 432,4 -4,4"/>
<!-- _ID_142_ct0_st -->
<!-- ID_142_ct0_st -->
<g id="node2" class="node">
<title>ID_142_ct0_st</title>
<polygon fill="none" stroke="black" points="428,-97 321,-97 321,-47 428,-47 428,-97"/>
<text text-anchor="start" x="329" y="-82.8" font-family="arial" font-weight="bold" font-size="14.00">ID_142_ct0_st</text>
<text text-anchor="start" x="362.5" y="-68.8" font-family="arial" font-size="14.00" fill="#984ea3">true</text>
<text text-anchor="start" x="362.5" y="-54.8" font-family="arial" font-size="14.00" fill="#ff7f00">true</text>
</g>
<!-- _ID_142_ct0_st&#45;&gt;ID_142_ct0_st -->
<g id="edge1" class="edge">
<title>_ID_142_ct0_st&#45;&gt;ID_142_ct0_st</title>
<path fill="none" stroke="black" d="M268.89,-102.83C282.45,-98.83 297.08,-94.52 310.97,-90.43"/>
<polygon fill="black" stroke="black" points="312.33,-93.67 320.93,-87.49 310.35,-86.96 312.33,-93.67"/>
</g>
<!-- ID_142_ct0_st&#45;&gt;ID_142_ct0_st -->
<g id="edge3" class="edge">
<title>ID_142_ct0_st&#45;&gt;ID_142_ct0_st</title>
<path fill="none" stroke="black" d="M359.93,-97.18C359.28,-106.91 364.14,-115 374.5,-115 380.97,-115 385.3,-111.84 387.47,-107.09"/>
<polygon fill="black" stroke="black" points="390.94,-107.6 389.07,-97.18 384.03,-106.49 390.94,-107.6"/>
<text text-anchor="start" x="362.5" y="-118.8" font-family="arial" font-size="14.00" fill="#377eb8">true</text>
</g>
<!-- _ID_142_ct0_st0 -->
<!-- ID_142_ct0_st0 -->
<g id="node4" class="node">
<title>ID_142_ct0_st0</title>
<polygon fill="none" stroke="black" points="270,-50 156,-50 156,0 270,0 270,-50"/>
<text text-anchor="start" x="164" y="-35.8" font-family="arial" font-weight="bold" font-size="14.00">ID_142_ct0_st0</text>
<text text-anchor="start" x="183" y="-21.8" font-family="arial" font-size="14.00" fill="#984ea3">(!Q &amp;&amp; R)</text>
<text text-anchor="start" x="201" y="-7.8" font-family="arial" font-size="14.00" fill="#ff7f00">true</text>
</g>
<!-- _ID_142_ct0_st0&#45;&gt;ID_142_ct0_st0 -->
<g id="edge2" class="edge">
<title>_ID_142_ct0_st0&#45;&gt;ID_142_ct0_st0</title>
<path fill="none" stroke="black" d="M119.07,-25C127.69,-25 136.62,-25 145.39,-25"/>
<polygon fill="black" stroke="black" points="145.57,-28.5 155.57,-25 145.57,-21.5 145.57,-28.5"/>
</g>
<!-- ID_142_ct0_st0&#45;&gt;ID_142_ct0_st -->
<g id="edge4" class="edge">
<title>ID_142_ct0_st0&#45;&gt;ID_142_ct0_st</title>
<path fill="none" stroke="black" d="M270.23,-41.57C283.51,-45.48 297.75,-49.68 311.28,-53.66"/>
<polygon fill="black" stroke="black" points="310.4,-57.05 320.98,-56.52 312.37,-50.34 310.4,-57.05"/>
<text text-anchor="start" x="288" y="-52.8" font-family="arial" font-size="14.00" fill="#377eb8">Q&#39;</text>
</g>
<!-- ID_142_ct0_st0&#45;&gt;ID_142_ct0_st0 -->
<g id="edge5" class="edge">
<title>ID_142_ct0_st0&#45;&gt;ID_142_ct0_st0</title>
<path fill="none" stroke="black" d="M199.18,-50.18C198.56,-59.91 203.17,-68 213,-68 219.14,-68 223.25,-64.84 225.31,-60.09"/>
<polygon fill="black" stroke="black" points="228.77,-60.59 226.82,-50.18 221.85,-59.53 228.77,-60.59"/>
<text text-anchor="start" x="201" y="-71.8" font-family="arial" font-size="14.00" fill="#377eb8">true</text>
</g>
</g>
</svg>
