<?xml version="1.0" encoding="UTF-8" standalone="no"?>
<!DOCTYPE svg PUBLIC "-//W3C//DTD SVG 1.1//EN"
 "http://www.w3.org/Graphics/SVG/1.1/DTD/svg11.dtd">
<!-- Generated by graphviz version 2.43.0 (0)
 -->
<!-- Title: G Pages: 1 -->
<svg width="1417pt" height="356pt"
 viewBox="0.00 0.00 1417.00 356.00" xmlns="http://www.w3.org/2000/svg" xmlns:xlink="http://www.w3.org/1999/xlink">
<g id="graph0" class="graph" transform="scale(1 1) rotate(0) translate(4 352)">
<title>G</title>
<polygon fill="white" stroke="transparent" points="-4,4 -4,-352 1413,-352 1413,4 -4,4"/>
<!-- _ID_63_ct0_st0 -->
<!-- ID_63_ct0_st0 -->
<g id="node2" class="node">
<title>ID_63_ct0_st0</title>
<polygon fill="none" stroke="black" points="264.5,-92 157.5,-92 157.5,-42 264.5,-42 264.5,-92"/>
<text text-anchor="start" x="165.5" y="-77.8" font-family="arial" font-weight="bold" font-size="14.00">ID_63_ct0_st0</text>
<text text-anchor="start" x="186.5" y="-63.8" font-family="arial" font-size="14.00" fill="#984ea3">(Q || !P)</text>
<text text-anchor="start" x="199" y="-49.8" font-family="arial" font-size="14.00" fill="#ff7f00">true</text>
</g>
<!-- _ID_63_ct0_st0&#45;&gt;ID_63_ct0_st0 -->
<g id="edge1" class="edge">
<title>_ID_63_ct0_st0&#45;&gt;ID_63_ct0_st0</title>
<path fill="none" stroke="black" d="M111.05,-67C122.71,-67 135.13,-67 147.08,-67"/>
<polygon fill="black" stroke="black" points="147.43,-70.5 157.43,-67 147.43,-63.5 147.43,-70.5"/>
</g>
<!-- ID_63_ct0_st0&#45;&gt;ID_63_ct0_st0 -->
<g id="edge4" class="edge">
<title>ID_63_ct0_st0&#45;&gt;ID_63_ct0_st0</title>
<path fill="none" stroke="black" d="M196.06,-92.18C195.39,-101.91 200.38,-110 211,-110 217.64,-110 222.08,-106.84 224.31,-102.09"/>
<polygon fill="black" stroke="black" points="227.77,-102.61 225.94,-92.18 220.86,-101.47 227.77,-102.61"/>
<text text-anchor="start" x="199" y="-113.8" font-family="arial" font-size="14.00" fill="#377eb8">true</text>
</g>
<!-- ID_63_ct0_st012 -->
<g id="node4" class="node">
<title>ID_63_ct0_st012</title>
<polygon fill="none" stroke="black" points="456,-159 334,-159 334,-109 456,-109 456,-159"/>
<text text-anchor="start" x="342" y="-144.8" font-family="arial" font-weight="bold" font-size="14.00">ID_63_ct0_st012</text>
<text text-anchor="start" x="343.5" y="-130.8" font-family="arial" font-size="14.00" fill="#984ea3">(P &amp;&amp; (!Q &amp;&amp; R))</text>
<text text-anchor="start" x="383" y="-116.8" font-family="arial" font-size="14.00" fill="#ff7f00">true</text>
</g>
<!-- ID_63_ct0_st0&#45;&gt;ID_63_ct0_st012 -->
<g id="edge5" class="edge">
<title>ID_63_ct0_st0&#45;&gt;ID_63_ct0_st012</title>
<path fill="none" stroke="black" d="M264.65,-80.4C281.27,-85.1 299.57,-90.78 316,-97 322.22,-99.35 328.62,-102 334.96,-104.77"/>
<polygon fill="black" stroke="black" points="333.61,-108 344.17,-108.9 336.47,-101.62 333.61,-108"/>
<text text-anchor="start" x="292" y="-100.8" font-family="arial" font-size="14.00" fill="#377eb8">true</text>
</g>
<!-- ID_63_ct0_st01234 -->
<g id="node6" class="node">
<title>ID_63_ct0_st01234</title>
<polygon fill="none" stroke="black" points="1037,-163 900,-163 900,-113 1037,-113 1037,-163"/>
<text text-anchor="start" x="908" y="-148.8" font-family="arial" font-weight="bold" font-size="14.00">ID_63_ct0_st01234</text>
<text text-anchor="start" x="915" y="-134.8" font-family="arial" font-size="14.00" fill="#984ea3">(P &amp;&amp; (!Q &amp;&amp; !R))</text>
<text text-anchor="start" x="956.5" y="-120.8" font-family="arial" font-size="14.00" fill="#ff7f00">true</text>
</g>
<!-- ID_63_ct0_st0&#45;&gt;ID_63_ct0_st01234 -->
<g id="edge6" class="edge">
<title>ID_63_ct0_st0&#45;&gt;ID_63_ct0_st01234</title>
<path fill="none" stroke="black" d="M254.15,-41.86C290.05,-22.85 343.66,0 394,0 394,0 394,0 770.5,0 843.32,0 908.34,-64.03 942.4,-104.86"/>
<polygon fill="black" stroke="black" points="939.75,-107.16 948.79,-112.69 945.18,-102.73 939.75,-107.16"/>
<text text-anchor="start" x="565.5" y="-3.8" font-family="arial" font-size="14.00" fill="#377eb8">true</text>
</g>
<!-- _ID_63_ct0_st012 -->
<!-- _ID_63_ct0_st012&#45;&gt;ID_63_ct0_st012 -->
<g id="edge2" class="edge">
<title>_ID_63_ct0_st012&#45;&gt;ID_63_ct0_st012</title>
<path fill="none" stroke="black" d="M274.25,-156.33C288.02,-154.43 302.53,-152.29 316,-150 318.5,-149.58 321.05,-149.13 323.62,-148.67"/>
<polygon fill="black" stroke="black" points="324.42,-152.08 333.61,-146.81 323.14,-145.2 324.42,-152.08"/>
</g>
<!-- ID_63_ct0_st012&#45;&gt;ID_63_ct0_st0 -->
<g id="edge12" class="edge">
<title>ID_63_ct0_st012&#45;&gt;ID_63_ct0_st0</title>
<path fill="none" stroke="black" d="M333.8,-124.15C319.84,-121.01 305.21,-117.01 292,-112 281.28,-107.94 270.27,-102.6 259.98,-97.04"/>
<polygon fill="black" stroke="black" points="261.58,-93.92 251.14,-92.11 258.17,-100.04 261.58,-93.92"/>
<text text-anchor="start" x="296.5" y="-122.8" font-family="arial" font-size="14.00" fill="#377eb8">Q&#39;</text>
</g>
<!-- ID_63_ct0_st012&#45;&gt;ID_63_ct0_st012 -->
<g id="edge15" class="edge">
<title>ID_63_ct0_st012&#45;&gt;ID_63_ct0_st012</title>
<path fill="none" stroke="black" d="M378.19,-159.18C377.44,-168.91 383.05,-177 395,-177 402.47,-177 407.46,-173.84 409.97,-169.09"/>
<polygon fill="black" stroke="black" points="413.43,-169.65 411.81,-159.18 406.54,-168.37 413.43,-169.65"/>
<text text-anchor="start" x="383" y="-180.8" font-family="arial" font-size="14.00" fill="#377eb8">true</text>
</g>
<!-- ID_63_ct0_st012&#45;&gt;ID_63_ct0_st01234 -->
<g id="edge16" class="edge">
<title>ID_63_ct0_st012&#45;&gt;ID_63_ct0_st01234</title>
<path fill="none" stroke="black" d="M456.11,-120.16C475.15,-116.4 496.36,-112.85 516,-111 646.79,-98.65 799.47,-113.98 889.56,-126.08"/>
<polygon fill="black" stroke="black" points="889.31,-129.57 899.69,-127.46 890.26,-122.64 889.31,-129.57"/>
<text text-anchor="start" x="657" y="-110.8" font-family="arial" font-size="14.00" fill="#377eb8">true</text>
</g>
<!-- ID_63_ct0_st02 -->
<g id="node7" class="node">
<title>ID_63_ct0_st02</title>
<polygon fill="none" stroke="black" points="639,-170 516,-170 516,-120 639,-120 639,-170"/>
<text text-anchor="start" x="528.5" y="-155.8" font-family="arial" font-weight="bold" font-size="14.00">ID_63_ct0_st02</text>
<text text-anchor="start" x="524" y="-141.8" font-family="arial" font-size="14.00" fill="#984ea3">(!P &amp;&amp; (!Q &amp;&amp; R))</text>
<text text-anchor="start" x="565.5" y="-127.8" font-family="arial" font-size="14.00" fill="#ff7f00">true</text>
</g>
<!-- ID_63_ct0_st012&#45;&gt;ID_63_ct0_st02 -->
<g id="edge13" class="edge">
<title>ID_63_ct0_st012&#45;&gt;ID_63_ct0_st02</title>
<path fill="none" stroke="black" d="M456.22,-124.44C469.97,-123.43 484.51,-123.31 498,-125 500.66,-125.33 503.35,-125.73 506.06,-126.17"/>
<polygon fill="black" stroke="black" points="505.47,-129.62 515.93,-127.98 506.73,-122.73 505.47,-129.62"/>
<text text-anchor="start" x="474" y="-128.8" font-family="arial" font-size="14.00" fill="#377eb8">true</text>
</g>
<!-- ID_63_ct0_st0234 -->
<g id="node8" class="node">
<title>ID_63_ct0_st0234</title>
<polygon fill="none" stroke="black" points="834,-264 705,-264 705,-214 834,-214 834,-264"/>
<text text-anchor="start" x="713" y="-249.8" font-family="arial" font-weight="bold" font-size="14.00">ID_63_ct0_st0234</text>
<text text-anchor="start" x="714" y="-235.8" font-family="arial" font-size="14.00" fill="#984ea3">(!P &amp;&amp; (!Q &amp;&amp; !R))</text>
<text text-anchor="start" x="757.5" y="-221.8" font-family="arial" font-size="14.00" fill="#ff7f00">true</text>
</g>
<!-- ID_63_ct0_st012&#45;&gt;ID_63_ct0_st0234 -->
<g id="edge14" class="edge">
<title>ID_63_ct0_st012&#45;&gt;ID_63_ct0_st0234</title>
<path fill="none" stroke="black" d="M425.93,-159.22C449,-177.16 482.52,-200.1 516,-212 573.83,-232.55 643.44,-238.74 694.91,-240.1"/>
<polygon fill="black" stroke="black" points="694.88,-243.6 704.95,-240.31 695.03,-236.6 694.88,-243.6"/>
<text text-anchor="start" x="565.5" y="-239.8" font-family="arial" font-size="14.00" fill="#377eb8">true</text>
</g>
<!-- _ID_63_ct0_st01234 -->
<!-- _ID_63_ct0_st01234&#45;&gt;ID_63_ct0_st01234 -->
<g id="edge3" class="edge">
<title>_ID_63_ct0_st01234&#45;&gt;ID_63_ct0_st01234</title>
<path fill="none" stroke="black" d="M840.22,-62.14C854.37,-66.48 868.92,-71.75 882,-78 898.28,-85.78 914.81,-96.57 928.95,-106.86"/>
<polygon fill="black" stroke="black" points="926.87,-109.67 936.98,-112.83 931.05,-104.06 926.87,-109.67"/>
</g>
<!-- ID_63_ct0_st01234&#45;&gt;ID_63_ct0_st01234 -->
<g id="edge32" class="edge">
<title>ID_63_ct0_st01234&#45;&gt;ID_63_ct0_st01234</title>
<path fill="none" stroke="black" d="M950.2,-163.18C949.38,-172.91 955.48,-181 968.5,-181 976.63,-181 982.07,-177.84 984.8,-173.09"/>
<polygon fill="black" stroke="black" points="988.26,-173.67 986.8,-163.18 981.39,-172.29 988.26,-173.67"/>
<text text-anchor="start" x="956.5" y="-184.8" font-family="arial" font-size="14.00" fill="#377eb8">true</text>
</g>
<!-- ID_63_ct0_st01234&#45;&gt;ID_63_ct0_st0234 -->
<g id="edge30" class="edge">
<title>ID_63_ct0_st01234&#45;&gt;ID_63_ct0_st0234</title>
<path fill="none" stroke="black" d="M899.83,-151.82C885.6,-156.02 870.97,-161.34 858,-168 838.29,-178.12 818.9,-193.19 803.39,-206.84"/>
<polygon fill="black" stroke="black" points="800.74,-204.52 795.66,-213.81 805.43,-209.71 800.74,-204.52"/>
<text text-anchor="start" x="858" y="-171.8" font-family="arial" font-size="14.00" fill="#377eb8">true</text>
</g>
<!-- ID_63_ct0_st024 -->
<g id="node9" class="node">
<title>ID_63_ct0_st024</title>
<polygon fill="none" stroke="black" points="1409,-230 1286,-230 1286,-180 1409,-180 1409,-230"/>
<text text-anchor="start" x="1294.5" y="-215.8" font-family="arial" font-weight="bold" font-size="14.00">ID_63_ct0_st024</text>
<text text-anchor="start" x="1294" y="-201.8" font-family="arial" font-size="14.00" fill="#984ea3">(!P &amp;&amp; (!Q &amp;&amp; R))</text>
<text text-anchor="start" x="1335.5" y="-187.8" font-family="arial" font-size="14.00" fill="#ff7f00">true</text>
</g>
<!-- ID_63_ct0_st01234&#45;&gt;ID_63_ct0_st024 -->
<g id="edge29" class="edge">
<title>ID_63_ct0_st01234&#45;&gt;ID_63_ct0_st024</title>
<path fill="none" stroke="black" d="M1037.01,-142.53C1089.05,-146.83 1162.6,-154.67 1226,-168 1242.32,-171.43 1259.59,-176.09 1275.81,-180.96"/>
<polygon fill="black" stroke="black" points="1275.17,-184.42 1285.76,-184 1277.22,-177.73 1275.17,-184.42"/>
<text text-anchor="start" x="1149.5" y="-171.8" font-family="arial" font-size="14.00" fill="#377eb8">true</text>
</g>
<!-- ID_63_ct0_st0124 -->
<g id="node10" class="node">
<title>ID_63_ct0_st0124</title>
<polygon fill="none" stroke="black" points="1226,-242 1097,-242 1097,-192 1226,-192 1226,-242"/>
<text text-anchor="start" x="1105" y="-227.8" font-family="arial" font-weight="bold" font-size="14.00">ID_63_ct0_st0124</text>
<text text-anchor="start" x="1110" y="-213.8" font-family="arial" font-size="14.00" fill="#984ea3">(P &amp;&amp; (!Q &amp;&amp; R))</text>
<text text-anchor="start" x="1149.5" y="-199.8" font-family="arial" font-size="14.00" fill="#ff7f00">true</text>
</g>
<!-- ID_63_ct0_st01234&#45;&gt;ID_63_ct0_st0124 -->
<g id="edge31" class="edge">
<title>ID_63_ct0_st01234&#45;&gt;ID_63_ct0_st0124</title>
<path fill="none" stroke="black" d="M1008.49,-163.01C1022.74,-171.43 1039.23,-180.36 1055,-187 1065.25,-191.32 1076.31,-195.23 1087.28,-198.69"/>
<polygon fill="black" stroke="black" points="1086.29,-202.04 1096.88,-201.61 1088.33,-195.35 1086.29,-202.04"/>
<text text-anchor="start" x="1055" y="-198.8" font-family="arial" font-size="14.00" fill="#377eb8">true</text>
</g>
<!-- ID_63_ct0_st02&#45;&gt;ID_63_ct0_st0 -->
<g id="edge7" class="edge">
<title>ID_63_ct0_st02&#45;&gt;ID_63_ct0_st0</title>
<path fill="none" stroke="black" d="M535.99,-119.86C513.33,-107.1 484.06,-92.7 456,-85 396.03,-68.54 324.84,-65.02 274.89,-65.02"/>
<polygon fill="black" stroke="black" points="274.86,-61.52 264.87,-65.07 274.89,-68.52 274.86,-61.52"/>
<text text-anchor="start" x="387.5" y="-88.8" font-family="arial" font-size="14.00" fill="#377eb8">Q&#39;</text>
</g>
<!-- ID_63_ct0_st02&#45;&gt;ID_63_ct0_st012 -->
<g id="edge10" class="edge">
<title>ID_63_ct0_st02&#45;&gt;ID_63_ct0_st012</title>
<path fill="none" stroke="black" d="M515.75,-145.59C502.01,-145.39 487.49,-144.93 474,-144 471.5,-143.83 468.95,-143.63 466.38,-143.41"/>
<polygon fill="black" stroke="black" points="466.69,-139.92 456.4,-142.46 466.02,-146.89 466.69,-139.92"/>
<text text-anchor="start" x="474" y="-148.8" font-family="arial" font-size="14.00" fill="#377eb8">true</text>
</g>
<!-- ID_63_ct0_st02&#45;&gt;ID_63_ct0_st01234 -->
<g id="edge11" class="edge">
<title>ID_63_ct0_st02&#45;&gt;ID_63_ct0_st01234</title>
<path fill="none" stroke="black" d="M639.28,-143.91C706.83,-142.69 816.1,-140.72 889.81,-139.4"/>
<polygon fill="black" stroke="black" points="890.03,-142.89 899.96,-139.22 889.9,-135.9 890.03,-142.89"/>
<text text-anchor="start" x="757.5" y="-145.8" font-family="arial" font-size="14.00" fill="#377eb8">true</text>
</g>
<!-- ID_63_ct0_st02&#45;&gt;ID_63_ct0_st02 -->
<g id="edge8" class="edge">
<title>ID_63_ct0_st02&#45;&gt;ID_63_ct0_st02</title>
<path fill="none" stroke="black" d="M560.69,-170.18C559.94,-179.91 565.55,-188 577.5,-188 584.97,-188 589.96,-184.84 592.47,-180.09"/>
<polygon fill="black" stroke="black" points="595.93,-180.65 594.31,-170.18 589.04,-179.37 595.93,-180.65"/>
<text text-anchor="start" x="565.5" y="-191.8" font-family="arial" font-size="14.00" fill="#377eb8">true</text>
</g>
<!-- ID_63_ct0_st02&#45;&gt;ID_63_ct0_st0234 -->
<g id="edge9" class="edge">
<title>ID_63_ct0_st02&#45;&gt;ID_63_ct0_st0234</title>
<path fill="none" stroke="black" d="M629.42,-170.19C653.79,-182.25 683.15,-196.77 708.59,-209.36"/>
<polygon fill="black" stroke="black" points="707.26,-212.61 717.77,-213.9 710.36,-206.33 707.26,-212.61"/>
<text text-anchor="start" x="657" y="-197.8" font-family="arial" font-size="14.00" fill="#377eb8">true</text>
</g>
<!-- ID_63_ct0_st0234&#45;&gt;ID_63_ct0_st01234 -->
<g id="edge28" class="edge">
<title>ID_63_ct0_st0234&#45;&gt;ID_63_ct0_st01234</title>
<path fill="none" stroke="black" d="M826.53,-213.99C844.41,-205.71 864.18,-196.24 882,-187 893.27,-181.16 905.18,-174.59 916.42,-168.2"/>
<polygon fill="black" stroke="black" points="918.33,-171.14 925.27,-163.14 914.85,-165.07 918.33,-171.14"/>
<text text-anchor="start" x="858" y="-200.8" font-family="arial" font-size="14.00" fill="#377eb8">true</text>
</g>
<!-- ID_63_ct0_st0234&#45;&gt;ID_63_ct0_st0234 -->
<g id="edge26" class="edge">
<title>ID_63_ct0_st0234&#45;&gt;ID_63_ct0_st0234</title>
<path fill="none" stroke="black" d="M750.82,-264.18C749.99,-273.91 756.22,-282 769.5,-282 777.8,-282 783.35,-278.84 786.13,-274.09"/>
<polygon fill="black" stroke="black" points="789.59,-274.68 788.18,-264.18 782.73,-273.26 789.59,-274.68"/>
<text text-anchor="start" x="757.5" y="-285.8" font-family="arial" font-size="14.00" fill="#377eb8">true</text>
</g>
<!-- ID_63_ct0_st0234&#45;&gt;ID_63_ct0_st024 -->
<g id="edge25" class="edge">
<title>ID_63_ct0_st0234&#45;&gt;ID_63_ct0_st024</title>
<path fill="none" stroke="black" d="M811.48,-264C836.19,-277.77 868.83,-293.7 900,-302 1040.02,-339.29 1086.72,-345.95 1226,-306 1264.59,-294.93 1298.62,-263.24 1320.58,-238.28"/>
<polygon fill="black" stroke="black" points="1323.44,-240.32 1327.28,-230.45 1318.12,-235.77 1323.44,-240.32"/>
<text text-anchor="start" x="1055" y="-336.8" font-family="arial" font-size="14.00" fill="#377eb8">true</text>
</g>
<!-- ID_63_ct0_st0234&#45;&gt;ID_63_ct0_st0124 -->
<g id="edge27" class="edge">
<title>ID_63_ct0_st0234&#45;&gt;ID_63_ct0_st0124</title>
<path fill="none" stroke="black" d="M834.05,-244.96C842.11,-245.67 850.25,-246.37 858,-247 937.3,-253.46 958.11,-260.36 1037,-250 1053.31,-247.86 1070.53,-244.19 1086.76,-240.06"/>
<polygon fill="black" stroke="black" points="1087.94,-243.37 1096.72,-237.44 1086.16,-236.6 1087.94,-243.37"/>
<text text-anchor="start" x="956.5" y="-258.8" font-family="arial" font-size="14.00" fill="#377eb8">true</text>
</g>
<!-- ID_63_ct0_st024&#45;&gt;ID_63_ct0_st01234 -->
<g id="edge20" class="edge">
<title>ID_63_ct0_st024&#45;&gt;ID_63_ct0_st01234</title>
<path fill="none" stroke="black" d="M1328.77,-179.69C1307.91,-152.72 1270.44,-112.37 1226,-101 1166.83,-85.86 1098.29,-97.18 1046.95,-111.16"/>
<polygon fill="black" stroke="black" points="1045.92,-107.81 1037.24,-113.89 1047.82,-114.55 1045.92,-107.81"/>
<text text-anchor="start" x="1149.5" y="-104.8" font-family="arial" font-size="14.00" fill="#377eb8">true</text>
</g>
<!-- ID_63_ct0_st024&#45;&gt;ID_63_ct0_st0234 -->
<g id="edge18" class="edge">
<title>ID_63_ct0_st024&#45;&gt;ID_63_ct0_st0234</title>
<path fill="none" stroke="black" d="M1318.73,-230.05C1295.74,-248.99 1261.24,-273.48 1226,-284 1095.41,-322.99 935.36,-289.54 843.94,-263.22"/>
<polygon fill="black" stroke="black" points="844.8,-259.82 834.22,-260.37 842.83,-266.54 844.8,-259.82"/>
<text text-anchor="start" x="1055" y="-304.8" font-family="arial" font-size="14.00" fill="#377eb8">true</text>
</g>
<!-- ID_63_ct0_st024&#45;&gt;ID_63_ct0_st024 -->
<g id="edge17" class="edge">
<title>ID_63_ct0_st024&#45;&gt;ID_63_ct0_st024</title>
<path fill="none" stroke="black" d="M1330.69,-230.18C1329.94,-239.91 1335.55,-248 1347.5,-248 1354.97,-248 1359.96,-244.84 1362.47,-240.09"/>
<polygon fill="black" stroke="black" points="1365.93,-240.65 1364.31,-230.18 1359.04,-239.37 1365.93,-240.65"/>
<text text-anchor="start" x="1335.5" y="-251.8" font-family="arial" font-size="14.00" fill="#377eb8">true</text>
</g>
<!-- ID_63_ct0_st024&#45;&gt;ID_63_ct0_st0124 -->
<g id="edge19" class="edge">
<title>ID_63_ct0_st024&#45;&gt;ID_63_ct0_st0124</title>
<path fill="none" stroke="black" d="M1285.71,-208.96C1269.86,-210 1252.62,-211.12 1236.19,-212.19"/>
<polygon fill="black" stroke="black" points="1235.83,-208.71 1226.08,-212.85 1236.29,-215.7 1235.83,-208.71"/>
<text text-anchor="start" x="1244" y="-214.8" font-family="arial" font-size="14.00" fill="#377eb8">true</text>
</g>
<!-- ID_63_ct0_st0124&#45;&gt;ID_63_ct0_st01234 -->
<g id="edge24" class="edge">
<title>ID_63_ct0_st0124&#45;&gt;ID_63_ct0_st01234</title>
<path fill="none" stroke="black" d="M1119.02,-191.97C1106.43,-184.96 1092.38,-177.7 1079,-172 1068.73,-167.62 1057.71,-163.53 1046.75,-159.82"/>
<polygon fill="black" stroke="black" points="1047.76,-156.46 1037.16,-156.64 1045.56,-163.11 1047.76,-156.46"/>
<text text-anchor="start" x="1055" y="-175.8" font-family="arial" font-size="14.00" fill="#377eb8">true</text>
</g>
<!-- ID_63_ct0_st0124&#45;&gt;ID_63_ct0_st0234 -->
<g id="edge22" class="edge">
<title>ID_63_ct0_st0124&#45;&gt;ID_63_ct0_st0234</title>
<path fill="none" stroke="black" d="M1097,-220.58C1027.74,-224.49 917.06,-230.73 844.07,-234.85"/>
<polygon fill="black" stroke="black" points="843.82,-231.36 834.03,-235.42 844.21,-238.35 843.82,-231.36"/>
<text text-anchor="start" x="956.5" y="-234.8" font-family="arial" font-size="14.00" fill="#377eb8">true</text>
</g>
<!-- ID_63_ct0_st0124&#45;&gt;ID_63_ct0_st024 -->
<g id="edge21" class="edge">
<title>ID_63_ct0_st0124&#45;&gt;ID_63_ct0_st024</title>
<path fill="none" stroke="black" d="M1226.12,-194.66C1232.1,-193.18 1238.13,-191.91 1244,-191 1254.22,-189.41 1265.03,-189.24 1275.65,-189.94"/>
<polygon fill="black" stroke="black" points="1275.47,-193.44 1285.74,-190.86 1276.1,-186.47 1275.47,-193.44"/>
<text text-anchor="start" x="1244" y="-194.8" font-family="arial" font-size="14.00" fill="#377eb8">true</text>
</g>
<!-- ID_63_ct0_st0124&#45;&gt;ID_63_ct0_st0124 -->
<g id="edge23" class="edge">
<title>ID_63_ct0_st0124&#45;&gt;ID_63_ct0_st0124</title>
<path fill="none" stroke="black" d="M1143.94,-242.18C1143.16,-251.91 1149.02,-260 1161.5,-260 1169.3,-260 1174.51,-256.84 1177.14,-252.09"/>
<polygon fill="black" stroke="black" points="1180.59,-252.66 1179.06,-242.18 1173.72,-251.33 1180.59,-252.66"/>
<text text-anchor="start" x="1149.5" y="-263.8" font-family="arial" font-size="14.00" fill="#377eb8">true</text>
</g>
</g>
</svg>
