<?xml version="1.0" encoding="UTF-8" standalone="no"?>
<!DOCTYPE svg PUBLIC "-//W3C//DTD SVG 1.1//EN"
 "http://www.w3.org/Graphics/SVG/1.1/DTD/svg11.dtd">
<!-- Generated by graphviz version 2.43.0 (0)
 -->
<!-- Title: G Pages: 1 -->
<svg width="1746pt" height="579pt"
 viewBox="0.00 0.00 1746.00 579.00" xmlns="http://www.w3.org/2000/svg" xmlns:xlink="http://www.w3.org/1999/xlink">
<g id="graph0" class="graph" transform="scale(1 1) rotate(0) translate(4 575)">
<title>G</title>
<polygon fill="white" stroke="transparent" points="-4,4 -4,-575 1742,-575 1742,4 -4,4"/>
<!-- _ID_121_ct0_st0 -->
<!-- ID_121_ct0_st0 -->
<g id="node2" class="node">
<title>ID_121_ct0_st0</title>
<polygon fill="none" stroke="black" points="286.5,-302 172.5,-302 172.5,-252 286.5,-252 286.5,-302"/>
<text text-anchor="start" x="180.5" y="-287.8" font-family="arial" font-weight="bold" font-size="14.00">ID_121_ct0_st0</text>
<text text-anchor="start" x="223" y="-273.8" font-family="arial" font-size="14.00" fill="#984ea3">!P</text>
<text text-anchor="start" x="217.5" y="-259.8" font-family="arial" font-size="14.00" fill="#ff7f00">true</text>
</g>
<!-- _ID_121_ct0_st0&#45;&gt;ID_121_ct0_st0 -->
<g id="edge1" class="edge">
<title>_ID_121_ct0_st0&#45;&gt;ID_121_ct0_st0</title>
<path fill="none" stroke="black" d="M119.26,-277C133.12,-277 147.98,-277 162.15,-277"/>
<polygon fill="black" stroke="black" points="162.32,-280.5 172.32,-277 162.32,-273.5 162.32,-280.5"/>
</g>
<!-- ID_121_ct0_st0&#45;&gt;ID_121_ct0_st0 -->
<g id="edge4" class="edge">
<title>ID_121_ct0_st0&#45;&gt;ID_121_ct0_st0</title>
<path fill="none" stroke="black" d="M212.32,-302.18C211.55,-311.91 217.28,-320 229.5,-320 237.14,-320 242.24,-316.84 244.8,-312.09"/>
<polygon fill="black" stroke="black" points="248.26,-312.65 246.68,-302.18 241.38,-311.35 248.26,-312.65"/>
<text text-anchor="start" x="217.5" y="-323.8" font-family="arial" font-size="14.00" fill="#377eb8">true</text>
</g>
<!-- ID_121_ct0_st01 -->
<g id="node4" class="node">
<title>ID_121_ct0_st01</title>
<polygon fill="none" stroke="black" points="911,-216 789,-216 789,-166 911,-166 911,-216"/>
<text text-anchor="start" x="797" y="-201.8" font-family="arial" font-weight="bold" font-size="14.00">ID_121_ct0_st01</text>
<text text-anchor="start" x="822.5" y="-187.8" font-family="arial" font-size="14.00" fill="#984ea3">(P &amp;&amp; Q)</text>
<text text-anchor="start" x="838" y="-173.8" font-family="arial" font-size="14.00" fill="#ff7f00">true</text>
</g>
<!-- ID_121_ct0_st0&#45;&gt;ID_121_ct0_st01 -->
<g id="edge5" class="edge">
<title>ID_121_ct0_st0&#45;&gt;ID_121_ct0_st01</title>
<path fill="none" stroke="black" d="M242.83,-251.64C257.43,-224.64 284.46,-183.09 321,-163 467.45,-82.48 672.65,-130.65 778.97,-165.19"/>
<polygon fill="black" stroke="black" points="778.03,-168.57 788.63,-168.39 780.23,-161.93 778.03,-168.57"/>
<text text-anchor="start" x="545" y="-124.8" font-family="arial" font-size="14.00" fill="#377eb8">true</text>
</g>
<!-- ID_121_ct0_st012W -->
<g id="node6" class="node">
<title>ID_121_ct0_st012W</title>
<polygon fill="none" stroke="black" points="520,-468 377,-468 377,-418 520,-418 520,-468"/>
<text text-anchor="start" x="385" y="-453.8" font-family="arial" font-weight="bold" font-size="14.00">ID_121_ct0_st012W</text>
<text text-anchor="start" x="419" y="-439.8" font-family="arial" font-size="14.00" fill="#984ea3">(P &amp;&amp; !Q)</text>
<text text-anchor="start" x="425.5" y="-425.8" font-family="arial" font-size="14.00" fill="#ff7f00">c0 &lt;= 5</text>
</g>
<!-- ID_121_ct0_st0&#45;&gt;ID_121_ct0_st012W -->
<g id="edge6" class="edge">
<title>ID_121_ct0_st0&#45;&gt;ID_121_ct0_st012W</title>
<path fill="none" stroke="black" d="M240.09,-302C253.39,-333.22 280.47,-385.9 321,-414 334.57,-423.41 350.74,-429.81 366.91,-434.15"/>
<polygon fill="black" stroke="black" points="366.4,-437.63 376.95,-436.59 368.06,-430.83 366.4,-437.63"/>
<text text-anchor="start" x="328" y="-448.8" font-family="arial" font-size="14.00" fill="#377eb8">true</text>
<text text-anchor="start" x="321" y="-433.8" font-family="arial" font-size="14.00">c0 :=0</text>
</g>
<!-- _ID_121_ct0_st01 -->
<!-- _ID_121_ct0_st01&#45;&gt;ID_121_ct0_st01 -->
<g id="edge2" class="edge">
<title>_ID_121_ct0_st01&#45;&gt;ID_121_ct0_st01</title>
<path fill="none" stroke="black" d="M724.6,-212.34C741.87,-209.38 760.76,-206.14 778.48,-203.1"/>
<polygon fill="black" stroke="black" points="779.49,-206.48 788.75,-201.34 778.3,-199.58 779.49,-206.48"/>
</g>
<!-- ID_121_ct0_st01&#45;&gt;ID_121_ct0_st0 -->
<g id="edge7" class="edge">
<title>ID_121_ct0_st01&#45;&gt;ID_121_ct0_st0</title>
<path fill="none" stroke="black" d="M789,-188.81C737.18,-187.73 660.39,-188.03 594,-196 488.54,-208.65 368.75,-238.42 296.44,-258.13"/>
<polygon fill="black" stroke="black" points="295.28,-254.82 286.56,-260.84 297.13,-261.57 295.28,-254.82"/>
<text text-anchor="start" x="549.5" y="-206.8" font-family="arial" font-size="14.00" fill="#377eb8">Q&#39;</text>
</g>
<!-- ID_121_ct0_st01&#45;&gt;ID_121_ct0_st01 -->
<g id="edge9" class="edge">
<title>ID_121_ct0_st01&#45;&gt;ID_121_ct0_st01</title>
<path fill="none" stroke="black" d="M833.19,-216.18C832.44,-225.91 838.05,-234 850,-234 857.47,-234 862.46,-230.84 864.97,-226.09"/>
<polygon fill="black" stroke="black" points="868.43,-226.65 866.81,-216.18 861.54,-225.37 868.43,-226.65"/>
<text text-anchor="start" x="838" y="-237.8" font-family="arial" font-size="14.00" fill="#377eb8">true</text>
</g>
<!-- ID_121_ct0_st02X -->
<g id="node7" class="node">
<title>ID_121_ct0_st02X</title>
<polygon fill="none" stroke="black" points="1344,-228 1213,-228 1213,-178 1344,-178 1344,-228"/>
<text text-anchor="start" x="1221" y="-213.8" font-family="arial" font-weight="bold" font-size="14.00">ID_121_ct0_st02X</text>
<text text-anchor="start" x="1247" y="-199.8" font-family="arial" font-size="14.00" fill="#984ea3">(!P &amp;&amp; !Q)</text>
<text text-anchor="start" x="1255.5" y="-185.8" font-family="arial" font-size="14.00" fill="#ff7f00">c0 &lt;= 5</text>
</g>
<!-- ID_121_ct0_st01&#45;&gt;ID_121_ct0_st02X -->
<g id="edge8" class="edge">
<title>ID_121_ct0_st01&#45;&gt;ID_121_ct0_st02X</title>
<path fill="none" stroke="black" d="M893.8,-216.06C921.16,-230.59 957.97,-247.47 993,-255 1052.96,-267.89 1070.56,-265.41 1131,-255 1158.12,-250.33 1186.88,-241.13 1211.67,-231.75"/>
<polygon fill="black" stroke="black" points="1213.25,-234.89 1221.31,-228.02 1210.72,-228.36 1213.25,-234.89"/>
<text text-anchor="start" x="1050" y="-281.8" font-family="arial" font-size="14.00" fill="#377eb8">true</text>
<text text-anchor="start" x="1043" y="-266.8" font-family="arial" font-size="14.00">c0 :=0</text>
</g>
<!-- ID_121_ct0_st012X -->
<g id="node8" class="node">
<title>ID_121_ct0_st012X</title>
<polygon fill="none" stroke="black" points="1131,-213 993,-213 993,-163 1131,-163 1131,-213"/>
<text text-anchor="start" x="1001" y="-198.8" font-family="arial" font-weight="bold" font-size="14.00">ID_121_ct0_st012X</text>
<text text-anchor="start" x="1032.5" y="-184.8" font-family="arial" font-size="14.00" fill="#984ea3">(P &amp;&amp; !Q)</text>
<text text-anchor="start" x="1039" y="-170.8" font-family="arial" font-size="14.00" fill="#ff7f00">c0 &lt;= 5</text>
</g>
<!-- ID_121_ct0_st01&#45;&gt;ID_121_ct0_st012X -->
<g id="edge10" class="edge">
<title>ID_121_ct0_st01&#45;&gt;ID_121_ct0_st012X</title>
<path fill="none" stroke="black" d="M911.18,-190.14C933.45,-189.82 959.03,-189.46 982.68,-189.12"/>
<polygon fill="black" stroke="black" points="982.73,-192.62 992.68,-188.98 982.63,-185.62 982.73,-192.62"/>
<text text-anchor="start" x="940" y="-207.8" font-family="arial" font-size="14.00" fill="#377eb8">true</text>
<text text-anchor="start" x="933" y="-192.8" font-family="arial" font-size="14.00">c0 :=0</text>
</g>
<!-- _ID_121_ct0_st012W -->
<!-- _ID_121_ct0_st012W&#45;&gt;ID_121_ct0_st012W -->
<g id="edge3" class="edge">
<title>_ID_121_ct0_st012W&#45;&gt;ID_121_ct0_st012W</title>
<path fill="none" stroke="black" d="M303.17,-475.08C321.48,-473.05 341.03,-470.39 359,-467 361.53,-466.52 364.1,-466.01 366.68,-465.47"/>
<polygon fill="black" stroke="black" points="367.71,-468.82 376.72,-463.24 366.2,-461.99 367.71,-468.82"/>
</g>
<!-- ID_121_ct0_st012W&#45;&gt;ID_121_ct0_st0 -->
<g id="edge27" class="edge">
<title>ID_121_ct0_st012W&#45;&gt;ID_121_ct0_st0</title>
<path fill="none" stroke="black" d="M401.72,-417.8C388.03,-410.36 372.95,-402.27 359,-395 342.25,-386.28 336.07,-387.38 321,-376 296.07,-357.17 272.41,-330.88 255.54,-310.12"/>
<polygon fill="black" stroke="black" points="258.17,-307.81 249.19,-302.18 252.7,-312.18 258.17,-307.81"/>
<text text-anchor="start" x="332.5" y="-398.8" font-family="arial" font-size="14.00" fill="#377eb8">Q&#39;</text>
</g>
<!-- ID_121_ct0_st012W&#45;&gt;ID_121_ct0_st01 -->
<g id="edge30" class="edge">
<title>ID_121_ct0_st012W&#45;&gt;ID_121_ct0_st01</title>
<path fill="none" stroke="black" d="M505.87,-417.88C510.67,-415.6 515.43,-413.29 520,-411 567.39,-387.25 685.58,-326.41 729,-296 760.37,-274.03 792.89,-245.14 816.14,-223.22"/>
<polygon fill="black" stroke="black" points="818.82,-225.5 823.66,-216.08 814,-220.43 818.82,-225.5"/>
<text text-anchor="start" x="649.5" y="-374.8" font-family="arial" font-size="14.00" fill="#377eb8">true</text>
</g>
<!-- ID_121_ct0_st012W&#45;&gt;ID_121_ct0_st012W -->
<g id="edge31" class="edge">
<title>ID_121_ct0_st012W&#45;&gt;ID_121_ct0_st012W</title>
<path fill="none" stroke="black" d="M428.33,-468.18C427.43,-477.91 434.16,-486 448.5,-486 457.46,-486 463.45,-482.84 466.46,-478.09"/>
<polygon fill="black" stroke="black" points="469.92,-478.7 468.67,-468.18 463.08,-477.18 469.92,-478.7"/>
<text text-anchor="start" x="429.5" y="-489.8" font-family="arial" font-size="14.00" fill="#377eb8">c0 &lt; 5</text>
</g>
<!-- ID_121_ct0_st02W -->
<g id="node9" class="node">
<title>ID_121_ct0_st02W</title>
<polygon fill="none" stroke="black" points="729,-449 594,-449 594,-399 729,-399 729,-449"/>
<text text-anchor="start" x="602" y="-434.8" font-family="arial" font-weight="bold" font-size="14.00">ID_121_ct0_st02W</text>
<text text-anchor="start" x="630" y="-420.8" font-family="arial" font-size="14.00" fill="#984ea3">(!P &amp;&amp; !Q)</text>
<text text-anchor="start" x="638.5" y="-406.8" font-family="arial" font-size="14.00" fill="#ff7f00">c0 &lt;= 5</text>
</g>
<!-- ID_121_ct0_st012W&#45;&gt;ID_121_ct0_st02W -->
<g id="edge28" class="edge">
<title>ID_121_ct0_st012W&#45;&gt;ID_121_ct0_st02W</title>
<path fill="none" stroke="black" d="M520.14,-438.56C538.35,-437.26 557.92,-435.71 576,-434 578.51,-433.76 581.06,-433.51 583.63,-433.25"/>
<polygon fill="black" stroke="black" points="584.07,-436.73 593.65,-432.2 583.34,-429.76 584.07,-436.73"/>
<text text-anchor="start" x="538" y="-439.8" font-family="arial" font-size="14.00" fill="#377eb8">c0 &lt; 5</text>
</g>
<!-- ID_121_ct0_st02 -->
<g id="node10" class="node">
<title>ID_121_ct0_st02</title>
<polygon fill="none" stroke="black" points="1738,-283 1615,-283 1615,-233 1738,-233 1738,-283"/>
<text text-anchor="start" x="1623.5" y="-268.8" font-family="arial" font-weight="bold" font-size="14.00">ID_121_ct0_st02</text>
<text text-anchor="start" x="1623" y="-254.8" font-family="arial" font-size="14.00" fill="#984ea3">(!P &amp;&amp; (!Q &amp;&amp; R))</text>
<text text-anchor="start" x="1664.5" y="-240.8" font-family="arial" font-size="14.00" fill="#ff7f00">true</text>
</g>
<!-- ID_121_ct0_st012W&#45;&gt;ID_121_ct0_st02 -->
<g id="edge29" class="edge">
<title>ID_121_ct0_st012W&#45;&gt;ID_121_ct0_st02</title>
<path fill="none" stroke="black" d="M475.73,-468.08C513.42,-501.37 586.53,-556 660.5,-556 660.5,-556 660.5,-556 1491.5,-556 1613.85,-556 1657.54,-371.9 1670.64,-293.1"/>
<polygon fill="black" stroke="black" points="1674.1,-293.58 1672.22,-283.15 1667.19,-292.48 1674.1,-293.58"/>
<text text-anchor="start" x="1039" y="-559.8" font-family="arial" font-size="14.00" fill="#377eb8">c0 &gt;= 5</text>
</g>
<!-- ID_121_ct0_st012 -->
<g id="node11" class="node">
<title>ID_121_ct0_st012</title>
<polygon fill="none" stroke="black" points="1555,-362 1426,-362 1426,-312 1555,-312 1555,-362"/>
<text text-anchor="start" x="1434" y="-347.8" font-family="arial" font-weight="bold" font-size="14.00">ID_121_ct0_st012</text>
<text text-anchor="start" x="1439" y="-333.8" font-family="arial" font-size="14.00" fill="#984ea3">(P &amp;&amp; (!Q &amp;&amp; R))</text>
<text text-anchor="start" x="1478.5" y="-319.8" font-family="arial" font-size="14.00" fill="#ff7f00">true</text>
</g>
<!-- ID_121_ct0_st012W&#45;&gt;ID_121_ct0_st012 -->
<g id="edge32" class="edge">
<title>ID_121_ct0_st012W&#45;&gt;ID_121_ct0_st012</title>
<path fill="none" stroke="black" d="M498.84,-468.14C540.73,-487.15 603.04,-510 660.5,-510 660.5,-510 660.5,-510 1279.5,-510 1366.17,-510 1436.48,-421.13 1469.36,-370.78"/>
<polygon fill="black" stroke="black" points="1472.43,-372.47 1474.87,-362.16 1466.54,-368.7 1472.43,-372.47"/>
<text text-anchor="start" x="929" y="-513.8" font-family="arial" font-size="14.00" fill="#377eb8">c0 &gt;= 5</text>
</g>
<!-- ID_121_ct0_st02X&#45;&gt;ID_121_ct0_st0 -->
<g id="edge17" class="edge">
<title>ID_121_ct0_st02X&#45;&gt;ID_121_ct0_st0</title>
<path fill="none" stroke="black" d="M1251.71,-177.94C1236.39,-164.42 1215.93,-148.6 1195,-139 1054.01,-74.32 1006.12,-80 851,-80 447.5,-80 447.5,-80 447.5,-80 384.89,-80 368.16,-100.81 321,-142 288.5,-170.39 262.53,-213.05 246.89,-242.79"/>
<polygon fill="black" stroke="black" points="243.63,-241.46 242.18,-251.95 249.86,-244.66 243.63,-241.46"/>
<text text-anchor="start" x="751.5" y="-83.8" font-family="arial" font-size="14.00" fill="#377eb8">Q&#39;</text>
</g>
<!-- ID_121_ct0_st02X&#45;&gt;ID_121_ct0_st01 -->
<g id="edge20" class="edge">
<title>ID_121_ct0_st02X&#45;&gt;ID_121_ct0_st01</title>
<path fill="none" stroke="black" d="M1233.25,-177.94C1204.98,-163.4 1167,-146.52 1131,-139 1070.96,-126.46 1053.39,-128.29 993,-139 966.64,-143.67 938.75,-152.87 914.73,-162.25"/>
<polygon fill="black" stroke="black" points="913.38,-159.03 905.39,-165.99 915.97,-165.53 913.38,-159.03"/>
<text text-anchor="start" x="1050" y="-142.8" font-family="arial" font-size="14.00" fill="#377eb8">true</text>
</g>
<!-- ID_121_ct0_st02X&#45;&gt;ID_121_ct0_st02X -->
<g id="edge18" class="edge">
<title>ID_121_ct0_st02X&#45;&gt;ID_121_ct0_st02X</title>
<path fill="none" stroke="black" d="M1258.7,-228.18C1257.82,-237.91 1264.42,-246 1278.5,-246 1287.3,-246 1293.18,-242.84 1296.13,-238.09"/>
<polygon fill="black" stroke="black" points="1299.58,-238.69 1298.3,-228.18 1292.74,-237.2 1299.58,-238.69"/>
<text text-anchor="start" x="1259.5" y="-249.8" font-family="arial" font-size="14.00" fill="#377eb8">c0 &lt; 5</text>
</g>
<!-- ID_121_ct0_st02X&#45;&gt;ID_121_ct0_st012X -->
<g id="edge21" class="edge">
<title>ID_121_ct0_st02X&#45;&gt;ID_121_ct0_st012X</title>
<path fill="none" stroke="black" d="M1212.58,-182.27C1206.68,-180.95 1200.76,-179.82 1195,-179 1177.7,-176.53 1159.03,-176.33 1141.32,-177.26"/>
<polygon fill="black" stroke="black" points="1140.78,-173.79 1131.03,-177.93 1141.24,-180.77 1140.78,-173.79"/>
<text text-anchor="start" x="1153" y="-182.8" font-family="arial" font-size="14.00" fill="#377eb8">c0 &lt; 5</text>
</g>
<!-- ID_121_ct0_st02X&#45;&gt;ID_121_ct0_st02 -->
<g id="edge19" class="edge">
<title>ID_121_ct0_st02X&#45;&gt;ID_121_ct0_st02</title>
<path fill="none" stroke="black" d="M1344.01,-211.96C1415.59,-221.9 1530.76,-237.9 1604.76,-248.18"/>
<polygon fill="black" stroke="black" points="1604.54,-251.68 1614.92,-249.59 1605.5,-244.74 1604.54,-251.68"/>
<text text-anchor="start" x="1467.5" y="-244.8" font-family="arial" font-size="14.00" fill="#377eb8">c0 &gt;= 5</text>
</g>
<!-- ID_121_ct0_st02X&#45;&gt;ID_121_ct0_st012 -->
<g id="edge22" class="edge">
<title>ID_121_ct0_st02X&#45;&gt;ID_121_ct0_st012</title>
<path fill="none" stroke="black" d="M1336.12,-228.1C1359.11,-239.18 1385.5,-253.08 1408,-268 1424.43,-278.89 1441.27,-292.64 1455.34,-304.99"/>
<polygon fill="black" stroke="black" points="1453.06,-307.64 1462.86,-311.68 1457.72,-302.41 1453.06,-307.64"/>
<text text-anchor="start" x="1362" y="-271.8" font-family="arial" font-size="14.00" fill="#377eb8">c0 &gt;= 5</text>
</g>
<!-- ID_121_ct0_st012X&#45;&gt;ID_121_ct0_st0 -->
<g id="edge33" class="edge">
<title>ID_121_ct0_st012X&#45;&gt;ID_121_ct0_st0</title>
<path fill="none" stroke="black" d="M1026.12,-213.03C985.93,-239.35 916.93,-277 851,-277 447.5,-277 447.5,-277 447.5,-277 396.93,-277 339.73,-277 296.75,-277"/>
<polygon fill="black" stroke="black" points="296.7,-273.5 286.7,-277 296.7,-280.5 296.7,-273.5"/>
<text text-anchor="start" x="654" y="-280.8" font-family="arial" font-size="14.00" fill="#377eb8">Q&#39;</text>
</g>
<!-- ID_121_ct0_st012X&#45;&gt;ID_121_ct0_st01 -->
<g id="edge36" class="edge">
<title>ID_121_ct0_st012X&#45;&gt;ID_121_ct0_st01</title>
<path fill="none" stroke="black" d="M992.84,-171.72C972.33,-168.7 949.75,-167.26 929,-170 926.35,-170.35 923.67,-170.76 920.97,-171.23"/>
<polygon fill="black" stroke="black" points="920.3,-167.79 911.15,-173.13 921.63,-174.67 920.3,-167.79"/>
<text text-anchor="start" x="940" y="-173.8" font-family="arial" font-size="14.00" fill="#377eb8">true</text>
</g>
<!-- ID_121_ct0_st012X&#45;&gt;ID_121_ct0_st02X -->
<g id="edge34" class="edge">
<title>ID_121_ct0_st012X&#45;&gt;ID_121_ct0_st02X</title>
<path fill="none" stroke="black" d="M1131.16,-192.77C1153.93,-194.36 1179.41,-196.14 1202.65,-197.77"/>
<polygon fill="black" stroke="black" points="1202.58,-201.27 1212.8,-198.48 1203.07,-194.29 1202.58,-201.27"/>
<text text-anchor="start" x="1153" y="-199.8" font-family="arial" font-size="14.00" fill="#377eb8">c0 &lt; 5</text>
</g>
<!-- ID_121_ct0_st012X&#45;&gt;ID_121_ct0_st012X -->
<g id="edge37" class="edge">
<title>ID_121_ct0_st012X&#45;&gt;ID_121_ct0_st012X</title>
<path fill="none" stroke="black" d="M1041.46,-213.18C1040.54,-222.91 1047.39,-231 1062,-231 1071.13,-231 1077.23,-227.84 1080.3,-223.09"/>
<polygon fill="black" stroke="black" points="1083.75,-223.7 1082.54,-213.18 1076.92,-222.15 1083.75,-223.7"/>
<text text-anchor="start" x="1043" y="-234.8" font-family="arial" font-size="14.00" fill="#377eb8">c0 &lt; 5</text>
</g>
<!-- ID_121_ct0_st012X&#45;&gt;ID_121_ct0_st02 -->
<g id="edge35" class="edge">
<title>ID_121_ct0_st012X&#45;&gt;ID_121_ct0_st02</title>
<path fill="none" stroke="black" d="M1131.41,-174.4C1137.34,-173.48 1143.27,-172.66 1149,-172 1177.29,-168.72 1184.53,-169.67 1213,-169 1271.21,-167.64 1286.19,-162.11 1344,-169 1439.8,-180.41 1462.05,-194.14 1555,-220 1571.19,-224.5 1588.48,-229.71 1604.76,-234.81"/>
<polygon fill="black" stroke="black" points="1604.16,-238.29 1614.75,-237.95 1606.26,-231.61 1604.16,-238.29"/>
<text text-anchor="start" x="1362" y="-181.8" font-family="arial" font-size="14.00" fill="#377eb8">c0 &gt;= 5</text>
</g>
<!-- ID_121_ct0_st012X&#45;&gt;ID_121_ct0_st012 -->
<g id="edge38" class="edge">
<title>ID_121_ct0_st012X&#45;&gt;ID_121_ct0_st012</title>
<path fill="none" stroke="black" d="M1102.05,-213.07C1131.55,-231.07 1173.55,-254.75 1213,-270 1279.6,-295.76 1359.16,-313.79 1415.8,-324.61"/>
<polygon fill="black" stroke="black" points="1415.27,-328.07 1425.75,-326.48 1416.57,-321.19 1415.27,-328.07"/>
<text text-anchor="start" x="1255.5" y="-311.8" font-family="arial" font-size="14.00" fill="#377eb8">c0 &gt;= 5</text>
</g>
<!-- ID_121_ct0_st02W&#45;&gt;ID_121_ct0_st0 -->
<g id="edge11" class="edge">
<title>ID_121_ct0_st02W&#45;&gt;ID_121_ct0_st0</title>
<path fill="none" stroke="black" d="M593.78,-410.49C524.1,-395.21 412.43,-367.35 321,-329 306.61,-322.96 291.65,-315.1 278.15,-307.33"/>
<polygon fill="black" stroke="black" points="279.9,-304.3 269.5,-302.25 276.35,-310.33 279.9,-304.3"/>
<text text-anchor="start" x="441" y="-395.8" font-family="arial" font-size="14.00" fill="#377eb8">Q&#39;</text>
</g>
<!-- ID_121_ct0_st02W&#45;&gt;ID_121_ct0_st01 -->
<g id="edge14" class="edge">
<title>ID_121_ct0_st02W&#45;&gt;ID_121_ct0_st01</title>
<path fill="none" stroke="black" d="M695.38,-398.89C718.3,-380.35 748.65,-353.63 771,-326 796.46,-294.52 818.8,-253.73 832.97,-225.27"/>
<polygon fill="black" stroke="black" points="836.2,-226.63 837.46,-216.11 829.91,-223.55 836.2,-226.63"/>
<text text-anchor="start" x="747" y="-352.8" font-family="arial" font-size="14.00" fill="#377eb8">true</text>
</g>
<!-- ID_121_ct0_st02W&#45;&gt;ID_121_ct0_st012W -->
<g id="edge15" class="edge">
<title>ID_121_ct0_st02W&#45;&gt;ID_121_ct0_st012W</title>
<path fill="none" stroke="black" d="M593.87,-417.1C575.69,-416.36 556.04,-416.6 538,-419 535.45,-419.34 532.86,-419.73 530.26,-420.17"/>
<polygon fill="black" stroke="black" points="529.35,-416.78 520.17,-422.07 530.64,-423.66 529.35,-416.78"/>
<text text-anchor="start" x="538" y="-422.8" font-family="arial" font-size="14.00" fill="#377eb8">c0 &lt; 5</text>
</g>
<!-- ID_121_ct0_st02W&#45;&gt;ID_121_ct0_st02W -->
<g id="edge12" class="edge">
<title>ID_121_ct0_st02W&#45;&gt;ID_121_ct0_st02W</title>
<path fill="none" stroke="black" d="M643.57,-449.18C642.77,-458.91 648.75,-467 661.5,-467 669.47,-467 674.79,-463.84 677.47,-459.09"/>
<polygon fill="black" stroke="black" points="680.92,-459.66 679.43,-449.18 674.06,-458.31 680.92,-459.66"/>
<text text-anchor="start" x="642.5" y="-470.8" font-family="arial" font-size="14.00" fill="#377eb8">c0 &lt; 5</text>
</g>
<!-- ID_121_ct0_st02W&#45;&gt;ID_121_ct0_st02 -->
<g id="edge13" class="edge">
<title>ID_121_ct0_st02W&#45;&gt;ID_121_ct0_st02</title>
<path fill="none" stroke="black" d="M729.41,-447.14C764.57,-457.31 808.63,-467 849,-467 849,-467 849,-467 1491.5,-467 1583.32,-467 1640.17,-351.96 1663.4,-292.58"/>
<polygon fill="black" stroke="black" points="1666.68,-293.8 1666.97,-283.21 1660.14,-291.31 1666.68,-293.8"/>
<text text-anchor="start" x="1149" y="-470.8" font-family="arial" font-size="14.00" fill="#377eb8">c0 &gt;= 5</text>
</g>
<!-- ID_121_ct0_st02W&#45;&gt;ID_121_ct0_st012 -->
<g id="edge16" class="edge">
<title>ID_121_ct0_st02W&#45;&gt;ID_121_ct0_st012</title>
<path fill="none" stroke="black" d="M729.4,-424C764.93,-424 809.34,-424 849,-424 849,-424 849,-424 1279.5,-424 1338.36,-424 1354.23,-415.94 1408,-392 1422.19,-385.68 1436.59,-376.91 1449.26,-368.22"/>
<polygon fill="black" stroke="black" points="1451.57,-370.87 1457.73,-362.25 1447.54,-365.15 1451.57,-370.87"/>
<text text-anchor="start" x="1039" y="-427.8" font-family="arial" font-size="14.00" fill="#377eb8">c0 &gt;= 5</text>
</g>
<!-- ID_121_ct0_st02&#45;&gt;ID_121_ct0_st0 -->
<g id="edge23" class="edge">
<title>ID_121_ct0_st02&#45;&gt;ID_121_ct0_st0</title>
<path fill="none" stroke="black" d="M1670.26,-232.79C1655.16,-167.87 1605.11,0 1491.5,0 447.5,0 447.5,0 447.5,0 325.85,0 262.15,-167.61 239.86,-242.07"/>
<polygon fill="black" stroke="black" points="236.42,-241.35 236.98,-251.93 243.14,-243.31 236.42,-241.35"/>
<text text-anchor="start" x="944.5" y="-3.8" font-family="arial" font-size="14.00" fill="#377eb8">Q&#39;</text>
</g>
<!-- ID_121_ct0_st02&#45;&gt;ID_121_ct0_st01 -->
<g id="edge25" class="edge">
<title>ID_121_ct0_st02&#45;&gt;ID_121_ct0_st01</title>
<path fill="none" stroke="black" d="M1667.23,-232.85C1647.02,-176.69 1589.46,-46 1491.5,-46 1171,-46 1171,-46 1171,-46 1061.71,-46 948.64,-117.04 890.62,-159.67"/>
<polygon fill="black" stroke="black" points="888.4,-156.96 882.47,-165.74 892.58,-162.58 888.4,-156.96"/>
<text text-anchor="start" x="1266.5" y="-49.8" font-family="arial" font-size="14.00" fill="#377eb8">true</text>
</g>
<!-- ID_121_ct0_st02&#45;&gt;ID_121_ct0_st02 -->
<g id="edge24" class="edge">
<title>ID_121_ct0_st02&#45;&gt;ID_121_ct0_st02</title>
<path fill="none" stroke="black" d="M1659.69,-283.18C1658.94,-292.91 1664.55,-301 1676.5,-301 1683.97,-301 1688.96,-297.84 1691.47,-293.09"/>
<polygon fill="black" stroke="black" points="1694.93,-293.65 1693.31,-283.18 1688.04,-292.37 1694.93,-293.65"/>
<text text-anchor="start" x="1664.5" y="-304.8" font-family="arial" font-size="14.00" fill="#377eb8">true</text>
</g>
<!-- ID_121_ct0_st02&#45;&gt;ID_121_ct0_st012 -->
<g id="edge26" class="edge">
<title>ID_121_ct0_st02&#45;&gt;ID_121_ct0_st012</title>
<path fill="none" stroke="black" d="M1617.18,-283.04C1598.74,-290.96 1578.21,-299.77 1559.18,-307.94"/>
<polygon fill="black" stroke="black" points="1557.78,-304.73 1549.97,-311.9 1560.54,-311.17 1557.78,-304.73"/>
<text text-anchor="start" x="1573" y="-302.8" font-family="arial" font-size="14.00" fill="#377eb8">true</text>
</g>
<!-- ID_121_ct0_st012&#45;&gt;ID_121_ct0_st0 -->
<g id="edge39" class="edge">
<title>ID_121_ct0_st012&#45;&gt;ID_121_ct0_st0</title>
<path fill="none" stroke="black" d="M1425.79,-356.06C1384.48,-366.77 1329.28,-378 1279.5,-378 849,-378 849,-378 849,-378 735.28,-378 706.45,-373.93 594,-357 489.03,-341.2 369.1,-312.74 296.63,-294.37"/>
<polygon fill="black" stroke="black" points="297.28,-290.92 286.73,-291.84 295.55,-297.7 297.28,-290.92"/>
<text text-anchor="start" x="842.5" y="-381.8" font-family="arial" font-size="14.00" fill="#377eb8">Q&#39;</text>
</g>
<!-- ID_121_ct0_st012&#45;&gt;ID_121_ct0_st01 -->
<g id="edge41" class="edge">
<title>ID_121_ct0_st012&#45;&gt;ID_121_ct0_st01</title>
<path fill="none" stroke="black" d="M1425.68,-342.47C1328.89,-348.46 1140.62,-350.95 993,-297 950.4,-281.43 909.76,-248.63 882.96,-223.62"/>
<polygon fill="black" stroke="black" points="885.1,-220.82 875.44,-216.46 880.27,-225.89 885.1,-220.82"/>
<text text-anchor="start" x="1160" y="-342.8" font-family="arial" font-size="14.00" fill="#377eb8">true</text>
</g>
<!-- ID_121_ct0_st012&#45;&gt;ID_121_ct0_st02 -->
<g id="edge40" class="edge">
<title>ID_121_ct0_st012&#45;&gt;ID_121_ct0_st02</title>
<path fill="none" stroke="black" d="M1516.38,-311.81C1531.46,-298.08 1551.84,-282.08 1573,-273 1583,-268.71 1593.99,-265.61 1604.95,-263.37"/>
<polygon fill="black" stroke="black" points="1605.77,-266.78 1614.98,-261.56 1604.52,-259.9 1605.77,-266.78"/>
<text text-anchor="start" x="1573" y="-276.8" font-family="arial" font-size="14.00" fill="#377eb8">true</text>
</g>
<!-- ID_121_ct0_st012&#45;&gt;ID_121_ct0_st012 -->
<g id="edge42" class="edge">
<title>ID_121_ct0_st012&#45;&gt;ID_121_ct0_st012</title>
<path fill="none" stroke="black" d="M1472.94,-362.18C1472.16,-371.91 1478.02,-380 1490.5,-380 1498.3,-380 1503.51,-376.84 1506.14,-372.09"/>
<polygon fill="black" stroke="black" points="1509.59,-372.66 1508.06,-362.18 1502.72,-371.33 1509.59,-372.66"/>
<text text-anchor="start" x="1478.5" y="-383.8" font-family="arial" font-size="14.00" fill="#377eb8">true</text>
</g>
</g>
</svg>
