<?xml version="1.0" encoding="UTF-8" standalone="no"?>
<!DOCTYPE svg PUBLIC "-//W3C//DTD SVG 1.1//EN"
 "http://www.w3.org/Graphics/SVG/1.1/DTD/svg11.dtd">
<!-- Generated by graphviz version 2.40.1 (20161225.0304)
 -->
<!-- Title: G Pages: 1 -->
<svg width="1294pt" height="354pt"
 viewBox="0.00 0.00 1294.00 354.00" xmlns="http://www.w3.org/2000/svg" xmlns:xlink="http://www.w3.org/1999/xlink">
<g id="graph0" class="graph" transform="scale(1 1) rotate(0) translate(4 350)">
<title>G</title>
<polygon fill="#ffffff" stroke="transparent" points="-4,4 -4,-350 1290,-350 1290,4 -4,4"/>
<!-- _st0 -->
<!-- st0 -->
<g id="node2" class="node">
<title>st0</title>
<polygon fill="none" stroke="#000000" points="157,-92 91,-92 91,-42 157,-42 157,-92"/>
<text text-anchor="start" x="113" y="-77.8" font-family="arial" font-weight="bold" font-size="14.00" fill="#000000">st0</text>
<text text-anchor="start" x="99" y="-63.8" font-family="arial" font-size="14.00" fill="#984ea3">(R || !Q)</text>
<text text-anchor="start" x="111.5" y="-49.8" font-family="arial" font-size="14.00" fill="#ff7f00">true</text>
</g>
<!-- _st0&#45;&gt;st0 -->
<g id="edge1" class="edge">
<title>_st0&#45;&gt;st0</title>
<path fill="none" stroke="#000000" d="M54.0199,-67C62.3287,-67 71.6915,-67 80.8018,-67"/>
<polygon fill="#000000" stroke="#000000" points="80.9106,-70.5001 90.9106,-67 80.9105,-63.5001 80.9106,-70.5001"/>
</g>
<!-- st0&#45;&gt;st0 -->
<g id="edge4" class="edge">
<title>st0&#45;&gt;st0</title>
<path fill="none" stroke="#000000" d="M114.6616,-92.1756C114.2466,-101.9095 117.3594,-110 124,-110 128.0466,-110 130.7832,-106.9957 132.2098,-102.446"/>
<polygon fill="#000000" stroke="#000000" points="135.7251,-102.4981 133.3384,-92.1756 128.767,-101.7335 135.7251,-102.4981"/>
<text text-anchor="start" x="111.5" y="-113.8" font-family="arial" font-size="14.00" fill="#377eb8">true</text>
</g>
<!-- st012 -->
<g id="node4" class="node">
<title>st012</title>
<polygon fill="none" stroke="#000000" points="342,-159 218,-159 218,-109 342,-109 342,-159"/>
<text text-anchor="start" x="261" y="-144.8" font-family="arial" font-weight="bold" font-size="14.00" fill="#000000">st012</text>
<text text-anchor="start" x="226" y="-130.8" font-family="arial" font-size="14.00" fill="#984ea3">(Q &amp;&amp; (!R &amp;&amp; S))</text>
<text text-anchor="start" x="267.5" y="-116.8" font-family="arial" font-size="14.00" fill="#ff7f00">true</text>
</g>
<!-- st0&#45;&gt;st012 -->
<g id="edge5" class="edge">
<title>st0&#45;&gt;st012</title>
<path fill="none" stroke="#000000" d="M157.0877,-79.5864C170.481,-84.8042 186.0472,-91.0254 200,-97 205.7235,-99.4508 211.6485,-102.0572 217.5664,-104.7079"/>
<polygon fill="#000000" stroke="#000000" points="216.276,-107.9655 226.8301,-108.8936 219.1583,-101.5864 216.276,-107.9655"/>
<text text-anchor="start" x="175" y="-100.8" font-family="arial" font-size="14.00" fill="#377eb8">true</text>
</g>
<!-- st01234 -->
<g id="node6" class="node">
<title>st01234</title>
<polygon fill="none" stroke="#000000" points="912,-163 784,-163 784,-113 912,-113 912,-163"/>
<text text-anchor="start" x="820.5" y="-148.8" font-family="arial" font-weight="bold" font-size="14.00" fill="#000000">st01234</text>
<text text-anchor="start" x="792" y="-134.8" font-family="arial" font-size="14.00" fill="#984ea3">(Q &amp;&amp; (!R &amp;&amp; !S))</text>
<text text-anchor="start" x="835.5" y="-120.8" font-family="arial" font-size="14.00" fill="#ff7f00">true</text>
</g>
<!-- st0&#45;&gt;st01234 -->
<g id="edge6" class="edge">
<title>st0&#45;&gt;st01234</title>
<path fill="none" stroke="#000000" d="M157.2397,-43.3783C187.6818,-24.0886 234.755,0 280,0 280,0 280,0 657.5,0 728.5646,0 791.0373,-63.7612 823.7641,-104.6023"/>
<polygon fill="#000000" stroke="#000000" points="821.176,-106.9741 830.0976,-112.6887 826.6869,-102.6578 821.176,-106.9741"/>
<text text-anchor="start" x="454.5" y="-3.8" font-family="arial" font-size="14.00" fill="#377eb8">true</text>
</g>
<!-- _st012 -->
<!-- _st012&#45;&gt;st012 -->
<g id="edge2" class="edge">
<title>_st012&#45;&gt;st012</title>
<path fill="none" stroke="#000000" d="M154.7124,-158.4523C168.5591,-155.9229 185.1116,-152.86 200,-150 202.495,-149.5207 205.0332,-149.03 207.5962,-148.5319"/>
<polygon fill="#000000" stroke="#000000" points="208.4239,-151.9365 217.5662,-146.5822 207.0804,-145.0666 208.4239,-151.9365"/>
</g>
<!-- st012&#45;&gt;st0 -->
<g id="edge12" class="edge">
<title>st012&#45;&gt;st0</title>
<path fill="none" stroke="#000000" d="M217.9646,-126.5112C203.3778,-123.2728 188.2363,-118.6365 175,-112 167.9492,-108.4648 161.1056,-103.7108 154.8413,-98.6146"/>
<polygon fill="#000000" stroke="#000000" points="157.0968,-95.938 147.2441,-92.0425 152.5171,-101.232 157.0968,-95.938"/>
<text text-anchor="start" x="180.5" y="-124.8" font-family="arial" font-size="14.00" fill="#377eb8">R&#39;</text>
</g>
<!-- st012&#45;&gt;st012 -->
<g id="edge15" class="edge">
<title>st012&#45;&gt;st012</title>
<path fill="none" stroke="#000000" d="M262.8174,-159.1756C262.0537,-168.9095 267.7813,-177 280,-177 287.6367,-177 292.7378,-173.8397 295.3033,-169.093"/>
<polygon fill="#000000" stroke="#000000" points="298.7595,-169.6525 297.1826,-159.1756 291.8819,-168.3491 298.7595,-169.6525"/>
<text text-anchor="start" x="267.5" y="-180.8" font-family="arial" font-size="14.00" fill="#377eb8">true</text>
</g>
<!-- st012&#45;&gt;st01234 -->
<g id="edge16" class="edge">
<title>st012&#45;&gt;st01234</title>
<path fill="none" stroke="#000000" d="M342.258,-120.0363C361.6152,-116.3223 383.0981,-112.8356 403,-111 533.2417,-98.9876 685.4412,-114.5991 773.858,-126.5994"/>
<polygon fill="#000000" stroke="#000000" points="773.4071,-130.0703 783.7915,-127.969 774.3632,-123.1359 773.4071,-130.0703"/>
<text text-anchor="start" x="549" y="-111.8" font-family="arial" font-size="14.00" fill="#377eb8">true</text>
</g>
<!-- st02 -->
<g id="node7" class="node">
<title>st02</title>
<polygon fill="none" stroke="#000000" points="531,-170 403,-170 403,-120 531,-120 531,-170"/>
<text text-anchor="start" x="452" y="-155.8" font-family="arial" font-weight="bold" font-size="14.00" fill="#000000">st02</text>
<text text-anchor="start" x="411" y="-141.8" font-family="arial" font-size="14.00" fill="#984ea3">(!Q &amp;&amp; (!R &amp;&amp; S))</text>
<text text-anchor="start" x="454.5" y="-127.8" font-family="arial" font-size="14.00" fill="#ff7f00">true</text>
</g>
<!-- st012&#45;&gt;st02 -->
<g id="edge13" class="edge">
<title>st012&#45;&gt;st02</title>
<path fill="none" stroke="#000000" d="M342.2564,-124.4477C356.3317,-123.4598 371.1944,-123.3407 385,-125 387.546,-125.306 390.1272,-125.6636 392.7267,-126.0644"/>
<polygon fill="#000000" stroke="#000000" points="392.3593,-129.5527 402.8092,-127.8061 393.5509,-122.6549 392.3593,-129.5527"/>
<text text-anchor="start" x="360" y="-128.8" font-family="arial" font-size="14.00" fill="#377eb8">true</text>
</g>
<!-- st0234 -->
<g id="node8" class="node">
<title>st0234</title>
<polygon fill="none" stroke="#000000" points="723,-264 592,-264 592,-214 723,-214 723,-264"/>
<text text-anchor="start" x="634.5" y="-249.8" font-family="arial" font-weight="bold" font-size="14.00" fill="#000000">st0234</text>
<text text-anchor="start" x="600" y="-235.8" font-family="arial" font-size="14.00" fill="#984ea3">(!Q &amp;&amp; (!R &amp;&amp; !S))</text>
<text text-anchor="start" x="645" y="-221.8" font-family="arial" font-size="14.00" fill="#ff7f00">true</text>
</g>
<!-- st012&#45;&gt;st0234 -->
<g id="edge14" class="edge">
<title>st012&#45;&gt;st0234</title>
<path fill="none" stroke="#000000" d="M310.7813,-159.2188C334.4781,-177.1544 368.8562,-200.0977 403,-212 460.8204,-232.1559 530.1418,-238.4353 581.8252,-239.9373"/>
<polygon fill="#000000" stroke="#000000" points="581.8379,-243.4385 591.9181,-240.1768 582.0039,-236.4405 581.8379,-243.4385"/>
<text text-anchor="start" x="454.5" y="-239.8" font-family="arial" font-size="14.00" fill="#377eb8">true</text>
</g>
<!-- _st01234 -->
<!-- _st01234&#45;&gt;st01234 -->
<g id="edge3" class="edge">
<title>_st01234&#45;&gt;st01234</title>
<path fill="none" stroke="#000000" d="M696.1157,-53.9515C717.3995,-59.1708 743.9068,-67.0747 766,-78 781.5826,-85.7057 797.3194,-96.37 810.7826,-106.5731"/>
<polygon fill="#000000" stroke="#000000" points="808.8044,-109.4683 818.8498,-112.8358 813.097,-103.9389 808.8044,-109.4683"/>
</g>
<!-- st01234&#45;&gt;st01234 -->
<g id="edge32" class="edge">
<title>st01234&#45;&gt;st01234</title>
<path fill="none" stroke="#000000" d="M830.4438,-163.1756C829.6636,-172.9095 835.5156,-181 848,-181 855.8027,-181 861.0147,-177.8397 863.6359,-173.093"/>
<polygon fill="#000000" stroke="#000000" points="867.0913,-173.6586 865.5562,-163.1756 860.219,-172.3279 867.0913,-173.6586"/>
<text text-anchor="start" x="835.5" y="-184.8" font-family="arial" font-size="14.00" fill="#377eb8">true</text>
</g>
<!-- st01234&#45;&gt;st0234 -->
<g id="edge30" class="edge">
<title>st01234&#45;&gt;st0234</title>
<path fill="none" stroke="#000000" d="M783.7335,-151.1721C769.2134,-155.4558 754.1995,-160.9763 741,-168 721.9745,-178.1239 703.4398,-193.1867 688.6855,-206.8367"/>
<polygon fill="#000000" stroke="#000000" points="686.1783,-204.3909 681.332,-213.8125 690.9958,-209.4694 686.1783,-204.3909"/>
<text text-anchor="start" x="741" y="-171.8" font-family="arial" font-size="14.00" fill="#377eb8">true</text>
</g>
<!-- st024 -->
<g id="node9" class="node">
<title>st024</title>
<polygon fill="none" stroke="#000000" points="1286,-230 1158,-230 1158,-180 1286,-180 1286,-230"/>
<text text-anchor="start" x="1203" y="-215.8" font-family="arial" font-weight="bold" font-size="14.00" fill="#000000">st024</text>
<text text-anchor="start" x="1166" y="-201.8" font-family="arial" font-size="14.00" fill="#984ea3">(!Q &amp;&amp; (!R &amp;&amp; S))</text>
<text text-anchor="start" x="1209.5" y="-187.8" font-family="arial" font-size="14.00" fill="#ff7f00">true</text>
</g>
<!-- st01234&#45;&gt;st024 -->
<g id="edge29" class="edge">
<title>st01234&#45;&gt;st024</title>
<path fill="none" stroke="#000000" d="M912.1888,-142.7517C962.7583,-147.2103 1034.8518,-155.1531 1097,-168 1113.7672,-171.466 1131.5408,-176.1147 1148.2615,-180.9444"/>
<polygon fill="#000000" stroke="#000000" points="1147.3879,-184.3357 1157.9692,-183.8014 1149.3642,-177.6205 1147.3879,-184.3357"/>
<text text-anchor="start" x="1022.5" y="-171.8" font-family="arial" font-size="14.00" fill="#377eb8">true</text>
</g>
<!-- st0124 -->
<g id="node10" class="node">
<title>st0124</title>
<polygon fill="none" stroke="#000000" points="1097,-242 973,-242 973,-192 1097,-192 1097,-242"/>
<text text-anchor="start" x="1012" y="-227.8" font-family="arial" font-weight="bold" font-size="14.00" fill="#000000">st0124</text>
<text text-anchor="start" x="981" y="-213.8" font-family="arial" font-size="14.00" fill="#984ea3">(Q &amp;&amp; (!R &amp;&amp; S))</text>
<text text-anchor="start" x="1022.5" y="-199.8" font-family="arial" font-size="14.00" fill="#ff7f00">true</text>
</g>
<!-- st01234&#45;&gt;st0124 -->
<g id="edge31" class="edge">
<title>st01234&#45;&gt;st0124</title>
<path fill="none" stroke="#000000" d="M885.2834,-163.0726C898.9386,-171.495 914.7802,-180.4128 930,-187 940.4965,-191.5429 951.8769,-195.6107 963.1417,-199.175"/>
<polygon fill="#000000" stroke="#000000" points="962.4002,-202.608 972.9862,-202.177 964.442,-195.9123 962.4002,-202.608"/>
<text text-anchor="start" x="930" y="-198.8" font-family="arial" font-size="14.00" fill="#377eb8">true</text>
</g>
<!-- st02&#45;&gt;st0 -->
<g id="edge7" class="edge">
<title>st02&#45;&gt;st0</title>
<path fill="none" stroke="#000000" d="M424.8325,-119.982C401.279,-107.2534 370.9238,-92.8479 342,-85 282.9606,-68.9809 211.9052,-65.9945 167.3322,-65.9821"/>
<polygon fill="#000000" stroke="#000000" points="167.1255,-62.483 157.1425,-66.0313 167.1593,-69.4829 167.1255,-62.483"/>
<text text-anchor="start" x="273" y="-88.8" font-family="arial" font-size="14.00" fill="#377eb8">R&#39;</text>
</g>
<!-- st02&#45;&gt;st012 -->
<g id="edge10" class="edge">
<title>st02&#45;&gt;st012</title>
<path fill="none" stroke="#000000" d="M402.735,-145.5989C388.6427,-145.3956 373.8091,-144.9245 360,-144 357.4949,-143.8323 354.9481,-143.639 352.3777,-143.4245"/>
<polygon fill="#000000" stroke="#000000" points="352.6647,-139.9362 342.3851,-142.5015 352.0208,-146.9065 352.6647,-139.9362"/>
<text text-anchor="start" x="360" y="-148.8" font-family="arial" font-size="14.00" fill="#377eb8">true</text>
</g>
<!-- st02&#45;&gt;st01234 -->
<g id="edge11" class="edge">
<title>st02&#45;&gt;st01234</title>
<path fill="none" stroke="#000000" d="M531.2006,-143.8205C598.2078,-142.5894 703.1588,-140.6611 773.7043,-139.365"/>
<polygon fill="#000000" stroke="#000000" points="773.9204,-142.8617 783.8544,-139.1785 773.7918,-135.8629 773.9204,-142.8617"/>
<text text-anchor="start" x="645" y="-145.8" font-family="arial" font-size="14.00" fill="#377eb8">true</text>
</g>
<!-- st02&#45;&gt;st02 -->
<g id="edge8" class="edge">
<title>st02&#45;&gt;st02</title>
<path fill="none" stroke="#000000" d="M449.4438,-170.1756C448.6636,-179.9095 454.5156,-188 467,-188 474.8027,-188 480.0147,-184.8397 482.6359,-180.093"/>
<polygon fill="#000000" stroke="#000000" points="486.0913,-180.6586 484.5562,-170.1756 479.219,-179.3279 486.0913,-180.6586"/>
<text text-anchor="start" x="454.5" y="-191.8" font-family="arial" font-size="14.00" fill="#377eb8">true</text>
</g>
<!-- st02&#45;&gt;st0234 -->
<g id="edge9" class="edge">
<title>st02&#45;&gt;st0234</title>
<path fill="none" stroke="#000000" d="M517.8003,-170.0668C542.2434,-182.128 571.7207,-196.6732 597.2856,-209.2879"/>
<polygon fill="#000000" stroke="#000000" points="595.9942,-212.5535 606.5106,-213.8399 599.0917,-206.2761 595.9942,-212.5535"/>
<text text-anchor="start" x="549" y="-200.8" font-family="arial" font-size="14.00" fill="#377eb8">true</text>
</g>
<!-- st0234&#45;&gt;st01234 -->
<g id="edge28" class="edge">
<title>st0234&#45;&gt;st01234</title>
<path fill="none" stroke="#000000" d="M712.3525,-213.9112C729.6817,-205.6663 748.793,-196.2394 766,-187 776.73,-181.2385 788.0518,-174.7502 798.7429,-168.4263"/>
<polygon fill="#000000" stroke="#000000" points="800.754,-171.302 807.5482,-163.1724 797.1672,-165.2908 800.754,-171.302"/>
<text text-anchor="start" x="741" y="-202.8" font-family="arial" font-size="14.00" fill="#377eb8">true</text>
</g>
<!-- st0234&#45;&gt;st0234 -->
<g id="edge26" class="edge">
<title>st0234&#45;&gt;st0234</title>
<path fill="none" stroke="#000000" d="M639.5703,-264.1756C638.7734,-273.9095 644.75,-282 657.5,-282 665.4688,-282 670.7916,-278.8397 673.4686,-274.093"/>
<polygon fill="#000000" stroke="#000000" points="676.9233,-274.6647 675.4297,-264.1756 670.0562,-273.3067 676.9233,-274.6647"/>
<text text-anchor="start" x="645" y="-285.8" font-family="arial" font-size="14.00" fill="#377eb8">true</text>
</g>
<!-- st0234&#45;&gt;st024 -->
<g id="edge25" class="edge">
<title>st0234&#45;&gt;st024</title>
<path fill="none" stroke="#000000" d="M698.3393,-264.1322C722.3647,-277.5863 753.8609,-292.9967 784,-301 918.4686,-336.7075 963.016,-343.4851 1097,-306 1136.6897,-294.8959 1172.1953,-262.9776 1195.1304,-237.963"/>
<polygon fill="#000000" stroke="#000000" points="1197.7868,-240.243 1201.8354,-230.4522 1192.5648,-235.5813 1197.7868,-240.243"/>
<text text-anchor="start" x="930" y="-334.8" font-family="arial" font-size="14.00" fill="#377eb8">true</text>
</g>
<!-- st0234&#45;&gt;st0124 -->
<g id="edge27" class="edge">
<title>st0234&#45;&gt;st0124</title>
<path fill="none" stroke="#000000" d="M723.1227,-245.4488C729.165,-245.9938 735.1947,-246.5195 741,-247 816.7526,-253.2703 836.6402,-259.9336 912,-250 928.6093,-247.8106 946.1623,-244.0262 962.6452,-239.7827"/>
<polygon fill="#000000" stroke="#000000" points="963.9892,-243.0469 972.7518,-237.0914 962.1879,-236.2826 963.9892,-243.0469"/>
<text text-anchor="start" x="835.5" y="-258.8" font-family="arial" font-size="14.00" fill="#377eb8">true</text>
</g>
<!-- st024&#45;&gt;st01234 -->
<g id="edge20" class="edge">
<title>st024&#45;&gt;st01234</title>
<path fill="none" stroke="#000000" d="M1203.3691,-179.7004C1181.5204,-152.7399 1142.4563,-112.3932 1097,-101 1038.9752,-86.4566 971.8168,-98.0422 921.8793,-111.9736"/>
<polygon fill="#000000" stroke="#000000" points="920.7685,-108.6512 912.1292,-114.7841 922.7074,-115.3773 920.7685,-108.6512"/>
<text text-anchor="start" x="1022.5" y="-104.8" font-family="arial" font-size="14.00" fill="#377eb8">true</text>
</g>
<!-- st024&#45;&gt;st0234 -->
<g id="edge18" class="edge">
<title>st024&#45;&gt;st0234</title>
<path fill="none" stroke="#000000" d="M1193.0288,-230.0619C1169.0846,-249.0147 1133.2494,-273.5053 1097,-284 972.9042,-319.9274 821.8465,-289.0972 733.0275,-263.803"/>
<polygon fill="#000000" stroke="#000000" points="733.8849,-260.4076 723.3058,-260.9856 731.9363,-267.1309 733.8849,-260.4076"/>
<text text-anchor="start" x="930" y="-303.8" font-family="arial" font-size="14.00" fill="#377eb8">true</text>
</g>
<!-- st024&#45;&gt;st024 -->
<g id="edge17" class="edge">
<title>st024&#45;&gt;st024</title>
<path fill="none" stroke="#000000" d="M1204.4438,-230.1756C1203.6636,-239.9095 1209.5156,-248 1222,-248 1229.8027,-248 1235.0147,-244.8397 1237.6359,-240.093"/>
<polygon fill="#000000" stroke="#000000" points="1241.0913,-240.6586 1239.5562,-230.1756 1234.219,-239.3279 1241.0913,-240.6586"/>
<text text-anchor="start" x="1209.5" y="-251.8" font-family="arial" font-size="14.00" fill="#377eb8">true</text>
</g>
<!-- st024&#45;&gt;st0124 -->
<g id="edge19" class="edge">
<title>st024&#45;&gt;st0124</title>
<path fill="none" stroke="#000000" d="M1157.9191,-209.1121C1141.6019,-210.1592 1123.9537,-211.2917 1107.2594,-212.363"/>
<polygon fill="#000000" stroke="#000000" points="1106.7639,-208.8875 1097.0085,-213.0208 1107.2122,-215.8732 1106.7639,-208.8875"/>
<text text-anchor="start" x="1115" y="-214.8" font-family="arial" font-size="14.00" fill="#377eb8">true</text>
</g>
<!-- st0124&#45;&gt;st01234 -->
<g id="edge24" class="edge">
<title>st0124&#45;&gt;st01234</title>
<path fill="none" stroke="#000000" d="M994.3022,-191.9865C981.9455,-184.9763 968.153,-177.7172 955,-172 944.4923,-167.4327 933.1687,-163.1702 921.9578,-159.3134"/>
<polygon fill="#000000" stroke="#000000" points="922.7522,-155.8884 912.1583,-156.0311 920.5289,-162.526 922.7522,-155.8884"/>
<text text-anchor="start" x="930" y="-175.8" font-family="arial" font-size="14.00" fill="#377eb8">true</text>
</g>
<!-- st0124&#45;&gt;st0234 -->
<g id="edge22" class="edge">
<title>st0124&#45;&gt;st0234</title>
<path fill="none" stroke="#000000" d="M972.8156,-220.624C907.2059,-224.4476 803.7602,-230.4762 733.3896,-234.5773"/>
<polygon fill="#000000" stroke="#000000" points="733.0349,-231.0919 723.2555,-235.1679 733.4422,-238.0801 733.0349,-231.0919"/>
<text text-anchor="start" x="835.5" y="-234.8" font-family="arial" font-size="14.00" fill="#377eb8">true</text>
</g>
<!-- st0124&#45;&gt;st024 -->
<g id="edge21" class="edge">
<title>st0124&#45;&gt;st024</title>
<path fill="none" stroke="#000000" d="M1097.4285,-194.6581C1103.3106,-193.1772 1109.2304,-191.914 1115,-191 1125.6253,-189.3167 1136.8675,-189.0929 1147.9151,-189.7586"/>
<polygon fill="#000000" stroke="#000000" points="1147.7252,-193.2549 1157.983,-190.6037 1148.3108,-186.2794 1147.7252,-193.2549"/>
<text text-anchor="start" x="1115" y="-194.8" font-family="arial" font-size="14.00" fill="#377eb8">true</text>
</g>
<!-- st0124&#45;&gt;st0124 -->
<g id="edge23" class="edge">
<title>st0124&#45;&gt;st0124</title>
<path fill="none" stroke="#000000" d="M1017.8174,-242.1756C1017.0537,-251.9095 1022.7813,-260 1035,-260 1042.6367,-260 1047.7378,-256.8397 1050.3033,-252.093"/>
<polygon fill="#000000" stroke="#000000" points="1053.7595,-252.6525 1052.1826,-242.1756 1046.8819,-251.3491 1053.7595,-252.6525"/>
<text text-anchor="start" x="1022.5" y="-263.8" font-family="arial" font-size="14.00" fill="#377eb8">true</text>
</g>
</g>
</svg>
