<?xml version="1.0" encoding="UTF-8" standalone="no"?>
<!DOCTYPE svg PUBLIC "-//W3C//DTD SVG 1.1//EN"
 "http://www.w3.org/Graphics/SVG/1.1/DTD/svg11.dtd">
<!-- Generated by graphviz version 2.43.0 (0)
 -->
<!-- Title: G Pages: 1 -->
<svg width="424pt" height="145pt"
 viewBox="0.00 0.00 424.00 145.00" xmlns="http://www.w3.org/2000/svg" xmlns:xlink="http://www.w3.org/1999/xlink">
<g id="graph0" class="graph" transform="scale(1 1) rotate(0) translate(4 141)">
<title>G</title>
<polygon fill="white" stroke="transparent" points="-4,4 -4,-141 420,-141 420,4 -4,4"/>
<!-- _st0 -->
<!-- st0 -->
<g id="node2" class="node">
<title>st0</title>
<polygon fill="none" stroke="black" points="146.5,-104 92.5,-104 92.5,-54 146.5,-54 146.5,-104"/>
<text text-anchor="start" x="109.5" y="-89.8" font-family="arial" font-weight="bold" font-size="14.00">st0</text>
<text text-anchor="start" x="111.5" y="-75.8" font-family="arial" font-size="14.00" fill="#984ea3">!Q</text>
<text text-anchor="start" x="107.5" y="-61.8" font-family="arial" font-size="14.00" fill="#ff7f00">true</text>
</g>
<!-- _st0&#45;&gt;st0 -->
<g id="edge1" class="edge">
<title>_st0&#45;&gt;st0</title>
<path fill="none" stroke="black" d="M54.18,-79C62.9,-79 72.78,-79 82.14,-79"/>
<polygon fill="black" stroke="black" points="82.38,-82.5 92.38,-79 82.38,-75.5 82.38,-82.5"/>
</g>
<!-- st0&#45;&gt;st0 -->
<g id="edge3" class="edge">
<title>st0&#45;&gt;st0</title>
<path fill="none" stroke="black" d="M110.91,-104.18C110.53,-113.91 113.39,-122 119.5,-122 123.22,-122 125.74,-119 127.05,-114.45"/>
<polygon fill="black" stroke="black" points="130.57,-114.48 128.09,-104.18 123.6,-113.77 130.57,-114.48"/>
<text text-anchor="start" x="107.5" y="-125.8" font-family="arial" font-size="14.00" fill="#377eb8">true</text>
</g>
<!-- st012 -->
<g id="node4" class="node">
<title>st012</title>
<polygon fill="none" stroke="black" points="280,-59 208,-59 208,-9 280,-9 280,-59"/>
<text text-anchor="start" x="226.5" y="-44.8" font-family="arial" font-weight="bold" font-size="14.00">st012</text>
<text text-anchor="start" x="216" y="-30.8" font-family="arial" font-size="14.00" fill="#984ea3">(Q &amp;&amp; R)</text>
<text text-anchor="start" x="232" y="-16.8" font-family="arial" font-size="14.00" fill="#ff7f00">true</text>
</g>
<!-- st0&#45;&gt;st012 -->
<g id="edge4" class="edge">
<title>st0&#45;&gt;st012</title>
<path fill="none" stroke="black" d="M146.78,-69.35C161.85,-63.81 181.16,-56.72 198.52,-50.34"/>
<polygon fill="black" stroke="black" points="199.75,-53.62 207.93,-46.88 197.33,-47.05 199.75,-53.62"/>
<text text-anchor="start" x="166" y="-65.8" font-family="arial" font-size="14.00" fill="#377eb8">true</text>
</g>
<!-- _st012 -->
<!-- _st012&#45;&gt;st012 -->
<g id="edge2" class="edge">
<title>_st012&#45;&gt;st012</title>
<path fill="none" stroke="black" d="M148.3,-21.63C162.91,-23.54 181.19,-25.93 197.78,-28.09"/>
<polygon fill="black" stroke="black" points="197.48,-31.58 207.85,-29.41 198.39,-24.64 197.48,-31.58"/>
</g>
<!-- st012&#45;&gt;st012 -->
<g id="edge8" class="edge">
<title>st012&#45;&gt;st012</title>
<path fill="none" stroke="black" d="M231.67,-59.18C231.13,-68.91 235.23,-77 244,-77 249.48,-77 253.14,-73.84 254.98,-69.09"/>
<polygon fill="black" stroke="black" points="258.45,-69.56 256.33,-59.18 251.51,-68.61 258.45,-69.56"/>
<text text-anchor="start" x="232" y="-80.8" font-family="arial" font-size="14.00" fill="#377eb8">true</text>
</g>
<!-- st02 -->
<g id="node5" class="node">
<title>st02</title>
<polygon fill="none" stroke="black" points="416,-59 340,-59 340,-9 416,-9 416,-59"/>
<text text-anchor="start" x="364" y="-44.8" font-family="arial" font-weight="bold" font-size="14.00">st02</text>
<text text-anchor="start" x="348" y="-30.8" font-family="arial" font-size="14.00" fill="#984ea3">(!Q &amp;&amp; R)</text>
<text text-anchor="start" x="366" y="-16.8" font-family="arial" font-size="14.00" fill="#ff7f00">true</text>
</g>
<!-- st012&#45;&gt;st02 -->
<g id="edge7" class="edge">
<title>st012&#45;&gt;st02</title>
<path fill="none" stroke="black" d="M280.03,-34C295.19,-34 313.17,-34 329.51,-34"/>
<polygon fill="black" stroke="black" points="329.96,-37.5 339.96,-34 329.96,-30.5 329.96,-37.5"/>
<text text-anchor="start" x="298" y="-37.8" font-family="arial" font-size="14.00" fill="#377eb8">true</text>
</g>
<!-- st02&#45;&gt;st012 -->
<g id="edge6" class="edge">
<title>st02&#45;&gt;st012</title>
<path fill="none" stroke="black" d="M339.81,-19.43C326.67,-15.91 311.74,-13.73 298,-16 295.35,-16.44 292.65,-16.99 289.95,-17.63"/>
<polygon fill="black" stroke="black" points="288.97,-14.27 280.23,-20.26 290.79,-21.03 288.97,-14.27"/>
<text text-anchor="start" x="298" y="-19.8" font-family="arial" font-size="14.00" fill="#377eb8">true</text>
</g>
<!-- st02&#45;&gt;st02 -->
<g id="edge5" class="edge">
<title>st02&#45;&gt;st02</title>
<path fill="none" stroke="black" d="M365.3,-59.18C364.74,-68.91 368.97,-77 378,-77 383.64,-77 387.41,-73.84 389.31,-69.09"/>
<polygon fill="black" stroke="black" points="392.78,-69.56 390.7,-59.18 385.85,-68.59 392.78,-69.56"/>
<text text-anchor="start" x="366" y="-80.8" font-family="arial" font-size="14.00" fill="#377eb8">true</text>
</g>
</g>
</svg>
