<?xml version="1.0" encoding="UTF-8" standalone="no"?>
<!DOCTYPE svg PUBLIC "-//W3C//DTD SVG 1.1//EN"
 "http://www.w3.org/Graphics/SVG/1.1/DTD/svg11.dtd">
<!-- Generated by graphviz version 2.40.1 (20161225.0304)
 -->
<!-- Title: G Pages: 1 -->
<svg width="292pt" height="192pt"
 viewBox="0.00 0.00 292.00 192.00" xmlns="http://www.w3.org/2000/svg" xmlns:xlink="http://www.w3.org/1999/xlink">
<g id="graph0" class="graph" transform="scale(1 1) rotate(0) translate(4 188)">
<title>G</title>
<polygon fill="#ffffff" stroke="transparent" points="-4,4 -4,-188 288,-188 288,4 -4,4"/>
<!-- _stinit -->
<!-- stinit -->
<g id="node2" class="node">
<title>stinit</title>
<polygon fill="none" stroke="#000000" points="157,-151 103,-151 103,-101 157,-101 157,-151"/>
<text text-anchor="start" x="113" y="-136.8" font-family="arial" font-weight="bold" font-size="14.00" fill="#000000">stinit</text>
<text text-anchor="start" x="124" y="-122.8" font-family="arial" font-size="14.00" fill="#984ea3">Q</text>
<text text-anchor="start" x="117.5" y="-108.8" font-family="arial" font-size="14.00" fill="#ff7f00">true</text>
</g>
<!-- _stinit&#45;&gt;stinit -->
<g id="edge1" class="edge">
<title>_stinit&#45;&gt;stinit</title>
<path fill="none" stroke="#000000" d="M54.062,-126C65.7965,-126 79.7346,-126 92.4467,-126"/>
<polygon fill="#000000" stroke="#000000" points="92.7611,-129.5001 102.7611,-126 92.7611,-122.5001 92.7611,-129.5001"/>
</g>
<!-- stinit&#45;&gt;stinit -->
<g id="edge4" class="edge">
<title>stinit&#45;&gt;stinit</title>
<path fill="none" stroke="#000000" d="M119.541,-151.1756C119.0762,-160.9095 122.5625,-169 130,-169 134.5322,-169 137.5972,-165.9957 139.195,-161.446"/>
<polygon fill="#000000" stroke="#000000" points="142.7112,-161.5283 140.459,-151.1756 135.7636,-160.6732 142.7112,-161.5283"/>
<text text-anchor="start" x="117.5" y="-172.8" font-family="arial" font-size="14.00" fill="#377eb8">true</text>
</g>
<!-- st -->
<g id="node5" class="node">
<title>st</title>
<polygon fill="none" stroke="#000000" points="284,-100 230,-100 230,-50 284,-50 284,-100"/>
<text text-anchor="start" x="250.5" y="-85.8" font-family="arial" font-weight="bold" font-size="14.00" fill="#000000">st</text>
<text text-anchor="start" x="244.5" y="-71.8" font-family="arial" font-size="14.00" fill="#984ea3">true</text>
<text text-anchor="start" x="244.5" y="-57.8" font-family="arial" font-size="14.00" fill="#ff7f00">true</text>
</g>
<!-- stinit&#45;&gt;st -->
<g id="edge3" class="edge">
<title>stinit&#45;&gt;st</title>
<path fill="none" stroke="#000000" d="M157.2447,-115.0592C175.6594,-107.6643 200.1915,-97.8129 220.3193,-89.73"/>
<polygon fill="#000000" stroke="#000000" points="221.8249,-92.8972 229.8004,-85.9227 219.2163,-86.4013 221.8249,-92.8972"/>
<text text-anchor="start" x="187" y="-105.8" font-family="arial" font-size="14.00" fill="#377eb8">true</text>
</g>
<!-- _st0 -->
<!-- st0 -->
<g id="node4" class="node">
<title>st0</title>
<polygon fill="none" stroke="#000000" points="169,-50 91,-50 91,0 169,0 169,-50"/>
<text text-anchor="start" x="119" y="-35.8" font-family="arial" font-weight="bold" font-size="14.00" fill="#000000">st0</text>
<text text-anchor="start" x="99" y="-21.8" font-family="arial" font-size="14.00" fill="#984ea3">(!Q &amp;&amp; R)</text>
<text text-anchor="start" x="117.5" y="-7.8" font-family="arial" font-size="14.00" fill="#ff7f00">true</text>
</g>
<!-- _st0&#45;&gt;st0 -->
<g id="edge2" class="edge">
<title>_st0&#45;&gt;st0</title>
<path fill="none" stroke="#000000" d="M54.062,-25C62.2035,-25 71.4058,-25 80.5234,-25"/>
<polygon fill="#000000" stroke="#000000" points="80.7204,-28.5001 90.7203,-25 80.7203,-21.5001 80.7204,-28.5001"/>
</g>
<!-- st0&#45;&gt;st0 -->
<g id="edge7" class="edge">
<title>st0&#45;&gt;st0</title>
<path fill="none" stroke="#000000" d="M119.541,-50.1756C119.0762,-59.9095 122.5625,-68 130,-68 134.5322,-68 137.5972,-64.9957 139.195,-60.446"/>
<polygon fill="#000000" stroke="#000000" points="142.7112,-60.5283 140.459,-50.1756 135.7636,-59.6732 142.7112,-60.5283"/>
<text text-anchor="start" x="117.5" y="-71.8" font-family="arial" font-size="14.00" fill="#377eb8">true</text>
</g>
<!-- st0&#45;&gt;st -->
<g id="edge6" class="edge">
<title>st0&#45;&gt;st</title>
<path fill="none" stroke="#000000" d="M169.1405,-40.4096C185.4364,-46.8254 204.2552,-54.2343 220.2855,-60.5455"/>
<polygon fill="#000000" stroke="#000000" points="219.2718,-63.9078 229.8588,-64.3145 221.8361,-57.3944 219.2718,-63.9078"/>
<text text-anchor="start" x="192" y="-58.8" font-family="arial" font-size="14.00" fill="#377eb8">Q&#39;</text>
</g>
<!-- st&#45;&gt;st -->
<g id="edge5" class="edge">
<title>st&#45;&gt;st</title>
<path fill="none" stroke="#000000" d="M246.541,-100.1756C246.0762,-109.9095 249.5625,-118 257,-118 261.5322,-118 264.5972,-114.9957 266.195,-110.446"/>
<polygon fill="#000000" stroke="#000000" points="269.7112,-110.5283 267.459,-100.1756 262.7636,-109.6732 269.7112,-110.5283"/>
<text text-anchor="start" x="244.5" y="-121.8" font-family="arial" font-size="14.00" fill="#377eb8">true</text>
</g>
</g>
</svg>
