<?xml version="1.0" encoding="UTF-8" standalone="no"?>
<!DOCTYPE svg PUBLIC "-//W3C//DTD SVG 1.1//EN"
 "http://www.w3.org/Graphics/SVG/1.1/DTD/svg11.dtd">
<!-- Generated by graphviz version 2.43.0 (0)
 -->
<!-- Title: G Pages: 1 -->
<svg width="289pt" height="192pt"
 viewBox="0.00 0.00 289.00 192.00" xmlns="http://www.w3.org/2000/svg" xmlns:xlink="http://www.w3.org/1999/xlink">
<g id="graph0" class="graph" transform="scale(1 1) rotate(0) translate(4 188)">
<title>G</title>
<polygon fill="white" stroke="transparent" points="-4,4 -4,-188 285,-188 285,4 -4,4"/>
<!-- _stinit -->
<!-- stinit -->
<g id="node2" class="node">
<title>stinit</title>
<polygon fill="none" stroke="black" points="156,-151 102,-151 102,-101 156,-101 156,-151"/>
<text text-anchor="start" x="112.5" y="-136.8" font-family="arial" font-weight="bold" font-size="14.00">stinit</text>
<text text-anchor="start" x="123" y="-122.8" font-family="arial" font-size="14.00" fill="#984ea3">Q</text>
<text text-anchor="start" x="117" y="-108.8" font-family="arial" font-size="14.00" fill="#ff7f00">true</text>
</g>
<!-- _stinit&#45;&gt;stinit -->
<g id="edge1" class="edge">
<title>_stinit&#45;&gt;stinit</title>
<path fill="none" stroke="black" d="M54.01,-126C65.5,-126 79.19,-126 91.66,-126"/>
<polygon fill="black" stroke="black" points="91.77,-129.5 101.77,-126 91.77,-122.5 91.77,-129.5"/>
</g>
<!-- stinit&#45;&gt;stinit -->
<g id="edge4" class="edge">
<title>stinit&#45;&gt;stinit</title>
<path fill="none" stroke="black" d="M118.54,-151.18C118.08,-160.91 121.56,-169 129,-169 133.53,-169 136.6,-166 138.2,-161.45"/>
<polygon fill="black" stroke="black" points="141.71,-161.53 139.46,-151.18 134.76,-160.67 141.71,-161.53"/>
<text text-anchor="start" x="117" y="-172.8" font-family="arial" font-size="14.00" fill="#377eb8">true</text>
</g>
<!-- st -->
<g id="node5" class="node">
<title>st</title>
<polygon fill="none" stroke="black" points="281,-100 227,-100 227,-50 281,-50 281,-100"/>
<text text-anchor="start" x="247.5" y="-85.8" font-family="arial" font-weight="bold" font-size="14.00">st</text>
<text text-anchor="start" x="242" y="-71.8" font-family="arial" font-size="14.00" fill="#984ea3">true</text>
<text text-anchor="start" x="242" y="-57.8" font-family="arial" font-size="14.00" fill="#ff7f00">true</text>
</g>
<!-- stinit&#45;&gt;st -->
<g id="edge3" class="edge">
<title>stinit&#45;&gt;st</title>
<path fill="none" stroke="black" d="M156.09,-115.18C174.02,-107.75 198.06,-97.78 217.71,-89.63"/>
<polygon fill="black" stroke="black" points="219.06,-92.86 226.95,-85.8 216.37,-86.4 219.06,-92.86"/>
<text text-anchor="start" x="185" y="-105.8" font-family="arial" font-size="14.00" fill="#377eb8">true</text>
</g>
<!-- _st0 -->
<!-- st0 -->
<g id="node4" class="node">
<title>st0</title>
<polygon fill="none" stroke="black" points="167,-50 91,-50 91,0 167,0 167,-50"/>
<text text-anchor="start" x="119" y="-35.8" font-family="arial" font-weight="bold" font-size="14.00">st0</text>
<text text-anchor="start" x="99" y="-21.8" font-family="arial" font-size="14.00" fill="#984ea3">(!Q &amp;&amp; R)</text>
<text text-anchor="start" x="117" y="-7.8" font-family="arial" font-size="14.00" fill="#ff7f00">true</text>
</g>
<!-- _st0&#45;&gt;st0 -->
<g id="edge2" class="edge">
<title>_st0&#45;&gt;st0</title>
<path fill="none" stroke="black" d="M54.01,-25C62.17,-25 71.44,-25 80.6,-25"/>
<polygon fill="black" stroke="black" points="80.82,-28.5 90.82,-25 80.82,-21.5 80.82,-28.5"/>
</g>
<!-- st0&#45;&gt;st0 -->
<g id="edge7" class="edge">
<title>st0&#45;&gt;st0</title>
<path fill="none" stroke="black" d="M118.54,-50.18C118.08,-59.91 121.56,-68 129,-68 133.53,-68 136.6,-65 138.2,-60.45"/>
<polygon fill="black" stroke="black" points="141.71,-60.53 139.46,-50.18 134.76,-59.67 141.71,-60.53"/>
<text text-anchor="start" x="117" y="-71.8" font-family="arial" font-size="14.00" fill="#377eb8">true</text>
</g>
<!-- st0&#45;&gt;st -->
<g id="edge6" class="edge">
<title>st0&#45;&gt;st</title>
<path fill="none" stroke="black" d="M167.24,-40.14C183.16,-46.61 201.68,-54.14 217.42,-60.54"/>
<polygon fill="black" stroke="black" points="216.23,-63.83 226.81,-64.35 218.87,-57.35 216.23,-63.83"/>
<text text-anchor="start" x="189.5" y="-58.8" font-family="arial" font-size="14.00" fill="#377eb8">Q&#39;</text>
</g>
<!-- st&#45;&gt;st -->
<g id="edge5" class="edge">
<title>st&#45;&gt;st</title>
<path fill="none" stroke="black" d="M243.54,-100.18C243.08,-109.91 246.56,-118 254,-118 258.53,-118 261.6,-115 263.2,-110.45"/>
<polygon fill="black" stroke="black" points="266.71,-110.53 264.46,-100.18 259.76,-109.67 266.71,-110.53"/>
<text text-anchor="start" x="242" y="-121.8" font-family="arial" font-size="14.00" fill="#377eb8">true</text>
</g>
</g>
</svg>
