<?xml version="1.0" encoding="UTF-8" standalone="no"?>
<!DOCTYPE svg PUBLIC "-//W3C//DTD SVG 1.1//EN"
 "http://www.w3.org/Graphics/SVG/1.1/DTD/svg11.dtd">
<!-- Generated by graphviz version 2.40.1 (20161225.0304)
 -->
<!-- Title: G Pages: 1 -->
<svg width="1075pt" height="404pt"
 viewBox="0.00 0.00 1075.00 404.00" xmlns="http://www.w3.org/2000/svg" xmlns:xlink="http://www.w3.org/1999/xlink">
<g id="graph0" class="graph" transform="scale(1 1) rotate(0) translate(4 400)">
<title>G</title>
<polygon fill="#ffffff" stroke="transparent" points="-4,4 -4,-400 1071,-400 1071,4 -4,4"/>
<!-- _st0 -->
<!-- st0 -->
<g id="node2" class="node">
<title>st0</title>
<polygon fill="none" stroke="#000000" points="148.5,-321 94.5,-321 94.5,-271 148.5,-271 148.5,-321"/>
<text text-anchor="start" x="110.5" y="-306.8" font-family="arial" font-weight="bold" font-size="14.00" fill="#000000">st0</text>
<text text-anchor="start" x="114" y="-292.8" font-family="arial" font-size="14.00" fill="#984ea3">!R</text>
<text text-anchor="start" x="109" y="-278.8" font-family="arial" font-size="14.00" fill="#ff7f00">true</text>
</g>
<!-- _st0&#45;&gt;st0 -->
<g id="edge1" class="edge">
<title>_st0&#45;&gt;st0</title>
<path fill="none" stroke="#000000" d="M54.0799,-296C63.471,-296 74.1709,-296 84.237,-296"/>
<polygon fill="#000000" stroke="#000000" points="84.4162,-299.5001 94.4161,-296 84.4161,-292.5001 84.4162,-299.5001"/>
</g>
<!-- st0&#45;&gt;st0 -->
<g id="edge4" class="edge">
<title>st0&#45;&gt;st0</title>
<path fill="none" stroke="#000000" d="M112.5352,-321.1756C112.1367,-330.9095 115.125,-339 121.5,-339 125.3848,-339 128.0119,-335.9957 129.3814,-331.446"/>
<polygon fill="#000000" stroke="#000000" points="132.8964,-331.4877 130.4648,-321.1756 125.935,-330.7532 132.8964,-331.4877"/>
<text text-anchor="start" x="109" y="-342.8" font-family="arial" font-size="14.00" fill="#377eb8">true</text>
</g>
<!-- st012 -->
<g id="node4" class="node">
<title>st012</title>
<polygon fill="none" stroke="#000000" points="303.5,-189 225.5,-189 225.5,-139 303.5,-139 303.5,-189"/>
<text text-anchor="start" x="245.5" y="-174.8" font-family="arial" font-weight="bold" font-size="14.00" fill="#000000">st012</text>
<text text-anchor="start" x="233.5" y="-160.8" font-family="arial" font-size="14.00" fill="#984ea3">(!Q &amp;&amp; R)</text>
<text text-anchor="start" x="252" y="-146.8" font-family="arial" font-size="14.00" fill="#ff7f00">true</text>
</g>
<!-- st0&#45;&gt;st012 -->
<g id="edge5" class="edge">
<title>st0&#45;&gt;st012</title>
<path fill="none" stroke="#000000" d="M148.7338,-270.8611C171.7934,-249.5753 204.9806,-218.941 229.9147,-195.9249"/>
<polygon fill="#000000" stroke="#000000" points="232.3935,-198.4 237.3676,-189.0453 227.6455,-193.2563 232.3935,-198.4"/>
<text text-anchor="start" x="170" y="-252.8" font-family="arial" font-size="14.00" fill="#377eb8">true</text>
</g>
<!-- st0123 -->
<g id="node6" class="node">
<title>st0123</title>
<polygon fill="none" stroke="#000000" points="651.5,-237 577.5,-237 577.5,-187 651.5,-187 651.5,-237"/>
<text text-anchor="start" x="591.5" y="-222.8" font-family="arial" font-weight="bold" font-size="14.00" fill="#000000">st0123</text>
<text text-anchor="start" x="585.5" y="-208.8" font-family="arial" font-size="14.00" fill="#984ea3">(Q &amp;&amp; R)</text>
<text text-anchor="start" x="602" y="-194.8" font-family="arial" font-size="14.00" fill="#ff7f00">true</text>
</g>
<!-- st0&#45;&gt;st0123 -->
<g id="edge6" class="edge">
<title>st0&#45;&gt;st0123</title>
<path fill="none" stroke="#000000" d="M148.7127,-301.9733C231.8174,-319.6131 480.7868,-367.8195 549,-328 578.7964,-310.6063 596.1085,-274.0933 605.3681,-246.6505"/>
<polygon fill="#000000" stroke="#000000" points="608.741,-247.5926 608.4234,-237.0025 602.0676,-245.4793 608.741,-247.5926"/>
<text text-anchor="start" x="341.5" y="-341.8" font-family="arial" font-size="14.00" fill="#377eb8">true</text>
</g>
<!-- _st012 -->
<!-- _st012&#45;&gt;st012 -->
<g id="edge2" class="edge">
<title>_st012&#45;&gt;st012</title>
<path fill="none" stroke="#000000" d="M139.3219,-36.1958C162.7201,-60.0849 204.1918,-102.4265 232.9561,-131.7943"/>
<polygon fill="#000000" stroke="#000000" points="230.4787,-134.267 239.9765,-138.962 235.4796,-129.3688 230.4787,-134.267"/>
</g>
<!-- st012&#45;&gt;st012 -->
<g id="edge15" class="edge">
<title>st012&#45;&gt;st012</title>
<path fill="none" stroke="#000000" d="M249.1851,-189.1756C248.5044,-198.9095 253.6094,-207 264.5,-207 271.3066,-207 275.8533,-203.8397 278.1399,-199.093"/>
<polygon fill="#000000" stroke="#000000" points="281.6005,-199.6189 279.8149,-189.1756 274.6983,-198.453 281.6005,-199.6189"/>
<text text-anchor="start" x="252" y="-210.8" font-family="arial" font-size="14.00" fill="#377eb8">true</text>
</g>
<!-- st012&#45;&gt;st0123 -->
<g id="edge16" class="edge">
<title>st012&#45;&gt;st0123</title>
<path fill="none" stroke="#000000" d="M303.6307,-169.3665C368.3603,-178.2437 497.4888,-195.9527 567.2187,-205.5157"/>
<polygon fill="#000000" stroke="#000000" points="567.0883,-209.0305 577.4711,-206.9218 568.0394,-202.0954 567.0883,-209.0305"/>
<text text-anchor="start" x="420.5" y="-194.8" font-family="arial" font-size="14.00" fill="#377eb8">true</text>
</g>
<!-- st02X -->
<g id="node7" class="node">
<title>st02X</title>
<polygon fill="none" stroke="#000000" points="474,-136 392,-136 392,-86 474,-86 474,-136"/>
<text text-anchor="start" x="413" y="-121.8" font-family="arial" font-weight="bold" font-size="14.00" fill="#000000">st02X</text>
<text text-anchor="start" x="400" y="-107.8" font-family="arial" font-size="14.00" fill="#984ea3">(!Q &amp;&amp; !R)</text>
<text text-anchor="start" x="408.5" y="-93.8" font-family="arial" font-size="14.00" fill="#ff7f00">c0 &lt;= 5</text>
</g>
<!-- st012&#45;&gt;st02X -->
<g id="edge13" class="edge">
<title>st012&#45;&gt;st02X</title>
<path fill="none" stroke="#000000" d="M287.3464,-138.9089C299.8248,-127.0889 316.3183,-114.2372 334,-108 349.0315,-102.6977 366.1574,-101.6285 381.8901,-102.4221"/>
<polygon fill="#000000" stroke="#000000" points="381.7558,-105.9219 391.9916,-103.1869 382.2843,-98.9419 381.7558,-105.9219"/>
<text text-anchor="start" x="341.5" y="-126.8" font-family="arial" font-size="14.00" fill="#377eb8">true</text>
<text text-anchor="start" x="334" y="-111.8" font-family="arial" font-size="14.00" fill="#000000">c0 :=0</text>
</g>
<!-- st02X3 -->
<g id="node9" class="node">
<title>st02X3</title>
<polygon fill="none" stroke="#000000" points="825,-197 747,-197 747,-147 825,-147 825,-197"/>
<text text-anchor="start" x="762" y="-182.8" font-family="arial" font-weight="bold" font-size="14.00" fill="#000000">st02X3</text>
<text text-anchor="start" x="755" y="-168.8" font-family="arial" font-size="14.00" fill="#984ea3">(Q &amp;&amp; !R)</text>
<text text-anchor="start" x="761.5" y="-154.8" font-family="arial" font-size="14.00" fill="#ff7f00">c0 &lt;= 5</text>
</g>
<!-- st012&#45;&gt;st02X3 -->
<g id="edge14" class="edge">
<title>st012&#45;&gt;st02X3</title>
<path fill="none" stroke="#000000" d="M281.979,-189.1313C303.8388,-218.1134 344.2528,-264.1798 392,-283 425.3418,-296.1421 583.1858,-303.0289 662,-279 702.9169,-266.5252 738.5652,-231.7618 761.0072,-205.2134"/>
<polygon fill="#000000" stroke="#000000" points="763.89,-207.2183 767.5393,-197.2717 758.4838,-202.7716 763.89,-207.2183"/>
<text text-anchor="start" x="508" y="-312.8" font-family="arial" font-size="14.00" fill="#377eb8">true</text>
<text text-anchor="start" x="500.5" y="-297.8" font-family="arial" font-size="14.00" fill="#000000">c0 :=0</text>
</g>
<!-- _st0123 -->
<!-- _st0123&#45;&gt;st0123 -->
<g id="edge3" class="edge">
<title>_st0123&#45;&gt;st0123</title>
<path fill="none" stroke="#000000" d="M467.566,-247.6204C495.8726,-240.7582 536.2027,-230.9812 567.4515,-223.4057"/>
<polygon fill="#000000" stroke="#000000" points="568.3575,-226.7875 577.2513,-221.03 566.7082,-219.9846 568.3575,-226.7875"/>
</g>
<!-- st0123&#45;&gt;st0123 -->
<g id="edge25" class="edge">
<title>st0123&#45;&gt;st0123</title>
<path fill="none" stroke="#000000" d="M597.6909,-237.1756C596.9438,-246.9095 602.5469,-255 614.5,-255 621.9707,-255 626.9609,-251.8397 629.4706,-247.093"/>
<polygon fill="#000000" stroke="#000000" points="632.9276,-247.6461 631.3091,-237.1756 626.0449,-246.3701 632.9276,-247.6461"/>
<text text-anchor="start" x="602" y="-258.8" font-family="arial" font-size="14.00" fill="#377eb8">true</text>
</g>
<!-- st0123&#45;&gt;st02X3 -->
<g id="edge24" class="edge">
<title>st0123&#45;&gt;st02X3</title>
<path fill="none" stroke="#000000" d="M651.7497,-188.4636C660.69,-183.8554 670.4291,-179.6379 680,-177 698.1235,-172.0048 718.6403,-170.1974 736.763,-169.83"/>
<polygon fill="#000000" stroke="#000000" points="736.8594,-173.3296 746.8365,-169.7649 736.8141,-166.3297 736.8594,-173.3296"/>
<text text-anchor="start" x="692" y="-195.8" font-family="arial" font-size="14.00" fill="#377eb8">true</text>
<text text-anchor="start" x="684.5" y="-180.8" font-family="arial" font-size="14.00" fill="#000000">c0 :=0</text>
</g>
<!-- st02X&#45;&gt;st0 -->
<g id="edge7" class="edge">
<title>st02X&#45;&gt;st0</title>
<path fill="none" stroke="#000000" d="M391.8103,-98.9533C344.0933,-87.659 265.3445,-77.539 213,-115 164.0631,-150.0223 139.6859,-218.9544 128.8871,-260.9097"/>
<polygon fill="#000000" stroke="#000000" points="125.4679,-260.1576 126.4867,-270.7033 132.2667,-261.824 125.4679,-260.1576"/>
<text text-anchor="start" x="213" y="-118.8" font-family="arial" font-size="14.00" fill="#377eb8">(!Q&#39; &amp;&amp; c0 &gt;= 5)</text>
</g>
<!-- st02X&#45;&gt;st012 -->
<g id="edge11" class="edge">
<title>st02X&#45;&gt;st012</title>
<path fill="none" stroke="#000000" d="M391.7669,-134.5405C385.9179,-137.3228 379.8885,-139.9102 374,-142 354.7927,-148.8165 332.8984,-153.7443 313.7615,-157.1851"/>
<polygon fill="#000000" stroke="#000000" points="313.0092,-153.7629 303.7423,-158.8986 314.1892,-160.6627 313.0092,-153.7629"/>
<text text-anchor="start" x="341.5" y="-155.8" font-family="arial" font-size="14.00" fill="#377eb8">true</text>
</g>
<!-- st02X&#45;&gt;st0123 -->
<g id="edge12" class="edge">
<title>st02X&#45;&gt;st0123</title>
<path fill="none" stroke="#000000" d="M463.5198,-136.0862C472.3916,-142.7254 482.3097,-149.5522 492,-155 515.8128,-168.3874 524.1822,-166.5831 549,-178 555.2563,-180.8781 561.773,-184.0465 568.1648,-187.2563"/>
<polygon fill="#000000" stroke="#000000" points="566.8964,-190.5382 577.3954,-191.9599 570.0745,-184.3012 566.8964,-190.5382"/>
<text text-anchor="start" x="508" y="-181.8" font-family="arial" font-size="14.00" fill="#377eb8">true</text>
</g>
<!-- st02X&#45;&gt;st02X -->
<g id="edge9" class="edge">
<title>st02X&#45;&gt;st02X</title>
<path fill="none" stroke="#000000" d="M418.4321,-136.1756C417.7847,-145.9095 422.6406,-154 433,-154 439.4746,-154 443.7994,-150.8397 445.9745,-146.093"/>
<polygon fill="#000000" stroke="#000000" points="449.4372,-146.6042 447.5679,-136.1756 442.5258,-145.4938 449.4372,-146.6042"/>
<text text-anchor="start" x="413" y="-157.8" font-family="arial" font-size="14.00" fill="#377eb8">c0 &lt; 5</text>
</g>
<!-- st03 -->
<g id="node8" class="node">
<title>st03</title>
<polygon fill="none" stroke="#000000" points="1067,-197 910,-197 910,-147 1067,-147 1067,-197"/>
<text text-anchor="start" x="973.5" y="-182.8" font-family="arial" font-weight="bold" font-size="14.00" fill="#000000">st03</text>
<text text-anchor="start" x="957.5" y="-168.8" font-family="arial" font-size="14.00" fill="#984ea3">(Q &amp;&amp; !R)</text>
<text text-anchor="start" x="918" y="-154.8" font-family="arial" font-size="14.00" fill="#ff7f00">(c0 &lt;= 5 &amp;&amp; c1 &lt;= 10)</text>
</g>
<!-- st02X&#45;&gt;st03 -->
<g id="edge8" class="edge">
<title>st02X&#45;&gt;st03</title>
<path fill="none" stroke="#000000" d="M474.3202,-110.2432C531.6616,-109.6508 638.5286,-110.2026 729,-120 772.1579,-124.6737 782.4141,-129.5805 825,-138 849.373,-142.8187 875.7491,-148.2211 900.0562,-153.2765"/>
<polygon fill="#000000" stroke="#000000" points="899.4708,-156.7296 909.9746,-155.3438 900.8992,-149.8769 899.4708,-156.7296"/>
<text text-anchor="start" x="680" y="-138.8" font-family="arial" font-size="14.00" fill="#377eb8">c0 &gt;= 5</text>
<text text-anchor="start" x="684.5" y="-123.8" font-family="arial" font-size="14.00" fill="#000000">c1 :=0</text>
</g>
<!-- st02X&#45;&gt;st02X3 -->
<g id="edge10" class="edge">
<title>st02X&#45;&gt;st02X3</title>
<path fill="none" stroke="#000000" d="M474.1844,-118.1169C539.6222,-129.4248 667.0777,-151.4497 737.0694,-163.5446"/>
<polygon fill="#000000" stroke="#000000" points="736.5149,-167.0006 746.9649,-165.2546 737.707,-160.1028 736.5149,-167.0006"/>
<text text-anchor="start" x="594.5" y="-153.8" font-family="arial" font-size="14.00" fill="#377eb8">c0 &lt; 5</text>
</g>
<!-- st03&#45;&gt;st0 -->
<g id="edge17" class="edge">
<title>st03&#45;&gt;st0</title>
<path fill="none" stroke="#000000" d="M978.3571,-197.2103C954.1371,-252.7979 887.298,-381 786,-381 264.5,-381 264.5,-381 264.5,-381 221.3905,-381 179.937,-352.1026 152.8643,-328.0062"/>
<polygon fill="#000000" stroke="#000000" points="155.0131,-325.2276 145.2797,-321.0431 150.2791,-330.3842 155.0131,-325.2276"/>
<text text-anchor="start" x="492" y="-384.8" font-family="arial" font-size="14.00" fill="#377eb8">c1 &gt;= 10</text>
</g>
<!-- st03&#45;&gt;st012 -->
<g id="edge19" class="edge">
<title>st03&#45;&gt;st012</title>
<path fill="none" stroke="#000000" d="M963.8606,-146.9822C928.054,-113.4244 858.0148,-58 786,-58 520.5,-58 520.5,-58 520.5,-58 435.7261,-58 397.3256,-41.6397 334,-98 320.6374,-109.8929 328.2391,-120.9537 316,-134 314.646,-135.4432 313.207,-136.8383 311.703,-138.1843"/>
<polygon fill="#000000" stroke="#000000" points="309.3975,-135.5456 303.7368,-144.5014 313.7469,-141.0304 309.3975,-135.5456"/>
<text text-anchor="start" x="567" y="-61.8" font-family="arial" font-size="14.00" fill="#377eb8">(Q&#39; || c1 &gt;= 10)</text>
</g>
<!-- st03&#45;&gt;st0123 -->
<g id="edge20" class="edge">
<title>st03&#45;&gt;st0123</title>
<path fill="none" stroke="#000000" d="M941.3866,-197.0494C909.5191,-212.533 865.9334,-230.9383 825,-239 761.7566,-251.4555 743.1991,-248.6785 680,-236 673.8439,-234.765 667.495,-233.046 661.2837,-231.0895"/>
<polygon fill="#000000" stroke="#000000" points="662.2781,-227.7313 651.684,-227.8552 660.043,-234.3649 662.2781,-227.7313"/>
<text text-anchor="start" x="773.5" y="-250.8" font-family="arial" font-size="14.00" fill="#377eb8">true</text>
</g>
<!-- st03&#45;&gt;st03 -->
<g id="edge18" class="edge">
<title>st03&#45;&gt;st03</title>
<path fill="none" stroke="#000000" d="M966.0879,-197.1756C965.0918,-206.9095 972.5625,-215 988.5,-215 998.4609,-215 1005.1145,-211.8397 1008.4608,-207.093"/>
<polygon fill="#000000" stroke="#000000" points="1011.9102,-207.7233 1010.9121,-197.1756 1005.1147,-206.0436 1011.9102,-207.7233"/>
<text text-anchor="start" x="964" y="-218.8" font-family="arial" font-size="14.00" fill="#377eb8">c1 &lt; 10</text>
</g>
<!-- st02X3&#45;&gt;st0123 -->
<g id="edge23" class="edge">
<title>st02X3&#45;&gt;st0123</title>
<path fill="none" stroke="#000000" d="M756.3965,-197.0706C748.049,-202.7446 738.609,-207.9813 729,-211 707.5676,-217.7331 682.7451,-218.7166 661.702,-217.7146"/>
<polygon fill="#000000" stroke="#000000" points="661.9086,-214.2207 651.7068,-217.0797 661.4648,-221.2067 661.9086,-214.2207"/>
<text text-anchor="start" x="692" y="-220.8" font-family="arial" font-size="14.00" fill="#377eb8">true</text>
</g>
<!-- st02X3&#45;&gt;st03 -->
<g id="edge21" class="edge">
<title>st02X3&#45;&gt;st03</title>
<path fill="none" stroke="#000000" d="M825.044,-172C846.2495,-172 873.3986,-172 899.4536,-172"/>
<polygon fill="#000000" stroke="#000000" points="899.7553,-175.5001 909.7553,-172 899.7552,-168.5001 899.7553,-175.5001"/>
<text text-anchor="start" x="843" y="-190.8" font-family="arial" font-size="14.00" fill="#377eb8">c0 &gt;= 5</text>
<text text-anchor="start" x="847.5" y="-175.8" font-family="arial" font-size="14.00" fill="#000000">c1 :=0</text>
</g>
<!-- st02X3&#45;&gt;st02X3 -->
<g id="edge22" class="edge">
<title>st02X3&#45;&gt;st02X3</title>
<path fill="none" stroke="#000000" d="M771.0586,-197.1756C770.3945,-206.9095 775.375,-215 786,-215 792.6406,-215 797.0764,-211.8397 799.3072,-207.093"/>
<polygon fill="#000000" stroke="#000000" points="802.7688,-207.6117 800.9414,-197.1756 795.862,-206.4735 802.7688,-207.6117"/>
<text text-anchor="start" x="766" y="-218.8" font-family="arial" font-size="14.00" fill="#377eb8">c0 &lt; 5</text>
</g>
</g>
</svg>
