<?xml version="1.0" encoding="UTF-8" standalone="no"?>
<!DOCTYPE svg PUBLIC "-//W3C//DTD SVG 1.1//EN"
 "http://www.w3.org/Graphics/SVG/1.1/DTD/svg11.dtd">
<!-- Generated by graphviz version 2.43.0 (0)
 -->
<!-- Title: G Pages: 1 -->
<svg width="1454pt" height="452pt"
 viewBox="0.00 0.00 1454.00 452.00" xmlns="http://www.w3.org/2000/svg" xmlns:xlink="http://www.w3.org/1999/xlink">
<g id="graph0" class="graph" transform="scale(1 1) rotate(0) translate(4 448)">
<title>G</title>
<polygon fill="white" stroke="transparent" points="-4,4 -4,-448 1450,-448 1450,4 -4,4"/>
<!-- _ID_99_ct0_st0 -->
<!-- ID_99_ct0_st0 -->
<g id="node2" class="node">
<title>ID_99_ct0_st0</title>
<polygon fill="none" stroke="black" points="265.5,-296 158.5,-296 158.5,-246 265.5,-246 265.5,-296"/>
<text text-anchor="start" x="166.5" y="-281.8" font-family="arial" font-weight="bold" font-size="14.00">ID_99_ct0_st0</text>
<text text-anchor="start" x="205" y="-267.8" font-family="arial" font-size="14.00" fill="#984ea3">!R</text>
<text text-anchor="start" x="200" y="-253.8" font-family="arial" font-size="14.00" fill="#ff7f00">true</text>
</g>
<!-- _ID_99_ct0_st0&#45;&gt;ID_99_ct0_st0 -->
<g id="edge1" class="edge">
<title>_ID_99_ct0_st0&#45;&gt;ID_99_ct0_st0</title>
<path fill="none" stroke="black" d="M111.41,-271C123.33,-271 136.04,-271 148.24,-271"/>
<polygon fill="black" stroke="black" points="148.34,-274.5 158.34,-271 148.34,-267.5 148.34,-274.5"/>
</g>
<!-- ID_99_ct0_st0&#45;&gt;ID_99_ct0_st0 -->
<g id="edge3" class="edge">
<title>ID_99_ct0_st0&#45;&gt;ID_99_ct0_st0</title>
<path fill="none" stroke="black" d="M196.69,-296.18C196,-305.91 201.11,-314 212,-314 218.81,-314 223.35,-310.84 225.64,-306.09"/>
<polygon fill="black" stroke="black" points="229.1,-306.62 227.31,-296.18 222.2,-305.45 229.1,-306.62"/>
<text text-anchor="start" x="200" y="-317.8" font-family="arial" font-size="14.00" fill="#377eb8">true</text>
</g>
<!-- ID_99_ct0_st01X -->
<g id="node4" class="node">
<title>ID_99_ct0_st01X</title>
<polygon fill="none" stroke="black" points="511,-217 388,-217 388,-167 511,-167 511,-217"/>
<text text-anchor="start" x="396" y="-202.8" font-family="arial" font-weight="bold" font-size="14.00">ID_99_ct0_st01X</text>
<text text-anchor="start" x="444.5" y="-188.8" font-family="arial" font-size="14.00" fill="#984ea3">R</text>
<text text-anchor="start" x="426.5" y="-174.8" font-family="arial" font-size="14.00" fill="#ff7f00">c0 &lt;= 5</text>
</g>
<!-- ID_99_ct0_st0&#45;&gt;ID_99_ct0_st01X -->
<g id="edge4" class="edge">
<title>ID_99_ct0_st0&#45;&gt;ID_99_ct0_st01X</title>
<path fill="none" stroke="black" d="M235.54,-245.76C250.51,-230.83 271.5,-213.1 294,-204 320.1,-193.45 350.67,-189.51 377.7,-188.56"/>
<polygon fill="black" stroke="black" points="377.95,-192.05 387.87,-188.33 377.8,-185.05 377.95,-192.05"/>
<text text-anchor="start" x="320" y="-222.8" font-family="arial" font-size="14.00" fill="#377eb8">true</text>
<text text-anchor="start" x="313" y="-207.8" font-family="arial" font-size="14.00">c0 :=0</text>
</g>
<!-- _ID_99_ct0_st01X -->
<!-- _ID_99_ct0_st01X&#45;&gt;ID_99_ct0_st01X -->
<g id="edge2" class="edge">
<title>_ID_99_ct0_st01X&#45;&gt;ID_99_ct0_st01X</title>
<path fill="none" stroke="black" d="M237.76,-36.29C277.83,-65.9 357.37,-124.67 406.45,-160.93"/>
<polygon fill="black" stroke="black" points="404.53,-163.86 414.65,-166.99 408.69,-158.23 404.53,-163.86"/>
</g>
<!-- ID_99_ct0_st01X&#45;&gt;ID_99_ct0_st0 -->
<g id="edge5" class="edge">
<title>ID_99_ct0_st01X&#45;&gt;ID_99_ct0_st0</title>
<path fill="none" stroke="black" d="M406.26,-217.19C394.77,-223.31 382.14,-229.41 370,-234 339.77,-245.42 304.9,-254.07 275.7,-260.12"/>
<polygon fill="black" stroke="black" points="274.74,-256.74 265.63,-262.15 276.13,-263.6 274.74,-256.74"/>
<text text-anchor="start" x="294" y="-258.8" font-family="arial" font-size="14.00" fill="#377eb8">(Q&#39; || c0 &lt; 5)</text>
</g>
<!-- ID_99_ct0_st01X&#45;&gt;ID_99_ct0_st01X -->
<g id="edge7" class="edge">
<title>ID_99_ct0_st01X&#45;&gt;ID_99_ct0_st01X</title>
<path fill="none" stroke="black" d="M430.45,-217.18C429.6,-226.91 435.95,-235 449.5,-235 457.97,-235 463.62,-231.84 466.47,-227.09"/>
<polygon fill="black" stroke="black" points="469.92,-227.68 468.55,-217.18 463.07,-226.24 469.92,-227.68"/>
<text text-anchor="start" x="430.5" y="-238.8" font-family="arial" font-size="14.00" fill="#377eb8">c0 &lt; 5</text>
</g>
<!-- ID_99_ct0_st02W -->
<g id="node5" class="node">
<title>ID_99_ct0_st02W</title>
<polygon fill="none" stroke="black" points="1214,-256 1086,-256 1086,-206 1214,-206 1214,-256"/>
<text text-anchor="start" x="1094" y="-241.8" font-family="arial" font-weight="bold" font-size="14.00">ID_99_ct0_st02W</text>
<text text-anchor="start" x="1118" y="-227.8" font-family="arial" font-size="14.00" fill="#984ea3">(!Q &amp;&amp; !R)</text>
<text text-anchor="start" x="1123" y="-213.8" font-family="arial" font-size="14.00" fill="#ff7f00">c1 &lt;= 10</text>
</g>
<!-- ID_99_ct0_st01X&#45;&gt;ID_99_ct0_st02W -->
<g id="edge6" class="edge">
<title>ID_99_ct0_st01X&#45;&gt;ID_99_ct0_st02W</title>
<path fill="none" stroke="black" d="M511.06,-170.08C517.08,-168.23 523.14,-166.5 529,-165 623.79,-140.79 648.51,-136.25 746,-128 864.3,-117.99 1051.3,-158.81 1068,-166 1086.17,-173.82 1103.63,-186.87 1117.67,-199.24"/>
<polygon fill="black" stroke="black" points="1115.34,-201.85 1125.1,-206 1120.06,-196.68 1115.34,-201.85"/>
<text text-anchor="start" x="746" y="-146.8" font-family="arial" font-size="14.00" fill="#377eb8">c0 &gt;= 5</text>
<text text-anchor="start" x="750" y="-131.8" font-family="arial" font-size="14.00">c1 :=0</text>
</g>
<!-- ID_99_ct0_st01 -->
<g id="node6" class="node">
<title>ID_99_ct0_st01</title>
<polygon fill="none" stroke="black" points="924,-330 810,-330 810,-280 924,-280 924,-330"/>
<text text-anchor="start" x="818" y="-315.8" font-family="arial" font-weight="bold" font-size="14.00">ID_99_ct0_st01</text>
<text text-anchor="start" x="839" y="-301.8" font-family="arial" font-size="14.00" fill="#984ea3">(Q &amp;&amp; R)</text>
<text text-anchor="start" x="855" y="-287.8" font-family="arial" font-size="14.00" fill="#ff7f00">true</text>
</g>
<!-- ID_99_ct0_st01X&#45;&gt;ID_99_ct0_st01 -->
<g id="edge8" class="edge">
<title>ID_99_ct0_st01X&#45;&gt;ID_99_ct0_st01</title>
<path fill="none" stroke="black" d="M511.35,-193.67C597.18,-197.13 748.22,-207.62 792,-239 804.27,-247.79 799.77,-258.25 808.81,-272"/>
<polygon fill="black" stroke="black" points="806.34,-274.51 815.41,-279.99 811.74,-270.05 806.34,-274.51"/>
<text text-anchor="start" x="637.5" y="-218.8" font-family="arial" font-size="14.00" fill="#377eb8">c0 &gt;= 5</text>
</g>
<!-- ID_99_ct0_st012W -->
<g id="node7" class="node">
<title>ID_99_ct0_st012W</title>
<polygon fill="none" stroke="black" points="728,-357 593,-357 593,-307 728,-307 728,-357"/>
<text text-anchor="start" x="601" y="-342.8" font-family="arial" font-weight="bold" font-size="14.00">ID_99_ct0_st012W</text>
<text text-anchor="start" x="630.5" y="-328.8" font-family="arial" font-size="14.00" fill="#984ea3">(!Q &amp;&amp; R)</text>
<text text-anchor="start" x="633.5" y="-314.8" font-family="arial" font-size="14.00" fill="#ff7f00">c1 &lt;= 10</text>
</g>
<!-- ID_99_ct0_st01X&#45;&gt;ID_99_ct0_st012W -->
<g id="edge9" class="edge">
<title>ID_99_ct0_st01X&#45;&gt;ID_99_ct0_st012W</title>
<path fill="none" stroke="black" d="M511.22,-211.38C537.11,-220.26 563.89,-230.46 575,-238 598.99,-254.28 620.73,-278.8 636.14,-298.71"/>
<polygon fill="black" stroke="black" points="633.53,-301.06 642.35,-306.92 639.11,-296.83 633.53,-301.06"/>
<text text-anchor="start" x="529" y="-256.8" font-family="arial" font-size="14.00" fill="#377eb8">c0 &gt;= 5</text>
<text text-anchor="start" x="533" y="-241.8" font-family="arial" font-size="14.00">c1 :=0</text>
</g>
<!-- ID_99_ct0_st02W&#45;&gt;ID_99_ct0_st0 -->
<g id="edge14" class="edge">
<title>ID_99_ct0_st02W&#45;&gt;ID_99_ct0_st0</title>
<path fill="none" stroke="black" d="M1132.09,-205.82C1117.15,-185.03 1093.77,-155.83 1068,-136 998.55,-82.57 898.82,-43 868,-43 448.5,-43 448.5,-43 448.5,-43 338.62,-43 260.52,-172.71 228.77,-236.46"/>
<polygon fill="black" stroke="black" points="225.49,-235.21 224.25,-245.73 231.78,-238.28 225.49,-235.21"/>
<text text-anchor="start" x="653" y="-46.8" font-family="arial" font-size="14.00" fill="#377eb8">Q&#39;</text>
</g>
<!-- ID_99_ct0_st02W&#45;&gt;ID_99_ct0_st01X -->
<g id="edge16" class="edge">
<title>ID_99_ct0_st02W&#45;&gt;ID_99_ct0_st01X</title>
<path fill="none" stroke="black" d="M1085.7,-220.82C1014.5,-209.92 895.31,-193.34 792,-187 771.59,-185.75 766.44,-186.83 746,-187 669.12,-187.65 581.01,-189.25 521.15,-190.47"/>
<polygon fill="black" stroke="black" points="520.98,-186.97 511.05,-190.68 521.12,-193.97 520.98,-186.97"/>
<text text-anchor="start" x="761.5" y="-205.8" font-family="arial" font-size="14.00" fill="#377eb8">Q&#39;</text>
<text text-anchor="start" x="750" y="-190.8" font-family="arial" font-size="14.00">c0 :=0</text>
</g>
<!-- ID_99_ct0_st02W&#45;&gt;ID_99_ct0_st02W -->
<g id="edge15" class="edge">
<title>ID_99_ct0_st02W&#45;&gt;ID_99_ct0_st02W</title>
<path fill="none" stroke="black" d="M1130.58,-256.18C1129.71,-265.91 1136.19,-274 1150,-274 1158.63,-274 1164.4,-270.84 1167.3,-266.09"/>
<polygon fill="black" stroke="black" points="1170.75,-266.69 1169.42,-256.18 1163.91,-265.22 1170.75,-266.69"/>
<text text-anchor="start" x="1127" y="-277.8" font-family="arial" font-size="14.00" fill="#377eb8">c1 &lt; 10</text>
</g>
<!-- ID_99_ct0_st01X2W -->
<g id="node8" class="node">
<title>ID_99_ct0_st01X2W</title>
<polygon fill="none" stroke="black" points="1446,-330 1296,-330 1296,-280 1446,-280 1446,-330"/>
<text text-anchor="start" x="1307" y="-315.8" font-family="arial" font-weight="bold" font-size="14.00">ID_99_ct0_st01X2W</text>
<text text-anchor="start" x="1341" y="-301.8" font-family="arial" font-size="14.00" fill="#984ea3">(!Q &amp;&amp; R)</text>
<text text-anchor="start" x="1304" y="-287.8" font-family="arial" font-size="14.00" fill="#ff7f00">(c0 &lt;= 5 &amp;&amp; c1 &lt;= 10)</text>
</g>
<!-- ID_99_ct0_st02W&#45;&gt;ID_99_ct0_st01X2W -->
<g id="edge17" class="edge">
<title>ID_99_ct0_st02W&#45;&gt;ID_99_ct0_st01X2W</title>
<path fill="none" stroke="black" d="M1214.05,-252.3C1236.48,-259.89 1262.11,-268.54 1286.02,-276.62"/>
<polygon fill="black" stroke="black" points="1285.2,-280.04 1295.79,-279.92 1287.44,-273.41 1285.2,-280.04"/>
<text text-anchor="start" x="1232" y="-290.8" font-family="arial" font-size="14.00" fill="#377eb8">c1 &lt; 10</text>
<text text-anchor="start" x="1236" y="-275.8" font-family="arial" font-size="14.00">c0 :=0</text>
</g>
<!-- ID_99_ct0_st01&#45;&gt;ID_99_ct0_st0 -->
<g id="edge10" class="edge">
<title>ID_99_ct0_st01&#45;&gt;ID_99_ct0_st0</title>
<path fill="none" stroke="black" d="M809.87,-298.56C803.84,-297.98 797.8,-297.44 792,-297 693.34,-289.46 404.54,-278.16 275.98,-273.33"/>
<polygon fill="black" stroke="black" points="276.02,-269.83 265.89,-272.95 275.75,-276.82 276.02,-269.83"/>
<text text-anchor="start" x="544.5" y="-288.8" font-family="arial" font-size="14.00" fill="#377eb8">Q&#39;</text>
</g>
<!-- ID_99_ct0_st01&#45;&gt;ID_99_ct0_st02W -->
<g id="edge11" class="edge">
<title>ID_99_ct0_st01&#45;&gt;ID_99_ct0_st02W</title>
<path fill="none" stroke="black" d="M924.34,-285.87C930.27,-284.12 936.24,-282.45 942,-281 997.2,-267.08 1012.86,-272.15 1068,-258 1070.6,-257.33 1073.24,-256.62 1075.9,-255.88"/>
<polygon fill="black" stroke="black" points="1076.95,-259.22 1085.58,-253.08 1075,-252.5 1076.95,-259.22"/>
<text text-anchor="start" x="993" y="-299.8" font-family="arial" font-size="14.00" fill="#377eb8">true</text>
<text text-anchor="start" x="986" y="-284.8" font-family="arial" font-size="14.00">c1 :=0</text>
</g>
<!-- ID_99_ct0_st01&#45;&gt;ID_99_ct0_st01 -->
<g id="edge12" class="edge">
<title>ID_99_ct0_st01&#45;&gt;ID_99_ct0_st01</title>
<path fill="none" stroke="black" d="M848.7,-330.18C847.88,-339.91 853.98,-348 867,-348 875.13,-348 880.57,-344.84 883.3,-340.09"/>
<polygon fill="black" stroke="black" points="886.76,-340.67 885.3,-330.18 879.89,-339.29 886.76,-340.67"/>
<text text-anchor="start" x="855" y="-351.8" font-family="arial" font-size="14.00" fill="#377eb8">true</text>
</g>
<!-- ID_99_ct0_st01&#45;&gt;ID_99_ct0_st012W -->
<g id="edge13" class="edge">
<title>ID_99_ct0_st01&#45;&gt;ID_99_ct0_st012W</title>
<path fill="none" stroke="black" d="M809.67,-320.64C803.73,-321.93 797.77,-323.09 792,-324 774.76,-326.72 756.1,-328.52 738.43,-329.72"/>
<polygon fill="black" stroke="black" points="737.92,-326.25 728.15,-330.36 738.35,-333.23 737.92,-326.25"/>
<text text-anchor="start" x="757" y="-346.8" font-family="arial" font-size="14.00" fill="#377eb8">true</text>
<text text-anchor="start" x="750" y="-331.8" font-family="arial" font-size="14.00">c1 :=0</text>
</g>
<!-- ID_99_ct0_st012W&#45;&gt;ID_99_ct0_st0 -->
<g id="edge24" class="edge">
<title>ID_99_ct0_st012W&#45;&gt;ID_99_ct0_st0</title>
<path fill="none" stroke="black" d="M592.86,-333.04C518.87,-332.79 396.36,-328.15 294,-304 287.89,-302.56 281.64,-300.72 275.46,-298.66"/>
<polygon fill="black" stroke="black" points="276.42,-295.28 265.82,-295.24 274.08,-301.88 276.42,-295.28"/>
<text text-anchor="start" x="442" y="-333.8" font-family="arial" font-size="14.00" fill="#377eb8">Q&#39;</text>
</g>
<!-- ID_99_ct0_st012W&#45;&gt;ID_99_ct0_st02W -->
<g id="edge25" class="edge">
<title>ID_99_ct0_st012W&#45;&gt;ID_99_ct0_st02W</title>
<path fill="none" stroke="black" d="M699.75,-307C728.75,-289.43 770.26,-267.14 810,-256 898.91,-231.08 1005.78,-227.28 1075.43,-228.1"/>
<polygon fill="black" stroke="black" points="1075.81,-231.6 1085.86,-228.26 1075.91,-224.6 1075.81,-231.6"/>
<text text-anchor="start" x="844" y="-259.8" font-family="arial" font-size="14.00" fill="#377eb8">c1 &lt; 10</text>
</g>
<!-- ID_99_ct0_st012W&#45;&gt;ID_99_ct0_st01 -->
<g id="edge26" class="edge">
<title>ID_99_ct0_st012W&#45;&gt;ID_99_ct0_st01</title>
<path fill="none" stroke="black" d="M728.39,-308.57C734.29,-307.13 740.22,-305.9 746,-305 763.29,-302.3 782.16,-301.38 799.7,-301.35"/>
<polygon fill="black" stroke="black" points="799.83,-304.85 809.86,-301.43 799.89,-297.85 799.83,-304.85"/>
<text text-anchor="start" x="757" y="-308.8" font-family="arial" font-size="14.00" fill="#377eb8">true</text>
</g>
<!-- ID_99_ct0_st012W&#45;&gt;ID_99_ct0_st012W -->
<g id="edge27" class="edge">
<title>ID_99_ct0_st012W&#45;&gt;ID_99_ct0_st012W</title>
<path fill="none" stroke="black" d="M640.33,-357.18C639.43,-366.91 646.16,-375 660.5,-375 669.46,-375 675.45,-371.84 678.46,-367.09"/>
<polygon fill="black" stroke="black" points="681.92,-367.7 680.67,-357.18 675.08,-366.18 681.92,-367.7"/>
<text text-anchor="start" x="637.5" y="-378.8" font-family="arial" font-size="14.00" fill="#377eb8">c1 &lt; 10</text>
</g>
<!-- ID_99_ct0_st01X2W&#45;&gt;ID_99_ct0_st0 -->
<g id="edge18" class="edge">
<title>ID_99_ct0_st01X2W&#45;&gt;ID_99_ct0_st0</title>
<path fill="none" stroke="black" d="M1345.62,-330.09C1307.66,-366.33 1230.52,-429 1151,-429 448.5,-429 448.5,-429 448.5,-429 359.37,-429 278.54,-349.99 238.83,-303.72"/>
<polygon fill="black" stroke="black" points="241.48,-301.43 232.36,-296.04 236.13,-305.94 241.48,-301.43"/>
<text text-anchor="start" x="761.5" y="-432.8" font-family="arial" font-size="14.00" fill="#377eb8">Q&#39;</text>
</g>
<!-- ID_99_ct0_st01X2W&#45;&gt;ID_99_ct0_st01X -->
<g id="edge20" class="edge">
<title>ID_99_ct0_st01X2W&#45;&gt;ID_99_ct0_st01X</title>
<path fill="none" stroke="black" d="M1359.08,-279.8C1332.5,-222.82 1258.61,-89 1151,-89 659.5,-89 659.5,-89 659.5,-89 593.98,-89 527.7,-130.24 487.85,-160.52"/>
<polygon fill="black" stroke="black" points="485.52,-157.91 479.76,-166.8 489.81,-163.44 485.52,-157.91"/>
<text text-anchor="start" x="823.5" y="-92.8" font-family="arial" font-size="14.00" fill="#377eb8">(Q&#39; &amp;&amp; c0 &lt; 5)</text>
</g>
<!-- ID_99_ct0_st01X2W&#45;&gt;ID_99_ct0_st02W -->
<g id="edge19" class="edge">
<title>ID_99_ct0_st01X2W&#45;&gt;ID_99_ct0_st02W</title>
<path fill="none" stroke="black" d="M1342.87,-279.8C1325.65,-265.43 1302.13,-248.61 1278,-240 1261.13,-233.98 1242.21,-230.86 1224.23,-229.43"/>
<polygon fill="black" stroke="black" points="1224.28,-225.92 1214.07,-228.78 1223.83,-232.91 1224.28,-225.92"/>
<text text-anchor="start" x="1232" y="-243.8" font-family="arial" font-size="14.00" fill="#377eb8">c1 &lt; 10</text>
</g>
<!-- ID_99_ct0_st01X2W&#45;&gt;ID_99_ct0_st01 -->
<g id="edge22" class="edge">
<title>ID_99_ct0_st01X2W&#45;&gt;ID_99_ct0_st01</title>
<path fill="none" stroke="black" d="M1295.74,-308.49C1210.36,-311.94 1066,-316.02 942,-311 939.46,-310.9 936.88,-310.78 934.27,-310.64"/>
<polygon fill="black" stroke="black" points="934.32,-307.13 924.13,-310.03 933.91,-314.12 934.32,-307.13"/>
<text text-anchor="start" x="1127" y="-316.8" font-family="arial" font-size="14.00" fill="#377eb8">c0 &gt;= 5</text>
</g>
<!-- ID_99_ct0_st01X2W&#45;&gt;ID_99_ct0_st012W -->
<g id="edge23" class="edge">
<title>ID_99_ct0_st01X2W&#45;&gt;ID_99_ct0_st012W</title>
<path fill="none" stroke="black" d="M1295.91,-323.22C1188.91,-347.41 984.74,-385.57 810,-372 781.3,-369.77 773.91,-369.07 746,-362 743.24,-361.3 740.45,-360.55 737.63,-359.76"/>
<polygon fill="black" stroke="black" points="738.61,-356.39 728.03,-356.91 736.62,-363.11 738.61,-356.39"/>
<text text-anchor="start" x="942" y="-376.8" font-family="arial" font-size="14.00" fill="#377eb8">(c0 &gt;= 5 &amp;&amp; c1 &lt; 10)</text>
</g>
<!-- ID_99_ct0_st01X2W&#45;&gt;ID_99_ct0_st01X2W -->
<g id="edge21" class="edge">
<title>ID_99_ct0_st01X2W&#45;&gt;ID_99_ct0_st01X2W</title>
<path fill="none" stroke="black" d="M1349.71,-330.18C1348.76,-339.91 1355.86,-348 1371,-348 1380.46,-348 1386.78,-344.84 1389.96,-340.09"/>
<polygon fill="black" stroke="black" points="1393.41,-340.71 1392.29,-330.18 1386.6,-339.11 1393.41,-340.71"/>
<text text-anchor="start" x="1312" y="-351.8" font-family="arial" font-size="14.00" fill="#377eb8">(c0 &lt; 5 &amp;&amp; c1 &lt; 10)</text>
</g>
</g>
</svg>
