<?xml version="1.0" encoding="UTF-8" standalone="no"?>
<!DOCTYPE svg PUBLIC "-//W3C//DTD SVG 1.1//EN"
 "http://www.w3.org/Graphics/SVG/1.1/DTD/svg11.dtd">
<!-- Generated by graphviz version 2.40.1 (20161225.0304)
 -->
<!-- Title: G Pages: 1 -->
<svg width="961pt" height="279pt"
 viewBox="0.00 0.00 961.00 279.00" xmlns="http://www.w3.org/2000/svg" xmlns:xlink="http://www.w3.org/1999/xlink">
<g id="graph0" class="graph" transform="scale(1 1) rotate(0) translate(4 275)">
<title>G</title>
<polygon fill="#ffffff" stroke="transparent" points="-4,4 -4,-275 957,-275 957,4 -4,4"/>
<!-- _st0 -->
<!-- st0 -->
<g id="node2" class="node">
<title>st0</title>
<polygon fill="none" stroke="#000000" points="155,-196 101,-196 101,-146 155,-146 155,-196"/>
<text text-anchor="start" x="117" y="-181.8" font-family="arial" font-weight="bold" font-size="14.00" fill="#000000">st0</text>
<text text-anchor="start" x="120.5" y="-167.8" font-family="arial" font-size="14.00" fill="#984ea3">!R</text>
<text text-anchor="start" x="115.5" y="-153.8" font-family="arial" font-size="14.00" fill="#ff7f00">true</text>
</g>
<!-- _st0&#45;&gt;st0 -->
<g id="edge1" class="edge">
<title>_st0&#45;&gt;st0</title>
<path fill="none" stroke="#000000" d="M54.0661,-171C65.2742,-171 78.4611,-171 90.5711,-171"/>
<polygon fill="#000000" stroke="#000000" points="90.8592,-174.5001 100.8591,-171 90.8591,-167.5001 90.8592,-174.5001"/>
</g>
<!-- st0&#45;&gt;st0 -->
<g id="edge3" class="edge">
<title>st0&#45;&gt;st0</title>
<path fill="none" stroke="#000000" d="M117.9146,-196.1756C117.4663,-205.9095 120.8281,-214 128,-214 132.3704,-214 135.3259,-210.9957 136.8666,-206.446"/>
<polygon fill="#000000" stroke="#000000" points="140.3825,-206.5184 138.0854,-196.1756 133.4313,-205.6935 140.3825,-206.5184"/>
<text text-anchor="start" x="115.5" y="-217.8" font-family="arial" font-size="14.00" fill="#377eb8">true</text>
</g>
<!-- st012W -->
<g id="node4" class="node">
<title>st012W</title>
<polygon fill="none" stroke="#000000" points="314,-151 241,-151 241,-101 314,-101 314,-151"/>
<text text-anchor="start" x="251.5" y="-136.8" font-family="arial" font-weight="bold" font-size="14.00" fill="#000000">st012W</text>
<text text-anchor="start" x="272" y="-122.8" font-family="arial" font-size="14.00" fill="#984ea3">R</text>
<text text-anchor="start" x="249" y="-108.8" font-family="arial" font-size="14.00" fill="#ff7f00">c0 &lt;= 50</text>
</g>
<!-- st0&#45;&gt;st012W -->
<g id="edge4" class="edge">
<title>st0&#45;&gt;st012W</title>
<path fill="none" stroke="#000000" d="M155.0733,-162.8508C176.2441,-156.4784 206.1718,-147.47 231.1376,-139.9552"/>
<polygon fill="#000000" stroke="#000000" points="232.2186,-143.2851 240.7854,-137.0512 230.2009,-136.5821 232.2186,-143.2851"/>
<text text-anchor="start" x="190.5" y="-172.8" font-family="arial" font-size="14.00" fill="#377eb8">true</text>
<text text-anchor="start" x="183" y="-157.8" font-family="arial" font-size="14.00" fill="#000000">c0 :=0</text>
</g>
<!-- _st012W -->
<!-- _st012W&#45;&gt;st012W -->
<g id="edge2" class="edge">
<title>_st012W&#45;&gt;st012W</title>
<path fill="none" stroke="#000000" d="M165.3395,-113.9962C185.184,-116.12 209.7681,-118.7511 230.858,-121.0082"/>
<polygon fill="#000000" stroke="#000000" points="230.5788,-124.4982 240.8946,-122.0824 231.3238,-117.538 230.5788,-124.4982"/>
</g>
<!-- st012W&#45;&gt;st012W -->
<g id="edge16" class="edge">
<title>st012W&#45;&gt;st012W</title>
<path fill="none" stroke="#000000" d="M263.6792,-151.1756C263.0649,-160.9095 267.6719,-169 277.5,-169 283.6426,-169 287.7456,-165.8397 289.8092,-161.093"/>
<polygon fill="#000000" stroke="#000000" points="293.2739,-161.5889 291.3208,-151.1756 286.3538,-160.534 293.2739,-161.5889"/>
<text text-anchor="start" x="253" y="-172.8" font-family="arial" font-size="14.00" fill="#377eb8">c0 &lt; 50</text>
</g>
<!-- st02W -->
<g id="node5" class="node">
<title>st02W</title>
<polygon fill="none" stroke="#000000" points="472,-188 399,-188 399,-138 472,-138 472,-188"/>
<text text-anchor="start" x="414" y="-173.8" font-family="arial" font-weight="bold" font-size="14.00" fill="#000000">st02W</text>
<text text-anchor="start" x="428" y="-159.8" font-family="arial" font-size="14.00" fill="#984ea3">!R</text>
<text text-anchor="start" x="407" y="-145.8" font-family="arial" font-size="14.00" fill="#ff7f00">c0 &lt;= 50</text>
</g>
<!-- st012W&#45;&gt;st02W -->
<g id="edge13" class="edge">
<title>st012W&#45;&gt;st02W</title>
<path fill="none" stroke="#000000" d="M313.2436,-151.0569C319.2726,-154.2663 325.6434,-157.0924 332,-159 350.0811,-164.426 370.738,-166.0745 388.8174,-166.1312"/>
<polygon fill="#000000" stroke="#000000" points="388.8885,-169.6307 398.8436,-166.0051 388.8004,-162.6312 388.8885,-169.6307"/>
<text text-anchor="start" x="332" y="-169.8" font-family="arial" font-size="14.00" fill="#377eb8">c0 &lt; 50</text>
</g>
<!-- st02 -->
<g id="node6" class="node">
<title>st02</title>
<polygon fill="none" stroke="#000000" points="647,-249 565,-249 565,-199 647,-199 647,-249"/>
<text text-anchor="start" x="591" y="-234.8" font-family="arial" font-weight="bold" font-size="14.00" fill="#000000">st02</text>
<text text-anchor="start" x="573" y="-220.8" font-family="arial" font-size="14.00" fill="#984ea3">(!Q &amp;&amp; !R)</text>
<text text-anchor="start" x="593.5" y="-206.8" font-family="arial" font-size="14.00" fill="#ff7f00">true</text>
</g>
<!-- st012W&#45;&gt;st02 -->
<g id="edge14" class="edge">
<title>st012W&#45;&gt;st02</title>
<path fill="none" stroke="#000000" d="M296.0298,-151.0199C317.3694,-177.3042 355.1748,-216.6485 399,-230 450.4207,-245.6654 512.3859,-240.9859 555.0392,-234.3823"/>
<polygon fill="#000000" stroke="#000000" points="555.6066,-237.8361 564.9098,-232.7665 554.4757,-230.928 555.6066,-237.8361"/>
<text text-anchor="start" x="407" y="-243.8" font-family="arial" font-size="14.00" fill="#377eb8">c0 &gt;= 50</text>
</g>
<!-- st023 -->
<g id="node7" class="node">
<title>st023</title>
<polygon fill="none" stroke="#000000" points="953,-146 875,-146 875,-96 953,-96 953,-146"/>
<text text-anchor="start" x="895" y="-131.8" font-family="arial" font-weight="bold" font-size="14.00" fill="#000000">st023</text>
<text text-anchor="start" x="883" y="-117.8" font-family="arial" font-size="14.00" fill="#984ea3">(Q &amp;&amp; !R)</text>
<text text-anchor="start" x="901.5" y="-103.8" font-family="arial" font-size="14.00" fill="#ff7f00">true</text>
</g>
<!-- st012W&#45;&gt;st023 -->
<g id="edge15" class="edge">
<title>st012W&#45;&gt;st023</title>
<path fill="none" stroke="#000000" d="M293.2596,-100.8049C318.4351,-64.0348 371.47,0 435.5,0 435.5,0 435.5,0 777,0 829.95,0 872.0775,-51.4052 894.9955,-87.2043"/>
<polygon fill="#000000" stroke="#000000" points="892.1599,-89.2729 900.4032,-95.9287 898.1097,-85.5851 892.1599,-89.2729"/>
<text text-anchor="start" x="577.5" y="-3.8" font-family="arial" font-size="14.00" fill="#377eb8">c0 &gt;= 50</text>
</g>
<!-- st012 -->
<g id="node8" class="node">
<title>st012</title>
<polygon fill="none" stroke="#000000" points="645,-86 567,-86 567,-36 645,-36 645,-86"/>
<text text-anchor="start" x="587" y="-71.8" font-family="arial" font-weight="bold" font-size="14.00" fill="#000000">st012</text>
<text text-anchor="start" x="575" y="-57.8" font-family="arial" font-size="14.00" fill="#984ea3">(!Q &amp;&amp; R)</text>
<text text-anchor="start" x="593.5" y="-43.8" font-family="arial" font-size="14.00" fill="#ff7f00">true</text>
</g>
<!-- st012W&#45;&gt;st012 -->
<g id="edge17" class="edge">
<title>st012W&#45;&gt;st012</title>
<path fill="none" stroke="#000000" d="M314.0694,-104.0721C319.939,-101.0815 326.0443,-98.2663 332,-96 399.3131,-70.3854 418.4294,-68.0505 490,-60 515.1746,-57.1683 521.6676,-59.7853 547,-60 550.2269,-60.0273 553.553,-60.0631 556.905,-60.1048"/>
<polygon fill="#000000" stroke="#000000" points="556.9175,-63.6052 566.9654,-60.2451 557.0152,-56.6059 556.9175,-63.6052"/>
<text text-anchor="start" x="407" y="-77.8" font-family="arial" font-size="14.00" fill="#377eb8">c0 &gt;= 50</text>
</g>
<!-- st0123 -->
<g id="node9" class="node">
<title>st0123</title>
<polygon fill="none" stroke="#000000" points="814,-149 740,-149 740,-99 814,-99 814,-149"/>
<text text-anchor="start" x="754" y="-134.8" font-family="arial" font-weight="bold" font-size="14.00" fill="#000000">st0123</text>
<text text-anchor="start" x="748" y="-120.8" font-family="arial" font-size="14.00" fill="#984ea3">(Q &amp;&amp; R)</text>
<text text-anchor="start" x="764.5" y="-106.8" font-family="arial" font-size="14.00" fill="#ff7f00">true</text>
</g>
<!-- st012W&#45;&gt;st0123 -->
<g id="edge18" class="edge">
<title>st012W&#45;&gt;st0123</title>
<path fill="none" stroke="#000000" d="M314.2294,-125.8529C403.3362,-125.4962 630.9168,-124.5849 729.8676,-124.1887"/>
<polygon fill="#000000" stroke="#000000" points="729.892,-127.6887 739.8779,-124.1486 729.8639,-120.6888 729.892,-127.6887"/>
<text text-anchor="start" x="490" y="-129.8" font-family="arial" font-size="14.00" fill="#377eb8">c0 &gt;= 50</text>
</g>
<!-- st02W&#45;&gt;st012W -->
<g id="edge8" class="edge">
<title>st02W&#45;&gt;st012W</title>
<path fill="none" stroke="#000000" d="M398.8119,-149.2967C392.905,-147.3554 386.8196,-145.5097 381,-144 362.6149,-139.2306 342.0601,-135.3629 324.1434,-132.4524"/>
<polygon fill="#000000" stroke="#000000" points="324.6366,-128.9871 314.2145,-130.8922 323.5499,-135.9022 324.6366,-128.9871"/>
<text text-anchor="start" x="332" y="-147.8" font-family="arial" font-size="14.00" fill="#377eb8">c0 &lt; 50</text>
</g>
<!-- st02W&#45;&gt;st02W -->
<g id="edge5" class="edge">
<title>st02W&#45;&gt;st02W</title>
<path fill="none" stroke="#000000" d="M420.9321,-188.1756C420.2847,-197.9095 425.1406,-206 435.5,-206 441.9746,-206 446.2994,-202.8397 448.4745,-198.093"/>
<polygon fill="#000000" stroke="#000000" points="451.9372,-198.6042 450.0679,-188.1756 445.0258,-197.4938 451.9372,-198.6042"/>
<text text-anchor="start" x="411" y="-209.8" font-family="arial" font-size="14.00" fill="#377eb8">c0 &lt; 50</text>
</g>
<!-- st02W&#45;&gt;st02 -->
<g id="edge6" class="edge">
<title>st02W&#45;&gt;st02</title>
<path fill="none" stroke="#000000" d="M472.0765,-176.086C496.3904,-184.7848 528.6481,-196.3257 555.4121,-205.9011"/>
<polygon fill="#000000" stroke="#000000" points="554.4046,-209.2578 564.9992,-209.3311 556.7626,-202.667 554.4046,-209.2578"/>
<text text-anchor="start" x="490" y="-205.8" font-family="arial" font-size="14.00" fill="#377eb8">c0 &gt;= 50</text>
</g>
<!-- st02W&#45;&gt;st023 -->
<g id="edge7" class="edge">
<title>st02W&#45;&gt;st023</title>
<path fill="none" stroke="#000000" d="M455.5183,-188.0863C465.149,-199.0991 477.3411,-211.626 490,-221 519.8707,-243.1195 528.8027,-249.5571 565,-258 600.4918,-266.2784 610.6642,-260.8116 647,-258 721.8925,-252.205 747.2226,-266.3984 814,-232 847.9751,-214.4987 875.9678,-180.3725 893.6096,-154.5563"/>
<polygon fill="#000000" stroke="#000000" points="896.5719,-156.4223 899.1893,-146.1559 890.7409,-152.5493 896.5719,-156.4223"/>
<text text-anchor="start" x="665" y="-259.8" font-family="arial" font-size="14.00" fill="#377eb8">c0 &gt;= 50</text>
</g>
<!-- st02W&#45;&gt;st012 -->
<g id="edge9" class="edge">
<title>st02W&#45;&gt;st012</title>
<path fill="none" stroke="#000000" d="M445.3491,-137.79C454.1352,-118.7782 468.8936,-93.7098 490,-80 509.5756,-67.2845 534.8165,-62.1388 556.7519,-60.3368"/>
<polygon fill="#000000" stroke="#000000" points="557.1223,-63.8207 566.8894,-59.7154 556.694,-56.8338 557.1223,-63.8207"/>
<text text-anchor="start" x="490" y="-83.8" font-family="arial" font-size="14.00" fill="#377eb8">c0 &gt;= 50</text>
</g>
<!-- st02W&#45;&gt;st0123 -->
<g id="edge10" class="edge">
<title>st02W&#45;&gt;st0123</title>
<path fill="none" stroke="#000000" d="M472.1537,-159.0882C526.6616,-153.2297 632.2997,-141.717 722,-131 724.5089,-130.7002 727.0815,-130.3884 729.6785,-130.07"/>
<polygon fill="#000000" stroke="#000000" points="730.2395,-133.5273 739.7321,-128.8218 729.377,-126.5806 730.2395,-133.5273"/>
<text text-anchor="start" x="577.5" y="-152.8" font-family="arial" font-size="14.00" fill="#377eb8">c0 &gt;= 50</text>
</g>
<!-- st02&#45;&gt;st023 -->
<g id="edge11" class="edge">
<title>st02&#45;&gt;st023</title>
<path fill="none" stroke="#000000" d="M647.2373,-223.6519C690.5198,-221.8973 759.6906,-215.095 814,-191 836.3418,-181.0878 858.8501,-165.8986 876.8399,-152.1993"/>
<polygon fill="#000000" stroke="#000000" points="879.0237,-154.9349 884.7707,-146.0342 874.7275,-149.4083 879.0237,-154.9349"/>
<text text-anchor="start" x="764.5" y="-216.8" font-family="arial" font-size="14.00" fill="#377eb8">true</text>
</g>
<!-- st02&#45;&gt;st0123 -->
<g id="edge12" class="edge">
<title>st02&#45;&gt;st0123</title>
<path fill="none" stroke="#000000" d="M647.1553,-204.8763C653.1228,-202.1879 659.2055,-199.4934 665,-197 690.0934,-186.2022 698.8645,-188.5265 722,-174 730.1061,-168.9103 738.1321,-162.5726 745.4437,-156.1374"/>
<polygon fill="#000000" stroke="#000000" points="748.0465,-158.5002 753.0674,-149.1706 743.3243,-153.3328 748.0465,-158.5002"/>
<text text-anchor="start" x="681" y="-200.8" font-family="arial" font-size="14.00" fill="#377eb8">true</text>
</g>
<!-- st023&#45;&gt;st023 -->
<g id="edge21" class="edge">
<title>st023&#45;&gt;st023</title>
<path fill="none" stroke="#000000" d="M901.2998,-146.1756C900.7354,-155.9095 904.9688,-164 914,-164 919.6445,-164 923.4149,-160.8397 925.3111,-156.093"/>
<polygon fill="#000000" stroke="#000000" points="928.7792,-156.5645 926.7002,-146.1756 921.8468,-155.5934 928.7792,-156.5645"/>
<text text-anchor="start" x="901.5" y="-167.8" font-family="arial" font-size="14.00" fill="#377eb8">true</text>
</g>
<!-- st023&#45;&gt;st0123 -->
<g id="edge22" class="edge">
<title>st023&#45;&gt;st0123</title>
<path fill="none" stroke="#000000" d="M874.9805,-121.8544C859.14,-122.2013 840.7005,-122.6051 824.1187,-122.9682"/>
<polygon fill="#000000" stroke="#000000" points="823.9951,-119.47 814.0742,-123.1882 824.1484,-126.4683 823.9951,-119.47"/>
<text text-anchor="start" x="832" y="-126.8" font-family="arial" font-size="14.00" fill="#377eb8">true</text>
</g>
<!-- st012&#45;&gt;st023 -->
<g id="edge19" class="edge">
<title>st012&#45;&gt;st023</title>
<path fill="none" stroke="#000000" d="M645.0194,-59.3562C687.3383,-58.5533 756.5414,-60.1116 814,-75 831.4742,-79.5279 849.6681,-86.9773 865.6714,-94.5757"/>
<polygon fill="#000000" stroke="#000000" points="864.2975,-97.7998 874.8188,-99.0458 867.3709,-91.5106 864.2975,-97.7998"/>
<text text-anchor="start" x="764.5" y="-78.8" font-family="arial" font-size="14.00" fill="#377eb8">true</text>
</g>
<!-- st012&#45;&gt;st0123 -->
<g id="edge20" class="edge">
<title>st012&#45;&gt;st0123</title>
<path fill="none" stroke="#000000" d="M645.2129,-66.5979C668.2117,-70.7376 697.475,-77.5115 722,-88 725.8955,-89.666 729.8178,-91.6058 733.6773,-93.7051"/>
<polygon fill="#000000" stroke="#000000" points="732.1203,-96.8482 742.5264,-98.839 735.633,-90.7934 732.1203,-96.8482"/>
<text text-anchor="start" x="681" y="-91.8" font-family="arial" font-size="14.00" fill="#377eb8">true</text>
</g>
<!-- st0123&#45;&gt;st023 -->
<g id="edge23" class="edge">
<title>st0123&#45;&gt;st023</title>
<path fill="none" stroke="#000000" d="M814.0944,-108.545C819.9925,-106.6631 826.0963,-105.0401 832,-104 842.6336,-102.1266 853.9985,-102.7709 864.7756,-104.6297"/>
<polygon fill="#000000" stroke="#000000" points="864.3806,-108.1226 874.885,-106.7414 865.812,-101.2705 864.3806,-108.1226"/>
<text text-anchor="start" x="832" y="-107.8" font-family="arial" font-size="14.00" fill="#377eb8">true</text>
</g>
<!-- st0123&#45;&gt;st0123 -->
<g id="edge24" class="edge">
<title>st0123&#45;&gt;st0123</title>
<path fill="none" stroke="#000000" d="M764.6733,-149.1756C764.1255,-158.9095 768.2344,-167 777,-167 782.4785,-167 786.138,-163.8397 787.9784,-159.093"/>
<polygon fill="#000000" stroke="#000000" points="791.4476,-159.556 789.3267,-149.1756 784.5114,-158.613 791.4476,-159.556"/>
<text text-anchor="start" x="764.5" y="-170.8" font-family="arial" font-size="14.00" fill="#377eb8">true</text>
</g>
</g>
</svg>
