<?xml version="1.0" encoding="UTF-8" standalone="no"?>
<!DOCTYPE svg PUBLIC "-//W3C//DTD SVG 1.1//EN"
 "http://www.w3.org/Graphics/SVG/1.1/DTD/svg11.dtd">
<!-- Generated by graphviz version 2.43.0 (0)
 -->
<!-- Title: G Pages: 1 -->
<svg width="2362pt" height="997pt"
 viewBox="0.00 0.00 2362.00 997.00" xmlns="http://www.w3.org/2000/svg" xmlns:xlink="http://www.w3.org/1999/xlink">
<g id="graph0" class="graph" transform="scale(1 1) rotate(0) translate(4 993)">
<title>G</title>
<polygon fill="white" stroke="transparent" points="-4,4 -4,-993 2358,-993 2358,4 -4,4"/>
<!-- _ID_51_ct0_st0 -->
<!-- ID_51_ct0_st0 -->
<g id="node2" class="node">
<title>ID_51_ct0_st0</title>
<polygon fill="none" stroke="black" points="261,-354 154,-354 154,-304 261,-304 261,-354"/>
<text text-anchor="start" x="162" y="-339.8" font-family="arial" font-weight="bold" font-size="14.00">ID_51_ct0_st0</text>
<text text-anchor="start" x="199.5" y="-325.8" font-family="arial" font-size="14.00" fill="#984ea3">!Q</text>
<text text-anchor="start" x="195.5" y="-311.8" font-family="arial" font-size="14.00" fill="#ff7f00">true</text>
</g>
<!-- _ID_51_ct0_st0&#45;&gt;ID_51_ct0_st0 -->
<g id="edge1" class="edge">
<title>_ID_51_ct0_st0&#45;&gt;ID_51_ct0_st0</title>
<path fill="none" stroke="black" d="M111.08,-329C121.62,-329 132.74,-329 143.52,-329"/>
<polygon fill="black" stroke="black" points="143.72,-332.5 153.72,-329 143.72,-325.5 143.72,-332.5"/>
</g>
<!-- ID_51_ct0_st0&#45;&gt;ID_51_ct0_st0 -->
<g id="edge5" class="edge">
<title>ID_51_ct0_st0&#45;&gt;ID_51_ct0_st0</title>
<path fill="none" stroke="black" d="M192.93,-354.18C192.28,-363.91 197.14,-372 207.5,-372 213.97,-372 218.3,-368.84 220.47,-364.09"/>
<polygon fill="black" stroke="black" points="223.94,-364.6 222.07,-354.18 217.03,-363.49 223.94,-364.6"/>
<text text-anchor="start" x="195.5" y="-375.8" font-family="arial" font-size="14.00" fill="#377eb8">true</text>
</g>
<!-- ID_51_ct0_st01 -->
<g id="node4" class="node">
<title>ID_51_ct0_st01</title>
<polygon fill="none" stroke="black" points="447,-511 333,-511 333,-461 447,-461 447,-511"/>
<text text-anchor="start" x="341" y="-496.8" font-family="arial" font-weight="bold" font-size="14.00">ID_51_ct0_st01</text>
<text text-anchor="start" x="362" y="-482.8" font-family="arial" font-size="14.00" fill="#984ea3">(Q &amp;&amp; R)</text>
<text text-anchor="start" x="378" y="-468.8" font-family="arial" font-size="14.00" fill="#ff7f00">true</text>
</g>
<!-- ID_51_ct0_st0&#45;&gt;ID_51_ct0_st01 -->
<g id="edge6" class="edge">
<title>ID_51_ct0_st0&#45;&gt;ID_51_ct0_st01</title>
<path fill="none" stroke="black" d="M227.74,-354.18C242.36,-372.44 263.55,-397.15 285,-416 301.23,-430.26 320.51,-443.99 338.03,-455.45"/>
<polygon fill="black" stroke="black" points="336.17,-458.41 346.47,-460.88 339.96,-452.53 336.17,-458.41"/>
<text text-anchor="start" x="285" y="-436.8" font-family="arial" font-size="14.00" fill="#377eb8">true</text>
</g>
<!-- ID_51_ct0_st012 -->
<g id="node6" class="node">
<title>ID_51_ct0_st012</title>
<polygon fill="none" stroke="black" points="636,-209 513,-209 513,-159 636,-159 636,-209"/>
<text text-anchor="start" x="521.5" y="-194.8" font-family="arial" font-weight="bold" font-size="14.00">ID_51_ct0_st012</text>
<text text-anchor="start" x="521" y="-180.8" font-family="arial" font-size="14.00" fill="#984ea3">(Q &amp;&amp; (!R &amp;&amp; !S))</text>
<text text-anchor="start" x="562.5" y="-166.8" font-family="arial" font-size="14.00" fill="#ff7f00">true</text>
</g>
<!-- ID_51_ct0_st0&#45;&gt;ID_51_ct0_st012 -->
<g id="edge7" class="edge">
<title>ID_51_ct0_st0&#45;&gt;ID_51_ct0_st012</title>
<path fill="none" stroke="black" d="M229.23,-303.73C250.91,-279.15 287.27,-242.85 327,-224 382.34,-197.75 451.66,-188.29 502.69,-185.08"/>
<polygon fill="black" stroke="black" points="503.17,-188.56 512.96,-184.51 502.78,-181.57 503.17,-188.56"/>
<text text-anchor="start" x="378" y="-227.8" font-family="arial" font-size="14.00" fill="#377eb8">true</text>
</g>
<!-- ID_51_ct0_st0123 -->
<g id="node8" class="node">
<title>ID_51_ct0_st0123</title>
<polygon fill="none" stroke="black" points="1206,-597 1077,-597 1077,-547 1206,-547 1206,-597"/>
<text text-anchor="start" x="1085" y="-582.8" font-family="arial" font-weight="bold" font-size="14.00">ID_51_ct0_st0123</text>
<text text-anchor="start" x="1090" y="-568.8" font-family="arial" font-size="14.00" fill="#984ea3">(Q &amp;&amp; (!R &amp;&amp; S))</text>
<text text-anchor="start" x="1129.5" y="-554.8" font-family="arial" font-size="14.00" fill="#ff7f00">true</text>
</g>
<!-- ID_51_ct0_st0&#45;&gt;ID_51_ct0_st0123 -->
<g id="edge8" class="edge">
<title>ID_51_ct0_st0&#45;&gt;ID_51_ct0_st0123</title>
<path fill="none" stroke="black" d="M210.65,-354.04C217.4,-427.18 240.43,-638.54 285,-689 317.38,-725.66 340.09,-725 389,-725 389,-725 389,-725 951,-725 1000.17,-725 1018.78,-729.29 1059,-701 1092.09,-677.72 1114.71,-636.3 1127.57,-606.67"/>
<polygon fill="black" stroke="black" points="1130.93,-607.7 1131.56,-597.12 1124.48,-605 1130.93,-607.7"/>
<text text-anchor="start" x="654" y="-728.8" font-family="arial" font-size="14.00" fill="#377eb8">true</text>
</g>
<!-- _ID_51_ct0_st01 -->
<!-- _ID_51_ct0_st01&#45;&gt;ID_51_ct0_st01 -->
<g id="edge2" class="edge">
<title>_ID_51_ct0_st01&#45;&gt;ID_51_ct0_st01</title>
<path fill="none" stroke="black" d="M223.89,-681.75C254.37,-645.62 322.79,-564.49 361.31,-518.83"/>
<polygon fill="black" stroke="black" points="364.13,-520.91 367.91,-511.01 358.78,-516.4 364.13,-520.91"/>
</g>
<!-- ID_51_ct0_st01&#45;&gt;ID_51_ct0_st0 -->
<g id="edge9" class="edge">
<title>ID_51_ct0_st01&#45;&gt;ID_51_ct0_st0</title>
<path fill="none" stroke="black" d="M369.09,-460.69C353.74,-442 331.4,-416.52 309,-397 293.72,-383.68 275.72,-370.77 259.22,-359.84"/>
<polygon fill="black" stroke="black" points="261.03,-356.84 250.74,-354.31 257.21,-362.71 261.03,-356.84"/>
<text text-anchor="start" x="290.5" y="-400.8" font-family="arial" font-size="14.00" fill="#377eb8">R&#39;</text>
</g>
<!-- ID_51_ct0_st01&#45;&gt;ID_51_ct0_st01 -->
<g id="edge12" class="edge">
<title>ID_51_ct0_st01&#45;&gt;ID_51_ct0_st01</title>
<path fill="none" stroke="black" d="M372.82,-511.18C372.05,-520.91 377.78,-529 390,-529 397.64,-529 402.74,-525.84 405.3,-521.09"/>
<polygon fill="black" stroke="black" points="408.76,-521.65 407.18,-511.18 401.88,-520.35 408.76,-521.65"/>
<text text-anchor="start" x="378" y="-532.8" font-family="arial" font-size="14.00" fill="#377eb8">true</text>
</g>
<!-- ID_51_ct0_st01&#45;&gt;ID_51_ct0_st012 -->
<g id="edge13" class="edge">
<title>ID_51_ct0_st01&#45;&gt;ID_51_ct0_st012</title>
<path fill="none" stroke="black" d="M400.21,-460.9C413.08,-427.72 438.54,-368.27 471,-324 479.74,-312.09 485.5,-312.31 495,-301 517.05,-274.76 538.47,-242.2 553.36,-218.1"/>
<polygon fill="black" stroke="black" points="556.5,-219.66 558.73,-209.3 550.53,-216.01 556.5,-219.66"/>
<text text-anchor="start" x="471" y="-327.8" font-family="arial" font-size="14.00" fill="#377eb8">true</text>
</g>
<!-- ID_51_ct0_st01&#45;&gt;ID_51_ct0_st0123 -->
<g id="edge14" class="edge">
<title>ID_51_ct0_st01&#45;&gt;ID_51_ct0_st0123</title>
<path fill="none" stroke="black" d="M398.45,-511.24C409.02,-541.88 431.58,-592.15 471,-614 535.14,-649.55 562.67,-614.39 636,-614 719.11,-613.56 740.08,-617.65 823,-612 906.92,-606.28 1002.63,-593.34 1066.83,-583.71"/>
<polygon fill="black" stroke="black" points="1067.49,-587.15 1076.86,-582.2 1066.44,-580.23 1067.49,-587.15"/>
<text text-anchor="start" x="747.5" y="-618.8" font-family="arial" font-size="14.00" fill="#377eb8">true</text>
</g>
<!-- ID_51_ct0_st02 -->
<g id="node9" class="node">
<title>ID_51_ct0_st02</title>
<polygon fill="none" stroke="black" points="823,-318 696,-318 696,-268 823,-268 823,-318"/>
<text text-anchor="start" x="710.5" y="-303.8" font-family="arial" font-weight="bold" font-size="14.00">ID_51_ct0_st02</text>
<text text-anchor="start" x="704" y="-289.8" font-family="arial" font-size="14.00" fill="#984ea3">(!Q &amp;&amp; (!R &amp;&amp; !S))</text>
<text text-anchor="start" x="747.5" y="-275.8" font-family="arial" font-size="14.00" fill="#ff7f00">true</text>
</g>
<!-- ID_51_ct0_st01&#45;&gt;ID_51_ct0_st02 -->
<g id="edge10" class="edge">
<title>ID_51_ct0_st01&#45;&gt;ID_51_ct0_st02</title>
<path fill="none" stroke="black" d="M408.01,-460.7C422.62,-440.68 445.35,-413.31 471,-396 487.43,-384.91 494.19,-387.26 513,-381 585.83,-356.75 606.31,-357.42 678,-330 684.27,-327.6 690.75,-324.94 697.18,-322.18"/>
<polygon fill="black" stroke="black" points="698.77,-325.31 706.53,-318.09 695.96,-318.9 698.77,-325.31"/>
<text text-anchor="start" x="562.5" y="-384.8" font-family="arial" font-size="14.00" fill="#377eb8">true</text>
</g>
<!-- ID_51_ct0_st023 -->
<g id="node10" class="node">
<title>ID_51_ct0_st023</title>
<polygon fill="none" stroke="black" points="1011.5,-318 888.5,-318 888.5,-268 1011.5,-268 1011.5,-318"/>
<text text-anchor="start" x="897" y="-303.8" font-family="arial" font-weight="bold" font-size="14.00">ID_51_ct0_st023</text>
<text text-anchor="start" x="896.5" y="-289.8" font-family="arial" font-size="14.00" fill="#984ea3">(!Q &amp;&amp; (!R &amp;&amp; S))</text>
<text text-anchor="start" x="938" y="-275.8" font-family="arial" font-size="14.00" fill="#ff7f00">true</text>
</g>
<!-- ID_51_ct0_st01&#45;&gt;ID_51_ct0_st023 -->
<g id="edge11" class="edge">
<title>ID_51_ct0_st01&#45;&gt;ID_51_ct0_st023</title>
<path fill="none" stroke="black" d="M423.72,-460.81C437.64,-451.15 454.47,-440.83 471,-434 544.88,-403.48 747.86,-387.26 823,-360 849.52,-350.38 877.38,-336.06 900.14,-323.12"/>
<polygon fill="black" stroke="black" points="902.01,-326.09 908.92,-318.06 898.51,-320.03 902.01,-326.09"/>
<text text-anchor="start" x="654" y="-397.8" font-family="arial" font-size="14.00" fill="#377eb8">true</text>
</g>
<!-- _ID_51_ct0_st012 -->
<!-- _ID_51_ct0_st012&#45;&gt;ID_51_ct0_st012 -->
<g id="edge3" class="edge">
<title>_ID_51_ct0_st012&#45;&gt;ID_51_ct0_st012</title>
<path fill="none" stroke="black" d="M428.31,-247.92C441.72,-241.52 456.99,-234.33 471,-228 481.82,-223.11 493.34,-218.04 504.6,-213.15"/>
<polygon fill="black" stroke="black" points="506.19,-216.28 513.98,-209.1 503.41,-209.85 506.19,-216.28"/>
</g>
<!-- ID_51_ct0_st012&#45;&gt;ID_51_ct0_st0 -->
<g id="edge21" class="edge">
<title>ID_51_ct0_st012&#45;&gt;ID_51_ct0_st0</title>
<path fill="none" stroke="black" d="M512.86,-165.17C460.77,-152.58 385.1,-143.06 327,-172 275.85,-197.48 240.94,-256.72 222.9,-294.7"/>
<polygon fill="black" stroke="black" points="219.68,-293.32 218.67,-303.87 226.04,-296.25 219.68,-293.32"/>
<text text-anchor="start" x="383.5" y="-175.8" font-family="arial" font-size="14.00" fill="#377eb8">R&#39;</text>
</g>
<!-- ID_51_ct0_st012&#45;&gt;ID_51_ct0_st01 -->
<g id="edge24" class="edge">
<title>ID_51_ct0_st012&#45;&gt;ID_51_ct0_st01</title>
<path fill="none" stroke="black" d="M526.83,-209.04C503.75,-222.21 479.13,-237.71 471,-248 464.49,-256.24 422.46,-386.92 402.06,-451.04"/>
<polygon fill="black" stroke="black" points="398.68,-450.15 398.99,-460.74 405.35,-452.27 398.68,-450.15"/>
<text text-anchor="start" x="471" y="-251.8" font-family="arial" font-size="14.00" fill="#377eb8">true</text>
</g>
<!-- ID_51_ct0_st012&#45;&gt;ID_51_ct0_st012 -->
<g id="edge25" class="edge">
<title>ID_51_ct0_st012&#45;&gt;ID_51_ct0_st012</title>
<path fill="none" stroke="black" d="M557.69,-209.18C556.94,-218.91 562.55,-227 574.5,-227 581.97,-227 586.96,-223.84 589.47,-219.09"/>
<polygon fill="black" stroke="black" points="592.93,-219.65 591.31,-209.18 586.04,-218.37 592.93,-219.65"/>
<text text-anchor="start" x="562.5" y="-230.8" font-family="arial" font-size="14.00" fill="#377eb8">true</text>
</g>
<!-- ID_51_ct0_st012&#45;&gt;ID_51_ct0_st0123 -->
<g id="edge26" class="edge">
<title>ID_51_ct0_st012&#45;&gt;ID_51_ct0_st0123</title>
<path fill="none" stroke="black" d="M636.1,-175.36C730.36,-165.59 912.15,-161.96 1017,-259 1074.27,-312 1048.27,-351.45 1077,-424 1092.56,-463.29 1111.88,-507.78 1125.1,-537.63"/>
<polygon fill="black" stroke="black" points="1121.9,-539.06 1129.16,-546.78 1128.3,-536.22 1121.9,-539.06"/>
<text text-anchor="start" x="841" y="-188.8" font-family="arial" font-size="14.00" fill="#377eb8">true</text>
</g>
<!-- ID_51_ct0_st012&#45;&gt;ID_51_ct0_st02 -->
<g id="edge22" class="edge">
<title>ID_51_ct0_st012&#45;&gt;ID_51_ct0_st02</title>
<path fill="none" stroke="black" d="M636.11,-200.8C650.35,-205.95 665.12,-212.33 678,-220 683.37,-223.2 704.72,-242.62 724.09,-260.62"/>
<polygon fill="black" stroke="black" points="721.95,-263.42 731.65,-267.68 726.72,-258.3 721.95,-263.42"/>
<text text-anchor="start" x="654" y="-223.8" font-family="arial" font-size="14.00" fill="#377eb8">true</text>
</g>
<!-- ID_51_ct0_st012&#45;&gt;ID_51_ct0_st023 -->
<g id="edge23" class="edge">
<title>ID_51_ct0_st012&#45;&gt;ID_51_ct0_st023</title>
<path fill="none" stroke="black" d="M636.1,-195.03C649.91,-197.76 664.5,-200.83 678,-204 743.08,-219.3 759.54,-222.97 823,-244 841.14,-250.01 860.49,-257.16 878.44,-264.1"/>
<polygon fill="black" stroke="black" points="877.66,-267.56 888.25,-267.94 880.21,-261.04 877.66,-267.56"/>
<text text-anchor="start" x="747.5" y="-247.8" font-family="arial" font-size="14.00" fill="#377eb8">true</text>
</g>
<!-- _ID_51_ct0_st0123 -->
<!-- _ID_51_ct0_st0123&#45;&gt;ID_51_ct0_st0123 -->
<g id="edge4" class="edge">
<title>_ID_51_ct0_st0123&#45;&gt;ID_51_ct0_st0123</title>
<path fill="none" stroke="black" d="M1017.16,-622.97C1031.1,-618.74 1045.62,-613.99 1059,-609 1065.36,-606.63 1071.92,-603.99 1078.43,-601.24"/>
<polygon fill="black" stroke="black" points="1080.1,-604.33 1087.9,-597.16 1077.33,-597.9 1080.1,-604.33"/>
</g>
<!-- ID_51_ct0_st0123&#45;&gt;ID_51_ct0_st0 -->
<g id="edge33" class="edge">
<title>ID_51_ct0_st0123&#45;&gt;ID_51_ct0_st0</title>
<path fill="none" stroke="black" d="M1117.91,-597.31C1095.12,-620.77 1057.59,-654.08 1017,-668 901.99,-707.44 587.3,-668.46 471,-633 400.97,-611.65 378.24,-605.3 327,-553 272.39,-497.25 236.56,-411.22 219.71,-363.63"/>
<polygon fill="black" stroke="black" points="222.98,-362.39 216.4,-354.08 216.37,-364.68 222.98,-362.39"/>
<text text-anchor="start" x="659.5" y="-674.8" font-family="arial" font-size="14.00" fill="#377eb8">R&#39;</text>
</g>
<!-- ID_51_ct0_st0123&#45;&gt;ID_51_ct0_st01 -->
<g id="edge36" class="edge">
<title>ID_51_ct0_st0123&#45;&gt;ID_51_ct0_st01</title>
<path fill="none" stroke="black" d="M1076.99,-575.36C920.52,-583.22 525.24,-600.36 471,-576 445.3,-564.46 424.49,-540.13 410.54,-519.68"/>
<polygon fill="black" stroke="black" points="413.4,-517.65 404.99,-511.2 407.54,-521.48 413.4,-517.65"/>
<text text-anchor="start" x="747.5" y="-591.8" font-family="arial" font-size="14.00" fill="#377eb8">true</text>
</g>
<!-- ID_51_ct0_st0123&#45;&gt;ID_51_ct0_st0123 -->
<g id="edge38" class="edge">
<title>ID_51_ct0_st0123&#45;&gt;ID_51_ct0_st0123</title>
<path fill="none" stroke="black" d="M1123.94,-597.18C1123.16,-606.91 1129.02,-615 1141.5,-615 1149.3,-615 1154.51,-611.84 1157.14,-607.09"/>
<polygon fill="black" stroke="black" points="1160.59,-607.66 1159.06,-597.18 1153.72,-606.33 1160.59,-607.66"/>
<text text-anchor="start" x="1129.5" y="-618.8" font-family="arial" font-size="14.00" fill="#377eb8">true</text>
</g>
<!-- ID_51_ct0_st0123&#45;&gt;ID_51_ct0_st023 -->
<g id="edge35" class="edge">
<title>ID_51_ct0_st0123&#45;&gt;ID_51_ct0_st023</title>
<path fill="none" stroke="black" d="M1123.09,-546.92C1107.26,-524.67 1082.79,-491.65 1059,-465 1049.16,-453.98 1043.58,-454.03 1035,-442 1023.91,-426.46 1025.92,-419.88 1017,-403 1003.24,-376.99 986.11,-348.52 972.74,-327.07"/>
<polygon fill="black" stroke="black" points="975.54,-324.95 967.27,-318.33 969.61,-328.66 975.54,-324.95"/>
<text text-anchor="start" x="1035" y="-468.8" font-family="arial" font-size="14.00" fill="#377eb8">true</text>
</g>
<!-- ID_51_ct0_st024 -->
<g id="node11" class="node">
<title>ID_51_ct0_st024</title>
<polygon fill="none" stroke="black" points="1582,-492 1455,-492 1455,-442 1582,-442 1582,-492"/>
<text text-anchor="start" x="1465.5" y="-477.8" font-family="arial" font-weight="bold" font-size="14.00">ID_51_ct0_st024</text>
<text text-anchor="start" x="1463" y="-463.8" font-family="arial" font-size="14.00" fill="#984ea3">(!Q &amp;&amp; (!R &amp;&amp; !S))</text>
<text text-anchor="start" x="1506.5" y="-449.8" font-family="arial" font-size="14.00" fill="#ff7f00">true</text>
</g>
<!-- ID_51_ct0_st0123&#45;&gt;ID_51_ct0_st024 -->
<g id="edge34" class="edge">
<title>ID_51_ct0_st0123&#45;&gt;ID_51_ct0_st024</title>
<path fill="none" stroke="black" d="M1206.27,-567.96C1220.07,-566.7 1234.56,-565.07 1248,-563 1314.18,-552.8 1332.05,-552.83 1395,-530 1419.29,-521.19 1444.91,-508.59 1466.39,-496.97"/>
<polygon fill="black" stroke="black" points="1468.25,-499.95 1475.34,-492.07 1464.88,-493.81 1468.25,-499.95"/>
<text text-anchor="start" x="1318.5" y="-563.8" font-family="arial" font-size="14.00" fill="#377eb8">true</text>
</g>
<!-- ID_51_ct0_st0124 -->
<g id="node12" class="node">
<title>ID_51_ct0_st0124</title>
<polygon fill="none" stroke="black" points="1395,-488 1266,-488 1266,-438 1395,-438 1395,-488"/>
<text text-anchor="start" x="1274" y="-473.8" font-family="arial" font-weight="bold" font-size="14.00">ID_51_ct0_st0124</text>
<text text-anchor="start" x="1277" y="-459.8" font-family="arial" font-size="14.00" fill="#984ea3">(Q &amp;&amp; (!R &amp;&amp; !S))</text>
<text text-anchor="start" x="1318.5" y="-445.8" font-family="arial" font-size="14.00" fill="#ff7f00">true</text>
</g>
<!-- ID_51_ct0_st0123&#45;&gt;ID_51_ct0_st0124 -->
<g id="edge37" class="edge">
<title>ID_51_ct0_st0123&#45;&gt;ID_51_ct0_st0124</title>
<path fill="none" stroke="black" d="M1206.1,-552.65C1220.33,-547.19 1235.04,-540.63 1248,-533 1265.63,-522.62 1283.12,-508.29 1297.34,-495.29"/>
<polygon fill="black" stroke="black" points="1299.97,-497.63 1304.89,-488.24 1295.19,-492.51 1299.97,-497.63"/>
<text text-anchor="start" x="1224" y="-547.8" font-family="arial" font-size="14.00" fill="#377eb8">true</text>
</g>
<!-- ID_51_ct0_st02&#45;&gt;ID_51_ct0_st0 -->
<g id="edge15" class="edge">
<title>ID_51_ct0_st02&#45;&gt;ID_51_ct0_st0</title>
<path fill="none" stroke="black" d="M695.79,-279.66C636.65,-269.62 546.13,-260.86 471,-282 461.97,-284.54 461.82,-289.81 453,-293 393.56,-314.52 321.54,-323.2 271.12,-326.68"/>
<polygon fill="black" stroke="black" points="270.77,-323.2 261.02,-327.33 271.22,-330.18 270.77,-323.2"/>
<text text-anchor="start" x="476.5" y="-285.8" font-family="arial" font-size="14.00" fill="#377eb8">R&#39;</text>
</g>
<!-- ID_51_ct0_st02&#45;&gt;ID_51_ct0_st01 -->
<g id="edge18" class="edge">
<title>ID_51_ct0_st02&#45;&gt;ID_51_ct0_st01</title>
<path fill="none" stroke="black" d="M695.74,-300.23C625.64,-308.48 520.87,-321.43 513,-326 486.63,-341.31 439.49,-410.15 412.17,-452.39"/>
<polygon fill="black" stroke="black" points="409.12,-450.66 406.66,-460.97 415.01,-454.45 409.12,-450.66"/>
<text text-anchor="start" x="562.5" y="-329.8" font-family="arial" font-size="14.00" fill="#377eb8">true</text>
</g>
<!-- ID_51_ct0_st02&#45;&gt;ID_51_ct0_st012 -->
<g id="edge19" class="edge">
<title>ID_51_ct0_st02&#45;&gt;ID_51_ct0_st012</title>
<path fill="none" stroke="black" d="M706.72,-267.98C689.66,-259.28 670.77,-249.15 654,-239 641.86,-231.65 629.09,-223.1 617.46,-214.95"/>
<polygon fill="black" stroke="black" points="619.41,-212.04 609.22,-209.12 615.36,-217.75 619.41,-212.04"/>
<text text-anchor="start" x="654" y="-254.8" font-family="arial" font-size="14.00" fill="#377eb8">true</text>
</g>
<!-- ID_51_ct0_st02&#45;&gt;ID_51_ct0_st0123 -->
<g id="edge20" class="edge">
<title>ID_51_ct0_st02&#45;&gt;ID_51_ct0_st0123</title>
<path fill="none" stroke="black" d="M776.04,-318.25C797.04,-350.72 837.15,-407.28 883,-444 938.88,-488.75 1012.94,-523.53 1067.29,-545.46"/>
<polygon fill="black" stroke="black" points="1066.28,-548.83 1076.86,-549.28 1068.87,-542.32 1066.28,-548.83"/>
<text text-anchor="start" x="938" y="-526.8" font-family="arial" font-size="14.00" fill="#377eb8">true</text>
</g>
<!-- ID_51_ct0_st02&#45;&gt;ID_51_ct0_st02 -->
<g id="edge16" class="edge">
<title>ID_51_ct0_st02&#45;&gt;ID_51_ct0_st02</title>
<path fill="none" stroke="black" d="M742.32,-318.18C741.55,-327.91 747.28,-336 759.5,-336 767.14,-336 772.24,-332.84 774.8,-328.09"/>
<polygon fill="black" stroke="black" points="778.26,-328.65 776.68,-318.18 771.38,-327.35 778.26,-328.65"/>
<text text-anchor="start" x="747.5" y="-339.8" font-family="arial" font-size="14.00" fill="#377eb8">true</text>
</g>
<!-- ID_51_ct0_st02&#45;&gt;ID_51_ct0_st023 -->
<g id="edge17" class="edge">
<title>ID_51_ct0_st02&#45;&gt;ID_51_ct0_st023</title>
<path fill="none" stroke="black" d="M823.01,-293C840.65,-293 859.97,-293 878.07,-293"/>
<polygon fill="black" stroke="black" points="878.27,-296.5 888.26,-293 878.26,-289.5 878.27,-296.5"/>
<text text-anchor="start" x="841" y="-296.8" font-family="arial" font-size="14.00" fill="#377eb8">true</text>
</g>
<!-- ID_51_ct0_st023&#45;&gt;ID_51_ct0_st0 -->
<g id="edge27" class="edge">
<title>ID_51_ct0_st023&#45;&gt;ID_51_ct0_st0</title>
<path fill="none" stroke="black" d="M917.79,-267.87C893.12,-248.84 857.25,-223 823,-205 744.45,-163.71 723.32,-150.81 636,-135 582.21,-125.26 567.63,-132.95 513,-135 409.7,-138.88 351.47,-101.83 285,-181 256.01,-215.53 233.96,-262.88 221.15,-294.64"/>
<polygon fill="black" stroke="black" points="217.89,-293.37 217.47,-303.96 224.4,-295.94 217.89,-293.37"/>
<text text-anchor="start" x="568" y="-138.8" font-family="arial" font-size="14.00" fill="#377eb8">R&#39;</text>
</g>
<!-- ID_51_ct0_st023&#45;&gt;ID_51_ct0_st01 -->
<g id="edge30" class="edge">
<title>ID_51_ct0_st023&#45;&gt;ID_51_ct0_st01</title>
<path fill="none" stroke="black" d="M923.45,-318.27C899.58,-340.26 861.88,-371.03 823,-387 757.22,-414.02 561.21,-453.64 457.33,-473.57"/>
<polygon fill="black" stroke="black" points="456.43,-470.18 447.26,-475.49 457.74,-477.05 456.43,-470.18"/>
<text text-anchor="start" x="654" y="-436.8" font-family="arial" font-size="14.00" fill="#377eb8">true</text>
</g>
<!-- ID_51_ct0_st023&#45;&gt;ID_51_ct0_st0123 -->
<g id="edge32" class="edge">
<title>ID_51_ct0_st023&#45;&gt;ID_51_ct0_st0123</title>
<path fill="none" stroke="black" d="M973.44,-318.21C996.27,-344.44 1032.03,-387.17 1059,-427 1062.51,-432.18 1098.65,-496.86 1121.61,-538.06"/>
<polygon fill="black" stroke="black" points="1118.65,-539.94 1126.58,-546.97 1124.77,-536.53 1118.65,-539.94"/>
<text text-anchor="start" x="1035" y="-430.8" font-family="arial" font-size="14.00" fill="#377eb8">true</text>
</g>
<!-- ID_51_ct0_st023&#45;&gt;ID_51_ct0_st023 -->
<g id="edge29" class="edge">
<title>ID_51_ct0_st023&#45;&gt;ID_51_ct0_st023</title>
<path fill="none" stroke="black" d="M932.07,-318.18C931.27,-327.91 937.25,-336 950,-336 957.97,-336 963.29,-332.84 965.97,-328.09"/>
<polygon fill="black" stroke="black" points="969.42,-328.66 967.93,-318.18 962.56,-327.31 969.42,-328.66"/>
<text text-anchor="start" x="938" y="-339.8" font-family="arial" font-size="14.00" fill="#377eb8">true</text>
</g>
<!-- ID_51_ct0_st023&#45;&gt;ID_51_ct0_st024 -->
<g id="edge28" class="edge">
<title>ID_51_ct0_st023&#45;&gt;ID_51_ct0_st024</title>
<path fill="none" stroke="black" d="M1011.53,-291.56C1107.69,-291.83 1298.64,-302.96 1437,-379 1460.71,-392.03 1481.19,-414.68 1495.56,-433.74"/>
<polygon fill="black" stroke="black" points="1492.8,-435.91 1501.52,-441.93 1498.46,-431.78 1492.8,-435.91"/>
<text text-anchor="start" x="1224" y="-316.8" font-family="arial" font-size="14.00" fill="#377eb8">true</text>
</g>
<!-- ID_51_ct0_st023&#45;&gt;ID_51_ct0_st0124 -->
<g id="edge31" class="edge">
<title>ID_51_ct0_st023&#45;&gt;ID_51_ct0_st0124</title>
<path fill="none" stroke="black" d="M1006.85,-318.08C1075.43,-348.89 1191.58,-401.05 1264.22,-433.68"/>
<polygon fill="black" stroke="black" points="1263.17,-437.05 1273.73,-437.95 1266.04,-430.66 1263.17,-437.05"/>
<text text-anchor="start" x="1129.5" y="-408.8" font-family="arial" font-size="14.00" fill="#377eb8">true</text>
</g>
<!-- ID_51_ct0_st024&#45;&gt;ID_51_ct0_st0 -->
<g id="edge39" class="edge">
<title>ID_51_ct0_st024&#45;&gt;ID_51_ct0_st0</title>
<path fill="none" stroke="black" d="M1489.19,-492.08C1477.76,-503.05 1464.95,-516.47 1455,-530 1385.53,-624.4 1448.7,-763 1331.5,-763 852,-763 852,-763 852,-763 342.5,-763 336.2,-782.75 285,-713 264.3,-684.8 227.43,-453.67 213.77,-364.19"/>
<polygon fill="black" stroke="black" points="217.23,-363.61 212.26,-354.25 210.31,-364.66 217.23,-363.61"/>
<text text-anchor="start" x="846.5" y="-766.8" font-family="arial" font-size="14.00" fill="#377eb8">R&#39;</text>
</g>
<!-- ID_51_ct0_st024&#45;&gt;ID_51_ct0_st01 -->
<g id="edge42" class="edge">
<title>ID_51_ct0_st024&#45;&gt;ID_51_ct0_st01</title>
<path fill="none" stroke="black" d="M1454.82,-445.12C1435.8,-439.14 1414.72,-433.17 1395,-429 1312.26,-411.51 1290.43,-411.9 1206,-407 1130.13,-402.6 1110.87,-402.52 1035,-407 967.09,-411.01 935.09,-381.25 883,-425 861.68,-442.91 886.78,-467.66 865,-485 785.2,-548.53 737.94,-496.66 636,-500 562.71,-502.4 544.06,-506.34 471,-500 466.53,-499.61 461.94,-499.1 457.33,-498.51"/>
<polygon fill="black" stroke="black" points="457.61,-495.02 447.22,-497.1 456.64,-501.95 457.61,-495.02"/>
<text text-anchor="start" x="938" y="-428.8" font-family="arial" font-size="14.00" fill="#377eb8">true</text>
</g>
<!-- ID_51_ct0_st024&#45;&gt;ID_51_ct0_st024 -->
<g id="edge40" class="edge">
<title>ID_51_ct0_st024&#45;&gt;ID_51_ct0_st024</title>
<path fill="none" stroke="black" d="M1501.32,-492.18C1500.55,-501.91 1506.28,-510 1518.5,-510 1526.14,-510 1531.24,-506.84 1533.8,-502.09"/>
<polygon fill="black" stroke="black" points="1537.26,-502.65 1535.68,-492.18 1530.38,-501.35 1537.26,-502.65"/>
<text text-anchor="start" x="1506.5" y="-513.8" font-family="arial" font-size="14.00" fill="#377eb8">true</text>
</g>
<!-- ID_51_ct0_st024&#45;&gt;ID_51_ct0_st0124 -->
<g id="edge43" class="edge">
<title>ID_51_ct0_st024&#45;&gt;ID_51_ct0_st0124</title>
<path fill="none" stroke="black" d="M1454.81,-454.17C1448.81,-453.29 1442.8,-452.54 1437,-452 1426.72,-451.05 1415.88,-451.04 1405.22,-451.61"/>
<polygon fill="black" stroke="black" points="1404.81,-448.13 1395.08,-452.33 1405.3,-455.12 1404.81,-448.13"/>
<text text-anchor="start" x="1413" y="-455.8" font-family="arial" font-size="14.00" fill="#377eb8">true</text>
</g>
<!-- ID_51_ct0_st0235 -->
<g id="node13" class="node">
<title>ID_51_ct0_st0235</title>
<polygon fill="none" stroke="black" points="1968,-533 1839,-533 1839,-483 1968,-483 1968,-533"/>
<text text-anchor="start" x="1847" y="-518.8" font-family="arial" font-weight="bold" font-size="14.00">ID_51_ct0_st0235</text>
<text text-anchor="start" x="1850" y="-504.8" font-family="arial" font-size="14.00" fill="#984ea3">(!Q &amp;&amp; (!R &amp;&amp; S))</text>
<text text-anchor="start" x="1891.5" y="-490.8" font-family="arial" font-size="14.00" fill="#ff7f00">true</text>
</g>
<!-- ID_51_ct0_st024&#45;&gt;ID_51_ct0_st0235 -->
<g id="edge41" class="edge">
<title>ID_51_ct0_st024&#45;&gt;ID_51_ct0_st0235</title>
<path fill="none" stroke="black" d="M1582.32,-473.72C1649.77,-480.95 1756.88,-492.41 1828.41,-500.07"/>
<polygon fill="black" stroke="black" points="1828.38,-503.59 1838.69,-501.17 1829.12,-496.62 1828.38,-503.59"/>
<text text-anchor="start" x="1698.5" y="-497.8" font-family="arial" font-size="14.00" fill="#377eb8">true</text>
</g>
<!-- ID_51_ct0_st01235 -->
<g id="node14" class="node">
<title>ID_51_ct0_st01235</title>
<polygon fill="none" stroke="black" points="1779,-602 1642,-602 1642,-552 1779,-552 1779,-602"/>
<text text-anchor="start" x="1650" y="-587.8" font-family="arial" font-weight="bold" font-size="14.00">ID_51_ct0_st01235</text>
<text text-anchor="start" x="1659" y="-573.8" font-family="arial" font-size="14.00" fill="#984ea3">(Q &amp;&amp; (!R &amp;&amp; S))</text>
<text text-anchor="start" x="1698.5" y="-559.8" font-family="arial" font-size="14.00" fill="#ff7f00">true</text>
</g>
<!-- ID_51_ct0_st024&#45;&gt;ID_51_ct0_st01235 -->
<g id="edge44" class="edge">
<title>ID_51_ct0_st024&#45;&gt;ID_51_ct0_st01235</title>
<path fill="none" stroke="black" d="M1563.09,-492.24C1591.09,-508.45 1627.61,-529.59 1657.18,-546.71"/>
<polygon fill="black" stroke="black" points="1655.71,-549.9 1666.11,-551.88 1659.21,-543.84 1655.71,-549.9"/>
<text text-anchor="start" x="1600" y="-528.8" font-family="arial" font-size="14.00" fill="#377eb8">true</text>
</g>
<!-- ID_51_ct0_st0124&#45;&gt;ID_51_ct0_st0 -->
<g id="edge45" class="edge">
<title>ID_51_ct0_st0124&#45;&gt;ID_51_ct0_st0</title>
<path fill="none" stroke="black" d="M1303.87,-437.92C1279.16,-413.93 1240.54,-376.94 1206,-346 1124.02,-272.57 1114.02,-237.97 1017,-186 937.89,-143.63 911.75,-143.28 823,-130 604.98,-97.38 537.99,-62.12 327,-126 255.6,-147.62 225.74,-241.88 214.51,-294.01"/>
<polygon fill="black" stroke="black" points="211.07,-293.35 212.51,-303.84 217.93,-294.74 211.07,-293.35"/>
<text text-anchor="start" x="753" y="-133.8" font-family="arial" font-size="14.00" fill="#377eb8">R&#39;</text>
</g>
<!-- ID_51_ct0_st0124&#45;&gt;ID_51_ct0_st01 -->
<g id="edge48" class="edge">
<title>ID_51_ct0_st0124&#45;&gt;ID_51_ct0_st01</title>
<path fill="none" stroke="black" d="M1265.66,-472.83C1143.68,-490.97 868.93,-528.67 636,-538 562.73,-540.93 541.31,-558.84 471,-538 456.16,-533.6 441.5,-525.49 428.86,-516.95"/>
<polygon fill="black" stroke="black" points="430.64,-513.93 420.45,-511.02 426.6,-519.65 430.64,-513.93"/>
<text text-anchor="start" x="841" y="-526.8" font-family="arial" font-size="14.00" fill="#377eb8">true</text>
</g>
<!-- ID_51_ct0_st0124&#45;&gt;ID_51_ct0_st024 -->
<g id="edge46" class="edge">
<title>ID_51_ct0_st0124&#45;&gt;ID_51_ct0_st024</title>
<path fill="none" stroke="black" d="M1395.11,-466.42C1401.16,-466.66 1407.19,-466.86 1413,-467 1423.24,-467.25 1434.05,-467.39 1444.67,-467.46"/>
<polygon fill="black" stroke="black" points="1444.76,-470.96 1454.78,-467.5 1444.79,-463.96 1444.76,-470.96"/>
<text text-anchor="start" x="1413" y="-470.8" font-family="arial" font-size="14.00" fill="#377eb8">true</text>
</g>
<!-- ID_51_ct0_st0124&#45;&gt;ID_51_ct0_st0124 -->
<g id="edge49" class="edge">
<title>ID_51_ct0_st0124&#45;&gt;ID_51_ct0_st0124</title>
<path fill="none" stroke="black" d="M1312.94,-488.18C1312.16,-497.91 1318.02,-506 1330.5,-506 1338.3,-506 1343.51,-502.84 1346.14,-498.09"/>
<polygon fill="black" stroke="black" points="1349.59,-498.66 1348.06,-488.18 1342.72,-497.33 1349.59,-498.66"/>
<text text-anchor="start" x="1318.5" y="-509.8" font-family="arial" font-size="14.00" fill="#377eb8">true</text>
</g>
<!-- ID_51_ct0_st0124&#45;&gt;ID_51_ct0_st0235 -->
<g id="edge47" class="edge">
<title>ID_51_ct0_st0124&#45;&gt;ID_51_ct0_st0235</title>
<path fill="none" stroke="black" d="M1395.07,-444.49C1414.17,-439.77 1435.28,-435.36 1455,-433 1587.5,-417.14 1740.59,-455.11 1829,-482.61"/>
<polygon fill="black" stroke="black" points="1828.08,-485.99 1838.67,-485.66 1830.18,-479.32 1828.08,-485.99"/>
<text text-anchor="start" x="1600" y="-439.8" font-family="arial" font-size="14.00" fill="#377eb8">true</text>
</g>
<!-- ID_51_ct0_st0124&#45;&gt;ID_51_ct0_st01235 -->
<g id="edge50" class="edge">
<title>ID_51_ct0_st0124&#45;&gt;ID_51_ct0_st01235</title>
<path fill="none" stroke="black" d="M1367.13,-488.03C1390.95,-503.59 1423.57,-522.72 1455,-534 1512.33,-554.58 1580.54,-565.42 1631.9,-571.07"/>
<polygon fill="black" stroke="black" points="1631.63,-574.57 1641.94,-572.14 1632.37,-567.6 1631.63,-574.57"/>
<text text-anchor="start" x="1506.5" y="-567.8" font-family="arial" font-size="14.00" fill="#377eb8">true</text>
</g>
<!-- ID_51_ct0_st0235&#45;&gt;ID_51_ct0_st0 -->
<g id="edge51" class="edge">
<title>ID_51_ct0_st0235&#45;&gt;ID_51_ct0_st0</title>
<path fill="none" stroke="black" d="M1883.26,-482.79C1822.13,-404.94 1622.88,-167.96 1395,-75 1171.85,16.03 1095.01,-38 854,-38 389,-38 389,-38 389,-38 269.9,-38 226.67,-216.19 213.5,-293.7"/>
<polygon fill="black" stroke="black" points="209.98,-293.51 211.84,-303.94 216.89,-294.63 209.98,-293.51"/>
<text text-anchor="start" x="1040.5" y="-32.8" font-family="arial" font-size="14.00" fill="#377eb8">R&#39;</text>
</g>
<!-- ID_51_ct0_st0235&#45;&gt;ID_51_ct0_st01 -->
<g id="edge54" class="edge">
<title>ID_51_ct0_st0235&#45;&gt;ID_51_ct0_st01</title>
<path fill="none" stroke="black" d="M1891.52,-533.36C1860.84,-600.54 1767.02,-782.76 1624,-853 1499.57,-914.11 983.91,-881.54 883,-866 710.44,-839.42 644,-849.42 513,-734 447.21,-676.04 413.19,-574.47 399.09,-521.08"/>
<polygon fill="black" stroke="black" points="402.48,-520.2 396.62,-511.38 395.7,-521.93 402.48,-520.2"/>
<text text-anchor="start" x="1129.5" y="-890.8" font-family="arial" font-size="14.00" fill="#377eb8">true</text>
</g>
<!-- ID_51_ct0_st0235&#45;&gt;ID_51_ct0_st0235 -->
<g id="edge53" class="edge">
<title>ID_51_ct0_st0235&#45;&gt;ID_51_ct0_st0235</title>
<path fill="none" stroke="black" d="M1885.94,-533.18C1885.16,-542.91 1891.02,-551 1903.5,-551 1911.3,-551 1916.51,-547.84 1919.14,-543.09"/>
<polygon fill="black" stroke="black" points="1922.59,-543.66 1921.06,-533.18 1915.72,-542.33 1922.59,-543.66"/>
<text text-anchor="start" x="1891.5" y="-554.8" font-family="arial" font-size="14.00" fill="#377eb8">true</text>
</g>
<!-- ID_51_ct0_st0235&#45;&gt;ID_51_ct0_st01235 -->
<g id="edge56" class="edge">
<title>ID_51_ct0_st0235&#45;&gt;ID_51_ct0_st01235</title>
<path fill="none" stroke="black" d="M1838.86,-508.78C1824.77,-510.39 1810.14,-513.22 1797,-518 1779.58,-524.35 1762.36,-535.11 1747.99,-545.72"/>
<polygon fill="black" stroke="black" points="1745.7,-543.07 1739.88,-551.92 1749.95,-548.63 1745.7,-543.07"/>
<text text-anchor="start" x="1797" y="-521.8" font-family="arial" font-size="14.00" fill="#377eb8">true</text>
</g>
<!-- ID_51_ct0_st0246 -->
<g id="node15" class="node">
<title>ID_51_ct0_st0246</title>
<polygon fill="none" stroke="black" points="2354,-583 2225,-583 2225,-533 2354,-533 2354,-583"/>
<text text-anchor="start" x="2233" y="-568.8" font-family="arial" font-weight="bold" font-size="14.00">ID_51_ct0_st0246</text>
<text text-anchor="start" x="2234" y="-554.8" font-family="arial" font-size="14.00" fill="#984ea3">(!Q &amp;&amp; (!R &amp;&amp; !S))</text>
<text text-anchor="start" x="2277.5" y="-540.8" font-family="arial" font-size="14.00" fill="#ff7f00">true</text>
</g>
<!-- ID_51_ct0_st0235&#45;&gt;ID_51_ct0_st0246 -->
<g id="edge52" class="edge">
<title>ID_51_ct0_st0235&#45;&gt;ID_51_ct0_st0246</title>
<path fill="none" stroke="black" d="M1968.34,-516.31C2036.13,-525.14 2143.15,-539.07 2214.56,-548.37"/>
<polygon fill="black" stroke="black" points="2214.46,-551.89 2224.83,-549.71 2215.36,-544.95 2214.46,-551.89"/>
<text text-anchor="start" x="2084.5" y="-544.8" font-family="arial" font-size="14.00" fill="#377eb8">true</text>
</g>
<!-- ID_51_ct0_st01246 -->
<g id="node16" class="node">
<title>ID_51_ct0_st01246</title>
<polygon fill="none" stroke="black" points="2165,-879 2028,-879 2028,-829 2165,-829 2165,-879"/>
<text text-anchor="start" x="2036" y="-864.8" font-family="arial" font-weight="bold" font-size="14.00">ID_51_ct0_st01246</text>
<text text-anchor="start" x="2043" y="-850.8" font-family="arial" font-size="14.00" fill="#984ea3">(Q &amp;&amp; (!R &amp;&amp; !S))</text>
<text text-anchor="start" x="2084.5" y="-836.8" font-family="arial" font-size="14.00" fill="#ff7f00">true</text>
</g>
<!-- ID_51_ct0_st0235&#45;&gt;ID_51_ct0_st01246 -->
<g id="edge55" class="edge">
<title>ID_51_ct0_st0235&#45;&gt;ID_51_ct0_st01246</title>
<path fill="none" stroke="black" d="M1968.16,-527.06C1983.63,-534.29 1998.9,-544.04 2010,-557 2075.68,-633.7 2091,-758.14 2094.51,-818.68"/>
<polygon fill="black" stroke="black" points="2091.02,-819.06 2095.02,-828.87 2098.01,-818.7 2091.02,-819.06"/>
<text text-anchor="start" x="1986" y="-560.8" font-family="arial" font-size="14.00" fill="#377eb8">true</text>
</g>
<!-- ID_51_ct0_st01235&#45;&gt;ID_51_ct0_st0 -->
<g id="edge57" class="edge">
<title>ID_51_ct0_st01235&#45;&gt;ID_51_ct0_st0</title>
<path fill="none" stroke="black" d="M1696,-602.15C1681.55,-629.64 1658.49,-675.21 1642,-716 1632.36,-739.85 1637.21,-748.93 1624,-771 1595.55,-818.55 1574.91,-839 1519.5,-839 1235,-839 1235,-839 1235,-839 1177.54,-839 412.23,-805.34 327,-772 305.14,-763.45 297.3,-759.98 285,-740 275.07,-723.88 230.5,-460.95 214.36,-364.29"/>
<polygon fill="black" stroke="black" points="217.76,-363.43 212.67,-354.14 210.86,-364.58 217.76,-363.43"/>
<text text-anchor="start" x="943.5" y="-833.8" font-family="arial" font-size="14.00" fill="#377eb8">R&#39;</text>
</g>
<!-- ID_51_ct0_st01235&#45;&gt;ID_51_ct0_st01 -->
<g id="edge60" class="edge">
<title>ID_51_ct0_st01235&#45;&gt;ID_51_ct0_st01</title>
<path fill="none" stroke="black" d="M1701.6,-602.26C1681.55,-660.84 1622.76,-801 1519.5,-801 852,-801 852,-801 852,-801 666.94,-801 598.76,-766.89 471,-633 439.64,-600.14 416.75,-552.59 403.68,-520.55"/>
<polygon fill="black" stroke="black" points="406.88,-519.14 399.94,-511.14 400.38,-521.73 406.88,-519.14"/>
<text text-anchor="start" x="1035" y="-804.8" font-family="arial" font-size="14.00" fill="#377eb8">true</text>
</g>
<!-- ID_51_ct0_st01235&#45;&gt;ID_51_ct0_st0235 -->
<g id="edge59" class="edge">
<title>ID_51_ct0_st01235&#45;&gt;ID_51_ct0_st0235</title>
<path fill="none" stroke="black" d="M1779.11,-552.58C1795.35,-546.71 1812.76,-540.42 1829.24,-534.46"/>
<polygon fill="black" stroke="black" points="1830.61,-537.69 1838.82,-531 1828.23,-531.11 1830.61,-537.69"/>
<text text-anchor="start" x="1797" y="-547.8" font-family="arial" font-size="14.00" fill="#377eb8">true</text>
</g>
<!-- ID_51_ct0_st01235&#45;&gt;ID_51_ct0_st01235 -->
<g id="edge62" class="edge">
<title>ID_51_ct0_st01235&#45;&gt;ID_51_ct0_st01235</title>
<path fill="none" stroke="black" d="M1692.2,-602.18C1691.38,-611.91 1697.48,-620 1710.5,-620 1718.63,-620 1724.07,-616.84 1726.8,-612.09"/>
<polygon fill="black" stroke="black" points="1730.26,-612.67 1728.8,-602.18 1723.39,-611.29 1730.26,-612.67"/>
<text text-anchor="start" x="1698.5" y="-623.8" font-family="arial" font-size="14.00" fill="#377eb8">true</text>
</g>
<!-- ID_51_ct0_st01235&#45;&gt;ID_51_ct0_st0246 -->
<g id="edge58" class="edge">
<title>ID_51_ct0_st01235&#45;&gt;ID_51_ct0_st0246</title>
<path fill="none" stroke="black" d="M1779.02,-577.31C1830.76,-577.34 1903.9,-576.95 1968,-575 2052.72,-572.42 2149.92,-566.91 2214.85,-562.85"/>
<polygon fill="black" stroke="black" points="2215.23,-566.34 2224.99,-562.22 2214.79,-559.35 2215.23,-566.34"/>
<text text-anchor="start" x="1986" y="-577.8" font-family="arial" font-size="14.00" fill="#377eb8">true</text>
</g>
<!-- ID_51_ct0_st01235&#45;&gt;ID_51_ct0_st01246 -->
<g id="edge61" class="edge">
<title>ID_51_ct0_st01235&#45;&gt;ID_51_ct0_st01246</title>
<path fill="none" stroke="black" d="M1746.25,-602.07C1816.56,-652.79 1975.49,-767.43 2052.32,-822.85"/>
<polygon fill="black" stroke="black" points="2050.67,-825.97 2060.82,-828.99 2054.76,-820.3 2050.67,-825.97"/>
<text text-anchor="start" x="1891.5" y="-763.8" font-family="arial" font-size="14.00" fill="#377eb8">true</text>
</g>
<!-- ID_51_ct0_st0246&#45;&gt;ID_51_ct0_st0 -->
<g id="edge63" class="edge">
<title>ID_51_ct0_st0246&#45;&gt;ID_51_ct0_st0</title>
<path fill="none" stroke="black" d="M2285.53,-532.94C2272,-424.36 2211.8,0 2097.5,0 389,0 389,0 389,0 256.24,0 220.46,-208.48 211.39,-293.52"/>
<polygon fill="black" stroke="black" points="207.89,-293.43 210.37,-303.73 214.85,-294.13 207.89,-293.43"/>
<text text-anchor="start" x="1229.5" y="-3.8" font-family="arial" font-size="14.00" fill="#377eb8">R&#39;</text>
</g>
<!-- ID_51_ct0_st0246&#45;&gt;ID_51_ct0_st01 -->
<g id="edge65" class="edge">
<title>ID_51_ct0_st0246&#45;&gt;ID_51_ct0_st01</title>
<path fill="none" stroke="black" d="M2283.82,-532.89C2265.2,-436.69 2192.69,-97 2097.5,-97 1424,-97 1424,-97 1424,-97 1208.63,-97 1213.82,-272.56 1017,-360 960.64,-385.04 941.78,-377.37 883,-396 855.92,-404.58 850.19,-409.77 823,-418 741.18,-442.76 720.32,-448.97 636,-463 576,-472.98 506.96,-478.98 457.49,-482.33"/>
<polygon fill="black" stroke="black" points="456.99,-478.85 447.24,-483.01 457.45,-485.84 456.99,-478.85"/>
<text text-anchor="start" x="1318.5" y="-148.8" font-family="arial" font-size="14.00" fill="#377eb8">true</text>
</g>
<!-- ID_51_ct0_st0246&#45;&gt;ID_51_ct0_st0246 -->
<g id="edge64" class="edge">
<title>ID_51_ct0_st0246&#45;&gt;ID_51_ct0_st0246</title>
<path fill="none" stroke="black" d="M2271.94,-583.18C2271.16,-592.91 2277.02,-601 2289.5,-601 2297.3,-601 2302.51,-597.84 2305.14,-593.09"/>
<polygon fill="black" stroke="black" points="2308.59,-593.66 2307.06,-583.18 2301.72,-592.33 2308.59,-593.66"/>
<text text-anchor="start" x="2277.5" y="-604.8" font-family="arial" font-size="14.00" fill="#377eb8">true</text>
</g>
<!-- ID_51_ct0_st0246&#45;&gt;ID_51_ct0_st01246 -->
<g id="edge66" class="edge">
<title>ID_51_ct0_st0246&#45;&gt;ID_51_ct0_st01246</title>
<path fill="none" stroke="black" d="M2272.26,-583.17C2237.97,-636.31 2158.18,-759.96 2119.42,-820.03"/>
<polygon fill="black" stroke="black" points="2116.27,-818.46 2113.78,-828.76 2122.15,-822.26 2116.27,-818.46"/>
<text text-anchor="start" x="2183" y="-717.8" font-family="arial" font-size="14.00" fill="#377eb8">true</text>
</g>
<!-- ID_51_ct0_st01246&#45;&gt;ID_51_ct0_st0 -->
<g id="edge67" class="edge">
<title>ID_51_ct0_st01246&#45;&gt;ID_51_ct0_st0</title>
<path fill="none" stroke="black" d="M2073.9,-879.16C2041.15,-914.34 1975.19,-974 1904.5,-974 389,-974 389,-974 389,-974 285.64,-974 317.36,-864.16 285,-766 278.66,-746.77 231.11,-464.21 214.34,-363.96"/>
<polygon fill="black" stroke="black" points="217.77,-363.3 212.67,-354.02 210.87,-364.46 217.77,-363.3"/>
<text text-anchor="start" x="1135" y="-977.8" font-family="arial" font-size="14.00" fill="#377eb8">R&#39;</text>
</g>
<!-- ID_51_ct0_st01246&#45;&gt;ID_51_ct0_st01 -->
<g id="edge69" class="edge">
<title>ID_51_ct0_st01246&#45;&gt;ID_51_ct0_st01</title>
<path fill="none" stroke="black" d="M2056.23,-879.05C2018.77,-900.52 1959.98,-928 1904.5,-928 1046,-928 1046,-928 1046,-928 801.19,-928 697.9,-949.45 513,-789 431.42,-718.21 403.7,-585.01 394.85,-521.47"/>
<polygon fill="black" stroke="black" points="398.27,-520.63 393.5,-511.17 391.33,-521.54 398.27,-520.63"/>
<text text-anchor="start" x="1224" y="-931.8" font-family="arial" font-size="14.00" fill="#377eb8">true</text>
</g>
<!-- ID_51_ct0_st01246&#45;&gt;ID_51_ct0_st0246 -->
<g id="edge68" class="edge">
<title>ID_51_ct0_st01246&#45;&gt;ID_51_ct0_st0246</title>
<path fill="none" stroke="black" d="M2124.31,-829C2148.16,-805.76 2182.88,-769.36 2207,-733 2237.06,-687.69 2261.75,-629.52 2275.81,-592.99"/>
<polygon fill="black" stroke="black" points="2279.21,-593.88 2279.49,-583.29 2272.67,-591.4 2279.21,-593.88"/>
<text text-anchor="start" x="2183" y="-768.8" font-family="arial" font-size="14.00" fill="#377eb8">true</text>
</g>
<!-- ID_51_ct0_st01246&#45;&gt;ID_51_ct0_st01246 -->
<g id="edge70" class="edge">
<title>ID_51_ct0_st01246&#45;&gt;ID_51_ct0_st01246</title>
<path fill="none" stroke="black" d="M2078.2,-879.18C2077.38,-888.91 2083.48,-897 2096.5,-897 2104.63,-897 2110.07,-893.84 2112.8,-889.09"/>
<polygon fill="black" stroke="black" points="2116.26,-889.67 2114.8,-879.18 2109.39,-888.29 2116.26,-889.67"/>
<text text-anchor="start" x="2084.5" y="-900.8" font-family="arial" font-size="14.00" fill="#377eb8">true</text>
</g>
</g>
</svg>
