<?xml version="1.0" encoding="UTF-8" standalone="no"?>
<!DOCTYPE svg PUBLIC "-//W3C//DTD SVG 1.1//EN"
 "http://www.w3.org/Graphics/SVG/1.1/DTD/svg11.dtd">
<!-- Generated by graphviz version 2.43.0 (0)
 -->
<!-- Title: G Pages: 1 -->
<svg width="1447pt" height="352pt"
 viewBox="0.00 0.00 1447.00 352.00" xmlns="http://www.w3.org/2000/svg" xmlns:xlink="http://www.w3.org/1999/xlink">
<g id="graph0" class="graph" transform="scale(1 1) rotate(0) translate(4 348)">
<title>G</title>
<polygon fill="white" stroke="transparent" points="-4,4 -4,-348 1443,-348 1443,4 -4,4"/>
<!-- _ID_77_ct0_st -->
<!-- ID_77_ct0_st -->
<g id="node2" class="node">
<title>ID_77_ct0_st</title>
<polygon fill="none" stroke="black" points="1439,-237 1340,-237 1340,-187 1439,-187 1439,-237"/>
<text text-anchor="start" x="1348" y="-222.8" font-family="arial" font-weight="bold" font-size="14.00">ID_77_ct0_st</text>
<text text-anchor="start" x="1377.5" y="-208.8" font-family="arial" font-size="14.00" fill="#984ea3">true</text>
<text text-anchor="start" x="1377.5" y="-194.8" font-family="arial" font-size="14.00" fill="#ff7f00">true</text>
</g>
<!-- _ID_77_ct0_st&#45;&gt;ID_77_ct0_st -->
<g id="edge1" class="edge">
<title>_ID_77_ct0_st&#45;&gt;ID_77_ct0_st</title>
<path fill="none" stroke="black" d="M1074.75,-331.86C1137.13,-336.55 1243.82,-336.52 1322,-294 1342.02,-283.11 1358.28,-263.46 1369.71,-246.12"/>
<polygon fill="black" stroke="black" points="1372.88,-247.66 1375.24,-237.33 1366.95,-243.93 1372.88,-247.66"/>
</g>
<!-- ID_77_ct0_st&#45;&gt;ID_77_ct0_st -->
<g id="edge4" class="edge">
<title>ID_77_ct0_st&#45;&gt;ID_77_ct0_st</title>
<path fill="none" stroke="black" d="M1358.12,-237.18C1356.73,-246.91 1367.19,-255 1389.5,-255 1403.79,-255 1413.22,-251.68 1417.79,-246.73"/>
<polygon fill="black" stroke="black" points="1421.13,-247.77 1420.88,-237.18 1414.47,-245.61 1421.13,-247.77"/>
<text text-anchor="start" x="1377.5" y="-258.8" font-family="arial" font-size="14.00" fill="#377eb8">true</text>
</g>
<!-- _ID_77_ct0_st0 -->
<!-- ID_77_ct0_st0 -->
<g id="node4" class="node">
<title>ID_77_ct0_st0</title>
<polygon fill="none" stroke="black" points="261,-50 154,-50 154,0 261,0 261,-50"/>
<text text-anchor="start" x="162" y="-35.8" font-family="arial" font-weight="bold" font-size="14.00">ID_77_ct0_st0</text>
<text text-anchor="start" x="178" y="-21.8" font-family="arial" font-size="14.00" fill="#984ea3">(!Q &amp;&amp; S)</text>
<text text-anchor="start" x="195.5" y="-7.8" font-family="arial" font-size="14.00" fill="#ff7f00">true</text>
</g>
<!-- _ID_77_ct0_st0&#45;&gt;ID_77_ct0_st0 -->
<g id="edge2" class="edge">
<title>_ID_77_ct0_st0&#45;&gt;ID_77_ct0_st0</title>
<path fill="none" stroke="black" d="M111.08,-25C121.62,-25 132.74,-25 143.52,-25"/>
<polygon fill="black" stroke="black" points="143.72,-28.5 153.72,-25 143.72,-21.5 143.72,-28.5"/>
</g>
<!-- ID_77_ct0_st0&#45;&gt;ID_77_ct0_st -->
<g id="edge5" class="edge">
<title>ID_77_ct0_st0&#45;&gt;ID_77_ct0_st</title>
<path fill="none" stroke="black" d="M261.13,-19.95C295.73,-17.06 342.02,-14 383,-14 383,-14 383,-14 1023.5,-14 1160.85,-14 1213.47,-9.82 1322,-94 1349.19,-115.09 1367.02,-150.61 1377.31,-177.19"/>
<polygon fill="black" stroke="black" points="1374.14,-178.71 1380.89,-186.88 1380.71,-176.29 1374.14,-178.71"/>
<text text-anchor="start" x="652.5" y="-17.8" font-family="arial" font-size="14.00" fill="#377eb8">Q&#39;</text>
</g>
<!-- ID_77_ct0_st0&#45;&gt;ID_77_ct0_st0 -->
<g id="edge6" class="edge">
<title>ID_77_ct0_st0&#45;&gt;ID_77_ct0_st0</title>
<path fill="none" stroke="black" d="M192.93,-50.18C192.28,-59.91 197.14,-68 207.5,-68 213.97,-68 218.3,-64.84 220.47,-60.09"/>
<polygon fill="black" stroke="black" points="223.94,-60.6 222.07,-50.18 217.03,-59.49 223.94,-60.6"/>
<text text-anchor="start" x="195.5" y="-71.8" font-family="arial" font-size="14.00" fill="#377eb8">true</text>
</g>
<!-- ID_77_ct0_st01 -->
<g id="node6" class="node">
<title>ID_77_ct0_st01</title>
<polygon fill="none" stroke="black" points="441,-147 327,-147 327,-97 441,-97 441,-147"/>
<text text-anchor="start" x="335" y="-132.8" font-family="arial" font-weight="bold" font-size="14.00">ID_77_ct0_st01</text>
<text text-anchor="start" x="352.5" y="-118.8" font-family="arial" font-size="14.00" fill="#984ea3">(!Q &amp;&amp; !S)</text>
<text text-anchor="start" x="372" y="-104.8" font-family="arial" font-size="14.00" fill="#ff7f00">true</text>
</g>
<!-- ID_77_ct0_st0&#45;&gt;ID_77_ct0_st01 -->
<g id="edge7" class="edge">
<title>ID_77_ct0_st0&#45;&gt;ID_77_ct0_st01</title>
<path fill="none" stroke="black" d="M253.89,-50.23C276.82,-62.97 304.79,-78.53 328.83,-91.89"/>
<polygon fill="black" stroke="black" points="327.39,-95.09 337.83,-96.89 330.8,-88.98 327.39,-95.09"/>
<text text-anchor="start" x="285" y="-82.8" font-family="arial" font-size="14.00" fill="#377eb8">true</text>
</g>
<!-- _ID_77_ct0_st01 -->
<!-- _ID_77_ct0_st01&#45;&gt;ID_77_ct0_st01 -->
<g id="edge3" class="edge">
<title>_ID_77_ct0_st01&#45;&gt;ID_77_ct0_st01</title>
<path fill="none" stroke="black" d="M267.09,-122C283.08,-122 300.51,-122 316.89,-122"/>
<polygon fill="black" stroke="black" points="316.93,-125.5 326.93,-122 316.93,-118.5 316.93,-125.5"/>
</g>
<!-- ID_77_ct0_st01&#45;&gt;ID_77_ct0_st -->
<g id="edge8" class="edge">
<title>ID_77_ct0_st01&#45;&gt;ID_77_ct0_st</title>
<path fill="none" stroke="black" d="M397.91,-147.04C422.89,-191.59 482.37,-280 561,-280 561,-280 561,-280 1023.5,-280 1157.35,-280 1192.85,-275.17 1322,-240 1324.78,-239.24 1327.59,-238.4 1330.41,-237.49"/>
<polygon fill="black" stroke="black" points="1331.7,-240.74 1339.99,-234.15 1329.4,-234.13 1331.7,-240.74"/>
<text text-anchor="start" x="751" y="-283.8" font-family="arial" font-size="14.00" fill="#377eb8">Q&#39;</text>
</g>
<!-- ID_77_ct0_st01&#45;&gt;ID_77_ct0_st01 -->
<g id="edge10" class="edge">
<title>ID_77_ct0_st01&#45;&gt;ID_77_ct0_st01</title>
<path fill="none" stroke="black" d="M367.94,-147.18C367.22,-156.91 372.58,-165 384,-165 391.14,-165 395.91,-161.84 398.31,-157.09"/>
<polygon fill="black" stroke="black" points="401.76,-157.63 400.06,-147.18 394.87,-156.41 401.76,-157.63"/>
<text text-anchor="start" x="372" y="-168.8" font-family="arial" font-size="14.00" fill="#377eb8">true</text>
</g>
<!-- ID_77_ct0_st023 -->
<g id="node7" class="node">
<title>ID_77_ct0_st023</title>
<polygon fill="none" stroke="black" points="623,-156 501,-156 501,-106 623,-106 623,-156"/>
<text text-anchor="start" x="509" y="-141.8" font-family="arial" font-weight="bold" font-size="14.00">ID_77_ct0_st023</text>
<text text-anchor="start" x="510.5" y="-127.8" font-family="arial" font-size="14.00" fill="#984ea3">(!Q &amp;&amp; (R &amp;&amp; S))</text>
<text text-anchor="start" x="550" y="-113.8" font-family="arial" font-size="14.00" fill="#ff7f00">true</text>
</g>
<!-- ID_77_ct0_st01&#45;&gt;ID_77_ct0_st023 -->
<g id="edge9" class="edge">
<title>ID_77_ct0_st01&#45;&gt;ID_77_ct0_st023</title>
<path fill="none" stroke="black" d="M441.17,-124.87C456.92,-125.68 474.23,-126.56 490.69,-127.4"/>
<polygon fill="black" stroke="black" points="490.64,-130.91 500.8,-127.92 490.99,-123.92 490.64,-130.91"/>
<text text-anchor="start" x="459" y="-129.8" font-family="arial" font-size="14.00" fill="#377eb8">true</text>
</g>
<!-- ID_77_ct0_st023&#45;&gt;ID_77_ct0_st -->
<g id="edge18" class="edge">
<title>ID_77_ct0_st023&#45;&gt;ID_77_ct0_st</title>
<path fill="none" stroke="black" d="M607.13,-156.11C632.59,-169.39 665.67,-184.62 697,-193 924.16,-253.74 1208.34,-232.68 1329.44,-219.42"/>
<polygon fill="black" stroke="black" points="1330.06,-222.87 1339.61,-218.28 1329.28,-215.92 1330.06,-222.87"/>
<text text-anchor="start" x="850.5" y="-231.8" font-family="arial" font-size="14.00" fill="#377eb8">(Q&#39; &amp;&amp; R&#39;)</text>
</g>
<!-- ID_77_ct0_st023&#45;&gt;ID_77_ct0_st023 -->
<g id="edge20" class="edge">
<title>ID_77_ct0_st023&#45;&gt;ID_77_ct0_st023</title>
<path fill="none" stroke="black" d="M545.19,-156.18C544.44,-165.91 550.05,-174 562,-174 569.47,-174 574.46,-170.84 576.97,-166.09"/>
<polygon fill="black" stroke="black" points="580.43,-166.65 578.81,-156.18 573.54,-165.37 580.43,-166.65"/>
<text text-anchor="start" x="550" y="-177.8" font-family="arial" font-size="14.00" fill="#377eb8">true</text>
</g>
<!-- ID_77_ct0_st3 -->
<g id="node8" class="node">
<title>ID_77_ct0_st3</title>
<polygon fill="none" stroke="black" points="1102,-173 943,-173 943,-123 1102,-123 1102,-173"/>
<text text-anchor="start" x="977" y="-158.8" font-family="arial" font-weight="bold" font-size="14.00">ID_77_ct0_st3</text>
<text text-anchor="start" x="951" y="-144.8" font-family="arial" font-size="14.00" fill="#984ea3">((Q &amp;&amp; !R) || (!Q &amp;&amp; R))</text>
<text text-anchor="start" x="999.5" y="-130.8" font-family="arial" font-size="14.00" fill="#ff7f00">c0 &lt;= 5</text>
</g>
<!-- ID_77_ct0_st023&#45;&gt;ID_77_ct0_st3 -->
<g id="edge19" class="edge">
<title>ID_77_ct0_st023&#45;&gt;ID_77_ct0_st3</title>
<path fill="none" stroke="black" d="M623.18,-148.02C629.16,-149.23 635.17,-150.27 641,-151 740.26,-163.52 855.25,-160.18 932.61,-155.36"/>
<polygon fill="black" stroke="black" points="933.05,-158.84 942.8,-154.7 932.6,-151.85 933.05,-158.84"/>
<text text-anchor="start" x="751" y="-177.8" font-family="arial" font-size="14.00" fill="#377eb8">Q&#39;</text>
<text text-anchor="start" x="739.5" y="-162.8" font-family="arial" font-size="14.00">c0 :=0</text>
</g>
<!-- ID_77_ct0_st013 -->
<g id="node9" class="node">
<title>ID_77_ct0_st013</title>
<polygon fill="none" stroke="black" points="820,-107 697,-107 697,-57 820,-57 820,-107"/>
<text text-anchor="start" x="705.5" y="-92.8" font-family="arial" font-weight="bold" font-size="14.00">ID_77_ct0_st013</text>
<text text-anchor="start" x="705" y="-78.8" font-family="arial" font-size="14.00" fill="#984ea3">(!Q &amp;&amp; (R &amp;&amp; !S))</text>
<text text-anchor="start" x="735.5" y="-64.8" font-family="arial" font-size="14.00" fill="#ff7f00">c0 &lt;= 5</text>
</g>
<!-- ID_77_ct0_st023&#45;&gt;ID_77_ct0_st013 -->
<g id="edge21" class="edge">
<title>ID_77_ct0_st023&#45;&gt;ID_77_ct0_st013</title>
<path fill="none" stroke="black" d="M623.28,-121.27C641.32,-117.9 661.07,-113.76 679,-109 681.74,-108.27 684.53,-107.5 687.33,-106.69"/>
<polygon fill="black" stroke="black" points="688.34,-110.04 696.91,-103.8 686.33,-103.33 688.34,-110.04"/>
<text text-anchor="start" x="648" y="-135.8" font-family="arial" font-size="14.00" fill="#377eb8">true</text>
<text text-anchor="start" x="641" y="-120.8" font-family="arial" font-size="14.00">c0 :=0</text>
</g>
<!-- ID_77_ct0_st3&#45;&gt;ID_77_ct0_st -->
<g id="edge11" class="edge">
<title>ID_77_ct0_st3&#45;&gt;ID_77_ct0_st</title>
<path fill="none" stroke="black" d="M1102.25,-161.81C1170.64,-173.8 1268.14,-190.9 1329.85,-201.72"/>
<polygon fill="black" stroke="black" points="1329.36,-205.18 1339.82,-203.46 1330.57,-198.29 1329.36,-205.18"/>
<text text-anchor="start" x="1120" y="-202.8" font-family="arial" font-size="14.00" fill="#377eb8">((Q&#39; &amp;&amp; (R&#39; || c0 &gt;= 5)) || c0 &gt;= 5)</text>
</g>
<!-- ID_77_ct0_st3&#45;&gt;ID_77_ct0_st3 -->
<g id="edge12" class="edge">
<title>ID_77_ct0_st3&#45;&gt;ID_77_ct0_st3</title>
<path fill="none" stroke="black" d="M996.35,-173.18C995.19,-182.91 1003.91,-191 1022.5,-191 1034.12,-191 1041.88,-187.84 1045.79,-183.09"/>
<polygon fill="black" stroke="black" points="1049.24,-183.75 1048.65,-173.18 1042.51,-181.81 1049.24,-183.75"/>
<text text-anchor="start" x="1003.5" y="-194.8" font-family="arial" font-size="14.00" fill="#377eb8">c0 &lt; 5</text>
</g>
<!-- ID_77_ct0_st013&#45;&gt;ID_77_ct0_st -->
<g id="edge13" class="edge">
<title>ID_77_ct0_st013&#45;&gt;ID_77_ct0_st</title>
<path fill="none" stroke="black" d="M820.25,-78.26C927.58,-74.23 1155.14,-77.4 1322,-161 1332.56,-166.29 1343.12,-173.36 1352.6,-180.54"/>
<polygon fill="black" stroke="black" points="1350.61,-183.43 1360.64,-186.84 1354.93,-177.92 1350.61,-183.43"/>
<text text-anchor="start" x="956.5" y="-97.8" font-family="arial" font-size="14.00" fill="#377eb8">(Q&#39; &amp;&amp; (R&#39; || c0 &gt;= 5))</text>
</g>
<!-- ID_77_ct0_st013&#45;&gt;ID_77_ct0_st01 -->
<g id="edge16" class="edge">
<title>ID_77_ct0_st013&#45;&gt;ID_77_ct0_st01</title>
<path fill="none" stroke="black" d="M696.91,-76.39C644.64,-72.88 567.32,-70.89 501,-82 484.47,-84.77 467.15,-89.61 451.08,-95"/>
<polygon fill="black" stroke="black" points="449.55,-91.82 441.25,-98.41 451.84,-98.44 449.55,-91.82"/>
<text text-anchor="start" x="519.5" y="-85.8" font-family="arial" font-size="14.00" fill="#377eb8">(Q&#39; || c0 &gt;= 5)</text>
</g>
<!-- ID_77_ct0_st013&#45;&gt;ID_77_ct0_st023 -->
<g id="edge15" class="edge">
<title>ID_77_ct0_st013&#45;&gt;ID_77_ct0_st023</title>
<path fill="none" stroke="black" d="M696.9,-84.32C678.69,-86.06 658.82,-89.02 641,-94 633.59,-96.07 626.02,-98.8 618.64,-101.84"/>
<polygon fill="black" stroke="black" points="617.22,-98.64 609.44,-105.83 620,-105.07 617.22,-98.64"/>
<text text-anchor="start" x="648" y="-97.8" font-family="arial" font-size="14.00" fill="#377eb8">true</text>
</g>
<!-- ID_77_ct0_st013&#45;&gt;ID_77_ct0_st3 -->
<g id="edge14" class="edge">
<title>ID_77_ct0_st013&#45;&gt;ID_77_ct0_st3</title>
<path fill="none" stroke="black" d="M820.27,-97.31C853.71,-105.73 895.82,-116.34 932.87,-125.67"/>
<polygon fill="black" stroke="black" points="932.12,-129.09 942.67,-128.14 933.83,-122.31 932.12,-129.09"/>
<text text-anchor="start" x="838" y="-125.8" font-family="arial" font-size="14.00" fill="#377eb8">(Q&#39; &amp;&amp; c0 &lt; 5)</text>
</g>
<!-- ID_77_ct0_st013&#45;&gt;ID_77_ct0_st013 -->
<g id="edge17" class="edge">
<title>ID_77_ct0_st013&#45;&gt;ID_77_ct0_st013</title>
<path fill="none" stroke="black" d="M740.2,-107.18C739.38,-116.91 745.48,-125 758.5,-125 766.63,-125 772.07,-121.84 774.8,-117.09"/>
<polygon fill="black" stroke="black" points="778.26,-117.67 776.8,-107.18 771.39,-116.29 778.26,-117.67"/>
<text text-anchor="start" x="739.5" y="-128.8" font-family="arial" font-size="14.00" fill="#377eb8">c0 &lt; 5</text>
</g>
</g>
</svg>
