<?xml version="1.0" encoding="UTF-8" standalone="no"?>
<!DOCTYPE svg PUBLIC "-//W3C//DTD SVG 1.1//EN"
 "http://www.w3.org/Graphics/SVG/1.1/DTD/svg11.dtd">
<!-- Generated by graphviz version 2.43.0 (0)
 -->
<!-- Title: G Pages: 1 -->
<svg width="2446pt" height="997pt"
 viewBox="0.00 0.00 2446.00 997.00" xmlns="http://www.w3.org/2000/svg" xmlns:xlink="http://www.w3.org/1999/xlink">
<g id="graph0" class="graph" transform="scale(1 1) rotate(0) translate(4 993)">
<title>G</title>
<polygon fill="white" stroke="transparent" points="-4,4 -4,-993 2442,-993 2442,4 -4,4"/>
<!-- _ID_116_ct0_st0 -->
<!-- ID_116_ct0_st0 -->
<g id="node2" class="node">
<title>ID_116_ct0_st0</title>
<polygon fill="none" stroke="black" points="276,-354 162,-354 162,-304 276,-304 276,-354"/>
<text text-anchor="start" x="170" y="-339.8" font-family="arial" font-weight="bold" font-size="14.00">ID_116_ct0_st0</text>
<text text-anchor="start" x="211" y="-325.8" font-family="arial" font-size="14.00" fill="#984ea3">!Q</text>
<text text-anchor="start" x="207" y="-311.8" font-family="arial" font-size="14.00" fill="#ff7f00">true</text>
</g>
<!-- _ID_116_ct0_st0&#45;&gt;ID_116_ct0_st0 -->
<g id="edge1" class="edge">
<title>_ID_116_ct0_st0&#45;&gt;ID_116_ct0_st0</title>
<path fill="none" stroke="black" d="M119.15,-329C129.75,-329 140.88,-329 151.68,-329"/>
<polygon fill="black" stroke="black" points="151.92,-332.5 161.92,-329 151.92,-325.5 151.92,-332.5"/>
</g>
<!-- ID_116_ct0_st0&#45;&gt;ID_116_ct0_st0 -->
<g id="edge5" class="edge">
<title>ID_116_ct0_st0&#45;&gt;ID_116_ct0_st0</title>
<path fill="none" stroke="black" d="M204.06,-354.18C203.39,-363.91 208.38,-372 219,-372 225.64,-372 230.08,-368.84 232.31,-364.09"/>
<polygon fill="black" stroke="black" points="235.77,-364.61 233.94,-354.18 228.86,-363.47 235.77,-364.61"/>
<text text-anchor="start" x="207" y="-375.8" font-family="arial" font-size="14.00" fill="#377eb8">true</text>
</g>
<!-- ID_116_ct0_st01 -->
<g id="node4" class="node">
<title>ID_116_ct0_st01</title>
<polygon fill="none" stroke="black" points="470,-511 348,-511 348,-461 470,-461 470,-511"/>
<text text-anchor="start" x="356" y="-496.8" font-family="arial" font-weight="bold" font-size="14.00">ID_116_ct0_st01</text>
<text text-anchor="start" x="381" y="-482.8" font-family="arial" font-size="14.00" fill="#984ea3">(Q &amp;&amp; R)</text>
<text text-anchor="start" x="397" y="-468.8" font-family="arial" font-size="14.00" fill="#ff7f00">true</text>
</g>
<!-- ID_116_ct0_st0&#45;&gt;ID_116_ct0_st01 -->
<g id="edge6" class="edge">
<title>ID_116_ct0_st0&#45;&gt;ID_116_ct0_st01</title>
<path fill="none" stroke="black" d="M240.22,-354.21C255.56,-372.49 277.74,-397.2 300,-416 316.95,-430.31 336.99,-444.04 355.18,-455.5"/>
<polygon fill="black" stroke="black" points="353.59,-458.64 363.93,-460.93 357.28,-452.69 353.59,-458.64"/>
<text text-anchor="start" x="300" y="-436.8" font-family="arial" font-size="14.00" fill="#377eb8">true</text>
</g>
<!-- ID_116_ct0_st012 -->
<g id="node6" class="node">
<title>ID_116_ct0_st012</title>
<polygon fill="none" stroke="black" points="665,-209 536,-209 536,-159 665,-159 665,-209"/>
<text text-anchor="start" x="544" y="-194.8" font-family="arial" font-weight="bold" font-size="14.00">ID_116_ct0_st012</text>
<text text-anchor="start" x="547" y="-180.8" font-family="arial" font-size="14.00" fill="#984ea3">(Q &amp;&amp; (!R &amp;&amp; !S))</text>
<text text-anchor="start" x="588.5" y="-166.8" font-family="arial" font-size="14.00" fill="#ff7f00">true</text>
</g>
<!-- ID_116_ct0_st0&#45;&gt;ID_116_ct0_st012 -->
<g id="edge7" class="edge">
<title>ID_116_ct0_st0&#45;&gt;ID_116_ct0_st012</title>
<path fill="none" stroke="black" d="M241.47,-303.68C263.9,-279.07 301.4,-242.74 342,-224 400.08,-197.2 472.55,-187.8 525.8,-184.76"/>
<polygon fill="black" stroke="black" points="526.04,-188.25 535.85,-184.24 525.68,-181.26 526.04,-188.25"/>
<text text-anchor="start" x="397" y="-227.8" font-family="arial" font-size="14.00" fill="#377eb8">true</text>
</g>
<!-- ID_116_ct0_st0123 -->
<g id="node8" class="node">
<title>ID_116_ct0_st0123</title>
<polygon fill="none" stroke="black" points="1250,-597 1113,-597 1113,-547 1250,-547 1250,-597"/>
<text text-anchor="start" x="1121" y="-582.8" font-family="arial" font-weight="bold" font-size="14.00">ID_116_ct0_st0123</text>
<text text-anchor="start" x="1130" y="-568.8" font-family="arial" font-size="14.00" fill="#984ea3">(Q &amp;&amp; (!R &amp;&amp; S))</text>
<text text-anchor="start" x="1169.5" y="-554.8" font-family="arial" font-size="14.00" fill="#ff7f00">true</text>
</g>
<!-- ID_116_ct0_st0&#45;&gt;ID_116_ct0_st0123 -->
<g id="edge8" class="edge">
<title>ID_116_ct0_st0&#45;&gt;ID_116_ct0_st0123</title>
<path fill="none" stroke="black" d="M222.38,-354.07C229.81,-427.31 254.82,-638.9 300,-689 333.89,-726.57 357.4,-725 408,-725 408,-725 408,-725 983.5,-725 1034.19,-725 1053.13,-729.57 1095,-701 1129.05,-677.77 1152.99,-636.06 1166.71,-606.36"/>
<polygon fill="black" stroke="black" points="1169.93,-607.74 1170.81,-597.18 1163.54,-604.88 1169.93,-607.74"/>
<text text-anchor="start" x="683" y="-728.8" font-family="arial" font-size="14.00" fill="#377eb8">true</text>
</g>
<!-- _ID_116_ct0_st01 -->
<!-- _ID_116_ct0_st01&#45;&gt;ID_116_ct0_st01 -->
<g id="edge2" class="edge">
<title>_ID_116_ct0_st01&#45;&gt;ID_116_ct0_st01</title>
<path fill="none" stroke="black" d="M236.03,-681.75C267.84,-645.54 339.34,-564.16 379.4,-518.55"/>
<polygon fill="black" stroke="black" points="382.06,-520.83 386.03,-511.01 376.8,-516.21 382.06,-520.83"/>
</g>
<!-- ID_116_ct0_st01&#45;&gt;ID_116_ct0_st0 -->
<g id="edge9" class="edge">
<title>ID_116_ct0_st01&#45;&gt;ID_116_ct0_st0</title>
<path fill="none" stroke="black" d="M386.97,-460.68C370.78,-441.98 347.3,-416.5 324,-397 308.01,-383.62 289.27,-370.65 272.13,-359.69"/>
<polygon fill="black" stroke="black" points="273.67,-356.52 263.34,-354.15 269.94,-362.44 273.67,-356.52"/>
<text text-anchor="start" x="305.5" y="-400.8" font-family="arial" font-size="14.00" fill="#377eb8">R&#39;</text>
</g>
<!-- ID_116_ct0_st01&#45;&gt;ID_116_ct0_st01 -->
<g id="edge12" class="edge">
<title>ID_116_ct0_st01&#45;&gt;ID_116_ct0_st01</title>
<path fill="none" stroke="black" d="M391.07,-511.18C390.27,-520.91 396.25,-529 409,-529 416.97,-529 422.29,-525.84 424.97,-521.09"/>
<polygon fill="black" stroke="black" points="428.42,-521.66 426.93,-511.18 421.56,-520.31 428.42,-521.66"/>
<text text-anchor="start" x="397" y="-532.8" font-family="arial" font-size="14.00" fill="#377eb8">true</text>
</g>
<!-- ID_116_ct0_st01&#45;&gt;ID_116_ct0_st012 -->
<g id="edge13" class="edge">
<title>ID_116_ct0_st01&#45;&gt;ID_116_ct0_st012</title>
<path fill="none" stroke="black" d="M419.93,-460.94C433.72,-427.79 460.78,-368.39 494,-324 502.85,-312.17 508.4,-312.23 518,-301 540.64,-274.53 563.02,-241.81 578.58,-217.7"/>
<polygon fill="black" stroke="black" points="581.55,-219.55 583.99,-209.24 575.65,-215.78 581.55,-219.55"/>
<text text-anchor="start" x="494" y="-327.8" font-family="arial" font-size="14.00" fill="#377eb8">true</text>
</g>
<!-- ID_116_ct0_st01&#45;&gt;ID_116_ct0_st0123 -->
<g id="edge14" class="edge">
<title>ID_116_ct0_st01&#45;&gt;ID_116_ct0_st0123</title>
<path fill="none" stroke="black" d="M418.1,-511.02C429.54,-541.67 453.65,-592.22 494,-614 560.88,-650.1 589,-614.41 665,-614 748.11,-613.56 769.06,-617.48 852,-612 938.15,-606.31 1036.37,-593.52 1102.79,-583.92"/>
<polygon fill="black" stroke="black" points="1103.37,-587.37 1112.76,-582.47 1102.36,-580.45 1103.37,-587.37"/>
<text text-anchor="start" x="776.5" y="-617.8" font-family="arial" font-size="14.00" fill="#377eb8">true</text>
</g>
<!-- ID_116_ct0_st02 -->
<g id="node9" class="node">
<title>ID_116_ct0_st02</title>
<polygon fill="none" stroke="black" points="852,-318 725,-318 725,-268 852,-268 852,-318"/>
<text text-anchor="start" x="735.5" y="-303.8" font-family="arial" font-weight="bold" font-size="14.00">ID_116_ct0_st02</text>
<text text-anchor="start" x="733" y="-289.8" font-family="arial" font-size="14.00" fill="#984ea3">(!Q &amp;&amp; (!R &amp;&amp; !S))</text>
<text text-anchor="start" x="776.5" y="-275.8" font-family="arial" font-size="14.00" fill="#ff7f00">true</text>
</g>
<!-- ID_116_ct0_st01&#45;&gt;ID_116_ct0_st02 -->
<g id="edge10" class="edge">
<title>ID_116_ct0_st01&#45;&gt;ID_116_ct0_st02</title>
<path fill="none" stroke="black" d="M428.12,-460.74C443.62,-440.74 467.57,-413.37 494,-396 510.56,-385.11 517.16,-387.17 536,-381 611.37,-356.32 632.79,-357.96 707,-330 713.29,-327.63 719.77,-324.99 726.2,-322.25"/>
<polygon fill="black" stroke="black" points="727.79,-325.37 735.56,-318.17 724.99,-318.96 727.79,-325.37"/>
<text text-anchor="start" x="588.5" y="-384.8" font-family="arial" font-size="14.00" fill="#377eb8">true</text>
</g>
<!-- ID_116_ct0_st023 -->
<g id="node10" class="node">
<title>ID_116_ct0_st023</title>
<polygon fill="none" stroke="black" points="1047,-318 918,-318 918,-268 1047,-268 1047,-318"/>
<text text-anchor="start" x="926" y="-303.8" font-family="arial" font-weight="bold" font-size="14.00">ID_116_ct0_st023</text>
<text text-anchor="start" x="929" y="-289.8" font-family="arial" font-size="14.00" fill="#984ea3">(!Q &amp;&amp; (!R &amp;&amp; S))</text>
<text text-anchor="start" x="970.5" y="-275.8" font-family="arial" font-size="14.00" fill="#ff7f00">true</text>
</g>
<!-- ID_116_ct0_st01&#45;&gt;ID_116_ct0_st023 -->
<g id="edge11" class="edge">
<title>ID_116_ct0_st01&#45;&gt;ID_116_ct0_st023</title>
<path fill="none" stroke="black" d="M444.51,-460.83C459.15,-451.18 476.79,-440.85 494,-434 569.47,-403.94 775.43,-387.14 852,-360 879.17,-350.37 907.8,-336.05 931.2,-323.12"/>
<polygon fill="black" stroke="black" points="933.22,-326 940.23,-318.05 929.8,-319.89 933.22,-326"/>
<text text-anchor="start" x="683" y="-396.8" font-family="arial" font-size="14.00" fill="#377eb8">true</text>
</g>
<!-- _ID_116_ct0_st012 -->
<!-- _ID_116_ct0_st012&#45;&gt;ID_116_ct0_st012 -->
<g id="edge3" class="edge">
<title>_ID_116_ct0_st012&#45;&gt;ID_116_ct0_st012</title>
<path fill="none" stroke="black" d="M449.21,-247.97C463.29,-241.57 479.32,-234.38 494,-228 505.35,-223.07 517.42,-217.93 529.2,-212.98"/>
<polygon fill="black" stroke="black" points="530.69,-216.15 538.56,-209.05 527.98,-209.69 530.69,-216.15"/>
</g>
<!-- ID_116_ct0_st012&#45;&gt;ID_116_ct0_st0 -->
<g id="edge21" class="edge">
<title>ID_116_ct0_st012&#45;&gt;ID_116_ct0_st0</title>
<path fill="none" stroke="black" d="M535.97,-164.26C481.61,-151.11 402.77,-141.15 342,-171 289.81,-196.64 253.63,-256.54 234.89,-294.78"/>
<polygon fill="black" stroke="black" points="231.63,-293.46 230.5,-304 237.96,-296.47 231.63,-293.46"/>
<text text-anchor="start" x="402.5" y="-174.8" font-family="arial" font-size="14.00" fill="#377eb8">R&#39;</text>
</g>
<!-- ID_116_ct0_st012&#45;&gt;ID_116_ct0_st01 -->
<g id="edge24" class="edge">
<title>ID_116_ct0_st012&#45;&gt;ID_116_ct0_st01</title>
<path fill="none" stroke="black" d="M542.58,-209.05C525.05,-219.05 506.97,-232.04 494,-248 490.66,-252.11 444.54,-385.52 422.09,-450.77"/>
<polygon fill="black" stroke="black" points="418.65,-450.03 418.71,-460.62 425.27,-452.3 418.65,-450.03"/>
<text text-anchor="start" x="494" y="-251.8" font-family="arial" font-size="14.00" fill="#377eb8">true</text>
</g>
<!-- ID_116_ct0_st012&#45;&gt;ID_116_ct0_st012 -->
<g id="edge25" class="edge">
<title>ID_116_ct0_st012&#45;&gt;ID_116_ct0_st012</title>
<path fill="none" stroke="black" d="M582.94,-209.18C582.16,-218.91 588.02,-227 600.5,-227 608.3,-227 613.51,-223.84 616.14,-219.09"/>
<polygon fill="black" stroke="black" points="619.59,-219.66 618.06,-209.18 612.72,-218.33 619.59,-219.66"/>
<text text-anchor="start" x="588.5" y="-230.8" font-family="arial" font-size="14.00" fill="#377eb8">true</text>
</g>
<!-- ID_116_ct0_st012&#45;&gt;ID_116_ct0_st0123 -->
<g id="edge26" class="edge">
<title>ID_116_ct0_st012&#45;&gt;ID_116_ct0_st0123</title>
<path fill="none" stroke="black" d="M665.24,-174.88C761.91,-164.88 945.68,-161.48 1053,-259 1110.75,-311.48 1083.45,-351.78 1113,-424 1129.16,-463.51 1149.77,-507.95 1163.94,-537.73"/>
<polygon fill="black" stroke="black" points="1160.83,-539.35 1168.3,-546.86 1167.15,-536.33 1160.83,-539.35"/>
<text text-anchor="start" x="870" y="-187.8" font-family="arial" font-size="14.00" fill="#377eb8">true</text>
</g>
<!-- ID_116_ct0_st012&#45;&gt;ID_116_ct0_st02 -->
<g id="edge22" class="edge">
<title>ID_116_ct0_st012&#45;&gt;ID_116_ct0_st02</title>
<path fill="none" stroke="black" d="M665,-200.99C679.31,-206.08 694.08,-212.38 707,-220 712.38,-223.17 733.73,-242.6 753.1,-260.61"/>
<polygon fill="black" stroke="black" points="750.96,-263.4 760.66,-267.67 755.74,-258.28 750.96,-263.4"/>
<text text-anchor="start" x="683" y="-223.8" font-family="arial" font-size="14.00" fill="#377eb8">true</text>
</g>
<!-- ID_116_ct0_st012&#45;&gt;ID_116_ct0_st023 -->
<g id="edge23" class="edge">
<title>ID_116_ct0_st012&#45;&gt;ID_116_ct0_st023</title>
<path fill="none" stroke="black" d="M665.21,-196.74C679.02,-199.66 693.52,-202.83 707,-206 771.85,-221.25 788.53,-223.74 852,-244 871,-250.07 891.29,-257.35 910.04,-264.42"/>
<polygon fill="black" stroke="black" points="908.8,-267.7 919.39,-267.98 911.29,-261.15 908.8,-267.7"/>
<text text-anchor="start" x="776.5" y="-247.8" font-family="arial" font-size="14.00" fill="#377eb8">true</text>
</g>
<!-- _ID_116_ct0_st0123 -->
<!-- _ID_116_ct0_st0123&#45;&gt;ID_116_ct0_st0123 -->
<g id="edge4" class="edge">
<title>_ID_116_ct0_st0123&#45;&gt;ID_116_ct0_st0123</title>
<path fill="none" stroke="black" d="M1051.75,-622.92C1066.15,-618.69 1081.16,-613.96 1095,-609 1101.8,-606.56 1108.84,-603.85 1115.81,-601.03"/>
<polygon fill="black" stroke="black" points="1117.35,-604.18 1125.27,-597.14 1114.69,-597.71 1117.35,-604.18"/>
</g>
<!-- ID_116_ct0_st0123&#45;&gt;ID_116_ct0_st0 -->
<g id="edge33" class="edge">
<title>ID_116_ct0_st0123&#45;&gt;ID_116_ct0_st0</title>
<path fill="none" stroke="black" d="M1157.01,-597.33C1133.36,-620.8 1094.52,-654.12 1053,-668 934.96,-707.47 613.48,-667.88 494,-633 420.72,-611.61 396.36,-606.6 342,-553 286.06,-497.85 249.07,-411.58 231.62,-363.8"/>
<polygon fill="black" stroke="black" points="234.86,-362.45 228.2,-354.21 228.27,-364.81 234.86,-362.45"/>
<text text-anchor="start" x="688.5" y="-674.8" font-family="arial" font-size="14.00" fill="#377eb8">R&#39;</text>
</g>
<!-- ID_116_ct0_st0123&#45;&gt;ID_116_ct0_st01 -->
<g id="edge36" class="edge">
<title>ID_116_ct0_st0123&#45;&gt;ID_116_ct0_st01</title>
<path fill="none" stroke="black" d="M1112.74,-575.48C950.61,-583.38 549.61,-600.17 494,-576 467.47,-564.47 445.51,-539.97 430.71,-519.45"/>
<polygon fill="black" stroke="black" points="433.58,-517.45 425,-511.23 427.83,-521.44 433.58,-517.45"/>
<text text-anchor="start" x="776.5" y="-591.8" font-family="arial" font-size="14.00" fill="#377eb8">true</text>
</g>
<!-- ID_116_ct0_st0123&#45;&gt;ID_116_ct0_st0123 -->
<g id="edge38" class="edge">
<title>ID_116_ct0_st0123&#45;&gt;ID_116_ct0_st0123</title>
<path fill="none" stroke="black" d="M1163.2,-597.18C1162.38,-606.91 1168.48,-615 1181.5,-615 1189.63,-615 1195.07,-611.84 1197.8,-607.09"/>
<polygon fill="black" stroke="black" points="1201.26,-607.67 1199.8,-597.18 1194.39,-606.29 1201.26,-607.67"/>
<text text-anchor="start" x="1169.5" y="-618.8" font-family="arial" font-size="14.00" fill="#377eb8">true</text>
</g>
<!-- ID_116_ct0_st0123&#45;&gt;ID_116_ct0_st023 -->
<g id="edge35" class="edge">
<title>ID_116_ct0_st0123&#45;&gt;ID_116_ct0_st023</title>
<path fill="none" stroke="black" d="M1161.7,-546.58C1144.95,-524.4 1119.38,-491.68 1095,-465 1085.03,-454.09 1079.58,-454.03 1071,-442 1059.91,-426.46 1062.12,-419.77 1053,-403 1038.68,-376.66 1020.53,-348.07 1006.37,-326.64"/>
<polygon fill="black" stroke="black" points="1009.22,-324.6 1000.76,-318.21 1003.39,-328.48 1009.22,-324.6"/>
<text text-anchor="start" x="1071" y="-468.8" font-family="arial" font-size="14.00" fill="#377eb8">true</text>
</g>
<!-- ID_116_ct0_st024 -->
<g id="node11" class="node">
<title>ID_116_ct0_st024</title>
<polygon fill="none" stroke="black" points="1636,-492 1507,-492 1507,-442 1636,-442 1636,-492"/>
<text text-anchor="start" x="1515" y="-477.8" font-family="arial" font-weight="bold" font-size="14.00">ID_116_ct0_st024</text>
<text text-anchor="start" x="1516" y="-463.8" font-family="arial" font-size="14.00" fill="#984ea3">(!Q &amp;&amp; (!R &amp;&amp; !S))</text>
<text text-anchor="start" x="1559.5" y="-449.8" font-family="arial" font-size="14.00" fill="#ff7f00">true</text>
</g>
<!-- ID_116_ct0_st0123&#45;&gt;ID_116_ct0_st024 -->
<g id="edge34" class="edge">
<title>ID_116_ct0_st0123&#45;&gt;ID_116_ct0_st024</title>
<path fill="none" stroke="black" d="M1250.12,-567.8C1264.01,-566.56 1278.51,-564.98 1292,-563 1361.68,-552.76 1380.62,-553.54 1447,-530 1471.61,-521.27 1497.55,-508.63 1519.26,-496.95"/>
<polygon fill="black" stroke="black" points="1521.19,-499.88 1528.29,-492.02 1517.84,-493.74 1521.19,-499.88"/>
<text text-anchor="start" x="1366.5" y="-563.8" font-family="arial" font-size="14.00" fill="#377eb8">true</text>
</g>
<!-- ID_116_ct0_st0124 -->
<g id="node12" class="node">
<title>ID_116_ct0_st0124</title>
<polygon fill="none" stroke="black" points="1447,-488 1310,-488 1310,-438 1447,-438 1447,-488"/>
<text text-anchor="start" x="1318" y="-473.8" font-family="arial" font-weight="bold" font-size="14.00">ID_116_ct0_st0124</text>
<text text-anchor="start" x="1325" y="-459.8" font-family="arial" font-size="14.00" fill="#984ea3">(Q &amp;&amp; (!R &amp;&amp; !S))</text>
<text text-anchor="start" x="1366.5" y="-445.8" font-family="arial" font-size="14.00" fill="#ff7f00">true</text>
</g>
<!-- ID_116_ct0_st0123&#45;&gt;ID_116_ct0_st0124 -->
<g id="edge37" class="edge">
<title>ID_116_ct0_st0123&#45;&gt;ID_116_ct0_st0124</title>
<path fill="none" stroke="black" d="M1250.12,-552.03C1264.36,-546.7 1279,-540.34 1292,-533 1310.49,-522.56 1328.98,-508.06 1344.01,-494.96"/>
<polygon fill="black" stroke="black" points="1346.39,-497.53 1351.53,-488.27 1341.73,-492.3 1346.39,-497.53"/>
<text text-anchor="start" x="1268" y="-547.8" font-family="arial" font-size="14.00" fill="#377eb8">true</text>
</g>
<!-- ID_116_ct0_st02&#45;&gt;ID_116_ct0_st0 -->
<g id="edge15" class="edge">
<title>ID_116_ct0_st02&#45;&gt;ID_116_ct0_st0</title>
<path fill="none" stroke="black" d="M724.92,-279.71C664.58,-269.42 571.31,-260.25 494,-282 484.97,-284.54 484.83,-289.84 476,-293 414.11,-315.18 339.23,-323.76 286.49,-327.05"/>
<polygon fill="black" stroke="black" points="286.03,-323.57 276.24,-327.64 286.43,-330.56 286.03,-323.57"/>
<text text-anchor="start" x="499.5" y="-285.8" font-family="arial" font-size="14.00" fill="#377eb8">R&#39;</text>
</g>
<!-- ID_116_ct0_st02&#45;&gt;ID_116_ct0_st01 -->
<g id="edge18" class="edge">
<title>ID_116_ct0_st02&#45;&gt;ID_116_ct0_st01</title>
<path fill="none" stroke="black" d="M724.73,-300.4C651.58,-309.1 540.1,-322.67 536,-325 509,-340.34 460.06,-409.9 431.78,-452.41"/>
<polygon fill="black" stroke="black" points="428.83,-450.52 426.24,-460.79 434.67,-454.38 428.83,-450.52"/>
<text text-anchor="start" x="588.5" y="-328.8" font-family="arial" font-size="14.00" fill="#377eb8">true</text>
</g>
<!-- ID_116_ct0_st02&#45;&gt;ID_116_ct0_st012 -->
<g id="edge19" class="edge">
<title>ID_116_ct0_st02&#45;&gt;ID_116_ct0_st012</title>
<path fill="none" stroke="black" d="M736.09,-267.94C718.97,-259.2 699.95,-249.05 683,-239 670.48,-231.57 657.25,-222.99 645.18,-214.84"/>
<polygon fill="black" stroke="black" points="646.86,-211.75 636.62,-209.01 642.92,-217.54 646.86,-211.75"/>
<text text-anchor="start" x="683" y="-254.8" font-family="arial" font-size="14.00" fill="#377eb8">true</text>
</g>
<!-- ID_116_ct0_st02&#45;&gt;ID_116_ct0_st0123 -->
<g id="edge20" class="edge">
<title>ID_116_ct0_st02&#45;&gt;ID_116_ct0_st0123</title>
<path fill="none" stroke="black" d="M804.77,-318.09C825.62,-350.64 865.72,-407.56 912,-444 969.91,-489.6 1046.72,-524.15 1103.35,-545.79"/>
<polygon fill="black" stroke="black" points="1102.37,-549.16 1112.96,-549.41 1104.84,-542.61 1102.37,-549.16"/>
<text text-anchor="start" x="970.5" y="-527.8" font-family="arial" font-size="14.00" fill="#377eb8">true</text>
</g>
<!-- ID_116_ct0_st02&#45;&gt;ID_116_ct0_st02 -->
<g id="edge16" class="edge">
<title>ID_116_ct0_st02&#45;&gt;ID_116_ct0_st02</title>
<path fill="none" stroke="black" d="M771.32,-318.18C770.55,-327.91 776.28,-336 788.5,-336 796.14,-336 801.24,-332.84 803.8,-328.09"/>
<polygon fill="black" stroke="black" points="807.26,-328.65 805.68,-318.18 800.38,-327.35 807.26,-328.65"/>
<text text-anchor="start" x="776.5" y="-339.8" font-family="arial" font-size="14.00" fill="#377eb8">true</text>
</g>
<!-- ID_116_ct0_st02&#45;&gt;ID_116_ct0_st023 -->
<g id="edge17" class="edge">
<title>ID_116_ct0_st02&#45;&gt;ID_116_ct0_st023</title>
<path fill="none" stroke="black" d="M852.1,-293C869.92,-293 889.5,-293 907.91,-293"/>
<polygon fill="black" stroke="black" points="908,-296.5 918,-293 908,-289.5 908,-296.5"/>
<text text-anchor="start" x="870" y="-296.8" font-family="arial" font-size="14.00" fill="#377eb8">true</text>
</g>
<!-- ID_116_ct0_st023&#45;&gt;ID_116_ct0_st0 -->
<g id="edge27" class="edge">
<title>ID_116_ct0_st023&#45;&gt;ID_116_ct0_st0</title>
<path fill="none" stroke="black" d="M948.12,-267.88C922.68,-249.47 886.29,-224.71 852,-207 772.88,-166.12 752.56,-151.27 665,-135 608.63,-124.52 593.3,-133.08 536,-135 449.63,-137.89 422.91,-117.64 342,-148 279.49,-171.46 245.24,-248.35 229.96,-294.02"/>
<polygon fill="black" stroke="black" points="226.54,-293.22 226.81,-303.81 233.2,-295.36 226.54,-293.22"/>
<text text-anchor="start" x="594" y="-138.8" font-family="arial" font-size="14.00" fill="#377eb8">R&#39;</text>
</g>
<!-- ID_116_ct0_st023&#45;&gt;ID_116_ct0_st01 -->
<g id="edge30" class="edge">
<title>ID_116_ct0_st023&#45;&gt;ID_116_ct0_st01</title>
<path fill="none" stroke="black" d="M955.07,-318.18C930.43,-340.11 891.61,-370.84 852,-387 785.17,-414.26 586.89,-453.33 480.06,-473.26"/>
<polygon fill="black" stroke="black" points="479.21,-469.86 470.02,-475.13 480.49,-476.74 479.21,-469.86"/>
<text text-anchor="start" x="683" y="-435.8" font-family="arial" font-size="14.00" fill="#377eb8">true</text>
</g>
<!-- ID_116_ct0_st023&#45;&gt;ID_116_ct0_st0123 -->
<g id="edge32" class="edge">
<title>ID_116_ct0_st023&#45;&gt;ID_116_ct0_st0123</title>
<path fill="none" stroke="black" d="M1006.64,-318.16C1030.18,-344.36 1067.09,-387.06 1095,-427 1104.13,-440.06 1104.94,-444.26 1113,-458 1128.75,-484.86 1146.71,-515.18 1160.15,-537.8"/>
<polygon fill="black" stroke="black" points="1157.31,-539.87 1165.42,-546.68 1163.32,-536.3 1157.31,-539.87"/>
<text text-anchor="start" x="1071" y="-430.8" font-family="arial" font-size="14.00" fill="#377eb8">true</text>
</g>
<!-- ID_116_ct0_st023&#45;&gt;ID_116_ct0_st023 -->
<g id="edge29" class="edge">
<title>ID_116_ct0_st023&#45;&gt;ID_116_ct0_st023</title>
<path fill="none" stroke="black" d="M963.82,-318.18C962.99,-327.91 969.22,-336 982.5,-336 990.8,-336 996.35,-332.84 999.13,-328.09"/>
<polygon fill="black" stroke="black" points="1002.59,-328.68 1001.18,-318.18 995.73,-327.26 1002.59,-328.68"/>
<text text-anchor="start" x="970.5" y="-339.8" font-family="arial" font-size="14.00" fill="#377eb8">true</text>
</g>
<!-- ID_116_ct0_st023&#45;&gt;ID_116_ct0_st024 -->
<g id="edge28" class="edge">
<title>ID_116_ct0_st023&#45;&gt;ID_116_ct0_st024</title>
<path fill="none" stroke="black" d="M1047.19,-291.08C1147.37,-290.74 1345.14,-301.13 1489,-379 1512.93,-391.95 1533.66,-414.61 1548.23,-433.69"/>
<polygon fill="black" stroke="black" points="1545.52,-435.92 1554.28,-441.88 1551.15,-431.76 1545.52,-435.92"/>
<text text-anchor="start" x="1268" y="-315.8" font-family="arial" font-size="14.00" fill="#377eb8">true</text>
</g>
<!-- ID_116_ct0_st023&#45;&gt;ID_116_ct0_st0124 -->
<g id="edge31" class="edge">
<title>ID_116_ct0_st023&#45;&gt;ID_116_ct0_st0124</title>
<path fill="none" stroke="black" d="M1041.64,-318.08C1113.18,-348.95 1234.42,-401.27 1310.01,-433.88"/>
<polygon fill="black" stroke="black" points="1308.88,-437.2 1319.45,-437.95 1311.65,-430.78 1308.88,-437.2"/>
<text text-anchor="start" x="1169.5" y="-408.8" font-family="arial" font-size="14.00" fill="#377eb8">true</text>
</g>
<!-- ID_116_ct0_st024&#45;&gt;ID_116_ct0_st0 -->
<g id="edge39" class="edge">
<title>ID_116_ct0_st024&#45;&gt;ID_116_ct0_st0</title>
<path fill="none" stroke="black" d="M1541.8,-492.08C1530.2,-503.04 1517.18,-516.47 1507,-530 1436.03,-624.33 1497.55,-763 1379.5,-763 881,-763 881,-763 881,-763 345.12,-763 352.81,-784.29 300,-713 279.14,-684.84 240.1,-453.68 225.61,-364.19"/>
<polygon fill="black" stroke="black" points="229.05,-363.57 224,-354.25 222.14,-364.68 229.05,-363.57"/>
<text text-anchor="start" x="875.5" y="-766.8" font-family="arial" font-size="14.00" fill="#377eb8">R&#39;</text>
</g>
<!-- ID_116_ct0_st024&#45;&gt;ID_116_ct0_st01 -->
<g id="edge42" class="edge">
<title>ID_116_ct0_st024&#45;&gt;ID_116_ct0_st01</title>
<path fill="none" stroke="black" d="M1506.99,-444.97C1487.9,-439.02 1466.77,-433.11 1447,-429 1360.74,-411.08 1337.96,-411.9 1250,-407 1170.57,-402.58 1150.43,-402.52 1071,-407 999.99,-411.01 966.58,-379.4 912,-425 890.64,-442.85 915.78,-467.66 894,-485 814.2,-548.53 766.94,-496.66 665,-500 589.04,-502.49 569.74,-506.27 494,-500 489.57,-499.63 485.02,-499.16 480.45,-498.61"/>
<polygon fill="black" stroke="black" points="480.78,-495.12 470.41,-497.29 479.87,-502.06 480.78,-495.12"/>
<text text-anchor="start" x="970.5" y="-428.8" font-family="arial" font-size="14.00" fill="#377eb8">true</text>
</g>
<!-- ID_116_ct0_st024&#45;&gt;ID_116_ct0_st024 -->
<g id="edge40" class="edge">
<title>ID_116_ct0_st024&#45;&gt;ID_116_ct0_st024</title>
<path fill="none" stroke="black" d="M1553.94,-492.18C1553.16,-501.91 1559.02,-510 1571.5,-510 1579.3,-510 1584.51,-506.84 1587.14,-502.09"/>
<polygon fill="black" stroke="black" points="1590.59,-502.66 1589.06,-492.18 1583.72,-501.33 1590.59,-502.66"/>
<text text-anchor="start" x="1559.5" y="-513.8" font-family="arial" font-size="14.00" fill="#377eb8">true</text>
</g>
<!-- ID_116_ct0_st024&#45;&gt;ID_116_ct0_st0124 -->
<g id="edge43" class="edge">
<title>ID_116_ct0_st024&#45;&gt;ID_116_ct0_st0124</title>
<path fill="none" stroke="black" d="M1506.59,-454.1C1500.66,-453.25 1494.73,-452.52 1489,-452 1478.76,-451.07 1467.99,-451.01 1457.36,-451.51"/>
<polygon fill="black" stroke="black" points="1457,-448.02 1447.24,-452.14 1457.44,-455.01 1457,-448.02"/>
<text text-anchor="start" x="1465" y="-455.8" font-family="arial" font-size="14.00" fill="#377eb8">true</text>
</g>
<!-- ID_116_ct0_st0235 -->
<g id="node13" class="node">
<title>ID_116_ct0_st0235</title>
<polygon fill="none" stroke="black" points="2037,-533 1900,-533 1900,-483 2037,-483 2037,-533"/>
<text text-anchor="start" x="1908" y="-518.8" font-family="arial" font-weight="bold" font-size="14.00">ID_116_ct0_st0235</text>
<text text-anchor="start" x="1915" y="-504.8" font-family="arial" font-size="14.00" fill="#984ea3">(!Q &amp;&amp; (!R &amp;&amp; S))</text>
<text text-anchor="start" x="1956.5" y="-490.8" font-family="arial" font-size="14.00" fill="#ff7f00">true</text>
</g>
<!-- ID_116_ct0_st024&#45;&gt;ID_116_ct0_st0235 -->
<g id="edge41" class="edge">
<title>ID_116_ct0_st024&#45;&gt;ID_116_ct0_st0235</title>
<path fill="none" stroke="black" d="M1636.4,-473.63C1705.43,-480.8 1815.44,-492.22 1889.51,-499.91"/>
<polygon fill="black" stroke="black" points="1889.41,-503.41 1899.72,-500.96 1890.13,-496.45 1889.41,-503.41"/>
<text text-anchor="start" x="1756" y="-497.8" font-family="arial" font-size="14.00" fill="#377eb8">true</text>
</g>
<!-- ID_116_ct0_st01235 -->
<g id="node14" class="node">
<title>ID_116_ct0_st01235</title>
<polygon fill="none" stroke="black" points="1840,-602 1696,-602 1696,-552 1840,-552 1840,-602"/>
<text text-anchor="start" x="1704" y="-587.8" font-family="arial" font-weight="bold" font-size="14.00">ID_116_ct0_st01235</text>
<text text-anchor="start" x="1716.5" y="-573.8" font-family="arial" font-size="14.00" fill="#984ea3">(Q &amp;&amp; (!R &amp;&amp; S))</text>
<text text-anchor="start" x="1756" y="-559.8" font-family="arial" font-size="14.00" fill="#ff7f00">true</text>
</g>
<!-- ID_116_ct0_st024&#45;&gt;ID_116_ct0_st01235 -->
<g id="edge44" class="edge">
<title>ID_116_ct0_st024&#45;&gt;ID_116_ct0_st01235</title>
<path fill="none" stroke="black" d="M1617.12,-492.24C1645.91,-508.52 1683.5,-529.78 1713.83,-546.93"/>
<polygon fill="black" stroke="black" points="1712.16,-550 1722.59,-551.88 1715.6,-543.91 1712.16,-550"/>
<text text-anchor="start" x="1654" y="-528.8" font-family="arial" font-size="14.00" fill="#377eb8">true</text>
</g>
<!-- ID_116_ct0_st0124&#45;&gt;ID_116_ct0_st0 -->
<g id="edge45" class="edge">
<title>ID_116_ct0_st0124&#45;&gt;ID_116_ct0_st0</title>
<path fill="none" stroke="black" d="M1351.02,-437.92C1325.49,-413.93 1285.61,-376.94 1250,-346 1164.43,-271.65 1153.91,-235.64 1053,-184 970.76,-141.91 943.45,-144.1 852,-131 627.62,-98.86 560.24,-66.75 342,-128 270.15,-148.16 238.7,-242.03 226.6,-294.05"/>
<polygon fill="black" stroke="black" points="223.17,-293.35 224.43,-303.87 230,-294.86 223.17,-293.35"/>
<text text-anchor="start" x="782" y="-134.8" font-family="arial" font-size="14.00" fill="#377eb8">R&#39;</text>
</g>
<!-- ID_116_ct0_st0124&#45;&gt;ID_116_ct0_st01 -->
<g id="edge48" class="edge">
<title>ID_116_ct0_st0124&#45;&gt;ID_116_ct0_st01</title>
<path fill="none" stroke="black" d="M1309.93,-473.07C1183.63,-491.23 903,-528.47 665,-538 589.06,-541.04 567.1,-558.8 494,-538 478.44,-533.57 462.94,-525.35 449.57,-516.72"/>
<polygon fill="black" stroke="black" points="451.36,-513.71 441.11,-511.04 447.46,-519.52 451.36,-513.71"/>
<text text-anchor="start" x="870" y="-527.8" font-family="arial" font-size="14.00" fill="#377eb8">true</text>
</g>
<!-- ID_116_ct0_st0124&#45;&gt;ID_116_ct0_st024 -->
<g id="edge46" class="edge">
<title>ID_116_ct0_st0124&#45;&gt;ID_116_ct0_st024</title>
<path fill="none" stroke="black" d="M1447.16,-466.46C1453.19,-466.68 1459.21,-466.86 1465,-467 1475.27,-467.24 1486.1,-467.37 1496.76,-467.44"/>
<polygon fill="black" stroke="black" points="1496.88,-470.94 1506.9,-467.48 1496.91,-463.94 1496.88,-470.94"/>
<text text-anchor="start" x="1465" y="-470.8" font-family="arial" font-size="14.00" fill="#377eb8">true</text>
</g>
<!-- ID_116_ct0_st0124&#45;&gt;ID_116_ct0_st0124 -->
<g id="edge49" class="edge">
<title>ID_116_ct0_st0124&#45;&gt;ID_116_ct0_st0124</title>
<path fill="none" stroke="black" d="M1360.2,-488.18C1359.38,-497.91 1365.48,-506 1378.5,-506 1386.63,-506 1392.07,-502.84 1394.8,-498.09"/>
<polygon fill="black" stroke="black" points="1398.26,-498.67 1396.8,-488.18 1391.39,-497.29 1398.26,-498.67"/>
<text text-anchor="start" x="1366.5" y="-509.8" font-family="arial" font-size="14.00" fill="#377eb8">true</text>
</g>
<!-- ID_116_ct0_st0124&#45;&gt;ID_116_ct0_st0235 -->
<g id="edge47" class="edge">
<title>ID_116_ct0_st0124&#45;&gt;ID_116_ct0_st0235</title>
<path fill="none" stroke="black" d="M1447.14,-444.02C1466.33,-439.48 1487.35,-435.28 1507,-433 1642.47,-417.28 1798.93,-454.68 1890.18,-482.12"/>
<polygon fill="black" stroke="black" points="1889.3,-485.52 1899.89,-485.08 1891.34,-478.82 1889.3,-485.52"/>
<text text-anchor="start" x="1654" y="-438.8" font-family="arial" font-size="14.00" fill="#377eb8">true</text>
</g>
<!-- ID_116_ct0_st0124&#45;&gt;ID_116_ct0_st01235 -->
<g id="edge50" class="edge">
<title>ID_116_ct0_st0124&#45;&gt;ID_116_ct0_st01235</title>
<path fill="none" stroke="black" d="M1416.38,-488.03C1441.02,-503.59 1474.71,-522.72 1507,-534 1564.91,-554.22 1633.47,-565.06 1685.64,-570.79"/>
<polygon fill="black" stroke="black" points="1685.54,-574.3 1695.85,-571.87 1686.27,-567.34 1685.54,-574.3"/>
<text text-anchor="start" x="1559.5" y="-567.8" font-family="arial" font-size="14.00" fill="#377eb8">true</text>
</g>
<!-- ID_116_ct0_st0235&#45;&gt;ID_116_ct0_st0 -->
<g id="edge51" class="edge">
<title>ID_116_ct0_st0235&#45;&gt;ID_116_ct0_st0</title>
<path fill="none" stroke="black" d="M1947.62,-482.76C1884.48,-404.81 1678.99,-167.58 1447,-75 1213.69,18.11 1134.21,-38 883,-38 408,-38 408,-38 408,-38 287.51,-38 240.47,-216.19 225.71,-293.7"/>
<polygon fill="black" stroke="black" points="222.19,-293.47 223.84,-303.94 229.08,-294.73 222.19,-293.47"/>
<text text-anchor="start" x="1076.5" y="-32.8" font-family="arial" font-size="14.00" fill="#377eb8">R&#39;</text>
</g>
<!-- ID_116_ct0_st0235&#45;&gt;ID_116_ct0_st01 -->
<g id="edge54" class="edge">
<title>ID_116_ct0_st0235&#45;&gt;ID_116_ct0_st01</title>
<path fill="none" stroke="black" d="M1955.78,-533.39C1923.16,-600.66 1823.97,-783.08 1678,-853 1550.47,-914.09 1015.11,-881.88 912,-866 736.95,-839.04 668.73,-851.27 536,-734 469.87,-675.57 433.95,-574.21 418.81,-520.96"/>
<polygon fill="black" stroke="black" points="422.17,-520 416.13,-511.29 415.42,-521.86 422.17,-520"/>
<text text-anchor="start" x="1169.5" y="-890.8" font-family="arial" font-size="14.00" fill="#377eb8">true</text>
</g>
<!-- ID_116_ct0_st0235&#45;&gt;ID_116_ct0_st0235 -->
<g id="edge53" class="edge">
<title>ID_116_ct0_st0235&#45;&gt;ID_116_ct0_st0235</title>
<path fill="none" stroke="black" d="M1950.2,-533.18C1949.38,-542.91 1955.48,-551 1968.5,-551 1976.63,-551 1982.07,-547.84 1984.8,-543.09"/>
<polygon fill="black" stroke="black" points="1988.26,-543.67 1986.8,-533.18 1981.39,-542.29 1988.26,-543.67"/>
<text text-anchor="start" x="1956.5" y="-554.8" font-family="arial" font-size="14.00" fill="#377eb8">true</text>
</g>
<!-- ID_116_ct0_st0235&#45;&gt;ID_116_ct0_st01235 -->
<g id="edge56" class="edge">
<title>ID_116_ct0_st0235&#45;&gt;ID_116_ct0_st01235</title>
<path fill="none" stroke="black" d="M1899.79,-508.94C1885.7,-510.58 1871.15,-513.38 1858,-518 1840.02,-524.32 1822.12,-535.09 1807.15,-545.7"/>
<polygon fill="black" stroke="black" points="1804.69,-543.17 1798.69,-551.9 1808.82,-548.81 1804.69,-543.17"/>
<text text-anchor="start" x="1858" y="-521.8" font-family="arial" font-size="14.00" fill="#377eb8">true</text>
</g>
<!-- ID_116_ct0_st0246 -->
<g id="node15" class="node">
<title>ID_116_ct0_st0246</title>
<polygon fill="none" stroke="black" points="2438,-583 2301,-583 2301,-533 2438,-533 2438,-583"/>
<text text-anchor="start" x="2309" y="-568.8" font-family="arial" font-weight="bold" font-size="14.00">ID_116_ct0_st0246</text>
<text text-anchor="start" x="2314" y="-554.8" font-family="arial" font-size="14.00" fill="#984ea3">(!Q &amp;&amp; (!R &amp;&amp; !S))</text>
<text text-anchor="start" x="2357.5" y="-540.8" font-family="arial" font-size="14.00" fill="#ff7f00">true</text>
</g>
<!-- ID_116_ct0_st0235&#45;&gt;ID_116_ct0_st0246 -->
<g id="edge52" class="edge">
<title>ID_116_ct0_st0235&#45;&gt;ID_116_ct0_st0246</title>
<path fill="none" stroke="black" d="M2037.18,-516.48C2107.37,-525.28 2216.94,-539.01 2290.66,-548.25"/>
<polygon fill="black" stroke="black" points="2290.46,-551.75 2300.82,-549.52 2291.33,-544.8 2290.46,-551.75"/>
<text text-anchor="start" x="2157" y="-544.8" font-family="arial" font-size="14.00" fill="#377eb8">true</text>
</g>
<!-- ID_116_ct0_st01246 -->
<g id="node16" class="node">
<title>ID_116_ct0_st01246</title>
<polygon fill="none" stroke="black" points="2241,-879 2097,-879 2097,-829 2241,-829 2241,-879"/>
<text text-anchor="start" x="2105" y="-864.8" font-family="arial" font-weight="bold" font-size="14.00">ID_116_ct0_st01246</text>
<text text-anchor="start" x="2115.5" y="-850.8" font-family="arial" font-size="14.00" fill="#984ea3">(Q &amp;&amp; (!R &amp;&amp; !S))</text>
<text text-anchor="start" x="2157" y="-836.8" font-family="arial" font-size="14.00" fill="#ff7f00">true</text>
</g>
<!-- ID_116_ct0_st0235&#45;&gt;ID_116_ct0_st01246 -->
<g id="edge55" class="edge">
<title>ID_116_ct0_st0235&#45;&gt;ID_116_ct0_st01246</title>
<path fill="none" stroke="black" d="M2037.16,-527.48C2052.63,-534.65 2067.8,-544.25 2079,-557 2145.84,-633.12 2162.51,-757.84 2166.64,-818.56"/>
<polygon fill="black" stroke="black" points="2163.17,-819.01 2167.26,-828.78 2170.15,-818.58 2163.17,-819.01"/>
<text text-anchor="start" x="2055" y="-560.8" font-family="arial" font-size="14.00" fill="#377eb8">true</text>
</g>
<!-- ID_116_ct0_st01235&#45;&gt;ID_116_ct0_st0 -->
<g id="edge57" class="edge">
<title>ID_116_ct0_st01235&#45;&gt;ID_116_ct0_st0</title>
<path fill="none" stroke="black" d="M1752.19,-602.08C1736.69,-629.05 1712.39,-673.53 1696,-714 1685.55,-739.8 1692.42,-750.18 1678,-774 1649.47,-821.11 1627.57,-839 1572.5,-839 1279,-839 1279,-839 1279,-839 1208.73,-839 419.61,-803.75 342,-773 319.93,-764.26 312.38,-760.26 300,-740 290.1,-723.8 243.09,-460.39 226.13,-363.99"/>
<polygon fill="black" stroke="black" points="229.57,-363.38 224.39,-354.14 222.68,-364.59 229.57,-363.38"/>
<text text-anchor="start" x="976" y="-833.8" font-family="arial" font-size="14.00" fill="#377eb8">R&#39;</text>
</g>
<!-- ID_116_ct0_st01235&#45;&gt;ID_116_ct0_st01 -->
<g id="edge60" class="edge">
<title>ID_116_ct0_st01235&#45;&gt;ID_116_ct0_st01</title>
<path fill="none" stroke="black" d="M1758.73,-602.26C1737.79,-660.84 1676.79,-801 1572.5,-801 881,-801 881,-801 881,-801 693.49,-801 625.8,-766.37 494,-633 461.7,-600.32 437.53,-552.73 423.6,-520.63"/>
<polygon fill="black" stroke="black" points="426.73,-519.05 419.61,-511.2 420.28,-521.78 426.73,-519.05"/>
<text text-anchor="start" x="1071" y="-804.8" font-family="arial" font-size="14.00" fill="#377eb8">true</text>
</g>
<!-- ID_116_ct0_st01235&#45;&gt;ID_116_ct0_st0235 -->
<g id="edge59" class="edge">
<title>ID_116_ct0_st01235&#45;&gt;ID_116_ct0_st0235</title>
<path fill="none" stroke="black" d="M1840.1,-552.28C1856.38,-546.63 1873.75,-540.59 1890.27,-534.85"/>
<polygon fill="black" stroke="black" points="1891.58,-538.09 1899.88,-531.51 1889.29,-531.48 1891.58,-538.09"/>
<text text-anchor="start" x="1858" y="-547.8" font-family="arial" font-size="14.00" fill="#377eb8">true</text>
</g>
<!-- ID_116_ct0_st01235&#45;&gt;ID_116_ct0_st01235 -->
<g id="edge62" class="edge">
<title>ID_116_ct0_st01235&#45;&gt;ID_116_ct0_st01235</title>
<path fill="none" stroke="black" d="M1748.95,-602.18C1748.1,-611.91 1754.45,-620 1768,-620 1776.47,-620 1782.12,-616.84 1784.97,-612.09"/>
<polygon fill="black" stroke="black" points="1788.42,-612.68 1787.05,-602.18 1781.57,-611.24 1788.42,-612.68"/>
<text text-anchor="start" x="1756" y="-623.8" font-family="arial" font-size="14.00" fill="#377eb8">true</text>
</g>
<!-- ID_116_ct0_st01235&#45;&gt;ID_116_ct0_st0246 -->
<g id="edge58" class="edge">
<title>ID_116_ct0_st01235&#45;&gt;ID_116_ct0_st0246</title>
<path fill="none" stroke="black" d="M1840.11,-577.32C1894.13,-577.35 1970.26,-576.96 2037,-575 2123.98,-572.45 2223.68,-566.99 2290.84,-562.94"/>
<polygon fill="black" stroke="black" points="2291.15,-566.43 2300.92,-562.33 2290.73,-559.45 2291.15,-566.43"/>
<text text-anchor="start" x="2055" y="-577.8" font-family="arial" font-size="14.00" fill="#377eb8">true</text>
</g>
<!-- ID_116_ct0_st01235&#45;&gt;ID_116_ct0_st01246 -->
<g id="edge61" class="edge">
<title>ID_116_ct0_st01235&#45;&gt;ID_116_ct0_st01246</title>
<path fill="none" stroke="black" d="M1805.11,-602.07C1878.31,-652.89 2043.98,-767.9 2123.62,-823.19"/>
<polygon fill="black" stroke="black" points="2121.76,-826.16 2131.97,-828.99 2125.75,-820.41 2121.76,-826.16"/>
<text text-anchor="start" x="1956.5" y="-763.8" font-family="arial" font-size="14.00" fill="#377eb8">true</text>
</g>
<!-- ID_116_ct0_st0246&#45;&gt;ID_116_ct0_st0 -->
<g id="edge63" class="edge">
<title>ID_116_ct0_st0246&#45;&gt;ID_116_ct0_st0</title>
<path fill="none" stroke="black" d="M2368.14,-532.82C2366.22,-463.8 2354.38,-267.29 2283,-125 2249.42,-58.06 2244.89,0 2170,0 408,0 408,0 408,0 273.8,0 234.1,-208.9 223.51,-293.78"/>
<polygon fill="black" stroke="black" points="220.03,-293.39 222.33,-303.73 226.98,-294.21 220.03,-293.39"/>
<text text-anchor="start" x="1273.5" y="-3.8" font-family="arial" font-size="14.00" fill="#377eb8">R&#39;</text>
</g>
<!-- ID_116_ct0_st0246&#45;&gt;ID_116_ct0_st01 -->
<g id="edge65" class="edge">
<title>ID_116_ct0_st0246&#45;&gt;ID_116_ct0_st01</title>
<path fill="none" stroke="black" d="M2369.21,-532.89C2370.49,-436.69 2361.49,-97 2170,-97 1476,-97 1476,-97 1476,-97 1254.62,-97 1256.63,-273.16 1053,-360 993.51,-385.37 973.77,-376.84 912,-396 884.87,-404.41 879.19,-409.77 852,-418 770.18,-442.76 749.35,-449.12 665,-463 602.91,-473.21 531.51,-479.17 480.09,-482.44"/>
<polygon fill="black" stroke="black" points="479.84,-478.95 470.08,-483.07 480.28,-485.94 479.84,-478.95"/>
<text text-anchor="start" x="1366.5" y="-151.8" font-family="arial" font-size="14.00" fill="#377eb8">true</text>
</g>
<!-- ID_116_ct0_st0246&#45;&gt;ID_116_ct0_st0246 -->
<g id="edge64" class="edge">
<title>ID_116_ct0_st0246&#45;&gt;ID_116_ct0_st0246</title>
<path fill="none" stroke="black" d="M2351.2,-583.18C2350.38,-592.91 2356.48,-601 2369.5,-601 2377.63,-601 2383.07,-597.84 2385.8,-593.09"/>
<polygon fill="black" stroke="black" points="2389.26,-593.67 2387.8,-583.18 2382.39,-592.29 2389.26,-593.67"/>
<text text-anchor="start" x="2357.5" y="-604.8" font-family="arial" font-size="14.00" fill="#377eb8">true</text>
</g>
<!-- ID_116_ct0_st0246&#45;&gt;ID_116_ct0_st01246 -->
<g id="edge66" class="edge">
<title>ID_116_ct0_st0246&#45;&gt;ID_116_ct0_st01246</title>
<path fill="none" stroke="black" d="M2351.62,-583.17C2315.91,-636.42 2232.72,-760.47 2192.53,-820.4"/>
<polygon fill="black" stroke="black" points="2189.59,-818.51 2186.92,-828.76 2195.4,-822.41 2189.59,-818.51"/>
<text text-anchor="start" x="2259" y="-717.8" font-family="arial" font-size="14.00" fill="#377eb8">true</text>
</g>
<!-- ID_116_ct0_st01246&#45;&gt;ID_116_ct0_st0 -->
<g id="edge67" class="edge">
<title>ID_116_ct0_st01246&#45;&gt;ID_116_ct0_st0</title>
<path fill="none" stroke="black" d="M2145.35,-879.16C2111.06,-914.34 2042.19,-974 1969.5,-974 408,-974 408,-974 408,-974 303.84,-974 333.75,-864.54 300,-766 296.71,-756.39 244.6,-466.32 226.3,-364.17"/>
<polygon fill="black" stroke="black" points="229.69,-363.28 224.48,-354.06 222.8,-364.52 229.69,-363.28"/>
<text text-anchor="start" x="1175" y="-977.8" font-family="arial" font-size="14.00" fill="#377eb8">R&#39;</text>
</g>
<!-- ID_116_ct0_st01246&#45;&gt;ID_116_ct0_st01 -->
<g id="edge69" class="edge">
<title>ID_116_ct0_st01246&#45;&gt;ID_116_ct0_st01</title>
<path fill="none" stroke="black" d="M2127.06,-879.05C2088.03,-900.52 2026.87,-928 1969.5,-928 1082,-928 1082,-928 1082,-928 831.7,-928 725.84,-953.12 536,-790 453.29,-718.93 423.87,-584.84 414.26,-521.21"/>
<polygon fill="black" stroke="black" points="417.71,-520.67 412.83,-511.27 410.78,-521.66 417.71,-520.67"/>
<text text-anchor="start" x="1268" y="-931.8" font-family="arial" font-size="14.00" fill="#377eb8">true</text>
</g>
<!-- ID_116_ct0_st01246&#45;&gt;ID_116_ct0_st0246 -->
<g id="edge68" class="edge">
<title>ID_116_ct0_st01246&#45;&gt;ID_116_ct0_st0246</title>
<path fill="none" stroke="black" d="M2198.05,-828.59C2222.57,-805.37 2258.07,-769.22 2283,-733 2314.19,-687.68 2340.27,-629.28 2355.14,-592.73"/>
<polygon fill="black" stroke="black" points="2358.56,-593.61 2359.03,-583.03 2352.06,-591.01 2358.56,-593.61"/>
<text text-anchor="start" x="2259" y="-764.8" font-family="arial" font-size="14.00" fill="#377eb8">true</text>
</g>
<!-- ID_116_ct0_st01246&#45;&gt;ID_116_ct0_st01246 -->
<g id="edge70" class="edge">
<title>ID_116_ct0_st01246&#45;&gt;ID_116_ct0_st01246</title>
<path fill="none" stroke="black" d="M2149.95,-879.18C2149.1,-888.91 2155.45,-897 2169,-897 2177.47,-897 2183.12,-893.84 2185.97,-889.09"/>
<polygon fill="black" stroke="black" points="2189.42,-889.68 2188.05,-879.18 2182.57,-888.24 2189.42,-889.68"/>
<text text-anchor="start" x="2157" y="-900.8" font-family="arial" font-size="14.00" fill="#377eb8">true</text>
</g>
</g>
</svg>
