<?xml version="1.0" encoding="UTF-8" standalone="no"?>
<!DOCTYPE svg PUBLIC "-//W3C//DTD SVG 1.1//EN"
 "http://www.w3.org/Graphics/SVG/1.1/DTD/svg11.dtd">
<!-- Generated by graphviz version 2.43.0 (0)
 -->
<!-- Title: G Pages: 1 -->
<svg width="1487pt" height="503pt"
 viewBox="0.00 0.00 1487.00 502.51" xmlns="http://www.w3.org/2000/svg" xmlns:xlink="http://www.w3.org/1999/xlink">
<g id="graph0" class="graph" transform="scale(1 1) rotate(0) translate(4 498.51)">
<title>G</title>
<polygon fill="white" stroke="transparent" points="-4,4 -4,-498.51 1483,-498.51 1483,4 -4,4"/>
<!-- _ID_60_ct0_st0 -->
<!-- ID_60_ct0_st0 -->
<g id="node2" class="node">
<title>ID_60_ct0_st0</title>
<polygon fill="none" stroke="black" points="264.5,-358.7 157.5,-358.7 157.5,-308.7 264.5,-308.7 264.5,-358.7"/>
<text text-anchor="start" x="165.5" y="-344.5" font-family="arial" font-weight="bold" font-size="14.00">ID_60_ct0_st0</text>
<text text-anchor="start" x="203" y="-330.5" font-family="arial" font-size="14.00" fill="#984ea3">!Q</text>
<text text-anchor="start" x="199" y="-316.5" font-family="arial" font-size="14.00" fill="#ff7f00">true</text>
</g>
<!-- _ID_60_ct0_st0&#45;&gt;ID_60_ct0_st0 -->
<g id="edge1" class="edge">
<title>_ID_60_ct0_st0&#45;&gt;ID_60_ct0_st0</title>
<path fill="none" stroke="black" d="M111.05,-333.7C122.71,-333.7 135.13,-333.7 147.08,-333.7"/>
<polygon fill="black" stroke="black" points="147.43,-337.2 157.43,-333.7 147.43,-330.2 147.43,-337.2"/>
</g>
<!-- ID_60_ct0_st0&#45;&gt;ID_60_ct0_st0 -->
<g id="edge4" class="edge">
<title>ID_60_ct0_st0&#45;&gt;ID_60_ct0_st0</title>
<path fill="none" stroke="black" d="M196.06,-358.87C195.39,-368.6 200.38,-376.7 211,-376.7 217.64,-376.7 222.08,-373.54 224.31,-368.79"/>
<polygon fill="black" stroke="black" points="227.77,-369.31 225.94,-358.87 220.86,-368.17 227.77,-369.31"/>
<text text-anchor="start" x="199" y="-380.5" font-family="arial" font-size="14.00" fill="#377eb8">true</text>
</g>
<!-- ID_60_ct0_st012 -->
<g id="node4" class="node">
<title>ID_60_ct0_st012</title>
<polygon fill="none" stroke="black" points="465.5,-225.7 343.5,-225.7 343.5,-175.7 465.5,-175.7 465.5,-225.7"/>
<text text-anchor="start" x="351.5" y="-211.5" font-family="arial" font-weight="bold" font-size="14.00">ID_60_ct0_st012</text>
<text text-anchor="start" x="375" y="-197.5" font-family="arial" font-size="14.00" fill="#984ea3">(Q &amp;&amp; !S)</text>
<text text-anchor="start" x="392.5" y="-183.5" font-family="arial" font-size="14.00" fill="#ff7f00">true</text>
</g>
<!-- ID_60_ct0_st0&#45;&gt;ID_60_ct0_st012 -->
<g id="edge5" class="edge">
<title>ID_60_ct0_st0&#45;&gt;ID_60_ct0_st012</title>
<path fill="none" stroke="black" d="M248.02,-308.68C279.48,-286.83 325.27,-255.03 359.01,-231.59"/>
<polygon fill="black" stroke="black" points="361.1,-234.4 367.32,-225.83 357.11,-228.65 361.1,-234.4"/>
<text text-anchor="start" x="292" y="-278.5" font-family="arial" font-size="14.00" fill="#377eb8">true</text>
</g>
<!-- ID_60_ct0_st01234 -->
<g id="node6" class="node">
<title>ID_60_ct0_st01234</title>
<polygon fill="none" stroke="black" points="672,-317.7 535,-317.7 535,-267.7 672,-267.7 672,-317.7"/>
<text text-anchor="start" x="543" y="-303.5" font-family="arial" font-weight="bold" font-size="14.00">ID_60_ct0_st01234</text>
<text text-anchor="start" x="553.5" y="-289.5" font-family="arial" font-size="14.00" fill="#984ea3">(Q &amp;&amp; (R &amp;&amp; S))</text>
<text text-anchor="start" x="591.5" y="-275.5" font-family="arial" font-size="14.00" fill="#ff7f00">true</text>
</g>
<!-- ID_60_ct0_st0&#45;&gt;ID_60_ct0_st01234 -->
<g id="edge6" class="edge">
<title>ID_60_ct0_st0&#45;&gt;ID_60_ct0_st01234</title>
<path fill="none" stroke="black" d="M264.64,-334.04C317.91,-333.74 402.53,-331.51 475,-321.7 491.21,-319.5 508.39,-316.24 524.72,-312.7"/>
<polygon fill="black" stroke="black" points="525.76,-316.05 534.76,-310.46 524.23,-309.22 525.76,-316.05"/>
<text text-anchor="start" x="392.5" y="-335.5" font-family="arial" font-size="14.00" fill="#377eb8">true</text>
</g>
<!-- _ID_60_ct0_st012 -->
<!-- _ID_60_ct0_st012&#45;&gt;ID_60_ct0_st012 -->
<g id="edge2" class="edge">
<title>_ID_60_ct0_st012&#45;&gt;ID_60_ct0_st012</title>
<path fill="none" stroke="black" d="M274.17,-200.7C292.97,-200.7 313.74,-200.7 333.03,-200.7"/>
<polygon fill="black" stroke="black" points="333.27,-204.2 343.27,-200.7 333.27,-197.2 333.27,-204.2"/>
</g>
<!-- ID_60_ct0_st012&#45;&gt;ID_60_ct0_st012 -->
<g id="edge13" class="edge">
<title>ID_60_ct0_st012&#45;&gt;ID_60_ct0_st012</title>
<path fill="none" stroke="black" d="M385.82,-225.87C384.99,-235.6 391.22,-243.7 404.5,-243.7 412.8,-243.7 418.35,-240.54 421.13,-235.79"/>
<polygon fill="black" stroke="black" points="424.59,-236.37 423.18,-225.87 417.73,-234.96 424.59,-236.37"/>
<text text-anchor="start" x="392.5" y="-247.5" font-family="arial" font-size="14.00" fill="#377eb8">true</text>
</g>
<!-- ID_60_ct0_st012&#45;&gt;ID_60_ct0_st01234 -->
<g id="edge14" class="edge">
<title>ID_60_ct0_st012&#45;&gt;ID_60_ct0_st01234</title>
<path fill="none" stroke="black" d="M459.07,-225.71C483.93,-237.32 513.65,-251.2 539.58,-263.31"/>
<polygon fill="black" stroke="black" points="538.4,-266.62 548.94,-267.68 541.36,-260.28 538.4,-266.62"/>
<text text-anchor="start" x="493" y="-256.5" font-family="arial" font-size="14.00" fill="#377eb8">true</text>
</g>
<!-- ID_60_ct0_st02 -->
<g id="node7" class="node">
<title>ID_60_ct0_st02</title>
<polygon fill="none" stroke="black" points="1479,-212.7 1365,-212.7 1365,-162.7 1479,-162.7 1479,-212.7"/>
<text text-anchor="start" x="1373" y="-198.5" font-family="arial" font-weight="bold" font-size="14.00">ID_60_ct0_st02</text>
<text text-anchor="start" x="1390.5" y="-184.5" font-family="arial" font-size="14.00" fill="#984ea3">(!Q &amp;&amp; !S)</text>
<text text-anchor="start" x="1410" y="-170.5" font-family="arial" font-size="14.00" fill="#ff7f00">true</text>
</g>
<!-- ID_60_ct0_st012&#45;&gt;ID_60_ct0_st02 -->
<g id="edge11" class="edge">
<title>ID_60_ct0_st012&#45;&gt;ID_60_ct0_st02</title>
<path fill="none" stroke="black" d="M420.65,-175.34C449.75,-130.23 518.12,-40.7 602.5,-40.7 602.5,-40.7 602.5,-40.7 1222.5,-40.7 1298.44,-40.7 1364.3,-111.04 1397.69,-154.4"/>
<polygon fill="black" stroke="black" points="1394.92,-156.54 1403.74,-162.43 1400.51,-152.33 1394.92,-156.54"/>
<text text-anchor="start" x="908" y="-44.5" font-family="arial" font-size="14.00" fill="#377eb8">true</text>
</g>
<!-- ID_60_ct0_st0234 -->
<g id="node8" class="node">
<title>ID_60_ct0_st0234</title>
<polygon fill="none" stroke="black" points="883,-439.7 754,-439.7 754,-389.7 883,-389.7 883,-439.7"/>
<text text-anchor="start" x="762" y="-425.5" font-family="arial" font-weight="bold" font-size="14.00">ID_60_ct0_st0234</text>
<text text-anchor="start" x="767" y="-411.5" font-family="arial" font-size="14.00" fill="#984ea3">(!Q &amp;&amp; (R &amp;&amp; S))</text>
<text text-anchor="start" x="806.5" y="-397.5" font-family="arial" font-size="14.00" fill="#ff7f00">true</text>
</g>
<!-- ID_60_ct0_st012&#45;&gt;ID_60_ct0_st0234 -->
<g id="edge12" class="edge">
<title>ID_60_ct0_st012&#45;&gt;ID_60_ct0_st0234</title>
<path fill="none" stroke="black" d="M434.35,-225.76C447.45,-237.81 462.72,-252.84 475,-267.7 506.1,-305.32 495.52,-330.98 535,-359.7 595.64,-403.8 682.27,-415.09 743.57,-416.89"/>
<polygon fill="black" stroke="black" points="743.87,-420.4 753.94,-417.11 744.02,-413.4 743.87,-420.4"/>
<text text-anchor="start" x="591.5" y="-413.5" font-family="arial" font-size="14.00" fill="#377eb8">true</text>
</g>
<!-- _ID_60_ct0_st01234 -->
<!-- _ID_60_ct0_st01234&#45;&gt;ID_60_ct0_st01234 -->
<g id="edge3" class="edge">
<title>_ID_60_ct0_st01234&#45;&gt;ID_60_ct0_st01234</title>
<path fill="none" stroke="black" d="M475.23,-293.99C491.27,-293.82 508.43,-293.65 524.78,-293.48"/>
<polygon fill="black" stroke="black" points="524.88,-296.98 534.85,-293.38 524.81,-289.98 524.88,-296.98"/>
</g>
<!-- ID_60_ct0_st01234&#45;&gt;ID_60_ct0_st01234 -->
<g id="edge34" class="edge">
<title>ID_60_ct0_st01234&#45;&gt;ID_60_ct0_st01234</title>
<path fill="none" stroke="black" d="M585.2,-317.87C584.38,-327.6 590.48,-335.7 603.5,-335.7 611.63,-335.7 617.07,-332.54 619.8,-327.79"/>
<polygon fill="black" stroke="black" points="623.26,-328.37 621.8,-317.87 616.39,-326.98 623.26,-328.37"/>
<text text-anchor="start" x="591.5" y="-339.5" font-family="arial" font-size="14.00" fill="#377eb8">true</text>
</g>
<!-- ID_60_ct0_st01234&#45;&gt;ID_60_ct0_st0234 -->
<g id="edge32" class="edge">
<title>ID_60_ct0_st01234&#45;&gt;ID_60_ct0_st0234</title>
<path fill="none" stroke="black" d="M669.13,-317.74C701.63,-330.42 734.5,-343.42 736,-344.7 747.86,-354.75 743.13,-363.58 754,-374.7 756.97,-377.73 760.22,-380.65 763.62,-383.42"/>
<polygon fill="black" stroke="black" points="761.71,-386.36 771.79,-389.62 765.94,-380.78 761.71,-386.36"/>
<text text-anchor="start" x="701" y="-348.5" font-family="arial" font-size="14.00" fill="#377eb8">true</text>
</g>
<!-- ID_60_ct0_st024 -->
<g id="node9" class="node">
<title>ID_60_ct0_st024</title>
<polygon fill="none" stroke="black" points="1283,-285.7 1160,-285.7 1160,-235.7 1283,-235.7 1283,-285.7"/>
<text text-anchor="start" x="1168.5" y="-271.5" font-family="arial" font-weight="bold" font-size="14.00">ID_60_ct0_st024</text>
<text text-anchor="start" x="1168" y="-257.5" font-family="arial" font-size="14.00" fill="#984ea3">(!Q &amp;&amp; (R &amp;&amp; !S))</text>
<text text-anchor="start" x="1198.5" y="-243.5" font-family="arial" font-size="14.00" fill="#ff7f00">c0 &lt;= 5</text>
</g>
<!-- ID_60_ct0_st01234&#45;&gt;ID_60_ct0_st024 -->
<g id="edge31" class="edge">
<title>ID_60_ct0_st01234&#45;&gt;ID_60_ct0_st024</title>
<path fill="none" stroke="black" d="M616.46,-267.31C630.21,-241.31 655.42,-202.17 690,-183.7 787.81,-131.44 829.51,-150.08 939,-167.7 1014.54,-179.85 1097.27,-209.25 1153.36,-231.76"/>
<polygon fill="black" stroke="black" points="1152.24,-235.08 1162.83,-235.6 1154.87,-228.6 1152.24,-235.08"/>
<text text-anchor="start" x="908" y="-186.5" font-family="arial" font-size="14.00" fill="#377eb8">true</text>
<text text-anchor="start" x="901" y="-171.5" font-family="arial" font-size="14.00">c0 :=0</text>
</g>
<!-- ID_60_ct0_st0124 -->
<g id="node10" class="node">
<title>ID_60_ct0_st0124</title>
<polygon fill="none" stroke="black" points="1086,-335.7 957,-335.7 957,-285.7 1086,-285.7 1086,-335.7"/>
<text text-anchor="start" x="965" y="-321.5" font-family="arial" font-weight="bold" font-size="14.00">ID_60_ct0_st0124</text>
<text text-anchor="start" x="970" y="-307.5" font-family="arial" font-size="14.00" fill="#984ea3">(Q &amp;&amp; (R &amp;&amp; !S))</text>
<text text-anchor="start" x="998.5" y="-293.5" font-family="arial" font-size="14.00" fill="#ff7f00">c0 &lt;= 5</text>
</g>
<!-- ID_60_ct0_st01234&#45;&gt;ID_60_ct0_st0124 -->
<g id="edge33" class="edge">
<title>ID_60_ct0_st01234&#45;&gt;ID_60_ct0_st0124</title>
<path fill="none" stroke="black" d="M672.14,-288.7C728.6,-286.15 811.16,-284.24 883,-289.7 903.8,-291.27 926.21,-294.18 946.78,-297.33"/>
<polygon fill="black" stroke="black" points="946.3,-300.8 956.72,-298.9 947.39,-293.88 946.3,-300.8"/>
<text text-anchor="start" x="806.5" y="-308.5" font-family="arial" font-size="14.00" fill="#377eb8">true</text>
<text text-anchor="start" x="799.5" y="-293.5" font-family="arial" font-size="14.00">c0 :=0</text>
</g>
<!-- ID_60_ct0_st02&#45;&gt;ID_60_ct0_st012 -->
<g id="edge9" class="edge">
<title>ID_60_ct0_st02&#45;&gt;ID_60_ct0_st012</title>
<path fill="none" stroke="black" d="M1416.83,-162.59C1409.45,-126.58 1390.57,-60.87 1347,-26.7 1302.66,8.09 1278.85,-2.7 1222.5,-2.7 602.5,-2.7 602.5,-2.7 602.5,-2.7 552.68,-2.7 532.35,3.86 493,-26.7 448.04,-61.61 424.37,-125.85 413.44,-165.75"/>
<polygon fill="black" stroke="black" points="410.01,-165.02 410.87,-175.58 416.78,-166.79 410.01,-165.02"/>
<text text-anchor="start" x="908" y="-6.5" font-family="arial" font-size="14.00" fill="#377eb8">true</text>
</g>
<!-- ID_60_ct0_st02&#45;&gt;ID_60_ct0_st01234 -->
<g id="edge10" class="edge">
<title>ID_60_ct0_st02&#45;&gt;ID_60_ct0_st01234</title>
<path fill="none" stroke="black" d="M1366.21,-162.59C1327.03,-146.92 1272.58,-129.7 1222.5,-129.7 817.5,-129.7 817.5,-129.7 817.5,-129.7 759.29,-129.7 737.54,-126.1 690,-159.7 655.31,-184.21 631.32,-227.69 617.76,-258.25"/>
<polygon fill="black" stroke="black" points="614.45,-257.1 613.73,-267.67 620.88,-259.85 614.45,-257.1"/>
<text text-anchor="start" x="1009.5" y="-133.5" font-family="arial" font-size="14.00" fill="#377eb8">true</text>
</g>
<!-- ID_60_ct0_st02&#45;&gt;ID_60_ct0_st02 -->
<g id="edge7" class="edge">
<title>ID_60_ct0_st02&#45;&gt;ID_60_ct0_st02</title>
<path fill="none" stroke="black" d="M1403.7,-212.87C1402.88,-222.6 1408.98,-230.7 1422,-230.7 1430.13,-230.7 1435.57,-227.54 1438.3,-222.79"/>
<polygon fill="black" stroke="black" points="1441.76,-223.37 1440.3,-212.87 1434.89,-221.98 1441.76,-223.37"/>
<text text-anchor="start" x="1410" y="-234.5" font-family="arial" font-size="14.00" fill="#377eb8">true</text>
</g>
<!-- ID_60_ct0_st02&#45;&gt;ID_60_ct0_st0234 -->
<g id="edge8" class="edge">
<title>ID_60_ct0_st02&#45;&gt;ID_60_ct0_st0234</title>
<path fill="none" stroke="black" d="M1409.98,-213C1397.37,-240.11 1374.83,-283.44 1347,-314.7 1255.11,-417.91 1218.99,-446.12 1086,-483.7 1030.83,-499.29 1012.89,-496.47 957,-483.7 930.06,-477.54 925.73,-469.03 901,-456.7 893.13,-452.77 884.87,-448.59 876.74,-444.44"/>
<polygon fill="black" stroke="black" points="878.15,-441.23 867.66,-439.78 874.96,-447.46 878.15,-441.23"/>
<text text-anchor="start" x="1111" y="-480.5" font-family="arial" font-size="14.00" fill="#377eb8">true</text>
</g>
<!-- ID_60_ct0_st0234&#45;&gt;ID_60_ct0_st01234 -->
<g id="edge30" class="edge">
<title>ID_60_ct0_st0234&#45;&gt;ID_60_ct0_st01234</title>
<path fill="none" stroke="black" d="M753.72,-393.67C732.75,-385.6 709.77,-375.46 690,-363.7 671.5,-352.69 652.89,-337.79 637.78,-324.49"/>
<polygon fill="black" stroke="black" points="639.99,-321.77 630.21,-317.7 635.32,-326.98 639.99,-321.77"/>
<text text-anchor="start" x="701" y="-388.5" font-family="arial" font-size="14.00" fill="#377eb8">true</text>
</g>
<!-- ID_60_ct0_st0234&#45;&gt;ID_60_ct0_st0234 -->
<g id="edge28" class="edge">
<title>ID_60_ct0_st0234&#45;&gt;ID_60_ct0_st0234</title>
<path fill="none" stroke="black" d="M799.82,-439.87C798.99,-449.6 805.22,-457.7 818.5,-457.7 826.8,-457.7 832.35,-454.54 835.13,-449.79"/>
<polygon fill="black" stroke="black" points="838.59,-450.37 837.18,-439.87 831.73,-448.96 838.59,-450.37"/>
<text text-anchor="start" x="806.5" y="-461.5" font-family="arial" font-size="14.00" fill="#377eb8">true</text>
</g>
<!-- ID_60_ct0_st0234&#45;&gt;ID_60_ct0_st024 -->
<g id="edge27" class="edge">
<title>ID_60_ct0_st0234&#45;&gt;ID_60_ct0_st024</title>
<path fill="none" stroke="black" d="M883.06,-435.44C939.19,-449.98 1021.85,-461.97 1086,-431.7 1121.41,-414.99 1121.34,-396.95 1142,-363.7 1152.29,-347.14 1149.09,-339.85 1160,-323.7 1167.23,-312.99 1176.35,-302.43 1185.31,-293.1"/>
<polygon fill="black" stroke="black" points="1187.87,-295.48 1192.41,-285.91 1182.89,-290.57 1187.87,-295.48"/>
<text text-anchor="start" x="1009.5" y="-468.5" font-family="arial" font-size="14.00" fill="#377eb8">true</text>
<text text-anchor="start" x="1002.5" y="-453.5" font-family="arial" font-size="14.00">c0 :=0</text>
</g>
<!-- ID_60_ct0_st0234&#45;&gt;ID_60_ct0_st0124 -->
<g id="edge29" class="edge">
<title>ID_60_ct0_st0234&#45;&gt;ID_60_ct0_st0124</title>
<path fill="none" stroke="black" d="M883.1,-389.96C901.45,-382.19 921.29,-373.14 939,-363.7 951.46,-357.05 964.49,-349.08 976.37,-341.37"/>
<polygon fill="black" stroke="black" points="978.37,-344.25 984.8,-335.82 974.53,-338.4 978.37,-344.25"/>
<text text-anchor="start" x="908" y="-399.5" font-family="arial" font-size="14.00" fill="#377eb8">true</text>
<text text-anchor="start" x="901" y="-384.5" font-family="arial" font-size="14.00">c0 :=0</text>
</g>
<!-- ID_60_ct0_st024&#45;&gt;ID_60_ct0_st012 -->
<g id="edge18" class="edge">
<title>ID_60_ct0_st024&#45;&gt;ID_60_ct0_st012</title>
<path fill="none" stroke="black" d="M1207.19,-235.45C1186.66,-199.51 1143.54,-134.93 1086,-107.7 874.6,-7.64 587.67,-115.5 465.05,-171.41"/>
<polygon fill="black" stroke="black" points="463.42,-168.3 455.8,-175.67 466.35,-174.66 463.42,-168.3"/>
<text text-anchor="start" x="795.5" y="-82.5" font-family="arial" font-size="14.00" fill="#377eb8">c0 &gt;= 5</text>
</g>
<!-- ID_60_ct0_st024&#45;&gt;ID_60_ct0_st01234 -->
<g id="edge20" class="edge">
<title>ID_60_ct0_st024&#45;&gt;ID_60_ct0_st01234</title>
<path fill="none" stroke="black" d="M1159.73,-261.43C1141.78,-261.73 1122.1,-262.14 1104,-262.7 919.89,-268.36 873.49,-265.57 690,-281.7 687.46,-281.92 684.87,-282.16 682.26,-282.42"/>
<polygon fill="black" stroke="black" points="681.7,-278.96 672.12,-283.48 682.43,-285.92 681.7,-278.96"/>
<text text-anchor="start" x="908" y="-271.5" font-family="arial" font-size="14.00" fill="#377eb8">true</text>
</g>
<!-- ID_60_ct0_st024&#45;&gt;ID_60_ct0_st02 -->
<g id="edge15" class="edge">
<title>ID_60_ct0_st024&#45;&gt;ID_60_ct0_st02</title>
<path fill="none" stroke="black" d="M1283.14,-238.4C1305.98,-229.99 1332.06,-220.4 1355.35,-211.84"/>
<polygon fill="black" stroke="black" points="1356.62,-215.1 1364.8,-208.36 1354.2,-208.53 1356.62,-215.1"/>
<text text-anchor="start" x="1301" y="-235.5" font-family="arial" font-size="14.00" fill="#377eb8">c0 &gt;= 5</text>
</g>
<!-- ID_60_ct0_st024&#45;&gt;ID_60_ct0_st0234 -->
<g id="edge17" class="edge">
<title>ID_60_ct0_st024&#45;&gt;ID_60_ct0_st0234</title>
<path fill="none" stroke="black" d="M1194.74,-285.71C1162.81,-316.23 1109.73,-365.3 1086,-377.7 1026.26,-408.89 949.22,-416.68 893.34,-417.53"/>
<polygon fill="black" stroke="black" points="893.14,-414.03 883.17,-417.61 893.19,-421.03 893.14,-414.03"/>
<text text-anchor="start" x="1009.5" y="-416.5" font-family="arial" font-size="14.00" fill="#377eb8">true</text>
</g>
<!-- ID_60_ct0_st024&#45;&gt;ID_60_ct0_st024 -->
<g id="edge16" class="edge">
<title>ID_60_ct0_st024&#45;&gt;ID_60_ct0_st024</title>
<path fill="none" stroke="black" d="M1203.2,-285.87C1202.38,-295.6 1208.48,-303.7 1221.5,-303.7 1229.63,-303.7 1235.07,-300.54 1237.8,-295.79"/>
<polygon fill="black" stroke="black" points="1241.26,-296.37 1239.8,-285.87 1234.39,-294.98 1241.26,-296.37"/>
<text text-anchor="start" x="1202.5" y="-307.5" font-family="arial" font-size="14.00" fill="#377eb8">c0 &lt; 5</text>
</g>
<!-- ID_60_ct0_st024&#45;&gt;ID_60_ct0_st0124 -->
<g id="edge19" class="edge">
<title>ID_60_ct0_st024&#45;&gt;ID_60_ct0_st0124</title>
<path fill="none" stroke="black" d="M1165.81,-285.77C1157.93,-288.77 1149.84,-291.53 1142,-293.7 1127.34,-297.75 1111.38,-300.87 1096.04,-303.26"/>
<polygon fill="black" stroke="black" points="1095.45,-299.81 1086.07,-304.73 1096.48,-306.73 1095.45,-299.81"/>
<text text-anchor="start" x="1104" y="-304.5" font-family="arial" font-size="14.00" fill="#377eb8">c0 &lt; 5</text>
</g>
<!-- ID_60_ct0_st0124&#45;&gt;ID_60_ct0_st012 -->
<g id="edge24" class="edge">
<title>ID_60_ct0_st0124&#45;&gt;ID_60_ct0_st012</title>
<path fill="none" stroke="black" d="M985.14,-285.52C971.36,-276.9 955.03,-268.08 939,-262.7 779.46,-209.12 579.69,-200.27 475.72,-199.71"/>
<polygon fill="black" stroke="black" points="475.67,-196.21 465.66,-199.68 475.65,-203.21 475.67,-196.21"/>
<text text-anchor="start" x="690" y="-221.5" font-family="arial" font-size="14.00" fill="#377eb8">c0 &gt;= 5</text>
</g>
<!-- ID_60_ct0_st0124&#45;&gt;ID_60_ct0_st01234 -->
<g id="edge26" class="edge">
<title>ID_60_ct0_st0124&#45;&gt;ID_60_ct0_st01234</title>
<path fill="none" stroke="black" d="M956.92,-317.97C933.7,-320.29 907.19,-322.55 883,-323.7 825.73,-326.4 811.03,-329.55 754,-323.7 730.46,-321.28 705.15,-316.78 682.17,-311.94"/>
<polygon fill="black" stroke="black" points="682.65,-308.46 672.14,-309.78 681.18,-315.31 682.65,-308.46"/>
<text text-anchor="start" x="806.5" y="-330.5" font-family="arial" font-size="14.00" fill="#377eb8">true</text>
</g>
<!-- ID_60_ct0_st0124&#45;&gt;ID_60_ct0_st02 -->
<g id="edge21" class="edge">
<title>ID_60_ct0_st0124&#45;&gt;ID_60_ct0_st02</title>
<path fill="none" stroke="black" d="M1086.16,-330.26C1140.58,-343.45 1219.87,-354.11 1283,-327.7 1334.37,-306.2 1376.32,-255.23 1399.99,-221.09"/>
<polygon fill="black" stroke="black" points="1402.89,-223.04 1405.61,-212.8 1397.1,-219.12 1402.89,-223.04"/>
<text text-anchor="start" x="1198.5" y="-347.5" font-family="arial" font-size="14.00" fill="#377eb8">c0 &gt;= 5</text>
</g>
<!-- ID_60_ct0_st0124&#45;&gt;ID_60_ct0_st0234 -->
<g id="edge23" class="edge">
<title>ID_60_ct0_st0124&#45;&gt;ID_60_ct0_st0234</title>
<path fill="none" stroke="black" d="M956.96,-322.56C937.72,-328.27 917.37,-336.6 901,-348.7 889.7,-357.05 893.15,-364.98 883,-374.7 879.79,-377.77 876.31,-380.73 872.68,-383.56"/>
<polygon fill="black" stroke="black" points="870.55,-380.79 864.57,-389.53 874.7,-386.43 870.55,-380.79"/>
<text text-anchor="start" x="908" y="-352.5" font-family="arial" font-size="14.00" fill="#377eb8">true</text>
</g>
<!-- ID_60_ct0_st0124&#45;&gt;ID_60_ct0_st024 -->
<g id="edge22" class="edge">
<title>ID_60_ct0_st0124&#45;&gt;ID_60_ct0_st024</title>
<path fill="none" stroke="black" d="M1072.95,-285.65C1083.04,-281.44 1093.71,-277.52 1104,-274.7 1118.66,-270.67 1134.68,-267.8 1150.02,-265.76"/>
<polygon fill="black" stroke="black" points="1150.48,-269.23 1159.98,-264.53 1149.62,-262.28 1150.48,-269.23"/>
<text text-anchor="start" x="1104" y="-278.5" font-family="arial" font-size="14.00" fill="#377eb8">c0 &lt; 5</text>
</g>
<!-- ID_60_ct0_st0124&#45;&gt;ID_60_ct0_st0124 -->
<g id="edge25" class="edge">
<title>ID_60_ct0_st0124&#45;&gt;ID_60_ct0_st0124</title>
<path fill="none" stroke="black" d="M1002.82,-335.87C1001.99,-345.6 1008.22,-353.7 1021.5,-353.7 1029.8,-353.7 1035.35,-350.54 1038.13,-345.79"/>
<polygon fill="black" stroke="black" points="1041.59,-346.37 1040.18,-335.87 1034.73,-344.96 1041.59,-346.37"/>
<text text-anchor="start" x="1002.5" y="-357.5" font-family="arial" font-size="14.00" fill="#377eb8">c0 &lt; 5</text>
</g>
</g>
</svg>
