<?xml version="1.0" encoding="UTF-8" standalone="no"?>
<!DOCTYPE svg PUBLIC "-//W3C//DTD SVG 1.1//EN"
 "http://www.w3.org/Graphics/SVG/1.1/DTD/svg11.dtd">
<!-- Generated by graphviz version 2.43.0 (0)
 -->
<!-- Title: G Pages: 1 -->
<svg width="1052pt" height="350pt"
 viewBox="0.00 0.00 1052.00 350.00" xmlns="http://www.w3.org/2000/svg" xmlns:xlink="http://www.w3.org/1999/xlink">
<g id="graph0" class="graph" transform="scale(1 1) rotate(0) translate(4 346)">
<title>G</title>
<polygon fill="white" stroke="transparent" points="-4,4 -4,-346 1048,-346 1048,4 -4,4"/>
<!-- _st0 -->
<!-- st0 -->
<g id="node2" class="node">
<title>st0</title>
<polygon fill="none" stroke="black" points="147.5,-283 93.5,-283 93.5,-233 147.5,-233 147.5,-283"/>
<text text-anchor="start" x="110.5" y="-268.8" font-family="arial" font-weight="bold" font-size="14.00">st0</text>
<text text-anchor="start" x="113.5" y="-254.8" font-family="arial" font-size="14.00" fill="#984ea3">!R</text>
<text text-anchor="start" x="108.5" y="-240.8" font-family="arial" font-size="14.00" fill="#ff7f00">true</text>
</g>
<!-- _st0&#45;&gt;st0 -->
<g id="edge1" class="edge">
<title>_st0&#45;&gt;st0</title>
<path fill="none" stroke="black" d="M54.47,-258C63.46,-258 73.67,-258 83.29,-258"/>
<polygon fill="black" stroke="black" points="83.41,-261.5 93.41,-258 83.41,-254.5 83.41,-261.5"/>
</g>
<!-- st0&#45;&gt;st0 -->
<g id="edge3" class="edge">
<title>st0&#45;&gt;st0</title>
<path fill="none" stroke="black" d="M111.54,-283.18C111.14,-292.91 114.12,-301 120.5,-301 124.38,-301 127.01,-298 128.38,-293.45"/>
<polygon fill="black" stroke="black" points="131.9,-293.49 129.46,-283.18 124.94,-292.75 131.9,-293.49"/>
<text text-anchor="start" x="108.5" y="-304.8" font-family="arial" font-size="14.00" fill="#377eb8">true</text>
</g>
<!-- st01X -->
<g id="node4" class="node">
<title>st01X</title>
<polygon fill="none" stroke="black" points="286,-210 224,-210 224,-160 286,-160 286,-210"/>
<text text-anchor="start" x="236.5" y="-195.8" font-family="arial" font-weight="bold" font-size="14.00">st01X</text>
<text text-anchor="start" x="250" y="-181.8" font-family="arial" font-size="14.00" fill="#984ea3">R</text>
<text text-anchor="start" x="232" y="-167.8" font-family="arial" font-size="14.00" fill="#ff7f00">c0 &lt;= 5</text>
</g>
<!-- st0&#45;&gt;st01X -->
<g id="edge4" class="edge">
<title>st0&#45;&gt;st01X</title>
<path fill="none" stroke="black" d="M147.62,-244.94C164.43,-236.4 186.68,-224.85 206,-214 209.02,-212.3 212.13,-210.52 215.24,-208.7"/>
<polygon fill="black" stroke="black" points="217.13,-211.65 223.96,-203.55 213.57,-205.63 217.13,-211.65"/>
<text text-anchor="start" x="175" y="-252.8" font-family="arial" font-size="14.00" fill="#377eb8">true</text>
<text text-anchor="start" x="168" y="-237.8" font-family="arial" font-size="14.00">c0 :=0</text>
</g>
<!-- _st01X -->
<!-- _st01X&#45;&gt;st01X -->
<g id="edge2" class="edge">
<title>_st01X&#45;&gt;st01X</title>
<path fill="none" stroke="black" d="M150.25,-169.34C168.87,-172.15 193.39,-175.85 213.91,-178.95"/>
<polygon fill="black" stroke="black" points="213.52,-182.43 223.93,-180.46 214.56,-175.51 213.52,-182.43"/>
</g>
<!-- st01X&#45;&gt;st0 -->
<g id="edge5" class="edge">
<title>st01X&#45;&gt;st0</title>
<path fill="none" stroke="black" d="M223.89,-182.76C206.48,-182.81 184.78,-185.28 168,-195 156.21,-201.83 146.53,-212.97 139.11,-223.99"/>
<polygon fill="black" stroke="black" points="135.98,-222.39 133.64,-232.73 141.92,-226.11 135.98,-222.39"/>
<text text-anchor="start" x="168" y="-198.8" font-family="arial" font-size="14.00" fill="#377eb8">c0 &lt; 5</text>
</g>
<!-- st01X&#45;&gt;st01X -->
<g id="edge7" class="edge">
<title>st01X&#45;&gt;st01X</title>
<path fill="none" stroke="black" d="M242.3,-210.18C241.74,-219.91 245.97,-228 255,-228 260.64,-228 264.41,-224.84 266.31,-220.09"/>
<polygon fill="black" stroke="black" points="269.78,-220.56 267.7,-210.18 262.85,-219.59 269.78,-220.56"/>
<text text-anchor="start" x="236" y="-231.8" font-family="arial" font-size="14.00" fill="#377eb8">c0 &lt; 5</text>
</g>
<!-- st02 -->
<g id="node5" class="node">
<title>st02</title>
<polygon fill="none" stroke="black" points="740,-170 664,-170 664,-120 740,-120 740,-170"/>
<text text-anchor="start" x="688" y="-155.8" font-family="arial" font-weight="bold" font-size="14.00">st02</text>
<text text-anchor="start" x="672" y="-141.8" font-family="arial" font-size="14.00" fill="#984ea3">(Q &amp;&amp; !R)</text>
<text text-anchor="start" x="675" y="-127.8" font-family="arial" font-size="14.00" fill="#ff7f00">c1 &lt;= 10</text>
</g>
<!-- st01X&#45;&gt;st02 -->
<g id="edge6" class="edge">
<title>st01X&#45;&gt;st02</title>
<path fill="none" stroke="black" d="M286.43,-167.66C310.02,-155.26 343.99,-139.64 376,-133 473.15,-112.86 590.05,-126.02 653.82,-136.26"/>
<polygon fill="black" stroke="black" points="653.53,-139.76 663.97,-137.93 654.67,-132.85 653.53,-139.76"/>
<text text-anchor="start" x="416" y="-151.8" font-family="arial" font-size="14.00" fill="#377eb8">c0 &gt;= 5</text>
<text text-anchor="start" x="420" y="-136.8" font-family="arial" font-size="14.00">c1 :=0</text>
</g>
<!-- st012 -->
<g id="node6" class="node">
<title>st012</title>
<polygon fill="none" stroke="black" points="475,-50 403,-50 403,0 475,0 475,-50"/>
<text text-anchor="start" x="421.5" y="-35.8" font-family="arial" font-weight="bold" font-size="14.00">st012</text>
<text text-anchor="start" x="411" y="-21.8" font-family="arial" font-size="14.00" fill="#984ea3">(Q &amp;&amp; R)</text>
<text text-anchor="start" x="427" y="-7.8" font-family="arial" font-size="14.00" fill="#ff7f00">true</text>
</g>
<!-- st01X&#45;&gt;st012 -->
<g id="edge8" class="edge">
<title>st01X&#45;&gt;st012</title>
<path fill="none" stroke="black" d="M263.71,-159.62C271.16,-138.71 284.24,-109.44 304,-90 328.9,-65.51 364.82,-48.76 393.21,-38.41"/>
<polygon fill="black" stroke="black" points="394.63,-41.62 402.91,-35.01 392.32,-35.02 394.63,-41.62"/>
<text text-anchor="start" x="308" y="-93.8" font-family="arial" font-size="14.00" fill="#377eb8">c0 &gt;= 5</text>
</g>
<!-- st02&#45;&gt;st0 -->
<g id="edge9" class="edge">
<title>st02&#45;&gt;st0</title>
<path fill="none" stroke="black" d="M697.11,-170.24C691.33,-198.12 677.53,-241.73 646,-262 563.75,-314.88 303.78,-266.44 206,-267 189.11,-267.1 184.81,-268.61 168,-267 164.73,-266.69 161.34,-266.25 157.96,-265.74"/>
<polygon fill="black" stroke="black" points="158.38,-262.26 147.93,-264.02 157.2,-269.16 158.38,-262.26"/>
<text text-anchor="start" x="304" y="-281.8" font-family="arial" font-size="14.00" fill="#377eb8">c1 &gt;= 10</text>
</g>
<!-- st02&#45;&gt;st01X -->
<g id="edge11" class="edge">
<title>st02&#45;&gt;st01X</title>
<path fill="none" stroke="black" d="M663.96,-148.36C623.99,-151.99 558.49,-157.92 502,-163 429.59,-169.51 345.18,-177.05 296.43,-181.4"/>
<polygon fill="black" stroke="black" points="295.95,-177.93 286.3,-182.3 296.57,-184.9 295.95,-177.93"/>
<text text-anchor="start" x="412" y="-193.8" font-family="arial" font-size="14.00" fill="#377eb8">c1 &gt;= 10</text>
<text text-anchor="start" x="420" y="-178.8" font-family="arial" font-size="14.00">c0 :=0</text>
</g>
<!-- st02&#45;&gt;st02 -->
<g id="edge10" class="edge">
<title>st02&#45;&gt;st02</title>
<path fill="none" stroke="black" d="M680.71,-170.18C679.76,-179.91 686.86,-188 702,-188 711.46,-188 717.78,-184.84 720.96,-180.09"/>
<polygon fill="black" stroke="black" points="724.41,-180.71 723.29,-170.18 717.6,-179.11 724.41,-180.71"/>
<text text-anchor="start" x="679" y="-191.8" font-family="arial" font-size="14.00" fill="#377eb8">c1 &lt; 10</text>
</g>
<!-- st01X2 -->
<g id="node7" class="node">
<title>st01X2</title>
<polygon fill="none" stroke="black" points="1044,-196 894,-196 894,-146 1044,-146 1044,-196"/>
<text text-anchor="start" x="947" y="-181.8" font-family="arial" font-weight="bold" font-size="14.00">st01X2</text>
<text text-anchor="start" x="941" y="-167.8" font-family="arial" font-size="14.00" fill="#984ea3">(Q &amp;&amp; R)</text>
<text text-anchor="start" x="902" y="-153.8" font-family="arial" font-size="14.00" fill="#ff7f00">(c0 &lt;= 5 &amp;&amp; c1 &lt;= 10)</text>
</g>
<!-- st02&#45;&gt;st01X2 -->
<g id="edge12" class="edge">
<title>st02&#45;&gt;st01X2</title>
<path fill="none" stroke="black" d="M740.08,-169.2C745.88,-172 751.96,-174.41 758,-176 798.48,-186.62 844.86,-186.72 883.72,-183.59"/>
<polygon fill="black" stroke="black" points="884.3,-187.05 893.95,-182.68 883.68,-180.08 884.3,-187.05"/>
<text text-anchor="start" x="794" y="-204.8" font-family="arial" font-size="14.00" fill="#377eb8">c1 &lt; 10</text>
<text text-anchor="start" x="798" y="-189.8" font-family="arial" font-size="14.00">c0 :=0</text>
</g>
<!-- st012&#45;&gt;st02 -->
<g id="edge19" class="edge">
<title>st012&#45;&gt;st02</title>
<path fill="none" stroke="black" d="M475.25,-32.92C532.18,-45.81 638.76,-70.35 646,-75 660.18,-84.12 672.27,-98.18 681.46,-111.31"/>
<polygon fill="black" stroke="black" points="678.63,-113.37 687.08,-119.75 684.45,-109.49 678.63,-113.37"/>
<text text-anchor="start" x="571" y="-93.8" font-family="arial" font-size="14.00" fill="#377eb8">true</text>
<text text-anchor="start" x="564" y="-78.8" font-family="arial" font-size="14.00">c1 :=0</text>
</g>
<!-- st012&#45;&gt;st012 -->
<g id="edge20" class="edge">
<title>st012&#45;&gt;st012</title>
<path fill="none" stroke="black" d="M418.83,-50.18C417.93,-59.91 424.66,-68 439,-68 447.96,-68 453.95,-64.84 456.96,-60.09"/>
<polygon fill="black" stroke="black" points="460.42,-60.7 459.17,-50.18 453.58,-59.18 460.42,-60.7"/>
<text text-anchor="start" x="427" y="-71.8" font-family="arial" font-size="14.00" fill="#377eb8">true</text>
</g>
<!-- st01X2&#45;&gt;st0 -->
<g id="edge13" class="edge">
<title>st01X2&#45;&gt;st0</title>
<path fill="none" stroke="black" d="M945.14,-196.06C902.29,-240.16 804.97,-327 703,-327 254,-327 254,-327 254,-327 217.65,-327 181.39,-306.32 156.01,-287.6"/>
<polygon fill="black" stroke="black" points="157.91,-284.65 147.84,-281.36 153.66,-290.21 157.91,-284.65"/>
<text text-anchor="start" x="376" y="-330.8" font-family="arial" font-size="14.00" fill="#377eb8">(c0 &lt; 5 &amp;&amp; c1 &gt;= 10)</text>
</g>
<!-- st01X2&#45;&gt;st01X -->
<g id="edge16" class="edge">
<title>st01X2&#45;&gt;st01X</title>
<path fill="none" stroke="black" d="M930.76,-196.19C914.66,-205.63 895.14,-215.22 876,-220 662.84,-273.23 396.16,-219.53 296.25,-195.42"/>
<polygon fill="black" stroke="black" points="296.82,-191.95 286.28,-192.97 295.16,-198.75 296.82,-191.95"/>
<text text-anchor="start" x="520" y="-246.8" font-family="arial" font-size="14.00" fill="#377eb8">(c0 &lt; 5 &amp;&amp; c1 &gt;= 10)</text>
</g>
<!-- st01X2&#45;&gt;st02 -->
<g id="edge14" class="edge">
<title>st01X2&#45;&gt;st02</title>
<path fill="none" stroke="black" d="M895.67,-145.96C889.08,-144.36 882.46,-142.99 876,-142 824.17,-134.02 810.42,-140.57 758,-142 755.49,-142.07 752.92,-142.15 750.32,-142.25"/>
<polygon fill="black" stroke="black" points="750.1,-138.76 740.27,-142.69 750.41,-145.75 750.1,-138.76"/>
<text text-anchor="start" x="794" y="-160.8" font-family="arial" font-size="14.00" fill="#377eb8">c0 &gt;= 5</text>
<text text-anchor="start" x="798" y="-145.8" font-family="arial" font-size="14.00">c1 :=0</text>
</g>
<!-- st01X2&#45;&gt;st02 -->
<g id="edge15" class="edge">
<title>st01X2&#45;&gt;st02</title>
<path fill="none" stroke="black" d="M932.65,-145.88C916.25,-135.71 895.98,-125.17 876,-120 825.23,-106.87 809.26,-108.9 758,-120 755.21,-120.6 752.4,-121.36 749.59,-122.23"/>
<polygon fill="black" stroke="black" points="748.4,-118.94 740.14,-125.58 750.73,-125.54 748.4,-118.94"/>
<text text-anchor="start" x="758" y="-123.8" font-family="arial" font-size="14.00" fill="#377eb8">(c0 &lt; 5 &amp;&amp; c1 &lt; 10)</text>
</g>
<!-- st01X2&#45;&gt;st012 -->
<g id="edge18" class="edge">
<title>st01X2&#45;&gt;st012</title>
<path fill="none" stroke="black" d="M937.26,-145.69C920.1,-132.6 897.83,-117.27 876,-107 743.46,-44.67 567.25,-29.69 485.38,-26.11"/>
<polygon fill="black" stroke="black" points="485.3,-22.61 475.17,-25.7 485.02,-29.6 485.3,-22.61"/>
<text text-anchor="start" x="679" y="-63.8" font-family="arial" font-size="14.00" fill="#377eb8">c0 &gt;= 5</text>
</g>
<!-- st01X2&#45;&gt;st01X2 -->
<g id="edge17" class="edge">
<title>st01X2&#45;&gt;st01X2</title>
<path fill="none" stroke="black" d="M940.61,-196.18C939.35,-205.91 948.81,-214 969,-214 981.62,-214 990.05,-210.84 994.28,-206.09"/>
<polygon fill="black" stroke="black" points="997.74,-206.76 997.39,-196.18 991.06,-204.67 997.74,-206.76"/>
<text text-anchor="start" x="910" y="-217.8" font-family="arial" font-size="14.00" fill="#377eb8">(c0 &lt; 5 &amp;&amp; c1 &lt; 10)</text>
</g>
</g>
</svg>
