<?xml version="1.0" encoding="UTF-8" standalone="no"?>
<!DOCTYPE svg PUBLIC "-//W3C//DTD SVG 1.1//EN"
 "http://www.w3.org/Graphics/SVG/1.1/DTD/svg11.dtd">
<!-- Generated by graphviz version 2.43.0 (0)
 -->
<!-- Title: G Pages: 1 -->
<svg width="1932pt" height="621pt"
 viewBox="0.00 0.00 1932.00 621.00" xmlns="http://www.w3.org/2000/svg" xmlns:xlink="http://www.w3.org/1999/xlink">
<g id="graph0" class="graph" transform="scale(1 1) rotate(0) translate(4 617)">
<title>G</title>
<polygon fill="white" stroke="transparent" points="-4,4 -4,-617 1928,-617 1928,4 -4,4"/>
<!-- _ID_70_ct0_st0 -->
<!-- ID_70_ct0_st0 -->
<g id="node2" class="node">
<title>ID_70_ct0_st0</title>
<polygon fill="none" stroke="black" points="275,-265 168,-265 168,-215 275,-215 275,-265"/>
<text text-anchor="start" x="176" y="-250.8" font-family="arial" font-weight="bold" font-size="14.00">ID_70_ct0_st0</text>
<text text-anchor="start" x="213.5" y="-236.8" font-family="arial" font-size="14.00" fill="#984ea3">!Q</text>
<text text-anchor="start" x="209.5" y="-222.8" font-family="arial" font-size="14.00" fill="#ff7f00">true</text>
</g>
<!-- _ID_70_ct0_st0&#45;&gt;ID_70_ct0_st0 -->
<g id="edge1" class="edge">
<title>_ID_70_ct0_st0&#45;&gt;ID_70_ct0_st0</title>
<path fill="none" stroke="black" d="M111.11,-240C125.95,-240 142.14,-240 157.41,-240"/>
<polygon fill="black" stroke="black" points="157.8,-243.5 167.8,-240 157.8,-236.5 157.8,-243.5"/>
</g>
<!-- ID_70_ct0_st0&#45;&gt;ID_70_ct0_st0 -->
<g id="edge4" class="edge">
<title>ID_70_ct0_st0&#45;&gt;ID_70_ct0_st0</title>
<path fill="none" stroke="black" d="M204.32,-265.18C203.55,-274.91 209.28,-283 221.5,-283 229.14,-283 234.24,-279.84 236.8,-275.09"/>
<polygon fill="black" stroke="black" points="240.26,-275.65 238.68,-265.18 233.38,-274.35 240.26,-275.65"/>
<text text-anchor="start" x="209.5" y="-286.8" font-family="arial" font-size="14.00" fill="#377eb8">true</text>
</g>
<!-- ID_70_ct0_st012 -->
<g id="node4" class="node">
<title>ID_70_ct0_st012</title>
<polygon fill="none" stroke="black" points="903,-237 781,-237 781,-187 903,-187 903,-237"/>
<text text-anchor="start" x="789" y="-222.8" font-family="arial" font-weight="bold" font-size="14.00">ID_70_ct0_st012</text>
<text text-anchor="start" x="812.5" y="-208.8" font-family="arial" font-size="14.00" fill="#984ea3">(Q &amp;&amp; !S)</text>
<text text-anchor="start" x="830" y="-194.8" font-family="arial" font-size="14.00" fill="#ff7f00">true</text>
</g>
<!-- ID_70_ct0_st0&#45;&gt;ID_70_ct0_st012 -->
<g id="edge5" class="edge">
<title>ID_70_ct0_st0&#45;&gt;ID_70_ct0_st012</title>
<path fill="none" stroke="black" d="M275.23,-237.61C386.47,-232.58 645.2,-220.86 770.5,-215.19"/>
<polygon fill="black" stroke="black" points="770.91,-218.68 780.74,-214.73 770.59,-211.68 770.91,-218.68"/>
<text text-anchor="start" x="537" y="-229.8" font-family="arial" font-size="14.00" fill="#377eb8">true</text>
</g>
<!-- ID_70_ct0_st0123W -->
<g id="node6" class="node">
<title>ID_70_ct0_st0123W</title>
<polygon fill="none" stroke="black" points="512,-373 369,-373 369,-323 512,-323 512,-373"/>
<text text-anchor="start" x="377" y="-358.8" font-family="arial" font-weight="bold" font-size="14.00">ID_70_ct0_st0123W</text>
<text text-anchor="start" x="413" y="-344.8" font-family="arial" font-size="14.00" fill="#984ea3">(Q &amp;&amp; S)</text>
<text text-anchor="start" x="417.5" y="-330.8" font-family="arial" font-size="14.00" fill="#ff7f00">c0 &lt;= 5</text>
</g>
<!-- ID_70_ct0_st0&#45;&gt;ID_70_ct0_st0123W -->
<g id="edge6" class="edge">
<title>ID_70_ct0_st0&#45;&gt;ID_70_ct0_st0123W</title>
<path fill="none" stroke="black" d="M272.83,-265.05C304.76,-280.94 346.23,-301.58 379.82,-318.3"/>
<polygon fill="black" stroke="black" points="378.56,-321.58 389.07,-322.9 381.67,-315.31 378.56,-321.58"/>
<text text-anchor="start" x="320" y="-321.8" font-family="arial" font-size="14.00" fill="#377eb8">true</text>
<text text-anchor="start" x="313" y="-306.8" font-family="arial" font-size="14.00">c0 :=0</text>
</g>
<!-- _ID_70_ct0_st012 -->
<!-- _ID_70_ct0_st012&#45;&gt;ID_70_ct0_st012 -->
<g id="edge2" class="edge">
<title>_ID_70_ct0_st012&#45;&gt;ID_70_ct0_st012</title>
<path fill="none" stroke="black" d="M716.6,-190.66C733.87,-193.62 752.76,-196.86 770.48,-199.9"/>
<polygon fill="black" stroke="black" points="770.3,-203.42 780.75,-201.66 771.49,-196.52 770.3,-203.42"/>
</g>
<!-- ID_70_ct0_st012&#45;&gt;ID_70_ct0_st012 -->
<g id="edge13" class="edge">
<title>ID_70_ct0_st012&#45;&gt;ID_70_ct0_st012</title>
<path fill="none" stroke="black" d="M825.19,-237.18C824.44,-246.91 830.05,-255 842,-255 849.47,-255 854.46,-251.84 856.97,-247.09"/>
<polygon fill="black" stroke="black" points="860.43,-247.65 858.81,-237.18 853.54,-246.37 860.43,-247.65"/>
<text text-anchor="start" x="830" y="-258.8" font-family="arial" font-size="14.00" fill="#377eb8">true</text>
</g>
<!-- ID_70_ct0_st02 -->
<g id="node7" class="node">
<title>ID_70_ct0_st02</title>
<polygon fill="none" stroke="black" points="1077,-303 963,-303 963,-253 1077,-253 1077,-303"/>
<text text-anchor="start" x="971" y="-288.8" font-family="arial" font-weight="bold" font-size="14.00">ID_70_ct0_st02</text>
<text text-anchor="start" x="988.5" y="-274.8" font-family="arial" font-size="14.00" fill="#984ea3">(!Q &amp;&amp; !S)</text>
<text text-anchor="start" x="1008" y="-260.8" font-family="arial" font-size="14.00" fill="#ff7f00">true</text>
</g>
<!-- ID_70_ct0_st012&#45;&gt;ID_70_ct0_st02 -->
<g id="edge11" class="edge">
<title>ID_70_ct0_st012&#45;&gt;ID_70_ct0_st02</title>
<path fill="none" stroke="black" d="M883.68,-237.16C895.41,-243.66 908.44,-250.17 921,-255 931.12,-258.89 942.08,-262.25 952.89,-265.1"/>
<polygon fill="black" stroke="black" points="952.2,-268.53 962.75,-267.57 953.9,-261.74 952.2,-268.53"/>
<text text-anchor="start" x="921" y="-265.8" font-family="arial" font-size="14.00" fill="#377eb8">true</text>
</g>
<!-- ID_70_ct0_st023X -->
<g id="node8" class="node">
<title>ID_70_ct0_st023X</title>
<polygon fill="none" stroke="black" points="1531,-237 1400,-237 1400,-187 1531,-187 1531,-237"/>
<text text-anchor="start" x="1408" y="-222.8" font-family="arial" font-weight="bold" font-size="14.00">ID_70_ct0_st023X</text>
<text text-anchor="start" x="1436" y="-208.8" font-family="arial" font-size="14.00" fill="#984ea3">(!Q &amp;&amp; S)</text>
<text text-anchor="start" x="1442.5" y="-194.8" font-family="arial" font-size="14.00" fill="#ff7f00">c0 &lt;= 5</text>
</g>
<!-- ID_70_ct0_st012&#45;&gt;ID_70_ct0_st023X -->
<g id="edge12" class="edge">
<title>ID_70_ct0_st012&#45;&gt;ID_70_ct0_st023X</title>
<path fill="none" stroke="black" d="M859.96,-186.71C874.77,-165.56 897.51,-135.22 921,-112 979.49,-54.17 1013.3,-58.46 1095,-49 1197.2,-37.16 1229.85,-27.38 1326,-64 1354.83,-74.98 1364.99,-79.27 1382,-105 1399.64,-131.68 1381.72,-150.99 1398.5,-178.5"/>
<polygon fill="black" stroke="black" points="1395.86,-180.83 1404.55,-186.9 1401.54,-176.74 1395.86,-180.83"/>
<text text-anchor="start" x="1120.5" y="-67.8" font-family="arial" font-size="14.00" fill="#377eb8">true</text>
<text text-anchor="start" x="1113.5" y="-52.8" font-family="arial" font-size="14.00">c0 :=0</text>
</g>
<!-- ID_70_ct0_st0123X -->
<g id="node9" class="node">
<title>ID_70_ct0_st0123X</title>
<polygon fill="none" stroke="black" points="1326,-123 1188,-123 1188,-73 1326,-73 1326,-123"/>
<text text-anchor="start" x="1196" y="-108.8" font-family="arial" font-weight="bold" font-size="14.00">ID_70_ct0_st0123X</text>
<text text-anchor="start" x="1229.5" y="-94.8" font-family="arial" font-size="14.00" fill="#984ea3">(Q &amp;&amp; S)</text>
<text text-anchor="start" x="1234" y="-80.8" font-family="arial" font-size="14.00" fill="#ff7f00">c0 &lt;= 5</text>
</g>
<!-- ID_70_ct0_st012&#45;&gt;ID_70_ct0_st0123X -->
<g id="edge14" class="edge">
<title>ID_70_ct0_st012&#45;&gt;ID_70_ct0_st0123X</title>
<path fill="none" stroke="black" d="M886.83,-186.99C909.06,-175.21 936.83,-161.84 963,-153 1033.69,-129.12 1117.68,-114.7 1177.57,-106.65"/>
<polygon fill="black" stroke="black" points="1178.26,-110.09 1187.72,-105.32 1177.35,-103.15 1178.26,-110.09"/>
<text text-anchor="start" x="1008" y="-171.8" font-family="arial" font-size="14.00" fill="#377eb8">true</text>
<text text-anchor="start" x="1001" y="-156.8" font-family="arial" font-size="14.00">c0 :=0</text>
</g>
<!-- _ID_70_ct0_st0123W -->
<!-- _ID_70_ct0_st0123W&#45;&gt;ID_70_ct0_st0123W -->
<g id="edge3" class="edge">
<title>_ID_70_ct0_st0123W&#45;&gt;ID_70_ct0_st0123W</title>
<path fill="none" stroke="black" d="M295.06,-348C315.5,-348 337.85,-348 358.73,-348"/>
<polygon fill="black" stroke="black" points="358.85,-351.5 368.85,-348 358.85,-344.5 358.85,-351.5"/>
</g>
<!-- ID_70_ct0_st0123W&#45;&gt;ID_70_ct0_st012 -->
<g id="edge34" class="edge">
<title>ID_70_ct0_st0123W&#45;&gt;ID_70_ct0_st012</title>
<path fill="none" stroke="black" d="M484.24,-322.8C498.47,-315.09 514.62,-307.05 530,-301 629.61,-261.8 660.72,-271.58 763,-240 765.62,-239.19 768.27,-238.35 770.95,-237.48"/>
<polygon fill="black" stroke="black" points="772.32,-240.72 780.71,-234.25 770.12,-234.07 772.32,-240.72"/>
<text text-anchor="start" x="641.5" y="-284.8" font-family="arial" font-size="14.00" fill="#377eb8">true</text>
</g>
<!-- ID_70_ct0_st0123W&#45;&gt;ID_70_ct0_st0123W -->
<g id="edge35" class="edge">
<title>ID_70_ct0_st0123W&#45;&gt;ID_70_ct0_st0123W</title>
<path fill="none" stroke="black" d="M420.33,-373.18C419.43,-382.91 426.16,-391 440.5,-391 449.46,-391 455.45,-387.84 458.46,-383.09"/>
<polygon fill="black" stroke="black" points="461.92,-383.7 460.67,-373.18 455.08,-382.18 461.92,-383.7"/>
<text text-anchor="start" x="421.5" y="-394.8" font-family="arial" font-size="14.00" fill="#377eb8">c0 &lt; 5</text>
</g>
<!-- ID_70_ct0_st0123W&#45;&gt;ID_70_ct0_st02 -->
<g id="edge31" class="edge">
<title>ID_70_ct0_st0123W&#45;&gt;ID_70_ct0_st02</title>
<path fill="none" stroke="black" d="M512.02,-339.45C624.51,-325.82 843,-299.33 952.74,-286.03"/>
<polygon fill="black" stroke="black" points="953.19,-289.5 962.69,-284.83 952.34,-282.55 953.19,-289.5"/>
<text text-anchor="start" x="739" y="-314.8" font-family="arial" font-size="14.00" fill="#377eb8">true</text>
</g>
<!-- ID_70_ct0_st023W -->
<g id="node10" class="node">
<title>ID_70_ct0_st023W</title>
<polygon fill="none" stroke="black" points="721,-411 586,-411 586,-361 721,-361 721,-411"/>
<text text-anchor="start" x="594" y="-396.8" font-family="arial" font-weight="bold" font-size="14.00">ID_70_ct0_st023W</text>
<text text-anchor="start" x="624" y="-382.8" font-family="arial" font-size="14.00" fill="#984ea3">(!Q &amp;&amp; S)</text>
<text text-anchor="start" x="630.5" y="-368.8" font-family="arial" font-size="14.00" fill="#ff7f00">c0 &lt;= 5</text>
</g>
<!-- ID_70_ct0_st0123W&#45;&gt;ID_70_ct0_st023W -->
<g id="edge32" class="edge">
<title>ID_70_ct0_st0123W&#45;&gt;ID_70_ct0_st023W</title>
<path fill="none" stroke="black" d="M512.03,-360.76C518.11,-361.86 524.16,-362.95 530,-364 544.83,-366.67 560.67,-369.52 575.86,-372.25"/>
<polygon fill="black" stroke="black" points="575.28,-375.7 585.74,-374.03 576.52,-368.81 575.28,-375.7"/>
<text text-anchor="start" x="530" y="-373.8" font-family="arial" font-size="14.00" fill="#377eb8">c0 &lt; 5</text>
</g>
<!-- ID_70_ct0_st023 -->
<g id="node11" class="node">
<title>ID_70_ct0_st023</title>
<polygon fill="none" stroke="black" points="1924,-386 1802,-386 1802,-336 1924,-336 1924,-386"/>
<text text-anchor="start" x="1810" y="-371.8" font-family="arial" font-weight="bold" font-size="14.00">ID_70_ct0_st023</text>
<text text-anchor="start" x="1811.5" y="-357.8" font-family="arial" font-size="14.00" fill="#984ea3">(!Q &amp;&amp; (R &amp;&amp; S))</text>
<text text-anchor="start" x="1851" y="-343.8" font-family="arial" font-size="14.00" fill="#ff7f00">true</text>
</g>
<!-- ID_70_ct0_st0123W&#45;&gt;ID_70_ct0_st023 -->
<g id="edge33" class="edge">
<title>ID_70_ct0_st0123W&#45;&gt;ID_70_ct0_st023</title>
<path fill="none" stroke="black" d="M449.27,-373.35C470.49,-436.9 535.79,-598 652.5,-598 652.5,-598 652.5,-598 1678.5,-598 1779.27,-598 1832.58,-462.4 1852.58,-396.34"/>
<polygon fill="black" stroke="black" points="1856.05,-396.94 1855.5,-386.36 1849.33,-394.97 1856.05,-396.94"/>
<text text-anchor="start" x="1109.5" y="-601.8" font-family="arial" font-size="14.00" fill="#377eb8">c0 &gt;= 5</text>
</g>
<!-- ID_70_ct0_st0123 -->
<g id="node12" class="node">
<title>ID_70_ct0_st0123</title>
<polygon fill="none" stroke="black" points="1742,-386 1613,-386 1613,-336 1742,-336 1742,-386"/>
<text text-anchor="start" x="1621" y="-371.8" font-family="arial" font-weight="bold" font-size="14.00">ID_70_ct0_st0123</text>
<text text-anchor="start" x="1627.5" y="-357.8" font-family="arial" font-size="14.00" fill="#984ea3">(Q &amp;&amp; (R &amp;&amp; S))</text>
<text text-anchor="start" x="1665.5" y="-343.8" font-family="arial" font-size="14.00" fill="#ff7f00">true</text>
</g>
<!-- ID_70_ct0_st0123W&#45;&gt;ID_70_ct0_st0123 -->
<g id="edge36" class="edge">
<title>ID_70_ct0_st0123W&#45;&gt;ID_70_ct0_st0123</title>
<path fill="none" stroke="black" d="M452.64,-373.38C478.81,-428.66 549.87,-555 652.5,-555 652.5,-555 652.5,-555 1466.5,-555 1559.59,-555 1629,-450.87 1659.46,-395.18"/>
<polygon fill="black" stroke="black" points="1662.55,-396.83 1664.18,-386.36 1656.38,-393.53 1662.55,-396.83"/>
<text text-anchor="start" x="997" y="-558.8" font-family="arial" font-size="14.00" fill="#377eb8">c0 &gt;= 5</text>
</g>
<!-- ID_70_ct0_st02&#45;&gt;ID_70_ct0_st012 -->
<g id="edge9" class="edge">
<title>ID_70_ct0_st02&#45;&gt;ID_70_ct0_st012</title>
<path fill="none" stroke="black" d="M973.89,-252.97C964.5,-248.3 954.56,-243.72 945,-240 934.78,-236.02 923.78,-232.38 912.91,-229.13"/>
<polygon fill="black" stroke="black" points="913.58,-225.67 903,-226.25 911.63,-232.4 913.58,-225.67"/>
<text text-anchor="start" x="921" y="-243.8" font-family="arial" font-size="14.00" fill="#377eb8">true</text>
</g>
<!-- ID_70_ct0_st02&#45;&gt;ID_70_ct0_st02 -->
<g id="edge7" class="edge">
<title>ID_70_ct0_st02&#45;&gt;ID_70_ct0_st02</title>
<path fill="none" stroke="black" d="M1003.94,-303.18C1003.22,-312.91 1008.58,-321 1020,-321 1027.14,-321 1031.91,-317.84 1034.31,-313.09"/>
<polygon fill="black" stroke="black" points="1037.76,-313.63 1036.06,-303.18 1030.87,-312.41 1037.76,-313.63"/>
<text text-anchor="start" x="1008" y="-324.8" font-family="arial" font-size="14.00" fill="#377eb8">true</text>
</g>
<!-- ID_70_ct0_st02&#45;&gt;ID_70_ct0_st023X -->
<g id="edge8" class="edge">
<title>ID_70_ct0_st02&#45;&gt;ID_70_ct0_st023X</title>
<path fill="none" stroke="black" d="M1077.33,-280.11C1105.25,-280.62 1139.44,-280.43 1170,-278 1265.12,-270.42 1289.89,-268.95 1382,-244 1386.09,-242.89 1390.25,-241.65 1394.43,-240.32"/>
<polygon fill="black" stroke="black" points="1395.79,-243.56 1404.16,-237.07 1393.57,-236.92 1395.79,-243.56"/>
<text text-anchor="start" x="1245" y="-294.8" font-family="arial" font-size="14.00" fill="#377eb8">true</text>
<text text-anchor="start" x="1238" y="-279.8" font-family="arial" font-size="14.00">c0 :=0</text>
</g>
<!-- ID_70_ct0_st02&#45;&gt;ID_70_ct0_st0123X -->
<g id="edge10" class="edge">
<title>ID_70_ct0_st02&#45;&gt;ID_70_ct0_st0123X</title>
<path fill="none" stroke="black" d="M1050.07,-252.77C1063.13,-242.43 1079.15,-231.02 1095,-223 1126.11,-207.26 1140.91,-219.22 1170,-200 1196.61,-182.41 1219.48,-154.23 1234.93,-131.94"/>
<polygon fill="black" stroke="black" points="1237.99,-133.66 1240.68,-123.41 1232.19,-129.75 1237.99,-133.66"/>
<text text-anchor="start" x="1120.5" y="-241.8" font-family="arial" font-size="14.00" fill="#377eb8">true</text>
<text text-anchor="start" x="1113.5" y="-226.8" font-family="arial" font-size="14.00">c0 :=0</text>
</g>
<!-- ID_70_ct0_st023X&#45;&gt;ID_70_ct0_st012 -->
<g id="edge24" class="edge">
<title>ID_70_ct0_st023X&#45;&gt;ID_70_ct0_st012</title>
<path fill="none" stroke="black" d="M1399.82,-200.88C1326.11,-189.53 1201.98,-174.44 1095,-181 1090.44,-181.28 986.2,-194.19 913.23,-203.26"/>
<polygon fill="black" stroke="black" points="912.65,-199.8 903.16,-204.51 913.52,-206.75 912.65,-199.8"/>
<text text-anchor="start" x="1095" y="-184.8" font-family="arial" font-size="14.00" fill="#377eb8">(R&#39; || c0 &lt; 5)</text>
</g>
<!-- ID_70_ct0_st023X&#45;&gt;ID_70_ct0_st02 -->
<g id="edge21" class="edge">
<title>ID_70_ct0_st023X&#45;&gt;ID_70_ct0_st02</title>
<path fill="none" stroke="black" d="M1399.81,-208.33C1342.21,-207.36 1256.66,-211.64 1188,-239 1178.59,-242.75 1179.28,-248.93 1170,-253 1144.12,-264.36 1113.64,-270.58 1087.01,-273.99"/>
<polygon fill="black" stroke="black" points="1086.53,-270.52 1077,-275.16 1087.34,-277.47 1086.53,-270.52"/>
<text text-anchor="start" x="1219.5" y="-242.8" font-family="arial" font-size="14.00" fill="#377eb8">(R&#39; || c0 &lt; 5)</text>
</g>
<!-- ID_70_ct0_st023X&#45;&gt;ID_70_ct0_st023X -->
<g id="edge22" class="edge">
<title>ID_70_ct0_st023X&#45;&gt;ID_70_ct0_st023X</title>
<path fill="none" stroke="black" d="M1446.45,-237.18C1445.6,-246.91 1451.95,-255 1465.5,-255 1473.97,-255 1479.62,-251.84 1482.47,-247.09"/>
<polygon fill="black" stroke="black" points="1485.92,-247.68 1484.55,-237.18 1479.07,-246.24 1485.92,-247.68"/>
<text text-anchor="start" x="1446.5" y="-258.8" font-family="arial" font-size="14.00" fill="#377eb8">c0 &lt; 5</text>
</g>
<!-- ID_70_ct0_st023X&#45;&gt;ID_70_ct0_st0123X -->
<g id="edge25" class="edge">
<title>ID_70_ct0_st023X&#45;&gt;ID_70_ct0_st0123X</title>
<path fill="none" stroke="black" d="M1426.36,-186.86C1412.57,-178.06 1396.75,-168.31 1382,-160 1362.18,-148.83 1340.09,-137.46 1320.11,-127.56"/>
<polygon fill="black" stroke="black" points="1321.61,-124.39 1311.09,-123.11 1318.52,-130.67 1321.61,-124.39"/>
<text text-anchor="start" x="1344" y="-163.8" font-family="arial" font-size="14.00" fill="#377eb8">c0 &lt; 5</text>
</g>
<!-- ID_70_ct0_st023X&#45;&gt;ID_70_ct0_st023 -->
<g id="edge23" class="edge">
<title>ID_70_ct0_st023X&#45;&gt;ID_70_ct0_st023</title>
<path fill="none" stroke="black" d="M1531.06,-234.62C1587.07,-254.44 1670.19,-284.32 1742,-312 1758.41,-318.33 1775.99,-325.36 1792.49,-332.07"/>
<polygon fill="black" stroke="black" points="1791.48,-335.44 1802.06,-335.98 1794.13,-328.96 1791.48,-335.44"/>
<text text-anchor="start" x="1654.5" y="-315.8" font-family="arial" font-size="14.00" fill="#377eb8">c0 &gt;= 5</text>
</g>
<!-- ID_70_ct0_st023X&#45;&gt;ID_70_ct0_st0123 -->
<g id="edge26" class="edge">
<title>ID_70_ct0_st023X&#45;&gt;ID_70_ct0_st0123</title>
<path fill="none" stroke="black" d="M1502.12,-237.28C1538.13,-262.83 1593.85,-302.36 1632.57,-329.83"/>
<polygon fill="black" stroke="black" points="1630.87,-332.92 1641.05,-335.85 1634.92,-327.21 1630.87,-332.92"/>
<text text-anchor="start" x="1549" y="-302.8" font-family="arial" font-size="14.00" fill="#377eb8">c0 &gt;= 5</text>
</g>
<!-- ID_70_ct0_st0123X&#45;&gt;ID_70_ct0_st012 -->
<g id="edge40" class="edge">
<title>ID_70_ct0_st0123X&#45;&gt;ID_70_ct0_st012</title>
<path fill="none" stroke="black" d="M1187.95,-87.08C1126.83,-80.2 1035.79,-77.31 963,-106 924.96,-120.99 891.02,-153.75 869.03,-178.9"/>
<polygon fill="black" stroke="black" points="866.14,-176.89 862.31,-186.77 871.47,-181.44 866.14,-176.89"/>
<text text-anchor="start" x="982.5" y="-109.8" font-family="arial" font-size="14.00" fill="#377eb8">(R&#39; || c0 &lt; 5)</text>
</g>
<!-- ID_70_ct0_st0123X&#45;&gt;ID_70_ct0_st02 -->
<g id="edge37" class="edge">
<title>ID_70_ct0_st0123X&#45;&gt;ID_70_ct0_st02</title>
<path fill="none" stroke="black" d="M1187.56,-118.68C1143.95,-131.88 1095.5,-146.6 1095,-147 1086.5,-153.82 1057.64,-207.4 1038.58,-243.89"/>
<polygon fill="black" stroke="black" points="1035.47,-242.27 1033.96,-252.76 1041.68,-245.51 1035.47,-242.27"/>
<text text-anchor="start" x="1095" y="-150.8" font-family="arial" font-size="14.00" fill="#377eb8">(R&#39; || c0 &lt; 5)</text>
</g>
<!-- ID_70_ct0_st0123X&#45;&gt;ID_70_ct0_st023X -->
<g id="edge38" class="edge">
<title>ID_70_ct0_st0123X&#45;&gt;ID_70_ct0_st023X</title>
<path fill="none" stroke="black" d="M1326.04,-103.21C1345.02,-106.73 1365.06,-112.53 1382,-122 1406.44,-135.67 1427.63,-159.21 1442.41,-178.78"/>
<polygon fill="black" stroke="black" points="1439.61,-180.88 1448.35,-186.88 1445.26,-176.75 1439.61,-180.88"/>
<text text-anchor="start" x="1344" y="-125.8" font-family="arial" font-size="14.00" fill="#377eb8">c0 &lt; 5</text>
</g>
<!-- ID_70_ct0_st0123X&#45;&gt;ID_70_ct0_st0123X -->
<g id="edge41" class="edge">
<title>ID_70_ct0_st0123X&#45;&gt;ID_70_ct0_st0123X</title>
<path fill="none" stroke="black" d="M1237.2,-123.18C1236.32,-132.91 1242.92,-141 1257,-141 1265.8,-141 1271.68,-137.84 1274.63,-133.09"/>
<polygon fill="black" stroke="black" points="1278.08,-133.69 1276.8,-123.18 1271.24,-132.2 1278.08,-133.69"/>
<text text-anchor="start" x="1238" y="-144.8" font-family="arial" font-size="14.00" fill="#377eb8">c0 &lt; 5</text>
</g>
<!-- ID_70_ct0_st0123X&#45;&gt;ID_70_ct0_st023 -->
<g id="edge39" class="edge">
<title>ID_70_ct0_st0123X&#45;&gt;ID_70_ct0_st023</title>
<path fill="none" stroke="black" d="M1326.09,-87.41C1382.68,-81.35 1464.42,-79.08 1531,-103 1661.59,-149.91 1781.07,-269.81 1833.69,-328.14"/>
<polygon fill="black" stroke="black" points="1831.1,-330.49 1840.37,-335.61 1836.32,-325.83 1831.1,-330.49"/>
<text text-anchor="start" x="1549" y="-135.8" font-family="arial" font-size="14.00" fill="#377eb8">c0 &gt;= 5</text>
</g>
<!-- ID_70_ct0_st0123X&#45;&gt;ID_70_ct0_st0123 -->
<g id="edge42" class="edge">
<title>ID_70_ct0_st0123X&#45;&gt;ID_70_ct0_st0123</title>
<path fill="none" stroke="black" d="M1326.14,-97.73C1386.46,-100.99 1473.59,-114.7 1531,-163 1573.11,-198.43 1572.92,-218.59 1595,-269 1605.3,-292.51 1596.68,-306.1 1611.36,-327.74"/>
<polygon fill="black" stroke="black" points="1608.69,-330.01 1617.59,-335.75 1614.22,-325.71 1608.69,-330.01"/>
<text text-anchor="start" x="1442.5" y="-166.8" font-family="arial" font-size="14.00" fill="#377eb8">c0 &gt;= 5</text>
</g>
<!-- ID_70_ct0_st023W&#45;&gt;ID_70_ct0_st012 -->
<g id="edge18" class="edge">
<title>ID_70_ct0_st023W&#45;&gt;ID_70_ct0_st012</title>
<path fill="none" stroke="black" d="M718.89,-360.98C734.36,-353.15 750.12,-343.48 763,-332 789.93,-308 811.4,-272.63 824.94,-246.5"/>
<polygon fill="black" stroke="black" points="828.19,-247.84 829.57,-237.33 821.94,-244.68 828.19,-247.84"/>
<text text-anchor="start" x="739" y="-352.8" font-family="arial" font-size="14.00" fill="#377eb8">true</text>
</g>
<!-- ID_70_ct0_st023W&#45;&gt;ID_70_ct0_st0123W -->
<g id="edge19" class="edge">
<title>ID_70_ct0_st023W&#45;&gt;ID_70_ct0_st0123W</title>
<path fill="none" stroke="black" d="M604.47,-360.99C592.83,-356.06 580.22,-351.61 568,-349 553.52,-345.91 537.88,-344.38 522.71,-343.8"/>
<polygon fill="black" stroke="black" points="522.39,-340.29 512.31,-343.54 522.22,-347.28 522.39,-340.29"/>
<text text-anchor="start" x="530" y="-352.8" font-family="arial" font-size="14.00" fill="#377eb8">c0 &lt; 5</text>
</g>
<!-- ID_70_ct0_st023W&#45;&gt;ID_70_ct0_st02 -->
<g id="edge15" class="edge">
<title>ID_70_ct0_st023W&#45;&gt;ID_70_ct0_st02</title>
<path fill="none" stroke="black" d="M721.2,-381.03C781.67,-374.66 872.21,-360.4 945,-329 956.98,-323.83 969.03,-316.6 979.83,-309.2"/>
<polygon fill="black" stroke="black" points="982.06,-311.9 988.2,-303.26 978.01,-306.19 982.06,-311.9"/>
<text text-anchor="start" x="830" y="-375.8" font-family="arial" font-size="14.00" fill="#377eb8">true</text>
</g>
<!-- ID_70_ct0_st023W&#45;&gt;ID_70_ct0_st023W -->
<g id="edge16" class="edge">
<title>ID_70_ct0_st023W&#45;&gt;ID_70_ct0_st023W</title>
<path fill="none" stroke="black" d="M635.57,-411.18C634.77,-420.91 640.75,-429 653.5,-429 661.47,-429 666.79,-425.84 669.47,-421.09"/>
<polygon fill="black" stroke="black" points="672.92,-421.66 671.43,-411.18 666.06,-420.31 672.92,-421.66"/>
<text text-anchor="start" x="634.5" y="-432.8" font-family="arial" font-size="14.00" fill="#377eb8">c0 &lt; 5</text>
</g>
<!-- ID_70_ct0_st023W&#45;&gt;ID_70_ct0_st023 -->
<g id="edge17" class="edge">
<title>ID_70_ct0_st023W&#45;&gt;ID_70_ct0_st023</title>
<path fill="none" stroke="black" d="M697.34,-411.15C710.39,-418.02 724.99,-424.96 739,-430 756.96,-436.47 762.18,-435.81 781,-439 1037.59,-482.53 1101.75,-512 1362,-512 1362,-512 1362,-512 1678.5,-512 1751.8,-512 1811.73,-439.28 1841.56,-394.77"/>
<polygon fill="black" stroke="black" points="1844.57,-396.56 1847.11,-386.27 1838.71,-392.73 1844.57,-396.56"/>
<text text-anchor="start" x="1234" y="-514.8" font-family="arial" font-size="14.00" fill="#377eb8">c0 &gt;= 5</text>
</g>
<!-- ID_70_ct0_st023W&#45;&gt;ID_70_ct0_st0123 -->
<g id="edge20" class="edge">
<title>ID_70_ct0_st023W&#45;&gt;ID_70_ct0_st0123</title>
<path fill="none" stroke="black" d="M721.02,-408.48C756.25,-418.46 800.51,-428 841,-428 841,-428 841,-428 1133.5,-428 1339.63,-428 1392.05,-418.04 1595,-382 1597.52,-381.55 1600.07,-381.07 1602.65,-380.55"/>
<polygon fill="black" stroke="black" points="1603.58,-383.93 1612.64,-378.44 1602.13,-377.09 1603.58,-383.93"/>
<text text-anchor="start" x="1109.5" y="-431.8" font-family="arial" font-size="14.00" fill="#377eb8">c0 &gt;= 5</text>
</g>
<!-- ID_70_ct0_st023&#45;&gt;ID_70_ct0_st012 -->
<g id="edge29" class="edge">
<title>ID_70_ct0_st023&#45;&gt;ID_70_ct0_st012</title>
<path fill="none" stroke="black" d="M1861,-335.9C1856.28,-254.04 1829.48,0 1678.5,0 1019,0 1019,0 1019,0 927.92,0 874.96,-117.27 853.81,-177.37"/>
<polygon fill="black" stroke="black" points="850.49,-176.25 850.57,-186.85 857.11,-178.52 850.49,-176.25"/>
<text text-anchor="start" x="1356.5" y="-3.8" font-family="arial" font-size="14.00" fill="#377eb8">R&#39;</text>
</g>
<!-- ID_70_ct0_st023&#45;&gt;ID_70_ct0_st02 -->
<g id="edge27" class="edge">
<title>ID_70_ct0_st023&#45;&gt;ID_70_ct0_st02</title>
<path fill="none" stroke="black" d="M1827.12,-386.02C1804.12,-401.07 1772.68,-419 1742,-428 1672.98,-448.23 1155.2,-486.36 1095,-447 1049.75,-417.41 1032,-353.36 1025.16,-313.16"/>
<polygon fill="black" stroke="black" points="1028.61,-312.59 1023.61,-303.25 1021.69,-313.67 1028.61,-312.59"/>
<text text-anchor="start" x="1459" y="-463.8" font-family="arial" font-size="14.00" fill="#377eb8">R&#39;</text>
</g>
<!-- ID_70_ct0_st023&#45;&gt;ID_70_ct0_st023 -->
<g id="edge28" class="edge">
<title>ID_70_ct0_st023&#45;&gt;ID_70_ct0_st023</title>
<path fill="none" stroke="black" d="M1846.19,-386.18C1845.44,-395.91 1851.05,-404 1863,-404 1870.47,-404 1875.46,-400.84 1877.97,-396.09"/>
<polygon fill="black" stroke="black" points="1881.43,-396.65 1879.81,-386.18 1874.54,-395.37 1881.43,-396.65"/>
<text text-anchor="start" x="1851" y="-407.8" font-family="arial" font-size="14.00" fill="#377eb8">true</text>
</g>
<!-- ID_70_ct0_st023&#45;&gt;ID_70_ct0_st0123 -->
<g id="edge30" class="edge">
<title>ID_70_ct0_st023&#45;&gt;ID_70_ct0_st0123</title>
<path fill="none" stroke="black" d="M1801.84,-361C1786.01,-361 1768.75,-361 1752.29,-361"/>
<polygon fill="black" stroke="black" points="1752.16,-357.5 1742.16,-361 1752.16,-364.5 1752.16,-357.5"/>
<text text-anchor="start" x="1760" y="-364.8" font-family="arial" font-size="14.00" fill="#377eb8">true</text>
</g>
<!-- ID_70_ct0_st0123&#45;&gt;ID_70_ct0_st012 -->
<g id="edge45" class="edge">
<title>ID_70_ct0_st0123&#45;&gt;ID_70_ct0_st012</title>
<path fill="none" stroke="black" d="M1612.92,-366C1460.26,-376.99 1077.19,-398.24 963,-345 918.17,-324.1 882.73,-277.83 862.31,-245.79"/>
<polygon fill="black" stroke="black" points="865.2,-243.81 856.95,-237.16 859.25,-247.5 865.2,-243.81"/>
<text text-anchor="start" x="1250.5" y="-382.8" font-family="arial" font-size="14.00" fill="#377eb8">R&#39;</text>
</g>
<!-- ID_70_ct0_st0123&#45;&gt;ID_70_ct0_st02 -->
<g id="edge43" class="edge">
<title>ID_70_ct0_st0123&#45;&gt;ID_70_ct0_st02</title>
<path fill="none" stroke="black" d="M1612.68,-355.91C1519.22,-348.1 1339.72,-331.75 1188,-310 1154.66,-305.22 1117.86,-298.34 1087.31,-292.19"/>
<polygon fill="black" stroke="black" points="1087.71,-288.7 1077.21,-290.13 1086.31,-295.56 1087.71,-288.7"/>
<text text-anchor="start" x="1356.5" y="-336.8" font-family="arial" font-size="14.00" fill="#377eb8">R&#39;</text>
</g>
<!-- ID_70_ct0_st0123&#45;&gt;ID_70_ct0_st023 -->
<g id="edge44" class="edge">
<title>ID_70_ct0_st0123&#45;&gt;ID_70_ct0_st023</title>
<path fill="none" stroke="black" d="M1742.2,-343.31C1755.94,-341.24 1770.42,-340.37 1784,-342 1786.54,-342.31 1789.12,-342.66 1791.72,-343.07"/>
<polygon fill="black" stroke="black" points="1791.34,-346.56 1801.79,-344.83 1792.55,-339.66 1791.34,-346.56"/>
<text text-anchor="start" x="1760" y="-345.8" font-family="arial" font-size="14.00" fill="#377eb8">true</text>
</g>
<!-- ID_70_ct0_st0123&#45;&gt;ID_70_ct0_st0123 -->
<g id="edge46" class="edge">
<title>ID_70_ct0_st0123&#45;&gt;ID_70_ct0_st0123</title>
<path fill="none" stroke="black" d="M1659.94,-386.18C1659.16,-395.91 1665.02,-404 1677.5,-404 1685.3,-404 1690.51,-400.84 1693.14,-396.09"/>
<polygon fill="black" stroke="black" points="1696.59,-396.66 1695.06,-386.18 1689.72,-395.33 1696.59,-396.66"/>
<text text-anchor="start" x="1665.5" y="-407.8" font-family="arial" font-size="14.00" fill="#377eb8">true</text>
</g>
</g>
</svg>
