<?xml version="1.0" encoding="UTF-8" standalone="no"?>
<!DOCTYPE svg PUBLIC "-//W3C//DTD SVG 1.1//EN"
 "http://www.w3.org/Graphics/SVG/1.1/DTD/svg11.dtd">
<!-- Generated by graphviz version 2.43.0 (0)
 -->
<!-- Title: G Pages: 1 -->
<svg width="1956pt" height="1035pt"
 viewBox="0.00 0.00 1956.00 1034.87" xmlns="http://www.w3.org/2000/svg" xmlns:xlink="http://www.w3.org/1999/xlink">
<g id="graph0" class="graph" transform="scale(1 1) rotate(0) translate(4 1030.87)">
<title>G</title>
<polygon fill="white" stroke="transparent" points="-4,4 -4,-1030.87 1952,-1030.87 1952,4 -4,4"/>
<!-- _ID_101_ct0_st0 -->
<!-- ID_101_ct0_st0 -->
<g id="node2" class="node">
<title>ID_101_ct0_st0</title>
<polygon fill="none" stroke="black" points="276,-656.87 162,-656.87 162,-606.87 276,-606.87 276,-656.87"/>
<text text-anchor="start" x="170" y="-642.67" font-family="arial" font-weight="bold" font-size="14.00">ID_101_ct0_st0</text>
<text text-anchor="start" x="211" y="-628.67" font-family="arial" font-size="14.00" fill="#984ea3">!Q</text>
<text text-anchor="start" x="207" y="-614.67" font-family="arial" font-size="14.00" fill="#ff7f00">true</text>
</g>
<!-- _ID_101_ct0_st0&#45;&gt;ID_101_ct0_st0 -->
<g id="edge1" class="edge">
<title>_ID_101_ct0_st0&#45;&gt;ID_101_ct0_st0</title>
<path fill="none" stroke="black" d="M119.15,-631.87C129.75,-631.87 140.88,-631.87 151.68,-631.87"/>
<polygon fill="black" stroke="black" points="151.92,-635.37 161.92,-631.87 151.92,-628.37 151.92,-635.37"/>
</g>
<!-- ID_101_ct0_st0&#45;&gt;ID_101_ct0_st0 -->
<g id="edge5" class="edge">
<title>ID_101_ct0_st0&#45;&gt;ID_101_ct0_st0</title>
<path fill="none" stroke="black" d="M204.06,-657.05C203.39,-666.78 208.38,-674.87 219,-674.87 225.64,-674.87 230.08,-671.71 232.31,-666.96"/>
<polygon fill="black" stroke="black" points="235.77,-667.48 233.94,-657.05 228.86,-666.35 235.77,-667.48"/>
<text text-anchor="start" x="207" y="-678.67" font-family="arial" font-size="14.00" fill="#377eb8">true</text>
</g>
<!-- ID_101_ct0_st01 -->
<g id="node4" class="node">
<title>ID_101_ct0_st01</title>
<polygon fill="none" stroke="black" points="464,-399.87 342,-399.87 342,-349.87 464,-349.87 464,-399.87"/>
<text text-anchor="start" x="350" y="-385.67" font-family="arial" font-weight="bold" font-size="14.00">ID_101_ct0_st01</text>
<text text-anchor="start" x="375" y="-371.67" font-family="arial" font-size="14.00" fill="#984ea3">(Q &amp;&amp; R)</text>
<text text-anchor="start" x="391" y="-357.67" font-family="arial" font-size="14.00" fill="#ff7f00">true</text>
</g>
<!-- ID_101_ct0_st0&#45;&gt;ID_101_ct0_st01 -->
<g id="edge6" class="edge">
<title>ID_101_ct0_st0&#45;&gt;ID_101_ct0_st01</title>
<path fill="none" stroke="black" d="M224.44,-606.58C232.78,-565.59 254.21,-483.99 300,-431.87 309.21,-421.39 320.84,-412.42 332.92,-404.91"/>
<polygon fill="black" stroke="black" points="334.93,-407.79 341.77,-399.71 331.37,-401.76 334.93,-407.79"/>
<text text-anchor="start" x="300" y="-435.67" font-family="arial" font-size="14.00" fill="#377eb8">true</text>
</g>
<!-- ID_101_ct0_st012 -->
<g id="node6" class="node">
<title>ID_101_ct0_st012</title>
<polygon fill="none" stroke="black" points="1948,-622.87 1793,-622.87 1793,-572.87 1948,-572.87 1948,-622.87"/>
<text text-anchor="start" x="1814" y="-608.67" font-family="arial" font-weight="bold" font-size="14.00">ID_101_ct0_st012</text>
<text text-anchor="start" x="1801" y="-594.67" font-family="arial" font-size="14.00" fill="#984ea3">(Q &amp;&amp; (!R &amp;&amp; (S || !T)))</text>
<text text-anchor="start" x="1858.5" y="-580.67" font-family="arial" font-size="14.00" fill="#ff7f00">true</text>
</g>
<!-- ID_101_ct0_st0&#45;&gt;ID_101_ct0_st012 -->
<g id="edge7" class="edge">
<title>ID_101_ct0_st0&#45;&gt;ID_101_ct0_st012</title>
<path fill="none" stroke="black" d="M222.24,-657.12C229.24,-730.33 253.09,-940.49 300,-987.87 332.77,-1020.97 355.43,-1011.87 402,-1011.87 402,-1011.87 402,-1011.87 1626,-1011.87 1693.08,-1011.87 1725.76,-1033.42 1775,-987.87 1827.29,-939.51 1856.34,-719.6 1865.91,-633.03"/>
<polygon fill="black" stroke="black" points="1869.41,-633.24 1867.01,-622.92 1862.45,-632.49 1869.41,-633.24"/>
<text text-anchor="start" x="982.5" y="-1015.67" font-family="arial" font-size="14.00" fill="#377eb8">true</text>
</g>
<!-- ID_101_ct0_st01234W -->
<g id="node8" class="node">
<title>ID_101_ct0_st01234W</title>
<polygon fill="none" stroke="black" points="1708,-584.87 1542,-584.87 1542,-534.87 1708,-534.87 1708,-584.87"/>
<text text-anchor="start" x="1554" y="-570.67" font-family="arial" font-weight="bold" font-size="14.00">ID_101_ct0_st01234W</text>
<text text-anchor="start" x="1550" y="-556.67" font-family="arial" font-size="14.00" fill="#984ea3">(Q &amp;&amp; (!R &amp;&amp; (!S &amp;&amp; T)))</text>
<text text-anchor="start" x="1602" y="-542.67" font-family="arial" font-size="14.00" fill="#ff7f00">c0 &lt;= 5</text>
</g>
<!-- ID_101_ct0_st0&#45;&gt;ID_101_ct0_st01234W -->
<g id="edge8" class="edge">
<title>ID_101_ct0_st0&#45;&gt;ID_101_ct0_st01234W</title>
<path fill="none" stroke="black" d="M226.73,-606.55C238.45,-562.17 263.16,-467.4 282,-386.87 310.9,-263.37 293.78,-225.18 342,-107.87 360.84,-62.03 352.44,-13.87 402,-13.87 402,-13.87 402,-13.87 746,-13.87 952.68,-13.87 1018.22,32.2 1210,-44.87 1380.24,-113.29 1426.6,-157.38 1524,-312.87 1539.01,-336.83 1532.28,-347.33 1542,-373.87 1561.78,-427.87 1589.6,-488.48 1607.21,-525.41"/>
<polygon fill="black" stroke="black" points="1604.2,-527.22 1611.67,-534.72 1610.51,-524.19 1604.2,-527.22"/>
<text text-anchor="start" x="855" y="-32.67" font-family="arial" font-size="14.00" fill="#377eb8">true</text>
<text text-anchor="start" x="848" y="-17.67" font-family="arial" font-size="14.00">c0 :=0</text>
</g>
<!-- _ID_101_ct0_st01 -->
<!-- _ID_101_ct0_st01&#45;&gt;ID_101_ct0_st01 -->
<g id="edge2" class="edge">
<title>_ID_101_ct0_st01&#45;&gt;ID_101_ct0_st01</title>
<path fill="none" stroke="black" d="M282.13,-364.99C298.07,-366.31 315.34,-367.73 331.67,-369.07"/>
<polygon fill="black" stroke="black" points="331.44,-372.57 341.69,-369.9 332.02,-365.59 331.44,-372.57"/>
</g>
<!-- ID_101_ct0_st01&#45;&gt;ID_101_ct0_st0 -->
<g id="edge9" class="edge">
<title>ID_101_ct0_st01&#45;&gt;ID_101_ct0_st0</title>
<path fill="none" stroke="black" d="M341.8,-374.22C326.74,-376.75 311.6,-381.96 300,-391.87 239.24,-443.79 224.44,-543.16 220.96,-596.29"/>
<polygon fill="black" stroke="black" points="217.45,-596.4 220.39,-606.58 224.44,-596.79 217.45,-596.4"/>
<text text-anchor="start" x="305.5" y="-395.67" font-family="arial" font-size="14.00" fill="#377eb8">R&#39;</text>
</g>
<!-- ID_101_ct0_st01&#45;&gt;ID_101_ct0_st01 -->
<g id="edge12" class="edge">
<title>ID_101_ct0_st01&#45;&gt;ID_101_ct0_st01</title>
<path fill="none" stroke="black" d="M386.19,-400.05C385.44,-409.78 391.05,-417.87 403,-417.87 410.47,-417.87 415.46,-414.71 417.97,-409.96"/>
<polygon fill="black" stroke="black" points="421.43,-410.52 419.81,-400.05 414.54,-409.24 421.43,-410.52"/>
<text text-anchor="start" x="391" y="-421.67" font-family="arial" font-size="14.00" fill="#377eb8">true</text>
</g>
<!-- ID_101_ct0_st01&#45;&gt;ID_101_ct0_st012 -->
<g id="edge13" class="edge">
<title>ID_101_ct0_st01&#45;&gt;ID_101_ct0_st012</title>
<path fill="none" stroke="black" d="M411.4,-349.82C422.2,-317.01 445.11,-259.38 482,-222.87 501.78,-203.3 511.17,-202.26 538,-194.87 826.15,-115.54 912.17,-144.93 1210,-169.87 1465.91,-191.3 1613.04,-91.58 1775,-290.87 1841.49,-372.69 1861.32,-501.1 1867.13,-562.66"/>
<polygon fill="black" stroke="black" points="1863.65,-563 1868.01,-572.65 1870.62,-562.39 1863.65,-563"/>
<text text-anchor="start" x="1111.5" y="-173.67" font-family="arial" font-size="14.00" fill="#377eb8">true</text>
</g>
<!-- ID_101_ct0_st01&#45;&gt;ID_101_ct0_st01234W -->
<g id="edge14" class="edge">
<title>ID_101_ct0_st01&#45;&gt;ID_101_ct0_st01234W</title>
<path fill="none" stroke="black" d="M409.31,-400.04C419.32,-444.34 443.47,-538.35 482,-609.87 560.42,-755.43 621.13,-791.69 782,-829.87 889.39,-855.36 1171.11,-902.01 1277,-870.87 1308.31,-861.66 1500.81,-734.84 1524,-711.87 1559.45,-676.78 1589.21,-627.14 1606.82,-594.26"/>
<polygon fill="black" stroke="black" points="1610.11,-595.52 1611.67,-585.04 1603.92,-592.26 1610.11,-595.52"/>
<text text-anchor="start" x="982.5" y="-888.67" font-family="arial" font-size="14.00" fill="#377eb8">true</text>
<text text-anchor="start" x="975.5" y="-873.67" font-family="arial" font-size="14.00">c0 :=0</text>
</g>
<!-- ID_101_ct0_st02 -->
<g id="node9" class="node">
<title>ID_101_ct0_st02</title>
<polygon fill="none" stroke="black" points="1455.5,-310.87 1296.5,-310.87 1296.5,-260.87 1455.5,-260.87 1455.5,-310.87"/>
<text text-anchor="start" x="1323" y="-296.67" font-family="arial" font-weight="bold" font-size="14.00">ID_101_ct0_st02</text>
<text text-anchor="start" x="1304.5" y="-282.67" font-family="arial" font-size="14.00" fill="#984ea3">(!Q &amp;&amp; (!R &amp;&amp; (S || !T)))</text>
<text text-anchor="start" x="1364" y="-268.67" font-family="arial" font-size="14.00" fill="#ff7f00">true</text>
</g>
<!-- ID_101_ct0_st01&#45;&gt;ID_101_ct0_st02 -->
<g id="edge10" class="edge">
<title>ID_101_ct0_st01&#45;&gt;ID_101_ct0_st02</title>
<path fill="none" stroke="black" d="M415.39,-349.77C427.91,-325.52 450.5,-290.13 482,-273.87 620.04,-202.6 1089.15,-250.26 1286.44,-274.33"/>
<polygon fill="black" stroke="black" points="1286.12,-277.82 1296.48,-275.56 1286.98,-270.87 1286.12,-277.82"/>
<text text-anchor="start" x="855" y="-246.67" font-family="arial" font-size="14.00" fill="#377eb8">true</text>
</g>
<!-- ID_101_ct0_st0234W -->
<g id="node10" class="node">
<title>ID_101_ct0_st0234W</title>
<polygon fill="none" stroke="black" points="708,-586.87 538,-586.87 538,-536.87 708,-536.87 708,-586.87"/>
<text text-anchor="start" x="556" y="-572.67" font-family="arial" font-weight="bold" font-size="14.00">ID_101_ct0_st0234W</text>
<text text-anchor="start" x="546" y="-558.67" font-family="arial" font-size="14.00" fill="#984ea3">(!Q &amp;&amp; (!R &amp;&amp; (!S &amp;&amp; T)))</text>
<text text-anchor="start" x="600" y="-544.67" font-family="arial" font-size="14.00" fill="#ff7f00">c0 &lt;= 5</text>
</g>
<!-- ID_101_ct0_st01&#45;&gt;ID_101_ct0_st0234W -->
<g id="edge11" class="edge">
<title>ID_101_ct0_st01&#45;&gt;ID_101_ct0_st0234W</title>
<path fill="none" stroke="black" d="M418.6,-400.04C432.73,-422.84 455.79,-456.38 482,-479.87 495.9,-492.33 532.93,-513.87 565.42,-531.75"/>
<polygon fill="black" stroke="black" points="563.99,-534.95 574.44,-536.68 567.35,-528.81 563.99,-534.95"/>
<text text-anchor="start" x="489" y="-522.67" font-family="arial" font-size="14.00" fill="#377eb8">true</text>
<text text-anchor="start" x="482" y="-507.67" font-family="arial" font-size="14.00">c0 :=0</text>
</g>
<!-- _ID_101_ct0_st012 -->
<!-- _ID_101_ct0_st012&#45;&gt;ID_101_ct0_st012 -->
<g id="edge3" class="edge">
<title>_ID_101_ct0_st012&#45;&gt;ID_101_ct0_st012</title>
<path fill="none" stroke="black" d="M1692.12,-894.57C1720.58,-891.2 1752.42,-882.67 1775,-862.87 1843.28,-803 1862.23,-690.31 1867.48,-633.11"/>
<polygon fill="black" stroke="black" points="1870.97,-633.35 1868.31,-623.1 1864,-632.77 1870.97,-633.35"/>
</g>
<!-- ID_101_ct0_st012&#45;&gt;ID_101_ct0_st0 -->
<g id="edge21" class="edge">
<title>ID_101_ct0_st012&#45;&gt;ID_101_ct0_st0</title>
<path fill="none" stroke="black" d="M1867.41,-622.94C1861.72,-677.18 1841.56,-807.1 1775,-888.87 1726.87,-948 1702.24,-973.87 1626,-973.87 402,-973.87 402,-973.87 402,-973.87 264.15,-973.87 230.37,-754.67 222.38,-667.25"/>
<polygon fill="black" stroke="black" points="225.85,-666.69 221.51,-657.02 218.87,-667.28 225.85,-666.69"/>
<text text-anchor="start" x="988" y="-977.67" font-family="arial" font-size="14.00" fill="#377eb8">R&#39;</text>
</g>
<!-- ID_101_ct0_st012&#45;&gt;ID_101_ct0_st01 -->
<g id="edge24" class="edge">
<title>ID_101_ct0_st012&#45;&gt;ID_101_ct0_st01</title>
<path fill="none" stroke="black" d="M1869.67,-572.62C1868.96,-467.09 1851.4,-66.87 1626,-66.87 1251.5,-66.87 1251.5,-66.87 1251.5,-66.87 1156.15,-66.87 1131.96,-62.23 1037,-70.87 813.17,-91.24 744.23,-63.52 538,-152.87 461.94,-185.83 425.97,-286.23 411.77,-340"/>
<polygon fill="black" stroke="black" points="408.35,-339.23 409.29,-349.78 415.14,-340.95 408.35,-339.23"/>
<text text-anchor="start" x="1111.5" y="-74.67" font-family="arial" font-size="14.00" fill="#377eb8">true</text>
</g>
<!-- ID_101_ct0_st012&#45;&gt;ID_101_ct0_st012 -->
<g id="edge25" class="edge">
<title>ID_101_ct0_st012&#45;&gt;ID_101_ct0_st012</title>
<path fill="none" stroke="black" d="M1848.09,-623.05C1847.09,-632.78 1854.56,-640.87 1870.5,-640.87 1880.46,-640.87 1887.11,-637.71 1890.46,-632.96"/>
<polygon fill="black" stroke="black" points="1893.91,-633.59 1892.91,-623.05 1887.11,-631.92 1893.91,-633.59"/>
<text text-anchor="start" x="1858.5" y="-644.67" font-family="arial" font-size="14.00" fill="#377eb8">true</text>
</g>
<!-- ID_101_ct0_st012&#45;&gt;ID_101_ct0_st01234W -->
<g id="edge26" class="edge">
<title>ID_101_ct0_st012&#45;&gt;ID_101_ct0_st01234W</title>
<path fill="none" stroke="black" d="M1792.78,-586.2C1771.18,-582.89 1747.66,-579.27 1726,-575.87 1723.45,-575.47 1720.87,-575.07 1718.27,-574.66"/>
<polygon fill="black" stroke="black" points="1718.55,-571.16 1708.12,-573.06 1717.46,-578.07 1718.55,-571.16"/>
<text text-anchor="start" x="1738.5" y="-601.67" font-family="arial" font-size="14.00" fill="#377eb8">true</text>
<text text-anchor="start" x="1731.5" y="-586.67" font-family="arial" font-size="14.00">c0 :=0</text>
</g>
<!-- ID_101_ct0_st012&#45;&gt;ID_101_ct0_st02 -->
<g id="edge22" class="edge">
<title>ID_101_ct0_st012&#45;&gt;ID_101_ct0_st02</title>
<path fill="none" stroke="black" d="M1866.47,-572.85C1857.1,-508.5 1821.97,-338.51 1708,-284.87 1632.05,-249.13 1535.01,-254.5 1465.68,-265.7"/>
<polygon fill="black" stroke="black" points="1464.93,-262.28 1455.65,-267.39 1466.1,-269.18 1464.93,-262.28"/>
<text text-anchor="start" x="1613" y="-288.67" font-family="arial" font-size="14.00" fill="#377eb8">true</text>
</g>
<!-- ID_101_ct0_st012&#45;&gt;ID_101_ct0_st0234W -->
<g id="edge23" class="edge">
<title>ID_101_ct0_st012&#45;&gt;ID_101_ct0_st0234W</title>
<path fill="none" stroke="black" d="M1867.52,-623.04C1862.19,-671.59 1842.97,-777.56 1775,-824.87 1701.58,-875.97 1059.12,-823.56 970,-815.87 860.97,-806.47 814.01,-847.91 726,-782.87 664.92,-737.74 639.33,-647.06 629.5,-597.02"/>
<polygon fill="black" stroke="black" points="632.91,-596.19 627.64,-586.99 626.03,-597.47 632.91,-596.19"/>
<text text-anchor="start" x="1240.5" y="-855.67" font-family="arial" font-size="14.00" fill="#377eb8">true</text>
<text text-anchor="start" x="1233.5" y="-840.67" font-family="arial" font-size="14.00">c0 :=0</text>
</g>
<!-- _ID_101_ct0_st01234W -->
<!-- _ID_101_ct0_st01234W&#45;&gt;ID_101_ct0_st01234W -->
<g id="edge4" class="edge">
<title>_ID_101_ct0_st01234W&#45;&gt;ID_101_ct0_st01234W</title>
<path fill="none" stroke="black" d="M1457.19,-575.4C1480.96,-573.19 1507.19,-570.75 1531.66,-568.47"/>
<polygon fill="black" stroke="black" points="1532.03,-571.95 1541.67,-567.54 1531.39,-564.98 1532.03,-571.95"/>
</g>
<!-- ID_101_ct0_st01234W&#45;&gt;ID_101_ct0_st0 -->
<g id="edge51" class="edge">
<title>ID_101_ct0_st01234W&#45;&gt;ID_101_ct0_st0</title>
<path fill="none" stroke="black" d="M1616.32,-585.25C1598.4,-639.64 1548.26,-767.21 1457,-824.87 1186.91,-995.53 1065.49,-930.87 746,-930.87 402,-930.87 402,-930.87 402,-930.87 279.72,-930.87 237.23,-746.15 224.64,-667.09"/>
<polygon fill="black" stroke="black" points="228.08,-666.47 223.12,-657.11 221.16,-667.52 228.08,-666.47"/>
<text text-anchor="start" x="860.5" y="-941.67" font-family="arial" font-size="14.00" fill="#377eb8">R&#39;</text>
</g>
<!-- ID_101_ct0_st01234W&#45;&gt;ID_101_ct0_st01 -->
<g id="edge55" class="edge">
<title>ID_101_ct0_st01234W&#45;&gt;ID_101_ct0_st01</title>
<path fill="none" stroke="black" d="M1600.76,-534.77C1581.35,-514.56 1552.35,-486.13 1524,-464.87 1407.15,-377.24 1355.09,-384.68 1210,-367.87 939.62,-336.55 614.81,-356.87 474.37,-368.43"/>
<polygon fill="black" stroke="black" points="473.85,-364.96 464.18,-369.28 474.44,-371.94 473.85,-364.96"/>
<text text-anchor="start" x="982.5" y="-356.67" font-family="arial" font-size="14.00" fill="#377eb8">true</text>
</g>
<!-- ID_101_ct0_st01234W&#45;&gt;ID_101_ct0_st012 -->
<g id="edge56" class="edge">
<title>ID_101_ct0_st01234W&#45;&gt;ID_101_ct0_st012</title>
<path fill="none" stroke="black" d="M1708.19,-551.65C1730.08,-551.24 1753.59,-552.43 1775,-556.87 1787.57,-559.48 1800.53,-563.85 1812.66,-568.79"/>
<polygon fill="black" stroke="black" points="1811.62,-572.15 1822.19,-572.85 1814.36,-565.71 1811.62,-572.15"/>
<text text-anchor="start" x="1726" y="-560.67" font-family="arial" font-size="14.00" fill="#377eb8">(R&#39; || S&#39;)</text>
</g>
<!-- ID_101_ct0_st01234W&#45;&gt;ID_101_ct0_st01234W -->
<g id="edge58" class="edge">
<title>ID_101_ct0_st01234W&#45;&gt;ID_101_ct0_st01234W</title>
<path fill="none" stroke="black" d="M1601.84,-585.05C1600.81,-594.78 1608.53,-602.87 1625,-602.87 1635.29,-602.87 1642.17,-599.71 1645.63,-594.96"/>
<polygon fill="black" stroke="black" points="1649.08,-595.6 1648.16,-585.05 1642.29,-593.87 1649.08,-595.6"/>
<text text-anchor="start" x="1606" y="-606.67" font-family="arial" font-size="14.00" fill="#377eb8">c0 &lt; 5</text>
</g>
<!-- ID_101_ct0_st01234W&#45;&gt;ID_101_ct0_st02 -->
<g id="edge52" class="edge">
<title>ID_101_ct0_st01234W&#45;&gt;ID_101_ct0_st02</title>
<path fill="none" stroke="black" d="M1609.48,-534.72C1591.43,-504.46 1558.73,-452.88 1524,-413.87 1505.96,-393.61 1452.83,-348.5 1415.66,-317.63"/>
<polygon fill="black" stroke="black" points="1417.45,-314.57 1407.52,-310.88 1412.99,-319.96 1417.45,-314.57"/>
<text text-anchor="start" x="1475" y="-417.67" font-family="arial" font-size="14.00" fill="#377eb8">(R&#39; || S&#39;)</text>
</g>
<!-- ID_101_ct0_st01234W&#45;&gt;ID_101_ct0_st0234W -->
<g id="edge54" class="edge">
<title>ID_101_ct0_st01234W&#45;&gt;ID_101_ct0_st0234W</title>
<path fill="none" stroke="black" d="M1556.36,-585C1526.37,-594.86 1490.39,-604.98 1457,-609.87 1316.96,-630.39 905.38,-591.62 718.38,-572.11"/>
<polygon fill="black" stroke="black" points="718.6,-568.62 708.29,-571.06 717.87,-575.58 718.6,-568.62"/>
<text text-anchor="start" x="1104.5" y="-615.67" font-family="arial" font-size="14.00" fill="#377eb8">c0 &lt; 5</text>
</g>
<!-- ID_101_ct0_st024W -->
<g id="node11" class="node">
<title>ID_101_ct0_st024W</title>
<polygon fill="none" stroke="black" points="1210,-709.87 1037,-709.87 1037,-659.87 1210,-659.87 1210,-709.87"/>
<text text-anchor="start" x="1060" y="-695.67" font-family="arial" font-weight="bold" font-size="14.00">ID_101_ct0_st024W</text>
<text text-anchor="start" x="1045" y="-681.67" font-family="arial" font-size="14.00" fill="#984ea3">(!Q &amp;&amp; (!R &amp;&amp; (!S &amp;&amp; !T)))</text>
<text text-anchor="start" x="1100.5" y="-667.67" font-family="arial" font-size="14.00" fill="#ff7f00">c0 &lt;= 5</text>
</g>
<!-- ID_101_ct0_st01234W&#45;&gt;ID_101_ct0_st024W -->
<g id="edge53" class="edge">
<title>ID_101_ct0_st01234W&#45;&gt;ID_101_ct0_st024W</title>
<path fill="none" stroke="black" d="M1601.67,-585.2C1583,-604.54 1554.56,-629.99 1524,-642.87 1426.37,-684.01 1303.93,-691.11 1220.5,-690.09"/>
<polygon fill="black" stroke="black" points="1220.33,-686.59 1210.27,-689.92 1220.21,-693.58 1220.33,-686.59"/>
<text text-anchor="start" x="1357" y="-691.67" font-family="arial" font-size="14.00" fill="#377eb8">c0 &lt; 5</text>
</g>
<!-- ID_101_ct0_st0124W -->
<g id="node12" class="node">
<title>ID_101_ct0_st0124W</title>
<polygon fill="none" stroke="black" points="952,-493.87 782,-493.87 782,-443.87 952,-443.87 952,-493.87"/>
<text text-anchor="start" x="800" y="-479.67" font-family="arial" font-weight="bold" font-size="14.00">ID_101_ct0_st0124W</text>
<text text-anchor="start" x="790" y="-465.67" font-family="arial" font-size="14.00" fill="#984ea3">(Q &amp;&amp; (!R &amp;&amp; (!S &amp;&amp; !T)))</text>
<text text-anchor="start" x="844" y="-451.67" font-family="arial" font-size="14.00" fill="#ff7f00">c0 &lt;= 5</text>
</g>
<!-- ID_101_ct0_st01234W&#45;&gt;ID_101_ct0_st0124W -->
<g id="edge57" class="edge">
<title>ID_101_ct0_st01234W&#45;&gt;ID_101_ct0_st0124W</title>
<path fill="none" stroke="black" d="M1563.65,-534.84C1550.75,-530.26 1537.06,-525.95 1524,-522.87 1283.6,-466.17 1216.27,-497.75 970,-478.87 967.44,-478.68 964.84,-478.47 962.22,-478.26"/>
<polygon fill="black" stroke="black" points="962.28,-474.75 952.02,-477.39 961.69,-481.72 962.28,-474.75"/>
<text text-anchor="start" x="1233.5" y="-490.67" font-family="arial" font-size="14.00" fill="#377eb8">c0 &lt; 5</text>
</g>
<!-- ID_101_ct0_st02&#45;&gt;ID_101_ct0_st0 -->
<g id="edge15" class="edge">
<title>ID_101_ct0_st02&#45;&gt;ID_101_ct0_st0</title>
<path fill="none" stroke="black" d="M1357.11,-260.79C1329.98,-225.08 1274.68,-160.92 1210,-133.87 1060.6,-71.39 624.72,-24.34 482,-100.87 353.16,-169.96 362.8,-242.85 300,-374.87 264.03,-450.47 239.23,-546.13 227.58,-596.74"/>
<polygon fill="black" stroke="black" points="224.15,-596.01 225.35,-606.54 230.98,-597.56 224.15,-596.01"/>
<text text-anchor="start" x="738.5" y="-65.67" font-family="arial" font-size="14.00" fill="#377eb8">R&#39;</text>
</g>
<!-- ID_101_ct0_st02&#45;&gt;ID_101_ct0_st01 -->
<g id="edge18" class="edge">
<title>ID_101_ct0_st02&#45;&gt;ID_101_ct0_st01</title>
<path fill="none" stroke="black" d="M1331.34,-260.71C1282.57,-235.01 1200.46,-198.87 1124.5,-198.87 622,-198.87 622,-198.87 622,-198.87 554.82,-198.87 533.87,-213.18 482,-255.87 454.14,-278.8 432.68,-314.3 419.39,-340.57"/>
<polygon fill="black" stroke="black" points="416.13,-339.27 414.86,-349.79 422.41,-342.35 416.13,-339.27"/>
<text text-anchor="start" x="855" y="-202.67" font-family="arial" font-size="14.00" fill="#377eb8">true</text>
</g>
<!-- ID_101_ct0_st02&#45;&gt;ID_101_ct0_st012 -->
<g id="edge19" class="edge">
<title>ID_101_ct0_st02&#45;&gt;ID_101_ct0_st012</title>
<path fill="none" stroke="black" d="M1455.66,-289.76C1543.55,-298.09 1685.24,-323.97 1775,-403.87 1823.19,-446.76 1849.3,-519.73 1861.24,-562.9"/>
<polygon fill="black" stroke="black" points="1857.89,-563.92 1863.84,-572.68 1864.65,-562.12 1857.89,-563.92"/>
<text text-anchor="start" x="1613" y="-358.67" font-family="arial" font-size="14.00" fill="#377eb8">true</text>
</g>
<!-- ID_101_ct0_st02&#45;&gt;ID_101_ct0_st01234W -->
<g id="edge20" class="edge">
<title>ID_101_ct0_st02&#45;&gt;ID_101_ct0_st01234W</title>
<path fill="none" stroke="black" d="M1455.62,-309.65C1487.5,-319.84 1518.22,-330.6 1524,-335.87 1580.26,-387.18 1606.71,-476.07 1617.55,-525.03"/>
<polygon fill="black" stroke="black" points="1614.13,-525.79 1619.63,-534.84 1620.98,-524.34 1614.13,-525.79"/>
<text text-anchor="start" x="1487.5" y="-354.67" font-family="arial" font-size="14.00" fill="#377eb8">true</text>
<text text-anchor="start" x="1480.5" y="-339.67" font-family="arial" font-size="14.00">c0 :=0</text>
</g>
<!-- ID_101_ct0_st02&#45;&gt;ID_101_ct0_st02 -->
<g id="edge16" class="edge">
<title>ID_101_ct0_st02&#45;&gt;ID_101_ct0_st02</title>
<path fill="none" stroke="black" d="M1353.21,-311.05C1352.2,-320.78 1359.8,-328.87 1376,-328.87 1386.13,-328.87 1392.89,-325.71 1396.29,-320.96"/>
<polygon fill="black" stroke="black" points="1399.74,-321.6 1398.79,-311.05 1392.95,-319.89 1399.74,-321.6"/>
<text text-anchor="start" x="1364" y="-332.67" font-family="arial" font-size="14.00" fill="#377eb8">true</text>
</g>
<!-- ID_101_ct0_st02&#45;&gt;ID_101_ct0_st0234W -->
<g id="edge17" class="edge">
<title>ID_101_ct0_st02&#45;&gt;ID_101_ct0_st0234W</title>
<path fill="none" stroke="black" d="M1296.39,-290.92C1182.96,-298.34 985.22,-311.86 970,-316.87 837.54,-360.54 711.6,-473.8 655.1,-529.7"/>
<polygon fill="black" stroke="black" points="652.52,-527.33 647.92,-536.87 657.47,-532.28 652.52,-527.33"/>
<text text-anchor="start" x="982.5" y="-335.67" font-family="arial" font-size="14.00" fill="#377eb8">true</text>
<text text-anchor="start" x="975.5" y="-320.67" font-family="arial" font-size="14.00">c0 :=0</text>
</g>
<!-- ID_101_ct0_st0234W&#45;&gt;ID_101_ct0_st0 -->
<g id="edge43" class="edge">
<title>ID_101_ct0_st0234W&#45;&gt;ID_101_ct0_st0</title>
<path fill="none" stroke="black" d="M537.71,-576.55C462.86,-589.58 354.97,-608.37 286.18,-620.35"/>
<polygon fill="black" stroke="black" points="285.57,-616.9 276.32,-622.06 286.77,-623.8 285.57,-616.9"/>
<text text-anchor="start" x="396.5" y="-613.67" font-family="arial" font-size="14.00" fill="#377eb8">R&#39;</text>
</g>
<!-- ID_101_ct0_st0234W&#45;&gt;ID_101_ct0_st01 -->
<g id="edge47" class="edge">
<title>ID_101_ct0_st0234W&#45;&gt;ID_101_ct0_st01</title>
<path fill="none" stroke="black" d="M537.87,-559.82C518.04,-555.99 498.03,-549.04 482,-536.87 440.98,-505.73 420.44,-447.44 411.01,-409.93"/>
<polygon fill="black" stroke="black" points="414.36,-408.86 408.64,-399.94 407.55,-410.48 414.36,-408.86"/>
<text text-anchor="start" x="489" y="-558.67" font-family="arial" font-size="14.00" fill="#377eb8">true</text>
</g>
<!-- ID_101_ct0_st0234W&#45;&gt;ID_101_ct0_st012 -->
<g id="edge48" class="edge">
<title>ID_101_ct0_st0234W&#45;&gt;ID_101_ct0_st012</title>
<path fill="none" stroke="black" d="M630.78,-586.99C642.75,-625.92 671.68,-699.79 726,-732.87 877.53,-825.15 1348.5,-783.93 1524,-757.87 1607.49,-745.47 1630.96,-745.35 1708,-710.87 1740.74,-696.22 1745.55,-686.35 1775,-665.87 1792.1,-653.98 1810.74,-640.65 1826.92,-628.96"/>
<polygon fill="black" stroke="black" points="1829.08,-631.71 1835.13,-623.01 1824.98,-626.04 1829.08,-631.71"/>
<text text-anchor="start" x="1228" y="-789.67" font-family="arial" font-size="14.00" fill="#377eb8">(R&#39; || S&#39;)</text>
</g>
<!-- ID_101_ct0_st0234W&#45;&gt;ID_101_ct0_st01234W -->
<g id="edge50" class="edge">
<title>ID_101_ct0_st0234W&#45;&gt;ID_101_ct0_st01234W</title>
<path fill="none" stroke="black" d="M708.25,-560.2C858.62,-557.45 1183.14,-552.59 1457,-555.87 1481.11,-556.16 1507.16,-556.68 1531.37,-557.26"/>
<polygon fill="black" stroke="black" points="1531.53,-560.76 1541.61,-557.51 1531.7,-553.76 1531.53,-560.76"/>
<text text-anchor="start" x="1104.5" y="-558.67" font-family="arial" font-size="14.00" fill="#377eb8">c0 &lt; 5</text>
</g>
<!-- ID_101_ct0_st0234W&#45;&gt;ID_101_ct0_st02 -->
<g id="edge44" class="edge">
<title>ID_101_ct0_st0234W&#45;&gt;ID_101_ct0_st02</title>
<path fill="none" stroke="black" d="M644.69,-536.56C662.34,-514.51 687.97,-481.38 708,-450.87 744.7,-394.97 726.8,-357.61 782,-319.87 861.55,-265.49 1140.99,-272.39 1286.07,-280.08"/>
<polygon fill="black" stroke="black" points="1286.11,-283.58 1296.28,-280.63 1286.49,-276.6 1286.11,-283.58"/>
<text text-anchor="start" x="970" y="-282.67" font-family="arial" font-size="14.00" fill="#377eb8">(R&#39; || S&#39;)</text>
</g>
<!-- ID_101_ct0_st0234W&#45;&gt;ID_101_ct0_st0234W -->
<g id="edge46" class="edge">
<title>ID_101_ct0_st0234W&#45;&gt;ID_101_ct0_st0234W</title>
<path fill="none" stroke="black" d="M600.21,-587.05C599.2,-596.78 606.8,-604.87 623,-604.87 633.13,-604.87 639.89,-601.71 643.29,-596.96"/>
<polygon fill="black" stroke="black" points="646.74,-597.6 645.79,-587.05 639.95,-595.89 646.74,-597.6"/>
<text text-anchor="start" x="604" y="-608.67" font-family="arial" font-size="14.00" fill="#377eb8">c0 &lt; 5</text>
</g>
<!-- ID_101_ct0_st0234W&#45;&gt;ID_101_ct0_st024W -->
<g id="edge45" class="edge">
<title>ID_101_ct0_st0234W&#45;&gt;ID_101_ct0_st024W</title>
<path fill="none" stroke="black" d="M674.77,-586.92C690.87,-594.13 708.92,-601.5 726,-606.87 740.37,-611.39 914.05,-644.98 1026.73,-666.58"/>
<polygon fill="black" stroke="black" points="1026.28,-670.06 1036.76,-668.5 1027.6,-663.18 1026.28,-670.06"/>
<text text-anchor="start" x="848" y="-655.67" font-family="arial" font-size="14.00" fill="#377eb8">c0 &lt; 5</text>
</g>
<!-- ID_101_ct0_st0234W&#45;&gt;ID_101_ct0_st0124W -->
<g id="edge49" class="edge">
<title>ID_101_ct0_st0234W&#45;&gt;ID_101_ct0_st0124W</title>
<path fill="none" stroke="black" d="M692.5,-536.84C715.29,-528.4 740.78,-518.85 764,-509.87 774.02,-506 784.56,-501.85 794.91,-497.73"/>
<polygon fill="black" stroke="black" points="796.36,-500.92 804.34,-493.96 793.76,-494.42 796.36,-500.92"/>
<text text-anchor="start" x="726" y="-526.67" font-family="arial" font-size="14.00" fill="#377eb8">c0 &lt; 5</text>
</g>
<!-- ID_101_ct0_st024W&#45;&gt;ID_101_ct0_st0 -->
<g id="edge27" class="edge">
<title>ID_101_ct0_st024W&#45;&gt;ID_101_ct0_st0</title>
<path fill="none" stroke="black" d="M1089.29,-710.18C1026.09,-755.75 882.62,-846.87 746,-846.87 402,-846.87 402,-846.87 402,-846.87 308.65,-846.87 253.33,-727.35 231.22,-666.54"/>
<polygon fill="black" stroke="black" points="234.47,-665.22 227.84,-656.96 227.87,-667.55 234.47,-665.22"/>
<text text-anchor="start" x="616.5" y="-850.67" font-family="arial" font-size="14.00" fill="#377eb8">R&#39;</text>
</g>
<!-- ID_101_ct0_st024W&#45;&gt;ID_101_ct0_st01 -->
<g id="edge31" class="edge">
<title>ID_101_ct0_st024W&#45;&gt;ID_101_ct0_st01</title>
<path fill="none" stroke="black" d="M1036.85,-705.8C1030.83,-706.94 1024.84,-707.98 1019,-708.87 989.48,-713.37 981.84,-712.76 952,-713.87 764.29,-720.87 697.56,-727.98 538,-628.87 459.05,-579.84 424.03,-467.55 410.82,-410.11"/>
<polygon fill="black" stroke="black" points="414.18,-409.07 408.6,-400.06 407.34,-410.58 414.18,-409.07"/>
<text text-anchor="start" x="733" y="-717.67" font-family="arial" font-size="14.00" fill="#377eb8">true</text>
</g>
<!-- ID_101_ct0_st024W&#45;&gt;ID_101_ct0_st012 -->
<g id="edge32" class="edge">
<title>ID_101_ct0_st024W&#45;&gt;ID_101_ct0_st012</title>
<path fill="none" stroke="black" d="M1176.36,-709.88C1192.62,-717.06 1210.82,-724.41 1228,-729.87 1256.99,-739.1 1264.74,-740.74 1295,-743.87 1366.62,-751.27 1386.04,-756.06 1457,-743.87 1586.14,-721.69 1728.53,-663.12 1807.68,-627.26"/>
<polygon fill="black" stroke="black" points="1809.37,-630.34 1817.01,-623.01 1806.46,-623.97 1809.37,-630.34"/>
<text text-anchor="start" x="1475" y="-742.67" font-family="arial" font-size="14.00" fill="#377eb8">(R&#39; || S&#39;)</text>
</g>
<!-- ID_101_ct0_st024W&#45;&gt;ID_101_ct0_st01234W -->
<g id="edge34" class="edge">
<title>ID_101_ct0_st024W&#45;&gt;ID_101_ct0_st01234W</title>
<path fill="none" stroke="black" d="M1210.06,-708.38C1295.03,-726.74 1426.39,-741.3 1524,-688.87 1562.91,-667.97 1591.51,-624.7 1607.93,-594.04"/>
<polygon fill="black" stroke="black" points="1611.14,-595.46 1612.63,-584.97 1604.92,-592.24 1611.14,-595.46"/>
<text text-anchor="start" x="1357" y="-728.67" font-family="arial" font-size="14.00" fill="#377eb8">c0 &lt; 5</text>
</g>
<!-- ID_101_ct0_st024W&#45;&gt;ID_101_ct0_st02 -->
<g id="edge28" class="edge">
<title>ID_101_ct0_st024W&#45;&gt;ID_101_ct0_st02</title>
<path fill="none" stroke="black" d="M1183.78,-659.66C1193.23,-654.03 1202.38,-647.43 1210,-639.87 1254.74,-595.47 1257.11,-574.68 1277,-514.87 1293.88,-464.11 1274.69,-445.36 1295,-395.87 1306.64,-367.52 1327.03,-339.65 1344.32,-319.05"/>
<polygon fill="black" stroke="black" points="1347.16,-321.12 1351.01,-311.25 1341.84,-316.56 1347.16,-321.12"/>
<text text-anchor="start" x="1228" y="-623.67" font-family="arial" font-size="14.00" fill="#377eb8">(R&#39; || S&#39;)</text>
</g>
<!-- ID_101_ct0_st024W&#45;&gt;ID_101_ct0_st0234W -->
<g id="edge30" class="edge">
<title>ID_101_ct0_st024W&#45;&gt;ID_101_ct0_st0234W</title>
<path fill="none" stroke="black" d="M1036.69,-693.46C953.69,-698.27 826.13,-696.24 726,-652.87 696.46,-640.07 669.58,-615.28 650.84,-594.81"/>
<polygon fill="black" stroke="black" points="653.33,-592.34 644.07,-587.2 648.11,-597 653.33,-592.34"/>
<text text-anchor="start" x="848" y="-698.67" font-family="arial" font-size="14.00" fill="#377eb8">c0 &lt; 5</text>
</g>
<!-- ID_101_ct0_st024W&#45;&gt;ID_101_ct0_st024W -->
<g id="edge29" class="edge">
<title>ID_101_ct0_st024W&#45;&gt;ID_101_ct0_st024W</title>
<path fill="none" stroke="black" d="M1099.59,-710.05C1098.53,-719.78 1106.5,-727.87 1123.5,-727.87 1134.12,-727.87 1141.22,-724.71 1144.79,-719.96"/>
<polygon fill="black" stroke="black" points="1148.24,-720.61 1147.41,-710.05 1141.47,-718.82 1148.24,-720.61"/>
<text text-anchor="start" x="1104.5" y="-731.67" font-family="arial" font-size="14.00" fill="#377eb8">c0 &lt; 5</text>
</g>
<!-- ID_101_ct0_st024W&#45;&gt;ID_101_ct0_st0124W -->
<g id="edge33" class="edge">
<title>ID_101_ct0_st024W&#45;&gt;ID_101_ct0_st0124W</title>
<path fill="none" stroke="black" d="M1068.52,-659.69C1057.71,-653.77 1046.7,-647.06 1037,-639.87 981.2,-598.51 926.53,-538.66 895.1,-501.84"/>
<polygon fill="black" stroke="black" points="897.51,-499.27 888.38,-493.9 892.17,-503.79 897.51,-499.27"/>
<text text-anchor="start" x="975.5" y="-626.67" font-family="arial" font-size="14.00" fill="#377eb8">c0 &lt; 5</text>
</g>
<!-- ID_101_ct0_st0124W&#45;&gt;ID_101_ct0_st0 -->
<g id="edge35" class="edge">
<title>ID_101_ct0_st0124W&#45;&gt;ID_101_ct0_st0</title>
<path fill="none" stroke="black" d="M781.81,-461.16C686.06,-453.44 536.01,-444.81 482,-460.87 390.71,-488.03 301.55,-558.21 254.44,-599.74"/>
<polygon fill="black" stroke="black" points="251.83,-597.38 246.69,-606.64 256.49,-602.6 251.83,-597.38"/>
<text text-anchor="start" x="494.5" y="-464.67" font-family="arial" font-size="14.00" fill="#377eb8">R&#39;</text>
</g>
<!-- ID_101_ct0_st0124W&#45;&gt;ID_101_ct0_st01 -->
<g id="edge39" class="edge">
<title>ID_101_ct0_st0124W&#45;&gt;ID_101_ct0_st01</title>
<path fill="none" stroke="black" d="M781.7,-448.39C757.91,-442.82 731.98,-436.93 708,-431.87 628.11,-415.04 535.89,-398.09 474.16,-387.11"/>
<polygon fill="black" stroke="black" points="474.6,-383.63 464.15,-385.33 473.38,-390.52 474.6,-383.63"/>
<text text-anchor="start" x="611" y="-435.67" font-family="arial" font-size="14.00" fill="#377eb8">true</text>
</g>
<!-- ID_101_ct0_st0124W&#45;&gt;ID_101_ct0_st012 -->
<g id="edge40" class="edge">
<title>ID_101_ct0_st0124W&#45;&gt;ID_101_ct0_st012</title>
<path fill="none" stroke="black" d="M952.17,-459.54C1091.1,-444.92 1362.46,-419.85 1457,-435.87 1604.59,-460.89 1638.03,-486.47 1775,-546.87 1789.13,-553.1 1804.02,-560.64 1817.68,-567.99"/>
<polygon fill="black" stroke="black" points="1816.01,-571.07 1826.47,-572.78 1819.36,-564.92 1816.01,-571.07"/>
<text text-anchor="start" x="1351.5" y="-439.67" font-family="arial" font-size="14.00" fill="#377eb8">(R&#39; || S&#39;)</text>
</g>
<!-- ID_101_ct0_st0124W&#45;&gt;ID_101_ct0_st01234W -->
<g id="edge42" class="edge">
<title>ID_101_ct0_st0124W&#45;&gt;ID_101_ct0_st01234W</title>
<path fill="none" stroke="black" d="M952.01,-466.78C1024.96,-465.07 1133.46,-462.79 1228,-461.87 1359.95,-460.59 1400.89,-437.38 1524,-484.87 1548.76,-494.42 1572.68,-511.96 1590.91,-527.67"/>
<polygon fill="black" stroke="black" points="1589.07,-530.72 1598.87,-534.73 1593.71,-525.48 1589.07,-530.72"/>
<text text-anchor="start" x="1233.5" y="-465.67" font-family="arial" font-size="14.00" fill="#377eb8">c0 &lt; 5</text>
</g>
<!-- ID_101_ct0_st0124W&#45;&gt;ID_101_ct0_st02 -->
<g id="edge36" class="edge">
<title>ID_101_ct0_st0124W&#45;&gt;ID_101_ct0_st02</title>
<path fill="none" stroke="black" d="M930.07,-443.82C943.2,-438.73 957.01,-433.51 970,-428.87 1105.02,-380.68 1143.18,-381.31 1277,-329.87 1288.68,-325.38 1300.96,-320.23 1312.73,-315.06"/>
<polygon fill="black" stroke="black" points="1314.32,-318.18 1322.04,-310.93 1311.48,-311.79 1314.32,-318.18"/>
<text text-anchor="start" x="1099" y="-409.67" font-family="arial" font-size="14.00" fill="#377eb8">(R&#39; || S&#39;)</text>
</g>
<!-- ID_101_ct0_st0124W&#45;&gt;ID_101_ct0_st0234W -->
<g id="edge38" class="edge">
<title>ID_101_ct0_st0124W&#45;&gt;ID_101_ct0_st0234W</title>
<path fill="none" stroke="black" d="M781.91,-478.89C763.11,-482.65 743.55,-487.81 726,-494.87 704.04,-503.7 681.82,-517.59 663.75,-530.43"/>
<polygon fill="black" stroke="black" points="661.26,-527.91 655.23,-536.63 665.38,-533.57 661.26,-527.91"/>
<text text-anchor="start" x="726" y="-498.67" font-family="arial" font-size="14.00" fill="#377eb8">c0 &lt; 5</text>
</g>
<!-- ID_101_ct0_st0124W&#45;&gt;ID_101_ct0_st024W -->
<g id="edge37" class="edge">
<title>ID_101_ct0_st0124W&#45;&gt;ID_101_ct0_st024W</title>
<path fill="none" stroke="black" d="M928.81,-493.92C960.2,-509.83 996.53,-533.39 1019,-564.87 1038.92,-592.77 1015.96,-612.81 1037,-639.87 1040.99,-645 1045.72,-649.6 1050.89,-653.73"/>
<polygon fill="black" stroke="black" points="1049.17,-656.8 1059.32,-659.82 1053.27,-651.13 1049.17,-656.8"/>
<text text-anchor="start" x="975.5" y="-568.67" font-family="arial" font-size="14.00" fill="#377eb8">c0 &lt; 5</text>
</g>
<!-- ID_101_ct0_st0124W&#45;&gt;ID_101_ct0_st0124W -->
<g id="edge41" class="edge">
<title>ID_101_ct0_st0124W&#45;&gt;ID_101_ct0_st0124W</title>
<path fill="none" stroke="black" d="M844.21,-494.05C843.2,-503.78 850.8,-511.87 867,-511.87 877.13,-511.87 883.89,-508.71 887.29,-503.96"/>
<polygon fill="black" stroke="black" points="890.74,-504.6 889.79,-494.05 883.95,-502.89 890.74,-504.6"/>
<text text-anchor="start" x="848" y="-515.67" font-family="arial" font-size="14.00" fill="#377eb8">c0 &lt; 5</text>
</g>
</g>
</svg>
