<?xml version="1.0" encoding="UTF-8" standalone="no"?>
<!DOCTYPE svg PUBLIC "-//W3C//DTD SVG 1.1//EN"
 "http://www.w3.org/Graphics/SVG/1.1/DTD/svg11.dtd">
<!-- Generated by graphviz version 2.43.0 (0)
 -->
<!-- Title: G Pages: 1 -->
<svg width="298pt" height="150pt"
 viewBox="0.00 0.00 298.00 150.00" xmlns="http://www.w3.org/2000/svg" xmlns:xlink="http://www.w3.org/1999/xlink">
<g id="graph0" class="graph" transform="scale(1 1) rotate(0) translate(4 146)">
<title>G</title>
<polygon fill="white" stroke="transparent" points="-4,4 -4,-146 294,-146 294,4 -4,4"/>
<!-- _st0 -->
<!-- st0 -->
<g id="node2" class="node">
<title>st0</title>
<polygon fill="none" stroke="black" points="149.5,-109 95.5,-109 95.5,-59 149.5,-59 149.5,-109"/>
<text text-anchor="start" x="112.5" y="-94.8" font-family="arial" font-weight="bold" font-size="14.00">st0</text>
<text text-anchor="start" x="116.5" y="-80.8" font-family="arial" font-size="14.00" fill="#984ea3">Q</text>
<text text-anchor="start" x="110.5" y="-66.8" font-family="arial" font-size="14.00" fill="#ff7f00">true</text>
</g>
<!-- _st0&#45;&gt;st0 -->
<g id="edge1" class="edge">
<title>_st0&#45;&gt;st0</title>
<path fill="none" stroke="black" d="M54.04,-84C63.69,-84 74.81,-84 85.2,-84"/>
<polygon fill="black" stroke="black" points="85.27,-87.5 95.27,-84 85.27,-80.5 85.27,-87.5"/>
</g>
<!-- st0&#45;&gt;st0 -->
<g id="edge3" class="edge">
<title>st0&#45;&gt;st0</title>
<path fill="none" stroke="black" d="M113.16,-109.18C112.75,-118.91 115.86,-127 122.5,-127 126.55,-127 129.28,-124 130.71,-119.45"/>
<polygon fill="black" stroke="black" points="134.23,-119.5 131.84,-109.18 127.27,-118.73 134.23,-119.5"/>
<text text-anchor="start" x="110.5" y="-130.8" font-family="arial" font-size="14.00" fill="#377eb8">true</text>
</g>
<!-- st01W -->
<g id="node4" class="node">
<title>st01W</title>
<polygon fill="none" stroke="black" points="290,-76 228,-76 228,-26 290,-26 290,-76"/>
<text text-anchor="start" x="238.5" y="-61.8" font-family="arial" font-weight="bold" font-size="14.00">st01W</text>
<text text-anchor="start" x="251" y="-47.8" font-family="arial" font-size="14.00" fill="#984ea3">!Q</text>
<text text-anchor="start" x="236" y="-33.8" font-family="arial" font-size="14.00" fill="#ff7f00">c0 &lt;= 5</text>
</g>
<!-- st0&#45;&gt;st01W -->
<g id="edge4" class="edge">
<title>st0&#45;&gt;st01W</title>
<path fill="none" stroke="black" d="M149.82,-79.73C167.06,-76.71 190.02,-72.27 210,-67 212.75,-66.28 215.57,-65.48 218.4,-64.64"/>
<polygon fill="black" stroke="black" points="219.45,-67.98 227.96,-61.66 217.37,-61.29 219.45,-67.98"/>
<text text-anchor="start" x="179" y="-94.8" font-family="arial" font-size="14.00" fill="#377eb8">true</text>
<text text-anchor="start" x="172" y="-79.8" font-family="arial" font-size="14.00">c0 :=0</text>
</g>
<!-- _st01W -->
<!-- _st01W&#45;&gt;st01W -->
<g id="edge2" class="edge">
<title>_st01W&#45;&gt;st01W</title>
<path fill="none" stroke="black" d="M154.27,-21.33C170.95,-23.55 191.81,-26.99 210,-32 212.75,-32.76 215.57,-33.62 218.38,-34.55"/>
<polygon fill="black" stroke="black" points="217.27,-37.87 227.87,-37.93 219.62,-31.28 217.27,-37.87"/>
</g>
<!-- st01W&#45;&gt;st0 -->
<g id="edge5" class="edge">
<title>st01W&#45;&gt;st0</title>
<path fill="none" stroke="black" d="M227.82,-44.89C210.99,-42.73 189.87,-42.09 172,-48 167.33,-49.54 162.74,-51.73 158.37,-54.27"/>
<polygon fill="black" stroke="black" points="156.19,-51.51 149.71,-59.9 160.01,-57.38 156.19,-51.51"/>
<text text-anchor="start" x="179" y="-51.8" font-family="arial" font-size="14.00" fill="#377eb8">true</text>
</g>
<!-- st01W&#45;&gt;st01W -->
<g id="edge6" class="edge">
<title>st01W&#45;&gt;st01W</title>
<path fill="none" stroke="black" d="M246.3,-76.18C245.74,-85.91 249.97,-94 259,-94 264.64,-94 268.41,-90.84 270.31,-86.09"/>
<polygon fill="black" stroke="black" points="273.78,-86.56 271.7,-76.18 266.85,-85.59 273.78,-86.56"/>
<text text-anchor="start" x="240" y="-97.8" font-family="arial" font-size="14.00" fill="#377eb8">c0 &lt; 5</text>
</g>
</g>
</svg>
