<?xml version="1.0" encoding="UTF-8" standalone="no"?>
<!DOCTYPE svg PUBLIC "-//W3C//DTD SVG 1.1//EN"
 "http://www.w3.org/Graphics/SVG/1.1/DTD/svg11.dtd">
<!-- Generated by graphviz version 2.40.1 (20161225.0304)
 -->
<!-- Title: G Pages: 1 -->
<svg width="770pt" height="286pt"
 viewBox="0.00 0.00 770.00 286.11" xmlns="http://www.w3.org/2000/svg" xmlns:xlink="http://www.w3.org/1999/xlink">
<g id="graph0" class="graph" transform="scale(1 1) rotate(0) translate(4 282.1143)">
<title>G</title>
<polygon fill="#ffffff" stroke="transparent" points="-4,4 -4,-282.1143 766,-282.1143 766,4 -4,4"/>
<!-- _st0 -->
<!-- st0 -->
<g id="node2" class="node">
<title>st0</title>
<polygon fill="none" stroke="#000000" points="148.5,-60.1143 94.5,-60.1143 94.5,-10.1143 148.5,-10.1143 148.5,-60.1143"/>
<text text-anchor="start" x="110.5" y="-45.9143" font-family="arial" font-weight="bold" font-size="14.00" fill="#000000">st0</text>
<text text-anchor="start" x="113.5" y="-31.9143" font-family="arial" font-size="14.00" fill="#984ea3">!Q</text>
<text text-anchor="start" x="109" y="-17.9143" font-family="arial" font-size="14.00" fill="#ff7f00">true</text>
</g>
<!-- _st0&#45;&gt;st0 -->
<g id="edge1" class="edge">
<title>_st0&#45;&gt;st0</title>
<path fill="none" stroke="#000000" d="M54.0799,-35.1143C63.471,-35.1143 74.1709,-35.1143 84.237,-35.1143"/>
<polygon fill="#000000" stroke="#000000" points="84.4162,-38.6144 94.4161,-35.1143 84.4161,-31.6144 84.4162,-38.6144"/>
</g>
<!-- st0&#45;&gt;st0 -->
<g id="edge4" class="edge">
<title>st0&#45;&gt;st0</title>
<path fill="none" stroke="#000000" d="M112.5352,-60.2899C112.1367,-70.0238 115.125,-78.1143 121.5,-78.1143 125.3848,-78.1143 128.0119,-75.1099 129.3814,-70.5602"/>
<polygon fill="#000000" stroke="#000000" points="132.8964,-70.6019 130.4648,-60.2899 125.935,-69.8675 132.8964,-70.6019"/>
<text text-anchor="start" x="109" y="-81.9143" font-family="arial" font-size="14.00" fill="#377eb8">true</text>
</g>
<!-- st012 -->
<g id="node4" class="node">
<title>st012</title>
<polygon fill="none" stroke="#000000" points="291.5,-170.1143 217.5,-170.1143 217.5,-120.1143 291.5,-120.1143 291.5,-170.1143"/>
<text text-anchor="start" x="235.5" y="-155.9143" font-family="arial" font-weight="bold" font-size="14.00" fill="#000000">st012</text>
<text text-anchor="start" x="225.5" y="-141.9143" font-family="arial" font-size="14.00" fill="#984ea3">(Q &amp;&amp; R)</text>
<text text-anchor="start" x="242" y="-127.9143" font-family="arial" font-size="14.00" fill="#ff7f00">true</text>
</g>
<!-- st0&#45;&gt;st012 -->
<g id="edge5" class="edge">
<title>st0&#45;&gt;st012</title>
<path fill="none" stroke="#000000" d="M148.7355,-57.6398C168.2289,-73.7622 194.7354,-95.6849 216.3357,-113.5498"/>
<polygon fill="#000000" stroke="#000000" points="214.1131,-116.2535 224.0497,-119.9298 218.5744,-110.8593 214.1131,-116.2535"/>
<text text-anchor="start" x="170" y="-97.9143" font-family="arial" font-size="14.00" fill="#377eb8">true</text>
</g>
<!-- st0123W -->
<g id="node6" class="node">
<title>st0123W</title>
<polygon fill="none" stroke="#000000" points="450,-132.1143 372,-132.1143 372,-82.1143 450,-82.1143 450,-132.1143"/>
<text text-anchor="start" x="381" y="-117.9143" font-family="arial" font-weight="bold" font-size="14.00" fill="#000000">st0123W</text>
<text text-anchor="start" x="380" y="-103.9143" font-family="arial" font-size="14.00" fill="#984ea3">(Q &amp;&amp; !R)</text>
<text text-anchor="start" x="386.5" y="-89.9143" font-family="arial" font-size="14.00" fill="#ff7f00">c0 &lt;= 5</text>
</g>
<!-- st0&#45;&gt;st0123W -->
<g id="edge6" class="edge">
<title>st0&#45;&gt;st0123W</title>
<path fill="none" stroke="#000000" d="M148.6516,-22.7433C183.7091,-8.5879 246.136,10.3924 296,-8.1143 314.7378,-15.0687 351.6637,-48.5586 378.6344,-74.6851"/>
<polygon fill="#000000" stroke="#000000" points="376.3536,-77.3497 385.9542,-81.8307 381.2434,-72.3407 376.3536,-77.3497"/>
<text text-anchor="start" x="242" y="-26.9143" font-family="arial" font-size="14.00" fill="#377eb8">true</text>
<text text-anchor="start" x="234.5" y="-11.9143" font-family="arial" font-size="14.00" fill="#000000">c0 :=0</text>
</g>
<!-- _st012 -->
<!-- _st012&#45;&gt;st012 -->
<g id="edge2" class="edge">
<title>_st012&#45;&gt;st012</title>
<path fill="none" stroke="#000000" d="M152.0129,-145.1143C168.3728,-145.1143 188.891,-145.1143 207.2626,-145.1143"/>
<polygon fill="#000000" stroke="#000000" points="207.4949,-148.6144 217.4949,-145.1143 207.4948,-141.6144 207.4949,-148.6144"/>
</g>
<!-- st012&#45;&gt;st012 -->
<g id="edge13" class="edge">
<title>st012&#45;&gt;st012</title>
<path fill="none" stroke="#000000" d="M241.0527,-170.2899C240.4551,-180.0238 244.9375,-188.1143 254.5,-188.1143 260.4766,-188.1143 264.4687,-184.9539 266.4765,-180.2072"/>
<polygon fill="#000000" stroke="#000000" points="269.9423,-180.6952 267.9473,-170.2899 263.018,-179.6682 269.9423,-180.6952"/>
<text text-anchor="start" x="242" y="-191.9143" font-family="arial" font-size="14.00" fill="#377eb8">true</text>
</g>
<!-- st012&#45;&gt;st0123W -->
<g id="edge14" class="edge">
<title>st012&#45;&gt;st0123W</title>
<path fill="none" stroke="#000000" d="M291.9432,-137.3545C310.6432,-133.3474 333.579,-128.2337 354,-123.1143 356.6202,-122.4574 359.3031,-121.7668 362.0083,-121.0562"/>
<polygon fill="#000000" stroke="#000000" points="363.0779,-124.3931 371.8291,-118.421 361.2636,-117.6323 363.0779,-124.3931"/>
<text text-anchor="start" x="321.5" y="-150.9143" font-family="arial" font-size="14.00" fill="#377eb8">true</text>
<text text-anchor="start" x="314" y="-135.9143" font-family="arial" font-size="14.00" fill="#000000">c0 :=0</text>
</g>
<!-- st02 -->
<g id="node7" class="node">
<title>st02</title>
<polygon fill="none" stroke="#000000" points="762,-208.1143 684,-208.1143 684,-158.1143 762,-158.1143 762,-208.1143"/>
<text text-anchor="start" x="708" y="-193.9143" font-family="arial" font-weight="bold" font-size="14.00" fill="#000000">st02</text>
<text text-anchor="start" x="692" y="-179.9143" font-family="arial" font-size="14.00" fill="#984ea3">(!Q &amp;&amp; R)</text>
<text text-anchor="start" x="710.5" y="-165.9143" font-family="arial" font-size="14.00" fill="#ff7f00">true</text>
</g>
<!-- st012&#45;&gt;st02 -->
<g id="edge11" class="edge">
<title>st012&#45;&gt;st02</title>
<path fill="none" stroke="#000000" d="M271.6905,-170.3857C282.4822,-184.7354 297.4614,-202.1626 314,-214.1143 371.7951,-255.8799 397.1063,-251.4509 468,-259.1143 556.3608,-268.6658 588.0217,-273.7552 666,-231.1143 674.2525,-226.6015 682.4149,-220.7806 689.8728,-214.7585"/>
<polygon fill="#000000" stroke="#000000" points="692.2678,-217.3174 697.6599,-208.1973 687.7573,-211.9643 692.2678,-217.3174"/>
<text text-anchor="start" x="475.5" y="-266.9143" font-family="arial" font-size="14.00" fill="#377eb8">true</text>
</g>
<!-- st023W -->
<g id="node8" class="node">
<title>st023W</title>
<polygon fill="none" stroke="#000000" points="608,-81.1143 526,-81.1143 526,-31.1143 608,-31.1143 608,-81.1143"/>
<text text-anchor="start" x="541" y="-66.9143" font-family="arial" font-weight="bold" font-size="14.00" fill="#000000">st023W</text>
<text text-anchor="start" x="534" y="-52.9143" font-family="arial" font-size="14.00" fill="#984ea3">(!Q &amp;&amp; !R)</text>
<text text-anchor="start" x="542.5" y="-38.9143" font-family="arial" font-size="14.00" fill="#ff7f00">c0 &lt;= 5</text>
</g>
<!-- st012&#45;&gt;st023W -->
<g id="edge12" class="edge">
<title>st012&#45;&gt;st023W</title>
<path fill="none" stroke="#000000" d="M291.6237,-161.1497C331.7834,-176.1096 397.1537,-193.4491 450,-174.1143 492.0431,-158.732 526.1069,-118.6391 546.4163,-89.446"/>
<polygon fill="#000000" stroke="#000000" points="549.3212,-91.3983 552.023,-81.1537 543.5223,-87.4774 549.3212,-91.3983"/>
<text text-anchor="start" x="398.5" y="-200.9143" font-family="arial" font-size="14.00" fill="#377eb8">true</text>
<text text-anchor="start" x="391" y="-185.9143" font-family="arial" font-size="14.00" fill="#000000">c0 :=0</text>
</g>
<!-- _st0123W -->
<!-- _st0123W&#45;&gt;st0123W -->
<g id="edge3" class="edge">
<title>_st0123W&#45;&gt;st0123W</title>
<path fill="none" stroke="#000000" d="M296.0282,-76.2592C316.3535,-81.7139 340.9536,-88.3159 362.1744,-94.0109"/>
<polygon fill="#000000" stroke="#000000" points="361.4065,-97.4286 371.972,-96.6403 363.2209,-90.6678 361.4065,-97.4286"/>
</g>
<!-- st0123W&#45;&gt;st012 -->
<g id="edge21" class="edge">
<title>st0123W&#45;&gt;st012</title>
<path fill="none" stroke="#000000" d="M371.9737,-100.1473C353.9539,-98.378 332.5006,-98.3573 314,-104.1143 306.42,-106.473 298.9517,-110.1708 292.0031,-114.4017"/>
<polygon fill="#000000" stroke="#000000" points="289.9435,-111.5671 283.5102,-119.9851 293.7889,-117.4163 289.9435,-111.5671"/>
<text text-anchor="start" x="321.5" y="-107.9143" font-family="arial" font-size="14.00" fill="#377eb8">true</text>
</g>
<!-- st0123W&#45;&gt;st0123W -->
<g id="edge22" class="edge">
<title>st0123W&#45;&gt;st0123W</title>
<path fill="none" stroke="#000000" d="M396.8057,-132.2899C396.1748,-142.0238 400.9063,-150.1143 411,-150.1143 417.3086,-150.1143 421.5225,-146.9539 423.6418,-142.2072"/>
<polygon fill="#000000" stroke="#000000" points="427.1055,-142.7109 425.1943,-132.2899 420.1898,-141.6282 427.1055,-142.7109"/>
<text text-anchor="start" x="391" y="-153.9143" font-family="arial" font-size="14.00" fill="#377eb8">c0 &lt; 5</text>
</g>
<!-- st0123W&#45;&gt;st02 -->
<g id="edge19" class="edge">
<title>st0123W&#45;&gt;st02</title>
<path fill="none" stroke="#000000" d="M435.1989,-132.3622C456.7815,-152.9187 490.3938,-180.3837 526,-192.1143 574.4134,-208.0642 633.1458,-202.418 673.8199,-194.9004"/>
<polygon fill="#000000" stroke="#000000" points="674.6104,-198.3122 683.7544,-192.9608 673.269,-191.4419 674.6104,-198.3122"/>
<text text-anchor="start" x="554.5" y="-205.9143" font-family="arial" font-size="14.00" fill="#377eb8">true</text>
</g>
<!-- st0123W&#45;&gt;st023W -->
<g id="edge20" class="edge">
<title>st0123W&#45;&gt;st023W</title>
<path fill="none" stroke="#000000" d="M450.2699,-108.0933C468.3411,-107.3892 489.7672,-104.8853 508,-98.1143 515.4588,-95.3443 522.8353,-91.3774 529.7143,-86.9745"/>
<polygon fill="#000000" stroke="#000000" points="531.8499,-89.7544 538.1304,-81.2217 527.8997,-83.9754 531.8499,-89.7544"/>
<text text-anchor="start" x="468" y="-109.9143" font-family="arial" font-size="14.00" fill="#377eb8">c0 &lt; 5</text>
</g>
<!-- st02&#45;&gt;st012 -->
<g id="edge9" class="edge">
<title>st02&#45;&gt;st012</title>
<path fill="none" stroke="#000000" d="M683.8235,-205.0604C677.9727,-207.7417 671.9169,-210.2039 666,-212.1143 541.642,-252.2641 498.679,-248.198 372,-216.1143 343.24,-208.8303 314.6683,-191.8435 292.9013,-176.3118"/>
<polygon fill="#000000" stroke="#000000" points="294.742,-173.3214 284.6083,-170.2296 290.6022,-178.966 294.742,-173.3214"/>
<text text-anchor="start" x="475.5" y="-243.9143" font-family="arial" font-size="14.00" fill="#377eb8">true</text>
</g>
<!-- st02&#45;&gt;st0123W -->
<g id="edge10" class="edge">
<title>st02&#45;&gt;st0123W</title>
<path fill="none" stroke="#000000" d="M683.8725,-175.2588C633.6101,-164.9294 543.8078,-145.6678 468,-125.1143 465.3677,-124.4006 462.6751,-123.6437 459.9624,-122.8601"/>
<polygon fill="#000000" stroke="#000000" points="460.7057,-119.4297 450.1229,-119.9345 458.7107,-126.1394 460.7057,-119.4297"/>
<text text-anchor="start" x="554.5" y="-176.9143" font-family="arial" font-size="14.00" fill="#377eb8">true</text>
<text text-anchor="start" x="547" y="-161.9143" font-family="arial" font-size="14.00" fill="#000000">c0 :=0</text>
</g>
<!-- st02&#45;&gt;st02 -->
<g id="edge7" class="edge">
<title>st02&#45;&gt;st02</title>
<path fill="none" stroke="#000000" d="M708.8057,-208.2899C708.1748,-218.0238 712.9063,-226.1143 723,-226.1143 729.3086,-226.1143 733.5225,-222.9539 735.6418,-218.2072"/>
<polygon fill="#000000" stroke="#000000" points="739.1055,-218.7109 737.1943,-208.2899 732.1898,-217.6282 739.1055,-218.7109"/>
<text text-anchor="start" x="710.5" y="-229.9143" font-family="arial" font-size="14.00" fill="#377eb8">true</text>
</g>
<!-- st02&#45;&gt;st023W -->
<g id="edge8" class="edge">
<title>st02&#45;&gt;st023W</title>
<path fill="none" stroke="#000000" d="M718.4478,-158.0885C711.9742,-130.3707 697.2345,-86.7467 666,-65.1143 652.2533,-55.5935 634.7308,-51.9904 618.2599,-51.1892"/>
<polygon fill="#000000" stroke="#000000" points="618.2394,-47.6885 608.1835,-51.0247 618.125,-54.6876 618.2394,-47.6885"/>
<text text-anchor="start" x="633.5" y="-83.9143" font-family="arial" font-size="14.00" fill="#377eb8">true</text>
<text text-anchor="start" x="626" y="-68.9143" font-family="arial" font-size="14.00" fill="#000000">c0 :=0</text>
</g>
<!-- st023W&#45;&gt;st012 -->
<g id="edge17" class="edge">
<title>st023W&#45;&gt;st012</title>
<path fill="none" stroke="#000000" d="M525.7323,-50.2051C485.6069,-45.9211 423.3664,-43.1836 372,-58.1143 338.4234,-67.8739 306.9586,-92.3225 285.0556,-112.8251"/>
<polygon fill="#000000" stroke="#000000" points="282.4999,-110.4271 277.7193,-119.882 287.3527,-115.472 282.4999,-110.4271"/>
<text text-anchor="start" x="398.5" y="-61.9143" font-family="arial" font-size="14.00" fill="#377eb8">true</text>
</g>
<!-- st023W&#45;&gt;st0123W -->
<g id="edge18" class="edge">
<title>st023W&#45;&gt;st0123W</title>
<path fill="none" stroke="#000000" d="M525.6873,-66.0776C507.7875,-70.7286 486.6926,-76.6617 468,-83.1143 465.2882,-84.0504 462.5215,-85.0525 459.741,-86.0967"/>
<polygon fill="#000000" stroke="#000000" points="458.3428,-82.8851 450.2935,-89.7741 460.882,-89.4083 458.3428,-82.8851"/>
<text text-anchor="start" x="468" y="-86.9143" font-family="arial" font-size="14.00" fill="#377eb8">c0 &lt; 5</text>
</g>
<!-- st023W&#45;&gt;st02 -->
<g id="edge15" class="edge">
<title>st023W&#45;&gt;st02</title>
<path fill="none" stroke="#000000" d="M604.741,-81.1238C611.7995,-85.7836 619.1197,-90.6043 626,-95.1143 643.7331,-106.7382 649.8086,-107.4242 666,-121.1143 676.3079,-129.8297 686.5942,-140.3223 695.5338,-150.1768"/>
<polygon fill="#000000" stroke="#000000" points="693.1322,-152.7435 702.3892,-157.897 698.3664,-148.0956 693.1322,-152.7435"/>
<text text-anchor="start" x="633.5" y="-124.9143" font-family="arial" font-size="14.00" fill="#377eb8">true</text>
</g>
<!-- st023W&#45;&gt;st023W -->
<g id="edge16" class="edge">
<title>st023W&#45;&gt;st023W</title>
<path fill="none" stroke="#000000" d="M552.4321,-81.2899C551.7847,-91.0238 556.6406,-99.1143 567,-99.1143 573.4746,-99.1143 577.7994,-95.9539 579.9745,-91.2072"/>
<polygon fill="#000000" stroke="#000000" points="583.4372,-91.7185 581.5679,-81.2899 576.5258,-90.608 583.4372,-91.7185"/>
<text text-anchor="start" x="547" y="-102.9143" font-family="arial" font-size="14.00" fill="#377eb8">c0 &lt; 5</text>
</g>
</g>
</svg>
