<?xml version="1.0" encoding="UTF-8" standalone="no"?>
<!DOCTYPE svg PUBLIC "-//W3C//DTD SVG 1.1//EN"
 "http://www.w3.org/Graphics/SVG/1.1/DTD/svg11.dtd">
<!-- Generated by graphviz version 2.43.0 (0)
 -->
<!-- Title: G Pages: 1 -->
<svg width="474pt" height="155pt"
 viewBox="0.00 0.00 474.00 155.00" xmlns="http://www.w3.org/2000/svg" xmlns:xlink="http://www.w3.org/1999/xlink">
<g id="graph0" class="graph" transform="scale(1 1) rotate(0) translate(4 151)">
<title>G</title>
<polygon fill="white" stroke="transparent" points="-4,4 -4,-151 470,-151 470,4 -4,4"/>
<!-- _st0 -->
<!-- st0 -->
<g id="node2" class="node">
<title>st0</title>
<polygon fill="none" stroke="black" points="159,-114 94,-114 94,-64 159,-64 159,-114"/>
<text text-anchor="start" x="116.5" y="-99.8" font-family="arial" font-weight="bold" font-size="14.00">st0</text>
<text text-anchor="start" x="102" y="-85.8" font-family="arial" font-size="14.00" fill="#984ea3">(Q || !R)</text>
<text text-anchor="start" x="114.5" y="-71.8" font-family="arial" font-size="14.00" fill="#ff7f00">true</text>
</g>
<!-- _st0&#45;&gt;st0 -->
<g id="edge1" class="edge">
<title>_st0&#45;&gt;st0</title>
<path fill="none" stroke="black" d="M54.13,-89C63.17,-89 73.55,-89 83.54,-89"/>
<polygon fill="black" stroke="black" points="83.74,-92.5 93.74,-89 83.74,-85.5 83.74,-92.5"/>
</g>
<!-- st0&#45;&gt;st0 -->
<g id="edge3" class="edge">
<title>st0&#45;&gt;st0</title>
<path fill="none" stroke="black" d="M116.41,-114.18C115.97,-123.91 119.33,-132 126.5,-132 130.87,-132 133.83,-129 135.37,-124.45"/>
<polygon fill="black" stroke="black" points="138.88,-124.52 136.59,-114.18 131.93,-123.69 138.88,-124.52"/>
<text text-anchor="start" x="114.5" y="-135.8" font-family="arial" font-size="14.00" fill="#377eb8">true</text>
</g>
<!-- st012W -->
<g id="node4" class="node">
<title>st012W</title>
<polygon fill="none" stroke="black" points="312,-70 236,-70 236,-20 312,-20 312,-70"/>
<text text-anchor="start" x="249.5" y="-55.8" font-family="arial" font-weight="bold" font-size="14.00">st012W</text>
<text text-anchor="start" x="244" y="-41.8" font-family="arial" font-size="14.00" fill="#984ea3">(!Q &amp;&amp; R)</text>
<text text-anchor="start" x="251" y="-27.8" font-family="arial" font-size="14.00" fill="#ff7f00">c0 &lt;= 5</text>
</g>
<!-- st0&#45;&gt;st012W -->
<g id="edge4" class="edge">
<title>st0&#45;&gt;st012W</title>
<path fill="none" stroke="black" d="M159.22,-82.45C176.72,-78.55 198.75,-73.16 218,-67 220.76,-66.12 223.57,-65.17 226.39,-64.17"/>
<polygon fill="black" stroke="black" points="227.81,-67.38 235.98,-60.64 225.39,-60.81 227.81,-67.38"/>
<text text-anchor="start" x="187" y="-96.8" font-family="arial" font-size="14.00" fill="#377eb8">true</text>
<text text-anchor="start" x="180" y="-81.8" font-family="arial" font-size="14.00">c0 :=0</text>
</g>
<!-- _st012W -->
<!-- _st012W&#45;&gt;st012W -->
<g id="edge2" class="edge">
<title>_st012W&#45;&gt;st012W</title>
<path fill="none" stroke="black" d="M162.42,-22.75C179.27,-25.21 199.74,-28.44 218,-32 220.62,-32.51 223.3,-33.06 226,-33.63"/>
<polygon fill="black" stroke="black" points="225.29,-37.06 235.81,-35.79 226.79,-30.22 225.29,-37.06"/>
</g>
<!-- st012W&#45;&gt;st0 -->
<g id="edge8" class="edge">
<title>st012W&#45;&gt;st0</title>
<path fill="none" stroke="black" d="M235.79,-40.98C218.36,-40.4 197.62,-41.62 180,-48 173.5,-50.36 167.17,-53.85 161.29,-57.82"/>
<polygon fill="black" stroke="black" points="159,-55.15 153.02,-63.9 163.15,-60.79 159,-55.15"/>
<text text-anchor="start" x="191.5" y="-51.8" font-family="arial" font-size="14.00" fill="#377eb8">Q&#39;</text>
</g>
<!-- st012W&#45;&gt;st012W -->
<g id="edge10" class="edge">
<title>st012W&#45;&gt;st012W</title>
<path fill="none" stroke="black" d="M260.18,-70.18C259.56,-79.91 264.17,-88 274,-88 280.14,-88 284.25,-84.84 286.31,-80.09"/>
<polygon fill="black" stroke="black" points="289.77,-80.59 287.82,-70.18 282.85,-79.53 289.77,-80.59"/>
<text text-anchor="start" x="255" y="-91.8" font-family="arial" font-size="14.00" fill="#377eb8">c0 &lt; 5</text>
</g>
<!-- st02W -->
<g id="node5" class="node">
<title>st02W</title>
<polygon fill="none" stroke="black" points="466,-108 386,-108 386,-58 466,-58 466,-108"/>
<text text-anchor="start" x="405.5" y="-93.8" font-family="arial" font-weight="bold" font-size="14.00">st02W</text>
<text text-anchor="start" x="394" y="-79.8" font-family="arial" font-size="14.00" fill="#984ea3">(!Q &amp;&amp; !R)</text>
<text text-anchor="start" x="403" y="-65.8" font-family="arial" font-size="14.00" fill="#ff7f00">c0 &lt;= 5</text>
</g>
<!-- st012W&#45;&gt;st02W -->
<g id="edge9" class="edge">
<title>st012W&#45;&gt;st02W</title>
<path fill="none" stroke="black" d="M312.2,-56.13C318.14,-57.81 324.23,-59.49 330,-61 344.77,-64.86 360.93,-68.73 375.66,-72.12"/>
<polygon fill="black" stroke="black" points="375.06,-75.58 385.59,-74.39 376.62,-68.75 375.06,-75.58"/>
<text text-anchor="start" x="330" y="-73.8" font-family="arial" font-size="14.00" fill="#377eb8">c0 &lt; 5</text>
</g>
<!-- st02W&#45;&gt;st0 -->
<g id="edge5" class="edge">
<title>st02W&#45;&gt;st0</title>
<path fill="none" stroke="black" d="M385.99,-95.59C364.43,-101.9 337.02,-108.84 312,-112 253.8,-119.35 237.42,-124.03 180,-112 176.17,-111.2 172.27,-110.1 168.42,-108.81"/>
<polygon fill="black" stroke="black" points="169.6,-105.52 159.01,-105.29 167.15,-112.07 169.6,-105.52"/>
<text text-anchor="start" x="266.5" y="-122.8" font-family="arial" font-size="14.00" fill="#377eb8">Q&#39;</text>
</g>
<!-- st02W&#45;&gt;st012W -->
<g id="edge7" class="edge">
<title>st02W&#45;&gt;st012W</title>
<path fill="none" stroke="black" d="M393.12,-57.88C385.32,-53.02 376.7,-48.63 368,-46 353.56,-41.64 337.27,-40.33 322.4,-40.42"/>
<polygon fill="black" stroke="black" points="322.28,-36.92 312.38,-40.69 322.47,-43.92 322.28,-36.92"/>
<text text-anchor="start" x="330" y="-49.8" font-family="arial" font-size="14.00" fill="#377eb8">c0 &lt; 5</text>
</g>
<!-- st02W&#45;&gt;st02W -->
<g id="edge6" class="edge">
<title>st02W&#45;&gt;st02W</title>
<path fill="none" stroke="black" d="M411.81,-108.18C411.17,-117.91 415.91,-126 426,-126 432.31,-126 436.52,-122.84 438.64,-118.09"/>
<polygon fill="black" stroke="black" points="442.11,-118.6 440.19,-108.18 435.19,-117.51 442.11,-118.6"/>
<text text-anchor="start" x="407" y="-129.8" font-family="arial" font-size="14.00" fill="#377eb8">c0 &lt; 5</text>
</g>
</g>
</svg>
