<?xml version="1.0" encoding="UTF-8" standalone="no"?>
<!DOCTYPE svg PUBLIC "-//W3C//DTD SVG 1.1//EN"
 "http://www.w3.org/Graphics/SVG/1.1/DTD/svg11.dtd">
<!-- Generated by graphviz version 2.40.1 (20161225.0304)
 -->
<!-- Title: G Pages: 1 -->
<svg width="306pt" height="150pt"
 viewBox="0.00 0.00 306.00 150.00" xmlns="http://www.w3.org/2000/svg" xmlns:xlink="http://www.w3.org/1999/xlink">
<g id="graph0" class="graph" transform="scale(1 1) rotate(0) translate(4 146)">
<title>G</title>
<polygon fill="#ffffff" stroke="transparent" points="-4,4 -4,-146 302,-146 302,4 -4,4"/>
<!-- _st0 -->
<!-- st0 -->
<g id="node2" class="node">
<title>st0</title>
<polygon fill="none" stroke="#000000" points="151,-109 97,-109 97,-59 151,-59 151,-109"/>
<text text-anchor="start" x="113" y="-94.8" font-family="arial" font-weight="bold" font-size="14.00" fill="#000000">st0</text>
<text text-anchor="start" x="118" y="-80.8" font-family="arial" font-size="14.00" fill="#984ea3">Q</text>
<text text-anchor="start" x="111.5" y="-66.8" font-family="arial" font-size="14.00" fill="#ff7f00">true</text>
</g>
<!-- _st0&#45;&gt;st0 -->
<g id="edge1" class="edge">
<title>_st0&#45;&gt;st0</title>
<path fill="none" stroke="#000000" d="M54.0199,-84C64.1304,-84 75.8016,-84 86.6794,-84"/>
<polygon fill="#000000" stroke="#000000" points="86.7886,-87.5001 96.7886,-84 86.7885,-80.5001 86.7886,-87.5001"/>
</g>
<!-- st0&#45;&gt;st0 -->
<g id="edge3" class="edge">
<title>st0&#45;&gt;st0</title>
<path fill="none" stroke="#000000" d="M114.6616,-109.1756C114.2466,-118.9095 117.3594,-127 124,-127 128.0466,-127 130.7832,-123.9957 132.2098,-119.446"/>
<polygon fill="#000000" stroke="#000000" points="135.7251,-119.4981 133.3384,-109.1756 128.767,-118.7335 135.7251,-119.4981"/>
<text text-anchor="start" x="111.5" y="-130.8" font-family="arial" font-size="14.00" fill="#377eb8">true</text>
</g>
<!-- st01W -->
<g id="node4" class="node">
<title>st01W</title>
<polygon fill="none" stroke="#000000" points="298,-76 233,-76 233,-26 298,-26 298,-76"/>
<text text-anchor="start" x="244" y="-61.8" font-family="arial" font-weight="bold" font-size="14.00" fill="#000000">st01W</text>
<text text-anchor="start" x="257.5" y="-47.8" font-family="arial" font-size="14.00" fill="#984ea3">!Q</text>
<text text-anchor="start" x="241" y="-33.8" font-family="arial" font-size="14.00" fill="#ff7f00">c0 &lt;= 5</text>
</g>
<!-- st0&#45;&gt;st01W -->
<g id="edge4" class="edge">
<title>st0&#45;&gt;st01W</title>
<path fill="none" stroke="#000000" d="M151.2646,-79.8012C169.4414,-76.7833 193.7989,-72.3178 215,-67 217.6274,-66.341 220.3187,-65.6218 223.0243,-64.8651"/>
<polygon fill="#000000" stroke="#000000" points="224.1851,-68.1722 232.7968,-62.0006 222.216,-61.4548 224.1851,-68.1722"/>
<text text-anchor="start" x="182.5" y="-94.8" font-family="arial" font-size="14.00" fill="#377eb8">true</text>
<text text-anchor="start" x="175" y="-79.8" font-family="arial" font-size="14.00" fill="#000000">c0 :=0</text>
</g>
<!-- _st01W -->
<!-- _st01W&#45;&gt;st01W -->
<g id="edge2" class="edge">
<title>_st01W&#45;&gt;st01W</title>
<path fill="none" stroke="#000000" d="M157.1912,-21.4291C174.5843,-23.6461 196.1357,-27.0573 215,-32 217.7609,-32.7234 220.58,-33.5437 223.4043,-34.4277"/>
<polygon fill="#000000" stroke="#000000" points="222.3558,-37.7676 232.9498,-37.6298 224.5822,-31.1311 222.3558,-37.7676"/>
</g>
<!-- st01W&#45;&gt;st0 -->
<g id="edge5" class="edge">
<title>st01W&#45;&gt;st0</title>
<path fill="none" stroke="#000000" d="M232.9491,-44.7262C215.3936,-42.6225 193.58,-42.1029 175,-48 169.7704,-49.6598 164.6148,-52.071 159.7083,-54.8714"/>
<polygon fill="#000000" stroke="#000000" points="157.7701,-51.9558 151.1836,-60.2545 161.5076,-57.8746 157.7701,-51.9558"/>
<text text-anchor="start" x="182.5" y="-51.8" font-family="arial" font-size="14.00" fill="#377eb8">true</text>
</g>
<!-- st01W&#45;&gt;st01W -->
<g id="edge6" class="edge">
<title>st01W&#45;&gt;st01W</title>
<path fill="none" stroke="#000000" d="M252.4263,-76.1756C251.8452,-85.9095 256.2031,-94 265.5,-94 271.3105,-94 275.1918,-90.8397 277.1438,-86.093"/>
<polygon fill="#000000" stroke="#000000" points="280.6107,-86.5728 278.5737,-76.1756 273.6824,-85.5738 280.6107,-86.5728"/>
<text text-anchor="start" x="245.5" y="-97.8" font-family="arial" font-size="14.00" fill="#377eb8">c0 &lt; 5</text>
</g>
</g>
</svg>
