<?xml version="1.0" encoding="UTF-8" standalone="no"?>
<!DOCTYPE svg PUBLIC "-//W3C//DTD SVG 1.1//EN"
 "http://www.w3.org/Graphics/SVG/1.1/DTD/svg11.dtd">
<!-- Generated by graphviz version 2.40.1 (20161225.0304)
 -->
<!-- Title: G Pages: 1 -->
<svg width="779pt" height="277pt"
 viewBox="0.00 0.00 779.00 277.11" xmlns="http://www.w3.org/2000/svg" xmlns:xlink="http://www.w3.org/1999/xlink">
<g id="graph0" class="graph" transform="scale(1 1) rotate(0) translate(4 273.1143)">
<title>G</title>
<polygon fill="#ffffff" stroke="transparent" points="-4,4 -4,-273.1143 775,-273.1143 775,4 -4,4"/>
<!-- _st0 -->
<!-- st0 -->
<g id="node2" class="node">
<title>st0</title>
<polygon fill="none" stroke="#000000" points="148.5,-60.1143 94.5,-60.1143 94.5,-10.1143 148.5,-10.1143 148.5,-60.1143"/>
<text text-anchor="start" x="110.5" y="-45.9143" font-family="arial" font-weight="bold" font-size="14.00" fill="#000000">st0</text>
<text text-anchor="start" x="113.5" y="-31.9143" font-family="arial" font-size="14.00" fill="#984ea3">!Q</text>
<text text-anchor="start" x="109" y="-17.9143" font-family="arial" font-size="14.00" fill="#ff7f00">true</text>
</g>
<!-- _st0&#45;&gt;st0 -->
<g id="edge1" class="edge">
<title>_st0&#45;&gt;st0</title>
<path fill="none" stroke="#000000" d="M54.0799,-35.1143C63.471,-35.1143 74.1709,-35.1143 84.237,-35.1143"/>
<polygon fill="#000000" stroke="#000000" points="84.4162,-38.6144 94.4161,-35.1143 84.4161,-31.6144 84.4162,-38.6144"/>
</g>
<!-- st0&#45;&gt;st0 -->
<g id="edge4" class="edge">
<title>st0&#45;&gt;st0</title>
<path fill="none" stroke="#000000" d="M112.5352,-60.2899C112.1367,-70.0238 115.125,-78.1143 121.5,-78.1143 125.3848,-78.1143 128.0119,-75.1099 129.3814,-70.5602"/>
<polygon fill="#000000" stroke="#000000" points="132.8964,-70.6019 130.4648,-60.2899 125.935,-69.8675 132.8964,-70.6019"/>
<text text-anchor="start" x="109" y="-81.9143" font-family="arial" font-size="14.00" fill="#377eb8">true</text>
</g>
<!-- st012 -->
<g id="node4" class="node">
<title>st012</title>
<polygon fill="none" stroke="#000000" points="291.5,-170.1143 217.5,-170.1143 217.5,-120.1143 291.5,-120.1143 291.5,-170.1143"/>
<text text-anchor="start" x="235.5" y="-155.9143" font-family="arial" font-weight="bold" font-size="14.00" fill="#000000">st012</text>
<text text-anchor="start" x="225.5" y="-141.9143" font-family="arial" font-size="14.00" fill="#984ea3">(Q &amp;&amp; R)</text>
<text text-anchor="start" x="242" y="-127.9143" font-family="arial" font-size="14.00" fill="#ff7f00">true</text>
</g>
<!-- st0&#45;&gt;st012 -->
<g id="edge5" class="edge">
<title>st0&#45;&gt;st012</title>
<path fill="none" stroke="#000000" d="M148.7355,-57.6398C168.2289,-73.7622 194.7354,-95.6849 216.3357,-113.5498"/>
<polygon fill="#000000" stroke="#000000" points="214.1131,-116.2535 224.0497,-119.9298 218.5744,-110.8593 214.1131,-116.2535"/>
<text text-anchor="start" x="170" y="-97.9143" font-family="arial" font-size="14.00" fill="#377eb8">true</text>
</g>
<!-- st0123W -->
<g id="node6" class="node">
<title>st0123W</title>
<polygon fill="none" stroke="#000000" points="450,-132.1143 372,-132.1143 372,-82.1143 450,-82.1143 450,-132.1143"/>
<text text-anchor="start" x="381" y="-117.9143" font-family="arial" font-weight="bold" font-size="14.00" fill="#000000">st0123W</text>
<text text-anchor="start" x="380" y="-103.9143" font-family="arial" font-size="14.00" fill="#984ea3">(Q &amp;&amp; !R)</text>
<text text-anchor="start" x="382.5" y="-89.9143" font-family="arial" font-size="14.00" fill="#ff7f00">c0 &lt;= 50</text>
</g>
<!-- st0&#45;&gt;st0123W -->
<g id="edge6" class="edge">
<title>st0&#45;&gt;st0123W</title>
<path fill="none" stroke="#000000" d="M148.6516,-22.7433C183.7091,-8.5879 246.136,10.3924 296,-8.1143 314.7378,-15.0687 351.6637,-48.5586 378.6344,-74.6851"/>
<polygon fill="#000000" stroke="#000000" points="376.3536,-77.3497 385.9542,-81.8307 381.2434,-72.3407 376.3536,-77.3497"/>
<text text-anchor="start" x="242" y="-26.9143" font-family="arial" font-size="14.00" fill="#377eb8">true</text>
<text text-anchor="start" x="234.5" y="-11.9143" font-family="arial" font-size="14.00" fill="#000000">c0 :=0</text>
</g>
<!-- _st012 -->
<!-- _st012&#45;&gt;st012 -->
<g id="edge2" class="edge">
<title>_st012&#45;&gt;st012</title>
<path fill="none" stroke="#000000" d="M152.0129,-145.1143C168.3728,-145.1143 188.891,-145.1143 207.2626,-145.1143"/>
<polygon fill="#000000" stroke="#000000" points="207.4949,-148.6144 217.4949,-145.1143 207.4948,-141.6144 207.4949,-148.6144"/>
</g>
<!-- st012&#45;&gt;st012 -->
<g id="edge13" class="edge">
<title>st012&#45;&gt;st012</title>
<path fill="none" stroke="#000000" d="M241.0527,-170.2899C240.4551,-180.0238 244.9375,-188.1143 254.5,-188.1143 260.4766,-188.1143 264.4687,-184.9539 266.4765,-180.2072"/>
<polygon fill="#000000" stroke="#000000" points="269.9423,-180.6952 267.9473,-170.2899 263.018,-179.6682 269.9423,-180.6952"/>
<text text-anchor="start" x="242" y="-191.9143" font-family="arial" font-size="14.00" fill="#377eb8">true</text>
</g>
<!-- st012&#45;&gt;st0123W -->
<g id="edge14" class="edge">
<title>st012&#45;&gt;st0123W</title>
<path fill="none" stroke="#000000" d="M291.9432,-137.3545C310.6432,-133.3474 333.579,-128.2337 354,-123.1143 356.6202,-122.4574 359.3031,-121.7668 362.0083,-121.0562"/>
<polygon fill="#000000" stroke="#000000" points="363.0779,-124.3931 371.8291,-118.421 361.2636,-117.6323 363.0779,-124.3931"/>
<text text-anchor="start" x="321.5" y="-150.9143" font-family="arial" font-size="14.00" fill="#377eb8">true</text>
<text text-anchor="start" x="314" y="-135.9143" font-family="arial" font-size="14.00" fill="#000000">c0 :=0</text>
</g>
<!-- st02 -->
<g id="node7" class="node">
<title>st02</title>
<polygon fill="none" stroke="#000000" points="771,-208.1143 693,-208.1143 693,-158.1143 771,-158.1143 771,-208.1143"/>
<text text-anchor="start" x="717" y="-193.9143" font-family="arial" font-weight="bold" font-size="14.00" fill="#000000">st02</text>
<text text-anchor="start" x="701" y="-179.9143" font-family="arial" font-size="14.00" fill="#984ea3">(!Q &amp;&amp; R)</text>
<text text-anchor="start" x="719.5" y="-165.9143" font-family="arial" font-size="14.00" fill="#ff7f00">true</text>
</g>
<!-- st012&#45;&gt;st02 -->
<g id="edge11" class="edge">
<title>st012&#45;&gt;st02</title>
<path fill="none" stroke="#000000" d="M271.9477,-170.4287C282.722,-184.5335 297.597,-201.5335 314,-213.1143 371.5047,-253.7132 397.7922,-245.0219 468,-250.1143 560.1862,-256.8008 590.6704,-267.9499 675,-230.1143 683.5938,-226.2585 691.9477,-220.7472 699.4922,-214.8475"/>
<polygon fill="#000000" stroke="#000000" points="701.8647,-217.4272 707.334,-208.3532 697.3998,-212.0359 701.8647,-217.4272"/>
<text text-anchor="start" x="480" y="-257.9143" font-family="arial" font-size="14.00" fill="#377eb8">true</text>
</g>
<!-- st023W -->
<g id="node8" class="node">
<title>st023W</title>
<polygon fill="none" stroke="#000000" points="617,-81.1143 535,-81.1143 535,-31.1143 617,-31.1143 617,-81.1143"/>
<text text-anchor="start" x="550" y="-66.9143" font-family="arial" font-weight="bold" font-size="14.00" fill="#000000">st023W</text>
<text text-anchor="start" x="543" y="-52.9143" font-family="arial" font-size="14.00" fill="#984ea3">(!Q &amp;&amp; !R)</text>
<text text-anchor="start" x="547.5" y="-38.9143" font-family="arial" font-size="14.00" fill="#ff7f00">c0 &lt;= 50</text>
</g>
<!-- st012&#45;&gt;st023W -->
<g id="edge12" class="edge">
<title>st012&#45;&gt;st023W</title>
<path fill="none" stroke="#000000" d="M291.7069,-160.4572C331.6564,-174.6847 396.5876,-191.2726 450,-174.1143 494.409,-159.8482 531.3915,-119.3144 553.5634,-89.725"/>
<polygon fill="#000000" stroke="#000000" points="556.6288,-91.4613 559.6893,-81.3181 550.9714,-87.3389 556.6288,-91.4613"/>
<text text-anchor="start" x="398.5" y="-199.9143" font-family="arial" font-size="14.00" fill="#377eb8">true</text>
<text text-anchor="start" x="391" y="-184.9143" font-family="arial" font-size="14.00" fill="#000000">c0 :=0</text>
</g>
<!-- _st0123W -->
<!-- _st0123W&#45;&gt;st0123W -->
<g id="edge3" class="edge">
<title>_st0123W&#45;&gt;st0123W</title>
<path fill="none" stroke="#000000" d="M296.0282,-76.2592C316.3535,-81.7139 340.9536,-88.3159 362.1744,-94.0109"/>
<polygon fill="#000000" stroke="#000000" points="361.4065,-97.4286 371.972,-96.6403 363.2209,-90.6678 361.4065,-97.4286"/>
</g>
<!-- st0123W&#45;&gt;st012 -->
<g id="edge21" class="edge">
<title>st0123W&#45;&gt;st012</title>
<path fill="none" stroke="#000000" d="M371.9737,-100.1473C353.9539,-98.378 332.5006,-98.3573 314,-104.1143 306.42,-106.473 298.9517,-110.1708 292.0031,-114.4017"/>
<polygon fill="#000000" stroke="#000000" points="289.9435,-111.5671 283.5102,-119.9851 293.7889,-117.4163 289.9435,-111.5671"/>
<text text-anchor="start" x="321.5" y="-107.9143" font-family="arial" font-size="14.00" fill="#377eb8">true</text>
</g>
<!-- st0123W&#45;&gt;st0123W -->
<g id="edge22" class="edge">
<title>st0123W&#45;&gt;st0123W</title>
<path fill="none" stroke="#000000" d="M396.8057,-132.2899C396.1748,-142.0238 400.9063,-150.1143 411,-150.1143 417.3086,-150.1143 421.5225,-146.9539 423.6418,-142.2072"/>
<polygon fill="#000000" stroke="#000000" points="427.1055,-142.7109 425.1943,-132.2899 420.1898,-141.6282 427.1055,-142.7109"/>
<text text-anchor="start" x="386.5" y="-153.9143" font-family="arial" font-size="14.00" fill="#377eb8">c0 &lt; 50</text>
</g>
<!-- st0123W&#45;&gt;st02 -->
<g id="edge19" class="edge">
<title>st0123W&#45;&gt;st02</title>
<path fill="none" stroke="#000000" d="M436.4339,-132.1475C459.8339,-153.2879 496.6321,-181.997 535,-194.1143 583.6317,-209.473 642.3284,-203.2467 682.9345,-195.3473"/>
<polygon fill="#000000" stroke="#000000" points="683.7575,-198.7514 692.8512,-193.315 682.3521,-191.894 683.7575,-198.7514"/>
<text text-anchor="start" x="563.5" y="-206.9143" font-family="arial" font-size="14.00" fill="#377eb8">true</text>
</g>
<!-- st0123W&#45;&gt;st023W -->
<g id="edge20" class="edge">
<title>st0123W&#45;&gt;st023W</title>
<path fill="none" stroke="#000000" d="M450.0856,-108.6826C470.5759,-108.3034 495.7602,-105.9077 517,-98.1143 524.4696,-95.3735 531.8515,-91.4213 538.7326,-87.0241"/>
<polygon fill="#000000" stroke="#000000" points="540.8668,-89.8049 547.1498,-81.2741 536.9182,-84.0249 540.8668,-89.8049"/>
<text text-anchor="start" x="468" y="-110.9143" font-family="arial" font-size="14.00" fill="#377eb8">c0 &lt; 50</text>
</g>
<!-- st02&#45;&gt;st012 -->
<g id="edge9" class="edge">
<title>st02&#45;&gt;st012</title>
<path fill="none" stroke="#000000" d="M692.8768,-205.8372C687.0182,-208.608 680.946,-211.149 675,-213.1143 650.2315,-221.3006 643.009,-220.1083 617,-222.1143 508.3892,-230.4908 477.4578,-242.4112 372,-215.1143 343.792,-207.8128 315.6289,-191.4275 293.9488,-176.3444"/>
<polygon fill="#000000" stroke="#000000" points="295.8442,-173.397 285.673,-170.431 291.7745,-179.0925 295.8442,-173.397"/>
<text text-anchor="start" x="480" y="-234.9143" font-family="arial" font-size="14.00" fill="#377eb8">true</text>
</g>
<!-- st02&#45;&gt;st0123W -->
<g id="edge10" class="edge">
<title>st02&#45;&gt;st0123W</title>
<path fill="none" stroke="#000000" d="M692.7613,-176.03C640.9123,-166.3537 546.9186,-147.7177 468,-126.1143 465.2647,-125.3655 462.4675,-124.5614 459.6523,-123.7223"/>
<polygon fill="#000000" stroke="#000000" points="460.6636,-120.3716 450.076,-120.7636 458.5972,-127.0597 460.6636,-120.3716"/>
<text text-anchor="start" x="563.5" y="-178.9143" font-family="arial" font-size="14.00" fill="#377eb8">true</text>
<text text-anchor="start" x="556" y="-163.9143" font-family="arial" font-size="14.00" fill="#000000">c0 :=0</text>
</g>
<!-- st02&#45;&gt;st02 -->
<g id="edge7" class="edge">
<title>st02&#45;&gt;st02</title>
<path fill="none" stroke="#000000" d="M717.8057,-208.2899C717.1748,-218.0238 721.9063,-226.1143 732,-226.1143 738.3086,-226.1143 742.5225,-222.9539 744.6418,-218.2072"/>
<polygon fill="#000000" stroke="#000000" points="748.1055,-218.7109 746.1943,-208.2899 741.1898,-217.6282 748.1055,-218.7109"/>
<text text-anchor="start" x="719.5" y="-229.9143" font-family="arial" font-size="14.00" fill="#377eb8">true</text>
</g>
<!-- st02&#45;&gt;st023W -->
<g id="edge8" class="edge">
<title>st02&#45;&gt;st023W</title>
<path fill="none" stroke="#000000" d="M727.4478,-158.0885C720.9742,-130.3707 706.2345,-86.7467 675,-65.1143 661.2533,-55.5935 643.7308,-51.9904 627.2599,-51.1892"/>
<polygon fill="#000000" stroke="#000000" points="627.2394,-47.6885 617.1835,-51.0247 627.125,-54.6876 627.2394,-47.6885"/>
<text text-anchor="start" x="642.5" y="-83.9143" font-family="arial" font-size="14.00" fill="#377eb8">true</text>
<text text-anchor="start" x="635" y="-68.9143" font-family="arial" font-size="14.00" fill="#000000">c0 :=0</text>
</g>
<!-- st023W&#45;&gt;st012 -->
<g id="edge17" class="edge">
<title>st023W&#45;&gt;st012</title>
<path fill="none" stroke="#000000" d="M534.8041,-50.1225C492.9162,-45.4992 426.5908,-42.2598 372,-58.1143 338.4212,-67.8664 306.9566,-92.3155 285.0542,-112.8202"/>
<polygon fill="#000000" stroke="#000000" points="282.498,-110.4227 277.7181,-119.878 287.3512,-115.4672 282.498,-110.4227"/>
<text text-anchor="start" x="398.5" y="-61.9143" font-family="arial" font-size="14.00" fill="#377eb8">true</text>
</g>
<!-- st023W&#45;&gt;st0123W -->
<g id="edge18" class="edge">
<title>st023W&#45;&gt;st0123W</title>
<path fill="none" stroke="#000000" d="M534.8034,-64.8464C514.4808,-69.5491 489.7273,-75.8718 468,-83.1143 465.2784,-84.0215 462.5039,-85.0007 459.7174,-86.0272"/>
<polygon fill="#000000" stroke="#000000" points="458.3351,-82.8087 450.2556,-89.6623 460.8456,-89.3431 458.3351,-82.8087"/>
<text text-anchor="start" x="468" y="-86.9143" font-family="arial" font-size="14.00" fill="#377eb8">c0 &lt; 50</text>
</g>
<!-- st023W&#45;&gt;st02 -->
<g id="edge15" class="edge">
<title>st023W&#45;&gt;st02</title>
<path fill="none" stroke="#000000" d="M613.741,-81.1238C620.7995,-85.7836 628.1197,-90.6043 635,-95.1143 652.7331,-106.7382 658.8086,-107.4242 675,-121.1143 685.3079,-129.8297 695.5942,-140.3223 704.5338,-150.1768"/>
<polygon fill="#000000" stroke="#000000" points="702.1322,-152.7435 711.3892,-157.897 707.3664,-148.0956 702.1322,-152.7435"/>
<text text-anchor="start" x="642.5" y="-124.9143" font-family="arial" font-size="14.00" fill="#377eb8">true</text>
</g>
<!-- st023W&#45;&gt;st023W -->
<g id="edge16" class="edge">
<title>st023W&#45;&gt;st023W</title>
<path fill="none" stroke="#000000" d="M561.4321,-81.2899C560.7847,-91.0238 565.6406,-99.1143 576,-99.1143 582.4746,-99.1143 586.7994,-95.9539 588.9745,-91.2072"/>
<polygon fill="#000000" stroke="#000000" points="592.4372,-91.7185 590.5679,-81.2899 585.5258,-90.608 592.4372,-91.7185"/>
<text text-anchor="start" x="551.5" y="-102.9143" font-family="arial" font-size="14.00" fill="#377eb8">c0 &lt; 50</text>
</g>
</g>
</svg>
