<?xml version="1.0" encoding="UTF-8" standalone="no"?>
<!DOCTYPE svg PUBLIC "-//W3C//DTD SVG 1.1//EN"
 "http://www.w3.org/Graphics/SVG/1.1/DTD/svg11.dtd">
<!-- Generated by graphviz version 2.43.0 (0)
 -->
<!-- Title: G Pages: 1 -->
<svg width="866pt" height="237pt"
 viewBox="0.00 0.00 866.00 236.81" xmlns="http://www.w3.org/2000/svg" xmlns:xlink="http://www.w3.org/1999/xlink">
<g id="graph0" class="graph" transform="scale(1 1) rotate(0) translate(4 232.81)">
<title>G</title>
<polygon fill="white" stroke="transparent" points="-4,4 -4,-232.81 862,-232.81 862,4 -4,4"/>
<!-- _ID_22_ct0_st -->
<!-- ID_22_ct0_st -->
<g id="node2" class="node">
<title>ID_22_ct0_st</title>
<polygon fill="none" stroke="black" points="858,-167.81 759,-167.81 759,-117.81 858,-117.81 858,-167.81"/>
<text text-anchor="start" x="767" y="-153.61" font-family="arial" font-weight="bold" font-size="14.00">ID_22_ct0_st</text>
<text text-anchor="start" x="796.5" y="-139.61" font-family="arial" font-size="14.00" fill="#984ea3">true</text>
<text text-anchor="start" x="796.5" y="-125.61" font-family="arial" font-size="14.00" fill="#ff7f00">true</text>
</g>
<!-- _ID_22_ct0_st&#45;&gt;ID_22_ct0_st -->
<g id="edge1" class="edge">
<title>_ID_22_ct0_st&#45;&gt;ID_22_ct0_st</title>
<path fill="none" stroke="black" d="M705.1,-193.41C717.02,-188.97 729.56,-183.98 741,-178.81 745.33,-176.86 749.77,-174.73 754.2,-172.53"/>
<polygon fill="black" stroke="black" points="755.92,-175.58 763.23,-167.92 752.73,-169.35 755.92,-175.58"/>
</g>
<!-- ID_22_ct0_st&#45;&gt;ID_22_ct0_st -->
<g id="edge4" class="edge">
<title>ID_22_ct0_st&#45;&gt;ID_22_ct0_st</title>
<path fill="none" stroke="black" d="M794.68,-167.99C794.06,-177.72 798.67,-185.81 808.5,-185.81 814.64,-185.81 818.75,-182.65 820.81,-177.91"/>
<polygon fill="black" stroke="black" points="824.27,-178.4 822.32,-167.99 817.35,-177.35 824.27,-178.4"/>
<text text-anchor="start" x="796.5" y="-189.61" font-family="arial" font-size="14.00" fill="#377eb8">true</text>
</g>
<!-- _ID_22_ct0_st0 -->
<!-- ID_22_ct0_st0 -->
<g id="node4" class="node">
<title>ID_22_ct0_st0</title>
<polygon fill="none" stroke="black" points="261,-146.81 154,-146.81 154,-96.81 261,-96.81 261,-146.81"/>
<text text-anchor="start" x="162" y="-132.61" font-family="arial" font-weight="bold" font-size="14.00">ID_22_ct0_st0</text>
<text text-anchor="start" x="178.5" y="-118.61" font-family="arial" font-size="14.00" fill="#984ea3">(!P &amp;&amp; R)</text>
<text text-anchor="start" x="195.5" y="-104.61" font-family="arial" font-size="14.00" fill="#ff7f00">true</text>
</g>
<!-- _ID_22_ct0_st0&#45;&gt;ID_22_ct0_st0 -->
<g id="edge2" class="edge">
<title>_ID_22_ct0_st0&#45;&gt;ID_22_ct0_st0</title>
<path fill="none" stroke="black" d="M111.08,-121.81C121.62,-121.81 132.74,-121.81 143.52,-121.81"/>
<polygon fill="black" stroke="black" points="143.72,-125.31 153.72,-121.81 143.72,-118.31 143.72,-125.31"/>
</g>
<!-- ID_22_ct0_st0&#45;&gt;ID_22_ct0_st -->
<g id="edge5" class="edge">
<title>ID_22_ct0_st0&#45;&gt;ID_22_ct0_st</title>
<path fill="none" stroke="black" d="M261.1,-131.27C269.09,-132.56 277.25,-133.79 285,-134.81 303.59,-137.28 308.28,-137.68 327,-138.81 496.94,-149.11 539.77,-148.43 710,-145.81 722.56,-145.62 736.03,-145.29 748.82,-144.91"/>
<polygon fill="black" stroke="black" points="749.02,-148.41 758.91,-144.6 748.8,-141.41 749.02,-148.41"/>
<text text-anchor="start" x="512" y="-150.61" font-family="arial" font-size="14.00" fill="#377eb8">P&#39;</text>
</g>
<!-- ID_22_ct0_st0&#45;&gt;ID_22_ct0_st0 -->
<g id="edge6" class="edge">
<title>ID_22_ct0_st0&#45;&gt;ID_22_ct0_st0</title>
<path fill="none" stroke="black" d="M192.93,-146.99C192.28,-156.72 197.14,-164.81 207.5,-164.81 213.97,-164.81 218.3,-161.65 220.47,-156.91"/>
<polygon fill="black" stroke="black" points="223.94,-157.42 222.07,-146.99 217.03,-156.31 223.94,-157.42"/>
<text text-anchor="start" x="195.5" y="-168.61" font-family="arial" font-size="14.00" fill="#377eb8">true</text>
</g>
<!-- ID_22_ct0_st01 -->
<g id="node6" class="node">
<title>ID_22_ct0_st01</title>
<polygon fill="none" stroke="black" points="441,-52.81 327,-52.81 327,-2.81 441,-2.81 441,-52.81"/>
<text text-anchor="start" x="335" y="-38.61" font-family="arial" font-weight="bold" font-size="14.00">ID_22_ct0_st01</text>
<text text-anchor="start" x="353.5" y="-24.61" font-family="arial" font-size="14.00" fill="#984ea3">(!P &amp;&amp; !R)</text>
<text text-anchor="start" x="372" y="-10.61" font-family="arial" font-size="14.00" fill="#ff7f00">true</text>
</g>
<!-- ID_22_ct0_st0&#45;&gt;ID_22_ct0_st01 -->
<g id="edge7" class="edge">
<title>ID_22_ct0_st0&#45;&gt;ID_22_ct0_st01</title>
<path fill="none" stroke="black" d="M255.26,-96.62C277.45,-84.67 304.14,-70.3 327.36,-57.79"/>
<polygon fill="black" stroke="black" points="329.27,-60.74 336.41,-52.91 325.95,-54.57 329.27,-60.74"/>
<text text-anchor="start" x="285" y="-83.61" font-family="arial" font-size="14.00" fill="#377eb8">true</text>
</g>
<!-- _ID_22_ct0_st01 -->
<!-- _ID_22_ct0_st01&#45;&gt;ID_22_ct0_st01 -->
<g id="edge3" class="edge">
<title>_ID_22_ct0_st01&#45;&gt;ID_22_ct0_st01</title>
<path fill="none" stroke="black" d="M267.09,-27.81C283.08,-27.81 300.51,-27.81 316.89,-27.81"/>
<polygon fill="black" stroke="black" points="316.93,-31.31 326.93,-27.81 316.93,-24.31 316.93,-31.31"/>
</g>
<!-- ID_22_ct0_st01&#45;&gt;ID_22_ct0_st -->
<g id="edge8" class="edge">
<title>ID_22_ct0_st01&#45;&gt;ID_22_ct0_st</title>
<path fill="none" stroke="black" d="M441.15,-13.66C508.91,0.27 624.4,13.78 710,-29.81 744.23,-47.25 771.51,-82.38 788.41,-108.87"/>
<polygon fill="black" stroke="black" points="785.5,-110.82 793.74,-117.49 791.46,-107.14 785.5,-110.82"/>
<text text-anchor="start" x="646.5" y="-33.61" font-family="arial" font-size="14.00" fill="#377eb8">P&#39;</text>
</g>
<!-- ID_22_ct0_st01&#45;&gt;ID_22_ct0_st01 -->
<g id="edge10" class="edge">
<title>ID_22_ct0_st01&#45;&gt;ID_22_ct0_st01</title>
<path fill="none" stroke="black" d="M367.94,-52.99C367.22,-62.72 372.58,-70.81 384,-70.81 391.14,-70.81 395.91,-67.65 398.31,-62.91"/>
<polygon fill="black" stroke="black" points="401.76,-63.45 400.06,-52.99 394.87,-62.23 401.76,-63.45"/>
<text text-anchor="start" x="372" y="-74.61" font-family="arial" font-size="14.00" fill="#377eb8">true</text>
</g>
<!-- ID_22_ct0_st02 -->
<g id="node7" class="node">
<title>ID_22_ct0_st02</title>
<polygon fill="none" stroke="black" points="710,-103.81 596,-103.81 596,-53.81 710,-53.81 710,-103.81"/>
<text text-anchor="start" x="604" y="-89.61" font-family="arial" font-weight="bold" font-size="14.00">ID_22_ct0_st02</text>
<text text-anchor="start" x="624" y="-75.61" font-family="arial" font-size="14.00" fill="#984ea3">(!P &amp;&amp; R)</text>
<text text-anchor="start" x="630" y="-61.61" font-family="arial" font-size="14.00" fill="#ff7f00">c0 &lt;= 5</text>
</g>
<!-- ID_22_ct0_st01&#45;&gt;ID_22_ct0_st02 -->
<g id="edge9" class="edge">
<title>ID_22_ct0_st01&#45;&gt;ID_22_ct0_st02</title>
<path fill="none" stroke="black" d="M441.08,-22.62C480.24,-20.72 533.29,-21.65 578,-34.81 588.65,-37.95 599.35,-42.97 609.17,-48.52"/>
<polygon fill="black" stroke="black" points="607.53,-51.61 617.92,-53.72 611.11,-45.6 607.53,-51.61"/>
<text text-anchor="start" x="506.5" y="-53.61" font-family="arial" font-size="14.00" fill="#377eb8">true</text>
<text text-anchor="start" x="499.5" y="-38.61" font-family="arial" font-size="14.00">c0 :=0</text>
</g>
<!-- ID_22_ct0_st02&#45;&gt;ID_22_ct0_st -->
<g id="edge11" class="edge">
<title>ID_22_ct0_st02&#45;&gt;ID_22_ct0_st</title>
<path fill="none" stroke="black" d="M710.29,-102.28C722.97,-107.57 736.45,-113.19 749.22,-118.51"/>
<polygon fill="black" stroke="black" points="748.23,-121.9 758.81,-122.51 750.93,-115.44 748.23,-121.9"/>
<text text-anchor="start" x="728" y="-117.61" font-family="arial" font-size="14.00" fill="#377eb8">P&#39;</text>
</g>
<!-- ID_22_ct0_st02&#45;&gt;ID_22_ct0_st0 -->
<g id="edge12" class="edge">
<title>ID_22_ct0_st02&#45;&gt;ID_22_ct0_st0</title>
<path fill="none" stroke="black" d="M595.69,-95.29C589.76,-96.65 583.78,-97.86 578,-98.81 471.24,-116.38 345.12,-120.79 271.26,-121.75"/>
<polygon fill="black" stroke="black" points="271.15,-118.25 261.19,-121.86 271.23,-125.25 271.15,-118.25"/>
<text text-anchor="start" x="343" y="-123.61" font-family="arial" font-size="14.00" fill="#377eb8">(P&#39; || c0 &gt;= 5)</text>
</g>
<!-- ID_22_ct0_st02&#45;&gt;ID_22_ct0_st01 -->
<g id="edge14" class="edge">
<title>ID_22_ct0_st02&#45;&gt;ID_22_ct0_st01</title>
<path fill="none" stroke="black" d="M595.7,-80.46C556.68,-80.22 503.87,-77.14 459,-64.81 451.86,-62.85 444.59,-60.18 437.54,-57.16"/>
<polygon fill="black" stroke="black" points="438.64,-53.82 428.09,-52.87 435.74,-60.19 438.64,-53.82"/>
<text text-anchor="start" x="459" y="-83.61" font-family="arial" font-size="14.00" fill="#377eb8">(P&#39; || (R&#39; || c0 &gt;= 5))</text>
</g>
<!-- ID_22_ct0_st02&#45;&gt;ID_22_ct0_st02 -->
<g id="edge13" class="edge">
<title>ID_22_ct0_st02&#45;&gt;ID_22_ct0_st02</title>
<path fill="none" stroke="black" d="M638.06,-103.99C637.39,-113.72 642.38,-121.81 653,-121.81 659.64,-121.81 664.08,-118.65 666.31,-113.91"/>
<polygon fill="black" stroke="black" points="669.77,-114.43 667.94,-103.99 662.86,-113.29 669.77,-114.43"/>
<text text-anchor="start" x="634" y="-125.61" font-family="arial" font-size="14.00" fill="#377eb8">c0 &lt; 5</text>
</g>
</g>
</svg>
