<?xml version="1.0" encoding="UTF-8" standalone="no"?>
<!DOCTYPE svg PUBLIC "-//W3C//DTD SVG 1.1//EN"
 "http://www.w3.org/Graphics/SVG/1.1/DTD/svg11.dtd">
<!-- Generated by graphviz version 2.43.0 (0)
 -->
<!-- Title: G Pages: 1 -->
<svg width="1667pt" height="792pt"
 viewBox="0.00 0.00 1667.00 791.60" xmlns="http://www.w3.org/2000/svg" xmlns:xlink="http://www.w3.org/1999/xlink">
<g id="graph0" class="graph" transform="scale(1 1) rotate(0) translate(4 787.6)">
<title>G</title>
<polygon fill="white" stroke="transparent" points="-4,4 -4,-787.6 1663,-787.6 1663,4 -4,4"/>
<!-- _ID_11_ct0_st0 -->
<!-- ID_11_ct0_st0 -->
<g id="node2" class="node">
<title>ID_11_ct0_st0</title>
<polygon fill="none" stroke="black" points="259,-552.6 153,-552.6 153,-502.6 259,-502.6 259,-552.6"/>
<text text-anchor="start" x="161" y="-538.4" font-family="arial" font-weight="bold" font-size="14.00">ID_11_ct0_st0</text>
<text text-anchor="start" x="199.5" y="-524.4" font-family="arial" font-size="14.00" fill="#984ea3">!P</text>
<text text-anchor="start" x="194" y="-510.4" font-family="arial" font-size="14.00" fill="#ff7f00">true</text>
</g>
<!-- _ID_11_ct0_st0&#45;&gt;ID_11_ct0_st0 -->
<g id="edge1" class="edge">
<title>_ID_11_ct0_st0&#45;&gt;ID_11_ct0_st0</title>
<path fill="none" stroke="black" d="M110.21,-527.6C120.68,-527.6 131.73,-527.6 142.44,-527.6"/>
<polygon fill="black" stroke="black" points="142.57,-531.1 152.57,-527.6 142.57,-524.1 142.57,-531.1"/>
</g>
<!-- ID_11_ct0_st0&#45;&gt;ID_11_ct0_st0 -->
<g id="edge5" class="edge">
<title>ID_11_ct0_st0&#45;&gt;ID_11_ct0_st0</title>
<path fill="none" stroke="black" d="M191.81,-552.78C191.17,-562.51 195.91,-570.6 206,-570.6 212.31,-570.6 216.52,-567.44 218.64,-562.69"/>
<polygon fill="black" stroke="black" points="222.11,-563.2 220.19,-552.78 215.19,-562.11 222.11,-563.2"/>
<text text-anchor="start" x="194" y="-574.4" font-family="arial" font-size="14.00" fill="#377eb8">true</text>
</g>
<!-- ID_11_ct0_st01 -->
<g id="node4" class="node">
<title>ID_11_ct0_st01</title>
<polygon fill="none" stroke="black" points="438,-332.6 325,-332.6 325,-282.6 438,-282.6 438,-332.6"/>
<text text-anchor="start" x="333" y="-318.4" font-family="arial" font-weight="bold" font-size="14.00">ID_11_ct0_st01</text>
<text text-anchor="start" x="354" y="-304.4" font-family="arial" font-size="14.00" fill="#984ea3">(P &amp;&amp; Q)</text>
<text text-anchor="start" x="369.5" y="-290.4" font-family="arial" font-size="14.00" fill="#ff7f00">true</text>
</g>
<!-- ID_11_ct0_st0&#45;&gt;ID_11_ct0_st01 -->
<g id="edge6" class="edge">
<title>ID_11_ct0_st0&#45;&gt;ID_11_ct0_st01</title>
<path fill="none" stroke="black" d="M216.41,-502.51C228.62,-472.16 252.06,-420.55 283,-383.6 297.09,-366.77 315.48,-351.26 332.49,-338.7"/>
<polygon fill="black" stroke="black" points="334.64,-341.47 340.71,-332.78 330.55,-335.79 334.64,-341.47"/>
<text text-anchor="start" x="283" y="-387.4" font-family="arial" font-size="14.00" fill="#377eb8">true</text>
</g>
<!-- ID_11_ct0_st012 -->
<g id="node6" class="node">
<title>ID_11_ct0_st012</title>
<polygon fill="none" stroke="black" points="1659,-468.6 1536,-468.6 1536,-418.6 1659,-418.6 1659,-468.6"/>
<text text-anchor="start" x="1545" y="-454.4" font-family="arial" font-weight="bold" font-size="14.00">ID_11_ct0_st012</text>
<text text-anchor="start" x="1544" y="-440.4" font-family="arial" font-size="14.00" fill="#984ea3">(P &amp;&amp; (!Q &amp;&amp; !R))</text>
<text text-anchor="start" x="1585.5" y="-426.4" font-family="arial" font-size="14.00" fill="#ff7f00">true</text>
</g>
<!-- ID_11_ct0_st0&#45;&gt;ID_11_ct0_st012 -->
<g id="edge7" class="edge">
<title>ID_11_ct0_st0&#45;&gt;ID_11_ct0_st012</title>
<path fill="none" stroke="black" d="M208.33,-552.9C212.12,-598.27 226.72,-693.46 283,-744.6 316.03,-774.61 335.87,-768.6 380.5,-768.6 380.5,-768.6 380.5,-768.6 1398,-768.6 1452.39,-768.6 1478.45,-781.93 1518,-744.6 1556.57,-708.19 1582.17,-550.46 1591.99,-479.01"/>
<polygon fill="black" stroke="black" points="1595.51,-479.09 1593.38,-468.72 1588.57,-478.16 1595.51,-479.09"/>
<text text-anchor="start" x="892" y="-772.4" font-family="arial" font-size="14.00" fill="#377eb8">true</text>
</g>
<!-- ID_11_ct0_st0123W -->
<g id="node8" class="node">
<title>ID_11_ct0_st0123W</title>
<polygon fill="none" stroke="black" points="874,-471.6 732,-471.6 732,-421.6 874,-421.6 874,-471.6"/>
<text text-anchor="start" x="740" y="-457.4" font-family="arial" font-weight="bold" font-size="14.00">ID_11_ct0_st0123W</text>
<text text-anchor="start" x="751.5" y="-443.4" font-family="arial" font-size="14.00" fill="#984ea3">(P &amp;&amp; (!Q &amp;&amp; R))</text>
<text text-anchor="start" x="780" y="-429.4" font-family="arial" font-size="14.00" fill="#ff7f00">c0 &lt;= 5</text>
</g>
<!-- ID_11_ct0_st0&#45;&gt;ID_11_ct0_st0123W -->
<g id="edge8" class="edge">
<title>ID_11_ct0_st0&#45;&gt;ID_11_ct0_st0123W</title>
<path fill="none" stroke="black" d="M259.3,-537.13C344.63,-550.66 518.33,-569.73 658,-530.6 696.01,-519.95 734.39,-496.81 761.96,-477.5"/>
<polygon fill="black" stroke="black" points="764.05,-480.31 770.16,-471.65 759.99,-474.61 764.05,-480.31"/>
<text text-anchor="start" x="463" y="-572.4" font-family="arial" font-size="14.00" fill="#377eb8">true</text>
<text text-anchor="start" x="456" y="-557.4" font-family="arial" font-size="14.00">c0 :=0</text>
</g>
<!-- _ID_11_ct0_st01 -->
<!-- _ID_11_ct0_st01&#45;&gt;ID_11_ct0_st01 -->
<g id="edge2" class="edge">
<title>_ID_11_ct0_st01&#45;&gt;ID_11_ct0_st01</title>
<path fill="none" stroke="black" d="M265.26,-307.6C281,-307.6 298.16,-307.6 314.31,-307.6"/>
<polygon fill="black" stroke="black" points="314.75,-311.1 324.75,-307.6 314.75,-304.1 314.75,-311.1"/>
</g>
<!-- ID_11_ct0_st01&#45;&gt;ID_11_ct0_st0 -->
<g id="edge9" class="edge">
<title>ID_11_ct0_st01&#45;&gt;ID_11_ct0_st0</title>
<path fill="none" stroke="black" d="M360.56,-332.88C329.12,-372.75 268,-450.25 233.1,-494.5"/>
<polygon fill="black" stroke="black" points="230.35,-492.34 226.9,-502.36 235.84,-496.68 230.35,-492.34"/>
<text text-anchor="start" x="287.5" y="-434.4" font-family="arial" font-size="14.00" fill="#377eb8">Q&#39;</text>
</g>
<!-- ID_11_ct0_st01&#45;&gt;ID_11_ct0_st01 -->
<g id="edge12" class="edge">
<title>ID_11_ct0_st01&#45;&gt;ID_11_ct0_st01</title>
<path fill="none" stroke="black" d="M365.44,-332.78C364.72,-342.51 370.08,-350.6 381.5,-350.6 388.64,-350.6 393.41,-347.44 395.81,-342.69"/>
<polygon fill="black" stroke="black" points="399.26,-343.23 397.56,-332.78 392.37,-342.01 399.26,-343.23"/>
<text text-anchor="start" x="369.5" y="-354.4" font-family="arial" font-size="14.00" fill="#377eb8">true</text>
</g>
<!-- ID_11_ct0_st01&#45;&gt;ID_11_ct0_st012 -->
<g id="edge13" class="edge">
<title>ID_11_ct0_st01&#45;&gt;ID_11_ct0_st012</title>
<path fill="none" stroke="black" d="M397.76,-282.3C411.13,-261.78 432.1,-233.14 456,-213.6 477.54,-195.99 485.14,-192.89 512,-185.6 919.49,-75.03 1048.88,-93.4 1462,-180.6 1488.01,-186.09 1499.63,-182.39 1518,-201.6 1573.25,-259.4 1589.61,-356.47 1594.46,-408.36"/>
<polygon fill="black" stroke="black" points="1590.98,-408.75 1595.31,-418.42 1597.96,-408.16 1590.98,-408.75"/>
<text text-anchor="start" x="985.5" y="-116.4" font-family="arial" font-size="14.00" fill="#377eb8">true</text>
</g>
<!-- ID_11_ct0_st01&#45;&gt;ID_11_ct0_st0123W -->
<g id="edge14" class="edge">
<title>ID_11_ct0_st01&#45;&gt;ID_11_ct0_st0123W</title>
<path fill="none" stroke="black" d="M417.46,-332.82C429.25,-340.4 442.78,-348.14 456,-353.6 541.11,-388.74 569.25,-375.07 658,-399.6 678.9,-405.38 701.27,-412.31 722,-419.05"/>
<polygon fill="black" stroke="black" points="721.12,-422.44 731.71,-422.23 723.3,-415.79 721.12,-422.44"/>
<text text-anchor="start" x="573" y="-418.4" font-family="arial" font-size="14.00" fill="#377eb8">true</text>
<text text-anchor="start" x="566" y="-403.4" font-family="arial" font-size="14.00">c0 :=0</text>
</g>
<!-- ID_11_ct0_st02 -->
<g id="node9" class="node">
<title>ID_11_ct0_st02</title>
<polygon fill="none" stroke="black" points="1061,-369.6 934,-369.6 934,-319.6 1061,-319.6 1061,-369.6"/>
<text text-anchor="start" x="949" y="-355.4" font-family="arial" font-weight="bold" font-size="14.00">ID_11_ct0_st02</text>
<text text-anchor="start" x="942" y="-341.4" font-family="arial" font-size="14.00" fill="#984ea3">(!P &amp;&amp; (!Q &amp;&amp; !R))</text>
<text text-anchor="start" x="985.5" y="-327.4" font-family="arial" font-size="14.00" fill="#ff7f00">true</text>
</g>
<!-- ID_11_ct0_st01&#45;&gt;ID_11_ct0_st02 -->
<g id="edge10" class="edge">
<title>ID_11_ct0_st01&#45;&gt;ID_11_ct0_st02</title>
<path fill="none" stroke="black" d="M438.19,-284.58C444.13,-282.67 450.15,-280.95 456,-279.6 655.2,-233.52 726.27,-208.42 916,-284.6 932.48,-291.22 948.59,-302.07 962.01,-312.73"/>
<polygon fill="black" stroke="black" points="960.06,-315.66 970,-319.31 964.51,-310.25 960.06,-315.66"/>
<text text-anchor="start" x="683" y="-240.4" font-family="arial" font-size="14.00" fill="#377eb8">true</text>
</g>
<!-- ID_11_ct0_st023W -->
<g id="node10" class="node">
<title>ID_11_ct0_st023W</title>
<polygon fill="none" stroke="black" points="652,-488.6 518,-488.6 518,-438.6 652,-438.6 652,-488.6"/>
<text text-anchor="start" x="526" y="-474.4" font-family="arial" font-weight="bold" font-size="14.00">ID_11_ct0_st023W</text>
<text text-anchor="start" x="531.5" y="-460.4" font-family="arial" font-size="14.00" fill="#984ea3">(!P &amp;&amp; (!Q &amp;&amp; R))</text>
<text text-anchor="start" x="562" y="-446.4" font-family="arial" font-size="14.00" fill="#ff7f00">c0 &lt;= 5</text>
</g>
<!-- ID_11_ct0_st01&#45;&gt;ID_11_ct0_st023W -->
<g id="edge11" class="edge">
<title>ID_11_ct0_st01&#45;&gt;ID_11_ct0_st023W</title>
<path fill="none" stroke="black" d="M389.31,-332.66C398.91,-363.01 419.49,-413.31 456,-439.6 471.02,-450.41 489.51,-456.76 507.73,-460.4"/>
<polygon fill="black" stroke="black" points="507.35,-463.89 517.8,-462.16 508.55,-456.99 507.35,-463.89"/>
<text text-anchor="start" x="463" y="-474.4" font-family="arial" font-size="14.00" fill="#377eb8">true</text>
<text text-anchor="start" x="456" y="-459.4" font-family="arial" font-size="14.00">c0 :=0</text>
</g>
<!-- _ID_11_ct0_st012 -->
<!-- _ID_11_ct0_st012&#45;&gt;ID_11_ct0_st012 -->
<g id="edge3" class="edge">
<title>_ID_11_ct0_st012&#45;&gt;ID_11_ct0_st012</title>
<path fill="none" stroke="black" d="M1459.66,-609.92C1479.84,-605.32 1501.33,-597.58 1518,-584.6 1552.76,-557.53 1574.43,-510.52 1585.98,-478.28"/>
<polygon fill="black" stroke="black" points="1589.3,-479.38 1589.25,-468.79 1582.68,-477.11 1589.3,-479.38"/>
</g>
<!-- ID_11_ct0_st012&#45;&gt;ID_11_ct0_st0 -->
<g id="edge21" class="edge">
<title>ID_11_ct0_st012&#45;&gt;ID_11_ct0_st0</title>
<path fill="none" stroke="black" d="M1591.74,-468.82C1576.92,-538.85 1524.77,-730.6 1398,-730.6 380.5,-730.6 380.5,-730.6 380.5,-730.6 293.07,-730.6 240.3,-620.43 218.57,-562.41"/>
<polygon fill="black" stroke="black" points="221.81,-561.1 215.11,-552.9 215.24,-563.49 221.81,-561.1"/>
<text text-anchor="start" x="896.5" y="-734.4" font-family="arial" font-size="14.00" fill="#377eb8">Q&#39;</text>
</g>
<!-- ID_11_ct0_st012&#45;&gt;ID_11_ct0_st01 -->
<g id="edge24" class="edge">
<title>ID_11_ct0_st012&#45;&gt;ID_11_ct0_st01</title>
<path fill="none" stroke="black" d="M1594.59,-418.36C1586.89,-336.64 1550.77,-84.6 1398,-84.6 584,-84.6 584,-84.6 584,-84.6 483.7,-84.6 420.42,-210.32 395.11,-272.97"/>
<polygon fill="black" stroke="black" points="391.79,-271.87 391.38,-282.45 398.3,-274.43 391.79,-271.87"/>
<text text-anchor="start" x="985.5" y="-88.4" font-family="arial" font-size="14.00" fill="#377eb8">true</text>
</g>
<!-- ID_11_ct0_st012&#45;&gt;ID_11_ct0_st012 -->
<g id="edge25" class="edge">
<title>ID_11_ct0_st012&#45;&gt;ID_11_ct0_st012</title>
<path fill="none" stroke="black" d="M1579.2,-468.78C1578.38,-478.51 1584.48,-486.6 1597.5,-486.6 1605.63,-486.6 1611.07,-483.44 1613.8,-478.69"/>
<polygon fill="black" stroke="black" points="1617.26,-479.27 1615.8,-468.78 1610.39,-477.89 1617.26,-479.27"/>
<text text-anchor="start" x="1585.5" y="-490.4" font-family="arial" font-size="14.00" fill="#377eb8">true</text>
</g>
<!-- ID_11_ct0_st012&#45;&gt;ID_11_ct0_st02 -->
<g id="edge22" class="edge">
<title>ID_11_ct0_st012&#45;&gt;ID_11_ct0_st02</title>
<path fill="none" stroke="black" d="M1535.72,-449.16C1446.09,-455.46 1274.06,-460.24 1135,-420.6 1101.49,-411.05 1067.23,-391.94 1041.42,-375.28"/>
<polygon fill="black" stroke="black" points="1043.28,-372.31 1033,-369.74 1039.43,-378.16 1043.28,-372.31"/>
<text text-anchor="start" x="1290" y="-453.4" font-family="arial" font-size="14.00" fill="#377eb8">true</text>
</g>
<!-- ID_11_ct0_st023X -->
<g id="node11" class="node">
<title>ID_11_ct0_st023X</title>
<polygon fill="none" stroke="black" points="1462,-239.6 1332,-239.6 1332,-189.6 1462,-189.6 1462,-239.6"/>
<text text-anchor="start" x="1340" y="-225.4" font-family="arial" font-weight="bold" font-size="14.00">ID_11_ct0_st023X</text>
<text text-anchor="start" x="1343.5" y="-211.4" font-family="arial" font-size="14.00" fill="#984ea3">(!P &amp;&amp; (!Q &amp;&amp; R))</text>
<text text-anchor="start" x="1378" y="-197.4" font-family="arial" font-size="14.00" fill="#ff7f00">c0 &lt; 5</text>
</g>
<!-- ID_11_ct0_st012&#45;&gt;ID_11_ct0_st023X -->
<g id="edge23" class="edge">
<title>ID_11_ct0_st012&#45;&gt;ID_11_ct0_st023X</title>
<path fill="none" stroke="black" d="M1591.73,-418.54C1583.27,-380.48 1562.19,-307.98 1518,-264.6 1505.02,-251.86 1488.33,-242.19 1471.54,-234.91"/>
<polygon fill="black" stroke="black" points="1472.8,-231.65 1462.22,-231.11 1470.16,-238.13 1472.8,-231.65"/>
<text text-anchor="start" x="1487" y="-283.4" font-family="arial" font-size="14.00" fill="#377eb8">true</text>
<text text-anchor="start" x="1480" y="-268.4" font-family="arial" font-size="14.00">c0 :=0</text>
</g>
<!-- ID_11_ct0_st0123X -->
<g id="node12" class="node">
<title>ID_11_ct0_st0123X</title>
<polygon fill="none" stroke="black" points="1272,-264.6 1135,-264.6 1135,-214.6 1272,-214.6 1272,-264.6"/>
<text text-anchor="start" x="1143" y="-250.4" font-family="arial" font-weight="bold" font-size="14.00">ID_11_ct0_st0123X</text>
<text text-anchor="start" x="1152" y="-236.4" font-family="arial" font-size="14.00" fill="#984ea3">(P &amp;&amp; (!Q &amp;&amp; R))</text>
<text text-anchor="start" x="1184.5" y="-222.4" font-family="arial" font-size="14.00" fill="#ff7f00">c0 &lt; 5</text>
</g>
<!-- ID_11_ct0_st012&#45;&gt;ID_11_ct0_st0123X -->
<g id="edge26" class="edge">
<title>ID_11_ct0_st012&#45;&gt;ID_11_ct0_st0123X</title>
<path fill="none" stroke="black" d="M1562.28,-418.39C1548.58,-408.39 1532.61,-396.86 1518,-386.6 1493.38,-369.32 1488.42,-362.98 1462,-348.6 1403.49,-316.76 1333.73,-287.74 1281.58,-267.66"/>
<polygon fill="black" stroke="black" points="1282.65,-264.32 1272.06,-264.02 1280.15,-270.86 1282.65,-264.32"/>
<text text-anchor="start" x="1385" y="-367.4" font-family="arial" font-size="14.00" fill="#377eb8">true</text>
<text text-anchor="start" x="1378" y="-352.4" font-family="arial" font-size="14.00">c0 :=0</text>
</g>
<!-- _ID_11_ct0_st0123W -->
<!-- _ID_11_ct0_st0123W&#45;&gt;ID_11_ct0_st0123W -->
<g id="edge4" class="edge">
<title>_ID_11_ct0_st0123W&#45;&gt;ID_11_ct0_st0123W</title>
<path fill="none" stroke="black" d="M658.22,-586.93C678.07,-581.63 698.41,-573.16 714,-559.6 729.02,-546.54 720.89,-535.11 732,-518.6 741.59,-504.35 754.17,-490.4 766.02,-478.63"/>
<polygon fill="black" stroke="black" points="768.53,-481.08 773.27,-471.6 763.65,-476.05 768.53,-481.08"/>
</g>
<!-- ID_11_ct0_st0123W&#45;&gt;ID_11_ct0_st0 -->
<g id="edge39" class="edge">
<title>ID_11_ct0_st0123W&#45;&gt;ID_11_ct0_st0</title>
<path fill="none" stroke="black" d="M771.12,-471.91C757.38,-484.63 742.06,-501.06 732,-518.6 717.09,-544.6 731.33,-559.14 714,-583.6 696.47,-608.35 686.94,-613.52 658,-622.6 518.41,-666.42 348.16,-599.19 262.25,-557.18"/>
<polygon fill="black" stroke="black" points="263.71,-554 253.2,-552.69 260.61,-560.27 263.71,-554"/>
<text text-anchor="start" x="467.5" y="-635.4" font-family="arial" font-size="14.00" fill="#377eb8">Q&#39;</text>
</g>
<!-- ID_11_ct0_st0123W&#45;&gt;ID_11_ct0_st01 -->
<g id="edge42" class="edge">
<title>ID_11_ct0_st0123W&#45;&gt;ID_11_ct0_st01</title>
<path fill="none" stroke="black" d="M740.33,-421.53C737.47,-419.95 734.68,-418.3 732,-416.6 722.96,-410.86 722.06,-407.64 714,-400.6 689.3,-379.04 687.72,-366.42 658,-352.6 590.95,-321.42 505.95,-311.42 448.22,-308.43"/>
<polygon fill="black" stroke="black" points="448.28,-304.93 438.13,-307.97 447.96,-311.92 448.28,-304.93"/>
<text text-anchor="start" x="573" y="-356.4" font-family="arial" font-size="14.00" fill="#377eb8">true</text>
</g>
<!-- ID_11_ct0_st0123W&#45;&gt;ID_11_ct0_st012 -->
<g id="edge43" class="edge">
<title>ID_11_ct0_st0123W&#45;&gt;ID_11_ct0_st012</title>
<path fill="none" stroke="black" d="M839.74,-471.78C877.04,-495.56 938.12,-527.6 996.5,-527.6 996.5,-527.6 996.5,-527.6 1398,-527.6 1454.47,-527.6 1513.34,-498.41 1552.15,-474.45"/>
<polygon fill="black" stroke="black" points="1554.51,-477.1 1561.09,-468.8 1550.77,-471.18 1554.51,-477.1"/>
<text text-anchor="start" x="1191.5" y="-531.4" font-family="arial" font-size="14.00" fill="#377eb8">true</text>
</g>
<!-- ID_11_ct0_st0123W&#45;&gt;ID_11_ct0_st0123W -->
<g id="edge44" class="edge">
<title>ID_11_ct0_st0123W&#45;&gt;ID_11_ct0_st0123W</title>
<path fill="none" stroke="black" d="M784.32,-471.78C783.49,-481.51 789.72,-489.6 803,-489.6 811.3,-489.6 816.85,-486.44 819.63,-481.69"/>
<polygon fill="black" stroke="black" points="823.09,-482.28 821.68,-471.78 816.23,-480.86 823.09,-482.28"/>
<text text-anchor="start" x="784" y="-493.4" font-family="arial" font-size="14.00" fill="#377eb8">c0 &lt; 5</text>
</g>
<!-- ID_11_ct0_st0123W&#45;&gt;ID_11_ct0_st02 -->
<g id="edge40" class="edge">
<title>ID_11_ct0_st0123W&#45;&gt;ID_11_ct0_st02</title>
<path fill="none" stroke="black" d="M851.58,-421.39C878.41,-407.17 912.08,-389.33 940.21,-374.43"/>
<polygon fill="black" stroke="black" points="941.93,-377.47 949.13,-369.7 938.65,-371.29 941.93,-377.47"/>
<text text-anchor="start" x="892" y="-402.4" font-family="arial" font-size="14.00" fill="#377eb8">true</text>
</g>
<!-- ID_11_ct0_st0123W&#45;&gt;ID_11_ct0_st023W -->
<g id="edge41" class="edge">
<title>ID_11_ct0_st0123W&#45;&gt;ID_11_ct0_st023W</title>
<path fill="none" stroke="black" d="M731.73,-452.13C709.59,-453.87 685.03,-455.81 662.48,-457.58"/>
<polygon fill="black" stroke="black" points="661.97,-454.11 652.28,-458.38 662.52,-461.09 661.97,-454.11"/>
<text text-anchor="start" x="676" y="-459.4" font-family="arial" font-size="14.00" fill="#377eb8">c0 &lt; 5</text>
</g>
<!-- ID_11_ct0_st02&#45;&gt;ID_11_ct0_st0 -->
<g id="edge15" class="edge">
<title>ID_11_ct0_st02&#45;&gt;ID_11_ct0_st0</title>
<path fill="none" stroke="black" d="M982.44,-369.85C961.95,-405.07 921.15,-469.58 874,-513.6 825.12,-559.23 710.24,-629.3 658,-643.6 514.82,-682.8 459.23,-681.01 325,-617.6 293.74,-602.83 262.83,-578.82 240.5,-559.31"/>
<polygon fill="black" stroke="black" points="242.77,-556.65 232.97,-552.62 238.12,-561.88 242.77,-556.65"/>
<text text-anchor="start" x="577.5" y="-673.4" font-family="arial" font-size="14.00" fill="#377eb8">Q&#39;</text>
</g>
<!-- ID_11_ct0_st02&#45;&gt;ID_11_ct0_st01 -->
<g id="edge18" class="edge">
<title>ID_11_ct0_st02&#45;&gt;ID_11_ct0_st01</title>
<path fill="none" stroke="black" d="M933.94,-336.41C866.11,-327.94 754.58,-315.17 658,-309.6 585.23,-305.4 566.89,-308.04 494,-307.6 479.22,-307.51 463.33,-307.47 448.31,-307.47"/>
<polygon fill="black" stroke="black" points="448.08,-303.97 438.08,-307.47 448.08,-310.97 448.08,-303.97"/>
<text text-anchor="start" x="683" y="-316.4" font-family="arial" font-size="14.00" fill="#377eb8">true</text>
</g>
<!-- ID_11_ct0_st02&#45;&gt;ID_11_ct0_st012 -->
<g id="edge19" class="edge">
<title>ID_11_ct0_st02&#45;&gt;ID_11_ct0_st012</title>
<path fill="none" stroke="black" d="M1008.21,-369.82C1020.22,-397.09 1043.55,-439.11 1079,-457.6 1252,-547.81 1323.73,-475.75 1518,-457.6 1520.53,-457.36 1523.11,-457.09 1525.7,-456.78"/>
<polygon fill="black" stroke="black" points="1526.32,-460.23 1535.78,-455.46 1525.41,-453.29 1526.32,-460.23"/>
<text text-anchor="start" x="1290" y="-501.4" font-family="arial" font-size="14.00" fill="#377eb8">true</text>
</g>
<!-- ID_11_ct0_st02&#45;&gt;ID_11_ct0_st02 -->
<g id="edge16" class="edge">
<title>ID_11_ct0_st02&#45;&gt;ID_11_ct0_st02</title>
<path fill="none" stroke="black" d="M980.32,-369.78C979.55,-379.51 985.28,-387.6 997.5,-387.6 1005.14,-387.6 1010.24,-384.44 1012.8,-379.69"/>
<polygon fill="black" stroke="black" points="1016.26,-380.25 1014.68,-369.78 1009.38,-378.95 1016.26,-380.25"/>
<text text-anchor="start" x="985.5" y="-391.4" font-family="arial" font-size="14.00" fill="#377eb8">true</text>
</g>
<!-- ID_11_ct0_st02&#45;&gt;ID_11_ct0_st023X -->
<g id="edge17" class="edge">
<title>ID_11_ct0_st02&#45;&gt;ID_11_ct0_st023X</title>
<path fill="none" stroke="black" d="M1061.04,-366.83C1131.14,-387.36 1244.1,-406.61 1314,-347.6 1335.6,-329.36 1318.28,-311.31 1332,-286.6 1339.86,-272.45 1350.92,-258.7 1361.65,-247.08"/>
<polygon fill="black" stroke="black" points="1364.25,-249.42 1368.61,-239.77 1359.18,-244.6 1364.25,-249.42"/>
<text text-anchor="start" x="1191.5" y="-405.4" font-family="arial" font-size="14.00" fill="#377eb8">true</text>
<text text-anchor="start" x="1184.5" y="-390.4" font-family="arial" font-size="14.00">c0 :=0</text>
</g>
<!-- ID_11_ct0_st02&#45;&gt;ID_11_ct0_st0123X -->
<g id="edge20" class="edge">
<title>ID_11_ct0_st02&#45;&gt;ID_11_ct0_st0123X</title>
<path fill="none" stroke="black" d="M1012.74,-319.27C1026.59,-297.29 1049.79,-266.7 1079,-251.6 1092.89,-244.42 1108.84,-240.35 1124.55,-238.19"/>
<polygon fill="black" stroke="black" points="1125.28,-241.64 1134.82,-237.05 1124.5,-234.68 1125.28,-241.64"/>
<text text-anchor="start" x="1086" y="-270.4" font-family="arial" font-size="14.00" fill="#377eb8">true</text>
<text text-anchor="start" x="1079" y="-255.4" font-family="arial" font-size="14.00">c0 :=0</text>
</g>
<!-- ID_11_ct0_st023W&#45;&gt;ID_11_ct0_st0 -->
<g id="edge27" class="edge">
<title>ID_11_ct0_st023W&#45;&gt;ID_11_ct0_st0</title>
<path fill="none" stroke="black" d="M517.93,-483.9C509.91,-486.01 501.8,-487.97 494,-489.6 417.43,-505.64 327.87,-516.22 269.42,-522.05"/>
<polygon fill="black" stroke="black" points="268.85,-518.59 259.24,-523.05 269.54,-525.56 268.85,-518.59"/>
<text text-anchor="start" x="374" y="-519.4" font-family="arial" font-size="14.00" fill="#377eb8">Q&#39;</text>
</g>
<!-- ID_11_ct0_st023W&#45;&gt;ID_11_ct0_st01 -->
<g id="edge30" class="edge">
<title>ID_11_ct0_st023W&#45;&gt;ID_11_ct0_st01</title>
<path fill="none" stroke="black" d="M531.47,-438.48C496.9,-421.9 457.71,-402.98 456,-401.6 435.17,-384.79 416.64,-361 403.4,-341.56"/>
<polygon fill="black" stroke="black" points="406.15,-339.37 397.7,-332.98 400.32,-343.24 406.15,-339.37"/>
<text text-anchor="start" x="463" y="-422.4" font-family="arial" font-size="14.00" fill="#377eb8">true</text>
</g>
<!-- ID_11_ct0_st023W&#45;&gt;ID_11_ct0_st012 -->
<g id="edge31" class="edge">
<title>ID_11_ct0_st023W&#45;&gt;ID_11_ct0_st012</title>
<path fill="none" stroke="black" d="M614.86,-488.69C654.3,-520.31 728.56,-570.6 802,-570.6 802,-570.6 802,-570.6 1398,-570.6 1467.9,-570.6 1532.91,-514.04 1568.42,-476.41"/>
<polygon fill="black" stroke="black" points="1571.33,-478.41 1575.55,-468.69 1566.19,-473.66 1571.33,-478.41"/>
<text text-anchor="start" x="1086" y="-574.4" font-family="arial" font-size="14.00" fill="#377eb8">true</text>
</g>
<!-- ID_11_ct0_st023W&#45;&gt;ID_11_ct0_st0123W -->
<g id="edge32" class="edge">
<title>ID_11_ct0_st023W&#45;&gt;ID_11_ct0_st0123W</title>
<path fill="none" stroke="black" d="M652.39,-442.17C660.28,-440.29 668.27,-438.69 676,-437.6 690.64,-435.53 706.32,-435.17 721.46,-435.77"/>
<polygon fill="black" stroke="black" points="721.66,-439.29 731.84,-436.33 722.04,-432.3 721.66,-439.29"/>
<text text-anchor="start" x="676" y="-441.4" font-family="arial" font-size="14.00" fill="#377eb8">c0 &lt; 5</text>
</g>
<!-- ID_11_ct0_st023W&#45;&gt;ID_11_ct0_st02 -->
<g id="edge28" class="edge">
<title>ID_11_ct0_st023W&#45;&gt;ID_11_ct0_st02</title>
<path fill="none" stroke="black" d="M634.24,-438.45C662.17,-424.74 698.37,-408.42 732,-397.6 795.35,-377.23 869.86,-363.14 923.63,-354.64"/>
<polygon fill="black" stroke="black" points="924.41,-358.06 933.76,-353.07 923.34,-351.14 924.41,-358.06"/>
<text text-anchor="start" x="791" y="-401.4" font-family="arial" font-size="14.00" fill="#377eb8">true</text>
</g>
<!-- ID_11_ct0_st023W&#45;&gt;ID_11_ct0_st023W -->
<g id="edge29" class="edge">
<title>ID_11_ct0_st023W&#45;&gt;ID_11_ct0_st023W</title>
<path fill="none" stroke="black" d="M564.46,-488.78C563.54,-498.51 570.39,-506.6 585,-506.6 594.13,-506.6 600.23,-503.44 603.3,-498.69"/>
<polygon fill="black" stroke="black" points="606.75,-499.3 605.54,-488.78 599.92,-497.76 606.75,-499.3"/>
<text text-anchor="start" x="566" y="-510.4" font-family="arial" font-size="14.00" fill="#377eb8">c0 &lt; 5</text>
</g>
<!-- ID_11_ct0_st023X&#45;&gt;ID_11_ct0_st0 -->
<g id="edge33" class="edge">
<title>ID_11_ct0_st023X&#45;&gt;ID_11_ct0_st0</title>
<path fill="none" stroke="black" d="M1362.98,-189.38C1305.25,-146.74 1180.69,-61.09 1061,-20.6 994.79,1.8 974.9,-0.6 905,-0.6 380.5,-0.6 380.5,-0.6 380.5,-0.6 223.43,-0.6 300.25,-181.54 265,-334.6 252.06,-390.78 231.75,-454.6 218.92,-492.95"/>
<polygon fill="black" stroke="black" points="215.54,-492 215.67,-502.59 222.18,-494.23 215.54,-492"/>
<text text-anchor="start" x="795.5" y="-4.4" font-family="arial" font-size="14.00" fill="#377eb8">Q&#39;</text>
</g>
<!-- ID_11_ct0_st023X&#45;&gt;ID_11_ct0_st01 -->
<g id="edge36" class="edge">
<title>ID_11_ct0_st023X&#45;&gt;ID_11_ct0_st01</title>
<path fill="none" stroke="black" d="M1331.98,-205.04C1184.92,-185.12 812.47,-146.35 512,-213.6 486.06,-219.41 478.37,-220.25 456,-234.6 438.88,-245.58 422.55,-261.1 409.65,-275.01"/>
<polygon fill="black" stroke="black" points="406.96,-272.76 402.85,-282.53 412.15,-277.46 406.96,-272.76"/>
<text text-anchor="start" x="892" y="-180.4" font-family="arial" font-size="14.00" fill="#377eb8">true</text>
</g>
<!-- ID_11_ct0_st023X&#45;&gt;ID_11_ct0_st012 -->
<g id="edge37" class="edge">
<title>ID_11_ct0_st023X&#45;&gt;ID_11_ct0_st012</title>
<path fill="none" stroke="black" d="M1462.11,-204.05C1481.67,-204.12 1502.17,-207.87 1518,-219.6 1577.81,-263.92 1592.3,-357.23 1595.65,-408.32"/>
<polygon fill="black" stroke="black" points="1592.16,-408.76 1596.2,-418.55 1599.15,-408.38 1592.16,-408.76"/>
<text text-anchor="start" x="1487" y="-223.4" font-family="arial" font-size="14.00" fill="#377eb8">true</text>
</g>
<!-- ID_11_ct0_st023X&#45;&gt;ID_11_ct0_st02 -->
<g id="edge34" class="edge">
<title>ID_11_ct0_st023X&#45;&gt;ID_11_ct0_st02</title>
<path fill="none" stroke="black" d="M1370.37,-239.76C1346.84,-261.25 1309.96,-291.08 1272,-306.6 1207.46,-332.99 1127.97,-341.66 1071.36,-344.23"/>
<polygon fill="black" stroke="black" points="1070.91,-340.74 1061.06,-344.64 1071.19,-347.74 1070.91,-340.74"/>
<text text-anchor="start" x="1191.5" y="-342.4" font-family="arial" font-size="14.00" fill="#377eb8">true</text>
</g>
<!-- ID_11_ct0_st023X&#45;&gt;ID_11_ct0_st023X -->
<g id="edge35" class="edge">
<title>ID_11_ct0_st023X&#45;&gt;ID_11_ct0_st023X</title>
<path fill="none" stroke="black" d="M1379.44,-239.78C1378.66,-249.51 1384.52,-257.6 1397,-257.6 1404.8,-257.6 1410.01,-254.44 1412.64,-249.69"/>
<polygon fill="black" stroke="black" points="1416.09,-250.26 1414.56,-239.78 1409.22,-248.93 1416.09,-250.26"/>
<text text-anchor="start" x="1385" y="-261.4" font-family="arial" font-size="14.00" fill="#377eb8">true</text>
</g>
<!-- ID_11_ct0_st023X&#45;&gt;ID_11_ct0_st0123X -->
<g id="edge38" class="edge">
<title>ID_11_ct0_st023X&#45;&gt;ID_11_ct0_st0123X</title>
<path fill="none" stroke="black" d="M1331.89,-211.67C1318.02,-211.86 1303.48,-212.67 1290,-214.6 1287.45,-214.96 1284.88,-215.39 1282.29,-215.86"/>
<polygon fill="black" stroke="black" points="1281.35,-212.48 1272.25,-217.9 1282.75,-219.34 1281.35,-212.48"/>
<text text-anchor="start" x="1290" y="-218.4" font-family="arial" font-size="14.00" fill="#377eb8">true</text>
</g>
<!-- ID_11_ct0_st0123X&#45;&gt;ID_11_ct0_st0 -->
<g id="edge45" class="edge">
<title>ID_11_ct0_st0123X&#45;&gt;ID_11_ct0_st0</title>
<path fill="none" stroke="black" d="M1190.99,-214.3C1171.06,-173.89 1125.93,-95.92 1061,-62.6 916.48,11.58 858.44,-43.6 696,-43.6 380.5,-43.6 380.5,-43.6 380.5,-43.6 356.61,-43.6 251.36,-382.03 217.52,-492.9"/>
<polygon fill="black" stroke="black" points="214.13,-492.01 214.56,-502.6 220.82,-494.05 214.13,-492.01"/>
<text text-anchor="start" x="687.5" y="-47.4" font-family="arial" font-size="14.00" fill="#377eb8">Q&#39;</text>
</g>
<!-- ID_11_ct0_st0123X&#45;&gt;ID_11_ct0_st01 -->
<g id="edge48" class="edge">
<title>ID_11_ct0_st0123X&#45;&gt;ID_11_ct0_st01</title>
<path fill="none" stroke="black" d="M1134.7,-228.6C1095.1,-223.1 1044.1,-217.6 998.5,-217.6 584,-217.6 584,-217.6 584,-217.6 524.52,-217.6 463.07,-250.7 423.92,-276.76"/>
<polygon fill="black" stroke="black" points="421.73,-274.01 415.43,-282.53 425.67,-279.8 421.73,-274.01"/>
<text text-anchor="start" x="791" y="-221.4" font-family="arial" font-size="14.00" fill="#377eb8">true</text>
</g>
<!-- ID_11_ct0_st0123X&#45;&gt;ID_11_ct0_st012 -->
<g id="edge49" class="edge">
<title>ID_11_ct0_st0123X&#45;&gt;ID_11_ct0_st012</title>
<path fill="none" stroke="black" d="M1233.34,-264.74C1245.66,-275.93 1259.95,-289.51 1272,-302.6 1301.15,-334.26 1295.81,-355.31 1332,-378.6 1348.38,-389.14 1453.22,-413.03 1525.88,-428.73"/>
<polygon fill="black" stroke="black" points="1525.4,-432.2 1535.91,-430.89 1526.87,-425.36 1525.4,-432.2"/>
<text text-anchor="start" x="1385" y="-417.4" font-family="arial" font-size="14.00" fill="#377eb8">true</text>
</g>
<!-- ID_11_ct0_st0123X&#45;&gt;ID_11_ct0_st02 -->
<g id="edge46" class="edge">
<title>ID_11_ct0_st0123X&#45;&gt;ID_11_ct0_st02</title>
<path fill="none" stroke="black" d="M1153.92,-264.61C1124.53,-279.73 1086.9,-299.1 1056.03,-314.99"/>
<polygon fill="black" stroke="black" points="1054.39,-311.89 1047.1,-319.58 1057.6,-318.12 1054.39,-311.89"/>
<text text-anchor="start" x="1086" y="-304.4" font-family="arial" font-size="14.00" fill="#377eb8">true</text>
</g>
<!-- ID_11_ct0_st0123X&#45;&gt;ID_11_ct0_st023X -->
<g id="edge47" class="edge">
<title>ID_11_ct0_st0123X&#45;&gt;ID_11_ct0_st023X</title>
<path fill="none" stroke="black" d="M1272.07,-234.39C1285.97,-233.05 1300.48,-231.45 1314,-229.6 1316.51,-229.26 1319.06,-228.89 1321.63,-228.51"/>
<polygon fill="black" stroke="black" points="1322.29,-231.94 1331.63,-226.94 1321.21,-225.03 1322.29,-231.94"/>
<text text-anchor="start" x="1290" y="-235.4" font-family="arial" font-size="14.00" fill="#377eb8">true</text>
</g>
<!-- ID_11_ct0_st0123X&#45;&gt;ID_11_ct0_st0123X -->
<g id="edge50" class="edge">
<title>ID_11_ct0_st0123X&#45;&gt;ID_11_ct0_st0123X</title>
<path fill="none" stroke="black" d="M1185.2,-264.78C1184.38,-274.51 1190.48,-282.6 1203.5,-282.6 1211.63,-282.6 1217.07,-279.44 1219.8,-274.69"/>
<polygon fill="black" stroke="black" points="1223.26,-275.27 1221.8,-264.78 1216.39,-273.89 1223.26,-275.27"/>
<text text-anchor="start" x="1191.5" y="-286.4" font-family="arial" font-size="14.00" fill="#377eb8">true</text>
</g>
</g>
</svg>
