<?xml version="1.0" encoding="UTF-8" standalone="no"?>
<!DOCTYPE svg PUBLIC "-//W3C//DTD SVG 1.1//EN"
 "http://www.w3.org/Graphics/SVG/1.1/DTD/svg11.dtd">
<!-- Generated by graphviz version 2.43.0 (0)
 -->
<!-- Title: G Pages: 1 -->
<svg width="1102pt" height="367pt"
 viewBox="0.00 0.00 1102.00 367.00" xmlns="http://www.w3.org/2000/svg" xmlns:xlink="http://www.w3.org/1999/xlink">
<g id="graph0" class="graph" transform="scale(1 1) rotate(0) translate(4 363)">
<title>G</title>
<polygon fill="white" stroke="transparent" points="-4,4 -4,-363 1098,-363 1098,4 -4,4"/>
<!-- _ID_57_ct0_stinit -->
<!-- ID_57_ct0_stinit -->
<g id="node2" class="node">
<title>ID_57_ct0_stinit</title>
<polygon fill="none" stroke="black" points="927,-326 808,-326 808,-276 927,-276 927,-326"/>
<text text-anchor="start" x="816" y="-311.8" font-family="arial" font-weight="bold" font-size="14.00">ID_57_ct0_stinit</text>
<text text-anchor="start" x="862.5" y="-297.8" font-family="arial" font-size="14.00" fill="#984ea3">P</text>
<text text-anchor="start" x="855.5" y="-283.8" font-family="arial" font-size="14.00" fill="#ff7f00">true</text>
</g>
<!-- _ID_57_ct0_stinit&#45;&gt;ID_57_ct0_stinit -->
<g id="edge1" class="edge">
<title>_ID_57_ct0_stinit&#45;&gt;ID_57_ct0_stinit</title>
<path fill="none" stroke="black" d="M719.1,-301C743.55,-301 772.03,-301 797.39,-301"/>
<polygon fill="black" stroke="black" points="797.68,-304.5 807.68,-301 797.68,-297.5 797.68,-304.5"/>
</g>
<!-- ID_57_ct0_stinit&#45;&gt;ID_57_ct0_stinit -->
<g id="edge5" class="edge">
<title>ID_57_ct0_stinit&#45;&gt;ID_57_ct0_stinit</title>
<path fill="none" stroke="black" d="M849.57,-326.18C848.77,-335.91 854.75,-344 867.5,-344 875.47,-344 880.79,-340.84 883.47,-336.09"/>
<polygon fill="black" stroke="black" points="886.92,-336.66 885.43,-326.18 880.06,-335.31 886.92,-336.66"/>
<text text-anchor="start" x="855.5" y="-347.8" font-family="arial" font-size="14.00" fill="#377eb8">true</text>
</g>
<!-- ID_57_ct0_st -->
<g id="node7" class="node">
<title>ID_57_ct0_st</title>
<polygon fill="none" stroke="black" points="1094,-177 995,-177 995,-127 1094,-127 1094,-177"/>
<text text-anchor="start" x="1003" y="-162.8" font-family="arial" font-weight="bold" font-size="14.00">ID_57_ct0_st</text>
<text text-anchor="start" x="1032.5" y="-148.8" font-family="arial" font-size="14.00" fill="#984ea3">true</text>
<text text-anchor="start" x="1032.5" y="-134.8" font-family="arial" font-size="14.00" fill="#ff7f00">true</text>
</g>
<!-- ID_57_ct0_stinit&#45;&gt;ID_57_ct0_st -->
<g id="edge4" class="edge">
<title>ID_57_ct0_stinit&#45;&gt;ID_57_ct0_st</title>
<path fill="none" stroke="black" d="M927.21,-287.95C944.53,-282.07 962.67,-273.73 977,-262 1001.39,-242.03 1019.11,-210.61 1030.1,-186.45"/>
<polygon fill="black" stroke="black" points="1033.32,-187.83 1034.11,-177.26 1026.9,-185.02 1033.32,-187.83"/>
<text text-anchor="start" x="953" y="-280.8" font-family="arial" font-size="14.00" fill="#377eb8">true</text>
</g>
<!-- _ID_57_ct0_st0 -->
<!-- ID_57_ct0_st0 -->
<g id="node4" class="node">
<title>ID_57_ct0_st0</title>
<polygon fill="none" stroke="black" points="261,-114 154,-114 154,-64 261,-64 261,-114"/>
<text text-anchor="start" x="162" y="-99.8" font-family="arial" font-weight="bold" font-size="14.00">ID_57_ct0_st0</text>
<text text-anchor="start" x="178.5" y="-85.8" font-family="arial" font-size="14.00" fill="#984ea3">(!P &amp;&amp; R)</text>
<text text-anchor="start" x="195.5" y="-71.8" font-family="arial" font-size="14.00" fill="#ff7f00">true</text>
</g>
<!-- _ID_57_ct0_st0&#45;&gt;ID_57_ct0_st0 -->
<g id="edge2" class="edge">
<title>_ID_57_ct0_st0&#45;&gt;ID_57_ct0_st0</title>
<path fill="none" stroke="black" d="M111.08,-89C121.62,-89 132.74,-89 143.52,-89"/>
<polygon fill="black" stroke="black" points="143.72,-92.5 153.72,-89 143.72,-85.5 143.72,-92.5"/>
</g>
<!-- ID_57_ct0_st0&#45;&gt;ID_57_ct0_st0 -->
<g id="edge8" class="edge">
<title>ID_57_ct0_st0&#45;&gt;ID_57_ct0_st0</title>
<path fill="none" stroke="black" d="M192.93,-114.18C192.28,-123.91 197.14,-132 207.5,-132 213.97,-132 218.3,-128.84 220.47,-124.09"/>
<polygon fill="black" stroke="black" points="223.94,-124.6 222.07,-114.18 217.03,-123.49 223.94,-124.6"/>
<text text-anchor="start" x="195.5" y="-135.8" font-family="arial" font-size="14.00" fill="#377eb8">true</text>
</g>
<!-- ID_57_ct0_st01 -->
<g id="node6" class="node">
<title>ID_57_ct0_st01</title>
<polygon fill="none" stroke="black" points="506,-200 392,-200 392,-150 506,-150 506,-200"/>
<text text-anchor="start" x="400" y="-185.8" font-family="arial" font-weight="bold" font-size="14.00">ID_57_ct0_st01</text>
<text text-anchor="start" x="418.5" y="-171.8" font-family="arial" font-size="14.00" fill="#984ea3">(!P &amp;&amp; !R)</text>
<text text-anchor="start" x="437" y="-157.8" font-family="arial" font-size="14.00" fill="#ff7f00">true</text>
</g>
<!-- ID_57_ct0_st0&#45;&gt;ID_57_ct0_st01 -->
<g id="edge9" class="edge">
<title>ID_57_ct0_st0&#45;&gt;ID_57_ct0_st01</title>
<path fill="none" stroke="black" d="M242.13,-114.12C255,-122.75 270.16,-131.79 285,-138 294.21,-141.86 340.64,-152.26 381.61,-161.06"/>
<polygon fill="black" stroke="black" points="381.09,-164.53 391.6,-163.2 382.56,-157.68 381.09,-164.53"/>
<text text-anchor="start" x="317.5" y="-162.8" font-family="arial" font-size="14.00" fill="#377eb8">true</text>
</g>
<!-- ID_57_ct0_st0&#45;&gt;ID_57_ct0_st -->
<g id="edge7" class="edge">
<title>ID_57_ct0_st0&#45;&gt;ID_57_ct0_st</title>
<path fill="none" stroke="black" d="M248.77,-63.97C295.05,-37.65 374.14,0 448,0 448,0 448,0 868.5,0 940.03,0 996.6,-73.28 1024.5,-118.08"/>
<polygon fill="black" stroke="black" points="1021.67,-120.17 1029.85,-126.9 1027.65,-116.54 1021.67,-120.17"/>
<text text-anchor="start" x="652" y="-3.8" font-family="arial" font-size="14.00" fill="#377eb8">P&#39;</text>
</g>
<!-- _ID_57_ct0_st01 -->
<!-- _ID_57_ct0_st01&#45;&gt;ID_57_ct0_st01 -->
<g id="edge3" class="edge">
<title>_ID_57_ct0_st01&#45;&gt;ID_57_ct0_st01</title>
<path fill="none" stroke="black" d="M267.09,-186.33C301.62,-184.17 345.44,-181.42 381.3,-179.18"/>
<polygon fill="black" stroke="black" points="381.9,-182.65 391.67,-178.53 381.47,-175.66 381.9,-182.65"/>
</g>
<!-- ID_57_ct0_st01&#45;&gt;ID_57_ct0_st0 -->
<g id="edge11" class="edge">
<title>ID_57_ct0_st01&#45;&gt;ID_57_ct0_st0</title>
<path fill="none" stroke="black" d="M421.17,-149.81C407.91,-138.71 391.11,-126.51 374,-119 364.44,-114.8 313.9,-105.93 271.15,-98.92"/>
<polygon fill="black" stroke="black" points="271.48,-95.43 261.05,-97.27 270.36,-102.33 271.48,-95.43"/>
<text text-anchor="start" x="285" y="-122.8" font-family="arial" font-size="14.00" fill="#377eb8">(P&#39; || (S&#39; || !R&#39;))</text>
</g>
<!-- ID_57_ct0_st01&#45;&gt;ID_57_ct0_st01 -->
<g id="edge13" class="edge">
<title>ID_57_ct0_st01&#45;&gt;ID_57_ct0_st01</title>
<path fill="none" stroke="black" d="M430.7,-200.18C429.88,-209.91 435.98,-218 449,-218 457.13,-218 462.57,-214.84 465.3,-210.09"/>
<polygon fill="black" stroke="black" points="468.76,-210.67 467.3,-200.18 461.89,-209.29 468.76,-210.67"/>
<text text-anchor="start" x="437" y="-221.8" font-family="arial" font-size="14.00" fill="#377eb8">true</text>
</g>
<!-- ID_57_ct0_st01&#45;&gt;ID_57_ct0_st -->
<g id="edge10" class="edge">
<title>ID_57_ct0_st01&#45;&gt;ID_57_ct0_st</title>
<path fill="none" stroke="black" d="M506.13,-193.02C597.75,-219.6 784.33,-261.77 935,-219 960.05,-211.89 984.98,-197.17 1004.61,-183.34"/>
<polygon fill="black" stroke="black" points="1006.92,-185.99 1012.97,-177.28 1002.81,-180.32 1006.92,-185.99"/>
<text text-anchor="start" x="756.5" y="-240.8" font-family="arial" font-size="14.00" fill="#377eb8">P&#39;</text>
</g>
<!-- ID_57_ct0_st023W -->
<g id="node8" class="node">
<title>ID_57_ct0_st023W</title>
<polygon fill="none" stroke="black" points="726,-136 591,-136 591,-86 726,-86 726,-136"/>
<text text-anchor="start" x="599" y="-121.8" font-family="arial" font-weight="bold" font-size="14.00">ID_57_ct0_st023W</text>
<text text-anchor="start" x="606" y="-107.8" font-family="arial" font-size="14.00" fill="#984ea3">(!P &amp;&amp; (R &amp;&amp; !S))</text>
<text text-anchor="start" x="635.5" y="-93.8" font-family="arial" font-size="14.00" fill="#ff7f00">c0 &lt;= 5</text>
</g>
<!-- ID_57_ct0_st01&#45;&gt;ID_57_ct0_st023W -->
<g id="edge12" class="edge">
<title>ID_57_ct0_st01&#45;&gt;ID_57_ct0_st023W</title>
<path fill="none" stroke="black" d="M478.23,-149.89C491.26,-139.76 507.49,-129.05 524,-123 541.78,-116.49 561.75,-112.9 580.71,-111.04"/>
<polygon fill="black" stroke="black" points="581.15,-114.52 590.82,-110.2 580.57,-107.54 581.15,-114.52"/>
<text text-anchor="start" x="536.5" y="-141.8" font-family="arial" font-size="14.00" fill="#377eb8">true</text>
<text text-anchor="start" x="529.5" y="-126.8" font-family="arial" font-size="14.00">c0 :=0</text>
</g>
<!-- ID_57_ct0_st&#45;&gt;ID_57_ct0_st -->
<g id="edge6" class="edge">
<title>ID_57_ct0_st&#45;&gt;ID_57_ct0_st</title>
<path fill="none" stroke="black" d="M1029.93,-177.18C1029.28,-186.91 1034.14,-195 1044.5,-195 1050.97,-195 1055.3,-191.84 1057.47,-187.09"/>
<polygon fill="black" stroke="black" points="1060.94,-187.6 1059.07,-177.18 1054.03,-186.49 1060.94,-187.6"/>
<text text-anchor="start" x="1032.5" y="-198.8" font-family="arial" font-size="14.00" fill="#377eb8">true</text>
</g>
<!-- ID_57_ct0_st023W&#45;&gt;ID_57_ct0_st0 -->
<g id="edge20" class="edge">
<title>ID_57_ct0_st023W&#45;&gt;ID_57_ct0_st0</title>
<path fill="none" stroke="black" d="M590.67,-107.73C504.51,-103.5 355.79,-96.22 271.52,-92.09"/>
<polygon fill="black" stroke="black" points="271.49,-88.58 261.33,-91.59 271.14,-95.57 271.49,-88.58"/>
<text text-anchor="start" x="424.5" y="-106.8" font-family="arial" font-size="14.00" fill="#377eb8">(P&#39; || S&#39;)</text>
</g>
<!-- ID_57_ct0_st023W&#45;&gt;ID_57_ct0_st01 -->
<g id="edge22" class="edge">
<title>ID_57_ct0_st023W&#45;&gt;ID_57_ct0_st01</title>
<path fill="none" stroke="black" d="M612.9,-136.12C600.3,-142.39 586.38,-148.58 573,-153 554.93,-158.97 534.8,-163.43 516.14,-166.72"/>
<polygon fill="black" stroke="black" points="515.53,-163.27 506.25,-168.38 516.69,-170.18 515.53,-163.27"/>
<text text-anchor="start" x="524" y="-167.8" font-family="arial" font-size="14.00" fill="#377eb8">(P&#39; || S&#39;)</text>
</g>
<!-- ID_57_ct0_st023W&#45;&gt;ID_57_ct0_st -->
<g id="edge19" class="edge">
<title>ID_57_ct0_st023W&#45;&gt;ID_57_ct0_st</title>
<path fill="none" stroke="black" d="M726.28,-100.21C782.58,-93.22 864.95,-87.92 935,-103 953.67,-107.02 972.99,-114.52 990.07,-122.47"/>
<polygon fill="black" stroke="black" points="988.78,-125.73 999.31,-126.91 991.81,-119.42 988.78,-125.73"/>
<text text-anchor="start" x="861" y="-106.8" font-family="arial" font-size="14.00" fill="#377eb8">P&#39;</text>
</g>
<!-- ID_57_ct0_st023W&#45;&gt;ID_57_ct0_st023W -->
<g id="edge21" class="edge">
<title>ID_57_ct0_st023W&#45;&gt;ID_57_ct0_st023W</title>
<path fill="none" stroke="black" d="M639.08,-136.18C638.21,-145.91 644.69,-154 658.5,-154 667.13,-154 672.9,-150.84 675.8,-146.09"/>
<polygon fill="black" stroke="black" points="679.25,-146.69 677.92,-136.18 672.41,-145.22 679.25,-146.69"/>
<text text-anchor="start" x="639.5" y="-157.8" font-family="arial" font-size="14.00" fill="#377eb8">c0 &lt; 5</text>
</g>
<!-- ID_57_ct0_st013W -->
<g id="node9" class="node">
<title>ID_57_ct0_st013W</title>
<polygon fill="none" stroke="black" points="935,-177 800,-177 800,-127 935,-127 935,-177"/>
<text text-anchor="start" x="808" y="-162.8" font-family="arial" font-weight="bold" font-size="14.00">ID_57_ct0_st013W</text>
<text text-anchor="start" x="813" y="-148.8" font-family="arial" font-size="14.00" fill="#984ea3">(!P &amp;&amp; (!R &amp;&amp; !S))</text>
<text text-anchor="start" x="844.5" y="-134.8" font-family="arial" font-size="14.00" fill="#ff7f00">c0 &lt;= 5</text>
</g>
<!-- ID_57_ct0_st023W&#45;&gt;ID_57_ct0_st013W -->
<g id="edge23" class="edge">
<title>ID_57_ct0_st023W&#45;&gt;ID_57_ct0_st013W</title>
<path fill="none" stroke="black" d="M726.16,-110.88C744.43,-111.9 764.12,-114.01 782,-118 788.53,-119.46 795.21,-121.37 801.82,-123.53"/>
<polygon fill="black" stroke="black" points="800.82,-126.89 811.41,-126.87 803.12,-120.28 800.82,-126.89"/>
<text text-anchor="start" x="744" y="-121.8" font-family="arial" font-size="14.00" fill="#377eb8">c0 &lt; 5</text>
</g>
<!-- ID_57_ct0_st013W&#45;&gt;ID_57_ct0_st0 -->
<g id="edge15" class="edge">
<title>ID_57_ct0_st013W&#45;&gt;ID_57_ct0_st0</title>
<path fill="none" stroke="black" d="M808.75,-126.98C805.75,-125.36 802.82,-123.7 800,-122 791.32,-116.77 790.46,-113.58 782,-108 758.26,-92.33 753.54,-84.12 726,-77 566.54,-35.81 370.18,-59.74 271.47,-76.67"/>
<polygon fill="black" stroke="black" points="270.61,-73.27 261.36,-78.44 271.82,-80.16 270.61,-73.27"/>
<text text-anchor="start" x="524" y="-59.8" font-family="arial" font-size="14.00" fill="#377eb8">(P&#39; || S&#39;)</text>
</g>
<!-- ID_57_ct0_st013W&#45;&gt;ID_57_ct0_st01 -->
<g id="edge17" class="edge">
<title>ID_57_ct0_st013W&#45;&gt;ID_57_ct0_st01</title>
<path fill="none" stroke="black" d="M799.98,-166.43C776.69,-170.92 750.29,-175.37 726,-178 708.05,-179.94 579.36,-185.98 524,-183 521.46,-182.86 518.87,-182.7 516.26,-182.52"/>
<polygon fill="black" stroke="black" points="516.36,-179.01 506.11,-181.71 515.8,-185.99 516.36,-179.01"/>
<text text-anchor="start" x="634" y="-186.8" font-family="arial" font-size="14.00" fill="#377eb8">(P&#39; || S&#39;)</text>
</g>
<!-- ID_57_ct0_st013W&#45;&gt;ID_57_ct0_st -->
<g id="edge14" class="edge">
<title>ID_57_ct0_st013W&#45;&gt;ID_57_ct0_st</title>
<path fill="none" stroke="black" d="M935.16,-152C951.48,-152 968.83,-152 984.75,-152"/>
<polygon fill="black" stroke="black" points="984.98,-155.5 994.98,-152 984.98,-148.5 984.98,-155.5"/>
<text text-anchor="start" x="958.5" y="-155.8" font-family="arial" font-size="14.00" fill="#377eb8">P&#39;</text>
</g>
<!-- ID_57_ct0_st013W&#45;&gt;ID_57_ct0_st023W -->
<g id="edge16" class="edge">
<title>ID_57_ct0_st013W&#45;&gt;ID_57_ct0_st023W</title>
<path fill="none" stroke="black" d="M799.71,-145.99C781.53,-143.76 761.92,-140.82 744,-137 741.35,-136.43 738.66,-135.82 735.95,-135.17"/>
<polygon fill="black" stroke="black" points="736.65,-131.74 726.09,-132.68 734.93,-138.53 736.65,-131.74"/>
<text text-anchor="start" x="744" y="-146.8" font-family="arial" font-size="14.00" fill="#377eb8">c0 &lt; 5</text>
</g>
<!-- ID_57_ct0_st013W&#45;&gt;ID_57_ct0_st013W -->
<g id="edge18" class="edge">
<title>ID_57_ct0_st013W&#45;&gt;ID_57_ct0_st013W</title>
<path fill="none" stroke="black" d="M849.57,-177.18C848.77,-186.91 854.75,-195 867.5,-195 875.47,-195 880.79,-191.84 883.47,-187.09"/>
<polygon fill="black" stroke="black" points="886.92,-187.66 885.43,-177.18 880.06,-186.31 886.92,-187.66"/>
<text text-anchor="start" x="848.5" y="-198.8" font-family="arial" font-size="14.00" fill="#377eb8">c0 &lt; 5</text>
</g>
</g>
</svg>
