<?xml version="1.0" encoding="UTF-8" standalone="no"?>
<!DOCTYPE svg PUBLIC "-//W3C//DTD SVG 1.1//EN"
 "http://www.w3.org/Graphics/SVG/1.1/DTD/svg11.dtd">
<!-- Generated by graphviz version 2.43.0 (0)
 -->
<!-- Title: G Pages: 1 -->
<svg width="1146pt" height="292pt"
 viewBox="0.00 0.00 1146.00 292.00" xmlns="http://www.w3.org/2000/svg" xmlns:xlink="http://www.w3.org/1999/xlink">
<g id="graph0" class="graph" transform="scale(1 1) rotate(0) translate(4 288)">
<title>G</title>
<polygon fill="white" stroke="transparent" points="-4,4 -4,-288 1142,-288 1142,4 -4,4"/>
<!-- _ID_122_ct0_st -->
<!-- ID_122_ct0_st -->
<g id="node2" class="node">
<title>ID_122_ct0_st</title>
<polygon fill="none" stroke="black" points="1138,-200 1031,-200 1031,-150 1138,-150 1138,-200"/>
<text text-anchor="start" x="1039" y="-185.8" font-family="arial" font-weight="bold" font-size="14.00">ID_122_ct0_st</text>
<text text-anchor="start" x="1072.5" y="-171.8" font-family="arial" font-size="14.00" fill="#984ea3">true</text>
<text text-anchor="start" x="1072.5" y="-157.8" font-family="arial" font-size="14.00" fill="#ff7f00">true</text>
</g>
<!-- _ID_122_ct0_st&#45;&gt;ID_122_ct0_st -->
<g id="edge1" class="edge">
<title>_ID_122_ct0_st&#45;&gt;ID_122_ct0_st</title>
<path fill="none" stroke="black" d="M976.82,-250.3C989.1,-245.82 1001.79,-240.38 1013,-234 1026.06,-226.57 1039.05,-216.62 1050.25,-207.02"/>
<polygon fill="black" stroke="black" points="1052.88,-209.36 1058.07,-200.12 1048.25,-204.11 1052.88,-209.36"/>
</g>
<!-- ID_122_ct0_st&#45;&gt;ID_122_ct0_st -->
<g id="edge4" class="edge">
<title>ID_122_ct0_st&#45;&gt;ID_122_ct0_st</title>
<path fill="none" stroke="black" d="M1069.93,-200.18C1069.28,-209.91 1074.14,-218 1084.5,-218 1090.97,-218 1095.3,-214.84 1097.47,-210.09"/>
<polygon fill="black" stroke="black" points="1100.94,-210.6 1099.07,-200.18 1094.03,-209.49 1100.94,-210.6"/>
<text text-anchor="start" x="1072.5" y="-221.8" font-family="arial" font-size="14.00" fill="#377eb8">true</text>
</g>
<!-- _ID_122_ct0_st0 -->
<!-- ID_122_ct0_st0 -->
<g id="node4" class="node">
<title>ID_122_ct0_st0</title>
<polygon fill="none" stroke="black" points="276,-50 162,-50 162,0 276,0 276,-50"/>
<text text-anchor="start" x="170" y="-35.8" font-family="arial" font-weight="bold" font-size="14.00">ID_122_ct0_st0</text>
<text text-anchor="start" x="190" y="-21.8" font-family="arial" font-size="14.00" fill="#984ea3">(!P &amp;&amp; R)</text>
<text text-anchor="start" x="207" y="-7.8" font-family="arial" font-size="14.00" fill="#ff7f00">true</text>
</g>
<!-- _ID_122_ct0_st0&#45;&gt;ID_122_ct0_st0 -->
<g id="edge2" class="edge">
<title>_ID_122_ct0_st0&#45;&gt;ID_122_ct0_st0</title>
<path fill="none" stroke="black" d="M119.15,-25C129.75,-25 140.88,-25 151.68,-25"/>
<polygon fill="black" stroke="black" points="151.92,-28.5 161.92,-25 151.92,-21.5 151.92,-28.5"/>
</g>
<!-- ID_122_ct0_st0&#45;&gt;ID_122_ct0_st -->
<g id="edge5" class="edge">
<title>ID_122_ct0_st0&#45;&gt;ID_122_ct0_st</title>
<path fill="none" stroke="black" d="M276.16,-25C312.14,-25 359.82,-25 402,-25 402,-25 402,-25 922,-25 989.7,-25 1040.96,-96.64 1066.17,-140.9"/>
<polygon fill="black" stroke="black" points="1063.24,-142.84 1071.15,-149.89 1069.37,-139.45 1063.24,-142.84"/>
<text text-anchor="start" x="706" y="-28.8" font-family="arial" font-size="14.00" fill="#377eb8">P&#39;</text>
</g>
<!-- ID_122_ct0_st0&#45;&gt;ID_122_ct0_st0 -->
<g id="edge6" class="edge">
<title>ID_122_ct0_st0&#45;&gt;ID_122_ct0_st0</title>
<path fill="none" stroke="black" d="M204.06,-50.18C203.39,-59.91 208.38,-68 219,-68 225.64,-68 230.08,-64.84 232.31,-60.09"/>
<polygon fill="black" stroke="black" points="235.77,-60.61 233.94,-50.18 228.86,-59.47 235.77,-60.61"/>
<text text-anchor="start" x="207" y="-71.8" font-family="arial" font-size="14.00" fill="#377eb8">true</text>
</g>
<!-- ID_122_ct0_st01 -->
<g id="node6" class="node">
<title>ID_122_ct0_st01</title>
<polygon fill="none" stroke="black" points="464,-139 342,-139 342,-89 464,-89 464,-139"/>
<text text-anchor="start" x="350" y="-124.8" font-family="arial" font-weight="bold" font-size="14.00">ID_122_ct0_st01</text>
<text text-anchor="start" x="372.5" y="-110.8" font-family="arial" font-size="14.00" fill="#984ea3">(!P &amp;&amp; !R)</text>
<text text-anchor="start" x="391" y="-96.8" font-family="arial" font-size="14.00" fill="#ff7f00">true</text>
</g>
<!-- ID_122_ct0_st0&#45;&gt;ID_122_ct0_st01 -->
<g id="edge7" class="edge">
<title>ID_122_ct0_st0&#45;&gt;ID_122_ct0_st01</title>
<path fill="none" stroke="black" d="M271.18,-50.03C292.99,-60.69 318.6,-73.22 341.35,-84.34"/>
<polygon fill="black" stroke="black" points="340.05,-87.6 350.57,-88.85 343.13,-81.31 340.05,-87.6"/>
<text text-anchor="start" x="300" y="-77.8" font-family="arial" font-size="14.00" fill="#377eb8">true</text>
</g>
<!-- _ID_122_ct0_st01 -->
<!-- _ID_122_ct0_st01&#45;&gt;ID_122_ct0_st01 -->
<g id="edge3" class="edge">
<title>_ID_122_ct0_st01&#45;&gt;ID_122_ct0_st01</title>
<path fill="none" stroke="black" d="M282.13,-117.29C298.07,-116.86 315.34,-116.38 331.67,-115.93"/>
<polygon fill="black" stroke="black" points="331.79,-119.43 341.69,-115.66 331.6,-112.43 331.79,-119.43"/>
</g>
<!-- ID_122_ct0_st01&#45;&gt;ID_122_ct0_st -->
<g id="edge8" class="edge">
<title>ID_122_ct0_st01&#45;&gt;ID_122_ct0_st</title>
<path fill="none" stroke="black" d="M434.16,-139.19C447.97,-149.55 465.02,-160.79 482,-168 550.84,-197.22 572.58,-193.63 647,-201 779.85,-214.15 936.15,-196.97 1021,-184.92"/>
<polygon fill="black" stroke="black" points="1021.59,-188.37 1030.99,-183.48 1020.59,-181.44 1021.59,-188.37"/>
<text text-anchor="start" x="812.5" y="-207.8" font-family="arial" font-size="14.00" fill="#377eb8">P&#39;</text>
</g>
<!-- ID_122_ct0_st01&#45;&gt;ID_122_ct0_st01 -->
<g id="edge10" class="edge">
<title>ID_122_ct0_st01&#45;&gt;ID_122_ct0_st01</title>
<path fill="none" stroke="black" d="M386.19,-139.18C385.44,-148.91 391.05,-157 403,-157 410.47,-157 415.46,-153.84 417.97,-149.09"/>
<polygon fill="black" stroke="black" points="421.43,-149.65 419.81,-139.18 414.54,-148.37 421.43,-149.65"/>
<text text-anchor="start" x="391" y="-160.8" font-family="arial" font-size="14.00" fill="#377eb8">true</text>
</g>
<!-- ID_122_ct0_st02X -->
<g id="node7" class="node">
<title>ID_122_ct0_st02X</title>
<polygon fill="none" stroke="black" points="778,-159 647,-159 647,-109 778,-109 778,-159"/>
<text text-anchor="start" x="655" y="-144.8" font-family="arial" font-weight="bold" font-size="14.00">ID_122_ct0_st02X</text>
<text text-anchor="start" x="683.5" y="-130.8" font-family="arial" font-size="14.00" fill="#984ea3">(!P &amp;&amp; R)</text>
<text text-anchor="start" x="689.5" y="-116.8" font-family="arial" font-size="14.00" fill="#ff7f00">c0 &lt;= 5</text>
</g>
<!-- ID_122_ct0_st01&#45;&gt;ID_122_ct0_st02X -->
<g id="edge9" class="edge">
<title>ID_122_ct0_st01&#45;&gt;ID_122_ct0_st02X</title>
<path fill="none" stroke="black" d="M464.34,-125.76C470.29,-126.64 476.25,-127.41 482,-128 533.32,-133.25 591.4,-134.72 636.3,-134.9"/>
<polygon fill="black" stroke="black" points="636.53,-138.4 646.54,-134.92 636.54,-131.4 636.53,-138.4"/>
<text text-anchor="start" x="543.5" y="-152.8" font-family="arial" font-size="14.00" fill="#377eb8">true</text>
<text text-anchor="start" x="536.5" y="-137.8" font-family="arial" font-size="14.00">c0 :=0</text>
</g>
<!-- ID_122_ct0_st02X&#45;&gt;ID_122_ct0_st -->
<g id="edge11" class="edge">
<title>ID_122_ct0_st02X&#45;&gt;ID_122_ct0_st</title>
<path fill="none" stroke="black" d="M778.37,-141.19C846.68,-148.76 953.48,-160.59 1020.91,-168.06"/>
<polygon fill="black" stroke="black" points="1020.65,-171.56 1030.98,-169.18 1021.42,-164.6 1020.65,-171.56"/>
<text text-anchor="start" x="914.5" y="-166.8" font-family="arial" font-size="14.00" fill="#377eb8">P&#39;</text>
</g>
<!-- ID_122_ct0_st02X&#45;&gt;ID_122_ct0_st01 -->
<g id="edge14" class="edge">
<title>ID_122_ct0_st02X&#45;&gt;ID_122_ct0_st01</title>
<path fill="none" stroke="black" d="M646.61,-112.41C640.7,-111.03 634.77,-109.86 629,-109 577.55,-101.38 518.76,-103.03 474.18,-106.38"/>
<polygon fill="black" stroke="black" points="473.72,-102.91 464.03,-107.19 474.28,-109.88 473.72,-102.91"/>
<text text-anchor="start" x="482" y="-112.8" font-family="arial" font-size="14.00" fill="#377eb8">(P&#39; || (R&#39; || (S&#39; || c0 &lt; 5)))</text>
</g>
<!-- ID_122_ct0_st02X&#45;&gt;ID_122_ct0_st02X -->
<g id="edge12" class="edge">
<title>ID_122_ct0_st02X&#45;&gt;ID_122_ct0_st02X</title>
<path fill="none" stroke="black" d="M692.7,-159.18C691.82,-168.91 698.42,-177 712.5,-177 721.3,-177 727.18,-173.84 730.13,-169.09"/>
<polygon fill="black" stroke="black" points="733.58,-169.69 732.3,-159.18 726.74,-168.2 733.58,-169.69"/>
<text text-anchor="start" x="693.5" y="-180.8" font-family="arial" font-size="14.00" fill="#377eb8">c0 &lt; 5</text>
</g>
<!-- ID_122_ct0_st02 -->
<g id="node8" class="node">
<title>ID_122_ct0_st02</title>
<polygon fill="none" stroke="black" points="982,-106 860,-106 860,-56 982,-56 982,-106"/>
<text text-anchor="start" x="868" y="-91.8" font-family="arial" font-weight="bold" font-size="14.00">ID_122_ct0_st02</text>
<text text-anchor="start" x="892" y="-77.8" font-family="arial" font-size="14.00" fill="#984ea3">(!P &amp;&amp; R)</text>
<text text-anchor="start" x="909" y="-63.8" font-family="arial" font-size="14.00" fill="#ff7f00">true</text>
</g>
<!-- ID_122_ct0_st02X&#45;&gt;ID_122_ct0_st02 -->
<g id="edge13" class="edge">
<title>ID_122_ct0_st02X&#45;&gt;ID_122_ct0_st02</title>
<path fill="none" stroke="black" d="M778.27,-117.38C801.04,-111.53 826.72,-104.94 849.91,-98.99"/>
<polygon fill="black" stroke="black" points="850.86,-102.36 859.68,-96.48 849.12,-95.58 850.86,-102.36"/>
<text text-anchor="start" x="796" y="-115.8" font-family="arial" font-size="14.00" fill="#377eb8">c0 &gt;= 5</text>
</g>
<!-- ID_122_ct0_st02&#45;&gt;ID_122_ct0_st -->
<g id="edge15" class="edge">
<title>ID_122_ct0_st02&#45;&gt;ID_122_ct0_st</title>
<path fill="none" stroke="black" d="M965.28,-106.19C985.73,-118.09 1010.29,-132.39 1031.72,-144.86"/>
<polygon fill="black" stroke="black" points="1029.98,-147.9 1040.38,-149.9 1033.5,-141.85 1029.98,-147.9"/>
<text text-anchor="start" x="1000" y="-136.8" font-family="arial" font-size="14.00" fill="#377eb8">P&#39;</text>
</g>
<!-- ID_122_ct0_st02&#45;&gt;ID_122_ct0_st01 -->
<g id="edge17" class="edge">
<title>ID_122_ct0_st02&#45;&gt;ID_122_ct0_st01</title>
<path fill="none" stroke="black" d="M859.81,-79.83C775.08,-79 616,-80.48 482,-99 479.49,-99.35 476.94,-99.72 474.36,-100.12"/>
<polygon fill="black" stroke="black" points="473.67,-96.68 464.36,-101.74 474.79,-103.59 473.67,-96.68"/>
<text text-anchor="start" x="670" y="-87.8" font-family="arial" font-size="14.00" fill="#377eb8">(P&#39; || (R&#39; || S&#39;))</text>
</g>
<!-- ID_122_ct0_st02&#45;&gt;ID_122_ct0_st02 -->
<g id="edge16" class="edge">
<title>ID_122_ct0_st02&#45;&gt;ID_122_ct0_st02</title>
<path fill="none" stroke="black" d="M905.31,-106.18C904.61,-115.91 909.84,-124 921,-124 927.97,-124 932.63,-120.84 934.97,-116.09"/>
<polygon fill="black" stroke="black" points="938.43,-116.63 936.69,-106.18 931.53,-115.43 938.43,-116.63"/>
<text text-anchor="start" x="909" y="-127.8" font-family="arial" font-size="14.00" fill="#377eb8">true</text>
</g>
</g>
</svg>
