<?xml version="1.0" encoding="UTF-8" standalone="no"?>
<!DOCTYPE svg PUBLIC "-//W3C//DTD SVG 1.1//EN"
 "http://www.w3.org/Graphics/SVG/1.1/DTD/svg11.dtd">
<!-- Generated by graphviz version 2.43.0 (0)
 -->
<!-- Title: G Pages: 1 -->
<svg width="1059pt" height="367pt"
 viewBox="0.00 0.00 1059.00 367.00" xmlns="http://www.w3.org/2000/svg" xmlns:xlink="http://www.w3.org/1999/xlink">
<g id="graph0" class="graph" transform="scale(1 1) rotate(0) translate(4 363)">
<title>G</title>
<polygon fill="white" stroke="transparent" points="-4,4 -4,-363 1055,-363 1055,4 -4,4"/>
<!-- _ID_2_ct0_stinit -->
<!-- ID_2_ct0_stinit -->
<g id="node2" class="node">
<title>ID_2_ct0_stinit</title>
<polygon fill="none" stroke="black" points="891,-326 779,-326 779,-276 891,-276 891,-326"/>
<text text-anchor="start" x="787" y="-311.8" font-family="arial" font-weight="bold" font-size="14.00">ID_2_ct0_stinit</text>
<text text-anchor="start" x="830" y="-297.8" font-family="arial" font-size="14.00" fill="#984ea3">P</text>
<text text-anchor="start" x="823" y="-283.8" font-family="arial" font-size="14.00" fill="#ff7f00">true</text>
</g>
<!-- _ID_2_ct0_stinit&#45;&gt;ID_2_ct0_stinit -->
<g id="edge1" class="edge">
<title>_ID_2_ct0_stinit&#45;&gt;ID_2_ct0_stinit</title>
<path fill="none" stroke="black" d="M689.71,-301C714.19,-301 743.11,-301 768.61,-301"/>
<polygon fill="black" stroke="black" points="768.93,-304.5 778.93,-301 768.93,-297.5 768.93,-304.5"/>
</g>
<!-- ID_2_ct0_stinit&#45;&gt;ID_2_ct0_stinit -->
<g id="edge5" class="edge">
<title>ID_2_ct0_stinit&#45;&gt;ID_2_ct0_stinit</title>
<path fill="none" stroke="black" d="M817.44,-326.18C816.66,-335.91 822.52,-344 835,-344 842.8,-344 848.01,-340.84 850.64,-336.09"/>
<polygon fill="black" stroke="black" points="854.09,-336.66 852.56,-326.18 847.22,-335.33 854.09,-336.66"/>
<text text-anchor="start" x="823" y="-347.8" font-family="arial" font-size="14.00" fill="#377eb8">true</text>
</g>
<!-- ID_2_ct0_st -->
<g id="node7" class="node">
<title>ID_2_ct0_st</title>
<polygon fill="none" stroke="black" points="1051,-177 959,-177 959,-127 1051,-127 1051,-177"/>
<text text-anchor="start" x="967" y="-162.8" font-family="arial" font-weight="bold" font-size="14.00">ID_2_ct0_st</text>
<text text-anchor="start" x="993" y="-148.8" font-family="arial" font-size="14.00" fill="#984ea3">true</text>
<text text-anchor="start" x="993" y="-134.8" font-family="arial" font-size="14.00" fill="#ff7f00">true</text>
</g>
<!-- ID_2_ct0_stinit&#45;&gt;ID_2_ct0_st -->
<g id="edge4" class="edge">
<title>ID_2_ct0_stinit&#45;&gt;ID_2_ct0_st</title>
<path fill="none" stroke="black" d="M891.09,-288.49C908.43,-282.57 926.76,-274.07 941,-262 964.61,-241.99 981.29,-210.77 991.53,-186.69"/>
<polygon fill="black" stroke="black" points="994.87,-187.78 995.4,-177.2 988.38,-185.14 994.87,-187.78"/>
<text text-anchor="start" x="917" y="-280.8" font-family="arial" font-size="14.00" fill="#377eb8">true</text>
</g>
<!-- _ID_2_ct0_st0 -->
<!-- ID_2_ct0_st0 -->
<g id="node4" class="node">
<title>ID_2_ct0_st0</title>
<polygon fill="none" stroke="black" points="246,-114 147,-114 147,-64 246,-64 246,-114"/>
<text text-anchor="start" x="155" y="-99.8" font-family="arial" font-weight="bold" font-size="14.00">ID_2_ct0_st0</text>
<text text-anchor="start" x="167.5" y="-85.8" font-family="arial" font-size="14.00" fill="#984ea3">(!P &amp;&amp; R)</text>
<text text-anchor="start" x="184.5" y="-71.8" font-family="arial" font-size="14.00" fill="#ff7f00">true</text>
</g>
<!-- _ID_2_ct0_st0&#45;&gt;ID_2_ct0_st0 -->
<g id="edge2" class="edge">
<title>_ID_2_ct0_st0&#45;&gt;ID_2_ct0_st0</title>
<path fill="none" stroke="black" d="M104.04,-89C114.57,-89 125.75,-89 136.53,-89"/>
<polygon fill="black" stroke="black" points="136.72,-92.5 146.72,-89 136.72,-85.5 136.72,-92.5"/>
</g>
<!-- ID_2_ct0_st0&#45;&gt;ID_2_ct0_st0 -->
<g id="edge8" class="edge">
<title>ID_2_ct0_st0&#45;&gt;ID_2_ct0_st0</title>
<path fill="none" stroke="black" d="M182.68,-114.18C182.06,-123.91 186.67,-132 196.5,-132 202.64,-132 206.75,-128.84 208.81,-124.09"/>
<polygon fill="black" stroke="black" points="212.27,-124.59 210.32,-114.18 205.35,-123.53 212.27,-124.59"/>
<text text-anchor="start" x="184.5" y="-135.8" font-family="arial" font-size="14.00" fill="#377eb8">true</text>
</g>
<!-- ID_2_ct0_st01 -->
<g id="node6" class="node">
<title>ID_2_ct0_st01</title>
<polygon fill="none" stroke="black" points="484,-200 377,-200 377,-150 484,-150 484,-200"/>
<text text-anchor="start" x="385" y="-185.8" font-family="arial" font-weight="bold" font-size="14.00">ID_2_ct0_st01</text>
<text text-anchor="start" x="400" y="-171.8" font-family="arial" font-size="14.00" fill="#984ea3">(!P &amp;&amp; !R)</text>
<text text-anchor="start" x="418.5" y="-157.8" font-family="arial" font-size="14.00" fill="#ff7f00">true</text>
</g>
<!-- ID_2_ct0_st0&#45;&gt;ID_2_ct0_st01 -->
<g id="edge9" class="edge">
<title>ID_2_ct0_st0&#45;&gt;ID_2_ct0_st01</title>
<path fill="none" stroke="black" d="M229.22,-114.14C241.4,-122.77 255.8,-131.81 270,-138 279.15,-141.99 326.25,-152.73 366.92,-161.62"/>
<polygon fill="black" stroke="black" points="366.3,-165.07 376.82,-163.78 367.79,-158.23 366.3,-165.07"/>
<text text-anchor="start" x="302.5" y="-162.8" font-family="arial" font-size="14.00" fill="#377eb8">true</text>
</g>
<!-- ID_2_ct0_st0&#45;&gt;ID_2_ct0_st -->
<g id="edge7" class="edge">
<title>ID_2_ct0_st0&#45;&gt;ID_2_ct0_st</title>
<path fill="none" stroke="black" d="M236.4,-63.97C281.14,-37.65 357.67,0 429.5,0 429.5,0 429.5,0 836,0 905.92,0 959.74,-73.28 986.1,-118.08"/>
<polygon fill="black" stroke="black" points="983.15,-119.96 991.16,-126.9 989.22,-116.48 983.15,-119.96"/>
<text text-anchor="start" x="626.5" y="-3.8" font-family="arial" font-size="14.00" fill="#377eb8">P&#39;</text>
</g>
<!-- _ID_2_ct0_st01 -->
<!-- _ID_2_ct0_st01&#45;&gt;ID_2_ct0_st01 -->
<g id="edge3" class="edge">
<title>_ID_2_ct0_st01&#45;&gt;ID_2_ct0_st01</title>
<path fill="none" stroke="black" d="M252.19,-186.46C286.45,-184.25 330.72,-181.39 366.46,-179.08"/>
<polygon fill="black" stroke="black" points="367.02,-182.55 376.78,-178.41 366.57,-175.56 367.02,-182.55"/>
</g>
<!-- ID_2_ct0_st01&#45;&gt;ID_2_ct0_st0 -->
<g id="edge11" class="edge">
<title>ID_2_ct0_st01&#45;&gt;ID_2_ct0_st0</title>
<path fill="none" stroke="black" d="M404.11,-149.82C391.52,-138.72 375.5,-126.52 359,-119 349.54,-114.69 298.46,-105.56 256.25,-98.49"/>
<polygon fill="black" stroke="black" points="256.73,-95.03 246.29,-96.84 255.58,-101.93 256.73,-95.03"/>
<text text-anchor="start" x="270" y="-122.8" font-family="arial" font-size="14.00" fill="#377eb8">(P&#39; || (S&#39; || !R&#39;))</text>
</g>
<!-- ID_2_ct0_st01&#45;&gt;ID_2_ct0_st01 -->
<g id="edge13" class="edge">
<title>ID_2_ct0_st01&#45;&gt;ID_2_ct0_st01</title>
<path fill="none" stroke="black" d="M412.57,-200.18C411.77,-209.91 417.75,-218 430.5,-218 438.47,-218 443.79,-214.84 446.47,-210.09"/>
<polygon fill="black" stroke="black" points="449.92,-210.66 448.43,-200.18 443.06,-209.31 449.92,-210.66"/>
<text text-anchor="start" x="418.5" y="-221.8" font-family="arial" font-size="14.00" fill="#377eb8">true</text>
</g>
<!-- ID_2_ct0_st01&#45;&gt;ID_2_ct0_st -->
<g id="edge10" class="edge">
<title>ID_2_ct0_st01&#45;&gt;ID_2_ct0_st</title>
<path fill="none" stroke="black" d="M484.26,-193.7C490.19,-195.36 496.19,-196.84 502,-198 675.29,-232.52 729.39,-268.51 899,-219 923.41,-211.88 947.55,-197.16 966.52,-183.33"/>
<polygon fill="black" stroke="black" points="968.69,-186.08 974.58,-177.27 964.49,-180.48 968.69,-186.08"/>
<text text-anchor="start" x="727.5" y="-246.8" font-family="arial" font-size="14.00" fill="#377eb8">P&#39;</text>
</g>
<!-- ID_2_ct0_st023W -->
<g id="node8" class="node">
<title>ID_2_ct0_st023W</title>
<polygon fill="none" stroke="black" points="697,-136 569,-136 569,-86 697,-86 697,-136"/>
<text text-anchor="start" x="577" y="-121.8" font-family="arial" font-weight="bold" font-size="14.00">ID_2_ct0_st023W</text>
<text text-anchor="start" x="580.5" y="-107.8" font-family="arial" font-size="14.00" fill="#984ea3">(!P &amp;&amp; (R &amp;&amp; !S))</text>
<text text-anchor="start" x="610" y="-93.8" font-family="arial" font-size="14.00" fill="#ff7f00">c0 &lt;= 5</text>
</g>
<!-- ID_2_ct0_st01&#45;&gt;ID_2_ct0_st023W -->
<g id="edge12" class="edge">
<title>ID_2_ct0_st01&#45;&gt;ID_2_ct0_st023W</title>
<path fill="none" stroke="black" d="M458.21,-149.9C470.6,-139.77 486.08,-129.06 502,-123 519.78,-116.23 539.87,-112.61 558.84,-110.8"/>
<polygon fill="black" stroke="black" points="559.26,-114.28 568.95,-110 558.7,-107.3 559.26,-114.28"/>
<text text-anchor="start" x="514.5" y="-141.8" font-family="arial" font-size="14.00" fill="#377eb8">true</text>
<text text-anchor="start" x="507.5" y="-126.8" font-family="arial" font-size="14.00">c0 :=0</text>
</g>
<!-- ID_2_ct0_st&#45;&gt;ID_2_ct0_st -->
<g id="edge6" class="edge">
<title>ID_2_ct0_st&#45;&gt;ID_2_ct0_st</title>
<path fill="none" stroke="black" d="M990.81,-177.18C990.17,-186.91 994.91,-195 1005,-195 1011.31,-195 1015.52,-191.84 1017.64,-187.09"/>
<polygon fill="black" stroke="black" points="1021.11,-187.6 1019.19,-177.18 1014.19,-186.51 1021.11,-187.6"/>
<text text-anchor="start" x="993" y="-198.8" font-family="arial" font-size="14.00" fill="#377eb8">true</text>
</g>
<!-- ID_2_ct0_st023W&#45;&gt;ID_2_ct0_st0 -->
<g id="edge20" class="edge">
<title>ID_2_ct0_st023W&#45;&gt;ID_2_ct0_st0</title>
<path fill="none" stroke="black" d="M568.68,-107.79C484.72,-103.54 337.71,-96.1 256.17,-91.97"/>
<polygon fill="black" stroke="black" points="256.24,-88.47 246.08,-91.46 255.89,-95.46 256.24,-88.47"/>
<text text-anchor="start" x="406" y="-106.8" font-family="arial" font-size="14.00" fill="#377eb8">(P&#39; || S&#39;)</text>
</g>
<!-- ID_2_ct0_st023W&#45;&gt;ID_2_ct0_st01 -->
<g id="edge22" class="edge">
<title>ID_2_ct0_st023W&#45;&gt;ID_2_ct0_st01</title>
<path fill="none" stroke="black" d="M589.33,-136.12C577.26,-142.39 563.89,-148.58 551,-153 532.9,-159.2 512.63,-163.77 493.99,-167.09"/>
<polygon fill="black" stroke="black" points="493.4,-163.64 484.12,-168.76 494.57,-170.54 493.4,-163.64"/>
<text text-anchor="start" x="502" y="-168.8" font-family="arial" font-size="14.00" fill="#377eb8">(P&#39; || S&#39;)</text>
</g>
<!-- ID_2_ct0_st023W&#45;&gt;ID_2_ct0_st -->
<g id="edge19" class="edge">
<title>ID_2_ct0_st023W&#45;&gt;ID_2_ct0_st</title>
<path fill="none" stroke="black" d="M697.2,-100.43C751.41,-93.42 831.26,-87.97 899,-103 916.98,-106.99 935.52,-114.39 951.93,-122.25"/>
<polygon fill="black" stroke="black" points="950.81,-125.6 961.32,-126.91 953.92,-119.33 950.81,-125.6"/>
<text text-anchor="start" x="828.5" y="-106.8" font-family="arial" font-size="14.00" fill="#377eb8">P&#39;</text>
</g>
<!-- ID_2_ct0_st023W&#45;&gt;ID_2_ct0_st023W -->
<g id="edge21" class="edge">
<title>ID_2_ct0_st023W&#45;&gt;ID_2_ct0_st023W</title>
<path fill="none" stroke="black" d="M614.32,-136.18C613.49,-145.91 619.72,-154 633,-154 641.3,-154 646.85,-150.84 649.63,-146.09"/>
<polygon fill="black" stroke="black" points="653.09,-146.68 651.68,-136.18 646.23,-145.26 653.09,-146.68"/>
<text text-anchor="start" x="614" y="-157.8" font-family="arial" font-size="14.00" fill="#377eb8">c0 &lt; 5</text>
</g>
<!-- ID_2_ct0_st013W -->
<g id="node9" class="node">
<title>ID_2_ct0_st013W</title>
<polygon fill="none" stroke="black" points="899,-177 771,-177 771,-127 899,-127 899,-177"/>
<text text-anchor="start" x="779" y="-162.8" font-family="arial" font-weight="bold" font-size="14.00">ID_2_ct0_st013W</text>
<text text-anchor="start" x="780.5" y="-148.8" font-family="arial" font-size="14.00" fill="#984ea3">(!P &amp;&amp; (!R &amp;&amp; !S))</text>
<text text-anchor="start" x="812" y="-134.8" font-family="arial" font-size="14.00" fill="#ff7f00">c0 &lt;= 5</text>
</g>
<!-- ID_2_ct0_st023W&#45;&gt;ID_2_ct0_st013W -->
<g id="edge23" class="edge">
<title>ID_2_ct0_st023W&#45;&gt;ID_2_ct0_st013W</title>
<path fill="none" stroke="black" d="M697.25,-110.75C715.43,-111.74 735.16,-113.86 753,-118 759.14,-119.43 765.41,-121.28 771.61,-123.38"/>
<polygon fill="black" stroke="black" points="770.67,-126.76 781.26,-126.87 773.05,-120.18 770.67,-126.76"/>
<text text-anchor="start" x="715" y="-121.8" font-family="arial" font-size="14.00" fill="#377eb8">c0 &lt; 5</text>
</g>
<!-- ID_2_ct0_st013W&#45;&gt;ID_2_ct0_st0 -->
<g id="edge15" class="edge">
<title>ID_2_ct0_st013W&#45;&gt;ID_2_ct0_st0</title>
<path fill="none" stroke="black" d="M779.31,-126.87C776.47,-125.28 773.68,-123.65 771,-122 762.37,-116.68 761.46,-113.58 753,-108 729.26,-92.33 724.54,-84.12 697,-77 541.82,-36.91 350.44,-60.94 255.95,-77.42"/>
<polygon fill="black" stroke="black" points="255.25,-73.99 246.02,-79.19 256.48,-80.88 255.25,-73.99"/>
<text text-anchor="start" x="502" y="-60.8" font-family="arial" font-size="14.00" fill="#377eb8">(P&#39; || S&#39;)</text>
</g>
<!-- ID_2_ct0_st013W&#45;&gt;ID_2_ct0_st01 -->
<g id="edge17" class="edge">
<title>ID_2_ct0_st013W&#45;&gt;ID_2_ct0_st01</title>
<path fill="none" stroke="black" d="M770.86,-165.99C747.74,-170.58 721.29,-175.21 697,-178 685.54,-179.32 555.86,-187.42 502,-184 499.47,-183.84 496.89,-183.65 494.28,-183.43"/>
<polygon fill="black" stroke="black" points="494.46,-179.93 484.17,-182.47 493.79,-186.9 494.46,-179.93"/>
<text text-anchor="start" x="608.5" y="-187.8" font-family="arial" font-size="14.00" fill="#377eb8">(P&#39; || S&#39;)</text>
</g>
<!-- ID_2_ct0_st013W&#45;&gt;ID_2_ct0_st -->
<g id="edge14" class="edge">
<title>ID_2_ct0_st013W&#45;&gt;ID_2_ct0_st</title>
<path fill="none" stroke="black" d="M899.03,-152C915.38,-152 932.86,-152 948.77,-152"/>
<polygon fill="black" stroke="black" points="948.97,-155.5 958.97,-152 948.97,-148.5 948.97,-155.5"/>
<text text-anchor="start" x="922.5" y="-155.8" font-family="arial" font-size="14.00" fill="#377eb8">P&#39;</text>
</g>
<!-- ID_2_ct0_st013W&#45;&gt;ID_2_ct0_st023W -->
<g id="edge16" class="edge">
<title>ID_2_ct0_st013W&#45;&gt;ID_2_ct0_st023W</title>
<path fill="none" stroke="black" d="M770.94,-146.26C752.77,-144.01 732.99,-140.99 715,-137 712.39,-136.42 709.74,-135.79 707.07,-135.13"/>
<polygon fill="black" stroke="black" points="707.93,-131.73 697.37,-132.57 706.14,-138.5 707.93,-131.73"/>
<text text-anchor="start" x="715" y="-146.8" font-family="arial" font-size="14.00" fill="#377eb8">c0 &lt; 5</text>
</g>
<!-- ID_2_ct0_st013W&#45;&gt;ID_2_ct0_st013W -->
<g id="edge18" class="edge">
<title>ID_2_ct0_st013W&#45;&gt;ID_2_ct0_st013W</title>
<path fill="none" stroke="black" d="M817.44,-177.18C816.66,-186.91 822.52,-195 835,-195 842.8,-195 848.01,-191.84 850.64,-187.09"/>
<polygon fill="black" stroke="black" points="854.09,-187.66 852.56,-177.18 847.22,-186.33 854.09,-187.66"/>
<text text-anchor="start" x="816" y="-198.8" font-family="arial" font-size="14.00" fill="#377eb8">c0 &lt; 5</text>
</g>
</g>
</svg>
