<?xml version="1.0" encoding="UTF-8" standalone="no"?>
<!DOCTYPE svg PUBLIC "-//W3C//DTD SVG 1.1//EN"
 "http://www.w3.org/Graphics/SVG/1.1/DTD/svg11.dtd">
<!-- Generated by graphviz version 2.43.0 (0)
 -->
<!-- Title: G Pages: 1 -->
<svg width="1125pt" height="269pt"
 viewBox="0.00 0.00 1125.00 268.87" xmlns="http://www.w3.org/2000/svg" xmlns:xlink="http://www.w3.org/1999/xlink">
<g id="graph0" class="graph" transform="scale(1 1) rotate(0) translate(4 264.87)">
<title>G</title>
<polygon fill="white" stroke="transparent" points="-4,4 -4,-264.87 1121,-264.87 1121,4 -4,4"/>
<!-- _ID_125_ct1_st0 -->
<!-- ID_125_ct1_st0 -->
<g id="node2" class="node">
<title>ID_125_ct1_st0</title>
<polygon fill="none" stroke="black" points="280,-65.87 166,-65.87 166,-15.87 280,-15.87 280,-65.87"/>
<text text-anchor="start" x="174" y="-51.67" font-family="arial" font-weight="bold" font-size="14.00">ID_125_ct1_st0</text>
<text text-anchor="start" x="216.5" y="-37.67" font-family="arial" font-size="14.00" fill="#984ea3">!P</text>
<text text-anchor="start" x="211" y="-23.67" font-family="arial" font-size="14.00" fill="#ff7f00">true</text>
</g>
<!-- _ID_125_ct1_st0&#45;&gt;ID_125_ct1_st0 -->
<g id="edge1" class="edge">
<title>_ID_125_ct1_st0&#45;&gt;ID_125_ct1_st0</title>
<path fill="none" stroke="black" d="M119.26,-40.87C131.17,-40.87 143.77,-40.87 155.91,-40.87"/>
<polygon fill="black" stroke="black" points="155.97,-44.37 165.97,-40.87 155.97,-37.37 155.97,-44.37"/>
</g>
<!-- ID_125_ct1_st0&#45;&gt;ID_125_ct1_st0 -->
<g id="edge4" class="edge">
<title>ID_125_ct1_st0&#45;&gt;ID_125_ct1_st0</title>
<path fill="none" stroke="black" d="M207.31,-66.05C206.61,-75.78 211.84,-83.87 223,-83.87 229.97,-83.87 234.63,-80.71 236.97,-75.96"/>
<polygon fill="black" stroke="black" points="240.43,-76.5 238.69,-66.05 233.53,-75.3 240.43,-76.5"/>
<text text-anchor="start" x="211" y="-87.67" font-family="arial" font-size="14.00" fill="#377eb8">true</text>
</g>
<!-- ID_125_ct1_st012 -->
<g id="node4" class="node">
<title>ID_125_ct1_st012</title>
<polygon fill="none" stroke="black" points="485,-172.87 356,-172.87 356,-122.87 485,-122.87 485,-172.87"/>
<text text-anchor="start" x="364" y="-158.67" font-family="arial" font-weight="bold" font-size="14.00">ID_125_ct1_st012</text>
<text text-anchor="start" x="393.5" y="-144.67" font-family="arial" font-size="14.00" fill="#984ea3">(P &amp;&amp; R)</text>
<text text-anchor="start" x="408.5" y="-130.67" font-family="arial" font-size="14.00" fill="#ff7f00">true</text>
</g>
<!-- ID_125_ct1_st0&#45;&gt;ID_125_ct1_st012 -->
<g id="edge5" class="edge">
<title>ID_125_ct1_st0&#45;&gt;ID_125_ct1_st012</title>
<path fill="none" stroke="black" d="M269.84,-65.96C298.17,-81.46 334.69,-101.46 364.57,-117.81"/>
<polygon fill="black" stroke="black" points="363.16,-121.03 373.61,-122.76 366.52,-114.89 363.16,-121.03"/>
<text text-anchor="start" x="308" y="-100.67" font-family="arial" font-size="14.00" fill="#377eb8">true</text>
</g>
<!-- ID_125_ct1_st0123 -->
<g id="node6" class="node">
<title>ID_125_ct1_st0123</title>
<polygon fill="none" stroke="black" points="717,-134.87 580,-134.87 580,-84.87 717,-84.87 717,-134.87"/>
<text text-anchor="start" x="588" y="-120.67" font-family="arial" font-weight="bold" font-size="14.00">ID_125_ct1_st0123</text>
<text text-anchor="start" x="619.5" y="-106.67" font-family="arial" font-size="14.00" fill="#984ea3">(P &amp;&amp; !R)</text>
<text text-anchor="start" x="636.5" y="-92.67" font-family="arial" font-size="14.00" fill="#ff7f00">true</text>
</g>
<!-- ID_125_ct1_st0&#45;&gt;ID_125_ct1_st0123 -->
<g id="edge6" class="edge">
<title>ID_125_ct1_st0&#45;&gt;ID_125_ct1_st0123</title>
<path fill="none" stroke="black" d="M280.18,-21.65C335.06,-5.86 420.41,10.7 491,-10.87 536.62,-24.81 539.54,-45.59 580,-70.87 584.59,-73.74 589.4,-76.67 594.23,-79.56"/>
<polygon fill="black" stroke="black" points="592.55,-82.63 602.94,-84.71 596.12,-76.61 592.55,-82.63"/>
<text text-anchor="start" x="408.5" y="-14.67" font-family="arial" font-size="14.00" fill="#377eb8">true</text>
</g>
<!-- _ID_125_ct1_st012 -->
<!-- _ID_125_ct1_st012&#45;&gt;ID_125_ct1_st012 -->
<g id="edge2" class="edge">
<title>_ID_125_ct1_st012&#45;&gt;ID_125_ct1_st012</title>
<path fill="none" stroke="black" d="M290.19,-147.87C307.96,-147.87 327.28,-147.87 345.45,-147.87"/>
<polygon fill="black" stroke="black" points="345.7,-151.37 355.7,-147.87 345.7,-144.37 345.7,-151.37"/>
</g>
<!-- ID_125_ct1_st012&#45;&gt;ID_125_ct1_st012 -->
<g id="edge13" class="edge">
<title>ID_125_ct1_st012&#45;&gt;ID_125_ct1_st012</title>
<path fill="none" stroke="black" d="M401.82,-173.05C400.99,-182.78 407.22,-190.87 420.5,-190.87 428.8,-190.87 434.35,-187.71 437.13,-182.96"/>
<polygon fill="black" stroke="black" points="440.59,-183.55 439.18,-173.05 433.73,-182.14 440.59,-183.55"/>
<text text-anchor="start" x="408.5" y="-194.67" font-family="arial" font-size="14.00" fill="#377eb8">true</text>
</g>
<!-- ID_125_ct1_st012&#45;&gt;ID_125_ct1_st0123 -->
<g id="edge14" class="edge">
<title>ID_125_ct1_st012&#45;&gt;ID_125_ct1_st0123</title>
<path fill="none" stroke="black" d="M485.21,-138.3C509.3,-134.58 536.94,-130.18 562,-125.87 564.63,-125.42 567.3,-124.95 570,-124.48"/>
<polygon fill="black" stroke="black" points="570.63,-127.92 579.86,-122.72 569.4,-121.03 570.63,-127.92"/>
<text text-anchor="start" x="523.5" y="-137.67" font-family="arial" font-size="14.00" fill="#377eb8">true</text>
</g>
<!-- ID_125_ct1_st02 -->
<g id="node7" class="node">
<title>ID_125_ct1_st02</title>
<polygon fill="none" stroke="black" points="1117,-202.87 995,-202.87 995,-152.87 1117,-152.87 1117,-202.87"/>
<text text-anchor="start" x="1003" y="-188.67" font-family="arial" font-weight="bold" font-size="14.00">ID_125_ct1_st02</text>
<text text-anchor="start" x="1027" y="-174.67" font-family="arial" font-size="14.00" fill="#984ea3">(!P &amp;&amp; R)</text>
<text text-anchor="start" x="1044" y="-160.67" font-family="arial" font-size="14.00" fill="#ff7f00">true</text>
</g>
<!-- ID_125_ct1_st012&#45;&gt;ID_125_ct1_st02 -->
<g id="edge11" class="edge">
<title>ID_125_ct1_st012&#45;&gt;ID_125_ct1_st02</title>
<path fill="none" stroke="black" d="M446.4,-173.12C462.78,-188.22 485.48,-206.44 509,-216.87 538.25,-229.85 548.18,-225.48 580,-228.87 755.56,-247.6 807.2,-263.25 977,-214.87 984.4,-212.76 991.97,-210.01 999.34,-206.96"/>
<polygon fill="black" stroke="black" points="1000.76,-210.16 1008.54,-202.97 997.97,-203.74 1000.76,-210.16"/>
<text text-anchor="start" x="735" y="-249.67" font-family="arial" font-size="14.00" fill="#377eb8">true</text>
</g>
<!-- ID_125_ct1_st023 -->
<g id="node8" class="node">
<title>ID_125_ct1_st023</title>
<polygon fill="none" stroke="black" points="906,-83.87 777,-83.87 777,-33.87 906,-33.87 906,-83.87"/>
<text text-anchor="start" x="785" y="-69.67" font-family="arial" font-weight="bold" font-size="14.00">ID_125_ct1_st023</text>
<text text-anchor="start" x="811" y="-55.67" font-family="arial" font-size="14.00" fill="#984ea3">(!P &amp;&amp; !R)</text>
<text text-anchor="start" x="829.5" y="-41.67" font-family="arial" font-size="14.00" fill="#ff7f00">true</text>
</g>
<!-- ID_125_ct1_st012&#45;&gt;ID_125_ct1_st023 -->
<g id="edge12" class="edge">
<title>ID_125_ct1_st012&#45;&gt;ID_125_ct1_st023</title>
<path fill="none" stroke="black" d="M485.02,-170.69C546.56,-189.03 641.4,-207.18 717,-176.87 728.36,-172.32 776.39,-124.6 809.09,-91.26"/>
<polygon fill="black" stroke="black" points="811.74,-93.57 816.23,-83.97 806.73,-88.67 811.74,-93.57"/>
<text text-anchor="start" x="636.5" y="-196.67" font-family="arial" font-size="14.00" fill="#377eb8">true</text>
</g>
<!-- _ID_125_ct1_st0123 -->
<!-- _ID_125_ct1_st0123&#45;&gt;ID_125_ct1_st0123 -->
<g id="edge3" class="edge">
<title>_ID_125_ct1_st0123&#45;&gt;ID_125_ct1_st0123</title>
<path fill="none" stroke="black" d="M491.15,-70.44C516,-76.71 544.14,-83.8 569.63,-90.23"/>
<polygon fill="black" stroke="black" points="569.08,-93.7 579.63,-92.75 570.79,-86.91 569.08,-93.7"/>
</g>
<!-- ID_125_ct1_st0123&#45;&gt;ID_125_ct1_st012 -->
<g id="edge21" class="edge">
<title>ID_125_ct1_st0123&#45;&gt;ID_125_ct1_st012</title>
<path fill="none" stroke="black" d="M579.94,-101.97C557.17,-101 531.77,-101.8 509,-106.87 497.36,-109.46 485.43,-113.78 474.28,-118.66"/>
<polygon fill="black" stroke="black" points="472.75,-115.51 465.12,-122.87 475.67,-121.87 472.75,-115.51"/>
<text text-anchor="start" x="509" y="-110.67" font-family="arial" font-size="14.00" fill="#377eb8">(S&#39; || !R&#39;)</text>
</g>
<!-- ID_125_ct1_st0123&#45;&gt;ID_125_ct1_st0123 -->
<g id="edge22" class="edge">
<title>ID_125_ct1_st0123&#45;&gt;ID_125_ct1_st0123</title>
<path fill="none" stroke="black" d="M630.2,-135.05C629.38,-144.78 635.48,-152.87 648.5,-152.87 656.63,-152.87 662.07,-149.71 664.8,-144.96"/>
<polygon fill="black" stroke="black" points="668.26,-145.54 666.8,-135.05 661.39,-144.16 668.26,-145.54"/>
<text text-anchor="start" x="636.5" y="-156.67" font-family="arial" font-size="14.00" fill="#377eb8">true</text>
</g>
<!-- ID_125_ct1_st0123&#45;&gt;ID_125_ct1_st02 -->
<g id="edge19" class="edge">
<title>ID_125_ct1_st0123&#45;&gt;ID_125_ct1_st02</title>
<path fill="none" stroke="black" d="M689.72,-135C714,-148.73 746.14,-164.41 777,-171.87 846.13,-188.58 927.77,-188.04 984.62,-184.58"/>
<polygon fill="black" stroke="black" points="985.19,-188.05 994.94,-183.9 984.73,-181.06 985.19,-188.05"/>
<text text-anchor="start" x="815" y="-189.67" font-family="arial" font-size="14.00" fill="#377eb8">(S&#39; || !R&#39;)</text>
</g>
<!-- ID_125_ct1_st0123&#45;&gt;ID_125_ct1_st023 -->
<g id="edge20" class="edge">
<title>ID_125_ct1_st0123&#45;&gt;ID_125_ct1_st023</title>
<path fill="none" stroke="black" d="M717.14,-108.5C731.16,-107.05 745.71,-104.68 759,-100.87 769.54,-97.85 780.32,-93.42 790.43,-88.54"/>
<polygon fill="black" stroke="black" points="792.15,-91.6 799.51,-83.97 789,-85.34 792.15,-91.6"/>
<text text-anchor="start" x="735" y="-109.67" font-family="arial" font-size="14.00" fill="#377eb8">true</text>
</g>
<!-- ID_125_ct1_st02&#45;&gt;ID_125_ct1_st012 -->
<g id="edge9" class="edge">
<title>ID_125_ct1_st02&#45;&gt;ID_125_ct1_st012</title>
<path fill="none" stroke="black" d="M994.77,-195.23C988.8,-196.61 982.8,-197.85 977,-198.87 945.81,-204.34 937.61,-202.95 906,-204.87 761.34,-213.66 724.14,-226.93 580,-211.87 547.92,-208.52 539.19,-208.21 509,-196.87 495.62,-191.85 481.83,-185.01 469.26,-178.03"/>
<polygon fill="black" stroke="black" points="470.77,-174.86 460.35,-172.95 467.3,-180.95 470.77,-174.86"/>
<text text-anchor="start" x="735" y="-220.67" font-family="arial" font-size="14.00" fill="#377eb8">true</text>
</g>
<!-- ID_125_ct1_st02&#45;&gt;ID_125_ct1_st0123 -->
<g id="edge10" class="edge">
<title>ID_125_ct1_st02&#45;&gt;ID_125_ct1_st0123</title>
<path fill="none" stroke="black" d="M994.81,-168.08C930.47,-157.57 825.48,-140.3 735,-124.87 732.47,-124.44 729.89,-124 727.29,-123.55"/>
<polygon fill="black" stroke="black" points="727.61,-120.06 717.16,-121.8 726.42,-126.95 727.61,-120.06"/>
<text text-anchor="start" x="829.5" y="-156.67" font-family="arial" font-size="14.00" fill="#377eb8">true</text>
</g>
<!-- ID_125_ct1_st02&#45;&gt;ID_125_ct1_st02 -->
<g id="edge7" class="edge">
<title>ID_125_ct1_st02&#45;&gt;ID_125_ct1_st02</title>
<path fill="none" stroke="black" d="M1036.58,-203.05C1035.71,-212.78 1042.19,-220.87 1056,-220.87 1064.63,-220.87 1070.4,-217.71 1073.3,-212.96"/>
<polygon fill="black" stroke="black" points="1076.75,-213.56 1075.42,-203.05 1069.91,-212.09 1076.75,-213.56"/>
<text text-anchor="start" x="1044" y="-224.67" font-family="arial" font-size="14.00" fill="#377eb8">true</text>
</g>
<!-- ID_125_ct1_st02&#45;&gt;ID_125_ct1_st023 -->
<g id="edge8" class="edge">
<title>ID_125_ct1_st02&#45;&gt;ID_125_ct1_st023</title>
<path fill="none" stroke="black" d="M1042.02,-152.5C1028.87,-129.59 1006.32,-96.92 977,-79.87 958.83,-69.3 937.05,-63.55 916.36,-60.53"/>
<polygon fill="black" stroke="black" points="916.67,-57.04 906.31,-59.26 915.79,-63.99 916.67,-57.04"/>
<text text-anchor="start" x="938.5" y="-83.67" font-family="arial" font-size="14.00" fill="#377eb8">true</text>
</g>
<!-- ID_125_ct1_st023&#45;&gt;ID_125_ct1_st012 -->
<g id="edge17" class="edge">
<title>ID_125_ct1_st023&#45;&gt;ID_125_ct1_st012</title>
<path fill="none" stroke="black" d="M776.87,-51.33C723.51,-46.9 645.7,-44.9 580,-60.87 537.2,-71.28 493.71,-96.41 463.13,-117"/>
<polygon fill="black" stroke="black" points="461.13,-114.13 454.86,-122.67 465.09,-119.9 461.13,-114.13"/>
<text text-anchor="start" x="622" y="-64.67" font-family="arial" font-size="14.00" fill="#377eb8">(S&#39; || !R&#39;)</text>
</g>
<!-- ID_125_ct1_st023&#45;&gt;ID_125_ct1_st0123 -->
<g id="edge18" class="edge">
<title>ID_125_ct1_st023&#45;&gt;ID_125_ct1_st0123</title>
<path fill="none" stroke="black" d="M776.84,-74.91C763.03,-78.46 748.51,-82.25 735,-85.87 732.37,-86.58 729.69,-87.3 726.99,-88.03"/>
<polygon fill="black" stroke="black" points="725.86,-84.72 717.13,-90.73 727.7,-91.47 725.86,-84.72"/>
<text text-anchor="start" x="735" y="-89.67" font-family="arial" font-size="14.00" fill="#377eb8">true</text>
</g>
<!-- ID_125_ct1_st023&#45;&gt;ID_125_ct1_st02 -->
<g id="edge15" class="edge">
<title>ID_125_ct1_st023&#45;&gt;ID_125_ct1_st02</title>
<path fill="none" stroke="black" d="M899.46,-84.01C923.8,-95.35 952.24,-109.44 977,-123.87 988.91,-130.81 1001.36,-138.99 1012.73,-146.84"/>
<polygon fill="black" stroke="black" points="1011,-149.9 1021.19,-152.76 1015.01,-144.16 1011,-149.9"/>
<text text-anchor="start" x="924" y="-127.67" font-family="arial" font-size="14.00" fill="#377eb8">(S&#39; || !R&#39;)</text>
</g>
<!-- ID_125_ct1_st023&#45;&gt;ID_125_ct1_st023 -->
<g id="edge16" class="edge">
<title>ID_125_ct1_st023&#45;&gt;ID_125_ct1_st023</title>
<path fill="none" stroke="black" d="M823.94,-84.05C823.16,-93.78 829.02,-101.87 841.5,-101.87 849.3,-101.87 854.51,-98.71 857.14,-93.96"/>
<polygon fill="black" stroke="black" points="860.59,-94.53 859.06,-84.05 853.72,-93.2 860.59,-94.53"/>
<text text-anchor="start" x="829.5" y="-105.67" font-family="arial" font-size="14.00" fill="#377eb8">true</text>
</g>
</g>
</svg>
