<?xml version="1.0" encoding="UTF-8" standalone="no"?>
<!DOCTYPE svg PUBLIC "-//W3C//DTD SVG 1.1//EN"
 "http://www.w3.org/Graphics/SVG/1.1/DTD/svg11.dtd">
<!-- Generated by graphviz version 2.43.0 (0)
 -->
<!-- Title: G Pages: 1 -->
<svg width="4051pt" height="2129pt"
 viewBox="0.00 0.00 4051.00 2129.00" xmlns="http://www.w3.org/2000/svg" xmlns:xlink="http://www.w3.org/1999/xlink">
<g id="graph0" class="graph" transform="scale(1 1) rotate(0) translate(4 2125)">
<title>G</title>
<polygon fill="white" stroke="transparent" points="-4,4 -4,-2125 4047,-2125 4047,4 -4,4"/>
<!-- _ID_11_ct1_st0 -->
<!-- ID_11_ct1_st0 -->
<g id="node2" class="node">
<title>ID_11_ct1_st0</title>
<polygon fill="none" stroke="black" points="259,-994 153,-994 153,-944 259,-944 259,-994"/>
<text text-anchor="start" x="161" y="-979.8" font-family="arial" font-weight="bold" font-size="14.00">ID_11_ct1_st0</text>
<text text-anchor="start" x="199.5" y="-965.8" font-family="arial" font-size="14.00" fill="#984ea3">!P</text>
<text text-anchor="start" x="194" y="-951.8" font-family="arial" font-size="14.00" fill="#ff7f00">true</text>
</g>
<!-- _ID_11_ct1_st0&#45;&gt;ID_11_ct1_st0 -->
<g id="edge1" class="edge">
<title>_ID_11_ct1_st0&#45;&gt;ID_11_ct1_st0</title>
<path fill="none" stroke="black" d="M110.21,-969C120.68,-969 131.73,-969 142.44,-969"/>
<polygon fill="black" stroke="black" points="142.57,-972.5 152.57,-969 142.57,-965.5 142.57,-972.5"/>
</g>
<!-- ID_11_ct1_st0&#45;&gt;ID_11_ct1_st0 -->
<g id="edge5" class="edge">
<title>ID_11_ct1_st0&#45;&gt;ID_11_ct1_st0</title>
<path fill="none" stroke="black" d="M191.81,-994.18C191.17,-1003.91 195.91,-1012 206,-1012 212.31,-1012 216.52,-1008.84 218.64,-1004.09"/>
<polygon fill="black" stroke="black" points="222.11,-1004.6 220.19,-994.18 215.19,-1003.51 222.11,-1004.6"/>
<text text-anchor="start" x="194" y="-1015.8" font-family="arial" font-size="14.00" fill="#377eb8">true</text>
</g>
<!-- ID_11_ct1_st01 -->
<g id="node4" class="node">
<title>ID_11_ct1_st01</title>
<polygon fill="none" stroke="black" points="444,-1410 331,-1410 331,-1360 444,-1360 444,-1410"/>
<text text-anchor="start" x="339" y="-1395.8" font-family="arial" font-weight="bold" font-size="14.00">ID_11_ct1_st01</text>
<text text-anchor="start" x="360" y="-1381.8" font-family="arial" font-size="14.00" fill="#984ea3">(P &amp;&amp; Q)</text>
<text text-anchor="start" x="375.5" y="-1367.8" font-family="arial" font-size="14.00" fill="#ff7f00">true</text>
</g>
<!-- ID_11_ct1_st0&#45;&gt;ID_11_ct1_st01 -->
<g id="edge6" class="edge">
<title>ID_11_ct1_st0&#45;&gt;ID_11_ct1_st01</title>
<path fill="none" stroke="black" d="M214.7,-994.25C227.35,-1034.87 254.04,-1116.94 283,-1184 309,-1244.21 345.16,-1311.46 367.13,-1350.9"/>
<polygon fill="black" stroke="black" points="364.19,-1352.82 372.13,-1359.84 370.3,-1349.4 364.19,-1352.82"/>
<text text-anchor="start" x="283" y="-1237.8" font-family="arial" font-size="14.00" fill="#377eb8">true</text>
</g>
<!-- ID_11_ct1_st012 -->
<g id="node6" class="node">
<title>ID_11_ct1_st012</title>
<polygon fill="none" stroke="black" points="631,-1732 510,-1732 510,-1682 631,-1682 631,-1732"/>
<text text-anchor="start" x="518" y="-1717.8" font-family="arial" font-weight="bold" font-size="14.00">ID_11_ct1_st012</text>
<text text-anchor="start" x="519" y="-1703.8" font-family="arial" font-size="14.00" fill="#984ea3">(P &amp;&amp; (!Q &amp;&amp; R))</text>
<text text-anchor="start" x="558.5" y="-1689.8" font-family="arial" font-size="14.00" fill="#ff7f00">true</text>
</g>
<!-- ID_11_ct1_st0&#45;&gt;ID_11_ct1_st012 -->
<g id="edge7" class="edge">
<title>ID_11_ct1_st0&#45;&gt;ID_11_ct1_st012</title>
<path fill="none" stroke="black" d="M207.71,-994.13C211.46,-1118.9 230.87,-1667.94 283,-1721 338.8,-1777.8 436.65,-1758.19 502.27,-1735.46"/>
<polygon fill="black" stroke="black" points="503.46,-1738.75 511.7,-1732.09 501.11,-1732.15 503.46,-1738.75"/>
<text text-anchor="start" x="375.5" y="-1761.8" font-family="arial" font-size="14.00" fill="#377eb8">true</text>
</g>
<!-- ID_11_ct1_st0123 -->
<g id="node8" class="node">
<title>ID_11_ct1_st0123</title>
<polygon fill="none" stroke="black" points="3314,-1521 3186,-1521 3186,-1471 3314,-1471 3314,-1521"/>
<text text-anchor="start" x="3194" y="-1506.8" font-family="arial" font-weight="bold" font-size="14.00">ID_11_ct1_st0123</text>
<text text-anchor="start" x="3196.5" y="-1492.8" font-family="arial" font-size="14.00" fill="#984ea3">(P &amp;&amp; (!Q &amp;&amp; !R))</text>
<text text-anchor="start" x="3238" y="-1478.8" font-family="arial" font-size="14.00" fill="#ff7f00">true</text>
</g>
<!-- ID_11_ct1_st0&#45;&gt;ID_11_ct1_st0123 -->
<g id="edge8" class="edge">
<title>ID_11_ct1_st0&#45;&gt;ID_11_ct1_st0123</title>
<path fill="none" stroke="black" d="M207.16,-994.21C208.36,-1147.9 217.73,-1954.98 283,-2041 312.53,-2079.92 337.65,-2078 386.5,-2078 386.5,-2078 386.5,-2078 1289,-2078 1393.5,-2078 3094.37,-2064.16 3168,-1990 3201.07,-1956.7 3168.56,-1611.57 3186,-1568 3191.77,-1553.59 3201.72,-1540.11 3212.03,-1528.8"/>
<polygon fill="black" stroke="black" points="3214.79,-1530.97 3219.18,-1521.33 3209.73,-1526.13 3214.79,-1530.97"/>
<text text-anchor="start" x="1423.5" y="-2080.8" font-family="arial" font-size="14.00" fill="#377eb8">true</text>
</g>
<!-- _ID_11_ct1_st01 -->
<!-- _ID_11_ct1_st01&#45;&gt;ID_11_ct1_st01 -->
<g id="edge2" class="edge">
<title>_ID_11_ct1_st01&#45;&gt;ID_11_ct1_st01</title>
<path fill="none" stroke="black" d="M211.53,-2084.89C235.27,-1989.91 345.58,-1548.7 377.7,-1420.2"/>
<polygon fill="black" stroke="black" points="381.19,-1420.67 380.22,-1410.12 374.4,-1418.97 381.19,-1420.67"/>
</g>
<!-- ID_11_ct1_st01&#45;&gt;ID_11_ct1_st0 -->
<g id="edge9" class="edge">
<title>ID_11_ct1_st01&#45;&gt;ID_11_ct1_st0</title>
<path fill="none" stroke="black" d="M378.55,-1359.86C365.25,-1318.58 336.98,-1234.11 307,-1165 281.84,-1107.01 247.43,-1042.09 226.23,-1003.44"/>
<polygon fill="black" stroke="black" points="229.03,-1001.27 221.14,-994.19 222.9,-1004.64 229.03,-1001.27"/>
<text text-anchor="start" x="287.5" y="-1168.8" font-family="arial" font-size="14.00" fill="#377eb8">Q&#39;</text>
</g>
<!-- ID_11_ct1_st01&#45;&gt;ID_11_ct1_st01 -->
<g id="edge12" class="edge">
<title>ID_11_ct1_st01&#45;&gt;ID_11_ct1_st01</title>
<path fill="none" stroke="black" d="M370.32,-1410.18C369.55,-1419.91 375.28,-1428 387.5,-1428 395.14,-1428 400.24,-1424.84 402.8,-1420.09"/>
<polygon fill="black" stroke="black" points="406.26,-1420.65 404.68,-1410.18 399.38,-1419.35 406.26,-1420.65"/>
<text text-anchor="start" x="375.5" y="-1431.8" font-family="arial" font-size="14.00" fill="#377eb8">true</text>
</g>
<!-- ID_11_ct1_st01&#45;&gt;ID_11_ct1_st012 -->
<g id="edge13" class="edge">
<title>ID_11_ct1_st01&#45;&gt;ID_11_ct1_st012</title>
<path fill="none" stroke="black" d="M400.56,-1410.15C415.74,-1441.53 442.89,-1496.71 468,-1543 485.67,-1575.56 490.6,-1583.44 510,-1615 521.96,-1634.46 535.79,-1655.9 547.1,-1673.19"/>
<polygon fill="black" stroke="black" points="544.35,-1675.38 552.77,-1681.82 550.21,-1671.54 544.35,-1675.38"/>
<text text-anchor="start" x="468" y="-1588.8" font-family="arial" font-size="14.00" fill="#377eb8">true</text>
</g>
<!-- ID_11_ct1_st01&#45;&gt;ID_11_ct1_st0123 -->
<g id="edge14" class="edge">
<title>ID_11_ct1_st01&#45;&gt;ID_11_ct1_st0123</title>
<path fill="none" stroke="black" d="M393.12,-1410.06C407.87,-1487.59 456.08,-1721.49 510,-1774 574.22,-1836.54 604.3,-1840.23 691,-1863 750.41,-1878.6 651.47,-1900 1866.5,-1900 1866.5,-1900 1866.5,-1900 2979,-1900 3067,-1900 3114.43,-1910.81 3168,-1841 3205.01,-1792.77 3162.75,-1624.18 3186,-1568 3191.99,-1553.53 3202.1,-1539.96 3212.5,-1528.58"/>
<polygon fill="black" stroke="black" points="3215.3,-1530.72 3219.69,-1521.07 3210.25,-1525.87 3215.3,-1530.72"/>
<text text-anchor="start" x="1567.5" y="-1902.8" font-family="arial" font-size="14.00" fill="#377eb8">true</text>
</g>
<!-- ID_11_ct1_st02 -->
<g id="node9" class="node">
<title>ID_11_ct1_st02</title>
<polygon fill="none" stroke="black" points="814,-1646 691,-1646 691,-1596 814,-1596 814,-1646"/>
<text text-anchor="start" x="704" y="-1631.8" font-family="arial" font-weight="bold" font-size="14.00">ID_11_ct1_st02</text>
<text text-anchor="start" x="699" y="-1617.8" font-family="arial" font-size="14.00" fill="#984ea3">(!P &amp;&amp; (!Q &amp;&amp; R))</text>
<text text-anchor="start" x="740.5" y="-1603.8" font-family="arial" font-size="14.00" fill="#ff7f00">true</text>
</g>
<!-- ID_11_ct1_st01&#45;&gt;ID_11_ct1_st02 -->
<g id="edge10" class="edge">
<title>ID_11_ct1_st01&#45;&gt;ID_11_ct1_st02</title>
<path fill="none" stroke="black" d="M406.62,-1410.21C421.5,-1429.66 443.98,-1456.3 468,-1475 468.31,-1475.24 610.98,-1548.68 693.78,-1591.3"/>
<polygon fill="black" stroke="black" points="692.34,-1594.49 702.83,-1595.95 695.54,-1588.27 692.34,-1594.49"/>
<text text-anchor="start" x="558.5" y="-1560.8" font-family="arial" font-size="14.00" fill="#377eb8">true</text>
</g>
<!-- ID_11_ct1_st023 -->
<g id="node10" class="node">
<title>ID_11_ct1_st023</title>
<polygon fill="none" stroke="black" points="1001,-1485 874,-1485 874,-1435 1001,-1435 1001,-1485"/>
<text text-anchor="start" x="885" y="-1470.8" font-family="arial" font-weight="bold" font-size="14.00">ID_11_ct1_st023</text>
<text text-anchor="start" x="882" y="-1456.8" font-family="arial" font-size="14.00" fill="#984ea3">(!P &amp;&amp; (!Q &amp;&amp; !R))</text>
<text text-anchor="start" x="925.5" y="-1442.8" font-family="arial" font-size="14.00" fill="#ff7f00">true</text>
</g>
<!-- ID_11_ct1_st01&#45;&gt;ID_11_ct1_st023 -->
<g id="edge11" class="edge">
<title>ID_11_ct1_st01&#45;&gt;ID_11_ct1_st023</title>
<path fill="none" stroke="black" d="M444.05,-1395.11C452.07,-1396.47 460.24,-1397.81 468,-1399 607.69,-1420.38 771.56,-1440.61 863.79,-1451.56"/>
<polygon fill="black" stroke="black" points="863.51,-1455.05 873.86,-1452.75 864.34,-1448.1 863.51,-1455.05"/>
<text text-anchor="start" x="649" y="-1430.8" font-family="arial" font-size="14.00" fill="#377eb8">true</text>
</g>
<!-- _ID_11_ct1_st012 -->
<!-- _ID_11_ct1_st012&#45;&gt;ID_11_ct1_st012 -->
<g id="edge3" class="edge">
<title>_ID_11_ct1_st012&#45;&gt;ID_11_ct1_st012</title>
<path fill="none" stroke="black" d="M450.21,-1943.73C465.39,-1938.25 480.56,-1930.36 492,-1919 540.86,-1870.48 559.16,-1788.69 565.83,-1742.16"/>
<polygon fill="black" stroke="black" points="569.3,-1742.61 567.15,-1732.24 562.36,-1741.69 569.3,-1742.61"/>
</g>
<!-- ID_11_ct1_st012&#45;&gt;ID_11_ct1_st0 -->
<g id="edge21" class="edge">
<title>ID_11_ct1_st012&#45;&gt;ID_11_ct1_st0</title>
<path fill="none" stroke="black" d="M509.93,-1714.73C443.99,-1719.6 339.55,-1715.65 283,-1653 239.11,-1604.37 214.64,-1137.07 208.53,-1004.12"/>
<polygon fill="black" stroke="black" points="212.02,-1003.9 208.07,-994.07 205.03,-1004.22 212.02,-1003.9"/>
<text text-anchor="start" x="380" y="-1718.8" font-family="arial" font-size="14.00" fill="#377eb8">Q&#39;</text>
</g>
<!-- ID_11_ct1_st012&#45;&gt;ID_11_ct1_st01 -->
<g id="edge24" class="edge">
<title>ID_11_ct1_st012&#45;&gt;ID_11_ct1_st01</title>
<path fill="none" stroke="black" d="M509.83,-1686.41C494.41,-1678.64 479.05,-1668.34 468,-1655 410.6,-1585.71 394.64,-1476.41 390.21,-1420.51"/>
<polygon fill="black" stroke="black" points="393.69,-1420.11 389.49,-1410.39 386.71,-1420.61 393.69,-1420.11"/>
<text text-anchor="start" x="468" y="-1678.8" font-family="arial" font-size="14.00" fill="#377eb8">true</text>
</g>
<!-- ID_11_ct1_st012&#45;&gt;ID_11_ct1_st012 -->
<g id="edge25" class="edge">
<title>ID_11_ct1_st012&#45;&gt;ID_11_ct1_st012</title>
<path fill="none" stroke="black" d="M553.69,-1732.18C552.94,-1741.91 558.55,-1750 570.5,-1750 577.97,-1750 582.96,-1746.84 585.47,-1742.09"/>
<polygon fill="black" stroke="black" points="588.93,-1742.65 587.31,-1732.18 582.04,-1741.37 588.93,-1742.65"/>
<text text-anchor="start" x="558.5" y="-1753.8" font-family="arial" font-size="14.00" fill="#377eb8">true</text>
</g>
<!-- ID_11_ct1_st012&#45;&gt;ID_11_ct1_st0123 -->
<g id="edge26" class="edge">
<title>ID_11_ct1_st012&#45;&gt;ID_11_ct1_st0123</title>
<path fill="none" stroke="black" d="M586.02,-1732.11C612.82,-1774.81 674.41,-1857 751.5,-1857 751.5,-1857 751.5,-1857 1580.5,-1857 1846.51,-1857 1912.99,-1862 2179,-1862 2179,-1862 2179,-1862 2979,-1862 3067.69,-1862 3115.09,-1869.17 3168,-1798 3198.59,-1756.86 3166.11,-1615.25 3186,-1568 3192.07,-1553.57 3202.21,-1540.01 3212.6,-1528.63"/>
<polygon fill="black" stroke="black" points="3215.41,-1530.76 3219.79,-1521.12 3210.35,-1525.92 3215.41,-1530.76"/>
<text text-anchor="start" x="1711.5" y="-1861.8" font-family="arial" font-size="14.00" fill="#377eb8">true</text>
</g>
<!-- ID_11_ct1_st012&#45;&gt;ID_11_ct1_st02 -->
<g id="edge22" class="edge">
<title>ID_11_ct1_st012&#45;&gt;ID_11_ct1_st02</title>
<path fill="none" stroke="black" d="M601.26,-1681.82C615.08,-1671.12 632.15,-1659.25 649,-1651 659.11,-1646.05 670.19,-1641.76 681.21,-1638.1"/>
<polygon fill="black" stroke="black" points="682.38,-1641.4 690.86,-1635.04 680.27,-1634.73 682.38,-1641.4"/>
<text text-anchor="start" x="649" y="-1654.8" font-family="arial" font-size="14.00" fill="#377eb8">true</text>
</g>
<!-- ID_11_ct1_st012&#45;&gt;ID_11_ct1_st023 -->
<g id="edge23" class="edge">
<title>ID_11_ct1_st012&#45;&gt;ID_11_ct1_st023</title>
<path fill="none" stroke="black" d="M631.14,-1717.36C683.59,-1723.19 759.8,-1723.36 814,-1688 882.45,-1643.35 915.47,-1547.06 928.85,-1495.05"/>
<polygon fill="black" stroke="black" points="932.27,-1495.81 931.27,-1485.26 925.47,-1494.13 932.27,-1495.81"/>
<text text-anchor="start" x="740.5" y="-1723.8" font-family="arial" font-size="14.00" fill="#377eb8">true</text>
</g>
<!-- _ID_11_ct1_st0123 -->
<!-- _ID_11_ct1_st0123&#45;&gt;ID_11_ct1_st0123 -->
<g id="edge4" class="edge">
<title>_ID_11_ct1_st0123&#45;&gt;ID_11_ct1_st0123</title>
<path fill="none" stroke="black" d="M3044.69,-1394.18C3082.34,-1397.58 3129.59,-1405.58 3168,-1424 3187.65,-1433.42 3206.1,-1449.06 3220.41,-1463.35"/>
<polygon fill="black" stroke="black" points="3218.03,-1465.92 3227.5,-1470.66 3223.05,-1461.05 3218.03,-1465.92"/>
</g>
<!-- ID_11_ct1_st0123&#45;&gt;ID_11_ct1_st0 -->
<g id="edge35" class="edge">
<title>ID_11_ct1_st0123&#45;&gt;ID_11_ct1_st0</title>
<path fill="none" stroke="black" d="M3219.57,-1521.03C3206.85,-1533.68 3193.23,-1550.14 3186,-1568 3171.22,-1604.5 3192.43,-1891.11 3168,-1922 3078.15,-2035.63 2013.36,-2027 1868.5,-2027 386.5,-2027 386.5,-2027 386.5,-2027 252.16,-2027 301.16,-1876.11 283,-1743 244.28,-1459.13 217.54,-1114.1 209.51,-1004.31"/>
<polygon fill="black" stroke="black" points="212.99,-1003.86 208.78,-994.14 206.01,-1004.37 212.99,-1003.86"/>
<text text-anchor="start" x="1428" y="-2030.8" font-family="arial" font-size="14.00" fill="#377eb8">Q&#39;</text>
</g>
<!-- ID_11_ct1_st0123&#45;&gt;ID_11_ct1_st01 -->
<g id="edge39" class="edge">
<title>ID_11_ct1_st0123&#45;&gt;ID_11_ct1_st01</title>
<path fill="none" stroke="black" d="M3219.62,-1521.05C3206.91,-1533.71 3193.29,-1550.17 3186,-1568 3159.55,-1632.7 3211.04,-1826.93 3168,-1882 3114.05,-1951.03 3066.61,-1938 2979,-1938 1866.5,-1938 1866.5,-1938 1866.5,-1938 1484.41,-1938 757.5,-2044.68 510,-1824 478.25,-1795.69 482.1,-1778.13 468,-1738 428.35,-1625.15 403.7,-1484.9 393.67,-1420.43"/>
<polygon fill="black" stroke="black" points="397.11,-1419.74 392.14,-1410.38 390.19,-1420.8 397.11,-1419.74"/>
<text text-anchor="start" x="1567.5" y="-1953.8" font-family="arial" font-size="14.00" fill="#377eb8">true</text>
</g>
<!-- ID_11_ct1_st0123&#45;&gt;ID_11_ct1_st0123 -->
<g id="edge42" class="edge">
<title>ID_11_ct1_st0123&#45;&gt;ID_11_ct1_st0123</title>
<path fill="none" stroke="black" d="M3231.32,-1521.18C3230.49,-1530.91 3236.72,-1539 3250,-1539 3258.3,-1539 3263.85,-1535.84 3266.63,-1531.09"/>
<polygon fill="black" stroke="black" points="3270.09,-1531.68 3268.68,-1521.18 3263.23,-1530.26 3270.09,-1531.68"/>
<text text-anchor="start" x="3238" y="-1542.8" font-family="arial" font-size="14.00" fill="#377eb8">true</text>
</g>
<!-- ID_11_ct1_st0123&#45;&gt;ID_11_ct1_st023 -->
<g id="edge38" class="edge">
<title>ID_11_ct1_st0123&#45;&gt;ID_11_ct1_st023</title>
<path fill="none" stroke="black" d="M3221.02,-1521.2C3208.45,-1534.01 3194.56,-1550.55 3186,-1568 3167.65,-1605.41 3195.69,-1628.87 3168,-1660 3085.6,-1752.64 3014.98,-1693.69 2891,-1693 2548.94,-1691.1 1689.35,-1720.58 1352,-1664 1342.43,-1662.39 1027.04,-1563.45 1019,-1558 994.33,-1541.28 973.24,-1514.85 958.85,-1493.64"/>
<polygon fill="black" stroke="black" points="961.72,-1491.63 953.29,-1485.22 955.87,-1495.49 961.72,-1491.63"/>
<text text-anchor="start" x="2001" y="-1701.8" font-family="arial" font-size="14.00" fill="#377eb8">true</text>
</g>
<!-- ID_11_ct1_st0245 -->
<g id="node11" class="node">
<title>ID_11_ct1_st0245</title>
<polygon fill="none" stroke="black" points="3558,-893 3388,-893 3388,-843 3558,-843 3558,-893"/>
<text text-anchor="start" x="3417" y="-878.8" font-family="arial" font-weight="bold" font-size="14.00">ID_11_ct1_st0245</text>
<text text-anchor="start" x="3396" y="-864.8" font-family="arial" font-size="14.00" fill="#984ea3">(!P &amp;&amp; (!Q &amp;&amp; (R &amp;&amp; !S)))</text>
<text text-anchor="start" x="3461" y="-850.8" font-family="arial" font-size="14.00" fill="#ff7f00">true</text>
</g>
<!-- ID_11_ct1_st0123&#45;&gt;ID_11_ct1_st0245 -->
<g id="edge36" class="edge">
<title>ID_11_ct1_st0123&#45;&gt;ID_11_ct1_st0245</title>
<path fill="none" stroke="black" d="M3269.73,-1470.73C3296.56,-1433.16 3345.4,-1359.44 3370,-1289 3387.63,-1238.5 3376.81,-1222.31 3388,-1170 3408.95,-1072.06 3443.19,-958.85 3460.79,-902.95"/>
<polygon fill="black" stroke="black" points="3464.19,-903.79 3463.87,-893.2 3457.52,-901.68 3464.19,-903.79"/>
<text text-anchor="start" x="3339" y="-1375.8" font-family="arial" font-size="14.00" fill="#377eb8">true</text>
</g>
<!-- ID_11_ct1_st02456 -->
<g id="node12" class="node">
<title>ID_11_ct1_st02456</title>
<polygon fill="none" stroke="black" points="4043,-1262 3876,-1262 3876,-1212 4043,-1212 4043,-1262"/>
<text text-anchor="start" x="3899.5" y="-1247.8" font-family="arial" font-weight="bold" font-size="14.00">ID_11_ct1_st02456</text>
<text text-anchor="start" x="3884" y="-1233.8" font-family="arial" font-size="14.00" fill="#984ea3">(!P &amp;&amp; (!Q &amp;&amp; (R &amp;&amp; S)))</text>
<text text-anchor="start" x="3947.5" y="-1219.8" font-family="arial" font-size="14.00" fill="#ff7f00">true</text>
</g>
<!-- ID_11_ct1_st0123&#45;&gt;ID_11_ct1_st02456 -->
<g id="edge37" class="edge">
<title>ID_11_ct1_st0123&#45;&gt;ID_11_ct1_st02456</title>
<path fill="none" stroke="black" d="M3314.15,-1486.91C3428.26,-1468.58 3674.04,-1420.27 3858,-1322 3883.57,-1308.34 3908.48,-1287.34 3927.11,-1269.63"/>
<polygon fill="black" stroke="black" points="3929.95,-1271.75 3934.69,-1262.28 3925.07,-1266.73 3929.95,-1271.75"/>
<text text-anchor="start" x="3583" y="-1431.8" font-family="arial" font-size="14.00" fill="#377eb8">true</text>
</g>
<!-- ID_11_ct1_st01245 -->
<g id="node13" class="node">
<title>ID_11_ct1_st01245</title>
<polygon fill="none" stroke="black" points="2429,-1013 2262,-1013 2262,-963 2429,-963 2429,-1013"/>
<text text-anchor="start" x="2285.5" y="-998.8" font-family="arial" font-weight="bold" font-size="14.00">ID_11_ct1_st01245</text>
<text text-anchor="start" x="2270" y="-984.8" font-family="arial" font-size="14.00" fill="#984ea3">(P &amp;&amp; (!Q &amp;&amp; (R &amp;&amp; !S)))</text>
<text text-anchor="start" x="2333.5" y="-970.8" font-family="arial" font-size="14.00" fill="#ff7f00">true</text>
</g>
<!-- ID_11_ct1_st0123&#45;&gt;ID_11_ct1_st01245 -->
<g id="edge40" class="edge">
<title>ID_11_ct1_st0123&#45;&gt;ID_11_ct1_st01245</title>
<path fill="none" stroke="black" d="M3194.31,-1470.94C3185.63,-1467.58 3176.66,-1464.45 3168,-1462 3166.44,-1461.56 2824.97,-1426.42 2745,-1381 2575.37,-1284.66 2426.72,-1097.72 2370.46,-1021.54"/>
<polygon fill="black" stroke="black" points="2373.11,-1019.23 2364.37,-1013.24 2367.46,-1023.37 2373.11,-1019.23"/>
<text text-anchor="start" x="2797" y="-1421.8" font-family="arial" font-size="14.00" fill="#377eb8">true</text>
</g>
<!-- ID_11_ct1_st012456 -->
<g id="node14" class="node">
<title>ID_11_ct1_st012456</title>
<polygon fill="none" stroke="black" points="1224,-713 1061,-713 1061,-663 1224,-663 1224,-713"/>
<text text-anchor="start" x="1079" y="-698.8" font-family="arial" font-weight="bold" font-size="14.00">ID_11_ct1_st012456</text>
<text text-anchor="start" x="1069" y="-684.8" font-family="arial" font-size="14.00" fill="#984ea3">(P &amp;&amp; (!Q &amp;&amp; (R &amp;&amp; S)))</text>
<text text-anchor="start" x="1130.5" y="-670.8" font-family="arial" font-size="14.00" fill="#ff7f00">true</text>
</g>
<!-- ID_11_ct1_st0123&#45;&gt;ID_11_ct1_st012456 -->
<g id="edge41" class="edge">
<title>ID_11_ct1_st0123&#45;&gt;ID_11_ct1_st012456</title>
<path fill="none" stroke="black" d="M3185.89,-1509.19C3179.86,-1510.23 3173.82,-1511.19 3168,-1512 2871.99,-1553.12 2116.16,-1649.36 1825,-1582 1807.44,-1577.94 1252.27,-1311.82 1242,-1297 1218.22,-1262.69 1229.92,-1151.33 1224,-1110 1203.29,-965.39 1167.15,-795.03 1151.31,-722.98"/>
<polygon fill="black" stroke="black" points="1154.7,-722.08 1149.13,-713.07 1147.86,-723.59 1154.7,-722.08"/>
<text text-anchor="start" x="2168" y="-1608.8" font-family="arial" font-size="14.00" fill="#377eb8">true</text>
</g>
<!-- ID_11_ct1_st02&#45;&gt;ID_11_ct1_st0 -->
<g id="edge15" class="edge">
<title>ID_11_ct1_st02&#45;&gt;ID_11_ct1_st0</title>
<path fill="none" stroke="black" d="M690.7,-1623.83C570.63,-1628.8 312.12,-1636.16 283,-1609 238.38,-1567.39 214.62,-1132.08 208.57,-1004.16"/>
<polygon fill="black" stroke="black" points="212.06,-1003.94 208.1,-994.12 205.07,-1004.27 212.06,-1003.94"/>
<text text-anchor="start" x="472.5" y="-1631.8" font-family="arial" font-size="14.00" fill="#377eb8">Q&#39;</text>
</g>
<!-- ID_11_ct1_st02&#45;&gt;ID_11_ct1_st01 -->
<g id="edge18" class="edge">
<title>ID_11_ct1_st02&#45;&gt;ID_11_ct1_st01</title>
<path fill="none" stroke="black" d="M690.77,-1611.73C624.21,-1601.16 524.85,-1584.07 510,-1574 510,-1574 445.11,-1473.06 410.17,-1418.72"/>
<polygon fill="black" stroke="black" points="412.99,-1416.62 404.63,-1410.1 407.1,-1420.4 412.99,-1416.62"/>
<text text-anchor="start" x="558.5" y="-1604.8" font-family="arial" font-size="14.00" fill="#377eb8">true</text>
</g>
<!-- ID_11_ct1_st02&#45;&gt;ID_11_ct1_st012 -->
<g id="edge19" class="edge">
<title>ID_11_ct1_st02&#45;&gt;ID_11_ct1_st012</title>
<path fill="none" stroke="black" d="M714.87,-1646.07C701.97,-1654.3 687.15,-1663.1 673,-1670 662.76,-1674.99 651.68,-1679.7 640.71,-1683.97"/>
<polygon fill="black" stroke="black" points="639.24,-1680.79 631.14,-1687.61 641.73,-1687.33 639.24,-1680.79"/>
<text text-anchor="start" x="649" y="-1682.8" font-family="arial" font-size="14.00" fill="#377eb8">true</text>
</g>
<!-- ID_11_ct1_st02&#45;&gt;ID_11_ct1_st0123 -->
<g id="edge20" class="edge">
<title>ID_11_ct1_st02&#45;&gt;ID_11_ct1_st0123</title>
<path fill="none" stroke="black" d="M777.75,-1646.23C827.42,-1697.91 936.15,-1811 936.5,-1811 936.5,-1811 936.5,-1811 1580.5,-1811 1846.56,-1811 1912.94,-1824 2179,-1824 2179,-1824 2179,-1824 2979,-1824 3068.73,-1824 3113.39,-1824.2 3168,-1753 3193.14,-1720.22 3169.61,-1605.92 3186,-1568 3192.21,-1553.63 3202.39,-1540.08 3212.77,-1528.7"/>
<polygon fill="black" stroke="black" points="3215.57,-1530.83 3219.94,-1521.18 3210.51,-1526 3215.57,-1530.83"/>
<text text-anchor="start" x="1855.5" y="-1821.8" font-family="arial" font-size="14.00" fill="#377eb8">true</text>
</g>
<!-- ID_11_ct1_st02&#45;&gt;ID_11_ct1_st02 -->
<g id="edge16" class="edge">
<title>ID_11_ct1_st02&#45;&gt;ID_11_ct1_st02</title>
<path fill="none" stroke="black" d="M735.69,-1646.18C734.94,-1655.91 740.55,-1664 752.5,-1664 759.97,-1664 764.96,-1660.84 767.47,-1656.09"/>
<polygon fill="black" stroke="black" points="770.93,-1656.65 769.31,-1646.18 764.04,-1655.37 770.93,-1656.65"/>
<text text-anchor="start" x="740.5" y="-1667.8" font-family="arial" font-size="14.00" fill="#377eb8">true</text>
</g>
<!-- ID_11_ct1_st02&#45;&gt;ID_11_ct1_st023 -->
<g id="edge17" class="edge">
<title>ID_11_ct1_st02&#45;&gt;ID_11_ct1_st023</title>
<path fill="none" stroke="black" d="M782.09,-1595.84C813.96,-1567.81 865.56,-1522.41 900.24,-1491.9"/>
<polygon fill="black" stroke="black" points="902.61,-1494.48 907.81,-1485.24 897.99,-1489.22 902.61,-1494.48"/>
<text text-anchor="start" x="832" y="-1553.8" font-family="arial" font-size="14.00" fill="#377eb8">true</text>
</g>
<!-- ID_11_ct1_st023&#45;&gt;ID_11_ct1_st0 -->
<g id="edge27" class="edge">
<title>ID_11_ct1_st023&#45;&gt;ID_11_ct1_st0</title>
<path fill="none" stroke="black" d="M898.96,-1434.73C776.13,-1352.06 386.42,-1089.76 252.62,-999.7"/>
<polygon fill="black" stroke="black" points="254.43,-996.7 244.18,-994.02 250.52,-1002.51 254.43,-996.7"/>
<text text-anchor="start" x="563" y="-1256.8" font-family="arial" font-size="14.00" fill="#377eb8">Q&#39;</text>
</g>
<!-- ID_11_ct1_st023&#45;&gt;ID_11_ct1_st01 -->
<g id="edge31" class="edge">
<title>ID_11_ct1_st023&#45;&gt;ID_11_ct1_st01</title>
<path fill="none" stroke="black" d="M873.92,-1441.03C854.8,-1435.68 833.65,-1430.17 814,-1426 688.56,-1399.36 538.61,-1390 454.38,-1386.73"/>
<polygon fill="black" stroke="black" points="454.31,-1383.23 444.19,-1386.36 454.05,-1390.22 454.31,-1383.23"/>
<text text-anchor="start" x="649" y="-1406.8" font-family="arial" font-size="14.00" fill="#377eb8">true</text>
</g>
<!-- ID_11_ct1_st023&#45;&gt;ID_11_ct1_st0123 -->
<g id="edge34" class="edge">
<title>ID_11_ct1_st023&#45;&gt;ID_11_ct1_st0123</title>
<path fill="none" stroke="black" d="M947.65,-1485.08C959.75,-1515.12 983.76,-1565.24 1019,-1596 1136.11,-1698.23 1196.93,-1692.07 1352,-1703 1452.65,-1710.09 3092.84,-1798.32 3168,-1731 3195.15,-1706.69 3171.33,-1601.36 3186,-1568 3192.3,-1553.67 3202.5,-1540.13 3212.88,-1528.75"/>
<polygon fill="black" stroke="black" points="3215.68,-1530.88 3220.04,-1521.22 3210.61,-1526.05 3215.68,-1530.88"/>
<text text-anchor="start" x="2001" y="-1741.8" font-family="arial" font-size="14.00" fill="#377eb8">true</text>
</g>
<!-- ID_11_ct1_st023&#45;&gt;ID_11_ct1_st023 -->
<g id="edge30" class="edge">
<title>ID_11_ct1_st023&#45;&gt;ID_11_ct1_st023</title>
<path fill="none" stroke="black" d="M920.32,-1485.18C919.55,-1494.91 925.28,-1503 937.5,-1503 945.14,-1503 950.24,-1499.84 952.8,-1495.09"/>
<polygon fill="black" stroke="black" points="956.26,-1495.65 954.68,-1485.18 949.38,-1494.35 956.26,-1495.65"/>
<text text-anchor="start" x="925.5" y="-1506.8" font-family="arial" font-size="14.00" fill="#377eb8">true</text>
</g>
<!-- ID_11_ct1_st023&#45;&gt;ID_11_ct1_st0245 -->
<g id="edge28" class="edge">
<title>ID_11_ct1_st023&#45;&gt;ID_11_ct1_st0245</title>
<path fill="none" stroke="black" d="M1001.07,-1482.76C1007.09,-1484.65 1013.14,-1486.43 1019,-1488 1037.36,-1492.91 1042.25,-1492.89 1061,-1496 1317.39,-1538.55 1380.74,-1559.73 1640,-1578 2040.03,-1606.19 2141.31,-1552.56 2539,-1501 2688.89,-1481.57 2765.61,-1543.36 2873,-1437 2896.44,-1413.79 2869.15,-1389.71 2891,-1365 2945.9,-1302.92 2989.64,-1332.47 3065,-1298 3225.94,-1224.38 3261.63,-1181.91 3370,-1042 3404.94,-996.89 3436.72,-938.72 3455.21,-902.38"/>
<polygon fill="black" stroke="black" points="3458.47,-903.69 3459.85,-893.19 3452.22,-900.54 3458.47,-903.69"/>
<text text-anchor="start" x="2168" y="-1568.8" font-family="arial" font-size="14.00" fill="#377eb8">true</text>
</g>
<!-- ID_11_ct1_st023&#45;&gt;ID_11_ct1_st02456 -->
<g id="edge29" class="edge">
<title>ID_11_ct1_st023&#45;&gt;ID_11_ct1_st02456</title>
<path fill="none" stroke="black" d="M949.32,-1485.39C971.98,-1537.25 1025.25,-1652.36 1061,-1675 1130.37,-1718.93 1160.71,-1700.41 1242,-1712 1290.56,-1718.92 1303.07,-1717.47 1352,-1721 1382.08,-1723.17 2538.89,-1794.97 2539,-1795 2815.19,-1861.96 2840.31,-2052 3124.5,-2052 3124.5,-2052 3124.5,-2052 3718,-2052 3883.12,-2052 3943.36,-1428.82 3955.89,-1272.32"/>
<polygon fill="black" stroke="black" points="3959.38,-1272.53 3956.68,-1262.29 3952.4,-1271.98 3959.38,-1272.53"/>
<text text-anchor="start" x="2481" y="-1798.8" font-family="arial" font-size="14.00" fill="#377eb8">true</text>
</g>
<!-- ID_11_ct1_st023&#45;&gt;ID_11_ct1_st01245 -->
<g id="edge32" class="edge">
<title>ID_11_ct1_st023&#45;&gt;ID_11_ct1_st01245</title>
<path fill="none" stroke="black" d="M961.3,-1434.76C976.34,-1419.52 997.21,-1400.82 1019,-1389 1221.75,-1279.04 1312.95,-1353.65 1519,-1250 1528.05,-1245.45 1527.91,-1240.47 1537,-1236 1572.02,-1218.78 1592.9,-1240 1622,-1214 1638.68,-1199.1 1622.35,-1180.74 1640,-1167 1680.44,-1135.53 2047.33,-1120.66 2098,-1113 2163.25,-1103.13 2191.04,-1125.37 2244,-1086 2258.04,-1075.56 2250.77,-1064.41 2262,-1051 2271.77,-1039.32 2284.08,-1028.49 2296.19,-1019.22"/>
<polygon fill="black" stroke="black" points="2298.55,-1021.82 2304.51,-1013.05 2294.39,-1016.2 2298.55,-1021.82"/>
<text text-anchor="start" x="1567.5" y="-1239.8" font-family="arial" font-size="14.00" fill="#377eb8">true</text>
</g>
<!-- ID_11_ct1_st023&#45;&gt;ID_11_ct1_st012456 -->
<g id="edge33" class="edge">
<title>ID_11_ct1_st023&#45;&gt;ID_11_ct1_st012456</title>
<path fill="none" stroke="black" d="M945.14,-1434.75C975.08,-1320.9 1097.57,-855.07 1132.29,-723.03"/>
<polygon fill="black" stroke="black" points="1135.75,-723.62 1134.91,-713.05 1128.98,-721.84 1135.75,-723.62"/>
<text text-anchor="start" x="1019" y="-1146.8" font-family="arial" font-size="14.00" fill="#377eb8">true</text>
</g>
<!-- ID_11_ct1_st0245&#45;&gt;ID_11_ct1_st0 -->
<g id="edge71" class="edge">
<title>ID_11_ct1_st0245&#45;&gt;ID_11_ct1_st0</title>
<path fill="none" stroke="black" d="M3468.34,-842.75C3457.14,-773.4 3417.56,-577.1 3314,-456 3306.69,-447.46 3094.99,-324.77 3065,-315 2986.25,-289.35 1663.32,-178 1580.5,-178 386.5,-178 386.5,-178 386.5,-178 229.39,-178 209.79,-778.99 207.35,-933.26"/>
<polygon fill="black" stroke="black" points="203.84,-933.53 207.2,-943.58 210.84,-933.63 203.84,-933.53"/>
<text text-anchor="start" x="1572" y="-181.8" font-family="arial" font-size="14.00" fill="#377eb8">Q&#39;</text>
</g>
<!-- ID_11_ct1_st0245&#45;&gt;ID_11_ct1_st01 -->
<g id="edge76" class="edge">
<title>ID_11_ct1_st0245&#45;&gt;ID_11_ct1_st01</title>
<path fill="none" stroke="black" d="M3459.71,-842.83C3417.61,-759.47 3270.44,-490.55 3065,-363 2990.18,-316.55 2959.74,-329.26 2873,-314 2726.09,-288.15 2687.91,-289.76 2539,-281 1723.41,-233 1246.31,-254.04 1242,-258 1206.87,-290.3 1252.71,-433.88 1224,-472 1177.36,-533.91 1123.21,-487.76 1061,-534 951.63,-615.29 955.17,-667.54 874,-777 846.67,-813.85 848.53,-830.79 814,-861 682.6,-975.96 571.2,-906.18 468,-1047 399.65,-1140.27 389.09,-1283.54 388.1,-1349.51"/>
<polygon fill="black" stroke="black" points="384.59,-1349.76 388.01,-1359.78 391.59,-1349.81 384.59,-1349.76"/>
<text text-anchor="start" x="1711.5" y="-256.8" font-family="arial" font-size="14.00" fill="#377eb8">true</text>
</g>
<!-- ID_11_ct1_st0245&#45;&gt;ID_11_ct1_st0245 -->
<g id="edge72" class="edge">
<title>ID_11_ct1_st0245&#45;&gt;ID_11_ct1_st0245</title>
<path fill="none" stroke="black" d="M3450.21,-893.18C3449.2,-902.91 3456.8,-911 3473,-911 3483.13,-911 3489.89,-907.84 3493.29,-903.09"/>
<polygon fill="black" stroke="black" points="3496.74,-903.73 3495.79,-893.18 3489.95,-902.02 3496.74,-903.73"/>
<text text-anchor="start" x="3461" y="-914.8" font-family="arial" font-size="14.00" fill="#377eb8">true</text>
</g>
<!-- ID_11_ct1_st0245&#45;&gt;ID_11_ct1_st02456 -->
<g id="edge73" class="edge">
<title>ID_11_ct1_st0245&#45;&gt;ID_11_ct1_st02456</title>
<path fill="none" stroke="black" d="M3506.92,-893.07C3592.72,-958.42 3823.06,-1133.85 3917.37,-1205.68"/>
<polygon fill="black" stroke="black" points="3915.46,-1208.62 3925.53,-1211.89 3919.7,-1203.05 3915.46,-1208.62"/>
<text text-anchor="start" x="3705" y="-1115.8" font-family="arial" font-size="14.00" fill="#377eb8">true</text>
</g>
<!-- ID_11_ct1_st0245&#45;&gt;ID_11_ct1_st01245 -->
<g id="edge77" class="edge">
<title>ID_11_ct1_st0245&#45;&gt;ID_11_ct1_st01245</title>
<path fill="none" stroke="black" d="M3387.82,-870.16C3330.84,-871.74 3253.87,-874.11 3186,-877 2855.94,-891.04 2769.24,-884.17 2447,-957 2442.57,-958 2438.06,-959.1 2433.51,-960.27"/>
<polygon fill="black" stroke="black" points="2432.3,-956.97 2423.54,-962.92 2434.11,-963.73 2432.3,-956.97"/>
<text text-anchor="start" x="2966" y="-893.8" font-family="arial" font-size="14.00" fill="#377eb8">true</text>
</g>
<!-- ID_11_ct1_st0245&#45;&gt;ID_11_ct1_st012456 -->
<g id="edge78" class="edge">
<title>ID_11_ct1_st0245&#45;&gt;ID_11_ct1_st012456</title>
<path fill="none" stroke="black" d="M3450.51,-842.94C3421.88,-810.67 3368.45,-754.33 3314,-717 3313.85,-716.9 2921.89,-528.87 2873,-514 2348.45,-354.4 2185.59,-499.66 1640,-554 1461.2,-571.81 1404.99,-549.38 1242,-625 1222.87,-633.88 1203.04,-645.92 1186.24,-657.11"/>
<polygon fill="black" stroke="black" points="1184.07,-654.35 1177.74,-662.85 1187.99,-660.15 1184.07,-654.35"/>
<text text-anchor="start" x="2333.5" y="-457.8" font-family="arial" font-size="14.00" fill="#377eb8">true</text>
</g>
<!-- ID_11_ct1_st0235 -->
<g id="node15" class="node">
<title>ID_11_ct1_st0235</title>
<polygon fill="none" stroke="black" points="3065,-1016 2891,-1016 2891,-966 3065,-966 3065,-1016"/>
<text text-anchor="start" x="2922" y="-1001.8" font-family="arial" font-weight="bold" font-size="14.00">ID_11_ct1_st0235</text>
<text text-anchor="start" x="2899" y="-987.8" font-family="arial" font-size="14.00" fill="#984ea3">(!P &amp;&amp; (!Q &amp;&amp; (!R &amp;&amp; !S)))</text>
<text text-anchor="start" x="2955" y="-973.8" font-family="arial" font-size="14.00" fill="#ff7f00">c0 &lt;= 5</text>
</g>
<!-- ID_11_ct1_st0245&#45;&gt;ID_11_ct1_st0235 -->
<g id="edge74" class="edge">
<title>ID_11_ct1_st0245&#45;&gt;ID_11_ct1_st0235</title>
<path fill="none" stroke="black" d="M3397.92,-893.06C3388.57,-895.9 3379.09,-898.62 3370,-901 3289.3,-922.1 3267.32,-919.43 3186,-938 3149.55,-946.32 3109.72,-956.31 3074.82,-965.35"/>
<polygon fill="black" stroke="black" points="3073.91,-961.97 3065.12,-967.88 3075.68,-968.75 3073.91,-961.97"/>
<text text-anchor="start" x="3238" y="-956.8" font-family="arial" font-size="14.00" fill="#377eb8">true</text>
<text text-anchor="start" x="3231" y="-941.8" font-family="arial" font-size="14.00">c0 :=0</text>
</g>
<!-- ID_11_ct1_st02356 -->
<g id="node17" class="node">
<title>ID_11_ct1_st02356</title>
<polygon fill="none" stroke="black" points="3802,-639 3632,-639 3632,-589 3802,-589 3802,-639"/>
<text text-anchor="start" x="3657" y="-624.8" font-family="arial" font-weight="bold" font-size="14.00">ID_11_ct1_st02356</text>
<text text-anchor="start" x="3640" y="-610.8" font-family="arial" font-size="14.00" fill="#984ea3">(!P &amp;&amp; (!Q &amp;&amp; (!R &amp;&amp; S)))</text>
<text text-anchor="start" x="3694" y="-596.8" font-family="arial" font-size="14.00" fill="#ff7f00">c0 &lt;= 5</text>
</g>
<!-- ID_11_ct1_st0245&#45;&gt;ID_11_ct1_st02356 -->
<g id="edge75" class="edge">
<title>ID_11_ct1_st0245&#45;&gt;ID_11_ct1_st02356</title>
<path fill="none" stroke="black" d="M3498.09,-842.72C3542.21,-796.41 3635.94,-698.02 3684.85,-646.7"/>
<polygon fill="black" stroke="black" points="3687.64,-648.84 3692.01,-639.18 3682.58,-644.01 3687.64,-648.84"/>
<text text-anchor="start" x="3583" y="-775.8" font-family="arial" font-size="14.00" fill="#377eb8">true</text>
<text text-anchor="start" x="3576" y="-760.8" font-family="arial" font-size="14.00">c0 :=0</text>
</g>
<!-- ID_11_ct1_st01235 -->
<g id="node19" class="node">
<title>ID_11_ct1_st01235</title>
<polygon fill="none" stroke="black" points="2727,-1038 2557,-1038 2557,-988 2727,-988 2727,-1038"/>
<text text-anchor="start" x="2582" y="-1023.8" font-family="arial" font-weight="bold" font-size="14.00">ID_11_ct1_st01235</text>
<text text-anchor="start" x="2565" y="-1009.8" font-family="arial" font-size="14.00" fill="#984ea3">(P &amp;&amp; (!Q &amp;&amp; (!R &amp;&amp; !S)))</text>
<text text-anchor="start" x="2619" y="-995.8" font-family="arial" font-size="14.00" fill="#ff7f00">c0 &lt;= 5</text>
</g>
<!-- ID_11_ct1_st0245&#45;&gt;ID_11_ct1_st01235 -->
<g id="edge79" class="edge">
<title>ID_11_ct1_st0245&#45;&gt;ID_11_ct1_st01235</title>
<path fill="none" stroke="black" d="M3387.81,-874.03C3308.8,-880.31 3187.45,-891.55 3083,-908 2931.28,-931.89 2893.38,-940.31 2745,-980 2739.24,-981.54 2733.33,-983.21 2727.38,-984.96"/>
<polygon fill="black" stroke="black" points="2725.96,-981.73 2717.38,-987.96 2727.97,-988.44 2725.96,-981.73"/>
<text text-anchor="start" x="3113.5" y="-926.8" font-family="arial" font-size="14.00" fill="#377eb8">true</text>
<text text-anchor="start" x="3106.5" y="-911.8" font-family="arial" font-size="14.00">c0 :=0</text>
</g>
<!-- ID_11_ct1_st012356 -->
<g id="node20" class="node">
<title>ID_11_ct1_st012356</title>
<polygon fill="none" stroke="black" points="1519,-796 1352,-796 1352,-746 1519,-746 1519,-796"/>
<text text-anchor="start" x="1372" y="-781.8" font-family="arial" font-weight="bold" font-size="14.00">ID_11_ct1_st012356</text>
<text text-anchor="start" x="1360" y="-767.8" font-family="arial" font-size="14.00" fill="#984ea3">(P &amp;&amp; (!Q &amp;&amp; (!R &amp;&amp; S)))</text>
<text text-anchor="start" x="1412.5" y="-753.8" font-family="arial" font-size="14.00" fill="#ff7f00">c0 &lt;= 5</text>
</g>
<!-- ID_11_ct1_st0245&#45;&gt;ID_11_ct1_st012356 -->
<g id="edge80" class="edge">
<title>ID_11_ct1_st0245&#45;&gt;ID_11_ct1_st012356</title>
<path fill="none" stroke="black" d="M3419.44,-842.77C3284.16,-778.06 2930.5,-610.36 2873,-598 2603.68,-540.11 1912.98,-689 1640,-726 1594.09,-732.22 1582.24,-732 1537,-742 1534.35,-742.59 1531.66,-743.2 1528.96,-743.84"/>
<polygon fill="black" stroke="black" points="1527.98,-740.48 1519.1,-746.27 1529.65,-747.28 1527.98,-740.48"/>
<text text-anchor="start" x="2481" y="-620.8" font-family="arial" font-size="14.00" fill="#377eb8">true</text>
<text text-anchor="start" x="2474" y="-605.8" font-family="arial" font-size="14.00">c0 :=0</text>
</g>
<!-- ID_11_ct1_st02456&#45;&gt;ID_11_ct1_st0 -->
<g id="edge127" class="edge">
<title>ID_11_ct1_st02456&#45;&gt;ID_11_ct1_st0</title>
<path fill="none" stroke="black" d="M3957.66,-1211.91C3952.17,-1052.47 3919.56,-184.06 3858,-85 3819.58,-23.17 3790.79,0 3718,0 386.5,0 386.5,0 386.5,0 318.07,0 303.77,-48.79 283,-114 233.08,-270.72 212.74,-792.91 208.09,-933.74"/>
<polygon fill="black" stroke="black" points="204.58,-933.85 207.75,-943.96 211.58,-934.08 204.58,-933.85"/>
<text text-anchor="start" x="1860" y="-3.8" font-family="arial" font-size="14.00" fill="#377eb8">Q&#39;</text>
</g>
<!-- ID_11_ct1_st02456&#45;&gt;ID_11_ct1_st01 -->
<g id="edge130" class="edge">
<title>ID_11_ct1_st02456&#45;&gt;ID_11_ct1_st01</title>
<path fill="none" stroke="black" d="M3957,-1262.19C3951.14,-1353.21 3926.58,-1673.11 3858,-1927 3840.63,-1991.3 3851.49,-2021.43 3802,-2066 3773.15,-2091.98 3756.83,-2090 3718,-2090 3124.5,-2090 3124.5,-2090 3124.5,-2090 2307.29,-2090 2106.21,-1981 1289,-1981 569.5,-1981 569.5,-1981 569.5,-1981 514.7,-1981 535.04,-1921.75 510,-1873 490.2,-1834.45 481.19,-1826.28 468,-1785 453.86,-1740.73 458.71,-1727.65 450,-1682 431.91,-1587.25 408.22,-1476.02 396.21,-1420.41"/>
<polygon fill="black" stroke="black" points="399.57,-1419.41 394.03,-1410.37 392.73,-1420.89 399.57,-1419.41"/>
<text text-anchor="start" x="2001" y="-2026.8" font-family="arial" font-size="14.00" fill="#377eb8">true</text>
</g>
<!-- ID_11_ct1_st02456&#45;&gt;ID_11_ct1_st02456 -->
<g id="edge128" class="edge">
<title>ID_11_ct1_st02456&#45;&gt;ID_11_ct1_st02456</title>
<path fill="none" stroke="black" d="M3937.09,-1262.18C3936.09,-1271.91 3943.56,-1280 3959.5,-1280 3969.46,-1280 3976.11,-1276.84 3979.46,-1272.09"/>
<polygon fill="black" stroke="black" points="3982.91,-1272.72 3981.91,-1262.18 3976.11,-1271.04 3982.91,-1272.72"/>
<text text-anchor="start" x="3947.5" y="-1283.8" font-family="arial" font-size="14.00" fill="#377eb8">true</text>
</g>
<!-- ID_11_ct1_st02456&#45;&gt;ID_11_ct1_st012456 -->
<g id="edge131" class="edge">
<title>ID_11_ct1_st02456&#45;&gt;ID_11_ct1_st012456</title>
<path fill="none" stroke="black" d="M3957.83,-1211.83C3953.46,-1054.78 3926.9,-212.97 3858,-124 3817.55,-71.76 3784.07,-74 3718,-74 3350,-74 3350,-74 3350,-74 2913.66,-74 1852.26,-159.58 1640,-202 1453.85,-239.2 1341.14,-195.11 1242,-357 1200.7,-424.43 1246.72,-458.26 1224,-534 1210.78,-578.05 1184.76,-624.25 1165.87,-654.42"/>
<polygon fill="black" stroke="black" points="1162.91,-652.55 1160.5,-662.86 1168.82,-656.3 1162.91,-652.55"/>
<text text-anchor="start" x="2630" y="-115.8" font-family="arial" font-size="14.00" fill="#377eb8">true</text>
</g>
<!-- ID_11_ct1_st02456&#45;&gt;ID_11_ct1_st02356 -->
<g id="edge129" class="edge">
<title>ID_11_ct1_st02456&#45;&gt;ID_11_ct1_st02356</title>
<path fill="none" stroke="black" d="M3954.49,-1211.76C3943.94,-1148.85 3912.46,-980.72 3858,-850 3826.14,-773.52 3772.96,-692.04 3742.13,-647.65"/>
<polygon fill="black" stroke="black" points="3744.87,-645.47 3736.27,-639.28 3739.14,-649.48 3744.87,-645.47"/>
<text text-anchor="start" x="3827" y="-868.8" font-family="arial" font-size="14.00" fill="#377eb8">true</text>
<text text-anchor="start" x="3820" y="-853.8" font-family="arial" font-size="14.00">c0 :=0</text>
</g>
<!-- ID_11_ct1_st02456&#45;&gt;ID_11_ct1_st012356 -->
<g id="edge132" class="edge">
<title>ID_11_ct1_st02456&#45;&gt;ID_11_ct1_st012356</title>
<path fill="none" stroke="black" d="M3953.68,-1211.65C3940.18,-1141.42 3900.22,-938.52 3858,-772 3793.87,-519.07 3834.98,-376.76 3614,-238 3558.16,-202.94 3429.36,-216.71 3332,-225 2975.7,-255.33 2891.48,-300.78 2539,-361 2267.47,-407.39 2197.5,-408 1928,-465 1747.85,-503.1 1665.93,-470.53 1537,-602 1516.18,-623.23 1477.15,-693.83 1454.34,-736.78"/>
<polygon fill="black" stroke="black" points="1451.18,-735.28 1449.6,-745.75 1457.37,-738.55 1451.18,-735.28"/>
<text text-anchor="start" x="2797" y="-340.8" font-family="arial" font-size="14.00" fill="#377eb8">true</text>
<text text-anchor="start" x="2790" y="-325.8" font-family="arial" font-size="14.00">c0 :=0</text>
</g>
<!-- ID_11_ct1_st01245&#45;&gt;ID_11_ct1_st0 -->
<g id="edge81" class="edge">
<title>ID_11_ct1_st01245&#45;&gt;ID_11_ct1_st0</title>
<path fill="none" stroke="black" d="M2261.98,-993.32C2255.89,-993.59 2249.85,-993.83 2244,-994 2187.14,-995.7 2172.87,-995.36 2116,-994 1455.43,-978.22 1291.14,-951.55 631,-923 495.09,-917.12 459.92,-898.62 325,-916 305.86,-918.46 300.92,-919.83 283,-927 274.37,-930.45 265.48,-934.68 256.96,-939.11"/>
<polygon fill="black" stroke="black" points="255.06,-936.16 247.9,-943.97 258.37,-942.33 255.06,-936.16"/>
<text text-anchor="start" x="1023.5" y="-946.8" font-family="arial" font-size="14.00" fill="#377eb8">Q&#39;</text>
</g>
<!-- ID_11_ct1_st01245&#45;&gt;ID_11_ct1_st01 -->
<g id="edge86" class="edge">
<title>ID_11_ct1_st01245&#45;&gt;ID_11_ct1_st01</title>
<path fill="none" stroke="black" d="M2282.33,-1013.09C2269.83,-1017.15 2256.64,-1020.75 2244,-1023 1979.66,-1069.97 1907.82,-1014.13 1640,-1033 1513.78,-1041.89 626.43,-1124.46 510,-1174 439.22,-1204.12 407.68,-1298.02 395.35,-1349.82"/>
<polygon fill="black" stroke="black" points="391.86,-1349.37 393.07,-1359.89 398.69,-1350.91 391.86,-1349.37"/>
<text text-anchor="start" x="1130.5" y="-1092.8" font-family="arial" font-size="14.00" fill="#377eb8">true</text>
</g>
<!-- ID_11_ct1_st01245&#45;&gt;ID_11_ct1_st0245 -->
<g id="edge82" class="edge">
<title>ID_11_ct1_st01245&#45;&gt;ID_11_ct1_st0245</title>
<path fill="none" stroke="black" d="M2421.77,-962.96C2424.27,-961.4 2426.69,-959.75 2429,-958 2439.92,-949.74 2435.82,-940.9 2447,-933 2488.59,-903.63 2507.08,-911.03 2557,-901 2851.95,-841.77 3210.89,-852.08 3378,-861.48"/>
<polygon fill="black" stroke="black" points="3377.81,-864.98 3387.99,-862.06 3378.21,-857.99 3377.81,-864.98"/>
<text text-anchor="start" x="2966" y="-864.8" font-family="arial" font-size="14.00" fill="#377eb8">true</text>
</g>
<!-- ID_11_ct1_st01245&#45;&gt;ID_11_ct1_st02456 -->
<g id="edge83" class="edge">
<title>ID_11_ct1_st01245&#45;&gt;ID_11_ct1_st02456</title>
<path fill="none" stroke="black" d="M2358.04,-1013.2C2376.68,-1055.24 2412.97,-1142.81 2429,-1221 2435.26,-1251.54 2426.79,-1477.26 2447,-1501 2545.44,-1616.62 2972.65,-1590 3124.5,-1590 3124.5,-1590 3124.5,-1590 3718,-1590 3870.83,-1590 3933.46,-1361.22 3952.07,-1272.02"/>
<polygon fill="black" stroke="black" points="3955.52,-1272.6 3954.07,-1262.1 3948.66,-1271.21 3955.52,-1272.6"/>
<text text-anchor="start" x="3238" y="-1593.8" font-family="arial" font-size="14.00" fill="#377eb8">true</text>
</g>
<!-- ID_11_ct1_st01245&#45;&gt;ID_11_ct1_st01245 -->
<g id="edge87" class="edge">
<title>ID_11_ct1_st01245&#45;&gt;ID_11_ct1_st01245</title>
<path fill="none" stroke="black" d="M2318.23,-1013.18C2317.02,-1022.91 2326.11,-1031 2345.5,-1031 2357.62,-1031 2365.71,-1027.84 2369.79,-1023.09"/>
<polygon fill="black" stroke="black" points="2373.24,-1023.76 2372.77,-1013.18 2366.54,-1021.74 2373.24,-1023.76"/>
<text text-anchor="start" x="2333.5" y="-1034.8" font-family="arial" font-size="14.00" fill="#377eb8">true</text>
</g>
<!-- ID_11_ct1_st01245&#45;&gt;ID_11_ct1_st012456 -->
<g id="edge88" class="edge">
<title>ID_11_ct1_st01245&#45;&gt;ID_11_ct1_st012456</title>
<path fill="none" stroke="black" d="M2261.83,-985.19C2088.66,-977.23 1676.95,-947.37 1352,-838 1299.22,-820.24 1287.33,-810.35 1242,-778 1218.08,-760.93 1193.67,-738.67 1175.14,-720.56"/>
<polygon fill="black" stroke="black" points="1177.15,-717.63 1167.58,-713.08 1172.23,-722.6 1177.15,-717.63"/>
<text text-anchor="start" x="1711.5" y="-943.8" font-family="arial" font-size="14.00" fill="#377eb8">true</text>
</g>
<!-- ID_11_ct1_st01245&#45;&gt;ID_11_ct1_st0235 -->
<g id="edge84" class="edge">
<title>ID_11_ct1_st01245&#45;&gt;ID_11_ct1_st0235</title>
<path fill="none" stroke="black" d="M2388.18,-1013.1C2429.37,-1036.21 2495.03,-1068.57 2557,-1080 2631.3,-1093.7 2652.51,-1092.64 2727,-1080 2794.77,-1068.5 2808.27,-1052.13 2873,-1029 2881.51,-1025.96 2890.4,-1022.76 2899.24,-1019.55"/>
<polygon fill="black" stroke="black" points="2900.6,-1022.78 2908.8,-1016.08 2898.21,-1016.2 2900.6,-1022.78"/>
<text text-anchor="start" x="2630" y="-1107.8" font-family="arial" font-size="14.00" fill="#377eb8">true</text>
<text text-anchor="start" x="2623" y="-1092.8" font-family="arial" font-size="14.00">c0 :=0</text>
</g>
<!-- ID_11_ct1_st01245&#45;&gt;ID_11_ct1_st02356 -->
<g id="edge85" class="edge">
<title>ID_11_ct1_st01245&#45;&gt;ID_11_ct1_st02356</title>
<path fill="none" stroke="black" d="M2423.63,-962.98C2425.51,-961.42 2427.31,-959.76 2429,-958 2447.38,-938.82 2427.95,-919.51 2447,-901 2601.77,-750.6 3175.19,-696.81 3388,-661 3466.64,-647.77 3556.3,-635.08 3621.98,-626.23"/>
<polygon fill="black" stroke="black" points="3622.45,-629.7 3631.9,-624.9 3621.52,-622.76 3622.45,-629.7"/>
<text text-anchor="start" x="3113.5" y="-724.8" font-family="arial" font-size="14.00" fill="#377eb8">true</text>
<text text-anchor="start" x="3106.5" y="-709.8" font-family="arial" font-size="14.00">c0 :=0</text>
</g>
<!-- ID_11_ct1_st01245&#45;&gt;ID_11_ct1_st01235 -->
<g id="edge89" class="edge">
<title>ID_11_ct1_st01245&#45;&gt;ID_11_ct1_st01235</title>
<path fill="none" stroke="black" d="M2429.32,-995.03C2465.86,-998.13 2509,-1001.79 2546.77,-1005"/>
<polygon fill="black" stroke="black" points="2546.5,-1008.49 2556.76,-1005.85 2547.09,-1001.52 2546.5,-1008.49"/>
<text text-anchor="start" x="2481" y="-1022.8" font-family="arial" font-size="14.00" fill="#377eb8">true</text>
<text text-anchor="start" x="2474" y="-1007.8" font-family="arial" font-size="14.00">c0 :=0</text>
</g>
<!-- ID_11_ct1_st01245&#45;&gt;ID_11_ct1_st012356 -->
<g id="edge90" class="edge">
<title>ID_11_ct1_st01245&#45;&gt;ID_11_ct1_st012356</title>
<path fill="none" stroke="black" d="M2286.35,-963C2272.62,-957.61 2257.92,-952.26 2244,-948 2110.1,-906.98 1711.06,-825.64 1528.96,-789.29"/>
<polygon fill="black" stroke="black" points="1529.62,-785.85 1519.13,-787.33 1528.25,-792.72 1529.62,-785.85"/>
<text text-anchor="start" x="1855.5" y="-886.8" font-family="arial" font-size="14.00" fill="#377eb8">true</text>
<text text-anchor="start" x="1848.5" y="-871.8" font-family="arial" font-size="14.00">c0 :=0</text>
</g>
<!-- ID_11_ct1_st012456&#45;&gt;ID_11_ct1_st0 -->
<g id="edge133" class="edge">
<title>ID_11_ct1_st012456&#45;&gt;ID_11_ct1_st0</title>
<path fill="none" stroke="black" d="M1060.99,-685.68C1023.73,-684.8 978.86,-684 938.5,-684 386.5,-684 386.5,-684 386.5,-684 269.78,-684 225.95,-857.27 212.3,-933.61"/>
<polygon fill="black" stroke="black" points="208.81,-933.26 210.57,-943.71 215.71,-934.44 208.81,-933.26"/>
<text text-anchor="start" x="653.5" y="-687.8" font-family="arial" font-size="14.00" fill="#377eb8">Q&#39;</text>
</g>
<!-- ID_11_ct1_st012456&#45;&gt;ID_11_ct1_st01 -->
<g id="edge136" class="edge">
<title>ID_11_ct1_st012456&#45;&gt;ID_11_ct1_st01</title>
<path fill="none" stroke="black" d="M1127.75,-713.16C1092.08,-775.82 989.96,-939.25 856,-1016 779.87,-1059.61 532.36,-1029.38 468,-1089 429.76,-1124.43 403.48,-1279.03 393.26,-1349.62"/>
<polygon fill="black" stroke="black" points="389.75,-1349.41 391.81,-1359.8 396.68,-1350.39 389.75,-1349.41"/>
<text text-anchor="start" x="740.5" y="-1047.8" font-family="arial" font-size="14.00" fill="#377eb8">true</text>
</g>
<!-- ID_11_ct1_st012456&#45;&gt;ID_11_ct1_st02456 -->
<g id="edge134" class="edge">
<title>ID_11_ct1_st012456&#45;&gt;ID_11_ct1_st02456</title>
<path fill="none" stroke="black" d="M1159.73,-662.94C1178.16,-633.33 1207.74,-582.01 1224,-534 1239.05,-489.57 1209.44,-463.77 1242,-430 1367.47,-299.85 1461.86,-376.82 1640,-346 2113.91,-264.02 3457.53,88.64 3802,-247 3941.8,-383.22 3956.76,-1040.99 3958.33,-1201.58"/>
<polygon fill="black" stroke="black" points="3954.83,-1201.88 3958.41,-1211.85 3961.83,-1201.82 3954.83,-1201.88"/>
<text text-anchor="start" x="2630" y="-174.8" font-family="arial" font-size="14.00" fill="#377eb8">true</text>
</g>
<!-- ID_11_ct1_st012456&#45;&gt;ID_11_ct1_st012456 -->
<g id="edge137" class="edge">
<title>ID_11_ct1_st012456&#45;&gt;ID_11_ct1_st012456</title>
<path fill="none" stroke="black" d="M1121.96,-713.18C1121.04,-722.91 1127.89,-731 1142.5,-731 1151.63,-731 1157.73,-727.84 1160.8,-723.09"/>
<polygon fill="black" stroke="black" points="1164.25,-723.7 1163.04,-713.18 1157.42,-722.15 1164.25,-723.7"/>
<text text-anchor="start" x="1130.5" y="-734.8" font-family="arial" font-size="14.00" fill="#377eb8">true</text>
</g>
<!-- ID_11_ct1_st012456&#45;&gt;ID_11_ct1_st02356 -->
<g id="edge135" class="edge">
<title>ID_11_ct1_st012456&#45;&gt;ID_11_ct1_st02356</title>
<path fill="none" stroke="black" d="M1173.18,-662.65C1190.42,-646.4 1211.2,-623.92 1224,-600 1239.77,-570.54 1223.84,-555.05 1242,-527 1344.72,-368.31 1453.74,-409.26 1640,-377 2310.31,-260.89 2487.72,-284.67 3168,-287 3373.98,-287.71 3472,-263.79 3614,-413 3660.55,-461.92 3690.69,-536.21 3705.39,-579.45"/>
<polygon fill="black" stroke="black" points="3702.08,-580.57 3708.55,-588.96 3708.72,-578.37 3702.08,-580.57"/>
<text text-anchor="start" x="2481" y="-304.8" font-family="arial" font-size="14.00" fill="#377eb8">true</text>
<text text-anchor="start" x="2474" y="-289.8" font-family="arial" font-size="14.00">c0 :=0</text>
</g>
<!-- ID_11_ct1_st012456&#45;&gt;ID_11_ct1_st012356 -->
<g id="edge138" class="edge">
<title>ID_11_ct1_st012456&#45;&gt;ID_11_ct1_st012356</title>
<path fill="none" stroke="black" d="M1224.16,-685.28C1258.81,-686.4 1299.24,-690.83 1334,-703 1357.11,-711.09 1379.94,-725.84 1397.99,-739.55"/>
<polygon fill="black" stroke="black" points="1395.9,-742.35 1405.93,-745.74 1400.2,-736.83 1395.9,-742.35"/>
<text text-anchor="start" x="1276" y="-721.8" font-family="arial" font-size="14.00" fill="#377eb8">true</text>
<text text-anchor="start" x="1269" y="-706.8" font-family="arial" font-size="14.00">c0 :=0</text>
</g>
<!-- ID_11_ct1_st0235&#45;&gt;ID_11_ct1_st0 -->
<g id="edge43" class="edge">
<title>ID_11_ct1_st0235&#45;&gt;ID_11_ct1_st0</title>
<path fill="none" stroke="black" d="M2946.5,-1016.15C2926.47,-1031.86 2899.2,-1051.74 2873,-1066 2811.82,-1099.3 2793.75,-1103.08 2727,-1123 2676.4,-1138.1 2304.78,-1190.05 2262,-1221 2249.09,-1230.34 2257.14,-1242.99 2244,-1252 2214.68,-1272.1 1962.29,-1292.61 1928,-1302 1872.2,-1317.28 1863.83,-1339.14 1807,-1350 1734.1,-1363.93 1714.21,-1351.4 1640,-1350 1463.02,-1346.67 1415.7,-1369.09 1242,-1335 874.31,-1262.84 804.68,-1166.84 450,-1046 388.86,-1025.17 318.46,-1003.06 269.22,-987.91"/>
<polygon fill="black" stroke="black" points="269.94,-984.47 259.35,-984.88 267.89,-991.16 269.94,-984.47"/>
<text text-anchor="start" x="1280.5" y="-1352.8" font-family="arial" font-size="14.00" fill="#377eb8">Q&#39;</text>
</g>
<!-- ID_11_ct1_st0235&#45;&gt;ID_11_ct1_st01 -->
<g id="edge50" class="edge">
<title>ID_11_ct1_st0235&#45;&gt;ID_11_ct1_st01</title>
<path fill="none" stroke="black" d="M2939.84,-965.81C2921.81,-951.43 2901.78,-931.74 2891,-909 2845.77,-813.54 2918.27,-767.45 2873,-672 2834.61,-591.05 2809.8,-567.23 2727,-533 2725.54,-532.4 1418.37,-469.13 1242,-527 1195.31,-542.32 1088.57,-613.33 1061,-654 1041.52,-682.73 1060.37,-699.95 1043,-730 991.38,-819.28 923.25,-798.39 874,-889 852.64,-928.29 887.93,-956.69 856,-988 793.08,-1049.71 520.05,-998.89 468,-1070 404.86,-1156.26 391.64,-1287.46 389.03,-1349.77"/>
<polygon fill="black" stroke="black" points="385.52,-1349.75 388.67,-1359.87 392.52,-1350 385.52,-1349.75"/>
<text text-anchor="start" x="1423.5" y="-514.8" font-family="arial" font-size="14.00" fill="#377eb8">true</text>
</g>
<!-- ID_11_ct1_st0235&#45;&gt;ID_11_ct1_st0123 -->
<g id="edge53" class="edge">
<title>ID_11_ct1_st0235&#45;&gt;ID_11_ct1_st0123</title>
<path fill="none" stroke="black" d="M2997.4,-1016.07C3043.62,-1079.11 3161.43,-1240.18 3168,-1253 3203.88,-1323.06 3228.87,-1412.41 3240.87,-1460.88"/>
<polygon fill="black" stroke="black" points="3237.54,-1461.98 3243.3,-1470.87 3244.34,-1460.32 3237.54,-1461.98"/>
<text text-anchor="start" x="3083" y="-1256.8" font-family="arial" font-size="14.00" fill="#377eb8">(Q&#39; || c0 &gt;= 5)</text>
</g>
<!-- ID_11_ct1_st0235&#45;&gt;ID_11_ct1_st023 -->
<g id="edge46" class="edge">
<title>ID_11_ct1_st0235&#45;&gt;ID_11_ct1_st023</title>
<path fill="none" stroke="black" d="M2953.2,-1016.44C2933.77,-1038.52 2906.99,-1072.2 2891,-1106 2876.71,-1136.21 2897.9,-1156.72 2873,-1179 2817.21,-1228.92 2613.52,-1215.81 2539,-1223 2508.31,-1225.96 2287.63,-1222.85 2262,-1240 2246.8,-1250.17 2258.39,-1265.72 2244,-1277 2130.95,-1365.64 2030.77,-1244.62 1928,-1345 1903.48,-1368.95 1935.21,-1396.77 1910,-1420 1875.94,-1451.4 1852.94,-1430 1807,-1436 1706.62,-1449.11 1681.73,-1460 1580.5,-1460 1141.5,-1460 1141.5,-1460 1141.5,-1460 1098.31,-1460 1049.95,-1460 1011.27,-1460"/>
<polygon fill="black" stroke="black" points="1011.14,-1456.5 1001.14,-1460 1011.14,-1463.5 1011.14,-1456.5"/>
<text text-anchor="start" x="1825" y="-1440.8" font-family="arial" font-size="14.00" fill="#377eb8">(Q&#39; || c0 &gt;= 5)</text>
</g>
<!-- ID_11_ct1_st0235&#45;&gt;ID_11_ct1_st0245 -->
<g id="edge44" class="edge">
<title>ID_11_ct1_st0235&#45;&gt;ID_11_ct1_st0245</title>
<path fill="none" stroke="black" d="M3065.02,-999.36C3148.18,-1003.47 3275.18,-998.92 3370,-947 3393.89,-933.92 3418.11,-915.43 3436.94,-899.63"/>
<polygon fill="black" stroke="black" points="3439.33,-902.2 3444.67,-893.05 3434.79,-896.87 3439.33,-902.2"/>
<text text-anchor="start" x="3238" y="-999.8" font-family="arial" font-size="14.00" fill="#377eb8">true</text>
</g>
<!-- ID_11_ct1_st0235&#45;&gt;ID_11_ct1_st02456 -->
<g id="edge45" class="edge">
<title>ID_11_ct1_st0235&#45;&gt;ID_11_ct1_st02456</title>
<path fill="none" stroke="black" d="M2999.27,-1016.34C3018.41,-1038.42 3049.18,-1069.43 3083,-1086 3345.87,-1214.77 3700.13,-1235.6 3865.82,-1237.76"/>
<polygon fill="black" stroke="black" points="3865.94,-1241.27 3875.98,-1237.88 3866.02,-1234.27 3865.94,-1241.27"/>
<text text-anchor="start" x="3461" y="-1218.8" font-family="arial" font-size="14.00" fill="#377eb8">true</text>
</g>
<!-- ID_11_ct1_st0235&#45;&gt;ID_11_ct1_st01245 -->
<g id="edge51" class="edge">
<title>ID_11_ct1_st0235&#45;&gt;ID_11_ct1_st01245</title>
<path fill="none" stroke="black" d="M2890.99,-979.4C2842.86,-973.49 2781.71,-966.95 2727,-964 2602.7,-957.31 2570.65,-956.65 2447,-971 2444.46,-971.29 2441.89,-971.61 2439.3,-971.94"/>
<polygon fill="black" stroke="black" points="2438.66,-968.5 2429.22,-973.31 2439.59,-975.43 2438.66,-968.5"/>
<text text-anchor="start" x="2630" y="-967.8" font-family="arial" font-size="14.00" fill="#377eb8">true</text>
</g>
<!-- ID_11_ct1_st0235&#45;&gt;ID_11_ct1_st012456 -->
<g id="edge52" class="edge">
<title>ID_11_ct1_st0235&#45;&gt;ID_11_ct1_st012456</title>
<path fill="none" stroke="black" d="M2944.26,-965.69C2926.63,-950.73 2905.57,-930.53 2891,-909 2878.93,-891.16 2885.67,-881.42 2873,-864 2759.44,-707.78 2717.71,-659.24 2539,-586 2271.98,-476.57 1520.64,-574.92 1242,-650 1232.14,-652.66 1221.91,-655.96 1211.94,-659.49"/>
<polygon fill="black" stroke="black" points="1210.67,-656.23 1202.47,-662.94 1213.07,-662.81 1210.67,-656.23"/>
<text text-anchor="start" x="2001" y="-550.8" font-family="arial" font-size="14.00" fill="#377eb8">true</text>
</g>
<!-- ID_11_ct1_st0235&#45;&gt;ID_11_ct1_st0235 -->
<g id="edge48" class="edge">
<title>ID_11_ct1_st0235&#45;&gt;ID_11_ct1_st0235</title>
<path fill="none" stroke="black" d="M2950.73,-1016.18C2949.52,-1025.91 2958.61,-1034 2978,-1034 2990.12,-1034 2998.21,-1030.84 3002.29,-1026.09"/>
<polygon fill="black" stroke="black" points="3005.74,-1026.76 3005.27,-1016.18 2999.04,-1024.74 3005.74,-1026.76"/>
<text text-anchor="start" x="2959" y="-1037.8" font-family="arial" font-size="14.00" fill="#377eb8">c0 &lt; 5</text>
</g>
<!-- ID_11_ct1_st0236 -->
<g id="node16" class="node">
<title>ID_11_ct1_st0236</title>
<polygon fill="none" stroke="black" points="2098,-1404 1928,-1404 1928,-1354 2098,-1354 2098,-1404"/>
<text text-anchor="start" x="1957" y="-1389.8" font-family="arial" font-weight="bold" font-size="14.00">ID_11_ct1_st0236</text>
<text text-anchor="start" x="1936" y="-1375.8" font-family="arial" font-size="14.00" fill="#984ea3">(!P &amp;&amp; (!Q &amp;&amp; (!R &amp;&amp; S)))</text>
<text text-anchor="start" x="1946" y="-1361.8" font-family="arial" font-size="14.00" fill="#ff7f00">(c0 &lt;= 5 &amp;&amp; c1 &lt;= 10)</text>
</g>
<!-- ID_11_ct1_st0235&#45;&gt;ID_11_ct1_st0236 -->
<g id="edge47" class="edge">
<title>ID_11_ct1_st0235&#45;&gt;ID_11_ct1_st0236</title>
<path fill="none" stroke="black" d="M2959.31,-1016.01C2939.92,-1044.52 2909.14,-1093.13 2891,-1139 2877.92,-1172.08 2899.1,-1192.82 2873,-1217 2820.9,-1265.28 2625.96,-1248 2557,-1265 2506.78,-1277.38 2492.9,-1279.16 2447,-1303 2438.24,-1307.55 2438.18,-1312.39 2429,-1316 2298.54,-1367.31 2253.98,-1330.24 2116,-1355 2113.36,-1355.47 2110.69,-1355.97 2108,-1356.49"/>
<polygon fill="black" stroke="black" points="2107.3,-1353.06 2098.18,-1358.45 2108.67,-1359.92 2107.3,-1353.06"/>
<text text-anchor="start" x="2450.5" y="-1321.8" font-family="arial" font-size="14.00" fill="#377eb8">(Q&#39; || c0 &gt;= 5)</text>
<text text-anchor="start" x="2474" y="-1306.8" font-family="arial" font-size="14.00">c1 :=0</text>
</g>
<!-- ID_11_ct1_st0235&#45;&gt;ID_11_ct1_st02356 -->
<g id="edge49" class="edge">
<title>ID_11_ct1_st0235&#45;&gt;ID_11_ct1_st02356</title>
<path fill="none" stroke="black" d="M3065.24,-1010.59C3189.94,-1033.43 3420.66,-1054.28 3558,-935 3648.14,-856.71 3692,-715.02 3708.25,-649.27"/>
<polygon fill="black" stroke="black" points="3711.69,-649.93 3710.63,-639.39 3704.88,-648.3 3711.69,-649.93"/>
<text text-anchor="start" x="3332" y="-1026.8" font-family="arial" font-size="14.00" fill="#377eb8">c0 &lt; 5</text>
</g>
<!-- ID_11_ct1_st01236 -->
<g id="node18" class="node">
<title>ID_11_ct1_st01236</title>
<polygon fill="none" stroke="black" points="1807,-1092 1640,-1092 1640,-1042 1807,-1042 1807,-1092"/>
<text text-anchor="start" x="1663.5" y="-1077.8" font-family="arial" font-weight="bold" font-size="14.00">ID_11_ct1_st01236</text>
<text text-anchor="start" x="1648" y="-1063.8" font-family="arial" font-size="14.00" fill="#984ea3">(P &amp;&amp; (!Q &amp;&amp; (!R &amp;&amp; S)))</text>
<text text-anchor="start" x="1656.5" y="-1049.8" font-family="arial" font-size="14.00" fill="#ff7f00">(c0 &lt;= 5 &amp;&amp; c1 &lt;= 10)</text>
</g>
<!-- ID_11_ct1_st0235&#45;&gt;ID_11_ct1_st01236 -->
<g id="edge54" class="edge">
<title>ID_11_ct1_st0235&#45;&gt;ID_11_ct1_st01236</title>
<path fill="none" stroke="black" d="M2895.9,-965.94C2888.2,-964.07 2880.48,-962.38 2873,-961 2859.74,-958.56 2428.09,-902.28 2262,-924 2096.03,-945.7 1908.39,-1003.57 1804.52,-1038.69"/>
<polygon fill="black" stroke="black" points="1803.38,-1035.38 1795.04,-1041.91 1805.63,-1042.01 1803.38,-1035.38"/>
<text text-anchor="start" x="2303" y="-942.8" font-family="arial" font-size="14.00" fill="#377eb8">(Q&#39; || c0 &gt;= 5)</text>
<text text-anchor="start" x="2326.5" y="-927.8" font-family="arial" font-size="14.00">c1 :=0</text>
</g>
<!-- ID_11_ct1_st0235&#45;&gt;ID_11_ct1_st01235 -->
<g id="edge55" class="edge">
<title>ID_11_ct1_st0235&#45;&gt;ID_11_ct1_st01235</title>
<path fill="none" stroke="black" d="M2890.79,-985.19C2846.99,-983.52 2793.01,-983.43 2745,-989 2742.34,-989.31 2739.65,-989.66 2736.93,-990.05"/>
<polygon fill="black" stroke="black" points="2736.38,-986.6 2727.06,-991.62 2737.48,-993.51 2736.38,-986.6"/>
<text text-anchor="start" x="2790" y="-992.8" font-family="arial" font-size="14.00" fill="#377eb8">c0 &lt; 5</text>
</g>
<!-- ID_11_ct1_st0235&#45;&gt;ID_11_ct1_st012356 -->
<g id="edge56" class="edge">
<title>ID_11_ct1_st0235&#45;&gt;ID_11_ct1_st012356</title>
<path fill="none" stroke="black" d="M2935.28,-965.98C2846.19,-914.2 2629.13,-796.83 2429,-757 2103.63,-692.25 1706.35,-732.8 1529.31,-756.9"/>
<polygon fill="black" stroke="black" points="1528.68,-753.45 1519.26,-758.28 1529.64,-760.39 1528.68,-753.45"/>
<text text-anchor="start" x="2161" y="-734.8" font-family="arial" font-size="14.00" fill="#377eb8">c0 &lt; 5</text>
</g>
<!-- ID_11_ct1_st0236&#45;&gt;ID_11_ct1_st0 -->
<g id="edge91" class="edge">
<title>ID_11_ct1_st0236&#45;&gt;ID_11_ct1_st0</title>
<path fill="none" stroke="black" d="M1995.27,-1404.22C1977.26,-1429.27 1946.26,-1466.77 1910,-1487 1907.32,-1488.5 1046.06,-1665.69 1043,-1666 935.89,-1676.94 918.82,-1611.57 814,-1587 682.25,-1556.12 640.26,-1533.35 510,-1570 500.97,-1572.54 501.03,-1578.46 492,-1581 481.73,-1583.89 477.96,-1584.83 468,-1581 236.41,-1491.98 209.71,-1121.5 207.11,-1004.54"/>
<polygon fill="black" stroke="black" points="210.61,-1004.28 206.93,-994.35 203.61,-1004.41 210.61,-1004.28"/>
<text text-anchor="start" x="930" y="-1669.8" font-family="arial" font-size="14.00" fill="#377eb8">Q&#39;</text>
</g>
<!-- ID_11_ct1_st0236&#45;&gt;ID_11_ct1_st01 -->
<g id="edge96" class="edge">
<title>ID_11_ct1_st0236&#45;&gt;ID_11_ct1_st01</title>
<path fill="none" stroke="black" d="M2002.74,-1404.02C1988.49,-1438.77 1957.73,-1500.87 1910,-1532 1871.07,-1557.39 1853.07,-1543.91 1807,-1550 1377.33,-1606.84 1218.35,-1765.43 832,-1569 820.11,-1562.96 824.67,-1553 814,-1545 806.43,-1539.32 571.22,-1452.29 453.83,-1409.03"/>
<polygon fill="black" stroke="black" points="454.81,-1405.66 444.21,-1405.49 452.39,-1412.23 454.81,-1405.66"/>
<text text-anchor="start" x="1019" y="-1650.8" font-family="arial" font-size="14.00" fill="#377eb8">true</text>
</g>
<!-- ID_11_ct1_st0236&#45;&gt;ID_11_ct1_st0123 -->
<g id="edge99" class="edge">
<title>ID_11_ct1_st0236&#45;&gt;ID_11_ct1_st0123</title>
<path fill="none" stroke="black" d="M2066.94,-1404.1C2082.43,-1410.39 2099.6,-1416.37 2116,-1420 2381.51,-1478.84 2455.68,-1434.5 2727,-1453 2887.29,-1463.93 3074.97,-1480.25 3175.88,-1489.32"/>
<polygon fill="black" stroke="black" points="3175.69,-1492.82 3185.97,-1490.23 3176.32,-1485.85 3175.69,-1492.82"/>
<text text-anchor="start" x="2596" y="-1456.8" font-family="arial" font-size="14.00" fill="#377eb8">(Q&#39; || c1 &gt;= 10)</text>
</g>
<!-- ID_11_ct1_st0236&#45;&gt;ID_11_ct1_st023 -->
<g id="edge94" class="edge">
<title>ID_11_ct1_st0236&#45;&gt;ID_11_ct1_st023</title>
<path fill="none" stroke="black" d="M1992.01,-1404.38C1973.37,-1425.91 1943.48,-1455.41 1910,-1469 1867.54,-1486.24 1852.82,-1472.89 1807,-1474 1456.88,-1482.49 1367.93,-1504.12 1019,-1474 1016.46,-1473.78 1013.89,-1473.52 1011.29,-1473.24"/>
<polygon fill="black" stroke="black" points="1011.56,-1469.74 1001.21,-1471.98 1010.7,-1476.69 1011.56,-1469.74"/>
<text text-anchor="start" x="1389.5" y="-1492.8" font-family="arial" font-size="14.00" fill="#377eb8">(Q&#39; || c1 &gt;= 10)</text>
</g>
<!-- ID_11_ct1_st0236&#45;&gt;ID_11_ct1_st0245 -->
<g id="edge92" class="edge">
<title>ID_11_ct1_st0236&#45;&gt;ID_11_ct1_st0245</title>
<path fill="none" stroke="black" d="M2098.25,-1376.21C2202.46,-1371.7 2384.96,-1360.37 2539,-1333 2576.73,-1326.3 2846.32,-1274.51 2873,-1247 2898.37,-1220.84 2865.92,-1193.44 2891,-1167 2924.6,-1131.57 3270.23,-1069.63 3314,-1048 3378.77,-1016 3428.41,-944.52 3453.61,-901.89"/>
<polygon fill="black" stroke="black" points="3456.78,-903.41 3458.76,-893 3450.72,-899.9 3456.78,-903.41"/>
<text text-anchor="start" x="2745" y="-1292.8" font-family="arial" font-size="14.00" fill="#377eb8">(Q&#39; || (S&#39; || c1 &gt;= 10))</text>
</g>
<!-- ID_11_ct1_st0236&#45;&gt;ID_11_ct1_st02456 -->
<g id="edge93" class="edge">
<title>ID_11_ct1_st0236&#45;&gt;ID_11_ct1_st02456</title>
<path fill="none" stroke="black" d="M2016.24,-1404.19C2022.21,-1454.46 2043.43,-1566.54 2116,-1615 2230.04,-1691.14 3212.87,-1633 3350,-1633 3350,-1633 3350,-1633 3718,-1633 3886.04,-1633 3939.98,-1369.26 3954.14,-1272.26"/>
<polygon fill="black" stroke="black" points="3957.65,-1272.46 3955.57,-1262.07 3950.71,-1271.49 3957.65,-1272.46"/>
<text text-anchor="start" x="3113.5" y="-1644.8" font-family="arial" font-size="14.00" fill="#377eb8">true</text>
</g>
<!-- ID_11_ct1_st0236&#45;&gt;ID_11_ct1_st01245 -->
<g id="edge97" class="edge">
<title>ID_11_ct1_st0236&#45;&gt;ID_11_ct1_st01245</title>
<path fill="none" stroke="black" d="M2041.88,-1353.73C2101.29,-1299.82 2235.62,-1177.6 2244,-1167 2280.31,-1121.06 2311.41,-1060.35 2329.03,-1022.75"/>
<polygon fill="black" stroke="black" points="2332.41,-1023.8 2333.43,-1013.26 2326.05,-1020.86 2332.41,-1023.8"/>
<text text-anchor="start" x="2116" y="-1287.8" font-family="arial" font-size="14.00" fill="#377eb8">(Q&#39; || (S&#39; || c1 &gt;= 10))</text>
</g>
<!-- ID_11_ct1_st0236&#45;&gt;ID_11_ct1_st012456 -->
<g id="edge98" class="edge">
<title>ID_11_ct1_st0236&#45;&gt;ID_11_ct1_st012456</title>
<path fill="none" stroke="black" d="M1927.57,-1371.33C1828.09,-1359.19 1660.71,-1328.78 1537,-1255 1376.67,-1159.38 1342.02,-1113.62 1242,-956 1193.7,-879.88 1164.31,-776.65 1151.34,-723.25"/>
<polygon fill="black" stroke="black" points="1154.69,-722.18 1148.97,-713.26 1147.88,-723.79 1154.69,-722.18"/>
<text text-anchor="start" x="1567.5" y="-1298.8" font-family="arial" font-size="14.00" fill="#377eb8">true</text>
</g>
<!-- ID_11_ct1_st0236&#45;&gt;ID_11_ct1_st0236 -->
<g id="edge95" class="edge">
<title>ID_11_ct1_st0236&#45;&gt;ID_11_ct1_st0236</title>
<path fill="none" stroke="black" d="M1986.11,-1404.18C1984.91,-1413.91 1993.88,-1422 2013,-1422 2024.95,-1422 2032.94,-1418.84 2036.95,-1414.09"/>
<polygon fill="black" stroke="black" points="2040.41,-1414.76 2039.89,-1404.18 2033.7,-1412.77 2040.41,-1414.76"/>
<text text-anchor="start" x="1990" y="-1425.8" font-family="arial" font-size="14.00" fill="#377eb8">c1 &lt; 10</text>
</g>
<!-- ID_11_ct1_st0236&#45;&gt;ID_11_ct1_st01236 -->
<g id="edge100" class="edge">
<title>ID_11_ct1_st0236&#45;&gt;ID_11_ct1_st01236</title>
<path fill="none" stroke="black" d="M1987.92,-1353.58C1967.65,-1332.52 1937.63,-1302.08 1910,-1277 1873.77,-1244.1 1858.44,-1242.73 1825,-1207 1793.87,-1173.74 1764.22,-1130.52 1745.3,-1100.96"/>
<polygon fill="black" stroke="black" points="1748.09,-1098.82 1739.79,-1092.25 1742.18,-1102.57 1748.09,-1098.82"/>
<text text-anchor="start" x="1844.5" y="-1280.8" font-family="arial" font-size="14.00" fill="#377eb8">c1 &lt; 10</text>
</g>
<!-- ID_11_ct1_st02356&#45;&gt;ID_11_ct1_st0 -->
<g id="edge111" class="edge">
<title>ID_11_ct1_st02356&#45;&gt;ID_11_ct1_st0</title>
<path fill="none" stroke="black" d="M3705.55,-588.73C3688.44,-546.63 3654.12,-459.23 3632,-383 3621.6,-347.17 3630.69,-334.37 3614,-301 3596.95,-266.89 3590.73,-255.56 3558,-236 3145.64,10.41 2974.37,-46 2494,-46 386.5,-46 386.5,-46 386.5,-46 287.99,-46 311.64,-147.74 283,-242 242.89,-373.99 216.09,-806.15 208.93,-933.42"/>
<polygon fill="black" stroke="black" points="205.41,-933.58 208.35,-943.76 212.4,-933.97 205.41,-933.58"/>
<text text-anchor="start" x="1716" y="-49.8" font-family="arial" font-size="14.00" fill="#377eb8">Q&#39;</text>
</g>
<!-- ID_11_ct1_st02356&#45;&gt;ID_11_ct1_st01 -->
<g id="edge115" class="edge">
<title>ID_11_ct1_st02356&#45;&gt;ID_11_ct1_st01</title>
<path fill="none" stroke="black" d="M3707.43,-588.8C3683.12,-518.84 3611.96,-324.81 3558,-287 3519.23,-259.83 2774.05,-103.28 2727,-98 2423,-63.87 1638.39,-56.48 1352,-164 1087.51,-263.29 1020.01,-341.15 874,-583 818.51,-674.91 886.33,-737.65 814,-817 774.89,-859.91 744.97,-839.6 691,-861 609.41,-893.36 575.23,-881.27 510,-940 448.12,-995.72 406.6,-1254.56 393.19,-1349.75"/>
<polygon fill="black" stroke="black" points="389.71,-1349.36 391.8,-1359.74 396.65,-1350.32 389.71,-1349.36"/>
<text text-anchor="start" x="1855.5" y="-91.8" font-family="arial" font-size="14.00" fill="#377eb8">true</text>
</g>
<!-- ID_11_ct1_st02356&#45;&gt;ID_11_ct1_st02456 -->
<g id="edge112" class="edge">
<title>ID_11_ct1_st02356&#45;&gt;ID_11_ct1_st02456</title>
<path fill="none" stroke="black" d="M3727.46,-639.35C3745.34,-687.23 3785.43,-794.22 3820,-884 3865.02,-1000.92 3919.65,-1139.1 3944.72,-1202.3"/>
<polygon fill="black" stroke="black" points="3941.54,-1203.78 3948.48,-1211.79 3948.05,-1201.2 3941.54,-1203.78"/>
<text text-anchor="start" x="3827" y="-984.8" font-family="arial" font-size="14.00" fill="#377eb8">true</text>
</g>
<!-- ID_11_ct1_st02356&#45;&gt;ID_11_ct1_st012456 -->
<g id="edge116" class="edge">
<title>ID_11_ct1_st02356&#45;&gt;ID_11_ct1_st012456</title>
<path fill="none" stroke="black" d="M3706.89,-588.8C3687.97,-541.09 3639.31,-439.53 3558,-408 3440.94,-362.61 2554.53,-363.61 2429,-361 2206.38,-356.37 2147.9,-326.01 1928,-361 1611.25,-411.4 1513.46,-414.18 1242,-585 1233.86,-590.12 1199.31,-626.97 1173.41,-655.15"/>
<polygon fill="black" stroke="black" points="1170.55,-653.1 1166.37,-662.83 1175.71,-657.83 1170.55,-653.1"/>
<text text-anchor="start" x="2481" y="-366.8" font-family="arial" font-size="14.00" fill="#377eb8">true</text>
</g>
<!-- ID_11_ct1_st02356&#45;&gt;ID_11_ct1_st0236 -->
<g id="edge113" class="edge">
<title>ID_11_ct1_st02356&#45;&gt;ID_11_ct1_st0236</title>
<path fill="none" stroke="black" d="M3713.27,-639.15C3704.51,-706.97 3670.72,-894.79 3558,-988 3378.7,-1136.26 3270.19,-1069.83 3083,-1208 3073.38,-1215.1 3075.37,-1222.05 3065,-1228 2996.51,-1267.31 2951.74,-1213.53 2891,-1264 2874.75,-1277.5 2889.67,-1295.02 2873,-1308 2833.69,-1338.62 2478.54,-1365.62 2429,-1371 2347.03,-1379.91 2326.4,-1381.89 2244,-1385 2187.15,-1387.15 2172.86,-1386.67 2116,-1385 2113.44,-1384.92 2110.84,-1384.84 2108.23,-1384.74"/>
<polygon fill="black" stroke="black" points="2108.16,-1381.24 2098.03,-1384.34 2107.88,-1388.23 2108.16,-1381.24"/>
<text text-anchor="start" x="2935.5" y="-1282.8" font-family="arial" font-size="14.00" fill="#377eb8">(Q&#39; || c0 &gt;= 5)</text>
<text text-anchor="start" x="2959" y="-1267.8" font-family="arial" font-size="14.00">c1 :=0</text>
</g>
<!-- ID_11_ct1_st02356&#45;&gt;ID_11_ct1_st02356 -->
<g id="edge114" class="edge">
<title>ID_11_ct1_st02356&#45;&gt;ID_11_ct1_st02356</title>
<path fill="none" stroke="black" d="M3694.21,-639.18C3693.2,-648.91 3700.8,-657 3717,-657 3727.13,-657 3733.89,-653.84 3737.29,-649.09"/>
<polygon fill="black" stroke="black" points="3740.74,-649.73 3739.79,-639.18 3733.95,-648.02 3740.74,-649.73"/>
<text text-anchor="start" x="3698" y="-660.8" font-family="arial" font-size="14.00" fill="#377eb8">c0 &lt; 5</text>
</g>
<!-- ID_11_ct1_st02356&#45;&gt;ID_11_ct1_st01236 -->
<g id="edge117" class="edge">
<title>ID_11_ct1_st02356&#45;&gt;ID_11_ct1_st01236</title>
<path fill="none" stroke="black" d="M3631.97,-617.09C3565.64,-619.89 3470.8,-624.71 3388,-632 2730.81,-689.83 2547.31,-672.63 1928,-900 1879.67,-917.74 1865.62,-921.36 1825,-953 1795.21,-976.2 1767.31,-1009.1 1748.51,-1033.59"/>
<polygon fill="black" stroke="black" points="1745.49,-1031.79 1742.25,-1041.87 1751.07,-1036.01 1745.49,-1031.79"/>
<text text-anchor="start" x="2766.5" y="-707.8" font-family="arial" font-size="14.00" fill="#377eb8">(Q&#39; || c0 &gt;= 5)</text>
<text text-anchor="start" x="2790" y="-692.8" font-family="arial" font-size="14.00">c1 :=0</text>
</g>
<!-- ID_11_ct1_st02356&#45;&gt;ID_11_ct1_st012356 -->
<g id="edge118" class="edge">
<title>ID_11_ct1_st02356&#45;&gt;ID_11_ct1_st012356</title>
<path fill="none" stroke="black" d="M3700.71,-588.9C3666.88,-536.86 3580.19,-422 3474,-422 2808,-422 2808,-422 2808,-422 2565.24,-422 2501.84,-399.44 2262,-437 2096.22,-462.96 1676.94,-555.42 1537,-648 1502.34,-670.93 1473.66,-709.48 1455.93,-737.32"/>
<polygon fill="black" stroke="black" points="1452.88,-735.61 1450.57,-745.95 1458.82,-739.31 1452.88,-735.61"/>
<text text-anchor="start" x="2623" y="-425.8" font-family="arial" font-size="14.00" fill="#377eb8">c0 &lt; 5</text>
</g>
<!-- ID_11_ct1_st01236&#45;&gt;ID_11_ct1_st0 -->
<g id="edge101" class="edge">
<title>ID_11_ct1_st01236&#45;&gt;ID_11_ct1_st0</title>
<path fill="none" stroke="black" d="M1639.88,-1076.6C1507.56,-1089.87 1240.46,-1107.94 1019,-1068 857.49,-1038.87 833.37,-973.87 673,-939 654.71,-935.02 649.7,-936.67 631,-936 476.43,-930.49 434.43,-904.54 283,-936 277.54,-937.13 272,-938.68 266.51,-940.49"/>
<polygon fill="black" stroke="black" points="264.97,-937.32 256.74,-943.99 267.34,-943.91 264.97,-937.32"/>
<text text-anchor="start" x="836.5" y="-1013.8" font-family="arial" font-size="14.00" fill="#377eb8">Q&#39;</text>
</g>
<!-- ID_11_ct1_st01236&#45;&gt;ID_11_ct1_st01 -->
<g id="edge106" class="edge">
<title>ID_11_ct1_st01236&#45;&gt;ID_11_ct1_st01</title>
<path fill="none" stroke="black" d="M1684.53,-1092.19C1631.4,-1124.94 1530.77,-1178 1436.5,-1178 569.5,-1178 569.5,-1178 569.5,-1178 479.24,-1178 423.58,-1290.9 400.64,-1349.94"/>
<polygon fill="black" stroke="black" points="397.25,-1349.03 396.99,-1359.62 403.8,-1351.5 397.25,-1349.03"/>
<text text-anchor="start" x="925.5" y="-1181.8" font-family="arial" font-size="14.00" fill="#377eb8">true</text>
</g>
<!-- ID_11_ct1_st01236&#45;&gt;ID_11_ct1_st0123 -->
<g id="edge109" class="edge">
<title>ID_11_ct1_st01236&#45;&gt;ID_11_ct1_st0123</title>
<path fill="none" stroke="black" d="M1770.51,-1092.1C1784.49,-1102.04 1798.42,-1114.77 1807,-1130 1843.44,-1194.65 1799.21,-1226.41 1825,-1296 1832.02,-1314.96 1910.34,-1436.16 1928,-1446 1946.6,-1456.37 2380.8,-1482.61 3083,-1498 3113.42,-1498.67 3146.97,-1498.44 3175.91,-1497.95"/>
<polygon fill="black" stroke="black" points="3176,-1501.45 3185.93,-1497.77 3175.87,-1494.45 3176,-1501.45"/>
<text text-anchor="start" x="2447" y="-1485.8" font-family="arial" font-size="14.00" fill="#377eb8">(Q&#39; || c1 &gt;= 10)</text>
</g>
<!-- ID_11_ct1_st01236&#45;&gt;ID_11_ct1_st023 -->
<g id="edge104" class="edge">
<title>ID_11_ct1_st01236&#45;&gt;ID_11_ct1_st023</title>
<path fill="none" stroke="black" d="M1686.21,-1092.04C1670.23,-1104.59 1652.33,-1120.95 1640,-1139 1626.68,-1158.5 1639.61,-1173.27 1622,-1189 1596.32,-1211.94 1047,-1311.96 1019,-1332 986.49,-1355.26 964.17,-1396.15 951.42,-1425.45"/>
<polygon fill="black" stroke="black" points="948.1,-1424.33 947.47,-1434.9 954.56,-1427.03 948.1,-1424.33"/>
<text text-anchor="start" x="1242" y="-1281.8" font-family="arial" font-size="14.00" fill="#377eb8">(Q&#39; || c1 &gt;= 10)</text>
</g>
<!-- ID_11_ct1_st01236&#45;&gt;ID_11_ct1_st0245 -->
<g id="edge102" class="edge">
<title>ID_11_ct1_st01236&#45;&gt;ID_11_ct1_st0245</title>
<path fill="none" stroke="black" d="M1757.66,-1041.97C1796.29,-1014.33 1863.12,-971.08 1928,-951 2339.07,-823.78 2460.72,-854.86 2891,-851 3078.99,-849.31 3126.19,-842.63 3314,-851 3334.61,-851.92 3356.65,-853.75 3377.54,-855.88"/>
<polygon fill="black" stroke="black" points="3377.38,-859.39 3387.69,-856.95 3378.11,-852.42 3377.38,-859.39"/>
<text text-anchor="start" x="2578" y="-855.8" font-family="arial" font-size="14.00" fill="#377eb8">(Q&#39; || (S&#39; || c1 &gt;= 10))</text>
</g>
<!-- ID_11_ct1_st01236&#45;&gt;ID_11_ct1_st02456 -->
<g id="edge103" class="edge">
<title>ID_11_ct1_st01236&#45;&gt;ID_11_ct1_st02456</title>
<path fill="none" stroke="black" d="M1771.41,-1092.15C1785.28,-1102.03 1798.91,-1114.71 1807,-1130 1840.95,-1194.12 1788.41,-1393.35 1825,-1456 1902.41,-1588.54 1971.24,-1590.96 2116,-1642 2284.1,-1701.26 1945.25,-1674 3124.5,-1674 3124.5,-1674 3124.5,-1674 3718,-1674 3901.14,-1674 3945.83,-1375.76 3955.83,-1272.04"/>
<polygon fill="black" stroke="black" points="3959.31,-1272.34 3956.74,-1262.06 3952.34,-1271.7 3959.31,-1272.34"/>
<text text-anchor="start" x="2966" y="-1677.8" font-family="arial" font-size="14.00" fill="#377eb8">true</text>
</g>
<!-- ID_11_ct1_st01236&#45;&gt;ID_11_ct1_st01245 -->
<g id="edge107" class="edge">
<title>ID_11_ct1_st01236&#45;&gt;ID_11_ct1_st01245</title>
<path fill="none" stroke="black" d="M1807.11,-1081.12C1911.77,-1095.64 2096.3,-1109.93 2244,-1061 2269.03,-1052.71 2293.08,-1035.68 2311.37,-1020.16"/>
<polygon fill="black" stroke="black" points="2314.14,-1022.39 2319.35,-1013.17 2309.52,-1017.12 2314.14,-1022.39"/>
<text text-anchor="start" x="1949" y="-1097.8" font-family="arial" font-size="14.00" fill="#377eb8">(Q&#39; || (S&#39; || c1 &gt;= 10))</text>
</g>
<!-- ID_11_ct1_st01236&#45;&gt;ID_11_ct1_st012456 -->
<g id="edge108" class="edge">
<title>ID_11_ct1_st01236&#45;&gt;ID_11_ct1_st012456</title>
<path fill="none" stroke="black" d="M1639.68,-1060.78C1534.95,-1048.77 1354.73,-1013.75 1242,-912 1185.62,-861.11 1159.95,-772.05 1149.59,-722.95"/>
<polygon fill="black" stroke="black" points="1153.01,-722.22 1147.61,-713.11 1146.15,-723.61 1153.01,-722.22"/>
<text text-anchor="start" x="1423.5" y="-1043.8" font-family="arial" font-size="14.00" fill="#377eb8">true</text>
</g>
<!-- ID_11_ct1_st01236&#45;&gt;ID_11_ct1_st0236 -->
<g id="edge105" class="edge">
<title>ID_11_ct1_st01236&#45;&gt;ID_11_ct1_st0236</title>
<path fill="none" stroke="black" d="M1743.66,-1092.33C1762.1,-1114.94 1791.97,-1147.28 1825,-1166 1858.95,-1185.24 1879.34,-1163.87 1910,-1188 1961,-1228.14 1989.61,-1301.02 2002.82,-1344.21"/>
<polygon fill="black" stroke="black" points="1999.52,-1345.4 2005.71,-1354 2006.24,-1343.42 1999.52,-1345.4"/>
<text text-anchor="start" x="1844.5" y="-1191.8" font-family="arial" font-size="14.00" fill="#377eb8">c1 &lt; 10</text>
</g>
<!-- ID_11_ct1_st01236&#45;&gt;ID_11_ct1_st01236 -->
<g id="edge110" class="edge">
<title>ID_11_ct1_st01236&#45;&gt;ID_11_ct1_st01236</title>
<path fill="none" stroke="black" d="M1696.61,-1092.18C1695.41,-1101.91 1704.38,-1110 1723.5,-1110 1735.45,-1110 1743.44,-1106.84 1747.45,-1102.09"/>
<polygon fill="black" stroke="black" points="1750.91,-1102.76 1750.39,-1092.18 1744.2,-1100.77 1750.91,-1102.76"/>
<text text-anchor="start" x="1700.5" y="-1113.8" font-family="arial" font-size="14.00" fill="#377eb8">c1 &lt; 10</text>
</g>
<!-- ID_11_ct1_st01235&#45;&gt;ID_11_ct1_st0 -->
<g id="edge57" class="edge">
<title>ID_11_ct1_st01235&#45;&gt;ID_11_ct1_st0</title>
<path fill="none" stroke="black" d="M2561.43,-987.74C2559.87,-986.25 2558.38,-984.67 2557,-983 2524.01,-943.15 2567.76,-911 2539,-868 2457.45,-746.07 2382.99,-766.89 2244,-720 1767.1,-559.12 1646.8,-453 1143.5,-453 386.5,-453 386.5,-453 386.5,-453 284.52,-453 227.21,-817.08 211.48,-933.59"/>
<polygon fill="black" stroke="black" points="207.98,-933.39 210.13,-943.76 214.92,-934.31 207.98,-933.39"/>
<text text-anchor="start" x="1135" y="-456.8" font-family="arial" font-size="14.00" fill="#377eb8">Q&#39;</text>
</g>
<!-- ID_11_ct1_st01235&#45;&gt;ID_11_ct1_st01 -->
<g id="edge64" class="edge">
<title>ID_11_ct1_st01235&#45;&gt;ID_11_ct1_st01</title>
<path fill="none" stroke="black" d="M2588.55,-1038.06C2572.78,-1045.21 2555.33,-1052.75 2539,-1059 2418.36,-1105.19 2383.81,-1104.01 2262,-1147 2253.91,-1149.86 2252.3,-1151.8 2244,-1154 2098.94,-1192.55 2059.66,-1192.58 1910,-1204 1908.13,-1204.14 1641.54,-1203.93 1640,-1205 1621.59,-1217.71 1640.43,-1239.32 1622,-1252 1569.23,-1288.3 1398.02,-1242.73 1334,-1241 1116.6,-1235.11 1062.48,-1259 845,-1259 569.5,-1259 569.5,-1259 569.5,-1259 542.33,-1259 534,-1260.26 510,-1273 472.8,-1292.74 438.3,-1326.68 415.65,-1352.03"/>
<polygon fill="black" stroke="black" points="412.97,-1349.78 409.01,-1359.6 418.24,-1354.39 412.97,-1349.78"/>
<text text-anchor="start" x="1276" y="-1244.8" font-family="arial" font-size="14.00" fill="#377eb8">true</text>
</g>
<!-- ID_11_ct1_st01235&#45;&gt;ID_11_ct1_st0123 -->
<g id="edge67" class="edge">
<title>ID_11_ct1_st01235&#45;&gt;ID_11_ct1_st0123</title>
<path fill="none" stroke="black" d="M2686.06,-1038.03C2700.67,-1048.26 2716.06,-1061.19 2727,-1076 2741.04,-1094.99 2727.64,-1109.98 2745,-1126 2853.31,-1225.96 2958.17,-1111.47 3065,-1213 3083.64,-1230.72 3071.29,-1245.1 3083,-1268 3103.69,-1308.45 3181.61,-1410.06 3222.92,-1462.91"/>
<polygon fill="black" stroke="black" points="3220.3,-1465.24 3229.22,-1470.96 3225.81,-1460.93 3220.3,-1465.24"/>
<text text-anchor="start" x="2935.5" y="-1216.8" font-family="arial" font-size="14.00" fill="#377eb8">(Q&#39; || c0 &gt;= 5)</text>
</g>
<!-- ID_11_ct1_st01235&#45;&gt;ID_11_ct1_st023 -->
<g id="edge60" class="edge">
<title>ID_11_ct1_st01235&#45;&gt;ID_11_ct1_st023</title>
<path fill="none" stroke="black" d="M2598.11,-1038.16C2583.51,-1048.4 2568.09,-1061.3 2557,-1076 2543.52,-1093.85 2556.2,-1108.7 2539,-1123 2490.87,-1163.01 2318.67,-1147.43 2262,-1174 2252.57,-1178.42 2253.35,-1184.42 2244,-1189 2191.69,-1214.59 2170.91,-1197.61 2116,-1217 2107.57,-1219.98 2106.43,-1223.02 2098,-1226 1934.29,-1283.76 1504.37,-1355.67 1334,-1389 1273.5,-1400.84 1108.02,-1430.17 1011.35,-1447.2"/>
<polygon fill="black" stroke="black" points="1010.6,-1443.78 1001.36,-1448.96 1011.81,-1450.67 1010.6,-1443.78"/>
<text text-anchor="start" x="1681" y="-1334.8" font-family="arial" font-size="14.00" fill="#377eb8">(Q&#39; || c0 &gt;= 5)</text>
</g>
<!-- ID_11_ct1_st01235&#45;&gt;ID_11_ct1_st0245 -->
<g id="edge58" class="edge">
<title>ID_11_ct1_st01235&#45;&gt;ID_11_ct1_st0245</title>
<path fill="none" stroke="black" d="M2727.2,-1034.8C2859.15,-1064.37 3119.64,-1103.98 3314,-1015 3369.98,-989.37 3419.19,-936.08 3447.26,-901.19"/>
<polygon fill="black" stroke="black" points="3450.14,-903.2 3453.6,-893.18 3444.65,-898.85 3450.14,-903.2"/>
<text text-anchor="start" x="3113.5" y="-1070.8" font-family="arial" font-size="14.00" fill="#377eb8">true</text>
</g>
<!-- ID_11_ct1_st01235&#45;&gt;ID_11_ct1_st02456 -->
<g id="edge59" class="edge">
<title>ID_11_ct1_st01235&#45;&gt;ID_11_ct1_st02456</title>
<path fill="none" stroke="black" d="M2689.7,-1038.08C2706.8,-1046.67 2726.49,-1055.9 2745,-1063 2927.47,-1132.96 2985.19,-1113.95 3168,-1183 3251.87,-1214.68 3260.34,-1270 3350,-1270 3350,-1270 3350,-1270 3718,-1270 3767.17,-1270 3821.48,-1263.15 3866.03,-1255.68"/>
<polygon fill="black" stroke="black" points="3866.69,-1259.12 3875.96,-1253.98 3865.51,-1252.22 3866.69,-1259.12"/>
<text text-anchor="start" x="3339" y="-1273.8" font-family="arial" font-size="14.00" fill="#377eb8">true</text>
</g>
<!-- ID_11_ct1_st01235&#45;&gt;ID_11_ct1_st01245 -->
<g id="edge65" class="edge">
<title>ID_11_ct1_st01235&#45;&gt;ID_11_ct1_st01245</title>
<path fill="none" stroke="black" d="M2573.69,-987.97C2562.26,-984.66 2550.4,-981.8 2539,-980 2506.8,-974.92 2471.22,-974.87 2439.5,-976.75"/>
<polygon fill="black" stroke="black" points="2439.09,-973.27 2429.35,-977.43 2439.56,-980.25 2439.09,-973.27"/>
<text text-anchor="start" x="2481" y="-983.8" font-family="arial" font-size="14.00" fill="#377eb8">true</text>
</g>
<!-- ID_11_ct1_st01235&#45;&gt;ID_11_ct1_st012456 -->
<g id="edge66" class="edge">
<title>ID_11_ct1_st01235&#45;&gt;ID_11_ct1_st012456</title>
<path fill="none" stroke="black" d="M2562.03,-987.83C2560.26,-986.31 2558.58,-984.7 2557,-983 2536.34,-960.69 2558.53,-940.3 2539,-917 2504.26,-875.56 2479.76,-883.65 2429,-865 2080.38,-736.9 1990.21,-696.64 1622,-648 1487.5,-630.23 1330.64,-651.22 1234.19,-668.87"/>
<polygon fill="black" stroke="black" points="1233.38,-665.46 1224.18,-670.73 1234.65,-672.34 1233.38,-665.46"/>
<text text-anchor="start" x="1855.5" y="-699.8" font-family="arial" font-size="14.00" fill="#377eb8">true</text>
</g>
<!-- ID_11_ct1_st01235&#45;&gt;ID_11_ct1_st0235 -->
<g id="edge62" class="edge">
<title>ID_11_ct1_st01235&#45;&gt;ID_11_ct1_st0235</title>
<path fill="none" stroke="black" d="M2727.22,-1011.42C2770.79,-1010.17 2824.81,-1007.95 2873,-1004 2875.54,-1003.79 2878.11,-1003.57 2880.71,-1003.33"/>
<polygon fill="black" stroke="black" points="2881.18,-1006.8 2890.8,-1002.35 2880.51,-999.83 2881.18,-1006.8"/>
<text text-anchor="start" x="2790" y="-1013.8" font-family="arial" font-size="14.00" fill="#377eb8">c0 &lt; 5</text>
</g>
<!-- ID_11_ct1_st01235&#45;&gt;ID_11_ct1_st0236 -->
<g id="edge61" class="edge">
<title>ID_11_ct1_st01235&#45;&gt;ID_11_ct1_st0236</title>
<path fill="none" stroke="black" d="M2596.15,-1038C2581.72,-1048.08 2566.91,-1060.92 2557,-1076 2538.17,-1104.65 2560.46,-1124.27 2539,-1151 2453.27,-1257.8 2375.8,-1209.8 2262,-1286 2253.11,-1291.96 2253.54,-1297.14 2244,-1302 2192.11,-1328.43 2170.48,-1309.42 2116,-1330 2107.44,-1333.23 2106.16,-1335.85 2098,-1340 2091.7,-1343.21 2085.08,-1346.47 2078.44,-1349.66"/>
<polygon fill="black" stroke="black" points="2076.92,-1346.51 2069.4,-1353.97 2079.93,-1352.83 2076.92,-1346.51"/>
<text text-anchor="start" x="2303" y="-1304.8" font-family="arial" font-size="14.00" fill="#377eb8">(Q&#39; || c0 &gt;= 5)</text>
<text text-anchor="start" x="2326.5" y="-1289.8" font-family="arial" font-size="14.00">c1 :=0</text>
</g>
<!-- ID_11_ct1_st01235&#45;&gt;ID_11_ct1_st02356 -->
<g id="edge63" class="edge">
<title>ID_11_ct1_st01235&#45;&gt;ID_11_ct1_st02356</title>
<path fill="none" stroke="black" d="M2721.26,-987.77C2723.26,-986.27 2725.18,-984.68 2727,-983 2741.32,-969.78 2732.21,-957.71 2745,-943 2795.32,-885.12 2820.93,-882.18 2891,-851 3196.05,-715.27 3294.44,-743.74 3614,-647 3619.23,-645.42 3624.61,-643.76 3630.02,-642.07"/>
<polygon fill="black" stroke="black" points="3631.3,-645.34 3639.79,-639 3629.2,-638.66 3631.3,-645.34"/>
<text text-anchor="start" x="3231" y="-751.8" font-family="arial" font-size="14.00" fill="#377eb8">c0 &lt; 5</text>
</g>
<!-- ID_11_ct1_st01235&#45;&gt;ID_11_ct1_st01236 -->
<g id="edge68" class="edge">
<title>ID_11_ct1_st01235&#45;&gt;ID_11_ct1_st01236</title>
<path fill="none" stroke="black" d="M2556.99,-1033.78C2550.91,-1035.23 2544.86,-1036.65 2539,-1038 2416.26,-1066.33 2377.05,-1046.71 2262,-1098 2252.99,-1102.02 2253.37,-1107.9 2244,-1111 2182.39,-1131.39 2162.89,-1112.56 2098,-1113 2022.45,-1113.52 2003.43,-1117.38 1928,-1113 1881.99,-1110.33 1869.97,-1111.11 1825,-1101 1817.42,-1099.3 1809.61,-1097.23 1801.85,-1094.97"/>
<polygon fill="black" stroke="black" points="1802.65,-1091.55 1792.06,-1092.01 1800.62,-1098.25 1802.65,-1091.55"/>
<text text-anchor="start" x="2137.5" y="-1138.8" font-family="arial" font-size="14.00" fill="#377eb8">(Q&#39; || c0 &gt;= 5)</text>
<text text-anchor="start" x="2161" y="-1123.8" font-family="arial" font-size="14.00">c1 :=0</text>
</g>
<!-- ID_11_ct1_st01235&#45;&gt;ID_11_ct1_st01235 -->
<g id="edge69" class="edge">
<title>ID_11_ct1_st01235&#45;&gt;ID_11_ct1_st01235</title>
<path fill="none" stroke="black" d="M2614.36,-1038.18C2613.13,-1047.91 2622.34,-1056 2642,-1056 2654.29,-1056 2662.49,-1052.84 2666.62,-1048.09"/>
<polygon fill="black" stroke="black" points="2670.07,-1048.76 2669.64,-1038.18 2663.38,-1046.72 2670.07,-1048.76"/>
<text text-anchor="start" x="2623" y="-1059.8" font-family="arial" font-size="14.00" fill="#377eb8">c0 &lt; 5</text>
</g>
<!-- ID_11_ct1_st01235&#45;&gt;ID_11_ct1_st012356 -->
<g id="edge70" class="edge">
<title>ID_11_ct1_st01235&#45;&gt;ID_11_ct1_st012356</title>
<path fill="none" stroke="black" d="M2567.26,-987.85C2563.76,-986.29 2560.32,-984.67 2557,-983 2548.41,-978.68 2547.3,-975.86 2539,-971 2491.65,-943.29 2480.99,-932.52 2429,-915 2110.56,-807.66 1708.14,-780.32 1529.37,-773.37"/>
<polygon fill="black" stroke="black" points="1529.34,-769.87 1519.22,-772.99 1529.08,-776.86 1529.34,-769.87"/>
<text text-anchor="start" x="1994" y="-835.8" font-family="arial" font-size="14.00" fill="#377eb8">c0 &lt; 5</text>
</g>
<!-- ID_11_ct1_st012356&#45;&gt;ID_11_ct1_st0 -->
<g id="edge119" class="edge">
<title>ID_11_ct1_st012356&#45;&gt;ID_11_ct1_st0</title>
<path fill="none" stroke="black" d="M1351.9,-782.76C1293.76,-790.04 1214.03,-798 1143.5,-798 386.5,-798 386.5,-798 386.5,-798 339.28,-798 320.28,-793.02 283,-822 246.82,-850.12 226.22,-900.27 215.83,-934.07"/>
<polygon fill="black" stroke="black" points="212.38,-933.42 212.93,-944 219.1,-935.38 212.38,-933.42"/>
<text text-anchor="start" x="745" y="-801.8" font-family="arial" font-size="14.00" fill="#377eb8">Q&#39;</text>
</g>
<!-- ID_11_ct1_st012356&#45;&gt;ID_11_ct1_st01 -->
<g id="edge123" class="edge">
<title>ID_11_ct1_st012356&#45;&gt;ID_11_ct1_st01</title>
<path fill="none" stroke="black" d="M1390.06,-796.04C1318.25,-836.06 1171.72,-915.82 1043,-974 943.5,-1018.97 919.08,-1033.31 814,-1063 738.79,-1084.25 526.42,-1074.08 468,-1126 402.93,-1183.83 390.39,-1293.41 388.44,-1349.69"/>
<polygon fill="black" stroke="black" points="384.94,-1349.79 388.19,-1359.88 391.94,-1349.97 384.94,-1349.79"/>
<text text-anchor="start" x="832" y="-1060.8" font-family="arial" font-size="14.00" fill="#377eb8">true</text>
</g>
<!-- ID_11_ct1_st012356&#45;&gt;ID_11_ct1_st02456 -->
<g id="edge120" class="edge">
<title>ID_11_ct1_st012356&#45;&gt;ID_11_ct1_st02456</title>
<path fill="none" stroke="black" d="M1449.3,-796.06C1468.31,-834.64 1503.44,-911.43 1519,-981 1525.66,-1010.77 1517.47,-1231.56 1537,-1255 1576.16,-1302.01 1764.7,-1264.79 1807,-1309 1852.5,-1356.56 1778.1,-1409.82 1825,-1456 1849.69,-1480.31 2062.54,-1469.66 2098,-1467 2213.09,-1458.38 3009.08,-1308 3124.5,-1308 3124.5,-1308 3124.5,-1308 3718,-1308 3780.65,-1308 3848.86,-1285.56 3896.58,-1265.92"/>
<polygon fill="black" stroke="black" points="3897.98,-1269.13 3905.85,-1262.03 3895.27,-1262.67 3897.98,-1269.13"/>
<text text-anchor="start" x="2797" y="-1364.8" font-family="arial" font-size="14.00" fill="#377eb8">true</text>
</g>
<!-- ID_11_ct1_st012356&#45;&gt;ID_11_ct1_st012456 -->
<g id="edge124" class="edge">
<title>ID_11_ct1_st012356&#45;&gt;ID_11_ct1_st012456</title>
<path fill="none" stroke="black" d="M1351.73,-761.69C1317.25,-756.46 1277.13,-748.57 1242,-737 1226.82,-732 1211.04,-725.03 1196.68,-717.92"/>
<polygon fill="black" stroke="black" points="1197.96,-714.65 1187.46,-713.24 1194.8,-720.89 1197.96,-714.65"/>
<text text-anchor="start" x="1276" y="-762.8" font-family="arial" font-size="14.00" fill="#377eb8">true</text>
</g>
<!-- ID_11_ct1_st012356&#45;&gt;ID_11_ct1_st0236 -->
<g id="edge121" class="edge">
<title>ID_11_ct1_st012356&#45;&gt;ID_11_ct1_st0236</title>
<path fill="none" stroke="black" d="M1446.13,-796.2C1462.49,-837.93 1497.76,-923.47 1537,-991 1576.35,-1058.72 1584.25,-1078.98 1640,-1134 1704.5,-1197.66 1749.55,-1180.91 1807,-1251 1819.62,-1266.39 1811.08,-1277.78 1825,-1292 1850.53,-1318.09 1885.38,-1337.2 1918.07,-1350.74"/>
<polygon fill="black" stroke="black" points="1917.1,-1354.12 1927.68,-1354.6 1919.7,-1347.63 1917.1,-1354.12"/>
<text text-anchor="start" x="1681" y="-1269.8" font-family="arial" font-size="14.00" fill="#377eb8">(Q&#39; || c0 &gt;= 5)</text>
<text text-anchor="start" x="1704.5" y="-1254.8" font-family="arial" font-size="14.00">c1 :=0</text>
</g>
<!-- ID_11_ct1_st012356&#45;&gt;ID_11_ct1_st02356 -->
<g id="edge122" class="edge">
<title>ID_11_ct1_st012356&#45;&gt;ID_11_ct1_st02356</title>
<path fill="none" stroke="black" d="M1487.24,-745.92C1502.98,-738.65 1520.52,-731.05 1537,-725 1703.26,-663.96 1752.94,-674.9 1928,-648 2167.34,-611.22 2958.5,-503 2977,-503 2977,-503 2977,-503 3474,-503 3551.02,-503 3630.3,-550.03 3676.27,-582.86"/>
<polygon fill="black" stroke="black" points="3674.31,-585.76 3684.46,-588.81 3678.43,-580.1 3674.31,-585.76"/>
<text text-anchor="start" x="2623" y="-562.8" font-family="arial" font-size="14.00" fill="#377eb8">c0 &lt; 5</text>
</g>
<!-- ID_11_ct1_st012356&#45;&gt;ID_11_ct1_st01236 -->
<g id="edge125" class="edge">
<title>ID_11_ct1_st012356&#45;&gt;ID_11_ct1_st01236</title>
<path fill="none" stroke="black" d="M1462.36,-796.22C1498.54,-831.67 1566.1,-898.45 1622,-957 1646.45,-982.61 1673.48,-1012.28 1693.34,-1034.34"/>
<polygon fill="black" stroke="black" points="1690.77,-1036.71 1700.06,-1041.81 1695.98,-1032.03 1690.77,-1036.71"/>
<text text-anchor="start" x="1537" y="-975.8" font-family="arial" font-size="14.00" fill="#377eb8">(Q&#39; || c0 &gt;= 5)</text>
<text text-anchor="start" x="1560.5" y="-960.8" font-family="arial" font-size="14.00">c1 :=0</text>
</g>
<!-- ID_11_ct1_st012356&#45;&gt;ID_11_ct1_st012356 -->
<g id="edge126" class="edge">
<title>ID_11_ct1_st012356&#45;&gt;ID_11_ct1_st012356</title>
<path fill="none" stroke="black" d="M1408.61,-796.18C1407.41,-805.91 1416.38,-814 1435.5,-814 1447.45,-814 1455.44,-810.84 1459.45,-806.09"/>
<polygon fill="black" stroke="black" points="1462.91,-806.76 1462.39,-796.18 1456.2,-804.77 1462.91,-806.76"/>
<text text-anchor="start" x="1416.5" y="-817.8" font-family="arial" font-size="14.00" fill="#377eb8">c0 &lt; 5</text>
</g>
</g>
</svg>
