<?xml version="1.0" encoding="UTF-8" standalone="no"?>
<!DOCTYPE svg PUBLIC "-//W3C//DTD SVG 1.1//EN"
 "http://www.w3.org/Graphics/SVG/1.1/DTD/svg11.dtd">
<!-- Generated by graphviz version 2.43.0 (0)
 -->
<!-- Title: G Pages: 1 -->
<svg width="1135pt" height="310pt"
 viewBox="0.00 0.00 1135.00 310.00" xmlns="http://www.w3.org/2000/svg" xmlns:xlink="http://www.w3.org/1999/xlink">
<g id="graph0" class="graph" transform="scale(1 1) rotate(0) translate(4 306)">
<title>G</title>
<polygon fill="white" stroke="transparent" points="-4,4 -4,-306 1131,-306 1131,4 -4,4"/>
<!-- _ID_47_ct0_st -->
<!-- ID_47_ct0_st -->
<g id="node2" class="node">
<title>ID_47_ct0_st</title>
<polygon fill="none" stroke="black" points="1127,-195 1028,-195 1028,-145 1127,-145 1127,-195"/>
<text text-anchor="start" x="1036" y="-180.8" font-family="arial" font-weight="bold" font-size="14.00">ID_47_ct0_st</text>
<text text-anchor="start" x="1065.5" y="-166.8" font-family="arial" font-size="14.00" fill="#984ea3">true</text>
<text text-anchor="start" x="1065.5" y="-152.8" font-family="arial" font-size="14.00" fill="#ff7f00">true</text>
</g>
<!-- _ID_47_ct0_st&#45;&gt;ID_47_ct0_st -->
<g id="edge1" class="edge">
<title>_ID_47_ct0_st&#45;&gt;ID_47_ct0_st</title>
<path fill="none" stroke="black" d="M970.04,-271.55C983.76,-266.78 998.09,-260.39 1010,-252 1028.25,-239.14 1044.18,-219.97 1055.87,-203.39"/>
<polygon fill="black" stroke="black" points="1058.85,-205.24 1061.59,-195 1053.07,-201.29 1058.85,-205.24"/>
</g>
<!-- ID_47_ct0_st&#45;&gt;ID_47_ct0_st -->
<g id="edge4" class="edge">
<title>ID_47_ct0_st&#45;&gt;ID_47_ct0_st</title>
<path fill="none" stroke="black" d="M1063.68,-195.18C1063.06,-204.91 1067.67,-213 1077.5,-213 1083.64,-213 1087.75,-209.84 1089.81,-205.09"/>
<polygon fill="black" stroke="black" points="1093.27,-205.59 1091.32,-195.18 1086.35,-204.53 1093.27,-205.59"/>
<text text-anchor="start" x="1065.5" y="-216.8" font-family="arial" font-size="14.00" fill="#377eb8">true</text>
</g>
<!-- _ID_47_ct0_st0 -->
<!-- ID_47_ct0_st0 -->
<g id="node4" class="node">
<title>ID_47_ct0_st0</title>
<polygon fill="none" stroke="black" points="261,-50 154,-50 154,0 261,0 261,-50"/>
<text text-anchor="start" x="162" y="-35.8" font-family="arial" font-weight="bold" font-size="14.00">ID_47_ct0_st0</text>
<text text-anchor="start" x="177" y="-21.8" font-family="arial" font-size="14.00" fill="#984ea3">(!P &amp;&amp; !R)</text>
<text text-anchor="start" x="195.5" y="-7.8" font-family="arial" font-size="14.00" fill="#ff7f00">true</text>
</g>
<!-- _ID_47_ct0_st0&#45;&gt;ID_47_ct0_st0 -->
<g id="edge2" class="edge">
<title>_ID_47_ct0_st0&#45;&gt;ID_47_ct0_st0</title>
<path fill="none" stroke="black" d="M111.08,-25C121.62,-25 132.74,-25 143.52,-25"/>
<polygon fill="black" stroke="black" points="143.72,-28.5 153.72,-25 143.72,-21.5 143.72,-28.5"/>
</g>
<!-- ID_47_ct0_st0&#45;&gt;ID_47_ct0_st -->
<g id="edge5" class="edge">
<title>ID_47_ct0_st0&#45;&gt;ID_47_ct0_st</title>
<path fill="none" stroke="black" d="M261.34,-14.38C295.82,-8.35 341.9,-2 383,-2 383,-2 383,-2 919,-2 946.97,-2 956.72,-4.09 979,-21 1018.34,-50.85 1046.55,-101.46 1062.2,-135.3"/>
<polygon fill="black" stroke="black" points="1059.17,-137.11 1066.46,-144.79 1065.56,-134.24 1059.17,-137.11"/>
<text text-anchor="start" x="638.5" y="-5.8" font-family="arial" font-size="14.00" fill="#377eb8">P&#39;</text>
</g>
<!-- ID_47_ct0_st0&#45;&gt;ID_47_ct0_st0 -->
<g id="edge6" class="edge">
<title>ID_47_ct0_st0&#45;&gt;ID_47_ct0_st0</title>
<path fill="none" stroke="black" d="M192.93,-50.18C192.28,-59.91 197.14,-68 207.5,-68 213.97,-68 218.3,-64.84 220.47,-60.09"/>
<polygon fill="black" stroke="black" points="223.94,-60.6 222.07,-50.18 217.03,-59.49 223.94,-60.6"/>
<text text-anchor="start" x="195.5" y="-71.8" font-family="arial" font-size="14.00" fill="#377eb8">true</text>
</g>
<!-- ID_47_ct0_st01 -->
<g id="node6" class="node">
<title>ID_47_ct0_st01</title>
<polygon fill="none" stroke="black" points="441,-166 327,-166 327,-116 441,-116 441,-166"/>
<text text-anchor="start" x="335" y="-151.8" font-family="arial" font-weight="bold" font-size="14.00">ID_47_ct0_st01</text>
<text text-anchor="start" x="355" y="-137.8" font-family="arial" font-size="14.00" fill="#984ea3">(!P &amp;&amp; R)</text>
<text text-anchor="start" x="372" y="-123.8" font-family="arial" font-size="14.00" fill="#ff7f00">true</text>
</g>
<!-- ID_47_ct0_st0&#45;&gt;ID_47_ct0_st01 -->
<g id="edge7" class="edge">
<title>ID_47_ct0_st0&#45;&gt;ID_47_ct0_st01</title>
<path fill="none" stroke="black" d="M246.36,-50.17C272.89,-67.8 308.5,-91.47 336.71,-110.23"/>
<polygon fill="black" stroke="black" points="334.94,-113.26 345.21,-115.88 338.82,-107.43 334.94,-113.26"/>
<text text-anchor="start" x="285" y="-92.8" font-family="arial" font-size="14.00" fill="#377eb8">true</text>
</g>
<!-- _ID_47_ct0_st01 -->
<!-- _ID_47_ct0_st01&#45;&gt;ID_47_ct0_st01 -->
<g id="edge3" class="edge">
<title>_ID_47_ct0_st01&#45;&gt;ID_47_ct0_st01</title>
<path fill="none" stroke="black" d="M267.09,-141C283.08,-141 300.51,-141 316.89,-141"/>
<polygon fill="black" stroke="black" points="316.93,-144.5 326.93,-141 316.93,-137.5 316.93,-144.5"/>
</g>
<!-- ID_47_ct0_st01&#45;&gt;ID_47_ct0_st -->
<g id="edge8" class="edge">
<title>ID_47_ct0_st01&#45;&gt;ID_47_ct0_st</title>
<path fill="none" stroke="black" d="M410.18,-166.23C441.66,-194.97 498.55,-238 557,-238 557,-238 557,-238 919,-238 959.8,-238 1002.03,-218.53 1032.48,-200.43"/>
<polygon fill="black" stroke="black" points="1034.44,-203.33 1041.14,-195.13 1030.78,-197.36 1034.44,-203.33"/>
<text text-anchor="start" x="729.5" y="-241.8" font-family="arial" font-size="14.00" fill="#377eb8">P&#39;</text>
</g>
<!-- ID_47_ct0_st01&#45;&gt;ID_47_ct0_st01 -->
<g id="edge10" class="edge">
<title>ID_47_ct0_st01&#45;&gt;ID_47_ct0_st01</title>
<path fill="none" stroke="black" d="M367.94,-166.18C367.22,-175.91 372.58,-184 384,-184 391.14,-184 395.91,-180.84 398.31,-176.09"/>
<polygon fill="black" stroke="black" points="401.76,-176.63 400.06,-166.18 394.87,-175.41 401.76,-176.63"/>
<text text-anchor="start" x="372" y="-187.8" font-family="arial" font-size="14.00" fill="#377eb8">true</text>
</g>
<!-- ID_47_ct0_st02 -->
<g id="node7" class="node">
<title>ID_47_ct0_st02</title>
<polygon fill="none" stroke="black" points="615,-166 501,-166 501,-116 615,-116 615,-166"/>
<text text-anchor="start" x="509" y="-151.8" font-family="arial" font-weight="bold" font-size="14.00">ID_47_ct0_st02</text>
<text text-anchor="start" x="527.5" y="-137.8" font-family="arial" font-size="14.00" fill="#984ea3">(!P &amp;&amp; !R)</text>
<text text-anchor="start" x="546" y="-123.8" font-family="arial" font-size="14.00" fill="#ff7f00">true</text>
</g>
<!-- ID_47_ct0_st01&#45;&gt;ID_47_ct0_st02 -->
<g id="edge9" class="edge">
<title>ID_47_ct0_st01&#45;&gt;ID_47_ct0_st02</title>
<path fill="none" stroke="black" d="M441.32,-141C457.14,-141 474.49,-141 490.83,-141"/>
<polygon fill="black" stroke="black" points="490.85,-144.5 500.85,-141 490.85,-137.5 490.85,-144.5"/>
<text text-anchor="start" x="459" y="-144.8" font-family="arial" font-size="14.00" fill="#377eb8">true</text>
</g>
<!-- ID_47_ct0_st02&#45;&gt;ID_47_ct0_st -->
<g id="edge11" class="edge">
<title>ID_47_ct0_st02&#45;&gt;ID_47_ct0_st</title>
<path fill="none" stroke="black" d="M615.01,-159.72C633.84,-165.14 655.13,-170.31 675,-173 795.81,-189.36 938.95,-181.96 1017.52,-175.64"/>
<polygon fill="black" stroke="black" points="1018.03,-179.11 1027.7,-174.79 1017.45,-172.13 1018.03,-179.11"/>
<text text-anchor="start" x="820.5" y="-185.8" font-family="arial" font-size="14.00" fill="#377eb8">P&#39;</text>
</g>
<!-- ID_47_ct0_st02&#45;&gt;ID_47_ct0_st02 -->
<g id="edge12" class="edge">
<title>ID_47_ct0_st02&#45;&gt;ID_47_ct0_st02</title>
<path fill="none" stroke="black" d="M541.94,-166.18C541.22,-175.91 546.58,-184 558,-184 565.14,-184 569.91,-180.84 572.31,-176.09"/>
<polygon fill="black" stroke="black" points="575.76,-176.63 574.06,-166.18 568.87,-175.41 575.76,-176.63"/>
<text text-anchor="start" x="546" y="-187.8" font-family="arial" font-size="14.00" fill="#377eb8">true</text>
</g>
<!-- ID_47_ct0_st013 -->
<g id="node8" class="node">
<title>ID_47_ct0_st013</title>
<polygon fill="none" stroke="black" points="797,-131 675,-131 675,-81 797,-81 797,-131"/>
<text text-anchor="start" x="683" y="-116.8" font-family="arial" font-weight="bold" font-size="14.00">ID_47_ct0_st013</text>
<text text-anchor="start" x="707" y="-102.8" font-family="arial" font-size="14.00" fill="#984ea3">(!P &amp;&amp; R)</text>
<text text-anchor="start" x="724" y="-88.8" font-family="arial" font-size="14.00" fill="#ff7f00">true</text>
</g>
<!-- ID_47_ct0_st02&#45;&gt;ID_47_ct0_st013 -->
<g id="edge13" class="edge">
<title>ID_47_ct0_st02&#45;&gt;ID_47_ct0_st013</title>
<path fill="none" stroke="black" d="M615.17,-129.83C630.92,-126.7 648.23,-123.25 664.69,-119.98"/>
<polygon fill="black" stroke="black" points="665.68,-123.35 674.8,-117.97 664.31,-116.49 665.68,-123.35"/>
<text text-anchor="start" x="633" y="-128.8" font-family="arial" font-size="14.00" fill="#377eb8">true</text>
</g>
<!-- ID_47_ct0_st013&#45;&gt;ID_47_ct0_st -->
<g id="edge14" class="edge">
<title>ID_47_ct0_st013&#45;&gt;ID_47_ct0_st</title>
<path fill="none" stroke="black" d="M797.3,-117.37C859.58,-129.11 956.1,-147.3 1017.78,-158.93"/>
<polygon fill="black" stroke="black" points="1017.27,-162.4 1027.75,-160.81 1018.57,-155.52 1017.27,-162.4"/>
<text text-anchor="start" x="911.5" y="-154.8" font-family="arial" font-size="14.00" fill="#377eb8">P&#39;</text>
</g>
<!-- ID_47_ct0_st013&#45;&gt;ID_47_ct0_st013 -->
<g id="edge16" class="edge">
<title>ID_47_ct0_st013&#45;&gt;ID_47_ct0_st013</title>
<path fill="none" stroke="black" d="M719.19,-131.18C718.44,-140.91 724.05,-149 736,-149 743.47,-149 748.46,-145.84 750.97,-141.09"/>
<polygon fill="black" stroke="black" points="754.43,-141.65 752.81,-131.18 747.54,-140.37 754.43,-141.65"/>
<text text-anchor="start" x="724" y="-152.8" font-family="arial" font-size="14.00" fill="#377eb8">true</text>
</g>
<!-- ID_47_ct0_st024 -->
<g id="node9" class="node">
<title>ID_47_ct0_st024</title>
<polygon fill="none" stroke="black" points="979,-80 857,-80 857,-30 979,-30 979,-80"/>
<text text-anchor="start" x="865" y="-65.8" font-family="arial" font-weight="bold" font-size="14.00">ID_47_ct0_st024</text>
<text text-anchor="start" x="887.5" y="-51.8" font-family="arial" font-size="14.00" fill="#984ea3">(!P &amp;&amp; !R)</text>
<text text-anchor="start" x="906" y="-37.8" font-family="arial" font-size="14.00" fill="#ff7f00">true</text>
</g>
<!-- ID_47_ct0_st013&#45;&gt;ID_47_ct0_st024 -->
<g id="edge15" class="edge">
<title>ID_47_ct0_st013&#45;&gt;ID_47_ct0_st024</title>
<path fill="none" stroke="black" d="M797.19,-88.95C813.1,-84.44 830.41,-79.53 846.8,-74.89"/>
<polygon fill="black" stroke="black" points="848.2,-78.13 856.87,-72.04 846.29,-71.4 848.2,-78.13"/>
<text text-anchor="start" x="815" y="-86.8" font-family="arial" font-size="14.00" fill="#377eb8">true</text>
</g>
<!-- ID_47_ct0_st024&#45;&gt;ID_47_ct0_st -->
<g id="edge17" class="edge">
<title>ID_47_ct0_st024&#45;&gt;ID_47_ct0_st</title>
<path fill="none" stroke="black" d="M954.58,-80.11C971.45,-92.09 991.84,-106.69 1010,-120 1018.21,-126.02 1026.95,-132.52 1035.29,-138.77"/>
<polygon fill="black" stroke="black" points="1033.37,-141.71 1043.47,-144.92 1037.58,-136.11 1033.37,-141.71"/>
<text text-anchor="start" x="997" y="-123.8" font-family="arial" font-size="14.00" fill="#377eb8">P&#39;</text>
</g>
<!-- ID_47_ct0_st024&#45;&gt;ID_47_ct0_st024 -->
<g id="edge18" class="edge">
<title>ID_47_ct0_st024&#45;&gt;ID_47_ct0_st024</title>
<path fill="none" stroke="black" d="M902.31,-80.18C901.61,-89.91 906.84,-98 918,-98 924.97,-98 929.63,-94.84 931.97,-90.09"/>
<polygon fill="black" stroke="black" points="935.43,-90.63 933.69,-80.18 928.53,-89.43 935.43,-90.63"/>
<text text-anchor="start" x="906" y="-101.8" font-family="arial" font-size="14.00" fill="#377eb8">true</text>
</g>
</g>
</svg>
