<?xml version="1.0" encoding="UTF-8" standalone="no"?>
<!DOCTYPE svg PUBLIC "-//W3C//DTD SVG 1.1//EN"
 "http://www.w3.org/Graphics/SVG/1.1/DTD/svg11.dtd">
<!-- Generated by graphviz version 2.43.0 (0)
 -->
<!-- Title: G Pages: 1 -->
<svg width="449pt" height="150pt"
 viewBox="0.00 0.00 449.00 150.00" xmlns="http://www.w3.org/2000/svg" xmlns:xlink="http://www.w3.org/1999/xlink">
<g id="graph0" class="graph" transform="scale(1 1) rotate(0) translate(4 146)">
<title>G</title>
<polygon fill="white" stroke="transparent" points="-4,4 -4,-146 445,-146 445,4 -4,4"/>
<!-- _ID_50_ct0_st0 -->
<!-- ID_50_ct0_st0 -->
<g id="node2" class="node">
<title>ID_50_ct0_st0</title>
<polygon fill="none" stroke="black" points="261,-109 154,-109 154,-59 261,-59 261,-109"/>
<text text-anchor="start" x="162" y="-94.8" font-family="arial" font-weight="bold" font-size="14.00">ID_50_ct0_st0</text>
<text text-anchor="start" x="201" y="-80.8" font-family="arial" font-size="14.00" fill="#984ea3">!P</text>
<text text-anchor="start" x="195.5" y="-66.8" font-family="arial" font-size="14.00" fill="#ff7f00">true</text>
</g>
<!-- _ID_50_ct0_st0&#45;&gt;ID_50_ct0_st0 -->
<g id="edge1" class="edge">
<title>_ID_50_ct0_st0&#45;&gt;ID_50_ct0_st0</title>
<path fill="none" stroke="black" d="M111.08,-84C121.62,-84 132.74,-84 143.52,-84"/>
<polygon fill="black" stroke="black" points="143.72,-87.5 153.72,-84 143.72,-80.5 143.72,-87.5"/>
</g>
<!-- ID_50_ct0_st0&#45;&gt;ID_50_ct0_st0 -->
<g id="edge3" class="edge">
<title>ID_50_ct0_st0&#45;&gt;ID_50_ct0_st0</title>
<path fill="none" stroke="black" d="M192.93,-109.18C192.28,-118.91 197.14,-127 207.5,-127 213.97,-127 218.3,-123.84 220.47,-119.09"/>
<polygon fill="black" stroke="black" points="223.94,-119.6 222.07,-109.18 217.03,-118.49 223.94,-119.6"/>
<text text-anchor="start" x="195.5" y="-130.8" font-family="arial" font-size="14.00" fill="#377eb8">true</text>
</g>
<!-- ID_50_ct0_st01 -->
<g id="node4" class="node">
<title>ID_50_ct0_st01</title>
<polygon fill="none" stroke="black" points="441,-76 327,-76 327,-26 441,-26 441,-76"/>
<text text-anchor="start" x="335" y="-61.8" font-family="arial" font-weight="bold" font-size="14.00">ID_50_ct0_st01</text>
<text text-anchor="start" x="357" y="-47.8" font-family="arial" font-size="14.00" fill="#984ea3">(P &amp;&amp; R)</text>
<text text-anchor="start" x="372" y="-33.8" font-family="arial" font-size="14.00" fill="#ff7f00">true</text>
</g>
<!-- ID_50_ct0_st0&#45;&gt;ID_50_ct0_st01 -->
<g id="edge4" class="edge">
<title>ID_50_ct0_st0&#45;&gt;ID_50_ct0_st01</title>
<path fill="none" stroke="black" d="M261,-75.58C276.49,-72.97 293.45,-70 309,-67 311.63,-66.49 314.31,-65.97 317.02,-65.42"/>
<polygon fill="black" stroke="black" points="317.79,-68.84 326.89,-63.41 316.4,-61.98 317.79,-68.84"/>
<text text-anchor="start" x="285" y="-75.8" font-family="arial" font-size="14.00" fill="#377eb8">true</text>
</g>
<!-- _ID_50_ct0_st01 -->
<!-- _ID_50_ct0_st01&#45;&gt;ID_50_ct0_st01 -->
<g id="edge2" class="edge">
<title>_ID_50_ct0_st01&#45;&gt;ID_50_ct0_st01</title>
<path fill="none" stroke="black" d="M267.14,-25.03C280.92,-27 295.52,-29.34 309,-32 311.65,-32.52 314.35,-33.08 317.08,-33.67"/>
<polygon fill="black" stroke="black" points="316.46,-37.12 326.99,-35.91 318.01,-30.29 316.46,-37.12"/>
</g>
<!-- ID_50_ct0_st01&#45;&gt;ID_50_ct0_st0 -->
<g id="edge5" class="edge">
<title>ID_50_ct0_st01&#45;&gt;ID_50_ct0_st0</title>
<path fill="none" stroke="black" d="M326.83,-44.49C313.03,-44.2 298.37,-45.01 285,-48 277.71,-49.63 270.3,-52.03 263.1,-54.84"/>
<polygon fill="black" stroke="black" points="261.32,-51.79 253.45,-58.88 264.02,-58.25 261.32,-51.79"/>
<text text-anchor="start" x="290.5" y="-51.8" font-family="arial" font-size="14.00" fill="#377eb8">R&#39;</text>
</g>
<!-- ID_50_ct0_st01&#45;&gt;ID_50_ct0_st01 -->
<g id="edge6" class="edge">
<title>ID_50_ct0_st01&#45;&gt;ID_50_ct0_st01</title>
<path fill="none" stroke="black" d="M367.94,-76.18C367.22,-85.91 372.58,-94 384,-94 391.14,-94 395.91,-90.84 398.31,-86.09"/>
<polygon fill="black" stroke="black" points="401.76,-86.63 400.06,-76.18 394.87,-85.41 401.76,-86.63"/>
<text text-anchor="start" x="372" y="-97.8" font-family="arial" font-size="14.00" fill="#377eb8">true</text>
</g>
</g>
</svg>
