<?xml version="1.0" encoding="UTF-8" standalone="no"?>
<!DOCTYPE svg PUBLIC "-//W3C//DTD SVG 1.1//EN"
 "http://www.w3.org/Graphics/SVG/1.1/DTD/svg11.dtd">
<!-- Generated by graphviz version 2.43.0 (0)
 -->
<!-- Title: G Pages: 1 -->
<svg width="233pt" height="91pt"
 viewBox="0.00 0.00 233.00 91.00" xmlns="http://www.w3.org/2000/svg" xmlns:xlink="http://www.w3.org/1999/xlink">
<g id="graph0" class="graph" transform="scale(1 1) rotate(0) translate(4 87)">
<title>G</title>
<polygon fill="white" stroke="transparent" points="-4,4 -4,-87 229,-87 229,4 -4,4"/>
<!-- _ID_9_ct0_st -->
<!-- ID_9_ct0_st -->
<g id="node2" class="node">
<title>ID_9_ct0_st</title>
<polygon fill="none" stroke="black" points="225,-50 133,-50 133,0 225,0 225,-50"/>
<text text-anchor="start" x="141" y="-35.8" font-family="arial" font-weight="bold" font-size="14.00">ID_9_ct0_st</text>
<text text-anchor="start" x="167" y="-21.8" font-family="arial" font-size="14.00" fill="#984ea3">true</text>
<text text-anchor="start" x="167" y="-7.8" font-family="arial" font-size="14.00" fill="#ff7f00">true</text>
</g>
<!-- _ID_9_ct0_st&#45;&gt;ID_9_ct0_st -->
<g id="edge1" class="edge">
<title>_ID_9_ct0_st&#45;&gt;ID_9_ct0_st</title>
<path fill="none" stroke="black" d="M96.3,-25C104.88,-25 113.9,-25 122.68,-25"/>
<polygon fill="black" stroke="black" points="122.85,-28.5 132.85,-25 122.85,-21.5 122.85,-28.5"/>
</g>
<!-- ID_9_ct0_st&#45;&gt;ID_9_ct0_st -->
<g id="edge2" class="edge">
<title>ID_9_ct0_st&#45;&gt;ID_9_ct0_st</title>
<path fill="none" stroke="black" d="M167.05,-50.18C166.52,-59.91 170.5,-68 179,-68 184.31,-68 187.86,-64.84 189.65,-60.09"/>
<polygon fill="black" stroke="black" points="193.12,-60.55 190.95,-50.18 186.18,-59.63 193.12,-60.55"/>
<text text-anchor="start" x="167" y="-71.8" font-family="arial" font-size="14.00" fill="#377eb8">true</text>
</g>
</g>
</svg>
