<?xml version="1.0" encoding="UTF-8" standalone="no"?>
<!DOCTYPE svg PUBLIC "-//W3C//DTD SVG 1.1//EN"
 "http://www.w3.org/Graphics/SVG/1.1/DTD/svg11.dtd">
<!-- Generated by graphviz version 2.43.0 (0)
 -->
<!-- Title: G Pages: 1 -->
<svg width="153pt" height="91pt"
 viewBox="0.00 0.00 153.00 91.00" xmlns="http://www.w3.org/2000/svg" xmlns:xlink="http://www.w3.org/1999/xlink">
<g id="graph0" class="graph" transform="scale(1 1) rotate(0) translate(4 87)">
<title>G</title>
<polygon fill="white" stroke="transparent" points="-4,4 -4,-87 149,-87 149,4 -4,4"/>
<!-- _st0 -->
<!-- st0 -->
<g id="node2" class="node">
<title>st0</title>
<polygon fill="none" stroke="black" points="145,-50 91,-50 91,0 145,0 145,-50"/>
<text text-anchor="start" x="108" y="-35.8" font-family="arial" font-weight="bold" font-size="14.00">st0</text>
<text text-anchor="start" x="110" y="-21.8" font-family="arial" font-size="14.00" fill="#984ea3">!Q</text>
<text text-anchor="start" x="106" y="-7.8" font-family="arial" font-size="14.00" fill="#ff7f00">true</text>
</g>
<!-- _st0&#45;&gt;st0 -->
<g id="edge1" class="edge">
<title>_st0&#45;&gt;st0</title>
<path fill="none" stroke="black" d="M54.22,-25C62.55,-25 71.91,-25 80.82,-25"/>
<polygon fill="black" stroke="black" points="80.97,-28.5 90.97,-25 80.97,-21.5 80.97,-28.5"/>
</g>
<!-- st0&#45;&gt;st0 -->
<g id="edge2" class="edge">
<title>st0&#45;&gt;st0</title>
<path fill="none" stroke="black" d="M109.78,-50.18C109.42,-59.91 112.16,-68 118,-68 121.56,-68 123.97,-65 125.22,-60.45"/>
<polygon fill="black" stroke="black" points="128.74,-60.47 126.22,-50.18 121.77,-59.79 128.74,-60.47"/>
<text text-anchor="start" x="106" y="-71.8" font-family="arial" font-size="14.00" fill="#377eb8">true</text>
</g>
</g>
</svg>
