<?xml version="1.0" encoding="UTF-8" standalone="no"?>
<!DOCTYPE svg PUBLIC "-//W3C//DTD SVG 1.1//EN"
 "http://www.w3.org/Graphics/SVG/1.1/DTD/svg11.dtd">
<!-- Generated by graphviz version 2.43.0 (0)
 -->
<!-- Title: G Pages: 1 -->
<svg width="432pt" height="145pt"
 viewBox="0.00 0.00 432.00 145.00" xmlns="http://www.w3.org/2000/svg" xmlns:xlink="http://www.w3.org/1999/xlink">
<g id="graph0" class="graph" transform="scale(1 1) rotate(0) translate(4 141)">
<title>G</title>
<polygon fill="white" stroke="transparent" points="-4,4 -4,-141 428,-141 428,4 -4,4"/>
<!-- _st0 -->
<!-- st0 -->
<g id="node2" class="node">
<title>st0</title>
<polygon fill="none" stroke="black" points="146.5,-104 92.5,-104 92.5,-54 146.5,-54 146.5,-104"/>
<text text-anchor="start" x="109.5" y="-89.8" font-family="arial" font-weight="bold" font-size="14.00">st0</text>
<text text-anchor="start" x="111.5" y="-75.8" font-family="arial" font-size="14.00" fill="#984ea3">!Q</text>
<text text-anchor="start" x="107.5" y="-61.8" font-family="arial" font-size="14.00" fill="#ff7f00">true</text>
</g>
<!-- _st0&#45;&gt;st0 -->
<g id="edge1" class="edge">
<title>_st0&#45;&gt;st0</title>
<path fill="none" stroke="black" d="M54.18,-79C62.9,-79 72.78,-79 82.14,-79"/>
<polygon fill="black" stroke="black" points="82.38,-82.5 92.38,-79 82.38,-75.5 82.38,-82.5"/>
</g>
<!-- st0&#45;&gt;st0 -->
<g id="edge3" class="edge">
<title>st0&#45;&gt;st0</title>
<path fill="none" stroke="black" d="M110.91,-104.18C110.53,-113.91 113.39,-122 119.5,-122 123.22,-122 125.74,-119 127.05,-114.45"/>
<polygon fill="black" stroke="black" points="130.57,-114.48 128.09,-104.18 123.6,-113.77 130.57,-114.48"/>
<text text-anchor="start" x="107.5" y="-125.8" font-family="arial" font-size="14.00" fill="#377eb8">true</text>
</g>
<!-- st012 -->
<g id="node4" class="node">
<title>st012</title>
<polygon fill="none" stroke="black" points="284,-59 208,-59 208,-9 284,-9 284,-59"/>
<text text-anchor="start" x="228.5" y="-44.8" font-family="arial" font-weight="bold" font-size="14.00">st012</text>
<text text-anchor="start" x="216" y="-30.8" font-family="arial" font-size="14.00" fill="#984ea3">(Q &amp;&amp; !R)</text>
<text text-anchor="start" x="234" y="-16.8" font-family="arial" font-size="14.00" fill="#ff7f00">true</text>
</g>
<!-- st0&#45;&gt;st012 -->
<g id="edge4" class="edge">
<title>st0&#45;&gt;st012</title>
<path fill="none" stroke="black" d="M146.6,-69.57C161.52,-64.17 180.68,-57.25 198.12,-50.94"/>
<polygon fill="black" stroke="black" points="199.38,-54.21 207.6,-47.52 197,-47.63 199.38,-54.21"/>
<text text-anchor="start" x="166" y="-65.8" font-family="arial" font-size="14.00" fill="#377eb8">true</text>
</g>
<!-- _st012 -->
<!-- _st012&#45;&gt;st012 -->
<g id="edge2" class="edge">
<title>_st012&#45;&gt;st012</title>
<path fill="none" stroke="black" d="M148.13,-21.55C162.72,-23.43 181.04,-25.78 197.81,-27.94"/>
<polygon fill="black" stroke="black" points="197.63,-31.44 208,-29.24 198.53,-24.5 197.63,-31.44"/>
</g>
<!-- st012&#45;&gt;st012 -->
<g id="edge8" class="edge">
<title>st012&#45;&gt;st012</title>
<path fill="none" stroke="black" d="M233.3,-59.18C232.74,-68.91 236.97,-77 246,-77 251.64,-77 255.41,-73.84 257.31,-69.09"/>
<polygon fill="black" stroke="black" points="260.78,-69.56 258.7,-59.18 253.85,-68.59 260.78,-69.56"/>
<text text-anchor="start" x="234" y="-80.8" font-family="arial" font-size="14.00" fill="#377eb8">true</text>
</g>
<!-- st02 -->
<g id="node5" class="node">
<title>st02</title>
<polygon fill="none" stroke="black" points="424,-59 344,-59 344,-9 424,-9 424,-59"/>
<text text-anchor="start" x="370" y="-44.8" font-family="arial" font-weight="bold" font-size="14.00">st02</text>
<text text-anchor="start" x="352" y="-30.8" font-family="arial" font-size="14.00" fill="#984ea3">(!Q &amp;&amp; !R)</text>
<text text-anchor="start" x="372" y="-16.8" font-family="arial" font-size="14.00" fill="#ff7f00">true</text>
</g>
<!-- st012&#45;&gt;st02 -->
<g id="edge7" class="edge">
<title>st012&#45;&gt;st02</title>
<path fill="none" stroke="black" d="M284.16,-34C299.39,-34 317.23,-34 333.53,-34"/>
<polygon fill="black" stroke="black" points="333.98,-37.5 343.98,-34 333.98,-30.5 333.98,-37.5"/>
<text text-anchor="start" x="302" y="-37.8" font-family="arial" font-size="14.00" fill="#377eb8">true</text>
</g>
<!-- st02&#45;&gt;st012 -->
<g id="edge6" class="edge">
<title>st02&#45;&gt;st012</title>
<path fill="none" stroke="black" d="M343.63,-19.14C330.46,-15.81 315.66,-13.82 302,-16 299.35,-16.42 296.65,-16.95 293.94,-17.57"/>
<polygon fill="black" stroke="black" points="292.99,-14.2 284.18,-20.09 294.74,-20.97 292.99,-14.2"/>
<text text-anchor="start" x="302" y="-19.8" font-family="arial" font-size="14.00" fill="#377eb8">true</text>
</g>
<!-- st02&#45;&gt;st02 -->
<g id="edge5" class="edge">
<title>st02&#45;&gt;st02</title>
<path fill="none" stroke="black" d="M370.93,-59.18C370.35,-68.91 374.7,-77 384,-77 389.81,-77 393.69,-73.84 395.64,-69.09"/>
<polygon fill="black" stroke="black" points="399.11,-69.57 397.07,-59.18 392.18,-68.57 399.11,-69.57"/>
<text text-anchor="start" x="372" y="-80.8" font-family="arial" font-size="14.00" fill="#377eb8">true</text>
</g>
</g>
</svg>
