<?xml version="1.0" encoding="UTF-8" standalone="no"?>
<!DOCTYPE svg PUBLIC "-//W3C//DTD SVG 1.1//EN"
 "http://www.w3.org/Graphics/SVG/1.1/DTD/svg11.dtd">
<!-- Generated by graphviz version 2.43.0 (0)
 -->
<!-- Title: G Pages: 1 -->
<svg width="1597pt" height="360pt"
 viewBox="0.00 0.00 1597.00 360.00" xmlns="http://www.w3.org/2000/svg" xmlns:xlink="http://www.w3.org/1999/xlink">
<g id="graph0" class="graph" transform="scale(1 1) rotate(0) translate(4 356)">
<title>G</title>
<polygon fill="white" stroke="transparent" points="-4,4 -4,-356 1593,-356 1593,4 -4,4"/>
<!-- _ID_8_ct0_st0 -->
<!-- ID_8_ct0_st0 -->
<g id="node2" class="node">
<title>ID_8_ct0_st0</title>
<polygon fill="none" stroke="black" points="250,-92 151,-92 151,-42 250,-42 250,-92"/>
<text text-anchor="start" x="159" y="-77.8" font-family="arial" font-weight="bold" font-size="14.00">ID_8_ct0_st0</text>
<text text-anchor="start" x="176" y="-63.8" font-family="arial" font-size="14.00" fill="#984ea3">(Q || !P)</text>
<text text-anchor="start" x="188.5" y="-49.8" font-family="arial" font-size="14.00" fill="#ff7f00">true</text>
</g>
<!-- _ID_8_ct0_st0&#45;&gt;ID_8_ct0_st0 -->
<g id="edge1" class="edge">
<title>_ID_8_ct0_st0&#45;&gt;ID_8_ct0_st0</title>
<path fill="none" stroke="black" d="M104.24,-67C116.1,-67 128.81,-67 140.96,-67"/>
<polygon fill="black" stroke="black" points="141,-70.5 151,-67 141,-63.5 141,-70.5"/>
</g>
<!-- ID_8_ct0_st0&#45;&gt;ID_8_ct0_st0 -->
<g id="edge4" class="edge">
<title>ID_8_ct0_st0&#45;&gt;ID_8_ct0_st0</title>
<path fill="none" stroke="black" d="M185.93,-92.18C185.28,-101.91 190.14,-110 200.5,-110 206.97,-110 211.3,-106.84 213.47,-102.09"/>
<polygon fill="black" stroke="black" points="216.94,-102.6 215.07,-92.18 210.03,-101.49 216.94,-102.6"/>
<text text-anchor="start" x="188.5" y="-113.8" font-family="arial" font-size="14.00" fill="#377eb8">true</text>
</g>
<!-- ID_8_ct0_st012 -->
<g id="node4" class="node">
<title>ID_8_ct0_st012</title>
<polygon fill="none" stroke="black" points="476,-159 320,-159 320,-109 476,-109 476,-159"/>
<text text-anchor="start" x="349" y="-144.8" font-family="arial" font-weight="bold" font-size="14.00">ID_8_ct0_st012</text>
<text text-anchor="start" x="328" y="-130.8" font-family="arial" font-size="14.00" fill="#984ea3">(P &amp;&amp; (!Q &amp;&amp; (S || !R)))</text>
<text text-anchor="start" x="386" y="-116.8" font-family="arial" font-size="14.00" fill="#ff7f00">true</text>
</g>
<!-- ID_8_ct0_st0&#45;&gt;ID_8_ct0_st012 -->
<g id="edge5" class="edge">
<title>ID_8_ct0_st0&#45;&gt;ID_8_ct0_st012</title>
<path fill="none" stroke="black" d="M250.06,-80.63C266.63,-85.51 285.21,-91.23 302,-97 309.62,-99.62 317.53,-102.47 325.39,-105.4"/>
<polygon fill="black" stroke="black" points="324.33,-108.74 334.92,-108.99 326.8,-102.19 324.33,-108.74"/>
<text text-anchor="start" x="278" y="-100.8" font-family="arial" font-size="14.00" fill="#377eb8">true</text>
</g>
<!-- ID_8_ct0_st01234 -->
<g id="node6" class="node">
<title>ID_8_ct0_st01234</title>
<polygon fill="none" stroke="black" points="1153,-163 986,-163 986,-113 1153,-113 1153,-163"/>
<text text-anchor="start" x="1013" y="-148.8" font-family="arial" font-weight="bold" font-size="14.00">ID_8_ct0_st01234</text>
<text text-anchor="start" x="994" y="-134.8" font-family="arial" font-size="14.00" fill="#984ea3">(P &amp;&amp; (!Q &amp;&amp; (R &amp;&amp; !S)))</text>
<text text-anchor="start" x="1057.5" y="-120.8" font-family="arial" font-size="14.00" fill="#ff7f00">true</text>
</g>
<!-- ID_8_ct0_st0&#45;&gt;ID_8_ct0_st01234 -->
<g id="edge6" class="edge">
<title>ID_8_ct0_st0&#45;&gt;ID_8_ct0_st01234</title>
<path fill="none" stroke="black" d="M247,-41.86C285.7,-22.85 343.36,0 397,0 397,0 397,0 842,0 880.28,0 891.69,-2.04 926,-19 969.58,-40.54 1011.27,-78.01 1038.17,-105.15"/>
<polygon fill="black" stroke="black" points="1035.87,-107.8 1045.36,-112.51 1040.88,-102.91 1035.87,-107.8"/>
<text text-anchor="start" x="604" y="-3.8" font-family="arial" font-size="14.00" fill="#377eb8">true</text>
</g>
<!-- _ID_8_ct0_st012 -->
<!-- _ID_8_ct0_st012&#45;&gt;ID_8_ct0_st012 -->
<g id="edge2" class="edge">
<title>_ID_8_ct0_st012&#45;&gt;ID_8_ct0_st012</title>
<path fill="none" stroke="black" d="M260.26,-156.1C273.97,-154.18 288.51,-152.08 302,-150 304.53,-149.61 307.1,-149.21 309.69,-148.8"/>
<polygon fill="black" stroke="black" points="310.45,-152.23 319.78,-147.19 309.35,-145.31 310.45,-152.23"/>
</g>
<!-- ID_8_ct0_st012&#45;&gt;ID_8_ct0_st0 -->
<g id="edge12" class="edge">
<title>ID_8_ct0_st012&#45;&gt;ID_8_ct0_st0</title>
<path fill="none" stroke="black" d="M319.75,-123.78C305.62,-120.78 291.19,-116.92 278,-112 267.61,-108.12 257.02,-102.87 247.15,-97.32"/>
<polygon fill="black" stroke="black" points="248.73,-94.19 238.33,-92.17 245.2,-100.23 248.73,-94.19"/>
<text text-anchor="start" x="282.5" y="-122.8" font-family="arial" font-size="14.00" fill="#377eb8">Q&#39;</text>
</g>
<!-- ID_8_ct0_st012&#45;&gt;ID_8_ct0_st012 -->
<g id="edge15" class="edge">
<title>ID_8_ct0_st012&#45;&gt;ID_8_ct0_st012</title>
<path fill="none" stroke="black" d="M377.83,-159.18C376.93,-168.91 383.66,-177 398,-177 406.96,-177 412.95,-173.84 415.96,-169.09"/>
<polygon fill="black" stroke="black" points="419.42,-169.7 418.17,-159.18 412.58,-168.18 419.42,-169.7"/>
<text text-anchor="start" x="386" y="-180.8" font-family="arial" font-size="14.00" fill="#377eb8">true</text>
</g>
<!-- ID_8_ct0_st012&#45;&gt;ID_8_ct0_st01234 -->
<g id="edge16" class="edge">
<title>ID_8_ct0_st012&#45;&gt;ID_8_ct0_st01234</title>
<path fill="none" stroke="black" d="M476.24,-118.73C495.67,-115.52 516.53,-112.62 536,-111 689.93,-98.17 869.44,-113.54 975.77,-125.79"/>
<polygon fill="black" stroke="black" points="975.49,-129.28 985.83,-126.97 976.31,-122.33 975.49,-129.28"/>
<text text-anchor="start" x="714" y="-110.8" font-family="arial" font-size="14.00" fill="#377eb8">true</text>
</g>
<!-- ID_8_ct0_st02 -->
<g id="node7" class="node">
<title>ID_8_ct0_st02</title>
<polygon fill="none" stroke="black" points="696,-170 536,-170 536,-120 696,-120 696,-170"/>
<text text-anchor="start" x="570.5" y="-155.8" font-family="arial" font-weight="bold" font-size="14.00">ID_8_ct0_st02</text>
<text text-anchor="start" x="544" y="-141.8" font-family="arial" font-size="14.00" fill="#984ea3">(!P &amp;&amp; (!Q &amp;&amp; (S || !R)))</text>
<text text-anchor="start" x="604" y="-127.8" font-family="arial" font-size="14.00" fill="#ff7f00">true</text>
</g>
<!-- ID_8_ct0_st012&#45;&gt;ID_8_ct0_st02 -->
<g id="edge13" class="edge">
<title>ID_8_ct0_st012&#45;&gt;ID_8_ct0_st02</title>
<path fill="none" stroke="black" d="M476.19,-124.18C490.12,-123.54 504.5,-123.62 518,-125 520.54,-125.26 523.12,-125.56 525.72,-125.89"/>
<polygon fill="black" stroke="black" points="525.41,-129.38 535.8,-127.3 526.38,-122.44 525.41,-129.38"/>
<text text-anchor="start" x="494" y="-128.8" font-family="arial" font-size="14.00" fill="#377eb8">true</text>
</g>
<!-- ID_8_ct0_st0234 -->
<g id="node8" class="node">
<title>ID_8_ct0_st0234</title>
<polygon fill="none" stroke="black" points="926,-264 756,-264 756,-214 926,-214 926,-264"/>
<text text-anchor="start" x="788" y="-249.8" font-family="arial" font-weight="bold" font-size="14.00">ID_8_ct0_st0234</text>
<text text-anchor="start" x="764" y="-235.8" font-family="arial" font-size="14.00" fill="#984ea3">(!P &amp;&amp; (!Q &amp;&amp; (R &amp;&amp; !S)))</text>
<text text-anchor="start" x="829" y="-221.8" font-family="arial" font-size="14.00" fill="#ff7f00">true</text>
</g>
<!-- ID_8_ct0_st012&#45;&gt;ID_8_ct0_st0234 -->
<g id="edge14" class="edge">
<title>ID_8_ct0_st012&#45;&gt;ID_8_ct0_st0234</title>
<path fill="none" stroke="black" d="M433.4,-159.16C460.01,-177.19 498.51,-200.28 536,-212 604.14,-233.31 684.78,-239.67 745.87,-240.91"/>
<polygon fill="black" stroke="black" points="745.83,-244.41 755.89,-241.07 745.94,-237.41 745.83,-244.41"/>
<text text-anchor="start" x="604" y="-241.8" font-family="arial" font-size="14.00" fill="#377eb8">true</text>
</g>
<!-- _ID_8_ct0_st01234 -->
<!-- _ID_8_ct0_st01234&#45;&gt;ID_8_ct0_st01234 -->
<g id="edge3" class="edge">
<title>_ID_8_ct0_st01234&#45;&gt;ID_8_ct0_st01234</title>
<path fill="none" stroke="black" d="M908.24,-59.01C927.86,-63.88 949.14,-70.17 968,-78 987.02,-85.89 1006.73,-96.94 1023.6,-107.41"/>
<polygon fill="black" stroke="black" points="1021.82,-110.42 1032.15,-112.81 1025.56,-104.51 1021.82,-110.42"/>
</g>
<!-- ID_8_ct0_st01234&#45;&gt;ID_8_ct0_st01234 -->
<g id="edge32" class="edge">
<title>ID_8_ct0_st01234&#45;&gt;ID_8_ct0_st01234</title>
<path fill="none" stroke="black" d="M1048.58,-163.18C1047.65,-172.91 1054.62,-181 1069.5,-181 1078.8,-181 1085.01,-177.84 1088.13,-173.09"/>
<polygon fill="black" stroke="black" points="1091.58,-173.71 1090.42,-163.18 1084.76,-172.13 1091.58,-173.71"/>
<text text-anchor="start" x="1057.5" y="-184.8" font-family="arial" font-size="14.00" fill="#377eb8">true</text>
</g>
<!-- ID_8_ct0_st01234&#45;&gt;ID_8_ct0_st0234 -->
<g id="edge30" class="edge">
<title>ID_8_ct0_st01234&#45;&gt;ID_8_ct0_st0234</title>
<path fill="none" stroke="black" d="M985.69,-153.38C971.47,-157.3 957.08,-162.12 944,-168 921.3,-178.2 898.35,-193.62 879.98,-207.49"/>
<polygon fill="black" stroke="black" points="877.67,-204.85 871.89,-213.72 881.94,-210.39 877.67,-204.85"/>
<text text-anchor="start" x="944" y="-171.8" font-family="arial" font-size="14.00" fill="#377eb8">true</text>
</g>
<!-- ID_8_ct0_st024 -->
<g id="node9" class="node">
<title>ID_8_ct0_st024</title>
<polygon fill="none" stroke="black" points="1589,-230 1429,-230 1429,-180 1589,-180 1589,-230"/>
<text text-anchor="start" x="1460" y="-215.8" font-family="arial" font-weight="bold" font-size="14.00">ID_8_ct0_st024</text>
<text text-anchor="start" x="1437" y="-201.8" font-family="arial" font-size="14.00" fill="#984ea3">(!P &amp;&amp; (!Q &amp;&amp; (S || !R)))</text>
<text text-anchor="start" x="1497" y="-187.8" font-family="arial" font-size="14.00" fill="#ff7f00">true</text>
</g>
<!-- ID_8_ct0_st01234&#45;&gt;ID_8_ct0_st024 -->
<g id="edge29" class="edge">
<title>ID_8_ct0_st01234&#45;&gt;ID_8_ct0_st024</title>
<path fill="none" stroke="black" d="M1153.03,-142.73C1213.24,-147.05 1296.62,-154.82 1369,-168 1385.17,-170.95 1402.22,-174.82 1418.63,-178.96"/>
<polygon fill="black" stroke="black" points="1418.19,-182.46 1428.74,-181.56 1419.93,-175.68 1418.19,-182.46"/>
<text text-anchor="start" x="1279" y="-171.8" font-family="arial" font-size="14.00" fill="#377eb8">true</text>
</g>
<!-- ID_8_ct0_st0124 -->
<g id="node10" class="node">
<title>ID_8_ct0_st0124</title>
<polygon fill="none" stroke="black" points="1369,-242 1213,-242 1213,-192 1369,-192 1369,-242"/>
<text text-anchor="start" x="1238" y="-227.8" font-family="arial" font-weight="bold" font-size="14.00">ID_8_ct0_st0124</text>
<text text-anchor="start" x="1221" y="-213.8" font-family="arial" font-size="14.00" fill="#984ea3">(P &amp;&amp; (!Q &amp;&amp; (S || !R)))</text>
<text text-anchor="start" x="1279" y="-199.8" font-family="arial" font-size="14.00" fill="#ff7f00">true</text>
</g>
<!-- ID_8_ct0_st01234&#45;&gt;ID_8_ct0_st0124 -->
<g id="edge31" class="edge">
<title>ID_8_ct0_st01234&#45;&gt;ID_8_ct0_st0124</title>
<path fill="none" stroke="black" d="M1116.92,-163.12C1133.64,-171.49 1152.86,-180.37 1171,-187 1181.19,-190.72 1192.03,-194.15 1202.87,-197.26"/>
<polygon fill="black" stroke="black" points="1202.22,-200.71 1212.79,-200.01 1204.1,-193.96 1202.22,-200.71"/>
<text text-anchor="start" x="1171" y="-197.8" font-family="arial" font-size="14.00" fill="#377eb8">true</text>
</g>
<!-- ID_8_ct0_st02&#45;&gt;ID_8_ct0_st0 -->
<g id="edge7" class="edge">
<title>ID_8_ct0_st02&#45;&gt;ID_8_ct0_st0</title>
<path fill="none" stroke="black" d="M568.15,-119.99C541.83,-107.18 507.94,-92.7 476,-85 403.22,-67.46 316.66,-64.65 260.48,-65.11"/>
<polygon fill="black" stroke="black" points="260.31,-61.61 250.35,-65.23 260.39,-68.61 260.31,-61.61"/>
<text text-anchor="start" x="390.5" y="-88.8" font-family="arial" font-size="14.00" fill="#377eb8">Q&#39;</text>
</g>
<!-- ID_8_ct0_st02&#45;&gt;ID_8_ct0_st012 -->
<g id="edge10" class="edge">
<title>ID_8_ct0_st02&#45;&gt;ID_8_ct0_st012</title>
<path fill="none" stroke="black" d="M535.88,-145.44C521.92,-145.21 507.53,-144.77 494,-144 491.46,-143.86 488.89,-143.69 486.3,-143.52"/>
<polygon fill="black" stroke="black" points="486.44,-140.02 476.2,-142.76 485.91,-147 486.44,-140.02"/>
<text text-anchor="start" x="494" y="-147.8" font-family="arial" font-size="14.00" fill="#377eb8">true</text>
</g>
<!-- ID_8_ct0_st02&#45;&gt;ID_8_ct0_st01234 -->
<g id="edge11" class="edge">
<title>ID_8_ct0_st02&#45;&gt;ID_8_ct0_st01234</title>
<path fill="none" stroke="black" d="M696.16,-143.77C774.22,-142.56 893.46,-140.71 975.88,-139.44"/>
<polygon fill="black" stroke="black" points="976.05,-142.93 985.99,-139.28 975.94,-135.93 976.05,-142.93"/>
<text text-anchor="start" x="829" y="-145.8" font-family="arial" font-size="14.00" fill="#377eb8">true</text>
</g>
<!-- ID_8_ct0_st02&#45;&gt;ID_8_ct0_st02 -->
<g id="edge8" class="edge">
<title>ID_8_ct0_st02&#45;&gt;ID_8_ct0_st02</title>
<path fill="none" stroke="black" d="M595.46,-170.18C594.54,-179.91 601.39,-188 616,-188 625.13,-188 631.23,-184.84 634.3,-180.09"/>
<polygon fill="black" stroke="black" points="637.75,-180.7 636.54,-170.18 630.92,-179.15 637.75,-180.7"/>
<text text-anchor="start" x="604" y="-191.8" font-family="arial" font-size="14.00" fill="#377eb8">true</text>
</g>
<!-- ID_8_ct0_st02&#45;&gt;ID_8_ct0_st0234 -->
<g id="edge9" class="edge">
<title>ID_8_ct0_st02&#45;&gt;ID_8_ct0_st0234</title>
<path fill="none" stroke="black" d="M676.47,-170.07C705.58,-182.34 740.8,-197.18 771.08,-209.95"/>
<polygon fill="black" stroke="black" points="769.74,-213.18 780.31,-213.84 772.46,-206.73 769.74,-213.18"/>
<text text-anchor="start" x="714" y="-197.8" font-family="arial" font-size="14.00" fill="#377eb8">true</text>
</g>
<!-- ID_8_ct0_st0234&#45;&gt;ID_8_ct0_st01234 -->
<g id="edge28" class="edge">
<title>ID_8_ct0_st0234&#45;&gt;ID_8_ct0_st01234</title>
<path fill="none" stroke="black" d="M904.82,-213.97C925.1,-205.66 947.6,-196.17 968,-187 981.52,-180.92 995.92,-174.11 1009.47,-167.54"/>
<polygon fill="black" stroke="black" points="1011.24,-170.57 1018.69,-163.04 1008.17,-164.28 1011.24,-170.57"/>
<text text-anchor="start" x="944" y="-200.8" font-family="arial" font-size="14.00" fill="#377eb8">true</text>
</g>
<!-- ID_8_ct0_st0234&#45;&gt;ID_8_ct0_st0234 -->
<g id="edge26" class="edge">
<title>ID_8_ct0_st0234&#45;&gt;ID_8_ct0_st0234</title>
<path fill="none" stroke="black" d="M819.71,-264.18C818.76,-273.91 825.86,-282 841,-282 850.46,-282 856.78,-278.84 859.96,-274.09"/>
<polygon fill="black" stroke="black" points="863.41,-274.71 862.29,-264.18 856.6,-273.11 863.41,-274.71"/>
<text text-anchor="start" x="829" y="-285.8" font-family="arial" font-size="14.00" fill="#377eb8">true</text>
</g>
<!-- ID_8_ct0_st0234&#45;&gt;ID_8_ct0_st024 -->
<g id="edge25" class="edge">
<title>ID_8_ct0_st0234&#45;&gt;ID_8_ct0_st024</title>
<path fill="none" stroke="black" d="M888.28,-264.15C915.86,-277.95 952.01,-294.04 986,-303 1150.61,-346.37 1204.59,-351.15 1369,-307 1412.15,-295.41 1452.24,-262.66 1478.16,-237.36"/>
<polygon fill="black" stroke="black" points="1480.81,-239.66 1485.42,-230.12 1475.87,-234.71 1480.81,-239.66"/>
<text text-anchor="start" x="1171" y="-340.8" font-family="arial" font-size="14.00" fill="#377eb8">true</text>
</g>
<!-- ID_8_ct0_st0234&#45;&gt;ID_8_ct0_st0124 -->
<g id="edge27" class="edge">
<title>ID_8_ct0_st0234&#45;&gt;ID_8_ct0_st0124</title>
<path fill="none" stroke="black" d="M926.05,-245.64C932.12,-246.1 938.15,-246.56 944,-247 1036.64,-253.94 1060.75,-260.95 1153,-250 1169.2,-248.08 1186.25,-244.92 1202.61,-241.3"/>
<polygon fill="black" stroke="black" points="1203.73,-244.63 1212.69,-238.99 1202.17,-237.81 1203.73,-244.63"/>
<text text-anchor="start" x="1057.5" y="-258.8" font-family="arial" font-size="14.00" fill="#377eb8">true</text>
</g>
<!-- ID_8_ct0_st024&#45;&gt;ID_8_ct0_st01234 -->
<g id="edge20" class="edge">
<title>ID_8_ct0_st024&#45;&gt;ID_8_ct0_st01234</title>
<path fill="none" stroke="black" d="M1486.06,-179.59C1460.99,-152.97 1417.18,-113.33 1369,-101 1298.91,-83.07 1217.27,-95.38 1157.1,-110.45"/>
<polygon fill="black" stroke="black" points="1156.06,-107.1 1147.25,-112.99 1157.81,-113.88 1156.06,-107.1"/>
<text text-anchor="start" x="1279" y="-104.8" font-family="arial" font-size="14.00" fill="#377eb8">true</text>
</g>
<!-- ID_8_ct0_st024&#45;&gt;ID_8_ct0_st0234 -->
<g id="edge18" class="edge">
<title>ID_8_ct0_st024&#45;&gt;ID_8_ct0_st0234</title>
<path fill="none" stroke="black" d="M1475.32,-230.1C1448.42,-249.07 1408.45,-273.57 1369,-284 1221.14,-323.08 1042.61,-292.26 935.9,-265.96"/>
<polygon fill="black" stroke="black" points="936.67,-262.54 926.12,-263.51 934.97,-269.33 936.67,-262.54"/>
<text text-anchor="start" x="1171" y="-305.8" font-family="arial" font-size="14.00" fill="#377eb8">true</text>
</g>
<!-- ID_8_ct0_st024&#45;&gt;ID_8_ct0_st024 -->
<g id="edge17" class="edge">
<title>ID_8_ct0_st024&#45;&gt;ID_8_ct0_st024</title>
<path fill="none" stroke="black" d="M1488.46,-230.18C1487.54,-239.91 1494.39,-248 1509,-248 1518.13,-248 1524.23,-244.84 1527.3,-240.09"/>
<polygon fill="black" stroke="black" points="1530.75,-240.7 1529.54,-230.18 1523.92,-239.15 1530.75,-240.7"/>
<text text-anchor="start" x="1497" y="-251.8" font-family="arial" font-size="14.00" fill="#377eb8">true</text>
</g>
<!-- ID_8_ct0_st024&#45;&gt;ID_8_ct0_st0124 -->
<g id="edge19" class="edge">
<title>ID_8_ct0_st024&#45;&gt;ID_8_ct0_st0124</title>
<path fill="none" stroke="black" d="M1428.78,-209.4C1412.64,-210.3 1395.57,-211.25 1379.18,-212.16"/>
<polygon fill="black" stroke="black" points="1378.86,-208.67 1369.07,-212.72 1379.24,-215.66 1378.86,-208.67"/>
<text text-anchor="start" x="1387" y="-214.8" font-family="arial" font-size="14.00" fill="#377eb8">true</text>
</g>
<!-- ID_8_ct0_st0124&#45;&gt;ID_8_ct0_st01234 -->
<g id="edge24" class="edge">
<title>ID_8_ct0_st0124&#45;&gt;ID_8_ct0_st01234</title>
<path fill="none" stroke="black" d="M1241.4,-191.97C1226.72,-184.96 1210.4,-177.7 1195,-172 1184.68,-168.18 1173.74,-164.57 1162.79,-161.24"/>
<polygon fill="black" stroke="black" points="1163.77,-157.88 1153.19,-158.38 1161.77,-164.59 1163.77,-157.88"/>
<text text-anchor="start" x="1171" y="-175.8" font-family="arial" font-size="14.00" fill="#377eb8">true</text>
</g>
<!-- ID_8_ct0_st0124&#45;&gt;ID_8_ct0_st0234 -->
<g id="edge22" class="edge">
<title>ID_8_ct0_st0124&#45;&gt;ID_8_ct0_st0234</title>
<path fill="none" stroke="black" d="M1212.75,-220.79C1136.02,-224.56 1018.24,-230.35 936.09,-234.38"/>
<polygon fill="black" stroke="black" points="935.82,-230.89 926,-234.87 936.16,-237.88 935.82,-230.89"/>
<text text-anchor="start" x="1057.5" y="-234.8" font-family="arial" font-size="14.00" fill="#377eb8">true</text>
</g>
<!-- ID_8_ct0_st0124&#45;&gt;ID_8_ct0_st024 -->
<g id="edge21" class="edge">
<title>ID_8_ct0_st0124&#45;&gt;ID_8_ct0_st024</title>
<path fill="none" stroke="black" d="M1369.16,-194.05C1375.16,-192.83 1381.15,-191.79 1387,-191 1397.24,-189.62 1407.99,-189.28 1418.67,-189.63"/>
<polygon fill="black" stroke="black" points="1418.7,-193.14 1428.87,-190.17 1419.06,-186.15 1418.7,-193.14"/>
<text text-anchor="start" x="1387" y="-194.8" font-family="arial" font-size="14.00" fill="#377eb8">true</text>
</g>
<!-- ID_8_ct0_st0124&#45;&gt;ID_8_ct0_st0124 -->
<g id="edge23" class="edge">
<title>ID_8_ct0_st0124&#45;&gt;ID_8_ct0_st0124</title>
<path fill="none" stroke="black" d="M1270.83,-242.18C1269.93,-251.91 1276.66,-260 1291,-260 1299.96,-260 1305.95,-256.84 1308.96,-252.09"/>
<polygon fill="black" stroke="black" points="1312.42,-252.7 1311.17,-242.18 1305.58,-251.18 1312.42,-252.7"/>
<text text-anchor="start" x="1279" y="-263.8" font-family="arial" font-size="14.00" fill="#377eb8">true</text>
</g>
</g>
</svg>
