<?xml version="1.0" encoding="UTF-8" standalone="no"?>
<!DOCTYPE svg PUBLIC "-//W3C//DTD SVG 1.1//EN"
 "http://www.w3.org/Graphics/SVG/1.1/DTD/svg11.dtd">
<!-- Generated by graphviz version 2.43.0 (0)
 -->
<!-- Title: G Pages: 1 -->
<svg width="1843pt" height="963pt"
 viewBox="0.00 0.00 1843.00 963.00" xmlns="http://www.w3.org/2000/svg" xmlns:xlink="http://www.w3.org/1999/xlink">
<g id="graph0" class="graph" transform="scale(1 1) rotate(0) translate(4 959)">
<title>G</title>
<polygon fill="white" stroke="transparent" points="-4,4 -4,-959 1839,-959 1839,4 -4,4"/>
<!-- _ID_11_ct0_st0 -->
<!-- ID_11_ct0_st0 -->
<g id="node2" class="node">
<title>ID_11_ct0_st0</title>
<polygon fill="none" stroke="black" points="259,-749 153,-749 153,-699 259,-699 259,-749"/>
<text text-anchor="start" x="161" y="-734.8" font-family="arial" font-weight="bold" font-size="14.00">ID_11_ct0_st0</text>
<text text-anchor="start" x="199.5" y="-720.8" font-family="arial" font-size="14.00" fill="#984ea3">!P</text>
<text text-anchor="start" x="194" y="-706.8" font-family="arial" font-size="14.00" fill="#ff7f00">true</text>
</g>
<!-- _ID_11_ct0_st0&#45;&gt;ID_11_ct0_st0 -->
<g id="edge1" class="edge">
<title>_ID_11_ct0_st0&#45;&gt;ID_11_ct0_st0</title>
<path fill="none" stroke="black" d="M110.21,-724C120.68,-724 131.73,-724 142.44,-724"/>
<polygon fill="black" stroke="black" points="142.57,-727.5 152.57,-724 142.57,-720.5 142.57,-727.5"/>
</g>
<!-- ID_11_ct0_st0&#45;&gt;ID_11_ct0_st0 -->
<g id="edge5" class="edge">
<title>ID_11_ct0_st0&#45;&gt;ID_11_ct0_st0</title>
<path fill="none" stroke="black" d="M191.81,-749.18C191.17,-758.91 195.91,-767 206,-767 212.31,-767 216.52,-763.84 218.64,-759.09"/>
<polygon fill="black" stroke="black" points="222.11,-759.6 220.19,-749.18 215.19,-758.51 222.11,-759.6"/>
<text text-anchor="start" x="194" y="-770.8" font-family="arial" font-size="14.00" fill="#377eb8">true</text>
</g>
<!-- ID_11_ct0_st01 -->
<g id="node4" class="node">
<title>ID_11_ct0_st01</title>
<polygon fill="none" stroke="black" points="438,-466 325,-466 325,-416 438,-416 438,-466"/>
<text text-anchor="start" x="333" y="-451.8" font-family="arial" font-weight="bold" font-size="14.00">ID_11_ct0_st01</text>
<text text-anchor="start" x="354" y="-437.8" font-family="arial" font-size="14.00" fill="#984ea3">(P &amp;&amp; Q)</text>
<text text-anchor="start" x="369.5" y="-423.8" font-family="arial" font-size="14.00" fill="#ff7f00">true</text>
</g>
<!-- ID_11_ct0_st0&#45;&gt;ID_11_ct0_st01 -->
<g id="edge6" class="edge">
<title>ID_11_ct0_st0&#45;&gt;ID_11_ct0_st01</title>
<path fill="none" stroke="black" d="M222.4,-698.89C253.65,-647.91 324.54,-532.27 359.8,-474.77"/>
<polygon fill="black" stroke="black" points="362.89,-476.41 365.14,-466.06 356.93,-472.75 362.89,-476.41"/>
<text text-anchor="start" x="283" y="-602.8" font-family="arial" font-size="14.00" fill="#377eb8">true</text>
</g>
<!-- ID_11_ct0_st012 -->
<g id="node6" class="node">
<title>ID_11_ct0_st012</title>
<polygon fill="none" stroke="black" points="1603.5,-642 1480.5,-642 1480.5,-592 1603.5,-592 1603.5,-642"/>
<text text-anchor="start" x="1489.5" y="-627.8" font-family="arial" font-weight="bold" font-size="14.00">ID_11_ct0_st012</text>
<text text-anchor="start" x="1488.5" y="-613.8" font-family="arial" font-size="14.00" fill="#984ea3">(P &amp;&amp; (!Q &amp;&amp; !R))</text>
<text text-anchor="start" x="1530" y="-599.8" font-family="arial" font-size="14.00" fill="#ff7f00">true</text>
</g>
<!-- ID_11_ct0_st0&#45;&gt;ID_11_ct0_st012 -->
<g id="edge7" class="edge">
<title>ID_11_ct0_st0&#45;&gt;ID_11_ct0_st012</title>
<path fill="none" stroke="black" d="M237.46,-749.2C270.53,-773.95 325.95,-808 380.5,-808 380.5,-808 380.5,-808 1335.5,-808 1426.44,-808 1494.03,-706.41 1523.97,-651.41"/>
<polygon fill="black" stroke="black" points="1527.17,-652.84 1528.78,-642.36 1520.99,-649.55 1527.17,-652.84"/>
<text text-anchor="start" x="810.5" y="-811.8" font-family="arial" font-size="14.00" fill="#377eb8">true</text>
</g>
<!-- ID_11_ct0_st01234 -->
<g id="node8" class="node">
<title>ID_11_ct0_st01234</title>
<polygon fill="none" stroke="black" points="1835,-323 1672,-323 1672,-273 1835,-273 1835,-323"/>
<text text-anchor="start" x="1693.5" y="-308.8" font-family="arial" font-weight="bold" font-size="14.00">ID_11_ct0_st01234</text>
<text text-anchor="start" x="1680" y="-294.8" font-family="arial" font-size="14.00" fill="#984ea3">(P &amp;&amp; (!Q &amp;&amp; (R &amp;&amp; S)))</text>
<text text-anchor="start" x="1741.5" y="-280.8" font-family="arial" font-size="14.00" fill="#ff7f00">true</text>
</g>
<!-- ID_11_ct0_st0&#45;&gt;ID_11_ct0_st01234 -->
<g id="edge8" class="edge">
<title>ID_11_ct0_st0&#45;&gt;ID_11_ct0_st01234</title>
<path fill="none" stroke="black" d="M209.63,-749.05C215.31,-790.23 232.63,-872.03 283,-916 316.62,-945.35 335.87,-940 380.5,-940 380.5,-940 380.5,-940 1543,-940 1593.47,-940 1619.3,-952.66 1654,-916 1734.39,-831.07 1749.23,-451.95 1751.92,-333.49"/>
<polygon fill="black" stroke="black" points="1755.42,-333.24 1752.14,-323.17 1748.43,-333.1 1755.42,-333.24"/>
<text text-anchor="start" x="931" y="-943.8" font-family="arial" font-size="14.00" fill="#377eb8">true</text>
</g>
<!-- _ID_11_ct0_st01 -->
<!-- _ID_11_ct0_st01&#45;&gt;ID_11_ct0_st01 -->
<g id="edge2" class="edge">
<title>_ID_11_ct0_st01&#45;&gt;ID_11_ct0_st01</title>
<path fill="none" stroke="black" d="M220.61,-225.36C249.76,-264.68 318.57,-357.48 355.71,-407.56"/>
<polygon fill="black" stroke="black" points="353.05,-409.86 361.82,-415.81 358.67,-405.69 353.05,-409.86"/>
</g>
<!-- ID_11_ct0_st01&#45;&gt;ID_11_ct0_st0 -->
<g id="edge9" class="edge">
<title>ID_11_ct0_st01&#45;&gt;ID_11_ct0_st0</title>
<path fill="none" stroke="black" d="M352.49,-466.04C331.32,-486.08 302.65,-515.75 283,-546 253.14,-591.98 230.47,-651.65 217.96,-688.89"/>
<polygon fill="black" stroke="black" points="214.51,-688.17 214.7,-698.77 221.15,-690.37 214.51,-688.17"/>
<text text-anchor="start" x="287.5" y="-549.8" font-family="arial" font-size="14.00" fill="#377eb8">Q&#39;</text>
</g>
<!-- ID_11_ct0_st01&#45;&gt;ID_11_ct0_st01 -->
<g id="edge12" class="edge">
<title>ID_11_ct0_st01&#45;&gt;ID_11_ct0_st01</title>
<path fill="none" stroke="black" d="M365.44,-466.18C364.72,-475.91 370.08,-484 381.5,-484 388.64,-484 393.41,-480.84 395.81,-476.09"/>
<polygon fill="black" stroke="black" points="399.26,-476.63 397.56,-466.18 392.37,-475.41 399.26,-476.63"/>
<text text-anchor="start" x="369.5" y="-487.8" font-family="arial" font-size="14.00" fill="#377eb8">true</text>
</g>
<!-- ID_11_ct0_st01&#45;&gt;ID_11_ct0_st012 -->
<g id="edge13" class="edge">
<title>ID_11_ct0_st01&#45;&gt;ID_11_ct0_st012</title>
<path fill="none" stroke="black" d="M438.05,-454.65C543.09,-479.68 778.37,-532.11 980,-551 1003.12,-553.17 1375.3,-548.1 1398,-553 1406.76,-554.89 1444.36,-571.78 1478.81,-587.74"/>
<polygon fill="black" stroke="black" points="1477.41,-590.94 1487.95,-591.98 1480.35,-584.59 1477.41,-590.94"/>
<text text-anchor="start" x="931" y="-552.8" font-family="arial" font-size="14.00" fill="#377eb8">true</text>
</g>
<!-- ID_11_ct0_st01&#45;&gt;ID_11_ct0_st01234 -->
<g id="edge14" class="edge">
<title>ID_11_ct0_st01&#45;&gt;ID_11_ct0_st01234</title>
<path fill="none" stroke="black" d="M434.17,-415.53C435.54,-414.09 436.83,-412.58 438,-411 462.02,-378.57 447.31,-361.41 456,-322 473.31,-243.47 440.47,-202.19 498,-146 502.51,-141.59 935.69,-51 942,-51 942,-51 942,-51 1543,-51 1652.91,-51 1717.12,-195 1741.33,-263.1"/>
<polygon fill="black" stroke="black" points="1738.17,-264.65 1744.75,-272.96 1744.78,-262.36 1738.17,-264.65"/>
<text text-anchor="start" x="1053" y="-54.8" font-family="arial" font-size="14.00" fill="#377eb8">true</text>
</g>
<!-- ID_11_ct0_st02 -->
<g id="node9" class="node">
<title>ID_11_ct0_st02</title>
<polygon fill="none" stroke="black" points="1398,-666 1271,-666 1271,-616 1398,-616 1398,-666"/>
<text text-anchor="start" x="1286" y="-651.8" font-family="arial" font-weight="bold" font-size="14.00">ID_11_ct0_st02</text>
<text text-anchor="start" x="1279" y="-637.8" font-family="arial" font-size="14.00" fill="#984ea3">(!P &amp;&amp; (!Q &amp;&amp; !R))</text>
<text text-anchor="start" x="1322.5" y="-623.8" font-family="arial" font-size="14.00" fill="#ff7f00">true</text>
</g>
<!-- ID_11_ct0_st01&#45;&gt;ID_11_ct0_st02 -->
<g id="edge10" class="edge">
<title>ID_11_ct0_st01&#45;&gt;ID_11_ct0_st02</title>
<path fill="none" stroke="black" d="M390.43,-466.07C400.72,-494.09 421.56,-538.36 456,-560 589.25,-643.74 1075.07,-645.2 1260.71,-642.54"/>
<polygon fill="black" stroke="black" points="1260.97,-646.04 1270.91,-642.39 1260.86,-639.04 1260.97,-646.04"/>
<text text-anchor="start" x="810.5" y="-640.8" font-family="arial" font-size="14.00" fill="#377eb8">true</text>
</g>
<!-- ID_11_ct0_st0234 -->
<g id="node10" class="node">
<title>ID_11_ct0_st0234</title>
<polygon fill="none" stroke="black" points="665,-372 498,-372 498,-322 665,-322 665,-372"/>
<text text-anchor="start" x="525.5" y="-357.8" font-family="arial" font-weight="bold" font-size="14.00">ID_11_ct0_st0234</text>
<text text-anchor="start" x="506" y="-343.8" font-family="arial" font-size="14.00" fill="#984ea3">(!P &amp;&amp; (!Q &amp;&amp; (R &amp;&amp; S)))</text>
<text text-anchor="start" x="569.5" y="-329.8" font-family="arial" font-size="14.00" fill="#ff7f00">true</text>
</g>
<!-- ID_11_ct0_st01&#45;&gt;ID_11_ct0_st0234 -->
<g id="edge11" class="edge">
<title>ID_11_ct0_st01&#45;&gt;ID_11_ct0_st0234</title>
<path fill="none" stroke="black" d="M400.49,-415.96C413.86,-399.32 433.61,-378.49 456,-367 465.94,-361.9 476.87,-358.04 488,-355.12"/>
<polygon fill="black" stroke="black" points="488.88,-358.51 497.8,-352.8 487.26,-351.7 488.88,-358.51"/>
<text text-anchor="start" x="456" y="-370.8" font-family="arial" font-size="14.00" fill="#377eb8">true</text>
</g>
<!-- _ID_11_ct0_st012 -->
<!-- _ID_11_ct0_st012&#45;&gt;ID_11_ct0_st012 -->
<g id="edge3" class="edge">
<title>_ID_11_ct0_st012&#45;&gt;ID_11_ct0_st012</title>
<path fill="none" stroke="black" d="M1397.16,-591.1C1420.23,-595.25 1446.6,-600 1470.42,-604.29"/>
<polygon fill="black" stroke="black" points="1469.99,-607.77 1480.45,-606.1 1471.23,-600.88 1469.99,-607.77"/>
</g>
<!-- ID_11_ct0_st012&#45;&gt;ID_11_ct0_st0 -->
<g id="edge21" class="edge">
<title>ID_11_ct0_st012&#45;&gt;ID_11_ct0_st0</title>
<path fill="none" stroke="black" d="M1533.08,-642.44C1511.99,-704.57 1448.22,-859 1335.5,-859 380.5,-859 380.5,-859 380.5,-859 314.4,-859 258.33,-797.22 228.97,-757.24"/>
<polygon fill="black" stroke="black" points="231.79,-755.17 223.12,-749.08 226.1,-759.24 231.79,-755.17"/>
<text text-anchor="start" x="815" y="-862.8" font-family="arial" font-size="14.00" fill="#377eb8">Q&#39;</text>
</g>
<!-- ID_11_ct0_st012&#45;&gt;ID_11_ct0_st01 -->
<g id="edge24" class="edge">
<title>ID_11_ct0_st012&#45;&gt;ID_11_ct0_st01</title>
<path fill="none" stroke="black" d="M1512.13,-642C1484.8,-663.97 1441.56,-694.48 1398,-708 1205.17,-767.86 1145.9,-724 944,-724 580.5,-724 580.5,-724 580.5,-724 523.26,-724 497.02,-730.93 456,-691 396.74,-633.31 384.63,-530.53 382.56,-476.47"/>
<polygon fill="black" stroke="black" points="386.05,-476.23 382.26,-466.34 379.05,-476.43 386.05,-476.23"/>
<text text-anchor="start" x="931" y="-727.8" font-family="arial" font-size="14.00" fill="#377eb8">true</text>
</g>
<!-- ID_11_ct0_st012&#45;&gt;ID_11_ct0_st012 -->
<g id="edge25" class="edge">
<title>ID_11_ct0_st012&#45;&gt;ID_11_ct0_st012</title>
<path fill="none" stroke="black" d="M1523.32,-642.18C1522.49,-651.91 1528.72,-660 1542,-660 1550.3,-660 1555.85,-656.84 1558.63,-652.09"/>
<polygon fill="black" stroke="black" points="1562.09,-652.68 1560.68,-642.18 1555.23,-651.26 1562.09,-652.68"/>
<text text-anchor="start" x="1530" y="-663.8" font-family="arial" font-size="14.00" fill="#377eb8">true</text>
</g>
<!-- ID_11_ct0_st012&#45;&gt;ID_11_ct0_st01234 -->
<g id="edge26" class="edge">
<title>ID_11_ct0_st012&#45;&gt;ID_11_ct0_st01234</title>
<path fill="none" stroke="black" d="M1598.24,-591.93C1603.02,-589.12 1607.68,-586.14 1612,-583 1633.63,-567.32 1639.36,-562.34 1654,-540 1698.22,-472.52 1728.54,-382 1742.93,-333.02"/>
<polygon fill="black" stroke="black" points="1746.35,-333.8 1745.76,-323.23 1739.62,-331.86 1746.35,-333.8"/>
<text text-anchor="start" x="1630" y="-571.8" font-family="arial" font-size="14.00" fill="#377eb8">true</text>
</g>
<!-- ID_11_ct0_st012&#45;&gt;ID_11_ct0_st02 -->
<g id="edge22" class="edge">
<title>ID_11_ct0_st012&#45;&gt;ID_11_ct0_st02</title>
<path fill="none" stroke="black" d="M1480.29,-629.08C1471.5,-630.56 1462.53,-631.93 1454,-633 1439.29,-634.84 1423.49,-636.28 1408.38,-637.4"/>
<polygon fill="black" stroke="black" points="1407.78,-633.93 1398.05,-638.12 1408.27,-640.91 1407.78,-633.93"/>
<text text-anchor="start" x="1423" y="-639.8" font-family="arial" font-size="14.00" fill="#377eb8">true</text>
</g>
<!-- ID_11_ct0_st012&#45;&gt;ID_11_ct0_st0234 -->
<g id="edge23" class="edge">
<title>ID_11_ct0_st012&#45;&gt;ID_11_ct0_st0234</title>
<path fill="none" stroke="black" d="M1481.26,-592C1477.87,-589.27 1474.74,-586.28 1472,-583 1453.34,-560.65 1475.65,-539.47 1454,-520 1335.33,-413.27 890.58,-501.99 739,-452 714.59,-443.95 661.19,-406.23 623.58,-378.29"/>
<polygon fill="black" stroke="black" points="625.45,-375.32 615.34,-372.14 621.26,-380.92 625.45,-375.32"/>
<text text-anchor="start" x="1053" y="-470.8" font-family="arial" font-size="14.00" fill="#377eb8">true</text>
</g>
<!-- _ID_11_ct0_st01234 -->
<!-- _ID_11_ct0_st01234&#45;&gt;ID_11_ct0_st01234 -->
<g id="edge4" class="edge">
<title>_ID_11_ct0_st01234&#45;&gt;ID_11_ct0_st01234</title>
<path fill="none" stroke="black" d="M1612.05,-542.75C1627.18,-537.33 1642.19,-529.71 1654,-519 1709.37,-468.78 1735.35,-381.6 1746.05,-333.1"/>
<polygon fill="black" stroke="black" points="1749.53,-333.59 1748.17,-323.08 1742.68,-332.15 1749.53,-333.59"/>
</g>
<!-- ID_11_ct0_st01234&#45;&gt;ID_11_ct0_st0 -->
<g id="edge49" class="edge">
<title>ID_11_ct0_st01234&#45;&gt;ID_11_ct0_st0</title>
<path fill="none" stroke="black" d="M1749.42,-323.18C1734.78,-437.5 1667.59,-902 1543,-902 380.5,-902 380.5,-902 380.5,-902 301.08,-902 246.18,-810 221.59,-758.28"/>
<polygon fill="black" stroke="black" points="224.73,-756.73 217.35,-749.13 218.38,-759.67 224.73,-756.73"/>
<text text-anchor="start" x="935.5" y="-905.8" font-family="arial" font-size="14.00" fill="#377eb8">Q&#39;</text>
</g>
<!-- ID_11_ct0_st01234&#45;&gt;ID_11_ct0_st01 -->
<g id="edge52" class="edge">
<title>ID_11_ct0_st01234&#45;&gt;ID_11_ct0_st01</title>
<path fill="none" stroke="black" d="M1747.56,-272.85C1731.84,-201.01 1675.97,0 1543,0 580.5,0 580.5,0 580.5,0 488.63,0 477.74,-75.74 456,-165 443.71,-215.45 465.26,-349.76 439.24,-406.92"/>
<polygon fill="black" stroke="black" points="436.16,-405.26 434.44,-415.72 442.3,-408.62 436.16,-405.26"/>
<text text-anchor="start" x="1053" y="-3.8" font-family="arial" font-size="14.00" fill="#377eb8">true</text>
</g>
<!-- ID_11_ct0_st01234&#45;&gt;ID_11_ct0_st01234 -->
<g id="edge54" class="edge">
<title>ID_11_ct0_st01234&#45;&gt;ID_11_ct0_st01234</title>
<path fill="none" stroke="black" d="M1732.96,-323.18C1732.04,-332.91 1738.89,-341 1753.5,-341 1762.63,-341 1768.73,-337.84 1771.8,-333.09"/>
<polygon fill="black" stroke="black" points="1775.25,-333.7 1774.04,-323.18 1768.42,-332.15 1775.25,-333.7"/>
<text text-anchor="start" x="1741.5" y="-344.8" font-family="arial" font-size="14.00" fill="#377eb8">true</text>
</g>
<!-- ID_11_ct0_st01234&#45;&gt;ID_11_ct0_st0234 -->
<g id="edge51" class="edge">
<title>ID_11_ct0_st01234&#45;&gt;ID_11_ct0_st0234</title>
<path fill="none" stroke="black" d="M1671.97,-289.86C1652.37,-288.23 1631.45,-286.78 1612,-286 1452.57,-279.65 1412.56,-283.67 1253,-283 1215.22,-282.84 1205.72,-280.94 1168,-283 1074.62,-288.09 815.75,-318.58 675.56,-335.58"/>
<polygon fill="black" stroke="black" points="674.77,-332.15 665.27,-336.83 675.62,-339.1 674.77,-332.15"/>
<text text-anchor="start" x="1198.5" y="-286.8" font-family="arial" font-size="14.00" fill="#377eb8">true</text>
</g>
<!-- ID_11_ct0_st024 -->
<g id="node11" class="node">
<title>ID_11_ct0_st024</title>
<polygon fill="none" stroke="black" points="1150,-238 980,-238 980,-188 1150,-188 1150,-238"/>
<text text-anchor="start" x="1012.5" y="-223.8" font-family="arial" font-weight="bold" font-size="14.00">ID_11_ct0_st024</text>
<text text-anchor="start" x="988" y="-209.8" font-family="arial" font-size="14.00" fill="#984ea3">(!P &amp;&amp; (!Q &amp;&amp; (!R &amp;&amp; S)))</text>
<text text-anchor="start" x="1042" y="-195.8" font-family="arial" font-size="14.00" fill="#ff7f00">c0 &lt;= 5</text>
</g>
<!-- ID_11_ct0_st01234&#45;&gt;ID_11_ct0_st024 -->
<g id="edge50" class="edge">
<title>ID_11_ct0_st01234&#45;&gt;ID_11_ct0_st024</title>
<path fill="none" stroke="black" d="M1713.18,-272.8C1695.69,-262.67 1674.45,-251.81 1654,-245 1487.17,-189.48 1279.11,-194.12 1160.51,-203.14"/>
<polygon fill="black" stroke="black" points="1160.07,-199.66 1150.37,-203.94 1160.62,-206.64 1160.07,-199.66"/>
<text text-anchor="start" x="1423" y="-223.8" font-family="arial" font-size="14.00" fill="#377eb8">true</text>
<text text-anchor="start" x="1416" y="-208.8" font-family="arial" font-size="14.00">c0 :=0</text>
</g>
<!-- ID_11_ct0_st0124 -->
<g id="node12" class="node">
<title>ID_11_ct0_st0124</title>
<polygon fill="none" stroke="black" points="906,-410 739,-410 739,-360 906,-360 906,-410"/>
<text text-anchor="start" x="766.5" y="-395.8" font-family="arial" font-weight="bold" font-size="14.00">ID_11_ct0_st0124</text>
<text text-anchor="start" x="747" y="-381.8" font-family="arial" font-size="14.00" fill="#984ea3">(P &amp;&amp; (!Q &amp;&amp; (!R &amp;&amp; S)))</text>
<text text-anchor="start" x="799.5" y="-367.8" font-family="arial" font-size="14.00" fill="#ff7f00">c0 &lt;= 5</text>
</g>
<!-- ID_11_ct0_st01234&#45;&gt;ID_11_ct0_st0124 -->
<g id="edge53" class="edge">
<title>ID_11_ct0_st01234&#45;&gt;ID_11_ct0_st0124</title>
<path fill="none" stroke="black" d="M1671.76,-293.56C1575.93,-289.35 1411.42,-285.48 1271,-299 1146.9,-310.95 1006.01,-340.78 916.02,-361.94"/>
<polygon fill="black" stroke="black" points="915.05,-358.58 906.12,-364.28 916.66,-365.39 915.05,-358.58"/>
<text text-anchor="start" x="1322.5" y="-317.8" font-family="arial" font-size="14.00" fill="#377eb8">true</text>
<text text-anchor="start" x="1315.5" y="-302.8" font-family="arial" font-size="14.00">c0 :=0</text>
</g>
<!-- ID_11_ct0_st02&#45;&gt;ID_11_ct0_st0 -->
<g id="edge15" class="edge">
<title>ID_11_ct0_st02&#45;&gt;ID_11_ct0_st0</title>
<path fill="none" stroke="black" d="M1301.83,-666.07C1253.78,-701.51 1158.26,-762 1066,-762 380.5,-762 380.5,-762 380.5,-762 342.91,-762 301.79,-753.39 269.01,-744.36"/>
<polygon fill="black" stroke="black" points="269.7,-740.92 259.12,-741.55 267.79,-747.65 269.7,-740.92"/>
<text text-anchor="start" x="694.5" y="-765.8" font-family="arial" font-size="14.00" fill="#377eb8">Q&#39;</text>
</g>
<!-- ID_11_ct0_st02&#45;&gt;ID_11_ct0_st01 -->
<g id="edge18" class="edge">
<title>ID_11_ct0_st02&#45;&gt;ID_11_ct0_st01</title>
<path fill="none" stroke="black" d="M1270.79,-653.98C1126.83,-680.64 764.54,-729.7 498,-612 441.57,-587.08 408.8,-518.32 393.39,-475.97"/>
<polygon fill="black" stroke="black" points="396.62,-474.61 390.01,-466.33 390.01,-476.92 396.62,-474.61"/>
<text text-anchor="start" x="810.5" y="-690.8" font-family="arial" font-size="14.00" fill="#377eb8">true</text>
</g>
<!-- ID_11_ct0_st02&#45;&gt;ID_11_ct0_st012 -->
<g id="edge19" class="edge">
<title>ID_11_ct0_st02&#45;&gt;ID_11_ct0_st012</title>
<path fill="none" stroke="black" d="M1398.43,-621.28C1404.32,-619.96 1410.25,-618.83 1416,-618 1433.42,-615.49 1452.34,-614.47 1470.07,-614.25"/>
<polygon fill="black" stroke="black" points="1470.37,-617.75 1480.35,-614.2 1470.34,-610.75 1470.37,-617.75"/>
<text text-anchor="start" x="1423" y="-621.8" font-family="arial" font-size="14.00" fill="#377eb8">true</text>
</g>
<!-- ID_11_ct0_st02&#45;&gt;ID_11_ct0_st01234 -->
<g id="edge20" class="edge">
<title>ID_11_ct0_st02&#45;&gt;ID_11_ct0_st01234</title>
<path fill="none" stroke="black" d="M1386.14,-615.8C1390.29,-613.04 1394.31,-610.1 1398,-607 1438.45,-573.03 1433.43,-550.09 1472,-514 1543.84,-446.79 1577.07,-449.32 1654,-388 1676.67,-369.93 1700.71,-348.03 1719.36,-330.35"/>
<polygon fill="black" stroke="black" points="1722.19,-332.49 1727.01,-323.06 1717.36,-327.43 1722.19,-332.49"/>
<text text-anchor="start" x="1530" y="-517.8" font-family="arial" font-size="14.00" fill="#377eb8">true</text>
</g>
<!-- ID_11_ct0_st02&#45;&gt;ID_11_ct0_st02 -->
<g id="edge16" class="edge">
<title>ID_11_ct0_st02&#45;&gt;ID_11_ct0_st02</title>
<path fill="none" stroke="black" d="M1315.82,-666.18C1314.99,-675.91 1321.22,-684 1334.5,-684 1342.8,-684 1348.35,-680.84 1351.13,-676.09"/>
<polygon fill="black" stroke="black" points="1354.59,-676.68 1353.18,-666.18 1347.73,-675.26 1354.59,-676.68"/>
<text text-anchor="start" x="1322.5" y="-687.8" font-family="arial" font-size="14.00" fill="#377eb8">true</text>
</g>
<!-- ID_11_ct0_st02&#45;&gt;ID_11_ct0_st0234 -->
<g id="edge17" class="edge">
<title>ID_11_ct0_st02&#45;&gt;ID_11_ct0_st0234</title>
<path fill="none" stroke="black" d="M1270.69,-629.91C1264.71,-628.9 1258.74,-627.92 1253,-627 1124.1,-606.39 769.11,-583.11 683,-485 660.96,-459.88 683.11,-440.09 665,-412 656.81,-399.3 645.28,-388.01 633.43,-378.55"/>
<polygon fill="black" stroke="black" points="635.28,-375.56 625.2,-372.3 631.05,-381.14 635.28,-375.56"/>
<text text-anchor="start" x="931" y="-589.8" font-family="arial" font-size="14.00" fill="#377eb8">true</text>
</g>
<!-- ID_11_ct0_st0234&#45;&gt;ID_11_ct0_st0 -->
<g id="edge43" class="edge">
<title>ID_11_ct0_st0234&#45;&gt;ID_11_ct0_st0</title>
<path fill="none" stroke="black" d="M497.94,-339.61C442.1,-339.31 370.5,-348.83 325,-392 239.28,-473.33 215.74,-620.95 209.34,-688.51"/>
<polygon fill="black" stroke="black" points="205.84,-688.38 208.46,-698.65 212.82,-688.99 205.84,-688.38"/>
<text text-anchor="start" x="374" y="-395.8" font-family="arial" font-size="14.00" fill="#377eb8">Q&#39;</text>
</g>
<!-- ID_11_ct0_st0234&#45;&gt;ID_11_ct0_st01 -->
<g id="edge46" class="edge">
<title>ID_11_ct0_st0234&#45;&gt;ID_11_ct0_st01</title>
<path fill="none" stroke="black" d="M527.5,-372.16C501.96,-384.29 471.16,-398.91 444.53,-411.55"/>
<polygon fill="black" stroke="black" points="442.83,-408.48 435.3,-415.93 445.84,-414.81 442.83,-408.48"/>
<text text-anchor="start" x="456" y="-408.8" font-family="arial" font-size="14.00" fill="#377eb8">true</text>
</g>
<!-- ID_11_ct0_st0234&#45;&gt;ID_11_ct0_st01234 -->
<g id="edge48" class="edge">
<title>ID_11_ct0_st0234&#45;&gt;ID_11_ct0_st01234</title>
<path fill="none" stroke="black" d="M600.9,-321.99C624.24,-290.82 663.75,-239.92 683,-226 801.44,-140.36 795.05,-172.81 1168,-149 1298.66,-140.66 1527.71,-121.08 1612,-152 1666.8,-172.1 1709.59,-227.49 1732.92,-263.97"/>
<polygon fill="black" stroke="black" points="1730.16,-266.17 1738.42,-272.8 1736.1,-262.46 1730.16,-266.17"/>
<text text-anchor="start" x="1198.5" y="-152.8" font-family="arial" font-size="14.00" fill="#377eb8">true</text>
</g>
<!-- ID_11_ct0_st0234&#45;&gt;ID_11_ct0_st0234 -->
<g id="edge45" class="edge">
<title>ID_11_ct0_st0234&#45;&gt;ID_11_ct0_st0234</title>
<path fill="none" stroke="black" d="M560.58,-372.18C559.65,-381.91 566.62,-390 581.5,-390 590.8,-390 597.01,-386.84 600.13,-382.09"/>
<polygon fill="black" stroke="black" points="603.58,-382.71 602.42,-372.18 596.76,-381.13 603.58,-382.71"/>
<text text-anchor="start" x="569.5" y="-393.8" font-family="arial" font-size="14.00" fill="#377eb8">true</text>
</g>
<!-- ID_11_ct0_st0234&#45;&gt;ID_11_ct0_st024 -->
<g id="edge44" class="edge">
<title>ID_11_ct0_st0234&#45;&gt;ID_11_ct0_st024</title>
<path fill="none" stroke="black" d="M629.99,-321.93C660.43,-306.75 701.19,-288.06 739,-276 781.01,-262.6 889.41,-242.63 969.53,-228.78"/>
<polygon fill="black" stroke="black" points="970.39,-232.19 979.65,-227.04 969.2,-225.29 970.39,-232.19"/>
<text text-anchor="start" x="810.5" y="-294.8" font-family="arial" font-size="14.00" fill="#377eb8">true</text>
<text text-anchor="start" x="803.5" y="-279.8" font-family="arial" font-size="14.00">c0 :=0</text>
</g>
<!-- ID_11_ct0_st0234&#45;&gt;ID_11_ct0_st0124 -->
<g id="edge47" class="edge">
<title>ID_11_ct0_st0234&#45;&gt;ID_11_ct0_st0124</title>
<path fill="none" stroke="black" d="M665.19,-365.79C671.2,-366.95 677.19,-368.03 683,-369 697.79,-371.47 713.53,-373.68 728.89,-375.61"/>
<polygon fill="black" stroke="black" points="728.57,-379.09 738.92,-376.84 729.42,-372.15 728.57,-379.09"/>
<text text-anchor="start" x="690" y="-392.8" font-family="arial" font-size="14.00" fill="#377eb8">true</text>
<text text-anchor="start" x="683" y="-377.8" font-family="arial" font-size="14.00">c0 :=0</text>
</g>
<!-- ID_11_ct0_st024&#45;&gt;ID_11_ct0_st0 -->
<g id="edge27" class="edge">
<title>ID_11_ct0_st024&#45;&gt;ID_11_ct0_st0</title>
<path fill="none" stroke="black" d="M1036.76,-187.91C994.48,-151.67 909,-89 823.5,-89 380.5,-89 380.5,-89 380.5,-89 255.18,-89 217.25,-555.03 208.95,-688.61"/>
<polygon fill="black" stroke="black" points="205.45,-688.52 208.34,-698.72 212.43,-688.94 205.45,-688.52"/>
<text text-anchor="start" x="574" y="-92.8" font-family="arial" font-size="14.00" fill="#377eb8">Q&#39;</text>
</g>
<!-- ID_11_ct0_st024&#45;&gt;ID_11_ct0_st01 -->
<g id="edge31" class="edge">
<title>ID_11_ct0_st024&#45;&gt;ID_11_ct0_st01</title>
<path fill="none" stroke="black" d="M1019.37,-187.94C946.64,-150.6 799.03,-89.46 683,-136 650.61,-148.99 474.37,-323.33 456,-353 443.4,-373.35 452.47,-386.82 439.59,-407.52"/>
<polygon fill="black" stroke="black" points="436.58,-405.7 433.49,-415.83 442.23,-409.84 436.58,-405.7"/>
<text text-anchor="start" x="690" y="-139.8" font-family="arial" font-size="14.00" fill="#377eb8">true</text>
</g>
<!-- ID_11_ct0_st024&#45;&gt;ID_11_ct0_st012 -->
<g id="edge32" class="edge">
<title>ID_11_ct0_st024&#45;&gt;ID_11_ct0_st012</title>
<path fill="none" stroke="black" d="M1092.35,-238.28C1111.96,-256.03 1140.07,-279.31 1168,-295 1173.92,-298.33 1392.42,-374.13 1398,-378 1429.6,-399.94 1438.45,-408.81 1454,-444 1479.18,-500.98 1435.76,-532.33 1472,-583 1472.45,-583.63 1472.92,-584.25 1473.4,-584.86"/>
<polygon fill="black" stroke="black" points="1470.94,-587.35 1480.37,-592.18 1476.01,-582.52 1470.94,-587.35"/>
<text text-anchor="start" x="1292" y="-381.8" font-family="arial" font-size="14.00" fill="#377eb8">(Q&#39; || c0 &gt;= 5)</text>
</g>
<!-- ID_11_ct0_st024&#45;&gt;ID_11_ct0_st01234 -->
<g id="edge34" class="edge">
<title>ID_11_ct0_st024&#45;&gt;ID_11_ct0_st01234</title>
<path fill="none" stroke="black" d="M1150.39,-188.28C1269.31,-158.35 1490.01,-121.05 1654,-200 1684.39,-214.63 1710.97,-242.52 1728.83,-264.81"/>
<polygon fill="black" stroke="black" points="1726.1,-267 1735.01,-272.74 1731.62,-262.7 1726.1,-267"/>
<text text-anchor="start" x="1423" y="-157.8" font-family="arial" font-size="14.00" fill="#377eb8">true</text>
</g>
<!-- ID_11_ct0_st024&#45;&gt;ID_11_ct0_st02 -->
<g id="edge28" class="edge">
<title>ID_11_ct0_st024&#45;&gt;ID_11_ct0_st02</title>
<path fill="none" stroke="black" d="M1071.04,-238.09C1081.65,-285.4 1110.19,-388.96 1168,-455 1196.87,-487.98 1228,-469 1253,-505 1279.25,-542.81 1244.12,-569.63 1271,-607 1271.36,-607.5 1271.73,-608 1272.11,-608.48"/>
<polygon fill="black" stroke="black" points="1269.6,-610.92 1278.99,-615.83 1274.71,-606.14 1269.6,-610.92"/>
<text text-anchor="start" x="1168" y="-508.8" font-family="arial" font-size="14.00" fill="#377eb8">(Q&#39; || c0 &gt;= 5)</text>
</g>
<!-- ID_11_ct0_st024&#45;&gt;ID_11_ct0_st0234 -->
<g id="edge30" class="edge">
<title>ID_11_ct0_st024&#45;&gt;ID_11_ct0_st0234</title>
<path fill="none" stroke="black" d="M979.84,-208.07C913.62,-206.11 819.43,-207.58 739,-225 712.7,-230.7 705.45,-233.17 683,-248 655.28,-266.31 628.71,-293.02 609.86,-314.08"/>
<polygon fill="black" stroke="black" points="607.01,-312.03 603.03,-321.85 612.26,-316.65 607.01,-312.03"/>
<text text-anchor="start" x="810.5" y="-228.8" font-family="arial" font-size="14.00" fill="#377eb8">true</text>
</g>
<!-- ID_11_ct0_st024&#45;&gt;ID_11_ct0_st024 -->
<g id="edge29" class="edge">
<title>ID_11_ct0_st024&#45;&gt;ID_11_ct0_st024</title>
<path fill="none" stroke="black" d="M1042.21,-238.18C1041.2,-247.91 1048.8,-256 1065,-256 1075.13,-256 1081.89,-252.84 1085.29,-248.09"/>
<polygon fill="black" stroke="black" points="1088.74,-248.73 1087.79,-238.18 1081.95,-247.02 1088.74,-248.73"/>
<text text-anchor="start" x="1046" y="-259.8" font-family="arial" font-size="14.00" fill="#377eb8">c0 &lt; 5</text>
</g>
<!-- ID_11_ct0_st024&#45;&gt;ID_11_ct0_st0124 -->
<g id="edge33" class="edge">
<title>ID_11_ct0_st024&#45;&gt;ID_11_ct0_st0124</title>
<path fill="none" stroke="black" d="M1030.14,-238.2C1010.36,-252.85 984.86,-271.6 962,-288 930.9,-310.32 895.55,-335.06 868.35,-353.98"/>
<polygon fill="black" stroke="black" points="866.04,-351.32 859.82,-359.9 870.03,-357.07 866.04,-351.32"/>
<text text-anchor="start" x="924" y="-318.8" font-family="arial" font-size="14.00" fill="#377eb8">c0 &lt; 5</text>
</g>
<!-- ID_11_ct0_st0124&#45;&gt;ID_11_ct0_st0 -->
<g id="edge35" class="edge">
<title>ID_11_ct0_st0124&#45;&gt;ID_11_ct0_st0</title>
<path fill="none" stroke="black" d="M798.57,-410.21C747.2,-465.05 616.63,-595.59 480,-662 412.16,-694.97 326.25,-710.75 269.11,-718.07"/>
<polygon fill="black" stroke="black" points="268.63,-714.6 259.14,-719.29 269.49,-721.55 268.63,-714.6"/>
<text text-anchor="start" x="460.5" y="-675.8" font-family="arial" font-size="14.00" fill="#377eb8">Q&#39;</text>
</g>
<!-- ID_11_ct0_st0124&#45;&gt;ID_11_ct0_st01 -->
<g id="edge39" class="edge">
<title>ID_11_ct0_st0124&#45;&gt;ID_11_ct0_st01</title>
<path fill="none" stroke="black" d="M738.84,-404.73C732.82,-405.92 726.83,-407.02 721,-408 626.97,-423.74 516.9,-432.75 448.42,-437.26"/>
<polygon fill="black" stroke="black" points="447.97,-433.78 438.22,-437.92 448.42,-440.77 447.97,-433.78"/>
<text text-anchor="start" x="569.5" y="-436.8" font-family="arial" font-size="14.00" fill="#377eb8">true</text>
</g>
<!-- ID_11_ct0_st0124&#45;&gt;ID_11_ct0_st012 -->
<g id="edge40" class="edge">
<title>ID_11_ct0_st0124&#45;&gt;ID_11_ct0_st012</title>
<path fill="none" stroke="black" d="M906.01,-398.37C912.09,-399.28 918.14,-400.17 924,-401 982.98,-409.37 1412.3,-439.46 1454,-482 1485.92,-514.56 1444.6,-546.55 1472,-583 1472.38,-583.5 1472.76,-583.99 1473.16,-584.48"/>
<polygon fill="black" stroke="black" points="1470.77,-587.05 1480.25,-591.78 1475.79,-582.17 1470.77,-587.05"/>
<text text-anchor="start" x="1168" y="-438.8" font-family="arial" font-size="14.00" fill="#377eb8">(Q&#39; || c0 &gt;= 5)</text>
</g>
<!-- ID_11_ct0_st0124&#45;&gt;ID_11_ct0_st01234 -->
<g id="edge42" class="edge">
<title>ID_11_ct0_st0124&#45;&gt;ID_11_ct0_st01234</title>
<path fill="none" stroke="black" d="M906.06,-389.08C1041.61,-395.29 1305.53,-405.18 1398,-393 1493.63,-380.41 1600.12,-349.49 1671.19,-326.32"/>
<polygon fill="black" stroke="black" points="1672.57,-329.55 1680.98,-323.11 1670.38,-322.9 1672.57,-329.55"/>
<text text-anchor="start" x="1322.5" y="-401.8" font-family="arial" font-size="14.00" fill="#377eb8">true</text>
</g>
<!-- ID_11_ct0_st0124&#45;&gt;ID_11_ct0_st02 -->
<g id="edge36" class="edge">
<title>ID_11_ct0_st0124&#45;&gt;ID_11_ct0_st02</title>
<path fill="none" stroke="black" d="M855.94,-410.2C886.63,-433.19 934.63,-466.98 980,-490 1095.1,-548.38 1144.11,-519.72 1253,-589 1262.55,-595.07 1261.94,-600.23 1271,-607 1272.56,-608.16 1274.16,-609.31 1275.8,-610.45"/>
<polygon fill="black" stroke="black" points="1273.92,-613.4 1284.21,-615.96 1277.76,-607.55 1273.92,-613.4"/>
<text text-anchor="start" x="1022.5" y="-545.8" font-family="arial" font-size="14.00" fill="#377eb8">(Q&#39; || c0 &gt;= 5)</text>
</g>
<!-- ID_11_ct0_st0124&#45;&gt;ID_11_ct0_st0234 -->
<g id="edge38" class="edge">
<title>ID_11_ct0_st0124&#45;&gt;ID_11_ct0_st0234</title>
<path fill="none" stroke="black" d="M747.64,-359.95C738.74,-357.61 729.72,-355.54 721,-354 706.32,-351.41 690.63,-349.66 675.29,-348.5"/>
<polygon fill="black" stroke="black" points="675.48,-345 665.27,-347.82 675.01,-351.99 675.48,-345"/>
<text text-anchor="start" x="690" y="-357.8" font-family="arial" font-size="14.00" fill="#377eb8">true</text>
</g>
<!-- ID_11_ct0_st0124&#45;&gt;ID_11_ct0_st024 -->
<g id="edge37" class="edge">
<title>ID_11_ct0_st0124&#45;&gt;ID_11_ct0_st024</title>
<path fill="none" stroke="black" d="M848.82,-359.88C865.76,-342.56 888.13,-318.66 906,-296 914.93,-284.68 912.8,-278.09 924,-269 933.91,-260.96 956.6,-250.91 980.88,-241.56"/>
<polygon fill="black" stroke="black" points="982.13,-244.83 990.24,-238.02 979.65,-238.28 982.13,-244.83"/>
<text text-anchor="start" x="924" y="-272.8" font-family="arial" font-size="14.00" fill="#377eb8">c0 &lt; 5</text>
</g>
<!-- ID_11_ct0_st0124&#45;&gt;ID_11_ct0_st0124 -->
<g id="edge41" class="edge">
<title>ID_11_ct0_st0124&#45;&gt;ID_11_ct0_st0124</title>
<path fill="none" stroke="black" d="M800.09,-410.18C799.09,-419.91 806.56,-428 822.5,-428 832.46,-428 839.11,-424.84 842.46,-420.09"/>
<polygon fill="black" stroke="black" points="845.91,-420.72 844.91,-410.18 839.11,-419.04 845.91,-420.72"/>
<text text-anchor="start" x="803.5" y="-431.8" font-family="arial" font-size="14.00" fill="#377eb8">c0 &lt; 5</text>
</g>
</g>
</svg>
