<?xml version="1.0" encoding="UTF-8" standalone="no"?>
<!DOCTYPE svg PUBLIC "-//W3C//DTD SVG 1.1//EN"
 "http://www.w3.org/Graphics/SVG/1.1/DTD/svg11.dtd">
<!-- Generated by graphviz version 2.43.0 (0)
 -->
<!-- Title: G Pages: 1 -->
<svg width="669pt" height="145pt"
 viewBox="0.00 0.00 669.00 145.00" xmlns="http://www.w3.org/2000/svg" xmlns:xlink="http://www.w3.org/1999/xlink">
<g id="graph0" class="graph" transform="scale(1 1) rotate(0) translate(4 141)">
<title>G</title>
<polygon fill="white" stroke="transparent" points="-4,4 -4,-141 665,-141 665,4 -4,4"/>
<!-- _ID_130_ct0_st0 -->
<!-- ID_130_ct0_st0 -->
<g id="node2" class="node">
<title>ID_130_ct0_st0</title>
<polygon fill="none" stroke="black" points="280,-104 166,-104 166,-54 280,-54 280,-104"/>
<text text-anchor="start" x="174" y="-89.8" font-family="arial" font-weight="bold" font-size="14.00">ID_130_ct0_st0</text>
<text text-anchor="start" x="216.5" y="-75.8" font-family="arial" font-size="14.00" fill="#984ea3">!P</text>
<text text-anchor="start" x="211" y="-61.8" font-family="arial" font-size="14.00" fill="#ff7f00">true</text>
</g>
<!-- _ID_130_ct0_st0&#45;&gt;ID_130_ct0_st0 -->
<g id="edge1" class="edge">
<title>_ID_130_ct0_st0&#45;&gt;ID_130_ct0_st0</title>
<path fill="none" stroke="black" d="M119.26,-79C131.17,-79 143.77,-79 155.91,-79"/>
<polygon fill="black" stroke="black" points="155.97,-82.5 165.97,-79 155.97,-75.5 155.97,-82.5"/>
</g>
<!-- ID_130_ct0_st0&#45;&gt;ID_130_ct0_st0 -->
<g id="edge3" class="edge">
<title>ID_130_ct0_st0&#45;&gt;ID_130_ct0_st0</title>
<path fill="none" stroke="black" d="M207.31,-104.18C206.61,-113.91 211.84,-122 223,-122 229.97,-122 234.63,-118.84 236.97,-114.09"/>
<polygon fill="black" stroke="black" points="240.43,-114.63 238.69,-104.18 233.53,-113.43 240.43,-114.63"/>
<text text-anchor="start" x="211" y="-125.8" font-family="arial" font-size="14.00" fill="#377eb8">true</text>
</g>
<!-- ID_130_ct0_st012 -->
<g id="node4" class="node">
<title>ID_130_ct0_st012</title>
<polygon fill="none" stroke="black" points="479,-59 350,-59 350,-9 479,-9 479,-59"/>
<text text-anchor="start" x="358" y="-44.8" font-family="arial" font-weight="bold" font-size="14.00">ID_130_ct0_st012</text>
<text text-anchor="start" x="369" y="-30.8" font-family="arial" font-size="14.00" fill="#984ea3">(P &amp;&amp; (S || !R))</text>
<text text-anchor="start" x="402.5" y="-16.8" font-family="arial" font-size="14.00" fill="#ff7f00">true</text>
</g>
<!-- ID_130_ct0_st0&#45;&gt;ID_130_ct0_st012 -->
<g id="edge4" class="edge">
<title>ID_130_ct0_st0&#45;&gt;ID_130_ct0_st012</title>
<path fill="none" stroke="black" d="M280.09,-65.68C298.85,-61.22 320.06,-56.19 339.96,-51.46"/>
<polygon fill="black" stroke="black" points="340.99,-54.82 349.91,-49.1 339.37,-48.01 340.99,-54.82"/>
<text text-anchor="start" x="308" y="-61.8" font-family="arial" font-size="14.00" fill="#377eb8">true</text>
</g>
<!-- _ID_130_ct0_st012 -->
<!-- _ID_130_ct0_st012&#45;&gt;ID_130_ct0_st012 -->
<g id="edge2" class="edge">
<title>_ID_130_ct0_st012&#45;&gt;ID_130_ct0_st012</title>
<path fill="none" stroke="black" d="M290.01,-23.57C306.11,-24.93 323.43,-26.4 339.86,-27.78"/>
<polygon fill="black" stroke="black" points="339.7,-31.28 349.96,-28.63 340.29,-24.31 339.7,-31.28"/>
</g>
<!-- ID_130_ct0_st012&#45;&gt;ID_130_ct0_st012 -->
<g id="edge8" class="edge">
<title>ID_130_ct0_st012&#45;&gt;ID_130_ct0_st012</title>
<path fill="none" stroke="black" d="M396.94,-59.18C396.16,-68.91 402.02,-77 414.5,-77 422.3,-77 427.51,-73.84 430.14,-69.09"/>
<polygon fill="black" stroke="black" points="433.59,-69.66 432.06,-59.18 426.72,-68.33 433.59,-69.66"/>
<text text-anchor="start" x="402.5" y="-80.8" font-family="arial" font-size="14.00" fill="#377eb8">true</text>
</g>
<!-- ID_130_ct0_st02 -->
<g id="node5" class="node">
<title>ID_130_ct0_st02</title>
<polygon fill="none" stroke="black" points="661,-59 539,-59 539,-9 661,-9 661,-59"/>
<text text-anchor="start" x="547" y="-44.8" font-family="arial" font-weight="bold" font-size="14.00">ID_130_ct0_st02</text>
<text text-anchor="start" x="553" y="-30.8" font-family="arial" font-size="14.00" fill="#984ea3">(!P &amp;&amp; (S || !R))</text>
<text text-anchor="start" x="588" y="-16.8" font-family="arial" font-size="14.00" fill="#ff7f00">true</text>
</g>
<!-- ID_130_ct0_st012&#45;&gt;ID_130_ct0_st02 -->
<g id="edge7" class="edge">
<title>ID_130_ct0_st012&#45;&gt;ID_130_ct0_st02</title>
<path fill="none" stroke="black" d="M479.16,-34C495.19,-34 512.49,-34 528.82,-34"/>
<polygon fill="black" stroke="black" points="528.84,-37.5 538.84,-34 528.84,-30.5 528.84,-37.5"/>
<text text-anchor="start" x="497" y="-37.8" font-family="arial" font-size="14.00" fill="#377eb8">true</text>
</g>
<!-- ID_130_ct0_st02&#45;&gt;ID_130_ct0_st012 -->
<g id="edge6" class="edge">
<title>ID_130_ct0_st02&#45;&gt;ID_130_ct0_st012</title>
<path fill="none" stroke="black" d="M538.77,-18.68C532.8,-17.59 526.8,-16.66 521,-16 510.72,-14.83 499.91,-15.02 489.31,-16.03"/>
<polygon fill="black" stroke="black" points="488.73,-12.58 479.22,-17.24 489.56,-19.53 488.73,-12.58"/>
<text text-anchor="start" x="497" y="-19.8" font-family="arial" font-size="14.00" fill="#377eb8">true</text>
</g>
<!-- ID_130_ct0_st02&#45;&gt;ID_130_ct0_st02 -->
<g id="edge5" class="edge">
<title>ID_130_ct0_st02&#45;&gt;ID_130_ct0_st02</title>
<path fill="none" stroke="black" d="M583.19,-59.18C582.44,-68.91 588.05,-77 600,-77 607.47,-77 612.46,-73.84 614.97,-69.09"/>
<polygon fill="black" stroke="black" points="618.43,-69.65 616.81,-59.18 611.54,-68.37 618.43,-69.65"/>
<text text-anchor="start" x="588" y="-80.8" font-family="arial" font-size="14.00" fill="#377eb8">true</text>
</g>
</g>
</svg>
