<?xml version="1.0" encoding="UTF-8" standalone="no"?>
<!DOCTYPE svg PUBLIC "-//W3C//DTD SVG 1.1//EN"
 "http://www.w3.org/Graphics/SVG/1.1/DTD/svg11.dtd">
<!-- Generated by graphviz version 2.43.0 (0)
 -->
<!-- Title: G Pages: 1 -->
<svg width="652pt" height="161pt"
 viewBox="0.00 0.00 652.00 161.00" xmlns="http://www.w3.org/2000/svg" xmlns:xlink="http://www.w3.org/1999/xlink">
<g id="graph0" class="graph" transform="scale(1 1) rotate(0) translate(4 157)">
<title>G</title>
<polygon fill="white" stroke="transparent" points="-4,4 -4,-157 648,-157 648,4 -4,4"/>
<!-- _ID_64_ct0_st0 -->
<!-- ID_64_ct0_st0 -->
<g id="node2" class="node">
<title>ID_64_ct0_st0</title>
<polygon fill="none" stroke="black" points="264.5,-120 157.5,-120 157.5,-70 264.5,-70 264.5,-120"/>
<text text-anchor="start" x="165.5" y="-105.8" font-family="arial" font-weight="bold" font-size="14.00">ID_64_ct0_st0</text>
<text text-anchor="start" x="204" y="-91.8" font-family="arial" font-size="14.00" fill="#984ea3">!R</text>
<text text-anchor="start" x="199" y="-77.8" font-family="arial" font-size="14.00" fill="#ff7f00">true</text>
</g>
<!-- _ID_64_ct0_st0&#45;&gt;ID_64_ct0_st0 -->
<g id="edge1" class="edge">
<title>_ID_64_ct0_st0&#45;&gt;ID_64_ct0_st0</title>
<path fill="none" stroke="black" d="M111.05,-95C122.71,-95 135.13,-95 147.08,-95"/>
<polygon fill="black" stroke="black" points="147.43,-98.5 157.43,-95 147.43,-91.5 147.43,-98.5"/>
</g>
<!-- ID_64_ct0_st0&#45;&gt;ID_64_ct0_st0 -->
<g id="edge3" class="edge">
<title>ID_64_ct0_st0&#45;&gt;ID_64_ct0_st0</title>
<path fill="none" stroke="black" d="M196.06,-120.18C195.39,-129.91 200.38,-138 211,-138 217.64,-138 222.08,-134.84 224.31,-130.09"/>
<polygon fill="black" stroke="black" points="227.77,-130.61 225.94,-120.18 220.86,-129.47 227.77,-130.61"/>
<text text-anchor="start" x="199" y="-141.8" font-family="arial" font-size="14.00" fill="#377eb8">true</text>
</g>
<!-- ID_64_ct0_st012 -->
<g id="node4" class="node">
<title>ID_64_ct0_st012</title>
<polygon fill="none" stroke="black" points="456,-50 334,-50 334,0 456,0 456,-50"/>
<text text-anchor="start" x="342" y="-35.8" font-family="arial" font-weight="bold" font-size="14.00">ID_64_ct0_st012</text>
<text text-anchor="start" x="368" y="-21.8" font-family="arial" font-size="14.00" fill="#984ea3">(R &amp;&amp; S)</text>
<text text-anchor="start" x="383" y="-7.8" font-family="arial" font-size="14.00" fill="#ff7f00">true</text>
</g>
<!-- ID_64_ct0_st0&#45;&gt;ID_64_ct0_st012 -->
<g id="edge4" class="edge">
<title>ID_64_ct0_st0&#45;&gt;ID_64_ct0_st012</title>
<path fill="none" stroke="black" d="M264.64,-74.75C283.23,-67.6 304.43,-59.45 324.21,-51.84"/>
<polygon fill="black" stroke="black" points="325.71,-55.02 333.79,-48.16 323.2,-48.48 325.71,-55.02"/>
<text text-anchor="start" x="292" y="-68.8" font-family="arial" font-size="14.00" fill="#377eb8">true</text>
</g>
<!-- _ID_64_ct0_st012 -->
<!-- _ID_64_ct0_st012&#45;&gt;ID_64_ct0_st012 -->
<g id="edge2" class="edge">
<title>_ID_64_ct0_st012&#45;&gt;ID_64_ct0_st012</title>
<path fill="none" stroke="black" d="M274.13,-25C290.07,-25 307.34,-25 323.67,-25"/>
<polygon fill="black" stroke="black" points="323.69,-28.5 333.69,-25 323.69,-21.5 323.69,-28.5"/>
</g>
<!-- ID_64_ct0_st012&#45;&gt;ID_64_ct0_st012 -->
<g id="edge9" class="edge">
<title>ID_64_ct0_st012&#45;&gt;ID_64_ct0_st012</title>
<path fill="none" stroke="black" d="M378.19,-50.18C377.44,-59.91 383.05,-68 395,-68 402.47,-68 407.46,-64.84 409.97,-60.09"/>
<polygon fill="black" stroke="black" points="413.43,-60.65 411.81,-50.18 406.54,-59.37 413.43,-60.65"/>
<text text-anchor="start" x="383" y="-71.8" font-family="arial" font-size="14.00" fill="#377eb8">true</text>
</g>
<!-- ID_64_ct0_st02 -->
<g id="node5" class="node">
<title>ID_64_ct0_st02</title>
<polygon fill="none" stroke="black" points="644,-88 530,-88 530,-38 644,-38 644,-88"/>
<text text-anchor="start" x="538" y="-73.8" font-family="arial" font-weight="bold" font-size="14.00">ID_64_ct0_st02</text>
<text text-anchor="start" x="558" y="-59.8" font-family="arial" font-size="14.00" fill="#984ea3">(!R &amp;&amp; S)</text>
<text text-anchor="start" x="564" y="-45.8" font-family="arial" font-size="14.00" fill="#ff7f00">c0 &lt;= 5</text>
</g>
<!-- ID_64_ct0_st012&#45;&gt;ID_64_ct0_st02 -->
<g id="edge8" class="edge">
<title>ID_64_ct0_st012&#45;&gt;ID_64_ct0_st02</title>
<path fill="none" stroke="black" d="M456.03,-37.37C462.1,-38.6 468.17,-39.83 474,-41 488.76,-43.96 504.62,-47.11 519.63,-50.06"/>
<polygon fill="black" stroke="black" points="519.38,-53.58 529.87,-52.07 520.73,-46.71 519.38,-53.58"/>
<text text-anchor="start" x="481" y="-67.8" font-family="arial" font-size="14.00" fill="#377eb8">true</text>
<text text-anchor="start" x="474" y="-52.8" font-family="arial" font-size="14.00">c0 :=0</text>
</g>
<!-- ID_64_ct0_st02&#45;&gt;ID_64_ct0_st0 -->
<g id="edge5" class="edge">
<title>ID_64_ct0_st02&#45;&gt;ID_64_ct0_st0</title>
<path fill="none" stroke="black" d="M529.99,-78.8C523.94,-80.31 517.86,-81.74 512,-83 431.55,-100.29 336.24,-100.82 274.99,-98.68"/>
<polygon fill="black" stroke="black" points="274.83,-95.17 264.71,-98.29 274.57,-102.17 274.83,-95.17"/>
<text text-anchor="start" x="372" y="-102.8" font-family="arial" font-size="14.00" fill="#377eb8">c0 &gt;= 5</text>
</g>
<!-- ID_64_ct0_st02&#45;&gt;ID_64_ct0_st012 -->
<g id="edge7" class="edge">
<title>ID_64_ct0_st02&#45;&gt;ID_64_ct0_st012</title>
<path fill="none" stroke="black" d="M543.83,-37.82C533.73,-32.97 522.75,-28.59 512,-26 497.52,-22.52 481.73,-20.96 466.59,-20.51"/>
<polygon fill="black" stroke="black" points="466.29,-17.01 456.24,-20.37 466.19,-24.01 466.29,-17.01"/>
<text text-anchor="start" x="481" y="-29.8" font-family="arial" font-size="14.00" fill="#377eb8">true</text>
</g>
<!-- ID_64_ct0_st02&#45;&gt;ID_64_ct0_st02 -->
<g id="edge6" class="edge">
<title>ID_64_ct0_st02&#45;&gt;ID_64_ct0_st02</title>
<path fill="none" stroke="black" d="M569.44,-88.18C568.66,-97.91 574.52,-106 587,-106 594.8,-106 600.01,-102.84 602.64,-98.09"/>
<polygon fill="black" stroke="black" points="606.09,-98.66 604.56,-88.18 599.22,-97.33 606.09,-98.66"/>
<text text-anchor="start" x="568" y="-109.8" font-family="arial" font-size="14.00" fill="#377eb8">c0 &lt; 5</text>
</g>
</g>
</svg>
