<?xml version="1.0" encoding="UTF-8" standalone="no"?>
<!DOCTYPE svg PUBLIC "-//W3C//DTD SVG 1.1//EN"
 "http://www.w3.org/Graphics/SVG/1.1/DTD/svg11.dtd">
<!-- Generated by graphviz version 2.43.0 (0)
 -->
<!-- Title: G Pages: 1 -->
<svg width="588pt" height="296pt"
 viewBox="0.00 0.00 588.00 296.00" xmlns="http://www.w3.org/2000/svg" xmlns:xlink="http://www.w3.org/1999/xlink">
<g id="graph0" class="graph" transform="scale(1 1) rotate(0) translate(4 292)">
<title>G</title>
<polygon fill="white" stroke="transparent" points="-4,4 -4,-292 584,-292 584,4 -4,4"/>
<!-- _stinit -->
<!-- stinit -->
<g id="node2" class="node">
<title>stinit</title>
<polygon fill="none" stroke="black" points="455,-255 401,-255 401,-205 455,-205 455,-255"/>
<text text-anchor="start" x="411.5" y="-240.8" font-family="arial" font-weight="bold" font-size="14.00">stinit</text>
<text text-anchor="start" x="422" y="-226.8" font-family="arial" font-size="14.00" fill="#984ea3">Q</text>
<text text-anchor="start" x="416" y="-212.8" font-family="arial" font-size="14.00" fill="#ff7f00">true</text>
</g>
<!-- _stinit&#45;&gt;stinit -->
<g id="edge1" class="edge">
<title>_stinit&#45;&gt;stinit</title>
<path fill="none" stroke="black" d="M303.13,-230C327.36,-230 363.64,-230 390.69,-230"/>
<polygon fill="black" stroke="black" points="390.92,-233.5 400.92,-230 390.92,-226.5 390.92,-233.5"/>
</g>
<!-- stinit&#45;&gt;stinit -->
<g id="edge5" class="edge">
<title>stinit&#45;&gt;stinit</title>
<path fill="none" stroke="black" d="M415.3,-255.18C414.74,-264.91 418.97,-273 428,-273 433.64,-273 437.41,-269.84 439.31,-265.09"/>
<polygon fill="black" stroke="black" points="442.78,-265.56 440.7,-255.18 435.85,-264.59 442.78,-265.56"/>
<text text-anchor="start" x="416" y="-276.8" font-family="arial" font-size="14.00" fill="#377eb8">true</text>
</g>
<!-- st -->
<g id="node7" class="node">
<title>st</title>
<polygon fill="none" stroke="black" points="580,-173 526,-173 526,-123 580,-123 580,-173"/>
<text text-anchor="start" x="546.5" y="-158.8" font-family="arial" font-weight="bold" font-size="14.00">st</text>
<text text-anchor="start" x="541" y="-144.8" font-family="arial" font-size="14.00" fill="#984ea3">true</text>
<text text-anchor="start" x="541" y="-130.8" font-family="arial" font-size="14.00" fill="#ff7f00">true</text>
</g>
<!-- stinit&#45;&gt;st -->
<g id="edge4" class="edge">
<title>stinit&#45;&gt;st</title>
<path fill="none" stroke="black" d="M455.06,-217.2C470.85,-209.03 491.15,-197.79 508,-186 511.26,-183.72 514.55,-181.25 517.8,-178.69"/>
<polygon fill="black" stroke="black" points="520.19,-181.26 525.71,-172.22 515.76,-175.84 520.19,-181.26"/>
<text text-anchor="start" x="484" y="-203.8" font-family="arial" font-size="14.00" fill="#377eb8">true</text>
</g>
<!-- _st0 -->
<!-- st0 -->
<g id="node4" class="node">
<title>st0</title>
<polygon fill="none" stroke="black" points="316,-141 236,-141 236,-91 316,-91 316,-141"/>
<text text-anchor="start" x="266" y="-126.8" font-family="arial" font-weight="bold" font-size="14.00">st0</text>
<text text-anchor="start" x="244" y="-112.8" font-family="arial" font-size="14.00" fill="#984ea3">(!Q &amp;&amp; !R)</text>
<text text-anchor="start" x="264" y="-98.8" font-family="arial" font-size="14.00" fill="#ff7f00">true</text>
</g>
<!-- _st0&#45;&gt;st0 -->
<g id="edge2" class="edge">
<title>_st0&#45;&gt;st0</title>
<path fill="none" stroke="black" d="M165.22,-118.42C182.39,-118.04 205.36,-117.54 225.85,-117.08"/>
<polygon fill="black" stroke="black" points="226.06,-120.58 235.98,-116.86 225.91,-113.58 226.06,-120.58"/>
</g>
<!-- st0&#45;&gt;st0 -->
<g id="edge8" class="edge">
<title>st0&#45;&gt;st0</title>
<path fill="none" stroke="black" d="M262.93,-141.18C262.35,-150.91 266.7,-159 276,-159 281.81,-159 285.69,-155.84 287.64,-151.09"/>
<polygon fill="black" stroke="black" points="291.11,-151.57 289.07,-141.18 284.18,-150.57 291.11,-151.57"/>
<text text-anchor="start" x="264" y="-162.8" font-family="arial" font-size="14.00" fill="#377eb8">true</text>
</g>
<!-- st0&#45;&gt;st -->
<g id="edge7" class="edge">
<title>st0&#45;&gt;st</title>
<path fill="none" stroke="black" d="M316.28,-130.8C322.17,-132.72 328.21,-134.53 334,-136 396.28,-151.8 471.67,-151.94 515.5,-150.23"/>
<polygon fill="black" stroke="black" points="515.84,-153.71 525.67,-149.77 515.53,-146.72 515.84,-153.71"/>
<text text-anchor="start" x="420.5" y="-153.8" font-family="arial" font-size="14.00" fill="#377eb8">Q&#39;</text>
</g>
<!-- st01X -->
<g id="node8" class="node">
<title>st01X</title>
<polygon fill="none" stroke="black" points="466,-103 390,-103 390,-53 466,-53 466,-103"/>
<text text-anchor="start" x="409.5" y="-88.8" font-family="arial" font-weight="bold" font-size="14.00">st01X</text>
<text text-anchor="start" x="398" y="-74.8" font-family="arial" font-size="14.00" fill="#984ea3">(!Q &amp;&amp; R)</text>
<text text-anchor="start" x="409" y="-60.8" font-family="arial" font-size="14.00" fill="#ff7f00">c0 &lt; 5</text>
</g>
<!-- st0&#45;&gt;st01X -->
<g id="edge9" class="edge">
<title>st0&#45;&gt;st01X</title>
<path fill="none" stroke="black" d="M316.41,-107.39C333.54,-103.51 353.82,-98.75 372,-94 374.62,-93.32 377.3,-92.6 380,-91.86"/>
<polygon fill="black" stroke="black" points="381.11,-95.18 389.8,-89.13 379.23,-88.44 381.11,-95.18"/>
<text text-anchor="start" x="341" y="-120.8" font-family="arial" font-size="14.00" fill="#377eb8">true</text>
<text text-anchor="start" x="334" y="-105.8" font-family="arial" font-size="14.00">c0 :=0</text>
</g>
<!-- _st01W -->
<!-- st01W -->
<g id="node6" class="node">
<title>st01W</title>
<polygon fill="none" stroke="black" points="176,-50 100,-50 100,0 176,0 176,-50"/>
<text text-anchor="start" x="117.5" y="-35.8" font-family="arial" font-weight="bold" font-size="14.00">st01W</text>
<text text-anchor="start" x="108" y="-21.8" font-family="arial" font-size="14.00" fill="#984ea3">(!Q &amp;&amp; R)</text>
<text text-anchor="start" x="115" y="-7.8" font-family="arial" font-size="14.00" fill="#ff7f00">c0 &lt;= 5</text>
</g>
<!-- _st01W&#45;&gt;st01W -->
<g id="edge3" class="edge">
<title>_st01W&#45;&gt;st01W</title>
<path fill="none" stroke="black" d="M63.01,-25C71.41,-25 80.73,-25 89.84,-25"/>
<polygon fill="black" stroke="black" points="89.97,-28.5 99.97,-25 89.97,-21.5 89.97,-28.5"/>
</g>
<!-- st01W&#45;&gt;st0 -->
<g id="edge11" class="edge">
<title>st01W&#45;&gt;st0</title>
<path fill="none" stroke="black" d="M176.16,-49.87C192.37,-60.71 211.54,-73.54 228.67,-85"/>
<polygon fill="black" stroke="black" points="227.15,-88.2 237.41,-90.85 231.05,-82.38 227.15,-88.2"/>
<text text-anchor="start" x="194" y="-78.8" font-family="arial" font-size="14.00" fill="#377eb8">true</text>
</g>
<!-- st01W&#45;&gt;st01W -->
<g id="edge12" class="edge">
<title>st01W&#45;&gt;st01W</title>
<path fill="none" stroke="black" d="M127.54,-50.18C127.08,-59.91 130.56,-68 138,-68 142.53,-68 145.6,-65 147.2,-60.45"/>
<polygon fill="black" stroke="black" points="150.71,-60.53 148.46,-50.18 143.76,-59.67 150.71,-60.53"/>
<text text-anchor="start" x="119" y="-71.8" font-family="arial" font-size="14.00" fill="#377eb8">c0 &lt; 5</text>
</g>
<!-- st01W&#45;&gt;st -->
<g id="edge10" class="edge">
<title>st01W&#45;&gt;st</title>
<path fill="none" stroke="black" d="M176.03,-18.04C239.33,-8.05 370.76,4.25 466,-44 495.84,-59.12 519.14,-89.72 533.92,-113.83"/>
<polygon fill="black" stroke="black" points="531.06,-115.88 539.16,-122.71 537.09,-112.32 531.06,-115.88"/>
<text text-anchor="start" x="345.5" y="-19.8" font-family="arial" font-size="14.00" fill="#377eb8">Q&#39;</text>
</g>
<!-- st&#45;&gt;st -->
<g id="edge6" class="edge">
<title>st&#45;&gt;st</title>
<path fill="none" stroke="black" d="M542.54,-173.18C542.08,-182.91 545.56,-191 553,-191 557.53,-191 560.6,-188 562.2,-183.45"/>
<polygon fill="black" stroke="black" points="565.71,-183.53 563.46,-173.18 558.76,-182.67 565.71,-183.53"/>
<text text-anchor="start" x="541" y="-194.8" font-family="arial" font-size="14.00" fill="#377eb8">true</text>
</g>
<!-- st01X&#45;&gt;st0 -->
<g id="edge14" class="edge">
<title>st01X&#45;&gt;st0</title>
<path fill="none" stroke="black" d="M389.98,-71.13C372.6,-69.33 351.84,-69.25 334,-75 326.82,-77.31 319.78,-80.9 313.24,-85.02"/>
<polygon fill="black" stroke="black" points="310.93,-82.35 304.65,-90.88 314.88,-88.14 310.93,-82.35"/>
<text text-anchor="start" x="341" y="-78.8" font-family="arial" font-size="14.00" fill="#377eb8">true</text>
</g>
<!-- st01X&#45;&gt;st -->
<g id="edge13" class="edge">
<title>st01X&#45;&gt;st</title>
<path fill="none" stroke="black" d="M466.24,-99.19C482.31,-108.34 501.03,-118.99 516.86,-128"/>
<polygon fill="black" stroke="black" points="515.39,-131.19 525.81,-133.1 518.85,-125.11 515.39,-131.19"/>
<text text-anchor="start" x="488.5" y="-124.8" font-family="arial" font-size="14.00" fill="#377eb8">Q&#39;</text>
</g>
<!-- st01X&#45;&gt;st01X -->
<g id="edge15" class="edge">
<title>st01X&#45;&gt;st01X</title>
<path fill="none" stroke="black" d="M415.3,-103.18C414.74,-112.91 418.97,-121 428,-121 433.64,-121 437.41,-117.84 439.31,-113.09"/>
<polygon fill="black" stroke="black" points="442.78,-113.56 440.7,-103.18 435.85,-112.59 442.78,-113.56"/>
<text text-anchor="start" x="416" y="-124.8" font-family="arial" font-size="14.00" fill="#377eb8">true</text>
</g>
</g>
</svg>
