<?xml version="1.0" encoding="UTF-8" standalone="no"?>
<!DOCTYPE svg PUBLIC "-//W3C//DTD SVG 1.1//EN"
 "http://www.w3.org/Graphics/SVG/1.1/DTD/svg11.dtd">
<!-- Generated by graphviz version 2.43.0 (0)
 -->
<!-- Title: G Pages: 1 -->
<svg width="667pt" height="289pt"
 viewBox="0.00 0.00 667.00 289.09" xmlns="http://www.w3.org/2000/svg" xmlns:xlink="http://www.w3.org/1999/xlink">
<g id="graph0" class="graph" transform="scale(1 1) rotate(0) translate(4 285.09)">
<title>G</title>
<polygon fill="white" stroke="transparent" points="-4,4 -4,-285.09 663,-285.09 663,4 -4,4"/>
<!-- _stinit -->
<!-- stinit -->
<g id="node2" class="node">
<title>stinit</title>
<polygon fill="none" stroke="black" points="534,-248.09 480,-248.09 480,-198.09 534,-198.09 534,-248.09"/>
<text text-anchor="start" x="490.5" y="-233.89" font-family="arial" font-weight="bold" font-size="14.00">stinit</text>
<text text-anchor="start" x="501" y="-219.89" font-family="arial" font-size="14.00" fill="#984ea3">Q</text>
<text text-anchor="start" x="495" y="-205.89" font-family="arial" font-size="14.00" fill="#ff7f00">true</text>
</g>
<!-- _stinit&#45;&gt;stinit -->
<g id="edge1" class="edge">
<title>_stinit&#45;&gt;stinit</title>
<path fill="none" stroke="black" d="M296.6,-223.09C338.69,-223.09 421.65,-223.09 469.55,-223.09"/>
<polygon fill="black" stroke="black" points="469.78,-226.59 479.78,-223.09 469.78,-219.59 469.78,-226.59"/>
</g>
<!-- stinit&#45;&gt;stinit -->
<g id="edge5" class="edge">
<title>stinit&#45;&gt;stinit</title>
<path fill="none" stroke="black" d="M494.3,-248.27C493.74,-258 497.97,-266.09 507,-266.09 512.64,-266.09 516.41,-262.93 518.31,-258.19"/>
<polygon fill="black" stroke="black" points="521.78,-258.66 519.7,-248.27 514.85,-257.69 521.78,-258.66"/>
<text text-anchor="start" x="495" y="-269.89" font-family="arial" font-size="14.00" fill="#377eb8">true</text>
</g>
<!-- st -->
<g id="node7" class="node">
<title>st</title>
<polygon fill="none" stroke="black" points="659,-166.09 605,-166.09 605,-116.09 659,-116.09 659,-166.09"/>
<text text-anchor="start" x="625.5" y="-151.89" font-family="arial" font-weight="bold" font-size="14.00">st</text>
<text text-anchor="start" x="620" y="-137.89" font-family="arial" font-size="14.00" fill="#984ea3">true</text>
<text text-anchor="start" x="620" y="-123.89" font-family="arial" font-size="14.00" fill="#ff7f00">true</text>
</g>
<!-- stinit&#45;&gt;st -->
<g id="edge4" class="edge">
<title>stinit&#45;&gt;st</title>
<path fill="none" stroke="black" d="M534.06,-210.3C549.85,-202.13 570.15,-190.88 587,-179.09 590.26,-176.82 593.55,-174.34 596.8,-171.78"/>
<polygon fill="black" stroke="black" points="599.19,-174.35 604.71,-165.31 594.76,-168.93 599.19,-174.35"/>
<text text-anchor="start" x="563" y="-196.89" font-family="arial" font-size="14.00" fill="#377eb8">true</text>
</g>
<!-- _st0 -->
<!-- st0 -->
<g id="node4" class="node">
<title>st0</title>
<polygon fill="none" stroke="black" points="167,-62.09 91,-62.09 91,-12.09 167,-12.09 167,-62.09"/>
<text text-anchor="start" x="119" y="-47.89" font-family="arial" font-weight="bold" font-size="14.00">st0</text>
<text text-anchor="start" x="99" y="-33.89" font-family="arial" font-size="14.00" fill="#984ea3">(!Q &amp;&amp; R)</text>
<text text-anchor="start" x="117" y="-19.89" font-family="arial" font-size="14.00" fill="#ff7f00">true</text>
</g>
<!-- _st0&#45;&gt;st0 -->
<g id="edge2" class="edge">
<title>_st0&#45;&gt;st0</title>
<path fill="none" stroke="black" d="M54.01,-37.09C62.17,-37.09 71.44,-37.09 80.6,-37.09"/>
<polygon fill="black" stroke="black" points="80.82,-40.59 90.82,-37.09 80.82,-33.59 80.82,-40.59"/>
</g>
<!-- st0&#45;&gt;st0 -->
<g id="edge8" class="edge">
<title>st0&#45;&gt;st0</title>
<path fill="none" stroke="black" d="M118.54,-62.27C118.08,-72 121.56,-80.09 129,-80.09 133.53,-80.09 136.6,-77.09 138.2,-72.54"/>
<polygon fill="black" stroke="black" points="141.71,-72.62 139.46,-62.27 134.76,-71.77 141.71,-72.62"/>
<text text-anchor="start" x="117" y="-83.89" font-family="arial" font-size="14.00" fill="#377eb8">true</text>
</g>
<!-- st01 -->
<g id="node6" class="node">
<title>st01</title>
<polygon fill="none" stroke="black" points="309.5,-145.09 229.5,-145.09 229.5,-95.09 309.5,-95.09 309.5,-145.09"/>
<text text-anchor="start" x="255.5" y="-130.89" font-family="arial" font-weight="bold" font-size="14.00">st01</text>
<text text-anchor="start" x="237.5" y="-116.89" font-family="arial" font-size="14.00" fill="#984ea3">(!Q &amp;&amp; !R)</text>
<text text-anchor="start" x="257.5" y="-102.89" font-family="arial" font-size="14.00" fill="#ff7f00">true</text>
</g>
<!-- st0&#45;&gt;st01 -->
<g id="edge9" class="edge">
<title>st0&#45;&gt;st01</title>
<path fill="none" stroke="black" d="M167.12,-59.34C183.49,-69.15 202.95,-80.81 220.42,-91.28"/>
<polygon fill="black" stroke="black" points="218.97,-94.49 229.34,-96.63 222.57,-88.49 218.97,-94.49"/>
<text text-anchor="start" x="185" y="-86.89" font-family="arial" font-size="14.00" fill="#377eb8">true</text>
</g>
<!-- st0&#45;&gt;st -->
<g id="edge7" class="edge">
<title>st0&#45;&gt;st</title>
<path fill="none" stroke="black" d="M167.21,-26.55C243.06,-7.24 419.03,26.34 545,-37.09 574.87,-52.14 598.17,-82.75 612.94,-106.88"/>
<polygon fill="black" stroke="black" points="610.09,-108.93 618.18,-115.77 616.12,-105.37 610.09,-108.93"/>
<text text-anchor="start" x="383" y="-10.89" font-family="arial" font-size="14.00" fill="#377eb8">Q&#39;</text>
</g>
<!-- _st01 -->
<!-- _st01&#45;&gt;st01 -->
<g id="edge3" class="edge">
<title>_st01&#45;&gt;st01</title>
<path fill="none" stroke="black" d="M156.05,-129.03C173.83,-127.61 197.93,-125.7 219.26,-124"/>
<polygon fill="black" stroke="black" points="219.78,-127.47 229.47,-123.19 219.22,-120.5 219.78,-127.47"/>
</g>
<!-- st01&#45;&gt;st01 -->
<g id="edge12" class="edge">
<title>st01&#45;&gt;st01</title>
<path fill="none" stroke="black" d="M256.05,-145.27C255.46,-155 259.94,-163.09 269.5,-163.09 275.48,-163.09 279.47,-159.93 281.48,-155.19"/>
<polygon fill="black" stroke="black" points="284.94,-155.68 282.95,-145.27 278.02,-154.65 284.94,-155.68"/>
<text text-anchor="start" x="257.5" y="-166.89" font-family="arial" font-size="14.00" fill="#377eb8">true</text>
</g>
<!-- st01&#45;&gt;st -->
<g id="edge10" class="edge">
<title>st01&#45;&gt;st</title>
<path fill="none" stroke="black" d="M309.79,-143.86C316.34,-146.85 323.21,-149.43 330,-151.09 423.23,-173.92 537.53,-158.87 594.74,-148.52"/>
<polygon fill="black" stroke="black" points="595.55,-151.93 604.74,-146.66 594.27,-145.05 595.55,-151.93"/>
<text text-anchor="start" x="499.5" y="-165.89" font-family="arial" font-size="14.00" fill="#377eb8">Q&#39;</text>
</g>
<!-- st02 -->
<g id="node8" class="node">
<title>st02</title>
<polygon fill="none" stroke="black" points="545,-96.09 469,-96.09 469,-46.09 545,-46.09 545,-96.09"/>
<text text-anchor="start" x="493" y="-81.89" font-family="arial" font-weight="bold" font-size="14.00">st02</text>
<text text-anchor="start" x="477" y="-67.89" font-family="arial" font-size="14.00" fill="#984ea3">(!Q &amp;&amp; R)</text>
<text text-anchor="start" x="484" y="-53.89" font-family="arial" font-size="14.00" fill="#ff7f00">c0 &lt;= 5</text>
</g>
<!-- st01&#45;&gt;st02 -->
<g id="edge11" class="edge">
<title>st01&#45;&gt;st02</title>
<path fill="none" stroke="black" d="M309.64,-119.08C346.73,-117.25 403.64,-112.17 451,-98.09 453.77,-97.27 456.58,-96.32 459.37,-95.27"/>
<polygon fill="black" stroke="black" points="460.87,-98.44 468.8,-91.41 458.22,-91.96 460.87,-98.44"/>
<text text-anchor="start" x="378.5" y="-135.89" font-family="arial" font-size="14.00" fill="#377eb8">true</text>
<text text-anchor="start" x="371.5" y="-120.89" font-family="arial" font-size="14.00">c0 :=0</text>
</g>
<!-- st&#45;&gt;st -->
<g id="edge6" class="edge">
<title>st&#45;&gt;st</title>
<path fill="none" stroke="black" d="M621.54,-166.27C621.08,-176 624.56,-184.09 632,-184.09 636.53,-184.09 639.6,-181.09 641.2,-176.54"/>
<polygon fill="black" stroke="black" points="644.71,-176.62 642.46,-166.27 637.76,-175.77 644.71,-176.62"/>
<text text-anchor="start" x="620" y="-187.89" font-family="arial" font-size="14.00" fill="#377eb8">true</text>
</g>
<!-- st02&#45;&gt;st0 -->
<g id="edge14" class="edge">
<title>st02&#45;&gt;st0</title>
<path fill="none" stroke="black" d="M468.76,-65.35C462.83,-64.53 456.75,-63.75 451,-63.09 354.1,-52.13 240.24,-44.04 177.51,-39.99"/>
<polygon fill="black" stroke="black" points="177.35,-36.48 167.15,-39.33 176.9,-43.46 177.35,-36.48"/>
<text text-anchor="start" x="227" y="-52.89" font-family="arial" font-size="14.00" fill="#377eb8">(Q&#39; || c0 &gt;= 5)</text>
</g>
<!-- st02&#45;&gt;st01 -->
<g id="edge16" class="edge">
<title>st02&#45;&gt;st01</title>
<path fill="none" stroke="black" d="M468.85,-66.97C432.47,-64.26 375.95,-63.64 330,-79.09 322.56,-81.6 315.2,-85.33 308.33,-89.53"/>
<polygon fill="black" stroke="black" points="306.35,-86.64 299.92,-95.06 310.2,-92.49 306.35,-86.64"/>
<text text-anchor="start" x="330" y="-82.89" font-family="arial" font-size="14.00" fill="#377eb8">(Q&#39; || (R&#39; || c0 &gt;= 5))</text>
</g>
<!-- st02&#45;&gt;st -->
<g id="edge13" class="edge">
<title>st02&#45;&gt;st</title>
<path fill="none" stroke="black" d="M545.24,-92.29C561.31,-101.44 580.03,-112.08 595.86,-121.1"/>
<polygon fill="black" stroke="black" points="594.39,-124.29 604.81,-126.19 597.85,-118.2 594.39,-124.29"/>
<text text-anchor="start" x="567.5" y="-117.89" font-family="arial" font-size="14.00" fill="#377eb8">Q&#39;</text>
</g>
<!-- st02&#45;&gt;st02 -->
<g id="edge15" class="edge">
<title>st02&#45;&gt;st02</title>
<path fill="none" stroke="black" d="M494.3,-96.27C493.74,-106 497.97,-114.09 507,-114.09 512.64,-114.09 516.41,-110.93 518.31,-106.19"/>
<polygon fill="black" stroke="black" points="521.78,-106.66 519.7,-96.27 514.85,-105.69 521.78,-106.66"/>
<text text-anchor="start" x="488" y="-117.89" font-family="arial" font-size="14.00" fill="#377eb8">c0 &lt; 5</text>
</g>
</g>
</svg>
