<?xml version="1.0" encoding="UTF-8" standalone="no"?>
<!DOCTYPE svg PUBLIC "-//W3C//DTD SVG 1.1//EN"
 "http://www.w3.org/Graphics/SVG/1.1/DTD/svg11.dtd">
<!-- Generated by graphviz version 2.40.1 (20161225.0304)
 -->
<!-- Title: G Pages: 1 -->
<svg width="1505pt" height="674pt"
 viewBox="0.00 0.00 1505.00 674.00" xmlns="http://www.w3.org/2000/svg" xmlns:xlink="http://www.w3.org/1999/xlink">
<g id="graph0" class="graph" transform="scale(1 1) rotate(0) translate(4 670)">
<title>G</title>
<polygon fill="#ffffff" stroke="transparent" points="-4,4 -4,-670 1501,-670 1501,4 -4,4"/>
<!-- _st0 -->
<!-- st0 -->
<g id="node2" class="node">
<title>st0</title>
<polygon fill="none" stroke="#000000" points="157,-347 91,-347 91,-297 157,-297 157,-347"/>
<text text-anchor="start" x="113" y="-332.8" font-family="arial" font-weight="bold" font-size="14.00" fill="#000000">st0</text>
<text text-anchor="start" x="99" y="-318.8" font-family="arial" font-size="14.00" fill="#984ea3">(R || !Q)</text>
<text text-anchor="start" x="111.5" y="-304.8" font-family="arial" font-size="14.00" fill="#ff7f00">true</text>
</g>
<!-- _st0&#45;&gt;st0 -->
<g id="edge1" class="edge">
<title>_st0&#45;&gt;st0</title>
<path fill="none" stroke="#000000" d="M54.0199,-322C62.3287,-322 71.6915,-322 80.8018,-322"/>
<polygon fill="#000000" stroke="#000000" points="80.9106,-325.5001 90.9106,-322 80.9105,-318.5001 80.9106,-325.5001"/>
</g>
<!-- st0&#45;&gt;st0 -->
<g id="edge4" class="edge">
<title>st0&#45;&gt;st0</title>
<path fill="none" stroke="#000000" d="M114.6616,-347.1756C114.2466,-356.9095 117.3594,-365 124,-365 128.0466,-365 130.7832,-361.9957 132.2098,-357.446"/>
<polygon fill="#000000" stroke="#000000" points="135.7251,-357.4981 133.3384,-347.1756 128.767,-356.7335 135.7251,-357.4981"/>
<text text-anchor="start" x="111.5" y="-368.8" font-family="arial" font-size="14.00" fill="#377eb8">true</text>
</g>
<!-- st012 -->
<g id="node4" class="node">
<title>st012</title>
<polygon fill="none" stroke="#000000" points="342,-206 218,-206 218,-156 342,-156 342,-206"/>
<text text-anchor="start" x="261" y="-191.8" font-family="arial" font-weight="bold" font-size="14.00" fill="#000000">st012</text>
<text text-anchor="start" x="226" y="-177.8" font-family="arial" font-size="14.00" fill="#984ea3">(Q &amp;&amp; (!R &amp;&amp; S))</text>
<text text-anchor="start" x="267.5" y="-163.8" font-family="arial" font-size="14.00" fill="#ff7f00">true</text>
</g>
<!-- st0&#45;&gt;st012 -->
<g id="edge5" class="edge">
<title>st0&#45;&gt;st012</title>
<path fill="none" stroke="#000000" d="M130.1577,-296.9485C137.2149,-273.2438 151.0219,-238.2208 175,-217 184.565,-208.5349 196.2158,-202.0399 208.231,-197.0624"/>
<polygon fill="#000000" stroke="#000000" points="209.8053,-200.2085 217.9122,-193.3872 207.3209,-193.6642 209.8053,-200.2085"/>
<text text-anchor="start" x="175" y="-220.8" font-family="arial" font-size="14.00" fill="#377eb8">true</text>
</g>
<!-- st0123 -->
<g id="node6" class="node">
<title>st0123</title>
<polygon fill="none" stroke="#000000" points="1497,-437 1369,-437 1369,-387 1497,-387 1497,-437"/>
<text text-anchor="start" x="1410" y="-422.8" font-family="arial" font-weight="bold" font-size="14.00" fill="#000000">st0123</text>
<text text-anchor="start" x="1377" y="-408.8" font-family="arial" font-size="14.00" fill="#984ea3">(Q &amp;&amp; (!R &amp;&amp; !S))</text>
<text text-anchor="start" x="1420.5" y="-394.8" font-family="arial" font-size="14.00" fill="#ff7f00">true</text>
</g>
<!-- st0&#45;&gt;st0123 -->
<g id="edge6" class="edge">
<title>st0&#45;&gt;st0123</title>
<path fill="none" stroke="#000000" d="M125.208,-347.3557C128.7173,-410.7135 140.9195,-573.7394 175,-614 206.9683,-651.7654 230.5207,-651 280,-651 280,-651 280,-651 1244,-651 1294.3185,-651 1314.4945,-648.6309 1351,-614 1398.6643,-568.7834 1419.3909,-492.0129 1427.7961,-447.2687"/>
<polygon fill="#000000" stroke="#000000" points="1431.2892,-447.615 1429.5876,-437.1577 1424.3965,-446.3937 1431.2892,-447.615"/>
<text text-anchor="start" x="742.5" y="-654.8" font-family="arial" font-size="14.00" fill="#377eb8">true</text>
</g>
<!-- _st012 -->
<!-- _st012&#45;&gt;st012 -->
<g id="edge2" class="edge">
<title>_st012&#45;&gt;st012</title>
<path fill="none" stroke="#000000" d="M154.8206,-181C170.1,-181 189.2483,-181 207.9391,-181"/>
<polygon fill="#000000" stroke="#000000" points="207.9473,-184.5001 217.9472,-181 207.9472,-177.5001 207.9473,-184.5001"/>
</g>
<!-- st012&#45;&gt;st0 -->
<g id="edge12" class="edge">
<title>st012&#45;&gt;st0</title>
<path fill="none" stroke="#000000" d="M239.2327,-206.0542C218.8469,-219.5605 194.4437,-237.2747 175,-256 164.8598,-265.7655 155.0662,-277.6323 146.8183,-288.596"/>
<polygon fill="#000000" stroke="#000000" points="143.9262,-286.6213 140.8323,-296.7543 149.57,-290.7623 143.9262,-286.6213"/>
<text text-anchor="start" x="180.5" y="-259.8" font-family="arial" font-size="14.00" fill="#377eb8">R&#39;</text>
</g>
<!-- st012&#45;&gt;st012 -->
<g id="edge15" class="edge">
<title>st012&#45;&gt;st012</title>
<path fill="none" stroke="#000000" d="M262.8174,-206.1756C262.0537,-215.9095 267.7813,-224 280,-224 287.6367,-224 292.7378,-220.8397 295.3033,-216.093"/>
<polygon fill="#000000" stroke="#000000" points="298.7595,-216.6525 297.1826,-206.1756 291.8819,-215.3491 298.7595,-216.6525"/>
<text text-anchor="start" x="267.5" y="-227.8" font-family="arial" font-size="14.00" fill="#377eb8">true</text>
</g>
<!-- st012&#45;&gt;st0123 -->
<g id="edge16" class="edge">
<title>st012&#45;&gt;st0123</title>
<path fill="none" stroke="#000000" d="M296.7228,-155.7636C326.1633,-114.7112 391.4806,-38 468.5,-38 468.5,-38 468.5,-38 855,-38 1059.5266,-38 1138.565,-4.4448 1308,-119 1395.6661,-178.2711 1422.1153,-312.6321 1429.8834,-376.717"/>
<polygon fill="#000000" stroke="#000000" points="1426.4152,-377.1968 1431.0144,-386.7414 1433.3711,-376.412 1426.4152,-377.1968"/>
<text text-anchor="start" x="842.5" y="-41.8" font-family="arial" font-size="14.00" fill="#377eb8">true</text>
</g>
<!-- st02 -->
<g id="node7" class="node">
<title>st02</title>
<polygon fill="none" stroke="#000000" points="1308,-178 1180,-178 1180,-128 1308,-128 1308,-178"/>
<text text-anchor="start" x="1229" y="-163.8" font-family="arial" font-weight="bold" font-size="14.00" fill="#000000">st02</text>
<text text-anchor="start" x="1188" y="-149.8" font-family="arial" font-size="14.00" fill="#984ea3">(!Q &amp;&amp; (!R &amp;&amp; S))</text>
<text text-anchor="start" x="1231.5" y="-135.8" font-family="arial" font-size="14.00" fill="#ff7f00">true</text>
</g>
<!-- st012&#45;&gt;st02 -->
<g id="edge13" class="edge">
<title>st012&#45;&gt;st02</title>
<path fill="none" stroke="#000000" d="M308.0351,-155.7676C342.9697,-127.027 405.7484,-84 468.5,-84 468.5,-84 468.5,-84 957,-84 1030.9977,-84 1112.8281,-105.9524 1170.1127,-125.0928"/>
<polygon fill="#000000" stroke="#000000" points="1169.2076,-128.4816 1179.802,-128.3816 1171.4576,-121.8531 1169.2076,-128.4816"/>
<text text-anchor="start" x="742.5" y="-87.8" font-family="arial" font-size="14.00" fill="#377eb8">true</text>
</g>
<!-- st023 -->
<g id="node8" class="node">
<title>st023</title>
<polygon fill="none" stroke="#000000" points="534,-385 403,-385 403,-335 534,-335 534,-385"/>
<text text-anchor="start" x="449.5" y="-370.8" font-family="arial" font-weight="bold" font-size="14.00" fill="#000000">st023</text>
<text text-anchor="start" x="411" y="-356.8" font-family="arial" font-size="14.00" fill="#984ea3">(!Q &amp;&amp; (!R &amp;&amp; !S))</text>
<text text-anchor="start" x="456" y="-342.8" font-family="arial" font-size="14.00" fill="#ff7f00">true</text>
</g>
<!-- st012&#45;&gt;st023 -->
<g id="edge14" class="edge">
<title>st012&#45;&gt;st023</title>
<path fill="none" stroke="#000000" d="M291.5656,-206.3808C304.8991,-233.3784 329.0173,-275.9758 360,-304 370.985,-313.936 384.0567,-322.6201 397.2575,-329.9953"/>
<polygon fill="#000000" stroke="#000000" points="395.9259,-333.2526 406.3932,-334.8915 399.2325,-327.0828 395.9259,-333.2526"/>
<text text-anchor="start" x="360" y="-325.8" font-family="arial" font-size="14.00" fill="#377eb8">true</text>
</g>
<!-- _st0123 -->
<!-- _st0123&#45;&gt;st0123 -->
<g id="edge3" class="edge">
<title>_st0123&#45;&gt;st0123</title>
<path fill="none" stroke="#000000" d="M1278.7405,-549.3669C1300.9685,-545.0822 1329.5513,-537.0038 1351,-522 1378.8644,-502.5082 1401.1519,-470.5475 1415.4171,-446.0864"/>
<polygon fill="#000000" stroke="#000000" points="1418.6115,-447.5479 1420.4865,-437.1203 1412.518,-444.1027 1418.6115,-447.5479"/>
</g>
<!-- st0123&#45;&gt;st0 -->
<g id="edge22" class="edge">
<title>st0123&#45;&gt;st0</title>
<path fill="none" stroke="#000000" d="M1422.039,-437.3545C1397.9473,-488.6705 1335.1741,-600 1244,-600 280,-600 280,-600 280,-600 170.0176,-600 136.7823,-432.4761 127.4161,-357.5178"/>
<polygon fill="#000000" stroke="#000000" points="130.8425,-356.685 126.2011,-347.161 123.8902,-357.5007 130.8425,-356.685"/>
<text text-anchor="start" x="748" y="-603.8" font-family="arial" font-size="14.00" fill="#377eb8">R&#39;</text>
</g>
<!-- st0123&#45;&gt;st0123 -->
<g id="edge26" class="edge">
<title>st0123&#45;&gt;st0123</title>
<path fill="none" stroke="#000000" d="M1415.4438,-437.1756C1414.6636,-446.9095 1420.5156,-455 1433,-455 1440.8027,-455 1446.0147,-451.8397 1448.6359,-447.093"/>
<polygon fill="#000000" stroke="#000000" points="1452.0913,-447.6586 1450.5562,-437.1756 1445.219,-446.3279 1452.0913,-447.6586"/>
<text text-anchor="start" x="1420.5" y="-458.8" font-family="arial" font-size="14.00" fill="#377eb8">true</text>
</g>
<!-- st0123&#45;&gt;st023 -->
<g id="edge24" class="edge">
<title>st0123&#45;&gt;st023</title>
<path fill="none" stroke="#000000" d="M1368.7745,-426.6717C1349.3553,-430.4732 1327.9027,-434.0453 1308,-436 985.3791,-467.6861 815.8368,-448.0972 693,-439 629.8152,-434.3206 610.8974,-441.3521 552,-418 535.6946,-411.5351 519.4659,-401.3495 505.7113,-391.3061"/>
<polygon fill="#000000" stroke="#000000" points="507.5799,-388.3316 497.4882,-385.1055 503.3654,-393.9208 507.5799,-388.3316"/>
<text text-anchor="start" x="944.5" y="-456.8" font-family="arial" font-size="14.00" fill="#377eb8">true</text>
</g>
<!-- st024 -->
<g id="node9" class="node">
<title>st024</title>
<polygon fill="none" stroke="#000000" points="1021,-386 893,-386 893,-336 1021,-336 1021,-386"/>
<text text-anchor="start" x="938" y="-371.8" font-family="arial" font-weight="bold" font-size="14.00" fill="#000000">st024</text>
<text text-anchor="start" x="901" y="-357.8" font-family="arial" font-size="14.00" fill="#984ea3">(!Q &amp;&amp; (!R &amp;&amp; S))</text>
<text text-anchor="start" x="932.5" y="-343.8" font-family="arial" font-size="14.00" fill="#ff7f00">c0 &lt;= 5</text>
</g>
<!-- st0123&#45;&gt;st024 -->
<g id="edge23" class="edge">
<title>st0123&#45;&gt;st024</title>
<path fill="none" stroke="#000000" d="M1368.6832,-407.4584C1290.5421,-401.5954 1154.79,-390.2992 1039,-375 1036.4944,-374.6689 1033.9482,-374.3177 1031.3786,-373.9506"/>
<polygon fill="#000000" stroke="#000000" points="1031.7942,-370.474 1021.3882,-372.4653 1030.7647,-377.3979 1031.7942,-370.474"/>
<text text-anchor="start" x="1231.5" y="-420.8" font-family="arial" font-size="14.00" fill="#377eb8">true</text>
<text text-anchor="start" x="1224" y="-405.8" font-family="arial" font-size="14.00" fill="#000000">c0 :=0</text>
</g>
<!-- st0124 -->
<g id="node10" class="node">
<title>st0124</title>
<polygon fill="none" stroke="#000000" points="817,-259 693,-259 693,-209 817,-209 817,-259"/>
<text text-anchor="start" x="732" y="-244.8" font-family="arial" font-weight="bold" font-size="14.00" fill="#000000">st0124</text>
<text text-anchor="start" x="701" y="-230.8" font-family="arial" font-size="14.00" fill="#984ea3">(Q &amp;&amp; (!R &amp;&amp; S))</text>
<text text-anchor="start" x="730.5" y="-216.8" font-family="arial" font-size="14.00" fill="#ff7f00">c0 &lt;= 5</text>
</g>
<!-- st0123&#45;&gt;st0124 -->
<g id="edge25" class="edge">
<title>st0123&#45;&gt;st0124</title>
<path fill="none" stroke="#000000" d="M1387.0223,-386.9373C1363.9116,-375.3145 1335.1156,-362.273 1308,-354 1284.9302,-346.9614 971.7403,-280.0861 827.1885,-249.3344"/>
<polygon fill="#000000" stroke="#000000" points="827.5879,-245.8411 817.0785,-247.184 826.1315,-252.688 827.5879,-245.8411"/>
<text text-anchor="start" x="1088" y="-338.8" font-family="arial" font-size="14.00" fill="#377eb8">true</text>
<text text-anchor="start" x="1080.5" y="-323.8" font-family="arial" font-size="14.00" fill="#000000">c0 :=0</text>
</g>
<!-- st02&#45;&gt;st0 -->
<g id="edge7" class="edge">
<title>st02&#45;&gt;st0</title>
<path fill="none" stroke="#000000" d="M1217.3494,-127.945C1202.1223,-114.7721 1182.1008,-99.2725 1162,-89 1035.4996,-24.352 997.0624,0 855,0 280,0 280,0 280,0 248.3636,0 168.2896,-203.9097 136.9031,-287.1961"/>
<polygon fill="#000000" stroke="#000000" points="133.5608,-286.141 133.3234,-296.7332 140.1143,-288.6009 133.5608,-286.141"/>
<text text-anchor="start" x="606.5" y="-3.8" font-family="arial" font-size="14.00" fill="#377eb8">R&#39;</text>
</g>
<!-- st02&#45;&gt;st012 -->
<g id="edge10" class="edge">
<title>st02&#45;&gt;st012</title>
<path fill="none" stroke="#000000" d="M1179.5637,-147.9096C1173.6284,-147.5541 1167.7046,-147.2415 1162,-147 1036.3707,-141.6806 781.3987,-138.9418 693,-143 573.2008,-148.4997 434.4699,-162.9278 352.1497,-172.3388"/>
<polygon fill="#000000" stroke="#000000" points="351.6836,-168.8692 342.1491,-173.4891 352.4836,-175.8234 351.6836,-168.8692"/>
<text text-anchor="start" x="742.5" y="-146.8" font-family="arial" font-size="14.00" fill="#377eb8">true</text>
</g>
<!-- st02&#45;&gt;st0123 -->
<g id="edge11" class="edge">
<title>st02&#45;&gt;st0123</title>
<path fill="none" stroke="#000000" d="M1308.2491,-177.98C1323.7605,-186.3414 1339.2344,-196.9444 1351,-210 1394.6308,-258.4148 1416.6663,-333.0916 1426.4178,-376.7958"/>
<polygon fill="#000000" stroke="#000000" points="1423.0177,-377.6331 1428.5311,-386.6803 1429.863,-376.1695 1423.0177,-377.6331"/>
<text text-anchor="start" x="1326" y="-213.8" font-family="arial" font-size="14.00" fill="#377eb8">true</text>
</g>
<!-- st02&#45;&gt;st02 -->
<g id="edge8" class="edge">
<title>st02&#45;&gt;st02</title>
<path fill="none" stroke="#000000" d="M1226.4438,-178.1756C1225.6636,-187.9095 1231.5156,-196 1244,-196 1251.8027,-196 1257.0147,-192.8397 1259.6359,-188.093"/>
<polygon fill="#000000" stroke="#000000" points="1263.0913,-188.6586 1261.5562,-178.1756 1256.219,-187.3279 1263.0913,-188.6586"/>
<text text-anchor="start" x="1231.5" y="-199.8" font-family="arial" font-size="14.00" fill="#377eb8">true</text>
</g>
<!-- st02&#45;&gt;st023 -->
<g id="edge9" class="edge">
<title>st02&#45;&gt;st023</title>
<path fill="none" stroke="#000000" d="M1179.8574,-151.6945C1028.4422,-149.7822 653.881,-152.2333 552,-220 514.7362,-244.7862 491.6473,-292.3736 479.4405,-325.1334"/>
<polygon fill="#000000" stroke="#000000" points="476.0618,-324.188 475.9979,-334.7826 482.6547,-326.5402 476.0618,-324.188"/>
<text text-anchor="start" x="842.5" y="-163.8" font-family="arial" font-size="14.00" fill="#377eb8">true</text>
</g>
<!-- st023&#45;&gt;st0 -->
<g id="edge17" class="edge">
<title>st023&#45;&gt;st0</title>
<path fill="none" stroke="#000000" d="M402.7929,-352.7522C333.5382,-345.1131 226.4456,-333.3002 167.1729,-326.7622"/>
<polygon fill="#000000" stroke="#000000" points="167.3556,-323.2612 157.0321,-325.6436 166.5881,-330.219 167.3556,-323.2612"/>
<text text-anchor="start" x="273" y="-349.8" font-family="arial" font-size="14.00" fill="#377eb8">R&#39;</text>
</g>
<!-- st023&#45;&gt;st0123 -->
<g id="edge21" class="edge">
<title>st023&#45;&gt;st0123</title>
<path fill="none" stroke="#000000" d="M476.4525,-385.2013C487.7153,-416.0839 511.5734,-467.0111 552,-489 707.9786,-573.8403 1185.3193,-547.8524 1351,-484 1372.0751,-475.8778 1391.3047,-459.7056 1405.837,-444.7426"/>
<polygon fill="#000000" stroke="#000000" points="1408.7274,-446.7754 1412.9932,-437.0772 1403.6106,-441.9985 1408.7274,-446.7754"/>
<text text-anchor="start" x="944.5" y="-545.8" font-family="arial" font-size="14.00" fill="#377eb8">true</text>
</g>
<!-- st023&#45;&gt;st023 -->
<g id="edge19" class="edge">
<title>st023&#45;&gt;st023</title>
<path fill="none" stroke="#000000" d="M450.5703,-385.1756C449.7734,-394.9095 455.75,-403 468.5,-403 476.4688,-403 481.7916,-399.8397 484.4686,-395.093"/>
<polygon fill="#000000" stroke="#000000" points="487.9233,-395.6647 486.4297,-385.1756 481.0562,-394.3067 487.9233,-395.6647"/>
<text text-anchor="start" x="456" y="-406.8" font-family="arial" font-size="14.00" fill="#377eb8">true</text>
</g>
<!-- st023&#45;&gt;st024 -->
<g id="edge18" class="edge">
<title>st023&#45;&gt;st024</title>
<path fill="none" stroke="#000000" d="M507.7522,-385.0737C521.2414,-392.3443 536.7868,-399.3129 552,-403 593.4245,-413.0397 852.1563,-401.0892 875,-396 882.167,-394.4033 889.4935,-392.1966 896.6743,-389.6607"/>
<polygon fill="#000000" stroke="#000000" points="898.2181,-392.8196 906.3474,-386.025 895.7553,-386.2671 898.2181,-392.8196"/>
<text text-anchor="start" x="742.5" y="-423.8" font-family="arial" font-size="14.00" fill="#377eb8">true</text>
<text text-anchor="start" x="735" y="-408.8" font-family="arial" font-size="14.00" fill="#000000">c0 :=0</text>
</g>
<!-- st023&#45;&gt;st0124 -->
<g id="edge20" class="edge">
<title>st023&#45;&gt;st0124</title>
<path fill="none" stroke="#000000" d="M502.3165,-334.9278C516.9382,-325.176 534.6511,-314.7473 552,-308 603.8321,-287.8414 623.275,-305.4319 675,-285 688.1901,-279.7898 701.5573,-272.3151 713.4904,-264.6887"/>
<polygon fill="#000000" stroke="#000000" points="715.4832,-267.5671 721.9031,-259.1388 711.6284,-261.724 715.4832,-267.5671"/>
<text text-anchor="start" x="601" y="-326.8" font-family="arial" font-size="14.00" fill="#377eb8">true</text>
<text text-anchor="start" x="593.5" y="-311.8" font-family="arial" font-size="14.00" fill="#000000">c0 :=0</text>
</g>
<!-- st024&#45;&gt;st0 -->
<g id="edge27" class="edge">
<title>st024&#45;&gt;st0</title>
<path fill="none" stroke="#000000" d="M932.4716,-386.2305C879.4621,-437.9143 748.0969,-551 613.5,-551 280,-551 280,-551 280,-551 187.4959,-551 145.9413,-421.7915 130.9881,-357.4849"/>
<polygon fill="#000000" stroke="#000000" points="134.3277,-356.3798 128.7339,-347.382 127.4957,-357.9042 134.3277,-356.3798"/>
<text text-anchor="start" x="461.5" y="-554.8" font-family="arial" font-size="14.00" fill="#377eb8">R&#39;</text>
</g>
<!-- st024&#45;&gt;st012 -->
<g id="edge31" class="edge">
<title>st024&#45;&gt;st012</title>
<path fill="none" stroke="#000000" d="M892.7395,-353.2522C874.0228,-350.5288 853.6078,-347.1031 835,-343 770.7301,-328.8283 743.6882,-342.9782 693,-301 679.528,-289.8429 689.0615,-276.4042 675,-266 576.2558,-192.9385 522.5585,-245.1809 403,-217 386.3448,-213.0742 368.5958,-208.2582 351.9135,-203.4411"/>
<polygon fill="#000000" stroke="#000000" points="352.8111,-200.0571 342.2307,-200.6115 350.8475,-206.7761 352.8111,-200.0571"/>
<text text-anchor="start" x="570.5" y="-269.8" font-family="arial" font-size="14.00" fill="#377eb8">(R&#39; || c0 &gt;= 5)</text>
</g>
<!-- st024&#45;&gt;st0123 -->
<g id="edge33" class="edge">
<title>st024&#45;&gt;st0123</title>
<path fill="none" stroke="#000000" d="M1021.2653,-357.6998C1092.0619,-355.2934 1209.0129,-354.9556 1308,-372 1324.8939,-374.9089 1342.654,-379.5628 1359.3122,-384.6847"/>
<polygon fill="#000000" stroke="#000000" points="1358.3881,-388.0633 1368.9781,-387.7449 1360.5009,-381.3898 1358.3881,-388.0633"/>
<text text-anchor="start" x="1182.5" y="-375.8" font-family="arial" font-size="14.00" fill="#377eb8">(R&#39; || (S&#39; || c0 &gt;= 5))</text>
</g>
<!-- st024&#45;&gt;st02 -->
<g id="edge28" class="edge">
<title>st024&#45;&gt;st02</title>
<path fill="none" stroke="#000000" d="M974.9411,-335.8788C989.8825,-316.9159 1012.8805,-291.8701 1039,-278 1088.1184,-251.917 1114.2782,-283.5581 1162,-255 1189.1949,-238.7258 1211.0986,-209.9049 1225.4035,-187.041"/>
<polygon fill="#000000" stroke="#000000" points="1228.5132,-188.6623 1230.6931,-178.2941 1222.5233,-185.04 1228.5132,-188.6623"/>
<text text-anchor="start" x="1057.5" y="-281.8" font-family="arial" font-size="14.00" fill="#377eb8">(R&#39; || c0 &gt;= 5)</text>
</g>
<!-- st024&#45;&gt;st023 -->
<g id="edge30" class="edge">
<title>st024&#45;&gt;st023</title>
<path fill="none" stroke="#000000" d="M892.668,-368.588C812.6548,-376.8284 671.9533,-387.3889 552,-376 549.4928,-375.762 546.9489,-375.4846 544.3843,-375.1741"/>
<polygon fill="#000000" stroke="#000000" points="544.8028,-371.6989 534.4237,-373.8263 543.8641,-378.6357 544.8028,-371.6989"/>
<text text-anchor="start" x="693.5" y="-383.8" font-family="arial" font-size="14.00" fill="#377eb8">(R&#39; || (S&#39; || c0 &gt;= 5))</text>
</g>
<!-- st024&#45;&gt;st024 -->
<g id="edge29" class="edge">
<title>st024&#45;&gt;st024</title>
<path fill="none" stroke="#000000" d="M937.9497,-386.1756C937.103,-395.9095 943.4531,-404 957,-404 965.4668,-404 971.1224,-400.8397 973.9667,-396.093"/>
<polygon fill="#000000" stroke="#000000" points="977.4193,-396.6816 976.0503,-386.1756 970.5689,-395.2423 977.4193,-396.6816"/>
<text text-anchor="start" x="937" y="-407.8" font-family="arial" font-size="14.00" fill="#377eb8">c0 &lt; 5</text>
</g>
<!-- st024&#45;&gt;st0124 -->
<g id="edge32" class="edge">
<title>st024&#45;&gt;st0124</title>
<path fill="none" stroke="#000000" d="M921.2535,-335.9488C911.7057,-328.6479 901.6461,-320.3712 893,-312 883.9237,-303.2122 884.9738,-297.7543 875,-290 865.9079,-282.9312 845.5531,-272.8183 824.1435,-263.1266"/>
<polygon fill="#000000" stroke="#000000" points="825.4909,-259.8951 814.9332,-259.0089 822.6339,-266.2856 825.4909,-259.8951"/>
<text text-anchor="start" x="835" y="-293.8" font-family="arial" font-size="14.00" fill="#377eb8">c0 &lt; 5</text>
</g>
<!-- st0124&#45;&gt;st0 -->
<g id="edge34" class="edge">
<title>st0124&#45;&gt;st0</title>
<path fill="none" stroke="#000000" d="M692.647,-236.2247C652.4061,-238.0963 598.9894,-241.3954 552,-247 410.0574,-263.9299 243.7458,-296.8893 166.9118,-312.8721"/>
<polygon fill="#000000" stroke="#000000" points="166.1869,-309.4478 157.1142,-314.9192 167.6186,-316.2999 166.1869,-309.4478"/>
<text text-anchor="start" x="365.5" y="-278.8" font-family="arial" font-size="14.00" fill="#377eb8">R&#39;</text>
</g>
<!-- st0124&#45;&gt;st012 -->
<g id="edge38" class="edge">
<title>st0124&#45;&gt;st012</title>
<path fill="none" stroke="#000000" d="M692.6645,-220.1029C686.7091,-218.9716 680.7494,-217.9142 675,-217 563.218,-199.2261 432.1392,-189.4352 352.6261,-184.7034"/>
<polygon fill="#000000" stroke="#000000" points="352.4216,-181.1856 342.2345,-184.0964 352.0133,-188.1737 352.4216,-181.1856"/>
<text text-anchor="start" x="425.5" y="-201.8" font-family="arial" font-size="14.00" fill="#377eb8">(R&#39; || c0 &gt;= 5)</text>
</g>
<!-- st0124&#45;&gt;st0123 -->
<g id="edge40" class="edge">
<title>st0124&#45;&gt;st0123</title>
<path fill="none" stroke="#000000" d="M817.0031,-232.5441C922.7532,-230.3229 1129.7451,-227.2096 1162,-236 1258.1344,-262.1995 1351.3205,-336.7633 1399.3745,-379.97"/>
<polygon fill="#000000" stroke="#000000" points="1397.2202,-382.7417 1406.9731,-386.8806 1401.93,-377.5631 1397.2202,-382.7417"/>
<text text-anchor="start" x="1039" y="-239.8" font-family="arial" font-size="14.00" fill="#377eb8">(R&#39; || (S&#39; || c0 &gt;= 5))</text>
</g>
<!-- st0124&#45;&gt;st02 -->
<g id="edge35" class="edge">
<title>st0124&#45;&gt;st02</title>
<path fill="none" stroke="#000000" d="M817.4181,-222.8689C823.3564,-221.8726 829.2897,-220.901 835,-220 979.9706,-197.1249 1018.0239,-202.4715 1162,-174 1164.5229,-173.5011 1167.084,-172.9723 1169.6664,-172.42"/>
<polygon fill="#000000" stroke="#000000" points="1170.6959,-175.7765 1179.6961,-170.1867 1169.1744,-168.9438 1170.6959,-175.7765"/>
<text text-anchor="start" x="914" y="-214.8" font-family="arial" font-size="14.00" fill="#377eb8">(R&#39; || c0 &gt;= 5)</text>
</g>
<!-- st0124&#45;&gt;st023 -->
<g id="edge37" class="edge">
<title>st0124&#45;&gt;st023</title>
<path fill="none" stroke="#000000" d="M743.1023,-259.3917C730.0985,-284.0157 706.798,-320.1876 675,-338 653.0399,-350.3014 593.6025,-355.7286 544.1034,-358.1207"/>
<polygon fill="#000000" stroke="#000000" points="543.8627,-354.6279 534.0299,-358.5732 544.1769,-361.6209 543.8627,-354.6279"/>
<text text-anchor="start" x="552" y="-360.8" font-family="arial" font-size="14.00" fill="#377eb8">(R&#39; || (S&#39; || c0 &gt;= 5))</text>
</g>
<!-- st0124&#45;&gt;st024 -->
<g id="edge36" class="edge">
<title>st0124&#45;&gt;st024</title>
<path fill="none" stroke="#000000" d="M779.3692,-259.0813C794.4679,-273.7058 814.7819,-291.8087 835,-305 850.1511,-314.8853 867.331,-323.9246 883.9164,-331.722"/>
<polygon fill="#000000" stroke="#000000" points="882.5049,-334.9253 893.0526,-335.9237 885.4297,-328.5656 882.5049,-334.9253"/>
<text text-anchor="start" x="835" y="-329.8" font-family="arial" font-size="14.00" fill="#377eb8">c0 &lt; 5</text>
</g>
<!-- st0124&#45;&gt;st0124 -->
<g id="edge39" class="edge">
<title>st0124&#45;&gt;st0124</title>
<path fill="none" stroke="#000000" d="M736.3232,-259.1756C735.4932,-268.9095 741.7188,-277 755,-277 763.3008,-277 768.8454,-273.8397 771.634,-269.093"/>
<polygon fill="#000000" stroke="#000000" points="775.0873,-269.6761 773.6768,-259.1756 768.2312,-268.2639 775.0873,-269.6761"/>
<text text-anchor="start" x="735" y="-280.8" font-family="arial" font-size="14.00" fill="#377eb8">c0 &lt; 5</text>
</g>
</g>
</svg>
