<?xml version="1.0" encoding="UTF-8" standalone="no"?>
<!DOCTYPE svg PUBLIC "-//W3C//DTD SVG 1.1//EN"
 "http://www.w3.org/Graphics/SVG/1.1/DTD/svg11.dtd">
<!-- Generated by graphviz version 2.43.0 (0)
 -->
<!-- Title: G Pages: 1 -->
<svg width="870pt" height="237pt"
 viewBox="0.00 0.00 870.00 236.91" xmlns="http://www.w3.org/2000/svg" xmlns:xlink="http://www.w3.org/1999/xlink">
<g id="graph0" class="graph" transform="scale(1 1) rotate(0) translate(4 232.91)">
<title>G</title>
<polygon fill="white" stroke="transparent" points="-4,4 -4,-232.91 866,-232.91 866,4 -4,4"/>
<!-- _ID_72_ct0_st -->
<!-- ID_72_ct0_st -->
<g id="node2" class="node">
<title>ID_72_ct0_st</title>
<polygon fill="none" stroke="black" points="862,-167.91 763,-167.91 763,-117.91 862,-117.91 862,-167.91"/>
<text text-anchor="start" x="771" y="-153.71" font-family="arial" font-weight="bold" font-size="14.00">ID_72_ct0_st</text>
<text text-anchor="start" x="800.5" y="-139.71" font-family="arial" font-size="14.00" fill="#984ea3">true</text>
<text text-anchor="start" x="800.5" y="-125.71" font-family="arial" font-size="14.00" fill="#ff7f00">true</text>
</g>
<!-- _ID_72_ct0_st&#45;&gt;ID_72_ct0_st -->
<g id="edge1" class="edge">
<title>_ID_72_ct0_st&#45;&gt;ID_72_ct0_st</title>
<path fill="none" stroke="black" d="M707.36,-193.94C719.82,-189.41 733.01,-184.28 745,-178.91 749.34,-176.97 753.78,-174.86 758.21,-172.66"/>
<polygon fill="black" stroke="black" points="759.93,-175.72 767.25,-168.06 756.75,-169.48 759.93,-175.72"/>
</g>
<!-- ID_72_ct0_st&#45;&gt;ID_72_ct0_st -->
<g id="edge4" class="edge">
<title>ID_72_ct0_st&#45;&gt;ID_72_ct0_st</title>
<path fill="none" stroke="black" d="M798.68,-168.09C798.06,-177.82 802.67,-185.91 812.5,-185.91 818.64,-185.91 822.75,-182.75 824.81,-178"/>
<polygon fill="black" stroke="black" points="828.27,-178.5 826.32,-168.09 821.35,-177.45 828.27,-178.5"/>
<text text-anchor="start" x="800.5" y="-189.71" font-family="arial" font-size="14.00" fill="#377eb8">true</text>
</g>
<!-- _ID_72_ct0_st0 -->
<!-- ID_72_ct0_st0 -->
<g id="node4" class="node">
<title>ID_72_ct0_st0</title>
<polygon fill="none" stroke="black" points="261,-146.91 154,-146.91 154,-96.91 261,-96.91 261,-146.91"/>
<text text-anchor="start" x="162" y="-132.71" font-family="arial" font-weight="bold" font-size="14.00">ID_72_ct0_st0</text>
<text text-anchor="start" x="177.5" y="-118.71" font-family="arial" font-size="14.00" fill="#984ea3">(!Q &amp;&amp; R)</text>
<text text-anchor="start" x="195.5" y="-104.71" font-family="arial" font-size="14.00" fill="#ff7f00">true</text>
</g>
<!-- _ID_72_ct0_st0&#45;&gt;ID_72_ct0_st0 -->
<g id="edge2" class="edge">
<title>_ID_72_ct0_st0&#45;&gt;ID_72_ct0_st0</title>
<path fill="none" stroke="black" d="M111.08,-121.91C121.62,-121.91 132.74,-121.91 143.52,-121.91"/>
<polygon fill="black" stroke="black" points="143.72,-125.41 153.72,-121.91 143.72,-118.41 143.72,-125.41"/>
</g>
<!-- ID_72_ct0_st0&#45;&gt;ID_72_ct0_st -->
<g id="edge5" class="edge">
<title>ID_72_ct0_st0&#45;&gt;ID_72_ct0_st</title>
<path fill="none" stroke="black" d="M261.1,-131.37C269.09,-132.66 277.25,-133.89 285,-134.91 303.59,-137.37 308.28,-137.78 327,-138.91 497.83,-149.24 540.88,-148.49 712,-145.91 725.22,-145.71 739.42,-145.36 752.84,-144.97"/>
<polygon fill="black" stroke="black" points="753.03,-148.47 762.92,-144.67 752.82,-141.47 753.03,-148.47"/>
<text text-anchor="start" x="512" y="-150.71" font-family="arial" font-size="14.00" fill="#377eb8">Q&#39;</text>
</g>
<!-- ID_72_ct0_st0&#45;&gt;ID_72_ct0_st0 -->
<g id="edge6" class="edge">
<title>ID_72_ct0_st0&#45;&gt;ID_72_ct0_st0</title>
<path fill="none" stroke="black" d="M192.93,-147.09C192.28,-156.82 197.14,-164.91 207.5,-164.91 213.97,-164.91 218.3,-161.75 220.47,-157"/>
<polygon fill="black" stroke="black" points="223.94,-157.52 222.07,-147.09 217.03,-156.41 223.94,-157.52"/>
<text text-anchor="start" x="195.5" y="-168.71" font-family="arial" font-size="14.00" fill="#377eb8">true</text>
</g>
<!-- ID_72_ct0_st01 -->
<g id="node6" class="node">
<title>ID_72_ct0_st01</title>
<polygon fill="none" stroke="black" points="441,-52.91 327,-52.91 327,-2.91 441,-2.91 441,-52.91"/>
<text text-anchor="start" x="335" y="-38.71" font-family="arial" font-weight="bold" font-size="14.00">ID_72_ct0_st01</text>
<text text-anchor="start" x="352" y="-24.71" font-family="arial" font-size="14.00" fill="#984ea3">(!Q &amp;&amp; !R)</text>
<text text-anchor="start" x="372" y="-10.71" font-family="arial" font-size="14.00" fill="#ff7f00">true</text>
</g>
<!-- ID_72_ct0_st0&#45;&gt;ID_72_ct0_st01 -->
<g id="edge7" class="edge">
<title>ID_72_ct0_st0&#45;&gt;ID_72_ct0_st01</title>
<path fill="none" stroke="black" d="M255.26,-96.72C277.45,-84.77 304.14,-70.39 327.36,-57.88"/>
<polygon fill="black" stroke="black" points="329.27,-60.83 336.41,-53.01 325.95,-54.67 329.27,-60.83"/>
<text text-anchor="start" x="285" y="-83.71" font-family="arial" font-size="14.00" fill="#377eb8">true</text>
</g>
<!-- _ID_72_ct0_st01 -->
<!-- _ID_72_ct0_st01&#45;&gt;ID_72_ct0_st01 -->
<g id="edge3" class="edge">
<title>_ID_72_ct0_st01&#45;&gt;ID_72_ct0_st01</title>
<path fill="none" stroke="black" d="M267.09,-27.91C283.08,-27.91 300.51,-27.91 316.89,-27.91"/>
<polygon fill="black" stroke="black" points="316.93,-31.41 326.93,-27.91 316.93,-24.41 316.93,-31.41"/>
</g>
<!-- ID_72_ct0_st01&#45;&gt;ID_72_ct0_st -->
<g id="edge8" class="edge">
<title>ID_72_ct0_st01&#45;&gt;ID_72_ct0_st</title>
<path fill="none" stroke="black" d="M441.18,-13.77C509.3,0.24 625.69,13.9 712,-29.91 746.55,-47.45 774.45,-82.57 791.82,-109.03"/>
<polygon fill="black" stroke="black" points="788.97,-111.08 797.3,-117.63 794.88,-107.31 788.97,-111.08"/>
<text text-anchor="start" x="647.5" y="-33.71" font-family="arial" font-size="14.00" fill="#377eb8">Q&#39;</text>
</g>
<!-- ID_72_ct0_st01&#45;&gt;ID_72_ct0_st01 -->
<g id="edge10" class="edge">
<title>ID_72_ct0_st01&#45;&gt;ID_72_ct0_st01</title>
<path fill="none" stroke="black" d="M367.94,-53.09C367.22,-62.82 372.58,-70.91 384,-70.91 391.14,-70.91 395.91,-67.75 398.31,-63"/>
<polygon fill="black" stroke="black" points="401.76,-63.54 400.06,-53.09 394.87,-62.32 401.76,-63.54"/>
<text text-anchor="start" x="372" y="-74.71" font-family="arial" font-size="14.00" fill="#377eb8">true</text>
</g>
<!-- ID_72_ct0_st02 -->
<g id="node7" class="node">
<title>ID_72_ct0_st02</title>
<polygon fill="none" stroke="black" points="712,-103.91 598,-103.91 598,-53.91 712,-53.91 712,-103.91"/>
<text text-anchor="start" x="606" y="-89.71" font-family="arial" font-weight="bold" font-size="14.00">ID_72_ct0_st02</text>
<text text-anchor="start" x="625" y="-75.71" font-family="arial" font-size="14.00" fill="#984ea3">(!Q &amp;&amp; R)</text>
<text text-anchor="start" x="632" y="-61.71" font-family="arial" font-size="14.00" fill="#ff7f00">c0 &lt;= 5</text>
</g>
<!-- ID_72_ct0_st01&#45;&gt;ID_72_ct0_st02 -->
<g id="edge9" class="edge">
<title>ID_72_ct0_st01&#45;&gt;ID_72_ct0_st02</title>
<path fill="none" stroke="black" d="M441.23,-22.65C480.83,-20.69 534.66,-21.57 580,-34.91 590.65,-38.05 601.35,-43.06 611.17,-48.61"/>
<polygon fill="black" stroke="black" points="609.53,-51.71 619.92,-53.81 613.11,-45.69 609.53,-51.71"/>
<text text-anchor="start" x="507.5" y="-53.71" font-family="arial" font-size="14.00" fill="#377eb8">true</text>
<text text-anchor="start" x="500.5" y="-38.71" font-family="arial" font-size="14.00">c0 :=0</text>
</g>
<!-- ID_72_ct0_st02&#45;&gt;ID_72_ct0_st -->
<g id="edge11" class="edge">
<title>ID_72_ct0_st02&#45;&gt;ID_72_ct0_st</title>
<path fill="none" stroke="black" d="M712.14,-102.02C725.51,-107.52 739.81,-113.4 753.27,-118.95"/>
<polygon fill="black" stroke="black" points="752.32,-122.34 762.9,-122.91 754.98,-115.87 752.32,-122.34"/>
<text text-anchor="start" x="730" y="-117.71" font-family="arial" font-size="14.00" fill="#377eb8">Q&#39;</text>
</g>
<!-- ID_72_ct0_st02&#45;&gt;ID_72_ct0_st0 -->
<g id="edge12" class="edge">
<title>ID_72_ct0_st02&#45;&gt;ID_72_ct0_st0</title>
<path fill="none" stroke="black" d="M597.69,-95.39C591.76,-96.75 585.78,-97.96 580,-98.91 472.51,-116.58 345.5,-120.95 271.28,-121.88"/>
<polygon fill="black" stroke="black" points="271.13,-118.38 261.17,-121.99 271.21,-125.38 271.13,-118.38"/>
<text text-anchor="start" x="341.5" y="-123.71" font-family="arial" font-size="14.00" fill="#377eb8">(Q&#39; || c0 &gt;= 5)</text>
</g>
<!-- ID_72_ct0_st02&#45;&gt;ID_72_ct0_st01 -->
<g id="edge14" class="edge">
<title>ID_72_ct0_st02&#45;&gt;ID_72_ct0_st01</title>
<path fill="none" stroke="black" d="M597.97,-80.63C558.46,-80.47 504.66,-77.43 459,-64.91 451.86,-62.95 444.59,-60.28 437.54,-57.27"/>
<polygon fill="black" stroke="black" points="438.64,-53.92 428.09,-52.97 435.74,-60.3 438.64,-53.92"/>
<text text-anchor="start" x="459" y="-83.71" font-family="arial" font-size="14.00" fill="#377eb8">(Q&#39; || (R&#39; || c0 &gt;= 5))</text>
</g>
<!-- ID_72_ct0_st02&#45;&gt;ID_72_ct0_st02 -->
<g id="edge13" class="edge">
<title>ID_72_ct0_st02&#45;&gt;ID_72_ct0_st02</title>
<path fill="none" stroke="black" d="M639.69,-104.09C639,-113.82 644.11,-121.91 655,-121.91 661.81,-121.91 666.35,-118.75 668.64,-114"/>
<polygon fill="black" stroke="black" points="672.1,-114.53 670.31,-104.09 665.2,-113.37 672.1,-114.53"/>
<text text-anchor="start" x="636" y="-125.71" font-family="arial" font-size="14.00" fill="#377eb8">c0 &lt; 5</text>
</g>
</g>
</svg>
