<?xml version="1.0" encoding="UTF-8" standalone="no"?>
<!DOCTYPE svg PUBLIC "-//W3C//DTD SVG 1.1//EN"
 "http://www.w3.org/Graphics/SVG/1.1/DTD/svg11.dtd">
<!-- Generated by graphviz version 2.40.1 (20161225.0304)
 -->
<!-- Title: G Pages: 1 -->
<svg width="475pt" height="161pt"
 viewBox="0.00 0.00 475.00 161.00" xmlns="http://www.w3.org/2000/svg" xmlns:xlink="http://www.w3.org/1999/xlink">
<g id="graph0" class="graph" transform="scale(1 1) rotate(0) translate(4 157)">
<title>G</title>
<polygon fill="#ffffff" stroke="transparent" points="-4,4 -4,-157 471,-157 471,4 -4,4"/>
<!-- _st0 -->
<!-- st0 -->
<g id="node2" class="node">
<title>st0</title>
<polygon fill="none" stroke="#000000" points="145,-120 91,-120 91,-70 145,-70 145,-120"/>
<text text-anchor="start" x="107" y="-105.8" font-family="arial" font-weight="bold" font-size="14.00" fill="#000000">st0</text>
<text text-anchor="start" x="112" y="-91.8" font-family="arial" font-size="14.00" fill="#984ea3">Q</text>
<text text-anchor="start" x="105.5" y="-77.8" font-family="arial" font-size="14.00" fill="#ff7f00">true</text>
</g>
<!-- _st0&#45;&gt;st0 -->
<g id="edge1" class="edge">
<title>_st0&#45;&gt;st0</title>
<path fill="none" stroke="#000000" d="M54.303,-95C62.5813,-95 71.8217,-95 80.6405,-95"/>
<polygon fill="#000000" stroke="#000000" points="80.7163,-98.5001 90.7163,-95 80.7162,-91.5001 80.7163,-98.5001"/>
</g>
<!-- st0&#45;&gt;st0 -->
<g id="edge3" class="edge">
<title>st0&#45;&gt;st0</title>
<path fill="none" stroke="#000000" d="M109.7822,-120.1756C109.417,-129.9095 112.1563,-138 118,-138 121.561,-138 123.9693,-134.9957 125.2247,-130.446"/>
<polygon fill="#000000" stroke="#000000" points="128.739,-130.4661 126.2178,-120.1756 121.7714,-129.7923 128.739,-130.4661"/>
<text text-anchor="start" x="105.5" y="-141.8" font-family="arial" font-size="14.00" fill="#377eb8">true</text>
</g>
<!-- st01 -->
<g id="node4" class="node">
<title>st01</title>
<polygon fill="none" stroke="#000000" points="261.5,-50 207.5,-50 207.5,0 261.5,0 261.5,-50"/>
<text text-anchor="start" x="219.5" y="-35.8" font-family="arial" font-weight="bold" font-size="14.00" fill="#000000">st01</text>
<text text-anchor="start" x="226.5" y="-21.8" font-family="arial" font-size="14.00" fill="#984ea3">!Q</text>
<text text-anchor="start" x="222" y="-7.8" font-family="arial" font-size="14.00" fill="#ff7f00">true</text>
</g>
<!-- st0&#45;&gt;st01 -->
<g id="edge4" class="edge">
<title>st0&#45;&gt;st01</title>
<path fill="none" stroke="#000000" d="M145.0203,-78.7646C160.9329,-69.2034 181.2601,-56.9896 198.5176,-46.6203"/>
<polygon fill="#000000" stroke="#000000" points="200.4537,-49.5403 207.2227,-41.3898 196.8484,-43.5401 200.4537,-49.5403"/>
<text text-anchor="start" x="163" y="-70.8" font-family="arial" font-size="14.00" fill="#377eb8">true</text>
</g>
<!-- _st01 -->
<!-- _st01&#45;&gt;st01 -->
<g id="edge2" class="edge">
<title>_st01&#45;&gt;st01</title>
<path fill="none" stroke="#000000" d="M145.0203,-25C160.495,-25 180.1445,-25 197.0859,-25"/>
<polygon fill="#000000" stroke="#000000" points="197.2227,-28.5001 207.2227,-25 197.2227,-21.5001 197.2227,-28.5001"/>
</g>
<!-- st01&#45;&gt;st01 -->
<g id="edge6" class="edge">
<title>st01&#45;&gt;st01</title>
<path fill="none" stroke="#000000" d="M223.6675,-50.1756C223.186,-59.9095 226.7969,-68 234.5,-68 239.1941,-68 242.3686,-64.9957 244.0234,-60.446"/>
<polygon fill="#000000" stroke="#000000" points="247.5399,-60.5379 245.3325,-50.1756 240.5961,-59.6528 247.5399,-60.5379"/>
<text text-anchor="start" x="222" y="-71.8" font-family="arial" font-size="14.00" fill="#377eb8">true</text>
</g>
<!-- st02 -->
<g id="node5" class="node">
<title>st02</title>
<polygon fill="none" stroke="#000000" points="467,-88 394,-88 394,-38 467,-38 467,-88"/>
<text text-anchor="start" x="415.5" y="-73.8" font-family="arial" font-weight="bold" font-size="14.00" fill="#000000">st02</text>
<text text-anchor="start" x="424.5" y="-59.8" font-family="arial" font-size="14.00" fill="#984ea3">Q</text>
<text text-anchor="start" x="402" y="-45.8" font-family="arial" font-size="14.00" fill="#ff7f00">c0 &lt;= 50</text>
</g>
<!-- st01&#45;&gt;st02 -->
<g id="edge5" class="edge">
<title>st01&#45;&gt;st02</title>
<path fill="none" stroke="#000000" d="M261.7881,-35.331C268.0362,-37.432 274.6956,-39.4655 281,-41 314.9747,-49.2693 354.097,-54.8914 383.7973,-58.3813"/>
<polygon fill="#000000" stroke="#000000" points="383.5545,-61.8761 393.8858,-59.5276 384.3449,-54.9209 383.5545,-61.8761"/>
<text text-anchor="start" x="316" y="-76.8" font-family="arial" font-size="14.00" fill="#377eb8">true</text>
<text text-anchor="start" x="308.5" y="-61.8" font-family="arial" font-size="14.00" fill="#000000">c0 :=0</text>
</g>
<!-- st02&#45;&gt;st0 -->
<g id="edge7" class="edge">
<title>st02&#45;&gt;st0</title>
<path fill="none" stroke="#000000" d="M393.9333,-85.4453C388.1138,-88.1294 382.0227,-90.4601 376,-92 299.626,-111.5272 206.3348,-105.6249 155.4767,-100.0273"/>
<polygon fill="#000000" stroke="#000000" points="155.626,-96.5213 145.2895,-98.8467 154.8201,-103.4747 155.626,-96.5213"/>
<text text-anchor="start" x="206" y="-108.8" font-family="arial" font-size="14.00" fill="#377eb8">c0 &gt;= 50</text>
</g>
<!-- st02&#45;&gt;st01 -->
<g id="edge9" class="edge">
<title>st02&#45;&gt;st01</title>
<path fill="none" stroke="#000000" d="M404.2208,-37.8994C395.8434,-31.4473 386.1069,-25.3772 376,-22 342.0641,-10.6604 300.9521,-13.1918 271.8079,-17.483"/>
<polygon fill="#000000" stroke="#000000" points="270.9628,-14.0739 261.6474,-19.1212 272.0771,-20.9847 270.9628,-14.0739"/>
<text text-anchor="start" x="281" y="-25.8" font-family="arial" font-size="14.00" fill="#377eb8">(Q&#39; || c0 &gt;= 50)</text>
</g>
<!-- st02&#45;&gt;st02 -->
<g id="edge8" class="edge">
<title>st02&#45;&gt;st02</title>
<path fill="none" stroke="#000000" d="M411.4497,-88.1756C410.603,-97.9095 416.9531,-106 430.5,-106 438.9668,-106 444.6224,-102.8397 447.4667,-98.093"/>
<polygon fill="#000000" stroke="#000000" points="450.9193,-98.6816 449.5503,-88.1756 444.0689,-97.2423 450.9193,-98.6816"/>
<text text-anchor="start" x="406" y="-109.8" font-family="arial" font-size="14.00" fill="#377eb8">c0 &lt; 50</text>
</g>
</g>
</svg>
