<?xml version="1.0" encoding="UTF-8" standalone="no"?>
<!DOCTYPE svg PUBLIC "-//W3C//DTD SVG 1.1//EN"
 "http://www.w3.org/Graphics/SVG/1.1/DTD/svg11.dtd">
<!-- Generated by graphviz version 2.43.0 (0)
 -->
<!-- Title: G Pages: 1 -->
<svg width="1642pt" height="963pt"
 viewBox="0.00 0.00 1642.00 963.00" xmlns="http://www.w3.org/2000/svg" xmlns:xlink="http://www.w3.org/1999/xlink">
<g id="graph0" class="graph" transform="scale(1 1) rotate(0) translate(4 959)">
<title>G</title>
<polygon fill="white" stroke="transparent" points="-4,4 -4,-959 1638,-959 1638,4 -4,4"/>
<!-- _st0 -->
<!-- st0 -->
<g id="node2" class="node">
<title>st0</title>
<polygon fill="none" stroke="black" points="145,-749 91,-749 91,-699 145,-699 145,-749"/>
<text text-anchor="start" x="108" y="-734.8" font-family="arial" font-weight="bold" font-size="14.00">st0</text>
<text text-anchor="start" x="110" y="-720.8" font-family="arial" font-size="14.00" fill="#984ea3">!Q</text>
<text text-anchor="start" x="106" y="-706.8" font-family="arial" font-size="14.00" fill="#ff7f00">true</text>
</g>
<!-- _st0&#45;&gt;st0 -->
<g id="edge1" class="edge">
<title>_st0&#45;&gt;st0</title>
<path fill="none" stroke="black" d="M54.22,-724C62.55,-724 71.91,-724 80.82,-724"/>
<polygon fill="black" stroke="black" points="80.97,-727.5 90.97,-724 80.97,-720.5 80.97,-727.5"/>
</g>
<!-- st0&#45;&gt;st0 -->
<g id="edge5" class="edge">
<title>st0&#45;&gt;st0</title>
<path fill="none" stroke="black" d="M109.78,-749.18C109.42,-758.91 112.16,-767 118,-767 121.56,-767 123.97,-764 125.22,-759.45"/>
<polygon fill="black" stroke="black" points="128.74,-759.47 126.22,-749.18 121.77,-758.79 128.74,-759.47"/>
<text text-anchor="start" x="106" y="-770.8" font-family="arial" font-size="14.00" fill="#377eb8">true</text>
</g>
<!-- st01 -->
<g id="node4" class="node">
<title>st01</title>
<polygon fill="none" stroke="black" points="277,-466 205,-466 205,-416 277,-416 277,-466"/>
<text text-anchor="start" x="227" y="-451.8" font-family="arial" font-weight="bold" font-size="14.00">st01</text>
<text text-anchor="start" x="213" y="-437.8" font-family="arial" font-size="14.00" fill="#984ea3">(Q &amp;&amp; R)</text>
<text text-anchor="start" x="229" y="-423.8" font-family="arial" font-size="14.00" fill="#ff7f00">true</text>
</g>
<!-- st0&#45;&gt;st01 -->
<g id="edge6" class="edge">
<title>st0&#45;&gt;st01</title>
<path fill="none" stroke="black" d="M129.74,-698.89C151.44,-648.12 200.57,-533.22 225.26,-475.48"/>
<polygon fill="black" stroke="black" points="228.57,-476.63 229.29,-466.06 222.14,-473.88 228.57,-476.63"/>
<text text-anchor="start" x="163" y="-619.8" font-family="arial" font-size="14.00" fill="#377eb8">true</text>
</g>
<!-- st012 -->
<g id="node6" class="node">
<title>st012</title>
<polygon fill="none" stroke="black" points="1451,-642 1332,-642 1332,-592 1451,-592 1451,-642"/>
<text text-anchor="start" x="1374" y="-627.8" font-family="arial" font-weight="bold" font-size="14.00">st012</text>
<text text-anchor="start" x="1340" y="-613.8" font-family="arial" font-size="14.00" fill="#984ea3">(Q &amp;&amp; (!R &amp;&amp; S))</text>
<text text-anchor="start" x="1379.5" y="-599.8" font-family="arial" font-size="14.00" fill="#ff7f00">true</text>
</g>
<!-- st0&#45;&gt;st012 -->
<g id="edge7" class="edge">
<title>st0&#45;&gt;st012</title>
<path fill="none" stroke="black" d="M138.8,-749.2C160.66,-773.95 198.32,-808 240,-808 240,-808 240,-808 1116.5,-808 1225.43,-808 1322.04,-705.15 1365.75,-650.4"/>
<polygon fill="black" stroke="black" points="1368.63,-652.39 1372.06,-642.36 1363.13,-648.07 1368.63,-652.39"/>
<text text-anchor="start" x="666.5" y="-811.8" font-family="arial" font-size="14.00" fill="#377eb8">true</text>
</g>
<!-- st0123 -->
<g id="node8" class="node">
<title>st0123</title>
<polygon fill="none" stroke="black" points="1634,-323 1511,-323 1511,-273 1634,-273 1634,-323"/>
<text text-anchor="start" x="1551" y="-308.8" font-family="arial" font-weight="bold" font-size="14.00">st0123</text>
<text text-anchor="start" x="1519" y="-294.8" font-family="arial" font-size="14.00" fill="#984ea3">(Q &amp;&amp; (!R &amp;&amp; !S))</text>
<text text-anchor="start" x="1560.5" y="-280.8" font-family="arial" font-size="14.00" fill="#ff7f00">true</text>
</g>
<!-- st0&#45;&gt;st0123 -->
<g id="edge8" class="edge">
<title>st0&#45;&gt;st0123</title>
<path fill="none" stroke="black" d="M121.65,-749.12C127.03,-795.46 140.64,-891.85 163,-916 187.35,-942.3 204.15,-940 240,-940 240,-940 240,-940 1392.5,-940 1438.42,-940 1462.33,-950.18 1493,-916 1570.75,-829.36 1573.25,-451.4 1572.08,-333.36"/>
<polygon fill="black" stroke="black" points="1575.57,-333.04 1571.96,-323.08 1568.57,-333.12 1575.57,-333.04"/>
<text text-anchor="start" x="763" y="-943.8" font-family="arial" font-size="14.00" fill="#377eb8">true</text>
</g>
<!-- _st01 -->
<!-- _st01&#45;&gt;st01 -->
<g id="edge2" class="edge">
<title>_st01&#45;&gt;st01</title>
<path fill="none" stroke="black" d="M128.49,-225.36C148.7,-264.43 196.22,-356.33 222.22,-406.62"/>
<polygon fill="black" stroke="black" points="219.27,-408.53 226.97,-415.81 225.49,-405.31 219.27,-408.53"/>
</g>
<!-- st01&#45;&gt;st0 -->
<g id="edge9" class="edge">
<title>st01&#45;&gt;st0</title>
<path fill="none" stroke="black" d="M216.96,-466.36C199.75,-486.57 176.89,-516.31 163,-546 141.15,-592.71 129.33,-651.59 123.6,-688.53"/>
<polygon fill="black" stroke="black" points="120.08,-688.38 122.08,-698.79 127.01,-689.41 120.08,-688.38"/>
<text text-anchor="start" x="168.5" y="-549.8" font-family="arial" font-size="14.00" fill="#377eb8">R&#39;</text>
</g>
<!-- st01&#45;&gt;st01 -->
<g id="edge12" class="edge">
<title>st01&#45;&gt;st01</title>
<path fill="none" stroke="black" d="M228.67,-466.18C228.13,-475.91 232.23,-484 241,-484 246.48,-484 250.14,-480.84 251.98,-476.09"/>
<polygon fill="black" stroke="black" points="255.45,-476.56 253.33,-466.18 248.51,-475.61 255.45,-476.56"/>
<text text-anchor="start" x="229" y="-487.8" font-family="arial" font-size="14.00" fill="#377eb8">true</text>
</g>
<!-- st01&#45;&gt;st012 -->
<g id="edge13" class="edge">
<title>st01&#45;&gt;st012</title>
<path fill="none" stroke="black" d="M277.23,-451.47C283.14,-453.08 289.23,-454.66 295,-456 522.54,-508.98 579.4,-529.16 812,-551 973.51,-566.16 1015.96,-533.43 1177,-553 1239.17,-560.56 1254.37,-566.85 1314,-586 1316.75,-586.88 1319.54,-587.82 1322.35,-588.79"/>
<polygon fill="black" stroke="black" points="1321.34,-592.15 1331.93,-592.24 1323.71,-585.56 1321.34,-592.15"/>
<text text-anchor="start" x="763" y="-552.8" font-family="arial" font-size="14.00" fill="#377eb8">true</text>
</g>
<!-- st01&#45;&gt;st0123 -->
<g id="edge14" class="edge">
<title>st01&#45;&gt;st0123</title>
<path fill="none" stroke="black" d="M273.78,-415.85C274.96,-414.28 276.05,-412.67 277,-411 299.44,-371.81 285.42,-355.13 295,-311 311.05,-237.05 282.99,-199 337,-146 351.39,-131.88 706.99,-51 774,-51 774,-51 774,-51 1392.5,-51 1496.02,-51 1545.81,-195 1563.57,-263.1"/>
<polygon fill="black" stroke="black" points="1560.22,-264.12 1566.06,-272.96 1567.01,-262.4 1560.22,-264.12"/>
<text text-anchor="start" x="861.5" y="-54.8" font-family="arial" font-size="14.00" fill="#377eb8">true</text>
</g>
<!-- st02 -->
<g id="node9" class="node">
<title>st02</title>
<polygon fill="none" stroke="black" points="1177,-666 1054,-666 1054,-616 1177,-616 1177,-666"/>
<text text-anchor="start" x="1101.5" y="-651.8" font-family="arial" font-weight="bold" font-size="14.00">st02</text>
<text text-anchor="start" x="1062" y="-637.8" font-family="arial" font-size="14.00" fill="#984ea3">(!Q &amp;&amp; (!R &amp;&amp; S))</text>
<text text-anchor="start" x="1103.5" y="-623.8" font-family="arial" font-size="14.00" fill="#ff7f00">true</text>
</g>
<!-- st01&#45;&gt;st02 -->
<g id="edge10" class="edge">
<title>st01&#45;&gt;st02</title>
<path fill="none" stroke="black" d="M245.7,-466.08C251.22,-493.89 264.48,-537.75 295,-560 413.38,-646.28 867.33,-646.33 1043.77,-642.92"/>
<polygon fill="black" stroke="black" points="1044.06,-646.41 1053.98,-642.71 1043.91,-639.41 1044.06,-646.41"/>
<text text-anchor="start" x="666.5" y="-642.8" font-family="arial" font-size="14.00" fill="#377eb8">true</text>
</g>
<!-- st023 -->
<g id="node10" class="node">
<title>st023</title>
<polygon fill="none" stroke="black" points="464,-372 337,-372 337,-322 464,-322 464,-372"/>
<text text-anchor="start" x="383" y="-357.8" font-family="arial" font-weight="bold" font-size="14.00">st023</text>
<text text-anchor="start" x="345" y="-343.8" font-family="arial" font-size="14.00" fill="#984ea3">(!Q &amp;&amp; (!R &amp;&amp; !S))</text>
<text text-anchor="start" x="388.5" y="-329.8" font-family="arial" font-size="14.00" fill="#ff7f00">true</text>
</g>
<!-- st01&#45;&gt;st023 -->
<g id="edge11" class="edge">
<title>st01&#45;&gt;st023</title>
<path fill="none" stroke="black" d="M253.69,-415.82C262.66,-399.34 276.63,-378.75 295,-367 304.63,-360.84 315.71,-356.49 326.97,-353.43"/>
<polygon fill="black" stroke="black" points="327.97,-356.79 336.89,-351.07 326.35,-349.98 327.97,-356.79"/>
<text text-anchor="start" x="295" y="-370.8" font-family="arial" font-size="14.00" fill="#377eb8">true</text>
</g>
<!-- _st012 -->
<!-- _st012&#45;&gt;st012 -->
<g id="edge3" class="edge">
<title>_st012&#45;&gt;st012</title>
<path fill="none" stroke="black" d="M1144.03,-583.72C1185.25,-589.28 1264.31,-599.96 1321.81,-607.72"/>
<polygon fill="black" stroke="black" points="1321.54,-611.22 1331.92,-609.09 1322.48,-604.28 1321.54,-611.22"/>
</g>
<!-- st012&#45;&gt;st0 -->
<g id="edge21" class="edge">
<title>st012&#45;&gt;st0</title>
<path fill="none" stroke="black" d="M1382.95,-642.14C1372.24,-674.09 1349.85,-729.26 1314,-764 1244.05,-831.78 1213.9,-859 1116.5,-859 240,-859 240,-859 240,-859 186.06,-859 150.12,-798.5 132.24,-758.51"/>
<polygon fill="black" stroke="black" points="135.36,-756.88 128.19,-749.08 128.92,-759.65 135.36,-756.88"/>
<text text-anchor="start" x="672" y="-862.8" font-family="arial" font-size="14.00" fill="#377eb8">R&#39;</text>
</g>
<!-- st012&#45;&gt;st01 -->
<g id="edge24" class="edge">
<title>st012&#45;&gt;st01</title>
<path fill="none" stroke="black" d="M1347.42,-642.21C1336.67,-648.06 1325.05,-654.03 1314,-659 1255.03,-685.53 1240.48,-695.68 1177,-708 1001.9,-741.98 954.36,-724 776,-724 399.5,-724 399.5,-724 399.5,-724 350.93,-724 327.78,-727.84 295,-692 266.44,-660.78 251.08,-537.63 245.06,-476.21"/>
<polygon fill="black" stroke="black" points="248.54,-475.83 244.1,-466.21 241.57,-476.49 248.54,-475.83"/>
<text text-anchor="start" x="763" y="-727.8" font-family="arial" font-size="14.00" fill="#377eb8">true</text>
</g>
<!-- st012&#45;&gt;st012 -->
<g id="edge25" class="edge">
<title>st012&#45;&gt;st012</title>
<path fill="none" stroke="black" d="M1375.06,-642.18C1374.33,-651.91 1379.81,-660 1391.5,-660 1398.8,-660 1403.68,-656.84 1406.14,-652.09"/>
<polygon fill="black" stroke="black" points="1409.6,-652.64 1407.94,-642.18 1402.71,-651.39 1409.6,-652.64"/>
<text text-anchor="start" x="1379.5" y="-663.8" font-family="arial" font-size="14.00" fill="#377eb8">true</text>
</g>
<!-- st012&#45;&gt;st0123 -->
<g id="edge26" class="edge">
<title>st012&#45;&gt;st0123</title>
<path fill="none" stroke="black" d="M1439.73,-591.92C1459.2,-579.21 1480.16,-561.99 1493,-541 1534.25,-473.56 1556.12,-382.17 1565.6,-332.92"/>
<polygon fill="black" stroke="black" points="1569.04,-333.54 1567.43,-323.07 1562.16,-332.26 1569.04,-333.54"/>
<text text-anchor="start" x="1469" y="-570.8" font-family="arial" font-size="14.00" fill="#377eb8">true</text>
</g>
<!-- st012&#45;&gt;st02 -->
<g id="edge22" class="edge">
<title>st012&#45;&gt;st02</title>
<path fill="none" stroke="black" d="M1331.78,-630.31C1325.79,-631.35 1319.79,-632.28 1314,-633 1272.29,-638.17 1225.28,-640.22 1187.59,-640.96"/>
<polygon fill="black" stroke="black" points="1187.16,-637.47 1177.22,-641.14 1187.28,-644.47 1187.16,-637.47"/>
<text text-anchor="start" x="1242.5" y="-643.8" font-family="arial" font-size="14.00" fill="#377eb8">true</text>
</g>
<!-- st012&#45;&gt;st023 -->
<g id="edge23" class="edge">
<title>st012&#45;&gt;st023</title>
<path fill="none" stroke="black" d="M1340.63,-591.99C1337.45,-589.24 1334.53,-586.24 1332,-583 1314.12,-560.02 1336.07,-538.99 1314,-520 1255.19,-469.39 695.58,-464.51 619,-452 556.75,-441.83 537.87,-444.27 482,-415 464.22,-405.69 446.9,-391.87 432.91,-379.12"/>
<polygon fill="black" stroke="black" points="435.19,-376.46 425.5,-372.18 430.41,-381.57 435.19,-376.46"/>
<text text-anchor="start" x="861.5" y="-472.8" font-family="arial" font-size="14.00" fill="#377eb8">true</text>
</g>
<!-- _st0123 -->
<!-- _st0123&#45;&gt;st0123 -->
<g id="edge4" class="edge">
<title>_st0123&#45;&gt;st0123</title>
<path fill="none" stroke="black" d="M1424.43,-551.5C1446.36,-546.84 1474.7,-537.51 1493,-519 1543.8,-467.61 1561.9,-381.26 1568.21,-333.12"/>
<polygon fill="black" stroke="black" points="1571.69,-333.52 1569.42,-323.17 1564.74,-332.67 1571.69,-333.52"/>
</g>
<!-- st0123&#45;&gt;st0 -->
<g id="edge33" class="edge">
<title>st0123&#45;&gt;st0</title>
<path fill="none" stroke="black" d="M1569.61,-323.18C1560.37,-437.5 1515.27,-902 1392.5,-902 240,-902 240,-902 240,-902 171.51,-902 139.07,-810.76 126.17,-758.93"/>
<polygon fill="black" stroke="black" points="129.55,-758.05 123.84,-749.13 122.74,-759.66 129.55,-758.05"/>
<text text-anchor="start" x="768.5" y="-905.8" font-family="arial" font-size="14.00" fill="#377eb8">R&#39;</text>
</g>
<!-- st0123&#45;&gt;st01 -->
<g id="edge36" class="edge">
<title>st0123&#45;&gt;st01</title>
<path fill="none" stroke="black" d="M1568.55,-272.85C1558.59,-201.01 1519.39,0 1392.5,0 399.5,0 399.5,0 399.5,0 358.78,0 359.24,-32.89 337,-67 311.12,-106.7 306.22,-118.96 295,-165 282.71,-215.45 299.72,-347.16 278,-406.72"/>
<polygon fill="black" stroke="black" points="274.76,-405.4 274,-415.97 281.18,-408.18 274.76,-405.4"/>
<text text-anchor="start" x="861.5" y="-3.8" font-family="arial" font-size="14.00" fill="#377eb8">true</text>
</g>
<!-- st0123&#45;&gt;st0123 -->
<g id="edge38" class="edge">
<title>st0123&#45;&gt;st0123</title>
<path fill="none" stroke="black" d="M1555.69,-323.18C1554.94,-332.91 1560.55,-341 1572.5,-341 1579.97,-341 1584.96,-337.84 1587.47,-333.09"/>
<polygon fill="black" stroke="black" points="1590.93,-333.65 1589.31,-323.18 1584.04,-332.37 1590.93,-333.65"/>
<text text-anchor="start" x="1560.5" y="-344.8" font-family="arial" font-size="14.00" fill="#377eb8">true</text>
</g>
<!-- st0123&#45;&gt;st023 -->
<g id="edge35" class="edge">
<title>st0123&#45;&gt;st023</title>
<path fill="none" stroke="black" d="M1510.67,-291.47C1504.71,-290.93 1498.74,-290.43 1493,-290 1360.92,-280.13 1327.45,-287.73 1195,-288 1087.44,-288.22 1060.41,-283.32 953,-289 742.88,-300.11 691.09,-313.36 482,-337 479.49,-337.28 476.94,-337.58 474.36,-337.88"/>
<polygon fill="black" stroke="black" points="473.85,-334.41 464.33,-339.06 474.67,-341.36 473.85,-334.41"/>
<text text-anchor="start" x="982.5" y="-292.8" font-family="arial" font-size="14.00" fill="#377eb8">true</text>
</g>
<!-- st024 -->
<g id="node11" class="node">
<title>st024</title>
<polygon fill="none" stroke="black" points="935,-238 812,-238 812,-188 935,-188 935,-238"/>
<text text-anchor="start" x="856" y="-223.8" font-family="arial" font-weight="bold" font-size="14.00">st024</text>
<text text-anchor="start" x="820" y="-209.8" font-family="arial" font-size="14.00" fill="#984ea3">(!Q &amp;&amp; (!R &amp;&amp; S))</text>
<text text-anchor="start" x="850.5" y="-195.8" font-family="arial" font-size="14.00" fill="#ff7f00">c0 &lt;= 5</text>
</g>
<!-- st0123&#45;&gt;st024 -->
<g id="edge34" class="edge">
<title>st0123&#45;&gt;st024</title>
<path fill="none" stroke="black" d="M1540.79,-272.77C1526.96,-262.63 1509.95,-251.77 1493,-245 1418.09,-215.08 1394.37,-221.87 1314,-215 1184.19,-203.9 1032.04,-206.72 945.08,-209.82"/>
<polygon fill="black" stroke="black" points="944.93,-206.33 935.07,-210.19 945.19,-213.32 944.93,-206.33"/>
<text text-anchor="start" x="1242.5" y="-233.8" font-family="arial" font-size="14.00" fill="#377eb8">true</text>
<text text-anchor="start" x="1235.5" y="-218.8" font-family="arial" font-size="14.00">c0 :=0</text>
</g>
<!-- st0124 -->
<g id="node12" class="node">
<title>st0124</title>
<polygon fill="none" stroke="black" points="738,-410 619,-410 619,-360 738,-360 738,-410"/>
<text text-anchor="start" x="657" y="-395.8" font-family="arial" font-weight="bold" font-size="14.00">st0124</text>
<text text-anchor="start" x="627" y="-381.8" font-family="arial" font-size="14.00" fill="#984ea3">(Q &amp;&amp; (!R &amp;&amp; S))</text>
<text text-anchor="start" x="655.5" y="-367.8" font-family="arial" font-size="14.00" fill="#ff7f00">c0 &lt;= 5</text>
</g>
<!-- st0123&#45;&gt;st0124 -->
<g id="edge37" class="edge">
<title>st0123&#45;&gt;st0124</title>
<path fill="none" stroke="black" d="M1510.71,-294.97C1413.76,-290.99 1218.29,-286.52 1054,-305 945.72,-317.18 822.59,-346.55 748,-366.11"/>
<polygon fill="black" stroke="black" points="747.03,-362.75 738.26,-368.69 748.82,-369.52 747.03,-362.75"/>
<text text-anchor="start" x="1103.5" y="-323.8" font-family="arial" font-size="14.00" fill="#377eb8">true</text>
<text text-anchor="start" x="1096.5" y="-308.8" font-family="arial" font-size="14.00">c0 :=0</text>
</g>
<!-- st02&#45;&gt;st0 -->
<g id="edge15" class="edge">
<title>st02&#45;&gt;st0</title>
<path fill="none" stroke="black" d="M1086.52,-666.07C1043.96,-701.51 958.96,-762 874.5,-762 240,-762 240,-762 240,-762 210.2,-762 178.08,-751.38 154.44,-741.36"/>
<polygon fill="black" stroke="black" points="155.73,-738.11 145.17,-737.29 152.92,-744.52 155.73,-738.11"/>
<text text-anchor="start" x="535" y="-765.8" font-family="arial" font-size="14.00" fill="#377eb8">R&#39;</text>
</g>
<!-- st02&#45;&gt;st01 -->
<g id="edge18" class="edge">
<title>st02&#45;&gt;st01</title>
<path fill="none" stroke="black" d="M1053.83,-654.6C1047.83,-655.57 1041.81,-656.4 1036,-657 726.31,-688.76 621.98,-737.3 337,-612 315.52,-602.55 309.05,-598.8 295,-580 271.62,-548.73 257.37,-505.92 249.62,-476.1"/>
<polygon fill="black" stroke="black" points="252.95,-475 247.15,-466.14 246.16,-476.69 252.95,-475"/>
<text text-anchor="start" x="666.5" y="-696.8" font-family="arial" font-size="14.00" fill="#377eb8">true</text>
</g>
<!-- st02&#45;&gt;st012 -->
<g id="edge19" class="edge">
<title>st02&#45;&gt;st012</title>
<path fill="none" stroke="black" d="M1177.41,-621.36C1183.31,-620 1189.24,-618.84 1195,-618 1236.6,-611.92 1283.7,-611.49 1321.25,-612.67"/>
<polygon fill="black" stroke="black" points="1321.46,-616.18 1331.58,-613.04 1321.71,-609.18 1321.46,-616.18"/>
<text text-anchor="start" x="1242.5" y="-621.8" font-family="arial" font-size="14.00" fill="#377eb8">true</text>
</g>
<!-- st02&#45;&gt;st0123 -->
<g id="edge20" class="edge">
<title>st02&#45;&gt;st0123</title>
<path fill="none" stroke="black" d="M1161.96,-616C1235.75,-574.24 1384.27,-485.26 1493,-388 1512.3,-370.74 1531.45,-348.9 1546,-331.06"/>
<polygon fill="black" stroke="black" points="1548.8,-333.16 1552.35,-323.18 1543.35,-328.77 1548.8,-333.16"/>
<text text-anchor="start" x="1379.5" y="-512.8" font-family="arial" font-size="14.00" fill="#377eb8">true</text>
</g>
<!-- st02&#45;&gt;st02 -->
<g id="edge16" class="edge">
<title>st02&#45;&gt;st02</title>
<path fill="none" stroke="black" d="M1093.09,-666.18C1092.09,-675.91 1099.56,-684 1115.5,-684 1125.46,-684 1132.11,-680.84 1135.46,-676.09"/>
<polygon fill="black" stroke="black" points="1138.91,-676.72 1137.91,-666.18 1132.11,-675.04 1138.91,-676.72"/>
<text text-anchor="start" x="1103.5" y="-687.8" font-family="arial" font-size="14.00" fill="#377eb8">true</text>
</g>
<!-- st02&#45;&gt;st023 -->
<g id="edge17" class="edge">
<title>st02&#45;&gt;st023</title>
<path fill="none" stroke="black" d="M1053.65,-630.11C1047.69,-629.05 1041.73,-628 1036,-627 910.81,-605.11 571.47,-575.26 482,-485 464.19,-467.03 475.7,-453.43 464,-431 454.64,-413.05 441.59,-394.82 429.84,-379.95"/>
<polygon fill="black" stroke="black" points="432.48,-377.64 423.48,-372.06 427.03,-382.04 432.48,-377.64"/>
<text text-anchor="start" x="763" y="-593.8" font-family="arial" font-size="14.00" fill="#377eb8">true</text>
</g>
<!-- st023&#45;&gt;st0 -->
<g id="edge27" class="edge">
<title>st023&#45;&gt;st0</title>
<path fill="none" stroke="black" d="M336.91,-344.63C293.81,-346.55 238.5,-356.66 205,-392 164.22,-435.03 134.84,-612 123.81,-688.5"/>
<polygon fill="black" stroke="black" points="120.31,-688.21 122.37,-698.6 127.24,-689.2 120.31,-688.21"/>
<text text-anchor="start" x="234.5" y="-395.8" font-family="arial" font-size="14.00" fill="#377eb8">R&#39;</text>
</g>
<!-- st023&#45;&gt;st01 -->
<g id="edge30" class="edge">
<title>st023&#45;&gt;st01</title>
<path fill="none" stroke="black" d="M357.57,-372.03C335.47,-385.21 308.39,-401.38 285.99,-414.74"/>
<polygon fill="black" stroke="black" points="284.14,-411.77 277.35,-419.9 287.73,-417.79 284.14,-411.77"/>
<text text-anchor="start" x="295" y="-410.8" font-family="arial" font-size="14.00" fill="#377eb8">true</text>
</g>
<!-- st023&#45;&gt;st0123 -->
<g id="edge32" class="edge">
<title>st023&#45;&gt;st0123</title>
<path fill="none" stroke="black" d="M409.46,-321.84C420.51,-291.47 443.58,-241.43 482,-217 794.45,-18.35 944.1,-158.87 1314,-175 1374.96,-177.66 1394.02,-162.17 1451,-184 1491.95,-199.68 1526.81,-237.03 1548.34,-264.73"/>
<polygon fill="black" stroke="black" points="1545.76,-267.12 1554.59,-272.98 1551.34,-262.9 1545.76,-267.12"/>
<text text-anchor="start" x="982.5" y="-144.8" font-family="arial" font-size="14.00" fill="#377eb8">true</text>
</g>
<!-- st023&#45;&gt;st023 -->
<g id="edge29" class="edge">
<title>st023&#45;&gt;st023</title>
<path fill="none" stroke="black" d="M383.32,-372.18C382.55,-381.91 388.28,-390 400.5,-390 408.14,-390 413.24,-386.84 415.8,-382.09"/>
<polygon fill="black" stroke="black" points="419.26,-382.65 417.68,-372.18 412.38,-381.35 419.26,-382.65"/>
<text text-anchor="start" x="388.5" y="-393.8" font-family="arial" font-size="14.00" fill="#377eb8">true</text>
</g>
<!-- st023&#45;&gt;st024 -->
<g id="edge28" class="edge">
<title>st023&#45;&gt;st024</title>
<path fill="none" stroke="black" d="M446.21,-321.86C457.64,-316.1 470.08,-310.39 482,-306 590.67,-266.03 722.77,-238.77 802.11,-224.56"/>
<polygon fill="black" stroke="black" points="802.76,-228 811.99,-222.81 801.54,-221.1 802.76,-228"/>
<text text-anchor="start" x="666.5" y="-282.8" font-family="arial" font-size="14.00" fill="#377eb8">true</text>
<text text-anchor="start" x="659.5" y="-267.8" font-family="arial" font-size="14.00">c0 :=0</text>
</g>
<!-- st023&#45;&gt;st0124 -->
<g id="edge31" class="edge">
<title>st023&#45;&gt;st0124</title>
<path fill="none" stroke="black" d="M464.09,-365.31C470.11,-366.71 476.15,-367.97 482,-369 523.69,-376.34 570.99,-380.32 608.62,-382.48"/>
<polygon fill="black" stroke="black" points="608.79,-385.99 618.97,-383.04 609.17,-379 608.79,-385.99"/>
<text text-anchor="start" x="529.5" y="-399.8" font-family="arial" font-size="14.00" fill="#377eb8">true</text>
<text text-anchor="start" x="522.5" y="-384.8" font-family="arial" font-size="14.00">c0 :=0</text>
</g>
<!-- st024&#45;&gt;st0 -->
<g id="edge39" class="edge">
<title>st024&#45;&gt;st0</title>
<path fill="none" stroke="black" d="M851.61,-187.91C818.95,-151.67 751.98,-89 679.5,-89 240,-89 240,-89 240,-89 178.47,-89 133.56,-555.03 121.95,-688.61"/>
<polygon fill="black" stroke="black" points="118.45,-688.45 121.08,-698.72 125.43,-689.05 118.45,-688.45"/>
<text text-anchor="start" x="394" y="-92.8" font-family="arial" font-size="14.00" fill="#377eb8">R&#39;</text>
</g>
<!-- st024&#45;&gt;st01 -->
<g id="edge43" class="edge">
<title>st024&#45;&gt;st01</title>
<path fill="none" stroke="black" d="M828.9,-187.84C754.55,-148.49 599.84,-82.15 482,-136 424.25,-162.39 325.71,-296.43 295,-352 283.24,-373.28 289.98,-385.17 278.79,-406.87"/>
<polygon fill="black" stroke="black" points="275.64,-405.32 273.54,-415.7 281.66,-408.89 275.64,-405.32"/>
<text text-anchor="start" x="529.5" y="-139.8" font-family="arial" font-size="14.00" fill="#377eb8">true</text>
</g>
<!-- st024&#45;&gt;st012 -->
<g id="edge44" class="edge">
<title>st024&#45;&gt;st012</title>
<path fill="none" stroke="black" d="M893.42,-238.16C908.01,-256.09 929.61,-279.64 953,-295 1098.09,-390.27 1212.4,-303.27 1314,-444 1350.46,-494.51 1297.52,-531.12 1332,-583 1332.27,-583.4 1332.54,-583.8 1332.82,-584.2"/>
<polygon fill="black" stroke="black" points="1330.34,-586.67 1339.55,-591.9 1335.61,-582.06 1330.34,-586.67"/>
<text text-anchor="start" x="1074" y="-358.8" font-family="arial" font-size="14.00" fill="#377eb8">(R&#39; || c0 &gt;= 5)</text>
</g>
<!-- st024&#45;&gt;st0123 -->
<g id="edge46" class="edge">
<title>st024&#45;&gt;st0123</title>
<path fill="none" stroke="black" d="M935.22,-201.31C1042.34,-183.23 1270.59,-156.13 1451,-213 1483.98,-223.4 1515.7,-246.49 1538.32,-265.98"/>
<polygon fill="black" stroke="black" points="1536.11,-268.7 1545.92,-272.7 1540.74,-263.45 1536.11,-268.7"/>
<text text-anchor="start" x="1195" y="-188.8" font-family="arial" font-size="14.00" fill="#377eb8">(R&#39; || (S&#39; || c0 &gt;= 5))</text>
</g>
<!-- st024&#45;&gt;st02 -->
<g id="edge40" class="edge">
<title>st024&#45;&gt;st02</title>
<path fill="none" stroke="black" d="M876.88,-238.36C882.47,-285.67 900.26,-388.59 953,-455 979.78,-488.73 1011.63,-469.5 1036,-505 1062.05,-542.95 1027.38,-569.45 1054,-607 1054.36,-607.51 1054.73,-608.01 1055.11,-608.5"/>
<polygon fill="black" stroke="black" points="1052.63,-610.97 1061.99,-615.93 1057.76,-606.22 1052.63,-610.97"/>
<text text-anchor="start" x="953" y="-508.8" font-family="arial" font-size="14.00" fill="#377eb8">(R&#39; || c0 &gt;= 5)</text>
</g>
<!-- st024&#45;&gt;st023 -->
<g id="edge42" class="edge">
<title>st024&#45;&gt;st023</title>
<path fill="none" stroke="black" d="M811.83,-206.57C730.36,-201.01 584.05,-202.09 482,-266 461.64,-278.75 442.52,-297.58 428.02,-313.87"/>
<polygon fill="black" stroke="black" points="425.2,-311.78 421.3,-321.63 430.49,-316.37 425.2,-311.78"/>
<text text-anchor="start" x="619" y="-219.8" font-family="arial" font-size="14.00" fill="#377eb8">(R&#39; || (S&#39; || c0 &gt;= 5))</text>
</g>
<!-- st024&#45;&gt;st024 -->
<g id="edge41" class="edge">
<title>st024&#45;&gt;st024</title>
<path fill="none" stroke="black" d="M855.2,-238.18C854.38,-247.91 860.48,-256 873.5,-256 881.63,-256 887.07,-252.84 889.8,-248.09"/>
<polygon fill="black" stroke="black" points="893.26,-248.67 891.8,-238.18 886.39,-247.29 893.26,-248.67"/>
<text text-anchor="start" x="854.5" y="-259.8" font-family="arial" font-size="14.00" fill="#377eb8">c0 &lt; 5</text>
</g>
<!-- st024&#45;&gt;st0124 -->
<g id="edge45" class="edge">
<title>st024&#45;&gt;st0124</title>
<path fill="none" stroke="black" d="M847.05,-238.05C831.87,-252.82 812.07,-271.74 794,-288 769.16,-310.35 740.47,-334.65 718.03,-353.34"/>
<polygon fill="black" stroke="black" points="715.52,-350.87 710.06,-359.96 719.99,-356.26 715.52,-350.87"/>
<text text-anchor="start" x="756" y="-324.8" font-family="arial" font-size="14.00" fill="#377eb8">c0 &lt; 5</text>
</g>
<!-- st0124&#45;&gt;st0 -->
<g id="edge47" class="edge">
<title>st0124&#45;&gt;st0</title>
<path fill="none" stroke="black" d="M651.91,-410.16C596.07,-463.76 457.19,-590.19 319,-662 265.03,-690.05 196.17,-707.92 154.94,-716.93"/>
<polygon fill="black" stroke="black" points="154.13,-713.53 145.08,-719.03 155.59,-720.37 154.13,-713.53"/>
<text text-anchor="start" x="300.5" y="-676.8" font-family="arial" font-size="14.00" fill="#377eb8">R&#39;</text>
</g>
<!-- st0124&#45;&gt;st01 -->
<g id="edge51" class="edge">
<title>st0124&#45;&gt;st01</title>
<path fill="none" stroke="black" d="M618.75,-410.06C612.83,-411.98 606.84,-413.67 601,-415 490.28,-440.11 355.91,-442.67 287.22,-442.05"/>
<polygon fill="black" stroke="black" points="287.21,-438.55 277.17,-441.93 287.13,-445.55 287.21,-438.55"/>
<text text-anchor="start" x="388.5" y="-444.8" font-family="arial" font-size="14.00" fill="#377eb8">true</text>
</g>
<!-- st0124&#45;&gt;st012 -->
<g id="edge52" class="edge">
<title>st0124&#45;&gt;st012</title>
<path fill="none" stroke="black" d="M738.32,-397.69C744.28,-398.86 750.25,-399.98 756,-401 786.85,-406.46 1291.5,-460.21 1314,-482 1346.76,-513.72 1305.87,-545.64 1332,-583 1332.28,-583.4 1332.56,-583.79 1332.85,-584.18"/>
<polygon fill="black" stroke="black" points="1330.42,-586.71 1339.72,-591.78 1335.61,-582.02 1330.42,-586.71"/>
<text text-anchor="start" x="953" y="-437.8" font-family="arial" font-size="14.00" fill="#377eb8">(R&#39; || c0 &gt;= 5)</text>
</g>
<!-- st0124&#45;&gt;st0123 -->
<g id="edge54" class="edge">
<title>st0124&#45;&gt;st0123</title>
<path fill="none" stroke="black" d="M738.29,-386.89C831.59,-389.17 1019.15,-390.83 1177,-374 1291.57,-361.79 1422.53,-333.69 1501.04,-315.3"/>
<polygon fill="black" stroke="black" points="1501.89,-318.69 1510.82,-312.99 1500.28,-311.88 1501.89,-318.69"/>
<text text-anchor="start" x="1056" y="-386.8" font-family="arial" font-size="14.00" fill="#377eb8">(R&#39; || (S&#39; || c0 &gt;= 5))</text>
</g>
<!-- st0124&#45;&gt;st02 -->
<g id="edge48" class="edge">
<title>st0124&#45;&gt;st02</title>
<path fill="none" stroke="black" d="M706.91,-410.16C732.7,-432.96 773.05,-466.49 812,-490 905.18,-546.25 946.21,-527.47 1036,-589 1045.33,-595.4 1044.98,-600.16 1054,-607 1055.39,-608.05 1056.81,-609.09 1058.26,-610.12"/>
<polygon fill="black" stroke="black" points="1056.55,-613.19 1066.8,-615.85 1060.45,-607.38 1056.55,-613.19"/>
<text text-anchor="start" x="832" y="-543.8" font-family="arial" font-size="14.00" fill="#377eb8">(R&#39; || c0 &gt;= 5)</text>
</g>
<!-- st0124&#45;&gt;st023 -->
<g id="edge50" class="edge">
<title>st0124&#45;&gt;st023</title>
<path fill="none" stroke="black" d="M630.82,-359.99C621.21,-355.89 610.97,-352.25 601,-350 559.75,-340.69 512.47,-339.57 474.29,-340.96"/>
<polygon fill="black" stroke="black" points="474.13,-337.46 464.29,-341.39 474.43,-344.46 474.13,-337.46"/>
<text text-anchor="start" x="482" y="-353.8" font-family="arial" font-size="14.00" fill="#377eb8">(R&#39; || (S&#39; || c0 &gt;= 5))</text>
</g>
<!-- st0124&#45;&gt;st024 -->
<g id="edge49" class="edge">
<title>st0124&#45;&gt;st024</title>
<path fill="none" stroke="black" d="M695.96,-359.95C718.29,-325.98 755.49,-269.44 756,-269 760.72,-264.88 783.51,-253.69 807.7,-242.38"/>
<polygon fill="black" stroke="black" points="809.41,-245.45 817,-238.06 806.46,-239.1 809.41,-245.45"/>
<text text-anchor="start" x="756" y="-272.8" font-family="arial" font-size="14.00" fill="#377eb8">c0 &lt; 5</text>
</g>
<!-- st0124&#45;&gt;st0124 -->
<g id="edge53" class="edge">
<title>st0124&#45;&gt;st0124</title>
<path fill="none" stroke="black" d="M660.57,-410.18C659.77,-419.91 665.75,-428 678.5,-428 686.47,-428 691.79,-424.84 694.47,-420.09"/>
<polygon fill="black" stroke="black" points="697.92,-420.66 696.43,-410.18 691.06,-419.31 697.92,-420.66"/>
<text text-anchor="start" x="659.5" y="-431.8" font-family="arial" font-size="14.00" fill="#377eb8">c0 &lt; 5</text>
</g>
</g>
</svg>
