<?xml version="1.0" encoding="UTF-8" standalone="no"?>
<!DOCTYPE svg PUBLIC "-//W3C//DTD SVG 1.1//EN"
 "http://www.w3.org/Graphics/SVG/1.1/DTD/svg11.dtd">
<!-- Generated by graphviz version 2.43.0 (0)
 -->
<!-- Title: G Pages: 1 -->
<svg width="2403pt" height="1188pt"
 viewBox="0.00 0.00 2403.00 1187.56" xmlns="http://www.w3.org/2000/svg" xmlns:xlink="http://www.w3.org/1999/xlink">
<g id="graph0" class="graph" transform="scale(1 1) rotate(0) translate(4 1183.56)">
<title>G</title>
<polygon fill="white" stroke="transparent" points="-4,4 -4,-1183.56 2399,-1183.56 2399,4 -4,4"/>
<!-- _st0 -->
<!-- st0 -->
<g id="node2" class="node">
<title>st0</title>
<polygon fill="none" stroke="black" points="145,-413.56 91,-413.56 91,-363.56 145,-363.56 145,-413.56"/>
<text text-anchor="start" x="108" y="-399.36" font-family="arial" font-weight="bold" font-size="14.00">st0</text>
<text text-anchor="start" x="110" y="-385.36" font-family="arial" font-size="14.00" fill="#984ea3">!Q</text>
<text text-anchor="start" x="106" y="-371.36" font-family="arial" font-size="14.00" fill="#ff7f00">true</text>
</g>
<!-- _st0&#45;&gt;st0 -->
<g id="edge1" class="edge">
<title>_st0&#45;&gt;st0</title>
<path fill="none" stroke="black" d="M54.22,-388.56C62.55,-388.56 71.91,-388.56 80.82,-388.56"/>
<polygon fill="black" stroke="black" points="80.97,-392.06 90.97,-388.56 80.97,-385.06 80.97,-392.06"/>
</g>
<!-- st0&#45;&gt;st0 -->
<g id="edge5" class="edge">
<title>st0&#45;&gt;st0</title>
<path fill="none" stroke="black" d="M109.78,-413.73C109.42,-423.47 112.16,-431.56 118,-431.56 121.56,-431.56 123.97,-428.55 125.22,-424"/>
<polygon fill="black" stroke="black" points="128.74,-424.02 126.22,-413.73 121.77,-423.35 128.74,-424.02"/>
<text text-anchor="start" x="106" y="-435.36" font-family="arial" font-size="14.00" fill="#377eb8">true</text>
</g>
<!-- st01 -->
<g id="node4" class="node">
<title>st01</title>
<polygon fill="none" stroke="black" points="277,-509.56 205,-509.56 205,-459.56 277,-459.56 277,-509.56"/>
<text text-anchor="start" x="227" y="-495.36" font-family="arial" font-weight="bold" font-size="14.00">st01</text>
<text text-anchor="start" x="213" y="-481.36" font-family="arial" font-size="14.00" fill="#984ea3">(Q &amp;&amp; R)</text>
<text text-anchor="start" x="229" y="-467.36" font-family="arial" font-size="14.00" fill="#ff7f00">true</text>
</g>
<!-- st0&#45;&gt;st01 -->
<g id="edge6" class="edge">
<title>st0&#45;&gt;st01</title>
<path fill="none" stroke="black" d="M145.44,-410.36C151.21,-415.07 157.29,-420 163,-424.56 174.73,-433.92 187.56,-443.99 199.32,-453.15"/>
<polygon fill="black" stroke="black" points="197.23,-455.96 207.27,-459.33 201.52,-450.43 197.23,-455.96"/>
<text text-anchor="start" x="163" y="-446.36" font-family="arial" font-size="14.00" fill="#377eb8">true</text>
</g>
<!-- st012 -->
<g id="node6" class="node">
<title>st012</title>
<polygon fill="none" stroke="black" points="498,-521.56 376,-521.56 376,-471.56 498,-471.56 498,-521.56"/>
<text text-anchor="start" x="419.5" y="-507.36" font-family="arial" font-weight="bold" font-size="14.00">st012</text>
<text text-anchor="start" x="384" y="-493.36" font-family="arial" font-size="14.00" fill="#984ea3">(Q &amp;&amp; (!R &amp;&amp; !T))</text>
<text text-anchor="start" x="425" y="-479.36" font-family="arial" font-size="14.00" fill="#ff7f00">true</text>
</g>
<!-- st0&#45;&gt;st012 -->
<g id="edge7" class="edge">
<title>st0&#45;&gt;st012</title>
<path fill="none" stroke="black" d="M145.07,-379.86C194.46,-365.21 301.72,-342.47 358,-399.56 377.53,-419.37 360.59,-438.54 374.76,-463.22"/>
<polygon fill="black" stroke="black" points="371.92,-465.27 380.54,-471.44 377.65,-461.24 371.92,-465.27"/>
<text text-anchor="start" x="229" y="-369.36" font-family="arial" font-size="14.00" fill="#377eb8">true</text>
</g>
<!-- st01234 -->
<g id="node8" class="node">
<title>st01234</title>
<polygon fill="none" stroke="black" points="1140,-405.56 974,-405.56 974,-355.56 1140,-355.56 1140,-405.56"/>
<text text-anchor="start" x="1032" y="-391.36" font-family="arial" font-weight="bold" font-size="14.00">st01234</text>
<text text-anchor="start" x="982" y="-377.36" font-family="arial" font-size="14.00" fill="#984ea3">(Q &amp;&amp; (!R &amp;&amp; (!S &amp;&amp; T)))</text>
<text text-anchor="start" x="1045" y="-363.36" font-family="arial" font-size="14.00" fill="#ff7f00">true</text>
</g>
<!-- st0&#45;&gt;st01234 -->
<g id="edge8" class="edge">
<title>st0&#45;&gt;st01234</title>
<path fill="none" stroke="black" d="M118.76,-363.27C119.56,-295.44 131.84,-114.56 240,-114.56 240,-114.56 240,-114.56 830,-114.56 950.09,-114.56 1019.69,-273.97 1045,-345.98"/>
<polygon fill="black" stroke="black" points="1041.72,-347.21 1048.28,-355.53 1048.34,-344.94 1041.72,-347.21"/>
<text text-anchor="start" x="516" y="-118.36" font-family="arial" font-size="14.00" fill="#377eb8">true</text>
</g>
<!-- _st01 -->
<!-- _st01&#45;&gt;st01 -->
<g id="edge2" class="edge">
<title>_st01&#45;&gt;st01</title>
<path fill="none" stroke="black" d="M145.28,-509.72C157.95,-507.24 173.33,-504.02 187,-500.56 189.62,-499.89 192.3,-499.18 195,-498.45"/>
<polygon fill="black" stroke="black" points="196.11,-501.77 204.77,-495.68 194.2,-495.03 196.11,-501.77"/>
</g>
<!-- st01&#45;&gt;st0 -->
<g id="edge9" class="edge">
<title>st01&#45;&gt;st0</title>
<path fill="none" stroke="black" d="M204.88,-479.73C190.76,-476.43 175.02,-470.87 163,-461.56 150.17,-451.62 140.26,-436.79 133.12,-423.09"/>
<polygon fill="black" stroke="black" points="136.14,-421.32 128.61,-413.87 129.85,-424.39 136.14,-421.32"/>
<text text-anchor="start" x="168.5" y="-477.36" font-family="arial" font-size="14.00" fill="#377eb8">R&#39;</text>
</g>
<!-- st01&#45;&gt;st01 -->
<g id="edge12" class="edge">
<title>st01&#45;&gt;st01</title>
<path fill="none" stroke="black" d="M228.67,-509.73C228.13,-519.47 232.23,-527.56 241,-527.56 246.48,-527.56 250.14,-524.4 251.98,-519.65"/>
<polygon fill="black" stroke="black" points="255.45,-520.11 253.33,-509.73 248.51,-519.17 255.45,-520.11"/>
<text text-anchor="start" x="229" y="-531.36" font-family="arial" font-size="14.00" fill="#377eb8">true</text>
</g>
<!-- st01&#45;&gt;st012 -->
<g id="edge13" class="edge">
<title>st01&#45;&gt;st012</title>
<path fill="none" stroke="black" d="M277.03,-480.78C283.02,-480.27 289.18,-479.83 295,-479.56 322.97,-478.24 330.16,-476.56 358,-479.56 360.53,-479.83 363.1,-480.15 365.69,-480.51"/>
<polygon fill="black" stroke="black" points="365.32,-484 375.74,-482.09 366.4,-477.08 365.32,-484"/>
<text text-anchor="start" x="314.5" y="-483.36" font-family="arial" font-size="14.00" fill="#377eb8">true</text>
</g>
<!-- st01&#45;&gt;st01234 -->
<g id="edge14" class="edge">
<title>st01&#45;&gt;st01234</title>
<path fill="none" stroke="black" d="M271.7,-459.51C279.02,-454.1 287.04,-448.75 295,-444.56 404.06,-387.13 436.62,-378 558,-356.56 713.82,-329.03 756.04,-342.19 914,-351.56 930.22,-352.52 947.3,-354.84 963.77,-357.78"/>
<polygon fill="black" stroke="black" points="963.46,-361.28 973.93,-359.68 964.74,-354.4 963.46,-361.28"/>
<text text-anchor="start" x="609" y="-360.36" font-family="arial" font-size="14.00" fill="#377eb8">true</text>
</g>
<!-- st02 -->
<g id="node9" class="node">
<title>st02</title>
<polygon fill="none" stroke="black" points="684,-541.56 558,-541.56 558,-491.56 684,-491.56 684,-541.56"/>
<text text-anchor="start" x="607" y="-527.36" font-family="arial" font-weight="bold" font-size="14.00">st02</text>
<text text-anchor="start" x="566" y="-513.36" font-family="arial" font-size="14.00" fill="#984ea3">(!Q &amp;&amp; (!R &amp;&amp; !T))</text>
<text text-anchor="start" x="609" y="-499.36" font-family="arial" font-size="14.00" fill="#ff7f00">true</text>
</g>
<!-- st01&#45;&gt;st02 -->
<g id="edge10" class="edge">
<title>st01&#45;&gt;st02</title>
<path fill="none" stroke="black" d="M277.29,-470.68C327.13,-453.05 420.7,-427.21 498,-447.56 526.8,-455.14 555.94,-471.24 578.52,-485.98"/>
<polygon fill="black" stroke="black" points="576.57,-488.89 586.83,-491.54 580.47,-483.07 576.57,-488.89"/>
<text text-anchor="start" x="425" y="-451.36" font-family="arial" font-size="14.00" fill="#377eb8">true</text>
</g>
<!-- st0234 -->
<g id="node10" class="node">
<title>st0234</title>
<polygon fill="none" stroke="black" points="914,-773.56 744,-773.56 744,-723.56 914,-723.56 914,-773.56"/>
<text text-anchor="start" x="807.5" y="-759.36" font-family="arial" font-weight="bold" font-size="14.00">st0234</text>
<text text-anchor="start" x="752" y="-745.36" font-family="arial" font-size="14.00" fill="#984ea3">(!Q &amp;&amp; (!R &amp;&amp; (!S &amp;&amp; T)))</text>
<text text-anchor="start" x="817" y="-731.36" font-family="arial" font-size="14.00" fill="#ff7f00">true</text>
</g>
<!-- st01&#45;&gt;st0234 -->
<g id="edge11" class="edge">
<title>st01&#45;&gt;st0234</title>
<path fill="none" stroke="black" d="M250.51,-509.77C290.19,-626.61 457.57,-1111.42 516,-1150.56 674.17,-1256.52 787.13,-899.23 818.92,-783.52"/>
<polygon fill="black" stroke="black" points="822.34,-784.29 821.57,-773.72 815.58,-782.46 822.34,-784.29"/>
<text text-anchor="start" x="516" y="-1165.36" font-family="arial" font-size="14.00" fill="#377eb8">true</text>
</g>
<!-- _st012 -->
<!-- _st012&#45;&gt;st012 -->
<g id="edge3" class="edge">
<title>_st012&#45;&gt;st012</title>
<path fill="none" stroke="black" d="M269.8,-598.51C300.15,-579.89 349.39,-549.69 386.4,-526.98"/>
<polygon fill="black" stroke="black" points="388.36,-529.89 395.06,-521.67 384.7,-523.92 388.36,-529.89"/>
</g>
<!-- st012&#45;&gt;st0 -->
<g id="edge23" class="edge">
<title>st012&#45;&gt;st0</title>
<path fill="none" stroke="black" d="M376,-472.28C346.39,-460.63 310.03,-446.79 277,-435.56 235.56,-421.47 187.24,-407.44 155.05,-398.43"/>
<polygon fill="black" stroke="black" points="155.77,-394.99 145.2,-395.68 153.89,-401.74 155.77,-394.99"/>
<text text-anchor="start" x="209.5" y="-439.36" font-family="arial" font-size="14.00" fill="#377eb8">(R&#39; &amp;&amp; !T&#39;)</text>
</g>
<!-- st012&#45;&gt;st01 -->
<g id="edge27" class="edge">
<title>st012&#45;&gt;st01</title>
<path fill="none" stroke="black" d="M375.84,-497.98C350.78,-497.98 321.43,-497.22 295,-494.56 292.47,-494.3 289.89,-493.99 287.28,-493.63"/>
<polygon fill="black" stroke="black" points="287.65,-490.15 277.23,-492.08 286.58,-497.07 287.65,-490.15"/>
<text text-anchor="start" x="318.5" y="-501.36" font-family="arial" font-size="14.00" fill="#377eb8">!T&#39;</text>
</g>
<!-- st012&#45;&gt;st012 -->
<g id="edge29" class="edge">
<title>st012&#45;&gt;st012</title>
<path fill="none" stroke="black" d="M420.19,-521.73C419.44,-531.47 425.05,-539.56 437,-539.56 444.47,-539.56 449.46,-536.4 451.97,-531.65"/>
<polygon fill="black" stroke="black" points="455.43,-532.2 453.81,-521.73 448.54,-530.93 455.43,-532.2"/>
<text text-anchor="start" x="425" y="-543.36" font-family="arial" font-size="14.00" fill="#377eb8">true</text>
</g>
<!-- st012&#45;&gt;st01234 -->
<g id="edge30" class="edge">
<title>st012&#45;&gt;st01234</title>
<path fill="none" stroke="black" d="M490.57,-471.44C493.12,-469.86 495.61,-468.23 498,-466.56 507.02,-460.25 506.67,-455.39 516,-449.56 607.83,-392.14 637.45,-382.98 744,-363.56 817.05,-350.24 901.18,-356.02 963.66,-364.29"/>
<polygon fill="black" stroke="black" points="963.5,-367.8 973.88,-365.69 964.45,-360.87 963.5,-367.8"/>
<text text-anchor="start" x="702" y="-374.36" font-family="arial" font-size="14.00" fill="#377eb8">true</text>
</g>
<!-- st012&#45;&gt;st02 -->
<g id="edge25" class="edge">
<title>st012&#45;&gt;st02</title>
<path fill="none" stroke="black" d="M498.31,-509.95C504.26,-510.96 510.24,-511.86 516,-512.56 526.2,-513.79 536.99,-514.67 547.61,-515.3"/>
<polygon fill="black" stroke="black" points="547.56,-518.8 557.72,-515.83 547.92,-511.81 547.56,-518.8"/>
<text text-anchor="start" x="516" y="-518.36" font-family="arial" font-size="14.00" fill="#377eb8">true</text>
</g>
<!-- st012&#45;&gt;st0234 -->
<g id="edge26" class="edge">
<title>st012&#45;&gt;st0234</title>
<path fill="none" stroke="black" d="M471.12,-521.65C494.95,-539.43 528.02,-563.58 558,-583.56 632.04,-632.91 720.48,-685.87 775.46,-718.11"/>
<polygon fill="black" stroke="black" points="773.92,-721.27 784.32,-723.3 777.46,-715.23 773.92,-721.27"/>
<text text-anchor="start" x="609" y="-666.36" font-family="arial" font-size="14.00" fill="#377eb8">true</text>
</g>
<!-- st034 -->
<g id="node11" class="node">
<title>st034</title>
<polygon fill="none" stroke="black" points="1824,-487.56 1702,-487.56 1702,-437.56 1824,-437.56 1824,-487.56"/>
<text text-anchor="start" x="1745.5" y="-473.36" font-family="arial" font-weight="bold" font-size="14.00">st034</text>
<text text-anchor="start" x="1710" y="-459.36" font-family="arial" font-size="14.00" fill="#984ea3">(!Q &amp;&amp; (!S &amp;&amp; T))</text>
<text text-anchor="start" x="1751" y="-445.36" font-family="arial" font-size="14.00" fill="#ff7f00">true</text>
</g>
<!-- st012&#45;&gt;st034 -->
<g id="edge24" class="edge">
<title>st012&#45;&gt;st034</title>
<path fill="none" stroke="black" d="M498.03,-488.49C517.16,-486.2 538.44,-483.96 558,-482.56 640.49,-476.65 661.31,-478.67 744,-477.56 819.55,-476.54 838.57,-473.24 914,-477.56 1033.56,-484.4 1062.3,-509.31 1182,-505.56 1267.01,-502.89 1288.5,-503.23 1373,-493.56 1399.86,-490.48 1406.15,-486.72 1433,-483.56 1521.76,-473.12 1624.64,-467.6 1691.4,-464.89"/>
<polygon fill="black" stroke="black" points="1691.94,-468.37 1701.79,-464.47 1691.66,-461.37 1691.94,-468.37"/>
<text text-anchor="start" x="1050.5" y="-509.36" font-family="arial" font-size="14.00" fill="#377eb8">R&#39;</text>
</g>
<!-- st0134 -->
<g id="node12" class="node">
<title>st0134</title>
<polygon fill="none" stroke="black" points="2085,-536.56 1923,-536.56 1923,-486.56 2085,-486.56 2085,-536.56"/>
<text text-anchor="start" x="1982.5" y="-522.36" font-family="arial" font-weight="bold" font-size="14.00">st0134</text>
<text text-anchor="start" x="1931" y="-508.36" font-family="arial" font-size="14.00" fill="#984ea3">(Q &amp;&amp; (R &amp;&amp; (!S &amp;&amp; T)))</text>
<text text-anchor="start" x="1992" y="-494.36" font-family="arial" font-size="14.00" fill="#ff7f00">true</text>
</g>
<!-- st012&#45;&gt;st0134 -->
<g id="edge28" class="edge">
<title>st012&#45;&gt;st0134</title>
<path fill="none" stroke="black" d="M468.29,-521.81C479.19,-532.41 490.61,-545.53 498,-559.56 620.13,-791.48 357.89,-1136.56 620,-1136.56 620,-1136.56 620,-1136.56 1171,-1136.56 1317.61,-1136.56 1719.38,-1145.27 1824,-1042.56 1906.44,-961.62 1882.15,-908.81 1905,-795.56 1914.74,-747.26 1899.7,-617.98 1923,-574.56 1929.52,-562.4 1939.51,-551.8 1950.23,-542.93"/>
<polygon fill="black" stroke="black" points="1952.39,-545.69 1958.14,-536.79 1948.09,-540.17 1952.39,-545.69"/>
<text text-anchor="start" x="1158" y="-1140.36" font-family="arial" font-size="14.00" fill="#377eb8">true</text>
</g>
<!-- _st01234 -->
<!-- _st01234&#45;&gt;st01234 -->
<g id="edge4" class="edge">
<title>_st01234&#45;&gt;st01234</title>
<path fill="none" stroke="black" d="M865.31,-389C891.64,-387.83 928.87,-386.18 963.46,-384.65"/>
<polygon fill="black" stroke="black" points="963.77,-388.14 973.61,-384.2 963.46,-381.15 963.77,-388.14"/>
</g>
<!-- st01234&#45;&gt;st01234 -->
<g id="edge86" class="edge">
<title>st01234&#45;&gt;st01234</title>
<path fill="none" stroke="black" d="M1036.08,-405.73C1035.15,-415.47 1042.12,-423.56 1057,-423.56 1066.3,-423.56 1072.51,-420.4 1075.63,-415.65"/>
<polygon fill="black" stroke="black" points="1079.08,-416.26 1077.92,-405.73 1072.26,-414.69 1079.08,-416.26"/>
<text text-anchor="start" x="1045" y="-427.36" font-family="arial" font-size="14.00" fill="#377eb8">true</text>
</g>
<!-- st01234&#45;&gt;st0234 -->
<g id="edge82" class="edge">
<title>st01234&#45;&gt;st0234</title>
<path fill="none" stroke="black" d="M1032.14,-405.71C1014.86,-424.62 991.55,-451.63 974,-477.56 919.59,-557.93 869.7,-661.14 845.45,-713.99"/>
<polygon fill="black" stroke="black" points="842.19,-712.7 841.22,-723.25 848.56,-715.61 842.19,-712.7"/>
<text text-anchor="start" x="932" y="-545.36" font-family="arial" font-size="14.00" fill="#377eb8">true</text>
</g>
<!-- st01234&#45;&gt;st034 -->
<g id="edge80" class="edge">
<title>st01234&#45;&gt;st034</title>
<path fill="none" stroke="black" d="M1140.11,-382.31C1260.54,-386.17 1491.63,-398.47 1684,-437.56 1686.65,-438.1 1689.34,-438.69 1692.05,-439.34"/>
<polygon fill="black" stroke="black" points="1691.32,-442.77 1701.88,-441.85 1693.06,-435.98 1691.32,-442.77"/>
<text text-anchor="start" x="1396.5" y="-402.36" font-family="arial" font-size="14.00" fill="#377eb8">R&#39;</text>
</g>
<!-- st01234&#45;&gt;st0134 -->
<g id="edge84" class="edge">
<title>st01234&#45;&gt;st0134</title>
<path fill="none" stroke="black" d="M1096.08,-355.53C1139.89,-329.21 1214.89,-291.56 1285.5,-291.56 1285.5,-291.56 1285.5,-291.56 1764,-291.56 1833.38,-291.56 1859.02,-306.6 1905,-358.56 1921.77,-377.5 1910.86,-390.37 1923,-412.56 1936.18,-436.64 1955.41,-460.67 1971.72,-479.02"/>
<polygon fill="black" stroke="black" points="1969.19,-481.45 1978.5,-486.52 1974.39,-476.76 1969.19,-481.45"/>
<text text-anchor="start" x="1506" y="-295.36" font-family="arial" font-size="14.00" fill="#377eb8">true</text>
</g>
<!-- st04 -->
<g id="node13" class="node">
<title>st04</title>
<polygon fill="none" stroke="black" points="2395,-577.56 2316,-577.56 2316,-527.56 2395,-527.56 2395,-577.56"/>
<text text-anchor="start" x="2341.5" y="-563.36" font-family="arial" font-weight="bold" font-size="14.00">st04</text>
<text text-anchor="start" x="2324" y="-549.36" font-family="arial" font-size="14.00" fill="#984ea3">(!Q &amp;&amp; !S)</text>
<text text-anchor="start" x="2343.5" y="-535.36" font-family="arial" font-size="14.00" fill="#ff7f00">true</text>
</g>
<!-- st01234&#45;&gt;st04 -->
<g id="edge79" class="edge">
<title>st01234&#45;&gt;st04</title>
<path fill="none" stroke="black" d="M1070.03,-355.32C1090.4,-315.92 1135.83,-241.24 1200,-211.56 1471.72,-85.86 1573.11,-172.56 1872.5,-172.56 1872.5,-172.56 1872.5,-172.56 2197.5,-172.56 2271.72,-172.56 2328.96,-423.31 2347.83,-517.43"/>
<polygon fill="black" stroke="black" points="2344.41,-518.2 2349.79,-527.33 2351.28,-516.84 2344.41,-518.2"/>
<text text-anchor="start" x="1731.5" y="-176.36" font-family="arial" font-size="14.00" fill="#377eb8">(R&#39; &amp;&amp; !T&#39;)</text>
</g>
<!-- st014 -->
<g id="node14" class="node">
<title>st014</title>
<polygon fill="none" stroke="black" points="2256,-767.56 2137,-767.56 2137,-717.56 2256,-717.56 2256,-767.56"/>
<text text-anchor="start" x="2179" y="-753.36" font-family="arial" font-weight="bold" font-size="14.00">st014</text>
<text text-anchor="start" x="2145" y="-739.36" font-family="arial" font-size="14.00" fill="#984ea3">(Q &amp;&amp; (R &amp;&amp; !S))</text>
<text text-anchor="start" x="2184.5" y="-725.36" font-family="arial" font-size="14.00" fill="#ff7f00">true</text>
</g>
<!-- st01234&#45;&gt;st014 -->
<g id="edge83" class="edge">
<title>st01234&#45;&gt;st014</title>
<path fill="none" stroke="black" d="M1076.33,-355.5C1100.67,-324.44 1146.82,-272.78 1200,-249.56 1327.12,-194.06 1688.78,-203.64 1824,-234.56 1951.11,-263.63 2006.07,-264.76 2085,-368.56 2138.25,-438.59 2112.04,-475.19 2137,-559.56 2152.35,-611.45 2171.74,-671.07 2183.89,-707.78"/>
<polygon fill="black" stroke="black" points="2180.64,-709.11 2187.11,-717.5 2187.28,-706.91 2180.64,-709.11"/>
<text text-anchor="start" x="1644.5" y="-220.36" font-family="arial" font-size="14.00" fill="#377eb8">!T&#39;</text>
</g>
<!-- st0124 -->
<g id="node15" class="node">
<title>st0124</title>
<polygon fill="none" stroke="black" points="1603,-794.56 1433,-794.56 1433,-744.56 1603,-744.56 1603,-794.56"/>
<text text-anchor="start" x="1496.5" y="-780.36" font-family="arial" font-weight="bold" font-size="14.00">st0124</text>
<text text-anchor="start" x="1441" y="-766.36" font-family="arial" font-size="14.00" fill="#984ea3">(Q &amp;&amp; (!R &amp;&amp; (!S &amp;&amp; !T)))</text>
<text text-anchor="start" x="1506" y="-752.36" font-family="arial" font-size="14.00" fill="#ff7f00">true</text>
</g>
<!-- st01234&#45;&gt;st0124 -->
<g id="edge85" class="edge">
<title>st01234&#45;&gt;st0124</title>
<path fill="none" stroke="black" d="M1098.62,-405.69C1130.72,-426.43 1171.78,-455.17 1182,-472.56 1213.33,-525.89 1164.17,-560.14 1200,-610.56 1215.85,-632.86 1362.55,-700.86 1450.73,-740.34"/>
<polygon fill="black" stroke="black" points="1449.57,-743.65 1460.13,-744.54 1452.42,-737.26 1449.57,-743.65"/>
<text text-anchor="start" x="1274.5" y="-707.36" font-family="arial" font-size="14.00" fill="#377eb8">true</text>
</g>
<!-- st024 -->
<g id="node16" class="node">
<title>st024</title>
<polygon fill="none" stroke="black" points="1373,-779.56 1200,-779.56 1200,-729.56 1373,-729.56 1373,-779.56"/>
<text text-anchor="start" x="1269" y="-765.36" font-family="arial" font-weight="bold" font-size="14.00">st024</text>
<text text-anchor="start" x="1208" y="-751.36" font-family="arial" font-size="14.00" fill="#984ea3">(!Q &amp;&amp; (!R &amp;&amp; (!S &amp;&amp; !T)))</text>
<text text-anchor="start" x="1274.5" y="-737.36" font-family="arial" font-size="14.00" fill="#ff7f00">true</text>
</g>
<!-- st01234&#45;&gt;st024 -->
<g id="edge81" class="edge">
<title>st01234&#45;&gt;st024</title>
<path fill="none" stroke="black" d="M1085.85,-405.88C1104.08,-424.06 1126.89,-450.1 1140,-477.56 1158.33,-515.94 1144.91,-531.09 1158,-571.56 1171.59,-613.56 1175.44,-624.88 1200,-661.56 1214.6,-683.37 1234.24,-705.11 1251.01,-722.08"/>
<polygon fill="black" stroke="black" points="1248.93,-724.95 1258.48,-729.53 1253.87,-719.99 1248.93,-724.95"/>
<text text-anchor="start" x="1158" y="-635.36" font-family="arial" font-size="14.00" fill="#377eb8">true</text>
</g>
<!-- st02&#45;&gt;st0 -->
<g id="edge15" class="edge">
<title>st02&#45;&gt;st0</title>
<path fill="none" stroke="black" d="M593.78,-491.35C549.55,-450.91 455.35,-373.54 358,-348.56 273.74,-326.93 245.49,-337.91 163,-365.56 160.24,-366.48 157.45,-367.56 154.67,-368.74"/>
<polygon fill="black" stroke="black" points="152.99,-365.66 145.4,-373.05 155.94,-372.01 152.99,-365.66"/>
<text text-anchor="start" x="295" y="-352.36" font-family="arial" font-size="14.00" fill="#377eb8">(R&#39; &amp;&amp; !T&#39;)</text>
</g>
<!-- st02&#45;&gt;st01 -->
<g id="edge19" class="edge">
<title>st02&#45;&gt;st01</title>
<path fill="none" stroke="black" d="M567.49,-541.65C546.4,-550.43 521.54,-559.18 498,-563.56 444.69,-573.47 428.36,-577.65 376,-563.56 341.56,-554.29 306.99,-533.56 281.59,-515.66"/>
<polygon fill="black" stroke="black" points="283.5,-512.72 273.34,-509.72 279.41,-518.4 283.5,-512.72"/>
<text text-anchor="start" x="429" y="-576.36" font-family="arial" font-size="14.00" fill="#377eb8">!T&#39;</text>
</g>
<!-- st02&#45;&gt;st012 -->
<g id="edge21" class="edge">
<title>st02&#45;&gt;st012</title>
<path fill="none" stroke="black" d="M557.79,-500.36C551.81,-499.24 545.81,-498.27 540,-497.56 529.74,-496.31 518.86,-495.57 508.17,-495.19"/>
<polygon fill="black" stroke="black" points="508.1,-491.68 498.01,-494.92 507.92,-498.68 508.1,-491.68"/>
<text text-anchor="start" x="516" y="-501.36" font-family="arial" font-size="14.00" fill="#377eb8">true</text>
</g>
<!-- st02&#45;&gt;st01234 -->
<g id="edge22" class="edge">
<title>st02&#45;&gt;st01234</title>
<path fill="none" stroke="black" d="M684.18,-497.07C758.09,-473.91 882.01,-435.08 966.29,-408.67"/>
<polygon fill="black" stroke="black" points="967.36,-412 975.85,-405.67 965.27,-405.32 967.36,-412"/>
<text text-anchor="start" x="817" y="-480.36" font-family="arial" font-size="14.00" fill="#377eb8">true</text>
</g>
<!-- st02&#45;&gt;st02 -->
<g id="edge17" class="edge">
<title>st02&#45;&gt;st02</title>
<path fill="none" stroke="black" d="M603.82,-541.73C603.05,-551.47 608.78,-559.56 621,-559.56 628.64,-559.56 633.74,-556.4 636.3,-551.65"/>
<polygon fill="black" stroke="black" points="639.76,-552.21 638.18,-541.73 632.88,-550.91 639.76,-552.21"/>
<text text-anchor="start" x="609" y="-563.36" font-family="arial" font-size="14.00" fill="#377eb8">true</text>
</g>
<!-- st02&#45;&gt;st0234 -->
<g id="edge18" class="edge">
<title>st02&#45;&gt;st0234</title>
<path fill="none" stroke="black" d="M644.44,-541.83C681.9,-584.01 757.15,-668.77 798.73,-715.59"/>
<polygon fill="black" stroke="black" points="796.33,-718.17 805.59,-723.32 801.57,-713.52 796.33,-718.17"/>
<text text-anchor="start" x="702" y="-636.36" font-family="arial" font-size="14.00" fill="#377eb8">true</text>
</g>
<!-- st02&#45;&gt;st034 -->
<g id="edge16" class="edge">
<title>st02&#45;&gt;st034</title>
<path fill="none" stroke="black" d="M684.28,-522.28C746.82,-527.72 846,-535.51 932,-538.56 1128.02,-545.5 1177.81,-540.91 1373,-521.56 1404,-518.49 1588.35,-489.83 1691.76,-473.62"/>
<polygon fill="black" stroke="black" points="1692.47,-477.05 1701.81,-472.04 1691.39,-470.13 1692.47,-477.05"/>
<text text-anchor="start" x="1163.5" y="-543.36" font-family="arial" font-size="14.00" fill="#377eb8">R&#39;</text>
</g>
<!-- st02&#45;&gt;st0134 -->
<g id="edge20" class="edge">
<title>st02&#45;&gt;st0134</title>
<path fill="none" stroke="black" d="M629.6,-491.48C640.76,-458.32 664.4,-399.74 702,-362.56 867.36,-199.04 936.45,-126.56 1169,-126.56 1169,-126.56 1169,-126.56 1653.5,-126.56 1730.02,-126.56 1761.3,-106.69 1824,-150.56 1937.36,-229.87 1982.4,-402.1 1997.03,-476.34"/>
<polygon fill="black" stroke="black" points="1993.66,-477.39 1998.97,-486.56 2000.54,-476.08 1993.66,-477.39"/>
<text text-anchor="start" x="1274.5" y="-130.36" font-family="arial" font-size="14.00" fill="#377eb8">true</text>
</g>
<!-- st0234&#45;&gt;st01234 -->
<g id="edge78" class="edge">
<title>st0234&#45;&gt;st01234</title>
<path fill="none" stroke="black" d="M839.55,-723.44C864.21,-658.67 928.33,-490.71 932,-485.56 952.75,-456.43 983.36,-430.4 1008.98,-411.55"/>
<polygon fill="black" stroke="black" points="1011.04,-414.37 1017.1,-405.68 1006.94,-408.7 1011.04,-414.37"/>
<text text-anchor="start" x="932" y="-489.36" font-family="arial" font-size="14.00" fill="#377eb8">true</text>
</g>
<!-- st0234&#45;&gt;st0234 -->
<g id="edge74" class="edge">
<title>st0234&#45;&gt;st0234</title>
<path fill="none" stroke="black" d="M807.71,-773.73C806.76,-783.47 813.86,-791.56 829,-791.56 838.46,-791.56 844.78,-788.4 847.96,-783.65"/>
<polygon fill="black" stroke="black" points="851.41,-784.27 850.29,-773.73 844.6,-782.67 851.41,-784.27"/>
<text text-anchor="start" x="817" y="-795.36" font-family="arial" font-size="14.00" fill="#377eb8">true</text>
</g>
<!-- st0234&#45;&gt;st034 -->
<g id="edge72" class="edge">
<title>st0234&#45;&gt;st034</title>
<path fill="none" stroke="black" d="M857.62,-723.37C877.17,-706.68 904.68,-685.38 932,-671.56 1112.44,-580.27 1174.42,-597.78 1373,-559.56 1475.37,-539.85 1502.1,-539.74 1603,-513.56 1632.49,-505.9 1664.57,-495.94 1692.14,-486.85"/>
<polygon fill="black" stroke="black" points="1693.3,-490.15 1701.69,-483.68 1691.1,-483.51 1693.3,-490.15"/>
<text text-anchor="start" x="1280" y="-590.36" font-family="arial" font-size="14.00" fill="#377eb8">R&#39;</text>
</g>
<!-- st0234&#45;&gt;st0134 -->
<g id="edge76" class="edge">
<title>st0234&#45;&gt;st0134</title>
<path fill="none" stroke="black" d="M837.33,-773.84C858.71,-841.68 927.74,-1022.56 1056,-1022.56 1056,-1022.56 1056,-1022.56 1404,-1022.56 1556.04,-1022.56 1564.72,-919.92 1702,-854.56 1723.89,-844.14 1890.47,-793.97 1905,-774.56 1931.74,-738.83 1901.73,-613.79 1923,-574.56 1929.58,-562.43 1939.58,-551.84 1950.31,-542.98"/>
<polygon fill="black" stroke="black" points="1952.46,-545.73 1958.21,-536.83 1948.17,-540.21 1952.46,-545.73"/>
<text text-anchor="start" x="1391" y="-1026.36" font-family="arial" font-size="14.00" fill="#377eb8">true</text>
</g>
<!-- st0234&#45;&gt;st04 -->
<g id="edge71" class="edge">
<title>st0234&#45;&gt;st04</title>
<path fill="none" stroke="black" d="M838.38,-723.18C855.39,-671.97 895.42,-552.7 932,-453.56 1004.29,-257.62 1012.25,-159.04 1200,-67.56 1468.96,63.49 1573.31,-37.56 1872.5,-37.56 1872.5,-37.56 1872.5,-37.56 2197.5,-37.56 2254.59,-37.56 2274.51,-65.52 2298,-117.56 2330.28,-189.08 2347.21,-427.37 2352.58,-517.56"/>
<polygon fill="black" stroke="black" points="2349.08,-517.78 2353.16,-527.56 2356.07,-517.37 2349.08,-517.78"/>
<text text-anchor="start" x="1621" y="-28.36" font-family="arial" font-size="14.00" fill="#377eb8">(R&#39; &amp;&amp; !T&#39;)</text>
</g>
<!-- st0234&#45;&gt;st014 -->
<g id="edge75" class="edge">
<title>st0234&#45;&gt;st014</title>
<path fill="none" stroke="black" d="M833.27,-773.57C842.52,-832.35 875.01,-977.88 974,-1024.56 1068.04,-1068.9 1803.34,-1140.38 1905,-1118.56 1990.77,-1100.15 2018.32,-1094.56 2085,-1037.56 2105.99,-1019.62 2108.37,-1011.04 2119,-985.56 2133.7,-950.32 2126.38,-938.23 2137,-901.56 2149.64,-857.9 2168.33,-809.02 2181.17,-777.13"/>
<polygon fill="black" stroke="black" points="2184.44,-778.38 2184.95,-767.8 2177.95,-775.75 2184.44,-778.38"/>
<text text-anchor="start" x="1510" y="-1114.36" font-family="arial" font-size="14.00" fill="#377eb8">!T&#39;</text>
</g>
<!-- st0234&#45;&gt;st0124 -->
<g id="edge77" class="edge">
<title>st0234&#45;&gt;st0124</title>
<path fill="none" stroke="black" d="M870.33,-773.69C898.37,-789.97 937.18,-810.19 974,-821.56 1143.61,-873.92 1197.32,-864.99 1373,-839.56 1392.1,-836.79 1397.15,-835.9 1415,-828.56 1433.85,-820.8 1453.48,-810.15 1470.42,-800.02"/>
<polygon fill="black" stroke="black" points="1472.29,-802.98 1479.02,-794.8 1468.66,-797 1472.29,-802.98"/>
<text text-anchor="start" x="1158" y="-863.36" font-family="arial" font-size="14.00" fill="#377eb8">true</text>
</g>
<!-- st0234&#45;&gt;st024 -->
<g id="edge73" class="edge">
<title>st0234&#45;&gt;st024</title>
<path fill="none" stroke="black" d="M914.22,-747.62C976.57,-747.16 1063.59,-746.98 1140,-748.56 1156.01,-748.89 1173.01,-749.42 1189.53,-750.04"/>
<polygon fill="black" stroke="black" points="1189.61,-753.54 1199.73,-750.43 1189.88,-746.55 1189.61,-753.54"/>
<text text-anchor="start" x="1045" y="-752.36" font-family="arial" font-size="14.00" fill="#377eb8">true</text>
</g>
<!-- st034&#45;&gt;st01234 -->
<g id="edge62" class="edge">
<title>st034&#45;&gt;st01234</title>
<path fill="none" stroke="black" d="M1732.84,-437.55C1718.95,-427.07 1701.57,-415.87 1684,-409.56 1503.86,-344.87 1275.67,-355.4 1150.54,-368.31"/>
<polygon fill="black" stroke="black" points="1149.81,-364.87 1140.24,-369.4 1150.55,-371.83 1149.81,-364.87"/>
<text text-anchor="start" x="1391" y="-364.36" font-family="arial" font-size="14.00" fill="#377eb8">true</text>
</g>
<!-- st034&#45;&gt;st034 -->
<g id="edge58" class="edge">
<title>st034&#45;&gt;st034</title>
<path fill="none" stroke="black" d="M1742.46,-487.73C1741.54,-497.47 1748.39,-505.56 1763,-505.56 1772.13,-505.56 1778.23,-502.4 1781.3,-497.65"/>
<polygon fill="black" stroke="black" points="1784.75,-498.26 1783.54,-487.73 1777.92,-496.71 1784.75,-498.26"/>
<text text-anchor="start" x="1751" y="-509.36" font-family="arial" font-size="14.00" fill="#377eb8">true</text>
</g>
<!-- st034&#45;&gt;st0134 -->
<g id="edge60" class="edge">
<title>st034&#45;&gt;st0134</title>
<path fill="none" stroke="black" d="M1824.2,-482.92C1830.18,-484.62 1836.18,-486.2 1842,-487.56 1864.66,-492.84 1889.39,-497.21 1912.52,-500.7"/>
<polygon fill="black" stroke="black" points="1912.27,-504.2 1922.67,-502.2 1913.29,-497.28 1912.27,-504.2"/>
<text text-anchor="start" x="1861.5" y="-502.36" font-family="arial" font-size="14.00" fill="#377eb8">true</text>
</g>
<!-- st034&#45;&gt;st04 -->
<g id="edge57" class="edge">
<title>st034&#45;&gt;st04</title>
<path fill="none" stroke="black" d="M1824.05,-457.34C1849.09,-455.86 1878.46,-455.02 1905,-456.56 2063.47,-465.77 2103.29,-479.23 2256,-522.56 2272.38,-527.21 2290.2,-532.55 2306.13,-537.42"/>
<polygon fill="black" stroke="black" points="2305.18,-540.79 2315.77,-540.39 2307.24,-534.1 2305.18,-540.79"/>
<text text-anchor="start" x="2103" y="-487.36" font-family="arial" font-size="14.00" fill="#377eb8">!T&#39;</text>
</g>
<!-- st034&#45;&gt;st014 -->
<g id="edge59" class="edge">
<title>st034&#45;&gt;st014</title>
<path fill="none" stroke="black" d="M1796.59,-487.64C1828.31,-511.75 1878.16,-548.79 1923,-578.56 1997.3,-627.88 2086.31,-680.24 2141.9,-712.18"/>
<polygon fill="black" stroke="black" points="2140.45,-715.38 2150.86,-717.32 2143.93,-709.31 2140.45,-715.38"/>
<text text-anchor="start" x="1996" y="-680.36" font-family="arial" font-size="14.00" fill="#377eb8">!T&#39;</text>
</g>
<!-- st034&#45;&gt;st0124 -->
<g id="edge61" class="edge">
<title>st034&#45;&gt;st0124</title>
<path fill="none" stroke="black" d="M1740.55,-487.63C1725.94,-503.44 1705.42,-523.29 1684,-536.56 1658.66,-552.25 1642.56,-538.98 1621,-559.56 1606.01,-573.86 1611.66,-583.74 1603,-602.56 1581.55,-649.18 1554.55,-701.93 1537.04,-735.44"/>
<polygon fill="black" stroke="black" points="1533.9,-733.88 1532.36,-744.36 1540.1,-737.13 1533.9,-733.88"/>
<text text-anchor="start" x="1640.5" y="-563.36" font-family="arial" font-size="14.00" fill="#377eb8">true</text>
</g>
<!-- st0134&#45;&gt;st01234 -->
<g id="edge70" class="edge">
<title>st0134&#45;&gt;st01234</title>
<path fill="none" stroke="black" d="M1984.8,-486.26C1948.56,-439.11 1862.33,-342.56 1764,-342.56 1285.5,-342.56 1285.5,-342.56 1285.5,-342.56 1240.55,-342.56 1191.28,-349.86 1150.13,-358.07"/>
<polygon fill="black" stroke="black" points="1149.21,-354.68 1140.12,-360.11 1150.62,-361.54 1149.21,-354.68"/>
<text text-anchor="start" x="1506" y="-346.36" font-family="arial" font-size="14.00" fill="#377eb8">true</text>
</g>
<!-- st0134&#45;&gt;st0234 -->
<g id="edge66" class="edge">
<title>st0134&#45;&gt;st0234</title>
<path fill="none" stroke="black" d="M1932.43,-536.57C1868.25,-558.68 1770.6,-590.72 1684,-612.56 1454.24,-670.51 1392.67,-666.75 1158,-699.56 1079.08,-710.59 989.63,-724.01 924.1,-734.02"/>
<polygon fill="black" stroke="black" points="923.56,-730.56 914.2,-735.53 924.62,-737.48 923.56,-730.56"/>
<text text-anchor="start" x="1391" y="-673.36" font-family="arial" font-size="14.00" fill="#377eb8">true</text>
</g>
<!-- st0134&#45;&gt;st034 -->
<g id="edge64" class="edge">
<title>st0134&#45;&gt;st034</title>
<path fill="none" stroke="black" d="M1955.37,-486.44C1939.74,-479.35 1922.01,-472.51 1905,-468.56 1882.34,-463.3 1857.09,-461.12 1834.29,-460.45"/>
<polygon fill="black" stroke="black" points="1834.07,-456.95 1824,-460.25 1833.93,-463.94 1834.07,-456.95"/>
<text text-anchor="start" x="1867" y="-472.36" font-family="arial" font-size="14.00" fill="#377eb8">R&#39;</text>
</g>
<!-- st0134&#45;&gt;st0134 -->
<g id="edge68" class="edge">
<title>st0134&#45;&gt;st0134</title>
<path fill="none" stroke="black" d="M1984.2,-536.73C1983.32,-546.47 1989.92,-554.56 2004,-554.56 2012.8,-554.56 2018.68,-551.4 2021.63,-546.65"/>
<polygon fill="black" stroke="black" points="2025.08,-547.25 2023.8,-536.73 2018.24,-545.76 2025.08,-547.25"/>
<text text-anchor="start" x="1992" y="-558.36" font-family="arial" font-size="14.00" fill="#377eb8">true</text>
</g>
<!-- st0134&#45;&gt;st04 -->
<g id="edge63" class="edge">
<title>st0134&#45;&gt;st04</title>
<path fill="none" stroke="black" d="M2085.18,-520.96C2153.1,-528.93 2248.3,-540.1 2305.43,-546.8"/>
<polygon fill="black" stroke="black" points="2305.3,-550.31 2315.64,-548 2306.12,-543.36 2305.3,-550.31"/>
<text text-anchor="start" x="2165" y="-544.36" font-family="arial" font-size="14.00" fill="#377eb8">(R&#39; &amp;&amp; !T&#39;)</text>
</g>
<!-- st0134&#45;&gt;st014 -->
<g id="edge67" class="edge">
<title>st0134&#45;&gt;st014</title>
<path fill="none" stroke="black" d="M2064.72,-536.63C2083.87,-546.86 2103.99,-560.19 2119,-576.56 2153.9,-614.61 2175.34,-671.35 2186.33,-707.65"/>
<polygon fill="black" stroke="black" points="2182.99,-708.69 2189.16,-717.31 2189.71,-706.73 2182.99,-708.69"/>
<text text-anchor="start" x="2103" y="-580.36" font-family="arial" font-size="14.00" fill="#377eb8">!T&#39;</text>
</g>
<!-- st0134&#45;&gt;st0124 -->
<g id="edge69" class="edge">
<title>st0134&#45;&gt;st0124</title>
<path fill="none" stroke="black" d="M1966.95,-536.81C1951.47,-549.29 1934.36,-565.54 1923,-583.56 1907.93,-607.47 1924.72,-624.31 1905,-644.56 1904.32,-645.26 1720.38,-704.64 1606.69,-741.3"/>
<polygon fill="black" stroke="black" points="1605.38,-738.04 1596.94,-744.44 1607.53,-744.7 1605.38,-738.04"/>
<text text-anchor="start" x="1751" y="-712.36" font-family="arial" font-size="14.00" fill="#377eb8">true</text>
</g>
<!-- st0134&#45;&gt;st024 -->
<g id="edge65" class="edge">
<title>st0134&#45;&gt;st024</title>
<path fill="none" stroke="black" d="M1922.94,-517.27C1839.88,-526.82 1709.93,-552.36 1621,-620.56 1608.66,-630.02 1615.86,-641.82 1603,-650.56 1539.66,-693.59 1505.63,-654.3 1433,-678.56 1398.97,-689.92 1363.23,-708.48 1335.69,-724.42"/>
<polygon fill="black" stroke="black" points="1333.9,-721.41 1327.04,-729.49 1337.44,-727.45 1333.9,-721.41"/>
<text text-anchor="start" x="1640.5" y="-624.36" font-family="arial" font-size="14.00" fill="#377eb8">true</text>
</g>
<!-- st04&#45;&gt;st01234 -->
<g id="edge34" class="edge">
<title>st04&#45;&gt;st01234</title>
<path fill="none" stroke="black" d="M2353.4,-527.49C2349.64,-450.95 2335.46,-221.61 2298,-158.56 2269.53,-110.64 2253.23,-83.56 2197.5,-83.56 1872.5,-83.56 1872.5,-83.56 1872.5,-83.56 1722.98,-83.56 1334.2,-38.64 1200,-104.56 1152.63,-127.82 1094.62,-277.05 1069.98,-345.88"/>
<polygon fill="black" stroke="black" points="1066.64,-344.83 1066.6,-355.42 1073.24,-347.17 1066.64,-344.83"/>
<text text-anchor="start" x="1751" y="-86.36" font-family="arial" font-size="14.00" fill="#377eb8">true</text>
</g>
<!-- st04&#45;&gt;st04 -->
<g id="edge31" class="edge">
<title>st04&#45;&gt;st04</title>
<path fill="none" stroke="black" d="M2342.8,-577.73C2342.24,-587.47 2346.47,-595.56 2355.5,-595.56 2361.14,-595.56 2364.91,-592.4 2366.81,-587.65"/>
<polygon fill="black" stroke="black" points="2370.28,-588.12 2368.2,-577.73 2363.35,-587.15 2370.28,-588.12"/>
<text text-anchor="start" x="2343.5" y="-599.36" font-family="arial" font-size="14.00" fill="#377eb8">true</text>
</g>
<!-- st04&#45;&gt;st014 -->
<g id="edge32" class="edge">
<title>st04&#45;&gt;st014</title>
<path fill="none" stroke="black" d="M2333.82,-577.59C2305.91,-611.37 2256.12,-671.62 2225.06,-709.21"/>
<polygon fill="black" stroke="black" points="2222.02,-707.39 2218.35,-717.33 2227.42,-711.85 2222.02,-707.39"/>
<text text-anchor="start" x="2274" y="-651.36" font-family="arial" font-size="14.00" fill="#377eb8">true</text>
</g>
<!-- st04&#45;&gt;st0124 -->
<g id="edge33" class="edge">
<title>st04&#45;&gt;st0124</title>
<path fill="none" stroke="black" d="M2353.13,-577.66C2348.79,-630.27 2330.75,-751.95 2256,-809.56 2180.44,-867.78 1859.74,-892.15 1702,-856.56 1653.6,-845.64 1602.98,-820.34 1567.28,-799.82"/>
<polygon fill="black" stroke="black" points="1568.94,-796.74 1558.54,-794.72 1565.41,-802.79 1568.94,-796.74"/>
<text text-anchor="start" x="1992" y="-876.36" font-family="arial" font-size="14.00" fill="#377eb8">true</text>
</g>
<!-- st014&#45;&gt;st01234 -->
<g id="edge40" class="edge">
<title>st014&#45;&gt;st01234</title>
<path fill="none" stroke="black" d="M2185.18,-717.39C2170.56,-681.77 2142.92,-614.61 2119,-557.56 2104.06,-521.93 2109.6,-507.35 2085,-477.56 2029.75,-410.64 1973.59,-439.07 1923,-368.56 1905.27,-343.85 1926.14,-324.41 1905,-302.56 1796.04,-189.93 1349.79,-241.53 1200,-287.56 1160.05,-299.83 1120.78,-327.05 1093.7,-348.89"/>
<polygon fill="black" stroke="black" points="1091.2,-346.41 1085.7,-355.47 1095.65,-351.82 1091.2,-346.41"/>
<text text-anchor="start" x="1640.5" y="-240.36" font-family="arial" font-size="14.00" fill="#377eb8">true</text>
</g>
<!-- st014&#45;&gt;st0234 -->
<g id="edge37" class="edge">
<title>st014&#45;&gt;st0234</title>
<path fill="none" stroke="black" d="M2183.71,-767.79C2169.9,-798.61 2147.57,-852.68 2137,-901.56 2131.23,-928.24 2136.96,-1126.01 2119,-1146.56 2084.92,-1185.54 2056.78,-1170.56 2005,-1170.56 1651.5,-1170.56 1651.5,-1170.56 1651.5,-1170.56 1631.34,-1170.56 947.42,-1087.55 932,-1074.56 844.18,-1000.57 830.85,-851.99 829.58,-783.99"/>
<polygon fill="black" stroke="black" points="833.07,-783.76 829.46,-773.8 826.07,-783.84 833.07,-783.76"/>
<text text-anchor="start" x="1506" y="-1168.36" font-family="arial" font-size="14.00" fill="#377eb8">true</text>
</g>
<!-- st014&#45;&gt;st04 -->
<g id="edge35" class="edge">
<title>st014&#45;&gt;st04</title>
<path fill="none" stroke="black" d="M2207.14,-717.53C2219.36,-688.18 2242.66,-639.28 2274,-605.56 2283.53,-595.3 2295.44,-586.09 2307.14,-578.33"/>
<polygon fill="black" stroke="black" points="2309.04,-581.27 2315.59,-572.94 2305.28,-575.37 2309.04,-581.27"/>
<text text-anchor="start" x="2279.5" y="-609.36" font-family="arial" font-size="14.00" fill="#377eb8">R&#39;</text>
</g>
<!-- st014&#45;&gt;st014 -->
<g id="edge38" class="edge">
<title>st014&#45;&gt;st014</title>
<path fill="none" stroke="black" d="M2180.81,-767.73C2180.11,-777.47 2185.34,-785.56 2196.5,-785.56 2203.47,-785.56 2208.13,-782.4 2210.47,-777.65"/>
<polygon fill="black" stroke="black" points="2213.93,-778.18 2212.19,-767.73 2207.03,-776.99 2213.93,-778.18"/>
<text text-anchor="start" x="2184.5" y="-789.36" font-family="arial" font-size="14.00" fill="#377eb8">true</text>
</g>
<!-- st014&#45;&gt;st0124 -->
<g id="edge39" class="edge">
<title>st014&#45;&gt;st0124</title>
<path fill="none" stroke="black" d="M2136.96,-744.89C2019.73,-749.57 1755.29,-760.13 1613.32,-765.79"/>
<polygon fill="black" stroke="black" points="1613.16,-762.3 1603.31,-766.19 1613.44,-769.29 1613.16,-762.3"/>
<text text-anchor="start" x="1861.5" y="-759.36" font-family="arial" font-size="14.00" fill="#377eb8">true</text>
</g>
<!-- st014&#45;&gt;st024 -->
<g id="edge36" class="edge">
<title>st014&#45;&gt;st024</title>
<path fill="none" stroke="black" d="M2138.24,-767.71C2131.8,-770.17 2125.3,-772.51 2119,-774.56 2104.23,-779.35 2100.3,-779.91 2085,-782.56 1941.89,-807.32 1573.49,-873.42 1433,-836.56 1395,-826.59 1356.47,-804.2 1328.61,-785.34"/>
<polygon fill="black" stroke="black" points="1330.54,-782.41 1320.32,-779.61 1326.56,-788.18 1330.54,-782.41"/>
<text text-anchor="start" x="1751" y="-841.36" font-family="arial" font-size="14.00" fill="#377eb8">true</text>
</g>
<!-- st0124&#45;&gt;st01234 -->
<g id="edge56" class="edge">
<title>st0124&#45;&gt;st01234</title>
<path fill="none" stroke="black" d="M1494.84,-744.13C1476.27,-721.78 1450.12,-687.74 1433,-654.56 1421.4,-632.08 1427.81,-622.37 1415,-600.56 1352.03,-493.3 1291.11,-505.26 1182,-445.56 1160.55,-433.82 1136.8,-421.27 1115.88,-410.35"/>
<polygon fill="black" stroke="black" points="1117.29,-407.14 1106.8,-405.63 1114.05,-413.35 1117.29,-407.14"/>
<text text-anchor="start" x="1274.5" y="-548.36" font-family="arial" font-size="14.00" fill="#377eb8">true</text>
</g>
<!-- st0124&#45;&gt;st0234 -->
<g id="edge52" class="edge">
<title>st0124&#45;&gt;st0234</title>
<path fill="none" stroke="black" d="M1461.81,-794.57C1435.51,-805.16 1403.24,-816.27 1373,-821.56 1212.64,-849.63 1023.98,-807.53 916.55,-776.55"/>
<polygon fill="black" stroke="black" points="917.31,-773.12 906.73,-773.68 915.35,-779.84 917.31,-773.12"/>
<text text-anchor="start" x="1158" y="-830.36" font-family="arial" font-size="14.00" fill="#377eb8">true</text>
</g>
<!-- st0124&#45;&gt;st034 -->
<g id="edge50" class="edge">
<title>st0124&#45;&gt;st034</title>
<path fill="none" stroke="black" d="M1550.72,-744.29C1570.19,-729.59 1596.11,-711.49 1621,-698.56 1647.45,-684.82 1662.91,-696.62 1684,-675.56 1709.65,-649.93 1738.75,-550.98 1753.07,-497.43"/>
<polygon fill="black" stroke="black" points="1756.48,-498.24 1755.65,-487.68 1749.71,-496.45 1756.48,-498.24"/>
<text text-anchor="start" x="1646" y="-702.36" font-family="arial" font-size="14.00" fill="#377eb8">R&#39;</text>
</g>
<!-- st0124&#45;&gt;st0134 -->
<g id="edge54" class="edge">
<title>st0124&#45;&gt;st0134</title>
<path fill="none" stroke="black" d="M1603.12,-754.66C1629.11,-749.81 1657.79,-744.22 1684,-738.56 1782.83,-717.22 1835.8,-758.28 1905,-684.56 1936.21,-651.31 1900.85,-623.41 1923,-583.56 1931.57,-568.13 1944.71,-554.28 1957.88,-542.95"/>
<polygon fill="black" stroke="black" points="1960.12,-545.64 1965.6,-536.58 1955.66,-540.25 1960.12,-545.64"/>
<text text-anchor="start" x="1751" y="-738.36" font-family="arial" font-size="14.00" fill="#377eb8">true</text>
</g>
<!-- st0124&#45;&gt;st04 -->
<g id="edge49" class="edge">
<title>st0124&#45;&gt;st04</title>
<path fill="none" stroke="black" d="M1543.74,-794.82C1563.2,-813.42 1591.83,-838.06 1621,-853.56 1803.71,-950.66 1880.02,-919.78 2085,-891.56 2188.6,-877.29 2251.97,-885.46 2298,-791.56 2331.06,-724.11 2345.38,-636.31 2351.09,-588.11"/>
<polygon fill="black" stroke="black" points="2354.6,-588.2 2352.24,-577.87 2347.64,-587.42 2354.6,-588.2"/>
<text text-anchor="start" x="1972.5" y="-918.36" font-family="arial" font-size="14.00" fill="#377eb8">(R&#39; &amp;&amp; !T&#39;)</text>
</g>
<!-- st0124&#45;&gt;st014 -->
<g id="edge53" class="edge">
<title>st0124&#45;&gt;st014</title>
<path fill="none" stroke="black" d="M1603.02,-776.67C1609.1,-777.03 1615.14,-777.33 1621,-777.56 1648.98,-778.65 1656,-777.75 1684,-777.56 1862.33,-776.35 1907.38,-779.42 2085,-763.56 2100.16,-762.2 2104,-762.1 2119,-759.56 2121.52,-759.13 2124.09,-758.67 2126.68,-758.19"/>
<polygon fill="black" stroke="black" points="2127.58,-761.59 2136.73,-756.25 2126.25,-754.71 2127.58,-761.59"/>
<text text-anchor="start" x="1865.5" y="-780.36" font-family="arial" font-size="14.00" fill="#377eb8">!T&#39;</text>
</g>
<!-- st0124&#45;&gt;st0124 -->
<g id="edge55" class="edge">
<title>st0124&#45;&gt;st0124</title>
<path fill="none" stroke="black" d="M1496.71,-794.73C1495.76,-804.47 1502.86,-812.56 1518,-812.56 1527.46,-812.56 1533.78,-809.4 1536.96,-804.65"/>
<polygon fill="black" stroke="black" points="1540.41,-805.27 1539.29,-794.73 1533.6,-803.67 1540.41,-805.27"/>
<text text-anchor="start" x="1506" y="-816.36" font-family="arial" font-size="14.00" fill="#377eb8">true</text>
</g>
<!-- st0124&#45;&gt;st024 -->
<g id="edge51" class="edge">
<title>st0124&#45;&gt;st024</title>
<path fill="none" stroke="black" d="M1432.73,-759.02C1426.74,-758.46 1420.78,-757.97 1415,-757.56 1404.79,-756.84 1394.11,-756.28 1383.46,-755.85"/>
<polygon fill="black" stroke="black" points="1383.4,-752.35 1373.28,-755.48 1383.15,-759.34 1383.4,-752.35"/>
<text text-anchor="start" x="1391" y="-761.36" font-family="arial" font-size="14.00" fill="#377eb8">true</text>
</g>
<!-- st024&#45;&gt;st01234 -->
<g id="edge48" class="edge">
<title>st024&#45;&gt;st01234</title>
<path fill="none" stroke="black" d="M1254.16,-729.5C1235.18,-712.46 1212.33,-688.23 1200,-661.56 1172.56,-602.21 1209.42,-574.91 1182,-515.56 1162.97,-474.36 1126.67,-437.18 1098.24,-412.31"/>
<polygon fill="black" stroke="black" points="1100.32,-409.49 1090.45,-405.63 1095.76,-414.8 1100.32,-409.49"/>
<text text-anchor="start" x="1158" y="-519.36" font-family="arial" font-size="14.00" fill="#377eb8">true</text>
</g>
<!-- st024&#45;&gt;st0234 -->
<g id="edge44" class="edge">
<title>st024&#45;&gt;st0234</title>
<path fill="none" stroke="black" d="M1199.8,-763.49C1180.17,-765.19 1159.38,-766.69 1140,-767.56 1066.3,-770.84 1047.65,-771.93 974,-767.56 955.23,-766.44 950.65,-764.95 932,-762.56 929.44,-762.23 926.84,-761.89 924.23,-761.55"/>
<polygon fill="black" stroke="black" points="924.4,-758.05 914.03,-760.21 923.49,-764.99 924.4,-758.05"/>
<text text-anchor="start" x="1045" y="-773.36" font-family="arial" font-size="14.00" fill="#377eb8">true</text>
</g>
<!-- st024&#45;&gt;st034 -->
<g id="edge42" class="edge">
<title>st024&#45;&gt;st034</title>
<path fill="none" stroke="black" d="M1316.05,-729.36C1336.6,-711.46 1365.12,-687.07 1391,-666.56 1409.18,-652.15 1413.19,-647.63 1433,-635.56 1504.96,-591.7 1530.01,-593.69 1603,-551.56 1611.33,-546.75 1612.58,-544.19 1621,-539.56 1647.84,-524.78 1656.96,-525.97 1684,-511.56 1694.59,-505.92 1705.66,-499.38 1716.04,-492.95"/>
<polygon fill="black" stroke="black" points="1717.95,-495.88 1724.56,-487.59 1714.23,-489.95 1717.95,-495.88"/>
<text text-anchor="start" x="1511.5" y="-639.36" font-family="arial" font-size="14.00" fill="#377eb8">R&#39;</text>
</g>
<!-- st024&#45;&gt;st0134 -->
<g id="edge46" class="edge">
<title>st024&#45;&gt;st0134</title>
<path fill="none" stroke="black" d="M1373.1,-740.28C1452.9,-725.85 1565.13,-702.34 1603,-678.56 1613.7,-671.84 1610.23,-663.16 1621,-656.56 1648.54,-639.68 1877.07,-610.79 1905,-594.56 1915.34,-588.55 1914.27,-582.73 1923,-574.56 1934.64,-563.66 1948.02,-552.61 1960.46,-542.88"/>
<polygon fill="black" stroke="black" points="1962.7,-545.57 1968.47,-536.69 1958.42,-540.03 1962.7,-545.57"/>
<text text-anchor="start" x="1640.5" y="-660.36" font-family="arial" font-size="14.00" fill="#377eb8">true</text>
</g>
<!-- st024&#45;&gt;st04 -->
<g id="edge41" class="edge">
<title>st024&#45;&gt;st04</title>
<path fill="none" stroke="black" d="M1303.09,-779.75C1327.15,-816.95 1376.47,-886.96 1433,-931.56 1663.49,-1113.4 1820.11,-1164.15 2085,-1037.56 2206.08,-979.69 2243.25,-946.07 2298,-823.56 2333.59,-743.92 2347.11,-640.99 2351.97,-587.82"/>
<polygon fill="black" stroke="black" points="2355.48,-587.83 2352.86,-577.57 2348.51,-587.23 2355.48,-587.83"/>
<text text-anchor="start" x="1842" y="-1110.36" font-family="arial" font-size="14.00" fill="#377eb8">(R&#39; &amp;&amp; !T&#39;)</text>
</g>
<!-- st024&#45;&gt;st014 -->
<g id="edge45" class="edge">
<title>st024&#45;&gt;st014</title>
<path fill="none" stroke="black" d="M1316.08,-779.87C1336.39,-797.4 1364.64,-820.85 1391,-839.56 1403.2,-848.22 1606.69,-975.19 1621,-979.56 1818.31,-1039.85 1912.2,-1106.29 2085,-993.56 2159.14,-945.19 2183.88,-834.68 2191.86,-777.81"/>
<polygon fill="black" stroke="black" points="2195.34,-778.21 2193.16,-767.84 2188.4,-777.3 2195.34,-778.21"/>
<text text-anchor="start" x="1755" y="-1047.36" font-family="arial" font-size="14.00" fill="#377eb8">!T&#39;</text>
</g>
<!-- st024&#45;&gt;st0124 -->
<g id="edge47" class="edge">
<title>st024&#45;&gt;st0124</title>
<path fill="none" stroke="black" d="M1373.12,-774.2C1379.15,-775.14 1385.15,-775.94 1391,-776.56 1401.24,-777.63 1411.96,-778.08 1422.65,-778.09"/>
<polygon fill="black" stroke="black" points="1422.91,-781.59 1432.87,-777.97 1422.83,-774.59 1422.91,-781.59"/>
<text text-anchor="start" x="1391" y="-781.36" font-family="arial" font-size="14.00" fill="#377eb8">true</text>
</g>
<!-- st024&#45;&gt;st024 -->
<g id="edge43" class="edge">
<title>st024&#45;&gt;st024</title>
<path fill="none" stroke="black" d="M1264.83,-779.73C1263.87,-789.47 1271.09,-797.56 1286.5,-797.56 1296.13,-797.56 1302.56,-794.4 1305.8,-789.65"/>
<polygon fill="black" stroke="black" points="1309.25,-790.27 1308.17,-779.73 1302.44,-788.65 1309.25,-790.27"/>
<text text-anchor="start" x="1274.5" y="-801.36" font-family="arial" font-size="14.00" fill="#377eb8">true</text>
</g>
</g>
</svg>
