<?xml version="1.0" encoding="UTF-8" standalone="no"?>
<!DOCTYPE svg PUBLIC "-//W3C//DTD SVG 1.1//EN"
 "http://www.w3.org/Graphics/SVG/1.1/DTD/svg11.dtd">
<!-- Generated by graphviz version 2.43.0 (0)
 -->
<!-- Title: G Pages: 1 -->
<svg width="885pt" height="302pt"
 viewBox="0.00 0.00 885.00 301.80" xmlns="http://www.w3.org/2000/svg" xmlns:xlink="http://www.w3.org/1999/xlink">
<g id="graph0" class="graph" transform="scale(1 1) rotate(0) translate(4 297.8)">
<title>G</title>
<polygon fill="white" stroke="transparent" points="-4,4 -4,-297.8 881,-297.8 881,4 -4,4"/>
<!-- _st0 -->
<!-- st0 -->
<g id="node2" class="node">
<title>st0</title>
<polygon fill="none" stroke="black" points="145,-204.8 91,-204.8 91,-154.8 145,-154.8 145,-204.8"/>
<text text-anchor="start" x="108" y="-190.6" font-family="arial" font-weight="bold" font-size="14.00">st0</text>
<text text-anchor="start" x="110" y="-176.6" font-family="arial" font-size="14.00" fill="#984ea3">!Q</text>
<text text-anchor="start" x="106" y="-162.6" font-family="arial" font-size="14.00" fill="#ff7f00">true</text>
</g>
<!-- _st0&#45;&gt;st0 -->
<g id="edge1" class="edge">
<title>_st0&#45;&gt;st0</title>
<path fill="none" stroke="black" d="M54.22,-179.8C62.55,-179.8 71.91,-179.8 80.82,-179.8"/>
<polygon fill="black" stroke="black" points="80.97,-183.3 90.97,-179.8 80.97,-176.3 80.97,-183.3"/>
</g>
<!-- st0&#45;&gt;st0 -->
<g id="edge4" class="edge">
<title>st0&#45;&gt;st0</title>
<path fill="none" stroke="black" d="M109.78,-204.98C109.42,-214.71 112.16,-222.8 118,-222.8 121.56,-222.8 123.97,-219.8 125.22,-215.25"/>
<polygon fill="black" stroke="black" points="128.74,-215.27 126.22,-204.98 121.77,-214.59 128.74,-215.27"/>
<text text-anchor="start" x="106" y="-226.6" font-family="arial" font-size="14.00" fill="#377eb8">true</text>
</g>
<!-- st01 -->
<g id="node4" class="node">
<title>st01</title>
<polygon fill="none" stroke="black" points="335,-106.8 230,-106.8 230,-56.8 335,-56.8 335,-106.8"/>
<text text-anchor="start" x="268.5" y="-92.6" font-family="arial" font-weight="bold" font-size="14.00">st01</text>
<text text-anchor="start" x="238" y="-78.6" font-family="arial" font-size="14.00" fill="#984ea3">(Q &amp;&amp; (R || S))</text>
<text text-anchor="start" x="270.5" y="-64.6" font-family="arial" font-size="14.00" fill="#ff7f00">true</text>
</g>
<!-- st0&#45;&gt;st01 -->
<g id="edge5" class="edge">
<title>st0&#45;&gt;st01</title>
<path fill="none" stroke="black" d="M129.81,-154.76C137.19,-140.47 148.31,-123.36 163,-112.8 179.55,-100.92 200.31,-93.59 219.8,-89.07"/>
<polygon fill="black" stroke="black" points="220.79,-92.44 229.86,-86.95 219.35,-85.59 220.79,-92.44"/>
<text text-anchor="start" x="175.5" y="-116.6" font-family="arial" font-size="14.00" fill="#377eb8">true</text>
</g>
<!-- st012 -->
<g id="node6" class="node">
<title>st012</title>
<polygon fill="none" stroke="black" points="877,-169.8 706,-169.8 706,-119.8 877,-119.8 877,-169.8"/>
<text text-anchor="start" x="774" y="-155.6" font-family="arial" font-weight="bold" font-size="14.00">st012</text>
<text text-anchor="start" x="714" y="-141.6" font-family="arial" font-size="14.00" fill="#984ea3">(Q &amp;&amp; (!R &amp;&amp; (!S &amp;&amp; !U)))</text>
<text text-anchor="start" x="779.5" y="-127.6" font-family="arial" font-size="14.00" fill="#ff7f00">true</text>
</g>
<!-- st0&#45;&gt;st012 -->
<g id="edge6" class="edge">
<title>st0&#45;&gt;st012</title>
<path fill="none" stroke="black" d="M145.04,-188.45C222.7,-212.91 458.92,-277.71 646,-227.8 684,-217.67 722.39,-194.89 750.04,-175.76"/>
<polygon fill="black" stroke="black" points="752.11,-178.58 758.26,-169.96 748.07,-172.86 752.11,-178.58"/>
<text text-anchor="start" x="391" y="-248.6" font-family="arial" font-size="14.00" fill="#377eb8">true</text>
</g>
<!-- _st01 -->
<!-- _st01&#45;&gt;st01 -->
<g id="edge2" class="edge">
<title>_st01&#45;&gt;st01</title>
<path fill="none" stroke="black" d="M145.11,-79.28C165.23,-79.66 193.88,-80.19 219.74,-80.66"/>
<polygon fill="black" stroke="black" points="219.8,-84.16 229.86,-80.85 219.93,-77.17 219.8,-84.16"/>
</g>
<!-- st01&#45;&gt;st0 -->
<g id="edge7" class="edge">
<title>st01&#45;&gt;st0</title>
<path fill="none" stroke="black" d="M245.69,-106.94C235.05,-114.01 223.23,-121.5 212,-127.8 191.02,-139.58 183.99,-139.04 163,-150.8 159.95,-152.51 156.84,-154.35 153.74,-156.25"/>
<polygon fill="black" stroke="black" points="151.72,-153.39 145.14,-161.69 155.46,-159.3 151.72,-153.39"/>
<text text-anchor="start" x="163" y="-154.6" font-family="arial" font-size="14.00" fill="#377eb8">(R&#39; || S&#39;)</text>
</g>
<!-- st01&#45;&gt;st01 -->
<g id="edge9" class="edge">
<title>st01&#45;&gt;st01</title>
<path fill="none" stroke="black" d="M264.94,-106.98C264.16,-116.71 270.02,-124.8 282.5,-124.8 290.3,-124.8 295.51,-121.64 298.14,-116.9"/>
<polygon fill="black" stroke="black" points="301.59,-117.46 300.06,-106.98 294.72,-116.13 301.59,-117.46"/>
<text text-anchor="start" x="270.5" y="-128.6" font-family="arial" font-size="14.00" fill="#377eb8">true</text>
</g>
<!-- st01&#45;&gt;st012 -->
<g id="edge10" class="edge">
<title>st01&#45;&gt;st012</title>
<path fill="none" stroke="black" d="M335.03,-67.82C406.32,-50.83 538.44,-27.92 646,-57.8 685.12,-68.67 724.25,-93.29 751.91,-113.57"/>
<polygon fill="black" stroke="black" points="750.01,-116.52 760.11,-119.71 754.2,-110.92 750.01,-116.52"/>
<text text-anchor="start" x="546.5" y="-61.6" font-family="arial" font-size="14.00" fill="#377eb8">true</text>
</g>
<!-- st02 -->
<g id="node7" class="node">
<title>st02</title>
<polygon fill="none" stroke="black" points="646,-131.8 471,-131.8 471,-81.8 646,-81.8 646,-131.8"/>
<text text-anchor="start" x="544.5" y="-117.6" font-family="arial" font-weight="bold" font-size="14.00">st02</text>
<text text-anchor="start" x="479" y="-103.6" font-family="arial" font-size="14.00" fill="#984ea3">(!Q &amp;&amp; (!R &amp;&amp; (!S &amp;&amp; !U)))</text>
<text text-anchor="start" x="546.5" y="-89.6" font-family="arial" font-size="14.00" fill="#ff7f00">true</text>
</g>
<!-- st01&#45;&gt;st02 -->
<g id="edge8" class="edge">
<title>st01&#45;&gt;st02</title>
<path fill="none" stroke="black" d="M335.23,-79.17C368.89,-78.18 413.69,-78.23 453,-82.8 455.55,-83.1 458.12,-83.43 460.72,-83.8"/>
<polygon fill="black" stroke="black" points="460.38,-87.29 470.79,-85.37 461.45,-80.37 460.38,-87.29"/>
<text text-anchor="start" x="391" y="-86.6" font-family="arial" font-size="14.00" fill="#377eb8">true</text>
</g>
<!-- _st012 -->
<!-- _st012&#45;&gt;st012 -->
<g id="edge3" class="edge">
<title>_st012&#45;&gt;st012</title>
<path fill="none" stroke="black" d="M587.36,-194.05C614.36,-187.5 656.84,-177.21 695.99,-167.71"/>
<polygon fill="black" stroke="black" points="696.97,-171.08 705.86,-165.32 695.32,-164.28 696.97,-171.08"/>
</g>
<!-- st012&#45;&gt;st0 -->
<g id="edge15" class="edge">
<title>st012&#45;&gt;st0</title>
<path fill="none" stroke="black" d="M768.02,-170.1C741.91,-197.13 696,-237.86 646,-250.8 466.89,-297.16 408.8,-283.35 230,-235.8 199.84,-227.78 190.57,-229.43 163,-214.8 159.89,-213.15 156.78,-211.27 153.73,-209.26"/>
<polygon fill="black" stroke="black" points="155.55,-206.25 145.37,-203.31 151.49,-211.96 155.55,-206.25"/>
<text text-anchor="start" x="353" y="-282.6" font-family="arial" font-size="14.00" fill="#377eb8">(R&#39; || (S&#39; &amp;&amp; !U&#39;))</text>
</g>
<!-- st012&#45;&gt;st01 -->
<g id="edge17" class="edge">
<title>st012&#45;&gt;st01</title>
<path fill="none" stroke="black" d="M770.19,-119.65C744.75,-90.37 698.14,-43.63 646,-24.8 523.26,19.52 476.45,-1.52 353,-43.8 346.44,-46.05 339.78,-48.88 333.3,-51.99"/>
<polygon fill="black" stroke="black" points="331.32,-49.06 323.97,-56.69 334.47,-55.31 331.32,-49.06"/>
<text text-anchor="start" x="531.5" y="-28.6" font-family="arial" font-size="14.00" fill="#377eb8">(R&#39; || !U&#39;)</text>
</g>
<!-- st012&#45;&gt;st012 -->
<g id="edge18" class="edge">
<title>st012&#45;&gt;st012</title>
<path fill="none" stroke="black" d="M770.21,-169.98C769.26,-179.71 776.36,-187.8 791.5,-187.8 800.96,-187.8 807.28,-184.64 810.46,-179.9"/>
<polygon fill="black" stroke="black" points="813.91,-180.51 812.79,-169.98 807.1,-178.91 813.91,-180.51"/>
<text text-anchor="start" x="779.5" y="-191.6" font-family="arial" font-size="14.00" fill="#377eb8">true</text>
</g>
<!-- st012&#45;&gt;st02 -->
<g id="edge16" class="edge">
<title>st012&#45;&gt;st02</title>
<path fill="none" stroke="black" d="M705.64,-130.84C689.59,-128.2 672.69,-125.42 656.3,-122.73"/>
<polygon fill="black" stroke="black" points="656.61,-119.23 646.17,-121.06 655.47,-126.14 656.61,-119.23"/>
<text text-anchor="start" x="664" y="-131.6" font-family="arial" font-size="14.00" fill="#377eb8">true</text>
</g>
<!-- st02&#45;&gt;st0 -->
<g id="edge11" class="edge">
<title>st02&#45;&gt;st0</title>
<path fill="none" stroke="black" d="M470.75,-124.1C429.67,-132.05 379.89,-141.35 335,-148.8 271.99,-159.27 198.29,-169.39 155.31,-175.09"/>
<polygon fill="black" stroke="black" points="154.78,-171.63 145.32,-176.4 155.7,-178.57 154.78,-171.63"/>
<text text-anchor="start" x="232.5" y="-168.6" font-family="arial" font-size="14.00" fill="#377eb8">(R&#39; || (S&#39; &amp;&amp; !U&#39;))</text>
</g>
<!-- st02&#45;&gt;st01 -->
<g id="edge13" class="edge">
<title>st02&#45;&gt;st01</title>
<path fill="none" stroke="black" d="M470.87,-106.48C434.35,-105.44 391.47,-103.03 353,-97.8 350.48,-97.46 347.91,-97.07 345.33,-96.64"/>
<polygon fill="black" stroke="black" points="345.77,-93.16 335.3,-94.82 344.51,-100.05 345.77,-93.16"/>
<text text-anchor="start" x="376" y="-109.6" font-family="arial" font-size="14.00" fill="#377eb8">(R&#39; || !U&#39;)</text>
</g>
<!-- st02&#45;&gt;st012 -->
<g id="edge14" class="edge">
<title>st02&#45;&gt;st012</title>
<path fill="none" stroke="black" d="M646.27,-103.49C660.3,-104.09 674.6,-105.41 688,-107.8 699.23,-109.81 710.87,-112.93 722.09,-116.52"/>
<polygon fill="black" stroke="black" points="721.22,-119.92 731.82,-119.78 723.45,-113.29 721.22,-119.92"/>
<text text-anchor="start" x="664" y="-111.6" font-family="arial" font-size="14.00" fill="#377eb8">true</text>
</g>
<!-- st02&#45;&gt;st02 -->
<g id="edge12" class="edge">
<title>st02&#45;&gt;st02</title>
<path fill="none" stroke="black" d="M536.83,-131.98C535.87,-141.71 543.09,-149.8 558.5,-149.8 568.13,-149.8 574.56,-146.64 577.8,-141.9"/>
<polygon fill="black" stroke="black" points="581.25,-142.52 580.17,-131.98 574.44,-140.89 581.25,-142.52"/>
<text text-anchor="start" x="546.5" y="-153.6" font-family="arial" font-size="14.00" fill="#377eb8">true</text>
</g>
</g>
</svg>
