<?xml version="1.0" encoding="UTF-8" standalone="no"?>
<!DOCTYPE svg PUBLIC "-//W3C//DTD SVG 1.1//EN"
 "http://www.w3.org/Graphics/SVG/1.1/DTD/svg11.dtd">
<!-- Generated by graphviz version 2.43.0 (0)
 -->
<!-- Title: G Pages: 1 -->
<svg width="1014pt" height="284pt"
 viewBox="0.00 0.00 1014.00 284.25" xmlns="http://www.w3.org/2000/svg" xmlns:xlink="http://www.w3.org/1999/xlink">
<g id="graph0" class="graph" transform="scale(1 1) rotate(0) translate(4 280.25)">
<title>G</title>
<polygon fill="white" stroke="transparent" points="-4,4 -4,-280.25 1010,-280.25 1010,4 -4,4"/>
<!-- _ID_91_ct1_st0 -->
<!-- ID_91_ct1_st0 -->
<g id="node2" class="node">
<title>ID_91_ct1_st0</title>
<polygon fill="none" stroke="black" points="261,-204.25 154,-204.25 154,-154.25 261,-154.25 261,-204.25"/>
<text text-anchor="start" x="162" y="-190.05" font-family="arial" font-weight="bold" font-size="14.00">ID_91_ct1_st0</text>
<text text-anchor="start" x="199.5" y="-176.05" font-family="arial" font-size="14.00" fill="#984ea3">!Q</text>
<text text-anchor="start" x="195.5" y="-162.05" font-family="arial" font-size="14.00" fill="#ff7f00">true</text>
</g>
<!-- _ID_91_ct1_st0&#45;&gt;ID_91_ct1_st0 -->
<g id="edge1" class="edge">
<title>_ID_91_ct1_st0&#45;&gt;ID_91_ct1_st0</title>
<path fill="none" stroke="black" d="M111.08,-179.25C121.62,-179.25 132.74,-179.25 143.52,-179.25"/>
<polygon fill="black" stroke="black" points="143.72,-182.75 153.72,-179.25 143.72,-175.75 143.72,-182.75"/>
</g>
<!-- ID_91_ct1_st0&#45;&gt;ID_91_ct1_st0 -->
<g id="edge4" class="edge">
<title>ID_91_ct1_st0&#45;&gt;ID_91_ct1_st0</title>
<path fill="none" stroke="black" d="M192.93,-204.43C192.28,-214.16 197.14,-222.25 207.5,-222.25 213.97,-222.25 218.3,-219.09 220.47,-214.34"/>
<polygon fill="black" stroke="black" points="223.94,-214.86 222.07,-204.43 217.03,-213.75 223.94,-214.86"/>
<text text-anchor="start" x="195.5" y="-226.05" font-family="arial" font-size="14.00" fill="#377eb8">true</text>
</g>
<!-- ID_91_ct1_st01 -->
<g id="node4" class="node">
<title>ID_91_ct1_st01</title>
<polygon fill="none" stroke="black" points="466,-106.25 352,-106.25 352,-56.25 466,-56.25 466,-106.25"/>
<text text-anchor="start" x="360" y="-92.05" font-family="arial" font-weight="bold" font-size="14.00">ID_91_ct1_st01</text>
<text text-anchor="start" x="365" y="-78.05" font-family="arial" font-size="14.00" fill="#984ea3">(Q &amp;&amp; (R || T))</text>
<text text-anchor="start" x="397" y="-64.05" font-family="arial" font-size="14.00" fill="#ff7f00">true</text>
</g>
<!-- ID_91_ct1_st0&#45;&gt;ID_91_ct1_st01 -->
<g id="edge5" class="edge">
<title>ID_91_ct1_st0&#45;&gt;ID_91_ct1_st01</title>
<path fill="none" stroke="black" d="M231.41,-153.95C245.56,-139.76 264.83,-122.83 285,-112.25 302.52,-103.06 322.89,-96.5 341.96,-91.86"/>
<polygon fill="black" stroke="black" points="342.82,-95.25 351.78,-89.61 341.25,-88.43 342.82,-95.25"/>
<text text-anchor="start" x="297.5" y="-116.05" font-family="arial" font-size="14.00" fill="#377eb8">true</text>
</g>
<!-- ID_91_ct1_st012 -->
<g id="node6" class="node">
<title>ID_91_ct1_st012</title>
<polygon fill="none" stroke="black" points="1006,-169.25 836,-169.25 836,-119.25 1006,-119.25 1006,-169.25"/>
<text text-anchor="start" x="868" y="-155.05" font-family="arial" font-weight="bold" font-size="14.00">ID_91_ct1_st012</text>
<text text-anchor="start" x="844" y="-141.05" font-family="arial" font-size="14.00" fill="#984ea3">(Q &amp;&amp; (!R &amp;&amp; (!T &amp;&amp; !U)))</text>
<text text-anchor="start" x="909" y="-127.05" font-family="arial" font-size="14.00" fill="#ff7f00">true</text>
</g>
<!-- ID_91_ct1_st0&#45;&gt;ID_91_ct1_st012 -->
<g id="edge6" class="edge">
<title>ID_91_ct1_st0&#45;&gt;ID_91_ct1_st012</title>
<path fill="none" stroke="black" d="M261.17,-188.28C382.7,-208.37 679.65,-253.03 776,-227.25 813.89,-217.11 852.15,-194.34 879.69,-175.21"/>
<polygon fill="black" stroke="black" points="881.75,-178.04 887.89,-169.4 877.7,-172.33 881.75,-178.04"/>
<text text-anchor="start" x="522" y="-233.05" font-family="arial" font-size="14.00" fill="#377eb8">true</text>
</g>
<!-- _ID_91_ct1_st01 -->
<!-- _ID_91_ct1_st01&#45;&gt;ID_91_ct1_st01 -->
<g id="edge2" class="edge">
<title>_ID_91_ct1_st01&#45;&gt;ID_91_ct1_st01</title>
<path fill="none" stroke="black" d="M267.01,-79.13C290.45,-79.48 317.58,-79.89 341.74,-80.25"/>
<polygon fill="black" stroke="black" points="341.84,-83.76 351.89,-80.41 341.95,-76.76 341.84,-83.76"/>
</g>
<!-- ID_91_ct1_st01&#45;&gt;ID_91_ct1_st0 -->
<g id="edge7" class="edge">
<title>ID_91_ct1_st01&#45;&gt;ID_91_ct1_st0</title>
<path fill="none" stroke="black" d="M370.28,-106.35C358.85,-113.5 346.11,-121.03 334,-127.25 313.9,-137.58 291.26,-147.46 270.8,-155.78"/>
<polygon fill="black" stroke="black" points="269.24,-152.64 261.27,-159.61 271.85,-159.13 269.24,-152.64"/>
<text text-anchor="start" x="285" y="-152.05" font-family="arial" font-size="14.00" fill="#377eb8">(R&#39; || T&#39;)</text>
</g>
<!-- ID_91_ct1_st01&#45;&gt;ID_91_ct1_st01 -->
<g id="edge9" class="edge">
<title>ID_91_ct1_st01&#45;&gt;ID_91_ct1_st01</title>
<path fill="none" stroke="black" d="M390.7,-106.43C389.88,-116.16 395.98,-124.25 409,-124.25 417.13,-124.25 422.57,-121.09 425.3,-116.34"/>
<polygon fill="black" stroke="black" points="428.76,-116.92 427.3,-106.43 421.89,-115.54 428.76,-116.92"/>
<text text-anchor="start" x="397" y="-128.05" font-family="arial" font-size="14.00" fill="#377eb8">true</text>
</g>
<!-- ID_91_ct1_st01&#45;&gt;ID_91_ct1_st012 -->
<g id="edge10" class="edge">
<title>ID_91_ct1_st01&#45;&gt;ID_91_ct1_st012</title>
<path fill="none" stroke="black" d="M466.06,-66.21C538.92,-49.22 669.42,-27.55 776,-57.25 815.01,-68.12 854.01,-92.74 881.56,-113.02"/>
<polygon fill="black" stroke="black" points="879.63,-115.95 889.73,-119.16 883.84,-110.35 879.63,-115.95"/>
<text text-anchor="start" x="677" y="-61.05" font-family="arial" font-size="14.00" fill="#377eb8">true</text>
</g>
<!-- ID_91_ct1_st02 -->
<g id="node7" class="node">
<title>ID_91_ct1_st02</title>
<polygon fill="none" stroke="black" points="776,-131.25 602,-131.25 602,-81.25 776,-81.25 776,-131.25"/>
<text text-anchor="start" x="640" y="-117.05" font-family="arial" font-weight="bold" font-size="14.00">ID_91_ct1_st02</text>
<text text-anchor="start" x="610" y="-103.05" font-family="arial" font-size="14.00" fill="#984ea3">(!Q &amp;&amp; (!R &amp;&amp; (!T &amp;&amp; !U)))</text>
<text text-anchor="start" x="677" y="-89.05" font-family="arial" font-size="14.00" fill="#ff7f00">true</text>
</g>
<!-- ID_91_ct1_st01&#45;&gt;ID_91_ct1_st02 -->
<g id="edge8" class="edge">
<title>ID_91_ct1_st01&#45;&gt;ID_91_ct1_st02</title>
<path fill="none" stroke="black" d="M466.22,-78.44C500.39,-77.51 544.84,-77.68 584,-82.25 586.67,-82.56 589.37,-82.92 592.09,-83.31"/>
<polygon fill="black" stroke="black" points="591.57,-86.77 602,-84.86 592.66,-79.85 591.57,-86.77"/>
<text text-anchor="start" x="522" y="-86.05" font-family="arial" font-size="14.00" fill="#377eb8">true</text>
</g>
<!-- _ID_91_ct1_st012 -->
<!-- _ID_91_ct1_st012&#45;&gt;ID_91_ct1_st012 -->
<g id="edge3" class="edge">
<title>_ID_91_ct1_st012&#45;&gt;ID_91_ct1_st012</title>
<path fill="none" stroke="black" d="M752.24,-185.1C774.91,-179.58 801.07,-173.21 825.88,-167.17"/>
<polygon fill="black" stroke="black" points="826.8,-170.55 835.68,-164.78 825.14,-163.75 826.8,-170.55"/>
</g>
<!-- ID_91_ct1_st012&#45;&gt;ID_91_ct1_st0 -->
<g id="edge15" class="edge">
<title>ID_91_ct1_st012&#45;&gt;ID_91_ct1_st0</title>
<path fill="none" stroke="black" d="M895.62,-169.47C876.13,-188.41 847.29,-213.82 818,-230.25 800.84,-239.88 795.39,-240.9 776,-244.25 590.11,-276.41 536.89,-261.74 352,-224.25 322.09,-218.19 314.18,-218.18 285,-209.25 280.38,-207.84 275.65,-206.27 270.91,-204.62"/>
<polygon fill="black" stroke="black" points="271.81,-201.23 261.22,-201.14 269.44,-207.82 271.81,-201.23"/>
<text text-anchor="start" x="484" y="-265.05" font-family="arial" font-size="14.00" fill="#377eb8">(R&#39; || (T&#39; &amp;&amp; !U&#39;))</text>
</g>
<!-- ID_91_ct1_st012&#45;&gt;ID_91_ct1_st01 -->
<g id="edge17" class="edge">
<title>ID_91_ct1_st012&#45;&gt;ID_91_ct1_st01</title>
<path fill="none" stroke="black" d="M899.78,-119.1C874.45,-89.82 828.02,-43.08 776,-24.25 653.72,20.02 607.57,-2.71 484,-43.25 476.92,-45.57 469.7,-48.5 462.67,-51.7"/>
<polygon fill="black" stroke="black" points="460.76,-48.73 453.23,-56.19 463.77,-55.05 460.76,-48.73"/>
<text text-anchor="start" x="662" y="-28.05" font-family="arial" font-size="14.00" fill="#377eb8">(R&#39; || !U&#39;)</text>
</g>
<!-- ID_91_ct1_st012&#45;&gt;ID_91_ct1_st012 -->
<g id="edge18" class="edge">
<title>ID_91_ct1_st012&#45;&gt;ID_91_ct1_st012</title>
<path fill="none" stroke="black" d="M899.71,-169.43C898.76,-179.16 905.86,-187.25 921,-187.25 930.46,-187.25 936.78,-184.09 939.96,-179.34"/>
<polygon fill="black" stroke="black" points="943.41,-179.96 942.29,-169.43 936.6,-178.36 943.41,-179.96"/>
<text text-anchor="start" x="909" y="-191.05" font-family="arial" font-size="14.00" fill="#377eb8">true</text>
</g>
<!-- ID_91_ct1_st012&#45;&gt;ID_91_ct1_st02 -->
<g id="edge16" class="edge">
<title>ID_91_ct1_st012&#45;&gt;ID_91_ct1_st02</title>
<path fill="none" stroke="black" d="M835.89,-130.35C819.82,-127.7 802.87,-124.9 786.45,-122.19"/>
<polygon fill="black" stroke="black" points="786.73,-118.69 776.3,-120.51 785.59,-125.59 786.73,-118.69"/>
<text text-anchor="start" x="794" y="-131.05" font-family="arial" font-size="14.00" fill="#377eb8">true</text>
</g>
<!-- ID_91_ct1_st02&#45;&gt;ID_91_ct1_st0 -->
<g id="edge11" class="edge">
<title>ID_91_ct1_st02&#45;&gt;ID_91_ct1_st0</title>
<path fill="none" stroke="black" d="M601.76,-123.79C560.73,-131.82 510.94,-141.11 466,-148.25 407.58,-157.53 392.73,-158.19 334,-165.25 313.52,-167.71 291.14,-170.26 271.02,-172.49"/>
<polygon fill="black" stroke="black" points="270.59,-169.01 261.04,-173.59 271.36,-175.97 270.59,-169.01"/>
<text text-anchor="start" x="359" y="-166.05" font-family="arial" font-size="14.00" fill="#377eb8">(R&#39; || (T&#39; &amp;&amp; !U&#39;))</text>
</g>
<!-- ID_91_ct1_st02&#45;&gt;ID_91_ct1_st01 -->
<g id="edge13" class="edge">
<title>ID_91_ct1_st02&#45;&gt;ID_91_ct1_st01</title>
<path fill="none" stroke="black" d="M601.86,-105.67C565.39,-104.59 522.5,-102.23 484,-97.25 481.49,-96.93 478.94,-96.56 476.37,-96.16"/>
<polygon fill="black" stroke="black" points="476.84,-92.69 466.39,-94.47 475.67,-99.59 476.84,-92.69"/>
<text text-anchor="start" x="507" y="-109.05" font-family="arial" font-size="14.00" fill="#377eb8">(R&#39; || !U&#39;)</text>
</g>
<!-- ID_91_ct1_st02&#45;&gt;ID_91_ct1_st012 -->
<g id="edge14" class="edge">
<title>ID_91_ct1_st02&#45;&gt;ID_91_ct1_st012</title>
<path fill="none" stroke="black" d="M776.09,-102.92C790.17,-103.52 804.55,-104.83 818,-107.25 829.18,-109.26 840.76,-112.38 851.93,-115.97"/>
<polygon fill="black" stroke="black" points="851.02,-119.36 861.61,-119.23 853.25,-112.72 851.02,-119.36"/>
<text text-anchor="start" x="794" y="-111.05" font-family="arial" font-size="14.00" fill="#377eb8">true</text>
</g>
<!-- ID_91_ct1_st02&#45;&gt;ID_91_ct1_st02 -->
<g id="edge12" class="edge">
<title>ID_91_ct1_st02&#45;&gt;ID_91_ct1_st02</title>
<path fill="none" stroke="black" d="M667.33,-131.43C666.37,-141.16 673.59,-149.25 689,-149.25 698.63,-149.25 705.06,-146.09 708.3,-141.34"/>
<polygon fill="black" stroke="black" points="711.75,-141.97 710.67,-131.43 704.94,-140.34 711.75,-141.97"/>
<text text-anchor="start" x="677" y="-153.05" font-family="arial" font-size="14.00" fill="#377eb8">true</text>
</g>
</g>
</svg>
