<?xml version="1.0" encoding="UTF-8" standalone="no"?>
<!DOCTYPE svg PUBLIC "-//W3C//DTD SVG 1.1//EN"
 "http://www.w3.org/Graphics/SVG/1.1/DTD/svg11.dtd">
<!-- Generated by graphviz version 2.43.0 (0)
 -->
<!-- Title: G Pages: 1 -->
<svg width="526pt" height="192pt"
 viewBox="0.00 0.00 526.00 192.00" xmlns="http://www.w3.org/2000/svg" xmlns:xlink="http://www.w3.org/1999/xlink">
<g id="graph0" class="graph" transform="scale(1 1) rotate(0) translate(4 188)">
<title>G</title>
<polygon fill="white" stroke="transparent" points="-4,4 -4,-188 522,-188 522,4 -4,4"/>
<!-- _ID_47_ct1_stinit -->
<!-- ID_47_ct1_stinit -->
<g id="node2" class="node">
<title>ID_47_ct1_stinit</title>
<polygon fill="none" stroke="black" points="280,-151 161,-151 161,-101 280,-101 280,-151"/>
<text text-anchor="start" x="169" y="-136.8" font-family="arial" font-weight="bold" font-size="14.00">ID_47_ct1_stinit</text>
<text text-anchor="start" x="199" y="-122.8" font-family="arial" font-size="14.00" fill="#984ea3">(P || S)</text>
<text text-anchor="start" x="208.5" y="-108.8" font-family="arial" font-size="14.00" fill="#ff7f00">true</text>
</g>
<!-- _ID_47_ct1_stinit&#45;&gt;ID_47_ct1_stinit -->
<g id="edge1" class="edge">
<title>_ID_47_ct1_stinit&#45;&gt;ID_47_ct1_stinit</title>
<path fill="none" stroke="black" d="M121.23,-126C130.9,-126 140.97,-126 150.83,-126"/>
<polygon fill="black" stroke="black" points="150.99,-129.5 160.99,-126 150.99,-122.5 150.99,-129.5"/>
</g>
<!-- ID_47_ct1_stinit&#45;&gt;ID_47_ct1_stinit -->
<g id="edge4" class="edge">
<title>ID_47_ct1_stinit&#45;&gt;ID_47_ct1_stinit</title>
<path fill="none" stroke="black" d="M205.56,-151.18C204.89,-160.91 209.88,-169 220.5,-169 227.14,-169 231.58,-165.84 233.81,-161.09"/>
<polygon fill="black" stroke="black" points="237.27,-161.61 235.44,-151.18 230.36,-160.47 237.27,-161.61"/>
<text text-anchor="start" x="208.5" y="-172.8" font-family="arial" font-size="14.00" fill="#377eb8">true</text>
</g>
<!-- ID_47_ct1_st -->
<g id="node5" class="node">
<title>ID_47_ct1_st</title>
<polygon fill="none" stroke="black" points="518,-100 419,-100 419,-50 518,-50 518,-100"/>
<text text-anchor="start" x="427" y="-85.8" font-family="arial" font-weight="bold" font-size="14.00">ID_47_ct1_st</text>
<text text-anchor="start" x="456.5" y="-71.8" font-family="arial" font-size="14.00" fill="#984ea3">true</text>
<text text-anchor="start" x="456.5" y="-57.8" font-family="arial" font-size="14.00" fill="#ff7f00">true</text>
</g>
<!-- ID_47_ct1_stinit&#45;&gt;ID_47_ct1_st -->
<g id="edge3" class="edge">
<title>ID_47_ct1_stinit&#45;&gt;ID_47_ct1_st</title>
<path fill="none" stroke="black" d="M280.11,-113.85C318.99,-105.79 369.81,-95.25 408.72,-87.19"/>
<polygon fill="black" stroke="black" points="409.77,-90.54 418.85,-85.09 408.35,-83.69 409.77,-90.54"/>
<text text-anchor="start" x="339" y="-112.8" font-family="arial" font-size="14.00" fill="#377eb8">true</text>
</g>
<!-- _ID_47_ct1_st0 -->
<!-- ID_47_ct1_st0 -->
<g id="node4" class="node">
<title>ID_47_ct1_st0</title>
<polygon fill="none" stroke="black" points="283,-50 158,-50 158,0 283,0 283,-50"/>
<text text-anchor="start" x="175" y="-35.8" font-family="arial" font-weight="bold" font-size="14.00">ID_47_ct1_st0</text>
<text text-anchor="start" x="166" y="-21.8" font-family="arial" font-size="14.00" fill="#984ea3">(!P &amp;&amp; (!R &amp;&amp; !S))</text>
<text text-anchor="start" x="208.5" y="-7.8" font-family="arial" font-size="14.00" fill="#ff7f00">true</text>
</g>
<!-- _ID_47_ct1_st0&#45;&gt;ID_47_ct1_st0 -->
<g id="edge2" class="edge">
<title>_ID_47_ct1_st0&#45;&gt;ID_47_ct1_st0</title>
<path fill="none" stroke="black" d="M116.32,-25C126.45,-25 137.17,-25 147.71,-25"/>
<polygon fill="black" stroke="black" points="147.75,-28.5 157.75,-25 147.75,-21.5 147.75,-28.5"/>
</g>
<!-- ID_47_ct1_st0&#45;&gt;ID_47_ct1_st0 -->
<g id="edge7" class="edge">
<title>ID_47_ct1_st0&#45;&gt;ID_47_ct1_st0</title>
<path fill="none" stroke="black" d="M205.56,-50.18C204.89,-59.91 209.88,-68 220.5,-68 227.14,-68 231.58,-64.84 233.81,-60.09"/>
<polygon fill="black" stroke="black" points="237.27,-60.61 235.44,-50.18 230.36,-59.47 237.27,-60.61"/>
<text text-anchor="start" x="208.5" y="-71.8" font-family="arial" font-size="14.00" fill="#377eb8">true</text>
</g>
<!-- ID_47_ct1_st0&#45;&gt;ID_47_ct1_st -->
<g id="edge6" class="edge">
<title>ID_47_ct1_st0&#45;&gt;ID_47_ct1_st</title>
<path fill="none" stroke="black" d="M283.26,-37.55C321.8,-45.39 371.11,-55.41 409.02,-63.11"/>
<polygon fill="black" stroke="black" points="408.4,-66.56 418.89,-65.12 409.79,-59.7 408.4,-66.56"/>
<text text-anchor="start" x="301" y="-63.8" font-family="arial" font-size="14.00" fill="#377eb8">(P&#39; || (!R&#39; &amp;&amp; S&#39;))</text>
</g>
<!-- ID_47_ct1_st&#45;&gt;ID_47_ct1_st -->
<g id="edge5" class="edge">
<title>ID_47_ct1_st&#45;&gt;ID_47_ct1_st</title>
<path fill="none" stroke="black" d="M446.83,-100.18C445.87,-109.91 453.09,-118 468.5,-118 478.13,-118 484.56,-114.84 487.8,-110.09"/>
<polygon fill="black" stroke="black" points="491.25,-110.72 490.17,-100.18 484.44,-109.09 491.25,-110.72"/>
<text text-anchor="start" x="456.5" y="-121.8" font-family="arial" font-size="14.00" fill="#377eb8">true</text>
</g>
</g>
</svg>
