<?xml version="1.0" encoding="UTF-8" standalone="no"?>
<!DOCTYPE svg PUBLIC "-//W3C//DTD SVG 1.1//EN"
 "http://www.w3.org/Graphics/SVG/1.1/DTD/svg11.dtd">
<!-- Generated by graphviz version 2.43.0 (0)
 -->
<!-- Title: G Pages: 1 -->
<svg width="1060pt" height="326pt"
 viewBox="0.00 0.00 1060.00 326.00" xmlns="http://www.w3.org/2000/svg" xmlns:xlink="http://www.w3.org/1999/xlink">
<g id="graph0" class="graph" transform="scale(1 1) rotate(0) translate(4 322)">
<title>G</title>
<polygon fill="white" stroke="transparent" points="-4,4 -4,-322 1056,-322 1056,4 -4,4"/>
<!-- _ID_79_ct0_st -->
<!-- ID_79_ct0_st -->
<g id="node2" class="node">
<title>ID_79_ct0_st</title>
<polygon fill="none" stroke="black" points="483.5,-50 384.5,-50 384.5,0 483.5,0 483.5,-50"/>
<text text-anchor="start" x="392.5" y="-35.8" font-family="arial" font-weight="bold" font-size="14.00">ID_79_ct0_st</text>
<text text-anchor="start" x="422" y="-21.8" font-family="arial" font-size="14.00" fill="#984ea3">true</text>
<text text-anchor="start" x="422" y="-7.8" font-family="arial" font-size="14.00" fill="#ff7f00">true</text>
</g>
<!-- _ID_79_ct0_st&#45;&gt;ID_79_ct0_st -->
<g id="edge1" class="edge">
<title>_ID_79_ct0_st&#45;&gt;ID_79_ct0_st</title>
<path fill="none" stroke="black" d="M263.26,-25C296.31,-25 339.39,-25 373.89,-25"/>
<polygon fill="black" stroke="black" points="374.3,-28.5 384.3,-25 374.3,-21.5 374.3,-28.5"/>
</g>
<!-- ID_79_ct0_st&#45;&gt;ID_79_ct0_st -->
<g id="edge4" class="edge">
<title>ID_79_ct0_st&#45;&gt;ID_79_ct0_st</title>
<path fill="none" stroke="black" d="M417.19,-50.18C416.44,-59.91 422.05,-68 434,-68 441.47,-68 446.46,-64.84 448.97,-60.09"/>
<polygon fill="black" stroke="black" points="452.43,-60.65 450.81,-50.18 445.54,-59.37 452.43,-60.65"/>
<text text-anchor="start" x="422" y="-71.8" font-family="arial" font-size="14.00" fill="#377eb8">true</text>
</g>
<!-- _ID_79_ct0_st0 -->
<!-- ID_79_ct0_st0 -->
<g id="node4" class="node">
<title>ID_79_ct0_st0</title>
<polygon fill="none" stroke="black" points="264.5,-129 157.5,-129 157.5,-79 264.5,-79 264.5,-129"/>
<text text-anchor="start" x="165.5" y="-114.8" font-family="arial" font-weight="bold" font-size="14.00">ID_79_ct0_st0</text>
<text text-anchor="start" x="180.5" y="-100.8" font-family="arial" font-size="14.00" fill="#984ea3">(!R &amp;&amp; !T)</text>
<text text-anchor="start" x="199" y="-86.8" font-family="arial" font-size="14.00" fill="#ff7f00">true</text>
</g>
<!-- _ID_79_ct0_st0&#45;&gt;ID_79_ct0_st0 -->
<g id="edge2" class="edge">
<title>_ID_79_ct0_st0&#45;&gt;ID_79_ct0_st0</title>
<path fill="none" stroke="black" d="M111.05,-104C122.71,-104 135.13,-104 147.08,-104"/>
<polygon fill="black" stroke="black" points="147.43,-107.5 157.43,-104 147.43,-100.5 147.43,-107.5"/>
</g>
<!-- ID_79_ct0_st0&#45;&gt;ID_79_ct0_st -->
<g id="edge5" class="edge">
<title>ID_79_ct0_st0&#45;&gt;ID_79_ct0_st</title>
<path fill="none" stroke="black" d="M264.65,-85.18C297.66,-73.38 340.24,-58.16 374.32,-45.97"/>
<polygon fill="black" stroke="black" points="375.91,-49.12 384.15,-42.46 373.56,-42.53 375.91,-49.12"/>
<text text-anchor="start" x="292" y="-76.8" font-family="arial" font-size="14.00" fill="#377eb8">(!R&#39; &amp;&amp; T&#39;)</text>
</g>
<!-- ID_79_ct0_st0&#45;&gt;ID_79_ct0_st0 -->
<g id="edge7" class="edge">
<title>ID_79_ct0_st0&#45;&gt;ID_79_ct0_st0</title>
<path fill="none" stroke="black" d="M196.06,-129.18C195.39,-138.91 200.38,-147 211,-147 217.64,-147 222.08,-143.84 224.31,-139.09"/>
<polygon fill="black" stroke="black" points="227.77,-139.61 225.94,-129.18 220.86,-138.47 227.77,-139.61"/>
<text text-anchor="start" x="199" y="-150.8" font-family="arial" font-size="14.00" fill="#377eb8">true</text>
</g>
<!-- ID_79_ct0_st012 -->
<g id="node6" class="node">
<title>ID_79_ct0_st012</title>
<polygon fill="none" stroke="black" points="495,-219 373,-219 373,-169 495,-169 495,-219"/>
<text text-anchor="start" x="381" y="-204.8" font-family="arial" font-weight="bold" font-size="14.00">ID_79_ct0_st012</text>
<text text-anchor="start" x="382" y="-190.8" font-family="arial" font-size="14.00" fill="#984ea3">(R &amp;&amp; (!S &amp;&amp; !T))</text>
<text text-anchor="start" x="422" y="-176.8" font-family="arial" font-size="14.00" fill="#ff7f00">true</text>
</g>
<!-- ID_79_ct0_st0&#45;&gt;ID_79_ct0_st012 -->
<g id="edge8" class="edge">
<title>ID_79_ct0_st0&#45;&gt;ID_79_ct0_st012</title>
<path fill="none" stroke="black" d="M264.65,-125.44C294.29,-137.51 331.64,-152.72 363.64,-165.75"/>
<polygon fill="black" stroke="black" points="362.36,-169.01 372.94,-169.54 365,-162.53 362.36,-169.01"/>
<text text-anchor="start" x="311.5" y="-162.8" font-family="arial" font-size="14.00" fill="#377eb8">true</text>
</g>
<!-- ID_79_ct0_st12 -->
<g id="node7" class="node">
<title>ID_79_ct0_st12</title>
<polygon fill="none" stroke="black" points="892,-182 778,-182 778,-132 892,-132 892,-182"/>
<text text-anchor="start" x="786" y="-167.8" font-family="arial" font-weight="bold" font-size="14.00">ID_79_ct0_st12</text>
<text text-anchor="start" x="806" y="-153.8" font-family="arial" font-size="14.00" fill="#984ea3">(R &amp;&amp; !S)</text>
<text text-anchor="start" x="823" y="-139.8" font-family="arial" font-size="14.00" fill="#ff7f00">true</text>
</g>
<!-- ID_79_ct0_st0&#45;&gt;ID_79_ct0_st12 -->
<g id="edge6" class="edge">
<title>ID_79_ct0_st0&#45;&gt;ID_79_ct0_st12</title>
<path fill="none" stroke="black" d="M264.76,-108.5C377.89,-118.14 643.56,-140.77 767.79,-151.36"/>
<polygon fill="black" stroke="black" points="767.66,-154.86 777.92,-152.22 768.26,-147.89 767.66,-154.86"/>
<text text-anchor="start" x="519" y="-134.8" font-family="arial" font-size="14.00" fill="#377eb8">T&#39;</text>
</g>
<!-- _ID_79_ct0_st012 -->
<!-- _ID_79_ct0_st012&#45;&gt;ID_79_ct0_st012 -->
<g id="edge3" class="edge">
<title>_ID_79_ct0_st012&#45;&gt;ID_79_ct0_st012</title>
<path fill="none" stroke="black" d="M274.15,-196.88C301.67,-196.38 334.16,-195.79 362.58,-195.27"/>
<polygon fill="black" stroke="black" points="362.91,-198.77 372.84,-195.09 362.78,-191.77 362.91,-198.77"/>
</g>
<!-- ID_79_ct0_st012&#45;&gt;ID_79_ct0_st012 -->
<g id="edge19" class="edge">
<title>ID_79_ct0_st012&#45;&gt;ID_79_ct0_st012</title>
<path fill="none" stroke="black" d="M417.19,-219.18C416.44,-228.91 422.05,-237 434,-237 441.47,-237 446.46,-233.84 448.97,-229.09"/>
<polygon fill="black" stroke="black" points="452.43,-229.65 450.81,-219.18 445.54,-228.37 452.43,-229.65"/>
<text text-anchor="start" x="422" y="-240.8" font-family="arial" font-size="14.00" fill="#377eb8">true</text>
</g>
<!-- ID_79_ct0_st012&#45;&gt;ID_79_ct0_st12 -->
<g id="edge17" class="edge">
<title>ID_79_ct0_st012&#45;&gt;ID_79_ct0_st12</title>
<path fill="none" stroke="black" d="M495.01,-177.56C514.04,-173 535.27,-168.59 555,-166 627.26,-156.5 710.91,-155.05 767.62,-155.48"/>
<polygon fill="black" stroke="black" points="767.86,-158.98 777.89,-155.58 767.93,-151.98 767.86,-158.98"/>
<text text-anchor="start" x="611" y="-169.8" font-family="arial" font-size="14.00" fill="#377eb8">T&#39;</text>
</g>
<!-- ID_79_ct0_st2 -->
<g id="node8" class="node">
<title>ID_79_ct0_st2</title>
<polygon fill="none" stroke="black" points="1052,-276 945,-276 945,-226 1052,-226 1052,-276"/>
<text text-anchor="start" x="953" y="-261.8" font-family="arial" font-weight="bold" font-size="14.00">ID_79_ct0_st2</text>
<text text-anchor="start" x="992" y="-247.8" font-family="arial" font-size="14.00" fill="#984ea3">!S</text>
<text text-anchor="start" x="986.5" y="-233.8" font-family="arial" font-size="14.00" fill="#ff7f00">true</text>
</g>
<!-- ID_79_ct0_st012&#45;&gt;ID_79_ct0_st2 -->
<g id="edge16" class="edge">
<title>ID_79_ct0_st012&#45;&gt;ID_79_ct0_st2</title>
<path fill="none" stroke="black" d="M459.4,-219.3C481.91,-240.67 517.43,-269.7 555,-282 685.02,-324.57 847.68,-293.12 935.07,-269.89"/>
<polygon fill="black" stroke="black" points="936.09,-273.24 944.83,-267.25 934.26,-266.49 936.09,-273.24"/>
<text text-anchor="start" x="697" y="-306.8" font-family="arial" font-size="14.00" fill="#377eb8">(!R&#39; &amp;&amp; T&#39;)</text>
</g>
<!-- ID_79_ct0_st02 -->
<g id="node9" class="node">
<title>ID_79_ct0_st02</title>
<polygon fill="none" stroke="black" points="679,-240 555,-240 555,-190 679,-190 679,-240"/>
<text text-anchor="start" x="568" y="-225.8" font-family="arial" font-weight="bold" font-size="14.00">ID_79_ct0_st02</text>
<text text-anchor="start" x="563" y="-211.8" font-family="arial" font-size="14.00" fill="#984ea3">(!R &amp;&amp; (!S &amp;&amp; !T))</text>
<text text-anchor="start" x="605" y="-197.8" font-family="arial" font-size="14.00" fill="#ff7f00">true</text>
</g>
<!-- ID_79_ct0_st012&#45;&gt;ID_79_ct0_st02 -->
<g id="edge18" class="edge">
<title>ID_79_ct0_st012&#45;&gt;ID_79_ct0_st02</title>
<path fill="none" stroke="black" d="M495.37,-205.51C501.31,-206.44 507.27,-207.29 513,-208 523.24,-209.26 534.09,-210.31 544.76,-211.18"/>
<polygon fill="black" stroke="black" points="544.66,-214.68 554.89,-211.96 545.19,-207.7 544.66,-214.68"/>
<text text-anchor="start" x="513" y="-213.8" font-family="arial" font-size="14.00" fill="#377eb8">true</text>
</g>
<!-- ID_79_ct0_st12&#45;&gt;ID_79_ct0_st12 -->
<g id="edge15" class="edge">
<title>ID_79_ct0_st12&#45;&gt;ID_79_ct0_st12</title>
<path fill="none" stroke="black" d="M819.69,-182.18C819,-191.91 824.11,-200 835,-200 841.81,-200 846.35,-196.84 848.64,-192.09"/>
<polygon fill="black" stroke="black" points="852.1,-192.62 850.31,-182.18 845.2,-191.45 852.1,-192.62"/>
<text text-anchor="start" x="823" y="-203.8" font-family="arial" font-size="14.00" fill="#377eb8">true</text>
</g>
<!-- ID_79_ct0_st12&#45;&gt;ID_79_ct0_st2 -->
<g id="edge14" class="edge">
<title>ID_79_ct0_st12&#45;&gt;ID_79_ct0_st2</title>
<path fill="none" stroke="black" d="M879.28,-182.19C899.73,-194.09 924.29,-208.39 945.72,-220.86"/>
<polygon fill="black" stroke="black" points="943.98,-223.9 954.38,-225.9 947.5,-217.85 943.98,-223.9"/>
<text text-anchor="start" x="910" y="-212.8" font-family="arial" font-size="14.00" fill="#377eb8">!R&#39;</text>
</g>
<!-- ID_79_ct0_st2&#45;&gt;ID_79_ct0_st2 -->
<g id="edge9" class="edge">
<title>ID_79_ct0_st2&#45;&gt;ID_79_ct0_st2</title>
<path fill="none" stroke="black" d="M983.56,-276.18C982.89,-285.91 987.88,-294 998.5,-294 1005.14,-294 1009.58,-290.84 1011.81,-286.09"/>
<polygon fill="black" stroke="black" points="1015.27,-286.61 1013.44,-276.18 1008.36,-285.47 1015.27,-286.61"/>
<text text-anchor="start" x="986.5" y="-297.8" font-family="arial" font-size="14.00" fill="#377eb8">true</text>
</g>
<!-- ID_79_ct0_st02&#45;&gt;ID_79_ct0_st012 -->
<g id="edge13" class="edge">
<title>ID_79_ct0_st02&#45;&gt;ID_79_ct0_st012</title>
<path fill="none" stroke="black" d="M554.67,-196.18C548.74,-194.89 542.78,-193.79 537,-193 526.76,-191.6 515.89,-190.89 505.21,-190.63"/>
<polygon fill="black" stroke="black" points="505.09,-187.13 495.05,-190.51 505.01,-194.13 505.09,-187.13"/>
<text text-anchor="start" x="513" y="-196.8" font-family="arial" font-size="14.00" fill="#377eb8">true</text>
</g>
<!-- ID_79_ct0_st02&#45;&gt;ID_79_ct0_st12 -->
<g id="edge11" class="edge">
<title>ID_79_ct0_st02&#45;&gt;ID_79_ct0_st12</title>
<path fill="none" stroke="black" d="M679.03,-198.61C706.82,-191.15 739.76,-182.31 768.11,-174.69"/>
<polygon fill="black" stroke="black" points="769.18,-178.03 777.93,-172.06 767.36,-171.27 769.18,-178.03"/>
<text text-anchor="start" x="722.5" y="-195.8" font-family="arial" font-size="14.00" fill="#377eb8">T&#39;</text>
</g>
<!-- ID_79_ct0_st02&#45;&gt;ID_79_ct0_st2 -->
<g id="edge10" class="edge">
<title>ID_79_ct0_st02&#45;&gt;ID_79_ct0_st2</title>
<path fill="none" stroke="black" d="M679.4,-220.82C749.58,-227.48 863.86,-238.32 934.64,-245.04"/>
<polygon fill="black" stroke="black" points="934.48,-248.54 944.76,-246 935.14,-241.57 934.48,-248.54"/>
<text text-anchor="start" x="803.5" y="-243.8" font-family="arial" font-size="14.00" fill="#377eb8">(!R&#39; &amp;&amp; T&#39;)</text>
</g>
<!-- ID_79_ct0_st02&#45;&gt;ID_79_ct0_st02 -->
<g id="edge12" class="edge">
<title>ID_79_ct0_st02&#45;&gt;ID_79_ct0_st02</title>
<path fill="none" stroke="black" d="M599.82,-240.18C599.05,-249.91 604.78,-258 617,-258 624.64,-258 629.74,-254.84 632.3,-250.09"/>
<polygon fill="black" stroke="black" points="635.76,-250.65 634.18,-240.18 628.88,-249.35 635.76,-250.65"/>
<text text-anchor="start" x="605" y="-261.8" font-family="arial" font-size="14.00" fill="#377eb8">true</text>
</g>
</g>
</svg>
