<?xml version="1.0" encoding="UTF-8" standalone="no"?>
<!DOCTYPE svg PUBLIC "-//W3C//DTD SVG 1.1//EN"
 "http://www.w3.org/Graphics/SVG/1.1/DTD/svg11.dtd">
<!-- Generated by graphviz version 2.43.0 (0)
 -->
<!-- Title: G Pages: 1 -->
<svg width="484pt" height="145pt"
 viewBox="0.00 0.00 484.00 145.00" xmlns="http://www.w3.org/2000/svg" xmlns:xlink="http://www.w3.org/1999/xlink">
<g id="graph0" class="graph" transform="scale(1 1) rotate(0) translate(4 141)">
<title>G</title>
<polygon fill="white" stroke="transparent" points="-4,4 -4,-141 480,-141 480,4 -4,4"/>
<!-- _ID_129_ct0_st -->
<!-- ID_129_ct0_st -->
<g id="node2" class="node">
<title>ID_129_ct0_st</title>
<polygon fill="none" stroke="black" points="476,-97 369,-97 369,-47 476,-47 476,-97"/>
<text text-anchor="start" x="377" y="-82.8" font-family="arial" font-weight="bold" font-size="14.00">ID_129_ct0_st</text>
<text text-anchor="start" x="410.5" y="-68.8" font-family="arial" font-size="14.00" fill="#984ea3">true</text>
<text text-anchor="start" x="410.5" y="-54.8" font-family="arial" font-size="14.00" fill="#ff7f00">true</text>
</g>
<!-- _ID_129_ct0_st&#45;&gt;ID_129_ct0_st -->
<g id="edge1" class="edge">
<title>_ID_129_ct0_st&#45;&gt;ID_129_ct0_st</title>
<path fill="none" stroke="black" d="M268.52,-106.65C296.23,-100.37 330.04,-92.72 358.83,-86.2"/>
<polygon fill="black" stroke="black" points="359.8,-89.56 368.78,-83.94 358.25,-82.74 359.8,-89.56"/>
</g>
<!-- ID_129_ct0_st&#45;&gt;ID_129_ct0_st -->
<g id="edge3" class="edge">
<title>ID_129_ct0_st&#45;&gt;ID_129_ct0_st</title>
<path fill="none" stroke="black" d="M403.45,-97.18C402.6,-106.91 408.95,-115 422.5,-115 430.97,-115 436.62,-111.84 439.47,-107.09"/>
<polygon fill="black" stroke="black" points="442.92,-107.68 441.55,-97.18 436.07,-106.24 442.92,-107.68"/>
<text text-anchor="start" x="410.5" y="-118.8" font-family="arial" font-size="14.00" fill="#377eb8">true</text>
</g>
<!-- _ID_129_ct0_st0 -->
<!-- ID_129_ct0_st0 -->
<g id="node4" class="node">
<title>ID_129_ct0_st0</title>
<polygon fill="none" stroke="black" points="270,-50 156,-50 156,0 270,0 270,-50"/>
<text text-anchor="start" x="164" y="-35.8" font-family="arial" font-weight="bold" font-size="14.00">ID_129_ct0_st0</text>
<text text-anchor="start" x="182.5" y="-21.8" font-family="arial" font-size="14.00" fill="#984ea3">(!R &amp;&amp; !T)</text>
<text text-anchor="start" x="201" y="-7.8" font-family="arial" font-size="14.00" fill="#ff7f00">true</text>
</g>
<!-- _ID_129_ct0_st0&#45;&gt;ID_129_ct0_st0 -->
<g id="edge2" class="edge">
<title>_ID_129_ct0_st0&#45;&gt;ID_129_ct0_st0</title>
<path fill="none" stroke="black" d="M119.07,-25C127.69,-25 136.62,-25 145.39,-25"/>
<polygon fill="black" stroke="black" points="145.57,-28.5 155.57,-25 145.57,-21.5 145.57,-28.5"/>
</g>
<!-- ID_129_ct0_st0&#45;&gt;ID_129_ct0_st -->
<g id="edge4" class="edge">
<title>ID_129_ct0_st0&#45;&gt;ID_129_ct0_st</title>
<path fill="none" stroke="black" d="M270.15,-37.72C297.64,-43.94 330.81,-51.46 359.09,-57.86"/>
<polygon fill="black" stroke="black" points="358.34,-61.28 368.87,-60.08 359.89,-54.46 358.34,-61.28"/>
<text text-anchor="start" x="288" y="-58.8" font-family="arial" font-size="14.00" fill="#377eb8">(!R&#39; &amp;&amp; T&#39;)</text>
</g>
<!-- ID_129_ct0_st0&#45;&gt;ID_129_ct0_st0 -->
<g id="edge5" class="edge">
<title>ID_129_ct0_st0&#45;&gt;ID_129_ct0_st0</title>
<path fill="none" stroke="black" d="M199.18,-50.18C198.56,-59.91 203.17,-68 213,-68 219.14,-68 223.25,-64.84 225.31,-60.09"/>
<polygon fill="black" stroke="black" points="228.77,-60.59 226.82,-50.18 221.85,-59.53 228.77,-60.59"/>
<text text-anchor="start" x="201" y="-71.8" font-family="arial" font-size="14.00" fill="#377eb8">true</text>
</g>
</g>
</svg>
