<?xml version="1.0" encoding="UTF-8" standalone="no"?>
<!DOCTYPE svg PUBLIC "-//W3C//DTD SVG 1.1//EN"
 "http://www.w3.org/Graphics/SVG/1.1/DTD/svg11.dtd">
<!-- Generated by graphviz version 2.43.0 (0)
 -->
<!-- Title: G Pages: 1 -->
<svg width="2812pt" height="1189pt"
 viewBox="0.00 0.00 2812.00 1188.90" xmlns="http://www.w3.org/2000/svg" xmlns:xlink="http://www.w3.org/1999/xlink">
<g id="graph0" class="graph" transform="scale(1 1) rotate(0) translate(4 1184.9)">
<title>G</title>
<polygon fill="white" stroke="transparent" points="-4,4 -4,-1184.9 2808,-1184.9 2808,4 -4,4"/>
<!-- _st0 -->
<!-- st0 -->
<g id="node2" class="node">
<title>st0</title>
<polygon fill="none" stroke="black" points="156,-415.9 91,-415.9 91,-365.9 156,-365.9 156,-415.9"/>
<text text-anchor="start" x="113.5" y="-401.7" font-family="arial" font-weight="bold" font-size="14.00">st0</text>
<text text-anchor="start" x="99" y="-387.7" font-family="arial" font-size="14.00" fill="#984ea3">(R || !Q)</text>
<text text-anchor="start" x="111.5" y="-373.7" font-family="arial" font-size="14.00" fill="#ff7f00">true</text>
</g>
<!-- _st0&#45;&gt;st0 -->
<g id="edge1" class="edge">
<title>_st0&#45;&gt;st0</title>
<path fill="none" stroke="black" d="M54.07,-390.9C62.33,-390.9 71.67,-390.9 80.74,-390.9"/>
<polygon fill="black" stroke="black" points="80.79,-394.4 90.79,-390.9 80.79,-387.4 80.79,-394.4"/>
</g>
<!-- st0&#45;&gt;st0 -->
<g id="edge5" class="edge">
<title>st0&#45;&gt;st0</title>
<path fill="none" stroke="black" d="M114.16,-416.07C113.75,-425.81 116.86,-433.9 123.5,-433.9 127.55,-433.9 130.28,-430.89 131.71,-426.34"/>
<polygon fill="black" stroke="black" points="135.23,-426.39 132.84,-416.07 128.27,-425.63 135.23,-426.39"/>
<text text-anchor="start" x="111.5" y="-437.7" font-family="arial" font-size="14.00" fill="#377eb8">true</text>
</g>
<!-- st01 -->
<g id="node4" class="node">
<title>st01</title>
<polygon fill="none" stroke="black" points="360,-511.9 241,-511.9 241,-461.9 360,-461.9 360,-511.9"/>
<text text-anchor="start" x="286.5" y="-497.7" font-family="arial" font-weight="bold" font-size="14.00">st01</text>
<text text-anchor="start" x="249" y="-483.7" font-family="arial" font-size="14.00" fill="#984ea3">(Q &amp;&amp; (!R &amp;&amp; T))</text>
<text text-anchor="start" x="288.5" y="-469.7" font-family="arial" font-size="14.00" fill="#ff7f00">true</text>
</g>
<!-- st0&#45;&gt;st01 -->
<g id="edge6" class="edge">
<title>st0&#45;&gt;st01</title>
<path fill="none" stroke="black" d="M156.12,-415.24C161.94,-419.33 168.05,-423.38 174,-426.9 194.71,-439.14 201.28,-439.55 223,-449.9 227.99,-452.28 233.17,-454.75 238.36,-457.25"/>
<polygon fill="black" stroke="black" points="237.16,-460.55 247.69,-461.74 240.2,-454.25 237.16,-460.55"/>
<text text-anchor="start" x="186.5" y="-453.7" font-family="arial" font-size="14.00" fill="#377eb8">true</text>
</g>
<!-- st012 -->
<g id="node6" class="node">
<title>st012</title>
<polygon fill="none" stroke="black" points="666,-523.9 496,-523.9 496,-473.9 666,-473.9 666,-523.9"/>
<text text-anchor="start" x="563.5" y="-509.7" font-family="arial" font-weight="bold" font-size="14.00">st012</text>
<text text-anchor="start" x="504" y="-495.7" font-family="arial" font-size="14.00" fill="#984ea3">(Q &amp;&amp; (!R &amp;&amp; (!T &amp;&amp; !U)))</text>
<text text-anchor="start" x="569" y="-481.7" font-family="arial" font-size="14.00" fill="#ff7f00">true</text>
</g>
<!-- st0&#45;&gt;st012 -->
<g id="edge7" class="edge">
<title>st0&#45;&gt;st012</title>
<path fill="none" stroke="black" d="M156.24,-379.81C225.01,-358.04 388.74,-318.68 478,-401.9 498.35,-420.87 479.61,-441.7 494.8,-465.79"/>
<polygon fill="black" stroke="black" points="492.1,-468.02 501.02,-473.73 497.61,-463.7 492.1,-468.02"/>
<text text-anchor="start" x="288.5" y="-361.7" font-family="arial" font-size="14.00" fill="#377eb8">true</text>
</g>
<!-- st01234 -->
<g id="node8" class="node">
<title>st01234</title>
<polygon fill="none" stroke="black" points="1357,-407.9 1190,-407.9 1190,-357.9 1357,-357.9 1357,-407.9"/>
<text text-anchor="start" x="1248.5" y="-393.7" font-family="arial" font-weight="bold" font-size="14.00">st01234</text>
<text text-anchor="start" x="1198" y="-379.7" font-family="arial" font-size="14.00" fill="#984ea3">(Q &amp;&amp; (!R &amp;&amp; (!T &amp;&amp; U)))</text>
<text text-anchor="start" x="1261.5" y="-365.7" font-family="arial" font-size="14.00" fill="#ff7f00">true</text>
</g>
<!-- st0&#45;&gt;st01234 -->
<g id="edge8" class="edge">
<title>st0&#45;&gt;st01234</title>
<path fill="none" stroke="black" d="M128.27,-365.61C139.95,-297.78 182.1,-116.9 299.5,-116.9 299.5,-116.9 299.5,-116.9 1046,-116.9 1166.2,-116.9 1236.04,-276.31 1261.45,-348.32"/>
<polygon fill="black" stroke="black" points="1258.18,-349.56 1264.74,-357.87 1264.8,-347.28 1258.18,-349.56"/>
<text text-anchor="start" x="684" y="-120.7" font-family="arial" font-size="14.00" fill="#377eb8">true</text>
</g>
<!-- _st01 -->
<!-- _st01&#45;&gt;st01 -->
<g id="edge2" class="edge">
<title>_st01&#45;&gt;st01</title>
<path fill="none" stroke="black" d="M150.91,-513.62C170.79,-511.03 198.67,-507.16 223,-502.9 225.51,-502.46 228.07,-501.99 230.65,-501.51"/>
<polygon fill="black" stroke="black" points="231.52,-504.91 240.68,-499.6 230.21,-498.04 231.52,-504.91"/>
</g>
<!-- st01&#45;&gt;st0 -->
<g id="edge9" class="edge">
<title>st01&#45;&gt;st0</title>
<path fill="none" stroke="black" d="M240.97,-486.27C218.54,-483.67 193.65,-477.69 174,-464.9 159.34,-455.35 147.97,-439.77 139.84,-425.37"/>
<polygon fill="black" stroke="black" points="142.73,-423.35 134.96,-416.15 136.54,-426.62 142.73,-423.35"/>
<text text-anchor="start" x="174" y="-486.7" font-family="arial" font-size="14.00" fill="#377eb8">(R&#39; || T&#39;)</text>
</g>
<!-- st01&#45;&gt;st01 -->
<g id="edge12" class="edge">
<title>st01&#45;&gt;st01</title>
<path fill="none" stroke="black" d="M281.45,-512.07C280.6,-521.81 286.95,-529.9 300.5,-529.9 308.97,-529.9 314.62,-526.74 317.47,-521.99"/>
<polygon fill="black" stroke="black" points="320.92,-522.58 319.55,-512.07 314.07,-521.14 320.92,-522.58"/>
<text text-anchor="start" x="288.5" y="-533.7" font-family="arial" font-size="14.00" fill="#377eb8">true</text>
</g>
<!-- st01&#45;&gt;st012 -->
<g id="edge13" class="edge">
<title>st01&#45;&gt;st012</title>
<path fill="none" stroke="black" d="M360.37,-482.66C366.32,-482.35 372.28,-482.08 378,-481.9 422.42,-480.45 433.71,-478.23 478,-481.9 480.54,-482.11 483.12,-482.35 485.72,-482.61"/>
<polygon fill="black" stroke="black" points="485.48,-486.11 495.81,-483.75 486.27,-479.15 485.48,-486.11"/>
<text text-anchor="start" x="416" y="-485.7" font-family="arial" font-size="14.00" fill="#377eb8">true</text>
</g>
<!-- st01&#45;&gt;st01234 -->
<g id="edge14" class="edge">
<title>st01&#45;&gt;st01234</title>
<path fill="none" stroke="black" d="M352.32,-461.73C354.95,-460.15 357.52,-458.53 360,-456.9 368.69,-451.15 368.77,-446.72 378,-441.9 520.17,-367.53 567.01,-367.42 726,-345.9 903.98,-321.8 951.56,-334.53 1130,-354.9 1146.18,-356.74 1163.27,-359.44 1179.77,-362.44"/>
<polygon fill="black" stroke="black" points="1179.49,-365.95 1189.96,-364.35 1180.78,-359.07 1179.49,-365.95"/>
<text text-anchor="start" x="801" y="-349.7" font-family="arial" font-size="14.00" fill="#377eb8">true</text>
</g>
<!-- st02 -->
<g id="node9" class="node">
<title>st02</title>
<polygon fill="none" stroke="black" points="900,-543.9 726,-543.9 726,-493.9 900,-493.9 900,-543.9"/>
<text text-anchor="start" x="799" y="-529.7" font-family="arial" font-weight="bold" font-size="14.00">st02</text>
<text text-anchor="start" x="734" y="-515.7" font-family="arial" font-size="14.00" fill="#984ea3">(!Q &amp;&amp; (!R &amp;&amp; (!T &amp;&amp; !U)))</text>
<text text-anchor="start" x="801" y="-501.7" font-family="arial" font-size="14.00" fill="#ff7f00">true</text>
</g>
<!-- st01&#45;&gt;st02 -->
<g id="edge10" class="edge">
<title>st01&#45;&gt;st02</title>
<path fill="none" stroke="black" d="M360.27,-469.49C432.89,-450.59 559.87,-426.08 666,-449.9 699.92,-457.51 735.23,-473.93 762.62,-488.85"/>
<polygon fill="black" stroke="black" points="761.16,-492.03 771.6,-493.83 764.56,-485.91 761.16,-492.03"/>
<text text-anchor="start" x="569" y="-453.7" font-family="arial" font-size="14.00" fill="#377eb8">true</text>
</g>
<!-- st0234 -->
<g id="node10" class="node">
<title>st0234</title>
<polygon fill="none" stroke="black" points="1130,-775.9 960,-775.9 960,-725.9 1130,-725.9 1130,-775.9"/>
<text text-anchor="start" x="1023.5" y="-761.7" font-family="arial" font-weight="bold" font-size="14.00">st0234</text>
<text text-anchor="start" x="968" y="-747.7" font-family="arial" font-size="14.00" fill="#984ea3">(!Q &amp;&amp; (!R &amp;&amp; (!T &amp;&amp; U)))</text>
<text text-anchor="start" x="1033" y="-733.7" font-family="arial" font-size="14.00" fill="#ff7f00">true</text>
</g>
<!-- st01&#45;&gt;st0234 -->
<g id="edge11" class="edge">
<title>st01&#45;&gt;st0234</title>
<path fill="none" stroke="black" d="M315.69,-512C383.99,-632.74 675.85,-1148.18 684,-1152.9 858.53,-1253.93 994.08,-900.84 1032.81,-785.89"/>
<polygon fill="black" stroke="black" points="1036.21,-786.74 1036.05,-776.15 1029.57,-784.53 1036.21,-786.74"/>
<text text-anchor="start" x="684" y="-1167.7" font-family="arial" font-size="14.00" fill="#377eb8">true</text>
</g>
<!-- _st012 -->
<!-- _st012&#45;&gt;st012 -->
<g id="edge3" class="edge">
<title>_st012&#45;&gt;st012</title>
<path fill="none" stroke="black" d="M329.22,-606.05C371.54,-587.97 453.5,-552.95 512.21,-527.86"/>
<polygon fill="black" stroke="black" points="513.61,-531.07 521.43,-523.92 510.86,-524.64 513.61,-531.07"/>
</g>
<!-- st012&#45;&gt;st0 -->
<g id="edge23" class="edge">
<title>st012&#45;&gt;st0</title>
<path fill="none" stroke="black" d="M495.75,-473.97C454.94,-462.3 405.11,-448.64 360,-437.9 292.55,-421.84 213.36,-406.81 166.14,-398.25"/>
<polygon fill="black" stroke="black" points="166.74,-394.8 156.28,-396.47 165.5,-401.69 166.74,-394.8"/>
<text text-anchor="start" x="250.5" y="-441.7" font-family="arial" font-size="14.00" fill="#377eb8">(R&#39; || (T&#39; &amp;&amp; !U&#39;))</text>
</g>
<!-- st012&#45;&gt;st01 -->
<g id="edge27" class="edge">
<title>st012&#45;&gt;st01</title>
<path fill="none" stroke="black" d="M495.88,-500.32C459.58,-500.35 416.66,-499.6 378,-496.9 375.49,-496.72 372.93,-496.52 370.35,-496.29"/>
<polygon fill="black" stroke="black" points="370.61,-492.8 360.32,-495.31 369.93,-499.76 370.61,-492.8"/>
<text text-anchor="start" x="401" y="-503.7" font-family="arial" font-size="14.00" fill="#377eb8">(R&#39; || !U&#39;)</text>
</g>
<!-- st012&#45;&gt;st012 -->
<g id="edge29" class="edge">
<title>st012&#45;&gt;st012</title>
<path fill="none" stroke="black" d="M559.71,-524.07C558.76,-533.81 565.86,-541.9 581,-541.9 590.46,-541.9 596.78,-538.74 599.96,-533.99"/>
<polygon fill="black" stroke="black" points="603.41,-534.61 602.29,-524.07 596.6,-533.01 603.41,-534.61"/>
<text text-anchor="start" x="569" y="-545.7" font-family="arial" font-size="14.00" fill="#377eb8">true</text>
</g>
<!-- st012&#45;&gt;st01234 -->
<g id="edge30" class="edge">
<title>st012&#45;&gt;st01234</title>
<path fill="none" stroke="black" d="M657.39,-473.77C660.34,-472.22 663.23,-470.6 666,-468.9 675.38,-463.15 674.5,-457.45 684,-451.9 858.23,-349.94 928.48,-353.92 1130,-365.9 1146.07,-366.85 1163.1,-368.41 1179.58,-370.2"/>
<polygon fill="black" stroke="black" points="1179.43,-373.7 1189.76,-371.34 1180.21,-366.75 1179.43,-373.7"/>
<text text-anchor="start" x="918" y="-366.7" font-family="arial" font-size="14.00" fill="#377eb8">true</text>
</g>
<!-- st012&#45;&gt;st02 -->
<g id="edge25" class="edge">
<title>st012&#45;&gt;st02</title>
<path fill="none" stroke="black" d="M666.22,-512.95C672.23,-513.69 678.2,-514.35 684,-514.9 694.23,-515.86 704.94,-516.6 715.63,-517.17"/>
<polygon fill="black" stroke="black" points="715.68,-520.68 725.84,-517.67 716.03,-513.69 715.68,-520.68"/>
<text text-anchor="start" x="684" y="-519.7" font-family="arial" font-size="14.00" fill="#377eb8">true</text>
</g>
<!-- st012&#45;&gt;st0234 -->
<g id="edge26" class="edge">
<title>st012&#45;&gt;st0234</title>
<path fill="none" stroke="black" d="M621.93,-523.98C650.61,-541.75 690.33,-565.9 726,-585.9 814.68,-635.62 919.76,-689.12 984.15,-721.3"/>
<polygon fill="black" stroke="black" points="982.83,-724.55 993.34,-725.89 985.96,-718.29 982.83,-724.55"/>
<text text-anchor="start" x="801" y="-680.7" font-family="arial" font-size="14.00" fill="#377eb8">true</text>
</g>
<!-- st034 -->
<g id="node11" class="node">
<title>st034</title>
<polygon fill="none" stroke="black" points="2131,-489.9 2007,-489.9 2007,-439.9 2131,-439.9 2131,-489.9"/>
<text text-anchor="start" x="2051.5" y="-475.7" font-family="arial" font-weight="bold" font-size="14.00">st034</text>
<text text-anchor="start" x="2015" y="-461.7" font-family="arial" font-size="14.00" fill="#984ea3">(!Q &amp;&amp; (!R &amp;&amp; U))</text>
<text text-anchor="start" x="2057" y="-447.7" font-family="arial" font-size="14.00" fill="#ff7f00">true</text>
</g>
<!-- st012&#45;&gt;st034 -->
<g id="edge24" class="edge">
<title>st012&#45;&gt;st034</title>
<path fill="none" stroke="black" d="M666.06,-489.65C685.7,-487.78 706.57,-486.05 726,-484.9 829.84,-478.75 855.98,-481.01 960,-479.9 1035.55,-479.09 1054.57,-475.6 1130,-479.9 1239.42,-486.13 1265.58,-501.66 1375,-507.9 1489.3,-514.41 1774.75,-480.26 1889,-472.9 1924.29,-470.62 1963.55,-468.79 1996.28,-467.46"/>
<polygon fill="black" stroke="black" points="1996.81,-470.94 2006.66,-467.04 1996.53,-463.94 1996.81,-470.94"/>
<text text-anchor="start" x="1249" y="-509.7" font-family="arial" font-size="14.00" fill="#377eb8">(R&#39; || T&#39;)</text>
</g>
<!-- st0134 -->
<g id="node12" class="node">
<title>st0134</title>
<polygon fill="none" stroke="black" points="2430,-538.9 2267,-538.9 2267,-488.9 2430,-488.9 2430,-538.9"/>
<text text-anchor="start" x="2327" y="-524.7" font-family="arial" font-weight="bold" font-size="14.00">st0134</text>
<text text-anchor="start" x="2275" y="-510.7" font-family="arial" font-size="14.00" fill="#984ea3">(Q &amp;&amp; (!R &amp;&amp; (T &amp;&amp; U)))</text>
<text text-anchor="start" x="2336.5" y="-496.7" font-family="arial" font-size="14.00" fill="#ff7f00">true</text>
</g>
<!-- st012&#45;&gt;st0134 -->
<g id="edge28" class="edge">
<title>st012&#45;&gt;st0134</title>
<path fill="none" stroke="black" d="M626.74,-523.97C641.17,-534.05 656,-546.88 666,-561.9 812.64,-782.06 547.47,-1138.9 812,-1138.9 812,-1138.9 812,-1138.9 1400.5,-1138.9 1564.17,-1138.9 2004.57,-1148.84 2131,-1044.9 2224.05,-968.4 2217.13,-917.06 2249,-800.9 2273.9,-710.13 2226.09,-674.66 2267,-589.9 2275.18,-572.95 2288.87,-557.86 2302.66,-545.67"/>
<polygon fill="black" stroke="black" points="2304.93,-548.34 2310.3,-539.21 2300.41,-543 2304.93,-548.34"/>
<text text-anchor="start" x="1387.5" y="-1142.7" font-family="arial" font-size="14.00" fill="#377eb8">true</text>
</g>
<!-- _st01234 -->
<!-- _st01234&#45;&gt;st01234 -->
<g id="edge4" class="edge">
<title>_st01234&#45;&gt;st01234</title>
<path fill="none" stroke="black" d="M1081.39,-391.33C1107.78,-390.17 1145.09,-388.52 1179.75,-386.99"/>
<polygon fill="black" stroke="black" points="1180.09,-390.48 1189.93,-386.54 1179.78,-383.49 1180.09,-390.48"/>
</g>
<!-- st01234&#45;&gt;st01234 -->
<g id="edge86" class="edge">
<title>st01234&#45;&gt;st01234</title>
<path fill="none" stroke="black" d="M1252.58,-408.07C1251.65,-417.81 1258.62,-425.9 1273.5,-425.9 1282.8,-425.9 1289.01,-422.74 1292.13,-417.99"/>
<polygon fill="black" stroke="black" points="1295.58,-418.6 1294.42,-408.07 1288.76,-417.03 1295.58,-418.6"/>
<text text-anchor="start" x="1261.5" y="-429.7" font-family="arial" font-size="14.00" fill="#377eb8">true</text>
</g>
<!-- st01234&#45;&gt;st0234 -->
<g id="edge82" class="edge">
<title>st01234&#45;&gt;st0234</title>
<path fill="none" stroke="black" d="M1248.48,-408.02C1231.09,-426.92 1207.64,-453.93 1190,-479.9 1135.47,-560.18 1085.63,-663.43 1061.42,-716.3"/>
<polygon fill="black" stroke="black" points="1058.16,-715.02 1057.2,-725.57 1064.53,-717.92 1058.16,-715.02"/>
<text text-anchor="start" x="1148" y="-547.7" font-family="arial" font-size="14.00" fill="#377eb8">true</text>
</g>
<!-- st01234&#45;&gt;st034 -->
<g id="edge80" class="edge">
<title>st01234&#45;&gt;st034</title>
<path fill="none" stroke="black" d="M1357.03,-391.26C1363.11,-391.83 1369.15,-392.38 1375,-392.9 1647.63,-416.89 1720.31,-387.82 1989,-439.9 1991.62,-440.4 1994.28,-440.97 1996.96,-441.58"/>
<polygon fill="black" stroke="black" points="1996.13,-444.99 2006.68,-443.99 1997.82,-438.19 1996.13,-444.99"/>
<text text-anchor="start" x="1634" y="-408.7" font-family="arial" font-size="14.00" fill="#377eb8">(R&#39; || T&#39;)</text>
</g>
<!-- st01234&#45;&gt;st0134 -->
<g id="edge84" class="edge">
<title>st01234&#45;&gt;st0134</title>
<path fill="none" stroke="black" d="M1317.31,-357.87C1366.46,-331.54 1450.34,-293.9 1528,-293.9 1528,-293.9 1528,-293.9 2070,-293.9 2154.49,-293.9 2190.39,-297.04 2249,-357.9 2267.43,-377.03 2254.4,-391.51 2267,-414.9 2279.97,-438.96 2299.13,-462.82 2315.51,-481.09"/>
<polygon fill="black" stroke="black" points="2313,-483.53 2322.33,-488.56 2318.17,-478.81 2313,-483.53"/>
<text text-anchor="start" x="1774" y="-297.7" font-family="arial" font-size="14.00" fill="#377eb8">true</text>
</g>
<!-- st04 -->
<g id="node13" class="node">
<title>st04</title>
<polygon fill="none" stroke="black" points="2804,-579.9 2724,-579.9 2724,-529.9 2804,-529.9 2804,-579.9"/>
<text text-anchor="start" x="2750" y="-565.7" font-family="arial" font-weight="bold" font-size="14.00">st04</text>
<text text-anchor="start" x="2732" y="-551.7" font-family="arial" font-size="14.00" fill="#984ea3">(!Q &amp;&amp; !R)</text>
<text text-anchor="start" x="2752" y="-537.7" font-family="arial" font-size="14.00" fill="#ff7f00">true</text>
</g>
<!-- st01234&#45;&gt;st04 -->
<g id="edge79" class="edge">
<title>st01234&#45;&gt;st04</title>
<path fill="none" stroke="black" d="M1292.2,-357.88C1310.68,-333.12 1341.58,-295.34 1375,-269.9 1401.41,-249.79 1410.25,-246.58 1442,-236.9 1764.47,-138.56 1860.87,-174.9 2198,-174.9 2198,-174.9 2198,-174.9 2580.5,-174.9 2732.54,-174.9 2758,-425.14 2762.2,-519.48"/>
<polygon fill="black" stroke="black" points="2758.71,-519.81 2762.59,-529.67 2765.7,-519.54 2758.71,-519.81"/>
<text text-anchor="start" x="2019" y="-178.7" font-family="arial" font-size="14.00" fill="#377eb8">(R&#39; || (T&#39; &amp;&amp; !U&#39;))</text>
</g>
<!-- st014 -->
<g id="node14" class="node">
<title>st014</title>
<polygon fill="none" stroke="black" points="2639,-769.9 2520,-769.9 2520,-719.9 2639,-719.9 2639,-769.9"/>
<text text-anchor="start" x="2562" y="-755.7" font-family="arial" font-weight="bold" font-size="14.00">st014</text>
<text text-anchor="start" x="2528" y="-741.7" font-family="arial" font-size="14.00" fill="#984ea3">(Q &amp;&amp; (!R &amp;&amp; T))</text>
<text text-anchor="start" x="2567.5" y="-727.7" font-family="arial" font-size="14.00" fill="#ff7f00">true</text>
</g>
<!-- st01234&#45;&gt;st014 -->
<g id="edge83" class="edge">
<title>st01234&#45;&gt;st014</title>
<path fill="none" stroke="black" d="M1295.55,-357.66C1314.36,-336.67 1343.7,-307.47 1375,-289.9 1401.99,-274.75 1411.49,-276.08 1442,-270.9 1795.6,-210.81 1906.87,-159.23 2249,-266.9 2389.76,-311.19 2444.57,-345.97 2502,-481.9 2516.01,-515.07 2510.54,-526.15 2520,-560.9 2534.29,-613.37 2553.97,-673.24 2566.46,-710.05"/>
<polygon fill="black" stroke="black" points="2563.24,-711.46 2569.78,-719.8 2569.87,-709.2 2563.24,-711.46"/>
<text text-anchor="start" x="1912" y="-212.7" font-family="arial" font-size="14.00" fill="#377eb8">(R&#39; || !U&#39;)</text>
</g>
<!-- st0124 -->
<g id="node15" class="node">
<title>st0124</title>
<polygon fill="none" stroke="black" points="1871,-796.9 1701,-796.9 1701,-746.9 1871,-746.9 1871,-796.9"/>
<text text-anchor="start" x="1764.5" y="-782.7" font-family="arial" font-weight="bold" font-size="14.00">st0124</text>
<text text-anchor="start" x="1709" y="-768.7" font-family="arial" font-size="14.00" fill="#984ea3">(Q &amp;&amp; (!R &amp;&amp; (!T &amp;&amp; !U)))</text>
<text text-anchor="start" x="1774" y="-754.7" font-family="arial" font-size="14.00" fill="#ff7f00">true</text>
</g>
<!-- st01234&#45;&gt;st0124 -->
<g id="edge85" class="edge">
<title>st01234&#45;&gt;st0124</title>
<path fill="none" stroke="black" d="M1314.41,-407.95C1332.78,-419.36 1354.91,-432.96 1375,-444.9 1396.57,-457.71 1410.05,-452.05 1424,-472.9 1458.89,-525.03 1404.92,-562.29 1442,-612.9 1459.25,-636.43 1618.04,-703.99 1713.41,-743.06"/>
<polygon fill="black" stroke="black" points="1712.14,-746.32 1722.72,-746.86 1714.79,-739.84 1712.14,-746.32"/>
<text text-anchor="start" x="1517" y="-703.7" font-family="arial" font-size="14.00" fill="#377eb8">true</text>
</g>
<!-- st024 -->
<g id="node16" class="node">
<title>st024</title>
<polygon fill="none" stroke="black" points="1616,-781.9 1442,-781.9 1442,-731.9 1616,-731.9 1616,-781.9"/>
<text text-anchor="start" x="1511.5" y="-767.7" font-family="arial" font-weight="bold" font-size="14.00">st024</text>
<text text-anchor="start" x="1450" y="-753.7" font-family="arial" font-size="14.00" fill="#984ea3">(!Q &amp;&amp; (!R &amp;&amp; (!T &amp;&amp; !U)))</text>
<text text-anchor="start" x="1517" y="-739.7" font-family="arial" font-size="14.00" fill="#ff7f00">true</text>
</g>
<!-- st01234&#45;&gt;st024 -->
<g id="edge81" class="edge">
<title>st01234&#45;&gt;st024</title>
<path fill="none" stroke="black" d="M1302.52,-408.19C1320.87,-426.35 1343.81,-452.39 1357,-479.9 1375.39,-518.25 1357.87,-534.96 1375,-573.9 1395.09,-619.54 1410.14,-625.54 1442,-663.9 1459.18,-684.58 1479.57,-706.72 1496.18,-724.21"/>
<polygon fill="black" stroke="black" points="1494.08,-727.08 1503.52,-731.9 1499.15,-722.25 1494.08,-727.08"/>
<text text-anchor="start" x="1387.5" y="-645.7" font-family="arial" font-size="14.00" fill="#377eb8">true</text>
</g>
<!-- st02&#45;&gt;st0 -->
<g id="edge15" class="edge">
<title>st02&#45;&gt;st0</title>
<path fill="none" stroke="black" d="M780.31,-493.87C723.66,-451 599.52,-365.36 478,-336.9 346.11,-306 300.02,-309.21 174,-358.9 171,-360.08 167.99,-361.45 165.02,-362.96"/>
<polygon fill="black" stroke="black" points="163.32,-359.9 156.26,-367.79 166.7,-366.03 163.32,-359.9"/>
<text text-anchor="start" x="378" y="-340.7" font-family="arial" font-size="14.00" fill="#377eb8">(R&#39; || (T&#39; &amp;&amp; !U&#39;))</text>
</g>
<!-- st02&#45;&gt;st01 -->
<g id="edge19" class="edge">
<title>st02&#45;&gt;st01</title>
<path fill="none" stroke="black" d="M748.73,-544.01C723.43,-552.79 693.75,-561.54 666,-565.9 591.36,-577.61 570.2,-580.13 496,-565.9 447.33,-556.56 395.49,-534.85 357.58,-516.55"/>
<polygon fill="black" stroke="black" points="358.77,-513.24 348.25,-511.98 355.69,-519.52 358.77,-513.24"/>
<text text-anchor="start" x="554" y="-578.7" font-family="arial" font-size="14.00" fill="#377eb8">(R&#39; || !U&#39;)</text>
</g>
<!-- st02&#45;&gt;st012 -->
<g id="edge21" class="edge">
<title>st02&#45;&gt;st012</title>
<path fill="none" stroke="black" d="M725.9,-501.98C719.86,-501.16 713.85,-500.45 708,-499.9 697.77,-498.93 687.05,-498.28 676.36,-497.87"/>
<polygon fill="black" stroke="black" points="676.25,-494.37 666.15,-497.55 676.03,-501.36 676.25,-494.37"/>
<text text-anchor="start" x="684" y="-503.7" font-family="arial" font-size="14.00" fill="#377eb8">true</text>
</g>
<!-- st02&#45;&gt;st01234 -->
<g id="edge22" class="edge">
<title>st02&#45;&gt;st01234</title>
<path fill="none" stroke="black" d="M898.36,-493.87C978.22,-470.18 1097.83,-434.71 1180.2,-410.27"/>
<polygon fill="black" stroke="black" points="1181.22,-413.62 1189.81,-407.42 1179.23,-406.91 1181.22,-413.62"/>
<text text-anchor="start" x="1033" y="-478.7" font-family="arial" font-size="14.00" fill="#377eb8">true</text>
</g>
<!-- st02&#45;&gt;st02 -->
<g id="edge17" class="edge">
<title>st02&#45;&gt;st02</title>
<path fill="none" stroke="black" d="M791.33,-544.07C790.37,-553.81 797.59,-561.9 813,-561.9 822.63,-561.9 829.06,-558.74 832.3,-553.99"/>
<polygon fill="black" stroke="black" points="835.75,-554.61 834.67,-544.07 828.94,-552.98 835.75,-554.61"/>
<text text-anchor="start" x="801" y="-565.7" font-family="arial" font-size="14.00" fill="#377eb8">true</text>
</g>
<!-- st02&#45;&gt;st0234 -->
<g id="edge18" class="edge">
<title>st02&#45;&gt;st0234</title>
<path fill="none" stroke="black" d="M839.05,-544.17C881.05,-586.53 965.59,-671.81 1011.89,-718.51"/>
<polygon fill="black" stroke="black" points="1009.45,-721.02 1018.98,-725.66 1014.42,-716.09 1009.45,-721.02"/>
<text text-anchor="start" x="918" y="-644.7" font-family="arial" font-size="14.00" fill="#377eb8">true</text>
</g>
<!-- st02&#45;&gt;st034 -->
<g id="edge16" class="edge">
<title>st02&#45;&gt;st034</title>
<path fill="none" stroke="black" d="M900.08,-526.13C967.48,-531.41 1063.64,-538.12 1148,-540.9 1356.02,-547.74 1408.67,-542.25 1616,-523.9 1751.11,-511.93 1907.91,-489.54 1996.8,-476.05"/>
<polygon fill="black" stroke="black" points="1997.41,-479.5 2006.77,-474.53 1996.35,-472.58 1997.41,-479.5"/>
<text text-anchor="start" x="1375" y="-545.7" font-family="arial" font-size="14.00" fill="#377eb8">(R&#39; || T&#39;)</text>
</g>
<!-- st02&#45;&gt;st0134 -->
<g id="edge20" class="edge">
<title>st02&#45;&gt;st0134</title>
<path fill="none" stroke="black" d="M824.64,-493.89C840.5,-459.16 873.34,-396.19 918,-356.9 1095.47,-200.75 1162.12,-128.9 1398.5,-128.9 1398.5,-128.9 1398.5,-128.9 1940,-128.9 2025.56,-128.9 2055.97,-111.79 2131,-152.9 2258.63,-222.82 2318.7,-402.39 2339.09,-478.72"/>
<polygon fill="black" stroke="black" points="2335.8,-479.99 2341.71,-488.79 2342.58,-478.23 2335.8,-479.99"/>
<text text-anchor="start" x="1517" y="-132.7" font-family="arial" font-size="14.00" fill="#377eb8">true</text>
</g>
<!-- st0234&#45;&gt;st01234 -->
<g id="edge78" class="edge">
<title>st0234&#45;&gt;st01234</title>
<path fill="none" stroke="black" d="M1055.55,-725.78C1080.21,-661.01 1144.33,-493.04 1148,-487.9 1168.83,-458.72 1199.56,-432.69 1225.28,-413.85"/>
<polygon fill="black" stroke="black" points="1227.36,-416.66 1233.44,-407.99 1223.27,-410.98 1227.36,-416.66"/>
<text text-anchor="start" x="1148" y="-491.7" font-family="arial" font-size="14.00" fill="#377eb8">true</text>
</g>
<!-- st0234&#45;&gt;st0234 -->
<g id="edge74" class="edge">
<title>st0234&#45;&gt;st0234</title>
<path fill="none" stroke="black" d="M1023.71,-776.07C1022.76,-785.81 1029.86,-793.9 1045,-793.9 1054.46,-793.9 1060.78,-790.74 1063.96,-785.99"/>
<polygon fill="black" stroke="black" points="1067.41,-786.61 1066.29,-776.07 1060.6,-785.01 1067.41,-786.61"/>
<text text-anchor="start" x="1033" y="-797.7" font-family="arial" font-size="14.00" fill="#377eb8">true</text>
</g>
<!-- st0234&#45;&gt;st034 -->
<g id="edge72" class="edge">
<title>st0234&#45;&gt;st034</title>
<path fill="none" stroke="black" d="M1073.09,-725.86C1092.62,-709.01 1120.31,-687.48 1148,-673.9 1269.57,-614.25 1309.93,-623.81 1442,-593.9 1465.63,-588.54 1847.27,-520.77 1871,-515.9 1923.7,-505.08 1937.01,-502.72 1989,-488.9 1991.64,-488.2 1994.32,-487.47 1997.02,-486.72"/>
<polygon fill="black" stroke="black" points="1998.21,-490.02 2006.88,-483.93 1996.3,-483.28 1998.21,-490.02"/>
<text text-anchor="start" x="1504.5" y="-597.7" font-family="arial" font-size="14.00" fill="#377eb8">(R&#39; || T&#39;)</text>
</g>
<!-- st0234&#45;&gt;st0134 -->
<g id="edge76" class="edge">
<title>st0234&#45;&gt;st0134</title>
<path fill="none" stroke="black" d="M1053.36,-776.18C1074.83,-844.01 1144.13,-1024.9 1272.5,-1024.9 1272.5,-1024.9 1272.5,-1024.9 1659.5,-1024.9 1831.05,-1024.9 1847.88,-920.99 2007,-856.9 2007.82,-856.57 2248.45,-778.59 2249,-777.9 2275.24,-745.14 2248.56,-627.6 2267,-589.9 2275.33,-572.85 2289.21,-557.65 2303.12,-545.41"/>
<polygon fill="black" stroke="black" points="2305.43,-548.04 2310.81,-538.92 2300.91,-542.69 2305.43,-548.04"/>
<text text-anchor="start" x="1646.5" y="-1028.7" font-family="arial" font-size="14.00" fill="#377eb8">true</text>
</g>
<!-- st0234&#45;&gt;st04 -->
<g id="edge71" class="edge">
<title>st0234&#45;&gt;st04</title>
<path fill="none" stroke="black" d="M1054.38,-725.52C1071.39,-674.31 1111.42,-555.03 1148,-455.9 1211.54,-283.7 1234.11,-228.54 1375,-110.9 1611.48,86.57 1727.66,-39.9 2198,-39.9 2198,-39.9 2198,-39.9 2580.5,-39.9 2642.91,-39.9 2669.97,-51.94 2706,-102.9 2753.38,-169.9 2761.4,-425.25 2762.74,-519.59"/>
<polygon fill="black" stroke="black" points="2759.24,-519.81 2762.87,-529.76 2766.24,-519.72 2759.24,-519.81"/>
<text text-anchor="start" x="1889" y="-35.7" font-family="arial" font-size="14.00" fill="#377eb8">(R&#39; || (T&#39; &amp;&amp; !U&#39;))</text>
</g>
<!-- st0234&#45;&gt;st014 -->
<g id="edge75" class="edge">
<title>st0234&#45;&gt;st014</title>
<path fill="none" stroke="black" d="M1049.17,-776.13C1058.2,-835.4 1090.23,-981.91 1190,-1026.9 1405.01,-1123.85 2015.97,-1134.32 2249,-1097.9 2373.5,-1078.44 2434.68,-1076.42 2502,-969.9 2503.32,-967.81 2545.61,-842.52 2566.74,-779.84"/>
<polygon fill="black" stroke="black" points="2570.18,-780.57 2570.06,-769.98 2563.55,-778.34 2570.18,-780.57"/>
<text text-anchor="start" x="1759" y="-1120.7" font-family="arial" font-size="14.00" fill="#377eb8">(R&#39; || !U&#39;)</text>
</g>
<!-- st0234&#45;&gt;st0124 -->
<g id="edge77" class="edge">
<title>st0234&#45;&gt;st0124</title>
<path fill="none" stroke="black" d="M1089.36,-775.93C1117.24,-790.94 1154.73,-809.15 1190,-819.9 1371.33,-875.17 1427.61,-861.98 1616,-840.9 1646.14,-837.52 1654.47,-838.21 1683,-827.9 1701.43,-821.23 1720.55,-811.58 1737.18,-802.15"/>
<polygon fill="black" stroke="black" points="1739.24,-805 1746.14,-796.96 1735.73,-798.94 1739.24,-805"/>
<text text-anchor="start" x="1387.5" y="-862.7" font-family="arial" font-size="14.00" fill="#377eb8">true</text>
</g>
<!-- st0234&#45;&gt;st024 -->
<g id="edge73" class="edge">
<title>st0234&#45;&gt;st024</title>
<path fill="none" stroke="black" d="M1130.16,-750.1C1192.73,-749.7 1280.21,-749.55 1357,-750.9 1381.17,-751.32 1407.25,-752.08 1431.59,-752.92"/>
<polygon fill="black" stroke="black" points="1431.78,-756.43 1441.9,-753.29 1432.03,-749.43 1431.78,-756.43"/>
<text text-anchor="start" x="1261.5" y="-754.7" font-family="arial" font-size="14.00" fill="#377eb8">true</text>
</g>
<!-- st034&#45;&gt;st01234 -->
<g id="edge62" class="edge">
<title>st034&#45;&gt;st01234</title>
<path fill="none" stroke="black" d="M2038.45,-439.8C2024.38,-429.3 2006.77,-418.11 1989,-411.9 1877.01,-372.76 1533.99,-375.89 1367.33,-380"/>
<polygon fill="black" stroke="black" points="1367,-376.51 1357.09,-380.26 1367.18,-383.5 1367,-376.51"/>
<text text-anchor="start" x="1646.5" y="-382.7" font-family="arial" font-size="14.00" fill="#377eb8">true</text>
</g>
<!-- st034&#45;&gt;st034 -->
<g id="edge58" class="edge">
<title>st034&#45;&gt;st034</title>
<path fill="none" stroke="black" d="M2044.72,-490.07C2043.64,-499.81 2051.73,-507.9 2069,-507.9 2079.79,-507.9 2087,-504.74 2090.62,-499.99"/>
<polygon fill="black" stroke="black" points="2094.07,-500.64 2093.28,-490.07 2087.31,-498.83 2094.07,-500.64"/>
<text text-anchor="start" x="2057" y="-511.7" font-family="arial" font-size="14.00" fill="#377eb8">true</text>
</g>
<!-- st034&#45;&gt;st0134 -->
<g id="edge60" class="edge">
<title>st034&#45;&gt;st0134</title>
<path fill="none" stroke="black" d="M2131.37,-485.53C2137.29,-487.16 2143.24,-488.65 2149,-489.9 2183.74,-497.42 2222.45,-502.77 2256.4,-506.48"/>
<polygon fill="black" stroke="black" points="2256.46,-510 2266.77,-507.57 2257.19,-503.04 2256.46,-510"/>
<text text-anchor="start" x="2187" y="-508.7" font-family="arial" font-size="14.00" fill="#377eb8">true</text>
</g>
<!-- st034&#45;&gt;st04 -->
<g id="edge57" class="edge">
<title>st034&#45;&gt;st04</title>
<path fill="none" stroke="black" d="M2131.2,-458.08C2137.21,-457.6 2143.22,-457.19 2149,-456.9 2193.39,-454.65 2204.64,-454.09 2249,-456.9 2422.24,-467.86 2623.24,-517.06 2714.03,-541.3"/>
<polygon fill="black" stroke="black" points="2713.2,-544.71 2723.77,-543.92 2715.02,-537.95 2713.2,-544.71"/>
<text text-anchor="start" x="2448" y="-494.7" font-family="arial" font-size="14.00" fill="#377eb8">(R&#39; || !U&#39;)</text>
</g>
<!-- st034&#45;&gt;st014 -->
<g id="edge59" class="edge">
<title>st034&#45;&gt;st014</title>
<path fill="none" stroke="black" d="M2101.05,-489.97C2115.28,-500.95 2132.59,-513.65 2149,-523.9 2273.21,-601.48 2427.83,-676.06 2513.56,-715.63"/>
<polygon fill="black" stroke="black" points="2512.11,-718.81 2522.65,-719.81 2515.03,-712.45 2512.11,-718.81"/>
<text text-anchor="start" x="2321.5" y="-677.7" font-family="arial" font-size="14.00" fill="#377eb8">(R&#39; || !U&#39;)</text>
</g>
<!-- st034&#45;&gt;st0124 -->
<g id="edge61" class="edge">
<title>st034&#45;&gt;st0124</title>
<path fill="none" stroke="black" d="M2047.39,-490.15C2032.75,-506.45 2011.72,-526.79 1989,-538.9 1948.75,-560.33 1923.87,-532.51 1889,-561.9 1873.16,-575.25 1879.66,-586.08 1871,-604.9 1849.55,-651.52 1822.55,-704.26 1805.04,-737.78"/>
<polygon fill="black" stroke="black" points="1801.9,-736.22 1800.36,-746.7 1808.1,-739.47 1801.9,-736.22"/>
<text text-anchor="start" x="1927" y="-565.7" font-family="arial" font-size="14.00" fill="#377eb8">true</text>
</g>
<!-- st0134&#45;&gt;st01234 -->
<g id="edge70" class="edge">
<title>st0134&#45;&gt;st01234</title>
<path fill="none" stroke="black" d="M2325.47,-488.6C2281.84,-441.45 2179.15,-344.9 2070,-344.9 1528,-344.9 1528,-344.9 1528,-344.9 1474.3,-344.9 1414.9,-353.34 1367.11,-362.27"/>
<polygon fill="black" stroke="black" points="1366.26,-358.86 1357.09,-364.17 1367.57,-365.74 1366.26,-358.86"/>
<text text-anchor="start" x="1774" y="-348.7" font-family="arial" font-size="14.00" fill="#377eb8">true</text>
</g>
<!-- st0134&#45;&gt;st0234 -->
<g id="edge66" class="edge">
<title>st0134&#45;&gt;st0234</title>
<path fill="none" stroke="black" d="M2281.86,-538.97C2270.95,-542.83 2259.7,-546.61 2249,-549.9 2135.13,-584.83 2105.72,-591.12 1989,-614.9 1824.54,-648.39 1782.28,-651.1 1616,-673.9 1509.17,-688.55 1481.9,-687.73 1375,-701.9 1295.64,-712.41 1205.75,-725.91 1140,-736.07"/>
<polygon fill="black" stroke="black" points="1139.42,-732.62 1130.08,-737.61 1140.49,-739.54 1139.42,-732.62"/>
<text text-anchor="start" x="1646.5" y="-674.7" font-family="arial" font-size="14.00" fill="#377eb8">true</text>
</g>
<!-- st0134&#45;&gt;st034 -->
<g id="edge64" class="edge">
<title>st0134&#45;&gt;st034</title>
<path fill="none" stroke="black" d="M2299.89,-488.8C2284.12,-481.67 2266.2,-474.79 2249,-470.9 2214.1,-463 2174.4,-460.99 2141.27,-461.17"/>
<polygon fill="black" stroke="black" points="2141.17,-457.67 2131.21,-461.29 2141.25,-464.67 2141.17,-457.67"/>
<text text-anchor="start" x="2174.5" y="-474.7" font-family="arial" font-size="14.00" fill="#377eb8">(R&#39; || T&#39;)</text>
</g>
<!-- st0134&#45;&gt;st0134 -->
<g id="edge68" class="edge">
<title>st0134&#45;&gt;st0134</title>
<path fill="none" stroke="black" d="M2324.97,-539.07C2323.92,-548.81 2331.77,-556.9 2348.5,-556.9 2358.96,-556.9 2365.95,-553.74 2369.46,-548.99"/>
<polygon fill="black" stroke="black" points="2372.91,-549.63 2372.03,-539.07 2366.13,-547.87 2372.91,-549.63"/>
<text text-anchor="start" x="2336.5" y="-560.7" font-family="arial" font-size="14.00" fill="#377eb8">true</text>
</g>
<!-- st0134&#45;&gt;st04 -->
<g id="edge63" class="edge">
<title>st0134&#45;&gt;st04</title>
<path fill="none" stroke="black" d="M2430.21,-521.9C2514.27,-530.23 2643.27,-543.02 2713.41,-549.98"/>
<polygon fill="black" stroke="black" points="2713.44,-553.5 2723.74,-551 2714.13,-546.53 2713.44,-553.5"/>
<text text-anchor="start" x="2529.5" y="-545.7" font-family="arial" font-size="14.00" fill="#377eb8">(R&#39; || (T&#39; &amp;&amp; !U&#39;))</text>
</g>
<!-- st0134&#45;&gt;st014 -->
<g id="edge67" class="edge">
<title>st0134&#45;&gt;st014</title>
<path fill="none" stroke="black" d="M2430.13,-535.61C2455.51,-545.55 2482.08,-559.54 2502,-578.9 2539.24,-615.07 2560.13,-672.82 2570.35,-709.78"/>
<polygon fill="black" stroke="black" points="2567.01,-710.85 2572.96,-719.62 2573.78,-709.06 2567.01,-710.85"/>
<text text-anchor="start" x="2448" y="-582.7" font-family="arial" font-size="14.00" fill="#377eb8">(R&#39; || !U&#39;)</text>
</g>
<!-- st0134&#45;&gt;st0124 -->
<g id="edge69" class="edge">
<title>st0134&#45;&gt;st0124</title>
<path fill="none" stroke="black" d="M2311.22,-539.1C2295.64,-551.58 2278.43,-567.83 2267,-585.9 2251.89,-609.79 2269.84,-627.8 2249,-646.9 2168.1,-721.04 2102.29,-641.48 2007,-695.9 1996.62,-701.83 1999.17,-709.6 1989,-715.9 1988.35,-716.3 1933.3,-731.55 1880.84,-746.03"/>
<polygon fill="black" stroke="black" points="1879.8,-742.69 1871.09,-748.72 1881.66,-749.44 1879.8,-742.69"/>
<text text-anchor="start" x="2057" y="-699.7" font-family="arial" font-size="14.00" fill="#377eb8">true</text>
</g>
<!-- st0134&#45;&gt;st024 -->
<g id="edge65" class="edge">
<title>st0134&#45;&gt;st024</title>
<path fill="none" stroke="black" d="M2266.54,-525.37C2151.72,-542.89 1948.84,-578.87 1889,-621.9 1876.68,-630.75 1883.56,-642.39 1871,-650.9 1807.46,-693.9 1774.38,-658.48 1701,-680.9 1661.83,-692.86 1619.78,-711.47 1587.17,-727.28"/>
<polygon fill="black" stroke="black" points="1585.25,-724.33 1577.81,-731.87 1588.33,-730.61 1585.25,-724.33"/>
<text text-anchor="start" x="1927" y="-625.7" font-family="arial" font-size="14.00" fill="#377eb8">true</text>
</g>
<!-- st04&#45;&gt;st01234 -->
<g id="edge34" class="edge">
<title>st04&#45;&gt;st01234</title>
<path fill="none" stroke="black" d="M2762.14,-529.66C2759.09,-452.6 2746.68,-221.93 2706,-160.9 2669.96,-106.83 2645.48,-85.9 2580.5,-85.9 2198,-85.9 2198,-85.9 2198,-85.9 2029.94,-85.9 1600.49,-50.98 1442,-106.9 1406.71,-119.35 1398.24,-128.57 1375,-157.9 1328.21,-216.94 1298.24,-301.2 1284.09,-348.06"/>
<polygon fill="black" stroke="black" points="1280.7,-347.17 1281.23,-357.75 1287.42,-349.15 1280.7,-347.17"/>
<text text-anchor="start" x="2057" y="-88.7" font-family="arial" font-size="14.00" fill="#377eb8">true</text>
</g>
<!-- st04&#45;&gt;st04 -->
<g id="edge31" class="edge">
<title>st04&#45;&gt;st04</title>
<path fill="none" stroke="black" d="M2748.69,-580.07C2748,-589.81 2753.11,-597.9 2764,-597.9 2770.81,-597.9 2775.35,-594.74 2777.64,-589.99"/>
<polygon fill="black" stroke="black" points="2781.1,-590.52 2779.31,-580.07 2774.2,-589.35 2781.1,-590.52"/>
<text text-anchor="start" x="2752" y="-601.7" font-family="arial" font-size="14.00" fill="#377eb8">true</text>
</g>
<!-- st04&#45;&gt;st014 -->
<g id="edge32" class="edge">
<title>st04&#45;&gt;st014</title>
<path fill="none" stroke="black" d="M2738.96,-579.93C2706.38,-613.85 2648.15,-674.47 2612.08,-712.02"/>
<polygon fill="black" stroke="black" points="2609.14,-710.03 2604.73,-719.67 2614.19,-714.88 2609.14,-710.03"/>
<text text-anchor="start" x="2669.5" y="-664.7" font-family="arial" font-size="14.00" fill="#377eb8">true</text>
</g>
<!-- st04&#45;&gt;st0124 -->
<g id="edge33" class="edge">
<title>st04&#45;&gt;st0124</title>
<path fill="none" stroke="black" d="M2759.29,-580.02C2749.97,-633.22 2720.19,-756.86 2639,-811.9 2523.96,-889.88 2193.07,-892.97 2007,-857.9 1949.74,-847.1 1888.28,-821.8 1844.91,-801.42"/>
<polygon fill="black" stroke="black" points="1846.2,-798.16 1835.67,-797.02 1843.19,-804.48 1846.2,-798.16"/>
<text text-anchor="start" x="2336.5" y="-882.7" font-family="arial" font-size="14.00" fill="#377eb8">true</text>
</g>
<!-- st014&#45;&gt;st01234 -->
<g id="edge40" class="edge">
<title>st014&#45;&gt;st01234</title>
<path fill="none" stroke="black" d="M2573.49,-719.57C2564.49,-678.76 2542.64,-597.23 2502,-539.9 2427.61,-434.94 2340.38,-476.57 2267,-370.9 2247.2,-342.38 2274.81,-318.11 2249,-294.9 2182.32,-234.94 1530.22,-273.87 1442,-289.9 1411.42,-295.45 1402.86,-296.12 1375,-309.9 1352.54,-321 1329.76,-337.07 1311.58,-351.3"/>
<polygon fill="black" stroke="black" points="1309.21,-348.72 1303.57,-357.69 1313.57,-354.19 1309.21,-348.72"/>
<text text-anchor="start" x="1927" y="-267.7" font-family="arial" font-size="14.00" fill="#377eb8">true</text>
</g>
<!-- st014&#45;&gt;st0234 -->
<g id="edge37" class="edge">
<title>st014&#45;&gt;st0234</title>
<path fill="none" stroke="black" d="M2567.87,-770.01C2554.26,-803.35 2531.11,-864.41 2520,-918.9 2514.88,-944.01 2519.41,-1130.08 2502,-1148.9 2455.41,-1199.27 2418.11,-1172.9 2349.5,-1172.9 1938,-1172.9 1938,-1172.9 1938,-1172.9 1915.89,-1172.9 1164.99,-1091.04 1148,-1076.9 1059.75,-1003.42 1046.64,-854.58 1045.5,-786.43"/>
<polygon fill="black" stroke="black" points="1049,-786.17 1045.41,-776.2 1042,-786.23 1049,-786.17"/>
<text text-anchor="start" x="1774" y="-1169.7" font-family="arial" font-size="14.00" fill="#377eb8">true</text>
</g>
<!-- st014&#45;&gt;st04 -->
<g id="edge35" class="edge">
<title>st014&#45;&gt;st04</title>
<path fill="none" stroke="black" d="M2587.44,-719.74C2597.63,-687.22 2619.57,-630.76 2657,-596.9 2673.01,-582.41 2694.62,-572.64 2714.15,-566.21"/>
<polygon fill="black" stroke="black" points="2715.31,-569.51 2723.84,-563.22 2713.25,-562.82 2715.31,-569.51"/>
<text text-anchor="start" x="2657" y="-600.7" font-family="arial" font-size="14.00" fill="#377eb8">(R&#39; || T&#39;)</text>
</g>
<!-- st014&#45;&gt;st014 -->
<g id="edge38" class="edge">
<title>st014&#45;&gt;st014</title>
<path fill="none" stroke="black" d="M2560.45,-770.07C2559.6,-779.81 2565.95,-787.9 2579.5,-787.9 2587.97,-787.9 2593.62,-784.74 2596.47,-779.99"/>
<polygon fill="black" stroke="black" points="2599.92,-780.58 2598.55,-770.07 2593.07,-779.14 2599.92,-780.58"/>
<text text-anchor="start" x="2567.5" y="-791.7" font-family="arial" font-size="14.00" fill="#377eb8">true</text>
</g>
<!-- st014&#45;&gt;st0124 -->
<g id="edge39" class="edge">
<title>st014&#45;&gt;st0124</title>
<path fill="none" stroke="black" d="M2519.89,-746.9C2384.08,-751.53 2046.86,-763.03 1881.49,-768.67"/>
<polygon fill="black" stroke="black" points="1881.2,-765.18 1871.33,-769.02 1881.44,-772.18 1881.2,-765.18"/>
<text text-anchor="start" x="2187" y="-762.7" font-family="arial" font-size="14.00" fill="#377eb8">true</text>
</g>
<!-- st014&#45;&gt;st024 -->
<g id="edge36" class="edge">
<title>st014&#45;&gt;st024</title>
<path fill="none" stroke="black" d="M2526.94,-770.03C2518.73,-773.38 2510.23,-776.49 2502,-778.9 2470.93,-788 2462.14,-786.04 2430,-789.9 2145.71,-824.04 1842.33,-871.03 1701,-838.9 1657.13,-828.92 1611.37,-806.23 1578.24,-787.24"/>
<polygon fill="black" stroke="black" points="1579.64,-784.01 1569.24,-782 1576.12,-790.06 1579.64,-784.01"/>
<text text-anchor="start" x="2057" y="-842.7" font-family="arial" font-size="14.00" fill="#377eb8">true</text>
</g>
<!-- st0124&#45;&gt;st01234 -->
<g id="edge56" class="edge">
<title>st0124&#45;&gt;st01234</title>
<path fill="none" stroke="black" d="M1764.69,-746.65C1746.31,-722.96 1719.4,-686 1701,-650.9 1690.42,-630.72 1697.04,-620.84 1683,-602.9 1600.33,-497.25 1544.01,-507.84 1424,-447.9 1398.85,-435.34 1370.72,-422.74 1345.7,-412.02"/>
<polygon fill="black" stroke="black" points="1346.85,-408.71 1336.28,-408.01 1344.11,-415.15 1346.85,-408.71"/>
<text text-anchor="start" x="1517" y="-539.7" font-family="arial" font-size="14.00" fill="#377eb8">true</text>
</g>
<!-- st0124&#45;&gt;st0234 -->
<g id="edge52" class="edge">
<title>st0124&#45;&gt;st0234</title>
<path fill="none" stroke="black" d="M1719.84,-796.93C1688.89,-807.52 1651.06,-818.62 1616,-823.9 1448.24,-849.12 1251.86,-808.63 1138.89,-778.59"/>
<polygon fill="black" stroke="black" points="1139.79,-775.21 1129.23,-775.99 1137.98,-781.97 1139.79,-775.21"/>
<text text-anchor="start" x="1387.5" y="-831.7" font-family="arial" font-size="14.00" fill="#377eb8">true</text>
</g>
<!-- st0124&#45;&gt;st034 -->
<g id="edge50" class="edge">
<title>st0124&#45;&gt;st034</title>
<path fill="none" stroke="black" d="M1816.41,-746.87C1835.86,-731.51 1862.57,-712.61 1889,-700.9 1930.7,-682.42 1954.74,-708 1989,-677.9 2002.91,-665.68 2038.9,-556.84 2057.11,-499.66"/>
<polygon fill="black" stroke="black" points="2060.5,-500.54 2060.19,-489.95 2053.83,-498.42 2060.5,-500.54"/>
<text text-anchor="start" x="1914.5" y="-704.7" font-family="arial" font-size="14.00" fill="#377eb8">(R&#39; || T&#39;)</text>
</g>
<!-- st0124&#45;&gt;st0134 -->
<g id="edge54" class="edge">
<title>st0124&#45;&gt;st0134</title>
<path fill="none" stroke="black" d="M1871.19,-759.98C1907.51,-754.59 1950.42,-747.86 1989,-740.9 2003.52,-738.28 2238.72,-697.48 2249,-686.9 2280.78,-654.2 2244.79,-625.72 2267,-585.9 2275.47,-570.71 2288.37,-557.07 2301.38,-545.86"/>
<polygon fill="black" stroke="black" points="2303.96,-548.26 2309.45,-539.2 2299.51,-542.87 2303.96,-548.26"/>
<text text-anchor="start" x="2057" y="-740.7" font-family="arial" font-size="14.00" fill="#377eb8">true</text>
</g>
<!-- st0124&#45;&gt;st04 -->
<g id="edge49" class="edge">
<title>st0124&#45;&gt;st04</title>
<path fill="none" stroke="black" d="M1813.01,-797.15C1832.46,-814.69 1860.51,-837.27 1889,-850.9 2106.74,-955 2190.38,-926.71 2430,-897.9 2562.45,-881.97 2640.09,-895.88 2706,-779.9 2740.72,-718.79 2754.59,-636.51 2759.9,-590.27"/>
<polygon fill="black" stroke="black" points="2763.4,-590.46 2760.99,-580.15 2756.44,-589.71 2763.4,-590.46"/>
<text text-anchor="start" x="2298.5" y="-921.7" font-family="arial" font-size="14.00" fill="#377eb8">(R&#39; || (T&#39; &amp;&amp; !U&#39;))</text>
</g>
<!-- st0124&#45;&gt;st014 -->
<g id="edge53" class="edge">
<title>st0124&#45;&gt;st014</title>
<path fill="none" stroke="black" d="M1871.02,-779.01C1877.1,-779.36 1883.14,-779.67 1889,-779.9 1933.41,-781.64 1944.56,-780.07 1989,-779.9 2217.14,-779.02 2276.12,-793.94 2502,-761.9 2504.53,-761.54 2507.11,-761.14 2509.7,-760.71"/>
<polygon fill="black" stroke="black" points="2510.55,-764.11 2519.78,-758.91 2509.32,-757.22 2510.55,-764.11"/>
<text text-anchor="start" x="2172" y="-785.7" font-family="arial" font-size="14.00" fill="#377eb8">(R&#39; || !U&#39;)</text>
</g>
<!-- st0124&#45;&gt;st0124 -->
<g id="edge55" class="edge">
<title>st0124&#45;&gt;st0124</title>
<path fill="none" stroke="black" d="M1762.47,-797.07C1761.42,-806.81 1769.27,-814.9 1786,-814.9 1796.46,-814.9 1803.45,-811.74 1806.96,-806.99"/>
<polygon fill="black" stroke="black" points="1810.41,-807.63 1809.53,-797.07 1803.63,-805.87 1810.41,-807.63"/>
<text text-anchor="start" x="1774" y="-818.7" font-family="arial" font-size="14.00" fill="#377eb8">true</text>
</g>
<!-- st0124&#45;&gt;st024 -->
<g id="edge51" class="edge">
<title>st0124&#45;&gt;st024</title>
<path fill="none" stroke="black" d="M1700.73,-761.33C1694.74,-760.78 1688.78,-760.29 1683,-759.9 1664.69,-758.64 1645.12,-757.85 1626.3,-757.35"/>
<polygon fill="black" stroke="black" points="1626.32,-753.85 1616.24,-757.12 1626.16,-760.85 1626.32,-753.85"/>
<text text-anchor="start" x="1646.5" y="-763.7" font-family="arial" font-size="14.00" fill="#377eb8">true</text>
</g>
<!-- st024&#45;&gt;st01234 -->
<g id="edge48" class="edge">
<title>st024&#45;&gt;st01234</title>
<path fill="none" stroke="black" d="M1496.47,-731.88C1477.39,-714.85 1454.4,-690.63 1442,-663.9 1414.48,-604.59 1454.16,-575.9 1424,-517.9 1420.54,-511.23 1354.39,-452.71 1311.25,-414.94"/>
<polygon fill="black" stroke="black" points="1313.31,-412.09 1303.48,-408.14 1308.71,-417.36 1313.31,-412.09"/>
<text text-anchor="start" x="1387.5" y="-521.7" font-family="arial" font-size="14.00" fill="#377eb8">true</text>
</g>
<!-- st024&#45;&gt;st0234 -->
<g id="edge44" class="edge">
<title>st024&#45;&gt;st0234</title>
<path fill="none" stroke="black" d="M1441.74,-763.55C1435.74,-764.01 1429.78,-764.46 1424,-764.9 1394.22,-767.15 1386.84,-768.78 1357,-769.9 1282.83,-772.66 1264.09,-774.29 1190,-769.9 1171.23,-768.78 1166.65,-767.29 1148,-764.9 1145.44,-764.57 1142.84,-764.23 1140.23,-763.89"/>
<polygon fill="black" stroke="black" points="1140.4,-760.39 1130.03,-762.55 1139.49,-767.33 1140.4,-760.39"/>
<text text-anchor="start" x="1261.5" y="-775.7" font-family="arial" font-size="14.00" fill="#377eb8">true</text>
</g>
<!-- st024&#45;&gt;st034 -->
<g id="edge42" class="edge">
<title>st024&#45;&gt;st034</title>
<path fill="none" stroke="black" d="M1555.91,-731.77C1576.12,-713 1605.46,-687.48 1634,-668.9 1683.06,-636.96 1820.19,-582.98 1871,-553.9 1879.34,-549.12 1880.26,-545.91 1889,-541.9 1930.94,-522.63 1946.75,-532.47 1989,-513.9 2000.66,-508.77 2012.64,-502.15 2023.63,-495.44"/>
<polygon fill="black" stroke="black" points="2025.59,-498.35 2032.21,-490.07 2021.87,-492.41 2025.59,-498.35"/>
<text text-anchor="start" x="1761.5" y="-635.7" font-family="arial" font-size="14.00" fill="#377eb8">(R&#39; || T&#39;)</text>
</g>
<!-- st024&#45;&gt;st0134 -->
<g id="edge46" class="edge">
<title>st024&#45;&gt;st0134</title>
<path fill="none" stroke="black" d="M1616.05,-744.3C1702.57,-730.47 1828.98,-706.79 1871,-680.9 1881.76,-674.27 1878.09,-665.26 1889,-658.9 1897.77,-653.79 2239.8,-601.18 2249,-596.9 2274.9,-584.85 2299.48,-564.16 2317.61,-546.45"/>
<polygon fill="black" stroke="black" points="2320.38,-548.62 2324.97,-539.07 2315.43,-543.68 2320.38,-548.62"/>
<text text-anchor="start" x="1927" y="-662.7" font-family="arial" font-size="14.00" fill="#377eb8">true</text>
</g>
<!-- st024&#45;&gt;st04 -->
<g id="edge41" class="edge">
<title>st024&#45;&gt;st04</title>
<path fill="none" stroke="black" d="M1548.16,-782.07C1576.87,-820.35 1636.17,-893.53 1701,-938.9 1906.35,-1082.58 1999.33,-1093.8 2249,-1071.9 2479.21,-1051.7 2591.88,-1024.85 2706,-823.9 2748.99,-748.2 2759.65,-643.86 2762.23,-590.09"/>
<polygon fill="black" stroke="black" points="2765.73,-590.17 2762.65,-580.03 2758.74,-589.88 2765.73,-590.17"/>
<text text-anchor="start" x="2149" y="-1082.7" font-family="arial" font-size="14.00" fill="#377eb8">(R&#39; || (T&#39; &amp;&amp; !U&#39;))</text>
</g>
<!-- st024&#45;&gt;st014 -->
<g id="edge45" class="edge">
<title>st024&#45;&gt;st014</title>
<path fill="none" stroke="black" d="M1559.55,-782.23C1579.87,-799.13 1607.81,-821.39 1634,-838.9 1640.75,-843.41 1881.18,-979.7 1889,-981.9 2120.55,-1046.99 2221.06,-1115.05 2430,-995.9 2512.15,-949.05 2553.48,-836.94 2569.82,-779.75"/>
<polygon fill="black" stroke="black" points="2573.21,-780.63 2572.5,-770.06 2566.46,-778.77 2573.21,-780.63"/>
<text text-anchor="start" x="2042" y="-1054.7" font-family="arial" font-size="14.00" fill="#377eb8">(R&#39; || !U&#39;)</text>
</g>
<!-- st024&#45;&gt;st0124 -->
<g id="edge47" class="edge">
<title>st024&#45;&gt;st0124</title>
<path fill="none" stroke="black" d="M1616.04,-776.54C1622.1,-777.48 1628.13,-778.28 1634,-778.9 1652.25,-780.81 1671.8,-781.15 1690.58,-780.64"/>
<polygon fill="black" stroke="black" points="1690.74,-784.14 1700.61,-780.29 1690.49,-777.14 1690.74,-784.14"/>
<text text-anchor="start" x="1646.5" y="-783.7" font-family="arial" font-size="14.00" fill="#377eb8">true</text>
</g>
<!-- st024&#45;&gt;st024 -->
<g id="edge43" class="edge">
<title>st024&#45;&gt;st024</title>
<path fill="none" stroke="black" d="M1505.09,-782.07C1504.03,-791.81 1512,-799.9 1529,-799.9 1539.62,-799.9 1546.72,-796.74 1550.29,-791.99"/>
<polygon fill="black" stroke="black" points="1553.74,-792.63 1552.91,-782.07 1546.97,-790.85 1553.74,-792.63"/>
<text text-anchor="start" x="1517" y="-803.7" font-family="arial" font-size="14.00" fill="#377eb8">true</text>
</g>
</g>
</svg>
