<?xml version="1.0" encoding="UTF-8" standalone="no"?>
<!DOCTYPE svg PUBLIC "-//W3C//DTD SVG 1.1//EN"
 "http://www.w3.org/Graphics/SVG/1.1/DTD/svg11.dtd">
<!-- Generated by graphviz version 2.43.0 (0)
 -->
<!-- Title: G Pages: 1 -->
<svg width="857pt" height="292pt"
 viewBox="0.00 0.00 857.00 292.19" xmlns="http://www.w3.org/2000/svg" xmlns:xlink="http://www.w3.org/1999/xlink">
<g id="graph0" class="graph" transform="scale(1 1) rotate(0) translate(4 288.19)">
<title>G</title>
<polygon fill="white" stroke="transparent" points="-4,4 -4,-288.19 853,-288.19 853,4 -4,4"/>
<!-- _ID_90_ct1_st0 -->
<!-- ID_90_ct1_st0 -->
<g id="node2" class="node">
<title>ID_90_ct1_st0</title>
<polygon fill="none" stroke="black" points="261,-194.19 154,-194.19 154,-144.19 261,-144.19 261,-194.19"/>
<text text-anchor="start" x="162" y="-179.99" font-family="arial" font-weight="bold" font-size="14.00">ID_90_ct1_st0</text>
<text text-anchor="start" x="201" y="-165.99" font-family="arial" font-size="14.00" fill="#984ea3">!P</text>
<text text-anchor="start" x="195.5" y="-151.99" font-family="arial" font-size="14.00" fill="#ff7f00">true</text>
</g>
<!-- _ID_90_ct1_st0&#45;&gt;ID_90_ct1_st0 -->
<g id="edge1" class="edge">
<title>_ID_90_ct1_st0&#45;&gt;ID_90_ct1_st0</title>
<path fill="none" stroke="black" d="M111.08,-169.19C121.62,-169.19 132.74,-169.19 143.52,-169.19"/>
<polygon fill="black" stroke="black" points="143.72,-172.7 153.72,-169.19 143.72,-165.7 143.72,-172.7"/>
</g>
<!-- ID_90_ct1_st0&#45;&gt;ID_90_ct1_st0 -->
<g id="edge4" class="edge">
<title>ID_90_ct1_st0&#45;&gt;ID_90_ct1_st0</title>
<path fill="none" stroke="black" d="M192.93,-194.37C192.28,-204.1 197.14,-212.19 207.5,-212.19 213.97,-212.19 218.3,-209.03 220.47,-204.29"/>
<polygon fill="black" stroke="black" points="223.94,-204.8 222.07,-194.37 217.03,-203.69 223.94,-204.8"/>
<text text-anchor="start" x="195.5" y="-215.99" font-family="arial" font-size="14.00" fill="#377eb8">true</text>
</g>
<!-- ID_90_ct1_st01 -->
<g id="node4" class="node">
<title>ID_90_ct1_st01</title>
<polygon fill="none" stroke="black" points="441,-96.19 327,-96.19 327,-46.19 441,-46.19 441,-96.19"/>
<text text-anchor="start" x="335" y="-81.99" font-family="arial" font-weight="bold" font-size="14.00">ID_90_ct1_st01</text>
<text text-anchor="start" x="357.5" y="-67.99" font-family="arial" font-size="14.00" fill="#984ea3">(P &amp;&amp; S)</text>
<text text-anchor="start" x="372" y="-53.99" font-family="arial" font-size="14.00" fill="#ff7f00">true</text>
</g>
<!-- ID_90_ct1_st0&#45;&gt;ID_90_ct1_st01 -->
<g id="edge5" class="edge">
<title>ID_90_ct1_st0&#45;&gt;ID_90_ct1_st01</title>
<path fill="none" stroke="black" d="M231.98,-144.01C246.18,-130.03 265.31,-113.28 285,-102.19 294.98,-96.57 306.12,-91.82 317.21,-87.86"/>
<polygon fill="black" stroke="black" points="318.56,-91.1 326.91,-84.58 316.31,-84.47 318.56,-91.1"/>
<text text-anchor="start" x="285" y="-105.99" font-family="arial" font-size="14.00" fill="#377eb8">true</text>
</g>
<!-- ID_90_ct1_st012 -->
<g id="node6" class="node">
<title>ID_90_ct1_st012</title>
<polygon fill="none" stroke="black" points="849,-159.19 727,-159.19 727,-109.19 849,-109.19 849,-159.19"/>
<text text-anchor="start" x="735" y="-144.99" font-family="arial" font-weight="bold" font-size="14.00">ID_90_ct1_st012</text>
<text text-anchor="start" x="735.5" y="-130.99" font-family="arial" font-size="14.00" fill="#984ea3">(P &amp;&amp; (!R &amp;&amp; !S))</text>
<text text-anchor="start" x="776" y="-116.99" font-family="arial" font-size="14.00" fill="#ff7f00">true</text>
</g>
<!-- ID_90_ct1_st0&#45;&gt;ID_90_ct1_st012 -->
<g id="edge6" class="edge">
<title>ID_90_ct1_st0&#45;&gt;ID_90_ct1_st012</title>
<path fill="none" stroke="black" d="M261.07,-188.06C347.73,-216.24 525.09,-261.49 667,-217.19 699.45,-207.07 730.85,-184.75 753.38,-165.81"/>
<polygon fill="black" stroke="black" points="755.68,-168.45 760.97,-159.28 751.11,-163.15 755.68,-168.45"/>
<text text-anchor="start" x="479" y="-238.99" font-family="arial" font-size="14.00" fill="#377eb8">true</text>
</g>
<!-- _ID_90_ct1_st01 -->
<!-- _ID_90_ct1_st01&#45;&gt;ID_90_ct1_st01 -->
<g id="edge2" class="edge">
<title>_ID_90_ct1_st01&#45;&gt;ID_90_ct1_st01</title>
<path fill="none" stroke="black" d="M267.09,-69.2C283.08,-69.48 300.51,-69.78 316.89,-70.06"/>
<polygon fill="black" stroke="black" points="316.87,-73.56 326.93,-70.23 316.99,-66.56 316.87,-73.56"/>
</g>
<!-- ID_90_ct1_st01&#45;&gt;ID_90_ct1_st0 -->
<g id="edge7" class="edge">
<title>ID_90_ct1_st01&#45;&gt;ID_90_ct1_st0</title>
<path fill="none" stroke="black" d="M343.79,-96.37C332.65,-103.3 320.44,-110.69 309,-117.19 295.89,-124.65 281.6,-132.31 268.02,-139.38"/>
<polygon fill="black" stroke="black" points="266.03,-136.47 258.76,-144.17 269.25,-142.69 266.03,-136.47"/>
<text text-anchor="start" x="290.5" y="-132.99" font-family="arial" font-size="14.00" fill="#377eb8">S&#39;</text>
</g>
<!-- ID_90_ct1_st01&#45;&gt;ID_90_ct1_st01 -->
<g id="edge9" class="edge">
<title>ID_90_ct1_st01&#45;&gt;ID_90_ct1_st01</title>
<path fill="none" stroke="black" d="M367.94,-96.37C367.22,-106.1 372.58,-114.19 384,-114.19 391.14,-114.19 395.91,-111.03 398.31,-106.29"/>
<polygon fill="black" stroke="black" points="401.76,-106.83 400.06,-96.37 394.87,-105.61 401.76,-106.83"/>
<text text-anchor="start" x="372" y="-117.99" font-family="arial" font-size="14.00" fill="#377eb8">true</text>
</g>
<!-- ID_90_ct1_st01&#45;&gt;ID_90_ct1_st012 -->
<g id="edge10" class="edge">
<title>ID_90_ct1_st01&#45;&gt;ID_90_ct1_st012</title>
<path fill="none" stroke="black" d="M441.05,-53.79C499.04,-38.67 591.52,-22.71 667,-47.19 700.5,-58.06 732.48,-82.18 754.99,-102.27"/>
<polygon fill="black" stroke="black" points="752.8,-105.01 762.54,-109.18 757.53,-99.84 752.8,-105.01"/>
<text text-anchor="start" x="592" y="-50.99" font-family="arial" font-size="14.00" fill="#377eb8">true</text>
</g>
<!-- ID_90_ct1_st02 -->
<g id="node7" class="node">
<title>ID_90_ct1_st02</title>
<polygon fill="none" stroke="black" points="666.5,-121.19 541.5,-121.19 541.5,-71.19 666.5,-71.19 666.5,-121.19"/>
<text text-anchor="start" x="555" y="-106.99" font-family="arial" font-weight="bold" font-size="14.00">ID_90_ct1_st02</text>
<text text-anchor="start" x="549.5" y="-92.99" font-family="arial" font-size="14.00" fill="#984ea3">(!P &amp;&amp; (!R &amp;&amp; !S))</text>
<text text-anchor="start" x="592" y="-78.99" font-family="arial" font-size="14.00" fill="#ff7f00">true</text>
</g>
<!-- ID_90_ct1_st01&#45;&gt;ID_90_ct1_st02 -->
<g id="edge8" class="edge">
<title>ID_90_ct1_st01&#45;&gt;ID_90_ct1_st02</title>
<path fill="none" stroke="black" d="M441.01,-68.01C466.2,-67.5 496.23,-68.17 523,-72.19 525.82,-72.62 528.68,-73.12 531.56,-73.68"/>
<polygon fill="black" stroke="black" points="530.86,-77.11 541.38,-75.82 532.35,-70.27 530.86,-77.11"/>
<text text-anchor="start" x="479" y="-75.99" font-family="arial" font-size="14.00" fill="#377eb8">true</text>
</g>
<!-- _ID_90_ct1_st012 -->
<!-- _ID_90_ct1_st012&#45;&gt;ID_90_ct1_st012 -->
<g id="edge3" class="edge">
<title>_ID_90_ct1_st012&#45;&gt;ID_90_ct1_st012</title>
<path fill="none" stroke="black" d="M663.59,-172.17C680.68,-166.91 699.54,-161.11 717.25,-155.66"/>
<polygon fill="black" stroke="black" points="718.43,-158.96 726.96,-152.67 716.37,-152.26 718.43,-158.96"/>
</g>
<!-- ID_90_ct1_st012&#45;&gt;ID_90_ct1_st0 -->
<g id="edge15" class="edge">
<title>ID_90_ct1_st012&#45;&gt;ID_90_ct1_st0</title>
<path fill="none" stroke="black" d="M769.32,-159.36C748.53,-186.28 711.19,-226.91 667,-240.19 522.25,-283.72 471.52,-276.49 327,-232.19 302.15,-224.58 276.45,-211.64 255.37,-199.46"/>
<polygon fill="black" stroke="black" points="257.02,-196.37 246.63,-194.3 253.46,-202.4 257.02,-196.37"/>
<text text-anchor="start" x="459" y="-272.99" font-family="arial" font-size="14.00" fill="#377eb8">(!R&#39; &amp;&amp; S&#39;)</text>
</g>
<!-- ID_90_ct1_st012&#45;&gt;ID_90_ct1_st01 -->
<g id="edge17" class="edge">
<title>ID_90_ct1_st012&#45;&gt;ID_90_ct1_st01</title>
<path fill="none" stroke="black" d="M771.46,-109.17C751.52,-79.87 713.84,-33.15 667,-16.19 579.72,15.41 546.51,-4.22 459,-35.19 453.39,-37.18 447.65,-39.47 441.97,-41.92"/>
<polygon fill="black" stroke="black" points="440.19,-38.88 432.49,-46.15 443.05,-45.27 440.19,-38.88"/>
<text text-anchor="start" x="595.5" y="-19.99" font-family="arial" font-size="14.00" fill="#377eb8">!R&#39;</text>
</g>
<!-- ID_90_ct1_st012&#45;&gt;ID_90_ct1_st012 -->
<g id="edge18" class="edge">
<title>ID_90_ct1_st012&#45;&gt;ID_90_ct1_st012</title>
<path fill="none" stroke="black" d="M771.19,-159.37C770.44,-169.1 776.05,-177.19 788,-177.19 795.47,-177.19 800.46,-174.03 802.97,-169.29"/>
<polygon fill="black" stroke="black" points="806.43,-169.84 804.81,-159.37 799.54,-168.57 806.43,-169.84"/>
<text text-anchor="start" x="776" y="-180.99" font-family="arial" font-size="14.00" fill="#377eb8">true</text>
</g>
<!-- ID_90_ct1_st012&#45;&gt;ID_90_ct1_st02 -->
<g id="edge16" class="edge">
<title>ID_90_ct1_st012&#45;&gt;ID_90_ct1_st02</title>
<path fill="none" stroke="black" d="M726.99,-121.67C710.94,-118.31 693.44,-114.66 676.82,-111.19"/>
<polygon fill="black" stroke="black" points="677.12,-107.68 666.62,-109.06 675.69,-114.53 677.12,-107.68"/>
<text text-anchor="start" x="685" y="-121.99" font-family="arial" font-size="14.00" fill="#377eb8">true</text>
</g>
<!-- ID_90_ct1_st02&#45;&gt;ID_90_ct1_st0 -->
<g id="edge11" class="edge">
<title>ID_90_ct1_st02&#45;&gt;ID_90_ct1_st0</title>
<path fill="none" stroke="black" d="M541.48,-114.02C511.38,-122.26 474.5,-131.64 441,-138.19 384.03,-149.33 318.42,-157.68 271.46,-162.89"/>
<polygon fill="black" stroke="black" points="270.99,-159.42 261.43,-163.99 271.75,-166.38 270.99,-159.42"/>
<text text-anchor="start" x="352" y="-158.99" font-family="arial" font-size="14.00" fill="#377eb8">(!R&#39; &amp;&amp; S&#39;)</text>
</g>
<!-- ID_90_ct1_st02&#45;&gt;ID_90_ct1_st01 -->
<g id="edge13" class="edge">
<title>ID_90_ct1_st02&#45;&gt;ID_90_ct1_st01</title>
<path fill="none" stroke="black" d="M541.49,-94.39C515.89,-93.11 485.92,-90.92 459,-87.19 456.35,-86.83 453.64,-86.42 450.92,-85.97"/>
<polygon fill="black" stroke="black" points="451.46,-82.51 441,-84.23 450.25,-89.41 451.46,-82.51"/>
<text text-anchor="start" x="482.5" y="-97.99" font-family="arial" font-size="14.00" fill="#377eb8">!R&#39;</text>
</g>
<!-- ID_90_ct1_st02&#45;&gt;ID_90_ct1_st012 -->
<g id="edge14" class="edge">
<title>ID_90_ct1_st02&#45;&gt;ID_90_ct1_st012</title>
<path fill="none" stroke="black" d="M666.56,-92.4C680.64,-92.74 695.45,-94.08 709,-97.19 717,-99.04 725.14,-101.78 733,-104.96"/>
<polygon fill="black" stroke="black" points="731.85,-108.28 742.42,-109.02 734.62,-101.85 731.85,-108.28"/>
<text text-anchor="start" x="685" y="-100.99" font-family="arial" font-size="14.00" fill="#377eb8">true</text>
</g>
<!-- ID_90_ct1_st02&#45;&gt;ID_90_ct1_st02 -->
<g id="edge12" class="edge">
<title>ID_90_ct1_st02&#45;&gt;ID_90_ct1_st02</title>
<path fill="none" stroke="black" d="M586.82,-121.37C586.05,-131.1 591.78,-139.19 604,-139.19 611.64,-139.19 616.74,-136.03 619.3,-131.29"/>
<polygon fill="black" stroke="black" points="622.76,-131.85 621.18,-121.37 615.88,-130.54 622.76,-131.85"/>
<text text-anchor="start" x="592" y="-142.99" font-family="arial" font-size="14.00" fill="#377eb8">true</text>
</g>
</g>
</svg>
