<?xml version="1.0" encoding="UTF-8" standalone="no"?>
<!DOCTYPE svg PUBLIC "-//W3C//DTD SVG 1.1//EN"
 "http://www.w3.org/Graphics/SVG/1.1/DTD/svg11.dtd">
<!-- Generated by graphviz version 2.43.0 (0)
 -->
<!-- Title: G Pages: 1 -->
<svg width="2409pt" height="595pt"
 viewBox="0.00 0.00 2409.00 594.91" xmlns="http://www.w3.org/2000/svg" xmlns:xlink="http://www.w3.org/1999/xlink">
<g id="graph0" class="graph" transform="scale(1 1) rotate(0) translate(4 590.91)">
<title>G</title>
<polygon fill="white" stroke="transparent" points="-4,4 -4,-590.91 2405,-590.91 2405,4 -4,4"/>
<!-- _st0 -->
<!-- st0 -->
<g id="node2" class="node">
<title>st0</title>
<polygon fill="none" stroke="black" points="189,-192.91 91,-192.91 91,-142.91 189,-142.91 189,-192.91"/>
<text text-anchor="start" x="130" y="-178.71" font-family="arial" font-weight="bold" font-size="14.00">st0</text>
<text text-anchor="start" x="99" y="-164.71" font-family="arial" font-size="14.00" fill="#984ea3">((R || S) || !Q)</text>
<text text-anchor="start" x="128" y="-150.71" font-family="arial" font-size="14.00" fill="#ff7f00">true</text>
</g>
<!-- _st0&#45;&gt;st0 -->
<g id="edge1" class="edge">
<title>_st0&#45;&gt;st0</title>
<path fill="none" stroke="black" d="M54.02,-167.91C62.12,-167.91 71.39,-167.91 80.77,-167.91"/>
<polygon fill="black" stroke="black" points="80.93,-171.41 90.93,-167.91 80.93,-164.41 80.93,-171.41"/>
</g>
<!-- st0&#45;&gt;st0 -->
<g id="edge4" class="edge">
<title>st0&#45;&gt;st0</title>
<path fill="none" stroke="black" d="M127.67,-193.09C127.13,-202.82 131.23,-210.91 140,-210.91 145.48,-210.91 149.14,-207.75 150.98,-203"/>
<polygon fill="black" stroke="black" points="154.45,-203.47 152.33,-193.09 147.51,-202.52 154.45,-203.47"/>
<text text-anchor="start" x="128" y="-214.71" font-family="arial" font-size="14.00" fill="#377eb8">true</text>
</g>
<!-- st012 -->
<g id="node4" class="node">
<title>st012</title>
<polygon fill="none" stroke="black" points="494,-159.91 324,-159.91 324,-109.91 494,-109.91 494,-159.91"/>
<text text-anchor="start" x="391.5" y="-145.71" font-family="arial" font-weight="bold" font-size="14.00">st012</text>
<text text-anchor="start" x="332" y="-131.71" font-family="arial" font-size="14.00" fill="#984ea3">(Q &amp;&amp; (!R &amp;&amp; (!S &amp;&amp; !T)))</text>
<text text-anchor="start" x="397" y="-117.71" font-family="arial" font-size="14.00" fill="#ff7f00">true</text>
</g>
<!-- st0&#45;&gt;st012 -->
<g id="edge5" class="edge">
<title>st0&#45;&gt;st012</title>
<path fill="none" stroke="black" d="M186.19,-142.79C192.99,-139.96 200.05,-137.52 207,-135.91 241.19,-127.97 279.55,-126.11 313.52,-126.79"/>
<polygon fill="black" stroke="black" points="313.82,-130.3 323.91,-127.08 314.01,-123.3 313.82,-130.3"/>
<text text-anchor="start" x="244.5" y="-139.71" font-family="arial" font-size="14.00" fill="#377eb8">true</text>
</g>
<!-- st01234 -->
<g id="node6" class="node">
<title>st01234</title>
<polygon fill="none" stroke="black" points="1208,-203.91 1042,-203.91 1042,-153.91 1208,-153.91 1208,-203.91"/>
<text text-anchor="start" x="1100" y="-189.71" font-family="arial" font-weight="bold" font-size="14.00">st01234</text>
<text text-anchor="start" x="1050" y="-175.71" font-family="arial" font-size="14.00" fill="#984ea3">(Q &amp;&amp; (!R &amp;&amp; (!S &amp;&amp; T)))</text>
<text text-anchor="start" x="1113" y="-161.71" font-family="arial" font-size="14.00" fill="#ff7f00">true</text>
</g>
<!-- st0&#45;&gt;st01234 -->
<g id="edge6" class="edge">
<title>st0&#45;&gt;st01234</title>
<path fill="none" stroke="black" d="M175.11,-142.73C185.12,-135.87 196.27,-128.73 207,-122.91 292.1,-76.74 311.18,-38.91 408,-38.91 408,-38.91 408,-38.91 758,-38.91 847.09,-38.91 873.74,-31.23 957,-62.91 1007.49,-82.12 1057.29,-119.82 1089.19,-147.03"/>
<polygon fill="black" stroke="black" points="1087.05,-149.81 1096.9,-153.71 1091.63,-144.52 1087.05,-149.81"/>
<text text-anchor="start" x="628.5" y="-42.71" font-family="arial" font-size="14.00" fill="#377eb8">true</text>
</g>
<!-- _st012 -->
<!-- _st012&#45;&gt;st012 -->
<g id="edge2" class="edge">
<title>_st012&#45;&gt;st012</title>
<path fill="none" stroke="black" d="M168.53,-103.41C201.37,-105.38 257.85,-109.4 306,-115.91 308.54,-116.25 311.11,-116.62 313.7,-117"/>
<polygon fill="black" stroke="black" points="313.36,-120.49 323.78,-118.55 314.43,-113.57 313.36,-120.49"/>
</g>
<!-- st012&#45;&gt;st0 -->
<g id="edge13" class="edge">
<title>st012&#45;&gt;st0</title>
<path fill="none" stroke="black" d="M323.72,-148.49C317.73,-149.34 311.78,-150.16 306,-150.91 270.57,-155.51 230.72,-159.65 199.07,-162.69"/>
<polygon fill="black" stroke="black" points="198.72,-159.2 189.09,-163.63 199.38,-166.17 198.72,-159.2"/>
<text text-anchor="start" x="207" y="-164.71" font-family="arial" font-size="14.00" fill="#377eb8">(R&#39; || (S&#39; &amp;&amp; !T&#39;))</text>
</g>
<!-- st012&#45;&gt;st012 -->
<g id="edge17" class="edge">
<title>st012&#45;&gt;st012</title>
<path fill="none" stroke="black" d="M387.71,-160.09C386.76,-169.82 393.86,-177.91 409,-177.91 418.46,-177.91 424.78,-174.75 427.96,-170"/>
<polygon fill="black" stroke="black" points="431.41,-170.62 430.29,-160.09 424.6,-169.02 431.41,-170.62"/>
<text text-anchor="start" x="397" y="-181.71" font-family="arial" font-size="14.00" fill="#377eb8">true</text>
</g>
<!-- st012&#45;&gt;st01234 -->
<g id="edge18" class="edge">
<title>st012&#45;&gt;st01234</title>
<path fill="none" stroke="black" d="M494.48,-138.85C612.91,-144.57 834.99,-156.02 1024,-169.91 1026.55,-170.1 1029.13,-170.29 1031.74,-170.5"/>
<polygon fill="black" stroke="black" points="1031.64,-174 1041.89,-171.3 1032.2,-167.02 1031.64,-174"/>
<text text-anchor="start" x="745" y="-156.71" font-family="arial" font-size="14.00" fill="#377eb8">true</text>
</g>
<!-- st02 -->
<g id="node7" class="node">
<title>st02</title>
<polygon fill="none" stroke="black" points="727,-238.91 554,-238.91 554,-188.91 727,-188.91 727,-238.91"/>
<text text-anchor="start" x="626.5" y="-224.71" font-family="arial" font-weight="bold" font-size="14.00">st02</text>
<text text-anchor="start" x="562" y="-210.71" font-family="arial" font-size="14.00" fill="#984ea3">(!Q &amp;&amp; (!R &amp;&amp; (!S &amp;&amp; !T)))</text>
<text text-anchor="start" x="628.5" y="-196.71" font-family="arial" font-size="14.00" fill="#ff7f00">true</text>
</g>
<!-- st012&#45;&gt;st02 -->
<g id="edge15" class="edge">
<title>st012&#45;&gt;st02</title>
<path fill="none" stroke="black" d="M494.33,-146.49C508.44,-149.51 522.78,-153.26 536,-157.91 554.7,-164.49 574.09,-174.13 590.97,-183.56"/>
<polygon fill="black" stroke="black" points="589.65,-186.83 600.06,-188.76 593.12,-180.75 589.65,-186.83"/>
<text text-anchor="start" x="512" y="-161.71" font-family="arial" font-size="14.00" fill="#377eb8">true</text>
</g>
<!-- st034 -->
<g id="node8" class="node">
<title>st034</title>
<polygon fill="none" stroke="black" points="1539,-180.91 1293,-180.91 1293,-130.91 1539,-130.91 1539,-180.91"/>
<text text-anchor="start" x="1398.5" y="-166.71" font-family="arial" font-weight="bold" font-size="14.00">st034</text>
<text text-anchor="start" x="1301" y="-152.71" font-family="arial" font-size="14.00" fill="#984ea3">((!R &amp;&amp; (S &amp;&amp; T)) || (!Q &amp;&amp; (!R &amp;&amp; T)))</text>
<text text-anchor="start" x="1404" y="-138.71" font-family="arial" font-size="14.00" fill="#ff7f00">true</text>
</g>
<!-- st012&#45;&gt;st034 -->
<g id="edge14" class="edge">
<title>st012&#45;&gt;st034</title>
<path fill="none" stroke="black" d="M494.21,-132.65C648.99,-129.15 989.06,-124.49 1275,-141.91 1277.56,-142.07 1280.15,-142.23 1282.75,-142.41"/>
<polygon fill="black" stroke="black" points="1282.65,-145.91 1292.88,-143.14 1283.15,-138.93 1282.65,-145.91"/>
<text text-anchor="start" x="847.5" y="-134.71" font-family="arial" font-size="14.00" fill="#377eb8">(R&#39; || S&#39;)</text>
</g>
<!-- st0234 -->
<g id="node9" class="node">
<title>st0234</title>
<polygon fill="none" stroke="black" points="957,-392.91 787,-392.91 787,-342.91 957,-342.91 957,-392.91"/>
<text text-anchor="start" x="850.5" y="-378.71" font-family="arial" font-weight="bold" font-size="14.00">st0234</text>
<text text-anchor="start" x="795" y="-364.71" font-family="arial" font-size="14.00" fill="#984ea3">(!Q &amp;&amp; (!R &amp;&amp; (!S &amp;&amp; T)))</text>
<text text-anchor="start" x="860" y="-350.71" font-family="arial" font-size="14.00" fill="#ff7f00">true</text>
</g>
<!-- st012&#45;&gt;st0234 -->
<g id="edge16" class="edge">
<title>st012&#45;&gt;st0234</title>
<path fill="none" stroke="black" d="M448.35,-159.95C463.41,-170.71 480.33,-184 494,-197.91 525.9,-230.38 516.6,-254.97 554,-280.91 620.13,-326.77 709.59,-348.51 776.61,-358.78"/>
<polygon fill="black" stroke="black" points="776.34,-362.28 786.75,-360.27 777.36,-355.35 776.34,-362.28"/>
<text text-anchor="start" x="628.5" y="-352.71" font-family="arial" font-size="14.00" fill="#377eb8">true</text>
</g>
<!-- _st01234 -->
<!-- _st01234&#45;&gt;st01234 -->
<g id="edge3" class="edge">
<title>_st01234&#45;&gt;st01234</title>
<path fill="none" stroke="black" d="M908.16,-218.47C940.21,-212.59 988.97,-203.66 1032.04,-195.76"/>
<polygon fill="black" stroke="black" points="1032.78,-199.19 1041.99,-193.94 1031.52,-192.3 1032.78,-199.19"/>
</g>
<!-- st01234&#45;&gt;st01234 -->
<g id="edge49" class="edge">
<title>st01234&#45;&gt;st01234</title>
<path fill="none" stroke="black" d="M1101.84,-204.09C1100.81,-213.82 1108.53,-221.91 1125,-221.91 1135.29,-221.91 1142.17,-218.75 1145.63,-214"/>
<polygon fill="black" stroke="black" points="1149.08,-214.64 1148.16,-204.09 1142.29,-212.91 1149.08,-214.64"/>
<text text-anchor="start" x="1113" y="-225.71" font-family="arial" font-size="14.00" fill="#377eb8">true</text>
</g>
<!-- st01234&#45;&gt;st034 -->
<g id="edge45" class="edge">
<title>st01234&#45;&gt;st034</title>
<path fill="none" stroke="black" d="M1208.04,-172.38C1231.32,-170.53 1257.27,-168.46 1282.72,-166.44"/>
<polygon fill="black" stroke="black" points="1283.13,-169.92 1292.82,-165.63 1282.57,-162.94 1283.13,-169.92"/>
<text text-anchor="start" x="1226" y="-173.71" font-family="arial" font-size="14.00" fill="#377eb8">(R&#39; || S&#39;)</text>
</g>
<!-- st01234&#45;&gt;st0234 -->
<g id="edge47" class="edge">
<title>st01234&#45;&gt;st0234</title>
<path fill="none" stroke="black" d="M1044.18,-203.92C1015.36,-213.88 986.97,-225.06 975,-233.91 965.1,-241.23 924.05,-296.97 897.14,-334.21"/>
<polygon fill="black" stroke="black" points="893.97,-332.62 890.96,-342.78 899.65,-336.71 893.97,-332.62"/>
<text text-anchor="start" x="987.5" y="-237.71" font-family="arial" font-size="14.00" fill="#377eb8">true</text>
</g>
<!-- st04 -->
<g id="node10" class="node">
<title>st04</title>
<polygon fill="none" stroke="black" points="2401,-165.91 2240,-165.91 2240,-115.91 2401,-115.91 2401,-165.91"/>
<text text-anchor="start" x="2306.5" y="-151.71" font-family="arial" font-weight="bold" font-size="14.00">st04</text>
<text text-anchor="start" x="2248" y="-137.71" font-family="arial" font-size="14.00" fill="#984ea3">((!R &amp;&amp; S) || (!Q &amp;&amp; !R))</text>
<text text-anchor="start" x="2308.5" y="-123.71" font-family="arial" font-size="14.00" fill="#ff7f00">true</text>
</g>
<!-- st01234&#45;&gt;st04 -->
<g id="edge44" class="edge">
<title>st01234&#45;&gt;st04</title>
<path fill="none" stroke="black" d="M1156.43,-153.65C1175.5,-138.77 1201.1,-120.48 1226,-107.91 1259.62,-90.94 1411.76,-51.91 1415,-51.91 1415,-51.91 1415,-51.91 2019.5,-51.91 2105.36,-51.91 2199.55,-85.83 2259.06,-111.79"/>
<polygon fill="black" stroke="black" points="2257.74,-115.04 2268.3,-115.88 2260.57,-108.64 2257.74,-115.04"/>
<text text-anchor="start" x="1709.5" y="-55.71" font-family="arial" font-size="14.00" fill="#377eb8">(R&#39; || (S&#39; &amp;&amp; !T&#39;))</text>
</g>
<!-- st0124 -->
<g id="node11" class="node">
<title>st0124</title>
<polygon fill="none" stroke="black" points="1844,-205.91 1674,-205.91 1674,-155.91 1844,-155.91 1844,-205.91"/>
<text text-anchor="start" x="1737.5" y="-191.71" font-family="arial" font-weight="bold" font-size="14.00">st0124</text>
<text text-anchor="start" x="1682" y="-177.71" font-family="arial" font-size="14.00" fill="#984ea3">(Q &amp;&amp; (!R &amp;&amp; (!S &amp;&amp; !T)))</text>
<text text-anchor="start" x="1747" y="-163.71" font-family="arial" font-size="14.00" fill="#ff7f00">true</text>
</g>
<!-- st01234&#45;&gt;st0124 -->
<g id="edge48" class="edge">
<title>st01234&#45;&gt;st0124</title>
<path fill="none" stroke="black" d="M1170.43,-153.82C1203.17,-136.84 1249.4,-115.91 1293,-106.91 1451.69,-74.16 1502.61,-88.67 1656,-140.91 1666.2,-144.39 1676.88,-148.28 1687.33,-152.24"/>
<polygon fill="black" stroke="black" points="1686.25,-155.58 1696.84,-155.89 1688.76,-149.04 1686.25,-155.58"/>
<text text-anchor="start" x="1404" y="-110.71" font-family="arial" font-size="14.00" fill="#377eb8">true</text>
</g>
<!-- st024 -->
<g id="node12" class="node">
<title>st024</title>
<polygon fill="none" stroke="black" points="2105,-327.91 1932,-327.91 1932,-277.91 2105,-277.91 2105,-327.91"/>
<text text-anchor="start" x="2001" y="-313.71" font-family="arial" font-weight="bold" font-size="14.00">st024</text>
<text text-anchor="start" x="1940" y="-299.71" font-family="arial" font-size="14.00" fill="#984ea3">(!Q &amp;&amp; (!R &amp;&amp; (!S &amp;&amp; !T)))</text>
<text text-anchor="start" x="2006.5" y="-285.71" font-family="arial" font-size="14.00" fill="#ff7f00">true</text>
</g>
<!-- st01234&#45;&gt;st024 -->
<g id="edge46" class="edge">
<title>st01234&#45;&gt;st024</title>
<path fill="none" stroke="black" d="M1171.58,-204.07C1204.3,-220.73 1250.03,-241.24 1293,-250.91 1514,-300.63 1781.57,-306.18 1921.54,-305.06"/>
<polygon fill="black" stroke="black" points="1921.84,-308.56 1931.81,-304.97 1921.78,-301.56 1921.84,-308.56"/>
<text text-anchor="start" x="1594.5" y="-301.71" font-family="arial" font-size="14.00" fill="#377eb8">true</text>
</g>
<!-- st02&#45;&gt;st0 -->
<g id="edge7" class="edge">
<title>st02&#45;&gt;st0</title>
<path fill="none" stroke="black" d="M553.88,-214.02C490.28,-213.28 401.49,-210.54 324,-201.91 281.87,-197.22 234.87,-188.41 199.05,-180.93"/>
<polygon fill="black" stroke="black" points="199.77,-177.51 189.26,-178.87 198.32,-184.36 199.77,-177.51"/>
<text text-anchor="start" x="359.5" y="-215.71" font-family="arial" font-size="14.00" fill="#377eb8">(R&#39; || (S&#39; &amp;&amp; !T&#39;))</text>
</g>
<!-- st02&#45;&gt;st012 -->
<g id="edge11" class="edge">
<title>st02&#45;&gt;st012</title>
<path fill="none" stroke="black" d="M553.71,-190.4C539.69,-186.16 525.38,-181.59 512,-176.91 500.7,-172.96 488.84,-168.43 477.37,-163.85"/>
<polygon fill="black" stroke="black" points="478.42,-160.5 467.84,-160 475.8,-166.99 478.42,-160.5"/>
<text text-anchor="start" x="512" y="-186.71" font-family="arial" font-size="14.00" fill="#377eb8">true</text>
</g>
<!-- st02&#45;&gt;st01234 -->
<g id="edge12" class="edge">
<title>st02&#45;&gt;st01234</title>
<path fill="none" stroke="black" d="M727.21,-192.71C746.74,-188.7 767.49,-185.08 787,-182.91 869.28,-173.75 963.55,-173.49 1031.42,-175.1"/>
<polygon fill="black" stroke="black" points="1031.57,-178.6 1041.66,-175.36 1031.75,-171.6 1031.57,-178.6"/>
<text text-anchor="start" x="860" y="-186.71" font-family="arial" font-size="14.00" fill="#377eb8">true</text>
</g>
<!-- st02&#45;&gt;st02 -->
<g id="edge9" class="edge">
<title>st02&#45;&gt;st02</title>
<path fill="none" stroke="black" d="M618.83,-239.09C617.87,-248.82 625.09,-256.91 640.5,-256.91 650.13,-256.91 656.56,-253.75 659.8,-249"/>
<polygon fill="black" stroke="black" points="663.25,-249.63 662.17,-239.09 656.44,-248 663.25,-249.63"/>
<text text-anchor="start" x="628.5" y="-260.71" font-family="arial" font-size="14.00" fill="#377eb8">true</text>
</g>
<!-- st02&#45;&gt;st034 -->
<g id="edge8" class="edge">
<title>st02&#45;&gt;st034</title>
<path fill="none" stroke="black" d="M722.35,-238.93C743.21,-244.3 765.77,-249.18 787,-251.91 844.26,-259.27 1203.21,-246.97 1208,-245.91 1262.97,-233.79 1321.42,-206.94 1362.14,-185.7"/>
<polygon fill="black" stroke="black" points="1363.86,-188.75 1371.07,-180.99 1360.59,-182.56 1363.86,-188.75"/>
<text text-anchor="start" x="975" y="-256.71" font-family="arial" font-size="14.00" fill="#377eb8">(R&#39; || S&#39;)</text>
</g>
<!-- st02&#45;&gt;st0234 -->
<g id="edge10" class="edge">
<title>st02&#45;&gt;st0234</title>
<path fill="none" stroke="black" d="M678.34,-238.92C698.09,-252.3 722.85,-269.04 745,-283.91 771.34,-301.6 800.85,-321.28 824.68,-337.14"/>
<polygon fill="black" stroke="black" points="822.92,-340.17 833.19,-342.8 826.8,-334.34 822.92,-340.17"/>
<text text-anchor="start" x="745" y="-300.71" font-family="arial" font-size="14.00" fill="#377eb8">true</text>
</g>
<!-- st034&#45;&gt;st01234 -->
<g id="edge37" class="edge">
<title>st034&#45;&gt;st01234</title>
<path fill="none" stroke="black" d="M1292.91,-145.87C1270.58,-145.78 1247.53,-146.85 1226,-149.91 1222.29,-150.44 1218.53,-151.07 1214.74,-151.78"/>
<polygon fill="black" stroke="black" points="1213.78,-148.41 1204.7,-153.86 1215.2,-155.26 1213.78,-148.41"/>
<text text-anchor="start" x="1238.5" y="-153.71" font-family="arial" font-size="14.00" fill="#377eb8">true</text>
</g>
<!-- st034&#45;&gt;st034 -->
<g id="edge35" class="edge">
<title>st034&#45;&gt;st034</title>
<path fill="none" stroke="black" d="M1385.37,-181.09C1384.01,-190.82 1394.22,-198.91 1416,-198.91 1429.95,-198.91 1439.16,-195.59 1443.61,-190.64"/>
<polygon fill="black" stroke="black" points="1446.96,-191.68 1446.63,-181.09 1440.28,-189.57 1446.96,-191.68"/>
<text text-anchor="start" x="1404" y="-202.71" font-family="arial" font-size="14.00" fill="#377eb8">true</text>
</g>
<!-- st034&#45;&gt;st04 -->
<g id="edge34" class="edge">
<title>st034&#45;&gt;st04</title>
<path fill="none" stroke="black" d="M1539.11,-142.15C1545.16,-141.68 1551.14,-141.26 1557,-140.91 1852.03,-123.21 1926.5,-130.85 2222,-136.91 2224.56,-136.96 2227.15,-137.02 2229.77,-137.09"/>
<polygon fill="black" stroke="black" points="2229.86,-140.59 2239.96,-137.38 2230.06,-133.6 2229.86,-140.59"/>
<text text-anchor="start" x="1862" y="-134.71" font-family="arial" font-size="14.00" fill="#377eb8">(R&#39; || !T&#39;)</text>
</g>
<!-- st034&#45;&gt;st0124 -->
<g id="edge36" class="edge">
<title>st034&#45;&gt;st0124</title>
<path fill="none" stroke="black" d="M1539.06,-145.68C1576.71,-144.58 1618.21,-145.47 1656,-150.91 1661.07,-151.64 1666.23,-152.56 1671.41,-153.63"/>
<polygon fill="black" stroke="black" points="1670.86,-157.09 1681.38,-155.85 1672.38,-150.26 1670.86,-157.09"/>
<text text-anchor="start" x="1594.5" y="-154.71" font-family="arial" font-size="14.00" fill="#377eb8">true</text>
</g>
<!-- st0234&#45;&gt;st01234 -->
<g id="edge43" class="edge">
<title>st0234&#45;&gt;st01234</title>
<path fill="none" stroke="black" d="M915.27,-342.89C933.47,-332.38 955.1,-320.22 975,-309.91 996.36,-298.85 1004.58,-301.11 1024,-286.91 1052.97,-265.73 1080.25,-235.28 1098.98,-212.11"/>
<polygon fill="black" stroke="black" points="1101.75,-214.25 1105.23,-204.25 1096.27,-209.9 1101.75,-214.25"/>
<text text-anchor="start" x="987.5" y="-313.71" font-family="arial" font-size="14.00" fill="#377eb8">true</text>
</g>
<!-- st0234&#45;&gt;st034 -->
<g id="edge39" class="edge">
<title>st0234&#45;&gt;st034</title>
<path fill="none" stroke="black" d="M957.25,-360.04C1061.2,-348.66 1229.77,-324.19 1275,-281.91 1296.27,-262.03 1274.55,-241.44 1293,-218.91 1303.98,-205.5 1318.57,-194.62 1333.83,-185.92"/>
<polygon fill="black" stroke="black" points="1335.73,-188.88 1342.87,-181.05 1332.41,-182.71 1335.73,-188.88"/>
<text text-anchor="start" x="1100.5" y="-352.71" font-family="arial" font-size="14.00" fill="#377eb8">(R&#39; || S&#39;)</text>
</g>
<!-- st0234&#45;&gt;st0234 -->
<g id="edge41" class="edge">
<title>st0234&#45;&gt;st0234</title>
<path fill="none" stroke="black" d="M850.71,-393.09C849.76,-402.82 856.86,-410.91 872,-410.91 881.46,-410.91 887.78,-407.75 890.96,-403"/>
<polygon fill="black" stroke="black" points="894.41,-403.62 893.29,-393.09 887.6,-402.02 894.41,-403.62"/>
<text text-anchor="start" x="860" y="-414.71" font-family="arial" font-size="14.00" fill="#377eb8">true</text>
</g>
<!-- st0234&#45;&gt;st04 -->
<g id="edge38" class="edge">
<title>st0234&#45;&gt;st04</title>
<path fill="none" stroke="black" d="M883.97,-393.02C899.62,-426.09 931.36,-484 975,-517.91 1030.62,-561.13 1053.56,-571.91 1124,-571.91 1124,-571.91 1124,-571.91 2019.5,-571.91 2212.09,-571.91 2291.11,-278.44 2312.86,-175.82"/>
<polygon fill="black" stroke="black" points="2316.3,-176.45 2314.9,-165.95 2309.45,-175.03 2316.3,-176.45"/>
<text text-anchor="start" x="1557" y="-575.71" font-family="arial" font-size="14.00" fill="#377eb8">(R&#39; || (S&#39; &amp;&amp; !T&#39;))</text>
</g>
<!-- st0234&#45;&gt;st0124 -->
<g id="edge42" class="edge">
<title>st0234&#45;&gt;st0124</title>
<path fill="none" stroke="black" d="M957.35,-375.45C1148.97,-391.7 1604.49,-425.05 1656,-379.91 1678.93,-359.82 1658.6,-270.22 1674,-243.91 1681.19,-231.63 1691.8,-220.98 1703.08,-212.11"/>
<polygon fill="black" stroke="black" points="1705.42,-214.73 1711.38,-205.97 1701.26,-209.11 1705.42,-214.73"/>
<text text-anchor="start" x="1238.5" y="-400.71" font-family="arial" font-size="14.00" fill="#377eb8">true</text>
</g>
<!-- st0234&#45;&gt;st024 -->
<g id="edge40" class="edge">
<title>st0234&#45;&gt;st024</title>
<path fill="none" stroke="black" d="M906.29,-393.15C952.53,-425.62 1040.03,-477.91 1124,-477.91 1124,-477.91 1124,-477.91 1760,-477.91 1860.05,-477.91 1950.04,-386.42 1992.21,-335.75"/>
<polygon fill="black" stroke="black" points="1994.94,-337.94 1998.56,-327.98 1989.52,-333.51 1994.94,-337.94"/>
<text text-anchor="start" x="1404" y="-481.71" font-family="arial" font-size="14.00" fill="#377eb8">true</text>
</g>
<!-- st04&#45;&gt;st01234 -->
<g id="edge21" class="edge">
<title>st04&#45;&gt;st01234</title>
<path fill="none" stroke="black" d="M2302.94,-115.79C2285.69,-91.78 2256.42,-56.57 2222,-37.91 2141.57,5.69 2110.99,-0.91 2019.5,-0.91 1415,-0.91 1415,-0.91 1415,-0.91 1329.41,-0.91 1297.89,8.54 1226,-37.91 1185.97,-63.78 1157.12,-111.82 1140.98,-144.56"/>
<polygon fill="black" stroke="black" points="1137.73,-143.25 1136.58,-153.78 1144.05,-146.27 1137.73,-143.25"/>
<text text-anchor="start" x="1747" y="-4.71" font-family="arial" font-size="14.00" fill="#377eb8">true</text>
</g>
<!-- st04&#45;&gt;st04 -->
<g id="edge19" class="edge">
<title>st04&#45;&gt;st04</title>
<path fill="none" stroke="black" d="M2292.86,-166.09C2291.63,-175.82 2300.84,-183.91 2320.5,-183.91 2332.79,-183.91 2340.99,-180.75 2345.12,-176"/>
<polygon fill="black" stroke="black" points="2348.57,-176.67 2348.14,-166.09 2341.88,-174.63 2348.57,-176.67"/>
<text text-anchor="start" x="2308.5" y="-187.71" font-family="arial" font-size="14.00" fill="#377eb8">true</text>
</g>
<!-- st04&#45;&gt;st0124 -->
<g id="edge20" class="edge">
<title>st04&#45;&gt;st0124</title>
<path fill="none" stroke="black" d="M2239.92,-141.14C2161.47,-141.99 2038.24,-144.99 1932,-154.91 1906.65,-157.28 1879.34,-160.9 1854.11,-164.71"/>
<polygon fill="black" stroke="black" points="1853.54,-161.25 1844.19,-166.23 1854.6,-168.17 1853.54,-161.25"/>
<text text-anchor="start" x="2006.5" y="-158.71" font-family="arial" font-size="14.00" fill="#377eb8">true</text>
</g>
<!-- st0124&#45;&gt;st01234 -->
<g id="edge33" class="edge">
<title>st0124&#45;&gt;st01234</title>
<path fill="none" stroke="black" d="M1673.78,-200.93C1633.29,-209.56 1583.9,-218.64 1539,-222.91 1430.16,-233.25 1401.43,-236.96 1293,-222.91 1267.01,-219.54 1239.31,-213.35 1214.08,-206.65"/>
<polygon fill="black" stroke="black" points="1214.74,-203.2 1204.18,-203.96 1212.91,-209.96 1214.74,-203.2"/>
<text text-anchor="start" x="1404" y="-235.71" font-family="arial" font-size="14.00" fill="#377eb8">true</text>
</g>
<!-- st0124&#45;&gt;st034 -->
<g id="edge29" class="edge">
<title>st0124&#45;&gt;st034</title>
<path fill="none" stroke="black" d="M1673.84,-177.15C1637.83,-175.32 1595.33,-172.87 1557,-169.91 1554.44,-169.71 1551.86,-169.51 1549.26,-169.3"/>
<polygon fill="black" stroke="black" points="1549.39,-165.8 1539.14,-168.45 1548.81,-172.77 1549.39,-165.8"/>
<text text-anchor="start" x="1582" y="-179.71" font-family="arial" font-size="14.00" fill="#377eb8">(R&#39; || S&#39;)</text>
</g>
<!-- st0124&#45;&gt;st0234 -->
<g id="edge31" class="edge">
<title>st0124&#45;&gt;st0234</title>
<path fill="none" stroke="black" d="M1710.74,-206.16C1696.65,-216.05 1682.67,-228.71 1674,-243.91 1655.84,-275.76 1683.24,-383.37 1656,-407.91 1645.42,-417.44 1064.06,-425.12 975,-407.91 961.98,-405.4 948.48,-401.28 935.74,-396.63"/>
<polygon fill="black" stroke="black" points="936.75,-393.27 926.16,-392.98 934.26,-399.81 936.75,-393.27"/>
<text text-anchor="start" x="1238.5" y="-421.71" font-family="arial" font-size="14.00" fill="#377eb8">true</text>
</g>
<!-- st0124&#45;&gt;st04 -->
<g id="edge28" class="edge">
<title>st0124&#45;&gt;st04</title>
<path fill="none" stroke="black" d="M1844.12,-180.28C1914.04,-179.26 2016.11,-176.63 2105,-169.91 2157.22,-165.96 2170.11,-163 2222,-155.91 2224.65,-155.55 2227.34,-155.17 2230.06,-154.79"/>
<polygon fill="black" stroke="black" points="2230.58,-158.25 2239.98,-153.37 2229.59,-151.32 2230.58,-158.25"/>
<text text-anchor="start" x="1969" y="-181.71" font-family="arial" font-size="14.00" fill="#377eb8">(R&#39; || (S&#39; &amp;&amp; !T&#39;))</text>
</g>
<!-- st0124&#45;&gt;st0124 -->
<g id="edge32" class="edge">
<title>st0124&#45;&gt;st0124</title>
<path fill="none" stroke="black" d="M1735.09,-206.09C1734.03,-215.82 1742,-223.91 1759,-223.91 1769.62,-223.91 1776.72,-220.75 1780.29,-216"/>
<polygon fill="black" stroke="black" points="1783.74,-216.65 1782.91,-206.09 1776.97,-214.86 1783.74,-216.65"/>
<text text-anchor="start" x="1747" y="-227.71" font-family="arial" font-size="14.00" fill="#377eb8">true</text>
</g>
<!-- st0124&#45;&gt;st024 -->
<g id="edge30" class="edge">
<title>st0124&#45;&gt;st024</title>
<path fill="none" stroke="black" d="M1844.06,-197.01C1872.87,-203.28 1901.09,-210.49 1914,-216.91 1941.15,-230.41 1967.37,-252.32 1986.63,-270.65"/>
<polygon fill="black" stroke="black" points="1984.3,-273.27 1993.91,-277.73 1989.18,-268.25 1984.3,-273.27"/>
<text text-anchor="start" x="1876" y="-220.71" font-family="arial" font-size="14.00" fill="#377eb8">true</text>
</g>
<!-- st024&#45;&gt;st01234 -->
<g id="edge27" class="edge">
<title>st024&#45;&gt;st01234</title>
<path fill="none" stroke="black" d="M1948.63,-327.94C1804.28,-375.87 1463.71,-464.89 1226,-334.91 1222.85,-333.19 1175.43,-257.95 1147.03,-212.6"/>
<polygon fill="black" stroke="black" points="1149.9,-210.58 1141.63,-203.96 1143.97,-214.3 1149.9,-210.58"/>
<text text-anchor="start" x="1594.5" y="-405.71" font-family="arial" font-size="14.00" fill="#377eb8">true</text>
</g>
<!-- st024&#45;&gt;st034 -->
<g id="edge23" class="edge">
<title>st024&#45;&gt;st034</title>
<path fill="none" stroke="black" d="M1931.9,-293.67C1861.86,-285.04 1760.58,-270.13 1674,-247.91 1609.07,-231.24 1537.44,-204.91 1486.32,-184.68"/>
<polygon fill="black" stroke="black" points="1487.61,-181.42 1477.03,-180.97 1485.02,-187.93 1487.61,-181.42"/>
<text text-anchor="start" x="1734.5" y="-283.71" font-family="arial" font-size="14.00" fill="#377eb8">(R&#39; || S&#39;)</text>
</g>
<!-- st024&#45;&gt;st0234 -->
<g id="edge25" class="edge">
<title>st024&#45;&gt;st0234</title>
<path fill="none" stroke="black" d="M2010.92,-328.1C1998.87,-369.03 1969.28,-449.65 1914,-491.91 1858.08,-534.67 1830.39,-528.91 1760,-528.91 1124,-528.91 1124,-528.91 1124,-528.91 1055.77,-528.91 1032.71,-528.32 975,-491.91 939.26,-469.36 910.08,-430.04 892.23,-401.71"/>
<polygon fill="black" stroke="black" points="895.05,-399.62 886.83,-392.94 889.09,-403.29 895.05,-399.62"/>
<text text-anchor="start" x="1404" y="-532.71" font-family="arial" font-size="14.00" fill="#377eb8">true</text>
</g>
<!-- st024&#45;&gt;st04 -->
<g id="edge22" class="edge">
<title>st024&#45;&gt;st04</title>
<path fill="none" stroke="black" d="M2077.34,-277.84C2118.45,-259.38 2174.57,-232.9 2222,-205.91 2240.22,-195.54 2259.57,-182.99 2276.18,-171.69"/>
<polygon fill="black" stroke="black" points="2278.34,-174.46 2284.6,-165.92 2274.38,-168.69 2278.34,-174.46"/>
<text text-anchor="start" x="2123" y="-259.71" font-family="arial" font-size="14.00" fill="#377eb8">(R&#39; || (S&#39; &amp;&amp; !T&#39;))</text>
</g>
<!-- st024&#45;&gt;st0124 -->
<g id="edge26" class="edge">
<title>st024&#45;&gt;st0124</title>
<path fill="none" stroke="black" d="M1958.46,-277.77C1918.54,-260.72 1871.43,-240.47 1862,-235.91 1846.03,-228.18 1828.96,-219.25 1813.44,-210.86"/>
<polygon fill="black" stroke="black" points="1814.96,-207.71 1804.5,-206 1811.61,-213.85 1814.96,-207.71"/>
<text text-anchor="start" x="1876" y="-260.71" font-family="arial" font-size="14.00" fill="#377eb8">true</text>
</g>
<!-- st024&#45;&gt;st024 -->
<g id="edge24" class="edge">
<title>st024&#45;&gt;st024</title>
<path fill="none" stroke="black" d="M1994.22,-328.09C1993.14,-337.82 2001.23,-345.91 2018.5,-345.91 2029.29,-345.91 2036.5,-342.75 2040.12,-338"/>
<polygon fill="black" stroke="black" points="2043.57,-338.65 2042.78,-328.09 2036.81,-336.84 2043.57,-338.65"/>
<text text-anchor="start" x="2006.5" y="-349.71" font-family="arial" font-size="14.00" fill="#377eb8">true</text>
</g>
</g>
</svg>
