<?xml version="1.0" encoding="UTF-8" standalone="no"?>
<!DOCTYPE svg PUBLIC "-//W3C//DTD SVG 1.1//EN"
 "http://www.w3.org/Graphics/SVG/1.1/DTD/svg11.dtd">
<!-- Generated by graphviz version 2.43.0 (0)
 -->
<!-- Title: G Pages: 1 -->
<svg width="520pt" height="145pt"
 viewBox="0.00 0.00 520.00 145.00" xmlns="http://www.w3.org/2000/svg" xmlns:xlink="http://www.w3.org/1999/xlink">
<g id="graph0" class="graph" transform="scale(1 1) rotate(0) translate(4 141)">
<title>G</title>
<polygon fill="white" stroke="transparent" points="-4,4 -4,-141 516,-141 516,4 -4,4"/>
<!-- _ID_42_ct0_st -->
<!-- ID_42_ct0_st -->
<g id="node2" class="node">
<title>ID_42_ct0_st</title>
<polygon fill="none" stroke="black" points="512,-97 413,-97 413,-47 512,-47 512,-97"/>
<text text-anchor="start" x="421" y="-82.8" font-family="arial" font-weight="bold" font-size="14.00">ID_42_ct0_st</text>
<text text-anchor="start" x="450.5" y="-68.8" font-family="arial" font-size="14.00" fill="#984ea3">true</text>
<text text-anchor="start" x="450.5" y="-54.8" font-family="arial" font-size="14.00" fill="#ff7f00">true</text>
</g>
<!-- _ID_42_ct0_st&#45;&gt;ID_42_ct0_st -->
<g id="edge1" class="edge">
<title>_ID_42_ct0_st&#45;&gt;ID_42_ct0_st</title>
<path fill="none" stroke="black" d="M263.79,-109.32C304.25,-101.68 360.72,-91.02 402.95,-83.05"/>
<polygon fill="black" stroke="black" points="403.64,-86.48 412.82,-81.19 402.34,-79.61 403.64,-86.48"/>
</g>
<!-- ID_42_ct0_st&#45;&gt;ID_42_ct0_st -->
<g id="edge3" class="edge">
<title>ID_42_ct0_st&#45;&gt;ID_42_ct0_st</title>
<path fill="none" stroke="black" d="M440.46,-97.18C439.48,-106.91 446.83,-115 462.5,-115 472.29,-115 478.84,-111.84 482.13,-107.09"/>
<polygon fill="black" stroke="black" points="485.58,-107.72 484.54,-97.18 478.78,-106.07 485.58,-107.72"/>
<text text-anchor="start" x="450.5" y="-118.8" font-family="arial" font-size="14.00" fill="#377eb8">true</text>
</g>
<!-- _ID_42_ct0_st0 -->
<!-- ID_42_ct0_st0 -->
<g id="node4" class="node">
<title>ID_42_ct0_st0</title>
<polygon fill="none" stroke="black" points="275,-50 148,-50 148,0 275,0 275,-50"/>
<text text-anchor="start" x="166" y="-35.8" font-family="arial" font-weight="bold" font-size="14.00">ID_42_ct0_st0</text>
<text text-anchor="start" x="156" y="-21.8" font-family="arial" font-size="14.00" fill="#984ea3">(!Q &amp;&amp; (!R &amp;&amp; !S))</text>
<text text-anchor="start" x="199.5" y="-7.8" font-family="arial" font-size="14.00" fill="#ff7f00">true</text>
</g>
<!-- _ID_42_ct0_st0&#45;&gt;ID_42_ct0_st0 -->
<g id="edge2" class="edge">
<title>_ID_42_ct0_st0&#45;&gt;ID_42_ct0_st0</title>
<path fill="none" stroke="black" d="M111.23,-25C119.83,-25 128.85,-25 137.78,-25"/>
<polygon fill="black" stroke="black" points="137.81,-28.5 147.81,-25 137.81,-21.5 137.81,-28.5"/>
</g>
<!-- ID_42_ct0_st0&#45;&gt;ID_42_ct0_st -->
<g id="edge4" class="edge">
<title>ID_42_ct0_st0&#45;&gt;ID_42_ct0_st</title>
<path fill="none" stroke="black" d="M275.01,-36.8C314.16,-44.19 364.28,-53.65 402.7,-60.9"/>
<polygon fill="black" stroke="black" points="402.22,-64.37 412.7,-62.79 403.52,-57.49 402.22,-64.37"/>
<text text-anchor="start" x="293" y="-62.8" font-family="arial" font-size="14.00" fill="#377eb8">(Q&#39; || (R&#39; &amp;&amp; !S&#39;))</text>
</g>
<!-- ID_42_ct0_st0&#45;&gt;ID_42_ct0_st0 -->
<g id="edge5" class="edge">
<title>ID_42_ct0_st0&#45;&gt;ID_42_ct0_st0</title>
<path fill="none" stroke="black" d="M196.19,-50.18C195.5,-59.91 200.61,-68 211.5,-68 218.31,-68 222.85,-64.84 225.14,-60.09"/>
<polygon fill="black" stroke="black" points="228.6,-60.62 226.81,-50.18 221.7,-59.45 228.6,-60.62"/>
<text text-anchor="start" x="199.5" y="-71.8" font-family="arial" font-size="14.00" fill="#377eb8">true</text>
</g>
</g>
</svg>
