<?xml version="1.0" encoding="UTF-8" standalone="no"?>
<!DOCTYPE svg PUBLIC "-//W3C//DTD SVG 1.1//EN"
 "http://www.w3.org/Graphics/SVG/1.1/DTD/svg11.dtd">
<!-- Generated by graphviz version 2.43.0 (0)
 -->
<!-- Title: G Pages: 1 -->
<svg width="1012pt" height="284pt"
 viewBox="0.00 0.00 1012.00 284.06" xmlns="http://www.w3.org/2000/svg" xmlns:xlink="http://www.w3.org/1999/xlink">
<g id="graph0" class="graph" transform="scale(1 1) rotate(0) translate(4 280.06)">
<title>G</title>
<polygon fill="white" stroke="transparent" points="-4,4 -4,-280.06 1008,-280.06 1008,4 -4,4"/>
<!-- _ID_41_ct0_st0 -->
<!-- ID_41_ct0_st0 -->
<g id="node2" class="node">
<title>ID_41_ct0_st0</title>
<polygon fill="none" stroke="black" points="261,-204.06 154,-204.06 154,-154.06 261,-154.06 261,-204.06"/>
<text text-anchor="start" x="162" y="-189.86" font-family="arial" font-weight="bold" font-size="14.00">ID_41_ct0_st0</text>
<text text-anchor="start" x="199.5" y="-175.86" font-family="arial" font-size="14.00" fill="#984ea3">!Q</text>
<text text-anchor="start" x="195.5" y="-161.86" font-family="arial" font-size="14.00" fill="#ff7f00">true</text>
</g>
<!-- _ID_41_ct0_st0&#45;&gt;ID_41_ct0_st0 -->
<g id="edge1" class="edge">
<title>_ID_41_ct0_st0&#45;&gt;ID_41_ct0_st0</title>
<path fill="none" stroke="black" d="M111.08,-179.06C121.62,-179.06 132.74,-179.06 143.52,-179.06"/>
<polygon fill="black" stroke="black" points="143.72,-182.56 153.72,-179.06 143.72,-175.56 143.72,-182.56"/>
</g>
<!-- ID_41_ct0_st0&#45;&gt;ID_41_ct0_st0 -->
<g id="edge4" class="edge">
<title>ID_41_ct0_st0&#45;&gt;ID_41_ct0_st0</title>
<path fill="none" stroke="black" d="M192.93,-204.24C192.28,-213.97 197.14,-222.06 207.5,-222.06 213.97,-222.06 218.3,-218.9 220.47,-214.16"/>
<polygon fill="black" stroke="black" points="223.94,-214.67 222.07,-204.24 217.03,-213.56 223.94,-214.67"/>
<text text-anchor="start" x="195.5" y="-225.86" font-family="arial" font-size="14.00" fill="#377eb8">true</text>
</g>
<!-- ID_41_ct0_st01 -->
<g id="node4" class="node">
<title>ID_41_ct0_st01</title>
<polygon fill="none" stroke="black" points="466,-106.06 352,-106.06 352,-56.06 466,-56.06 466,-106.06"/>
<text text-anchor="start" x="360" y="-91.86" font-family="arial" font-weight="bold" font-size="14.00">ID_41_ct0_st01</text>
<text text-anchor="start" x="364.5" y="-77.86" font-family="arial" font-size="14.00" fill="#984ea3">(Q &amp;&amp; (R || S))</text>
<text text-anchor="start" x="397" y="-63.86" font-family="arial" font-size="14.00" fill="#ff7f00">true</text>
</g>
<!-- ID_41_ct0_st0&#45;&gt;ID_41_ct0_st01 -->
<g id="edge5" class="edge">
<title>ID_41_ct0_st0&#45;&gt;ID_41_ct0_st01</title>
<path fill="none" stroke="black" d="M231.41,-153.77C245.56,-139.57 264.83,-122.64 285,-112.06 302.52,-102.87 322.89,-96.31 341.96,-91.67"/>
<polygon fill="black" stroke="black" points="342.82,-95.07 351.78,-89.42 341.25,-88.24 342.82,-95.07"/>
<text text-anchor="start" x="297.5" y="-115.86" font-family="arial" font-size="14.00" fill="#377eb8">true</text>
</g>
<!-- ID_41_ct0_st012 -->
<g id="node6" class="node">
<title>ID_41_ct0_st012</title>
<polygon fill="none" stroke="black" points="1004,-169.06 834,-169.06 834,-119.06 1004,-119.06 1004,-169.06"/>
<text text-anchor="start" x="866" y="-154.86" font-family="arial" font-weight="bold" font-size="14.00">ID_41_ct0_st012</text>
<text text-anchor="start" x="842" y="-140.86" font-family="arial" font-size="14.00" fill="#984ea3">(Q &amp;&amp; (!R &amp;&amp; (!S &amp;&amp; !T)))</text>
<text text-anchor="start" x="907" y="-126.86" font-family="arial" font-size="14.00" fill="#ff7f00">true</text>
</g>
<!-- ID_41_ct0_st0&#45;&gt;ID_41_ct0_st012 -->
<g id="edge6" class="edge">
<title>ID_41_ct0_st0&#45;&gt;ID_41_ct0_st012</title>
<path fill="none" stroke="black" d="M261.44,-188.15C382.82,-208.25 678.1,-252.72 774,-227.06 811.89,-216.92 850.15,-194.15 877.69,-175.02"/>
<polygon fill="black" stroke="black" points="879.75,-177.85 885.89,-169.21 875.7,-172.14 879.75,-177.85"/>
<text text-anchor="start" x="521.5" y="-232.86" font-family="arial" font-size="14.00" fill="#377eb8">true</text>
</g>
<!-- _ID_41_ct0_st01 -->
<!-- _ID_41_ct0_st01&#45;&gt;ID_41_ct0_st01 -->
<g id="edge2" class="edge">
<title>_ID_41_ct0_st01&#45;&gt;ID_41_ct0_st01</title>
<path fill="none" stroke="black" d="M267.01,-78.94C290.45,-79.29 317.58,-79.7 341.74,-80.07"/>
<polygon fill="black" stroke="black" points="341.84,-83.57 351.89,-80.22 341.95,-76.57 341.84,-83.57"/>
</g>
<!-- ID_41_ct0_st01&#45;&gt;ID_41_ct0_st0 -->
<g id="edge7" class="edge">
<title>ID_41_ct0_st01&#45;&gt;ID_41_ct0_st0</title>
<path fill="none" stroke="black" d="M370.28,-106.16C358.85,-113.31 346.11,-120.84 334,-127.06 313.9,-137.39 291.26,-147.27 270.8,-155.59"/>
<polygon fill="black" stroke="black" points="269.24,-152.45 261.27,-159.42 271.85,-158.94 269.24,-152.45"/>
<text text-anchor="start" x="285" y="-151.86" font-family="arial" font-size="14.00" fill="#377eb8">(R&#39; || S&#39;)</text>
</g>
<!-- ID_41_ct0_st01&#45;&gt;ID_41_ct0_st01 -->
<g id="edge9" class="edge">
<title>ID_41_ct0_st01&#45;&gt;ID_41_ct0_st01</title>
<path fill="none" stroke="black" d="M390.7,-106.24C389.88,-115.97 395.98,-124.06 409,-124.06 417.13,-124.06 422.57,-120.9 425.3,-116.16"/>
<polygon fill="black" stroke="black" points="428.76,-116.73 427.3,-106.24 421.89,-115.35 428.76,-116.73"/>
<text text-anchor="start" x="397" y="-127.86" font-family="arial" font-size="14.00" fill="#377eb8">true</text>
</g>
<!-- ID_41_ct0_st01&#45;&gt;ID_41_ct0_st012 -->
<g id="edge10" class="edge">
<title>ID_41_ct0_st01&#45;&gt;ID_41_ct0_st012</title>
<path fill="none" stroke="black" d="M466.07,-66C538.58,-49.08 668.15,-27.57 774,-57.06 813.01,-67.93 852.01,-92.55 879.56,-112.83"/>
<polygon fill="black" stroke="black" points="877.63,-115.76 887.73,-118.97 881.84,-110.17 877.63,-115.76"/>
<text text-anchor="start" x="675.5" y="-60.86" font-family="arial" font-size="14.00" fill="#377eb8">true</text>
</g>
<!-- ID_41_ct0_st02 -->
<g id="node7" class="node">
<title>ID_41_ct0_st02</title>
<polygon fill="none" stroke="black" points="774,-131.06 601,-131.06 601,-81.06 774,-81.06 774,-131.06"/>
<text text-anchor="start" x="638.5" y="-116.86" font-family="arial" font-weight="bold" font-size="14.00">ID_41_ct0_st02</text>
<text text-anchor="start" x="609" y="-102.86" font-family="arial" font-size="14.00" fill="#984ea3">(!Q &amp;&amp; (!R &amp;&amp; (!S &amp;&amp; !T)))</text>
<text text-anchor="start" x="675.5" y="-88.86" font-family="arial" font-size="14.00" fill="#ff7f00">true</text>
</g>
<!-- ID_41_ct0_st01&#45;&gt;ID_41_ct0_st02 -->
<g id="edge8" class="edge">
<title>ID_41_ct0_st01&#45;&gt;ID_41_ct0_st02</title>
<path fill="none" stroke="black" d="M466.29,-78.24C500.21,-77.32 544.22,-77.51 583,-82.06 585.56,-82.36 588.16,-82.7 590.77,-83.08"/>
<polygon fill="black" stroke="black" points="590.49,-86.58 600.91,-84.67 591.58,-79.66 590.49,-86.58"/>
<text text-anchor="start" x="521.5" y="-85.86" font-family="arial" font-size="14.00" fill="#377eb8">true</text>
</g>
<!-- _ID_41_ct0_st012 -->
<!-- _ID_41_ct0_st012&#45;&gt;ID_41_ct0_st012 -->
<g id="edge3" class="edge">
<title>_ID_41_ct0_st012&#45;&gt;ID_41_ct0_st012</title>
<path fill="none" stroke="black" d="M750.61,-184.91C773.22,-179.39 799.33,-173.02 824.09,-166.98"/>
<polygon fill="black" stroke="black" points="824.98,-170.36 833.87,-164.59 823.32,-163.56 824.98,-170.36"/>
</g>
<!-- ID_41_ct0_st012&#45;&gt;ID_41_ct0_st0 -->
<g id="edge15" class="edge">
<title>ID_41_ct0_st012&#45;&gt;ID_41_ct0_st0</title>
<path fill="none" stroke="black" d="M893.62,-169.28C874.13,-188.23 845.29,-213.63 816,-230.06 798.84,-239.69 793.39,-240.71 774,-244.06 588.98,-276.08 536.02,-261.38 352,-224.06 322.09,-218 314.18,-217.99 285,-209.06 280.38,-207.65 275.65,-206.09 270.91,-204.44"/>
<polygon fill="black" stroke="black" points="271.81,-201.04 261.22,-200.95 269.44,-207.63 271.81,-201.04"/>
<text text-anchor="start" x="484" y="-264.86" font-family="arial" font-size="14.00" fill="#377eb8">(R&#39; || (S&#39; &amp;&amp; !T&#39;))</text>
</g>
<!-- ID_41_ct0_st012&#45;&gt;ID_41_ct0_st01 -->
<g id="edge17" class="edge">
<title>ID_41_ct0_st012&#45;&gt;ID_41_ct0_st01</title>
<path fill="none" stroke="black" d="M897.78,-118.91C872.45,-89.63 826.02,-42.9 774,-24.06 652.55,19.91 606.7,-2.71 484,-43.06 476.93,-45.39 469.7,-48.32 462.67,-51.52"/>
<polygon fill="black" stroke="black" points="460.76,-48.55 453.24,-56.01 463.77,-54.87 460.76,-48.55"/>
<text text-anchor="start" x="661.5" y="-27.86" font-family="arial" font-size="14.00" fill="#377eb8">(R&#39; || !T&#39;)</text>
</g>
<!-- ID_41_ct0_st012&#45;&gt;ID_41_ct0_st012 -->
<g id="edge18" class="edge">
<title>ID_41_ct0_st012&#45;&gt;ID_41_ct0_st012</title>
<path fill="none" stroke="black" d="M897.71,-169.24C896.76,-178.97 903.86,-187.06 919,-187.06 928.46,-187.06 934.78,-183.9 937.96,-179.16"/>
<polygon fill="black" stroke="black" points="941.41,-179.77 940.29,-169.24 934.6,-178.17 941.41,-179.77"/>
<text text-anchor="start" x="907" y="-190.86" font-family="arial" font-size="14.00" fill="#377eb8">true</text>
</g>
<!-- ID_41_ct0_st012&#45;&gt;ID_41_ct0_st02 -->
<g id="edge16" class="edge">
<title>ID_41_ct0_st012&#45;&gt;ID_41_ct0_st02</title>
<path fill="none" stroke="black" d="M833.85,-130.13C817.77,-127.47 800.83,-124.66 784.42,-121.94"/>
<polygon fill="black" stroke="black" points="784.72,-118.45 774.28,-120.27 783.58,-125.35 784.72,-118.45"/>
<text text-anchor="start" x="792" y="-130.86" font-family="arial" font-size="14.00" fill="#377eb8">true</text>
</g>
<!-- ID_41_ct0_st02&#45;&gt;ID_41_ct0_st0 -->
<g id="edge11" class="edge">
<title>ID_41_ct0_st02&#45;&gt;ID_41_ct0_st0</title>
<path fill="none" stroke="black" d="M600.84,-123.62C560.1,-131.65 510.64,-140.94 466,-148.06 407.59,-157.38 392.73,-158.01 334,-165.06 313.52,-167.52 291.14,-170.07 271.02,-172.3"/>
<polygon fill="black" stroke="black" points="270.59,-168.83 261.04,-173.4 271.36,-175.78 270.59,-168.83"/>
<text text-anchor="start" x="359.5" y="-165.86" font-family="arial" font-size="14.00" fill="#377eb8">(R&#39; || (S&#39; &amp;&amp; !T&#39;))</text>
</g>
<!-- ID_41_ct0_st02&#45;&gt;ID_41_ct0_st01 -->
<g id="edge13" class="edge">
<title>ID_41_ct0_st02&#45;&gt;ID_41_ct0_st01</title>
<path fill="none" stroke="black" d="M601,-105.45C564.79,-104.37 522.22,-102.01 484,-97.06 481.49,-96.74 478.94,-96.37 476.37,-95.97"/>
<polygon fill="black" stroke="black" points="476.84,-92.5 466.39,-94.28 475.67,-99.4 476.84,-92.5"/>
<text text-anchor="start" x="507.5" y="-108.86" font-family="arial" font-size="14.00" fill="#377eb8">(R&#39; || !T&#39;)</text>
</g>
<!-- ID_41_ct0_st02&#45;&gt;ID_41_ct0_st012 -->
<g id="edge14" class="edge">
<title>ID_41_ct0_st02&#45;&gt;ID_41_ct0_st012</title>
<path fill="none" stroke="black" d="M774.26,-102.74C788.28,-103.34 802.6,-104.65 816,-107.06 827.18,-109.07 838.76,-112.19 849.93,-115.78"/>
<polygon fill="black" stroke="black" points="849.02,-119.17 859.61,-119.05 851.25,-112.54 849.02,-119.17"/>
<text text-anchor="start" x="792" y="-110.86" font-family="arial" font-size="14.00" fill="#377eb8">true</text>
</g>
<!-- ID_41_ct0_st02&#45;&gt;ID_41_ct0_st02 -->
<g id="edge12" class="edge">
<title>ID_41_ct0_st02&#45;&gt;ID_41_ct0_st02</title>
<path fill="none" stroke="black" d="M665.83,-131.24C664.87,-140.97 672.09,-149.06 687.5,-149.06 697.13,-149.06 703.56,-145.9 706.8,-141.16"/>
<polygon fill="black" stroke="black" points="710.25,-141.78 709.17,-131.24 703.44,-140.15 710.25,-141.78"/>
<text text-anchor="start" x="675.5" y="-152.86" font-family="arial" font-size="14.00" fill="#377eb8">true</text>
</g>
</g>
</svg>
