<?xml version="1.0" encoding="UTF-8" standalone="no"?>
<!DOCTYPE svg PUBLIC "-//W3C//DTD SVG 1.1//EN"
 "http://www.w3.org/Graphics/SVG/1.1/DTD/svg11.dtd">
<!-- Generated by graphviz version 2.43.0 (0)
 -->
<!-- Title: G Pages: 1 -->
<svg width="2145pt" height="602pt"
 viewBox="0.00 0.00 2145.00 602.00" xmlns="http://www.w3.org/2000/svg" xmlns:xlink="http://www.w3.org/1999/xlink">
<g id="graph0" class="graph" transform="scale(1 1) rotate(0) translate(4 598)">
<title>G</title>
<polygon fill="white" stroke="transparent" points="-4,4 -4,-598 2141,-598 2141,4 -4,4"/>
<!-- _ID_88_ct0_st0 -->
<!-- ID_88_ct0_st0 -->
<g id="node2" class="node">
<title>ID_88_ct0_st0</title>
<polygon fill="none" stroke="black" points="264.5,-161 157.5,-161 157.5,-111 264.5,-111 264.5,-161"/>
<text text-anchor="start" x="165.5" y="-146.8" font-family="arial" font-weight="bold" font-size="14.00">ID_88_ct0_st0</text>
<text text-anchor="start" x="186.5" y="-132.8" font-family="arial" font-size="14.00" fill="#984ea3">(Q || !P)</text>
<text text-anchor="start" x="199" y="-118.8" font-family="arial" font-size="14.00" fill="#ff7f00">true</text>
</g>
<!-- _ID_88_ct0_st0&#45;&gt;ID_88_ct0_st0 -->
<g id="edge1" class="edge">
<title>_ID_88_ct0_st0&#45;&gt;ID_88_ct0_st0</title>
<path fill="none" stroke="black" d="M111.05,-136C122.71,-136 135.13,-136 147.08,-136"/>
<polygon fill="black" stroke="black" points="147.43,-139.5 157.43,-136 147.43,-132.5 147.43,-139.5"/>
</g>
<!-- ID_88_ct0_st0&#45;&gt;ID_88_ct0_st0 -->
<g id="edge4" class="edge">
<title>ID_88_ct0_st0&#45;&gt;ID_88_ct0_st0</title>
<path fill="none" stroke="black" d="M196.06,-161.18C195.39,-170.91 200.38,-179 211,-179 217.64,-179 222.08,-175.84 224.31,-171.09"/>
<polygon fill="black" stroke="black" points="227.77,-171.61 225.94,-161.18 220.86,-170.47 227.77,-171.61"/>
<text text-anchor="start" x="199" y="-182.8" font-family="arial" font-size="14.00" fill="#377eb8">true</text>
</g>
<!-- ID_88_ct0_st012 -->
<g id="node4" class="node">
<title>ID_88_ct0_st012</title>
<polygon fill="none" stroke="black" points="456,-282 334,-282 334,-232 456,-232 456,-282"/>
<text text-anchor="start" x="342" y="-267.8" font-family="arial" font-weight="bold" font-size="14.00">ID_88_ct0_st012</text>
<text text-anchor="start" x="343.5" y="-253.8" font-family="arial" font-size="14.00" fill="#984ea3">(P &amp;&amp; (!Q &amp;&amp; R))</text>
<text text-anchor="start" x="383" y="-239.8" font-family="arial" font-size="14.00" fill="#ff7f00">true</text>
</g>
<!-- ID_88_ct0_st0&#45;&gt;ID_88_ct0_st012 -->
<g id="edge5" class="edge">
<title>ID_88_ct0_st0&#45;&gt;ID_88_ct0_st012</title>
<path fill="none" stroke="black" d="M249.71,-161.07C278.14,-179.97 317.28,-206 347.63,-226.17"/>
<polygon fill="black" stroke="black" points="346.07,-229.34 356.34,-231.96 349.95,-223.51 346.07,-229.34"/>
<text text-anchor="start" x="292" y="-206.8" font-family="arial" font-size="14.00" fill="#377eb8">true</text>
</g>
<!-- ID_88_ct0_st0123W -->
<g id="node6" class="node">
<title>ID_88_ct0_st0123W</title>
<polygon fill="none" stroke="black" points="894,-277 751,-277 751,-227 894,-227 894,-277"/>
<text text-anchor="start" x="759" y="-262.8" font-family="arial" font-weight="bold" font-size="14.00">ID_88_ct0_st0123W</text>
<text text-anchor="start" x="769" y="-248.8" font-family="arial" font-size="14.00" fill="#984ea3">(P &amp;&amp; (!Q &amp;&amp; !R))</text>
<text text-anchor="start" x="799.5" y="-234.8" font-family="arial" font-size="14.00" fill="#ff7f00">c0 &lt;= 5</text>
</g>
<!-- ID_88_ct0_st0&#45;&gt;ID_88_ct0_st0123W -->
<g id="edge6" class="edge">
<title>ID_88_ct0_st0&#45;&gt;ID_88_ct0_st0123W</title>
<path fill="none" stroke="black" d="M264.6,-125.14C362.21,-107.65 575.73,-82.14 733,-155 761.85,-168.37 785.54,-195.96 801.12,-218.32"/>
<polygon fill="black" stroke="black" points="798.4,-220.55 806.89,-226.89 804.21,-216.64 798.4,-220.55"/>
<text text-anchor="start" x="481" y="-125.8" font-family="arial" font-size="14.00" fill="#377eb8">true</text>
<text text-anchor="start" x="474" y="-110.8" font-family="arial" font-size="14.00">c0 :=0</text>
</g>
<!-- _ID_88_ct0_st012 -->
<!-- _ID_88_ct0_st012&#45;&gt;ID_88_ct0_st012 -->
<g id="edge2" class="edge">
<title>_ID_88_ct0_st012&#45;&gt;ID_88_ct0_st012</title>
<path fill="none" stroke="black" d="M230.12,-419.98C260.71,-389.55 323.04,-327.57 361.4,-289.42"/>
<polygon fill="black" stroke="black" points="364.11,-291.66 368.73,-282.13 359.17,-286.7 364.11,-291.66"/>
</g>
<!-- ID_88_ct0_st012&#45;&gt;ID_88_ct0_st0 -->
<g id="edge12" class="edge">
<title>ID_88_ct0_st012&#45;&gt;ID_88_ct0_st0</title>
<path fill="none" stroke="black" d="M377.2,-231.97C362.99,-212.56 340.98,-186.29 316,-170 303.46,-161.82 288.78,-155.46 274.48,-150.56"/>
<polygon fill="black" stroke="black" points="275.25,-147.14 264.66,-147.41 273.11,-153.8 275.25,-147.14"/>
<text text-anchor="start" x="296.5" y="-173.8" font-family="arial" font-size="14.00" fill="#377eb8">Q&#39;</text>
</g>
<!-- ID_88_ct0_st012&#45;&gt;ID_88_ct0_st012 -->
<g id="edge15" class="edge">
<title>ID_88_ct0_st012&#45;&gt;ID_88_ct0_st012</title>
<path fill="none" stroke="black" d="M378.19,-282.18C377.44,-291.91 383.05,-300 395,-300 402.47,-300 407.46,-296.84 409.97,-292.09"/>
<polygon fill="black" stroke="black" points="413.43,-292.65 411.81,-282.18 406.54,-291.37 413.43,-292.65"/>
<text text-anchor="start" x="383" y="-303.8" font-family="arial" font-size="14.00" fill="#377eb8">true</text>
</g>
<!-- ID_88_ct0_st012&#45;&gt;ID_88_ct0_st0123W -->
<g id="edge16" class="edge">
<title>ID_88_ct0_st012&#45;&gt;ID_88_ct0_st0123W</title>
<path fill="none" stroke="black" d="M456.06,-256.29C530.5,-255.42 657.65,-253.93 740.62,-252.95"/>
<polygon fill="black" stroke="black" points="740.8,-256.45 750.76,-252.83 740.72,-249.45 740.8,-256.45"/>
<text text-anchor="start" x="591.5" y="-273.8" font-family="arial" font-size="14.00" fill="#377eb8">true</text>
<text text-anchor="start" x="584.5" y="-258.8" font-family="arial" font-size="14.00">c0 :=0</text>
</g>
<!-- ID_88_ct0_st02 -->
<g id="node7" class="node">
<title>ID_88_ct0_st02</title>
<polygon fill="none" stroke="black" points="1106,-265 983,-265 983,-215 1106,-215 1106,-265"/>
<text text-anchor="start" x="995.5" y="-250.8" font-family="arial" font-weight="bold" font-size="14.00">ID_88_ct0_st02</text>
<text text-anchor="start" x="991" y="-236.8" font-family="arial" font-size="14.00" fill="#984ea3">(!P &amp;&amp; (!Q &amp;&amp; R))</text>
<text text-anchor="start" x="1032.5" y="-222.8" font-family="arial" font-size="14.00" fill="#ff7f00">true</text>
</g>
<!-- ID_88_ct0_st012&#45;&gt;ID_88_ct0_st02 -->
<g id="edge13" class="edge">
<title>ID_88_ct0_st012&#45;&gt;ID_88_ct0_st02</title>
<path fill="none" stroke="black" d="M426.47,-231.88C452.25,-212.36 491.11,-186.84 530,-176 684.31,-132.99 872.78,-180.94 972.97,-214.01"/>
<polygon fill="black" stroke="black" points="972.08,-217.41 982.68,-217.26 974.3,-210.77 972.08,-217.41"/>
<text text-anchor="start" x="702" y="-164.8" font-family="arial" font-size="14.00" fill="#377eb8">true</text>
</g>
<!-- ID_88_ct0_st023W -->
<g id="node8" class="node">
<title>ID_88_ct0_st023W</title>
<polygon fill="none" stroke="black" points="671,-408 536,-408 536,-358 671,-358 671,-408"/>
<text text-anchor="start" x="544" y="-393.8" font-family="arial" font-weight="bold" font-size="14.00">ID_88_ct0_st023W</text>
<text text-anchor="start" x="548" y="-379.8" font-family="arial" font-size="14.00" fill="#984ea3">(!P &amp;&amp; (!Q &amp;&amp; !R))</text>
<text text-anchor="start" x="580.5" y="-365.8" font-family="arial" font-size="14.00" fill="#ff7f00">c0 &lt;= 5</text>
</g>
<!-- ID_88_ct0_st012&#45;&gt;ID_88_ct0_st023W -->
<g id="edge14" class="edge">
<title>ID_88_ct0_st012&#45;&gt;ID_88_ct0_st023W</title>
<path fill="none" stroke="black" d="M411.94,-282.05C425.97,-302.13 448.16,-329.59 474,-346 489.63,-355.92 507.98,-363.25 525.86,-368.64"/>
<polygon fill="black" stroke="black" points="525.14,-372.08 535.71,-371.44 527.05,-365.35 525.14,-372.08"/>
<text text-anchor="start" x="481" y="-381.8" font-family="arial" font-size="14.00" fill="#377eb8">true</text>
<text text-anchor="start" x="474" y="-366.8" font-family="arial" font-size="14.00">c0 :=0</text>
</g>
<!-- _ID_88_ct0_st0123W -->
<!-- _ID_88_ct0_st0123W&#45;&gt;ID_88_ct0_st0123W -->
<g id="edge3" class="edge">
<title>_ID_88_ct0_st0123W&#45;&gt;ID_88_ct0_st0123W</title>
<path fill="none" stroke="black" d="M677.06,-219.38C697.59,-224.02 720.05,-229.09 741.02,-233.83"/>
<polygon fill="black" stroke="black" points="740.33,-237.26 750.85,-236.05 741.87,-230.43 740.33,-237.26"/>
</g>
<!-- ID_88_ct0_st0123W&#45;&gt;ID_88_ct0_st0 -->
<g id="edge24" class="edge">
<title>ID_88_ct0_st0123W&#45;&gt;ID_88_ct0_st0</title>
<path fill="none" stroke="black" d="M806.36,-226.56C790.44,-201.34 763.49,-162.7 733,-136 711.43,-117.12 704.29,-112.77 677,-104 531.86,-57.36 483.94,-74.49 334,-102 314.39,-105.6 293.36,-110.91 274.38,-116.28"/>
<polygon fill="black" stroke="black" points="273.3,-112.95 264.66,-119.08 275.24,-119.67 273.3,-112.95"/>
<text text-anchor="start" x="485.5" y="-81.8" font-family="arial" font-size="14.00" fill="#377eb8">Q&#39;</text>
</g>
<!-- ID_88_ct0_st0123W&#45;&gt;ID_88_ct0_st012 -->
<g id="edge28" class="edge">
<title>ID_88_ct0_st0123W&#45;&gt;ID_88_ct0_st012</title>
<path fill="none" stroke="black" d="M750.89,-273.85C727.6,-280.04 701.41,-285.92 677,-289 612.18,-297.17 594.89,-296.64 530,-289 508.97,-286.52 486.47,-281.93 466.02,-276.99"/>
<polygon fill="black" stroke="black" points="466.71,-273.55 456.16,-274.54 465.02,-280.35 466.71,-273.55"/>
<text text-anchor="start" x="591.5" y="-297.8" font-family="arial" font-size="14.00" fill="#377eb8">true</text>
</g>
<!-- ID_88_ct0_st0123W&#45;&gt;ID_88_ct0_st0123W -->
<g id="edge29" class="edge">
<title>ID_88_ct0_st0123W&#45;&gt;ID_88_ct0_st0123W</title>
<path fill="none" stroke="black" d="M802.33,-277.18C801.43,-286.91 808.16,-295 822.5,-295 831.46,-295 837.45,-291.84 840.46,-287.09"/>
<polygon fill="black" stroke="black" points="843.92,-287.7 842.67,-277.18 837.08,-286.18 843.92,-287.7"/>
<text text-anchor="start" x="803.5" y="-298.8" font-family="arial" font-size="14.00" fill="#377eb8">c0 &lt; 5</text>
</g>
<!-- ID_88_ct0_st0123W&#45;&gt;ID_88_ct0_st02 -->
<g id="edge25" class="edge">
<title>ID_88_ct0_st0123W&#45;&gt;ID_88_ct0_st02</title>
<path fill="none" stroke="black" d="M894.08,-228.45C900.09,-227.06 906.12,-225.88 912,-225 931.64,-222.07 953.01,-222.83 972.7,-225.12"/>
<polygon fill="black" stroke="black" points="972.46,-228.62 982.83,-226.44 973.37,-221.68 972.46,-228.62"/>
<text text-anchor="start" x="923" y="-228.8" font-family="arial" font-size="14.00" fill="#377eb8">true</text>
</g>
<!-- ID_88_ct0_st0123W&#45;&gt;ID_88_ct0_st023W -->
<g id="edge26" class="edge">
<title>ID_88_ct0_st0123W&#45;&gt;ID_88_ct0_st023W</title>
<path fill="none" stroke="black" d="M767.73,-277.08C733.99,-292.89 696.57,-310.58 695,-312 683.48,-322.45 688.14,-331.15 677,-342 673.34,-345.57 669.31,-348.93 665.08,-352.08"/>
<polygon fill="black" stroke="black" points="662.96,-349.29 656.74,-357.86 666.95,-355.04 662.96,-349.29"/>
<text text-anchor="start" x="695" y="-315.8" font-family="arial" font-size="14.00" fill="#377eb8">c0 &lt; 5</text>
</g>
<!-- ID_88_ct0_st0234 -->
<g id="node9" class="node">
<title>ID_88_ct0_st0234</title>
<polygon fill="none" stroke="black" points="1302,-378 1173,-378 1173,-328 1302,-328 1302,-378"/>
<text text-anchor="start" x="1181" y="-363.8" font-family="arial" font-weight="bold" font-size="14.00">ID_88_ct0_st0234</text>
<text text-anchor="start" x="1182" y="-349.8" font-family="arial" font-size="14.00" fill="#984ea3">(!P &amp;&amp; (!Q &amp;&amp; !R))</text>
<text text-anchor="start" x="1225.5" y="-335.8" font-family="arial" font-size="14.00" fill="#ff7f00">true</text>
</g>
<!-- ID_88_ct0_st0123W&#45;&gt;ID_88_ct0_st0234 -->
<g id="edge27" class="edge">
<title>ID_88_ct0_st0123W&#45;&gt;ID_88_ct0_st0234</title>
<path fill="none" stroke="black" d="M865.42,-226.9C923.72,-195.52 1031.29,-150.55 1113,-191 1166.47,-217.47 1203.1,-279.41 1221.86,-318.57"/>
<polygon fill="black" stroke="black" points="1218.86,-320.41 1226.25,-328 1225.21,-317.46 1218.86,-320.41"/>
<text text-anchor="start" x="1021.5" y="-194.8" font-family="arial" font-size="14.00" fill="#377eb8">c0 &gt;= 5</text>
</g>
<!-- ID_88_ct0_st01234 -->
<g id="node10" class="node">
<title>ID_88_ct0_st01234</title>
<polygon fill="none" stroke="black" points="1113,-409 976,-409 976,-359 1113,-359 1113,-409"/>
<text text-anchor="start" x="984" y="-394.8" font-family="arial" font-weight="bold" font-size="14.00">ID_88_ct0_st01234</text>
<text text-anchor="start" x="991" y="-380.8" font-family="arial" font-size="14.00" fill="#984ea3">(P &amp;&amp; (!Q &amp;&amp; !R))</text>
<text text-anchor="start" x="1032.5" y="-366.8" font-family="arial" font-size="14.00" fill="#ff7f00">true</text>
</g>
<!-- ID_88_ct0_st0123W&#45;&gt;ID_88_ct0_st01234 -->
<g id="edge30" class="edge">
<title>ID_88_ct0_st0123W&#45;&gt;ID_88_ct0_st01234</title>
<path fill="none" stroke="black" d="M865.4,-277.14C901.64,-298.88 954.14,-330.38 992.75,-353.55"/>
<polygon fill="black" stroke="black" points="991.38,-356.81 1001.76,-358.95 994.98,-350.81 991.38,-356.81"/>
<text text-anchor="start" x="912" y="-332.8" font-family="arial" font-size="14.00" fill="#377eb8">c0 &gt;= 5</text>
</g>
<!-- ID_88_ct0_st02&#45;&gt;ID_88_ct0_st0 -->
<g id="edge7" class="edge">
<title>ID_88_ct0_st02&#45;&gt;ID_88_ct0_st0</title>
<path fill="none" stroke="black" d="M982.86,-217.27C980.34,-215.06 978.03,-212.65 976,-210 944.53,-168.94 984.88,-139.2 958,-95 919.98,-32.47 896.69,0 823.5,0 394,0 394,0 394,0 325.69,0 266.51,-62.24 235.37,-102.51"/>
<polygon fill="black" stroke="black" points="232.39,-100.65 229.16,-110.74 237.98,-104.87 232.39,-100.65"/>
<text text-anchor="start" x="596" y="-3.8" font-family="arial" font-size="14.00" fill="#377eb8">Q&#39;</text>
</g>
<!-- ID_88_ct0_st02&#45;&gt;ID_88_ct0_st012 -->
<g id="edge10" class="edge">
<title>ID_88_ct0_st02&#45;&gt;ID_88_ct0_st012</title>
<path fill="none" stroke="black" d="M982.9,-216.75C980.4,-214.68 978.08,-212.44 976,-210 955.96,-186.57 978.43,-166.09 958,-143 876.03,-50.38 818.67,-50.04 695,-52 596.74,-53.56 554.35,-2.41 474,-59 421.04,-96.3 404.03,-175.39 398.58,-221.53"/>
<polygon fill="black" stroke="black" points="395.07,-221.36 397.5,-231.67 402.04,-222.1 395.07,-221.36"/>
<text text-anchor="start" x="702" y="-55.8" font-family="arial" font-size="14.00" fill="#377eb8">true</text>
</g>
<!-- ID_88_ct0_st02&#45;&gt;ID_88_ct0_st0123W -->
<g id="edge11" class="edge">
<title>ID_88_ct0_st02&#45;&gt;ID_88_ct0_st0123W</title>
<path fill="none" stroke="black" d="M983,-243.3C958.68,-244.63 930.28,-246.18 904.25,-247.6"/>
<polygon fill="black" stroke="black" points="903.81,-244.11 894.02,-248.15 904.19,-251.1 903.81,-244.11"/>
<text text-anchor="start" x="923" y="-265.8" font-family="arial" font-size="14.00" fill="#377eb8">true</text>
<text text-anchor="start" x="916" y="-250.8" font-family="arial" font-size="14.00">c0 :=0</text>
</g>
<!-- ID_88_ct0_st02&#45;&gt;ID_88_ct0_st02 -->
<g id="edge8" class="edge">
<title>ID_88_ct0_st02&#45;&gt;ID_88_ct0_st02</title>
<path fill="none" stroke="black" d="M1026.2,-265.18C1025.38,-274.91 1031.48,-283 1044.5,-283 1052.63,-283 1058.07,-279.84 1060.8,-275.09"/>
<polygon fill="black" stroke="black" points="1064.26,-275.67 1062.8,-265.18 1057.39,-274.29 1064.26,-275.67"/>
<text text-anchor="start" x="1032.5" y="-286.8" font-family="arial" font-size="14.00" fill="#377eb8">true</text>
</g>
<!-- ID_88_ct0_st02&#45;&gt;ID_88_ct0_st023W -->
<g id="edge9" class="edge">
<title>ID_88_ct0_st02&#45;&gt;ID_88_ct0_st023W</title>
<path fill="none" stroke="black" d="M1001.76,-265.06C972.38,-281.94 931.72,-303.82 894,-319 832.67,-343.69 812.61,-336 751,-360 742.67,-363.25 741.58,-366.48 733,-369 716.53,-373.84 698.43,-377.04 681.15,-379.15"/>
<polygon fill="black" stroke="black" points="680.64,-375.68 671.09,-380.26 681.41,-382.64 680.64,-375.68"/>
<text text-anchor="start" x="810.5" y="-378.8" font-family="arial" font-size="14.00" fill="#377eb8">true</text>
<text text-anchor="start" x="803.5" y="-363.8" font-family="arial" font-size="14.00">c0 :=0</text>
</g>
<!-- ID_88_ct0_st023W&#45;&gt;ID_88_ct0_st0 -->
<g id="edge17" class="edge">
<title>ID_88_ct0_st023W&#45;&gt;ID_88_ct0_st0</title>
<path fill="none" stroke="black" d="M535.91,-394.49C527.88,-395.52 519.77,-396.4 512,-397 426.75,-403.56 397.26,-381.52 334,-324 285.09,-279.53 247.37,-211.29 227.53,-170.42"/>
<polygon fill="black" stroke="black" points="230.57,-168.66 223.1,-161.14 224.25,-171.67 230.57,-168.66"/>
<text text-anchor="start" x="387.5" y="-399.8" font-family="arial" font-size="14.00" fill="#377eb8">Q&#39;</text>
</g>
<!-- ID_88_ct0_st023W&#45;&gt;ID_88_ct0_st012 -->
<g id="edge21" class="edge">
<title>ID_88_ct0_st023W&#45;&gt;ID_88_ct0_st012</title>
<path fill="none" stroke="black" d="M555.33,-357.96C546.73,-352.94 537.97,-347.51 530,-342 521.43,-336.08 520.72,-332.7 512,-327 496.2,-316.66 490.37,-317.4 474,-308 463.04,-301.71 451.51,-294.5 440.77,-287.53"/>
<polygon fill="black" stroke="black" points="442.64,-284.57 432.35,-282.02 438.8,-290.43 442.64,-284.57"/>
<text text-anchor="start" x="481" y="-330.8" font-family="arial" font-size="14.00" fill="#377eb8">true</text>
</g>
<!-- ID_88_ct0_st023W&#45;&gt;ID_88_ct0_st0123W -->
<g id="edge22" class="edge">
<title>ID_88_ct0_st023W&#45;&gt;ID_88_ct0_st0123W</title>
<path fill="none" stroke="black" d="M671,-361.11C691.6,-353.03 713.89,-342.89 733,-331 753.74,-318.1 774.25,-300.19 790.3,-284.69"/>
<polygon fill="black" stroke="black" points="793.13,-286.82 797.81,-277.31 788.22,-281.83 793.13,-286.82"/>
<text text-anchor="start" x="695" y="-353.8" font-family="arial" font-size="14.00" fill="#377eb8">c0 &lt; 5</text>
</g>
<!-- ID_88_ct0_st023W&#45;&gt;ID_88_ct0_st02 -->
<g id="edge18" class="edge">
<title>ID_88_ct0_st023W&#45;&gt;ID_88_ct0_st02</title>
<path fill="none" stroke="black" d="M671.01,-396.09C730.7,-405.18 820.06,-412.1 894,-390 953.52,-372.21 999.59,-312.57 1024.05,-274.06"/>
<polygon fill="black" stroke="black" points="1027.22,-275.59 1029.5,-265.24 1021.27,-271.9 1027.22,-275.59"/>
<text text-anchor="start" x="810.5" y="-407.8" font-family="arial" font-size="14.00" fill="#377eb8">true</text>
</g>
<!-- ID_88_ct0_st023W&#45;&gt;ID_88_ct0_st023W -->
<g id="edge19" class="edge">
<title>ID_88_ct0_st023W&#45;&gt;ID_88_ct0_st023W</title>
<path fill="none" stroke="black" d="M582.96,-408.18C582.04,-417.91 588.89,-426 603.5,-426 612.63,-426 618.73,-422.84 621.8,-418.09"/>
<polygon fill="black" stroke="black" points="625.25,-418.7 624.04,-408.18 618.42,-417.15 625.25,-418.7"/>
<text text-anchor="start" x="584.5" y="-429.8" font-family="arial" font-size="14.00" fill="#377eb8">c0 &lt; 5</text>
</g>
<!-- ID_88_ct0_st023W&#45;&gt;ID_88_ct0_st0234 -->
<g id="edge20" class="edge">
<title>ID_88_ct0_st023W&#45;&gt;ID_88_ct0_st0234</title>
<path fill="none" stroke="black" d="M634.34,-408.18C662.35,-429.8 706.5,-458.87 751,-468 908.78,-500.38 963.08,-509.86 1113,-451 1149.32,-436.74 1183.49,-407.97 1206.64,-385.27"/>
<polygon fill="black" stroke="black" points="1209.17,-387.69 1213.76,-378.14 1204.22,-382.74 1209.17,-387.69"/>
<text text-anchor="start" x="912" y="-496.8" font-family="arial" font-size="14.00" fill="#377eb8">c0 &gt;= 5</text>
</g>
<!-- ID_88_ct0_st023W&#45;&gt;ID_88_ct0_st01234 -->
<g id="edge23" class="edge">
<title>ID_88_ct0_st023W&#45;&gt;ID_88_ct0_st01234</title>
<path fill="none" stroke="black" d="M649.33,-408.15C663.53,-415.05 679.56,-421.79 695,-426 807.77,-456.76 845.26,-456.87 958,-426 969.1,-422.96 980.49,-418.47 991.18,-413.54"/>
<polygon fill="black" stroke="black" points="992.88,-416.6 1000.38,-409.12 989.85,-410.3 992.88,-416.6"/>
<text text-anchor="start" x="799.5" y="-452.8" font-family="arial" font-size="14.00" fill="#377eb8">c0 &gt;= 5</text>
</g>
<!-- ID_88_ct0_st0234&#45;&gt;ID_88_ct0_st0234 -->
<g id="edge46" class="edge">
<title>ID_88_ct0_st0234&#45;&gt;ID_88_ct0_st0234</title>
<path fill="none" stroke="black" d="M1219.94,-378.18C1219.16,-387.91 1225.02,-396 1237.5,-396 1245.3,-396 1250.51,-392.84 1253.14,-388.09"/>
<polygon fill="black" stroke="black" points="1256.59,-388.66 1255.06,-378.18 1249.72,-387.33 1256.59,-388.66"/>
<text text-anchor="start" x="1225.5" y="-399.8" font-family="arial" font-size="14.00" fill="#377eb8">true</text>
</g>
<!-- ID_88_ct0_st0234&#45;&gt;ID_88_ct0_st01234 -->
<g id="edge48" class="edge">
<title>ID_88_ct0_st0234&#45;&gt;ID_88_ct0_st01234</title>
<path fill="none" stroke="black" d="M1172.81,-345.84C1158.93,-345.6 1144.4,-346.36 1131,-349 1123.17,-350.54 1115.15,-352.81 1107.31,-355.45"/>
<polygon fill="black" stroke="black" points="1106.1,-352.17 1097.87,-358.85 1108.47,-358.76 1106.1,-352.17"/>
<text text-anchor="start" x="1131" y="-352.8" font-family="arial" font-size="14.00" fill="#377eb8">true</text>
</g>
<!-- ID_88_ct0_st024 -->
<g id="node11" class="node">
<title>ID_88_ct0_st024</title>
<polygon fill="none" stroke="black" points="1696,-274 1573,-274 1573,-224 1696,-224 1696,-274"/>
<text text-anchor="start" x="1581.5" y="-259.8" font-family="arial" font-weight="bold" font-size="14.00">ID_88_ct0_st024</text>
<text text-anchor="start" x="1581" y="-245.8" font-family="arial" font-size="14.00" fill="#984ea3">(!P &amp;&amp; (!Q &amp;&amp; R))</text>
<text text-anchor="start" x="1622.5" y="-231.8" font-family="arial" font-size="14.00" fill="#ff7f00">true</text>
</g>
<!-- ID_88_ct0_st0234&#45;&gt;ID_88_ct0_st024 -->
<g id="edge45" class="edge">
<title>ID_88_ct0_st0234&#45;&gt;ID_88_ct0_st024</title>
<path fill="none" stroke="black" d="M1302.08,-335.47C1356.84,-320.45 1438.02,-298.41 1509,-280 1526.39,-275.49 1545.19,-270.74 1562.77,-266.36"/>
<polygon fill="black" stroke="black" points="1564.11,-269.63 1572.97,-263.82 1562.42,-262.84 1564.11,-269.63"/>
<text text-anchor="start" x="1414.5" y="-321.8" font-family="arial" font-size="14.00" fill="#377eb8">true</text>
</g>
<!-- ID_88_ct0_st0124 -->
<g id="node13" class="node">
<title>ID_88_ct0_st0124</title>
<polygon fill="none" stroke="black" points="1491,-407 1362,-407 1362,-357 1491,-357 1491,-407"/>
<text text-anchor="start" x="1370" y="-392.8" font-family="arial" font-weight="bold" font-size="14.00">ID_88_ct0_st0124</text>
<text text-anchor="start" x="1375" y="-378.8" font-family="arial" font-size="14.00" fill="#984ea3">(P &amp;&amp; (!Q &amp;&amp; R))</text>
<text text-anchor="start" x="1414.5" y="-364.8" font-family="arial" font-size="14.00" fill="#ff7f00">true</text>
</g>
<!-- ID_88_ct0_st0234&#45;&gt;ID_88_ct0_st0124 -->
<g id="edge47" class="edge">
<title>ID_88_ct0_st0234&#45;&gt;ID_88_ct0_st0124</title>
<path fill="none" stroke="black" d="M1302.07,-362.86C1318.03,-365.33 1335.29,-368.01 1351.7,-370.55"/>
<polygon fill="black" stroke="black" points="1351.37,-374.05 1361.79,-372.12 1352.44,-367.13 1351.37,-374.05"/>
<text text-anchor="start" x="1320" y="-372.8" font-family="arial" font-size="14.00" fill="#377eb8">true</text>
</g>
<!-- ID_88_ct0_st01234&#45;&gt;ID_88_ct0_st0234 -->
<g id="edge56" class="edge">
<title>ID_88_ct0_st01234&#45;&gt;ID_88_ct0_st0234</title>
<path fill="none" stroke="black" d="M1113.11,-373.03C1129.19,-370.42 1146.44,-367.62 1162.78,-364.97"/>
<polygon fill="black" stroke="black" points="1163.51,-368.39 1172.82,-363.34 1162.39,-361.48 1163.51,-368.39"/>
<text text-anchor="start" x="1131" y="-372.8" font-family="arial" font-size="14.00" fill="#377eb8">true</text>
</g>
<!-- ID_88_ct0_st01234&#45;&gt;ID_88_ct0_st01234 -->
<g id="edge58" class="edge">
<title>ID_88_ct0_st01234&#45;&gt;ID_88_ct0_st01234</title>
<path fill="none" stroke="black" d="M1026.2,-409.18C1025.38,-418.91 1031.48,-427 1044.5,-427 1052.63,-427 1058.07,-423.84 1060.8,-419.09"/>
<polygon fill="black" stroke="black" points="1064.26,-419.67 1062.8,-409.18 1057.39,-418.29 1064.26,-419.67"/>
<text text-anchor="start" x="1032.5" y="-430.8" font-family="arial" font-size="14.00" fill="#377eb8">true</text>
</g>
<!-- ID_88_ct0_st01234&#45;&gt;ID_88_ct0_st024 -->
<g id="edge55" class="edge">
<title>ID_88_ct0_st01234&#45;&gt;ID_88_ct0_st024</title>
<path fill="none" stroke="black" d="M1090.45,-359C1114.53,-346.15 1144.93,-330.76 1173,-319 1317.31,-258.56 1354.16,-236.46 1509,-214 1529.23,-211.07 1535,-209.74 1555,-214 1562.02,-215.49 1569.18,-217.66 1576.17,-220.2"/>
<polygon fill="black" stroke="black" points="1574.99,-223.5 1585.58,-223.86 1577.53,-216.97 1574.99,-223.5"/>
<text text-anchor="start" x="1320" y="-260.8" font-family="arial" font-size="14.00" fill="#377eb8">true</text>
</g>
<!-- ID_88_ct0_st01234&#45;&gt;ID_88_ct0_st0124 -->
<g id="edge57" class="edge">
<title>ID_88_ct0_st01234&#45;&gt;ID_88_ct0_st0124</title>
<path fill="none" stroke="black" d="M1113.25,-406.86C1132.35,-412.28 1153.29,-417.27 1173,-420 1229.79,-427.86 1245.3,-428.53 1302,-420 1318.44,-417.53 1335.72,-413.3 1351.96,-408.54"/>
<polygon fill="black" stroke="black" points="1353.37,-411.77 1361.93,-405.53 1351.34,-405.08 1353.37,-411.77"/>
<text text-anchor="start" x="1225.5" y="-429.8" font-family="arial" font-size="14.00" fill="#377eb8">true</text>
</g>
<!-- ID_88_ct0_st024&#45;&gt;ID_88_ct0_st024 -->
<g id="edge31" class="edge">
<title>ID_88_ct0_st024&#45;&gt;ID_88_ct0_st024</title>
<path fill="none" stroke="black" d="M1616.2,-274.18C1615.38,-283.91 1621.48,-292 1634.5,-292 1642.63,-292 1648.07,-288.84 1650.8,-284.09"/>
<polygon fill="black" stroke="black" points="1654.26,-284.67 1652.8,-274.18 1647.39,-283.29 1654.26,-284.67"/>
<text text-anchor="start" x="1622.5" y="-295.8" font-family="arial" font-size="14.00" fill="#377eb8">true</text>
</g>
<!-- ID_88_ct0_st023W4 -->
<g id="node12" class="node">
<title>ID_88_ct0_st023W4</title>
<polygon fill="none" stroke="black" points="1913,-319 1770,-319 1770,-269 1913,-269 1913,-319"/>
<text text-anchor="start" x="1778" y="-304.8" font-family="arial" font-weight="bold" font-size="14.00">ID_88_ct0_st023W4</text>
<text text-anchor="start" x="1786" y="-290.8" font-family="arial" font-size="14.00" fill="#984ea3">(!P &amp;&amp; (!Q &amp;&amp; !R))</text>
<text text-anchor="start" x="1818.5" y="-276.8" font-family="arial" font-size="14.00" fill="#ff7f00">c0 &lt;= 5</text>
</g>
<!-- ID_88_ct0_st024&#45;&gt;ID_88_ct0_st023W4 -->
<g id="edge32" class="edge">
<title>ID_88_ct0_st024&#45;&gt;ID_88_ct0_st023W4</title>
<path fill="none" stroke="black" d="M1696.26,-247.97C1714.38,-248.77 1734.17,-250.76 1752,-255 1762.15,-257.41 1772.59,-260.95 1782.58,-264.93"/>
<polygon fill="black" stroke="black" points="1781.41,-268.23 1791.99,-268.85 1784.1,-261.77 1781.41,-268.23"/>
<text text-anchor="start" x="1721" y="-273.8" font-family="arial" font-size="14.00" fill="#377eb8">true</text>
<text text-anchor="start" x="1714" y="-258.8" font-family="arial" font-size="14.00">c0 :=0</text>
</g>
<!-- ID_88_ct0_st024&#45;&gt;ID_88_ct0_st0124 -->
<g id="edge33" class="edge">
<title>ID_88_ct0_st024&#45;&gt;ID_88_ct0_st0124</title>
<path fill="none" stroke="black" d="M1572.96,-271.2C1547.12,-281.21 1520.32,-292.45 1509,-300 1488.77,-313.5 1469.43,-332.6 1454.67,-348.96"/>
<polygon fill="black" stroke="black" points="1451.8,-346.92 1447.81,-356.74 1457.05,-351.55 1451.8,-346.92"/>
<text text-anchor="start" x="1520" y="-303.8" font-family="arial" font-size="14.00" fill="#377eb8">true</text>
</g>
<!-- ID_88_ct0_st0123W4 -->
<g id="node14" class="node">
<title>ID_88_ct0_st0123W4</title>
<polygon fill="none" stroke="black" points="2137,-445 1987,-445 1987,-395 2137,-395 2137,-445"/>
<text text-anchor="start" x="1995" y="-430.8" font-family="arial" font-weight="bold" font-size="14.00">ID_88_ct0_st0123W4</text>
<text text-anchor="start" x="2008.5" y="-416.8" font-family="arial" font-size="14.00" fill="#984ea3">(P &amp;&amp; (!Q &amp;&amp; !R))</text>
<text text-anchor="start" x="2039" y="-402.8" font-family="arial" font-size="14.00" fill="#ff7f00">c0 &lt;= 5</text>
</g>
<!-- ID_88_ct0_st024&#45;&gt;ID_88_ct0_st0123W4 -->
<g id="edge34" class="edge">
<title>ID_88_ct0_st024&#45;&gt;ID_88_ct0_st0123W4</title>
<path fill="none" stroke="black" d="M1696.2,-228.61C1754.57,-212.65 1843.87,-198 1913,-230 1980.13,-261.08 2025.16,-339.94 2046.57,-385.7"/>
<polygon fill="black" stroke="black" points="2043.45,-387.29 2050.78,-394.94 2049.82,-384.39 2043.45,-387.29"/>
<text text-anchor="start" x="1829.5" y="-248.8" font-family="arial" font-size="14.00" fill="#377eb8">true</text>
<text text-anchor="start" x="1822.5" y="-233.8" font-family="arial" font-size="14.00">c0 :=0</text>
</g>
<!-- ID_88_ct0_st023W4&#45;&gt;ID_88_ct0_st0234 -->
<g id="edge41" class="edge">
<title>ID_88_ct0_st023W4&#45;&gt;ID_88_ct0_st0234</title>
<path fill="none" stroke="black" d="M1777.5,-268.81C1774.91,-267.27 1772.4,-265.67 1770,-264 1760.45,-257.36 1761.25,-252.06 1752,-245 1729.56,-227.86 1723.39,-221.87 1696,-215 1642.98,-201.69 1627.04,-206.75 1573,-215 1475.87,-229.84 1451.9,-241.34 1362,-281 1335.54,-292.67 1307.58,-308.64 1284.97,-322.57"/>
<polygon fill="black" stroke="black" points="1282.9,-319.74 1276.26,-327.99 1286.6,-325.68 1282.9,-319.74"/>
<text text-anchor="start" x="1509" y="-229.8" font-family="arial" font-size="14.00" fill="#377eb8">c0 &gt;= 5</text>
</g>
<!-- ID_88_ct0_st023W4&#45;&gt;ID_88_ct0_st01234 -->
<g id="edge44" class="edge">
<title>ID_88_ct0_st023W4&#45;&gt;ID_88_ct0_st01234</title>
<path fill="none" stroke="black" d="M1775.29,-268.91C1773.43,-267.36 1771.66,-265.73 1770,-264 1754.24,-247.54 1767.2,-232.97 1752,-216 1713.28,-172.77 1693.54,-157 1635.5,-157 1236.5,-157 1236.5,-157 1236.5,-157 1150.14,-157 1168.91,-241.19 1113,-307 1100.59,-321.61 1086.66,-337.57 1074.69,-351.16"/>
<polygon fill="black" stroke="black" points="1071.89,-349.04 1067.89,-358.85 1077.13,-353.67 1071.89,-349.04"/>
<text text-anchor="start" x="1403.5" y="-160.8" font-family="arial" font-size="14.00" fill="#377eb8">c0 &gt;= 5</text>
</g>
<!-- ID_88_ct0_st023W4&#45;&gt;ID_88_ct0_st024 -->
<g id="edge39" class="edge">
<title>ID_88_ct0_st023W4&#45;&gt;ID_88_ct0_st024</title>
<path fill="none" stroke="black" d="M1769.86,-293.46C1751.46,-292.1 1731.81,-289.56 1714,-285 1706.91,-283.19 1699.67,-280.75 1692.59,-278.01"/>
<polygon fill="black" stroke="black" points="1693.66,-274.66 1683.08,-274.09 1691,-281.13 1693.66,-274.66"/>
<text text-anchor="start" x="1721" y="-294.8" font-family="arial" font-size="14.00" fill="#377eb8">true</text>
</g>
<!-- ID_88_ct0_st023W4&#45;&gt;ID_88_ct0_st023W4 -->
<g id="edge40" class="edge">
<title>ID_88_ct0_st023W4&#45;&gt;ID_88_ct0_st023W4</title>
<path fill="none" stroke="black" d="M1821.33,-319.18C1820.43,-328.91 1827.16,-337 1841.5,-337 1850.46,-337 1856.45,-333.84 1859.46,-329.09"/>
<polygon fill="black" stroke="black" points="1862.92,-329.7 1861.67,-319.18 1856.08,-328.18 1862.92,-329.7"/>
<text text-anchor="start" x="1822.5" y="-340.8" font-family="arial" font-size="14.00" fill="#377eb8">c0 &lt; 5</text>
</g>
<!-- ID_88_ct0_st023W4&#45;&gt;ID_88_ct0_st0124 -->
<g id="edge42" class="edge">
<title>ID_88_ct0_st023W4&#45;&gt;ID_88_ct0_st0124</title>
<path fill="none" stroke="black" d="M1769.88,-309.05C1694.96,-325.01 1577.14,-350.12 1501.11,-366.32"/>
<polygon fill="black" stroke="black" points="1500.18,-362.94 1491.13,-368.44 1501.64,-369.78 1500.18,-362.94"/>
<text text-anchor="start" x="1622.5" y="-352.8" font-family="arial" font-size="14.00" fill="#377eb8">true</text>
</g>
<!-- ID_88_ct0_st023W4&#45;&gt;ID_88_ct0_st0123W4 -->
<g id="edge43" class="edge">
<title>ID_88_ct0_st023W4&#45;&gt;ID_88_ct0_st0123W4</title>
<path fill="none" stroke="black" d="M1913.31,-296.42C1932.29,-299.36 1952.18,-304.67 1969,-314 1999.56,-330.95 2024.75,-362.17 2040.99,-386.35"/>
<polygon fill="black" stroke="black" points="2038.18,-388.44 2046.57,-394.9 2044.04,-384.61 2038.18,-388.44"/>
<text text-anchor="start" x="1931" y="-317.8" font-family="arial" font-size="14.00" fill="#377eb8">c0 &lt; 5</text>
</g>
<!-- ID_88_ct0_st0124&#45;&gt;ID_88_ct0_st024 -->
<g id="edge35" class="edge">
<title>ID_88_ct0_st0124&#45;&gt;ID_88_ct0_st024</title>
<path fill="none" stroke="black" d="M1473.48,-356.85C1485.04,-350.62 1497.44,-344.01 1509,-338 1529.28,-327.46 1535.9,-327.55 1555,-315 1570.3,-304.95 1585.97,-292.32 1599.25,-280.81"/>
<polygon fill="black" stroke="black" points="1601.58,-283.43 1606.77,-274.19 1596.95,-278.17 1601.58,-283.43"/>
<text text-anchor="start" x="1520" y="-341.8" font-family="arial" font-size="14.00" fill="#377eb8">true</text>
</g>
<!-- ID_88_ct0_st0124&#45;&gt;ID_88_ct0_st023W4 -->
<g id="edge36" class="edge">
<title>ID_88_ct0_st0124&#45;&gt;ID_88_ct0_st023W4</title>
<path fill="none" stroke="black" d="M1491.14,-387.61C1558.32,-391.17 1666.18,-390.03 1752,-357 1770.86,-349.74 1789.44,-337.52 1804.66,-325.76"/>
<polygon fill="black" stroke="black" points="1807.12,-328.28 1812.76,-319.31 1802.76,-322.81 1807.12,-328.28"/>
<text text-anchor="start" x="1622.5" y="-406.8" font-family="arial" font-size="14.00" fill="#377eb8">true</text>
<text text-anchor="start" x="1615.5" y="-391.8" font-family="arial" font-size="14.00">c0 :=0</text>
</g>
<!-- ID_88_ct0_st0124&#45;&gt;ID_88_ct0_st0124 -->
<g id="edge37" class="edge">
<title>ID_88_ct0_st0124&#45;&gt;ID_88_ct0_st0124</title>
<path fill="none" stroke="black" d="M1408.94,-407.18C1408.16,-416.91 1414.02,-425 1426.5,-425 1434.3,-425 1439.51,-421.84 1442.14,-417.09"/>
<polygon fill="black" stroke="black" points="1445.59,-417.66 1444.06,-407.18 1438.72,-416.33 1445.59,-417.66"/>
<text text-anchor="start" x="1414.5" y="-428.8" font-family="arial" font-size="14.00" fill="#377eb8">true</text>
</g>
<!-- ID_88_ct0_st0124&#45;&gt;ID_88_ct0_st0123W4 -->
<g id="edge38" class="edge">
<title>ID_88_ct0_st0124&#45;&gt;ID_88_ct0_st0123W4</title>
<path fill="none" stroke="black" d="M1443.44,-407.1C1457.82,-427.21 1480.99,-453.99 1509,-466 1602.95,-506.29 1869.62,-489.94 1969,-466 1983.53,-462.5 1998.39,-456.37 2011.81,-449.71"/>
<polygon fill="black" stroke="black" points="2013.58,-452.74 2020.86,-445.04 2010.37,-446.52 2013.58,-452.74"/>
<text text-anchor="start" x="1721" y="-508.8" font-family="arial" font-size="14.00" fill="#377eb8">true</text>
<text text-anchor="start" x="1714" y="-493.8" font-family="arial" font-size="14.00">c0 :=0</text>
</g>
<!-- ID_88_ct0_st0123W4&#45;&gt;ID_88_ct0_st0234 -->
<g id="edge51" class="edge">
<title>ID_88_ct0_st0123W4&#45;&gt;ID_88_ct0_st0234</title>
<path fill="none" stroke="black" d="M2030.37,-445.27C2013.25,-458.25 1990.97,-473.34 1969,-483 1879.3,-522.44 1849.68,-514.16 1752,-522 1576.22,-536.1 1520.51,-526.29 1362,-449 1328.45,-432.64 1295.32,-406.17 1271.83,-385.16"/>
<polygon fill="black" stroke="black" points="1274.01,-382.41 1264.25,-378.27 1269.3,-387.59 1274.01,-382.41"/>
<text text-anchor="start" x="1611.5" y="-530.8" font-family="arial" font-size="14.00" fill="#377eb8">c0 &gt;= 5</text>
</g>
<!-- ID_88_ct0_st0123W4&#45;&gt;ID_88_ct0_st01234 -->
<g id="edge54" class="edge">
<title>ID_88_ct0_st0123W4&#45;&gt;ID_88_ct0_st01234</title>
<path fill="none" stroke="black" d="M2043.49,-445.19C2010.04,-490.03 1932.34,-579 1842.5,-579 1236.5,-579 1236.5,-579 1236.5,-579 1147.58,-579 1086.39,-474.23 1060.06,-418.28"/>
<polygon fill="black" stroke="black" points="1063.2,-416.72 1055.84,-409.09 1056.83,-419.64 1063.2,-416.72"/>
<text text-anchor="start" x="1509" y="-582.8" font-family="arial" font-size="14.00" fill="#377eb8">c0 &gt;= 5</text>
</g>
<!-- ID_88_ct0_st0123W4&#45;&gt;ID_88_ct0_st024 -->
<g id="edge49" class="edge">
<title>ID_88_ct0_st0123W4&#45;&gt;ID_88_ct0_st024</title>
<path fill="none" stroke="black" d="M1986.97,-415.07C1926.18,-408.7 1839.14,-394.16 1770,-361 1729.35,-341.51 1690.65,-306.99 1665.28,-281.41"/>
<polygon fill="black" stroke="black" points="1667.66,-278.84 1658.17,-274.12 1662.65,-283.73 1667.66,-278.84"/>
<text text-anchor="start" x="1829.5" y="-407.8" font-family="arial" font-size="14.00" fill="#377eb8">true</text>
</g>
<!-- ID_88_ct0_st0123W4&#45;&gt;ID_88_ct0_st023W4 -->
<g id="edge50" class="edge">
<title>ID_88_ct0_st0123W4&#45;&gt;ID_88_ct0_st023W4</title>
<path fill="none" stroke="black" d="M2024.88,-394.71C2008.15,-383.35 1987.85,-370.05 1969,-359 1948.12,-346.77 1924.69,-334.37 1903.72,-323.74"/>
<polygon fill="black" stroke="black" points="1905.1,-320.51 1894.59,-319.14 1901.95,-326.76 1905.1,-320.51"/>
<text text-anchor="start" x="1931" y="-362.8" font-family="arial" font-size="14.00" fill="#377eb8">c0 &lt; 5</text>
</g>
<!-- ID_88_ct0_st0123W4&#45;&gt;ID_88_ct0_st0124 -->
<g id="edge52" class="edge">
<title>ID_88_ct0_st0123W4&#45;&gt;ID_88_ct0_st0124</title>
<path fill="none" stroke="black" d="M1986.99,-426.74C1891.01,-434.01 1718.62,-442.07 1573,-422 1549.16,-418.71 1523.69,-412.64 1500.83,-406.19"/>
<polygon fill="black" stroke="black" points="1501.78,-402.82 1491.21,-403.41 1499.84,-409.55 1501.78,-402.82"/>
<text text-anchor="start" x="1721" y="-437.8" font-family="arial" font-size="14.00" fill="#377eb8">true</text>
</g>
<!-- ID_88_ct0_st0123W4&#45;&gt;ID_88_ct0_st0123W4 -->
<g id="edge53" class="edge">
<title>ID_88_ct0_st0123W4&#45;&gt;ID_88_ct0_st0123W4</title>
<path fill="none" stroke="black" d="M2041.46,-445.18C2040.54,-454.91 2047.39,-463 2062,-463 2071.13,-463 2077.23,-459.84 2080.3,-455.09"/>
<polygon fill="black" stroke="black" points="2083.75,-455.7 2082.54,-445.18 2076.92,-454.15 2083.75,-455.7"/>
<text text-anchor="start" x="2043" y="-466.8" font-family="arial" font-size="14.00" fill="#377eb8">c0 &lt; 5</text>
</g>
</g>
</svg>
