<?xml version="1.0" encoding="UTF-8" standalone="no"?>
<!DOCTYPE svg PUBLIC "-//W3C//DTD SVG 1.1//EN"
 "http://www.w3.org/Graphics/SVG/1.1/DTD/svg11.dtd">
<!-- Generated by graphviz version 2.43.0 (0)
 -->
<!-- Title: G Pages: 1 -->
<svg width="513pt" height="150pt"
 viewBox="0.00 0.00 513.00 150.00" xmlns="http://www.w3.org/2000/svg" xmlns:xlink="http://www.w3.org/1999/xlink">
<g id="graph0" class="graph" transform="scale(1 1) rotate(0) translate(4 146)">
<title>G</title>
<polygon fill="white" stroke="transparent" points="-4,4 -4,-146 509,-146 509,4 -4,4"/>
<!-- _ID_124_ct0_st0 -->
<!-- ID_124_ct0_st0 -->
<g id="node2" class="node">
<title>ID_124_ct0_st0</title>
<polygon fill="none" stroke="black" points="283,-109 169,-109 169,-59 283,-59 283,-109"/>
<text text-anchor="start" x="177" y="-94.8" font-family="arial" font-weight="bold" font-size="14.00">ID_124_ct0_st0</text>
<text text-anchor="start" x="221" y="-80.8" font-family="arial" font-size="14.00" fill="#984ea3">R</text>
<text text-anchor="start" x="214" y="-66.8" font-family="arial" font-size="14.00" fill="#ff7f00">true</text>
</g>
<!-- _ID_124_ct0_st0&#45;&gt;ID_124_ct0_st0 -->
<g id="edge1" class="edge">
<title>_ID_124_ct0_st0&#45;&gt;ID_124_ct0_st0</title>
<path fill="none" stroke="black" d="M119.42,-84C132.15,-84 145.7,-84 158.69,-84"/>
<polygon fill="black" stroke="black" points="158.96,-87.5 168.96,-84 158.96,-80.5 158.96,-87.5"/>
</g>
<!-- ID_124_ct0_st0&#45;&gt;ID_124_ct0_st0 -->
<g id="edge3" class="edge">
<title>ID_124_ct0_st0&#45;&gt;ID_124_ct0_st0</title>
<path fill="none" stroke="black" d="M209.56,-109.18C208.83,-118.91 214.31,-127 226,-127 233.3,-127 238.18,-123.84 240.64,-119.09"/>
<polygon fill="black" stroke="black" points="244.1,-119.64 242.44,-109.18 237.21,-118.39 244.1,-119.64"/>
<text text-anchor="start" x="214" y="-130.8" font-family="arial" font-size="14.00" fill="#377eb8">true</text>
</g>
<!-- ID_124_ct0_st01W -->
<g id="node4" class="node">
<title>ID_124_ct0_st01W</title>
<polygon fill="none" stroke="black" points="505,-76 370,-76 370,-26 505,-26 505,-76"/>
<text text-anchor="start" x="378" y="-61.8" font-family="arial" font-weight="bold" font-size="14.00">ID_124_ct0_st01W</text>
<text text-anchor="start" x="430.5" y="-47.8" font-family="arial" font-size="14.00" fill="#984ea3">!R</text>
<text text-anchor="start" x="414.5" y="-33.8" font-family="arial" font-size="14.00" fill="#ff7f00">c0 &lt;= 5</text>
</g>
<!-- ID_124_ct0_st0&#45;&gt;ID_124_ct0_st01W -->
<g id="edge4" class="edge">
<title>ID_124_ct0_st0&#45;&gt;ID_124_ct0_st01W</title>
<path fill="none" stroke="black" d="M283.09,-77C304.67,-74.15 329.52,-70.65 352,-67 354.51,-66.59 357.07,-66.17 359.65,-65.73"/>
<polygon fill="black" stroke="black" points="360.42,-69.15 369.68,-63.99 359.22,-62.25 360.42,-69.15"/>
<text text-anchor="start" x="321" y="-91.8" font-family="arial" font-size="14.00" fill="#377eb8">true</text>
<text text-anchor="start" x="314" y="-76.8" font-family="arial" font-size="14.00">c0 :=0</text>
</g>
<!-- _ID_124_ct0_st01W -->
<!-- _ID_124_ct0_st01W&#45;&gt;ID_124_ct0_st01W -->
<g id="edge2" class="edge">
<title>_ID_124_ct0_st01W&#45;&gt;ID_124_ct0_st01W</title>
<path fill="none" stroke="black" d="M296.29,-24.39C314.47,-26.44 334.02,-28.98 352,-32 354.53,-32.42 357.1,-32.88 359.69,-33.35"/>
<polygon fill="black" stroke="black" points="359.27,-36.84 369.75,-35.28 360.59,-29.96 359.27,-36.84"/>
</g>
<!-- ID_124_ct0_st01W&#45;&gt;ID_124_ct0_st0 -->
<g id="edge5" class="edge">
<title>ID_124_ct0_st01W&#45;&gt;ID_124_ct0_st0</title>
<path fill="none" stroke="black" d="M369.92,-44.07C351.66,-43.6 331.94,-44.43 314,-48 305.38,-49.71 296.54,-52.29 287.96,-55.3"/>
<polygon fill="black" stroke="black" points="286.56,-52.09 278.4,-58.86 289,-58.65 286.56,-52.09"/>
<text text-anchor="start" x="321" y="-51.8" font-family="arial" font-size="14.00" fill="#377eb8">true</text>
</g>
<!-- ID_124_ct0_st01W&#45;&gt;ID_124_ct0_st01W -->
<g id="edge6" class="edge">
<title>ID_124_ct0_st01W&#45;&gt;ID_124_ct0_st01W</title>
<path fill="none" stroke="black" d="M418.08,-76.18C417.21,-85.91 423.69,-94 437.5,-94 446.13,-94 451.9,-90.84 454.8,-86.09"/>
<polygon fill="black" stroke="black" points="458.25,-86.69 456.92,-76.18 451.41,-85.22 458.25,-86.69"/>
<text text-anchor="start" x="418.5" y="-97.8" font-family="arial" font-size="14.00" fill="#377eb8">c0 &lt; 5</text>
</g>
</g>
</svg>
