<?xml version="1.0" encoding="UTF-8" standalone="no"?>
<!DOCTYPE svg PUBLIC "-//W3C//DTD SVG 1.1//EN"
 "http://www.w3.org/Graphics/SVG/1.1/DTD/svg11.dtd">
<!-- Generated by graphviz version 2.43.0 (0)
 -->
<!-- Title: G Pages: 1 -->
<svg width="1885pt" height="653pt"
 viewBox="0.00 0.00 1885.00 653.28" xmlns="http://www.w3.org/2000/svg" xmlns:xlink="http://www.w3.org/1999/xlink">
<g id="graph0" class="graph" transform="scale(1 1) rotate(0) translate(4 649.28)">
<title>G</title>
<polygon fill="white" stroke="transparent" points="-4,4 -4,-649.28 1881,-649.28 1881,4 -4,4"/>
<!-- _ID_107_ct0_st -->
<!-- ID_107_ct0_st -->
<g id="node2" class="node">
<title>ID_107_ct0_st</title>
<polygon fill="none" stroke="black" points="1877,-451.28 1770,-451.28 1770,-401.28 1877,-401.28 1877,-451.28"/>
<text text-anchor="start" x="1778" y="-437.08" font-family="arial" font-weight="bold" font-size="14.00">ID_107_ct0_st</text>
<text text-anchor="start" x="1811.5" y="-423.08" font-family="arial" font-size="14.00" fill="#984ea3">true</text>
<text text-anchor="start" x="1811.5" y="-409.08" font-family="arial" font-size="14.00" fill="#ff7f00">true</text>
</g>
<!-- _ID_107_ct0_st&#45;&gt;ID_107_ct0_st -->
<g id="edge1" class="edge">
<title>_ID_107_ct0_st&#45;&gt;ID_107_ct0_st</title>
<path fill="none" stroke="black" d="M1715.66,-616.26C1728.78,-611.54 1741.89,-604.82 1752,-595.28 1790.13,-559.26 1808.4,-499.47 1816.56,-461.51"/>
<polygon fill="black" stroke="black" points="1820.05,-461.92 1818.61,-451.42 1813.19,-460.53 1820.05,-461.92"/>
</g>
<!-- ID_107_ct0_st&#45;&gt;ID_107_ct0_st -->
<g id="edge4" class="edge">
<title>ID_107_ct0_st&#45;&gt;ID_107_ct0_st</title>
<path fill="none" stroke="black" d="M1808.93,-451.45C1808.28,-461.19 1813.14,-469.28 1823.5,-469.28 1829.97,-469.28 1834.3,-466.12 1836.47,-461.37"/>
<polygon fill="black" stroke="black" points="1839.94,-461.88 1838.07,-451.45 1833.03,-460.77 1839.94,-461.88"/>
<text text-anchor="start" x="1811.5" y="-473.08" font-family="arial" font-size="14.00" fill="#377eb8">true</text>
</g>
<!-- _ID_107_ct0_st0 -->
<!-- ID_107_ct0_st0 -->
<g id="node4" class="node">
<title>ID_107_ct0_st0</title>
<polygon fill="none" stroke="black" points="486,-361.28 372,-361.28 372,-311.28 486,-311.28 486,-361.28"/>
<text text-anchor="start" x="380" y="-347.08" font-family="arial" font-weight="bold" font-size="14.00">ID_107_ct0_st0</text>
<text text-anchor="start" x="398.5" y="-333.08" font-family="arial" font-size="14.00" fill="#984ea3">(!P &amp;&amp; !R)</text>
<text text-anchor="start" x="417" y="-319.08" font-family="arial" font-size="14.00" fill="#ff7f00">true</text>
</g>
<!-- _ID_107_ct0_st0&#45;&gt;ID_107_ct0_st0 -->
<g id="edge2" class="edge">
<title>_ID_107_ct0_st0&#45;&gt;ID_107_ct0_st0</title>
<path fill="none" stroke="black" d="M304.25,-336.28C322.54,-336.28 342.83,-336.28 361.6,-336.28"/>
<polygon fill="black" stroke="black" points="361.85,-339.78 371.85,-336.28 361.85,-332.78 361.85,-339.78"/>
</g>
<!-- ID_107_ct0_st0&#45;&gt;ID_107_ct0_st -->
<g id="edge5" class="edge">
<title>ID_107_ct0_st0&#45;&gt;ID_107_ct0_st</title>
<path fill="none" stroke="black" d="M453.01,-361.34C496.15,-405.44 594.1,-492.28 696.5,-492.28 696.5,-492.28 696.5,-492.28 1661,-492.28 1701.94,-492.28 1744.67,-473.88 1775.88,-456.51"/>
<polygon fill="black" stroke="black" points="1777.84,-459.42 1784.78,-451.42 1774.36,-453.35 1777.84,-459.42"/>
<text text-anchor="start" x="1137.5" y="-496.08" font-family="arial" font-size="14.00" fill="#377eb8">P&#39;</text>
</g>
<!-- ID_107_ct0_st0&#45;&gt;ID_107_ct0_st0 -->
<g id="edge6" class="edge">
<title>ID_107_ct0_st0&#45;&gt;ID_107_ct0_st0</title>
<path fill="none" stroke="black" d="M412.94,-361.45C412.22,-371.19 417.58,-379.28 429,-379.28 436.14,-379.28 440.91,-376.12 443.31,-371.37"/>
<polygon fill="black" stroke="black" points="446.76,-371.91 445.06,-361.45 439.87,-370.69 446.76,-371.91"/>
<text text-anchor="start" x="417" y="-383.08" font-family="arial" font-size="14.00" fill="#377eb8">true</text>
</g>
<!-- ID_107_ct0_st01X -->
<g id="node7" class="node">
<title>ID_107_ct0_st01X</title>
<polygon fill="none" stroke="black" points="763,-277.28 632,-277.28 632,-227.28 763,-227.28 763,-277.28"/>
<text text-anchor="start" x="640" y="-263.08" font-family="arial" font-weight="bold" font-size="14.00">ID_107_ct0_st01X</text>
<text text-anchor="start" x="668.5" y="-249.08" font-family="arial" font-size="14.00" fill="#984ea3">(!P &amp;&amp; R)</text>
<text text-anchor="start" x="674.5" y="-235.08" font-family="arial" font-size="14.00" fill="#ff7f00">c0 &lt;= 5</text>
</g>
<!-- ID_107_ct0_st0&#45;&gt;ID_107_ct0_st01X -->
<g id="edge7" class="edge">
<title>ID_107_ct0_st0&#45;&gt;ID_107_ct0_st01X</title>
<path fill="none" stroke="black" d="M486.19,-318.57C525.8,-306.08 579.26,-289.23 622.36,-275.65"/>
<polygon fill="black" stroke="black" points="623.46,-278.97 631.95,-272.62 621.36,-272.29 623.46,-278.97"/>
<text text-anchor="start" x="547" y="-331.08" font-family="arial" font-size="14.00" fill="#377eb8">true</text>
<text text-anchor="start" x="540" y="-316.08" font-family="arial" font-size="14.00">c0 :=0</text>
</g>
<!-- _ID_107_ct0_st01W -->
<!-- ID_107_ct0_st01W -->
<g id="node6" class="node">
<title>ID_107_ct0_st01W</title>
<polygon fill="none" stroke="black" points="312,-517.28 177,-517.28 177,-467.28 312,-467.28 312,-517.28"/>
<text text-anchor="start" x="185" y="-503.08" font-family="arial" font-weight="bold" font-size="14.00">ID_107_ct0_st01W</text>
<text text-anchor="start" x="215.5" y="-489.08" font-family="arial" font-size="14.00" fill="#984ea3">(!P &amp;&amp; R)</text>
<text text-anchor="start" x="221.5" y="-475.08" font-family="arial" font-size="14.00" fill="#ff7f00">c0 &lt;= 5</text>
</g>
<!-- _ID_107_ct0_st01W&#45;&gt;ID_107_ct0_st01W -->
<g id="edge3" class="edge">
<title>_ID_107_ct0_st01W&#45;&gt;ID_107_ct0_st01W</title>
<path fill="none" stroke="black" d="M140.17,-492.28C148.86,-492.28 157.79,-492.28 166.59,-492.28"/>
<polygon fill="black" stroke="black" points="166.84,-495.78 176.84,-492.28 166.84,-488.78 166.84,-495.78"/>
</g>
<!-- ID_107_ct0_st01W&#45;&gt;ID_107_ct0_st -->
<g id="edge8" class="edge">
<title>ID_107_ct0_st01W&#45;&gt;ID_107_ct0_st</title>
<path fill="none" stroke="black" d="M275.3,-517.31C309.76,-543.63 369.31,-581.28 428,-581.28 428,-581.28 428,-581.28 1661,-581.28 1730.26,-581.28 1781.36,-506.15 1806.02,-460.51"/>
<polygon fill="black" stroke="black" points="1809.18,-462.01 1810.73,-451.53 1802.98,-458.75 1809.18,-462.01"/>
<text text-anchor="start" x="1019" y="-585.08" font-family="arial" font-size="14.00" fill="#377eb8">P&#39;</text>
</g>
<!-- ID_107_ct0_st01W&#45;&gt;ID_107_ct0_st0 -->
<g id="edge9" class="edge">
<title>ID_107_ct0_st01W&#45;&gt;ID_107_ct0_st0</title>
<path fill="none" stroke="black" d="M273.91,-467.11C290.24,-452.72 311.19,-434.38 330,-418.28 349.44,-401.64 371.25,-383.35 389.36,-368.27"/>
<polygon fill="black" stroke="black" points="391.94,-370.67 397.39,-361.59 387.47,-365.29 391.94,-370.67"/>
<text text-anchor="start" x="330" y="-422.08" font-family="arial" font-size="14.00" fill="#377eb8">true</text>
</g>
<!-- ID_107_ct0_st01W&#45;&gt;ID_107_ct0_st01W -->
<g id="edge10" class="edge">
<title>ID_107_ct0_st01W&#45;&gt;ID_107_ct0_st01W</title>
<path fill="none" stroke="black" d="M228.44,-517.45C227.72,-527.19 233.08,-535.28 244.5,-535.28 251.64,-535.28 256.41,-532.12 258.81,-527.37"/>
<polygon fill="black" stroke="black" points="262.26,-527.91 260.56,-517.45 255.37,-526.69 262.26,-527.91"/>
<text text-anchor="start" x="225.5" y="-539.08" font-family="arial" font-size="14.00" fill="#377eb8">c0 &lt; 5</text>
</g>
<!-- ID_107_ct0_st01 -->
<g id="node8" class="node">
<title>ID_107_ct0_st01</title>
<polygon fill="none" stroke="black" points="1721,-317.28 1599,-317.28 1599,-267.28 1721,-267.28 1721,-317.28"/>
<text text-anchor="start" x="1607" y="-303.08" font-family="arial" font-weight="bold" font-size="14.00">ID_107_ct0_st01</text>
<text text-anchor="start" x="1609.5" y="-289.08" font-family="arial" font-size="14.00" fill="#984ea3">(!P &amp;&amp; (R &amp;&amp; S))</text>
<text text-anchor="start" x="1648" y="-275.08" font-family="arial" font-size="14.00" fill="#ff7f00">true</text>
</g>
<!-- ID_107_ct0_st01W&#45;&gt;ID_107_ct0_st01 -->
<g id="edge11" class="edge">
<title>ID_107_ct0_st01W&#45;&gt;ID_107_ct0_st01</title>
<path fill="none" stroke="black" d="M311.67,-517.3C345.88,-528.09 388.63,-538.28 428,-538.28 428,-538.28 428,-538.28 1454.5,-538.28 1562.79,-538.28 1624.76,-395.56 1648.14,-327.53"/>
<polygon fill="black" stroke="black" points="1651.59,-328.27 1651.44,-317.68 1644.95,-326.05 1651.59,-328.27"/>
<text text-anchor="start" x="892.5" y="-542.08" font-family="arial" font-size="14.00" fill="#377eb8">c0 &gt;= 5</text>
</g>
<!-- ID_107_ct0_st012W -->
<g id="node9" class="node">
<title>ID_107_ct0_st012W</title>
<polygon fill="none" stroke="black" points="1525,-380.28 1382,-380.28 1382,-330.28 1525,-330.28 1525,-380.28"/>
<text text-anchor="start" x="1390" y="-366.08" font-family="arial" font-weight="bold" font-size="14.00">ID_107_ct0_st012W</text>
<text text-anchor="start" x="1401" y="-352.08" font-family="arial" font-size="14.00" fill="#984ea3">(!P &amp;&amp; (R &amp;&amp; !S))</text>
<text text-anchor="start" x="1426.5" y="-338.08" font-family="arial" font-size="14.00" fill="#ff7f00">c1 &lt;= 10</text>
</g>
<!-- ID_107_ct0_st01W&#45;&gt;ID_107_ct0_st012W -->
<g id="edge12" class="edge">
<title>ID_107_ct0_st01W&#45;&gt;ID_107_ct0_st012W</title>
<path fill="none" stroke="black" d="M312.14,-467.67C346.29,-457.17 388.84,-447.28 428,-447.28 428,-447.28 428,-447.28 806.5,-447.28 1055.12,-447.28 1126.37,-474.38 1364,-401.28 1376.93,-397.3 1390.2,-391.47 1402.41,-385.29"/>
<polygon fill="black" stroke="black" points="1404.28,-388.26 1411.51,-380.51 1401.03,-382.06 1404.28,-388.26"/>
<text text-anchor="start" x="782.5" y="-466.08" font-family="arial" font-size="14.00" fill="#377eb8">c0 &gt;= 5</text>
<text text-anchor="start" x="786.5" y="-451.08" font-family="arial" font-size="14.00">c1 :=0</text>
</g>
<!-- ID_107_ct0_st01X&#45;&gt;ID_107_ct0_st -->
<g id="edge13" class="edge">
<title>ID_107_ct0_st01X&#45;&gt;ID_107_ct0_st</title>
<path fill="none" stroke="black" d="M758.45,-227.17C760.07,-225.63 761.6,-224 763,-222.28 784.93,-195.37 760.13,-174.02 781,-146.28 848.48,-56.59 893.24,-53.66 1001,-22.28 1128.77,14.93 1166.92,-6.28 1300,-6.28 1300,-6.28 1300,-6.28 1661,-6.28 1743.24,-6.28 1799.45,-290.38 1816.81,-391.26"/>
<polygon fill="black" stroke="black" points="1813.39,-391.99 1818.51,-401.26 1820.29,-390.82 1813.39,-391.99"/>
<text text-anchor="start" x="1294.5" y="-10.08" font-family="arial" font-size="14.00" fill="#377eb8">P&#39;</text>
</g>
<!-- ID_107_ct0_st01X&#45;&gt;ID_107_ct0_st0 -->
<g id="edge14" class="edge">
<title>ID_107_ct0_st01X&#45;&gt;ID_107_ct0_st0</title>
<path fill="none" stroke="black" d="M631.82,-243.83C593.12,-241.51 543.88,-243.5 504,-261.28 483.8,-270.29 466.17,-287.52 453.19,-303.19"/>
<polygon fill="black" stroke="black" points="450.32,-301.19 446.84,-311.2 455.8,-305.54 450.32,-301.19"/>
<text text-anchor="start" x="504" y="-265.08" font-family="arial" font-size="14.00" fill="#377eb8">(P&#39; || (S&#39; || c0 &lt; 5))</text>
</g>
<!-- ID_107_ct0_st01X&#45;&gt;ID_107_ct0_st01X -->
<g id="edge16" class="edge">
<title>ID_107_ct0_st01X&#45;&gt;ID_107_ct0_st01X</title>
<path fill="none" stroke="black" d="M677.33,-277.45C676.43,-287.19 683.16,-295.28 697.5,-295.28 706.46,-295.28 712.45,-292.12 715.46,-287.37"/>
<polygon fill="black" stroke="black" points="718.92,-287.97 717.67,-277.45 712.08,-286.45 718.92,-287.97"/>
<text text-anchor="start" x="678.5" y="-299.08" font-family="arial" font-size="14.00" fill="#377eb8">c0 &lt; 5</text>
</g>
<!-- ID_107_ct0_st01X&#45;&gt;ID_107_ct0_st01 -->
<g id="edge17" class="edge">
<title>ID_107_ct0_st01X&#45;&gt;ID_107_ct0_st01</title>
<path fill="none" stroke="black" d="M758.3,-227.04C759.96,-225.54 761.54,-223.95 763,-222.28 780.76,-201.95 761.42,-182.86 781,-164.28 803.29,-143.13 818.02,-154 848,-147.28 945.21,-125.46 968.84,-113.88 1068,-104.28 1162.76,-95.1 1510.47,-103.75 1525,-111.28 1585.35,-142.56 1625.53,-214.83 1645.1,-257.99"/>
<polygon fill="black" stroke="black" points="1641.95,-259.52 1649.19,-267.25 1648.36,-256.69 1641.95,-259.52"/>
<text text-anchor="start" x="1121" y="-108.08" font-family="arial" font-size="14.00" fill="#377eb8">c0 &gt;= 5</text>
</g>
<!-- ID_107_ct0_st01X&#45;&gt;ID_107_ct0_st012W -->
<g id="edge18" class="edge">
<title>ID_107_ct0_st01X&#45;&gt;ID_107_ct0_st012W</title>
<path fill="none" stroke="black" d="M763.2,-277.38C789.22,-286.68 819.71,-296.57 848,-303.28 944.62,-326.18 969.24,-331.91 1068,-342.28 1172.42,-353.24 1293.57,-355.64 1371.54,-355.86"/>
<polygon fill="black" stroke="black" points="1371.77,-359.36 1381.78,-355.88 1371.78,-352.36 1371.77,-359.36"/>
<text text-anchor="start" x="1002.5" y="-358.08" font-family="arial" font-size="14.00" fill="#377eb8">c0 &gt;= 5</text>
<text text-anchor="start" x="1006.5" y="-343.08" font-family="arial" font-size="14.00">c1 :=0</text>
</g>
<!-- ID_107_ct0_st02W -->
<g id="node10" class="node">
<title>ID_107_ct0_st02W</title>
<polygon fill="none" stroke="black" points="983,-206.28 848,-206.28 848,-156.28 983,-156.28 983,-206.28"/>
<text text-anchor="start" x="856" y="-192.08" font-family="arial" font-weight="bold" font-size="14.00">ID_107_ct0_st02W</text>
<text text-anchor="start" x="861" y="-178.08" font-family="arial" font-size="14.00" fill="#984ea3">(!P &amp;&amp; (!R &amp;&amp; !S))</text>
<text text-anchor="start" x="888.5" y="-164.08" font-family="arial" font-size="14.00" fill="#ff7f00">c1 &lt;= 10</text>
</g>
<!-- ID_107_ct0_st01X&#45;&gt;ID_107_ct0_st02W -->
<g id="edge15" class="edge">
<title>ID_107_ct0_st01X&#45;&gt;ID_107_ct0_st02W</title>
<path fill="none" stroke="black" d="M763.13,-231.94C784.46,-225.15 808.27,-217.47 830,-210.28 832.6,-209.42 835.25,-208.53 837.92,-207.64"/>
<polygon fill="black" stroke="black" points="839.3,-210.87 847.66,-204.36 837.07,-204.23 839.3,-210.87"/>
<text text-anchor="start" x="782.5" y="-245.08" font-family="arial" font-size="14.00" fill="#377eb8">c0 &gt;= 5</text>
<text text-anchor="start" x="786.5" y="-230.08" font-family="arial" font-size="14.00">c1 :=0</text>
</g>
<!-- ID_107_ct0_st01&#45;&gt;ID_107_ct0_st -->
<g id="edge19" class="edge">
<title>ID_107_ct0_st01&#45;&gt;ID_107_ct0_st</title>
<path fill="none" stroke="black" d="M1691.38,-317.48C1717.77,-339.38 1756.11,-371.2 1784.53,-394.77"/>
<polygon fill="black" stroke="black" points="1782.33,-397.49 1792.26,-401.19 1786.8,-392.11 1782.33,-397.49"/>
<text text-anchor="start" x="1739" y="-371.08" font-family="arial" font-size="14.00" fill="#377eb8">P&#39;</text>
</g>
<!-- ID_107_ct0_st01&#45;&gt;ID_107_ct0_st0 -->
<g id="edge20" class="edge">
<title>ID_107_ct0_st01&#45;&gt;ID_107_ct0_st0</title>
<path fill="none" stroke="black" d="M1652.91,-267.28C1643.03,-231.05 1620.53,-163.48 1581,-119.28 1537.43,-70.55 1519.86,-44.28 1454.5,-44.28 696.5,-44.28 696.5,-44.28 696.5,-44.28 558.73,-44.28 473.16,-223.82 442.63,-301.33"/>
<polygon fill="black" stroke="black" points="439.19,-300.54 438.86,-311.13 445.72,-303.06 439.19,-300.54"/>
<text text-anchor="start" x="1001" y="-48.08" font-family="arial" font-size="14.00" fill="#377eb8">(P&#39; || S&#39;)</text>
</g>
<!-- ID_107_ct0_st01&#45;&gt;ID_107_ct0_st01 -->
<g id="edge22" class="edge">
<title>ID_107_ct0_st01&#45;&gt;ID_107_ct0_st01</title>
<path fill="none" stroke="black" d="M1644.31,-317.45C1643.61,-327.19 1648.84,-335.28 1660,-335.28 1666.97,-335.28 1671.63,-332.12 1673.97,-327.37"/>
<polygon fill="black" stroke="black" points="1677.43,-327.9 1675.69,-317.45 1670.53,-326.71 1677.43,-327.9"/>
<text text-anchor="start" x="1648" y="-339.08" font-family="arial" font-size="14.00" fill="#377eb8">true</text>
</g>
<!-- ID_107_ct0_st01&#45;&gt;ID_107_ct0_st012W -->
<g id="edge23" class="edge">
<title>ID_107_ct0_st01&#45;&gt;ID_107_ct0_st012W</title>
<path fill="none" stroke="black" d="M1614.13,-317.35C1603.5,-322.53 1592.05,-327.55 1581,-331.28 1566.49,-336.18 1550.69,-340.17 1535.33,-343.39"/>
<polygon fill="black" stroke="black" points="1534.43,-340 1525.32,-345.4 1535.81,-346.87 1534.43,-340"/>
<text text-anchor="start" x="1550" y="-360.08" font-family="arial" font-size="14.00" fill="#377eb8">true</text>
<text text-anchor="start" x="1543" y="-345.08" font-family="arial" font-size="14.00">c1 :=0</text>
</g>
<!-- ID_107_ct0_st01&#45;&gt;ID_107_ct0_st02W -->
<g id="edge21" class="edge">
<title>ID_107_ct0_st01&#45;&gt;ID_107_ct0_st02W</title>
<path fill="none" stroke="black" d="M1598.87,-268.13C1540.07,-245.77 1447.45,-213.84 1364,-199.28 1235.3,-176.81 1082.77,-176.08 993.13,-178.24"/>
<polygon fill="black" stroke="black" points="992.95,-174.74 983.05,-178.5 993.13,-181.74 992.95,-174.74"/>
<text text-anchor="start" x="1289" y="-218.08" font-family="arial" font-size="14.00" fill="#377eb8">true</text>
<text text-anchor="start" x="1282" y="-203.08" font-family="arial" font-size="14.00">c1 :=0</text>
</g>
<!-- ID_107_ct0_st012W&#45;&gt;ID_107_ct0_st -->
<g id="edge36" class="edge">
<title>ID_107_ct0_st012W&#45;&gt;ID_107_ct0_st</title>
<path fill="none" stroke="black" d="M1475.2,-380.42C1491.52,-398.12 1515.96,-420.36 1543,-430.28 1613.81,-456.25 1701.66,-449.21 1759.76,-439.67"/>
<polygon fill="black" stroke="black" points="1760.63,-443.07 1769.89,-437.93 1759.44,-436.17 1760.63,-443.07"/>
<text text-anchor="start" x="1653.5" y="-452.08" font-family="arial" font-size="14.00" fill="#377eb8">P&#39;</text>
</g>
<!-- ID_107_ct0_st012W&#45;&gt;ID_107_ct0_st0 -->
<g id="edge37" class="edge">
<title>ID_107_ct0_st012W&#45;&gt;ID_107_ct0_st0</title>
<path fill="none" stroke="black" d="M1381.86,-373.04C1319.86,-387.06 1227.03,-404.28 1145,-404.28 696.5,-404.28 696.5,-404.28 696.5,-404.28 626.37,-404.28 549,-381.9 495.78,-362.82"/>
<polygon fill="black" stroke="black" points="496.72,-359.44 486.13,-359.3 494.32,-366.01 496.72,-359.44"/>
<text text-anchor="start" x="891" y="-408.08" font-family="arial" font-size="14.00" fill="#377eb8">(P&#39; || S&#39;)</text>
</g>
<!-- ID_107_ct0_st012W&#45;&gt;ID_107_ct0_st01 -->
<g id="edge39" class="edge">
<title>ID_107_ct0_st012W&#45;&gt;ID_107_ct0_st01</title>
<path fill="none" stroke="black" d="M1499.87,-330.2C1513.42,-323.55 1528.53,-316.94 1543,-312.28 1557.6,-307.58 1573.61,-303.91 1588.95,-301.08"/>
<polygon fill="black" stroke="black" points="1589.66,-304.51 1598.91,-299.34 1588.46,-297.62 1589.66,-304.51"/>
<text text-anchor="start" x="1550" y="-316.08" font-family="arial" font-size="14.00" fill="#377eb8">true</text>
</g>
<!-- ID_107_ct0_st012W&#45;&gt;ID_107_ct0_st012W -->
<g id="edge40" class="edge">
<title>ID_107_ct0_st012W&#45;&gt;ID_107_ct0_st012W</title>
<path fill="none" stroke="black" d="M1433.33,-380.45C1432.43,-390.19 1439.16,-398.28 1453.5,-398.28 1462.46,-398.28 1468.45,-395.12 1471.46,-390.37"/>
<polygon fill="black" stroke="black" points="1474.92,-390.97 1473.67,-380.45 1468.08,-389.45 1474.92,-390.97"/>
<text text-anchor="start" x="1430.5" y="-402.08" font-family="arial" font-size="14.00" fill="#377eb8">c1 &lt; 10</text>
</g>
<!-- ID_107_ct0_st012W&#45;&gt;ID_107_ct0_st02W -->
<g id="edge38" class="edge">
<title>ID_107_ct0_st012W&#45;&gt;ID_107_ct0_st02W</title>
<path fill="none" stroke="black" d="M1416.53,-330.27C1400.69,-319.64 1381.7,-307.39 1364,-297.28 1302.04,-261.88 1287.88,-248.28 1220,-226.28 1147.09,-202.64 1125.85,-208.29 1050,-197.28 1031.68,-194.62 1011.89,-192.07 993.31,-189.82"/>
<polygon fill="black" stroke="black" points="993.48,-186.32 983.13,-188.6 992.65,-193.27 993.48,-186.32"/>
<text text-anchor="start" x="1121" y="-230.08" font-family="arial" font-size="14.00" fill="#377eb8">c1 &lt; 10</text>
</g>
<!-- ID_107_ct0_st02W&#45;&gt;ID_107_ct0_st -->
<g id="edge24" class="edge">
<title>ID_107_ct0_st02W&#45;&gt;ID_107_ct0_st</title>
<path fill="none" stroke="black" d="M983.11,-159.52C1027.83,-146.82 1088.33,-133.28 1143,-133.28 1143,-133.28 1143,-133.28 1661,-133.28 1777.36,-133.28 1810.5,-312.7 1819.42,-390.73"/>
<polygon fill="black" stroke="black" points="1815.98,-391.47 1820.52,-401.04 1822.94,-390.73 1815.98,-391.47"/>
<text text-anchor="start" x="1447" y="-137.08" font-family="arial" font-size="14.00" fill="#377eb8">P&#39;</text>
</g>
<!-- ID_107_ct0_st02W&#45;&gt;ID_107_ct0_st0 -->
<g id="edge25" class="edge">
<title>ID_107_ct0_st02W&#45;&gt;ID_107_ct0_st0</title>
<path fill="none" stroke="black" d="M847.95,-166.1C826.57,-163.02 802.78,-161.47 781,-164.28 776.92,-164.8 516.18,-231.01 504,-239.28 480.39,-255.31 461.13,-281.34 448.19,-302.4"/>
<polygon fill="black" stroke="black" points="445.13,-300.7 443.03,-311.08 451.15,-304.27 445.13,-300.7"/>
<text text-anchor="start" x="673" y="-207.08" font-family="arial" font-size="14.00" fill="#377eb8">(P&#39; || S&#39;)</text>
</g>
<!-- ID_107_ct0_st02W&#45;&gt;ID_107_ct0_st01X -->
<g id="edge27" class="edge">
<title>ID_107_ct0_st02W&#45;&gt;ID_107_ct0_st01X</title>
<path fill="none" stroke="black" d="M847.89,-168.39C825.95,-166.85 801.85,-168.14 781,-176.28 758.55,-185.04 738.53,-203.09 723.83,-219.4"/>
<polygon fill="black" stroke="black" points="720.96,-217.37 717.06,-227.22 726.25,-221.96 720.96,-217.37"/>
<text text-anchor="start" x="781" y="-195.08" font-family="arial" font-size="14.00" fill="#377eb8">(P&#39; || S&#39;)</text>
<text text-anchor="start" x="786.5" y="-180.08" font-family="arial" font-size="14.00">c0 :=0</text>
</g>
<!-- ID_107_ct0_st02W&#45;&gt;ID_107_ct0_st02W -->
<g id="edge26" class="edge">
<title>ID_107_ct0_st02W&#45;&gt;ID_107_ct0_st02W</title>
<path fill="none" stroke="black" d="M894.96,-206.45C894.04,-216.19 900.89,-224.28 915.5,-224.28 924.63,-224.28 930.73,-221.12 933.8,-216.37"/>
<polygon fill="black" stroke="black" points="937.25,-216.98 936.04,-206.45 930.42,-215.43 937.25,-216.98"/>
<text text-anchor="start" x="892.5" y="-228.08" font-family="arial" font-size="14.00" fill="#377eb8">c1 &lt; 10</text>
</g>
<!-- ID_107_ct0_st01X2W -->
<g id="node11" class="node">
<title>ID_107_ct0_st01X2W</title>
<polygon fill="none" stroke="black" points="1220,-300.28 1068,-300.28 1068,-250.28 1220,-250.28 1220,-300.28"/>
<text text-anchor="start" x="1076" y="-286.08" font-family="arial" font-weight="bold" font-size="14.00">ID_107_ct0_st01X2W</text>
<text text-anchor="start" x="1091.5" y="-272.08" font-family="arial" font-size="14.00" fill="#984ea3">(!P &amp;&amp; (R &amp;&amp; !S))</text>
<text text-anchor="start" x="1077" y="-258.08" font-family="arial" font-size="14.00" fill="#ff7f00">(c0 &lt;= 5 &amp;&amp; c1 &lt;= 10)</text>
</g>
<!-- ID_107_ct0_st02W&#45;&gt;ID_107_ct0_st01X2W -->
<g id="edge28" class="edge">
<title>ID_107_ct0_st02W&#45;&gt;ID_107_ct0_st01X2W</title>
<path fill="none" stroke="black" d="M983.2,-191.72C1005.5,-197.12 1029.8,-205.22 1050,-217.28 1059.99,-223.24 1058.71,-229.28 1068,-236.28 1071.9,-239.22 1076.05,-242.05 1080.32,-244.75"/>
<polygon fill="black" stroke="black" points="1078.84,-247.95 1089.21,-250.12 1082.46,-241.96 1078.84,-247.95"/>
<text text-anchor="start" x="1002.5" y="-236.08" font-family="arial" font-size="14.00" fill="#377eb8">c1 &lt; 10</text>
<text text-anchor="start" x="1006.5" y="-221.08" font-family="arial" font-size="14.00">c0 :=0</text>
</g>
<!-- ID_107_ct0_st01X2W&#45;&gt;ID_107_ct0_st -->
<g id="edge29" class="edge">
<title>ID_107_ct0_st01X2W&#45;&gt;ID_107_ct0_st</title>
<path fill="none" stroke="black" d="M1172.17,-300.45C1213.6,-336.77 1296.8,-401.76 1382,-422.28 1451.71,-439.07 1655.62,-433.41 1759.74,-429.18"/>
<polygon fill="black" stroke="black" points="1759.96,-432.67 1769.81,-428.76 1759.67,-425.68 1759.96,-432.67"/>
<text text-anchor="start" x="1555.5" y="-437.08" font-family="arial" font-size="14.00" fill="#377eb8">P&#39;</text>
</g>
<!-- ID_107_ct0_st01X2W&#45;&gt;ID_107_ct0_st0 -->
<g id="edge30" class="edge">
<title>ID_107_ct0_st01X2W&#45;&gt;ID_107_ct0_st0</title>
<path fill="none" stroke="black" d="M1125.29,-300.44C1108.64,-321.72 1081.6,-350.7 1050,-363.28 993.6,-385.73 564.54,-348.7 504,-344.28 501.46,-344.09 498.88,-343.89 496.27,-343.67"/>
<polygon fill="black" stroke="black" points="496.4,-340.17 486.12,-342.76 495.77,-347.14 496.4,-340.17"/>
<text text-anchor="start" x="781" y="-370.08" font-family="arial" font-size="14.00" fill="#377eb8">(P&#39; || S&#39;)</text>
</g>
<!-- ID_107_ct0_st01X2W&#45;&gt;ID_107_ct0_st01X -->
<g id="edge32" class="edge">
<title>ID_107_ct0_st01X2W&#45;&gt;ID_107_ct0_st01X</title>
<path fill="none" stroke="black" d="M1067.91,-282.29C1061.86,-282.69 1055.83,-283.03 1050,-283.28 954.33,-287.39 844.44,-274.92 773.37,-264.59"/>
<polygon fill="black" stroke="black" points="773.57,-261.08 763.17,-263.08 772.55,-268 773.57,-261.08"/>
<text text-anchor="start" x="855" y="-288.08" font-family="arial" font-size="14.00" fill="#377eb8">(P&#39; || (S&#39; &amp;&amp; c0 &lt; 5))</text>
</g>
<!-- ID_107_ct0_st01X2W&#45;&gt;ID_107_ct0_st01 -->
<g id="edge34" class="edge">
<title>ID_107_ct0_st01X2W&#45;&gt;ID_107_ct0_st01</title>
<path fill="none" stroke="black" d="M1220.02,-277.76C1318.95,-281.03 1491.78,-286.75 1588.44,-289.94"/>
<polygon fill="black" stroke="black" points="1588.58,-293.45 1598.69,-290.28 1588.81,-286.45 1588.58,-293.45"/>
<text text-anchor="start" x="1430.5" y="-292.08" font-family="arial" font-size="14.00" fill="#377eb8">c0 &gt;= 5</text>
</g>
<!-- ID_107_ct0_st01X2W&#45;&gt;ID_107_ct0_st012W -->
<g id="edge35" class="edge">
<title>ID_107_ct0_st01X2W&#45;&gt;ID_107_ct0_st012W</title>
<path fill="none" stroke="black" d="M1220.22,-294.85C1266.2,-306.81 1324.99,-322.11 1371.92,-334.31"/>
<polygon fill="black" stroke="black" points="1371.19,-337.74 1381.75,-336.87 1372.95,-330.97 1371.19,-337.74"/>
<text text-anchor="start" x="1238" y="-335.08" font-family="arial" font-size="14.00" fill="#377eb8">(c0 &gt;= 5 &amp;&amp; c1 &lt; 10)</text>
</g>
<!-- ID_107_ct0_st01X2W&#45;&gt;ID_107_ct0_st02W -->
<g id="edge31" class="edge">
<title>ID_107_ct0_st01X2W&#45;&gt;ID_107_ct0_st02W</title>
<path fill="none" stroke="black" d="M1067.99,-267.23C1045.75,-263.07 1021.8,-256.79 1001,-247.28 982.57,-238.85 964.54,-225.66 949.9,-213.28"/>
<polygon fill="black" stroke="black" points="951.97,-210.44 942.13,-206.52 947.38,-215.72 951.97,-210.44"/>
<text text-anchor="start" x="1002.5" y="-268.08" font-family="arial" font-size="14.00" fill="#377eb8">c1 &lt; 10</text>
</g>
<!-- ID_107_ct0_st01X2W&#45;&gt;ID_107_ct0_st01X2W -->
<g id="edge33" class="edge">
<title>ID_107_ct0_st01X2W&#45;&gt;ID_107_ct0_st01X2W</title>
<path fill="none" stroke="black" d="M1121.96,-300.45C1120.98,-310.19 1128.33,-318.28 1144,-318.28 1153.79,-318.28 1160.34,-315.12 1163.63,-310.37"/>
<polygon fill="black" stroke="black" points="1167.08,-311 1166.04,-300.45 1160.28,-309.34 1167.08,-311"/>
<text text-anchor="start" x="1085" y="-322.08" font-family="arial" font-size="14.00" fill="#377eb8">(c0 &lt; 5 &amp;&amp; c1 &lt; 10)</text>
</g>
</g>
</svg>
