<?xml version="1.0" encoding="UTF-8" standalone="no"?>
<!DOCTYPE svg PUBLIC "-//W3C//DTD SVG 1.1//EN"
 "http://www.w3.org/Graphics/SVG/1.1/DTD/svg11.dtd">
<!-- Generated by graphviz version 2.43.0 (0)
 -->
<!-- Title: G Pages: 1 -->
<svg width="1131pt" height="319pt"
 viewBox="0.00 0.00 1131.00 319.00" xmlns="http://www.w3.org/2000/svg" xmlns:xlink="http://www.w3.org/1999/xlink">
<g id="graph0" class="graph" transform="scale(1 1) rotate(0) translate(4 315)">
<title>G</title>
<polygon fill="white" stroke="transparent" points="-4,4 -4,-315 1127,-315 1127,4 -4,4"/>
<!-- _ID_107_ct0_st -->
<!-- ID_107_ct0_st -->
<g id="node2" class="node">
<title>ID_107_ct0_st</title>
<polygon fill="none" stroke="black" points="1123,-191 1016,-191 1016,-141 1123,-141 1123,-191"/>
<text text-anchor="start" x="1024" y="-176.8" font-family="arial" font-weight="bold" font-size="14.00">ID_107_ct0_st</text>
<text text-anchor="start" x="1057.5" y="-162.8" font-family="arial" font-size="14.00" fill="#984ea3">true</text>
<text text-anchor="start" x="1057.5" y="-148.8" font-family="arial" font-size="14.00" fill="#ff7f00">true</text>
</g>
<!-- _ID_107_ct0_st&#45;&gt;ID_107_ct0_st -->
<g id="edge1" class="edge">
<title>_ID_107_ct0_st&#45;&gt;ID_107_ct0_st</title>
<path fill="none" stroke="black" d="M961.6,-279.69C974.29,-275.06 987.22,-268.95 998,-261 1019.89,-244.86 1037.99,-220.01 1050.38,-199.76"/>
<polygon fill="black" stroke="black" points="1053.41,-201.51 1055.49,-191.13 1047.38,-197.95 1053.41,-201.51"/>
</g>
<!-- ID_107_ct0_st&#45;&gt;ID_107_ct0_st -->
<g id="edge4" class="edge">
<title>ID_107_ct0_st&#45;&gt;ID_107_ct0_st</title>
<path fill="none" stroke="black" d="M1054.93,-191.18C1054.28,-200.91 1059.14,-209 1069.5,-209 1075.97,-209 1080.3,-205.84 1082.47,-201.09"/>
<polygon fill="black" stroke="black" points="1085.94,-201.6 1084.07,-191.18 1079.03,-200.49 1085.94,-201.6"/>
<text text-anchor="start" x="1057.5" y="-212.8" font-family="arial" font-size="14.00" fill="#377eb8">true</text>
</g>
<!-- _ID_107_ct0_st0 -->
<!-- ID_107_ct0_st0 -->
<g id="node4" class="node">
<title>ID_107_ct0_st0</title>
<polygon fill="none" stroke="black" points="486,-140 372,-140 372,-90 486,-90 486,-140"/>
<text text-anchor="start" x="380" y="-125.8" font-family="arial" font-weight="bold" font-size="14.00">ID_107_ct0_st0</text>
<text text-anchor="start" x="398.5" y="-111.8" font-family="arial" font-size="14.00" fill="#984ea3">(!P &amp;&amp; !R)</text>
<text text-anchor="start" x="417" y="-97.8" font-family="arial" font-size="14.00" fill="#ff7f00">true</text>
</g>
<!-- _ID_107_ct0_st0&#45;&gt;ID_107_ct0_st0 -->
<g id="edge2" class="edge">
<title>_ID_107_ct0_st0&#45;&gt;ID_107_ct0_st0</title>
<path fill="none" stroke="black" d="M304.25,-115C322.54,-115 342.83,-115 361.6,-115"/>
<polygon fill="black" stroke="black" points="361.85,-118.5 371.85,-115 361.85,-111.5 361.85,-118.5"/>
</g>
<!-- ID_107_ct0_st0&#45;&gt;ID_107_ct0_st -->
<g id="edge5" class="edge">
<title>ID_107_ct0_st0&#45;&gt;ID_107_ct0_st</title>
<path fill="none" stroke="black" d="M486.14,-121.26C492.17,-121.87 498.21,-122.47 504,-123 686.1,-139.77 901.68,-154.88 1005.89,-161.88"/>
<polygon fill="black" stroke="black" points="1005.71,-165.38 1015.92,-162.55 1006.18,-158.39 1005.71,-165.38"/>
<text text-anchor="start" x="797.5" y="-152.8" font-family="arial" font-size="14.00" fill="#377eb8">P&#39;</text>
</g>
<!-- ID_107_ct0_st0&#45;&gt;ID_107_ct0_st0 -->
<g id="edge6" class="edge">
<title>ID_107_ct0_st0&#45;&gt;ID_107_ct0_st0</title>
<path fill="none" stroke="black" d="M412.94,-140.18C412.22,-149.91 417.58,-158 429,-158 436.14,-158 440.91,-154.84 443.31,-150.09"/>
<polygon fill="black" stroke="black" points="446.76,-150.63 445.06,-140.18 439.87,-149.41 446.76,-150.63"/>
<text text-anchor="start" x="417" y="-161.8" font-family="arial" font-size="14.00" fill="#377eb8">true</text>
</g>
<!-- ID_107_ct0_st01X -->
<g id="node7" class="node">
<title>ID_107_ct0_st01X</title>
<polygon fill="none" stroke="black" points="763,-50 632,-50 632,0 763,0 763,-50"/>
<text text-anchor="start" x="640" y="-35.8" font-family="arial" font-weight="bold" font-size="14.00">ID_107_ct0_st01X</text>
<text text-anchor="start" x="668.5" y="-21.8" font-family="arial" font-size="14.00" fill="#984ea3">(!P &amp;&amp; R)</text>
<text text-anchor="start" x="674.5" y="-7.8" font-family="arial" font-size="14.00" fill="#ff7f00">c0 &lt;= 5</text>
</g>
<!-- ID_107_ct0_st0&#45;&gt;ID_107_ct0_st01X -->
<g id="edge7" class="edge">
<title>ID_107_ct0_st0&#45;&gt;ID_107_ct0_st01X</title>
<path fill="none" stroke="black" d="M472.19,-89.89C482.38,-84.48 493.39,-79.14 504,-75 550.99,-56.64 565.18,-59.72 614,-47 616.6,-46.32 619.25,-45.63 621.92,-44.93"/>
<polygon fill="black" stroke="black" points="622.89,-48.29 631.67,-42.36 621.11,-41.52 622.89,-48.29"/>
<text text-anchor="start" x="547" y="-93.8" font-family="arial" font-size="14.00" fill="#377eb8">true</text>
<text text-anchor="start" x="540" y="-78.8" font-family="arial" font-size="14.00">c0 :=0</text>
</g>
<!-- _ID_107_ct0_st01W -->
<!-- ID_107_ct0_st01W -->
<g id="node6" class="node">
<title>ID_107_ct0_st01W</title>
<polygon fill="none" stroke="black" points="312,-226 177,-226 177,-176 312,-176 312,-226"/>
<text text-anchor="start" x="185" y="-211.8" font-family="arial" font-weight="bold" font-size="14.00">ID_107_ct0_st01W</text>
<text text-anchor="start" x="215.5" y="-197.8" font-family="arial" font-size="14.00" fill="#984ea3">(!P &amp;&amp; R)</text>
<text text-anchor="start" x="221.5" y="-183.8" font-family="arial" font-size="14.00" fill="#ff7f00">c0 &lt;= 5</text>
</g>
<!-- _ID_107_ct0_st01W&#45;&gt;ID_107_ct0_st01W -->
<g id="edge3" class="edge">
<title>_ID_107_ct0_st01W&#45;&gt;ID_107_ct0_st01W</title>
<path fill="none" stroke="black" d="M140.17,-201C148.86,-201 157.79,-201 166.59,-201"/>
<polygon fill="black" stroke="black" points="166.84,-204.5 176.84,-201 166.84,-197.5 166.84,-204.5"/>
</g>
<!-- ID_107_ct0_st01W&#45;&gt;ID_107_ct0_st -->
<g id="edge8" class="edge">
<title>ID_107_ct0_st01W&#45;&gt;ID_107_ct0_st</title>
<path fill="none" stroke="black" d="M311.67,-226.02C345.88,-236.81 388.63,-247 428,-247 428,-247 428,-247 907,-247 953.16,-247 999.62,-220.23 1030.78,-197.47"/>
<polygon fill="black" stroke="black" points="1033.26,-199.99 1039.15,-191.18 1029.05,-194.39 1033.26,-199.99"/>
<text text-anchor="start" x="691" y="-250.8" font-family="arial" font-size="14.00" fill="#377eb8">P&#39;</text>
</g>
<!-- ID_107_ct0_st01W&#45;&gt;ID_107_ct0_st0 -->
<g id="edge9" class="edge">
<title>ID_107_ct0_st01W&#45;&gt;ID_107_ct0_st0</title>
<path fill="none" stroke="black" d="M298.78,-175.89C319.67,-166.05 343.81,-154.68 365.52,-144.44"/>
<polygon fill="black" stroke="black" points="367.1,-147.57 374.66,-140.14 364.12,-141.23 367.1,-147.57"/>
<text text-anchor="start" x="330" y="-164.8" font-family="arial" font-size="14.00" fill="#377eb8">true</text>
</g>
<!-- ID_107_ct0_st01W&#45;&gt;ID_107_ct0_st01W -->
<g id="edge10" class="edge">
<title>ID_107_ct0_st01W&#45;&gt;ID_107_ct0_st01W</title>
<path fill="none" stroke="black" d="M228.44,-226.18C227.72,-235.91 233.08,-244 244.5,-244 251.64,-244 256.41,-240.84 258.81,-236.09"/>
<polygon fill="black" stroke="black" points="262.26,-236.63 260.56,-226.18 255.37,-235.41 262.26,-236.63"/>
<text text-anchor="start" x="225.5" y="-247.8" font-family="arial" font-size="14.00" fill="#377eb8">c0 &lt; 5</text>
</g>
<!-- ID_107_ct0_st01 -->
<g id="node8" class="node">
<title>ID_107_ct0_st01</title>
<polygon fill="none" stroke="black" points="967,-105 845,-105 845,-55 967,-55 967,-105"/>
<text text-anchor="start" x="853" y="-90.8" font-family="arial" font-weight="bold" font-size="14.00">ID_107_ct0_st01</text>
<text text-anchor="start" x="855.5" y="-76.8" font-family="arial" font-size="14.00" fill="#984ea3">(!P &amp;&amp; (R &amp;&amp; S))</text>
<text text-anchor="start" x="894" y="-62.8" font-family="arial" font-size="14.00" fill="#ff7f00">true</text>
</g>
<!-- ID_107_ct0_st01W&#45;&gt;ID_107_ct0_st01 -->
<g id="edge11" class="edge">
<title>ID_107_ct0_st01W&#45;&gt;ID_107_ct0_st01</title>
<path fill="none" stroke="black" d="M312.17,-203.55C445.08,-207.6 737.93,-211.15 827,-168 851.33,-156.21 871.36,-133.08 885.02,-113.49"/>
<polygon fill="black" stroke="black" points="888.01,-115.33 890.67,-105.07 882.19,-111.43 888.01,-115.33"/>
<text text-anchor="start" x="536" y="-208.8" font-family="arial" font-size="14.00" fill="#377eb8">c0 &gt;= 5</text>
</g>
<!-- ID_107_ct0_st01X&#45;&gt;ID_107_ct0_st -->
<g id="edge12" class="edge">
<title>ID_107_ct0_st01X&#45;&gt;ID_107_ct0_st</title>
<path fill="none" stroke="black" d="M763.1,-11.31C820.02,-2.64 903.53,1.58 967,-31 1008.43,-52.27 1037.52,-99.11 1053.64,-131.6"/>
<polygon fill="black" stroke="black" points="1050.55,-133.26 1058.03,-140.77 1056.86,-130.24 1050.55,-133.26"/>
<text text-anchor="start" x="899.5" y="-34.8" font-family="arial" font-size="14.00" fill="#377eb8">P&#39;</text>
</g>
<!-- ID_107_ct0_st01X&#45;&gt;ID_107_ct0_st0 -->
<g id="edge13" class="edge">
<title>ID_107_ct0_st01X&#45;&gt;ID_107_ct0_st0</title>
<path fill="none" stroke="black" d="M631.96,-13.09C593.08,-8.97 543.6,-9.32 504,-28 480.36,-39.15 461.45,-61.88 448.66,-81.32"/>
<polygon fill="black" stroke="black" points="445.58,-79.63 443.22,-89.96 451.51,-83.36 445.58,-79.63"/>
<text text-anchor="start" x="504" y="-31.8" font-family="arial" font-size="14.00" fill="#377eb8">(P&#39; || (S&#39; || c0 &lt; 5))</text>
</g>
<!-- ID_107_ct0_st01X&#45;&gt;ID_107_ct0_st01X -->
<g id="edge14" class="edge">
<title>ID_107_ct0_st01X&#45;&gt;ID_107_ct0_st01X</title>
<path fill="none" stroke="black" d="M677.7,-50.18C676.82,-59.91 683.42,-68 697.5,-68 706.3,-68 712.18,-64.84 715.13,-60.09"/>
<polygon fill="black" stroke="black" points="718.58,-60.69 717.3,-50.18 711.74,-59.2 718.58,-60.69"/>
<text text-anchor="start" x="678.5" y="-71.8" font-family="arial" font-size="14.00" fill="#377eb8">c0 &lt; 5</text>
</g>
<!-- ID_107_ct0_st01X&#45;&gt;ID_107_ct0_st01 -->
<g id="edge15" class="edge">
<title>ID_107_ct0_st01X&#45;&gt;ID_107_ct0_st01</title>
<path fill="none" stroke="black" d="M763.27,-42.25C786.04,-48.32 811.72,-55.16 834.91,-61.33"/>
<polygon fill="black" stroke="black" points="834.11,-64.74 844.68,-63.93 835.92,-57.98 834.11,-64.74"/>
<text text-anchor="start" x="781" y="-63.8" font-family="arial" font-size="14.00" fill="#377eb8">c0 &gt;= 5</text>
</g>
<!-- ID_107_ct0_st01&#45;&gt;ID_107_ct0_st -->
<g id="edge16" class="edge">
<title>ID_107_ct0_st01&#45;&gt;ID_107_ct0_st</title>
<path fill="none" stroke="black" d="M954.15,-105.11C972.39,-114.82 993.42,-126.02 1012.43,-136.14"/>
<polygon fill="black" stroke="black" points="1010.82,-139.25 1021.29,-140.86 1014.11,-133.07 1010.82,-139.25"/>
<text text-anchor="start" x="985" y="-132.8" font-family="arial" font-size="14.00" fill="#377eb8">P&#39;</text>
</g>
<!-- ID_107_ct0_st01&#45;&gt;ID_107_ct0_st0 -->
<g id="edge17" class="edge">
<title>ID_107_ct0_st01&#45;&gt;ID_107_ct0_st0</title>
<path fill="none" stroke="black" d="M844.85,-85.72C786.04,-91.19 693.92,-99.4 614,-105 575.08,-107.73 531.48,-110.13 496.5,-111.89"/>
<polygon fill="black" stroke="black" points="496.21,-108.4 486.4,-112.39 496.56,-115.39 496.21,-108.4"/>
<text text-anchor="start" x="673" y="-107.8" font-family="arial" font-size="14.00" fill="#377eb8">(P&#39; || S&#39;)</text>
</g>
<!-- ID_107_ct0_st01&#45;&gt;ID_107_ct0_st01 -->
<g id="edge18" class="edge">
<title>ID_107_ct0_st01&#45;&gt;ID_107_ct0_st01</title>
<path fill="none" stroke="black" d="M890.31,-105.18C889.61,-114.91 894.84,-123 906,-123 912.97,-123 917.63,-119.84 919.97,-115.09"/>
<polygon fill="black" stroke="black" points="923.43,-115.63 921.69,-105.18 916.53,-114.43 923.43,-115.63"/>
<text text-anchor="start" x="894" y="-126.8" font-family="arial" font-size="14.00" fill="#377eb8">true</text>
</g>
</g>
</svg>
