<?xml version="1.0" encoding="UTF-8" standalone="no"?>
<!DOCTYPE svg PUBLIC "-//W3C//DTD SVG 1.1//EN"
 "http://www.w3.org/Graphics/SVG/1.1/DTD/svg11.dtd">
<!-- Generated by graphviz version 2.43.0 (0)
 -->
<!-- Title: G Pages: 1 -->
<svg width="2172pt" height="1379pt"
 viewBox="0.00 0.00 2172.00 1379.26" xmlns="http://www.w3.org/2000/svg" xmlns:xlink="http://www.w3.org/1999/xlink">
<g id="graph0" class="graph" transform="scale(1 1) rotate(0) translate(4 1375.26)">
<title>G</title>
<polygon fill="white" stroke="transparent" points="-4,4 -4,-1375.26 2168,-1375.26 2168,4 -4,4"/>
<!-- _ID_38_ct0_st0 -->
<!-- ID_38_ct0_st0 -->
<g id="node2" class="node">
<title>ID_38_ct0_st0</title>
<polygon fill="none" stroke="black" points="264.5,-1078 157.5,-1078 157.5,-1028 264.5,-1028 264.5,-1078"/>
<text text-anchor="start" x="165.5" y="-1063.8" font-family="arial" font-weight="bold" font-size="14.00">ID_38_ct0_st0</text>
<text text-anchor="start" x="186.5" y="-1049.8" font-family="arial" font-size="14.00" fill="#984ea3">(Q || !P)</text>
<text text-anchor="start" x="199" y="-1035.8" font-family="arial" font-size="14.00" fill="#ff7f00">true</text>
</g>
<!-- _ID_38_ct0_st0&#45;&gt;ID_38_ct0_st0 -->
<g id="edge1" class="edge">
<title>_ID_38_ct0_st0&#45;&gt;ID_38_ct0_st0</title>
<path fill="none" stroke="black" d="M111.05,-1053C122.71,-1053 135.13,-1053 147.08,-1053"/>
<polygon fill="black" stroke="black" points="147.43,-1056.5 157.43,-1053 147.43,-1049.5 147.43,-1056.5"/>
</g>
<!-- ID_38_ct0_st0&#45;&gt;ID_38_ct0_st0 -->
<g id="edge5" class="edge">
<title>ID_38_ct0_st0&#45;&gt;ID_38_ct0_st0</title>
<path fill="none" stroke="black" d="M196.06,-1078.18C195.39,-1087.91 200.38,-1096 211,-1096 217.64,-1096 222.08,-1092.84 224.31,-1088.09"/>
<polygon fill="black" stroke="black" points="227.77,-1088.61 225.94,-1078.18 220.86,-1087.47 227.77,-1088.61"/>
<text text-anchor="start" x="199" y="-1099.8" font-family="arial" font-size="14.00" fill="#377eb8">true</text>
</g>
<!-- ID_38_ct0_st012 -->
<g id="node4" class="node">
<title>ID_38_ct0_st012</title>
<polygon fill="none" stroke="black" points="457,-1024 334,-1024 334,-974 457,-974 457,-1024"/>
<text text-anchor="start" x="342.5" y="-1009.8" font-family="arial" font-weight="bold" font-size="14.00">ID_38_ct0_st012</text>
<text text-anchor="start" x="342" y="-995.8" font-family="arial" font-size="14.00" fill="#984ea3">(P &amp;&amp; (!Q &amp;&amp; !R))</text>
<text text-anchor="start" x="383.5" y="-981.8" font-family="arial" font-size="14.00" fill="#ff7f00">true</text>
</g>
<!-- ID_38_ct0_st0&#45;&gt;ID_38_ct0_st012 -->
<g id="edge6" class="edge">
<title>ID_38_ct0_st0&#45;&gt;ID_38_ct0_st012</title>
<path fill="none" stroke="black" d="M264.57,-1043.78C281.18,-1040.36 299.5,-1036.06 316,-1031 319.51,-1029.92 323.09,-1028.75 326.68,-1027.51"/>
<polygon fill="black" stroke="black" points="327.96,-1030.77 336.19,-1024.1 325.59,-1024.18 327.96,-1030.77"/>
<text text-anchor="start" x="292" y="-1040.8" font-family="arial" font-size="14.00" fill="#377eb8">true</text>
</g>
<!-- ID_38_ct0_st0123 -->
<g id="node6" class="node">
<title>ID_38_ct0_st0123</title>
<polygon fill="none" stroke="black" points="2164,-559 2001,-559 2001,-509 2164,-509 2164,-559"/>
<text text-anchor="start" x="2026" y="-544.8" font-family="arial" font-weight="bold" font-size="14.00">ID_38_ct0_st0123</text>
<text text-anchor="start" x="2009" y="-530.8" font-family="arial" font-size="14.00" fill="#984ea3">(P &amp;&amp; (!Q &amp;&amp; (R &amp;&amp; S)))</text>
<text text-anchor="start" x="2070.5" y="-516.8" font-family="arial" font-size="14.00" fill="#ff7f00">true</text>
</g>
<!-- ID_38_ct0_st0&#45;&gt;ID_38_ct0_st0123 -->
<g id="edge7" class="edge">
<title>ID_38_ct0_st0&#45;&gt;ID_38_ct0_st0123</title>
<path fill="none" stroke="black" d="M257.25,-1027.82C263.76,-1022.39 269.7,-1016.12 274,-1009 377.72,-837.45 194.04,-115 394.5,-115 394.5,-115 394.5,-115 1858.5,-115 1921.34,-115 1951.6,-127.57 1983,-182 2043.83,-287.44 2068.8,-432.5 2077.5,-498.6"/>
<polygon fill="black" stroke="black" points="2074.07,-499.41 2078.81,-508.89 2081.02,-498.53 2074.07,-499.41"/>
<text text-anchor="start" x="1106" y="-118.8" font-family="arial" font-size="14.00" fill="#377eb8">true</text>
</g>
<!-- ID_38_ct0_st01234 -->
<g id="node8" class="node">
<title>ID_38_ct0_st01234</title>
<polygon fill="none" stroke="black" points="1941,-726 1774,-726 1774,-676 1941,-676 1941,-726"/>
<text text-anchor="start" x="1797" y="-711.8" font-family="arial" font-weight="bold" font-size="14.00">ID_38_ct0_st01234</text>
<text text-anchor="start" x="1782" y="-697.8" font-family="arial" font-size="14.00" fill="#984ea3">(P &amp;&amp; (!Q &amp;&amp; (R &amp;&amp; !S)))</text>
<text text-anchor="start" x="1845.5" y="-683.8" font-family="arial" font-size="14.00" fill="#ff7f00">true</text>
</g>
<!-- ID_38_ct0_st0&#45;&gt;ID_38_ct0_st01234 -->
<g id="edge8" class="edge">
<title>ID_38_ct0_st0&#45;&gt;ID_38_ct0_st01234</title>
<path fill="none" stroke="black" d="M213.67,-1078.05C218.16,-1126.25 234.38,-1232.8 292,-1297 298.7,-1304.47 385.47,-1342 394.5,-1342 394.5,-1342 394.5,-1342 758.5,-1342 1212.58,-1342 1490.65,-1489.49 1756,-1121 1802.42,-1056.54 1737,-834.29 1774,-764 1780.48,-751.68 1790.57,-741.06 1801.49,-732.23"/>
<polygon fill="black" stroke="black" points="1803.69,-734.96 1809.55,-726.13 1799.46,-729.38 1803.69,-734.96"/>
<text text-anchor="start" x="989" y="-1357.8" font-family="arial" font-size="14.00" fill="#377eb8">true</text>
</g>
<!-- _ID_38_ct0_st012 -->
<!-- _ID_38_ct0_st012&#45;&gt;ID_38_ct0_st012 -->
<g id="edge2" class="edge">
<title>_ID_38_ct0_st012&#45;&gt;ID_38_ct0_st012</title>
<path fill="none" stroke="black" d="M274.04,-987.78C290.04,-989.27 307.39,-990.89 323.79,-992.41"/>
<polygon fill="black" stroke="black" points="323.59,-995.91 333.87,-993.35 324.24,-988.94 323.59,-995.91"/>
</g>
<!-- ID_38_ct0_st012&#45;&gt;ID_38_ct0_st0 -->
<g id="edge16" class="edge">
<title>ID_38_ct0_st012&#45;&gt;ID_38_ct0_st0</title>
<path fill="none" stroke="black" d="M333.87,-1003.16C319.92,-1005.08 305.28,-1007.89 292,-1012 282.49,-1014.94 272.76,-1018.96 263.51,-1023.33"/>
<polygon fill="black" stroke="black" points="261.86,-1020.24 254.43,-1027.8 264.95,-1026.52 261.86,-1020.24"/>
<text text-anchor="start" x="296.5" y="-1015.8" font-family="arial" font-size="14.00" fill="#377eb8">Q&#39;</text>
</g>
<!-- ID_38_ct0_st012&#45;&gt;ID_38_ct0_st012 -->
<g id="edge20" class="edge">
<title>ID_38_ct0_st012&#45;&gt;ID_38_ct0_st012</title>
<path fill="none" stroke="black" d="M378.69,-1024.18C377.94,-1033.91 383.55,-1042 395.5,-1042 402.97,-1042 407.96,-1038.84 410.47,-1034.09"/>
<polygon fill="black" stroke="black" points="413.93,-1034.65 412.31,-1024.18 407.04,-1033.37 413.93,-1034.65"/>
<text text-anchor="start" x="383.5" y="-1045.8" font-family="arial" font-size="14.00" fill="#377eb8">true</text>
</g>
<!-- ID_38_ct0_st012&#45;&gt;ID_38_ct0_st0123 -->
<g id="edge21" class="edge">
<title>ID_38_ct0_st012&#45;&gt;ID_38_ct0_st0123</title>
<path fill="none" stroke="black" d="M405.55,-1024.03C417.48,-1054.1 441.02,-1104.54 475,-1137 530.19,-1189.72 551.67,-1215 628,-1215 628,-1215 628,-1215 1002,-1215 1427.02,-1215 1663.31,-1355.75 1941,-1034 2061.58,-894.29 2079.16,-658.36 2081.36,-569.38"/>
<polygon fill="black" stroke="black" points="2084.86,-569.34 2081.56,-559.28 2077.87,-569.2 2084.86,-569.34"/>
<text text-anchor="start" x="1236.5" y="-1233.8" font-family="arial" font-size="14.00" fill="#377eb8">true</text>
</g>
<!-- ID_38_ct0_st012&#45;&gt;ID_38_ct0_st01234 -->
<g id="edge22" class="edge">
<title>ID_38_ct0_st012&#45;&gt;ID_38_ct0_st01234</title>
<path fill="none" stroke="black" d="M396.25,-973.55C396.84,-912.79 405.52,-756.59 475,-653 632.35,-418.38 752.36,-391.52 1031,-345 1175.14,-320.94 1556.47,-325.3 1687,-391 1724.91,-410.08 1737.7,-418.71 1756,-457 1775.33,-497.45 1748.64,-617.31 1772.85,-667.09"/>
<polygon fill="black" stroke="black" points="1769.98,-669.11 1778.19,-675.8 1775.95,-665.45 1769.98,-669.11"/>
<text text-anchor="start" x="1106" y="-348.8" font-family="arial" font-size="14.00" fill="#377eb8">true</text>
</g>
<!-- ID_38_ct0_st02 -->
<g id="node9" class="node">
<title>ID_38_ct0_st02</title>
<polygon fill="none" stroke="black" points="1680,-865 1553,-865 1553,-815 1680,-815 1680,-865"/>
<text text-anchor="start" x="1567.5" y="-850.8" font-family="arial" font-weight="bold" font-size="14.00">ID_38_ct0_st02</text>
<text text-anchor="start" x="1561" y="-836.8" font-family="arial" font-size="14.00" fill="#984ea3">(!P &amp;&amp; (!Q &amp;&amp; !R))</text>
<text text-anchor="start" x="1604.5" y="-822.8" font-family="arial" font-size="14.00" fill="#ff7f00">true</text>
</g>
<!-- ID_38_ct0_st012&#45;&gt;ID_38_ct0_st02 -->
<g id="edge17" class="edge">
<title>ID_38_ct0_st012&#45;&gt;ID_38_ct0_st02</title>
<path fill="none" stroke="black" d="M457.17,-1013.29C463.17,-1014.36 469.19,-1015.29 475,-1016 517.35,-1021.16 663.09,-1018.74 714,-1018 828.3,-1016.34 856.88,-1014.5 971,-1008 989.68,-1006.94 994.39,-1007.02 1013,-1005 1098.73,-995.7 1120.26,-992.99 1205,-977 1233.47,-971.63 1431.6,-927.42 1459,-918 1495.42,-905.47 1534.18,-886.21 1564.02,-869.95"/>
<polygon fill="black" stroke="black" points="1565.91,-872.91 1572.98,-865.02 1562.53,-866.78 1565.91,-872.91"/>
<text text-anchor="start" x="989" y="-1010.8" font-family="arial" font-size="14.00" fill="#377eb8">true</text>
</g>
<!-- ID_38_ct0_st023 -->
<g id="node10" class="node">
<title>ID_38_ct0_st023</title>
<polygon fill="none" stroke="black" points="1459,-1018 1292,-1018 1292,-968 1459,-968 1459,-1018"/>
<text text-anchor="start" x="1322.5" y="-1003.8" font-family="arial" font-weight="bold" font-size="14.00">ID_38_ct0_st023</text>
<text text-anchor="start" x="1300" y="-989.8" font-family="arial" font-size="14.00" fill="#984ea3">(!P &amp;&amp; (!Q &amp;&amp; (R &amp;&amp; S)))</text>
<text text-anchor="start" x="1363.5" y="-975.8" font-family="arial" font-size="14.00" fill="#ff7f00">true</text>
</g>
<!-- ID_38_ct0_st012&#45;&gt;ID_38_ct0_st023 -->
<g id="edge18" class="edge">
<title>ID_38_ct0_st012&#45;&gt;ID_38_ct0_st023</title>
<path fill="none" stroke="black" d="M408.6,-1024.43C421.41,-1048.07 444.07,-1081.85 475,-1097 554.73,-1136.05 1192.56,-1132.35 1274,-1097 1307.38,-1082.51 1335.17,-1051.1 1353.01,-1026.57"/>
<polygon fill="black" stroke="black" points="1355.99,-1028.41 1358.89,-1018.22 1350.27,-1024.38 1355.99,-1028.41"/>
<text text-anchor="start" x="874" y="-1127.8" font-family="arial" font-size="14.00" fill="#377eb8">true</text>
</g>
<!-- ID_38_ct0_st0234 -->
<g id="node11" class="node">
<title>ID_38_ct0_st0234</title>
<polygon fill="none" stroke="black" points="714,-669 544,-669 544,-619 714,-619 714,-669"/>
<text text-anchor="start" x="572.5" y="-654.8" font-family="arial" font-weight="bold" font-size="14.00">ID_38_ct0_st0234</text>
<text text-anchor="start" x="552" y="-640.8" font-family="arial" font-size="14.00" fill="#984ea3">(!P &amp;&amp; (!Q &amp;&amp; (R &amp;&amp; !S)))</text>
<text text-anchor="start" x="617" y="-626.8" font-family="arial" font-size="14.00" fill="#ff7f00">true</text>
</g>
<!-- ID_38_ct0_st012&#45;&gt;ID_38_ct0_st0234 -->
<g id="edge19" class="edge">
<title>ID_38_ct0_st012&#45;&gt;ID_38_ct0_st0234</title>
<path fill="none" stroke="black" d="M399.42,-973.97C405.92,-927.19 425.15,-825 475,-756 499.67,-721.85 537.91,-693.86 569.98,-674.4"/>
<polygon fill="black" stroke="black" points="572.04,-677.25 578.85,-669.14 568.47,-671.23 572.04,-677.25"/>
<text text-anchor="start" x="488.5" y="-759.8" font-family="arial" font-size="14.00" fill="#377eb8">true</text>
</g>
<!-- _ID_38_ct0_st0123 -->
<!-- _ID_38_ct0_st0123&#45;&gt;ID_38_ct0_st0123 -->
<g id="edge3" class="edge">
<title>_ID_38_ct0_st0123&#45;&gt;ID_38_ct0_st0123</title>
<path fill="none" stroke="black" d="M1924.69,-21.34C1945.93,-25.66 1967.86,-34.07 1983,-50 2044.91,-115.14 2071.48,-398.1 2079.07,-498.5"/>
<polygon fill="black" stroke="black" points="2075.6,-499.01 2079.82,-508.73 2082.58,-498.5 2075.6,-499.01"/>
</g>
<!-- ID_38_ct0_st0123&#45;&gt;ID_38_ct0_st0 -->
<g id="edge32" class="edge">
<title>ID_38_ct0_st0123&#45;&gt;ID_38_ct0_st0</title>
<path fill="none" stroke="black" d="M2081.3,-508.73C2079.07,-411.11 2057.2,-64 1858.5,-64 394.5,-64 394.5,-64 394.5,-64 323,-64 310.43,-118.91 292,-188 280.24,-232.08 295.38,-968.7 274,-1009 271.72,-1013.29 268.82,-1017.26 265.51,-1020.91"/>
<polygon fill="black" stroke="black" points="262.99,-1018.48 258.24,-1027.95 267.86,-1023.51 262.99,-1018.48"/>
<text text-anchor="start" x="1110.5" y="-67.8" font-family="arial" font-size="14.00" fill="#377eb8">Q&#39;</text>
</g>
<!-- ID_38_ct0_st0123&#45;&gt;ID_38_ct0_st012 -->
<g id="edge37" class="edge">
<title>ID_38_ct0_st0123&#45;&gt;ID_38_ct0_st012</title>
<path fill="none" stroke="black" d="M2079.51,-508.93C2073.8,-451.26 2053,-306.96 1983,-213 1946.3,-163.74 1919.92,-153 1858.5,-153 1501.5,-153 1501.5,-153 1501.5,-153 1279.49,-153 1224.01,-158 1002,-158 628,-158 628,-158 628,-158 458.13,-158 408.2,-803.88 398.45,-963.6"/>
<polygon fill="black" stroke="black" points="394.94,-963.64 397.84,-973.83 401.93,-964.06 394.94,-963.64"/>
<text text-anchor="start" x="1223" y="-159.8" font-family="arial" font-size="14.00" fill="#377eb8">(Q&#39; || S&#39;)</text>
</g>
<!-- ID_38_ct0_st0123&#45;&gt;ID_38_ct0_st0123 -->
<g id="edge39" class="edge">
<title>ID_38_ct0_st0123&#45;&gt;ID_38_ct0_st0123</title>
<path fill="none" stroke="black" d="M2061.96,-559.18C2061.04,-568.91 2067.89,-577 2082.5,-577 2091.63,-577 2097.73,-573.84 2100.8,-569.09"/>
<polygon fill="black" stroke="black" points="2104.25,-569.7 2103.04,-559.18 2097.42,-568.15 2104.25,-569.7"/>
<text text-anchor="start" x="2070.5" y="-580.8" font-family="arial" font-size="14.00" fill="#377eb8">true</text>
</g>
<!-- ID_38_ct0_st0123&#45;&gt;ID_38_ct0_st01234 -->
<g id="edge40" class="edge">
<title>ID_38_ct0_st0123&#45;&gt;ID_38_ct0_st01234</title>
<path fill="none" stroke="black" d="M2071.62,-559.16C2057.32,-592.09 2027.56,-649.01 1983,-678 1973.21,-684.37 1962.12,-689.08 1950.7,-692.56"/>
<polygon fill="black" stroke="black" points="1949.77,-689.18 1941.04,-695.19 1951.61,-695.94 1949.77,-689.18"/>
<text text-anchor="start" x="1959" y="-692.8" font-family="arial" font-size="14.00" fill="#377eb8">true</text>
</g>
<!-- ID_38_ct0_st0123&#45;&gt;ID_38_ct0_st02 -->
<g id="edge33" class="edge">
<title>ID_38_ct0_st0123&#45;&gt;ID_38_ct0_st02</title>
<path fill="none" stroke="black" d="M2039.23,-559.06C2022.13,-568.57 2001.98,-579.03 1983,-587 1893.31,-624.66 1854.88,-597.96 1774,-652 1713.14,-692.67 1663.29,-763.79 1637.21,-805.93"/>
<polygon fill="black" stroke="black" points="1634.08,-804.35 1631.86,-814.71 1640.05,-807.99 1634.08,-804.35"/>
<text text-anchor="start" x="1832" y="-655.8" font-family="arial" font-size="14.00" fill="#377eb8">(Q&#39; || S&#39;)</text>
</g>
<!-- ID_38_ct0_st0123&#45;&gt;ID_38_ct0_st023 -->
<g id="edge35" class="edge">
<title>ID_38_ct0_st0123&#45;&gt;ID_38_ct0_st023</title>
<path fill="none" stroke="black" d="M2078.33,-559.03C2068.57,-627.91 2033.86,-823.79 1941,-954 1880.82,-1038.39 1850.62,-1053.69 1756,-1096 1642.79,-1146.62 1585.25,-1152.51 1477,-1092 1447.49,-1075.5 1420.58,-1048.01 1402.05,-1026.18"/>
<polygon fill="black" stroke="black" points="1404.69,-1023.88 1395.61,-1018.42 1399.31,-1028.35 1404.69,-1023.88"/>
<text text-anchor="start" x="1718.5" y="-1119.8" font-family="arial" font-size="14.00" fill="#377eb8">true</text>
</g>
<!-- ID_38_ct0_st0123&#45;&gt;ID_38_ct0_st0234 -->
<g id="edge36" class="edge">
<title>ID_38_ct0_st0123&#45;&gt;ID_38_ct0_st0234</title>
<path fill="none" stroke="black" d="M2080.68,-508.78C2077.42,-451.78 2061.42,-312.07 1983,-236 1941.57,-195.81 1916.23,-199 1858.5,-199 1501.5,-199 1501.5,-199 1501.5,-199 1330.27,-199 864.28,-130.27 732,-239 674.41,-286.34 643.52,-518.96 633.6,-608.64"/>
<polygon fill="black" stroke="black" points="630.09,-608.53 632.5,-618.85 637.05,-609.29 630.09,-608.53"/>
<text text-anchor="start" x="1363.5" y="-201.8" font-family="arial" font-size="14.00" fill="#377eb8">true</text>
</g>
<!-- ID_38_ct0_st024 -->
<g id="node12" class="node">
<title>ID_38_ct0_st024</title>
<polygon fill="none" stroke="black" points="1205,-628 1031,-628 1031,-578 1205,-578 1205,-628"/>
<text text-anchor="start" x="1065" y="-613.8" font-family="arial" font-weight="bold" font-size="14.00">ID_38_ct0_st024</text>
<text text-anchor="start" x="1039" y="-599.8" font-family="arial" font-size="14.00" fill="#984ea3">(!P &amp;&amp; (!Q &amp;&amp; (!R &amp;&amp; !S)))</text>
<text text-anchor="start" x="1106" y="-585.8" font-family="arial" font-size="14.00" fill="#ff7f00">true</text>
</g>
<!-- ID_38_ct0_st0123&#45;&gt;ID_38_ct0_st024 -->
<g id="edge34" class="edge">
<title>ID_38_ct0_st0123&#45;&gt;ID_38_ct0_st024</title>
<path fill="none" stroke="black" d="M2000.7,-539.16C1924.45,-544.08 1806.94,-551.79 1705,-559 1532.62,-571.19 1331.8,-586.52 1215.65,-595.49"/>
<polygon fill="black" stroke="black" points="1215.07,-592.02 1205.37,-596.28 1215.61,-599 1215.07,-592.02"/>
<text text-anchor="start" x="1604.5" y="-574.8" font-family="arial" font-size="14.00" fill="#377eb8">true</text>
</g>
<!-- ID_38_ct0_st0124 -->
<g id="node13" class="node">
<title>ID_38_ct0_st0124</title>
<polygon fill="none" stroke="black" points="971,-593 801,-593 801,-543 971,-543 971,-593"/>
<text text-anchor="start" x="829.5" y="-578.8" font-family="arial" font-weight="bold" font-size="14.00">ID_38_ct0_st0124</text>
<text text-anchor="start" x="809" y="-564.8" font-family="arial" font-size="14.00" fill="#984ea3">(P &amp;&amp; (!Q &amp;&amp; (!R &amp;&amp; !S)))</text>
<text text-anchor="start" x="874" y="-550.8" font-family="arial" font-size="14.00" fill="#ff7f00">true</text>
</g>
<!-- ID_38_ct0_st0123&#45;&gt;ID_38_ct0_st0124 -->
<g id="edge38" class="edge">
<title>ID_38_ct0_st0123&#45;&gt;ID_38_ct0_st0124</title>
<path fill="none" stroke="black" d="M2077.74,-508.96C2069.47,-463.14 2045.22,-366.05 1983,-317 1938.74,-282.11 1914.85,-293 1858.5,-293 1501.5,-293 1501.5,-293 1501.5,-293 1394.23,-293 1120.14,-341.32 1031,-401 1006.6,-417.34 1001.71,-425.53 989,-452 973.48,-484.32 992.91,-504.97 972.57,-534.74"/>
<polygon fill="black" stroke="black" points="969.54,-532.93 966.11,-542.95 975.04,-537.25 969.54,-532.93"/>
<text text-anchor="start" x="1490.5" y="-297.8" font-family="arial" font-size="14.00" fill="#377eb8">true</text>
</g>
<!-- _ID_38_ct0_st01234 -->
<!-- _ID_38_ct0_st01234&#45;&gt;ID_38_ct0_st01234 -->
<g id="edge4" class="edge">
<title>_ID_38_ct0_st01234&#45;&gt;ID_38_ct0_st01234</title>
<path fill="none" stroke="black" d="M1671.46,-915.83C1676.88,-913.19 1682.17,-910.25 1687,-907 1754.92,-861.32 1809.84,-780.55 1837.34,-734.89"/>
<polygon fill="black" stroke="black" points="1840.38,-736.64 1842.47,-726.25 1834.36,-733.06 1840.38,-736.64"/>
</g>
<!-- ID_38_ct0_st01234&#45;&gt;ID_38_ct0_st012 -->
<g id="edge69" class="edge">
<title>ID_38_ct0_st01234&#45;&gt;ID_38_ct0_st012</title>
<path fill="none" stroke="black" d="M1809.58,-726.14C1795.71,-736.02 1782.09,-748.71 1774,-764 1756.73,-796.66 1782.03,-1069.78 1756,-1096 1661.09,-1191.62 677.7,-1147.59 544,-1131 512.95,-1127.15 500.97,-1134.46 475,-1117 444.68,-1096.61 423.12,-1060.17 410.36,-1033.17"/>
<polygon fill="black" stroke="black" points="413.54,-1031.7 406.22,-1024.05 407.17,-1034.6 413.54,-1031.7"/>
<text text-anchor="start" x="1092.5" y="-1158.8" font-family="arial" font-size="14.00" fill="#377eb8">(Q&#39; || S&#39;)</text>
</g>
<!-- ID_38_ct0_st01234&#45;&gt;ID_38_ct0_st0123 -->
<g id="edge71" class="edge">
<title>ID_38_ct0_st01234&#45;&gt;ID_38_ct0_st0123</title>
<path fill="none" stroke="black" d="M1920.91,-675.9C1941.61,-666.18 1964.16,-653.99 1983,-640 2011.02,-619.19 2037.64,-589.74 2056.12,-567.17"/>
<polygon fill="black" stroke="black" points="2059,-569.17 2062.55,-559.19 2053.55,-564.78 2059,-569.17"/>
<text text-anchor="start" x="1959" y="-658.8" font-family="arial" font-size="14.00" fill="#377eb8">true</text>
</g>
<!-- ID_38_ct0_st01234&#45;&gt;ID_38_ct0_st01234 -->
<g id="edge72" class="edge">
<title>ID_38_ct0_st01234&#45;&gt;ID_38_ct0_st01234</title>
<path fill="none" stroke="black" d="M1836.58,-726.18C1835.65,-735.91 1842.62,-744 1857.5,-744 1866.8,-744 1873.01,-740.84 1876.13,-736.09"/>
<polygon fill="black" stroke="black" points="1879.58,-736.71 1878.42,-726.18 1872.76,-735.13 1879.58,-736.71"/>
<text text-anchor="start" x="1845.5" y="-747.8" font-family="arial" font-size="14.00" fill="#377eb8">true</text>
</g>
<!-- ID_38_ct0_st01234&#45;&gt;ID_38_ct0_st02 -->
<g id="edge65" class="edge">
<title>ID_38_ct0_st01234&#45;&gt;ID_38_ct0_st02</title>
<path fill="none" stroke="black" d="M1833.85,-726.1C1814.75,-746 1785.82,-773.32 1756,-791 1735.65,-803.07 1711.86,-812.82 1689.79,-820.36"/>
<polygon fill="black" stroke="black" points="1688.52,-817.09 1680.13,-823.56 1690.72,-823.74 1688.52,-817.09"/>
<text text-anchor="start" x="1705" y="-818.8" font-family="arial" font-size="14.00" fill="#377eb8">(Q&#39; || S&#39;)</text>
</g>
<!-- ID_38_ct0_st01234&#45;&gt;ID_38_ct0_st023 -->
<g id="edge67" class="edge">
<title>ID_38_ct0_st01234&#45;&gt;ID_38_ct0_st023</title>
<path fill="none" stroke="black" d="M1848.59,-726.17C1830.18,-780.09 1778.88,-906.25 1687,-961 1621.71,-999.9 1534.77,-1005.79 1469.49,-1003.15"/>
<polygon fill="black" stroke="black" points="1469.36,-999.64 1459.21,-1002.66 1469.03,-1006.63 1469.36,-999.64"/>
<text text-anchor="start" x="1604.5" y="-1004.8" font-family="arial" font-size="14.00" fill="#377eb8">true</text>
</g>
<!-- ID_38_ct0_st01234&#45;&gt;ID_38_ct0_st0234 -->
<g id="edge68" class="edge">
<title>ID_38_ct0_st01234&#45;&gt;ID_38_ct0_st0234</title>
<path fill="none" stroke="black" d="M1778.27,-675.74C1776.76,-674.25 1775.33,-672.67 1774,-671 1732.52,-618.76 1792.73,-577.68 1756,-522 1691.53,-424.26 1641.08,-420.37 1528,-390 1213.72,-305.59 1115.88,-394.88 801,-477 769.85,-485.12 757.95,-479.95 732,-499 692.59,-527.93 662.82,-576.77 645.9,-609.68"/>
<polygon fill="black" stroke="black" points="642.62,-608.42 641.27,-618.93 648.88,-611.56 642.62,-608.42"/>
<text text-anchor="start" x="1236.5" y="-364.8" font-family="arial" font-size="14.00" fill="#377eb8">true</text>
</g>
<!-- ID_38_ct0_st01234&#45;&gt;ID_38_ct0_st024 -->
<g id="edge66" class="edge">
<title>ID_38_ct0_st01234&#45;&gt;ID_38_ct0_st024</title>
<path fill="none" stroke="black" d="M1773.81,-700.82C1663.43,-699.59 1462.1,-693.86 1292,-670 1261.01,-665.65 1252.54,-666.31 1223,-656 1205.32,-649.83 1186.86,-641.21 1170.48,-632.71"/>
<polygon fill="black" stroke="black" points="1172.09,-629.61 1161.61,-628.02 1168.81,-635.79 1172.09,-629.61"/>
<text text-anchor="start" x="1490.5" y="-696.8" font-family="arial" font-size="14.00" fill="#377eb8">true</text>
</g>
<!-- ID_38_ct0_st01234&#45;&gt;ID_38_ct0_st0124 -->
<g id="edge70" class="edge">
<title>ID_38_ct0_st01234&#45;&gt;ID_38_ct0_st0124</title>
<path fill="none" stroke="black" d="M1778.88,-675.82C1777.16,-674.3 1775.53,-672.7 1774,-671 1751.67,-646.14 1775.91,-624.84 1756,-598 1734.75,-569.35 1720.9,-568.09 1687,-557 1442.69,-477.07 1133.54,-518.45 980.96,-547.52"/>
<polygon fill="black" stroke="black" points="980.3,-544.09 971.14,-549.42 981.62,-550.96 980.3,-544.09"/>
<text text-anchor="start" x="1363.5" y="-518.8" font-family="arial" font-size="14.00" fill="#377eb8">true</text>
</g>
<!-- ID_38_ct0_st02&#45;&gt;ID_38_ct0_st0 -->
<g id="edge9" class="edge">
<title>ID_38_ct0_st02&#45;&gt;ID_38_ct0_st0</title>
<path fill="none" stroke="black" d="M1581.71,-865.03C1568.63,-876.43 1554.73,-890.95 1546,-907 1526.08,-943.59 1548.03,-962.46 1528,-999 1453.05,-1135.73 1417.62,-1180.28 1274,-1241 1062.82,-1330.29 987.78,-1261 758.5,-1261 394.5,-1261 394.5,-1261 394.5,-1261 303.45,-1261 247.18,-1146.98 224.1,-1087.78"/>
<polygon fill="black" stroke="black" points="227.25,-1086.2 220.43,-1078.09 220.7,-1088.68 227.25,-1086.2"/>
<text text-anchor="start" x="878.5" y="-1281.8" font-family="arial" font-size="14.00" fill="#377eb8">Q&#39;</text>
</g>
<!-- ID_38_ct0_st02&#45;&gt;ID_38_ct0_st012 -->
<g id="edge13" class="edge">
<title>ID_38_ct0_st02&#45;&gt;ID_38_ct0_st012</title>
<path fill="none" stroke="black" d="M1552.99,-858.28C1544.61,-860.61 1536.11,-862.91 1528,-865 1414.27,-894.37 1129.53,-969.27 1013,-984 816.58,-1008.82 582.25,-1005.61 467.27,-1001.91"/>
<polygon fill="black" stroke="black" points="467.3,-998.41 457.18,-1001.58 467.06,-1005.41 467.3,-998.41"/>
<text text-anchor="start" x="989" y="-989.8" font-family="arial" font-size="14.00" fill="#377eb8">true</text>
</g>
<!-- ID_38_ct0_st02&#45;&gt;ID_38_ct0_st0123 -->
<g id="edge14" class="edge">
<title>ID_38_ct0_st02&#45;&gt;ID_38_ct0_st0123</title>
<path fill="none" stroke="black" d="M1680.22,-841.06C1750.54,-839.11 1864.7,-826.17 1941,-768 2009.36,-715.88 2051.39,-620.13 2070.08,-568.75"/>
<polygon fill="black" stroke="black" points="2073.46,-569.69 2073.5,-559.09 2066.86,-567.35 2073.46,-569.69"/>
<text text-anchor="start" x="1845.5" y="-835.8" font-family="arial" font-size="14.00" fill="#377eb8">true</text>
</g>
<!-- ID_38_ct0_st02&#45;&gt;ID_38_ct0_st01234 -->
<g id="edge15" class="edge">
<title>ID_38_ct0_st02&#45;&gt;ID_38_ct0_st01234</title>
<path fill="none" stroke="black" d="M1649,-814.93C1665.26,-802.51 1685.69,-787.72 1705,-776 1732.39,-759.38 1763.96,-743.29 1791.18,-730.31"/>
<polygon fill="black" stroke="black" points="1792.68,-733.47 1800.23,-726.03 1789.69,-727.14 1792.68,-733.47"/>
<text text-anchor="start" x="1718.5" y="-779.8" font-family="arial" font-size="14.00" fill="#377eb8">true</text>
</g>
<!-- ID_38_ct0_st02&#45;&gt;ID_38_ct0_st02 -->
<g id="edge10" class="edge">
<title>ID_38_ct0_st02&#45;&gt;ID_38_ct0_st02</title>
<path fill="none" stroke="black" d="M1595.21,-865.18C1594.26,-874.91 1601.36,-883 1616.5,-883 1625.96,-883 1632.28,-879.84 1635.46,-875.09"/>
<polygon fill="black" stroke="black" points="1638.91,-875.71 1637.79,-865.18 1632.1,-874.11 1638.91,-875.71"/>
<text text-anchor="start" x="1604.5" y="-886.8" font-family="arial" font-size="14.00" fill="#377eb8">true</text>
</g>
<!-- ID_38_ct0_st02&#45;&gt;ID_38_ct0_st023 -->
<g id="edge11" class="edge">
<title>ID_38_ct0_st02&#45;&gt;ID_38_ct0_st023</title>
<path fill="none" stroke="black" d="M1582.98,-865.25C1569.95,-876.78 1555.75,-891.35 1546,-907 1532.17,-929.19 1547.52,-945.61 1528,-963 1518.41,-971.54 1494.8,-977.89 1468.99,-982.49"/>
<polygon fill="black" stroke="black" points="1468.3,-979.06 1459.02,-984.17 1469.46,-985.96 1468.3,-979.06"/>
<text text-anchor="start" x="1490.5" y="-983.8" font-family="arial" font-size="14.00" fill="#377eb8">true</text>
</g>
<!-- ID_38_ct0_st02&#45;&gt;ID_38_ct0_st0234 -->
<g id="edge12" class="edge">
<title>ID_38_ct0_st02&#45;&gt;ID_38_ct0_st0234</title>
<path fill="none" stroke="black" d="M1553,-844.57C1484.9,-846.8 1374.64,-842.24 1292,-799 1281.4,-793.46 1283.7,-785.99 1274,-779 1246.86,-759.46 1236.99,-758.73 1205,-749 1159.77,-735.24 875.73,-685.88 724.5,-660.03"/>
<polygon fill="black" stroke="black" points="724.74,-656.52 714.29,-658.29 723.56,-663.42 724.74,-656.52"/>
<text text-anchor="start" x="1106" y="-752.8" font-family="arial" font-size="14.00" fill="#377eb8">true</text>
</g>
<!-- ID_38_ct0_st023&#45;&gt;ID_38_ct0_st0 -->
<g id="edge23" class="edge">
<title>ID_38_ct0_st023&#45;&gt;ID_38_ct0_st0</title>
<path fill="none" stroke="black" d="M1353.29,-1018.33C1336.52,-1038.46 1312.58,-1067.39 1292,-1093 1255.52,-1138.4 1253.23,-1158.34 1205,-1191 1035.51,-1305.78 963.2,-1304 758.5,-1304 394.5,-1304 394.5,-1304 394.5,-1304 347.16,-1304 326.63,-1307.28 292,-1275 238.68,-1225.29 220.83,-1137.43 214.9,-1088.47"/>
<polygon fill="black" stroke="black" points="218.36,-1087.9 213.78,-1078.35 211.41,-1088.67 218.36,-1087.9"/>
<text text-anchor="start" x="750" y="-1307.8" font-family="arial" font-size="14.00" fill="#377eb8">Q&#39;</text>
</g>
<!-- ID_38_ct0_st023&#45;&gt;ID_38_ct0_st012 -->
<g id="edge28" class="edge">
<title>ID_38_ct0_st023&#45;&gt;ID_38_ct0_st012</title>
<path fill="none" stroke="black" d="M1339.3,-1018.14C1320.68,-1030.35 1296.97,-1044.23 1274,-1053 1208.45,-1078.03 1189.17,-1083 1119,-1083 628,-1083 628,-1083 628,-1083 558.53,-1083 539.11,-1077.77 475,-1051 461.89,-1045.52 448.64,-1037.77 436.84,-1029.92"/>
<polygon fill="black" stroke="black" points="438.76,-1027 428.54,-1024.22 434.8,-1032.77 438.76,-1027"/>
<text text-anchor="start" x="860.5" y="-1086.8" font-family="arial" font-size="14.00" fill="#377eb8">(Q&#39; || S&#39;)</text>
</g>
<!-- ID_38_ct0_st023&#45;&gt;ID_38_ct0_st0123 -->
<g id="edge30" class="edge">
<title>ID_38_ct0_st023&#45;&gt;ID_38_ct0_st0123</title>
<path fill="none" stroke="black" d="M1402.46,-1018.03C1421.57,-1035.03 1449,-1056.6 1477,-1069 1590.84,-1119.41 1657.27,-1119.84 1756,-1044 1850.23,-971.62 1874.82,-949.69 1941,-851 2004.07,-756.95 2050.32,-629.95 2070.41,-569.21"/>
<polygon fill="black" stroke="black" points="2073.85,-569.94 2073.63,-559.35 2067.19,-567.77 2073.85,-569.94"/>
<text text-anchor="start" x="1718.5" y="-1080.8" font-family="arial" font-size="14.00" fill="#377eb8">true</text>
</g>
<!-- ID_38_ct0_st023&#45;&gt;ID_38_ct0_st01234 -->
<g id="edge31" class="edge">
<title>ID_38_ct0_st023&#45;&gt;ID_38_ct0_st01234</title>
<path fill="none" stroke="black" d="M1409.86,-1018.2C1428.54,-1030.73 1452.87,-1044.54 1477,-1051 1561.75,-1073.7 1694.48,-1068.57 1756,-1016 1839.92,-944.29 1854.47,-802.58 1856.52,-736.49"/>
<polygon fill="black" stroke="black" points="1860.02,-736.26 1856.75,-726.18 1853.02,-736.1 1860.02,-736.26"/>
<text text-anchor="start" x="1604.5" y="-1066.8" font-family="arial" font-size="14.00" fill="#377eb8">true</text>
</g>
<!-- ID_38_ct0_st023&#45;&gt;ID_38_ct0_st02 -->
<g id="edge24" class="edge">
<title>ID_38_ct0_st023&#45;&gt;ID_38_ct0_st02</title>
<path fill="none" stroke="black" d="M1430.89,-967.91C1440.31,-963.38 1449.98,-958.63 1459,-954 1467.14,-949.82 1468.69,-947.83 1477,-944 1498.97,-933.88 1507.65,-938.07 1528,-925 1537.52,-918.89 1537.93,-914.93 1546,-907 1557.67,-895.54 1570.55,-883.08 1582.01,-872.04"/>
<polygon fill="black" stroke="black" points="1584.53,-874.48 1589.32,-865.02 1579.68,-869.43 1584.53,-874.48"/>
<text text-anchor="start" x="1477" y="-947.8" font-family="arial" font-size="14.00" fill="#377eb8">(Q&#39; || S&#39;)</text>
</g>
<!-- ID_38_ct0_st023&#45;&gt;ID_38_ct0_st023 -->
<g id="edge26" class="edge">
<title>ID_38_ct0_st023&#45;&gt;ID_38_ct0_st023</title>
<path fill="none" stroke="black" d="M1351.97,-1018.18C1350.92,-1027.91 1358.77,-1036 1375.5,-1036 1385.96,-1036 1392.95,-1032.84 1396.46,-1028.09"/>
<polygon fill="black" stroke="black" points="1399.91,-1028.73 1399.03,-1018.18 1393.13,-1026.98 1399.91,-1028.73"/>
<text text-anchor="start" x="1363.5" y="-1039.8" font-family="arial" font-size="14.00" fill="#377eb8">true</text>
</g>
<!-- ID_38_ct0_st023&#45;&gt;ID_38_ct0_st0234 -->
<g id="edge27" class="edge">
<title>ID_38_ct0_st023&#45;&gt;ID_38_ct0_st0234</title>
<path fill="none" stroke="black" d="M1314.31,-967.94C1301.18,-963.13 1287.26,-958.5 1274,-955 1155.05,-923.57 813.94,-933.78 732,-842 691.69,-796.85 744.6,-759.23 714,-707 706.81,-694.72 696.19,-684.08 684.91,-675.21"/>
<polygon fill="black" stroke="black" points="686.74,-672.2 676.62,-669.06 682.57,-677.83 686.74,-672.2"/>
<text text-anchor="start" x="989" y="-927.8" font-family="arial" font-size="14.00" fill="#377eb8">true</text>
</g>
<!-- ID_38_ct0_st023&#45;&gt;ID_38_ct0_st024 -->
<g id="edge25" class="edge">
<title>ID_38_ct0_st023&#45;&gt;ID_38_ct0_st024</title>
<path fill="none" stroke="black" d="M1360.56,-967.93C1341.78,-934.53 1306.89,-873.87 1274,-824 1252.81,-791.87 1242.18,-787.37 1223,-754 1213.08,-736.75 1215.21,-730.08 1205,-713 1188.57,-685.51 1166.19,-657.09 1148.38,-636.03"/>
<polygon fill="black" stroke="black" points="1150.96,-633.66 1141.8,-628.34 1145.64,-638.21 1150.96,-633.66"/>
<text text-anchor="start" x="1236.5" y="-827.8" font-family="arial" font-size="14.00" fill="#377eb8">true</text>
</g>
<!-- ID_38_ct0_st023&#45;&gt;ID_38_ct0_st0124 -->
<g id="edge29" class="edge">
<title>ID_38_ct0_st023&#45;&gt;ID_38_ct0_st0124</title>
<path fill="none" stroke="black" d="M1337.7,-967.77C1319.07,-955.55 1295.82,-941.16 1274,-930 1244.53,-914.93 1236.53,-912.05 1205,-902 1111.02,-872.03 1053.32,-925.79 989,-851 957.02,-813.81 994.71,-673.94 971,-631 964.19,-618.67 953.85,-608.05 942.71,-599.22"/>
<polygon fill="black" stroke="black" points="944.62,-596.28 934.51,-593.11 940.44,-601.89 944.62,-596.28"/>
<text text-anchor="start" x="1106" y="-905.8" font-family="arial" font-size="14.00" fill="#377eb8">true</text>
</g>
<!-- ID_38_ct0_st0234&#45;&gt;ID_38_ct0_st012 -->
<g id="edge61" class="edge">
<title>ID_38_ct0_st0234&#45;&gt;ID_38_ct0_st012</title>
<path fill="none" stroke="black" d="M543.88,-650.84C518.81,-656.8 493.2,-667.39 475,-686 436.36,-725.51 410.65,-890.03 400.89,-963.41"/>
<polygon fill="black" stroke="black" points="397.39,-963.18 399.57,-973.54 404.34,-964.08 397.39,-963.18"/>
<text text-anchor="start" x="475" y="-689.8" font-family="arial" font-size="14.00" fill="#377eb8">(Q&#39; || S&#39;)</text>
</g>
<!-- ID_38_ct0_st0234&#45;&gt;ID_38_ct0_st0123 -->
<g id="edge63" class="edge">
<title>ID_38_ct0_st0234&#45;&gt;ID_38_ct0_st0123</title>
<path fill="none" stroke="black" d="M633.74,-618.75C648.18,-531.79 708.6,-250 885,-250 885,-250 885,-250 1858.5,-250 1917.96,-250 1941.96,-255.97 1983,-299 2037.72,-356.39 2064.1,-448.62 2075,-498.77"/>
<polygon fill="black" stroke="black" points="2071.63,-499.73 2077.1,-508.81 2078.48,-498.3 2071.63,-499.73"/>
<text text-anchor="start" x="1363.5" y="-253.8" font-family="arial" font-size="14.00" fill="#377eb8">true</text>
</g>
<!-- ID_38_ct0_st0234&#45;&gt;ID_38_ct0_st01234 -->
<g id="edge64" class="edge">
<title>ID_38_ct0_st0234&#45;&gt;ID_38_ct0_st01234</title>
<path fill="none" stroke="black" d="M645.34,-618.74C663.07,-591.53 694.65,-548.69 732,-523 758.75,-504.6 769.02,-504.6 801,-499 1008.09,-462.75 1063.88,-487.14 1274,-494 1457.85,-500 1510.44,-469.4 1687,-521 1720.6,-530.82 1735.85,-530.37 1756,-559 1783.21,-597.65 1746.99,-628.11 1772.69,-667.9"/>
<polygon fill="black" stroke="black" points="1769.92,-670.04 1778.69,-675.98 1775.54,-665.87 1769.92,-670.04"/>
<text text-anchor="start" x="1236.5" y="-497.8" font-family="arial" font-size="14.00" fill="#377eb8">true</text>
</g>
<!-- ID_38_ct0_st0234&#45;&gt;ID_38_ct0_st02 -->
<g id="edge57" class="edge">
<title>ID_38_ct0_st0234&#45;&gt;ID_38_ct0_st02</title>
<path fill="none" stroke="black" d="M699.47,-669.01C730.37,-679.76 767.32,-692.1 801,-702 902.57,-731.87 927.13,-743.53 1031,-764 1107.48,-779.07 1128.46,-771.24 1205,-786 1236.12,-792 1248.77,-784.82 1274,-804 1286.68,-813.64 1278.53,-826.5 1292,-835 1361.77,-879.02 1394.58,-846.66 1477,-850 1499.65,-850.92 1505.37,-851.29 1528,-850 1532.8,-849.73 1537.75,-849.37 1542.73,-848.95"/>
<polygon fill="black" stroke="black" points="1543.32,-852.41 1552.96,-848.02 1542.68,-845.44 1543.32,-852.41"/>
<text text-anchor="start" x="1092.5" y="-789.8" font-family="arial" font-size="14.00" fill="#377eb8">(Q&#39; || S&#39;)</text>
</g>
<!-- ID_38_ct0_st0234&#45;&gt;ID_38_ct0_st023 -->
<g id="edge59" class="edge">
<title>ID_38_ct0_st0234&#45;&gt;ID_38_ct0_st023</title>
<path fill="none" stroke="black" d="M677.27,-669.25C691.36,-679.13 705.34,-691.79 714,-707 750.72,-771.49 692.53,-810.15 732,-873 751.22,-903.6 767.06,-903.61 801,-916 962.91,-975.1 1165.4,-989.57 1281.34,-992.68"/>
<polygon fill="black" stroke="black" points="1281.52,-996.19 1291.6,-992.93 1281.69,-989.19 1281.52,-996.19"/>
<text text-anchor="start" x="989" y="-970.8" font-family="arial" font-size="14.00" fill="#377eb8">true</text>
</g>
<!-- ID_38_ct0_st0234&#45;&gt;ID_38_ct0_st0234 -->
<g id="edge60" class="edge">
<title>ID_38_ct0_st0234&#45;&gt;ID_38_ct0_st0234</title>
<path fill="none" stroke="black" d="M605.09,-669.18C604.03,-678.91 612,-687 629,-687 639.62,-687 646.72,-683.84 650.29,-679.09"/>
<polygon fill="black" stroke="black" points="653.74,-679.74 652.91,-669.18 646.97,-677.95 653.74,-679.74"/>
<text text-anchor="start" x="617" y="-690.8" font-family="arial" font-size="14.00" fill="#377eb8">true</text>
</g>
<!-- ID_38_ct0_st0234&#45;&gt;ID_38_ct0_st024 -->
<g id="edge58" class="edge">
<title>ID_38_ct0_st0234&#45;&gt;ID_38_ct0_st024</title>
<path fill="none" stroke="black" d="M653.73,-618.8C684.35,-588.31 740.87,-538.63 801,-519 872.82,-495.55 898,-499.5 971,-519 1009.66,-529.33 1048.71,-552.62 1076.68,-572.06"/>
<polygon fill="black" stroke="black" points="1074.81,-575.02 1084.99,-577.95 1078.86,-569.31 1074.81,-575.02"/>
<text text-anchor="start" x="874" y="-522.8" font-family="arial" font-size="14.00" fill="#377eb8">true</text>
</g>
<!-- ID_38_ct0_st0234&#45;&gt;ID_38_ct0_st0124 -->
<g id="edge62" class="edge">
<title>ID_38_ct0_st0234&#45;&gt;ID_38_ct0_st0124</title>
<path fill="none" stroke="black" d="M714.13,-623.35C736.61,-617.47 760.82,-610.8 783,-604 790.72,-601.63 798.73,-599.04 806.71,-596.38"/>
<polygon fill="black" stroke="black" points="808.05,-599.62 816.4,-593.09 805.81,-592.99 808.05,-599.62"/>
<text text-anchor="start" x="745.5" y="-622.8" font-family="arial" font-size="14.00" fill="#377eb8">true</text>
</g>
<!-- ID_38_ct0_st024&#45;&gt;ID_38_ct0_st012 -->
<g id="edge45" class="edge">
<title>ID_38_ct0_st024&#45;&gt;ID_38_ct0_st012</title>
<path fill="none" stroke="black" d="M1071.12,-628.22C944.1,-698.03 588.2,-893.64 451.21,-968.93"/>
<polygon fill="black" stroke="black" points="449.19,-966.04 442.12,-973.93 452.57,-972.18 449.19,-966.04"/>
<text text-anchor="start" x="732" y="-814.8" font-family="arial" font-size="14.00" fill="#377eb8">(Q&#39; || S&#39;)</text>
</g>
<!-- ID_38_ct0_st024&#45;&gt;ID_38_ct0_st0123 -->
<g id="edge47" class="edge">
<title>ID_38_ct0_st024&#45;&gt;ID_38_ct0_st0123</title>
<path fill="none" stroke="black" d="M1205.25,-607.47C1211.26,-607.68 1217.22,-607.86 1223,-608 1245.66,-608.54 1251.34,-608.49 1274,-608 1589.88,-601.12 1671.44,-608.54 1983,-556 1985.53,-555.57 1988.1,-555.12 1990.68,-554.65"/>
<polygon fill="black" stroke="black" points="1991.56,-558.05 2000.74,-552.76 1990.26,-551.17 1991.56,-558.05"/>
<text text-anchor="start" x="1604.5" y="-606.8" font-family="arial" font-size="14.00" fill="#377eb8">true</text>
</g>
<!-- ID_38_ct0_st024&#45;&gt;ID_38_ct0_st01234 -->
<g id="edge48" class="edge">
<title>ID_38_ct0_st024&#45;&gt;ID_38_ct0_st01234</title>
<path fill="none" stroke="black" d="M1188.64,-628.07C1200.01,-631.49 1211.75,-634.64 1223,-637 1356.3,-665 1392.46,-653.5 1528,-667 1629.35,-677.1 1654.71,-679.35 1756,-690 1758.56,-690.27 1761.15,-690.54 1763.77,-690.82"/>
<polygon fill="black" stroke="black" points="1763.65,-694.33 1773.96,-691.91 1764.39,-687.37 1763.65,-694.33"/>
<text text-anchor="start" x="1490.5" y="-670.8" font-family="arial" font-size="14.00" fill="#377eb8">true</text>
</g>
<!-- ID_38_ct0_st024&#45;&gt;ID_38_ct0_st02 -->
<g id="edge41" class="edge">
<title>ID_38_ct0_st024&#45;&gt;ID_38_ct0_st02</title>
<path fill="none" stroke="black" d="M1148.75,-628.17C1176.53,-651.54 1214.91,-683.41 1223,-688 1251.36,-704.11 1260.84,-703.35 1292,-713 1395.49,-745.04 1430.43,-726.92 1528,-774 1546.51,-782.93 1564.97,-796.07 1580.14,-808.28"/>
<polygon fill="black" stroke="black" points="1578.26,-811.27 1588.2,-814.94 1582.72,-805.87 1578.26,-811.27"/>
<text text-anchor="start" x="1350" y="-751.8" font-family="arial" font-size="14.00" fill="#377eb8">(Q&#39; || S&#39;)</text>
</g>
<!-- ID_38_ct0_st024&#45;&gt;ID_38_ct0_st023 -->
<g id="edge43" class="edge">
<title>ID_38_ct0_st024&#45;&gt;ID_38_ct0_st023</title>
<path fill="none" stroke="black" d="M1144.9,-628.01C1164.75,-648.81 1191.03,-680.22 1205,-713 1227.17,-765.04 1189.01,-793.78 1223,-839 1237.94,-858.88 1254.51,-846.56 1274,-862 1308.21,-889.1 1337.27,-930.3 1355.21,-959.25"/>
<polygon fill="black" stroke="black" points="1352.23,-961.08 1360.42,-967.81 1358.21,-957.44 1352.23,-961.08"/>
<text text-anchor="start" x="1236.5" y="-865.8" font-family="arial" font-size="14.00" fill="#377eb8">true</text>
</g>
<!-- ID_38_ct0_st024&#45;&gt;ID_38_ct0_st0234 -->
<g id="edge44" class="edge">
<title>ID_38_ct0_st024&#45;&gt;ID_38_ct0_st0234</title>
<path fill="none" stroke="black" d="M1031,-624.68C1011.4,-628.83 990.58,-632.62 971,-635 888.1,-645.09 793.07,-646.79 724.42,-646.29"/>
<polygon fill="black" stroke="black" points="724.09,-642.79 714.06,-646.19 724.03,-649.79 724.09,-642.79"/>
<text text-anchor="start" x="874" y="-649.8" font-family="arial" font-size="14.00" fill="#377eb8">true</text>
</g>
<!-- ID_38_ct0_st024&#45;&gt;ID_38_ct0_st024 -->
<g id="edge42" class="edge">
<title>ID_38_ct0_st024&#45;&gt;ID_38_ct0_st024</title>
<path fill="none" stroke="black" d="M1096.33,-628.18C1095.37,-637.91 1102.59,-646 1118,-646 1127.63,-646 1134.06,-642.84 1137.3,-638.09"/>
<polygon fill="black" stroke="black" points="1140.75,-638.72 1139.67,-628.18 1133.94,-637.09 1140.75,-638.72"/>
<text text-anchor="start" x="1106" y="-649.8" font-family="arial" font-size="14.00" fill="#377eb8">true</text>
</g>
<!-- ID_38_ct0_st024&#45;&gt;ID_38_ct0_st0124 -->
<g id="edge46" class="edge">
<title>ID_38_ct0_st024&#45;&gt;ID_38_ct0_st0124</title>
<path fill="none" stroke="black" d="M1030.74,-596.44C1016.75,-594.94 1002.45,-593.14 989,-591 986.45,-590.59 983.87,-590.16 981.27,-589.71"/>
<polygon fill="black" stroke="black" points="981.63,-586.22 971.16,-587.86 980.37,-593.1 981.63,-586.22"/>
<text text-anchor="start" x="989" y="-597.8" font-family="arial" font-size="14.00" fill="#377eb8">true</text>
</g>
<!-- ID_38_ct0_st0124&#45;&gt;ID_38_ct0_st012 -->
<g id="edge53" class="edge">
<title>ID_38_ct0_st0124&#45;&gt;ID_38_ct0_st012</title>
<path fill="none" stroke="black" d="M849.66,-593.29C834.42,-604.5 816.56,-618.07 801,-631 760.6,-664.58 758.08,-682.42 714,-711 616.95,-773.92 556.56,-731.98 475,-814 433.38,-855.85 412.49,-923.17 403.1,-964.03"/>
<polygon fill="black" stroke="black" points="399.68,-963.3 400.96,-973.81 406.52,-964.8 399.68,-963.3"/>
<text text-anchor="start" x="603.5" y="-771.8" font-family="arial" font-size="14.00" fill="#377eb8">(Q&#39; || S&#39;)</text>
</g>
<!-- ID_38_ct0_st0124&#45;&gt;ID_38_ct0_st0123 -->
<g id="edge55" class="edge">
<title>ID_38_ct0_st0124&#45;&gt;ID_38_ct0_st0123</title>
<path fill="none" stroke="black" d="M958.16,-542.95C962.51,-541.31 966.82,-539.65 971,-538 1084.52,-493.23 1104.18,-456.78 1223,-429 1453.67,-375.07 1523.2,-387.17 1756,-431 1844.79,-447.71 1943.24,-481.04 2008.37,-505.27"/>
<polygon fill="black" stroke="black" points="2007.54,-508.7 2018.13,-508.93 2009.99,-502.14 2007.54,-508.7"/>
<text text-anchor="start" x="1490.5" y="-399.8" font-family="arial" font-size="14.00" fill="#377eb8">true</text>
</g>
<!-- ID_38_ct0_st0124&#45;&gt;ID_38_ct0_st01234 -->
<g id="edge56" class="edge">
<title>ID_38_ct0_st0124&#45;&gt;ID_38_ct0_st01234</title>
<path fill="none" stroke="black" d="M971.34,-563.07C1149.81,-553.84 1559.74,-539.32 1687,-592 1735.26,-611.98 1729.28,-644.01 1774,-671 1774.09,-671.05 1774.18,-671.11 1774.27,-671.16"/>
<polygon fill="black" stroke="black" points="1772.48,-674.17 1782.92,-675.97 1775.88,-668.05 1772.48,-674.17"/>
<text text-anchor="start" x="1363.5" y="-561.8" font-family="arial" font-size="14.00" fill="#377eb8">true</text>
</g>
<!-- ID_38_ct0_st0124&#45;&gt;ID_38_ct0_st02 -->
<g id="edge49" class="edge">
<title>ID_38_ct0_st0124&#45;&gt;ID_38_ct0_st02</title>
<path fill="none" stroke="black" d="M921.17,-593.22C959.89,-621.63 1019.2,-664.6 1031,-670 1103.43,-703.16 1128.49,-690.83 1205,-713 1236.05,-722 1248.93,-715.59 1274,-736 1286.36,-746.06 1279,-757.79 1292,-767 1379.12,-828.74 1424.52,-785.68 1528,-812 1532.9,-813.25 1537.92,-814.61 1542.97,-816.05"/>
<polygon fill="black" stroke="black" points="1542.1,-819.44 1552.68,-818.89 1544.06,-812.72 1542.1,-819.44"/>
<text text-anchor="start" x="1223" y="-739.8" font-family="arial" font-size="14.00" fill="#377eb8">(Q&#39; || S&#39;)</text>
</g>
<!-- ID_38_ct0_st0124&#45;&gt;ID_38_ct0_st023 -->
<g id="edge51" class="edge">
<title>ID_38_ct0_st0124&#45;&gt;ID_38_ct0_st023</title>
<path fill="none" stroke="black" d="M931.71,-593.1C946.13,-603.18 960.97,-616 971,-631 988.86,-657.7 978.96,-670.48 989,-701 1004.57,-748.35 994.94,-770.58 1031,-805 1090.28,-861.58 1130.96,-830.88 1205,-866 1213.47,-870.02 1214.89,-872.3 1223,-877 1245.37,-889.97 1252.81,-890.17 1274,-905 1297.88,-921.71 1322.54,-943.23 1341.45,-960.8"/>
<polygon fill="black" stroke="black" points="1339.24,-963.52 1348.92,-967.81 1344.03,-958.42 1339.24,-963.52"/>
<text text-anchor="start" x="1106" y="-869.8" font-family="arial" font-size="14.00" fill="#377eb8">true</text>
</g>
<!-- ID_38_ct0_st0124&#45;&gt;ID_38_ct0_st0234 -->
<g id="edge52" class="edge">
<title>ID_38_ct0_st0124&#45;&gt;ID_38_ct0_st0234</title>
<path fill="none" stroke="black" d="M800.8,-574.07C778.09,-577.18 753.79,-581.89 732,-589 713.44,-595.06 694.3,-604.42 677.68,-613.72"/>
<polygon fill="black" stroke="black" points="675.66,-610.85 668.73,-618.86 679.14,-616.92 675.66,-610.85"/>
<text text-anchor="start" x="745.5" y="-592.8" font-family="arial" font-size="14.00" fill="#377eb8">true</text>
</g>
<!-- ID_38_ct0_st0124&#45;&gt;ID_38_ct0_st024 -->
<g id="edge50" class="edge">
<title>ID_38_ct0_st0124&#45;&gt;ID_38_ct0_st024</title>
<path fill="none" stroke="black" d="M971.33,-567.67C985.31,-568.47 999.61,-569.83 1013,-572 1018.9,-572.96 1024.93,-574.15 1030.97,-575.51"/>
<polygon fill="black" stroke="black" points="1030.59,-579.02 1041.13,-577.94 1032.22,-572.21 1030.59,-579.02"/>
<text text-anchor="start" x="989" y="-575.8" font-family="arial" font-size="14.00" fill="#377eb8">true</text>
</g>
<!-- ID_38_ct0_st0124&#45;&gt;ID_38_ct0_st0124 -->
<g id="edge54" class="edge">
<title>ID_38_ct0_st0124&#45;&gt;ID_38_ct0_st0124</title>
<path fill="none" stroke="black" d="M864.71,-593.18C863.76,-602.91 870.86,-611 886,-611 895.46,-611 901.78,-607.84 904.96,-603.09"/>
<polygon fill="black" stroke="black" points="908.41,-603.71 907.29,-593.18 901.6,-602.11 908.41,-603.71"/>
<text text-anchor="start" x="874" y="-614.8" font-family="arial" font-size="14.00" fill="#377eb8">true</text>
</g>
</g>
</svg>
