<?xml version="1.0" encoding="UTF-8" standalone="no"?>
<!DOCTYPE svg PUBLIC "-//W3C//DTD SVG 1.1//EN"
 "http://www.w3.org/Graphics/SVG/1.1/DTD/svg11.dtd">
<!-- Generated by graphviz version 2.43.0 (0)
 -->
<!-- Title: G Pages: 1 -->
<svg width="1671pt" height="746pt"
 viewBox="0.00 0.00 1671.00 746.00" xmlns="http://www.w3.org/2000/svg" xmlns:xlink="http://www.w3.org/1999/xlink">
<g id="graph0" class="graph" transform="scale(1 1) rotate(0) translate(4 742)">
<title>G</title>
<polygon fill="white" stroke="transparent" points="-4,4 -4,-742 1667,-742 1667,4 -4,4"/>
<!-- _ID_27_ct1_stinit -->
<!-- ID_27_ct1_stinit -->
<g id="node2" class="node">
<title>ID_27_ct1_stinit</title>
<polygon fill="none" stroke="black" points="1501,-705 1382,-705 1382,-655 1501,-655 1501,-705"/>
<text text-anchor="start" x="1390" y="-690.8" font-family="arial" font-weight="bold" font-size="14.00">ID_27_ct1_stinit</text>
<text text-anchor="start" x="1436.5" y="-676.8" font-family="arial" font-size="14.00" fill="#984ea3">P</text>
<text text-anchor="start" x="1429.5" y="-662.8" font-family="arial" font-size="14.00" fill="#ff7f00">true</text>
</g>
<!-- _ID_27_ct1_stinit&#45;&gt;ID_27_ct1_stinit -->
<g id="edge1" class="edge">
<title>_ID_27_ct1_stinit&#45;&gt;ID_27_ct1_stinit</title>
<path fill="none" stroke="black" d="M1216.78,-680C1262.03,-680 1324.26,-680 1371.61,-680"/>
<polygon fill="black" stroke="black" points="1371.78,-683.5 1381.78,-680 1371.78,-676.5 1371.78,-683.5"/>
</g>
<!-- ID_27_ct1_stinit&#45;&gt;ID_27_ct1_stinit -->
<g id="edge6" class="edge">
<title>ID_27_ct1_stinit&#45;&gt;ID_27_ct1_stinit</title>
<path fill="none" stroke="black" d="M1424.32,-705.18C1423.55,-714.91 1429.28,-723 1441.5,-723 1449.14,-723 1454.24,-719.84 1456.8,-715.09"/>
<polygon fill="black" stroke="black" points="1460.26,-715.65 1458.68,-705.18 1453.38,-714.35 1460.26,-715.65"/>
<text text-anchor="start" x="1429.5" y="-726.8" font-family="arial" font-size="14.00" fill="#377eb8">true</text>
</g>
<!-- ID_27_ct1_st -->
<g id="node9" class="node">
<title>ID_27_ct1_st</title>
<polygon fill="none" stroke="black" points="1663,-524 1564,-524 1564,-474 1663,-474 1663,-524"/>
<text text-anchor="start" x="1572" y="-509.8" font-family="arial" font-weight="bold" font-size="14.00">ID_27_ct1_st</text>
<text text-anchor="start" x="1601.5" y="-495.8" font-family="arial" font-size="14.00" fill="#984ea3">true</text>
<text text-anchor="start" x="1601.5" y="-481.8" font-family="arial" font-size="14.00" fill="#ff7f00">true</text>
</g>
<!-- ID_27_ct1_stinit&#45;&gt;ID_27_ct1_st -->
<g id="edge5" class="edge">
<title>ID_27_ct1_stinit&#45;&gt;ID_27_ct1_st</title>
<path fill="none" stroke="black" d="M1501.15,-666.68C1517.12,-660.86 1533.46,-652.61 1546,-641 1577.19,-612.14 1595.07,-565.68 1604.27,-533.81"/>
<polygon fill="black" stroke="black" points="1607.69,-534.58 1606.96,-524.01 1600.94,-532.73 1607.69,-534.58"/>
<text text-anchor="start" x="1522" y="-659.8" font-family="arial" font-size="14.00" fill="#377eb8">true</text>
</g>
<!-- _ID_27_ct1_st0 -->
<!-- ID_27_ct1_st0 -->
<g id="node4" class="node">
<title>ID_27_ct1_st0</title>
<polygon fill="none" stroke="black" points="261,-383 154,-383 154,-333 261,-333 261,-383"/>
<text text-anchor="start" x="162" y="-368.8" font-family="arial" font-weight="bold" font-size="14.00">ID_27_ct1_st0</text>
<text text-anchor="start" x="177" y="-354.8" font-family="arial" font-size="14.00" fill="#984ea3">(!P &amp;&amp; !R)</text>
<text text-anchor="start" x="195.5" y="-340.8" font-family="arial" font-size="14.00" fill="#ff7f00">true</text>
</g>
<!-- _ID_27_ct1_st0&#45;&gt;ID_27_ct1_st0 -->
<g id="edge2" class="edge">
<title>_ID_27_ct1_st0&#45;&gt;ID_27_ct1_st0</title>
<path fill="none" stroke="black" d="M111.08,-358C121.62,-358 132.74,-358 143.52,-358"/>
<polygon fill="black" stroke="black" points="143.72,-361.5 153.72,-358 143.72,-354.5 143.72,-361.5"/>
</g>
<!-- ID_27_ct1_st0&#45;&gt;ID_27_ct1_st0 -->
<g id="edge9" class="edge">
<title>ID_27_ct1_st0&#45;&gt;ID_27_ct1_st0</title>
<path fill="none" stroke="black" d="M192.93,-383.18C192.28,-392.91 197.14,-401 207.5,-401 213.97,-401 218.3,-397.84 220.47,-393.09"/>
<polygon fill="black" stroke="black" points="223.94,-393.6 222.07,-383.18 217.03,-392.49 223.94,-393.6"/>
<text text-anchor="start" x="195.5" y="-404.8" font-family="arial" font-size="14.00" fill="#377eb8">true</text>
</g>
<!-- ID_27_ct1_st01 -->
<g id="node6" class="node">
<title>ID_27_ct1_st01</title>
<polygon fill="none" stroke="black" points="448.5,-228 331.5,-228 331.5,-178 448.5,-178 448.5,-228"/>
<text text-anchor="start" x="341" y="-213.8" font-family="arial" font-weight="bold" font-size="14.00">ID_27_ct1_st01</text>
<text text-anchor="start" x="339.5" y="-199.8" font-family="arial" font-size="14.00" fill="#984ea3">(!P &amp;&amp; (R &amp;&amp; S))</text>
<text text-anchor="start" x="378" y="-185.8" font-family="arial" font-size="14.00" fill="#ff7f00">true</text>
</g>
<!-- ID_27_ct1_st0&#45;&gt;ID_27_ct1_st01 -->
<g id="edge10" class="edge">
<title>ID_27_ct1_st0&#45;&gt;ID_27_ct1_st01</title>
<path fill="none" stroke="black" d="M237.9,-332.75C268.98,-306.07 318.06,-263.91 351.81,-234.94"/>
<polygon fill="black" stroke="black" points="354.3,-237.41 359.61,-228.24 349.74,-232.1 354.3,-237.41"/>
<text text-anchor="start" x="285" y="-293.8" font-family="arial" font-size="14.00" fill="#377eb8">true</text>
</g>
<!-- ID_27_ct1_st012 -->
<g id="node8" class="node">
<title>ID_27_ct1_st012</title>
<polygon fill="none" stroke="black" points="701,-460 579,-460 579,-410 701,-410 701,-460"/>
<text text-anchor="start" x="587" y="-445.8" font-family="arial" font-weight="bold" font-size="14.00">ID_27_ct1_st012</text>
<text text-anchor="start" x="587.5" y="-431.8" font-family="arial" font-size="14.00" fill="#984ea3">(!P &amp;&amp; (R &amp;&amp; !S))</text>
<text text-anchor="start" x="628" y="-417.8" font-family="arial" font-size="14.00" fill="#ff7f00">true</text>
</g>
<!-- ID_27_ct1_st0&#45;&gt;ID_27_ct1_st012 -->
<g id="edge11" class="edge">
<title>ID_27_ct1_st0&#45;&gt;ID_27_ct1_st012</title>
<path fill="none" stroke="black" d="M261.17,-367.67C269.15,-369.13 277.29,-370.61 285,-372 383.37,-389.75 497.18,-409.95 568.63,-422.58"/>
<polygon fill="black" stroke="black" points="568.4,-426.09 578.85,-424.39 569.62,-419.2 568.4,-426.09"/>
<text text-anchor="start" x="378" y="-404.8" font-family="arial" font-size="14.00" fill="#377eb8">true</text>
</g>
<!-- ID_27_ct1_st0&#45;&gt;ID_27_ct1_st -->
<g id="edge8" class="edge">
<title>ID_27_ct1_st0&#45;&gt;ID_27_ct1_st</title>
<path fill="none" stroke="black" d="M212.92,-383.31C226.2,-450.27 272.3,-627 389,-627 389,-627 389,-627 1442.5,-627 1505.35,-627 1559.75,-570.47 1589.17,-532.54"/>
<polygon fill="black" stroke="black" points="1592.17,-534.38 1595.41,-524.29 1586.58,-530.16 1592.17,-534.38"/>
<text text-anchor="start" x="931.5" y="-630.8" font-family="arial" font-size="14.00" fill="#377eb8">P&#39;</text>
</g>
<!-- _ID_27_ct1_st01 -->
<!-- _ID_27_ct1_st01&#45;&gt;ID_27_ct1_st01 -->
<g id="edge3" class="edge">
<title>_ID_27_ct1_st01&#45;&gt;ID_27_ct1_st01</title>
<path fill="none" stroke="black" d="M226.14,-36.08C256.49,-67.19 319.02,-131.27 357.15,-170.36"/>
<polygon fill="black" stroke="black" points="354.95,-173.11 364.44,-177.83 359.96,-168.23 354.95,-173.11"/>
</g>
<!-- ID_27_ct1_st01&#45;&gt;ID_27_ct1_st012 -->
<g id="edge16" class="edge">
<title>ID_27_ct1_st01&#45;&gt;ID_27_ct1_st012</title>
<path fill="none" stroke="black" d="M405.86,-228.24C419.94,-249.95 443.06,-280.46 471,-298 505.97,-319.95 527.17,-297.33 561,-321 589.53,-340.96 610.78,-374.94 623.84,-400.62"/>
<polygon fill="black" stroke="black" points="620.73,-402.23 628.28,-409.67 627.02,-399.15 620.73,-402.23"/>
<text text-anchor="start" x="504" y="-324.8" font-family="arial" font-size="14.00" fill="#377eb8">true</text>
</g>
<!-- ID_27_ct1_st01&#45;&gt;ID_27_ct1_st -->
<g id="edge12" class="edge">
<title>ID_27_ct1_st01&#45;&gt;ID_27_ct1_st</title>
<path fill="none" stroke="black" d="M410.83,-177.7C425.65,-160.44 447.36,-138.36 471,-125 538.19,-87.02 561.81,-81 639,-81 639,-81 639,-81 1442.5,-81 1524.88,-81 1586.64,-363.1 1606.06,-463.8"/>
<polygon fill="black" stroke="black" points="1602.65,-464.62 1607.96,-473.79 1609.53,-463.32 1602.65,-464.62"/>
<text text-anchor="start" x="1047.5" y="-84.8" font-family="arial" font-size="14.00" fill="#377eb8">P&#39;</text>
</g>
<!-- ID_27_ct1_st03 -->
<g id="node10" class="node">
<title>ID_27_ct1_st03</title>
<polygon fill="none" stroke="black" points="1013,-321 863,-321 863,-271 1013,-271 1013,-321"/>
<text text-anchor="start" x="889" y="-306.8" font-family="arial" font-weight="bold" font-size="14.00">ID_27_ct1_st03</text>
<text text-anchor="start" x="885.5" y="-292.8" font-family="arial" font-size="14.00" fill="#984ea3">(!P &amp;&amp; (!R &amp;&amp; S))</text>
<text text-anchor="start" x="871" y="-278.8" font-family="arial" font-size="14.00" fill="#ff7f00">(c0 &lt;= 5 &amp;&amp; c1 &lt;= 10)</text>
</g>
<!-- ID_27_ct1_st01&#45;&gt;ID_27_ct1_st03 -->
<g id="edge13" class="edge">
<title>ID_27_ct1_st01&#45;&gt;ID_27_ct1_st03</title>
<path fill="none" stroke="black" d="M416.43,-228.1C431.12,-240.93 450.67,-255.41 471,-263 538.68,-288.25 737.78,-294.34 852.65,-295.71"/>
<polygon fill="black" stroke="black" points="852.78,-299.21 862.82,-295.82 852.86,-292.21 852.78,-299.21"/>
<text text-anchor="start" x="628" y="-310.8" font-family="arial" font-size="14.00" fill="#377eb8">true</text>
<text text-anchor="start" x="621" y="-295.8" font-family="arial" font-size="14.00">c1 :=0</text>
</g>
<!-- ID_27_ct1_st02 -->
<g id="node11" class="node">
<title>ID_27_ct1_st02</title>
<polygon fill="none" stroke="black" points="1504,-325 1379,-325 1379,-275 1504,-275 1504,-325"/>
<text text-anchor="start" x="1392.5" y="-310.8" font-family="arial" font-weight="bold" font-size="14.00">ID_27_ct1_st02</text>
<text text-anchor="start" x="1387" y="-296.8" font-family="arial" font-size="14.00" fill="#984ea3">(!P &amp;&amp; (!R &amp;&amp; !S))</text>
<text text-anchor="start" x="1418.5" y="-282.8" font-family="arial" font-size="14.00" fill="#ff7f00">c0 &lt;= 5</text>
</g>
<!-- ID_27_ct1_st01&#45;&gt;ID_27_ct1_st02 -->
<g id="edge14" class="edge">
<title>ID_27_ct1_st01&#45;&gt;ID_27_ct1_st02</title>
<path fill="none" stroke="black" d="M422.74,-177.8C436.77,-167.91 453.94,-157.4 471,-151 541.61,-124.49 563.58,-127 639,-127 639,-127 639,-127 1157,-127 1250.57,-127 1284.82,-124.67 1361,-179 1391.39,-200.67 1413.27,-237.91 1426.29,-265.37"/>
<polygon fill="black" stroke="black" points="1423.19,-266.99 1430.53,-274.63 1429.55,-264.08 1423.19,-266.99"/>
<text text-anchor="start" x="926" y="-145.8" font-family="arial" font-size="14.00" fill="#377eb8">true</text>
<text text-anchor="start" x="919" y="-130.8" font-family="arial" font-size="14.00">c0 :=0</text>
</g>
<!-- ID_27_ct1_st013 -->
<g id="node12" class="node">
<title>ID_27_ct1_st013</title>
<polygon fill="none" stroke="black" points="1217,-378 1095,-378 1095,-328 1217,-328 1217,-378"/>
<text text-anchor="start" x="1103" y="-363.8" font-family="arial" font-weight="bold" font-size="14.00">ID_27_ct1_st013</text>
<text text-anchor="start" x="1105.5" y="-349.8" font-family="arial" font-size="14.00" fill="#984ea3">(!P &amp;&amp; (R &amp;&amp; S))</text>
<text text-anchor="start" x="1129" y="-335.8" font-family="arial" font-size="14.00" fill="#ff7f00">c1 &lt;= 10</text>
</g>
<!-- ID_27_ct1_st01&#45;&gt;ID_27_ct1_st013 -->
<g id="edge15" class="edge">
<title>ID_27_ct1_st01&#45;&gt;ID_27_ct1_st013</title>
<path fill="none" stroke="black" d="M448.86,-201.63C560.31,-200.47 811.53,-205.11 1013,-262 1042.09,-270.21 1053.64,-265.81 1077,-285 1089.02,-294.87 1084.14,-303.87 1095,-315 1097.1,-317.15 1099.34,-319.24 1101.68,-321.25"/>
<polygon fill="black" stroke="black" points="1099.94,-324.34 1109.95,-327.81 1104.29,-318.85 1099.94,-324.34"/>
<text text-anchor="start" x="770" y="-244.8" font-family="arial" font-size="14.00" fill="#377eb8">true</text>
<text text-anchor="start" x="763" y="-229.8" font-family="arial" font-size="14.00">c1 :=0</text>
</g>
<!-- _ID_27_ct1_st012 -->
<!-- _ID_27_ct1_st012&#45;&gt;ID_27_ct1_st012 -->
<g id="edge4" class="edge">
<title>_ID_27_ct1_st012&#45;&gt;ID_27_ct1_st012</title>
<path fill="none" stroke="black" d="M453.26,-449.98C488.41,-447.14 532.44,-443.59 568.81,-440.66"/>
<polygon fill="black" stroke="black" points="569.17,-444.14 578.85,-439.85 568.61,-437.17 569.17,-444.14"/>
</g>
<!-- ID_27_ct1_st012&#45;&gt;ID_27_ct1_st012 -->
<g id="edge28" class="edge">
<title>ID_27_ct1_st012&#45;&gt;ID_27_ct1_st012</title>
<path fill="none" stroke="black" d="M616.84,-460.18C615.81,-469.91 623.53,-478 640,-478 650.29,-478 657.17,-474.84 660.63,-470.09"/>
<polygon fill="black" stroke="black" points="664.08,-470.73 663.16,-460.18 657.29,-469 664.08,-470.73"/>
<text text-anchor="start" x="628" y="-481.8" font-family="arial" font-size="14.00" fill="#377eb8">true</text>
</g>
<!-- ID_27_ct1_st012&#45;&gt;ID_27_ct1_st -->
<g id="edge24" class="edge">
<title>ID_27_ct1_st012&#45;&gt;ID_27_ct1_st</title>
<path fill="none" stroke="black" d="M652.86,-460.13C665.59,-484.04 688.23,-518.85 719,-536 775.21,-567.33 798.88,-545.56 863,-551 1147.01,-575.08 1222.13,-573.31 1504,-531 1522.88,-528.17 1527.61,-527.13 1546,-522 1548.61,-521.27 1551.27,-520.5 1553.95,-519.69"/>
<polygon fill="black" stroke="black" points="1555.19,-522.97 1563.69,-516.64 1553.1,-516.29 1555.19,-522.97"/>
<text text-anchor="start" x="1149.5" y="-569.8" font-family="arial" font-size="14.00" fill="#377eb8">P&#39;</text>
</g>
<!-- ID_27_ct1_st012&#45;&gt;ID_27_ct1_st03 -->
<g id="edge25" class="edge">
<title>ID_27_ct1_st012&#45;&gt;ID_27_ct1_st03</title>
<path fill="none" stroke="black" d="M669.5,-409.86C683.52,-398.77 701.2,-386.56 719,-379 771.4,-356.75 792.12,-377.07 845,-356 863.23,-348.73 881.68,-337.61 897.22,-326.91"/>
<polygon fill="black" stroke="black" points="899.39,-329.66 905.53,-321.03 895.35,-323.94 899.39,-329.66"/>
<text text-anchor="start" x="770" y="-397.8" font-family="arial" font-size="14.00" fill="#377eb8">true</text>
<text text-anchor="start" x="763" y="-382.8" font-family="arial" font-size="14.00">c1 :=0</text>
</g>
<!-- ID_27_ct1_st012&#45;&gt;ID_27_ct1_st02 -->
<g id="edge26" class="edge">
<title>ID_27_ct1_st012&#45;&gt;ID_27_ct1_st02</title>
<path fill="none" stroke="black" d="M701.27,-452.88C707.23,-454.38 713.22,-455.79 719,-457 782.24,-470.25 798.54,-472.54 863,-477 1021.06,-487.92 1064.51,-477.99 1217,-435 1282.49,-416.54 1303.96,-420.1 1361,-383 1381.55,-369.63 1400.69,-349.97 1415.04,-333.14"/>
<polygon fill="black" stroke="black" points="1417.99,-335.07 1421.69,-325.14 1412.6,-330.6 1417.99,-335.07"/>
<text text-anchor="start" x="1042" y="-495.8" font-family="arial" font-size="14.00" fill="#377eb8">true</text>
<text text-anchor="start" x="1035" y="-480.8" font-family="arial" font-size="14.00">c0 :=0</text>
</g>
<!-- ID_27_ct1_st012&#45;&gt;ID_27_ct1_st013 -->
<g id="edge27" class="edge">
<title>ID_27_ct1_st012&#45;&gt;ID_27_ct1_st013</title>
<path fill="none" stroke="black" d="M701.02,-441.05C787.19,-447.47 949.58,-451.07 1077,-404 1090.31,-399.08 1103.66,-391.55 1115.45,-383.77"/>
<polygon fill="black" stroke="black" points="1117.47,-386.63 1123.74,-378.09 1113.52,-380.85 1117.47,-386.63"/>
<text text-anchor="start" x="926" y="-461.8" font-family="arial" font-size="14.00" fill="#377eb8">true</text>
<text text-anchor="start" x="919" y="-446.8" font-family="arial" font-size="14.00">c1 :=0</text>
</g>
<!-- ID_27_ct1_st&#45;&gt;ID_27_ct1_st -->
<g id="edge7" class="edge">
<title>ID_27_ct1_st&#45;&gt;ID_27_ct1_st</title>
<path fill="none" stroke="black" d="M1598.93,-524.18C1598.28,-533.91 1603.14,-542 1613.5,-542 1619.97,-542 1624.3,-538.84 1626.47,-534.09"/>
<polygon fill="black" stroke="black" points="1629.94,-534.6 1628.07,-524.18 1623.03,-533.49 1629.94,-534.6"/>
<text text-anchor="start" x="1601.5" y="-545.8" font-family="arial" font-size="14.00" fill="#377eb8">true</text>
</g>
<!-- ID_27_ct1_st03&#45;&gt;ID_27_ct1_st0 -->
<g id="edge30" class="edge">
<title>ID_27_ct1_st03&#45;&gt;ID_27_ct1_st0</title>
<path fill="none" stroke="black" d="M862.9,-301.59C820.51,-305.52 766.49,-311.74 719,-321 710.85,-322.59 709.18,-324.59 701,-326 639.53,-336.62 623.24,-331.83 561,-336 459.54,-342.79 341.6,-350.02 271.11,-354.26"/>
<polygon fill="black" stroke="black" points="270.84,-350.77 261.06,-354.87 271.26,-357.76 270.84,-350.77"/>
<text text-anchor="start" x="471" y="-344.8" font-family="arial" font-size="14.00" fill="#377eb8">(P&#39; || c1 &gt;= 10)</text>
</g>
<!-- ID_27_ct1_st03&#45;&gt;ID_27_ct1_st01 -->
<g id="edge32" class="edge">
<title>ID_27_ct1_st03&#45;&gt;ID_27_ct1_st01</title>
<path fill="none" stroke="black" d="M862.73,-283.53C770.75,-268.07 609.28,-240.82 471,-217 466.94,-216.3 462.76,-215.58 458.54,-214.85"/>
<polygon fill="black" stroke="black" points="459.13,-211.4 448.67,-213.13 457.93,-218.29 459.13,-211.4"/>
<text text-anchor="start" x="595" y="-259.8" font-family="arial" font-size="14.00" fill="#377eb8">(P&#39; || c1 &gt;= 10)</text>
</g>
<!-- ID_27_ct1_st03&#45;&gt;ID_27_ct1_st012 -->
<g id="edge34" class="edge">
<title>ID_27_ct1_st03&#45;&gt;ID_27_ct1_st012</title>
<path fill="none" stroke="black" d="M862.8,-314.32C856.79,-315.62 850.8,-316.87 845,-318 789.41,-328.82 765,-303.97 719,-337 704.79,-347.2 711.14,-357.74 701,-372 693.47,-382.59 684.23,-393.17 675.28,-402.56"/>
<polygon fill="black" stroke="black" points="672.68,-400.21 668.19,-409.81 677.69,-405.1 672.68,-400.21"/>
<text text-anchor="start" x="719" y="-340.8" font-family="arial" font-size="14.00" fill="#377eb8">(P&#39; || (S&#39; || c1 &gt;= 10))</text>
</g>
<!-- ID_27_ct1_st03&#45;&gt;ID_27_ct1_st -->
<g id="edge29" class="edge">
<title>ID_27_ct1_st03&#45;&gt;ID_27_ct1_st</title>
<path fill="none" stroke="black" d="M971.06,-321.25C986.19,-334.92 1003.07,-353.09 1013,-373 1035.49,-418.12 993.02,-451.84 1031,-485 1107.36,-551.67 1421.61,-522.38 1553.64,-506.64"/>
<polygon fill="black" stroke="black" points="1554.08,-510.11 1563.58,-505.44 1553.24,-503.16 1554.08,-510.11"/>
<text text-anchor="start" x="1291.5" y="-529.8" font-family="arial" font-size="14.00" fill="#377eb8">P&#39;</text>
</g>
<!-- ID_27_ct1_st03&#45;&gt;ID_27_ct1_st03 -->
<g id="edge31" class="edge">
<title>ID_27_ct1_st03&#45;&gt;ID_27_ct1_st03</title>
<path fill="none" stroke="black" d="M916.33,-321.18C915.37,-330.91 922.59,-339 938,-339 947.63,-339 954.06,-335.84 957.3,-331.09"/>
<polygon fill="black" stroke="black" points="960.75,-331.72 959.67,-321.18 953.94,-330.09 960.75,-331.72"/>
<text text-anchor="start" x="915" y="-342.8" font-family="arial" font-size="14.00" fill="#377eb8">c1 &lt; 10</text>
</g>
<!-- ID_27_ct1_st03&#45;&gt;ID_27_ct1_st013 -->
<g id="edge33" class="edge">
<title>ID_27_ct1_st03&#45;&gt;ID_27_ct1_st013</title>
<path fill="none" stroke="black" d="M1000.33,-321.15C1010.47,-324.78 1020.95,-328.22 1031,-331 1048.18,-335.75 1066.98,-339.7 1084.64,-342.88"/>
<polygon fill="black" stroke="black" points="1084.44,-346.4 1094.89,-344.67 1085.64,-339.51 1084.44,-346.4"/>
<text text-anchor="start" x="1031" y="-344.8" font-family="arial" font-size="14.00" fill="#377eb8">c1 &lt; 10</text>
</g>
<!-- ID_27_ct1_st02&#45;&gt;ID_27_ct1_st0 -->
<g id="edge18" class="edge">
<title>ID_27_ct1_st02&#45;&gt;ID_27_ct1_st0</title>
<path fill="none" stroke="black" d="M1435.34,-274.8C1426.43,-237.33 1404.76,-166.87 1361,-125 1290.39,-57.45 1254.72,-43 1157,-43 389,-43 389,-43 389,-43 261.29,-43 222.67,-240.33 212.11,-322.62"/>
<polygon fill="black" stroke="black" points="208.61,-322.41 210.88,-332.75 215.56,-323.25 208.61,-322.41"/>
<text text-anchor="start" x="741" y="-46.8" font-family="arial" font-size="14.00" fill="#377eb8">(P&#39; || c0 &gt;= 5)</text>
</g>
<!-- ID_27_ct1_st02&#45;&gt;ID_27_ct1_st01 -->
<g id="edge21" class="edge">
<title>ID_27_ct1_st02&#45;&gt;ID_27_ct1_st01</title>
<path fill="none" stroke="black" d="M1378.82,-275.41C1372.85,-273.42 1366.84,-271.58 1361,-270 1016.41,-176.71 917.98,-200.55 561,-198 521,-197.71 510.98,-196.75 471,-198 467.04,-198.12 462.98,-198.28 458.88,-198.46"/>
<polygon fill="black" stroke="black" points="458.48,-194.98 448.66,-198.97 458.82,-201.97 458.48,-194.98"/>
<text text-anchor="start" x="877" y="-206.8" font-family="arial" font-size="14.00" fill="#377eb8">(P&#39; || (c0 &gt;= 5 || !S&#39;))</text>
</g>
<!-- ID_27_ct1_st02&#45;&gt;ID_27_ct1_st012 -->
<g id="edge23" class="edge">
<title>ID_27_ct1_st02&#45;&gt;ID_27_ct1_st012</title>
<path fill="none" stroke="black" d="M1425.77,-325.45C1411.84,-350.52 1391.29,-390.3 1379,-427 1365.91,-466.09 1392.86,-491.83 1361,-518 1305.88,-563.28 784.77,-540.62 719,-513 697,-503.76 677.93,-485.04 664.16,-468.25"/>
<polygon fill="black" stroke="black" points="666.77,-465.91 657.84,-460.21 661.27,-470.23 666.77,-465.91"/>
<text text-anchor="start" x="1042" y="-546.8" font-family="arial" font-size="14.00" fill="#377eb8">true</text>
</g>
<!-- ID_27_ct1_st02&#45;&gt;ID_27_ct1_st -->
<g id="edge17" class="edge">
<title>ID_27_ct1_st02&#45;&gt;ID_27_ct1_st</title>
<path fill="none" stroke="black" d="M1464.03,-325.2C1494.48,-360.84 1550.16,-426.03 1584,-465.64"/>
<polygon fill="black" stroke="black" points="1581.72,-468.36 1590.88,-473.69 1587.04,-463.81 1581.72,-468.36"/>
<text text-anchor="start" x="1527.5" y="-420.8" font-family="arial" font-size="14.00" fill="#377eb8">P&#39;</text>
</g>
<!-- ID_27_ct1_st02&#45;&gt;ID_27_ct1_st03 -->
<g id="edge19" class="edge">
<title>ID_27_ct1_st02&#45;&gt;ID_27_ct1_st03</title>
<path fill="none" stroke="black" d="M1378.67,-284.6C1372.72,-283.54 1366.77,-282.64 1361,-282 1215.24,-265.7 1177.35,-275.2 1031,-285 1028.47,-285.17 1025.91,-285.36 1023.32,-285.57"/>
<polygon fill="black" stroke="black" points="1022.91,-282.09 1013.25,-286.45 1023.52,-289.06 1022.91,-282.09"/>
<text text-anchor="start" x="1144" y="-299.8" font-family="arial" font-size="14.00" fill="#377eb8">true</text>
<text text-anchor="start" x="1137" y="-284.8" font-family="arial" font-size="14.00">c1 :=0</text>
</g>
<!-- ID_27_ct1_st02&#45;&gt;ID_27_ct1_st02 -->
<g id="edge20" class="edge">
<title>ID_27_ct1_st02&#45;&gt;ID_27_ct1_st02</title>
<path fill="none" stroke="black" d="M1424.32,-325.18C1423.55,-334.91 1429.28,-343 1441.5,-343 1449.14,-343 1454.24,-339.84 1456.8,-335.09"/>
<polygon fill="black" stroke="black" points="1460.26,-335.65 1458.68,-325.18 1453.38,-334.35 1460.26,-335.65"/>
<text text-anchor="start" x="1422.5" y="-346.8" font-family="arial" font-size="14.00" fill="#377eb8">c0 &lt; 5</text>
</g>
<!-- ID_27_ct1_st02&#45;&gt;ID_27_ct1_st013 -->
<g id="edge22" class="edge">
<title>ID_27_ct1_st02&#45;&gt;ID_27_ct1_st013</title>
<path fill="none" stroke="black" d="M1381.14,-325.09C1374.43,-327.35 1367.62,-329.38 1361,-331 1317.23,-341.69 1266.91,-347.19 1227.2,-350.02"/>
<polygon fill="black" stroke="black" points="1226.82,-346.53 1217.08,-350.69 1227.29,-353.52 1226.82,-346.53"/>
<text text-anchor="start" x="1286" y="-367.8" font-family="arial" font-size="14.00" fill="#377eb8">true</text>
<text text-anchor="start" x="1279" y="-352.8" font-family="arial" font-size="14.00">c1 :=0</text>
</g>
<!-- ID_27_ct1_st013&#45;&gt;ID_27_ct1_st012 -->
<g id="edge39" class="edge">
<title>ID_27_ct1_st013&#45;&gt;ID_27_ct1_st012</title>
<path fill="none" stroke="black" d="M1094.74,-362.96C1035.6,-372.92 942.9,-389.01 863,-405 854.96,-406.61 853.07,-407.59 845,-409 800.67,-416.73 750.55,-423.15 711.08,-427.68"/>
<polygon fill="black" stroke="black" points="710.57,-424.22 701.02,-428.82 711.35,-431.17 710.57,-424.22"/>
<text text-anchor="start" x="875" y="-408.8" font-family="arial" font-size="14.00" fill="#377eb8">(P&#39; || (S&#39; || c1 &gt;= 10))</text>
</g>
<!-- ID_27_ct1_st013&#45;&gt;ID_27_ct1_st -->
<g id="edge35" class="edge">
<title>ID_27_ct1_st013&#45;&gt;ID_27_ct1_st</title>
<path fill="none" stroke="black" d="M1217.32,-376.67C1223.27,-378.87 1229.24,-381.01 1235,-383 1346.95,-421.68 1479.7,-460.97 1554.21,-482.45"/>
<polygon fill="black" stroke="black" points="1553.31,-485.83 1563.89,-485.23 1555.24,-479.1 1553.31,-485.83"/>
<text text-anchor="start" x="1435" y="-469.8" font-family="arial" font-size="14.00" fill="#377eb8">P&#39;</text>
</g>
<!-- ID_27_ct1_st013&#45;&gt;ID_27_ct1_st03 -->
<g id="edge36" class="edge">
<title>ID_27_ct1_st013&#45;&gt;ID_27_ct1_st03</title>
<path fill="none" stroke="black" d="M1128.8,-327.92C1114.65,-316.1 1096.18,-303.25 1077,-297 1060.07,-291.48 1041.34,-289.09 1023.27,-288.46"/>
<polygon fill="black" stroke="black" points="1023.09,-284.96 1013.03,-288.29 1022.97,-291.96 1023.09,-284.96"/>
<text text-anchor="start" x="1042" y="-315.8" font-family="arial" font-size="14.00" fill="#377eb8">true</text>
<text text-anchor="start" x="1035" y="-300.8" font-family="arial" font-size="14.00">c1 :=0</text>
</g>
<!-- ID_27_ct1_st013&#45;&gt;ID_27_ct1_st02 -->
<g id="edge37" class="edge">
<title>ID_27_ct1_st013&#45;&gt;ID_27_ct1_st02</title>
<path fill="none" stroke="black" d="M1183.18,-327.86C1197.32,-316.03 1215.8,-303.18 1235,-297 1277.9,-283.2 1328.49,-283.74 1368.73,-287.84"/>
<polygon fill="black" stroke="black" points="1368.41,-291.32 1378.73,-288.95 1369.18,-284.37 1368.41,-291.32"/>
<text text-anchor="start" x="1235" y="-315.8" font-family="arial" font-size="14.00" fill="#377eb8">(P&#39; || (S&#39; || c1 &gt;= 10))</text>
<text text-anchor="start" x="1279" y="-300.8" font-family="arial" font-size="14.00">c0 :=0</text>
</g>
<!-- ID_27_ct1_st013&#45;&gt;ID_27_ct1_st013 -->
<g id="edge38" class="edge">
<title>ID_27_ct1_st013&#45;&gt;ID_27_ct1_st013</title>
<path fill="none" stroke="black" d="M1136.95,-378.18C1136.1,-387.91 1142.45,-396 1156,-396 1164.47,-396 1170.12,-392.84 1172.97,-388.09"/>
<polygon fill="black" stroke="black" points="1176.42,-388.68 1175.05,-378.18 1169.57,-387.24 1176.42,-388.68"/>
<text text-anchor="start" x="1144" y="-414.8" font-family="arial" font-size="14.00" fill="#377eb8">true</text>
<text text-anchor="start" x="1137" y="-399.8" font-family="arial" font-size="14.00">c1 :=0</text>
</g>
</g>
</svg>
