<?xml version="1.0" encoding="UTF-8" standalone="no"?>
<!DOCTYPE svg PUBLIC "-//W3C//DTD SVG 1.1//EN"
 "http://www.w3.org/Graphics/SVG/1.1/DTD/svg11.dtd">
<!-- Generated by graphviz version 2.43.0 (0)
 -->
<!-- Title: G Pages: 1 -->
<svg width="2007pt" height="621pt"
 viewBox="0.00 0.00 2007.00 621.00" xmlns="http://www.w3.org/2000/svg" xmlns:xlink="http://www.w3.org/1999/xlink">
<g id="graph0" class="graph" transform="scale(1 1) rotate(0) translate(4 617)">
<title>G</title>
<polygon fill="white" stroke="transparent" points="-4,4 -4,-617 2003,-617 2003,4 -4,4"/>
<!-- _ID_105_ct0_st0 -->
<!-- ID_105_ct0_st0 -->
<g id="node2" class="node">
<title>ID_105_ct0_st0</title>
<polygon fill="none" stroke="black" points="290.5,-265 176.5,-265 176.5,-215 290.5,-215 290.5,-265"/>
<text text-anchor="start" x="184.5" y="-250.8" font-family="arial" font-weight="bold" font-size="14.00">ID_105_ct0_st0</text>
<text text-anchor="start" x="227" y="-236.8" font-family="arial" font-size="14.00" fill="#984ea3">!P</text>
<text text-anchor="start" x="221.5" y="-222.8" font-family="arial" font-size="14.00" fill="#ff7f00">true</text>
</g>
<!-- _ID_105_ct0_st0&#45;&gt;ID_105_ct0_st0 -->
<g id="edge1" class="edge">
<title>_ID_105_ct0_st0&#45;&gt;ID_105_ct0_st0</title>
<path fill="none" stroke="black" d="M119.21,-240C134.38,-240 150.81,-240 166.33,-240"/>
<polygon fill="black" stroke="black" points="166.38,-243.5 176.38,-240 166.38,-236.5 166.38,-243.5"/>
</g>
<!-- ID_105_ct0_st0&#45;&gt;ID_105_ct0_st0 -->
<g id="edge4" class="edge">
<title>ID_105_ct0_st0&#45;&gt;ID_105_ct0_st0</title>
<path fill="none" stroke="black" d="M215.57,-265.18C214.77,-274.91 220.75,-283 233.5,-283 241.47,-283 246.79,-279.84 249.47,-275.09"/>
<polygon fill="black" stroke="black" points="252.92,-275.66 251.43,-265.18 246.06,-274.31 252.92,-275.66"/>
<text text-anchor="start" x="221.5" y="-286.8" font-family="arial" font-size="14.00" fill="#377eb8">true</text>
</g>
<!-- ID_105_ct0_st012 -->
<g id="node4" class="node">
<title>ID_105_ct0_st012</title>
<polygon fill="none" stroke="black" points="941,-237 812,-237 812,-187 941,-187 941,-237"/>
<text text-anchor="start" x="820" y="-222.8" font-family="arial" font-weight="bold" font-size="14.00">ID_105_ct0_st012</text>
<text text-anchor="start" x="847.5" y="-208.8" font-family="arial" font-size="14.00" fill="#984ea3">(P &amp;&amp; !R)</text>
<text text-anchor="start" x="864.5" y="-194.8" font-family="arial" font-size="14.00" fill="#ff7f00">true</text>
</g>
<!-- ID_105_ct0_st0&#45;&gt;ID_105_ct0_st012 -->
<g id="edge5" class="edge">
<title>ID_105_ct0_st0&#45;&gt;ID_105_ct0_st012</title>
<path fill="none" stroke="black" d="M290.54,-237.55C406.37,-232.49 672.14,-220.88 801.73,-215.22"/>
<polygon fill="black" stroke="black" points="802.12,-218.71 811.95,-214.78 801.81,-211.72 802.12,-218.71"/>
<text text-anchor="start" x="560" y="-229.8" font-family="arial" font-size="14.00" fill="#377eb8">true</text>
</g>
<!-- ID_105_ct0_st0123W -->
<g id="node6" class="node">
<title>ID_105_ct0_st0123W</title>
<polygon fill="none" stroke="black" points="535,-373 385,-373 385,-323 535,-323 535,-373"/>
<text text-anchor="start" x="393" y="-358.8" font-family="arial" font-weight="bold" font-size="14.00">ID_105_ct0_st0123W</text>
<text text-anchor="start" x="433" y="-344.8" font-family="arial" font-size="14.00" fill="#984ea3">(P &amp;&amp; R)</text>
<text text-anchor="start" x="437" y="-330.8" font-family="arial" font-size="14.00" fill="#ff7f00">c0 &lt;= 5</text>
</g>
<!-- ID_105_ct0_st0&#45;&gt;ID_105_ct0_st0123W -->
<g id="edge6" class="edge">
<title>ID_105_ct0_st0&#45;&gt;ID_105_ct0_st0123W</title>
<path fill="none" stroke="black" d="M286.57,-265.05C319.74,-281.01 362.87,-301.76 397.7,-318.51"/>
<polygon fill="black" stroke="black" points="396.3,-321.72 406.82,-322.9 399.33,-315.41 396.3,-321.72"/>
<text text-anchor="start" x="336" y="-321.8" font-family="arial" font-size="14.00" fill="#377eb8">true</text>
<text text-anchor="start" x="329" y="-306.8" font-family="arial" font-size="14.00">c0 :=0</text>
</g>
<!-- _ID_105_ct0_st012 -->
<!-- _ID_105_ct0_st012&#45;&gt;ID_105_ct0_st012 -->
<g id="edge2" class="edge">
<title>_ID_105_ct0_st012&#45;&gt;ID_105_ct0_st012</title>
<path fill="none" stroke="black" d="M747.72,-190.92C765.06,-193.78 783.87,-196.89 801.59,-199.81"/>
<polygon fill="black" stroke="black" points="801.43,-203.33 811.87,-201.5 802.57,-196.42 801.43,-203.33"/>
</g>
<!-- ID_105_ct0_st012&#45;&gt;ID_105_ct0_st012 -->
<g id="edge13" class="edge">
<title>ID_105_ct0_st012&#45;&gt;ID_105_ct0_st012</title>
<path fill="none" stroke="black" d="M858.94,-237.18C858.16,-246.91 864.02,-255 876.5,-255 884.3,-255 889.51,-251.84 892.14,-247.09"/>
<polygon fill="black" stroke="black" points="895.59,-247.66 894.06,-237.18 888.72,-246.33 895.59,-247.66"/>
<text text-anchor="start" x="864.5" y="-258.8" font-family="arial" font-size="14.00" fill="#377eb8">true</text>
</g>
<!-- ID_105_ct0_st02 -->
<g id="node7" class="node">
<title>ID_105_ct0_st02</title>
<polygon fill="none" stroke="black" points="1123,-303 1001,-303 1001,-253 1123,-253 1123,-303"/>
<text text-anchor="start" x="1009" y="-288.8" font-family="arial" font-weight="bold" font-size="14.00">ID_105_ct0_st02</text>
<text text-anchor="start" x="1031.5" y="-274.8" font-family="arial" font-size="14.00" fill="#984ea3">(!P &amp;&amp; !R)</text>
<text text-anchor="start" x="1050" y="-260.8" font-family="arial" font-size="14.00" fill="#ff7f00">true</text>
</g>
<!-- ID_105_ct0_st012&#45;&gt;ID_105_ct0_st02 -->
<g id="edge11" class="edge">
<title>ID_105_ct0_st012&#45;&gt;ID_105_ct0_st02</title>
<path fill="none" stroke="black" d="M920.09,-237.18C932.35,-243.67 945.94,-250.18 959,-255 969.17,-258.75 980.15,-262.01 991,-264.79"/>
<polygon fill="black" stroke="black" points="990.36,-268.24 1000.9,-267.22 992.02,-261.44 990.36,-268.24"/>
<text text-anchor="start" x="959" y="-265.8" font-family="arial" font-size="14.00" fill="#377eb8">true</text>
</g>
<!-- ID_105_ct0_st023X -->
<g id="node8" class="node">
<title>ID_105_ct0_st023X</title>
<polygon fill="none" stroke="black" points="1591,-237 1453,-237 1453,-187 1591,-187 1591,-237"/>
<text text-anchor="start" x="1461" y="-222.8" font-family="arial" font-weight="bold" font-size="14.00">ID_105_ct0_st023X</text>
<text text-anchor="start" x="1493" y="-208.8" font-family="arial" font-size="14.00" fill="#984ea3">(!P &amp;&amp; R)</text>
<text text-anchor="start" x="1499" y="-194.8" font-family="arial" font-size="14.00" fill="#ff7f00">c0 &lt;= 5</text>
</g>
<!-- ID_105_ct0_st012&#45;&gt;ID_105_ct0_st023X -->
<g id="edge12" class="edge">
<title>ID_105_ct0_st012&#45;&gt;ID_105_ct0_st023X</title>
<path fill="none" stroke="black" d="M895.08,-186.94C910.64,-165.6 934.61,-134.72 959,-111 1020.36,-51.32 1055.91,-57.31 1141,-48 1246.39,-36.47 1279.95,-26.2 1379,-64 1407.82,-75 1417.99,-79.27 1435,-105 1452.64,-131.68 1434.49,-151.17 1451.42,-178.47"/>
<polygon fill="black" stroke="black" points="1448.79,-180.8 1457.52,-186.79 1454.43,-176.66 1448.79,-180.8"/>
<text text-anchor="start" x="1166" y="-66.8" font-family="arial" font-size="14.00" fill="#377eb8">true</text>
<text text-anchor="start" x="1159" y="-51.8" font-family="arial" font-size="14.00">c0 :=0</text>
</g>
<!-- ID_105_ct0_st0123X -->
<g id="node9" class="node">
<title>ID_105_ct0_st0123X</title>
<polygon fill="none" stroke="black" points="1379,-123 1233,-123 1233,-73 1379,-73 1379,-123"/>
<text text-anchor="start" x="1241" y="-108.8" font-family="arial" font-weight="bold" font-size="14.00">ID_105_ct0_st0123X</text>
<text text-anchor="start" x="1279" y="-94.8" font-family="arial" font-size="14.00" fill="#984ea3">(P &amp;&amp; R)</text>
<text text-anchor="start" x="1283" y="-80.8" font-family="arial" font-size="14.00" fill="#ff7f00">c0 &lt;= 5</text>
</g>
<!-- ID_105_ct0_st012&#45;&gt;ID_105_ct0_st0123X -->
<g id="edge14" class="edge">
<title>ID_105_ct0_st012&#45;&gt;ID_105_ct0_st0123X</title>
<path fill="none" stroke="black" d="M922.65,-186.91C945.53,-175.12 974.11,-161.75 1001,-153 1074.07,-129.22 1160.57,-114.83 1222.58,-106.77"/>
<polygon fill="black" stroke="black" points="1223.23,-110.21 1232.7,-105.48 1222.34,-103.27 1223.23,-110.21"/>
<text text-anchor="start" x="1050" y="-171.8" font-family="arial" font-size="14.00" fill="#377eb8">true</text>
<text text-anchor="start" x="1043" y="-156.8" font-family="arial" font-size="14.00">c0 :=0</text>
</g>
<!-- _ID_105_ct0_st0123W -->
<!-- _ID_105_ct0_st0123W&#45;&gt;ID_105_ct0_st0123W -->
<g id="edge3" class="edge">
<title>_ID_105_ct0_st0123W&#45;&gt;ID_105_ct0_st0123W</title>
<path fill="none" stroke="black" d="M311.13,-348C331.65,-348 353.95,-348 374.85,-348"/>
<polygon fill="black" stroke="black" points="374.99,-351.5 384.99,-348 374.99,-344.5 374.99,-351.5"/>
</g>
<!-- ID_105_ct0_st0123W&#45;&gt;ID_105_ct0_st012 -->
<g id="edge34" class="edge">
<title>ID_105_ct0_st0123W&#45;&gt;ID_105_ct0_st012</title>
<path fill="none" stroke="black" d="M505.52,-322.87C520.33,-315.16 537.1,-307.11 553,-301 656.13,-261.35 688.04,-271.31 794,-240 796.6,-239.23 799.24,-238.43 801.9,-237.61"/>
<polygon fill="black" stroke="black" points="803.13,-240.89 811.6,-234.54 801.01,-234.22 803.13,-240.89"/>
<text text-anchor="start" x="668.5" y="-284.8" font-family="arial" font-size="14.00" fill="#377eb8">true</text>
</g>
<!-- ID_105_ct0_st0123W&#45;&gt;ID_105_ct0_st0123W -->
<g id="edge35" class="edge">
<title>ID_105_ct0_st0123W&#45;&gt;ID_105_ct0_st0123W</title>
<path fill="none" stroke="black" d="M439.08,-373.18C438.15,-382.91 445.12,-391 460,-391 469.3,-391 475.51,-387.84 478.63,-383.09"/>
<polygon fill="black" stroke="black" points="482.08,-383.71 480.92,-373.18 475.26,-382.13 482.08,-383.71"/>
<text text-anchor="start" x="441" y="-394.8" font-family="arial" font-size="14.00" fill="#377eb8">c0 &lt; 5</text>
</g>
<!-- ID_105_ct0_st0123W&#45;&gt;ID_105_ct0_st02 -->
<g id="edge31" class="edge">
<title>ID_105_ct0_st0123W&#45;&gt;ID_105_ct0_st02</title>
<path fill="none" stroke="black" d="M535.17,-339.35C651.89,-325.73 876.86,-299.48 990.96,-286.17"/>
<polygon fill="black" stroke="black" points="991.46,-289.64 1000.98,-285 990.64,-282.68 991.46,-289.64"/>
<text text-anchor="start" x="770" y="-314.8" font-family="arial" font-size="14.00" fill="#377eb8">true</text>
</g>
<!-- ID_105_ct0_st023W -->
<g id="node10" class="node">
<title>ID_105_ct0_st023W</title>
<polygon fill="none" stroke="black" points="752,-411 609,-411 609,-361 752,-361 752,-411"/>
<text text-anchor="start" x="617" y="-396.8" font-family="arial" font-weight="bold" font-size="14.00">ID_105_ct0_st023W</text>
<text text-anchor="start" x="651.5" y="-382.8" font-family="arial" font-size="14.00" fill="#984ea3">(!P &amp;&amp; R)</text>
<text text-anchor="start" x="657.5" y="-368.8" font-family="arial" font-size="14.00" fill="#ff7f00">c0 &lt;= 5</text>
</g>
<!-- ID_105_ct0_st0123W&#45;&gt;ID_105_ct0_st023W -->
<g id="edge32" class="edge">
<title>ID_105_ct0_st0123W&#45;&gt;ID_105_ct0_st023W</title>
<path fill="none" stroke="black" d="M535.28,-360.92C555.69,-364.47 577.93,-368.34 598.69,-371.95"/>
<polygon fill="black" stroke="black" points="598.3,-375.43 608.75,-373.7 599.5,-368.53 598.3,-375.43"/>
<text text-anchor="start" x="553" y="-373.8" font-family="arial" font-size="14.00" fill="#377eb8">c0 &lt; 5</text>
</g>
<!-- ID_105_ct0_st023 -->
<g id="node11" class="node">
<title>ID_105_ct0_st023</title>
<polygon fill="none" stroke="black" points="1999,-386 1870,-386 1870,-336 1999,-336 1999,-386"/>
<text text-anchor="start" x="1878" y="-371.8" font-family="arial" font-weight="bold" font-size="14.00">ID_105_ct0_st023</text>
<text text-anchor="start" x="1884" y="-357.8" font-family="arial" font-size="14.00" fill="#984ea3">(!P &amp;&amp; (R &amp;&amp; S))</text>
<text text-anchor="start" x="1922.5" y="-343.8" font-family="arial" font-size="14.00" fill="#ff7f00">true</text>
</g>
<!-- ID_105_ct0_st0123W&#45;&gt;ID_105_ct0_st023 -->
<g id="edge33" class="edge">
<title>ID_105_ct0_st0123W&#45;&gt;ID_105_ct0_st023</title>
<path fill="none" stroke="black" d="M469.32,-373.35C491.97,-436.9 561.04,-598 679.5,-598 679.5,-598 679.5,-598 1742.5,-598 1845.04,-598 1901.87,-461.84 1923.37,-395.93"/>
<polygon fill="black" stroke="black" points="1926.72,-396.95 1926.4,-386.36 1920.04,-394.84 1926.72,-396.95"/>
<text text-anchor="start" x="1155" y="-601.8" font-family="arial" font-size="14.00" fill="#377eb8">c0 &gt;= 5</text>
</g>
<!-- ID_105_ct0_st0123 -->
<g id="node12" class="node">
<title>ID_105_ct0_st0123</title>
<polygon fill="none" stroke="black" points="1810,-386 1673,-386 1673,-336 1810,-336 1810,-386"/>
<text text-anchor="start" x="1681" y="-371.8" font-family="arial" font-weight="bold" font-size="14.00">ID_105_ct0_st0123</text>
<text text-anchor="start" x="1693" y="-357.8" font-family="arial" font-size="14.00" fill="#984ea3">(P &amp;&amp; (R &amp;&amp; S))</text>
<text text-anchor="start" x="1729.5" y="-343.8" font-family="arial" font-size="14.00" fill="#ff7f00">true</text>
</g>
<!-- ID_105_ct0_st0123W&#45;&gt;ID_105_ct0_st0123 -->
<g id="edge36" class="edge">
<title>ID_105_ct0_st0123W&#45;&gt;ID_105_ct0_st0123</title>
<path fill="none" stroke="black" d="M472.79,-373.38C500.42,-428.66 574.99,-555 679.5,-555 679.5,-555 679.5,-555 1523,-555 1617.9,-555 1690.49,-450.87 1722.52,-395.18"/>
<polygon fill="black" stroke="black" points="1725.64,-396.79 1727.49,-386.36 1719.54,-393.36 1725.64,-396.79"/>
<text text-anchor="start" x="1039" y="-558.8" font-family="arial" font-size="14.00" fill="#377eb8">c0 &gt;= 5</text>
</g>
<!-- ID_105_ct0_st02&#45;&gt;ID_105_ct0_st012 -->
<g id="edge9" class="edge">
<title>ID_105_ct0_st02&#45;&gt;ID_105_ct0_st012</title>
<path fill="none" stroke="black" d="M1013.37,-252.99C1003.49,-248.32 993.02,-243.73 983,-240 972.8,-236.2 961.87,-232.7 951.05,-229.55"/>
<polygon fill="black" stroke="black" points="951.74,-226.11 941.17,-226.76 949.84,-232.85 951.74,-226.11"/>
<text text-anchor="start" x="959" y="-243.8" font-family="arial" font-size="14.00" fill="#377eb8">true</text>
</g>
<!-- ID_105_ct0_st02&#45;&gt;ID_105_ct0_st02 -->
<g id="edge7" class="edge">
<title>ID_105_ct0_st02&#45;&gt;ID_105_ct0_st02</title>
<path fill="none" stroke="black" d="M1045.19,-303.18C1044.44,-312.91 1050.05,-321 1062,-321 1069.47,-321 1074.46,-317.84 1076.97,-313.09"/>
<polygon fill="black" stroke="black" points="1080.43,-313.65 1078.81,-303.18 1073.54,-312.37 1080.43,-313.65"/>
<text text-anchor="start" x="1050" y="-324.8" font-family="arial" font-size="14.00" fill="#377eb8">true</text>
</g>
<!-- ID_105_ct0_st02&#45;&gt;ID_105_ct0_st023X -->
<g id="edge8" class="edge">
<title>ID_105_ct0_st02&#45;&gt;ID_105_ct0_st023X</title>
<path fill="none" stroke="black" d="M1123,-280.12C1151,-280.56 1184.74,-280.32 1215,-278 1313.65,-270.42 1339.26,-268.94 1435,-244 1439.37,-242.86 1443.82,-241.59 1448.29,-240.21"/>
<polygon fill="black" stroke="black" points="1449.61,-243.46 1458.06,-237.07 1447.47,-236.8 1449.61,-243.46"/>
<text text-anchor="start" x="1294" y="-294.8" font-family="arial" font-size="14.00" fill="#377eb8">true</text>
<text text-anchor="start" x="1287" y="-279.8" font-family="arial" font-size="14.00">c0 :=0</text>
</g>
<!-- ID_105_ct0_st02&#45;&gt;ID_105_ct0_st0123X -->
<g id="edge10" class="edge">
<title>ID_105_ct0_st02&#45;&gt;ID_105_ct0_st0123X</title>
<path fill="none" stroke="black" d="M1093.84,-252.88C1107.65,-242.55 1124.5,-231.13 1141,-223 1171.9,-207.78 1186.09,-218.72 1215,-200 1242.42,-182.25 1266.49,-153.9 1282.82,-131.59"/>
<polygon fill="black" stroke="black" points="1285.72,-133.54 1288.69,-123.37 1280.03,-129.47 1285.72,-133.54"/>
<text text-anchor="start" x="1166" y="-241.8" font-family="arial" font-size="14.00" fill="#377eb8">true</text>
<text text-anchor="start" x="1159" y="-226.8" font-family="arial" font-size="14.00">c0 :=0</text>
</g>
<!-- ID_105_ct0_st023X&#45;&gt;ID_105_ct0_st012 -->
<g id="edge24" class="edge">
<title>ID_105_ct0_st023X&#45;&gt;ID_105_ct0_st012</title>
<path fill="none" stroke="black" d="M1452.76,-200.66C1376.76,-189.38 1250.19,-174.6 1141,-181 1138.61,-181.14 1028.47,-194.14 951.36,-203.26"/>
<polygon fill="black" stroke="black" points="950.7,-199.81 941.18,-204.46 951.52,-206.76 950.7,-199.81"/>
<text text-anchor="start" x="1141" y="-184.8" font-family="arial" font-size="14.00" fill="#377eb8">(S&#39; || c0 &lt; 5)</text>
</g>
<!-- ID_105_ct0_st023X&#45;&gt;ID_105_ct0_st02 -->
<g id="edge21" class="edge">
<title>ID_105_ct0_st023X&#45;&gt;ID_105_ct0_st02</title>
<path fill="none" stroke="black" d="M1452.75,-207.84C1392.77,-206.61 1304.2,-210.79 1233,-239 1223.58,-242.73 1224.29,-248.94 1215,-253 1189.47,-264.16 1159.54,-270.38 1133.03,-273.82"/>
<polygon fill="black" stroke="black" points="1132.56,-270.35 1123.05,-275.02 1133.39,-277.31 1132.56,-270.35"/>
<text text-anchor="start" x="1269" y="-242.8" font-family="arial" font-size="14.00" fill="#377eb8">(S&#39; || c0 &lt; 5)</text>
</g>
<!-- ID_105_ct0_st023X&#45;&gt;ID_105_ct0_st023X -->
<g id="edge22" class="edge">
<title>ID_105_ct0_st023X&#45;&gt;ID_105_ct0_st023X</title>
<path fill="none" stroke="black" d="M1502.2,-237.18C1501.32,-246.91 1507.92,-255 1522,-255 1530.8,-255 1536.68,-251.84 1539.63,-247.09"/>
<polygon fill="black" stroke="black" points="1543.08,-247.69 1541.8,-237.18 1536.24,-246.2 1543.08,-247.69"/>
<text text-anchor="start" x="1503" y="-258.8" font-family="arial" font-size="14.00" fill="#377eb8">c0 &lt; 5</text>
</g>
<!-- ID_105_ct0_st023X&#45;&gt;ID_105_ct0_st0123X -->
<g id="edge25" class="edge">
<title>ID_105_ct0_st023X&#45;&gt;ID_105_ct0_st0123X</title>
<path fill="none" stroke="black" d="M1481.2,-186.88C1466.81,-178.08 1450.33,-168.33 1435,-160 1414.4,-148.81 1391.47,-137.39 1370.77,-127.46"/>
<polygon fill="black" stroke="black" points="1372.28,-124.3 1361.75,-123.15 1369.27,-130.61 1372.28,-124.3"/>
<text text-anchor="start" x="1397" y="-163.8" font-family="arial" font-size="14.00" fill="#377eb8">c0 &lt; 5</text>
</g>
<!-- ID_105_ct0_st023X&#45;&gt;ID_105_ct0_st023 -->
<g id="edge23" class="edge">
<title>ID_105_ct0_st023X&#45;&gt;ID_105_ct0_st023</title>
<path fill="none" stroke="black" d="M1591.14,-234.83C1649.47,-254.6 1735.58,-284.29 1810,-312 1827.05,-318.35 1845.32,-325.44 1862.44,-332.21"/>
<polygon fill="black" stroke="black" points="1861.23,-335.5 1871.82,-335.93 1863.82,-328.99 1861.23,-335.5"/>
<text text-anchor="start" x="1718.5" y="-315.8" font-family="arial" font-size="14.00" fill="#377eb8">c0 &gt;= 5</text>
</g>
<!-- ID_105_ct0_st023X&#45;&gt;ID_105_ct0_st0123 -->
<g id="edge26" class="edge">
<title>ID_105_ct0_st023X&#45;&gt;ID_105_ct0_st0123</title>
<path fill="none" stroke="black" d="M1559.9,-237.28C1597.35,-262.93 1655.38,-302.69 1695.51,-330.18"/>
<polygon fill="black" stroke="black" points="1693.56,-333.09 1703.79,-335.85 1697.51,-327.31 1693.56,-333.09"/>
<text text-anchor="start" x="1609" y="-302.8" font-family="arial" font-size="14.00" fill="#377eb8">c0 &gt;= 5</text>
</g>
<!-- ID_105_ct0_st0123X&#45;&gt;ID_105_ct0_st012 -->
<g id="edge40" class="edge">
<title>ID_105_ct0_st0123X&#45;&gt;ID_105_ct0_st012</title>
<path fill="none" stroke="black" d="M1232.94,-86.29C1169.61,-79.07 1076.1,-76 1001,-105 961.67,-120.19 926.38,-153.81 903.7,-179.33"/>
<polygon fill="black" stroke="black" points="900.98,-177.12 897.07,-186.97 906.27,-181.71 900.98,-177.12"/>
<text text-anchor="start" x="1025" y="-108.8" font-family="arial" font-size="14.00" fill="#377eb8">(S&#39; || c0 &lt; 5)</text>
</g>
<!-- ID_105_ct0_st0123X&#45;&gt;ID_105_ct0_st02 -->
<g id="edge37" class="edge">
<title>ID_105_ct0_st0123X&#45;&gt;ID_105_ct0_st02</title>
<path fill="none" stroke="black" d="M1232.94,-118.91C1189.83,-131.51 1143.01,-145.44 1141,-147 1136.61,-150.42 1104.3,-205.93 1082.67,-243.58"/>
<polygon fill="black" stroke="black" points="1079.36,-242.31 1077.42,-252.72 1085.43,-245.79 1079.36,-242.31"/>
<text text-anchor="start" x="1141" y="-150.8" font-family="arial" font-size="14.00" fill="#377eb8">(S&#39; || c0 &lt; 5)</text>
</g>
<!-- ID_105_ct0_st0123X&#45;&gt;ID_105_ct0_st023X -->
<g id="edge38" class="edge">
<title>ID_105_ct0_st0123X&#45;&gt;ID_105_ct0_st023X</title>
<path fill="none" stroke="black" d="M1379.07,-104.2C1398.06,-107.9 1417.99,-113.76 1435,-123 1459.78,-136.46 1481.76,-159.52 1497.29,-178.79"/>
<polygon fill="black" stroke="black" points="1494.62,-181.06 1503.54,-186.77 1500.14,-176.74 1494.62,-181.06"/>
<text text-anchor="start" x="1397" y="-126.8" font-family="arial" font-size="14.00" fill="#377eb8">c0 &lt; 5</text>
</g>
<!-- ID_105_ct0_st0123X&#45;&gt;ID_105_ct0_st0123X -->
<g id="edge41" class="edge">
<title>ID_105_ct0_st0123X&#45;&gt;ID_105_ct0_st0123X</title>
<path fill="none" stroke="black" d="M1285.46,-123.18C1284.54,-132.91 1291.39,-141 1306,-141 1315.13,-141 1321.23,-137.84 1324.3,-133.09"/>
<polygon fill="black" stroke="black" points="1327.75,-133.7 1326.54,-123.18 1320.92,-132.15 1327.75,-133.7"/>
<text text-anchor="start" x="1287" y="-144.8" font-family="arial" font-size="14.00" fill="#377eb8">c0 &lt; 5</text>
</g>
<!-- ID_105_ct0_st0123X&#45;&gt;ID_105_ct0_st023 -->
<g id="edge39" class="edge">
<title>ID_105_ct0_st0123X&#45;&gt;ID_105_ct0_st023</title>
<path fill="none" stroke="black" d="M1379.17,-86.78C1437.89,-80.51 1522.04,-78.12 1591,-102 1725.5,-148.58 1849.89,-269.75 1904.43,-328.33"/>
<polygon fill="black" stroke="black" points="1902,-330.86 1911.35,-335.83 1907.14,-326.11 1902,-330.86"/>
<text text-anchor="start" x="1609" y="-132.8" font-family="arial" font-size="14.00" fill="#377eb8">c0 &gt;= 5</text>
</g>
<!-- ID_105_ct0_st0123X&#45;&gt;ID_105_ct0_st0123 -->
<g id="edge42" class="edge">
<title>ID_105_ct0_st0123X&#45;&gt;ID_105_ct0_st0123</title>
<path fill="none" stroke="black" d="M1379.29,-97.14C1441.89,-100.1 1531.5,-113.71 1591,-163 1633.38,-198.11 1632.92,-218.59 1655,-269 1665.3,-292.51 1656.48,-306.27 1671.51,-327.92"/>
<polygon fill="black" stroke="black" points="1668.92,-330.29 1677.89,-335.93 1674.4,-325.93 1668.92,-330.29"/>
<text text-anchor="start" x="1499" y="-166.8" font-family="arial" font-size="14.00" fill="#377eb8">c0 &gt;= 5</text>
</g>
<!-- ID_105_ct0_st023W&#45;&gt;ID_105_ct0_st012 -->
<g id="edge18" class="edge">
<title>ID_105_ct0_st023W&#45;&gt;ID_105_ct0_st012</title>
<path fill="none" stroke="black" d="M748.4,-360.99C764.36,-353.18 780.62,-343.52 794,-332 821.83,-308.04 844.39,-272.45 858.67,-246.24"/>
<polygon fill="black" stroke="black" points="861.76,-247.87 863.36,-237.4 855.58,-244.59 861.76,-247.87"/>
<text text-anchor="start" x="770" y="-350.8" font-family="arial" font-size="14.00" fill="#377eb8">true</text>
</g>
<!-- ID_105_ct0_st023W&#45;&gt;ID_105_ct0_st0123W -->
<g id="edge19" class="edge">
<title>ID_105_ct0_st023W&#45;&gt;ID_105_ct0_st0123W</title>
<path fill="none" stroke="black" d="M629.1,-360.99C616.91,-356.06 603.73,-351.6 591,-349 576.31,-345.99 560.48,-344.48 545.11,-343.89"/>
<polygon fill="black" stroke="black" points="545.17,-340.39 535.08,-343.62 544.99,-347.39 545.17,-340.39"/>
<text text-anchor="start" x="553" y="-352.8" font-family="arial" font-size="14.00" fill="#377eb8">c0 &lt; 5</text>
</g>
<!-- ID_105_ct0_st023W&#45;&gt;ID_105_ct0_st02 -->
<g id="edge15" class="edge">
<title>ID_105_ct0_st023W&#45;&gt;ID_105_ct0_st02</title>
<path fill="none" stroke="black" d="M752.29,-380.62C814.85,-374.02 907.62,-359.65 983,-329 995.78,-323.8 1008.7,-316.41 1020.25,-308.86"/>
<polygon fill="black" stroke="black" points="1022.46,-311.59 1028.79,-303.09 1018.54,-305.79 1022.46,-311.59"/>
<text text-anchor="start" x="864.5" y="-375.8" font-family="arial" font-size="14.00" fill="#377eb8">true</text>
</g>
<!-- ID_105_ct0_st023W&#45;&gt;ID_105_ct0_st023W -->
<g id="edge16" class="edge">
<title>ID_105_ct0_st023W&#45;&gt;ID_105_ct0_st023W</title>
<path fill="none" stroke="black" d="M661.82,-411.18C660.99,-420.91 667.22,-429 680.5,-429 688.8,-429 694.35,-425.84 697.13,-421.09"/>
<polygon fill="black" stroke="black" points="700.59,-421.68 699.18,-411.18 693.73,-420.26 700.59,-421.68"/>
<text text-anchor="start" x="661.5" y="-432.8" font-family="arial" font-size="14.00" fill="#377eb8">c0 &lt; 5</text>
</g>
<!-- ID_105_ct0_st023W&#45;&gt;ID_105_ct0_st023 -->
<g id="edge17" class="edge">
<title>ID_105_ct0_st023W&#45;&gt;ID_105_ct0_st023</title>
<path fill="none" stroke="black" d="M726.49,-411.08C740.16,-417.95 755.42,-424.9 770,-430 788.02,-436.3 793.17,-435.85 812,-439 1078.26,-483.55 1145.04,-512 1415,-512 1415,-512 1415,-512 1742.5,-512 1817.6,-512 1880.45,-439.28 1911.88,-394.77"/>
<polygon fill="black" stroke="black" points="1914.95,-396.49 1917.75,-386.27 1909.19,-392.52 1914.95,-396.49"/>
<text text-anchor="start" x="1283" y="-514.8" font-family="arial" font-size="14.00" fill="#377eb8">c0 &gt;= 5</text>
</g>
<!-- ID_105_ct0_st023W&#45;&gt;ID_105_ct0_st0123 -->
<g id="edge20" class="edge">
<title>ID_105_ct0_st023W&#45;&gt;ID_105_ct0_st0123</title>
<path fill="none" stroke="black" d="M752.12,-408.84C788.56,-418.69 833.97,-428 875.5,-428 875.5,-428 875.5,-428 1179,-428 1391.5,-428 1445.68,-419.59 1655,-383 1657.51,-382.56 1660.05,-382.09 1662.62,-381.58"/>
<polygon fill="black" stroke="black" points="1663.5,-384.97 1672.57,-379.51 1662.07,-378.12 1663.5,-384.97"/>
<text text-anchor="start" x="1155" y="-431.8" font-family="arial" font-size="14.00" fill="#377eb8">c0 &gt;= 5</text>
</g>
<!-- ID_105_ct0_st023&#45;&gt;ID_105_ct0_st012 -->
<g id="edge29" class="edge">
<title>ID_105_ct0_st023&#45;&gt;ID_105_ct0_st012</title>
<path fill="none" stroke="black" d="M1932.08,-335.9C1925.98,-254.04 1894.77,0 1742.5,0 1061,0 1061,0 1061,0 968.32,0 911.99,-117.27 889.21,-177.37"/>
<polygon fill="black" stroke="black" points="885.9,-176.25 885.72,-186.85 892.46,-178.68 885.9,-176.25"/>
<text text-anchor="start" x="1409.5" y="-3.8" font-family="arial" font-size="14.00" fill="#377eb8">S&#39;</text>
</g>
<!-- ID_105_ct0_st023&#45;&gt;ID_105_ct0_st02 -->
<g id="edge27" class="edge">
<title>ID_105_ct0_st023&#45;&gt;ID_105_ct0_st02</title>
<path fill="none" stroke="black" d="M1897.51,-386.04C1873.8,-401.11 1841.44,-419.04 1810,-428 1738.48,-448.37 1203.64,-487.08 1141,-447 1095.05,-417.6 1075.78,-353.49 1067.99,-313.23"/>
<polygon fill="black" stroke="black" points="1071.42,-312.52 1066.21,-303.3 1064.53,-313.76 1071.42,-312.52"/>
<text text-anchor="start" x="1515.5" y="-463.8" font-family="arial" font-size="14.00" fill="#377eb8">S&#39;</text>
</g>
<!-- ID_105_ct0_st023&#45;&gt;ID_105_ct0_st023 -->
<g id="edge28" class="edge">
<title>ID_105_ct0_st023&#45;&gt;ID_105_ct0_st023</title>
<path fill="none" stroke="black" d="M1916.94,-386.18C1916.16,-395.91 1922.02,-404 1934.5,-404 1942.3,-404 1947.51,-400.84 1950.14,-396.09"/>
<polygon fill="black" stroke="black" points="1953.59,-396.66 1952.06,-386.18 1946.72,-395.33 1953.59,-396.66"/>
<text text-anchor="start" x="1922.5" y="-407.8" font-family="arial" font-size="14.00" fill="#377eb8">true</text>
</g>
<!-- ID_105_ct0_st023&#45;&gt;ID_105_ct0_st0123 -->
<g id="edge30" class="edge">
<title>ID_105_ct0_st023&#45;&gt;ID_105_ct0_st0123</title>
<path fill="none" stroke="black" d="M1869.82,-361C1853.94,-361 1836.73,-361 1820.25,-361"/>
<polygon fill="black" stroke="black" points="1820.11,-357.5 1810.11,-361 1820.11,-364.5 1820.11,-357.5"/>
<text text-anchor="start" x="1828" y="-364.8" font-family="arial" font-size="14.00" fill="#377eb8">true</text>
</g>
<!-- ID_105_ct0_st0123&#45;&gt;ID_105_ct0_st012 -->
<g id="edge45" class="edge">
<title>ID_105_ct0_st0123&#45;&gt;ID_105_ct0_st012</title>
<path fill="none" stroke="black" d="M1672.9,-366.25C1513.63,-377.56 1119.34,-399.05 1001,-345 955.41,-324.18 918.8,-277.89 897.61,-245.82"/>
<polygon fill="black" stroke="black" points="900.4,-243.7 892.05,-237.18 894.52,-247.49 900.4,-243.7"/>
<text text-anchor="start" x="1299.5" y="-383.8" font-family="arial" font-size="14.00" fill="#377eb8">S&#39;</text>
</g>
<!-- ID_105_ct0_st0123&#45;&gt;ID_105_ct0_st02 -->
<g id="edge43" class="edge">
<title>ID_105_ct0_st0123&#45;&gt;ID_105_ct0_st02</title>
<path fill="none" stroke="black" d="M1672.97,-356C1575.52,-348.38 1389.92,-332.34 1233,-310 1200.14,-305.32 1163.98,-298.72 1133.48,-292.73"/>
<polygon fill="black" stroke="black" points="1133.86,-289.23 1123.37,-290.72 1132.49,-296.1 1133.86,-289.23"/>
<text text-anchor="start" x="1409.5" y="-337.8" font-family="arial" font-size="14.00" fill="#377eb8">S&#39;</text>
</g>
<!-- ID_105_ct0_st0123&#45;&gt;ID_105_ct0_st023 -->
<g id="edge44" class="edge">
<title>ID_105_ct0_st0123&#45;&gt;ID_105_ct0_st023</title>
<path fill="none" stroke="black" d="M1810.08,-343.12C1823.91,-341.2 1838.39,-340.43 1852,-342 1854.53,-342.29 1857.09,-342.63 1859.67,-343.01"/>
<polygon fill="black" stroke="black" points="1859.24,-346.49 1869.68,-344.66 1860.38,-339.58 1859.24,-346.49"/>
<text text-anchor="start" x="1828" y="-345.8" font-family="arial" font-size="14.00" fill="#377eb8">true</text>
</g>
<!-- ID_105_ct0_st0123&#45;&gt;ID_105_ct0_st0123 -->
<g id="edge46" class="edge">
<title>ID_105_ct0_st0123&#45;&gt;ID_105_ct0_st0123</title>
<path fill="none" stroke="black" d="M1723.2,-386.18C1722.38,-395.91 1728.48,-404 1741.5,-404 1749.63,-404 1755.07,-400.84 1757.8,-396.09"/>
<polygon fill="black" stroke="black" points="1761.26,-396.67 1759.8,-386.18 1754.39,-395.29 1761.26,-396.67"/>
<text text-anchor="start" x="1729.5" y="-407.8" font-family="arial" font-size="14.00" fill="#377eb8">true</text>
</g>
</g>
</svg>
