<?xml version="1.0" encoding="UTF-8" standalone="no"?>
<!DOCTYPE svg PUBLIC "-//W3C//DTD SVG 1.1//EN"
 "http://www.w3.org/Graphics/SVG/1.1/DTD/svg11.dtd">
<!-- Generated by graphviz version 2.43.0 (0)
 -->
<!-- Title: G Pages: 1 -->
<svg width="610pt" height="256pt"
 viewBox="0.00 0.00 610.00 256.00" xmlns="http://www.w3.org/2000/svg" xmlns:xlink="http://www.w3.org/1999/xlink">
<g id="graph0" class="graph" transform="scale(1 1) rotate(0) translate(4 252)">
<title>G</title>
<polygon fill="white" stroke="transparent" points="-4,4 -4,-252 606,-252 606,4 -4,4"/>
<!-- _stinit -->
<!-- stinit -->
<g id="node2" class="node">
<title>stinit</title>
<polygon fill="none" stroke="black" points="174.5,-215 120.5,-215 120.5,-165 174.5,-165 174.5,-215"/>
<text text-anchor="start" x="131" y="-200.8" font-family="arial" font-weight="bold" font-size="14.00">stinit</text>
<text text-anchor="start" x="141.5" y="-186.8" font-family="arial" font-size="14.00" fill="#984ea3">Q</text>
<text text-anchor="start" x="135.5" y="-172.8" font-family="arial" font-size="14.00" fill="#ff7f00">true</text>
</g>
<!-- _stinit&#45;&gt;stinit -->
<g id="edge1" class="edge">
<title>_stinit&#45;&gt;stinit</title>
<path fill="none" stroke="black" d="M54.01,-190C70.41,-190 91.84,-190 109.94,-190"/>
<polygon fill="black" stroke="black" points="110.15,-193.5 120.15,-190 110.15,-186.5 110.15,-193.5"/>
</g>
<!-- stinit&#45;&gt;stinit -->
<g id="edge5" class="edge">
<title>stinit&#45;&gt;stinit</title>
<path fill="none" stroke="black" d="M133.68,-215.18C133.06,-224.91 137.67,-233 147.5,-233 153.64,-233 157.75,-229.84 159.81,-225.09"/>
<polygon fill="black" stroke="black" points="163.27,-225.59 161.32,-215.18 156.35,-224.53 163.27,-225.59"/>
<text text-anchor="start" x="135.5" y="-236.8" font-family="arial" font-size="14.00" fill="#377eb8">true</text>
</g>
<!-- st -->
<g id="node7" class="node">
<title>st</title>
<polygon fill="none" stroke="black" points="380.5,-208 326.5,-208 326.5,-158 380.5,-158 380.5,-208"/>
<text text-anchor="start" x="347" y="-193.8" font-family="arial" font-weight="bold" font-size="14.00">st</text>
<text text-anchor="start" x="341.5" y="-179.8" font-family="arial" font-size="14.00" fill="#984ea3">true</text>
<text text-anchor="start" x="341.5" y="-165.8" font-family="arial" font-size="14.00" fill="#ff7f00">true</text>
</g>
<!-- stinit&#45;&gt;st -->
<g id="edge4" class="edge">
<title>stinit&#45;&gt;st</title>
<path fill="none" stroke="black" d="M174.75,-189.1C210.79,-187.86 275.71,-185.63 316.33,-184.24"/>
<polygon fill="black" stroke="black" points="316.47,-187.74 326.35,-183.9 316.23,-180.74 316.47,-187.74"/>
<text text-anchor="start" x="236" y="-190.8" font-family="arial" font-size="14.00" fill="#377eb8">true</text>
</g>
<!-- _st0 -->
<!-- st0 -->
<g id="node4" class="node">
<title>st0</title>
<polygon fill="none" stroke="black" points="204,-114 91,-114 91,-64 204,-64 204,-114"/>
<text text-anchor="start" x="137.5" y="-99.8" font-family="arial" font-weight="bold" font-size="14.00">st0</text>
<text text-anchor="start" x="99" y="-85.8" font-family="arial" font-size="14.00" fill="#984ea3">(!Q &amp;&amp; (R || !S))</text>
<text text-anchor="start" x="135.5" y="-71.8" font-family="arial" font-size="14.00" fill="#ff7f00">true</text>
</g>
<!-- _st0&#45;&gt;st0 -->
<g id="edge2" class="edge">
<title>_st0&#45;&gt;st0</title>
<path fill="none" stroke="black" d="M54.01,-89C62.01,-89 71.21,-89 80.64,-89"/>
<polygon fill="black" stroke="black" points="80.91,-92.5 90.91,-89 80.91,-85.5 80.91,-92.5"/>
</g>
<!-- st0&#45;&gt;st0 -->
<g id="edge8" class="edge">
<title>st0&#45;&gt;st0</title>
<path fill="none" stroke="black" d="M133.68,-114.18C133.06,-123.91 137.67,-132 147.5,-132 153.64,-132 157.75,-128.84 159.81,-124.09"/>
<polygon fill="black" stroke="black" points="163.27,-124.59 161.32,-114.18 156.35,-123.53 163.27,-124.59"/>
<text text-anchor="start" x="135.5" y="-135.8" font-family="arial" font-size="14.00" fill="#377eb8">true</text>
</g>
<!-- st012 -->
<g id="node6" class="node">
<title>st012</title>
<polygon fill="none" stroke="black" points="415,-50 292,-50 292,0 415,0 415,-50"/>
<text text-anchor="start" x="336" y="-35.8" font-family="arial" font-weight="bold" font-size="14.00">st012</text>
<text text-anchor="start" x="300" y="-21.8" font-family="arial" font-size="14.00" fill="#984ea3">(!Q &amp;&amp; (!R &amp;&amp; S))</text>
<text text-anchor="start" x="341.5" y="-7.8" font-family="arial" font-size="14.00" fill="#ff7f00">true</text>
</g>
<!-- st0&#45;&gt;st012 -->
<g id="edge9" class="edge">
<title>st0&#45;&gt;st012</title>
<path fill="none" stroke="black" d="M193.56,-64C202.78,-59.55 212.56,-55.29 222,-52 241.06,-45.36 262.29,-40.11 282,-36.07"/>
<polygon fill="black" stroke="black" points="282.7,-39.5 291.84,-34.13 281.35,-32.63 282.7,-39.5"/>
<text text-anchor="start" x="236" y="-55.8" font-family="arial" font-size="14.00" fill="#377eb8">true</text>
</g>
<!-- st0&#45;&gt;st -->
<g id="edge7" class="edge">
<title>st0&#45;&gt;st</title>
<path fill="none" stroke="black" d="M191.56,-114.18C201.44,-119.63 211.99,-125.2 222,-130 253.28,-145.01 289.97,-159.66 316.47,-169.74"/>
<polygon fill="black" stroke="black" points="315.5,-173.11 326.09,-173.37 317.97,-166.57 315.5,-173.11"/>
<text text-anchor="start" x="240.5" y="-154.8" font-family="arial" font-size="14.00" fill="#377eb8">Q&#39;</text>
</g>
<!-- _st012 -->
<!-- _st012&#45;&gt;st012 -->
<g id="edge3" class="edge">
<title>_st012&#45;&gt;st012</title>
<path fill="none" stroke="black" d="M176.01,-18.94C202.95,-19.87 245.14,-21.32 281.51,-22.56"/>
<polygon fill="black" stroke="black" points="281.48,-26.06 291.59,-22.91 281.72,-19.07 281.48,-26.06"/>
</g>
<!-- st012&#45;&gt;st0 -->
<g id="edge13" class="edge">
<title>st012&#45;&gt;st0</title>
<path fill="none" stroke="black" d="M311.66,-50.01C299.85,-56.36 286.71,-62.61 274,-67 255.04,-73.55 233.76,-78.22 214.19,-81.52"/>
<polygon fill="black" stroke="black" points="213.45,-78.09 204.13,-83.12 214.55,-85 213.45,-78.09"/>
<text text-anchor="start" x="222" y="-82.8" font-family="arial" font-size="14.00" fill="#377eb8">(Q&#39; || R&#39;)</text>
</g>
<!-- st012&#45;&gt;st012 -->
<g id="edge15" class="edge">
<title>st012&#45;&gt;st012</title>
<path fill="none" stroke="black" d="M336.69,-50.18C335.94,-59.91 341.55,-68 353.5,-68 360.97,-68 365.96,-64.84 368.47,-60.09"/>
<polygon fill="black" stroke="black" points="371.93,-60.65 370.31,-50.18 365.04,-59.37 371.93,-60.65"/>
<text text-anchor="start" x="341.5" y="-71.8" font-family="arial" font-size="14.00" fill="#377eb8">true</text>
</g>
<!-- st02 -->
<g id="node8" class="node">
<title>st02</title>
<polygon fill="none" stroke="black" points="602,-88 475,-88 475,-38 602,-38 602,-88"/>
<text text-anchor="start" x="524.5" y="-73.8" font-family="arial" font-weight="bold" font-size="14.00">st02</text>
<text text-anchor="start" x="483" y="-59.8" font-family="arial" font-size="14.00" fill="#984ea3">(!Q &amp;&amp; (!R &amp;&amp; !S))</text>
<text text-anchor="start" x="526.5" y="-45.8" font-family="arial" font-size="14.00" fill="#ff7f00">true</text>
</g>
<!-- st012&#45;&gt;st02 -->
<g id="edge14" class="edge">
<title>st012&#45;&gt;st02</title>
<path fill="none" stroke="black" d="M415.18,-37.6C431.04,-40.89 448.29,-44.47 464.7,-47.88"/>
<polygon fill="black" stroke="black" points="464.29,-51.37 474.79,-49.98 465.71,-44.52 464.29,-51.37"/>
<text text-anchor="start" x="433" y="-49.8" font-family="arial" font-size="14.00" fill="#377eb8">true</text>
</g>
<!-- st&#45;&gt;st -->
<g id="edge6" class="edge">
<title>st&#45;&gt;st</title>
<path fill="none" stroke="black" d="M336.69,-208.18C335.94,-217.91 341.55,-226 353.5,-226 360.97,-226 365.96,-222.84 368.47,-218.09"/>
<polygon fill="black" stroke="black" points="371.93,-218.65 370.31,-208.18 365.04,-217.37 371.93,-218.65"/>
<text text-anchor="start" x="341.5" y="-229.8" font-family="arial" font-size="14.00" fill="#377eb8">true</text>
</g>
<!-- st02&#45;&gt;st0 -->
<g id="edge10" class="edge">
<title>st02&#45;&gt;st0</title>
<path fill="none" stroke="black" d="M474.98,-80.21C455.87,-84.82 434.7,-89.27 415,-92 414.99,-92 276.27,-101.31 222,-98 219.47,-97.85 216.9,-97.66 214.3,-97.45"/>
<polygon fill="black" stroke="black" points="214.49,-93.96 204.22,-96.55 213.86,-100.93 214.49,-93.96"/>
<text text-anchor="start" x="327.5" y="-101.8" font-family="arial" font-size="14.00" fill="#377eb8">(Q&#39; || R&#39;)</text>
</g>
<!-- st02&#45;&gt;st012 -->
<g id="edge12" class="edge">
<title>st02&#45;&gt;st012</title>
<path fill="none" stroke="black" d="M491.42,-37.82C480.45,-32.97 468.56,-28.59 457,-26 446.87,-23.73 436.03,-22.44 425.33,-21.81"/>
<polygon fill="black" stroke="black" points="425.28,-18.31 415.15,-21.39 424.99,-25.3 425.28,-18.31"/>
<text text-anchor="start" x="433" y="-29.8" font-family="arial" font-size="14.00" fill="#377eb8">true</text>
</g>
<!-- st02&#45;&gt;st02 -->
<g id="edge11" class="edge">
<title>st02&#45;&gt;st02</title>
<path fill="none" stroke="black" d="M521.32,-88.18C520.55,-97.91 526.28,-106 538.5,-106 546.14,-106 551.24,-102.84 553.8,-98.09"/>
<polygon fill="black" stroke="black" points="557.26,-98.65 555.68,-88.18 550.38,-97.35 557.26,-98.65"/>
<text text-anchor="start" x="526.5" y="-109.8" font-family="arial" font-size="14.00" fill="#377eb8">true</text>
</g>
</g>
</svg>
