<?xml version="1.0" encoding="UTF-8" standalone="no"?>
<!DOCTYPE svg PUBLIC "-//W3C//DTD SVG 1.1//EN"
 "http://www.w3.org/Graphics/SVG/1.1/DTD/svg11.dtd">
<!-- Generated by graphviz version 2.43.0 (0)
 -->
<!-- Title: G Pages: 1 -->
<svg width="1766pt" height="526pt"
 viewBox="0.00 0.00 1766.00 526.00" xmlns="http://www.w3.org/2000/svg" xmlns:xlink="http://www.w3.org/1999/xlink">
<g id="graph0" class="graph" transform="scale(1 1) rotate(0) translate(4 522)">
<title>G</title>
<polygon fill="white" stroke="transparent" points="-4,4 -4,-522 1762,-522 1762,4 -4,4"/>
<!-- _ID_102_ct0_st -->
<!-- ID_102_ct0_st -->
<g id="node2" class="node">
<title>ID_102_ct0_st</title>
<polygon fill="none" stroke="black" points="1758,-313 1651,-313 1651,-263 1758,-263 1758,-313"/>
<text text-anchor="start" x="1659" y="-298.8" font-family="arial" font-weight="bold" font-size="14.00">ID_102_ct0_st</text>
<text text-anchor="start" x="1692.5" y="-284.8" font-family="arial" font-size="14.00" fill="#984ea3">true</text>
<text text-anchor="start" x="1692.5" y="-270.8" font-family="arial" font-size="14.00" fill="#ff7f00">true</text>
</g>
<!-- _ID_102_ct0_st&#45;&gt;ID_102_ct0_st -->
<g id="edge1" class="edge">
<title>_ID_102_ct0_st&#45;&gt;ID_102_ct0_st</title>
<path fill="none" stroke="black" d="M1593.42,-490.18C1607.69,-485.43 1622.1,-478.4 1633,-468 1673.87,-428.99 1691.48,-363.45 1698.74,-323.14"/>
<polygon fill="black" stroke="black" points="1702.2,-323.66 1700.41,-313.22 1695.3,-322.5 1702.2,-323.66"/>
</g>
<!-- ID_102_ct0_st&#45;&gt;ID_102_ct0_st -->
<g id="edge4" class="edge">
<title>ID_102_ct0_st&#45;&gt;ID_102_ct0_st</title>
<path fill="none" stroke="black" d="M1689.93,-313.18C1689.28,-322.91 1694.14,-331 1704.5,-331 1710.97,-331 1715.3,-327.84 1717.47,-323.09"/>
<polygon fill="black" stroke="black" points="1720.94,-323.6 1719.07,-313.18 1714.03,-322.49 1720.94,-323.6"/>
<text text-anchor="start" x="1692.5" y="-334.8" font-family="arial" font-size="14.00" fill="#377eb8">true</text>
</g>
<!-- _ID_102_ct0_st0 -->
<!-- ID_102_ct0_st0 -->
<g id="node4" class="node">
<title>ID_102_ct0_st0</title>
<polygon fill="none" stroke="black" points="486,-358 372,-358 372,-308 486,-308 486,-358"/>
<text text-anchor="start" x="380" y="-343.8" font-family="arial" font-weight="bold" font-size="14.00">ID_102_ct0_st0</text>
<text text-anchor="start" x="398.5" y="-329.8" font-family="arial" font-size="14.00" fill="#984ea3">(!P &amp;&amp; !R)</text>
<text text-anchor="start" x="417" y="-315.8" font-family="arial" font-size="14.00" fill="#ff7f00">true</text>
</g>
<!-- _ID_102_ct0_st0&#45;&gt;ID_102_ct0_st0 -->
<g id="edge2" class="edge">
<title>_ID_102_ct0_st0&#45;&gt;ID_102_ct0_st0</title>
<path fill="none" stroke="black" d="M304.25,-333C322.54,-333 342.83,-333 361.6,-333"/>
<polygon fill="black" stroke="black" points="361.85,-336.5 371.85,-333 361.85,-329.5 361.85,-336.5"/>
</g>
<!-- ID_102_ct0_st0&#45;&gt;ID_102_ct0_st -->
<g id="edge5" class="edge">
<title>ID_102_ct0_st0&#45;&gt;ID_102_ct0_st</title>
<path fill="none" stroke="black" d="M468.29,-307.93C525.68,-271.86 638.66,-206.64 745,-179 857,-149.89 889.28,-165 1005,-165 1005,-165 1005,-165 1538.5,-165 1598.79,-165 1651.29,-218.44 1680.07,-254.87"/>
<polygon fill="black" stroke="black" points="1677.31,-257.02 1686.19,-262.81 1682.86,-252.75 1677.31,-257.02"/>
<text text-anchor="start" x="1157.5" y="-168.8" font-family="arial" font-size="14.00" fill="#377eb8">P&#39;</text>
</g>
<!-- ID_102_ct0_st0&#45;&gt;ID_102_ct0_st0 -->
<g id="edge6" class="edge">
<title>ID_102_ct0_st0&#45;&gt;ID_102_ct0_st0</title>
<path fill="none" stroke="black" d="M412.94,-358.18C412.22,-367.91 417.58,-376 429,-376 436.14,-376 440.91,-372.84 443.31,-368.09"/>
<polygon fill="black" stroke="black" points="446.76,-368.63 445.06,-358.18 439.87,-367.41 446.76,-368.63"/>
<text text-anchor="start" x="417" y="-379.8" font-family="arial" font-size="14.00" fill="#377eb8">true</text>
</g>
<!-- ID_102_ct0_st01X -->
<g id="node7" class="node">
<title>ID_102_ct0_st01X</title>
<polygon fill="none" stroke="black" points="727,-358 596,-358 596,-308 727,-308 727,-358"/>
<text text-anchor="start" x="604" y="-343.8" font-family="arial" font-weight="bold" font-size="14.00">ID_102_ct0_st01X</text>
<text text-anchor="start" x="632.5" y="-329.8" font-family="arial" font-size="14.00" fill="#984ea3">(!P &amp;&amp; R)</text>
<text text-anchor="start" x="638.5" y="-315.8" font-family="arial" font-size="14.00" fill="#ff7f00">c0 &lt;= 5</text>
</g>
<!-- ID_102_ct0_st0&#45;&gt;ID_102_ct0_st01X -->
<g id="edge7" class="edge">
<title>ID_102_ct0_st0&#45;&gt;ID_102_ct0_st01X</title>
<path fill="none" stroke="black" d="M486.09,-333C516.03,-333 553.28,-333 585.66,-333"/>
<polygon fill="black" stroke="black" points="585.99,-336.5 595.99,-333 585.99,-329.5 585.99,-336.5"/>
<text text-anchor="start" x="529" y="-351.8" font-family="arial" font-size="14.00" fill="#377eb8">true</text>
<text text-anchor="start" x="522" y="-336.8" font-family="arial" font-size="14.00">c0 :=0</text>
</g>
<!-- _ID_102_ct0_st01W -->
<!-- ID_102_ct0_st01W -->
<g id="node6" class="node">
<title>ID_102_ct0_st01W</title>
<polygon fill="none" stroke="black" points="312,-127 177,-127 177,-77 312,-77 312,-127"/>
<text text-anchor="start" x="185" y="-112.8" font-family="arial" font-weight="bold" font-size="14.00">ID_102_ct0_st01W</text>
<text text-anchor="start" x="215.5" y="-98.8" font-family="arial" font-size="14.00" fill="#984ea3">(!P &amp;&amp; R)</text>
<text text-anchor="start" x="221.5" y="-84.8" font-family="arial" font-size="14.00" fill="#ff7f00">c0 &lt;= 5</text>
</g>
<!-- _ID_102_ct0_st01W&#45;&gt;ID_102_ct0_st01W -->
<g id="edge3" class="edge">
<title>_ID_102_ct0_st01W&#45;&gt;ID_102_ct0_st01W</title>
<path fill="none" stroke="black" d="M140.17,-102C148.86,-102 157.79,-102 166.59,-102"/>
<polygon fill="black" stroke="black" points="166.84,-105.5 176.84,-102 166.84,-98.5 166.84,-105.5"/>
</g>
<!-- ID_102_ct0_st01W&#45;&gt;ID_102_ct0_st -->
<g id="edge8" class="edge">
<title>ID_102_ct0_st01W&#45;&gt;ID_102_ct0_st</title>
<path fill="none" stroke="black" d="M270.81,-76.79C303.94,-46.58 365.21,0 428,0 428,0 428,0 1538.5,0 1653.8,0 1689.66,-175.94 1699.83,-252.79"/>
<polygon fill="black" stroke="black" points="1696.38,-253.46 1701.1,-262.95 1703.33,-252.59 1696.38,-253.46"/>
<text text-anchor="start" x="999.5" y="-3.8" font-family="arial" font-size="14.00" fill="#377eb8">P&#39;</text>
</g>
<!-- ID_102_ct0_st01W&#45;&gt;ID_102_ct0_st0 -->
<g id="edge9" class="edge">
<title>ID_102_ct0_st01W&#45;&gt;ID_102_ct0_st0</title>
<path fill="none" stroke="black" d="M265.38,-127.16C298.5,-169.08 364.96,-253.2 401.84,-299.88"/>
<polygon fill="black" stroke="black" points="399.2,-302.19 408.15,-307.87 404.69,-297.85 399.2,-302.19"/>
<text text-anchor="start" x="330" y="-242.8" font-family="arial" font-size="14.00" fill="#377eb8">true</text>
</g>
<!-- ID_102_ct0_st01W&#45;&gt;ID_102_ct0_st01W -->
<g id="edge10" class="edge">
<title>ID_102_ct0_st01W&#45;&gt;ID_102_ct0_st01W</title>
<path fill="none" stroke="black" d="M228.44,-127.18C227.72,-136.91 233.08,-145 244.5,-145 251.64,-145 256.41,-141.84 258.81,-137.09"/>
<polygon fill="black" stroke="black" points="262.26,-137.63 260.56,-127.18 255.37,-136.41 262.26,-137.63"/>
<text text-anchor="start" x="225.5" y="-148.8" font-family="arial" font-size="14.00" fill="#377eb8">c0 &lt; 5</text>
</g>
<!-- ID_102_ct0_st01 -->
<g id="node8" class="node">
<title>ID_102_ct0_st01</title>
<polygon fill="none" stroke="black" points="722.5,-155 600.5,-155 600.5,-105 722.5,-105 722.5,-155"/>
<text text-anchor="start" x="608.5" y="-140.8" font-family="arial" font-weight="bold" font-size="14.00">ID_102_ct0_st01</text>
<text text-anchor="start" x="609" y="-126.8" font-family="arial" font-size="14.00" fill="#984ea3">(!P &amp;&amp; (R &amp;&amp; !S))</text>
<text text-anchor="start" x="649.5" y="-112.8" font-family="arial" font-size="14.00" fill="#ff7f00">true</text>
</g>
<!-- ID_102_ct0_st01W&#45;&gt;ID_102_ct0_st01 -->
<g id="edge11" class="edge">
<title>ID_102_ct0_st01W&#45;&gt;ID_102_ct0_st01</title>
<path fill="none" stroke="black" d="M312.18,-106.5C388.38,-111.64 512.55,-120.02 590.22,-125.26"/>
<polygon fill="black" stroke="black" points="590.18,-128.76 600.39,-125.94 590.65,-121.78 590.18,-128.76"/>
<text text-anchor="start" x="406" y="-121.8" font-family="arial" font-size="14.00" fill="#377eb8">c0 &gt;= 5</text>
</g>
<!-- ID_102_ct0_st012 -->
<g id="node9" class="node">
<title>ID_102_ct0_st012</title>
<polygon fill="none" stroke="black" points="1602,-243 1473,-243 1473,-193 1602,-193 1602,-243"/>
<text text-anchor="start" x="1481" y="-228.8" font-family="arial" font-weight="bold" font-size="14.00">ID_102_ct0_st012</text>
<text text-anchor="start" x="1487" y="-214.8" font-family="arial" font-size="14.00" fill="#984ea3">(!P &amp;&amp; (R &amp;&amp; S))</text>
<text text-anchor="start" x="1525.5" y="-200.8" font-family="arial" font-size="14.00" fill="#ff7f00">true</text>
</g>
<!-- ID_102_ct0_st01W&#45;&gt;ID_102_ct0_st012 -->
<g id="edge12" class="edge">
<title>ID_102_ct0_st01W&#45;&gt;ID_102_ct0_st012</title>
<path fill="none" stroke="black" d="M312.04,-100.52C382.54,-99.04 497.11,-96.85 596,-96 654.22,-95.5 668.78,-95.84 727,-96 807,-96.22 827.03,-94.63 907,-97 1047.59,-101.17 1082.65,-104.8 1223,-114 1297.73,-118.9 1319.87,-103.58 1391,-127 1430.37,-139.96 1469.91,-165.71 1497.82,-186.52"/>
<polygon fill="black" stroke="black" points="1496.01,-189.54 1506.09,-192.8 1500.24,-183.96 1496.01,-189.54"/>
<text text-anchor="start" x="803" y="-100.8" font-family="arial" font-size="14.00" fill="#377eb8">c0 &gt;= 5</text>
</g>
<!-- ID_102_ct0_st01X&#45;&gt;ID_102_ct0_st -->
<g id="edge13" class="edge">
<title>ID_102_ct0_st01X&#45;&gt;ID_102_ct0_st</title>
<path fill="none" stroke="black" d="M689.6,-358C704.86,-370.82 724.84,-385.66 745,-395 852.52,-444.81 886.51,-454 1005,-454 1005,-454 1005,-454 1538.5,-454 1612.02,-454 1664.04,-371.08 1688.22,-322.45"/>
<polygon fill="black" stroke="black" points="1691.49,-323.74 1692.69,-313.21 1685.19,-320.69 1691.49,-323.74"/>
<text text-anchor="start" x="1309.5" y="-457.8" font-family="arial" font-size="14.00" fill="#377eb8">P&#39;</text>
</g>
<!-- ID_102_ct0_st01X&#45;&gt;ID_102_ct0_st0 -->
<g id="edge14" class="edge">
<title>ID_102_ct0_st01X&#45;&gt;ID_102_ct0_st0</title>
<path fill="none" stroke="black" d="M595.89,-316.66C589.87,-315.58 583.84,-314.66 578,-314 545.32,-310.29 536.63,-309.88 504,-314 501.47,-314.32 498.9,-314.7 496.31,-315.13"/>
<polygon fill="black" stroke="black" points="495.47,-311.72 486.28,-317 496.75,-318.6 495.47,-311.72"/>
<text text-anchor="start" x="504" y="-317.8" font-family="arial" font-size="14.00" fill="#377eb8">(P&#39; || c0 &lt; 5)</text>
</g>
<!-- ID_102_ct0_st01X&#45;&gt;ID_102_ct0_st01X -->
<g id="edge16" class="edge">
<title>ID_102_ct0_st01X&#45;&gt;ID_102_ct0_st01X</title>
<path fill="none" stroke="black" d="M639.09,-358.18C638.09,-367.91 645.56,-376 661.5,-376 671.46,-376 678.11,-372.84 681.46,-368.09"/>
<polygon fill="black" stroke="black" points="684.91,-368.72 683.91,-358.18 678.11,-367.04 684.91,-368.72"/>
<text text-anchor="start" x="642.5" y="-379.8" font-family="arial" font-size="14.00" fill="#377eb8">c0 &lt; 5</text>
</g>
<!-- ID_102_ct0_st01X&#45;&gt;ID_102_ct0_st012 -->
<g id="edge17" class="edge">
<title>ID_102_ct0_st01X&#45;&gt;ID_102_ct0_st012</title>
<path fill="none" stroke="black" d="M694.92,-307.73C709.49,-297.59 727.34,-286.73 745,-280 1022.01,-174.46 1112.58,-219.65 1409,-217 1426.39,-216.84 1445.12,-216.88 1462.73,-217"/>
<polygon fill="black" stroke="black" points="1462.92,-220.5 1472.94,-217.08 1462.97,-213.5 1462.92,-220.5"/>
<text text-anchor="start" x="1141" y="-217.8" font-family="arial" font-size="14.00" fill="#377eb8">c0 &gt;= 5</text>
</g>
<!-- ID_102_ct0_st02 -->
<g id="node10" class="node">
<title>ID_102_ct0_st02</title>
<polygon fill="none" stroke="black" points="1067,-333 945,-333 945,-283 1067,-283 1067,-333"/>
<text text-anchor="start" x="953" y="-318.8" font-family="arial" font-weight="bold" font-size="14.00">ID_102_ct0_st02</text>
<text text-anchor="start" x="953.5" y="-304.8" font-family="arial" font-size="14.00" fill="#984ea3">(!P &amp;&amp; (!R &amp;&amp; S))</text>
<text text-anchor="start" x="979" y="-290.8" font-family="arial" font-size="14.00" fill="#ff7f00">c1 &lt;= 10</text>
</g>
<!-- ID_102_ct0_st01X&#45;&gt;ID_102_ct0_st02 -->
<g id="edge15" class="edge">
<title>ID_102_ct0_st01X&#45;&gt;ID_102_ct0_st02</title>
<path fill="none" stroke="black" d="M704.82,-307.98C717.33,-301.84 731.35,-296.14 745,-293 808.13,-278.5 882.03,-284.93 934.88,-293.4"/>
<polygon fill="black" stroke="black" points="934.38,-296.87 944.82,-295.06 935.53,-289.96 934.38,-296.87"/>
<text text-anchor="start" x="803" y="-311.8" font-family="arial" font-size="14.00" fill="#377eb8">c0 &gt;= 5</text>
<text text-anchor="start" x="807" y="-296.8" font-family="arial" font-size="14.00">c1 :=0</text>
</g>
<!-- ID_102_ct0_st01&#45;&gt;ID_102_ct0_st -->
<g id="edge18" class="edge">
<title>ID_102_ct0_st01&#45;&gt;ID_102_ct0_st</title>
<path fill="none" stroke="black" d="M684.32,-104.89C699.58,-89.24 721.39,-70.35 745,-61 852.62,-18.38 889.25,-46 1005,-46 1005,-46 1005,-46 1538.5,-46 1637.21,-46 1681.09,-185.14 1696.54,-252.41"/>
<polygon fill="black" stroke="black" points="1693.21,-253.55 1698.78,-262.56 1700.04,-252.04 1693.21,-253.55"/>
<text text-anchor="start" x="1309.5" y="-49.8" font-family="arial" font-size="14.00" fill="#377eb8">P&#39;</text>
</g>
<!-- ID_102_ct0_st01&#45;&gt;ID_102_ct0_st012 -->
<g id="edge20" class="edge">
<title>ID_102_ct0_st01&#45;&gt;ID_102_ct0_st012</title>
<path fill="none" stroke="black" d="M722.55,-124.62C825.49,-116.55 1042.05,-104.61 1223,-128 1307.22,-138.89 1400.36,-167.91 1463.06,-190.08"/>
<polygon fill="black" stroke="black" points="1462.26,-193.51 1472.86,-193.57 1464.62,-186.92 1462.26,-193.51"/>
<text text-anchor="start" x="1152" y="-131.8" font-family="arial" font-size="14.00" fill="#377eb8">true</text>
</g>
<!-- ID_102_ct0_st01&#45;&gt;ID_102_ct0_st02 -->
<g id="edge19" class="edge">
<title>ID_102_ct0_st01&#45;&gt;ID_102_ct0_st02</title>
<path fill="none" stroke="black" d="M716.53,-155.03C766.49,-178.52 842.52,-215.16 907,-250 922.85,-258.56 939.83,-268.38 955.13,-277.47"/>
<polygon fill="black" stroke="black" points="953.54,-280.6 963.92,-282.72 957.14,-274.59 953.54,-280.6"/>
<text text-anchor="start" x="814" y="-268.8" font-family="arial" font-size="14.00" fill="#377eb8">true</text>
<text text-anchor="start" x="807" y="-253.8" font-family="arial" font-size="14.00">c1 :=0</text>
</g>
<!-- ID_102_ct0_st012&#45;&gt;ID_102_ct0_st -->
<g id="edge33" class="edge">
<title>ID_102_ct0_st012&#45;&gt;ID_102_ct0_st</title>
<path fill="none" stroke="black" d="M1597.6,-243.07C1611.86,-249.12 1627.14,-255.61 1641.53,-261.71"/>
<polygon fill="black" stroke="black" points="1640.26,-264.97 1650.84,-265.66 1643,-258.53 1640.26,-264.97"/>
<text text-anchor="start" x="1620" y="-260.8" font-family="arial" font-size="14.00" fill="#377eb8">P&#39;</text>
</g>
<!-- ID_102_ct0_st012&#45;&gt;ID_102_ct0_st012 -->
<g id="edge35" class="edge">
<title>ID_102_ct0_st012&#45;&gt;ID_102_ct0_st012</title>
<path fill="none" stroke="black" d="M1521.06,-243.18C1520.33,-252.91 1525.81,-261 1537.5,-261 1544.8,-261 1549.68,-257.84 1552.14,-253.09"/>
<polygon fill="black" stroke="black" points="1555.6,-253.64 1553.94,-243.18 1548.71,-252.39 1555.6,-253.64"/>
<text text-anchor="start" x="1525.5" y="-264.8" font-family="arial" font-size="14.00" fill="#377eb8">true</text>
</g>
<!-- ID_102_ct0_st012&#45;&gt;ID_102_ct0_st02 -->
<g id="edge34" class="edge">
<title>ID_102_ct0_st012&#45;&gt;ID_102_ct0_st02</title>
<path fill="none" stroke="black" d="M1472.91,-219.26C1387.8,-222.26 1232.73,-232.32 1105,-266 1092.38,-269.33 1079.27,-274.01 1066.91,-279.05"/>
<polygon fill="black" stroke="black" points="1065.48,-275.85 1057.62,-282.95 1068.19,-282.3 1065.48,-275.85"/>
<text text-anchor="start" x="1304" y="-257.8" font-family="arial" font-size="14.00" fill="#377eb8">true</text>
<text text-anchor="start" x="1297" y="-242.8" font-family="arial" font-size="14.00">c1 :=0</text>
</g>
<!-- ID_102_ct0_st02&#45;&gt;ID_102_ct0_st -->
<g id="edge21" class="edge">
<title>ID_102_ct0_st02&#45;&gt;ID_102_ct0_st</title>
<path fill="none" stroke="black" d="M1035.3,-333.01C1053.82,-347.86 1079.26,-365.57 1105,-375 1162.06,-395.9 1180.32,-385.88 1241,-389 1307.58,-392.42 1325.03,-398.64 1391,-389 1487.84,-374.85 1509.23,-357.18 1602,-326 1614.72,-321.73 1628.23,-316.88 1641.1,-312.12"/>
<polygon fill="black" stroke="black" points="1642.65,-315.28 1650.8,-308.51 1640.21,-308.72 1642.65,-315.28"/>
<text text-anchor="start" x="1425.5" y="-389.8" font-family="arial" font-size="14.00" fill="#377eb8">P&#39;</text>
</g>
<!-- ID_102_ct0_st02&#45;&gt;ID_102_ct0_st0 -->
<g id="edge22" class="edge">
<title>ID_102_ct0_st02&#45;&gt;ID_102_ct0_st0</title>
<path fill="none" stroke="black" d="M968.77,-333C950.88,-344.3 928.56,-356.9 907,-365 776.79,-413.92 733.04,-423.83 596,-400 557.68,-393.34 517.16,-377.18 485.74,-362.4"/>
<polygon fill="black" stroke="black" points="487.24,-359.24 476.71,-358.07 484.22,-365.55 487.24,-359.24"/>
<text text-anchor="start" x="616.5" y="-415.8" font-family="arial" font-size="14.00" fill="#377eb8">(P&#39; || c1 &gt;= 10)</text>
</g>
<!-- ID_102_ct0_st02&#45;&gt;ID_102_ct0_st01X -->
<g id="edge24" class="edge">
<title>ID_102_ct0_st02&#45;&gt;ID_102_ct0_st01X</title>
<path fill="none" stroke="black" d="M944.75,-318.3C932.3,-320.12 919.25,-321.82 907,-323 850.25,-328.49 785.81,-330.97 737.33,-332.09"/>
<polygon fill="black" stroke="black" points="737.16,-328.59 727.24,-332.31 737.31,-335.59 737.16,-328.59"/>
<text text-anchor="start" x="781" y="-349.8" font-family="arial" font-size="14.00" fill="#377eb8">(P&#39; || c1 &gt;= 10)</text>
<text text-anchor="start" x="807" y="-334.8" font-family="arial" font-size="14.00">c0 :=0</text>
</g>
<!-- ID_102_ct0_st02&#45;&gt;ID_102_ct0_st02 -->
<g id="edge23" class="edge">
<title>ID_102_ct0_st02&#45;&gt;ID_102_ct0_st02</title>
<path fill="none" stroke="black" d="M976.49,-333.18C975.18,-342.91 985.02,-351 1006,-351 1019.12,-351 1027.88,-347.84 1032.28,-343.09"/>
<polygon fill="black" stroke="black" points="1035.74,-343.77 1035.51,-333.18 1029.09,-341.6 1035.74,-343.77"/>
<text text-anchor="start" x="983" y="-354.8" font-family="arial" font-size="14.00" fill="#377eb8">c1 &lt; 10</text>
</g>
<!-- ID_102_ct0_st01X2 -->
<g id="node11" class="node">
<title>ID_102_ct0_st01X2</title>
<polygon fill="none" stroke="black" points="1391,-347 1241,-347 1241,-297 1391,-297 1391,-347"/>
<text text-anchor="start" x="1255" y="-332.8" font-family="arial" font-weight="bold" font-size="14.00">ID_102_ct0_st01X2</text>
<text text-anchor="start" x="1265.5" y="-318.8" font-family="arial" font-size="14.00" fill="#984ea3">(!P &amp;&amp; (R &amp;&amp; S))</text>
<text text-anchor="start" x="1249" y="-304.8" font-family="arial" font-size="14.00" fill="#ff7f00">(c0 &lt;= 5 &amp;&amp; c1 &lt;= 10)</text>
</g>
<!-- ID_102_ct0_st02&#45;&gt;ID_102_ct0_st01X2 -->
<g id="edge25" class="edge">
<title>ID_102_ct0_st02&#45;&gt;ID_102_ct0_st01X2</title>
<path fill="none" stroke="black" d="M1067.12,-310.73C1113.73,-312.85 1178.89,-315.81 1230.71,-318.17"/>
<polygon fill="black" stroke="black" points="1230.74,-321.67 1240.89,-318.63 1231.06,-314.68 1230.74,-321.67"/>
<text text-anchor="start" x="1141" y="-335.8" font-family="arial" font-size="14.00" fill="#377eb8">c1 &lt; 10</text>
<text text-anchor="start" x="1145" y="-320.8" font-family="arial" font-size="14.00">c0 :=0</text>
</g>
<!-- ID_102_ct0_st01X2&#45;&gt;ID_102_ct0_st -->
<g id="edge26" class="edge">
<title>ID_102_ct0_st01X2&#45;&gt;ID_102_ct0_st</title>
<path fill="none" stroke="black" d="M1391.06,-315.48C1463.41,-309.12 1572.32,-299.54 1640.59,-293.53"/>
<polygon fill="black" stroke="black" points="1641.11,-297 1650.77,-292.64 1640.5,-290.03 1641.11,-297"/>
<text text-anchor="start" x="1531" y="-310.8" font-family="arial" font-size="14.00" fill="#377eb8">P&#39;</text>
</g>
<!-- ID_102_ct0_st01X2&#45;&gt;ID_102_ct0_st0 -->
<g id="edge27" class="edge">
<title>ID_102_ct0_st01X2&#45;&gt;ID_102_ct0_st0</title>
<path fill="none" stroke="black" d="M1292.46,-347.16C1275.17,-364.89 1249.8,-387.75 1223,-401 1030.7,-496.09 957.93,-494.04 745,-468 634.16,-454.44 600.14,-453.79 504,-397 489.1,-388.2 474.35,-376.27 461.97,-365.1"/>
<polygon fill="black" stroke="black" points="464.32,-362.5 454.6,-358.27 459.56,-367.63 464.32,-362.5"/>
<text text-anchor="start" x="745" y="-485.8" font-family="arial" font-size="14.00" fill="#377eb8">(P&#39; || (c0 &lt; 5 &amp;&amp; c1 &gt;= 10))</text>
</g>
<!-- ID_102_ct0_st01X2&#45;&gt;ID_102_ct0_st01X -->
<g id="edge30" class="edge">
<title>ID_102_ct0_st01X2&#45;&gt;ID_102_ct0_st01X</title>
<path fill="none" stroke="black" d="M1281.08,-347.26C1264.48,-358.08 1243.66,-369.48 1223,-375 1017.72,-429.9 952.7,-409.87 745,-365 740.06,-363.93 735.02,-362.61 730,-361.12"/>
<polygon fill="black" stroke="black" points="730.98,-357.76 720.39,-358.06 728.86,-364.43 730.98,-357.76"/>
<text text-anchor="start" x="925" y="-411.8" font-family="arial" font-size="14.00" fill="#377eb8">(P&#39; || (c0 &lt; 5 &amp;&amp; c1 &gt;= 10))</text>
</g>
<!-- ID_102_ct0_st01X2&#45;&gt;ID_102_ct0_st012 -->
<g id="edge32" class="edge">
<title>ID_102_ct0_st01X2&#45;&gt;ID_102_ct0_st012</title>
<path fill="none" stroke="black" d="M1379.43,-296.88C1403.31,-286.86 1430.65,-274.89 1455,-263 1464.47,-258.38 1474.39,-253.19 1483.94,-248.03"/>
<polygon fill="black" stroke="black" points="1485.84,-250.98 1492.94,-243.11 1482.48,-244.84 1485.84,-250.98"/>
<text text-anchor="start" x="1409" y="-286.8" font-family="arial" font-size="14.00" fill="#377eb8">c0 &gt;= 5</text>
</g>
<!-- ID_102_ct0_st01X2&#45;&gt;ID_102_ct0_st02 -->
<g id="edge28" class="edge">
<title>ID_102_ct0_st01X2&#45;&gt;ID_102_ct0_st02</title>
<path fill="none" stroke="black" d="M1272.46,-296.79C1257.37,-289.19 1239.92,-281.84 1223,-278 1171.85,-266.4 1156.87,-270.24 1105,-278 1095.79,-279.38 1086.25,-281.45 1076.91,-283.86"/>
<polygon fill="black" stroke="black" points="1075.98,-280.49 1067.25,-286.5 1077.82,-287.24 1075.98,-280.49"/>
<text text-anchor="start" x="1141" y="-296.8" font-family="arial" font-size="14.00" fill="#377eb8">c0 &gt;= 5</text>
<text text-anchor="start" x="1145" y="-281.8" font-family="arial" font-size="14.00">c1 :=0</text>
</g>
<!-- ID_102_ct0_st01X2&#45;&gt;ID_102_ct0_st02 -->
<g id="edge29" class="edge">
<title>ID_102_ct0_st01X2&#45;&gt;ID_102_ct0_st02</title>
<path fill="none" stroke="black" d="M1240.86,-346.59C1234.87,-347.96 1228.86,-349.13 1223,-350 1171.13,-357.72 1156.37,-360.54 1105,-350 1091.43,-347.21 1077.42,-342.47 1064.39,-337.15"/>
<polygon fill="black" stroke="black" points="1065.66,-333.88 1055.09,-333.19 1062.92,-340.33 1065.66,-333.88"/>
<text text-anchor="start" x="1105" y="-359.8" font-family="arial" font-size="14.00" fill="#377eb8">(c0 &lt; 5 &amp;&amp; c1 &lt; 10)</text>
</g>
<!-- ID_102_ct0_st01X2&#45;&gt;ID_102_ct0_st01X2 -->
<g id="edge31" class="edge">
<title>ID_102_ct0_st01X2&#45;&gt;ID_102_ct0_st01X2</title>
<path fill="none" stroke="black" d="M1294.33,-347.18C1293.37,-356.91 1300.59,-365 1316,-365 1325.63,-365 1332.06,-361.84 1335.3,-357.09"/>
<polygon fill="black" stroke="black" points="1338.75,-357.72 1337.67,-347.18 1331.94,-356.09 1338.75,-357.72"/>
<text text-anchor="start" x="1257" y="-368.8" font-family="arial" font-size="14.00" fill="#377eb8">(c0 &lt; 5 &amp;&amp; c1 &lt; 10)</text>
</g>
</g>
</svg>
