<?xml version="1.0" encoding="UTF-8" standalone="no"?>
<!DOCTYPE svg PUBLIC "-//W3C//DTD SVG 1.1//EN"
 "http://www.w3.org/Graphics/SVG/1.1/DTD/svg11.dtd">
<!-- Generated by graphviz version 2.43.0 (0)
 -->
<!-- Title: G Pages: 1 -->
<svg width="1778pt" height="546pt"
 viewBox="0.00 0.00 1778.00 546.00" xmlns="http://www.w3.org/2000/svg" xmlns:xlink="http://www.w3.org/1999/xlink">
<g id="graph0" class="graph" transform="scale(1 1) rotate(0) translate(4 542)">
<title>G</title>
<polygon fill="white" stroke="transparent" points="-4,4 -4,-542 1774,-542 1774,4 -4,4"/>
<!-- _ID_109_ct0_st0 -->
<!-- ID_109_ct0_st0 -->
<g id="node2" class="node">
<title>ID_109_ct0_st0</title>
<polygon fill="none" stroke="black" points="280.5,-270 166.5,-270 166.5,-220 280.5,-220 280.5,-270"/>
<text text-anchor="start" x="174.5" y="-255.8" font-family="arial" font-weight="bold" font-size="14.00">ID_109_ct0_st0</text>
<text text-anchor="start" x="216.5" y="-241.8" font-family="arial" font-size="14.00" fill="#984ea3">!R</text>
<text text-anchor="start" x="211.5" y="-227.8" font-family="arial" font-size="14.00" fill="#ff7f00">true</text>
</g>
<!-- _ID_109_ct0_st0&#45;&gt;ID_109_ct0_st0 -->
<g id="edge1" class="edge">
<title>_ID_109_ct0_st0&#45;&gt;ID_109_ct0_st0</title>
<path fill="none" stroke="black" d="M119.44,-245C131.39,-245 144.03,-245 156.2,-245"/>
<polygon fill="black" stroke="black" points="156.3,-248.5 166.3,-245 156.3,-241.5 156.3,-248.5"/>
</g>
<!-- ID_109_ct0_st0&#45;&gt;ID_109_ct0_st0 -->
<g id="edge3" class="edge">
<title>ID_109_ct0_st0&#45;&gt;ID_109_ct0_st0</title>
<path fill="none" stroke="black" d="M207.44,-270.18C206.72,-279.91 212.08,-288 223.5,-288 230.64,-288 235.41,-284.84 237.81,-280.09"/>
<polygon fill="black" stroke="black" points="241.26,-280.63 239.56,-270.18 234.37,-279.41 241.26,-280.63"/>
<text text-anchor="start" x="211.5" y="-291.8" font-family="arial" font-size="14.00" fill="#377eb8">true</text>
</g>
<!-- ID_109_ct0_st01X -->
<g id="node4" class="node">
<title>ID_109_ct0_st01X</title>
<polygon fill="none" stroke="black" points="496,-184 365,-184 365,-134 496,-134 496,-184"/>
<text text-anchor="start" x="373" y="-169.8" font-family="arial" font-weight="bold" font-size="14.00">ID_109_ct0_st01X</text>
<text text-anchor="start" x="425.5" y="-155.8" font-family="arial" font-size="14.00" fill="#984ea3">R</text>
<text text-anchor="start" x="407.5" y="-141.8" font-family="arial" font-size="14.00" fill="#ff7f00">c0 &lt;= 5</text>
</g>
<!-- ID_109_ct0_st0&#45;&gt;ID_109_ct0_st01X -->
<g id="edge4" class="edge">
<title>ID_109_ct0_st0&#45;&gt;ID_109_ct0_st01X</title>
<path fill="none" stroke="black" d="M241.66,-219.88C256.79,-200.11 280.79,-173.95 309,-162 323.15,-156.01 339.09,-153.21 354.64,-152.26"/>
<polygon fill="black" stroke="black" points="354.91,-155.75 364.77,-151.89 354.65,-148.75 354.91,-155.75"/>
<text text-anchor="start" x="316" y="-180.8" font-family="arial" font-size="14.00" fill="#377eb8">true</text>
<text text-anchor="start" x="309" y="-165.8" font-family="arial" font-size="14.00">c0 :=0</text>
</g>
<!-- _ID_109_ct0_st01X -->
<!-- _ID_109_ct0_st01X&#45;&gt;ID_109_ct0_st01X -->
<g id="edge2" class="edge">
<title>_ID_109_ct0_st01X&#45;&gt;ID_109_ct0_st01X</title>
<path fill="none" stroke="black" d="M250.88,-36.14C284.6,-59.34 343.5,-99.85 384.4,-127.98"/>
<polygon fill="black" stroke="black" points="382.62,-131 392.84,-133.79 386.59,-125.23 382.62,-131"/>
</g>
<!-- ID_109_ct0_st01X&#45;&gt;ID_109_ct0_st0 -->
<g id="edge5" class="edge">
<title>ID_109_ct0_st01X&#45;&gt;ID_109_ct0_st0</title>
<path fill="none" stroke="black" d="M369.6,-184.13C344.55,-194.64 315.37,-206.88 289.77,-217.62"/>
<polygon fill="black" stroke="black" points="288.38,-214.4 280.52,-221.5 291.09,-220.86 288.38,-214.4"/>
<text text-anchor="start" x="316" y="-210.8" font-family="arial" font-size="14.00" fill="#377eb8">true</text>
</g>
<!-- ID_109_ct0_st01X&#45;&gt;ID_109_ct0_st01X -->
<g id="edge6" class="edge">
<title>ID_109_ct0_st01X&#45;&gt;ID_109_ct0_st01X</title>
<path fill="none" stroke="black" d="M411.45,-184.18C410.6,-193.91 416.95,-202 430.5,-202 438.97,-202 444.62,-198.84 447.47,-194.09"/>
<polygon fill="black" stroke="black" points="450.92,-194.68 449.55,-184.18 444.07,-193.24 450.92,-194.68"/>
<text text-anchor="start" x="411.5" y="-205.8" font-family="arial" font-size="14.00" fill="#377eb8">c0 &lt; 5</text>
</g>
<!-- ID_109_ct0_st01 -->
<g id="node5" class="node">
<title>ID_109_ct0_st01</title>
<polygon fill="none" stroke="black" points="1770,-403 1648,-403 1648,-353 1770,-353 1770,-403"/>
<text text-anchor="start" x="1656" y="-388.8" font-family="arial" font-weight="bold" font-size="14.00">ID_109_ct0_st01</text>
<text text-anchor="start" x="1664" y="-374.8" font-family="arial" font-size="14.00" fill="#984ea3">(R &amp;&amp; (T || !S))</text>
<text text-anchor="start" x="1697" y="-360.8" font-family="arial" font-size="14.00" fill="#ff7f00">true</text>
</g>
<!-- ID_109_ct0_st01X&#45;&gt;ID_109_ct0_st01 -->
<g id="edge7" class="edge">
<title>ID_109_ct0_st01X&#45;&gt;ID_109_ct0_st01</title>
<path fill="none" stroke="black" d="M474.67,-133.89C518.01,-111.09 587.44,-81 652,-81 652,-81 652,-81 1445,-81 1583.87,-81 1667.13,-265.23 1696.24,-343.5"/>
<polygon fill="black" stroke="black" points="1692.97,-344.74 1699.68,-352.93 1699.54,-342.34 1692.97,-344.74"/>
<text text-anchor="start" x="1011" y="-84.8" font-family="arial" font-size="14.00" fill="#377eb8">c0 &gt;= 5</text>
</g>
<!-- ID_109_ct0_st0123W -->
<g id="node6" class="node">
<title>ID_109_ct0_st0123W</title>
<polygon fill="none" stroke="black" points="728,-330 578,-330 578,-280 728,-280 728,-330"/>
<text text-anchor="start" x="586" y="-315.8" font-family="arial" font-weight="bold" font-size="14.00">ID_109_ct0_st0123W</text>
<text text-anchor="start" x="603" y="-301.8" font-family="arial" font-size="14.00" fill="#984ea3">(R &amp;&amp; (S &amp;&amp; !T))</text>
<text text-anchor="start" x="626" y="-287.8" font-family="arial" font-size="14.00" fill="#ff7f00">c1 &lt;= 10</text>
</g>
<!-- ID_109_ct0_st01X&#45;&gt;ID_109_ct0_st0123W -->
<g id="edge8" class="edge">
<title>ID_109_ct0_st01X&#45;&gt;ID_109_ct0_st0123W</title>
<path fill="none" stroke="black" d="M496.18,-167.9C517.68,-172.93 540.97,-180.78 560,-193 590.68,-212.71 616.11,-245.99 632.4,-271.17"/>
<polygon fill="black" stroke="black" points="629.48,-273.1 637.77,-279.7 635.4,-269.37 629.48,-273.1"/>
<text text-anchor="start" x="514" y="-211.8" font-family="arial" font-size="14.00" fill="#377eb8">c0 &gt;= 5</text>
<text text-anchor="start" x="518" y="-196.8" font-family="arial" font-size="14.00">c1 :=0</text>
</g>
<!-- ID_109_ct0_st01&#45;&gt;ID_109_ct0_st0 -->
<g id="edge9" class="edge">
<title>ID_109_ct0_st01&#45;&gt;ID_109_ct0_st0</title>
<path fill="none" stroke="black" d="M1682.94,-403.26C1638.91,-444.8 1543.02,-523 1445,-523 429.5,-523 429.5,-523 429.5,-523 310.08,-523 252.41,-354.79 232.68,-280.06"/>
<polygon fill="black" stroke="black" points="236.01,-278.98 230.14,-270.16 229.23,-280.72 236.01,-278.98"/>
<text text-anchor="start" x="869.5" y="-526.8" font-family="arial" font-size="14.00" fill="#377eb8">true</text>
</g>
<!-- ID_109_ct0_st01&#45;&gt;ID_109_ct0_st01 -->
<g id="edge10" class="edge">
<title>ID_109_ct0_st01&#45;&gt;ID_109_ct0_st01</title>
<path fill="none" stroke="black" d="M1685.84,-403.18C1684.81,-412.91 1692.53,-421 1709,-421 1719.29,-421 1726.17,-417.84 1729.63,-413.09"/>
<polygon fill="black" stroke="black" points="1733.08,-413.73 1732.16,-403.18 1726.29,-412 1733.08,-413.73"/>
<text text-anchor="start" x="1697" y="-424.8" font-family="arial" font-size="14.00" fill="#377eb8">true</text>
</g>
<!-- ID_109_ct0_st01&#45;&gt;ID_109_ct0_st0123W -->
<g id="edge11" class="edge">
<title>ID_109_ct0_st01&#45;&gt;ID_109_ct0_st0123W</title>
<path fill="none" stroke="black" d="M1647.81,-386.27C1594.58,-392.86 1514.78,-401 1445,-401 880.5,-401 880.5,-401 880.5,-401 812.43,-401 741.33,-363.79 697.35,-335.71"/>
<polygon fill="black" stroke="black" points="699.22,-332.74 688.93,-330.22 695.4,-338.61 699.22,-332.74"/>
<text text-anchor="start" x="1170.5" y="-419.8" font-family="arial" font-size="14.00" fill="#377eb8">true</text>
<text text-anchor="start" x="1163.5" y="-404.8" font-family="arial" font-size="14.00">c1 :=0</text>
</g>
<!-- ID_109_ct0_st0123W&#45;&gt;ID_109_ct0_st0 -->
<g id="edge28" class="edge">
<title>ID_109_ct0_st0123W&#45;&gt;ID_109_ct0_st0</title>
<path fill="none" stroke="black" d="M577.97,-295.74C508.44,-286.89 401.54,-272.87 309,-259 303.16,-258.12 297.1,-257.18 291.02,-256.22"/>
<polygon fill="black" stroke="black" points="291.25,-252.71 280.82,-254.58 290.14,-259.62 291.25,-252.71"/>
<text text-anchor="start" x="424.5" y="-288.8" font-family="arial" font-size="14.00" fill="#377eb8">T&#39;</text>
</g>
<!-- ID_109_ct0_st0123W&#45;&gt;ID_109_ct0_st01 -->
<g id="edge30" class="edge">
<title>ID_109_ct0_st0123W&#45;&gt;ID_109_ct0_st01</title>
<path fill="none" stroke="black" d="M676.95,-330.06C694.44,-347.94 719.89,-371.47 746,-387 771.98,-402.45 780.46,-403.6 810,-410 1118.41,-476.83 1205.39,-439.52 1520,-415 1568.9,-411.19 1582.06,-416.38 1630,-406 1632.68,-405.42 1635.39,-404.77 1638.11,-404.07"/>
<polygon fill="black" stroke="black" points="1639.3,-407.37 1647.99,-401.31 1637.42,-400.63 1639.3,-407.37"/>
<text text-anchor="start" x="1176.5" y="-450.8" font-family="arial" font-size="14.00" fill="#377eb8">T&#39;</text>
</g>
<!-- ID_109_ct0_st0123W&#45;&gt;ID_109_ct0_st0123W -->
<g id="edge32" class="edge">
<title>ID_109_ct0_st0123W&#45;&gt;ID_109_ct0_st0123W</title>
<path fill="none" stroke="black" d="M631.33,-330.18C630.37,-339.91 637.59,-348 653,-348 662.63,-348 669.06,-344.84 672.3,-340.09"/>
<polygon fill="black" stroke="black" points="675.75,-340.72 674.67,-330.18 668.94,-339.09 675.75,-340.72"/>
<text text-anchor="start" x="630" y="-351.8" font-family="arial" font-size="14.00" fill="#377eb8">c1 &lt; 10</text>
</g>
<!-- ID_109_ct0_st03W -->
<g id="node7" class="node">
<title>ID_109_ct0_st03W</title>
<polygon fill="none" stroke="black" points="1250,-294 1115,-294 1115,-244 1250,-244 1250,-294"/>
<text text-anchor="start" x="1123" y="-279.8" font-family="arial" font-weight="bold" font-size="14.00">ID_109_ct0_st03W</text>
<text text-anchor="start" x="1152" y="-265.8" font-family="arial" font-size="14.00" fill="#984ea3">(!R &amp;&amp; !T)</text>
<text text-anchor="start" x="1155.5" y="-251.8" font-family="arial" font-size="14.00" fill="#ff7f00">c1 &lt;= 10</text>
</g>
<!-- ID_109_ct0_st0123W&#45;&gt;ID_109_ct0_st03W -->
<g id="edge29" class="edge">
<title>ID_109_ct0_st0123W&#45;&gt;ID_109_ct0_st03W</title>
<path fill="none" stroke="black" d="M728.31,-318.8C754.07,-322.83 783.21,-326.54 810,-328 873.46,-331.46 889.95,-336.01 953,-328 1004.58,-321.45 1061.17,-306.89 1105.13,-293.88"/>
<polygon fill="black" stroke="black" points="1106.31,-297.18 1114.88,-290.96 1104.3,-290.48 1106.31,-297.18"/>
<text text-anchor="start" x="840.5" y="-335.8" font-family="arial" font-size="14.00" fill="#377eb8">(R&#39; || c1 &lt; 10)</text>
</g>
<!-- ID_109_ct0_st013W -->
<g id="node9" class="node">
<title>ID_109_ct0_st013W</title>
<polygon fill="none" stroke="black" points="953,-286 810,-286 810,-236 953,-236 953,-286"/>
<text text-anchor="start" x="818" y="-271.8" font-family="arial" font-weight="bold" font-size="14.00">ID_109_ct0_st013W</text>
<text text-anchor="start" x="829.5" y="-257.8" font-family="arial" font-size="14.00" fill="#984ea3">(R &amp;&amp; (!S &amp;&amp; !T))</text>
<text text-anchor="start" x="854.5" y="-243.8" font-family="arial" font-size="14.00" fill="#ff7f00">c1 &lt;= 10</text>
</g>
<!-- ID_109_ct0_st0123W&#45;&gt;ID_109_ct0_st013W -->
<g id="edge31" class="edge">
<title>ID_109_ct0_st0123W&#45;&gt;ID_109_ct0_st013W</title>
<path fill="none" stroke="black" d="M728.01,-304.42C748.89,-303.11 771.5,-300.6 792,-296 799.59,-294.29 807.39,-292.03 815.06,-289.47"/>
<polygon fill="black" stroke="black" points="816.4,-292.71 824.67,-286.1 814.08,-286.11 816.4,-292.71"/>
<text text-anchor="start" x="746" y="-305.8" font-family="arial" font-size="14.00" fill="#377eb8">c1 &lt; 10</text>
</g>
<!-- ID_109_ct0_st03W&#45;&gt;ID_109_ct0_st0 -->
<g id="edge12" class="edge">
<title>ID_109_ct0_st03W&#45;&gt;ID_109_ct0_st0</title>
<path fill="none" stroke="black" d="M1163.31,-294.09C1120.88,-349.41 1009.29,-477 882.5,-477 429.5,-477 429.5,-477 429.5,-477 325.46,-477 261.55,-344.37 236.57,-279.67"/>
<polygon fill="black" stroke="black" points="239.83,-278.39 233.03,-270.27 233.28,-280.86 239.83,-278.39"/>
<text text-anchor="start" x="647" y="-480.8" font-family="arial" font-size="14.00" fill="#377eb8">T&#39;</text>
</g>
<!-- ID_109_ct0_st03W&#45;&gt;ID_109_ct0_st01X -->
<g id="edge14" class="edge">
<title>ID_109_ct0_st03W&#45;&gt;ID_109_ct0_st01X</title>
<path fill="none" stroke="black" d="M1114.65,-255.89C1069.16,-247.17 1007.56,-235.76 953,-227 778.92,-199.06 734.99,-194.55 560,-173 542.68,-170.87 524.04,-168.74 506.46,-166.81"/>
<polygon fill="black" stroke="black" points="506.57,-163.3 496.25,-165.7 505.82,-170.26 506.57,-163.3"/>
<text text-anchor="start" x="763" y="-220.8" font-family="arial" font-size="14.00" fill="#377eb8">T&#39;</text>
<text text-anchor="start" x="750" y="-205.8" font-family="arial" font-size="14.00">c0 :=0</text>
</g>
<!-- ID_109_ct0_st03W&#45;&gt;ID_109_ct0_st03W -->
<g id="edge13" class="edge">
<title>ID_109_ct0_st03W&#45;&gt;ID_109_ct0_st03W</title>
<path fill="none" stroke="black" d="M1158.97,-294.18C1157.92,-303.91 1165.77,-312 1182.5,-312 1192.96,-312 1199.95,-308.84 1203.46,-304.09"/>
<polygon fill="black" stroke="black" points="1206.91,-304.73 1206.03,-294.18 1200.13,-302.98 1206.91,-304.73"/>
<text text-anchor="start" x="1159.5" y="-315.8" font-family="arial" font-size="14.00" fill="#377eb8">c1 &lt; 10</text>
</g>
<!-- ID_109_ct0_st01X3W -->
<g id="node8" class="node">
<title>ID_109_ct0_st01X3W</title>
<polygon fill="none" stroke="black" points="1520,-236 1368,-236 1368,-186 1520,-186 1520,-236"/>
<text text-anchor="start" x="1376" y="-221.8" font-family="arial" font-weight="bold" font-size="14.00">ID_109_ct0_st01X3W</text>
<text text-anchor="start" x="1415.5" y="-207.8" font-family="arial" font-size="14.00" fill="#984ea3">(R &amp;&amp; !T)</text>
<text text-anchor="start" x="1377" y="-193.8" font-family="arial" font-size="14.00" fill="#ff7f00">(c0 &lt;= 5 &amp;&amp; c1 &lt;= 10)</text>
</g>
<!-- ID_109_ct0_st03W&#45;&gt;ID_109_ct0_st01X3W -->
<g id="edge15" class="edge">
<title>ID_109_ct0_st03W&#45;&gt;ID_109_ct0_st01X3W</title>
<path fill="none" stroke="black" d="M1250.24,-249.48C1256.23,-247.9 1262.21,-246.38 1268,-245 1297.08,-238.06 1329.14,-231.51 1357.78,-226.05"/>
<polygon fill="black" stroke="black" points="1358.58,-229.47 1367.76,-224.17 1357.28,-222.59 1358.58,-229.47"/>
<text text-anchor="start" x="1286" y="-263.8" font-family="arial" font-size="14.00" fill="#377eb8">c1 &lt; 10</text>
<text text-anchor="start" x="1290" y="-248.8" font-family="arial" font-size="14.00">c0 :=0</text>
</g>
<!-- ID_109_ct0_st01X3W&#45;&gt;ID_109_ct0_st0 -->
<g id="edge16" class="edge">
<title>ID_109_ct0_st01X3W&#45;&gt;ID_109_ct0_st0</title>
<path fill="none" stroke="black" d="M1422.72,-185.85C1382.47,-138.98 1287.35,-43 1183.5,-43 429.5,-43 429.5,-43 429.5,-43 335.08,-43 268.35,-153.08 239.88,-210.71"/>
<polygon fill="black" stroke="black" points="236.68,-209.3 235.48,-219.82 242.98,-212.34 236.68,-209.3"/>
<text text-anchor="start" x="763" y="-46.8" font-family="arial" font-size="14.00" fill="#377eb8">T&#39;</text>
</g>
<!-- ID_109_ct0_st01X3W&#45;&gt;ID_109_ct0_st01X -->
<g id="edge18" class="edge">
<title>ID_109_ct0_st01X3W&#45;&gt;ID_109_ct0_st01X</title>
<path fill="none" stroke="black" d="M1395.7,-185.8C1344.78,-161.05 1260.69,-127 1183.5,-127 652,-127 652,-127 652,-127 603.12,-127 548.77,-134.8 506.25,-142.69"/>
<polygon fill="black" stroke="black" points="505.44,-139.29 496.27,-144.59 506.75,-146.16 505.44,-139.29"/>
<text text-anchor="start" x="839.5" y="-130.8" font-family="arial" font-size="14.00" fill="#377eb8">(T&#39; &amp;&amp; c0 &lt; 5)</text>
</g>
<!-- ID_109_ct0_st01X3W&#45;&gt;ID_109_ct0_st01 -->
<g id="edge20" class="edge">
<title>ID_109_ct0_st01X3W&#45;&gt;ID_109_ct0_st01</title>
<path fill="none" stroke="black" d="M1486.38,-236.21C1524.03,-259.26 1581.03,-294.47 1630,-326 1640.58,-332.81 1651.89,-340.26 1662.51,-347.32"/>
<polygon fill="black" stroke="black" points="1660.6,-350.26 1670.86,-352.89 1664.49,-344.43 1660.6,-350.26"/>
<text text-anchor="start" x="1538" y="-329.8" font-family="arial" font-size="14.00" fill="#377eb8">(T&#39; &amp;&amp; c0 &gt;= 5)</text>
</g>
<!-- ID_109_ct0_st01X3W&#45;&gt;ID_109_ct0_st0123W -->
<g id="edge22" class="edge">
<title>ID_109_ct0_st01X3W&#45;&gt;ID_109_ct0_st0123W</title>
<path fill="none" stroke="black" d="M1367.71,-199.76C1246.83,-184.58 1003.41,-165.94 810,-227 772.97,-238.69 733.9,-258.24 704.12,-274.84"/>
<polygon fill="black" stroke="black" points="702.17,-271.92 695.19,-279.89 705.61,-278.02 702.17,-271.92"/>
<text text-anchor="start" x="971" y="-196.8" font-family="arial" font-size="14.00" fill="#377eb8">(c0 &gt;= 5 &amp;&amp; c1 &lt; 10)</text>
</g>
<!-- ID_109_ct0_st01X3W&#45;&gt;ID_109_ct0_st03W -->
<g id="edge17" class="edge">
<title>ID_109_ct0_st01X3W&#45;&gt;ID_109_ct0_st03W</title>
<path fill="none" stroke="black" d="M1416.07,-236.1C1398.66,-250.54 1374.71,-267.32 1350,-275 1321.46,-283.87 1288.84,-284.6 1260.08,-282.32"/>
<polygon fill="black" stroke="black" points="1260.36,-278.83 1250.08,-281.4 1259.71,-285.8 1260.36,-278.83"/>
<text text-anchor="start" x="1268" y="-286.8" font-family="arial" font-size="14.00" fill="#377eb8">(R&#39; || c1 &lt; 10)</text>
</g>
<!-- ID_109_ct0_st01X3W&#45;&gt;ID_109_ct0_st01X3W -->
<g id="edge19" class="edge">
<title>ID_109_ct0_st01X3W&#45;&gt;ID_109_ct0_st01X3W</title>
<path fill="none" stroke="black" d="M1418.97,-236.18C1417.86,-245.91 1426.2,-254 1444,-254 1455.12,-254 1462.55,-250.84 1466.29,-246.09"/>
<polygon fill="black" stroke="black" points="1469.74,-246.75 1469.03,-236.18 1462.99,-244.88 1469.74,-246.75"/>
<text text-anchor="start" x="1385" y="-257.8" font-family="arial" font-size="14.00" fill="#377eb8">(c0 &lt; 5 &amp;&amp; c1 &lt; 10)</text>
</g>
<!-- ID_109_ct0_st01X3W&#45;&gt;ID_109_ct0_st013W -->
<g id="edge21" class="edge">
<title>ID_109_ct0_st01X3W&#45;&gt;ID_109_ct0_st013W</title>
<path fill="none" stroke="black" d="M1367.89,-209.93C1301.28,-209.72 1201.43,-211.24 1115,-220 1064.1,-225.16 1007.57,-235.03 963,-243.8"/>
<polygon fill="black" stroke="black" points="962.22,-240.38 953.1,-245.76 963.59,-247.25 962.22,-240.38"/>
<text text-anchor="start" x="1119.5" y="-223.8" font-family="arial" font-size="14.00" fill="#377eb8">(c0 &gt;= 5 &amp;&amp; c1 &lt; 10)</text>
</g>
<!-- ID_109_ct0_st013W&#45;&gt;ID_109_ct0_st0 -->
<g id="edge23" class="edge">
<title>ID_109_ct0_st013W&#45;&gt;ID_109_ct0_st0</title>
<path fill="none" stroke="black" d="M809.89,-259.28C682.35,-256.17 415.24,-249.65 290.86,-246.62"/>
<polygon fill="black" stroke="black" points="290.8,-243.12 280.71,-246.37 290.63,-250.11 290.8,-243.12"/>
<text text-anchor="start" x="531" y="-256.8" font-family="arial" font-size="14.00" fill="#377eb8">T&#39;</text>
</g>
<!-- ID_109_ct0_st013W&#45;&gt;ID_109_ct0_st01 -->
<g id="edge25" class="edge">
<title>ID_109_ct0_st013W&#45;&gt;ID_109_ct0_st01</title>
<path fill="none" stroke="black" d="M946.05,-286.1C992.18,-303.18 1056.5,-324.67 1115,-336 1301.2,-372.08 1525.64,-378 1637.47,-378.47"/>
<polygon fill="black" stroke="black" points="1637.6,-381.97 1647.61,-378.5 1637.62,-374.97 1637.6,-381.97"/>
<text text-anchor="start" x="1303" y="-369.8" font-family="arial" font-size="14.00" fill="#377eb8">T&#39;</text>
</g>
<!-- ID_109_ct0_st013W&#45;&gt;ID_109_ct0_st0123W -->
<g id="edge27" class="edge">
<title>ID_109_ct0_st013W&#45;&gt;ID_109_ct0_st0123W</title>
<path fill="none" stroke="black" d="M809.75,-270.06C789.11,-273.1 766.59,-276.8 746,-281 743.36,-281.54 740.69,-282.11 737.99,-282.7"/>
<polygon fill="black" stroke="black" points="737.13,-279.3 728.15,-284.92 738.68,-286.13 737.13,-279.3"/>
<text text-anchor="start" x="746" y="-284.8" font-family="arial" font-size="14.00" fill="#377eb8">c1 &lt; 10</text>
</g>
<!-- ID_109_ct0_st013W&#45;&gt;ID_109_ct0_st03W -->
<g id="edge24" class="edge">
<title>ID_109_ct0_st013W&#45;&gt;ID_109_ct0_st03W</title>
<path fill="none" stroke="black" d="M953.36,-262.9C998.97,-264.12 1058.23,-265.7 1104.93,-266.95"/>
<polygon fill="black" stroke="black" points="1104.9,-270.45 1114.99,-267.22 1105.09,-263.45 1104.9,-270.45"/>
<text text-anchor="start" x="993" y="-269.8" font-family="arial" font-size="14.00" fill="#377eb8">(R&#39; || c1 &lt; 10)</text>
</g>
<!-- ID_109_ct0_st013W&#45;&gt;ID_109_ct0_st013W -->
<g id="edge26" class="edge">
<title>ID_109_ct0_st013W&#45;&gt;ID_109_ct0_st013W</title>
<path fill="none" stroke="black" d="M860.58,-286.18C859.65,-295.91 866.62,-304 881.5,-304 890.8,-304 897.01,-300.84 900.13,-296.09"/>
<polygon fill="black" stroke="black" points="903.58,-296.71 902.42,-286.18 896.76,-295.13 903.58,-296.71"/>
<text text-anchor="start" x="858.5" y="-307.8" font-family="arial" font-size="14.00" fill="#377eb8">c1 &lt; 10</text>
</g>
</g>
</svg>
