<?xml version="1.0" encoding="UTF-8" standalone="no"?>
<!DOCTYPE svg PUBLIC "-//W3C//DTD SVG 1.1//EN"
 "http://www.w3.org/Graphics/SVG/1.1/DTD/svg11.dtd">
<!-- Generated by graphviz version 2.43.0 (0)
 -->
<!-- Title: G Pages: 1 -->
<svg width="735pt" height="196pt"
 viewBox="0.00 0.00 735.00 196.00" xmlns="http://www.w3.org/2000/svg" xmlns:xlink="http://www.w3.org/1999/xlink">
<g id="graph0" class="graph" transform="scale(1 1) rotate(0) translate(4 192)">
<title>G</title>
<polygon fill="white" stroke="transparent" points="-4,4 -4,-192 731,-192 731,4 -4,4"/>
<!-- _st0 -->
<!-- st0 -->
<g id="node2" class="node">
<title>st0</title>
<polygon fill="none" stroke="black" points="153.5,-155 99.5,-155 99.5,-105 153.5,-105 153.5,-155"/>
<text text-anchor="start" x="116.5" y="-140.8" font-family="arial" font-weight="bold" font-size="14.00">st0</text>
<text text-anchor="start" x="118.5" y="-126.8" font-family="arial" font-size="14.00" fill="#984ea3">!Q</text>
<text text-anchor="start" x="114.5" y="-112.8" font-family="arial" font-size="14.00" fill="#ff7f00">true</text>
</g>
<!-- _st0&#45;&gt;st0 -->
<g id="edge1" class="edge">
<title>_st0&#45;&gt;st0</title>
<path fill="none" stroke="black" d="M54.13,-130C64.84,-130 77.42,-130 89.01,-130"/>
<polygon fill="black" stroke="black" points="89.3,-133.5 99.3,-130 89.3,-126.5 89.3,-133.5"/>
</g>
<!-- st0&#45;&gt;st0 -->
<g id="edge3" class="edge">
<title>st0&#45;&gt;st0</title>
<path fill="none" stroke="black" d="M116.41,-155.18C115.97,-164.91 119.33,-173 126.5,-173 130.87,-173 133.83,-170 135.37,-165.45"/>
<polygon fill="black" stroke="black" points="138.88,-165.52 136.59,-155.18 131.93,-164.69 138.88,-165.52"/>
<text text-anchor="start" x="114.5" y="-176.8" font-family="arial" font-size="14.00" fill="#377eb8">true</text>
</g>
<!-- st012W -->
<g id="node4" class="node">
<title>st012W</title>
<polygon fill="none" stroke="black" points="301,-110 236,-110 236,-60 301,-60 301,-110"/>
<text text-anchor="start" x="244" y="-95.8" font-family="arial" font-weight="bold" font-size="14.00">st012W</text>
<text text-anchor="start" x="262.5" y="-81.8" font-family="arial" font-size="14.00" fill="#984ea3">Q</text>
<text text-anchor="start" x="245.5" y="-67.8" font-family="arial" font-size="14.00" fill="#ff7f00">c0 &lt;= 5</text>
</g>
<!-- st0&#45;&gt;st012W -->
<g id="edge4" class="edge">
<title>st0&#45;&gt;st012W</title>
<path fill="none" stroke="black" d="M153.5,-121.64C173.92,-115.08 202.72,-105.82 226.27,-98.25"/>
<polygon fill="black" stroke="black" points="227.55,-101.52 236,-95.13 225.41,-94.85 227.55,-101.52"/>
<text text-anchor="start" x="187" y="-131.8" font-family="arial" font-size="14.00" fill="#377eb8">true</text>
<text text-anchor="start" x="180" y="-116.8" font-family="arial" font-size="14.00">c0 :=0</text>
</g>
<!-- _st012W -->
<!-- _st012W&#45;&gt;st012W -->
<g id="edge2" class="edge">
<title>_st012W&#45;&gt;st012W</title>
<path fill="none" stroke="black" d="M162.11,-72.96C181.28,-75.15 205.25,-77.89 225.49,-80.2"/>
<polygon fill="black" stroke="black" points="225.35,-83.71 235.69,-81.36 226.15,-76.75 225.35,-83.71"/>
</g>
<!-- st012W&#45;&gt;st012W -->
<g id="edge13" class="edge">
<title>st012W&#45;&gt;st012W</title>
<path fill="none" stroke="black" d="M255.8,-110.18C255.24,-119.91 259.47,-128 268.5,-128 274.14,-128 277.91,-124.84 279.81,-120.09"/>
<polygon fill="black" stroke="black" points="283.28,-120.56 281.2,-110.18 276.35,-119.59 283.28,-120.56"/>
<text text-anchor="start" x="249.5" y="-131.8" font-family="arial" font-size="14.00" fill="#377eb8">c0 &lt; 5</text>
</g>
<!-- st02W -->
<g id="node5" class="node">
<title>st02W</title>
<polygon fill="none" stroke="black" points="437,-104 375,-104 375,-54 437,-54 437,-104"/>
<text text-anchor="start" x="385.5" y="-89.8" font-family="arial" font-weight="bold" font-size="14.00">st02W</text>
<text text-anchor="start" x="398" y="-75.8" font-family="arial" font-size="14.00" fill="#984ea3">!Q</text>
<text text-anchor="start" x="383" y="-61.8" font-family="arial" font-size="14.00" fill="#ff7f00">c0 &lt;= 5</text>
</g>
<!-- st012W&#45;&gt;st02W -->
<g id="edge11" class="edge">
<title>st012W&#45;&gt;st02W</title>
<path fill="none" stroke="black" d="M301.06,-68.65C306.89,-66.31 313.02,-64.27 319,-63 335.52,-59.49 340.33,-60.29 357,-63 359.67,-63.43 362.4,-63.99 365.12,-64.65"/>
<polygon fill="black" stroke="black" points="364.33,-68.06 374.9,-67.34 366.19,-61.31 364.33,-68.06"/>
<text text-anchor="start" x="319" y="-66.8" font-family="arial" font-size="14.00" fill="#377eb8">c0 &lt; 5</text>
</g>
<!-- st02 -->
<g id="node6" class="node">
<title>st02</title>
<polygon fill="none" stroke="black" points="727,-123 651,-123 651,-73 727,-73 727,-123"/>
<text text-anchor="start" x="675" y="-108.8" font-family="arial" font-weight="bold" font-size="14.00">st02</text>
<text text-anchor="start" x="659" y="-94.8" font-family="arial" font-size="14.00" fill="#984ea3">(!Q &amp;&amp; R)</text>
<text text-anchor="start" x="677" y="-80.8" font-family="arial" font-size="14.00" fill="#ff7f00">true</text>
</g>
<!-- st012W&#45;&gt;st02 -->
<g id="edge12" class="edge">
<title>st012W&#45;&gt;st02</title>
<path fill="none" stroke="black" d="M301.25,-109.29C321.23,-123.01 348.23,-138.82 375,-146 467.74,-170.88 579.63,-139.47 641.37,-117"/>
<polygon fill="black" stroke="black" points="642.68,-120.24 650.84,-113.48 640.24,-113.68 642.68,-120.24"/>
<text text-anchor="start" x="455" y="-158.8" font-family="arial" font-size="14.00" fill="#377eb8">c0 &gt;= 5</text>
</g>
<!-- st012 -->
<g id="node7" class="node">
<title>st012</title>
<polygon fill="none" stroke="black" points="591,-50 519,-50 519,0 591,0 591,-50"/>
<text text-anchor="start" x="537.5" y="-35.8" font-family="arial" font-weight="bold" font-size="14.00">st012</text>
<text text-anchor="start" x="527" y="-21.8" font-family="arial" font-size="14.00" fill="#984ea3">(Q &amp;&amp; R)</text>
<text text-anchor="start" x="543" y="-7.8" font-family="arial" font-size="14.00" fill="#ff7f00">true</text>
</g>
<!-- st012W&#45;&gt;st012 -->
<g id="edge14" class="edge">
<title>st012W&#45;&gt;st012</title>
<path fill="none" stroke="black" d="M301.13,-63.32C321.29,-50.87 348.51,-36.44 375,-30 419.4,-19.2 471.83,-19.15 508.42,-21.07"/>
<polygon fill="black" stroke="black" points="508.59,-24.59 518.78,-21.69 509,-17.6 508.59,-24.59"/>
<text text-anchor="start" x="383" y="-33.8" font-family="arial" font-size="14.00" fill="#377eb8">c0 &gt;= 5</text>
</g>
<!-- st02W&#45;&gt;st012W -->
<g id="edge7" class="edge">
<title>st02W&#45;&gt;st012W</title>
<path fill="none" stroke="black" d="M374.79,-81.02C368.89,-81.38 362.75,-81.72 357,-82 342.1,-82.72 325.75,-83.33 311.27,-83.81"/>
<polygon fill="black" stroke="black" points="310.98,-80.31 301.1,-84.13 311.21,-87.31 310.98,-80.31"/>
<text text-anchor="start" x="319" y="-87.8" font-family="arial" font-size="14.00" fill="#377eb8">c0 &lt; 5</text>
</g>
<!-- st02W&#45;&gt;st02W -->
<g id="edge5" class="edge">
<title>st02W&#45;&gt;st02W</title>
<path fill="none" stroke="black" d="M393.3,-104.18C392.74,-113.91 396.97,-122 406,-122 411.64,-122 415.41,-118.84 417.31,-114.09"/>
<polygon fill="black" stroke="black" points="420.78,-114.56 418.7,-104.18 413.85,-113.59 420.78,-114.56"/>
<text text-anchor="start" x="387" y="-125.8" font-family="arial" font-size="14.00" fill="#377eb8">c0 &lt; 5</text>
</g>
<!-- st02W&#45;&gt;st02 -->
<g id="edge6" class="edge">
<title>st02W&#45;&gt;st02</title>
<path fill="none" stroke="black" d="M437.36,-83.19C459.85,-86.13 491.28,-89.9 519,-92 559.99,-95.1 606.7,-96.61 640.6,-97.33"/>
<polygon fill="black" stroke="black" points="640.63,-100.83 650.7,-97.53 640.77,-93.83 640.63,-100.83"/>
<text text-anchor="start" x="532" y="-99.8" font-family="arial" font-size="14.00" fill="#377eb8">c0 &gt;= 5</text>
</g>
<!-- st02W&#45;&gt;st012 -->
<g id="edge8" class="edge">
<title>st02W&#45;&gt;st012</title>
<path fill="none" stroke="black" d="M437.1,-67.94C457.83,-60.33 485.73,-50.08 509.07,-41.5"/>
<polygon fill="black" stroke="black" points="510.59,-44.68 518.77,-37.94 508.17,-38.11 510.59,-44.68"/>
<text text-anchor="start" x="455" y="-63.8" font-family="arial" font-size="14.00" fill="#377eb8">c0 &gt;= 5</text>
</g>
<!-- st02&#45;&gt;st02 -->
<g id="edge9" class="edge">
<title>st02&#45;&gt;st02</title>
<path fill="none" stroke="black" d="M676.3,-123.18C675.74,-132.91 679.97,-141 689,-141 694.64,-141 698.41,-137.84 700.31,-133.09"/>
<polygon fill="black" stroke="black" points="703.78,-133.56 701.7,-123.18 696.85,-132.59 703.78,-133.56"/>
<text text-anchor="start" x="677" y="-144.8" font-family="arial" font-size="14.00" fill="#377eb8">true</text>
</g>
<!-- st02&#45;&gt;st012 -->
<g id="edge10" class="edge">
<title>st02&#45;&gt;st012</title>
<path fill="none" stroke="black" d="M650.96,-77.52C635.12,-68.76 616.5,-58.46 599.97,-49.32"/>
<polygon fill="black" stroke="black" points="601.47,-46.15 591.03,-44.37 598.08,-52.27 601.47,-46.15"/>
<text text-anchor="start" x="609" y="-69.8" font-family="arial" font-size="14.00" fill="#377eb8">true</text>
</g>
<!-- st012&#45;&gt;st02 -->
<g id="edge15" class="edge">
<title>st012&#45;&gt;st02</title>
<path fill="none" stroke="black" d="M591.34,-24.92C605.03,-26.17 620.39,-29.22 633,-36 645.72,-42.84 656.93,-53.86 665.85,-64.72"/>
<polygon fill="black" stroke="black" points="663.31,-67.16 672.21,-72.92 668.84,-62.87 663.31,-67.16"/>
<text text-anchor="start" x="609" y="-39.8" font-family="arial" font-size="14.00" fill="#377eb8">true</text>
</g>
<!-- st012&#45;&gt;st012 -->
<g id="edge16" class="edge">
<title>st012&#45;&gt;st012</title>
<path fill="none" stroke="black" d="M542.67,-50.18C542.13,-59.91 546.23,-68 555,-68 560.48,-68 564.14,-64.84 565.98,-60.09"/>
<polygon fill="black" stroke="black" points="569.45,-60.56 567.33,-50.18 562.51,-59.61 569.45,-60.56"/>
<text text-anchor="start" x="543" y="-71.8" font-family="arial" font-size="14.00" fill="#377eb8">true</text>
</g>
</g>
</svg>
