<?xml version="1.0" encoding="UTF-8" standalone="no"?>
<!DOCTYPE svg PUBLIC "-//W3C//DTD SVG 1.1//EN"
 "http://www.w3.org/Graphics/SVG/1.1/DTD/svg11.dtd">
<!-- Generated by graphviz version 2.43.0 (0)
 -->
<!-- Title: G Pages: 1 -->
<svg width="470pt" height="91pt"
 viewBox="0.00 0.00 470.00 91.00" xmlns="http://www.w3.org/2000/svg" xmlns:xlink="http://www.w3.org/1999/xlink">
<g id="graph0" class="graph" transform="scale(1 1) rotate(0) translate(4 87)">
<title>G</title>
<polygon fill="white" stroke="transparent" points="-4,4 -4,-87 466,-87 466,4 -4,4"/>
<!-- _ID_49_ct0_st0X -->
<!-- ID_49_ct0_st0X -->
<g id="node2" class="node">
<title>ID_49_ct0_st0X</title>
<polygon fill="none" stroke="black" points="273,-50 157,-50 157,0 273,0 273,-50"/>
<text text-anchor="start" x="165" y="-35.8" font-family="arial" font-weight="bold" font-size="14.00">ID_49_ct0_st0X</text>
<text text-anchor="start" x="203" y="-21.8" font-family="arial" font-size="14.00" fill="#984ea3">true</text>
<text text-anchor="start" x="192" y="-7.8" font-family="arial" font-size="14.00" fill="#ff7f00">c0 &lt;= 5</text>
</g>
<!-- _ID_49_ct0_st0X&#45;&gt;ID_49_ct0_st0X -->
<g id="edge1" class="edge">
<title>_ID_49_ct0_st0X&#45;&gt;ID_49_ct0_st0X</title>
<path fill="none" stroke="black" d="M120.15,-25C128.8,-25 137.75,-25 146.54,-25"/>
<polygon fill="black" stroke="black" points="146.76,-28.5 156.76,-25 146.76,-21.5 146.76,-28.5"/>
</g>
<!-- ID_49_ct0_st0X&#45;&gt;ID_49_ct0_st0X -->
<g id="edge2" class="edge">
<title>ID_49_ct0_st0X&#45;&gt;ID_49_ct0_st0X</title>
<path fill="none" stroke="black" d="M200.81,-50.18C200.17,-59.91 204.91,-68 215,-68 221.31,-68 225.52,-64.84 227.64,-60.09"/>
<polygon fill="black" stroke="black" points="231.11,-60.6 229.19,-50.18 224.19,-59.51 231.11,-60.6"/>
<text text-anchor="start" x="196" y="-71.8" font-family="arial" font-size="14.00" fill="#377eb8">c0 &lt; 5</text>
</g>
<!-- ID_49_ct0_st0 -->
<g id="node3" class="node">
<title>ID_49_ct0_st0</title>
<polygon fill="none" stroke="black" points="462,-50 355,-50 355,0 462,0 462,-50"/>
<text text-anchor="start" x="363" y="-35.8" font-family="arial" font-weight="bold" font-size="14.00">ID_49_ct0_st0</text>
<text text-anchor="start" x="402.5" y="-21.8" font-family="arial" font-size="14.00" fill="#984ea3">Q</text>
<text text-anchor="start" x="396.5" y="-7.8" font-family="arial" font-size="14.00" fill="#ff7f00">true</text>
</g>
<!-- ID_49_ct0_st0X&#45;&gt;ID_49_ct0_st0 -->
<g id="edge3" class="edge">
<title>ID_49_ct0_st0X&#45;&gt;ID_49_ct0_st0</title>
<path fill="none" stroke="black" d="M273.2,-25C295.76,-25 321.75,-25 344.82,-25"/>
<polygon fill="black" stroke="black" points="344.85,-28.5 354.85,-25 344.85,-21.5 344.85,-28.5"/>
<text text-anchor="start" x="291" y="-28.8" font-family="arial" font-size="14.00" fill="#377eb8">c0 &gt;= 5</text>
</g>
<!-- ID_49_ct0_st0&#45;&gt;ID_49_ct0_st0 -->
<g id="edge4" class="edge">
<title>ID_49_ct0_st0&#45;&gt;ID_49_ct0_st0</title>
<path fill="none" stroke="black" d="M390.94,-50.18C390.16,-59.91 396.02,-68 408.5,-68 416.3,-68 421.51,-64.84 424.14,-60.09"/>
<polygon fill="black" stroke="black" points="427.59,-60.66 426.06,-50.18 420.72,-59.33 427.59,-60.66"/>
<text text-anchor="start" x="396.5" y="-71.8" font-family="arial" font-size="14.00" fill="#377eb8">true</text>
</g>
</g>
</svg>
